<?xml version="1.0" encoding="utf-8" standalone="no"?>
<!DOCTYPE svg PUBLIC "-//W3C//DTD SVG 1.1//EN"
  "http://www.w3.org/Graphics/SVG/1.1/DTD/svg11.dtd">
<svg xmlns:xlink="http://www.w3.org/1999/xlink" width="223.2pt" height="154.942034pt" viewBox="0 0 223.2 154.942034" xmlns="http://www.w3.org/2000/svg" version="1.1">
 <metadata>
  <rdf:RDF xmlns:dc="http://purl.org/dc/elements/1.1/" xmlns:cc="http://creativecommons.org/ns#" xmlns:rdf="http://www.w3.org/1999/02/22-rdf-syntax-ns#">
   <cc:Work>
    <dc:type rdf:resource="http://purl.org/dc/dcmitype/StillImage"/>
    <dc:date>2026-04-26T19:22:07.192645</dc:date>
    <dc:format>image/svg+xml</dc:format>
    <dc:creator>
     <cc:Agent>
      <dc:title>Matplotlib v3.10.9, https://matplotlib.org/</dc:title>
     </cc:Agent>
    </dc:creator>
   </cc:Work>
  </rdf:RDF>
 </metadata>
 <defs>
  <style type="text/css">*{stroke-linejoin: round; stroke-linecap: butt}</style>
 </defs>
 <g id="figure_1">
  <g id="patch_1">
   <path d="M 0 154.942034 
L 223.2 154.942034 
L 223.2 -0 
L 0 -0 
z
" style="fill: #ffffff"/>
  </g>
  <g id="axes_1">
   <g id="patch_2">
    <path d="M 208.125285 28.532216 
L 208.196618 28.621788 
L 208.222822 28.722564 
L 208.206808 28.831458 
L 208.151489 28.945384 
L 208.055408 29.420515 
L 207.829762 29.47654 
L 207.553165 29.268297 
L 207.298404 28.946156 
L 207.251819 28.902129 
L 207.199411 28.866214 
L 206.922813 28.790525 
L 206.621467 28.807902 
L 206.036245 28.945384 
L 205.670845 29.203398 
L 204.494577 29.839411 
L 203.805995 30.319162 
L 203.468255 30.42434 
L 202.542381 30.326122 
L 202.312368 30.37523 
L 202.110015 30.508257 
L 202.018301 30.716335 
L 201.94988 31.230114 
L 201.814492 31.381041 
L 200.983244 31.615597 
L 200.575626 31.613275 
L 200.157818 31.477026 
L 199.738554 31.38646 
L 198.585579 30.761978 
L 198.148846 30.608037 
L 197.287026 30.471132 
L 196.427108 30.439312 
L 196.419965 30.439047 
L 196.417055 30.43894 
L 196.393874 30.438082 
L 195.416353 30.401912 
L 193.574795 30.670694 
L 193.117681 30.608037 
L 192.680948 30.553892 
L 191.749251 30.662185 
L 191.073771 30.61964 
L 190.37063 30.830832 
L 190.168277 30.852495 
L 189.960101 30.830059 
L 189.548116 30.735675 
L 189.102649 30.695448 
L 186.999051 30.886538 
L 186.770494 30.958495 
L 186.432754 31.15814 
L 186.266795 31.226245 
L 186.073177 31.218505 
L 185.6379 31.066825 
L 185.288513 31.139567 
L 184.947862 31.295127 
L 184.537332 31.393426 
L 183.292643 31.44761 
L 182.116376 31.298996 
L 181.183223 31.355498 
L 180.276274 31.540503 
L 179.593514 31.840134 
L 178.711313 32.479139 
L 178.415791 32.54732 
L 177.770882 32.51168 
L 177.191482 32.675171 
L 176.56841 32.707717 
L 175.323721 32.95184 
L 174.705016 33.178184 
L 174.476459 33.316958 
L 174.422595 33.508477 
L 174.633682 33.797753 
L 174.732675 34.044431 
L 174.486649 34.167013 
L 173.668502 34.265554 
L 173.313293 34.364879 
L 173.147334 34.442482 
L 173.025049 34.569763 
L 173.049797 34.693952 
L 173.108028 34.82126 
L 173.089103 34.957122 
L 172.862002 35.143472 
L 172.284059 35.263839 
L 171.991447 35.405189 
L 171.764346 35.607147 
L 171.096145 35.938121 
L 170.902526 36.07722 
L 170.7322 36.232657 
L 170.550228 36.367127 
L 170.323127 36.440975 
L 169.410355 36.492282 
L 169.120655 36.653217 
L 169.139581 37.12915 
L 169.378328 37.537578 
L 169.41909 37.74379 
L 169.253131 37.910342 
L 169.031853 37.981172 
L 168.807663 37.99207 
L 168.600943 37.919682 
L 168.186047 37.535243 
L 167.375179 37.063814 
L 167.091303 36.961929 
L 166.827807 36.986039 
L 166.690964 37.115927 
L 166.522094 37.580373 
L 166.404176 37.823171 
L 166.290625 37.983508 
L 165.936871 38.285558 
L 165.866994 38.515262 
L 166.014028 38.747346 
L 166.094095 38.945198 
L 165.820409 39.074521 
L 165.478302 39.136071 
L 165.21335 39.22022 
L 164.977515 39.357365 
L 163.902423 40.400494 
L 163.616363 40.593939 
L 162.7247 40.865439 
L 162.651911 40.964535 
L 162.582034 41.286071 
L 162.484497 41.428137 
L 162.352021 41.510105 
L 161.924023 41.688112 
L 161.371555 42.00125 
L 161.295855 42.112157 
L 161.224522 42.433217 
L 161.153917 42.572292 
L 160.699714 42.972416 
L 160.566511 43.206144 
L 160.622771 43.431668 
L 160.637116 43.489178 
L 160.791428 43.612734 
L 161.298038 43.856753 
L 161.496024 43.98895 
L 161.855601 44.328506 
L 162.234103 44.466233 
L 162.63153 44.542929 
L 163.040603 44.696334 
L 163.249507 44.911605 
L 163.309922 45.408045 
L 163.459867 45.637541 
L 164.098953 46.036324 
L 164.300578 46.265938 
L 164.770794 47.009147 
L 164.862508 47.233452 
L 164.878522 47.384843 
L 164.863964 47.515853 
L 164.86542 47.653155 
L 164.928018 47.824215 
L 165.009542 47.929374 
L 165.217718 48.073786 
L 165.310887 48.157772 
L 165.488492 48.424683 
L 165.551091 48.694007 
L 165.469567 48.970459 
L 165.214806 49.258758 
L 165.037201 49.563627 
L 165.169677 49.822195 
L 165.452098 50.024215 
L 166.228027 50.359939 
L 166.45804 50.512499 
L 166.589059 50.738229 
L 166.580325 51.030086 
L 166.484244 51.305486 
L 166.423101 51.594328 
L 166.508992 51.932838 
L 166.588101 52.035185 
L 166.690964 52.168275 
L 166.877303 52.354924 
L 166.996677 52.562081 
L 166.97484 52.859094 
L 166.836542 53.082884 
L 166.149415 53.614941 
L 165.717049 54.113309 
L 165.692301 54.525873 
L 165.945606 54.91174 
L 166.725903 55.709887 
L 167.155357 56.019493 
L 167.215044 56.224885 
L 167.092758 56.524344 
L 166.739005 57.012796 
L 165.76509 57.618484 
L 165.398234 58.025073 
L 165.377853 58.696151 
L 165.455009 58.850518 
L 165.431717 58.99461 
L 165.332724 59.118922 
L 165.179867 59.217905 
L 165.178412 59.217905 
L 165.178412 59.219489 
L 165.066317 59.381047 
L 164.944032 59.736704 
L 164.843583 59.899119 
L 164.708196 60.006879 
L 164.500867 60.082287 
L 162.806223 60.698819 
L 162.306892 61.044533 
L 162.044124 61.516471 
L 161.830125 62.039374 
L 161.089862 62.992889 
L 160.899156 63.16366 
L 160.355423 63.421049 
L 159.364767 64.149802 
L 159.217733 64.32947 
L 159.19808 64.564825 
L 159.303624 64.908393 
L 159.354576 65.227388 
L 159.307992 65.602964 
L 159.156591 65.911781 
L 158.898918 66.02482 
L 158.327526 65.944418 
L 158.029819 65.946806 
L 157.995015 65.961137 
L 157.78816 66.046314 
L 157.623658 66.319404 
L 157.604733 66.658258 
L 157.683345 67.003572 
L 157.818732 67.2924 
L 158.109887 67.69049 
L 158.50877 68.132156 
L 158.946959 68.512554 
L 159.948533 69.021518 
L 160.009676 69.401375 
L 159.596963 70.479295 
L 159.594052 70.759298 
L 159.730167 71.2999 
L 159.771656 71.612056 
L 159.752003 71.98306 
L 159.663201 72.190596 
L 159.270141 72.601764 
L 159.113645 72.910623 
L 159.128931 73.164325 
L 159.176972 73.410871 
L 159.111462 73.701501 
L 158.887272 73.893287 
L 158.197234 74.025832 
L 157.907534 74.117539 
L 157.746671 74.328211 
L 157.58144 74.467609 
L 157.380543 74.528099 
L 157.119959 74.507668 
L 156.740729 74.397107 
L 156.600247 74.433158 
L 156.539104 74.63146 
L 156.28871 75.088665 
L 155.290047 75.262613 
L 153.386619 75.244175 
L 151.496293 75.493108 
L 151.066839 75.479076 
L 149.904401 75.249386 
L 148.766711 75.204895 
L 148.509039 75.136759 
L 148.025721 74.911936 
L 147.226499 74.841811 
L 144.183926 73.863656 
L 143.708615 73.833626 
L 142.961073 73.939736 
L 142.584027 74.05867 
L 142.349647 74.27534 
L 142.319076 74.521689 
L 142.367116 74.754461 
L 142.340912 74.984067 
L 142.090519 75.219324 
L 141.905635 75.445001 
L 141.991526 75.675527 
L 142.404238 76.054077 
L 142.530163 76.25743 
L 142.717958 76.846808 
L 142.841699 77.093628 
L 143.176528 77.546852 
L 143.300269 77.779343 
L 143.400718 78.082565 
L 143.545568 78.38224 
L 143.758839 78.504378 
L 144.094347 78.547135 
L 144.310578 78.574693 
L 145.067582 78.874878 
L 145.667362 78.77722 
L 145.807845 78.94481 
L 145.926491 79.560286 
L 146.010926 79.80197 
L 146.072068 79.882005 
L 146.200177 79.981753 
L 146.433101 80.085128 
L 146.541556 80.156329 
L 146.596148 80.258511 
L 146.587413 80.635927 
L 146.299169 81.619385 
L 146.275877 81.913795 
L 146.326829 82.213908 
L 146.45057 82.493938 
L 146.645644 82.731707 
L 146.756283 82.80103 
L 147.149343 82.919935 
L 147.249064 83.002974 
L 147.353152 83.253732 
L 147.425941 83.368241 
L 148.168387 84.144654 
L 148.391849 84.630084 
L 148.2914 85.143137 
L 145.901742 87.018137 
L 145.628056 87.162472 
L 145.322343 87.139426 
L 144.986059 87.0335 
L 144.8201 87.095761 
L 144.348428 87.930085 
L 144.240701 88.070469 
L 144.069647 88.140464 
L 143.661302 88.108096 
L 143.521547 88.134799 
L 142.466837 88.736977 
L 141.872152 88.777456 
L 140.930264 88.337115 
L 140.382892 88.422906 
L 139.721242 88.86975 
L 139.464297 88.928854 
L 139.337644 88.906589 
L 139.216815 88.852748 
L 139.082884 88.815506 
L 138.627225 88.896468 
L 138.337526 88.889181 
L 137.770501 88.960027 
L 137.301013 89.247088 
L 136.928334 89.690954 
L 136.793087 89.957834 
L 136.657559 90.225318 
L 136.921055 91.926581 
L 136.7813 92.382652 
L 136.699049 92.454891 
L 136.334377 92.71506 
L 135.989358 93.168542 
L 135.511863 93.506008 
L 135.359006 93.717624 
L 135.383755 94.025153 
L 135.456543 94.148671 
L 135.55772 94.251882 
L 135.680733 94.329498 
L 135.801562 94.377045 
L 135.8991 94.445727 
L 135.935494 94.56481 
L 135.961698 94.840813 
L 136.102908 95.361663 
L 136.059235 95.554845 
L 135.888909 95.863583 
L 135.146463 96.918837 
L 134.897525 97.114671 
L 134.313759 97.308088 
L 134.029882 97.481168 
L 133.601884 97.989531 
L 133.338388 98.586923 
L 133.269967 99.239609 
L 133.418456 99.918698 
L 133.783128 100.801783 
L 133.834808 101.134099 
L 133.818794 101.477925 
L 133.720529 102.153971 
L 133.713978 102.822972 
L 133.606251 103.491868 
L 133.594605 103.833794 
L 133.870474 105.333312 
L 134.314486 106.539267 
L 134.351609 106.745 
L 134.300405 106.834756 
L 134.267902 106.891735 
L 133.593149 107.37795 
L 133.21028 107.776552 
L 131.668612 110.066882 
L 131.467715 110.285426 
L 131.25226 110.416074 
L 131.067376 110.70124 
L 130.623364 111.094972 
L 130.115298 111.445226 
L 129.738252 111.598179 
L 129.227274 111.56364 
L 128.748324 111.712493 
L 127.854477 112.155027 
L 127.295458 112.217551 
L 126.921324 111.962533 
L 126.272047 111.056334 
L 125.909559 110.646997 
L 125.803287 110.413609 
L 125.761069 109.771158 
L 125.6679 109.576506 
L 125.491751 109.479599 
L 124.698352 109.34 
L 123.875838 108.890084 
L 123.402711 108.712783 
L 123.087535 108.717708 
L 122.75489 108.828519 
L 122.14492 109.140477 
L 121.871234 109.34739 
L 121.920002 109.504236 
L 122.164573 109.608535 
L 122.47247 109.65617 
L 123.315364 109.63728 
L 123.587595 109.673418 
L 123.717159 109.816334 
L 123.534459 110.015126 
L 123.229473 110.190938 
L 122.987815 110.265706 
L 122.465919 110.182722 
L 120.988305 109.673418 
L 120.43147 109.63071 
L 119.873908 109.65617 
L 119.565283 109.61182 
L 119.39059 109.444288 
L 119.245012 109.234077 
L 118.886163 108.952473 
L 118.575355 108.788298 
L 118.214322 108.665998 
L 117.924623 108.685697 
L 117.744106 108.89501 
L 117.444944 109.574042 
L 117.358127 109.72719 
L 117.289904 109.847548 
L 116.824783 110.260776 
L 116.755634 110.403748 
L 116.709049 110.739869 
L 116.628981 110.851652 
L 115.889447 111.248712 
L 115.653611 111.432892 
L 115.494931 111.649989 
L 115.342074 111.729764 
L 114.77141 111.759372 
L 114.343412 111.69111 
L 114.151249 111.698512 
L 113.757461 111.884391 
L 112.890546 112.828947 
L 112.427353 113.144021 
L 112.123352 113.350844 
L 111.695353 113.519635 
L 111.260804 113.562453 
L 110.345848 113.365664 
L 109.901836 113.375544 
L 109.720592 113.657151 
L 109.823224 113.895158 
L 110.029945 114.136498 
L 110.213373 114.412479 
L 110.296352 115.036298 
L 110.500161 115.273696 
L 110.781126 115.444349 
L 111.059179 115.521026 
L 112.230351 115.37015 
L 112.738418 115.53092 
L 112.804655 116.199738 
L 112.659078 116.498368 
L 112.443623 116.594899 
L 111.874414 116.574272 
L 111.645857 116.639454 
L 111.450783 116.777252 
L 111.267355 116.942296 
L 110.369141 117.503577 
L 110.108557 117.597695 
L 109.35592 117.734753 
L 108.836208 117.953576 
L 107.999136 118.063412 
L 107.023038 118.468966 
L 106.763909 118.516053 
L 105.862055 118.435923 
L 105.131256 118.470618 
L 104.898331 118.444184 
L 104.608632 118.344232 
L 104.094742 118.06589 
L 103.813777 117.983306 
L 103.53354 117.995693 
L 102.992719 118.127831 
L 102.707387 118.122876 
L 102.384205 118.06589 
L 102.209511 118.010558 
L 102.102512 117.926325 
L 102.082859 117.798332 
L 102.139634 117.701726 
L 102.217518 117.603474 
L 102.253185 117.473032 
L 102.224069 117.117261 
L 102.124348 116.896082 
L 101.9169 116.788804 
L 101.088563 116.806958 
L 100.5623 116.953849 
L 99.612405 117.409466 
L 99.191686 117.765304 
L 98.863408 118.131961 
L 98.500192 118.403707 
L 97.961554 118.475575 
L 97.619447 118.706896 
L 97.141952 120.509912 
L 96.872633 120.877221 
L 95.549332 122.209856 
L 95.231973 122.348151 
L 93.327817 122.728319 
L 93.089069 122.855062 
L 92.960961 123.077094 
L 91.576517 128.239891 
L 91.533572 128.940792 
L 91.773047 129.579605 
L 92.113699 130.014776 
L 92.221426 130.22117 
L 92.300766 130.55079 
L 92.334977 130.880477 
L 92.070025 133.010091 
L 92.102053 133.986688 
L 92.040182 134.29622 
L 91.131049 136.137944 
L 90.925057 136.750365 
L 90.890846 137.006932 
L 90.974553 137.224251 
L 91.470245 137.568678 
L 92.049645 138.157381 
L 92.483466 138.491965 
L 92.598472 138.645897 
L 92.546065 138.719521 
L 92.428147 138.759682 
L 92.343712 138.80821 
L 92.052556 139.3078 
L 91.678421 139.802518 
L 90.557473 140.609789 
L 89.357913 140.961628 
L 88.539767 141.201256 
L 87.72162 141.441757 
L 86.902018 141.680617 
L 86.086783 141.920768 
L 85.268636 142.160116 
L 84.450489 142.400756 
L 83.633071 142.640173 
L 82.813468 142.880464 
L 81.99605 143.120369 
L 81.177903 143.361148 
L 80.361212 143.601123 
L 79.543066 143.841132 
L 78.727831 144.080756 
L 77.908228 144.320834 
L 77.090082 144.561367 
L 76.271935 144.800674 
L 74.228752 145.401192 
L 73.527796 145.378512 
L 71.185451 144.950574 
L 69.263825 144.935457 
L 66.666333 144.912924 
L 66.35955 144.910263 
L 62.557061 146.054448 
L 62.062097 146.309517 
L 61.74037 146.729815 
L 61.227937 147.741481 
L 60.843612 147.899214 
L 59.236434 147.199832 
L 56.643695 146.695347 
L 53.554537 146.095206 
L 51.404355 146.298591 
L 50.712133 146.36415 
L 50.021367 146.429712 
L 49.329873 146.495276 
L 48.639834 146.561683 
L 47.949796 146.627253 
L 47.258302 146.691984 
L 46.568264 146.757558 
L 45.878226 146.823976 
L 45.186732 146.889556 
L 44.496693 146.954717 
L 43.805199 147.020722 
L 43.115161 147.085469 
L 42.424395 147.151899 
L 41.733629 147.217492 
L 41.043591 147.283087 
L 40.352824 147.348684 
L 39.947604 147.387059 
L 38.185901 147.553903 
L 36.734491 147.276359 
L 35.395904 146.843313 
L 34.224732 146.462073 
L 33.051376 146.08302 
L 31.877292 145.702372 
L 30.706847 145.321811 
L 29.533491 144.943015 
L 28.360135 144.562206 
L 27.186779 144.181904 
L 26.014878 143.803366 
L 24.842978 143.424075 
L 23.669622 143.043193 
L 22.497721 142.664914 
L 21.324365 142.285463 
L 20.152465 141.906937 
L 18.980564 141.527659 
L 17.805752 141.14763 
L 16.633852 140.768945 
L 15.62791 140.444786 
L 15.182443 140.239601 
L 15.996222 139.28855 
L 17.066218 138.037783 
L 17.070585 138.033602 
L 19.248427 135.448097 
L 20.411593 134.068446 
L 21.207903 133.122649 
L 22.732101 131.316835 
L 23.877798 129.959853 
L 25.490798 128.03874 
L 27.271214 125.923215 
L 28.434379 124.544292 
L 28.674582 124.293031 
L 28.639644 124.207627 
L 28.620719 124.190216 
L 28.6411 123.900877 
L 28.676038 123.788141 
L 28.760473 123.741722 
L 28.70661 122.646314 
L 28.645467 122.459127 
L 28.914786 121.93827 
L 29.015234 121.601337 
L 29.013778 121.286822 
L 28.945357 120.968234 
L 28.773575 120.445394 
L 28.527549 119.936787 
L 28.49261 119.770595 
L 28.469318 119.301882 
L 28.349944 118.942384 
L 27.972898 118.33432 
L 27.836055 118.00808 
L 27.830232 117.690166 
L 27.927769 117.004192 
L 27.830232 116.708764 
L 27.326533 116.086736 
L 27.049936 115.873952 
L 26.687447 115.734586 
L 25.913903 115.625579 
L 24.288327 115.396532 
L 21.526718 115.004977 
L 19.137228 114.666187 
L 19.114496 114.662965 
L 16.754682 114.328444 
L 15.332388 114.126613 
L 14.863627 113.93634 
L 14.697669 112.443813 
L 14.486581 111.674662 
L 14.453098 111.302155 
L 14.632159 110.126855 
L 14.437085 108.656149 
L 14.406513 107.887294 
L 14.511329 106.906491 
L 14.486581 106.562216 
L 14.431262 106.392566 
L 14.361384 106.236867 
L 14.332269 106.073809 
L 14.453098 105.724812 
L 14.370119 105.635528 
L 14.252201 105.570001 
L 14.20416 105.472536 
L 14.313344 105.229311 
L 14.681655 104.775726 
L 14.76609 104.511335 
L 14.955341 103.251423 
L 14.984457 101.963176 
L 14.505506 100.272031 
L 13.885345 98.083647 
L 13.313225 96.259874 
L 12.794968 94.60261 
L 12.304372 93.031711 
L 11.826877 91.510807 
L 11.423627 90.224508 
L 11.218362 89.222388 
L 11.197981 87.984295 
L 11.283872 87.765446 
L 11.965176 86.906156 
L 12.730914 85.943975 
L 13.416585 85.079348 
L 13.952311 84.402883 
L 14.358473 84.068002 
L 14.819954 83.800962 
L 14.966988 83.623099 
L 15.045599 83.311389 
L 15.019395 83.042882 
L 14.969899 82.782893 
L 15.010661 82.558817 
L 15.259599 82.404886 
L 15.9278 82.363385 
L 16.135976 82.293278 
L 16.244624 82.121007 
L 16.259717 82.097077 
L 16.134521 81.873516 
L 15.897229 81.675765 
L 15.678862 81.557772 
L 15.205735 81.44744 
L 14.661274 81.410396 
L 13.626217 81.461936 
L 12.522738 81.383419 
L 11.385776 80.948641 
L 10.497753 80.160754 
L 10.14691 79.024794 
L 10.260461 78.515628 
L 10.695738 77.613503 
L 10.72631 77.002921 
L 10.323059 74.63146 
L 10.169159 73.288253 
L 10.145455 73.081487 
L 10.22989 72.388564 
L 10.625861 71.659625 
L 11.069873 71.13486 
L 11.563381 70.667821 
L 12.233039 70.343908 
L 12.452861 70.12548 
L 12.355324 69.79651 
L 13.351075 69.742621 
L 14.782104 69.663189 
L 15.831719 69.60691 
L 15.671584 69.317574 
L 14.626336 68.085112 
L 14.403602 67.684113 
L 14.266759 67.505178 
L 14.096433 67.365315 
L 13.751414 67.221881 
L 13.626217 67.114316 
L 13.505388 66.746669 
L 13.415129 66.640735 
L 13.2943 66.579409 
L 13.144355 66.559897 
L 13.351075 66.235799 
L 13.701917 66.072586 
L 14.473479 65.978648 
L 14.824321 65.889493 
L 15.099463 65.719956 
L 15.738549 65.061119 
L 15.809882 64.938619 
L 15.901596 64.836014 
L 16.090847 64.738188 
L 16.287377 64.709558 
L 16.470805 64.723078 
L 16.635308 64.68729 
L 16.782341 64.511548 
L 16.839117 64.137083 
L 16.792532 63.739679 
L 16.810001 63.376558 
L 17.064762 63.108852 
L 17.51023 62.795936 
L 17.783916 62.354488 
L 17.863983 62.100486 
L 18.296349 61.970329 
L 18.408444 61.464113 
L 18.469587 60.921619 
L 18.459396 60.78841 
L 18.396798 60.503009 
L 18.38224 60.346065 
L 18.427369 60.153479 
L 18.626811 59.86505 
L 18.670484 59.718483 
L 18.717069 59.419063 
L 18.922333 58.844184 
L 19.006768 58.211009 
L 19.108673 57.991845 
L 19.449324 57.564703 
L 19.300835 57.425518 
L 19.278999 57.299789 
L 19.316849 57.163795 
L 19.344509 56.98987 
L 19.305203 56.92505 
L 18.804415 56.323644 
L 18.731627 56.171164 
L 18.816062 56.102436 
L 18.957272 56.036081 
L 18.963095 55.889165 
L 18.894674 55.742266 
L 18.816062 55.67593 
L 18.805871 55.527477 
L 18.817517 55.201414 
L 18.900497 54.876225 
L 19.10285 54.727866 
L 19.40274 54.721553 
L 19.739024 54.671052 
L 20.009799 54.533763 
L 20.121893 54.263173 
L 20.056383 53.477767 
L 20.121893 53.164846 
L 20.203417 52.9962 
L 20.49894 52.644009 
L 20.576096 52.488036 
L 20.698381 52.01 
L 20.854149 51.717125 
L 21.184611 51.36136 
L 21.372406 51.074146 
L 21.459752 50.757893 
L 21.424814 50.450372 
L 21.276324 49.827697 
L 21.172964 49.686224 
L 21.365127 49.623352 
L 22.103206 49.497618 
L 22.222579 49.497618 
L 22.32594 49.544767 
L 22.458415 49.647714 
L 22.446769 49.687796 
L 22.32594 49.859138 
L 22.500633 49.994342 
L 22.522469 49.990411 
L 22.553041 49.998273 
L 22.775775 50.173589 
L 22.781598 50.239634 
L 22.726278 50.403975 
L 22.730646 50.464527 
L 22.823815 50.583281 
L 22.912618 50.67373 
L 23.026168 50.731149 
L 23.186304 50.75396 
L 23.280625 50.790962 
L 23.398847 50.837342 
L 24.314531 51.578585 
L 24.962351 52.216313 
L 25.892593 52.547115 
L 27.792382 52.80394 
L 28.629453 52.747213 
L 30.323978 52.2234 
L 31.146492 52.237576 
L 31.565027 52.420297 
L 31.936251 52.647948 
L 33.380381 53.90826 
L 33.768346 54.140125 
L 34.545003 54.443823 
L 34.751723 54.634756 
L 34.901668 54.874647 
L 34.998477 55.144579 
L 35.01813 55.41299 
L 34.994838 56.031341 
L 35.077817 56.263598 
L 35.343496 56.81597 
L 35.491258 56.974851 
L 35.713992 56.869718 
L 37.084605 55.212466 
L 37.543175 54.835188 
L 37.923861 54.816248 
L 38.849007 55.575643 
L 39.002591 55.649081 
L 39.143802 55.638815 
L 39.283556 55.602491 
L 39.434957 55.596963 
L 39.849854 55.752532 
L 39.97505 55.770697 
L 40.207975 55.720154 
L 41.22993 55.327724 
L 41.441018 55.210887 
L 41.624446 55.052227 
L 41.80205 54.83361 
L 42.171818 54.502204 
L 43.053208 54.119539 
L 43.116617 54.092014 
L 44.393333 53.194006 
L 45.338132 52.791334 
L 45.623465 52.733032 
L 46.208687 52.688126 
L 46.48674 52.623527 
L 46.675263 52.448652 
L 46.760426 52.165125 
L 46.820113 51.588031 
L 46.964235 51.109552 
L 46.914739 50.949838 
L 46.680359 50.781492 
L 46.63523 50.595078 
L 46.601019 49.818265 
L 46.625039 49.591917 
L 46.998446 49.2674 
L 48.07936 48.957106 
L 48.470964 48.702645 
L 48.553943 48.564441 
L 48.56559 48.458443 
L 48.494257 48.379147 
L 48.136135 48.259819 
L 48.042238 48.19074 
L 47.84498 47.956842 
L 47.123643 47.385627 
L 47.034112 47.188745 
L 46.972242 46.920534 
L 46.831759 46.726863 
L 46.734222 46.533222 
L 46.793909 46.27064 
L 47.011548 46.07237 
L 47.309982 46.015167 
L 50.375848 46.075504 
L 51.605252 45.85141 
L 52.744397 45.38455 
L 52.953301 45.220094 
L 53.286674 44.820795 
L 53.481748 44.645458 
L 53.744516 44.517885 
L 54.02912 44.463103 
L 55.767318 44.369196 
L 56.333615 44.241652 
L 57.656916 43.563466 
L 58.079091 43.449299 
L 58.311519 43.417588 
L 58.531838 43.387529 
L 58.926354 43.461028 
L 60.266396 43.916983 
L 60.272947 43.726916 
L 60.143383 43.011498 
L 60.141199 42.74186 
L 60.259845 42.50119 
L 60.43745 42.305877 
L 61.368419 41.688893 
L 61.866295 41.474194 
L 62.390375 41.389106 
L 62.97123 41.471852 
L 63.204882 41.556166 
L 63.379575 41.592079 
L 63.51933 41.489807 
L 63.742063 40.882604 
L 63.908022 40.700035 
L 64.123477 40.575997 
L 64.38115 40.482393 
L 65.418391 40.272588 
L 65.892974 40.119743 
L 66.35955 39.793061 
L 66.647794 39.494526 
L 67.753457 38.014643 
L 68.003122 37.494005 
L 68.164714 36.938598 
L 68.230224 36.339143 
L 68.191645 36.027484 
L 67.99366 35.453345 
L 67.927422 35.146578 
L 67.92451 34.842997 
L 67.969639 34.533284 
L 68.150156 33.940478 
L 68.38308 33.459625 
L 69.892921 31.09157 
L 70.409522 30.28243 
L 70.600228 29.776026 
L 70.541997 29.191037 
L 70.274134 28.054748 
L 70.338188 27.472559 
L 70.600228 27.093079 
L 71.010757 26.832452 
L 73.562734 25.666909 
L 74.60507 25.37542 
L 80.589073 25.24482 
L 80.77902 25.240675 
L 81.278352 25.019727 
L 81.93054 24.260978 
L 82.326511 23.918706 
L 82.507027 23.709163 
L 82.582728 23.407412 
L 82.574721 23.078461 
L 82.463354 22.441197 
L 82.53032 22.108303 
L 82.67153 21.79201 
L 82.846223 21.498828 
L 82.847679 21.497293 
L 82.848407 21.494223 
L 82.994712 21.254823 
L 83.137379 21.102155 
L 83.30916 21.015473 
L 83.552275 20.970601 
L 84.131674 20.97597 
L 84.318014 20.845198 
L 84.40536 20.455655 
L 84.441755 20.24407 
L 84.654298 20.325326 
L 84.935263 20.378222 
L 85.045902 20.438021 
L 85.281738 20.88508 
L 85.394561 21.026979 
L 85.492826 21.122867 
L 85.762144 21.289349 
L 88.924092 22.285681 
L 89.180308 22.470767 
L 89.571184 22.912484 
L 89.815027 23.115348 
L 90.098904 23.236776 
L 90.261951 23.257528 
L 90.727799 23.236776 
L 90.8792 23.267904 
L 91.077186 23.407412 
L 91.208933 23.438929 
L 91.335267 23.493253 
L 91.432395 23.535022 
L 91.666775 23.736843 
L 91.949196 23.916398 
L 92.318963 23.94716 
L 93.289966 23.678792 
L 93.626251 23.642271 
L 93.768917 23.701089 
L 93.980733 23.965618 
L 94.155426 24.03945 
L 94.301731 24.017146 
L 94.421105 23.937932 
L 94.63656 23.734921 
L 94.885498 23.552704 
L 95.120606 23.425861 
L 95.394292 23.352837 
L 95.754597 23.329009 
L 96.092337 23.36206 
L 97.023306 23.694169 
L 97.197272 23.721465 
L 97.578685 23.734921 
L 97.72863 23.688403 
L 98.005956 23.485821 
L 98.154445 23.438929 
L 99.996731 23.370131 
L 101.290916 23.113042 
L 101.970764 23.125338 
L 102.226981 23.227937 
L 102.790366 23.568848 
L 103.085889 23.642271 
L 103.259126 23.776827 
L 103.492051 24.42292 
L 103.624526 24.649524 
L 103.908403 24.799976 
L 104.532931 25.002792 
L 104.816808 25.222967 
L 104.958018 25.479377 
L 105.06065 25.755873 
L 105.222242 25.983897 
L 105.537417 26.092147 
L 105.851865 26.039754 
L 106.389047 25.745089 
L 106.750079 25.676537 
L 107.092187 25.65189 
L 107.397172 25.578723 
L 107.680321 25.454735 
L 107.95983 25.278017 
L 108.422767 24.8831 
L 108.681895 24.718014 
L 108.974506 24.649524 
L 109.298417 24.784584 
L 109.564096 25.400831 
L 109.794837 25.574102 
L 109.946965 25.525584 
L 110.056149 25.38389 
L 110.142039 25.23567 
L 110.230114 25.167534 
L 110.377147 25.151367 
L 110.645738 25.082081 
L 110.805874 25.065145 
L 110.967465 25.107485 
L 111.274634 25.304196 
L 111.430402 25.3708 
L 111.608735 25.390051 
L 112.111706 25.3708 
L 112.403589 25.432403 
L 112.652527 25.559469 
L 112.817757 25.758183 
L 112.881812 26.036672 
L 112.760982 26.989746 
L 112.776268 27.213388 
L 112.949505 27.413932 
L 113.269048 27.612582 
L 113.619163 27.764196 
L 114.256065 27.89345 
L 114.451139 28.078675 
L 114.599628 28.342286 
L 114.823818 28.649587 
L 114.976674 28.762722 
L 115.310047 28.91217 
L 115.435244 29.006406 
L 115.91929 29.517111 
L 116.001541 29.641151 
L 116.058317 29.772934 
L 116.12965 29.889657 
L 116.257758 29.967351 
L 116.32255 29.969768 
L 116.433907 29.973922 
L 116.602777 29.914395 
L 116.746899 29.833227 
L 117.678596 29.150864 
L 117.851834 29.057389 
L 118.113874 28.963922 
L 118.338791 28.765039 
L 118.598647 28.582406 
L 118.966959 28.538393 
L 119.547086 28.703257 
L 119.885554 28.705574 
L 120.034043 28.491294 
L 119.939418 27.862968 
L 119.927772 27.561662 
L 120.034043 27.314427 
L 120.301178 27.150147 
L 120.574136 27.167885 
L 120.847823 27.259279 
L 121.125876 27.314427 
L 121.492732 27.281261 
L 121.768601 27.162872 
L 121.861043 26.940397 
L 121.659418 26.591926 
L 122.533612 26.536427 
L 123.203269 26.40771 
L 123.351759 26.397691 
L 123.476956 26.332954 
L 123.671302 26.046303 
L 123.740451 25.980815 
L 124.021416 25.949613 
L 124.548407 25.809793 
L 124.803168 25.777441 
L 124.85776 25.664599 
L 124.9371 25.424702 
L 125.108881 25.209493 
L 125.427697 25.167534 
L 125.346173 24.985857 
L 125.306867 24.9212 
L 125.234806 24.862318 
L 125.394214 24.704161 
L 125.648975 24.693388 
L 126.197803 24.760341 
L 126.48823 24.734944 
L 126.672386 24.749567 
L 126.836889 24.816908 
L 127.360968 25.101327 
L 127.528383 25.112104 
L 127.588069 24.967383 
L 127.551675 24.649524 
L 127.384989 24.200976 
L 127.435941 24.032528 
L 127.746021 23.94716 
L 128.040816 24.010224 
L 128.199496 24.200207 
L 128.326148 24.439077 
L 128.513216 24.649524 
L 128.716296 24.728018 
L 128.872793 24.692618 
L 128.947765 24.560262 
L 128.898269 24.344831 
L 128.832759 24.28021 
L 128.604202 24.135594 
L 128.513216 24.03945 
L 128.439699 23.862567 
L 128.479005 23.813353 
L 128.560528 23.827963 
L 128.610025 23.84565 
L 129.571565 23.94716 
L 129.850347 24.077907 
L 130.135679 24.298672 
L 130.354773 24.560262 
L 130.562222 25.102096 
L 130.841731 25.31767 
L 131.16273 25.495549 
L 131.416763 25.676537 
L 131.668612 26.206572 
L 131.799632 26.329871 
L 132.111168 26.512532 
L 132.185413 26.541052 
L 133.518904 27.3044 
L 133.802053 27.281646 
L 134.081562 27.169428 
L 134.405474 27.110442 
L 134.454241 27.101562 
L 134.620927 27.049123 
L 134.773784 26.928831 
L 135.000157 26.703702 
L 135.568638 26.397691 
L 135.801562 26.206572 
L 136.286336 25.518653 
L 136.329282 25.328065 
L 136.070881 25.282637 
L 135.831406 25.190246 
L 135.944956 24.862318 
L 135.829222 24.727249 
L 135.736053 24.214823 
L 135.616679 23.99292 
L 135.54389 23.891021 
L 135.501672 23.762987 
L 135.479836 23.623434 
L 135.474013 23.485821 
L 135.492938 23.441235 
L 135.530788 23.43201 
L 135.564271 23.40895 
L 135.568638 23.329009 
L 135.527876 23.263292 
L 135.396129 23.233317 
L 135.369197 23.180671 
L 135.359006 22.612866 
L 135.388122 22.337133 
L 135.474013 22.101393 
L 135.546802 22.019241 
L 135.749155 21.899479 
L 135.85761 21.815422 
L 135.912202 21.74135 
L 135.999548 21.563291 
L 136.0505 21.492689 
L 136.675029 21.108292 
L 136.980742 20.858236 
L 137.223129 20.235255 
L 137.504821 20.130628 
L 139.424991 20.277032 
L 139.739439 20.226057 
L 140.334852 20.011066 
L 140.682782 19.972748 
L 140.794877 19.985776 
L 141.107869 20.065481 
L 141.211957 20.129478 
L 141.358263 20.197695 
L 141.505296 20.133311 
L 141.650874 20.027927 
L 141.790628 19.972748 
L 142.077417 19.905311 
L 142.668462 19.65399 
L 143.000379 19.669313 
L 143.231848 19.83941 
L 143.362868 20.076211 
L 143.515724 20.286997 
L 143.814158 20.378222 
L 143.99613 20.408121 
L 144.068919 20.483256 
L 144.122783 20.582165 
L 144.202937 20.644773 
L 144.250891 20.682233 
L 144.381911 20.724793 
L 144.8201 20.792279 
L 144.731298 20.682233 
L 145.118534 20.736296 
L 145.539254 20.864371 
L 145.962885 20.928031 
L 146.367591 20.792279 
L 146.858188 20.278948 
L 146.952813 20.230656 
L 146.98848 20.101503 
L 147.193016 19.669313 
L 147.220676 19.664716 
L 147.491451 19.654756 
L 147.538036 19.669313 
L 147.610097 19.608023 
L 147.641396 19.577379 
L 147.720736 19.466685 
L 147.738933 19.367875 
L 147.720008 19.232694 
L 147.71564 19.114377 
L 147.773871 19.062306 
L 147.842293 19.020957 
L 148.01917 18.804667 
L 148.046102 18.619418 
L 148.095598 18.500017 
L 148.131265 18.369916 
L 148.114523 18.151839 
L 147.971857 17.720402 
L 147.941286 17.514304 
L 148.01917 17.343413 
L 147.88451 17.239439 
L 147.75713 17.082731 
L 147.663232 16.889361 
L 147.625382 16.678069 
L 147.529301 16.55391 
L 147.066364 16.434731 
L 146.904773 16.371327 
L 146.667481 16.062761 
L 146.470951 15.632516 
L 146.404713 15.178401 
L 146.568488 14.803039 
L 146.851637 14.997952 
L 147.168268 15.051359 
L 147.498002 15.005581 
L 147.827735 14.903352 
L 147.717096 14.783588 
L 147.6676 14.662311 
L 147.671239 14.536472 
L 147.720736 14.399972 
L 147.819001 14.354603 
L 147.984959 14.329441 
L 148.140727 14.274925 
L 148.210604 14.143032 
L 148.281938 14.064894 
L 148.349648 14.03497 
L 148.622589 13.914352 
L 148.739779 13.841185 
L 149.372314 13.14786 
L 149.994659 12.61407 
L 150.143876 12.523862 
L 150.624283 12.352981 
L 150.768404 12.231211 
L 150.941642 11.983148 
L 151.307042 11.171628 
L 151.72121 10.501648 
L 151.851502 10.140039 
L 152.023284 10.058769 
L 152.215447 10.016617 
L 152.356657 9.95738 
L 152.547364 9.456272 
L 152.54882 9.332928 
L 152.532806 9.183038 
L 152.535718 9.030512 
L 152.595404 8.900009 
L 152.726424 8.839316 
L 153.047423 8.855248 
L 153.177715 8.795315 
L 153.675591 8.491153 
L 153.789141 8.31901 
L 153.508904 8.143103 
L 153.508904 8.043789 
L 153.768761 7.909236 
L 154.59273 7.837987 
L 154.767423 7.588274 
L 154.864233 7.484844 
L 155.092062 7.441656 
L 155.537529 7.443171 
L 155.665638 7.46325 
L 155.892739 7.527654 
L 156.018664 7.534095 
L 156.114017 7.495073 
L 156.167153 7.427639 
L 156.247949 7.365513 
L 156.412451 7.342785 
L 156.993306 7.570845 
L 157.331047 7.639046 
L 157.479536 7.489011 
L 157.432951 7.156054 
L 157.535583 7.051908 
L 157.863861 7.04282 
L 158.043649 7.08334 
L 158.204513 7.160221 
L 158.35009 7.263998 
L 158.492029 7.392409 
L 158.575736 7.508333 
L 158.693654 7.776217 
L 158.785368 7.898246 
L 158.930945 7.99603 
L 159.034305 7.990724 
L 159.144217 7.94979 
L 159.313815 7.944484 
L 159.488508 7.978595 
L 159.883023 8.143103 
L 160.426028 8.472193 
L 161.295855 9.211876 
L 162.456837 9.610376 
L 162.939427 9.875365 
L 163.274256 10.307534 
L 163.363786 10.961051 
L 163.287358 11.295181 
L 163.031869 11.930651 
L 162.941611 12.361353 
L 162.681027 12.779662 
L 162.488864 13.383236 
L 162.0696 14.037071 
L 161.974975 14.412554 
L 161.832309 14.746974 
L 161.814839 14.903352 
L 161.867247 15.09256 
L 161.941492 15.123844 
L 162.049219 15.096757 
L 162.199164 15.114306 
L 162.733434 15.47489 
L 163.03478 15.582516 
L 163.314289 15.453519 
L 163.570506 15.292485 
L 165.289051 14.801132 
L 165.794205 14.827067 
L 166.220748 15.068907 
L 166.648746 15.507711 
L 166.54393 15.609996 
L 166.587604 15.788637 
L 166.610896 16.110873 
L 166.59925 16.462233 
L 166.54393 16.728883 
L 166.324108 16.99101 
L 165.804396 17.271548 
L 165.687934 17.53648 
L 165.711226 17.675279 
L 165.839334 17.989648 
L 165.871362 18.151839 
L 165.848069 18.297602 
L 165.687934 18.758735 
L 165.620968 19.215846 
L 165.583118 19.365577 
L 165.514696 19.490049 
L 165.34437 19.686168 
L 165.293418 19.770066 
L 165.232275 20.419621 
L 165.430261 21.617013 
L 165.293418 22.21273 
L 165.134738 22.545655 
L 165.091065 22.758056 
L 165.197337 23.329009 
L 165.223541 23.956389 
L 165.185691 24.26867 
L 165.101256 24.455619 
L 165.089609 24.871554 
L 164.569897 25.622238 
L 164.620849 25.980815 
L 164.523312 26.115262 
L 164.441789 26.341431 
L 164.33115 26.954276 
L 164.302034 27.855251 
L 164.33115 28.038154 
L 164.415585 28.197157 
L 164.658699 28.51909 
L 164.708196 28.695535 
L 164.708196 29.307702 
L 164.751869 29.632263 
L 164.874154 29.902026 
L 165.673376 31.008016 
L 165.814586 31.308284 
L 165.910667 31.998885 
L 166.016939 32.304831 
L 166.172707 32.588386 
L 166.361958 32.849535 
L 166.836542 33.275867 
L 167.427587 33.543372 
L 168.08851 33.669005 
L 168.772725 33.669005 
L 169.464219 33.557331 
L 170.013047 33.361152 
L 174.099412 30.759657 
L 174.467724 30.415833 
L 174.946674 30.181131 
L 175.074783 30.067471 
L 175.278592 29.803853 
L 175.418346 29.670134 
L 175.974453 29.34479 
L 177.399658 28.851925 
L 178.032921 28.741484 
L 179.00538 28.893633 
L 179.479964 28.690515 
L 181.579194 28.42528 
L 181.704391 28.283229 
L 181.790282 27.99532 
L 182.37696 27.213388 
L 183.033515 26.05709 
L 183.452779 25.568711 
L 184.013253 25.278017 
L 184.674175 25.172153 
L 185.023562 25.068994 
L 185.333642 24.755723 
L 186.338128 24.242515 
L 187.351349 24.156747 
L 187.636681 23.99292 
L 187.798273 23.787593 
L 188.039932 23.353221 
L 188.26121 23.125338 
L 188.798391 22.770348 
L 188.922132 22.733472 
L 189.22639 22.831042 
L 189.379246 22.770348 
L 190.066373 22.149382 
L 190.289107 22.00926 
L 190.574439 21.927883 
L 190.925281 21.897176 
L 191.26011 21.934792 
L 191.497402 22.054942 
L 191.730326 22.112142 
L 192.606704 21.705276 
L 193.235599 21.689925 
L 194.922845 22.21273 
L 195.901127 22.431597 
L 196.511097 22.420076 
L 197.01334 22.471151 
L 196.923082 22.846792 
L 196.907068 22.96896 
L 196.904157 23.594219 
L 196.810987 23.810277 
L 196.573696 24.046757 
L 196.330581 24.2179 
L 196.125316 24.303288 
L 195.583767 24.350216 
L 195.288245 24.440616 
L 194.991266 24.657988 
L 194.813661 24.949679 
L 194.874804 25.261463 
L 195.100449 25.37619 
L 195.695862 25.218732 
L 195.985562 25.23798 
L 196.091833 25.32075 
L 196.294186 25.555234 
L 196.390268 25.617232 
L 196.541668 25.609145 
L 196.770225 25.458585 
L 196.90998 25.415462 
L 197.227339 25.440104 
L 197.442794 25.484768 
L 197.643692 25.445494 
L 198.179417 25.025116 
L 198.463294 24.953143 
L 199.067441 24.89503 
L 199.86084 24.57796 
L 200.157818 24.525636 
L 201.220535 24.198669 
L 202.785495 23.933317 
L 203.129059 23.809508 
L 203.388187 23.552704 
L 203.41148 23.043112 
L 203.640036 22.843334 
L 204.012715 22.83834 
L 204.421789 22.930156 
L 204.765352 22.890586 
L 204.931311 22.493041 
L 205.005555 22.686611 
L 205.168602 22.59059 
L 205.328738 22.580988 
L 205.467036 22.656651 
L 205.672301 22.947061 
L 205.812056 22.985864 
L 205.970735 22.991243 
L 206.378353 23.05387 
L 206.625835 23.006996 
L 206.892242 22.987785 
L 207.199411 23.099978 
L 207.707477 23.23178 
L 207.826851 23.25599 
L 207.949136 23.253685 
L 209.380165 23.174523 
L 209.787782 22.982791 
L 211.592945 23.917167 
L 211.991828 24.277902 
L 212.636737 25.206029 
L 213.054545 25.406991 
L 211.93942 25.640722 
L 211.670102 25.663058 
L 211.518701 25.577568 
L 210.965506 24.553721 
L 210.872336 24.438692 
L 210.648146 24.414072 
L 210.47782 24.517557 
L 210.330787 24.674149 
L 210.011972 24.9212 
L 209.936271 24.956607 
L 209.655306 24.982009 
L 209.589797 25.053598 
L 209.543212 25.149827 
L 209.359784 25.299961 
L 209.320478 25.35925 
L 209.265158 25.411612 
L 209.148696 25.447804 
L 209.064261 25.420852 
L 208.888112 25.263388 
L 208.796398 25.224507 
L 208.598412 25.2426 
L 207.982619 25.390821 
L 207.529872 25.399291 
L 207.349356 25.483998 
L 207.199411 25.720826 
L 207.072758 26.020878 
L 206.918446 26.208884 
L 206.705903 26.309834 
L 206.406013 26.346826 
L 205.870287 26.287486 
L 205.673757 26.361854 
L 205.643185 26.64974 
L 205.874654 26.965842 
L 206.323033 27.245396 
L 207.199411 27.614125 
L 207.445437 27.862968 
L 207.60994 28.153159 
L 207.799191 28.404049 
z
" clip-path="url(#p50c7d8554f)" style="stroke: #000000; stroke-linejoin: miter"/>
   </g>
   <g id="line2d_1">
    <path d="M 208.125285 28.532216 
L 208.222822 28.722564 
L 208.055408 29.420515 
L 207.829762 29.47654 
L 207.298404 28.946156 
L 207.199411 28.866214 
L 206.621467 28.807902 
L 206.036245 28.945384 
L 205.670845 29.203398 
L 203.468255 30.42434 
L 202.312368 30.37523 
L 202.110015 30.508257 
L 202.018301 30.716335 
L 201.94988 31.230114 
L 201.814492 31.381041 
L 200.983244 31.615597 
L 200.575626 31.613275 
L 199.738554 31.38646 
L 198.148846 30.608037 
L 196.393874 30.438082 
L 195.416353 30.401912 
L 193.574795 30.670694 
L 192.680948 30.553892 
L 191.749251 30.662185 
L 191.073771 30.61964 
L 190.168277 30.852495 
L 189.102649 30.695448 
L 186.770494 30.958495 
L 186.266795 31.226245 
L 186.073177 31.218505 
L 185.6379 31.066825 
L 183.292643 31.44761 
L 182.116376 31.298996 
L 181.183223 31.355498 
L 180.276274 31.540503 
L 179.593514 31.840134 
L 178.711313 32.479139 
L 178.415791 32.54732 
L 177.770882 32.51168 
L 177.191482 32.675171 
L 176.56841 32.707717 
L 174.705016 33.178184 
L 174.476459 33.316958 
L 174.422595 33.508477 
L 174.732675 34.044431 
L 174.486649 34.167013 
L 173.313293 34.364879 
L 173.025049 34.569763 
L 173.089103 34.957122 
L 172.862002 35.143472 
L 171.991447 35.405189 
L 171.764346 35.607147 
L 170.7322 36.232657 
L 170.323127 36.440975 
L 169.410355 36.492282 
L 169.120655 36.653217 
L 169.139581 37.12915 
L 169.41909 37.74379 
L 169.031853 37.981172 
L 168.600943 37.919682 
L 168.186047 37.535243 
L 167.091303 36.961929 
L 166.827807 36.986039 
L 166.690964 37.115927 
L 166.290625 37.983508 
L 165.936871 38.285558 
L 165.866994 38.515262 
L 166.094095 38.945198 
L 165.478302 39.136071 
L 164.977515 39.357365 
L 163.616363 40.593939 
L 162.651911 40.964535 
L 162.484497 41.428137 
L 161.295855 42.112157 
L 161.153917 42.572292 
L 160.566511 43.206144 
L 160.637116 43.489178 
L 160.791428 43.612734 
L 161.496024 43.98895 
L 161.855601 44.328506 
L 163.249507 44.911605 
L 163.309922 45.408045 
L 163.459867 45.637541 
L 164.300578 46.265938 
L 164.878522 47.384843 
L 164.928018 47.824215 
L 165.551091 48.694007 
L 165.469567 48.970459 
L 165.037201 49.563627 
L 165.169677 49.822195 
L 165.452098 50.024215 
L 166.45804 50.512499 
L 166.589059 50.738229 
L 166.484244 51.305486 
L 166.423101 51.594328 
L 166.588101 52.035185 
L 166.996677 52.562081 
L 166.97484 52.859094 
L 166.836542 53.082884 
L 166.149415 53.614941 
L 165.717049 54.113309 
L 165.692301 54.525873 
L 165.945606 54.91174 
L 167.215044 56.224885 
L 167.092758 56.524344 
L 166.739005 57.012796 
L 165.76509 57.618484 
L 165.398234 58.025073 
L 165.332724 59.118922 
L 165.066317 59.381047 
L 164.843583 59.899119 
L 164.500867 60.082287 
L 162.806223 60.698819 
L 162.306892 61.044533 
L 161.830125 62.039374 
L 160.899156 63.16366 
L 160.355423 63.421049 
L 159.217733 64.32947 
L 159.19808 64.564825 
L 159.354576 65.227388 
L 159.307992 65.602964 
L 159.156591 65.911781 
L 158.898918 66.02482 
L 157.995015 65.961137 
L 157.78816 66.046314 
L 157.623658 66.319404 
L 157.683345 67.003572 
L 158.109887 67.69049 
L 158.946959 68.512554 
L 159.948533 69.021518 
L 160.009676 69.401375 
L 159.594052 70.759298 
L 159.771656 71.612056 
L 159.663201 72.190596 
L 159.113645 72.910623 
L 159.111462 73.701501 
L 158.887272 73.893287 
L 157.907534 74.117539 
L 157.58144 74.467609 
L 157.119959 74.507668 
L 156.600247 74.433158 
L 156.28871 75.088665 
L 155.290047 75.262613 
L 153.386619 75.244175 
L 151.066839 75.479076 
L 149.904401 75.249386 
L 148.509039 75.136759 
L 148.025721 74.911936 
L 147.226499 74.841811 
L 144.183926 73.863656 
L 143.708615 73.833626 
L 142.584027 74.05867 
L 142.349647 74.27534 
L 142.340912 74.984067 
L 141.905635 75.445001 
L 141.991526 75.675527 
L 142.530163 76.25743 
L 142.841699 77.093628 
L 143.300269 77.779343 
L 143.545568 78.38224 
L 143.758839 78.504378 
L 144.310578 78.574693 
L 145.067582 78.874878 
L 145.667362 78.77722 
L 145.807845 78.94481 
L 146.072068 79.882005 
L 146.596148 80.258511 
L 146.587413 80.635927 
L 146.275877 81.913795 
L 146.45057 82.493938 
L 146.756283 82.80103 
L 147.249064 83.002974 
L 147.425941 83.368241 
L 148.168387 84.144654 
L 148.391849 84.630084 
L 148.2914 85.143137 
L 145.628056 87.162472 
L 144.8201 87.095761 
L 144.240701 88.070469 
L 144.069647 88.140464 
L 143.521547 88.134799 
L 142.466837 88.736977 
L 141.872152 88.777456 
L 140.930264 88.337115 
L 140.382892 88.422906 
L 139.464297 88.928854 
L 139.082884 88.815506 
L 137.770501 88.960027 
L 137.301013 89.247088 
L 136.793087 89.957834 
L 136.657559 90.225318 
L 136.921055 91.926581 
L 136.699049 92.454891 
L 136.334377 92.71506 
L 135.989358 93.168542 
L 135.359006 93.717624 
L 135.456543 94.148671 
L 135.935494 94.56481 
L 136.059235 95.554845 
L 135.888909 95.863583 
L 134.897525 97.114671 
L 134.029882 97.481168 
L 133.601884 97.989531 
L 133.338388 98.586923 
L 133.269967 99.239609 
L 133.418456 99.918698 
L 133.834808 101.134099 
L 133.713978 102.822972 
L 133.594605 103.833794 
L 133.870474 105.333312 
L 134.351609 106.745 
L 134.267902 106.891735 
L 133.21028 107.776552 
L 131.467715 110.285426 
L 131.25226 110.416074 
L 131.067376 110.70124 
L 130.115298 111.445226 
L 129.738252 111.598179 
L 129.227274 111.56364 
L 128.748324 111.712493 
L 127.854477 112.155027 
L 127.295458 112.217551 
L 126.921324 111.962533 
L 125.803287 110.413609 
L 125.6679 109.576506 
L 125.491751 109.479599 
L 124.698352 109.34 
L 123.402711 108.712783 
L 122.75489 108.828519 
L 121.871234 109.34739 
L 121.920002 109.504236 
L 122.47247 109.65617 
L 123.587595 109.673418 
L 123.717159 109.816334 
L 123.229473 110.190938 
L 122.987815 110.265706 
L 122.465919 110.182722 
L 120.988305 109.673418 
L 119.39059 109.444288 
L 119.245012 109.234077 
L 118.575355 108.788298 
L 118.214322 108.665998 
L 117.924623 108.685697 
L 117.744106 108.89501 
L 117.289904 109.847548 
L 116.755634 110.403748 
L 116.628981 110.851652 
L 115.653611 111.432892 
L 115.342074 111.729764 
L 113.757461 111.884391 
L 112.890546 112.828947 
L 111.695353 113.519635 
L 111.260804 113.562453 
L 109.901836 113.375544 
L 109.720592 113.657151 
L 110.029945 114.136498 
L 110.213373 114.412479 
L 110.296352 115.036298 
L 110.781126 115.444349 
L 111.059179 115.521026 
L 112.230351 115.37015 
L 112.738418 115.53092 
L 112.804655 116.199738 
L 112.659078 116.498368 
L 112.443623 116.594899 
L 111.645857 116.639454 
L 110.108557 117.597695 
L 109.35592 117.734753 
L 108.836208 117.953576 
L 107.999136 118.063412 
L 106.763909 118.516053 
L 104.608632 118.344232 
L 103.813777 117.983306 
L 102.209511 118.010558 
L 102.082859 117.798332 
L 102.253185 117.473032 
L 102.124348 116.896082 
L 101.9169 116.788804 
L 101.088563 116.806958 
L 100.5623 116.953849 
L 99.612405 117.409466 
L 98.500192 118.403707 
L 97.961554 118.475575 
L 97.619447 118.706896 
L 97.141952 120.509912 
L 96.872633 120.877221 
L 95.549332 122.209856 
L 95.231973 122.348151 
L 93.089069 122.855062 
L 92.960961 123.077094 
L 91.576517 128.239891 
L 91.533572 128.940792 
L 91.773047 129.579605 
L 92.221426 130.22117 
L 92.334977 130.880477 
L 92.070025 133.010091 
L 92.040182 134.29622 
L 90.925057 136.750365 
L 90.890846 137.006932 
L 90.974553 137.224251 
L 91.470245 137.568678 
L 92.546065 138.719521 
L 92.343712 138.80821 
L 91.678421 139.802518 
L 90.557473 140.609789 
L 74.228752 145.401192 
L 73.527796 145.378512 
L 71.185451 144.950574 
L 66.35955 144.910263 
L 62.062097 146.309517 
L 61.74037 146.729815 
L 61.227937 147.741481 
L 60.843612 147.899214 
L 59.236434 147.199832 
L 53.554537 146.095206 
L 38.185901 147.553903 
L 36.734491 147.276359 
L 15.182443 140.239601 
L 25.490798 128.03874 
L 28.620719 124.190216 
L 28.645467 122.459127 
L 29.015234 121.601337 
L 28.945357 120.968234 
L 27.972898 118.33432 
L 27.836055 118.00808 
L 27.830232 116.708764 
L 27.049936 115.873952 
L 26.687447 115.734586 
L 15.332388 114.126613 
L 14.863627 113.93634 
L 14.697669 112.443813 
L 14.453098 111.302155 
L 14.632159 110.126855 
L 14.406513 107.887294 
L 14.486581 106.562216 
L 14.332269 106.073809 
L 14.370119 105.635528 
L 14.20416 105.472536 
L 14.313344 105.229311 
L 14.76609 104.511335 
L 14.955341 103.251423 
L 14.984457 101.963176 
L 12.794968 94.60261 
L 11.218362 89.222388 
L 11.283872 87.765446 
L 13.952311 84.402883 
L 14.966988 83.623099 
L 15.019395 83.042882 
L 15.010661 82.558817 
L 15.259599 82.404886 
L 16.135976 82.293278 
L 16.259717 82.097077 
L 15.897229 81.675765 
L 15.678862 81.557772 
L 14.661274 81.410396 
L 13.626217 81.461936 
L 12.522738 81.383419 
L 11.385776 80.948641 
L 10.497753 80.160754 
L 10.14691 79.024794 
L 10.260461 78.515628 
L 10.695738 77.613503 
L 10.72631 77.002921 
L 10.145455 73.081487 
L 10.22989 72.388564 
L 10.625861 71.659625 
L 11.563381 70.667821 
L 12.452861 70.12548 
L 12.355324 69.79651 
L 15.831719 69.60691 
L 15.671584 69.317574 
L 13.751414 67.221881 
L 13.626217 67.114316 
L 13.415129 66.640735 
L 13.144355 66.559897 
L 13.351075 66.235799 
L 13.701917 66.072586 
L 14.824321 65.889493 
L 15.099463 65.719956 
L 16.090847 64.738188 
L 16.635308 64.68729 
L 16.782341 64.511548 
L 16.792532 63.739679 
L 16.810001 63.376558 
L 17.783916 62.354488 
L 17.863983 62.100486 
L 18.296349 61.970329 
L 18.459396 60.78841 
L 18.427369 60.153479 
L 18.670484 59.718483 
L 18.717069 59.419063 
L 18.922333 58.844184 
L 19.108673 57.991845 
L 19.449324 57.564703 
L 19.278999 57.299789 
L 19.305203 56.92505 
L 18.731627 56.171164 
L 18.963095 55.889165 
L 18.805871 55.527477 
L 18.900497 54.876225 
L 19.10285 54.727866 
L 19.739024 54.671052 
L 20.009799 54.533763 
L 20.121893 54.263173 
L 20.121893 53.164846 
L 20.203417 52.9962 
L 20.576096 52.488036 
L 20.854149 51.717125 
L 21.372406 51.074146 
L 21.459752 50.757893 
L 21.276324 49.827697 
L 21.172964 49.686224 
L 22.103206 49.497618 
L 22.32594 49.544767 
L 22.446769 49.687796 
L 22.32594 49.859138 
L 22.781598 50.239634 
L 22.730646 50.464527 
L 23.026168 50.731149 
L 23.398847 50.837342 
L 24.962351 52.216313 
L 25.892593 52.547115 
L 27.792382 52.80394 
L 28.629453 52.747213 
L 30.323978 52.2234 
L 31.146492 52.237576 
L 31.936251 52.647948 
L 33.768346 54.140125 
L 34.751723 54.634756 
L 34.998477 55.144579 
L 35.077817 56.263598 
L 35.491258 56.974851 
L 35.713992 56.869718 
L 37.084605 55.212466 
L 37.543175 54.835188 
L 37.923861 54.816248 
L 39.002591 55.649081 
L 39.434957 55.596963 
L 39.97505 55.770697 
L 40.207975 55.720154 
L 41.441018 55.210887 
L 42.171818 54.502204 
L 43.116617 54.092014 
L 44.393333 53.194006 
L 45.623465 52.733032 
L 46.48674 52.623527 
L 46.675263 52.448652 
L 46.964235 51.109552 
L 46.914739 50.949838 
L 46.680359 50.781492 
L 46.63523 50.595078 
L 46.625039 49.591917 
L 46.998446 49.2674 
L 48.07936 48.957106 
L 48.553943 48.564441 
L 48.494257 48.379147 
L 48.042238 48.19074 
L 47.84498 47.956842 
L 47.034112 47.188745 
L 46.831759 46.726863 
L 46.734222 46.533222 
L 46.793909 46.27064 
L 47.011548 46.07237 
L 47.309982 46.015167 
L 50.375848 46.075504 
L 51.605252 45.85141 
L 52.953301 45.220094 
L 53.481748 44.645458 
L 54.02912 44.463103 
L 56.333615 44.241652 
L 58.079091 43.449299 
L 58.531838 43.387529 
L 58.926354 43.461028 
L 60.266396 43.916983 
L 60.272947 43.726916 
L 60.141199 42.74186 
L 60.43745 42.305877 
L 61.866295 41.474194 
L 62.390375 41.389106 
L 63.51933 41.489807 
L 63.908022 40.700035 
L 64.38115 40.482393 
L 65.892974 40.119743 
L 66.647794 39.494526 
L 67.753457 38.014643 
L 68.164714 36.938598 
L 68.191645 36.027484 
L 67.927422 35.146578 
L 67.969639 34.533284 
L 68.38308 33.459625 
L 70.600228 29.776026 
L 70.541997 29.191037 
L 70.274134 28.054748 
L 70.338188 27.472559 
L 70.600228 27.093079 
L 71.010757 26.832452 
L 73.562734 25.666909 
L 74.60507 25.37542 
L 80.77902 25.240675 
L 81.278352 25.019727 
L 82.582728 23.407412 
L 82.53032 22.108303 
L 82.994712 21.254823 
L 83.30916 21.015473 
L 84.318014 20.845198 
L 84.441755 20.24407 
L 85.045902 20.438021 
L 85.492826 21.122867 
L 85.762144 21.289349 
L 89.180308 22.470767 
L 89.815027 23.115348 
L 90.261951 23.257528 
L 90.8792 23.267904 
L 91.949196 23.916398 
L 92.318963 23.94716 
L 93.626251 23.642271 
L 93.768917 23.701089 
L 94.155426 24.03945 
L 94.421105 23.937932 
L 95.120606 23.425861 
L 95.754597 23.329009 
L 96.092337 23.36206 
L 97.197272 23.721465 
L 97.72863 23.688403 
L 98.154445 23.438929 
L 99.996731 23.370131 
L 101.290916 23.113042 
L 102.226981 23.227937 
L 103.259126 23.776827 
L 103.624526 24.649524 
L 103.908403 24.799976 
L 104.532931 25.002792 
L 104.816808 25.222967 
L 105.222242 25.983897 
L 105.537417 26.092147 
L 105.851865 26.039754 
L 106.389047 25.745089 
L 107.680321 25.454735 
L 108.974506 24.649524 
L 109.298417 24.784584 
L 109.564096 25.400831 
L 109.794837 25.574102 
L 110.056149 25.38389 
L 110.230114 25.167534 
L 110.967465 25.107485 
L 111.608735 25.390051 
L 112.403589 25.432403 
L 112.817757 25.758183 
L 112.881812 26.036672 
L 112.776268 27.213388 
L 112.949505 27.413932 
L 113.619163 27.764196 
L 114.256065 27.89345 
L 114.599628 28.342286 
L 114.976674 28.762722 
L 115.435244 29.006406 
L 116.433907 29.973922 
L 116.746899 29.833227 
L 118.598647 28.582406 
L 118.966959 28.538393 
L 119.885554 28.705574 
L 120.034043 28.491294 
L 119.927772 27.561662 
L 120.034043 27.314427 
L 120.301178 27.150147 
L 121.768601 27.162872 
L 121.861043 26.940397 
L 121.659418 26.591926 
L 123.351759 26.397691 
L 123.476956 26.332954 
L 123.740451 25.980815 
L 124.803168 25.777441 
L 125.108881 25.209493 
L 125.427697 25.167534 
L 125.234806 24.862318 
L 125.394214 24.704161 
L 126.672386 24.749567 
L 127.528383 25.112104 
L 127.588069 24.967383 
L 127.551675 24.649524 
L 127.435941 24.032528 
L 127.746021 23.94716 
L 128.040816 24.010224 
L 128.716296 24.728018 
L 128.872793 24.692618 
L 128.947765 24.560262 
L 128.832759 24.28021 
L 128.513216 24.03945 
L 128.479005 23.813353 
L 129.850347 24.077907 
L 130.354773 24.560262 
L 130.562222 25.102096 
L 131.416763 25.676537 
L 131.799632 26.329871 
L 133.518904 27.3044 
L 134.081562 27.169428 
L 134.620927 27.049123 
L 135.801562 26.206572 
L 136.329282 25.328065 
L 135.831406 25.190246 
L 135.944956 24.862318 
L 135.829222 24.727249 
L 135.616679 23.99292 
L 135.479836 23.623434 
L 135.474013 22.101393 
L 136.0505 21.492689 
L 136.980742 20.858236 
L 137.223129 20.235255 
L 137.504821 20.130628 
L 139.739439 20.226057 
L 140.682782 19.972748 
L 141.211957 20.129478 
L 141.358263 20.197695 
L 142.668462 19.65399 
L 143.000379 19.669313 
L 143.231848 19.83941 
L 143.515724 20.286997 
L 144.122783 20.582165 
L 144.381911 20.724793 
L 145.962885 20.928031 
L 146.367591 20.792279 
L 146.98848 20.101503 
L 147.220676 19.664716 
L 147.641396 19.577379 
L 147.738933 19.367875 
L 147.773871 19.062306 
L 148.01917 18.804667 
L 148.114523 18.151839 
L 147.941286 17.514304 
L 148.01917 17.343413 
L 147.75713 17.082731 
L 147.529301 16.55391 
L 146.904773 16.371327 
L 146.470951 15.632516 
L 146.404713 15.178401 
L 146.568488 14.803039 
L 146.851637 14.997952 
L 147.498002 15.005581 
L 147.827735 14.903352 
L 147.6676 14.662311 
L 147.720736 14.399972 
L 148.739779 13.841185 
L 149.994659 12.61407 
L 150.941642 11.983148 
L 151.851502 10.140039 
L 152.356657 9.95738 
L 152.532806 9.183038 
L 152.595404 8.900009 
L 152.726424 8.839316 
L 153.177715 8.795315 
L 153.789141 8.31901 
L 153.508904 8.043789 
L 153.768761 7.909236 
L 154.59273 7.837987 
L 154.864233 7.484844 
L 155.537529 7.443171 
L 156.114017 7.495073 
L 156.247949 7.365513 
L 156.412451 7.342785 
L 157.331047 7.639046 
L 157.479536 7.489011 
L 157.432951 7.156054 
L 157.535583 7.051908 
L 158.043649 7.08334 
L 158.492029 7.392409 
L 159.034305 7.990724 
L 159.313815 7.944484 
L 159.883023 8.143103 
L 160.426028 8.472193 
L 161.295855 9.211876 
L 162.939427 9.875365 
L 163.274256 10.307534 
L 163.363786 10.961051 
L 162.941611 12.361353 
L 162.681027 12.779662 
L 162.488864 13.383236 
L 162.0696 14.037071 
L 161.867247 15.09256 
L 163.03478 15.582516 
L 163.570506 15.292485 
L 165.289051 14.801132 
L 165.794205 14.827067 
L 166.220748 15.068907 
L 166.648746 15.507711 
L 166.54393 15.609996 
L 166.610896 16.110873 
L 166.54393 16.728883 
L 166.324108 16.99101 
L 165.804396 17.271548 
L 165.711226 17.675279 
L 165.848069 18.297602 
L 165.293418 19.770066 
L 165.232275 20.419621 
L 165.430261 21.617013 
L 165.091065 22.758056 
L 165.223541 23.956389 
L 165.089609 24.871554 
L 164.569897 25.622238 
L 164.620849 25.980815 
L 164.441789 26.341431 
L 164.33115 26.954276 
L 164.33115 28.038154 
L 164.708196 28.695535 
L 164.751869 29.632263 
L 164.874154 29.902026 
L 165.814586 31.308284 
L 166.016939 32.304831 
L 166.361958 32.849535 
L 166.836542 33.275867 
L 167.427587 33.543372 
L 168.08851 33.669005 
L 168.772725 33.669005 
L 170.013047 33.361152 
L 175.074783 30.067471 
L 175.418346 29.670134 
L 175.974453 29.34479 
L 178.032921 28.741484 
L 179.00538 28.893633 
L 179.479964 28.690515 
L 181.579194 28.42528 
L 181.704391 28.283229 
L 181.790282 27.99532 
L 182.37696 27.213388 
L 183.033515 26.05709 
L 183.452779 25.568711 
L 184.013253 25.278017 
L 185.023562 25.068994 
L 185.333642 24.755723 
L 186.338128 24.242515 
L 187.351349 24.156747 
L 187.798273 23.787593 
L 188.26121 23.125338 
L 188.922132 22.733472 
L 189.379246 22.770348 
L 190.289107 22.00926 
L 190.925281 21.897176 
L 191.497402 22.054942 
L 191.730326 22.112142 
L 192.606704 21.705276 
L 193.235599 21.689925 
L 195.901127 22.431597 
L 197.01334 22.471151 
L 196.907068 22.96896 
L 196.810987 23.810277 
L 196.330581 24.2179 
L 196.125316 24.303288 
L 195.288245 24.440616 
L 194.991266 24.657988 
L 194.813661 24.949679 
L 194.874804 25.261463 
L 195.100449 25.37619 
L 195.985562 25.23798 
L 196.541668 25.609145 
L 196.90998 25.415462 
L 197.643692 25.445494 
L 198.179417 25.025116 
L 203.129059 23.809508 
L 203.388187 23.552704 
L 203.41148 23.043112 
L 203.640036 22.843334 
L 204.765352 22.890586 
L 204.931311 22.493041 
L 205.005555 22.686611 
L 205.328738 22.580988 
L 205.467036 22.656651 
L 205.812056 22.985864 
L 207.199411 23.099978 
L 207.949136 23.253685 
L 209.380165 23.174523 
L 209.787782 22.982791 
L 211.592945 23.917167 
L 211.991828 24.277902 
L 212.636737 25.206029 
L 213.054545 25.406991 
L 211.670102 25.663058 
L 211.518701 25.577568 
L 210.872336 24.438692 
L 210.648146 24.414072 
L 209.359784 25.299961 
L 209.148696 25.447804 
L 208.598412 25.2426 
L 207.349356 25.483998 
L 206.705903 26.309834 
L 206.406013 26.346826 
L 205.673757 26.361854 
L 205.643185 26.64974 
L 205.874654 26.965842 
L 206.323033 27.245396 
L 207.199411 27.614125 
L 207.60994 28.153159 
L 207.799191 28.404049 
L 208.125285 28.532216 
L 208.125285 28.532216 
" clip-path="url(#p50c7d8554f)" style="fill: none; stroke: #000000; stroke-width: 0.5; stroke-linecap: square"/>
   </g>
  </g>
 </g>
 <defs>
  <clipPath id="p50c7d8554f">
   <rect x="0" y="0" width="223.2" height="154.942034"/>
  </clipPath>
 </defs>
</svg>
