<?xml version="1.0" encoding="utf-8" standalone="no"?>
<!DOCTYPE svg PUBLIC "-//W3C//DTD SVG 1.1//EN"
  "http://www.w3.org/Graphics/SVG/1.1/DTD/svg11.dtd">
<svg xmlns:xlink="http://www.w3.org/1999/xlink" width="223.2pt" height="119.505653pt" viewBox="0 0 223.2 119.505653" xmlns="http://www.w3.org/2000/svg" version="1.1">
 <metadata>
  <rdf:RDF xmlns:dc="http://purl.org/dc/elements/1.1/" xmlns:cc="http://creativecommons.org/ns#" xmlns:rdf="http://www.w3.org/1999/02/22-rdf-syntax-ns#">
   <cc:Work>
    <dc:type rdf:resource="http://purl.org/dc/dcmitype/StillImage"/>
    <dc:date>2026-04-26T19:22:14.144946</dc:date>
    <dc:format>image/svg+xml</dc:format>
    <dc:creator>
     <cc:Agent>
      <dc:title>Matplotlib v3.10.9, https://matplotlib.org/</dc:title>
     </cc:Agent>
    </dc:creator>
   </cc:Work>
  </rdf:RDF>
 </metadata>
 <defs>
  <style type="text/css">*{stroke-linejoin: round; stroke-linecap: butt}</style>
 </defs>
 <g id="figure_1">
  <g id="patch_1">
   <path d="M 0 119.505653 
L 223.2 119.505653 
L 223.2 0 
L 0 0 
z
" style="fill: #ffffff"/>
  </g>
  <g id="axes_1">
   <g id="patch_2">
    <path d="M 202.052696 59.997449 
L 197.775218 67.809519 
L 197.164045 90.386538 
L 213.054545 108.961305 
L 213.054545 114.073578 
L 145.947739 114.073578 
L 145.947739 108.961305 
L 148.759135 93.426313 
L 127.123607 55.9228 
L 125.412323 41.734863 
L 83.241378 31.621474 
L 65.884062 30.019488 
L 49.749092 31.921849 
L 10.572895 44.572218 
L 10.145455 31.541758 
L 15.150061 25.772491 
L 24.047139 28.201597 
L 39.06096 30.023483 
L 44.621634 17.878485 
L 54.630847 16.36051 
L 57.133151 13.32466 
L 60.747589 9.074695 
L 64.362028 5.432075 
L 66.864331 6.342712 
L 70.756803 6.64626 
L 74.649275 6.64626 
L 80.487983 6.64626 
L 84.936522 5.735619 
L 85.492589 16.36051 
L 89.385062 23.647093 
L 103.572014 33.59487 
L 125.473694 38.784759 
L 128.161996 33.161088 
L 137.553893 36.976051 
L 142.288651 40.876007 
L 146.94579 33.161088 
L 156.298877 24.811293 
L 180.942905 28.032414 
L 182.650522 50.414869 
L 167.980535 50.414869 
L 164.487681 45.920842 
L 155.794355 53.001188 
L 156.958639 64.534797 
L 162.159111 67.715357 
L 167.437201 61.948048 
L 183.349093 59.997449 
z
" clip-path="url(#p1e41aead9a)" style="stroke: #000000; stroke-linejoin: miter"/>
   </g>
   <g id="line2d_1">
    <path d="M 202.052696 59.997449 
L 197.775218 67.809519 
L 197.164045 90.386538 
L 213.054545 108.961305 
L 213.054545 114.073578 
L 145.947739 114.073578 
L 145.947739 108.961305 
L 148.759135 93.426313 
L 127.123607 55.9228 
L 125.412323 41.734863 
L 83.241378 31.621474 
L 65.884062 30.019488 
L 49.749092 31.921849 
L 10.572895 44.572218 
L 10.145455 31.541758 
L 15.150061 25.772491 
L 24.047139 28.201597 
L 39.06096 30.023483 
L 44.621634 17.878485 
L 54.630847 16.36051 
L 57.133151 13.32466 
L 60.747589 9.074695 
L 64.362028 5.432075 
L 66.864331 6.342712 
L 70.756803 6.64626 
L 74.649275 6.64626 
L 80.487983 6.64626 
L 84.936522 5.735619 
L 85.492589 16.36051 
L 89.385062 23.647093 
L 103.572014 33.59487 
L 125.473694 38.784759 
L 128.161996 33.161088 
L 137.553893 36.976051 
L 142.288651 40.876007 
L 146.94579 33.161088 
L 156.298877 24.811293 
L 180.942905 28.032414 
L 182.650522 50.414869 
L 167.980535 50.414869 
L 164.487681 45.920842 
L 155.794355 53.001188 
L 156.958639 64.534797 
L 162.159111 67.715357 
L 167.437201 61.948048 
L 183.349093 59.997449 
L 202.052696 59.997449 
" clip-path="url(#p1e41aead9a)" style="fill: none; stroke: #000000; stroke-width: 0.5; stroke-linecap: square"/>
   </g>
  </g>
 </g>
 <defs>
  <clipPath id="p1e41aead9a">
   <rect x="0" y="0" width="223.2" height="119.505653"/>
  </clipPath>
 </defs>
</svg>
