<?xml version="1.0" encoding="utf-8" standalone="no"?>
<!DOCTYPE svg PUBLIC "-//W3C//DTD SVG 1.1//EN"
  "http://www.w3.org/Graphics/SVG/1.1/DTD/svg11.dtd">
<svg xmlns:xlink="http://www.w3.org/1999/xlink" width="223.2pt" height="84.017575pt" viewBox="0 0 223.2 84.017575" xmlns="http://www.w3.org/2000/svg" version="1.1">
 <metadata>
  <rdf:RDF xmlns:dc="http://purl.org/dc/elements/1.1/" xmlns:cc="http://creativecommons.org/ns#" xmlns:rdf="http://www.w3.org/1999/02/22-rdf-syntax-ns#">
   <cc:Work>
    <dc:type rdf:resource="http://purl.org/dc/dcmitype/StillImage"/>
    <dc:date>2026-04-26T19:22:22.125864</dc:date>
    <dc:format>image/svg+xml</dc:format>
    <dc:creator>
     <cc:Agent>
      <dc:title>Matplotlib v3.10.9, https://matplotlib.org/</dc:title>
     </cc:Agent>
    </dc:creator>
   </cc:Work>
  </rdf:RDF>
 </metadata>
 <defs>
  <style type="text/css">*{stroke-linejoin: round; stroke-linecap: butt}</style>
 </defs>
 <g id="figure_1">
  <g id="patch_1">
   <path d="M 0 84.017575 
L 223.2 84.017575 
L 223.2 0 
L 0 0 
z
" style="fill: #ffffff"/>
  </g>
  <g id="axes_1">
   <g id="patch_2">
    <path d="M 190.901869 42.322048 
L 195.170056 45.475037 
L 197.65765 46.682754 
L 194.175018 47.308415 
L 191.189906 47.404007 
L 188.38809 47.716863 
L 185.402978 48.942347 
L 183.70094 50.298451 
L 181.003864 53.246266 
L 179.904086 53.976888 
L 175.84538 54.611894 
L 173.488713 54.055173 
L 171.289156 53.141897 
L 167.806525 52.646168 
L 154.452075 52.646168 
L 151.754999 51.393955 
L 152.331074 48.472988 
L 154.47826 45.266532 
L 156.651631 43.121019 
L 163.276486 41.019572 
L 179.197086 40.585467 
L 184.303199 37.946684 
L 171.262971 38.03347 
L 159.453447 39.17047 
L 150.079147 42.599941 
L 144.55407 49.594288 
L 142.354514 49.594288 
L 143.323366 44.441257 
L 139.238475 41.93128 
L 134.001436 39.821507 
L 131.356731 35.829429 
L 135.441622 32.25584 
L 142.118847 27.722082 
L 143.454292 24.126636 
L 131.356731 23.399108 
L 131.356731 24.85424 
L 134.629881 27.566097 
L 131.749509 31.284693 
L 124.784247 33.28783 
L 115.98602 30.79917 
L 117.216725 34.562852 
L 121.799134 38.745158 
L 127.900285 42.217841 
L 133.556288 43.911395 
L 130.414064 45.379472 
L 128.52873 47.091165 
L 127.978841 48.9945 
L 128.973878 51.063547 
L 112.189167 48.698972 
L 107.004498 46.682754 
L 108.889832 45.579292 
L 109.492092 44.849539 
L 109.204054 42.322048 
L 100.484384 42.721522 
L 96.242382 43.702936 
L 97.106493 45.952886 
L 101.112829 48.36869 
L 105.590497 50.533187 
L 110.487129 52.054818 
L 119.651948 53.350636 
L 122.63706 54.855474 
L 124.993728 56.369334 
L 126.957618 57.030662 
L 130.126027 56.543361 
L 132.587435 55.429658 
L 134.970288 54.002983 
L 137.955401 52.646168 
L 134.341843 59.485076 
L 133.425362 62.77637 
L 133.556288 65.807802 
L 134.734621 66.539721 
L 136.881807 67.027708 
L 139.028994 67.82076 
L 139.971661 69.450716 
L 138.138697 71.665266 
L 133.896695 71.682706 
L 125.779284 70.183011 
L 112.791426 70.880504 
L 107.31872 72.432672 
L 108.104276 75.380981 
L 110.277648 78.889138 
L 107.161609 80.198595 
L 103.705163 79.622404 
L 104.804941 77.501377 
L 99.279865 70.793314 
L 94.880752 68.753363 
L 87.234674 68.718497 
L 82.966487 69.747112 
L 81.997635 70.906661 
L 81.36919 72.083841 
L 78.253152 73.104221 
L 73.880224 73.549048 
L 69.585852 73.374603 
L 66.862591 72.345463 
L 67.255369 70.183011 
L 61.625552 69.014863 
L 55.812438 69.781983 
L 50.837251 71.87455 
L 47.485545 74.569638 
L 42.510358 68.683632 
L 30.517538 59.302271 
L 25.48998 53.976888 
L 23.342794 47.742935 
L 21.536015 45.03197 
L 17.843902 43.911395 
L 17.163087 42.322048 
L 10.145455 33.574039 
L 16.482272 33.495981 
L 21.693126 33.86026 
L 24.442572 35.525776 
L 23.499905 39.404836 
L 26.013684 37.18301 
L 28.003759 34.77104 
L 30.203315 32.897564 
L 33.293169 32.117096 
L 37.535171 31.822275 
L 49.894583 29.204117 
L 47.433175 28.285392 
L 45.809693 27.228141 
L 43.086432 24.85424 
L 49.737472 25.564593 
L 52.09414 26.309675 
L 54.05803 25.616573 
L 54.974512 25.512614 
L 58.273846 26.309675 
L 53.193918 32.455288 
L 48.166361 37.139622 
L 49.109028 38.962151 
L 51.779918 40.472604 
L 54.293696 42.322048 
L 56.807475 47.560433 
L 58.928476 49.072731 
L 63.956034 49.594288 
L 66.391258 48.446913 
L 66.941147 45.779119 
L 66.234146 42.790999 
L 65.055812 40.724378 
L 70.790371 41.957331 
L 76.053595 43.911395 
L 78.253152 37.946684 
L 85.035118 35.031285 
L 86.606229 32.117096 
L 87.182304 27.618092 
L 89.250935 24.85424 
L 90.952972 27.973399 
L 91.424306 29.542168 
L 91.607602 31.466773 
L 93.335825 32.273183 
L 97.106493 32.030383 
L 100.903347 31.128628 
L 102.605385 30.010267 
L 101.688903 26.318339 
L 99.279865 23.225898 
L 95.718678 20.784094 
L 91.607602 19.04418 
L 89.408046 17.84121 
L 88.177341 16.759578 
L 86.763341 16.647098 
L 83.830599 18.256601 
L 80.321782 22.08282 
L 77.938929 23.451071 
L 74.953817 22.602377 
L 70.109555 19.018215 
L 65.553331 16.301017 
L 60.028255 14.735215 
L 52.09414 14.55357 
L 57.121698 13.385965 
L 59.949699 11.621956 
L 62.0707 9.555866 
L 65.055812 7.429902 
L 71.654482 4.907243 
L 78.567374 3.818981 
L 85.873044 3.818981 
L 93.623862 4.54447 
L 95.92816 7.369417 
L 97.499271 11.336644 
L 100.405828 14.259488 
L 114.074501 13.204356 
L 122.322838 14.259488 
L 130.073656 16.422144 
L 135.572548 19.04418 
L 132.901658 14.761165 
L 131.356731 13.2303 
L 136.096252 13.593525 
L 146.910738 15.643511 
L 150.183887 15.349383 
L 153.666519 14.536271 
L 157.411002 15.643511 
L 164.323894 19.04418 
L 181.03005 21.37282 
L 185.533904 23.641609 
L 182.103642 29.204117 
L 186.895533 28.337392 
L 188.702312 27.765412 
L 193.756055 29.186781 
L 200.32854 30.192313 
L 213.054545 30.79917 
L 201.873466 37.946684 
L 199.67391 40.724378 
z
" clip-path="url(#p67a2d9f0db)" style="stroke: #000000; stroke-linejoin: miter"/>
   </g>
   <g id="line2d_1">
    <path d="M 190.901869 42.322048 
L 195.170056 45.475037 
L 197.65765 46.682754 
L 194.175018 47.308415 
L 191.189906 47.404007 
L 188.38809 47.716863 
L 185.402978 48.942347 
L 183.70094 50.298451 
L 181.003864 53.246266 
L 179.904086 53.976888 
L 175.84538 54.611894 
L 173.488713 54.055173 
L 171.289156 53.141897 
L 167.806525 52.646168 
L 154.452075 52.646168 
L 151.754999 51.393955 
L 152.331074 48.472988 
L 154.47826 45.266532 
L 156.651631 43.121019 
L 163.276486 41.019572 
L 179.197086 40.585467 
L 184.303199 37.946684 
L 171.262971 38.03347 
L 159.453447 39.17047 
L 150.079147 42.599941 
L 144.55407 49.594288 
L 142.354514 49.594288 
L 143.323366 44.441257 
L 139.238475 41.93128 
L 134.001436 39.821507 
L 131.356731 35.829429 
L 135.441622 32.25584 
L 142.118847 27.722082 
L 143.454292 24.126636 
L 131.356731 23.399108 
L 131.356731 24.85424 
L 134.629881 27.566097 
L 131.749509 31.284693 
L 124.784247 33.28783 
L 115.98602 30.79917 
L 117.216725 34.562852 
L 121.799134 38.745158 
L 127.900285 42.217841 
L 133.556288 43.911395 
L 130.414064 45.379472 
L 128.52873 47.091165 
L 127.978841 48.9945 
L 128.973878 51.063547 
L 112.189167 48.698972 
L 107.004498 46.682754 
L 108.889832 45.579292 
L 109.492092 44.849539 
L 109.204054 42.322048 
L 100.484384 42.721522 
L 96.242382 43.702936 
L 97.106493 45.952886 
L 101.112829 48.36869 
L 105.590497 50.533187 
L 110.487129 52.054818 
L 119.651948 53.350636 
L 122.63706 54.855474 
L 124.993728 56.369334 
L 126.957618 57.030662 
L 130.126027 56.543361 
L 132.587435 55.429658 
L 134.970288 54.002983 
L 137.955401 52.646168 
L 134.341843 59.485076 
L 133.425362 62.77637 
L 133.556288 65.807802 
L 134.734621 66.539721 
L 136.881807 67.027708 
L 139.028994 67.82076 
L 139.971661 69.450716 
L 138.138697 71.665266 
L 133.896695 71.682706 
L 125.779284 70.183011 
L 112.791426 70.880504 
L 107.31872 72.432672 
L 108.104276 75.380981 
L 110.277648 78.889138 
L 107.161609 80.198595 
L 103.705163 79.622404 
L 104.804941 77.501377 
L 99.279865 70.793314 
L 94.880752 68.753363 
L 87.234674 68.718497 
L 82.966487 69.747112 
L 81.997635 70.906661 
L 81.36919 72.083841 
L 78.253152 73.104221 
L 73.880224 73.549048 
L 69.585852 73.374603 
L 66.862591 72.345463 
L 67.255369 70.183011 
L 61.625552 69.014863 
L 55.812438 69.781983 
L 50.837251 71.87455 
L 47.485545 74.569638 
L 42.510358 68.683632 
L 30.517538 59.302271 
L 25.48998 53.976888 
L 23.342794 47.742935 
L 21.536015 45.03197 
L 17.843902 43.911395 
L 17.163087 42.322048 
L 10.145455 33.574039 
L 16.482272 33.495981 
L 21.693126 33.86026 
L 24.442572 35.525776 
L 23.499905 39.404836 
L 26.013684 37.18301 
L 28.003759 34.77104 
L 30.203315 32.897564 
L 33.293169 32.117096 
L 37.535171 31.822275 
L 49.894583 29.204117 
L 47.433175 28.285392 
L 45.809693 27.228141 
L 43.086432 24.85424 
L 49.737472 25.564593 
L 52.09414 26.309675 
L 54.05803 25.616573 
L 54.974512 25.512614 
L 58.273846 26.309675 
L 53.193918 32.455288 
L 48.166361 37.139622 
L 49.109028 38.962151 
L 51.779918 40.472604 
L 54.293696 42.322048 
L 56.807475 47.560433 
L 58.928476 49.072731 
L 63.956034 49.594288 
L 66.391258 48.446913 
L 66.941147 45.779119 
L 66.234146 42.790999 
L 65.055812 40.724378 
L 70.790371 41.957331 
L 76.053595 43.911395 
L 78.253152 37.946684 
L 85.035118 35.031285 
L 86.606229 32.117096 
L 87.182304 27.618092 
L 89.250935 24.85424 
L 90.952972 27.973399 
L 91.424306 29.542168 
L 91.607602 31.466773 
L 93.335825 32.273183 
L 97.106493 32.030383 
L 100.903347 31.128628 
L 102.605385 30.010267 
L 101.688903 26.318339 
L 99.279865 23.225898 
L 95.718678 20.784094 
L 91.607602 19.04418 
L 89.408046 17.84121 
L 88.177341 16.759578 
L 86.763341 16.647098 
L 83.830599 18.256601 
L 80.321782 22.08282 
L 77.938929 23.451071 
L 74.953817 22.602377 
L 70.109555 19.018215 
L 65.553331 16.301017 
L 60.028255 14.735215 
L 52.09414 14.55357 
L 57.121698 13.385965 
L 59.949699 11.621956 
L 62.0707 9.555866 
L 65.055812 7.429902 
L 71.654482 4.907243 
L 78.567374 3.818981 
L 85.873044 3.818981 
L 93.623862 4.54447 
L 95.92816 7.369417 
L 97.499271 11.336644 
L 100.405828 14.259488 
L 114.074501 13.204356 
L 122.322838 14.259488 
L 130.073656 16.422144 
L 135.572548 19.04418 
L 132.901658 14.761165 
L 131.356731 13.2303 
L 136.096252 13.593525 
L 146.910738 15.643511 
L 150.183887 15.349383 
L 153.666519 14.536271 
L 157.411002 15.643511 
L 164.323894 19.04418 
L 181.03005 21.37282 
L 185.533904 23.641609 
L 182.103642 29.204117 
L 186.895533 28.337392 
L 188.702312 27.765412 
L 193.756055 29.186781 
L 200.32854 30.192313 
L 213.054545 30.79917 
L 201.873466 37.946684 
L 199.67391 40.724378 
L 190.901869 42.322048 
L 190.901869 42.322048 
" clip-path="url(#p67a2d9f0db)" style="fill: none; stroke: #000000; stroke-width: 0.5; stroke-linecap: square"/>
   </g>
  </g>
 </g>
 <defs>
  <clipPath id="p67a2d9f0db">
   <rect x="0" y="0" width="223.2" height="84.017575"/>
  </clipPath>
 </defs>
</svg>
