<?xml version="1.0" encoding="utf-8" standalone="no"?>
<!DOCTYPE svg PUBLIC "-//W3C//DTD SVG 1.1//EN"
  "http://www.w3.org/Graphics/SVG/1.1/DTD/svg11.dtd">
<svg xmlns:xlink="http://www.w3.org/1999/xlink" width="223.2pt" height="60.287326pt" viewBox="0 0 223.2 60.287326" xmlns="http://www.w3.org/2000/svg" version="1.1">
 <metadata>
  <rdf:RDF xmlns:dc="http://purl.org/dc/elements/1.1/" xmlns:cc="http://creativecommons.org/ns#" xmlns:rdf="http://www.w3.org/1999/02/22-rdf-syntax-ns#">
   <cc:Work>
    <dc:type rdf:resource="http://purl.org/dc/dcmitype/StillImage"/>
    <dc:date>2026-04-26T19:22:26.410960</dc:date>
    <dc:format>image/svg+xml</dc:format>
    <dc:creator>
     <cc:Agent>
      <dc:title>Matplotlib v3.10.9, https://matplotlib.org/</dc:title>
     </cc:Agent>
    </dc:creator>
   </cc:Work>
  </rdf:RDF>
 </metadata>
 <defs>
  <style type="text/css">*{stroke-linejoin: round; stroke-linecap: butt}</style>
 </defs>
 <g id="figure_1">
  <g id="patch_1">
   <path d="M 0 60.287326 
L 223.2 60.287326 
L 223.2 0 
L 0 0 
z
" style="fill: #ffffff"/>
  </g>
  <g id="axes_1">
   <g id="patch_2">
    <path d="M 118.30533 5.332036 
L 118.859244 5.437624 
L 121.62884 5.543434 
L 123.08652 5.477278 
L 125.09812 5.477278 
L 127.284637 5.569922 
L 128.567399 5.51696 
L 129.821002 5.715854 
L 132.094981 5.942218 
L 135.156111 5.995627 
L 136.001564 5.862211 
L 138.042318 5.782328 
L 138.916925 5.60968 
L 141.132601 5.583171 
L 141.103447 5.702572 
L 142.415358 5.636203 
L 145.126646 5.822254 
L 146.963322 6.129395 
L 148.683382 6.276941 
L 149.062383 6.411439 
L 150.636674 6.438381 
L 152.123508 6.667949 
L 152.415047 6.817032 
L 153.318808 6.695024 
L 154.426646 6.789895 
L 154.426646 34.881244 
L 156.904703 35.170954 
L 157.225391 34.861956 
L 159.820063 35.306401 
L 161.3652 34.746292 
L 164.601253 34.688507 
L 164.01818 35.635994 
L 164.834479 35.966513 
L 166.671161 36.278435 
L 167.07931 36.787053 
L 172.501881 38.683708 
L 173.347334 39.904093 
L 174.309403 39.562801 
L 176.64169 38.982711 
L 177.953606 38.962755 
L 178.565828 38.524535 
L 178.50752 37.870089 
L 179.440435 37.870089 
L 179.673666 37.297833 
L 181.335424 37.160102 
L 183.813481 36.669486 
L 186.23323 37.51458 
L 185.999998 38.028423 
L 186.583071 38.544421 
L 187.95329 38.663799 
L 189.673355 39.442562 
L 189.556739 39.663083 
L 190.343885 40.085145 
L 192.530408 40.569209 
L 196.087144 42.708332 
L 196.611909 43.284613 
L 197.719747 43.863349 
L 199.352351 45.153552 
L 200.984949 46.265958 
L 200.372728 46.730274 
L 202.063634 46.89949 
L 201.655484 47.578325 
L 203.025703 47.855005 
L 203.200626 48.645337 
L 204.570845 48.602508 
L 207.194671 49.418356 
L 208.827269 49.569125 
L 209.672728 49.957515 
L 210.489027 50.065578 
L 210.722258 50.455238 
L 212.442318 50.56365 
L 212.967084 51.041585 
L 212.179938 51.936229 
L 212.296549 52.682014 
L 213.054545 53.918023 
L 212.471472 54.228512 
L 211.188716 55.36459 
L 209.322881 56.193716 
L 208.798115 55.767434 
L 208.098432 55.901933 
L 207.602821 55.051944 
L 207.74859 54.695358 
L 207.165517 54.272916 
L 208.389966 53.82942 
L 208.040124 53.674486 
L 206.81567 54.228512 
L 206.14514 53.873716 
L 205.387144 54.073195 
L 203.171472 53.188507 
L 203.929464 52.220965 
L 202.530091 52.550148 
L 202.471783 53.034189 
L 201.36395 52.660029 
L 201.130719 52.199044 
L 201.888716 51.695697 
L 201.655484 51.193967 
L 200.605954 51.608322 
L 199.556423 50.715561 
L 198.915047 50.889353 
L 198.506893 50.152081 
L 199.527269 49.676912 
L 200.518492 49.676912 
L 200.226958 49.095777 
L 200.751723 48.345793 
L 199.935424 48.367169 
L 198.244513 47.72724 
L 197.049212 46.962993 
L 194.250468 46.413534 
L 194.308776 44.882033 
L 193.405015 44.694368 
L 193.609092 44.070637 
L 192.676172 43.904782 
L 191.305954 43.078514 
L 190.926958 42.646732 
L 188.565517 42.50311 
L 185.970844 41.400353 
L 184.863006 38.863024 
L 184.338241 39.442562 
L 184.571472 39.964416 
L 185.621003 40.973985 
L 185.358617 41.136246 
L 186.058306 41.971011 
L 185.912536 42.523618 
L 184.89216 42.400617 
L 184.075861 41.787315 
L 182.997176 41.685376 
L 181.481188 41.848519 
L 181.510342 40.973985 
L 180.577427 40.246299 
L 179.731974 40.468212 
L 176.37931 39.70322 
L 176.087771 39.924197 
L 177.924452 40.165697 
L 179.352978 40.771438 
L 179.906898 40.791678 
L 180.081816 41.278394 
L 180.810659 41.848519 
L 178.973977 42.175412 
L 177.895298 41.971011 
L 177.866144 42.482605 
L 176.466772 42.093613 
L 176.000315 41.807713 
L 175.125702 41.807713 
L 172.705953 41.075373 
L 170.927585 40.427835 
L 170.752662 40.044888 
L 169.761439 39.482629 
L 167.021002 39.082534 
L 165.505014 38.663799 
L 162.852034 38.186964 
L 161.10282 37.731712 
L 161.24859 37.238787 
L 161.744201 37.396305 
L 162.327269 37.081469 
L 161.744201 36.376076 
L 162.473038 35.985984 
L 162.123197 35.810858 
L 160.811286 36.552038 
L 158.070844 37.042172 
L 154.805642 36.865495 
L 152.0652 36.415156 
L 151.948589 36.063898 
L 150.665828 36.141867 
L 149.295609 35.88866 
L 146.234479 35.655411 
L 144.456111 35.635994 
L 140.462066 35.830303 
L 139.03354 35.966513 
L 137.226018 35.461386 
L 134.981188 35.228983 
L 134.281504 34.919831 
L 134.019119 34.399998 
L 132.473982 34.438424 
L 131.949217 34.900536 
L 129.208775 34.284801 
L 128.771471 34.016453 
L 125.943573 34.515315 
L 124.573354 35.112954 
L 123.990281 34.553779 
L 124.573354 34.246426 
L 125.389654 34.323188 
L 128.071788 33.920766 
L 127.721941 33.615113 
L 126.468338 33.767834 
L 125.972727 33.367378 
L 124.80658 33.310285 
L 123.64044 32.306447 
L 123.203136 32.55183 
L 121.570532 32.684187 
L 121.045767 32.55183 
L 120.491848 32.873541 
L 118.451095 32.759891 
L 118.363633 33.120185 
L 116.993414 33.215194 
L 116.352039 33.082207 
L 116.818496 32.43851 
L 116.235423 32.457389 
L 115.302508 33.13918 
L 116.585265 33.367378 
L 116.701881 33.863392 
L 117.489026 34.399998 
L 117.022568 34.977735 
L 116.002192 34.784833 
L 115.710658 35.074303 
L 116.701881 35.190294 
L 117.2558 35.966513 
L 115.827274 36.12237 
L 115.040123 35.966513 
L 113.78652 36.18087 
L 113.145139 36.005459 
L 111.483382 36.024933 
L 111.541689 35.733107 
L 110.754544 35.92758 
L 110.317241 36.297958 
L 109.617552 35.966513 
L 108.742945 36.434701 
L 109.121941 36.649906 
L 107.897492 36.924359 
L 106.789653 36.963619 
L 106.35235 37.33721 
L 105.15705 37.672455 
L 104.340751 37.55403 
L 103.43699 37.949233 
L 102.708147 37.929442 
L 101.192164 38.743451 
L 99.55956 38.803223 
L 99.034795 38.544421 
L 98.043572 38.982711 
L 96.002819 38.643898 
L 96.469277 38.028423 
L 97.810341 37.810766 
L 98.684953 37.850312 
L 98.947333 37.61323 
L 100.521629 37.140439 
L 100.579937 36.747851 
L 98.51003 37.278148 
L 96.78997 36.963619 
L 96.585892 36.747851 
L 97.460499 35.849752 
L 98.947333 35.209637 
L 99.180565 34.688507 
L 99.617868 34.592257 
L 99.792787 34.0356 
L 99.034795 33.424496 
L 100.871471 33.196186 
L 104.369904 32.325303 
L 105.215358 32.665269 
L 106.294042 32.759891 
L 107.897492 32.400761 
L 106.119118 31.930001 
L 105.419435 31.573578 
L 104.020063 31.611041 
L 103.02884 31.442562 
L 102.737301 31.592308 
L 101.075548 31.836094 
L 100.317552 32.306447 
L 98.6558 32.419634 
L 96.935734 32.968341 
L 96.760816 33.329313 
L 95.4489 33.519764 
L 95.157366 33.920766 
L 94.224451 34.169716 
L 93.787148 34.881244 
L 91.97962 35.345129 
L 92.854233 35.713677 
L 92.12539 36.258916 
L 90.434484 36.356541 
L 90.288714 37.061819 
L 88.714418 37.317522 
L 88.218807 37.022528 
L 87.431662 37.57376 
L 86.498747 37.593493 
L 86.673665 37.98882 
L 84.603758 38.226631 
L 84.195608 39.322438 
L 86.557049 39.382486 
L 88.422885 39.68315 
L 88.94765 40.044888 
L 88.189653 40.629846 
L 86.93605 40.994257 
L 85.769904 41.014529 
L 85.653289 41.339361 
L 84.895297 41.461378 
L 85.245139 41.868926 
L 84.457994 42.482605 
L 82.767082 43.057925 
L 81.805013 43.057925 
L 80.872098 43.263989 
L 79.968338 43.22275 
L 79.268649 43.449714 
L 79.472726 43.759822 
L 78.160816 43.925503 
L 77.89843 44.382152 
L 76.994669 44.091383 
L 76.003447 44.986402 
L 74.341689 44.923771 
L 74.458305 45.404655 
L 73.467082 45.279048 
L 72.767399 45.488456 
L 72.767399 46.13959 
L 71.65956 47.153681 
L 69.881192 47.280941 
L 68.423512 47.748526 
L 68.190281 48.004201 
L 67.257366 47.642125 
L 65.68307 48.623921 
L 65.245766 48.345793 
L 64.371159 48.431315 
L 64.167082 48.988408 
L 63.263321 49.203226 
L 62.184636 49.117261 
L 61.339183 49.676912 
L 62.826017 49.849528 
L 61.222568 51.106874 
L 56.616301 51.521 
L 55.333539 52.638046 
L 55.012851 52.396442 
L 55.187775 51.695697 
L 54.284009 51.58649 
L 53.147022 51.84872 
L 52.972098 52.133298 
L 51.19373 52.594091 
L 50.435734 53.122351 
L 50.202507 52.747984 
L 49.73605 53.188507 
L 48.686519 52.90203 
L 46.733228 53.586016 
L 45.275548 53.563906 
L 45.479625 53.034189 
L 44.838244 52.528181 
L 44.255171 52.946071 
L 44.313479 53.387141 
L 42.360187 54.739889 
L 41.689653 54.406202 
L 41.48558 54.918136 
L 40.144511 54.828989 
L 39.940439 54.028845 
L 39.124139 53.851567 
L 38.8326 54.139743 
L 39.561443 54.49512 
L 39.211596 55.051944 
L 38.132917 55.342239 
L 37.316612 54.717622 
L 36.325389 54.673097 
L 36.150471 54.918136 
L 37.141694 55.275205 
L 35.334167 55.857088 
L 36.558621 56.014099 
L 36.587775 56.283599 
L 35.567398 56.08143 
L 34.19718 56.621084 
L 31.544199 56.598564 
L 30.232289 56.959245 
L 30.115673 57.230259 
L 28.599685 57.546993 
L 27.491847 57.433806 
L 27.112851 56.666134 
L 28.220689 56.418514 
L 29.066143 55.498764 
L 30.173981 55.476395 
L 32.564576 54.873556 
L 34.488714 54.851271 
L 35.217551 55.431664 
L 35.77147 55.007328 
L 35.65486 54.517357 
L 36.762693 54.295123 
L 37.957993 54.295123 
L 39.561443 53.232627 
L 41.339811 52.286748 
L 43.672098 51.455538 
L 46.41254 51.085108 
L 47.549527 51.259316 
L 48.657366 51.019829 
L 48.948899 51.368297 
L 48.336678 51.76126 
L 49.007207 52.067579 
L 49.211285 51.58649 
L 50.581503 51.542827 
L 50.960499 51.84872 
L 51.805957 51.958114 
L 51.835111 51.58649 
L 50.435734 51.259316 
L 50.319123 51.041585 
L 51.252038 50.022344 
L 52.505641 49.439881 
L 54.196552 48.881113 
L 56.878681 48.388548 
L 58.831973 47.684676 
L 59.764888 47.940244 
L 60.522884 47.833703 
L 60.202191 47.38708 
L 60.435422 46.962993 
L 61.922257 46.076446 
L 63.96301 45.50941 
L 65.595608 44.756896 
L 65.508152 44.340575 
L 66.820062 41.420692 
L 68.860816 40.650064 
L 68.627584 40.044888 
L 63.729778 40.913188 
L 62.184636 40.811922 
L 61.805641 40.448022 
L 60.931034 40.286619 
L 60.639495 39.883991 
L 59.852349 40.065015 
L 59.356738 40.690507 
L 60.202191 41.481725 
L 59.181814 41.828114 
L 58.278053 41.705754 
L 56.528839 40.448022 
L 55.333539 39.823706 
L 54.721318 39.823706 
L 54.313163 40.286619 
L 53.788403 40.367293 
L 53.001252 39.984531 
L 52.039183 39.924197 
L 51.60188 39.302431 
L 48.744827 40.004644 
L 46.179309 40.508601 
L 45.975231 40.791678 
L 43.963637 41.217455 
L 42.972415 40.832169 
L 43.876175 40.387471 
L 43.555482 39.34245 
L 42.884953 38.246469 
L 44.226017 37.790997 
L 43.118179 36.885113 
L 42.15611 36.376076 
L 41.398119 35.635994 
L 40.261126 35.325763 
L 39.969592 35.966513 
L 38.599374 36.102876 
L 36.412851 36.512913 
L 33.789025 36.689073 
L 32.360499 36.649906 
L 31.13605 36.434701 
L 30.99028 35.869204 
L 29.94075 35.694251 
L 28.278997 34.919831 
L 26.879625 34.765561 
L 25.247021 33.920766 
L 26.35486 33.538827 
L 26.588086 32.835644 
L 25.742633 32.98731 
L 25.626017 32.55183 
L 26.034167 32.193376 
L 24.955482 31.873645 
L 24.838872 32.212213 
L 23.526956 32.080425 
L 23.352038 31.498694 
L 22.331661 31.423858 
L 21.777742 31.031824 
L 21.806896 30.548437 
L 20.786519 30.771265 
L 20.611596 30.307565 
L 21.865204 30.196582 
L 20.844827 29.680201 
L 22.652349 29.643418 
L 22.652349 29.020047 
L 23.089652 28.600496 
L 26.442316 27.280358 
L 27.142005 26.88594 
L 27.637616 26.957532 
L 27.346082 26.404054 
L 28.628839 25.465119 
L 29.736677 25.095655 
L 31.806579 24.937757 
L 33.410029 25.095655 
L 35.65486 25.659232 
L 37.11254 25.588599 
L 39.124139 25.042993 
L 41.194041 24.221847 
L 42.243572 24.13492 
L 42.505957 24.34368 
L 45.013162 24.34368 
L 47.228839 24.169681 
L 49.211285 23.321877 
L 49.211285 23.115465 
L 48.220062 22.328666 
L 48.103446 21.870135 
L 46.558304 21.380348 
L 45.975231 20.960371 
L 47.549527 21.077755 
L 49.036361 20.726099 
L 49.123823 20.392562 
L 47.199685 19.779055 
L 45.771159 20.259525 
L 44.430095 20.176483 
L 43.176487 20.442508 
L 41.74796 20.509149 
L 41.398119 20.692685 
L 39.765515 20.960371 
L 39.269904 21.414033 
L 38.453604 21.59956 
L 38.074609 21.060976 
L 37.083386 20.943615 
L 36.383697 21.363508 
L 35.975548 21.161697 
L 34.138872 20.859887 
L 30.378053 20.876626 
L 27.695924 21.212105 
L 26.675548 21.262543 
L 24.489025 21.060976 
L 20.349216 20.826419 
L 19.270531 20.642589 
L 18.77492 20.342647 
L 19.153915 19.927865 
L 17.667081 19.581068 
L 17.958621 19.202942 
L 18.891535 19.006366 
L 18.599996 18.533309 
L 17.113167 18.533309 
L 15.888713 18.403307 
L 13.498118 18.30595 
L 12.24451 18.063083 
L 10.320373 17.820977 
L 10.145455 17.515403 
L 13.148277 17.115186 
L 16.938244 16.447588 
L 19.591219 16.053044 
L 21.107207 16.273726 
L 22.652349 16.321102 
L 23.002191 16.005841 
L 22.069276 15.958669 
L 21.981819 15.691938 
L 25.684325 15.254759 
L 29.853288 14.928623 
L 32.098119 14.89764 
L 33.322567 15.006139 
L 32.681192 15.473015 
L 32.914418 15.801651 
L 32.44796 16.037307 
L 33.235111 16.415946 
L 34.692791 16.352703 
L 36.529467 16.415946 
L 38.657677 16.336901 
L 39.269904 16.47924 
L 40.669276 16.510909 
L 41.89373 16.368509 
L 43.49718 16.526749 
L 45.042316 15.895822 
L 46.150155 15.864418 
L 46.908151 15.990114 
L 47.287147 15.629323 
L 45.158932 15.457403 
L 43.118179 15.598034 
L 43.322256 15.130341 
L 41.718807 14.634842 
L 39.969592 14.480716 
L 39.444827 14.035676 
L 40.815046 13.928681 
L 42.56426 14.373028 
L 42.243572 14.727483 
L 43.089025 15.006139 
L 44.925706 15.332632 
L 45.36301 14.990629 
L 43.263948 14.542326 
L 44.167709 13.745653 
L 43.438872 13.608704 
L 41.368965 13.776124 
L 39.24075 13.730423 
L 38.920062 13.593504 
L 37.841377 13.730423 
L 33.380875 13.396223 
L 33.293413 13.048605 
L 31.952349 12.284259 
L 30.873664 12.001782 
L 29.153604 11.764869 
L 25.655171 11.117893 
L 24.051721 10.869709 
L 22.448277 10.81146 
L 20.057682 10.37633 
L 17.725389 10.131135 
L 17.608779 10.044835 
L 19.357993 9.915615 
L 20.145138 9.515392 
L 20.203446 8.723078 
L 24.926334 8.779312 
L 30.640438 8.596756 
L 32.127273 8.456725 
L 34.488714 8.066488 
L 36.733539 7.472497 
L 37.199996 6.884933 
L 38.162065 6.384511 
L 40.144511 5.968916 
L 40.989969 5.66274 
L 43.438872 5.174075 
L 43.817868 5.305673 
L 45.858621 5.345222 
L 48.832289 5.095283 
L 50.698119 4.833554 
L 55.158621 4.031107 
L 56.849527 3.992621 
L 57.024451 4.108175 
L 58.744511 4.018275 
L 60.435422 4.043943 
L 63.758932 3.941357 
L 67.024134 3.596783 
L 70.260188 2.89029 
L 71.572098 2.740333 
L 71.80533 2.865262 
L 76.790592 3.153931 
L 77.198747 3.355843 
L 75.478681 3.62222 
L 74.691536 3.634943 
L 74.72069 3.992621 
L 77.227901 3.877353 
L 77.373665 3.685872 
L 78.510657 3.50787 
L 78.889653 3.6095 
L 79.735106 3.204325 
L 82.213163 3.571361 
L 81.805013 3.851776 
L 83.350155 3.928549 
L 84.253916 4.095321 
L 85.594981 3.826214 
L 87.956427 3.813438 
L 89.297492 3.724105 
L 92.737617 3.813438 
L 94.486831 3.915745 
L 93.641378 4.46949 
L 96.848272 4.612187 
L 97.081504 4.75531 
L 100.200941 5.00352 
L 100.230095 4.885788 
L 102.474921 4.729256 
L 104.63229 4.742281 
L 104.661438 4.872724 
L 105.915046 4.885788 
L 107.226957 4.703216 
L 109.384326 4.67719 
L 110.900314 4.75531 
L 112.970216 4.95116 
L 113.932285 4.911926 
L 115.302508 5.187219 
L 116.089653 5.082163 
L 117.37241 5.160934 
z
" clip-path="url(#pc863e4e28e)" style="stroke: #000000; stroke-linejoin: miter"/>
   </g>
   <g id="line2d_1">
    <path d="M 118.30533 5.332036 
L 118.859244 5.437624 
L 121.62884 5.543434 
L 125.09812 5.477278 
L 129.821002 5.715854 
L 132.094981 5.942218 
L 135.156111 5.995627 
L 136.001564 5.862211 
L 138.042318 5.782328 
L 138.916925 5.60968 
L 141.132601 5.583171 
L 141.103447 5.702572 
L 142.415358 5.636203 
L 145.126646 5.822254 
L 146.963322 6.129395 
L 152.123508 6.667949 
L 152.415047 6.817032 
L 153.318808 6.695024 
L 154.426646 6.789895 
L 154.426646 34.881244 
L 156.904703 35.170954 
L 157.225391 34.861956 
L 159.820063 35.306401 
L 161.3652 34.746292 
L 164.601253 34.688507 
L 164.01818 35.635994 
L 164.834479 35.966513 
L 166.671161 36.278435 
L 167.07931 36.787053 
L 172.501881 38.683708 
L 173.347334 39.904093 
L 174.309403 39.562801 
L 176.64169 38.982711 
L 177.953606 38.962755 
L 178.565828 38.524535 
L 178.50752 37.870089 
L 179.440435 37.870089 
L 179.673666 37.297833 
L 181.335424 37.160102 
L 183.813481 36.669486 
L 186.23323 37.51458 
L 185.999998 38.028423 
L 186.583071 38.544421 
L 187.95329 38.663799 
L 189.673355 39.442562 
L 189.556739 39.663083 
L 190.343885 40.085145 
L 192.530408 40.569209 
L 196.087144 42.708332 
L 196.611909 43.284613 
L 197.719747 43.863349 
L 199.352351 45.153552 
L 200.984949 46.265958 
L 200.372728 46.730274 
L 202.063634 46.89949 
L 201.655484 47.578325 
L 203.025703 47.855005 
L 203.200626 48.645337 
L 204.570845 48.602508 
L 207.194671 49.418356 
L 208.827269 49.569125 
L 209.672728 49.957515 
L 210.489027 50.065578 
L 210.722258 50.455238 
L 212.442318 50.56365 
L 212.967084 51.041585 
L 212.179938 51.936229 
L 212.296549 52.682014 
L 213.054545 53.918023 
L 212.471472 54.228512 
L 211.188716 55.36459 
L 209.322881 56.193716 
L 208.798115 55.767434 
L 208.098432 55.901933 
L 207.602821 55.051944 
L 207.74859 54.695358 
L 207.165517 54.272916 
L 208.389966 53.82942 
L 208.040124 53.674486 
L 206.81567 54.228512 
L 206.14514 53.873716 
L 205.387144 54.073195 
L 203.171472 53.188507 
L 203.929464 52.220965 
L 202.530091 52.550148 
L 202.471783 53.034189 
L 201.36395 52.660029 
L 201.130719 52.199044 
L 201.888716 51.695697 
L 201.655484 51.193967 
L 200.605954 51.608322 
L 199.556423 50.715561 
L 198.915047 50.889353 
L 198.506893 50.152081 
L 199.527269 49.676912 
L 200.518492 49.676912 
L 200.226958 49.095777 
L 200.751723 48.345793 
L 199.935424 48.367169 
L 198.244513 47.72724 
L 197.049212 46.962993 
L 194.250468 46.413534 
L 194.308776 44.882033 
L 193.405015 44.694368 
L 193.609092 44.070637 
L 192.676172 43.904782 
L 191.305954 43.078514 
L 190.926958 42.646732 
L 188.565517 42.50311 
L 185.970844 41.400353 
L 184.863006 38.863024 
L 184.338241 39.442562 
L 184.571472 39.964416 
L 185.621003 40.973985 
L 185.358617 41.136246 
L 186.058306 41.971011 
L 185.912536 42.523618 
L 184.89216 42.400617 
L 184.075861 41.787315 
L 182.997176 41.685376 
L 181.481188 41.848519 
L 181.510342 40.973985 
L 180.577427 40.246299 
L 179.731974 40.468212 
L 176.37931 39.70322 
L 176.087771 39.924197 
L 177.924452 40.165697 
L 179.352978 40.771438 
L 179.906898 40.791678 
L 180.081816 41.278394 
L 180.810659 41.848519 
L 178.973977 42.175412 
L 177.895298 41.971011 
L 177.866144 42.482605 
L 176.466772 42.093613 
L 176.000315 41.807713 
L 175.125702 41.807713 
L 170.927585 40.427835 
L 170.752662 40.044888 
L 169.761439 39.482629 
L 167.021002 39.082534 
L 165.505014 38.663799 
L 162.852034 38.186964 
L 161.10282 37.731712 
L 161.24859 37.238787 
L 161.744201 37.396305 
L 162.327269 37.081469 
L 161.744201 36.376076 
L 162.473038 35.985984 
L 162.123197 35.810858 
L 160.811286 36.552038 
L 158.070844 37.042172 
L 154.805642 36.865495 
L 152.0652 36.415156 
L 151.948589 36.063898 
L 150.665828 36.141867 
L 149.295609 35.88866 
L 146.234479 35.655411 
L 144.456111 35.635994 
L 139.03354 35.966513 
L 137.226018 35.461386 
L 134.981188 35.228983 
L 134.281504 34.919831 
L 134.019119 34.399998 
L 132.473982 34.438424 
L 131.949217 34.900536 
L 129.208775 34.284801 
L 128.771471 34.016453 
L 125.943573 34.515315 
L 124.573354 35.112954 
L 123.990281 34.553779 
L 124.573354 34.246426 
L 125.389654 34.323188 
L 128.071788 33.920766 
L 127.721941 33.615113 
L 126.468338 33.767834 
L 125.972727 33.367378 
L 124.80658 33.310285 
L 123.64044 32.306447 
L 123.203136 32.55183 
L 121.570532 32.684187 
L 121.045767 32.55183 
L 120.491848 32.873541 
L 118.451095 32.759891 
L 118.363633 33.120185 
L 116.993414 33.215194 
L 116.352039 33.082207 
L 116.818496 32.43851 
L 116.235423 32.457389 
L 115.302508 33.13918 
L 116.585265 33.367378 
L 116.701881 33.863392 
L 117.489026 34.399998 
L 117.022568 34.977735 
L 116.002192 34.784833 
L 115.710658 35.074303 
L 116.701881 35.190294 
L 117.2558 35.966513 
L 115.827274 36.12237 
L 115.040123 35.966513 
L 113.78652 36.18087 
L 113.145139 36.005459 
L 111.483382 36.024933 
L 111.541689 35.733107 
L 110.754544 35.92758 
L 110.317241 36.297958 
L 109.617552 35.966513 
L 108.742945 36.434701 
L 109.121941 36.649906 
L 107.897492 36.924359 
L 106.789653 36.963619 
L 106.35235 37.33721 
L 105.15705 37.672455 
L 104.340751 37.55403 
L 103.43699 37.949233 
L 102.708147 37.929442 
L 101.192164 38.743451 
L 99.55956 38.803223 
L 99.034795 38.544421 
L 98.043572 38.982711 
L 96.002819 38.643898 
L 96.469277 38.028423 
L 97.810341 37.810766 
L 98.684953 37.850312 
L 98.947333 37.61323 
L 100.521629 37.140439 
L 100.579937 36.747851 
L 98.51003 37.278148 
L 96.78997 36.963619 
L 96.585892 36.747851 
L 97.460499 35.849752 
L 98.947333 35.209637 
L 99.180565 34.688507 
L 99.617868 34.592257 
L 99.792787 34.0356 
L 99.034795 33.424496 
L 100.871471 33.196186 
L 104.369904 32.325303 
L 105.215358 32.665269 
L 106.294042 32.759891 
L 107.897492 32.400761 
L 106.119118 31.930001 
L 105.419435 31.573578 
L 104.020063 31.611041 
L 103.02884 31.442562 
L 102.737301 31.592308 
L 101.075548 31.836094 
L 100.317552 32.306447 
L 98.6558 32.419634 
L 96.935734 32.968341 
L 96.760816 33.329313 
L 95.4489 33.519764 
L 95.157366 33.920766 
L 94.224451 34.169716 
L 93.787148 34.881244 
L 91.97962 35.345129 
L 92.854233 35.713677 
L 92.12539 36.258916 
L 90.434484 36.356541 
L 90.288714 37.061819 
L 88.714418 37.317522 
L 88.218807 37.022528 
L 87.431662 37.57376 
L 86.498747 37.593493 
L 86.673665 37.98882 
L 84.603758 38.226631 
L 84.195608 39.322438 
L 86.557049 39.382486 
L 88.422885 39.68315 
L 88.94765 40.044888 
L 88.189653 40.629846 
L 86.93605 40.994257 
L 85.769904 41.014529 
L 85.653289 41.339361 
L 84.895297 41.461378 
L 85.245139 41.868926 
L 84.457994 42.482605 
L 82.767082 43.057925 
L 81.805013 43.057925 
L 80.872098 43.263989 
L 79.968338 43.22275 
L 79.268649 43.449714 
L 79.472726 43.759822 
L 78.160816 43.925503 
L 77.89843 44.382152 
L 76.994669 44.091383 
L 76.003447 44.986402 
L 74.341689 44.923771 
L 74.458305 45.404655 
L 73.467082 45.279048 
L 72.767399 45.488456 
L 72.767399 46.13959 
L 71.65956 47.153681 
L 69.881192 47.280941 
L 68.423512 47.748526 
L 68.190281 48.004201 
L 67.257366 47.642125 
L 65.68307 48.623921 
L 65.245766 48.345793 
L 64.371159 48.431315 
L 64.167082 48.988408 
L 63.263321 49.203226 
L 62.184636 49.117261 
L 61.339183 49.676912 
L 62.826017 49.849528 
L 61.222568 51.106874 
L 56.616301 51.521 
L 55.333539 52.638046 
L 55.012851 52.396442 
L 55.187775 51.695697 
L 54.284009 51.58649 
L 53.147022 51.84872 
L 52.972098 52.133298 
L 51.19373 52.594091 
L 50.435734 53.122351 
L 50.202507 52.747984 
L 49.73605 53.188507 
L 48.686519 52.90203 
L 46.733228 53.586016 
L 45.275548 53.563906 
L 45.479625 53.034189 
L 44.838244 52.528181 
L 44.255171 52.946071 
L 44.313479 53.387141 
L 42.360187 54.739889 
L 41.689653 54.406202 
L 41.48558 54.918136 
L 40.144511 54.828989 
L 39.940439 54.028845 
L 39.124139 53.851567 
L 38.8326 54.139743 
L 39.561443 54.49512 
L 39.211596 55.051944 
L 38.132917 55.342239 
L 37.316612 54.717622 
L 36.325389 54.673097 
L 36.150471 54.918136 
L 37.141694 55.275205 
L 35.334167 55.857088 
L 36.558621 56.014099 
L 36.587775 56.283599 
L 35.567398 56.08143 
L 34.19718 56.621084 
L 31.544199 56.598564 
L 30.232289 56.959245 
L 30.115673 57.230259 
L 28.599685 57.546993 
L 27.491847 57.433806 
L 27.112851 56.666134 
L 28.220689 56.418514 
L 29.066143 55.498764 
L 30.173981 55.476395 
L 32.564576 54.873556 
L 34.488714 54.851271 
L 35.217551 55.431664 
L 35.77147 55.007328 
L 35.65486 54.517357 
L 36.762693 54.295123 
L 37.957993 54.295123 
L 39.561443 53.232627 
L 41.339811 52.286748 
L 43.672098 51.455538 
L 46.41254 51.085108 
L 47.549527 51.259316 
L 48.657366 51.019829 
L 48.948899 51.368297 
L 48.336678 51.76126 
L 49.007207 52.067579 
L 49.211285 51.58649 
L 50.581503 51.542827 
L 50.960499 51.84872 
L 51.805957 51.958114 
L 51.835111 51.58649 
L 50.435734 51.259316 
L 50.319123 51.041585 
L 51.252038 50.022344 
L 52.505641 49.439881 
L 54.196552 48.881113 
L 56.878681 48.388548 
L 58.831973 47.684676 
L 59.764888 47.940244 
L 60.522884 47.833703 
L 60.202191 47.38708 
L 60.435422 46.962993 
L 61.922257 46.076446 
L 63.96301 45.50941 
L 65.595608 44.756896 
L 65.508152 44.340575 
L 66.820062 41.420692 
L 68.860816 40.650064 
L 68.627584 40.044888 
L 63.729778 40.913188 
L 62.184636 40.811922 
L 61.805641 40.448022 
L 60.931034 40.286619 
L 60.639495 39.883991 
L 59.852349 40.065015 
L 59.356738 40.690507 
L 60.202191 41.481725 
L 59.181814 41.828114 
L 58.278053 41.705754 
L 56.528839 40.448022 
L 55.333539 39.823706 
L 54.721318 39.823706 
L 54.313163 40.286619 
L 53.788403 40.367293 
L 53.001252 39.984531 
L 52.039183 39.924197 
L 51.60188 39.302431 
L 48.744827 40.004644 
L 46.179309 40.508601 
L 45.975231 40.791678 
L 43.963637 41.217455 
L 42.972415 40.832169 
L 43.876175 40.387471 
L 43.555482 39.34245 
L 42.884953 38.246469 
L 44.226017 37.790997 
L 43.118179 36.885113 
L 42.15611 36.376076 
L 41.398119 35.635994 
L 40.261126 35.325763 
L 39.969592 35.966513 
L 38.599374 36.102876 
L 36.412851 36.512913 
L 33.789025 36.689073 
L 32.360499 36.649906 
L 31.13605 36.434701 
L 30.99028 35.869204 
L 29.94075 35.694251 
L 28.278997 34.919831 
L 26.879625 34.765561 
L 25.247021 33.920766 
L 26.35486 33.538827 
L 26.588086 32.835644 
L 25.742633 32.98731 
L 25.626017 32.55183 
L 26.034167 32.193376 
L 24.955482 31.873645 
L 24.838872 32.212213 
L 23.526956 32.080425 
L 23.352038 31.498694 
L 22.331661 31.423858 
L 21.777742 31.031824 
L 21.806896 30.548437 
L 20.786519 30.771265 
L 20.611596 30.307565 
L 21.865204 30.196582 
L 20.844827 29.680201 
L 22.652349 29.643418 
L 22.652349 29.020047 
L 23.089652 28.600496 
L 27.142005 26.88594 
L 27.637616 26.957532 
L 27.346082 26.404054 
L 28.628839 25.465119 
L 29.736677 25.095655 
L 31.806579 24.937757 
L 33.410029 25.095655 
L 35.65486 25.659232 
L 37.11254 25.588599 
L 39.124139 25.042993 
L 41.194041 24.221847 
L 42.243572 24.13492 
L 42.505957 24.34368 
L 45.013162 24.34368 
L 47.228839 24.169681 
L 49.211285 23.321877 
L 49.211285 23.115465 
L 48.220062 22.328666 
L 48.103446 21.870135 
L 46.558304 21.380348 
L 45.975231 20.960371 
L 47.549527 21.077755 
L 49.036361 20.726099 
L 49.123823 20.392562 
L 47.199685 19.779055 
L 45.771159 20.259525 
L 44.430095 20.176483 
L 43.176487 20.442508 
L 41.74796 20.509149 
L 41.398119 20.692685 
L 39.765515 20.960371 
L 39.269904 21.414033 
L 38.453604 21.59956 
L 38.074609 21.060976 
L 37.083386 20.943615 
L 36.383697 21.363508 
L 35.975548 21.161697 
L 34.138872 20.859887 
L 30.378053 20.876626 
L 26.675548 21.262543 
L 24.489025 21.060976 
L 20.349216 20.826419 
L 19.270531 20.642589 
L 18.77492 20.342647 
L 19.153915 19.927865 
L 17.667081 19.581068 
L 17.958621 19.202942 
L 18.891535 19.006366 
L 18.599996 18.533309 
L 17.113167 18.533309 
L 15.888713 18.403307 
L 13.498118 18.30595 
L 12.24451 18.063083 
L 10.320373 17.820977 
L 10.145455 17.515403 
L 13.148277 17.115186 
L 19.591219 16.053044 
L 21.107207 16.273726 
L 22.652349 16.321102 
L 23.002191 16.005841 
L 22.069276 15.958669 
L 21.981819 15.691938 
L 25.684325 15.254759 
L 29.853288 14.928623 
L 32.098119 14.89764 
L 33.322567 15.006139 
L 32.681192 15.473015 
L 32.914418 15.801651 
L 32.44796 16.037307 
L 33.235111 16.415946 
L 34.692791 16.352703 
L 36.529467 16.415946 
L 38.657677 16.336901 
L 39.269904 16.47924 
L 40.669276 16.510909 
L 41.89373 16.368509 
L 43.49718 16.526749 
L 45.042316 15.895822 
L 46.150155 15.864418 
L 46.908151 15.990114 
L 47.287147 15.629323 
L 45.158932 15.457403 
L 43.118179 15.598034 
L 43.322256 15.130341 
L 41.718807 14.634842 
L 39.969592 14.480716 
L 39.444827 14.035676 
L 40.815046 13.928681 
L 42.56426 14.373028 
L 42.243572 14.727483 
L 43.089025 15.006139 
L 44.925706 15.332632 
L 45.36301 14.990629 
L 43.263948 14.542326 
L 44.167709 13.745653 
L 43.438872 13.608704 
L 41.368965 13.776124 
L 39.24075 13.730423 
L 38.920062 13.593504 
L 37.841377 13.730423 
L 33.380875 13.396223 
L 33.293413 13.048605 
L 31.952349 12.284259 
L 30.873664 12.001782 
L 29.153604 11.764869 
L 24.051721 10.869709 
L 22.448277 10.81146 
L 20.057682 10.37633 
L 17.608779 10.044835 
L 19.357993 9.915615 
L 20.145138 9.515392 
L 20.203446 8.723078 
L 24.926334 8.779312 
L 32.127273 8.456725 
L 34.488714 8.066488 
L 36.733539 7.472497 
L 37.199996 6.884933 
L 38.162065 6.384511 
L 40.144511 5.968916 
L 40.989969 5.66274 
L 43.438872 5.174075 
L 43.817868 5.305673 
L 45.858621 5.345222 
L 50.698119 4.833554 
L 55.158621 4.031107 
L 56.849527 3.992621 
L 57.024451 4.108175 
L 58.744511 4.018275 
L 60.435422 4.043943 
L 63.758932 3.941357 
L 67.024134 3.596783 
L 70.260188 2.89029 
L 71.572098 2.740333 
L 71.80533 2.865262 
L 76.790592 3.153931 
L 77.198747 3.355843 
L 74.691536 3.634943 
L 74.72069 3.992621 
L 77.227901 3.877353 
L 77.373665 3.685872 
L 78.510657 3.50787 
L 78.889653 3.6095 
L 79.735106 3.204325 
L 82.213163 3.571361 
L 81.805013 3.851776 
L 83.350155 3.928549 
L 84.253916 4.095321 
L 85.594981 3.826214 
L 92.737617 3.813438 
L 94.486831 3.915745 
L 93.641378 4.46949 
L 96.848272 4.612187 
L 97.081504 4.75531 
L 100.200941 5.00352 
L 100.230095 4.885788 
L 102.474921 4.729256 
L 104.63229 4.742281 
L 104.661438 4.872724 
L 105.915046 4.885788 
L 107.226957 4.703216 
L 110.900314 4.75531 
L 112.970216 4.95116 
L 113.932285 4.911926 
L 115.302508 5.187219 
L 116.089653 5.082163 
L 117.37241 5.160934 
L 118.30533 5.332036 
L 118.30533 5.332036 
" clip-path="url(#pc863e4e28e)" style="fill: none; stroke: #000000; stroke-width: 0.5; stroke-linecap: square"/>
   </g>
  </g>
 </g>
 <defs>
  <clipPath id="pc863e4e28e">
   <rect x="0" y="0" width="223.2" height="60.287326"/>
  </clipPath>
 </defs>
</svg>
