<?xml version="1.0" encoding="utf-8" standalone="no"?>
<!DOCTYPE svg PUBLIC "-//W3C//DTD SVG 1.1//EN"
  "http://www.w3.org/Graphics/SVG/1.1/DTD/svg11.dtd">
<svg xmlns:xlink="http://www.w3.org/1999/xlink" width="129.500222pt" height="221.76pt" viewBox="0 0 129.500222 221.76" xmlns="http://www.w3.org/2000/svg" version="1.1">
 <metadata>
  <rdf:RDF xmlns:dc="http://purl.org/dc/elements/1.1/" xmlns:cc="http://creativecommons.org/ns#" xmlns:rdf="http://www.w3.org/1999/02/22-rdf-syntax-ns#">
   <cc:Work>
    <dc:type rdf:resource="http://purl.org/dc/dcmitype/StillImage"/>
    <dc:date>2026-04-26T19:21:57.114762</dc:date>
    <dc:format>image/svg+xml</dc:format>
    <dc:creator>
     <cc:Agent>
      <dc:title>Matplotlib v3.10.9, https://matplotlib.org/</dc:title>
     </cc:Agent>
    </dc:creator>
   </cc:Work>
  </rdf:RDF>
 </metadata>
 <defs>
  <style type="text/css">*{stroke-linejoin: round; stroke-linecap: butt}</style>
 </defs>
 <g id="figure_1">
  <g id="patch_1">
   <path d="M 0 221.76 
L 129.500222 221.76 
L 129.500222 0 
L 0 0 
z
" style="fill: #ffffff"/>
  </g>
  <g id="axes_1">
   <g id="patch_2">
    <path d="M 92.289266 61.414631 
L 90.593064 62.181274 
L 90.530604 63.286124 
L 90.510322 63.644936 
L 91.041247 65.314154 
L 91.154391 66.248948 
L 91.206731 66.681448 
L 90.772337 67.260969 
L 89.220933 68.392885 
L 88.565895 69.035919 
L 88.028075 69.916825 
L 87.835011 70.614836 
L 88.365936 75.408148 
L 88.703798 76.82319 
L 90.1173 79.899841 
L 90.122575 80.344548 
L 90.124195 80.481136 
L 89.765648 81.170559 
L 89.200247 81.602791 
L 88.30388 82.007618 
L 87.338562 82.312979 
L 84.08406 82.844838 
L 84.332284 83.788618 
L 84.139221 85.580647 
L 84.60809 86.569668 
L 85.352764 86.823827 
L 85.863004 87.222269 
L 86.581825 88.253021 
L 86.711105 88.438428 
L 86.931749 88.950416 
L 87.069652 90.036439 
L 87.200659 90.397361 
L 87.676423 90.699871 
L 88.786539 90.833944 
L 89.289884 91.084914 
L 90.082824 91.930751 
L 90.414695 92.598447 
L 90.489637 92.749236 
L 90.475847 93.650435 
L 90.006978 94.761708 
L 89.372626 95.670203 
L 88.503839 96.496269 
L 87.545416 96.936901 
L 86.586993 96.709695 
L 86.349082 98.016448 
L 86.324977 98.148867 
L 86.683524 100.156918 
L 87.814326 103.755093 
L 88.655532 105.44835 
L 91.123989 108.087809 
L 92.178944 109.637712 
L 92.516806 111.146711 
L 92.475435 112.331479 
L 92.944304 113.240129 
L 94.308853 113.724309 
L 94.83357 113.910507 
L 95.743727 113.983079 
L 96.584933 113.951977 
L 96.757892 113.971501 
L 97.350293 114.038374 
L 98.074281 114.460015 
L 98.756899 115.538492 
L 100.046289 119.91037 
L 101.335679 123.763508 
L 102.300997 125.311925 
L 103.192104 125.888767 
L 103.879982 126.334103 
L 105.562394 126.618275 
L 106.734567 126.26133 
L 108.954799 124.840762 
L 110.261944 124.595321 
L 110.320035 124.584414 
L 113.843447 124.972405 
L 117.160005 125.724233 
L 118.277017 126.548963 
L 118.821732 127.810606 
L 118.849313 129.592759 
L 118.96653 132.773949 
L 118.559717 134.200487 
L 117.40823 135.242039 
L 118.063268 135.651781 
L 118.311492 136.158802 
L 118.4425 136.700613 
L 118.732095 137.204278 
L 120.635152 138.587037 
L 122.4072 140.241341 
L 123.089818 141.186928 
L 123.524212 142.362232 
L 123.613848 143.683942 
L 123.379414 144.919043 
L 122.669215 147.261433 
L 122.551998 148.037853 
L 122.524418 148.59849 
L 122.420991 149.124367 
L 122.069339 149.803569 
L 121.61426 150.186753 
L 121.000594 150.458484 
L 120.386927 150.841723 
L 119.931848 151.531633 
L 119.069957 151.712838 
L 118.359758 152.092697 
L 117.959841 152.69217 
L 118.008107 153.528775 
L 117.815043 153.919243 
L 117.594399 154.253956 
L 116.953151 154.95484 
L 115.291425 155.830223 
L 113.802076 155.547711 
L 112.278252 154.986225 
L 110.492413 155.014123 
L 109.602941 155.47447 
L 109.244394 156.042991 
L 108.98238 156.68833 
L 108.437664 157.379118 
L 107.844683 157.637317 
L 106.458761 157.892042 
L 105.86578 158.366635 
L 105.755458 159.001829 
L 106.045054 160.841591 
L 106.079529 161.546969 
L 105.85199 162.381689 
L 105.555499 162.940582 
L 104.824615 163.999169 
L 103.791184 165.991378 
L 103.597282 166.36527 
L 103.073252 166.728855 
L 102.342368 167.02254 
L 101.618379 167.417646 
L 101.094349 168.075065 
L 100.790963 169.617568 
L 100.928866 170.971613 
L 100.915076 172.361056 
L 100.170401 173.978512 
L 99.80496 174.206121 
L 98.818956 174.440745 
L 98.508675 174.811965 
L 98.474199 175.228747 
L 98.694843 175.978349 
L 98.715529 176.321664 
L 99.032705 177.579535 
L 98.936173 177.887923 
L 97.936379 180.092785 
L 97.653678 180.566142 
L 97.164124 180.832646 
L 95.505832 181.449857 
L 92.999465 182.382873 
L 91.337738 182.509159 
L 87.800536 182.098744 
L 86.586993 182.347795 
L 85.538932 182.821379 
L 83.325595 182.617907 
L 82.056891 183.06696 
L 81.167419 183.877468 
L 80.408955 184.951344 
L 79.850449 186.158869 
L 79.567749 187.377239 
L 78.464528 187.559846 
L 75.134179 187.640617 
L 74.327449 187.840794 
L 74.66531 188.371128 
L 75.665104 192.499938 
L 76.009861 192.907744 
L 77.595741 194.141922 
L 80.67097 198.14554 
L 80.93988 199.328274 
L 80.40206 200.687372 
L 79.243677 201.631223 
L 78.105981 201.529081 
L 76.926913 200.969099 
L 74.438427 200.216103 
L 74.355029 200.190869 
L 73.693097 200.109884 
L 73.134591 200.289461 
L 72.665722 200.800061 
L 72.831205 201.078273 
L 73.224228 201.367067 
L 73.444872 201.902439 
L 73.341445 202.25469 
L 72.920842 203.072013 
L 72.844995 203.283412 
L 73.010479 203.508915 
L 73.500033 203.991668 
L 73.61725 204.19606 
L 73.87237 204.791666 
L 74.230917 205.094784 
L 74.430876 205.454321 
L 74.230917 206.194629 
L 73.313864 207.079624 
L 72.072741 207.647376 
L 71.066052 208.416241 
L 70.866093 209.912002 
L 70.280007 209.629747 
L 69.700815 209.485098 
L 69.135415 209.485098 
L 68.597594 209.629747 
L 68.073564 210.08842 
L 67.997718 210.614183 
L 68.025299 211.11177 
L 67.790864 211.471759 
L 66.735909 211.68 
L 65.377568 211.182354 
L 63.474512 209.823796 
L 60.413073 208.553803 
L 57.758448 207.876612 
L 55.524425 207.284148 
L 54.442188 207.822849 
L 54.241306 207.88672 
L 54.176155 208.286625 
L 53.720099 208.286625 
L 53.35634 207.286924 
L 53.584368 206.154182 
L 54.632211 204.089285 
L 53.492071 203.714701 
L 53.160888 203.470544 
L 54.176155 201.722967 
L 55.397733 198.315648 
L 55.538894 197.492602 
L 55.104555 196.087933 
L 54.404183 195.697359 
L 53.367199 195.630882 
L 51.895875 195.20988 
L 51.798149 195.040936 
L 51.781861 194.76676 
L 51.705852 194.475985 
L 51.439819 194.240609 
L 50.527708 193.819731 
L 49.859911 193.62038 
L 48.719772 193.587156 
L 48.209423 193.313065 
L 48.209423 192.8895 
L 49.197544 191.917937 
L 49.849053 191.403172 
L 50.527708 191.029588 
L 49.37128 190.158005 
L 46.233181 185.432128 
L 45.8097 184.591976 
L 45.342786 183.870782 
L 44.794433 183.5641 
L 42.660743 183.51437 
L 41.602041 183.359657 
L 40.879953 183.058534 
L 41.412018 182.641414 
L 39.598653 181.669198 
L 39.316332 182.113851 
L 39.218606 182.312716 
L 39.142597 182.641414 
L 38.925427 182.030993 
L 38.605102 181.732717 
L 38.197909 181.525592 
L 37.730995 181.205256 
L 37.644127 180.934645 
L 37.166354 180.133948 
L 36.618001 179.465885 
L 36.373686 179.603907 
L 35.711319 179.073925 
L 31.313636 177.964471 
L 27.621755 176.24837 
L 25.482636 174.747987 
L 21.714745 173.755352 
L 19.510474 172.454217 
L 13.163696 166.933948 
L 12.41989 166.000778 
L 12.094136 165.436562 
L 11.192883 162.415737 
L 10.704251 161.585218 
L 8.369679 159.795435 
L 7.544435 158.935156 
L 7.430421 158.665836 
L 7.430421 158.58889 
L 7.055804 158.473474 
L 7.055804 158.011839 
L 8.831164 157.297495 
L 9.922441 157.22332 
L 10.964855 157.781039 
L 13.342861 160.026336 
L 13.972652 160.776843 
L 14.857618 162.377233 
L 15.221377 163.35919 
L 15.373396 164.283574 
L 15.997758 164.580737 
L 17.398501 164.324846 
L 18.799244 163.804852 
L 19.423607 163.339934 
L 19.868804 157.209584 
L 19.678781 156.209707 
L 17.968571 155.440719 
L 15.677433 153.647827 
L 13.84778 151.630631 
L 13.516596 150.182089 
L 13.972652 150.60179 
L 14.157246 151.103835 
L 14.330982 151.688252 
L 14.873906 151.564778 
L 15.373396 151.564778 
L 16.665554 152.70087 
L 17.496227 152.349584 
L 17.935996 151.087374 
L 18.066297 149.46896 
L 17.235624 148.17464 
L 15.471122 147.472789 
L 13.864068 147.82096 
L 13.516596 149.680144 
L 13.038823 148.640773 
L 8.407684 143.3735 
L 8.043925 142.781928 
L 8.375109 141.982332 
L 9.281791 141.319759 
L 10.35678 140.70108 
L 11.192883 140.022272 
L 11.790099 138.971415 
L 12.056131 137.846937 
L 12.126712 133.851961 
L 12.343881 132.764275 
L 12.941097 132.037475 
L 14.173534 131.764272 
L 14.873906 131.515671 
L 14.694741 130.94203 
L 14.20611 130.311109 
L 13.972652 129.893275 
L 14.265831 129.352605 
L 14.743604 128.80927 
L 15.183372 128.405224 
L 15.373396 128.28784 
L 14.84133 127.518089 
L 13.831492 126.516517 
L 13.169125 125.643394 
L 13.744624 125.272368 
L 14.754462 124.980479 
L 16.062909 123.540408 
L 17.154185 122.937788 
L 16.225786 123.728573 
L 16.784997 125.299648 
L 16.242074 126.642043 
L 16.242074 128.058538 
L 16.741563 128.058538 
L 16.947874 127.100513 
L 16.937016 127.307931 
L 17.034742 127.534465 
L 17.154185 128.058538 
L 18.033722 127.149637 
L 21.53558 125.856202 
L 22.659432 124.814084 
L 22.773446 123.164102 
L 22.073074 121.847279 
L 21.193538 120.637124 
L 20.791774 119.321041 
L 20.563746 121.040472 
L 19.738502 122.583344 
L 18.017434 124.590415 
L 17.990288 124.295843 
L 17.610241 123.897656 
L 18.326901 123.341344 
L 19.092423 122.395227 
L 19.575625 121.171296 
L 19.423607 119.778765 
L 19.092423 119.44909 
L 18.012005 119.105818 
L 17.610241 118.863364 
L 17.132468 118.114291 
L 17.175902 117.754781 
L 17.458223 117.441594 
L 18.18574 112.360149 
L 17.838269 111.288531 
L 17.458223 110.837115 
L 17.170473 110.309614 
L 17.219336 109.874609 
L 18.674372 109.377124 
L 18.9024 108.61877 
L 18.9024 107.716524 
L 19.010985 106.955737 
L 21.731032 103.636969 
L 22.203376 102.361181 
L 21.986207 101.009791 
L 21.291264 99.845973 
L 20.297714 99.02416 
L 19.222725 98.715002 
L 17.76226 98.715002 
L 16.535252 98.54145 
L 15.688291 97.950338 
L 15.373396 96.689745 
L 15.373396 93.93938 
L 15.145368 93.348886 
L 14.157246 92.658271 
L 13.972652 91.894658 
L 14.852189 92.769303 
L 16.3398 92.707016 
L 17.436506 91.783647 
L 17.154185 90.07552 
L 18.734093 89.409775 
L 20.379152 88.395114 
L 21.671311 87.015552 
L 22.203376 85.25251 
L 22.040499 84.152322 
L 21.573585 83.733404 
L 20.851496 83.568551 
L 19.923096 83.230756 
L 18.962121 82.539034 
L 17.892562 81.177527 
L 17.154185 80.472629 
L 22.968899 81.058686 
L 24.858273 80.626562 
L 25.444631 80.491532 
L 26.753077 78.204764 
L 27.209133 78.204764 
L 27.252567 78.933592 
L 27.502312 79.322349 
L 27.969226 79.387146 
L 28.631593 79.152264 
L 28.099528 77.370812 
L 27.773774 76.909373 
L 27.209133 77.338429 
L 26.905096 76.80414 
L 24.939712 75.487587 
L 26.30788 73.691462 
L 26.188436 71.618484 
L 25.840965 69.403734 
L 25.851824 68.210612 
L 27.067973 68.523 
L 27.697764 67.661294 
L 27.752057 66.269464 
L 27.209133 65.009936 
L 26.780223 65.026082 
L 18.793815 62.586115 
L 17.838269 62.118187 
L 16.62212 61.717531 
L 12.094136 62.790513 
L 12.036831 62.097603 
L 12.085097 60.369894 
L 11.554172 59.666718 
L 10.93361 59.223026 
L 10.775022 58.960245 
L 10.816393 58.687243 
L 10.781917 58.243652 
L 10.864659 57.914401 
L 11.119779 57.571529 
L 11.278367 57.100765 
L 10.850868 55.579664 
L 11.195625 55.340975 
L 11.74034 55.286419 
L 12.140258 55.040928 
L 12.49191 53.929575 
L 12.002355 53.472845 
L 11.98167 53.46262 
L 11.368003 52.469234 
L 11.126674 51.208666 
L 11.20252 49.9042 
L 11.526591 48.772058 
L 12.74703 46.804722 
L 12.588442 46.17353 
L 12.422081 46.025139 
L 11.423164 45.134225 
L 7.603262 43.052979 
L 6.555201 42.204792 
L 6.548392 42.193995 
L 5.886374 41.144372 
L 6.079437 40.447766 
L 8.05834 38.881674 
L 14.450127 31.605807 
L 14.512183 31.266755 
L 14.470812 30.368401 
L 14.60182 29.892182 
L 15.229277 28.817922 
L 15.574033 28.443521 
L 18.987124 25.559556 
L 19.876595 24.48641 
L 21.193566 23.855177 
L 22.282996 22.944882 
L 23.206944 21.848731 
L 24.013674 20.629433 
L 24.013674 20.619288 
L 24.386011 19.635319 
L 25.185847 19.134971 
L 26.14427 18.736088 
L 26.971686 18.048274 
L 27.344023 17.265961 
L 27.71636 15.551471 
L 28.102487 14.649749 
L 29.219499 13.332981 
L 30.963967 11.84115 
L 31.638469 11.398801 
L 32.839443 10.611302 
L 34.390847 10.08 
L 35.914671 10.650098 
L 36.942046 12.065565 
L 37.507447 13.731343 
L 37.565882 14.382745 
L 37.624664 15.038107 
L 37.507447 14.970564 
L 37.197166 15.331933 
L 36.700716 16.103747 
L 36.583499 16.564877 
L 36.459387 17.553186 
L 36.500757 17.99589 
L 36.728297 18.602572 
L 37.879784 20.629433 
L 40.072436 21.862262 
L 41.203237 22.283435 
L 42.41678 22.391695 
L 43.048354 22.244803 
L 43.478631 22.144731 
L 46.002249 21.058937 
L 46.615915 20.629433 
L 46.629706 20.615906 
L 48.284537 19.779011 
L 51.539039 19.850014 
L 53.235242 19.493322 
L 55.634747 17.173039 
L 57.068935 16.419607 
L 58.785822 17.13925 
L 60.164849 18.234158 
L 63.495197 19.567701 
L 64.619104 20.609142 
L 64.632894 20.609142 
L 64.632894 20.615906 
L 64.639789 20.629433 
L 66.515265 23.922865 
L 66.880707 24.293476 
L 67.777074 24.924775 
L 68.10804 25.429206 
L 68.087355 25.970945 
L 67.397842 26.739658 
L 67.3151 27.159631 
L 67.625381 27.569484 
L 68.666546 28.219913 
L 69.052673 28.618011 
L 69.211261 29.124583 
L 69.094044 30.010808 
L 69.190576 30.476871 
L 69.769767 31.551557 
L 70.314482 31.997446 
L 71.107422 32.083917 
L 75.665104 32.004228 
L 76.692479 32.131392 
L 84.939056 36.555692 
L 86.052619 37.434338 
L 86.586993 37.856046 
L 87.862592 39.136422 
L 90.38621 43.154977 
L 91.103304 44.908027 
L 91.275682 46.071459 
L 91.289472 48.179719 
L 91.696285 49.410447 
L 93.792405 53.46262 
L 94.102686 54.7767 
L 94.433652 55.644453 
L 94.433652 56.481686 
L 93.730349 57.689228 
L 93.185633 58.207826 
L 92.702974 58.475679 
L 92.296161 58.839098 
L 91.978985 59.636 
L 91.992776 60.115577 
L 92.330637 60.929787 
z
" clip-path="url(#p53bcb86f52)" style="stroke: #000000; stroke-linejoin: miter"/>
   </g>
   <g id="line2d_1">
    <path d="M 92.289266 61.414631 
L 90.593064 62.181274 
L 90.510322 63.644936 
L 91.041247 65.314154 
L 91.206731 66.681448 
L 90.772337 67.260969 
L 89.220933 68.392885 
L 88.565895 69.035919 
L 88.028075 69.916825 
L 87.835011 70.614836 
L 88.365936 75.408148 
L 88.703798 76.82319 
L 90.1173 79.899841 
L 90.124195 80.481136 
L 89.765648 81.170559 
L 89.200247 81.602791 
L 88.30388 82.007618 
L 87.338562 82.312979 
L 84.08406 82.844838 
L 84.332284 83.788618 
L 84.139221 85.580647 
L 84.60809 86.569668 
L 85.352764 86.823827 
L 85.863004 87.222269 
L 86.711105 88.438428 
L 86.931749 88.950416 
L 87.200659 90.397361 
L 87.676423 90.699871 
L 88.786539 90.833944 
L 89.289884 91.084914 
L 90.082824 91.930751 
L 90.489637 92.749236 
L 90.475847 93.650435 
L 90.006978 94.761708 
L 89.372626 95.670203 
L 88.503839 96.496269 
L 87.545416 96.936901 
L 86.586993 96.709695 
L 86.324977 98.148867 
L 86.683524 100.156918 
L 87.814326 103.755093 
L 88.655532 105.44835 
L 91.123989 108.087809 
L 92.178944 109.637712 
L 92.516806 111.146711 
L 92.475435 112.331479 
L 92.944304 113.240129 
L 94.83357 113.910507 
L 97.350293 114.038374 
L 98.074281 114.460015 
L 98.756899 115.538492 
L 100.046289 119.91037 
L 101.335679 123.763508 
L 102.300997 125.311925 
L 103.879982 126.334103 
L 105.562394 126.618275 
L 106.734567 126.26133 
L 108.954799 124.840762 
L 110.320035 124.584414 
L 113.843447 124.972405 
L 117.160005 125.724233 
L 118.277017 126.548963 
L 118.821732 127.810606 
L 118.96653 132.773949 
L 118.559717 134.200487 
L 117.40823 135.242039 
L 118.063268 135.651781 
L 118.311492 136.158802 
L 118.4425 136.700613 
L 118.732095 137.204278 
L 120.635152 138.587037 
L 122.4072 140.241341 
L 123.089818 141.186928 
L 123.524212 142.362232 
L 123.613848 143.683942 
L 123.379414 144.919043 
L 122.669215 147.261433 
L 122.420991 149.124367 
L 122.069339 149.803569 
L 121.61426 150.186753 
L 120.386927 150.841723 
L 119.931848 151.531633 
L 119.069957 151.712838 
L 118.359758 152.092697 
L 117.959841 152.69217 
L 118.008107 153.528775 
L 117.594399 154.253956 
L 116.953151 154.95484 
L 115.291425 155.830223 
L 113.802076 155.547711 
L 112.278252 154.986225 
L 110.492413 155.014123 
L 109.602941 155.47447 
L 109.244394 156.042991 
L 108.98238 156.68833 
L 108.437664 157.379118 
L 107.844683 157.637317 
L 106.458761 157.892042 
L 105.86578 158.366635 
L 105.755458 159.001829 
L 106.079529 161.546969 
L 105.85199 162.381689 
L 105.555499 162.940582 
L 104.824615 163.999169 
L 103.597282 166.36527 
L 103.073252 166.728855 
L 101.618379 167.417646 
L 101.094349 168.075065 
L 100.790963 169.617568 
L 100.928866 170.971613 
L 100.915076 172.361056 
L 100.170401 173.978512 
L 99.80496 174.206121 
L 98.818956 174.440745 
L 98.508675 174.811965 
L 98.474199 175.228747 
L 98.715529 176.321664 
L 99.032705 177.579535 
L 98.936173 177.887923 
L 97.653678 180.566142 
L 97.164124 180.832646 
L 92.999465 182.382873 
L 91.337738 182.509159 
L 87.800536 182.098744 
L 86.586993 182.347795 
L 85.538932 182.821379 
L 83.325595 182.617907 
L 82.056891 183.06696 
L 81.167419 183.877468 
L 80.408955 184.951344 
L 79.850449 186.158869 
L 79.567749 187.377239 
L 78.464528 187.559846 
L 75.134179 187.640617 
L 74.327449 187.840794 
L 74.66531 188.371128 
L 75.665104 192.499938 
L 76.009861 192.907744 
L 77.595741 194.141922 
L 80.67097 198.14554 
L 80.93988 199.328274 
L 80.40206 200.687372 
L 79.243677 201.631223 
L 78.105981 201.529081 
L 76.926913 200.969099 
L 74.355029 200.190869 
L 73.693097 200.109884 
L 73.134591 200.289461 
L 72.665722 200.800061 
L 72.831205 201.078273 
L 73.224228 201.367067 
L 73.444872 201.902439 
L 73.341445 202.25469 
L 72.844995 203.283412 
L 74.430876 205.454321 
L 74.230917 206.194629 
L 73.313864 207.079624 
L 72.072741 207.647376 
L 71.066052 208.416241 
L 70.866093 209.912002 
L 70.280007 209.629747 
L 69.700815 209.485098 
L 69.135415 209.485098 
L 68.597594 209.629747 
L 68.073564 210.08842 
L 67.790864 211.471759 
L 66.735909 211.68 
L 65.377568 211.182354 
L 63.474512 209.823796 
L 60.413073 208.553803 
L 55.524425 207.284148 
L 54.241306 207.88672 
L 54.176155 208.286625 
L 53.720099 208.286625 
L 53.35634 207.286924 
L 53.584368 206.154182 
L 54.632211 204.089285 
L 53.492071 203.714701 
L 53.160888 203.470544 
L 54.176155 201.722967 
L 55.397733 198.315648 
L 55.538894 197.492602 
L 55.104555 196.087933 
L 54.404183 195.697359 
L 53.367199 195.630882 
L 51.895875 195.20988 
L 51.798149 195.040936 
L 51.705852 194.475985 
L 51.439819 194.240609 
L 49.859911 193.62038 
L 48.719772 193.587156 
L 48.209423 193.313065 
L 48.209423 192.8895 
L 49.849053 191.403172 
L 50.527708 191.029588 
L 49.37128 190.158005 
L 46.233181 185.432128 
L 45.342786 183.870782 
L 44.794433 183.5641 
L 42.660743 183.51437 
L 41.602041 183.359657 
L 40.879953 183.058534 
L 41.412018 182.641414 
L 39.598653 181.669198 
L 39.218606 182.312716 
L 39.142597 182.641414 
L 38.925427 182.030993 
L 38.605102 181.732717 
L 37.730995 181.205256 
L 37.644127 180.934645 
L 37.166354 180.133948 
L 36.618001 179.465885 
L 36.373686 179.603907 
L 35.711319 179.073925 
L 31.313636 177.964471 
L 27.621755 176.24837 
L 25.482636 174.747987 
L 21.714745 173.755352 
L 19.510474 172.454217 
L 13.163696 166.933948 
L 12.094136 165.436562 
L 11.192883 162.415737 
L 10.704251 161.585218 
L 8.369679 159.795435 
L 7.430421 158.665836 
L 7.430421 158.58889 
L 7.055804 158.473474 
L 7.055804 158.011839 
L 8.831164 157.297495 
L 9.922441 157.22332 
L 10.964855 157.781039 
L 13.342861 160.026336 
L 13.972652 160.776843 
L 14.857618 162.377233 
L 15.221377 163.35919 
L 15.373396 164.283574 
L 15.997758 164.580737 
L 17.398501 164.324846 
L 18.799244 163.804852 
L 19.423607 163.339934 
L 19.868804 157.209584 
L 19.678781 156.209707 
L 17.968571 155.440719 
L 15.677433 153.647827 
L 13.84778 151.630631 
L 13.516596 150.182089 
L 13.972652 150.60179 
L 14.330982 151.688252 
L 15.373396 151.564778 
L 16.665554 152.70087 
L 17.496227 152.349584 
L 17.935996 151.087374 
L 18.066297 149.46896 
L 17.235624 148.17464 
L 15.471122 147.472789 
L 13.864068 147.82096 
L 13.516596 149.680144 
L 13.038823 148.640773 
L 8.407684 143.3735 
L 8.043925 142.781928 
L 8.375109 141.982332 
L 9.281791 141.319759 
L 10.35678 140.70108 
L 11.192883 140.022272 
L 11.790099 138.971415 
L 12.056131 137.846937 
L 12.126712 133.851961 
L 12.343881 132.764275 
L 12.941097 132.037475 
L 14.873906 131.515671 
L 14.694741 130.94203 
L 13.972652 129.893275 
L 14.265831 129.352605 
L 15.183372 128.405224 
L 15.373396 128.28784 
L 14.84133 127.518089 
L 13.831492 126.516517 
L 13.169125 125.643394 
L 13.744624 125.272368 
L 14.754462 124.980479 
L 16.062909 123.540408 
L 17.154185 122.937788 
L 16.225786 123.728573 
L 16.784997 125.299648 
L 16.242074 126.642043 
L 16.242074 128.058538 
L 16.741563 128.058538 
L 16.947874 127.100513 
L 16.937016 127.307931 
L 17.154185 128.058538 
L 18.033722 127.149637 
L 21.53558 125.856202 
L 22.659432 124.814084 
L 22.773446 123.164102 
L 22.073074 121.847279 
L 21.193538 120.637124 
L 20.791774 119.321041 
L 20.563746 121.040472 
L 19.738502 122.583344 
L 18.017434 124.590415 
L 17.990288 124.295843 
L 17.610241 123.897656 
L 18.326901 123.341344 
L 19.092423 122.395227 
L 19.575625 121.171296 
L 19.423607 119.778765 
L 19.092423 119.44909 
L 17.610241 118.863364 
L 17.132468 118.114291 
L 17.175902 117.754781 
L 17.458223 117.441594 
L 18.18574 112.360149 
L 17.838269 111.288531 
L 17.458223 110.837115 
L 17.170473 110.309614 
L 17.219336 109.874609 
L 18.674372 109.377124 
L 18.9024 108.61877 
L 19.010985 106.955737 
L 21.731032 103.636969 
L 22.203376 102.361181 
L 21.986207 101.009791 
L 21.291264 99.845973 
L 20.297714 99.02416 
L 19.222725 98.715002 
L 17.76226 98.715002 
L 16.535252 98.54145 
L 15.688291 97.950338 
L 15.373396 96.689745 
L 15.373396 93.93938 
L 15.145368 93.348886 
L 14.157246 92.658271 
L 13.972652 91.894658 
L 14.852189 92.769303 
L 16.3398 92.707016 
L 17.436506 91.783647 
L 17.154185 90.07552 
L 18.734093 89.409775 
L 20.379152 88.395114 
L 21.671311 87.015552 
L 22.203376 85.25251 
L 22.040499 84.152322 
L 21.573585 83.733404 
L 20.851496 83.568551 
L 19.923096 83.230756 
L 18.962121 82.539034 
L 17.892562 81.177527 
L 17.154185 80.472629 
L 22.968899 81.058686 
L 25.444631 80.491532 
L 26.753077 78.204764 
L 27.209133 78.204764 
L 27.252567 78.933592 
L 27.502312 79.322349 
L 27.969226 79.387146 
L 28.631593 79.152264 
L 28.099528 77.370812 
L 27.773774 76.909373 
L 27.209133 77.338429 
L 26.905096 76.80414 
L 24.939712 75.487587 
L 26.30788 73.691462 
L 26.188436 71.618484 
L 25.840965 69.403734 
L 25.851824 68.210612 
L 27.067973 68.523 
L 27.697764 67.661294 
L 27.752057 66.269464 
L 27.209133 65.009936 
L 26.780223 65.026082 
L 18.793815 62.586115 
L 17.838269 62.118187 
L 16.62212 61.717531 
L 12.094136 62.790513 
L 12.036831 62.097603 
L 12.085097 60.369894 
L 11.554172 59.666718 
L 10.93361 59.223026 
L 10.775022 58.960245 
L 10.864659 57.914401 
L 11.119779 57.571529 
L 11.278367 57.100765 
L 10.850868 55.579664 
L 11.195625 55.340975 
L 11.74034 55.286419 
L 12.140258 55.040928 
L 12.49191 53.929575 
L 11.98167 53.46262 
L 11.368003 52.469234 
L 11.126674 51.208666 
L 11.20252 49.9042 
L 11.526591 48.772058 
L 12.74703 46.804722 
L 12.588442 46.17353 
L 11.423164 45.134225 
L 7.603262 43.052979 
L 6.548392 42.193995 
L 5.886374 41.144372 
L 6.079437 40.447766 
L 8.05834 38.881674 
L 14.450127 31.605807 
L 14.512183 31.266755 
L 14.470812 30.368401 
L 14.60182 29.892182 
L 15.574033 28.443521 
L 18.987124 25.559556 
L 19.876595 24.48641 
L 21.193566 23.855177 
L 22.282996 22.944882 
L 23.206944 21.848731 
L 24.013674 20.619288 
L 24.386011 19.635319 
L 25.185847 19.134971 
L 26.14427 18.736088 
L 26.971686 18.048274 
L 27.344023 17.265961 
L 27.71636 15.551471 
L 28.102487 14.649749 
L 29.219499 13.332981 
L 31.638469 11.398801 
L 32.839443 10.611302 
L 34.390847 10.08 
L 35.914671 10.650098 
L 36.942046 12.065565 
L 37.507447 13.731343 
L 37.624664 15.038107 
L 37.507447 14.970564 
L 37.197166 15.331933 
L 36.700716 16.103747 
L 36.583499 16.564877 
L 36.500757 17.99589 
L 36.728297 18.602572 
L 37.879784 20.629433 
L 40.072436 21.862262 
L 41.203237 22.283435 
L 42.41678 22.391695 
L 43.478631 22.144731 
L 46.002249 21.058937 
L 46.629706 20.615906 
L 48.284537 19.779011 
L 51.539039 19.850014 
L 53.235242 19.493322 
L 55.634747 17.173039 
L 57.068935 16.419607 
L 58.785822 17.13925 
L 60.164849 18.234158 
L 63.495197 19.567701 
L 64.639789 20.629433 
L 66.515265 23.922865 
L 66.880707 24.293476 
L 67.777074 24.924775 
L 68.10804 25.429206 
L 68.087355 25.970945 
L 67.397842 26.739658 
L 67.3151 27.159631 
L 67.625381 27.569484 
L 68.666546 28.219913 
L 69.052673 28.618011 
L 69.211261 29.124583 
L 69.094044 30.010808 
L 69.190576 30.476871 
L 69.769767 31.551557 
L 70.314482 31.997446 
L 71.107422 32.083917 
L 75.665104 32.004228 
L 76.692479 32.131392 
L 84.939056 36.555692 
L 86.586993 37.856046 
L 87.862592 39.136422 
L 90.38621 43.154977 
L 91.103304 44.908027 
L 91.275682 46.071459 
L 91.289472 48.179719 
L 91.696285 49.410447 
L 93.792405 53.46262 
L 94.102686 54.7767 
L 94.433652 55.644453 
L 94.433652 56.481686 
L 93.730349 57.689228 
L 93.185633 58.207826 
L 92.702974 58.475679 
L 92.296161 58.839098 
L 91.978985 59.636 
L 91.992776 60.115577 
L 92.330637 60.929787 
L 92.289266 61.414631 
L 92.289266 61.414631 
" clip-path="url(#p53bcb86f52)" style="fill: none; stroke: #000000; stroke-width: 0.5; stroke-linecap: square"/>
   </g>
  </g>
 </g>
 <defs>
  <clipPath id="p53bcb86f52">
   <rect x="0" y="-0" width="129.500222" height="221.76"/>
  </clipPath>
 </defs>
</svg>
