<?xml version="1.0" encoding="utf-8" standalone="no"?>
<!DOCTYPE svg PUBLIC "-//W3C//DTD SVG 1.1//EN"
  "http://www.w3.org/Graphics/SVG/1.1/DTD/svg11.dtd">
<svg xmlns:xlink="http://www.w3.org/1999/xlink" width="223.2pt" height="134.626018pt" viewBox="0 0 223.2 134.626018" xmlns="http://www.w3.org/2000/svg" version="1.1">
 <metadata>
  <rdf:RDF xmlns:dc="http://purl.org/dc/elements/1.1/" xmlns:cc="http://creativecommons.org/ns#" xmlns:rdf="http://www.w3.org/1999/02/22-rdf-syntax-ns#">
   <cc:Work>
    <dc:type rdf:resource="http://purl.org/dc/dcmitype/StillImage"/>
    <dc:date>2026-04-26T19:22:07.046222</dc:date>
    <dc:format>image/svg+xml</dc:format>
    <dc:creator>
     <cc:Agent>
      <dc:title>Matplotlib v3.10.9, https://matplotlib.org/</dc:title>
     </cc:Agent>
    </dc:creator>
   </cc:Work>
  </rdf:RDF>
 </metadata>
 <defs>
  <style type="text/css">*{stroke-linejoin: round; stroke-linecap: butt}</style>
 </defs>
 <g id="figure_1">
  <g id="patch_1">
   <path d="M 0 134.626018 
L 223.2 134.626018 
L 223.2 0 
L 0 0 
z
" style="fill: #ffffff"/>
  </g>
  <g id="axes_1">
   <g id="patch_2">
    <path d="M 180.191459 87.362452 
L 174.811737 91.979457 
L 168.49641 94.116102 
L 161.654807 94.173465 
L 154.930154 92.395305 
L 153.468273 90.67459 
L 151.889442 90.215747 
L 150.19366 90.832319 
L 148.147026 92.56738 
L 142.007126 107.541215 
L 123.879801 113.093477 
L 88.209903 116.465431 
L 85.05224 119.077124 
L 82.59628 122.263076 
L 79.02929 125.42061 
L 72.480063 128.047318 
L 67.860519 128.506654 
L 33.594027 125.190961 
L 27.103275 121.689009 
L 27.103275 114.729193 
L 10.788682 96.252878 
L 20.378622 93.083614 
L 23.59476 92.481342 
L 34.763532 86.64558 
L 32.833849 77.872248 
L 22.893058 71.451327 
L 10.145455 72.683824 
L 12.016662 66.378483 
L 21.372702 54.630638 
L 21.431176 52.49639 
L 16.694682 50.176081 
L 17.396385 44.948785 
L 20.554048 39.349998 
L 23.068483 36.014061 
L 35.582185 32.320562 
L 44.294996 10.49679 
L 62.18842 11.169188 
L 78.795389 6.577108 
L 87.449725 6.119364 
L 118.149228 21.313955 
L 124.347603 23.417682 
L 188.670369 27.997659 
L 183.758449 39.249772 
L 192.880586 43.430867 
L 206.037516 46.380843 
L 210.800676 51.387521 
L 213.054545 53.75687 
L 198.845061 54.716583 
L 188.494944 61.994071 
L 182.238093 73.515067 
z
" clip-path="url(#pecf2e44da2)" style="stroke: #000000; stroke-linejoin: miter"/>
   </g>
   <g id="line2d_1">
    <path d="M 180.191459 87.362452 
L 174.811737 91.979457 
L 168.49641 94.116102 
L 161.654807 94.173465 
L 154.930154 92.395305 
L 153.468273 90.67459 
L 151.889442 90.215747 
L 150.19366 90.832319 
L 148.147026 92.56738 
L 142.007126 107.541215 
L 123.879801 113.093477 
L 88.209903 116.465431 
L 85.05224 119.077124 
L 82.59628 122.263076 
L 79.02929 125.42061 
L 72.480063 128.047318 
L 67.860519 128.506654 
L 33.594027 125.190961 
L 27.103275 121.689009 
L 27.103275 114.729193 
L 10.788682 96.252878 
L 20.378622 93.083614 
L 23.59476 92.481342 
L 34.763532 86.64558 
L 32.833849 77.872248 
L 22.893058 71.451327 
L 10.145455 72.683824 
L 12.016662 66.378483 
L 21.372702 54.630638 
L 21.431176 52.49639 
L 16.694682 50.176081 
L 17.396385 44.948785 
L 20.554048 39.349998 
L 23.068483 36.014061 
L 35.582185 32.320562 
L 44.294996 10.49679 
L 62.18842 11.169188 
L 78.795389 6.577108 
L 87.449725 6.119364 
L 118.149228 21.313955 
L 124.347603 23.417682 
L 188.670369 27.997659 
L 183.758449 39.249772 
L 192.880586 43.430867 
L 206.037516 46.380843 
L 210.800676 51.387521 
L 213.054545 53.75687 
L 198.845061 54.716583 
L 188.494944 61.994071 
L 182.238093 73.515067 
L 180.191459 87.362452 
" clip-path="url(#pecf2e44da2)" style="fill: none; stroke: #000000; stroke-width: 0.5; stroke-linecap: square"/>
   </g>
  </g>
 </g>
 <defs>
  <clipPath id="pecf2e44da2">
   <rect x="0" y="-0" width="223.2" height="134.626018"/>
  </clipPath>
 </defs>
</svg>
