<?xml version="1.0" encoding="utf-8" standalone="no"?>
<!DOCTYPE svg PUBLIC "-//W3C//DTD SVG 1.1//EN"
  "http://www.w3.org/Graphics/SVG/1.1/DTD/svg11.dtd">
<svg xmlns:xlink="http://www.w3.org/1999/xlink" width="223.2pt" height="154.353414pt" viewBox="0 0 223.2 154.353414" xmlns="http://www.w3.org/2000/svg" version="1.1">
 <metadata>
  <rdf:RDF xmlns:dc="http://purl.org/dc/elements/1.1/" xmlns:cc="http://creativecommons.org/ns#" xmlns:rdf="http://www.w3.org/1999/02/22-rdf-syntax-ns#">
   <cc:Work>
    <dc:type rdf:resource="http://purl.org/dc/dcmitype/StillImage"/>
    <dc:date>2026-04-26T19:22:20.113926</dc:date>
    <dc:format>image/svg+xml</dc:format>
    <dc:creator>
     <cc:Agent>
      <dc:title>Matplotlib v3.10.9, https://matplotlib.org/</dc:title>
     </cc:Agent>
    </dc:creator>
   </cc:Work>
  </rdf:RDF>
 </metadata>
 <defs>
  <style type="text/css">*{stroke-linejoin: round; stroke-linecap: butt}</style>
 </defs>
 <g id="figure_1">
  <g id="patch_1">
   <path d="M 0 154.353414 
L 223.2 154.353414 
L 223.2 0 
L 0 0 
z
" style="fill: #ffffff"/>
  </g>
  <g id="axes_1">
   <g id="patch_2">
    <path d="M 176.931059 11.482913 
L 201.253079 7.016064 
L 213.054545 7.760533 
L 212.80075 16.375277 
L 191.989562 58.70915 
L 184.037318 71.155496 
L 172.616544 80.198131 
L 145.460481 89.985848 
L 81.165751 138.07929 
L 78.20481 132.545912 
L 71.183149 126.480629 
L 66.276445 120.202695 
L 42.377418 141.697339 
L 28.164899 147.337349 
L 10.145455 147.018101 
L 36.920826 109.349716 
L 44.957667 101.582697 
L 56.97063 96.369364 
L 83.534505 90.624192 
L 95.37827 83.762089 
L 114.159099 59.241032 
L 127.356439 35.892575 
L 144.910592 18.396066 
z
" clip-path="url(#pf027545a87)" style="stroke: #000000; stroke-linejoin: miter"/>
   </g>
   <g id="line2d_1">
    <path d="M 176.931059 11.482913 
L 201.253079 7.016064 
L 213.054545 7.760533 
L 212.80075 16.375277 
L 191.989562 58.70915 
L 184.037318 71.155496 
L 172.616544 80.198131 
L 145.460481 89.985848 
L 81.165751 138.07929 
L 78.20481 132.545912 
L 71.183149 126.480629 
L 66.276445 120.202695 
L 42.377418 141.697339 
L 28.164899 147.337349 
L 10.145455 147.018101 
L 36.920826 109.349716 
L 44.957667 101.582697 
L 56.97063 96.369364 
L 83.534505 90.624192 
L 95.37827 83.762089 
L 114.159099 59.241032 
L 127.356439 35.892575 
L 144.910592 18.396066 
L 176.931059 11.482913 
" clip-path="url(#pf027545a87)" style="fill: none; stroke: #000000; stroke-width: 0.5; stroke-linecap: square"/>
   </g>
  </g>
 </g>
 <defs>
  <clipPath id="pf027545a87">
   <rect x="0" y="0" width="223.2" height="154.353414"/>
  </clipPath>
 </defs>
</svg>
