<?xml version="1.0" encoding="utf-8" standalone="no"?>
<!DOCTYPE svg PUBLIC "-//W3C//DTD SVG 1.1//EN"
  "http://www.w3.org/Graphics/SVG/1.1/DTD/svg11.dtd">
<svg xmlns:xlink="http://www.w3.org/1999/xlink" width="221.176237pt" height="221.76pt" viewBox="0 0 221.176237 221.76" xmlns="http://www.w3.org/2000/svg" version="1.1">
 <metadata>
  <rdf:RDF xmlns:dc="http://purl.org/dc/elements/1.1/" xmlns:cc="http://creativecommons.org/ns#" xmlns:rdf="http://www.w3.org/1999/02/22-rdf-syntax-ns#">
   <cc:Work>
    <dc:type rdf:resource="http://purl.org/dc/dcmitype/StillImage"/>
    <dc:date>2026-04-26T19:22:19.455528</dc:date>
    <dc:format>image/svg+xml</dc:format>
    <dc:creator>
     <cc:Agent>
      <dc:title>Matplotlib v3.10.9, https://matplotlib.org/</dc:title>
     </cc:Agent>
    </dc:creator>
   </cc:Work>
  </rdf:RDF>
 </metadata>
 <defs>
  <style type="text/css">*{stroke-linejoin: round; stroke-linecap: butt}</style>
 </defs>
 <g id="figure_1">
  <g id="patch_1">
   <path d="M 0 221.76 
L 221.176237 221.76 
L 221.176237 0 
L 0 0 
z
" style="fill: #ffffff"/>
  </g>
  <g id="axes_1">
   <g id="patch_2">
    <path d="M 19.406366 144.535144 
L 23.306417 131.693618 
L 20.128598 120.726374 
L 20.453602 111.084802 
L 34.862124 102.037655 
L 28.506485 99.022023 
L 10.053465 86.685792 
L 19.839705 75.492417 
L 35.584355 67.269088 
L 56.023513 59.86836 
L 48.837308 45.021993 
L 50.317883 31.72966 
L 58.406877 20.082418 
L 71.190379 10.08 
L 99.501862 14.373218 
L 110.768676 34.333247 
L 117.557654 57.492872 
L 132.291181 71.380713 
L 133.157859 61.421577 
L 135.541224 54.84332 
L 143.919111 40.682481 
L 148.974734 50.275205 
L 155.872046 55.848319 
L 164.538826 57.675601 
L 174.722294 56.031046 
L 170.388903 61.969774 
L 167.897204 66.172667 
L 164.141599 69.187836 
L 156.052604 71.380713 
L 160.097102 87.462497 
L 169.197221 95.046938 
L 180.897375 94.635726 
L 192.922532 86.685792 
L 199.530952 86.685792 
L 204.081013 92.214163 
L 207.114385 97.788368 
L 211.122772 110.399399 
L 205.092136 109.851078 
L 192.886421 110.947722 
L 186.855786 110.399399 
L 195.089228 122.919778 
L 202.708772 128.906058 
L 207.042162 134.938202 
L 205.056025 148.05413 
L 195.053116 167.523845 
L 185.014096 168.346548 
L 173.530611 161.216562 
L 159.085977 156.371962 
L 152.188665 160.43959 
L 151.86366 170.63185 
L 156.052604 198.285925 
L 149.408073 211.68 
L 134.855104 203.17718 
L 120.446581 187.26958 
L 114.163165 178.767723 
L 108.168642 180.596051 
L 90.004514 191.383501 
L 77.762687 194.034738 
L 59.273556 194.171872 
L 47.717848 191.017817 
L 19.370254 170.083376 
L 13.411843 159.845438 
z
" clip-path="url(#p325203126d)" style="stroke: #000000; stroke-linejoin: miter"/>
   </g>
   <g id="line2d_1">
    <path d="M 19.406366 144.535144 
L 23.306417 131.693618 
L 20.128598 120.726374 
L 20.453602 111.084802 
L 34.862124 102.037655 
L 28.506485 99.022023 
L 10.053465 86.685792 
L 19.839705 75.492417 
L 35.584355 67.269088 
L 56.023513 59.86836 
L 48.837308 45.021993 
L 50.317883 31.72966 
L 58.406877 20.082418 
L 71.190379 10.08 
L 99.501862 14.373218 
L 110.768676 34.333247 
L 117.557654 57.492872 
L 132.291181 71.380713 
L 133.157859 61.421577 
L 135.541224 54.84332 
L 143.919111 40.682481 
L 148.974734 50.275205 
L 155.872046 55.848319 
L 164.538826 57.675601 
L 174.722294 56.031046 
L 170.388903 61.969774 
L 167.897204 66.172667 
L 164.141599 69.187836 
L 156.052604 71.380713 
L 160.097102 87.462497 
L 169.197221 95.046938 
L 180.897375 94.635726 
L 192.922532 86.685792 
L 199.530952 86.685792 
L 204.081013 92.214163 
L 207.114385 97.788368 
L 211.122772 110.399399 
L 205.092136 109.851078 
L 192.886421 110.947722 
L 186.855786 110.399399 
L 195.089228 122.919778 
L 202.708772 128.906058 
L 207.042162 134.938202 
L 205.056025 148.05413 
L 195.053116 167.523845 
L 185.014096 168.346548 
L 173.530611 161.216562 
L 159.085977 156.371962 
L 152.188665 160.43959 
L 151.86366 170.63185 
L 156.052604 198.285925 
L 149.408073 211.68 
L 134.855104 203.17718 
L 120.446581 187.26958 
L 114.163165 178.767723 
L 108.168642 180.596051 
L 90.004514 191.383501 
L 77.762687 194.034738 
L 59.273556 194.171872 
L 47.717848 191.017817 
L 19.370254 170.083376 
L 13.411843 159.845438 
L 19.406366 144.535144 
" clip-path="url(#p325203126d)" style="fill: none; stroke: #000000; stroke-width: 0.5; stroke-linecap: square"/>
   </g>
  </g>
 </g>
 <defs>
  <clipPath id="p325203126d">
   <rect x="0" y="-0" width="221.176237" height="221.76"/>
  </clipPath>
 </defs>
</svg>
