<?xml version="1.0" encoding="utf-8" standalone="no"?>
<!DOCTYPE svg PUBLIC "-//W3C//DTD SVG 1.1//EN"
  "http://www.w3.org/Graphics/SVG/1.1/DTD/svg11.dtd">
<svg xmlns:xlink="http://www.w3.org/1999/xlink" width="223.2pt" height="174.430597pt" viewBox="0 0 223.2 174.430597" xmlns="http://www.w3.org/2000/svg" version="1.1">
 <metadata>
  <rdf:RDF xmlns:dc="http://purl.org/dc/elements/1.1/" xmlns:cc="http://creativecommons.org/ns#" xmlns:rdf="http://www.w3.org/1999/02/22-rdf-syntax-ns#">
   <cc:Work>
    <dc:type rdf:resource="http://purl.org/dc/dcmitype/StillImage"/>
    <dc:date>2026-04-26T19:22:26.669946</dc:date>
    <dc:format>image/svg+xml</dc:format>
    <dc:creator>
     <cc:Agent>
      <dc:title>Matplotlib v3.10.9, https://matplotlib.org/</dc:title>
     </cc:Agent>
    </dc:creator>
   </cc:Work>
  </rdf:RDF>
 </metadata>
 <defs>
  <style type="text/css">*{stroke-linejoin: round; stroke-linecap: butt}</style>
 </defs>
 <g id="figure_1">
  <g id="patch_1">
   <path d="M 0 174.430597 
L 223.2 174.430597 
L 223.2 0 
L 0 0 
z
" style="fill: #ffffff"/>
  </g>
  <g id="axes_1">
   <g id="patch_2">
    <path d="M 16.059827 7.928664 
L 195.538864 8.171592 
L 199.178488 16.684631 
L 192.809157 22.046193 
L 186.212305 30.348235 
L 213.054545 30.348235 
L 211.689713 38.669557 
L 205.547819 41.120688 
L 204.182986 47.992576 
L 196.448781 55.369688 
L 197.131218 66.216253 
L 193.036636 74.124529 
L 188.942054 75.361673 
L 191.444283 79.323366 
L 184.847473 82.793294 
L 181.890286 90.487903 
L 177.568225 92.476105 
L 178.250663 101.435866 
L 170.743936 103.928403 
L 170.971374 106.921515 
L 162.327293 114.41437 
L 164.829522 119.417578 
L 157.322795 126.683467 
L 150.725985 140.751721 
L 158.005233 146.795999 
L 154.365609 150.578251 
L 156.640358 160.175644 
L 153.455693 166.501934 
L 52.001147 165.742264 
L 34.030467 165.742264 
L 34.030467 141.255075 
L 28.116094 139.242037 
L 19.92693 141.506775 
L 15.604869 137.230049 
L 17.87966 57.339444 
L 10.145455 7.928664 
z
" clip-path="url(#pd6f0532004)" style="stroke: #000000; stroke-linejoin: miter"/>
   </g>
   <g id="line2d_1">
    <path d="M 16.059827 7.928664 
L 195.538864 8.171592 
L 199.178488 16.684631 
L 192.809157 22.046193 
L 186.212305 30.348235 
L 213.054545 30.348235 
L 211.689713 38.669557 
L 205.547819 41.120688 
L 204.182986 47.992576 
L 196.448781 55.369688 
L 197.131218 66.216253 
L 193.036636 74.124529 
L 188.942054 75.361673 
L 191.444283 79.323366 
L 184.847473 82.793294 
L 181.890286 90.487903 
L 177.568225 92.476105 
L 178.250663 101.435866 
L 170.743936 103.928403 
L 170.971374 106.921515 
L 162.327293 114.41437 
L 164.829522 119.417578 
L 157.322795 126.683467 
L 150.725985 140.751721 
L 158.005233 146.795999 
L 154.365609 150.578251 
L 156.640358 160.175644 
L 153.455693 166.501934 
L 52.001147 165.742264 
L 34.030467 165.742264 
L 34.030467 141.255075 
L 28.116094 139.242037 
L 19.92693 141.506775 
L 15.604869 137.230049 
L 17.87966 57.339444 
L 10.145455 7.928664 
L 16.059827 7.928664 
" clip-path="url(#pd6f0532004)" style="fill: none; stroke: #000000; stroke-width: 0.5; stroke-linecap: square"/>
   </g>
  </g>
 </g>
 <defs>
  <clipPath id="pd6f0532004">
   <rect x="0" y="0" width="223.2" height="174.430597"/>
  </clipPath>
 </defs>
</svg>
