<?xml version="1.0" encoding="utf-8" standalone="no"?>
<!DOCTYPE svg PUBLIC "-//W3C//DTD SVG 1.1//EN"
  "http://www.w3.org/Graphics/SVG/1.1/DTD/svg11.dtd">
<svg xmlns:xlink="http://www.w3.org/1999/xlink" width="223.2pt" height="174.02138pt" viewBox="0 0 223.2 174.02138" xmlns="http://www.w3.org/2000/svg" version="1.1">
 <metadata>
  <rdf:RDF xmlns:dc="http://purl.org/dc/elements/1.1/" xmlns:cc="http://creativecommons.org/ns#" xmlns:rdf="http://www.w3.org/1999/02/22-rdf-syntax-ns#">
   <cc:Work>
    <dc:type rdf:resource="http://purl.org/dc/dcmitype/StillImage"/>
    <dc:date>2026-04-26T19:21:58.172377</dc:date>
    <dc:format>image/svg+xml</dc:format>
    <dc:creator>
     <cc:Agent>
      <dc:title>Matplotlib v3.10.9, https://matplotlib.org/</dc:title>
     </cc:Agent>
    </dc:creator>
   </cc:Work>
  </rdf:RDF>
 </metadata>
 <defs>
  <style type="text/css">*{stroke-linejoin: round; stroke-linecap: butt}</style>
 </defs>
 <g id="figure_1">
  <g id="patch_1">
   <path d="M 0 174.02138 
L 223.2 174.02138 
L 223.2 0 
L 0 0 
z
" style="fill: #ffffff"/>
  </g>
  <g id="axes_1">
   <g id="patch_2">
    <path d="M 110.507168 7.910063 
L 112.878282 11.707434 
L 112.232518 13.059017 
L 112.58686 13.854267 
L 113.686316 14.212177 
L 117.872193 14.215491 
L 118.968337 14.483944 
L 122.323 16.47301 
L 123.154214 17.384975 
L 123.237005 18.406607 
L 121.038094 19.62426 
L 114.699669 19.421847 
L 114.017477 21.486246 
L 114.842068 22.558666 
L 116.229634 23.269333 
L 117.468176 23.365647 
L 117.858947 22.601834 
L 118.044397 21.43313 
L 119.104113 21.864717 
L 121.197052 23.518426 
L 122.50845 24.13624 
L 123.501934 24.950163 
L 124.555026 25.62135 
L 127.575216 25.890519 
L 130.383463 26.767927 
L 131.843884 26.947418 
L 134.829972 25.814293 
L 135.443606 25.581475 
L 137.212007 25.435268 
L 137.602777 26.95739 
L 137.039803 29.038716 
L 137.827967 29.690584 
L 138.732332 29.871863 
L 139.371178 29.999923 
L 141.066724 31.061157 
L 143.808738 33.750341 
L 144.822092 34.539441 
L 146.126867 34.859117 
L 147.636962 34.94237 
L 148.749663 35.391964 
L 148.86557 36.817649 
L 147.663455 39.473738 
L 145.974533 40.944115 
L 141.006809 42.77712 
L 138.417434 43.732861 
L 135.910544 45.311494 
L 134.297789 47.485133 
L 134.294056 49.036338 
L 134.291165 50.237955 
L 135.20517 51.738704 
L 136.43709 52.671498 
L 137.73193 53.45734 
L 138.847944 54.530992 
L 139.099626 55.169956 
L 139.245337 56.602108 
L 139.54007 57.298275 
L 140.132849 57.81043 
L 141.460805 58.486699 
L 142.000598 59.240091 
L 144.073667 62.650378 
L 147.868775 65.395925 
L 162.797522 71.949855 
L 162.84756 71.992667 
L 165.572652 74.324803 
L 166.857558 74.378565 
L 167.291923 74.279782 
L 168.202072 74.072804 
L 169.606196 74.005606 
L 170.54007 74.388645 
L 171.460699 75.084247 
L 173.10657 76.774976 
L 173.225788 77.151527 
L 173.268839 77.534835 
L 173.225788 77.921539 
L 172.063412 82.106797 
L 171.281872 83.702527 
L 170.059887 84.982214 
L 168.639205 85.952323 
L 168.400769 86.447564 
L 167.645722 89.447121 
L 167.208589 90.141684 
L 166.34757 90.708203 
L 161.87027 91.052196 
L 151.339344 89.686497 
L 147.282619 91.743632 
L 147.366999 92.390396 
L 147.484628 93.292158 
L 149.517957 94.010935 
L 156.20079 94.550936 
L 157.952633 95.229404 
L 159.340199 96.434693 
L 162.208378 101.063133 
L 162.698173 101.853997 
L 165.585899 104.119579 
L 166.951218 104.669429 
L 169.063092 105.520067 
L 173.10657 106.481036 
L 174.858413 107.828086 
L 177.328875 111.783522 
L 179.342335 113.057571 
L 181.773058 113.613384 
L 182.875825 114.10486 
L 183.799765 115.00321 
L 185.303237 117.258331 
L 186.243735 117.970703 
L 187.667728 118.320145 
L 189.893131 117.953741 
L 194.271082 116.179805 
L 196.463369 116.305281 
L 197.370751 116.892011 
L 198.880846 118.510144 
L 199.841214 119.059827 
L 201.106249 119.232889 
L 205.153039 118.92749 
L 206.186262 119.107334 
L 207.24929 119.657089 
L 208.034142 120.505603 
L 208.226215 121.588534 
L 207.649995 122.423819 
L 206.71612 122.882272 
L 205.967696 123.425681 
L 205.947826 124.512691 
L 206.38827 125.205793 
L 206.365089 125.820838 
L 205.927956 126.303416 
L 205.153039 126.602503 
L 205.129942 126.605949 
L 200.437304 127.306115 
L 198.403974 128.30563 
L 197.562824 129.999175 
L 198.443713 132.06763 
L 200.543275 133.364284 
L 205.153039 135.005186 
L 206.176327 135.679416 
L 206.649888 136.636444 
L 206.987672 137.685653 
L 207.610255 138.656721 
L 209.16009 139.962017 
L 211.895481 141.497823 
L 212.319368 141.808113 
L 212.749877 142.203678 
L 212.832114 142.37443 
L 213.054545 142.836309 
L 212.491571 143.058006 
L 211.143745 143.098935 
L 208.173229 144.794423 
L 207.385066 144.886549 
L 203.49061 143.30359 
L 201.245337 143.071649 
L 199.768358 144.176881 
L 199.831279 146.207226 
L 201.470527 147.514616 
L 203.603205 148.486005 
L 205.153039 149.488333 
L 205.961073 151.661056 
L 206.318727 153.537368 
L 206.133276 155.390484 
L 205.292127 157.492353 
L 205.245764 157.701052 
L 205.153039 157.890941 
L 204.92785 158.695061 
L 204.818566 159.514718 
L 204.881487 160.320823 
L 205.153039 161.094538 
L 207.378442 164.886183 
L 206.226001 164.627488 
L 199.549792 162.222812 
L 198.675526 162.066995 
L 197.993334 162.13891 
L 196.440188 162.546448 
L 193.953167 162.626932 
L 193.105395 162.781055 
L 191.86354 163.269143 
L 188.532059 165.218566 
L 187.412734 165.65721 
L 183.144066 166.111317 
L 179.408567 160.358479 
L 176.070463 152.86058 
L 174.772311 150.765883 
L 173.10657 148.849687 
L 171.75212 147.060572 
L 171.169277 145.325027 
L 171.560047 143.6447 
L 173.10657 142.014416 
L 173.540391 141.569427 
L 173.672855 141.093794 
L 173.527145 140.596052 
L 173.10657 140.07791 
L 171.798483 139.079284 
L 168.143223 137.649242 
L 167.208589 137.283656 
L 165.678624 136.336713 
L 164.459951 135.280995 
L 163.141929 134.422974 
L 159.505779 133.677441 
L 159.336999 133.364743 
L 158.969298 132.683581 
L 159.376626 131.366702 
L 161.532486 128.540241 
L 161.817284 127.503281 
L 161.237752 124.499102 
L 161.237752 124.492308 
L 161.446384 122.821142 
L 161.433137 121.707366 
L 160.856917 120.878999 
L 159.406431 120.05078 
L 157.63803 119.51116 
L 156.151116 119.531522 
L 155.792859 119.60048 
L 147.935007 121.113235 
L 146.219592 121.676809 
L 141.066724 124.28168 
L 140.384532 124.512691 
L 139.669223 124.801471 
L 138.940669 124.916988 
L 138.218737 124.828651 
L 137.529922 124.509294 
L 137.5208 124.501902 
L 135.496592 122.861895 
L 134.377267 122.396653 
L 131.343831 122.172539 
L 130.409956 121.873736 
L 129.764192 121.133604 
L 129.005833 119.769084 
L 127.411851 117.992051 
L 127.012242 117.546659 
L 125.296827 118.004629 
L 123.475441 119.344874 
L 121.114261 119.789447 
L 119.85916 119.151448 
L 119.607478 118.194614 
L 120.236684 115.830525 
L 120.342656 114.298075 
L 120.06448 113.084683 
L 119.405469 111.990192 
L 115.15958 107.703013 
L 114.679799 107.218819 
L 112.500758 106.355828 
L 110.096528 107.005594 
L 107.732037 108.444205 
L 107.355223 108.610639 
L 105.685461 109.348223 
L 103.499797 109.761354 
L 100.698173 109.727489 
L 97.724346 110.154201 
L 95.906271 110.784182 
L 94.916099 109.453195 
L 90.985215 105.381352 
L 90.617626 104.873895 
L 90.306335 104.654014 
L 90.001666 104.599891 
L 89.286358 104.687841 
L 88.96182 104.654014 
L 87.776263 104.082374 
L 85.458135 101.975701 
L 84.603739 102.388167 
L 84.365303 102.009508 
L 84.345433 101.272566 
L 84.146736 100.633753 
L 83.179746 100.076133 
L 82.636641 99.640223 
L 82.398205 99.072588 
L 82.10016 98.079398 
L 81.378229 97.12695 
L 79.732358 95.685148 
L 76.026664 93.153815 
L 70.68085 90.705042 
L 67.138297 89.083023 
L 64.793676 88.513337 
L 62.627882 88.513337 
L 58.766542 89.335866 
L 56.931909 89.514549 
L 55.620511 89.817991 
L 54.951565 89.888797 
L 54.408461 89.747186 
L 53.593804 89.13022 
L 52.964598 88.998746 
L 51.596902 89.281925 
L 49.368187 90.505867 
L 48.348211 90.782395 
L 40.638778 89.757301 
L 33.631407 86.730583 
L 27.76323 85.426821 
L 24.829142 84.160478 
L 24.001239 82.281828 
L 24.888751 81.635592 
L 27.789723 81.144246 
L 28.415618 80.303024 
L 28.001666 79.569607 
L 26.001453 77.652524 
L 25.319261 76.50603 
L 26.491571 75.796762 
L 26.426125 75.678846 
L 25.504711 74.019046 
L 22.653413 71.137221 
L 20.92144 69.871553 
L 20.265741 68.85458 
L 20.702874 67.790866 
L 21.24929 67.06621 
L 22.204003 64.590461 
L 22.259331 64.447027 
L 22.259331 64.004501 
L 19.666339 62.291806 
L 18.305267 61.115759 
L 18.040338 60.261561 
L 20.232625 58.245641 
L 21.616879 57.505808 
L 23.133597 57.36522 
L 22.961393 56.899974 
L 22.855421 56.705857 
L 22.653413 56.44147 
L 23.044183 56.551908 
L 23.328982 56.602108 
L 23.613781 56.689123 
L 24.001239 56.923403 
L 23.935007 55.370697 
L 24.789403 54.032597 
L 27.504925 51.581586 
L 27.014806 50.11765 
L 27.405576 49.716657 
L 28.736844 47.892602 
L 28.925606 47.368243 
L 28.591133 42.895383 
L 28.365944 41.827914 
L 27.769854 40.617322 
L 25.107318 37.360732 
L 24.451618 36.081431 
L 24.107211 34.616028 
L 23.964811 33.32422 
L 23.689948 32.092701 
L 22.95477 30.828262 
L 20.947933 28.90902 
L 18.421173 27.313073 
L 15.6626 26.262731 
L 12.920585 25.963629 
L 11.695289 25.079741 
L 10.675313 23.242764 
L 10.145455 21.200756 
L 10.410383 19.700582 
L 11.052836 19.823364 
L 11.685354 19.83332 
L 12.31456 19.727129 
L 15.775195 18.658736 
L 18.49734 18.579115 
L 28.948788 19.693946 
L 30.51518 19.594395 
L 31.770281 19.192899 
L 34.757355 17.202567 
L 37.505993 16.337061 
L 43.440402 16.240905 
L 44.844246 15.980977 
L 44.871873 15.975862 
L 46.341374 15.703795 
L 48.917808 14.825335 
L 50.19609 14.722583 
L 52.911612 15.299349 
L 54.26275 15.113715 
L 55.521162 14.599948 
L 56.527892 13.841011 
L 56.855742 13.214742 
L 56.898793 12.671387 
L 57.064373 12.194352 
L 57.826044 11.786927 
L 58.508236 11.780303 
L 60.246833 12.323544 
L 63.346501 13.950369 
L 64.532059 14.291717 
L 66.038842 14.102812 
L 66.631621 13.797931 
L 67.091935 13.39698 
L 67.615169 13.042451 
L 68.373528 12.856915 
L 69.165004 12.92649 
L 72.582587 14.493887 
L 73.983399 14.881683 
L 75.42395 14.957921 
L 76.980408 14.61652 
L 78.271937 13.526208 
L 78.6892 13.284323 
L 79.378015 13.267756 
L 79.7158 13.751538 
L 79.947612 14.407715 
L 80.298643 14.894942 
L 81.613353 15.180012 
L 82.557163 14.543603 
L 83.338703 13.526208 
L 84.166606 12.694578 
L 85.544237 12.224165 
L 86.842389 12.35667 
L 89.521483 13.161729 
L 98.916526 13.307517 
L 100.598825 13.135222 
L 101.234654 12.46599 
L 100.985661 12.198781 
L 100.552462 11.733932 
L 98.148232 10.859601 
L 97.618374 9.955653 
L 98.86354 9.005556 
L 105.049631 9.747077 
L 107.480355 9.687485 
L 108.261895 9.283611 
L 109.712381 8.293949 
z
" clip-path="url(#pf75052c807)" style="stroke: #000000; stroke-linejoin: miter"/>
   </g>
   <g id="line2d_1">
    <path d="M 110.507168 7.910063 
L 112.878282 11.707434 
L 112.232518 13.059017 
L 112.58686 13.854267 
L 113.686316 14.212177 
L 117.872193 14.215491 
L 118.968337 14.483944 
L 122.323 16.47301 
L 123.154214 17.384975 
L 123.237005 18.406607 
L 121.038094 19.62426 
L 114.699669 19.421847 
L 114.017477 21.486246 
L 114.842068 22.558666 
L 116.229634 23.269333 
L 117.468176 23.365647 
L 117.858947 22.601834 
L 118.044397 21.43313 
L 119.104113 21.864717 
L 121.197052 23.518426 
L 122.50845 24.13624 
L 123.501934 24.950163 
L 124.555026 25.62135 
L 127.575216 25.890519 
L 130.383463 26.767927 
L 131.843884 26.947418 
L 135.443606 25.581475 
L 137.212007 25.435268 
L 137.602777 26.95739 
L 137.039803 29.038716 
L 137.827967 29.690584 
L 139.371178 29.999923 
L 141.066724 31.061157 
L 143.808738 33.750341 
L 144.822092 34.539441 
L 146.126867 34.859117 
L 147.636962 34.94237 
L 148.749663 35.391964 
L 148.86557 36.817649 
L 147.663455 39.473738 
L 145.974533 40.944115 
L 138.417434 43.732861 
L 135.910544 45.311494 
L 134.297789 47.485133 
L 134.291165 50.237955 
L 135.20517 51.738704 
L 136.43709 52.671498 
L 137.73193 53.45734 
L 138.847944 54.530992 
L 139.099626 55.169956 
L 139.245337 56.602108 
L 139.54007 57.298275 
L 140.132849 57.81043 
L 141.460805 58.486699 
L 142.000598 59.240091 
L 144.073667 62.650378 
L 147.868775 65.395925 
L 162.84756 71.992667 
L 165.572652 74.324803 
L 166.857558 74.378565 
L 168.202072 74.072804 
L 169.606196 74.005606 
L 170.54007 74.388645 
L 171.460699 75.084247 
L 173.10657 76.774976 
L 173.268839 77.534835 
L 173.225788 77.921539 
L 172.063412 82.106797 
L 171.281872 83.702527 
L 170.059887 84.982214 
L 168.639205 85.952323 
L 168.400769 86.447564 
L 167.645722 89.447121 
L 167.208589 90.141684 
L 166.34757 90.708203 
L 161.87027 91.052196 
L 151.339344 89.686497 
L 147.282619 91.743632 
L 147.484628 93.292158 
L 149.517957 94.010935 
L 156.20079 94.550936 
L 157.952633 95.229404 
L 159.340199 96.434693 
L 162.698173 101.853997 
L 165.585899 104.119579 
L 169.063092 105.520067 
L 173.10657 106.481036 
L 174.858413 107.828086 
L 177.328875 111.783522 
L 179.342335 113.057571 
L 181.773058 113.613384 
L 182.875825 114.10486 
L 183.799765 115.00321 
L 185.303237 117.258331 
L 186.243735 117.970703 
L 187.667728 118.320145 
L 189.893131 117.953741 
L 194.271082 116.179805 
L 196.463369 116.305281 
L 197.370751 116.892011 
L 198.880846 118.510144 
L 199.841214 119.059827 
L 201.106249 119.232889 
L 205.153039 118.92749 
L 206.186262 119.107334 
L 207.24929 119.657089 
L 208.034142 120.505603 
L 208.226215 121.588534 
L 207.649995 122.423819 
L 206.71612 122.882272 
L 205.967696 123.425681 
L 205.947826 124.512691 
L 206.38827 125.205793 
L 206.365089 125.820838 
L 205.927956 126.303416 
L 205.129942 126.605949 
L 200.437304 127.306115 
L 198.403974 128.30563 
L 197.562824 129.999175 
L 198.443713 132.06763 
L 200.543275 133.364284 
L 205.153039 135.005186 
L 206.176327 135.679416 
L 206.649888 136.636444 
L 206.987672 137.685653 
L 207.610255 138.656721 
L 209.16009 139.962017 
L 212.319368 141.808113 
L 212.832114 142.37443 
L 213.054545 142.836309 
L 212.491571 143.058006 
L 211.143745 143.098935 
L 208.173229 144.794423 
L 207.385066 144.886549 
L 203.49061 143.30359 
L 201.245337 143.071649 
L 199.768358 144.176881 
L 199.831279 146.207226 
L 201.470527 147.514616 
L 203.603205 148.486005 
L 205.153039 149.488333 
L 205.961073 151.661056 
L 206.318727 153.537368 
L 206.133276 155.390484 
L 204.92785 158.695061 
L 204.818566 159.514718 
L 204.881487 160.320823 
L 205.153039 161.094538 
L 207.378442 164.886183 
L 206.226001 164.627488 
L 199.549792 162.222812 
L 198.675526 162.066995 
L 197.993334 162.13891 
L 196.440188 162.546448 
L 193.953167 162.626932 
L 193.105395 162.781055 
L 191.86354 163.269143 
L 188.532059 165.218566 
L 187.412734 165.65721 
L 183.144066 166.111317 
L 179.408567 160.358479 
L 176.070463 152.86058 
L 174.772311 150.765883 
L 173.10657 148.849687 
L 171.75212 147.060572 
L 171.169277 145.325027 
L 171.560047 143.6447 
L 173.540391 141.569427 
L 173.672855 141.093794 
L 173.527145 140.596052 
L 173.10657 140.07791 
L 171.798483 139.079284 
L 167.208589 137.283656 
L 165.678624 136.336713 
L 164.459951 135.280995 
L 163.141929 134.422974 
L 159.505779 133.677441 
L 158.969298 132.683581 
L 159.376626 131.366702 
L 161.532486 128.540241 
L 161.817284 127.503281 
L 161.237752 124.492308 
L 161.446384 122.821142 
L 161.433137 121.707366 
L 160.856917 120.878999 
L 159.406431 120.05078 
L 157.63803 119.51116 
L 155.792859 119.60048 
L 147.935007 121.113235 
L 146.219592 121.676809 
L 140.384532 124.512691 
L 139.669223 124.801471 
L 138.940669 124.916988 
L 138.218737 124.828651 
L 137.5208 124.501902 
L 135.496592 122.861895 
L 134.377267 122.396653 
L 131.343831 122.172539 
L 130.409956 121.873736 
L 129.764192 121.133604 
L 129.005833 119.769084 
L 127.012242 117.546659 
L 125.296827 118.004629 
L 123.475441 119.344874 
L 121.114261 119.789447 
L 119.85916 119.151448 
L 119.607478 118.194614 
L 120.236684 115.830525 
L 120.342656 114.298075 
L 120.06448 113.084683 
L 119.405469 111.990192 
L 114.679799 107.218819 
L 112.500758 106.355828 
L 110.096528 107.005594 
L 107.355223 108.610639 
L 105.685461 109.348223 
L 103.499797 109.761354 
L 100.698173 109.727489 
L 97.724346 110.154201 
L 95.906271 110.784182 
L 94.916099 109.453195 
L 90.306335 104.654014 
L 90.001666 104.599891 
L 88.96182 104.654014 
L 87.776263 104.082374 
L 85.458135 101.975701 
L 84.603739 102.388167 
L 84.365303 102.009508 
L 84.345433 101.272566 
L 84.146736 100.633753 
L 82.636641 99.640223 
L 82.10016 98.079398 
L 81.378229 97.12695 
L 79.732358 95.685148 
L 76.026664 93.153815 
L 67.138297 89.083023 
L 64.793676 88.513337 
L 62.627882 88.513337 
L 58.766542 89.335866 
L 56.931909 89.514549 
L 54.951565 89.888797 
L 54.408461 89.747186 
L 53.593804 89.13022 
L 52.964598 88.998746 
L 51.596902 89.281925 
L 49.368187 90.505867 
L 48.348211 90.782395 
L 40.638778 89.757301 
L 33.631407 86.730583 
L 27.76323 85.426821 
L 24.829142 84.160478 
L 24.001239 82.281828 
L 24.888751 81.635592 
L 27.789723 81.144246 
L 28.415618 80.303024 
L 28.001666 79.569607 
L 26.001453 77.652524 
L 25.319261 76.50603 
L 26.491571 75.796762 
L 25.504711 74.019046 
L 22.653413 71.137221 
L 20.92144 69.871553 
L 20.265741 68.85458 
L 20.702874 67.790866 
L 21.24929 67.06621 
L 22.259331 64.447027 
L 22.259331 64.004501 
L 19.666339 62.291806 
L 18.305267 61.115759 
L 18.040338 60.261561 
L 20.232625 58.245641 
L 21.616879 57.505808 
L 23.133597 57.36522 
L 22.855421 56.705857 
L 22.653413 56.44147 
L 24.001239 56.923403 
L 23.935007 55.370697 
L 24.789403 54.032597 
L 27.504925 51.581586 
L 27.014806 50.11765 
L 27.405576 49.716657 
L 28.736844 47.892602 
L 28.925606 47.368243 
L 28.591133 42.895383 
L 28.365944 41.827914 
L 27.769854 40.617322 
L 25.107318 37.360732 
L 24.451618 36.081431 
L 24.107211 34.616028 
L 23.964811 33.32422 
L 23.689948 32.092701 
L 22.95477 30.828262 
L 20.947933 28.90902 
L 18.421173 27.313073 
L 15.6626 26.262731 
L 12.920585 25.963629 
L 11.695289 25.079741 
L 10.675313 23.242764 
L 10.145455 21.200756 
L 10.410383 19.700582 
L 11.685354 19.83332 
L 12.31456 19.727129 
L 15.775195 18.658736 
L 18.49734 18.579115 
L 28.948788 19.693946 
L 30.51518 19.594395 
L 31.770281 19.192899 
L 34.757355 17.202567 
L 37.505993 16.337061 
L 43.440402 16.240905 
L 46.341374 15.703795 
L 48.917808 14.825335 
L 50.19609 14.722583 
L 52.911612 15.299349 
L 54.26275 15.113715 
L 55.521162 14.599948 
L 56.527892 13.841011 
L 56.855742 13.214742 
L 56.898793 12.671387 
L 57.064373 12.194352 
L 57.826044 11.786927 
L 58.508236 11.780303 
L 60.246833 12.323544 
L 63.346501 13.950369 
L 64.532059 14.291717 
L 66.038842 14.102812 
L 66.631621 13.797931 
L 67.615169 13.042451 
L 68.373528 12.856915 
L 69.165004 12.92649 
L 72.582587 14.493887 
L 73.983399 14.881683 
L 75.42395 14.957921 
L 76.980408 14.61652 
L 78.6892 13.284323 
L 79.378015 13.267756 
L 79.7158 13.751538 
L 79.947612 14.407715 
L 80.298643 14.894942 
L 81.613353 15.180012 
L 82.557163 14.543603 
L 83.338703 13.526208 
L 84.166606 12.694578 
L 85.544237 12.224165 
L 86.842389 12.35667 
L 89.521483 13.161729 
L 98.916526 13.307517 
L 100.598825 13.135222 
L 101.234654 12.46599 
L 100.552462 11.733932 
L 98.148232 10.859601 
L 97.618374 9.955653 
L 98.86354 9.005556 
L 105.049631 9.747077 
L 107.480355 9.687485 
L 108.261895 9.283611 
L 109.712381 8.293949 
L 110.507168 7.910063 
L 110.507168 7.910063 
" clip-path="url(#pf75052c807)" style="fill: none; stroke: #000000; stroke-width: 0.5; stroke-linecap: square"/>
   </g>
  </g>
 </g>
 <defs>
  <clipPath id="pf75052c807">
   <rect x="0" y="-0" width="223.2" height="174.02138"/>
  </clipPath>
 </defs>
</svg>
