<?xml version="1.0" encoding="utf-8" standalone="no"?>
<!DOCTYPE svg PUBLIC "-//W3C//DTD SVG 1.1//EN"
  "http://www.w3.org/Graphics/SVG/1.1/DTD/svg11.dtd">
<svg xmlns:xlink="http://www.w3.org/1999/xlink" width="223.2pt" height="147.2312pt" viewBox="0 0 223.2 147.2312" xmlns="http://www.w3.org/2000/svg" version="1.1">
 <metadata>
  <rdf:RDF xmlns:dc="http://purl.org/dc/elements/1.1/" xmlns:cc="http://creativecommons.org/ns#" xmlns:rdf="http://www.w3.org/1999/02/22-rdf-syntax-ns#">
   <cc:Work>
    <dc:type rdf:resource="http://purl.org/dc/dcmitype/StillImage"/>
    <dc:date>2026-04-26T19:21:57.258674</dc:date>
    <dc:format>image/svg+xml</dc:format>
    <dc:creator>
     <cc:Agent>
      <dc:title>Matplotlib v3.10.9, https://matplotlib.org/</dc:title>
     </cc:Agent>
    </dc:creator>
   </cc:Work>
  </rdf:RDF>
 </metadata>
 <defs>
  <style type="text/css">*{stroke-linejoin: round; stroke-linecap: butt}</style>
 </defs>
 <g id="figure_1">
  <g id="patch_1">
   <path d="M 0 147.2312 
L 223.2 147.2312 
L 223.2 0 
L 0 0 
z
" style="fill: #ffffff"/>
  </g>
  <g id="axes_1">
   <g id="patch_2">
    <path d="M 10.145455 29.165569 
L 13.738946 26.92902 
L 19.454374 23.375946 
L 20.662743 23.059761 
L 21.894463 23.108253 
L 22.597596 23.381478 
L 24.410439 24.086054 
L 24.996138 24.173377 
L 25.755018 24.122924 
L 27.000358 23.837687 
L 27.556869 23.913359 
L 28.101706 24.382964 
L 29.327588 25.250608 
L 34.740927 26.837221 
L 37.192691 27.212175 
L 38.072212 27.476425 
L 38.118912 27.70961 
L 37.581859 27.931157 
L 36.717905 28.162441 
L 35.881191 28.947801 
L 36.780172 30.021269 
L 38.336847 31.027091 
L 39.061647 31.362099 
L 40.959845 32.239673 
L 46.54831 33.766456 
L 48.365729 33.935939 
L 49.276384 33.873599 
L 50.019696 33.667108 
L 51.008297 33.187136 
L 51.969432 32.720587 
L 52.808091 32.574551 
L 55.639295 32.564816 
L 56.316449 32.743954 
L 56.911877 33.184065 
L 58.005441 34.218437 
L 60.223704 35.742525 
L 61.005933 36.095418 
L 63.247546 36.64923 
L 63.864379 37.060768 
L 64.91708 38.137714 
L 65.592288 38.451911 
L 66.415381 38.424588 
L 66.746174 38.030389 
L 66.956325 37.437256 
L 67.380519 36.832561 
L 68.17637 36.454212 
L 68.913845 36.508816 
L 69.629915 36.657031 
L 70.369336 36.567321 
L 70.887202 36.015052 
L 71.097082 35.791264 
L 71.412309 34.578911 
L 71.610785 33.285341 
L 71.976604 32.270823 
L 72.19843 32.037211 
L 72.696566 31.684888 
L 72.918392 31.445492 
L 72.998172 31.198335 
L 73.039035 30.53872 
L 73.112977 30.248856 
L 73.44377 29.955136 
L 73.755105 29.990147 
L 73.871856 29.943466 
L 73.634463 29.395023 
L 72.45139 28.030276 
L 71.723644 27.416189 
L 71.470684 27.09366 
L 71.42573 27.071218 
L 71.163241 26.940182 
L 70.579487 27.113088 
L 69.984059 26.064179 
L 68.135507 25.235077 
L 64.469536 24.072471 
L 62.706601 22.842528 
L 61.939939 22.700949 
L 61.500178 22.547743 
L 59.530983 21.527903 
L 58.883017 20.903799 
L 58.548332 20.088049 
L 58.247845 18.625322 
L 58.192242 18.354753 
L 57.355529 17.15862 
L 57.269912 16.949647 
L 56.748426 16.965126 
L 56.499358 17.247633 
L 56.312557 17.59307 
L 55.981763 17.796292 
L 54.967978 17.164425 
L 54.487355 15.480567 
L 54.469842 13.583383 
L 54.825932 12.302676 
L 55.553678 11.728219 
L 56.374824 11.660644 
L 58.137759 11.959916 
L 58.921934 11.903921 
L 59.5232 11.685743 
L 60.071928 11.32087 
L 61.690871 9.854209 
L 62.498396 8.883998 
L 63.934429 6.692327 
L 64.741954 6.851287 
L 65.757685 6.820457 
L 67.49727 6.995804 
L 68.17637 7.294502 
L 68.386521 7.999959 
L 68.205557 9.515652 
L 68.413763 10.150365 
L 69.081187 10.564272 
L 69.797258 10.560412 
L 70.451062 10.24684 
L 71.676944 9.450068 
L 72.45139 9.245612 
L 73.97304 9.013209 
L 74.427328 8.757864 
L 74.654085 8.630419 
L 75.288431 8.148401 
L 75.603657 8.154185 
L 75.763217 8.568715 
L 76.101794 10.033635 
L 76.304161 10.541114 
L 76.66998 10.973423 
L 79.143148 12.672525 
L 79.787223 12.968058 
L 80.262009 13.067543 
L 81.242714 13.164134 
L 81.682475 13.326415 
L 81.857601 13.543774 
L 82.059969 14.228821 
L 82.20007 14.515844 
L 82.709881 15.029091 
L 84.581783 16.216448 
L 85.511897 17.342454 
L 85.838799 18.463169 
L 86.381689 19.158308 
L 86.42806 19.153552 
L 87.967552 18.99564 
L 88.687515 18.782638 
L 89.411369 18.672271 
L 90.092414 18.80781 
L 90.687843 19.328735 
L 90.964153 19.977624 
L 91.09647 20.613121 
L 91.363051 21.161562 
L 92.028529 21.537596 
L 92.11339 21.603493 
L 92.407969 21.83226 
L 92.586987 22.167678 
L 92.711521 22.532229 
L 92.913889 22.912351 
L 94.079449 24.012318 
L 94.365488 24.456711 
L 94.505589 25.374859 
L 94.435539 27.342354 
L 94.809141 28.203258 
L 95.470728 28.700892 
L 98.335011 30.001818 
L 99.194002 30.244308 
L 99.506409 30.332505 
L 103.405881 30.614596 
L 104.227027 30.826672 
L 105.289458 31.947666 
L 105.97245 32.358433 
L 106.743004 32.364274 
L 108.075908 31.69462 
L 108.803653 31.476631 
L 109.558641 31.544751 
L 111.52947 32.302573 
L 112.646696 32.732271 
L 113.368604 32.847159 
L 115.995363 32.669786 
L 116.569518 32.631017 
L 118.16511 32.263036 
L 119.05047 31.844498 
L 119.210029 31.476631 
L 119.019336 30.994011 
L 118.848102 30.219677 
L 118.957069 29.435861 
L 119.307321 29.070293 
L 119.809349 28.798097 
L 120.361969 28.296557 
L 120.681087 27.612447 
L 120.860105 27.02372 
L 121.257057 26.709012 
L 122.233871 26.835278 
L 123.080313 26.472035 
L 124.319816 23.78336 
L 125.033941 22.745556 
L 126.277335 22.169617 
L 130.618514 21.537596 
L 131.729591 21.087913 
L 133.700731 19.811027 
L 136.956129 18.288931 
L 137.818138 17.587264 
L 138.578963 16.511442 
L 140.166772 13.264593 
L 140.422513 13.018365 
L 142.999921 10.538219 
L 144.818228 8.376645 
L 145.210462 8.634746 
L 146.368775 9.155585 
L 147.698691 10.044155 
L 151.020416 13.469326 
L 152.307431 14.438612 
L 152.834494 15.021586 
L 153.052061 15.930572 
L 155.623027 18.092482 
L 157.060194 20.416486 
L 157.82321 20.62551 
L 158.457525 21.119914 
L 158.935559 21.702951 
L 159.24812 22.188411 
L 160.121451 23.150453 
L 160.274667 23.374983 
L 160.464655 23.529264 
L 161.396209 23.741607 
L 161.711834 23.874522 
L 162.272605 24.50711 
L 163.633164 26.642905 
L 164.773092 28.43919 
L 165.318541 29.043853 
L 165.790447 29.748203 
L 166.017206 30.569174 
L 166.482983 33.835818 
L 166.722 34.527709 
L 167.135684 34.819251 
L 167.393087 35.253557 
L 168.03353 37.954688 
L 169.829223 40.223478 
L 174.346033 44.118667 
L 174.71988 44.551493 
L 175.056956 45.16312 
L 175.853679 45.69013 
L 177.569699 46.502432 
L 178.409324 46.33286 
L 179.120246 46.810774 
L 179.794397 47.452244 
L 180.54822 47.771497 
L 180.961904 48.140153 
L 180.793366 48.970209 
L 180.137601 50.384083 
L 179.913906 51.119112 
L 179.858748 51.517598 
L 179.904713 51.939319 
L 180.060993 52.180333 
L 180.566606 52.663976 
L 180.676922 52.858694 
L 180.701436 52.891149 
L 180.964968 53.228082 
L 181.63299 53.715013 
L 182.368427 54.141733 
L 182.87404 54.322647 
L 184.510388 54.398418 
L 185.245825 54.549966 
L 185.843368 54.815971 
L 187.185541 55.73328 
L 187.927107 56.011785 
L 189.814729 56.206757 
L 191.426562 56.596744 
L 192.315216 56.657105 
L 193.004688 56.548766 
L 195.09762 55.87717 
L 195.998531 55.756487 
L 200.285517 55.87717 
L 200.601142 56.118553 
L 200.766615 56.38472 
L 200.889188 56.6602 
L 201.057726 56.917135 
L 201.728812 57.553391 
L 202.445864 58.053527 
L 203.20888 58.381842 
L 206.613341 58.94565 
L 207.27217 59.230698 
L 207.685854 59.800889 
L 208.145502 60.681211 
L 208.715466 61.499807 
L 209.460096 61.856472 
L 210.27827 62.086005 
L 210.976935 62.667681 
L 211.528513 63.432589 
L 211.90236 64.222556 
L 212.288465 67.373937 
L 212.548932 67.687885 
L 212.861493 68.402956 
L 213.054545 69.192869 
L 212.931973 69.723239 
L 212.208793 68.631509 
L 211.427391 67.687885 
L 210.492772 66.840934 
L 208.632729 65.666533 
L 207.83907 65.323322 
L 206.987188 65.077978 
L 205.304876 64.897866 
L 203.889159 64.537679 
L 203.135336 64.460059 
L 202.712459 64.497316 
L 202.200718 64.671191 
L 201.851385 64.744159 
L 200.405025 64.744159 
L 199.743132 64.963077 
L 198.468374 65.786124 
L 197.714551 65.786124 
L 197.44489 65.601304 
L 196.960728 65.000342 
L 196.663488 64.744159 
L 196.268191 64.621511 
L 195.299865 64.491107 
L 194.313154 64.075098 
L 193.565459 64.397965 
L 192.315216 65.265866 
L 192.572619 66.169783 
L 191.512363 67.01341 
L 189.980203 67.633486 
L 187.479716 68.071823 
L 185.285662 69.062237 
L 182.405199 69.891238 
L 181.731048 70.275498 
L 180.284688 71.517336 
L 179.635052 71.872254 
L 179.218305 72.291057 
L 179.138632 73.117959 
L 179.343942 74.158572 
L 179.371521 74.566829 
L 177.339875 75.184008 
L 176.962964 75.776386 
L 177.054893 76.549794 
L 177.569699 77.326547 
L 177.906775 77.613598 
L 178.443031 77.941248 
L 178.737206 78.229925 
L 178.893486 78.624762 
L 178.682048 78.868248 
L 178.305137 79.058682 
L 177.643243 79.53951 
L 177.349068 79.653485 
L 177.067151 79.814308 
L 176.79749 80.206256 
L 176.625888 80.665424 
L 176.604438 81.010633 
L 176.79749 81.780875 
L 177.22956 82.604483 
L 177.358261 83.051557 
L 177.183595 83.497142 
L 176.852648 83.783293 
L 176.564602 83.97095 
L 176.356228 84.1899 
L 176.282684 84.557462 
L 176.350099 84.771767 
L 176.475737 84.975137 
L 176.576859 85.205121 
L 176.540087 85.477372 
L 176.380743 85.646369 
L 175.767878 86.001611 
L 175.538054 86.546302 
L 175.553376 86.787378 
L 175.767878 87.053527 
L 175.596276 87.557716 
L 175.810779 88.083926 
L 176.668789 89.023844 
L 176.622824 89.352893 
L 176.104954 89.667877 
L 175.130499 90.100452 
L 174.18056 91.008145 
L 173.371579 91.784393 
L 172.648399 92.749132 
L 172.685171 93.412884 
L 172.246973 94.053253 
L 171.860868 94.902602 
L 171.563629 95.797767 
L 171.40122 96.576957 
L 171.434927 97.620415 
L 171.808774 98.334093 
L 175.314359 100.882219 
L 175.767878 101.32445 
L 176.071246 101.824997 
L 176.037539 101.995015 
L 175.869001 102.131982 
L 175.633048 103.421691 
L 175.685142 103.809194 
L 176.000767 104.253472 
L 175.538054 104.059682 
L 175.191786 103.817071 
L 174.931318 103.52565 
L 174.71988 103.19646 
L 174.486992 103.19646 
L 174.627951 103.769811 
L 174.94664 104.403157 
L 175.409353 104.957848 
L 176.000767 105.288824 
L 176.000767 105.577279 
L 175.15195 105.414921 
L 174.618758 104.943664 
L 174.140723 104.390551 
L 172.210201 103.369713 
L 170.956893 103.754058 
L 169.985503 104.756129 
L 169.599399 105.985582 
L 169.626977 110.22982 
L 169.495212 110.739882 
L 169.320545 111.426955 
L 168.790418 112.6815 
L 168.609623 113.286855 
L 168.499307 114.660849 
L 168.327705 115.488102 
L 167.972244 116.179512 
L 165.146939 117.774997 
L 163.657679 118.242102 
L 162.612745 117.553348 
L 162.732253 117.097438 
L 162.719996 116.784043 
L 162.775154 116.522908 
L 163.127551 116.226984 
L 164.819057 115.961154 
L 165.398213 115.720662 
L 165.894633 115.125852 
L 166.201066 114.349309 
L 166.234773 113.571401 
L 165.808832 112.839544 
L 165.055009 112.528207 
L 163.256252 112.485539 
L 163.256252 112.13948 
L 163.035621 110.547216 
L 162.891598 110.101925 
L 162.223576 109.651969 
L 161.509589 109.503578 
L 159.90082 109.547779 
L 159.453429 109.67407 
L 159.232798 109.983508 
L 159.085711 110.378249 
L 158.77315 110.937299 
L 158.742506 111.134731 
L 158.754764 111.556492 
L 158.675091 111.85982 
L 158.494296 111.941977 
L 158.310437 111.940397 
L 158.218507 111.979897 
L 158.148028 113.794316 
L 158.27673 114.749415 
L 158.889594 115.584604 
L 158.736378 116.533986 
L 157.725152 119.327035 
L 157.593386 119.580511 
L 156.857949 120.978205 
L 156.766019 121.068556 
L 155.699635 122.116524 
L 154.339076 121.831108 
L 154.366655 123.215644 
L 154.449392 123.853425 
L 154.617929 124.467545 
L 155.51884 126.296412 
L 155.721085 132.320001 
L 155.938652 138.908183 
L 155.938652 138.914564 
L 153.507481 138.500504 
L 152.303003 138.493415 
L 151.460453 138.869168 
L 150.71714 139.483036 
L 149.763676 139.971388 
L 148.744054 140.32808 
L 147.83729 140.538872 
L 146.098957 140.421138 
L 145.907013 140.408139 
L 144.704481 139.451631 
L 143.677075 138.044804 
L 143.187486 137.539477 
L 142.252717 136.574905 
L 141.692314 135.927254 
L 141.057969 135.361692 
L 140.43919 134.57171 
L 139.835979 134.122701 
L 139.349517 133.591869 
L 139.086828 132.555767 
L 138.654851 131.708969 
L 137.769492 131.708969 
L 135.860619 132.433481 
L 134.702841 132.411248 
L 134.021796 131.886796 
L 133.430259 131.174545 
L 131.605057 129.985837 
L 131.535007 129.325545 
L 131.690674 128.562464 
L 131.514391 127.99333 
L 131.414364 127.670443 
L 130.939578 127.3466 
L 125.954325 125.348874 
L 123.506453 123.764604 
L 122.759249 122.652518 
L 122.66974 121.04963 
L 123.019992 120.606782 
L 124.993078 119.620689 
L 125.102045 119.36919 
L 125.094262 119.075468 
L 125.222688 118.824018 
L 132.175189 117.831513 
L 133.726027 117.056458 
L 133.729919 117.048417 
L 133.735757 117.048417 
L 134.076279 116.636349 
L 134.368156 116.135919 
L 134.374445 116.117194 
L 134.551065 115.591375 
L 134.570524 115.049952 
L 134.370102 114.558844 
L 133.233729 112.605311 
L 132.667488 112.159784 
L 130.515384 111.443479 
L 128.371064 109.775826 
L 127.452625 108.734427 
L 126.946706 107.695424 
L 127.016756 106.364427 
L 127.709477 105.263259 
L 128.79915 104.432669 
L 130.06784 103.908426 
L 132.426203 103.530312 
L 134.407073 102.464272 
L 135.384151 102.215388 
L 135.780839 102.114349 
L 134.944126 100.713104 
L 133.885587 99.558266 
L 131.305397 97.665227 
L 124.977511 91.643413 
L 122.66974 89.940987 
L 121.941994 89.544903 
L 121.42577 89.440847 
L 121.408833 89.437433 
L 120.972964 89.95293 
L 120.579903 90.239581 
L 120.116792 90.331156 
L 117.252509 90.287359 
L 116.357421 90.478479 
L 115.629675 90.878682 
L 115.043501 91.351918 
L 113.426979 92.657413 
L 108.897107 94.677549 
L 108.2199 94.979685 
L 106.227355 96.585504 
L 105.740894 96.848909 
L 104.896398 96.924742 
L 102.261725 97.639276 
L 100.685591 98.330037 
L 99.455817 99.150792 
L 97.583915 101.068845 
L 97.57959 101.072374 
L 96.334683 102.088356 
L 95.203685 102.600262 
L 94.766332 102.79824 
L 91.014745 103.964447 
L 89.212893 104.844931 
L 88.847074 105.177186 
L 88.718648 105.563534 
L 87.356557 107.30377 
L 86.722212 108.774512 
L 86.527627 109.06214 
L 86.134567 109.436 
L 85.877006 109.552546 
L 83.622482 110.572925 
L 83.165209 110.641115 
L 82.600914 110.518775 
L 81.550158 110.142764 
L 80.958621 110.155798 
L 80.332911 110.38723 
L 80.324276 110.390424 
L 79.752198 110.77349 
L 79.240441 111.248885 
L 78.273356 112.597283 
L 78.059313 112.835126 
L 77.759653 113.029832 
L 77.136983 113.30184 
L 76.845106 113.496578 
L 76.387833 114.070834 
L 75.755433 115.249834 
L 75.136655 115.728004 
L 72.953418 116.624289 
L 72.266534 117.089627 
L 71.764507 117.61335 
L 70.704021 119.383273 
L 70.272044 119.940628 
L 69.750558 120.407523 
L 69.166804 120.79599 
L 68.559701 121.103984 
L 67.744392 121.369732 
L 67.065293 121.401945 
L 65.757685 119.174042 
L 65.598126 118.719421 
L 65.561155 118.245768 
L 65.625368 117.764152 
L 65.757685 117.291666 
L 65.812169 117.18009 
L 65.839411 117.057463 
L 66.333655 115.822442 
L 66.442622 114.733584 
L 66.232471 113.631096 
L 65.757685 112.354443 
L 64.84703 111.765493 
L 63.593906 111.194722 
L 62.630713 110.426523 
L 62.593742 109.233528 
L 63.461589 108.584113 
L 64.780871 108.720398 
L 67.069184 109.650516 
L 67.532295 109.596385 
L 69.277718 108.600146 
L 70.069676 108.576097 
L 70.40047 108.445832 
L 70.269773 108.17444 
L 70.221452 108.074109 
L 69.968492 107.841682 
L 69.719424 107.659361 
L 68.112157 106.756949 
L 67.201502 105.98998 
L 66.835683 105.419398 
L 66.637207 104.802901 
L 66.358951 104.240569 
L 65.757685 103.844403 
L 63.04907 102.880238 
L 61.815405 102.118348 
L 61.29781 100.90296 
L 61.792054 99.907863 
L 62.986803 99.320566 
L 65.744114 98.909161 
L 65.757685 98.907136 
L 66.213013 98.731398 
L 66.469864 98.447843 
L 66.483485 98.086454 
L 66.224688 97.6792 
L 66.236363 97.040492 
L 66.676124 96.721194 
L 67.224852 96.451816 
L 67.563429 95.961017 
L 67.45057 95.324706 
L 66.989405 94.826134 
L 66.364789 94.503108 
L 65.757685 94.397435 
L 63.379863 94.576882 
L 62.636551 94.475194 
L 62.072256 94.15221 
L 61.184951 93.201424 
L 60.65179 92.856671 
L 59.363641 92.782944 
L 56.791235 93.825277 
L 55.483627 94.04057 
L 54.646914 93.835244 
L 54.094294 93.416667 
L 53.210881 92.091598 
L 52.66799 91.563743 
L 52.020024 91.274961 
L 50.591775 90.948375 
L 49.408701 90.199766 
L 47.957101 87.875623 
L 46.92775 87.08412 
L 44.551874 86.519472 
L 43.310974 86.019652 
L 42.508737 85.69657 
L 40.811961 84.365354 
L 40.524166 83.900657 
L 38.838875 81.181067 
L 38.023566 80.472861 
L 36.994214 80.074205 
L 33.067501 79.75691 
L 31.872752 79.33457 
L 31.803636 78.80471 
L 31.754056 78.424684 
L 34.137715 77.215948 
L 40.3255 78.018408 
L 42.956281 77.816284 
L 43.462201 77.483407 
L 43.719052 77.075294 
L 44.162705 75.312808 
L 44.302806 75.021813 
L 45.137573 74.451794 
L 45.855589 73.699873 
L 46.314809 72.76225 
L 46.9978 70.303067 
L 47.023096 70.075847 
L 46.9978 69.850622 
L 46.92775 69.629367 
L 45.960665 68.635925 
L 45.41972 68.227202 
L 44.870992 68.002135 
L 44.045954 68.041619 
L 43.511167 68.163236 
L 43.255941 68.221279 
L 42.500954 68.189689 
L 40.899738 66.819367 
L 40.870336 66.794212 
L 32.09847 62.943239 
L 29.868533 61.330005 
L 28.650434 59.326181 
L 28.333261 58.883501 
L 27.552978 58.486137 
L 27.204672 58.185204 
L 27.031492 57.776149 
L 26.945874 56.934642 
L 26.79799 56.559198 
L 26.142241 55.928339 
L 25.381416 55.466593 
L 24.657561 54.918499 
L 24.120508 54.036686 
L 24.122207 53.330637 
L 24.1244 52.419177 
L 25.072026 51.141985 
L 26.54503 50.214408 
L 28.066501 49.652832 
L 30.985447 48.575791 
L 31.977828 47.711823 
L 32.684169 46.151153 
L 32.616065 45.313445 
L 31.962261 45.049272 
L 31.074956 45.000354 
L 30.308293 44.812518 
L 29.712865 44.348857 
L 28.101706 42.768741 
L 27.105434 42.145178 
L 26.730059 42.069932 
L 26.19867 41.963416 
L 25.735559 41.58039 
L 26.066353 40.35744 
L 25.836743 39.463068 
L 24.797662 39.548976 
L 24.437102 39.685776 
L 22.682529 40.351581 
L 21.824412 40.246114 
L 20.174336 39.730565 
L 18.399726 39.572407 
L 17.780948 39.178029 
L 17.197194 38.699782 
L 16.42664 38.336766 
L 15.196866 37.365075 
L 14.574196 37.111483 
L 14.465229 37.798192 
L 14.235619 38.246996 
L 13.507873 38.190403 
L 12.692565 37.772828 
L 12.208049 37.142693 
L 12.608893 35.929689 
L 16.333239 36.048623 
L 17.62528 35.333152 
L 17.576634 34.732859 
L 17.088227 34.197005 
L 15.117087 33.028265 
L 14.473012 32.870527 
L 12.013465 32.868579 
L 11.367445 32.658277 
L 11.159239 32.191003 
L 11.538679 31.396837 
z
" clip-path="url(#p87cba9f419)" style="stroke: #000000; stroke-linejoin: miter"/>
   </g>
   <g id="line2d_1">
    <path d="M 10.145455 29.165569 
L 19.454374 23.375946 
L 20.662743 23.059761 
L 21.894463 23.108253 
L 24.410439 24.086054 
L 24.996138 24.173377 
L 25.755018 24.122924 
L 27.000358 23.837687 
L 27.556869 23.913359 
L 28.101706 24.382964 
L 29.327588 25.250608 
L 34.740927 26.837221 
L 37.192691 27.212175 
L 38.072212 27.476425 
L 38.118912 27.70961 
L 37.581859 27.931157 
L 36.717905 28.162441 
L 35.881191 28.947801 
L 36.780172 30.021269 
L 38.336847 31.027091 
L 40.959845 32.239673 
L 46.54831 33.766456 
L 48.365729 33.935939 
L 49.276384 33.873599 
L 50.019696 33.667108 
L 51.969432 32.720587 
L 52.808091 32.574551 
L 55.639295 32.564816 
L 56.316449 32.743954 
L 56.911877 33.184065 
L 58.005441 34.218437 
L 60.223704 35.742525 
L 61.005933 36.095418 
L 63.247546 36.64923 
L 63.864379 37.060768 
L 64.91708 38.137714 
L 65.592288 38.451911 
L 66.415381 38.424588 
L 66.746174 38.030389 
L 66.956325 37.437256 
L 67.380519 36.832561 
L 68.17637 36.454212 
L 70.369336 36.567321 
L 71.097082 35.791264 
L 71.412309 34.578911 
L 71.610785 33.285341 
L 71.976604 32.270823 
L 72.19843 32.037211 
L 72.918392 31.445492 
L 72.998172 31.198335 
L 73.112977 30.248856 
L 73.44377 29.955136 
L 73.871856 29.943466 
L 73.634463 29.395023 
L 72.45139 28.030276 
L 71.163241 26.940182 
L 70.579487 27.113088 
L 69.984059 26.064179 
L 68.135507 25.235077 
L 64.469536 24.072471 
L 62.706601 22.842528 
L 61.500178 22.547743 
L 59.530983 21.527903 
L 58.883017 20.903799 
L 58.548332 20.088049 
L 58.192242 18.354753 
L 57.269912 16.949647 
L 56.748426 16.965126 
L 55.981763 17.796292 
L 54.967978 17.164425 
L 54.487355 15.480567 
L 54.469842 13.583383 
L 54.825932 12.302676 
L 55.553678 11.728219 
L 56.374824 11.660644 
L 58.137759 11.959916 
L 58.921934 11.903921 
L 59.5232 11.685743 
L 60.071928 11.32087 
L 61.690871 9.854209 
L 62.498396 8.883998 
L 63.934429 6.692327 
L 64.741954 6.851287 
L 65.757685 6.820457 
L 67.49727 6.995804 
L 68.17637 7.294502 
L 68.386521 7.999959 
L 68.205557 9.515652 
L 68.413763 10.150365 
L 69.081187 10.564272 
L 69.797258 10.560412 
L 70.451062 10.24684 
L 71.676944 9.450068 
L 72.45139 9.245612 
L 73.97304 9.013209 
L 75.603657 8.154185 
L 75.763217 8.568715 
L 76.304161 10.541114 
L 76.66998 10.973423 
L 79.143148 12.672525 
L 80.262009 13.067543 
L 81.242714 13.164134 
L 81.682475 13.326415 
L 81.857601 13.543774 
L 82.20007 14.515844 
L 82.709881 15.029091 
L 84.581783 16.216448 
L 85.511897 17.342454 
L 85.838799 18.463169 
L 86.42806 19.153552 
L 87.967552 18.99564 
L 89.411369 18.672271 
L 90.092414 18.80781 
L 90.687843 19.328735 
L 90.964153 19.977624 
L 91.09647 20.613121 
L 91.363051 21.161562 
L 92.407969 21.83226 
L 92.913889 22.912351 
L 94.079449 24.012318 
L 94.365488 24.456711 
L 94.505589 25.374859 
L 94.435539 27.342354 
L 94.809141 28.203258 
L 95.470728 28.700892 
L 98.335011 30.001818 
L 99.506409 30.332505 
L 103.405881 30.614596 
L 104.227027 30.826672 
L 105.289458 31.947666 
L 105.97245 32.358433 
L 106.743004 32.364274 
L 108.075908 31.69462 
L 108.803653 31.476631 
L 109.558641 31.544751 
L 112.646696 32.732271 
L 113.368604 32.847159 
L 116.569518 32.631017 
L 118.16511 32.263036 
L 119.05047 31.844498 
L 119.210029 31.476631 
L 119.019336 30.994011 
L 118.848102 30.219677 
L 118.957069 29.435861 
L 119.307321 29.070293 
L 119.809349 28.798097 
L 120.361969 28.296557 
L 120.860105 27.02372 
L 121.257057 26.709012 
L 122.233871 26.835278 
L 123.080313 26.472035 
L 124.319816 23.78336 
L 125.033941 22.745556 
L 126.277335 22.169617 
L 130.618514 21.537596 
L 131.729591 21.087913 
L 133.700731 19.811027 
L 136.956129 18.288931 
L 137.818138 17.587264 
L 138.578963 16.511442 
L 140.166772 13.264593 
L 142.999921 10.538219 
L 144.818228 8.376645 
L 145.210462 8.634746 
L 146.368775 9.155585 
L 147.698691 10.044155 
L 151.020416 13.469326 
L 152.307431 14.438612 
L 152.834494 15.021586 
L 153.052061 15.930572 
L 155.623027 18.092482 
L 157.060194 20.416486 
L 157.82321 20.62551 
L 158.457525 21.119914 
L 160.464655 23.529264 
L 161.711834 23.874522 
L 162.272605 24.50711 
L 164.773092 28.43919 
L 165.318541 29.043853 
L 165.790447 29.748203 
L 166.017206 30.569174 
L 166.482983 33.835818 
L 166.722 34.527709 
L 167.135684 34.819251 
L 167.393087 35.253557 
L 168.03353 37.954688 
L 169.829223 40.223478 
L 174.71988 44.551493 
L 175.056956 45.16312 
L 175.853679 45.69013 
L 177.569699 46.502432 
L 178.409324 46.33286 
L 179.120246 46.810774 
L 179.794397 47.452244 
L 180.54822 47.771497 
L 180.961904 48.140153 
L 180.793366 48.970209 
L 179.913906 51.119112 
L 179.904713 51.939319 
L 180.060993 52.180333 
L 180.701436 52.891149 
L 180.964968 53.228082 
L 182.368427 54.141733 
L 182.87404 54.322647 
L 184.510388 54.398418 
L 185.245825 54.549966 
L 185.843368 54.815971 
L 187.185541 55.73328 
L 187.927107 56.011785 
L 189.814729 56.206757 
L 191.426562 56.596744 
L 192.315216 56.657105 
L 193.004688 56.548766 
L 195.09762 55.87717 
L 195.998531 55.756487 
L 200.285517 55.87717 
L 200.766615 56.38472 
L 201.057726 56.917135 
L 201.728812 57.553391 
L 202.445864 58.053527 
L 203.20888 58.381842 
L 206.613341 58.94565 
L 207.27217 59.230698 
L 207.685854 59.800889 
L 208.145502 60.681211 
L 208.715466 61.499807 
L 209.460096 61.856472 
L 210.27827 62.086005 
L 210.976935 62.667681 
L 211.528513 63.432589 
L 211.90236 64.222556 
L 212.288465 67.373937 
L 212.548932 67.687885 
L 212.861493 68.402956 
L 213.054545 69.192869 
L 212.931973 69.723239 
L 212.208793 68.631509 
L 211.427391 67.687885 
L 210.492772 66.840934 
L 208.632729 65.666533 
L 207.83907 65.323322 
L 206.987188 65.077978 
L 205.304876 64.897866 
L 203.135336 64.460059 
L 202.712459 64.497316 
L 201.851385 64.744159 
L 200.405025 64.744159 
L 199.743132 64.963077 
L 198.468374 65.786124 
L 197.714551 65.786124 
L 197.44489 65.601304 
L 196.663488 64.744159 
L 196.268191 64.621511 
L 195.299865 64.491107 
L 194.313154 64.075098 
L 193.565459 64.397965 
L 192.315216 65.265866 
L 192.572619 66.169783 
L 191.512363 67.01341 
L 189.980203 67.633486 
L 187.479716 68.071823 
L 185.285662 69.062237 
L 182.405199 69.891238 
L 181.731048 70.275498 
L 180.284688 71.517336 
L 179.635052 71.872254 
L 179.218305 72.291057 
L 179.138632 73.117959 
L 179.371521 74.566829 
L 177.339875 75.184008 
L 176.962964 75.776386 
L 177.054893 76.549794 
L 177.569699 77.326547 
L 178.737206 78.229925 
L 178.893486 78.624762 
L 178.682048 78.868248 
L 178.305137 79.058682 
L 177.349068 79.653485 
L 177.067151 79.814308 
L 176.79749 80.206256 
L 176.604438 81.010633 
L 176.79749 81.780875 
L 177.358261 83.051557 
L 177.183595 83.497142 
L 176.356228 84.1899 
L 176.350099 84.771767 
L 176.576859 85.205121 
L 176.540087 85.477372 
L 176.380743 85.646369 
L 175.767878 86.001611 
L 175.553376 86.787378 
L 175.767878 87.053527 
L 175.596276 87.557716 
L 175.810779 88.083926 
L 176.668789 89.023844 
L 176.622824 89.352893 
L 176.104954 89.667877 
L 175.130499 90.100452 
L 173.371579 91.784393 
L 172.648399 92.749132 
L 172.685171 93.412884 
L 172.246973 94.053253 
L 171.563629 95.797767 
L 171.40122 96.576957 
L 171.434927 97.620415 
L 171.808774 98.334093 
L 175.767878 101.32445 
L 176.071246 101.824997 
L 176.037539 101.995015 
L 175.869001 102.131982 
L 175.633048 103.421691 
L 175.685142 103.809194 
L 176.000767 104.253472 
L 175.191786 103.817071 
L 174.71988 103.19646 
L 174.486992 103.19646 
L 174.627951 103.769811 
L 174.94664 104.403157 
L 175.409353 104.957848 
L 176.000767 105.288824 
L 176.000767 105.577279 
L 175.15195 105.414921 
L 174.140723 104.390551 
L 172.210201 103.369713 
L 170.956893 103.754058 
L 169.985503 104.756129 
L 169.599399 105.985582 
L 169.626977 110.22982 
L 169.320545 111.426955 
L 168.609623 113.286855 
L 168.327705 115.488102 
L 167.972244 116.179512 
L 165.146939 117.774997 
L 163.657679 118.242102 
L 162.612745 117.553348 
L 162.775154 116.522908 
L 163.127551 116.226984 
L 164.819057 115.961154 
L 165.398213 115.720662 
L 165.894633 115.125852 
L 166.201066 114.349309 
L 166.234773 113.571401 
L 165.808832 112.839544 
L 165.055009 112.528207 
L 163.256252 112.485539 
L 163.256252 112.13948 
L 162.891598 110.101925 
L 162.223576 109.651969 
L 161.509589 109.503578 
L 159.90082 109.547779 
L 159.453429 109.67407 
L 159.085711 110.378249 
L 158.742506 111.134731 
L 158.675091 111.85982 
L 158.218507 111.979897 
L 158.148028 113.794316 
L 158.27673 114.749415 
L 158.889594 115.584604 
L 158.736378 116.533986 
L 157.593386 119.580511 
L 156.766019 121.068556 
L 155.699635 122.116524 
L 154.339076 121.831108 
L 154.449392 123.853425 
L 154.617929 124.467545 
L 155.51884 126.296412 
L 155.938652 138.914564 
L 153.507481 138.500504 
L 152.303003 138.493415 
L 151.460453 138.869168 
L 150.71714 139.483036 
L 149.763676 139.971388 
L 147.83729 140.538872 
L 145.907013 140.408139 
L 144.704481 139.451631 
L 143.187486 137.539477 
L 139.349517 133.591869 
L 139.086828 132.555767 
L 138.654851 131.708969 
L 137.769492 131.708969 
L 135.860619 132.433481 
L 134.702841 132.411248 
L 134.021796 131.886796 
L 133.430259 131.174545 
L 131.605057 129.985837 
L 131.535007 129.325545 
L 131.690674 128.562464 
L 131.414364 127.670443 
L 130.939578 127.3466 
L 125.954325 125.348874 
L 123.506453 123.764604 
L 122.759249 122.652518 
L 122.66974 121.04963 
L 123.019992 120.606782 
L 124.993078 119.620689 
L 125.102045 119.36919 
L 125.094262 119.075468 
L 125.222688 118.824018 
L 132.175189 117.831513 
L 133.735757 117.048417 
L 134.374445 116.117194 
L 134.551065 115.591375 
L 134.570524 115.049952 
L 134.370102 114.558844 
L 133.233729 112.605311 
L 132.667488 112.159784 
L 130.515384 111.443479 
L 128.371064 109.775826 
L 127.452625 108.734427 
L 126.946706 107.695424 
L 127.016756 106.364427 
L 127.709477 105.263259 
L 128.79915 104.432669 
L 130.06784 103.908426 
L 132.426203 103.530312 
L 134.407073 102.464272 
L 135.780839 102.114349 
L 134.944126 100.713104 
L 133.885587 99.558266 
L 131.305397 97.665227 
L 124.977511 91.643413 
L 122.66974 89.940987 
L 121.941994 89.544903 
L 121.408833 89.437433 
L 120.972964 89.95293 
L 120.579903 90.239581 
L 120.116792 90.331156 
L 117.252509 90.287359 
L 116.357421 90.478479 
L 115.629675 90.878682 
L 113.426979 92.657413 
L 108.2199 94.979685 
L 105.740894 96.848909 
L 104.896398 96.924742 
L 102.261725 97.639276 
L 100.685591 98.330037 
L 99.455817 99.150792 
L 97.57959 101.072374 
L 96.334683 102.088356 
L 94.766332 102.79824 
L 91.014745 103.964447 
L 89.212893 104.844931 
L 88.847074 105.177186 
L 88.718648 105.563534 
L 87.356557 107.30377 
L 86.527627 109.06214 
L 85.877006 109.552546 
L 83.622482 110.572925 
L 83.165209 110.641115 
L 82.600914 110.518775 
L 81.550158 110.142764 
L 80.958621 110.155798 
L 80.324276 110.390424 
L 79.240441 111.248885 
L 78.059313 112.835126 
L 77.759653 113.029832 
L 76.845106 113.496578 
L 76.387833 114.070834 
L 75.755433 115.249834 
L 75.136655 115.728004 
L 72.953418 116.624289 
L 72.266534 117.089627 
L 71.764507 117.61335 
L 70.272044 119.940628 
L 69.166804 120.79599 
L 68.559701 121.103984 
L 67.744392 121.369732 
L 67.065293 121.401945 
L 65.598126 118.719421 
L 65.625368 117.764152 
L 65.839411 117.057463 
L 66.333655 115.822442 
L 66.442622 114.733584 
L 66.232471 113.631096 
L 65.757685 112.354443 
L 64.84703 111.765493 
L 63.593906 111.194722 
L 62.630713 110.426523 
L 62.593742 109.233528 
L 63.461589 108.584113 
L 64.780871 108.720398 
L 67.069184 109.650516 
L 67.532295 109.596385 
L 69.277718 108.600146 
L 70.069676 108.576097 
L 70.40047 108.445832 
L 70.221452 108.074109 
L 69.719424 107.659361 
L 68.112157 106.756949 
L 67.201502 105.98998 
L 66.835683 105.419398 
L 66.358951 104.240569 
L 65.757685 103.844403 
L 63.04907 102.880238 
L 61.815405 102.118348 
L 61.29781 100.90296 
L 61.792054 99.907863 
L 62.986803 99.320566 
L 66.213013 98.731398 
L 66.469864 98.447843 
L 66.483485 98.086454 
L 66.224688 97.6792 
L 66.236363 97.040492 
L 67.563429 95.961017 
L 67.45057 95.324706 
L 66.989405 94.826134 
L 66.364789 94.503108 
L 65.757685 94.397435 
L 63.379863 94.576882 
L 62.636551 94.475194 
L 62.072256 94.15221 
L 61.184951 93.201424 
L 60.65179 92.856671 
L 59.363641 92.782944 
L 56.791235 93.825277 
L 55.483627 94.04057 
L 54.646914 93.835244 
L 54.094294 93.416667 
L 53.210881 92.091598 
L 52.66799 91.563743 
L 52.020024 91.274961 
L 50.591775 90.948375 
L 49.408701 90.199766 
L 47.957101 87.875623 
L 46.92775 87.08412 
L 44.551874 86.519472 
L 42.508737 85.69657 
L 40.811961 84.365354 
L 38.838875 81.181067 
L 38.023566 80.472861 
L 36.994214 80.074205 
L 33.067501 79.75691 
L 31.872752 79.33457 
L 31.754056 78.424684 
L 34.137715 77.215948 
L 40.3255 78.018408 
L 42.956281 77.816284 
L 43.462201 77.483407 
L 43.719052 77.075294 
L 44.302806 75.021813 
L 45.137573 74.451794 
L 45.855589 73.699873 
L 46.314809 72.76225 
L 47.023096 70.075847 
L 46.92775 69.629367 
L 45.41972 68.227202 
L 44.870992 68.002135 
L 43.511167 68.163236 
L 43.255941 68.221279 
L 42.500954 68.189689 
L 40.870336 66.794212 
L 32.09847 62.943239 
L 29.868533 61.330005 
L 28.333261 58.883501 
L 27.204672 58.185204 
L 27.031492 57.776149 
L 26.79799 56.559198 
L 26.142241 55.928339 
L 24.657561 54.918499 
L 24.120508 54.036686 
L 24.1244 52.419177 
L 25.072026 51.141985 
L 26.54503 50.214408 
L 30.985447 48.575791 
L 31.977828 47.711823 
L 32.684169 46.151153 
L 32.616065 45.313445 
L 31.962261 45.049272 
L 31.074956 45.000354 
L 30.308293 44.812518 
L 29.712865 44.348857 
L 28.101706 42.768741 
L 27.105434 42.145178 
L 26.19867 41.963416 
L 25.735559 41.58039 
L 26.066353 40.35744 
L 25.836743 39.463068 
L 24.437102 39.685776 
L 22.682529 40.351581 
L 21.824412 40.246114 
L 20.174336 39.730565 
L 18.399726 39.572407 
L 16.42664 38.336766 
L 15.196866 37.365075 
L 14.574196 37.111483 
L 14.465229 37.798192 
L 14.235619 38.246996 
L 13.507873 38.190403 
L 12.692565 37.772828 
L 12.208049 37.142693 
L 12.608893 35.929689 
L 16.333239 36.048623 
L 17.62528 35.333152 
L 17.576634 34.732859 
L 17.088227 34.197005 
L 15.117087 33.028265 
L 14.473012 32.870527 
L 12.013465 32.868579 
L 11.367445 32.658277 
L 11.159239 32.191003 
L 11.538679 31.396837 
L 10.145455 29.165569 
L 10.145455 29.165569 
" clip-path="url(#p87cba9f419)" style="fill: none; stroke: #000000; stroke-width: 0.5; stroke-linecap: square"/>
   </g>
  </g>
 </g>
 <defs>
  <clipPath id="p87cba9f419">
   <rect x="0" y="-0" width="223.2" height="147.2312"/>
  </clipPath>
 </defs>
</svg>
