<?xml version="1.0" encoding="utf-8" standalone="no"?>
<!DOCTYPE svg PUBLIC "-//W3C//DTD SVG 1.1//EN"
  "http://www.w3.org/Graphics/SVG/1.1/DTD/svg11.dtd">
<svg xmlns:xlink="http://www.w3.org/1999/xlink" width="80.845872pt" height="221.76pt" viewBox="0 0 80.845872 221.76" xmlns="http://www.w3.org/2000/svg" version="1.1">
 <metadata>
  <rdf:RDF xmlns:dc="http://purl.org/dc/elements/1.1/" xmlns:cc="http://creativecommons.org/ns#" xmlns:rdf="http://www.w3.org/1999/02/22-rdf-syntax-ns#">
   <cc:Work>
    <dc:type rdf:resource="http://purl.org/dc/dcmitype/StillImage"/>
    <dc:date>2026-04-26T19:22:25.124490</dc:date>
    <dc:format>image/svg+xml</dc:format>
    <dc:creator>
     <cc:Agent>
      <dc:title>Matplotlib v3.10.9, https://matplotlib.org/</dc:title>
     </cc:Agent>
    </dc:creator>
   </cc:Work>
  </rdf:RDF>
 </metadata>
 <defs>
  <style type="text/css">*{stroke-linejoin: round; stroke-linecap: butt}</style>
 </defs>
 <g id="figure_1">
  <g id="patch_1">
   <path d="M 0 221.76 
L 80.845872 221.76 
L 80.845872 0 
L 0 0 
z
" style="fill: #ffffff"/>
  </g>
  <g id="axes_1">
   <g id="patch_2">
    <path d="M 42.038063 31.554405 
L 58.149412 46.635083 
L 61.93463 40.223534 
L 67.548051 35.453537 
L 69.953803 42.131653 
L 72.359555 52.627537 
L 77.17106 53.104672 
L 73.378397 58.157811 
L 73.161473 66.466194 
L 65.62751 68.486171 
L 67.816221 94.364559 
L 66.995454 133.622338 
L 61.432479 182.6988 
L 58.058216 192.436052 
L 47.205854 211.607437 
L 47.145056 211.68 
L 44.652357 198.203075 
L 40.396529 183.424047 
L 34.499167 169.029727 
L 27.021069 156.650793 
L 10.727327 136.810582 
L 7.991438 124.475306 
L 15.287143 109.535501 
L 17.323861 103.053831 
L 19.360579 96.572948 
L 17.232665 79.831299 
L 11.548094 63.384367 
L 5.194751 51.409718 
L 3.674812 46.056369 
L 3.918003 38.786808 
L 8.265027 17.779414 
L 11.000916 12.6102 
L 15.834321 10.08 
L 15.895119 10.098072 
L 16.259904 10.098072 
L 24.224382 10.333015 
L 28.875394 11.363158 
L 34.863953 14.291043 
L 39.727756 16.676847 
L 39.758155 16.658772 
L 55.139933 10.116145 
L 57.602234 11.851127 
L 59.152571 17.652889 
L 61.888461 21.665695 
L 62.709228 23.491442 
L 63.529994 25.317252 
L 61.432479 30.035726 
L 57.906222 31.084333 
L 47.266652 29.493351 
z
" clip-path="url(#pa96759e576)" style="stroke: #000000; stroke-linejoin: miter"/>
   </g>
   <g id="line2d_1">
    <path d="M 42.038063 31.554405 
L 58.149412 46.635083 
L 61.93463 40.223534 
L 67.548051 35.453537 
L 69.953803 42.131653 
L 72.359555 52.627537 
L 77.17106 53.104672 
L 73.378397 58.157811 
L 73.161473 66.466194 
L 65.62751 68.486171 
L 67.816221 94.364559 
L 66.995454 133.622338 
L 61.432479 182.6988 
L 58.058216 192.436052 
L 47.205854 211.607437 
L 47.145056 211.68 
L 44.652357 198.203075 
L 40.396529 183.424047 
L 34.499167 169.029727 
L 27.021069 156.650793 
L 10.727327 136.810582 
L 7.991438 124.475306 
L 15.287143 109.535501 
L 17.323861 103.053831 
L 19.360579 96.572948 
L 17.232665 79.831299 
L 11.548094 63.384367 
L 5.194751 51.409718 
L 3.674812 46.056369 
L 3.918003 38.786808 
L 8.265027 17.779414 
L 11.000916 12.6102 
L 15.834321 10.08 
L 15.895119 10.098072 
L 16.259904 10.098072 
L 24.224382 10.333015 
L 28.875394 11.363158 
L 34.863953 14.291043 
L 39.727756 16.676847 
L 39.758155 16.658772 
L 55.139933 10.116145 
L 57.602234 11.851127 
L 59.152571 17.652889 
L 61.888461 21.665695 
L 62.709228 23.491442 
L 63.529994 25.317252 
L 61.432479 30.035726 
L 57.906222 31.084333 
L 47.266652 29.493351 
L 42.038063 31.554405 
" clip-path="url(#pa96759e576)" style="fill: none; stroke: #000000; stroke-width: 0.5; stroke-linecap: square"/>
   </g>
  </g>
 </g>
 <defs>
  <clipPath id="pa96759e576">
   <rect x="0" y="-0" width="80.845872" height="221.76"/>
  </clipPath>
 </defs>
</svg>
