<?xml version="1.0" encoding="utf-8" standalone="no"?>
<!DOCTYPE svg PUBLIC "-//W3C//DTD SVG 1.1//EN"
  "http://www.w3.org/Graphics/SVG/1.1/DTD/svg11.dtd">
<svg xmlns:xlink="http://www.w3.org/1999/xlink" width="143.56522pt" height="221.76pt" viewBox="0 0 143.56522 221.76" xmlns="http://www.w3.org/2000/svg" version="1.1">
 <metadata>
  <rdf:RDF xmlns:dc="http://purl.org/dc/elements/1.1/" xmlns:cc="http://creativecommons.org/ns#" xmlns:rdf="http://www.w3.org/1999/02/22-rdf-syntax-ns#">
   <cc:Work>
    <dc:type rdf:resource="http://purl.org/dc/dcmitype/StillImage"/>
    <dc:date>2026-04-26T19:22:06.903235</dc:date>
    <dc:format>image/svg+xml</dc:format>
    <dc:creator>
     <cc:Agent>
      <dc:title>Matplotlib v3.10.9, https://matplotlib.org/</dc:title>
     </cc:Agent>
    </dc:creator>
   </cc:Work>
  </rdf:RDF>
 </metadata>
 <defs>
  <style type="text/css">*{stroke-linejoin: round; stroke-linecap: butt}</style>
 </defs>
 <g id="figure_1">
  <g id="patch_1">
   <path d="M 0 221.76 
L 143.56522 221.76 
L 143.56522 0 
L 0 0 
z
" style="fill: #ffffff"/>
  </g>
  <g id="axes_1">
   <g id="patch_2">
    <path d="M 135.148002 168.518733 
L 135.553746 170.615043 
L 135.63256 171.664421 
L 135.139245 176.97742 
L 135.553746 185.270243 
L 135.623802 186.153511 
L 135.921543 187.897101 
L 136.937362 191.429253 
L 136.988371 191.781728 
L 137.039528 192.135249 
L 136.782654 192.700835 
L 136.233878 193.365567 
L 135.57126 193.862819 
L 134.999132 193.918673 
L 134.663444 193.480867 
L 134.462032 192.760279 
L 134.246024 191.351815 
L 133.697248 189.950931 
L 132.967493 189.760094 
L 132.027568 189.995941 
L 130.833688 189.862713 
L 130.188584 189.60707 
L 129.887925 189.414445 
L 129.648565 189.126422 
L 129.452991 188.516225 
L 129.39461 187.933094 
L 129.27493 187.362626 
L 128.901296 186.792219 
L 127.996399 186.44137 
L 126.91928 187.933094 
L 126.026059 187.916897 
L 125.556097 188.001483 
L 125.240842 188.685417 
L 124.858451 190.168782 
L 124.070315 191.481479 
L 123.918526 192.090221 
L 123.912688 192.772889 
L 124.1141 194.15831 
L 124.079072 194.839445 
L 123.921445 195.872126 
L 123.825117 196.418285 
L 123.988582 197.036612 
L 124.201671 197.517984 
L 124.864289 198.235616 
L 125.051106 198.754968 
L 125.21749 199.294211 
L 126.37194 200.41401 
L 126.185766 201.760756 
L 126.144394 203.207326 
L 126.26851 204.634385 
L 126.565009 205.91821 
L 127.374061 207.355947 
L 127.509669 207.720064 
L 127.571727 208.375821 
L 128.088877 210.215496 
L 128.295736 210.665194 
L 128.380779 211.035228 
L 128.316422 211.41098 
L 128.077384 211.68 
L 127.902703 211.564704 
L 127.757901 211.311346 
L 127.613099 211.171862 
L 127.385553 210.855901 
L 126.737393 209.043039 
L 124.806701 204.964197 
L 124.330924 202.698566 
L 124.14475 202.343316 
L 122.671448 200.888457 
L 122.395635 200.436737 
L 121.935947 199.408434 
L 121.618762 198.851756 
L 120.366111 197.145165 
L 120.166146 196.580209 
L 120.124774 195.845004 
L 120.359215 193.591773 
L 120.30865 192.761953 
L 120.161549 192.096773 
L 118.594012 188.797652 
L 118.331989 188.466012 
L 118.019401 188.261937 
L 117.745886 187.761702 
L 117.555116 187.139664 
L 117.463178 186.563034 
L 117.63786 186.563034 
L 117.697619 186.680622 
L 117.720604 186.701873 
L 117.757379 186.70754 
L 117.849316 186.781211 
L 118.060773 186.157874 
L 118.400943 185.50345 
L 118.856034 185.132363 
L 119.389273 185.354729 
L 119.035313 184.965241 
L 118.752604 184.327961 
L 118.594012 183.604389 
L 118.600907 182.957367 
L 118.842243 182.56806 
L 119.235277 182.143395 
L 119.508792 181.657904 
L 119.389273 181.077639 
L 119.814484 180.487535 
L 119.89493 180.22859 
L 119.780008 179.891839 
L 119.950093 179.563599 
L 119.897228 179.265088 
L 119.690369 179.034497 
L 119.527179 178.963766 
L 119.605326 178.601636 
L 119.711055 178.289038 
L 119.711055 177.987773 
L 119.600729 177.711982 
L 119.559357 177.996259 
L 119.508792 178.10375 
L 119.389273 178.208416 
L 119.600729 178.208416 
L 119.232979 179.402316 
L 118.904301 179.903158 
L 118.428524 179.891839 
L 118.207873 179.477298 
L 118.28602 178.932644 
L 118.437718 178.383805 
L 118.428524 177.9708 
L 118.235455 177.9708 
L 118.090653 178.567688 
L 117.82863 178.522424 
L 117.573503 178.109408 
L 117.463178 177.603084 
L 117.555116 176.82531 
L 117.807944 176.63442 
L 118.171098 176.542513 
L 118.600907 176.073104 
L 118.428524 175.835587 
L 117.959642 176.231454 
L 117.761976 175.940206 
L 117.938956 175.417134 
L 118.600907 175.103316 
L 118.600907 174.863018 
L 117.293093 174.981752 
L 116.739169 175.196611 
L 116.304763 175.337971 
L 116.038144 175.048188 
L 116.084113 174.221337 
L 116.380612 173.477993 
L 116.888568 173.184077 
L 116.670216 172.828009 
L 116.780541 172.500223 
L 117.083935 172.223316 
L 117.463178 172.019884 
L 117.463178 171.759956 
L 117.166679 171.799509 
L 116.904657 171.952076 
L 116.684006 172.197887 
L 116.502429 172.514351 
L 116.350732 172.082043 
L 116.217422 171.364437 
L 116.093307 169.983191 
L 116.008264 169.652764 
L 115.608335 169.12328 
L 115.518696 168.809851 
L 115.518696 167.497052 
L 114.794687 163.954203 
L 114.746419 162.76112 
L 115.04062 162.900721 
L 115.132558 162.976869 
L 114.987756 162.518589 
L 114.739524 162.583451 
L 114.534963 163.026225 
L 114.534963 163.687639 
L 114.360281 163.687639 
L 114.056887 163.091093 
L 113.781074 162.333879 
L 113.601795 161.489375 
L 113.574214 160.633738 
L 113.71212 160.105206 
L 113.964949 159.766975 
L 114.215479 159.504861 
L 114.360281 159.192034 
L 114.318909 158.622796 
L 114.077573 158.338202 
L 113.776477 158.181823 
L 113.574214 157.988821 
L 113.484575 157.125336 
L 113.983337 156.712663 
L 114.714241 156.467611 
L 115.325627 156.098647 
L 115.633618 155.481892 
L 116.286376 153.028306 
L 116.111694 153.052231 
L 115.711765 153.028306 
L 115.649707 153.550453 
L 115.373894 154.884923 
L 115.422161 155.152424 
L 115.224495 155.334051 
L 114.905012 155.731119 
L 114.477502 156.135261 
L 113.97874 156.335232 
L 113.891399 156.508452 
L 113.194971 156.932376 
L 112.990409 157.278865 
L 113.06396 157.828227 
L 113.362757 158.090252 
L 113.721314 158.242401 
L 113.97874 158.460773 
L 113.967247 159.128626 
L 113.486873 159.551364 
L 112.87089 159.493588 
L 112.434186 158.718604 
L 111.946917 154.761033 
L 111.643522 153.501192 
L 109.733517 149.229991 
L 106.120366 143.50575 
L 105.223973 143.095629 
L 104.725211 142.576005 
L 104.327581 141.946914 
L 104.10693 141.406354 
L 103.88628 141.548158 
L 103.700106 141.381083 
L 103.57599 141.023085 
L 103.527723 140.590715 
L 103.585184 140.16821 
L 103.851803 139.745741 
L 104.026485 138.745158 
L 104.479278 137.288861 
L 104.493069 136.462701 
L 104.28391 136.462701 
L 104.187376 137.105102 
L 103.700106 138.913544 
L 103.419696 139.285419 
L 102.796818 139.504347 
L 102.41068 140.067151 
L 102.265878 140.832164 
L 102.353219 141.663288 
L 101.928007 141.29825 
L 101.514287 141.077836 
L 101.043107 140.964123 
L 100.424826 140.934643 
L 100.424826 141.191551 
L 101.017824 141.389507 
L 101.093672 141.716642 
L 100.810964 142.019929 
L 100.316799 142.156134 
L 98.852691 142.191239 
L 99.362945 142.375193 
L 99.820335 142.615326 
L 100.038687 142.820362 
L 99.958242 143.320348 
L 99.604282 143.613904 
L 99.128504 143.750153 
L 98.673413 143.783865 
L 98.645831 143.747344 
L 97.779319 143.542269 
L 97.655203 143.578789 
L 97.554071 143.57317 
L 97.514998 143.441139 
L 97.528789 142.915861 
L 97.514998 142.820362 
L 97.170232 142.678521 
L 96.742721 142.618135 
L 95.777376 142.604092 
L 95.777376 142.820362 
L 96.135933 143.184111 
L 96.266944 143.559124 
L 96.066979 143.80634 
L 95.411923 143.783865 
L 95.411923 144.039521 
L 97.048414 144.51575 
L 97.797706 144.874007 
L 98.110294 145.561091 
L 98.01376 146.007958 
L 97.788513 146.492814 
L 97.462747 147.820766 
L 96.892114 148.44972 
L 96.366182 148.932569 
L 95.626848 149.167574 
L 94.236652 149.492216 
L 93.159372 148.890733 
L 92.605214 147.9534 
L 92.295236 146.475948 
L 92.014826 146.066981 
L 91.711431 145.455703 
L 91.394246 144.406171 
L 91.157507 144.10133 
L 90.746085 144.25445 
L 91.168999 144.744751 
L 91.55054 145.697395 
L 91.775788 146.703635 
L 91.711431 147.36427 
L 91.136821 147.686186 
L 90.219742 147.856289 
L 89.36702 147.805679 
L 88.994673 147.458452 
L 88.819991 146.981934 
L 88.047714 146.353676 
L 87.873033 146.034659 
L 87.781095 145.721284 
L 87.367375 145.088974 
L 87.151322 144.111163 
L 86.841032 143.960856 
L 86.006698 144.039521 
L 85.875686 143.842861 
L 85.542412 142.604092 
L 85.32406 142.400469 
L 85.064336 142.261449 
L 84.848283 142.090137 
L 84.662109 141.473746 
L 84.26218 140.823741 
L 84.172541 140.590715 
L 84.131169 140.227162 
L 83.786402 139.285419 
L 83.579543 138.109552 
L 83.351997 137.507698 
L 83.09687 136.995691 
L 82.89001 136.422028 
L 82.807266 135.638086 
L 82.660166 135.21882 
L 80.476646 131.863224 
L 80.173251 130.95535 
L 80.108895 130.56031 
L 80.111193 130.189116 
L 80.435274 128.081562 
L 80.476646 126.671916 
L 80.637537 125.913374 
L 80.954722 125.244503 
L 81.184566 124.612102 
L 81.069644 123.963 
L 81.244325 123.963 
L 80.78004 122.842671 
L 80.759354 122.385385 
L 81.069644 122.086146 
L 80.973109 122.052588 
L 80.890365 122.049791 
L 80.844396 122.003649 
L 80.858187 121.828871 
L 80.14567 122.111315 
L 79.662997 121.391258 
L 79.391781 120.361001 
L 79.318231 119.718079 
L 79.350409 117.700441 
L 79.589447 116.918214 
L 80.283576 116.436371 
L 81.929261 116.446147 
L 82.591212 116.038365 
L 82.614197 114.776145 
L 82.483186 114.30709 
L 82.324593 114.111664 
L 82.04878 114.078163 
L 81.552317 114.092122 
L 81.47417 114.234502 
L 81.7247 114.549988 
L 82.228059 115.007899 
L 82.034989 115.711607 
L 81.538526 115.389061 
L 81.228236 115.356947 
L 80.683505 115.711607 
L 79.966391 115.979715 
L 79.561866 116.286941 
L 79.43775 116.164048 
L 79.007941 114.809651 
L 79.118266 113.838082 
L 79.573358 113.039761 
L 80.283576 112.667165 
L 80.108895 112.432739 
L 80.058329 112.573673 
L 80.056031 112.608558 
L 80.021554 112.61693 
L 79.897438 112.667165 
L 79.681385 112.342041 
L 79.214801 112.400646 
L 78.178203 112.880672 
L 78.339094 113.360747 
L 78.196591 113.65105 
L 77.851825 113.793417 
L 77.408225 113.838082 
L 76.932448 113.793417 
L 76.566995 113.65105 
L 75.849881 113.136054 
L 76.077427 113.667799 
L 76.472759 114.016746 
L 76.941641 114.217751 
L 77.408225 114.30709 
L 78.458613 114.35176 
L 78.688458 114.626768 
L 78.748217 117.703235 
L 78.663175 118.077634 
L 78.442524 118.284404 
L 78.210382 118.783206 
L 78.0357 119.391061 
L 77.985134 119.93191 
L 77.035878 119.47491 
L 71.503527 118.27183 
L 70.430155 117.828962 
L 69.467107 117.116552 
L 69.439526 117.513253 
L 69.706145 117.884842 
L 73.369862 120.363796 
L 73.811163 120.774754 
L 74.073185 121.202523 
L 74.250166 121.627536 
L 74.498397 121.953312 
L 75.39479 122.172839 
L 76.178559 122.61612 
L 76.61986 122.790927 
L 78.470106 123.02308 
L 78.702248 123.249651 
L 79.529687 124.665265 
L 79.649206 125.230511 
L 79.752636 126.44518 
L 79.635416 126.249245 
L 79.419362 125.910575 
L 79.159638 125.605514 
L 79.297545 126.274436 
L 79.423959 128.308376 
L 79.318231 129.127519 
L 78.550551 130.358601 
L 78.371272 130.56031 
L 78.0357 130.467859 
L 77.966747 130.180712 
L 78.097758 129.838958 
L 78.371272 129.598065 
L 78.371272 129.362786 
L 78.178203 129.362786 
L 77.863317 129.84176 
L 77.553027 130.183513 
L 77.162292 130.41323 
L 76.61986 130.56031 
L 75.560278 130.526692 
L 75.208616 130.682181 
L 75.075306 131.253752 
L 75.109783 131.473713 
L 75.229302 132.224741 
L 75.622336 133.308055 
L 76.150977 134.339745 
L 76.716394 135.168343 
L 76.78075 135.343615 
L 76.732483 135.74466 
L 76.812929 135.991475 
L 76.88418 136.030742 
L 76.994506 136.039156 
L 77.111726 136.078424 
L 77.199067 136.204643 
L 77.53464 136.501972 
L 77.649562 136.737604 
L 77.50476 137.061618 
L 77.084145 137.301486 
L 76.66353 137.250987 
L 76.24981 137.128948 
L 75.849881 137.166822 
L 75.309747 137.936985 
L 75.052322 139.086147 
L 74.712152 140.046097 
L 73.91919 140.251023 
L 74.371983 140.698804 
L 74.257061 141.162069 
L 73.875519 141.340368 
L 73.533052 140.934643 
L 72.919368 141.397931 
L 73.333087 141.747532 
L 74.13984 142.050821 
L 74.689168 142.368171 
L 74.953489 141.734895 
L 75.436162 141.831777 
L 75.92573 142.309193 
L 76.233721 142.820362 
L 76.318764 143.175684 
L 76.42679 144.25445 
L 76.771557 145.36718 
L 76.877285 146.57433 
L 76.801436 146.824511 
L 76.523325 147.234947 
L 76.275093 147.390978 
L 75.631529 147.499219 
L 75.367208 147.686186 
L 75.204019 148.207763 
L 74.884536 150.12444 
L 74.882237 150.646277 
L 74.964981 150.283376 
L 75.139663 150.075213 
L 75.332732 149.920502 
L 75.463743 149.701103 
L 75.489026 149.339678 
L 75.401685 148.657685 
L 75.463743 148.28509 
L 75.741855 147.814114 
L 76.160171 147.532957 
L 76.66353 147.445801 
L 77.199067 147.555449 
L 78.205785 148.272436 
L 78.716039 149.262334 
L 79.051611 150.411373 
L 79.529687 151.609924 
L 79.09758 151.445317 
L 78.952778 151.352464 
L 78.959674 152.134734 
L 79.161937 152.76655 
L 79.722757 153.992421 
L 79.862962 154.69205 
L 79.888244 155.410083 
L 79.722757 156.82956 
L 78.821767 159.483724 
L 78.155219 160.691528 
L 77.601294 160.846576 
L 76.849704 161.31739 
L 76.550906 161.614843 
L 76.42679 161.923593 
L 76.360136 162.393098 
L 76.187752 162.934565 
L 75.378701 164.552263 
L 75.107485 164.938782 
L 74.785703 165.105249 
L 74.413355 165.006497 
L 73.932981 164.761036 
L 73.519261 164.456343 
L 73.339982 164.182699 
L 73.503172 163.32378 
L 74.188108 161.672644 
L 74.305328 160.846576 
L 73.976651 159.862804 
L 73.91919 159.407629 
L 74.091573 158.321296 
L 74.001934 157.89021 
L 73.533052 157.752158 
L 73.657167 158.470635 
L 73.374459 160.003734 
L 73.436517 160.502657 
L 73.66866 160.730994 
L 73.850237 160.824024 
L 73.990442 160.956523 
L 74.09617 161.300474 
L 74.057096 161.568321 
L 73.926085 161.805166 
L 73.710032 162.053302 
L 73.670958 162.112518 
L 73.613497 162.171734 
L 73.558334 162.29017 
L 73.484784 162.782271 
L 73.374459 162.76676 
L 73.236553 162.687795 
L 73.130824 162.76112 
L 73.04808 163.108015 
L 72.953844 164.182699 
L 72.843519 164.625614 
L 72.726298 164.924675 
L 72.209149 165.821965 
L 71.850592 166.290425 
L 71.77934 166.420247 
L 71.657523 167.02989 
L 71.112792 168.294572 
L 70.993273 168.928444 
L 70.869157 170.250089 
L 70.607135 171.546654 
L 70.386484 172.224729 
L 70.099179 172.689545 
L 68.543133 174.215684 
L 68.152398 174.523794 
L 67.616861 174.649587 
L 67.039952 174.535101 
L 65.978072 174.030545 
L 65.477012 173.916072 
L 65.02192 173.632023 
L 64.897804 173.059733 
L 65.090873 172.618902 
L 65.573546 172.729106 
L 65.362089 172.243095 
L 65.527577 171.90122 
L 65.810286 171.581969 
L 65.961983 171.169515 
L 65.913716 170.872908 
L 65.837867 170.678004 
L 65.824076 170.461924 
L 65.961983 170.101811 
L 65.679274 170.539599 
L 65.178214 171.953488 
L 64.906998 172.257222 
L 64.63808 172.358942 
L 64.286418 172.828009 
L 64.031291 172.969303 
L 63.789955 172.911372 
L 63.422204 172.559562 
L 63.086632 172.514351 
L 63.279701 171.584794 
L 63.355549 169.699362 
L 63.665839 168.915737 
L 63.927861 168.664438 
L 64.25424 168.438563 
L 64.576022 168.157644 
L 64.819657 167.732766 
L 64.955265 167.204894 
L 65.010428 166.770218 
L 65.106962 166.349691 
L 65.380477 165.85865 
L 66.54119 164.653827 
L 66.679097 164.4507 
L 66.883658 164.033188 
L 67.030758 163.814573 
L 67.27899 163.683408 
L 67.531819 163.759568 
L 67.754768 163.897786 
L 67.906465 163.94292 
L 68.501762 163.467628 
L 68.940764 162.690615 
L 69.149922 161.768511 
L 69.06488 160.846576 
L 68.561521 162.342339 
L 68.209859 163.130579 
L 67.80993 163.471859 
L 67.051444 163.586094 
L 66.584861 163.899197 
L 64.906998 165.965884 
L 64.707033 166.318647 
L 64.479488 167.073641 
L 64.120931 167.713005 
L 64.03359 167.95861 
L 63.877296 168.122353 
L 63.47277 168.20705 
L 63.19236 168.153409 
L 62.293669 167.732766 
L 62.456858 167.251469 
L 62.486738 166.722237 
L 62.700493 166.311591 
L 62.967113 166.047723 
L 63.215344 165.903801 
L 63.396921 165.666762 
L 63.47277 165.127821 
L 63.376235 164.093838 
L 63.500351 163.708794 
L 63.603781 163.189807 
L 63.868102 162.848546 
L 64.182989 162.687795 
L 64.447309 162.469238 
L 64.610499 162.053302 
L 63.881893 162.350799 
L 63.527933 162.952896 
L 63.086632 164.653827 
L 62.831505 165.040354 
L 62.073019 165.900979 
L 61.909829 166.19306 
L 61.978782 167.760996 
L 61.909829 168.20705 
L 61.486916 168.623498 
L 60.976662 168.40327 
L 60.544554 167.820279 
L 60.369873 167.141384 
L 60.31471 166.798443 
L 60.066479 166.011037 
L 59.983735 165.60186 
L 59.921677 163.040327 
L 59.659654 161.607794 
L 59.597596 160.739451 
L 59.524046 160.403996 
L 59.163191 159.747245 
L 59.018389 159.407629 
L 58.91266 158.955314 
L 58.875885 158.5918 
L 58.917257 158.21986 
L 59.018389 157.752158 
L 59.57691 156.170466 
L 61.909829 152.319064 
L 62.066123 151.887096 
L 62.169553 151.467827 
L 62.337339 151.087984 
L 62.682106 150.764437 
L 61.909829 151.352464 
L 61.817891 151.460793 
L 60.912305 152.511844 
L 60.52157 153.070527 
L 60.369873 153.618013 
L 60.149222 154.166967 
L 59.659654 154.007905 
L 58.806932 153.240818 
L 58.862095 153.965677 
L 59.022986 154.555495 
L 59.124117 155.146792 
L 59.018389 155.883197 
L 57.841586 158.460773 
L 58.184054 159.196262 
L 58.480553 160.426547 
L 58.806932 162.76112 
L 58.846006 163.966897 
L 58.763262 164.555084 
L 58.526522 164.999443 
L 58.053043 165.291472 
L 57.639324 165.244916 
L 57.204918 165.105249 
L 56.669381 165.105249 
L 56.669381 165.364835 
L 57.266976 165.658296 
L 57.763439 166.025147 
L 58.10131 166.565595 
L 58.227725 167.378493 
L 58.19095 167.710182 
L 58.046148 168.334098 
L 58.053043 168.701144 
L 58.167965 169.020214 
L 58.549507 169.707834 
L 58.777052 170.368716 
L 59.052865 170.759919 
L 59.211458 171.207651 
L 59.018389 171.759956 
L 58.816126 171.850364 
L 58.186353 171.991631 
L 57.460045 172.729106 
L 57.301452 172.962238 
L 57.24629 173.123318 
L 57.149755 173.266033 
L 56.880838 173.441253 
L 56.363688 173.678657 
L 56.062592 173.725291 
L 55.933879 173.559953 
L 55.784481 173.059733 
L 55.432819 173.158643 
L 55.009906 173.487885 
L 54.653647 173.678657 
L 54.182466 173.639089 
L 53.653825 173.511907 
L 53.171152 173.291467 
L 52.830982 172.969303 
L 52.706866 172.699435 
L 52.601138 172.330686 
L 52.585049 171.945012 
L 52.888443 171.339012 
L 52.830982 171.008497 
L 52.426456 170.339059 
L 51.635792 172.257222 
L 51.957574 172.89583 
L 52.504604 173.767687 
L 53.134377 174.535101 
L 53.699794 174.863018 
L 53.943428 175.209333 
L 53.640034 175.892138 
L 53.02635 176.389809 
L 52.329922 176.180555 
L 51.989752 175.931724 
L 51.674866 175.921827 
L 50.971543 176.073104 
L 50.895694 176.268214 
L 51.205984 177.195799 
L 51.268042 177.495603 
L 50.730206 178.129209 
L 50.130313 177.693597 
L 49.323559 176.288008 
L 49.374125 175.674422 
L 49.047746 174.238297 
L 49.13049 173.441253 
L 49.358036 172.994736 
L 49.882081 172.293954 
L 50.095836 171.759956 
L 50.185475 171.186464 
L 50.068255 168.672909 
L 50.288905 166.657322 
L 50.440602 165.947542 
L 51.116344 164.576243 
L 51.268042 163.814573 
L 51.171507 163.076991 
L 50.923275 162.352209 
L 50.573912 161.706479 
L 50.192371 161.191929 
L 50.173983 160.709852 
L 51.040496 159.411857 
L 51.268042 158.836957 
L 51.30022 158.097295 
L 51.399053 157.383098 
L 51.578331 156.70703 
L 51.847249 156.098647 
L 51.536959 156.366214 
L 51.274937 156.804209 
L 50.8865 157.752158 
L 50.557823 158.132515 
L 50.454393 158.435413 
L 50.70952 159.234307 
L 50.544032 159.534454 
L 49.999301 160.007962 
L 49.663729 160.625281 
L 49.695907 161.080568 
L 50.288905 162.2662 
L 50.431409 162.696256 
L 50.500362 163.029045 
L 50.516451 163.814573 
L 50.449796 164.229245 
L 50.160192 164.89364 
L 50.095836 165.236451 
L 49.870589 167.447652 
L 49.728085 167.947318 
L 49.20404 168.271986 
L 48.974196 167.735589 
L 48.937421 166.19306 
L 49.01327 165.829019 
L 49.305172 165.110892 
L 49.323559 164.653827 
L 48.050222 161.210255 
L 47.976672 160.502657 
L 48.109982 158.952496 
L 48.077804 158.262125 
L 47.799692 157.515506 
L 47.590534 157.515506 
L 47.356093 159.803615 
L 47.590534 164.182699 
L 47.799692 164.182699 
L 47.824975 163.694691 
L 47.958285 163.247627 
L 48.109982 162.995201 
L 48.185831 163.095324 
L 48.224904 163.395703 
L 48.323737 163.818804 
L 48.468539 164.237708 
L 48.640922 164.535336 
L 48.792619 164.931729 
L 48.767336 165.435377 
L 48.532895 166.311591 
L 48.39269 166.468225 
L 48.045626 166.541605 
L 47.976672 166.657322 
L 48.004254 166.90852 
L 48.06861 167.075052 
L 48.185831 167.259937 
L 48.28926 167.6509 
L 48.634027 168.500677 
L 48.840887 168.809851 
L 48.891452 169.048451 
L 48.62943 170.894093 
L 48.339826 171.296637 
L 47.967479 171.614458 
L 47.590534 172.019884 
L 47.275647 172.627379 
L 47.248066 173.119079 
L 47.344601 173.689962 
L 47.413554 174.53086 
L 47.310124 175.332316 
L 47.038908 175.989689 
L 46.657366 176.536857 
L 45.632261 177.555 
L 45.315076 177.588942 
L 44.593365 176.652802 
L 44.441668 176.135312 
L 44.400296 175.244673 
L 44.487637 173.678657 
L 44.639334 173.045603 
L 45.007085 171.980329 
L 45.082934 171.169515 
L 44.961116 170.470397 
L 44.434773 169.299769 
L 44.310657 168.701144 
L 44.101499 168.701144 
L 43.924519 169.231996 
L 44.004964 169.678181 
L 44.186541 170.113108 
L 44.310657 170.597502 
L 44.310657 171.152565 
L 44.207227 171.470377 
L 43.73145 172.019884 
L 43.441846 172.438059 
L 43.264866 172.785622 
L 42.80058 174.071529 
L 42.662674 174.357016 
L 42.52017 174.368323 
L 42.363876 173.916072 
L 42.173106 173.916072 
L 42.186896 174.793758 
L 42.4765 176.14945 
L 42.363876 176.999239 
L 41.883502 178.199929 
L 41.966246 178.59032 
L 42.556946 178.918498 
L 42.228268 179.354215 
L 41.743297 179.757428 
L 41.17788 180.038988 
L 40.628552 180.106904 
L 40.097612 179.753183 
L 39.927528 179.108059 
L 40.035554 178.484233 
L 40.327457 178.208416 
L 40.387216 177.830782 
L 39.51151 174.987406 
L 39.470138 174.693403 
L 39.454048 174.283523 
L 39.332231 174.140779 
L 39.070209 174.334403 
L 38.801291 174.676442 
L 38.68407 174.984579 
L 38.518583 175.140068 
L 38.143936 175.022744 
L 37.525655 174.649587 
L 37.233753 174.352776 
L 37.109637 174.1323 
L 36.410911 171.300875 
L 36.351151 170.716137 
L 36.424702 170.000136 
L 36.725798 168.545852 
L 36.73729 167.732766 
L 36.532728 167.005898 
L 35.905254 166.023736 
L 35.774242 165.483346 
L 35.946626 163.890734 
L 35.859285 163.237755 
L 35.867697 163.216404 
L 36.361012 162.510806 
L 36.305551 161.672814 
L 36.150842 160.987125 
L 35.912942 160.407139 
L 34.679656 158.567384 
L 34.411106 157.842765 
L 34.818309 157.524324 
L 34.349806 156.603107 
L 34.196557 156.179226 
L 33.85941 154.337465 
L 33.856491 153.999586 
L 33.932386 153.643854 
L 34.174665 153.188055 
L 34.224288 152.916383 
L 34.107527 152.112179 
L 33.587941 150.739975 
L 33.333987 149.461027 
L 32.99684 149.153844 
L 32.119674 148.762748 
L 32.750182 148.28419 
L 32.922405 147.489674 
L 32.798346 146.559629 
L 32.525418 145.676162 
L 32.176594 144.946308 
L 32.061293 144.179098 
L 31.964965 143.734885 
L 31.627818 142.737785 
L 31.559221 142.110021 
L 31.751877 141.640143 
L 32.07005 141.204187 
L 32.370709 140.676456 
L 32.493308 140.216522 
L 32.604231 139.54631 
L 32.650936 138.87619 
L 32.586717 138.411083 
L 32.264165 138.062727 
L 31.47457 137.775865 
L 31.14472 137.320662 
L 30.543402 135.696183 
L 30.248581 135.157483 
L 29.71294 134.393614 
L 29.600558 134.006384 
L 29.618072 133.33259 
L 29.880784 132.351888 
L 29.95376 130.585889 
L 30.334692 129.720478 
L 31.868638 127.876339 
L 32.624664 127.171417 
L 32.874241 126.846104 
L 33.018732 126.479932 
L 33.023111 126.196435 
L 32.861105 126.033809 
L 32.090483 126.064912 
L 31.839447 125.99382 
L 31.601547 125.861414 
L 29.62391 125.091936 
L 29.145191 124.983543 
L 28.774475 125.049289 
L 28.532196 125.231428 
L 28.341 125.430455 
L 28.114776 125.548632 
L 27.818495 125.545078 
L 25.963457 124.8716 
L 25.583984 124.488703 
L 25.302299 123.826924 
L 25.283325 123.080869 
L 25.540199 122.417513 
L 26.224709 121.191395 
L 27.598109 117.105189 
L 27.662328 116.365531 
L 27.285774 116.023235 
L 26.915058 116.348682 
L 26.58229 116.921594 
L 26.229088 117.076807 
L 25.811668 116.147381 
L 25.505171 115.988652 
L 24.677628 115.353792 
L 24.201827 114.778414 
L 23.540669 113.447962 
L 23.117411 112.935738 
L 22.892646 112.88257 
L 22.335113 112.951689 
L 22.049049 112.814337 
L 21.774661 112.482051 
L 21.757147 112.256111 
L 21.850555 111.995628 
L 21.906017 111.565953 
L 21.761525 111.437501 
L 21.471083 111.371062 
L 21.205452 111.222242 
L 21.164585 110.838697 
L 21.760066 107.718389 
L 21.719199 107.400634 
L 21.514868 106.882006 
L 21.520706 106.554575 
L 21.660819 106.188234 
L 22.07532 105.461833 
L 22.221271 105.063734 
L 22.22419 104.752355 
L 22.162891 104.446306 
L 22.132241 104.135854 
L 22.22419 103.809505 
L 22.675179 103.407129 
L 23.228334 103.375294 
L 23.815057 103.433658 
L 24.356536 103.308972 
L 24.734549 102.976493 
L 25.80583 101.805936 
L 26.080218 101.414345 
L 26.164869 100.799182 
L 26.086056 100.071877 
L 25.916753 99.417138 
L 25.725557 99.016036 
L 26.071461 98.352618 
L 26.399851 97.86682 
L 26.386715 97.542691 
L 25.706583 97.36253 
L 25.619012 96.931588 
L 25.08775 96.42034 
L 24.949097 96.030099 
L 24.985585 95.715813 
L 25.166564 95.004336 
L 25.200133 94.607158 
L 25.067317 93.911741 
L 25.061479 93.582603 
L 25.222025 93.164377 
L 25.505171 92.864407 
L 26.129841 92.605038 
L 26.568976 92.371048 
L 26.573532 92.36862 
L 26.664022 92.075761 
L 26.990953 91.541254 
L 27.08728 91.228166 
L 27.021602 91.101173 
L 26.950086 90.541212 
L 26.896084 90.399249 
L 26.739917 89.049504 
L 26.091894 88.083511 
L 25.166564 87.453438 
L 24.555029 87.304525 
L 24.25437 88.085274 
L 23.831112 88.809749 
L 23.2079 88.852057 
L 21.814068 88.329396 
L 19.985301 88.235095 
L 19.337278 88.081749 
L 17.244339 86.242012 
L 9.830024 81.954039 
L 9.015617 81.758671 
L 8.958696 81.521072 
L 8.700363 81.026557 
L 8.452246 80.668464 
L 8.339864 80.541775 
L 8.310674 80.371102 
L 8.310674 78.59615 
L 8.221643 78.392138 
L 7.810061 77.922596 
L 7.526916 77.227169 
L 7.065711 77.011793 
L 6.525692 76.835985 
L 6.677481 75.811162 
L 6.911003 75.196033 
L 7.278799 74.604713 
L 7.413074 73.116665 
L 7.72541 72.974388 
L 8.084449 72.905885 
L 8.282943 72.590613 
L 8.32089 72.129601 
L 8.402623 71.717806 
L 8.587981 71.480756 
L 8.954318 71.549236 
L 9.225787 70.93208 
L 9.616936 70.507233 
L 9.891324 70.071896 
L 9.809591 69.429504 
L 9.438875 68.252912 
L 9.308979 67.959911 
L 9.15573 67.781839 
L 9.15573 67.632721 
L 10.556861 66.794246 
L 11.079366 66.595176 
L 11.628142 66.652177 
L 12.089347 66.996833 
L 12.486334 67.569566 
L 12.741748 68.231857 
L 12.76656 68.848625 
L 13.108086 68.870561 
L 14.293208 69.218905 
L 14.767549 69.266289 
L 15.025883 69.049555 
L 15.538171 68.049388 
L 16.520422 66.641654 
L 16.864866 65.85598 
L 16.953897 64.962627 
L 17.606298 64.065956 
L 17.936147 63.064326 
L 18.172588 60.840204 
L 18.096694 58.929741 
L 18.374001 58.364297 
L 19.337278 58.182251 
L 19.801402 58.317035 
L 20.685866 58.700403 
L 21.444811 58.926239 
L 21.576167 58.994518 
L 21.708983 59.006773 
L 22.028616 58.922738 
L 22.227109 58.779182 
L 22.577392 58.350293 
L 22.831347 58.248767 
L 23.823814 58.278525 
L 24.680547 58.460575 
L 26.373579 59.152088 
L 28.059314 59.339428 
L 28.288458 59.148586 
L 28.575981 58.418563 
L 28.762799 58.177 
L 28.987563 58.124488 
L 29.171462 58.191003 
L 29.358279 58.310033 
L 31.290671 59.055794 
L 32.01167 59.104816 
L 31.601547 58.383553 
L 32.116755 58.262771 
L 32.198487 57.926699 
L 32.119674 57.476896 
L 32.150323 57.020141 
L 32.395521 56.656173 
L 33.456585 55.807619 
L 33.655079 55.48049 
L 33.728054 55.139394 
L 33.665296 54.817564 
L 33.456585 54.54123 
L 32.077348 54.614684 
L 31.410351 54.514997 
L 30.93747 53.985119 
L 30.769626 53.836486 
L 30.178524 53.79452 
L 29.889541 53.710589 
L 29.691048 53.520002 
L 29.022592 52.612646 
L 28.901452 52.24906 
L 28.87956 51.922209 
L 28.797827 51.639076 
L 28.494249 51.396155 
L 28.485492 51.189946 
L 28.965671 49.989593 
L 28.926264 49.266403 
L 28.66939 48.824515 
L 28.31035 48.476976 
L 27.967365 48.029934 
L 27.723627 47.801193 
L 26.865435 47.436281 
L 26.882949 48.029934 
L 26.602723 48.171376 
L 26.334173 48.157406 
L 26.080218 48.110259 
L 25.855453 48.148675 
L 25.557713 48.421094 
L 25.315434 48.749416 
L 25.061479 49.020128 
L 24.73017 49.12143 
L 24.139068 48.971224 
L 23.228334 48.326793 
L 22.675179 48.033427 
L 21.471083 47.98628 
L 20.887278 47.86056 
L 20.609971 47.553259 
L 20.392504 47.066164 
L 19.624801 46.427265 
L 19.337278 45.753561 
L 18.274754 45.170704 
L 17.879226 44.751935 
L 17.756628 42.674422 
L 17.009358 41.764206 
L 14.955826 40.263312 
L 13.251118 38.113162 
L 12.334545 37.599315 
L 11.070609 37.998194 
L 10.605025 38.294331 
L 10.046032 38.560872 
L 9.517689 38.588746 
L 9.15573 38.17239 
L 8.961615 37.531388 
L 8.8288 37.244015 
L 8.383649 36.698932 
L 8.383649 36.395947 
L 8.423056 36.10343 
L 8.227481 35.591577 
L 8.011474 34.09991 
L 8.096125 33.94329 
L 8.244996 33.837141 
L 8.396785 33.591789 
L 8.91929 31.681685 
L 9.465147 30.556572 
L 10.175928 29.953279 
L 10.370043 29.310097 
L 10.327717 28.941618 
L 10.174469 28.753915 
L 9.999328 28.635736 
L 9.897162 28.468902 
L 9.862134 28.13699 
L 9.903 27.963226 
L 9.99057 27.782519 
L 10.305825 26.686287 
L 10.536428 26.28331 
L 11.471974 25.638979 
L 11.718631 25.411491 
L 11.896692 25.164915 
L 12.092266 24.949607 
L 12.400223 24.819387 
L 12.979649 24.685698 
L 14.628896 24.078078 
L 15.12513 23.748266 
L 15.358651 23.248392 
L 15.313406 22.025007 
L 15.417032 21.535758 
L 15.843209 20.892192 
L 16.269386 20.47419 
L 17.597541 19.575896 
L 17.806251 19.289802 
L 17.941985 18.981191 
L 18.102532 18.837296 
L 18.394434 19.041871 
L 18.581251 19.132026 
L 18.845423 19.145896 
L 19.125649 19.111221 
L 19.337278 19.052273 
L 19.964867 19.156299 
L 19.903568 18.305104 
L 19.337278 16.49584 
L 18.934453 15.763012 
L 18.184264 15.38539 
L 16.55545 15.044175 
L 15.895751 14.734164 
L 15.697258 14.753214 
L 15.598011 14.981825 
L 15.519197 15.75435 
L 15.389301 15.953569 
L 15.020045 15.834036 
L 14.809875 15.388854 
L 14.774847 14.836344 
L 14.929555 14.387811 
L 15.297352 13.726361 
L 15.875318 11.581745 
L 16.085488 11.098978 
L 16.431392 10.479602 
L 16.791891 10.08 
L 17.048765 10.265092 
L 17.09255 10.882704 
L 17.066279 11.592127 
L 17.148012 12.251487 
L 17.518727 12.7067 
L 18.519952 13.026938 
L 18.969481 13.251987 
L 19.337278 13.715973 
L 19.690479 14.024173 
L 19.994058 14.389542 
L 20.22466 14.631986 
L 20.789491 15.042443 
L 21.437514 15.335158 
L 21.669576 15.366336 
L 22.267976 15.355944 
L 22.606582 15.517034 
L 22.796318 15.84443 
L 22.956865 16.222096 
L 23.181629 16.53569 
L 23.488127 16.747077 
L 23.788786 16.896094 
L 24.445566 17.062446 
L 24.322967 17.332782 
L 24.264586 17.623933 
L 24.331724 17.854444 
L 24.5813 17.942838 
L 24.79147 18.048568 
L 24.76082 18.637932 
L 24.928664 18.887572 
L 25.575227 19.237787 
L 25.9547 19.562024 
L 26.026216 19.976461 
L 25.764963 20.6008 
L 25.401545 20.930352 
L 24.360914 21.492388 
L 24.150744 21.730062 
L 24.646978 22.1187 
L 27.034738 21.176667 
L 28.053476 21.598212 
L 28.279701 22.113494 
L 28.462139 22.682638 
L 28.730689 23.159879 
L 29.20649 23.390711 
L 29.6531 23.206739 
L 30.076358 22.096144 
L 30.645568 21.684955 
L 31.405973 21.834158 
L 32.652395 23.177235 
L 33.456585 23.465343 
L 34.703008 23.125169 
L 35.275136 22.698256 
L 35.123347 22.073588 
L 34.818309 21.971221 
L 34.481162 21.959076 
L 34.276831 21.740472 
L 34.378996 21.02055 
L 34.114825 21.209625 
L 33.86233 21.280748 
L 33.637565 21.199217 
L 33.456585 20.926883 
L 33.193874 19.969525 
L 32.493308 19.579364 
L 31.680361 19.282867 
L 31.099475 18.61713 
L 31.081961 18.046835 
L 31.314024 17.419432 
L 31.667225 16.857973 
L 32.023346 16.492375 
L 32.48747 16.248084 
L 32.745804 16.331245 
L 33.004137 16.611927 
L 33.456585 16.970605 
L 33.773299 17.143891 
L 34.203855 17.665528 
L 34.460729 17.899507 
L 34.768686 18.031235 
L 35.388978 18.204568 
L 35.640014 18.421244 
L 35.77137 18.823427 
L 35.68088 19.114688 
L 35.712989 19.347019 
L 36.182952 19.562024 
L 36.857246 19.766636 
L 37.060118 20.007676 
L 37.077632 20.465519 
L 36.830975 20.606004 
L 36.422311 20.401348 
L 36.0983 20.446441 
L 36.114355 21.348402 
L 36.296794 21.896617 
L 36.861624 22.904765 
L 37.073253 23.437573 
L 37.308235 25.475742 
L 37.519864 26.076627 
L 37.870146 26.509111 
L 39.741239 27.384644 
L 40.158659 27.678268 
L 40.45348 28.095286 
L 40.628622 28.746963 
L 40.865062 29.052854 
L 41.863368 29.54476 
L 42.539121 30.396612 
L 43.054329 30.779135 
L 43.623538 31.055617 
L 44.080365 31.113003 
L 44.540111 30.824345 
L 44.878717 30.49224 
L 45.208567 30.487024 
L 45.637663 31.173867 
L 45.769019 31.236471 
L 45.906213 31.255601 
L 46.049245 31.236471 
L 46.195196 31.177345 
L 46.196655 31.173867 
L 47.727682 31.033011 
L 47.869255 31.050401 
L 48.010827 31.097352 
L 48.143643 31.173867 
L 48.542089 31.92866 
L 48.788747 32.283497 
L 49.07773 32.450489 
L 49.452824 32.363513 
L 49.661534 32.055632 
L 49.738888 31.629509 
L 49.706779 31.173867 
L 49.946139 30.259261 
L 51.180885 29.148449 
L 51.420245 28.578386 
L 51.208616 28.15958 
L 50.839359 28.147417 
L 50.44821 28.227351 
L 50.167984 28.07791 
L 50.165065 27.678268 
L 50.474482 27.40028 
L 50.888983 27.174429 
L 51.218832 26.946854 
L 50.697787 26.873893 
L 50.235122 26.632439 
L 50.048305 26.212099 
L 50.348964 25.60251 
L 50.532862 25.42191 
L 50.725518 25.31772 
L 50.929849 25.300356 
L 51.506356 25.486161 
L 51.531167 25.321193 
L 51.338512 24.932244 
L 51.280132 23.913169 
L 51.475706 23.63197 
L 52.085782 23.41501 
L 52.59661 23.520885 
L 52.7484 24.019057 
L 52.732764 24.713938 
L 52.71629 25.446221 
L 52.675424 25.583408 
L 52.742561 25.652872 
L 53.087006 25.8248 
L 53.294257 25.857797 
L 53.857628 25.802223 
L 54.108664 25.823063 
L 54.445811 26.113099 
L 54.610735 26.613331 
L 54.736253 27.16748 
L 54.961018 27.624407 
L 55.331734 28.185646 
L 55.368221 28.600979 
L 55.299624 29.021568 
L 55.34195 29.609077 
L 55.501037 29.916771 
L 56.081922 30.730448 
L 56.295011 31.172128 
L 56.449719 31.412116 
L 56.621941 31.479941 
L 56.80584 31.389508 
L 56.998495 31.172128 
L 57.007252 31.172128 
L 57.011631 31.16865 
L 57.059794 31.140826 
L 57.106499 31.130393 
L 57.147365 31.137349 
L 57.179474 31.172128 
L 57.557488 31.700816 
L 57.471377 32.161736 
L 57.07439 32.514853 
L 56.522694 32.720127 
L 57.051037 33.068073 
L 57.494729 33.111569 
L 57.719493 33.304694 
L 57.596894 34.105131 
L 56.379662 36.423806 
L 56.271659 37.256206 
L 56.791244 40.282483 
L 57.43197 41.989125 
L 57.719493 43.316229 
L 57.456781 45.688989 
L 57.404239 48.234241 
L 56.990134 49.911874 
L 56.767892 50.812505 
L 56.726514 51.149828 
L 56.607346 52.121463 
L 56.706593 53.275224 
L 56.956169 54.47827 
L 57.286019 55.139394 
L 57.725331 55.225103 
L 58.730934 54.780835 
L 59.802215 54.735362 
L 66.070814 57.623908 
L 70.50043 58.69165 
L 72.695534 59.710633 
L 73.688001 59.743903 
L 76.5574 59.073302 
L 78.872184 59.30266 
L 80.004764 58.984013 
L 80.40467 58.996269 
L 80.725762 59.106567 
L 81.335838 59.412966 
L 82.383767 59.609074 
L 82.628965 59.589813 
L 82.789511 59.486505 
L 83.09017 59.138081 
L 83.23904 59.052293 
L 83.691488 59.115321 
L 84.056366 59.353436 
L 84.409568 59.644094 
L 84.82115 59.866478 
L 85.612205 59.971546 
L 88.799201 59.494816 
L 89.042055 59.45849 
L 89.938195 59.106567 
L 94.462678 58.313534 
L 96.030193 58.37305 
L 96.377557 58.310033 
L 96.99347 57.961706 
L 97.297048 57.951204 
L 98.660231 58.728413 
L 102.837351 60.118645 
L 103.943661 60.255241 
L 104.218049 60.209709 
L 104.787258 60.010071 
L 105.090836 59.964541 
L 105.423605 59.873483 
L 105.896486 59.451487 
L 106.138765 59.334176 
L 106.629161 59.372695 
L 106.836411 59.633588 
L 107.026147 60.018827 
L 107.478596 60.425117 
L 107.957315 60.552967 
L 108.678314 60.589746 
L 109.338013 60.482912 
L 109.626996 60.167679 
L 109.772947 59.621331 
L 110.096958 59.609074 
L 110.461836 59.806941 
L 110.712872 59.890994 
L 110.911365 59.715886 
L 111.080669 59.306162 
L 111.261648 59.118823 
L 111.690744 59.054044 
L 113.056846 59.190606 
L 116.075115 58.775681 
L 117.648467 59.040037 
L 118.179729 58.850959 
L 118.932837 58.593617 
L 119.843571 58.637381 
L 120.748468 58.87897 
L 121.507414 59.211616 
L 121.720502 59.402461 
L 122.000728 59.883989 
L 122.164194 60.06786 
L 122.388958 60.151918 
L 122.797621 60.171181 
L 122.993196 60.330546 
L 123.147904 60.397096 
L 123.536134 60.2675 
L 123.760899 60.32179 
L 123.944797 60.500426 
L 124.365136 61.094181 
L 124.759204 61.469042 
L 125.100729 61.73094 
L 125.483121 61.914891 
L 125.988112 62.055925 
L 127.45638 62.276684 
L 127.698659 62.469419 
L 128.151107 63.167721 
L 128.945081 63.541013 
L 129.645646 64.001101 
L 129.755192 64.634135 
L 129.809952 64.950616 
L 129.811376 64.958848 
L 129.81203 64.962627 
L 130.030957 65.025743 
L 130.515584 65.219229 
L 130.523478 65.222381 
L 130.527191 65.223863 
L 130.532539 65.326663 
L 130.533029 65.336077 
L 131.435927 66.070925 
L 131.437925 66.072552 
L 131.699224 66.213325 
L 131.706475 66.217232 
L 131.813874 66.371926 
L 131.820317 66.381208 
L 131.593586 66.606834 
L 131.586796 66.613591 
L 132.278312 66.943556 
L 132.281523 66.945089 
L 132.547154 67.231881 
L 132.758301 67.768135 
L 132.760242 67.773067 
L 132.850732 68.364328 
L 132.76608 68.742461 
L 132.374931 69.415464 
L 131.367869 69.704176 
L 129.636889 70.339588 
L 129.359582 70.298336 
L 129.152331 70.193014 
L 129.149949 70.18952 
L 129.032652 70.017482 
L 129.031699 70.009209 
L 129.003461 69.763852 
L 128.998527 69.760562 
L 127.085664 68.485397 
L 127.080766 68.483598 
L 126.005626 68.088864 
L 125.182462 68.482765 
L 125.030673 69.053065 
L 125.146514 69.648549 
L 125.147434 69.653277 
L 125.518444 70.737436 
L 125.521069 70.745107 
L 125.573611 71.294637 
L 125.561935 71.823166 
L 125.48604 72.350003 
L 124.049882 76.779727 
L 123.781332 78.101966 
L 123.652895 79.261892 
L 123.504025 79.776439 
L 123.209203 80.275212 
L 123.119236 80.355786 
L 122.797621 80.64383 
L 122.362687 80.928013 
L 122.015324 81.305485 
L 121.875211 81.954039 
L 122.024081 84.030586 
L 121.921915 84.995692 
L 121.376058 85.825358 
L 120.65506 86.187396 
L 119.826057 86.261392 
L 117.470407 86.038525 
L 117.438298 86.442866 
L 118.074644 87.597069 
L 118.097997 88.061479 
L 117.557978 87.825303 
L 116.933307 87.348582 
L 116.676433 87.091297 
L 116.054681 87.311574 
L 115.958354 87.92312 
L 116.253175 89.279575 
L 116.226904 89.952227 
L 115.616828 92.856467 
L 115.412497 93.45466 
L 115.056376 93.708784 
L 114.484248 93.547308 
L 113.623136 92.597981 
L 113.555999 92.293639 
L 113.509295 91.525379 
L 113.4334 91.300483 
L 113.138579 91.284608 
L 111.340461 90.851607 
L 111.060235 91.305774 
L 111.139049 91.95139 
L 111.31419 92.647383 
L 111.331704 93.240255 
L 111.007693 93.763493 
L 110.514378 93.969982 
L 109.962683 93.883503 
L 109.454773 93.527014 
L 109.200819 92.999391 
L 108.701666 91.622396 
L 108.406845 91.49892 
L 108.278408 91.903759 
L 107.974829 94.067053 
L 107.755903 94.792503 
L 107.487353 95.266492 
L 107.072852 95.570154 
L 106.418991 95.789968 
L 105.25722 95.942697 
L 104.209292 95.846469 
L 102.06673 95.330047 
L 100.893283 95.442154 
L 100.548838 96.317037 
L 100.505053 97.622175 
L 100.21607 99.017803 
L 99.877463 99.269592 
L 99.570966 99.214816 
L 99.351198 99.111077 
L 99.252793 99.064626 
L 98.876239 99.031938 
L 98.382924 99.257223 
L 98.00929 99.63184 
L 97.711549 100.084248 
L 96.748272 101.988042 
L 96.625673 102.464558 
L 96.649026 102.934051 
L 96.967199 103.729912 
L 97.08396 104.157966 
L 97.002227 104.802776 
L 96.435937 106.671385 
L 96.146954 107.233357 
L 95.627368 107.528973 
L 95.090268 107.582079 
L 94.643658 107.756451 
L 94.378027 108.415935 
L 94.497707 109.1614 
L 94.944317 109.431462 
L 95.41136 109.6245 
L 95.589421 110.140782 
L 95.341304 110.69698 
L 94.941398 110.662437 
L 94.585277 110.714695 
L 94.488949 111.539377 
L 94.617386 112.1365 
L 95.437632 113.855655 
L 95.653639 114.462829 
L 95.89008 115.585204 
L 96.149873 116.147381 
L 96.383395 116.396569 
L 96.876709 116.740667 
L 97.060608 117.053746 
L 97.127745 117.314514 
L 97.26202 118.169652 
L 97.641493 119.629251 
L 97.930476 120.320613 
L 98.292435 120.631271 
L 98.660231 120.739562 
L 98.75364 120.94195 
L 98.631041 121.213589 
L 98.347896 121.527858 
L 98.146484 121.842148 
L 98.196107 122.110287 
L 98.347896 122.387322 
L 98.470495 122.738967 
L 99.127275 128.273737 
L 99.495072 129.693798 
L 100.169366 130.725544 
L 101.115129 131.011092 
L 101.220213 129.877006 
L 100.69187 126.989204 
L 100.686032 125.458888 
L 100.834903 124.654828 
L 101.150157 124.16091 
L 101.777747 124.134262 
L 102.320685 124.616628 
L 102.732267 125.274076 
L 102.968707 125.777885 
L 102.95995 125.748561 
L 103.056278 125.510424 
L 103.065035 125.480213 
L 103.248933 125.754782 
L 103.257691 125.986711 
L 103.219743 126.184882 
L 103.248933 126.361732 
L 103.666354 126.824773 
L 103.733491 126.835439 
L 103.926146 127.895897 
L 104.057502 128.247065 
L 104.708444 130.763794 
L 104.854395 131.64363 
L 104.933209 131.754845 
L 105.201759 131.8367 
L 105.274734 131.964825 
L 105.309763 132.979265 
L 105.429443 133.337931 
L 105.79432 133.798094 
L 106.167955 133.957426 
L 106.544509 134.034869 
L 106.92982 134.24762 
L 107.10788 134.626857 
L 107.104961 134.96784 
L 107.192532 135.086255 
L 107.653737 134.793339 
L 107.820121 134.539612 
L 107.925206 134.212013 
L 108.056562 133.928942 
L 108.313436 133.808776 
L 108.511929 133.851501 
L 108.713342 133.930722 
L 108.911835 133.97968 
L 109.113248 133.928942 
L 109.49564 133.771391 
L 110.260423 133.581803 
L 110.607787 133.33259 
L 110.817957 133.065592 
L 111.293757 132.576133 
L 111.492251 132.323413 
L 111.965132 131.511956 
L 112.00016 131.376726 
L 111.979727 131.215702 
L 111.991403 131.053793 
L 112.131516 130.917687 
L 112.224925 130.912349 
L 112.493475 130.938147 
L 112.563532 130.925693 
L 112.989709 130.405323 
L 113.109389 130.091349 
L 113.007223 129.690241 
L 112.642345 128.636493 
L 112.216168 126.26753 
L 111.798748 125.174564 
L 111.64404 123.802053 
L 112.178221 122.110287 
L 112.998466 120.502567 
L 113.734059 119.383439 
L 114.189427 118.937992 
L 115.751103 118.181185 
L 116.203551 117.813917 
L 116.571348 117.35709 
L 117.210614 116.147381 
L 117.254399 114.800577 
L 116.510049 110.831611 
L 116.466263 109.523552 
L 116.524644 108.785111 
L 116.699785 108.336261 
L 117.093853 108.316785 
L 117.447055 108.788653 
L 117.800256 109.427035 
L 118.98246 110.925501 
L 119.420313 111.177951 
L 120.080012 110.989277 
L 120.567489 110.511869 
L 121.486981 109.077286 
L 121.945267 108.498267 
L 123.142066 108.038822 
L 123.702518 108.998485 
L 123.988582 110.309937 
L 124.370974 110.9007 
L 124.797151 110.439243 
L 125.156191 108.856825 
L 125.626153 108.546073 
L 126.207039 108.901093 
L 126.219124 109.032894 
L 126.274176 109.633355 
L 125.944327 111.090256 
L 126.02314 112.232188 
L 127.103178 116.143834 
L 127.266644 117.815691 
L 127.398 118.323133 
L 127.54687 118.595506 
L 127.914666 118.997442 
L 128.072294 119.294701 
L 128.116079 119.552045 
L 128.072294 120.027726 
L 128.110241 120.264697 
L 128.250354 120.491916 
L 128.623989 120.819451 
L 128.729073 120.99166 
L 128.755345 121.305914 
L 128.676531 121.981543 
L 128.685288 122.320726 
L 128.831239 122.890821 
L 128.962595 123.224741 
L 128.980109 123.574673 
L 128.787454 124.192001 
L 128.279544 125.386029 
L 128.162783 125.904068 
L 128.136512 127.27186 
L 128.854591 132.142781 
L 128.831239 134.539612 
L 129.047247 135.701526 
L 129.578509 136.60365 
L 130.515515 137.034735 
L 130.924178 137.616405 
L 131.169375 140.298523 
L 131.367869 141.345935 
L 131.697718 141.862148 
L 132.459583 142.614723 
L 132.76608 143.13553 
L 132.888679 143.668881 
L 133.087173 146.327592 
L 133.028792 148.334187 
L 133.133877 148.912754 
L 133.495836 149.9915 
L 133.539621 150.586341 
L 135.180111 161.893041 
L 135.139245 162.77226 
L 134.818153 162.944182 
L 134.397813 162.938809 
L 134.059207 163.28088 
L 134.698473 165.613317 
L 135.069188 167.900228 
L 135.127569 168.206782 
z
" clip-path="url(#paf9dd78ccf)" style="stroke: #000000; stroke-linejoin: miter"/>
   </g>
   <g id="line2d_1">
    <path d="M 135.148002 168.518733 
L 135.553746 170.615043 
L 135.63256 171.664421 
L 135.139245 176.97742 
L 135.623802 186.153511 
L 135.921543 187.897101 
L 137.039528 192.135249 
L 136.782654 192.700835 
L 136.233878 193.365567 
L 135.57126 193.862819 
L 134.999132 193.918673 
L 134.663444 193.480867 
L 134.462032 192.760279 
L 134.246024 191.351815 
L 133.697248 189.950931 
L 132.967493 189.760094 
L 132.027568 189.995941 
L 130.833688 189.862713 
L 129.887925 189.414445 
L 129.648565 189.126422 
L 129.452991 188.516225 
L 129.27493 187.362626 
L 128.901296 186.792219 
L 127.996399 186.44137 
L 126.91928 187.933094 
L 125.556097 188.001483 
L 125.240842 188.685417 
L 124.858451 190.168782 
L 124.070315 191.481479 
L 123.918526 192.090221 
L 123.912688 192.772889 
L 124.1141 194.15831 
L 123.921445 195.872126 
L 123.825117 196.418285 
L 124.201671 197.517984 
L 124.864289 198.235616 
L 125.21749 199.294211 
L 126.37194 200.41401 
L 126.185766 201.760756 
L 126.144394 203.207326 
L 126.26851 204.634385 
L 126.565009 205.91821 
L 127.509669 207.720064 
L 127.571727 208.375821 
L 128.316422 211.41098 
L 128.077384 211.68 
L 127.902703 211.564704 
L 127.385553 210.855901 
L 126.737393 209.043039 
L 124.806701 204.964197 
L 124.14475 202.343316 
L 122.671448 200.888457 
L 122.395635 200.436737 
L 121.618762 198.851756 
L 120.366111 197.145165 
L 120.166146 196.580209 
L 120.124774 195.845004 
L 120.359215 193.591773 
L 120.161549 192.096773 
L 118.331989 188.466012 
L 118.019401 188.261937 
L 117.745886 187.761702 
L 117.463178 186.563034 
L 117.63786 186.563034 
L 117.849316 186.781211 
L 118.060773 186.157874 
L 118.400943 185.50345 
L 118.856034 185.132363 
L 119.389273 185.354729 
L 119.035313 184.965241 
L 118.752604 184.327961 
L 118.594012 183.604389 
L 118.600907 182.957367 
L 119.508792 181.657904 
L 119.389273 181.077639 
L 119.89493 180.22859 
L 119.780008 179.891839 
L 119.950093 179.563599 
L 119.897228 179.265088 
L 119.527179 178.963766 
L 119.711055 177.987773 
L 119.600729 177.711982 
L 119.508792 178.10375 
L 119.389273 178.208416 
L 119.600729 178.208416 
L 119.232979 179.402316 
L 118.904301 179.903158 
L 118.428524 179.891839 
L 118.207873 179.477298 
L 118.428524 177.9708 
L 118.235455 177.9708 
L 118.090653 178.567688 
L 117.82863 178.522424 
L 117.573503 178.109408 
L 117.463178 177.603084 
L 117.555116 176.82531 
L 117.807944 176.63442 
L 118.171098 176.542513 
L 118.600907 176.073104 
L 118.428524 175.835587 
L 117.959642 176.231454 
L 117.761976 175.940206 
L 117.938956 175.417134 
L 118.600907 175.103316 
L 118.600907 174.863018 
L 117.293093 174.981752 
L 116.304763 175.337971 
L 116.038144 175.048188 
L 116.084113 174.221337 
L 116.380612 173.477993 
L 116.888568 173.184077 
L 116.670216 172.828009 
L 116.780541 172.500223 
L 117.463178 171.759956 
L 117.166679 171.799509 
L 116.684006 172.197887 
L 116.502429 172.514351 
L 116.350732 172.082043 
L 116.217422 171.364437 
L 116.008264 169.652764 
L 115.608335 169.12328 
L 115.518696 168.809851 
L 115.518696 167.497052 
L 114.794687 163.954203 
L 114.746419 162.76112 
L 115.132558 162.976869 
L 114.987756 162.518589 
L 114.739524 162.583451 
L 114.534963 163.026225 
L 114.534963 163.687639 
L 114.360281 163.687639 
L 113.781074 162.333879 
L 113.601795 161.489375 
L 113.574214 160.633738 
L 113.71212 160.105206 
L 114.360281 159.192034 
L 114.318909 158.622796 
L 114.077573 158.338202 
L 113.574214 157.988821 
L 113.484575 157.125336 
L 113.983337 156.712663 
L 114.714241 156.467611 
L 115.325627 156.098647 
L 115.633618 155.481892 
L 116.286376 153.028306 
L 115.711765 153.028306 
L 115.649707 153.550453 
L 115.224495 155.334051 
L 114.477502 156.135261 
L 113.97874 156.335232 
L 113.891399 156.508452 
L 113.194971 156.932376 
L 112.990409 157.278865 
L 113.06396 157.828227 
L 113.362757 158.090252 
L 113.97874 158.460773 
L 113.967247 159.128626 
L 113.486873 159.551364 
L 112.87089 159.493588 
L 112.434186 158.718604 
L 111.946917 154.761033 
L 111.643522 153.501192 
L 109.733517 149.229991 
L 106.120366 143.50575 
L 105.223973 143.095629 
L 104.725211 142.576005 
L 104.10693 141.406354 
L 103.88628 141.548158 
L 103.700106 141.381083 
L 103.527723 140.590715 
L 103.585184 140.16821 
L 103.851803 139.745741 
L 104.026485 138.745158 
L 104.479278 137.288861 
L 104.493069 136.462701 
L 104.28391 136.462701 
L 104.187376 137.105102 
L 103.700106 138.913544 
L 103.419696 139.285419 
L 102.796818 139.504347 
L 102.41068 140.067151 
L 102.265878 140.832164 
L 102.353219 141.663288 
L 101.514287 141.077836 
L 101.043107 140.964123 
L 100.424826 140.934643 
L 100.424826 141.191551 
L 101.017824 141.389507 
L 101.093672 141.716642 
L 100.810964 142.019929 
L 100.316799 142.156134 
L 98.852691 142.191239 
L 99.820335 142.615326 
L 100.038687 142.820362 
L 99.958242 143.320348 
L 99.604282 143.613904 
L 98.673413 143.783865 
L 98.645831 143.747344 
L 97.514998 143.441139 
L 97.514998 142.820362 
L 96.742721 142.618135 
L 95.777376 142.604092 
L 95.777376 142.820362 
L 96.135933 143.184111 
L 96.266944 143.559124 
L 96.066979 143.80634 
L 95.411923 143.783865 
L 95.411923 144.039521 
L 97.048414 144.51575 
L 97.797706 144.874007 
L 98.110294 145.561091 
L 98.01376 146.007958 
L 97.788513 146.492814 
L 97.462747 147.820766 
L 96.366182 148.932569 
L 95.626848 149.167574 
L 94.236652 149.492216 
L 93.159372 148.890733 
L 92.605214 147.9534 
L 92.295236 146.475948 
L 91.711431 145.455703 
L 91.394246 144.406171 
L 91.157507 144.10133 
L 90.746085 144.25445 
L 91.168999 144.744751 
L 91.55054 145.697395 
L 91.775788 146.703635 
L 91.711431 147.36427 
L 91.136821 147.686186 
L 90.219742 147.856289 
L 89.36702 147.805679 
L 88.994673 147.458452 
L 88.819991 146.981934 
L 88.047714 146.353676 
L 87.367375 145.088974 
L 87.151322 144.111163 
L 86.841032 143.960856 
L 86.006698 144.039521 
L 85.875686 143.842861 
L 85.542412 142.604092 
L 84.848283 142.090137 
L 84.662109 141.473746 
L 84.172541 140.590715 
L 84.131169 140.227162 
L 83.786402 139.285419 
L 83.579543 138.109552 
L 82.89001 136.422028 
L 82.660166 135.21882 
L 80.476646 131.863224 
L 80.108895 130.56031 
L 80.111193 130.189116 
L 80.435274 128.081562 
L 80.476646 126.671916 
L 80.637537 125.913374 
L 81.184566 124.612102 
L 81.069644 123.963 
L 81.244325 123.963 
L 80.78004 122.842671 
L 80.759354 122.385385 
L 81.069644 122.086146 
L 80.973109 122.052588 
L 80.844396 122.003649 
L 80.858187 121.828871 
L 80.14567 122.111315 
L 79.662997 121.391258 
L 79.318231 119.718079 
L 79.350409 117.700441 
L 79.589447 116.918214 
L 80.283576 116.436371 
L 81.929261 116.446147 
L 82.591212 116.038365 
L 82.614197 114.776145 
L 82.324593 114.111664 
L 81.552317 114.092122 
L 81.47417 114.234502 
L 82.228059 115.007899 
L 82.034989 115.711607 
L 81.538526 115.389061 
L 81.228236 115.356947 
L 80.683505 115.711607 
L 79.966391 115.979715 
L 79.561866 116.286941 
L 79.43775 116.164048 
L 79.007941 114.809651 
L 79.118266 113.838082 
L 79.573358 113.039761 
L 80.283576 112.667165 
L 80.108895 112.432739 
L 80.021554 112.61693 
L 79.897438 112.667165 
L 79.681385 112.342041 
L 79.214801 112.400646 
L 78.178203 112.880672 
L 78.339094 113.360747 
L 78.196591 113.65105 
L 77.851825 113.793417 
L 76.932448 113.793417 
L 76.566995 113.65105 
L 75.849881 113.136054 
L 76.077427 113.667799 
L 76.472759 114.016746 
L 77.408225 114.30709 
L 78.458613 114.35176 
L 78.688458 114.626768 
L 78.663175 118.077634 
L 78.442524 118.284404 
L 78.0357 119.391061 
L 77.985134 119.93191 
L 77.035878 119.47491 
L 71.503527 118.27183 
L 70.430155 117.828962 
L 69.467107 117.116552 
L 69.439526 117.513253 
L 69.706145 117.884842 
L 73.811163 120.774754 
L 74.498397 121.953312 
L 75.39479 122.172839 
L 76.61986 122.790927 
L 78.470106 123.02308 
L 78.702248 123.249651 
L 79.529687 124.665265 
L 79.649206 125.230511 
L 79.752636 126.44518 
L 79.635416 126.249245 
L 79.159638 125.605514 
L 79.297545 126.274436 
L 79.423959 128.308376 
L 79.318231 129.127519 
L 78.371272 130.56031 
L 78.0357 130.467859 
L 77.966747 130.180712 
L 78.097758 129.838958 
L 78.371272 129.598065 
L 78.371272 129.362786 
L 78.178203 129.362786 
L 77.553027 130.183513 
L 77.162292 130.41323 
L 76.61986 130.56031 
L 75.560278 130.526692 
L 75.208616 130.682181 
L 75.109783 131.473713 
L 75.229302 132.224741 
L 75.622336 133.308055 
L 76.150977 134.339745 
L 76.78075 135.343615 
L 76.812929 135.991475 
L 77.53464 136.501972 
L 77.649562 136.737604 
L 77.50476 137.061618 
L 77.084145 137.301486 
L 75.849881 137.166822 
L 75.309747 137.936985 
L 75.052322 139.086147 
L 74.712152 140.046097 
L 73.91919 140.251023 
L 74.371983 140.698804 
L 74.257061 141.162069 
L 73.875519 141.340368 
L 73.533052 140.934643 
L 72.919368 141.397931 
L 73.333087 141.747532 
L 74.689168 142.368171 
L 74.953489 141.734895 
L 75.436162 141.831777 
L 75.92573 142.309193 
L 76.318764 143.175684 
L 76.42679 144.25445 
L 76.771557 145.36718 
L 76.801436 146.824511 
L 76.523325 147.234947 
L 76.275093 147.390978 
L 75.631529 147.499219 
L 75.367208 147.686186 
L 75.204019 148.207763 
L 74.882237 150.646277 
L 74.964981 150.283376 
L 75.463743 149.701103 
L 75.489026 149.339678 
L 75.463743 148.28509 
L 75.741855 147.814114 
L 76.160171 147.532957 
L 76.66353 147.445801 
L 77.199067 147.555449 
L 78.205785 148.272436 
L 78.716039 149.262334 
L 79.051611 150.411373 
L 79.529687 151.609924 
L 78.952778 151.352464 
L 78.959674 152.134734 
L 79.161937 152.76655 
L 79.722757 153.992421 
L 79.862962 154.69205 
L 79.888244 155.410083 
L 79.722757 156.82956 
L 78.821767 159.483724 
L 78.155219 160.691528 
L 77.601294 160.846576 
L 76.550906 161.614843 
L 76.42679 161.923593 
L 76.187752 162.934565 
L 75.107485 164.938782 
L 74.785703 165.105249 
L 74.413355 165.006497 
L 73.519261 164.456343 
L 73.339982 164.182699 
L 73.503172 163.32378 
L 74.188108 161.672644 
L 74.305328 160.846576 
L 73.91919 159.407629 
L 74.091573 158.321296 
L 74.001934 157.89021 
L 73.533052 157.752158 
L 73.657167 158.470635 
L 73.374459 160.003734 
L 73.436517 160.502657 
L 74.09617 161.300474 
L 73.926085 161.805166 
L 73.558334 162.29017 
L 73.484784 162.782271 
L 73.130824 162.76112 
L 73.04808 163.108015 
L 72.843519 164.625614 
L 72.726298 164.924675 
L 71.77934 166.420247 
L 71.657523 167.02989 
L 71.112792 168.294572 
L 70.993273 168.928444 
L 70.869157 170.250089 
L 70.386484 172.224729 
L 70.099179 172.689545 
L 68.152398 174.523794 
L 67.616861 174.649587 
L 67.039952 174.535101 
L 65.978072 174.030545 
L 65.477012 173.916072 
L 65.02192 173.632023 
L 64.897804 173.059733 
L 65.090873 172.618902 
L 65.573546 172.729106 
L 65.362089 172.243095 
L 65.527577 171.90122 
L 65.810286 171.581969 
L 65.961983 171.169515 
L 65.824076 170.461924 
L 65.961983 170.101811 
L 65.178214 171.953488 
L 64.906998 172.257222 
L 64.63808 172.358942 
L 64.286418 172.828009 
L 64.031291 172.969303 
L 63.789955 172.911372 
L 63.422204 172.559562 
L 63.086632 172.514351 
L 63.279701 171.584794 
L 63.355549 169.699362 
L 63.665839 168.915737 
L 64.819657 167.732766 
L 65.380477 165.85865 
L 66.679097 164.4507 
L 67.030758 163.814573 
L 67.27899 163.683408 
L 67.906465 163.94292 
L 68.501762 163.467628 
L 68.940764 162.690615 
L 69.149922 161.768511 
L 69.06488 160.846576 
L 68.209859 163.130579 
L 67.80993 163.471859 
L 67.051444 163.586094 
L 66.584861 163.899197 
L 64.707033 166.318647 
L 64.479488 167.073641 
L 63.877296 168.122353 
L 63.19236 168.153409 
L 62.293669 167.732766 
L 62.456858 167.251469 
L 62.486738 166.722237 
L 62.700493 166.311591 
L 63.396921 165.666762 
L 63.47277 165.127821 
L 63.376235 164.093838 
L 63.868102 162.848546 
L 64.447309 162.469238 
L 64.610499 162.053302 
L 63.881893 162.350799 
L 63.527933 162.952896 
L 63.086632 164.653827 
L 62.831505 165.040354 
L 61.909829 166.19306 
L 61.909829 168.20705 
L 61.486916 168.623498 
L 60.976662 168.40327 
L 60.544554 167.820279 
L 59.983735 165.60186 
L 59.921677 163.040327 
L 59.524046 160.403996 
L 59.018389 159.407629 
L 58.875885 158.5918 
L 59.018389 157.752158 
L 59.57691 156.170466 
L 62.066123 151.887096 
L 62.337339 151.087984 
L 62.682106 150.764437 
L 60.912305 152.511844 
L 60.52157 153.070527 
L 60.149222 154.166967 
L 59.659654 154.007905 
L 58.806932 153.240818 
L 58.862095 153.965677 
L 59.124117 155.146792 
L 59.018389 155.883197 
L 57.841586 158.460773 
L 58.184054 159.196262 
L 58.480553 160.426547 
L 58.806932 162.76112 
L 58.763262 164.555084 
L 58.526522 164.999443 
L 58.053043 165.291472 
L 56.669381 165.105249 
L 56.669381 165.364835 
L 57.763439 166.025147 
L 58.10131 166.565595 
L 58.19095 167.710182 
L 58.053043 168.701144 
L 58.167965 169.020214 
L 58.549507 169.707834 
L 58.777052 170.368716 
L 59.052865 170.759919 
L 59.211458 171.207651 
L 59.018389 171.759956 
L 58.816126 171.850364 
L 58.186353 171.991631 
L 57.301452 172.962238 
L 57.149755 173.266033 
L 56.363688 173.678657 
L 56.062592 173.725291 
L 55.933879 173.559953 
L 55.784481 173.059733 
L 55.432819 173.158643 
L 54.653647 173.678657 
L 53.653825 173.511907 
L 53.171152 173.291467 
L 52.706866 172.699435 
L 52.585049 171.945012 
L 52.888443 171.339012 
L 52.830982 171.008497 
L 52.426456 170.339059 
L 51.635792 172.257222 
L 52.504604 173.767687 
L 53.134377 174.535101 
L 53.699794 174.863018 
L 53.943428 175.209333 
L 53.640034 175.892138 
L 53.02635 176.389809 
L 52.329922 176.180555 
L 51.989752 175.931724 
L 51.674866 175.921827 
L 50.971543 176.073104 
L 50.895694 176.268214 
L 51.268042 177.495603 
L 50.730206 178.129209 
L 50.130313 177.693597 
L 49.323559 176.288008 
L 49.374125 175.674422 
L 49.047746 174.238297 
L 49.13049 173.441253 
L 49.358036 172.994736 
L 49.882081 172.293954 
L 50.095836 171.759956 
L 50.185475 171.186464 
L 50.068255 168.672909 
L 50.440602 165.947542 
L 51.116344 164.576243 
L 51.268042 163.814573 
L 51.171507 163.076991 
L 50.923275 162.352209 
L 50.192371 161.191929 
L 50.173983 160.709852 
L 51.040496 159.411857 
L 51.268042 158.836957 
L 51.399053 157.383098 
L 51.847249 156.098647 
L 51.536959 156.366214 
L 51.274937 156.804209 
L 50.8865 157.752158 
L 50.557823 158.132515 
L 50.454393 158.435413 
L 50.70952 159.234307 
L 50.544032 159.534454 
L 49.999301 160.007962 
L 49.663729 160.625281 
L 49.695907 161.080568 
L 50.431409 162.696256 
L 50.500362 163.029045 
L 50.449796 164.229245 
L 50.095836 165.236451 
L 49.728085 167.947318 
L 49.20404 168.271986 
L 48.974196 167.735589 
L 49.01327 165.829019 
L 49.305172 165.110892 
L 49.323559 164.653827 
L 48.050222 161.210255 
L 47.976672 160.502657 
L 48.077804 158.262125 
L 47.799692 157.515506 
L 47.590534 157.515506 
L 47.356093 159.803615 
L 47.590534 164.182699 
L 47.799692 164.182699 
L 47.958285 163.247627 
L 48.109982 162.995201 
L 48.185831 163.095324 
L 48.323737 163.818804 
L 48.767336 165.435377 
L 48.39269 166.468225 
L 47.976672 166.657322 
L 48.06861 167.075052 
L 48.185831 167.259937 
L 48.28926 167.6509 
L 48.891452 169.048451 
L 48.62943 170.894093 
L 48.339826 171.296637 
L 47.590534 172.019884 
L 47.275647 172.627379 
L 47.248066 173.119079 
L 47.413554 174.53086 
L 47.310124 175.332316 
L 47.038908 175.989689 
L 46.657366 176.536857 
L 45.632261 177.555 
L 45.315076 177.588942 
L 44.593365 176.652802 
L 44.441668 176.135312 
L 44.400296 175.244673 
L 44.487637 173.678657 
L 45.082934 171.169515 
L 44.961116 170.470397 
L 44.434773 169.299769 
L 44.310657 168.701144 
L 44.101499 168.701144 
L 43.924519 169.231996 
L 44.186541 170.113108 
L 44.310657 170.597502 
L 44.207227 171.470377 
L 43.441846 172.438059 
L 43.264866 172.785622 
L 42.662674 174.357016 
L 42.52017 174.368323 
L 42.363876 173.916072 
L 42.173106 173.916072 
L 42.186896 174.793758 
L 42.4765 176.14945 
L 42.363876 176.999239 
L 41.883502 178.199929 
L 41.966246 178.59032 
L 42.556946 178.918498 
L 42.228268 179.354215 
L 41.743297 179.757428 
L 41.17788 180.038988 
L 40.628552 180.106904 
L 40.097612 179.753183 
L 39.927528 179.108059 
L 40.035554 178.484233 
L 40.327457 178.208416 
L 40.387216 177.830782 
L 39.470138 174.693403 
L 39.454048 174.283523 
L 39.332231 174.140779 
L 39.070209 174.334403 
L 38.518583 175.140068 
L 38.143936 175.022744 
L 37.233753 174.352776 
L 37.109637 174.1323 
L 36.351151 170.716137 
L 36.424702 170.000136 
L 36.725798 168.545852 
L 36.73729 167.732766 
L 36.532728 167.005898 
L 35.905254 166.023736 
L 35.774242 165.483346 
L 35.946626 163.890734 
L 35.867697 163.216404 
L 36.361012 162.510806 
L 36.150842 160.987125 
L 35.912942 160.407139 
L 34.679656 158.567384 
L 34.411106 157.842765 
L 34.818309 157.524324 
L 34.196557 156.179226 
L 33.856491 153.999586 
L 33.932386 153.643854 
L 34.224288 152.916383 
L 34.107527 152.112179 
L 33.587941 150.739975 
L 33.333987 149.461027 
L 32.99684 149.153844 
L 32.119674 148.762748 
L 32.750182 148.28419 
L 32.922405 147.489674 
L 32.798346 146.559629 
L 32.525418 145.676162 
L 32.176594 144.946308 
L 31.964965 143.734885 
L 31.627818 142.737785 
L 31.559221 142.110021 
L 31.751877 141.640143 
L 32.370709 140.676456 
L 32.604231 139.54631 
L 32.586717 138.411083 
L 32.264165 138.062727 
L 31.47457 137.775865 
L 31.14472 137.320662 
L 30.248581 135.157483 
L 29.71294 134.393614 
L 29.600558 134.006384 
L 29.618072 133.33259 
L 29.880784 132.351888 
L 29.95376 130.585889 
L 30.334692 129.720478 
L 31.868638 127.876339 
L 32.874241 126.846104 
L 33.023111 126.196435 
L 32.861105 126.033809 
L 31.839447 125.99382 
L 31.601547 125.861414 
L 29.145191 124.983543 
L 28.774475 125.049289 
L 28.114776 125.548632 
L 27.818495 125.545078 
L 25.963457 124.8716 
L 25.583984 124.488703 
L 25.302299 123.826924 
L 25.283325 123.080869 
L 25.540199 122.417513 
L 26.224709 121.191395 
L 27.598109 117.105189 
L 27.662328 116.365531 
L 27.285774 116.023235 
L 26.915058 116.348682 
L 26.58229 116.921594 
L 26.229088 117.076807 
L 25.811668 116.147381 
L 25.505171 115.988652 
L 24.677628 115.353792 
L 24.201827 114.778414 
L 23.540669 113.447962 
L 23.117411 112.935738 
L 22.892646 112.88257 
L 22.335113 112.951689 
L 22.049049 112.814337 
L 21.774661 112.482051 
L 21.757147 112.256111 
L 21.906017 111.565953 
L 21.761525 111.437501 
L 21.205452 111.222242 
L 21.164585 110.838697 
L 21.719199 107.400634 
L 21.514868 106.882006 
L 21.520706 106.554575 
L 21.660819 106.188234 
L 22.221271 105.063734 
L 22.22419 103.809505 
L 22.675179 103.407129 
L 24.356536 103.308972 
L 24.734549 102.976493 
L 26.080218 101.414345 
L 26.164869 100.799182 
L 25.916753 99.417138 
L 25.725557 99.016036 
L 26.386715 97.542691 
L 25.706583 97.36253 
L 25.619012 96.931588 
L 25.08775 96.42034 
L 24.949097 96.030099 
L 25.200133 94.607158 
L 25.061479 93.582603 
L 25.222025 93.164377 
L 25.505171 92.864407 
L 26.573532 92.36862 
L 26.664022 92.075761 
L 27.08728 91.228166 
L 27.021602 91.101173 
L 26.739917 89.049504 
L 26.091894 88.083511 
L 25.166564 87.453438 
L 24.555029 87.304525 
L 24.25437 88.085274 
L 23.831112 88.809749 
L 23.2079 88.852057 
L 21.814068 88.329396 
L 19.985301 88.235095 
L 19.337278 88.081749 
L 17.244339 86.242012 
L 9.830024 81.954039 
L 9.015617 81.758671 
L 8.958696 81.521072 
L 8.310674 80.371102 
L 8.221643 78.392138 
L 7.810061 77.922596 
L 7.526916 77.227169 
L 6.525692 76.835985 
L 6.677481 75.811162 
L 6.911003 75.196033 
L 7.278799 74.604713 
L 7.413074 73.116665 
L 8.084449 72.905885 
L 8.282943 72.590613 
L 8.402623 71.717806 
L 8.587981 71.480756 
L 8.954318 71.549236 
L 9.225787 70.93208 
L 9.891324 70.071896 
L 9.809591 69.429504 
L 9.308979 67.959911 
L 9.15573 67.632721 
L 11.079366 66.595176 
L 11.628142 66.652177 
L 12.089347 66.996833 
L 12.486334 67.569566 
L 12.741748 68.231857 
L 12.76656 68.848625 
L 13.108086 68.870561 
L 14.767549 69.266289 
L 15.025883 69.049555 
L 15.538171 68.049388 
L 16.520422 66.641654 
L 16.864866 65.85598 
L 16.953897 64.962627 
L 17.606298 64.065956 
L 17.936147 63.064326 
L 18.172588 60.840204 
L 18.096694 58.929741 
L 18.374001 58.364297 
L 19.337278 58.182251 
L 19.801402 58.317035 
L 21.576167 58.994518 
L 21.708983 59.006773 
L 22.227109 58.779182 
L 22.577392 58.350293 
L 22.831347 58.248767 
L 23.823814 58.278525 
L 24.680547 58.460575 
L 26.373579 59.152088 
L 28.059314 59.339428 
L 28.288458 59.148586 
L 28.762799 58.177 
L 29.171462 58.191003 
L 29.358279 58.310033 
L 31.290671 59.055794 
L 32.01167 59.104816 
L 31.601547 58.383553 
L 32.116755 58.262771 
L 32.198487 57.926699 
L 32.150323 57.020141 
L 32.395521 56.656173 
L 33.456585 55.807619 
L 33.655079 55.48049 
L 33.728054 55.139394 
L 33.665296 54.817564 
L 33.456585 54.54123 
L 32.077348 54.614684 
L 31.410351 54.514997 
L 30.769626 53.836486 
L 29.889541 53.710589 
L 29.691048 53.520002 
L 29.022592 52.612646 
L 28.797827 51.639076 
L 28.494249 51.396155 
L 28.485492 51.189946 
L 28.965671 49.989593 
L 28.926264 49.266403 
L 28.66939 48.824515 
L 27.723627 47.801193 
L 26.865435 47.436281 
L 26.882949 48.029934 
L 26.602723 48.171376 
L 25.855453 48.148675 
L 24.73017 49.12143 
L 24.139068 48.971224 
L 22.675179 48.033427 
L 20.887278 47.86056 
L 20.609971 47.553259 
L 20.392504 47.066164 
L 19.624801 46.427265 
L 19.337278 45.753561 
L 18.274754 45.170704 
L 17.879226 44.751935 
L 17.756628 42.674422 
L 17.009358 41.764206 
L 14.955826 40.263312 
L 13.251118 38.113162 
L 12.334545 37.599315 
L 11.070609 37.998194 
L 10.046032 38.560872 
L 9.517689 38.588746 
L 9.15573 38.17239 
L 8.8288 37.244015 
L 8.383649 36.698932 
L 8.423056 36.10343 
L 8.227481 35.591577 
L 8.096125 33.94329 
L 8.244996 33.837141 
L 8.396785 33.591789 
L 8.91929 31.681685 
L 9.465147 30.556572 
L 10.175928 29.953279 
L 10.370043 29.310097 
L 10.327717 28.941618 
L 9.897162 28.468902 
L 9.903 27.963226 
L 9.99057 27.782519 
L 10.536428 26.28331 
L 11.718631 25.411491 
L 12.092266 24.949607 
L 12.979649 24.685698 
L 14.628896 24.078078 
L 15.12513 23.748266 
L 15.358651 23.248392 
L 15.313406 22.025007 
L 15.417032 21.535758 
L 15.843209 20.892192 
L 16.269386 20.47419 
L 17.597541 19.575896 
L 18.102532 18.837296 
L 18.581251 19.132026 
L 19.125649 19.111221 
L 19.337278 19.052273 
L 19.964867 19.156299 
L 19.903568 18.305104 
L 19.337278 16.49584 
L 18.934453 15.763012 
L 18.184264 15.38539 
L 16.55545 15.044175 
L 15.697258 14.753214 
L 15.598011 14.981825 
L 15.389301 15.953569 
L 15.020045 15.834036 
L 14.809875 15.388854 
L 14.774847 14.836344 
L 14.929555 14.387811 
L 15.297352 13.726361 
L 16.085488 11.098978 
L 16.431392 10.479602 
L 16.791891 10.08 
L 17.048765 10.265092 
L 17.148012 12.251487 
L 17.518727 12.7067 
L 18.969481 13.251987 
L 19.994058 14.389542 
L 20.22466 14.631986 
L 20.789491 15.042443 
L 21.669576 15.366336 
L 22.267976 15.355944 
L 22.606582 15.517034 
L 23.181629 16.53569 
L 23.788786 16.896094 
L 24.445566 17.062446 
L 24.264586 17.623933 
L 24.331724 17.854444 
L 24.79147 18.048568 
L 24.76082 18.637932 
L 24.928664 18.887572 
L 25.9547 19.562024 
L 26.026216 19.976461 
L 25.764963 20.6008 
L 25.401545 20.930352 
L 24.150744 21.730062 
L 24.646978 22.1187 
L 27.034738 21.176667 
L 28.053476 21.598212 
L 28.730689 23.159879 
L 29.20649 23.390711 
L 29.6531 23.206739 
L 30.076358 22.096144 
L 30.645568 21.684955 
L 31.405973 21.834158 
L 32.652395 23.177235 
L 33.456585 23.465343 
L 34.703008 23.125169 
L 35.275136 22.698256 
L 35.123347 22.073588 
L 34.276831 21.740472 
L 34.378996 21.02055 
L 33.86233 21.280748 
L 33.637565 21.199217 
L 33.456585 20.926883 
L 33.193874 19.969525 
L 32.493308 19.579364 
L 31.680361 19.282867 
L 31.099475 18.61713 
L 31.081961 18.046835 
L 31.314024 17.419432 
L 32.023346 16.492375 
L 32.48747 16.248084 
L 32.745804 16.331245 
L 33.456585 16.970605 
L 33.773299 17.143891 
L 34.460729 17.899507 
L 35.640014 18.421244 
L 35.77137 18.823427 
L 35.712989 19.347019 
L 37.060118 20.007676 
L 37.077632 20.465519 
L 36.830975 20.606004 
L 36.422311 20.401348 
L 36.0983 20.446441 
L 36.114355 21.348402 
L 36.296794 21.896617 
L 37.073253 23.437573 
L 37.308235 25.475742 
L 37.519864 26.076627 
L 37.870146 26.509111 
L 40.158659 27.678268 
L 40.45348 28.095286 
L 40.628622 28.746963 
L 40.865062 29.052854 
L 41.863368 29.54476 
L 42.539121 30.396612 
L 43.054329 30.779135 
L 43.623538 31.055617 
L 44.080365 31.113003 
L 45.208567 30.487024 
L 45.769019 31.236471 
L 46.049245 31.236471 
L 46.196655 31.173867 
L 48.010827 31.097352 
L 48.143643 31.173867 
L 48.788747 32.283497 
L 49.07773 32.450489 
L 49.452824 32.363513 
L 49.661534 32.055632 
L 49.738888 31.629509 
L 49.706779 31.173867 
L 49.946139 30.259261 
L 51.180885 29.148449 
L 51.420245 28.578386 
L 51.208616 28.15958 
L 50.167984 28.07791 
L 50.165065 27.678268 
L 50.888983 27.174429 
L 51.218832 26.946854 
L 50.697787 26.873893 
L 50.235122 26.632439 
L 50.048305 26.212099 
L 50.532862 25.42191 
L 50.929849 25.300356 
L 51.506356 25.486161 
L 51.531167 25.321193 
L 51.338512 24.932244 
L 51.280132 23.913169 
L 51.475706 23.63197 
L 52.085782 23.41501 
L 52.59661 23.520885 
L 52.7484 24.019057 
L 52.742561 25.652872 
L 53.294257 25.857797 
L 54.108664 25.823063 
L 54.445811 26.113099 
L 54.961018 27.624407 
L 55.331734 28.185646 
L 55.299624 29.021568 
L 55.34195 29.609077 
L 55.501037 29.916771 
L 56.621941 31.479941 
L 57.179474 31.172128 
L 57.557488 31.700816 
L 57.471377 32.161736 
L 57.07439 32.514853 
L 56.522694 32.720127 
L 57.051037 33.068073 
L 57.494729 33.111569 
L 57.719493 33.304694 
L 57.596894 34.105131 
L 56.379662 36.423806 
L 56.271659 37.256206 
L 56.791244 40.282483 
L 57.43197 41.989125 
L 57.719493 43.316229 
L 57.456781 45.688989 
L 57.404239 48.234241 
L 56.726514 51.149828 
L 56.607346 52.121463 
L 56.706593 53.275224 
L 56.956169 54.47827 
L 57.286019 55.139394 
L 57.725331 55.225103 
L 58.730934 54.780835 
L 59.802215 54.735362 
L 66.070814 57.623908 
L 70.50043 58.69165 
L 72.695534 59.710633 
L 73.688001 59.743903 
L 76.5574 59.073302 
L 78.872184 59.30266 
L 80.004764 58.984013 
L 80.725762 59.106567 
L 81.335838 59.412966 
L 82.628965 59.589813 
L 82.789511 59.486505 
L 83.23904 59.052293 
L 83.691488 59.115321 
L 84.82115 59.866478 
L 85.612205 59.971546 
L 89.042055 59.45849 
L 89.938195 59.106567 
L 94.462678 58.313534 
L 96.377557 58.310033 
L 96.99347 57.961706 
L 97.297048 57.951204 
L 98.660231 58.728413 
L 102.837351 60.118645 
L 104.218049 60.209709 
L 105.423605 59.873483 
L 106.138765 59.334176 
L 106.629161 59.372695 
L 107.478596 60.425117 
L 107.957315 60.552967 
L 108.678314 60.589746 
L 109.338013 60.482912 
L 109.626996 60.167679 
L 109.772947 59.621331 
L 110.096958 59.609074 
L 110.712872 59.890994 
L 110.911365 59.715886 
L 111.261648 59.118823 
L 111.690744 59.054044 
L 113.056846 59.190606 
L 116.075115 58.775681 
L 117.648467 59.040037 
L 118.932837 58.593617 
L 119.843571 58.637381 
L 120.748468 58.87897 
L 121.720502 59.402461 
L 122.164194 60.06786 
L 122.388958 60.151918 
L 122.797621 60.171181 
L 123.147904 60.397096 
L 123.536134 60.2675 
L 123.760899 60.32179 
L 123.944797 60.500426 
L 124.759204 61.469042 
L 125.483121 61.914891 
L 125.988112 62.055925 
L 127.45638 62.276684 
L 127.698659 62.469419 
L 128.151107 63.167721 
L 128.945081 63.541013 
L 129.645646 64.001101 
L 129.81203 64.962627 
L 130.527191 65.223863 
L 130.533029 65.336077 
L 131.820317 66.381208 
L 131.586796 66.613591 
L 132.281523 66.945089 
L 132.547154 67.231881 
L 132.760242 67.773067 
L 132.850732 68.364328 
L 132.76608 68.742461 
L 132.374931 69.415464 
L 131.367869 69.704176 
L 129.636889 70.339588 
L 129.149949 70.18952 
L 129.031699 70.009209 
L 128.998527 69.760562 
L 127.080766 68.483598 
L 126.005626 68.088864 
L 125.182462 68.482765 
L 125.030673 69.053065 
L 125.147434 69.653277 
L 125.521069 70.745107 
L 125.561935 71.823166 
L 125.48604 72.350003 
L 124.049882 76.779727 
L 123.504025 79.776439 
L 123.119236 80.355786 
L 122.015324 81.305485 
L 121.875211 81.954039 
L 122.024081 84.030586 
L 121.921915 84.995692 
L 121.376058 85.825358 
L 120.65506 86.187396 
L 119.826057 86.261392 
L 117.470407 86.038525 
L 117.438298 86.442866 
L 118.074644 87.597069 
L 118.097997 88.061479 
L 117.557978 87.825303 
L 116.676433 87.091297 
L 116.054681 87.311574 
L 115.958354 87.92312 
L 116.253175 89.279575 
L 116.226904 89.952227 
L 115.412497 93.45466 
L 115.056376 93.708784 
L 114.484248 93.547308 
L 113.623136 92.597981 
L 113.555999 92.293639 
L 113.4334 91.300483 
L 113.138579 91.284608 
L 111.340461 90.851607 
L 111.060235 91.305774 
L 111.331704 93.240255 
L 111.007693 93.763493 
L 110.514378 93.969982 
L 109.962683 93.883503 
L 109.454773 93.527014 
L 109.200819 92.999391 
L 108.701666 91.622396 
L 108.406845 91.49892 
L 108.278408 91.903759 
L 107.974829 94.067053 
L 107.755903 94.792503 
L 107.487353 95.266492 
L 107.072852 95.570154 
L 106.418991 95.789968 
L 105.25722 95.942697 
L 104.209292 95.846469 
L 102.06673 95.330047 
L 100.893283 95.442154 
L 100.548838 96.317037 
L 100.505053 97.622175 
L 100.21607 99.017803 
L 99.877463 99.269592 
L 98.876239 99.031938 
L 98.382924 99.257223 
L 97.711549 100.084248 
L 96.625673 102.464558 
L 96.649026 102.934051 
L 97.08396 104.157966 
L 97.002227 104.802776 
L 96.435937 106.671385 
L 96.146954 107.233357 
L 95.627368 107.528973 
L 95.090268 107.582079 
L 94.643658 107.756451 
L 94.378027 108.415935 
L 94.497707 109.1614 
L 95.41136 109.6245 
L 95.589421 110.140782 
L 95.341304 110.69698 
L 94.585277 110.714695 
L 94.488949 111.539377 
L 94.617386 112.1365 
L 95.653639 114.462829 
L 95.89008 115.585204 
L 96.383395 116.396569 
L 96.876709 116.740667 
L 97.127745 117.314514 
L 97.26202 118.169652 
L 97.930476 120.320613 
L 98.292435 120.631271 
L 98.660231 120.739562 
L 98.75364 120.94195 
L 98.631041 121.213589 
L 98.146484 121.842148 
L 98.347896 122.387322 
L 98.470495 122.738967 
L 99.127275 128.273737 
L 99.495072 129.693798 
L 100.169366 130.725544 
L 101.115129 131.011092 
L 101.220213 129.877006 
L 100.69187 126.989204 
L 100.686032 125.458888 
L 100.834903 124.654828 
L 101.150157 124.16091 
L 101.777747 124.134262 
L 102.320685 124.616628 
L 102.968707 125.777885 
L 102.95995 125.748561 
L 103.065035 125.480213 
L 103.248933 125.754782 
L 103.248933 126.361732 
L 103.733491 126.835439 
L 104.057502 128.247065 
L 104.933209 131.754845 
L 105.274734 131.964825 
L 105.429443 133.337931 
L 105.79432 133.798094 
L 106.92982 134.24762 
L 107.10788 134.626857 
L 107.192532 135.086255 
L 107.653737 134.793339 
L 107.925206 134.212013 
L 108.056562 133.928942 
L 108.313436 133.808776 
L 109.113248 133.928942 
L 109.49564 133.771391 
L 110.260423 133.581803 
L 110.817957 133.065592 
L 111.492251 132.323413 
L 112.00016 131.376726 
L 111.991403 131.053793 
L 112.224925 130.912349 
L 112.563532 130.925693 
L 113.109389 130.091349 
L 111.798748 125.174564 
L 111.64404 123.802053 
L 112.178221 122.110287 
L 112.998466 120.502567 
L 113.734059 119.383439 
L 114.189427 118.937992 
L 115.751103 118.181185 
L 116.203551 117.813917 
L 116.571348 117.35709 
L 117.210614 116.147381 
L 117.254399 114.800577 
L 116.510049 110.831611 
L 116.524644 108.785111 
L 116.699785 108.336261 
L 117.093853 108.316785 
L 118.98246 110.925501 
L 119.420313 111.177951 
L 120.080012 110.989277 
L 120.567489 110.511869 
L 121.945267 108.498267 
L 123.142066 108.038822 
L 123.702518 108.998485 
L 123.988582 110.309937 
L 124.370974 110.9007 
L 124.797151 110.439243 
L 125.156191 108.856825 
L 125.626153 108.546073 
L 126.219124 109.032894 
L 126.274176 109.633355 
L 125.944327 111.090256 
L 126.02314 112.232188 
L 127.103178 116.143834 
L 127.398 118.323133 
L 127.54687 118.595506 
L 128.072294 119.294701 
L 128.116079 119.552045 
L 128.110241 120.264697 
L 128.250354 120.491916 
L 128.729073 120.99166 
L 128.755345 121.305914 
L 128.685288 122.320726 
L 128.980109 123.574673 
L 128.787454 124.192001 
L 128.162783 125.904068 
L 128.136512 127.27186 
L 128.854591 132.142781 
L 128.831239 134.539612 
L 129.047247 135.701526 
L 129.578509 136.60365 
L 130.515515 137.034735 
L 130.924178 137.616405 
L 131.367869 141.345935 
L 131.697718 141.862148 
L 132.459583 142.614723 
L 132.76608 143.13553 
L 132.888679 143.668881 
L 133.087173 146.327592 
L 133.028792 148.334187 
L 133.133877 148.912754 
L 133.495836 149.9915 
L 133.539621 150.586341 
L 135.180111 161.893041 
L 135.139245 162.77226 
L 134.818153 162.944182 
L 134.397813 162.938809 
L 134.059207 163.28088 
L 134.698473 165.613317 
L 135.148002 168.518733 
L 135.148002 168.518733 
" clip-path="url(#paf9dd78ccf)" style="fill: none; stroke: #000000; stroke-width: 0.5; stroke-linecap: square"/>
   </g>
  </g>
 </g>
 <defs>
  <clipPath id="paf9dd78ccf">
   <rect x="0" y="-0" width="143.56522" height="221.76"/>
  </clipPath>
 </defs>
</svg>
