<?xml version="1.0" encoding="utf-8" standalone="no"?>
<!DOCTYPE svg PUBLIC "-//W3C//DTD SVG 1.1//EN"
  "http://www.w3.org/Graphics/SVG/1.1/DTD/svg11.dtd">
<svg xmlns:xlink="http://www.w3.org/1999/xlink" width="223.2pt" height="146.05528pt" viewBox="0 0 223.2 146.05528" xmlns="http://www.w3.org/2000/svg" version="1.1">
 <metadata>
  <rdf:RDF xmlns:dc="http://purl.org/dc/elements/1.1/" xmlns:cc="http://creativecommons.org/ns#" xmlns:rdf="http://www.w3.org/1999/02/22-rdf-syntax-ns#">
   <cc:Work>
    <dc:type rdf:resource="http://purl.org/dc/dcmitype/StillImage"/>
    <dc:date>2026-04-26T19:22:14.005593</dc:date>
    <dc:format>image/svg+xml</dc:format>
    <dc:creator>
     <cc:Agent>
      <dc:title>Matplotlib v3.10.9, https://matplotlib.org/</dc:title>
     </cc:Agent>
    </dc:creator>
   </cc:Work>
  </rdf:RDF>
 </metadata>
 <defs>
  <style type="text/css">*{stroke-linejoin: round; stroke-linecap: butt}</style>
 </defs>
 <g id="figure_1">
  <g id="patch_1">
   <path d="M 0 146.05528 
L 223.2 146.05528 
L 223.2 0 
L 0 0 
z
" style="fill: #ffffff"/>
  </g>
  <g id="axes_1">
   <g id="patch_2">
    <path d="M 111.604495 139.416404 
L 101.231168 139.068732 
L 91.15448 138.055113 
L 81.437352 136.409266 
L 72.115741 134.160835 
L 63.25257 131.34793 
L 54.883794 128.000353 
L 47.072338 124.160511 
L 39.863146 119.849921 
L 33.319142 115.111029 
L 27.47628 109.977909 
L 22.388497 104.484613 
L 18.118713 98.660992 
L 14.711875 92.541027 
L 12.212929 86.175301 
L 10.666818 79.572667 
L 10.145455 72.783557 
L 10.666818 65.999549 
L 12.212929 59.419952 
L 14.711875 53.06508 
L 18.118713 46.980079 
L 22.388497 41.193419 
L 27.47628 35.741802 
L 33.319142 30.653596 
L 39.863146 25.961279 
L 47.072338 21.697309 
L 54.883794 17.902402 
L 63.25257 14.596618 
L 72.115741 11.820713 
L 81.437352 9.607222 
L 91.15448 7.980495 
L 101.231168 6.981486 
L 111.604495 6.638876 
L 121.977821 6.981486 
L 132.054509 7.980495 
L 141.780626 9.607222 
L 151.093248 11.820713 
L 159.95642 14.596618 
L 168.316206 17.902402 
L 176.136651 21.697309 
L 183.345843 25.961279 
L 189.889848 30.653596 
L 195.732709 35.741802 
L 200.802515 41.193419 
L 205.081287 46.980079 
L 208.497114 53.06508 
L 210.99606 59.419952 
L 212.524193 65.999549 
L 213.054545 72.783557 
L 212.524193 79.572667 
L 210.99606 86.175301 
L 208.497114 92.541027 
L 205.081287 98.660992 
L 200.802515 104.484613 
L 195.732709 109.977909 
L 189.889848 115.111029 
L 183.345843 119.849921 
L 176.136651 124.160511 
L 168.316206 128.000353 
L 159.95642 131.34793 
L 151.093248 134.160835 
L 141.780626 136.409266 
L 132.054509 138.055113 
L 121.977821 139.068732 
z
" clip-path="url(#p8109f76eaa)" style="stroke: #000000; stroke-linejoin: miter"/>
   </g>
   <g id="line2d_1">
    <path d="M 111.604495 139.416404 
L 101.231168 139.068732 
L 91.15448 138.055113 
L 81.437352 136.409266 
L 72.115741 134.160835 
L 63.25257 131.34793 
L 54.883794 128.000353 
L 47.072338 124.160511 
L 39.863146 119.849921 
L 33.319142 115.111029 
L 27.47628 109.977909 
L 22.388497 104.484613 
L 18.118713 98.660992 
L 14.711875 92.541027 
L 12.212929 86.175301 
L 10.666818 79.572667 
L 10.145455 72.783557 
L 10.666818 65.999549 
L 12.212929 59.419952 
L 14.711875 53.06508 
L 18.118713 46.980079 
L 22.388497 41.193419 
L 27.47628 35.741802 
L 33.319142 30.653596 
L 39.863146 25.961279 
L 47.072338 21.697309 
L 54.883794 17.902402 
L 63.25257 14.596618 
L 72.115741 11.820713 
L 81.437352 9.607222 
L 91.15448 7.980495 
L 101.231168 6.981486 
L 111.604495 6.638876 
L 121.977821 6.981486 
L 132.054509 7.980495 
L 141.780626 9.607222 
L 151.093248 11.820713 
L 159.95642 14.596618 
L 168.316206 17.902402 
L 176.136651 21.697309 
L 183.345843 25.961279 
L 189.889848 30.653596 
L 195.732709 35.741802 
L 200.802515 41.193419 
L 205.081287 46.980079 
L 208.497114 53.06508 
L 210.99606 59.419952 
L 212.524193 65.999549 
L 213.054545 72.783557 
L 212.524193 79.572667 
L 210.99606 86.175301 
L 208.497114 92.541027 
L 205.081287 98.660992 
L 200.802515 104.484613 
L 195.732709 109.977909 
L 189.889848 115.111029 
L 183.345843 119.849921 
L 176.136651 124.160511 
L 168.316206 128.000353 
L 159.95642 131.34793 
L 151.093248 134.160835 
L 141.780626 136.409266 
L 132.054509 138.055113 
L 121.977821 139.068732 
L 111.604495 139.416404 
" clip-path="url(#p8109f76eaa)" style="fill: none; stroke: #000000; stroke-width: 0.5; stroke-linecap: square"/>
   </g>
  </g>
 </g>
 <defs>
  <clipPath id="p8109f76eaa">
   <rect x="0" y="0" width="223.2" height="146.05528"/>
  </clipPath>
 </defs>
</svg>
