<?xml version="1.0" encoding="utf-8" standalone="no"?>
<!DOCTYPE svg PUBLIC "-//W3C//DTD SVG 1.1//EN"
  "http://www.w3.org/Graphics/SVG/1.1/DTD/svg11.dtd">
<svg xmlns:xlink="http://www.w3.org/1999/xlink" width="77.435062pt" height="221.76pt" viewBox="0 0 77.435062 221.76" xmlns="http://www.w3.org/2000/svg" version="1.1">
 <metadata>
  <rdf:RDF xmlns:dc="http://purl.org/dc/elements/1.1/" xmlns:cc="http://creativecommons.org/ns#" xmlns:rdf="http://www.w3.org/1999/02/22-rdf-syntax-ns#">
   <cc:Work>
    <dc:type rdf:resource="http://purl.org/dc/dcmitype/StillImage"/>
    <dc:date>2026-04-26T19:22:11.943055</dc:date>
    <dc:format>image/svg+xml</dc:format>
    <dc:creator>
     <cc:Agent>
      <dc:title>Matplotlib v3.10.9, https://matplotlib.org/</dc:title>
     </cc:Agent>
    </dc:creator>
   </cc:Work>
  </rdf:RDF>
 </metadata>
 <defs>
  <style type="text/css">*{stroke-linejoin: round; stroke-linecap: butt}</style>
 </defs>
 <g id="figure_1">
  <g id="patch_1">
   <path d="M 0 221.76 
L 77.435062 221.76 
L 77.435062 0 
L 0 0 
z
" style="fill: #ffffff"/>
  </g>
  <g id="axes_1">
   <g id="patch_2">
    <path d="M 6.167977 171.858494 
L 6.704484 163.85582 
L 7.820932 142.08607 
L 8.850511 122.038006 
L 8.757519 100.04937 
L 8.422345 78.675639 
L 8.161095 62.038144 
L 8.107456 55.334942 
L 8.561807 52.286564 
L 9.866488 50.041444 
L 14.941649 47.81655 
L 16.249485 48.364794 
L 17.255998 49.461348 
L 18.169432 50.689114 
L 19.196454 51.642793 
L 19.923731 51.734191 
L 20.6163 51.559344 
L 21.195282 51.718296 
L 22.032991 53.880222 
L 22.817062 54.603589 
L 25.267085 56.332665 
L 25.814515 56.14186 
L 26.18052 55.521761 
L 26.456601 53.820606 
L 26.727949 53.268172 
L 29.8453 50.446731 
L 30.419549 49.632196 
L 31.293543 46.624789 
L 31.583823 45.929642 
L 32.490947 45.016073 
L 33.325501 44.428244 
L 34.055933 43.76498 
L 34.65069 42.627178 
L 34.843158 41.799203 
L 35.029316 40.063993 
L 35.196542 39.299696 
L 36.7142 36.229038 
L 36.917711 35.365725 
L 36.70789 34.296086 
L 36.48387 34.073834 
L 38.222392 32.524122 
L 40.005088 31.498353 
L 40.732365 30.829759 
L 41.346054 29.669221 
L 41.524974 28.77845 
L 41.57954 28.506798 
L 41.682084 27.292906 
L 41.912415 25.987894 
L 42.500862 24.752412 
L 44.38768 22.141016 
L 45.143353 20.705656 
L 45.354753 19.825483 
L 45.594549 17.878996 
L 46.145134 16.035839 
L 46.471698 13.717386 
L 46.790375 12.887199 
L 47.255769 12.31858 
L 49.145742 10.559381 
L 49.759431 10.642581 
L 50.324214 11.01897 
L 50.953679 11.232921 
L 51.491643 11.143774 
L 52.711133 10.614848 
L 53.375306 10.2147 
L 53.787061 10.08 
L 54.107315 10.218662 
L 54.694185 10.896147 
L 55.158001 11.234902 
L 55.516118 11.163585 
L 55.872657 10.927843 
L 56.338051 10.767383 
L 60.119575 10.729744 
L 60.46712 10.80134 
L 60.46712 11.075873 
L 61.518029 12.223981 
L 60.318055 14.102347 
L 55.590203 18.193844 
L 55.145492 19.295732 
L 55.843614 20.497611 
L 56.708192 20.563171 
L 59.632355 18.971087 
L 59.289505 20.088648 
L 58.720572 21.274986 
L 57.321844 23.401288 
L 56.986447 24.078902 
L 57.160356 24.428651 
L 57.632396 24.391178 
L 58.171516 23.925889 
L 59.200065 22.539487 
L 61.224868 20.78795 
L 62.18137 20.244739 
L 63.195013 20.019968 
L 64.55896 20.250983 
L 66.332836 21.287474 
L 67.132819 21.593442 
L 68.429686 21.35616 
L 70.278095 19.820175 
L 72.392336 19.039762 
L 73.110334 18.924264 
L 73.42834 19.208327 
L 73.309088 20.291567 
L 72.971206 21.000246 
L 71.758809 22.117973 
L 70.36505 22.836115 
L 70.094248 23.160852 
L 70.074372 24.000834 
L 70.514115 24.178829 
L 71.048265 23.910276 
L 71.505398 22.998483 
L 72.004767 22.576955 
L 72.628356 22.24911 
L 73.219648 22.117973 
L 73.420886 22.536364 
L 73.915286 31.612988 
L 73.42834 38.657293 
L 73.229586 39.857747 
L 72.374945 41.696145 
L 72.176192 42.899991 
L 69.880588 49.959443 
L 68.837131 50.819834 
L 68.829678 50.835478 
L 66.298054 56.831537 
L 66.668232 58.819317 
L 65.93036 65.21029 
L 64.439708 71.579093 
L 63.955246 72.866986 
L 62.367701 75.151638 
L 61.726721 76.565235 
L 61.45095 78.214086 
L 61.719267 80.06065 
L 62.45714 80.998131 
L 64.633492 82.337048 
L 65.088141 83.503608 
L 65.67198 84.143374 
L 68.230933 84.685944 
L 68.802349 85.31949 
L 68.066961 86.815648 
L 66.491839 86.796828 
L 64.926654 86.514522 
L 64.221079 87.210886 
L 64.062076 88.406076 
L 63.128764 92.178715 
L 61.537905 98.611571 
L 60.946613 106.449445 
L 60.884502 108.064017 
L 60.668358 111.095748 
L 61.100647 112.726545 
L 61.339151 114.197245 
L 61.349089 114.351237 
L 61.398777 115.033221 
L 61.719267 116.809042 
L 61.957772 117.774047 
L 62.536642 118.170126 
L 63.838478 118.704535 
L 64.578835 119.880303 
L 65.085657 121.373726 
L 65.37385 123.052828 
L 65.532852 125.502645 
L 65.88564 127.383524 
L 65.741544 128.283159 
L 65.358943 128.478191 
L 64.822308 128.468754 
L 64.221079 128.732996 
L 63.55277 129.484853 
L 62.718004 130.658329 
L 62.014913 131.998659 
L 61.719267 133.24156 
L 61.990069 134.663943 
L 63.182591 136.94885 
L 63.418611 138.283447 
L 63.525441 138.289742 
L 63.739101 138.494349 
L 63.89562 138.843761 
L 63.838478 139.290768 
L 63.612396 139.36632 
L 62.807443 139.234105 
L 62.551548 139.290768 
L 61.776409 140.043156 
L 61.463372 140.512236 
L 61.339151 141.21431 
L 61.204993 141.592122 
L 60.901893 141.969942 
L 60.601278 142.495759 
L 60.46712 143.301836 
L 60.52923 144.227618 
L 60.817423 145.449486 
L 60.884502 146.20533 
L 60.320539 151.692628 
L 59.942907 152.533853 
L 59.408757 153.198674 
L 58.797589 154.188082 
L 58.099467 157.352099 
L 57.766555 158.319714 
L 57.557864 159.684563 
L 57.962824 161.632758 
L 57.709413 162.34842 
L 57.27464 163.032585 
L 56.862226 163.083032 
L 56.678379 161.875512 
L 58.591382 153.072639 
L 59.619932 151.743037 
L 60.012471 150.964864 
L 58.402567 151.976182 
L 56.752912 157.052687 
L 55.426231 158.94381 
L 55.828707 159.022612 
L 56.678379 159.520649 
L 56.265965 159.775978 
L 55.947959 159.886307 
L 55.570328 159.816957 
L 55.011333 159.520649 
L 55.138039 160.201536 
L 55.294557 160.523076 
L 55.615047 160.608191 
L 56.256028 160.57982 
L 56.256028 161.058992 
L 55.607594 161.591774 
L 55.147976 162.370489 
L 55.041146 163.303737 
L 55.202633 163.719934 
L 55.426231 164.281187 
L 54.278429 165.334379 
L 53.028766 168.399769 
L 51.880964 169.046353 
L 51.761711 169.472168 
L 51.649913 171.314345 
L 51.674757 171.692902 
L 51.326938 171.951588 
L 51.003963 171.957897 
L 50.800241 171.828554 
L 50.800241 171.692902 
L 50.412671 172.008373 
L 50.285966 172.169265 
L 50.211433 172.368018 
L 49.970445 172.7466 
L 49.185368 175.06562 
L 48.944379 175.444268 
L 48.46737 175.775593 
L 46.859951 178.357013 
L 46.678588 178.767303 
L 46.425177 179.789918 
L 46.253752 180.162368 
L 46.214001 180.386474 
L 46.293503 181.049341 
L 46.253752 181.267147 
L 46.084811 181.317653 
L 45.587927 181.219798 
L 45.418987 181.267147 
L 45.150669 181.456545 
L 44.412797 181.658573 
L 44.132057 181.847976 
L 44.002867 182.151026 
L 43.714675 183.38854 
L 43.714675 180.162368 
L 43.297292 180.162368 
L 42.877425 181.847976 
L 42.0203 182.094204 
L 41.178082 181.447075 
L 40.797965 180.45276 
L 40.559461 180.010862 
L 40.045186 179.96036 
L 39.53588 180.080302 
L 39.317251 180.162368 
L 39.240234 180.440134 
L 39.267563 181.803782 
L 39.091169 182.327808 
L 38.651426 182.504591 
L 36.589358 182.858165 
L 36.23657 183.148607 
L 35.948377 183.514823 
L 35.511119 183.833691 
L 34.69623 183.966291 
L 33.831651 184.458817 
L 33.57824 185.674411 
L 33.709915 188.686966 
L 33.486317 190.304005 
L 32.907447 191.478989 
L 32.047838 192.205501 
L 30.982021 192.445574 
L 30.671469 192.647743 
L 30.311228 193.137382 
L 30.010613 193.740764 
L 29.742296 195.08977 
L 29.369633 195.4847 
L 28.842936 195.73746 
L 28.254128 196.154524 
L 27.575881 196.868612 
L 27.272782 197.266746 
L 27.00198 197.747048 
L 26.855399 198.606573 
L 26.905088 199.466144 
L 26.736147 200.132975 
L 25.14115 200.705019 
L 24.087755 201.488847 
L 23.066659 202.522421 
L 22.378474 203.581351 
L 22.164814 205.509733 
L 23.439322 208.747409 
L 23.21324 210.56889 
L 20.898692 211.68 
L 15.498544 209.964996 
L 13.540734 209.98106 
L 11.799056 210.346538 
L 7.126185 210.077449 
L 6.007662 210.647762 
L 5.453922 210.687926 
L 4.739266 210.981124 
L 4.161861 211.338591 
L 4.02461 211.587618 
L 3.519776 210.571452 
L 3.549689 209.593871 
L 3.664915 205.828856 
L 5.229091 187.876234 
z
" clip-path="url(#pef5327e5e2)" style="stroke: #000000; stroke-linejoin: miter"/>
   </g>
   <g id="line2d_1">
    <path d="M 6.167977 171.858494 
L 6.704484 163.85582 
L 8.850511 122.038006 
L 8.757519 100.04937 
L 8.107456 55.334942 
L 8.561807 52.286564 
L 9.866488 50.041444 
L 14.941649 47.81655 
L 16.249485 48.364794 
L 17.255998 49.461348 
L 18.169432 50.689114 
L 19.196454 51.642793 
L 19.923731 51.734191 
L 20.6163 51.559344 
L 21.195282 51.718296 
L 22.032991 53.880222 
L 22.817062 54.603589 
L 25.267085 56.332665 
L 25.814515 56.14186 
L 26.18052 55.521761 
L 26.456601 53.820606 
L 26.727949 53.268172 
L 29.8453 50.446731 
L 30.419549 49.632196 
L 31.583823 45.929642 
L 32.490947 45.016073 
L 33.325501 44.428244 
L 34.055933 43.76498 
L 34.65069 42.627178 
L 34.843158 41.799203 
L 35.196542 39.299696 
L 36.7142 36.229038 
L 36.917711 35.365725 
L 36.70789 34.296086 
L 36.48387 34.073834 
L 38.222392 32.524122 
L 40.005088 31.498353 
L 40.732365 30.829759 
L 41.346054 29.669221 
L 41.57954 28.506798 
L 41.682084 27.292906 
L 41.912415 25.987894 
L 42.500862 24.752412 
L 44.38768 22.141016 
L 45.143353 20.705656 
L 45.354753 19.825483 
L 45.594549 17.878996 
L 46.145134 16.035839 
L 46.471698 13.717386 
L 46.790375 12.887199 
L 47.255769 12.31858 
L 49.145742 10.559381 
L 49.759431 10.642581 
L 50.324214 11.01897 
L 50.953679 11.232921 
L 51.491643 11.143774 
L 53.787061 10.08 
L 54.107315 10.218662 
L 54.694185 10.896147 
L 55.158001 11.234902 
L 55.516118 11.163585 
L 55.872657 10.927843 
L 56.338051 10.767383 
L 60.46712 10.80134 
L 60.46712 11.075873 
L 61.518029 12.223981 
L 60.318055 14.102347 
L 55.590203 18.193844 
L 55.145492 19.295732 
L 55.843614 20.497611 
L 56.708192 20.563171 
L 59.632355 18.971087 
L 59.289505 20.088648 
L 58.720572 21.274986 
L 56.986447 24.078902 
L 57.160356 24.428651 
L 57.632396 24.391178 
L 58.171516 23.925889 
L 59.200065 22.539487 
L 61.224868 20.78795 
L 62.18137 20.244739 
L 63.195013 20.019968 
L 64.55896 20.250983 
L 66.332836 21.287474 
L 67.132819 21.593442 
L 68.429686 21.35616 
L 70.278095 19.820175 
L 72.392336 19.039762 
L 73.110334 18.924264 
L 73.42834 19.208327 
L 73.309088 20.291567 
L 72.971206 21.000246 
L 71.758809 22.117973 
L 70.36505 22.836115 
L 70.094248 23.160852 
L 70.074372 24.000834 
L 70.514115 24.178829 
L 71.048265 23.910276 
L 71.505398 22.998483 
L 72.004767 22.576955 
L 72.628356 22.24911 
L 73.219648 22.117973 
L 73.420886 22.536364 
L 73.915286 31.612988 
L 73.42834 38.657293 
L 73.229586 39.857747 
L 72.374945 41.696145 
L 72.176192 42.899991 
L 69.880588 49.959443 
L 68.829678 50.835478 
L 66.298054 56.831537 
L 66.668232 58.819317 
L 65.93036 65.21029 
L 64.439708 71.579093 
L 63.955246 72.866986 
L 62.367701 75.151638 
L 61.726721 76.565235 
L 61.45095 78.214086 
L 61.719267 80.06065 
L 62.45714 80.998131 
L 64.633492 82.337048 
L 65.088141 83.503608 
L 65.67198 84.143374 
L 68.230933 84.685944 
L 68.802349 85.31949 
L 68.066961 86.815648 
L 66.491839 86.796828 
L 64.926654 86.514522 
L 64.221079 87.210886 
L 64.062076 88.406076 
L 61.537905 98.611571 
L 60.668358 111.095748 
L 61.100647 112.726545 
L 61.957772 117.774047 
L 62.536642 118.170126 
L 63.838478 118.704535 
L 64.578835 119.880303 
L 65.085657 121.373726 
L 65.37385 123.052828 
L 65.532852 125.502645 
L 65.88564 127.383524 
L 65.741544 128.283159 
L 65.358943 128.478191 
L 64.822308 128.468754 
L 64.221079 128.732996 
L 63.55277 129.484853 
L 62.718004 130.658329 
L 62.014913 131.998659 
L 61.719267 133.24156 
L 61.990069 134.663943 
L 63.182591 136.94885 
L 63.525441 138.289742 
L 63.739101 138.494349 
L 63.89562 138.843761 
L 63.838478 139.290768 
L 63.612396 139.36632 
L 62.551548 139.290768 
L 61.776409 140.043156 
L 61.463372 140.512236 
L 61.204993 141.592122 
L 60.601278 142.495759 
L 60.46712 143.301836 
L 60.52923 144.227618 
L 60.884502 146.20533 
L 60.320539 151.692628 
L 59.942907 152.533853 
L 59.408757 153.198674 
L 58.797589 154.188082 
L 58.099467 157.352099 
L 57.766555 158.319714 
L 57.557864 159.684563 
L 57.962824 161.632758 
L 57.709413 162.34842 
L 57.27464 163.032585 
L 56.862226 163.083032 
L 56.678379 161.875512 
L 58.591382 153.072639 
L 59.619932 151.743037 
L 60.012471 150.964864 
L 58.402567 151.976182 
L 56.752912 157.052687 
L 55.426231 158.94381 
L 55.828707 159.022612 
L 56.678379 159.520649 
L 55.947959 159.886307 
L 55.570328 159.816957 
L 55.011333 159.520649 
L 55.294557 160.523076 
L 55.615047 160.608191 
L 56.256028 160.57982 
L 56.256028 161.058992 
L 55.607594 161.591774 
L 55.147976 162.370489 
L 55.041146 163.303737 
L 55.426231 164.281187 
L 54.278429 165.334379 
L 53.028766 168.399769 
L 51.880964 169.046353 
L 51.761711 169.472168 
L 51.674757 171.692902 
L 51.326938 171.951588 
L 51.003963 171.957897 
L 50.800241 171.828554 
L 50.800241 171.692902 
L 50.285966 172.169265 
L 48.944379 175.444268 
L 48.46737 175.775593 
L 46.678588 178.767303 
L 46.214001 180.386474 
L 46.253752 181.267147 
L 46.084811 181.317653 
L 45.418987 181.267147 
L 45.150669 181.456545 
L 44.132057 181.847976 
L 44.002867 182.151026 
L 43.714675 183.38854 
L 43.714675 180.162368 
L 43.297292 180.162368 
L 42.877425 181.847976 
L 42.0203 182.094204 
L 41.178082 181.447075 
L 40.559461 180.010862 
L 40.045186 179.96036 
L 39.317251 180.162368 
L 39.240234 180.440134 
L 39.267563 181.803782 
L 39.091169 182.327808 
L 38.651426 182.504591 
L 36.589358 182.858165 
L 35.511119 183.833691 
L 34.69623 183.966291 
L 33.831651 184.458817 
L 33.57824 185.674411 
L 33.709915 188.686966 
L 33.486317 190.304005 
L 32.907447 191.478989 
L 32.047838 192.205501 
L 30.982021 192.445574 
L 30.671469 192.647743 
L 30.311228 193.137382 
L 30.010613 193.740764 
L 29.742296 195.08977 
L 29.369633 195.4847 
L 28.842936 195.73746 
L 28.254128 196.154524 
L 27.272782 197.266746 
L 27.00198 197.747048 
L 26.855399 198.606573 
L 26.905088 199.466144 
L 26.736147 200.132975 
L 25.14115 200.705019 
L 24.087755 201.488847 
L 23.066659 202.522421 
L 22.378474 203.581351 
L 22.164814 205.509733 
L 23.439322 208.747409 
L 23.21324 210.56889 
L 20.898692 211.68 
L 15.498544 209.964996 
L 13.540734 209.98106 
L 11.799056 210.346538 
L 7.126185 210.077449 
L 6.007662 210.647762 
L 5.453922 210.687926 
L 4.739266 210.981124 
L 4.161861 211.338591 
L 4.02461 211.587618 
L 3.519776 210.571452 
L 3.664915 205.828856 
L 5.229091 187.876234 
L 6.167977 171.858494 
L 6.167977 171.858494 
" clip-path="url(#pef5327e5e2)" style="fill: none; stroke: #000000; stroke-width: 0.5; stroke-linecap: square"/>
   </g>
  </g>
 </g>
 <defs>
  <clipPath id="pef5327e5e2">
   <rect x="0" y="-0" width="77.435062" height="221.76"/>
  </clipPath>
 </defs>
</svg>
