<?xml version="1.0" encoding="utf-8" standalone="no"?>
<!DOCTYPE svg PUBLIC "-//W3C//DTD SVG 1.1//EN"
  "http://www.w3.org/Graphics/SVG/1.1/DTD/svg11.dtd">
<svg xmlns:xlink="http://www.w3.org/1999/xlink" width="84.573918pt" height="221.76pt" viewBox="0 0 84.573918 221.76" xmlns="http://www.w3.org/2000/svg" version="1.1">
 <metadata>
  <rdf:RDF xmlns:dc="http://purl.org/dc/elements/1.1/" xmlns:cc="http://creativecommons.org/ns#" xmlns:rdf="http://www.w3.org/1999/02/22-rdf-syntax-ns#">
   <cc:Work>
    <dc:type rdf:resource="http://purl.org/dc/dcmitype/StillImage"/>
    <dc:date>2026-04-26T19:22:02.931246</dc:date>
    <dc:format>image/svg+xml</dc:format>
    <dc:creator>
     <cc:Agent>
      <dc:title>Matplotlib v3.10.9, https://matplotlib.org/</dc:title>
     </cc:Agent>
    </dc:creator>
   </cc:Work>
  </rdf:RDF>
 </metadata>
 <defs>
  <style type="text/css">*{stroke-linejoin: round; stroke-linecap: butt}</style>
 </defs>
 <g id="figure_1">
  <g id="patch_1">
   <path d="M 0 221.76 
L 84.573918 221.76 
L 84.573918 0 
L 0 0 
z
" style="fill: #ffffff"/>
  </g>
  <g id="axes_1">
   <g id="patch_2">
    <path d="M 74.708334 32.818365 
L 74.158359 33.554274 
L 72.423229 37.325056 
L 72.126294 38.78426 
L 71.96879 39.277128 
L 71.467874 41.019527 
L 71.511769 41.764454 
L 71.883583 42.645052 
L 76.360839 50.720713 
L 76.965036 51.455505 
L 77.171599 51.499913 
L 77.406564 51.44545 
L 77.436029 51.447469 
L 77.638948 51.46137 
L 77.848093 51.71944 
L 77.592471 52.978889 
L 77.592471 53.681167 
L 77.693171 54.329017 
L 77.879078 54.924105 
L 78.1347 55.478156 
L 78.1347 55.486538 
L 78.648525 58.376324 
L 78.620123 59.332227 
L 78.077895 61.041343 
L 78.04691 61.603285 
L 78.17343 61.990791 
L 78.374829 62.260881 
L 78.594302 62.497425 
L 78.782791 62.775916 
L 78.906729 63.124041 
L 79.141695 64.189462 
L 79.37666 64.549382 
L 79.696833 64.674392 
L 80.050573 64.759971 
L 80.368163 64.994895 
L 80.597965 65.622506 
L 80.721903 66.567352 
L 80.725318 67.353976 
L 80.729649 68.351554 
L 80.54116 69.222788 
L 79.903396 70.844589 
L 79.678759 71.710997 
L 79.652939 73.38861 
L 79.487688 73.989863 
L 79.108128 74.598708 
L 78.71824 74.675971 
L 77.117376 73.59938 
L 76.59064 73.479299 
L 76.100053 73.683354 
L 75.612047 74.305618 
L 75.446797 74.610466 
L 75.377082 74.817062 
L 75.351261 75.457032 
L 75.253144 75.843384 
L 74.623126 77.091568 
L 74.1093 78.562533 
L 74.132539 79.170805 
L 74.48886 79.912708 
L 76.187842 82.169826 
L 76.412479 82.579116 
L 76.484776 83.087599 
L 76.417901 83.670256 
L 76.396987 83.852471 
L 76.169768 84.56612 
L 75.857341 84.86622 
L 75.493273 85.09067 
L 75.105968 85.569008 
L 74.943299 86.095288 
L 74.788377 88.875076 
L 74.535337 89.521778 
L 73.727159 90.767353 
L 73.068739 92.316741 
L 72.62721 92.849235 
L 71.124463 92.638085 
L 70.151034 92.972057 
L 68.353935 93.924397 
L 67.951137 94.310572 
L 67.731664 94.9618 
L 67.674859 95.698895 
L 67.762648 96.339265 
L 68.069911 97.342388 
L 68.268728 98.332976 
L 68.093149 99.18645 
L 67.279807 99.774829 
L 66.838278 99.741159 
L 66.350273 99.623312 
L 65.947475 99.783247 
L 65.758986 100.586321 
L 65.78997 100.80604 
L 65.921654 101.221076 
L 65.893252 101.389452 
L 64.369849 103.965915 
L 64.183942 104.176436 
L 63.781144 104.352435 
L 63.600401 104.52591 
L 63.120142 105.532284 
L 63.022024 106.435149 
L 63.189857 107.344823 
L 63.507448 108.369133 
L 63.592655 108.913335 
L 63.590073 111.030572 
L 63.435151 111.708034 
L 62.921325 112.975431 
L 62.089908 116.321538 
L 61.707766 117.341571 
L 61.093241 117.894617 
L 59.386513 118.468766 
L 59.094743 118.472139 
L 58.844285 118.31532 
L 58.601573 118.100329 
L 58.327877 117.931712 
L 58.056763 117.889558 
L 57.289897 117.921595 
L 57.021365 117.987356 
L 56.755415 118.209932 
L 56.543688 118.498275 
L 56.303558 118.729292 
L 55.967893 118.789998 
L 54.041692 118.585117 
L 54.121735 119.450195 
L 54.067513 121.518707 
L 53.930665 122.41267 
L 53.850621 122.610869 
L 53.569179 123.159938 
L 53.50721 123.227414 
L 53.551105 123.49479 
L 53.656968 123.566485 
L 53.780906 123.623841 
L 53.876442 123.851581 
L 53.866114 124.350095 
L 53.553687 125.279695 
L 53.460733 125.783328 
L 53.491718 126.072694 
L 53.62082 126.574672 
L 53.589835 126.864056 
L 53.455569 127.036172 
L 53.034697 127.286756 
L 52.892685 127.533126 
L 52.884939 127.879909 
L 52.887116 127.915507 
L 53.374023 135.877446 
L 53.432331 136.83123 
L 53.236096 137.93486 
L 53.037279 138.319928 
L 52.538945 139.050407 
L 52.407261 139.459155 
L 52.402097 139.748834 
L 52.464066 140.352704 
L 52.464066 140.655916 
L 52.272995 142.009899 
L 52.242011 142.635837 
L 52.332382 143.41471 
L 52.526035 144.13618 
L 53.016623 145.497281 
L 53.187037 146.193515 
L 53.174127 146.910911 
L 52.977892 147.511729 
L 52.717106 148.057642 
L 52.523453 148.611184 
L 52.45632 149.209542 
L 52.402097 151.165376 
L 52.087089 153.237312 
L 51.991553 155.300261 
L 51.903764 155.591128 
L 51.648142 156.215159 
L 51.591337 156.465456 
L 51.606639 156.612155 
L 51.619739 156.737743 
L 51.821139 157.138574 
L 52.102581 158.077273 
L 52.701614 158.948374 
L 52.923669 159.418622 
L 52.993384 159.888886 
L 52.754513 164.301423 
L 52.69645 165.374194 
L 52.828134 166.658689 
L 53.329049 167.877288 
L 54.067513 169.026588 
L 54.620069 170.226764 
L 54.552936 171.596336 
L 54.493549 171.889228 
L 54.475475 172.07377 
L 54.395432 172.139799 
L 53.855785 171.999276 
L 53.594999 171.99589 
L 53.403928 172.139799 
L 53.34196 172.502119 
L 53.866114 180.563454 
L 53.840293 181.017455 
L 53.757668 181.32747 
L 53.558851 181.666292 
L 53.329049 182.28805 
L 53.220604 182.506603 
L 53.194783 182.733631 
L 53.290319 183.160587 
L 53.504628 183.513003 
L 54.160466 184.216167 
L 54.30506 184.526246 
L 54.206943 184.880389 
L 53.951321 185.05831 
L 53.631148 185.182009 
L 53.339378 185.363323 
L 52.691286 186.542761 
L 52.773911 187.732457 
L 53.112158 188.990038 
L 53.236096 190.364678 
L 52.970146 191.740283 
L 52.903013 192.450593 
L 53.029533 193.097357 
L 53.220604 193.430498 
L 53.432331 193.629707 
L 53.687953 193.729736 
L 53.997798 193.767883 
L 54.144974 193.916234 
L 54.194032 194.249391 
L 54.276658 195.762671 
L 54.137228 196.13317 
L 53.829965 196.398544 
L 53.378108 196.925066 
L 53.091502 197.630513 
L 53.083756 198.30292 
L 53.298065 199.686824 
L 53.246424 200.381363 
L 52.783544 202.144854 
L 52.699032 202.466849 
L 52.611594 203.137837 
L 52.420172 204.60688 
L 52.409755 206.607868 
L 52.396191 206.609141 
L 42.494986 207.818264 
L 40.492381 208.403483 
L 31.941155 209.679541 
L 25.323409 211.68 
L 25.14351 210.994621 
L 25.659918 210.635678 
L 28.869392 209.639501 
L 29.388382 209.598773 
L 28.918451 207.189182 
L 28.433028 204.72394 
L 27.7901 203.36931 
L 27.575791 203.158958 
L 27.038727 202.796785 
L 26.873476 202.619518 
L 26.819253 202.332841 
L 26.881222 201.628892 
L 26.850238 201.298979 
L 26.692733 201.019109 
L 26.277025 200.57048 
L 26.212474 200.342353 
L 26.178908 199.966672 
L 25.998165 199.883565 
L 25.752871 199.914094 
L 25.517906 199.878477 
L 25.321671 199.725833 
L 25.112526 199.506198 
L 24.916291 199.24671 
L 24.766532 198.97705 
L 24.686489 198.641254 
L 24.701981 198.338534 
L 24.745876 198.063801 
L 24.740712 197.808575 
L 24.467016 197.15145 
L 24.144261 196.80806 
L 23.984174 196.439241 
L 24.190738 195.703324 
L 24.562503 195.050821 
L 24.758786 194.706327 
L 24.859486 194.198527 
L 24.712309 193.406762 
L 24.521239 192.735403 
L 24.412793 192.170025 
L 24.397301 191.609753 
L 24.58579 190.232463 
L 24.534149 189.776501 
L 24.309511 189.422249 
L 23.938963 189.059681 
L 23.898967 189.020547 
L 23.617525 188.476486 
L 23.132101 186.146216 
L 25.019572 186.163162 
L 25.474011 185.986923 
L 25.455937 181.171615 
L 25.440444 176.413699 
L 25.424952 171.521845 
L 25.413643 168.302257 
L 25.403738 165.483217 
L 25.401714 164.907133 
L 25.381058 158.41725 
L 25.365565 153.237312 
L 25.427534 148.025529 
L 25.471429 144.278113 
L 25.205479 141.473526 
L 25.078959 141.171984 
L 24.931313 141.106903 
L 24.859486 140.97096 
L 24.983424 140.173651 
L 24.983424 139.606105 
L 25.022154 139.329098 
L 25.843243 137.565847 
L 25.936196 136.988283 
L 25.830332 136.669113 
L 25.184823 135.606118 
L 25.058303 135.240549 
L 25.022154 134.855573 
L 25.012736 133.879901 
L 24.970513 129.506796 
L 24.939529 126.478493 
L 24.90338 122.914499 
L 24.862068 118.830469 
L 24.727802 117.940143 
L 24.528985 117.154418 
L 24.015159 115.985199 
L 22.463353 113.873814 
L 20.467437 111.165387 
L 20.339512 110.910435 
L 19.865822 109.966429 
L 19.504336 108.666504 
L 19.333922 105.363005 
L 19.047316 104.43833 
L 18.618697 104.708651 
L 18.249465 104.221067 
L 17.996426 103.424473 
L 17.916382 102.760967 
L 18.019664 102.337455 
L 18.463775 101.455119 
L 18.618697 101.041758 
L 18.649682 100.709228 
L 18.641935 100.055141 
L 18.701322 99.731058 
L 18.737471 99.334594 
L 18.541236 97.813685 
L 18.510251 95.284063 
L 18.463775 91.726232 
L 18.435718 89.328734 
L 18.43279 89.078586 
L 18.112617 87.971104 
L 15.476355 85.70688 
L 11.897649 82.636267 
L 9.770805 80.811212 
L 8.331853 79.576619 
L 5.956377 77.539304 
L 4.066324 75.916457 
L 3.864925 75.426796 
L 3.844269 74.679331 
L 4.192844 71.332354 
L 4.559494 69.522449 
L 4.577568 68.252517 
L 4.378751 65.326316 
L 4.737655 64.240639 
L 6.095807 62.577951 
L 6.418562 61.980726 
L 6.496023 61.646899 
L 6.534754 60.905475 
L 6.583813 60.558266 
L 6.9737 59.601406 
L 6.937552 59.25005 
L 6.728407 58.590975 
L 6.66902 58.241332 
L 6.741317 57.596577 
L 7.381663 55.598861 
L 8.143364 56.138699 
L 8.479029 56.197379 
L 8.925722 56.202408 
L 9.031586 56.028885 
L 9.093555 55.649993 
L 9.070316 55.26944 
L 8.925722 55.095094 
L 8.726905 54.974396 
L 8.639116 54.67936 
L 8.626206 54.315607 
L 8.654608 53.987906 
L 8.742397 53.912477 
L 8.954125 53.500983 
L 9.101301 53.109619 
L 9.266551 52.821344 
L 9.377579 52.76436 
L 9.493771 52.817154 
L 10.041163 52.928608 
L 10.208995 53.081127 
L 10.335515 53.232809 
L 10.469781 53.303204 
L 10.542079 53.3736 
L 10.673763 53.690386 
L 10.717657 53.764974 
L 10.875162 53.754917 
L 11.146276 53.578923 
L 11.244393 53.544562 
L 12.013841 53.652672 
L 12.266881 53.764974 
L 12.334014 53.92421 
L 12.512174 54.246881 
L 12.695499 54.465633 
L 12.778124 54.31896 
L 12.806527 53.798497 
L 12.522503 53.423882 
L 12.364998 53.079451 
L 12.323686 52.726651 
L 12.318522 52.359619 
L 12.266881 51.974166 
L 12.220404 51.975842 
L 11.982856 51.836748 
L 11.910559 51.773066 
L 11.895067 51.62392 
L 11.938962 51.220902 
L 11.910559 51.088521 
L 11.675594 51.01898 
L 11.518089 51.200793 
L 11.425136 51.2452 
L 11.399316 50.755901 
L 11.528418 50.683849 
L 12.352088 50.445913 
L 12.496682 50.315218 
L 12.667097 49.724601 
L 12.778124 49.558732 
L 13.044075 49.562083 
L 13.542408 49.866178 
L 13.800612 49.981788 
L 13.67151 49.423023 
L 13.573393 48.318156 
L 13.106043 47.334856 
L 13.229981 46.928667 
L 13.488185 46.61294 
L 13.748971 46.104616 
L 13.989101 46.349144 
L 14.17759 46.71846 
L 14.144023 46.88428 
L 14.363497 46.888467 
L 14.495181 46.806394 
L 14.624282 46.705061 
L 14.841174 46.641413 
L 15.313687 46.671562 
L 15.719067 46.819794 
L 16.547902 47.324806 
L 16.865492 46.572742 
L 16.904223 46.320671 
L 16.847418 46.002452 
L 16.602124 45.69178 
L 16.547902 45.434709 
L 16.67184 45.045347 
L 16.9507 45.223698 
L 17.24247 45.648237 
L 17.399975 45.997428 
L 17.570389 45.7303 
L 17.745968 45.639863 
L 17.924129 45.7303 
L 18.097125 45.997428 
L 18.53349 45.522631 
L 18.484431 45.106471 
L 18.241719 44.662699 
L 18.097125 44.107594 
L 18.314016 43.493918 
L 18.81235 43.079521 
L 19.377817 42.762248 
L 19.788361 42.438288 
L 19.550813 41.747714 
L 19.581798 41.475683 
L 19.788361 41.089832 
L 20.113698 40.780995 
L 20.416195 40.654582 
L 20.426124 40.650432 
L 20.681746 40.471331 
L 20.826341 40.006017 
L 21.234303 40.299765 
L 21.717144 40.426974 
L 24.0668 40.668845 
L 24.015159 40.883102 
L 23.958354 41.338415 
L 23.914459 41.552688 
L 24.348242 41.519208 
L 24.872396 42.762248 
L 25.360401 42.548785 
L 25.786438 42.259153 
L 26.940609 41.946929 
L 27.418286 41.65313 
L 27.808174 41.495771 
L 28.913287 41.596213 
L 29.3858 41.552688 
L 30.366975 41.047983 
L 30.844652 40.922439 
L 31.278435 41.089832 
L 31.518565 40.885613 
L 31.823245 40.942526 
L 32.471337 41.33172 
L 33.527391 41.854017 
L 34.410449 41.941907 
L 35.094689 41.52423 
L 35.211311 41.372322 
L 38.497816 37.092474 
L 40.323318 35.188537 
L 41.660814 34.23337 
L 42.006808 33.805166 
L 42.097179 33.497407 
L 42.076523 33.142827 
L 42.092015 32.577535 
L 42.360547 31.6611 
L 43.321066 30.291636 
L 43.672223 29.450662 
L 44.573355 26.323191 
L 44.524296 25.992287 
L 44.232525 25.432452 
L 44.198959 25.078187 
L 44.340971 24.66211 
L 44.552698 24.59193 
L 44.787664 24.633704 
L 45.004555 24.555169 
L 45.172388 24.312887 
L 45.368623 23.845051 
L 45.541619 23.612812 
L 45.792077 23.582739 
L 46.052863 23.704704 
L 46.236188 23.654581 
L 46.25168 23.099904 
L 46.200039 22.697284 
L 46.037371 22.545261 
L 45.799823 22.473428 
L 45.533873 22.319739 
L 45.275669 22.05079 
L 45.097509 21.78853 
L 44.958078 21.467816 
L 44.116334 18.438305 
L 43.87104 16.638459 
L 43.850384 15.903933 
L 44.069857 15.343065 
L 44.674054 14.989202 
L 45.017465 14.93412 
L 45.590678 14.964165 
L 45.910851 14.924106 
L 45.970238 14.84065 
L 46.176801 14.478462 
L 46.305903 14.358292 
L 46.49181 14.41337 
L 46.633822 14.600302 
L 46.760342 14.653712 
L 46.902354 14.316567 
L 47.018546 13.917685 
L 47.194124 13.825894 
L 47.42909 13.870955 
L 47.723442 13.884306 
L 47.793157 13.957739 
L 47.831888 14.134648 
L 47.909349 14.279849 
L 48.097838 14.263159 
L 48.23985 14.154676 
L 48.46707 13.877631 
L 48.580679 13.784172 
L 49.468901 13.477099 
L 49.567018 13.500463 
L 49.781328 13.660674 
L 49.905265 13.677363 
L 50.057606 13.582237 
L 50.357122 13.300204 
L 50.530119 13.258483 
L 51.410594 13.557204 
L 51.637814 13.39032 
L 51.986389 12.689441 
L 52.069014 12.439141 
L 52.118073 12.185511 
L 52.19037 11.953579 
L 52.324636 11.763367 
L 52.59575 11.629887 
L 52.859118 11.855135 
L 53.119904 11.773378 
L 53.349706 11.536452 
L 53.749922 10.92915 
L 54.0262 10.69892 
L 54.26633 10.638861 
L 54.772409 10.662218 
L 55.028031 10.597154 
L 55.6219 10.570461 
L 55.918835 10.08 
L 57.116901 11.441349 
L 57.625563 11.788394 
L 57.87602 12.133785 
L 58.069673 12.530917 
L 58.22976 13.256815 
L 58.433741 13.527165 
L 58.710019 13.709071 
L 59.004371 13.84759 
L 59.833206 13.966084 
L 60.042351 14.049531 
L 60.135305 14.218097 
L 60.380598 14.818952 
L 61.392758 16.715254 
L 65.689271 21.699999 
L 65.766732 21.872052 
L 66.104979 22.197792 
L 66.18244 22.371525 
L 66.244409 23.061479 
L 66.368347 23.794927 
L 66.551672 24.383065 
L 67.122303 25.607919 
L 67.478624 26.13434 
L 67.690351 26.386699 
L 67.997614 26.650764 
L 68.343607 26.764415 
L 68.679272 26.565527 
L 69.030429 26.298122 
L 69.324782 26.371658 
L 69.593314 26.572213 
L 69.872174 26.687533 
L 70.992779 27.570038 
L 71.906821 27.984578 
L 72.185681 28.231974 
L 72.38708 28.476032 
L 73.223661 29.999042 
L 73.391494 30.187973 
L 73.530924 30.29498 
L 73.641951 30.427068 
L 73.734905 30.681218 
L 73.861425 31.192884 
L 73.954378 31.440367 
L 74.003437 31.726318 
L 74.091226 31.973815 
L 74.300371 32.119306 
L 74.532755 32.632725 
z
" clip-path="url(#p129f28e9d5)" style="stroke: #000000; stroke-linejoin: miter"/>
   </g>
   <g id="line2d_1">
    <path d="M 74.708334 32.818365 
L 74.158359 33.554274 
L 72.423229 37.325056 
L 71.96879 39.277128 
L 71.467874 41.019527 
L 71.511769 41.764454 
L 71.883583 42.645052 
L 76.360839 50.720713 
L 76.965036 51.455505 
L 77.436029 51.447469 
L 77.638948 51.46137 
L 77.848093 51.71944 
L 77.592471 52.978889 
L 77.693171 54.329017 
L 78.1347 55.486538 
L 78.648525 58.376324 
L 78.620123 59.332227 
L 78.077895 61.041343 
L 78.04691 61.603285 
L 78.374829 62.260881 
L 78.782791 62.775916 
L 78.906729 63.124041 
L 79.141695 64.189462 
L 79.37666 64.549382 
L 80.368163 64.994895 
L 80.597965 65.622506 
L 80.725318 67.353976 
L 80.729649 68.351554 
L 80.54116 69.222788 
L 79.678759 71.710997 
L 79.652939 73.38861 
L 79.487688 73.989863 
L 79.108128 74.598708 
L 78.71824 74.675971 
L 77.117376 73.59938 
L 76.59064 73.479299 
L 76.100053 73.683354 
L 75.446797 74.610466 
L 75.377082 74.817062 
L 75.253144 75.843384 
L 74.623126 77.091568 
L 74.1093 78.562533 
L 74.132539 79.170805 
L 74.48886 79.912708 
L 76.412479 82.579116 
L 76.484776 83.087599 
L 76.396987 83.852471 
L 76.169768 84.56612 
L 75.105968 85.569008 
L 74.943299 86.095288 
L 74.788377 88.875076 
L 74.535337 89.521778 
L 73.727159 90.767353 
L 73.068739 92.316741 
L 72.62721 92.849235 
L 71.124463 92.638085 
L 70.151034 92.972057 
L 68.353935 93.924397 
L 67.951137 94.310572 
L 67.731664 94.9618 
L 67.674859 95.698895 
L 67.762648 96.339265 
L 68.268728 98.332976 
L 68.093149 99.18645 
L 67.279807 99.774829 
L 65.947475 99.783247 
L 65.78997 100.80604 
L 65.893252 101.389452 
L 64.183942 104.176436 
L 63.600401 104.52591 
L 63.120142 105.532284 
L 63.022024 106.435149 
L 63.189857 107.344823 
L 63.592655 108.913335 
L 63.590073 111.030572 
L 63.435151 111.708034 
L 62.921325 112.975431 
L 62.089908 116.321538 
L 61.707766 117.341571 
L 61.093241 117.894617 
L 59.094743 118.472139 
L 58.056763 117.889558 
L 57.021365 117.987356 
L 55.967893 118.789998 
L 54.041692 118.585117 
L 54.121735 119.450195 
L 54.067513 121.518707 
L 53.850621 122.610869 
L 53.50721 123.227414 
L 53.656968 123.566485 
L 53.780906 123.623841 
L 53.876442 123.851581 
L 53.866114 124.350095 
L 53.460733 125.783328 
L 53.589835 126.864056 
L 53.455569 127.036172 
L 53.034697 127.286756 
L 52.892685 127.533126 
L 52.887116 127.915507 
L 53.432331 136.83123 
L 53.236096 137.93486 
L 52.402097 139.748834 
L 52.464066 140.655916 
L 52.242011 142.635837 
L 52.526035 144.13618 
L 53.187037 146.193515 
L 53.174127 146.910911 
L 52.45632 149.209542 
L 52.402097 151.165376 
L 52.087089 153.237312 
L 51.903764 155.591128 
L 51.591337 156.465456 
L 51.619739 156.737743 
L 51.821139 157.138574 
L 52.102581 158.077273 
L 52.923669 159.418622 
L 52.993384 159.888886 
L 52.69645 165.374194 
L 52.828134 166.658689 
L 53.329049 167.877288 
L 54.067513 169.026588 
L 54.620069 170.226764 
L 54.475475 172.07377 
L 54.395432 172.139799 
L 53.594999 171.99589 
L 53.403928 172.139799 
L 53.34196 172.502119 
L 53.840293 181.017455 
L 53.558851 181.666292 
L 53.194783 182.733631 
L 53.290319 183.160587 
L 53.504628 183.513003 
L 54.30506 184.526246 
L 54.206943 184.880389 
L 53.339378 185.363323 
L 52.691286 186.542761 
L 52.773911 187.732457 
L 53.112158 188.990038 
L 53.236096 190.364678 
L 52.903013 192.450593 
L 53.029533 193.097357 
L 53.432331 193.629707 
L 54.144974 193.916234 
L 54.194032 194.249391 
L 54.276658 195.762671 
L 54.137228 196.13317 
L 53.378108 196.925066 
L 53.091502 197.630513 
L 53.083756 198.30292 
L 53.298065 199.686824 
L 53.246424 200.381363 
L 52.611594 203.137837 
L 52.420172 204.60688 
L 52.396191 206.609141 
L 42.494986 207.818264 
L 40.492381 208.403483 
L 31.941155 209.679541 
L 25.323409 211.68 
L 25.14351 210.994621 
L 25.659918 210.635678 
L 28.869392 209.639501 
L 29.388382 209.598773 
L 28.433028 204.72394 
L 27.575791 203.158958 
L 26.873476 202.619518 
L 26.819253 202.332841 
L 26.850238 201.298979 
L 26.692733 201.019109 
L 26.212474 200.342353 
L 26.178908 199.966672 
L 25.998165 199.883565 
L 25.517906 199.878477 
L 25.112526 199.506198 
L 24.766532 198.97705 
L 24.701981 198.338534 
L 24.740712 197.808575 
L 24.467016 197.15145 
L 24.144261 196.80806 
L 23.984174 196.439241 
L 24.190738 195.703324 
L 24.758786 194.706327 
L 24.859486 194.198527 
L 24.397301 191.609753 
L 24.58579 190.232463 
L 24.534149 189.776501 
L 24.309511 189.422249 
L 23.898967 189.020547 
L 23.617525 188.476486 
L 23.132101 186.146216 
L 25.019572 186.163162 
L 25.474011 185.986923 
L 25.427534 148.025529 
L 25.471429 144.278113 
L 25.078959 141.171984 
L 24.859486 140.97096 
L 25.022154 139.329098 
L 25.843243 137.565847 
L 25.936196 136.988283 
L 25.830332 136.669113 
L 25.058303 135.240549 
L 25.012736 133.879901 
L 24.862068 118.830469 
L 24.528985 117.154418 
L 24.015159 115.985199 
L 20.339512 110.910435 
L 19.865822 109.966429 
L 19.504336 108.666504 
L 19.333922 105.363005 
L 19.047316 104.43833 
L 18.618697 104.708651 
L 18.249465 104.221067 
L 17.996426 103.424473 
L 17.916382 102.760967 
L 18.019664 102.337455 
L 18.618697 101.041758 
L 18.737471 99.334594 
L 18.541236 97.813685 
L 18.43279 89.078586 
L 18.112617 87.971104 
L 4.066324 75.916457 
L 3.864925 75.426796 
L 3.844269 74.679331 
L 4.192844 71.332354 
L 4.559494 69.522449 
L 4.577568 68.252517 
L 4.378751 65.326316 
L 4.737655 64.240639 
L 6.095807 62.577951 
L 6.496023 61.646899 
L 6.583813 60.558266 
L 6.9737 59.601406 
L 6.937552 59.25005 
L 6.66902 58.241332 
L 6.741317 57.596577 
L 7.381663 55.598861 
L 8.143364 56.138699 
L 8.925722 56.202408 
L 9.031586 56.028885 
L 9.070316 55.26944 
L 8.639116 54.67936 
L 8.654608 53.987906 
L 8.742397 53.912477 
L 9.377579 52.76436 
L 9.493771 52.817154 
L 10.041163 52.928608 
L 10.542079 53.3736 
L 10.717657 53.764974 
L 10.875162 53.754917 
L 11.244393 53.544562 
L 12.266881 53.764974 
L 12.512174 54.246881 
L 12.695499 54.465633 
L 12.778124 54.31896 
L 12.806527 53.798497 
L 12.364998 53.079451 
L 12.220404 51.975842 
L 11.910559 51.773066 
L 11.910559 51.088521 
L 11.675594 51.01898 
L 11.425136 51.2452 
L 11.399316 50.755901 
L 11.528418 50.683849 
L 12.496682 50.315218 
L 12.778124 49.558732 
L 13.044075 49.562083 
L 13.800612 49.981788 
L 13.67151 49.423023 
L 13.573393 48.318156 
L 13.106043 47.334856 
L 13.229981 46.928667 
L 13.488185 46.61294 
L 13.748971 46.104616 
L 13.989101 46.349144 
L 14.363497 46.888467 
L 14.841174 46.641413 
L 15.313687 46.671562 
L 15.719067 46.819794 
L 16.547902 47.324806 
L 16.904223 46.320671 
L 16.847418 46.002452 
L 16.602124 45.69178 
L 16.547902 45.434709 
L 16.67184 45.045347 
L 16.9507 45.223698 
L 17.399975 45.997428 
L 17.745968 45.639863 
L 17.924129 45.7303 
L 18.097125 45.997428 
L 18.53349 45.522631 
L 18.484431 45.106471 
L 18.241719 44.662699 
L 18.097125 44.107594 
L 18.314016 43.493918 
L 18.81235 43.079521 
L 19.788361 42.438288 
L 19.550813 41.747714 
L 19.581798 41.475683 
L 19.788361 41.089832 
L 20.113698 40.780995 
L 20.681746 40.471331 
L 20.826341 40.006017 
L 21.234303 40.299765 
L 21.717144 40.426974 
L 24.0668 40.668845 
L 23.914459 41.552688 
L 24.348242 41.519208 
L 24.872396 42.762248 
L 27.808174 41.495771 
L 29.3858 41.552688 
L 30.844652 40.922439 
L 31.278435 41.089832 
L 31.518565 40.885613 
L 31.823245 40.942526 
L 33.527391 41.854017 
L 34.410449 41.941907 
L 35.211311 41.372322 
L 38.497816 37.092474 
L 40.323318 35.188537 
L 41.660814 34.23337 
L 42.006808 33.805166 
L 42.097179 33.497407 
L 42.092015 32.577535 
L 42.360547 31.6611 
L 43.321066 30.291636 
L 43.672223 29.450662 
L 44.573355 26.323191 
L 44.524296 25.992287 
L 44.232525 25.432452 
L 44.198959 25.078187 
L 44.340971 24.66211 
L 44.552698 24.59193 
L 44.787664 24.633704 
L 45.004555 24.555169 
L 45.792077 23.582739 
L 46.052863 23.704704 
L 46.236188 23.654581 
L 46.200039 22.697284 
L 45.799823 22.473428 
L 45.275669 22.05079 
L 44.958078 21.467816 
L 44.116334 18.438305 
L 43.850384 15.903933 
L 44.069857 15.343065 
L 44.674054 14.989202 
L 45.017465 14.93412 
L 45.910851 14.924106 
L 46.305903 14.358292 
L 46.49181 14.41337 
L 46.760342 14.653712 
L 47.194124 13.825894 
L 47.793157 13.957739 
L 47.909349 14.279849 
L 48.23985 14.154676 
L 48.580679 13.784172 
L 49.567018 13.500463 
L 49.905265 13.677363 
L 50.530119 13.258483 
L 51.410594 13.557204 
L 51.637814 13.39032 
L 52.118073 12.185511 
L 52.324636 11.763367 
L 52.59575 11.629887 
L 52.859118 11.855135 
L 53.119904 11.773378 
L 53.349706 11.536452 
L 54.0262 10.69892 
L 54.26633 10.638861 
L 55.028031 10.597154 
L 55.6219 10.570461 
L 55.918835 10.08 
L 57.116901 11.441349 
L 57.625563 11.788394 
L 58.069673 12.530917 
L 58.22976 13.256815 
L 58.710019 13.709071 
L 59.004371 13.84759 
L 60.042351 14.049531 
L 61.392758 16.715254 
L 66.18244 22.371525 
L 66.368347 23.794927 
L 66.551672 24.383065 
L 67.478624 26.13434 
L 67.997614 26.650764 
L 68.343607 26.764415 
L 69.030429 26.298122 
L 69.324782 26.371658 
L 70.992779 27.570038 
L 72.185681 28.231974 
L 72.38708 28.476032 
L 73.391494 30.187973 
L 73.641951 30.427068 
L 74.532755 32.632725 
L 74.708334 32.818365 
L 74.708334 32.818365 
" clip-path="url(#p129f28e9d5)" style="fill: none; stroke: #000000; stroke-width: 0.5; stroke-linecap: square"/>
   </g>
  </g>
 </g>
 <defs>
  <clipPath id="p129f28e9d5">
   <rect x="0" y="-0" width="84.573918" height="221.76"/>
  </clipPath>
 </defs>
</svg>
