<?xml version="1.0" encoding="utf-8" standalone="no"?>
<!DOCTYPE svg PUBLIC "-//W3C//DTD SVG 1.1//EN"
  "http://www.w3.org/Graphics/SVG/1.1/DTD/svg11.dtd">
<svg xmlns:xlink="http://www.w3.org/1999/xlink" width="223.2pt" height="147.652551pt" viewBox="0 0 223.2 147.652551" xmlns="http://www.w3.org/2000/svg" version="1.1">
 <metadata>
  <rdf:RDF xmlns:dc="http://purl.org/dc/elements/1.1/" xmlns:cc="http://creativecommons.org/ns#" xmlns:rdf="http://www.w3.org/1999/02/22-rdf-syntax-ns#">
   <cc:Work>
    <dc:type rdf:resource="http://purl.org/dc/dcmitype/StillImage"/>
    <dc:date>2026-04-26T19:22:20.633413</dc:date>
    <dc:format>image/svg+xml</dc:format>
    <dc:creator>
     <cc:Agent>
      <dc:title>Matplotlib v3.10.9, https://matplotlib.org/</dc:title>
     </cc:Agent>
    </dc:creator>
   </cc:Work>
  </rdf:RDF>
 </metadata>
 <defs>
  <style type="text/css">*{stroke-linejoin: round; stroke-linecap: butt}</style>
 </defs>
 <g id="figure_1">
  <g id="patch_1">
   <path d="M 0 147.652551 
L 223.2 147.652551 
L 223.2 0 
L 0 0 
z
" style="fill: #ffffff"/>
  </g>
  <g id="axes_1">
   <g id="patch_2">
    <path d="M 188.823049 6.71148 
L 213.054545 26.205788 
L 206.455876 34.713278 
L 206.125942 43.221591 
L 202.166741 40.262085 
L 196.227938 35.083188 
L 184.835244 32.404997 
L 181.050998 36.562841 
L 175.772062 30.274485 
L 161.584922 42.111764 
L 164.22439 50.250817 
L 172.802661 53.210659 
L 187.319734 58.390623 
L 169.833259 66.161138 
L 153.996452 76.522892 
L 133.922054 90.918428 
L 121.764168 97.913399 
L 114.074501 107.985673 
L 97.577827 122.42529 
L 75.472284 133.163971 
L 54.356541 140.941071 
L 41.489135 140.570718 
L 31.591131 140.200366 
L 18.393792 131.682696 
L 12.784922 118.352339 
L 10.145455 107.985673 
L 18.113199 111.48222 
L 16.970077 104.641205 
L 19.888621 95.464874 
L 15.42439 86.145611 
L 21.693126 88.366387 
L 24.662528 82.814551 
L 28.621729 88.366387 
L 33.900665 93.548416 
L 26.312195 99.841289 
L 23.925236 110.648255 
L 22.02306 113.909333 
L 26.312195 117.241567 
L 41.819069 119.092862 
L 41.819069 122.055014 
L 29.608013 120.943502 
L 28.621729 127.239021 
L 34.230599 134.645271 
L 43.468736 134.645271 
L 55.346341 129.831138 
L 58.645676 123.165847 
L 66.56408 122.42529 
L 80.75122 114.279575 
L 99.595943 103.23772 
L 101.207095 99.841289 
L 88.009756 101.322031 
L 78.771619 97.620224 
L 71.458853 87.540985 
L 74.126136 84.121339 
L 100.254063 88.081737 
L 115.841096 80.89327 
L 124.881575 78.328878 
L 134.200443 68.381412 
L 137.829712 69.491569 
L 152.676718 68.751463 
L 156.63592 63.200861 
L 163.894457 56.910602 
L 157.295787 50.620792 
L 147.502103 54.306769 
L 140.46918 59.130642 
L 138.903002 64.888298 
L 134.86031 63.940921 
L 133.011262 59.760863 
L 137.499778 49.510872 
L 149.729731 41.205306 
L 157.295787 29.904596 
L 170.811366 21.154549 
z
" clip-path="url(#p160750d31d)" style="stroke: #000000; stroke-linejoin: miter"/>
   </g>
   <g id="line2d_1">
    <path d="M 188.823049 6.71148 
L 213.054545 26.205788 
L 206.455876 34.713278 
L 206.125942 43.221591 
L 202.166741 40.262085 
L 196.227938 35.083188 
L 184.835244 32.404997 
L 181.050998 36.562841 
L 175.772062 30.274485 
L 161.584922 42.111764 
L 164.22439 50.250817 
L 172.802661 53.210659 
L 187.319734 58.390623 
L 169.833259 66.161138 
L 153.996452 76.522892 
L 133.922054 90.918428 
L 121.764168 97.913399 
L 114.074501 107.985673 
L 97.577827 122.42529 
L 75.472284 133.163971 
L 54.356541 140.941071 
L 41.489135 140.570718 
L 31.591131 140.200366 
L 18.393792 131.682696 
L 12.784922 118.352339 
L 10.145455 107.985673 
L 18.113199 111.48222 
L 16.970077 104.641205 
L 19.888621 95.464874 
L 15.42439 86.145611 
L 21.693126 88.366387 
L 24.662528 82.814551 
L 28.621729 88.366387 
L 33.900665 93.548416 
L 26.312195 99.841289 
L 23.925236 110.648255 
L 22.02306 113.909333 
L 26.312195 117.241567 
L 41.819069 119.092862 
L 41.819069 122.055014 
L 29.608013 120.943502 
L 28.621729 127.239021 
L 34.230599 134.645271 
L 43.468736 134.645271 
L 55.346341 129.831138 
L 58.645676 123.165847 
L 66.56408 122.42529 
L 80.75122 114.279575 
L 99.595943 103.23772 
L 101.207095 99.841289 
L 88.009756 101.322031 
L 78.771619 97.620224 
L 71.458853 87.540985 
L 74.126136 84.121339 
L 100.254063 88.081737 
L 115.841096 80.89327 
L 124.881575 78.328878 
L 134.200443 68.381412 
L 137.829712 69.491569 
L 152.676718 68.751463 
L 156.63592 63.200861 
L 163.894457 56.910602 
L 157.295787 50.620792 
L 147.502103 54.306769 
L 140.46918 59.130642 
L 138.903002 64.888298 
L 134.86031 63.940921 
L 133.011262 59.760863 
L 137.499778 49.510872 
L 149.729731 41.205306 
L 157.295787 29.904596 
L 170.811366 21.154549 
L 188.823049 6.71148 
" clip-path="url(#p160750d31d)" style="fill: none; stroke: #000000; stroke-width: 0.5; stroke-linecap: square"/>
   </g>
  </g>
 </g>
 <defs>
  <clipPath id="p160750d31d">
   <rect x="0" y="0" width="223.2" height="147.652551"/>
  </clipPath>
 </defs>
</svg>
