<?xml version="1.0" encoding="utf-8" standalone="no"?>
<!DOCTYPE svg PUBLIC "-//W3C//DTD SVG 1.1//EN"
  "http://www.w3.org/Graphics/SVG/1.1/DTD/svg11.dtd">
<svg xmlns:xlink="http://www.w3.org/1999/xlink" width="223.2pt" height="129.885632pt" viewBox="0 0 223.2 129.885632" xmlns="http://www.w3.org/2000/svg" version="1.1">
 <metadata>
  <rdf:RDF xmlns:dc="http://purl.org/dc/elements/1.1/" xmlns:cc="http://creativecommons.org/ns#" xmlns:rdf="http://www.w3.org/1999/02/22-rdf-syntax-ns#">
   <cc:Work>
    <dc:type rdf:resource="http://purl.org/dc/dcmitype/StillImage"/>
    <dc:date>2026-04-26T19:21:51.976167</dc:date>
    <dc:format>image/svg+xml</dc:format>
    <dc:creator>
     <cc:Agent>
      <dc:title>Matplotlib v3.10.9, https://matplotlib.org/</dc:title>
     </cc:Agent>
    </dc:creator>
   </cc:Work>
  </rdf:RDF>
 </metadata>
 <defs>
  <style type="text/css">*{stroke-linejoin: round; stroke-linecap: butt}</style>
 </defs>
 <g id="figure_1">
  <g id="patch_1">
   <path d="M 0 129.885632 
L 223.2 129.885632 
L 223.2 0 
L 0 0 
z
" style="fill: #ffffff"/>
  </g>
  <g id="axes_1">
   <g id="patch_2">
    <path d="M 115.575763 26.09849 
L 116.624728 25.952372 
L 117.679936 25.974289 
L 121.619797 26.558779 
L 122.955978 26.222692 
L 124.435768 26.054654 
L 126.19653 25.062939 
L 127.1893 24.827357 
L 128.18207 25.05746 
L 130.779506 26.85104 
L 132.494127 27.312411 
L 134.513321 27.855772 
L 138.272111 28.100581 
L 141.812366 28.904485 
L 144.896821 31.587204 
L 145.777202 32.48104 
L 147.812693 33.565114 
L 150.416373 33.846668 
L 152.870201 33.217755 
L 154.493599 31.587204 
L 154.506087 31.576238 
L 155.361492 30.21649 
L 157.902734 27.148792 
L 159.039112 26.222692 
L 160.606315 25.919496 
L 162.148543 26.160591 
L 163.572138 26.06196 
L 164.808417 24.750657 
L 165.982259 27.225516 
L 167.905361 29.052486 
L 172.581994 31.587204 
L 173.647655 31.965765 
L 174.249099 32.179428 
L 175.123236 32.320179 
L 177.333554 32.340286 
L 179.749919 33.382291 
L 182.234966 33.711375 
L 183.564904 34.095323 
L 184.838646 34.700536 
L 185.818929 35.477692 
L 186.718041 37.105398 
L 186.480775 38.488299 
L 185.768978 39.902551 
L 185.238252 41.640984 
L 181.372741 41.734582 
L 181.473552 43.880952 
L 183.848522 44.618952 
L 185.687127 46.612659 
L 185.638039 49.161321 
L 185.138351 51.299035 
L 182.309892 55.444964 
L 181.910287 58.160606 
L 183.227736 63.367111 
L 183.795926 64.378354 
L 185.512981 65.83396 
L 186.043707 67.019933 
L 186.99277 68.14365 
L 188.372658 68.591711 
L 189.864935 68.881863 
L 191.201116 69.504439 
L 191.204152 69.508916 
L 194.373578 69.755306 
L 196.58938 69.408302 
L 199.026761 69.061328 
L 201.685723 69.523967 
L 205.474527 68.870844 
L 206.186325 68.621093 
L 209.116907 70.444508 
L 212.81728 80.584819 
L 213.054545 81.430855 
L 212.636208 82.655925 
L 210.75057 84.34484 
L 209.913895 85.408412 
L 209.695361 86.052511 
L 209.501802 87.403445 
L 209.326975 88.01825 
L 208.989808 88.588919 
L 208.203084 89.468932 
L 208.040981 89.708835 
L 207.872161 89.958688 
L 207.441336 90.997215 
L 207.135388 92.227415 
L 206.960561 93.54622 
L 206.948073 94.846814 
L 207.684846 97.164817 
L 210.694375 100.353607 
L 211.737096 102.628914 
L 211.737096 102.63629 
L 212.761085 106.742292 
L 212.546741 107.8672 
L 212.086751 110.281813 
L 209.857701 112.633721 
L 206.186325 113.22088 
L 205.118629 112.674341 
L 203.201771 110.931567 
L 202.146562 110.466397 
L 201.234962 110.739589 
L 201.37857 111.673678 
L 201.37857 112.729732 
L 200.079852 113.387065 
L 200.797894 114.347307 
L 200.860332 115.521909 
L 200.360825 116.338319 
L 199.418006 116.212712 
L 198.77489 115.23009 
L 198.600063 114.070303 
L 198.262896 113.025156 
L 197.126517 112.375237 
L 195.322049 112.729732 
L 191.475845 115.396315 
L 189.696351 116.30507 
L 186.774236 116.700373 
L 185.818929 116.626483 
L 183.146567 115.784186 
L 182.053895 115.828515 
L 179.862308 116.637566 
L 178.732174 116.726234 
L 177.932963 115.979975 
L 176.546831 112.785123 
L 175.978642 111.86937 
L 175.104505 111.596141 
L 172.663164 111.441069 
L 171.82649 111.585064 
L 170.746306 112.375237 
L 170.121923 113.494163 
L 169.634903 114.790534 
L 168.92935 116.112967 
L 168.155114 116.93313 
L 167.218538 117.590796 
L 166.200793 118.078538 
L 165.195535 118.370457 
L 163.953012 118.40741 
L 163.10385 118.052672 
L 161.324356 116.899878 
L 159.251403 116.386346 
L 154.955643 116.489788 
L 152.832738 116.212712 
L 151.028269 116.227489 
L 148.050623 117.673012 
L 147.72528 117.830968 
L 143.925139 118.064745 
L 130.186342 118.909981 
L 122.375302 117.97877 
L 115.575763 114.236504 
L 109.981285 109.99387 
L 107.939551 109.646876 
L 106.715759 110.075084 
L 105.847865 110.809734 
L 105.04241 111.673678 
L 104.04964 112.474937 
L 102.935115 112.866364 
L 100.709187 112.774045 
L 99.60715 112.87375 
L 97.584147 114.262358 
L 96.060651 118.573698 
L 94.549642 120.02979 
L 92.25191 120.720968 
L 85.371202 121.426991 
L 81.556218 122.510168 
L 80.245012 122.643264 
L 79.633116 122.543442 
L 78.40308 122.140467 
L 78.329397 122.128143 
L 77.8505 122.048044 
L 77.6226 121.929745 
L 77.141825 121.47135 
L 76.895193 121.44917 
L 76.57988 121.730118 
L 76.455003 122.099801 
L 76.430028 122.425135 
L 76.398808 122.58411 
L 76.40193 122.739391 
L 76.308273 123.157184 
L 76.117836 123.634159 
L 75.827497 123.978042 
L 75.608963 123.98174 
L 75.028286 123.722902 
L 74.787898 123.671135 
L 72.384021 123.693321 
L 72.044594 123.635477 
L 71.082181 123.471467 
L 67.844752 121.948229 
L 66.521058 121.881686 
L 64.410641 122.809638 
L 63.292995 122.831821 
L 62.549978 122.207012 
L 63.514651 120.233072 
L 63.386652 118.987587 
L 61.860034 117.694254 
L 59.468644 116.729929 
L 56.986719 116.290293 
L 53.209198 116.766874 
L 51.061318 115.595789 
L 48.738836 113.883552 
L 47.09336 112.670648 
L 44.586459 113.379678 
L 43.752907 113.339055 
L 42.981793 113.416609 
L 42.338678 113.95581 
L 41.714294 114.639095 
L 41.002497 115.141438 
L 39.310417 115.621647 
L 37.605849 115.798962 
L 34.190471 115.592095 
L 32.282978 115.023237 
L 31.433817 113.97797 
L 30.943675 112.522942 
L 30.119489 110.732205 
L 29.164182 109.613654 
L 27.756197 108.502635 
L 26.24831 107.782953 
L 24.96208 107.856764 
L 24.387647 108.303332 
L 23.707068 108.506326 
L 22.995271 108.428819 
L 22.364643 108.033912 
L 21.940063 107.31058 
L 21.946306 106.620522 
L 22.039964 105.878866 
L 21.890112 105.004462 
L 20.81305 103.617412 
L 19.59238 103.768648 
L 18.424782 104.82 
L 17.494451 106.162975 
L 17.126064 102.63629 
L 17.126064 102.628914 
L 17.126064 98.731409 
L 16.835726 96.899448 
L 16.039637 95.285305 
L 14.687846 94.205702 
L 10.900959 92.087443 
L 10.327632 91.643011 
L 10.145455 91.501796 
L 10.651205 89.446839 
L 11.612756 87.108944 
L 12.911474 85.095582 
L 14.441214 83.987894 
L 18.081371 82.994416 
L 18.968675 82.274783 
L 19.483113 81.857585 
L 19.948279 79.779328 
L 21.327458 78.688612 
L 23.481062 78.876523 
L 24.757273 80.00408 
L 26.272772 78.688612 
L 25.315615 76.997611 
L 24.278694 74.273968 
L 23.496249 71.413897 
L 23.888301 69.722324 
L 24.411037 68.223274 
L 25.423837 67.185635 
L 25.247417 66.805576 
L 24.955228 66.176156 
L 24.81904 65.407387 
L 25.145891 64.510584 
L 26.017492 63.99817 
L 26.752906 63.133547 
L 26.616719 62.365071 
L 27.433845 61.276524 
L 28.468872 61.05243 
L 28.850198 59.964063 
L 29.531136 58.971858 
L 30.321025 58.427798 
L 31.982516 57.723776 
L 32.636217 57.883776 
L 32.848457 57.930529 
L 33.072018 57.979777 
L 33.671244 58.267788 
L 33.983635 58.5055 
L 34.14699 57.622654 
L 35.878552 54.897967 
L 38.426888 50.294992 
L 39.537702 47.419494 
L 40.040946 44.820569 
L 42.082681 43.421906 
L 44.545874 42.239461 
L 46.753071 40.480766 
L 48.813537 37.62853 
L 51.666992 32.016777 
L 51.885504 31.587204 
L 51.897992 31.587204 
L 53.309099 29.008634 
L 54.170749 27.833849 
L 55.169763 26.876613 
L 56.377945 26.405346 
L 57.567396 25.422718 
L 60.374001 21.696073 
L 61.457307 20.989656 
L 62.56871 20.624607 
L 69.817804 19.263129 
L 72.115536 18.182878 
L 73.189476 16.177879 
L 73.626545 15.048815 
L 74.544389 14.242703 
L 76.57988 12.904233 
L 77.11685 12.286135 
L 78.047181 10.920662 
L 78.584151 10.319128 
L 79.230388 9.980103 
L 79.695554 10.197005 
L 81.798867 8.921914 
L 83.997558 9.44061 
L 85.149546 8.749896 
L 86.289046 8.56766 
L 91.146562 6.832387 
L 94.328756 7.528833 
L 96.11874 8.457525 
L 97.51095 8.225341 
L 98.90316 6.600253 
L 100.494257 5.903892 
L 102.682015 7.528833 
L 102.682015 10.083008 
L 104.474221 12.749248 
L 106.771953 13.141274 
L 108.250854 10.083008 
L 110.239725 10.083008 
L 112.02971 11.244278 
L 114.416355 11.244278 
L 117.399662 13.567345 
L 119.985194 13.799691 
L 122.37184 14.729142 
L 122.968501 17.053263 
L 121.178517 17.750636 
L 119.985194 20.075668 
L 117.996323 20.30821 
L 116.206339 22.401401 
z
" clip-path="url(#p89c56f5016)" style="stroke: #000000; stroke-linejoin: miter"/>
   </g>
   <g id="line2d_1">
    <path d="M 115.575763 26.09849 
L 116.624728 25.952372 
L 117.679936 25.974289 
L 121.619797 26.558779 
L 122.955978 26.222692 
L 124.435768 26.054654 
L 126.19653 25.062939 
L 127.1893 24.827357 
L 128.18207 25.05746 
L 130.779506 26.85104 
L 134.513321 27.855772 
L 138.272111 28.100581 
L 141.812366 28.904485 
L 145.777202 32.48104 
L 147.812693 33.565114 
L 150.416373 33.846668 
L 152.870201 33.217755 
L 154.506087 31.576238 
L 155.361492 30.21649 
L 157.902734 27.148792 
L 159.039112 26.222692 
L 160.606315 25.919496 
L 162.148543 26.160591 
L 163.572138 26.06196 
L 164.808417 24.750657 
L 165.982259 27.225516 
L 167.905361 29.052486 
L 172.581994 31.587204 
L 174.249099 32.179428 
L 175.123236 32.320179 
L 177.333554 32.340286 
L 179.749919 33.382291 
L 182.234966 33.711375 
L 183.564904 34.095323 
L 184.838646 34.700536 
L 185.818929 35.477692 
L 186.718041 37.105398 
L 186.480775 38.488299 
L 185.768978 39.902551 
L 185.238252 41.640984 
L 181.372741 41.734582 
L 181.473552 43.880952 
L 183.848522 44.618952 
L 185.687127 46.612659 
L 185.638039 49.161321 
L 185.138351 51.299035 
L 182.309892 55.444964 
L 181.910287 58.160606 
L 183.227736 63.367111 
L 183.795926 64.378354 
L 185.512981 65.83396 
L 186.043707 67.019933 
L 186.99277 68.14365 
L 188.372658 68.591711 
L 189.864935 68.881863 
L 191.204152 69.508916 
L 194.373578 69.755306 
L 199.026761 69.061328 
L 201.685723 69.523967 
L 205.474527 68.870844 
L 206.186325 68.621093 
L 209.116907 70.444508 
L 213.054545 81.430855 
L 212.636208 82.655925 
L 210.75057 84.34484 
L 209.913895 85.408412 
L 209.695361 86.052511 
L 209.326975 88.01825 
L 208.989808 88.588919 
L 207.872161 89.958688 
L 207.441336 90.997215 
L 207.135388 92.227415 
L 206.960561 93.54622 
L 206.948073 94.846814 
L 207.684846 97.164817 
L 210.694375 100.353607 
L 211.737096 102.63629 
L 212.761085 106.742292 
L 212.086751 110.281813 
L 209.857701 112.633721 
L 206.186325 113.22088 
L 205.118629 112.674341 
L 203.201771 110.931567 
L 202.146562 110.466397 
L 201.234962 110.739589 
L 201.37857 111.673678 
L 201.37857 112.729732 
L 200.079852 113.387065 
L 200.797894 114.347307 
L 200.860332 115.521909 
L 200.360825 116.338319 
L 199.418006 116.212712 
L 198.77489 115.23009 
L 198.600063 114.070303 
L 198.262896 113.025156 
L 197.126517 112.375237 
L 195.322049 112.729732 
L 191.475845 115.396315 
L 189.696351 116.30507 
L 186.774236 116.700373 
L 185.818929 116.626483 
L 183.146567 115.784186 
L 182.053895 115.828515 
L 179.862308 116.637566 
L 178.732174 116.726234 
L 177.932963 115.979975 
L 176.546831 112.785123 
L 175.978642 111.86937 
L 175.104505 111.596141 
L 172.663164 111.441069 
L 171.82649 111.585064 
L 170.746306 112.375237 
L 170.121923 113.494163 
L 169.634903 114.790534 
L 168.92935 116.112967 
L 168.155114 116.93313 
L 167.218538 117.590796 
L 166.200793 118.078538 
L 165.195535 118.370457 
L 163.953012 118.40741 
L 163.10385 118.052672 
L 161.324356 116.899878 
L 159.251403 116.386346 
L 154.955643 116.489788 
L 152.832738 116.212712 
L 151.028269 116.227489 
L 147.72528 117.830968 
L 130.186342 118.909981 
L 122.375302 117.97877 
L 115.575763 114.236504 
L 109.981285 109.99387 
L 107.939551 109.646876 
L 106.715759 110.075084 
L 105.847865 110.809734 
L 105.04241 111.673678 
L 104.04964 112.474937 
L 102.935115 112.866364 
L 100.709187 112.774045 
L 99.60715 112.87375 
L 97.584147 114.262358 
L 96.060651 118.573698 
L 94.549642 120.02979 
L 92.25191 120.720968 
L 85.371202 121.426991 
L 81.556218 122.510168 
L 80.245012 122.643264 
L 79.633116 122.543442 
L 77.6226 121.929745 
L 77.141825 121.47135 
L 76.895193 121.44917 
L 76.57988 121.730118 
L 76.398808 122.58411 
L 76.308273 123.157184 
L 76.117836 123.634159 
L 75.827497 123.978042 
L 75.608963 123.98174 
L 74.787898 123.671135 
L 72.044594 123.635477 
L 71.082181 123.471467 
L 67.844752 121.948229 
L 66.521058 121.881686 
L 64.410641 122.809638 
L 63.292995 122.831821 
L 62.549978 122.207012 
L 63.514651 120.233072 
L 63.386652 118.987587 
L 61.860034 117.694254 
L 59.468644 116.729929 
L 56.986719 116.290293 
L 53.209198 116.766874 
L 51.061318 115.595789 
L 47.09336 112.670648 
L 44.586459 113.379678 
L 43.752907 113.339055 
L 42.981793 113.416609 
L 42.338678 113.95581 
L 41.714294 114.639095 
L 41.002497 115.141438 
L 39.310417 115.621647 
L 37.605849 115.798962 
L 34.190471 115.592095 
L 32.282978 115.023237 
L 31.433817 113.97797 
L 30.943675 112.522942 
L 30.119489 110.732205 
L 29.164182 109.613654 
L 27.756197 108.502635 
L 26.24831 107.782953 
L 24.96208 107.856764 
L 24.387647 108.303332 
L 23.707068 108.506326 
L 22.995271 108.428819 
L 22.364643 108.033912 
L 21.940063 107.31058 
L 21.890112 105.004462 
L 20.81305 103.617412 
L 19.59238 103.768648 
L 18.424782 104.82 
L 17.494451 106.162975 
L 17.126064 102.628914 
L 17.126064 98.731409 
L 16.835726 96.899448 
L 16.039637 95.285305 
L 14.687846 94.205702 
L 10.327632 91.643011 
L 10.145455 91.501796 
L 10.651205 89.446839 
L 11.612756 87.108944 
L 12.911474 85.095582 
L 14.441214 83.987894 
L 18.081371 82.994416 
L 19.483113 81.857585 
L 19.948279 79.779328 
L 21.327458 78.688612 
L 23.481062 78.876523 
L 24.757273 80.00408 
L 26.272772 78.688612 
L 25.315615 76.997611 
L 24.278694 74.273968 
L 23.496249 71.413897 
L 23.888301 69.722324 
L 24.411037 68.223274 
L 25.423837 67.185635 
L 24.955228 66.176156 
L 24.81904 65.407387 
L 25.145891 64.510584 
L 26.017492 63.99817 
L 26.752906 63.133547 
L 26.616719 62.365071 
L 27.433845 61.276524 
L 28.468872 61.05243 
L 28.850198 59.964063 
L 29.531136 58.971858 
L 30.321025 58.427798 
L 31.982516 57.723776 
L 33.072018 57.979777 
L 33.983635 58.5055 
L 34.14699 57.622654 
L 35.878552 54.897967 
L 38.426888 50.294992 
L 39.537702 47.419494 
L 40.040946 44.820569 
L 42.082681 43.421906 
L 44.545874 42.239461 
L 46.753071 40.480766 
L 48.813537 37.62853 
L 53.309099 29.008634 
L 54.170749 27.833849 
L 55.169763 26.876613 
L 56.377945 26.405346 
L 57.567396 25.422718 
L 60.374001 21.696073 
L 61.457307 20.989656 
L 62.56871 20.624607 
L 69.817804 19.263129 
L 72.115536 18.182878 
L 73.189476 16.177879 
L 73.626545 15.048815 
L 74.544389 14.242703 
L 76.57988 12.904233 
L 77.11685 12.286135 
L 78.584151 10.319128 
L 79.230388 9.980103 
L 79.695554 10.197005 
L 81.798867 8.921914 
L 83.997558 9.44061 
L 85.149546 8.749896 
L 86.289046 8.56766 
L 91.146562 6.832387 
L 94.328756 7.528833 
L 96.11874 8.457525 
L 97.51095 8.225341 
L 98.90316 6.600253 
L 100.494257 5.903892 
L 102.682015 7.528833 
L 102.682015 10.083008 
L 104.474221 12.749248 
L 106.771953 13.141274 
L 108.250854 10.083008 
L 110.239725 10.083008 
L 112.02971 11.244278 
L 114.416355 11.244278 
L 117.399662 13.567345 
L 119.985194 13.799691 
L 122.37184 14.729142 
L 122.968501 17.053263 
L 121.178517 17.750636 
L 119.985194 20.075668 
L 117.996323 20.30821 
L 116.206339 22.401401 
L 115.575763 26.09849 
L 115.575763 26.09849 
" clip-path="url(#p89c56f5016)" style="fill: none; stroke: #000000; stroke-width: 0.5; stroke-linecap: square"/>
   </g>
  </g>
 </g>
 <defs>
  <clipPath id="p89c56f5016">
   <rect x="0" y="-0" width="223.2" height="129.885632"/>
  </clipPath>
 </defs>
</svg>
