<?xml version="1.0" encoding="utf-8" standalone="no"?>
<!DOCTYPE svg PUBLIC "-//W3C//DTD SVG 1.1//EN"
  "http://www.w3.org/Graphics/SVG/1.1/DTD/svg11.dtd">
<svg xmlns:xlink="http://www.w3.org/1999/xlink" width="223.2pt" height="86.452303pt" viewBox="0 0 223.2 86.452303" xmlns="http://www.w3.org/2000/svg" version="1.1">
 <metadata>
  <rdf:RDF xmlns:dc="http://purl.org/dc/elements/1.1/" xmlns:cc="http://creativecommons.org/ns#" xmlns:rdf="http://www.w3.org/1999/02/22-rdf-syntax-ns#">
   <cc:Work>
    <dc:type rdf:resource="http://purl.org/dc/dcmitype/StillImage"/>
    <dc:date>2026-04-26T19:22:14.386752</dc:date>
    <dc:format>image/svg+xml</dc:format>
    <dc:creator>
     <cc:Agent>
      <dc:title>Matplotlib v3.10.9, https://matplotlib.org/</dc:title>
     </cc:Agent>
    </dc:creator>
   </cc:Work>
  </rdf:RDF>
 </metadata>
 <defs>
  <style type="text/css">*{stroke-linejoin: round; stroke-linecap: butt}</style>
 </defs>
 <g id="figure_1">
  <g id="patch_1">
   <path d="M 0 86.452303 
L 223.2 86.452303 
L 223.2 0 
L 0 0 
z
" style="fill: #ffffff"/>
  </g>
  <g id="axes_1">
   <g id="patch_2">
    <path d="M 10.145455 3.942052 
L 57.606274 3.92965 
L 109.892486 3.92965 
L 162.167087 3.92965 
L 211.245286 3.92965 
L 213.054545 3.92965 
L 193.941615 66.931183 
L 164.133377 71.80432 
L 130.610564 76.995599 
L 94.92417 82.522653 
L 68.21587 57.750501 
L 37.68075 29.447489 
z
" clip-path="url(#pe89c2e1980)" style="stroke: #000000; stroke-linejoin: miter"/>
   </g>
   <g id="line2d_1">
    <path d="M 10.145455 3.942052 
L 57.606274 3.92965 
L 109.892486 3.92965 
L 162.167087 3.92965 
L 211.245286 3.92965 
L 213.054545 3.92965 
L 193.941615 66.931183 
L 164.133377 71.80432 
L 130.610564 76.995599 
L 94.92417 82.522653 
L 68.21587 57.750501 
L 37.68075 29.447489 
L 10.145455 3.942052 
" clip-path="url(#pe89c2e1980)" style="fill: none; stroke: #000000; stroke-width: 0.5; stroke-linecap: square"/>
   </g>
  </g>
 </g>
 <defs>
  <clipPath id="pe89c2e1980">
   <rect x="0" y="-0" width="223.2" height="86.452303"/>
  </clipPath>
 </defs>
</svg>
