<?xml version="1.0" encoding="utf-8" standalone="no"?>
<!DOCTYPE svg PUBLIC "-//W3C//DTD SVG 1.1//EN"
  "http://www.w3.org/Graphics/SVG/1.1/DTD/svg11.dtd">
<svg xmlns:xlink="http://www.w3.org/1999/xlink" width="186.370576pt" height="221.76pt" viewBox="0 0 186.370576 221.76" xmlns="http://www.w3.org/2000/svg" version="1.1">
 <metadata>
  <rdf:RDF xmlns:dc="http://purl.org/dc/elements/1.1/" xmlns:cc="http://creativecommons.org/ns#" xmlns:rdf="http://www.w3.org/1999/02/22-rdf-syntax-ns#">
   <cc:Work>
    <dc:type rdf:resource="http://purl.org/dc/dcmitype/StillImage"/>
    <dc:date>2026-04-26T19:22:03.821853</dc:date>
    <dc:format>image/svg+xml</dc:format>
    <dc:creator>
     <cc:Agent>
      <dc:title>Matplotlib v3.10.9, https://matplotlib.org/</dc:title>
     </cc:Agent>
    </dc:creator>
   </cc:Work>
  </rdf:RDF>
 </metadata>
 <defs>
  <style type="text/css">*{stroke-linejoin: round; stroke-linecap: butt}</style>
 </defs>
 <g id="figure_1">
  <g id="patch_1">
   <path d="M 0 221.76 
L 186.370576 221.76 
L 186.370576 0 
L 0 0 
z
" style="fill: #ffffff"/>
  </g>
  <g id="axes_1">
   <g id="patch_2">
    <path d="M 103.952381 10.360283 
L 103.221807 12.312319 
L 103.221807 12.954948 
L 103.343257 13.498633 
L 103.866431 15.07515 
L 104.613821 16.611085 
L 105.103362 17.248341 
L 105.71809 17.685662 
L 106.261817 18.212266 
L 106.646723 19.05375 
L 107.225951 20.809025 
L 107.810783 21.950602 
L 107.954656 22.403855 
L 108.123753 23.361859 
L 108.215309 23.66471 
L 108.448868 24.124811 
L 109.640956 25.636202 
L 110.255684 26.135961 
L 110.502323 26.440948 
L 111.359954 27.91394 
L 111.87939 28.462654 
L 112.5782 28.882345 
L 113.030371 29.372319 
L 113.237772 30.171621 
L 113.348012 31.830649 
L 113.994505 33.535811 
L 116.262835 35.965785 
L 116.746031 37.746349 
L 116.752375 37.769723 
L 116.690716 38.237533 
L 116.395496 39.077109 
L 116.337574 39.540084 
L 116.404839 40.084827 
L 116.548711 40.51028 
L 116.993409 41.407784 
L 117.540872 42.267694 
L 117.955674 43.260556 
L 119.68962 49.072328 
L 120.145528 49.886191 
L 120.849943 50.406132 
L 121.657125 50.660247 
L 122.624995 50.683559 
L 122.821185 50.790794 
L 122.996822 50.946979 
L 123.138826 51.124136 
L 123.3182 51.415495 
L 123.363043 51.597291 
L 123.234118 52.068055 
L 123.103325 52.347688 
L 122.983743 52.422254 
L 122.978137 52.461866 
L 123.198617 52.636621 
L 123.34249 52.71118 
L 123.891822 52.827677 
L 124.29915 53.086285 
L 124.798033 53.999425 
L 125.141832 54.381386 
L 125.474421 54.535091 
L 126.188179 54.728377 
L 126.533847 54.89371 
L 127.264421 55.452529 
L 127.57272 55.829683 
L 127.725935 56.251025 
L 127.85486 56.760762 
L 128.101498 57.063311 
L 128.435956 57.240175 
L 129.256217 57.517089 
L 129.515935 57.689277 
L 129.576806 57.766509 
L 129.713993 57.940564 
L 129.964369 58.345379 
L 130.240903 58.680364 
L 130.549202 58.871106 
L 130.907949 58.954843 
L 131.33583 58.959495 
L 132.012219 59.108356 
L 134.0582 60.333901 
L 134.709364 60.475731 
L 135.310079 60.466431 
L 135.894912 60.540831 
L 136.500298 60.933733 
L 136.664724 61.154576 
L 136.976759 61.675248 
L 137.172949 61.863508 
L 137.395298 61.96112 
L 137.578408 61.975065 
L 137.757782 61.954148 
L 137.978262 61.963444 
L 138.358497 62.03549 
L 138.734995 62.165633 
L 139.061044 62.404992 
L 139.298341 62.797691 
L 140.222302 65.577889 
L 140.547417 68.212089 
L 140.265277 71.449359 
L 140.945402 71.036749 
L 141.57321 70.939385 
L 143.619191 70.946339 
L 145.069129 71.164246 
L 146.094922 70.946339 
L 146.726467 71.289421 
L 147.453304 71.301011 
L 147.774682 71.456313 
L 148.0344 71.748356 
L 148.16893 72.142343 
L 148.115679 73.027494 
L 147.894264 73.81977 
L 147.751326 74.623446 
L 148.200694 76.401527 
L 148.241801 77.29717 
L 147.967135 79.110887 
L 147.869974 79.362974 
L 147.739181 79.554918 
L 147.634546 79.758413 
L 147.612124 80.054384 
L 147.61773 80.308714 
L 147.572886 80.810382 
L 147.573821 81.029983 
L 147.713022 82.284908 
L 147.687798 82.756253 
L 147.468252 83.941258 
L 147.464515 84.33155 
L 147.612124 84.754123 
L 148.234327 85.74454 
L 148.508993 86.083846 
L 149.764609 87.150018 
L 150.30273 87.915977 
L 150.764243 88.762482 
L 151.412605 89.666415 
L 151.582636 89.982273 
L 151.623742 90.162092 
L 151.6144 90.507869 
L 151.644296 90.676134 
L 151.760141 90.883573 
L 152.05536 91.250017 
L 152.591613 92.524191 
L 152.642062 92.75455 
L 152.581336 92.929613 
L 152.442135 93.196795 
L 152.404765 93.408683 
L 152.467359 93.450138 
L 152.59535 93.498502 
L 152.66822 93.627467 
L 152.574797 93.915318 
L 152.645799 94.131765 
L 152.733617 94.154791 
L 152.835449 94.131765 
L 152.959703 94.219261 
L 153.053127 94.401154 
L 153.215684 94.854689 
L 153.31845 95.054962 
L 153.537996 95.328879 
L 153.791175 95.522218 
L 154.086394 95.632692 
L 155.13274 95.708642 
L 156.487385 96.019324 
L 158.641738 96.056144 
L 159.311587 96.203418 
L 160.031884 96.488744 
L 161.502375 97.367577 
L 161.891018 97.468789 
L 162.194645 97.404382 
L 162.482391 97.273263 
L 163.118607 97.084628 
L 163.307323 96.978803 
L 163.50725 96.939693 
L 164.084609 97.114534 
L 164.62273 97.174346 
L 164.875908 97.268663 
L 165.575653 97.905804 
L 166.403387 98.20708 
L 169.054755 99.627995 
L 169.60035 99.795797 
L 170.700882 99.87165 
L 171.224055 100.016455 
L 171.547302 100.264677 
L 172.270402 100.528968 
L 172.569358 100.797832 
L 172.612333 101.225212 
L 172.391853 101.744426 
L 172.092897 102.279635 
L 171.894838 102.757344 
L 171.820099 103.69648 
L 171.960235 104.637637 
L 172.3031 105.484445 
L 172.849629 106.152096 
L 173.522281 106.555831 
L 174.189327 106.691162 
L 175.897114 106.631525 
L 175.988669 106.700337 
L 176.164306 106.952634 
L 176.263335 107.152165 
L 176.403471 107.59017 
L 176.517448 107.796539 
L 177.899186 109.162826 
L 177.563794 109.298047 
L 177.046227 109.240751 
L 176.057803 108.997802 
L 175.585078 109.061979 
L 175.236608 109.334717 
L 174.944191 109.628055 
L 174.622813 109.76784 
L 172.434828 109.907618 
L 172.270402 109.987817 
L 171.89297 110.574346 
L 171.896707 110.677436 
L 171.620172 110.862989 
L 171.276373 111.275291 
L 170.851294 111.900512 
L 170.990496 113.455015 
L 170.908283 113.715932 
L 170.728909 113.905884 
L 170.312239 114.7937 
L 169.988993 115.077383 
L 169.208904 114.972149 
L 168.796905 114.995026 
L 168.6194 115.28784 
L 168.518502 115.711 
L 168.258784 115.946572 
L 167.8963 116.063208 
L 167.498314 116.134102 
L 166.713554 116.410804 
L 165.405621 117.25219 
L 164.770339 117.492218 
L 164.288273 117.489933 
L 163.933262 117.430499 
L 163.612819 117.49679 
L 163.226978 117.878511 
L 162.937364 117.979076 
L 161.79666 117.643084 
L 160.304682 117.761942 
L 159.612411 117.974505 
L 158.948168 118.399586 
L 158.677239 118.664661 
L 158.021404 119.544275 
L 157.842965 119.660777 
L 157.402939 119.711031 
L 157.206749 119.772705 
L 157.038586 119.898335 
L 156.468701 120.715944 
L 156.379014 120.926022 
L 156.343513 121.211429 
L 156.379014 121.48083 
L 156.4332 121.652048 
L 156.429463 121.827821 
L 156.293064 122.115428 
L 156.128638 122.28661 
L 155.943659 122.366492 
L 155.762417 122.41442 
L 155.614807 122.501145 
L 155.5382 122.631228 
L 155.43917 122.968961 
L 155.3663 123.103588 
L 155.097239 123.233645 
L 154.680569 123.370542 
L 154.344243 123.548498 
L 154.312479 123.788039 
L 154.467563 124.260222 
L 154.390955 124.750576 
L 154.168607 125.192967 
L 153.886467 125.528139 
L 153.641696 125.70825 
L 153.299765 125.906588 
L 152.920465 126.066161 
L 152.572928 126.129988 
L 152.36179 126.348813 
L 152.369264 126.852506 
L 152.516874 127.786739 
L 152.22726 128.404087 
L 151.603189 128.89833 
L 150.848325 129.253589 
L 150.160726 129.453972 
L 150.27844 129.856977 
L 149.992563 129.975364 
L 149.60392 129.945768 
L 149.409598 129.904788 
L 149.364755 130.07781 
L 149.417072 130.248546 
L 149.497417 130.401063 
L 149.532918 130.508047 
L 149.569353 130.57178 
L 149.647829 130.667378 
L 149.682396 130.756145 
L 149.59738 130.794837 
L 149.574024 130.824425 
L 149.437626 130.947326 
L 149.409598 130.958705 
L 149.142406 131.805214 
L 149.037772 132.009979 
L 148.776185 132.160131 
L 148.533283 132.030455 
L 148.040005 131.409296 
L 147.322511 132.069131 
L 147.112307 132.160131 
L 146.864734 132.069131 
L 146.606884 131.928075 
L 146.405089 131.921249 
L 146.246269 132.535478 
L 145.906206 132.958541 
L 145.82773 133.295129 
L 145.812782 133.420202 
L 145.773544 133.545271 
L 145.71095 133.640774 
L 145.643685 133.677155 
L 145.596973 133.736274 
L 145.625935 133.881793 
L 145.677318 134.05686 
L 145.706279 134.202363 
L 145.603513 134.695655 
L 145.336321 135.09114 
L 144.973836 135.361585 
L 144.583325 135.493389 
L 143.832198 135.522931 
L 143.59677 135.629733 
L 143.42487 135.845597 
L 143.27726 136.097798 
L 143.099755 136.231842 
L 142.845642 136.079622 
L 142.978304 135.761525 
L 142.834431 135.718353 
L 142.569108 135.822875 
L 142.350496 135.943299 
L 142.298179 136.070534 
L 142.126279 136.327259 
L 141.943168 136.447662 
L 141.740439 135.76607 
L 141.479786 136.006917 
L 141.053774 136.767957 
L 140.756686 137.090488 
L 140.440914 137.351667 
L 139.746775 137.742257 
L 139.074124 137.976133 
L 138.875131 138.234964 
L 139.131112 138.657218 
L 138.94987 138.745747 
L 138.787312 138.750287 
L 138.64344 138.668568 
L 138.512646 138.493772 
L 138.467803 138.625437 
L 138.333273 138.807036 
L 138.254797 138.956846 
L 138.109056 138.754827 
L 137.901655 138.664028 
L 137.716676 138.700348 
L 137.6382 138.875132 
L 137.716676 139.145232 
L 137.866154 139.290486 
L 137.965183 139.431194 
L 137.884839 139.692167 
L 137.66249 139.537855 
L 137.462563 139.562818 
L 137.288795 139.726205 
L 137.144922 139.99169 
L 137.266373 139.99169 
L 136.933784 140.259419 
L 136.82915 140.391006 
L 136.773095 140.592913 
L 136.649776 140.506707 
L 136.525522 140.443186 
L 136.554484 140.878734 
L 136.668461 141.262054 
L 136.679672 141.577292 
L 136.403137 141.80406 
L 136.09297 141.788187 
L 135.952834 141.54781 
L 135.851937 141.280198 
L 135.663221 141.191745 
L 135.488518 141.352773 
L 135.169943 142.255278 
L 134.819604 142.951241 
L 134.727114 143.361487 
L 134.772099 143.574778 
L 134.809327 143.751281 
L 134.294562 144.796894 
L 134.418816 145.24312 
L 134.349682 145.834207 
L 133.079118 151.648047 
L 133.043617 152.621902 
L 132.696081 154.539267 
L 132.505496 154.920779 
L 132.217751 155.209701 
L 131.83845 155.446685 
L 130.242772 156.01988 
L 129.861603 156.252284 
L 129.701848 156.577166 
L 128.605987 157.842497 
L 127.428847 158.68799 
L 126.937438 159.134308 
L 126.483398 159.792385 
L 125.954619 161.342312 
L 125.821958 161.592292 
L 124.644818 162.929644 
L 124.638293 162.928501 
L 124.233753 162.857615 
L 123.90677 162.826101 
L 123.56297 162.738312 
L 123.222908 162.702295 
L 122.37462 162.835105 
L 120.333948 163.540158 
L 117.58011 164.491326 
L 116.993409 164.965958 
L 116.720611 165.1234 
L 115.791979 165.085165 
L 115.195935 165.310071 
L 115.057668 165.337058 
L 114.954901 165.440507 
L 114.928743 165.973435 
L 115.11559 167.562614 
L 115.106248 168.438855 
L 114.915663 169.1374 
L 114.388753 170.462125 
L 114.355121 171.270117 
L 113.807657 172.322391 
L 113.409672 173.766642 
L 111.828941 177.63809 
L 111.251582 180.453033 
L 111.058304 180.957653 
L 110.263158 183.032651 
L 109.872647 184.334918 
L 107.543591 186.315008 
L 106.243132 187.013376 
L 102.470679 187.439446 
L 101.713946 187.294456 
L 100.88808 187.015607 
L 100.191138 186.890673 
L 99.496065 187.002222 
L 98.675804 187.430523 
L 97.599562 188.320364 
L 97.240815 188.483134 
L 96.162704 188.793038 
L 95.615241 188.862149 
L 95.110752 188.719467 
L 94.518445 188.574549 
L 93.199301 188.735073 
L 92.560283 188.579008 
L 91.603623 187.872136 
L 90.231989 187.322129 
L 89.434322 187.002222 
L 89.073706 187.051302 
L 88.711222 187.218612 
L 88.214207 187.356914 
L 87.30426 187.191843 
L 86.541921 186.580544 
L 85.29378 184.971299 
L 84.494072 184.473372 
L 83.544886 184.480071 
L 81.667068 185.03158 
L 81.280293 185.094091 
L 81.254134 184.991393 
L 81.351295 184.806078 
L 81.334479 184.629682 
L 81.145763 184.459974 
L 80.960784 184.334918 
L 80.751514 184.292487 
L 79.817276 184.544829 
L 79.473477 184.312586 
L 79.200679 183.888244 
L 78.382287 183.2449 
L 77.696556 182.261711 
L 77.535867 182.152197 
L 77.169646 182.022562 
L 77.001483 181.910803 
L 76.880032 181.718566 
L 76.695053 181.266979 
L 76.525022 181.101526 
L 75.514176 180.763883 
L 75.288091 180.508944 
L 75.151692 180.29424 
L 73.242109 178.663269 
L 72.786201 178.35889 
L 72.257423 178.09253 
L 72.07618 177.947028 
L 71.838884 177.671672 
L 71.56235 177.210443 
L 71.401661 177.035782 
L 71.141942 176.948447 
L 70.908383 176.995474 
L 70.316076 177.235073 
L 69.994698 177.261943 
L 69.714427 177.19029 
L 68.890429 176.845434 
L 67.902005 176.641634 
L 67.005137 176.711062 
L 66.145638 176.988756 
L 64.787256 177.691821 
L 64.615356 177.84853 
L 64.394876 177.985083 
L 64.282767 177.873155 
L 64.204291 177.653761 
L 64.084709 177.47689 
L 63.653091 177.409721 
L 63.22521 177.656 
L 62.520794 178.437226 
L 62.421765 178.6297 
L 62.380659 178.815446 
L 62.30592 178.983277 
L 62.100387 179.126486 
L 61.850011 179.247312 
L 61.661295 179.381556 
L 61.506212 179.56725 
L 61.356734 179.833463 
L 61.06712 180.674433 
L 60.87093 180.929356 
L 60.411285 181.130593 
L 60.289834 181.342994 
L 59.929218 182.681845 
L 59.787214 183.014777 
L 59.736765 183.191281 
L 59.725554 183.374475 
L 59.830189 183.586696 
L 60.002089 183.816769 
L 60.08617 184.044588 
L 59.923613 184.254522 
L 59.678842 184.459974 
L 59.656421 184.631915 
L 59.725554 184.819475 
L 59.753581 185.053905 
L 59.714343 185.361983 
L 59.667632 185.585205 
L 59.562997 185.797248 
L 58.755815 186.825973 
L 58.514782 187.267688 
L 58.40641 187.736092 
L 58.41949 188.034934 
L 58.488623 188.104065 
L 58.595126 188.146434 
L 58.722183 188.3605 
L 58.834291 188.670419 
L 58.858581 188.804185 
L 58.66426 189.16755 
L 58.389594 189.492974 
L 58.02711 189.833958 
L 57.834657 190.19495 
L 58.066348 190.582627 
L 58.159771 190.854412 
L 58.167245 191.335536 
L 58.11306 191.843291 
L 58.025241 192.204005 
L 57.864552 192.47562 
L 57.687047 192.613643 
L 57.173216 192.820664 
L 56.980763 192.994281 
L 56.990105 193.185692 
L 57.057371 193.401569 
L 57.042423 193.650806 
L 56.287558 194.89663 
L 56.244422 194.944466 
L 56.068947 195.139051 
L 55.713936 195.410357 
L 55.510272 195.697199 
L 55.213185 196.441948 
L 54.874991 197.006479 
L 54.564824 197.142037 
L 53.744563 196.950921 
L 53.170941 197.064259 
L 52.772955 197.417575 
L 52.161964 198.39283 
L 51.218383 199.369933 
L 50.783028 199.61637 
L 50.500888 199.71849 
L 49.671285 199.876102 
L 49.508728 200.004848 
L 49.318143 200.430996 
L 48.589437 201.232049 
L 48.243769 202.001797 
L 47.662673 203.702397 
L 46.975074 204.832538 
L 46.063258 205.811583 
L 45.001964 206.511299 
L 43.860325 206.803527 
L 42.105826 206.816809 
L 41.535941 206.925279 
L 41.053874 207.109002 
L 40.838999 207.334764 
L 40.816577 207.668942 
L 40.979135 208.629179 
L 40.99782 209.042807 
L 40.923081 209.434253 
L 40.723154 209.812371 
L 40.388696 210.155059 
L 39.364772 210.897757 
L 38.955575 211.065717 
L 38.572538 211.059087 
L 37.498164 210.751887 
L 35.956671 210.709893 
L 35.067277 210.281068 
L 34.654344 210.201484 
L 33.826609 210.230223 
L 32.309406 210.667898 
L 32.055294 210.678949 
L 31.548937 210.61043 
L 31.291087 210.61485 
L 29.715962 211.096655 
L 29.155419 211.114335 
L 26.767507 210.541908 
L 26.040669 210.059995 
L 25.272726 209.717294 
L 24.263749 209.856591 
L 23.79663 210.119687 
L 22.953947 210.745256 
L 21.788018 211.322055 
L 21.401244 211.620346 
L 21.350795 211.68 
L 21.259239 211.465681 
L 21.07426 210.78725 
L 20.896755 210.55296 
L 20.623958 210.351807 
L 20.521191 210.241276 
L 20.409083 210.079893 
L 20.158707 209.489537 
L 19.975596 208.715449 
L 19.876567 207.923419 
L 19.870962 207.279432 
L 20.26521 205.827085 
L 20.295106 205.333183 
L 20.211024 205.023061 
L 19.917674 204.575531 
L 19.805565 204.314066 
L 19.751379 203.766673 
L 19.805565 203.146003 
L 20.039125 201.997361 
L 20.117601 201.735628 
L 20.651985 201.311918 
L 20.90236 200.968018 
L 21.436745 199.8983 
L 22.481223 198.486115 
L 22.896024 197.719744 
L 23.230482 196.888694 
L 24.011504 195.703869 
L 24.075033 195.37033 
L 23.396776 194.078013 
L 23.335116 193.673058 
L 23.376223 192.123851 
L 23.219271 190.257339 
L 22.731598 188.973613 
L 22.727861 188.893359 
L 22.526066 188.641435 
L 22.421431 188.630288 
L 22.242058 188.730615 
L 21.997287 188.82202 
L 22.008498 188.623599 
L 22.200951 188.208872 
L 21.819782 186.776889 
L 21.642277 186.39311 
L 21.455429 186.225746 
L 20.993916 185.975797 
L 20.846306 185.754841 
L 20.844438 185.531633 
L 21.00139 185.065068 
L 20.990179 184.826173 
L 20.850043 184.696669 
L 20.638905 184.660943 
L 20.452058 184.587256 
L 20.396003 184.352784 
L 20.493164 184.19869 
L 20.889281 183.935148 
L 21.00139 183.722955 
L 20.855649 183.151066 
L 20.04473 182.366751 
L 20.078363 181.763274 
L 20.196077 181.421242 
L 20.732329 181.054572 
L 20.496901 180.828731 
L 20.332475 180.83544 
L 20.173655 180.945008 
L 20.009229 181.018796 
L 19.829855 180.929356 
L 19.816776 180.707977 
L 19.915805 180.439615 
L 19.927016 180.258455 
L 19.654219 180.298714 
L 19.594427 179.873729 
L 19.49353 179.674633 
L 18.964751 179.415116 
L 18.665795 179.202562 
L 18.549949 178.963138 
L 18.430367 178.289505 
L 18.355628 178.119391 
L 18.166912 177.839575 
L 18.092173 177.687343 
L 18.090304 177.523908 
L 18.170649 177.403004 
L 18.237914 177.2709 
L 18.198676 177.067132 
L 18.080962 176.935011 
L 17.753978 176.751374 
L 17.640001 176.623717 
L 17.6045 176.482615 
L 17.570868 175.915892 
L 17.223331 175.768032 
L 16.887006 175.543986 
L 16.716974 175.250457 
L 16.875795 174.887424 
L 16.903822 174.569169 
L 16.707632 174.100683 
L 16.218091 173.255411 
L 15.651943 171.916338 
L 15.45949 171.635879 
L 13.123895 169.525903 
L 11.743091 168.605084 
L 11.558112 168.54668 
L 11.184417 168.519724 
L 11.012517 168.468058 
L 10.81259 168.315299 
L 10.328655 167.713167 
L 9.392548 166.899631 
L 9.052486 166.30843 
L 8.734845 166.043136 
L 8.617131 165.890243 
L 8.527444 165.534958 
L 8.525576 161.788207 
L 8.521839 158.038674 
L 8.516233 154.286402 
L 8.514365 150.524651 
L 8.510628 146.760228 
L 8.510019 146.14676 
L 8.506891 142.992041 
L 8.503154 139.21786 
L 8.499417 135.436578 
L 8.498679 133.942062 
L 8.497548 131.652769 
L 8.493812 127.864199 
L 8.488206 124.073182 
L 8.486338 120.272909 
L 8.482601 116.945842 
L 8.480732 113.61523 
L 8.476995 110.283386 
L 8.473258 106.945754 
L 8.47139 105.034678 
L 12.703488 105.034678 
L 16.935586 105.034678 
L 21.167684 105.034678 
L 25.399782 105.034678 
L 26.434918 105.034678 
L 26.666609 104.219889 
L 26.66474 103.306163 
L 26.661003 102.024675 
L 26.657266 100.74498 
L 26.65353 99.464782 
L 26.649793 98.181783 
L 26.646056 96.898282 
L 26.642319 95.61428 
L 26.636713 94.329779 
L 26.634845 93.047084 
L 26.631108 91.761589 
L 26.627371 90.475598 
L 26.623634 89.191419 
L 26.619897 87.904443 
L 26.618028 86.619282 
L 26.614292 85.333633 
L 26.608686 84.045187 
L 26.606818 82.756253 
L 26.606771 82.738943 
L 26.599344 79.961896 
L 26.59187 77.162954 
L 26.584396 74.364066 
L 26.576922 71.560617 
L 26.569448 68.757252 
L 26.568339 68.202173 
L 26.563843 65.951669 
L 26.556369 63.143881 
L 26.548895 60.331576 
L 26.543289 57.519416 
L 26.535816 54.702762 
L 26.526473 51.886282 
L 26.520868 49.067663 
L 26.513394 46.244585 
L 26.504051 43.421726 
L 26.500518 41.641378 
L 26.498446 40.596767 
L 26.490972 37.769723 
L 26.490972 36.843292 
L 26.490972 35.918979 
L 26.490972 34.994446 
L 26.490972 34.072034 
L 26.490972 33.147062 
L 26.490972 32.221872 
L 26.490972 31.296462 
L 26.490972 30.370835 
L 26.490972 29.44499 
L 26.490972 28.518928 
L 26.490972 27.594994 
L 26.490972 26.666154 
L 26.490972 25.737097 
L 26.490972 24.810171 
L 26.490972 23.885377 
L 26.490972 22.958022 
L 26.490972 22.312269 
L 26.822813 22.295586 
L 27.378498 22.267649 
L 28.398686 22.218333 
L 29.417005 22.166667 
L 30.439062 22.117349 
L 31.45925 22.065681 
L 32.307538 22.023408 
L 33.159563 21.981133 
L 34.007851 21.938859 
L 34.858008 21.896584 
L 35.199939 21.877795 
L 35.54187 21.861354 
L 35.852037 21.790894 
L 36.158467 21.718085 
L 36.468634 21.645273 
L 36.776932 21.572461 
L 38.303477 21.217775 
L 39.826285 20.863057 
L 41.35283 20.505959 
L 42.877506 20.14883 
L 44.40592 19.794019 
L 45.928728 19.436827 
L 47.453404 19.081953 
L 48.979949 18.724699 
L 50.506494 18.367413 
L 52.03117 18.012446 
L 53.555847 17.655098 
L 55.080523 17.297718 
L 56.607068 16.942658 
L 58.131744 16.585216 
L 59.658289 16.230095 
L 61.182966 15.872591 
L 62.761828 15.505646 
L 64.899364 15.28217 
L 66.457673 15.119849 
L 67.707684 14.990457 
L 68.391546 15.025746 
L 68.625105 15.173957 
L 68.72974 15.272761 
L 68.75403 15.425667 
L 68.752162 15.731462 
L 68.810084 15.89376 
L 68.942746 15.940801 
L 69.075408 15.959618 
L 69.133331 16.034883 
L 69.110909 16.57581 
L 69.133331 16.73337 
L 69.18378 16.855652 
L 69.391181 17.198963 
L 69.598581 17.760895 
L 70.144176 18.536657 
L 70.254416 18.767007 
L 70.263759 18.90333 
L 70.230126 19.286421 
L 70.254416 19.403926 
L 70.353446 19.469727 
L 70.516003 19.540228 
L 70.671087 19.563727 
L 70.861671 19.338123 
L 71.130732 19.615427 
L 71.392318 20.0008 
L 71.489479 20.179375 
L 71.736118 20.301553 
L 71.980888 20.353243 
L 72.165867 20.451922 
L 72.240606 20.722101 
L 72.341504 20.97112 
L 72.53022 21.149652 
L 72.631118 21.36576 
L 72.477903 21.729828 
L 73.068341 22.497787 
L 73.236504 22.974458 
L 72.980523 23.451073 
L 73.141212 23.76096 
L 73.427089 24.735069 
L 73.569093 25.685477 
L 73.804521 25.92011 
L 74.12403 25.908379 
L 74.766786 25.643241 
L 74.84713 25.58458 
L 74.966713 25.467255 
L 75.394594 24.859456 
L 75.770157 24.779661 
L 76.039218 24.577819 
L 77.739531 22.366281 
L 78.02354 22.260604 
L 78.234677 22.004619 
L 78.559792 21.419785 
L 78.782141 21.177841 
L 79.314656 20.740896 
L 79.602402 20.411981 
L 79.658456 19.627176 
L 80.288132 19.091354 
L 80.392767 19.067852 
L 80.489928 19.096055 
L 80.575878 19.159511 
L 80.656222 19.232367 
L 80.723487 19.077253 
L 80.809437 18.959738 
L 81.028049 18.767007 
L 81.543748 18.499048 
L 81.685752 18.367413 
L 82.207057 17.758544 
L 82.354667 17.671555 
L 83.014239 17.525786 
L 83.619625 16.994391 
L 84.486598 15.719701 
L 85.123748 15.336276 
L 85.484364 15.275113 
L 85.863665 15.336276 
L 86.059855 15.4092 
L 86.373759 15.606795 
L 86.536316 15.646783 
L 86.706347 15.491532 
L 87.220178 14.402263 
L 87.515397 14.049306 
L 87.780721 13.929294 
L 88.399187 13.964592 
L 88.79904 14.058719 
L 89.021389 14.303438 
L 89.331556 15.025746 
L 89.466086 15.181014 
L 89.585669 15.246884 
L 89.66975 15.378619 
L 89.701514 15.731462 
L 90.318111 16.422946 
L 90.549802 16.354744 
L 91.381274 16.251262 
L 91.564385 16.197168 
L 91.622308 16.060755 
L 91.87642 15.696179 
L 91.934343 15.569158 
L 91.99974 15.522112 
L 92.913425 14.202258 
L 93.182485 13.908115 
L 93.804688 13.430382 
L 94.290491 12.679548 
L 94.387652 12.587744 
L 94.522182 12.49123 
L 94.679134 12.413546 
L 94.845429 12.380589 
L 94.998644 12.309965 
L 95.110752 11.987436 
L 95.222861 11.914451 
L 95.592819 11.817922 
L 96.016963 11.389396 
L 96.328999 11.292854 
L 96.678404 11.259888 
L 98.010627 10.734749 
L 98.128341 10.657033 
L 98.26474 10.49453 
L 98.326399 10.341441 
L 98.412349 10.230743 
L 98.610408 10.190702 
L 98.498299 10.515726 
L 98.688884 10.668808 
L 98.806598 10.866629 
L 98.954207 10.960826 
L 99.228873 10.812465 
L 99.383957 11.080924 
L 99.611911 11.036182 
L 100.114531 10.657033 
L 100.286431 11.125666 
L 100.845105 11.104472 
L 101.441149 10.803045 
L 102.039061 10.08 
L 102.765898 10.091777 
z
" clip-path="url(#p39b0158af9)" style="stroke: #000000; stroke-linejoin: miter"/>
   </g>
   <g id="line2d_1">
    <path d="M 103.952381 10.360283 
L 103.221807 12.312319 
L 103.221807 12.954948 
L 103.343257 13.498633 
L 103.866431 15.07515 
L 104.613821 16.611085 
L 105.103362 17.248341 
L 105.71809 17.685662 
L 106.261817 18.212266 
L 106.646723 19.05375 
L 107.225951 20.809025 
L 107.954656 22.403855 
L 108.215309 23.66471 
L 108.448868 24.124811 
L 109.640956 25.636202 
L 110.502323 26.440948 
L 111.359954 27.91394 
L 111.87939 28.462654 
L 112.5782 28.882345 
L 113.030371 29.372319 
L 113.237772 30.171621 
L 113.348012 31.830649 
L 113.994505 33.535811 
L 116.262835 35.965785 
L 116.752375 37.769723 
L 116.690716 38.237533 
L 116.337574 39.540084 
L 116.548711 40.51028 
L 117.955674 43.260556 
L 119.68962 49.072328 
L 120.145528 49.886191 
L 120.849943 50.406132 
L 121.657125 50.660247 
L 122.821185 50.790794 
L 123.138826 51.124136 
L 123.363043 51.597291 
L 123.103325 52.347688 
L 122.978137 52.461866 
L 123.34249 52.71118 
L 123.891822 52.827677 
L 124.29915 53.086285 
L 124.798033 53.999425 
L 125.141832 54.381386 
L 125.474421 54.535091 
L 126.533847 54.89371 
L 127.264421 55.452529 
L 127.57272 55.829683 
L 128.101498 57.063311 
L 128.435956 57.240175 
L 129.515935 57.689277 
L 130.549202 58.871106 
L 132.012219 59.108356 
L 134.0582 60.333901 
L 134.709364 60.475731 
L 135.894912 60.540831 
L 136.664724 61.154576 
L 137.172949 61.863508 
L 137.578408 61.975065 
L 137.978262 61.963444 
L 138.734995 62.165633 
L 139.061044 62.404992 
L 139.298341 62.797691 
L 140.222302 65.577889 
L 140.547417 68.212089 
L 140.265277 71.449359 
L 140.945402 71.036749 
L 141.57321 70.939385 
L 143.619191 70.946339 
L 145.069129 71.164246 
L 146.094922 70.946339 
L 146.726467 71.289421 
L 147.453304 71.301011 
L 147.774682 71.456313 
L 148.0344 71.748356 
L 148.16893 72.142343 
L 148.115679 73.027494 
L 147.751326 74.623446 
L 148.200694 76.401527 
L 148.241801 77.29717 
L 147.869974 79.362974 
L 147.634546 79.758413 
L 147.573821 81.029983 
L 147.687798 82.756253 
L 147.464515 84.33155 
L 147.612124 84.754123 
L 148.508993 86.083846 
L 149.764609 87.150018 
L 151.412605 89.666415 
L 151.623742 90.162092 
L 151.644296 90.676134 
L 152.591613 92.524191 
L 152.581336 92.929613 
L 152.404765 93.408683 
L 152.66822 93.627467 
L 152.574797 93.915318 
L 152.733617 94.154791 
L 152.835449 94.131765 
L 153.053127 94.401154 
L 153.31845 95.054962 
L 153.791175 95.522218 
L 154.086394 95.632692 
L 155.13274 95.708642 
L 156.487385 96.019324 
L 158.641738 96.056144 
L 159.311587 96.203418 
L 160.031884 96.488744 
L 161.502375 97.367577 
L 161.891018 97.468789 
L 162.482391 97.273263 
L 163.50725 96.939693 
L 164.875908 97.268663 
L 165.575653 97.905804 
L 166.403387 98.20708 
L 169.60035 99.795797 
L 171.224055 100.016455 
L 171.547302 100.264677 
L 172.270402 100.528968 
L 172.569358 100.797832 
L 172.612333 101.225212 
L 171.894838 102.757344 
L 171.820099 103.69648 
L 171.960235 104.637637 
L 172.3031 105.484445 
L 172.849629 106.152096 
L 173.522281 106.555831 
L 174.189327 106.691162 
L 175.988669 106.700337 
L 176.263335 107.152165 
L 176.517448 107.796539 
L 177.899186 109.162826 
L 177.563794 109.298047 
L 177.046227 109.240751 
L 176.057803 108.997802 
L 175.585078 109.061979 
L 174.622813 109.76784 
L 172.270402 109.987817 
L 171.620172 110.862989 
L 170.851294 111.900512 
L 170.908283 113.715932 
L 170.728909 113.905884 
L 170.312239 114.7937 
L 169.988993 115.077383 
L 168.796905 114.995026 
L 168.6194 115.28784 
L 168.518502 115.711 
L 168.258784 115.946572 
L 166.713554 116.410804 
L 165.405621 117.25219 
L 164.770339 117.492218 
L 163.612819 117.49679 
L 163.226978 117.878511 
L 162.937364 117.979076 
L 161.79666 117.643084 
L 160.304682 117.761942 
L 159.612411 117.974505 
L 158.677239 118.664661 
L 157.842965 119.660777 
L 157.206749 119.772705 
L 157.038586 119.898335 
L 156.379014 120.926022 
L 156.379014 121.48083 
L 156.429463 121.827821 
L 156.128638 122.28661 
L 155.5382 122.631228 
L 155.3663 123.103588 
L 154.344243 123.548498 
L 154.312479 123.788039 
L 154.467563 124.260222 
L 154.390955 124.750576 
L 153.886467 125.528139 
L 153.299765 125.906588 
L 152.36179 126.348813 
L 152.369264 126.852506 
L 152.516874 127.786739 
L 152.22726 128.404087 
L 151.603189 128.89833 
L 150.848325 129.253589 
L 150.160726 129.453972 
L 150.27844 129.856977 
L 149.992563 129.975364 
L 149.409598 129.904788 
L 149.417072 130.248546 
L 149.682396 130.756145 
L 149.59738 130.794837 
L 149.409598 130.958705 
L 149.037772 132.009979 
L 148.776185 132.160131 
L 148.533283 132.030455 
L 148.040005 131.409296 
L 147.112307 132.160131 
L 146.405089 131.921249 
L 146.246269 132.535478 
L 145.906206 132.958541 
L 145.643685 133.677155 
L 145.596973 133.736274 
L 145.706279 134.202363 
L 145.603513 134.695655 
L 145.336321 135.09114 
L 144.973836 135.361585 
L 144.583325 135.493389 
L 143.59677 135.629733 
L 143.099755 136.231842 
L 142.845642 136.079622 
L 142.978304 135.761525 
L 142.834431 135.718353 
L 142.350496 135.943299 
L 142.126279 136.327259 
L 141.943168 136.447662 
L 141.740439 135.76607 
L 141.479786 136.006917 
L 140.756686 137.090488 
L 140.440914 137.351667 
L 139.746775 137.742257 
L 139.074124 137.976133 
L 138.875131 138.234964 
L 139.131112 138.657218 
L 138.787312 138.750287 
L 138.512646 138.493772 
L 138.467803 138.625437 
L 138.254797 138.956846 
L 138.109056 138.754827 
L 137.716676 138.700348 
L 137.6382 138.875132 
L 137.866154 139.290486 
L 137.965183 139.431194 
L 137.884839 139.692167 
L 137.66249 139.537855 
L 137.462563 139.562818 
L 137.144922 139.99169 
L 137.266373 139.99169 
L 136.82915 140.391006 
L 136.773095 140.592913 
L 136.525522 140.443186 
L 136.679672 141.577292 
L 136.403137 141.80406 
L 136.09297 141.788187 
L 135.663221 141.191745 
L 135.488518 141.352773 
L 134.772099 143.574778 
L 134.809327 143.751281 
L 134.294562 144.796894 
L 134.418816 145.24312 
L 134.349682 145.834207 
L 133.079118 151.648047 
L 133.043617 152.621902 
L 132.696081 154.539267 
L 132.505496 154.920779 
L 131.83845 155.446685 
L 129.861603 156.252284 
L 129.701848 156.577166 
L 128.605987 157.842497 
L 126.937438 159.134308 
L 126.483398 159.792385 
L 125.821958 161.592292 
L 124.638293 162.928501 
L 123.222908 162.702295 
L 122.37462 162.835105 
L 117.58011 164.491326 
L 116.720611 165.1234 
L 115.791979 165.085165 
L 114.954901 165.440507 
L 114.928743 165.973435 
L 115.11559 167.562614 
L 115.106248 168.438855 
L 114.915663 169.1374 
L 114.388753 170.462125 
L 114.355121 171.270117 
L 113.807657 172.322391 
L 113.409672 173.766642 
L 111.828941 177.63809 
L 111.058304 180.957653 
L 109.872647 184.334918 
L 107.543591 186.315008 
L 106.243132 187.013376 
L 102.470679 187.439446 
L 101.713946 187.294456 
L 100.191138 186.890673 
L 99.496065 187.002222 
L 98.675804 187.430523 
L 97.240815 188.483134 
L 95.615241 188.862149 
L 94.518445 188.574549 
L 93.199301 188.735073 
L 92.560283 188.579008 
L 91.603623 187.872136 
L 89.434322 187.002222 
L 89.073706 187.051302 
L 88.214207 187.356914 
L 87.30426 187.191843 
L 86.541921 186.580544 
L 85.29378 184.971299 
L 84.494072 184.473372 
L 83.544886 184.480071 
L 81.280293 185.094091 
L 81.254134 184.991393 
L 81.334479 184.629682 
L 80.960784 184.334918 
L 80.751514 184.292487 
L 79.817276 184.544829 
L 79.473477 184.312586 
L 79.200679 183.888244 
L 78.382287 183.2449 
L 77.535867 182.152197 
L 77.001483 181.910803 
L 76.525022 181.101526 
L 75.514176 180.763883 
L 75.151692 180.29424 
L 72.786201 178.35889 
L 72.07618 177.947028 
L 71.141942 176.948447 
L 70.908383 176.995474 
L 69.994698 177.261943 
L 69.714427 177.19029 
L 68.890429 176.845434 
L 67.902005 176.641634 
L 67.005137 176.711062 
L 66.145638 176.988756 
L 64.282767 177.873155 
L 64.084709 177.47689 
L 63.653091 177.409721 
L 63.22521 177.656 
L 62.421765 178.6297 
L 62.30592 178.983277 
L 61.506212 179.56725 
L 61.356734 179.833463 
L 60.87093 180.929356 
L 60.411285 181.130593 
L 60.289834 181.342994 
L 59.725554 183.374475 
L 60.08617 184.044588 
L 59.656421 184.631915 
L 59.753581 185.053905 
L 59.562997 185.797248 
L 58.514782 187.267688 
L 58.41949 188.034934 
L 58.722183 188.3605 
L 58.858581 188.804185 
L 58.389594 189.492974 
L 58.02711 189.833958 
L 57.834657 190.19495 
L 58.159771 190.854412 
L 58.11306 191.843291 
L 57.864552 192.47562 
L 57.687047 192.613643 
L 56.980763 192.994281 
L 57.042423 193.650806 
L 56.068947 195.139051 
L 55.510272 195.697199 
L 54.874991 197.006479 
L 54.564824 197.142037 
L 53.744563 196.950921 
L 53.170941 197.064259 
L 52.772955 197.417575 
L 52.161964 198.39283 
L 51.218383 199.369933 
L 50.500888 199.71849 
L 49.508728 200.004848 
L 49.318143 200.430996 
L 48.589437 201.232049 
L 48.243769 202.001797 
L 47.662673 203.702397 
L 46.975074 204.832538 
L 46.063258 205.811583 
L 45.001964 206.511299 
L 43.860325 206.803527 
L 41.535941 206.925279 
L 41.053874 207.109002 
L 40.838999 207.334764 
L 40.816577 207.668942 
L 40.99782 209.042807 
L 40.923081 209.434253 
L 40.723154 209.812371 
L 40.388696 210.155059 
L 38.955575 211.065717 
L 38.572538 211.059087 
L 37.498164 210.751887 
L 35.956671 210.709893 
L 34.654344 210.201484 
L 33.826609 210.230223 
L 32.055294 210.678949 
L 31.291087 210.61485 
L 29.715962 211.096655 
L 29.155419 211.114335 
L 26.767507 210.541908 
L 26.040669 210.059995 
L 25.272726 209.717294 
L 24.263749 209.856591 
L 23.79663 210.119687 
L 22.953947 210.745256 
L 21.401244 211.620346 
L 21.350795 211.68 
L 20.896755 210.55296 
L 20.409083 210.079893 
L 20.158707 209.489537 
L 19.876567 207.923419 
L 19.870962 207.279432 
L 20.295106 205.333183 
L 20.211024 205.023061 
L 19.805565 204.314066 
L 19.751379 203.766673 
L 19.805565 203.146003 
L 20.117601 201.735628 
L 20.651985 201.311918 
L 20.90236 200.968018 
L 21.436745 199.8983 
L 22.481223 198.486115 
L 24.075033 195.37033 
L 23.396776 194.078013 
L 23.335116 193.673058 
L 23.376223 192.123851 
L 23.219271 190.257339 
L 22.526066 188.641435 
L 22.421431 188.630288 
L 21.997287 188.82202 
L 22.008498 188.623599 
L 22.200951 188.208872 
L 21.642277 186.39311 
L 21.455429 186.225746 
L 20.993916 185.975797 
L 20.846306 185.754841 
L 20.844438 185.531633 
L 20.990179 184.826173 
L 20.850043 184.696669 
L 20.452058 184.587256 
L 20.396003 184.352784 
L 20.493164 184.19869 
L 20.889281 183.935148 
L 21.00139 183.722955 
L 20.855649 183.151066 
L 20.04473 182.366751 
L 20.196077 181.421242 
L 20.732329 181.054572 
L 20.496901 180.828731 
L 20.173655 180.945008 
L 20.009229 181.018796 
L 19.829855 180.929356 
L 19.816776 180.707977 
L 19.927016 180.258455 
L 19.654219 180.298714 
L 19.49353 179.674633 
L 18.665795 179.202562 
L 18.549949 178.963138 
L 18.355628 178.119391 
L 18.092173 177.687343 
L 18.170649 177.403004 
L 18.237914 177.2709 
L 18.080962 176.935011 
L 17.640001 176.623717 
L 17.570868 175.915892 
L 16.887006 175.543986 
L 16.716974 175.250457 
L 16.903822 174.569169 
L 16.707632 174.100683 
L 16.218091 173.255411 
L 15.45949 171.635879 
L 13.123895 169.525903 
L 11.558112 168.54668 
L 11.012517 168.468058 
L 10.81259 168.315299 
L 10.328655 167.713167 
L 9.392548 166.899631 
L 9.052486 166.30843 
L 8.617131 165.890243 
L 8.527444 165.534958 
L 8.47139 105.034678 
L 26.434918 105.034678 
L 26.666609 104.219889 
L 26.490972 22.312269 
L 36.158467 21.718085 
L 62.761828 15.505646 
L 68.391546 15.025746 
L 68.72974 15.272761 
L 68.942746 15.940801 
L 69.133331 16.034883 
L 69.18378 16.855652 
L 69.391181 17.198963 
L 69.598581 17.760895 
L 70.254416 18.767007 
L 70.353446 19.469727 
L 70.671087 19.563727 
L 70.861671 19.338123 
L 71.392318 20.0008 
L 71.489479 20.179375 
L 72.165867 20.451922 
L 72.341504 20.97112 
L 72.631118 21.36576 
L 72.477903 21.729828 
L 73.068341 22.497787 
L 73.236504 22.974458 
L 72.980523 23.451073 
L 73.141212 23.76096 
L 73.427089 24.735069 
L 73.569093 25.685477 
L 73.804521 25.92011 
L 74.12403 25.908379 
L 74.966713 25.467255 
L 75.394594 24.859456 
L 75.770157 24.779661 
L 76.039218 24.577819 
L 77.739531 22.366281 
L 78.02354 22.260604 
L 78.234677 22.004619 
L 78.782141 21.177841 
L 79.602402 20.411981 
L 79.658456 19.627176 
L 80.392767 19.067852 
L 80.723487 19.077253 
L 81.028049 18.767007 
L 81.685752 18.367413 
L 82.354667 17.671555 
L 83.014239 17.525786 
L 83.619625 16.994391 
L 84.486598 15.719701 
L 85.123748 15.336276 
L 85.484364 15.275113 
L 86.059855 15.4092 
L 86.536316 15.646783 
L 86.706347 15.491532 
L 87.220178 14.402263 
L 87.515397 14.049306 
L 87.780721 13.929294 
L 88.79904 14.058719 
L 89.021389 14.303438 
L 89.466086 15.181014 
L 89.66975 15.378619 
L 89.701514 15.731462 
L 90.318111 16.422946 
L 90.549802 16.354744 
L 91.564385 16.197168 
L 91.934343 15.569158 
L 91.99974 15.522112 
L 93.182485 13.908115 
L 93.804688 13.430382 
L 94.522182 12.49123 
L 94.998644 12.309965 
L 95.222861 11.914451 
L 95.592819 11.817922 
L 96.016963 11.389396 
L 98.128341 10.657033 
L 98.610408 10.190702 
L 98.498299 10.515726 
L 98.954207 10.960826 
L 99.228873 10.812465 
L 99.383957 11.080924 
L 99.611911 11.036182 
L 100.114531 10.657033 
L 100.286431 11.125666 
L 100.845105 11.104472 
L 101.441149 10.803045 
L 102.039061 10.08 
L 102.765898 10.091777 
L 103.952381 10.360283 
L 103.952381 10.360283 
" clip-path="url(#p39b0158af9)" style="fill: none; stroke: #000000; stroke-width: 0.5; stroke-linecap: square"/>
   </g>
  </g>
 </g>
 <defs>
  <clipPath id="p39b0158af9">
   <rect x="0" y="-0" width="186.370576" height="221.76"/>
  </clipPath>
 </defs>
</svg>
