<?xml version="1.0" encoding="utf-8" standalone="no"?>
<!DOCTYPE svg PUBLIC "-//W3C//DTD SVG 1.1//EN"
  "http://www.w3.org/Graphics/SVG/1.1/DTD/svg11.dtd">
<svg xmlns:xlink="http://www.w3.org/1999/xlink" width="223.2pt" height="100.946431pt" viewBox="0 0 223.2 100.946431" xmlns="http://www.w3.org/2000/svg" version="1.1">
 <metadata>
  <rdf:RDF xmlns:dc="http://purl.org/dc/elements/1.1/" xmlns:cc="http://creativecommons.org/ns#" xmlns:rdf="http://www.w3.org/1999/02/22-rdf-syntax-ns#">
   <cc:Work>
    <dc:type rdf:resource="http://purl.org/dc/dcmitype/StillImage"/>
    <dc:date>2026-04-26T19:22:20.248765</dc:date>
    <dc:format>image/svg+xml</dc:format>
    <dc:creator>
     <cc:Agent>
      <dc:title>Matplotlib v3.10.9, https://matplotlib.org/</dc:title>
     </cc:Agent>
    </dc:creator>
   </cc:Work>
  </rdf:RDF>
 </metadata>
 <defs>
  <style type="text/css">*{stroke-linejoin: round; stroke-linecap: butt}</style>
 </defs>
 <g id="figure_1">
  <g id="patch_1">
   <path d="M 0 100.946431 
L 223.2 100.946431 
L 223.2 0 
L 0 0 
z
" style="fill: #ffffff"/>
  </g>
  <g id="axes_1">
   <g id="patch_2">
    <path d="M 91.405606 67.372653 
L 82.616999 82.304136 
L 66.14117 96.357957 
L 49.898286 95.022495 
L 35.343889 94.331287 
L 10.145455 92.31209 
L 24.153369 76.977733 
L 42.62058 75.06731 
L 51.007114 58.465073 
L 60.009179 42.963368 
L 63.944095 22.268807 
L 84.634146 8.392638 
L 99.482754 13.648442 
L 123.791812 7.800513 
L 135.031674 11.745391 
L 168.503603 4.588474 
L 202.405082 11.027237 
L 213.054545 23.72246 
L 209.67755 30.397769 
L 197.887571 28.390002 
L 180.398194 22.456262 
L 167.46994 31.143853 
L 162.091114 41.244912 
L 154.223218 49.76107 
L 144.681303 53.388418 
L 136.604154 51.495882 
L 130.619532 47.605716 
L 124.049002 44.714419 
L 113.753778 45.345244 
L 114.297834 49.287941 
L 106.220686 59.539274 
L 96.302115 68.213838 
z
" clip-path="url(#p44afe262ee)" style="stroke: #000000; stroke-linejoin: miter"/>
   </g>
   <g id="line2d_1">
    <path d="M 91.405606 67.372653 
L 82.616999 82.304136 
L 66.14117 96.357957 
L 49.898286 95.022495 
L 35.343889 94.331287 
L 10.145455 92.31209 
L 24.153369 76.977733 
L 42.62058 75.06731 
L 51.007114 58.465073 
L 60.009179 42.963368 
L 63.944095 22.268807 
L 84.634146 8.392638 
L 99.482754 13.648442 
L 123.791812 7.800513 
L 135.031674 11.745391 
L 168.503603 4.588474 
L 202.405082 11.027237 
L 213.054545 23.72246 
L 209.67755 30.397769 
L 197.887571 28.390002 
L 180.398194 22.456262 
L 167.46994 31.143853 
L 162.091114 41.244912 
L 154.223218 49.76107 
L 144.681303 53.388418 
L 136.604154 51.495882 
L 130.619532 47.605716 
L 124.049002 44.714419 
L 113.753778 45.345244 
L 114.297834 49.287941 
L 106.220686 59.539274 
L 96.302115 68.213838 
L 91.405606 67.372653 
" clip-path="url(#p44afe262ee)" style="fill: none; stroke: #000000; stroke-width: 0.5; stroke-linecap: square"/>
   </g>
  </g>
 </g>
 <defs>
  <clipPath id="p44afe262ee">
   <rect x="0" y="0" width="223.2" height="100.946431"/>
  </clipPath>
 </defs>
</svg>
