<?xml version="1.0" encoding="utf-8" standalone="no"?>
<!DOCTYPE svg PUBLIC "-//W3C//DTD SVG 1.1//EN"
  "http://www.w3.org/Graphics/SVG/1.1/DTD/svg11.dtd">
<svg xmlns:xlink="http://www.w3.org/1999/xlink" width="130.961203pt" height="221.76pt" viewBox="0 0 130.961203 221.76" xmlns="http://www.w3.org/2000/svg" version="1.1">
 <metadata>
  <rdf:RDF xmlns:dc="http://purl.org/dc/elements/1.1/" xmlns:cc="http://creativecommons.org/ns#" xmlns:rdf="http://www.w3.org/1999/02/22-rdf-syntax-ns#">
   <cc:Work>
    <dc:type rdf:resource="http://purl.org/dc/dcmitype/StillImage"/>
    <dc:date>2026-04-26T19:22:22.518979</dc:date>
    <dc:format>image/svg+xml</dc:format>
    <dc:creator>
     <cc:Agent>
      <dc:title>Matplotlib v3.10.9, https://matplotlib.org/</dc:title>
     </cc:Agent>
    </dc:creator>
   </cc:Work>
  </rdf:RDF>
 </metadata>
 <defs>
  <style type="text/css">*{stroke-linejoin: round; stroke-linecap: butt}</style>
 </defs>
 <g id="figure_1">
  <g id="patch_1">
   <path d="M 0 221.76 
L 130.961203 221.76 
L 130.961203 0 
L 0 0 
z
" style="fill: #ffffff"/>
  </g>
  <g id="axes_1">
   <g id="patch_2">
    <path d="M 108.9817 152.228555 
L 112.721268 146.323099 
L 115.773976 143.220207 
L 118.521415 138.615885 
L 120.963581 128.606357 
L 123.634702 135.51295 
L 125.008421 142.419459 
L 124.550514 150.526989 
L 121.268852 160.436034 
L 113.789716 172.046408 
L 87.002197 202.772696 
L 76.470352 211.68 
L 70.899159 176.950718 
L 76.470352 106.584766 
L 70.059664 77.25467 
L 63.877929 70.34736 
L 42.508968 55.030849 
L 34.571926 52.127673 
L 26.176977 45.119944 
L 5.952782 10.08 
L 18.392569 12.382692 
L 64.564789 53.829536 
L 76.470352 68.845759 
L 82.194181 98.5767 
L 76.470352 203.27311 
L 86.162702 192.263896 
z
" clip-path="url(#p829cd0d83f)" style="stroke: #000000; stroke-linejoin: miter"/>
   </g>
   <g id="line2d_1">
    <path d="M 108.9817 152.228555 
L 112.721268 146.323099 
L 115.773976 143.220207 
L 118.521415 138.615885 
L 120.963581 128.606357 
L 123.634702 135.51295 
L 125.008421 142.419459 
L 124.550514 150.526989 
L 121.268852 160.436034 
L 113.789716 172.046408 
L 87.002197 202.772696 
L 76.470352 211.68 
L 70.899159 176.950718 
L 76.470352 106.584766 
L 70.059664 77.25467 
L 63.877929 70.34736 
L 42.508968 55.030849 
L 34.571926 52.127673 
L 26.176977 45.119944 
L 5.952782 10.08 
L 18.392569 12.382692 
L 64.564789 53.829536 
L 76.470352 68.845759 
L 82.194181 98.5767 
L 76.470352 203.27311 
L 86.162702 192.263896 
L 108.9817 152.228555 
" clip-path="url(#p829cd0d83f)" style="fill: none; stroke: #000000; stroke-width: 0.5; stroke-linecap: square"/>
   </g>
  </g>
 </g>
 <defs>
  <clipPath id="p829cd0d83f">
   <rect x="0" y="-0" width="130.961203" height="221.76"/>
  </clipPath>
 </defs>
</svg>
