<?xml version="1.0" encoding="utf-8" standalone="no"?>
<!DOCTYPE svg PUBLIC "-//W3C//DTD SVG 1.1//EN"
  "http://www.w3.org/Graphics/SVG/1.1/DTD/svg11.dtd">
<svg xmlns:xlink="http://www.w3.org/1999/xlink" width="178.567982pt" height="221.76pt" viewBox="0 0 178.567982 221.76" xmlns="http://www.w3.org/2000/svg" version="1.1">
 <metadata>
  <rdf:RDF xmlns:dc="http://purl.org/dc/elements/1.1/" xmlns:cc="http://creativecommons.org/ns#" xmlns:rdf="http://www.w3.org/1999/02/22-rdf-syntax-ns#">
   <cc:Work>
    <dc:type rdf:resource="http://purl.org/dc/dcmitype/StillImage"/>
    <dc:date>2026-04-26T19:22:05.691904</dc:date>
    <dc:format>image/svg+xml</dc:format>
    <dc:creator>
     <cc:Agent>
      <dc:title>Matplotlib v3.10.9, https://matplotlib.org/</dc:title>
     </cc:Agent>
    </dc:creator>
   </cc:Work>
  </rdf:RDF>
 </metadata>
 <defs>
  <style type="text/css">*{stroke-linejoin: round; stroke-linecap: butt}</style>
 </defs>
 <g id="figure_1">
  <g id="patch_1">
   <path d="M 0 221.76 
L 178.567982 221.76 
L 178.567982 0 
L 0 0 
z
" style="fill: #ffffff"/>
  </g>
  <g id="axes_1">
   <g id="patch_2">
    <path d="M 152.592185 42.635855 
L 149.241606 47.045814 
L 148.770668 50.023181 
L 148.649135 53.260829 
L 147.692066 56.218316 
L 145.352564 58.114945 
L 142.769996 58.195015 
L 140.065896 57.594496 
L 137.376987 57.404332 
L 134.080415 58.595362 
L 131.42189 60.79229 
L 126.682119 66.747694 
L 124.190701 68.81463 
L 118.797692 71.792474 
L 117.534497 73.330074 
L 117.354492 73.549183 
L 117.263343 76.74735 
L 118.357136 80.340997 
L 121.197961 87.488526 
L 122.048689 91.492904 
L 122.550011 95.787726 
L 123.264015 118.430288 
L 124.145126 125.519649 
L 126.773268 130.922012 
L 129.659667 132.303927 
L 131.832063 131.833273 
L 132.925856 132.77959 
L 132.591641 138.327427 
L 131.239591 145.668116 
L 130.145798 148.912955 
L 128.565874 152.212948 
L 125.026626 156.712951 
L 124.099551 157.89171 
L 123.233632 159.679512 
L 123.324781 163.65582 
L 127.912637 161.196907 
L 128.413958 164.577296 
L 127.350548 168.138053 
L 123.99321 174.743952 
L 122.960183 178.5153 
L 122.139838 186.519073 
L 121.015662 189.359059 
L 107.495161 206.36998 
L 100.567803 211.68 
L 94.521557 210.758248 
L 93.792361 209.225346 
L 92.698568 204.416337 
L 91.984564 202.427653 
L 90.814812 200.949931 
L 87.70054 198.059648 
L 78.464063 186.809581 
L 76.367625 183.093128 
L 74.924426 179.301635 
L 71.87092 167.046279 
L 70.017548 164.487151 
L 67.298256 164.276814 
L 61.282392 165.699101 
L 54.856356 164.026412 
L 49.843137 163.560667 
L 49.159516 161.787843 
L 48.90126 158.888269 
L 49.372198 157.751491 
L 51.423061 155.392828 
L 51.909191 153.529961 
L 50.906547 144.876946 
L 48.90126 140.896126 
L 48.90126 135.493398 
L 47.761891 130.065832 
L 46.895972 127.93792 
L 45.346431 125.684871 
L 44.860301 124.418172 
L 44.723577 122.891138 
L 44.389362 121.59943 
L 43.325952 121.058718 
L 41.062407 120.978613 
L 40.150913 120.392845 
L 39.026736 116.422701 
L 37.294897 114.935802 
L 33.679302 113.113496 
L 28.878765 108.187377 
L 25.779684 106.059786 
L 17.728149 104.432827 
L 8.116726 98.405688 
L 45.294216 100.045389 
L 56.311098 97.294171 
L 66.466725 89.76604 
L 80.976473 82.884657 
L 86.096153 80.456942 
L 89.182315 76.460763 
L 91.443109 70.856848 
L 96.754179 63.763614 
L 114.517555 45.157457 
L 120.031976 40.760444 
L 144.75716 21.046604 
L 163.776533 10.678727 
L 167.460788 10.08 
L 170.235942 11.498043 
L 170.451256 14.019047 
L 168.310081 16.004372 
L 163.716723 18.706669 
L 162.496613 21.314478 
L 160.056391 29.012153 
L 159.625764 31.328634 
L 158.632929 33.983971 
L 154.063495 39.554837 
z
" clip-path="url(#p36dbcb7b23)" style="stroke: #000000; stroke-linejoin: miter"/>
   </g>
   <g id="line2d_1">
    <path d="M 152.592185 42.635855 
L 149.241606 47.045814 
L 148.770668 50.023181 
L 148.649135 53.260829 
L 147.692066 56.218316 
L 145.352564 58.114945 
L 142.769996 58.195015 
L 140.065896 57.594496 
L 137.376987 57.404332 
L 134.080415 58.595362 
L 131.42189 60.79229 
L 126.682119 66.747694 
L 124.190701 68.81463 
L 118.797692 71.792474 
L 117.534497 73.330074 
L 117.354492 73.549183 
L 117.263343 76.74735 
L 118.357136 80.340997 
L 121.197961 87.488526 
L 122.048689 91.492904 
L 122.550011 95.787726 
L 123.264015 118.430288 
L 124.145126 125.519649 
L 126.773268 130.922012 
L 129.659667 132.303927 
L 131.832063 131.833273 
L 132.925856 132.77959 
L 132.591641 138.327427 
L 131.239591 145.668116 
L 130.145798 148.912955 
L 128.565874 152.212948 
L 125.026626 156.712951 
L 124.099551 157.89171 
L 123.233632 159.679512 
L 123.324781 163.65582 
L 127.912637 161.196907 
L 128.413958 164.577296 
L 127.350548 168.138053 
L 123.99321 174.743952 
L 122.960183 178.5153 
L 122.139838 186.519073 
L 121.015662 189.359059 
L 107.495161 206.36998 
L 100.567803 211.68 
L 94.521557 210.758248 
L 93.792361 209.225346 
L 92.698568 204.416337 
L 91.984564 202.427653 
L 90.814812 200.949931 
L 87.70054 198.059648 
L 78.464063 186.809581 
L 76.367625 183.093128 
L 74.924426 179.301635 
L 71.87092 167.046279 
L 70.017548 164.487151 
L 67.298256 164.276814 
L 61.282392 165.699101 
L 54.856356 164.026412 
L 49.843137 163.560667 
L 49.159516 161.787843 
L 48.90126 158.888269 
L 49.372198 157.751491 
L 51.423061 155.392828 
L 51.909191 153.529961 
L 50.906547 144.876946 
L 48.90126 140.896126 
L 48.90126 135.493398 
L 47.761891 130.065832 
L 46.895972 127.93792 
L 45.346431 125.684871 
L 44.860301 124.418172 
L 44.723577 122.891138 
L 44.389362 121.59943 
L 43.325952 121.058718 
L 41.062407 120.978613 
L 40.150913 120.392845 
L 39.026736 116.422701 
L 37.294897 114.935802 
L 33.679302 113.113496 
L 28.878765 108.187377 
L 25.779684 106.059786 
L 17.728149 104.432827 
L 8.116726 98.405688 
L 45.294216 100.045389 
L 56.311098 97.294171 
L 66.466725 89.76604 
L 80.976473 82.884657 
L 86.096153 80.456942 
L 89.182315 76.460763 
L 91.443109 70.856848 
L 96.754179 63.763614 
L 114.517555 45.157457 
L 120.031976 40.760444 
L 144.75716 21.046604 
L 163.776533 10.678727 
L 167.460788 10.08 
L 170.235942 11.498043 
L 170.451256 14.019047 
L 168.310081 16.004372 
L 163.716723 18.706669 
L 162.496613 21.314478 
L 160.056391 29.012153 
L 159.625764 31.328634 
L 158.632929 33.983971 
L 154.063495 39.554837 
L 152.592185 42.635855 
" clip-path="url(#p36dbcb7b23)" style="fill: none; stroke: #000000; stroke-width: 0.5; stroke-linecap: square"/>
   </g>
  </g>
 </g>
 <defs>
  <clipPath id="p36dbcb7b23">
   <rect x="0" y="-0" width="178.567982" height="221.76"/>
  </clipPath>
 </defs>
</svg>
