<?xml version="1.0" encoding="utf-8" standalone="no"?>
<!DOCTYPE svg PUBLIC "-//W3C//DTD SVG 1.1//EN"
  "http://www.w3.org/Graphics/SVG/1.1/DTD/svg11.dtd">
<svg xmlns:xlink="http://www.w3.org/1999/xlink" width="223.2pt" height="207.362326pt" viewBox="0 0 223.2 207.362326" xmlns="http://www.w3.org/2000/svg" version="1.1">
 <metadata>
  <rdf:RDF xmlns:dc="http://purl.org/dc/elements/1.1/" xmlns:cc="http://creativecommons.org/ns#" xmlns:rdf="http://www.w3.org/1999/02/22-rdf-syntax-ns#">
   <cc:Work>
    <dc:type rdf:resource="http://purl.org/dc/dcmitype/StillImage"/>
    <dc:date>2026-04-26T19:22:10.211987</dc:date>
    <dc:format>image/svg+xml</dc:format>
    <dc:creator>
     <cc:Agent>
      <dc:title>Matplotlib v3.10.9, https://matplotlib.org/</dc:title>
     </cc:Agent>
    </dc:creator>
   </cc:Work>
  </rdf:RDF>
 </metadata>
 <defs>
  <style type="text/css">*{stroke-linejoin: round; stroke-linecap: butt}</style>
 </defs>
 <g id="figure_1">
  <g id="patch_1">
   <path d="M 0 207.362326 
L 223.2 207.362326 
L 223.2 0 
L 0 0 
z
" style="fill: #ffffff"/>
  </g>
  <g id="axes_1">
   <g id="patch_2">
    <path d="M 213.054545 114.445169 
L 212.129587 117.655333 
L 211.769145 118.518542 
L 210.783229 119.924217 
L 210.507597 120.864883 
L 210.491695 121.445122 
L 210.512898 121.809077 
L 210.420137 122.124973 
L 210.064995 122.5645 
L 208.692135 123.544922 
L 206.818365 125.499201 
L 203.444962 129.892212 
L 203.325256 130.048136 
L 202.622924 130.476856 
L 201.716517 130.386643 
L 200.632541 129.850535 
L 199.967313 129.451051 
L 199.654576 129.392634 
L 199.408097 129.602252 
L 198.962845 129.430433 
L 198.472538 129.559297 
L 197.46542 130.077346 
L 196.980413 130.122022 
L 195.84608 130.018925 
L 195.445883 130.180444 
L 194.955576 130.482011 
L 193.770887 130.802491 
L 193.333586 131.099781 
L 192.832677 131.318888 
L 192.294664 130.042981 
L 191.849412 130.077346 
L 191.894467 129.857408 
L 191.952774 129.390056 
L 192.00578 129.170134 
L 189.593998 128.921868 
L 189.09839 128.791295 
L 188.679641 128.48978 
L 188.531223 128.967397 
L 188.268842 129.151234 
L 188.258651 129.155493 
L 187.948155 129.285249 
L 187.614216 129.602252 
L 187.402191 129.998306 
L 187.370387 130.277529 
L 187.614216 130.986363 
L 187.192816 131.318888 
L 186.612398 131.64455 
L 186.100888 132.069904 
L 185.878262 132.699806 
L 186.02668 133.269589 
L 186.275809 133.725095 
L 186.326165 134.152258 
L 185.878262 134.639609 
L 185.700692 134.365418 
L 185.51782 134.27259 
L 185.337599 134.365418 
L 185.162679 134.639609 
L 185.00101 134.281185 
L 184.701525 133.845421 
L 184.415291 133.662354 
L 184.288076 134.062011 
L 184.343733 134.32588 
L 184.595512 134.644766 
L 184.653819 134.971399 
L 184.614064 135.230135 
L 184.288076 136.002084 
L 183.437327 135.483719 
L 183.021228 135.331568 
L 182.536221 135.300622 
L 182.313595 135.365952 
L 182.181079 135.469965 
L 182.045914 135.554208 
L 181.820637 135.54991 
L 181.855091 135.379706 
L 181.661619 135.000625 
L 181.41514 134.749631 
L 181.147458 135.271395 
L 180.882427 135.59547 
L 180.755212 136.0124 
L 181.234919 137.021699 
L 181.33563 138.15578 
L 181.468146 138.729318 
L 181.203115 138.610652 
L 180.691605 138.298516 
L 180.418623 138.295077 
L 180.30466 138.465332 
L 180.129739 139.071565 
L 179.981322 139.205716 
L 179.135873 139.449943 
L 179.003357 139.5239 
L 179.02986 140.026136 
L 179.125271 139.980555 
L 179.28694 139.793935 
L 179.528119 139.865315 
L 179.557272 140.001196 
L 179.512217 140.41487 
L 179.528119 140.56796 
L 179.602327 140.633325 
L 179.846156 140.776097 
L 179.893861 140.774377 
L 179.946868 141.170021 
L 179.952168 141.546758 
L 179.994573 141.908886 
L 180.156242 142.262425 
L 180.447776 142.646945 
L 180.418623 143.181169 
L 180.333813 143.33172 
L 180.145641 143.107184 
L 179.96277 142.775982 
L 179.893861 142.612536 
L 179.634131 142.497264 
L 178.844339 142.386296 
L 178.743627 142.421565 
L 178.465344 142.602213 
L 178.303675 142.612536 
L 178.25862 142.535975 
L 178.123454 142.210813 
L 178.049245 142.138556 
L 177.911429 142.0663 
L 177.781564 141.910606 
L 177.609294 141.754055 
L 177.047428 141.639654 
L 176.928164 141.585465 
L 176.814201 141.643955 
L 176.644581 141.939852 
L 176.493513 142.341565 
L 176.276188 142.763939 
L 176.186077 142.841361 
L 176.156924 143.177728 
L 176.170175 143.551099 
L 176.260286 143.853935 
L 176.46436 143.977825 
L 176.612777 144.156781 
L 176.63663 144.547396 
L 176.573023 144.936306 
L 176.46436 145.114418 
L 176.005856 145.109255 
L 175.661316 145.049023 
L 174.879474 144.494912 
L 171.548034 144.574069 
L 169.080595 144.635158 
L 167.471857 145.033535 
L 164.267631 146.476604 
L 164.577718 145.062791 
L 164.164269 144.929422 
L 164.25438 144.796916 
L 164.291484 144.66097 
L 164.310036 144.522444 
L 164.34449 144.374457 
L 164.331239 144.26949 
L 164.296785 144.193777 
L 164.241128 144.146456 
L 161.373266 143.39386 
L 159.13663 142.806951 
L 153.290708 141.276676 
L 150.144127 140.452712 
L 148.812106 140.103098 
L 147.503093 139.759535 
L 144.026548 138.829067 
L 143.95499 139.366527 
L 144.055701 139.678696 
L 144.113346 139.978835 
L 143.912585 140.473354 
L 143.587259 140.878447 
L 142.301859 142.081783 
L 141.840704 141.376451 
L 141.354373 140.875007 
L 140.858764 140.875007 
L 140.367132 141.674921 
L 140.247868 142.159201 
L 140.190886 142.914484 
L 140.051745 143.267198 
L 139.748284 143.58293 
L 139.07378 143.993312 
L 138.832602 144.374457 
L 138.832602 144.379619 
L 138.768995 144.463937 
L 138.692136 144.537932 
L 138.608651 144.594718 
L 138.51854 144.631716 
L 137.519373 144.587835 
L 136.986661 144.66097 
L 136.618268 144.838216 
L 136.381065 145.393208 
L 136.194218 146.210692 
L 135.934488 146.962836 
L 135.48526 147.318273 
L 134.254191 145.798499 
L 134.33105 145.566165 
L 134.523197 145.301998 
L 134.633185 145.035256 
L 134.480792 144.802079 
L 134.242264 144.774545 
L 134.063369 144.858867 
L 133.949405 144.827891 
L 133.914951 144.451892 
L 133.734982 144.447699 
L 130.812763 144.379619 
L 130.812763 144.371015 
L 130.680247 144.13269 
L 130.535805 144.058699 
L 130.384738 144.139573 
L 130.237645 144.371015 
L 129.689031 144.488889 
L 129.115239 145.297695 
L 128.668662 145.377719 
L 128.839607 144.922539 
L 128.571925 144.936306 
L 128.440735 144.829612 
L 128.261839 144.379619 
L 128.067041 144.205822 
L 127.851041 144.149898 
L 124.315527 143.79027 
L 123.588017 143.934808 
L 123.361415 144.441567 
L 120.271153 144.40371 
L 117.008621 144.362411 
L 116.365921 144.210984 
L 115.514491 143.785366 
L 115.257263 143.656785 
L 114.937403 143.496899 
L 111.697399 143.367853 
L 111.250822 143.546797 
L 111.066625 144.13097 
L 110.76714 144.348645 
L 106.782398 144.398547 
L 101.171691 144.4691 
L 95.401965 144.543094 
L 89.198914 144.621391 
L 84.193803 144.686782 
L 81.787257 144.717475 
L 81.225455 144.724641 
L 81.214854 144.371015 
L 79.003832 144.319392 
L 79.039611 144.51212 
L 78.968716 144.748732 
L 79.122434 145.384603 
L 79.403366 145.974905 
L 79.557084 146.612574 
L 79.412643 147.375076 
L 79.06744 147.863072 
L 78.658629 148.26502 
L 78.314089 148.773717 
L 78.124592 149.467514 
L 77.841671 151.012803 
L 77.410333 151.915118 
L 77.317572 152.676292 
L 77.177106 152.992316 
L 76.902799 153.341074 
L 76.824614 153.540861 
L 76.885237 153.878121 
L 76.912075 154.027428 
L 76.962431 154.027428 
L 77.073081 154.054126 
L 77.19102 154.126467 
L 77.265229 154.274596 
L 77.265891 154.489904 
L 77.208909 154.637177 
L 77.136688 154.764643 
L 76.98032 155.311559 
L 76.636442 156.107437 
L 76.563559 156.437348 
L 76.672222 157.073943 
L 77.440812 158.828008 
L 77.503094 159.156282 
L 77.545499 159.868007 
L 77.614407 160.193728 
L 77.733008 160.389338 
L 78.079536 160.833135 
L 78.15507 160.989977 
L 78.233254 161.641498 
L 78.434015 162.06294 
L 79.334458 163.083432 
L 79.649845 163.2903 
L 80.067269 163.380807 
L 80.694068 163.401494 
L 80.793454 163.544582 
L 80.682141 163.857485 
L 80.447589 164.17126 
L 80.166656 164.313496 
L 79.834704 164.347978 
L 79.586238 164.461769 
L 79.38879 164.666078 
L 79.205918 164.976428 
L 79.030998 165.464385 
L 78.902458 166.144632 
L 78.902458 166.844753 
L 79.110507 167.388844 
L 79.334458 167.514739 
L 79.596839 167.55268 
L 79.81549 167.621665 
L 79.907588 167.845005 
L 79.96987 168.225297 
L 80.136177 168.304634 
L 80.360129 168.296011 
L 80.606607 168.415017 
L 80.862362 168.619401 
L 81.029332 168.719439 
L 81.116792 168.897094 
L 81.131369 169.32572 
L 81.046559 169.769888 
L 80.855737 170.063997 
L 80.336276 170.589274 
L 80.001011 171.27588 
L 79.989085 171.940964 
L 80.256766 173.448981 
L 80.256766 176.310295 
L 80.382656 176.986902 
L 80.964399 178.114097 
L 81.131369 178.714853 
L 81.10089 179.57116 
L 80.862362 181.087984 
L 80.973675 181.930656 
L 81.583247 183.1991 
L 81.65613 183.52638 
L 81.493136 183.866623 
L 80.606607 185.145647 
L 80.177257 186.262428 
L 80.081846 186.962091 
L 80.256766 187.655749 
L 80.466141 187.95724 
L 80.606607 187.98834 
L 80.749724 187.967607 
L 80.973675 188.11274 
L 81.103541 188.383142 
L 81.135344 188.688972 
L 81.217504 188.995674 
L 81.412689 189.191405 
L 81.495787 189.274736 
L 81.168473 189.640206 
L 80.948497 190.130109 
L 80.821283 190.677062 
L 80.781528 191.2154 
L 80.826583 191.759812 
L 80.959099 192.103755 
L 81.877431 193.186637 
L 82.80239 194.696616 
L 82.000671 195.683782 
L 81.373872 197.393797 
L 80.892841 197.936766 
L 80.279294 197.875378 
L 79.694238 197.293507 
L 77.136688 192.890196 
L 75.861227 189.683407 
L 75.401398 188.126563 
L 75.089324 187.349083 
L 74.687139 186.823019 
L 74.200807 186.674447 
L 73.318254 187.010464 
L 72.855775 186.981958 
L 72.407872 186.499099 
L 72.156093 185.720866 
L 71.834742 184.111017 
L 71.321245 183.300996 
L 70.726913 183.128292 
L 70.151133 183.112748 
L 69.703893 182.771664 
L 69.591255 182.103343 
L 69.646911 181.31505 
L 69.638298 180.670988 
L 69.325561 180.424078 
L 68.928677 180.788401 
L 68.061363 182.38051 
L 67.707547 182.835563 
L 67.095325 182.913278 
L 66.83692 182.478945 
L 66.791864 181.795962 
L 66.813067 181.129425 
L 66.699103 180.901499 
L 66.434072 181.036182 
L 66.133262 181.277062 
L 65.900035 181.380667 
L 65.62639 181.196768 
L 65.1765 180.662354 
L 64.853162 180.503503 
L 60.81939 180.072716 
L 59.286185 180.338611 
L 58.848221 180.219475 
L 58.574577 179.969123 
L 58.406945 179.697194 
L 58.211484 179.456349 
L 57.865619 179.311326 
L 57.778821 179.389016 
L 57.540956 179.767981 
L 57.404465 179.869846 
L 57.242796 179.82841 
L 56.908194 179.583245 
L 56.716709 179.548715 
L 55.471063 179.747263 
L 55.09737 179.899198 
L 54.837639 180.12106 
L 54.426841 180.689981 
L 54.208853 180.899772 
L 53.715895 181.08971 
L 52.017709 181.131152 
L 51.968513 181.14992 
L 51.494935 181.330591 
L 50.52956 182.137017 
L 49.97962 182.316614 
L 49.598638 182.578244 
L 49.490638 183.124837 
L 49.327644 183.593737 
L 48.505385 183.609281 
L 48.292698 183.699091 
L 47.899126 183.943481 
L 47.872623 184.035021 
L 47.863347 184.209467 
L 47.812991 184.367507 
L 47.653973 184.412415 
L 47.50423 184.351962 
L 47.236549 184.161105 
L 45.777553 183.605827 
L 45.336276 183.676638 
L 44.873797 184.126562 
L 44.138336 185.459164 
L 43.665256 185.796874 
L 42.699217 185.957527 
L 42.257278 186.162233 
L 41.916051 186.560427 
L 42.030014 186.589796 
L 42.329499 186.719364 
L 41.552958 187.769779 
L 41.411829 188.074729 
L 41.407854 188.36932 
L 41.48405 189.158963 
L 41.41978 189.579726 
L 41.087829 190.418704 
L 40.920029 190.67429 
L 40.918209 190.677062 
L 40.222502 190.304647 
L 39.828931 190.166399 
L 39.752072 190.694344 
L 39.757373 191.243052 
L 39.671238 191.544637 
L 39.320072 191.328601 
L 39.147801 190.964806 
L 38.927826 189.866578 
L 38.698574 189.378414 
L 38.076413 189.186611 
L 37.157418 189.243633 
L 36.323896 189.134772 
L 35.959478 188.443616 
L 36.017785 187.831114 
L 36.269564 186.965546 
L 36.326546 186.390264 
L 36.266251 186.22615 
L 36.112533 186.124228 
L 35.911772 186.072404 
L 35.44598 186.072404 
L 35.365146 186.13632 
L 35.344606 186.267611 
L 35.263772 186.493917 
L 35.137882 186.953453 
L 35.125955 187.403505 
L 35.029219 187.749047 
L 34.65685 187.884674 
L 34.359353 187.747319 
L 33.990297 187.034651 
L 33.700088 186.722819 
L 33.3688 187.167679 
L 33.066664 187.373271 
L 32.74929 187.42942 
L 32.372283 187.427693 
L 32.400111 187.51235 
L 32.309338 187.711037 
L 32.141043 187.936507 
L 31.933657 188.11274 
L 31.724282 188.23023 
L 31.70573 188.204313 
L 31.712356 188.074729 
L 31.58249 187.884674 
L 31.236625 187.70067 
L 31.098809 187.560725 
L 31.043152 187.304164 
L 31.006048 186.951725 
L 30.910637 186.733184 
L 30.613802 186.390264 
L 30.46936 186.151868 
L 30.38455 185.971346 
L 30.25601 185.853879 
L 29.991642 185.808966 
L 29.736549 185.848697 
L 29.645776 185.960982 
L 29.688844 186.115591 
L 29.834611 186.286613 
L 29.445015 186.381627 
L 29.105775 185.679408 
L 28.765873 185.808966 
L 28.692327 185.540352 
L 28.643296 185.40907 
L 28.415369 185.145647 
L 28.415369 184.896913 
L 28.664499 184.919368 
L 28.882487 184.877913 
L 29.292622 184.688775 
L 29.048794 184.126562 
L 28.922904 183.368352 
L 28.714192 182.866649 
L 28.224547 183.069573 
L 28.052277 182.383964 
L 27.688522 181.96692 
L 27.179 181.757972 
L 26.578704 181.700987 
L 26.365354 181.631051 
L 26.277232 181.473913 
L 26.16128 181.316777 
L 25.869746 181.245117 
L 25.672298 181.397935 
L 25.537132 181.69926 
L 25.392028 181.916841 
L 25.170064 181.814958 
L 24.416051 180.911859 
L 24.384247 180.532856 
L 24.75264 179.162852 
L 24.704935 178.951367 
L 24.425327 178.169337 
L 24.137768 177.685128 
L 24.023143 177.346798 
L 24.566456 177.321769 
L 24.663855 176.870392 
L 24.486284 176.258516 
L 24.199388 175.750227 
L 23.888639 175.492208 
L 23.551387 175.285107 
L 23.276418 174.964971 
L 23.146552 174.361829 
L 22.89146 174.641393 
L 22.591312 174.807927 
L 22.306404 174.754429 
L 22.097692 174.361829 
L 22.44687 174.153886 
L 22.279901 174.086586 
L 22.132146 173.996853 
L 21.963851 173.929554 
L 21.748514 173.926103 
L 21.981078 173.649145 
L 22.582036 173.380823 
L 22.534331 173.118546 
L 21.88633 172.568992 
L 21.732612 172.22823 
L 21.906207 171.626101 
L 21.219777 171.663194 
L 21.234353 171.300033 
L 21.453667 170.69623 
L 21.381446 170.010522 
L 21.306574 170.231324 
L 21.189298 170.447817 
L 21.036905 170.616875 
L 20.856022 170.694505 
L 20.543947 170.658277 
L 20.514794 170.50992 
L 20.612193 170.315851 
L 20.679113 170.134722 
L 20.679113 168.301185 
L 20.489616 167.804476 
L 20.471908 167.789449 
L 20.066892 167.445755 
L 19.646817 167.400916 
L 19.455995 167.845005 
L 19.226743 167.877773 
L 17.966521 166.923218 
L 17.557048 167.06549 
L 16.371034 166.840442 
L 15.939033 166.819748 
L 15.746886 166.974091 
L 15.61702 167.205178 
L 15.455351 167.412988 
L 15.158517 167.502667 
L 14.865657 167.514739 
L 14.730492 167.485421 
L 14.617853 167.388844 
L 14.485338 167.312963 
L 14.389927 167.442306 
L 14.29319 167.630288 
L 14.172601 167.732041 
L 13.654466 167.706171 
L 13.22379 167.569926 
L 12.872624 167.337107 
L 12.596992 167.025826 
L 12.517482 166.823197 
L 12.430022 166.524864 
L 12.318709 166.253268 
L 12.166316 166.13601 
L 11.929113 166.122215 
L 11.751543 166.081692 
L 11.387125 165.909256 
L 11.357972 165.329031 
L 11.045235 164.48763 
L 10.593357 163.732495 
L 10.145455 163.401494 
L 10.285921 162.91794 
L 10.49397 161.21835 
L 10.592032 160.943441 
L 11.194977 159.737894 
L 11.542168 157.987123 
L 11.466634 157.669224 
L 11.274487 157.440067 
L 11.30364 156.92922 
L 11.481211 156.394279 
L 11.735641 156.095378 
L 11.34207 155.901571 
L 11.310266 155.620773 
L 11.183051 155.07384 
L 11.1698 154.773255 
L 11.414953 152.985427 
L 11.546144 152.492021 
L 11.719739 152.246618 
L 11.930439 152.115738 
L 12.097408 151.958169 
L 12.134513 151.629261 
L 12.126562 151.348579 
L 12.483028 149.426195 
L 12.388942 149.019037 
L 12.082831 148.316663 
L 11.607101 145.988674 
L 11.25991 145.067953 
L 10.678167 145.245207 
L 10.837186 144.379619 
L 10.580765 142.65549 
L 10.536375 142.357048 
L 10.615885 141.833191 
L 10.986928 141.519233 
L 13.541827 141.100352 
L 13.980454 140.931773 
L 14.409804 140.69439 
L 15.019375 140.205881 
L 15.280431 139.740615 
L 15.438124 138.383644 
L 15.680628 137.615807 
L 16.487647 136.573777 
L 16.805685 135.879152 
L 16.854715 135.341883 
L 16.677145 131.873122 
L 16.789783 131.269051 
L 17.182029 130.836859 
L 17.739919 130.49404 
L 17.947968 130.2045 
L 17.925441 129.774074 
L 17.786299 129.013786 
L 17.784974 126.262646 
L 17.547772 125.09217 
L 16.636065 124.157952 
L 16.347181 124.103001 
L 16.0848 124.145932 
L 15.854223 124.080678 
L 15.6581 123.70805 
L 15.6528 123.330285 
L 15.794591 122.969706 
L 15.986739 122.622876 
L 16.12853 122.28636 
L 16.348506 120.988481 
L 16.402837 120.258932 
L 16.37766 119.675333 
L 16.182862 119.014538 
L 15.879401 118.558015 
L 15.473904 118.231941 
L 14.97432 117.955645 
L 14.707964 117.85268 
L 14.486663 117.832087 
L 14.041411 117.947065 
L 13.942024 117.808062 
L 13.278121 117.31213 
L 13.135005 117.241776 
L 12.975986 116.867702 
L 12.972011 116.702977 
L 13.13633 116.63949 
L 13.486171 116.576004 
L 13.598809 116.627479 
L 13.914196 116.912316 
L 14.061288 116.980952 
L 14.197779 116.927759 
L 14.389927 116.666944 
L 14.473411 116.596594 
L 15.365241 116.407853 
L 15.472579 116.344368 
L 15.569315 116.225978 
L 15.685928 116.121316 
L 15.848923 116.111022 
L 16.021193 116.215684 
L 16.160334 116.351231 
L 16.302126 116.440453 
L 16.490298 116.407853 
L 16.667868 116.220831 
L 17.180704 115.311512 
L 18.17457 114.280487 
L 18.8557 113.304464 
L 19.242645 112.880809 
L 20.0331 112.56694 
L 20.880537 111.915224 
L 21.255556 111.699139 
L 21.654428 111.657981 
L 22.666184 111.699139 
L 23.134626 111.632257 
L 23.425498 111.652836 
L 23.693841 111.56709 
L 23.942971 111.390455 
L 24.175535 111.134941 
L 24.732101 110.841708 
L 25.288003 110.90687 
L 25.836617 111.073207 
L 26.368005 111.080066 
L 27.463245 110.577636 
L 28.001921 110.589639 
L 28.500179 111.134941 
L 28.943444 110.951455 
L 29.667641 110.79198 
L 30.036697 110.510762 
L 30.239446 110.174683 
L 30.411296 109.774771 
L 30.594587 109.348256 
L 30.864256 109.053366 
L 31.135913 108.971073 
L 31.656699 109.051652 
L 31.91643 109.029364 
L 32.425952 108.717341 
L 32.45107 108.634684 
L 32.555154 108.292184 
L 32.606835 107.759051 
L 32.877167 107.111106 
L 33.7955 106.447781 
L 34.56674 106.403218 
L 34.817194 106.051866 
L 34.174494 104.468379 
L 36.433884 102.098809 
L 36.53327 101.96176 
L 36.566399 101.763042 
L 36.521344 101.389602 
L 36.611454 100.87058 
L 36.606154 100.603373 
L 36.671086 100.375568 
L 36.952682 100.156332 
L 37.329689 100.127215 
L 37.581468 100.38927 
L 37.782892 100.748966 
L 38.013469 101.004187 
L 38.77477 100.814055 
L 38.53823 99.394188 
L 37.607971 96.577391 
L 37.812045 95.777893 
L 38.249346 95.108561 
L 38.737003 94.502611 
L 39.100096 93.889857 
L 39.268391 93.434599 
L 39.259115 93.309663 
L 39.120636 93.194998 
L 38.896022 92.765445 
L 38.355359 91.215124 
L 37.929984 90.683013 
L 36.815528 89.591517 
L 36.590252 89.044111 
L 36.745958 87.326846 
L 36.836731 87.236203 
L 37.010326 87.290931 
L 37.281418 87.241678 
L 38.028045 86.871931 
L 38.88012 86.602585 
L 39.73087 86.52221 
L 40.484883 86.727424 
L 41.216369 87.28238 
L 41.567535 87.410649 
L 42.104223 87.326846 
L 42.582604 87.119908 
L 42.894694 86.854949 
L 42.933107 86.822337 
L 43.185549 86.411055 
L 43.72025 84.266039 
L 43.756029 83.868556 
L 43.428715 82.369401 
L 43.514188 80.492837 
L 43.308789 79.576923 
L 42.833721 78.816586 
L 42.088321 78.013607 
L 41.759682 77.44388 
L 41.075902 75.547062 
L 40.333153 74.68121 
L 40.186723 74.383221 
L 40.186723 73.978519 
L 40.319239 73.687385 
L 40.480908 73.417604 
L 40.80292 72.318935 
L 41.234921 72.087609 
L 42.876788 72.189187 
L 43.168322 72.085902 
L 43.348543 71.793981 
L 43.290899 71.506337 
L 42.747586 71.123112 
L 42.570677 70.813302 
L 42.688616 70.319166 
L 43.066285 69.734605 
L 43.530752 69.204695 
L 43.919685 68.86936 
L 44.167489 68.813045 
L 44.408005 68.874479 
L 44.653821 68.889838 
L 44.932104 68.698711 
L 45.417111 67.990555 
L 45.81532 67.190327 
L 46.249308 65.846836 
L 46.515664 65.247241 
L 46.944352 64.742354 
L 47.155714 64.605903 
L 47.842145 64.379058 
L 48.074047 64.199123 
L 48.466293 63.635463 
L 48.778367 63.49562 
L 49.052012 63.37198 
L 49.440282 63.054789 
L 49.781509 62.67537 
L 49.917338 62.367585 
L 49.715914 62.188546 
L 49.388601 62.160411 
L 49.241509 62.018889 
L 49.587374 61.50653 
L 49.670196 61.410199 
L 49.760307 61.378658 
L 49.85373 61.411052 
L 49.950467 61.50312 
L 50.07493 61.73199 
L 50.100209 61.778477 
L 50.233387 62.434086 
L 50.31621 62.641266 
L 50.536185 62.755515 
L 51.153708 62.902167 
L 51.292849 62.990841 
L 51.276947 63.345547 
L 51.098714 63.477713 
L 50.858198 63.524611 
L 50.6581 63.621819 
L 50.137976 64.241761 
L 49.917338 64.401231 
L 49.598638 64.79267 
L 49.917338 65.113341 
L 50.512333 65.308649 
L 51.014566 65.327412 
L 51.526076 65.271122 
L 51.9435 65.371762 
L 52.828704 65.814424 
L 53.879552 66.171812 
L 54.353295 66.420885 
L 56.256218 68.346331 
L 57.428318 69.240534 
L 59.526701 71.299786 
L 59.708247 71.36636 
L 60.046824 71.3032 
L 60.217107 71.386844 
L 60.628567 71.932258 
L 60.855832 72.122606 
L 61.024126 72.158457 
L 61.597918 72.142239 
L 62.679807 72.350319 
L 62.995957 72.411125 
L 63.306706 72.310398 
L 63.563124 71.780324 
L 63.534633 71.186271 
L 63.235148 70.040961 
L 63.330559 69.107421 
L 63.895075 68.828404 
L 68.103768 68.508441 
L 68.456922 68.215793 
L 67.551178 59.984136 
L 67.930173 58.76711 
L 68.065338 57.989947 
L 68.172676 56.154708 
L 68.004381 55.362466 
L 67.474319 54.853939 
L 67.984504 54.218538 
L 68.667622 54.517494 
L 69.81123 55.607797 
L 70.526152 55.699798 
L 71.088018 55.549871 
L 71.624705 55.529426 
L 72.267406 56.009032 
L 72.724584 56.553415 
L 72.850474 56.864386 
L 72.922032 57.34748 
L 73.101591 57.854462 
L 73.396438 57.719832 
L 73.842353 57.102095 
L 74.141175 56.912098 
L 74.342599 56.84053 
L 74.966747 56.924026 
L 75.181422 57.020302 
L 75.362968 57.168553 
L 75.542527 57.270797 
L 75.730036 57.231603 
L 76.615628 56.807301 
L 77.518996 56.374506 
L 76.797449 53.262978 
L 76.677522 51.496944 
L 77.085007 50.234395 
L 77.538873 49.291234 
L 78.541353 45.022895 
L 78.498948 44.970151 
L 78.458531 44.889334 
L 78.382997 44.839994 
L 78.235905 44.879126 
L 78.913722 43.481558 
L 82.700353 40.841925 
L 83.134371 40.232083 
L 84.583398 38.196398 
L 85.15719 37.581053 
L 87.240334 36.082845 
L 88.637048 35.653748 
L 90.587676 36.186512 
L 96.581353 39.757931 
L 97.40295 40.000222 
L 97.800496 39.921158 
L 98.296162 39.641838 
L 99.555002 38.932497 
L 99.776303 38.70554 
L 99.875689 38.359592 
L 100.347445 30.284863 
L 100.551518 29.415465 
L 101.321434 28.986747 
L 102.549852 28.917136 
L 104.656849 29.123425 
L 106.45906 29.005424 
L 108.24802 28.580124 
L 117.137161 21.393618 
L 118.227764 20.74743 
L 123.126863 19.244966 
L 124.104827 18.722737 
L 125.008583 18.015753 
L 125.013159 18.010714 
L 130.314504 12.176019 
L 130.31848 12.172631 
L 131.68869 10.458552 
L 131.984714 10.188703 
L 132.455955 9.75915 
L 133.306705 9.472973 
L 138.932222 9.431669 
L 139.764186 9.42556 
L 140.001389 9.571186 
L 140.592408 11.547588 
L 140.845513 11.959195 
L 141.565072 11.974441 
L 142.493343 11.462898 
L 144.090818 10.250248 
L 145.692931 9.893775 
L 147.480565 10.416213 
L 150.906091 12.177712 
L 150.911392 12.177712 
L 157.364898 14.963116 
L 157.425855 15.709631 
L 157.195278 16.149441 
L 156.840136 16.510461 
L 156.526075 17.022361 
L 156.48367 17.961503 
L 157.227082 19.862194 
L 157.396701 20.860212 
L 155.684601 26.918209 
L 155.835669 28.580124 
L 156.600283 30.16939 
L 156.952438 30.57047 
L 160.644657 34.776934 
L 161.732609 36.61734 
L 161.805493 36.804294 
L 161.77899 37.077086 
L 161.535824 37.470569 
L 161.441075 37.768881 
L 161.305909 38.787142 
L 161.183995 39.177313 
L 160.570448 40.37005 
L 160.459798 40.7569 
L 160.573099 41.133567 
L 160.898424 41.746646 
L 161.057443 41.971992 
L 161.218449 42.126762 
L 161.358916 42.300244 
L 161.467578 42.578334 
L 161.438425 42.791799 
L 161.2264 43.321658 
L 161.22905 43.610841 
L 161.464928 43.94852 
L 161.798867 44.153516 
L 162.067874 44.442731 
L 162.12088 45.026297 
L 162.324291 45.607356 
L 162.747678 45.967242 
L 163.197568 46.260779 
L 163.473863 46.647073 
L 163.462599 46.933828 
L 163.252562 47.527793 
L 163.267139 47.873301 
L 163.425495 48.112442 
L 163.960195 48.554149 
L 164.161619 48.83757 
L 164.378944 49.447852 
L 164.582443 49.803694 
L 164.689031 49.990082 
L 165.078626 50.44211 
L 165.942627 51.153831 
L 166.205008 51.5906 
L 166.493892 51.978009 
L 166.98685 52.206206 
L 167.16177 52.515303 
L 167.008052 53.136942 
L 166.758923 53.824207 
L 166.64761 54.325854 
L 167.002752 55.146955 
L 167.678581 55.440835 
L 171.081579 55.304541 
L 171.34131 55.372688 
L 171.415518 55.600982 
L 171.410218 55.869322 
L 171.43142 56.070369 
L 171.412868 56.192193 
L 171.325408 56.328501 
L 171.34661 56.546599 
L 171.654046 56.913802 
L 172.157605 57.221379 
L 172.613459 57.252052 
L 173.578172 57.134472 
L 174.762861 57.585204 
L 176.148973 58.631613 
L 177.185244 60.019934 
L 177.31776 61.50653 
L 177.797466 62.509113 
L 178.642915 63.291829 
L 181.436342 64.91889 
L 181.894846 65.108223 
L 182.981473 65.277945 
L 183.413474 65.416113 
L 183.80572 65.763248 
L 184.296027 66.456711 
L 183.598995 66.80389 
L 183.100737 66.504479 
L 182.681988 66.032779 
L 182.218184 65.860483 
L 182.083018 66.039603 
L 181.961104 66.405531 
L 181.704024 67.534125 
L 181.526453 67.604081 
L 180.956636 67.30464 
L 179.578475 66.868722 
L 177.527134 65.836601 
L 176.983821 65.718896 
L 176.647231 67.041892 
L 176.657832 69.842127 
L 176.671084 72.951484 
L 176.679301 75.053798 
L 176.681685 75.664053 
L 176.755894 76.291732 
L 176.983821 76.819531 
L 177.720607 77.331135 
L 179.554622 77.525877 
L 180.328512 78.013607 
L 181.788833 79.56838 
L 183.323363 81.203763 
L 185.22225 83.229594 
L 185.883563 83.93523 
L 187.972008 86.162243 
L 189.384623 87.667193 
L 191.14708 89.550461 
L 191.865314 90.058551 
L 192.716063 90.339126 
L 195.342521 90.629975 
L 198.589151 90.984139 
L 199.042354 90.920833 
L 199.477005 90.558117 
L 199.784441 89.99012 
L 200.054773 89.336627 
L 200.489424 88.525817 
L 200.664344 88.082811 
L 200.778308 87.923745 
L 200.987682 87.867303 
L 201.167903 87.978477 
L 201.369327 88.026368 
L 201.65291 87.785206 
L 202.087561 87.179766 
L 202.323439 87.010455 
L 204.817381 87.273829 
L 205.845701 87.626146 
L 206.51623 88.619894 
L 206.664647 89.26478 
L 206.762709 89.442688 
L 207.035691 89.798515 
L 207.306022 90.072238 
L 207.775127 90.440066 
L 208.005704 90.809621 
L 208.177974 91.257899 
L 208.260134 91.6754 
L 208.456257 93.670783 
L 208.580821 94.091822 
L 208.790196 94.605312 
L 208.935963 94.860356 
L 209.261951 95.313977 
L 209.365313 95.563906 
L 209.365313 95.704281 
L 209.283154 96.051803 
L 209.280503 96.217865 
L 209.330859 96.947205 
L 209.150638 97.301625 
L 208.774294 97.424905 
L 207.250366 97.58928 
L 207.1205 97.560172 
L 206.844868 97.39066 
L 206.768009 97.358128 
L 206.60634 97.471135 
L 206.420819 97.796466 
L 206.304205 97.909479 
L 204.825332 98.299898 
L 204.438386 98.710883 
L 204.377429 99.671635 
L 204.867737 100.832897 
L 205.967615 102.7858 
L 207.88379 106.185549 
L 209.686001 109.392833 
L 211.718789 112.999156 
z
" clip-path="url(#pb675f61d3e)" style="stroke: #000000; stroke-linejoin: miter"/>
   </g>
   <g id="line2d_1">
    <path d="M 213.054545 114.445169 
L 211.769145 118.518542 
L 210.783229 119.924217 
L 210.507597 120.864883 
L 210.420137 122.124973 
L 210.064995 122.5645 
L 208.692135 123.544922 
L 206.818365 125.499201 
L 203.325256 130.048136 
L 202.622924 130.476856 
L 201.716517 130.386643 
L 199.654576 129.392634 
L 199.408097 129.602252 
L 198.962845 129.430433 
L 198.472538 129.559297 
L 197.46542 130.077346 
L 196.980413 130.122022 
L 195.84608 130.018925 
L 192.832677 131.318888 
L 192.294664 130.042981 
L 191.849412 130.077346 
L 192.00578 129.170134 
L 189.09839 128.791295 
L 188.679641 128.48978 
L 188.531223 128.967397 
L 187.614216 129.602252 
L 187.370387 130.277529 
L 187.614216 130.986363 
L 186.100888 132.069904 
L 185.878262 132.699806 
L 186.02668 133.269589 
L 186.275809 133.725095 
L 186.326165 134.152258 
L 185.878262 134.639609 
L 185.51782 134.27259 
L 185.337599 134.365418 
L 185.162679 134.639609 
L 184.701525 133.845421 
L 184.415291 133.662354 
L 184.288076 134.062011 
L 184.343733 134.32588 
L 184.595512 134.644766 
L 184.614064 135.230135 
L 184.288076 136.002084 
L 183.021228 135.331568 
L 182.313595 135.365952 
L 182.045914 135.554208 
L 181.820637 135.54991 
L 181.855091 135.379706 
L 181.41514 134.749631 
L 180.755212 136.0124 
L 181.234919 137.021699 
L 181.468146 138.729318 
L 180.418623 138.295077 
L 180.30466 138.465332 
L 179.981322 139.205716 
L 179.003357 139.5239 
L 179.02986 140.026136 
L 179.125271 139.980555 
L 179.28694 139.793935 
L 179.528119 139.865315 
L 179.557272 140.001196 
L 179.528119 140.56796 
L 179.893861 140.774377 
L 180.156242 142.262425 
L 180.447776 142.646945 
L 180.333813 143.33172 
L 179.96277 142.775982 
L 179.893861 142.612536 
L 179.634131 142.497264 
L 178.743627 142.421565 
L 178.303675 142.612536 
L 177.781564 141.910606 
L 177.609294 141.754055 
L 176.814201 141.643955 
L 176.186077 142.841361 
L 176.170175 143.551099 
L 176.260286 143.853935 
L 176.612777 144.156781 
L 176.573023 144.936306 
L 176.46436 145.114418 
L 175.661316 145.049023 
L 174.879474 144.494912 
L 169.080595 144.635158 
L 167.471857 145.033535 
L 164.267631 146.476604 
L 164.577718 145.062791 
L 164.164269 144.929422 
L 164.310036 144.522444 
L 164.296785 144.193777 
L 164.241128 144.146456 
L 144.026548 138.829067 
L 143.95499 139.366527 
L 144.113346 139.978835 
L 143.912585 140.473354 
L 143.587259 140.878447 
L 142.301859 142.081783 
L 141.840704 141.376451 
L 141.354373 140.875007 
L 140.858764 140.875007 
L 140.367132 141.674921 
L 140.247868 142.159201 
L 140.190886 142.914484 
L 140.051745 143.267198 
L 139.748284 143.58293 
L 139.07378 143.993312 
L 138.608651 144.594718 
L 138.51854 144.631716 
L 136.986661 144.66097 
L 136.618268 144.838216 
L 136.381065 145.393208 
L 135.934488 146.962836 
L 135.48526 147.318273 
L 134.254191 145.798499 
L 134.523197 145.301998 
L 134.633185 145.035256 
L 134.480792 144.802079 
L 133.949405 144.827891 
L 133.914951 144.451892 
L 130.812763 144.371015 
L 130.535805 144.058699 
L 130.384738 144.139573 
L 130.237645 144.371015 
L 129.689031 144.488889 
L 129.115239 145.297695 
L 128.668662 145.377719 
L 128.839607 144.922539 
L 128.571925 144.936306 
L 128.440735 144.829612 
L 128.261839 144.379619 
L 127.851041 144.149898 
L 124.315527 143.79027 
L 123.588017 143.934808 
L 123.361415 144.441567 
L 117.008621 144.362411 
L 116.365921 144.210984 
L 114.937403 143.496899 
L 111.697399 143.367853 
L 111.250822 143.546797 
L 111.066625 144.13097 
L 110.76714 144.348645 
L 81.225455 144.724641 
L 81.214854 144.371015 
L 79.003832 144.319392 
L 79.039611 144.51212 
L 78.968716 144.748732 
L 79.122434 145.384603 
L 79.403366 145.974905 
L 79.557084 146.612574 
L 79.412643 147.375076 
L 78.314089 148.773717 
L 78.124592 149.467514 
L 77.841671 151.012803 
L 77.410333 151.915118 
L 77.177106 152.992316 
L 76.824614 153.540861 
L 76.962431 154.027428 
L 77.19102 154.126467 
L 77.265891 154.489904 
L 76.563559 156.437348 
L 76.672222 157.073943 
L 77.503094 159.156282 
L 77.614407 160.193728 
L 78.15507 160.989977 
L 78.233254 161.641498 
L 78.434015 162.06294 
L 79.649845 163.2903 
L 80.067269 163.380807 
L 80.694068 163.401494 
L 80.793454 163.544582 
L 80.682141 163.857485 
L 80.447589 164.17126 
L 80.166656 164.313496 
L 79.586238 164.461769 
L 79.205918 164.976428 
L 78.902458 166.144632 
L 78.902458 166.844753 
L 79.110507 167.388844 
L 79.596839 167.55268 
L 79.81549 167.621665 
L 80.136177 168.304634 
L 80.360129 168.296011 
L 81.029332 168.719439 
L 81.116792 168.897094 
L 81.046559 169.769888 
L 80.855737 170.063997 
L 80.336276 170.589274 
L 80.001011 171.27588 
L 79.989085 171.940964 
L 80.256766 173.448981 
L 80.256766 176.310295 
L 80.382656 176.986902 
L 80.964399 178.114097 
L 81.131369 178.714853 
L 81.10089 179.57116 
L 80.862362 181.087984 
L 80.973675 181.930656 
L 81.65613 183.52638 
L 81.493136 183.866623 
L 80.606607 185.145647 
L 80.177257 186.262428 
L 80.081846 186.962091 
L 80.256766 187.655749 
L 80.606607 187.98834 
L 80.749724 187.967607 
L 80.973675 188.11274 
L 81.135344 188.688972 
L 81.217504 188.995674 
L 81.495787 189.274736 
L 81.168473 189.640206 
L 80.821283 190.677062 
L 80.826583 191.759812 
L 80.959099 192.103755 
L 81.877431 193.186637 
L 82.80239 194.696616 
L 82.000671 195.683782 
L 81.373872 197.393797 
L 80.892841 197.936766 
L 80.279294 197.875378 
L 79.694238 197.293507 
L 77.136688 192.890196 
L 75.861227 189.683407 
L 75.089324 187.349083 
L 74.687139 186.823019 
L 74.200807 186.674447 
L 73.318254 187.010464 
L 72.855775 186.981958 
L 72.407872 186.499099 
L 72.156093 185.720866 
L 71.834742 184.111017 
L 71.321245 183.300996 
L 70.726913 183.128292 
L 70.151133 183.112748 
L 69.703893 182.771664 
L 69.591255 182.103343 
L 69.638298 180.670988 
L 69.325561 180.424078 
L 68.928677 180.788401 
L 67.707547 182.835563 
L 67.095325 182.913278 
L 66.83692 182.478945 
L 66.699103 180.901499 
L 65.900035 181.380667 
L 65.62639 181.196768 
L 65.1765 180.662354 
L 64.853162 180.503503 
L 60.81939 180.072716 
L 59.286185 180.338611 
L 58.848221 180.219475 
L 58.406945 179.697194 
L 58.211484 179.456349 
L 57.778821 179.389016 
L 57.404465 179.869846 
L 57.242796 179.82841 
L 56.716709 179.548715 
L 55.09737 179.899198 
L 54.837639 180.12106 
L 54.208853 180.899772 
L 53.715895 181.08971 
L 51.968513 181.14992 
L 51.494935 181.330591 
L 50.52956 182.137017 
L 49.97962 182.316614 
L 49.598638 182.578244 
L 49.327644 183.593737 
L 48.292698 183.699091 
L 47.872623 184.035021 
L 47.812991 184.367507 
L 47.50423 184.351962 
L 47.236549 184.161105 
L 45.777553 183.605827 
L 45.336276 183.676638 
L 44.873797 184.126562 
L 44.138336 185.459164 
L 43.665256 185.796874 
L 42.699217 185.957527 
L 42.257278 186.162233 
L 41.916051 186.560427 
L 42.030014 186.589796 
L 42.329499 186.719364 
L 41.411829 188.074729 
L 41.41978 189.579726 
L 40.918209 190.677062 
L 39.828931 190.166399 
L 39.671238 191.544637 
L 39.320072 191.328601 
L 39.147801 190.964806 
L 38.927826 189.866578 
L 38.698574 189.378414 
L 38.076413 189.186611 
L 37.157418 189.243633 
L 36.323896 189.134772 
L 35.959478 188.443616 
L 36.017785 187.831114 
L 36.326546 186.390264 
L 36.112533 186.124228 
L 35.911772 186.072404 
L 35.365146 186.13632 
L 35.029219 187.749047 
L 34.65685 187.884674 
L 34.359353 187.747319 
L 33.990297 187.034651 
L 33.700088 186.722819 
L 33.3688 187.167679 
L 33.066664 187.373271 
L 32.372283 187.427693 
L 32.400111 187.51235 
L 32.141043 187.936507 
L 31.724282 188.23023 
L 31.70573 188.204313 
L 31.712356 188.074729 
L 31.58249 187.884674 
L 31.098809 187.560725 
L 30.910637 186.733184 
L 29.991642 185.808966 
L 29.645776 185.960982 
L 29.834611 186.286613 
L 29.445015 186.381627 
L 29.105775 185.679408 
L 28.765873 185.808966 
L 28.643296 185.40907 
L 28.415369 185.145647 
L 28.415369 184.896913 
L 28.882487 184.877913 
L 29.292622 184.688775 
L 29.048794 184.126562 
L 28.922904 183.368352 
L 28.714192 182.866649 
L 28.224547 183.069573 
L 28.052277 182.383964 
L 27.688522 181.96692 
L 27.179 181.757972 
L 26.365354 181.631051 
L 26.16128 181.316777 
L 25.869746 181.245117 
L 25.672298 181.397935 
L 25.392028 181.916841 
L 25.170064 181.814958 
L 24.416051 180.911859 
L 24.384247 180.532856 
L 24.704935 178.951367 
L 24.023143 177.346798 
L 24.566456 177.321769 
L 24.663855 176.870392 
L 24.486284 176.258516 
L 24.199388 175.750227 
L 23.276418 174.964971 
L 23.146552 174.361829 
L 22.591312 174.807927 
L 22.306404 174.754429 
L 22.097692 174.361829 
L 22.44687 174.153886 
L 21.748514 173.926103 
L 21.981078 173.649145 
L 22.582036 173.380823 
L 22.534331 173.118546 
L 21.88633 172.568992 
L 21.732612 172.22823 
L 21.906207 171.626101 
L 21.219777 171.663194 
L 21.234353 171.300033 
L 21.453667 170.69623 
L 21.381446 170.010522 
L 21.306574 170.231324 
L 21.036905 170.616875 
L 20.856022 170.694505 
L 20.543947 170.658277 
L 20.514794 170.50992 
L 20.679113 170.134722 
L 20.679113 168.301185 
L 20.471908 167.789449 
L 20.066892 167.445755 
L 19.646817 167.400916 
L 19.455995 167.845005 
L 19.226743 167.877773 
L 17.966521 166.923218 
L 17.557048 167.06549 
L 15.939033 166.819748 
L 15.61702 167.205178 
L 15.455351 167.412988 
L 14.865657 167.514739 
L 14.617853 167.388844 
L 14.485338 167.312963 
L 14.172601 167.732041 
L 13.654466 167.706171 
L 13.22379 167.569926 
L 12.596992 167.025826 
L 12.166316 166.13601 
L 11.751543 166.081692 
L 11.387125 165.909256 
L 11.357972 165.329031 
L 11.045235 164.48763 
L 10.593357 163.732495 
L 10.145455 163.401494 
L 10.285921 162.91794 
L 10.592032 160.943441 
L 11.194977 159.737894 
L 11.542168 157.987123 
L 11.466634 157.669224 
L 11.274487 157.440067 
L 11.30364 156.92922 
L 11.481211 156.394279 
L 11.735641 156.095378 
L 11.34207 155.901571 
L 11.1698 154.773255 
L 11.546144 152.492021 
L 11.930439 152.115738 
L 12.097408 151.958169 
L 12.388942 149.019037 
L 12.082831 148.316663 
L 11.607101 145.988674 
L 11.25991 145.067953 
L 10.678167 145.245207 
L 10.837186 144.379619 
L 10.536375 142.357048 
L 10.615885 141.833191 
L 10.986928 141.519233 
L 13.980454 140.931773 
L 14.409804 140.69439 
L 15.019375 140.205881 
L 15.280431 139.740615 
L 15.438124 138.383644 
L 15.680628 137.615807 
L 16.487647 136.573777 
L 16.805685 135.879152 
L 16.854715 135.341883 
L 16.677145 131.873122 
L 16.789783 131.269051 
L 17.182029 130.836859 
L 17.739919 130.49404 
L 17.947968 130.2045 
L 17.784974 126.262646 
L 17.547772 125.09217 
L 16.636065 124.157952 
L 15.854223 124.080678 
L 15.6581 123.70805 
L 15.6528 123.330285 
L 16.12853 122.28636 
L 16.402837 120.258932 
L 16.37766 119.675333 
L 16.182862 119.014538 
L 15.879401 118.558015 
L 14.97432 117.955645 
L 14.486663 117.832087 
L 14.041411 117.947065 
L 13.942024 117.808062 
L 13.135005 117.241776 
L 12.972011 116.702977 
L 13.486171 116.576004 
L 13.598809 116.627479 
L 14.061288 116.980952 
L 14.197779 116.927759 
L 14.473411 116.596594 
L 15.472579 116.344368 
L 15.685928 116.121316 
L 15.848923 116.111022 
L 16.490298 116.407853 
L 16.667868 116.220831 
L 17.180704 115.311512 
L 18.17457 114.280487 
L 19.242645 112.880809 
L 20.0331 112.56694 
L 21.255556 111.699139 
L 21.654428 111.657981 
L 23.425498 111.652836 
L 23.942971 111.390455 
L 24.175535 111.134941 
L 24.732101 110.841708 
L 26.368005 111.080066 
L 27.463245 110.577636 
L 28.001921 110.589639 
L 28.500179 111.134941 
L 28.943444 110.951455 
L 29.667641 110.79198 
L 30.036697 110.510762 
L 30.411296 109.774771 
L 30.594587 109.348256 
L 30.864256 109.053366 
L 31.135913 108.971073 
L 31.91643 109.029364 
L 32.45107 108.634684 
L 32.877167 107.111106 
L 33.7955 106.447781 
L 34.56674 106.403218 
L 34.817194 106.051866 
L 34.174494 104.468379 
L 36.53327 101.96176 
L 36.611454 100.87058 
L 36.671086 100.375568 
L 36.952682 100.156332 
L 37.329689 100.127215 
L 37.782892 100.748966 
L 38.013469 101.004187 
L 38.77477 100.814055 
L 38.53823 99.394188 
L 37.607971 96.577391 
L 37.812045 95.777893 
L 39.268391 93.434599 
L 39.259115 93.309663 
L 39.120636 93.194998 
L 38.896022 92.765445 
L 38.355359 91.215124 
L 37.929984 90.683013 
L 36.815528 89.591517 
L 36.590252 89.044111 
L 36.836731 87.236203 
L 37.010326 87.290931 
L 37.281418 87.241678 
L 38.028045 86.871931 
L 38.88012 86.602585 
L 39.73087 86.52221 
L 40.484883 86.727424 
L 41.567535 87.410649 
L 42.104223 87.326846 
L 42.582604 87.119908 
L 42.933107 86.822337 
L 43.185549 86.411055 
L 43.756029 83.868556 
L 43.428715 82.369401 
L 43.514188 80.492837 
L 43.308789 79.576923 
L 42.833721 78.816586 
L 42.088321 78.013607 
L 41.759682 77.44388 
L 41.075902 75.547062 
L 40.186723 74.383221 
L 40.186723 73.978519 
L 40.480908 73.417604 
L 40.80292 72.318935 
L 41.234921 72.087609 
L 42.876788 72.189187 
L 43.168322 72.085902 
L 43.348543 71.793981 
L 43.290899 71.506337 
L 42.747586 71.123112 
L 42.570677 70.813302 
L 42.688616 70.319166 
L 43.530752 69.204695 
L 43.919685 68.86936 
L 44.167489 68.813045 
L 44.653821 68.889838 
L 44.932104 68.698711 
L 45.417111 67.990555 
L 45.81532 67.190327 
L 46.515664 65.247241 
L 47.155714 64.605903 
L 48.074047 64.199123 
L 48.466293 63.635463 
L 49.052012 63.37198 
L 49.781509 62.67537 
L 49.917338 62.367585 
L 49.715914 62.188546 
L 49.388601 62.160411 
L 49.241509 62.018889 
L 49.760307 61.378658 
L 49.950467 61.50312 
L 50.100209 61.778477 
L 50.31621 62.641266 
L 50.536185 62.755515 
L 51.292849 62.990841 
L 51.276947 63.345547 
L 50.858198 63.524611 
L 50.6581 63.621819 
L 49.598638 64.79267 
L 49.917338 65.113341 
L 50.512333 65.308649 
L 51.9435 65.371762 
L 52.828704 65.814424 
L 54.353295 66.420885 
L 56.256218 68.346331 
L 57.428318 69.240534 
L 59.708247 71.36636 
L 60.046824 71.3032 
L 60.217107 71.386844 
L 60.855832 72.122606 
L 61.024126 72.158457 
L 61.597918 72.142239 
L 62.995957 72.411125 
L 63.306706 72.310398 
L 63.563124 71.780324 
L 63.534633 71.186271 
L 63.235148 70.040961 
L 63.330559 69.107421 
L 63.895075 68.828404 
L 68.103768 68.508441 
L 68.456922 68.215793 
L 67.551178 59.984136 
L 68.065338 57.989947 
L 68.172676 56.154708 
L 68.004381 55.362466 
L 67.474319 54.853939 
L 67.984504 54.218538 
L 68.667622 54.517494 
L 69.81123 55.607797 
L 70.526152 55.699798 
L 71.088018 55.549871 
L 71.624705 55.529426 
L 72.267406 56.009032 
L 72.850474 56.864386 
L 73.101591 57.854462 
L 73.396438 57.719832 
L 73.842353 57.102095 
L 74.342599 56.84053 
L 75.181422 57.020302 
L 75.542527 57.270797 
L 75.730036 57.231603 
L 77.518996 56.374506 
L 76.797449 53.262978 
L 76.677522 51.496944 
L 77.085007 50.234395 
L 77.538873 49.291234 
L 78.498948 44.970151 
L 78.382997 44.839994 
L 78.235905 44.879126 
L 78.913722 43.481558 
L 82.700353 40.841925 
L 85.15719 37.581053 
L 87.240334 36.082845 
L 88.637048 35.653748 
L 90.587676 36.186512 
L 96.581353 39.757931 
L 97.40295 40.000222 
L 97.800496 39.921158 
L 99.776303 38.70554 
L 99.875689 38.359592 
L 100.347445 30.284863 
L 100.551518 29.415465 
L 101.321434 28.986747 
L 102.549852 28.917136 
L 104.656849 29.123425 
L 106.45906 29.005424 
L 108.24802 28.580124 
L 117.137161 21.393618 
L 118.227764 20.74743 
L 123.126863 19.244966 
L 124.104827 18.722737 
L 125.013159 18.010714 
L 130.31848 12.172631 
L 131.984714 10.188703 
L 132.455955 9.75915 
L 133.306705 9.472973 
L 139.764186 9.42556 
L 140.001389 9.571186 
L 140.592408 11.547588 
L 140.845513 11.959195 
L 141.565072 11.974441 
L 142.493343 11.462898 
L 144.090818 10.250248 
L 145.692931 9.893775 
L 147.480565 10.416213 
L 150.911392 12.177712 
L 157.364898 14.963116 
L 157.425855 15.709631 
L 157.195278 16.149441 
L 156.840136 16.510461 
L 156.526075 17.022361 
L 156.48367 17.961503 
L 157.227082 19.862194 
L 157.396701 20.860212 
L 155.684601 26.918209 
L 155.835669 28.580124 
L 156.600283 30.16939 
L 160.644657 34.776934 
L 161.805493 36.804294 
L 161.77899 37.077086 
L 161.441075 37.768881 
L 161.183995 39.177313 
L 160.459798 40.7569 
L 160.573099 41.133567 
L 161.218449 42.126762 
L 161.467578 42.578334 
L 161.438425 42.791799 
L 161.22905 43.610841 
L 161.464928 43.94852 
L 162.067874 44.442731 
L 162.12088 45.026297 
L 162.324291 45.607356 
L 163.473863 46.647073 
L 163.462599 46.933828 
L 163.252562 47.527793 
L 163.267139 47.873301 
L 163.425495 48.112442 
L 164.161619 48.83757 
L 164.689031 49.990082 
L 165.078626 50.44211 
L 165.942627 51.153831 
L 166.493892 51.978009 
L 166.98685 52.206206 
L 167.16177 52.515303 
L 166.64761 54.325854 
L 167.002752 55.146955 
L 167.678581 55.440835 
L 171.34131 55.372688 
L 171.410218 55.869322 
L 171.412868 56.192193 
L 171.325408 56.328501 
L 171.34661 56.546599 
L 171.654046 56.913802 
L 172.157605 57.221379 
L 172.613459 57.252052 
L 173.578172 57.134472 
L 174.762861 57.585204 
L 176.148973 58.631613 
L 177.185244 60.019934 
L 177.31776 61.50653 
L 177.797466 62.509113 
L 178.642915 63.291829 
L 181.894846 65.108223 
L 183.413474 65.416113 
L 183.80572 65.763248 
L 184.296027 66.456711 
L 183.598995 66.80389 
L 183.100737 66.504479 
L 182.681988 66.032779 
L 182.218184 65.860483 
L 182.083018 66.039603 
L 181.961104 66.405531 
L 181.704024 67.534125 
L 181.526453 67.604081 
L 180.956636 67.30464 
L 179.578475 66.868722 
L 177.527134 65.836601 
L 176.983821 65.718896 
L 176.647231 67.041892 
L 176.755894 76.291732 
L 176.983821 76.819531 
L 177.720607 77.331135 
L 179.554622 77.525877 
L 180.328512 78.013607 
L 191.14708 89.550461 
L 191.865314 90.058551 
L 192.716063 90.339126 
L 198.589151 90.984139 
L 199.042354 90.920833 
L 199.477005 90.558117 
L 200.489424 88.525817 
L 200.778308 87.923745 
L 200.987682 87.867303 
L 201.369327 88.026368 
L 201.65291 87.785206 
L 202.323439 87.010455 
L 204.817381 87.273829 
L 205.845701 87.626146 
L 206.51623 88.619894 
L 206.762709 89.442688 
L 207.306022 90.072238 
L 207.775127 90.440066 
L 208.177974 91.257899 
L 208.260134 91.6754 
L 208.580821 94.091822 
L 208.935963 94.860356 
L 209.365313 95.563906 
L 209.330859 96.947205 
L 209.150638 97.301625 
L 208.774294 97.424905 
L 207.1205 97.560172 
L 206.768009 97.358128 
L 206.60634 97.471135 
L 206.304205 97.909479 
L 204.825332 98.299898 
L 204.438386 98.710883 
L 204.377429 99.671635 
L 204.867737 100.832897 
L 211.718789 112.999156 
L 213.054545 114.445169 
L 213.054545 114.445169 
" clip-path="url(#pb675f61d3e)" style="fill: none; stroke: #000000; stroke-width: 0.5; stroke-linecap: square"/>
   </g>
  </g>
 </g>
 <defs>
  <clipPath id="pb675f61d3e">
   <rect x="0" y="0" width="223.2" height="207.362326"/>
  </clipPath>
 </defs>
</svg>
