<?xml version="1.0" encoding="utf-8" standalone="no"?>
<!DOCTYPE svg PUBLIC "-//W3C//DTD SVG 1.1//EN"
  "http://www.w3.org/Graphics/SVG/1.1/DTD/svg11.dtd">
<svg xmlns:xlink="http://www.w3.org/1999/xlink" width="143.656256pt" height="221.76pt" viewBox="0 0 143.656256 221.76" xmlns="http://www.w3.org/2000/svg" version="1.1">
 <metadata>
  <rdf:RDF xmlns:dc="http://purl.org/dc/elements/1.1/" xmlns:cc="http://creativecommons.org/ns#" xmlns:rdf="http://www.w3.org/1999/02/22-rdf-syntax-ns#">
   <cc:Work>
    <dc:type rdf:resource="http://purl.org/dc/dcmitype/StillImage"/>
    <dc:date>2026-04-26T19:22:06.426606</dc:date>
    <dc:format>image/svg+xml</dc:format>
    <dc:creator>
     <cc:Agent>
      <dc:title>Matplotlib v3.10.9, https://matplotlib.org/</dc:title>
     </cc:Agent>
    </dc:creator>
   </cc:Work>
  </rdf:RDF>
 </metadata>
 <defs>
  <style type="text/css">*{stroke-linejoin: round; stroke-linecap: butt}</style>
 </defs>
 <g id="figure_1">
  <g id="patch_1">
   <path d="M 0 221.76 
L 143.656256 221.76 
L 143.656256 0 
L 0 0 
z
" style="fill: #ffffff"/>
  </g>
  <g id="axes_1">
   <g id="patch_2">
    <path d="M 117.374162 19.193408 
L 115.032097 23.083792 
L 114.085771 25.062727 
L 111.403906 33.682798 
L 110.826611 36.646111 
L 110.519695 37.630649 
L 109.840094 38.79857 
L 108.152053 40.912383 
L 107.574758 42.07062 
L 107.300726 44.367758 
L 108.086286 45.371535 
L 109.460102 45.390839 
L 110.950839 44.744175 
L 113.486553 43.219195 
L 115.108826 42.427741 
L 114.652105 44.194026 
L 110.585462 49.830519 
L 110.015475 51.056226 
L 109.785287 52.503896 
L 109.759711 54.878034 
L 108.217821 57.628497 
L 107.406685 59.703364 
L 107.560143 61.314978 
L 109.328566 64.335483 
L 110.402774 65.667181 
L 111.6889 66.130377 
L 111.367368 67.15326 
L 111.77659 67.896292 
L 112.390423 68.697216 
L 112.688237 69.85828 
L 112.69734 69.893767 
L 113.03714 69.681477 
L 114.436533 67.133961 
L 115.276899 66.217226 
L 116.263416 65.734731 
L 116.837058 65.86018 
L 121.429843 69.488485 
L 122.365207 70.009561 
L 122.672124 70.279748 
L 122.854812 70.849068 
L 123.052116 72.373672 
L 123.242112 72.778943 
L 124.184783 73.049123 
L 124.922844 72.807891 
L 125.628021 72.441217 
L 126.501272 72.364023 
L 127.370868 72.788592 
L 128.989487 74.187729 
L 129.921198 74.554397 
L 131.5727 74.361414 
L 134.875706 73.145615 
L 136.527209 73.164914 
L 136.055404 74.277637 
L 135.843954 74.776326 
L 133.655348 78.105214 
L 133.187665 79.591118 
L 133.538427 80.961218 
L 135.27762 83.122466 
L 135.97549 84.415334 
L 135.986451 84.907391 
L 135.650304 86.151995 
L 135.591844 86.692284 
L 135.843954 87.396584 
L 136.76105 88.284189 
L 137.053351 88.949887 
L 137.126426 90.126908 
L 137.002198 91.294267 
L 136.388365 93.522824 
L 135.387233 95.404034 
L 135.423771 96.088979 
L 135.737995 97.748261 
L 135.774533 98.288486 
L 134.707633 100.796635 
L 133.004977 102.330432 
L 131.042904 102.619825 
L 129.172175 101.394723 
L 128.956603 102.504068 
L 128.503536 103.343304 
L 127.812974 103.854559 
L 126.943378 103.999253 
L 125.010535 104.963876 
L 123.450376 106.237163 
L 122.116751 107.876978 
L 120.81601 109.941174 
L 121.308914 110.295889 
L 123.443069 111.831706 
L 123.351724 114.320204 
L 121.495611 116.692896 
L 118.17799 118.72796 
L 117.257241 120.174661 
L 116.694561 120.820846 
L 116.20861 121.052315 
L 114.32692 121.621338 
L 114.217307 121.852804 
L 114.096732 122.662932 
L 114.020003 122.865462 
L 112.66811 123.010127 
L 112.631572 122.836529 
L 112.492729 122.817241 
L 111.316216 123.048704 
L 111.133527 123.338032 
L 110.870456 124.43747 
L 110.695075 124.81359 
L 108.725695 126.674881 
L 108.342049 127.793565 
L 108.510123 129.664437 
L 108.484546 131.371331 
L 107.95475 133.107122 
L 105.039044 139.153186 
L 104.542132 140.830966 
L 104.539046 140.900182 
L 104.461749 142.63406 
L 104.761358 144.205709 
L 105.163272 145.642344 
L 105.382498 147.098238 
L 105.141349 148.737294 
L 101.988148 147.377844 
L 100.201456 148.881914 
L 97.483054 155.071455 
L 93.770826 160.084445 
L 92.923152 161.993155 
L 91.695487 168.711838 
L 90.594941 172.208981 
L 90.409361 172.798675 
L 88.75055 176.57688 
L 86.61675 179.998309 
L 81.801085 185.279536 
L 81.070332 186.667242 
L 79.265371 192.352713 
L 78.373852 193.836646 
L 76.802732 195.002572 
L 76.086594 195.763786 
L 73.660492 197.575252 
L 71.124778 200.706668 
L 67.368705 203.028646 
L 66.747565 203.30805 
L 65.563744 203.047916 
L 64.796453 202.53728 
L 64.043777 202.412029 
L 62.896495 203.336953 
L 62.768613 203.664528 
L 62.618808 205.186766 
L 62.253431 205.98641 
L 61.047688 206.728241 
L 60.601929 207.277383 
L 60.338858 208.597233 
L 60.30232 209.801455 
L 60.086748 210.85152 
L 59.271958 211.68 
L 58.950426 211.516231 
L 56.06395 211.217594 
L 52.585564 210.138633 
L 36.033999 210.418009 
L 33.812509 187.891101 
L 33.421099 186.108562 
L 31.459483 177.174436 
L 27.093231 167.449116 
L 24.411366 163.631911 
L 23.333505 161.626841 
L 22.661211 159.139713 
L 22.061994 148.139524 
L 22.808248 141.359837 
L 23.24216 137.417517 
L 23.37735 130.098396 
L 22.069301 106.3915 
L 22.215452 103.661633 
L 22.522368 102.41725 
L 24.151219 100.434896 
L 24.488095 100.024904 
L 23.282352 98.751534 
L 22.792747 96.92827 
L 22.595444 90.705766 
L 22.836592 88.814818 
L 23.366389 87.242218 
L 24.268869 86.576508 
L 24.5904 85.505575 
L 24.534609 84.891569 
L 24.045989 79.513929 
L 23.391965 78.134161 
L 22.412755 77.14033 
L 21.207012 76.532448 
L 19.898964 76.32982 
L 18.539762 75.615795 
L 17.933237 73.9465 
L 17.655551 72.016646 
L 17.242675 70.530635 
L 16.179429 69.584981 
L 14.885995 69.015654 
L 13.80448 68.262981 
L 13.344105 66.767268 
L 13.234492 65.261884 
L 12.942191 64.335483 
L 11.889906 62.299305 
L 11.239536 59.799868 
L 10.925312 59.056782 
L 9.865719 58.439148 
L 8.385944 58.255787 
L 7.096164 57.763606 
L 6.52983 56.190544 
L 6.665019 54.202471 
L 7.140009 52.610057 
L 8.038836 51.587041 
L 9.47842 51.345762 
L 8.543056 49.087367 
L 9.75976 39.744482 
L 11.363764 37.669258 
L 15.477905 37.312123 
L 16.628842 37.534126 
L 20.922018 40.005089 
L 22.500446 40.642126 
L 25.485573 41.134379 
L 26.979964 41.607326 
L 28.273398 42.582172 
L 29.135687 43.431535 
L 29.186839 43.865866 
L 29.095495 44.966165 
L 29.338378 46.231272 
L 29.354913 46.317394 
L 30.889495 48.218741 
L 31.320639 49.376907 
L 31.167181 50.438548 
L 30.187972 52.021341 
L 29.946823 52.996099 
L 30.107589 54.077009 
L 30.765267 56.01683 
L 30.849304 57.184568 
L 31.474098 58.960277 
L 33.213291 58.747965 
L 36.264186 57.001205 
L 37.532043 56.808191 
L 38.897249 57.143937 
L 41.456189 57.773257 
L 43.100385 58.998879 
L 44.444971 58.400545 
L 45.767634 57.290725 
L 47.316832 57.020506 
L 48.047585 57.059109 
L 48.610265 56.769588 
L 49.136408 56.344956 
L 51.240977 55.341275 
L 51.745197 55.379878 
L 52.501689 55.709611 
L 55.44281 56.991554 
L 56.776435 57.261773 
L 58.358516 57.001205 
L 59.045424 56.451114 
L 59.35234 55.582545 
L 59.586182 53.623414 
L 60.112324 52.754823 
L 60.92346 52.745172 
L 62.501888 53.372489 
L 64.25935 53.440046 
L 65.687973 53.082958 
L 67.017944 52.050295 
L 68.464835 50.110406 
L 69.407507 48.421421 
L 70.269796 46.491123 
L 70.94209 44.454624 
L 71.322081 42.398785 
L 71.354307 41.358318 
L 71.65092 31.781221 
L 73.181849 24.724862 
L 72.673975 17.542614 
L 73.13435 12.763886 
L 73.127042 11.895008 
L 73.331653 11.373678 
L 74.055099 11.344715 
L 74.621433 11.769502 
L 75.105575 12.319547 
L 75.228504 12.459208 
L 76.473893 13.874111 
L 77.021958 13.980305 
L 77.617522 13.903073 
L 78.297123 13.932035 
L 79.104605 14.308544 
L 79.966894 15.18706 
L 82.159155 18.614184 
L 83.321052 19.956048 
L 84.797174 21.24963 
L 86.419447 22.079833 
L 87.997874 22.012259 
L 89.203617 20.911756 
L 92.39701 15.621489 
L 92.543161 14.965018 
L 92.579698 14.0865 
L 92.831808 13.458984 
L 93.653906 13.565179 
L 95.860781 14.984326 
L 96.737685 15.244984 
L 97.87766 15.177406 
L 99.229554 14.810554 
L 100.559526 14.240965 
L 101.575273 13.555525 
L 102.485061 12.445298 
L 102.809729 11.881852 
L 103.102547 11.373678 
L 103.793109 10.5241 
L 104.929431 10.08 
L 105.272885 10.311704 
L 107.50899 11.01647 
L 107.750139 10.900618 
L 108.086286 11.412295 
L 108.451662 12.725269 
L 108.85723 13.458984 
L 112.69734 17.619845 
L 115.050366 19.077563 
z
" clip-path="url(#p53cb5d6716)" style="stroke: #000000; stroke-linejoin: miter"/>
   </g>
   <g id="line2d_1">
    <path d="M 117.374162 19.193408 
L 115.032097 23.083792 
L 114.085771 25.062727 
L 111.403906 33.682798 
L 110.826611 36.646111 
L 110.519695 37.630649 
L 109.840094 38.79857 
L 108.152053 40.912383 
L 107.574758 42.07062 
L 107.300726 44.367758 
L 108.086286 45.371535 
L 109.460102 45.390839 
L 110.950839 44.744175 
L 113.486553 43.219195 
L 115.108826 42.427741 
L 114.652105 44.194026 
L 110.585462 49.830519 
L 110.015475 51.056226 
L 109.785287 52.503896 
L 109.759711 54.878034 
L 108.217821 57.628497 
L 107.406685 59.703364 
L 107.560143 61.314978 
L 109.328566 64.335483 
L 110.402774 65.667181 
L 111.6889 66.130377 
L 111.367368 67.15326 
L 111.77659 67.896292 
L 112.390423 68.697216 
L 112.69734 69.893767 
L 113.03714 69.681477 
L 114.436533 67.133961 
L 115.276899 66.217226 
L 116.263416 65.734731 
L 116.837058 65.86018 
L 121.429843 69.488485 
L 122.672124 70.279748 
L 122.854812 70.849068 
L 123.052116 72.373672 
L 123.242112 72.778943 
L 124.184783 73.049123 
L 124.922844 72.807891 
L 125.628021 72.441217 
L 126.501272 72.364023 
L 127.370868 72.788592 
L 128.989487 74.187729 
L 129.921198 74.554397 
L 131.5727 74.361414 
L 134.875706 73.145615 
L 136.527209 73.164914 
L 135.843954 74.776326 
L 133.655348 78.105214 
L 133.187665 79.591118 
L 133.538427 80.961218 
L 135.27762 83.122466 
L 135.97549 84.415334 
L 135.986451 84.907391 
L 135.591844 86.692284 
L 135.843954 87.396584 
L 136.76105 88.284189 
L 137.053351 88.949887 
L 137.126426 90.126908 
L 137.002198 91.294267 
L 136.388365 93.522824 
L 135.387233 95.404034 
L 135.423771 96.088979 
L 135.774533 98.288486 
L 134.707633 100.796635 
L 133.004977 102.330432 
L 131.042904 102.619825 
L 129.172175 101.394723 
L 128.956603 102.504068 
L 128.503536 103.343304 
L 127.812974 103.854559 
L 126.943378 103.999253 
L 125.010535 104.963876 
L 123.450376 106.237163 
L 122.116751 107.876978 
L 120.81601 109.941174 
L 123.443069 111.831706 
L 123.351724 114.320204 
L 121.495611 116.692896 
L 118.17799 118.72796 
L 117.257241 120.174661 
L 116.694561 120.820846 
L 116.20861 121.052315 
L 114.32692 121.621338 
L 114.217307 121.852804 
L 114.020003 122.865462 
L 112.66811 123.010127 
L 112.631572 122.836529 
L 112.492729 122.817241 
L 111.316216 123.048704 
L 111.133527 123.338032 
L 110.695075 124.81359 
L 108.725695 126.674881 
L 108.342049 127.793565 
L 108.510123 129.664437 
L 108.484546 131.371331 
L 107.95475 133.107122 
L 105.039044 139.153186 
L 104.539046 140.900182 
L 104.461749 142.63406 
L 104.761358 144.205709 
L 105.163272 145.642344 
L 105.382498 147.098238 
L 105.141349 148.737294 
L 101.988148 147.377844 
L 100.201456 148.881914 
L 97.483054 155.071455 
L 93.770826 160.084445 
L 92.923152 161.993155 
L 91.695487 168.711838 
L 90.409361 172.798675 
L 88.75055 176.57688 
L 86.61675 179.998309 
L 81.801085 185.279536 
L 81.070332 186.667242 
L 79.265371 192.352713 
L 78.373852 193.836646 
L 76.802732 195.002572 
L 76.086594 195.763786 
L 73.660492 197.575252 
L 71.124778 200.706668 
L 66.747565 203.30805 
L 65.563744 203.047916 
L 64.796453 202.53728 
L 64.043777 202.412029 
L 62.896495 203.336953 
L 62.768613 203.664528 
L 62.618808 205.186766 
L 62.253431 205.98641 
L 61.047688 206.728241 
L 60.601929 207.277383 
L 60.338858 208.597233 
L 60.30232 209.801455 
L 60.086748 210.85152 
L 59.271958 211.68 
L 58.950426 211.516231 
L 56.06395 211.217594 
L 52.585564 210.138633 
L 36.033999 210.418009 
L 33.812509 187.891101 
L 31.459483 177.174436 
L 27.093231 167.449116 
L 24.411366 163.631911 
L 23.333505 161.626841 
L 22.661211 159.139713 
L 22.061994 148.139524 
L 23.24216 137.417517 
L 23.37735 130.098396 
L 22.069301 106.3915 
L 22.215452 103.661633 
L 22.522368 102.41725 
L 24.488095 100.024904 
L 23.282352 98.751534 
L 22.792747 96.92827 
L 22.595444 90.705766 
L 22.836592 88.814818 
L 23.366389 87.242218 
L 24.268869 86.576508 
L 24.5904 85.505575 
L 24.045989 79.513929 
L 23.391965 78.134161 
L 22.412755 77.14033 
L 21.207012 76.532448 
L 19.898964 76.32982 
L 18.539762 75.615795 
L 17.933237 73.9465 
L 17.655551 72.016646 
L 17.242675 70.530635 
L 16.179429 69.584981 
L 14.885995 69.015654 
L 13.80448 68.262981 
L 13.344105 66.767268 
L 13.234492 65.261884 
L 12.942191 64.335483 
L 11.889906 62.299305 
L 11.239536 59.799868 
L 10.925312 59.056782 
L 9.865719 58.439148 
L 8.385944 58.255787 
L 7.096164 57.763606 
L 6.52983 56.190544 
L 6.665019 54.202471 
L 7.140009 52.610057 
L 8.038836 51.587041 
L 9.47842 51.345762 
L 8.543056 49.087367 
L 9.75976 39.744482 
L 11.363764 37.669258 
L 15.477905 37.312123 
L 16.628842 37.534126 
L 20.922018 40.005089 
L 22.500446 40.642126 
L 25.485573 41.134379 
L 26.979964 41.607326 
L 28.273398 42.582172 
L 29.135687 43.431535 
L 29.186839 43.865866 
L 29.095495 44.966165 
L 29.354913 46.317394 
L 30.889495 48.218741 
L 31.320639 49.376907 
L 31.167181 50.438548 
L 30.187972 52.021341 
L 29.946823 52.996099 
L 30.107589 54.077009 
L 30.765267 56.01683 
L 30.849304 57.184568 
L 31.474098 58.960277 
L 33.213291 58.747965 
L 36.264186 57.001205 
L 37.532043 56.808191 
L 41.456189 57.773257 
L 43.100385 58.998879 
L 44.444971 58.400545 
L 45.767634 57.290725 
L 47.316832 57.020506 
L 48.047585 57.059109 
L 48.610265 56.769588 
L 49.136408 56.344956 
L 51.240977 55.341275 
L 51.745197 55.379878 
L 55.44281 56.991554 
L 56.776435 57.261773 
L 58.358516 57.001205 
L 59.045424 56.451114 
L 59.35234 55.582545 
L 59.586182 53.623414 
L 60.112324 52.754823 
L 60.92346 52.745172 
L 62.501888 53.372489 
L 64.25935 53.440046 
L 65.687973 53.082958 
L 67.017944 52.050295 
L 68.464835 50.110406 
L 69.407507 48.421421 
L 70.269796 46.491123 
L 70.94209 44.454624 
L 71.322081 42.398785 
L 71.65092 31.781221 
L 73.181849 24.724862 
L 72.673975 17.542614 
L 73.331653 11.373678 
L 74.055099 11.344715 
L 74.621433 11.769502 
L 76.473893 13.874111 
L 77.021958 13.980305 
L 77.617522 13.903073 
L 78.297123 13.932035 
L 79.104605 14.308544 
L 79.966894 15.18706 
L 82.159155 18.614184 
L 83.321052 19.956048 
L 84.797174 21.24963 
L 86.419447 22.079833 
L 87.997874 22.012259 
L 89.203617 20.911756 
L 92.39701 15.621489 
L 92.543161 14.965018 
L 92.579698 14.0865 
L 92.831808 13.458984 
L 93.653906 13.565179 
L 95.860781 14.984326 
L 96.737685 15.244984 
L 97.87766 15.177406 
L 99.229554 14.810554 
L 100.559526 14.240965 
L 101.575273 13.555525 
L 102.809729 11.881852 
L 103.102547 11.373678 
L 103.793109 10.5241 
L 104.929431 10.08 
L 105.272885 10.311704 
L 107.50899 11.01647 
L 107.750139 10.900618 
L 108.086286 11.412295 
L 108.451662 12.725269 
L 108.85723 13.458984 
L 112.69734 17.619845 
L 115.050366 19.077563 
L 117.374162 19.193408 
L 117.374162 19.193408 
" clip-path="url(#p53cb5d6716)" style="fill: none; stroke: #000000; stroke-width: 0.5; stroke-linecap: square"/>
   </g>
  </g>
 </g>
 <defs>
  <clipPath id="p53cb5d6716">
   <rect x="0" y="-0" width="143.656256" height="221.76"/>
  </clipPath>
 </defs>
</svg>
