<?xml version="1.0" encoding="utf-8" standalone="no"?>
<!DOCTYPE svg PUBLIC "-//W3C//DTD SVG 1.1//EN"
  "http://www.w3.org/Graphics/SVG/1.1/DTD/svg11.dtd">
<svg xmlns:xlink="http://www.w3.org/1999/xlink" width="142.693787pt" height="221.76pt" viewBox="0 0 142.693787 221.76" xmlns="http://www.w3.org/2000/svg" version="1.1">
 <metadata>
  <rdf:RDF xmlns:dc="http://purl.org/dc/elements/1.1/" xmlns:cc="http://creativecommons.org/ns#" xmlns:rdf="http://www.w3.org/1999/02/22-rdf-syntax-ns#">
   <cc:Work>
    <dc:type rdf:resource="http://purl.org/dc/dcmitype/StillImage"/>
    <dc:date>2026-04-26T19:22:21.420042</dc:date>
    <dc:format>image/svg+xml</dc:format>
    <dc:creator>
     <cc:Agent>
      <dc:title>Matplotlib v3.10.9, https://matplotlib.org/</dc:title>
     </cc:Agent>
    </dc:creator>
   </cc:Work>
  </rdf:RDF>
 </metadata>
 <defs>
  <style type="text/css">*{stroke-linejoin: round; stroke-linecap: butt}</style>
 </defs>
 <g id="figure_1">
  <g id="patch_1">
   <path d="M 0 221.76 
L 142.693787 221.76 
L 142.693787 0 
L 0 0 
z
" style="fill: #ffffff"/>
  </g>
  <g id="axes_1">
   <g id="patch_2">
    <path d="M 131.133022 156.610043 
L 131.948596 158.849347 
L 132.945409 160.663991 
L 134.25939 161.957426 
L 136.207706 162.768245 
L 134.455731 169.853525 
L 131.918389 174.525827 
L 123.294446 182.519423 
L 126.058337 185.763377 
L 122.433562 193.178505 
L 120.168078 200.652097 
L 117.313568 206.426633 
L 112.012335 208.744263 
L 109.067205 209.207794 
L 103.267566 211.197143 
L 100.503675 211.68 
L 97.513236 211.255085 
L 94.371765 209.227108 
L 91.622977 208.744263 
L 79.298743 208.396615 
L 69.013445 206.697021 
L 59.513515 202.718533 
L 49.57559 198.431207 
L 35.25773 182.809058 
L 29.518504 174.564442 
L 29.458091 159.061697 
L 25.24429 155.335977 
L 19.218102 152.980928 
L 14.098108 149.815208 
L 13.87156 148.058661 
L 11.334217 137.172596 
L 10.307198 135.319762 
L 8.827082 133.486262 
L 7.407378 130.977313 
L 6.486081 127.15611 
L 7.497998 123.335047 
L 12.784127 111.756932 
L 14.098108 107.434769 
L 13.78094 101.221977 
L 9.023423 85.074331 
L 12.572682 83.781857 
L 14.823063 80.579679 
L 16.076631 75.9502 
L 16.408902 70.375813 
L 17.224476 65.264618 
L 19.06707 62.043731 
L 20.879457 59.671527 
L 21.710135 57.125807 
L 20.456567 49.141916 
L 17.360405 39.924576 
L 13.237224 32.404769 
L 9.023423 29.474123 
L 11.48525 28.375152 
L 19.172793 23.285338 
L 13.735631 20.567019 
L 11.334217 20.065776 
L 21.710135 10.08 
L 24.474026 10.08 
L 24.685471 13.684791 
L 25.259393 15.670372 
L 26.044761 17.386099 
L 26.769716 20.065776 
L 33.717201 14.745048 
L 39.65277 19.217526 
L 41.661499 27.334033 
L 36.888879 33.002477 
L 41.842738 41.69856 
L 47.627274 47.001413 
L 59.951508 55.351555 
L 57.157411 58.90009 
L 63.576283 60.5394 
L 66.732857 63.895247 
L 72.366361 75.352241 
L 83.829711 90.80385 
L 90.082448 95.704097 
L 95.655539 94.797341 
L 96.848694 96.996721 
L 97.467926 98.617347 
L 98.389223 99.948594 
L 100.503675 101.260565 
L 99.959959 101.877968 
L 102.316063 104.752804 
L 104.974231 107.415474 
L 105.548153 107.434769 
L 106.575173 107.743489 
L 109.867676 107.12605 
L 110.86449 107.434769 
L 111.075935 108.920492 
L 110.622838 112.760317 
L 110.86449 114.226821 
L 126.058337 149.815208 
L 127.508247 151.591088 
L 128.595679 152.112276 
L 129.683112 153.154659 
z
" clip-path="url(#pd30e8be47a)" style="stroke: #000000; stroke-linejoin: miter"/>
   </g>
   <g id="line2d_1">
    <path d="M 131.133022 156.610043 
L 131.948596 158.849347 
L 132.945409 160.663991 
L 134.25939 161.957426 
L 136.207706 162.768245 
L 134.455731 169.853525 
L 131.918389 174.525827 
L 123.294446 182.519423 
L 126.058337 185.763377 
L 122.433562 193.178505 
L 120.168078 200.652097 
L 117.313568 206.426633 
L 112.012335 208.744263 
L 109.067205 209.207794 
L 103.267566 211.197143 
L 100.503675 211.68 
L 97.513236 211.255085 
L 94.371765 209.227108 
L 91.622977 208.744263 
L 79.298743 208.396615 
L 69.013445 206.697021 
L 59.513515 202.718533 
L 49.57559 198.431207 
L 35.25773 182.809058 
L 29.518504 174.564442 
L 29.458091 159.061697 
L 25.24429 155.335977 
L 19.218102 152.980928 
L 14.098108 149.815208 
L 13.87156 148.058661 
L 11.334217 137.172596 
L 10.307198 135.319762 
L 8.827082 133.486262 
L 7.407378 130.977313 
L 6.486081 127.15611 
L 7.497998 123.335047 
L 12.784127 111.756932 
L 14.098108 107.434769 
L 13.78094 101.221977 
L 9.023423 85.074331 
L 12.572682 83.781857 
L 14.823063 80.579679 
L 16.076631 75.9502 
L 16.408902 70.375813 
L 17.224476 65.264618 
L 19.06707 62.043731 
L 20.879457 59.671527 
L 21.710135 57.125807 
L 20.456567 49.141916 
L 17.360405 39.924576 
L 13.237224 32.404769 
L 9.023423 29.474123 
L 11.48525 28.375152 
L 19.172793 23.285338 
L 13.735631 20.567019 
L 11.334217 20.065776 
L 21.710135 10.08 
L 24.474026 10.08 
L 24.685471 13.684791 
L 25.259393 15.670372 
L 26.044761 17.386099 
L 26.769716 20.065776 
L 33.717201 14.745048 
L 39.65277 19.217526 
L 41.661499 27.334033 
L 36.888879 33.002477 
L 41.842738 41.69856 
L 47.627274 47.001413 
L 59.951508 55.351555 
L 57.157411 58.90009 
L 63.576283 60.5394 
L 66.732857 63.895247 
L 72.366361 75.352241 
L 83.829711 90.80385 
L 90.082448 95.704097 
L 95.655539 94.797341 
L 96.848694 96.996721 
L 97.467926 98.617347 
L 98.389223 99.948594 
L 100.503675 101.260565 
L 99.959959 101.877968 
L 102.316063 104.752804 
L 104.974231 107.415474 
L 105.548153 107.434769 
L 106.575173 107.743489 
L 109.867676 107.12605 
L 110.86449 107.434769 
L 111.075935 108.920492 
L 110.622838 112.760317 
L 110.86449 114.226821 
L 126.058337 149.815208 
L 127.508247 151.591088 
L 128.595679 152.112276 
L 129.683112 153.154659 
L 131.133022 156.610043 
" clip-path="url(#pd30e8be47a)" style="fill: none; stroke: #000000; stroke-width: 0.5; stroke-linecap: square"/>
   </g>
  </g>
 </g>
 <defs>
  <clipPath id="pd30e8be47a">
   <rect x="0" y="-0" width="142.693787" height="221.76"/>
  </clipPath>
 </defs>
</svg>
