<?xml version="1.0" encoding="utf-8" standalone="no"?>
<!DOCTYPE svg PUBLIC "-//W3C//DTD SVG 1.1//EN"
  "http://www.w3.org/Graphics/SVG/1.1/DTD/svg11.dtd">
<svg xmlns:xlink="http://www.w3.org/1999/xlink" width="223.2pt" height="217.375754pt" viewBox="0 0 223.2 217.375754" xmlns="http://www.w3.org/2000/svg" version="1.1">
 <metadata>
  <rdf:RDF xmlns:dc="http://purl.org/dc/elements/1.1/" xmlns:cc="http://creativecommons.org/ns#" xmlns:rdf="http://www.w3.org/1999/02/22-rdf-syntax-ns#">
   <cc:Work>
    <dc:type rdf:resource="http://purl.org/dc/dcmitype/StillImage"/>
    <dc:date>2026-04-26T19:22:26.797210</dc:date>
    <dc:format>image/svg+xml</dc:format>
    <dc:creator>
     <cc:Agent>
      <dc:title>Matplotlib v3.10.9, https://matplotlib.org/</dc:title>
     </cc:Agent>
    </dc:creator>
   </cc:Work>
  </rdf:RDF>
 </metadata>
 <defs>
  <style type="text/css">*{stroke-linejoin: round; stroke-linecap: butt}</style>
 </defs>
 <g id="figure_1">
  <g id="patch_1">
   <path d="M 0 217.375754 
L 223.2 217.375754 
L 223.2 0 
L 0 0 
z
" style="fill: #ffffff"/>
  </g>
  <g id="axes_1">
   <g id="patch_2">
    <path d="M 33.399958 9.987619 
L 50.273002 9.880716 
L 76.772316 10.201451 
L 97.214655 10.201451 
L 97.322817 44.43679 
L 97.214655 70.017614 
L 122.632372 88.45522 
L 146.644008 106.773723 
L 165.572083 121.835246 
L 179.200316 133.076585 
L 203.211951 153.780604 
L 203.211951 156.488882 
L 206.456762 160.027531 
L 209.160765 165.70373 
L 213.054545 168.785694 
L 210.675008 171.635118 
L 207.538359 173.061488 
L 205.158842 176.870412 
L 205.915954 182.000769 
L 205.375146 185.229244 
L 201.373223 188.343253 
L 202.671143 196.511263 
L 205.375146 196.631637 
L 206.456762 200.728642 
L 205.375146 202.659566 
L 201.481384 203.504942 
L 175.306536 205.559459 
L 153.998922 207.495038 
L 151.619385 204.592356 
L 151.511224 200.005018 
L 149.99698 194.586313 
L 147.184796 190.742069 
L 141.01966 185.468609 
L 133.123936 180.567651 
L 131.609693 181.8813 
L 128.581205 181.045245 
L 129.013832 178.89704 
L 125.552698 174.488925 
L 120.901805 175.441167 
L 112.681597 172.229307 
L 111.491838 169.616316 
L 105.975652 166.414501 
L 99.702354 166.532989 
L 94.510653 165.111653 
L 87.91285 165.70373 
L 84.451716 162.863438 
L 85.208847 156.84244 
L 84.019069 155.899774 
L 84.776201 151.663962 
L 79.5845 148.493667 
L 79.368176 144.158422 
L 77.421286 143.924387 
L 74.176475 140.184128 
L 71.9051 139.36703 
L 70.931664 137.034549 
L 63.360426 128.315926 
L 59.79113 125.766963 
L 59.033999 118.950187 
L 60.548242 119.526801 
L 61.954324 115.49478 
L 59.14216 111.817034 
L 55.681026 112.276303 
L 51.138275 108.949567 
L 49.51587 106.316017 
L 49.840355 103.800995 
L 47.568979 100.491816 
L 47.568979 95.029762 
L 51.246437 95.029762 
L 49.732193 87.437552 
L 48.109788 88.229008 
L 47.785303 91.965715 
L 43.891522 92.759522 
L 39.240629 89.926386 
L 38.483497 85.065596 
L 35.45501 81.233124 
L 31.453068 78.870855 
L 29.289854 76.175688 
L 23.449202 70.911747 
L 24.422638 69.347371 
L 21.718635 62.550757 
L 22.908394 58.776314 
L 21.177827 53.133331 
L 16.094287 47.622874 
L 11.11889 44.546534 
L 10.145455 40.929645 
L 15.120832 32.201163 
L 16.094287 29.268086 
L 15.120832 26.991271 
L 16.959561 21.046853 
L 15.337156 15.666349 
L 13.173942 14.378363 
L 14.039235 10.09453 
z
" clip-path="url(#p9af368e4d0)" style="stroke: #000000; stroke-linejoin: miter"/>
   </g>
   <g id="line2d_1">
    <path d="M 33.399958 9.987619 
L 50.273002 9.880716 
L 76.772316 10.201451 
L 97.214655 10.201451 
L 97.322817 44.43679 
L 97.214655 70.017614 
L 122.632372 88.45522 
L 146.644008 106.773723 
L 165.572083 121.835246 
L 179.200316 133.076585 
L 203.211951 153.780604 
L 203.211951 156.488882 
L 206.456762 160.027531 
L 209.160765 165.70373 
L 213.054545 168.785694 
L 210.675008 171.635118 
L 207.538359 173.061488 
L 205.158842 176.870412 
L 205.915954 182.000769 
L 205.375146 185.229244 
L 201.373223 188.343253 
L 202.671143 196.511263 
L 205.375146 196.631637 
L 206.456762 200.728642 
L 205.375146 202.659566 
L 201.481384 203.504942 
L 175.306536 205.559459 
L 153.998922 207.495038 
L 151.619385 204.592356 
L 151.511224 200.005018 
L 149.99698 194.586313 
L 147.184796 190.742069 
L 141.01966 185.468609 
L 133.123936 180.567651 
L 131.609693 181.8813 
L 128.581205 181.045245 
L 129.013832 178.89704 
L 125.552698 174.488925 
L 120.901805 175.441167 
L 112.681597 172.229307 
L 111.491838 169.616316 
L 105.975652 166.414501 
L 99.702354 166.532989 
L 94.510653 165.111653 
L 87.91285 165.70373 
L 84.451716 162.863438 
L 85.208847 156.84244 
L 84.019069 155.899774 
L 84.776201 151.663962 
L 79.5845 148.493667 
L 79.368176 144.158422 
L 77.421286 143.924387 
L 74.176475 140.184128 
L 71.9051 139.36703 
L 70.931664 137.034549 
L 63.360426 128.315926 
L 59.79113 125.766963 
L 59.033999 118.950187 
L 60.548242 119.526801 
L 61.954324 115.49478 
L 59.14216 111.817034 
L 55.681026 112.276303 
L 51.138275 108.949567 
L 49.51587 106.316017 
L 49.840355 103.800995 
L 47.568979 100.491816 
L 47.568979 95.029762 
L 51.246437 95.029762 
L 49.732193 87.437552 
L 48.109788 88.229008 
L 47.785303 91.965715 
L 43.891522 92.759522 
L 39.240629 89.926386 
L 38.483497 85.065596 
L 35.45501 81.233124 
L 31.453068 78.870855 
L 29.289854 76.175688 
L 23.449202 70.911747 
L 24.422638 69.347371 
L 21.718635 62.550757 
L 22.908394 58.776314 
L 21.177827 53.133331 
L 16.094287 47.622874 
L 11.11889 44.546534 
L 10.145455 40.929645 
L 15.120832 32.201163 
L 16.094287 29.268086 
L 15.120832 26.991271 
L 16.959561 21.046853 
L 15.337156 15.666349 
L 13.173942 14.378363 
L 14.039235 10.09453 
L 33.399958 9.987619 
" clip-path="url(#p9af368e4d0)" style="fill: none; stroke: #000000; stroke-width: 0.5; stroke-linecap: square"/>
   </g>
  </g>
 </g>
 <defs>
  <clipPath id="p9af368e4d0">
   <rect x="0" y="-0" width="223.2" height="217.375754"/>
  </clipPath>
 </defs>
</svg>
