<?xml version="1.0" encoding="utf-8" standalone="no"?>
<!DOCTYPE svg PUBLIC "-//W3C//DTD SVG 1.1//EN"
  "http://www.w3.org/Graphics/SVG/1.1/DTD/svg11.dtd">
<svg xmlns:xlink="http://www.w3.org/1999/xlink" width="114.161756pt" height="221.76pt" viewBox="0 0 114.161756 221.76" xmlns="http://www.w3.org/2000/svg" version="1.1">
 <metadata>
  <rdf:RDF xmlns:dc="http://purl.org/dc/elements/1.1/" xmlns:cc="http://creativecommons.org/ns#" xmlns:rdf="http://www.w3.org/1999/02/22-rdf-syntax-ns#">
   <cc:Work>
    <dc:type rdf:resource="http://purl.org/dc/dcmitype/StillImage"/>
    <dc:date>2026-04-26T19:22:09.773716</dc:date>
    <dc:format>image/svg+xml</dc:format>
    <dc:creator>
     <cc:Agent>
      <dc:title>Matplotlib v3.10.9, https://matplotlib.org/</dc:title>
     </cc:Agent>
    </dc:creator>
   </cc:Work>
  </rdf:RDF>
 </metadata>
 <defs>
  <style type="text/css">*{stroke-linejoin: round; stroke-linecap: butt}</style>
 </defs>
 <g id="figure_1">
  <g id="patch_1">
   <path d="M 0 221.76 
L 114.161756 221.76 
L 114.161756 0 
L 0 0 
z
" style="fill: #ffffff"/>
  </g>
  <g id="axes_1">
   <g id="patch_2">
    <path d="M 43.144879 202.577865 
L 39.114853 202.578785 
L 35.083434 202.579705 
L 31.053408 202.579705 
L 30.851574 202.579751 
L 27.891361 202.580427 
L 27.023382 202.580625 
L 25.210288 202.580625 
L 24.937349 202.521748 
L 24.085112 201.959656 
L 23.851164 201.88698 
L 23.608861 201.768308 
L 23.267687 201.46013 
L 22.955757 201.095841 
L 22.783082 200.813429 
L 22.753838 200.446389 
L 22.797007 200.078435 
L 22.785867 199.74544 
L 22.631075 199.445145 
L 22.801031 199.234375 
L 22.801031 199.123559 
L 22.89533 198.818636 
L 22.945768 195.508178 
L 23.353663 193.122852 
L 23.58612 192.390794 
L 23.637655 192.098267 
L 23.684804 189.840733 
L 23.821866 189.031323 
L 24.029103 188.294339 
L 24.281296 187.779625 
L 24.568577 187.319216 
L 24.735244 186.832759 
L 24.765946 186.268135 
L 24.249498 183.673253 
L 24.012655 183.253473 
L 24.012655 183.142016 
L 24.140945 183.146359 
L 24.226471 183.115237 
L 24.381077 183.020427 
L 24.381077 182.900287 
L 24.171647 182.921999 
L 24.025813 182.876403 
L 23.91726 182.780147 
L 23.821866 182.657113 
L 23.735243 182.494999 
L 23.382172 181.619318 
L 22.379978 179.962157 
L 21.815285 179.315978 
L 20.509362 178.143079 
L 20.807608 178.056254 
L 21.136556 177.839918 
L 22.242917 176.726446 
L 22.540066 176.575963 
L 22.900812 176.563664 
L 22.46989 176.399436 
L 22.092697 176.594049 
L 21.742916 176.89357 
L 21.38217 177.049844 
L 20.46002 177.159092 
L 20.295546 177.059249 
L 20.229757 176.832074 
L 20.292257 176.588985 
L 20.509362 176.442844 
L 20.111335 175.192741 
L 19.47208 174.020857 
L 19.288966 173.570934 
L 19.213308 173.154297 
L 19.551028 173.583954 
L 19.627782 173.640375 
L 19.693572 173.719942 
L 19.802125 174.106213 
L 19.864625 174.246546 
L 20.035677 174.352159 
L 20.26923 174.389051 
L 20.785678 174.379647 
L 20.649713 174.284885 
L 20.226467 174.126468 
L 20.090502 174.026644 
L 20.03787 173.952861 
L 19.999493 173.859549 
L 19.907388 173.701135 
L 19.796642 173.332234 
L 19.836116 172.878715 
L 19.992914 172.45414 
L 20.226467 172.173507 
L 20.737433 172.774559 
L 21.015942 172.862079 
L 21.151907 172.426655 
L 21.605854 172.724651 
L 21.7791 172.896074 
L 21.88875 173.154297 
L 21.967697 172.965512 
L 21.96989 172.778899 
L 21.90739 172.598798 
L 21.805416 172.426655 
L 21.848179 172.418699 
L 21.989627 172.426655 
L 21.355854 172.125771 
L 21.058705 171.895773 
L 20.969889 171.56597 
L 21.144231 171.327301 
L 21.491819 171.168913 
L 21.873399 171.087189 
L 22.15739 171.079957 
L 22.156294 171.001849 
L 22.137653 170.947608 
L 22.07296 170.836956 
L 22.108048 170.81309 
L 22.137653 170.81526 
L 22.15739 170.795733 
L 22.15739 170.704609 
L 20.815283 171.008358 
L 20.408485 170.958456 
L 20.196862 170.653262 
L 20.261555 170.201268 
L 20.479757 169.792677 
L 20.739626 169.613334 
L 20.961117 169.347217 
L 21.544451 168.179395 
L 21.940285 167.91475 
L 21.996206 167.819305 
L 22.055416 167.641433 
L 22.024715 167.537313 
L 21.805416 167.660955 
L 21.552126 167.906073 
L 21.436995 168.07021 
L 21.336117 168.279181 
L 21.244012 168.279181 
L 21.244012 167.91475 
L 21.004977 168.153364 
L 20.56638 169.034102 
L 20.325151 169.381205 
L 20.031291 169.581516 
L 19.663967 169.717469 
L 19.394229 169.650215 
L 19.397519 169.248871 
L 19.213308 169.491845 
L 18.953439 169.312507 
L 18.710018 168.985652 
L 18.57515 168.576372 
L 18.651904 168.157703 
L 18.461114 167.889442 
L 18.305412 167.96898 
L 17.926026 168.521416 
L 17.960017 168.58071 
L 18.019228 168.684837 
L 18.125588 168.738347 
L 18.248395 168.773056 
L 18.38436 168.884416 
L 18.397518 168.965405 
L 18.535676 169.389159 
L 18.689185 169.602487 
L 18.912869 169.840406 
L 19.032387 170.136182 
L 18.844887 170.473909 
L 18.651904 170.372663 
L 18.555413 170.345181 
L 18.461114 170.292389 
L 18.283483 170.110148 
L 18.110237 169.734824 
L 18.033482 169.661062 
L 17.973175 169.617673 
L 17.936991 169.543912 
L 17.926026 169.381205 
L 17.759359 169.407238 
L 17.640938 169.476659 
L 17.571859 169.602487 
L 17.548833 169.799909 
L 17.912868 170.088452 
L 18.00936 170.231642 
L 18.040061 170.439919 
L 18.007167 170.596852 
L 17.953438 170.767528 
L 17.926026 171.019206 
L 17.9655 171.155172 
L 18.178219 171.309943 
L 18.283483 171.444465 
L 18.110237 171.548612 
L 17.897517 171.623829 
L 17.410675 171.687475 
L 17.158481 171.649866 
L 16.697955 171.482073 
L 16.486332 171.444465 
L 16.085015 171.177592 
L 15.934796 170.570817 
L 16.002778 169.914168 
L 16.252779 169.491845 
L 16.252779 169.381205 
L 15.919445 169.480275 
L 15.769226 169.776044 
L 15.689182 170.086283 
L 15.230848 170.644584 
L 14.831725 170.552737 
L 14.696856 170.583835 
L 14.702339 170.258399 
L 14.730847 170.009627 
L 14.69576 169.804248 
L 14.50497 169.613334 
L 14.347075 169.577177 
L 14.101461 169.577177 
L 13.862425 169.610442 
L 13.72646 169.674079 
L 13.52032 169.63069 
L 12.803214 169.034825 
L 11.634353 168.305935 
L 11.469879 168.157703 
L 11.445756 167.656617 
L 11.702335 166.591596 
L 11.736327 166.084058 
L 11.322949 165.578708 
L 10.999484 164.981564 
L 10.765931 164.296976 
L 10.440273 161.766395 
L 10.511545 161.329862 
L 10.861326 160.539224 
L 10.991808 160.118629 
L 10.693562 160.556568 
L 10.518124 160.68087 
L 10.440273 160.427931 
L 10.473167 160.212575 
L 10.531282 159.995055 
L 10.568562 159.765254 
L 10.532378 159.513055 
L 10.427115 159.384428 
L 10.132158 159.244963 
L 10.026895 158.956645 
L 9.921632 158.75721 
L 9.796632 158.583791 
L 9.696851 158.531766 
L 9.644219 158.762991 
L 10.061983 159.596157 
L 10.156281 159.998668 
L 10.077334 160.273279 
L 9.954527 160.339765 
L 9.844877 160.222693 
L 9.796632 159.942302 
L 9.144219 159.26881 
L 9.136543 159.497157 
L 9.15628 159.683596 
L 9.219877 159.819452 
L 9.336105 159.886658 
L 9.157377 160.315917 
L 9.098166 160.372285 
L 9.007157 160.328925 
L 8.739613 160.12152 
L 8.683692 160.059371 
L 8.583911 159.90906 
L 8.36242 159.79994 
L 8.140928 159.635902 
L 8.038954 159.329509 
L 7.895314 158.673391 
L 7.294436 157.534657 
L 7.211103 156.833837 
L 6.989611 157.281056 
L 7.079524 157.79621 
L 7.283471 158.33017 
L 7.623384 159.977711 
L 7.746191 160.118629 
L 7.900796 160.218357 
L 8.038954 160.372285 
L 8.121191 160.831913 
L 7.838296 161.04222 
L 6.154084 161.209167 
L 6.002768 161.113769 
L 6.068558 160.893343 
L 6.235224 160.650517 
L 6.384347 160.482855 
L 6.222067 160.38168 
L 6.071847 160.380235 
L 5.965487 160.475628 
L 5.881057 160.857208 
L 5.772505 160.926587 
L 5.624478 160.913579 
L 5.465487 160.857208 
L 5.259346 160.584753 
L 5.189171 160.160544 
L 5.25496 159.842576 
L 5.465487 159.886658 
L 5.535662 159.657581 
L 5.822943 159.027459 
L 5.637636 159.206665 
L 5.46768 159.210278 
L 5.338294 159.058531 
L 5.272504 158.773107 
L 5.305399 158.537547 
L 5.406276 158.295487 
L 5.640926 157.935659 
L 6.032373 157.58451 
L 6.108031 157.44073 
L 6.112417 157.222534 
L 6.059786 157.010122 
L 6.032373 156.799158 
L 6.108031 156.580973 
L 6.200137 156.713184 
L 6.151891 156.010242 
L 6.17711 155.654813 
L 6.333909 155.500219 
L 6.38983 155.466266 
L 6.402571 155.465898 
L 6.632341 155.171861 
L 6.58221 154.917279 
L 6.541826 154.671877 
L 6.498657 154.293921 
L 6.617023 154.021928 
L 6.984655 153.664631 
L 7.066815 153.343578 
L 7.595983 152.242887 
L 7.595983 152.240136 
L 7.796509 151.871427 
L 7.921838 151.521073 
L 8.120972 150.74657 
L 8.204525 150.509506 
L 8.466323 149.983123 
L 8.6014 149.793759 
L 8.751795 149.703892 
L 8.910545 149.667671 
L 9.051192 149.583307 
L 9.148671 149.35452 
L 9.50934 146.944047 
L 9.495414 146.755192 
L 9.384011 146.326612 
L 9.368693 146.09239 
L 9.455031 145.663378 
L 9.74468 144.913104 
L 9.833803 144.516217 
L 9.82684 144.1418 
L 9.779494 143.799016 
L 9.759998 143.452119 
L 9.843551 143.068116 
L 10.04547 142.723075 
L 10.298913 142.404162 
L 10.503617 142.058226 
L 10.563497 141.630288 
L 10.425635 141.157469 
L 10.172191 140.808366 
L 9.871402 140.502796 
L 9.599855 140.15738 
L 9.423002 139.708906 
L 9.52605 139.454214 
L 9.764176 139.222889 
L 10.000908 138.842246 
L 10.060788 138.397034 
L 9.942421 138.087871 
L 9.797597 137.806655 
L 9.772531 137.447131 
L 9.915963 137.155399 
L 10.392214 136.736822 
L 10.573244 136.435494 
L 10.803014 136.145623 
L 11.092664 136.199658 
L 11.386491 136.338411 
L 11.624616 136.299945 
L 11.673355 136.068691 
L 11.702599 135.564074 
L 11.775011 135.443647 
L 11.990856 135.297122 
L 12.160746 135.058566 
L 12.449003 134.511419 
L 12.449003 134.508672 
L 13.692546 132.813397 
L 15.540454 130.860281 
L 15.884412 130.228704 
L 16.268755 129.164729 
L 16.452571 128.890631 
L 16.637779 128.757475 
L 16.796529 128.736427 
L 16.96642 128.755645 
L 17.179479 128.739172 
L 17.555467 128.441294 
L 17.963482 127.408632 
L 18.360358 127.084261 
L 18.441012 127.045021 
L 18.98004 126.782776 
L 19.254372 126.602988 
L 19.467431 126.329881 
L 19.782147 125.548574 
L 19.982673 125.328101 
L 20.382334 125.22244 
L 20.545815 125.221164 
L 21.027082 125.217408 
L 21.19558 125.042682 
L 21.208371 124.98963 
L 22.230241 120.752431 
L 22.482292 120.380299 
L 22.802577 120.410471 
L 23.064376 120.578249 
L 23.326174 120.678826 
L 23.642282 120.505103 
L 26.941222 116.84858 
L 27.25733 116.613702 
L 27.445323 116.665795 
L 27.555334 116.952769 
L 27.748898 118.254329 
L 27.889545 118.598947 
L 28.172232 118.8869 
L 28.544042 119.031338 
L 32.014265 118.966432 
L 32.02262 118.568781 
L 32.078322 118.291807 
L 32.188333 118.052318 
L 32.354046 117.761651 
L 32.438991 117.678474 
L 32.515581 117.65471 
L 32.572675 117.596212 
L 32.65205 116.241748 
L 32.766239 115.576477 
L 32.933344 114.934102 
L 33.128301 114.436135 
L 33.377566 114.85278 
L 33.449979 115.722686 
L 33.693674 115.975816 
L 34.048773 116.129343 
L 34.991526 116.782777 
L 36.0986 117.327496 
L 36.540037 117.718691 
L 36.760059 118.424351 
L 36.883996 119.229715 
L 37.154149 120.002696 
L 37.584446 120.565906 
L 38.840522 120.866726 
L 39.300062 121.339463 
L 39.559075 122.050446 
L 39.600851 122.893641 
L 39.578571 123.596516 
L 39.62174 124.287555 
L 39.848724 125.654696 
L 40.113308 126.49777 
L 40.334723 126.765392 
L 40.696785 126.831269 
L 41.530703 126.716913 
L 41.927795 126.662459 
L 42.000207 126.693568 
L 42.150602 126.81846 
L 42.24808 126.836759 
L 42.328848 126.791011 
L 42.47228 126.623117 
L 42.522411 126.584689 
L 42.670021 126.602073 
L 42.962456 126.696313 
L 43.110066 126.707292 
L 43.442884 126.603903 
L 43.788235 126.380201 
L 44.051426 126.058612 
L 44.136372 125.654696 
L 44.218532 124.921016 
L 44.420451 124.322314 
L 44.77555 123.945916 
L 45.307502 123.876858 
L 45.673742 123.608864 
L 45.992634 123.028541 
L 46.382547 121.836002 
L 46.470277 121.365067 
L 46.505091 120.885013 
L 46.439641 120.567277 
L 46.143029 120.129324 
L 46.055299 119.864643 
L 46.130496 119.390613 
L 46.374192 118.94175 
L 47.202756 117.947202 
L 47.982582 117.304646 
L 48.032713 117.212334 
L 48.081452 116.981102 
L 48.135762 116.897933 
L 48.199819 116.875998 
L 48.337681 116.894277 
L 48.488076 116.847666 
L 48.69835 116.836699 
L 48.790258 116.793744 
L 48.86824 116.654828 
L 48.891914 116.484841 
L 48.930905 116.325825 
L 49.131432 116.156759 
L 49.703768 115.477788 
L 49.85834 115.356255 
L 50.042156 115.282239 
L 50.192551 115.300515 
L 50.313703 115.373616 
L 50.427891 115.41565 
L 50.557398 115.346203 
L 50.679942 114.945067 
L 50.512836 114.50192 
L 49.987847 113.754563 
L 49.318033 112.487499 
L 49.128646 112.277407 
L 48.808361 112.197938 
L 48.730378 112.094722 
L 48.837604 111.937616 
L 49.078515 111.70105 
L 49.351454 111.365851 
L 50.186981 109.74211 
L 50.979387 108.732135 
L 51.823222 107.656753 
L 52.182498 106.957496 
L 52.394165 106.765805 
L 52.562663 106.56499 
L 52.61558 106.205363 
L 52.423409 105.169473 
L 52.401128 104.797134 
L 52.442904 104.408388 
L 52.534812 104.046123 
L 53.019418 102.897391 
L 54.357654 100.47185 
L 54.867326 99.77781 
L 54.943916 99.521552 
L 54.907709 99.229738 
L 54.814409 98.796598 
L 54.740604 98.119126 
L 54.739212 97.433968 
L 54.815801 97.005492 
L 55.365857 95.98728 
L 55.42797 95.758728 
L 55.468905 95.608107 
L 55.481438 95.257208 
L 55.266986 93.832826 
L 55.233565 93.03054 
L 55.338006 92.269796 
L 55.647151 91.697698 
L 55.940978 91.53874 
L 56.459005 91.652151 
L 56.743084 91.600227 
L 56.903227 91.451291 
L 57.010453 91.248616 
L 57.096791 91.035016 
L 57.198447 90.855123 
L 57.603677 90.488976 
L 57.720651 90.326858 
L 57.712296 89.838703 
L 57.674697 89.58872 
L 57.358589 88.589786 
L 57.248578 88.33484 
L 57.618995 88.490083 
L 57.811166 88.530146 
L 57.997768 88.507383 
L 58.210827 88.387195 
L 58.366792 88.244701 
L 58.53529 88.13089 
L 58.780378 88.094016 
L 58.955839 88.159115 
L 59.390313 88.418152 
L 59.589447 88.468231 
L 59.796936 88.403584 
L 61.176948 87.458536 
L 61.416466 87.117149 
L 61.614208 86.55003 
L 61.732574 86.052133 
L 61.830052 85.845066 
L 61.983232 85.747223 
L 62.175403 85.757235 
L 62.346687 85.797282 
L 62.513792 85.800922 
L 62.69343 85.701715 
L 62.984472 85.181129 
L 63.134867 84.425804 
L 63.438442 81.107946 
L 63.340964 80.466311 
L 63.356282 79.75563 
L 63.626436 78.917736 
L 64.248903 77.469978 
L 64.332456 77.166832 
L 64.38398 76.841886 
L 64.396513 76.145693 
L 64.287895 75.618601 
L 64.156995 75.262839 
L 63.774045 75.185146 
L 63.709988 75.126991 
L 63.804681 74.807602 
L 63.893804 74.723554 
L 64.68477 74.238375 
L 64.796174 74.139344 
L 64.945176 73.946285 
L 65.335089 73.296289 
L 65.51612 73.111431 
L 66.449125 72.585503 
L 67.508852 72.374327 
L 68.386156 71.922934 
L 68.763535 70.676554 
L 68.830378 69.538461 
L 69.004446 68.35429 
L 69.135345 67.934054 
L 69.262067 67.644989 
L 69.295488 67.363651 
L 69.147878 66.96844 
L 68.756573 66.443498 
L 68.618711 66.162217 
L 68.59643 65.765271 
L 68.699478 65.409176 
L 69.016979 64.76463 
L 69.07268 64.348276 
L 69.019764 64.011314 
L 68.858228 63.437661 
L 68.854051 63.087149 
L 69.093569 62.489104 
L 69.543361 62.266496 
L 70.600303 62.118247 
L 70.850961 61.976802 
L 71.043431 61.830325 
L 71.168461 61.735175 
L 71.455325 61.45276 
L 71.612683 61.190756 
L 71.827135 60.5988 
L 71.856378 60.364482 
L 71.834098 60.160991 
L 71.74219 59.803879 
L 71.746367 59.575938 
L 72.047157 58.486657 
L 72.506697 55.177965 
L 73.012191 52.986387 
L 73.382608 51.977585 
L 75.78266 47.574816 
L 75.855789 47.365781 
L 75.952551 47.089208 
L 75.863428 46.425074 
L 75.923307 46.066141 
L 76.072309 45.765542 
L 76.289546 45.527335 
L 76.802003 45.14677 
L 76.963538 44.875147 
L 77.194701 44.17966 
L 77.517771 43.446312 
L 77.963386 42.720295 
L 78.470272 42.061231 
L 78.988299 41.527355 
L 79.403278 41.525548 
L 79.933838 41.721567 
L 80.877983 42.236039 
L 81.156492 42.288438 
L 81.45589 42.190417 
L 81.742754 41.9998 
L 81.983664 41.774412 
L 82.354081 41.282116 
L 82.518402 41.192243 
L 82.881856 41.136242 
L 82.987689 41.080243 
L 84.188063 39.661935 
L 84.441507 39.480442 
L 85.239435 39.160813 
L 85.522122 38.948189 
L 86.016475 38.381236 
L 86.299162 38.162327 
L 86.995435 37.83917 
L 87.226597 37.680307 
L 87.388133 37.360791 
L 87.52878 36.942473 
L 87.631828 36.5093 
L 87.68196 36.144741 
L 87.676389 35.702614 
L 87.598407 35.351647 
L 87.448012 35.053931 
L 87.22799 34.771568 
L 87.15697 34.6552 
L 87.109624 34.530716 
L 87.053922 34.417961 
L 86.953658 34.340387 
L 86.723889 34.343995 
L 86.669579 34.317837 
L 86.547035 34.106771 
L 86.52754 33.954341 
L 86.590204 33.801013 
L 87.084558 32.967713 
L 87.184821 32.674649 
L 87.473078 30.898603 
L 87.626258 30.34789 
L 87.676389 29.762994 
L 87.673604 29.638634 
L 87.649931 29.448496 
L 87.395095 28.696125 
L 87.368637 28.361875 
L 87.609547 28.160076 
L 87.578911 27.977202 
L 87.811466 26.727002 
L 87.892234 26.524371 
L 87.959076 26.419907 
L 87.992497 26.310942 
L 88.252903 25.974158 
L 88.230623 25.788667 
L 88.165173 25.622991 
L 88.00503 25.514945 
L 87.892234 25.569868 
L 87.705633 25.694123 
L 87.530172 25.773359 
L 87.453582 25.693222 
L 87.365852 25.331273 
L 87.152792 25.107094 
L 86.881246 24.923437 
L 86.616663 24.682173 
L 86.748954 24.589452 
L 86.800478 24.563346 
L 86.800478 24.43372 
L 86.652869 24.353606 
L 86.253208 23.971957 
L 86.157123 23.849548 
L 86.130664 23.688441 
L 86.200291 23.431941 
L 86.157123 23.254649 
L 85.789491 23.006272 
L 84.927505 22.739011 
L 82.157732 22.631931 
L 81.950243 22.576142 
L 81.771997 22.438473 
L 81.649453 22.173944 
L 81.639706 21.970609 
L 81.720473 21.43802 
L 81.724651 21.104284 
L 81.654565 20.817333 
L 81.634135 20.733694 
L 81.616032 19.389205 
L 80.858488 14.759589 
L 80.100943 10.134738 
L 84.860663 10.08 
L 85.093218 10.268444 
L 85.707783 11.480363 
L 85.722648 11.509681 
L 85.913427 11.770448 
L 86.026223 12.02764 
L 86.066607 12.315371 
L 86.045719 12.669112 
L 85.836837 13.463787 
L 85.829874 13.685154 
L 85.969129 13.937067 
L 86.381322 14.334499 
L 86.623625 14.647979 
L 86.623625 15.304202 
L 86.651476 15.458727 
L 86.701608 15.540035 
L 86.780983 15.551714 
L 86.897957 15.496461 
L 86.897957 15.666716 
L 86.91606 15.827093 
L 86.977332 15.922334 
L 87.106838 15.897176 
L 87.364459 15.646051 
L 87.453582 15.619098 
L 87.558023 15.673903 
L 87.584481 15.763301 
L 87.590052 15.871119 
L 87.637398 15.974897 
L 87.872738 16.165837 
L 87.959076 16.266476 
L 88.179098 16.425527 
L 88.577366 16.290738 
L 88.791818 16.385988 
L 88.883726 16.671753 
L 88.685985 17.242436 
L 88.84195 17.529153 
L 89.046654 17.099534 
L 89.117674 17.043812 
L 89.24161 17.100433 
L 89.359977 17.243335 
L 89.4491 17.419497 
L 89.485306 17.583982 
L 89.585569 17.864428 
L 89.819517 17.899485 
L 90.263739 17.767348 
L 90.419704 18.125114 
L 90.865318 20.261504 
L 90.815187 20.355039 
L 90.706568 20.623062 
L 90.681502 20.737291 
L 90.673147 20.930678 
L 90.692643 20.96306 
L 90.752522 20.973854 
L 90.865318 21.104284 
L 90.83886 21.01793 
L 90.893169 21.008035 
L 90.9809 21.045815 
L 91.049134 21.104284 
L 91.06306 21.173548 
L 91.040779 21.37325 
L 91.049134 21.449715 
L 91.234343 21.877041 
L 91.464113 23.196153 
L 91.437654 23.351844 
L 91.418159 24.563346 
L 91.394485 24.774896 
L 91.326251 25.067481 
L 91.326251 25.276352 
L 91.365242 25.406001 
L 91.432084 25.482532 
L 91.489179 25.57437 
L 91.508674 25.75265 
L 91.452972 25.868805 
L 91.351317 25.89852 
L 91.283082 25.975058 
L 91.326251 26.228995 
L 91.394485 26.349665 
L 91.739837 26.650452 
L 92.036449 27.09086 
L 92.225835 27.280905 
L 92.38737 27.251182 
L 92.61714 27.032316 
L 92.859443 26.998992 
L 93.110101 27.133191 
L 93.36633 27.417814 
L 93.30088 27.525904 
L 93.250748 27.714165 
L 93.246571 27.922251 
L 93.316198 28.088907 
L 93.415069 28.229443 
L 93.423424 28.33665 
L 93.390003 28.469986 
L 93.36633 28.684412 
L 93.504192 28.939393 
L 93.735354 29.191685 
L 93.793841 29.386319 
L 93.408106 29.463815 
L 93.351012 29.541311 
L 93.381648 29.714331 
L 93.44849 29.895468 
L 93.500014 29.994601 
L 93.554323 30.160427 
L 93.462415 30.314543 
L 93.332909 30.458749 
L 93.266066 30.594847 
L 93.29531 31.03201 
L 93.387218 31.306045 
L 93.545968 31.447576 
L 93.775738 31.487241 
L 93.863468 31.674755 
L 94.194894 32.679158 
L 94.119697 32.856798 
L 93.901067 33.120114 
L 93.82587 33.285144 
L 93.849543 33.35729 
L 93.992975 33.530445 
L 94.009686 33.64318 
L 93.953984 33.726154 
L 93.863468 33.738781 
L 93.775738 33.731566 
L 93.725606 33.751408 
L 93.619773 34.123909 
L 93.5961 34.463965 
L 93.635091 34.810358 
L 93.84815 35.594344 
L 93.99019 35.903822 
L 94.368962 36.514714 
L 94.527712 37.079652 
L 94.348074 37.561615 
L 93.725606 38.433596 
L 93.603062 38.7437 
L 93.516725 39.083166 
L 93.431779 39.992432 
L 93.36633 40.261089 
L 93.36633 40.461124 
L 93.408106 40.591625 
L 93.479126 40.669295 
L 93.539005 40.76232 
L 93.550146 40.938891 
L 93.45963 41.227469 
L 93.149093 41.806933 
L 93.080858 42.082912 
L 92.986165 43.165742 
L 93.088534 44.955332 
L 93.174158 46.45265 
L 93.54179 47.571199 
L 93.679652 47.832559 
L 93.764598 48.140963 
L 93.718644 48.572395 
L 93.550146 49.320476 
L 93.587744 49.979542 
L 94.616835 52.534689 
L 94.719884 52.956514 
L 94.700388 53.233072 
L 94.565311 53.542235 
L 94.483151 53.967759 
L 94.474796 54.40056 
L 94.562526 54.734238 
L 94.646079 54.827961 
L 94.770015 54.904027 
L 94.919018 54.954739 
L 95.072198 54.973756 
L 95.214237 55.010884 
L 95.304753 55.092839 
L 95.370202 55.175248 
L 95.641749 55.337806 
L 95.761508 55.637125 
L 95.949501 56.289704 
L 96.144458 56.567786 
L 96.321311 56.755296 
L 96.450818 56.966817 
L 96.502342 57.311973 
L 96.530193 57.755452 
L 96.615138 58.111529 
L 96.761355 58.413714 
L 98.617618 60.632339 
L 99.118934 61.553394 
L 99.311106 61.698909 
L 99.304143 61.775067 
L 99.923826 62.469608 
L 100.822017 63.163325 
L 101.295483 63.356946 
L 101.878959 64.035803 
L 101.643619 64.126505 
L 98.620403 65.081678 
L 97.860073 65.107986 
L 95.595795 64.161879 
L 94.795081 64.119249 
L 94.176791 64.206777 
L 94.057032 64.253036 
L 93.905245 64.370953 
L 93.665727 64.655777 
L 93.52508 64.773702 
L 93.144915 64.885732 
L 92.732722 64.847179 
L 91.947326 64.605433 
L 91.327643 64.576406 
L 89.635701 65.256311 
L 89.095393 65.220023 
L 85.161453 63.965057 
L 81.871819 64.248721 
L 81.674519 64.265735 
L 81.564508 64.321065 
L 81.53248 64.451228 
L 81.525517 64.622668 
L 81.494881 64.800008 
L 80.840385 66.4807 
L 80.418443 67.224802 
L 79.31694 68.460489 
L 78.498123 69.982415 
L 78.520404 70.243899 
L 79.717993 71.456136 
L 83.555848 77.180921 
L 83.68814 77.936316 
L 83.936013 78.496785 
L 86.929289 81.61798 
L 89.922565 84.740664 
L 90.13841 84.828937 
L 90.263739 84.776155 
L 90.382105 84.748854 
L 90.500471 84.751584 
L 90.6258 84.787075 
L 90.812402 84.922216 
L 91.344354 85.432771 
L 91.464113 85.599779 
L 91.532347 85.818216 
L 91.62147 85.901496 
L 91.720341 85.947916 
L 91.816427 86.054863 
L 91.893017 86.219611 
L 92.014168 86.666545 
L 92.046197 86.880919 
L 92.046197 87.044322 
L 92.094936 87.160846 
L 92.275967 87.232308 
L 92.778676 87.329717 
L 93.121242 87.46855 
L 93.399751 87.732113 
L 93.623951 88.08309 
L 94.192109 89.294124 
L 94.970542 90.290427 
L 95.175246 90.633338 
L 95.539076 91.64378 
L 97.353187 96.684152 
L 98.177574 100.46729 
L 98.638506 101.917594 
L 99.273507 102.526075 
L 99.563156 102.542497 
L 99.98649 102.669308 
L 100.284495 102.746856 
L 100.274747 104.552568 
L 100.096501 105.601153 
L 99.733047 106.567729 
L 99.181599 107.500647 
L 99.077158 107.750783 
L 98.351642 109.032625 
L 98.298725 109.310202 
L 98.560524 109.627054 
L 98.53128 109.859907 
L 98.472793 109.876344 
L 98.21935 109.896433 
L 98.133012 109.919262 
L 98.05503 110.018798 
L 97.943626 110.311934 
L 97.892102 110.414215 
L 97.257101 111.053497 
L 96.221048 111.812482 
L 96.022208 112.033695 
L 95.716946 112.373318 
L 95.463503 113.209163 
L 95.276902 113.61387 
L 95.214237 113.808465 
L 95.197527 113.975656 
L 95.262976 115.002632 
L 95.22677 115.182639 
L 95.112581 115.363565 
L 94.803436 115.550891 
L 94.680892 115.655978 
L 94.534675 115.948401 
L 94.437197 116.281045 
L 94.22553 117.374109 
L 93.781308 118.906097 
L 93.495836 119.645681 
L 93.268851 120.450701 
L 93.165803 120.698485 
L 93.001483 120.879527 
L 92.192414 121.407587 
L 91.973784 121.601446 
L 91.789968 121.874867 
L 91.64744 122.297375 
L 90.103596 126.875188 
L 89.765207 127.480461 
L 89.735964 127.682228 
L 89.794451 128.099043 
L 89.798629 128.291672 
L 89.767993 128.48705 
L 89.631523 128.813758 
L 89.127422 129.661693 
L 88.914362 129.884558 
L 86.99265 131.090496 
L 86.434239 131.085004 
L 86.313088 131.368776 
L 86.111169 131.700617 
L 85.722648 132.201375 
L 85.519337 132.280565 
L 85.207407 132.676524 
L 85.027768 132.892134 
L 85.044479 132.953476 
L 85.056579 133.050817 
L 85.068152 133.143914 
L 85.008273 133.315585 
L 84.966496 133.392037 
L 84.91915 133.542654 
L 84.860663 133.617735 
L 84.789643 133.619566 
L 84.648996 133.480393 
L 84.584939 133.496874 
L 84.484676 133.641541 
L 84.444292 133.76103 
L 84.473535 133.902496 
L 84.584939 134.113097 
L 84.697735 134.257315 
L 84.852308 134.501347 
L 85.051442 134.710586 
L 85.24779 134.983933 
L 85.341091 135.270107 
L 85.399578 135.579642 
L 85.501234 135.858507 
L 85.722648 136.054038 
L 85.952418 136.05587 
L 86.375752 136.119979 
L 86.574886 136.090672 
L 86.939733 135.796231 
L 87.105446 135.809969 
L 87.283692 136.163024 
L 87.350534 136.519297 
L 87.54549 136.845815 
L 87.634613 138.736438 
L 87.729306 139.095549 
L 87.638791 139.351606 
L 87.453582 140.31726 
L 87.214064 141.119901 
L 87.177858 141.396167 
L 87.195961 141.703595 
L 87.264196 141.946887 
L 87.453582 142.364757 
L 87.542705 142.64472 
L 87.564986 142.865122 
L 87.54549 143.399879 
L 87.500929 143.585011 
L 87.30458 144.085433 
L 87.260018 144.378731 
L 87.273944 144.886522 
L 87.214064 145.089553 
L 87.035819 145.17205 
L 87.031641 145.310005 
L 86.917452 145.605627 
L 86.782375 145.880174 
L 86.716926 145.953509 
L 86.690467 146.185895 
L 86.61527 146.500334 
L 86.496904 146.800572 
L 86.340939 146.988053 
L 86.230927 147.031142 
L 86.285237 147.224586 
L 86.498296 147.541804 
L 86.778198 147.776056 
L 87.358889 148.030485 
L 87.640183 148.211568 
L 87.856028 148.492137 
L 88.00503 148.859823 
L 88.103901 149.267407 
L 88.162388 149.670422 
L 88.159603 150.56453 
L 88.219482 151.250977 
L 88.123397 151.907197 
L 88.120811 151.984465 
L 88.112256 152.240136 
L 88.165173 152.441004 
L 88.251511 152.593721 
L 88.314175 152.762951 
L 88.282147 153.23809 
L 88.332278 153.416502 
L 88.410261 153.590788 
L 88.482673 153.80498 
L 88.67763 155.482412 
L 88.666489 155.661774 
L 88.605217 156.097573 
L 88.548123 156.293459 
L 88.532805 156.409982 
L 88.621928 156.710471 
L 88.715228 158.057483 
L 88.890689 158.898061 
L 89.247181 159.644624 
L 89.731786 160.265034 
L 91.869343 162.203084 
L 92.45839 162.477545 
L 92.618533 162.605139 
L 92.707656 162.7846 
L 92.799564 163.236244 
L 92.887294 163.4763 
L 93.353797 164.233218 
L 93.559893 164.734487 
L 93.681045 165.22292 
L 93.817514 166.296705 
L 93.838402 167.307671 
L 93.928918 167.784255 
L 94.082098 167.950925 
L 94.286802 167.916948 
L 94.490114 168.019798 
L 94.576452 168.267741 
L 94.621013 168.518904 
L 94.700388 168.634614 
L 94.888382 168.634614 
L 95.094478 168.678695 
L 95.257406 168.827008 
L 95.288042 169.020323 
L 95.023459 169.170017 
L 94.726846 169.264151 
L 94.199072 169.594312 
L 93.935881 169.666866 
L 93.713073 169.629211 
L 93.281384 169.484104 
L 93.050222 169.485023 
L 93.843973 171.977751 
L 95.008141 174.232943 
L 96.104074 175.763993 
L 96.234315 175.946451 
L 97.142913 177.219381 
L 98.277837 178.804006 
L 99.678738 180.765119 
L 101.011403 182.629481 
L 102.275835 184.396137 
L 103.28543 185.809948 
L 103.387086 185.893604 
L 103.492919 185.935891 
L 103.661417 185.969905 
L 103.715726 185.949681 
L 103.871691 185.83385 
L 103.939926 185.799836 
L 104.020694 185.820061 
L 104.165519 185.944165 
L 104.217043 185.969905 
L 104.796342 185.889007 
L 105.014971 185.988291 
L 105.27677 186.276033 
L 105.500969 186.645599 
L 105.610981 186.992188 
L 105.790619 187.887649 
L 105.826825 187.984184 
L 105.874172 188.069688 
L 105.931266 188.145078 
L 106.112297 188.060494 
L 106.255729 188.016363 
L 106.386628 188.024638 
L 106.527275 188.104625 
L 106.634501 188.253567 
L 106.919973 188.802457 
L 107.119107 189.392737 
L 107.28482 189.765119 
L 107.418504 190.163253 
L 107.456103 190.634955 
L 107.344699 191.055174 
L 106.981245 191.535172 
L 106.931114 192.004146 
L 106.982638 192.609229 
L 106.97289 192.858439 
L 107.017451 193.012013 
L 107.155313 193.018451 
L 107.336344 192.980747 
L 107.50902 192.998219 
L 107.6622 193.04328 
L 107.539656 193.285139 
L 107.436607 193.547232 
L 107.390653 193.746793 
L 107.428252 194.110053 
L 107.635741 194.730827 
L 107.676125 195.094103 
L 107.613461 195.435312 
L 107.403186 196.045085 
L 107.390653 196.441492 
L 107.444963 196.672349 
L 107.616246 197.088082 
L 107.676125 197.413682 
L 107.676125 198.077774 
L 107.695621 198.222185 
L 107.802847 198.593792 
L 107.971345 199.034392 
L 108.226181 199.417969 
L 108.319481 199.601941 
L 108.36822 199.763838 
L 108.393286 199.924815 
L 108.409997 200.280809 
L 108.451773 200.368198 
L 108.638374 200.52366 
L 108.687113 200.585293 
L 108.692683 200.734317 
L 108.616093 200.961534 
L 108.595205 201.131718 
L 108.772058 201.265106 
L 108.823583 201.319382 
L 108.900173 201.398495 
L 108.972585 201.557643 
L 108.861181 201.751749 
L 108.319481 202.287158 
L 108.068823 201.971615 
L 107.795884 201.909059 
L 107.58004 202.082929 
L 107.490917 202.47483 
L 107.329381 202.873176 
L 107.298745 203.076491 
L 107.326596 203.305108 
L 107.383691 203.461046 
L 107.419897 203.625726 
L 107.390653 203.877807 
L 107.36141 203.895287 
L 107.307101 203.898047 
L 107.247221 203.921967 
L 107.206837 203.999248 
L 107.191519 204.10551 
L 107.191519 204.185551 
L 107.199875 204.232472 
L 107.206837 204.242592 
L 107.226333 204.399456 
L 107.272287 204.53838 
L 107.275072 204.695245 
L 107.068975 205.075222 
L 107.032769 205.246351 
L 107.048087 205.903734 
L 107.099611 205.998962 
L 107.183164 206.052326 
L 107.298745 206.187577 
L 107.539656 206.725369 
L 107.993626 208.283129 
L 108.316696 210.250908 
L 108.273527 210.531109 
L 108.128702 210.615768 
L 107.839053 210.486019 
L 107.720687 210.531109 
L 107.114929 211.68 
L 106.58437 210.774503 
L 106.470181 210.464854 
L 106.470181 210.282195 
L 106.509172 210.11426 
L 106.528668 209.939424 
L 106.470181 209.734683 
L 106.36017 209.600797 
L 106.211168 209.518901 
L 106.049632 209.5143 
L 105.910378 209.61368 
L 105.677823 209.493136 
L 105.416024 209.417222 
L 105.21689 209.286558 
L 105.175114 209.005448 
L 105.031682 209.108506 
L 104.850651 209.201442 
L 104.690508 209.209724 
L 104.623666 209.060657 
L 104.588852 208.792431 
L 104.498337 208.66683 
L 104.367438 208.583096 
L 104.04576 208.303832 
L 103.686483 208.138667 
L 103.517985 208.02227 
L 103.002743 207.154136 
L 102.905265 207.078227 
L 102.59055 207.01198 
L 102.422052 206.92457 
L 102.281405 206.821979 
L 102.222918 206.74009 
L 100.943169 206.551931 
L 99.795711 206.10201 
L 99.206665 205.958939 
L 98.617618 206.066127 
L 97.929701 206.605296 
L 97.658154 206.724449 
L 97.404711 206.894667 
L 97.245961 206.92733 
L 97.251531 206.886386 
L 96.935423 206.699606 
L 96.869974 206.684885 
L 96.76414 206.533529 
L 96.744645 206.460842 
L 96.768318 206.360093 
L 96.786421 206.126852 
L 96.757177 205.996201 
L 96.680587 205.857731 
L 96.574754 205.746402 
L 96.116607 205.523287 
L 96.042802 205.469464 
L 95.989885 205.349857 
L 95.91608 205.078442 
L 95.849238 204.971717 
L 95.565159 204.82359 
L 95.354884 204.906394 
L 95.173853 205.006678 
L 94.743557 204.799209 
L 94.566704 205.324095 
L 94.368962 205.22611 
L 94.286802 205.22611 
L 94.150333 205.514087 
L 93.934488 205.806207 
L 93.708896 205.896374 
L 93.550146 205.579411 
L 93.288347 205.691659 
L 93.080858 205.612533 
L 92.440287 204.939515 
L 92.309388 204.915594 
L 92.202162 205.343416 
L 92.078225 205.425301 
L 91.785791 205.469464 
L 91.251053 205.41518 
L 91.306755 204.978157 
L 91.45158 204.480418 
L 91.188389 204.242592 
L 91.14522 204.067329 
L 90.968367 203.719106 
L 90.77341 203.464726 
L 90.681502 203.574206 
L 90.681502 203.795466 
L 90.655044 204.012128 
L 90.560351 204.177271 
L 90.359824 204.242592 
L 89.53126 204.363575 
L 89.488091 204.279393 
L 89.500624 203.881487 
L 89.485306 203.755906 
L 89.417071 203.755906 
L 89.298705 203.798686 
L 89.158058 203.818466 
L 89.025766 203.755906 
L 89.109319 203.712666 
L 89.302882 203.513486 
L 88.939428 203.257268 
L 88.84195 203.321667 
L 88.933858 203.755906 
L 88.734724 203.650106 
L 88.468748 203.288088 
L 88.280754 203.13721 
L 87.931225 203.15469 
L 87.800326 203.066371 
L 87.914515 202.783938 
L 87.592837 202.594425 
L 87.147222 201.937577 
L 86.800478 201.811545 
L 86.732244 201.925618 
L 86.606915 202.081089 
L 86.6097 202.24668 
L 86.640336 202.410432 
L 86.597167 202.564066 
L 86.476015 202.620184 
L 85.413503 202.920095 
L 85.137779 203.14365 
L 85.059797 203.176769 
L 84.867626 203.12065 
L 84.60722 202.802338 
L 84.395553 202.643183 
L 83.541922 202.490469 
L 82.948698 202.794978 
L 82.823369 202.815218 
L 81.405758 202.797738 
L 79.264023 202.772899 
L 76.85492 202.74438 
L 74.675864 202.720271 
L 74.110909 202.714021 
L 72.038802 202.689182 
L 69.721607 202.661582 
L 69.717429 202.221841 
L 69.773131 201.686433 
L 69.716036 201.425173 
L 69.587922 201.216351 
L 69.386003 200.976253 
L 69.177121 200.777553 
L 69.025334 200.695681 
L 68.932033 200.724198 
L 68.73847 200.829987 
L 68.61314 200.828147 
L 68.524018 200.777553 
L 68.336024 200.585293 
L 67.960037 200.487784 
L 67.549236 200.463867 
L 67.432262 200.5255 
L 67.276297 200.673604 
L 67.006143 201.016729 
L 66.878029 201.086642 
L 66.3043 201.181394 
L 65.926921 200.966134 
L 65.711076 200.8999 
L 65.525867 201.016729 
L 65.378258 201.071924 
L 65.14431 201.020408 
L 64.739079 200.828147 
L 64.601217 200.997411 
L 64.448037 201.071924 
L 64.276754 201.053525 
L 64.087368 200.950495 
L 63.971787 201.167595 
L 63.705811 201.090322 
L 63.398058 200.913699 
L 63.168288 200.828147 
L 62.998398 200.921978 
L 62.843825 201.086642 
L 62.655832 201.243948 
L 62.382893 201.314782 
L 60.560051 200.955095 
L 60.238373 200.79871 
L 60.023921 200.585293 
L 59.709206 200.681883 
L 59.476651 200.585293 
L 58.724676 200.261491 
L 58.206649 200.214577 
L 57.464423 200.43903 
L 57.220727 200.373718 
L 56.77929 200.017723 
L 56.612185 199.937693 
L 56.484071 199.957931 
L 56.202777 200.156625 
L 56.06213 200.205378 
L 55.796153 200.255972 
L 55.278127 200.485025 
L 55.009365 200.552177 
L 54.424496 200.519061 
L 53.880011 200.404994 
L 53.636316 200.393035 
L 52.843957 200.473066 
L 51.823222 200.388436 
L 50.794131 200.507102 
L 49.613252 200.458348 
L 49.155105 200.541138 
L 48.947616 200.510782 
L 48.255521 200.210898 
L 47.981189 199.913777 
L 47.848897 199.81443 
L 47.660904 199.787754 
L 47.491013 199.838347 
L 47.140092 200.003005 
L 43.543147 200.177782 
L 43.518081 200.339682 
L 43.579353 200.571495 
L 43.601634 200.807909 
L 43.520866 201.058125 
L 43.416426 201.245788 
L 43.33148 201.449091 
L 43.307807 201.74071 
L 43.307807 201.963335 
L 43.284134 202.181363 
L 43.231217 202.390193 
z
" clip-path="url(#pa15d1558a6)" style="stroke: #000000; stroke-linejoin: miter"/>
   </g>
   <g id="line2d_1">
    <path d="M 43.144879 202.577865 
L 24.937349 202.521748 
L 22.955757 201.095841 
L 22.783082 200.813429 
L 22.631075 199.445145 
L 22.801031 199.123559 
L 22.89533 198.818636 
L 22.945768 195.508178 
L 23.637655 192.098267 
L 23.684804 189.840733 
L 24.029103 188.294339 
L 24.735244 186.832759 
L 24.765946 186.268135 
L 24.249498 183.673253 
L 24.012655 183.142016 
L 24.226471 183.115237 
L 24.381077 182.900287 
L 24.025813 182.876403 
L 23.735243 182.494999 
L 23.382172 181.619318 
L 22.379978 179.962157 
L 21.815285 179.315978 
L 20.509362 178.143079 
L 20.807608 178.056254 
L 21.136556 177.839918 
L 22.540066 176.575963 
L 22.900812 176.563664 
L 22.46989 176.399436 
L 21.38217 177.049844 
L 20.46002 177.159092 
L 20.295546 177.059249 
L 20.229757 176.832074 
L 20.292257 176.588985 
L 20.509362 176.442844 
L 20.111335 175.192741 
L 19.288966 173.570934 
L 19.213308 173.154297 
L 19.693572 173.719942 
L 19.864625 174.246546 
L 20.26923 174.389051 
L 20.785678 174.379647 
L 20.649713 174.284885 
L 20.03787 173.952861 
L 19.796642 173.332234 
L 19.836116 172.878715 
L 19.992914 172.45414 
L 20.226467 172.173507 
L 20.737433 172.774559 
L 21.015942 172.862079 
L 21.151907 172.426655 
L 21.7791 172.896074 
L 21.88875 173.154297 
L 21.96989 172.778899 
L 21.805416 172.426655 
L 21.848179 172.418699 
L 21.989627 172.426655 
L 21.058705 171.895773 
L 20.969889 171.56597 
L 21.144231 171.327301 
L 21.873399 171.087189 
L 22.156294 171.001849 
L 22.15739 170.704609 
L 20.815283 171.008358 
L 20.408485 170.958456 
L 20.196862 170.653262 
L 20.261555 170.201268 
L 20.479757 169.792677 
L 20.961117 169.347217 
L 21.544451 168.179395 
L 21.996206 167.819305 
L 22.024715 167.537313 
L 21.552126 167.906073 
L 21.244012 168.279181 
L 21.244012 167.91475 
L 21.004977 168.153364 
L 20.325151 169.381205 
L 19.663967 169.717469 
L 19.394229 169.650215 
L 19.397519 169.248871 
L 19.213308 169.491845 
L 18.953439 169.312507 
L 18.710018 168.985652 
L 18.57515 168.576372 
L 18.651904 168.157703 
L 18.461114 167.889442 
L 18.305412 167.96898 
L 17.960017 168.58071 
L 18.125588 168.738347 
L 18.38436 168.884416 
L 18.535676 169.389159 
L 19.032387 170.136182 
L 18.844887 170.473909 
L 18.283483 170.110148 
L 17.926026 169.381205 
L 17.640938 169.476659 
L 17.548833 169.799909 
L 18.00936 170.231642 
L 18.007167 170.596852 
L 17.926026 171.019206 
L 17.9655 171.155172 
L 18.283483 171.444465 
L 17.897517 171.623829 
L 17.158481 171.649866 
L 16.085015 171.177592 
L 15.934796 170.570817 
L 16.002778 169.914168 
L 16.252779 169.381205 
L 15.919445 169.480275 
L 15.230848 170.644584 
L 14.696856 170.583835 
L 14.69576 169.804248 
L 14.347075 169.577177 
L 13.52032 169.63069 
L 12.803214 169.034825 
L 11.469879 168.157703 
L 11.445756 167.656617 
L 11.736327 166.084058 
L 11.322949 165.578708 
L 10.999484 164.981564 
L 10.765931 164.296976 
L 10.440273 161.766395 
L 10.511545 161.329862 
L 10.991808 160.118629 
L 10.518124 160.68087 
L 10.473167 160.212575 
L 10.568562 159.765254 
L 10.427115 159.384428 
L 10.132158 159.244963 
L 9.796632 158.583791 
L 9.696851 158.531766 
L 9.644219 158.762991 
L 10.156281 159.998668 
L 9.954527 160.339765 
L 9.844877 160.222693 
L 9.796632 159.942302 
L 9.144219 159.26881 
L 9.219877 159.819452 
L 9.336105 159.886658 
L 9.098166 160.372285 
L 8.683692 160.059371 
L 8.583911 159.90906 
L 8.140928 159.635902 
L 7.895314 158.673391 
L 7.294436 157.534657 
L 7.211103 156.833837 
L 6.989611 157.281056 
L 7.283471 158.33017 
L 7.746191 160.118629 
L 8.038954 160.372285 
L 8.121191 160.831913 
L 7.838296 161.04222 
L 6.002768 161.113769 
L 6.235224 160.650517 
L 6.384347 160.482855 
L 6.071847 160.380235 
L 5.965487 160.475628 
L 5.772505 160.926587 
L 5.465487 160.857208 
L 5.259346 160.584753 
L 5.189171 160.160544 
L 5.25496 159.842576 
L 5.465487 159.886658 
L 5.822943 159.027459 
L 5.637636 159.206665 
L 5.46768 159.210278 
L 5.338294 159.058531 
L 5.305399 158.537547 
L 5.640926 157.935659 
L 6.108031 157.44073 
L 6.17711 155.654813 
L 6.632341 155.171861 
L 6.498657 154.293921 
L 6.617023 154.021928 
L 6.984655 153.664631 
L 7.066815 153.343578 
L 7.921838 151.521073 
L 8.204525 150.509506 
L 8.6014 149.793759 
L 9.148671 149.35452 
L 9.495414 146.755192 
L 9.368693 146.09239 
L 9.455031 145.663378 
L 9.833803 144.516217 
L 9.843551 143.068116 
L 10.563497 141.630288 
L 10.425635 141.157469 
L 9.423002 139.708906 
L 9.52605 139.454214 
L 10.000908 138.842246 
L 10.060788 138.397034 
L 9.772531 137.447131 
L 9.915963 137.155399 
L 10.573244 136.435494 
L 10.803014 136.145623 
L 11.624616 136.299945 
L 11.775011 135.443647 
L 12.160746 135.058566 
L 12.449003 134.508672 
L 13.692546 132.813397 
L 15.540454 130.860281 
L 15.884412 130.228704 
L 16.452571 128.890631 
L 16.796529 128.736427 
L 17.179479 128.739172 
L 17.555467 128.441294 
L 17.963482 127.408632 
L 18.441012 127.045021 
L 19.254372 126.602988 
L 19.467431 126.329881 
L 19.982673 125.328101 
L 20.545815 125.221164 
L 21.027082 125.217408 
L 21.208371 124.98963 
L 22.230241 120.752431 
L 22.482292 120.380299 
L 22.802577 120.410471 
L 23.326174 120.678826 
L 23.642282 120.505103 
L 27.25733 116.613702 
L 27.445323 116.665795 
L 27.555334 116.952769 
L 27.889545 118.598947 
L 28.172232 118.8869 
L 28.544042 119.031338 
L 32.014265 118.966432 
L 32.078322 118.291807 
L 32.438991 117.678474 
L 32.572675 117.596212 
L 32.766239 115.576477 
L 33.128301 114.436135 
L 33.377566 114.85278 
L 33.449979 115.722686 
L 33.693674 115.975816 
L 34.048773 116.129343 
L 34.991526 116.782777 
L 36.0986 117.327496 
L 36.540037 117.718691 
L 36.760059 118.424351 
L 36.883996 119.229715 
L 37.154149 120.002696 
L 37.584446 120.565906 
L 38.840522 120.866726 
L 39.300062 121.339463 
L 39.559075 122.050446 
L 39.848724 125.654696 
L 40.113308 126.49777 
L 40.334723 126.765392 
L 40.696785 126.831269 
L 42.000207 126.693568 
L 42.24808 126.836759 
L 42.670021 126.602073 
L 43.110066 126.707292 
L 43.442884 126.603903 
L 43.788235 126.380201 
L 44.051426 126.058612 
L 44.420451 124.322314 
L 44.77555 123.945916 
L 45.307502 123.876858 
L 45.673742 123.608864 
L 45.992634 123.028541 
L 46.470277 121.365067 
L 46.439641 120.567277 
L 46.055299 119.864643 
L 46.130496 119.390613 
L 46.374192 118.94175 
L 47.202756 117.947202 
L 48.032713 117.212334 
L 48.199819 116.875998 
L 48.69835 116.836699 
L 48.86824 116.654828 
L 48.930905 116.325825 
L 49.131432 116.156759 
L 49.85834 115.356255 
L 50.192551 115.300515 
L 50.427891 115.41565 
L 50.557398 115.346203 
L 50.679942 114.945067 
L 50.512836 114.50192 
L 49.987847 113.754563 
L 49.128646 112.277407 
L 48.730378 112.094722 
L 49.351454 111.365851 
L 50.186981 109.74211 
L 51.823222 107.656753 
L 52.394165 106.765805 
L 52.562663 106.56499 
L 52.61558 106.205363 
L 52.401128 104.797134 
L 52.534812 104.046123 
L 53.019418 102.897391 
L 54.943916 99.521552 
L 54.739212 97.433968 
L 54.815801 97.005492 
L 55.468905 95.608107 
L 55.481438 95.257208 
L 55.233565 93.03054 
L 55.338006 92.269796 
L 55.647151 91.697698 
L 55.940978 91.53874 
L 56.459005 91.652151 
L 56.743084 91.600227 
L 57.010453 91.248616 
L 57.198447 90.855123 
L 57.720651 90.326858 
L 57.674697 89.58872 
L 57.248578 88.33484 
L 57.811166 88.530146 
L 58.210827 88.387195 
L 58.53529 88.13089 
L 58.955839 88.159115 
L 59.589447 88.468231 
L 59.796936 88.403584 
L 61.176948 87.458536 
L 61.416466 87.117149 
L 61.983232 85.747223 
L 62.69343 85.701715 
L 62.984472 85.181129 
L 63.134867 84.425804 
L 63.438442 81.107946 
L 63.340964 80.466311 
L 63.356282 79.75563 
L 63.626436 78.917736 
L 64.332456 77.166832 
L 64.396513 76.145693 
L 64.156995 75.262839 
L 63.709988 75.126991 
L 63.893804 74.723554 
L 64.796174 74.139344 
L 65.51612 73.111431 
L 66.449125 72.585503 
L 67.508852 72.374327 
L 68.386156 71.922934 
L 68.763535 70.676554 
L 69.004446 68.35429 
L 69.295488 67.363651 
L 69.147878 66.96844 
L 68.618711 66.162217 
L 68.59643 65.765271 
L 68.699478 65.409176 
L 69.016979 64.76463 
L 69.019764 64.011314 
L 68.854051 63.087149 
L 69.093569 62.489104 
L 69.543361 62.266496 
L 70.850961 61.976802 
L 71.455325 61.45276 
L 71.612683 61.190756 
L 71.856378 60.364482 
L 71.746367 59.575938 
L 72.047157 58.486657 
L 72.506697 55.177965 
L 73.012191 52.986387 
L 73.382608 51.977585 
L 75.952551 47.089208 
L 75.923307 46.066141 
L 76.289546 45.527335 
L 76.802003 45.14677 
L 76.963538 44.875147 
L 77.517771 43.446312 
L 78.470272 42.061231 
L 78.988299 41.527355 
L 79.403278 41.525548 
L 79.933838 41.721567 
L 81.156492 42.288438 
L 81.742754 41.9998 
L 82.518402 41.192243 
L 82.987689 41.080243 
L 84.441507 39.480442 
L 85.522122 38.948189 
L 86.299162 38.162327 
L 87.226597 37.680307 
L 87.52878 36.942473 
L 87.68196 36.144741 
L 87.598407 35.351647 
L 87.053922 34.417961 
L 86.953658 34.340387 
L 86.669579 34.317837 
L 86.52754 33.954341 
L 86.590204 33.801013 
L 87.184821 32.674649 
L 87.649931 29.448496 
L 87.368637 28.361875 
L 87.609547 28.160076 
L 87.578911 27.977202 
L 87.992497 26.310942 
L 88.252903 25.974158 
L 88.165173 25.622991 
L 87.892234 25.569868 
L 87.530172 25.773359 
L 87.453582 25.693222 
L 87.365852 25.331273 
L 86.616663 24.682173 
L 86.748954 24.589452 
L 86.800478 24.563346 
L 86.800478 24.43372 
L 86.652869 24.353606 
L 86.157123 23.849548 
L 86.157123 23.254649 
L 85.789491 23.006272 
L 84.927505 22.739011 
L 81.950243 22.576142 
L 81.771997 22.438473 
L 81.639706 21.970609 
L 81.724651 21.104284 
L 81.634135 20.733694 
L 81.616032 19.389205 
L 80.100943 10.134738 
L 84.860663 10.08 
L 85.093218 10.268444 
L 86.066607 12.315371 
L 86.045719 12.669112 
L 85.829874 13.685154 
L 85.969129 13.937067 
L 86.623625 14.647979 
L 86.701608 15.540035 
L 86.897957 15.666716 
L 86.977332 15.922334 
L 87.106838 15.897176 
L 87.453582 15.619098 
L 87.584481 15.763301 
L 87.637398 15.974897 
L 88.179098 16.425527 
L 88.577366 16.290738 
L 88.791818 16.385988 
L 88.883726 16.671753 
L 88.685985 17.242436 
L 88.84195 17.529153 
L 89.117674 17.043812 
L 89.359977 17.243335 
L 89.585569 17.864428 
L 89.819517 17.899485 
L 90.263739 17.767348 
L 90.419704 18.125114 
L 90.815187 20.355039 
L 90.673147 20.930678 
L 90.865318 21.104284 
L 90.83886 21.01793 
L 90.9809 21.045815 
L 91.06306 21.173548 
L 91.049134 21.449715 
L 91.234343 21.877041 
L 91.437654 23.351844 
L 91.351317 25.89852 
L 91.283082 25.975058 
L 91.394485 26.349665 
L 91.739837 26.650452 
L 92.225835 27.280905 
L 92.38737 27.251182 
L 92.61714 27.032316 
L 92.859443 26.998992 
L 93.110101 27.133191 
L 93.36633 27.417814 
L 93.250748 27.714165 
L 93.316198 28.088907 
L 93.423424 28.33665 
L 93.36633 28.684412 
L 93.793841 29.386319 
L 93.351012 29.541311 
L 93.462415 30.314543 
L 93.266066 30.594847 
L 93.387218 31.306045 
L 93.545968 31.447576 
L 93.775738 31.487241 
L 93.863468 31.674755 
L 94.194894 32.679158 
L 93.849543 33.35729 
L 94.009686 33.64318 
L 93.863468 33.738781 
L 93.725606 33.751408 
L 93.5961 34.463965 
L 93.635091 34.810358 
L 93.99019 35.903822 
L 94.368962 36.514714 
L 94.527712 37.079652 
L 94.348074 37.561615 
L 93.603062 38.7437 
L 93.516725 39.083166 
L 93.479126 40.669295 
L 93.550146 40.938891 
L 93.45963 41.227469 
L 93.080858 42.082912 
L 92.986165 43.165742 
L 93.174158 46.45265 
L 93.764598 48.140963 
L 93.587744 49.979542 
L 94.719884 52.956514 
L 94.700388 53.233072 
L 94.483151 53.967759 
L 94.562526 54.734238 
L 94.770015 54.904027 
L 95.370202 55.175248 
L 95.641749 55.337806 
L 96.321311 56.755296 
L 96.450818 56.966817 
L 96.761355 58.413714 
L 98.617618 60.632339 
L 99.304143 61.775067 
L 99.923826 62.469608 
L 100.822017 63.163325 
L 101.295483 63.356946 
L 101.878959 64.035803 
L 101.643619 64.126505 
L 98.620403 65.081678 
L 97.860073 65.107986 
L 95.595795 64.161879 
L 94.795081 64.119249 
L 94.057032 64.253036 
L 93.144915 64.885732 
L 92.732722 64.847179 
L 91.947326 64.605433 
L 91.327643 64.576406 
L 89.635701 65.256311 
L 89.095393 65.220023 
L 85.161453 63.965057 
L 81.564508 64.321065 
L 81.494881 64.800008 
L 80.840385 66.4807 
L 80.418443 67.224802 
L 79.31694 68.460489 
L 78.498123 69.982415 
L 78.520404 70.243899 
L 79.717993 71.456136 
L 83.555848 77.180921 
L 83.68814 77.936316 
L 83.936013 78.496785 
L 90.13841 84.828937 
L 90.500471 84.751584 
L 90.812402 84.922216 
L 91.464113 85.599779 
L 91.62147 85.901496 
L 91.816427 86.054863 
L 92.014168 86.666545 
L 92.094936 87.160846 
L 93.399751 87.732113 
L 93.623951 88.08309 
L 94.192109 89.294124 
L 95.175246 90.633338 
L 97.353187 96.684152 
L 98.177574 100.46729 
L 98.638506 101.917594 
L 99.273507 102.526075 
L 99.98649 102.669308 
L 100.284495 102.746856 
L 100.274747 104.552568 
L 100.096501 105.601153 
L 99.733047 106.567729 
L 98.351642 109.032625 
L 98.298725 109.310202 
L 98.560524 109.627054 
L 98.472793 109.876344 
L 98.05503 110.018798 
L 97.892102 110.414215 
L 97.257101 111.053497 
L 96.022208 112.033695 
L 95.716946 112.373318 
L 95.197527 113.975656 
L 95.22677 115.182639 
L 95.112581 115.363565 
L 94.680892 115.655978 
L 94.437197 116.281045 
L 94.22553 117.374109 
L 93.165803 120.698485 
L 93.001483 120.879527 
L 91.973784 121.601446 
L 91.789968 121.874867 
L 90.103596 126.875188 
L 89.735964 127.682228 
L 89.767993 128.48705 
L 89.631523 128.813758 
L 88.914362 129.884558 
L 86.99265 131.090496 
L 86.434239 131.085004 
L 86.111169 131.700617 
L 85.722648 132.201375 
L 85.519337 132.280565 
L 85.044479 132.953476 
L 85.008273 133.315585 
L 84.789643 133.619566 
L 84.584939 133.496874 
L 84.444292 133.76103 
L 84.584939 134.113097 
L 85.24779 134.983933 
L 85.501234 135.858507 
L 85.722648 136.054038 
L 86.574886 136.090672 
L 86.939733 135.796231 
L 87.105446 135.809969 
L 87.54549 136.845815 
L 87.638791 139.351606 
L 87.195961 141.703595 
L 87.564986 142.865122 
L 87.500929 143.585011 
L 87.260018 144.378731 
L 87.214064 145.089553 
L 87.035819 145.17205 
L 86.917452 145.605627 
L 86.690467 146.185895 
L 86.496904 146.800572 
L 86.285237 147.224586 
L 86.778198 147.776056 
L 87.640183 148.211568 
L 88.00503 148.859823 
L 88.162388 149.670422 
L 88.251511 152.593721 
L 88.314175 152.762951 
L 88.332278 153.416502 
L 88.482673 153.80498 
L 88.666489 155.661774 
L 88.621928 156.710471 
L 88.715228 158.057483 
L 88.890689 158.898061 
L 89.247181 159.644624 
L 89.731786 160.265034 
L 91.869343 162.203084 
L 92.618533 162.605139 
L 92.707656 162.7846 
L 92.887294 163.4763 
L 93.559893 164.734487 
L 93.681045 165.22292 
L 94.082098 167.950925 
L 94.286802 167.916948 
L 94.490114 168.019798 
L 94.700388 168.634614 
L 95.094478 168.678695 
L 95.257406 168.827008 
L 95.288042 169.020323 
L 93.935881 169.666866 
L 93.050222 169.485023 
L 93.843973 171.977751 
L 95.008141 174.232943 
L 103.492919 185.935891 
L 103.715726 185.949681 
L 104.020694 185.820061 
L 104.217043 185.969905 
L 104.796342 185.889007 
L 105.014971 185.988291 
L 105.500969 186.645599 
L 105.931266 188.145078 
L 106.386628 188.024638 
L 106.634501 188.253567 
L 107.119107 189.392737 
L 107.418504 190.163253 
L 107.456103 190.634955 
L 107.344699 191.055174 
L 106.981245 191.535172 
L 106.931114 192.004146 
L 107.017451 193.012013 
L 107.6622 193.04328 
L 107.390653 193.746793 
L 107.428252 194.110053 
L 107.676125 195.094103 
L 107.444963 196.672349 
L 107.676125 197.413682 
L 107.695621 198.222185 
L 107.971345 199.034392 
L 108.36822 199.763838 
L 108.451773 200.368198 
L 108.687113 200.585293 
L 108.616093 200.961534 
L 108.595205 201.131718 
L 108.900173 201.398495 
L 108.972585 201.557643 
L 108.861181 201.751749 
L 108.319481 202.287158 
L 108.068823 201.971615 
L 107.795884 201.909059 
L 107.58004 202.082929 
L 107.326596 203.305108 
L 107.419897 203.625726 
L 107.307101 203.898047 
L 107.206837 203.999248 
L 107.226333 204.399456 
L 107.275072 204.695245 
L 107.032769 205.246351 
L 107.099611 205.998962 
L 107.298745 206.187577 
L 107.539656 206.725369 
L 107.993626 208.283129 
L 108.273527 210.531109 
L 108.128702 210.615768 
L 107.720687 210.531109 
L 107.114929 211.68 
L 106.470181 210.464854 
L 106.36017 209.600797 
L 106.049632 209.5143 
L 105.910378 209.61368 
L 105.21689 209.286558 
L 105.175114 209.005448 
L 104.850651 209.201442 
L 104.690508 209.209724 
L 104.367438 208.583096 
L 103.686483 208.138667 
L 103.517985 208.02227 
L 102.905265 207.078227 
L 102.422052 206.92457 
L 102.222918 206.74009 
L 100.943169 206.551931 
L 99.206665 205.958939 
L 98.617618 206.066127 
L 97.404711 206.894667 
L 97.245961 206.92733 
L 97.251531 206.886386 
L 96.744645 206.460842 
L 96.757177 205.996201 
L 96.574754 205.746402 
L 95.989885 205.349857 
L 95.849238 204.971717 
L 95.565159 204.82359 
L 95.173853 205.006678 
L 94.743557 204.799209 
L 94.566704 205.324095 
L 94.286802 205.22611 
L 93.934488 205.806207 
L 93.708896 205.896374 
L 93.550146 205.579411 
L 93.288347 205.691659 
L 93.080858 205.612533 
L 92.309388 204.915594 
L 92.078225 205.425301 
L 91.785791 205.469464 
L 91.251053 205.41518 
L 91.45158 204.480418 
L 91.14522 204.067329 
L 90.77341 203.464726 
L 90.681502 203.574206 
L 90.655044 204.012128 
L 90.560351 204.177271 
L 90.359824 204.242592 
L 89.488091 204.279393 
L 89.485306 203.755906 
L 89.417071 203.755906 
L 89.158058 203.818466 
L 89.025766 203.755906 
L 89.109319 203.712666 
L 89.302882 203.513486 
L 88.84195 203.321667 
L 88.933858 203.755906 
L 88.734724 203.650106 
L 88.280754 203.13721 
L 87.800326 203.066371 
L 87.914515 202.783938 
L 87.592837 202.594425 
L 87.147222 201.937577 
L 86.800478 201.811545 
L 86.6097 202.24668 
L 86.597167 202.564066 
L 86.476015 202.620184 
L 85.413503 202.920095 
L 85.059797 203.176769 
L 84.867626 203.12065 
L 84.395553 202.643183 
L 83.541922 202.490469 
L 82.823369 202.815218 
L 69.721607 202.661582 
L 69.716036 201.425173 
L 69.386003 200.976253 
L 69.025334 200.695681 
L 68.524018 200.777553 
L 68.336024 200.585293 
L 67.549236 200.463867 
L 67.276297 200.673604 
L 66.878029 201.086642 
L 66.3043 201.181394 
L 65.711076 200.8999 
L 65.378258 201.071924 
L 64.601217 200.997411 
L 64.276754 201.053525 
L 64.087368 200.950495 
L 63.971787 201.167595 
L 62.998398 200.921978 
L 62.655832 201.243948 
L 62.382893 201.314782 
L 60.238373 200.79871 
L 60.023921 200.585293 
L 59.709206 200.681883 
L 58.724676 200.261491 
L 58.206649 200.214577 
L 57.464423 200.43903 
L 57.220727 200.373718 
L 56.612185 199.937693 
L 56.484071 199.957931 
L 56.06213 200.205378 
L 55.796153 200.255972 
L 55.009365 200.552177 
L 51.823222 200.388436 
L 50.794131 200.507102 
L 48.947616 200.510782 
L 48.255521 200.210898 
L 47.848897 199.81443 
L 47.491013 199.838347 
L 47.140092 200.003005 
L 43.543147 200.177782 
L 43.579353 200.571495 
L 43.520866 201.058125 
L 43.33148 201.449091 
L 43.144879 202.577865 
L 43.144879 202.577865 
" clip-path="url(#pa15d1558a6)" style="fill: none; stroke: #000000; stroke-width: 0.5; stroke-linecap: square"/>
   </g>
  </g>
 </g>
 <defs>
  <clipPath id="pa15d1558a6">
   <rect x="0" y="-0" width="114.161756" height="221.76"/>
  </clipPath>
 </defs>
</svg>
