<?xml version="1.0" encoding="utf-8" standalone="no"?>
<!DOCTYPE svg PUBLIC "-//W3C//DTD SVG 1.1//EN"
  "http://www.w3.org/Graphics/SVG/1.1/DTD/svg11.dtd">
<svg xmlns:xlink="http://www.w3.org/1999/xlink" width="223.2pt" height="196.664004pt" viewBox="0 0 223.2 196.664004" xmlns="http://www.w3.org/2000/svg" version="1.1">
 <metadata>
  <rdf:RDF xmlns:dc="http://purl.org/dc/elements/1.1/" xmlns:cc="http://creativecommons.org/ns#" xmlns:rdf="http://www.w3.org/1999/02/22-rdf-syntax-ns#">
   <cc:Work>
    <dc:type rdf:resource="http://purl.org/dc/dcmitype/StillImage"/>
    <dc:date>2026-04-26T19:22:00.480187</dc:date>
    <dc:format>image/svg+xml</dc:format>
    <dc:creator>
     <cc:Agent>
      <dc:title>Matplotlib v3.10.9, https://matplotlib.org/</dc:title>
     </cc:Agent>
    </dc:creator>
   </cc:Work>
  </rdf:RDF>
 </metadata>
 <defs>
  <style type="text/css">*{stroke-linejoin: round; stroke-linecap: butt}</style>
 </defs>
 <g id="figure_1">
  <g id="patch_1">
   <path d="M 0 196.664004 
L 223.2 196.664004 
L 223.2 0 
L 0 0 
z
" style="fill: #ffffff"/>
  </g>
  <g id="axes_1">
   <g id="patch_2">
    <path d="M 141.860332 10.588018 
L 141.894068 11.139959 
L 144.106211 15.280558 
L 145.720738 16.741953 
L 148.546562 20.274915 
L 151.133018 25.655364 
L 153.719474 31.04018 
L 154.04238 31.945567 
L 154.497018 35.445252 
L 154.419906 36.22186 
L 154.209455 36.821002 
L 153.63433 37.963913 
L 153.441551 38.550106 
L 153.45119 38.771709 
L 153.6022 39.274139 
L 153.63433 39.540824 
L 153.613446 40.172211 
L 153.656821 40.363996 
L 153.774095 40.620241 
L 153.889763 40.613952 
L 153.981333 40.660067 
L 154.066477 40.824091 
L 154.07451 40.958771 
L 153.685738 42.536342 
L 153.664854 42.896453 
L 153.823897 43.519222 
L 153.846387 43.815422 
L 153.708229 44.057634 
L 153.502598 44.264202 
L 152.901769 45.241546 
L 152.561192 45.688839 
L 152.381264 45.833049 
L 152.130651 45.889684 
L 151.627819 45.862415 
L 151.391664 45.984603 
L 151.213913 46.328765 
L 151.134625 46.482288 
L 150.792441 49.065123 
L 150.832604 49.560391 
L 151.036629 49.973838 
L 151.451104 50.283938 
L 151.876825 50.239862 
L 152.453557 49.504777 
L 152.726661 49.521566 
L 152.840722 49.960721 
L 152.816624 50.667515 
L 152.625452 51.822559 
L 152.361987 52.382039 
L 151.720995 53.32002 
L 151.51697 53.849161 
L 151.508938 54.337389 
L 151.637458 54.8813 
L 151.873612 55.325488 
L 152.191698 55.513461 
L 152.421427 55.446252 
L 152.787708 55.082389 
L 153.004584 54.924353 
L 153.29054 54.849799 
L 153.554005 54.888651 
L 153.798193 55.023585 
L 154.031134 55.235703 
L 154.233553 55.340189 
L 154.731566 55.326538 
L 155.231186 55.50296 
L 155.483405 55.404247 
L 155.97178 55.111792 
L 156.508349 55.09394 
L 157.491523 55.385345 
L 158.355818 55.270357 
L 158.974318 55.604299 
L 159.273126 55.662058 
L 159.713305 55.566494 
L 161.335865 55.916727 
L 162.211247 55.760538 
L 162.368841 55.732419 
L 162.947179 55.716142 
L 163.228315 55.909376 
L 163.192972 56.19871 
L 162.907016 56.735399 
L 162.847576 57.025814 
L 162.958424 57.310989 
L 163.380932 57.742708 
L 163.458044 57.990091 
L 163.352015 58.18233 
L 162.72227 58.725457 
L 162.56644 58.949757 
L 161.69572 60.852097 
L 161.509366 61.543061 
L 161.453139 62.205706 
L 161.605756 62.800608 
L 161.939907 63.312511 
L 162.360808 63.723003 
L 162.775284 64.016825 
L 163.021078 64.140349 
L 163.559253 64.303298 
L 163.654605 64.317149 
L 163.93196 64.35744 
L 164.156869 64.35744 
L 164.269324 64.379517 
L 164.386598 64.458365 
L 164.643637 64.722775 
L 164.725568 64.7806 
L 165.728021 64.331157 
L 166.26459 64.258092 
L 166.634084 64.720673 
L 166.696737 64.902032 
L 166.780275 65.035558 
L 166.892729 65.122298 
L 167.045346 65.168559 
L 167.535327 65.565475 
L 168.030127 65.586504 
L 169.120937 65.36202 
L 169.991657 65.571783 
L 170.295285 65.575989 
L 170.608551 65.623305 
L 171.101745 65.978707 
L 172.001382 66.11225 
L 172.497789 66.408259 
L 173.832786 68.009942 
L 173.985402 68.337047 
L 174.020745 69.059668 
L 174.338831 69.488325 
L 174.370961 69.851255 
L 174.456105 70.001691 
L 174.560528 70.135297 
L 174.682621 70.249969 
L 174.81596 70.344653 
L 175.56298 71.433597 
L 176.027257 71.896571 
L 176.499566 72.124911 
L 176.714837 72.107022 
L 177.196785 71.969176 
L 177.416875 71.968124 
L 177.79922 72.0502 
L 177.913282 72.142799 
L 177.990393 72.266969 
L 178.085176 72.379564 
L 178.478768 72.548986 
L 178.677973 72.8026 
L 178.828983 73.121468 
L 178.988026 73.765555 
L 179.219362 74.307594 
L 179.302899 74.652832 
L 179.314145 74.950716 
L 179.254704 75.827584 
L 179.314145 76.131824 
L 179.404108 76.415019 
L 179.450697 76.716121 
L 179.381618 77.073034 
L 179.033008 77.471025 
L 178.006458 77.925893 
L 177.67552 78.337611 
L 177.665881 78.593497 
L 177.734961 78.923105 
L 178.067505 79.94149 
L 178.992846 80.577643 
L 179.200084 80.759861 
L 179.29808 80.898897 
L 179.447484 81.222268 
L 179.539054 81.360257 
L 179.661148 81.449793 
L 179.9214 81.555131 
L 180.022609 81.653096 
L 180.146309 81.944891 
L 180.245912 82.531669 
L 180.329449 82.827706 
L 180.498131 83.124806 
L 180.703762 83.317609 
L 181.576089 83.884455 
L 182.181737 84.487161 
L 182.586574 84.732679 
L 182.884579 84.597801 
L 183.140011 84.655757 
L 183.371347 84.844377 
L 184.070172 85.677934 
L 184.315965 85.852875 
L 185.273436 86.176418 
L 185.564212 86.330289 
L 185.941738 86.722356 
L 186.067044 86.767676 
L 186.369065 86.761352 
L 186.523289 86.848832 
L 186.769082 87.172409 
L 186.940977 87.229326 
L 187.328143 87.25146 
L 187.41168 87.420105 
L 187.413287 87.690998 
L 187.554658 88.020928 
L 187.7876 88.126339 
L 188.486425 88.212777 
L 188.746677 88.371952 
L 188.812543 88.533237 
L 188.849493 88.915906 
L 188.921785 89.103556 
L 189.411766 89.465162 
L 189.569202 89.51893 
L 189.880862 89.579023 
L 190.036692 89.662311 
L 190.126656 89.805695 
L 190.134688 89.960679 
L 190.176457 90.089306 
L 190.357991 90.15573 
L 191.056816 90.229534 
L 191.153206 90.690294 
L 191.207827 91.74791 
L 191.357231 92.208742 
L 191.437555 92.269907 
L 191.535552 92.255143 
L 191.636761 92.221397 
L 191.726724 92.221397 
L 191.795804 92.301544 
L 191.787771 92.412274 
L 191.757248 92.53777 
L 191.763674 92.662213 
L 191.827934 92.923758 
L 191.853638 93.154726 
L 191.909865 93.378844 
L 192.068908 93.62406 
L 192.419124 93.907253 
L 192.70026 94.003762 
L 192.946054 94.147209 
L 193.429609 94.93884 
L 194.062567 95.518494 
L 194.32282 95.875586 
L 194.857782 96.233746 
L 195.776697 96.681067 
L 196.52693 97.238136 
L 196.545851 97.685857 
L 196.555847 97.922381 
L 196.438573 98.126027 
L 196.186353 98.744905 
L 195.693159 99.608652 
L 195.392745 100.43131 
L 195.259406 100.582234 
L 195.103576 100.691471 
L 194.957385 100.830789 
L 194.851356 101.06985 
L 195.145345 101.197035 
L 195.169442 101.49838 
L 195.082691 101.882066 
L 195.047349 102.250459 
L 195.153377 102.672175 
L 195.325272 102.863773 
L 195.55982 102.991507 
L 195.861841 103.215837 
L 196.11888 103.547326 
L 196.493194 104.19661 
L 196.785576 104.442609 
L 197.431386 104.623153 
L 197.67718 104.856491 
L 197.728588 105.384425 
L 197.733407 105.87437 
L 197.877992 105.998444 
L 198.104508 105.984716 
L 198.358334 106.064969 
L 198.562359 106.385457 
L 198.570391 106.775123 
L 198.4242 107.151603 
L 198.167161 107.427766 
L 197.884418 107.63529 
L 197.577577 107.923083 
L 197.323751 108.273197 
L 197.200051 108.670323 
L 197.254672 109.103903 
L 197.500466 109.010954 
L 198.128605 108.439544 
L 198.404922 108.544107 
L 198.576817 108.894768 
L 198.70373 109.334695 
L 198.857954 109.702282 
L 199.100534 109.954212 
L 200.011417 110.367771 
L 200.511036 110.45228 
L 201.609879 110.384673 
L 202.71836 110.955124 
L 202.998693 111.188066 
L 203.164965 111.460102 
L 203.254929 112.376092 
L 203.380236 112.739021 
L 203.741697 112.950868 
L 204.101552 112.916 
L 204.361804 112.793964 
L 204.55137 112.840454 
L 204.699168 113.304305 
L 204.896766 113.65881 
L 205.222885 113.682057 
L 205.900825 113.463329 
L 206.067901 113.698435 
L 206.249435 114.279616 
L 206.536997 114.569689 
L 206.654271 114.880904 
L 206.755481 114.978128 
L 206.900065 114.982355 
L 207.182808 114.860826 
L 207.325786 114.853428 
L 207.979629 115.179446 
L 208.119394 115.313132 
L 208.230242 115.652902 
L 208.238275 115.871141 
L 208.31378 116.02333 
L 208.623834 116.157025 
L 208.843923 116.302876 
L 209.029473 116.566575 
L 209.160403 116.886298 
L 209.207794 117.203387 
L 209.215024 117.387831 
L 209.247957 117.507272 
L 209.321052 117.599231 
L 209.589337 117.83759 
L 209.602189 117.946465 
L 209.563633 118.080181 
L 209.539535 118.434299 
L 209.469653 118.731343 
L 209.480095 118.869297 
L 209.573272 119.06328 
L 209.655203 119.084423 
L 209.728299 119.036323 
L 209.786936 119.018352 
L 209.841556 118.992981 
L 209.926701 118.928496 
L 210.042368 118.91581 
L 210.191772 119.049537 
L 210.252819 119.222909 
L 210.219083 119.583403 
L 210.248 119.782155 
L 209.616647 122.019918 
L 209.584517 122.334495 
L 209.616647 122.588806 
L 209.742757 123.110133 
L 209.827098 124.119537 
L 209.891358 124.428349 
L 210.305833 125.71867 
L 210.561266 126.324213 
L 210.878549 126.843574 
L 211.767743 127.630059 
L 212.191858 128.099222 
L 212.445684 128.904824 
L 212.897109 129.332241 
L 213.054545 129.59621 
L 212.643283 129.391488 
L 212.495485 129.348111 
L 212.278609 129.156089 
L 212.106714 129.111654 
L 211.809512 129.089437 
L 211.656895 129.051351 
L 211.522753 128.984699 
L 211.303466 128.775755 
L 211.102655 128.538251 
L 210.887384 128.342008 
L 210.615887 128.26055 
L 210.280129 128.209771 
L 209.921078 128.078064 
L 208.643112 127.248182 
L 208.003727 126.943535 
L 207.340245 126.881654 
L 206.622141 127.155095 
L 206.066294 127.537498 
L 205.598804 127.949004 
L 205.164248 128.45256 
L 204.702381 129.111654 
L 204.628482 129.283574 
L 204.479078 129.772368 
L 204.393934 129.951174 
L 204.215613 130.188703 
L 204.128862 130.275463 
L 203.852545 130.243721 
L 203.838087 130.197167 
L 203.785072 130.096653 
L 203.699928 129.996669 
L 203.593899 129.951174 
L 203.49269 130.005133 
L 203.330434 130.221502 
L 203.216373 130.243721 
L 203.115164 130.132627 
L 202.474173 129.240197 
L 202.366538 129.155031 
L 202.144841 129.111654 
L 201.402641 129.111654 
L 201.240385 129.216393 
L 201.028328 129.440156 
L 200.872498 129.544368 
L 200.662047 129.440156 
L 200.531921 129.454967 
L 200.438744 129.671328 
L 200.342354 129.671328 
L 200.218654 129.442272 
L 199.951976 129.393604 
L 199.664414 129.52215 
L 199.48288 129.823153 
L 199.376851 129.671328 
L 199.266003 129.818921 
L 199.068404 129.956464 
L 198.862773 130.059622 
L 198.731041 130.103001 
L 198.462756 130.072318 
L 198.037035 129.871822 
L 197.842649 129.823153 
L 197.812126 129.692488 
L 197.519744 128.909056 
L 197.325358 128.714395 
L 197.09081 128.531903 
L 196.87072 128.308156 
L 196.722922 127.993434 
L 196.393591 128.166398 
L 196.289169 128.26055 
L 196.142978 128.018823 
L 195.879513 128.001897 
L 195.583918 128.046328 
L 195.187114 127.953235 
L 194.886699 127.787679 
L 194.599137 127.516341 
L 194.485076 127.155095 
L 194.41439 127.194234 
L 194.237675 127.253471 
L 194.16699 127.294726 
L 194.158957 126.969451 
L 194.16699 126.862614 
L 193.970997 126.967335 
L 193.871395 126.792272 
L 193.733236 126.163966 
L 193.685041 126.238007 
L 193.519572 126.431045 
L 193.476197 126.34431 
L 193.376594 126.26022 
L 193.307515 126.163966 
L 193.097064 126.285076 
L 192.995855 126.131705 
L 192.893039 125.889488 
L 192.671343 125.744583 
L 192.595838 125.955066 
L 192.510694 126.099445 
L 192.399846 126.163966 
L 192.276146 126.159735 
L 192.181362 126.139638 
L 192.102644 126.10156 
L 192.025532 126.037039 
L 192.07694 126.559562 
L 192.131561 126.723516 
L 191.988583 126.637837 
L 191.850425 126.615624 
L 191.747609 126.699188 
L 191.70584 126.932428 
L 191.625515 126.947237 
L 191.443981 126.945122 
L 191.231924 126.991665 
L 191.069668 127.155095 
L 190.86725 126.96522 
L 190.598965 126.55586 
L 190.433496 126.431045 
L 190.215013 126.383446 
L 190.073642 126.447969 
L 190.004562 126.646299 
L 190.007775 127.0033 
L 189.768408 126.865788 
L 189.495304 126.913388 
L 189.291279 127.146632 
L 189.265575 127.561828 
L 188.987651 127.252414 
L 188.84146 126.877423 
L 188.667959 126.599757 
L 188.309711 126.583891 
L 188.258303 126.710823 
L 188.105686 126.949353 
L 187.948249 127.058306 
L 187.837401 126.651588 
L 187.763503 126.507203 
L 187.720127 126.316809 
L 187.769929 126.037039 
L 187.700849 126.076175 
L 187.533774 126.129061 
L 187.459875 126.163966 
L 187.422926 125.66367 
L 187.206049 125.534633 
L 187.064677 125.616074 
L 187.249424 125.744583 
L 187.103233 126.019058 
L 186.88957 126.040212 
L 186.667873 125.913816 
L 186.497585 125.744583 
L 186.067044 125.115799 
L 185.850168 124.906916 
L 185.504771 124.777357 
L 185.483887 124.754618 
L 185.414808 124.715487 
L 185.300747 124.539396 
L 185.212389 124.487574 
L 185.022823 124.535165 
L 184.916794 124.66102 
L 184.797914 124.699623 
L 184.576217 124.487574 
L 184.576217 124.360134 
L 184.654936 124.290334 
L 184.701524 124.216304 
L 184.741686 124.141217 
L 184.789881 124.068774 
L 184.441272 124.075119 
L 184.314359 123.896393 
L 184.262951 123.628308 
L 184.142464 123.369747 
L 184.046074 123.369747 
L 183.840443 123.408874 
L 183.559306 123.362344 
L 183.389018 123.424737 
L 183.514325 123.789053 
L 183.329578 123.840872 
L 182.948839 124.037576 
L 182.81068 123.991572 
L 182.645211 123.771074 
L 182.599426 123.739349 
L 182.567296 123.814433 
L 181.870078 124.315716 
L 181.532714 124.420945 
L 181.258003 124.207843 
L 181.097354 124.463249 
L 180.869231 124.558432 
L 180.75999 124.686931 
L 180.959195 125.045995 
L 180.639503 125.180315 
L 180.445117 125.477518 
L 180.348727 125.890546 
L 180.323023 126.36758 
L 180.220208 126.62197 
L 180.022609 126.903868 
L 179.890876 127.250827 
L 179.995298 127.701993 
L 180.10454 127.785563 
L 180.411381 127.858556 
L 180.525442 127.993434 
L 180.536687 128.143653 
L 180.451543 128.54883 
L 180.429052 128.762002 
L 180.379251 128.891071 
L 180.159161 129.240197 
L 180.110966 129.467663 
L 180.096508 129.97445 
L 180.032248 130.179181 
L 179.88927 130.383385 
L 179.651509 130.465385 
L 178.970355 130.550031 
L 178.827377 130.726201 
L 178.644237 130.848411 
L 177.651423 130.928826 
L 177.510051 130.853701 
L 177.402416 130.75477 
L 177.286749 130.676471 
L 177.119673 130.662716 
L 176.999186 130.867457 
L 176.883519 131.006597 
L 176.743754 131.069555 
L 176.676281 131.155792 
L 176.514025 131.566878 
L 176.425668 131.98168 
L 176.290722 132.030356 
L 175.738088 131.820308 
L 175.207945 131.434609 
L 174.631213 131.220337 
L 174.456105 131.221395 
L 174.343651 131.296522 
L 174.056088 131.567936 
L 173.974157 131.628251 
L 173.620728 131.724014 
L 173.058455 132.183265 
L 172.750008 132.33988 
L 172.571687 132.319774 
L 172.428709 132.23353 
L 172.301796 132.181149 
L 172.170064 132.263689 
L 171.999775 132.5002 
L 171.834306 132.68539 
L 171.660805 132.712375 
L 171.476058 132.480093 
L 171.219019 132.708142 
L 170.920211 132.73354 
L 169.890448 132.592265 
L 169.733012 132.489617 
L 169.782813 132.277445 
L 169.990051 131.920305 
L 169.77478 131.714491 
L 169.316929 131.517145 
L 169.130576 131.349429 
L 169.045432 131.111351 
L 169.047038 130.701865 
L 168.90888 130.509824 
L 168.712888 130.408249 
L 168.320903 130.329953 
L 168.166679 130.243721 
L 168.071896 130.092421 
L 167.936951 129.70201 
L 167.848594 129.544368 
L 167.548179 129.258183 
L 167.136916 128.980468 
L 167.037841 128.949067 
L 166.707982 128.844521 
L 166.351341 128.984699 
L 166.295113 129.215335 
L 166.301539 129.497816 
L 166.258164 129.663922 
L 166.0445 129.544368 
L 165.959356 129.368213 
L 165.806739 128.762002 
L 165.724808 128.540367 
L 165.509538 128.836058 
L 165.281415 129.313198 
L 165.1786 129.75544 
L 165.345675 129.951174 
L 165.73284 130.057506 
L 165.760151 130.306676 
L 165.565765 130.586534 
L 165.291054 130.789687 
L 164.174541 130.977499 
L 164.017104 131.14521 
L 163.988187 131.199175 
L 163.806653 131.781155 
L 163.755246 132.017658 
L 163.753639 132.207604 
L 163.724722 132.360515 
L 163.59299 132.480093 
L 163.4966 132.480093 
L 163.390571 131.984854 
L 163.135139 131.839355 
L 162.821872 131.941469 
L 162.531097 132.187498 
L 162.095737 132.932491 
L 161.9383 133.038846 
L 161.727849 132.980641 
L 161.427435 132.704967 
L 161.249114 132.619779 
L 160.956732 132.677982 
L 160.690054 132.881694 
L 160.29325 133.318759 
L 159.498035 133.807696 
L 159.221718 134.031003 
L 158.990383 133.733084 
L 158.897206 133.689693 
L 158.79921 133.751605 
L 158.731737 133.877545 
L 158.680329 134.081274 
L 158.673903 134.310407 
L 158.746196 134.513614 
L 158.760654 134.777681 
L 158.387947 134.775564 
L 157.727678 134.589288 
L 157.61683 134.628448 
L 157.456181 134.810491 
L 157.313203 134.869232 
L 157.199141 134.853356 
L 156.893908 134.743812 
L 156.71398 134.717882 
L 156.431237 134.838009 
L 155.833621 135.397384 
L 155.489831 135.568852 
L 154.7894 135.684753 
L 154.476133 135.811769 
L 153.875304 136.263743 
L 153.160414 136.49291 
L 152.826263 136.687679 
L 151.886464 137.67109 
L 151.611754 137.806063 
L 151.248686 137.860052 
L 150.988434 138.019905 
L 150.814932 138.282977 
L 150.704084 138.646098 
L 150.676774 138.881655 
L 150.67838 139.060574 
L 150.663922 139.209323 
L 150.588417 139.358603 
L 150.46311 139.424773 
L 150.175548 139.408892 
L 150.056667 139.497826 
L 149.789989 139.292962 
L 149.521704 139.163798 
L 149.240568 139.097629 
L 148.938547 139.078572 
L 148.885532 139.027755 
L 148.713638 138.792195 
L 148.676688 138.722322 
L 148.607609 138.671506 
L 148.265426 138.580989 
L 148.136906 138.518528 
L 147.934488 137.946859 
L 147.505554 137.596988 
L 147.452539 137.526062 
L 147.262973 137.382094 
L 146.875808 136.670743 
L 146.642866 136.4077 
L 145.945648 136.86816 
L 145.564908 136.949669 
L 145.222725 136.757013 
L 145.05565 136.570182 
L 144.877329 136.414051 
L 144.684549 136.3082 
L 144.475705 136.267977 
L 144.289352 136.153659 
L 144.192962 135.884803 
L 144.131915 135.581553 
L 143.961627 135.15024 
L 143.797764 134.598813 
L 143.669245 134.437411 
L 143.476465 134.417302 
L 143.290112 134.50938 
L 143.110185 134.63374 
L 142.927044 134.717882 
L 142.702135 134.706768 
L 142.557551 134.644324 
L 142.440277 134.657024 
L 142.290873 134.869232 
L 142.199302 135.124838 
L 142.19127 135.375686 
L 142.260349 135.617541 
L 142.396901 135.848815 
L 142.268382 136.051514 
L 141.926198 136.396056 
L 141.747877 136.957608 
L 141.490838 136.896741 
L 141.19203 136.684504 
L 140.955876 136.560656 
L 140.694017 136.683445 
L 140.544613 136.981425 
L 140.369505 137.679559 
L 140.249018 137.991322 
L 140.114072 138.248041 
L 139.945391 138.463477 
L 139.723694 138.646098 
L 139.726907 138.888007 
L 139.820084 139.303549 
L 139.840968 139.497826 
L 139.802413 139.640755 
L 139.651402 139.999674 
L 139.617666 140.127786 
L 139.569471 140.236311 
L 139.35902 140.444364 
L 139.310825 140.553421 
L 139.312432 141.039422 
L 139.280302 141.255428 
L 139.193551 141.456612 
L 138.978281 141.598501 
L 138.647343 141.63768 
L 137.962976 141.60909 
L 137.685053 141.824574 
L 137.599909 142.322793 
L 137.632038 142.885095 
L 137.70915 143.287509 
L 137.977435 143.706877 
L 138.015991 143.860436 
L 137.946911 144.086012 
L 137.80072 144.307355 
L 137.615974 144.478925 
L 137.437653 144.547235 
L 137.313953 144.737871 
L 136.859315 145.831952 
L 136.865741 146.062322 
L 136.958917 146.492356 
L 136.965343 146.671893 
L 136.876986 146.875264 
L 136.592637 147.201512 
L 136.53159 147.294726 
L 136.411103 147.613037 
L 136.134786 147.966312 
L 135.585364 148.477964 
L 135.494654 148.527244 
L 135.18856 148.69354 
L 135.045582 148.770873 
L 133.190081 148.895348 
L 131.697648 148.45254 
L 131.347432 148.159636 
L 130.992397 147.98379 
L 130.833354 147.855085 
L 130.544185 147.461561 
L 130.46386 147.370993 
L 130.161839 147.23223 
L 129.374657 147.033621 
L 129.04524 146.830656 
L 128.614785 146.565441 
L 128.499117 146.518836 
L 128.31437 146.52731 
L 128.235652 146.55379 
L 128.169786 146.601455 
L 128.021988 146.671893 
L 127.697476 146.748157 
L 126.791414 146.671893 
L 126.420313 146.582389 
L 126.17452 146.374784 
L 125.959249 146.137525 
L 125.676506 145.959582 
L 125.538348 145.934162 
L 125.088529 145.959582 
L 124.916635 145.927807 
L 124.839523 145.851547 
L 124.796147 145.759929 
L 124.722249 145.679433 
L 124.392917 145.520031 
L 124.169615 145.48402 
L 123.641078 145.539096 
L 123.053101 145.473429 
L 122.789636 145.503085 
L 121.297202 146.518836 
L 121.136553 146.424566 
L 120.829713 146.421389 
L 120.661031 146.379021 
L 120.54697 146.281045 
L 120.431302 146.140172 
L 120.286717 146.0136 
L 120.085906 145.959582 
L 119.412784 145.997713 
L 119.113976 145.965937 
L 118.758941 145.831952 
L 118.501902 145.680492 
L 117.756489 145.054543 
L 117.680983 144.909975 
L 117.578168 144.764878 
L 117.414305 144.700273 
L 117.211887 144.717748 
L 117.065696 144.768055 
L 116.948422 144.851724 
L 116.829541 144.967167 
L 116.734758 145.102203 
L 116.649614 145.269545 
L 116.545192 145.428945 
L 116.405427 145.539096 
L 116.211041 145.557101 
L 116.087341 145.453305 
L 115.974886 145.32462 
L 115.81745 145.260013 
L 115.50579 145.237771 
L 115.390122 145.175283 
L 115.264816 144.836897 
L 115.076856 144.714571 
L 114.697723 144.547235 
L 114.540287 144.292528 
L 114.241479 143.576088 
L 114.114566 143.427826 
L 113.859133 143.363757 
L 112.365093 142.643652 
L 110.935313 142.241255 
L 110.326451 142.29632 
L 110.114394 142.442982 
L 109.93286 142.633063 
L 109.696706 142.79826 
L 109.323999 142.868152 
L 108.088605 142.868152 
L 106.763247 143.135544 
L 106.408211 143.027527 
L 106.090125 142.753784 
L 104.487618 140.777351 
L 104.419371 140.693185 
L 104.260328 140.251134 
L 104.33744 139.858329 
L 104.494876 139.514765 
L 104.586447 139.217793 
L 104.483631 138.79643 
L 104.231411 138.333263 
L 103.926177 137.959563 
L 103.664319 137.806063 
L 103.535799 137.657328 
L 103.196829 136.687679 
L 102.891595 136.053631 
L 102.657047 135.715448 
L 102.401614 135.568852 
L 102.078709 135.515929 
L 101.34936 135.198928 
L 101.066617 135.01 
L 100.764596 134.680309 
L 100.057739 133.53518 
L 99.760537 133.282778 
L 98.730774 132.758938 
L 98.23758 132.317657 
L 97.8713 131.904432 
L 97.450398 131.566878 
L 96.073632 131.185419 
L 95.692893 131.000778 
L 95.529031 130.726201 
L 95.453525 130.408249 
L 95.18389 129.809543 
L 95.059934 129.534317 
L 94.880007 129.251835 
L 94.66313 129.058756 
L 93.956273 128.625 
L 93.483963 128.496992 
L 93.172303 128.303924 
L 93.029325 128.26055 
L 91.257362 128.212945 
L 90.68545 127.867019 
L 90.372183 127.945301 
L 89.882203 128.26055 
L 89.56251 128.304982 
L 88.552025 128.26055 
L 88.201809 128.374803 
L 87.972081 128.649333 
L 87.644356 129.251835 
L 86.256344 130.383385 
L 85.528602 130.823546 
L 85.416148 130.99972 
L 85.1816 131.533017 
L 84.886005 132.061044 
L 84.627359 132.141466 
L 83.912469 132.130884 
L 83.65061 132.263689 
L 83.503951 132.446571 
L 83.139745 132.900743 
L 82.918049 133.271137 
L 82.742941 133.751605 
L 82.606389 134.391901 
L 82.530884 134.589288 
L 82.400758 134.77133 
L 82.262599 134.904159 
L 82.151751 135.072446 
L 82.024838 135.856225 
L 81.814387 136.151012 
L 81.541283 136.381237 
L 81.25854 136.687679 
L 80.728397 137.875932 
L 80.660924 137.948977 
L 80.36051 138.092421 
L 80.293037 138.168643 
L 80.257694 138.199344 
L 80.08098 138.798547 
L 79.550836 139.358603 
L 79.174917 140.056848 
L 78.378095 142.649477 
L 78.010208 143.322456 
L 77.508982 143.799012 
L 76.782846 144.127845 
L 76.467973 144.21151 
L 76.154707 144.237457 
L 75.849473 144.158557 
L 75.561911 143.923979 
L 75.261496 143.893266 
L 74.956262 144.274524 
L 74.724927 144.813597 
L 74.649422 145.260013 
L 74.773122 145.609529 
L 75.200449 146.087743 
L 75.295232 146.309643 
L 75.377164 146.700492 
L 75.933011 148.057942 
L 76.135429 148.860389 
L 76.350699 150.591474 
L 76.331421 151.894142 
L 76.273588 152.390019 
L 76.164346 152.852002 
L 75.839834 153.554536 
L 75.809311 154.013371 
L 75.814175 154.269316 
L 75.826982 154.943263 
L 75.518535 157.48574 
L 76.037433 162.26322 
L 75.354673 162.252619 
L 75.165106 162.001896 
L 74.917706 161.247628 
L 74.281534 159.896592 
L 74.027708 159.50227 
L 73.638937 159.079867 
L 73.436518 159.093647 
L 73.264623 159.367651 
L 72.980274 159.73282 
L 72.838902 159.811791 
L 72.575437 159.791651 
L 72.398723 159.822391 
L 72.329644 159.908252 
L 72.265384 160.188628 
L 72.205944 160.262831 
L 72.096702 160.25965 
L 71.921594 160.144107 
L 71.828417 160.117606 
L 70.58981 160.262831 
L 70.417915 160.25541 
L 70.27815 160.204529 
L 70.164089 160.25223 
L 70.070912 160.534732 
L 69.960064 161.154341 
L 69.900624 161.354698 
L 69.720697 161.707713 
L 69.449199 162.048542 
L 69.123081 162.252619 
L 68.785717 162.192721 
L 68.581692 161.893233 
L 68.384093 161.074305 
L 68.110989 160.721831 
L 67.576026 160.487029 
L 67.033031 160.49339 
L 66.504495 160.681549 
L 66.019333 160.992679 
L 65.826554 161.019181 
L 65.67715 160.946035 
L 65.127729 160.487029 
L 65.045798 160.443037 
L 64.95744 160.530491 
L 64.363037 160.912113 
L 64.069049 161.023421 
L 63.847353 160.965117 
L 63.741324 160.643387 
L 63.667425 160.23633 
L 63.521234 159.860551 
L 63.322029 159.5611 
L 63.085874 159.378251 
L 62.950929 159.363412 
L 62.650514 159.442911 
L 62.507536 159.439731 
L 62.40954 159.366591 
L 62.25853 159.139226 
L 62.154107 159.076688 
L 62.043259 159.084107 
L 61.863332 159.173145 
L 61.779794 159.195405 
L 60.507451 159.197524 
L 59.877705 159.076158 
L 59.313825 158.74969 
L 58.7387 158.113199 
L 58.668014 158.060204 
L 58.451138 158.030526 
L 58.375632 157.949973 
L 58.314586 157.680229 
L 58.247113 157.588548 
L 57.890471 157.516476 
L 57.638251 157.660091 
L 57.402097 157.889029 
L 57.19995 158.026391 
L 56.597243 158.435947 
L 56.28719 158.948962 
L 55.954645 159.357582 
L 55.390766 159.411111 
L 54.989142 159.233564 
L 54.789937 159.206004 
L 54.565027 159.314652 
L 54.349757 159.5505 
L 54.222844 159.7678 
L 54.083079 159.957013 
L 53.822827 160.112306 
L 53.599524 160.155767 
L 52.976204 160.130327 
L 52.762541 160.207709 
L 52.344852 160.422367 
L 52.131188 160.466888 
L 51.711893 160.431907 
L 51.572128 160.476429 
L 51.313483 160.637027 
L 51.205847 160.731372 
L 51.03074 160.931194 
L 50.900613 161.00646 
L 50.80583 161.01494 
L 50.596986 160.978898 
L 50.476499 161.00964 
L 50.269261 161.101867 
L 50.143955 161.000099 
L 50.029893 160.826778 
L 49.859605 160.69957 
L 49.706988 160.682609 
L 49.276448 160.749923 
L 49.13347 160.714411 
L 48.84912 160.575014 
L 48.702929 160.526251 
L 48.474807 160.555933 
L 48.453922 160.723951 
L 48.497298 160.940735 
L 48.466774 161.115648 
L 48.16154 161.319715 
L 47.833815 161.344097 
L 46.553439 160.922714 
L 46.240173 160.891972 
L 45.881925 160.922714 
L 45.152576 161.202045 
L 44.516404 161.754358 
L 44.037669 162.519246 
L 43.788662 163.434713 
L 43.650504 165.150198 
L 43.261732 166.441146 
L 43.252093 166.944823 
L 43.163736 167.384888 
L 42.628773 168.366847 
L 42.448846 168.836634 
L 42.4376 169.343548 
L 42.561301 169.778358 
L 42.723557 170.198329 
L 42.842437 170.656489 
L 42.739621 171.393593 
L 42.138792 172.917725 
L 42.182168 173.824615 
L 42.371734 174.211777 
L 42.596643 174.544848 
L 42.733195 174.913989 
L 42.660903 175.408308 
L 42.217511 176.654756 
L 41.858289 177.662746 
L 41.643992 178.264092 
L 40.982116 180.117552 
L 40.275259 182.097408 
L 39.775639 183.502279 
L 39.068782 185.483435 
L 38.270354 187.724731 
L 38.210913 187.662117 
L 38.006889 187.508235 
L 38.030986 187.311904 
L 38.119343 187.049778 
L 38.112917 186.877858 
L 38.05669 186.806756 
L 37.84142 186.627409 
L 37.793225 186.526593 
L 37.773947 186.115905 
L 37.74503 185.930195 
L 37.688803 185.743425 
L 37.581168 185.531188 
L 37.287179 185.088678 
L 37.092793 184.580384 
L 36.969093 184.151684 
L 36.946602 183.985087 
L 36.946602 183.218964 
L 36.877523 182.843339 
L 36.679924 182.363733 
L 36.617271 182.097408 
L 36.631729 181.640097 
L 36.87431 180.936639 
L 36.946602 180.543007 
L 36.900014 180.123918 
L 36.660646 179.407769 
L 36.617271 178.988698 
L 36.670285 178.758477 
L 36.789166 178.456116 
L 36.930537 178.177098 
L 36.753823 178.125114 
L 36.554618 178.104957 
L 36.345773 178.148454 
L 36.18673 178.141028 
L 36.135323 177.963859 
L 36.146568 177.676359 
L 36.087128 176.978312 
L 36.144962 176.437286 
L 36.564257 175.883542 
L 36.692776 175.398761 
L 36.649401 174.854587 
L 36.495177 174.395284 
L 36.304004 173.96569 
L 36.074276 173.28472 
L 35.744944 172.651499 
L 35.621244 172.479673 
L 35.458988 172.387397 
L 35.307978 172.377851 
L 35.142509 172.428762 
L 34.933665 172.526342 
L 34.867798 172.439368 
L 34.813178 172.340728 
L 34.771409 172.229361 
L 34.564171 171.196323 
L 34.437258 170.796484 
L 34.178612 170.370138 
L 33.876591 170.038188 
L 33.624372 169.92365 
L 32.95607 170.016977 
L 32.89663 169.987282 
L 32.729554 169.844111 
L 32.636378 169.820779 
L 32.557659 169.860019 
L 32.377732 169.993646 
L 32.315079 170.016977 
L 32.120693 169.977738 
L 31.998599 169.928953 
L 31.881325 169.832445 
L 30.716617 168.201417 
L 29.25792 166.163334 
L 27.720504 164.012533 
L 26.104371 161.750117 
L 24.795078 159.922032 
L 23.746884 158.45353 
L 23.596633 158.24304 
L 22.332322 156.476761 
L 20.989292 153.875083 
L 20.073591 150.999375 
L 20.340269 150.998316 
L 20.838282 151.165717 
L 21.095321 151.209156 
L 21.398949 151.125455 
L 22.00781 150.744568 
L 22.349993 150.635972 
L 22.655227 150.463279 
L 22.619884 150.240264 
L 22.431924 150.069164 
L 22.194163 150.018311 
L 21.977287 150.018311 
L 21.885716 149.884822 
L 21.834309 149.595072 
L 21.734706 149.309034 
L 21.500158 149.190383 
L 21.264003 149.22958 
L 21.087289 149.037303 
L 20.982866 148.487498 
L 20.958769 147.321208 
L 20.801333 146.082447 
L 20.661568 145.518972 
L 20.423806 144.940689 
L 19.885631 144.067479 
L 19.784422 143.79054 
L 19.678393 143.269506 
L 19.575577 143.062474 
L 19.39083 142.915276 
L 18.711283 142.598647 
L 16.245314 140.362837 
L 15.686254 139.647108 
L 15.274991 138.785843 
L 15.072573 137.81612 
L 14.964938 136.262155 
L 14.862122 135.915499 
L 14.879794 135.781073 
L 14.94566 135.555092 
L 15.016346 135.052337 
L 15.029198 134.845418 
L 14.804289 132.910267 
L 14.720751 132.663167 
L 14.630787 132.462104 
L 14.572953 132.256281 
L 14.609903 131.708142 
L 14.537611 131.512912 
L 14.438008 131.336731 
L 14.376961 131.105002 
L 14.38683 130.810051 
L 14.389813 130.720911 
L 14.500661 129.96387 
L 14.431582 129.171958 
L 14.434795 128.14048 
L 14.367322 127.675547 
L 14.253261 127.205341 
L 14.081366 126.781165 
L 13.832359 126.457489 
L 13.507848 126.248584 
L 12.837939 125.955066 
L 12.515034 125.684824 
L 12.26924 125.318868 
L 12.206587 125.095704 
L 12.3335 125.045995 
L 12.513427 124.829709 
L 12.649979 124.483343 
L 12.73673 124.120594 
L 12.767254 123.852505 
L 12.842759 123.767902 
L 12.998589 123.451174 
L 13.130321 123.110133 
L 13.135141 122.950983 
L 13.340772 122.855812 
L 13.409851 122.621587 
L 13.393786 122.035779 
L 13.445194 121.697419 
L 13.67171 121.120113 
L 13.723118 120.906537 
L 13.745609 120.289621 
L 13.719905 120.035357 
L 13.617089 119.71238 
L 13.398606 119.230309 
L 13.319888 118.949638 
L 13.299003 118.594977 
L 13.340772 118.276266 
L 13.617089 117.350308 
L 13.830753 116.236292 
L 13.935175 115.940894 
L 13.825933 115.52661 
L 13.723118 113.345514 
L 13.498209 112.96883 
L 13.421097 112.557819 
L 13.215466 112.150521 
L 13.024293 112.134673 
L 12.603391 112.474351 
L 12.373662 112.508161 
L 11.885288 112.434202 
L 11.620217 112.432089 
L 11.364784 112.206517 
L 11.24751 111.884808 
L 11.180037 111.527716 
L 11.072402 111.197574 
L 10.845886 110.882231 
L 10.616157 110.640844 
L 10.437837 110.35932 
L 10.307711 110.192944 
L 10.179191 109.949987 
L 10.145455 109.786786 
L 10.192043 109.648939 
L 10.307711 109.482045 
L 10.381609 109.463032 
L 10.543865 109.623588 
L 10.625796 109.621475 
L 10.693269 109.534859 
L 10.74789 109.361102 
L 10.796085 109.272903 
L 10.865164 109.074856 
L 10.851813 108.967457 
L 10.837854 108.85516 
L 10.818576 108.784393 
L 11.025814 108.535657 
L 11.385668 108.078864 
L 11.620217 107.987507 
L 12.068428 107.409813 
L 12.30137 107.026988 
L 12.441135 106.699618 
L 13.085339 106.705954 
L 15.302302 105.314736 
L 15.548096 105.057631 
L 16.129647 104.07942 
L 16.287083 103.702518 
L 16.322426 103.477122 
L 16.317606 103.254897 
L 16.250134 102.774043 
L 16.28387 102.541277 
L 16.674248 101.84301 
L 18.455287 96.561867 
L 18.619713 96.074445 
L 18.83177 95.759016 
L 19.08399 95.535373 
L 20.017363 94.926182 
L 20.20693 94.717325 
L 20.32581 94.431472 
L 20.587669 93.50277 
L 20.917 92.649557 
L 21.429472 90.882196 
L 21.673659 89.621194 
L 21.786114 89.237444 
L 21.954796 88.900093 
L 22.096167 88.77886 
L 22.452809 88.562754 
L 22.584541 88.354031 
L 22.62631 88.146367 
L 22.550805 86.961608 
L 22.570083 86.76873 
L 22.642375 86.544237 
L 22.857646 86.077351 
L 23.150028 85.113088 
L 23.50219 84.721286 
L 23.731579 84.466086 
L 24.92681 83.590492 
L 25.659372 82.852991 
L 25.718812 82.734996 
L 25.847332 82.396823 
L 25.937295 82.281994 
L 26.036898 82.255658 
L 26.32928 82.232482 
L 26.396753 82.213519 
L 26.430489 81.944891 
L 26.128468 81.579359 
L 26.189515 81.259135 
L 27.026499 79.780352 
L 27.146986 79.491786 
L 27.683555 79.717162 
L 28.249041 79.764554 
L 29.38162 79.5634 
L 30.061167 79.633961 
L 30.861201 80.605029 
L 31.457211 80.871511 
L 32.009845 80.822006 
L 34.051699 80.2069 
L 34.329623 80.061555 
L 34.835668 79.656078 
L 35.063791 79.366462 
L 35.404368 78.736712 
L 35.622851 78.439754 
L 35.881496 78.255477 
L 36.226893 78.107005 
L 37.214887 77.938529 
L 37.741817 77.701615 
L 38.098459 77.708986 
L 38.434216 77.652127 
L 38.745876 77.406798 
L 39.284052 76.870887 
L 39.608564 76.703487 
L 40.977297 76.450814 
L 41.166863 76.284474 
L 41.231123 75.999178 
L 41.229517 74.614939 
L 41.309841 74.187606 
L 41.545996 73.933952 
L 41.713071 73.938162 
L 41.854443 74.027624 
L 42.011879 74.090774 
L 42.22233 74.014994 
L 42.320326 73.861331 
L 42.509893 73.327739 
L 42.607889 73.124625 
L 42.856896 72.851008 
L 43.128393 72.666847 
L 43.742074 72.42797 
L 43.764565 72.597393 
L 43.774204 72.7805 
L 43.766171 72.96782 
L 43.682634 73.588742 
L 43.751713 73.961317 
L 43.920395 74.266545 
L 44.172615 74.509683 
L 44.33487 74.595993 
L 44.484274 74.645464 
L 44.620827 74.72546 
L 44.74292 74.908611 
L 44.821638 75.191767 
L 44.791115 75.404403 
L 44.723642 75.607569 
L 44.693119 75.858113 
L 44.760592 76.306583 
L 44.921241 76.52872 
L 45.52207 76.758233 
L 45.889957 76.995122 
L 46.246599 77.362576 
L 46.820117 78.201774 
L 47.160694 78.94206 
L 47.374358 79.127404 
L 47.734213 79.075803 
L 47.848274 78.993661 
L 47.882731 78.956211 
L 48.219374 78.590338 
L 48.264356 78.591391 
L 48.431431 78.622982 
L 48.486052 78.590338 
L 48.516576 78.429224 
L 48.463561 78.33024 
L 48.396089 78.239682 
L 48.38163 78.099634 
L 48.500511 77.694245 
L 48.66598 77.429962 
L 48.902134 77.25834 
L 49.507783 77.029867 
L 50.177691 76.895102 
L 50.476499 76.93511 
L 50.585741 76.6898 
L 50.71908 76.568727 
L 50.886155 76.549776 
L 51.363284 76.655057 
L 51.411479 76.56241 
L 51.395414 76.389752 
L 51.4661 76.202359 
L 51.679763 75.96128 
L 51.986604 76.096031 
L 52.160105 76.220256 
L 52.242036 76.333955 
L 52.341639 76.344483 
L 52.564942 76.158143 
L 52.86375 75.786528 
L 53.408351 74.922295 
L 53.689488 74.584415 
L 53.809975 74.563363 
L 53.936888 74.59073 
L 54.038097 74.499157 
L 54.091112 74.12235 
L 54.187501 73.8908 
L 54.391208 73.633775 
L 54.404378 73.617159 
L 54.656598 73.38878 
L 56.753073 72.418499 
L 57.067946 72.162793 
L 57.271971 71.853429 
L 58.006139 72.140695 
L 58.192492 71.983908 
L 58.330651 71.523033 
L 58.586083 71.283136 
L 58.89935 71.186337 
L 59.45841 71.110582 
L 59.784528 70.990638 
L 60.083336 70.791787 
L 60.404635 70.2142 
L 60.703443 70.085852 
L 61.04402 70.060604 
L 61.32355 70.082696 
L 63.460187 70.552962 
L 64.105998 70.586629 
L 64.713253 70.443547 
L 65.947041 69.838631 
L 67.396099 69.390495 
L 74.20121 69.156968 
L 75.460701 68.806691 
L 75.9057 67.946837 
L 75.916946 66.959296 
L 76.226999 66.165878 
L 76.755536 65.558114 
L 77.415805 65.127555 
L 78.328294 64.721724 
L 78.599792 64.543522 
L 78.938762 64.156118 
L 79.589392 62.866828 
L 80.095438 62.233032 
L 80.310708 61.873588 
L 80.45208 61.37859 
L 80.609516 60.989234 
L 82.162996 58.682384 
L 82.797562 57.055224 
L 82.968004 56.928232 
L 83.114041 56.819424 
L 83.266658 56.501709 
L 83.77431 56.050103 
L 83.459438 55.583296 
L 82.987128 55.126493 
L 82.742941 54.940104 
L 82.601569 54.61564 
L 80.742855 53.581961 
L 80.559715 53.407158 
L 80.48421 53.137874 
L 80.440834 52.794065 
L 80.336412 52.601433 
L 80.08098 52.783567 
L 79.820727 52.508006 
L 79.819121 52.209362 
L 80.177369 51.522367 
L 80.312315 51.602662 
L 80.455293 51.597414 
L 80.566141 51.504524 
L 80.612729 51.320846 
L 80.646466 51.11041 
L 80.734823 51.040091 
L 80.856916 51.005981 
L 81.099497 50.830711 
L 81.407944 50.704247 
L 81.470597 50.627635 
L 81.51076 50.475987 
L 81.608756 50.334311 
L 81.836878 50.066185 
L 82.185487 49.749797 
L 82.787923 49.364693 
L 83.40803 49.139621 
L 83.814473 49.303834 
L 83.922108 49.303834 
L 84.05384 49.273405 
L 84.468316 49.404567 
L 84.55828 49.373088 
L 84.636998 49.139621 
L 84.829777 49.039941 
L 85.464343 48.996922 
L 85.784035 48.88203 
L 85.936652 48.875734 
L 86.123005 49.003217 
L 86.286868 49.189462 
L 86.437878 49.256616 
L 86.582463 49.026301 
L 86.760784 49.183166 
L 87.025855 49.316426 
L 87.319844 49.407715 
L 87.586522 49.441817 
L 87.792153 49.38463 
L 88.388163 49.095552 
L 88.531141 49.188413 
L 89.719947 49.165328 
L 89.800271 49.199955 
L 89.862925 49.257665 
L 89.948069 49.270257 
L 90.095866 49.165328 
L 90.452508 49.178969 
L 90.908752 48.935016 
L 91.382668 48.806485 
L 91.793931 49.165328 
L 92.047757 49.017907 
L 92.725698 49.031547 
L 92.865463 48.950755 
L 92.942575 48.857897 
L 93.318494 48.650152 
L 93.45344 48.610807 
L 93.633367 48.597168 
L 94.041417 48.459724 
L 94.365929 48.411462 
L 95.670402 48.507986 
L 95.868001 48.397823 
L 96.059174 48.043213 
L 96.28087 48.179075 
L 96.333016 48.163726 
L 96.508992 48.11193 
L 96.907403 47.766775 
L 97.023071 47.740548 
L 97.162836 47.760481 
L 97.28011 47.732156 
L 97.331517 47.56483 
L 97.344369 47.447337 
L 97.381319 47.331945 
L 97.434333 47.24645 
L 97.49538 47.211833 
L 97.612654 47.290508 
L 97.667275 47.601023 
L 97.766877 47.627249 
L 97.860054 47.543849 
L 97.853628 47.439994 
L 97.829531 47.326699 
L 97.872906 47.211833 
L 98.329151 46.721965 
L 98.456064 46.645394 
L 98.584583 46.673715 
L 98.79664 46.787524 
L 98.933193 46.795916 
L 98.950864 46.726161 
L 98.936405 46.583508 
L 98.958896 46.443479 
L 99.092235 46.380546 
L 99.20951 46.49068 
L 99.342849 46.733504 
L 99.527595 46.976336 
L 99.791061 47.085954 
L 100.024002 46.995217 
L 100.465788 46.597144 
L 100.69391 46.506413 
L 100.85456 46.567774 
L 101.032881 46.71777 
L 101.383097 47.085954 
L 101.691544 46.998364 
L 102.975133 47.085954 
L 103.269121 47.012001 
L 103.363904 46.940671 
L 103.651467 46.66847 
L 103.799264 46.565676 
L 103.964733 46.541551 
L 104.152693 46.645394 
L 104.467566 46.215349 
L 104.657132 45.711388 
L 104.877222 45.295031 
L 105.27242 45.120419 
L 105.362384 44.904914 
L 105.201734 44.427258 
L 105.100525 43.951206 
L 105.381661 43.735735 
L 105.571228 43.692746 
L 105.683682 43.570597 
L 105.73991 43.37663 
L 105.754368 43.118191 
L 105.810595 42.921615 
L 105.951967 42.949397 
L 106.284511 43.193677 
L 106.303789 43.174805 
L 106.594565 43.196822 
L 106.604204 43.193677 
L 106.866062 43.303763 
L 106.973697 43.31949 
L 107.770519 43.31949 
L 107.5681 42.488643 
L 108.204272 42.072993 
L 108.904704 41.795732 
L 109.054108 41.645313 
L 109.169775 41.795732 
L 109.304721 41.604433 
L 109.3738 41.371212 
L 109.458944 41.173636 
L 109.642085 41.090833 
L 109.704738 41.04786 
L 109.796308 40.857629 
L 109.854142 40.81361 
L 109.928041 40.858677 
L 110.02925 40.944097 
L 110.039414 40.949558 
L 110.138492 41.002791 
L 110.230062 40.965059 
L 110.331271 40.576223 
L 110.356975 40.064793 
L 110.467823 39.619941 
L 110.814826 39.429748 
L 110.977082 39.253182 
L 111.574698 38.404994 
L 111.708037 38.107968 
L 111.767477 37.892672 
L 111.910455 37.741287 
L 112.247819 37.490908 
L 112.318505 37.31439 
L 112.345815 37.135782 
L 112.429353 37.061407 
L 112.670327 37.201777 
L 112.649443 36.936228 
L 112.623739 36.87233 
L 112.556266 36.786435 
L 112.556266 36.648691 
L 112.776356 36.55442 
L 112.871139 36.297274 
L 112.883991 35.610725 
L 112.933792 35.302298 
L 113.153882 34.753551 
L 113.202077 34.366103 
L 113.242239 34.278145 
L 113.330596 34.170293 
L 113.435018 34.07396 
L 113.520163 34.020036 
L 113.53944 33.989671 
L 113.555505 33.937317 
L 113.595668 33.8902 
L 113.684025 33.868211 
L 113.754711 33.914282 
L 113.899295 34.110608 
L 113.955523 34.145162 
L 114.069584 34.08129 
L 114.180432 33.98077 
L 114.379637 33.74309 
L 114.440684 33.722149 
L 114.51137 33.745184 
L 114.567597 33.749372 
L 114.591694 33.667704 
L 114.578842 33.387631 
L 114.591694 33.31539 
L 114.824636 32.576793 
L 114.983679 32.221918 
L 115.843154 31.498615 
L 115.970067 31.454654 
L 116.016655 31.136993 
L 116.12911 30.8565 
L 116.925931 29.663488 
L 117.149234 29.430666 
L 117.364504 29.605936 
L 118.000676 29.926665 
L 118.20952 29.98422 
L 118.750909 29.716855 
L 119.256954 29.059736 
L 119.668217 28.239997 
L 120.47789 25.846222 
L 120.910037 25.11367 
L 121.403231 24.719453 
L 121.551029 24.74664 
L 121.740595 24.830814 
L 121.936587 24.875777 
L 122.098843 24.787942 
L 122.156677 24.829768 
L 122.651477 24.628483 
L 122.735015 24.568883 
L 123.133426 24.442888 
L 123.329418 24.128695 
L 123.454725 23.724605 
L 123.641078 23.325245 
L 123.77281 23.254157 
L 123.951131 23.231681 
L 124.105355 23.168957 
L 124.171221 22.979744 
L 124.156763 22.814057 
L 124.08929 22.514576 
L 124.074831 22.295592 
L 124.131059 21.870712 
L 124.606581 20.839199 
L 124.490913 20.694466 
L 124.478062 20.557051 
L 124.503765 20.422251 
L 124.500552 20.287455 
L 124.404163 20.107207 
L 124.131059 19.702845 
L 124.074831 19.514778 
L 124.041095 19.183584 
L 123.898117 18.408951 
L 123.864381 17.996861 
L 123.898117 17.604643 
L 124.041095 17.006701 
L 124.074831 16.610367 
L 124.164795 16.2929 
L 124.380065 16.101801 
L 124.64353 16.009908 
L 124.876472 15.984324 
L 124.966436 15.920105 
L 125.037122 15.776527 
L 125.131905 15.633997 
L 125.295767 15.570304 
L 125.42268 15.546288 
L 125.718275 15.44344 
L 125.878925 15.419425 
L 126.187372 15.617291 
L 126.356054 15.66219 
L 126.429952 15.494603 
L 126.487786 15.466933 
L 126.844428 15.030499 
L 127.31995 14.607667 
L 127.591448 14.44324 
L 128.536067 14.139975 
L 128.703142 13.911883 
L 128.552132 13.488605 
L 128.653341 13.210436 
L 128.760976 12.794511 
L 128.934477 12.413575 
L 129.231679 12.247119 
L 130.534546 12.41775 
L 130.780339 12.372874 
L 131.217306 12.66666 
L 131.42615 12.240857 
L 131.594832 11.607426 
L 132.041438 11.136829 
L 132.208513 10.855635 
L 132.409325 10.665746 
L 132.648693 10.793034 
L 132.773999 10.802424 
L 132.941075 10.652704 
L 133.23185 10.317283 
L 133.431055 10.180094 
L 133.752354 10.011089 
L 134.089718 9.891642 
L 134.144806 9.88032 
L 134.566847 9.793582 
L 134.803002 9.701782 
L 134.992568 9.546873 
L 135.278524 9.126501 
L 135.426322 8.990904 
L 135.633559 8.939273 
L 135.879353 8.997162 
L 136.104262 9.094166 
L 136.292222 9.113984 
L 136.433594 8.939273 
L 136.787022 9.349201 
L 137.114747 9.380494 
L 137.445685 9.256365 
L 137.815179 9.202124 
L 137.943698 9.254279 
L 138.2409 9.437866 
L 138.398336 9.478026 
L 138.939725 9.45925 
L 139.087523 9.478026 
L 139.665861 9.669444 
L 140.057845 10.090375 
L 141.00407 10.480035 
z
" clip-path="url(#pd8273a08b2)" style="stroke: #000000; stroke-linejoin: miter"/>
   </g>
   <g id="line2d_1">
    <path d="M 141.860332 10.588018 
L 141.894068 11.139959 
L 144.106211 15.280558 
L 145.720738 16.741953 
L 148.546562 20.274915 
L 154.04238 31.945567 
L 154.497018 35.445252 
L 154.419906 36.22186 
L 154.209455 36.821002 
L 153.441551 38.550106 
L 153.45119 38.771709 
L 153.63433 39.540824 
L 153.656821 40.363996 
L 153.889763 40.613952 
L 154.066477 40.824091 
L 154.07451 40.958771 
L 153.664854 42.896453 
L 153.846387 43.815422 
L 153.502598 44.264202 
L 152.561192 45.688839 
L 152.381264 45.833049 
L 152.130651 45.889684 
L 151.627819 45.862415 
L 151.391664 45.984603 
L 151.134625 46.482288 
L 150.832604 49.560391 
L 151.036629 49.973838 
L 151.451104 50.283938 
L 151.876825 50.239862 
L 152.453557 49.504777 
L 152.726661 49.521566 
L 152.840722 49.960721 
L 152.816624 50.667515 
L 152.625452 51.822559 
L 152.361987 52.382039 
L 151.720995 53.32002 
L 151.51697 53.849161 
L 151.508938 54.337389 
L 151.637458 54.8813 
L 151.873612 55.325488 
L 152.191698 55.513461 
L 152.421427 55.446252 
L 153.004584 54.924353 
L 153.554005 54.888651 
L 154.233553 55.340189 
L 154.731566 55.326538 
L 155.231186 55.50296 
L 156.508349 55.09394 
L 157.491523 55.385345 
L 158.355818 55.270357 
L 159.273126 55.662058 
L 159.713305 55.566494 
L 161.335865 55.916727 
L 162.947179 55.716142 
L 163.228315 55.909376 
L 163.192972 56.19871 
L 162.847576 57.025814 
L 162.958424 57.310989 
L 163.380932 57.742708 
L 163.458044 57.990091 
L 163.352015 58.18233 
L 162.56644 58.949757 
L 161.69572 60.852097 
L 161.509366 61.543061 
L 161.453139 62.205706 
L 161.605756 62.800608 
L 161.939907 63.312511 
L 162.775284 64.016825 
L 163.559253 64.303298 
L 164.386598 64.458365 
L 164.725568 64.7806 
L 165.728021 64.331157 
L 166.26459 64.258092 
L 167.045346 65.168559 
L 167.535327 65.565475 
L 168.030127 65.586504 
L 169.120937 65.36202 
L 170.608551 65.623305 
L 171.101745 65.978707 
L 172.001382 66.11225 
L 172.497789 66.408259 
L 173.985402 68.337047 
L 174.020745 69.059668 
L 174.338831 69.488325 
L 174.456105 70.001691 
L 176.027257 71.896571 
L 176.714837 72.107022 
L 177.416875 71.968124 
L 177.913282 72.142799 
L 178.085176 72.379564 
L 178.478768 72.548986 
L 178.828983 73.121468 
L 179.314145 74.950716 
L 179.314145 76.131824 
L 179.450697 76.716121 
L 179.381618 77.073034 
L 179.033008 77.471025 
L 178.006458 77.925893 
L 177.67552 78.337611 
L 177.734961 78.923105 
L 178.067505 79.94149 
L 179.29808 80.898897 
L 179.661148 81.449793 
L 180.022609 81.653096 
L 180.146309 81.944891 
L 180.329449 82.827706 
L 180.703762 83.317609 
L 181.576089 83.884455 
L 182.181737 84.487161 
L 182.586574 84.732679 
L 182.884579 84.597801 
L 183.140011 84.655757 
L 183.371347 84.844377 
L 184.315965 85.852875 
L 185.564212 86.330289 
L 186.067044 86.767676 
L 186.523289 86.848832 
L 186.940977 87.229326 
L 187.328143 87.25146 
L 187.41168 87.420105 
L 187.413287 87.690998 
L 187.554658 88.020928 
L 187.7876 88.126339 
L 188.486425 88.212777 
L 188.812543 88.533237 
L 188.921785 89.103556 
L 189.569202 89.51893 
L 190.036692 89.662311 
L 190.357991 90.15573 
L 191.056816 90.229534 
L 191.153206 90.690294 
L 191.207827 91.74791 
L 191.437555 92.269907 
L 191.795804 92.301544 
L 191.827934 92.923758 
L 191.909865 93.378844 
L 192.068908 93.62406 
L 192.70026 94.003762 
L 192.946054 94.147209 
L 193.429609 94.93884 
L 194.857782 96.233746 
L 195.776697 96.681067 
L 196.52693 97.238136 
L 196.555847 97.922381 
L 195.693159 99.608652 
L 195.259406 100.582234 
L 194.957385 100.830789 
L 194.851356 101.06985 
L 195.145345 101.197035 
L 195.169442 101.49838 
L 195.047349 102.250459 
L 195.153377 102.672175 
L 195.55982 102.991507 
L 195.861841 103.215837 
L 196.785576 104.442609 
L 197.431386 104.623153 
L 197.67718 104.856491 
L 197.877992 105.998444 
L 198.358334 106.064969 
L 198.562359 106.385457 
L 198.570391 106.775123 
L 198.4242 107.151603 
L 197.323751 108.273197 
L 197.200051 108.670323 
L 197.254672 109.103903 
L 197.500466 109.010954 
L 198.128605 108.439544 
L 198.404922 108.544107 
L 199.100534 109.954212 
L 200.011417 110.367771 
L 200.511036 110.45228 
L 201.609879 110.384673 
L 202.998693 111.188066 
L 203.164965 111.460102 
L 203.380236 112.739021 
L 203.741697 112.950868 
L 204.55137 112.840454 
L 204.896766 113.65881 
L 205.222885 113.682057 
L 205.900825 113.463329 
L 206.067901 113.698435 
L 206.249435 114.279616 
L 206.536997 114.569689 
L 206.755481 114.978128 
L 206.900065 114.982355 
L 207.325786 114.853428 
L 208.119394 115.313132 
L 208.31378 116.02333 
L 208.843923 116.302876 
L 209.160403 116.886298 
L 209.321052 117.599231 
L 209.602189 117.946465 
L 209.469653 118.731343 
L 209.573272 119.06328 
L 209.786936 119.018352 
L 210.042368 118.91581 
L 210.252819 119.222909 
L 210.248 119.782155 
L 209.584517 122.334495 
L 209.891358 124.428349 
L 210.561266 126.324213 
L 210.878549 126.843574 
L 212.191858 128.099222 
L 212.445684 128.904824 
L 213.054545 129.59621 
L 211.809512 129.089437 
L 211.522753 128.984699 
L 210.615887 128.26055 
L 209.921078 128.078064 
L 208.003727 126.943535 
L 207.340245 126.881654 
L 206.622141 127.155095 
L 205.598804 127.949004 
L 204.702381 129.111654 
L 204.128862 130.275463 
L 203.838087 130.197167 
L 203.593899 129.951174 
L 203.49269 130.005133 
L 203.216373 130.243721 
L 203.115164 130.132627 
L 202.366538 129.155031 
L 202.144841 129.111654 
L 201.240385 129.216393 
L 200.872498 129.544368 
L 200.531921 129.454967 
L 200.342354 129.671328 
L 200.218654 129.442272 
L 199.951976 129.393604 
L 199.664414 129.52215 
L 199.48288 129.823153 
L 199.376851 129.671328 
L 199.068404 129.956464 
L 198.731041 130.103001 
L 198.462756 130.072318 
L 197.812126 129.692488 
L 197.519744 128.909056 
L 196.722922 127.993434 
L 196.289169 128.26055 
L 196.142978 128.018823 
L 195.187114 127.953235 
L 194.599137 127.516341 
L 194.485076 127.155095 
L 194.41439 127.194234 
L 194.16699 127.294726 
L 194.16699 126.862614 
L 193.970997 126.967335 
L 193.871395 126.792272 
L 193.733236 126.163966 
L 193.685041 126.238007 
L 193.519572 126.431045 
L 193.476197 126.34431 
L 193.307515 126.163966 
L 193.097064 126.285076 
L 192.671343 125.744583 
L 192.510694 126.099445 
L 192.276146 126.159735 
L 192.025532 126.037039 
L 192.131561 126.723516 
L 191.988583 126.637837 
L 191.747609 126.699188 
L 191.625515 126.947237 
L 191.231924 126.991665 
L 191.069668 127.155095 
L 190.86725 126.96522 
L 190.433496 126.431045 
L 190.073642 126.447969 
L 190.004562 126.646299 
L 190.007775 127.0033 
L 189.768408 126.865788 
L 189.495304 126.913388 
L 189.291279 127.146632 
L 189.265575 127.561828 
L 188.987651 127.252414 
L 188.667959 126.599757 
L 188.309711 126.583891 
L 188.105686 126.949353 
L 187.948249 127.058306 
L 187.769929 126.037039 
L 187.700849 126.076175 
L 187.459875 126.163966 
L 187.422926 125.66367 
L 187.206049 125.534633 
L 187.064677 125.616074 
L 187.249424 125.744583 
L 187.103233 126.019058 
L 186.88957 126.040212 
L 186.497585 125.744583 
L 185.850168 124.906916 
L 185.414808 124.715487 
L 185.212389 124.487574 
L 184.797914 124.699623 
L 184.576217 124.360134 
L 184.789881 124.068774 
L 184.441272 124.075119 
L 184.314359 123.896393 
L 184.142464 123.369747 
L 183.389018 123.424737 
L 183.514325 123.789053 
L 182.81068 123.991572 
L 182.599426 123.739349 
L 182.567296 123.814433 
L 181.870078 124.315716 
L 181.532714 124.420945 
L 181.258003 124.207843 
L 181.097354 124.463249 
L 180.75999 124.686931 
L 180.959195 125.045995 
L 180.639503 125.180315 
L 180.445117 125.477518 
L 180.022609 126.903868 
L 179.890876 127.250827 
L 180.10454 127.785563 
L 180.525442 127.993434 
L 180.536687 128.143653 
L 180.379251 128.891071 
L 180.110966 129.467663 
L 180.032248 130.179181 
L 179.88927 130.383385 
L 179.651509 130.465385 
L 178.970355 130.550031 
L 178.644237 130.848411 
L 177.510051 130.853701 
L 177.286749 130.676471 
L 177.119673 130.662716 
L 176.883519 131.006597 
L 176.676281 131.155792 
L 176.290722 132.030356 
L 175.738088 131.820308 
L 175.207945 131.434609 
L 174.456105 131.221395 
L 172.750008 132.33988 
L 172.170064 132.263689 
L 171.834306 132.68539 
L 171.660805 132.712375 
L 171.476058 132.480093 
L 171.219019 132.708142 
L 170.920211 132.73354 
L 169.733012 132.489617 
L 169.782813 132.277445 
L 169.990051 131.920305 
L 169.77478 131.714491 
L 169.130576 131.349429 
L 169.045432 131.111351 
L 169.047038 130.701865 
L 168.712888 130.408249 
L 168.166679 130.243721 
L 167.548179 129.258183 
L 167.037841 128.949067 
L 166.707982 128.844521 
L 166.351341 128.984699 
L 166.258164 129.663922 
L 166.0445 129.544368 
L 165.959356 129.368213 
L 165.724808 128.540367 
L 165.281415 129.313198 
L 165.1786 129.75544 
L 165.345675 129.951174 
L 165.73284 130.057506 
L 165.760151 130.306676 
L 165.291054 130.789687 
L 164.174541 130.977499 
L 163.988187 131.199175 
L 163.4966 132.480093 
L 163.390571 131.984854 
L 163.135139 131.839355 
L 162.821872 131.941469 
L 162.531097 132.187498 
L 161.9383 133.038846 
L 161.727849 132.980641 
L 161.249114 132.619779 
L 160.956732 132.677982 
L 159.221718 134.031003 
L 158.897206 133.689693 
L 158.731737 133.877545 
L 158.673903 134.310407 
L 158.760654 134.777681 
L 158.387947 134.775564 
L 157.61683 134.628448 
L 157.313203 134.869232 
L 156.431237 134.838009 
L 155.489831 135.568852 
L 154.476133 135.811769 
L 153.875304 136.263743 
L 152.826263 136.687679 
L 151.611754 137.806063 
L 151.248686 137.860052 
L 150.988434 138.019905 
L 150.704084 138.646098 
L 150.588417 139.358603 
L 150.46311 139.424773 
L 149.789989 139.292962 
L 149.240568 139.097629 
L 148.885532 139.027755 
L 148.607609 138.671506 
L 148.136906 138.518528 
L 147.934488 137.946859 
L 147.262973 137.382094 
L 146.642866 136.4077 
L 145.945648 136.86816 
L 145.564908 136.949669 
L 145.05565 136.570182 
L 144.684549 136.3082 
L 144.289352 136.153659 
L 143.669245 134.437411 
L 143.290112 134.50938 
L 142.927044 134.717882 
L 142.440277 134.657024 
L 142.199302 135.124838 
L 142.260349 135.617541 
L 142.396901 135.848815 
L 141.747877 136.957608 
L 141.490838 136.896741 
L 140.955876 136.560656 
L 140.694017 136.683445 
L 140.544613 136.981425 
L 140.114072 138.248041 
L 139.726907 138.888007 
L 139.802413 139.640755 
L 139.312432 141.039422 
L 139.193551 141.456612 
L 138.978281 141.598501 
L 137.685053 141.824574 
L 137.599909 142.322793 
L 137.70915 143.287509 
L 138.015991 143.860436 
L 137.80072 144.307355 
L 137.313953 144.737871 
L 136.865741 146.062322 
L 136.965343 146.671893 
L 136.876986 146.875264 
L 136.53159 147.294726 
L 136.411103 147.613037 
L 136.134786 147.966312 
L 135.494654 148.527244 
L 135.045582 148.770873 
L 133.190081 148.895348 
L 131.697648 148.45254 
L 130.161839 147.23223 
L 129.374657 147.033621 
L 128.499117 146.518836 
L 128.169786 146.601455 
L 127.697476 146.748157 
L 126.420313 146.582389 
L 125.538348 145.934162 
L 124.916635 145.927807 
L 124.392917 145.520031 
L 124.169615 145.48402 
L 123.641078 145.539096 
L 122.789636 145.503085 
L 121.297202 146.518836 
L 121.136553 146.424566 
L 120.661031 146.379021 
L 120.085906 145.959582 
L 119.113976 145.965937 
L 118.501902 145.680492 
L 117.211887 144.717748 
L 116.948422 144.851724 
L 116.649614 145.269545 
L 116.405427 145.539096 
L 116.211041 145.557101 
L 115.81745 145.260013 
L 115.390122 145.175283 
L 115.264816 144.836897 
L 114.540287 144.292528 
L 114.114566 143.427826 
L 113.859133 143.363757 
L 112.365093 142.643652 
L 110.935313 142.241255 
L 110.326451 142.29632 
L 109.323999 142.868152 
L 108.088605 142.868152 
L 106.763247 143.135544 
L 106.408211 143.027527 
L 106.090125 142.753784 
L 104.419371 140.693185 
L 104.260328 140.251134 
L 104.494876 139.514765 
L 104.586447 139.217793 
L 104.483631 138.79643 
L 103.926177 137.959563 
L 103.535799 137.657328 
L 102.891595 136.053631 
L 102.657047 135.715448 
L 102.401614 135.568852 
L 102.078709 135.515929 
L 101.066617 135.01 
L 100.764596 134.680309 
L 100.057739 133.53518 
L 99.760537 133.282778 
L 98.730774 132.758938 
L 97.450398 131.566878 
L 95.692893 131.000778 
L 95.453525 130.408249 
L 94.880007 129.251835 
L 94.66313 129.058756 
L 93.956273 128.625 
L 93.029325 128.26055 
L 91.257362 128.212945 
L 90.68545 127.867019 
L 90.372183 127.945301 
L 89.882203 128.26055 
L 89.56251 128.304982 
L 88.552025 128.26055 
L 88.201809 128.374803 
L 87.972081 128.649333 
L 87.644356 129.251835 
L 86.256344 130.383385 
L 85.416148 130.99972 
L 84.886005 132.061044 
L 84.627359 132.141466 
L 83.912469 132.130884 
L 83.503951 132.446571 
L 82.918049 133.271137 
L 81.814387 136.151012 
L 81.25854 136.687679 
L 80.660924 137.948977 
L 80.257694 138.199344 
L 80.08098 138.798547 
L 79.550836 139.358603 
L 79.174917 140.056848 
L 78.378095 142.649477 
L 78.010208 143.322456 
L 77.508982 143.799012 
L 76.467973 144.21151 
L 75.849473 144.158557 
L 75.561911 143.923979 
L 75.261496 143.893266 
L 74.956262 144.274524 
L 74.649422 145.260013 
L 74.773122 145.609529 
L 75.295232 146.309643 
L 75.377164 146.700492 
L 75.933011 148.057942 
L 76.135429 148.860389 
L 76.350699 150.591474 
L 76.273588 152.390019 
L 76.164346 152.852002 
L 75.839834 153.554536 
L 75.518535 157.48574 
L 76.037433 162.26322 
L 75.354673 162.252619 
L 75.165106 162.001896 
L 74.917706 161.247628 
L 74.027708 159.50227 
L 73.638937 159.079867 
L 73.436518 159.093647 
L 72.980274 159.73282 
L 72.838902 159.811791 
L 72.398723 159.822391 
L 72.329644 159.908252 
L 72.205944 160.262831 
L 71.921594 160.144107 
L 71.828417 160.117606 
L 70.164089 160.25223 
L 69.720697 161.707713 
L 69.449199 162.048542 
L 69.123081 162.252619 
L 68.785717 162.192721 
L 68.581692 161.893233 
L 68.384093 161.074305 
L 68.110989 160.721831 
L 67.576026 160.487029 
L 67.033031 160.49339 
L 66.504495 160.681549 
L 65.826554 161.019181 
L 65.67715 160.946035 
L 65.045798 160.443037 
L 64.95744 160.530491 
L 64.069049 161.023421 
L 63.847353 160.965117 
L 63.322029 159.5611 
L 62.950929 159.363412 
L 62.507536 159.439731 
L 62.043259 159.084107 
L 61.779794 159.195405 
L 60.507451 159.197524 
L 59.877705 159.076158 
L 59.313825 158.74969 
L 58.668014 158.060204 
L 58.375632 157.949973 
L 58.247113 157.588548 
L 57.890471 157.516476 
L 57.19995 158.026391 
L 56.597243 158.435947 
L 55.954645 159.357582 
L 55.390766 159.411111 
L 54.789937 159.206004 
L 54.565027 159.314652 
L 53.822827 160.112306 
L 53.599524 160.155767 
L 52.762541 160.207709 
L 52.131188 160.466888 
L 51.572128 160.476429 
L 50.596986 160.978898 
L 50.143955 161.000099 
L 49.859605 160.69957 
L 49.706988 160.682609 
L 49.13347 160.714411 
L 48.702929 160.526251 
L 48.474807 160.555933 
L 48.466774 161.115648 
L 48.16154 161.319715 
L 47.833815 161.344097 
L 46.240173 160.891972 
L 45.881925 160.922714 
L 45.152576 161.202045 
L 44.516404 161.754358 
L 44.037669 162.519246 
L 43.788662 163.434713 
L 43.650504 165.150198 
L 43.261732 166.441146 
L 43.163736 167.384888 
L 42.448846 168.836634 
L 42.4376 169.343548 
L 42.842437 170.656489 
L 42.739621 171.393593 
L 42.138792 172.917725 
L 42.182168 173.824615 
L 42.733195 174.913989 
L 42.660903 175.408308 
L 38.270354 187.724731 
L 38.210913 187.662117 
L 38.006889 187.508235 
L 38.05669 186.806756 
L 37.793225 186.526593 
L 37.688803 185.743425 
L 36.969093 184.151684 
L 36.631729 181.640097 
L 36.946602 180.543007 
L 36.900014 180.123918 
L 36.617271 178.988698 
L 36.789166 178.456116 
L 36.930537 178.177098 
L 36.554618 178.104957 
L 36.18673 178.141028 
L 36.146568 177.676359 
L 36.144962 176.437286 
L 36.564257 175.883542 
L 36.692776 175.398761 
L 36.649401 174.854587 
L 36.074276 173.28472 
L 35.621244 172.479673 
L 35.307978 172.377851 
L 34.867798 172.439368 
L 34.771409 172.229361 
L 34.437258 170.796484 
L 33.876591 170.038188 
L 33.624372 169.92365 
L 32.89663 169.987282 
L 32.636378 169.820779 
L 32.120693 169.977738 
L 31.881325 169.832445 
L 22.332322 156.476761 
L 20.989292 153.875083 
L 20.073591 150.999375 
L 20.340269 150.998316 
L 21.095321 151.209156 
L 21.398949 151.125455 
L 22.619884 150.240264 
L 22.431924 150.069164 
L 21.885716 149.884822 
L 21.734706 149.309034 
L 21.500158 149.190383 
L 21.264003 149.22958 
L 21.087289 149.037303 
L 20.982866 148.487498 
L 20.958769 147.321208 
L 20.661568 145.518972 
L 20.423806 144.940689 
L 19.784422 143.79054 
L 19.575577 143.062474 
L 19.39083 142.915276 
L 18.711283 142.598647 
L 16.245314 140.362837 
L 15.686254 139.647108 
L 15.274991 138.785843 
L 15.072573 137.81612 
L 14.94566 135.555092 
L 15.029198 134.845418 
L 14.720751 132.663167 
L 14.572953 132.256281 
L 14.537611 131.512912 
L 14.376961 131.105002 
L 14.434795 128.14048 
L 14.253261 127.205341 
L 13.832359 126.457489 
L 13.507848 126.248584 
L 12.837939 125.955066 
L 12.515034 125.684824 
L 12.206587 125.095704 
L 12.3335 125.045995 
L 12.513427 124.829709 
L 12.73673 124.120594 
L 12.842759 123.767902 
L 13.409851 122.621587 
L 13.445194 121.697419 
L 13.723118 120.906537 
L 13.719905 120.035357 
L 13.299003 118.594977 
L 13.340772 118.276266 
L 13.617089 117.350308 
L 13.935175 115.940894 
L 13.825933 115.52661 
L 13.723118 113.345514 
L 13.498209 112.96883 
L 13.421097 112.557819 
L 13.215466 112.150521 
L 13.024293 112.134673 
L 12.603391 112.474351 
L 12.373662 112.508161 
L 11.620217 112.432089 
L 11.364784 112.206517 
L 10.845886 110.882231 
L 10.307711 110.192944 
L 10.145455 109.786786 
L 10.307711 109.482045 
L 10.381609 109.463032 
L 10.625796 109.621475 
L 10.796085 109.272903 
L 10.837854 108.85516 
L 10.818576 108.784393 
L 12.441135 106.699618 
L 13.085339 106.705954 
L 15.548096 105.057631 
L 16.287083 103.702518 
L 16.317606 103.254897 
L 16.28387 102.541277 
L 16.674248 101.84301 
L 18.83177 95.759016 
L 19.08399 95.535373 
L 20.20693 94.717325 
L 20.32581 94.431472 
L 21.954796 88.900093 
L 22.584541 88.354031 
L 22.62631 88.146367 
L 22.570083 86.76873 
L 23.150028 85.113088 
L 23.731579 84.466086 
L 24.92681 83.590492 
L 25.718812 82.734996 
L 25.937295 82.281994 
L 26.396753 82.213519 
L 26.430489 81.944891 
L 26.128468 81.579359 
L 26.189515 81.259135 
L 27.146986 79.491786 
L 27.683555 79.717162 
L 28.249041 79.764554 
L 29.38162 79.5634 
L 30.061167 79.633961 
L 30.861201 80.605029 
L 31.457211 80.871511 
L 32.009845 80.822006 
L 34.329623 80.061555 
L 35.063791 79.366462 
L 35.622851 78.439754 
L 36.226893 78.107005 
L 37.214887 77.938529 
L 37.741817 77.701615 
L 38.434216 77.652127 
L 39.608564 76.703487 
L 40.977297 76.450814 
L 41.166863 76.284474 
L 41.231123 75.999178 
L 41.309841 74.187606 
L 41.545996 73.933952 
L 41.854443 74.027624 
L 42.011879 74.090774 
L 42.22233 74.014994 
L 42.320326 73.861331 
L 42.607889 73.124625 
L 43.128393 72.666847 
L 43.742074 72.42797 
L 43.766171 72.96782 
L 43.682634 73.588742 
L 43.920395 74.266545 
L 44.33487 74.595993 
L 44.620827 74.72546 
L 44.821638 75.191767 
L 44.760592 76.306583 
L 44.921241 76.52872 
L 45.889957 76.995122 
L 46.246599 77.362576 
L 46.820117 78.201774 
L 47.160694 78.94206 
L 47.374358 79.127404 
L 47.882731 78.956211 
L 48.264356 78.591391 
L 48.486052 78.590338 
L 48.463561 78.33024 
L 48.38163 78.099634 
L 48.66598 77.429962 
L 48.902134 77.25834 
L 50.177691 76.895102 
L 50.476499 76.93511 
L 50.71908 76.568727 
L 50.886155 76.549776 
L 51.411479 76.56241 
L 51.4661 76.202359 
L 51.679763 75.96128 
L 52.160105 76.220256 
L 52.341639 76.344483 
L 52.86375 75.786528 
L 53.689488 74.584415 
L 54.038097 74.499157 
L 54.187501 73.8908 
L 54.656598 73.38878 
L 57.067946 72.162793 
L 57.271971 71.853429 
L 58.006139 72.140695 
L 58.192492 71.983908 
L 58.330651 71.523033 
L 58.586083 71.283136 
L 60.083336 70.791787 
L 60.404635 70.2142 
L 60.703443 70.085852 
L 61.32355 70.082696 
L 64.105998 70.586629 
L 64.713253 70.443547 
L 65.947041 69.838631 
L 67.396099 69.390495 
L 74.20121 69.156968 
L 75.460701 68.806691 
L 75.9057 67.946837 
L 75.916946 66.959296 
L 76.226999 66.165878 
L 76.755536 65.558114 
L 77.415805 65.127555 
L 78.599792 64.543522 
L 78.938762 64.156118 
L 79.589392 62.866828 
L 80.310708 61.873588 
L 80.609516 60.989234 
L 82.162996 58.682384 
L 82.797562 57.055224 
L 83.114041 56.819424 
L 83.266658 56.501709 
L 83.77431 56.050103 
L 83.459438 55.583296 
L 82.601569 54.61564 
L 80.559715 53.407158 
L 80.336412 52.601433 
L 80.08098 52.783567 
L 79.820727 52.508006 
L 79.819121 52.209362 
L 80.177369 51.522367 
L 80.455293 51.597414 
L 80.612729 51.320846 
L 80.734823 51.040091 
L 81.099497 50.830711 
L 81.470597 50.627635 
L 81.608756 50.334311 
L 82.185487 49.749797 
L 82.787923 49.364693 
L 83.40803 49.139621 
L 83.922108 49.303834 
L 84.05384 49.273405 
L 84.55828 49.373088 
L 84.636998 49.139621 
L 84.829777 49.039941 
L 86.123005 49.003217 
L 86.437878 49.256616 
L 86.582463 49.026301 
L 87.025855 49.316426 
L 87.586522 49.441817 
L 87.792153 49.38463 
L 88.388163 49.095552 
L 88.531141 49.188413 
L 90.452508 49.178969 
L 91.382668 48.806485 
L 91.793931 49.165328 
L 92.047757 49.017907 
L 92.865463 48.950755 
L 92.942575 48.857897 
L 93.633367 48.597168 
L 94.365929 48.411462 
L 95.670402 48.507986 
L 95.868001 48.397823 
L 96.059174 48.043213 
L 96.333016 48.163726 
L 96.508992 48.11193 
L 97.023071 47.740548 
L 97.28011 47.732156 
L 97.49538 47.211833 
L 97.612654 47.290508 
L 97.766877 47.627249 
L 97.853628 47.439994 
L 97.872906 47.211833 
L 98.456064 46.645394 
L 98.950864 46.726161 
L 98.958896 46.443479 
L 99.092235 46.380546 
L 99.342849 46.733504 
L 99.527595 46.976336 
L 99.791061 47.085954 
L 100.024002 46.995217 
L 100.69391 46.506413 
L 101.032881 46.71777 
L 101.383097 47.085954 
L 101.691544 46.998364 
L 103.269121 47.012001 
L 103.964733 46.541551 
L 104.152693 46.645394 
L 104.467566 46.215349 
L 104.877222 45.295031 
L 105.27242 45.120419 
L 105.362384 44.904914 
L 105.100525 43.951206 
L 105.73991 43.37663 
L 105.810595 42.921615 
L 105.951967 42.949397 
L 106.303789 43.174805 
L 107.770519 43.31949 
L 107.5681 42.488643 
L 108.204272 42.072993 
L 109.304721 41.604433 
L 109.458944 41.173636 
L 109.704738 41.04786 
L 109.854142 40.81361 
L 110.230062 40.965059 
L 110.467823 39.619941 
L 110.977082 39.253182 
L 111.708037 38.107968 
L 111.910455 37.741287 
L 112.318505 37.31439 
L 112.429353 37.061407 
L 112.670327 37.201777 
L 112.556266 36.648691 
L 112.776356 36.55442 
L 112.871139 36.297274 
L 112.933792 35.302298 
L 113.595668 33.8902 
L 113.754711 33.914282 
L 113.955523 34.145162 
L 114.180432 33.98077 
L 114.51137 33.745184 
L 114.591694 33.667704 
L 114.591694 33.31539 
L 114.983679 32.221918 
L 115.970067 31.454654 
L 116.12911 30.8565 
L 117.149234 29.430666 
L 117.364504 29.605936 
L 118.20952 29.98422 
L 118.750909 29.716855 
L 119.256954 29.059736 
L 119.668217 28.239997 
L 120.47789 25.846222 
L 120.910037 25.11367 
L 121.403231 24.719453 
L 122.156677 24.829768 
L 123.133426 24.442888 
L 123.454725 23.724605 
L 123.77281 23.254157 
L 124.105355 23.168957 
L 124.156763 22.814057 
L 124.074831 22.295592 
L 124.131059 21.870712 
L 124.606581 20.839199 
L 124.478062 20.557051 
L 124.500552 20.287455 
L 124.074831 19.514778 
L 123.898117 17.604643 
L 124.164795 16.2929 
L 124.64353 16.009908 
L 124.966436 15.920105 
L 125.131905 15.633997 
L 125.878925 15.419425 
L 126.356054 15.66219 
L 126.487786 15.466933 
L 127.31995 14.607667 
L 127.591448 14.44324 
L 128.536067 14.139975 
L 128.703142 13.911883 
L 128.552132 13.488605 
L 128.934477 12.413575 
L 129.231679 12.247119 
L 130.780339 12.372874 
L 131.217306 12.66666 
L 131.42615 12.240857 
L 131.594832 11.607426 
L 132.409325 10.665746 
L 132.773999 10.802424 
L 133.752354 10.011089 
L 134.992568 9.546873 
L 135.426322 8.990904 
L 135.633559 8.939273 
L 136.292222 9.113984 
L 136.433594 8.939273 
L 136.787022 9.349201 
L 137.114747 9.380494 
L 137.815179 9.202124 
L 138.398336 9.478026 
L 139.087523 9.478026 
L 139.665861 9.669444 
L 140.057845 10.090375 
L 141.00407 10.480035 
L 141.860332 10.588018 
L 141.860332 10.588018 
" clip-path="url(#pd8273a08b2)" style="fill: none; stroke: #000000; stroke-width: 0.5; stroke-linecap: square"/>
   </g>
  </g>
 </g>
 <defs>
  <clipPath id="pd8273a08b2">
   <rect x="0" y="0" width="223.2" height="196.664004"/>
  </clipPath>
 </defs>
</svg>
