<?xml version="1.0" encoding="utf-8" standalone="no"?>
<!DOCTYPE svg PUBLIC "-//W3C//DTD SVG 1.1//EN"
  "http://www.w3.org/Graphics/SVG/1.1/DTD/svg11.dtd">
<svg xmlns:xlink="http://www.w3.org/1999/xlink" width="114.91125pt" height="221.76pt" viewBox="0 0 114.91125 221.76" xmlns="http://www.w3.org/2000/svg" version="1.1">
 <metadata>
  <rdf:RDF xmlns:dc="http://purl.org/dc/elements/1.1/" xmlns:cc="http://creativecommons.org/ns#" xmlns:rdf="http://www.w3.org/1999/02/22-rdf-syntax-ns#">
   <cc:Work>
    <dc:type rdf:resource="http://purl.org/dc/dcmitype/StillImage"/>
    <dc:date>2026-04-26T19:22:05.012289</dc:date>
    <dc:format>image/svg+xml</dc:format>
    <dc:creator>
     <cc:Agent>
      <dc:title>Matplotlib v3.10.9, https://matplotlib.org/</dc:title>
     </cc:Agent>
    </dc:creator>
   </cc:Work>
  </rdf:RDF>
 </metadata>
 <defs>
  <style type="text/css">*{stroke-linejoin: round; stroke-linecap: butt}</style>
 </defs>
 <g id="figure_1">
  <g id="patch_1">
   <path d="M 0 221.76 
L 114.91125 221.76 
L 114.91125 0 
L 0 0 
z
" style="fill: #ffffff"/>
  </g>
  <g id="axes_1">
   <g id="patch_2">
    <path d="M 11.328619 139.144879 
L 9.059918 135.146756 
L 6.791217 131.153699 
L 6.720504 130.7473 
L 6.648767 130.341284 
L 6.578054 129.934993 
L 6.506316 129.529743 
L 6.435604 129.12356 
L 6.364891 128.718418 
L 6.294178 128.311686 
L 6.222441 127.906324 
L 6.151728 127.500688 
L 6.081015 127.094778 
L 6.009278 126.690238 
L 5.938565 126.284109 
L 5.867852 125.87935 
L 5.796114 125.47366 
L 5.724377 125.068355 
L 5.654689 124.662776 
L 5.551182 124.078827 
L 5.412831 123.431592 
L 5.223239 122.54869 
L 5.226313 121.800011 
L 5.551182 121.234032 
L 5.804313 121.076799 
L 6.161976 120.891347 
L 6.563707 120.849991 
L 6.798538 120.793487 
L 6.959288 120.754809 
L 7.292355 120.406602 
L 7.369217 120.17591 
L 7.38049 119.93933 
L 7.316951 119.45409 
L 7.284157 119.378965 
L 7.177575 119.259558 
L 7.162203 119.193623 
L 7.198072 119.128018 
L 7.393813 118.957124 
L 7.710483 118.514684 
L 7.809378 118.420892 
L 8.008194 118.363503 
L 8.197786 118.343171 
L 8.348435 118.24381 
L 8.43657 117.946403 
L 8.424272 117.688041 
L 8.284896 117.146804 
L 8.244928 116.88786 
L 8.257226 116.618125 
L 8.310517 116.375287 
L 8.458091 115.981088 
L 8.781935 115.117192 
L 9.038141 114.432359 
L 9.326116 113.93235 
L 9.622289 113.417374 
L 9.917438 112.90053 
L 10.214637 112.384765 
L 10.509786 111.868442 
L 10.805959 111.353198 
L 11.102133 110.837398 
L 11.397282 110.321695 
L 11.693456 109.806744 
L 11.989629 109.292218 
L 12.285803 108.77681 
L 12.580952 108.261501 
L 12.878151 107.746945 
L 13.1733 107.232161 
L 13.468448 106.716497 
L 13.765647 106.202239 
L 14.060796 105.687101 
L 14.343647 105.195562 
L 14.884753 104.479633 
L 15.465828 103.710406 
L 15.849111 103.201628 
L 16.40559 102.466684 
L 16.963093 101.729341 
L 17.519572 100.994163 
L 18.076051 100.258545 
L 18.631504 99.523138 
L 19.186958 98.787292 
L 19.743437 98.052961 
L 20.299915 97.318192 
L 20.856394 96.584289 
L 21.411848 95.84995 
L 21.968327 95.115176 
L 22.524805 94.38192 
L 23.081284 93.648231 
L 23.637762 92.915409 
L 24.194241 92.180858 
L 24.749695 91.449124 
L 25.086862 91.005126 
L 25.217014 90.773422 
L 25.246469 90.644958 
L 25.280553 90.496316 
L 25.302074 90.178364 
L 25.343067 89.605507 
L 25.383035 89.033434 
L 25.421979 88.460849 
L 25.461947 87.8884 
L 25.501915 87.316737 
L 25.541883 86.744563 
L 25.581851 86.172526 
L 25.621819 85.59998 
L 25.662812 85.028868 
L 25.70278 84.457247 
L 25.742748 83.886412 
L 25.782716 83.314422 
L 25.822684 82.743867 
L 25.862652 82.172804 
L 25.90262 81.601882 
L 25.941564 81.030455 
L 25.981532 80.459815 
L 26.022525 79.889317 
L 26.062493 79.319607 
L 26.102461 78.748747 
L 26.142429 78.179322 
L 26.182397 77.609394 
L 26.222365 77.039609 
L 26.229923 76.931873 
L 26.262333 76.469968 
L 26.302301 75.900794 
L 26.342269 75.331764 
L 26.383262 74.762557 
L 26.42323 74.193817 
L 26.462173 73.625222 
L 26.502141 73.056451 
L 26.54211 72.487826 
L 26.582078 71.919026 
L 26.622046 71.351338 
L 26.662014 70.782833 
L 26.701982 70.21544 
L 26.742975 69.64723 
L 26.782943 69.079812 
L 26.822911 68.51222 
L 26.862879 67.945099 
L 26.902847 67.377807 
L 26.942815 66.810343 
L 26.981758 66.243992 
L 27.021726 65.676829 
L 27.061695 65.1111 
L 27.102687 64.543918 
L 27.142656 63.978171 
L 27.182624 63.411613 
L 27.222592 62.846169 
L 27.26256 62.279917 
L 27.302528 61.714138 
L 27.342496 61.149153 
L 27.382464 60.58336 
L 27.422432 60.018362 
L 27.463425 59.453199 
L 27.502368 58.88851 
L 27.542336 58.323656 
L 27.582304 57.758637 
L 27.622272 57.194734 
L 27.662241 56.630028 
L 27.702209 56.066756 
L 27.742177 55.502044 
L 27.78317 54.938767 
L 27.823138 54.37437 
L 27.863106 53.811407 
L 27.898975 53.296454 
L 28.208471 52.327528 
L 28.358095 52.006783 
L 28.754701 51.15607 
L 29.151308 50.305722 
L 29.548939 49.455422 
L 29.94657 48.605173 
L 30.149485 48.1708 
L 30.222247 47.960172 
L 30.200726 47.757201 
L 30.060325 47.489363 
L 29.825641 47.184671 
L 29.247641 46.435548 
L 28.670666 45.686715 
L 28.092666 44.937537 
L 27.514666 44.189286 
L 27.238989 43.833049 
L 26.432454 43.084596 
L 26.255159 42.849773 
L 26.114759 42.582618 
L 25.996904 42.271724 
L 25.915943 41.718587 
L 25.997929 41.151028 
L 26.242861 40.677453 
L 26.642542 40.410605 
L 26.478571 40.114644 
L 26.313574 39.813661 
L 26.146528 39.513993 
L 25.980507 39.21374 
L 25.814486 38.913535 
L 25.648464 38.613379 
L 25.481418 38.31327 
L 25.316422 38.01321 
L 25.150401 37.713199 
L 24.983354 37.413869 
L 24.818358 37.112689 
L 24.651312 36.813456 
L 24.485291 36.513639 
L 24.319269 36.213871 
L 24.153248 35.914151 
L 23.986202 35.615113 
L 23.821206 35.314859 
L 23.585497 34.891426 
L 23.244231 34.410602 
L 23.054638 34.256461 
L 22.586295 33.972852 
L 22.430522 33.792855 
L 22.389529 33.596458 
L 22.386454 33.276333 
L 22.38338 33.03517 
L 22.374156 32.39896 
L 22.360834 31.499306 
L 22.346486 30.468978 
L 22.332139 29.438612 
L 22.318816 28.541072 
L 22.310617 27.906455 
L 22.306518 27.666014 
L 22.231706 27.175164 
L 22.150745 26.658031 
L 22.069784 26.14105 
L 21.94988 25.378435 
L 21.831 24.61678 
L 21.712121 23.855458 
L 21.592217 23.093842 
L 21.473337 22.333188 
L 21.353433 21.572243 
L 21.235578 20.812888 
L 21.115674 20.052616 
L 20.996795 19.292683 
L 20.877915 18.533716 
L 20.758011 17.775401 
L 20.640157 17.016801 
L 20.521277 16.258543 
L 20.401548 15.501733 
L 20.575593 15.40314 
L 21.148469 15.086967 
L 21.720319 14.770854 
L 22.290121 14.454801 
L 22.862997 14.139433 
L 23.434848 13.824124 
L 24.006699 13.508564 
L 24.57855 13.192439 
L 25.150401 12.876687 
L 25.722252 12.560995 
L 26.295127 12.245364 
L 26.866978 11.929793 
L 27.438829 11.613972 
L 28.009655 11.298834 
L 28.581506 10.983445 
L 29.153357 10.668117 
L 29.725208 10.353473 
L 30.165882 10.110211 
L 30.368797 10.08 
L 31.271666 10.623565 
L 32.497353 11.358366 
L 33.720991 12.09412 
L 34.946679 12.830515 
L 36.171342 13.567239 
L 37.396005 14.304916 
L 38.620668 15.042295 
L 39.846356 15.779063 
L 41.069994 16.516781 
L 42.295682 17.255137 
L 43.520345 17.99319 
L 44.743983 18.732192 
L 45.96967 19.471829 
L 47.194333 20.211161 
L 48.418996 20.95144 
L 49.643659 21.691412 
L 50.868322 22.431075 
L 52.092985 23.172311 
L 53.318673 23.913237 
L 54.542311 24.654478 
L 55.767999 25.396663 
L 56.992662 26.139163 
L 58.217325 26.880719 
L 59.441988 27.623846 
L 60.667675 28.366656 
L 61.891313 29.109777 
L 62.106534 29.240404 
L 63.115976 29.853208 
L 64.340639 30.597579 
L 65.565302 31.342259 
L 66.79099 32.086617 
L 68.014628 32.831281 
L 69.240316 33.576883 
L 70.464979 34.321527 
L 71.689642 35.067739 
L 72.914305 35.813624 
L 74.139992 36.559178 
L 75.36363 37.306932 
L 76.589318 38.054355 
L 77.813981 38.800812 
L 79.037619 39.548836 
L 80.263307 40.296524 
L 81.486945 41.043877 
L 82.712633 41.792794 
L 83.937296 42.541374 
L 85.161959 43.290248 
L 86.386622 44.040687 
L 87.612309 44.790151 
L 88.835948 45.539271 
L 90.061635 46.289954 
L 91.286298 47.040293 
L 92.510961 47.790922 
L 93.735624 48.541522 
L 94.960287 49.293366 
L 96.18495 50.045179 
L 97.409613 50.797598 
L 98.634276 51.549347 
L 99.858939 52.302019 
L 101.084627 53.054338 
L 102.308265 53.808216 
L 103.533952 54.560782 
L 104.758615 55.314587 
L 105.983278 56.069312 
L 107.207941 56.823359 
L 108.432604 57.577366 
L 109.657267 58.33293 
L 109.659317 61.21 
L 109.661366 64.091051 
L 109.663416 66.975717 
L 109.665466 69.864271 
L 109.666491 72.756343 
L 109.66854 75.652854 
L 109.671615 78.553112 
L 109.672639 81.457073 
L 109.674689 84.364687 
L 109.676739 87.275909 
L 109.678788 90.190043 
L 109.680838 93.108988 
L 109.681863 96.03075 
L 109.683913 98.955931 
L 109.686987 101.884485 
L 109.688012 104.816363 
L 109.688012 105.545384 
L 109.688012 105.555232 
L 109.571182 105.93519 
L 109.302679 105.920827 
L 108.147704 105.430549 
L 106.942512 105.205353 
L 105.803934 105.203395 
L 105.153172 105.378328 
L 103.851647 105.969794 
L 103.105577 106.058591 
L 101.580641 105.65903 
L 101.109317 105.731295 
L 100.865315 105.768707 
L 100.606034 105.990687 
L 99.971669 106.941822 
L 99.18973 107.54213 
L 99.002187 107.82698 
L 98.93045 108.22164 
L 99.003212 108.585641 
L 99.169233 108.912434 
L 99.381372 109.19645 
L 99.594535 109.554372 
L 99.692918 109.948959 
L 99.712389 110.372051 
L 99.586336 111.844231 
L 99.510499 112.126264 
L 99.066751 113.138809 
L 98.989889 113.254356 
L 98.653748 113.417374 
L 98.427262 113.57189 
L 98.231521 113.772904 
L 97.337875 114.936715 
L 97.22207 115.200065 
L 97.169804 115.508975 
L 97.160581 115.746496 
L 97.104216 115.955859 
L 96.90745 116.183587 
L 96.544663 116.488674 
L 96.464727 116.684983 
L 96.464727 117.012085 
L 96.545688 117.708368 
L 96.601028 117.930664 
L 96.750652 118.335957 
L 96.768074 118.448767 
L 96.719907 118.625862 
L 96.61845 118.717693 
L 94.626195 119.383558 
L 94.202943 119.640105 
L 93.802238 120.020703 
L 93.61572 120.472565 
L 93.842206 120.94255 
L 94.147603 121.227467 
L 94.224465 121.401122 
L 94.364865 122.76742 
L 94.39766 122.843618 
L 94.446851 122.91095 
L 94.48272 122.985181 
L 94.472472 123.07945 
L 94.422255 123.143174 
L 94.288004 123.221353 
L 94.244961 123.274897 
L 94.156826 123.491709 
L 94.146578 123.59158 
L 94.175273 123.742378 
L 94.265457 124.017383 
L 94.384337 124.205006 
L 94.549333 124.315745 
L 95.108886 124.438976 
L 95.285156 124.576672 
L 95.374315 124.824146 
L 95.441954 125.233034 
L 95.428631 125.606145 
L 95.281057 125.823458 
L 95.050471 125.937874 
L 94.785042 126.002646 
L 94.559581 126.160801 
L 94.19167 126.593222 
L 94.000028 126.756671 
L 92.425901 127.697084 
L 92.139975 127.936593 
L 91.901192 128.239954 
L 91.803506 128.395819 
L 90.996274 129.684133 
L 90.754415 130.182251 
L 90.742118 130.296504 
L 90.973727 130.571781 
L 91.130525 130.825678 
L 91.164344 131.012409 
L 91.144873 131.20969 
L 91.144873 131.494273 
L 91.321142 131.988073 
L 91.953458 132.730074 
L 92.098983 133.224071 
L 92.105131 133.958126 
L 92.149199 134.203069 
L 92.278326 134.507708 
L 92.628816 135.042878 
L 92.747695 135.334736 
L 92.664685 135.867737 
L 92.314195 136.448994 
L 91.399029 137.668925 
L 91.235057 137.813816 
L 90.170267 138.349543 
L 89.995022 138.472676 
L 89.654781 138.884698 
L 89.36783 139.385599 
L 88.553097 141.347021 
L 88.304065 142.301401 
L 88.145217 142.699692 
L 88.121646 142.780348 
L 88.163664 142.925797 
L 88.433192 143.352596 
L 88.822625 144.28242 
L 89.027589 144.536415 
L 89.376029 144.752722 
L 89.784933 144.851288 
L 90.206135 144.856581 
L 90.593518 144.789105 
L 91.060837 144.613807 
L 91.440022 144.346579 
L 91.758741 143.959664 
L 92.042617 143.42401 
L 93.284702 144.472253 
L 94.299277 144.953827 
L 94.430454 145.117234 
L 93.936489 146.589576 
L 93.707954 147.011876 
L 93.72845 147.168763 
L 94.056394 147.823527 
L 94.785042 150.683042 
L 94.810663 150.836119 
L 94.817837 150.992517 
L 94.808613 151.148921 
L 94.553433 152.558864 
L 94.616972 152.526377 
L 94.676411 152.485933 
L 94.785042 152.381181 
L 95.429656 152.12263 
L 95.817039 152.033798 
L 95.949241 152.137877 
L 96.033276 151.952261 
L 96.083493 152.015237 
L 96.094766 152.214778 
L 96.065046 152.44085 
L 95.889801 153.091302 
L 95.336397 157.046285 
L 95.382514 157.661715 
L 95.58133 158.265296 
L 95.884677 158.809532 
L 96.239266 159.244249 
L 96.580532 159.4598 
L 97.378868 159.806567 
L 97.634049 160.112174 
L 97.661719 160.228111 
L 97.664794 160.615483 
L 97.763177 160.670635 
L 98.707038 160.542723 
L 98.939673 160.550364 
L 99.082123 160.706518 
L 99.216375 161.618981 
L 99.467457 162.573548 
L 99.476057 162.742072 
L 99.495127 163.115751 
L 99.451059 163.344157 
L 99.284013 163.796688 
L 99.222524 164.027795 
L 99.18973 164.282528 
L 99.184606 164.542267 
L 99.156935 164.682287 
L 99.000138 164.903469 
L 98.937623 165.032193 
L 98.549216 166.844423 
L 98.002985 166.775538 
L 97.399365 166.526964 
L 97.149308 166.258442 
L 96.780372 166.136332 
L 96.686088 166.124354 
L 96.340723 166.136332 
L 96.24029 166.110713 
L 96.050698 165.993598 
L 95.968712 165.960327 
L 95.733003 165.994929 
L 95.52189 166.074114 
L 95.312826 166.054151 
L 95.087365 165.792648 
L 94.997181 165.904101 
L 94.877276 165.891458 
L 94.733801 165.829577 
L 94.577003 165.792648 
L 94.444801 165.825584 
L 94.350518 165.912085 
L 94.168099 166.180251 
L 94.04717 166.279071 
L 93.896521 166.337632 
L 93.627291 166.392965 
L 93.592149 166.400187 
L 93.376936 166.476386 
L 93.171972 166.584198 
L 93.044894 166.671714 
L 92.859401 166.885688 
L 92.752819 166.981198 
L 92.672883 166.975208 
L 92.520185 166.894008 
L 92.392082 167.015143 
L 92.2855 167.194523 
L 92.0006 167.494728 
L 91.892993 167.89881 
L 91.759766 168.17044 
L 91.481015 167.983027 
L 91.324217 168.011654 
L 90.493086 167.902805 
L 90.303493 168.008991 
L 90.192813 168.252 
L 90.12415 168.517329 
L 90.059586 168.694779 
L 90.155919 168.964799 
L 90.049337 169.110304 
L 89.446742 169.303765 
L 89.273547 169.408657 
L 88.970199 169.678392 
L 88.742689 169.956804 
L 88.705795 169.974455 
L 88.658653 170.081363 
L 88.551047 170.052721 
L 88.354281 169.926497 
L 88.251799 169.941817 
L 88.063231 170.007426 
L 87.98227 170.022746 
L 87.877739 170.063378 
L 87.817274 170.154302 
L 87.772182 170.245893 
L 87.714792 170.28686 
L 87.566192 170.303181 
L 87.398122 170.361801 
L 87.260795 170.483708 
L 87.203405 170.686228 
L 87.181884 170.93906 
L 87.090675 171.320502 
L 87.069154 171.570707 
L 87.090675 171.833589 
L 87.181884 172.327747 
L 87.203405 172.539024 
L 87.239274 172.658996 
L 87.413494 172.916949 
L 87.474983 173.031933 
L 87.477033 173.117924 
L 87.460636 173.203916 
L 87.468834 173.291576 
L 87.542622 173.383905 
L 87.239274 174.041932 
L 87.203405 174.312974 
L 87.212629 174.452669 
L 87.255671 174.643715 
L 87.264895 174.749411 
L 87.222877 174.870115 
L 87.124494 174.910128 
L 87.010739 174.924466 
L 86.926703 174.969815 
L 86.807824 175.224577 
L 86.727888 175.482356 
L 86.602859 175.682787 
L 86.348703 175.763162 
L 86.295413 175.801183 
L 85.979767 175.929588 
L 85.942874 175.902906 
L 85.839366 175.958938 
L 85.714338 175.930255 
L 85.593409 175.876558 
L 85.499125 175.859215 
L 85.184505 176.110695 
L 84.908828 176.578008 
L 84.392317 178.105057 
L 84.129962 178.627989 
L 83.807143 179.047181 
L 83.461778 179.21774 
L 83.328551 179.181024 
L 82.922722 178.976423 
L 82.785395 178.864614 
L 82.642945 179.013137 
L 82.134633 179.774189 
L 82.062895 179.953122 
L 82.033176 180.155766 
L 81.952215 180.18381 
L 81.403935 180.645222 
L 81.302477 180.871606 
L 81.153878 181.342775 
L 81.145679 181.38886 
L 81.153878 181.567525 
L 81.138506 181.619623 
L 81.102637 181.616951 
L 81.057545 181.602257 
L 81.018601 181.615616 
L 80.891523 181.767238 
L 80.820811 181.831362 
L 80.748048 181.872108 
L 80.712179 181.850065 
L 80.619945 181.724823 
L 80.574853 181.695434 
L 80.518488 181.709461 
L 80.492867 181.739518 
L 80.482619 181.772916 
L 80.470321 181.792286 
L 80.416006 181.826686 
L 80.349392 181.888139 
L 80.293027 181.95694 
L 80.267406 182.013051 
L 80.236662 182.260214 
L 80.096261 182.610273 
L 80.064491 182.807027 
L 80.056293 183.244993 
L 79.995828 183.409032 
L 79.855428 183.469171 
L 79.855428 183.557041 
L 79.89847 183.611835 
L 79.914867 183.652597 
L 79.92819 183.821998 
L 79.774467 183.732452 
L 79.721176 183.779898 
L 79.703754 183.893836 
L 79.658662 184.006441 
L 79.443449 184.166165 
L 79.35224 184.262737 
L 79.314321 184.400079 
L 79.229261 184.589559 
L 78.848027 185.13064 
L 78.74452 185.243276 
L 78.523158 185.364604 
L 78.452446 185.648386 
L 78.436048 185.97464 
L 78.371485 186.222689 
L 78.31307 186.246759 
L 78.249866 186.2128 
L 78.243382 186.209316 
L 78.178818 186.154825 
L 78.131676 186.126075 
L 78.094783 186.154156 
L 78.036368 186.275509 
L 77.9964 186.302923 
L 77.87957 186.355744 
L 77.825254 186.481783 
L 77.781187 186.63056 
L 77.695102 186.752595 
L 77.621315 186.656639 
L 77.526006 186.752595 
L 77.079183 186.929467 
L 76.673354 187.19462 
L 76.802481 187.724638 
L 76.294169 187.724638 
L 76.225506 187.714605 
L 76.05846 187.644379 
L 76.052311 187.646385 
L 75.866818 187.63234 
L 75.85452 187.644379 
L 75.642382 187.488547 
L 75.552198 187.470824 
L 75.516329 187.596224 
L 75.507106 187.761089 
L 75.471237 187.884825 
L 75.399499 187.962747 
L 75.27857 187.990171 
L 75.099226 188.127625 
L 75.16379 188.431311 
L 75.266272 188.736019 
L 75.208882 188.873495 
L 74.956776 188.984884 
L 74.816375 189.250489 
L 74.695446 189.571978 
L 74.494581 189.846314 
L 74.374677 189.78007 
L 74.26912 189.79546 
L 74.174836 189.861035 
L 73.991393 190.034679 
L 73.930929 190.080182 
L 73.743386 190.127358 
L 72.924553 190.071483 
L 72.727787 190.127358 
L 72.504376 189.892485 
L 72.39062 189.796799 
L 72.288138 189.757655 
L 72.142613 189.815534 
L 71.860787 190.069475 
L 71.712188 190.127358 
L 71.544117 190.05743 
L 71.426262 189.902522 
L 71.341202 189.747618 
L 71.26639 189.677361 
L 71.18133 189.717508 
L 71.166982 189.806836 
L 71.176206 189.897838 
L 71.164933 189.942336 
L 71.077823 189.936983 
L 70.942546 189.864381 
L 70.86056 189.846314 
L 70.779599 189.895161 
L 70.48855 190.20766 
L 70.460879 190.280936 
L 70.476252 190.353209 
L 70.480351 190.419461 
L 70.420911 190.472664 
L 70.357372 190.455933 
L 70.322528 190.257849 
L 70.247716 190.20766 
L 70.208773 190.229743 
L 70.174954 190.284282 
L 70.151383 190.357894 
L 70.143184 190.432845 
L 70.11039 190.539586 
L 70.035578 190.557656 
L 69.946419 190.54494 
L 69.872631 190.561671 
L 69.618475 190.781854 
L 69.506215 190.814896 
L 69.472951 190.824687 
L 69.331525 190.738017 
L 69.209571 190.964232 
L 69.083518 191.034508 
L 68.251362 190.972933 
L 68.044348 191.00372 
L 67.784043 191.091399 
L 67.669263 191.1001 
L 67.583178 191.125199 
L 67.343369 191.257725 
L 67.294178 191.316961 
L 67.205018 191.3685 
L 66.772543 191.359799 
L 66.610621 191.453843 
L 66.348267 191.224928 
L 66.045944 191.306921 
L 65.754894 191.462544 
L 65.527384 191.453843 
L 65.4331 191.520779 
L 65.378784 191.512747 
L 65.338816 191.475932 
L 65.287575 191.453843 
L 64.529207 191.468569 
L 64.437997 191.409331 
L 64.057788 191.593741 
L 63.926611 191.630222 
L 63.75649 191.608467 
L 63.568948 191.550231 
L 63.399852 191.465222 
L 63.286097 191.365154 
L 63.193863 191.512077 
L 63.09753 191.469238 
L 62.992998 191.350428 
L 62.874118 191.269103 
L 62.77676 191.273119 
L 62.57282 191.346412 
L 62.168015 191.373855 
L 62.045037 191.437443 
L 61.99482 191.586378 
L 61.93743 191.606459 
L 61.673026 191.522787 
L 61.588991 191.542199 
L 61.520328 191.542199 
L 61.261048 191.437443 
L 60.865466 191.581023 
L 60.481158 191.82669 
L 60.258771 192.028521 
L 60.113246 192.199566 
L 60.050732 192.289944 
L 60.025112 192.386684 
L 59.985143 192.435557 
L 59.788378 192.516232 
L 59.633629 192.62804 
L 59.555743 192.6498 
L 59.499378 192.694658 
L 59.477856 192.828901 
L 59.448136 192.946073 
L 59.377424 193.00533 
L 59.286214 193.008678 
L 59.200129 192.957456 
L 58.971594 193.395707 
L 58.972619 193.586219 
L 59.13864 193.762006 
L 59.301587 193.645819 
L 59.3682 193.768703 
L 59.39587 193.988028 
L 59.444037 194.159811 
L 59.560867 194.271322 
L 60.746587 194.930731 
L 60.836771 195.137715 
L 60.992544 195.256617 
L 61.293842 195.548023 
L 61.494707 195.845811 
L 61.170863 196.133901 
L 61.073505 196.336579 
L 60.980344 196.405991 
L 60.871615 196.487002 
L 60.46681 197.525008 
L 59.475807 198.996604 
L 59.375374 199.244984 
L 59.28519 199.560756 
L 59.147863 199.790054 
L 58.825044 200.194368 
L 58.409991 201.016838 
L 58.193754 201.263973 
L 58.020559 201.377652 
L 57.438459 201.636541 
L 57.017257 201.911206 
L 56.680091 202.298913 
L 56.4823 202.805055 
L 56.475126 203.435031 
L 56.19125 203.983553 
L 55.38779 204.207004 
L 51.046641 204.355976 
L 50.122251 204.641853 
L 49.335188 205.027744 
L 48.947805 205.11902 
L 48.535826 205.097543 
L 47.172812 204.797548 
L 46.994493 204.783455 
L 46.777231 204.799562 
L 46.586614 204.881438 
L 46.381649 205.249895 
L 46.191032 205.376747 
L 45.982993 205.453262 
L 45.626355 205.501588 
L 45.426514 205.563338 
L 45.263568 205.716375 
L 45.175433 206.010378 
L 45.056554 206.110397 
L 44.58821 205.927143 
L 44.458057 206.124493 
L 44.257192 206.287615 
L 42.919799 206.906581 
L 42.758901 207.052269 
L 42.7505 207.06287 
L 42.62055 207.226832 
L 42.559061 207.374543 
L 42.525242 207.614918 
L 42.460678 207.673335 
L 42.379717 207.655877 
L 42.302855 207.669306 
L 42.123511 207.884848 
L 41.776097 208.436164 
L 41.58548 208.673226 
L 41.443029 208.792097 
L 41.37949 208.785381 
L 41.327224 208.712849 
L 41.216543 208.633603 
L 41.020802 208.547642 
L 40.884501 208.701433 
L 40.839409 208.820975 
L 40.849657 208.931118 
L 40.818912 208.99022 
L 40.51454 208.923059 
L 40.407958 208.935148 
L 40.322898 209.012383 
L 40.25321 209.168873 
L 40.062593 209.14335 
L 39.635242 209.22932 
L 39.248884 209.375069 
L 39.098235 209.484551 
L 38.992679 209.653143 
L 38.916842 209.911751 
L 38.926065 210.001091 
L 38.969108 210.058861 
L 39.002927 210.122005 
L 38.983455 210.224783 
L 38.948611 210.245608 
L 38.84203 210.225455 
L 38.813335 210.224783 
L 38.598582 210.458183 
L 38.576601 210.482073 
L 38.503838 210.534473 
L 38.274278 210.567391 
L 38.137977 210.449156 
L 37.920714 209.976909 
L 37.554853 209.441564 
L 37.327342 209.207156 
L 37.092658 209.056039 
L 36.709374 208.909627 
L 36.606892 208.76792 
L 36.563849 208.48183 
L 36.583321 208.322002 
L 36.626363 208.192397 
L 36.645835 208.056751 
L 36.595619 207.876119 
L 36.517732 207.759282 
L 36.430622 207.708251 
L 36.335314 207.676692 
L 36.231807 207.621633 
L 36.07091 207.466529 
L 35.963303 207.271817 
L 35.919236 207.034142 
L 35.972527 206.638041 
L 35.977651 206.518544 
L 35.971502 206.401736 
L 35.957154 206.293657 
L 35.565672 206.446042 
L 35.392477 206.563523 
L 35.233629 206.73807 
L 35.171115 206.867642 
L 35.050186 207.208033 
L 34.987672 207.306059 
L 34.85342 207.354401 
L 34.752988 207.314116 
L 34.662803 207.257046 
L 34.556222 207.25436 
L 34.405573 207.416172 
L 34.354332 207.688778 
L 34.355357 208.571819 
L 34.314364 208.753816 
L 34.193435 208.859928 
L 33.320286 209.021114 
L 33.113272 209.127903 
L 32.769956 209.469774 
L 32.571141 209.626276 
L 32.356953 209.662547 
L 32.129442 209.657845 
L 31.7933 209.808978 
L 31.163034 209.916453 
L 30.942698 210.011167 
L 30.777701 210.128722 
L 30.638325 210.318159 
L 30.421063 210.719892 
L 30.275538 210.904645 
L 29.952719 211.163309 
L 29.775425 211.256028 
L 28.472875 211.648419 
L 28.120336 211.68 
L 27.740127 211.510004 
L 27.229765 210.890537 
L 26.796266 210.845524 
L 26.073766 210.973845 
L 25.713028 210.943612 
L 25.370737 210.799839 
L 25.776567 210.113272 
L 26.044046 209.401935 
L 26.175223 208.630245 
L 26.182397 207.301359 
L 25.963085 207.244289 
L 25.651539 207.150964 
L 25.438376 207.138879 
L 24.971057 206.691076 
L 24.63184 205.623747 
L 24.025145 202.839604 
L 22.690078 199.130219 
L 22.422323 198.386599 
L 22.271674 198.13424 
L 21.698798 197.401025 
L 21.280671 196.509784 
L 21.115674 196.251487 
L 20.91071 196.057522 
L 20.658603 195.95535 
L 20.288642 195.883664 
L 20.155415 195.831072 
L 20.119547 195.745318 
L 20.119547 195.625064 
L 20.095976 195.467298 
L 20.006816 195.138385 
L 19.950451 195.017141 
L 19.879738 194.938434 
L 19.806976 194.904273 
L 19.741387 194.842983 
L 19.691171 194.682228 
L 19.603036 194.559321 
L 19.211554 194.183586 
L 19.074228 194.084132 
L 18.981994 194.058013 
L 18.894884 194.056003 
L 18.807774 194.076095 
L 18.71554 194.114939 
L 18.556692 194.049976 
L 16.353836 191.751884 
L 14.15098 189.454888 
L 13.968562 189.042419 
L 13.871204 188.486498 
L 11.046793 184.27343 
L 10.165445 183.381302 
L 10.149048 183.188867 
L 10.751644 182.068828 
L 11.562278 181.159444 
L 11.8728 180.611833 
L 12.354466 179.374953 
L 12.377012 179.244442 
L 12.382137 179.118274 
L 12.405707 179.022482 
L 12.486668 178.981763 
L 12.631868 178.969242 
L 15.052824 178.760484 
L 17.947948 179.684057 
L 18.345579 179.710762 
L 19.590738 179.210397 
L 20.046784 179.231759 
L 20.624784 179.409668 
L 20.928132 179.438041 
L 21.207908 179.355594 
L 21.311415 179.268809 
L 21.487685 179.059197 
L 21.59939 178.972418 
L 21.687525 178.938374 
L 22.142546 178.873959 
L 22.731819 178.905332 
L 24.398181 179.601605 
L 24.957734 179.582244 
L 27.182624 178.879299 
L 27.355819 178.812548 
L 26.926418 178.312954 
L 26.577978 178.170462 
L 25.916968 177.659931 
L 25.460922 177.148794 
L 25.466046 177.092746 
L 25.32462 176.985657 
L 24.955684 176.307821 
L 23.589596 174.675057 
L 23.481989 174.452669 
L 23.419475 174.19062 
L 23.398979 173.864248 
L 23.36106 173.610236 
L 23.265752 173.45457 
L 23.135599 173.316575 
L 22.992124 173.111924 
L 22.853773 172.631669 
L 22.765638 172.41139 
L 22.565798 172.291758 
L 22.517631 172.23111 
L 22.451018 172.170796 
L 22.346486 172.143472 
L 22.233756 172.129477 
L 22.1241 172.092157 
L 22.03289 172.036177 
L 21.971401 171.967203 
L 21.906837 171.721637 
L 21.912986 171.403124 
L 21.973451 171.089966 
L 22.072858 170.862442 
L 22.087206 170.658914 
L 22.011369 170.348478 
L 21.254025 168.468057 
L 21.226355 167.983027 
L 21.350359 167.432489 
L 21.384178 167.114982 
L 21.321664 166.888018 
L 21.220206 166.695673 
L 20.949653 165.872494 
L 20.886639 164.770566 
L 20.811302 163.453544 
L 20.88099 162.656652 
L 20.931206 162.453549 
L 21.159742 162.027102 
L 21.226355 161.814727 
L 21.218156 161.684782 
L 21.174089 161.616322 
L 21.121823 161.559162 
L 21.091078 161.463122 
L 21.091078 161.31591 
L 21.139245 161.118195 
L 21.201759 160.449034 
L 21.265298 160.19921 
L 21.355483 159.970993 
L 21.813578 159.329272 
L 21.94578 158.974579 
L 21.828951 158.558822 
L 21.550199 158.109245 
L 21.445667 157.881489 
L 21.288869 157.304527 
L 21.260174 157.049604 
L 21.277596 156.799345 
L 21.355483 156.525208 
L 21.392376 156.510606 
L 21.45694 156.515916 
L 21.523554 156.506623 
L 21.564546 156.44556 
L 21.552249 156.362594 
L 21.446692 156.235164 
L 21.42927 156.182069 
L 21.48461 156.060617 
L 21.645507 155.866834 
L 21.700848 155.736102 
L 21.45694 154.996927 
L 21.392376 154.85893 
L 21.223281 154.829738 
L 21.106451 154.725581 
L 21.038812 154.523909 
L 21.017291 154.202185 
L 21.066483 154.102026 
L 21.161791 153.9959 
L 21.229429 153.882481 
L 21.189461 153.760443 
L 21.151543 153.687488 
L 21.102352 153.554183 
L 21.079805 153.426852 
L 21.121823 153.369819 
L 21.405699 153.312788 
L 21.362656 153.16955 
L 21.192536 152.98388 
L 21.091078 152.79623 
L 21.1085 152.638426 
L 21.133096 152.5403 
L 21.126947 152.461403 
L 21.054185 152.357977 
L 21.002944 152.235329 
L 21.006018 152.082191 
L 21.042912 151.943643 
L 21.091078 151.864097 
L 20.902511 151.654633 
L 20.718043 151.555871 
L 20.539724 151.580395 
L 20.370628 151.741466 
L 20.251749 151.76334 
L 20.112373 151.623479 
L 19.894086 151.299368 
L 19.63993 151.078008 
L 19.589713 150.989203 
L 19.557944 150.802322 
L 19.60816 150.745995 
L 19.682972 150.724127 
L 19.723965 150.638644 
L 19.709618 150.507442 
L 19.6676 150.439855 
L 19.618408 150.383533 
L 19.589713 150.28812 
L 19.589713 150.134404 
L 19.63993 149.919081 
L 19.657352 149.763394 
L 19.671699 148.871807 
L 19.691171 148.757229 
L 19.522075 147.786449 
L 19.385774 147.471964 
L 19.379625 147.415691 
L 19.396022 147.268724 
L 19.385774 147.21775 
L 19.335557 147.17472 
L 19.270994 147.146917 
L 19.231026 147.154199 
L 19.250497 147.21775 
L 19.167487 147.121762 
L 19.123419 147.113818 
L 19.109072 147.089988 
L 19.115221 146.947667 
L 19.133667 146.863602 
L 19.213604 146.666354 
L 19.250497 146.597519 
L 18.922554 145.025275 
L 18.807774 144.761983 
L 18.480855 144.859227 
L 18.308685 144.833427 
L 18.234898 144.627037 
L 18.208253 144.505987 
L 18.142664 144.376343 
L 18.055554 144.271176 
L 17.964345 144.229507 
L 17.912079 144.270515 
L 17.76143 144.586687 
L 17.64665 144.375682 
L 17.792175 143.955696 
L 17.724536 143.745392 
L 17.566714 143.675294 
L 17.273614 143.77449 
L 17.111693 143.657439 
L 17.048154 143.583375 
L 16.874959 143.442856 
L 16.840115 143.366482 
L 16.836015 143.287135 
L 16.816544 143.221344 
L 16.739682 143.18101 
L 16.674093 143.200846 
L 16.484501 143.385658 
L 16.389193 143.404173 
L 16.3441 143.334082 
L 16.330778 143.216054 
L 16.330778 143.090758 
L 16.244693 143.131421 
L 16.186278 143.122825 
L 16.149384 143.062988 
L 16.128888 142.949268 
L 16.128888 142.466331 
L 15.950569 142.23563 
L 15.647221 141.943146 
L 15.544739 141.757754 
L 15.549863 141.594842 
L 15.703586 141.010014 
L 15.718959 140.749683 
L 15.689239 140.537932 
L 15.606228 140.348655 
L 15.465828 140.156748 
L 15.454888 140.135172 
L 15.002608 139.243278 
L 14.831462 139.104596 
z
" clip-path="url(#p181fc7e495)" style="stroke: #000000; stroke-linejoin: miter"/>
   </g>
   <g id="line2d_1">
    <path d="M 11.328619 139.144879 
L 6.791217 131.153699 
L 5.226313 121.800011 
L 5.551182 121.234032 
L 6.161976 120.891347 
L 6.959288 120.754809 
L 7.369217 120.17591 
L 7.316951 119.45409 
L 7.198072 119.128018 
L 7.393813 118.957124 
L 7.809378 118.420892 
L 8.348435 118.24381 
L 8.424272 117.688041 
L 8.257226 116.618125 
L 8.458091 115.981088 
L 9.326116 113.93235 
L 14.884753 104.479633 
L 25.246469 90.644958 
L 25.302074 90.178364 
L 27.898975 53.296454 
L 28.358095 52.006783 
L 30.222247 47.960172 
L 30.200726 47.757201 
L 29.825641 47.184671 
L 27.238989 43.833049 
L 26.255159 42.849773 
L 25.996904 42.271724 
L 25.915943 41.718587 
L 25.997929 41.151028 
L 26.242861 40.677453 
L 26.642542 40.410605 
L 23.244231 34.410602 
L 22.389529 33.596458 
L 22.231706 27.175164 
L 20.401548 15.501733 
L 29.153357 10.668117 
L 30.368797 10.08 
L 74.139992 36.559178 
L 109.657267 58.33293 
L 109.688012 105.555232 
L 109.571182 105.93519 
L 109.302679 105.920827 
L 108.147704 105.430549 
L 106.942512 105.205353 
L 105.803934 105.203395 
L 105.153172 105.378328 
L 103.851647 105.969794 
L 103.105577 106.058591 
L 101.580641 105.65903 
L 100.865315 105.768707 
L 100.606034 105.990687 
L 99.971669 106.941822 
L 99.18973 107.54213 
L 99.002187 107.82698 
L 98.93045 108.22164 
L 99.169233 108.912434 
L 99.594535 109.554372 
L 99.712389 110.372051 
L 99.510499 112.126264 
L 98.989889 113.254356 
L 98.427262 113.57189 
L 98.231521 113.772904 
L 97.22207 115.200065 
L 97.104216 115.955859 
L 96.464727 116.684983 
L 96.545688 117.708368 
L 96.719907 118.625862 
L 96.61845 118.717693 
L 94.202943 119.640105 
L 93.802238 120.020703 
L 93.61572 120.472565 
L 93.842206 120.94255 
L 94.224465 121.401122 
L 94.422255 123.143174 
L 94.244961 123.274897 
L 94.146578 123.59158 
L 94.265457 124.017383 
L 94.549333 124.315745 
L 95.285156 124.576672 
L 95.441954 125.233034 
L 95.428631 125.606145 
L 95.281057 125.823458 
L 94.559581 126.160801 
L 94.000028 126.756671 
L 92.139975 127.936593 
L 91.803506 128.395819 
L 90.742118 130.296504 
L 91.130525 130.825678 
L 91.321142 131.988073 
L 91.953458 132.730074 
L 92.098983 133.224071 
L 92.149199 134.203069 
L 92.278326 134.507708 
L 92.747695 135.334736 
L 92.664685 135.867737 
L 92.314195 136.448994 
L 91.235057 137.813816 
L 89.995022 138.472676 
L 89.36783 139.385599 
L 88.553097 141.347021 
L 88.163664 142.925797 
L 88.433192 143.352596 
L 89.027589 144.536415 
L 89.376029 144.752722 
L 90.206135 144.856581 
L 91.060837 144.613807 
L 91.440022 144.346579 
L 91.758741 143.959664 
L 92.042617 143.42401 
L 93.284702 144.472253 
L 94.430454 145.117234 
L 93.72845 147.168763 
L 94.056394 147.823527 
L 94.808613 151.148921 
L 94.553433 152.558864 
L 94.676411 152.485933 
L 94.785042 152.381181 
L 95.817039 152.033798 
L 95.949241 152.137877 
L 96.033276 151.952261 
L 96.083493 152.015237 
L 96.065046 152.44085 
L 95.889801 153.091302 
L 95.336397 157.046285 
L 95.382514 157.661715 
L 95.58133 158.265296 
L 96.239266 159.244249 
L 96.580532 159.4598 
L 97.378868 159.806567 
L 97.661719 160.228111 
L 97.763177 160.670635 
L 98.939673 160.550364 
L 99.082123 160.706518 
L 99.451059 163.344157 
L 99.18973 164.282528 
L 99.156935 164.682287 
L 98.937623 165.032193 
L 98.549216 166.844423 
L 98.002985 166.775538 
L 97.399365 166.526964 
L 97.149308 166.258442 
L 96.686088 166.124354 
L 96.24029 166.110713 
L 95.968712 165.960327 
L 95.312826 166.054151 
L 95.087365 165.792648 
L 94.877276 165.891458 
L 94.444801 165.825584 
L 93.896521 166.337632 
L 93.171972 166.584198 
L 92.672883 166.975208 
L 92.520185 166.894008 
L 92.0006 167.494728 
L 91.759766 168.17044 
L 91.481015 167.983027 
L 91.324217 168.011654 
L 90.493086 167.902805 
L 90.303493 168.008991 
L 90.059586 168.694779 
L 90.155919 168.964799 
L 90.049337 169.110304 
L 89.273547 169.408657 
L 88.551047 170.052721 
L 88.251799 169.941817 
L 87.817274 170.154302 
L 87.714792 170.28686 
L 87.398122 170.361801 
L 87.260795 170.483708 
L 87.090675 171.320502 
L 87.090675 171.833589 
L 87.239274 172.658996 
L 87.477033 173.117924 
L 87.468834 173.291576 
L 87.542622 173.383905 
L 87.203405 174.312974 
L 87.222877 174.870115 
L 86.926703 174.969815 
L 86.602859 175.682787 
L 85.714338 175.930255 
L 85.499125 175.859215 
L 85.184505 176.110695 
L 84.908828 176.578008 
L 84.129962 178.627989 
L 83.807143 179.047181 
L 83.328551 179.181024 
L 82.785395 178.864614 
L 82.642945 179.013137 
L 82.062895 179.953122 
L 81.952215 180.18381 
L 81.302477 180.871606 
L 81.018601 181.615616 
L 80.712179 181.850065 
L 80.518488 181.709461 
L 80.492867 181.739518 
L 80.349392 181.888139 
L 80.267406 182.013051 
L 79.995828 183.409032 
L 79.855428 183.557041 
L 79.92819 183.821998 
L 79.721176 183.779898 
L 79.658662 184.006441 
L 79.314321 184.400079 
L 79.229261 184.589559 
L 78.74452 185.243276 
L 78.523158 185.364604 
L 78.31307 186.246759 
L 78.243382 186.209316 
L 78.094783 186.154156 
L 77.695102 186.752595 
L 77.621315 186.656639 
L 77.526006 186.752595 
L 76.673354 187.19462 
L 76.802481 187.724638 
L 75.85452 187.644379 
L 75.552198 187.470824 
L 75.399499 187.962747 
L 75.099226 188.127625 
L 75.208882 188.873495 
L 74.956776 188.984884 
L 74.494581 189.846314 
L 74.26912 189.79546 
L 73.743386 190.127358 
L 72.727787 190.127358 
L 72.288138 189.757655 
L 72.142613 189.815534 
L 71.712188 190.127358 
L 71.426262 189.902522 
L 71.26639 189.677361 
L 71.166982 189.806836 
L 71.164933 189.942336 
L 71.077823 189.936983 
L 70.779599 189.895161 
L 70.476252 190.353209 
L 70.420911 190.472664 
L 70.357372 190.455933 
L 70.247716 190.20766 
L 70.208773 190.229743 
L 69.872631 190.561671 
L 69.472951 190.824687 
L 69.331525 190.738017 
L 69.083518 191.034508 
L 68.044348 191.00372 
L 66.610621 191.453843 
L 66.348267 191.224928 
L 65.287575 191.453843 
L 64.437997 191.409331 
L 63.926611 191.630222 
L 63.399852 191.465222 
L 63.286097 191.365154 
L 63.09753 191.469238 
L 62.874118 191.269103 
L 62.168015 191.373855 
L 61.673026 191.522787 
L 61.520328 191.542199 
L 61.261048 191.437443 
L 60.481158 191.82669 
L 60.025112 192.386684 
L 59.788378 192.516232 
L 59.477856 192.828901 
L 59.377424 193.00533 
L 59.200129 192.957456 
L 58.972619 193.586219 
L 59.13864 193.762006 
L 59.301587 193.645819 
L 59.39587 193.988028 
L 59.560867 194.271322 
L 60.746587 194.930731 
L 60.992544 195.256617 
L 61.494707 195.845811 
L 60.871615 196.487002 
L 60.46681 197.525008 
L 59.375374 199.244984 
L 59.147863 199.790054 
L 58.825044 200.194368 
L 58.193754 201.263973 
L 56.680091 202.298913 
L 56.4823 202.805055 
L 56.475126 203.435031 
L 56.19125 203.983553 
L 55.38779 204.207004 
L 51.046641 204.355976 
L 50.122251 204.641853 
L 48.947805 205.11902 
L 48.535826 205.097543 
L 46.777231 204.799562 
L 46.586614 204.881438 
L 46.191032 205.376747 
L 45.263568 205.716375 
L 45.056554 206.110397 
L 44.58821 205.927143 
L 44.257192 206.287615 
L 42.7505 207.06287 
L 42.559061 207.374543 
L 42.460678 207.673335 
L 42.302855 207.669306 
L 41.37949 208.785381 
L 41.327224 208.712849 
L 41.020802 208.547642 
L 40.839409 208.820975 
L 40.818912 208.99022 
L 40.407958 208.935148 
L 40.062593 209.14335 
L 39.248884 209.375069 
L 38.992679 209.653143 
L 38.969108 210.058861 
L 38.948611 210.245608 
L 38.813335 210.224783 
L 38.503838 210.534473 
L 38.274278 210.567391 
L 38.137977 210.449156 
L 37.554853 209.441564 
L 37.092658 209.056039 
L 36.606892 208.76792 
L 36.626363 208.192397 
L 36.595619 207.876119 
L 36.335314 207.676692 
L 36.07091 207.466529 
L 35.919236 207.034142 
L 35.957154 206.293657 
L 35.392477 206.563523 
L 35.171115 206.867642 
L 34.987672 207.306059 
L 34.752988 207.314116 
L 34.556222 207.25436 
L 34.405573 207.416172 
L 34.354332 207.688778 
L 34.314364 208.753816 
L 34.193435 208.859928 
L 33.113272 209.127903 
L 32.571141 209.626276 
L 30.942698 210.011167 
L 30.638325 210.318159 
L 30.275538 210.904645 
L 29.775425 211.256028 
L 28.120336 211.68 
L 27.740127 211.510004 
L 27.229765 210.890537 
L 26.796266 210.845524 
L 25.713028 210.943612 
L 25.370737 210.799839 
L 25.776567 210.113272 
L 26.044046 209.401935 
L 26.175223 208.630245 
L 26.182397 207.301359 
L 25.438376 207.138879 
L 24.971057 206.691076 
L 24.63184 205.623747 
L 24.025145 202.839604 
L 22.271674 198.13424 
L 21.698798 197.401025 
L 21.115674 196.251487 
L 20.658603 195.95535 
L 20.119547 195.745318 
L 20.095976 195.467298 
L 19.879738 194.938434 
L 19.741387 194.842983 
L 19.603036 194.559321 
L 18.981994 194.058013 
L 18.556692 194.049976 
L 14.15098 189.454888 
L 13.968562 189.042419 
L 13.871204 188.486498 
L 11.046793 184.27343 
L 10.165445 183.381302 
L 10.149048 183.188867 
L 10.751644 182.068828 
L 11.562278 181.159444 
L 11.8728 180.611833 
L 12.486668 178.981763 
L 15.052824 178.760484 
L 18.345579 179.710762 
L 19.590738 179.210397 
L 20.046784 179.231759 
L 20.928132 179.438041 
L 21.311415 179.268809 
L 21.687525 178.938374 
L 22.142546 178.873959 
L 22.731819 178.905332 
L 24.398181 179.601605 
L 24.957734 179.582244 
L 27.355819 178.812548 
L 26.926418 178.312954 
L 26.577978 178.170462 
L 25.916968 177.659931 
L 25.32462 176.985657 
L 24.955684 176.307821 
L 23.481989 174.452669 
L 23.135599 173.316575 
L 22.992124 173.111924 
L 22.765638 172.41139 
L 21.971401 171.967203 
L 21.912986 171.403124 
L 22.011369 170.348478 
L 21.254025 168.468057 
L 21.226355 167.983027 
L 21.384178 167.114982 
L 20.949653 165.872494 
L 20.811302 163.453544 
L 20.931206 162.453549 
L 21.218156 161.684782 
L 21.091078 161.31591 
L 21.355483 159.970993 
L 21.94578 158.974579 
L 21.828951 158.558822 
L 21.445667 157.881489 
L 21.260174 157.049604 
L 21.392376 156.510606 
L 21.564546 156.44556 
L 21.48461 156.060617 
L 21.700848 155.736102 
L 21.392376 154.85893 
L 21.106451 154.725581 
L 21.017291 154.202185 
L 21.151543 153.687488 
L 21.121823 153.369819 
L 21.405699 153.312788 
L 21.192536 152.98388 
L 21.1085 152.638426 
L 21.126947 152.461403 
L 21.002944 152.235329 
L 21.091078 151.864097 
L 20.718043 151.555871 
L 20.539724 151.580395 
L 20.251749 151.76334 
L 19.589713 150.989203 
L 19.60816 150.745995 
L 19.723965 150.638644 
L 19.657352 149.763394 
L 19.691171 148.757229 
L 19.335557 147.17472 
L 19.109072 147.089988 
L 19.213604 146.666354 
L 19.250497 146.597519 
L 18.807774 144.761983 
L 18.308685 144.833427 
L 18.055554 144.271176 
L 17.912079 144.270515 
L 17.76143 144.586687 
L 17.64665 144.375682 
L 17.792175 143.955696 
L 17.724536 143.745392 
L 17.566714 143.675294 
L 17.273614 143.77449 
L 16.840115 143.366482 
L 16.739682 143.18101 
L 16.674093 143.200846 
L 16.389193 143.404173 
L 16.330778 143.216054 
L 16.330778 143.090758 
L 16.244693 143.131421 
L 16.149384 143.062988 
L 15.950569 142.23563 
L 15.544739 141.757754 
L 15.549863 141.594842 
L 15.718959 140.749683 
L 15.606228 140.348655 
L 15.454888 140.135172 
L 14.831462 139.104596 
L 11.328619 139.144879 
L 11.328619 139.144879 
" clip-path="url(#p181fc7e495)" style="fill: none; stroke: #000000; stroke-width: 0.5; stroke-linecap: square"/>
   </g>
  </g>
 </g>
 <defs>
  <clipPath id="p181fc7e495">
   <rect x="0" y="-0" width="114.91125" height="221.76"/>
  </clipPath>
 </defs>
</svg>
