<?xml version="1.0" encoding="utf-8" standalone="no"?>
<!DOCTYPE svg PUBLIC "-//W3C//DTD SVG 1.1//EN"
  "http://www.w3.org/Graphics/SVG/1.1/DTD/svg11.dtd">
<svg xmlns:xlink="http://www.w3.org/1999/xlink" width="223.2pt" height="131.726401pt" viewBox="0 0 223.2 131.726401" xmlns="http://www.w3.org/2000/svg" version="1.1">
 <metadata>
  <rdf:RDF xmlns:dc="http://purl.org/dc/elements/1.1/" xmlns:cc="http://creativecommons.org/ns#" xmlns:rdf="http://www.w3.org/1999/02/22-rdf-syntax-ns#">
   <cc:Work>
    <dc:type rdf:resource="http://purl.org/dc/dcmitype/StillImage"/>
    <dc:date>2026-04-26T19:22:26.931093</dc:date>
    <dc:format>image/svg+xml</dc:format>
    <dc:creator>
     <cc:Agent>
      <dc:title>Matplotlib v3.10.9, https://matplotlib.org/</dc:title>
     </cc:Agent>
    </dc:creator>
   </cc:Work>
  </rdf:RDF>
 </metadata>
 <defs>
  <style type="text/css">*{stroke-linejoin: round; stroke-linecap: butt}</style>
 </defs>
 <g id="figure_1">
  <g id="patch_1">
   <path d="M 0 131.726401 
L 223.2 131.726401 
L 223.2 0 
L 0 0 
z
" style="fill: #ffffff"/>
  </g>
  <g id="axes_1">
   <g id="patch_2">
    <path d="M 43.092428 5.987564 
L 106.452049 6.146539 
L 154.922119 5.987564 
L 212.737773 5.987564 
L 212.737773 35.294869 
L 213.054545 125.738837 
L 185.334738 125.570755 
L 146.685368 125.738837 
L 73.505047 125.738837 
L 57.506748 125.570755 
L 10.620657 125.570755 
L 10.620657 90.043293 
L 10.145455 86.735637 
L 10.303855 61.268532 
L 10.462256 6.146539 
z
" clip-path="url(#p02b42582d2)" style="stroke: #000000; stroke-linejoin: miter"/>
   </g>
   <g id="line2d_1">
    <path d="M 43.092428 5.987564 
L 106.452049 6.146539 
L 154.922119 5.987564 
L 212.737773 5.987564 
L 212.737773 35.294869 
L 213.054545 125.738837 
L 185.334738 125.570755 
L 146.685368 125.738837 
L 73.505047 125.738837 
L 57.506748 125.570755 
L 10.620657 125.570755 
L 10.620657 90.043293 
L 10.145455 86.735637 
L 10.303855 61.268532 
L 10.462256 6.146539 
L 43.092428 5.987564 
" clip-path="url(#p02b42582d2)" style="fill: none; stroke: #000000; stroke-width: 0.5; stroke-linecap: square"/>
   </g>
  </g>
 </g>
 <defs>
  <clipPath id="p02b42582d2">
   <rect x="0" y="0" width="223.2" height="131.726401"/>
  </clipPath>
 </defs>
</svg>
