<?xml version="1.0" encoding="utf-8" standalone="no"?>
<!DOCTYPE svg PUBLIC "-//W3C//DTD SVG 1.1//EN"
  "http://www.w3.org/Graphics/SVG/1.1/DTD/svg11.dtd">
<svg xmlns:xlink="http://www.w3.org/1999/xlink" width="223.2pt" height="170.499354pt" viewBox="0 0 223.2 170.499354" xmlns="http://www.w3.org/2000/svg" version="1.1">
 <metadata>
  <rdf:RDF xmlns:dc="http://purl.org/dc/elements/1.1/" xmlns:cc="http://creativecommons.org/ns#" xmlns:rdf="http://www.w3.org/1999/02/22-rdf-syntax-ns#">
   <cc:Work>
    <dc:type rdf:resource="http://purl.org/dc/dcmitype/StillImage"/>
    <dc:date>2026-04-26T19:22:22.913004</dc:date>
    <dc:format>image/svg+xml</dc:format>
    <dc:creator>
     <cc:Agent>
      <dc:title>Matplotlib v3.10.9, https://matplotlib.org/</dc:title>
     </cc:Agent>
    </dc:creator>
   </cc:Work>
  </rdf:RDF>
 </metadata>
 <defs>
  <style type="text/css">*{stroke-linejoin: round; stroke-linecap: butt}</style>
 </defs>
 <g id="figure_1">
  <g id="patch_1">
   <path d="M 0 170.499354 
L 223.2 170.499354 
L 223.2 0 
L 0 0 
z
" style="fill: #ffffff"/>
  </g>
  <g id="axes_1">
   <g id="patch_2">
    <path d="M 99.278646 7.749971 
L 135.006825 9.600018 
L 171.858531 20.700091 
L 200.69574 42.899166 
L 212.380429 77.304899 
L 213.054545 123.358792 
L 209.683962 144.441644 
L 199.796918 162.749383 
L 148.938567 153.318247 
L 142.646814 154.982584 
L 107.667653 133.90038 
L 34.413652 140.558057 
L 10.145455 116.14594 
L 23.852493 99.130407 
L 34.863063 56.587882 
L 37.484627 29.209907 
L 52.165389 14.410093 
z
" clip-path="url(#p8a0b91b0b9)" style="stroke: #000000; stroke-linejoin: miter"/>
   </g>
   <g id="line2d_1">
    <path d="M 99.278646 7.749971 
L 135.006825 9.600018 
L 171.858531 20.700091 
L 200.69574 42.899166 
L 212.380429 77.304899 
L 213.054545 123.358792 
L 209.683962 144.441644 
L 199.796918 162.749383 
L 148.938567 153.318247 
L 142.646814 154.982584 
L 107.667653 133.90038 
L 34.413652 140.558057 
L 10.145455 116.14594 
L 23.852493 99.130407 
L 34.863063 56.587882 
L 37.484627 29.209907 
L 52.165389 14.410093 
L 99.278646 7.749971 
" clip-path="url(#p8a0b91b0b9)" style="fill: none; stroke: #000000; stroke-width: 0.5; stroke-linecap: square"/>
   </g>
  </g>
 </g>
 <defs>
  <clipPath id="p8a0b91b0b9">
   <rect x="0" y="0" width="223.2" height="170.499354"/>
  </clipPath>
 </defs>
</svg>
