<?xml version="1.0" encoding="utf-8" standalone="no"?>
<!DOCTYPE svg PUBLIC "-//W3C//DTD SVG 1.1//EN"
  "http://www.w3.org/Graphics/SVG/1.1/DTD/svg11.dtd">
<svg xmlns:xlink="http://www.w3.org/1999/xlink" width="223.2pt" height="86.046474pt" viewBox="0 0 223.2 86.046474" xmlns="http://www.w3.org/2000/svg" version="1.1">
 <metadata>
  <rdf:RDF xmlns:dc="http://purl.org/dc/elements/1.1/" xmlns:cc="http://creativecommons.org/ns#" xmlns:rdf="http://www.w3.org/1999/02/22-rdf-syntax-ns#">
   <cc:Work>
    <dc:type rdf:resource="http://purl.org/dc/dcmitype/StillImage"/>
    <dc:date>2026-04-26T19:22:07.920221</dc:date>
    <dc:format>image/svg+xml</dc:format>
    <dc:creator>
     <cc:Agent>
      <dc:title>Matplotlib v3.10.9, https://matplotlib.org/</dc:title>
     </cc:Agent>
    </dc:creator>
   </cc:Work>
  </rdf:RDF>
 </metadata>
 <defs>
  <style type="text/css">*{stroke-linejoin: round; stroke-linecap: butt}</style>
 </defs>
 <g id="figure_1">
  <g id="patch_1">
   <path d="M 0 86.046474 
L 223.2 86.046474 
L 223.2 0 
L 0 0 
z
" style="fill: #ffffff"/>
  </g>
  <g id="axes_1">
   <g id="patch_2">
    <path d="M 195.006265 80.513862 
L 195.007306 78.777388 
L 194.217832 78.77816 
L 194.253025 78.667767 
L 194.354503 78.554125 
L 194.630217 78.333024 
L 194.873619 78.279724 
L 195.097679 77.784004 
L 195.196642 77.509559 
L 195.084979 77.286141 
L 195.054447 76.685067 
L 194.672632 76.772334 
L 194.492744 77.089068 
L 194.3759 77.33187 
L 194.241113 77.616908 
L 194.090722 77.508315 
L 193.893357 77.386546 
L 193.61024 77.516988 
L 193.497319 77.793283 
L 193.461444 78.021235 
L 193.523271 78.266298 
L 193.62422 78.302244 
L 193.747434 78.337839 
L 193.823247 78.315692 
L 193.872861 78.232102 
L 193.912553 78.133316 
L 193.951481 78.240651 
L 194.030978 78.481027 
L 193.803436 78.632985 
L 193.783441 78.799234 
L 193.433221 78.797278 
L 192.493269 79.574634 
L 192.420305 80.447871 
L 191.448626 80.723507 
L 189.598391 80.858481 
L 189.392301 80.834718 
L 188.76716 80.666477 
L 188.581678 80.550519 
L 188.451917 80.525807 
L 188.39696 80.571429 
L 188.241247 80.788142 
L 188.125226 80.858481 
L 187.617632 80.937377 
L 187.016917 80.92502 
L 186.455129 80.795746 
L 186.065084 80.525807 
L 185.444522 80.635111 
L 184.677408 80.155147 
L 183.901133 79.506105 
L 183.24775 79.106092 
L 182.837096 79.050987 
L 181.494454 79.106092 
L 181.137231 79.052887 
L 180.405228 78.824873 
L 180.022052 78.771672 
L 179.303025 78.868575 
L 178.925956 78.995882 
L 178.67712 79.1783 
L 178.403096 79.225806 
L 175.92772 78.522776 
L 174.235488 78.292895 
L 173.374488 78.33279 
L 171.876897 78.810623 
L 171.161686 78.931278 
L 169.799962 78.931278 
L 169.395414 78.998732 
L 168.60769 79.31892 
L 168.192456 79.423439 
L 165.806386 79.255261 
L 163.377571 79.497553 
L 162.989816 79.731309 
L 162.579924 79.711354 
L 162.16698 79.602076 
L 161.776171 79.568819 
L 161.487645 79.716105 
L 160.881586 80.293903 
L 160.484671 80.525807 
L 160.041958 80.657923 
L 157.619249 80.789093 
L 157.142951 80.698794 
L 156.205621 80.259689 
L 155.72627 80.155147 
L 155.466748 80.381341 
L 155.338514 80.381341 
L 155.198067 80.224525 
L 155.007243 80.190311 
L 154.821761 80.288201 
L 154.698107 80.525807 
L 154.221809 80.343324 
L 153.676051 80.292953 
L 153.191356 80.442168 
L 152.892907 80.858481 
L 153.404317 80.858481 
L 153.404317 81.018176 
L 153.071519 81.037187 
L 152.545606 81.278643 
L 152.193726 81.337584 
L 150.454932 81.393673 
L 149.265714 81.735931 
L 148.590958 81.815796 
L 147.800181 81.742586 
L 146.641494 82.109598 
L 146.279691 82.135271 
L 146.026276 82.083925 
L 145.772861 81.947006 
L 145.566007 81.738783 
L 145.44159 81.483988 
L 145.464489 81.052397 
L 145.814079 80.280597 
L 145.836215 80.062013 
L 145.974372 80.012596 
L 146.212521 79.982185 
L 146.349151 79.902359 
L 146.475095 79.757916 
L 146.60333 79.517507 
L 146.733854 79.423439 
L 146.676606 79.169749 
L 146.763622 78.990182 
L 147.117792 78.612073 
L 147.53608 77.931952 
L 147.566612 77.816078 
L 147.632256 77.639424 
L 148.526841 76.687916 
L 148.490203 76.484731 
L 148.238314 76.189467 
L 148.270373 76.048015 
L 148.439825 76.061305 
L 148.934442 76.252126 
L 149.120687 76.042319 
L 149.480964 75.907517 
L 149.5634 75.816386 
L 149.615304 75.676847 
L 149.948102 75.093114 
L 150.274794 74.82738 
L 151.080074 74.324435 
L 151.387683 73.79689 
L 151.741853 73.493301 
L 153.631016 72.4518 
L 153.99282 72.38636 
L 154.272187 72.207118 
L 154.567583 71.366977 
L 154.837791 71.099613 
L 154.892748 71.089184 
L 154.959155 71.08634 
L 155.082046 71.099613 
L 154.975184 71.370769 
L 155.088152 71.504459 
L 155.330118 71.516785 
L 155.604905 71.431451 
L 155.861374 71.237085 
L 156.059068 70.947926 
L 156.188828 70.600965 
L 156.234626 70.224653 
L 156.37202 70.09101 
L 157.142951 69.522371 
L 157.202489 68.406198 
L 157.329196 68.237569 
L 157.473459 68.086 
L 157.724584 67.268581 
L 157.142951 66.171083 
L 156.95976 65.973209 
L 156.454456 65.578439 
L 155.782754 65.275527 
L 155.600326 65.24713 
L 155.72169 65.507441 
L 155.604905 65.666477 
L 155.256078 65.385329 
L 154.966025 65.229145 
L 154.77062 64.993463 
L 154.698107 64.474825 
L 154.761461 64.317734 
L 154.909541 64.226889 
L 155.080519 64.161596 
L 155.21028 64.077378 
L 155.604905 63.441555 
L 155.604905 63.284509 
L 154.924807 62.779358 
L 154.561477 62.690443 
L 154.430189 63.125577 
L 154.052357 62.691389 
L 153.734061 62.109716 
L 153.364625 61.599055 
L 152.834133 61.379683 
L 152.297534 61.434525 
L 151.707505 61.596219 
L 151.216704 61.845866 
L 150.972448 62.172135 
L 150.793837 62.041624 
L 150.685448 62.044461 
L 150.590799 62.111607 
L 150.459512 62.172135 
L 150.261055 62.232663 
L 150.140453 62.293193 
L 150.015273 62.332916 
L 149.806892 62.331025 
L 149.479437 62.266711 
L 148.526841 61.856268 
L 147.797128 62.310217 
L 147.630729 62.331025 
L 147.358995 62.089856 
L 147.233051 62.015144 
L 147.091077 61.982044 
L 146.536159 62.015144 
L 146.389606 61.994338 
L 146.024749 61.869507 
L 145.901095 61.783452 
L 145.831635 61.835463 
L 145.589669 61.856268 
L 144.668369 61.791963 
L 144.34702 61.672813 
L 143.848586 61.273783 
L 143.498232 61.15276 
L 142.809737 61.061994 
L 142.402136 61.175451 
L 142.122006 61.428851 
L 141.883857 61.695508 
L 141.599146 61.856268 
L 140.379396 61.897878 
L 139.740515 61.704964 
L 139.538241 61.205707 
L 139.397794 61.205707 
L 139.282536 61.538537 
L 138.666555 60.691393 
L 138.443672 60.572279 
L 138.034544 60.475857 
L 137.808607 60.223469 
L 137.477336 59.475863 
L 137.278879 59.213151 
L 136.933104 58.84463 
L 136.552982 58.568737 
L 136.255296 58.581964 
L 136.053785 58.71046 
L 135.985851 58.591412 
L 135.975165 58.374112 
L 135.940053 58.20784 
L 135.71488 57.892321 
L 135.595806 57.671286 
L 135.544665 57.473877 
L 135.408798 57.138591 
L 134.083712 56.017734 
L 133.827244 55.933708 
L 133.168518 55.975249 
L 132.934948 55.819473 
L 132.726568 55.468294 
L 132.447201 54.850984 
L 132.215921 54.585781 
L 131.526663 53.972399 
L 131.359501 53.949753 
L 131.231267 53.732736 
L 131.116009 52.940269 
L 131.050365 51.433185 
L 130.902285 50.784527 
L 130.615285 50.132219 
L 130.416064 49.47532 
L 130.537429 48.809122 
L 130.709171 49.042795 
L 130.917551 49.076717 
L 131.09311 48.921245 
L 131.166386 48.587713 
L 131.028993 48.350302 
L 130.419881 48.115733 
L 130.28096 47.948059 
L 130.242032 47.543038 
L 130.06571 46.793401 
L 130.026019 46.352736 
L 129.945109 45.96108 
L 129.592466 45.256964 
L 129.513082 44.925665 
L 129.398588 44.148366 
L 129.110061 43.410753 
L 128.728412 42.778639 
L 128.33684 42.319677 
L 128.030757 42.082696 
L 127.737651 41.956689 
L 126.743073 41.77803 
L 126.511794 41.692465 
L 126.422488 41.520401 
L 126.543852 41.201683 
L 126.756049 41.341765 
L 126.994198 41.387834 
L 127.510188 41.373731 
L 127.584991 41.268433 
L 127.489579 41.031524 
L 127.25372 40.663033 
L 127.123959 40.524859 
L 126.931608 40.364132 
L 126.543852 40.11037 
L 126.269065 40.016388 
L 126.133198 40.037064 
L 126.010307 40.131046 
L 125.775974 40.254166 
L 124.906578 40.485381 
L 124.034128 40.584075 
L 123.941006 40.626374 
L 123.834907 40.730712 
L 123.750181 40.857614 
L 123.715069 40.97136 
L 123.652479 41.057847 
L 123.507452 41.077589 
L 122.933452 41.038105 
L 122.705989 40.982641 
L 122.504478 40.964779 
L 122.305257 41.057847 
L 122.177787 40.885815 
L 121.855675 41.09169 
L 121.512954 41.183821 
L 120.704621 41.201683 
L 120.335948 41.275954 
L 119.349003 41.832567 
L 118.578072 42.070471 
L 117.83462 42.144761 
L 117.074375 42.064829 
L 115.570677 41.562711 
L 115.260778 41.343645 
L 114.912714 40.97136 
L 114.64785 40.925297 
L 113.674645 41.060667 
L 113.305972 41.057847 
L 112.89379 40.908376 
L 112.715942 40.784292 
L 112.536567 40.584075 
L 112.25262 40.035184 
L 112.086984 39.832192 
L 112.013708 40.025786 
L 111.957224 40.260745 
L 111.816777 40.413007 
L 111.629769 40.446844 
L 111.441997 40.333116 
L 111.264149 40.146083 
L 111.15576 40.079355 
L 110.352007 39.822794 
L 110.241329 39.769229 
L 110.091723 39.623574 
L 109.980281 39.408391 
L 109.891739 39.148122 
L 109.761215 38.928271 
L 109.520776 38.836202 
L 108.19569 38.796744 
L 106.931668 38.376829 
L 106.450027 38.385283 
L 106.238593 38.757286 
L 106.111123 39.160336 
L 105.792827 39.104902 
L 105.377593 38.855931 
L 104.957016 38.678373 
L 104.957016 38.520552 
L 105.341718 38.348648 
L 105.341718 38.204932 
L 105.050901 38.12791 
L 104.989837 37.869618 
L 105.008157 37.542789 
L 104.957016 37.260126 
L 104.63872 37.528702 
L 104.307449 37.645154 
L 103.942592 37.64985 
L 103.525831 37.57378 
L 103.143419 37.414132 
L 102.925879 37.356848 
L 102.756427 37.402863 
L 102.706049 37.566267 
L 102.825124 37.723104 
L 103.010605 37.836746 
L 103.164028 37.875253 
L 102.933512 38.162664 
L 102.585448 37.971054 
L 102.266389 37.556875 
L 102.127469 37.181247 
L 102.085488 36.685482 
L 101.95649 36.251746 
L 101.732844 35.943847 
L 101.412259 35.827453 
L 101.026793 35.751424 
L 100.257389 35.416352 
L 99.463558 35.219267 
L 98.91093 34.688132 
L 97.930856 34.329711 
L 97.352276 33.761193 
L 95.30511 31.24905 
L 95.268471 31.147817 
L 95.268471 31.028777 
L 95.254732 30.900369 
L 95.176876 30.776652 
L 95.094439 30.760719 
L 94.86774 30.800083 
L 94.792173 30.776652 
L 94.588373 30.567656 
L 94.532652 30.42146 
L 94.535705 30.147828 
L 94.801333 30.2078 
L 95.128025 30.190933 
L 95.450136 30.074739 
L 95.701261 29.832993 
L 95.412735 29.917321 
L 95.30511 29.975415 
L 95.38144 29.774901 
L 95.485248 29.580021 
L 95.563105 29.390774 
L 95.560051 29.20341 
L 95.410445 29.132215 
L 95.184509 29.201537 
L 95.015056 29.191232 
L 95.037192 28.890537 
L 94.666992 28.888664 
L 94.43037 28.721935 
L 94.407471 28.438141 
L 94.676152 28.089754 
L 94.228859 27.774177 
L 94.051774 27.577542 
L 93.906747 27.304145 
L 93.778513 27.539153 
L 93.547997 27.622486 
L 93.269393 27.58316 
L 92.999186 27.448331 
L 92.897667 27.938985 
L 93.074752 28.251768 
L 93.640356 28.719125 
L 93.915144 29.149077 
L 94.161689 29.673712 
L 94.27771 30.234039 
L 94.163216 30.776652 
L 93.357173 30.42802 
L 91.02606 30.503928 
L 88.717083 30.318377 
L 86.012717 30.663249 
L 84.383839 30.475814 
L 84.017456 30.331496 
L 83.312931 29.919195 
L 82.576349 29.748667 
L 82.290875 29.51725 
L 82.101577 29.164065 
L 81.619173 27.999854 
L 81.553529 27.77605 
L 81.541316 27.410879 
L 81.682526 26.433544 
L 81.596274 26.368024 
L 81.10013 25.492056 
L 80.849005 25.306785 
L 80.597116 25.24503 
L 80.386446 25.325498 
L 80.262029 25.562237 
L 80.266608 25.848592 
L 80.529183 26.834179 
L 80.542159 29.624055 
L 80.395606 30.337119 
L 80.00556 30.305257 
L 80.272715 29.80301 
L 80.194095 29.077883 
L 79.924651 28.410981 
L 79.749855 28.247086 
L 79.22547 28.465302 
L 79.108685 28.561771 
L 79.049911 28.757528 
L 79.072047 29.186548 
L 78.9919 29.362668 
L 78.770544 29.478838 
L 78.620937 29.393584 
L 78.49423 29.253061 
L 78.340044 29.20341 
L 78.204177 29.313953 
L 78.181278 29.47228 
L 78.127847 29.613749 
L 77.897331 29.675586 
L 77.217995 29.327069 
L 76.805051 27.794778 
L 76.092894 27.448331 
L 75.190675 27.448331 
L 74.976952 27.377173 
L 74.615912 27.075707 
L 74.415164 27.005493 
L 74.270138 27.075707 
L 73.99535 27.377173 
L 73.77552 27.448331 
L 73.726669 27.474547 
L 73.690794 27.533535 
L 73.633547 27.592523 
L 73.520579 27.618741 
L 73.461805 27.578478 
L 73.416007 27.377173 
L 73.333571 27.304145 
L 72.554243 27.005493 
L 72.458831 26.93809 
L 72.238238 26.828562 
L 72.014591 26.822946 
L 71.913836 27.075707 
L 71.730644 27.169327 
L 71.3177 27.193669 
L 70.879567 27.140304 
L 70.621572 27.005493 
L 70.504024 27.005493 
L 70.455173 27.287292 
L 70.333809 27.36032 
L 69.980402 27.304145 
L 70.036886 27.395899 
L 70.068181 27.457694 
L 70.119322 27.618741 
L 69.912468 27.617804 
L 69.036965 27.493273 
L 68.769811 27.376237 
L 68.296566 26.77614 
L 68.12635 26.456008 
L 68.058417 26.119061 
L 67.733252 25.731614 
L 65.075447 24.515289 
L 64.803713 24.338492 
L 64.519766 24.07191 
L 64.351841 23.963413 
L 63.977824 23.917584 
L 63.821348 23.850243 
L 63.728989 23.721178 
L 63.513739 23.299415 
L 63.49542 23.207775 
L 63.239715 23.21058 
L 62.895468 23.162891 
L 62.577935 22.985231 
L 62.40085 22.594414 
L 62.505639 22.234695 
L 62.730595 22.01295 
L 63.015305 21.87648 
L 63.249376 21.791472 
L 65.408661 21.875893 
L 66.113046 21.66983 
L 66.612167 21.759598 
L 67.183133 21.707945 
L 67.529422 21.637064 
L 68.029976 21.77313 
L 68.4568 21.816067 
L 69.422817 21.642424 
L 70.16512 21.28206 
L 70.37579 21.325983 
L 70.569668 21.208232 
L 70.940631 21.209167 
L 71.144431 21.154965 
L 71.413875 21.061844 
L 71.661477 20.77815 
L 71.836935 20.58899 
L 72.013016 20.505382 
L 71.989734 20.024235 
L 72.064969 19.805825 
L 72.017783 19.449001 
L 72.180227 18.803677 
L 72.168857 18.556297 
L 71.898313 18.452605 
L 71.617795 18.442866 
L 71.103977 17.940004 
L 70.750809 17.61636 
L 70.102931 17.058141 
L 69.44588 16.781526 
L 67.774681 16.101947 
L 67.11956 16.129376 
L 65.616626 16.286132 
L 63.623495 16.670878 
L 63.019885 16.373844 
L 61.746455 15.963377 
L 60.321044 15.966972 
L 59.526269 16.073393 
L 59.117141 16.126576 
L 58.726333 16.077125 
L 58.131094 15.902686 
L 56.89728 16.08694 
L 55.909762 15.81402 
L 55.689932 15.862534 
L 55.326602 16.077125 
L 55.141884 16.126576 
L 54.269888 15.912132 
L 53.603437 16.091524 
L 51.624606 15.491232 
L 51.222348 15.50056 
L 50.832303 15.726323 
L 50.640715 16.098585 
L 50.576598 16.543677 
L 50.571255 16.994431 
L 50.45676 17.408843 
L 50.180446 17.622604 
L 49.546145 17.863452 
L 48.419517 18.95029 
L 48.195107 19.117457 
L 47.769187 19.156682 
L 47.479897 19.260349 
L 46.230378 20.001995 
L 45.616686 20.468179 
L 45.102986 21.080206 
L 44.032079 23.412565 
L 43.587839 23.911972 
L 42.978727 23.993343 
L 42.361219 23.791322 
L 42.106277 23.765135 
L 41.83836 23.850243 
L 41.829963 23.907296 
L 41.83836 24.22905 
L 41.807064 24.316042 
L 41.733788 24.309494 
L 41.648298 24.279561 
L 41.513195 24.337556 
L 41.428469 24.307623 
L 41.356719 24.299205 
L 41.326187 24.391811 
L 41.335346 24.714548 
L 41.326187 24.777229 
L 40.647614 25.275907 
L 40.418625 25.562237 
L 40.31787 25.755945 
L 40.30184 25.866373 
L 40.312527 25.946856 
L 40.290391 26.047932 
L 40.166737 26.381128 
L 40.075141 26.528082 
L 39.905689 26.676915 
L 39.845388 26.605774 
L 39.816383 26.532762 
L 39.805697 26.802351 
L 39.672883 26.960558 
L 39.568048 26.726574 
L 39.412483 26.652544 
L 39.247741 26.677496 
L 39.233323 27.055928 
L 38.924155 27.441053 
L 37.989047 27.533535 
L 37.020421 27.392154 
L 36.19148 27.005493 
L 36.347192 26.811712 
L 36.297578 26.577692 
L 36.159421 26.319353 
L 36.051796 26.047932 
L 35.923562 26.047932 
L 35.657934 26.662873 
L 35.193085 27.218947 
L 34.644274 27.620613 
L 34.130574 27.77605 
L 34.169503 27.695522 
L 34.210721 27.536344 
L 34.247359 27.448331 
L 32.171188 27.794778 
L 32.069669 27.77605 
L 31.996393 27.686158 
L 31.945252 27.52698 
L 31.922353 27.373428 
L 31.941435 27.304145 
L 31.726948 27.379046 
L 31.504065 27.702076 
L 31.231568 27.77605 
L 29.774431 27.68054 
L 29.357671 27.77605 
L 28.588266 28.640447 
L 28.565367 28.815602 
L 28.421867 29.449795 
L 28.332561 29.675586 
L 28.431027 29.826434 
L 28.460032 29.96417 
L 28.472245 30.305257 
L 28.259284 30.100976 
L 28.053194 30.153451 
L 27.925723 30.399906 
L 27.947859 30.776652 
L 28.089832 31.081266 
L 28.273787 31.193746 
L 28.490564 31.131882 
L 28.728713 30.920052 
L 28.621851 31.418718 
L 27.973048 31.968087 
L 27.819625 32.435965 
L 27.887558 32.545677 
L 28.014266 32.6779 
L 28.089832 32.846702 
L 28.006633 33.066157 
L 27.829548 33.263116 
L 27.627274 33.443203 
L 27.407444 33.572647 
L 27.178454 33.6233 
L 26.82581 33.524809 
L 26.116706 33.09148 
L 25.699946 32.993004 
L 25.292344 33.100858 
L 24.568738 33.60923 
L 24.2222 33.780893 
L 24.032139 33.797778 
L 23.642857 33.764946 
L 23.454322 33.780893 
L 23.246705 33.879392 
L 22.820785 34.187103 
L 22.234572 34.387881 
L 20.01948 36.514609 
L 19.214201 37.018801 
L 18.42266 37.102371 
L 18.179168 36.646988 
L 18.930254 34.833576 
L 19.076044 33.924421 
L 18.65165 33.251861 
L 17.903618 33.10461 
L 17.068569 33.249047 
L 15.578611 33.752751 
L 14.851951 34.149576 
L 12.957445 35.596554 
L 12.203307 35.80868 
L 11.387341 35.793662 
L 10.599617 35.512083 
L 10.342385 35.273699 
L 10.189726 34.945243 
L 10.145455 34.566152 
L 10.212625 34.179598 
L 10.274452 34.029492 
L 10.371391 33.843744 
L 10.490465 33.690839 
L 10.615646 33.633619 
L 10.704952 33.690839 
L 10.765253 33.809035 
L 10.81563 33.94506 
L 10.873641 34.053883 
L 11.009508 34.177721 
L 11.162931 34.248086 
L 11.327803 34.271541 
L 11.496492 34.253715 
L 11.817078 34.098915 
L 12.037671 33.837178 
L 12.047594 33.544507 
L 11.739985 33.294068 
L 12.059806 33.094293 
L 12.344517 33.095231 
L 12.522365 33.318455 
L 12.520839 33.780893 
L 14.057358 32.836386 
L 15.419845 32.374078 
L 17.016665 31.55277 
L 18.037958 30.704486 
L 18.179168 30.619201 
L 18.428767 30.596708 
L 18.65623 30.635133 
L 18.773778 30.7401 
L 18.691341 30.920052 
L 19.280608 31.218117 
L 19.717977 31.077517 
L 20.143135 30.781338 
L 20.693473 30.619201 
L 20.96597 30.713858 
L 21.284265 30.940672 
L 21.549893 31.226554 
L 21.659808 31.485275 
L 21.750641 31.620268 
L 22.259761 31.198433 
L 22.545997 31.24905 
L 22.813152 29.975415 
L 22.588742 30.265899 
L 22.390284 30.666998 
L 22.178088 30.880686 
L 21.916276 30.619201 
L 21.805598 30.179688 
L 21.82926 29.840488 
L 21.765143 29.576274 
L 21.393417 29.362668 
L 21.567449 28.870867 
L 21.659808 28.719125 
L 21.311744 28.674166 
L 20.932385 28.517751 
L 20.590427 28.306087 
L 20.355331 28.089754 
L 20.203435 27.764813 
L 20.079781 27.381855 
L 19.906512 27.081324 
L 19.598903 27.005493 
L 19.785911 26.806096 
L 19.996581 26.450392 
L 20.16756 26.031086 
L 20.240073 25.649264 
L 20.274422 25.114039 
L 20.355331 24.620062 
L 20.624012 23.608017 
L 20.670574 23.55284 
L 20.944598 22.966531 
L 21.040773 22.90669 
L 21.243047 22.88425 
L 21.334643 22.816931 
L 21.41021 22.669208 
L 21.485013 22.379391 
L 21.532337 22.268146 
L 21.932306 21.600753 
L 22.209383 21.244678 
L 22.545997 21.01199 
L 22.545997 20.840988 
L 22.161295 20.840988 
L 22.484933 20.541056 
L 23.287923 20.373816 
L 23.63904 20.143058 
L 23.862687 19.79555 
L 24.098546 19.280896 
L 24.185562 18.784066 
L 23.965732 18.49086 
L 23.965732 18.319058 
L 24.162663 18.388151 
L 24.350434 18.49086 
L 24.617589 18.259303 
L 24.871004 18.214487 
L 25.089307 18.343334 
L 25.246546 18.632791 
L 25.412945 17.773832 
L 25.513701 17.55166 
L 25.698419 17.465782 
L 26.183877 17.417244 
L 26.283105 17.308969 
L 26.296845 17.078429 
L 26.356382 16.687389 
L 26.490722 16.412103 
L 26.730398 16.525014 
L 26.981523 16.70792 
L 27.178454 16.590336 
L 27.359356 16.339319 
L 27.563156 16.126576 
L 27.421183 15.8644 
L 27.228069 15.703932 
L 26.977707 15.640494 
L 26.667808 15.672213 
L 26.752534 15.49403 
L 26.889164 15.332648 
L 27.058616 15.218846 
L 27.237991 15.174073 
L 27.540258 15.299067 
L 27.70055 15.578922 
L 27.824204 15.857869 
L 28.006633 15.983823 
L 28.258521 15.933441 
L 28.482931 15.808422 
L 29.624062 14.873734 
L 29.88053 15.174073 
L 30.059142 14.687202 
L 30.345378 14.472703 
L 31.162108 14.405559 
L 31.473533 14.336551 
L 32.76656 13.594343 
L 33.415364 13.329577 
L 33.722973 13.296016 
L 33.93288 13.337034 
L 34.169503 13.461957 
L 34.374066 13.467551 
L 34.503827 13.41814 
L 34.762585 13.227964 
L 34.899216 13.154321 
L 34.899216 12.982803 
L 34.764875 13.054578 
L 34.630535 13.154321 
L 34.606109 13.070425 
L 34.611452 13.018225 
L 34.595423 12.993057 
L 34.502301 12.982803 
L 34.902269 12.69665 
L 35.31445 12.557777 
L 36.250253 12.514905 
L 36.329636 12.377904 
L 36.563206 11.653854 
L 36.68228 11.581179 
L 37.460081 11.575589 
L 37.411993 11.733986 
L 37.382988 11.79921 
L 37.331847 11.888663 
L 37.69823 11.965073 
L 37.91806 11.728395 
L 38.069193 11.376206 
L 38.229486 11.106034 
L 38.509616 10.975615 
L 38.724866 11.072497 
L 38.950803 11.265339 
L 39.265281 11.419063 
L 39.132468 11.655718 
L 39.337031 11.583974 
L 39.636244 11.372479 
L 39.788904 11.192673 
L 39.901872 10.815392 
L 40.181239 10.319872 
L 40.533883 9.88589 
L 40.872024 9.700581 
L 41.124676 9.605602 
L 42.094828 8.904527 
L 42.47495 8.72393 
L 42.823014 8.705312 
L 43.126044 8.826329 
L 43.374879 9.074893 
L 43.374879 9.217338 
L 43.203137 9.365376 
L 43.130624 9.639124 
L 43.166499 9.960389 
L 43.310762 10.247227 
L 43.539751 10.365509 
L 43.732103 10.225807 
L 43.893922 9.995777 
L 44.027499 9.841191 
L 43.684778 9.522731 
L 43.706914 9.224786 
L 43.982464 8.963177 
L 44.399225 8.763027 
L 45.180843 8.591747 
L 45.327396 8.507971 
L 45.570888 8.318089 
L 45.680803 8.280859 
L 45.875444 8.319951 
L 46.134202 8.521934 
L 46.331896 8.591747 
L 46.429598 8.530311 
L 46.541803 8.399998 
L 46.67996 8.326466 
L 46.857045 8.43723 
L 46.974593 8.672731 
L 46.852466 8.744409 
L 46.664694 8.778852 
L 46.588364 8.904527 
L 46.665458 9.141925 
L 46.779952 9.220131 
L 46.926506 9.140994 
L 47.100538 8.904527 
L 47.061609 9.356996 
L 47.389064 9.386791 
L 47.760791 9.107478 
L 47.797429 9.079548 
L 47.998176 8.513556 
L 48.263804 8.02398 
L 48.872153 8.00909 
L 49.543855 8.13101 
L 49.994964 8.046317 
L 50.407909 7.878798 
L 52.107011 7.96814 
L 53.846567 7.711287 
L 54.29615 7.500051 
L 54.680852 7.530758 
L 55.495291 7.003189 
L 55.909762 6.860845 
L 56.013571 6.788279 
L 56.199816 6.464546 
L 56.292938 6.39199 
L 56.524981 6.361293 
L 56.703592 6.284089 
L 56.997462 6.079459 
L 57.553907 5.591192 
L 57.84396 5.394976 
L 58.590466 5.267582 
L 59.454519 4.846382 
L 60.766629 4.602799 
L 61.362001 4.325771 
L 62.657318 4.676244 
L 63.067973 4.626971 
L 63.599228 4.476367 
L 63.821348 4.413153 
L 64.257192 4.363884 
L 64.44649 4.313686 
L 64.651053 4.223518 
L 64.854091 4.182618 
L 65.037282 4.286728 
L 65.74257 4.846382 
L 66.299778 5.024897 
L 67.501209 5.15693 
L 68.058417 5.313146 
L 68.476704 5.15879 
L 71.406243 5.178316 
L 71.890937 5.181106 
L 72.186333 5.134614 
L 72.436695 4.988635 
L 72.650419 5.116947 
L 72.859562 5.134614 
L 73.081682 5.123456 
L 73.333571 5.15879 
L 73.462568 5.245265 
L 73.790786 5.546554 
L 74.189228 5.80788 
L 74.254108 6.266416 
L 74.193808 6.792 
L 74.102212 7.18741 
L 73.989244 7.366989 
L 73.873222 7.454455 
L 73.870169 7.523314 
L 74.102212 7.655453 
L 74.315935 7.687092 
L 74.525079 7.627536 
L 74.805973 7.500051 
L 74.87925 7.382807 
L 74.996034 6.825492 
L 75.062441 6.633851 
L 75.218154 6.471988 
L 75.357074 6.419896 
L 75.52729 6.414315 
L 77.105027 6.105502 
L 77.315697 6.001331 
L 77.517208 5.753939 
L 77.982057 5.605141 
L 78.865193 5.45635 
L 79.14456 5.346621 
L 79.841451 4.960742 
L 80.29943 4.565613 
L 81.129135 4.015305 
L 81.437508 3.911203 
L 81.785572 4.065498 
L 81.519944 4.324841 
L 81.000901 4.567472 
L 80.148297 4.81849 
L 79.129294 5.519585 
L 78.865193 5.781839 
L 78.865193 5.925065 
L 79.697188 6.16596 
L 80.767332 7.575424 
L 81.437508 7.96814 
L 81.809997 7.977447 
L 81.971053 7.875075 
L 82.103104 7.640563 
L 82.387051 7.257193 
L 82.47712 7.069247 
L 82.675577 6.509197 
L 82.770226 6.39199 
L 82.983187 6.365944 
L 83.367889 6.254324 
L 83.486963 6.235721 
L 84.266291 6.39199 
L 84.396052 6.386409 
L 84.469328 6.34548 
L 84.503677 6.428268 
L 84.512073 6.79014 
L 84.65252 7.292551 
L 84.997531 7.416305 
L 85.421924 7.326978 
L 85.804337 7.18741 
L 88.749905 6.548267 
L 89.210937 6.534313 
L 90.085677 6.739903 
L 90.554342 6.718506 
L 90.946677 6.529662 
L 91.297794 6.183632 
L 91.400839 5.753939 
L 91.055065 5.313146 
L 91.299321 5.182965 
L 91.554262 5.149491 
L 91.790121 5.197843 
L 91.974076 5.313146 
L 91.974076 5.45635 
L 91.813784 5.62374 
L 91.32222 6.718506 
L 91.845079 7.162288 
L 91.868741 7.210671 
L 92.549603 8.597332 
L 92.935069 8.904527 
L 93.232755 8.928731 
L 93.993 9.094444 
L 94.280764 9.217338 
L 94.457849 9.405412 
L 94.651726 9.672646 
L 94.899798 9.911964 
L 95.240993 10.013471 
L 96.298924 10.010677 
L 96.532493 10.091698 
L 96.814914 10.372028 
L 97.116416 10.567623 
L 97.428605 10.696162 
L 97.749191 10.779995 
L 98.366699 10.802351 
L 98.948332 10.664493 
L 100.066564 10.168996 
L 99.926117 9.623294 
L 100.242123 9.611189 
L 101.238227 10.172721 
L 101.680176 10.327323 
L 102.055719 10.248158 
L 102.127469 9.700581 
L 102.328217 9.822567 
L 102.533544 9.986464 
L 102.69231 10.183897 
L 102.756427 10.403695 
L 103.180821 11.269998 
L 103.222039 11.419063 
L 103.931906 11.888663 
L 104.034188 11.9073 
L 104.368513 11.888663 
L 104.498273 11.940845 
L 104.551704 12.052667 
L 104.56239 12.164493 
L 104.560864 12.215748 
L 104.950146 12.081555 
L 105.561548 11.428379 
L 106.713365 11.061318 
L 106.878237 11.106034 
L 106.878237 11.281177 
L 106.701915 11.463784 
L 106.353851 11.732122 
L 105.923351 11.497325 
L 105.714971 11.68367 
L 105.469952 12.514905 
L 105.673753 12.870949 
L 105.791301 13.021953 
L 105.969912 13.154321 
L 106.169896 13.215846 
L 106.942354 13.296016 
L 107.273626 13.422802 
L 108.375828 14.312305 
L 108.435366 14.42048 
L 108.506352 14.519332 
L 108.618557 14.562231 
L 108.722366 14.510006 
L 108.835334 14.397166 
L 108.918533 14.285262 
L 108.939142 14.234907 
L 109.366589 14.173362 
L 109.527645 14.289925 
L 109.990967 16.611799 
L 110.001654 16.624864 
L 110.282547 16.730317 
L 110.51001 16.862838 
L 110.713047 17.047629 
L 110.924481 17.308969 
L 111.138968 17.674879 
L 111.396199 18.383483 
L 111.570231 18.7187 
L 112.045766 19.327595 
L 112.151865 19.431268 
L 112.431232 19.491979 
L 112.973937 19.505055 
L 113.189187 19.572306 
L 113.68991 20.450428 
L 113.786086 20.713911 
L 113.935693 20.857807 
L 115.341688 22.22047 
L 115.891263 22.515882 
L 116.39046 22.424264 
L 116.580521 22.64116 
L 116.933165 22.930065 
L 117.274359 23.064709 
L 117.427782 22.816931 
L 117.629293 22.788882 
L 118.611657 23.031048 
L 118.964301 23.036658 
L 119.168102 22.87116 
L 119.208557 22.725305 
L 119.255881 22.622462 
L 119.488687 22.594414 
L 119.678748 22.64677 
L 119.970328 22.85059 
L 120.187105 22.89547 
L 120.590126 22.829086 
L 121.293887 22.523361 
L 121.654164 22.424264 
L 122.081611 22.416785 
L 123.118933 22.551408 
L 124.966878 22.790752 
L 125.845435 22.738394 
L 125.94161 22.969336 
L 126.299597 24.307623 
L 126.367531 24.249629 
L 126.543852 24.150479 
L 126.731624 24.447937 
L 126.905656 24.264595 
L 127.195709 23.536007 
L 126.956033 23.1498 
L 126.827799 23.002062 
L 126.672087 22.89547 
L 126.672087 22.738394 
L 127.229294 22.823476 
L 127.828483 23.510757 
L 129.877939 24.337556 
L 130.141277 24.548966 
L 130.30157 24.842717 
L 130.674822 25.205732 
L 131.105323 25.536972 
L 131.433541 25.733485 
L 131.881597 25.887897 
L 133.010515 26.10783 
L 133.355526 26.047932 
L 133.347129 26.202358 
L 133.365449 26.522466 
L 133.355526 26.676915 
L 133.54864 26.568332 
L 133.62268 26.505617 
L 133.749388 26.734952 
L 133.924946 27.174944 
L 134.060813 27.376237 
L 134.230265 27.522299 
L 134.566117 27.72174 
L 134.711907 27.862199 
L 134.857697 27.953968 
L 135.042415 27.957714 
L 135.238582 27.935239 
L 135.416431 27.94835 
L 136.057601 28.247086 
L 136.349181 28.339803 
L 137.278879 28.418473 
L 137.442224 28.516815 
L 137.478863 28.744415 
L 137.494129 29.005754 
L 137.593357 29.20341 
L 137.748307 29.248377 
L 138.229185 29.241819 
L 138.167358 29.276481 
L 138.10553 29.362668 
L 138.302461 29.573463 
L 138.535267 29.675586 
L 138.777996 29.739297 
L 138.977217 29.818938 
L 139.014619 29.832993 
L 139.291696 29.722432 
L 139.469544 29.941682 
L 139.71838 30.547038 
L 140.075603 30.935048 
L 140.177885 31.091577 
L 140.301539 31.51246 
L 140.638917 32.194048 
L 140.789287 32.416273 
L 141.011407 32.506293 
L 141.237343 32.688215 
L 142.099107 33.702096 
L 142.163224 33.892525 
L 142.481519 34.562399 
L 142.612043 34.725665 
L 142.837216 34.687194 
L 142.944078 34.456374 
L 143.033384 32.734166 
L 143.136429 32.506293 
L 143.34252 32.405021 
L 143.846296 32.498791 
L 144.148562 32.506293 
L 143.982163 32.745419 
L 143.382211 32.869209 
L 143.25245 33.066157 
L 143.278402 33.476971 
L 143.353206 33.786521 
L 143.473044 34.031368 
L 143.635626 34.253715 
L 143.850876 34.48546 
L 144.014222 34.573658 
L 144.475254 34.568029 
L 144.677528 34.721912 
L 144.819502 35.078499 
L 144.901174 35.47548 
L 144.928653 35.748608 
L 144.99735 36.030206 
L 145.172145 36.230155 
L 145.419454 36.368155 
L 145.95071 36.563429 
L 146.056045 36.585023 
L 146.331595 36.431993 
L 146.491125 36.528692 
L 146.642258 36.689237 
L 146.80255 36.77186 
L 147.942918 36.573756 
L 148.270373 36.616005 
L 148.584852 36.785004 
L 149.422953 37.402863 
L 149.433639 37.083591 
L 149.580193 36.923027 
L 150.06336 36.77186 
L 150.093129 37.00096 
L 150.203044 37.117395 
L 150.374786 37.143687 
L 150.587746 37.102371 
L 150.548818 37.015984 
L 150.50073 36.850729 
L 150.459512 36.77186 
L 150.723613 36.871385 
L 150.974738 37.108005 
L 151.354861 37.57378 
L 151.085417 37.615102 
L 150.899172 37.485503 
L 150.781624 37.475173 
L 150.71598 37.875253 
L 150.759488 38.297924 
L 151.034276 39.018465 
L 151.099156 39.386779 
L 151.199148 39.623574 
L 151.439587 39.713785 
L 152.007481 39.796482 
L 152.454774 40.070897 
L 152.578428 40.11037 
L 152.758566 40.062439 
L 152.852452 39.954362 
L 152.903593 39.845348 
L 152.957787 39.796482 
L 152.950917 39.670559 
L 152.838713 39.394296 
L 152.660101 39.118056 
L 152.172353 38.864386 
L 151.970843 38.556249 
L 151.739563 37.875253 
L 151.634228 37.339006 
L 151.547975 37.181247 
L 151.418978 37.092042 
L 151.048778 36.917393 
L 150.972448 36.850729 
L 150.94726 36.608494 
L 150.851847 36.293052 
L 150.65797 36.123138 
L 150.331278 36.314644 
L 150.06336 35.985149 
L 149.809182 36.255501 
L 149.543554 36.063999 
L 149.038251 35.341271 
L 148.332963 34.646846 
L 148.134506 34.290305 
L 148.006272 34.250901 
L 147.74675 34.395387 
L 147.90628 34.001347 
L 148.204729 33.586717 
L 148.54745 33.32033 
L 148.840557 33.372856 
L 149.493177 34.003224 
L 149.5634 34.191794 
L 149.683238 34.774459 
L 149.749645 34.896447 
L 151.741853 36.556857 
L 152.124265 36.77186 
L 153.079152 37.113638 
L 153.347069 37.331494 
L 153.61346 37.644215 
L 154.248524 38.240626 
L 154.500413 38.348648 
L 155.604905 39.307851 
L 155.881983 39.470407 
L 156.143031 39.565313 
L 156.422398 39.567192 
L 156.758249 39.465709 
L 156.612459 39.901734 
L 156.713978 40.180857 
L 156.903276 40.38293 
L 157.014717 40.584075 
L 156.949074 41.042805 
L 156.497964 41.602201 
L 156.37431 42.003706 
L 156.209438 41.878642 
L 155.885036 41.462108 
L 155.792677 41.373731 
L 154.585902 40.728832 
L 154.280583 40.625434 
L 153.928702 40.584075 
L 153.938625 40.625434 
L 153.892064 40.710032 
L 153.830237 40.789932 
L 153.800468 40.813433 
L 153.760014 40.897096 
L 153.665365 40.862314 
L 153.55545 40.784292 
L 153.388287 40.696872 
L 153.184487 40.484441 
L 153.021141 40.413007 
L 152.589114 40.454364 
L 152.437981 40.682772 
L 152.499808 40.936578 
L 152.712768 41.057847 
L 152.930308 41.117073 
L 153.086021 41.252451 
L 153.230285 41.410398 
L 153.404317 41.529803 
L 153.590561 41.579635 
L 154.116474 41.529803 
L 154.485147 41.706569 
L 154.581322 42.090219 
L 154.445455 42.473912 
L 154.116474 42.648845 
L 154.063806 42.838836 
L 154.182881 43.254595 
L 154.346227 43.656293 
L 154.430189 43.811529 
L 154.642386 43.859512 
L 155.0622 43.77954 
L 155.359887 43.819055 
L 155.21028 44.227406 
L 155.394998 44.170008 
L 155.862137 43.898087 
L 155.879693 43.870802 
L 156.057541 43.752256 
L 156.234626 43.724972 
L 156.399499 43.375006 
L 156.630778 42.146642 
L 157.104786 41.111432 
L 157.258973 40.885815 
L 157.61467 40.811553 
L 157.958917 41.052206 
L 159.971734 43.898087 
L 160.269421 44.212351 
L 160.306059 44.242461 
L 160.585426 44.46924 
L 161.264762 44.84661 
L 162.301321 45.101664 
L 162.545576 45.319086 
L 162.417342 45.635362 
L 162.802044 45.635362 
L 162.692129 46.112653 
L 162.543286 46.349911 
L 162.31506 46.429942 
L 161.650227 46.478903 
L 161.38231 46.604134 
L 161.194538 46.825418 
L 161.124315 47.151248 
L 161.385363 47.721995 
L 162.344065 47.140889 
L 162.289108 47.717285 
L 162.470009 47.565642 
L 162.553209 47.327359 
L 162.599007 47.045773 
L 162.67381 46.768918 
L 162.545576 46.768918 
L 162.808151 46.316958 
L 162.886007 46.084409 
L 162.918066 45.807631 
L 164.070646 46.266116 
L 164.178271 46.259525 
L 164.324824 46.157844 
L 164.408024 46.196445 
L 164.723266 46.439358 
L 165.230859 46.581536 
L 165.433133 46.597543 
L 165.722423 46.745377 
L 165.977365 47.070258 
L 166.088043 47.397995 
L 165.950649 47.544921 
L 165.646093 47.624038 
L 164.595032 48.177907 
L 164.667545 47.831258 
L 164.49504 47.626864 
L 164.308795 47.616503 
L 164.338564 47.8614 
L 164.247731 48.226892 
L 164.498093 48.377622 
L 164.876689 48.451105 
L 165.175902 48.587713 
L 165.458322 48.841157 
L 165.774327 49.006047 
L 166.129261 49.096504 
L 166.527703 49.125715 
L 166.527703 48.982491 
L 166.119338 48.81666 
L 165.996447 48.711135 
L 165.886532 48.508574 
L 165.760588 48.176022 
L 165.769748 48.028127 
L 166.131551 47.8614 
L 166.459769 47.850096 
L 166.907062 48.012114 
L 167.322296 48.29943 
L 167.563498 48.665911 
L 167.681046 48.665911 
L 167.681046 48.177907 
L 167.807754 48.177907 
L 167.74211 49.104985 
L 167.52686 49.408412 
L 166.527703 49.458357 
L 166.527703 49.615737 
L 166.911642 49.615737 
L 166.729977 49.740138 
L 166.655937 49.774066 
L 166.80707 50.071896 
L 166.991025 50.060585 
L 167.200169 49.944655 
L 167.424578 49.930518 
L 167.584871 50.086976 
L 167.773405 50.490408 
L 167.947437 50.563935 
L 168.04285 50.515859 
L 168.171847 50.402742 
L 168.284052 50.271719 
L 168.33214 50.160495 
L 168.377174 50.086034 
L 168.48251 50.081321 
L 168.604637 50.098287 
L 168.705393 50.088861 
L 169.257257 49.713749 
L 169.473271 49.615737 
L 169.183217 49.497937 
L 168.570289 49.401815 
L 168.33214 49.299099 
L 168.10544 48.989087 
L 168.04285 48.618803 
L 168.171084 48.307909 
L 168.513041 48.177907 
L 170.759428 48.255154 
L 171.219697 48.422842 
L 171.486851 48.678159 
L 172.092147 48.952339 
L 172.147868 49.006047 
L 172.584474 49.427259 
L 172.854682 49.627988 
L 174.84689 50.50549 
L 175.444553 50.967422 
L 175.526989 51.51239 
L 175.591106 51.70098 
L 175.577366 52.197021 
L 175.655223 52.476192 
L 175.839178 52.722372 
L 175.968938 52.705393 
L 176.15671 52.476192 
L 176.457449 52.280958 
L 176.666593 52.224371 
L 176.936801 52.303594 
L 177.127625 52.436578 
L 177.260439 52.602581 
L 177.331426 52.818584 
L 177.332189 53.110068 
L 177.449737 53.110068 
L 177.487139 52.998754 
L 177.546676 52.883671 
L 177.587894 52.778967 
L 177.716128 53.135539 
L 177.876421 53.213839 
L 177.988625 53.033658 
L 177.972596 52.620502 
L 178.130599 52.651629 
L 178.632086 52.664834 
L 178.867945 52.620502 
L 178.985493 52.529954 
L 179.277836 52.225314 
L 179.438892 52.161183 
L 179.672461 52.173443 
L 179.907557 52.229087 
L 180.088459 52.346035 
L 180.244172 52.750669 
L 180.402174 52.78557 
L 180.50064 52.685585 
L 180.405228 52.476192 
L 181.37309 51.670805 
L 181.476135 51.699094 
L 181.757792 51.846202 
L 181.815039 51.908441 
L 181.893659 52.083849 
L 182.076087 52.09328 
L 182.403542 51.986714 
L 183.051583 51.985771 
L 183.582075 52.085736 
L 183.951511 52.453556 
L 184.119437 53.253461 
L 184.859836 53.073278 
L 185.28652 53.393086 
L 185.93685 54.533875 
L 185.552911 55.485286 
L 185.442233 55.646711 
L 185.232326 55.847795 
L 185.155996 55.975249 
L 185.121647 56.124422 
L 185.079666 56.470945 
L 185.039211 56.607863 
L 184.878918 56.873217 
L 184.618634 57.178257 
L 184.311025 57.394539 
L 184.003415 57.386039 
L 183.910293 57.163146 
L 183.84007 56.811834 
L 183.724812 56.587089 
L 183.491242 56.753286 
L 183.337819 56.640913 
L 183.214165 56.621083 
L 183.10425 56.666409 
L 182.991282 56.753286 
L 183.143942 56.779727 
L 183.255383 56.828833 
L 183.32866 56.924213 
L 183.363008 57.08287 
L 182.831753 57.128202 
L 182.843202 57.41154 
L 183.085931 57.809195 
L 183.24775 58.20784 
L 183.363008 58.20784 
L 183.572915 57.841312 
L 184.067532 57.669397 
L 184.62932 57.639171 
L 185.039211 57.703402 
L 185.817012 58.166273 
L 185.93685 58.279639 
L 185.957459 58.601805 
L 186.033789 58.84652 
L 186.191028 58.987309 
L 186.449786 58.986364 
L 186.300943 59.540126 
L 186.036842 59.540126 
L 185.737629 59.307649 
L 185.482687 59.158342 
L 185.34224 59.101645 
L 185.281177 58.963686 
L 185.238432 58.797386 
L 185.155996 58.65377 
L 185.018602 58.523386 
L 184.959065 58.485595 
L 183.931665 58.670777 
L 183.568335 58.820063 
L 182.339425 58.65377 
L 182.437891 58.919276 
L 182.412702 59.21693 
L 182.222641 59.778289 
L 182.237143 59.92006 
L 182.220351 60.213072 
L 182.168447 60.487201 
L 182.082957 60.731099 
L 182.256989 60.935305 
L 182.474529 61.437361 
L 183.197372 61.913954 
L 183.491242 62.028384 
L 183.619476 61.783452 
L 183.825567 61.277566 
L 184.723206 60.398343 
L 184.91174 59.937073 
L 185.208663 60.214962 
L 185.388038 60.57417 
L 185.426203 60.973122 
L 185.296443 61.379683 
L 185.780374 61.309713 
L 185.955169 61.380628 
L 185.872733 61.624587 
L 185.841438 61.850594 
L 186.033789 62.009469 
L 186.449786 62.172135 
L 186.345214 61.659574 
L 187.45047 61.962184 
L 187.74205 61.538537 
L 187.858071 61.538537 
L 187.948141 61.667139 
L 188.071032 61.7948 
L 188.218348 61.913954 
L 188.382457 62.015144 
L 188.522141 61.538537 
L 188.212242 61.391975 
L 188.048133 61.362663 
L 187.858071 61.379683 
L 188.091641 61.017558 
L 188.54046 60.865344 
L 189.030497 60.853054 
L 189.394591 60.904106 
L 189.724336 61.061994 
L 190.109801 61.346589 
L 190.237272 61.612294 
L 189.790742 61.710638 
L 189.954088 62.009469 
L 190.047211 62.331025 
L 190.173918 62.331025 
L 190.196817 62.230772 
L 190.302152 62.015144 
L 190.462445 62.514513 
L 190.920424 62.628961 
L 191.979882 62.489921 
L 191.65319 62.237392 
L 190.943323 61.822224 
L 190.571597 61.710638 
L 190.809746 61.411831 
L 191.267725 61.271892 
L 191.761578 61.267165 
L 192.108116 61.379683 
L 191.979882 61.205707 
L 192.266882 61.233127 
L 193.143148 61.445871 
L 193.375191 61.597164 
L 193.438545 61.75792 
L 193.132462 61.856268 
L 193.132462 62.015144 
L 193.656085 62.172135 
L 193.690433 62.124848 
L 193.695776 62.092693 
L 193.712569 62.060538 
L 193.772869 62.015144 
L 193.991936 62.202399 
L 194.315574 62.10215 
L 194.62471 62.121065 
L 194.797979 62.663013 
L 194.83538 62.539105 
L 194.920106 62.328187 
L 194.936899 62.172135 
L 195.110931 62.328187 
L 195.280383 62.421822 
L 195.439149 62.43128 
L 195.577306 62.331025 
L 195.310915 62.015144 
L 196.819192 61.791963 
L 197.184812 61.935705 
L 197.365714 62.052972 
L 197.555775 62.104041 
L 197.706145 62.19105 
L 197.766446 62.410472 
L 197.900023 62.543834 
L 198.201526 62.552347 
L 198.663321 62.489921 
L 198.97322 62.750981 
L 199.240374 63.06598 
L 199.585385 63.329919 
L 201.068474 63.534272 
L 201.455466 63.67903 
L 201.748572 63.918412 
L 201.558511 64.042367 
L 201.480655 64.077378 
L 201.748572 64.632869 
L 201.760785 64.887458 
L 201.805056 64.951817 
L 201.883676 64.961282 
L 202.005041 65.044573 
L 202.131748 65.156262 
L 202.23174 65.245237 
L 202.913365 65.507441 
L 202.979009 65.816999 
L 203.340812 66.155934 
L 204.19418 66.792232 
L 204.343023 67.000568 
L 204.545297 67.489257 
L 205.139906 68.451672 
L 205.28188 68.55399 
L 205.343707 68.705579 
L 206.261955 69.832268 
L 206.435223 69.933678 
L 206.691692 69.971589 
L 207.100819 70.113758 
L 207.604596 70.474891 
L 208.022884 70.947926 
L 208.175543 71.431451 
L 208.314464 71.431451 
L 208.565589 71.105301 
L 208.945711 71.107198 
L 209.362472 71.228552 
L 209.724275 71.258891 
L 210.037991 71.095821 
L 210.365446 70.855968 
L 210.722669 70.659737 
L 211.121111 70.622767 
L 211.353917 70.712823 
L 211.540162 70.861656 
L 211.913415 71.258891 
L 212.552295 71.736767 
L 212.779758 72.068662 
L 212.927838 72.461284 
L 213.013327 72.892837 
L 213.054545 73.341516 
L 212.88433 73.853816 
L 212.491231 74.134662 
L 212.094316 74.318742 
L 211.831742 74.640428 
L 211.451619 74.897608 
L 211.324912 74.947907 
L 211.22721 75.073183 
L 211.121111 75.904669 
L 210.531082 76.51986 
L 209.834954 76.496124 
L 209.045703 76.256873 
L 208.175543 76.222695 
L 206.994721 76.511315 
L 206.198601 76.582524 
L 204.658217 77.002018 
L 203.942136 76.841533 
L 203.350597 77.129876 
L 202.169913 76.904981 
L 200.757361 77.192813 
L 200.296779 77.244357 
L 199.827351 77.496967 
L 199.506002 77.816078 
L 199.214422 78.183658 
L 198.893074 78.485728 
L 198.476313 78.612073 
L 198.035608 78.622474 
L 197.776411 78.675458 
L 197.62293 78.865419 
L 197.509536 79.351177 
L 197.203632 79.911057 
L 196.599363 80.178907 
L 195.931789 80.271536 
L 195.831111 79.996606 
L 195.696109 79.912676 
L 195.596941 79.944456 
L 195.543288 80.113465 
L 195.544136 80.335502 
L 195.06678 80.516043 
z
" clip-path="url(#pd0de4af60a)" style="stroke: #000000; stroke-linejoin: miter"/>
   </g>
   <g id="line2d_1">
    <path d="M 195.006265 80.513862 
L 195.007306 78.777388 
L 194.217832 78.77816 
L 194.253025 78.667767 
L 194.630217 78.333024 
L 194.873619 78.279724 
L 195.196642 77.509559 
L 195.084979 77.286141 
L 195.054447 76.685067 
L 194.672632 76.772334 
L 194.241113 77.616908 
L 193.893357 77.386546 
L 193.61024 77.516988 
L 193.461444 78.021235 
L 193.62422 78.302244 
L 193.823247 78.315692 
L 193.912553 78.133316 
L 193.951481 78.240651 
L 194.030978 78.481027 
L 193.803436 78.632985 
L 193.783441 78.799234 
L 193.433221 78.797278 
L 192.493269 79.574634 
L 192.420305 80.447871 
L 191.448626 80.723507 
L 189.392301 80.834718 
L 188.39696 80.571429 
L 188.125226 80.858481 
L 187.016917 80.92502 
L 186.455129 80.795746 
L 186.065084 80.525807 
L 185.444522 80.635111 
L 184.677408 80.155147 
L 183.901133 79.506105 
L 183.24775 79.106092 
L 182.837096 79.050987 
L 181.137231 79.052887 
L 180.022052 78.771672 
L 178.925956 78.995882 
L 178.67712 79.1783 
L 178.403096 79.225806 
L 175.92772 78.522776 
L 174.235488 78.292895 
L 173.374488 78.33279 
L 171.161686 78.931278 
L 169.395414 78.998732 
L 168.192456 79.423439 
L 165.806386 79.255261 
L 163.377571 79.497553 
L 162.989816 79.731309 
L 161.487645 79.716105 
L 160.484671 80.525807 
L 160.041958 80.657923 
L 157.619249 80.789093 
L 157.142951 80.698794 
L 155.72627 80.155147 
L 155.338514 80.381341 
L 155.198067 80.224525 
L 155.007243 80.190311 
L 154.821761 80.288201 
L 154.698107 80.525807 
L 154.221809 80.343324 
L 153.676051 80.292953 
L 153.191356 80.442168 
L 152.892907 80.858481 
L 153.404317 80.858481 
L 153.404317 81.018176 
L 153.071519 81.037187 
L 152.193726 81.337584 
L 150.454932 81.393673 
L 148.590958 81.815796 
L 147.800181 81.742586 
L 146.279691 82.135271 
L 145.772861 81.947006 
L 145.44159 81.483988 
L 145.464489 81.052397 
L 145.974372 80.012596 
L 146.349151 79.902359 
L 146.733854 79.423439 
L 146.676606 79.169749 
L 146.763622 78.990182 
L 147.117792 78.612073 
L 147.632256 77.639424 
L 148.526841 76.687916 
L 148.490203 76.484731 
L 148.238314 76.189467 
L 148.270373 76.048015 
L 148.439825 76.061305 
L 148.934442 76.252126 
L 149.120687 76.042319 
L 149.5634 75.816386 
L 149.948102 75.093114 
L 150.274794 74.82738 
L 151.080074 74.324435 
L 151.387683 73.79689 
L 151.741853 73.493301 
L 153.631016 72.4518 
L 153.99282 72.38636 
L 154.272187 72.207118 
L 154.567583 71.366977 
L 154.959155 71.08634 
L 155.082046 71.099613 
L 154.975184 71.370769 
L 155.088152 71.504459 
L 155.604905 71.431451 
L 156.059068 70.947926 
L 156.37202 70.09101 
L 157.142951 69.522371 
L 157.202489 68.406198 
L 157.473459 68.086 
L 157.724584 67.268581 
L 156.95976 65.973209 
L 156.454456 65.578439 
L 155.600326 65.24713 
L 155.72169 65.507441 
L 155.604905 65.666477 
L 154.77062 64.993463 
L 154.761461 64.317734 
L 155.21028 64.077378 
L 155.604905 63.284509 
L 154.924807 62.779358 
L 154.561477 62.690443 
L 154.430189 63.125577 
L 154.052357 62.691389 
L 153.364625 61.599055 
L 152.834133 61.379683 
L 151.707505 61.596219 
L 151.216704 61.845866 
L 150.972448 62.172135 
L 150.685448 62.044461 
L 150.261055 62.232663 
L 150.015273 62.332916 
L 149.479437 62.266711 
L 148.526841 61.856268 
L 147.630729 62.331025 
L 147.091077 61.982044 
L 146.389606 61.994338 
L 145.831635 61.835463 
L 145.589669 61.856268 
L 144.34702 61.672813 
L 143.848586 61.273783 
L 143.498232 61.15276 
L 142.809737 61.061994 
L 142.402136 61.175451 
L 141.599146 61.856268 
L 140.379396 61.897878 
L 139.740515 61.704964 
L 139.538241 61.205707 
L 139.397794 61.205707 
L 139.282536 61.538537 
L 138.443672 60.572279 
L 138.034544 60.475857 
L 137.808607 60.223469 
L 137.278879 59.213151 
L 136.552982 58.568737 
L 136.255296 58.581964 
L 136.053785 58.71046 
L 135.975165 58.374112 
L 135.940053 58.20784 
L 135.544665 57.473877 
L 135.408798 57.138591 
L 133.827244 55.933708 
L 133.168518 55.975249 
L 132.934948 55.819473 
L 132.215921 54.585781 
L 131.231267 53.732736 
L 131.116009 52.940269 
L 131.050365 51.433185 
L 130.902285 50.784527 
L 130.416064 49.47532 
L 130.537429 48.809122 
L 130.709171 49.042795 
L 130.917551 49.076717 
L 131.09311 48.921245 
L 131.166386 48.587713 
L 131.028993 48.350302 
L 130.28096 47.948059 
L 130.026019 46.352736 
L 129.945109 45.96108 
L 129.513082 44.925665 
L 129.398588 44.148366 
L 129.110061 43.410753 
L 128.33684 42.319677 
L 127.737651 41.956689 
L 126.511794 41.692465 
L 126.422488 41.520401 
L 126.543852 41.201683 
L 126.994198 41.387834 
L 127.584991 41.268433 
L 127.25372 40.663033 
L 126.931608 40.364132 
L 126.269065 40.016388 
L 126.010307 40.131046 
L 125.775974 40.254166 
L 124.906578 40.485381 
L 123.941006 40.626374 
L 123.507452 41.077589 
L 122.177787 40.885815 
L 121.512954 41.183821 
L 120.335948 41.275954 
L 119.349003 41.832567 
L 118.578072 42.070471 
L 117.83462 42.144761 
L 117.074375 42.064829 
L 115.260778 41.343645 
L 114.912714 40.97136 
L 114.64785 40.925297 
L 113.305972 41.057847 
L 112.715942 40.784292 
L 112.536567 40.584075 
L 112.086984 39.832192 
L 111.816777 40.413007 
L 111.629769 40.446844 
L 111.15576 40.079355 
L 110.091723 39.623574 
L 109.761215 38.928271 
L 109.520776 38.836202 
L 108.19569 38.796744 
L 106.931668 38.376829 
L 106.450027 38.385283 
L 106.111123 39.160336 
L 105.792827 39.104902 
L 104.957016 38.520552 
L 105.341718 38.348648 
L 105.341718 38.204932 
L 105.050901 38.12791 
L 104.957016 37.260126 
L 104.63872 37.528702 
L 104.307449 37.645154 
L 103.525831 37.57378 
L 102.925879 37.356848 
L 102.756427 37.402863 
L 102.706049 37.566267 
L 103.010605 37.836746 
L 103.164028 37.875253 
L 102.933512 38.162664 
L 102.585448 37.971054 
L 102.266389 37.556875 
L 102.127469 37.181247 
L 101.95649 36.251746 
L 101.732844 35.943847 
L 99.463558 35.219267 
L 98.91093 34.688132 
L 97.930856 34.329711 
L 97.352276 33.761193 
L 95.268471 31.028777 
L 95.176876 30.776652 
L 94.588373 30.567656 
L 94.535705 30.147828 
L 95.128025 30.190933 
L 95.450136 30.074739 
L 95.701261 29.832993 
L 95.30511 29.975415 
L 95.560051 29.20341 
L 95.410445 29.132215 
L 95.015056 29.191232 
L 95.037192 28.890537 
L 94.666992 28.888664 
L 94.43037 28.721935 
L 94.407471 28.438141 
L 94.676152 28.089754 
L 94.051774 27.577542 
L 93.906747 27.304145 
L 93.778513 27.539153 
L 93.547997 27.622486 
L 92.999186 27.448331 
L 92.897667 27.938985 
L 93.074752 28.251768 
L 93.640356 28.719125 
L 94.161689 29.673712 
L 94.27771 30.234039 
L 94.163216 30.776652 
L 93.357173 30.42802 
L 91.02606 30.503928 
L 88.717083 30.318377 
L 86.012717 30.663249 
L 84.017456 30.331496 
L 83.312931 29.919195 
L 82.576349 29.748667 
L 82.290875 29.51725 
L 82.101577 29.164065 
L 81.553529 27.77605 
L 81.541316 27.410879 
L 81.596274 26.368024 
L 81.10013 25.492056 
L 80.597116 25.24503 
L 80.386446 25.325498 
L 80.262029 25.562237 
L 80.266608 25.848592 
L 80.529183 26.834179 
L 80.542159 29.624055 
L 80.395606 30.337119 
L 80.00556 30.305257 
L 80.272715 29.80301 
L 80.194095 29.077883 
L 79.749855 28.247086 
L 79.108685 28.561771 
L 79.049911 28.757528 
L 78.9919 29.362668 
L 78.770544 29.478838 
L 78.340044 29.20341 
L 78.181278 29.47228 
L 78.127847 29.613749 
L 77.897331 29.675586 
L 77.217995 29.327069 
L 76.805051 27.794778 
L 76.092894 27.448331 
L 74.976952 27.377173 
L 74.415164 27.005493 
L 74.270138 27.075707 
L 73.99535 27.377173 
L 73.461805 27.578478 
L 73.333571 27.304145 
L 72.014591 26.822946 
L 71.913836 27.075707 
L 71.730644 27.169327 
L 70.879567 27.140304 
L 70.504024 27.005493 
L 70.333809 27.36032 
L 69.980402 27.304145 
L 70.036886 27.395899 
L 70.119322 27.618741 
L 69.912468 27.617804 
L 68.769811 27.376237 
L 68.12635 26.456008 
L 68.058417 26.119061 
L 67.733252 25.731614 
L 64.803713 24.338492 
L 64.351841 23.963413 
L 63.821348 23.850243 
L 63.239715 23.21058 
L 62.895468 23.162891 
L 62.577935 22.985231 
L 62.40085 22.594414 
L 62.505639 22.234695 
L 63.015305 21.87648 
L 63.249376 21.791472 
L 65.408661 21.875893 
L 66.113046 21.66983 
L 66.612167 21.759598 
L 67.529422 21.637064 
L 68.4568 21.816067 
L 69.422817 21.642424 
L 70.16512 21.28206 
L 70.37579 21.325983 
L 70.569668 21.208232 
L 71.144431 21.154965 
L 71.413875 21.061844 
L 72.013016 20.505382 
L 72.017783 19.449001 
L 72.168857 18.556297 
L 71.617795 18.442866 
L 70.102931 17.058141 
L 67.774681 16.101947 
L 65.616626 16.286132 
L 63.623495 16.670878 
L 63.019885 16.373844 
L 61.746455 15.963377 
L 59.526269 16.073393 
L 58.726333 16.077125 
L 58.131094 15.902686 
L 56.89728 16.08694 
L 55.689932 15.862534 
L 55.141884 16.126576 
L 54.269888 15.912132 
L 53.603437 16.091524 
L 51.624606 15.491232 
L 51.222348 15.50056 
L 50.832303 15.726323 
L 50.640715 16.098585 
L 50.45676 17.408843 
L 50.180446 17.622604 
L 49.546145 17.863452 
L 48.195107 19.117457 
L 47.479897 19.260349 
L 45.616686 20.468179 
L 45.102986 21.080206 
L 44.032079 23.412565 
L 43.587839 23.911972 
L 42.978727 23.993343 
L 42.106277 23.765135 
L 41.829963 23.907296 
L 41.807064 24.316042 
L 41.733788 24.309494 
L 41.428469 24.307623 
L 41.326187 24.391811 
L 41.326187 24.777229 
L 40.418625 25.562237 
L 40.290391 26.047932 
L 40.075141 26.528082 
L 39.905689 26.676915 
L 39.845388 26.605774 
L 39.816383 26.532762 
L 39.805697 26.802351 
L 39.672883 26.960558 
L 39.568048 26.726574 
L 39.247741 26.677496 
L 39.233323 27.055928 
L 38.924155 27.441053 
L 37.989047 27.533535 
L 37.020421 27.392154 
L 36.19148 27.005493 
L 36.347192 26.811712 
L 36.159421 26.319353 
L 36.051796 26.047932 
L 35.923562 26.047932 
L 35.657934 26.662873 
L 35.193085 27.218947 
L 34.644274 27.620613 
L 34.130574 27.77605 
L 34.169503 27.695522 
L 34.247359 27.448331 
L 32.069669 27.77605 
L 31.945252 27.52698 
L 31.941435 27.304145 
L 31.726948 27.379046 
L 31.504065 27.702076 
L 31.231568 27.77605 
L 29.774431 27.68054 
L 29.357671 27.77605 
L 28.565367 28.815602 
L 28.431027 29.826434 
L 28.472245 30.305257 
L 28.259284 30.100976 
L 28.053194 30.153451 
L 27.925723 30.399906 
L 27.947859 30.776652 
L 28.089832 31.081266 
L 28.273787 31.193746 
L 28.490564 31.131882 
L 28.728713 30.920052 
L 28.621851 31.418718 
L 27.973048 31.968087 
L 27.887558 32.545677 
L 28.089832 32.846702 
L 27.829548 33.263116 
L 27.407444 33.572647 
L 27.178454 33.6233 
L 26.82581 33.524809 
L 26.116706 33.09148 
L 25.699946 32.993004 
L 25.292344 33.100858 
L 24.2222 33.780893 
L 23.246705 33.879392 
L 22.820785 34.187103 
L 22.234572 34.387881 
L 20.01948 36.514609 
L 19.214201 37.018801 
L 18.42266 37.102371 
L 18.179168 36.646988 
L 18.930254 34.833576 
L 19.076044 33.924421 
L 18.65165 33.251861 
L 17.903618 33.10461 
L 17.068569 33.249047 
L 15.578611 33.752751 
L 14.851951 34.149576 
L 12.957445 35.596554 
L 12.203307 35.80868 
L 11.387341 35.793662 
L 10.599617 35.512083 
L 10.342385 35.273699 
L 10.189726 34.945243 
L 10.145455 34.566152 
L 10.371391 33.843744 
L 10.615646 33.633619 
L 10.765253 33.809035 
L 11.009508 34.177721 
L 11.327803 34.271541 
L 11.496492 34.253715 
L 11.817078 34.098915 
L 12.037671 33.837178 
L 12.047594 33.544507 
L 11.739985 33.294068 
L 12.059806 33.094293 
L 12.344517 33.095231 
L 12.522365 33.318455 
L 12.520839 33.780893 
L 14.057358 32.836386 
L 15.419845 32.374078 
L 17.016665 31.55277 
L 18.179168 30.619201 
L 18.65623 30.635133 
L 18.773778 30.7401 
L 18.691341 30.920052 
L 19.280608 31.218117 
L 19.717977 31.077517 
L 20.143135 30.781338 
L 20.693473 30.619201 
L 21.284265 30.940672 
L 21.659808 31.485275 
L 21.750641 31.620268 
L 22.259761 31.198433 
L 22.545997 31.24905 
L 22.813152 29.975415 
L 22.178088 30.880686 
L 21.916276 30.619201 
L 21.765143 29.576274 
L 21.393417 29.362668 
L 21.659808 28.719125 
L 20.932385 28.517751 
L 20.355331 28.089754 
L 19.906512 27.081324 
L 19.598903 27.005493 
L 19.996581 26.450392 
L 20.240073 25.649264 
L 20.355331 24.620062 
L 20.670574 23.55284 
L 21.040773 22.90669 
L 21.334643 22.816931 
L 22.209383 21.244678 
L 22.545997 21.01199 
L 22.545997 20.840988 
L 22.161295 20.840988 
L 22.484933 20.541056 
L 23.287923 20.373816 
L 23.63904 20.143058 
L 24.098546 19.280896 
L 24.185562 18.784066 
L 23.965732 18.319058 
L 24.350434 18.49086 
L 24.617589 18.259303 
L 24.871004 18.214487 
L 25.089307 18.343334 
L 25.246546 18.632791 
L 25.513701 17.55166 
L 25.698419 17.465782 
L 26.283105 17.308969 
L 26.356382 16.687389 
L 26.490722 16.412103 
L 26.981523 16.70792 
L 27.178454 16.590336 
L 27.563156 16.126576 
L 27.228069 15.703932 
L 26.667808 15.672213 
L 26.752534 15.49403 
L 27.058616 15.218846 
L 27.237991 15.174073 
L 27.540258 15.299067 
L 28.006633 15.983823 
L 28.482931 15.808422 
L 29.624062 14.873734 
L 29.88053 15.174073 
L 30.059142 14.687202 
L 30.345378 14.472703 
L 31.473533 14.336551 
L 33.415364 13.329577 
L 33.93288 13.337034 
L 34.374066 13.467551 
L 34.899216 13.154321 
L 34.899216 12.982803 
L 34.630535 13.154321 
L 34.611452 13.018225 
L 34.502301 12.982803 
L 34.902269 12.69665 
L 35.31445 12.557777 
L 36.250253 12.514905 
L 36.329636 12.377904 
L 36.68228 11.581179 
L 37.460081 11.575589 
L 37.331847 11.888663 
L 37.69823 11.965073 
L 37.91806 11.728395 
L 38.229486 11.106034 
L 38.509616 10.975615 
L 39.265281 11.419063 
L 39.132468 11.655718 
L 39.636244 11.372479 
L 39.788904 11.192673 
L 39.901872 10.815392 
L 40.533883 9.88589 
L 42.823014 8.705312 
L 43.126044 8.826329 
L 43.374879 9.217338 
L 43.203137 9.365376 
L 43.130624 9.639124 
L 43.166499 9.960389 
L 43.310762 10.247227 
L 43.539751 10.365509 
L 43.893922 9.995777 
L 44.027499 9.841191 
L 43.684778 9.522731 
L 43.706914 9.224786 
L 43.982464 8.963177 
L 44.399225 8.763027 
L 45.327396 8.507971 
L 45.680803 8.280859 
L 45.875444 8.319951 
L 46.331896 8.591747 
L 46.67996 8.326466 
L 46.857045 8.43723 
L 46.974593 8.672731 
L 46.588364 8.904527 
L 46.779952 9.220131 
L 46.926506 9.140994 
L 47.100538 8.904527 
L 47.061609 9.356996 
L 47.389064 9.386791 
L 47.797429 9.079548 
L 48.263804 8.02398 
L 48.872153 8.00909 
L 49.543855 8.13101 
L 50.407909 7.878798 
L 52.107011 7.96814 
L 53.846567 7.711287 
L 54.29615 7.500051 
L 54.680852 7.530758 
L 57.84396 5.394976 
L 58.590466 5.267582 
L 59.454519 4.846382 
L 60.766629 4.602799 
L 61.362001 4.325771 
L 62.657318 4.676244 
L 63.599228 4.476367 
L 64.854091 4.182618 
L 65.037282 4.286728 
L 65.74257 4.846382 
L 66.299778 5.024897 
L 68.476704 5.15879 
L 72.186333 5.134614 
L 72.436695 4.988635 
L 72.859562 5.134614 
L 73.333571 5.15879 
L 74.189228 5.80788 
L 74.254108 6.266416 
L 74.102212 7.18741 
L 73.870169 7.523314 
L 74.315935 7.687092 
L 74.805973 7.500051 
L 74.87925 7.382807 
L 75.062441 6.633851 
L 75.357074 6.419896 
L 75.52729 6.414315 
L 77.315697 6.001331 
L 77.517208 5.753939 
L 77.982057 5.605141 
L 79.14456 5.346621 
L 79.841451 4.960742 
L 80.29943 4.565613 
L 81.437508 3.911203 
L 81.785572 4.065498 
L 81.519944 4.324841 
L 81.000901 4.567472 
L 80.148297 4.81849 
L 78.865193 5.781839 
L 78.865193 5.925065 
L 79.697188 6.16596 
L 80.767332 7.575424 
L 81.437508 7.96814 
L 81.971053 7.875075 
L 82.770226 6.39199 
L 83.486963 6.235721 
L 84.503677 6.428268 
L 84.512073 6.79014 
L 84.65252 7.292551 
L 84.997531 7.416305 
L 89.210937 6.534313 
L 90.085677 6.739903 
L 90.554342 6.718506 
L 90.946677 6.529662 
L 91.297794 6.183632 
L 91.400839 5.753939 
L 91.055065 5.313146 
L 91.554262 5.149491 
L 91.974076 5.313146 
L 91.974076 5.45635 
L 91.813784 5.62374 
L 91.32222 6.718506 
L 91.868741 7.210671 
L 92.549603 8.597332 
L 92.935069 8.904527 
L 93.993 9.094444 
L 94.457849 9.405412 
L 94.899798 9.911964 
L 95.240993 10.013471 
L 96.532493 10.091698 
L 97.116416 10.567623 
L 97.749191 10.779995 
L 98.366699 10.802351 
L 98.948332 10.664493 
L 100.066564 10.168996 
L 99.926117 9.623294 
L 100.242123 9.611189 
L 101.680176 10.327323 
L 102.055719 10.248158 
L 102.127469 9.700581 
L 102.533544 9.986464 
L 102.756427 10.403695 
L 103.222039 11.419063 
L 104.034188 11.9073 
L 104.498273 11.940845 
L 104.560864 12.215748 
L 104.950146 12.081555 
L 105.561548 11.428379 
L 106.878237 11.106034 
L 106.878237 11.281177 
L 106.353851 11.732122 
L 105.923351 11.497325 
L 105.714971 11.68367 
L 105.469952 12.514905 
L 105.791301 13.021953 
L 106.169896 13.215846 
L 107.273626 13.422802 
L 108.722366 14.510006 
L 108.939142 14.234907 
L 109.366589 14.173362 
L 109.527645 14.289925 
L 110.001654 16.624864 
L 110.51001 16.862838 
L 110.924481 17.308969 
L 111.138968 17.674879 
L 111.570231 18.7187 
L 112.151865 19.431268 
L 113.189187 19.572306 
L 113.935693 20.857807 
L 115.341688 22.22047 
L 115.891263 22.515882 
L 116.39046 22.424264 
L 116.933165 22.930065 
L 117.274359 23.064709 
L 117.427782 22.816931 
L 117.629293 22.788882 
L 118.964301 23.036658 
L 119.208557 22.725305 
L 119.255881 22.622462 
L 119.678748 22.64677 
L 120.187105 22.89547 
L 120.590126 22.829086 
L 121.654164 22.424264 
L 122.081611 22.416785 
L 124.966878 22.790752 
L 125.845435 22.738394 
L 125.94161 22.969336 
L 126.299597 24.307623 
L 126.367531 24.249629 
L 126.543852 24.150479 
L 126.731624 24.447937 
L 126.905656 24.264595 
L 127.195709 23.536007 
L 126.672087 22.738394 
L 127.229294 22.823476 
L 127.828483 23.510757 
L 130.141277 24.548966 
L 130.30157 24.842717 
L 131.105323 25.536972 
L 131.881597 25.887897 
L 133.010515 26.10783 
L 133.355526 26.047932 
L 133.355526 26.676915 
L 133.62268 26.505617 
L 134.230265 27.522299 
L 135.042415 27.957714 
L 135.416431 27.94835 
L 136.349181 28.339803 
L 137.442224 28.516815 
L 137.593357 29.20341 
L 137.748307 29.248377 
L 138.229185 29.241819 
L 138.167358 29.276481 
L 138.10553 29.362668 
L 138.535267 29.675586 
L 139.014619 29.832993 
L 139.291696 29.722432 
L 139.469544 29.941682 
L 139.71838 30.547038 
L 140.177885 31.091577 
L 140.301539 31.51246 
L 140.789287 32.416273 
L 141.237343 32.688215 
L 142.163224 33.892525 
L 142.612043 34.725665 
L 142.837216 34.687194 
L 142.944078 34.456374 
L 143.136429 32.506293 
L 143.34252 32.405021 
L 144.148562 32.506293 
L 143.982163 32.745419 
L 143.382211 32.869209 
L 143.25245 33.066157 
L 143.353206 33.786521 
L 143.635626 34.253715 
L 144.014222 34.573658 
L 144.475254 34.568029 
L 144.677528 34.721912 
L 144.901174 35.47548 
L 144.99735 36.030206 
L 145.419454 36.368155 
L 146.056045 36.585023 
L 146.331595 36.431993 
L 146.80255 36.77186 
L 148.270373 36.616005 
L 148.584852 36.785004 
L 149.422953 37.402863 
L 149.433639 37.083591 
L 149.580193 36.923027 
L 150.06336 36.77186 
L 150.203044 37.117395 
L 150.587746 37.102371 
L 150.459512 36.77186 
L 150.723613 36.871385 
L 151.354861 37.57378 
L 151.085417 37.615102 
L 150.781624 37.475173 
L 150.71598 37.875253 
L 150.759488 38.297924 
L 151.199148 39.623574 
L 151.439587 39.713785 
L 152.007481 39.796482 
L 152.578428 40.11037 
L 152.852452 39.954362 
L 152.950917 39.670559 
L 152.660101 39.118056 
L 152.172353 38.864386 
L 151.970843 38.556249 
L 151.418978 37.092042 
L 150.972448 36.850729 
L 150.851847 36.293052 
L 150.65797 36.123138 
L 150.331278 36.314644 
L 150.06336 35.985149 
L 149.809182 36.255501 
L 149.543554 36.063999 
L 149.038251 35.341271 
L 148.332963 34.646846 
L 148.006272 34.250901 
L 147.74675 34.395387 
L 147.90628 34.001347 
L 148.204729 33.586717 
L 148.54745 33.32033 
L 148.840557 33.372856 
L 149.5634 34.191794 
L 149.749645 34.896447 
L 152.124265 36.77186 
L 153.079152 37.113638 
L 153.61346 37.644215 
L 154.500413 38.348648 
L 155.881983 39.470407 
L 156.422398 39.567192 
L 156.758249 39.465709 
L 156.612459 39.901734 
L 156.903276 40.38293 
L 157.014717 40.584075 
L 156.949074 41.042805 
L 156.497964 41.602201 
L 156.37431 42.003706 
L 156.209438 41.878642 
L 155.792677 41.373731 
L 154.280583 40.625434 
L 153.928702 40.584075 
L 153.938625 40.625434 
L 153.760014 40.897096 
L 153.388287 40.696872 
L 153.021141 40.413007 
L 152.589114 40.454364 
L 152.437981 40.682772 
L 152.499808 40.936578 
L 153.590561 41.579635 
L 154.116474 41.529803 
L 154.485147 41.706569 
L 154.581322 42.090219 
L 154.445455 42.473912 
L 154.116474 42.648845 
L 154.063806 42.838836 
L 154.430189 43.811529 
L 154.642386 43.859512 
L 155.359887 43.819055 
L 155.21028 44.227406 
L 155.394998 44.170008 
L 156.234626 43.724972 
L 156.399499 43.375006 
L 156.630778 42.146642 
L 157.258973 40.885815 
L 157.61467 40.811553 
L 157.958917 41.052206 
L 160.306059 44.242461 
L 160.585426 44.46924 
L 161.264762 44.84661 
L 162.301321 45.101664 
L 162.545576 45.319086 
L 162.417342 45.635362 
L 162.802044 45.635362 
L 162.543286 46.349911 
L 162.31506 46.429942 
L 161.38231 46.604134 
L 161.194538 46.825418 
L 161.124315 47.151248 
L 161.385363 47.721995 
L 162.344065 47.140889 
L 162.289108 47.717285 
L 162.470009 47.565642 
L 162.67381 46.768918 
L 162.545576 46.768918 
L 162.886007 46.084409 
L 162.918066 45.807631 
L 164.178271 46.259525 
L 164.408024 46.196445 
L 164.723266 46.439358 
L 165.722423 46.745377 
L 165.977365 47.070258 
L 166.088043 47.397995 
L 165.950649 47.544921 
L 165.646093 47.624038 
L 164.595032 48.177907 
L 164.667545 47.831258 
L 164.49504 47.626864 
L 164.308795 47.616503 
L 164.338564 47.8614 
L 164.247731 48.226892 
L 164.498093 48.377622 
L 165.175902 48.587713 
L 165.774327 49.006047 
L 166.527703 49.125715 
L 166.527703 48.982491 
L 165.996447 48.711135 
L 165.760588 48.176022 
L 165.769748 48.028127 
L 166.131551 47.8614 
L 166.459769 47.850096 
L 166.907062 48.012114 
L 167.322296 48.29943 
L 167.681046 48.665911 
L 167.681046 48.177907 
L 167.807754 48.177907 
L 167.74211 49.104985 
L 167.52686 49.408412 
L 166.527703 49.458357 
L 166.527703 49.615737 
L 166.911642 49.615737 
L 166.655937 49.774066 
L 166.80707 50.071896 
L 167.584871 50.086976 
L 167.773405 50.490408 
L 168.04285 50.515859 
L 168.604637 50.098287 
L 168.705393 50.088861 
L 169.473271 49.615737 
L 169.183217 49.497937 
L 168.33214 49.299099 
L 168.10544 48.989087 
L 168.04285 48.618803 
L 168.171084 48.307909 
L 168.513041 48.177907 
L 170.759428 48.255154 
L 171.219697 48.422842 
L 171.486851 48.678159 
L 172.147868 49.006047 
L 172.854682 49.627988 
L 174.84689 50.50549 
L 175.444553 50.967422 
L 175.655223 52.476192 
L 175.839178 52.722372 
L 175.968938 52.705393 
L 176.457449 52.280958 
L 176.666593 52.224371 
L 177.127625 52.436578 
L 177.331426 52.818584 
L 177.332189 53.110068 
L 177.449737 53.110068 
L 177.587894 52.778967 
L 177.716128 53.135539 
L 177.876421 53.213839 
L 177.988625 53.033658 
L 177.972596 52.620502 
L 178.632086 52.664834 
L 178.985493 52.529954 
L 179.438892 52.161183 
L 179.907557 52.229087 
L 180.088459 52.346035 
L 180.244172 52.750669 
L 180.402174 52.78557 
L 180.50064 52.685585 
L 180.405228 52.476192 
L 181.476135 51.699094 
L 181.815039 51.908441 
L 181.893659 52.083849 
L 182.076087 52.09328 
L 182.403542 51.986714 
L 183.582075 52.085736 
L 183.951511 52.453556 
L 184.119437 53.253461 
L 184.859836 53.073278 
L 185.28652 53.393086 
L 185.93685 54.533875 
L 185.442233 55.646711 
L 185.155996 55.975249 
L 184.878918 56.873217 
L 184.311025 57.394539 
L 184.003415 57.386039 
L 183.724812 56.587089 
L 183.491242 56.753286 
L 183.214165 56.621083 
L 182.991282 56.753286 
L 183.32866 56.924213 
L 183.363008 57.08287 
L 182.831753 57.128202 
L 182.843202 57.41154 
L 183.363008 58.20784 
L 183.572915 57.841312 
L 184.067532 57.669397 
L 185.039211 57.703402 
L 185.93685 58.279639 
L 186.033789 58.84652 
L 186.191028 58.987309 
L 186.449786 58.986364 
L 186.300943 59.540126 
L 186.036842 59.540126 
L 185.238432 58.797386 
L 184.959065 58.485595 
L 183.568335 58.820063 
L 182.339425 58.65377 
L 182.437891 58.919276 
L 182.412702 59.21693 
L 182.237143 59.92006 
L 182.256989 60.935305 
L 182.474529 61.437361 
L 183.491242 62.028384 
L 183.825567 61.277566 
L 184.723206 60.398343 
L 184.91174 59.937073 
L 185.208663 60.214962 
L 185.388038 60.57417 
L 185.426203 60.973122 
L 185.296443 61.379683 
L 185.955169 61.380628 
L 185.841438 61.850594 
L 186.033789 62.009469 
L 186.449786 62.172135 
L 186.345214 61.659574 
L 187.45047 61.962184 
L 187.858071 61.538537 
L 188.218348 61.913954 
L 188.382457 62.015144 
L 188.522141 61.538537 
L 188.048133 61.362663 
L 187.858071 61.379683 
L 188.091641 61.017558 
L 188.54046 60.865344 
L 189.394591 60.904106 
L 190.109801 61.346589 
L 190.237272 61.612294 
L 189.790742 61.710638 
L 190.173918 62.331025 
L 190.196817 62.230772 
L 190.302152 62.015144 
L 190.462445 62.514513 
L 190.920424 62.628961 
L 191.979882 62.489921 
L 190.943323 61.822224 
L 190.571597 61.710638 
L 190.809746 61.411831 
L 191.267725 61.271892 
L 191.761578 61.267165 
L 192.108116 61.379683 
L 191.979882 61.205707 
L 192.266882 61.233127 
L 193.375191 61.597164 
L 193.438545 61.75792 
L 193.132462 61.856268 
L 193.132462 62.015144 
L 193.690433 62.124848 
L 193.695776 62.092693 
L 193.772869 62.015144 
L 193.991936 62.202399 
L 194.62471 62.121065 
L 194.797979 62.663013 
L 194.83538 62.539105 
L 194.936899 62.172135 
L 195.280383 62.421822 
L 195.577306 62.331025 
L 195.310915 62.015144 
L 196.819192 61.791963 
L 197.706145 62.19105 
L 197.900023 62.543834 
L 198.663321 62.489921 
L 199.585385 63.329919 
L 201.455466 63.67903 
L 201.748572 63.918412 
L 201.480655 64.077378 
L 202.005041 65.044573 
L 202.23174 65.245237 
L 202.913365 65.507441 
L 202.979009 65.816999 
L 203.340812 66.155934 
L 204.343023 67.000568 
L 204.545297 67.489257 
L 205.343707 68.705579 
L 206.435223 69.933678 
L 207.100819 70.113758 
L 207.604596 70.474891 
L 208.022884 70.947926 
L 208.175543 71.431451 
L 208.314464 71.431451 
L 208.565589 71.105301 
L 208.945711 71.107198 
L 209.724275 71.258891 
L 211.121111 70.622767 
L 211.540162 70.861656 
L 211.913415 71.258891 
L 212.552295 71.736767 
L 212.927838 72.461284 
L 213.054545 73.341516 
L 212.88433 73.853816 
L 211.22721 75.073183 
L 211.121111 75.904669 
L 210.531082 76.51986 
L 209.834954 76.496124 
L 209.045703 76.256873 
L 208.175543 76.222695 
L 206.994721 76.511315 
L 206.198601 76.582524 
L 204.658217 77.002018 
L 203.942136 76.841533 
L 203.350597 77.129876 
L 202.169913 76.904981 
L 200.296779 77.244357 
L 199.827351 77.496967 
L 198.893074 78.485728 
L 198.476313 78.612073 
L 197.776411 78.675458 
L 197.62293 78.865419 
L 197.509536 79.351177 
L 197.203632 79.911057 
L 196.599363 80.178907 
L 195.931789 80.271536 
L 195.696109 79.912676 
L 195.596941 79.944456 
L 195.544136 80.335502 
L 195.006265 80.513862 
L 195.006265 80.513862 
" clip-path="url(#pd0de4af60a)" style="fill: none; stroke: #000000; stroke-width: 0.5; stroke-linecap: square"/>
   </g>
  </g>
 </g>
 <defs>
  <clipPath id="pd0de4af60a">
   <rect x="0" y="-0" width="223.2" height="86.046474"/>
  </clipPath>
 </defs>
</svg>
