<?xml version="1.0" encoding="utf-8" standalone="no"?>
<!DOCTYPE svg PUBLIC "-//W3C//DTD SVG 1.1//EN"
  "http://www.w3.org/Graphics/SVG/1.1/DTD/svg11.dtd">
<svg xmlns:xlink="http://www.w3.org/1999/xlink" width="223.2pt" height="95.464261pt" viewBox="0 0 223.2 95.464261" xmlns="http://www.w3.org/2000/svg" version="1.1">
 <metadata>
  <rdf:RDF xmlns:dc="http://purl.org/dc/elements/1.1/" xmlns:cc="http://creativecommons.org/ns#" xmlns:rdf="http://www.w3.org/1999/02/22-rdf-syntax-ns#">
   <cc:Work>
    <dc:type rdf:resource="http://purl.org/dc/dcmitype/StillImage"/>
    <dc:date>2026-04-26T19:21:48.036099</dc:date>
    <dc:format>image/svg+xml</dc:format>
    <dc:creator>
     <cc:Agent>
      <dc:title>Matplotlib v3.10.9, https://matplotlib.org/</dc:title>
     </cc:Agent>
    </dc:creator>
   </cc:Work>
  </rdf:RDF>
 </metadata>
 <defs>
  <style type="text/css">*{stroke-linejoin: round; stroke-linecap: butt}</style>
 </defs>
 <g id="figure_1">
  <g id="patch_1">
   <path d="M 0 95.464261 
L 223.2 95.464261 
L 223.2 0 
L 0 0 
z
" style="fill: #ffffff"/>
  </g>
  <g id="axes_1">
   <g id="patch_2">
    <path d="M 213.054545 35.020731 
L 212.852288 37.343489 
L 209.852471 38.36053 
L 206.125776 41.688448 
L 205.07584 43.660489 
L 204.106669 46.173079 
L 203.391328 48.956343 
L 203.137497 51.708783 
L 203.425941 54.656681 
L 203.079808 55.932845 
L 201.729891 56.46095 
L 200.864559 57.045662 
L 199.88385 59.799824 
L 199.260811 60.680273 
L 197.068638 61.252597 
L 192.361233 61.296623 
L 190.549805 61.724311 
L 189.315266 62.881657 
L 187.849971 64.668198 
L 186.153921 66.291395 
L 184.215578 67.008686 
L 179.692777 68.015478 
L 175.585336 69.802725 
L 172.262462 70.469859 
L 170.127978 68.160211 
L 169.989525 72.502941 
L 165.974385 74.737809 
L 155.440414 76.702291 
L 153.317467 77.602778 
L 152.036776 78.377372 
L 150.2715 79.435429 
L 148.217779 79.788133 
L 138.006865 78.717452 
L 127.842102 79.788133 
L 125.649929 80.317208 
L 123.642359 81.564398 
L 117.065838 87.052189 
L 115.611943 89.667986 
L 112.081067 89.667986 
L 109.077212 90.036221 
L 108.080812 91.124977 
L 107.099064 90.524549 
L 106.87927 88.347229 
L 108.5204 87.010597 
L 109.179783 87.858982 
L 111.949191 87.858982 
L 111.626826 83.633611 
L 106.974514 83.025526 
L 105.208834 84.601805 
L 104.329657 86.058231 
L 103.435827 85.321995 
L 101.66282 84.601805 
L 101.155321 85.663444 
L 97.020711 84.683694 
L 94.342491 82.805748 
L 93.607668 81.430183 
L 93.502694 79.424411 
L 92.662896 79.596323 
L 91.560662 79.596323 
L 90.825839 79.596323 
L 90.091017 79.539019 
L 89.618631 79.367108 
L 88.936295 80.054764 
L 88.25396 80.857074 
L 87.781574 81.430183 
L 85.892029 81.716747 
L 84.842283 84.009486 
L 82.007966 83.66555 
L 80.328371 83.206982 
L 79.383599 84.296107 
L 79.464292 86.756004 
L 77.837468 87.279059 
L 71.907062 87.965994 
L 66.011268 86.91985 
L 60.403919 84.701796 
L 53.146671 80.625845 
L 50.539138 79.61178 
L 47.585472 78.963071 
L 41.562764 78.389967 
L 39.082146 77.470534 
L 36.693831 76.129286 
L 31.04033 72.087486 
L 30.22115 71.237735 
L 29.332743 66.763293 
L 28.755855 66.046015 
L 28.663553 64.592705 
L 25.375292 56.46095 
L 23.783082 55.235025 
L 20.771728 53.443499 
L 19.491037 52.236716 
L 18.325723 50.690689 
L 17.471929 48.836958 
L 17.379627 46.838997 
L 18.60263 44.853908 
L 15.879719 40.83441 
L 15.614351 39.214404 
L 15.614351 35.849463 
L 14.991312 32.943515 
L 11.910731 28.168643 
L 10.768493 25.797553 
L 10.145455 21.934495 
L 10.63004 19.12573 
L 12.256864 18.185433 
L 15.129765 19.965787 
L 19.352584 24.104186 
L 21.717824 25.772465 
L 24.406121 26.7635 
L 30.290376 26.525143 
L 35.41314 24.091644 
L 39.624421 20.373297 
L 42.785766 16.330116 
L 44.897175 11.555168 
L 46.420159 8.961654 
L 48.670021 7.508514 
L 48.946927 6.782006 
L 49.339211 6.049277 
L 50.158392 5.729896 
L 50.862195 5.905241 
L 51.935206 6.550284 
L 52.177499 6.694327 
L 53.10052 6.875949 
L 54.531201 6.581597 
L 55.637904 8.336534 
L 57.747929 9.418426 
L 59.835974 9.768469 
L 61.499084 9.418426 
L 63.272091 8.336534 
L 64.268491 6.30028 
L 65.164954 4.339285 
L 69.664381 4.858962 
L 70.583913 8.933154 
L 71.448437 10.985741 
L 72.664632 12.545291 
L 74.877227 13.619582 
L 78.643035 14.701922 
L 81.529666 16.134572 
L 84.416298 17.344491 
L 85.962184 18.546562 
L 86.497017 20.839568 
L 86.497017 22.256979 
L 87.288276 23.483405 
L 88.724265 24.072768 
L 89.94046 24.072768 
L 93.691615 23.125022 
L 95.457295 22.018079 
L 95.918863 21.31733 
L 96.79804 19.62932 
L 97.911665 19.032199 
L 99.245083 19.62932 
L 100.12426 20.720131 
L 102.329529 22.018079 
L 104.212433 22.018079 
L 106.080684 20.959007 
L 108.732868 18.546562 
L 111.289808 16.389282 
L 113.839421 15.29884 
L 117.136335 13.492254 
L 118.689548 12.187215 
L 120.022966 11.932588 
L 123.554327 12.306572 
L 127.320135 13.022743 
L 130.84417 13.022743 
L 132.836971 12.187215 
L 133.738127 11.574528 
L 134.617304 10.253773 
L 138.046095 8.097893 
L 140.25869 8.097893 
L 142.148921 8.813828 
L 144.039151 9.418426 
L 145.797505 9.529802 
L 147.233494 10.134434 
L 149.138378 12.059901 
L 150.559714 13.730995 
L 152.889533 14.940686 
L 156.098529 15.657004 
L 157.212153 15.29884 
L 157.864209 14.463163 
L 158.09133 13.261475 
L 159.857011 12.059901 
L 162.736315 9.29114 
L 163.95251 8.933154 
L 166.282329 9.17181 
L 169.916261 8.813828 
L 172.363303 8.455855 
L 173.13991 8.933154 
L 173.13991 10.858439 
L 173.579498 13.142108 
L 174.693123 14.105032 
L 176.231682 15.657004 
L 178.224483 17.583304 
L 178.444278 18.546562 
L 178.664072 21.197888 
L 178.444278 23.714368 
L 178.444278 26.733204 
L 177.550448 30.214908 
L 176.671271 32.980228 
L 177.110859 35.020731 
L 178.444278 36.591182 
L 179.99749 36.591182 
L 182.327309 35.993272 
L 183.309057 33.577998 
L 183.858543 29.139223 
L 184.681771 28.400727 
L 185.741447 27.450183 
L 187.060212 26.358798 
L 188.173836 27.450183 
L 188.173836 31.179116 
L 189.053013 33.227303 
L 190.811367 33.936673 
L 193.375634 32.980228 
L 194.474605 30.940049 
L 195.705453 30.087414 
L 197.258666 30.326465 
L 198.885143 31.298651 
L 200.115991 31.059582 
L 201.229615 30.56552 
L 202.760848 31.059582 
L 204.101593 31.657263 
L 207.193365 33.10775 
L 208.966372 33.346857 
L 210.512259 33.577998 
L 212.717527 34.909132 
z
" clip-path="url(#pec89436945)" style="stroke: #000000; stroke-linejoin: miter"/>
   </g>
   <g id="line2d_1">
    <path d="M 213.054545 35.020731 
L 212.852288 37.343489 
L 209.852471 38.36053 
L 206.125776 41.688448 
L 205.07584 43.660489 
L 204.106669 46.173079 
L 203.391328 48.956343 
L 203.137497 51.708783 
L 203.425941 54.656681 
L 203.079808 55.932845 
L 201.729891 56.46095 
L 200.864559 57.045662 
L 199.88385 59.799824 
L 199.260811 60.680273 
L 197.068638 61.252597 
L 192.361233 61.296623 
L 190.549805 61.724311 
L 189.315266 62.881657 
L 187.849971 64.668198 
L 186.153921 66.291395 
L 184.215578 67.008686 
L 179.692777 68.015478 
L 175.585336 69.802725 
L 172.262462 70.469859 
L 170.127978 68.160211 
L 169.989525 72.502941 
L 165.974385 74.737809 
L 155.440414 76.702291 
L 153.317467 77.602778 
L 150.2715 79.435429 
L 148.217779 79.788133 
L 138.006865 78.717452 
L 127.842102 79.788133 
L 125.649929 80.317208 
L 123.642359 81.564398 
L 117.065838 87.052189 
L 115.611943 89.667986 
L 112.081067 89.667986 
L 109.077212 90.036221 
L 108.080812 91.124977 
L 107.099064 90.524549 
L 106.87927 88.347229 
L 108.5204 87.010597 
L 109.179783 87.858982 
L 111.949191 87.858982 
L 111.626826 83.633611 
L 106.974514 83.025526 
L 105.208834 84.601805 
L 104.329657 86.058231 
L 103.435827 85.321995 
L 101.66282 84.601805 
L 101.155321 85.663444 
L 97.020711 84.683694 
L 94.342491 82.805748 
L 93.607668 81.430183 
L 93.502694 79.424411 
L 92.662896 79.596323 
L 90.091017 79.539019 
L 89.618631 79.367108 
L 88.25396 80.857074 
L 87.781574 81.430183 
L 85.892029 81.716747 
L 84.842283 84.009486 
L 82.007966 83.66555 
L 80.328371 83.206982 
L 79.383599 84.296107 
L 79.464292 86.756004 
L 77.837468 87.279059 
L 71.907062 87.965994 
L 66.011268 86.91985 
L 60.403919 84.701796 
L 53.146671 80.625845 
L 50.539138 79.61178 
L 47.585472 78.963071 
L 41.562764 78.389967 
L 39.082146 77.470534 
L 36.693831 76.129286 
L 31.04033 72.087486 
L 30.22115 71.237735 
L 29.332743 66.763293 
L 28.755855 66.046015 
L 28.663553 64.592705 
L 25.375292 56.46095 
L 23.783082 55.235025 
L 20.771728 53.443499 
L 19.491037 52.236716 
L 18.325723 50.690689 
L 17.471929 48.836958 
L 17.379627 46.838997 
L 18.60263 44.853908 
L 15.879719 40.83441 
L 15.614351 39.214404 
L 15.614351 35.849463 
L 14.991312 32.943515 
L 11.910731 28.168643 
L 10.768493 25.797553 
L 10.145455 21.934495 
L 10.63004 19.12573 
L 12.256864 18.185433 
L 15.129765 19.965787 
L 19.352584 24.104186 
L 21.717824 25.772465 
L 24.406121 26.7635 
L 30.290376 26.525143 
L 35.41314 24.091644 
L 39.624421 20.373297 
L 42.785766 16.330116 
L 44.897175 11.555168 
L 46.420159 8.961654 
L 48.670021 7.508514 
L 49.339211 6.049277 
L 50.158392 5.729896 
L 50.862195 5.905241 
L 52.177499 6.694327 
L 53.10052 6.875949 
L 54.531201 6.581597 
L 55.637904 8.336534 
L 57.747929 9.418426 
L 59.835974 9.768469 
L 61.499084 9.418426 
L 63.272091 8.336534 
L 65.164954 4.339285 
L 69.664381 4.858962 
L 70.583913 8.933154 
L 71.448437 10.985741 
L 72.664632 12.545291 
L 74.877227 13.619582 
L 78.643035 14.701922 
L 81.529666 16.134572 
L 84.416298 17.344491 
L 85.962184 18.546562 
L 86.497017 20.839568 
L 86.497017 22.256979 
L 87.288276 23.483405 
L 88.724265 24.072768 
L 89.94046 24.072768 
L 93.691615 23.125022 
L 95.457295 22.018079 
L 95.918863 21.31733 
L 96.79804 19.62932 
L 97.911665 19.032199 
L 99.245083 19.62932 
L 100.12426 20.720131 
L 102.329529 22.018079 
L 104.212433 22.018079 
L 106.080684 20.959007 
L 108.732868 18.546562 
L 111.289808 16.389282 
L 113.839421 15.29884 
L 117.136335 13.492254 
L 118.689548 12.187215 
L 120.022966 11.932588 
L 123.554327 12.306572 
L 127.320135 13.022743 
L 130.84417 13.022743 
L 132.836971 12.187215 
L 133.738127 11.574528 
L 134.617304 10.253773 
L 138.046095 8.097893 
L 140.25869 8.097893 
L 144.039151 9.418426 
L 145.797505 9.529802 
L 147.233494 10.134434 
L 149.138378 12.059901 
L 150.559714 13.730995 
L 152.889533 14.940686 
L 156.098529 15.657004 
L 157.212153 15.29884 
L 157.864209 14.463163 
L 158.09133 13.261475 
L 159.857011 12.059901 
L 162.736315 9.29114 
L 163.95251 8.933154 
L 166.282329 9.17181 
L 169.916261 8.813828 
L 172.363303 8.455855 
L 173.13991 8.933154 
L 173.13991 10.858439 
L 173.579498 13.142108 
L 174.693123 14.105032 
L 178.224483 17.583304 
L 178.444278 18.546562 
L 178.664072 21.197888 
L 178.444278 23.714368 
L 178.444278 26.733204 
L 177.550448 30.214908 
L 176.671271 32.980228 
L 177.110859 35.020731 
L 178.444278 36.591182 
L 179.99749 36.591182 
L 182.327309 35.993272 
L 183.309057 33.577998 
L 183.858543 29.139223 
L 187.060212 26.358798 
L 188.173836 27.450183 
L 188.173836 31.179116 
L 189.053013 33.227303 
L 190.811367 33.936673 
L 193.375634 32.980228 
L 194.474605 30.940049 
L 195.705453 30.087414 
L 197.258666 30.326465 
L 198.885143 31.298651 
L 200.115991 31.059582 
L 201.229615 30.56552 
L 202.760848 31.059582 
L 207.193365 33.10775 
L 210.512259 33.577998 
L 213.054545 35.020731 
L 213.054545 35.020731 
" clip-path="url(#pec89436945)" style="fill: none; stroke: #000000; stroke-width: 0.5; stroke-linecap: square"/>
   </g>
  </g>
 </g>
 <defs>
  <clipPath id="pec89436945">
   <rect x="0" y="-0" width="223.2" height="95.464261"/>
  </clipPath>
 </defs>
</svg>
