<?xml version="1.0" encoding="utf-8" standalone="no"?>
<!DOCTYPE svg PUBLIC "-//W3C//DTD SVG 1.1//EN"
  "http://www.w3.org/Graphics/SVG/1.1/DTD/svg11.dtd">
<svg xmlns:xlink="http://www.w3.org/1999/xlink" width="223.2pt" height="52.504909pt" viewBox="0 0 223.2 52.504909" xmlns="http://www.w3.org/2000/svg" version="1.1">
 <metadata>
  <rdf:RDF xmlns:dc="http://purl.org/dc/elements/1.1/" xmlns:cc="http://creativecommons.org/ns#" xmlns:rdf="http://www.w3.org/1999/02/22-rdf-syntax-ns#">
   <cc:Work>
    <dc:type rdf:resource="http://purl.org/dc/dcmitype/StillImage"/>
    <dc:date>2026-04-26T19:22:13.747984</dc:date>
    <dc:format>image/svg+xml</dc:format>
    <dc:creator>
     <cc:Agent>
      <dc:title>Matplotlib v3.10.9, https://matplotlib.org/</dc:title>
     </cc:Agent>
    </dc:creator>
   </cc:Work>
  </rdf:RDF>
 </metadata>
 <defs>
  <style type="text/css">*{stroke-linejoin: round; stroke-linecap: butt}</style>
 </defs>
 <g id="figure_1">
  <g id="patch_1">
   <path d="M 0 52.504909 
L 223.2 52.504909 
L 223.2 0 
L 0 0 
z
" style="fill: #ffffff"/>
  </g>
  <g id="axes_1">
   <g id="patch_2">
    <path d="M 205.919135 38.017009 
L 207.022628 39.011478 
L 210.432863 40.526149 
L 211.04732 42.040949 
L 209.326841 43.388782 
L 209.941297 44.736717 
L 213.054545 45.906494 
L 212.265992 48.435701 
L 210.576236 47.923146 
L 210.105152 47.767154 
L 207.022628 45.906494 
L 204.861788 45.583405 
L 202.383478 45.249181 
L 198.061799 43.22169 
L 196.187705 42.386252 
L 194.047348 41.695652 
L 192.490723 42.386252 
L 190.770244 42.720422 
L 188.496754 41.361501 
L 186.325673 41.027356 
L 184.605194 42.219169 
L 183.069052 45.070931 
L 179.48472 46.40785 
L 177.026893 45.416292 
L 175.797979 42.553336 
L 175.797979 37.341033 
L 174.241356 35.815496 
L 172.397985 37.341033 
L 170.91677 38.669704 
L 169.766061 39.701974 
L 168.997991 45.906494 
L 167.625704 49.282564 
L 164.369082 50.118322 
L 162.198002 50.118322 
L 160.334149 47.923146 
L 159.719692 45.070931 
L 160.948606 41.205566 
L 162.198002 36.33884 
L 162.198002 32.119111 
L 162.50523 28.601575 
L 162.198002 24.895552 
L 161.890773 23.549109 
L 159.105236 20.856528 
L 156.954637 18.687181 
L 155.398013 17.341206 
L 154.783556 14.149093 
L 154.783556 11.457929 
L 153.698015 10.790761 
L 150.277539 11.291135 
L 145.198029 11.791522 
L 141.941408 11.457929 
L 140.241411 11.958321 
L 136.216718 15.828496 
L 133.74865 17.508057 
L 133.431181 19.187776 
L 132.519737 20.355886 
L 130.963113 20.856528 
L 126.477578 19.855258 
L 123.220956 18.164352 
L 121.234213 15.828496 
L 118.571567 13.137079 
L 116.564341 12.291924 
L 114.106514 12.136242 
L 111.464349 11.291135 
L 108.822185 10.290401 
L 105.729419 10.290401 
L 100.936655 13.30389 
L 99.707742 15.150043 
L 98.448105 16.006455 
L 95.662568 17.174357 
L 90.736672 17.174357 
L 85.472825 16.173293 
L 80.536689 15.650538 
L 78.672836 16.006455 
L 76.501755 17.83064 
L 71.893329 20.355886 
L 68.329479 21.880106 
L 64.755389 24.895552 
L 61.048166 28.267667 
L 58.436725 29.748038 
L 55.804801 29.748038 
L 52.722276 27.933766 
L 51.493362 26.40903 
L 49.62951 25.574376 
L 48.072886 26.40903 
L 46.843972 28.768531 
L 46.198793 29.748038 
L 43.730724 31.295323 
L 38.487359 32.620083 
L 36.787362 32.620083 
L 34.780136 31.796271 
L 33.674114 30.081973 
L 33.674114 28.100716 
L 32.926525 24.895552 
L 30.765685 23.215296 
L 26.730752 21.524072 
L 22.695819 19.521514 
L 17.431972 18.008619 
L 14.339206 16.506975 
L 12.639208 14.327035 
L 11.430777 11.457929 
L 10.145455 5.763023 
L 14.07714 6.209049 
L 13.919327 7.566468 
L 14.339206 10.123618 
L 15.89583 12.291924 
L 18.066911 14.482737 
L 20.534979 15.650538 
L 23.637986 16.506975 
L 30.60183 18.008619 
L 34.472908 20.200134 
L 37.565674 23.727145 
L 39.409044 28.100716 
L 42.522293 28.267667 
L 43.730724 26.40903 
L 45.594577 24.216754 
L 46.843972 23.727145 
L 49.158426 23.215296 
L 53.787335 23.727145 
L 55.958415 24.04984 
L 58.262628 23.727145 
L 60.751179 23.215296 
L 65.236713 21.023411 
L 69.107792 17.007509 
L 74.043928 14.816386 
L 77.443922 13.137079 
L 82.3903 11.791522 
L 86.865594 9.767819 
L 90.265588 8.767171 
L 92.897512 11.124342 
L 95.078833 10.790761 
L 99.400513 6.421429 
L 102.483038 5.42097 
L 108.975799 4.420567 
L 115.663137 6.743812 
L 118.878795 8.433635 
L 124.941436 8.933942 
L 130.645643 10.290401 
L 133.74865 10.457187 
L 135.919731 9.434263 
L 139.606472 9.434263 
L 145.495017 7.777697 
L 146.734171 6.932797 
L 148.270313 4.754028 
L 150.605249 2.742238 
L 153.226932 2.386587 
L 154.783556 3.575825 
L 155.398013 6.087936 
L 156.032951 9.111833 
L 158.470297 13.30389 
L 160.641377 16.840663 
L 164.369082 22.881489 
L 165.761851 24.895552 
L 165.761851 28.768531 
L 165.761851 32.954071 
L 164.676311 37.018098 
L 163.59077 42.219169 
L 163.734144 44.224267 
L 165.761851 44.736717 
L 165.761851 43.388782 
L 166.06908 41.205566 
L 166.683536 38.510328 
L 167.625704 37.018098 
L 169.141364 33.121068 
L 170.390759 32.119111 
L 171.783528 32.119111 
L 173.616658 32.453091 
L 176.105208 33.299199 
L 177.334122 33.121068 
L 177.651591 30.939101 
L 178.419662 29.581073 
L 179.648576 29.581073 
L 181.348573 30.939101 
L 182.597968 32.787076 
L 183.519653 35.982519 
L 186.008204 37.675109 
L 188.496754 38.009192 
L 190.626871 36.33884 
L 192.961807 35.314435 
L 197.611197 38.677376 
L 200.519626 38.677376 
L 201.297938 38.343281 
L 204.247331 38.677376 
z
" clip-path="url(#p1cb546bac2)" style="stroke: #000000; stroke-linejoin: miter"/>
   </g>
   <g id="line2d_1">
    <path d="M 205.919135 38.017009 
L 207.022628 39.011478 
L 210.432863 40.526149 
L 211.04732 42.040949 
L 209.326841 43.388782 
L 209.941297 44.736717 
L 213.054545 45.906494 
L 212.265992 48.435701 
L 210.105152 47.767154 
L 207.022628 45.906494 
L 202.383478 45.249181 
L 196.187705 42.386252 
L 194.047348 41.695652 
L 192.490723 42.386252 
L 190.770244 42.720422 
L 188.496754 41.361501 
L 186.325673 41.027356 
L 184.605194 42.219169 
L 183.069052 45.070931 
L 179.48472 46.40785 
L 177.026893 45.416292 
L 175.797979 42.553336 
L 175.797979 37.341033 
L 174.241356 35.815496 
L 170.91677 38.669704 
L 169.766061 39.701974 
L 168.997991 45.906494 
L 167.625704 49.282564 
L 164.369082 50.118322 
L 162.198002 50.118322 
L 160.334149 47.923146 
L 159.719692 45.070931 
L 160.948606 41.205566 
L 162.198002 36.33884 
L 162.198002 32.119111 
L 162.50523 28.601575 
L 162.198002 24.895552 
L 161.890773 23.549109 
L 155.398013 17.341206 
L 154.783556 14.149093 
L 154.783556 11.457929 
L 153.698015 10.790761 
L 150.277539 11.291135 
L 145.198029 11.791522 
L 141.941408 11.457929 
L 140.241411 11.958321 
L 136.216718 15.828496 
L 133.74865 17.508057 
L 133.431181 19.187776 
L 132.519737 20.355886 
L 130.963113 20.856528 
L 126.477578 19.855258 
L 123.220956 18.164352 
L 121.234213 15.828496 
L 118.571567 13.137079 
L 116.564341 12.291924 
L 114.106514 12.136242 
L 111.464349 11.291135 
L 108.822185 10.290401 
L 105.729419 10.290401 
L 100.936655 13.30389 
L 99.707742 15.150043 
L 98.448105 16.006455 
L 95.662568 17.174357 
L 90.736672 17.174357 
L 85.472825 16.173293 
L 80.536689 15.650538 
L 78.672836 16.006455 
L 76.501755 17.83064 
L 71.893329 20.355886 
L 68.329479 21.880106 
L 64.755389 24.895552 
L 61.048166 28.267667 
L 58.436725 29.748038 
L 55.804801 29.748038 
L 52.722276 27.933766 
L 51.493362 26.40903 
L 49.62951 25.574376 
L 48.072886 26.40903 
L 46.843972 28.768531 
L 46.198793 29.748038 
L 43.730724 31.295323 
L 38.487359 32.620083 
L 36.787362 32.620083 
L 34.780136 31.796271 
L 33.674114 30.081973 
L 33.674114 28.100716 
L 32.926525 24.895552 
L 30.765685 23.215296 
L 26.730752 21.524072 
L 22.695819 19.521514 
L 17.431972 18.008619 
L 14.339206 16.506975 
L 12.639208 14.327035 
L 11.430777 11.457929 
L 10.145455 5.763023 
L 14.07714 6.209049 
L 13.919327 7.566468 
L 14.339206 10.123618 
L 15.89583 12.291924 
L 18.066911 14.482737 
L 20.534979 15.650538 
L 23.637986 16.506975 
L 30.60183 18.008619 
L 34.472908 20.200134 
L 37.565674 23.727145 
L 39.409044 28.100716 
L 42.522293 28.267667 
L 43.730724 26.40903 
L 45.594577 24.216754 
L 46.843972 23.727145 
L 49.158426 23.215296 
L 55.958415 24.04984 
L 58.262628 23.727145 
L 60.751179 23.215296 
L 65.236713 21.023411 
L 69.107792 17.007509 
L 74.043928 14.816386 
L 77.443922 13.137079 
L 82.3903 11.791522 
L 86.865594 9.767819 
L 90.265588 8.767171 
L 92.897512 11.124342 
L 95.078833 10.790761 
L 99.400513 6.421429 
L 102.483038 5.42097 
L 108.975799 4.420567 
L 115.663137 6.743812 
L 118.878795 8.433635 
L 124.941436 8.933942 
L 130.645643 10.290401 
L 133.74865 10.457187 
L 135.919731 9.434263 
L 139.606472 9.434263 
L 145.495017 7.777697 
L 146.734171 6.932797 
L 148.270313 4.754028 
L 150.605249 2.742238 
L 153.226932 2.386587 
L 154.783556 3.575825 
L 156.032951 9.111833 
L 160.641377 16.840663 
L 164.369082 22.881489 
L 165.761851 24.895552 
L 165.761851 32.954071 
L 164.676311 37.018098 
L 163.59077 42.219169 
L 163.734144 44.224267 
L 165.761851 44.736717 
L 165.761851 43.388782 
L 166.06908 41.205566 
L 166.683536 38.510328 
L 167.625704 37.018098 
L 169.141364 33.121068 
L 170.390759 32.119111 
L 171.783528 32.119111 
L 173.616658 32.453091 
L 176.105208 33.299199 
L 177.334122 33.121068 
L 177.651591 30.939101 
L 178.419662 29.581073 
L 179.648576 29.581073 
L 181.348573 30.939101 
L 182.597968 32.787076 
L 183.519653 35.982519 
L 186.008204 37.675109 
L 188.496754 38.009192 
L 190.626871 36.33884 
L 192.961807 35.314435 
L 197.611197 38.677376 
L 200.519626 38.677376 
L 201.297938 38.343281 
L 204.247331 38.677376 
L 205.919135 38.017009 
L 205.919135 38.017009 
" clip-path="url(#p1cb546bac2)" style="fill: none; stroke: #000000; stroke-width: 0.5; stroke-linecap: square"/>
   </g>
  </g>
 </g>
 <defs>
  <clipPath id="p1cb546bac2">
   <rect x="0" y="0" width="223.2" height="52.504909"/>
  </clipPath>
 </defs>
</svg>
