<?xml version="1.0" encoding="utf-8" standalone="no"?>
<!DOCTYPE svg PUBLIC "-//W3C//DTD SVG 1.1//EN"
  "http://www.w3.org/Graphics/SVG/1.1/DTD/svg11.dtd">
<svg xmlns:xlink="http://www.w3.org/1999/xlink" width="223.2pt" height="70.472217pt" viewBox="0 0 223.2 70.472217" xmlns="http://www.w3.org/2000/svg" version="1.1">
 <metadata>
  <rdf:RDF xmlns:dc="http://purl.org/dc/elements/1.1/" xmlns:cc="http://creativecommons.org/ns#" xmlns:rdf="http://www.w3.org/1999/02/22-rdf-syntax-ns#">
   <cc:Work>
    <dc:type rdf:resource="http://purl.org/dc/dcmitype/StillImage"/>
    <dc:date>2026-04-26T19:21:54.910609</dc:date>
    <dc:format>image/svg+xml</dc:format>
    <dc:creator>
     <cc:Agent>
      <dc:title>Matplotlib v3.10.9, https://matplotlib.org/</dc:title>
     </cc:Agent>
    </dc:creator>
   </cc:Work>
  </rdf:RDF>
 </metadata>
 <defs>
  <style type="text/css">*{stroke-linejoin: round; stroke-linecap: butt}</style>
 </defs>
 <g id="figure_1">
  <g id="patch_1">
   <path d="M 0 70.472217 
L 223.2 70.472217 
L 223.2 0 
L 0 0 
z
" style="fill: #ffffff"/>
  </g>
  <g id="axes_1">
   <g id="patch_2">
    <path d="M 92.201439 7.778995 
L 92.840381 7.790738 
L 93.925962 7.628948 
L 97.353297 7.763337 
L 97.41533 7.545452 
L 97.37811 6.669095 
L 97.343992 6.597398 
L 97.325382 6.50094 
L 97.353297 6.360178 
L 97.437042 6.274164 
L 97.7317 6.096944 
L 97.82475 5.969258 
L 97.790631 5.237281 
L 97.334687 4.884479 
L 96.847726 4.680136 
L 96.720558 4.395157 
L 96.72366 4.395157 
L 96.860133 4.309286 
L 97.012114 4.242935 
L 97.182706 4.200005 
L 97.353297 4.180491 
L 97.78753 4.012689 
L 97.927104 3.896933 
L 98.010849 3.68951 
L 98.581555 3.967166 
L 100.101368 4.144067 
L 100.355705 4.392554 
L 100.709294 4.577327 
L 101.13112 4.687945 
L 101.469201 4.651505 
L 101.568454 4.395157 
L 101.568454 4.392554 
L 101.838298 4.063418 
L 102.226006 3.919043 
L 102.576494 4.012689 
L 102.716068 4.395157 
L 102.99832 4.764732 
L 104.707335 4.779049 
L 105.507563 4.989918 
L 105.98832 5.402653 
L 105.957304 5.646194 
L 105.696764 5.910631 
L 105.485851 6.374514 
L 105.5758 6.732975 
L 105.854949 7.177616 
L 106.208538 7.595027 
L 106.528009 7.869032 
L 107.12663 8.124827 
L 107.669421 8.252745 
L 108.125365 8.453787 
L 108.485157 8.927806 
L 108.494462 9.173378 
L 108.410717 9.42684 
L 108.385904 9.667286 
L 108.578207 9.876409 
L 108.952826 9.939792 
L 109.003135 9.948304 
L 109.335012 9.761387 
L 109.620365 9.492174 
L 109.899515 9.306635 
L 111.149484 9.250456 
L 117.154299 10.374531 
L 117.495482 10.496152 
L 117.892494 10.821841 
L 118.112712 10.936965 
L 118.429081 10.990606 
L 120.922817 10.667487 
L 121.667215 10.70542 
L 121.73235 10.878093 
L 121.828502 11.032474 
L 123.345214 12.416247 
L 123.537517 12.452925 
L 124.368762 12.439826 
L 126.146013 12.080958 
L 126.642279 12.118935 
L 127.045495 12.328487 
L 127.436304 12.726735 
L 127.696844 13.070068 
L 127.861232 13.420053 
L 127.792995 13.72162 
L 127.361864 13.910466 
L 127.302933 13.993095 
L 127.278119 14.074419 
L 127.299831 14.154435 
L 127.361864 14.230522 
L 128.636647 14.104588 
L 130.497643 13.1356 
L 131.763121 13.205069 
L 132.712229 13.59574 
L 133.168173 13.71113 
L 133.673744 13.648188 
L 134.03974 13.400388 
L 134.256856 13.076621 
L 134.477074 12.822386 
L 134.864781 12.777835 
L 135.953464 12.789628 
L 136.933589 12.924598 
L 137.854782 13.205069 
L 140.410551 14.662207 
L 140.683497 15.146561 
L 139.740592 15.355325 
L 139.855353 15.547053 
L 139.855353 15.631108 
L 139.771609 15.702033 
L 139.641339 15.849151 
L 139.594814 15.977895 
L 139.554492 16.173663 
L 139.557594 16.323466 
L 139.641339 16.309011 
L 139.383901 16.503518 
L 138.76667 16.833463 
L 138.484419 17.047779 
L 137.969544 17.109582 
L 137.008029 16.964941 
L 136.536576 17.047779 
L 136.303952 17.376556 
L 135.854211 17.585705 
L 135.326929 17.755418 
L 134.864781 17.964632 
L 134.700393 18.000163 
L 134.424346 18.094916 
L 134.241348 18.104128 
L 134.387126 18.387117 
L 134.442955 18.464786 
L 133.844335 18.391066 
L 133.608609 18.795264 
L 133.89086 19.250969 
L 134.864781 19.344502 
L 135.252489 20.002068 
L 135.395165 20.149707 
L 135.779771 20.318458 
L 135.999989 20.292089 
L 136.214004 20.190574 
L 136.564491 20.128614 
L 137.932324 20.128614 
L 138.217677 20.177391 
L 138.428589 20.41471 
L 138.450301 20.652075 
L 138.425488 20.88421 
L 138.503029 21.107153 
L 139.036515 21.493773 
L 140.373331 21.760387 
L 141.040188 22.015176 
L 141.471319 22.346613 
L 142.234327 23.104897 
L 142.66856 23.427375 
L 143.050064 23.804147 
L 143.95885 24.322561 
L 144.284525 24.806787 
L 144.625708 25.680462 
L 144.907959 26.000964 
L 145.435241 26.379845 
L 146.468094 26.903316 
L 147.727368 27.262585 
L 148.946321 27.213527 
L 149.870616 26.520299 
L 150.537473 26.255305 
L 150.903469 25.970499 
L 151.229143 25.623522 
L 151.768832 25.176038 
L 152.441892 24.85972 
L 153.037411 24.812081 
L 153.639133 24.834577 
L 154.003935 24.783615 
L 154.340109 24.736655 
L 154.62236 24.59905 
L 155.121727 24.21939 
L 155.48152 24.083164 
L 155.745161 24.077874 
L 156.300358 24.186324 
L 156.570203 24.175743 
L 156.644643 24.081842 
L 156.638439 23.772414 
L 156.722184 23.702341 
L 157.16262 23.706307 
L 157.342516 23.773736 
L 157.482091 23.92844 
L 157.801562 24.190292 
L 158.164456 24.265684 
L 158.356759 24.047457 
L 158.297828 23.710273 
L 157.907019 23.427375 
L 157.863595 22.806283 
L 157.547226 22.347934 
L 157.001334 22.020457 
L 156.269342 21.786787 
L 155.707941 21.471338 
L 155.413283 20.976548 
L 155.189964 20.43317 
L 154.848781 19.966479 
L 153.887266 19.195643 
L 153.884165 18.840036 
L 154.699901 18.571424 
L 155.385368 18.618822 
L 156.231984 18.894437 
L 156.675659 19.0389 
L 157.370431 18.99412 
L 160.453482 19.463075 
L 160.782258 19.572435 
L 161.480132 19.891351 
L 161.864738 20.002068 
L 162.277258 20.004704 
L 163.192248 19.901895 
L 163.542736 19.959889 
L 163.477601 20.031067 
L 163.579956 20.307911 
L 163.766056 20.637568 
L 163.945952 20.859148 
L 164.24061 21.033274 
L 165.298276 21.397436 
L 166.011658 21.50961 
L 167.419812 21.487174 
L 168.040144 21.631032 
L 167.488048 21.752467 
L 167.571793 21.848831 
L 167.67725 21.934641 
L 167.801316 22.008575 
L 167.937789 22.07327 
L 167.900569 22.406044 
L 167.959501 22.72966 
L 168.167312 22.992578 
L 168.567426 23.157756 
L 168.893101 22.690029 
L 169.556856 22.662288 
L 170.211306 22.951617 
L 170.490456 23.427375 
L 170.642437 23.482892 
L 170.803724 23.50272 
L 170.961908 23.484214 
L 171.116991 23.427375 
L 171.997863 22.843276 
L 173.427729 22.771934 
L 176.110665 23.030897 
L 176.805437 22.931798 
L 177.320313 22.701918 
L 178.210489 22.029699 
L 178.377979 21.821109 
L 178.455521 21.646871 
L 178.650925 21.578238 
L 179.159598 21.681188 
L 179.327087 21.766987 
L 179.879183 22.173621 
L 179.953623 22.231722 
L 179.969131 22.300391 
L 179.947419 22.376988 
L 179.879183 22.457552 
L 179.553508 22.935762 
L 179.494577 23.16965 
L 179.562813 23.427375 
L 179.879183 23.599221 
L 180.347534 24.072584 
L 180.065282 24.460136 
L 179.457357 24.748564 
L 178.179473 25.168096 
L 177.379244 25.340185 
L 175.930769 25.370634 
L 175.601993 25.461985 
L 175.381775 25.720189 
L 175.443808 25.906924 
L 176.901589 26.920548 
L 177.369939 27.037201 
L 177.673902 27.006711 
L 177.928238 26.92585 
L 178.247709 26.884759 
L 178.64162 26.943083 
L 179.457357 27.165797 
L 179.879183 27.214853 
L 179.891589 27.240045 
L 179.897793 27.263911 
L 179.891589 27.283799 
L 179.879183 27.302363 
L 179.600033 27.433638 
L 179.503882 27.574212 
L 179.596932 27.721433 
L 179.879183 27.876631 
L 180.21106 28.095532 
L 180.41577 28.379498 
L 180.58326 28.696715 
L 180.818986 29.003389 
L 181.157067 29.261001 
L 183.101808 30.329197 
L 184.193593 30.456804 
L 185.285377 30.273373 
L 186.169351 29.837501 
L 186.715243 29.759113 
L 187.918687 29.739185 
L 188.89571 29.578442 
L 189.047692 29.465535 
L 188.994964 29.209209 
L 188.784051 29.031273 
L 188.526613 29.027289 
L 188.287785 29.068451 
L 188.1296 29.031273 
L 187.996229 28.449836 
L 188.495241 28.518624 
L 188.920524 28.577251 
L 190.672962 29.209209 
L 190.477557 29.683388 
L 190.868367 29.933167 
L 192.785193 30.133824 
L 193.241137 30.273373 
L 194.187144 30.724022 
L 194.540733 30.811778 
L 195.24481 30.892892 
L 195.601501 31.039174 
L 195.728669 31.180154 
L 195.93648 31.579239 
L 196.10397 31.753546 
L 196.699489 32.023703 
L 197.133721 31.97579 
L 197.974271 31.569926 
L 197.940153 31.526021 
L 197.899831 31.496751 
L 197.847103 31.482117 
L 197.781968 31.482117 
L 198.991616 31.399635 
L 200.151637 31.628469 
L 202.381731 32.311225 
L 203.079605 32.309894 
L 204.261337 31.890614 
L 204.704875 32.039675 
L 204.890975 32.506937 
L 204.816535 32.902448 
L 204.946804 33.218147 
L 205.743931 33.456639 
L 204.918889 33.988412 
L 204.931296 34.680452 
L 205.452375 35.464955 
L 206.159554 36.276654 
L 206.460415 37.02874 
L 206.649616 37.222512 
L 207.04973 37.378886 
L 207.974025 37.424332 
L 208.402054 37.496514 
L 208.792864 37.67565 
L 209.382179 38.064757 
L 209.760582 38.19181 
L 210.197916 38.171748 
L 210.666267 38.05807 
L 211.134617 38.012601 
L 211.584358 38.199835 
L 211.708425 38.401811 
L 211.910033 39.293026 
L 212.049607 39.542035 
L 212.403197 39.99466 
L 212.536568 40.229071 
L 212.967699 41.334726 
L 213.054545 41.871145 
L 212.927377 42.304467 
L 211.69912 42.323252 
L 211.137719 42.44402 
L 209.90636 43.082936 
L 209.06581 43.109788 
L 208.197345 42.959423 
L 207.214118 42.680221 
L 207.006307 42.656062 
L 206.798496 42.680221 
L 205.942438 42.935259 
L 204.614927 42.826526 
L 203.997696 43.046686 
L 203.842613 43.26017 
L 203.768173 43.743661 
L 203.616192 43.972039 
L 203.368059 44.11446 
L 202.381731 44.414133 
L 201.103847 45.298775 
L 200.430786 45.548951 
L 199.556118 45.437308 
L 199.481678 46.673995 
L 198.774177 46.988474 
L 197.664105 47.482045 
L 193.625743 48.376873 
L 192.74177 48.852838 
L 192.019083 49.52191 
L 191.457682 50.318229 
L 191.076178 51.175826 
L 190.96762 51.877178 
L 190.972773 52.034557 
L 191.011043 53.203879 
L 190.812537 53.779063 
L 190.189103 54.384293 
L 189.30513 54.857026 
L 188.309497 55.119879 
L 186.699735 55.048064 
L 185.973946 55.113104 
L 185.344309 55.346192 
L 184.947296 55.804356 
L 184.761197 56.193513 
L 184.528572 57.006096 
L 184.283541 57.365745 
L 183.731445 57.676614 
L 183.157638 57.695622 
L 182.524899 57.63317 
L 181.786704 57.706483 
L 181.302845 57.93867 
L 180.26689 58.968384 
L 179.736506 59.222539 
L 173.970519 60.536218 
L 172.872531 60.436899 
L 171.95444 59.875137 
L 171.517106 59.752751 
L 170.803724 59.873777 
L 170.253445 60.08276 
L 169.668516 60.304939 
L 169.147437 60.362075 
L 165.723203 59.357111 
L 164.280931 59.139627 
L 162.937912 59.305455 
L 161.325049 59.985295 
L 161.052102 60.230122 
L 160.875308 60.726714 
L 160.444177 61.043813 
L 159.411324 61.562494 
L 158.673129 62.292528 
L 157.156417 64.837808 
L 156.812132 65.205714 
L 156.337578 65.543675 
L 156.263138 66.045652 
L 155.227184 65.342253 
L 154.811561 63.594225 
L 154.101281 63.013417 
L 153.608117 62.991607 
L 152.454299 63.230168 
L 151.87739 63.271068 
L 151.325295 63.151097 
L 150.239713 62.732646 
L 149.780668 62.64134 
L 148.639256 62.668595 
L 148.161601 62.619537 
L 147.76769 62.458747 
L 147.550574 62.146762 
L 147.438914 61.768116 
L 147.203188 61.450845 
L 146.62938 61.316062 
L 146.074183 61.277944 
L 144.281423 60.97576 
L 143.769649 60.785229 
L 143.493601 60.730796 
L 143.217554 60.752569 
L 142.674763 60.885935 
L 142.364597 60.8941 
L 141.499234 60.820611 
L 140.978155 61.022036 
L 139.455239 62.536415 
L 139.126463 62.71493 
L 138.655011 62.795338 
L 138.487521 62.763992 
L 138.090508 62.575931 
L 137.467075 62.630439 
L 137.432956 62.648154 
L 133.236409 62.287078 
L 130.463525 62.38381 
L 128.872373 61.983304 
L 125.854457 60.709024 
L 125.811034 60.578397 
L 125.811034 60.396085 
L 125.652849 60.283173 
L 125.144177 60.359354 
L 125.11316 60.08186 
L 124.889841 59.963534 
L 124.55176 59.955374 
L 124.173357 60.007055 
L 124.480421 59.771788 
L 124.229187 59.781306 
L 124.005867 59.722836 
L 123.677091 59.584148 
L 123.103284 59.559675 
L 122.898574 59.509371 
L 122.749695 59.374783 
L 122.62873 59.051285 
L 122.455037 58.975179 
L 121.536945 58.976538 
L 121.276406 59.013231 
L 120.209435 59.339439 
L 119.703864 59.431879 
L 119.012194 59.431879 
L 118.339133 59.339439 
L 116.009786 58.57977 
L 114.222889 58.178674 
L 113.534661 58.024223 
L 112.052067 57.282949 
L 111.406922 57.069876 
L 110.073208 56.810705 
L 108.630935 56.387457 
L 107.960977 56.277597 
L 106.555924 56.268104 
L 106.407045 56.208431 
L 106.282978 56.078246 
L 106.130997 55.969768 
L 105.901474 55.971124 
L 105.780509 56.078246 
L 105.706069 56.430861 
L 105.606816 56.56922 
L 105.191194 56.856837 
L 105.036111 56.913825 
L 102.747085 57.269377 
L 102.151566 57.26259 
L 102.350072 56.888044 
L 102.362479 56.531238 
L 102.235311 56.174527 
L 102.015093 55.804356 
L 99.679543 55.694545 
L 98.010849 55.365166 
L 97.353297 55.413957 
L 97.257146 55.457329 
L 97.210621 55.545433 
L 97.210621 55.667432 
L 97.238536 55.809779 
L 96.829116 56.363043 
L 96.81671 57.110588 
L 96.940776 57.914227 
L 96.937675 58.640908 
L 96.301834 60.288615 
L 96.084718 60.620577 
L 96.035091 60.804281 
L 96.094023 60.970316 
L 96.224293 61.178569 
L 96.357664 61.348735 
L 96.422799 61.396386 
L 96.078515 61.858001 
L 95.470589 61.890688 
L 93.919759 61.521646 
L 92.35342 61.396386 
L 91.900578 61.497138 
L 91.723783 61.747689 
L 91.602818 62.067755 
L 91.301957 62.376997 
L 91.149976 62.881202 
L 89.57123 63.688324 
L 89.003627 64.2244 
L 88.895068 64.937453 
L 88.910577 65.745126 
L 88.758595 66.432336 
L 88.622631 66.511851 
L 88.156873 66.784273 
L 87.663709 66.765136 
L 87.427983 66.592234 
L 87.251188 66.343512 
L 86.928616 66.094152 
L 86.733211 66.068877 
L 86.274165 66.162465 
L 86.041541 66.147436 
L 85.945389 66.036089 
L 85.942287 65.859864 
L 85.905068 65.691175 
L 85.712765 65.592157 
L 85.250617 65.614009 
L 84.351135 65.866694 
L 83.901395 65.925434 
L 83.547805 65.87489 
L 82.350564 65.508851 
L 81.630979 65.014581 
L 81.193645 65.190695 
L 80.520585 66.233514 
L 80.04603 66.518432 
L 78.485895 66.911403 
L 77.881071 67.195096 
L 77.645345 67.249791 
L 77.356891 67.268934 
L 74.379296 66.653738 
L 70.12692 66.374941 
L 69.106473 66.124893 
L 68.855239 65.993738 
L 68.337261 65.61674 
L 68.206992 65.471979 
L 68.067417 65.111509 
L 68.123247 65.035059 
L 68.293838 64.9982 
L 68.495446 64.751136 
L 68.585394 64.71292 
L 68.731172 64.729298 
L 68.867645 64.704731 
L 68.923475 64.539598 
L 68.845934 64.378579 
L 68.666037 64.304898 
L 68.458226 64.25578 
L 68.306245 64.172556 
L 68.113942 63.955653 
L 67.614574 63.509679 
L 67.350933 63.343329 
L 65.331752 62.697213 
L 64.6742 62.379722 
L 64.128308 62.131777 
L 63.557602 61.950615 
L 62.351056 61.762669 
L 61.764842 61.41 
L 60.316367 59.736433 
L 59.618493 59.107008 
L 59.196667 58.971102 
L 58.078519 58.869182 
L 57.510915 58.714278 
L 56.999141 58.419466 
L 56.53079 58.009285 
L 56.211319 57.531352 
L 56.136879 57.034593 
L 55.590987 57.069876 
L 55.079213 56.90704 
L 54.57054 56.672321 
L 54.043258 56.486474 
L 53.548127 56.426002 
L 53.354689 56.402377 
L 52.939067 56.512247 
L 52.653714 56.801208 
L 52.343548 57.258519 
L 51.642573 57.064448 
L 50.693465 56.672321 
L 49.831203 56.207075 
L 49.400072 55.804356 
L 49.381462 55.068388 
L 49.046483 54.611834 
L 47.7717 53.867055 
L 46.859812 53.167346 
L 46.493816 52.986051 
L 45.892094 52.853478 
L 44.077622 52.804781 
L 43.227767 52.520751 
L 42.750112 52.081302 
L 42.356201 51.566321 
L 39.546096 49.388338 
L 39.173897 49.26827 
L 39.167694 49.265572 
L 38.20928 48.615508 
L 38.072807 48.372829 
L 38.032486 48.12076 
L 37.864996 47.90782 
L 37.343917 47.785193 
L 36.500265 47.277291 
L 36.066033 47.077957 
L 35.557361 46.92309 
L 34.409746 46.744006 
L 33.997225 46.81806 
L 34.130597 47.153377 
L 33.569196 47.196477 
L 31.801249 47.049676 
L 31.205731 46.92713 
L 30.731176 46.648415 
L 29.74795 45.400992 
L 29.143126 45.047303 
L 27.759786 44.678925 
L 27.173572 44.403381 
L 26.832389 44.027125 
L 26.683509 43.60531 
L 26.596663 42.7527 
L 26.556341 42.315202 
L 26.333022 42.213229 
L 26.016652 42.238722 
L 25.678571 42.181029 
L 25.352897 41.989187 
L 25.117171 41.794692 
L 24.927969 41.562677 
L 24.735666 41.251601 
L 24.614702 40.947303 
L 24.475127 40.372417 
L 24.264214 40.091098 
L 23.947845 39.895551 
L 23.231361 39.674592 
L 22.924297 39.465721 
L 22.946008 39.402798 
L 23.088685 39.199326 
L 22.849857 39.133739 
L 22.772315 39.09894 
L 23.026651 38.781772 
L 23.00494 38.437929 
L 22.756807 38.163724 
L 22.341184 38.042022 
L 21.34245 37.774587 
L 20.883404 37.599448 
L 20.452273 37.38156 
L 19.831941 36.883098 
L 19.521775 36.551789 
L 19.372895 36.279325 
L 19.726484 35.890766 
L 20.967149 35.597088 
L 21.444804 35.327499 
L 21.540956 34.903212 
L 21.556464 34.36172 
L 21.739462 33.997743 
L 22.341184 34.100393 
L 22.561402 33.70184 
L 23.253073 32.991688 
L 23.495002 32.597481 
L 23.588052 32.096909 
L 23.401952 31.910576 
L 22.973923 31.818751 
L 21.745666 31.41959 
L 21.779784 31.140253 
L 21.987595 30.793163 
L 21.910053 30.416925 
L 21.404483 30.151101 
L 20.300292 30.087312 
L 19.841246 29.837501 
L 19.810229 29.837501 
L 15.269398 28.496288 
L 15.173246 28.333051 
L 15.167043 28.099513 
L 15.10501 27.836834 
L 14.838267 27.583495 
L 14.404035 27.376618 
L 13.923277 27.224134 
L 13.49835 27.010688 
L 13.23781 26.622337 
L 13.2192 26.238082 
L 13.430113 25.655302 
L 13.343267 25.270023 
L 13.113744 24.965591 
L 12.775663 24.679759 
L 12.040569 24.237907 
L 10.557975 23.731427 
L 10.247809 23.427375 
L 10.62311 23.118111 
L 10.933276 23.007113 
L 11.134884 22.888197 
L 11.190714 22.560576 
L 11.079054 22.196069 
L 10.837125 21.968967 
L 10.145455 21.575599 
L 10.901793 21.606055 
L 12.34143 21.664029 
L 12.918339 21.887115 
L 13.095134 22.123445 
L 13.085829 22.561897 
L 13.203692 22.761365 
L 13.538671 22.922549 
L 13.976005 22.996542 
L 14.838267 23.008434 
L 15.052282 23.073182 
L 15.151535 23.165685 
L 15.136027 23.283307 
L 15.002655 23.427375 
L 14.95613 23.43134 
L 14.915809 23.439271 
L 14.875487 23.453811 
L 14.838267 23.472317 
L 14.757624 23.521226 
L 14.729709 23.572782 
L 14.760726 23.629627 
L 14.838267 23.68912 
L 15.362448 23.97869 
L 15.492718 24.075229 
L 15.616784 24.241875 
L 15.669512 24.391347 
L 15.700529 24.523637 
L 16.060321 25.228986 
L 16.364284 25.488465 
L 16.876058 25.524214 
L 17.294782 25.357395 
L 17.294782 25.12971 
L 17.121089 24.85575 
L 17.031141 24.53819 
L 17.124191 24.083164 
L 17.285477 23.842491 
L 17.877895 23.427375 
L 17.958538 23.021648 
L 18.203569 22.822137 
L 18.538548 22.693992 
L 18.879731 22.498497 
L 19.810229 21.575599 
L 20.132802 21.401395 
L 21.013674 21.132221 
L 21.370365 20.95808 
L 21.478923 20.923783 
L 21.748767 20.929059 
L 21.869732 20.893443 
L 21.934867 20.799792 
L 21.916257 20.699554 
L 21.875935 20.61383 
L 21.869732 20.56108 
L 21.950375 20.446356 
L 22.012408 20.31714 
L 22.117865 20.190574 
L 22.341184 20.085113 
L 23.172429 19.69762 
L 24.382077 19.503919 
L 26.627679 19.413009 
L 28.231238 19.571118 
L 28.622047 19.5474 
L 28.957027 19.372168 
L 29.620782 18.813699 
L 30.005388 18.606973 
L 30.49545 18.510863 
L 30.976208 18.495065 
L 31.512795 18.535877 
L 31.698895 18.496382 
L 32.12072 18.344994 
L 32.390565 18.314718 
L 32.641799 18.355525 
L 35.420887 19.273363 
L 36.447537 19.30498 
L 36.689356 19.175625 
L 37.343917 18.825551 
L 37.768845 18.552993 
L 37.964249 18.088335 
L 38.159654 17.050408 
L 38.407787 16.957052 
L 38.659021 16.924181 
L 38.907154 16.953107 
L 39.139779 17.047779 
L 39.40342 17.089857 
L 39.682569 17.103007 
L 39.96482 17.091172 
L 40.237766 17.050408 
L 40.240868 17.050408 
L 40.247071 17.047779 
L 41.093825 16.889997 
L 42.675672 16.939959 
L 43.413867 16.641532 
L 43.844998 16.219653 
L 44.843733 14.779012 
L 45.426845 14.807887 
L 45.913806 14.991651 
L 46.413173 15.111113 
L 47.04281 14.937832 
L 47.362281 14.423384 
L 47.529771 14.262008 
L 48.655674 13.831777 
L 48.83557 13.726866 
L 48.85418 13.635076 
L 48.937925 13.603607 
L 49.303921 13.675725 
L 49.465207 13.774075 
L 49.887033 14.155747 
L 50.085539 14.289558 
L 50.755498 14.466683 
L 51.313797 14.391894 
L 51.822469 14.142629 
L 52.343548 13.792434 
L 52.641308 13.701951 
L 52.821204 13.582628 
L 52.849119 13.42923 
L 52.675426 13.226041 
L 53.174793 13.022886 
L 53.574907 12.745078 
L 53.692771 12.403148 
L 53.345385 12.014173 
L 54.573642 11.616161 
L 55.935271 11.478721 
L 58.630614 11.486574 
L 59.209074 11.425058 
L 60.350485 11.198652 
L 60.998732 11.163321 
L 62.37587 11.245762 
L 62.915559 11.186875 
L 63.784024 10.896409 
L 63.967022 10.893792 
L 64.140715 10.861086 
L 64.345424 10.704112 
L 64.360932 10.570699 
L 64.289594 10.392839 
L 64.252374 10.178395 
L 64.379542 9.932617 
L 64.65559 9.750931 
L 64.909926 9.745703 
L 65.201482 9.792756 
L 65.579885 9.762694 
L 65.886949 9.639841 
L 66.345995 9.326232 
L 66.668568 9.203425 
L 67.254782 9.135494 
L 68.35277 9.211263 
L 68.929679 9.190361 
L 73.606983 8.045212 
L 73.972979 7.862507 
L 74.521973 7.421523 
L 74.847647 7.250653 
L 75.927025 7.130667 
L 78.281186 7.229785 
L 79.162057 6.832059 
L 79.341954 6.203794 
L 78.541725 5.957532 
L 77.434432 5.784267 
L 76.668322 5.381817 
L 76.696237 5.117499 
L 76.950573 5.023765 
L 76.997098 4.972995 
L 76.398478 4.844128 
L 75.384234 4.773843 
L 75.033747 4.651505 
L 75.368726 4.395157 
L 75.790552 3.670655 
L 76.510137 3.283223 
L 77.465449 3.203283 
L 78.582047 3.39632 
L 78.808468 3.505526 
L 78.966653 3.645299 
L 79.162057 3.782488 
L 79.487732 3.876124 
L 79.819609 3.880026 
L 80.660159 3.683008 
L 81.748842 3.715517 
L 82.090025 3.621894 
L 82.350564 3.274124 
L 82.524257 3.487324 
L 82.589392 3.638798 
L 82.691747 3.789641 
L 82.973998 3.99578 
L 83.346197 4.133661 
L 84.155731 4.241635 
L 84.524828 4.395157 
L 84.887723 4.62808 
L 85.117246 4.827207 
L 85.210296 5.073235 
L 85.154466 5.452138 
L 84.921841 5.755609 
L 84.562048 6.117792 
L 84.39766 6.425343 
L 84.741945 6.570024 
L 86.401333 6.203794 
L 86.764227 6.207703 
L 86.925514 6.49312 
L 86.751821 6.828148 
L 86.243149 7.463266 
L 86.137692 7.914706 
L 86.28347 8.103944 
L 87.325628 8.260578 
L 87.753657 8.387205 
L 88.901272 8.852055 
L 90.014768 8.985276 
L 90.666117 8.998338 
L 91.149976 8.927806 
L 91.441532 8.748885 
L 91.726885 8.456399 
z
" clip-path="url(#p59ef7603ed)" style="stroke: #000000; stroke-linejoin: miter"/>
   </g>
   <g id="line2d_1">
    <path d="M 92.201439 7.778995 
L 92.840381 7.790738 
L 93.925962 7.628948 
L 97.353297 7.763337 
L 97.41533 7.545452 
L 97.437042 6.274164 
L 97.82475 5.969258 
L 97.790631 5.237281 
L 97.334687 4.884479 
L 96.847726 4.680136 
L 96.720558 4.395157 
L 96.72366 4.395157 
L 97.182706 4.200005 
L 97.353297 4.180491 
L 97.927104 3.896933 
L 98.010849 3.68951 
L 98.581555 3.967166 
L 100.101368 4.144067 
L 100.355705 4.392554 
L 101.13112 4.687945 
L 101.469201 4.651505 
L 101.568454 4.392554 
L 101.838298 4.063418 
L 102.226006 3.919043 
L 102.576494 4.012689 
L 102.716068 4.395157 
L 102.99832 4.764732 
L 104.707335 4.779049 
L 105.507563 4.989918 
L 105.98832 5.402653 
L 105.957304 5.646194 
L 105.696764 5.910631 
L 105.485851 6.374514 
L 105.5758 6.732975 
L 106.208538 7.595027 
L 106.528009 7.869032 
L 108.125365 8.453787 
L 108.485157 8.927806 
L 108.410717 9.42684 
L 108.385904 9.667286 
L 108.578207 9.876409 
L 109.003135 9.948304 
L 109.620365 9.492174 
L 109.899515 9.306635 
L 111.149484 9.250456 
L 117.495482 10.496152 
L 118.112712 10.936965 
L 118.429081 10.990606 
L 120.922817 10.667487 
L 121.667215 10.70542 
L 121.828502 11.032474 
L 123.537517 12.452925 
L 124.368762 12.439826 
L 126.146013 12.080958 
L 126.642279 12.118935 
L 127.045495 12.328487 
L 127.696844 13.070068 
L 127.861232 13.420053 
L 127.792995 13.72162 
L 127.302933 13.993095 
L 127.299831 14.154435 
L 127.361864 14.230522 
L 128.636647 14.104588 
L 130.497643 13.1356 
L 131.763121 13.205069 
L 133.168173 13.71113 
L 133.673744 13.648188 
L 134.03974 13.400388 
L 134.477074 12.822386 
L 134.864781 12.777835 
L 135.953464 12.789628 
L 136.933589 12.924598 
L 137.854782 13.205069 
L 140.410551 14.662207 
L 140.683497 15.146561 
L 139.740592 15.355325 
L 139.855353 15.631108 
L 139.594814 15.977895 
L 139.557594 16.323466 
L 139.641339 16.309011 
L 138.484419 17.047779 
L 137.969544 17.109582 
L 137.008029 16.964941 
L 136.536576 17.047779 
L 136.303952 17.376556 
L 134.700393 18.000163 
L 134.241348 18.104128 
L 134.442955 18.464786 
L 133.844335 18.391066 
L 133.608609 18.795264 
L 133.89086 19.250969 
L 134.864781 19.344502 
L 135.395165 20.149707 
L 135.779771 20.318458 
L 137.932324 20.128614 
L 138.217677 20.177391 
L 138.428589 20.41471 
L 138.503029 21.107153 
L 139.036515 21.493773 
L 140.373331 21.760387 
L 141.040188 22.015176 
L 141.471319 22.346613 
L 143.050064 23.804147 
L 143.95885 24.322561 
L 144.284525 24.806787 
L 144.625708 25.680462 
L 144.907959 26.000964 
L 145.435241 26.379845 
L 146.468094 26.903316 
L 147.727368 27.262585 
L 148.946321 27.213527 
L 149.870616 26.520299 
L 150.537473 26.255305 
L 152.441892 24.85972 
L 154.62236 24.59905 
L 155.48152 24.083164 
L 155.745161 24.077874 
L 156.570203 24.175743 
L 156.644643 24.081842 
L 156.722184 23.702341 
L 157.342516 23.773736 
L 157.801562 24.190292 
L 158.164456 24.265684 
L 158.356759 24.047457 
L 158.297828 23.710273 
L 157.907019 23.427375 
L 157.863595 22.806283 
L 157.547226 22.347934 
L 157.001334 22.020457 
L 156.269342 21.786787 
L 155.707941 21.471338 
L 154.848781 19.966479 
L 153.887266 19.195643 
L 153.884165 18.840036 
L 154.699901 18.571424 
L 155.385368 18.618822 
L 156.675659 19.0389 
L 157.370431 18.99412 
L 160.782258 19.572435 
L 161.864738 20.002068 
L 163.542736 19.959889 
L 163.477601 20.031067 
L 163.766056 20.637568 
L 163.945952 20.859148 
L 164.24061 21.033274 
L 165.298276 21.397436 
L 166.011658 21.50961 
L 167.419812 21.487174 
L 168.040144 21.631032 
L 167.488048 21.752467 
L 167.801316 22.008575 
L 167.937789 22.07327 
L 167.959501 22.72966 
L 168.167312 22.992578 
L 168.567426 23.157756 
L 168.893101 22.690029 
L 169.556856 22.662288 
L 170.211306 22.951617 
L 170.642437 23.482892 
L 170.961908 23.484214 
L 171.116991 23.427375 
L 171.997863 22.843276 
L 173.427729 22.771934 
L 176.110665 23.030897 
L 176.805437 22.931798 
L 177.320313 22.701918 
L 178.377979 21.821109 
L 178.455521 21.646871 
L 178.650925 21.578238 
L 179.327087 21.766987 
L 179.969131 22.300391 
L 179.879183 22.457552 
L 179.494577 23.16965 
L 179.562813 23.427375 
L 179.879183 23.599221 
L 180.347534 24.072584 
L 180.065282 24.460136 
L 179.457357 24.748564 
L 177.379244 25.340185 
L 175.601993 25.461985 
L 175.381775 25.720189 
L 175.443808 25.906924 
L 176.901589 26.920548 
L 177.673902 27.006711 
L 178.247709 26.884759 
L 179.891589 27.240045 
L 179.879183 27.302363 
L 179.503882 27.574212 
L 179.596932 27.721433 
L 180.21106 28.095532 
L 181.157067 29.261001 
L 183.101808 30.329197 
L 184.193593 30.456804 
L 185.285377 30.273373 
L 186.169351 29.837501 
L 186.715243 29.759113 
L 187.918687 29.739185 
L 189.047692 29.465535 
L 188.994964 29.209209 
L 188.784051 29.031273 
L 188.1296 29.031273 
L 187.996229 28.449836 
L 188.920524 28.577251 
L 190.672962 29.209209 
L 190.477557 29.683388 
L 190.868367 29.933167 
L 193.241137 30.273373 
L 194.540733 30.811778 
L 195.601501 31.039174 
L 195.728669 31.180154 
L 196.10397 31.753546 
L 196.699489 32.023703 
L 197.133721 31.97579 
L 197.974271 31.569926 
L 197.899831 31.496751 
L 197.781968 31.482117 
L 198.991616 31.399635 
L 200.151637 31.628469 
L 202.381731 32.311225 
L 203.079605 32.309894 
L 204.261337 31.890614 
L 204.704875 32.039675 
L 204.890975 32.506937 
L 204.816535 32.902448 
L 204.946804 33.218147 
L 205.743931 33.456639 
L 204.918889 33.988412 
L 204.931296 34.680452 
L 205.452375 35.464955 
L 206.159554 36.276654 
L 206.649616 37.222512 
L 207.04973 37.378886 
L 208.402054 37.496514 
L 209.760582 38.19181 
L 210.666267 38.05807 
L 211.134617 38.012601 
L 211.584358 38.199835 
L 211.708425 38.401811 
L 212.049607 39.542035 
L 212.536568 40.229071 
L 212.967699 41.334726 
L 213.054545 41.871145 
L 212.927377 42.304467 
L 211.69912 42.323252 
L 211.137719 42.44402 
L 209.90636 43.082936 
L 209.06581 43.109788 
L 206.798496 42.680221 
L 205.942438 42.935259 
L 204.614927 42.826526 
L 203.997696 43.046686 
L 203.842613 43.26017 
L 203.768173 43.743661 
L 203.616192 43.972039 
L 203.368059 44.11446 
L 202.381731 44.414133 
L 201.103847 45.298775 
L 200.430786 45.548951 
L 199.556118 45.437308 
L 199.481678 46.673995 
L 197.664105 47.482045 
L 193.625743 48.376873 
L 192.74177 48.852838 
L 192.019083 49.52191 
L 191.457682 50.318229 
L 191.076178 51.175826 
L 190.972773 52.034557 
L 191.011043 53.203879 
L 190.812537 53.779063 
L 190.189103 54.384293 
L 189.30513 54.857026 
L 188.309497 55.119879 
L 185.973946 55.113104 
L 185.344309 55.346192 
L 184.947296 55.804356 
L 184.761197 56.193513 
L 184.528572 57.006096 
L 184.283541 57.365745 
L 183.731445 57.676614 
L 181.786704 57.706483 
L 181.302845 57.93867 
L 180.26689 58.968384 
L 179.736506 59.222539 
L 173.970519 60.536218 
L 172.872531 60.436899 
L 171.95444 59.875137 
L 171.517106 59.752751 
L 170.803724 59.873777 
L 169.668516 60.304939 
L 169.147437 60.362075 
L 165.723203 59.357111 
L 164.280931 59.139627 
L 162.937912 59.305455 
L 161.325049 59.985295 
L 161.052102 60.230122 
L 160.875308 60.726714 
L 160.444177 61.043813 
L 159.411324 61.562494 
L 158.673129 62.292528 
L 156.812132 65.205714 
L 156.337578 65.543675 
L 156.263138 66.045652 
L 155.227184 65.342253 
L 154.811561 63.594225 
L 154.101281 63.013417 
L 153.608117 62.991607 
L 151.87739 63.271068 
L 151.325295 63.151097 
L 149.780668 62.64134 
L 148.161601 62.619537 
L 147.76769 62.458747 
L 147.550574 62.146762 
L 147.438914 61.768116 
L 147.203188 61.450845 
L 146.074183 61.277944 
L 143.217554 60.752569 
L 142.364597 60.8941 
L 141.499234 60.820611 
L 140.978155 61.022036 
L 139.126463 62.71493 
L 138.487521 62.763992 
L 138.090508 62.575931 
L 137.432956 62.648154 
L 133.236409 62.287078 
L 130.463525 62.38381 
L 128.872373 61.983304 
L 125.811034 60.578397 
L 125.811034 60.396085 
L 125.652849 60.283173 
L 125.144177 60.359354 
L 125.11316 60.08186 
L 124.889841 59.963534 
L 124.173357 60.007055 
L 124.480421 59.771788 
L 124.005867 59.722836 
L 123.677091 59.584148 
L 122.898574 59.509371 
L 122.749695 59.374783 
L 122.62873 59.051285 
L 122.455037 58.975179 
L 121.276406 59.013231 
L 119.703864 59.431879 
L 118.339133 59.339439 
L 116.009786 58.57977 
L 113.534661 58.024223 
L 111.406922 57.069876 
L 110.073208 56.810705 
L 107.960977 56.277597 
L 106.407045 56.208431 
L 106.130997 55.969768 
L 105.780509 56.078246 
L 105.606816 56.56922 
L 105.036111 56.913825 
L 102.151566 57.26259 
L 102.350072 56.888044 
L 102.362479 56.531238 
L 102.015093 55.804356 
L 99.679543 55.694545 
L 98.010849 55.365166 
L 97.257146 55.457329 
L 97.210621 55.667432 
L 97.238536 55.809779 
L 96.829116 56.363043 
L 96.81671 57.110588 
L 96.940776 57.914227 
L 96.937675 58.640908 
L 96.094023 60.970316 
L 96.422799 61.396386 
L 96.078515 61.858001 
L 95.470589 61.890688 
L 93.919759 61.521646 
L 92.35342 61.396386 
L 91.900578 61.497138 
L 91.301957 62.376997 
L 91.149976 62.881202 
L 89.57123 63.688324 
L 89.003627 64.2244 
L 88.895068 64.937453 
L 88.910577 65.745126 
L 88.758595 66.432336 
L 88.156873 66.784273 
L 87.663709 66.765136 
L 86.733211 66.068877 
L 86.041541 66.147436 
L 85.945389 66.036089 
L 85.905068 65.691175 
L 85.712765 65.592157 
L 85.250617 65.614009 
L 83.901395 65.925434 
L 83.547805 65.87489 
L 82.350564 65.508851 
L 81.630979 65.014581 
L 81.193645 65.190695 
L 80.520585 66.233514 
L 80.04603 66.518432 
L 78.485895 66.911403 
L 77.645345 67.249791 
L 77.356891 67.268934 
L 74.379296 66.653738 
L 70.12692 66.374941 
L 68.855239 65.993738 
L 68.206992 65.471979 
L 68.123247 65.035059 
L 68.293838 64.9982 
L 68.585394 64.71292 
L 68.867645 64.704731 
L 68.923475 64.539598 
L 68.845934 64.378579 
L 68.306245 64.172556 
L 67.614574 63.509679 
L 67.350933 63.343329 
L 64.6742 62.379722 
L 63.557602 61.950615 
L 62.351056 61.762669 
L 61.764842 61.41 
L 60.316367 59.736433 
L 59.618493 59.107008 
L 59.196667 58.971102 
L 57.510915 58.714278 
L 56.999141 58.419466 
L 56.53079 58.009285 
L 56.211319 57.531352 
L 56.136879 57.034593 
L 55.590987 57.069876 
L 53.354689 56.402377 
L 52.939067 56.512247 
L 52.343548 57.258519 
L 51.642573 57.064448 
L 49.831203 56.207075 
L 49.400072 55.804356 
L 49.381462 55.068388 
L 49.046483 54.611834 
L 47.7717 53.867055 
L 46.493816 52.986051 
L 45.892094 52.853478 
L 44.077622 52.804781 
L 43.227767 52.520751 
L 42.750112 52.081302 
L 42.356201 51.566321 
L 39.546096 49.388338 
L 39.167694 49.265572 
L 38.20928 48.615508 
L 37.864996 47.90782 
L 37.343917 47.785193 
L 36.066033 47.077957 
L 35.557361 46.92309 
L 34.409746 46.744006 
L 33.997225 46.81806 
L 34.130597 47.153377 
L 33.569196 47.196477 
L 31.205731 46.92713 
L 30.731176 46.648415 
L 29.74795 45.400992 
L 29.143126 45.047303 
L 27.759786 44.678925 
L 27.173572 44.403381 
L 26.832389 44.027125 
L 26.683509 43.60531 
L 26.556341 42.315202 
L 26.333022 42.213229 
L 25.678571 42.181029 
L 25.117171 41.794692 
L 24.735666 41.251601 
L 24.264214 40.091098 
L 23.947845 39.895551 
L 22.924297 39.465721 
L 23.088685 39.199326 
L 22.772315 39.09894 
L 23.026651 38.781772 
L 23.00494 38.437929 
L 22.756807 38.163724 
L 20.452273 37.38156 
L 19.521775 36.551789 
L 19.372895 36.279325 
L 19.726484 35.890766 
L 20.967149 35.597088 
L 21.444804 35.327499 
L 21.739462 33.997743 
L 22.341184 34.100393 
L 22.561402 33.70184 
L 23.495002 32.597481 
L 23.588052 32.096909 
L 23.401952 31.910576 
L 22.973923 31.818751 
L 21.745666 31.41959 
L 21.779784 31.140253 
L 21.987595 30.793163 
L 21.910053 30.416925 
L 21.404483 30.151101 
L 20.300292 30.087312 
L 19.810229 29.837501 
L 15.269398 28.496288 
L 15.173246 28.333051 
L 15.10501 27.836834 
L 14.838267 27.583495 
L 13.49835 27.010688 
L 13.23781 26.622337 
L 13.2192 26.238082 
L 13.430113 25.655302 
L 13.343267 25.270023 
L 12.775663 24.679759 
L 12.040569 24.237907 
L 10.557975 23.731427 
L 10.247809 23.427375 
L 10.62311 23.118111 
L 11.134884 22.888197 
L 11.190714 22.560576 
L 11.079054 22.196069 
L 10.837125 21.968967 
L 10.145455 21.575599 
L 12.34143 21.664029 
L 12.918339 21.887115 
L 13.095134 22.123445 
L 13.085829 22.561897 
L 13.203692 22.761365 
L 13.538671 22.922549 
L 13.976005 22.996542 
L 15.052282 23.073182 
L 15.136027 23.283307 
L 14.838267 23.472317 
L 14.760726 23.629627 
L 15.669512 24.391347 
L 15.700529 24.523637 
L 16.060321 25.228986 
L 16.364284 25.488465 
L 16.876058 25.524214 
L 17.294782 25.357395 
L 17.294782 25.12971 
L 17.031141 24.53819 
L 17.285477 23.842491 
L 17.877895 23.427375 
L 17.958538 23.021648 
L 18.203569 22.822137 
L 18.879731 22.498497 
L 20.132802 21.401395 
L 21.934867 20.799792 
L 21.950375 20.446356 
L 22.117865 20.190574 
L 23.172429 19.69762 
L 24.382077 19.503919 
L 26.627679 19.413009 
L 28.622047 19.5474 
L 28.957027 19.372168 
L 30.005388 18.606973 
L 30.976208 18.495065 
L 31.698895 18.496382 
L 32.390565 18.314718 
L 32.641799 18.355525 
L 35.420887 19.273363 
L 36.447537 19.30498 
L 37.768845 18.552993 
L 37.964249 18.088335 
L 38.159654 17.050408 
L 38.659021 16.924181 
L 40.247071 17.047779 
L 41.093825 16.889997 
L 42.675672 16.939959 
L 43.413867 16.641532 
L 43.844998 16.219653 
L 44.843733 14.779012 
L 45.426845 14.807887 
L 46.413173 15.111113 
L 47.04281 14.937832 
L 47.529771 14.262008 
L 48.83557 13.726866 
L 48.937925 13.603607 
L 49.465207 13.774075 
L 50.085539 14.289558 
L 50.755498 14.466683 
L 51.313797 14.391894 
L 52.821204 13.582628 
L 52.849119 13.42923 
L 52.675426 13.226041 
L 53.574907 12.745078 
L 53.692771 12.403148 
L 53.345385 12.014173 
L 54.573642 11.616161 
L 55.935271 11.478721 
L 59.209074 11.425058 
L 60.998732 11.163321 
L 62.915559 11.186875 
L 64.345424 10.704112 
L 64.289594 10.392839 
L 64.252374 10.178395 
L 64.379542 9.932617 
L 64.65559 9.750931 
L 65.886949 9.639841 
L 66.668568 9.203425 
L 67.254782 9.135494 
L 68.929679 9.190361 
L 73.972979 7.862507 
L 74.847647 7.250653 
L 75.927025 7.130667 
L 78.281186 7.229785 
L 79.162057 6.832059 
L 79.341954 6.203794 
L 78.541725 5.957532 
L 77.434432 5.784267 
L 76.668322 5.381817 
L 76.696237 5.117499 
L 76.997098 4.972995 
L 76.398478 4.844128 
L 75.033747 4.651505 
L 75.368726 4.395157 
L 75.790552 3.670655 
L 76.510137 3.283223 
L 77.465449 3.203283 
L 78.808468 3.505526 
L 79.162057 3.782488 
L 79.819609 3.880026 
L 80.660159 3.683008 
L 82.090025 3.621894 
L 82.350564 3.274124 
L 82.973998 3.99578 
L 83.346197 4.133661 
L 84.524828 4.395157 
L 85.117246 4.827207 
L 85.210296 5.073235 
L 85.154466 5.452138 
L 84.39766 6.425343 
L 84.741945 6.570024 
L 86.764227 6.207703 
L 86.925514 6.49312 
L 86.751821 6.828148 
L 86.243149 7.463266 
L 86.137692 7.914706 
L 86.28347 8.103944 
L 87.753657 8.387205 
L 88.901272 8.852055 
L 90.666117 8.998338 
L 91.149976 8.927806 
L 91.726885 8.456399 
L 92.201439 7.778995 
L 92.201439 7.778995 
" clip-path="url(#p59ef7603ed)" style="fill: none; stroke: #000000; stroke-width: 0.5; stroke-linecap: square"/>
   </g>
  </g>
 </g>
 <defs>
  <clipPath id="p59ef7603ed">
   <rect x="0" y="0" width="223.2" height="70.472217"/>
  </clipPath>
 </defs>
</svg>
