<?xml version="1.0" encoding="utf-8" standalone="no"?>
<!DOCTYPE svg PUBLIC "-//W3C//DTD SVG 1.1//EN"
  "http://www.w3.org/Graphics/SVG/1.1/DTD/svg11.dtd">
<svg xmlns:xlink="http://www.w3.org/1999/xlink" width="115.23451pt" height="221.76pt" viewBox="0 0 115.23451 221.76" xmlns="http://www.w3.org/2000/svg" version="1.1">
 <metadata>
  <rdf:RDF xmlns:dc="http://purl.org/dc/elements/1.1/" xmlns:cc="http://creativecommons.org/ns#" xmlns:rdf="http://www.w3.org/1999/02/22-rdf-syntax-ns#">
   <cc:Work>
    <dc:type rdf:resource="http://purl.org/dc/dcmitype/StillImage"/>
    <dc:date>2026-04-26T19:22:27.184888</dc:date>
    <dc:format>image/svg+xml</dc:format>
    <dc:creator>
     <cc:Agent>
      <dc:title>Matplotlib v3.10.9, https://matplotlib.org/</dc:title>
     </cc:Agent>
    </dc:creator>
   </cc:Work>
  </rdf:RDF>
 </metadata>
 <defs>
  <style type="text/css">*{stroke-linejoin: round; stroke-linecap: butt}</style>
 </defs>
 <g id="figure_1">
  <g id="patch_1">
   <path d="M 0 221.76 
L 115.23451 221.76 
L 115.23451 0 
L 0 0 
z
" style="fill: #ffffff"/>
  </g>
  <g id="axes_1">
   <g id="patch_2">
    <path d="M 58.005254 14.042045 
L 44.813424 31.493197 
L 30.069596 41.024811 
L 33.173448 64.096019 
L 54.125262 85.622712 
L 59.557109 121.600232 
L 89.820762 159.308778 
L 103.788591 160.916399 
L 109.996578 211.68 
L 18.429763 210.06475 
L 5.237932 25.937353 
L 29.293598 10.08 
z
" clip-path="url(#p503138bec3)" style="stroke: #000000; stroke-linejoin: miter"/>
   </g>
   <g id="line2d_1">
    <path d="M 58.005254 14.042045 
L 44.813424 31.493197 
L 30.069596 41.024811 
L 33.173448 64.096019 
L 54.125262 85.622712 
L 59.557109 121.600232 
L 89.820762 159.308778 
L 103.788591 160.916399 
L 109.996578 211.68 
L 18.429763 210.06475 
L 5.237932 25.937353 
L 29.293598 10.08 
L 58.005254 14.042045 
" clip-path="url(#p503138bec3)" style="fill: none; stroke: #000000; stroke-width: 0.5; stroke-linecap: square"/>
   </g>
  </g>
 </g>
 <defs>
  <clipPath id="p503138bec3">
   <rect x="0" y="-0" width="115.23451" height="221.76"/>
  </clipPath>
 </defs>
</svg>
