<?xml version="1.0" encoding="utf-8" standalone="no"?>
<!DOCTYPE svg PUBLIC "-//W3C//DTD SVG 1.1//EN"
  "http://www.w3.org/Graphics/SVG/1.1/DTD/svg11.dtd">
<svg xmlns:xlink="http://www.w3.org/1999/xlink" width="223.2pt" height="169.928126pt" viewBox="0 0 223.2 169.928126" xmlns="http://www.w3.org/2000/svg" version="1.1">
 <metadata>
  <rdf:RDF xmlns:dc="http://purl.org/dc/elements/1.1/" xmlns:cc="http://creativecommons.org/ns#" xmlns:rdf="http://www.w3.org/1999/02/22-rdf-syntax-ns#">
   <cc:Work>
    <dc:type rdf:resource="http://purl.org/dc/dcmitype/StillImage"/>
    <dc:date>2026-04-26T19:21:58.336471</dc:date>
    <dc:format>image/svg+xml</dc:format>
    <dc:creator>
     <cc:Agent>
      <dc:title>Matplotlib v3.10.9, https://matplotlib.org/</dc:title>
     </cc:Agent>
    </dc:creator>
   </cc:Work>
  </rdf:RDF>
 </metadata>
 <defs>
  <style type="text/css">*{stroke-linejoin: round; stroke-linecap: butt}</style>
 </defs>
 <g id="figure_1">
  <g id="patch_1">
   <path d="M 0 169.928126 
L 223.2 169.928126 
L 223.2 0 
L 0 0 
z
" style="fill: #ffffff"/>
  </g>
  <g id="axes_1">
   <g id="patch_2">
    <path d="M 50.214559 157.062081 
L 50.781354 156.128918 
L 50.257799 155.76054 
L 51.207102 154.263401 
L 50.608754 152.88843 
L 49.481097 151.553947 
L 48.813709 150.180675 
L 49.084116 148.432323 
L 49.912599 146.986317 
L 50.930941 145.65763 
L 51.707643 144.250764 
L 44.188017 143.662829 
L 43.348028 143.702312 
L 43.083374 144.149839 
L 42.90502 146.237321 
L 42.462012 146.507457 
L 41.771611 146.56676 
L 40.868335 147.014876 
L 39.896019 147.619101 
L 38.802883 147.900398 
L 37.709747 147.790512 
L 36.743184 147.197225 
L 35.937715 145.855234 
L 36.035522 144.564541 
L 36.47853 143.259263 
L 36.743184 141.860527 
L 38.066454 140.804399 
L 41.006415 140.611635 
L 43.980896 140.992799 
L 45.476767 141.676434 
L 44.527465 141.786011 
L 43.762269 142.064361 
L 42.531053 142.776838 
L 42.74968 143.379887 
L 46.961131 143.649668 
L 50.815874 144.051112 
L 52.242705 143.798829 
L 52.081611 142.774646 
L 50.781354 140.940221 
L 49.872325 138.634603 
L 49.343017 136.335819 
L 49.481097 135.719436 
L 50.113966 134.963406 
L 50.257799 134.500305 
L 50.136979 133.814575 
L 49.343017 132.469958 
L 48.704395 130.051337 
L 48.186594 128.907317 
L 47.168251 127.88149 
L 45.390467 127.274067 
L 42.85324 127.006333 
L 38.141248 126.95192 
L 34.741019 126.490551 
L 31.858591 125.328868 
L 25.443608 121.215881 
L 25.501141 120.838226 
L 26.997012 120.718867 
L 26.997012 120.384695 
L 25.639222 120.148203 
L 24.016777 120.089627 
L 22.434607 120.265361 
L 21.209143 120.718867 
L 20.397921 121.46986 
L 20.610795 121.971394 
L 22.710767 122.935716 
L 22.054886 123.003061 
L 21.623385 123.13124 
L 20.725862 123.665765 
L 22.359813 123.793984 
L 24.281431 124.330849 
L 25.892369 125.128791 
L 26.559757 126.053214 
L 25.650728 126.203334 
L 17.187553 123.176865 
L 15.461548 122.742382 
L 11.319138 122.414406 
L 10.231755 121.943166 
L 10.145455 121.150764 
L 14.121018 116.604005 
L 15.455795 114.54526 
L 16.341811 112.35884 
L 16.462631 110.207092 
L 13.085416 99.810318 
L 12.740215 99.275416 
L 12.533094 99.165876 
L 12.464054 98.914598 
L 12.533094 98.669792 
L 12.740215 98.558136 
L 13.165962 98.618258 
L 13.355823 98.753538 
L 13.476643 98.888827 
L 13.683764 98.948959 
L 14.144032 99.228163 
L 15.904556 103.280876 
L 17.170293 104.682362 
L 17.3544 105.26821 
L 17.187553 105.774498 
L 16.497151 106.500753 
L 16.341811 107.091427 
L 16.583451 107.818142 
L 17.187553 107.966967 
L 20.363401 107.212169 
L 23.740617 106.078331 
L 25.334294 105.83914 
L 28.090148 104.92142 
L 30.909289 103.674747 
L 31.30627 102.813925 
L 30.851755 101.897545 
L 29.862179 101.003067 
L 28.734523 100.19708 
L 26.087983 98.753538 
L 26.087983 97.117889 
L 25.282514 95.226283 
L 23.464456 94.017599 
L 21.01353 93.28288 
L 15.559355 92.244441 
L 14.080745 92.160961 
L 13.442123 92.604088 
L 13.511163 94.853315 
L 13.390343 95.920956 
L 12.958842 97.117889 
L 13.217743 97.995655 
L 13.027882 98.334843 
L 11.992279 98.197443 
L 11.698859 97.918379 
L 11.393931 97.368948 
L 11.129277 96.733851 
L 10.80709 92.912407 
L 11.025717 91.72435 
L 12.734461 88.439925 
L 12.958842 87.205362 
L 12.153373 69.119885 
L 12.452547 68.248237 
L 12.958842 67.353714 
L 16.13469 62.868177 
L 17.567274 61.478549 
L 18.620137 60.808337 
L 19.051638 60.945311 
L 19.333552 61.398449 
L 19.98368 61.655625 
L 19.9319 62.022475 
L 18.343976 63.703691 
L 17.791654 64.165907 
L 17.791654 64.520558 
L 18.228909 64.697907 
L 18.706437 64.792922 
L 19.98368 64.843599 
L 20.225321 65.065324 
L 20.501482 65.565881 
L 20.875449 66.066565 
L 21.450784 66.290541 
L 24.350472 66.503975 
L 25.127174 66.721659 
L 24.108831 66.971075 
L 24.367732 67.448857 
L 24.177871 68.28631 
L 24.592112 68.774988 
L 25.230734 68.980227 
L 25.783055 68.849041 
L 25.984423 68.497844 
L 25.558675 68.064224 
L 25.558675 67.708937 
L 27.785221 67.410799 
L 31.21997 67.372742 
L 34.361298 67.634927 
L 35.730595 68.241891 
L 36.386477 68.328615 
L 39.884512 69.483891 
L 40.862582 69.30188 
L 41.771611 68.851157 
L 42.531053 68.269388 
L 43.060361 67.708937 
L 43.497615 67.708937 
L 45.637861 70.152819 
L 45.695394 70.550896 
L 45.424987 70.771143 
L 45.5343 71.262551 
L 45.994568 71.749843 
L 47.150991 72.131285 
L 48.531795 72.864706 
L 49.343017 73.072487 
L 50.55122 73.064006 
L 54.866232 72.682386 
L 55.332253 72.586992 
L 55.711974 72.326272 
L 55.959368 71.925721 
L 56.057175 71.440505 
L 56.074435 70.680077 
L 56.166488 70.165523 
L 56.580729 69.098724 
L 56.885657 68.800377 
L 57.259624 68.679782 
L 57.409212 68.510537 
L 57.058257 68.064224 
L 54.866232 67.353714 
L 54.15857 67.326229 
L 53.623508 67.201495 
L 53.301321 66.93514 
L 53.19776 66.484955 
L 52.881326 66.024308 
L 51.678876 65.762337 
L 51.707643 65.23005 
L 52.645439 64.881607 
L 55.878821 64.792922 
L 60.441226 61.655625 
L 61.505596 61.400557 
L 64.411037 61.033823 
L 68.311807 60.964278 
L 68.449887 60.850482 
L 66.758403 60.593411 
L 63.668855 60.551272 
L 62.943933 60.262641 
L 63.599814 59.340148 
L 64.635417 58.52964 
L 65.475406 58.091895 
L 67.724965 57.414424 
L 71.067661 56.093821 
L 72.379424 55.969797 
L 73.150373 56.032859 
L 74.456383 56.295639 
L 75.250345 56.358711 
L 76.078827 56.266205 
L 76.510328 56.051778 
L 76.855529 55.805846 
L 77.419357 55.616688 
L 78.66208 55.597774 
L 80.284525 55.812151 
L 81.688342 56.240977 
L 82.292443 56.867569 
L 82.712438 58.077164 
L 83.702014 58.79486 
L 84.841177 59.302247 
L 85.709932 59.885588 
L 86.641975 60.976922 
L 84.67433 61.175029 
L 82.597371 62.520151 
L 80.802326 62.716303 
L 80.802326 63.102338 
L 81.089993 63.574965 
L 80.324798 64.03293 
L 78.391673 64.843599 
L 77.730038 65.578555 
L 77.649491 66.235601 
L 77.942912 67.886572 
L 78.477973 68.387844 
L 79.64015 68.303232 
L 80.802326 67.747 
L 81.745875 66.047549 
L 82.792985 65.931347 
L 84.070228 66.034872 
L 85.186378 65.935572 
L 84.74337 65.439146 
L 84.173788 65.255394 
L 83.494893 65.318755 
L 82.775725 65.551095 
L 83.310786 64.985078 
L 83.863107 64.579672 
L 84.357895 64.132134 
L 84.703096 63.425147 
L 85.186378 63.425147 
L 84.76063 64.590229 
L 86.607455 64.767584 
L 89.127421 64.590229 
L 90.715345 64.678905 
L 91.676155 64.944956 
L 92.752031 64.856268 
L 93.724347 64.896388 
L 94.368722 65.551095 
L 94.161601 66.060226 
L 92.539157 67.026035 
L 91.894782 67.708937 
L 92.66573 67.835818 
L 92.815317 68.064224 
L 92.861344 68.379382 
L 93.344626 68.774988 
L 94.035027 69.060635 
L 95.807059 69.483891 
L 96.094726 69.699786 
L 96.267327 69.981332 
L 96.566501 70.203633 
L 97.256902 70.229041 
L 98.275245 69.359021 
L 98.706746 69.098724 
L 99.707829 69.479658 
L 100.570831 69.064867 
L 100.547818 68.406882 
L 98.965647 68.064224 
L 96.773621 68.597273 
L 96.635541 68.755947 
L 96.313353 68.802493 
L 95.565418 68.774988 
L 94.961316 68.633238 
L 94.921043 68.332846 
L 95.133917 68.083259 
L 95.323777 68.064224 
L 95.450351 66.134177 
L 96.612527 64.474112 
L 97.245396 63.005295 
L 97.239642 62.994747 
L 95.807059 61.655625 
L 95.116657 61.33943 
L 94.748443 61.221397 
L 93.344626 61.299382 
L 90.502471 61.830608 
L 89.800563 62.235448 
L 88.270172 62.634043 
L 86.774302 62.672009 
L 86.15294 62.007715 
L 86.946902 61.381586 
L 90.203297 60.578662 
L 90.939726 59.708672 
L 91.34246 58.984325 
L 91.198627 58.626462 
L 89.432349 58.373892 
L 88.707427 58.117146 
L 88.091818 57.774169 
L 87.608537 57.414424 
L 87.23457 57.073673 
L 86.831835 56.550043 
L 86.567181 55.934063 
L 86.641975 55.295163 
L 87.004436 55.124965 
L 88.62688 54.097789 
L 88.810987 53.854203 
L 89.144681 53.587554 
L 89.087148 52.9893 
L 88.753454 52.397524 
L 88.304692 52.126878 
L 87.47621 52.057649 
L 86.849095 51.881441 
L 85.709932 51.390661 
L 87.027449 50.103476 
L 88.350719 49.08314 
L 89.783303 48.251765 
L 91.975329 47.351687 
L 92.470117 47.234498 
L 92.999425 47.163351 
L 93.615033 47.142426 
L 93.989001 46.979219 
L 94.380228 46.251231 
L 94.610362 46.088099 
L 105.092963 44.687405 
L 107.428822 44.716663 
L 115.679124 46.088099 
L 115.679124 46.470854 
L 114.775848 46.711421 
L 114.712561 47.029435 
L 115.25913 47.33076 
L 116.208432 47.52539 
L 117.174995 47.489811 
L 117.865396 47.224035 
L 120.442896 45.592513 
L 121.610826 44.664417 
L 122.90533 43.931036 
L 125.678443 43.523723 
L 128.014303 42.932751 
L 131.397272 43.283553 
L 138.939912 42.932751 
L 134.757227 41.388311 
L 132.639995 41.071228 
L 131.207411 40.591532 
L 130.447969 40.481011 
L 129.878388 40.60613 
L 127.392941 41.947505 
L 126.035151 42.511037 
L 124.527774 42.794953 
L 123.204504 42.389968 
L 121.92726 41.876553 
L 120.580977 42.020546 
L 118.107037 42.932751 
L 115.25913 43.408856 
L 109.120307 43.446448 
L 92.941891 45.766058 
L 91.543828 45.820425 
L 90.203297 45.579968 
L 82.292443 42.932751 
L 82.741204 43.609356 
L 82.171623 43.956104 
L 79.841517 44.336346 
L 78.115512 44.854599 
L 77.212237 45.030167 
L 76.01554 45.038528 
L 76.458548 44.716663 
L 75.187058 44.390673 
L 73.967348 44.49933 
L 72.759145 44.888039 
L 71.591215 45.416893 
L 70.446299 45.366719 
L 68.996455 45.933346 
L 67.765239 46.54825 
L 67.241684 46.64657 
L 66.637582 45.95844 
L 65.233765 45.692875 
L 63.622828 45.761876 
L 62.414625 46.088099 
L 63.450227 46.533608 
L 60.884234 47.489811 
L 57.374691 48.230828 
L 54.854725 47.93355 
L 53.19776 48.077997 
L 51.540796 48.381579 
L 50.781354 48.754317 
L 50.39588 49.751431 
L 49.446577 50.359168 
L 48.330428 50.820337 
L 47.409892 51.390661 
L 47.007158 52.859178 
L 46.926611 52.976707 
L 46.80579 53.423803 
L 46.47785 53.682032 
L 46.011828 53.896199 
L 43.768022 55.295163 
L 42.174345 55.351899 
L 41.414903 55.496898 
L 41.092715 55.793235 
L 40.563407 56.001328 
L 39.401231 56.190522 
L 38.239055 56.543735 
L 37.709747 57.220904 
L 38.313848 58.973799 
L 38.244808 59.795022 
L 37.180439 60.273174 
L 37.180439 60.593411 
L 40.005333 60.47753 
L 40.655461 60.593411 
L 41.184769 61.223504 
L 40.759021 61.664057 
L 39.838486 61.925485 
L 38.91795 62.007715 
L 38.089468 61.900184 
L 36.432503 61.413204 
L 35.517721 61.299382 
L 34.671979 61.400557 
L 33.256655 61.868558 
L 32.359133 62.007715 
L 32.359133 62.393611 
L 35.730595 62.007715 
L 36.743184 62.140556 
L 38.227548 62.612952 
L 38.91795 62.716303 
L 43.906103 61.836933 
L 44.947459 62.007715 
L 45.143073 62.387284 
L 44.947459 63.374507 
L 44.947459 63.81132 
L 46.011828 64.499446 
L 46.489356 64.995636 
L 45.442247 65.758112 
L 44.717325 66.123613 
L 43.768022 66.290541 
L 42.76694 66.353934 
L 42.145578 66.518768 
L 42.174345 66.738568 
L 43.060361 66.971075 
L 41.627777 66.983758 
L 39.660132 66.244053 
L 37.928374 65.29341 
L 37.180439 64.678905 
L 36.536064 63.906293 
L 34.948139 63.28378 
L 32.963234 62.868177 
L 31.150929 62.716303 
L 29.8967 62.444226 
L 28.400829 61.786334 
L 27.008519 60.985352 
L 26.087983 60.273174 
L 25.299774 58.407566 
L 24.851013 58.121355 
L 23.890204 57.986682 
L 21.899545 57.452289 
L 20.725862 57.414424 
L 21.744205 59.321197 
L 22.106666 60.439606 
L 21.934065 61.141307 
L 20.881203 61.212966 
L 20.346141 60.123607 
L 20.196554 57.736298 
L 21.025036 55.604079 
L 22.61296 54.013791 
L 35.29334 45.736785 
L 39.102057 44.160841 
L 44.947459 40.481011 
L 47.191265 39.63667 
L 49.722738 39.655429 
L 55.614167 40.481011 
L 58.922342 40.562337 
L 65.314312 39.9827 
L 68.156466 39.403239 
L 71.550942 37.911621 
L 72.816679 37.682565 
L 90.502471 38.703117 
L 96.928962 38.398977 
L 103.332438 37.457701 
L 109.390714 35.842788 
L 114.724068 33.497778 
L 129.935921 22.481165 
L 132.622735 20.926482 
L 137.495821 18.816416 
L 139.935241 16.999099 
L 140.873037 16.743745 
L 142.558768 15.788541 
L 145.98201 15.523065 
L 152.506307 15.708276 
L 158.863757 15.290547 
L 164.657379 14.294962 
L 169.680052 12.876561 
L 178.298568 9.446075 
L 183.004807 8.092885 
L 184.914918 7.810071 
L 187.032151 7.724006 
L 189.080343 7.908436 
L 190.771827 8.437238 
L 186.917084 8.996951 
L 183.246447 10.356963 
L 177.447072 13.807649 
L 175.324087 16.842588 
L 177.297485 19.125661 
L 180.876068 21.225756 
L 183.534115 23.700213 
L 181.474416 25.935817 
L 181.508936 28.588487 
L 183.004807 33.813604 
L 181.796604 34.578451 
L 178.183501 35.63062 
L 176.48051 36.462786 
L 173.983557 38.532292 
L 172.8559 39.924329 
L 172.044678 42.131156 
L 170.289907 44.599634 
L 169.438411 45.416893 
L 168.840063 45.774422 
L 168.264728 45.97517 
L 167.49378 46.069277 
L 164.156837 46.050455 
L 163.132741 46.155023 
L 161.843991 46.309795 
L 155.923796 44.716663 
L 151.539745 42.834621 
L 148.622797 42.360745 
L 146.263924 41.400828 
L 144.514906 41.181784 
L 143.088076 41.500971 
L 141.08591 42.799128 
L 139.72812 42.932751 
L 141.039884 42.997477 
L 142.530001 42.233424 
L 143.772724 41.882814 
L 145.032707 41.634503 
L 146.494058 41.880727 
L 153.467116 44.804439 
L 155.779962 45.260103 
L 158.495543 46.247048 
L 160.048947 46.470854 
L 165.756268 46.527332 
L 167.073785 46.822302 
L 165.08888 47.807953 
L 164.657379 48.228735 
L 164.317931 48.909297 
L 163.932457 50.313057 
L 163.690816 50.69036 
L 164.202864 51.533268 
L 164.973813 54.164991 
L 165.27874 56.240977 
L 165.779282 57.338696 
L 167.516793 59.531772 
L 168.115141 59.877163 
L 168.805543 60.180483 
L 168.97239 60.521775 
L 168.000074 60.976922 
L 167.424739 60.993781 
L 165.762022 60.6798 
L 164.870253 60.593411 
L 161.688651 60.593411 
L 160.578255 60.793586 
L 159.306765 61.299382 
L 158.115822 60.787265 
L 156.781045 60.382723 
L 155.250654 60.262641 
L 153.467116 60.593411 
L 151.890699 61.103371 
L 151.229064 61.210858 
L 150.089901 61.299382 
L 149.019778 61.512277 
L 146.839259 62.235448 
L 144.250252 62.615061 
L 141.045637 63.589736 
L 131.172891 64.165907 
L 131.172891 64.520558 
L 134.38326 64.752804 
L 144.998187 63.425147 
L 147.362814 62.828098 
L 148.398416 62.716303 
L 148.634304 62.604515 
L 148.674577 62.361977 
L 148.812657 62.11947 
L 149.336212 62.007715 
L 149.911547 62.068863 
L 150.855096 62.334562 
L 151.298104 62.393611 
L 152.057546 62.317691 
L 152.926301 62.108926 
L 153.64547 61.817958 
L 153.950397 61.478549 
L 154.422172 60.778836 
L 155.538322 60.673479 
L 157.856921 60.976922 
L 157.678567 61.166598 
L 157.32186 61.655625 
L 158.553076 61.752602 
L 161.999332 62.022475 
L 164.939293 61.950786 
L 166.832144 61.478549 
L 168.523629 61.221397 
L 169.835392 62.361977 
L 170.180593 64.077255 
L 168.95513 65.551095 
L 164.191358 67.038718 
L 160.681815 68.654394 
L 160.048947 68.774988 
L 159.548405 70.466192 
L 159.306765 70.940581 
L 159.841826 71.531606 
L 159.513885 72.279643 
L 158.71417 72.970714 
L 157.856921 73.394803 
L 160.031687 73.348149 
L 160.842909 73.072487 
L 160.756609 71.099441 
L 160.980989 69.670152 
L 161.694404 68.978111 
L 164.657379 68.064224 
L 166.998992 66.782953 
L 168.247468 66.440576 
L 169.703065 66.820999 
L 169.956213 67.150758 
L 170.335934 68.265158 
L 170.404974 68.597273 
L 170.715655 68.768641 
L 172.809874 69.483891 
L 178.114461 70.720315 
L 183.885069 70.997769 
L 200.679093 69.915705 
L 203.026459 70.02579 
L 205.339305 70.550896 
L 206.392168 71.04225 
L 208.670494 72.682386 
L 213.054545 74.495733 
L 213.054545 74.820401 
L 211.414841 75.482632 
L 210.534579 76.684546 
L 210.183625 78.074229 
L 210.120338 79.307475 
L 209.343636 80.46912 
L 202.836599 84.297071 
L 199.53993 85.237594 
L 198.297207 85.954477 
L 197.917486 86.650266 
L 198.101593 88.281825 
L 197.112017 89.880485 
L 194.879718 90.072922 
L 192.417285 89.320384 
L 190.771827 88.102375 
L 192.589885 87.974206 
L 193.337821 87.690127 
L 193.706035 87.026007 
L 193.510421 86.325819 
L 192.797006 86.112396 
L 191.87647 86.044105 
L 191.030728 85.775232 
L 189.33349 85.523463 
L 187.578719 86.389851 
L 185.985041 87.53422 
L 183.718222 88.636499 
L 184.21301 89.859105 
L 185.145052 91.197972 
L 185.455733 92.083905 
L 184.765331 92.452086 
L 183.637675 92.681163 
L 182.435225 92.738972 
L 181.554963 92.604088 
L 180.841548 92.167382 
L 180.139639 91.159462 
L 179.621838 90.646064 
L 180.185666 90.395829 
L 181.382363 90.034433 
L 182.038244 89.927524 
L 181.53195 89.341759 
L 180.910588 89.061763 
L 177.987887 88.69633 
L 177.343512 88.747615 
L 175.767095 89.177176 
L 173.787943 89.337484 
L 172.568233 88.927122 
L 171.492357 88.192098 
L 169.967719 87.384733 
L 171.544137 87.318534 
L 173.908763 86.522189 
L 175.237787 86.313013 
L 176.238869 86.620381 
L 177.464332 87.166927 
L 178.672535 87.369784 
L 179.621838 86.637458 
L 178.425142 85.800838 
L 178.505688 85.148002 
L 180.576894 83.414528 
L 179.621838 83.420922 
L 178.603495 83.250426 
L 177.671453 82.939309 
L 176.963791 82.538762 
L 176.187089 82.321478 
L 174.357524 82.67511 
L 173.385208 82.342779 
L 173.120554 83.04372 
L 172.73508 83.480599 
L 172.113718 83.708666 
L 171.129896 83.772615 
L 170.612094 84.054013 
L 168.713489 85.775232 
L 166.987485 86.69723 
L 163.167262 88.004111 
L 161.452764 88.997647 
L 160.463188 90.229023 
L 160.934962 90.999011 
L 162.102892 91.717929 
L 163.207535 92.798923 
L 163.673556 94.131151 
L 163.380135 95.146968 
L 162.51138 96.068926 
L 161.234137 97.117889 
L 162.931374 96.770321 
L 164.174098 96.705963 
L 164.513545 97.079268 
L 162.741514 98.742801 
L 162.568913 99.417184 
L 162.68398 100.751566 
L 162.620694 101.673889 
L 162.517133 102.080358 
L 162.240972 102.52563 
L 160.543735 103.46166 
L 160.273327 103.83619 
L 159.928126 103.834038 
L 159.162931 104.04501 
L 158.340202 104.372274 
L 157.856921 104.688823 
L 158.207875 104.824501 
L 158.719923 105.345761 
L 158.990331 105.905938 
L 158.368969 106.289531 
L 158.138835 106.548173 
L 157.770621 106.809003 
L 157.103232 106.925418 
L 156.234477 106.828405 
L 155.572842 106.574039 
L 154.473952 105.83914 
L 154.157518 105.496563 
L 153.950397 105.1045 
L 153.64547 104.712512 
L 152.989588 104.363661 
L 152.092066 104.230166 
L 145.222568 104.363661 
L 144.307786 104.497165 
L 143.738204 104.811579 
L 143.295196 105.173429 
L 142.806162 105.444858 
L 140.970844 105.755106 
L 137.242674 105.660303 
L 135.522423 105.83914 
L 137.300207 106.673195 
L 147.414594 107.617569 
L 148.128009 107.854808 
L 147.874862 108.413505 
L 146.706932 109.494653 
L 146.12009 110.420872 
L 146.292691 110.829057 
L 147.276513 110.926255 
L 149.123338 110.906815 
L 149.123338 111.274048 
L 146.223651 111.976289 
L 145.377908 112.57284 
L 146.183377 113.448521 
L 145.918723 113.539353 
L 145.262841 113.844319 
L 143.600124 113.403106 
L 135.833103 114.370003 
L 132.294794 115.181502 
L 130.206329 115.261587 
L 125.874057 114.534441 
L 123.377104 113.595585 
L 122.732729 113.448521 
L 115.41447 113.43122 
L 113.757506 113.085231 
L 113.533125 113.288493 
L 113.400798 113.435545 
L 113.326005 113.595585 
L 113.274224 113.844319 
L 114.747082 114.145003 
L 119.833041 114.17529 
L 120.753577 114.415439 
L 124.412707 116.023628 
L 125.166396 116.655987 
L 125.678443 117.227871 
L 126.391859 117.643885 
L 127.795676 117.806413 
L 134.55586 117.806413 
L 133.399437 118.415462 
L 129.728801 119.655778 
L 127.761156 120.740568 
L 126.8061 121.020534 
L 125.160642 121.113864 
L 124.562294 121.343952 
L 124.43572 121.843285 
L 124.412707 122.342736 
L 124.171066 122.570786 
L 119.717975 123.050856 
L 118.107037 123.550591 
L 117.128968 123.665765 
L 116.277472 123.581014 
L 114.689548 123.285499 
L 113.757506 123.300709 
L 113.941613 123.520169 
L 114.240787 123.665765 
L 113.216691 124.289547 
L 110.598917 124.659122 
L 109.407974 125.126617 
L 110.650698 125.463712 
L 111.979721 125.426738 
L 115.460497 125.035284 
L 116.104872 124.867851 
L 116.783767 124.787401 
L 120.868644 125.739953 
L 121.156312 126.342586 
L 120.851384 127.073807 
L 120.074682 127.713832 
L 119.10812 127.999075 
L 116.714727 128.208133 
L 115.679124 128.443347 
L 116.053092 129.038031 
L 116.921847 129.848637 
L 117.174995 130.273675 
L 116.979381 130.875411 
L 116.56514 131.33991 
L 116.674453 131.739067 
L 118.107037 132.133936 
L 118.981546 132.485233 
L 119.815781 132.982821 
L 120.028655 133.508906 
L 119.062093 133.932488 
L 119.062093 134.332128 
L 119.787015 134.688155 
L 122.404788 136.637518 
L 123.273544 136.799315 
L 124.113533 137.151377 
L 124.412707 138.032877 
L 124.148053 138.660864 
L 123.647512 139.048251 
L 123.18149 139.521088 
L 122.962863 140.388225 
L 122.583142 140.782493 
L 121.674113 141.058524 
L 120.557963 141.220653 
L 119.591401 141.27543 
L 115.437483 140.940221 
L 114.482428 141.054142 
L 113.895586 141.341163 
L 113.429565 141.698349 
L 112.790943 142.044635 
L 111.087952 142.513743 
L 110.052349 142.702291 
L 109.149074 142.776838 
L 108.579492 143.009266 
L 108.579492 143.485163 
L 109.166334 143.879995 
L 110.386043 143.879995 
L 110.386043 144.250764 
L 108.303331 144.220047 
L 107.336769 144.327559 
L 106.473767 144.654514 
L 107.187182 144.887143 
L 108.073197 144.979323 
L 110.115636 144.988103 
L 111.053432 145.185647 
L 112.077528 145.670803 
L 113.757506 146.830347 
L 111.927941 147.887211 
L 110.719738 148.388357 
L 109.407974 148.70493 
L 106.180346 148.992963 
L 104.903102 149.415187 
L 105.507204 150.180675 
L 106.381713 150.191676 
L 110.386043 149.478967 
L 112.186842 149.531752 
L 112.790943 149.478967 
L 113.308744 149.303025 
L 113.803532 149.043537 
L 114.390374 148.808265 
L 115.195843 148.70493 
L 116.726233 148.990764 
L 119.574141 150.37869 
L 121.041245 150.920022 
L 124.924755 151.382241 
L 125.874057 151.692643 
L 126.414872 152.480953 
L 127.979783 156.592234 
L 128.152383 156.83717 
L 128.037316 157.002682 
L 127.358421 157.241042 
L 126.305558 157.254285 
L 125.310229 156.989441 
L 124.493254 156.938683 
L 123.929426 157.611874 
L 124.815441 157.742122 
L 125.65543 157.976146 
L 126.357339 158.298521 
L 126.829113 158.691618 
L 127.099521 159.148846 
L 127.237601 159.778518 
L 126.932673 160.33543 
L 125.891317 160.578571 
L 125.068589 160.344271 
L 124.061753 159.327787 
L 123.446144 159.09362 
L 120.506183 159.190818 
L 119.591401 159.09362 
L 118.262377 158.744625 
L 118.360184 158.528187 
L 118.935519 158.320603 
L 119.062093 157.98277 
L 117.813616 157.174828 
L 117.347595 156.687116 
L 117.85389 156.466467 
L 119.740988 156.142154 
L 119.361267 155.520135 
L 117.675536 155.090119 
L 115.679124 155.359145 
L 115.287896 155.681137 
L 114.355854 156.784209 
L 113.561892 157.386719 
L 113.118884 157.799522 
L 112.790943 157.98277 
L 112.255882 158.060047 
L 111.110965 157.984977 
L 110.616177 158.16824 
L 109.407974 158.797633 
L 106.46226 159.911103 
L 105.507204 160.578571 
L 105.041183 161.723901 
L 105.126947 161.726098 
L 105.085887 161.740621 
L 104.041021 161.897919 
L 102.842714 161.836122 
L 101.417897 161.237903 
L 100.139215 161.367083 
L 99.3647 161.67602 
L 98.356368 161.799606 
L 97.669533 162.117031 
L 96.610054 162.204121 
L 91.451487 162.195693 
L 90.202032 161.970954 
L 89.683253 161.324958 
L 89.471357 160.566855 
L 89.14986 160.019498 
L 87.966166 159.553649 
L 72.97271 157.982836 
L 67.419578 156.973618 
L 61.771458 156.542037 
L 60.120132 156.654128 
L 55.304982 157.455742 
L 52.696472 157.405282 
z
" clip-path="url(#p663f5b39ed)" style="stroke: #000000; stroke-linejoin: miter"/>
   </g>
   <g id="line2d_1">
    <path d="M 50.214559 157.062081 
L 50.781354 156.128918 
L 50.257799 155.76054 
L 51.207102 154.263401 
L 50.608754 152.88843 
L 49.481097 151.553947 
L 48.813709 150.180675 
L 49.084116 148.432323 
L 49.912599 146.986317 
L 50.930941 145.65763 
L 51.707643 144.250764 
L 43.348028 143.702312 
L 43.083374 144.149839 
L 42.90502 146.237321 
L 42.462012 146.507457 
L 41.771611 146.56676 
L 39.896019 147.619101 
L 38.802883 147.900398 
L 37.709747 147.790512 
L 36.743184 147.197225 
L 35.937715 145.855234 
L 36.035522 144.564541 
L 36.47853 143.259263 
L 36.743184 141.860527 
L 38.066454 140.804399 
L 41.006415 140.611635 
L 43.980896 140.992799 
L 45.476767 141.676434 
L 44.527465 141.786011 
L 43.762269 142.064361 
L 42.531053 142.776838 
L 42.74968 143.379887 
L 46.961131 143.649668 
L 50.815874 144.051112 
L 52.242705 143.798829 
L 52.081611 142.774646 
L 50.781354 140.940221 
L 49.872325 138.634603 
L 49.343017 136.335819 
L 49.481097 135.719436 
L 50.113966 134.963406 
L 50.257799 134.500305 
L 50.136979 133.814575 
L 49.343017 132.469958 
L 48.704395 130.051337 
L 48.186594 128.907317 
L 47.168251 127.88149 
L 45.390467 127.274067 
L 42.85324 127.006333 
L 38.141248 126.95192 
L 34.741019 126.490551 
L 31.858591 125.328868 
L 25.443608 121.215881 
L 25.501141 120.838226 
L 26.997012 120.718867 
L 26.997012 120.384695 
L 25.639222 120.148203 
L 24.016777 120.089627 
L 22.434607 120.265361 
L 21.209143 120.718867 
L 20.397921 121.46986 
L 20.610795 121.971394 
L 22.710767 122.935716 
L 21.623385 123.13124 
L 20.725862 123.665765 
L 22.359813 123.793984 
L 24.281431 124.330849 
L 25.892369 125.128791 
L 26.559757 126.053214 
L 25.650728 126.203334 
L 17.187553 123.176865 
L 15.461548 122.742382 
L 11.319138 122.414406 
L 10.231755 121.943166 
L 10.145455 121.150764 
L 14.121018 116.604005 
L 15.455795 114.54526 
L 16.341811 112.35884 
L 16.462631 110.207092 
L 13.085416 99.810318 
L 12.740215 99.275416 
L 12.533094 99.165876 
L 12.464054 98.914598 
L 12.533094 98.669792 
L 12.740215 98.558136 
L 13.355823 98.753538 
L 13.476643 98.888827 
L 13.683764 98.948959 
L 14.144032 99.228163 
L 15.904556 103.280876 
L 17.170293 104.682362 
L 17.3544 105.26821 
L 17.187553 105.774498 
L 16.497151 106.500753 
L 16.341811 107.091427 
L 16.583451 107.818142 
L 17.187553 107.966967 
L 20.363401 107.212169 
L 23.740617 106.078331 
L 25.334294 105.83914 
L 28.090148 104.92142 
L 30.909289 103.674747 
L 31.30627 102.813925 
L 30.851755 101.897545 
L 29.862179 101.003067 
L 28.734523 100.19708 
L 26.087983 98.753538 
L 26.087983 97.117889 
L 25.282514 95.226283 
L 23.464456 94.017599 
L 21.01353 93.28288 
L 15.559355 92.244441 
L 14.080745 92.160961 
L 13.442123 92.604088 
L 13.511163 94.853315 
L 13.390343 95.920956 
L 12.958842 97.117889 
L 13.217743 97.995655 
L 13.027882 98.334843 
L 11.992279 98.197443 
L 11.698859 97.918379 
L 11.129277 96.733851 
L 10.80709 92.912407 
L 11.025717 91.72435 
L 12.734461 88.439925 
L 12.958842 87.205362 
L 12.153373 69.119885 
L 12.452547 68.248237 
L 12.958842 67.353714 
L 16.13469 62.868177 
L 17.567274 61.478549 
L 18.620137 60.808337 
L 19.051638 60.945311 
L 19.333552 61.398449 
L 19.98368 61.655625 
L 19.9319 62.022475 
L 17.791654 64.165907 
L 17.791654 64.520558 
L 18.706437 64.792922 
L 19.98368 64.843599 
L 20.225321 65.065324 
L 20.875449 66.066565 
L 21.450784 66.290541 
L 24.350472 66.503975 
L 25.127174 66.721659 
L 24.108831 66.971075 
L 24.367732 67.448857 
L 24.177871 68.28631 
L 24.592112 68.774988 
L 25.230734 68.980227 
L 25.783055 68.849041 
L 25.984423 68.497844 
L 25.558675 68.064224 
L 25.558675 67.708937 
L 27.785221 67.410799 
L 31.21997 67.372742 
L 34.361298 67.634927 
L 35.730595 68.241891 
L 36.386477 68.328615 
L 39.884512 69.483891 
L 40.862582 69.30188 
L 41.771611 68.851157 
L 42.531053 68.269388 
L 43.060361 67.708937 
L 43.497615 67.708937 
L 45.637861 70.152819 
L 45.695394 70.550896 
L 45.424987 70.771143 
L 45.5343 71.262551 
L 45.994568 71.749843 
L 47.150991 72.131285 
L 48.531795 72.864706 
L 49.343017 73.072487 
L 50.55122 73.064006 
L 55.332253 72.586992 
L 55.711974 72.326272 
L 55.959368 71.925721 
L 56.057175 71.440505 
L 56.166488 70.165523 
L 56.580729 69.098724 
L 56.885657 68.800377 
L 57.259624 68.679782 
L 57.409212 68.510537 
L 57.058257 68.064224 
L 54.866232 67.353714 
L 53.623508 67.201495 
L 53.301321 66.93514 
L 53.19776 66.484955 
L 52.881326 66.024308 
L 51.678876 65.762337 
L 51.707643 65.23005 
L 52.645439 64.881607 
L 55.878821 64.792922 
L 60.441226 61.655625 
L 61.505596 61.400557 
L 64.411037 61.033823 
L 68.311807 60.964278 
L 68.449887 60.850482 
L 66.758403 60.593411 
L 63.668855 60.551272 
L 62.943933 60.262641 
L 63.599814 59.340148 
L 64.635417 58.52964 
L 65.475406 58.091895 
L 67.724965 57.414424 
L 71.067661 56.093821 
L 72.379424 55.969797 
L 73.150373 56.032859 
L 75.250345 56.358711 
L 76.078827 56.266205 
L 77.419357 55.616688 
L 78.66208 55.597774 
L 80.284525 55.812151 
L 81.688342 56.240977 
L 82.292443 56.867569 
L 82.712438 58.077164 
L 83.702014 58.79486 
L 84.841177 59.302247 
L 85.709932 59.885588 
L 86.641975 60.976922 
L 84.67433 61.175029 
L 82.597371 62.520151 
L 80.802326 62.716303 
L 80.802326 63.102338 
L 81.089993 63.574965 
L 80.324798 64.03293 
L 78.391673 64.843599 
L 77.730038 65.578555 
L 77.649491 66.235601 
L 77.942912 67.886572 
L 78.477973 68.387844 
L 79.64015 68.303232 
L 80.802326 67.747 
L 81.745875 66.047549 
L 82.792985 65.931347 
L 84.070228 66.034872 
L 85.186378 65.935572 
L 84.74337 65.439146 
L 84.173788 65.255394 
L 83.494893 65.318755 
L 82.775725 65.551095 
L 83.310786 64.985078 
L 84.357895 64.132134 
L 84.703096 63.425147 
L 85.186378 63.425147 
L 84.76063 64.590229 
L 86.607455 64.767584 
L 89.127421 64.590229 
L 90.715345 64.678905 
L 91.676155 64.944956 
L 92.752031 64.856268 
L 93.724347 64.896388 
L 94.368722 65.551095 
L 94.161601 66.060226 
L 92.539157 67.026035 
L 91.894782 67.708937 
L 92.66573 67.835818 
L 92.815317 68.064224 
L 92.861344 68.379382 
L 93.344626 68.774988 
L 94.035027 69.060635 
L 95.807059 69.483891 
L 96.094726 69.699786 
L 96.267327 69.981332 
L 96.566501 70.203633 
L 97.256902 70.229041 
L 98.706746 69.098724 
L 99.707829 69.479658 
L 100.570831 69.064867 
L 100.547818 68.406882 
L 98.965647 68.064224 
L 96.773621 68.597273 
L 96.635541 68.755947 
L 96.313353 68.802493 
L 95.565418 68.774988 
L 94.961316 68.633238 
L 94.921043 68.332846 
L 95.133917 68.083259 
L 95.323777 68.064224 
L 95.450351 66.134177 
L 96.612527 64.474112 
L 97.239642 62.994747 
L 95.807059 61.655625 
L 94.748443 61.221397 
L 93.344626 61.299382 
L 90.502471 61.830608 
L 89.800563 62.235448 
L 88.270172 62.634043 
L 86.774302 62.672009 
L 86.15294 62.007715 
L 86.946902 61.381586 
L 90.203297 60.578662 
L 90.939726 59.708672 
L 91.34246 58.984325 
L 91.198627 58.626462 
L 89.432349 58.373892 
L 88.707427 58.117146 
L 87.608537 57.414424 
L 87.23457 57.073673 
L 86.831835 56.550043 
L 86.567181 55.934063 
L 86.641975 55.295163 
L 87.004436 55.124965 
L 88.810987 53.854203 
L 89.144681 53.587554 
L 89.087148 52.9893 
L 88.753454 52.397524 
L 88.304692 52.126878 
L 87.47621 52.057649 
L 86.849095 51.881441 
L 85.709932 51.390661 
L 87.027449 50.103476 
L 88.350719 49.08314 
L 89.783303 48.251765 
L 92.470117 47.234498 
L 93.989001 46.979219 
L 94.380228 46.251231 
L 94.610362 46.088099 
L 105.092963 44.687405 
L 107.428822 44.716663 
L 115.679124 46.088099 
L 115.679124 46.470854 
L 114.775848 46.711421 
L 114.712561 47.029435 
L 115.25913 47.33076 
L 116.208432 47.52539 
L 117.174995 47.489811 
L 117.865396 47.224035 
L 120.442896 45.592513 
L 121.610826 44.664417 
L 122.90533 43.931036 
L 125.678443 43.523723 
L 128.014303 42.932751 
L 131.397272 43.283553 
L 138.939912 42.932751 
L 134.757227 41.388311 
L 132.639995 41.071228 
L 131.207411 40.591532 
L 130.447969 40.481011 
L 129.878388 40.60613 
L 127.392941 41.947505 
L 126.035151 42.511037 
L 124.527774 42.794953 
L 123.204504 42.389968 
L 121.92726 41.876553 
L 120.580977 42.020546 
L 118.107037 42.932751 
L 115.25913 43.408856 
L 109.120307 43.446448 
L 92.941891 45.766058 
L 91.543828 45.820425 
L 90.203297 45.579968 
L 82.292443 42.932751 
L 82.741204 43.609356 
L 82.171623 43.956104 
L 79.841517 44.336346 
L 77.212237 45.030167 
L 76.01554 45.038528 
L 76.458548 44.716663 
L 75.187058 44.390673 
L 73.967348 44.49933 
L 72.759145 44.888039 
L 71.591215 45.416893 
L 70.446299 45.366719 
L 68.996455 45.933346 
L 67.765239 46.54825 
L 67.241684 46.64657 
L 66.637582 45.95844 
L 65.233765 45.692875 
L 63.622828 45.761876 
L 62.414625 46.088099 
L 63.450227 46.533608 
L 60.884234 47.489811 
L 57.374691 48.230828 
L 54.854725 47.93355 
L 53.19776 48.077997 
L 51.540796 48.381579 
L 50.781354 48.754317 
L 50.39588 49.751431 
L 49.446577 50.359168 
L 48.330428 50.820337 
L 47.409892 51.390661 
L 46.80579 53.423803 
L 46.47785 53.682032 
L 46.011828 53.896199 
L 43.768022 55.295163 
L 42.174345 55.351899 
L 41.414903 55.496898 
L 41.092715 55.793235 
L 40.563407 56.001328 
L 39.401231 56.190522 
L 38.239055 56.543735 
L 37.709747 57.220904 
L 38.313848 58.973799 
L 38.244808 59.795022 
L 37.180439 60.273174 
L 37.180439 60.593411 
L 40.005333 60.47753 
L 40.655461 60.593411 
L 41.184769 61.223504 
L 40.759021 61.664057 
L 39.838486 61.925485 
L 38.91795 62.007715 
L 38.089468 61.900184 
L 36.432503 61.413204 
L 35.517721 61.299382 
L 34.671979 61.400557 
L 33.256655 61.868558 
L 32.359133 62.007715 
L 32.359133 62.393611 
L 35.730595 62.007715 
L 36.743184 62.140556 
L 38.91795 62.716303 
L 43.906103 61.836933 
L 44.947459 62.007715 
L 45.143073 62.387284 
L 44.947459 63.81132 
L 46.011828 64.499446 
L 46.489356 64.995636 
L 45.442247 65.758112 
L 44.717325 66.123613 
L 42.145578 66.518768 
L 42.174345 66.738568 
L 43.060361 66.971075 
L 41.627777 66.983758 
L 39.660132 66.244053 
L 37.928374 65.29341 
L 37.180439 64.678905 
L 36.536064 63.906293 
L 34.948139 63.28378 
L 32.963234 62.868177 
L 31.150929 62.716303 
L 29.8967 62.444226 
L 28.400829 61.786334 
L 27.008519 60.985352 
L 26.087983 60.273174 
L 25.299774 58.407566 
L 24.851013 58.121355 
L 23.890204 57.986682 
L 21.899545 57.452289 
L 20.725862 57.414424 
L 21.744205 59.321197 
L 22.106666 60.439606 
L 21.934065 61.141307 
L 20.881203 61.212966 
L 20.346141 60.123607 
L 20.196554 57.736298 
L 21.025036 55.604079 
L 22.61296 54.013791 
L 35.29334 45.736785 
L 39.102057 44.160841 
L 44.947459 40.481011 
L 47.191265 39.63667 
L 49.722738 39.655429 
L 55.614167 40.481011 
L 58.922342 40.562337 
L 65.314312 39.9827 
L 68.156466 39.403239 
L 71.550942 37.911621 
L 72.816679 37.682565 
L 90.502471 38.703117 
L 96.928962 38.398977 
L 103.332438 37.457701 
L 109.390714 35.842788 
L 114.724068 33.497778 
L 129.935921 22.481165 
L 132.622735 20.926482 
L 137.495821 18.816416 
L 139.935241 16.999099 
L 140.873037 16.743745 
L 142.558768 15.788541 
L 145.98201 15.523065 
L 152.506307 15.708276 
L 158.863757 15.290547 
L 164.657379 14.294962 
L 169.680052 12.876561 
L 178.298568 9.446075 
L 183.004807 8.092885 
L 184.914918 7.810071 
L 187.032151 7.724006 
L 189.080343 7.908436 
L 190.771827 8.437238 
L 186.917084 8.996951 
L 183.246447 10.356963 
L 177.447072 13.807649 
L 175.324087 16.842588 
L 177.297485 19.125661 
L 180.876068 21.225756 
L 183.534115 23.700213 
L 181.474416 25.935817 
L 181.508936 28.588487 
L 183.004807 33.813604 
L 181.796604 34.578451 
L 178.183501 35.63062 
L 176.48051 36.462786 
L 173.983557 38.532292 
L 172.8559 39.924329 
L 172.044678 42.131156 
L 170.289907 44.599634 
L 169.438411 45.416893 
L 168.840063 45.774422 
L 168.264728 45.97517 
L 167.49378 46.069277 
L 163.132741 46.155023 
L 161.843991 46.309795 
L 155.923796 44.716663 
L 151.539745 42.834621 
L 148.622797 42.360745 
L 146.263924 41.400828 
L 144.514906 41.181784 
L 143.088076 41.500971 
L 141.08591 42.799128 
L 139.72812 42.932751 
L 141.039884 42.997477 
L 142.530001 42.233424 
L 145.032707 41.634503 
L 146.494058 41.880727 
L 153.467116 44.804439 
L 155.779962 45.260103 
L 158.495543 46.247048 
L 160.048947 46.470854 
L 165.756268 46.527332 
L 167.073785 46.822302 
L 165.08888 47.807953 
L 164.657379 48.228735 
L 164.317931 48.909297 
L 163.932457 50.313057 
L 163.690816 50.69036 
L 164.202864 51.533268 
L 164.973813 54.164991 
L 165.27874 56.240977 
L 165.779282 57.338696 
L 167.516793 59.531772 
L 168.805543 60.180483 
L 168.97239 60.521775 
L 168.000074 60.976922 
L 167.424739 60.993781 
L 164.870253 60.593411 
L 161.688651 60.593411 
L 160.578255 60.793586 
L 159.306765 61.299382 
L 158.115822 60.787265 
L 156.781045 60.382723 
L 155.250654 60.262641 
L 153.467116 60.593411 
L 151.229064 61.210858 
L 150.089901 61.299382 
L 149.019778 61.512277 
L 146.839259 62.235448 
L 144.250252 62.615061 
L 141.045637 63.589736 
L 131.172891 64.165907 
L 131.172891 64.520558 
L 134.38326 64.752804 
L 144.998187 63.425147 
L 147.362814 62.828098 
L 148.634304 62.604515 
L 148.812657 62.11947 
L 149.336212 62.007715 
L 149.911547 62.068863 
L 151.298104 62.393611 
L 152.057546 62.317691 
L 152.926301 62.108926 
L 153.64547 61.817958 
L 153.950397 61.478549 
L 154.422172 60.778836 
L 155.538322 60.673479 
L 157.856921 60.976922 
L 157.32186 61.655625 
L 161.999332 62.022475 
L 164.939293 61.950786 
L 166.832144 61.478549 
L 168.523629 61.221397 
L 169.835392 62.361977 
L 170.180593 64.077255 
L 168.95513 65.551095 
L 164.191358 67.038718 
L 160.681815 68.654394 
L 160.048947 68.774988 
L 159.306765 70.940581 
L 159.841826 71.531606 
L 159.513885 72.279643 
L 158.71417 72.970714 
L 157.856921 73.394803 
L 160.031687 73.348149 
L 160.842909 73.072487 
L 160.756609 71.099441 
L 160.980989 69.670152 
L 161.694404 68.978111 
L 164.657379 68.064224 
L 166.998992 66.782953 
L 168.247468 66.440576 
L 169.703065 66.820999 
L 169.956213 67.150758 
L 170.404974 68.597273 
L 170.715655 68.768641 
L 172.809874 69.483891 
L 178.114461 70.720315 
L 183.885069 70.997769 
L 200.679093 69.915705 
L 203.026459 70.02579 
L 205.339305 70.550896 
L 206.392168 71.04225 
L 208.670494 72.682386 
L 213.054545 74.495733 
L 213.054545 74.820401 
L 211.414841 75.482632 
L 210.534579 76.684546 
L 210.183625 78.074229 
L 210.120338 79.307475 
L 209.343636 80.46912 
L 202.836599 84.297071 
L 199.53993 85.237594 
L 198.297207 85.954477 
L 197.917486 86.650266 
L 198.101593 88.281825 
L 197.112017 89.880485 
L 194.879718 90.072922 
L 192.417285 89.320384 
L 190.771827 88.102375 
L 192.589885 87.974206 
L 193.337821 87.690127 
L 193.706035 87.026007 
L 193.510421 86.325819 
L 192.797006 86.112396 
L 191.87647 86.044105 
L 191.030728 85.775232 
L 189.33349 85.523463 
L 187.578719 86.389851 
L 185.985041 87.53422 
L 183.718222 88.636499 
L 184.21301 89.859105 
L 185.145052 91.197972 
L 185.455733 92.083905 
L 184.765331 92.452086 
L 183.637675 92.681163 
L 182.435225 92.738972 
L 181.554963 92.604088 
L 180.841548 92.167382 
L 180.139639 91.159462 
L 179.621838 90.646064 
L 180.185666 90.395829 
L 182.038244 89.927524 
L 181.53195 89.341759 
L 180.910588 89.061763 
L 177.987887 88.69633 
L 177.343512 88.747615 
L 175.767095 89.177176 
L 173.787943 89.337484 
L 172.568233 88.927122 
L 171.492357 88.192098 
L 169.967719 87.384733 
L 171.544137 87.318534 
L 173.908763 86.522189 
L 175.237787 86.313013 
L 176.238869 86.620381 
L 177.464332 87.166927 
L 178.672535 87.369784 
L 179.621838 86.637458 
L 178.425142 85.800838 
L 178.505688 85.148002 
L 180.576894 83.414528 
L 179.621838 83.420922 
L 178.603495 83.250426 
L 177.671453 82.939309 
L 176.963791 82.538762 
L 176.187089 82.321478 
L 174.357524 82.67511 
L 173.385208 82.342779 
L 173.120554 83.04372 
L 172.73508 83.480599 
L 172.113718 83.708666 
L 171.129896 83.772615 
L 170.612094 84.054013 
L 168.713489 85.775232 
L 166.987485 86.69723 
L 163.167262 88.004111 
L 161.452764 88.997647 
L 160.463188 90.229023 
L 160.934962 90.999011 
L 162.102892 91.717929 
L 163.207535 92.798923 
L 163.673556 94.131151 
L 163.380135 95.146968 
L 162.51138 96.068926 
L 161.234137 97.117889 
L 162.931374 96.770321 
L 164.174098 96.705963 
L 164.513545 97.079268 
L 162.741514 98.742801 
L 162.568913 99.417184 
L 162.68398 100.751566 
L 162.517133 102.080358 
L 162.240972 102.52563 
L 160.543735 103.46166 
L 160.273327 103.83619 
L 159.928126 103.834038 
L 158.340202 104.372274 
L 157.856921 104.688823 
L 158.207875 104.824501 
L 158.719923 105.345761 
L 158.990331 105.905938 
L 158.138835 106.548173 
L 157.770621 106.809003 
L 157.103232 106.925418 
L 156.234477 106.828405 
L 155.572842 106.574039 
L 154.157518 105.496563 
L 153.64547 104.712512 
L 152.989588 104.363661 
L 152.092066 104.230166 
L 145.222568 104.363661 
L 144.307786 104.497165 
L 142.806162 105.444858 
L 140.970844 105.755106 
L 137.242674 105.660303 
L 135.522423 105.83914 
L 137.300207 106.673195 
L 147.414594 107.617569 
L 148.128009 107.854808 
L 147.874862 108.413505 
L 146.706932 109.494653 
L 146.12009 110.420872 
L 146.292691 110.829057 
L 147.276513 110.926255 
L 149.123338 110.906815 
L 149.123338 111.274048 
L 146.223651 111.976289 
L 145.377908 112.57284 
L 146.183377 113.448521 
L 145.262841 113.844319 
L 143.600124 113.403106 
L 135.833103 114.370003 
L 132.294794 115.181502 
L 130.206329 115.261587 
L 125.874057 114.534441 
L 122.732729 113.448521 
L 115.41447 113.43122 
L 113.757506 113.085231 
L 113.326005 113.595585 
L 113.274224 113.844319 
L 114.747082 114.145003 
L 119.833041 114.17529 
L 120.753577 114.415439 
L 124.412707 116.023628 
L 126.391859 117.643885 
L 127.795676 117.806413 
L 134.55586 117.806413 
L 133.399437 118.415462 
L 129.728801 119.655778 
L 127.761156 120.740568 
L 126.8061 121.020534 
L 125.160642 121.113864 
L 124.562294 121.343952 
L 124.171066 122.570786 
L 119.717975 123.050856 
L 118.107037 123.550591 
L 117.128968 123.665765 
L 116.277472 123.581014 
L 114.689548 123.285499 
L 113.757506 123.300709 
L 113.941613 123.520169 
L 114.240787 123.665765 
L 113.216691 124.289547 
L 110.598917 124.659122 
L 109.407974 125.126617 
L 110.650698 125.463712 
L 111.979721 125.426738 
L 116.783767 124.787401 
L 120.868644 125.739953 
L 121.156312 126.342586 
L 120.851384 127.073807 
L 120.074682 127.713832 
L 119.10812 127.999075 
L 116.714727 128.208133 
L 115.679124 128.443347 
L 116.053092 129.038031 
L 116.921847 129.848637 
L 117.174995 130.273675 
L 116.979381 130.875411 
L 116.56514 131.33991 
L 116.674453 131.739067 
L 118.981546 132.485233 
L 119.815781 132.982821 
L 120.028655 133.508906 
L 119.062093 133.932488 
L 119.062093 134.332128 
L 119.787015 134.688155 
L 122.404788 136.637518 
L 123.273544 136.799315 
L 124.113533 137.151377 
L 124.412707 138.032877 
L 124.148053 138.660864 
L 123.18149 139.521088 
L 122.962863 140.388225 
L 122.583142 140.782493 
L 121.674113 141.058524 
L 119.591401 141.27543 
L 115.437483 140.940221 
L 114.482428 141.054142 
L 113.895586 141.341163 
L 113.429565 141.698349 
L 112.790943 142.044635 
L 110.052349 142.702291 
L 109.149074 142.776838 
L 108.579492 143.009266 
L 108.579492 143.485163 
L 109.166334 143.879995 
L 110.386043 143.879995 
L 110.386043 144.250764 
L 108.303331 144.220047 
L 107.336769 144.327559 
L 106.473767 144.654514 
L 107.187182 144.887143 
L 108.073197 144.979323 
L 110.115636 144.988103 
L 111.053432 145.185647 
L 112.077528 145.670803 
L 113.757506 146.830347 
L 111.927941 147.887211 
L 110.719738 148.388357 
L 109.407974 148.70493 
L 106.180346 148.992963 
L 104.903102 149.415187 
L 105.507204 150.180675 
L 106.381713 150.191676 
L 110.386043 149.478967 
L 112.790943 149.478967 
L 113.803532 149.043537 
L 114.390374 148.808265 
L 115.195843 148.70493 
L 116.726233 148.990764 
L 119.574141 150.37869 
L 121.041245 150.920022 
L 124.924755 151.382241 
L 125.874057 151.692643 
L 126.414872 152.480953 
L 128.037316 157.002682 
L 127.358421 157.241042 
L 126.305558 157.254285 
L 125.310229 156.989441 
L 124.493254 156.938683 
L 123.929426 157.611874 
L 125.65543 157.976146 
L 126.357339 158.298521 
L 126.829113 158.691618 
L 127.099521 159.148846 
L 127.237601 159.778518 
L 126.932673 160.33543 
L 125.891317 160.578571 
L 125.068589 160.344271 
L 124.061753 159.327787 
L 123.446144 159.09362 
L 120.506183 159.190818 
L 119.591401 159.09362 
L 118.262377 158.744625 
L 118.360184 158.528187 
L 118.935519 158.320603 
L 119.062093 157.98277 
L 117.813616 157.174828 
L 117.347595 156.687116 
L 117.85389 156.466467 
L 119.740988 156.142154 
L 119.361267 155.520135 
L 117.675536 155.090119 
L 115.679124 155.359145 
L 115.287896 155.681137 
L 114.355854 156.784209 
L 112.790943 157.98277 
L 112.255882 158.060047 
L 111.110965 157.984977 
L 110.616177 158.16824 
L 109.407974 158.797633 
L 106.46226 159.911103 
L 105.507204 160.578571 
L 105.041183 161.723901 
L 105.085887 161.740621 
L 104.041021 161.897919 
L 102.842714 161.836122 
L 101.417897 161.237903 
L 100.139215 161.367083 
L 99.3647 161.67602 
L 98.356368 161.799606 
L 97.669533 162.117031 
L 96.610054 162.204121 
L 91.451487 162.195693 
L 90.202032 161.970954 
L 89.683253 161.324958 
L 89.471357 160.566855 
L 89.14986 160.019498 
L 87.966166 159.553649 
L 72.97271 157.982836 
L 67.419578 156.973618 
L 61.771458 156.542037 
L 60.120132 156.654128 
L 55.304982 157.455742 
L 52.696472 157.405282 
L 50.214559 157.062081 
L 50.214559 157.062081 
" clip-path="url(#p663f5b39ed)" style="fill: none; stroke: #000000; stroke-width: 0.5; stroke-linecap: square"/>
   </g>
  </g>
 </g>
 <defs>
  <clipPath id="p663f5b39ed">
   <rect x="0" y="0" width="223.2" height="169.928126"/>
  </clipPath>
 </defs>
</svg>
