<?xml version="1.0" encoding="utf-8" standalone="no"?>
<!DOCTYPE svg PUBLIC "-//W3C//DTD SVG 1.1//EN"
  "http://www.w3.org/Graphics/SVG/1.1/DTD/svg11.dtd">
<svg xmlns:xlink="http://www.w3.org/1999/xlink" width="223.2pt" height="177.699212pt" viewBox="0 0 223.2 177.699212" xmlns="http://www.w3.org/2000/svg" version="1.1">
 <metadata>
  <rdf:RDF xmlns:dc="http://purl.org/dc/elements/1.1/" xmlns:cc="http://creativecommons.org/ns#" xmlns:rdf="http://www.w3.org/1999/02/22-rdf-syntax-ns#">
   <cc:Work>
    <dc:type rdf:resource="http://purl.org/dc/dcmitype/StillImage"/>
    <dc:date>2026-04-26T19:21:47.909886</dc:date>
    <dc:format>image/svg+xml</dc:format>
    <dc:creator>
     <cc:Agent>
      <dc:title>Matplotlib v3.10.9, https://matplotlib.org/</dc:title>
     </cc:Agent>
    </dc:creator>
   </cc:Work>
  </rdf:RDF>
 </metadata>
 <defs>
  <style type="text/css">*{stroke-linejoin: round; stroke-linecap: butt}</style>
 </defs>
 <g id="figure_1">
  <g id="patch_1">
   <path d="M 0 177.699212 
L 223.2 177.699212 
L 223.2 0 
L 0 0 
z
" style="fill: #ffffff"/>
  </g>
  <g id="axes_1">
   <g id="patch_2">
    <path d="M 97.777488 135.29281 
L 80.955982 132.314728 
L 45.577416 134.021662 
L 32.627526 138.379971 
L 33.797694 124.94159 
L 40.791636 127.063068 
L 44.055476 116.594619 
L 31.169667 111.752883 
L 28.626416 106.173749 
L 35.747521 100.595035 
L 33.204269 94.325244 
L 19.089223 88.055982 
L 14.52184 83.939853 
L 11.41708 81.14197 
L 10.145455 72.753833 
L 14.045107 64.412724 
L 26.846139 62.293034 
L 35.747521 54.644221 
L 43.462051 54.644221 
L 47.276927 58.192067 
L 40.791636 77.639116 
L 37.612571 88.055982 
L 46.55634 85.290301 
L 63.935225 72.062544 
L 85.63764 85.981711 
L 93.35217 78.330455 
L 102.338325 79.805335 
L 108.781229 78.330455 
L 112.002681 67.223711 
L 133.111669 54.644221 
L 142.013049 57.454837 
L 148.455954 63.675433 
L 157.357335 62.293034 
L 168.293316 54.644221 
L 172.108194 49.023308 
L 176.516497 45.660179 
L 172.108194 37.967018 
L 172.108194 24.793762 
L 175.923072 8.077237 
L 186.774278 8.077237 
L 188.724104 15.675189 
L 194.488808 17.148821 
L 198.388461 25.438552 
L 200.253512 28.24806 
L 200.253512 33.130411 
L 206.61164 33.130411 
L 213.054545 42.205067 
L 207.289842 49.023308 
L 202.203338 51.096546 
L 200.776311 52.544227 
L 193.895383 59.528311 
L 179.144524 49.023308 
L 174.651446 53.953103 
L 168.886742 60.219483 
L 158.62896 66.532475 
L 147.184328 68.606204 
L 142.013049 63.675433 
L 135.654922 59.528311 
L 124.718939 64.412724 
L 117.004409 69.98872 
L 112.596107 79.805335 
L 131.755269 87.364552 
L 138.198173 93.633756 
L 137.519972 113.136204 
L 146.506127 120.09931 
L 161.850413 121.482788 
L 161.850413 136.794975 
L 154.814083 138.271015 
L 144.641076 146.574285 
L 150.999205 150.126522 
L 166.258715 147.220134 
L 188.74762 151.54477 
L 182.152029 159.594044 
L 174.5423 166.642522 
L 164.529498 169.621975 
L 152.31388 165.552508 
L 129.551445 145.644384 
L 116.868563 138.634213 
L 98.51176 135.401766 
L 101.0667 135.411214 
L 103.60995 134.719343 
L 107.509603 134.027478 
L 108.781229 134.027478 
L 106.153202 129.876427 
L 102.338325 127.847108 
L 99.116874 127.847108 
L 95.301996 127.847108 
L 92.080543 124.295934 
L 85.63764 122.866288 
L 81.822762 122.866288 
L 79.957711 124.295934 
L 85.044214 127.063068 
L 88.265666 128.492795 
L 89.537292 131.951924 
L 93.35217 131.951924 
L 97.167047 132.643769 
z
" clip-path="url(#p2e7136fa8a)" style="stroke: #000000; stroke-linejoin: miter"/>
   </g>
   <g id="line2d_1">
    <path d="M 97.777488 135.29281 
L 80.955982 132.314728 
L 45.577416 134.021662 
L 32.627526 138.379971 
L 33.797694 124.94159 
L 40.791636 127.063068 
L 44.055476 116.594619 
L 31.169667 111.752883 
L 28.626416 106.173749 
L 35.747521 100.595035 
L 33.204269 94.325244 
L 19.089223 88.055982 
L 14.52184 83.939853 
L 11.41708 81.14197 
L 10.145455 72.753833 
L 14.045107 64.412724 
L 26.846139 62.293034 
L 35.747521 54.644221 
L 43.462051 54.644221 
L 47.276927 58.192067 
L 40.791636 77.639116 
L 37.612571 88.055982 
L 46.55634 85.290301 
L 63.935225 72.062544 
L 85.63764 85.981711 
L 93.35217 78.330455 
L 102.338325 79.805335 
L 108.781229 78.330455 
L 112.002681 67.223711 
L 133.111669 54.644221 
L 142.013049 57.454837 
L 148.455954 63.675433 
L 157.357335 62.293034 
L 168.293316 54.644221 
L 172.108194 49.023308 
L 176.516497 45.660179 
L 172.108194 37.967018 
L 172.108194 24.793762 
L 175.923072 8.077237 
L 186.774278 8.077237 
L 188.724104 15.675189 
L 194.488808 17.148821 
L 198.388461 25.438552 
L 200.253512 28.24806 
L 200.253512 33.130411 
L 206.61164 33.130411 
L 213.054545 42.205067 
L 207.289842 49.023308 
L 202.203338 51.096546 
L 200.776311 52.544227 
L 193.895383 59.528311 
L 179.144524 49.023308 
L 174.651446 53.953103 
L 168.886742 60.219483 
L 158.62896 66.532475 
L 147.184328 68.606204 
L 142.013049 63.675433 
L 135.654922 59.528311 
L 124.718939 64.412724 
L 117.004409 69.98872 
L 112.596107 79.805335 
L 131.755269 87.364552 
L 138.198173 93.633756 
L 137.519972 113.136204 
L 146.506127 120.09931 
L 161.850413 121.482788 
L 161.850413 136.794975 
L 154.814083 138.271015 
L 144.641076 146.574285 
L 150.999205 150.126522 
L 166.258715 147.220134 
L 188.74762 151.54477 
L 182.152029 159.594044 
L 174.5423 166.642522 
L 164.529498 169.621975 
L 152.31388 165.552508 
L 129.551445 145.644384 
L 116.868563 138.634213 
L 98.51176 135.401766 
L 101.0667 135.411214 
L 103.60995 134.719343 
L 107.509603 134.027478 
L 108.781229 134.027478 
L 106.153202 129.876427 
L 102.338325 127.847108 
L 99.116874 127.847108 
L 95.301996 127.847108 
L 92.080543 124.295934 
L 85.63764 122.866288 
L 81.822762 122.866288 
L 79.957711 124.295934 
L 85.044214 127.063068 
L 88.265666 128.492795 
L 89.537292 131.951924 
L 93.35217 131.951924 
L 97.167047 132.643769 
L 97.777488 135.29281 
" clip-path="url(#p2e7136fa8a)" style="fill: none; stroke: #000000; stroke-width: 0.5; stroke-linecap: square"/>
   </g>
  </g>
 </g>
 <defs>
  <clipPath id="p2e7136fa8a">
   <rect x="0" y="0" width="223.2" height="177.699212"/>
  </clipPath>
 </defs>
</svg>
