<?xml version="1.0" encoding="utf-8" standalone="no"?>
<!DOCTYPE svg PUBLIC "-//W3C//DTD SVG 1.1//EN"
  "http://www.w3.org/Graphics/SVG/1.1/DTD/svg11.dtd">
<svg xmlns:xlink="http://www.w3.org/1999/xlink" width="223.2pt" height="142.683693pt" viewBox="0 0 223.2 142.683693" xmlns="http://www.w3.org/2000/svg" version="1.1">
 <metadata>
  <rdf:RDF xmlns:dc="http://purl.org/dc/elements/1.1/" xmlns:cc="http://creativecommons.org/ns#" xmlns:rdf="http://www.w3.org/1999/02/22-rdf-syntax-ns#">
   <cc:Work>
    <dc:type rdf:resource="http://purl.org/dc/dcmitype/StillImage"/>
    <dc:date>2026-04-26T19:22:05.558752</dc:date>
    <dc:format>image/svg+xml</dc:format>
    <dc:creator>
     <cc:Agent>
      <dc:title>Matplotlib v3.10.9, https://matplotlib.org/</dc:title>
     </cc:Agent>
    </dc:creator>
   </cc:Work>
  </rdf:RDF>
 </metadata>
 <defs>
  <style type="text/css">*{stroke-linejoin: round; stroke-linecap: butt}</style>
 </defs>
 <g id="figure_1">
  <g id="patch_1">
   <path d="M 0 142.683693 
L 223.2 142.683693 
L 223.2 0 
L 0 0 
z
" style="fill: #ffffff"/>
  </g>
  <g id="axes_1">
   <g id="patch_2">
    <path d="M 11.123755 78.515323 
L 14.015501 76.379962 
L 15.78669 74.119585 
L 19.871408 66.063746 
L 20.242122 64.368054 
L 21.02474 63.390083 
L 24.807395 61.577637 
L 26.049973 60.195818 
L 26.379497 58.257606 
L 26.894377 48.385699 
L 27.61521 45.872482 
L 28.706756 43.628413 
L 30.086636 42.066472 
L 31.775444 41.330364 
L 35.640479 40.558336 
L 37.253771 39.427199 
L 37.933413 39.211741 
L 41.022696 39.804248 
L 41.970076 39.463109 
L 44.468962 37.541905 
L 50.057131 35.45003 
L 51.752804 35.207617 
L 57.306648 35.692441 
L 59.036646 35.207617 
L 63.595054 32.532008 
L 65.654576 32.208769 
L 67.837669 33.03482 
L 68.826239 32.96299 
L 71.132904 29.946028 
L 72.68441 30.825997 
L 75.183296 30.915789 
L 79.7623 29.946028 
L 89.668599 25.779401 
L 93.643476 25.483052 
L 102.458229 27.503571 
L 105.835845 29.640728 
L 108.101319 29.946028 
L 109.954888 29.461139 
L 113.531591 28.006441 
L 114.238693 27.880724 
L 115.350835 27.683168 
L 119.14722 27.611329 
L 122.538566 26.991715 
L 124.282294 25.860223 
L 128.003163 22.438627 
L 130.694272 21.432753 
L 133.495221 19.39399 
L 134.428871 19.187414 
L 136.110814 19.151488 
L 136.996408 18.639534 
L 138.520454 20.085564 
L 140.312238 21.019619 
L 142.255054 21.549507 
L 144.22533 21.720148 
L 145.461043 22.276971 
L 148.57092 26.102688 
L 152.051512 24.576033 
L 158.525275 20.606482 
L 160.742694 19.825102 
L 162.342256 18.361101 
L 163.028763 17.947938 
L 163.962413 17.938956 
L 165.397213 18.522772 
L 166.008204 18.639534 
L 169.701613 17.642554 
L 173.312641 15.540739 
L 181.955767 7.545742 
L 183.850527 6.485622 
L 185.271597 6.91686 
L 186.569096 8.156646 
L 192.500519 11.848847 
L 194.127541 12.414778 
L 196.214523 12.6663 
L 198.267179 12.414778 
L 199.750035 11.471556 
L 202.345033 9.072988 
L 202.921699 8.776526 
L 204.013245 9.090955 
L 204.425149 9.800657 
L 204.651697 10.770864 
L 205.221498 11.848847 
L 207.006417 13.241203 
L 210.830262 14.588602 
L 212.443554 15.998836 
L 213.054545 18.208411 
L 212.210142 20.094545 
L 206.045307 26.084728 
L 202.180271 31.131288 
L 194.443334 38.942417 
L 188.992467 45.818626 
L 188.415801 46.949593 
L 187.4135 47.057303 
L 181.502673 48.762668 
L 176.0724 53.86938 
L 173.655895 55.421913 
L 160.83194 56.624414 
L 158.9921 57.19873 
L 158.00353 57.808933 
L 155.532104 60.195818 
L 154.914247 60.545764 
L 154.193415 60.75214 
L 152.339845 60.87776 
L 151.474846 61.299482 
L 148.172746 66.198322 
L 145.110924 72.98935 
L 142.124617 76.397901 
L 138.561645 77.707427 
L 116.26389 81.420513 
L 113.90917 82.694007 
L 112.556751 83.420419 
L 106.282074 89.016045 
L 97.810575 96.556368 
L 96.238473 97.201848 
L 91.275026 96.215694 
L 89.606813 96.386032 
L 88.666299 97.031514 
L 86.826459 99.030651 
L 85.837889 99.460945 
L 82.336702 99.460945 
L 80.565513 100.034664 
L 75.155836 103.969795 
L 73.60433 104.023575 
L 69.320525 103.216861 
L 67.940645 103.59333 
L 66.217512 105.368063 
L 64.487514 106.63184 
L 59.077836 109.230972 
L 49.864909 113.658067 
L 46.830547 116.068566 
L 42.484957 120.754727 
L 40.157697 122.06281 
L 39.127936 123.621702 
L 37.5627 126.667633 
L 36.64278 127.975519 
L 35.72286 128.916095 
L 34.500877 129.480429 
L 30.560326 129.856648 
L 28.926438 130.474713 
L 27.498503 131.648115 
L 26.049973 133.49324 
L 23.111722 136.198071 
L 22.210384 129.475983 
L 21.819716 127.843255 
L 19.919052 123.974998 
L 19.836225 123.201301 
L 20.006239 121.471804 
L 19.888537 120.76633 
L 19.42209 120.038086 
L 17.634768 118.592935 
L 15.620762 116.2601 
L 15.045331 115.019659 
L 14.552728 113.10771 
L 14.042688 109.3063 
L 14.365277 106.050911 
L 15.76026 103.84256 
L 18.52407 103.205075 
L 20.250361 103.227842 
L 20.825791 103.432749 
L 21.40994 103.990546 
L 22.416943 105.470377 
L 22.94878 105.89155 
L 24.151953 105.982614 
L 24.879959 105.345163 
L 25.629763 104.377584 
L 26.937559 103.4669 
L 27.861735 103.364447 
L 29.936772 103.535202 
L 30.621185 103.125388 
L 30.895822 102.066683 
L 30.791532 101.521985 
L 30.669138 100.882722 
L 30.311673 99.721496 
L 30.146019 98.696856 
L 31.580236 91.774165 
L 31.610751 89.382829 
L 30.904541 87.196341 
L 29.675213 85.431122 
L 28.14945 84.007503 
L 26.562657 82.845793 
L 25.952352 82.12825 
L 25.634122 81.444863 
L 25.237424 81.182896 
L 24.36556 81.68405 
L 24.073485 82.310484 
L 23.698583 84.451677 
L 23.423946 85.260291 
L 22.286163 86.558593 
L 18.288666 88.82483 
L 16.135162 90.635451 
L 15.036613 91.216199 
L 13.51521 91.352844 
L 12.264085 90.908745 
L 11.274519 89.918045 
L 10.572668 88.517358 
L 10.145455 86.831915 
L 10.250078 84.941403 
L 11.374783 81.194286 
z
" clip-path="url(#pc6028a8ecf)" style="stroke: #000000; stroke-linejoin: miter"/>
   </g>
   <g id="line2d_1">
    <path d="M 11.123755 78.515323 
L 14.015501 76.379962 
L 15.78669 74.119585 
L 19.871408 66.063746 
L 20.242122 64.368054 
L 21.02474 63.390083 
L 24.807395 61.577637 
L 26.049973 60.195818 
L 26.379497 58.257606 
L 26.894377 48.385699 
L 27.61521 45.872482 
L 28.706756 43.628413 
L 30.086636 42.066472 
L 31.775444 41.330364 
L 35.640479 40.558336 
L 37.253771 39.427199 
L 37.933413 39.211741 
L 41.022696 39.804248 
L 41.970076 39.463109 
L 44.468962 37.541905 
L 50.057131 35.45003 
L 51.752804 35.207617 
L 57.306648 35.692441 
L 59.036646 35.207617 
L 63.595054 32.532008 
L 65.654576 32.208769 
L 67.837669 33.03482 
L 68.826239 32.96299 
L 71.132904 29.946028 
L 72.68441 30.825997 
L 75.183296 30.915789 
L 79.7623 29.946028 
L 89.668599 25.779401 
L 93.643476 25.483052 
L 102.458229 27.503571 
L 105.835845 29.640728 
L 108.101319 29.946028 
L 109.954888 29.461139 
L 113.531591 28.006441 
L 115.350835 27.683168 
L 119.14722 27.611329 
L 122.538566 26.991715 
L 124.282294 25.860223 
L 128.003163 22.438627 
L 130.694272 21.432753 
L 133.495221 19.39399 
L 134.428871 19.187414 
L 136.110814 19.151488 
L 136.996408 18.639534 
L 138.520454 20.085564 
L 140.312238 21.019619 
L 142.255054 21.549507 
L 144.22533 21.720148 
L 145.461043 22.276971 
L 148.57092 26.102688 
L 152.051512 24.576033 
L 158.525275 20.606482 
L 160.742694 19.825102 
L 162.342256 18.361101 
L 163.028763 17.947938 
L 163.962413 17.938956 
L 165.397213 18.522772 
L 166.008204 18.639534 
L 169.701613 17.642554 
L 173.312641 15.540739 
L 181.955767 7.545742 
L 183.850527 6.485622 
L 185.271597 6.91686 
L 186.569096 8.156646 
L 192.500519 11.848847 
L 194.127541 12.414778 
L 196.214523 12.6663 
L 198.267179 12.414778 
L 199.750035 11.471556 
L 202.345033 9.072988 
L 202.921699 8.776526 
L 204.013245 9.090955 
L 204.425149 9.800657 
L 204.651697 10.770864 
L 205.221498 11.848847 
L 207.006417 13.241203 
L 210.830262 14.588602 
L 212.443554 15.998836 
L 213.054545 18.208411 
L 212.210142 20.094545 
L 206.045307 26.084728 
L 202.180271 31.131288 
L 194.443334 38.942417 
L 188.992467 45.818626 
L 188.415801 46.949593 
L 187.4135 47.057303 
L 181.502673 48.762668 
L 176.0724 53.86938 
L 173.655895 55.421913 
L 160.83194 56.624414 
L 158.9921 57.19873 
L 158.00353 57.808933 
L 155.532104 60.195818 
L 154.914247 60.545764 
L 154.193415 60.75214 
L 152.339845 60.87776 
L 151.474846 61.299482 
L 148.172746 66.198322 
L 145.110924 72.98935 
L 142.124617 76.397901 
L 138.561645 77.707427 
L 116.26389 81.420513 
L 112.556751 83.420419 
L 97.810575 96.556368 
L 96.238473 97.201848 
L 91.275026 96.215694 
L 89.606813 96.386032 
L 88.666299 97.031514 
L 86.826459 99.030651 
L 85.837889 99.460945 
L 82.336702 99.460945 
L 80.565513 100.034664 
L 75.155836 103.969795 
L 73.60433 104.023575 
L 69.320525 103.216861 
L 67.940645 103.59333 
L 66.217512 105.368063 
L 64.487514 106.63184 
L 49.864909 113.658067 
L 46.830547 116.068566 
L 42.484957 120.754727 
L 40.157697 122.06281 
L 39.127936 123.621702 
L 37.5627 126.667633 
L 36.64278 127.975519 
L 35.72286 128.916095 
L 34.500877 129.480429 
L 30.560326 129.856648 
L 28.926438 130.474713 
L 27.498503 131.648115 
L 26.049973 133.49324 
L 23.111722 136.198071 
L 22.210384 129.475983 
L 21.819716 127.843255 
L 19.919052 123.974998 
L 19.836225 123.201301 
L 20.006239 121.471804 
L 19.888537 120.76633 
L 19.42209 120.038086 
L 17.634768 118.592935 
L 15.620762 116.2601 
L 15.045331 115.019659 
L 14.552728 113.10771 
L 14.042688 109.3063 
L 14.365277 106.050911 
L 15.76026 103.84256 
L 18.52407 103.205075 
L 20.250361 103.227842 
L 20.825791 103.432749 
L 21.40994 103.990546 
L 22.416943 105.470377 
L 22.94878 105.89155 
L 24.151953 105.982614 
L 24.879959 105.345163 
L 25.629763 104.377584 
L 26.937559 103.4669 
L 27.861735 103.364447 
L 29.936772 103.535202 
L 30.621185 103.125388 
L 30.895822 102.066683 
L 30.669138 100.882722 
L 30.311673 99.721496 
L 30.146019 98.696856 
L 31.580236 91.774165 
L 31.610751 89.382829 
L 30.904541 87.196341 
L 29.675213 85.431122 
L 28.14945 84.007503 
L 26.562657 82.845793 
L 25.952352 82.12825 
L 25.634122 81.444863 
L 25.237424 81.182896 
L 24.36556 81.68405 
L 24.073485 82.310484 
L 23.698583 84.451677 
L 23.423946 85.260291 
L 22.286163 86.558593 
L 18.288666 88.82483 
L 16.135162 90.635451 
L 15.036613 91.216199 
L 13.51521 91.352844 
L 12.264085 90.908745 
L 11.274519 89.918045 
L 10.572668 88.517358 
L 10.145455 86.831915 
L 10.250078 84.941403 
L 11.374783 81.194286 
L 11.123755 78.515323 
L 11.123755 78.515323 
" clip-path="url(#pc6028a8ecf)" style="fill: none; stroke: #000000; stroke-width: 0.5; stroke-linecap: square"/>
   </g>
  </g>
 </g>
 <defs>
  <clipPath id="pc6028a8ecf">
   <rect x="0" y="0" width="223.2" height="142.683693"/>
  </clipPath>
 </defs>
</svg>
