<?xml version="1.0" encoding="utf-8" standalone="no"?>
<!DOCTYPE svg PUBLIC "-//W3C//DTD SVG 1.1//EN"
  "http://www.w3.org/Graphics/SVG/1.1/DTD/svg11.dtd">
<svg xmlns:xlink="http://www.w3.org/1999/xlink" width="150.698262pt" height="221.76pt" viewBox="0 0 150.698262 221.76" xmlns="http://www.w3.org/2000/svg" version="1.1">
 <metadata>
  <rdf:RDF xmlns:dc="http://purl.org/dc/elements/1.1/" xmlns:cc="http://creativecommons.org/ns#" xmlns:rdf="http://www.w3.org/1999/02/22-rdf-syntax-ns#">
   <cc:Work>
    <dc:type rdf:resource="http://purl.org/dc/dcmitype/StillImage"/>
    <dc:date>2026-04-26T19:22:08.250871</dc:date>
    <dc:format>image/svg+xml</dc:format>
    <dc:creator>
     <cc:Agent>
      <dc:title>Matplotlib v3.10.9, https://matplotlib.org/</dc:title>
     </cc:Agent>
    </dc:creator>
   </cc:Work>
  </rdf:RDF>
 </metadata>
 <defs>
  <style type="text/css">*{stroke-linejoin: round; stroke-linecap: butt}</style>
 </defs>
 <g id="figure_1">
  <g id="patch_1">
   <path d="M 0 221.76 
L 150.698262 221.76 
L 150.698262 0 
L 0 0 
z
" style="fill: #ffffff"/>
  </g>
  <g id="axes_1">
   <g id="patch_2">
    <path d="M 58.571725 10.08 
L 59.962049 11.338512 
L 60.458841 12.253967 
L 61.157531 12.998793 
L 61.401033 13.527696 
L 61.634134 14.219966 
L 61.990821 14.850778 
L 62.455187 15.327934 
L 63.009489 15.554382 
L 63.381472 15.473508 
L 63.713686 15.334404 
L 63.935774 15.421748 
L 63.976154 16.023455 
L 64.066702 16.346955 
L 64.562271 17.039248 
L 64.695646 17.543914 
L 65.037649 17.285111 
L 65.393113 17.24629 
L 66.70484 17.644201 
L 66.872531 17.817031 
L 67.138003 18.090639 
L 69.366226 21.364587 
L 69.924812 21.92751 
L 70.378165 22.218678 
L 71.785947 22.720137 
L 72.270503 23.059836 
L 75.352205 26.139825 
L 76.348236 26.780422 
L 78.027051 26.861305 
L 79.637343 27.663674 
L 79.894304 27.670145 
L 80.015443 27.586025 
L 80.129241 27.605438 
L 80.359282 27.925739 
L 80.443713 28.244424 
L 80.436371 28.592229 
L 80.485316 28.930328 
L 80.736159 29.213426 
L 81.288014 29.494907 
L 81.793372 29.645354 
L 82.273033 29.656678 
L 82.749024 29.527261 
L 84.637079 28.579287 
L 85.221972 28.585758 
L 85.929228 29.320194 
L 86.083405 31.57206 
L 86.586315 32.555646 
L 88.142767 33.976032 
L 89.006647 34.429005 
L 89.698351 34.301141 
L 89.811793 34.280171 
L 90.78947 34.603724 
L 91.108837 36.121195 
L 91.260566 39.411789 
L 91.474701 40.463366 
L 91.578709 41.398466 
L 91.823434 42.197671 
L 92.460944 42.844803 
L 93.288115 43.246025 
L 95.807561 43.922281 
L 96.254184 44.135835 
L 96.602918 44.37204 
L 96.972453 44.517645 
L 97.487599 44.478817 
L 98.680635 43.886688 
L 99.091773 43.786382 
L 99.413251 43.893121 
L 99.910379 44.058179 
L 100.815862 45.410695 
L 101.519447 45.724557 
L 102.466533 45.747206 
L 102.761427 45.81192 
L 103.154211 45.993119 
L 103.395266 46.219618 
L 103.911636 46.908822 
L 104.315432 47.300342 
L 104.6556 47.462127 
L 105.014123 47.481542 
L 106.658676 47.154735 
L 106.957241 47.193564 
L 107.801543 47.695098 
L 108.162512 47.682156 
L 108.102555 46.43641 
L 108.395001 46.290803 
L 109.213607 46.585252 
L 110.367487 46.753508 
L 110.707655 46.886172 
L 111.082084 47.232392 
L 111.714699 48.012198 
L 112.162546 48.216048 
L 112.508832 48.157805 
L 113.121869 47.740398 
L 115.471231 47.381235 
L 115.889711 47.012364 
L 115.644985 44.935048 
L 115.70372 42.602128 
L 115.691483 42.398282 
L 115.915407 42.453288 
L 116.426883 42.411225 
L 116.678949 42.346511 
L 116.899202 42.239735 
L 117.487766 41.311103 
L 117.619918 41.152557 
L 117.743504 41.055488 
L 118.172997 40.625148 
L 118.436076 40.528079 
L 118.672236 40.667211 
L 119.325653 41.579662 
L 119.780841 41.974411 
L 120.253161 42.246206 
L 120.76586 42.401518 
L 121.345859 42.453288 
L 121.861006 42.417696 
L 122.125309 42.443581 
L 122.323536 42.560065 
L 122.465477 42.893338 
L 122.598852 43.721669 
L 122.719991 43.96758 
L 123.151931 43.938459 
L 123.751508 43.686076 
L 124.285009 43.598713 
L 124.512603 44.067886 
L 124.615388 44.439989 
L 126.202431 47.093257 
L 126.319899 47.488013 
L 126.427578 48.089855 
L 126.68821 48.594626 
L 127.276774 49.312955 
L 128.715758 50.487522 
L 128.913986 50.917874 
L 129.86352 51.846528 
L 130.530396 52.338359 
L 130.920733 52.545446 
L 131.379592 52.694289 
L 131.905751 52.752532 
L 132.450265 52.684582 
L 133.471381 52.377188 
L 133.917393 52.306002 
L 134.388489 52.509853 
L 134.762918 52.956384 
L 135.06393 53.402915 
L 135.307432 53.606766 
L 135.729583 53.791203 
L 136.843082 55.104911 
L 138.220885 56.224475 
L 138.789871 56.486569 
L 139.251178 56.926629 
L 140.576365 57.25991 
L 142.07959 57.987949 
L 142.517036 58.330936 
L 142.236214 58.809824 
L 141.700878 59.311362 
L 141.39803 59.508741 
L 141.082947 59.647877 
L 140.704846 59.673763 
L 139.894806 59.521684 
L 139.69719 59.544334 
L 139.059681 60.104114 
L 138.449703 60.026457 
L 136.780677 58.838946 
L 136.460699 58.738638 
L 136.128485 58.732167 
L 135.70511 58.79041 
L 135.335575 58.696574 
L 134.903635 58.466837 
L 134.477813 58.317993 
L 134.132139 58.470073 
L 133.999376 59.013675 
L 134.113173 59.70612 
L 134.344438 60.317672 
L 134.559184 60.644479 
L 134.782496 60.709194 
L 135.289689 60.657422 
L 135.520343 60.699486 
L 135.807895 60.929222 
L 136.303463 61.547244 
L 136.596522 61.744623 
L 137.102491 61.964651 
L 137.480592 62.278515 
L 137.751013 62.734749 
L 138.509661 66.271358 
L 138.947719 67.597981 
L 139.624996 68.830763 
L 140.066113 69.380821 
L 140.334699 69.600844 
L 140.577589 69.65585 
L 140.869424 69.623493 
L 141.004634 69.723798 
L 141.101301 69.908229 
L 142.024527 70.856265 
L 142.125476 71.001867 
L 142.247838 71.36102 
L 142.33961 71.509857 
L 142.459526 71.542213 
L 142.681614 71.39014 
L 142.788069 71.438674 
L 143.056655 71.995197 
L 143.143533 72.574367 
L 143.070115 73.803884 
L 143.089693 74.062729 
L 143.144756 74.289218 
L 143.177794 74.525413 
L 143.128849 74.80367 
L 142.915938 75.10134 
L 142.628998 75.295472 
L 142.376319 75.518723 
L 142.26864 75.890809 
L 142.293113 76.198183 
L 142.394674 76.774103 
L 142.40691 77.091182 
L 142.356741 77.411496 
L 142.206235 77.97447 
L 142.196446 78.365962 
L 143.248153 83.089659 
L 143.255494 83.371134 
L 143.217562 83.911434 
L 143.261001 84.202613 
L 143.443933 84.558498 
L 143.670916 84.820557 
L 143.842835 85.131145 
L 143.848341 85.341439 
L 143.636654 85.360851 
L 142.517036 85.360851 
L 141.511827 85.519379 
L 140.972208 85.503203 
L 140.738496 85.250851 
L 140.600838 84.937028 
L 140.277801 84.445262 
L 139.606642 83.629961 
L 139.460418 83.904964 
L 139.16063 85.451439 
L 138.449703 89.139593 
L 137.738777 92.830841 
L 137.02785 96.521934 
L 136.316923 100.20962 
L 135.968802 102.017814 
L 135.66106 103.104648 
L 135.478518 103.396293 
L 135.10431 103.994158 
L 133.803595 105.588776 
L 132.850391 107.057214 
L 131.66898 108.874924 
L 130.486957 110.695815 
L 129.303099 112.51665 
L 128.121076 114.337427 
L 126.939054 116.158144 
L 125.755807 117.9788 
L 124.573784 119.79616 
L 123.390538 121.616687 
L 121.978474 123.045901 
L 120.566409 124.475072 
L 119.151898 125.900966 
L 117.739833 127.330051 
L 116.325322 128.762323 
L 114.913257 130.188084 
L 113.499969 131.617031 
L 112.086681 133.045931 
L 110.745587 134.403665 
L 109.694373 135.245512 
L 109.340864 135.52861 
L 107.160363 136.533923 
L 104.182057 137.910936 
L 101.204975 139.284668 
L 98.225446 140.658352 
L 95.248364 142.035219 
L 92.271282 143.408804 
L 89.294199 144.78557 
L 86.315894 146.159053 
L 83.338812 147.532484 
L 82.683999 147.834408 
L 81.7689 148.256341 
L 81.3235 148.556867 
L 79.579833 150.566769 
L 77.18642 154.799457 
L 76.04233 156.053004 
L 75.709504 156.53438 
L 74.977775 158.385508 
L 74.685329 158.941149 
L 73.822672 159.787513 
L 73.543074 160.230069 
L 73.540626 160.914887 
L 73.814107 161.483404 
L 74.187313 161.832261 
L 74.484654 162.281247 
L 74.534823 163.140441 
L 74.317017 163.779975 
L 73.952377 163.98346 
L 73.532673 164.102967 
L 73.157631 164.506702 
L 72.835206 164.710182 
L 72.608835 164.141726 
L 72.281515 162.132663 
L 72.10409 161.664293 
L 71.807972 161.350966 
L 70.781962 160.973031 
L 70.285781 160.882584 
L 69.887491 161.040866 
L 69.628694 161.631991 
L 69.650719 161.832261 
L 69.795107 162.445982 
L 69.781036 162.788368 
L 69.599939 164.138496 
L 69.293688 165.407953 
L 69.260994 165.543469 
L 68.824772 166.796584 
L 68.6657 167.439269 
L 68.610637 168.046416 
L 68.62165 169.170251 
L 68.720152 169.806425 
L 68.704856 170.109976 
L 68.524372 170.290813 
L 68.222748 170.358626 
L 68.110174 170.410293 
L 68.096714 170.571753 
L 68.097938 170.965712 
L 68.400785 172.983855 
L 68.256398 173.584426 
L 67.678846 174.32705 
L 67.491019 174.485259 
L 67.199185 174.666067 
L 67.05602 174.808131 
L 66.811907 175.411891 
L 66.642435 176.009181 
L 66.408722 178.320729 
L 66.410558 178.537023 
L 66.312668 178.666153 
L 65.982289 178.905042 
L 65.676382 179.030942 
L 65.389442 179.059996 
L 65.12575 179.150385 
L 64.884696 179.479657 
L 64.770287 179.992926 
L 64.793536 181.852233 
L 64.540245 183.236942 
L 63.096978 187.213126 
L 62.871219 188.578179 
L 62.666874 189.188072 
L 62.231263 189.66565 
L 62.034871 190.320691 
L 62.063626 191.491976 
L 62.254512 192.650298 
L 62.542676 193.247183 
L 63.105544 193.698869 
L 63.041915 194.202167 
L 62.676051 194.792561 
L 62.334048 195.518434 
L 62.272866 196.092665 
L 62.294892 196.71527 
L 62.266136 197.315277 
L 62.052614 197.818497 
L 61.407221 198.380226 
L 61.152025 198.602337 
L 58.98376 199.740954 
L 57.994458 200.476347 
L 56.91522 201.785805 
L 56.472267 202.588858 
L 56.205517 203.446705 
L 56.222648 204.301295 
L 56.75676 205.70404 
L 56.877899 206.448909 
L 56.627056 207.068002 
L 56.078872 207.229221 
L 55.456046 207.235669 
L 54.980667 207.393663 
L 54.727988 207.906328 
L 54.465521 209.426517 
L 54.295437 210.080986 
L 53.684235 210.935313 
L 53.001452 211.68 
L 52.562782 211.109398 
L 52.303985 210.861166 
L 52.048859 210.703198 
L 51.803522 210.664512 
L 51.421139 210.790241 
L 51.180085 210.803137 
L 50.766499 210.680631 
L 49.974813 210.316333 
L 49.55878 210.226063 
L 48.981779 210.253744 
L 47.878742 210.306661 
L 47.335452 210.11645 
L 47.005073 209.590942 
L 46.752394 208.931621 
L 46.439758 208.338376 
L 46.231129 208.157819 
L 45.769211 207.928898 
L 45.56303 207.732217 
L 45.436384 207.464598 
L 45.282207 206.848742 
L 45.154339 206.571439 
L 44.7432 206.171601 
L 44.254973 205.833023 
L 43.846282 205.40415 
L 43.676198 204.743089 
L 43.603551 204.164195 
L 43.598498 204.12393 
L 42.978732 202.588858 
L 42.706475 200.7376 
L 42.01635 199.408729 
L 42.032257 198.737813 
L 42.577994 197.460438 
L 42.63734 197.002372 
L 42.505188 196.708818 
L 42.023691 196.337838 
L 41.453482 196.34429 
L 41.30787 196.241059 
L 40.970149 195.91201 
L 40.785382 195.795873 
L 39.589899 194.240882 
L 38.935259 193.81179 
L 38.079333 193.963425 
L 37.263174 194.602217 
L 35.673072 195.247444 
L 34.793897 195.066782 
L 34.205333 194.266692 
L 33.707929 193.289125 
L 33.107741 192.559957 
L 32.486139 192.353463 
L 31.877996 192.343783 
L 31.262512 192.246988 
L 30.621332 191.785595 
L 30.143507 191.343551 
L 29.377517 190.243248 
L 28.950471 189.762455 
L 28.543004 189.568845 
L 28.060895 189.452677 
L 27.666888 189.291333 
L 27.51577 188.952507 
L 27.44847 188.984776 
L 26.483641 189.149349 
L 26.224844 189.265518 
L 25.981343 189.423636 
L 25.782503 189.633382 
L 25.581217 190.072229 
L 25.338327 191.166087 
L 25.161513 191.659758 
L 24.788919 192.188911 
L 22.968164 194.02795 
L 21.99844 194.711907 
L 21.770846 194.982903 
L 21.584243 195.005486 
L 21.163927 195.021617 
L 20.770531 194.834501 
L 19.708424 194.040855 
L 19.387222 193.66338 
L 19.179818 193.00843 
L 19.26853 192.476069 
L 22.399789 187.000132 
L 22.661034 186.309503 
L 21.568335 186.487003 
L 20.542937 186.88718 
L 19.716989 186.771 
L 19.215914 185.38971 
L 19.21775 185.099243 
L 19.30891 184.505387 
L 19.300956 184.211681 
L 19.172476 183.811462 
L 18.782751 183.104607 
L 18.664059 182.717282 
L 18.706188 182.14311 
L 18.70811 182.116915 
L 18.912455 181.332544 
L 19.187159 180.577202 
L 19.445344 180.073628 
L 19.798972 179.741135 
L 20.235807 179.573273 
L 20.714856 179.528079 
L 21.196965 179.563589 
L 21.685804 179.76696 
L 22.684894 180.473906 
L 23.12907 180.593342 
L 23.623415 180.273768 
L 24.021706 179.624923 
L 24.365545 178.901814 
L 24.702042 178.353012 
L 26.54727 177.236005 
L 26.923535 176.677484 
L 26.927876 176.385421 
L 26.928429 176.348177 
L 26.785265 176.164151 
L 26.572966 175.983352 
L 26.366785 175.666951 
L 26.303156 175.398976 
L 26.303156 174.821045 
L 26.273177 174.540147 
L 26.063937 173.910537 
L 25.588559 172.90959 
L 25.477821 172.279943 
L 25.521871 172.040996 
L 25.62282 171.824651 
L 25.701744 171.582472 
L 25.677883 171.275708 
L 25.532884 170.691233 
L 25.510247 170.449044 
L 25.510247 170.13581 
L 25.549403 169.861323 
L 25.70358 169.254214 
L 25.7409 168.944196 
L 25.712757 168.60188 
L 25.576934 168.004433 
L 25.573263 167.655648 
L 25.509023 167.36176 
L 25.303454 167.235808 
L 25.069741 167.135691 
L 24.9174 166.919309 
L 24.919235 166.677088 
L 25.103391 165.834144 
L 25.147442 165.236641 
L 25.14683 164.92981 
L 25.090543 164.652045 
L 24.938813 164.425955 
L 24.548477 164.212783 
L 24.404701 164.038369 
L 24.351473 163.38592 
L 24.495861 162.736687 
L 24.546029 162.190805 
L 24.212591 161.851642 
L 23.315673 161.538317 
L 22.930231 161.273441 
L 22.768613 161.162337 
L 22.717556 160.938185 
L 22.688652 160.704183 
L 22.760913 160.383699 
L 23.078863 160.131887 
L 23.225313 159.763069 
L 23.342858 159.325569 
L 23.57024 158.888063 
L 23.330333 159.765613 
L 23.246509 159.97673 
L 23.393923 160.617703 
L 23.678151 160.327741 
L 23.811112 159.345918 
L 24.05391 158.888063 
L 24.701372 159.742721 
L 25.023176 159.564669 
L 26.736252 159.101729 
L 27.031079 159.139884 
L 27.225703 159.203475 
L 27.39913 159.216193 
L 27.626512 159.101729 
L 28.166064 158.262317 
L 28.273011 158.140218 
L 29.168089 155.682893 
L 29.418595 155.240249 
L 29.948511 155.372534 
L 30.058349 156.117899 
L 29.890702 157.611121 
L 30.145062 157.412707 
L 30.30211 157.109996 
L 30.436035 156.761493 
L 30.624878 156.423162 
L 30.840699 156.196759 
L 31.594144 155.57096 
L 31.944852 155.034189 
L 32.175125 154.380384 
L 32.305196 153.675685 
L 32.415033 152.469776 
L 32.800427 151.340151 
L 33.597229 149.658366 
L 33.799561 149.032446 
L 33.563507 148.487938 
L 33.649257 147.780573 
L 33.961427 146.559192 
L 34.013455 146.009556 
L 34.753411 142.820999 
L 35.25346 141.637627 
L 35.307415 141.431487 
L 35.539615 140.762162 
L 35.627292 140.034289 
L 36.130231 138.212002 
L 36.401934 137.674972 
L 37.112023 136.715425 
L 37.314355 136.160557 
L 37.34615 135.407147 
L 37.193919 134.009738 
L 36.874042 132.917741 
L 36.796963 132.744648 
L 36.278608 132.785376 
L 36.010759 132.75483 
L 35.819989 132.632646 
L 35.533834 132.054814 
L 35.077142 130.377276 
L 34.781352 129.761228 
L 34.637793 129.379377 
L 34.594436 128.936425 
L 34.61467 127.113657 
L 34.455694 125.657426 
L 34.44606 125.250081 
L 34.591546 124.562678 
L 34.629122 124.140047 
L 34.519284 123.951644 
L 34.480745 123.824345 
L 34.180138 123.289683 
L 34.106913 123.203118 
L 34.071264 122.989251 
L 34.00093 122.831396 
L 33.946974 122.617528 
L 33.961427 122.24071 
L 34.079935 121.896988 
L 34.23602 121.629647 
L 34.290939 121.347028 
L 34.106913 120.962562 
L 34.473037 120.45333 
L 34.846869 120.308198 
L 35.137842 120.081588 
L 35.25346 119.34828 
L 35.432668 118.9969 
L 35.823843 118.762645 
L 36.215018 118.416353 
L 36.386519 117.739041 
L 34.981757 118.7932 
L 34.829527 118.945975 
L 34.767864 119.220969 
L 34.753411 119.773498 
L 34.579984 119.8728 
L 33.812086 119.941547 
L 33.637696 120.203805 
L 33.597229 120.448238 
L 33.394897 121.209537 
L 33.193529 122.462218 
L 33.160771 123.366063 
L 33.305293 124.272438 
L 34.02598 125.929837 
L 34.079935 126.879441 
L 33.711884 132.971196 
L 33.461378 134.24137 
L 33.296622 134.582452 
L 32.648197 135.536959 
L 32.417924 135.735493 
L 32.036384 135.888211 
L 31.215494 136.51435 
L 30.874421 136.608525 
L 30.63644 136.453264 
L 30.497698 136.033293 
L 30.308855 135.949299 
L 29.802062 136.023112 
L 29.632488 135.946753 
L 29.330918 135.641317 
L 29.204701 135.12716 
L 29.521688 134.638451 
L 30.227922 134.009738 
L 30.443743 133.353016 
L 30.549726 132.882104 
L 30.794451 132.604645 
L 31.432278 132.513007 
L 31.582582 132.642828 
L 31.724214 132.910104 
L 31.903423 133.151924 
L 32.168381 133.172288 
L 32.3948 132.994105 
L 32.501747 132.729375 
L 32.484404 132.408642 
L 32.343735 132.067542 
L 32.237752 132.724284 
L 31.917875 132.586827 
L 31.359054 131.871535 
L 30.839735 131.950447 
L 30.366664 132.268638 
L 30.023663 132.408642 
L 29.890702 131.970811 
L 29.989941 131.283511 
L 30.435071 129.947062 
L 30.536237 129.196087 
L 30.624878 128.809139 
L 30.838772 128.656395 
L 31.108547 128.587661 
L 31.359054 128.452736 
L 31.538262 128.208345 
L 32.020004 127.195123 
L 31.802257 127.271497 
L 31.680858 127.368238 
L 31.432278 127.709374 
L 31.235727 127.816297 
L 30.755912 127.765381 
L 30.536237 127.79593 
L 30.268388 128.037779 
L 30.058349 128.419642 
L 29.036091 131.902082 
L 27.420327 134.892987 
L 26.690005 135.936572 
L 25.921144 136.376906 
L 25.743863 136.786692 
L 25.566581 137.079394 
L 25.34787 137.249923 
L 25.121451 137.244833 
L 24.998125 137.117572 
L 24.909485 136.924135 
L 24.790013 136.715425 
L 24.443158 136.511805 
L 24.215775 136.745968 
L 24.132916 137.26265 
L 24.215775 137.891312 
L 24.306343 137.982938 
L 24.951878 138.85083 
L 25.034738 139.110431 
L 25.053044 139.464197 
L 25.025103 140.14118 
L 24.787122 140.426222 
L 24.243716 140.329512 
L 23.246509 139.81287 
L 22.246412 138.690488 
L 21.89763 138.430885 
L 21.591242 138.033841 
L 21.4525 137.891312 
L 21.304124 137.835318 
L 20.882117 137.758963 
L 20.659552 137.677517 
L 19.75773 136.913954 
L 17.243034 133.001742 
L 15.288123 130.591108 
L 14.52525 130.262993 
L 13.834108 129.823837 
L 13.065433 129.858271 
L 11.811869 129.308097 
L 11.37541 129.04589 
L 10.38013 127.885033 
L 9.857921 127.622817 
L 9.485053 127.627909 
L 9.202751 127.556627 
L 9.023543 127.274043 
L 8.883838 126.21752 
L 8.701739 125.746533 
L 8.314418 125.015856 
L 7.986833 124.570316 
L 7.109098 123.641033 
L 7.011786 123.439898 
L 6.900022 123.111461 
L 6.849921 122.805936 
L 6.940489 122.668449 
L 7.129332 122.729554 
L 7.216045 122.861949 
L 7.266147 123.009619 
L 7.345152 123.096185 
L 7.94733 123.287137 
L 8.231559 123.310051 
L 8.357775 123.409346 
L 8.476995 123.943228 
L 8.785029 124.382976 
L 9.375654 124.349356 
L 10.222647 123.943982 
L 11.428149 122.660243 
L 12.350648 122.052525 
L 13.196523 120.803284 
L 13.374883 118.944249 
L 13.040881 117.996358 
L 12.852433 117.020978 
L 12.781135 116.766343 
L 12.88639 116.439917 
L 13.142543 116.372586 
L 13.475792 116.136756 
L 13.546142 115.373471 
L 13.479662 114.578984 
L 12.8273 111.24837 
L 12.470893 109.931516 
L 12.316735 109.353422 
L 12.108622 108.872097 
L 11.885094 108.513011 
L 11.603756 107.932356 
L 11.046862 106.116503 
L 10.721204 105.561295 
L 10.613294 105.158894 
L 10.577645 104.700459 
L 10.67303 104.343896 
L 11.503257 103.572021 
L 11.401424 102.841218 
L 11.407205 101.934502 
L 11.62091 101.674384 
L 11.902598 101.335853 
L 12.192774 101.238888 
L 12.583662 101.242749 
L 12.686131 100.837453 
L 12.674086 100.390565 
L 12.724663 99.781182 
L 12.846002 99.240607 
L 12.739266 98.521601 
L 12.840471 98.07433 
L 13.251368 97.810334 
L 13.213639 97.046993 
L 12.508382 95.756493 
L 11.098363 93.524535 
L 9.948489 90.849272 
L 9.448924 89.253275 
L 9.142721 88.337567 
L 9.298273 87.692432 
L 9.584122 87.315481 
L 9.916237 86.944122 
L 10.224084 86.503601 
L 10.405004 86.19728 
L 10.584495 85.892468 
L 10.890689 85.453733 
L 11.172794 85.013394 
L 11.249971 84.742377 
L 11.506201 84.606845 
L 11.839737 84.741224 
L 12.173009 84.740556 
L 12.50608 84.469502 
L 12.813221 84.300295 
L 13.171821 84.401207 
L 13.453241 84.265946 
L 13.734833 84.130466 
L 13.684409 84.404679 
L 14.119449 84.674823 
L 14.477636 84.70843 
L 14.759709 84.385151 
L 14.938774 84.283697 
L 15.117746 83.979549 
L 15.373474 83.878132 
L 15.603627 84.317425 
L 15.80824 84.384926 
L 16.242984 84.452348 
L 16.831059 84.148081 
L 17.342554 83.53936 
L 17.879376 82.795805 
L 18.220008 80.847975 
L 18.309612 80.236558 
L 18.620517 78.212828 
L 19.055026 76.658444 
L 19.591634 75.239547 
L 19.885874 74.326057 
L 20.001028 74.157313 
L 20.20563 73.95434 
L 20.538033 73.886654 
L 20.844418 73.752091 
L 20.895397 74.563328 
L 21.227231 75.205755 
L 21.867182 75.576771 
L 22.481084 75.677965 
L 23.756525 75.712738 
L 23.756783 75.341032 
L 23.094883 75.103235 
L 22.379173 74.900335 
L 21.893162 74.900514 
L 21.560801 74.562505 
L 21.305044 73.683795 
L 20.996719 72.942946 
L 20.664666 72.773808 
L 20.486072 72.435306 
L 20.460182 71.692946 
L 20.205453 70.811664 
L 20.132526 69.905783 
L 19.796705 68.917479 
L 19.362022 68.241881 
L 19.081027 66.920207 
L 19.337067 66.477101 
L 19.822343 66.415534 
L 20.590274 65.599456 
L 21.330355 64.119645 
L 21.570046 63.569484 
L 21.630745 63.14655 
L 21.841494 62.463371 
L 22.046328 61.956651 
L 22.557174 61.719778 
L 22.864118 61.077711 
L 23.17194 60.401988 
L 23.606319 60.908992 
L 24.118435 60.571122 
L 24.681499 59.996426 
L 25.346759 59.354004 
L 26.75595 57.324576 
L 27.880873 55.406293 
L 28.281682 54.759146 
L 28.449329 54.137477 
L 28.497503 53.752756 
L 28.615048 53.620269 
L 28.770169 53.552752 
L 29.262938 53.345805 
L 29.620718 52.16292 
L 29.825032 51.115125 
L 29.961037 49.471149 
L 29.927315 48.718271 
L 29.742326 47.384496 
L 29.68837 45.015049 
L 29.904191 44.188294 
L 29.911899 43.918229 
L 29.971635 43.801032 
L 30.227922 43.964089 
L 30.336796 44.119504 
L 30.4264 44.350078 
L 30.536237 44.820143 
L 30.712555 44.820143 
L 30.748204 44.427785 
L 30.991002 43.815045 
L 31.050738 43.538611 
L 30.994856 43.142433 
L 30.857078 42.867274 
L 30.536237 42.450715 
L 29.973562 41.231613 
L 29.804952 40.612511 
L 29.742326 39.981946 
L 29.80977 39.288963 
L 29.973562 38.929733 
L 30.183602 38.634198 
L 30.388824 38.136119 
L 30.435071 37.482632 
L 30.306928 36.848254 
L 30.137355 36.301775 
L 29.975489 35.406264 
L 29.761595 35.033031 
L 29.429193 34.797371 
L 29.001406 34.715846 
L 28.697908 34.562986 
L 28.487868 34.185933 
L 28.351053 33.701879 
L 28.273011 33.220374 
L 28.26434 31.872679 
L 28.533152 30.550472 
L 29.040909 29.429536 
L 29.742326 28.69329 
L 30.146989 28.963331 
L 30.493844 29.018104 
L 31.279084 28.926392 
L 31.63172 28.792645 
L 32.097083 28.219445 
L 32.417924 28.089521 
L 32.756107 28.018189 
L 33.349614 27.711211 
L 34.100169 27.543074 
L 34.546262 27.099804 
L 34.843015 27.000451 
L 35.01837 26.884538 
L 35.739057 26.127928 
L 35.909593 25.891011 
L 36.213091 25.307635 
L 36.386519 25.078362 
L 36.950157 24.739548 
L 38.367444 24.145989 
L 38.987928 23.56135 
L 39.115108 23.882328 
L 39.124743 24.168916 
L 38.648781 26.127928 
L 38.758619 26.595395 
L 38.95517 26.869253 
L 39.203749 27.095983 
L 39.471598 27.428435 
L 39.789548 28.278039 
L 39.956231 28.517509 
L 39.56891 27.113815 
L 39.263485 26.771174 
L 39.164246 26.572468 
L 39.165209 26.397963 
L 39.286608 26.110095 
L 39.309732 25.93177 
L 39.274083 25.147144 
L 39.327075 24.551035 
L 39.534224 24.111599 
L 39.956231 23.796988 
L 40.976561 24.184201 
L 42.096131 23.347365 
L 43.705151 21.406236 
L 44.213871 21.23174 
L 45.8807 21.406236 
L 46.086886 21.341278 
L 46.626438 21.061066 
L 46.857674 20.997381 
L 47.505136 21.012666 
L 47.803816 20.947707 
L 48.069738 20.764297 
L 48.639158 21.161687 
L 49.309743 21.038139 
L 49.989 20.72736 
L 50.590215 20.550318 
L 51.026674 20.244634 
L 52.813939 17.115258 
L 53.15983 16.865626 
L 53.743702 17.130542 
L 54.206174 17.639998 
L 54.503891 18.280642 
L 54.662866 19.044836 
L 54.712004 19.927489 
L 55.164842 19.610344 
L 55.411494 19.145456 
L 55.515551 18.559572 
L 55.590702 17.184035 
L 55.737152 16.82487 
L 55.947192 16.538304 
L 56.197698 16.063242 
L 56.27574 16.330703 
L 56.414482 16.454244 
L 56.606216 16.43514 
L 56.843233 16.277211 
L 57.057127 16.012298 
L 57.090849 15.790688 
L 57.08025 15.544881 
L 57.166964 15.208648 
L 57.553321 14.629159 
L 57.947387 14.545102 
L 58.946521 14.994682 
L 58.774057 14.542555 
L 58.350124 14.394818 
L 57.854892 14.328591 
L 57.475279 14.119722 
L 57.310523 13.680335 
L 57.392419 13.267695 
L 57.600532 12.902179 
L 58.485011 11.738145 
L 58.621826 11.322969 
L 58.611228 10.849212 
L 58.527405 10.423852 
z
" clip-path="url(#p7518643571)" style="stroke: #000000; stroke-linejoin: miter"/>
   </g>
   <g id="line2d_1">
    <path d="M 58.571725 10.08 
L 59.962049 11.338512 
L 60.458841 12.253967 
L 61.157531 12.998793 
L 61.990821 14.850778 
L 62.455187 15.327934 
L 63.009489 15.554382 
L 63.935774 15.421748 
L 64.066702 16.346955 
L 64.562271 17.039248 
L 64.695646 17.543914 
L 65.037649 17.285111 
L 65.393113 17.24629 
L 66.70484 17.644201 
L 67.138003 18.090639 
L 69.366226 21.364587 
L 69.924812 21.92751 
L 70.378165 22.218678 
L 71.785947 22.720137 
L 72.270503 23.059836 
L 75.352205 26.139825 
L 76.348236 26.780422 
L 78.027051 26.861305 
L 79.894304 27.670145 
L 80.129241 27.605438 
L 80.359282 27.925739 
L 80.436371 28.592229 
L 80.485316 28.930328 
L 80.736159 29.213426 
L 81.793372 29.645354 
L 82.273033 29.656678 
L 82.749024 29.527261 
L 84.637079 28.579287 
L 85.221972 28.585758 
L 85.929228 29.320194 
L 86.083405 31.57206 
L 86.586315 32.555646 
L 88.142767 33.976032 
L 89.006647 34.429005 
L 89.811793 34.280171 
L 90.78947 34.603724 
L 91.108837 36.121195 
L 91.260566 39.411789 
L 91.823434 42.197671 
L 92.460944 42.844803 
L 93.288115 43.246025 
L 96.254184 44.135835 
L 96.972453 44.517645 
L 97.487599 44.478817 
L 99.091773 43.786382 
L 99.910379 44.058179 
L 100.815862 45.410695 
L 101.519447 45.724557 
L 102.761427 45.81192 
L 103.395266 46.219618 
L 104.315432 47.300342 
L 104.6556 47.462127 
L 105.014123 47.481542 
L 106.957241 47.193564 
L 107.801543 47.695098 
L 108.162512 47.682156 
L 108.102555 46.43641 
L 108.395001 46.290803 
L 109.213607 46.585252 
L 110.707655 46.886172 
L 111.082084 47.232392 
L 111.714699 48.012198 
L 112.162546 48.216048 
L 112.508832 48.157805 
L 113.121869 47.740398 
L 115.471231 47.381235 
L 115.889711 47.012364 
L 115.644985 44.935048 
L 115.691483 42.398282 
L 115.915407 42.453288 
L 116.678949 42.346511 
L 116.899202 42.239735 
L 117.743504 41.055488 
L 118.172997 40.625148 
L 118.436076 40.528079 
L 118.672236 40.667211 
L 119.325653 41.579662 
L 120.253161 42.246206 
L 120.76586 42.401518 
L 122.323536 42.560065 
L 122.465477 42.893338 
L 122.719991 43.96758 
L 123.151931 43.938459 
L 123.751508 43.686076 
L 124.285009 43.598713 
L 124.615388 44.439989 
L 126.319899 47.488013 
L 126.427578 48.089855 
L 126.68821 48.594626 
L 127.276774 49.312955 
L 128.715758 50.487522 
L 128.913986 50.917874 
L 129.86352 51.846528 
L 130.920733 52.545446 
L 131.905751 52.752532 
L 132.450265 52.684582 
L 133.917393 52.306002 
L 134.388489 52.509853 
L 135.307432 53.606766 
L 135.729583 53.791203 
L 136.843082 55.104911 
L 138.220885 56.224475 
L 138.789871 56.486569 
L 139.251178 56.926629 
L 140.576365 57.25991 
L 142.07959 57.987949 
L 142.517036 58.330936 
L 142.236214 58.809824 
L 141.39803 59.508741 
L 141.082947 59.647877 
L 140.704846 59.673763 
L 139.69719 59.544334 
L 139.059681 60.104114 
L 138.449703 60.026457 
L 136.460699 58.738638 
L 135.335575 58.696574 
L 134.477813 58.317993 
L 134.132139 58.470073 
L 133.999376 59.013675 
L 134.113173 59.70612 
L 134.559184 60.644479 
L 134.782496 60.709194 
L 135.520343 60.699486 
L 135.807895 60.929222 
L 136.596522 61.744623 
L 137.102491 61.964651 
L 137.480592 62.278515 
L 137.751013 62.734749 
L 138.509661 66.271358 
L 138.947719 67.597981 
L 139.624996 68.830763 
L 140.334699 69.600844 
L 141.004634 69.723798 
L 141.101301 69.908229 
L 142.125476 71.001867 
L 142.33961 71.509857 
L 142.459526 71.542213 
L 142.788069 71.438674 
L 143.056655 71.995197 
L 143.143533 72.574367 
L 143.144756 74.289218 
L 143.128849 74.80367 
L 142.915938 75.10134 
L 142.376319 75.518723 
L 142.293113 76.198183 
L 142.40691 77.091182 
L 142.196446 78.365962 
L 143.255494 83.371134 
L 143.261001 84.202613 
L 143.848341 85.341439 
L 140.972208 85.503203 
L 140.738496 85.250851 
L 140.277801 84.445262 
L 139.606642 83.629961 
L 139.460418 83.904964 
L 135.66106 103.104648 
L 135.10431 103.994158 
L 133.803595 105.588776 
L 123.390538 121.616687 
L 110.745587 134.403665 
L 109.340864 135.52861 
L 81.3235 148.556867 
L 79.579833 150.566769 
L 77.18642 154.799457 
L 75.709504 156.53438 
L 74.685329 158.941149 
L 73.822672 159.787513 
L 73.543074 160.230069 
L 73.540626 160.914887 
L 73.814107 161.483404 
L 74.187313 161.832261 
L 74.484654 162.281247 
L 74.534823 163.140441 
L 74.317017 163.779975 
L 72.835206 164.710182 
L 72.608835 164.141726 
L 72.10409 161.664293 
L 71.807972 161.350966 
L 70.285781 160.882584 
L 69.887491 161.040866 
L 69.650719 161.832261 
L 69.781036 162.788368 
L 69.599939 164.138496 
L 69.260994 165.543469 
L 68.6657 167.439269 
L 68.610637 168.046416 
L 68.524372 170.290813 
L 68.110174 170.410293 
L 68.097938 170.965712 
L 68.400785 172.983855 
L 68.256398 173.584426 
L 67.491019 174.485259 
L 67.05602 174.808131 
L 66.642435 176.009181 
L 66.312668 178.666153 
L 65.676382 179.030942 
L 65.12575 179.150385 
L 64.884696 179.479657 
L 64.770287 179.992926 
L 64.793536 181.852233 
L 64.540245 183.236942 
L 63.096978 187.213126 
L 62.666874 189.188072 
L 62.231263 189.66565 
L 62.034871 190.320691 
L 62.063626 191.491976 
L 62.254512 192.650298 
L 62.542676 193.247183 
L 63.105544 193.698869 
L 63.041915 194.202167 
L 62.334048 195.518434 
L 62.294892 196.71527 
L 62.266136 197.315277 
L 62.052614 197.818497 
L 61.152025 198.602337 
L 58.98376 199.740954 
L 57.994458 200.476347 
L 56.91522 201.785805 
L 56.472267 202.588858 
L 56.205517 203.446705 
L 56.222648 204.301295 
L 56.75676 205.70404 
L 56.877899 206.448909 
L 56.627056 207.068002 
L 56.078872 207.229221 
L 55.456046 207.235669 
L 54.980667 207.393663 
L 54.727988 207.906328 
L 54.295437 210.080986 
L 53.684235 210.935313 
L 53.001452 211.68 
L 52.303985 210.861166 
L 51.803522 210.664512 
L 51.180085 210.803137 
L 50.766499 210.680631 
L 49.55878 210.226063 
L 47.878742 210.306661 
L 47.335452 210.11645 
L 47.005073 209.590942 
L 46.439758 208.338376 
L 46.231129 208.157819 
L 45.56303 207.732217 
L 45.436384 207.464598 
L 45.154339 206.571439 
L 43.846282 205.40415 
L 43.598498 204.12393 
L 42.978732 202.588858 
L 42.706475 200.7376 
L 42.01635 199.408729 
L 42.032257 198.737813 
L 42.577994 197.460438 
L 42.63734 197.002372 
L 42.505188 196.708818 
L 42.023691 196.337838 
L 41.30787 196.241059 
L 40.785382 195.795873 
L 39.589899 194.240882 
L 38.935259 193.81179 
L 38.079333 193.963425 
L 37.263174 194.602217 
L 35.673072 195.247444 
L 34.793897 195.066782 
L 34.205333 194.266692 
L 33.707929 193.289125 
L 33.107741 192.559957 
L 32.486139 192.353463 
L 31.262512 192.246988 
L 30.143507 191.343551 
L 28.950471 189.762455 
L 28.060895 189.452677 
L 27.666888 189.291333 
L 27.51577 188.952507 
L 27.44847 188.984776 
L 26.224844 189.265518 
L 25.782503 189.633382 
L 25.581217 190.072229 
L 25.161513 191.659758 
L 24.788919 192.188911 
L 22.968164 194.02795 
L 21.584243 195.005486 
L 21.163927 195.021617 
L 20.770531 194.834501 
L 19.387222 193.66338 
L 19.179818 193.00843 
L 19.26853 192.476069 
L 22.399789 187.000132 
L 22.661034 186.309503 
L 21.568335 186.487003 
L 20.542937 186.88718 
L 19.716989 186.771 
L 19.21775 185.099243 
L 19.300956 184.211681 
L 19.172476 183.811462 
L 18.664059 182.717282 
L 18.70811 182.116915 
L 19.187159 180.577202 
L 19.445344 180.073628 
L 19.798972 179.741135 
L 20.235807 179.573273 
L 21.196965 179.563589 
L 21.685804 179.76696 
L 22.684894 180.473906 
L 23.12907 180.593342 
L 23.623415 180.273768 
L 24.702042 178.353012 
L 26.54727 177.236005 
L 26.923535 176.677484 
L 26.928429 176.348177 
L 26.303156 175.398976 
L 26.273177 174.540147 
L 26.063937 173.910537 
L 25.588559 172.90959 
L 25.521871 172.040996 
L 25.701744 171.582472 
L 25.549403 169.861323 
L 25.7409 168.944196 
L 25.509023 167.36176 
L 24.9174 166.919309 
L 24.919235 166.677088 
L 25.147442 165.236641 
L 25.090543 164.652045 
L 24.938813 164.425955 
L 24.404701 164.038369 
L 24.351473 163.38592 
L 24.546029 162.190805 
L 24.212591 161.851642 
L 23.315673 161.538317 
L 22.768613 161.162337 
L 22.688652 160.704183 
L 22.760913 160.383699 
L 23.078863 160.131887 
L 23.57024 158.888063 
L 23.246509 159.97673 
L 23.393923 160.617703 
L 23.678151 160.327741 
L 23.811112 159.345918 
L 24.05391 158.888063 
L 24.701372 159.742721 
L 25.023176 159.564669 
L 26.736252 159.101729 
L 27.39913 159.216193 
L 27.626512 159.101729 
L 28.273011 158.140218 
L 29.418595 155.240249 
L 29.948511 155.372534 
L 30.058349 156.117899 
L 29.890702 157.611121 
L 30.145062 157.412707 
L 30.840699 156.196759 
L 31.594144 155.57096 
L 31.944852 155.034189 
L 32.175125 154.380384 
L 32.800427 151.340151 
L 33.799561 149.032446 
L 33.563507 148.487938 
L 33.649257 147.780573 
L 34.013455 146.009556 
L 34.753411 142.820999 
L 35.539615 140.762162 
L 35.627292 140.034289 
L 36.130231 138.212002 
L 36.401934 137.674972 
L 37.112023 136.715425 
L 37.314355 136.160557 
L 37.34615 135.407147 
L 37.193919 134.009738 
L 36.796963 132.744648 
L 36.010759 132.75483 
L 35.819989 132.632646 
L 35.533834 132.054814 
L 35.077142 130.377276 
L 34.637793 129.379377 
L 34.594436 128.936425 
L 34.61467 127.113657 
L 34.44606 125.250081 
L 34.629122 124.140047 
L 34.071264 122.989251 
L 33.946974 122.617528 
L 34.079935 121.896988 
L 34.290939 121.347028 
L 34.106913 120.962562 
L 34.473037 120.45333 
L 35.137842 120.081588 
L 35.25346 119.34828 
L 35.432668 118.9969 
L 36.215018 118.416353 
L 36.386519 117.739041 
L 34.829527 118.945975 
L 34.579984 119.8728 
L 33.812086 119.941547 
L 33.597229 120.448238 
L 33.394897 121.209537 
L 33.160771 123.366063 
L 33.305293 124.272438 
L 34.02598 125.929837 
L 34.079935 126.879441 
L 33.711884 132.971196 
L 33.296622 134.582452 
L 32.417924 135.735493 
L 32.036384 135.888211 
L 31.215494 136.51435 
L 30.874421 136.608525 
L 30.63644 136.453264 
L 30.497698 136.033293 
L 30.308855 135.949299 
L 29.632488 135.946753 
L 29.330918 135.641317 
L 29.204701 135.12716 
L 29.521688 134.638451 
L 30.227922 134.009738 
L 30.794451 132.604645 
L 31.432278 132.513007 
L 31.724214 132.910104 
L 31.903423 133.151924 
L 32.168381 133.172288 
L 32.3948 132.994105 
L 32.501747 132.729375 
L 32.484404 132.408642 
L 32.343735 132.067542 
L 32.237752 132.724284 
L 31.917875 132.586827 
L 31.359054 131.871535 
L 30.839735 131.950447 
L 30.023663 132.408642 
L 29.890702 131.970811 
L 29.989941 131.283511 
L 30.435071 129.947062 
L 30.624878 128.809139 
L 31.108547 128.587661 
L 31.359054 128.452736 
L 31.538262 128.208345 
L 32.020004 127.195123 
L 31.680858 127.368238 
L 31.235727 127.816297 
L 30.536237 127.79593 
L 30.268388 128.037779 
L 30.058349 128.419642 
L 29.036091 131.902082 
L 27.420327 134.892987 
L 26.690005 135.936572 
L 25.921144 136.376906 
L 25.566581 137.079394 
L 25.34787 137.249923 
L 25.121451 137.244833 
L 24.909485 136.924135 
L 24.790013 136.715425 
L 24.443158 136.511805 
L 24.215775 136.745968 
L 24.132916 137.26265 
L 24.306343 137.982938 
L 25.034738 139.110431 
L 25.025103 140.14118 
L 24.787122 140.426222 
L 24.243716 140.329512 
L 23.246509 139.81287 
L 21.4525 137.891312 
L 20.659552 137.677517 
L 19.75773 136.913954 
L 17.243034 133.001742 
L 15.288123 130.591108 
L 14.52525 130.262993 
L 13.834108 129.823837 
L 13.065433 129.858271 
L 11.37541 129.04589 
L 10.38013 127.885033 
L 9.857921 127.622817 
L 9.202751 127.556627 
L 9.023543 127.274043 
L 8.883838 126.21752 
L 8.314418 125.015856 
L 7.986833 124.570316 
L 7.011786 123.439898 
L 6.849921 122.805936 
L 6.940489 122.668449 
L 7.216045 122.861949 
L 7.345152 123.096185 
L 8.357775 123.409346 
L 8.476995 123.943228 
L 8.785029 124.382976 
L 9.375654 124.349356 
L 10.222647 123.943982 
L 11.428149 122.660243 
L 12.350648 122.052525 
L 13.196523 120.803284 
L 13.374883 118.944249 
L 13.040881 117.996358 
L 12.781135 116.766343 
L 12.88639 116.439917 
L 13.142543 116.372586 
L 13.475792 116.136756 
L 13.546142 115.373471 
L 13.479662 114.578984 
L 12.470893 109.931516 
L 12.108622 108.872097 
L 11.603756 107.932356 
L 11.046862 106.116503 
L 10.613294 105.158894 
L 10.577645 104.700459 
L 10.67303 104.343896 
L 11.503257 103.572021 
L 11.401424 102.841218 
L 11.407205 101.934502 
L 11.902598 101.335853 
L 12.192774 101.238888 
L 12.583662 101.242749 
L 12.686131 100.837453 
L 12.724663 99.781182 
L 12.846002 99.240607 
L 12.739266 98.521601 
L 12.840471 98.07433 
L 13.251368 97.810334 
L 13.213639 97.046993 
L 12.508382 95.756493 
L 11.098363 93.524535 
L 9.948489 90.849272 
L 9.142721 88.337567 
L 9.298273 87.692432 
L 10.890689 85.453733 
L 11.506201 84.606845 
L 11.839737 84.741224 
L 12.173009 84.740556 
L 12.813221 84.300295 
L 13.171821 84.401207 
L 13.734833 84.130466 
L 13.684409 84.404679 
L 14.119449 84.674823 
L 14.477636 84.70843 
L 15.117746 83.979549 
L 15.373474 83.878132 
L 15.603627 84.317425 
L 16.242984 84.452348 
L 16.831059 84.148081 
L 17.879376 82.795805 
L 19.055026 76.658444 
L 20.001028 74.157313 
L 20.20563 73.95434 
L 20.844418 73.752091 
L 20.895397 74.563328 
L 21.227231 75.205755 
L 21.867182 75.576771 
L 22.481084 75.677965 
L 23.756525 75.712738 
L 23.756783 75.341032 
L 22.379173 74.900335 
L 21.893162 74.900514 
L 21.560801 74.562505 
L 20.996719 72.942946 
L 20.664666 72.773808 
L 20.486072 72.435306 
L 20.460182 71.692946 
L 20.205453 70.811664 
L 20.132526 69.905783 
L 19.796705 68.917479 
L 19.362022 68.241881 
L 19.081027 66.920207 
L 19.337067 66.477101 
L 19.822343 66.415534 
L 20.590274 65.599456 
L 21.570046 63.569484 
L 21.630745 63.14655 
L 22.046328 61.956651 
L 22.557174 61.719778 
L 23.17194 60.401988 
L 23.606319 60.908992 
L 24.118435 60.571122 
L 25.346759 59.354004 
L 26.75595 57.324576 
L 28.281682 54.759146 
L 28.615048 53.620269 
L 29.262938 53.345805 
L 29.825032 51.115125 
L 29.927315 48.718271 
L 29.742326 47.384496 
L 29.68837 45.015049 
L 29.971635 43.801032 
L 30.336796 44.119504 
L 30.712555 44.820143 
L 30.748204 44.427785 
L 31.050738 43.538611 
L 30.857078 42.867274 
L 30.536237 42.450715 
L 29.804952 40.612511 
L 29.742326 39.981946 
L 29.80977 39.288963 
L 30.388824 38.136119 
L 30.435071 37.482632 
L 29.975489 35.406264 
L 29.761595 35.033031 
L 29.429193 34.797371 
L 28.697908 34.562986 
L 28.487868 34.185933 
L 28.273011 33.220374 
L 28.26434 31.872679 
L 28.533152 30.550472 
L 29.040909 29.429536 
L 29.742326 28.69329 
L 30.146989 28.963331 
L 30.493844 29.018104 
L 31.63172 28.792645 
L 32.097083 28.219445 
L 33.349614 27.711211 
L 34.100169 27.543074 
L 34.546262 27.099804 
L 35.01837 26.884538 
L 35.909593 25.891011 
L 36.386519 25.078362 
L 36.950157 24.739548 
L 38.367444 24.145989 
L 38.987928 23.56135 
L 39.124743 24.168916 
L 38.648781 26.127928 
L 38.758619 26.595395 
L 39.471598 27.428435 
L 39.956231 28.517509 
L 39.56891 27.113815 
L 39.164246 26.572468 
L 39.165209 26.397963 
L 39.309732 25.93177 
L 39.327075 24.551035 
L 39.534224 24.111599 
L 39.956231 23.796988 
L 40.976561 24.184201 
L 42.096131 23.347365 
L 43.705151 21.406236 
L 44.213871 21.23174 
L 46.086886 21.341278 
L 46.857674 20.997381 
L 47.803816 20.947707 
L 48.069738 20.764297 
L 48.639158 21.161687 
L 49.309743 21.038139 
L 51.026674 20.244634 
L 52.813939 17.115258 
L 53.15983 16.865626 
L 53.743702 17.130542 
L 54.206174 17.639998 
L 54.503891 18.280642 
L 54.662866 19.044836 
L 54.712004 19.927489 
L 55.164842 19.610344 
L 55.411494 19.145456 
L 55.515551 18.559572 
L 55.590702 17.184035 
L 55.947192 16.538304 
L 56.197698 16.063242 
L 56.414482 16.454244 
L 56.606216 16.43514 
L 57.057127 16.012298 
L 57.166964 15.208648 
L 57.553321 14.629159 
L 57.947387 14.545102 
L 58.946521 14.994682 
L 58.774057 14.542555 
L 57.475279 14.119722 
L 57.310523 13.680335 
L 57.392419 13.267695 
L 57.600532 12.902179 
L 58.485011 11.738145 
L 58.621826 11.322969 
L 58.571725 10.08 
L 58.571725 10.08 
" clip-path="url(#p7518643571)" style="fill: none; stroke: #000000; stroke-width: 0.5; stroke-linecap: square"/>
   </g>
  </g>
 </g>
 <defs>
  <clipPath id="p7518643571">
   <rect x="0" y="-0" width="150.698262" height="221.76"/>
  </clipPath>
 </defs>
</svg>
