<?xml version="1.0" encoding="utf-8" standalone="no"?>
<!DOCTYPE svg PUBLIC "-//W3C//DTD SVG 1.1//EN"
  "http://www.w3.org/Graphics/SVG/1.1/DTD/svg11.dtd">
<svg xmlns:xlink="http://www.w3.org/1999/xlink" width="223.2pt" height="208.708621pt" viewBox="0 0 223.2 208.708621" xmlns="http://www.w3.org/2000/svg" version="1.1">
 <metadata>
  <rdf:RDF xmlns:dc="http://purl.org/dc/elements/1.1/" xmlns:cc="http://creativecommons.org/ns#" xmlns:rdf="http://www.w3.org/1999/02/22-rdf-syntax-ns#">
   <cc:Work>
    <dc:type rdf:resource="http://purl.org/dc/dcmitype/StillImage"/>
    <dc:date>2026-04-26T19:22:12.664062</dc:date>
    <dc:format>image/svg+xml</dc:format>
    <dc:creator>
     <cc:Agent>
      <dc:title>Matplotlib v3.10.9, https://matplotlib.org/</dc:title>
     </cc:Agent>
    </dc:creator>
   </cc:Work>
  </rdf:RDF>
 </metadata>
 <defs>
  <style type="text/css">*{stroke-linejoin: round; stroke-linecap: butt}</style>
 </defs>
 <g id="figure_1">
  <g id="patch_1">
   <path d="M 0 208.708621 
L 223.2 208.708621 
L 223.2 0 
L 0 0 
z
" style="fill: #ffffff"/>
  </g>
  <g id="axes_1">
   <g id="patch_2">
    <path d="M 169.005362 17.860017 
L 169.17586 18.375022 
L 169.830201 20.363775 
L 170.354016 21.95614 
L 170.991182 23.602674 
L 171.837874 25.800664 
L 172.861461 28.455998 
L 173.223838 29.965077 
L 173.259904 30.750003 
L 173.359515 31.072899 
L 173.623999 31.429228 
L 173.788872 31.664855 
L 173.785437 31.923096 
L 173.627434 32.490762 
L 173.598238 32.824763 
L 173.634304 33.04386 
L 173.749371 33.222694 
L 174.656173 34.009958 
L 174.839938 34.282284 
L 175.391233 35.852114 
L 176.371884 38.662537 
L 177.01592 40.501284 
L 177.06229 40.607818 
L 177.091487 40.720276 
L 177.101791 40.834714 
L 177.093204 40.952119 
L 177.197967 41.989338 
L 177.926157 43.987375 
L 178.577062 45.785679 
L 179.004701 47.75691 
L 178.973788 49.081574 
L 179.090573 49.540337 
L 179.470124 50.334755 
L 179.613381 50.607968 
L 179.424058 50.708682 
L 179.283418 50.816428 
L 179.164415 50.95151 
L 179.045412 51.131112 
L 178.953456 51.355247 
L 178.899363 51.55285 
L 178.806054 51.704385 
L 178.593742 51.787188 
L 178.651892 51.804373 
L 178.699222 51.805936 
L 178.724916 51.834058 
L 178.716802 51.930928 
L 178.57481 52.002803 
L 178.465273 52.102806 
L 178.424704 52.213753 
L 178.489615 52.323143 
L 178.331395 52.353617 
L 178.258371 52.40519 
L 178.270541 52.479426 
L 178.376021 52.573983 
L 178.182641 52.761547 
L 177.799939 53.372033 
L 177.718801 53.453341 
L 177.540296 53.549508 
L 177.457806 53.622223 
L 177.39019 53.737164 
L 177.33745 53.850547 
L 177.257664 53.953771 
L 177.118377 54.04136 
L 177.118377 54.159453 
L 177.263074 54.424603 
L 177.207629 54.699957 
L 177.077808 54.966743 
L 176.992613 55.210089 
L 176.992613 56.201774 
L 176.90336 56.437439 
L 176.711333 56.615185 
L 176.516601 56.751442 
L 176.427349 56.864213 
L 176.408417 57.134418 
L 176.346211 57.442262 
L 176.242083 57.739184 
L 176.08792 57.980514 
L 176.128489 58.203849 
L 176.08792 59.369505 
L 176.121728 59.554567 
L 176.286709 59.792976 
L 176.323221 60.025138 
L 176.273186 60.251051 
L 176.148774 60.357741 
L 175.997316 60.41501 
L 175.625432 60.660582 
L 175.567282 60.764154 
L 175.518599 61.01997 
L 175.529418 61.137687 
L 175.613261 61.530127 
L 175.632193 62.678055 
L 175.188637 63.006377 
L 175.188637 63.127351 
L 175.23732 63.301754 
L 175.286003 63.564173 
L 175.286003 63.845486 
L 175.188637 64.073393 
L 175.248138 64.14177 
L 175.302231 64.229013 
L 175.405006 64.457749 
L 175.253548 64.561514 
L 175.227854 64.667642 
L 175.264366 64.785569 
L 175.292764 64.925518 
L 175.256252 65.128382 
L 175.179171 65.259704 
L 175.102089 65.356431 
L 175.065577 65.453163 
L 174.976325 65.7953 
L 174.586861 66.358574 
L 174.355617 67.251786 
L 173.687578 68.286347 
L 173.475266 68.839269 
L 173.459038 68.890473 
L 173.46039 68.939315 
L 173.441458 68.969251 
L 173.363024 68.958222 
L 173.579393 69.552298 
L 173.379252 69.930579 
L 173.000606 70.222216 
L 172.671996 70.558044 
L 172.720679 70.599041 
L 172.735555 70.607713 
L 172.776124 70.702325 
L 172.550289 70.816653 
L 172.427229 71.07135 
L 172.270361 71.932662 
L 172.209508 72.145678 
L 172.013423 72.469978 
L 171.980968 72.482604 
L 171.92958 72.703568 
L 171.694279 73.182666 
L 171.640187 73.415545 
L 171.656415 73.742409 
L 171.702393 73.995092 
L 171.775418 74.209897 
L 171.867374 74.421564 
L 171.867374 74.542413 
L 171.740258 74.868661 
L 171.876841 75.159405 
L 172.095914 75.426481 
L 172.241963 75.73943 
L 172.397478 75.893551 
L 172.444809 76.000256 
L 172.443457 76.14412 
L 172.400183 76.226332 
L 172.355557 76.282459 
L 172.332568 76.344122 
L 172.319044 76.586837 
L 172.16741 77.269415 
L 171.969898 77.813997 
L 172.25693 78.358507 
L 171.980968 79.729611 
L 172.10538 79.87531 
L 171.672642 79.94262 
L 171.537412 80.008348 
L 171.48332 80.118427 
L 171.431932 80.299001 
L 171.358908 80.465333 
L 171.142539 80.60316 
L 171.041116 80.885972 
L 170.903181 80.950144 
L 170.777416 80.966782 
L 170.547524 81.045218 
L 170.383895 81.071364 
L 170.417703 81.149804 
L 170.420407 81.16882 
L 170.436635 81.175951 
L 170.506955 81.216362 
L 170.382543 81.511141 
L 170.212152 82.10082 
L 170.051228 82.280768 
L 169.937634 82.280768 
L 169.884894 82.177712 
L 169.746959 82.128564 
L 169.637423 82.039784 
L 169.522477 82.157894 
L 169.410235 82.589964 
L 169.257425 82.811978 
L 169.394008 83.052255 
L 169.1844 83.261627 
L 168.858495 83.409151 
L 168.635364 83.465467 
L 168.481201 83.451983 
L 168.436575 83.460708 
L 168.502838 83.7669 
L 168.554226 83.882725 
L 169.154649 83.889071 
L 169.154649 84.009663 
L 169.030237 84.009663 
L 169.030237 84.142956 
L 169.116785 84.223095 
L 169.173582 84.312758 
L 169.257425 84.542092 
L 169.095148 84.456386 
L 169.030237 84.409567 
L 169.053227 84.482574 
L 169.053227 84.518284 
L 169.073511 84.533362 
L 169.154649 84.542092 
L 169.154649 84.687322 
L 169.030237 84.687322 
L 168.949099 84.515904 
L 168.659706 84.109632 
L 168.343266 83.763727 
L 168.201274 83.642355 
L 168.032236 83.55272 
L 167.783412 83.465467 
L 166.182282 83.281455 
L 165.783352 83.011811 
L 164.671756 81.606239 
L 164.586561 81.542047 
L 164.443217 81.556312 
L 163.495251 80.650689 
L 163.282939 80.532661 
L 163.065217 80.518403 
L 162.874542 80.672077 
L 162.64465 80.152482 
L 162.533761 80.272865 
L 162.383655 80.084373 
L 161.806221 79.574421 
L 161.669638 79.50554 
L 161.625012 79.477037 
L 161.562806 79.390742 
L 161.503304 79.224493 
L 161.450565 79.144541 
L 161.335619 79.050342 
L 161.208502 78.994934 
L 160.946155 78.933194 
L 160.955621 78.446465 
L 160.159113 77.936112 
L 160.150999 77.592781 
L 159.91705 77.380797 
L 159.633066 76.982198 
L 159.436982 76.561536 
L 159.470789 76.278506 
L 159.391003 76.216845 
L 159.323388 76.178111 
L 159.269296 76.118824 
L 159.234136 76.000256 
L 159.130008 76.000256 
L 159.130008 76.145701 
L 159.006948 76.145701 
L 158.955561 76.050054 
L 158.809512 75.875372 
L 158.779761 75.813723 
L 158.533641 74.865501 
L 158.444389 74.723305 
L 158.325386 74.807832 
L 158.196917 74.546362 
L 157.806101 73.944553 
L 157.645177 73.627132 
L 155.472022 72.282967 
L 155.365189 72.079404 
L 155.293517 72.053369 
L 154.910815 71.351317 
L 154.590318 71.045327 
L 154.392882 70.811133 
L 154.395586 70.702325 
L 153.332674 69.892747 
L 153.159579 69.705178 
L 153.085202 69.560179 
L 153.032462 69.401794 
L 152.894527 69.160693 
L 152.711966 68.940891 
L 152.518586 68.839269 
L 152.622714 68.695117 
L 152.622714 68.839269 
L 152.744421 68.839269 
L 152.630828 68.202083 
L 152.3509 68.154833 
L 152.210261 68.413932 
L 152.518586 68.695117 
L 152.240011 68.598234 
L 152.061507 68.350139 
L 151.96955 67.993406 
L 151.900583 67.216365 
L 151.79375 66.887372 
L 151.498948 66.305072 
L 151.663929 65.920371 
L 151.880298 65.030879 
L 152.054745 64.589814 
L 151.847843 64.332766 
L 151.753181 64.180282 
L 151.663929 63.792049 
L 151.543574 63.698538 
L 151.397525 63.641962 
L 151.269056 63.534315 
L 151.162224 63.177628 
L 151.109484 62.319945 
L 151.041868 62.072604 
L 151.041868 61.954047 
L 151.186565 61.773478 
L 151.212259 61.607054 
L 151.145996 61.162801 
L 151.112188 61.060778 
L 151.047278 60.782986 
L 151.017527 60.494249 
L 151.095961 60.360879 
L 151.217668 60.233793 
L 151.098665 59.97337 
L 150.906638 59.76082 
L 150.805215 59.774937 
L 150.771407 59.567114 
L 150.671337 59.421258 
L 150.529345 59.365585 
L 150.363011 59.427531 
L 150.189916 59.20171 
L 149.740951 58.953962 
L 149.567855 58.782282 
L 149.360953 58.297892 
L 149.32985 58.184257 
L 149.278462 58.079249 
L 149.036399 57.883352 
L 148.979602 57.790112 
L 148.929567 57.757205 
L 148.650992 57.323976 
L 148.599605 57.287943 
L 148.461669 57.223712 
L 148.412986 57.193164 
L 148.38594 57.136768 
L 148.342667 56.980906 
L 148.310211 56.929215 
L 147.561034 56.140709 
L 147.298687 56.053812 
L 146.928155 55.844022 
L 146.576555 55.584164 
L 146.360187 55.352511 
L 146.269582 55.048898 
L 146.192501 54.652237 
L 146.073498 54.307276 
L 145.855777 54.159453 
L 145.701614 54.097668 
L 145.592077 53.945951 
L 145.255353 53.122657 
L 145.226954 53.109368 
L 145.287808 52.393469 
L 145.22425 52.066867 
L 144.776637 51.84812 
L 143.966606 51.26231 
L 144.093722 51.26231 
L 144.030164 51.124864 
L 143.958492 51.055365 
L 143.86924 51.02491 
L 143.750237 50.999923 
L 143.790806 50.956976 
L 143.835432 50.918715 
L 143.86383 50.853126 
L 143.853012 50.72742 
L 143.750237 50.72742 
L 143.671803 50.891386 
L 143.632586 51.041309 
L 143.656928 51.167815 
L 143.750237 51.26231 
L 143.525754 51.26231 
L 143.650166 50.556442 
L 143.677212 49.658855 
L 143.48248 48.873994 
L 142.957786 48.501178 
L 142.957786 48.38186 
L 143.057856 48.151824 
L 143.044333 47.881273 
L 142.984832 47.598287 
L 142.957786 47.323915 
L 142.998355 47.041788 
L 143.141699 46.650619 
L 143.174155 46.468307 
L 143.161984 46.146577 
L 143.121415 45.940168 
L 143.056504 45.782844 
L 142.957786 45.611515 
L 142.552094 45.10852 
L 142.495297 44.893657 
L 142.419568 44.773001 
L 142.038218 44.378393 
L 141.689323 44.207966 
L 141.773166 44.021992 
L 141.946261 43.844594 
L 142.038218 43.783908 
L 142.035513 43.250271 
L 141.821849 42.877745 
L 141.141639 42.20598 
L 141.289041 42.108033 
L 141.353951 42.018642 
L 141.340428 41.928478 
L 141.245767 41.825882 
L 141.340428 41.790907 
L 141.372884 41.755933 
L 141.340428 41.720183 
L 141.245767 41.684433 
L 141.178152 41.570971 
L 141.099718 41.46684 
L 141.007761 41.375147 
L 140.976658 41.298999 
L 140.99559 41.250048 
L 141.051035 41.210422 
L 141.117298 41.179343 
L 141.245767 41.16225 
L 141.245767 41.044933 
L 141.20655 40.905095 
L 141.20655 40.793232 
L 141.245767 40.63011 
L 141.141639 40.63011 
L 140.926623 41.093879 
L 140.90769 41.297445 
L 140.950964 41.44819 
L 141.042921 41.553874 
L 141.124059 41.692982 
L 141.141639 41.9448 
L 141.01858 41.9448 
L 140.979363 41.703085 
L 140.849541 41.571748 
L 140.662923 41.563199 
L 140.451964 41.684433 
L 140.176093 41.58185 
L 139.85154 41.790907 
L 139.568908 42.143014 
L 139.420154 42.467194 
L 139.401222 42.817868 
L 139.502645 43.102497 
L 139.736594 43.301606 
L 140.111182 43.391834 
L 139.812323 43.636093 
L 138.423505 45.59049 
L 138.341014 45.742347 
L 138.171976 45.926148 
L 137.691908 46.809571 
L 137.594542 47.121278 
L 137.583723 47.914018 
L 137.486357 48.237597 
L 137.255113 48.501178 
L 137.255113 48.6439 
L 137.432265 48.786633 
L 137.620236 49.050288 
L 137.770342 49.320219 
L 137.905572 49.725184 
L 138.086781 49.925747 
L 138.933324 50.479156 
L 139.144284 50.661057 
L 139.908337 51.566909 
L 140.427622 51.882493 
L 140.899577 52.377841 
L 141.302564 52.929588 
L 141.472954 53.306364 
L 141.537865 53.779389 
L 141.705551 54.41287 
L 141.924624 55.004299 
L 142.151812 55.352511 
L 142.151812 55.47303 
L 142.090958 55.816626 
L 142.548037 57.708628 
L 142.594016 57.89824 
L 142.606186 58.315917 
L 142.51423 58.474234 
L 142.349248 58.62786 
L 142.261348 58.850482 
L 142.082844 58.933579 
L 142.024695 59.104489 
L 142.151812 59.308344 
L 142.066616 59.880818 
L 142.038218 60.558584 
L 142.147755 60.767293 
L 142.657574 61.304073 
L 142.833374 61.545827 
L 142.886114 61.749927 
L 142.898284 62.139344 
L 142.957786 62.336436 
L 143.333727 62.758167 
L 143.401342 62.803722 
L 144.093722 63.798336 
L 144.680623 63.903639 
L 145.052507 64.313902 
L 145.281047 64.898785 
L 146.02211 67.76664 
L 146.082964 68.165858 
L 146.260116 68.233583 
L 147.052567 68.695117 
L 147.454202 69.093726 
L 147.655695 69.350577 
L 147.81121 69.697298 
L 147.972135 69.760344 
L 148.158753 69.806054 
L 148.310211 69.897476 
L 148.364303 70.016489 
L 148.477897 70.409832 
L 148.955261 71.357626 
L 149.105367 71.497229 
L 149.109424 71.581627 
L 149.085082 71.60529 
L 149.037752 71.603713 
L 148.979602 71.616333 
L 149.716609 72.240359 
L 150.034401 72.657005 
L 150.011412 73.073734 
L 150.138528 73.182666 
L 150.252122 73.400545 
L 150.33326 73.642134 
L 150.363011 73.813473 
L 150.430626 73.878222 
L 150.805215 74.421564 
L 151.593609 75.291358 
L 151.786989 75.707817 
L 151.953322 75.810561 
L 152.143998 75.894341 
L 152.281933 76.000256 
L 152.361719 76.259533 
L 152.3509 76.474568 
L 152.404993 76.621626 
L 152.683567 76.676182 
L 152.967552 76.825626 
L 153.519292 77.525545 
L 153.880358 77.738334 
L 153.857369 77.860163 
L 153.880358 78.018393 
L 153.880358 78.135491 
L 153.84655 78.295325 
L 153.970962 78.415603 
L 154.168399 78.464666 
L 154.344199 78.41402 
L 154.487543 78.702083 
L 154.852666 78.869874 
L 155.601843 79.078047 
L 156.778349 80.196833 
L 157.158347 81.026995 
L 157.357136 81.216362 
L 157.473434 81.415254 
L 157.835852 82.310892 
L 157.872364 82.545564 
L 157.872364 82.666873 
L 157.953502 82.816736 
L 158.017061 83.195007 
L 158.099551 83.344906 
L 158.099551 83.465467 
L 157.985958 83.465467 
L 157.75877 83.465467 
L 157.568095 83.033222 
L 157.175927 82.786604 
L 156.73237 82.61375 
L 156.38618 82.400477 
L 156.273939 82.400477 
L 156.172516 82.678767 
L 156.129242 82.842903 
L 156.161697 82.985641 
L 156.273939 83.198972 
L 156.590378 83.538442 
L 156.764826 83.780386 
L 156.840555 84.076309 
L 156.947387 84.232616 
L 157.186745 84.157238 
L 157.424751 84.042985 
L 157.531583 84.076309 
L 157.507241 84.342118 
L 157.442331 84.623039 
L 157.332794 84.884153 
L 157.181336 85.087352 
L 157.247599 85.156412 
L 157.336851 85.280249 
L 157.408523 85.341377 
L 157.708735 85.571613 
L 157.815567 85.608135 
L 157.86425 85.685152 
L 158.025175 86.044863 
L 158.099551 86.152868 
L 158.099551 86.286293 
L 157.925104 86.133014 
L 157.531583 85.608135 
L 157.408523 85.608135 
L 157.408523 85.752643 
L 157.466672 85.856662 
L 157.531583 86.032157 
L 157.408523 86.032157 
L 157.304396 85.65101 
L 157.010945 85.68277 
L 156.689097 85.952746 
L 156.50924 86.286293 
L 156.897352 86.497565 
L 157.173222 86.88045 
L 157.645177 87.752914 
L 157.580266 87.876899 
L 157.538344 88.034274 
L 157.516708 88.220278 
L 157.531583 88.431738 
L 157.807453 88.644808 
L 158.533641 88.991488 
L 158.779761 89.231652 
L 158.828444 89.409804 
L 158.850081 89.838541 
L 158.902821 90.033449 
L 159.015062 90.196549 
L 159.296342 90.512439 
L 159.413992 90.706611 
L 159.519472 91.102966 
L 159.64118 91.97233 
L 159.754773 92.24308 
L 160.305162 92.79424 
L 160.946155 93.25152 
L 161.649353 93.608486 
L 161.976611 93.851543 
L 162.19298 94.187085 
L 162.22814 94.392739 
L 162.19298 95.135802 
L 162.155116 95.201191 
L 162.003658 95.331974 
L 161.965793 95.403749 
L 161.976611 95.518592 
L 162.059102 95.689274 
L 162.079387 95.805728 
L 162.095614 96.238894 
L 162.165934 96.574795 
L 162.339029 96.844509 
L 162.651412 97.076745 
L 162.936748 97.358493 
L 163.239665 97.791161 
L 163.361372 98.116914 
L 163.112548 98.081781 
L 163.115253 98.396396 
L 163.231551 98.664732 
L 163.564218 99.153569 
L 163.70621 99.450757 
L 163.915818 100.032463 
L 164.07539 100.299395 
L 164.286349 100.478433 
L 164.52706 100.61432 
L 164.728553 100.762205 
L 164.813749 100.975657 
L 164.923285 101.59774 
L 164.938161 101.911245 
L 164.813749 102.128805 
L 164.540583 102.144003 
L 164.359374 101.961634 
L 164.207916 101.894449 
L 164.018593 102.26399 
L 163.978024 102.523984 
L 163.978024 102.873623 
L 164.010479 103.219315 
L 164.07539 103.477817 
L 164.079447 103.987706 
L 163.750836 105.183226 
L 163.904999 105.755984 
L 164.137596 105.962692 
L 164.675813 106.138169 
L 164.938161 106.304844 
L 165.111256 106.580525 
L 165.276237 107.189705 
L 165.815807 107.946595 
L 166.05246 108.487154 
L 166.620429 110.22678 
L 166.866548 110.746995 
L 167.204625 111.29945 
L 167.426403 111.79661 
L 167.828038 112.433676 
L 169.231731 115.899198 
L 169.880838 116.921335 
L 170.506955 118.623729 
L 171.815987 120.577266 
L 171.940399 120.833666 
L 172.102676 121.394938 
L 173.216975 123.184468 
L 173.822808 123.898069 
L 173.960743 124.1088 
L 175.405006 127.199199 
L 175.632193 128.140431 
L 176.03518 128.981702 
L 176.209628 129.996465 
L 176.509839 130.546912 
L 177.230618 131.536407 
L 177.330689 131.785058 
L 177.487556 132.365881 
L 177.590332 132.635682 
L 178.08798 133.466336 
L 178.286769 134.318351 
L 179.056231 135.769313 
L 180.484266 138.471537 
L 180.549176 139.112415 
L 180.726661 139.653848 
L 180.995409 140.007956 
L 181.3254 140.435299 
L 181.379492 140.801083 
L 181.394367 141.548262 
L 181.438993 141.923154 
L 181.532302 142.221643 
L 181.666181 142.44533 
L 181.858208 142.630802 
L 182.120555 142.816287 
L 182.550588 143.25158 
L 182.837277 143.825304 
L 183.224037 145.396586 
L 183.315993 145.658832 
L 183.605387 146.181775 
L 183.921943 146.817778 
L 184.158837 147.043673 
L 184.165241 147.366531 
L 183.895868 147.983993 
L 183.897728 148.53437 
L 184.581751 148.825818 
L 185.408198 150.540651 
L 187.65419 152.427016 
L 188.007142 152.894976 
L 188.618469 154.839315 
L 189.068655 155.381029 
L 189.701621 156.387578 
L 189.978803 156.340689 
L 189.855387 156.061849 
L 189.700598 155.782881 
L 189.868981 155.751758 
L 190.206134 156.138859 
L 190.669249 156.355419 
L 191.272667 157.052204 
L 191.511182 157.609882 
L 191.553307 158.19881 
L 192.057972 158.539801 
L 192.576741 158.431419 
L 192.983284 158.55562 
L 193.418053 158.710985 
L 193.768545 158.912918 
L 194.020725 159.20783 
L 194.370988 160.10834 
L 194.665277 160.543556 
L 194.553003 160.729674 
L 194.300719 160.341062 
L 193.964373 159.937031 
L 193.726023 159.921227 
L 193.122925 160.230791 
L 192.87038 160.369928 
L 192.533947 160.214269 
L 192.226125 160.07513 
L 191.917912 160.013106 
L 191.693731 160.044135 
L 191.441518 159.997611 
L 191.133236 159.858034 
L 191.021081 159.68744 
L 190.830756 159.438816 
L 190.659013 159.374132 
L 190.644137 159.271788 
L 190.390352 159.144842 
L 190.0356 159.037639 
L 189.885955 159.160725 
L 189.658307 159.632057 
L 189.536164 160.231622 
L 189.648944 161.193774 
L 189.495524 162.032511 
L 189.384892 162.645573 
L 189.525408 163.157918 
L 189.832783 163.234334 
L 189.972812 163.48253 
L 189.959083 163.777778 
L 189.905779 163.922188 
L 189.931517 164.259472 
L 189.945688 164.492531 
L 189.974018 164.943154 
L 189.896312 165.778864 
L 189.865209 167.530873 
L 189.828697 167.847899 
L 189.66642 168.408945 
L 189.628556 168.714571 
L 189.693467 169.010371 
L 189.847629 169.316064 
L 190.20599 169.887276 
L 190.491327 170.480806 
L 190.594102 170.795709 
L 190.659013 171.128739 
L 190.64008 172.084474 
L 190.7708 173.057858 
L 190.924065 173.799376 
L 191.045154 174.464274 
L 191.8163 175.9473 
L 192.050328 176.521669 
L 192.373888 177.274564 
L 192.59281 179.121178 
L 192.713165 179.445313 
L 193.049592 180.144612 
L 193.743622 181.121018 
L 194.185826 181.39586 
L 193.985684 181.080578 
L 193.516434 180.149796 
L 193.840988 180.161346 
L 194.0533 180.343684 
L 194.197996 180.640729 
L 194.310238 180.993098 
L 194.488742 181.990204 
L 194.538777 182.151193 
L 194.810591 182.366686 
L 194.948526 182.594581 
L 195.066177 182.847269 
L 195.281193 183.133015 
L 195.579417 183.576088 
L 196.21779 184.130232 
L 196.81946 184.405957 
L 197.118977 184.517558 
L 197.167659 184.595231 
L 197.378619 184.763806 
L 197.605807 184.896029 
L 197.853278 184.981151 
L 198.778255 185.054704 
L 200.117038 185.348938 
L 201.399024 185.83664 
L 201.869626 186.166506 
L 202.676952 187.042199 
L 202.940652 187.533498 
L 203.037533 188.472496 
L 203.320813 189.090482 
L 203.815361 189.588506 
L 204.336231 190.033477 
L 204.591728 190.16586 
L 204.838607 190.285256 
L 204.785446 189.966076 
L 204.873579 189.965947 
L 205.226532 190.424412 
L 205.138856 191.00319 
L 205.42134 191.841095 
L 206.549233 192.419254 
L 207.095505 192.778537 
L 207.465515 193.058134 
L 208.470253 194.017779 
L 209.972641 195.656999 
L 210.289081 195.851107 
L 210.5352 195.823732 
L 210.597406 195.701792 
L 210.629862 195.57488 
L 210.689363 195.49857 
L 210.823241 195.538384 
L 211.111282 195.752392 
L 211.246513 195.891755 
L 211.334413 196.031125 
L 211.562952 196.643433 
L 211.709001 196.886566 
L 211.959178 197.151297 
L 212.601884 197.594739 
L 212.991438 197.757516 
L 213.054545 198.497727 
L 213.042375 198.750147 
L 212.932838 198.969371 
L 212.79896 199.175324 
L 212.796255 199.194425 
L 208.911994 199.194442 
L 205.046063 199.195497 
L 201.180133 199.196552 
L 197.312485 199.196552 
L 193.446554 199.196552 
L 189.578906 199.197606 
L 185.712975 199.197606 
L 181.847045 199.197606 
L 177.981114 199.197606 
L 174.113466 199.198661 
L 170.247536 199.199716 
L 166.381605 199.199716 
L 166.277302 199.199716 
L 166.1435 199.199716 
L 162.513957 199.199716 
L 158.648026 199.199716 
L 154.781237 199.199716 
L 151.271306 199.200633 
L 150.916112 199.200771 
L 150.89895 199.200771 
L 149.215053 199.200771 
L 147.514799 199.200771 
L 145.812827 199.200771 
L 144.112574 199.200771 
L 142.409744 199.200771 
L 140.707773 199.200771 
L 140.360218 199.200771 
L 139.00666 199.200771 
L 137.306406 199.200771 
L 135.604435 199.200771 
L 133.904181 199.200771 
L 132.20221 199.200771 
L 130.501956 199.200771 
L 128.799985 199.200771 
L 127.099731 199.200771 
L 125.39776 199.200771 
L 123.697506 199.200771 
L 123.247903 199.201101 
L 122.263454 199.201825 
L 122.794139 197.390364 
L 123.178843 196.083597 
L 123.199452 195.573694 
L 123.051753 195.120756 
L 122.685941 194.712118 
L 122.380239 194.535199 
L 122.060797 194.478335 
L 121.741355 194.543624 
L 121.430501 194.73318 
L 121.001144 195.270323 
L 120.251318 197.020333 
L 120.193953 197.15426 
L 119.37474 199.071042 
L 119.154909 199.221865 
L 118.518602 199.221865 
L 116.903361 199.221865 
L 115.285543 199.22081 
L 113.666867 199.219756 
L 112.048191 199.219756 
L 110.432091 199.219756 
L 108.814274 199.219756 
L 107.196457 199.219756 
L 105.580357 199.219756 
L 103.964257 199.218701 
L 102.34644 199.218701 
L 100.726047 199.218701 
L 99.110806 199.218701 
L 97.492988 199.218701 
L 95.876888 199.217646 
L 94.260789 199.216591 
L 92.642971 199.216591 
L 91.025154 199.216591 
L 89.407337 199.216591 
L 87.788661 199.215537 
L 86.17342 199.215537 
L 84.55732 199.215537 
L 82.939503 199.215537 
L 81.321685 199.215537 
L 79.705586 199.214482 
L 78.087768 199.213427 
L 76.469951 199.213427 
L 74.852134 199.213427 
L 73.233458 199.213427 
L 71.618217 199.213427 
L 70.000399 199.213427 
L 68.381724 199.212373 
L 66.766482 199.212373 
L 65.148665 199.212373 
L 63.530848 199.211318 
L 61.913031 199.210263 
L 60.296931 199.210263 
L 58.679114 199.210263 
L 57.061296 199.210263 
L 55.443479 199.210263 
L 53.825662 199.210263 
L 52.209562 199.209208 
L 50.591745 199.209208 
L 48.973927 199.209208 
L 47.357828 199.209208 
L 45.74001 199.209208 
L 44.123911 199.208154 
L 42.506093 199.207099 
L 40.888276 199.207099 
L 39.270459 199.207099 
L 37.654359 199.207099 
L 36.038259 199.206044 
L 34.420442 199.206044 
L 32.804342 199.206044 
L 31.184807 199.204989 
L 29.56699 199.203935 
L 27.95089 199.203935 
L 26.33479 199.203935 
L 24.716973 199.203935 
L 23.100015 199.20288 
L 21.483915 199.20288 
L 19.86438 199.20288 
L 18.246563 199.20288 
L 16.628746 199.20288 
L 15.012646 199.201825 
L 15.012646 193.251809 
L 15.012646 187.313916 
L 15.012646 181.388299 
L 15.012646 175.474064 
L 15.012646 169.5745 
L 15.012646 163.686101 
L 15.012646 157.810067 
L 15.012646 151.948107 
L 15.012646 146.100366 
L 15.012646 140.264406 
L 15.012646 134.441418 
L 15.012646 128.633097 
L 15.012646 122.84061 
L 15.012646 117.058979 
L 15.012646 111.291435 
L 15.012646 105.539144 
L 15.012646 101.694658 
L 15.012646 97.977624 
L 15.012646 96.235958 
L 15.012646 89.630013 
L 15.012646 86.653459 
L 15.012646 85.898498 
L 15.012646 79.039095 
L 15.012646 77.51933 
L 15.012646 69.85766 
L 15.012646 62.150886 
L 15.012646 58.916552 
L 15.012646 56.539426 
L 14.897578 55.431919 
L 14.603898 54.398532 
L 13.226521 51.024864 
L 13.061647 50.361522 
L 13.023864 49.620112 
L 13.17328 48.231211 
L 13.174998 47.76483 
L 12.934558 46.976889 
L 12.082713 45.534964 
L 11.971081 44.738526 
L 12.249304 43.741337 
L 12.269913 43.361965 
L 12.194346 42.932298 
L 10.763729 39.352477 
L 10.294871 38.508812 
L 10.145455 38.097955 
L 10.150607 37.362179 
L 10.416808 36.692642 
L 11.105497 35.457568 
L 11.38372 34.804434 
L 11.541724 34.538916 
L 11.99169 33.971619 
L 12.494896 33.463458 
L 13.465243 32.00362 
L 13.789837 31.351674 
L 13.946123 30.709768 
L 14.001081 30.331989 
L 14.504287 29.024579 
L 14.679465 27.980679 
L 14.885556 27.222379 
L 15.134583 26.572093 
L 15.239346 25.91812 
L 15.012646 25.154789 
L 14.287891 23.633957 
L 14.071495 22.669294 
L 13.489287 21.496155 
L 13.374219 21.113411 
L 12.989515 19.095561 
L 12.974059 17.549532 
L 12.809186 15.963929 
L 12.814338 15.274799 
L 13.018712 14.677377 
L 15.718509 12.531601 
L 16.328196 10.934872 
L 16.793619 10.29328 
L 17.831655 9.486755 
L 17.807314 9.629592 
L 18.012864 10.856009 
L 18.196778 11.456917 
L 18.496989 11.83469 
L 18.856703 11.931058 
L 19.701894 11.981539 
L 20.344239 12.303576 
L 20.687724 12.305871 
L 21.44772 12.195714 
L 21.607292 12.243907 
L 21.79932 12.330352 
L 22.002165 12.367073 
L 22.306434 12.197244 
L 22.716183 12.094742 
L 23.198956 12.041199 
L 25.900862 11.285645 
L 29.017927 10.266765 
L 29.761695 10.154441 
L 31.389871 10.235435 
L 37.959371 12.014428 
L 42.753295 12.637915 
L 43.029165 12.784829 
L 43.292865 12.873595 
L 44.120476 12.816968 
L 44.4572 12.849873 
L 45.645876 13.407818 
L 46.327438 13.614508 
L 47.090139 13.620632 
L 47.693267 13.400163 
L 47.985365 13.373372 
L 48.269349 13.556326 
L 48.499241 13.767627 
L 48.666927 13.836535 
L 48.82109 13.847254 
L 49.007708 13.8886 
L 49.462083 14.145121 
L 50.508767 14.487461 
L 51.633885 14.602355 
L 52.047691 14.719554 
L 52.318152 14.916436 
L 52.420927 14.829867 
L 52.580499 14.734109 
L 52.648115 14.659805 
L 52.845551 14.683551 
L 53.886826 14.665167 
L 54.00042 14.698872 
L 54.122128 14.775476 
L 54.24654 14.90571 
L 54.24113 14.973129 
L 54.210027 15.042083 
L 54.24654 15.173869 
L 54.370952 15.412947 
L 54.446681 15.517171 
L 54.530524 15.560088 
L 54.579207 15.616036 
L 54.603548 15.898864 
L 54.648174 16.009248 
L 54.765825 16.220837 
L 54.930806 16.784426 
L 55.098492 17.044427 
L 55.49607 17.374274 
L 55.974786 17.638196 
L 56.502185 17.813141 
L 57.540756 17.967384 
L 57.954562 18.133151 
L 58.325093 18.206063 
L 58.69292 18.015731 
L 59.53135 18.448612 
L 60.514476 18.27821 
L 62.445568 17.360466 
L 62.730905 17.315971 
L 62.904 17.44332 
L 62.990548 17.71032 
L 63.013537 18.080196 
L 63.060867 18.234461 
L 63.352965 18.916914 
L 63.419228 19.535872 
L 63.466559 19.691028 
L 63.961503 19.981406 
L 64.762068 20.093574 
L 67.743902 20.088964 
L 67.938634 20.137368 
L 68.08874 20.248009 
L 68.221266 20.372489 
L 68.356496 20.464702 
L 68.563399 20.520032 
L 69.05699 20.464702 
L 69.435636 20.505431 
L 70.145596 20.68142 
L 70.466093 20.722153 
L 70.802817 20.640687 
L 71.524948 20.288733 
L 71.904946 20.218043 
L 72.226795 20.275671 
L 72.524302 20.408605 
L 72.782592 20.589196 
L 72.981381 20.792863 
L 73.12743 20.872798 
L 73.71974 20.863575 
L 73.94287 20.905081 
L 74.120023 20.972723 
L 74.398597 21.120314 
L 77.350681 22.153012 
L 77.941638 22.481475 
L 78.266191 22.614569 
L 78.669178 22.669194 
L 78.769249 22.775372 
L 78.884195 23.280184 
L 78.949106 23.455669 
L 79.062699 23.538799 
L 79.372377 23.630401 
L 82.25955 25.12361 
L 84.937115 25.006513 
L 85.430706 24.915613 
L 87.703932 23.835944 
L 90.155662 22.670733 
L 91.037365 22.023797 
L 91.731098 21.672347 
L 91.825759 21.624672 
L 91.946115 21.437828 
L 92.073231 21.298668 
L 94.520904 19.555842 
L 94.779195 19.058196 
L 95.241683 19.164165 
L 95.724456 18.941484 
L 96.492566 18.273605 
L 96.343812 18.059475 
L 96.280254 18.073289 
L 96.142319 18.144663 
L 96.235628 17.95357 
L 96.365449 17.820047 
L 96.495271 17.816211 
L 96.596694 18.015731 
L 96.718401 18.015731 
L 96.909076 17.810072 
L 97.682595 17.131869 
L 97.911135 16.986134 
L 98.130208 16.88336 
L 98.461523 16.433983 
L 98.596754 16.33124 
L 98.826645 16.287538 
L 98.957819 16.184037 
L 99.067356 16.056777 
L 99.225576 15.944857 
L 99.172836 15.92416 
L 99.12821 15.92416 
L 99.102516 15.898864 
L 99.111982 15.804583 
L 99.566357 15.560088 
L 99.517674 16.09894 
L 99.986924 16.462354 
L 100.046425 16.479989 
L 100.669838 16.664793 
L 101.278375 16.72921 
L 101.141793 16.812802 
L 100.953822 17.02295 
L 100.814535 17.102721 
L 100.803716 17.197837 
L 100.828058 17.225452 
L 100.879445 17.226219 
L 100.937594 17.243862 
L 100.738806 17.373507 
L 100.798307 17.52004 
L 100.979516 17.658145 
L 101.155316 17.759428 
L 101.846344 17.360466 
L 101.761149 17.576048 
L 101.853105 17.68193 
L 101.99645 17.71032 
L 102.073531 17.694974 
L 102.138442 17.569143 
L 102.640147 17.102721 
L 102.686126 17.193234 
L 102.698296 17.200905 
L 102.753741 17.243862 
L 102.79431 17.134937 
L 102.82947 17.07204 
L 102.859221 16.995338 
L 102.876801 16.845013 
L 102.980928 16.845013 
L 102.972814 17.047495 
L 103.006622 17.200905 
L 103.086408 17.304464 
L 103.208116 17.360466 
L 103.274379 17.235424 
L 103.444769 16.72921 
L 103.189183 16.601145 
L 102.953882 16.656357 
L 102.707762 16.777524 
L 102.41296 16.845013 
L 102.41296 16.72921 
L 102.464347 16.720007 
L 102.586055 16.736112 
L 102.640147 16.72921 
L 102.640147 16.600378 
L 102.372391 16.680897 
L 101.391969 16.72921 
L 101.391969 16.600378 
L 102.00862 16.446252 
L 102.592816 16.126539 
L 103.608398 15.238233 
L 103.968111 14.665167 
L 104.199356 13.906211 
L 104.265619 13.118491 
L 104.124979 12.464235 
L 104.238572 12.464235 
L 104.321063 12.82462 
L 104.468464 13.176659 
L 104.698356 13.429251 
L 105.033728 13.492022 
L 104.568535 13.14834 
L 104.321063 12.593537 
L 104.427895 12.262267 
L 105.033728 12.592771 
L 105.482694 12.922572 
L 105.993865 13.127675 
L 106.594289 13.193497 
L 107.313715 13.106246 
L 109.651852 12.498663 
L 114.593176 10.796388 
L 114.593176 10.924805 
L 114.341647 10.959204 
L 112.806781 11.518854 
L 111.52209 12.232432 
L 110.641739 12.63868 
L 109.931779 13.106246 
L 109.83847 13.14834 
L 109.611282 13.185078 
L 109.477404 13.234828 
L 108.84723 13.661973 
L 108.557836 13.759205 
L 107.897911 13.80744 
L 107.754567 13.8886 
L 107.68019 13.890132 
L 107.427309 14.262291 
L 107.427309 14.402445 
L 107.769442 14.492057 
L 107.887093 14.494355 
L 107.992573 14.402445 
L 108.106166 14.402445 
L 108.357695 14.545673 
L 108.824241 14.521163 
L 109.274558 14.386361 
L 109.477404 14.204088 
L 109.62751 13.901617 
L 109.960177 13.989673 
L 110.30772 14.268417 
L 110.499747 14.53112 
L 110.613341 14.53112 
L 110.718821 14.204088 
L 110.975759 13.874818 
L 111.282732 13.614508 
L 111.530204 13.492022 
L 111.678958 13.433078 
L 111.862871 13.515753 
L 112.07924 13.654317 
L 112.32536 13.759205 
L 112.482227 13.740064 
L 112.695891 13.680347 
L 112.928488 13.658145 
L 113.128629 13.759205 
L 113.077242 13.778346 
L 113.031263 13.77758 
L 113.006922 13.799784 
L 113.015036 13.8886 
L 113.239518 13.948324 
L 113.52215 13.859505 
L 113.804782 13.685707 
L 114.025208 13.492022 
L 113.984639 13.472119 
L 113.94407 13.475181 
L 113.918376 13.45834 
L 113.923785 13.374137 
L 113.980582 13.334333 
L 113.988696 13.317494 
L 113.9914 13.295296 
L 114.025208 13.234828 
L 114.594529 13.478243 
L 114.70677 13.620632 
L 114.860933 13.493553 
L 114.975879 13.345815 
L 115.161145 12.965427 
L 115.063779 12.809316 
L 115.121928 12.685354 
L 115.388332 12.464235 
L 115.437015 12.350242 
L 115.419435 12.253852 
L 115.414026 12.166646 
L 115.511392 12.078679 
L 115.607405 12.056497 
L 116.211886 12.100862 
L 116.368753 12.158996 
L 116.645976 12.335707 
L 116.690602 12.406855 
L 116.685193 12.494073 
L 116.714944 12.567522 
L 116.873163 12.592771 
L 117.007042 12.556046 
L 117.108465 12.46806 
L 117.174728 12.342592 
L 116.873163 12.195714 
L 116.979996 12.125339 
L 117.080066 12.090153 
L 117.19366 12.106981 
L 116.873163 11.679442 
L 116.203772 11.197722 
L 115.412673 10.86671 
L 114.662144 10.84225 
L 114.820364 10.755113 
L 115.232817 10.605308 
L 116.645976 10.398965 
L 117.165261 10.454751 
L 118.698776 10.924805 
L 120.84218 11.869107 
L 121.318192 12.078679 
L 121.999754 12.592771 
L 123.729353 13.373372 
L 124.279741 13.492022 
L 124.525861 13.484367 
L 124.954542 13.470588 
L 127.461716 12.772585 
L 128.950605 11.950179 
L 129.556437 11.757447 
L 130.19743 11.770448 
L 130.727534 12.032785 
L 130.96554 12.533092 
L 131.049383 12.757281 
L 131.574077 13.446857 
L 131.794503 13.984313 
L 132.058203 14.30671 
L 132.591011 14.775476 
L 132.766811 14.852083 
L 133.172503 14.940185 
L 133.202253 14.953976 
L 133.376701 15.032889 
L 133.790506 15.486516 
L 133.891929 15.560088 
L 134.131287 15.667386 
L 134.792565 16.17637 
L 134.960251 16.283705 
L 134.451784 16.177137 
L 132.808732 15.173869 
L 132.902041 15.183064 
L 132.975066 15.173869 
L 133.019692 15.196856 
L 133.149513 15.3026 
L 133.108944 15.165441 
L 133.031863 15.082691 
L 132.915565 15.043615 
L 132.574783 15.00684 
L 132.499054 14.939419 
L 132.455781 14.853615 
L 132.374642 14.775476 
L 131.932438 14.542609 
L 131.753934 14.395552 
L 131.684966 14.402445 
L 131.560554 14.402445 
L 131.510519 14.147419 
L 131.406391 13.924588 
L 131.271161 13.745424 
L 131.116998 13.620632 
L 131.333367 13.620632 
L 131.536213 13.596134 
L 130.699136 12.58359 
L 130.520631 12.280626 
L 130.281273 11.97542 
L 130.09195 11.869871 
L 130.086541 11.950179 
L 129.807966 11.823983 
L 129.699782 11.890522 
L 129.632167 12.078679 
L 129.404979 11.950179 
L 129.400922 12.010604 
L 129.413093 12.138343 
L 129.404979 12.195714 
L 129.345478 12.156702 
L 129.230532 12.11616 
L 129.166973 12.078679 
L 129.173735 12.226313 
L 129.142632 12.331117 
L 129.064198 12.464235 
L 129.404979 12.464235 
L 129.313022 12.673112 
L 129.567256 13.116195 
L 129.518573 13.374137 
L 129.632167 13.374137 
L 129.632167 13.492022 
L 129.518573 13.492022 
L 129.555085 13.575464 
L 129.607825 13.665036 
L 129.632167 13.759205 
L 129.518573 13.759205 
L 129.461776 13.529532 
L 129.352239 13.355766 
L 129.183201 13.251667 
L 128.950605 13.234828 
L 129.012811 13.094 
L 128.946548 13.075632 
L 128.826192 13.201151 
L 128.723417 13.492022 
L 128.826192 13.506567 
L 128.881637 13.483601 
L 128.950605 13.374137 
L 129.068255 13.464464 
L 129.161564 13.499677 
L 129.291386 13.492022 
L 129.291386 13.620632 
L 129.166973 13.620632 
L 129.166973 13.759205 
L 129.231884 13.871755 
L 129.327898 13.949856 
L 129.457719 13.995799 
L 129.632167 14.004987 
L 129.514516 14.122913 
L 129.345478 14.164266 
L 129.180496 14.125977 
L 129.064198 14.004987 
L 128.950605 14.004987 
L 128.961423 14.103769 
L 128.93032 14.125977 
L 128.880285 14.122913 
L 128.826192 14.145121 
L 128.901922 14.199493 
L 128.961423 14.260759 
L 129.064198 14.402445 
L 128.831602 14.688147 
L 128.784271 14.903412 
L 128.934377 15.025227 
L 129.291386 15.032889 
L 129.291386 15.173869 
L 129.069607 15.132493 
L 128.888398 15.062004 
L 128.73694 15.048212 
L 128.599005 15.173869 
L 128.49623 15.173869 
L 128.385341 15.059705 
L 128.274452 15.069665 
L 128.191961 15.181531 
L 128.158153 15.372333 
L 128.225769 15.466591 
L 128.342067 15.534031 
L 128.366409 15.601474 
L 128.158153 15.688846 
L 128.158153 15.804583 
L 128.252815 15.983951 
L 128.136517 16.050644 
L 127.947194 16.09664 
L 127.806554 16.213937 
L 127.771394 16.479989 
L 127.875522 16.645621 
L 128.058083 16.6924 
L 128.236587 16.611113 
L 128.260929 16.600378 
L 128.228473 16.567404 
L 128.206836 16.558969 
L 128.1852 16.540566 
L 128.158153 16.471555 
L 128.393455 16.568171 
L 128.507048 16.591943 
L 128.662563 16.600378 
L 128.796442 16.678596 
L 128.823488 16.852682 
L 128.82484 17.024484 
L 128.888398 17.102721 
L 129.075017 17.15258 
L 129.334659 17.276848 
L 129.583484 17.447923 
L 129.74576 17.630523 
L 129.872877 17.322876 
L 129.959425 17.196303 
L 130.086541 17.102721 
L 130.017574 17.277615 
L 129.993232 17.395755 
L 130.016221 17.498558 
L 130.086541 17.630523 
L 129.859354 17.630523 
L 129.859354 17.759428 
L 130.086541 17.759428 
L 130.032449 17.800864 
L 129.985118 17.830023 
L 129.95672 17.88911 
L 129.972948 18.015731 
L 130.051381 18.003452 
L 130.09736 17.969686 
L 130.135224 17.923642 
L 130.19743 17.875297 
L 130.219067 17.906759 
L 130.213658 17.95357 
L 130.23259 17.995778 
L 130.311024 18.015731 
L 130.311024 17.875297 
L 130.424618 17.875297 
L 130.342127 18.142361 
L 130.421913 18.321193 
L 130.559848 18.310447 
L 130.651805 18.015731 
L 130.845185 17.989639 
L 131.104827 17.721063 
L 131.421267 17.504696 
L 131.79856 17.630523 
L 131.560554 17.630523 
L 131.560554 17.759428 
L 131.79856 17.875297 
L 131.843186 17.797027 
L 131.947314 17.716459 
L 132.023043 17.630523 
L 132.261049 17.759428 
L 132.261049 17.875297 
L 132.192081 17.958942 
L 132.163683 18.02187 
L 132.136636 18.273605 
L 132.321902 18.190713 
L 132.374642 18.144663 
L 132.347596 18.303539 
L 132.315141 18.409464 
L 132.255639 18.479316 
L 132.136636 18.531515 
L 132.136636 18.648969 
L 132.248878 18.810192 
L 132.256992 19.01366 
L 131.912154 19.30393 
L 131.912154 19.432954 
L 132.090658 19.440634 
L 132.228593 19.402233 
L 132.325959 19.316218 
L 132.374642 19.174916 
L 132.477417 19.174916 
L 132.499054 19.374585 
L 132.51393 19.419897 
L 132.550442 19.528959 
L 132.650513 19.634955 
L 132.808732 19.691028 
L 132.808732 19.83237 
L 132.639694 19.875389 
L 132.517987 19.948371 
L 132.435496 20.059769 
L 132.374642 20.218043 
L 132.458485 20.254925 
L 132.591011 20.347132 
L 132.750583 20.247241 
L 132.899337 20.220348 
L 133.03592 20.25723 
L 133.149513 20.347132 
L 133.149513 20.464702 
L 133.03592 20.464702 
L 133.03592 20.605335 
L 133.202253 20.745979 
L 133.413213 20.843591 
L 133.634991 20.852046 
L 133.839189 20.722153 
L 133.839189 20.605335 
L 133.595774 20.599187 
L 133.429441 20.476229 
L 133.326665 20.288733 
L 133.272573 20.088964 
L 133.521397 20.14121 
L 133.856769 20.307943 
L 134.013637 20.335605 
L 134.075843 20.347132 
L 133.943317 20.088964 
L 134.208369 20.079745 
L 134.293564 20.088964 
L 134.293564 19.948371 
L 134.219187 19.929933 
L 134.204312 19.915337 
L 134.208369 19.887681 
L 134.184027 19.838516 
L 134.208369 19.817006 
L 134.407158 19.691028 
L 134.416624 19.805484 
L 134.463954 19.828529 
L 134.538331 19.820079 
L 134.634345 19.83237 
L 134.569434 19.626506 
L 134.699256 19.492093 
L 134.881817 19.475964 
L 135.063026 19.789352 
L 135.275338 19.864635 
L 135.53498 19.87078 
L 135.768929 19.83237 
L 136.167859 19.606536 
L 136.354478 19.273212 
L 136.305795 18.92536 
L 136.005583 18.648969 
L 136.404513 18.635151 
L 136.419388 18.638989 
L 136.459957 18.648969 
L 136.542448 18.087871 
L 136.547857 17.823884 
L 136.459957 17.501627 
L 136.18003 17.154881 
L 136.139461 16.990736 
L 136.346364 16.845013 
L 136.096187 16.706203 
L 135.744588 16.581974 
L 135.405159 16.529064 
L 135.202313 16.600378 
L 135.084663 16.283705 
L 135.291565 16.308239 
L 135.510639 16.325107 
L 135.908217 16.40178 
L 136.637109 16.540566 
L 136.858888 16.705437 
L 136.963015 16.705437 
L 137.150986 16.72921 
L 137.191555 17.044427 
L 137.36465 17.286053 
L 137.612122 17.444854 
L 138.123293 17.576048 
L 138.313968 17.75329 
L 138.626351 18.144663 
L 139.332254 18.81096 
L 139.64058 19.040535 
L 140.111182 19.83237 
L 140.547977 20.215738 
L 141.044273 20.519263 
L 141.609537 20.689874 
L 141.64064 20.699865 
L 142.370885 20.722153 
L 143.068675 20.634539 
L 144.306034 20.317932 
L 145.7814 19.608072 
L 146.068089 19.391481 
L 146.752355 19.053589 
L 146.938973 18.916914 
L 147.052567 18.916914 
L 147.052567 19.058196 
L 146.522463 19.257085 
L 145.596134 19.93992 
L 145.056564 20.088964 
L 144.147815 20.503894 
L 142.71978 20.863575 
L 143.525754 20.863575 
L 143.525754 20.991171 
L 143.287748 21.120314 
L 143.796215 21.119545 
L 143.988243 21.046517 
L 144.093722 20.863575 
L 144.196498 20.863575 
L 144.210021 20.972723 
L 144.264113 20.990402 
L 144.337137 20.976566 
L 144.431799 20.991171 
L 145.454142 20.347132 
L 146.314208 20.084355 
L 146.484599 19.948371 
L 146.587374 19.948371 
L 146.657694 20.049013 
L 146.894347 20.109709 
L 146.838903 20.202676 
L 146.711786 20.218043 
L 146.711786 20.347132 
L 146.886233 20.287197 
L 147.279754 20.088964 
L 147.279754 19.948371 
L 146.82538 19.948371 
L 146.82538 19.83237 
L 147.049862 19.740189 
L 147.331142 19.813934 
L 147.58808 19.992161 
L 147.742243 20.218043 
L 147.782812 20.324079 
L 147.817972 20.510041 
L 147.847723 20.605335 
L 147.617831 20.605335 
L 148.169571 20.802086 
L 148.426509 20.788251 
L 148.650992 20.605335 
L 148.650992 20.464702 
L 148.492772 20.374794 
L 148.412986 20.347132 
L 148.412986 20.218043 
L 149.056684 20.05516 
L 149.216256 19.948371 
L 149.133765 19.806252 
L 149.170278 19.669521 
L 149.25953 19.511294 
L 149.32985 19.30393 
L 149.216256 19.30393 
L 149.109424 19.432186 
L 148.764586 19.691028 
L 148.711846 19.760161 
L 148.656401 19.817006 
L 148.656401 19.875389 
L 148.764586 19.948371 
L 148.542808 19.998307 
L 148.164162 19.992161 
L 147.771994 19.935311 
L 147.504237 19.83237 
L 148.005942 19.783206 
L 148.291279 19.494397 
L 148.500886 19.114251 
L 148.764586 18.789463 
L 148.964727 18.694264 
L 149.375828 18.623635 
L 149.567855 18.531515 
L 149.887 18.235229 
L 150.079027 18.143128 
L 150.363011 18.144663 
L 150.363011 18.273605 
L 149.900523 18.273605 
L 149.900523 18.391042 
L 150.107425 18.540727 
L 150.703792 19.30393 
L 150.882296 19.625738 
L 150.813329 19.729435 
L 150.603721 19.78167 
L 150.363011 19.948371 
L 150.342727 19.901509 
L 150.342727 19.851575 
L 150.322442 19.820079 
L 150.238599 19.83237 
L 150.238599 19.948371 
L 150.517174 20.137368 
L 150.665928 20.380942 
L 150.659166 20.669892 
L 150.476605 20.991171 
L 151.071619 20.755971 
L 151.379945 20.6868 
L 151.600371 20.722153 
L 151.712612 20.699096 
L 151.791046 20.699865 
L 151.941152 20.722153 
L 151.941152 20.605335 
L 151.713964 20.464702 
L 151.600371 20.464702 
L 151.600371 20.605335 
L 151.498948 20.605335 
L 151.498948 20.464702 
L 152.380651 20.128148 
L 152.622714 19.948371 
L 152.744421 19.948371 
L 152.622714 20.088964 
L 152.744421 20.218043 
L 152.867481 20.112014 
L 153.004064 20.100489 
L 153.121714 20.181163 
L 153.18933 20.347132 
L 153.31239 20.347132 
L 153.327265 20.18731 
L 153.321856 19.996771 
L 153.300219 19.966809 
L 153.539577 19.948371 
L 153.381357 19.866171 
L 153.216376 19.889217 
L 153.059508 19.87078 
L 152.867481 19.83237 
L 154.683627 19.691028 
L 154.537578 19.348473 
L 154.752595 19.279355 
L 155.014942 19.259388 
L 155.014942 18.916914 
L 155.194799 19.004446 
L 155.251596 19.058196 
L 155.365189 19.058196 
L 155.58832 18.996768 
L 156.25095 19.335417 
L 156.56198 19.432954 
L 157.774998 19.555842 
L 158.099551 19.691028 
L 158.099551 19.561218 
L 158.476845 19.672593 
L 159.028585 19.63726 
L 162.458032 18.764895 
L 165.660292 17.525411 
L 168.176932 15.940257 
L 168.206386 15.922044 
L 168.610827 16.648451 
L 168.707003 16.959152 
z
" clip-path="url(#p2db62b3cf8)" style="stroke: #000000; stroke-linejoin: miter"/>
   </g>
   <g id="line2d_1">
    <path d="M 169.005362 17.860017 
L 170.991182 23.602674 
L 172.861461 28.455998 
L 173.223838 29.965077 
L 173.359515 31.072899 
L 173.788872 31.664855 
L 173.785437 31.923096 
L 173.598238 32.824763 
L 173.749371 33.222694 
L 174.839938 34.282284 
L 177.093204 40.952119 
L 177.197967 41.989338 
L 178.577062 45.785679 
L 179.004701 47.75691 
L 178.973788 49.081574 
L 179.090573 49.540337 
L 179.613381 50.607968 
L 179.164415 50.95151 
L 178.953456 51.355247 
L 178.806054 51.704385 
L 178.593742 51.787188 
L 178.724916 51.834058 
L 178.716802 51.930928 
L 178.465273 52.102806 
L 178.182641 52.761547 
L 177.718801 53.453341 
L 177.39019 53.737164 
L 177.257664 53.953771 
L 177.118377 54.159453 
L 177.263074 54.424603 
L 176.711333 56.615185 
L 176.427349 56.864213 
L 176.346211 57.442262 
L 176.128489 58.203849 
L 176.121728 59.554567 
L 176.323221 60.025138 
L 176.148774 60.357741 
L 175.625432 60.660582 
L 175.518599 61.01997 
L 175.632193 62.678055 
L 175.188637 63.127351 
L 175.286003 63.845486 
L 175.248138 64.14177 
L 175.405006 64.457749 
L 175.227854 64.667642 
L 175.256252 65.128382 
L 174.586861 66.358574 
L 174.355617 67.251786 
L 173.687578 68.286347 
L 173.363024 68.958222 
L 173.579393 69.552298 
L 173.379252 69.930579 
L 172.671996 70.558044 
L 172.776124 70.702325 
L 172.550289 70.816653 
L 172.427229 71.07135 
L 172.209508 72.145678 
L 171.694279 73.182666 
L 171.656415 73.742409 
L 171.867374 74.542413 
L 171.740258 74.868661 
L 172.241963 75.73943 
L 172.444809 76.000256 
L 172.332568 76.344122 
L 172.319044 76.586837 
L 171.969898 77.813997 
L 172.25693 78.358507 
L 171.980968 79.729611 
L 172.10538 79.87531 
L 171.537412 80.008348 
L 171.041116 80.885972 
L 170.420407 81.16882 
L 170.506955 81.216362 
L 169.937634 82.280768 
L 169.746959 82.128564 
L 169.637423 82.039784 
L 169.522477 82.157894 
L 169.1844 83.261627 
L 168.635364 83.465467 
L 168.436575 83.460708 
L 168.554226 83.882725 
L 169.154649 83.889071 
L 169.154649 84.009663 
L 169.030237 84.009663 
L 169.116785 84.223095 
L 169.257425 84.542092 
L 169.030237 84.409567 
L 169.154649 84.542092 
L 169.154649 84.687322 
L 169.030237 84.687322 
L 168.659706 84.109632 
L 168.032236 83.55272 
L 167.783412 83.465467 
L 166.182282 83.281455 
L 165.783352 83.011811 
L 164.586561 81.542047 
L 164.443217 81.556312 
L 163.282939 80.532661 
L 163.065217 80.518403 
L 162.874542 80.672077 
L 162.64465 80.152482 
L 162.533761 80.272865 
L 162.383655 80.084373 
L 160.946155 78.933194 
L 160.955621 78.446465 
L 160.159113 77.936112 
L 160.150999 77.592781 
L 159.633066 76.982198 
L 159.436982 76.561536 
L 159.391003 76.216845 
L 159.130008 76.000256 
L 159.130008 76.145701 
L 158.955561 76.050054 
L 158.779761 75.813723 
L 158.444389 74.723305 
L 158.325386 74.807832 
L 157.645177 73.627132 
L 155.472022 72.282967 
L 154.910815 71.351317 
L 154.392882 70.811133 
L 154.395586 70.702325 
L 153.159579 69.705178 
L 152.711966 68.940891 
L 152.518586 68.839269 
L 152.622714 68.695117 
L 152.622714 68.839269 
L 152.744421 68.839269 
L 152.630828 68.202083 
L 152.3509 68.154833 
L 152.210261 68.413932 
L 152.518586 68.695117 
L 152.240011 68.598234 
L 152.061507 68.350139 
L 151.96955 67.993406 
L 151.79375 66.887372 
L 151.498948 66.305072 
L 151.663929 65.920371 
L 152.054745 64.589814 
L 151.753181 64.180282 
L 151.543574 63.698538 
L 151.269056 63.534315 
L 151.162224 63.177628 
L 151.186565 61.773478 
L 151.212259 61.607054 
L 151.095961 60.360879 
L 151.217668 60.233793 
L 150.906638 59.76082 
L 150.805215 59.774937 
L 150.671337 59.421258 
L 150.529345 59.365585 
L 150.363011 59.427531 
L 150.189916 59.20171 
L 149.567855 58.782282 
L 149.278462 58.079249 
L 148.929567 57.757205 
L 148.461669 57.223712 
L 148.38594 57.136768 
L 148.310211 56.929215 
L 147.561034 56.140709 
L 146.928155 55.844022 
L 146.360187 55.352511 
L 146.073498 54.307276 
L 145.592077 53.945951 
L 145.226954 53.109368 
L 145.22425 52.066867 
L 144.776637 51.84812 
L 143.966606 51.26231 
L 144.093722 51.26231 
L 143.86924 51.02491 
L 143.750237 50.999923 
L 143.835432 50.918715 
L 143.853012 50.72742 
L 143.750237 50.72742 
L 143.656928 51.167815 
L 143.750237 51.26231 
L 143.525754 51.26231 
L 143.650166 50.556442 
L 143.677212 49.658855 
L 143.48248 48.873994 
L 142.957786 48.38186 
L 143.057856 48.151824 
L 142.998355 47.041788 
L 143.174155 46.468307 
L 143.056504 45.782844 
L 142.419568 44.773001 
L 142.038218 44.378393 
L 141.689323 44.207966 
L 141.946261 43.844594 
L 142.038218 43.783908 
L 142.035513 43.250271 
L 141.821849 42.877745 
L 141.141639 42.20598 
L 141.353951 42.018642 
L 141.178152 41.570971 
L 140.99559 41.250048 
L 141.245767 41.044933 
L 141.20655 40.793232 
L 141.245767 40.63011 
L 141.141639 40.63011 
L 140.90769 41.297445 
L 141.141639 41.9448 
L 140.979363 41.703085 
L 140.849541 41.571748 
L 140.662923 41.563199 
L 140.451964 41.684433 
L 140.176093 41.58185 
L 139.85154 41.790907 
L 139.420154 42.467194 
L 139.401222 42.817868 
L 139.502645 43.102497 
L 139.736594 43.301606 
L 140.111182 43.391834 
L 139.812323 43.636093 
L 137.691908 46.809571 
L 137.594542 47.121278 
L 137.486357 48.237597 
L 137.255113 48.6439 
L 137.620236 49.050288 
L 138.086781 49.925747 
L 139.144284 50.661057 
L 139.908337 51.566909 
L 140.427622 51.882493 
L 141.302564 52.929588 
L 141.472954 53.306364 
L 141.705551 54.41287 
L 142.151812 55.47303 
L 142.090958 55.816626 
L 142.606186 58.315917 
L 142.261348 58.850482 
L 142.082844 58.933579 
L 142.024695 59.104489 
L 142.151812 59.308344 
L 142.038218 60.558584 
L 142.147755 60.767293 
L 142.833374 61.545827 
L 142.957786 62.336436 
L 143.401342 62.803722 
L 144.093722 63.798336 
L 144.680623 63.903639 
L 145.052507 64.313902 
L 145.281047 64.898785 
L 146.082964 68.165858 
L 146.260116 68.233583 
L 147.052567 68.695117 
L 147.655695 69.350577 
L 147.81121 69.697298 
L 148.364303 70.016489 
L 148.477897 70.409832 
L 149.085082 71.60529 
L 148.979602 71.616333 
L 149.716609 72.240359 
L 150.034401 72.657005 
L 150.011412 73.073734 
L 150.252122 73.400545 
L 150.430626 73.878222 
L 150.805215 74.421564 
L 151.593609 75.291358 
L 151.953322 75.810561 
L 152.281933 76.000256 
L 152.404993 76.621626 
L 152.967552 76.825626 
L 153.519292 77.525545 
L 153.880358 77.738334 
L 153.84655 78.295325 
L 154.168399 78.464666 
L 154.344199 78.41402 
L 154.487543 78.702083 
L 154.852666 78.869874 
L 155.601843 79.078047 
L 156.778349 80.196833 
L 157.357136 81.216362 
L 157.473434 81.415254 
L 157.953502 82.816736 
L 158.099551 83.465467 
L 157.985958 83.465467 
L 157.75877 83.465467 
L 157.568095 83.033222 
L 156.38618 82.400477 
L 156.273939 82.400477 
L 156.161697 82.985641 
L 156.273939 83.198972 
L 156.764826 83.780386 
L 156.947387 84.232616 
L 157.531583 84.076309 
L 157.442331 84.623039 
L 157.247599 85.156412 
L 157.408523 85.341377 
L 157.86425 85.685152 
L 158.099551 86.286293 
L 157.925104 86.133014 
L 157.408523 85.608135 
L 157.466672 85.856662 
L 157.531583 86.032157 
L 157.408523 86.032157 
L 157.304396 85.65101 
L 157.010945 85.68277 
L 156.689097 85.952746 
L 156.50924 86.286293 
L 156.897352 86.497565 
L 157.173222 86.88045 
L 157.645177 87.752914 
L 157.516708 88.220278 
L 157.531583 88.431738 
L 157.807453 88.644808 
L 158.779761 89.231652 
L 159.015062 90.196549 
L 159.413992 90.706611 
L 159.754773 92.24308 
L 160.305162 92.79424 
L 160.946155 93.25152 
L 161.976611 93.851543 
L 162.22814 94.392739 
L 162.155116 95.201191 
L 161.965793 95.403749 
L 162.165934 96.574795 
L 162.339029 96.844509 
L 162.936748 97.358493 
L 163.361372 98.116914 
L 163.112548 98.081781 
L 163.115253 98.396396 
L 163.564218 99.153569 
L 164.286349 100.478433 
L 164.728553 100.762205 
L 164.813749 100.975657 
L 164.938161 101.911245 
L 164.813749 102.128805 
L 164.540583 102.144003 
L 164.207916 101.894449 
L 163.978024 102.523984 
L 164.079447 103.987706 
L 163.750836 105.183226 
L 163.904999 105.755984 
L 164.137596 105.962692 
L 164.938161 106.304844 
L 165.111256 106.580525 
L 165.276237 107.189705 
L 165.815807 107.946595 
L 166.05246 108.487154 
L 166.866548 110.746995 
L 167.828038 112.433676 
L 169.231731 115.899198 
L 169.880838 116.921335 
L 170.506955 118.623729 
L 171.940399 120.833666 
L 172.102676 121.394938 
L 173.216975 123.184468 
L 173.960743 124.1088 
L 175.405006 127.199199 
L 175.632193 128.140431 
L 176.03518 128.981702 
L 176.209628 129.996465 
L 176.509839 130.546912 
L 177.330689 131.785058 
L 177.590332 132.635682 
L 178.08798 133.466336 
L 178.286769 134.318351 
L 180.484266 138.471537 
L 180.549176 139.112415 
L 180.726661 139.653848 
L 181.3254 140.435299 
L 181.666181 142.44533 
L 182.550588 143.25158 
L 182.837277 143.825304 
L 183.315993 145.658832 
L 184.165241 147.366531 
L 183.895868 147.983993 
L 183.897728 148.53437 
L 184.581751 148.825818 
L 185.408198 150.540651 
L 187.65419 152.427016 
L 188.007142 152.894976 
L 188.618469 154.839315 
L 189.068655 155.381029 
L 189.701621 156.387578 
L 189.978803 156.340689 
L 189.700598 155.782881 
L 189.868981 155.751758 
L 190.206134 156.138859 
L 190.669249 156.355419 
L 191.272667 157.052204 
L 191.511182 157.609882 
L 191.553307 158.19881 
L 192.057972 158.539801 
L 192.576741 158.431419 
L 193.418053 158.710985 
L 193.768545 158.912918 
L 194.020725 159.20783 
L 194.370988 160.10834 
L 194.665277 160.543556 
L 194.553003 160.729674 
L 193.964373 159.937031 
L 193.726023 159.921227 
L 192.87038 160.369928 
L 191.917912 160.013106 
L 191.441518 159.997611 
L 191.021081 159.68744 
L 190.644137 159.271788 
L 190.0356 159.037639 
L 189.885955 159.160725 
L 189.658307 159.632057 
L 189.536164 160.231622 
L 189.648944 161.193774 
L 189.384892 162.645573 
L 189.525408 163.157918 
L 189.832783 163.234334 
L 189.972812 163.48253 
L 189.693467 169.010371 
L 190.659013 171.128739 
L 190.64008 172.084474 
L 191.045154 174.464274 
L 192.050328 176.521669 
L 192.373888 177.274564 
L 192.713165 179.445313 
L 193.049592 180.144612 
L 193.743622 181.121018 
L 194.185826 181.39586 
L 193.516434 180.149796 
L 193.840988 180.161346 
L 194.0533 180.343684 
L 194.310238 180.993098 
L 194.538777 182.151193 
L 194.948526 182.594581 
L 195.281193 183.133015 
L 195.579417 183.576088 
L 196.21779 184.130232 
L 197.378619 184.763806 
L 197.853278 184.981151 
L 198.778255 185.054704 
L 200.117038 185.348938 
L 201.399024 185.83664 
L 201.869626 186.166506 
L 202.676952 187.042199 
L 202.940652 187.533498 
L 203.037533 188.472496 
L 203.320813 189.090482 
L 204.336231 190.033477 
L 204.838607 190.285256 
L 204.785446 189.966076 
L 204.873579 189.965947 
L 205.226532 190.424412 
L 205.138856 191.00319 
L 205.42134 191.841095 
L 207.095505 192.778537 
L 207.465515 193.058134 
L 208.470253 194.017779 
L 210.289081 195.851107 
L 210.5352 195.823732 
L 210.689363 195.49857 
L 210.823241 195.538384 
L 211.334413 196.031125 
L 211.709001 196.886566 
L 211.959178 197.151297 
L 212.991438 197.757516 
L 213.042375 198.750147 
L 212.796255 199.194425 
L 122.263454 199.201825 
L 123.178843 196.083597 
L 123.199452 195.573694 
L 123.051753 195.120756 
L 122.380239 194.535199 
L 122.060797 194.478335 
L 121.741355 194.543624 
L 121.430501 194.73318 
L 121.001144 195.270323 
L 119.37474 199.071042 
L 119.154909 199.221865 
L 15.012646 199.201825 
L 15.012646 56.539426 
L 14.897578 55.431919 
L 14.603898 54.398532 
L 13.061647 50.361522 
L 13.023864 49.620112 
L 13.174998 47.76483 
L 12.934558 46.976889 
L 12.082713 45.534964 
L 11.971081 44.738526 
L 12.269913 43.361965 
L 12.194346 42.932298 
L 10.763729 39.352477 
L 10.145455 38.097955 
L 10.150607 37.362179 
L 10.416808 36.692642 
L 11.99169 33.971619 
L 12.494896 33.463458 
L 13.789837 31.351674 
L 14.001081 30.331989 
L 14.504287 29.024579 
L 14.885556 27.222379 
L 15.134583 26.572093 
L 15.239346 25.91812 
L 15.012646 25.154789 
L 14.287891 23.633957 
L 14.071495 22.669294 
L 13.374219 21.113411 
L 12.989515 19.095561 
L 12.974059 17.549532 
L 12.814338 15.274799 
L 13.018712 14.677377 
L 15.718509 12.531601 
L 16.328196 10.934872 
L 16.793619 10.29328 
L 17.831655 9.486755 
L 17.807314 9.629592 
L 18.196778 11.456917 
L 18.496989 11.83469 
L 18.856703 11.931058 
L 19.701894 11.981539 
L 20.344239 12.303576 
L 20.687724 12.305871 
L 21.607292 12.243907 
L 22.002165 12.367073 
L 22.716183 12.094742 
L 23.198956 12.041199 
L 25.900862 11.285645 
L 29.017927 10.266765 
L 29.761695 10.154441 
L 31.389871 10.235435 
L 37.959371 12.014428 
L 43.029165 12.784829 
L 43.292865 12.873595 
L 44.4572 12.849873 
L 46.327438 13.614508 
L 47.090139 13.620632 
L 47.985365 13.373372 
L 48.82109 13.847254 
L 49.007708 13.8886 
L 49.462083 14.145121 
L 50.508767 14.487461 
L 52.047691 14.719554 
L 52.318152 14.916436 
L 52.648115 14.659805 
L 52.845551 14.683551 
L 54.00042 14.698872 
L 54.24113 14.973129 
L 54.24654 15.173869 
L 54.765825 16.220837 
L 55.098492 17.044427 
L 55.974786 17.638196 
L 56.502185 17.813141 
L 57.954562 18.133151 
L 58.325093 18.206063 
L 58.69292 18.015731 
L 59.53135 18.448612 
L 60.514476 18.27821 
L 62.730905 17.315971 
L 62.904 17.44332 
L 63.352965 18.916914 
L 63.466559 19.691028 
L 63.961503 19.981406 
L 64.762068 20.093574 
L 67.938634 20.137368 
L 68.563399 20.520032 
L 69.435636 20.505431 
L 70.466093 20.722153 
L 70.802817 20.640687 
L 71.904946 20.218043 
L 72.524302 20.408605 
L 73.12743 20.872798 
L 73.94287 20.905081 
L 78.769249 22.775372 
L 78.949106 23.455669 
L 79.372377 23.630401 
L 82.25955 25.12361 
L 85.430706 24.915613 
L 90.155662 22.670733 
L 91.037365 22.023797 
L 91.825759 21.624672 
L 92.073231 21.298668 
L 94.520904 19.555842 
L 94.779195 19.058196 
L 95.241683 19.164165 
L 95.724456 18.941484 
L 96.492566 18.273605 
L 96.280254 18.073289 
L 96.142319 18.144663 
L 96.365449 17.820047 
L 96.495271 17.816211 
L 96.718401 18.015731 
L 97.682595 17.131869 
L 98.130208 16.88336 
L 98.596754 16.33124 
L 98.957819 16.184037 
L 99.225576 15.944857 
L 99.102516 15.898864 
L 99.111982 15.804583 
L 99.566357 15.560088 
L 99.517674 16.09894 
L 100.046425 16.479989 
L 100.669838 16.664793 
L 101.278375 16.72921 
L 101.141793 16.812802 
L 100.828058 17.225452 
L 100.879445 17.226219 
L 100.937594 17.243862 
L 100.738806 17.373507 
L 100.798307 17.52004 
L 101.155316 17.759428 
L 101.846344 17.360466 
L 101.761149 17.576048 
L 101.99645 17.71032 
L 102.138442 17.569143 
L 102.640147 17.102721 
L 102.686126 17.193234 
L 102.753741 17.243862 
L 102.79431 17.134937 
L 102.980928 16.845013 
L 103.006622 17.200905 
L 103.208116 17.360466 
L 103.444769 16.72921 
L 103.189183 16.601145 
L 102.41296 16.845013 
L 102.640147 16.72921 
L 102.640147 16.600378 
L 102.372391 16.680897 
L 101.391969 16.72921 
L 101.391969 16.600378 
L 102.00862 16.446252 
L 102.592816 16.126539 
L 103.608398 15.238233 
L 103.968111 14.665167 
L 104.199356 13.906211 
L 104.265619 13.118491 
L 104.124979 12.464235 
L 104.238572 12.464235 
L 104.468464 13.176659 
L 104.698356 13.429251 
L 105.033728 13.492022 
L 104.568535 13.14834 
L 104.321063 12.593537 
L 104.427895 12.262267 
L 105.993865 13.127675 
L 106.594289 13.193497 
L 107.313715 13.106246 
L 109.651852 12.498663 
L 114.593176 10.796388 
L 114.593176 10.924805 
L 114.341647 10.959204 
L 112.806781 11.518854 
L 109.611282 13.185078 
L 109.477404 13.234828 
L 108.557836 13.759205 
L 107.68019 13.890132 
L 107.427309 14.402445 
L 107.887093 14.494355 
L 108.106166 14.402445 
L 108.357695 14.545673 
L 109.274558 14.386361 
L 109.477404 14.204088 
L 109.62751 13.901617 
L 109.960177 13.989673 
L 110.613341 14.53112 
L 110.718821 14.204088 
L 111.282732 13.614508 
L 111.678958 13.433078 
L 112.482227 13.740064 
L 112.928488 13.658145 
L 113.128629 13.759205 
L 113.006922 13.799784 
L 113.015036 13.8886 
L 113.239518 13.948324 
L 113.804782 13.685707 
L 114.025208 13.492022 
L 113.918376 13.45834 
L 114.025208 13.234828 
L 114.860933 13.493553 
L 115.161145 12.965427 
L 115.063779 12.809316 
L 115.121928 12.685354 
L 115.437015 12.350242 
L 115.414026 12.166646 
L 115.607405 12.056497 
L 116.368753 12.158996 
L 116.690602 12.406855 
L 116.714944 12.567522 
L 117.007042 12.556046 
L 117.174728 12.342592 
L 116.873163 12.195714 
L 116.979996 12.125339 
L 117.19366 12.106981 
L 116.873163 11.679442 
L 116.203772 11.197722 
L 115.412673 10.86671 
L 114.662144 10.84225 
L 114.820364 10.755113 
L 115.232817 10.605308 
L 116.645976 10.398965 
L 117.165261 10.454751 
L 118.698776 10.924805 
L 121.318192 12.078679 
L 121.999754 12.592771 
L 123.729353 13.373372 
L 124.525861 13.484367 
L 124.954542 13.470588 
L 127.461716 12.772585 
L 128.950605 11.950179 
L 129.556437 11.757447 
L 130.19743 11.770448 
L 130.727534 12.032785 
L 131.049383 12.757281 
L 131.574077 13.446857 
L 131.794503 13.984313 
L 132.058203 14.30671 
L 132.766811 14.852083 
L 133.376701 15.032889 
L 133.891929 15.560088 
L 134.131287 15.667386 
L 134.960251 16.283705 
L 134.451784 16.177137 
L 132.808732 15.173869 
L 133.149513 15.3026 
L 133.031863 15.082691 
L 132.374642 14.775476 
L 131.560554 14.402445 
L 131.406391 13.924588 
L 131.116998 13.620632 
L 131.536213 13.596134 
L 130.09195 11.869871 
L 130.086541 11.950179 
L 129.699782 11.890522 
L 129.632167 12.078679 
L 129.404979 11.950179 
L 129.400922 12.010604 
L 129.404979 12.195714 
L 129.345478 12.156702 
L 129.166973 12.078679 
L 129.142632 12.331117 
L 129.064198 12.464235 
L 129.404979 12.464235 
L 129.313022 12.673112 
L 129.567256 13.116195 
L 129.518573 13.374137 
L 129.632167 13.374137 
L 129.632167 13.492022 
L 129.518573 13.492022 
L 129.555085 13.575464 
L 129.632167 13.759205 
L 129.518573 13.759205 
L 129.352239 13.355766 
L 128.946548 13.075632 
L 128.826192 13.201151 
L 128.723417 13.492022 
L 128.826192 13.506567 
L 129.068255 13.464464 
L 129.291386 13.620632 
L 129.166973 13.620632 
L 129.231884 13.871755 
L 129.457719 13.995799 
L 129.632167 14.004987 
L 129.345478 14.164266 
L 128.826192 14.145121 
L 129.064198 14.402445 
L 128.784271 14.903412 
L 128.934377 15.025227 
L 129.291386 15.032889 
L 129.291386 15.173869 
L 128.73694 15.048212 
L 128.49623 15.173869 
L 128.274452 15.069665 
L 128.158153 15.372333 
L 128.366409 15.601474 
L 128.158153 15.804583 
L 128.252815 15.983951 
L 127.806554 16.213937 
L 127.771394 16.479989 
L 127.875522 16.645621 
L 128.058083 16.6924 
L 128.260929 16.600378 
L 128.1852 16.540566 
L 128.158153 16.471555 
L 128.823488 16.852682 
L 128.888398 17.102721 
L 129.334659 17.276848 
L 129.74576 17.630523 
L 129.959425 17.196303 
L 130.086541 17.102721 
L 130.017574 17.277615 
L 130.016221 17.498558 
L 130.086541 17.630523 
L 129.859354 17.630523 
L 129.859354 17.759428 
L 130.086541 17.759428 
L 129.985118 17.830023 
L 129.972948 18.015731 
L 130.424618 17.875297 
L 130.342127 18.142361 
L 130.421913 18.321193 
L 130.559848 18.310447 
L 130.651805 18.015731 
L 130.845185 17.989639 
L 131.421267 17.504696 
L 131.79856 17.630523 
L 131.560554 17.630523 
L 131.560554 17.759428 
L 131.843186 17.797027 
L 132.023043 17.630523 
L 132.261049 17.875297 
L 132.163683 18.02187 
L 132.136636 18.273605 
L 132.374642 18.144663 
L 132.255639 18.479316 
L 132.136636 18.648969 
L 132.256992 19.01366 
L 131.912154 19.432954 
L 132.228593 19.402233 
L 132.477417 19.174916 
L 132.550442 19.528959 
L 132.808732 19.83237 
L 132.517987 19.948371 
L 132.374642 20.218043 
L 132.591011 20.347132 
L 132.899337 20.220348 
L 133.149513 20.347132 
L 133.149513 20.464702 
L 133.03592 20.464702 
L 133.03592 20.605335 
L 133.413213 20.843591 
L 133.634991 20.852046 
L 133.839189 20.605335 
L 133.595774 20.599187 
L 133.326665 20.288733 
L 133.272573 20.088964 
L 134.075843 20.347132 
L 133.943317 20.088964 
L 134.293564 20.088964 
L 134.208369 19.817006 
L 134.407158 19.691028 
L 134.416624 19.805484 
L 134.634345 19.83237 
L 134.569434 19.626506 
L 134.699256 19.492093 
L 134.881817 19.475964 
L 135.063026 19.789352 
L 135.53498 19.87078 
L 135.768929 19.83237 
L 136.167859 19.606536 
L 136.354478 19.273212 
L 136.305795 18.92536 
L 136.005583 18.648969 
L 136.459957 18.648969 
L 136.547857 17.823884 
L 136.459957 17.501627 
L 136.139461 16.990736 
L 136.346364 16.845013 
L 135.744588 16.581974 
L 135.202313 16.600378 
L 135.084663 16.283705 
L 136.637109 16.540566 
L 136.963015 16.705437 
L 137.150986 16.72921 
L 137.191555 17.044427 
L 137.612122 17.444854 
L 138.123293 17.576048 
L 139.64058 19.040535 
L 140.111182 19.83237 
L 141.044273 20.519263 
L 141.64064 20.699865 
L 143.068675 20.634539 
L 144.306034 20.317932 
L 146.752355 19.053589 
L 147.052567 18.916914 
L 147.052567 19.058196 
L 146.522463 19.257085 
L 145.596134 19.93992 
L 145.056564 20.088964 
L 144.147815 20.503894 
L 142.71978 20.863575 
L 143.525754 20.863575 
L 143.525754 20.991171 
L 143.287748 21.120314 
L 143.988243 21.046517 
L 144.196498 20.863575 
L 144.264113 20.990402 
L 144.431799 20.991171 
L 145.454142 20.347132 
L 146.657694 20.049013 
L 146.894347 20.109709 
L 146.838903 20.202676 
L 146.711786 20.218043 
L 146.711786 20.347132 
L 147.279754 20.088964 
L 147.279754 19.948371 
L 146.82538 19.948371 
L 146.82538 19.83237 
L 147.049862 19.740189 
L 147.58808 19.992161 
L 147.817972 20.510041 
L 147.847723 20.605335 
L 147.617831 20.605335 
L 148.426509 20.788251 
L 148.650992 20.464702 
L 148.412986 20.218043 
L 149.216256 19.948371 
L 149.170278 19.669521 
L 149.32985 19.30393 
L 149.216256 19.30393 
L 148.542808 19.998307 
L 147.771994 19.935311 
L 147.504237 19.83237 
L 148.005942 19.783206 
L 148.291279 19.494397 
L 148.764586 18.789463 
L 148.964727 18.694264 
L 149.567855 18.531515 
L 150.079027 18.143128 
L 150.363011 18.144663 
L 150.363011 18.273605 
L 149.900523 18.273605 
L 149.900523 18.391042 
L 150.107425 18.540727 
L 150.882296 19.625738 
L 150.813329 19.729435 
L 150.238599 19.948371 
L 150.517174 20.137368 
L 150.665928 20.380942 
L 150.659166 20.669892 
L 150.476605 20.991171 
L 151.379945 20.6868 
L 151.941152 20.722153 
L 151.941152 20.605335 
L 151.600371 20.464702 
L 151.600371 20.605335 
L 151.498948 20.464702 
L 152.744421 19.948371 
L 152.622714 20.088964 
L 152.744421 20.218043 
L 153.004064 20.100489 
L 153.31239 20.347132 
L 153.300219 19.966809 
L 153.539577 19.948371 
L 153.216376 19.889217 
L 152.867481 19.83237 
L 154.683627 19.691028 
L 154.537578 19.348473 
L 155.014942 19.259388 
L 155.014942 18.916914 
L 155.365189 19.058196 
L 155.58832 18.996768 
L 156.56198 19.432954 
L 159.028585 19.63726 
L 162.458032 18.764895 
L 165.660292 17.525411 
L 168.206386 15.922044 
L 168.707003 16.959152 
L 169.005362 17.860017 
L 169.005362 17.860017 
" clip-path="url(#p2db62b3cf8)" style="fill: none; stroke: #000000; stroke-width: 0.5; stroke-linecap: square"/>
   </g>
  </g>
 </g>
 <defs>
  <clipPath id="p2db62b3cf8">
   <rect x="0" y="0" width="223.2" height="208.708621"/>
  </clipPath>
 </defs>
</svg>
