<?xml version="1.0" encoding="utf-8" standalone="no"?>
<!DOCTYPE svg PUBLIC "-//W3C//DTD SVG 1.1//EN"
  "http://www.w3.org/Graphics/SVG/1.1/DTD/svg11.dtd">
<svg xmlns:xlink="http://www.w3.org/1999/xlink" width="223.2pt" height="153.054971pt" viewBox="0 0 223.2 153.054971" xmlns="http://www.w3.org/2000/svg" version="1.1">
 <metadata>
  <rdf:RDF xmlns:dc="http://purl.org/dc/elements/1.1/" xmlns:cc="http://creativecommons.org/ns#" xmlns:rdf="http://www.w3.org/1999/02/22-rdf-syntax-ns#">
   <cc:Work>
    <dc:type rdf:resource="http://purl.org/dc/dcmitype/StillImage"/>
    <dc:date>2026-04-26T19:22:05.281308</dc:date>
    <dc:format>image/svg+xml</dc:format>
    <dc:creator>
     <cc:Agent>
      <dc:title>Matplotlib v3.10.9, https://matplotlib.org/</dc:title>
     </cc:Agent>
    </dc:creator>
   </cc:Work>
  </rdf:RDF>
 </metadata>
 <defs>
  <style type="text/css">*{stroke-linejoin: round; stroke-linecap: butt}</style>
 </defs>
 <g id="figure_1">
  <g id="patch_1">
   <path d="M 0 153.054971 
L 223.2 153.054971 
L 223.2 0 
L 0 0 
z
" style="fill: #ffffff"/>
  </g>
  <g id="axes_1">
   <g id="patch_2">
    <path d="M 11.531672 84.069625 
L 10.184593 77.05464 
L 10.145455 75.353069 
L 10.354195 73.595734 
L 10.802118 71.886009 
L 11.469654 70.324448 
L 12.476393 69.031133 
L 14.785588 67.49209 
L 15.81842 66.455871 
L 16.599024 64.933739 
L 17.155666 63.36143 
L 17.871038 61.845066 
L 19.11696 60.468409 
L 27.203491 53.390825 
L 28.995182 51.154885 
L 29.893203 50.42078 
L 33.617921 48.648409 
L 34.859494 48.54235 
L 36.385911 49.039157 
L 38.575515 51.16605 
L 39.810564 51.791312 
L 41.041265 50.965076 
L 41.073881 50.364955 
L 41.010442 50.181945 
L 40.467228 48.614917 
L 40.384602 47.785993 
L 40.623784 46.904071 
L 44.220214 38.968153 
L 45.90536 36.669324 
L 48.027558 34.635705 
L 50.241081 33.372099 
L 59.277817 30.672157 
L 59.819239 30.002795 
L 59.806192 28.318313 
L 59.536569 27.877689 
L 58.468947 27.213979 
L 58.101476 26.759431 
L 57.94492 26.056711 
L 57.792713 24.408744 
L 57.683994 23.904058 
L 57.194758 22.744157 
L 56.951227 22.3343 
L 56.464165 21.759955 
L 55.883605 21.436544 
L 54.124529 21.146592 
L 53.604851 19.618825 
L 54.102785 18.712803 
L 54.946446 17.960134 
L 55.47917 16.906434 
L 55.235639 15.649302 
L 54.620288 14.581764 
L 54.259341 13.363769 
L 54.807285 11.655332 
L 56.001022 10.554526 
L 57.238246 10.682719 
L 58.15801 11.844843 
L 58.401541 13.843156 
L 59.545266 12.814715 
L 61.626151 9.68785 
L 62.205573 9.380872 
L 63.119952 8.896442 
L 64.455024 9.113798 
L 65.405229 9.73801 
L 66.355434 10.175526 
L 67.679634 9.832758 
L 69.593091 7.372219 
L 70.449798 6.957044 
L 70.560692 9.041346 
L 70.995568 8.213734 
L 71.086892 7.968522 
L 73.50966 10.178086 
L 73.52655 10.181099 
L 74.823744 10.440173 
L 78.07536 11.089595 
L 80.686794 12.633558 
L 84.979026 13.776264 
L 87.114271 15.660451 
L 90.999894 17.104348 
L 91.797892 16.195631 
L 93.009024 13.280156 
L 93.676559 12.424532 
L 94.420198 12.16813 
L 94.913783 12.285183 
L 95.326916 12.764549 
L 95.809629 13.57559 
L 96.229285 14.565041 
L 96.411933 15.638152 
L 96.338004 16.736397 
L 96.007498 17.798452 
L 96.966401 18.8271 
L 99.836587 19.245261 
L 101.18253 20.084394 
L 101.719603 21.419815 
L 102.054458 24.726617 
L 102.4328 25.694205 
L 104.568045 27.715943 
L 105.3443 28.884442 
L 106.098811 30.476924 
L 106.41627 31.829638 
L 106.463692 32.33352 
L 106.546733 33.215896 
L 106.820706 34.362337 
L 107.56217 35.031816 
L 108.377564 34.805865 
L 109.375606 34.077814 
L 110.551947 33.444622 
L 111.867449 33.478095 
L 113.950508 35.137818 
L 115.711759 37.910777 
L 116.975075 41.138842 
L 117.527369 44.185933 
L 119.005949 43.912461 
L 122.695877 44.258488 
L 123.698268 43.770146 
L 124.565847 43.100435 
L 125.300788 43.00556 
L 125.903093 44.236163 
L 125.833512 46.06404 
L 125.326881 47.841812 
L 125.279045 49.362925 
L 126.598895 50.44311 
L 128.403633 50.744565 
L 128.795022 50.923207 
L 129.401675 51.573585 
L 129.819157 52.299349 
L 130.008328 53.201 
L 129.977662 53.75841 
L 129.967015 53.951934 
L 130.482344 53.703481 
L 132.626285 53.290329 
L 134.770227 53.468989 
L 141.145519 56.015025 
L 144.852842 56.3668 
L 145.668236 56.793962 
L 146.420572 57.718108 
L 146.355341 58.058739 
L 146.329248 58.321195 
L 146.280468 58.374553 
L 146.211832 58.449632 
L 146.188133 58.445693 
L 145.842186 58.388205 
L 145.934364 58.641211 
L 146.364038 59.820596 
L 146.303156 61.079937 
L 146.016137 62.395191 
L 145.842186 63.989783 
L 146.07702 65.017524 
L 146.988087 67.855195 
L 147.04462 69.586999 
L 146.303156 71.114994 
L 148.547119 70.97532 
L 150.121373 69.776946 
L 151.654313 68.966888 
L 155.044176 68.025577 
L 155.850872 68.081441 
L 157.192467 68.746222 
L 157.807817 68.824433 
L 157.907839 68.511591 
L 157.907839 67.871954 
L 157.968722 67.201609 
L 158.231822 66.816169 
L 158.779766 66.771481 
L 159.451651 66.916718 
L 160.121361 67.168093 
L 160.660608 67.452987 
L 161.245517 66.098372 
L 162.156584 65.679433 
L 163.176369 65.584475 
L 164.091785 65.193473 
L 164.757146 64.397523 
L 165.03957 63.772595 
L 165.376845 63.026314 
L 165.929139 62.26115 
L 166.935878 61.722197 
L 167.681691 61.872991 
L 168.220938 61.716612 
L 168.623199 60.239438 
L 168.473167 59.94904 
L 167.72083 59.080657 
L 167.54688 58.695339 
L 167.464253 56.556649 
L 167.503392 56.193704 
L 168.329658 55.802846 
L 169.592974 55.970356 
L 169.795264 56.026644 
L 171.830414 56.592944 
L 173.172009 56.632031 
L 177.559914 55.975939 
L 179.777785 56.132283 
L 180.745386 57.13458 
L 181.978261 61.146955 
L 183.19809 62.976047 
L 184.748425 64.743828 
L 186.122635 66.793825 
L 186.822787 69.475266 
L 190.658398 67.078715 
L 191.917366 66.654174 
L 192.101391 66.700828 
L 192.578379 66.821755 
L 193.819952 67.83285 
L 194.396163 68.042336 
L 194.781029 67.799333 
L 195.863872 66.754723 
L 196.518361 66.472629 
L 197.359847 66.536868 
L 199.005856 66.966993 
L 199.816901 66.89996 
L 200.632294 66.176574 
L 201.328097 65.070588 
L 202.173932 64.19086 
L 203.437249 64.123834 
L 204.230898 64.905811 
L 205.050641 67.749056 
L 205.733397 69.031133 
L 206.170448 69.363534 
L 207.34679 69.933374 
L 207.859944 70.28534 
L 209.190174 71.717158 
L 211.57379 74.283008 
L 213.054545 75.028972 
L 212.295686 76.601995 
L 210.597492 81.506078 
L 210.173488 83.272334 
L 210.719258 85.063865 
L 210.303951 86.226609 
L 209.46029 87.230077 
L 208.727523 88.557844 
L 208.423109 90.467152 
L 208.492689 94.481906 
L 208.301344 96.453163 
L 206.283516 102.566396 
L 205.789931 105.559209 
L 206.670556 108.032032 
L 207.538135 108.423677 
L 209.32113 107.679557 
L 210.545307 108.278208 
L 211.193273 109.223769 
L 211.625976 110.521872 
L 211.776008 111.962729 
L 211.578139 113.3533 
L 210.125651 115.4267 
L 203.498011 119.230986 
L 203.439799 119.204543 
L 202.778924 118.719748 
L 202.361168 117.82951 
L 201.720838 115.507099 
L 199.351274 120.663389 
L 198.734913 123.704745 
L 200.282663 125.05363 
L 201.272264 125.525315 
L 204.066432 128.889067 
L 205.655273 130.238213 
L 205.792242 130.873128 
L 205.792242 132.182689 
L 205.103973 134.497724 
L 203.429526 136.151442 
L 197.173466 140.107545 
L 195.478475 141.810126 
L 195.180567 143.543693 
L 197.122103 145.237666 
L 194.1533 146.097927 
L 182.555448 145.096497 
L 179.833188 144.430369 
L 179.257919 144.430369 
L 177.850562 145.13179 
L 170.584355 145.903814 
L 162.790818 144.408312 
L 160.767101 145.237666 
L 159.68847 144.77446 
L 158.466021 144.430369 
L 158.466021 143.755434 
L 160.366466 143.596628 
L 160.500011 141.929223 
L 159.483016 139.864958 
L 157.948963 138.506511 
L 158.281113 139.348917 
L 159.284411 141.108791 
L 159.674773 142.207117 
L 156.634061 142.079197 
L 155.144523 142.273282 
L 153.874135 142.948181 
L 154.685676 143.3893 
L 155.343128 143.265785 
L 156.134124 142.979059 
L 157.32233 142.948181 
L 157.32233 143.755434 
L 155.363673 144.77446 
L 153.202987 144.695054 
L 151.518268 143.384888 
L 150.997785 140.725049 
L 151.826448 141.192598 
L 152.148325 141.466073 
L 153.298865 139.984046 
L 153.298865 139.313632 
L 151.86069 138.49328 
L 150.278698 135.697211 
L 149.220612 134.868148 
L 149.504823 136.438097 
L 149.980791 137.721465 
L 150.227335 138.863758 
L 149.847246 139.984046 
L 148.624797 139.110747 
L 145.067027 137.986085 
L 143.52955 136.958493 
L 142.139314 133.836265 
L 141.492136 133.329158 
L 140.505959 133.227737 
L 137.732336 132.522215 
L 136.492766 132.522215 
L 133.082238 133.329158 
L 128.325988 133.487903 
L 127.288448 134.069979 
L 127.853445 134.638837 
L 128.469806 135.053362 
L 129.086166 135.181249 
L 129.637467 134.868148 
L 132.013879 135.569322 
L 138.769876 134.652067 
L 139.523206 134.802001 
L 140.608685 135.542862 
L 141.197652 136.239643 
L 142.245465 137.844954 
L 142.95428 138.506511 
L 142.95428 139.313632 
L 141.379136 138.978431 
L 140.23202 138.704981 
L 137.732336 137.765568 
L 137.732336 138.506511 
L 144.628726 140.288384 
L 148.231011 141.761606 
L 149.847246 143.755434 
L 149.258279 145.052383 
L 147.75162 144.734757 
L 146.073749 143.627507 
L 144.967724 142.577646 
L 143.724731 141.783661 
L 121.994595 136.707114 
L 119.38876 135.185658 
L 98.504409 122.973025 
L 88.515943 115.277954 
L 82.797486 112.109781 
L 76.620183 110.268097 
L 73.747258 110.268097 
L 71.559178 109.620453 
L 59.603657 109.743168 
L 54.493556 108.144132 
L 52.089917 107.555101 
L 46.753448 105.352013 
L 43.945933 106.081232 
L 35.958005 106.204526 
L 34.674803 105.091358 
L 33.826521 101.113517 
L 33.509184 98.630556 
L 32.456045 97.543137 
L 30.722432 96.201223 
L 23.901291 91.349748 
L 18.022943 87.988765 
z
" clip-path="url(#pea4489bb5c)" style="stroke: #000000; stroke-linejoin: miter"/>
   </g>
   <g id="line2d_1">
    <path d="M 11.531672 84.069625 
L 10.184593 77.05464 
L 10.145455 75.353069 
L 10.354195 73.595734 
L 10.802118 71.886009 
L 11.469654 70.324448 
L 12.476393 69.031133 
L 14.785588 67.49209 
L 15.81842 66.455871 
L 16.599024 64.933739 
L 17.155666 63.36143 
L 17.871038 61.845066 
L 19.11696 60.468409 
L 27.203491 53.390825 
L 28.995182 51.154885 
L 29.893203 50.42078 
L 33.617921 48.648409 
L 34.859494 48.54235 
L 36.385911 49.039157 
L 38.575515 51.16605 
L 39.810564 51.791312 
L 41.041265 50.965076 
L 41.010442 50.181945 
L 40.467228 48.614917 
L 40.384602 47.785993 
L 40.623784 46.904071 
L 44.220214 38.968153 
L 45.90536 36.669324 
L 48.027558 34.635705 
L 50.241081 33.372099 
L 59.277817 30.672157 
L 59.819239 30.002795 
L 59.806192 28.318313 
L 59.536569 27.877689 
L 58.468947 27.213979 
L 58.101476 26.759431 
L 57.94492 26.056711 
L 57.683994 23.904058 
L 56.951227 22.3343 
L 56.464165 21.759955 
L 55.883605 21.436544 
L 54.124529 21.146592 
L 53.604851 19.618825 
L 54.102785 18.712803 
L 54.946446 17.960134 
L 55.47917 16.906434 
L 55.235639 15.649302 
L 54.620288 14.581764 
L 54.259341 13.363769 
L 54.807285 11.655332 
L 56.001022 10.554526 
L 57.238246 10.682719 
L 58.15801 11.844843 
L 58.401541 13.843156 
L 59.545266 12.814715 
L 61.626151 9.68785 
L 63.119952 8.896442 
L 64.455024 9.113798 
L 65.405229 9.73801 
L 66.355434 10.175526 
L 67.679634 9.832758 
L 69.593091 7.372219 
L 70.449798 6.957044 
L 70.560692 9.041346 
L 71.086892 7.968522 
L 73.52655 10.181099 
L 78.07536 11.089595 
L 80.686794 12.633558 
L 84.979026 13.776264 
L 87.114271 15.660451 
L 90.999894 17.104348 
L 91.797892 16.195631 
L 93.009024 13.280156 
L 93.676559 12.424532 
L 94.420198 12.16813 
L 94.913783 12.285183 
L 95.326916 12.764549 
L 95.809629 13.57559 
L 96.229285 14.565041 
L 96.411933 15.638152 
L 96.338004 16.736397 
L 96.007498 17.798452 
L 96.966401 18.8271 
L 99.836587 19.245261 
L 101.18253 20.084394 
L 101.719603 21.419815 
L 102.054458 24.726617 
L 102.4328 25.694205 
L 104.568045 27.715943 
L 105.3443 28.884442 
L 106.098811 30.476924 
L 106.463692 32.33352 
L 106.546733 33.215896 
L 106.820706 34.362337 
L 107.56217 35.031816 
L 108.377564 34.805865 
L 109.375606 34.077814 
L 110.551947 33.444622 
L 111.867449 33.478095 
L 113.950508 35.137818 
L 115.711759 37.910777 
L 116.975075 41.138842 
L 117.527369 44.185933 
L 119.005949 43.912461 
L 122.695877 44.258488 
L 123.698268 43.770146 
L 124.565847 43.100435 
L 125.300788 43.00556 
L 125.903093 44.236163 
L 125.833512 46.06404 
L 125.326881 47.841812 
L 125.279045 49.362925 
L 126.598895 50.44311 
L 128.403633 50.744565 
L 128.795022 50.923207 
L 129.401675 51.573585 
L 129.819157 52.299349 
L 130.008328 53.201 
L 129.967015 53.951934 
L 130.482344 53.703481 
L 132.626285 53.290329 
L 134.770227 53.468989 
L 141.145519 56.015025 
L 144.852842 56.3668 
L 145.668236 56.793962 
L 146.420572 57.718108 
L 146.188133 58.445693 
L 145.842186 58.388205 
L 146.364038 59.820596 
L 146.303156 61.079937 
L 146.016137 62.395191 
L 145.842186 63.989783 
L 146.07702 65.017524 
L 146.988087 67.855195 
L 147.04462 69.586999 
L 146.303156 71.114994 
L 148.547119 70.97532 
L 150.121373 69.776946 
L 151.654313 68.966888 
L 155.044176 68.025577 
L 155.850872 68.081441 
L 157.192467 68.746222 
L 157.807817 68.824433 
L 157.907839 68.511591 
L 157.968722 67.201609 
L 158.231822 66.816169 
L 158.779766 66.771481 
L 160.121361 67.168093 
L 160.660608 67.452987 
L 161.245517 66.098372 
L 162.156584 65.679433 
L 163.176369 65.584475 
L 164.091785 65.193473 
L 164.757146 64.397523 
L 165.376845 63.026314 
L 165.929139 62.26115 
L 166.935878 61.722197 
L 167.681691 61.872991 
L 168.220938 61.716612 
L 168.623199 60.239438 
L 168.473167 59.94904 
L 167.72083 59.080657 
L 167.54688 58.695339 
L 167.503392 56.193704 
L 168.329658 55.802846 
L 169.795264 56.026644 
L 171.830414 56.592944 
L 173.172009 56.632031 
L 177.559914 55.975939 
L 179.777785 56.132283 
L 180.745386 57.13458 
L 181.978261 61.146955 
L 183.19809 62.976047 
L 184.748425 64.743828 
L 186.122635 66.793825 
L 186.822787 69.475266 
L 190.658398 67.078715 
L 192.101391 66.700828 
L 192.578379 66.821755 
L 193.819952 67.83285 
L 194.396163 68.042336 
L 194.781029 67.799333 
L 195.863872 66.754723 
L 196.518361 66.472629 
L 197.359847 66.536868 
L 199.005856 66.966993 
L 199.816901 66.89996 
L 200.632294 66.176574 
L 201.328097 65.070588 
L 202.173932 64.19086 
L 203.437249 64.123834 
L 204.230898 64.905811 
L 205.050641 67.749056 
L 205.733397 69.031133 
L 206.170448 69.363534 
L 207.859944 70.28534 
L 211.57379 74.283008 
L 213.054545 75.028972 
L 212.295686 76.601995 
L 210.597492 81.506078 
L 210.173488 83.272334 
L 210.719258 85.063865 
L 210.303951 86.226609 
L 209.46029 87.230077 
L 208.727523 88.557844 
L 208.423109 90.467152 
L 208.492689 94.481906 
L 208.301344 96.453163 
L 206.283516 102.566396 
L 205.789931 105.559209 
L 206.670556 108.032032 
L 207.538135 108.423677 
L 209.32113 107.679557 
L 210.545307 108.278208 
L 211.193273 109.223769 
L 211.625976 110.521872 
L 211.776008 111.962729 
L 211.578139 113.3533 
L 210.125651 115.4267 
L 203.439799 119.204543 
L 202.778924 118.719748 
L 202.361168 117.82951 
L 201.720838 115.507099 
L 199.351274 120.663389 
L 198.734913 123.704745 
L 200.282663 125.05363 
L 201.272264 125.525315 
L 204.066432 128.889067 
L 205.655273 130.238213 
L 205.792242 130.873128 
L 205.792242 132.182689 
L 205.103973 134.497724 
L 203.429526 136.151442 
L 197.173466 140.107545 
L 195.478475 141.810126 
L 195.180567 143.543693 
L 197.122103 145.237666 
L 194.1533 146.097927 
L 182.555448 145.096497 
L 179.833188 144.430369 
L 179.257919 144.430369 
L 177.850562 145.13179 
L 170.584355 145.903814 
L 162.790818 144.408312 
L 160.767101 145.237666 
L 159.68847 144.77446 
L 158.466021 144.430369 
L 158.466021 143.755434 
L 160.366466 143.596628 
L 160.500011 141.929223 
L 159.483016 139.864958 
L 157.948963 138.506511 
L 158.281113 139.348917 
L 159.284411 141.108791 
L 159.674773 142.207117 
L 156.634061 142.079197 
L 155.144523 142.273282 
L 153.874135 142.948181 
L 154.685676 143.3893 
L 155.343128 143.265785 
L 156.134124 142.979059 
L 157.32233 142.948181 
L 157.32233 143.755434 
L 155.363673 144.77446 
L 153.202987 144.695054 
L 151.518268 143.384888 
L 150.997785 140.725049 
L 152.148325 141.466073 
L 153.298865 139.984046 
L 153.298865 139.313632 
L 151.86069 138.49328 
L 150.278698 135.697211 
L 149.220612 134.868148 
L 149.504823 136.438097 
L 149.980791 137.721465 
L 150.227335 138.863758 
L 149.847246 139.984046 
L 148.624797 139.110747 
L 145.067027 137.986085 
L 143.52955 136.958493 
L 142.139314 133.836265 
L 141.492136 133.329158 
L 140.505959 133.227737 
L 137.732336 132.522215 
L 136.492766 132.522215 
L 133.082238 133.329158 
L 128.325988 133.487903 
L 127.288448 134.069979 
L 127.853445 134.638837 
L 128.469806 135.053362 
L 129.086166 135.181249 
L 129.637467 134.868148 
L 132.013879 135.569322 
L 138.769876 134.652067 
L 139.523206 134.802001 
L 140.608685 135.542862 
L 141.197652 136.239643 
L 142.245465 137.844954 
L 142.95428 138.506511 
L 142.95428 139.313632 
L 140.23202 138.704981 
L 137.732336 137.765568 
L 137.732336 138.506511 
L 144.628726 140.288384 
L 148.231011 141.761606 
L 149.847246 143.755434 
L 149.258279 145.052383 
L 147.75162 144.734757 
L 146.073749 143.627507 
L 144.967724 142.577646 
L 143.724731 141.783661 
L 121.994595 136.707114 
L 98.504409 122.973025 
L 88.515943 115.277954 
L 82.797486 112.109781 
L 76.620183 110.268097 
L 73.747258 110.268097 
L 71.559178 109.620453 
L 59.603657 109.743168 
L 54.493556 108.144132 
L 52.089917 107.555101 
L 46.753448 105.352013 
L 43.945933 106.081232 
L 35.958005 106.204526 
L 34.674803 105.091358 
L 33.826521 101.113517 
L 33.509184 98.630556 
L 32.456045 97.543137 
L 30.722432 96.201223 
L 23.901291 91.349748 
L 18.022943 87.988765 
L 11.531672 84.069625 
L 11.531672 84.069625 
" clip-path="url(#pea4489bb5c)" style="fill: none; stroke: #000000; stroke-width: 0.5; stroke-linecap: square"/>
   </g>
  </g>
 </g>
 <defs>
  <clipPath id="pea4489bb5c">
   <rect x="0" y="0" width="223.2" height="153.054971"/>
  </clipPath>
 </defs>
</svg>
