<?xml version="1.0" encoding="utf-8" standalone="no"?>
<!DOCTYPE svg PUBLIC "-//W3C//DTD SVG 1.1//EN"
  "http://www.w3.org/Graphics/SVG/1.1/DTD/svg11.dtd">
<svg xmlns:xlink="http://www.w3.org/1999/xlink" width="223.2pt" height="70.039206pt" viewBox="0 0 223.2 70.039206" xmlns="http://www.w3.org/2000/svg" version="1.1">
 <metadata>
  <rdf:RDF xmlns:dc="http://purl.org/dc/elements/1.1/" xmlns:cc="http://creativecommons.org/ns#" xmlns:rdf="http://www.w3.org/1999/02/22-rdf-syntax-ns#">
   <cc:Work>
    <dc:type rdf:resource="http://purl.org/dc/dcmitype/StillImage"/>
    <dc:date>2026-04-26T19:21:55.207886</dc:date>
    <dc:format>image/svg+xml</dc:format>
    <dc:creator>
     <cc:Agent>
      <dc:title>Matplotlib v3.10.9, https://matplotlib.org/</dc:title>
     </cc:Agent>
    </dc:creator>
   </cc:Work>
  </rdf:RDF>
 </metadata>
 <defs>
  <style type="text/css">*{stroke-linejoin: round; stroke-linecap: butt}</style>
 </defs>
 <g id="figure_1">
  <g id="patch_1">
   <path d="M 0 70.039206 
L 223.2 70.039206 
L 223.2 0 
L 0 0 
z
" style="fill: #ffffff"/>
  </g>
  <g id="axes_1">
   <g id="patch_2">
    <path d="M 48.271115 56.179248 
L 48.717109 55.905543 
L 49.045423 55.618555 
L 49.194028 55.276475 
L 49.297706 54.91612 
L 49.446311 54.577937 
L 51.454207 52.697787 
L 52.183409 51.513349 
L 54.232776 50.57552 
L 54.979258 50.045909 
L 54.979258 48.596301 
L 55.290291 47.939804 
L 55.352498 47.573364 
L 55.124407 47.258155 
L 54.796093 46.981967 
L 54.595649 46.660851 
L 54.585281 46.326458 
L 55.124407 45.687146 
L 55.148598 45.359131 
L 55.127863 45.031216 
L 55.269556 44.69976 
L 56.140451 44.259193 
L 57.41569 43.9486 
L 58.563059 43.555635 
L 59.067625 42.869508 
L 58.670193 42.232268 
L 57.726723 41.728562 
L 54.132554 40.673495 
L 52.390765 40.40022 
L 50.635151 40.342189 
L 49.156013 40.614239 
L 48.686006 40.85733 
L 48.202175 41.210576 
L 47.828935 41.600252 
L 47.68033 41.953747 
L 47.618123 42.416374 
L 47.452238 42.684112 
L 46.135528 43.548359 
L 45.603315 43.826086 
L 44.988159 44.008042 
L 44.220942 44.089326 
L 42.665773 43.927978 
L 41.8951 43.926765 
L 41.169354 44.191243 
L 40.402137 44.870939 
L 40.011617 44.994787 
L 39.265136 44.885509 
L 38.815865 44.700974 
L 37.530258 43.884309 
L 35.570745 43.221002 
L 34.430287 42.687746 
L 31.610247 42.244379 
L 29.906473 42.188668 
L 29.097784 42.055459 
L 28.876605 41.963434 
L 28.406598 41.706772 
L 28.199242 41.630513 
L 27.815634 41.612356 
L 27.556439 41.695878 
L 27.321436 41.798776 
L 27.017314 41.852045 
L 26.633705 41.783038 
L 26.218993 41.655932 
L 25.804281 41.600252 
L 25.420673 41.740668 
L 25.164934 41.915002 
L 24.891915 42.044561 
L 24.591249 42.073623 
L 24.269848 41.953747 
L 24.010653 41.706772 
L 23.772194 41.365461 
L 23.602853 41.007324 
L 23.533734 40.715822 
L 23.33329 40.274489 
L 22.84946 40.04241 
L 22.282687 39.870801 
L 21.823048 39.602567 
L 21.570765 39.214835 
L 21.574221 38.909341 
L 21.823048 38.182789 
L 21.864519 37.30484 
L 21.636428 36.579399 
L 20.993624 36.222888 
L 19.766769 36.454125 
L 19.234555 36.432444 
L 18.418955 36.230113 
L 17.617179 35.96642 
L 17.15754 35.756957 
L 16.849962 35.344174 
L 16.801579 35.004924 
L 16.635694 34.834138 
L 15.996347 34.930352 
L 15.426118 35.215439 
L 15.087437 35.531892 
L 14.731476 35.677517 
L 14.099041 35.445249 
L 13.953891 35.157693 
L 14.223454 34.840151 
L 14.610518 34.519098 
L 14.810962 34.225788 
L 14.565591 33.675455 
L 14.078305 32.945331 
L 13.746535 32.170136 
L 13.940068 31.486623 
L 14.313308 31.227726 
L 14.665813 31.189376 
L 15.5609 31.304429 
L 15.871934 31.242107 
L 16.017083 31.103094 
L 15.999803 30.965298 
L 15.312073 30.713719 
L 15.198027 30.322095 
L 15.439942 29.989272 
L 15.996347 29.980893 
L 17.624091 30.269411 
L 19.206908 30.167642 
L 20.786269 29.94618 
L 22.403645 29.880349 
L 23.236524 30.002439 
L 24.874636 30.397534 
L 25.579646 30.482559 
L 26.882532 30.482559 
L 27.006946 30.389151 
L 27.058785 30.180811 
L 26.982754 29.973711 
L 26.737383 29.880349 
L 26.070388 29.742717 
L 25.907959 29.431615 
L 26.160242 29.091904 
L 26.754663 28.875456 
L 27.463129 28.896979 
L 29.11852 29.230645 
L 29.93412 29.277295 
L 28.790207 28.790563 
L 27.442393 28.446283 
L 26.104948 28.416403 
L 24.978314 28.875456 
L 24.207641 28.503655 
L 23.340202 28.472578 
L 21.53275 28.674595 
L 18.425867 28.596892 
L 17.447838 28.674595 
L 16.597679 28.861107 
L 16.165688 29.005797 
L 15.851198 29.168448 
L 15.592003 29.194762 
L 14.24419 29.058417 
L 13.421678 29.111039 
L 11.040541 29.478274 
L 12.616446 28.423574 
L 13.42859 28.161861 
L 14.835154 28.073443 
L 15.146188 27.864377 
L 12.492032 26.561962 
L 12.129159 26.009742 
L 10.739875 25.25763 
L 10.726051 24.671582 
L 11.645329 24.222745 
L 14.465369 24.294164 
L 15.391559 23.852633 
L 16.124217 24.023986 
L 16.87761 24.044217 
L 17.624091 23.944256 
L 18.99264 23.531423 
L 19.338233 23.387507 
L 19.459191 23.196046 
L 19.47647 22.838195 
L 19.199996 22.139502 
L 18.515721 21.633607 
L 17.58262 21.281055 
L 16.576944 21.046089 
L 17.105701 21.427046 
L 18.36366 21.872272 
L 18.895874 22.257105 
L 18.536457 22.339079 
L 17.755416 22.368782 
L 17.447838 22.438883 
L 16.576944 22.838195 
L 16.518193 22.939237 
L 16.525105 23.112814 
L 16.286645 23.437459 
L 15.875389 23.467194 
L 15.612739 23.336368 
L 15.395015 23.155618 
L 15.125452 23.055744 
L 12.39181 22.809668 
L 11.268632 22.475717 
L 10.145455 21.840209 
L 10.435753 21.858022 
L 11.040541 21.831897 
L 11.330839 21.840209 
L 11.030173 21.314287 
L 11.272088 20.949982 
L 13.200498 20.147078 
L 13.642858 20.01194 
L 14.088673 20.094917 
L 14.810962 20.44824 
L 14.859345 18.943329 
L 13.449325 17.513976 
L 12.79961 16.410228 
L 15.125452 15.88006 
L 15.598915 15.901308 
L 16.490545 16.02999 
L 16.995111 16.060687 
L 17.368352 15.999293 
L 17.976596 15.727791 
L 18.940801 15.550765 
L 19.459191 15.310059 
L 20.060523 15.09772 
L 20.927962 15.071771 
L 23.188141 15.843466 
L 23.316011 15.850548 
L 23.824033 15.88006 
L 24.321687 15.619211 
L 24.35279 15.3077 
L 24.059036 15.034027 
L 23.533734 14.874813 
L 24.010653 14.508127 
L 24.943754 14.337211 
L 28.703808 14.307745 
L 30.549276 14.478657 
L 32.532981 14.425612 
L 34.744777 14.126258 
L 36.90819 14.057914 
L 38.691451 14.694401 
L 39.520875 14.022566 
L 39.178738 13.499556 
L 36.465831 12.195592 
L 36.09259 11.918074 
L 36.213548 11.604197 
L 36.749217 11.29982 
L 37.31599 11.114184 
L 37.94497 11.048397 
L 38.691451 11.103611 
L 39.883748 11.410278 
L 42.271796 12.299093 
L 43.502108 12.482599 
L 44.694405 12.267336 
L 44.331532 11.773467 
L 43.222178 11.24107 
L 42.195766 10.906266 
L 43.035557 10.71953 
L 46.788699 10.62324 
L 48.271294 10.421296 
L 48.762036 10.078556 
L 49.266602 9.131946 
L 49.446311 8.936169 
L 52.24216 8.699414 
L 53.213276 8.73926 
L 54.046156 8.957269 
L 55.58059 9.576399 
L 56.430749 9.70778 
L 57.215245 9.581091 
L 57.878784 9.334798 
L 58.549235 9.156568 
L 59.354467 9.240989 
L 61.804723 9.849738 
L 62.558116 9.921311 
L 63.318421 9.800461 
L 63.152536 9.533 
L 62.464806 9.26913 
L 61.676853 9.151878 
L 61.676853 8.936169 
L 62.793119 8.976025 
L 63.235479 8.893971 
L 63.415187 8.632617 
L 63.563792 8.317444 
L 63.933577 8.203819 
L 64.413951 8.231931 
L 64.89087 8.347902 
L 65.658087 8.783796 
L 66.197212 9.283202 
L 66.881487 9.610415 
L 68.080695 9.527136 
L 68.571437 9.392261 
L 68.820264 9.272648 
L 69.805205 8.54942 
L 69.912339 8.397106 
L 69.532186 7.954359 
L 69.255712 7.785746 
L 68.875559 7.66633 
L 68.54379 7.518836 
L 68.398641 7.256678 
L 68.391729 6.985232 
L 68.350258 6.781698 
L 68.253492 6.589899 
L 68.080695 6.365402 
L 69.390493 6.062648 
L 71.011325 6.524416 
L 73.879749 7.757647 
L 74.951087 7.85834 
L 78.254958 7.560975 
L 79.257178 7.652282 
L 81.012792 8.059757 
L 81.890598 8.151111 
L 82.682007 8.00003 
L 82.319134 7.255508 
L 82.920466 6.953647 
L 83.915774 6.964175 
L 85.978966 7.438074 
L 95.050787 8.347902 
L 95.123361 8.347902 
L 94.822695 7.678037 
L 95.392924 7.310508 
L 96.426248 7.165408 
L 100.379833 7.167748 
L 100.825649 7.078826 
L 100.808369 6.875272 
L 100.504247 6.67176 
L 100.061888 6.580544 
L 98.8454 6.052129 
L 98.202596 4.895762 
L 98.057447 3.738438 
L 98.32701 3.213898 
L 99.073491 3.430674 
L 100.469688 4.384596 
L 101.250728 4.601633 
L 102.156182 4.731179 
L 102.878472 5.042859 
L 104.164079 5.776345 
L 105.107548 6.02408 
L 106.476097 6.19005 
L 107.713321 6.097711 
L 108.24899 5.571894 
L 107.920677 5.084891 
L 107.274417 4.759191 
L 106.818234 4.39393 
L 107.067061 3.800236 
L 106.797499 3.77575 
L 106.41389 3.66382 
L 106.216902 3.624181 
L 107.236402 3.1836 
L 108.539288 3.328107 
L 110.88241 4.192103 
L 110.56792 4.405597 
L 111.089766 4.77203 
L 111.442271 5.467933 
L 112.022868 5.776345 
L 112.821188 5.925913 
L 113.277371 5.890856 
L 113.598773 5.866317 
L 114.31415 5.613949 
L 114.946586 5.189979 
L 114.632096 4.993824 
L 115.236884 4.316927 
L 116.145794 4.526948 
L 117.099631 5.063875 
L 117.846113 5.368655 
L 118.717008 5.292743 
L 118.803406 5.105908 
L 118.620241 4.856072 
L 118.68936 4.601633 
L 119.221574 4.31926 
L 119.715772 4.230598 
L 120.279089 4.279595 
L 121.74786 4.54912 
L 123.365236 5.091897 
L 123.531121 5.207495 
L 123.614063 5.368655 
L 123.672814 5.580072 
L 124.06679 5.627968 
L 132.094919 5.580072 
L 132.913975 5.668857 
L 134.645397 6.062648 
L 137.261537 6.276554 
L 139.639219 6.770002 
L 141.342993 6.939609 
L 142.27955 6.953647 
L 142.984561 6.862405 
L 144.422228 6.456598 
L 145.033928 6.365402 
L 146.799909 6.420353 
L 148.444933 6.595746 
L 150.02775 6.898666 
L 151.586375 7.346787 
L 153.362724 8.016426 
L 155.318781 8.753324 
L 157.39234 9.019399 
L 159.165233 9.409852 
L 160.022304 9.527136 
L 167.604619 9.759398 
L 174.350597 9.617453 
L 180.039061 9.475529 
L 186.584596 10.04687 
L 193.119763 10.188877 
L 199.755152 10.752412 
L 201.514221 10.55279 
L 203.159245 10.159535 
L 204.42066 9.617453 
L 205.944726 8.61504 
L 206.773839 9.155747 
L 208.678679 9.504241 
L 209.587209 9.840938 
L 210.587909 10.699591 
L 210.987311 10.962106 
L 211.487661 11.169483 
L 212.582724 11.496303 
L 213.054545 11.696328 
L 212.857039 12.241378 
L 211.825616 12.011375 
L 209.958082 12.549128 
L 206.510497 12.649243 
L 205.163063 12.886867 
L 208.244165 13.314437 
L 209.249254 13.300979 
L 208.389003 13.710776 
L 203.425006 13.676371 
L 201.054928 14.141695 
L 200.13762 14.568309 
L 200.497521 15.078989 
L 199.764552 15.703844 
L 198.443453 17.890167 
L 195.976817 20.335733 
L 195.248237 20.954835 
L 193.431177 22.165516 
L 192.961551 22.82348 
L 192.221075 23.253608 
L 192.158358 23.290048 
L 188.375011 24.495964 
L 182.958944 26.231787 
L 181.620576 27.890885 
L 180.106072 29.77157 
L 180.880799 31.10954 
L 181.74757 32.60853 
L 183.854306 36.271203 
L 186.233163 40.402687 
L 183.652411 42.654536 
L 183.174006 44.171272 
L 183.705079 45.579072 
L 184.734049 46.384069 
L 185.601142 47.062894 
L 187.286531 48.437378 
L 189.441546 49.562701 
L 189.702693 50.434977 
L 189.428379 51.221094 
L 189.489825 52.086949 
L 190.299602 52.20959 
L 191.083044 52.453362 
L 191.341997 53.179565 
L 191.140102 53.565777 
L 190.83287 53.896925 
L 190.670475 54.24295 
L 190.907483 54.666106 
L 191.254217 54.834169 
L 195.555469 55.500452 
L 196.253326 55.797141 
L 196.613226 56.393878 
L 196.082153 56.800718 
L 195.090232 57.06969 
L 192.426089 57.486922 
L 186.295052 57.841897 
L 185.500194 57.887926 
L 184.947176 58.016684 
L 185.285131 58.0838 
L 186.189272 58.395242 
L 185.013011 58.621658 
L 184.42927 58.802044 
L 184.005728 59.06682 
L 183.810416 59.577025 
L 184.280043 60.430759 
L 184.231763 60.814842 
L 183.494406 61.122362 
L 179.983179 61.595936 
L 179.291906 61.862167 
L 179.004425 62.038384 
L 178.793751 62.278867 
L 178.679636 62.574255 
L 178.719137 62.72629 
L 178.815696 62.846991 
L 178.925422 63.249164 
L 179.024175 63.347966 
L 179.103178 63.456187 
L 179.013203 64.083764 
L 178.894699 64.214031 
L 178.587466 64.360796 
L 178.065171 64.461266 
L 177.485819 64.47618 
L 176.963524 64.54683 
L 176.599234 64.807487 
L 176.621179 65.189947 
L 176.919634 65.696692 
L 177.319036 66.177723 
L 177.656991 66.496953 
L 176.25689 66.846166 
L 169.704063 65.91596 
L 166.293784 65.832649 
L 165.282112 65.643257 
L 164.424056 65.254357 
L 162.865949 64.328616 
L 161.865249 64.02256 
L 160.399312 63.829553 
L 159.661955 63.823277 
L 158.915819 63.887608 
L 158.257464 63.840536 
L 157.783448 63.624814 
L 157.261153 63.470303 
L 156.475516 63.610695 
L 155.812772 63.995882 
L 155.378258 64.446352 
L 154.86913 64.867164 
L 153.995712 65.167168 
L 153.245188 65.253572 
L 149.949024 65.184448 
L 148.526977 65.36355 
L 147.140042 65.680975 
L 145.884779 66.110115 
L 145.612659 66.306662 
L 145.463432 66.530768 
L 145.261536 66.717165 
L 144.827022 66.794249 
L 144.418842 66.740761 
L 143.633205 66.520545 
L 143.229414 66.479652 
L 142.65445 66.610199 
L 142.075098 66.811554 
L 141.416743 66.855606 
L 140.631106 66.511108 
L 139.209059 65.726554 
L 138.502425 65.459396 
L 138.492008 65.457663 
L 135.122153 64.897138 
L 134.583018 64.807487 
L 132.823015 64.321552 
L 131.379024 63.663248 
L 127.358669 61.139579 
L 125.9454 60.512102 
L 121.253524 59.012141 
L 120.884845 58.639617 
L 120.757563 58.016684 
L 120.884845 57.739678 
L 121.126242 57.560246 
L 121.275469 57.379284 
L 121.13502 57.091523 
L 120.819009 56.944162 
L 120.318659 56.84905 
L 111.395755 56.5474 
L 110.329219 56.157014 
L 109.784979 55.554956 
L 109.389966 54.943891 
L 108.749167 54.523739 
L 108.099591 54.51596 
L 107.624024 54.578104 
L 105.343278 54.876189 
L 104.281132 54.910428 
L 103.280432 54.852844 
L 102.341179 54.634208 
L 101.445816 54.18929 
L 101.217586 53.950571 
L 101.182474 53.750772 
L 101.169806 53.71936 
L 101.103471 53.554896 
L 100.739182 53.329526 
L 100.326612 53.220744 
L 98.825563 53.095658 
L 97.151147 52.690975 
L 94.579173 51.515842 
L 92.876228 51.168358 
L 92.446103 51.177665 
L 92.169594 51.233503 
L 91.906252 51.25677 
L 91.520017 51.168358 
L 91.252286 50.992333 
L 90.747547 50.448927 
L 90.457871 50.242799 
L 89.698568 50.008822 
L 88.926098 49.95692 
L 88.381858 50.15602 
L 88.333579 50.675248 
L 89.523007 51.487915 
L 89.812683 51.967426 
L 88.969989 52.386591 
L 87.609388 52.651369 
L 86.942255 52.651369 
L 86.319012 52.453362 
L 85.801106 51.806014 
L 85.410483 51.065996 
L 84.826741 50.448927 
L 83.725094 50.170741 
L 81.736862 50.19166 
L 80.736162 50.302464 
L 79.810076 50.524879 
L 79.216364 50.753622 
L 76.667528 51.736179 
L 75.583437 52.018649 
L 72.322385 52.198723 
L 71.295351 52.447927 
L 70.407144 52.756553 
L 69.956696 52.913105 
L 68.85066 52.843199 
L 67.744623 52.575268 
L 66.419135 52.446374 
L 65.795892 52.757764 
L 65.014644 53.589094 
L 64.3519 53.788086 
L 61.771149 53.896925 
L 58.790995 53.79275 
L 57.939523 53.863495 
L 55.709894 54.638876 
L 54.024505 54.976576 
L 53.493432 55.210071 
L 52.795576 55.926432 
L 52.32156 56.231028 
L 51.329638 56.442971 
L 50.118265 56.467129 
z
" clip-path="url(#pa55ea0c02d)" style="stroke: #000000; stroke-linejoin: miter"/>
   </g>
   <g id="line2d_1">
    <path d="M 48.271115 56.179248 
L 49.045423 55.618555 
L 49.446311 54.577937 
L 51.454207 52.697787 
L 52.183409 51.513349 
L 54.232776 50.57552 
L 54.979258 50.045909 
L 54.979258 48.596301 
L 55.352498 47.573364 
L 54.585281 46.326458 
L 55.124407 45.687146 
L 55.269556 44.69976 
L 56.140451 44.259193 
L 58.563059 43.555635 
L 59.067625 42.869508 
L 58.670193 42.232268 
L 57.726723 41.728562 
L 54.132554 40.673495 
L 52.390765 40.40022 
L 50.635151 40.342189 
L 49.156013 40.614239 
L 48.202175 41.210576 
L 47.828935 41.600252 
L 47.68033 41.953747 
L 47.618123 42.416374 
L 47.452238 42.684112 
L 45.603315 43.826086 
L 44.988159 44.008042 
L 44.220942 44.089326 
L 41.8951 43.926765 
L 41.169354 44.191243 
L 40.402137 44.870939 
L 40.011617 44.994787 
L 39.265136 44.885509 
L 38.815865 44.700974 
L 37.530258 43.884309 
L 35.570745 43.221002 
L 34.430287 42.687746 
L 31.610247 42.244379 
L 29.097784 42.055459 
L 27.815634 41.612356 
L 27.017314 41.852045 
L 25.804281 41.600252 
L 24.591249 42.073623 
L 24.269848 41.953747 
L 23.772194 41.365461 
L 23.33329 40.274489 
L 21.823048 39.602567 
L 21.570765 39.214835 
L 21.574221 38.909341 
L 21.823048 38.182789 
L 21.864519 37.30484 
L 21.636428 36.579399 
L 20.993624 36.222888 
L 19.766769 36.454125 
L 19.234555 36.432444 
L 17.617179 35.96642 
L 17.15754 35.756957 
L 16.849962 35.344174 
L 16.801579 35.004924 
L 16.635694 34.834138 
L 15.996347 34.930352 
L 15.426118 35.215439 
L 15.087437 35.531892 
L 14.731476 35.677517 
L 14.099041 35.445249 
L 13.953891 35.157693 
L 14.810962 34.225788 
L 14.565591 33.675455 
L 14.078305 32.945331 
L 13.746535 32.170136 
L 13.940068 31.486623 
L 14.313308 31.227726 
L 14.665813 31.189376 
L 15.871934 31.242107 
L 16.017083 31.103094 
L 15.999803 30.965298 
L 15.312073 30.713719 
L 15.198027 30.322095 
L 15.439942 29.989272 
L 15.996347 29.980893 
L 17.624091 30.269411 
L 19.206908 30.167642 
L 20.786269 29.94618 
L 22.403645 29.880349 
L 23.236524 30.002439 
L 25.579646 30.482559 
L 27.006946 30.389151 
L 27.058785 30.180811 
L 26.982754 29.973711 
L 26.070388 29.742717 
L 25.907959 29.431615 
L 26.160242 29.091904 
L 26.754663 28.875456 
L 27.463129 28.896979 
L 29.11852 29.230645 
L 29.93412 29.277295 
L 28.790207 28.790563 
L 27.442393 28.446283 
L 26.104948 28.416403 
L 24.978314 28.875456 
L 24.207641 28.503655 
L 23.340202 28.472578 
L 21.53275 28.674595 
L 17.447838 28.674595 
L 16.165688 29.005797 
L 15.592003 29.194762 
L 14.24419 29.058417 
L 13.421678 29.111039 
L 11.040541 29.478274 
L 12.616446 28.423574 
L 13.42859 28.161861 
L 14.835154 28.073443 
L 15.146188 27.864377 
L 12.492032 26.561962 
L 12.129159 26.009742 
L 10.739875 25.25763 
L 10.726051 24.671582 
L 11.645329 24.222745 
L 14.465369 24.294164 
L 15.391559 23.852633 
L 16.124217 24.023986 
L 16.87761 24.044217 
L 17.624091 23.944256 
L 19.338233 23.387507 
L 19.459191 23.196046 
L 19.47647 22.838195 
L 19.199996 22.139502 
L 18.515721 21.633607 
L 17.58262 21.281055 
L 16.576944 21.046089 
L 17.105701 21.427046 
L 18.36366 21.872272 
L 18.895874 22.257105 
L 18.536457 22.339079 
L 17.447838 22.438883 
L 16.518193 22.939237 
L 16.525105 23.112814 
L 16.286645 23.437459 
L 15.875389 23.467194 
L 15.125452 23.055744 
L 12.39181 22.809668 
L 11.268632 22.475717 
L 10.145455 21.840209 
L 11.330839 21.840209 
L 11.030173 21.314287 
L 11.272088 20.949982 
L 13.642858 20.01194 
L 14.088673 20.094917 
L 14.810962 20.44824 
L 14.859345 18.943329 
L 13.449325 17.513976 
L 12.79961 16.410228 
L 15.125452 15.88006 
L 17.368352 15.999293 
L 17.976596 15.727791 
L 18.940801 15.550765 
L 20.060523 15.09772 
L 20.927962 15.071771 
L 23.316011 15.850548 
L 23.824033 15.88006 
L 24.321687 15.619211 
L 24.35279 15.3077 
L 24.059036 15.034027 
L 23.533734 14.874813 
L 24.010653 14.508127 
L 24.943754 14.337211 
L 28.703808 14.307745 
L 30.549276 14.478657 
L 32.532981 14.425612 
L 34.744777 14.126258 
L 36.90819 14.057914 
L 38.691451 14.694401 
L 39.520875 14.022566 
L 39.178738 13.499556 
L 36.09259 11.918074 
L 36.213548 11.604197 
L 36.749217 11.29982 
L 37.31599 11.114184 
L 37.94497 11.048397 
L 38.691451 11.103611 
L 39.883748 11.410278 
L 42.271796 12.299093 
L 43.502108 12.482599 
L 44.694405 12.267336 
L 44.331532 11.773467 
L 43.222178 11.24107 
L 42.195766 10.906266 
L 43.035557 10.71953 
L 46.788699 10.62324 
L 48.271294 10.421296 
L 48.762036 10.078556 
L 49.446311 8.936169 
L 52.24216 8.699414 
L 53.213276 8.73926 
L 54.046156 8.957269 
L 55.58059 9.576399 
L 56.430749 9.70778 
L 57.215245 9.581091 
L 58.549235 9.156568 
L 59.354467 9.240989 
L 61.804723 9.849738 
L 62.558116 9.921311 
L 63.318421 9.800461 
L 63.152536 9.533 
L 62.464806 9.26913 
L 61.676853 9.151878 
L 61.676853 8.936169 
L 63.235479 8.893971 
L 63.563792 8.317444 
L 63.933577 8.203819 
L 64.89087 8.347902 
L 65.658087 8.783796 
L 66.197212 9.283202 
L 66.881487 9.610415 
L 68.571437 9.392261 
L 68.820264 9.272648 
L 69.912339 8.397106 
L 69.255712 7.785746 
L 68.54379 7.518836 
L 68.398641 7.256678 
L 68.350258 6.781698 
L 68.080695 6.365402 
L 69.390493 6.062648 
L 71.011325 6.524416 
L 73.879749 7.757647 
L 74.951087 7.85834 
L 78.254958 7.560975 
L 79.257178 7.652282 
L 81.890598 8.151111 
L 82.682007 8.00003 
L 82.319134 7.255508 
L 82.920466 6.953647 
L 83.915774 6.964175 
L 85.978966 7.438074 
L 95.123361 8.347902 
L 94.822695 7.678037 
L 95.392924 7.310508 
L 96.426248 7.165408 
L 100.825649 7.078826 
L 100.808369 6.875272 
L 100.504247 6.67176 
L 100.061888 6.580544 
L 98.8454 6.052129 
L 98.202596 4.895762 
L 98.057447 3.738438 
L 98.32701 3.213898 
L 99.073491 3.430674 
L 100.469688 4.384596 
L 101.250728 4.601633 
L 102.156182 4.731179 
L 102.878472 5.042859 
L 104.164079 5.776345 
L 105.107548 6.02408 
L 106.476097 6.19005 
L 107.713321 6.097711 
L 108.24899 5.571894 
L 107.920677 5.084891 
L 107.274417 4.759191 
L 106.818234 4.39393 
L 107.067061 3.800236 
L 106.216902 3.624181 
L 107.236402 3.1836 
L 108.539288 3.328107 
L 110.88241 4.192103 
L 110.56792 4.405597 
L 111.089766 4.77203 
L 111.442271 5.467933 
L 112.022868 5.776345 
L 112.821188 5.925913 
L 113.598773 5.866317 
L 114.31415 5.613949 
L 114.946586 5.189979 
L 114.632096 4.993824 
L 115.236884 4.316927 
L 116.145794 4.526948 
L 117.846113 5.368655 
L 118.717008 5.292743 
L 118.803406 5.105908 
L 118.620241 4.856072 
L 118.68936 4.601633 
L 119.221574 4.31926 
L 119.715772 4.230598 
L 120.279089 4.279595 
L 121.74786 4.54912 
L 123.531121 5.207495 
L 123.672814 5.580072 
L 124.06679 5.627968 
L 132.913975 5.668857 
L 134.645397 6.062648 
L 137.261537 6.276554 
L 139.639219 6.770002 
L 142.27955 6.953647 
L 142.984561 6.862405 
L 145.033928 6.365402 
L 146.799909 6.420353 
L 148.444933 6.595746 
L 150.02775 6.898666 
L 151.586375 7.346787 
L 155.318781 8.753324 
L 157.39234 9.019399 
L 160.022304 9.527136 
L 167.604619 9.759398 
L 180.039061 9.475529 
L 186.584596 10.04687 
L 193.119763 10.188877 
L 199.755152 10.752412 
L 201.514221 10.55279 
L 203.159245 10.159535 
L 204.42066 9.617453 
L 205.944726 8.61504 
L 206.773839 9.155747 
L 208.678679 9.504241 
L 209.587209 9.840938 
L 210.987311 10.962106 
L 211.487661 11.169483 
L 213.054545 11.696328 
L 212.857039 12.241378 
L 211.825616 12.011375 
L 209.958082 12.549128 
L 206.510497 12.649243 
L 205.163063 12.886867 
L 208.244165 13.314437 
L 209.249254 13.300979 
L 208.389003 13.710776 
L 203.425006 13.676371 
L 201.054928 14.141695 
L 200.13762 14.568309 
L 200.497521 15.078989 
L 199.764552 15.703844 
L 198.443453 17.890167 
L 195.248237 20.954835 
L 193.431177 22.165516 
L 192.961551 22.82348 
L 192.158358 23.290048 
L 182.958944 26.231787 
L 180.106072 29.77157 
L 186.233163 40.402687 
L 183.652411 42.654536 
L 183.174006 44.171272 
L 183.705079 45.579072 
L 187.286531 48.437378 
L 189.441546 49.562701 
L 189.702693 50.434977 
L 189.428379 51.221094 
L 189.489825 52.086949 
L 190.299602 52.20959 
L 191.083044 52.453362 
L 191.341997 53.179565 
L 191.140102 53.565777 
L 190.83287 53.896925 
L 190.670475 54.24295 
L 190.907483 54.666106 
L 191.254217 54.834169 
L 195.555469 55.500452 
L 196.253326 55.797141 
L 196.613226 56.393878 
L 196.082153 56.800718 
L 195.090232 57.06969 
L 192.426089 57.486922 
L 184.947176 58.016684 
L 185.285131 58.0838 
L 186.189272 58.395242 
L 184.42927 58.802044 
L 184.005728 59.06682 
L 183.810416 59.577025 
L 184.280043 60.430759 
L 184.231763 60.814842 
L 183.494406 61.122362 
L 179.983179 61.595936 
L 179.004425 62.038384 
L 178.679636 62.574255 
L 178.925422 63.249164 
L 179.103178 63.456187 
L 178.894699 64.214031 
L 178.587466 64.360796 
L 177.485819 64.47618 
L 176.963524 64.54683 
L 176.599234 64.807487 
L 176.621179 65.189947 
L 177.319036 66.177723 
L 177.656991 66.496953 
L 176.25689 66.846166 
L 169.704063 65.91596 
L 166.293784 65.832649 
L 165.282112 65.643257 
L 164.424056 65.254357 
L 162.865949 64.328616 
L 161.865249 64.02256 
L 159.661955 63.823277 
L 158.257464 63.840536 
L 157.261153 63.470303 
L 156.475516 63.610695 
L 155.812772 63.995882 
L 154.86913 64.867164 
L 153.995712 65.167168 
L 153.245188 65.253572 
L 149.949024 65.184448 
L 148.526977 65.36355 
L 147.140042 65.680975 
L 145.612659 66.306662 
L 145.261536 66.717165 
L 144.827022 66.794249 
L 144.418842 66.740761 
L 143.229414 66.479652 
L 141.416743 66.855606 
L 140.631106 66.511108 
L 138.492008 65.457663 
L 134.583018 64.807487 
L 132.823015 64.321552 
L 131.379024 63.663248 
L 127.358669 61.139579 
L 125.9454 60.512102 
L 121.253524 59.012141 
L 120.884845 58.639617 
L 120.757563 58.016684 
L 120.884845 57.739678 
L 121.275469 57.379284 
L 121.13502 57.091523 
L 120.819009 56.944162 
L 120.318659 56.84905 
L 111.395755 56.5474 
L 110.329219 56.157014 
L 109.784979 55.554956 
L 109.389966 54.943891 
L 108.749167 54.523739 
L 107.624024 54.578104 
L 104.281132 54.910428 
L 103.280432 54.852844 
L 102.341179 54.634208 
L 101.445816 54.18929 
L 101.217586 53.950571 
L 101.103471 53.554896 
L 100.739182 53.329526 
L 100.326612 53.220744 
L 98.825563 53.095658 
L 97.151147 52.690975 
L 94.579173 51.515842 
L 92.446103 51.177665 
L 91.906252 51.25677 
L 91.520017 51.168358 
L 91.252286 50.992333 
L 90.457871 50.242799 
L 89.698568 50.008822 
L 88.926098 49.95692 
L 88.381858 50.15602 
L 88.333579 50.675248 
L 89.523007 51.487915 
L 89.812683 51.967426 
L 88.969989 52.386591 
L 87.609388 52.651369 
L 86.942255 52.651369 
L 86.319012 52.453362 
L 85.801106 51.806014 
L 85.410483 51.065996 
L 84.826741 50.448927 
L 83.725094 50.170741 
L 80.736162 50.302464 
L 79.216364 50.753622 
L 76.667528 51.736179 
L 75.583437 52.018649 
L 72.322385 52.198723 
L 70.407144 52.756553 
L 69.956696 52.913105 
L 68.85066 52.843199 
L 67.744623 52.575268 
L 66.419135 52.446374 
L 65.795892 52.757764 
L 65.014644 53.589094 
L 64.3519 53.788086 
L 61.771149 53.896925 
L 57.939523 53.863495 
L 55.709894 54.638876 
L 54.024505 54.976576 
L 53.493432 55.210071 
L 52.795576 55.926432 
L 52.32156 56.231028 
L 51.329638 56.442971 
L 50.118265 56.467129 
L 48.271115 56.179248 
L 48.271115 56.179248 
" clip-path="url(#pa55ea0c02d)" style="fill: none; stroke: #000000; stroke-width: 0.5; stroke-linecap: square"/>
   </g>
  </g>
 </g>
 <defs>
  <clipPath id="pa55ea0c02d">
   <rect x="0" y="-0" width="223.2" height="70.039206"/>
  </clipPath>
 </defs>
</svg>
