<?xml version="1.0" encoding="utf-8" standalone="no"?>
<!DOCTYPE svg PUBLIC "-//W3C//DTD SVG 1.1//EN"
  "http://www.w3.org/Graphics/SVG/1.1/DTD/svg11.dtd">
<svg xmlns:xlink="http://www.w3.org/1999/xlink" width="222.171094pt" height="221.76pt" viewBox="0 0 222.171094 221.76" xmlns="http://www.w3.org/2000/svg" version="1.1">
 <metadata>
  <rdf:RDF xmlns:dc="http://purl.org/dc/elements/1.1/" xmlns:cc="http://creativecommons.org/ns#" xmlns:rdf="http://www.w3.org/1999/02/22-rdf-syntax-ns#">
   <cc:Work>
    <dc:type rdf:resource="http://purl.org/dc/dcmitype/StillImage"/>
    <dc:date>2026-04-26T19:21:49.160683</dc:date>
    <dc:format>image/svg+xml</dc:format>
    <dc:creator>
     <cc:Agent>
      <dc:title>Matplotlib v3.10.9, https://matplotlib.org/</dc:title>
     </cc:Agent>
    </dc:creator>
   </cc:Work>
  </rdf:RDF>
 </metadata>
 <defs>
  <style type="text/css">*{stroke-linejoin: round; stroke-linecap: butt}</style>
 </defs>
 <g id="figure_1">
  <g id="patch_1">
   <path d="M 0 221.76 
L 222.171094 221.76 
L 222.171094 0 
L 0 0 
z
" style="fill: #ffffff"/>
  </g>
  <g id="axes_1">
   <g id="patch_2">
    <path d="M 24.663208 104.580393 
L 24.611922 103.234174 
L 25.033887 100.623874 
L 26.700859 94.542713 
L 27.494655 93.59365 
L 27.79964 93.006968 
L 27.820529 92.812932 
L 27.774572 92.384987 
L 27.777358 92.186892 
L 27.814958 92.09306 
L 27.944473 91.920812 
L 27.987644 91.818825 
L 28.101839 91.07687 
L 28.087913 90.286072 
L 27.431987 86.427923 
L 27.372104 85.702977 
L 27.476551 85.082252 
L 28.636607 82.975205 
L 29.157448 81.678339 
L 29.37052 81.310964 
L 29.603088 81.050831 
L 31.226888 79.613315 
L 31.455279 79.502057 
L 31.621001 79.587083 
L 33.251764 81.429046 
L 33.64727 81.75616 
L 33.825526 81.9566 
L 33.910476 82.221754 
L 33.856163 82.74848 
L 33.87566 83.004169 
L 34.016315 83.072053 
L 34.12494 82.93176 
L 34.304589 82.393704 
L 34.470311 82.206822 
L 34.697309 82.177863 
L 34.861638 82.239854 
L 35.009257 82.215872 
L 35.181942 81.924928 
L 35.262714 81.613187 
L 35.264107 81.400996 
L 35.319812 81.192433 
L 35.564914 80.894305 
L 36.293256 80.181852 
L 36.520254 79.763924 
L 36.623308 79.164678 
L 36.549499 78.901936 
L 36.149816 78.525708 
L 36.020302 78.297361 
L 36.03005 78.105196 
L 36.919937 74.758572 
L 36.971464 74.214111 
L 36.800172 73.855838 
L 36.564818 73.519725 
L 36.433911 73.045408 
L 36.472905 72.667342 
L 38.170514 67.878208 
L 38.220649 67.534366 
L 38.187226 67.207693 
L 37.905915 66.496667 
L 37.808432 66.137583 
L 37.833499 65.424003 
L 37.731837 64.762838 
L 37.740193 64.410192 
L 37.834892 63.995348 
L 37.981117 63.567914 
L 38.164944 63.166665 
L 38.371052 62.829461 
L 38.891894 62.397621 
L 39.186766 62.253129 
L 40.089551 61.810777 
L 40.496197 61.230313 
L 40.52405 61.059972 
L 40.531827 60.742154 
L 40.533798 60.661633 
L 40.572791 60.500324 
L 40.69395 60.348933 
L 41.19808 59.979486 
L 41.461286 59.59385 
L 41.578266 59.179415 
L 41.711958 58.22365 
L 41.95149 57.461696 
L 42.053151 57.264473 
L 42.185451 57.122189 
L 42.479294 56.926781 
L 42.619949 56.780905 
L 42.743893 56.544992 
L 42.782886 56.327098 
L 42.819095 55.841825 
L 42.962535 55.354802 
L 45.497112 49.989204 
L 45.61827 49.815673 
L 45.733858 49.755433 
L 45.994278 49.730258 
L 46.111259 49.667322 
L 46.244951 49.482115 
L 46.293693 49.304108 
L 46.31319 49.118017 
L 46.405103 48.673947 
L 46.402317 48.581363 
L 46.451059 48.526532 
L 46.635646 48.418818 
L 46.654383 48.407885 
L 46.999753 48.263175 
L 51.063432 47.519027 
L 51.177627 47.513635 
L 51.341957 47.548683 
L 51.431084 47.606198 
L 51.509071 47.679889 
L 51.631622 47.764367 
L 51.999275 47.892883 
L 52.209562 47.785936 
L 52.325149 47.444439 
L 52.589748 45.512775 
L 52.586963 45.088818 
L 52.528473 44.829703 
L 52.213739 44.136858 
L 52.201206 43.751641 
L 52.35718 43.454895 
L 52.557718 43.20171 
L 52.678876 42.946296 
L 52.674698 42.797274 
L 52.631527 42.648706 
L 52.524295 42.371781 
L 52.504798 42.039673 
L 53.806902 36.325535 
L 55.808103 32.69496 
L 55.932047 32.204192 
L 55.979396 31.223725 
L 56.028138 30.875467 
L 56.587498 29.141096 
L 56.833075 28.379879 
L 56.795474 27.516595 
L 56.561513 26.65215 
L 56.487704 26.227373 
L 56.482134 25.78744 
L 56.542016 25.419077 
L 57.752207 20.710649 
L 58.012628 20.7169 
L 58.111504 20.37802 
L 58.281404 20.202563 
L 58.508402 20.13649 
L 58.795283 20.126668 
L 58.981894 20.07265 
L 59.398289 19.828461 
L 59.668458 19.773107 
L 60.275643 19.773107 
L 60.389838 19.733824 
L 60.60848 19.565538 
L 60.739387 19.526258 
L 61.659911 19.526258 
L 62.093018 19.600356 
L 62.971764 19.924438 
L 63.418796 19.998543 
L 63.498176 20.063722 
L 63.741885 20.480708 
L 63.849117 20.57938 
L 63.954956 20.653497 
L 64.071937 20.700826 
L 64.209807 20.7169 
L 64.289186 20.683859 
L 64.485546 20.480708 
L 64.595564 20.469099 
L 64.840666 20.506603 
L 64.945112 20.480708 
L 65.11362 20.334266 
L 65.258453 20.119525 
L 65.360115 19.83471 
L 65.397715 19.472694 
L 65.406071 19.058491 
L 65.452028 18.70681 
L 65.560653 18.366316 
L 65.765368 17.993279 
L 66.151125 17.628754 
L 66.616262 17.497141 
L 67.613381 17.522124 
L 67.907225 17.395422 
L 68.092444 17.36107 
L 68.421103 17.711739 
L 68.675953 17.897794 
L 69.185654 18.818827 
L 69.391762 19.075451 
L 69.44329 19.215151 
L 69.462786 19.472694 
L 69.455823 19.866405 
L 69.493424 20.050329 
L 69.688391 20.190956 
L 70.232908 20.761551 
L 70.291398 20.864695 
L 70.390274 21.189327 
L 70.458513 21.621615 
L 70.539285 21.815892 
L 70.71197 21.896732 
L 70.851233 21.927996 
L 70.989103 22.013751 
L 71.09355 22.144621 
L 71.133936 22.309889 
L 71.149255 22.751679 
L 71.211923 23.038935 
L 71.352578 23.246237 
L 71.594894 23.442379 
L 71.74669 23.248918 
L 72.232716 21.792667 
L 73.007016 19.472694 
L 73.852339 16.94129 
L 74.719944 14.345095 
L 75.595905 11.728805 
L 76.145991 10.08 
L 76.379952 10.335157 
L 76.542889 10.631749 
L 76.800525 11.263309 
L 76.859015 11.324332 
L 76.989922 11.34304 
L 77.037271 11.401838 
L 77.044234 11.472218 
L 77.040056 11.654411 
L 77.048412 11.707867 
L 77.099939 11.832603 
L 77.129184 11.947541 
L 77.187674 12.030405 
L 77.33947 12.062037 
L 77.47177 12.186784 
L 77.501015 12.321336 
L 77.510763 12.47238 
L 77.587358 12.642143 
L 77.698768 12.754432 
L 79.161023 13.502662 
L 79.404733 13.558818 
L 80.172069 13.393917 
L 80.49098 13.418874 
L 80.698481 13.524946 
L 80.836351 13.73487 
L 80.921021 13.995028 
L 80.94776 14.07719 
L 81.013214 14.551496 
L 81.08006 14.720459 
L 81.208181 14.869813 
L 81.365548 14.9786 
L 81.506203 15.111912 
L 81.592546 15.33396 
L 81.720667 15.989032 
L 81.830684 16.292303 
L 81.988051 16.546978 
L 82.198337 16.752604 
L 82.921109 17.242403 
L 83.029734 17.370885 
L 83.120255 17.743863 
L 83.192671 17.898687 
L 83.359786 18.056193 
L 83.472589 18.071364 
L 83.586784 18.030759 
L 84.251066 18.037006 
L 85.280215 17.889763 
L 85.78156 17.722894 
L 86.615742 17.183517 
L 86.878948 17.194224 
L 87.12405 17.296829 
L 87.369152 17.327165 
L 87.618432 17.298613 
L 87.874675 17.222774 
L 88.678219 16.807915 
L 89.27844 16.735654 
L 89.52772 16.518432 
L 89.971967 16.009993 
L 90.533195 15.68311 
L 90.808934 15.467731 
L 90.999724 15.156499 
L 91.04011 14.838604 
L 91.019221 14.516278 
L 91.04011 14.229193 
L 91.214188 14.016569 
L 91.233685 14.076298 
L 91.715533 14.14539 
L 92.099897 14.255048 
L 92.234982 14.322806 
L 92.528826 14.553279 
L 92.800387 14.862234 
L 93.032956 15.218476 
L 93.218175 15.588128 
L 93.609502 17.0198 
L 93.888027 17.659093 
L 94.225042 17.654631 
L 94.518886 17.067978 
L 94.70132 16.860551 
L 95.036942 16.793642 
L 95.766678 16.940398 
L 96.022921 16.921217 
L 97.127272 16.538058 
L 97.677358 16.203549 
L 97.91689 15.800838 
L 98.022729 15.455691 
L 98.255298 15.459704 
L 98.522681 15.647882 
L 98.727397 15.861488 
L 99.001744 16.276246 
L 99.083909 16.374814 
L 99.160503 16.425214 
L 99.85403 16.685251 
L 100.21472 16.725841 
L 100.824749 16.596639 
L 100.987627 16.562143 
L 101.416555 16.543856 
L 101.820416 16.710675 
L 102.192247 17.003741 
L 102.901093 17.772418 
L 103.105809 17.894225 
L 103.360659 17.94866 
L 103.623865 17.855853 
L 104.038867 17.416836 
L 104.285362 17.338764 
L 104.555215 17.399071 
L 104.870264 17.46948 
L 105.062446 17.463234 
L 105.728121 17.217421 
L 105.966259 17.213852 
L 107.17645 17.581908 
L 107.75996 17.879054 
L 108.29055 18.273946 
L 109.323126 19.471514 
L 110.238831 20.533839 
L 111.022879 21.041074 
L 112.451712 21.900305 
L 112.831898 22.05395 
L 114.049052 22.271474 
L 114.964006 22.701199 
L 115.784262 23.434337 
L 117.193598 25.441429 
L 118.619645 27.473659 
L 119.666899 29.799098 
L 120.619454 31.918087 
L 121.026101 32.424941 
L 122.843475 33.88674 
L 125.183085 35.768025 
L 126.595206 37.232765 
L 127.622963 38.298465 
L 128.147982 38.985907 
L 128.606156 39.745224 
L 129.035084 40.644196 
L 130.082338 43.50697 
L 130.787006 44.754711 
L 131.838437 45.609787 
L 132.607166 46.010436 
L 133.356398 46.542294 
L 133.998398 47.242699 
L 134.877144 49.139593 
L 135.975924 51.027831 
L 136.619317 51.890385 
L 135.807417 53.274943 
L 135.396593 54.413306 
L 133.6015 57.527439 
L 133.396784 58.162401 
L 133.289552 58.377676 
L 132.972033 58.575846 
L 132.823023 58.783934 
L 132.278506 60.072296 
L 131.165136 62.084253 
L 130.649136 63.016994 
L 130.500125 63.209043 
L 130.313513 63.392082 
L 130.125509 63.506597 
L 129.973713 63.565209 
L 129.859518 63.668006 
L 129.784316 63.916892 
L 129.650624 64.140539 
L 129.121427 64.436347 
L 128.922281 64.608609 
L 128.70921 65.163315 
L 128.523991 66.486742 
L 128.1257 68.070444 
L 128.135449 69.023613 
L 128.483605 71.032083 
L 128.649327 72.932031 
L 128.617297 76.295567 
L 128.532346 77.042761 
L 128.29003 77.540949 
L 128.36033 77.658833 
L 128.458537 77.823517 
L 128.79416 77.98764 
L 130.38593 78.400907 
L 130.431886 78.490438 
L 130.466702 78.593988 
L 130.547474 78.680808 
L 130.664455 78.702514 
L 130.735478 78.637398 
L 130.796754 78.550126 
L 130.888667 78.502195 
L 131.651825 78.461499 
L 132.023656 78.341673 
L 132.441443 77.798198 
L 132.803526 77.644932 
L 133.545795 77.540949 
L 134.237929 77.744848 
L 134.492779 77.748465 
L 134.675213 77.689691 
L 135.155669 77.413006 
L 135.271256 77.397636 
L 135.51218 77.408486 
L 135.627768 77.394019 
L 136.067838 77.203243 
L 136.372822 77.266533 
L 136.581716 77.357852 
L 136.785039 77.371415 
L 137.074705 77.195557 
L 137.970163 76.440206 
L 139.183139 75.967432 
L 139.700736 75.915979 
L 139.801464 75.905965 
L 140.756804 76.196582 
L 141.0785 76.212853 
L 141.337529 76.33715 
L 141.677329 77.29004 
L 141.905719 77.536428 
L 142.206526 77.621422 
L 142.763576 77.694212 
L 143.096413 77.817187 
L 143.273277 77.855165 
L 143.472422 77.762029 
L 143.607507 77.54999 
L 143.742591 77.401252 
L 143.952877 77.495739 
L 143.785762 77.870538 
L 143.649285 78.58404 
L 143.546231 78.88023 
L 143.320626 79.123977 
L 142.75522 79.427433 
L 142.547719 79.704675 
L 142.44188 80.053847 
L 142.38896 80.342881 
L 142.302617 80.611122 
L 142.092331 80.897924 
L 141.610483 81.398281 
L 141.451724 81.679243 
L 141.323602 82.10456 
L 141.194088 82.816361 
L 141.095212 83.161209 
L 140.933668 83.452219 
L 140.671854 83.642764 
L 140.403078 83.748676 
L 140.227607 83.913431 
L 140.245711 84.284602 
L 140.514488 85.069575 
L 140.873785 85.797156 
L 141.617446 86.727257 
L 141.824947 87.072349 
L 141.971173 87.551528 
L 142.143858 89.151954 
L 142.395923 90.277915 
L 142.774717 91.34835 
L 143.125658 91.890896 
L 144.418014 92.971606 
L 144.736925 93.391433 
L 144.979242 93.911952 
L 145.150534 94.485574 
L 145.260552 95.062428 
L 145.518187 95.877466 
L 145.892803 96.359648 
L 146.385792 96.61595 
L 146.99994 96.755221 
L 147.503374 97.047835 
L 147.761009 97.611781 
L 148.150944 100.411884 
L 148.333378 101.105077 
L 148.627918 101.526387 
L 148.992089 101.646248 
L 149.103499 101.716168 
L 149.233013 101.890064 
L 149.361135 102.272379 
L 149.450959 102.462637 
L 149.580473 102.615211 
L 149.852035 102.847712 
L 149.975282 103.004837 
L 150.280963 103.800968 
L 150.363128 104.117088 
L 150.397247 104.706675 
L 150.455737 105.036469 
L 150.62703 105.31131 
L 151.330306 105.856486 
L 152.367811 106.664341 
L 152.618483 106.69524 
L 152.947143 106.532115 
L 153.162999 106.51394 
L 153.355182 106.649801 
L 154.391991 107.87632 
L 155.593129 109.291723 
L 157.308843 111.319013 
L 158.250257 112.430905 
L 158.776669 112.832051 
L 159.857345 113.295082 
L 161.045254 113.804546 
L 162.233163 114.313138 
L 163.421071 114.82268 
L 164.60898 115.331806 
L 165.795496 115.841426 
L 166.984797 116.350175 
L 168.171314 116.859872 
L 169.359222 117.369608 
L 170.545738 117.878928 
L 171.73504 118.38783 
L 172.920859 118.896771 
L 174.109464 119.408026 
L 175.296677 119.916587 
L 176.485282 120.425186 
L 177.671798 120.935188 
L 178.861099 121.445229 
L 179.993303 121.940732 
L 181.124114 122.436271 
L 182.256318 122.931389 
L 183.385736 123.426998 
L 184.516547 123.922642 
L 185.647358 124.41832 
L 186.777473 124.914945 
L 187.90898 125.410237 
L 189.039791 125.905564 
L 190.171995 126.400924 
L 191.30211 126.896775 
L 192.433617 127.39266 
L 193.565821 127.888579 
L 194.695239 128.385443 
L 195.827443 128.880518 
L 196.956862 129.377449 
L 197.807755 129.750398 
L 198.598766 130.262892 
L 199.796423 130.263804 
L 201.716156 130.263804 
L 203.811359 130.263804 
L 205.933719 130.263804 
L 207.689819 130.263804 
L 210.152675 130.263804 
L 212.072408 130.262892 
L 211.417874 131.090069 
L 210.760556 131.917339 
L 210.105326 132.7447 
L 209.451489 133.57124 
L 208.796259 134.399694 
L 208.142421 135.226414 
L 207.487888 136.054135 
L 206.831962 136.881946 
L 206.177428 137.708931 
L 206.052273 137.867421 
L 205.522895 138.53783 
L 204.868361 139.365903 
L 204.213828 140.194063 
L 203.559294 141.022309 
L 202.904761 141.851554 
L 202.248835 142.679971 
L 201.592909 143.507558 
L 200.938375 144.336143 
L 200.283842 145.163898 
L 199.627915 145.993563 
L 198.973382 146.822396 
L 198.320241 147.652225 
L 197.665707 148.480307 
L 197.011174 149.309384 
L 196.355248 150.139456 
L 195.700018 150.967321 
L 195.046181 151.797094 
L 194.391647 152.626488 
L 193.737114 153.455961 
L 193.462767 153.803045 
L 192.858368 154.567227 
L 192.254665 155.331017 
L 191.980318 155.679089 
L 191.696238 156.039379 
L 191.116195 156.775076 
L 190.294546 157.88126 
L 189.47429 158.988491 
L 188.651249 160.095396 
L 187.828208 161.202431 
L 187.005167 162.309594 
L 186.183519 163.416885 
L 185.361174 164.52476 
L 184.541614 165.632302 
L 183.09607 167.708989 
L 181.650526 169.786102 
L 180.204982 171.865465 
L 178.915905 173.718466 
L 178.759437 173.943405 
L 177.313893 176.021745 
L 175.869045 178.101394 
L 174.422805 180.181426 
L 172.977261 182.260917 
L 172.211317 183.364778 
L 172.207836 183.364778 
L 171.141782 184.880633 
L 170.751847 185.095299 
L 170.021415 185.039338 
L 169.323014 184.986131 
L 168.625309 184.932464 
L 167.926212 184.879257 
L 167.228507 184.826967 
L 166.529409 184.77376 
L 166.496899 184.771302 
L 165.831704 184.721012 
L 165.132607 184.667806 
L 164.434206 184.615058 
L 163.737197 184.561393 
L 163.0381 184.508646 
L 162.340395 184.454523 
L 161.641297 184.401318 
L 160.943592 184.34903 
L 160.244495 184.294908 
L 159.54679 184.242162 
L 158.847693 184.188958 
L 158.037185 184.12658 
L 157.542803 184.282065 
L 156.368821 184.829719 
L 155.96496 184.951729 
L 154.635004 185.354462 
L 153.611425 185.66409 
L 152.10182 186.121894 
L 151.170154 186.703119 
L 149.656371 187.647265 
L 148.117521 188.608918 
L 146.587723 189.56422 
L 145.458304 190.78621 
L 144.447259 191.878893 
L 144.34142 192.052832 
L 144.252292 192.243294 
L 144.07125 192.84086 
L 143.831719 194.082891 
L 143.628396 194.654832 
L 143.231716 195.239927 
L 143.214786 195.264899 
L 142.712049 195.699168 
L 142.148036 195.996188 
L 141.18991 196.211496 
L 139.163642 196.666914 
L 137.09838 197.131529 
L 135.51218 197.486428 
L 134.495565 197.500201 
L 133.329938 197.515812 
L 132.892654 197.661355 
L 132.427517 197.969435 
L 131.665752 198.770198 
L 130.714589 199.53932 
L 130.475058 199.817592 
L 130.383144 200.163373 
L 130.394285 200.708005 
L 130.323262 200.929813 
L 130.138043 201.126366 
L 129.957001 201.476311 
L 129.295505 201.970012 
L 128.695284 201.815241 
L 128.102026 201.401912 
L 127.461418 201.126366 
L 126.890442 201.556679 
L 126.695475 201.614545 
L 126.503293 201.567702 
L 126.146781 201.37252 
L 125.932317 201.353232 
L 124.853033 201.704559 
L 124.496521 201.730278 
L 123.819705 201.980116 
L 122.308708 202.094933 
L 120.932795 202.198269 
L 120.228127 202.09034 
L 119.574986 201.740841 
L 118.976157 201.126366 
L 118.111337 199.531055 
L 117.759003 199.103097 
L 117.541754 198.932284 
L 116.898362 198.643009 
L 116.65326 198.478171 
L 116.513997 198.298183 
L 116.288392 197.74859 
L 115.956947 197.250899 
L 115.145047 196.525053 
L 114.848418 196.008124 
L 113.998917 196.744042 
L 112.877855 197.311043 
L 111.454592 198.031419 
L 109.713812 198.914376 
L 109.637217 199.008507 
L 109.557838 199.295493 
L 109.485421 199.385493 
L 108.422849 199.872696 
L 107.058077 200.499977 
L 107.020476 200.502732 
L 106.98009 200.488037 
L 106.939704 200.457729 
L 106.81019 200.441197 
L 106.797656 200.511917 
L 106.807405 200.622589 
L 106.746129 200.726833 
L 106.13616 201.126366 
L 104.829878 201.958071 
L 103.669822 202.69429 
L 102.515336 203.430544 
L 102.243774 203.86965 
L 101.979175 204.799344 
L 101.603167 206.109921 
L 101.380347 206.657978 
L 101.122711 207.105442 
L 100.062924 208.383124 
L 99.178608 209.446785 
L 98.830451 209.998169 
L 98.536608 211.182327 
L 98.30961 211.65013 
L 97.879289 211.68 
L 97.664825 211.49205 
L 97.563163 211.254472 
L 97.492139 211.013682 
L 97.375159 210.81425 
L 96.960157 210.629986 
L 95.277866 210.563816 
L 95.40181 210.23573 
L 95.339142 210.051471 
L 95.162279 210.037686 
L 95.075903 210.103293 
L 94.553702 210.499944 
L 94.039823 210.517406 
L 93.514804 210.369904 
L 92.301564 209.634803 
L 92.12775 209.529492 
L 91.998236 209.488138 
L 91.223937 209.703636 
L 91.015043 209.707312 
L 90.813112 209.608523 
L 90.587507 209.568088 
L 90.022102 209.711907 
L 89.67116 209.719259 
L 88.667078 209.360863 
L 87.337122 208.886689 
L 87.090627 208.708418 
L 86.880341 208.426312 
L 86.515473 207.792281 
L 86.521044 207.909897 
L 86.50294 208.159373 
L 86.505725 208.281126 
L 85.718892 208.206237 
L 85.647868 208.144671 
L 85.633942 208.049107 
L 85.608875 207.989839 
L 85.418085 208.08816 
L 85.344276 208.101483 
L 85.168805 208.075755 
L 84.980801 208.013271 
L 84.927881 207.908978 
L 84.901421 207.768391 
L 84.792797 207.598861 
L 84.537946 207.31999 
L 84.466923 207.279102 
L 84.337408 207.348474 
L 84.309556 207.496409 
L 84.320697 207.654911 
L 84.303985 207.756905 
L 83.617422 208.152941 
L 82.862619 208.237938 
L 81.422645 208.024297 
L 79.99242 207.810659 
L 79.570455 207.854765 
L 79.145704 207.993974 
L 78.981375 207.957679 
L 78.670819 207.601617 
L 78.268351 207.438521 
L 78.095666 207.312639 
L 77.888164 206.988292 
L 77.545579 206.263816 
L 77.294906 205.934436 
L 76.879904 205.582553 
L 75.536022 204.442894 
L 74.253415 203.355218 
L 72.862183 202.175764 
L 71.626925 201.126825 
L 70.535107 200.201028 
L 68.99765 198.899683 
L 67.684405 197.78578 
L 66.37116 196.672423 
L 65.641425 196.054949 
L 65.562045 196.027405 
L 65.481273 196.030159 
L 65.411642 196.009042 
L 65.36847 195.913554 
L 65.298839 195.518757 
L 65.245919 195.34661 
L 65.156791 195.188237 
L 65.056522 195.146005 
L 64.786353 195.172629 
L 64.687477 195.086329 
L 64.475798 194.616273 
L 64.344891 194.486368 
L 63.794805 194.320202 
L 62.836679 193.683556 
L 62.033135 193.391177 
L 59.43589 193.420552 
L 59.402518 193.40996 
L 59.323087 193.384751 
L 59.123942 193.227319 
L 59.006962 193.193354 
L 56.898528 193.250268 
L 54.394589 193.316362 
L 54.220511 193.285151 
L 53.975409 193.129097 
L 53.84311 193.081822 
L 53.701062 193.08274 
L 53.237318 193.165815 
L 51.270248 193.187261 
L 51.21662 193.187846 
L 50.907458 193.091001 
L 50.620577 192.84545 
L 50.098343 192.243294 
L 49.857419 192.044571 
L 49.766898 191.793531 
L 49.771076 191.491097 
L 49.811462 191.134978 
L 49.797536 190.792634 
L 49.61928 190.374584 
L 49.59282 190.068053 
L 47.755948 187.495867 
L 47.425896 186.758169 
L 47.313094 185.894825 
L 47.370191 182.183417 
L 47.43843 181.954587 
L 47.953701 181.097549 
L 48.063718 180.741729 
L 48.060933 180.376291 
L 47.941168 179.950344 
L 47.673784 179.278214 
L 47.632005 178.933453 
L 47.722525 178.520395 
L 48.087393 177.824054 
L 48.020547 177.665905 
L 47.282456 177.29094 
L 46.396747 176.573591 
L 46.055554 176.452586 
L 45.806274 176.529589 
L 45.56535 176.676721 
L 45.245047 176.766102 
L 44.91778 176.64922 
L 44.337055 176.032745 
L 44.030678 175.796248 
L 43.789754 175.714208 
L 43.508444 175.666085 
L 43.224348 175.666085 
L 42.982032 175.728875 
L 42.685403 175.988745 
L 42.136709 176.778478 
L 41.833117 177.056708 
L 41.507242 177.121339 
L 41.259355 176.967784 
L 41.058817 176.671221 
L 40.615963 175.751791 
L 40.563043 175.588171 
L 40.578362 175.371391 
L 40.674453 175.180279 
L 40.791433 174.995587 
L 40.872206 174.794858 
L 40.813715 174.583592 
L 40.714839 174.227062 
L 40.19539 173.675335 
L 39.116106 172.847797 
L 38.514492 172.265901 
L 38.373837 171.92411 
L 38.256857 170.895136 
L 38.064675 170.422374 
L 36.97425 168.39139 
L 36.840558 167.999806 
L 36.816883 167.766694 
L 36.84195 167.572057 
L 36.885122 167.369638 
L 36.914367 167.118223 
L 36.872588 166.919935 
L 36.651161 166.606712 
L 36.582922 166.414387 
L 36.588493 166.20787 
L 36.635842 166.007768 
L 36.77789 165.632302 
L 36.753388 165.429542 
L 36.638627 164.479893 
L 36.531395 164.135158 
L 36.301612 163.759764 
L 36.046762 163.452592 
L 35.822549 163.11659 
L 35.567699 162.249175 
L 35.092814 161.167648 
L 35.025968 160.813421 
L 35.01622 159.770037 
L 34.929877 159.310619 
L 34.392324 158.104068 
L 34.278129 157.747211 
L 34.168111 156.727044 
L 33.868697 155.718425 
L 33.729435 155.00354 
L 33.59435 154.281394 
L 33.501044 154.204564 
L 33.338107 153.96173 
L 33.272654 153.637046 
L 33.190489 153.444071 
L 32.274142 152.64935 
L 32.044359 152.530468 
L 31.750515 152.483373 
L 31.175361 152.482459 
L 30.937223 152.414789 
L 30.781249 152.241501 
L 30.689335 151.516837 
L 30.672624 151.441859 
L 30.611348 151.261276 
L 30.597422 151.154299 
L 30.626667 151.136927 
L 30.752004 151.02218 
L 30.781249 150.972807 
L 30.761752 150.625834 
L 30.704654 150.316816 
L 30.614134 150.048034 
L 30.497153 149.814914 
L 29.628156 149.021438 
L 27.72026 148.425465 
L 27.678481 148.360569 
L 27.586568 148.306641 
L 27.493262 148.221637 
L 27.425024 147.915448 
L 27.35957 147.809426 
L 26.808091 147.27934 
L 26.674399 147.053607 
L 26.590842 146.950338 
L 26.486395 146.905558 
L 26.381948 146.73101 
L 26.348525 146.331665 
L 26.348525 146.141023 
L 26.348525 145.587857 
L 26.283072 145.225115 
L 26.15495 144.912639 
L 25.971124 144.768283 
L 25.746911 144.908071 
L 25.494846 144.98025 
L 25.235818 144.72991 
L 24.868165 144.129674 
L 24.24984 143.49751 
L 24.163497 143.444527 
L 24.130074 143.354092 
L 24.123111 141.704512 
L 24.029805 141.108152 
L 23.798629 140.62233 
L 22.126087 138.393588 
L 21.723619 138.085029 
L 21.582964 138.043036 
L 21.304439 137.999218 
L 21.170747 137.953575 
L 20.491146 137.297253 
L 20.065003 136.520509 
L 19.884658 136.254919 
L 19.756537 136.171867 
L 19.331786 136.013067 
L 18.964134 135.699126 
L 18.822086 135.651671 
L 17.947518 135.759358 
L 17.658548 135.651671 
L 17.517197 135.517521 
L 17.330585 135.1963 
L 17.199678 135.03752 
L 17.06529 134.951743 
L 16.818099 134.85958 
L 16.697637 134.736394 
L 16.465765 134.624159 
L 16.117609 134.640583 
L 15.535492 134.796618 
L 15.415726 134.872355 
L 15.084282 135.157973 
L 14.913685 135.163449 
L 14.16515 134.91433 
L 13.92144 134.629634 
L 13.709761 134.307538 
L 13.50226 134.073046 
L 13.388065 134.029251 
L 12.950781 133.941661 
L 12.566417 133.739113 
L 12.452918 133.712654 
L 12.01633 133.839474 
L 11.946699 133.881443 
L 11.864534 134.027426 
L 11.684885 133.993667 
L 11.386864 133.821226 
L 11.021996 133.768309 
L 10.927298 133.712654 
L 10.878556 133.604084 
L 10.837473 133.4426 
L 10.78525 133.293892 
L 10.552682 133.113256 
L 10.438486 132.838662 
L 10.098686 131.662855 
L 10.149517 131.470401 
L 10.327773 131.217757 
L 10.338114 131.189592 
L 10.3981 131.026227 
L 10.462161 130.93776 
L 10.527614 130.815549 
L 10.587497 130.444371 
L 10.655736 130.267452 
L 10.827029 129.964693 
L 11.59158 128.948901 
L 11.672352 128.782047 
L 11.736412 128.602889 
L 11.764265 128.453821 
L 11.81997 128.364474 
L 12.223831 128.277862 
L 12.456399 128.137007 
L 12.624907 127.959687 
L 12.730746 127.713089 
L 12.766955 127.363489 
L 12.725176 127.269141 
L 12.541349 127.097768 
L 12.499571 127.002512 
L 12.503749 126.755035 
L 12.526031 126.576838 
L 12.580343 126.416419 
L 12.683397 126.220002 
L 12.803163 126.101972 
L 12.929195 126.047287 
L 13.023894 125.955235 
L 13.042694 125.726932 
L 12.861653 125.62896 
L 12.739102 125.536002 
L 12.640226 125.339153 
L 12.545527 125.207924 
L 12.450829 125.037512 
L 12.407657 124.829286 
L 12.434117 124.69761 
L 12.551098 124.365471 
L 12.581736 124.150887 
L 12.558061 124.089838 
L 12.436903 123.976399 
L 12.407657 123.92082 
L 12.417406 123.825606 
L 12.484252 123.706249 
L 12.499571 123.626071 
L 12.498178 123.328147 
L 12.52046 123.192399 
L 12.581736 123.068043 
L 12.766955 122.952343 
L 12.970278 122.898137 
L 13.070547 122.780618 
L 13.030161 122.678132 
L 13.017627 122.607987 
L 13.404777 122.16618 
L 13.641523 122.121545 
L 15.105171 122.542397 
L 15.233293 122.48774 
L 15.418512 122.300541 
L 15.519477 122.232677 
L 15.628102 122.219013 
L 15.802876 122.27048 
L 16.710867 122.130654 
L 16.837596 122.037742 
L 16.843166 121.974435 
L 16.767965 121.842357 
L 17.042312 121.826873 
L 17.26931 121.995385 
L 17.472633 122.208993 
L 17.675956 122.321492 
L 17.932199 122.263193 
L 18.123685 122.122456 
L 18.322134 122.019524 
L 18.595784 122.076911 
L 19.017053 122.538753 
L 19.281652 123.141837 
L 19.608222 123.62516 
L 20.220977 123.727205 
L 20.367203 123.697138 
L 20.425693 123.673449 
L 20.984135 123.048 
L 21.12479 122.924557 
L 21.340647 122.803393 
L 21.566252 122.724137 
L 22.028604 122.654447 
L 22.790369 122.650803 
L 23.041042 122.561527 
L 23.316781 122.346998 
L 24.64813 120.791746 
L 24.926655 120.388303 
L 25.100733 119.98625 
L 25.155737 119.59491 
L 25.217714 119.153987 
L 25.023993 114.058896 
L 24.830272 108.967733 
z
" clip-path="url(#paf99328cbb)" style="stroke: #000000; stroke-linejoin: miter"/>
   </g>
   <g id="line2d_1">
    <path d="M 24.663208 104.580393 
L 24.611922 103.234174 
L 25.033887 100.623874 
L 26.700859 94.542713 
L 27.494655 93.59365 
L 27.820529 92.812932 
L 27.814958 92.09306 
L 27.987644 91.818825 
L 28.101839 91.07687 
L 28.087913 90.286072 
L 27.372104 85.702977 
L 27.476551 85.082252 
L 28.636607 82.975205 
L 29.37052 81.310964 
L 29.603088 81.050831 
L 31.455279 79.502057 
L 31.621001 79.587083 
L 33.910476 82.221754 
L 33.87566 83.004169 
L 34.016315 83.072053 
L 34.12494 82.93176 
L 34.470311 82.206822 
L 35.009257 82.215872 
L 35.262714 81.613187 
L 35.319812 81.192433 
L 36.520254 79.763924 
L 36.623308 79.164678 
L 36.549499 78.901936 
L 36.020302 78.297361 
L 36.03005 78.105196 
L 36.971464 74.214111 
L 36.433911 73.045408 
L 36.472905 72.667342 
L 38.220649 67.534366 
L 38.187226 67.207693 
L 37.808432 66.137583 
L 37.833499 65.424003 
L 37.740193 64.410192 
L 37.981117 63.567914 
L 38.371052 62.829461 
L 39.186766 62.253129 
L 40.089551 61.810777 
L 40.52405 61.059972 
L 40.572791 60.500324 
L 40.69395 60.348933 
L 41.19808 59.979486 
L 41.461286 59.59385 
L 41.578266 59.179415 
L 41.711958 58.22365 
L 42.053151 57.264473 
L 42.782886 56.327098 
L 42.962535 55.354802 
L 45.61827 49.815673 
L 46.244951 49.482115 
L 46.635646 48.418818 
L 46.999753 48.263175 
L 51.341957 47.548683 
L 51.999275 47.892883 
L 52.209562 47.785936 
L 52.325149 47.444439 
L 52.586963 45.088818 
L 52.528473 44.829703 
L 52.213739 44.136858 
L 52.201206 43.751641 
L 52.674698 42.797274 
L 52.504798 42.039673 
L 53.806902 36.325535 
L 55.808103 32.69496 
L 55.932047 32.204192 
L 56.028138 30.875467 
L 56.833075 28.379879 
L 56.795474 27.516595 
L 56.487704 26.227373 
L 56.542016 25.419077 
L 57.752207 20.710649 
L 58.012628 20.7169 
L 58.111504 20.37802 
L 58.281404 20.202563 
L 59.668458 19.773107 
L 60.389838 19.733824 
L 60.739387 19.526258 
L 62.093018 19.600356 
L 63.498176 20.063722 
L 63.954956 20.653497 
L 64.289186 20.683859 
L 64.595564 20.469099 
L 64.945112 20.480708 
L 65.258453 20.119525 
L 65.397715 19.472694 
L 65.452028 18.70681 
L 65.765368 17.993279 
L 66.151125 17.628754 
L 66.616262 17.497141 
L 67.613381 17.522124 
L 68.092444 17.36107 
L 68.675953 17.897794 
L 69.462786 19.472694 
L 69.493424 20.050329 
L 69.688391 20.190956 
L 70.291398 20.864695 
L 70.71197 21.896732 
L 70.989103 22.013751 
L 71.133936 22.309889 
L 71.211923 23.038935 
L 71.594894 23.442379 
L 71.74669 23.248918 
L 76.145991 10.08 
L 76.542889 10.631749 
L 76.859015 11.324332 
L 77.037271 11.401838 
L 77.187674 12.030405 
L 77.47177 12.186784 
L 77.698768 12.754432 
L 79.404733 13.558818 
L 80.49098 13.418874 
L 80.698481 13.524946 
L 80.94776 14.07719 
L 81.08006 14.720459 
L 81.592546 15.33396 
L 81.830684 16.292303 
L 82.198337 16.752604 
L 83.029734 17.370885 
L 83.192671 17.898687 
L 83.472589 18.071364 
L 83.586784 18.030759 
L 84.251066 18.037006 
L 85.78156 17.722894 
L 86.615742 17.183517 
L 87.12405 17.296829 
L 87.618432 17.298613 
L 87.874675 17.222774 
L 88.678219 16.807915 
L 89.27844 16.735654 
L 90.999724 15.156499 
L 91.214188 14.016569 
L 91.233685 14.076298 
L 92.234982 14.322806 
L 92.800387 14.862234 
L 93.218175 15.588128 
L 93.888027 17.659093 
L 94.225042 17.654631 
L 94.70132 16.860551 
L 95.036942 16.793642 
L 96.022921 16.921217 
L 97.127272 16.538058 
L 97.677358 16.203549 
L 98.022729 15.455691 
L 98.255298 15.459704 
L 98.727397 15.861488 
L 99.160503 16.425214 
L 100.21472 16.725841 
L 101.416555 16.543856 
L 101.820416 16.710675 
L 102.192247 17.003741 
L 103.105809 17.894225 
L 103.360659 17.94866 
L 103.623865 17.855853 
L 104.038867 17.416836 
L 104.285362 17.338764 
L 105.062446 17.463234 
L 105.966259 17.213852 
L 107.17645 17.581908 
L 107.75996 17.879054 
L 108.29055 18.273946 
L 110.238831 20.533839 
L 112.451712 21.900305 
L 112.831898 22.05395 
L 114.049052 22.271474 
L 114.964006 22.701199 
L 115.784262 23.434337 
L 118.619645 27.473659 
L 120.619454 31.918087 
L 121.026101 32.424941 
L 125.183085 35.768025 
L 128.147982 38.985907 
L 129.035084 40.644196 
L 130.082338 43.50697 
L 130.787006 44.754711 
L 131.838437 45.609787 
L 132.607166 46.010436 
L 133.356398 46.542294 
L 133.998398 47.242699 
L 134.877144 49.139593 
L 135.975924 51.027831 
L 136.619317 51.890385 
L 135.807417 53.274943 
L 135.396593 54.413306 
L 133.6015 57.527439 
L 133.289552 58.377676 
L 132.823023 58.783934 
L 132.278506 60.072296 
L 130.500125 63.209043 
L 130.125509 63.506597 
L 129.859518 63.668006 
L 129.650624 64.140539 
L 128.922281 64.608609 
L 128.70921 65.163315 
L 128.523991 66.486742 
L 128.1257 68.070444 
L 128.135449 69.023613 
L 128.483605 71.032083 
L 128.649327 72.932031 
L 128.532346 77.042761 
L 128.29003 77.540949 
L 128.458537 77.823517 
L 128.79416 77.98764 
L 130.431886 78.490438 
L 130.547474 78.680808 
L 130.735478 78.637398 
L 130.888667 78.502195 
L 132.023656 78.341673 
L 132.441443 77.798198 
L 132.803526 77.644932 
L 133.545795 77.540949 
L 134.492779 77.748465 
L 134.675213 77.689691 
L 135.271256 77.397636 
L 135.627768 77.394019 
L 136.067838 77.203243 
L 136.785039 77.371415 
L 137.074705 77.195557 
L 137.970163 76.440206 
L 139.183139 75.967432 
L 139.801464 75.905965 
L 141.337529 76.33715 
L 141.677329 77.29004 
L 141.905719 77.536428 
L 143.273277 77.855165 
L 143.472422 77.762029 
L 143.742591 77.401252 
L 143.952877 77.495739 
L 143.785762 77.870538 
L 143.546231 78.88023 
L 143.320626 79.123977 
L 142.75522 79.427433 
L 142.547719 79.704675 
L 142.092331 80.897924 
L 141.451724 81.679243 
L 140.933668 83.452219 
L 140.227607 83.913431 
L 140.245711 84.284602 
L 140.873785 85.797156 
L 141.824947 87.072349 
L 141.971173 87.551528 
L 142.143858 89.151954 
L 142.395923 90.277915 
L 142.774717 91.34835 
L 143.125658 91.890896 
L 144.418014 92.971606 
L 144.736925 93.391433 
L 145.150534 94.485574 
L 145.518187 95.877466 
L 145.892803 96.359648 
L 146.385792 96.61595 
L 146.99994 96.755221 
L 147.503374 97.047835 
L 147.761009 97.611781 
L 148.333378 101.105077 
L 148.627918 101.526387 
L 149.103499 101.716168 
L 149.233013 101.890064 
L 149.580473 102.615211 
L 149.975282 103.004837 
L 150.363128 104.117088 
L 150.455737 105.036469 
L 150.62703 105.31131 
L 152.367811 106.664341 
L 152.618483 106.69524 
L 153.162999 106.51394 
L 153.355182 106.649801 
L 158.250257 112.430905 
L 158.776669 112.832051 
L 190.171995 126.400924 
L 197.807755 129.750398 
L 198.598766 130.262892 
L 212.072408 130.262892 
L 189.47429 158.988491 
L 183.09607 167.708989 
L 171.141782 184.880633 
L 170.751847 185.095299 
L 158.037185 184.12658 
L 157.542803 184.282065 
L 155.96496 184.951729 
L 152.10182 186.121894 
L 146.587723 189.56422 
L 144.252292 192.243294 
L 144.07125 192.84086 
L 143.628396 194.654832 
L 143.214786 195.264899 
L 142.712049 195.699168 
L 142.148036 195.996188 
L 135.51218 197.486428 
L 133.329938 197.515812 
L 132.892654 197.661355 
L 132.427517 197.969435 
L 131.665752 198.770198 
L 130.475058 199.817592 
L 130.383144 200.163373 
L 130.323262 200.929813 
L 129.295505 201.970012 
L 128.695284 201.815241 
L 128.102026 201.401912 
L 127.461418 201.126366 
L 126.695475 201.614545 
L 125.932317 201.353232 
L 123.819705 201.980116 
L 120.932795 202.198269 
L 120.228127 202.09034 
L 119.574986 201.740841 
L 118.976157 201.126366 
L 117.759003 199.103097 
L 117.541754 198.932284 
L 116.65326 198.478171 
L 116.513997 198.298183 
L 116.288392 197.74859 
L 115.956947 197.250899 
L 115.145047 196.525053 
L 114.848418 196.008124 
L 113.998917 196.744042 
L 109.637217 199.008507 
L 109.485421 199.385493 
L 106.939704 200.457729 
L 106.797656 200.511917 
L 106.746129 200.726833 
L 102.515336 203.430544 
L 102.243774 203.86965 
L 101.380347 206.657978 
L 101.122711 207.105442 
L 98.830451 209.998169 
L 98.30961 211.65013 
L 97.879289 211.68 
L 97.664825 211.49205 
L 97.375159 210.81425 
L 96.960157 210.629986 
L 95.277866 210.563816 
L 95.40181 210.23573 
L 95.339142 210.051471 
L 95.075903 210.103293 
L 94.553702 210.499944 
L 94.039823 210.517406 
L 93.514804 210.369904 
L 91.998236 209.488138 
L 91.015043 209.707312 
L 90.587507 209.568088 
L 89.67116 209.719259 
L 87.090627 208.708418 
L 86.515473 207.792281 
L 86.521044 207.909897 
L 86.505725 208.281126 
L 85.647868 208.144671 
L 85.608875 207.989839 
L 85.344276 208.101483 
L 84.980801 208.013271 
L 84.537946 207.31999 
L 84.466923 207.279102 
L 84.337408 207.348474 
L 84.303985 207.756905 
L 83.617422 208.152941 
L 82.862619 208.237938 
L 79.570455 207.854765 
L 78.981375 207.957679 
L 78.670819 207.601617 
L 78.095666 207.312639 
L 76.879904 205.582553 
L 65.481273 196.030159 
L 65.36847 195.913554 
L 65.156791 195.188237 
L 65.056522 195.146005 
L 64.687477 195.086329 
L 64.344891 194.486368 
L 63.794805 194.320202 
L 62.836679 193.683556 
L 62.033135 193.391177 
L 59.323087 193.384751 
L 59.006962 193.193354 
L 54.220511 193.285151 
L 53.701062 193.08274 
L 53.237318 193.165815 
L 50.907458 193.091001 
L 50.620577 192.84545 
L 49.766898 191.793531 
L 49.797536 190.792634 
L 49.59282 190.068053 
L 47.755948 187.495867 
L 47.425896 186.758169 
L 47.313094 185.894825 
L 47.43843 181.954587 
L 48.063718 180.741729 
L 48.060933 180.376291 
L 47.632005 178.933453 
L 47.722525 178.520395 
L 48.087393 177.824054 
L 48.020547 177.665905 
L 47.282456 177.29094 
L 46.396747 176.573591 
L 46.055554 176.452586 
L 45.245047 176.766102 
L 44.91778 176.64922 
L 44.030678 175.796248 
L 43.508444 175.666085 
L 42.982032 175.728875 
L 42.685403 175.988745 
L 41.833117 177.056708 
L 41.507242 177.121339 
L 41.259355 176.967784 
L 41.058817 176.671221 
L 40.563043 175.588171 
L 40.674453 175.180279 
L 40.872206 174.794858 
L 40.714839 174.227062 
L 40.19539 173.675335 
L 38.514492 172.265901 
L 38.373837 171.92411 
L 38.256857 170.895136 
L 38.064675 170.422374 
L 36.840558 167.999806 
L 36.885122 167.369638 
L 36.872588 166.919935 
L 36.582922 166.414387 
L 36.635842 166.007768 
L 36.753388 165.429542 
L 36.531395 164.135158 
L 35.822549 163.11659 
L 35.567699 162.249175 
L 35.025968 160.813421 
L 34.929877 159.310619 
L 34.278129 157.747211 
L 34.168111 156.727044 
L 33.729435 155.00354 
L 33.501044 154.204564 
L 33.338107 153.96173 
L 33.190489 153.444071 
L 32.044359 152.530468 
L 30.781249 152.241501 
L 30.626667 151.136927 
L 30.781249 150.972807 
L 30.704654 150.316816 
L 30.497153 149.814914 
L 29.628156 149.021438 
L 27.586568 148.306641 
L 27.493262 148.221637 
L 27.35957 147.809426 
L 26.381948 146.73101 
L 26.15495 144.912639 
L 25.971124 144.768283 
L 25.494846 144.98025 
L 25.235818 144.72991 
L 24.868165 144.129674 
L 24.130074 143.354092 
L 24.029805 141.108152 
L 23.798629 140.62233 
L 22.126087 138.393588 
L 21.582964 138.043036 
L 21.170747 137.953575 
L 20.491146 137.297253 
L 19.756537 136.171867 
L 19.331786 136.013067 
L 18.822086 135.651671 
L 17.947518 135.759358 
L 17.517197 135.517521 
L 17.06529 134.951743 
L 16.117609 134.640583 
L 15.415726 134.872355 
L 14.913685 135.163449 
L 14.16515 134.91433 
L 13.388065 134.029251 
L 12.950781 133.941661 
L 12.452918 133.712654 
L 11.946699 133.881443 
L 11.864534 134.027426 
L 11.684885 133.993667 
L 11.386864 133.821226 
L 10.927298 133.712654 
L 10.098686 131.662855 
L 10.338114 131.189592 
L 10.827029 129.964693 
L 11.736412 128.602889 
L 11.81997 128.364474 
L 12.456399 128.137007 
L 12.730746 127.713089 
L 12.725176 127.269141 
L 12.499571 127.002512 
L 12.580343 126.416419 
L 12.803163 126.101972 
L 13.023894 125.955235 
L 13.042694 125.726932 
L 12.739102 125.536002 
L 12.434117 124.69761 
L 12.558061 124.089838 
L 12.417406 123.825606 
L 12.499571 123.626071 
L 12.581736 123.068043 
L 13.030161 122.678132 
L 13.017627 122.607987 
L 13.404777 122.16618 
L 13.641523 122.121545 
L 15.233293 122.48774 
L 15.628102 122.219013 
L 15.802876 122.27048 
L 16.837596 122.037742 
L 16.767965 121.842357 
L 17.042312 121.826873 
L 17.675956 122.321492 
L 18.123685 122.122456 
L 18.322134 122.019524 
L 18.595784 122.076911 
L 19.017053 122.538753 
L 19.608222 123.62516 
L 20.425693 123.673449 
L 21.340647 122.803393 
L 22.028604 122.654447 
L 23.041042 122.561527 
L 23.316781 122.346998 
L 24.926655 120.388303 
L 25.155737 119.59491 
L 25.217714 119.153987 
L 24.663208 104.580393 
L 24.663208 104.580393 
" clip-path="url(#paf99328cbb)" style="fill: none; stroke: #000000; stroke-width: 0.5; stroke-linecap: square"/>
   </g>
  </g>
 </g>
 <defs>
  <clipPath id="paf99328cbb">
   <rect x="0" y="-0" width="222.171094" height="221.76"/>
  </clipPath>
 </defs>
</svg>
