<?xml version="1.0" encoding="utf-8" standalone="no"?>
<!DOCTYPE svg PUBLIC "-//W3C//DTD SVG 1.1//EN"
  "http://www.w3.org/Graphics/SVG/1.1/DTD/svg11.dtd">
<svg xmlns:xlink="http://www.w3.org/1999/xlink" width="223.2pt" height="97.637669pt" viewBox="0 0 223.2 97.637669" xmlns="http://www.w3.org/2000/svg" version="1.1">
 <metadata>
  <rdf:RDF xmlns:dc="http://purl.org/dc/elements/1.1/" xmlns:cc="http://creativecommons.org/ns#" xmlns:rdf="http://www.w3.org/1999/02/22-rdf-syntax-ns#">
   <cc:Work>
    <dc:type rdf:resource="http://purl.org/dc/dcmitype/StillImage"/>
    <dc:date>2026-04-26T19:22:22.253635</dc:date>
    <dc:format>image/svg+xml</dc:format>
    <dc:creator>
     <cc:Agent>
      <dc:title>Matplotlib v3.10.9, https://matplotlib.org/</dc:title>
     </cc:Agent>
    </dc:creator>
   </cc:Work>
  </rdf:RDF>
 </metadata>
 <defs>
  <style type="text/css">*{stroke-linejoin: round; stroke-linecap: butt}</style>
 </defs>
 <g id="figure_1">
  <g id="patch_1">
   <path d="M 0 97.637669 
L 223.2 97.637669 
L 223.2 0 
L 0 0 
z
" style="fill: #ffffff"/>
  </g>
  <g id="axes_1">
   <g id="patch_2">
    <path d="M 15.306894 38.268287 
L 11.743043 36.898201 
L 10.560213 36.016884 
L 10.145455 34.254578 
L 11.036417 31.726809 
L 13.187017 31.085434 
L 15.706291 31.018428 
L 17.856891 30.233547 
L 19.946045 27.008784 
L 20.283997 24.59834 
L 21.943031 22.963145 
L 27.96471 22.073986 
L 20.775562 18.604459 
L 20.790923 13.675478 
L 25.583689 4.438076 
L 27.53459 5.563479 
L 29.285793 5.792397 
L 31.098441 5.71609 
L 33.310487 6.040399 
L 59.17913 7.852987 
L 71.944476 10.143233 
L 77.382421 13.331723 
L 82.190548 19.034474 
L 100.4092 29.659299 
L 100.347755 35.059055 
L 113.036294 36.313837 
L 134.619099 41.833657 
L 153.697991 43.617007 
L 157.000698 44.99797 
L 157.369372 47.04113 
L 154.972989 49.545514 
L 151.378416 51.273183 
L 146.37059 52.799636 
L 141.147705 53.894274 
L 136.923313 54.37443 
L 169.965742 53.913479 
L 175.588025 56.862154 
L 180.872356 60.407924 
L 182.654281 62.91696 
L 179.551273 64.041983 
L 157.522986 64.041983 
L 157.522986 65.801987 
L 170.887428 67.591282 
L 196.41812 67.408484 
L 206.740999 70.50705 
L 202.747028 73.414364 
L 199.766911 77.286175 
L 200.565705 80.658839 
L 213.054545 82.798883 
L 212.332558 84.785254 
L 210.397019 87.85266 
L 211.902438 91.819052 
L 199.597935 93.199593 
L 188.076865 89.531599 
L 177.185613 84.592379 
L 153.375401 79.791433 
L 133.282654 69.583115 
L 119.918213 67.273794 
L 114.526352 66.725439 
L 111.008585 65.080622 
L 109.134491 62.330479 
L 108.535395 58.476272 
L 106.092929 56.314589 
L 100.240225 54.028714 
L 93.312221 52.108372 
L 87.7053 50.994808 
L 58.042384 49.545514 
L 51.436971 48.509111 
L 47.596614 46.264085 
L 47.965288 44.02935 
L 53.971606 43.099215 
L 50.730345 40.280778 
L 45.568905 40.577908 
L 39.501142 42.150026 
L 33.310487 43.099215 
L 29.285793 42.552697 
L 18.686408 39.64822 
z
" clip-path="url(#p7d41e69d6b)" style="stroke: #000000; stroke-linejoin: miter"/>
   </g>
   <g id="line2d_1">
    <path d="M 15.306894 38.268287 
L 11.743043 36.898201 
L 10.560213 36.016884 
L 10.145455 34.254578 
L 11.036417 31.726809 
L 13.187017 31.085434 
L 15.706291 31.018428 
L 17.856891 30.233547 
L 19.946045 27.008784 
L 20.283997 24.59834 
L 21.943031 22.963145 
L 27.96471 22.073986 
L 20.775562 18.604459 
L 20.790923 13.675478 
L 25.583689 4.438076 
L 27.53459 5.563479 
L 29.285793 5.792397 
L 31.098441 5.71609 
L 33.310487 6.040399 
L 59.17913 7.852987 
L 71.944476 10.143233 
L 77.382421 13.331723 
L 82.190548 19.034474 
L 100.4092 29.659299 
L 100.347755 35.059055 
L 113.036294 36.313837 
L 134.619099 41.833657 
L 153.697991 43.617007 
L 157.000698 44.99797 
L 157.369372 47.04113 
L 154.972989 49.545514 
L 151.378416 51.273183 
L 146.37059 52.799636 
L 141.147705 53.894274 
L 136.923313 54.37443 
L 169.965742 53.913479 
L 175.588025 56.862154 
L 180.872356 60.407924 
L 182.654281 62.91696 
L 179.551273 64.041983 
L 157.522986 64.041983 
L 157.522986 65.801987 
L 170.887428 67.591282 
L 196.41812 67.408484 
L 206.740999 70.50705 
L 202.747028 73.414364 
L 199.766911 77.286175 
L 200.565705 80.658839 
L 213.054545 82.798883 
L 212.332558 84.785254 
L 210.397019 87.85266 
L 211.902438 91.819052 
L 199.597935 93.199593 
L 188.076865 89.531599 
L 177.185613 84.592379 
L 153.375401 79.791433 
L 133.282654 69.583115 
L 119.918213 67.273794 
L 114.526352 66.725439 
L 111.008585 65.080622 
L 109.134491 62.330479 
L 108.535395 58.476272 
L 106.092929 56.314589 
L 100.240225 54.028714 
L 93.312221 52.108372 
L 87.7053 50.994808 
L 58.042384 49.545514 
L 51.436971 48.509111 
L 47.596614 46.264085 
L 47.965288 44.02935 
L 53.971606 43.099215 
L 50.730345 40.280778 
L 45.568905 40.577908 
L 39.501142 42.150026 
L 33.310487 43.099215 
L 29.285793 42.552697 
L 18.686408 39.64822 
L 15.306894 38.268287 
" clip-path="url(#p7d41e69d6b)" style="fill: none; stroke: #000000; stroke-width: 0.5; stroke-linecap: square"/>
   </g>
  </g>
 </g>
 <defs>
  <clipPath id="p7d41e69d6b">
   <rect x="0" y="0" width="223.2" height="97.637669"/>
  </clipPath>
 </defs>
</svg>
