<?xml version="1.0" encoding="utf-8" standalone="no"?>
<!DOCTYPE svg PUBLIC "-//W3C//DTD SVG 1.1//EN"
  "http://www.w3.org/Graphics/SVG/1.1/DTD/svg11.dtd">
<svg xmlns:xlink="http://www.w3.org/1999/xlink" width="188.515461pt" height="221.76pt" viewBox="0 0 188.515461 221.76" xmlns="http://www.w3.org/2000/svg" version="1.1">
 <metadata>
  <rdf:RDF xmlns:dc="http://purl.org/dc/elements/1.1/" xmlns:cc="http://creativecommons.org/ns#" xmlns:rdf="http://www.w3.org/1999/02/22-rdf-syntax-ns#">
   <cc:Work>
    <dc:type rdf:resource="http://purl.org/dc/dcmitype/StillImage"/>
    <dc:date>2026-04-26T19:22:23.940980</dc:date>
    <dc:format>image/svg+xml</dc:format>
    <dc:creator>
     <cc:Agent>
      <dc:title>Matplotlib v3.10.9, https://matplotlib.org/</dc:title>
     </cc:Agent>
    </dc:creator>
   </cc:Work>
  </rdf:RDF>
 </metadata>
 <defs>
  <style type="text/css">*{stroke-linejoin: round; stroke-linecap: butt}</style>
 </defs>
 <g id="figure_1">
  <g id="patch_1">
   <path d="M 0 221.76 
L 188.515461 221.76 
L 188.515461 0 
L 0 0 
z
" style="fill: #ffffff"/>
  </g>
  <g id="axes_1">
   <g id="patch_2">
    <path d="M 141.411172 53.39625 
L 145.802111 63.806462 
L 152.617897 67.76412 
L 160.678875 66.301503 
L 168.936461 60.623151 
L 179.618895 115.645584 
L 179.946577 126.229149 
L 173.589546 128.853564 
L 155.960254 126.874496 
L 152.421287 129.541936 
L 153.994161 140.900224 
L 161.399775 160.562696 
L 162.972648 173.169444 
L 159.957974 190.122344 
L 152.486824 200.018962 
L 142.787437 204.494016 
L 104.120959 211.68 
L 88.719905 210.389097 
L 80.462318 198.469913 
L 63.095171 206.215201 
L 52.347201 196.662697 
L 44.613906 180.742244 
L 36.487392 169.555191 
L 39.764212 155.70079 
L 40.943867 142.190954 
L 38.453484 129.71403 
L 30.52358 119.001325 
L 32.817353 114.828163 
L 36.487392 103.900661 
L 14.336088 102.093774 
L 8.568885 85.703013 
L 13.94287 49.825854 
L 21.479556 39.631005 
L 37.011683 39.243863 
L 50.774328 34.297073 
L 52.937029 10.08 
L 69.648811 19.500003 
L 74.95726 24.532679 
L 82.821628 18.639722 
L 88.654368 19.327946 
L 94.421572 22.597028 
L 102.417012 24.532679 
L 122.536688 23.371288 
L 130.007838 24.532679 
L 130.597666 26.726425 
L 143.967091 38.254501 
L 146.457475 38.942753 
L 151.634851 48.234239 
L 149.472149 50.471104 
z
" clip-path="url(#p35586b7312)" style="stroke: #000000; stroke-linejoin: miter"/>
   </g>
   <g id="line2d_1">
    <path d="M 141.411172 53.39625 
L 145.802111 63.806462 
L 152.617897 67.76412 
L 160.678875 66.301503 
L 168.936461 60.623151 
L 179.618895 115.645584 
L 179.946577 126.229149 
L 173.589546 128.853564 
L 155.960254 126.874496 
L 152.421287 129.541936 
L 153.994161 140.900224 
L 161.399775 160.562696 
L 162.972648 173.169444 
L 159.957974 190.122344 
L 152.486824 200.018962 
L 142.787437 204.494016 
L 104.120959 211.68 
L 88.719905 210.389097 
L 80.462318 198.469913 
L 63.095171 206.215201 
L 52.347201 196.662697 
L 44.613906 180.742244 
L 36.487392 169.555191 
L 39.764212 155.70079 
L 40.943867 142.190954 
L 38.453484 129.71403 
L 30.52358 119.001325 
L 32.817353 114.828163 
L 36.487392 103.900661 
L 14.336088 102.093774 
L 8.568885 85.703013 
L 13.94287 49.825854 
L 21.479556 39.631005 
L 37.011683 39.243863 
L 50.774328 34.297073 
L 52.937029 10.08 
L 69.648811 19.500003 
L 74.95726 24.532679 
L 82.821628 18.639722 
L 88.654368 19.327946 
L 94.421572 22.597028 
L 102.417012 24.532679 
L 122.536688 23.371288 
L 130.007838 24.532679 
L 130.597666 26.726425 
L 143.967091 38.254501 
L 146.457475 38.942753 
L 151.634851 48.234239 
L 149.472149 50.471104 
L 141.411172 53.39625 
" clip-path="url(#p35586b7312)" style="fill: none; stroke: #000000; stroke-width: 0.5; stroke-linecap: square"/>
   </g>
  </g>
 </g>
 <defs>
  <clipPath id="p35586b7312">
   <rect x="0" y="-0" width="188.515461" height="221.76"/>
  </clipPath>
 </defs>
</svg>
