<?xml version="1.0" encoding="utf-8" standalone="no"?>
<!DOCTYPE svg PUBLIC "-//W3C//DTD SVG 1.1//EN"
  "http://www.w3.org/Graphics/SVG/1.1/DTD/svg11.dtd">
<svg xmlns:xlink="http://www.w3.org/1999/xlink" width="223.2pt" height="187.449479pt" viewBox="0 0 223.2 187.449479" xmlns="http://www.w3.org/2000/svg" version="1.1">
 <metadata>
  <rdf:RDF xmlns:dc="http://purl.org/dc/elements/1.1/" xmlns:cc="http://creativecommons.org/ns#" xmlns:rdf="http://www.w3.org/1999/02/22-rdf-syntax-ns#">
   <cc:Work>
    <dc:type rdf:resource="http://purl.org/dc/dcmitype/StillImage"/>
    <dc:date>2026-04-26T19:22:15.616224</dc:date>
    <dc:format>image/svg+xml</dc:format>
    <dc:creator>
     <cc:Agent>
      <dc:title>Matplotlib v3.10.9, https://matplotlib.org/</dc:title>
     </cc:Agent>
    </dc:creator>
   </cc:Work>
  </rdf:RDF>
 </metadata>
 <defs>
  <style type="text/css">*{stroke-linejoin: round; stroke-linecap: butt}</style>
 </defs>
 <g id="figure_1">
  <g id="patch_1">
   <path d="M 0 187.449479 
L 223.2 187.449479 
L 223.2 0 
L 0 0 
z
" style="fill: #ffffff"/>
  </g>
  <g id="axes_1">
   <g id="patch_2">
    <path d="M 213.054545 129.757796 
L 212.715195 131.025401 
L 211.561402 133.418046 
L 211.244675 134.543096 
L 211.176805 137.077872 
L 211.244675 138.7154 
L 210.701714 141.1217 
L 209.321688 143.485105 
L 207.72674 145.421257 
L 206.403272 146.588585 
L 199.367401 150.830461 
L 195.985206 154.957912 
L 195.985206 151.371331 
L 191.969556 153.392391 
L 190.284114 153.748198 
L 191.912997 150.887396 
L 192.082673 150.175713 
L 191.313478 148.524546 
L 190.72527 148.268323 
L 190.012633 148.182915 
L 188.802283 147.129528 
L 187.433568 146.915999 
L 183.440542 149.435545 
L 181.664606 150.175713 
L 181.970022 153.748198 
L 179.526697 155.982574 
L 176.495164 156.978741 
L 175.013333 156.807972 
L 175.160385 154.189393 
L 175.318748 153.221602 
L 175.069891 152.680765 
L 172.773618 150.061842 
L 171.585891 149.264735 
L 170.194553 148.894643 
L 168.362059 148.980049 
L 168.735345 149.748695 
L 168.848462 149.819865 
L 169.233059 150.175713 
L 168.554358 151.826792 
L 167.785163 152.823091 
L 166.767111 153.420856 
L 165.443643 153.748198 
L 165.511513 153.321229 
L 165.047734 152.509972 
L 164.323786 151.712928 
L 163.543279 151.371331 
L 162.593097 151.613295 
L 160.930279 152.381877 
L 160.161084 152.55267 
L 159.052539 153.136208 
L 158.215473 154.417104 
L 157.163486 155.697949 
L 155.432798 156.267196 
L 153.668174 156.381044 
L 152.672746 156.751048 
L 151.948797 157.462582 
L 151.123044 158.529852 
L 150.568771 159.639775 
L 149.833511 162.243669 
L 149.22268 163.310777 
L 148.012329 164.164436 
L 145.150472 165.459108 
L 143.940121 166.341162 
L 139.935783 172.05968 
L 137.560328 174.61987 
L 134.981263 175.359442 
L 133.816159 175.359442 
L 133.001717 176.539875 
L 129.879691 173.041111 
L 119.574741 177.492722 
L 115.050065 176.539875 
L 112.980026 176.440322 
L 112.109026 176.184328 
L 111.158844 175.359442 
L 110.265221 176.411878 
L 108.579779 177.634936 
L 106.634168 178.16112 
L 105.005285 177.137186 
L 103.195415 176.753202 
L 101.114064 178.260667 
L 99.439934 178.929048 
L 98.738609 175.942553 
L 98.286141 175.174551 
L 97.268089 175.53011 
L 96.159543 176.383435 
L 95.458219 177.137186 
L 94.621154 177.649157 
L 93.829335 177.17985 
L 91.159777 174.30697 
L 90.729932 173.126452 
L 90.141724 172.173471 
L 84.056035 170.196298 
L 72.269255 166.383842 
L 68.717384 165.800552 
L 64.826163 164.591257 
L 57.405694 160.322785 
L 54.068746 160.920406 
L 49.792927 158.601002 
L 48.130109 158.344861 
L 41.116861 158.771762 
L 39.816017 158.529852 
L 38.311562 157.747191 
L 37.384004 156.722587 
L 36.682679 155.697949 
L 35.936107 154.957912 
L 26.140184 151.997589 
L 21.864365 149.634823 
L 18.764962 144.097284 
L 17.81478 145.392785 
L 17.181326 143.570526 
L 17.090832 140.096553 
L 16.87591 138.117356 
L 16.400819 137.16331 
L 15.733429 136.323157 
L 15.145221 135.041523 
L 14.896364 132.734452 
L 14.240286 131.808728 
L 11.717779 130.085384 
L 11.649909 129.159583 
L 12.204182 127.564292 
L 11.593351 126.154101 
L 10.631857 124.658376 
L 10.145455 122.806429 
L 10.552675 121.467261 
L 12.407793 118.418306 
L 12.996 116.62299 
L 12.905507 114.400078 
L 12.249429 113.032054 
L 11.525481 111.792233 
L 11.174818 110.039299 
L 12.091065 106.575902 
L 14.376027 105.207543 
L 20.665326 104.65163 
L 24.398184 102.912559 
L 25.416236 102.256819 
L 26.796262 100.24675 
L 26.999872 98.806836 
L 26.683145 97.509431 
L 26.445599 95.698681 
L 26.445599 89.595555 
L 26.637898 87.327977 
L 27.192171 86.9429 
L 28.108418 87.413549 
L 32.995068 89.110677 
L 34.035743 88.996588 
L 35.540198 87.413549 
L 35.675938 86.201259 
L 35.212159 85.01745 
L 34.895432 83.562588 
L 34.759691 81.608406 
L 34.171484 78.184735 
L 34.035743 76.44423 
L 33.628523 74.817772 
L 32.61047 74.075851 
L 31.320938 73.462327 
L 30.167145 72.135363 
L 29.228275 68.196956 
L 31.060769 66.441641 
L 33.605899 65.000215 
L 34.895432 61.903072 
L 35.540198 60.718372 
L 38.628289 59.804839 
L 39.816017 58.976927 
L 40.358978 56.935608 
L 40.098809 55.00837 
L 40.144056 53.252342 
L 41.637199 51.667554 
L 43.220835 53.866249 
L 44.600862 53.323727 
L 45.211693 51.353442 
L 44.566926 49.268808 
L 45.551043 46.669968 
L 46.772706 44.427944 
L 48.062239 43.671048 
L 49.306524 45.670358 
L 50.166213 45.670358 
L 55.96911 39.700628 
L 61.636266 35.586878 
L 62.043487 34.901203 
L 62.484643 34.501219 
L 62.586448 33.701237 
L 62.891864 32.872663 
L 63.977786 32.501227 
L 64.87141 32.686946 
L 65.87815 33.101237 
L 66.387176 33.501238 
L 65.87815 33.701237 
L 65.07502 35.072623 
L 65.527488 38.172316 
L 66.522916 41.42882 
L 67.337358 43.271172 
L 68.197046 42.20005 
L 67.337358 39.972003 
L 66.794397 37.929493 
L 66.760462 35.92971 
L 67.337358 33.701237 
L 68.378034 32.729804 
L 73.03845 29.55816 
L 73.875515 29.129536 
L 79.248567 31.301173 
L 79.961204 30.358243 
L 80.277931 28.315135 
L 80.934009 26.257611 
L 81.567464 25.400271 
L 82.698633 24.714383 
L 83.626191 23.928453 
L 84.598997 23.271115 
L 87.426919 22.642344 
L 87.96988 21.799201 
L 88.331854 20.941745 
L 89.904179 20.127142 
L 90.526322 19.669811 
L 90.990101 20.098559 
L 91.159777 22.356535 
L 91.04666 24.271407 
L 90.684686 25.957545 
L 90.073854 27.52929 
L 89.168919 29.000948 
L 91.408634 29.729608 
L 93.297686 28.300847 
L 95.028374 26.000411 
L 96.928738 24.11422 
L 99.892401 26.50052 
L 103.964609 27.029197 
L 108.082065 26.429076 
L 111.158844 25.400271 
L 115.163182 23.085343 
L 116.859936 21.627712 
L 118.341767 19.912769 
L 120.038521 18.412121 
L 123.330222 18.240614 
L 125.479443 16.911405 
L 129.981496 17.768965 
L 135.16225 16.654132 
L 139.302328 13.566706 
L 140.591861 8.520431 
L 143.589459 9.778498 
L 147.401498 11.95141 
L 150.681888 14.681643 
L 152.073226 17.511699 
L 152.469135 19.612645 
L 153.984902 23.128213 
L 153.962278 25.400271 
L 153.023408 27.286389 
L 149.528096 31.572618 
L 148.272498 33.701237 
L 149.75433 34.701212 
L 150.037122 36.072556 
L 149.437602 37.486695 
L 148.272498 38.500837 
L 150.116304 38.086614 
L 153.917031 32.67266 
L 156.38298 31.301173 
L 159.685993 31.744055 
L 162.581786 33.029808 
L 164.844124 35.272612 
L 166.393825 38.500837 
L 166.597436 39.986285 
L 166.190215 42.028667 
L 166.393825 43.271172 
L 166.902851 43.585361 
L 169.414046 46.227287 
L 169.753397 46.869886 
L 170.262423 47.469633 
L 176.087943 52.295767 
L 177.490593 52.524206 
L 178.949801 52.481374 
L 180.714425 52.86686 
L 183.146438 54.965541 
L 186.856672 61.232223 
L 187.874724 62.545361 
L 190.883634 62.973546 
L 193.813361 64.229525 
L 196.290621 66.512997 
L 197.88557 69.852287 
L 198.02131 74.161458 
L 196.584725 77.471425 
L 194.865348 80.381632 
L 193.983037 83.562588 
L 193.745491 85.231394 
L 193.304335 86.771754 
L 193.078101 88.254993 
L 193.553192 89.595555 
L 194.639115 90.750675 
L 197.21818 92.960974 
L 197.88557 93.788014 
L 197.987375 95.86978 
L 197.512284 97.780322 
L 197.410479 99.548186 
L 198.733946 101.059346 
L 200.4307 100.261006 
L 201.346947 100.845507 
L 201.222518 102.114265 
L 199.774622 103.340208 
L 201.448752 104.166981 
L 202.432869 105.506877 
L 202.568609 107.302819 
L 201.674986 109.440714 
L 201.154648 109.041651 
L 199.774622 108.24351 
L 200.057414 109.070156 
L 200.724804 111.948994 
L 196.324556 113.231562 
L 196.856206 118.218831 
L 199.390024 123.632696 
L 201.199895 126.168346 
L 203.926012 126.481727 
L 205.113739 127.393363 
L 205.860311 128.888958 
L 207.353454 130.954189 
L 207.873792 131.922664 
L 207.93035 132.691727 
L 208.269701 133.1617 
L 209.751532 133.332597 
L 210.61122 132.905352 
L 211.357792 131.837212 
L 211.923376 130.640852 
L 212.206169 129.757796 
z
" clip-path="url(#pd4d07750a3)" style="stroke: #000000; stroke-linejoin: miter"/>
   </g>
   <g id="line2d_1">
    <path d="M 213.054545 129.757796 
L 212.715195 131.025401 
L 211.561402 133.418046 
L 211.244675 134.543096 
L 211.176805 137.077872 
L 211.244675 138.7154 
L 210.701714 141.1217 
L 209.321688 143.485105 
L 207.72674 145.421257 
L 206.403272 146.588585 
L 199.367401 150.830461 
L 195.985206 154.957912 
L 195.985206 151.371331 
L 191.969556 153.392391 
L 190.284114 153.748198 
L 191.912997 150.887396 
L 192.082673 150.175713 
L 191.313478 148.524546 
L 190.72527 148.268323 
L 190.012633 148.182915 
L 188.802283 147.129528 
L 187.433568 146.915999 
L 183.440542 149.435545 
L 181.664606 150.175713 
L 181.970022 153.748198 
L 179.526697 155.982574 
L 176.495164 156.978741 
L 175.013333 156.807972 
L 175.318748 153.221602 
L 175.069891 152.680765 
L 172.773618 150.061842 
L 171.585891 149.264735 
L 170.194553 148.894643 
L 168.362059 148.980049 
L 168.848462 149.819865 
L 169.233059 150.175713 
L 168.554358 151.826792 
L 167.785163 152.823091 
L 166.767111 153.420856 
L 165.443643 153.748198 
L 165.511513 153.321229 
L 165.047734 152.509972 
L 164.323786 151.712928 
L 163.543279 151.371331 
L 162.593097 151.613295 
L 160.930279 152.381877 
L 160.161084 152.55267 
L 159.052539 153.136208 
L 158.215473 154.417104 
L 157.163486 155.697949 
L 155.432798 156.267196 
L 153.668174 156.381044 
L 152.672746 156.751048 
L 151.948797 157.462582 
L 151.123044 158.529852 
L 150.568771 159.639775 
L 149.833511 162.243669 
L 149.22268 163.310777 
L 148.012329 164.164436 
L 145.150472 165.459108 
L 143.940121 166.341162 
L 139.935783 172.05968 
L 137.560328 174.61987 
L 134.981263 175.359442 
L 133.816159 175.359442 
L 133.001717 176.539875 
L 129.879691 173.041111 
L 119.574741 177.492722 
L 115.050065 176.539875 
L 112.980026 176.440322 
L 112.109026 176.184328 
L 111.158844 175.359442 
L 110.265221 176.411878 
L 108.579779 177.634936 
L 106.634168 178.16112 
L 105.005285 177.137186 
L 103.195415 176.753202 
L 101.114064 178.260667 
L 99.439934 178.929048 
L 98.738609 175.942553 
L 98.286141 175.174551 
L 97.268089 175.53011 
L 96.159543 176.383435 
L 95.458219 177.137186 
L 94.621154 177.649157 
L 93.829335 177.17985 
L 91.159777 174.30697 
L 90.729932 173.126452 
L 90.141724 172.173471 
L 72.269255 166.383842 
L 68.717384 165.800552 
L 64.826163 164.591257 
L 57.405694 160.322785 
L 54.068746 160.920406 
L 49.792927 158.601002 
L 48.130109 158.344861 
L 41.116861 158.771762 
L 39.816017 158.529852 
L 38.311562 157.747191 
L 37.384004 156.722587 
L 36.682679 155.697949 
L 35.936107 154.957912 
L 26.140184 151.997589 
L 21.864365 149.634823 
L 18.764962 144.097284 
L 17.81478 145.392785 
L 17.181326 143.570526 
L 17.090832 140.096553 
L 16.87591 138.117356 
L 16.400819 137.16331 
L 15.733429 136.323157 
L 15.145221 135.041523 
L 14.896364 132.734452 
L 14.240286 131.808728 
L 11.717779 130.085384 
L 11.649909 129.159583 
L 12.204182 127.564292 
L 11.593351 126.154101 
L 10.631857 124.658376 
L 10.145455 122.806429 
L 10.552675 121.467261 
L 12.407793 118.418306 
L 12.996 116.62299 
L 12.905507 114.400078 
L 12.249429 113.032054 
L 11.525481 111.792233 
L 11.174818 110.039299 
L 12.091065 106.575902 
L 14.376027 105.207543 
L 20.665326 104.65163 
L 24.398184 102.912559 
L 25.416236 102.256819 
L 26.796262 100.24675 
L 26.999872 98.806836 
L 26.683145 97.509431 
L 26.445599 95.698681 
L 26.445599 89.595555 
L 26.637898 87.327977 
L 27.192171 86.9429 
L 28.108418 87.413549 
L 32.995068 89.110677 
L 34.035743 88.996588 
L 35.540198 87.413549 
L 35.675938 86.201259 
L 35.212159 85.01745 
L 34.895432 83.562588 
L 34.759691 81.608406 
L 34.171484 78.184735 
L 34.035743 76.44423 
L 33.628523 74.817772 
L 32.61047 74.075851 
L 31.320938 73.462327 
L 30.167145 72.135363 
L 29.228275 68.196956 
L 31.060769 66.441641 
L 33.605899 65.000215 
L 34.895432 61.903072 
L 35.540198 60.718372 
L 38.628289 59.804839 
L 39.816017 58.976927 
L 40.358978 56.935608 
L 40.098809 55.00837 
L 40.144056 53.252342 
L 41.637199 51.667554 
L 43.220835 53.866249 
L 44.600862 53.323727 
L 45.211693 51.353442 
L 44.566926 49.268808 
L 45.551043 46.669968 
L 46.772706 44.427944 
L 48.062239 43.671048 
L 49.306524 45.670358 
L 50.166213 45.670358 
L 55.96911 39.700628 
L 61.636266 35.586878 
L 62.043487 34.901203 
L 62.484643 34.501219 
L 62.586448 33.701237 
L 62.891864 32.872663 
L 63.977786 32.501227 
L 64.87141 32.686946 
L 65.87815 33.101237 
L 66.387176 33.501238 
L 65.87815 33.701237 
L 65.07502 35.072623 
L 65.527488 38.172316 
L 66.522916 41.42882 
L 67.337358 43.271172 
L 68.197046 42.20005 
L 67.337358 39.972003 
L 66.794397 37.929493 
L 66.760462 35.92971 
L 67.337358 33.701237 
L 68.378034 32.729804 
L 73.03845 29.55816 
L 73.875515 29.129536 
L 79.248567 31.301173 
L 79.961204 30.358243 
L 80.277931 28.315135 
L 80.934009 26.257611 
L 81.567464 25.400271 
L 82.698633 24.714383 
L 83.626191 23.928453 
L 84.598997 23.271115 
L 87.426919 22.642344 
L 87.96988 21.799201 
L 88.331854 20.941745 
L 89.904179 20.127142 
L 90.526322 19.669811 
L 90.990101 20.098559 
L 91.159777 22.356535 
L 91.04666 24.271407 
L 90.684686 25.957545 
L 90.073854 27.52929 
L 89.168919 29.000948 
L 91.408634 29.729608 
L 93.297686 28.300847 
L 95.028374 26.000411 
L 96.928738 24.11422 
L 99.892401 26.50052 
L 103.964609 27.029197 
L 108.082065 26.429076 
L 111.158844 25.400271 
L 115.163182 23.085343 
L 116.859936 21.627712 
L 118.341767 19.912769 
L 120.038521 18.412121 
L 123.330222 18.240614 
L 125.479443 16.911405 
L 129.981496 17.768965 
L 135.16225 16.654132 
L 139.302328 13.566706 
L 140.591861 8.520431 
L 143.589459 9.778498 
L 147.401498 11.95141 
L 150.681888 14.681643 
L 152.073226 17.511699 
L 152.469135 19.612645 
L 153.984902 23.128213 
L 153.962278 25.400271 
L 153.023408 27.286389 
L 149.528096 31.572618 
L 148.272498 33.701237 
L 149.75433 34.701212 
L 150.037122 36.072556 
L 149.437602 37.486695 
L 148.272498 38.500837 
L 150.116304 38.086614 
L 153.917031 32.67266 
L 156.38298 31.301173 
L 159.685993 31.744055 
L 162.581786 33.029808 
L 164.844124 35.272612 
L 166.393825 38.500837 
L 166.597436 39.986285 
L 166.190215 42.028667 
L 166.393825 43.271172 
L 166.902851 43.585361 
L 169.414046 46.227287 
L 169.753397 46.869886 
L 170.262423 47.469633 
L 176.087943 52.295767 
L 177.490593 52.524206 
L 178.949801 52.481374 
L 180.714425 52.86686 
L 183.146438 54.965541 
L 186.856672 61.232223 
L 187.874724 62.545361 
L 190.883634 62.973546 
L 193.813361 64.229525 
L 196.290621 66.512997 
L 197.88557 69.852287 
L 198.02131 74.161458 
L 196.584725 77.471425 
L 194.865348 80.381632 
L 193.983037 83.562588 
L 193.745491 85.231394 
L 193.304335 86.771754 
L 193.078101 88.254993 
L 193.553192 89.595555 
L 194.639115 90.750675 
L 197.21818 92.960974 
L 197.88557 93.788014 
L 197.987375 95.86978 
L 197.512284 97.780322 
L 197.410479 99.548186 
L 198.733946 101.059346 
L 200.4307 100.261006 
L 201.346947 100.845507 
L 201.222518 102.114265 
L 199.774622 103.340208 
L 201.448752 104.166981 
L 202.432869 105.506877 
L 202.568609 107.302819 
L 201.674986 109.440714 
L 201.154648 109.041651 
L 199.774622 108.24351 
L 200.057414 109.070156 
L 200.724804 111.948994 
L 196.324556 113.231562 
L 196.856206 118.218831 
L 199.390024 123.632696 
L 201.199895 126.168346 
L 203.926012 126.481727 
L 205.113739 127.393363 
L 205.860311 128.888958 
L 207.353454 130.954189 
L 207.873792 131.922664 
L 207.93035 132.691727 
L 208.269701 133.1617 
L 209.751532 133.332597 
L 210.61122 132.905352 
L 211.357792 131.837212 
L 211.923376 130.640852 
L 212.206169 129.757796 
L 213.054545 129.757796 
L 213.054545 129.757796 
" clip-path="url(#pd4d07750a3)" style="fill: none; stroke: #000000; stroke-width: 0.5; stroke-linecap: square"/>
   </g>
  </g>
 </g>
 <defs>
  <clipPath id="pd4d07750a3">
   <rect x="0" y="0" width="223.2" height="187.449479"/>
  </clipPath>
 </defs>
</svg>
