<?xml version="1.0" encoding="utf-8" standalone="no"?>
<!DOCTYPE svg PUBLIC "-//W3C//DTD SVG 1.1//EN"
  "http://www.w3.org/Graphics/SVG/1.1/DTD/svg11.dtd">
<svg xmlns:xlink="http://www.w3.org/1999/xlink" width="223.2pt" height="118.32504pt" viewBox="0 0 223.2 118.32504" xmlns="http://www.w3.org/2000/svg" version="1.1">
 <metadata>
  <rdf:RDF xmlns:dc="http://purl.org/dc/elements/1.1/" xmlns:cc="http://creativecommons.org/ns#" xmlns:rdf="http://www.w3.org/1999/02/22-rdf-syntax-ns#">
   <cc:Work>
    <dc:type rdf:resource="http://purl.org/dc/dcmitype/StillImage"/>
    <dc:date>2026-04-26T19:21:55.955413</dc:date>
    <dc:format>image/svg+xml</dc:format>
    <dc:creator>
     <cc:Agent>
      <dc:title>Matplotlib v3.10.9, https://matplotlib.org/</dc:title>
     </cc:Agent>
    </dc:creator>
   </cc:Work>
  </rdf:RDF>
 </metadata>
 <defs>
  <style type="text/css">*{stroke-linejoin: round; stroke-linecap: butt}</style>
 </defs>
 <g id="figure_1">
  <g id="patch_1">
   <path d="M 0 118.32504 
L 223.2 118.32504 
L 223.2 0 
L 0 0 
z
" style="fill: #ffffff"/>
  </g>
  <g id="axes_1">
   <g id="patch_2">
    <path d="M 164.572851 14.458822 
L 162.337091 14.838964 
L 160.108995 14.985156 
L 155.344355 15.590386 
L 154.491816 15.604687 
L 154.545459 15.769454 
L 154.798347 15.85443 
L 155.12212 15.896931 
L 158.85605 15.84473 
L 160.386788 15.903861 
L 161.744146 16.168322 
L 160.739299 16.844009 
L 160.166469 17.133424 
L 155.413324 18.809275 
L 155.190132 18.924616 
L 155.18151 19.059263 
L 155.432483 19.275727 
L 155.802236 19.53475 
L 159.191318 21.901986 
L 159.683683 22.093798 
L 160.36763 22.190484 
L 165.66391 22.609885 
L 170.960189 23.030112 
L 171.556966 23.114305 
L 172.100101 23.2622 
L 173.628924 23.870645 
L 174.337776 24.156039 
L 177.495045 25.433365 
L 178.65603 25.724204 
L 184.13527 26.725954 
L 183.735822 26.851979 
L 183.547114 26.94837 
L 183.468566 27.070136 
L 183.305721 27.679963 
L 183.217593 27.804083 
L 182.727144 28.232187 
L 182.40816 28.405127 
L 175.06004 30.405188 
L 174.8493 30.50162 
L 174.636644 30.672329 
L 174.519779 30.742134 
L 174.337776 30.801559 
L 173.383699 31.031726 
L 167.279902 33.360256 
L 167.276071 33.361508 
L 166.379468 34.170296 
L 167.076825 34.854324 
L 171.396995 36.394765 
L 172.143611 36.920437 
L 172.170986 36.939733 
L 172.697836 37.129627 
L 172.753395 37.216616 
L 172.772553 37.313306 
L 172.863554 37.41589 
L 173.013946 37.492284 
L 175.146252 38.254968 
L 175.326338 38.424916 
L 175.548732 38.841436 
L 175.650112 39.031542 
L 175.984422 39.375184 
L 176.420271 39.695659 
L 177.489297 40.273444 
L 180.112052 41.342458 
L 181.650454 41.816202 
L 182.110251 42.072339 
L 182.487667 42.468455 
L 183.012601 43.247409 
L 183.190772 43.422828 
L 183.922615 43.850537 
L 184.141018 44.010685 
L 184.688942 44.519997 
L 185.353731 44.951872 
L 185.508912 45.13658 
L 186.03193 46.078923 
L 186.116226 46.331908 
L 186.072162 46.553468 
L 185.786706 46.646631 
L 185.160233 46.592524 
L 184.01649 46.424466 
L 179.59095 46.731377 
L 178.452954 46.922616 
L 178.998962 47.13409 
L 180.378351 47.378287 
L 180.968423 47.58297 
L 180.730861 47.715448 
L 179.242271 48.131855 
L 178.984291 48.280663 
L 178.887844 48.336316 
L 178.887844 48.338972 
L 178.736495 48.720431 
L 178.966393 49.636258 
L 178.772895 50.011258 
L 176.826424 50.629365 
L 176.176962 50.982121 
L 177.040996 51.191684 
L 179.638845 51.169405 
L 180.8688 51.297733 
L 180.981834 51.694099 
L 180.803663 51.780435 
L 180.587175 51.847155 
L 180.422415 51.919811 
L 180.405172 52.023178 
L 180.630281 52.114733 
L 180.958844 52.132509 
L 181.183952 52.166986 
L 181.098699 52.307635 
L 180.633155 52.457523 
L 177.803491 52.621521 
L 177.052491 52.785615 
L 176.516062 53.076796 
L 176.326396 53.526315 
L 177.169356 54.410675 
L 178.368658 55.126255 
L 179.887901 55.585586 
L 181.696434 55.699034 
L 185.120001 55.706126 
L 185.849928 55.797792 
L 186.164122 55.877479 
L 186.192859 55.944629 
L 186.091321 56.021079 
L 186.020435 56.125958 
L 185.982119 56.260936 
L 185.940929 56.324896 
L 185.984035 56.383401 
L 186.194775 56.501541 
L 186.395936 56.583065 
L 187.122031 56.789985 
L 187.441972 56.994863 
L 187.312655 57.202627 
L 186.934281 57.379811 
L 186.489811 57.493418 
L 183.326795 57.883976 
L 183.196519 57.924105 
L 183.123718 57.986784 
L 183.198435 58.018678 
L 183.3153 58.035176 
L 183.376606 58.052226 
L 183.405344 58.237632 
L 183.471439 58.33561 
L 183.604589 58.436374 
L 183.570104 58.465564 
L 183.556693 58.496408 
L 183.571062 58.526155 
L 183.604589 58.555904 
L 183.803834 58.580698 
L 183.838319 58.607147 
L 183.784676 58.677137 
L 184.623804 58.812756 
L 185.265603 59.021822 
L 185.12479 59.272455 
L 184.721511 59.54486 
L 184.562498 59.82305 
L 184.942788 60.025082 
L 185.687083 60.205643 
L 187.008998 60.412926 
L 189.913378 60.673066 
L 190.828181 60.854022 
L 191.361736 61.044533 
L 191.775553 61.24295 
L 192.227686 61.392544 
L 193.292881 61.467648 
L 193.900196 61.565589 
L 194.313054 61.727039 
L 194.160747 61.951543 
L 193.831226 62.163946 
L 193.836973 62.343574 
L 194.059208 62.518285 
L 194.381066 62.723266 
L 194.831283 63.185681 
L 194.721124 63.549624 
L 194.199063 63.868011 
L 193.402083 64.196276 
L 193.402083 64.197399 
L 190.051317 65.235576 
L 188.883626 65.948468 
L 187.696776 66.364329 
L 184.911177 66.680553 
L 183.93173 66.863044 
L 183.604589 66.924021 
L 183.982005 67.211331 
L 188.45544 68.679764 
L 191.013058 69.224208 
L 192.14339 69.675867 
L 192.507396 69.882782 
L 193.018919 70.001734 
L 199.178275 70.960109 
L 202.032844 71.921933 
L 205.793595 72.634519 
L 206.278297 72.774686 
L 206.680618 72.960514 
L 206.817599 73.187462 
L 206.839631 73.394335 
L 206.960328 73.63489 
L 207.14712 73.861728 
L 207.368397 74.028485 
L 207.845436 74.206337 
L 209.014085 74.459087 
L 209.54764 74.619186 
L 210.736405 75.135976 
L 211.173212 75.252802 
L 211.406942 75.311521 
L 211.866738 75.515665 
L 212.123458 75.79737 
L 212.429989 76.064162 
L 213.054545 76.217461 
L 211.406942 77.119444 
L 210.677015 77.542668 
L 210.108017 78.020642 
L 209.232488 79.09945 
L 208.929789 79.352697 
L 208.109819 79.732186 
L 207.763056 79.995043 
L 207.318586 80.544692 
L 207.015887 80.790446 
L 206.615481 80.923439 
L 206.611649 80.923439 
L 206.604944 80.924917 
L 205.623087 81.103209 
L 205.33284 81.202301 
L 205.123058 81.326279 
L 204.783958 81.574962 
L 202.138214 82.447359 
L 201.887241 82.569409 
L 201.419782 82.955737 
L 201.118998 83.099383 
L 200.78373 83.205593 
L 198.675372 83.66532 
L 197.007653 84.156979 
L 196.296884 84.279031 
L 195.967363 84.360523 
L 195.731718 84.461742 
L 195.216363 84.840302 
L 192.871401 85.808718 
L 190.262057 86.690524 
L 190.258225 86.691726 
L 190.255351 86.691726 
L 186.660627 88.337732 
L 183.547114 89.769498 
L 181.036434 90.568108 
L 180.659018 90.751318 
L 180.217422 91.162432 
L 179.866827 91.357203 
L 177.197135 92.324672 
L 176.625263 92.465401 
L 175.428835 92.633674 
L 175.008313 92.750686 
L 174.67496 92.937737 
L 174.337776 93.227364 
L 174.014003 93.475576 
L 171.32611 94.37002 
L 170.785849 94.634042 
L 170.559853 94.772038 
L 170.285821 94.939434 
L 169.189973 95.47062 
L 167.835489 95.857716 
L 165.069048 96.398528 
L 164.059412 96.639274 
L 162.745161 97.060947 
L 161.672302 97.250466 
L 161.370561 97.368616 
L 160.792942 97.675294 
L 159.658778 98.08262 
L 159.319678 98.261484 
L 159.007399 98.508684 
L 159.005484 98.510235 
L 158.279388 98.868446 
L 156.645196 99.009153 
L 155.802236 99.210828 
L 153.114343 100.103005 
L 151.409265 100.921368 
L 149.633301 101.330882 
L 146.957535 102.463327 
L 146.535423 102.642274 
L 144.903146 103.19142 
L 143.32602 103.814331 
L 143.016774 103.702906 
L 142.764851 103.563297 
L 142.476724 103.484603 
L 142.058865 103.557357 
L 142.126748 103.596462 
L 142.244413 103.691517 
L 142.312296 103.73113 
L 141.997016 103.783624 
L 141.945726 103.921329 
L 142.078476 104.087827 
L 142.312296 104.229604 
L 142.03322 104.298032 
L 141.932149 104.312909 
L 142.187089 104.381352 
L 142.312296 104.389288 
L 141.668159 104.601141 
L 141.426796 104.638364 
L 140.149081 104.55499 
L 140.321052 104.417065 
L 140.89278 104.324316 
L 141.171856 104.229604 
L 140.431174 104.184488 
L 140.069129 104.196386 
L 139.768934 104.312909 
L 139.625625 104.461216 
L 139.673898 104.556479 
L 139.830784 104.654742 
L 140.022365 104.812611 
L 139.332972 104.736647 
L 137.776182 104.291586 
L 137.112434 104.389288 
L 137.290439 104.408137 
L 137.365865 104.436908 
L 137.49258 104.55499 
L 137.379441 104.589231 
L 137.216521 104.684028 
L 137.112434 104.729201 
L 137.314575 104.772393 
L 137.489563 104.824031 
L 137.632872 104.890575 
L 137.742994 104.979483 
L 136.818273 104.903488 
L 135.196615 104.486518 
L 134.378999 104.389288 
L 132.9625 104.364488 
L 132.659288 104.312909 
L 132.629117 104.139872 
L 133.107318 104.101705 
L 134.06221 104.146317 
L 133.632282 104.015471 
L 132.279141 103.73113 
L 132.571794 103.491531 
L 132.328922 103.426211 
L 131.905029 103.489552 
L 131.645564 103.640521 
L 131.758702 103.824732 
L 132.003082 104.009029 
L 132.070966 104.177052 
L 131.645564 104.312909 
L 131.609359 104.154248 
L 131.49622 104.111618 
L 131.12965 104.146317 
L 130.903373 104.106662 
L 130.649942 103.930247 
L 130.43724 103.890118 
L 130.309016 103.929256 
L 130.124977 104.104679 
L 129.989211 104.146317 
L 129.814222 104.111618 
L 129.515536 103.937678 
L 129.35865 103.890118 
L 129.188187 103.902503 
L 128.969452 103.951055 
L 128.803515 104.020922 
L 128.794464 104.10121 
L 128.853296 104.217705 
L 128.735632 104.285635 
L 128.568186 104.345145 
L 128.317772 104.6066 
L 127.922541 104.661195 
L 127.079279 104.638364 
L 127.527309 104.834956 
L 127.708331 104.967064 
L 127.654024 105.104683 
L 127.509207 105.077851 
L 126.948038 104.863261 
L 126.770033 104.770904 
L 125.071441 104.976005 
L 124.525357 104.979483 
L 124.662633 104.903488 
L 124.763703 104.820059 
L 124.916064 104.638364 
L 124.588715 104.632408 
L 124.208569 104.669633 
L 123.843507 104.745584 
L 123.5765 104.850846 
L 123.513142 104.937758 
L 123.549346 105.147915 
L 123.513142 105.229922 
L 123.381901 105.279133 
L 122.986669 105.365642 
L 122.816206 105.438243 
L 122.555233 105.459629 
L 122.220342 105.334318 
L 121.879416 105.167297 
L 121.601849 105.062945 
L 121.251873 105.034625 
L 120.832505 105.042575 
L 120.512699 105.103192 
L 120.462918 105.229922 
L 120.072212 105.278139 
L 119.589486 105.194135 
L 119.118828 105.033135 
L 118.761309 104.850846 
L 118.616492 104.61603 
L 118.924229 104.483541 
L 119.40243 104.389784 
L 119.761457 104.271255 
L 120.262285 103.932228 
L 120.336202 103.851975 
L 120.27737 103.576661 
L 120.331677 103.474705 
L 120.56248 103.348039 
L 121.399708 103.126471 
L 122.172069 103.165039 
L 123.775624 103.557357 
L 123.378884 103.086918 
L 122.775476 102.754833 
L 122.033285 102.614077 
L 121.223211 102.720256 
L 120.784232 102.896132 
L 120.070703 103.343092 
L 118.449046 104.361512 
L 118.271041 104.770904 
L 118.817124 105.146425 
L 118.515421 105.345753 
L 118.354009 105.426308 
L 118.183547 105.48002 
L 117.6616 105.48201 
L 117.531867 105.53573 
L 117.676685 105.730773 
L 117.467001 105.70589 
L 117.276927 105.649162 
L 116.919409 105.48002 
L 116.942036 105.622293 
L 116.880187 105.696932 
L 116.747437 105.725299 
L 116.539262 105.730773 
L 116.328069 105.769594 
L 116.282814 105.855213 
L 116.270746 105.941845 
L 116.15459 105.980687 
L 115.819699 105.889565 
L 115.564759 105.68897 
L 115.359601 105.486984 
L 115.193664 105.396471 
L 114.979454 105.325368 
L 114.680767 105.180716 
L 114.366996 105.059964 
L 114.110548 105.062945 
L 114.065292 105.212028 
L 114.317215 105.385034 
L 114.882909 105.655133 
L 113.131519 105.551648 
L 112.973125 105.563587 
L 112.608063 105.699918 
L 112.454195 105.730773 
L 112.30636 105.647171 
L 111.567186 105.396471 
L 110.966796 105.287087 
L 110.725433 105.22346 
L 110.067719 104.916897 
L 109.461294 104.756009 
L 108.818666 104.653253 
L 108.280125 104.638364 
L 108.280125 104.729201 
L 109.29234 104.888588 
L 109.491465 104.972032 
L 109.883679 105.18668 
L 110.35132 105.274162 
L 110.48407 105.379067 
L 110.542902 105.504392 
L 110.556479 105.60886 
L 110.416186 105.674041 
L 110.137111 105.661104 
L 109.941003 105.675037 
L 110.040565 105.821361 
L 110.244215 105.917945 
L 110.936625 106.071829 
L 111.289618 106.288563 
L 111.457064 106.367812 
L 111.693901 106.399217 
L 111.819108 106.466023 
L 111.787429 106.611639 
L 111.66524 106.758305 
L 111.506845 106.82517 
L 110.556479 106.909017 
L 110.533851 106.628597 
L 109.759981 106.233248 
L 109.922901 106.071829 
L 109.693606 106.075316 
L 109.533703 106.133101 
L 109.393411 106.198866 
L 109.22144 106.231753 
L 109.008739 106.219794 
L 108.845819 106.184915 
L 107.744601 105.814392 
L 107.352386 105.717834 
L 106.886254 105.655133 
L 107.546985 105.951804 
L 107.943725 106.08229 
L 108.280125 106.15552 
L 108.094577 106.404202 
L 107.669175 106.66102 
L 107.646547 106.82517 
L 107.820027 107.009856 
L 108.354042 107.332511 
L 108.519979 107.57942 
L 108.133798 107.567421 
L 107.865282 107.525427 
L 107.639004 107.44745 
L 107.382556 107.327514 
L 107.519831 107.24358 
L 107.237738 107.10273 
L 106.875694 107.05679 
L 106.483479 107.042809 
L 106.116909 106.992881 
L 105.557249 106.732859 
L 105.249511 106.652041 
L 104.97647 106.74134 
L 105.094134 106.957936 
L 105.753357 107.11921 
L 107.012969 107.327514 
L 105.745814 107.502932 
L 105.745814 107.57942 
L 105.401872 107.638421 
L 104.911603 107.553923 
L 103.433256 106.991883 
L 103.320117 106.909017 
L 103.342744 106.74134 
L 103.484545 106.6276 
L 103.707806 106.569744 
L 103.320117 106.490455 
L 103.320117 106.399217 
L 104.333841 106.399217 
L 104.071359 106.13609 
L 103.671601 106.114171 
L 103.252233 106.215807 
L 102.93997 106.322952 
L 102.449702 106.433616 
L 101.030186 106.574232 
L 101.030186 106.649547 
L 101.31077 106.705918 
L 101.408824 106.834652 
L 101.381671 107.000869 
L 101.294177 107.167655 
L 101.211208 107.204617 
L 101.079967 107.219602 
L 100.957777 107.257568 
L 100.858215 107.464444 
L 100.748093 107.529926 
L 100.597241 107.567421 
L 97.981471 107.57942 
L 98.014658 107.396473 
L 97.782346 107.308527 
L 97.094462 107.24358 
L 97.138209 107.300533 
L 97.200058 107.442952 
L 97.233246 107.502932 
L 96.663026 107.570421 
L 94.938789 107.57942 
L 94.839227 107.59592 
L 94.807548 107.642421 
L 94.816599 107.78496 
L 94.804531 107.793464 
L 94.721563 107.850494 
L 94.505845 107.822478 
L 94.173971 107.739442 
L 94.151343 107.842489 
L 94.822633 107.983096 
L 95.057962 108.082702 
L 94.885991 108.124753 
L 94.640103 108.128758 
L 94.931247 108.250434 
L 94.558643 108.340587 
L 93.446865 108.433767 
L 93.033531 108.426251 
L 93.083312 108.339084 
L 93.111974 108.301017 
L 93.160246 108.250434 
L 92.363749 108.414227 
L 92.164624 108.517947 
L 92.526669 108.594627 
L 92.409004 108.669816 
L 92.116352 108.666809 
L 91.820682 108.777111 
L 91.47674 108.73399 
L 91.238394 108.594627 
L 91.47674 108.50592 
L 91.675864 108.332072 
L 91.757324 108.141775 
L 91.630609 107.998611 
L 91.254988 107.977091 
L 90.990997 108.141775 
L 90.558052 108.731483 
L 90.367979 108.831271 
L 88.78856 108.872397 
L 88.408414 108.82776 
L 88.203255 108.67884 
L 88.885106 108.606656 
L 88.845884 108.384168 
L 88.357124 108.200858 
L 87.696393 108.250434 
L 88.07654 108.594627 
L 87.80199 108.648762 
L 87.308704 108.79717 
L 87.062816 108.84732 
L 86.104907 108.893463 
L 85.489431 108.9662 
L 85.340088 108.9958 
L 85.222423 109.053501 
L 85.181693 109.142326 
L 85.249577 109.298947 
L 85.1651 109.352171 
L 84.908652 109.355184 
L 84.781936 109.249244 
L 84.718578 109.109203 
L 84.646169 109.008343 
L 84.430451 108.919547 
L 83.290011 108.7014 
L 83.010936 108.677336 
L 82.917407 108.716441 
L 83.1286 108.84732 
L 83.430304 108.932589 
L 83.692786 108.969712 
L 83.804416 109.030921 
L 83.633954 109.184488 
L 83.394099 109.271835 
L 83.131617 109.310997 
L 82.899305 109.371254 
L 82.757505 109.520929 
L 84.0141 109.352171 
L 83.91303 109.468687 
L 83.756144 109.553081 
L 83.380523 109.689253 
L 83.760669 109.781233 
L 83.760669 109.85815 
L 82.510108 110.165961 
L 81.779985 110.531408 
L 81.41794 110.647755 
L 81.001589 110.699139 
L 80.457014 110.710223 
L 80.606358 110.540473 
L 81.137356 110.136276 
L 81.344023 110.027115 
L 81.01064 110.015547 
L 80.543 110.164451 
L 79.68767 110.541984 
L 79.556429 110.330523 
L 79.233606 110.398481 
L 78.853459 110.561625 
L 78.536671 110.634154 
L 78.655843 110.428184 
L 78.868545 110.335053 
L 79.121976 110.271635 
L 79.370881 110.157407 
L 79.420662 110.069871 
L 79.408594 109.960225 
L 79.429713 109.831504 
L 79.560954 109.689253 
L 78.666403 109.665633 
L 78.225916 109.710361 
L 77.904601 109.85815 
L 78.158032 109.950167 
L 77.58027 110.088986 
L 77.420367 110.111624 
L 77.171462 110.116152 
L 76.52129 110.027115 
L 76.01292 110.009008 
L 75.678028 110.070877 
L 75.668977 110.176527 
L 76.132092 110.288244 
L 75.785133 110.362738 
L 75.478904 110.33153 
L 75.184743 110.25704 
L 74.867954 110.203698 
L 74.705034 110.208227 
L 74.003573 110.348644 
L 73.822551 110.350657 
L 73.600799 110.288244 
L 73.262891 110.487598 
L 72.918949 110.472492 
L 72.789216 110.34361 
L 73.096954 110.203698 
L 73.096954 110.111624 
L 72.756029 110.129736 
L 72.559921 110.212756 
L 72.406052 110.33153 
L 72.197877 110.457386 
L 71.912767 110.559107 
L 71.641234 110.611487 
L 70.387655 110.689063 
L 69.023955 111.140704 
L 68.500499 111.000017 
L 65.466869 111.140704 
L 65.223997 111.084726 
L 65.026381 110.933472 
L 64.834799 110.879539 
L 64.619081 110.880547 
L 63.38813 110.998505 
L 62.600684 111.132634 
L 62.164722 111.140704 
L 62.371389 110.952124 
L 63.167887 110.463428 
L 63.440929 110.364752 
L 63.974944 110.308376 
L 64.229884 110.242949 
L 64.264579 110.157407 
L 64.142389 110.046732 
L 64.109202 109.939104 
L 64.165017 109.82346 
L 64.327937 109.689253 
L 63.650613 109.769169 
L 63.440929 109.820443 
L 63.291585 109.916978 
L 63.207108 110.04472 
L 63.078884 110.156401 
L 62.802825 110.203698 
L 62.615769 110.25704 
L 62.534309 110.385895 
L 62.47246 110.539969 
L 62.354795 110.671935 
L 62.178299 110.743476 
L 61.766473 110.845771 
L 61.594502 110.921879 
L 60.969976 111.279924 
L 60.254938 111.556992 
L 58.600094 111.867589 
L 58.325543 112.014129 
L 58.322526 112.242634 
L 58.526176 112.43939 
L 58.862576 112.489479 
L 58.862576 112.574492 
L 55.697704 112.752165 
L 55.466901 112.82761 
L 54.330987 112.760772 
L 53.905585 112.791152 
L 53.552591 112.858501 
L 52.445339 112.946629 
L 52.131567 112.922316 
L 52.461933 112.84179 
L 52.93259 112.553237 
L 53.205632 112.489479 
L 53.955366 112.439896 
L 56.566611 112.012108 
L 57.32087 111.980774 
L 57.191137 111.716049 
L 57.278632 111.623637 
L 57.486807 111.626667 
L 57.711576 111.649389 
L 58.327052 111.64333 
L 58.784133 111.564565 
L 59.188416 111.393454 
L 59.648514 111.114983 
L 59.933624 110.857867 
L 60.254938 110.487598 
L 60.374111 110.233891 
L 60.060339 110.325993 
L 58.833914 111.241584 
L 58.345154 111.472187 
L 57.978584 111.472187 
L 58.005737 111.431305 
L 58.046467 111.349552 
L 58.091723 111.302628 
L 57.906175 111.245115 
L 57.704034 111.220397 
L 57.504909 111.236035 
L 57.32087 111.302628 
L 57.378194 111.390931 
L 56.648071 111.310196 
L 56.445929 111.426258 
L 56.388606 111.547905 
L 56.255856 111.553963 
L 56.126124 111.47471 
L 56.0688 111.341479 
L 56.255856 110.971281 
L 56.267924 110.921879 
L 56.580188 110.81251 
L 57.978584 110.634154 
L 58.244083 110.499683 
L 58.678536 110.193635 
L 58.978732 110.111624 
L 58.005737 109.988388 
L 56.172888 110.120177 
L 55.30549 110.111624 
L 54.861985 110.051762 
L 54.451668 109.965254 
L 54.146948 109.835525 
L 54.0323 109.64704 
L 54.152982 109.494807 
L 54.442617 109.345644 
L 55.055076 109.10017 
L 54.674929 108.931586 
L 54.57235 109.011855 
L 54.367191 109.219123 
L 54.294782 109.276354 
L 54.143931 109.321541 
L 53.793954 109.382302 
L 53.638577 109.436542 
L 53.615949 109.233681 
L 53.437944 109.101173 
L 53.139257 109.029416 
L 52.496629 108.97523 
L 52.10894 108.813217 
L 51.881153 108.75555 
L 52.06821 108.629212 
L 52.083295 108.512435 
L 51.964122 108.412223 
L 51.74237 108.335077 
L 52.75006 107.751946 
L 53.145292 107.57942 
L 54.344564 107.188633 
L 54.674929 106.992881 
L 54.783542 106.874079 
L 54.910258 106.671496 
L 55.055076 106.574232 
L 55.548361 106.43212 
L 55.739943 106.343886 
L 55.697704 106.231753 
L 55.322083 106.203849 
L 54.837849 106.367812 
L 54.400379 106.612636 
L 54.168067 106.82517 
L 53.113613 106.704421 
L 51.926409 106.893045 
L 49.313655 107.665424 
L 46.996571 107.88952 
L 45.925523 108.07319 
L 45.400559 108.082702 
L 45.673601 107.968083 
L 46.667714 107.739442 
L 46.298127 107.705432 
L 46.270974 107.610419 
L 46.610391 107.369487 
L 46.809515 107.296536 
L 47.681439 107.167655 
L 46.759734 107.203618 
L 46.317738 107.264562 
L 45.442797 107.493934 
L 45.00231 107.556422 
L 43.999146 107.57942 
L 44.153014 107.490935 
L 44.180168 107.412965 
L 44.178659 107.336508 
L 44.251068 107.24358 
L 44.368732 107.189632 
L 44.703624 107.090745 
L 45.098855 106.893045 
L 45.682652 106.673491 
L 45.782214 106.490455 
L 46.722021 106.126126 
L 47.301292 105.982679 
L 47.370684 105.809414 
L 47.239443 105.692951 
L 46.433894 105.976205 
L 45.741484 106.01754 
L 44.251068 105.980687 
L 44.631215 105.655133 
L 41.71374 105.897033 
L 41.071112 105.894046 
L 40.859919 105.847247 
L 40.292716 105.625279 
L 39.031595 105.308962 
L 38.654465 105.258255 
L 37.830814 105.229922 
L 37.725218 105.142946 
L 37.67242 104.986934 
L 37.541179 104.922361 
L 37.200254 105.104683 
L 36.862346 105.237378 
L 36.539523 105.207555 
L 36.00249 104.979483 
L 35.990422 104.949679 
L 36.011541 104.842404 
L 36.00249 104.812611 
L 35.916505 104.805163 
L 35.699278 104.825024 
L 35.622344 104.812611 
L 35.463949 104.763456 
L 35.332708 104.744094 
L 35.281419 104.694948 
L 35.368913 104.55499 
L 34.469836 104.55499 
L 34.549787 104.470146 
L 34.659909 104.313901 
L 34.747403 104.229604 
L 34.400444 104.156231 
L 33.872463 104.108644 
L 33.332413 104.100714 
L 32.952266 104.146317 
L 32.774261 104.271255 
L 32.858738 104.415081 
L 33.332413 104.729201 
L 32.49066 104.638364 
L 32.071292 104.631415 
L 31.688128 104.729201 
L 31.766571 104.520256 
L 32.015477 104.154248 
L 32.065258 103.890118 
L 32.059224 103.705876 
L 32.105988 103.540033 
L 32.323214 103.425221 
L 32.813483 103.391081 
L 32.576645 103.28571 
L 32.487643 103.165533 
L 32.532898 103.035011 
L 32.710904 102.894156 
L 31.476936 103.195203 
L 31.111874 103.352986 
L 30.695523 103.465303 
L 29.716495 103.529144 
L 29.398197 103.640521 
L 29.368027 103.741034 
L 29.530947 103.909439 
L 29.454013 104.017949 
L 29.340874 104.090801 
L 29.28355 104.144334 
L 29.262431 104.218696 
L 29.259414 104.351097 
L 29.021068 104.512318 
L 28.476493 104.596675 
L 27.87912 104.608585 
L 27.476345 104.55499 
L 27.951528 104.399208 
L 27.690555 104.138385 
L 26.72812 103.640521 
L 27.019264 103.63161 
L 27.856492 103.73113 
L 27.856492 103.640521 
L 27.419022 103.581611 
L 26.141307 103.557357 
L 25.55751 103.636065 
L 25.335758 103.640521 
L 25.181889 103.609332 
L 24.887728 103.505388 
L 24.703689 103.481633 
L 24.703689 103.391081 
L 24.82437 103.38366 
L 24.90583 103.365849 
L 25.071767 103.315389 
L 24.819845 103.142293 
L 25.382522 103.216468 
L 25.706853 103.221908 
L 25.84262 103.142293 
L 24.945052 102.894156 
L 24.543786 102.828935 
L 24.168165 102.671855 
L 23.860427 102.480776 
L 23.679405 102.313474 
L 23.692982 102.251308 
L 23.726169 102.236509 
L 23.733712 102.21875 
L 23.679405 102.148708 
L 25.026512 102.276469 
L 25.267875 102.268082 
L 25.391573 102.116158 
L 25.304079 101.992886 
L 25.123057 101.87261 
L 24.955611 101.726751 
L 25.84262 101.726751 
L 25.84262 101.652364 
L 25.444371 101.639065 
L 25.047631 101.587349 
L 24.665976 101.50314 
L 24.311474 101.395813 
L 24.607144 101.324442 
L 24.761012 101.307217 
L 24.955611 101.314107 
L 24.54982 101.127132 
L 24.317508 101.070566 
L 24.068603 101.066139 
L 24.190793 100.89944 
L 24.068603 100.727898 
L 23.819697 100.623732 
L 23.552689 100.661071 
L 23.415414 100.612924 
L 23.308309 100.555941 
L 23.226849 100.487179 
L 23.172543 100.398789 
L 23.367142 100.279985 
L 23.035268 100.039052 
L 23.294733 99.994906 
L 24.217946 100.057203 
L 24.691621 100.040524 
L 25.071767 99.905157 
L 24.866609 99.850729 
L 24.655416 99.830137 
L 24.190793 99.830137 
L 24.058043 99.79925 
L 23.679405 99.583114 
L 23.874004 99.555187 
L 24.205878 99.437621 
L 24.374832 99.411174 
L 24.53926 99.444478 
L 24.682569 99.514035 
L 24.845489 99.574785 
L 25.071767 99.583114 
L 24.95712 99.458193 
L 24.87566 99.321071 
L 24.782132 99.210429 
L 24.628263 99.165398 
L 24.408019 99.143864 
L 24.320525 99.088075 
L 24.276778 99.00881 
L 24.184758 98.91929 
L 23.353565 98.356231 
L 23.035268 98.262956 
L 23.300767 98.124307 
L 23.415414 98.092093 
L 22.905535 97.960824 
L 22.730547 97.858866 
L 22.667189 97.690133 
L 23.068455 97.689158 
L 23.883055 97.874475 
L 24.311474 97.928136 
L 24.709723 97.892036 
L 24.696146 97.833502 
L 24.688604 97.802776 
L 24.385391 97.716462 
L 23.932836 97.690133 
L 24.4578 97.578986 
L 25.543933 97.75157 
L 26.070406 97.690133 
L 25.810941 97.609694 
L 25.562036 97.473718 
L 25.480576 97.323177 
L 25.715904 97.198989 
L 25.51678 96.910835 
L 25.399116 96.792132 
L 25.198483 96.70167 
L 25.381013 96.69778 
L 25.84262 96.619981 
L 25.706853 96.622412 
L 25.580138 96.612202 
L 25.454931 96.586922 
L 25.335758 96.546087 
L 25.589189 96.375992 
L 25.335758 96.375992 
L 25.580138 96.302146 
L 25.862231 96.278343 
L 26.462621 96.287087 
L 26.378144 96.167607 
L 26.335905 96.123905 
L 26.892549 96.021467 
L 27.476345 95.968074 
L 27.204812 95.718684 
L 26.845785 95.605203 
L 25.955759 95.472367 
L 26.132256 95.3483 
L 26.387195 95.290157 
L 26.553132 95.221367 
L 26.462621 95.066392 
L 27.222914 95.066392 
L 27.222914 94.977795 
L 27.177659 94.913418 
L 27.222914 94.698584 
L 27.222914 94.57864 
L 27.177659 94.507079 
L 27.032841 94.476138 
L 26.969483 94.417164 
L 26.954398 94.345151 
L 26.987585 94.236432 
L 26.969483 94.173631 
L 26.848802 93.932187 
L 26.740188 93.857854 
L 26.462621 93.768577 
L 26.215224 93.719363 
L 25.696294 93.658096 
L 25.451914 93.606486 
L 25.988946 93.502321 
L 27.171625 93.539933 
L 27.741844 93.444947 
L 27.47182 93.269503 
L 27.182184 93.140384 
L 26.589337 92.952566 
L 25.325198 92.750888 
L 24.955611 92.629164 
L 27.43109 92.749444 
L 28.106906 92.629164 
L 27.717708 92.289223 
L 27.615129 92.22579 
L 27.343596 92.198401 
L 26.848802 92.250297 
L 26.589337 92.22579 
L 25.84262 91.903023 
L 25.693277 91.773899 
L 25.660089 91.719191 
L 25.777754 91.695199 
L 26.070406 91.654895 
L 26.547098 91.628029 
L 28.686177 91.914065 
L 29.862821 92.166691 
L 30.408905 92.22579 
L 30.408905 92.137865 
L 29.144766 91.744144 
L 28.517223 91.447691 
L 28.100872 90.945035 
L 27.75693 90.857417 
L 27.372257 90.796144 
L 27.096199 90.68942 
L 27.069045 90.593251 
L 27.21688 90.419159 
L 27.159556 90.332145 
L 26.72812 90.040653 
L 26.72812 89.968055 
L 27.072062 90.003875 
L 27.702623 90.158655 
L 27.992258 90.127598 
L 27.498973 89.9437 
L 26.200139 89.666357 
L 25.84262 89.399715 
L 25.892401 89.256697 
L 26.064372 89.096583 
L 26.195613 88.937968 
L 26.141307 88.797036 
L 25.889384 88.730874 
L 25.575612 88.694228 
L 25.371962 88.619996 
L 25.451914 88.441141 
L 24.887728 88.196786 
L 24.604127 88.034766 
L 24.43819 87.883265 
L 24.611669 87.839584 
L 24.767046 87.758408 
L 24.806268 87.679149 
L 24.426121 87.605126 
L 24.350695 87.513094 
L 24.308457 87.404962 
L 24.184758 87.318669 
L 24.015804 87.303499 
L 23.168017 87.318669 
L 23.00208 87.302551 
L 22.923637 87.294966 
L 22.510303 87.189269 
L 22.274974 87.159415 
L 22.597797 86.928243 
L 22.33079 86.832596 
L 21.51619 86.769162 
L 22.250838 86.011663 
L 22.40169 85.724595 
L 22.489184 85.184142 
L 22.624951 85.081426 
L 22.919112 85.32837 
L 23.231375 84.992399 
L 23.294733 84.82524 
L 23.172543 84.695804 
L 23.43955 84.557479 
L 24.00977 84.433315 
L 24.248116 84.34069 
L 24.358238 84.182768 
L 24.190793 84.07095 
L 23.679405 83.907514 
L 24.068603 83.506295 
L 23.661303 83.515206 
L 23.433516 83.639984 
L 23.2359 83.7986 
L 22.919112 83.907514 
L 22.991521 83.720221 
L 23.219307 83.386722 
L 23.299258 83.191742 
L 23.312835 82.657045 
L 23.415414 82.484919 
L 22.419792 82.602779 
L 22.148259 82.556472 
L 21.995899 82.442835 
L 21.958186 82.296052 
L 22.048697 82.144192 
L 22.274974 82.014813 
L 22.148259 81.850473 
L 20.932393 82.437225 
L 20.882612 82.557875 
L 21.136043 82.720679 
L 20.733269 82.697283 
L 20.648792 82.52046 
L 20.746845 82.28577 
L 20.882612 82.085335 
L 20.773999 82.07179 
L 20.597502 82.028823 
L 20.491906 82.014813 
L 20.642758 81.878013 
L 20.737794 81.822468 
L 20.882612 81.772066 
L 20.5794 81.703941 
L 20.221881 81.729603 
L 19.870396 81.815934 
L 19.606406 81.928898 
L 19.565676 81.782799 
L 19.896041 81.434372 
L 19.995603 81.231634 
L 19.669763 81.309453 
L 19.434435 81.345805 
L 19.288108 81.284754 
L 19.226259 81.075584 
L 19.273023 80.876782 
L 19.434435 80.71438 
L 19.686357 80.592048 
L 19.995603 80.514392 
L 19.888499 80.422344 
L 19.47969 80.209983 
L 19.852294 80.111051 
L 20.232441 79.963402 
L 20.618621 79.859436 
L 21.009328 79.890994 
L 20.718184 79.676644 
L 19.384653 79.579257 
L 19.099543 79.424423 
L 18.874774 79.465211 
L 18.674141 79.542165 
L 18.33925 79.73509 
L 18.389031 79.457795 
L 18.672633 79.012185 
L 18.59419 78.795614 
L 18.963777 78.766008 
L 19.461588 78.660559 
L 19.905092 78.505681 
L 20.111759 78.329623 
L 20.099691 78.206299 
L 20.015214 78.188289 
L 19.885481 78.203528 
L 19.733121 78.175359 
L 19.407281 78.052553 
L 19.289617 77.985167 
L 19.131222 77.788163 
L 19.23531 77.627693 
L 19.523437 77.518451 
L 19.92772 77.478358 
L 20.301833 77.58897 
L 20.529619 77.614324 
L 20.630689 77.520294 
L 20.694047 77.494948 
L 21.01687 77.32863 
L 21.136043 77.246653 
L 21.244656 77.063429 
L 21.258233 76.898245 
L 21.333659 76.753374 
L 21.642905 76.629248 
L 22.087918 76.633845 
L 23.353565 76.787401 
L 23.742763 76.741419 
L 23.883055 76.674756 
L 24.226997 76.571339 
L 24.374832 76.506548 
L 24.462326 76.427069 
L 24.53926 76.276433 
L 24.715757 76.128619 
L 24.917898 75.89097 
L 24.955611 75.813014 
L 25.055173 75.787796 
L 25.715904 75.704823 
L 25.408167 75.303999 
L 25.337266 75.100795 
L 25.335758 74.853367 
L 25.319164 74.771542 
L 25.301062 74.73315 
L 25.362911 74.697962 
L 25.589189 74.623485 
L 25.788313 74.619373 
L 25.940674 74.6742 
L 26.037219 74.6742 
L 26.070406 74.504265 
L 26.308752 74.35222 
L 26.833716 74.43942 
L 27.607586 74.69979 
L 28.168755 74.766057 
L 28.729924 74.889486 
L 29.304669 74.956706 
L 29.892991 74.853367 
L 29.099511 74.537149 
L 27.865543 74.217584 
L 27.503499 74.089846 
L 27.385834 73.938904 
L 27.741844 73.773451 
L 27.51255 73.814464 
L 27.250068 73.834518 
L 26.992111 73.814464 
L 26.785444 73.735176 
L 26.710018 73.614001 
L 26.729629 73.497425 
L 26.69795 73.414117 
L 26.462621 73.391814 
L 26.593862 73.269402 
L 26.811089 73.228456 
L 27.361698 73.23892 
L 27.361698 73.162955 
L 26.637609 73.083824 
L 26.417365 73.000621 
L 26.335905 72.816105 
L 26.489774 72.721616 
L 26.839751 72.632602 
L 27.222914 72.569944 
L 27.476345 72.552239 
L 28.538342 72.872449 
L 29.128173 72.942437 
L 29.512845 72.697997 
L 29.88394 72.802475 
L 30.378734 72.890172 
L 30.891631 72.920167 
L 31.295913 72.850637 
L 31.015329 72.794752 
L 30.439075 72.745235 
L 30.155474 72.697997 
L 30.155474 72.628516 
L 30.915767 72.476434 
L 31.182775 72.452834 
L 31.929491 72.476434 
L 32.354893 72.428328 
L 33.255479 72.253208 
L 33.71256 72.241416 
L 33.525503 72.409269 
L 33.492316 72.515469 
L 33.655236 72.954255 
L 33.626574 73.048358 
L 33.459129 73.162955 
L 33.91621 73.1907 
L 35.368913 73.551154 
L 35.151686 73.307622 
L 34.849982 73.086552 
L 35.37193 73.01426 
L 35.563512 72.956073 
L 35.749059 72.850637 
L 35.853147 72.740239 
L 35.899911 72.644863 
L 35.963269 72.559049 
L 36.126189 72.476434 
L 36.467114 72.407453 
L 36.660204 72.459641 
L 36.805022 72.557687 
L 37.002638 72.628516 
L 37.290765 72.628516 
L 37.781033 72.511384 
L 38.025413 72.476434 
L 38.2532 72.49232 
L 38.618261 72.561773 
L 38.912422 72.552239 
L 39.007459 72.520008 
L 39.025561 72.469172 
L 39.019527 72.420159 
L 39.039138 72.393841 
L 39.1387 72.398378 
L 39.282009 72.42379 
L 39.401182 72.454649 
L 39.429844 72.476434 
L 40.202205 72.167951 
L 40.604979 71.964422 
L 40.822206 71.785024 
L 40.948922 71.785024 
L 41.369798 72.070023 
L 41.786149 71.981189 
L 42.196466 71.738832 
L 42.594715 71.563633 
L 42.413693 71.502087 
L 42.288486 71.420647 
L 42.098413 71.253308 
L 41.855541 71.137578 
L 41.32756 70.992974 
L 40.40133 70.618664 
L 40.310818 70.564518 
L 39.984978 70.559104 
L 39.713445 70.530681 
L 39.482642 70.464823 
L 39.292569 70.343967 
L 39.206583 70.042478 
L 39.622934 69.904672 
L 40.241427 69.91863 
L 40.758848 70.072659 
L 41.320017 70.292572 
L 41.881186 70.352984 
L 42.469508 70.376431 
L 43.112137 70.488728 
L 41.565906 70.019506 
L 40.856902 69.719674 
L 40.695491 69.430915 
L 40.884055 69.293374 
L 41.084688 69.25428 
L 41.587025 69.279893 
L 41.921916 69.324832 
L 41.915882 69.432263 
L 41.807269 69.556821 
L 41.84649 69.657582 
L 42.256807 69.721024 
L 42.715396 69.743975 
L 43.023134 69.837593 
L 42.985421 70.110052 
L 43.219242 70.059145 
L 43.520945 69.936642 
L 43.745714 69.883511 
L 43.745714 69.808784 
L 43.608439 69.707075 
L 43.665763 69.611696 
L 43.798513 69.5105 
L 43.87243 69.389556 
L 43.925228 69.382364 
L 44.251068 68.978065 
L 44.424548 68.89996 
L 44.634232 68.84476 
L 44.80922 68.771623 
L 44.884646 68.636162 
L 44.999293 68.621364 
L 45.782214 68.75278 
L 45.635888 68.614638 
L 44.884646 68.226099 
L 45.202943 68.083263 
L 45.347761 68.032233 
L 45.528783 67.993743 
L 45.482019 67.919461 
L 45.451849 67.886354 
L 45.400559 67.844303 
L 46.184988 67.894406 
L 46.524405 67.85146 
L 46.667714 67.659614 
L 46.623967 67.44376 
L 46.586254 67.343257 
L 46.679782 67.332539 
L 47.035793 67.387474 
L 47.304309 67.517482 
L 47.47628 67.565299 
L 47.551706 67.506311 
L 47.621098 67.395515 
L 47.79156 67.338345 
L 47.998227 67.32718 
L 48.185284 67.353529 
L 48.471902 67.44778 
L 48.686112 67.561724 
L 48.773606 67.694486 
L 48.692146 67.844303 
L 48.888253 67.9302 
L 49.274434 68.175494 
L 49.393607 68.226099 
L 49.666649 68.214007 
L 50.004557 68.17639 
L 50.321345 68.115944 
L 50.538572 68.035367 
L 50.686407 67.997771 
L 50.87648 67.992848 
L 51.0394 67.970472 
L 51.108792 67.880985 
L 51.108792 67.799126 
L 51.117843 67.738753 
L 51.158573 67.685991 
L 51.244559 67.625192 
L 51.525143 67.52061 
L 52.10894 67.432144 
L 52.384998 67.319142 
L 52.077261 67.244573 
L 51.108792 67.094151 
L 52.384998 67.094151 
L 52.018428 66.917487 
L 51.881153 66.869323 
L 52.357845 66.940233 
L 52.623344 66.9496 
L 52.828503 66.903661 
L 52.878284 66.844798 
L 52.903929 66.755633 
L 52.891861 66.674068 
L 52.828503 66.638864 
L 52.493612 66.585843 
L 52.327675 66.466912 
L 52.397067 66.340013 
L 52.765145 66.265234 
L 53.145292 66.278586 
L 53.367044 66.357375 
L 53.70646 66.601436 
L 54.018724 66.707494 
L 54.21634 66.68209 
L 54.237459 66.571141 
L 54.0323 66.420599 
L 54.0323 66.419263 
L 54.104709 66.275915 
L 54.101692 66.215836 
L 54.0323 66.115729 
L 55.086755 65.832492 
L 55.368847 65.704965 
L 55.593617 65.656989 
L 56.453472 65.742285 
L 56.661648 65.710296 
L 56.84267 65.644996 
L 57.049337 65.590368 
L 57.007098 65.574826 
L 56.829093 65.525094 
L 56.833619 65.454063 
L 57.077999 65.369734 
L 57.305785 65.334235 
L 57.872988 65.294302 
L 59.30608 65.312937 
L 59.885351 65.254819 
L 60.254938 65.072551 
L 60.705985 65.204695 
L 61.114793 65.185181 
L 61.511534 65.071221 
L 61.911291 64.923623 
L 61.336546 64.774768 
L 61.078589 64.685312 
L 61.078589 64.582161 
L 61.224915 64.441435 
L 61.187202 64.334828 
L 61.078589 64.239311 
L 61.015231 64.133657 
L 61.060487 64.068692 
L 61.277713 63.581233 
L 61.553772 63.494773 
L 61.900731 63.493891 
L 62.544869 63.581233 
L 62.667059 63.610353 
L 62.870709 63.692432 
L 63.051731 63.722887 
L 63.241804 63.713618 
L 63.412267 63.675662 
L 63.594797 63.651831 
L 64.183119 63.757759 
L 65.409545 63.803672 
L 65.693146 63.691108 
L 65.436698 63.440969 
L 64.98716 63.185747 
L 64.697524 63.056676 
L 64.836308 62.941307 
L 65.056552 62.927219 
L 65.593584 62.982694 
L 65.735385 62.942628 
L 66.156261 62.755576 
L 66.364437 62.694425 
L 66.444388 62.551492 
L 66.800399 62.421373 
L 67.258988 62.298778 
L 67.299718 62.283841 
L 67.618016 62.170963 
L 67.4913 62.170963 
L 67.539573 62.001067 
L 67.631592 61.84311 
L 67.841276 61.764602 
L 68.248576 61.836531 
L 68.527652 61.84311 
L 69.387507 61.716805 
L 69.654515 61.649727 
L 69.805367 61.549795 
L 70.165903 61.208175 
L 70.546049 61.227436 
L 71.341039 61.350031 
L 71.691015 61.43544 
L 71.528095 61.309306 
L 71.398362 61.172722 
L 71.353107 61.019138 
L 71.425516 60.847709 
L 71.645759 60.685117 
L 72.206928 60.485495 
L 72.448291 60.328338 
L 72.668535 60.00599 
L 72.822403 59.907045 
L 73.211601 59.815539 
L 74.012624 59.730594 
L 74.311311 59.632611 
L 74.234377 59.451103 
L 74.469705 59.465028 
L 74.683915 59.456325 
L 74.881531 59.418034 
L 75.058027 59.337554 
L 75.134962 59.353648 
L 75.878661 59.231875 
L 76.554478 59.231875 
L 76.648006 59.19144 
L 76.641972 59.0089 
L 76.675159 58.924187 
L 76.777738 58.860344 
L 76.994965 58.837328 
L 77.515404 58.8712 
L 77.725088 58.827776 
L 77.841244 58.747022 
L 77.948348 58.613351 
L 78.041877 58.562156 
L 78.419006 58.48668 
L 78.778033 58.459358 
L 79.118959 58.393881 
L 79.434239 58.20577 
L 79.416137 58.131687 
L 79.333168 58.034236 
L 79.3211 57.950239 
L 79.671076 57.874489 
L 79.683144 57.786643 
L 79.615261 57.70834 
L 79.560954 57.690174 
L 79.701247 57.473558 
L 79.833996 57.352566 
L 80.319739 57.110733 
L 80.42081 57.029591 
L 80.494727 56.934667 
L 80.579204 56.854438 
L 80.699886 56.8208 
L 80.918621 56.79622 
L 81.470738 56.603541 
L 82.223489 56.489804 
L 82.570448 56.407114 
L 82.863101 56.242667 
L 82.685096 56.129072 
L 82.60967 56.091217 
L 82.60967 56.026273 
L 82.819354 55.911475 
L 83.068259 55.846142 
L 83.633954 55.73743 
L 82.937018 55.575084 
L 82.7213 55.482785 
L 83.059208 55.44244 
L 83.461983 55.455316 
L 84.947873 55.658822 
L 85.128895 55.653668 
L 85.281256 55.593118 
L 85.285781 55.543742 
L 85.080623 55.464329 
L 85.026316 55.406393 
L 85.172642 55.225364 
L 85.524127 55.173051 
L 86.304031 55.161046 
L 86.390016 54.955323 
L 87.071867 54.845665 
L 89.367831 54.768587 
L 92.644333 54.316817 
L 93.033531 54.29288 
L 93.359371 54.333916 
L 93.534359 54.432258 
L 93.682194 54.551168 
L 93.932608 54.651725 
L 94.077425 54.655577 
L 94.214701 54.62562 
L 94.367061 54.607647 
L 94.563168 54.651725 
L 94.611441 54.696666 
L 94.686867 54.845665 
L 94.748716 54.899632 
L 95.030809 55.020452 
L 95.311393 55.101885 
L 95.644776 55.147755 
L 96.083755 55.161046 
L 96.083755 55.22708 
L 95.907258 55.227509 
L 95.754898 55.242519 
L 95.450177 55.299135 
L 96.08828 55.365201 
L 97.854755 55.22708 
L 97.990522 55.190202 
L 97.773295 54.993885 
L 97.79894 54.899632 
L 98.074999 54.57256 
L 98.108186 54.501545 
L 97.942249 54.368973 
L 97.725022 54.36427 
L 97.48366 54.413014 
L 97.233246 54.436107 
L 96.955678 54.39249 
L 96.463901 54.251421 
L 95.748864 54.180914 
L 95.420007 54.077107 
L 94.816599 53.784689 
L 94.911636 53.753117 
L 95.100201 53.672497 
L 95.196746 53.641791 
L 95.057962 53.576552 
L 95.373243 53.535625 
L 97.23928 53.60853 
L 97.581713 53.675056 
L 98.24697 53.856378 
L 98.675389 53.940892 
L 99.09174 53.972485 
L 99.399478 53.928512 
L 99.49904 53.784689 
L 99.364782 53.643071 
L 99.14303 53.550972 
L 99.002737 53.451232 
L 99.120402 53.2838 
L 98.992178 53.228012 
L 98.934854 53.180324 
L 98.937871 53.130515 
L 98.993686 53.06965 
L 98.554708 52.93775 
L 98.337481 52.850986 
L 98.24697 52.748944 
L 98.216799 52.638016 
L 98.135339 52.553893 
L 98.016167 52.487632 
L 97.866823 52.427756 
L 97.284535 52.288944 
L 95.196746 52.143414 
L 95.323461 51.914454 
L 95.463754 51.800892 
L 96.083755 51.639104 
L 96.331152 51.55359 
L 96.513682 51.439329 
L 96.572515 51.300165 
L 96.463901 51.142473 
L 96.693196 51.151771 
L 96.920982 51.145431 
L 97.139717 51.120074 
L 97.347893 51.070632 
L 97.221177 51.054577 
L 96.98434 51.009794 
L 96.841031 51.000501 
L 97.002442 50.840025 
L 97.094462 50.787679 
L 96.786724 50.731967 
L 96.635872 50.715087 
L 96.463901 50.716775 
L 96.730909 50.611297 
L 96.98434 50.29005 
L 97.233246 50.144306 
L 97.160837 50.112303 
L 97.038647 50.034417 
L 96.967746 50.00369 
L 97.139717 49.987696 
L 97.254365 49.96497 
L 97.486677 49.862305 
L 96.21047 49.509583 
L 96.468427 49.473033 
L 96.966238 49.468833 
L 97.233246 49.432709 
L 97.396166 49.376432 
L 97.703903 49.219424 
L 97.866823 49.156897 
L 97.663173 48.9845 
L 97.925655 48.603601 
L 97.79894 48.412306 
L 97.275484 48.179336 
L 96.721858 47.991267 
L 95.337038 47.661001 
L 94.931247 47.605926 
L 94.430419 47.610098 
L 93.998982 47.643059 
L 93.591683 47.62178 
L 93.160246 47.459951 
L 93.063701 47.376572 
L 93.004869 47.306136 
L 92.979224 47.274884 
L 92.86156 47.17032 
L 92.653384 47.078287 
L 92.40297 47.046645 
L 91.941364 47.078287 
L 91.693967 47.008347 
L 91.368127 46.946748 
L 90.484135 46.990032 
L 90.113039 46.976714 
L 89.870168 46.911793 
L 89.536785 46.753304 
L 89.340678 46.698001 
L 88.66637 46.6186 
L 87.931722 46.587428 
L 87.204616 46.612365 
L 86.555953 46.698001 
L 86.070211 46.835657 
L 85.842424 46.882667 
L 85.475854 46.900558 
L 85.267679 46.860617 
L 85.180185 46.763285 
L 85.163591 46.370574 
L 85.118336 46.294592 
L 84.968992 46.251836 
L 83.798382 46.107844 
L 83.56607 46.02945 
L 83.264367 45.888895 
L 83.026021 45.741786 
L 82.944561 45.5546 
L 83.1286 45.293921 
L 83.406167 45.100441 
L 84.456096 44.568692 
L 84.711036 44.377395 
L 84.857362 44.315583 
L 85.1651 44.25461 
L 85.671962 44.225364 
L 85.856001 44.177178 
L 85.913325 44.047078 
L 85.616147 44.129001 
L 84.646169 44.25461 
L 84.501352 44.261201 
L 84.332398 44.257494 
L 84.195122 44.278503 
L 84.140816 44.358438 
L 84.149867 44.465193 
L 84.131765 44.512196 
L 84.077458 44.530752 
L 83.624903 44.632214 
L 82.817845 45.092176 
L 82.357747 45.223623 
L 81.905192 45.23272 
L 81.517503 45.212047 
L 81.137356 45.214527 
L 80.721005 45.293921 
L 80.674241 45.3237 
L 80.639545 45.369616 
L 80.579204 45.421332 
L 80.446455 45.470162 
L 80.244313 45.496235 
L 79.360321 45.394852 
L 78.818763 45.204605 
L 78.610588 45.160785 
L 77.891025 45.088043 
L 77.157885 44.952946 
L 77.343433 45.091762 
L 77.397739 45.243057 
L 77.269515 45.370857 
L 76.904454 45.438711 
L 76.563529 45.399403 
L 76.230146 45.282755 
L 75.948053 45.140944 
L 75.764014 45.022345 
L 75.764014 44.952946 
L 75.76989 44.769391 
L 75.047626 44.484389 
L 74.637641 44.082561 
L 74.149108 43.886059 
L 73.756365 43.685007 
L 73.796597 43.4609 
L 73.765944 43.308909 
L 73.292737 42.806909 
L 73.104987 42.666482 
L 72.915321 42.599416 
L 72.465103 42.491316 
L 72.26969 42.426374 
L 72.103014 42.338079 
L 71.099125 41.665441 
L 70.68914 41.540391 
L 68.765659 41.38436 
L 68.106617 41.254537 
L 67.627663 41.084728 
L 66.983948 40.581657 
L 66.821103 40.322382 
L 66.549057 40.098373 
L 66.489667 39.988244 
L 66.52032 39.889992 
L 66.679333 39.759392 
L 66.742555 39.655063 
L 66.75405 39.519707 
L 66.654427 39.339259 
L 66.627606 39.205099 
L 66.547141 39.103309 
L 66.190799 38.919832 
L 66.110335 38.798955 
L 66.298085 38.575282 
L 66.750218 38.425171 
L 67.292394 38.336477 
L 67.756022 38.295081 
L 67.756022 38.137223 
L 68.200492 38.05093 
L 68.771406 37.986102 
L 69.146906 37.890167 
L 69.175644 37.7805 
L 70.168038 37.629087 
L 70.551201 37.540933 
L 70.729372 37.389667 
L 70.761941 37.220686 
L 70.685308 37.043177 
L 70.551201 36.868846 
L 70.731288 36.710886 
L 70.869227 36.529181 
L 70.94586 36.333416 
L 70.942028 36.131729 
L 70.733204 35.772353 
L 70.746615 35.700541 
L 71.346266 35.48473 
L 71.61448 35.307474 
L 72.018718 35.283749 
L 72.451693 35.289302 
L 72.725655 35.256998 
L 72.815698 35.169951 
L 72.763971 35.099328 
L 72.014886 34.61712 
L 71.505279 34.355512 
L 71.116368 34.213006 
L 70.397936 34.006561 
L 69.34232 33.513024 
L 68.886355 33.38279 
L 68.323105 33.330966 
L 67.991668 33.26564 
L 67.556777 33.112281 
L 66.880494 32.79637 
L 66.748302 32.709719 
L 66.671669 32.640072 
L 66.635269 32.557719 
L 66.627606 32.433747 
L 66.560552 32.329032 
L 66.401539 32.270212 
L 66.211873 32.226357 
L 65.706097 32.026868 
L 65.305691 31.920593 
L 64.980002 31.796957 
L 64.843979 31.605537 
L 65.075793 31.530007 
L 65.280785 31.43985 
L 65.457041 31.334587 
L 65.602643 31.212006 
L 65.265459 31.173806 
L 65.167752 31.106103 
L 65.225227 30.919959 
L 65.376576 30.76813 
L 65.738666 30.684209 
L 67.836487 30.486287 
L 68.351842 30.3256 
L 68.767574 30.028995 
L 68.133439 29.945836 
L 68.131523 29.723406 
L 68.351842 29.456382 
L 68.388242 29.241806 
L 68.154513 29.172948 
L 67.750275 29.133856 
L 66.487751 29.088135 
L 65.225227 28.922777 
L 64.470394 28.938006 
L 63.736636 29.006301 
L 63.048857 29.015884 
L 62.428132 28.852298 
L 62.198234 28.619649 
L 62.424301 28.437476 
L 62.841949 28.269409 
L 63.188712 28.075039 
L 62.979888 27.961041 
L 63.462674 27.853945 
L 64.129379 27.752765 
L 64.464647 27.65798 
L 64.405256 27.432416 
L 64.26157 27.28363 
L 63.820932 27.037009 
L 63.671498 26.882157 
L 63.462674 26.508134 
L 63.257681 26.359479 
L 63.186796 26.243441 
L 63.188712 25.689341 
L 63.096753 25.494791 
L 63.041194 25.267068 
L 63.12549 25.049237 
L 63.451179 24.885643 
L 64.075736 24.782918 
L 65.388071 24.691325 
L 65.995386 24.593508 
L 66.460929 24.412927 
L 66.478172 24.24933 
L 66.125661 24.130559 
L 64.838231 24.036358 
L 63.188712 23.640778 
L 62.68102 23.562612 
L 61.303547 23.312958 
L 61.152197 23.232038 
L 61.085144 23.153542 
L 60.337975 22.604873 
L 60.132982 22.507999 
L 59.885841 22.440261 
L 59.247874 22.445984 
L 57.674987 22.655953 
L 57.274581 22.657862 
L 57.148137 22.606782 
L 57.069589 22.599623 
L 57.015946 22.581963 
L 56.973798 22.497503 
L 56.981461 22.447415 
L 57.067673 22.364916 
L 57.16538 22.134754 
L 57.14239 22.061421 
L 56.973798 21.993825 
L 57.081084 21.778329 
L 56.799458 21.624333 
L 55.962246 21.4282 
L 55.717021 21.338504 
L 55.62123 21.26023 
L 55.567587 21.185778 
L 55.444975 21.109457 
L 55.171013 21.03648 
L 52.419898 20.684745 
L 51.889216 20.552346 
L 51.115226 20.244373 
L 50.649682 20.151881 
L 49.544255 20.237765 
L 48.996331 20.116499 
L 48.461818 19.952408 
L 47.942631 19.855334 
L 47.593952 19.856277 
L 47.268263 19.876536 
L 46.931079 19.877949 
L 46.143678 19.774318 
L 45.331371 19.756894 
L 44.1359 19.633085 
L 42.674131 19.611908 
L 42.599414 19.591675 
L 42.610909 19.502296 
L 42.545771 19.482073 
L 41.285163 19.411544 
L 37.005225 19.403553 
L 36.378753 19.301098 
L 36.3481 19.258815 
L 36.36151 19.193998 
L 36.336605 19.135305 
L 36.200582 19.109485 
L 36.116286 19.099628 
L 35.892135 19.045184 
L 35.639247 18.959794 
L 35.108565 18.823806 
L 34.999364 18.768499 
L 34.169814 18.575509 
L 30.794143 18.397203 
L 30.418642 18.113918 
L 29.39368 17.98456 
L 27.742244 17.679007 
L 26.318791 17.605836 
L 25.724888 17.503347 
L 25.500737 17.416738 
L 24.939402 17.137608 
L 24.828285 17.036287 
L 24.663525 16.945234 
L 24.284193 16.900651 
L 22.964194 16.898794 
L 22.79177 16.883007 
L 22.70939 16.852365 
L 22.575283 16.771604 
L 22.47566 16.755363 
L 22.24193 16.697834 
L 21.146082 16.331705 
L 19.964023 16.112349 
L 18.467769 15.864592 
L 15.383301 15.639752 
L 14.990559 15.531809 
L 15.048033 15.350191 
L 15.607452 15.297673 
L 15.912067 15.15447 
L 15.917815 14.994814 
L 15.48484 14.872514 
L 14.609311 14.82288 
L 13.337208 14.601059 
L 11.114859 14.539564 
L 10.145455 14.378114 
L 11.877354 13.825063 
L 12.392709 13.775695 
L 17.73401 14.336856 
L 18.456274 14.375363 
L 18.965881 14.312105 
L 20.02916 13.923838 
L 17.753168 13.09724 
L 18.299177 12.800056 
L 18.607623 12.666404 
L 18.954386 12.584169 
L 22.94312 12.128199 
L 28.9722 12.304106 
L 29.418585 12.375785 
L 34.668279 14.117922 
L 36.095212 14.594175 
L 38.647081 15.09142 
L 38.899969 15.201886 
L 39.164352 15.425307 
L 39.378924 15.51613 
L 40.806208 15.971792 
L 42.281388 16.192844 
L 42.551519 16.283556 
L 43.020894 17.098561 
L 43.252708 17.268751 
L 43.614798 17.294339 
L 45.731777 17.150626 
L 46.235637 17.143652 
L 46.724171 17.163179 
L 51.454326 17.603972 
L 54.561783 17.504744 
L 55.529271 17.55738 
L 56.01972 17.654303 
L 57.454668 18.091963 
L 57.866569 18.124662 
L 63.131237 17.514525 
L 66.096924 17.43024 
L 67.824992 17.245958 
L 68.43997 16.881614 
L 68.796312 16.488271 
L 70.009025 16.336798 
L 71.424814 16.340966 
L 75.172155 16.700153 
L 75.775637 16.891829 
L 76.204781 16.984251 
L 78.904168 17.307366 
L 81.662946 17.48239 
L 85.038618 17.690661 
L 86.720706 17.945349 
L 88.119254 18.341076 
L 88.699747 18.619057 
L 89.038846 18.696809 
L 89.519717 18.677603 
L 89.92587 18.555846 
L 90.130863 18.393928 
L 90.383751 18.241955 
L 90.929759 18.151293 
L 91.404882 18.155965 
L 92.592689 18.003702 
L 93.090802 17.982693 
L 93.456723 17.947216 
L 93.732601 17.857152 
L 93.951004 17.673413 
L 93.726853 17.59605 
L 93.738348 17.541076 
L 93.849466 17.490307 
L 93.92993 17.421394 
L 93.962499 17.00144 
L 94.050627 16.803626 
L 94.293936 16.624555 
L 95.008536 16.372919 
L 98.455093 15.818865 
L 99.321042 15.735751 
L 100.194656 15.701131 
L 102.444784 15.840572 
L 102.914159 15.82256 
L 103.356713 15.738983 
L 103.626844 15.614837 
L 103.85291 15.479703 
L 104.157525 15.363092 
L 104.74185 15.212936 
L 104.946842 15.123173 
L 105.044549 15.004473 
L 105.251458 14.893199 
L 106.02928 14.760396 
L 106.19404 14.646505 
L 106.126986 14.584077 
L 105.975637 14.539564 
L 105.62121 14.475335 
L 105.473692 14.428553 
L 105.450703 14.388659 
L 105.471777 14.3529 
L 105.460282 14.315772 
L 105.184404 14.175116 
L 105.169077 14.119248 
L 105.312764 14.034562 
L 105.347248 13.973244 
L 105.37407 13.680193 
L 105.41047 13.644563 
L 105.483272 13.613507 
L 105.550325 13.571954 
L 105.573315 13.503936 
L 105.519672 13.441873 
L 105.278279 13.288171 
L 105.178656 13.238483 
L 104.885536 13.007991 
L 104.943011 12.771408 
L 105.634621 12.063408 
L 105.858772 11.941136 
L 107.54086 11.433417 
L 107.452733 11.36119 
L 106.874156 11.023445 
L 107.326289 10.821268 
L 107.542776 10.768621 
L 107.713284 10.697548 
L 107.696042 10.489433 
L 107.814822 10.387033 
L 108.079205 10.29187 
L 107.987246 10.228604 
L 107.786085 10.179263 
L 107.713284 10.126796 
L 107.964256 10.029973 
L 109.077346 9.885728 
L 109.558217 9.740701 
L 109.887738 9.552423 
L 109.908812 9.347817 
L 109.464342 9.152357 
L 109.153979 9.072982 
L 109.104168 8.987849 
L 109.236359 8.896074 
L 109.468173 8.795442 
L 109.908812 8.670841 
L 110.406924 8.607683 
L 113.177197 8.482321 
L 113.489476 8.446329 
L 113.725121 8.38236 
L 113.947356 8.30465 
L 114.786485 8.078371 
L 115.686919 7.764265 
L 117.575916 7.415798 
L 118.116177 7.241375 
L 117.893942 7.086082 
L 118.079776 7.02193 
L 118.731154 6.871452 
L 119.09516 6.710317 
L 119.710137 6.651359 
L 122.919133 6.567794 
L 124.122266 6.624526 
L 125.840755 6.542073 
L 126.417417 6.573951 
L 127.444295 6.694696 
L 127.999882 6.668076 
L 128.490332 6.675116 
L 129.85631 6.841283 
L 130.210737 6.851412 
L 134.130501 6.615289 
L 134.883417 6.451749 
L 134.747394 6.434393 
L 134.477264 6.377282 
L 134.341241 6.358396 
L 134.551981 6.282432 
L 134.822111 6.259824 
L 135.116189 6.255874 
L 135.412183 6.234586 
L 136.603822 5.98876 
L 138.792644 5.816161 
L 138.933457 5.66954 
L 139.705531 5.490478 
L 140.678767 5.437822 
L 143.035223 5.516922 
L 144.42036 5.378411 
L 144.98361 5.417506 
L 145.537282 5.564792 
L 146.535423 5.93464 
L 149.989643 6.914621 
L 150.395797 6.985346 
L 153.953471 7.240051 
L 153.92665 7.529374 
L 154.386446 7.701421 
L 155.093383 7.793925 
L 155.802236 7.843073 
L 161.829399 8.321522 
L 167.856563 8.801229 
L 168.151599 8.889839 
L 169.189973 9.562704 
L 171.810812 10.617511 
L 169.673717 11.380598 
L 162.917584 12.785504 
L 162.683854 12.900582 
L 162.534421 13.096784 
L 162.216395 13.753757 
L 162.22789 13.895938 
L 162.451082 13.9888 
z
" clip-path="url(#p1ce1a54d88)" style="stroke: #000000; stroke-linejoin: miter"/>
   </g>
   <g id="line2d_1">
    <path d="M 164.572851 14.458822 
L 162.337091 14.838964 
L 160.108995 14.985156 
L 154.491816 15.604687 
L 154.545459 15.769454 
L 155.12212 15.896931 
L 160.386788 15.903861 
L 161.744146 16.168322 
L 160.166469 17.133424 
L 155.190132 18.924616 
L 155.18151 19.059263 
L 155.802236 19.53475 
L 159.191318 21.901986 
L 159.683683 22.093798 
L 160.36763 22.190484 
L 171.556966 23.114305 
L 172.100101 23.2622 
L 177.495045 25.433365 
L 178.65603 25.724204 
L 184.13527 26.725954 
L 183.547114 26.94837 
L 183.468566 27.070136 
L 183.217593 27.804083 
L 182.40816 28.405127 
L 174.8493 30.50162 
L 174.337776 30.801559 
L 173.383699 31.031726 
L 167.276071 33.361508 
L 166.379468 34.170296 
L 167.076825 34.854324 
L 171.396995 36.394765 
L 172.170986 36.939733 
L 172.753395 37.216616 
L 172.863554 37.41589 
L 173.013946 37.492284 
L 175.326338 38.424916 
L 175.650112 39.031542 
L 176.420271 39.695659 
L 177.489297 40.273444 
L 180.112052 41.342458 
L 182.110251 42.072339 
L 182.487667 42.468455 
L 183.190772 43.422828 
L 184.141018 44.010685 
L 184.688942 44.519997 
L 185.508912 45.13658 
L 186.116226 46.331908 
L 186.072162 46.553468 
L 185.786706 46.646631 
L 184.01649 46.424466 
L 179.59095 46.731377 
L 178.452954 46.922616 
L 178.998962 47.13409 
L 180.968423 47.58297 
L 180.730861 47.715448 
L 178.887844 48.338972 
L 178.736495 48.720431 
L 178.966393 49.636258 
L 178.772895 50.011258 
L 176.826424 50.629365 
L 176.176962 50.982121 
L 177.040996 51.191684 
L 179.638845 51.169405 
L 180.8688 51.297733 
L 180.981834 51.694099 
L 180.405172 52.023178 
L 180.958844 52.132509 
L 181.183952 52.166986 
L 181.098699 52.307635 
L 180.633155 52.457523 
L 177.803491 52.621521 
L 177.052491 52.785615 
L 176.516062 53.076796 
L 176.326396 53.526315 
L 177.169356 54.410675 
L 178.368658 55.126255 
L 179.887901 55.585586 
L 181.696434 55.699034 
L 185.849928 55.797792 
L 186.192859 55.944629 
L 186.020435 56.125958 
L 185.984035 56.383401 
L 186.395936 56.583065 
L 187.441972 56.994863 
L 187.312655 57.202627 
L 186.489811 57.493418 
L 183.123718 57.986784 
L 183.376606 58.052226 
L 183.471439 58.33561 
L 183.838319 58.607147 
L 183.784676 58.677137 
L 185.265603 59.021822 
L 185.12479 59.272455 
L 184.721511 59.54486 
L 184.562498 59.82305 
L 184.942788 60.025082 
L 187.008998 60.412926 
L 190.828181 60.854022 
L 192.227686 61.392544 
L 193.900196 61.565589 
L 194.313054 61.727039 
L 194.160747 61.951543 
L 193.831226 62.163946 
L 193.836973 62.343574 
L 194.831283 63.185681 
L 194.721124 63.549624 
L 194.199063 63.868011 
L 193.402083 64.197399 
L 190.051317 65.235576 
L 188.883626 65.948468 
L 187.696776 66.364329 
L 183.604589 66.924021 
L 183.982005 67.211331 
L 188.45544 68.679764 
L 191.013058 69.224208 
L 193.018919 70.001734 
L 199.178275 70.960109 
L 202.032844 71.921933 
L 206.278297 72.774686 
L 206.680618 72.960514 
L 207.368397 74.028485 
L 207.845436 74.206337 
L 209.54764 74.619186 
L 212.123458 75.79737 
L 212.429989 76.064162 
L 213.054545 76.217461 
L 210.677015 77.542668 
L 210.108017 78.020642 
L 208.929789 79.352697 
L 207.763056 79.995043 
L 207.015887 80.790446 
L 206.604944 80.924917 
L 205.33284 81.202301 
L 204.783958 81.574962 
L 201.887241 82.569409 
L 201.118998 83.099383 
L 200.78373 83.205593 
L 198.675372 83.66532 
L 195.731718 84.461742 
L 195.216363 84.840302 
L 192.871401 85.808718 
L 190.255351 86.691726 
L 183.547114 89.769498 
L 180.659018 90.751318 
L 179.866827 91.357203 
L 176.625263 92.465401 
L 175.008313 92.750686 
L 174.337776 93.227364 
L 174.014003 93.475576 
L 170.785849 94.634042 
L 170.285821 94.939434 
L 169.189973 95.47062 
L 167.835489 95.857716 
L 164.059412 96.639274 
L 162.745161 97.060947 
L 161.370561 97.368616 
L 160.792942 97.675294 
L 159.319678 98.261484 
L 159.005484 98.510235 
L 158.279388 98.868446 
L 156.645196 99.009153 
L 155.802236 99.210828 
L 153.114343 100.103005 
L 151.409265 100.921368 
L 149.633301 101.330882 
L 146.535423 102.642274 
L 143.32602 103.814331 
L 142.476724 103.484603 
L 142.058865 103.557357 
L 142.126748 103.596462 
L 142.312296 103.73113 
L 141.997016 103.783624 
L 141.945726 103.921329 
L 142.312296 104.229604 
L 141.932149 104.312909 
L 142.312296 104.389288 
L 141.426796 104.638364 
L 140.149081 104.55499 
L 140.321052 104.417065 
L 141.171856 104.229604 
L 140.069129 104.196386 
L 139.625625 104.461216 
L 139.830784 104.654742 
L 140.022365 104.812611 
L 139.332972 104.736647 
L 137.776182 104.291586 
L 137.112434 104.389288 
L 137.365865 104.436908 
L 137.49258 104.55499 
L 137.379441 104.589231 
L 137.112434 104.729201 
L 137.632872 104.890575 
L 137.742994 104.979483 
L 136.818273 104.903488 
L 134.378999 104.389288 
L 132.659288 104.312909 
L 132.629117 104.139872 
L 133.107318 104.101705 
L 134.06221 104.146317 
L 133.632282 104.015471 
L 132.279141 103.73113 
L 132.571794 103.491531 
L 132.328922 103.426211 
L 131.645564 103.640521 
L 131.758702 103.824732 
L 132.070966 104.177052 
L 131.645564 104.312909 
L 131.49622 104.111618 
L 130.903373 104.106662 
L 130.43724 103.890118 
L 130.309016 103.929256 
L 129.989211 104.146317 
L 129.814222 104.111618 
L 129.35865 103.890118 
L 128.803515 104.020922 
L 128.735632 104.285635 
L 128.568186 104.345145 
L 128.317772 104.6066 
L 127.922541 104.661195 
L 127.079279 104.638364 
L 127.708331 104.967064 
L 127.654024 105.104683 
L 126.948038 104.863261 
L 126.770033 104.770904 
L 124.525357 104.979483 
L 124.916064 104.638364 
L 124.208569 104.669633 
L 123.5765 104.850846 
L 123.513142 104.937758 
L 123.513142 105.229922 
L 122.816206 105.438243 
L 122.555233 105.459629 
L 121.251873 105.034625 
L 120.512699 105.103192 
L 120.462918 105.229922 
L 120.072212 105.278139 
L 119.118828 105.033135 
L 118.761309 104.850846 
L 118.616492 104.61603 
L 119.40243 104.389784 
L 119.761457 104.271255 
L 120.336202 103.851975 
L 120.331677 103.474705 
L 120.56248 103.348039 
L 121.399708 103.126471 
L 122.172069 103.165039 
L 123.775624 103.557357 
L 123.378884 103.086918 
L 122.775476 102.754833 
L 122.033285 102.614077 
L 121.223211 102.720256 
L 120.784232 102.896132 
L 118.449046 104.361512 
L 118.271041 104.770904 
L 118.817124 105.146425 
L 118.183547 105.48002 
L 117.531867 105.53573 
L 117.676685 105.730773 
L 117.276927 105.649162 
L 116.919409 105.48002 
L 116.880187 105.696932 
L 116.282814 105.855213 
L 116.15459 105.980687 
L 115.819699 105.889565 
L 114.979454 105.325368 
L 114.366996 105.059964 
L 114.110548 105.062945 
L 114.065292 105.212028 
L 114.882909 105.655133 
L 112.973125 105.563587 
L 112.454195 105.730773 
L 112.30636 105.647171 
L 109.461294 104.756009 
L 108.280125 104.638364 
L 108.280125 104.729201 
L 109.491465 104.972032 
L 109.883679 105.18668 
L 110.48407 105.379067 
L 110.556479 105.60886 
L 110.416186 105.674041 
L 109.941003 105.675037 
L 110.040565 105.821361 
L 110.244215 105.917945 
L 110.936625 106.071829 
L 111.457064 106.367812 
L 111.819108 106.466023 
L 111.66524 106.758305 
L 111.506845 106.82517 
L 110.556479 106.909017 
L 110.533851 106.628597 
L 109.759981 106.233248 
L 109.922901 106.071829 
L 109.533703 106.133101 
L 109.22144 106.231753 
L 108.845819 106.184915 
L 107.352386 105.717834 
L 106.886254 105.655133 
L 107.943725 106.08229 
L 108.280125 106.15552 
L 108.094577 106.404202 
L 107.669175 106.66102 
L 107.646547 106.82517 
L 107.820027 107.009856 
L 108.354042 107.332511 
L 108.519979 107.57942 
L 107.639004 107.44745 
L 107.382556 107.327514 
L 107.519831 107.24358 
L 107.237738 107.10273 
L 106.116909 106.992881 
L 105.249511 106.652041 
L 104.97647 106.74134 
L 105.094134 106.957936 
L 107.012969 107.327514 
L 104.911603 107.553923 
L 103.320117 106.909017 
L 103.342744 106.74134 
L 103.707806 106.569744 
L 103.320117 106.399217 
L 104.333841 106.399217 
L 104.071359 106.13609 
L 103.671601 106.114171 
L 102.449702 106.433616 
L 101.030186 106.649547 
L 101.408824 106.834652 
L 101.294177 107.167655 
L 100.597241 107.567421 
L 97.981471 107.57942 
L 98.014658 107.396473 
L 97.782346 107.308527 
L 97.094462 107.24358 
L 97.138209 107.300533 
L 97.233246 107.502932 
L 96.663026 107.570421 
L 94.807548 107.642421 
L 94.721563 107.850494 
L 94.151343 107.842489 
L 95.057962 108.082702 
L 94.640103 108.128758 
L 94.931247 108.250434 
L 94.558643 108.340587 
L 93.033531 108.426251 
L 93.160246 108.250434 
L 92.164624 108.517947 
L 92.526669 108.594627 
L 92.409004 108.669816 
L 92.116352 108.666809 
L 91.820682 108.777111 
L 91.238394 108.594627 
L 91.675864 108.332072 
L 91.757324 108.141775 
L 91.630609 107.998611 
L 91.254988 107.977091 
L 90.990997 108.141775 
L 90.367979 108.831271 
L 88.408414 108.82776 
L 88.203255 108.67884 
L 88.885106 108.606656 
L 88.845884 108.384168 
L 88.357124 108.200858 
L 87.696393 108.250434 
L 88.07654 108.594627 
L 86.104907 108.893463 
L 85.222423 109.053501 
L 85.181693 109.142326 
L 85.1651 109.352171 
L 84.781936 109.249244 
L 84.646169 109.008343 
L 84.430451 108.919547 
L 82.917407 108.716441 
L 83.430304 108.932589 
L 83.804416 109.030921 
L 83.394099 109.271835 
L 82.899305 109.371254 
L 82.757505 109.520929 
L 84.0141 109.352171 
L 83.91303 109.468687 
L 83.380523 109.689253 
L 83.760669 109.85815 
L 82.510108 110.165961 
L 81.41794 110.647755 
L 80.457014 110.710223 
L 80.606358 110.540473 
L 81.344023 110.027115 
L 81.01064 110.015547 
L 79.68767 110.541984 
L 79.556429 110.330523 
L 78.536671 110.634154 
L 78.655843 110.428184 
L 79.420662 110.069871 
L 79.429713 109.831504 
L 79.560954 109.689253 
L 78.225916 109.710361 
L 77.904601 109.85815 
L 78.158032 109.950167 
L 77.171462 110.116152 
L 76.01292 110.009008 
L 75.668977 110.176527 
L 76.132092 110.288244 
L 75.478904 110.33153 
L 74.705034 110.208227 
L 73.822551 110.350657 
L 73.600799 110.288244 
L 73.262891 110.487598 
L 72.918949 110.472492 
L 72.789216 110.34361 
L 73.096954 110.111624 
L 72.559921 110.212756 
L 72.197877 110.457386 
L 71.641234 110.611487 
L 70.387655 110.689063 
L 69.023955 111.140704 
L 68.500499 111.000017 
L 65.223997 111.084726 
L 64.834799 110.879539 
L 64.619081 110.880547 
L 62.164722 111.140704 
L 62.371389 110.952124 
L 63.440929 110.364752 
L 64.229884 110.242949 
L 64.264579 110.157407 
L 64.109202 109.939104 
L 64.327937 109.689253 
L 63.291585 109.916978 
L 63.078884 110.156401 
L 62.615769 110.25704 
L 62.178299 110.743476 
L 61.594502 110.921879 
L 60.969976 111.279924 
L 60.254938 111.556992 
L 58.325543 112.014129 
L 58.322526 112.242634 
L 58.526176 112.43939 
L 58.862576 112.574492 
L 52.131567 112.922316 
L 52.461933 112.84179 
L 53.205632 112.489479 
L 53.955366 112.439896 
L 57.32087 111.980774 
L 57.191137 111.716049 
L 57.278632 111.623637 
L 58.784133 111.564565 
L 59.648514 111.114983 
L 60.254938 110.487598 
L 60.374111 110.233891 
L 60.060339 110.325993 
L 58.345154 111.472187 
L 57.978584 111.472187 
L 58.005737 111.431305 
L 58.091723 111.302628 
L 57.504909 111.236035 
L 57.32087 111.302628 
L 57.378194 111.390931 
L 56.648071 111.310196 
L 56.255856 111.553963 
L 56.0688 111.341479 
L 56.267924 110.921879 
L 56.580188 110.81251 
L 58.244083 110.499683 
L 58.978732 110.111624 
L 58.005737 109.988388 
L 55.30549 110.111624 
L 54.451668 109.965254 
L 54.146948 109.835525 
L 54.0323 109.64704 
L 54.152982 109.494807 
L 55.055076 109.10017 
L 54.674929 108.931586 
L 54.143931 109.321541 
L 53.638577 109.436542 
L 53.615949 109.233681 
L 53.437944 109.101173 
L 51.881153 108.75555 
L 52.083295 108.512435 
L 51.74237 108.335077 
L 53.145292 107.57942 
L 54.674929 106.992881 
L 55.055076 106.574232 
L 55.739943 106.343886 
L 55.697704 106.231753 
L 55.322083 106.203849 
L 54.400379 106.612636 
L 54.168067 106.82517 
L 53.113613 106.704421 
L 51.926409 106.893045 
L 49.313655 107.665424 
L 45.400559 108.082702 
L 45.673601 107.968083 
L 46.667714 107.739442 
L 46.270974 107.610419 
L 46.809515 107.296536 
L 47.681439 107.167655 
L 45.00231 107.556422 
L 43.999146 107.57942 
L 44.153014 107.490935 
L 44.368732 107.189632 
L 45.098855 106.893045 
L 45.682652 106.673491 
L 45.782214 106.490455 
L 47.370684 105.809414 
L 47.239443 105.692951 
L 46.433894 105.976205 
L 45.741484 106.01754 
L 44.251068 105.980687 
L 44.631215 105.655133 
L 41.071112 105.894046 
L 40.292716 105.625279 
L 38.654465 105.258255 
L 37.725218 105.142946 
L 37.541179 104.922361 
L 36.862346 105.237378 
L 36.539523 105.207555 
L 35.990422 104.949679 
L 36.00249 104.812611 
L 35.916505 104.805163 
L 35.463949 104.763456 
L 35.281419 104.694948 
L 35.368913 104.55499 
L 34.469836 104.55499 
L 34.549787 104.470146 
L 34.747403 104.229604 
L 33.872463 104.108644 
L 32.952266 104.146317 
L 32.774261 104.271255 
L 32.858738 104.415081 
L 33.332413 104.729201 
L 32.071292 104.631415 
L 31.688128 104.729201 
L 32.105988 103.540033 
L 32.323214 103.425221 
L 32.813483 103.391081 
L 32.487643 103.165533 
L 32.532898 103.035011 
L 32.710904 102.894156 
L 29.368027 103.741034 
L 29.530947 103.909439 
L 29.021068 104.512318 
L 27.87912 104.608585 
L 27.476345 104.55499 
L 27.951528 104.399208 
L 27.690555 104.138385 
L 26.72812 103.640521 
L 27.019264 103.63161 
L 27.856492 103.73113 
L 26.141307 103.557357 
L 25.181889 103.609332 
L 24.703689 103.391081 
L 24.82437 103.38366 
L 25.071767 103.315389 
L 24.819845 103.142293 
L 25.706853 103.221908 
L 25.84262 103.142293 
L 23.860427 102.480776 
L 23.692982 102.251308 
L 23.733712 102.21875 
L 23.679405 102.148708 
L 25.267875 102.268082 
L 25.391573 102.116158 
L 25.123057 101.87261 
L 24.955611 101.726751 
L 25.84262 101.726751 
L 25.444371 101.639065 
L 24.311474 101.395813 
L 24.955611 101.314107 
L 24.317508 101.070566 
L 24.068603 101.066139 
L 24.190793 100.89944 
L 24.068603 100.727898 
L 23.819697 100.623732 
L 23.415414 100.612924 
L 23.172543 100.398789 
L 23.367142 100.279985 
L 23.035268 100.039052 
L 23.294733 99.994906 
L 24.691621 100.040524 
L 25.071767 99.905157 
L 24.655416 99.830137 
L 24.058043 99.79925 
L 23.679405 99.583114 
L 24.682569 99.514035 
L 25.071767 99.583114 
L 24.628263 99.165398 
L 24.320525 99.088075 
L 24.184758 98.91929 
L 23.035268 98.262956 
L 23.415414 98.092093 
L 22.730547 97.858866 
L 22.667189 97.690133 
L 23.068455 97.689158 
L 24.311474 97.928136 
L 24.709723 97.892036 
L 24.688604 97.802776 
L 23.932836 97.690133 
L 24.4578 97.578986 
L 25.543933 97.75157 
L 26.070406 97.690133 
L 25.810941 97.609694 
L 25.480576 97.323177 
L 25.715904 97.198989 
L 25.399116 96.792132 
L 25.198483 96.70167 
L 25.381013 96.69778 
L 25.84262 96.619981 
L 25.454931 96.586922 
L 25.335758 96.546087 
L 25.589189 96.375992 
L 25.335758 96.375992 
L 26.462621 96.287087 
L 26.335905 96.123905 
L 27.476345 95.968074 
L 27.204812 95.718684 
L 26.845785 95.605203 
L 25.955759 95.472367 
L 26.387195 95.290157 
L 26.553132 95.221367 
L 26.462621 95.066392 
L 27.222914 95.066392 
L 27.222914 94.977795 
L 27.177659 94.913418 
L 27.177659 94.507079 
L 26.969483 94.417164 
L 26.740188 93.857854 
L 26.215224 93.719363 
L 25.451914 93.606486 
L 25.988946 93.502321 
L 27.171625 93.539933 
L 27.741844 93.444947 
L 27.182184 93.140384 
L 26.589337 92.952566 
L 24.955611 92.629164 
L 27.43109 92.749444 
L 28.106906 92.629164 
L 27.615129 92.22579 
L 26.589337 92.22579 
L 25.660089 91.719191 
L 26.547098 91.628029 
L 30.408905 92.22579 
L 30.408905 92.137865 
L 28.517223 91.447691 
L 28.100872 90.945035 
L 27.069045 90.593251 
L 27.159556 90.332145 
L 26.72812 89.968055 
L 27.992258 90.127598 
L 27.498973 89.9437 
L 26.200139 89.666357 
L 25.84262 89.399715 
L 26.064372 89.096583 
L 26.195613 88.937968 
L 26.141307 88.797036 
L 25.371962 88.619996 
L 25.451914 88.441141 
L 24.43819 87.883265 
L 24.806268 87.679149 
L 24.350695 87.513094 
L 24.184758 87.318669 
L 22.274974 87.159415 
L 22.597797 86.928243 
L 22.33079 86.832596 
L 21.51619 86.769162 
L 22.40169 85.724595 
L 22.489184 85.184142 
L 22.624951 85.081426 
L 22.919112 85.32837 
L 23.294733 84.82524 
L 23.172543 84.695804 
L 23.43955 84.557479 
L 24.248116 84.34069 
L 24.358238 84.182768 
L 24.190793 84.07095 
L 23.679405 83.907514 
L 24.068603 83.506295 
L 23.661303 83.515206 
L 22.919112 83.907514 
L 23.415414 82.484919 
L 22.148259 82.556472 
L 21.958186 82.296052 
L 22.048697 82.144192 
L 22.274974 82.014813 
L 22.148259 81.850473 
L 20.882612 82.557875 
L 21.136043 82.720679 
L 20.733269 82.697283 
L 20.648792 82.52046 
L 20.882612 82.085335 
L 20.773999 82.07179 
L 20.491906 82.014813 
L 20.882612 81.772066 
L 20.221881 81.729603 
L 19.565676 81.782799 
L 19.995603 81.231634 
L 19.434435 81.345805 
L 19.288108 81.284754 
L 19.273023 80.876782 
L 19.686357 80.592048 
L 19.995603 80.514392 
L 19.47969 80.209983 
L 21.009328 79.890994 
L 20.718184 79.676644 
L 19.384653 79.579257 
L 19.099543 79.424423 
L 18.674141 79.542165 
L 18.33925 79.73509 
L 18.389031 79.457795 
L 18.672633 79.012185 
L 18.59419 78.795614 
L 19.461588 78.660559 
L 20.111759 78.329623 
L 20.015214 78.188289 
L 19.733121 78.175359 
L 19.289617 77.985167 
L 19.131222 77.788163 
L 19.23531 77.627693 
L 19.92772 77.478358 
L 20.529619 77.614324 
L 20.694047 77.494948 
L 21.136043 77.246653 
L 21.333659 76.753374 
L 21.642905 76.629248 
L 22.087918 76.633845 
L 23.742763 76.741419 
L 24.53926 76.276433 
L 25.055173 75.787796 
L 25.715904 75.704823 
L 25.337266 75.100795 
L 25.362911 74.697962 
L 25.788313 74.619373 
L 26.037219 74.6742 
L 26.070406 74.504265 
L 26.308752 74.35222 
L 26.833716 74.43942 
L 27.607586 74.69979 
L 29.304669 74.956706 
L 29.892991 74.853367 
L 29.099511 74.537149 
L 27.503499 74.089846 
L 27.385834 73.938904 
L 27.741844 73.773451 
L 27.51255 73.814464 
L 26.992111 73.814464 
L 26.710018 73.614001 
L 26.69795 73.414117 
L 26.462621 73.391814 
L 26.593862 73.269402 
L 26.811089 73.228456 
L 27.361698 73.23892 
L 27.361698 73.162955 
L 26.417365 73.000621 
L 26.335905 72.816105 
L 26.839751 72.632602 
L 27.476345 72.552239 
L 29.128173 72.942437 
L 29.512845 72.697997 
L 30.378734 72.890172 
L 31.295913 72.850637 
L 30.155474 72.628516 
L 31.182775 72.452834 
L 32.354893 72.428328 
L 33.71256 72.241416 
L 33.492316 72.515469 
L 33.626574 73.048358 
L 33.459129 73.162955 
L 33.91621 73.1907 
L 35.368913 73.551154 
L 34.849982 73.086552 
L 35.749059 72.850637 
L 36.126189 72.476434 
L 36.660204 72.459641 
L 37.002638 72.628516 
L 37.290765 72.628516 
L 38.2532 72.49232 
L 38.912422 72.552239 
L 40.604979 71.964422 
L 40.948922 71.785024 
L 41.369798 72.070023 
L 41.786149 71.981189 
L 42.594715 71.563633 
L 42.413693 71.502087 
L 41.855541 71.137578 
L 41.32756 70.992974 
L 39.984978 70.559104 
L 39.482642 70.464823 
L 39.292569 70.343967 
L 39.206583 70.042478 
L 39.622934 69.904672 
L 40.241427 69.91863 
L 41.881186 70.352984 
L 43.112137 70.488728 
L 40.856902 69.719674 
L 40.695491 69.430915 
L 41.084688 69.25428 
L 41.921916 69.324832 
L 41.84649 69.657582 
L 43.023134 69.837593 
L 42.985421 70.110052 
L 43.745714 69.883511 
L 43.745714 69.808784 
L 43.665763 69.611696 
L 43.925228 69.382364 
L 44.424548 68.89996 
L 44.80922 68.771623 
L 44.999293 68.621364 
L 45.782214 68.75278 
L 45.635888 68.614638 
L 44.884646 68.226099 
L 45.528783 67.993743 
L 45.451849 67.886354 
L 45.400559 67.844303 
L 46.524405 67.85146 
L 46.667714 67.659614 
L 46.586254 67.343257 
L 46.679782 67.332539 
L 47.621098 67.395515 
L 47.998227 67.32718 
L 48.471902 67.44778 
L 48.773606 67.694486 
L 48.692146 67.844303 
L 49.666649 68.214007 
L 51.0394 67.970472 
L 51.525143 67.52061 
L 52.384998 67.319142 
L 51.108792 67.094151 
L 52.384998 67.094151 
L 51.881153 66.869323 
L 52.828503 66.903661 
L 52.891861 66.674068 
L 52.828503 66.638864 
L 52.327675 66.466912 
L 52.397067 66.340013 
L 53.145292 66.278586 
L 53.367044 66.357375 
L 54.018724 66.707494 
L 54.237459 66.571141 
L 54.0323 66.419263 
L 54.101692 66.215836 
L 54.0323 66.115729 
L 55.593617 65.656989 
L 56.661648 65.710296 
L 57.049337 65.590368 
L 57.007098 65.574826 
L 56.833619 65.454063 
L 57.305785 65.334235 
L 57.872988 65.294302 
L 59.885351 65.254819 
L 60.254938 65.072551 
L 60.705985 65.204695 
L 61.511534 65.071221 
L 61.911291 64.923623 
L 61.078589 64.685312 
L 61.078589 64.582161 
L 61.187202 64.334828 
L 61.015231 64.133657 
L 61.553772 63.494773 
L 62.544869 63.581233 
L 63.412267 63.675662 
L 63.594797 63.651831 
L 64.183119 63.757759 
L 65.409545 63.803672 
L 65.693146 63.691108 
L 65.436698 63.440969 
L 64.697524 63.056676 
L 64.836308 62.941307 
L 66.156261 62.755576 
L 66.364437 62.694425 
L 66.444388 62.551492 
L 67.618016 62.170963 
L 67.4913 62.170963 
L 67.631592 61.84311 
L 67.841276 61.764602 
L 68.527652 61.84311 
L 69.805367 61.549795 
L 70.165903 61.208175 
L 71.341039 61.350031 
L 71.691015 61.43544 
L 71.528095 61.309306 
L 71.353107 61.019138 
L 71.425516 60.847709 
L 71.645759 60.685117 
L 72.448291 60.328338 
L 72.822403 59.907045 
L 74.311311 59.632611 
L 74.234377 59.451103 
L 74.881531 59.418034 
L 75.134962 59.353648 
L 76.641972 59.0089 
L 76.777738 58.860344 
L 77.841244 58.747022 
L 78.041877 58.562156 
L 79.434239 58.20577 
L 79.3211 57.950239 
L 79.683144 57.786643 
L 79.560954 57.690174 
L 79.833996 57.352566 
L 80.494727 56.934667 
L 80.699886 56.8208 
L 80.918621 56.79622 
L 81.470738 56.603541 
L 82.570448 56.407114 
L 82.863101 56.242667 
L 82.60967 56.026273 
L 83.068259 55.846142 
L 83.633954 55.73743 
L 82.7213 55.482785 
L 83.461983 55.455316 
L 85.281256 55.593118 
L 85.285781 55.543742 
L 85.026316 55.406393 
L 85.172642 55.225364 
L 87.071867 54.845665 
L 89.367831 54.768587 
L 93.033531 54.29288 
L 93.534359 54.432258 
L 93.932608 54.651725 
L 94.611441 54.696666 
L 94.748716 54.899632 
L 95.311393 55.101885 
L 96.083755 55.22708 
L 95.754898 55.242519 
L 95.450177 55.299135 
L 96.08828 55.365201 
L 97.990522 55.190202 
L 97.79894 54.899632 
L 98.108186 54.501545 
L 97.942249 54.368973 
L 96.463901 54.251421 
L 95.420007 54.077107 
L 94.816599 53.784689 
L 94.911636 53.753117 
L 95.373243 53.535625 
L 97.581713 53.675056 
L 99.09174 53.972485 
L 99.399478 53.928512 
L 99.49904 53.784689 
L 99.14303 53.550972 
L 99.002737 53.451232 
L 99.120402 53.2838 
L 98.937871 53.130515 
L 98.993686 53.06965 
L 98.24697 52.748944 
L 98.135339 52.553893 
L 97.866823 52.427756 
L 97.284535 52.288944 
L 95.196746 52.143414 
L 95.463754 51.800892 
L 96.513682 51.439329 
L 96.572515 51.300165 
L 96.463901 51.142473 
L 97.347893 51.070632 
L 96.841031 51.000501 
L 97.094462 50.787679 
L 96.463901 50.716775 
L 96.730909 50.611297 
L 97.233246 50.144306 
L 97.160837 50.112303 
L 96.967746 50.00369 
L 97.139717 49.987696 
L 97.486677 49.862305 
L 96.21047 49.509583 
L 96.468427 49.473033 
L 97.396166 49.376432 
L 97.866823 49.156897 
L 97.663173 48.9845 
L 97.925655 48.603601 
L 97.79894 48.412306 
L 96.721858 47.991267 
L 94.931247 47.605926 
L 93.591683 47.62178 
L 92.979224 47.274884 
L 92.653384 47.078287 
L 91.368127 46.946748 
L 89.870168 46.911793 
L 89.340678 46.698001 
L 87.931722 46.587428 
L 86.555953 46.698001 
L 85.475854 46.900558 
L 85.180185 46.763285 
L 85.118336 46.294592 
L 84.968992 46.251836 
L 83.56607 46.02945 
L 83.026021 45.741786 
L 82.944561 45.5546 
L 83.1286 45.293921 
L 83.406167 45.100441 
L 85.1651 44.25461 
L 85.856001 44.177178 
L 85.913325 44.047078 
L 85.616147 44.129001 
L 84.140816 44.358438 
L 84.077458 44.530752 
L 83.624903 44.632214 
L 82.817845 45.092176 
L 82.357747 45.223623 
L 80.674241 45.3237 
L 80.446455 45.470162 
L 80.244313 45.496235 
L 79.360321 45.394852 
L 78.610588 45.160785 
L 77.157885 44.952946 
L 77.343433 45.091762 
L 77.397739 45.243057 
L 77.269515 45.370857 
L 76.563529 45.399403 
L 75.764014 45.022345 
L 75.76989 44.769391 
L 75.047626 44.484389 
L 74.637641 44.082561 
L 73.756365 43.685007 
L 73.765944 43.308909 
L 73.104987 42.666482 
L 72.103014 42.338079 
L 71.099125 41.665441 
L 70.68914 41.540391 
L 68.106617 41.254537 
L 67.627663 41.084728 
L 66.821103 40.322382 
L 66.489667 39.988244 
L 66.52032 39.889992 
L 66.742555 39.655063 
L 66.75405 39.519707 
L 66.547141 39.103309 
L 66.110335 38.798955 
L 66.298085 38.575282 
L 67.292394 38.336477 
L 67.756022 38.295081 
L 67.756022 38.137223 
L 70.551201 37.540933 
L 70.761941 37.220686 
L 70.551201 36.868846 
L 70.869227 36.529181 
L 70.942028 36.131729 
L 70.746615 35.700541 
L 72.018718 35.283749 
L 72.725655 35.256998 
L 72.763971 35.099328 
L 71.505279 34.355512 
L 68.886355 33.38279 
L 67.991668 33.26564 
L 66.748302 32.709719 
L 66.635269 32.557719 
L 66.560552 32.329032 
L 64.843979 31.605537 
L 65.457041 31.334587 
L 65.602643 31.212006 
L 65.167752 31.106103 
L 65.376576 30.76813 
L 65.738666 30.684209 
L 67.836487 30.486287 
L 68.351842 30.3256 
L 68.767574 30.028995 
L 68.133439 29.945836 
L 68.131523 29.723406 
L 68.388242 29.241806 
L 67.750275 29.133856 
L 66.487751 29.088135 
L 65.225227 28.922777 
L 63.048857 29.015884 
L 62.428132 28.852298 
L 62.198234 28.619649 
L 62.424301 28.437476 
L 63.188712 28.075039 
L 62.979888 27.961041 
L 64.464647 27.65798 
L 64.26157 27.28363 
L 63.671498 26.882157 
L 63.257681 26.359479 
L 63.186796 26.243441 
L 63.096753 25.494791 
L 63.041194 25.267068 
L 63.12549 25.049237 
L 63.451179 24.885643 
L 64.075736 24.782918 
L 65.995386 24.593508 
L 66.460929 24.412927 
L 66.478172 24.24933 
L 66.125661 24.130559 
L 64.838231 24.036358 
L 62.68102 23.562612 
L 61.152197 23.232038 
L 61.085144 23.153542 
L 60.132982 22.507999 
L 59.885841 22.440261 
L 59.247874 22.445984 
L 57.274581 22.657862 
L 56.981461 22.447415 
L 57.16538 22.134754 
L 57.14239 22.061421 
L 56.973798 21.993825 
L 57.081084 21.778329 
L 56.799458 21.624333 
L 55.62123 21.26023 
L 55.444975 21.109457 
L 55.171013 21.03648 
L 51.889216 20.552346 
L 50.649682 20.151881 
L 49.544255 20.237765 
L 47.593952 19.856277 
L 46.931079 19.877949 
L 45.331371 19.756894 
L 44.1359 19.633085 
L 42.599414 19.591675 
L 42.610909 19.502296 
L 42.545771 19.482073 
L 41.285163 19.411544 
L 36.378753 19.301098 
L 36.116286 19.099628 
L 34.169814 18.575509 
L 30.794143 18.397203 
L 30.418642 18.113918 
L 25.500737 17.416738 
L 24.284193 16.900651 
L 22.70939 16.852365 
L 22.24193 16.697834 
L 21.146082 16.331705 
L 18.467769 15.864592 
L 14.990559 15.531809 
L 15.048033 15.350191 
L 15.607452 15.297673 
L 15.912067 15.15447 
L 15.917815 14.994814 
L 15.48484 14.872514 
L 14.609311 14.82288 
L 13.337208 14.601059 
L 11.114859 14.539564 
L 10.145455 14.378114 
L 12.392709 13.775695 
L 18.456274 14.375363 
L 18.965881 14.312105 
L 20.02916 13.923838 
L 17.753168 13.09724 
L 18.607623 12.666404 
L 18.954386 12.584169 
L 22.94312 12.128199 
L 29.418585 12.375785 
L 36.095212 14.594175 
L 38.899969 15.201886 
L 39.378924 15.51613 
L 40.806208 15.971792 
L 42.551519 16.283556 
L 43.020894 17.098561 
L 43.252708 17.268751 
L 43.614798 17.294339 
L 46.724171 17.163179 
L 51.454326 17.603972 
L 55.529271 17.55738 
L 56.01972 17.654303 
L 57.866569 18.124662 
L 63.131237 17.514525 
L 66.096924 17.43024 
L 67.824992 17.245958 
L 68.43997 16.881614 
L 68.796312 16.488271 
L 70.009025 16.336798 
L 71.424814 16.340966 
L 75.172155 16.700153 
L 76.204781 16.984251 
L 78.904168 17.307366 
L 85.038618 17.690661 
L 86.720706 17.945349 
L 89.519717 18.677603 
L 90.130863 18.393928 
L 90.383751 18.241955 
L 91.404882 18.155965 
L 93.732601 17.857152 
L 93.951004 17.673413 
L 93.738348 17.541076 
L 93.92993 17.421394 
L 94.050627 16.803626 
L 94.293936 16.624555 
L 95.008536 16.372919 
L 99.321042 15.735751 
L 100.194656 15.701131 
L 102.914159 15.82256 
L 103.626844 15.614837 
L 104.157525 15.363092 
L 104.946842 15.123173 
L 105.251458 14.893199 
L 106.19404 14.646505 
L 105.975637 14.539564 
L 105.450703 14.388659 
L 105.471777 14.3529 
L 105.460282 14.315772 
L 105.169077 14.119248 
L 105.347248 13.973244 
L 105.483272 13.613507 
L 105.573315 13.503936 
L 105.278279 13.288171 
L 104.885536 13.007991 
L 104.943011 12.771408 
L 105.858772 11.941136 
L 107.54086 11.433417 
L 107.452733 11.36119 
L 106.874156 11.023445 
L 107.713284 10.697548 
L 107.696042 10.489433 
L 108.079205 10.29187 
L 107.987246 10.228604 
L 107.713284 10.126796 
L 107.964256 10.029973 
L 109.558217 9.740701 
L 109.887738 9.552423 
L 109.908812 9.347817 
L 109.104168 8.987849 
L 109.468173 8.795442 
L 110.406924 8.607683 
L 113.725121 8.38236 
L 115.686919 7.764265 
L 118.116177 7.241375 
L 117.893942 7.086082 
L 119.09516 6.710317 
L 119.710137 6.651359 
L 126.417417 6.573951 
L 127.999882 6.668076 
L 128.490332 6.675116 
L 130.210737 6.851412 
L 134.130501 6.615289 
L 134.883417 6.451749 
L 134.747394 6.434393 
L 134.341241 6.358396 
L 134.551981 6.282432 
L 135.412183 6.234586 
L 136.603822 5.98876 
L 138.792644 5.816161 
L 138.933457 5.66954 
L 139.705531 5.490478 
L 140.678767 5.437822 
L 143.035223 5.516922 
L 144.98361 5.417506 
L 146.535423 5.93464 
L 150.395797 6.985346 
L 153.953471 7.240051 
L 153.92665 7.529374 
L 154.386446 7.701421 
L 155.802236 7.843073 
L 168.151599 8.889839 
L 169.189973 9.562704 
L 171.810812 10.617511 
L 169.673717 11.380598 
L 162.683854 12.900582 
L 162.534421 13.096784 
L 162.22789 13.895938 
L 162.451082 13.9888 
L 164.572851 14.458822 
L 164.572851 14.458822 
" clip-path="url(#p1ce1a54d88)" style="fill: none; stroke: #000000; stroke-width: 0.5; stroke-linecap: square"/>
   </g>
  </g>
 </g>
 <defs>
  <clipPath id="p1ce1a54d88">
   <rect x="0" y="-0" width="223.2" height="118.32504"/>
  </clipPath>
 </defs>
</svg>
