<?xml version="1.0" encoding="utf-8" standalone="no"?>
<!DOCTYPE svg PUBLIC "-//W3C//DTD SVG 1.1//EN"
  "http://www.w3.org/Graphics/SVG/1.1/DTD/svg11.dtd">
<svg xmlns:xlink="http://www.w3.org/1999/xlink" width="223.2pt" height="214.118749pt" viewBox="0 0 223.2 214.118749" xmlns="http://www.w3.org/2000/svg" version="1.1">
 <metadata>
  <rdf:RDF xmlns:dc="http://purl.org/dc/elements/1.1/" xmlns:cc="http://creativecommons.org/ns#" xmlns:rdf="http://www.w3.org/1999/02/22-rdf-syntax-ns#">
   <cc:Work>
    <dc:type rdf:resource="http://purl.org/dc/dcmitype/StillImage"/>
    <dc:date>2026-04-26T19:22:17.768464</dc:date>
    <dc:format>image/svg+xml</dc:format>
    <dc:creator>
     <cc:Agent>
      <dc:title>Matplotlib v3.10.9, https://matplotlib.org/</dc:title>
     </cc:Agent>
    </dc:creator>
   </cc:Work>
  </rdf:RDF>
 </metadata>
 <defs>
  <style type="text/css">*{stroke-linejoin: round; stroke-linecap: butt}</style>
 </defs>
 <g id="figure_1">
  <g id="patch_1">
   <path d="M 0 214.118749 
L 223.2 214.118749 
L 223.2 0 
L 0 0 
z
" style="fill: #ffffff"/>
  </g>
  <g id="axes_1">
   <g id="patch_2">
    <path d="M 198.921074 132.873398 
L 208.315479 146.217512 
L 213.054545 169.607423 
L 210.040298 192.569523 
L 196.107777 204.386079 
L 189.476432 203.12009 
L 167.070526 195.39719 
L 160.857827 191.852041 
L 147.394189 170.451716 
L 136.844322 147.399812 
L 133.076513 129.57931 
L 131.217727 126.116172 
L 127.28246 125.947235 
L 125.222724 129.790473 
L 123.7156 134.478169 
L 121.404677 136.758586 
L 113.132243 138.152147 
L 89.0685 147.399812 
L 80.159724 148.075405 
L 73.645601 146.766439 
L 60.734574 140.643616 
L 37.323919 136.167372 
L 32.63509 132.873398 
L 25.417642 102.039664 
L 22.654582 97.477117 
L 18.769552 93.928318 
L 14.750555 85.182503 
L 11.585595 74.576604 
L 10.145455 65.195111 
L 14.013739 40.553772 
L 25.719066 26.222548 
L 42.280682 18.020243 
L 60.734574 12.016052 
L 78.954026 9.73267 
L 97.659105 13.622844 
L 114.890554 22.163762 
L 128.689108 33.663213 
L 132.825326 39.15879 
L 136.325202 46.091226 
L 138.753346 54.291146 
L 139.65762 63.631441 
L 138.502158 97.857337 
L 139.65762 108.46066 
L 149.336704 122.948557 
L 166.065777 128.523488 
z
" clip-path="url(#paaf467fe08)" style="stroke: #000000; stroke-linejoin: miter"/>
   </g>
   <g id="line2d_1">
    <path d="M 198.921074 132.873398 
L 208.315479 146.217512 
L 213.054545 169.607423 
L 210.040298 192.569523 
L 196.107777 204.386079 
L 189.476432 203.12009 
L 167.070526 195.39719 
L 160.857827 191.852041 
L 147.394189 170.451716 
L 136.844322 147.399812 
L 133.076513 129.57931 
L 131.217727 126.116172 
L 127.28246 125.947235 
L 125.222724 129.790473 
L 123.7156 134.478169 
L 121.404677 136.758586 
L 113.132243 138.152147 
L 89.0685 147.399812 
L 80.159724 148.075405 
L 73.645601 146.766439 
L 60.734574 140.643616 
L 37.323919 136.167372 
L 32.63509 132.873398 
L 25.417642 102.039664 
L 22.654582 97.477117 
L 18.769552 93.928318 
L 14.750555 85.182503 
L 11.585595 74.576604 
L 10.145455 65.195111 
L 14.013739 40.553772 
L 25.719066 26.222548 
L 42.280682 18.020243 
L 60.734574 12.016052 
L 78.954026 9.73267 
L 97.659105 13.622844 
L 114.890554 22.163762 
L 128.689108 33.663213 
L 132.825326 39.15879 
L 136.325202 46.091226 
L 138.753346 54.291146 
L 139.65762 63.631441 
L 138.502158 97.857337 
L 139.65762 108.46066 
L 149.336704 122.948557 
L 166.065777 128.523488 
L 198.921074 132.873398 
" clip-path="url(#paaf467fe08)" style="fill: none; stroke: #000000; stroke-width: 0.5; stroke-linecap: square"/>
   </g>
  </g>
 </g>
 <defs>
  <clipPath id="paaf467fe08">
   <rect x="0" y="0" width="223.2" height="214.118749"/>
  </clipPath>
 </defs>
</svg>
