<?xml version="1.0" encoding="utf-8" standalone="no"?>
<!DOCTYPE svg PUBLIC "-//W3C//DTD SVG 1.1//EN"
  "http://www.w3.org/Graphics/SVG/1.1/DTD/svg11.dtd">
<svg xmlns:xlink="http://www.w3.org/1999/xlink" width="155.59517pt" height="221.76pt" viewBox="0 0 155.59517 221.76" xmlns="http://www.w3.org/2000/svg" version="1.1">
 <metadata>
  <rdf:RDF xmlns:dc="http://purl.org/dc/elements/1.1/" xmlns:cc="http://creativecommons.org/ns#" xmlns:rdf="http://www.w3.org/1999/02/22-rdf-syntax-ns#">
   <cc:Work>
    <dc:type rdf:resource="http://purl.org/dc/dcmitype/StillImage"/>
    <dc:date>2026-04-26T19:22:09.918671</dc:date>
    <dc:format>image/svg+xml</dc:format>
    <dc:creator>
     <cc:Agent>
      <dc:title>Matplotlib v3.10.9, https://matplotlib.org/</dc:title>
     </cc:Agent>
    </dc:creator>
   </cc:Work>
  </rdf:RDF>
 </metadata>
 <defs>
  <style type="text/css">*{stroke-linejoin: round; stroke-linecap: butt}</style>
 </defs>
 <g id="figure_1">
  <g id="patch_1">
   <path d="M 0 221.76 
L 155.59517 221.76 
L 155.59517 0 
L 0 0 
z
" style="fill: #ffffff"/>
  </g>
  <g id="axes_1">
   <g id="patch_2">
    <path d="M 119.166581 15.278681 
L 119.174139 17.21002 
L 119.08849 18.245201 
L 118.839101 19.01744 
L 117.970019 19.650717 
L 117.823912 19.798011 
L 117.380555 20.438787 
L 117.252082 20.556957 
L 117.030403 20.672631 
L 117.022846 20.943924 
L 117.161395 21.547264 
L 117.111013 21.872655 
L 116.985059 22.09735 
L 116.823838 22.297913 
L 116.660098 22.55673 
L 116.493839 22.931228 
L 116.330099 23.435555 
L 116.040405 23.545409 
L 115.939642 23.691881 
L 116.254527 24.262794 
L 116.451015 24.844532 
L 116.576969 25.085051 
L 116.677732 25.466223 
L 116.642465 25.982224 
L 116.390557 27.164881 
L 116.204145 27.650102 
L 115.954756 28.078731 
L 115.647429 28.315102 
L 115.826283 28.867749 
L 115.755749 29.43122 
L 115.58949 30.036312 
L 115.496284 30.714655 
L 115.642391 32.181231 
L 115.564299 32.955316 
L 115.146132 33.592903 
L 115.544146 34.528485 
L 115.995062 35.35254 
L 116.161321 35.113647 
L 116.438419 35.39416 
L 116.609717 35.77456 
L 116.639946 36.214895 
L 116.493839 36.671881 
L 116.995136 37.010668 
L 117.433455 38.568943 
L 117.823912 38.891923 
L 117.798722 39.160796 
L 117.83147 40.684153 
L 117.816355 40.947205 
L 117.826432 41.194442 
L 117.907042 41.410879 
L 118.111087 41.802132 
L 118.058187 41.971953 
L 117.909561 42.085167 
L 117.680325 42.731157 
L 117.332692 43.040834 
L 116.919563 43.227307 
L 116.576969 43.290575 
L 116.383 43.503687 
L 116.292313 43.953223 
L 116.110939 44.349483 
L 115.647429 44.412751 
L 115.894298 44.699125 
L 116.186511 44.855632 
L 116.418267 45.062089 
L 116.493229 45.508002 
L 116.493839 45.511633 
L 116.750785 45.556588 
L 117.247043 45.451694 
L 118.085897 45.534943 
L 118.589712 45.398414 
L 119.035589 45.142008 
L 119.489023 44.409421 
L 119.932381 44.326173 
L 120.34551 44.179657 
L 120.501693 43.608579 
L 120.698181 43.367162 
L 121.174287 43.194008 
L 121.705812 43.114091 
L 122.076117 43.159044 
L 122.927566 43.560295 
L 123.68077 43.751764 
L 124.416341 43.746769 
L 125.232522 43.546976 
L 125.547407 43.247286 
L 126.104123 42.258318 
L 126.978244 41.808791 
L 127.295648 41.464156 
L 127.640761 41.166139 
L 128.124424 41.107867 
L 128.353661 41.121187 
L 128.577859 41.101208 
L 129.026254 40.992157 
L 129.183697 40.888934 
L 129.47591 40.586757 
L 129.642169 40.503513 
L 129.765604 40.53681 
L 130.05026 40.71745 
L 130.123313 40.750748 
L 130.385297 40.620055 
L 130.465908 40.550129 
L 130.763159 39.779292 
L 130.992395 38.946863 
L 131.012548 38.793697 
L 131.357662 38.683817 
L 135.960018 39.250699 
L 136.380704 39.373898 
L 136.824062 39.724351 
L 137.18429 40.191348 
L 137.56719 40.553459 
L 138.083601 40.595081 
L 138.955202 40.149726 
L 139.393522 39.999887 
L 139.882223 40.063152 
L 140.841992 40.410279 
L 141.053595 40.600076 
L 141.209778 40.814014 
L 141.39367 40.990492 
L 141.683364 41.063748 
L 141.721177 41.242433 
L 141.758937 41.420868 
L 141.96802 41.599013 
L 142.245119 41.752185 
L 142.507103 42.0219 
L 142.65321 42.381522 
L 143.015957 44.392772 
L 143.081453 45.235246 
L 143.056262 47.666146 
L 143.255269 48.48867 
L 143.63565 49.161347 
L 144.804503 49.87399 
L 145.137021 50.530026 
L 145.517402 52.178459 
L 145.786943 52.931085 
L 146.129538 53.637093 
L 146.537629 54.273171 
L 147.001139 54.83099 
L 147.583046 55.218967 
L 147.769458 55.477065 
L 147.724115 55.914999 
L 147.499917 56.214726 
L 147.210223 56.442853 
L 147.02633 56.704283 
L 147.109459 57.102258 
L 147.27068 58.602582 
L 146.436865 59.929743 
L 145.313356 61.203629 
L 144.608014 62.544135 
L 144.534961 64.19772 
L 144.37374 64.887134 
L 142.567561 66.952064 
L 142.476874 67.121922 
L 142.338325 67.255144 
L 142.010845 67.421672 
L 140.786572 67.508266 
L 139.418713 67.305102 
L 138.212074 67.521589 
L 137.471465 68.880461 
L 137.746045 69.55324 
L 137.897189 70.212698 
L 137.801464 70.878818 
L 137.345511 71.571586 
L 135.54437 72.883853 
L 135.02544 73.613263 
L 134.161396 76.174536 
L 133.332619 77.806566 
L 133.22178 78.575953 
L 133.342695 79.38531 
L 133.579489 80.384517 
L 133.695367 81.170561 
L 133.798649 83.49872 
L 133.957351 83.718547 
L 134.242007 83.728539 
L 134.53422 83.798484 
L 134.72567 84.194837 
L 134.687883 84.531238 
L 134.34277 85.120772 
L 134.239487 85.44052 
L 134.28735 85.91348 
L 134.413304 86.273196 
L 134.438495 86.612927 
L 134.184068 87.029265 
L 133.934679 87.342351 
L 133.631946 87.873657 
L 132.526514 89.813727 
L 132.269568 90.613093 
L 132.246896 91.5257 
L 133.372924 93.30095 
L 133.519031 93.444169 
L 133.675214 93.404201 
L 133.997656 93.24766 
L 134.100938 93.104441 
L 134.166434 92.871294 
L 134.25964 92.658131 
L 134.448571 92.571533 
L 135.320172 92.70476 
L 135.556965 92.827995 
L 135.753454 93.044489 
L 135.929789 93.357572 
L 136.816505 93.04782 
L 137.793907 93.24766 
L 138.685661 93.820535 
L 139.320469 94.643208 
L 139.731079 95.745654 
L 140.030849 97.037942 
L 140.209703 98.366862 
L 140.252528 99.572542 
L 140.663138 99.28278 
L 141.06619 99.099596 
L 141.484357 99.096266 
L 141.930234 99.336069 
L 142.325729 99.459302 
L 142.698553 99.292771 
L 143.076415 99.056298 
L 143.494582 98.969702 
L 144.174733 99.22949 
L 145.101754 99.772378 
L 145.922973 100.451819 
L 146.462056 101.411026 
L 147.431901 102.293626 
L 147.731672 102.716607 
L 148.303503 104.271968 
L 148.522662 105.237818 
L 148.356403 106.283593 
L 147.366405 109.114481 
L 147.230375 109.903789 
L 147.235413 110.696423 
L 147.399153 111.515696 
L 147.502436 112.49482 
L 147.227856 113.184199 
L 146.797094 113.810298 
L 146.421751 114.602908 
L 146.293278 115.342228 
L 146.172362 116.73427 
L 145.915416 117.420293 
L 145.910378 117.88319 
L 146.605644 120.41077 
L 146.865109 121.106759 
L 146.948238 121.483057 
L 146.928086 121.759453 
L 146.792056 122.31557 
L 146.799613 122.591963 
L 146.97091 122.984906 
L 147.071077 123.115371 
L 147.484802 123.654236 
L 147.673733 124.070483 
L 147.714038 124.360191 
L 147.688847 125.365834 
L 147.590603 126.088424 
L 147.502436 126.398104 
L 147.366405 126.737752 
L 147.19007 127.000811 
L 146.988544 127.207262 
L 146.819765 127.440351 
L 146.75175 127.796644 
L 146.897857 128.41266 
L 147.255566 128.902139 
L 148.112053 129.651337 
L 148.248083 130.320614 
L 148.074266 130.690212 
L 147.76442 130.953258 
L 147.482283 131.312865 
L 147.394115 131.615865 
L 147.35381 132.391673 
L 147.046482 133.323963 
L 147.366405 133.74349 
L 147.638466 134.322833 
L 147.648542 134.808944 
L 146.849994 135.008715 
L 146.693811 135.288393 
L 146.595567 135.661296 
L 146.431827 135.987584 
L 146.200072 136.210658 
L 145.970836 136.360483 
L 145.472058 136.593543 
L 145.252899 136.849909 
L 145.41412 137.089627 
L 145.887706 137.439214 
L 146.182439 138.744322 
L 146.598086 138.914117 
L 147.111978 139.027314 
L 147.29839 139.24039 
L 146.72404 139.699831 
L 146.429308 140.132636 
L 146.273125 140.828446 
L 146.197553 143.395217 
L 146.048927 144.224152 
L 146.033813 144.497131 
L 146.220225 145.901959 
L 146.043889 146.344705 
L 145.396486 146.81075 
L 145.343861 146.837912 
L 142.507103 148.302069 
L 142.333287 148.535084 
L 142.212371 148.774755 
L 142.151913 149.061028 
L 142.164508 149.430518 
L 142.036035 149.73343 
L 142.05115 149.933152 
L 142.177104 150.099587 
L 142.376111 150.29265 
L 142.494508 150.5656 
L 142.469317 150.88515 
L 142.308096 151.520915 
L 142.172066 153.218469 
L 142.058707 153.677798 
L 141.892448 153.897476 
L 141.471762 154.093853 
L 141.34077 154.24696 
L 141.31306 154.563159 
L 141.464205 155.138968 
L 141.459166 155.375281 
L 141.134205 155.844575 
L 140.297871 156.247299 
L 139.967872 156.586782 
L 140.045963 157.688424 
L 141.892448 159.751853 
L 142.073822 160.776877 
L 141.96802 160.687022 
L 140.804206 161.046442 
L 140.562374 161.192871 
L 140.340696 161.389219 
L 139.874666 161.911699 
L 139.675659 162.187913 
L 139.564819 162.514042 
L 139.574896 163.359305 
L 139.403598 163.638837 
L 139.169324 163.881763 
L 138.96276 164.167947 
L 138.811328 164.74114 
L 138.700775 165.159595 
L 138.554669 165.402512 
L 138.33299 165.445771 
L 138.091158 165.312666 
L 137.715816 165.026489 
L 137.471465 164.999868 
L 137.317801 165.036472 
L 136.196811 165.499013 
L 136.0104 165.495685 
L 135.854217 165.306011 
L 135.781163 164.717017 
L 135.556965 164.500717 
L 135.320172 164.500717 
L 135.085898 164.64048 
L 134.665212 164.976574 
L 134.153839 165.116336 
L 133.556817 165.076404 
L 133.000101 164.833485 
L 132.602086 164.370937 
L 132.629796 164.211207 
L 132.64743 162.969954 
L 132.828803 162.687089 
L 133.335138 162.350978 
L 133.680252 161.379235 
L 133.969946 161.142952 
L 134.073228 160.933291 
L 133.74071 160.334256 
L 133.488802 160.097967 
L 133.231856 159.934894 
L 133.042925 159.698604 
L 132.962315 158.803352 
L 132.798575 158.487181 
L 132.352698 157.888114 
L 132.052927 157.295696 
L 131.49873 155.801307 
L 131.277051 154.469964 
L 131.065449 153.790965 
L 130.770716 153.181856 
L 130.435679 152.755808 
L 130.178733 152.512826 
L 130.100641 152.472884 
L 130.045222 152.645967 
L 129.536368 153.647842 
L 129.279422 154.29023 
L 129.213926 154.646369 
L 129.17614 155.282087 
L 129.086712 155.618249 
L 128.890224 155.977707 
L 127.036183 158.350727 
L 126.872442 158.68354 
L 126.801908 159.365799 
L 126.693588 159.652011 
L 126.449237 159.871662 
L 125.86733 160.117935 
L 125.577636 160.31096 
L 125.335805 160.597167 
L 124.980614 161.186215 
L 124.77405 161.455777 
L 123.983059 162.177929 
L 123.741228 162.487419 
L 123.607717 162.796907 
L 123.539702 163.09641 
L 123.428862 163.355977 
L 123.171916 163.548988 
L 123.045962 163.495744 
L 122.841917 163.099738 
L 122.685734 163.046493 
L 122.343139 163.18626 
L 122.217185 163.182933 
L 121.688179 163.069788 
L 121.21963 163.222866 
L 120.786349 163.15631 
L 116.536663 161.073065 
L 116.297351 161.003178 
L 116.015214 161.053097 
L 115.549185 161.412514 
L 115.282162 161.485728 
L 114.773308 161.32266 
L 113.201403 160.380848 
L 112.596825 160.237744 
L 112.28194 160.36088 
L 111.840867 160.943585 
L 111.558964 161.316004 
L 111.231484 161.3393 
L 111.16095 161.14628 
L 111.286904 160.846764 
L 111.558964 160.543919 
L 111.672323 160.317616 
L 111.770567 160.048047 
L 111.838582 159.765165 
L 111.856216 159.488937 
L 111.906597 159.162786 
L 112.042627 158.899867 
L 112.246673 158.61365 
L 112.186215 158.250883 
L 112.070337 158.217602 
L 111.921712 158.224258 
L 111.747895 157.977975 
L 111.682399 157.718377 
L 111.558964 156.849714 
L 111.329728 156.480278 
L 110.873775 155.495101 
L 110.662172 155.222177 
L 110.070189 155.621577 
L 109.722556 155.638219 
L 109.616755 155.065744 
L 109.599121 154.732907 
L 109.505915 154.506576 
L 109.185992 154.093853 
L 109.128054 153.880833 
L 109.170878 153.677798 
L 109.27416 153.43482 
L 109.319504 153.281711 
L 109.415229 153.068687 
L 109.430343 152.882291 
L 108.971871 152.725851 
L 108.91897 152.559425 
L 108.944161 152.366371 
L 108.944161 152.216586 
L 108.986985 152.203272 
L 108.89126 151.467657 
L 108.78294 151.274598 
L 108.402559 150.781962 
L 108.261491 150.545628 
L 108.042331 149.86325 
L 107.505767 147.526455 
L 107.22363 146.740844 
L 106.81302 146.368007 
L 105.782717 145.92859 
L 105.674501 145.825004 
L 104.064706 144.284074 
L 103.026845 143.714808 
L 101.827764 143.758086 
L 101.56578 143.88459 
L 100.371737 144.943218 
L 100.223111 145.126312 
L 100.102195 145.336037 
L 99.95357 145.745498 
L 99.910745 146.025129 
L 99.893112 146.374665 
L 99.787311 146.700897 
L 99.472426 146.927261 
L 99.044182 146.75083 
L 98.581672 146.102839 
L 98.290978 145.695564 
L 98.018917 145.612341 
L 97.925712 146.048431 
L 98.129757 149.520393 
L 98.33884 150.821906 
L 98.845175 151.853773 
L 99.794868 152.422956 
L 99.686547 152.978818 
L 99.248228 153.890819 
L 99.074411 154.380097 
L 99.029068 154.856057 
L 99.202884 156.187389 
L 99.034106 157.112644 
L 98.706626 158.22093 
L 98.53029 159.262628 
L 98.807389 159.971503 
L 89.131609 162.710384 
L 88.375885 162.600566 
L 87.630238 161.925011 
L 86.80398 160.570543 
L 86.363141 160.141231 
L 86.111233 159.944878 
L 85.347953 160.44408 
L 84.320169 160.880044 
L 83.44101 161.109673 
L 82.899408 161.395875 
L 82.073151 162.400895 
L 81.667579 162.713712 
L 81.264526 162.67045 
L 80.821169 162.360961 
L 79.99743 161.509024 
L 79.811018 161.222822 
L 79.712774 160.953259 
L 79.561629 160.703662 
L 79.226592 160.477359 
L 77.994763 159.984815 
L 77.092932 159.944878 
L 77.040032 159.964847 
L 76.846063 160.597167 
L 77.370031 162.474108 
L 77.458199 163.182933 
L 77.281863 164.966591 
L 77.29194 165.528961 
L 77.480871 166.207789 
L 78.098045 167.508844 
L 78.327281 168.230896 
L 78.458273 169.052756 
L 78.458273 169.721545 
L 78.339876 170.390323 
L 78.115678 171.205486 
L 76.339728 175.031537 
L 76.293416 175.266081 
L 76.050034 176.498645 
L 76.175988 177.253801 
L 76.594155 177.160655 
L 77.581634 176.245814 
L 78.27438 175.966367 
L 78.760562 176.175952 
L 79.158577 176.768108 
L 79.999949 178.381517 
L 81.853991 180.982785 
L 82.2117 181.724545 
L 82.2117 182.416397 
L 81.60964 182.905342 
L 81.047886 182.981843 
L 80.712848 182.945255 
L 80.458421 183.148149 
L 80.135979 183.946407 
L 80.015064 184.511828 
L 79.992392 186.740165 
L 79.952087 186.923082 
L 79.99743 187.046135 
L 80.206513 187.32217 
L 80.395444 187.508409 
L 81.775899 188.269985 
L 82.289791 188.675708 
L 83.272232 189.743202 
L 84.158948 190.298551 
L 85.315205 190.717551 
L 86.25734 191.299487 
L 86.514286 192.33697 
L 86.186806 193.028606 
L 85.13635 194.066033 
L 84.806351 194.840756 
L 83.415819 199.176194 
L 83.347804 199.920871 
L 83.589636 200.592394 
L 84.093452 200.987987 
L 84.670321 201.233983 
L 85.138869 201.566408 
L 85.310166 202.247866 
L 85.118717 202.972522 
L 84.687954 203.650624 
L 84.161467 204.169163 
L 83.733254 204.384688 
L 83.672765 204.415133 
L 83.219331 204.398513 
L 81.816205 203.870007 
L 81.327503 203.79688 
L 79.999949 204.022909 
L 79.470943 203.786908 
L 79.062852 203.205206 
L 77.1282 199.076459 
L 76.22385 198.162208 
L 75.002097 197.929485 
L 74.329503 198.537886 
L 73.87355 199.528588 
L 73.329429 200.449447 
L 72.399889 200.858339 
L 71.397296 201.124282 
L 70.611344 201.762536 
L 69.885849 202.550362 
L 69.054553 203.261715 
L 68.419745 203.976374 
L 68.019212 204.990163 
L 66.399134 210.747587 
L 66.01875 211.68 
L 65.546418 211.276402 
L 64.949846 210.778098 
L 63.758655 209.138556 
L 63.378871 207.058956 
L 63.148782 206.49106 
L 62.9901 205.910066 
L 62.898857 205.271484 
L 62.865137 204.533432 
L 62.356959 203.78971 
L 61.542214 203.006128 
L 58.551751 199.654958 
L 54.622097 196.083645 
L 54.425233 194.636022 
L 54.453002 194.1412 
L 54.595816 193.583533 
L 54.683091 192.860908 
L 54.583915 192.240381 
L 54.353826 191.635552 
L 54.000671 191.257933 
L 53.459218 190.836133 
L 52.758656 190.119158 
L 52.345057 189.867086 
L 52.249904 189.236539 
L 51.334899 187.893742 
L 51.009869 187.386401 
L 50.564887 186.755946 
L 49.897514 185.831667 
L 47.323299 182.974283 
L 44.2075 179.780365 
L 42.967092 178.434949 
L 39.812245 175.403281 
L 38.343356 173.758876 
L 36.488247 171.900111 
L 32.1661 164.847817 
L 31.638482 163.613682 
L 32.082792 164.056508 
L 32.779009 165.036472 
L 33.304644 165.392817 
L 33.867965 165.476663 
L 34.201198 165.198924 
L 34.506661 164.680124 
L 34.968823 164.053887 
L 34.907333 164.507189 
L 34.792289 164.868779 
L 34.724849 165.214645 
L 34.802206 165.612911 
L 34.931136 165.555268 
L 35.028328 165.466182 
L 35.099735 165.335173 
L 35.149323 165.172722 
L 35.141389 165.75964 
L 35.216763 166.362271 
L 35.42305 166.697644 
L 35.801904 166.493276 
L 36.672672 166.896771 
L 36.813502 167.043495 
L 36.86309 167.056596 
L 37.224092 167.79283 
L 37.313351 168.489752 
L 37.479967 168.489752 
L 37.525588 168.175352 
L 37.612863 168.031252 
L 37.755677 168.060072 
L 37.979816 168.251332 
L 38.009568 168.133432 
L 38.009568 168.078412 
L 38.033371 168.054832 
L 38.146432 168.031252 
L 38.223789 169.210241 
L 38.313048 169.59013 
L 38.479664 169.343858 
L 38.672066 169.194521 
L 38.896205 169.129023 
L 39.144146 169.149982 
L 39.062821 169.60323 
L 39.15803 169.710646 
L 39.372251 169.584891 
L 39.643994 169.351717 
L 39.830446 169.092344 
L 40.014914 168.500231 
L 40.157728 168.251332 
L 40.508812 168.081032 
L 41.044364 167.976231 
L 41.550163 167.955271 
L 41.821906 168.031252 
L 42.460602 167.944791 
L 42.682757 167.79545 
L 42.821603 167.389344 
L 42.357458 167.022535 
L 42.169023 166.933452 
L 42.216628 166.330829 
L 41.740582 166.011174 
L 41.147507 165.712477 
L 40.824192 165.172722 
L 40.657576 165.172722 
L 40.824192 165.743919 
L 41.157425 167.389344 
L 40.812291 167.321222 
L 40.621873 167.085417 
L 40.504845 166.828649 
L 40.397734 166.713365 
L 40.203349 166.57712 
L 39.929622 165.971872 
L 39.735236 165.833004 
L 39.550768 165.798942 
L 39.251256 165.649593 
L 39.068772 165.612911 
L 38.979513 165.696756 
L 38.98943 165.885407 
L 39.0172 166.097638 
L 38.993398 166.254846 
L 38.826781 166.498517 
L 38.670083 166.805068 
L 38.549088 167.119477 
L 38.479664 167.389344 
L 38.136514 167.195459 
L 37.827084 166.933452 
L 37.922293 166.603321 
L 37.777496 165.93781 
L 37.827084 165.612911 
L 38.051223 165.460942 
L 38.33685 165.471422 
L 38.576857 165.44522 
L 38.660165 165.172722 
L 38.372554 164.858298 
L 37.747743 164.585796 
L 37.075328 164.433823 
L 36.646886 164.494088 
L 36.097449 163.008393 
L 36.057779 162.756842 
L 35.807854 162.528873 
L 35.688843 162.528873 
L 35.635287 162.856415 
L 35.546029 162.877377 
L 35.192961 163.126307 
L 35.149323 163.176093 
L 34.52848 163.008393 
L 33.947306 163.584859 
L 33.391919 164.28971 
L 32.820663 164.494088 
L 32.586607 164.321152 
L 32.364452 164.025064 
L 32.20577 163.660847 
L 32.13833 163.275665 
L 32.197836 163.173473 
L 32.48148 162.830212 
L 32.564789 162.756842 
L 32.701652 162.65727 
L 32.511233 162.458124 
L 32.241474 162.293041 
L 32.13833 162.295662 
L 32.09866 162.028384 
L 32.136347 161.771587 
L 32.13833 161.554094 
L 31.987582 161.415213 
L 31.781296 161.373286 
L 31.622614 161.39425 
L 31.515503 161.504307 
L 31.471866 161.727041 
L 31.779312 162.489568 
L 31.86262 162.966468 
L 31.638482 163.377856 
L 31.253678 163.157751 
L 30.234145 161.546233 
L 29.80967 161.176755 
L 30.035792 161.640568 
L 30.575312 162.500049 
L 30.7935 162.955987 
L 30.250013 162.473846 
L 29.599417 161.640568 
L 29.044029 160.689354 
L 28.794105 159.858664 
L 28.794105 159.68047 
L 28.607653 158.944102 
L 28.46484 156.019481 
L 28.282355 155.547751 
L 25.864437 152.402775 
L 25.211856 151.915286 
L 24.472001 150.754206 
L 24.124884 150.387268 
L 24.192324 150.26146 
L 24.2915 149.941697 
L 23.763882 149.752983 
L 23.462386 149.192081 
L 23.125187 147.965414 
L 22.103671 146.639116 
L 21.943005 146.303605 
L 21.831927 146.253802 
L 21.601838 145.978576 
L 21.395552 145.671894 
L 21.363815 145.527727 
L 21.103973 145.373075 
L 21.161495 145.061147 
L 21.340013 144.851447 
L 21.447123 144.977267 
L 21.627624 145.564424 
L 22.073918 146.020515 
L 22.627321 146.253802 
L 23.125187 146.18303 
L 23.067664 146.314089 
L 23.037911 146.340301 
L 23.008159 146.350786 
L 22.942702 146.4268 
L 23.260066 146.599798 
L 23.434617 146.4268 
L 23.621068 145.74791 
L 23.771816 145.74791 
L 23.954301 146.4268 
L 23.811487 146.49233 
L 23.704376 146.58145 
L 23.644871 146.725614 
L 23.621068 146.953656 
L 23.704376 147.150242 
L 23.870993 147.0087 
L 23.995955 146.75969 
L 23.954301 146.628631 
L 25.203922 146.628631 
L 25.882288 146.848809 
L 26.223455 147.386145 
L 26.161965 148.044047 
L 25.620463 148.62593 
L 25.912041 149.050544 
L 26.06874 149.218291 
L 26.20957 149.286438 
L 26.739172 149.349344 
L 26.876035 149.396522 
L 26.937524 149.587858 
L 26.935541 150.146136 
L 26.969261 150.387268 
L 27.465142 150.822351 
L 27.481011 150.974367 
L 27.602006 151.367511 
L 27.732918 151.629605 
L 27.798375 151.383237 
L 27.875732 151.220738 
L 28.218882 151.050375 
L 28.298223 150.942916 
L 28.232767 150.3663 
L 28.072101 149.721531 
L 27.861848 149.273333 
L 27.631759 149.286438 
L 27.365966 148.877553 
L 26.768925 148.332368 
L 26.632061 147.965414 
L 26.917689 147.399251 
L 27.149762 147.18956 
L 27.112075 146.977246 
L 26.318664 145.17124 
L 25.86642 144.557866 
L 25.620463 144.867175 
L 25.245576 144.578836 
L 25.120614 144.426802 
L 25.033339 144.728248 
L 25.031355 145.034935 
L 25.120614 145.74791 
L 24.664403 145.255119 
L 24.045543 143.753131 
L 23.621068 143.525077 
L 23.442551 143.737403 
L 23.327506 144.11487 
L 23.256099 144.479228 
L 23.198577 144.646989 
L 22.966504 144.746597 
L 22.831625 145.008722 
L 22.780053 145.357347 
L 22.791954 145.74791 
L 22.61542 145.512 
L 22.426985 145.357347 
L 22.210781 145.286574 
L 21.943005 145.286574 
L 22.224666 144.646989 
L 22.169127 144.285254 
L 21.61374 143.745267 
L 21.078187 144.206615 
L 20.717186 144.038853 
L 20.510899 143.404497 
L 20.447426 142.447708 
L 20.467261 142.07023 
L 20.570405 141.506632 
L 20.594207 141.236627 
L 20.594207 139.907557 
L 20.550569 139.556279 
L 20.336349 138.837989 
L 20.264942 138.468354 
L 20.292711 137.469545 
L 20.264942 137.147092 
L 19.856335 135.810073 
L 19.300948 134.795495 
L 17.950166 132.949816 
L 14.897519 127.307629 
L 14.665447 126.749157 
L 14.417506 125.94946 
L 14.207252 125.241525 
L 14.092208 124.570293 
L 14.417506 125.430308 
L 14.665447 126.38995 
L 14.964959 126.951046 
L 15.437038 127.648479 
L 15.813908 127.598663 
L 16.194745 127.818904 
L 16.498225 128.19908 
L 16.748149 129.21637 
L 17.319405 130.002926 
L 17.450318 130.632165 
L 17.603049 130.949404 
L 18.372657 132.210483 
L 18.699939 132.491011 
L 18.848704 132.703373 
L 20.020968 133.951313 
L 20.225271 134.095506 
L 20.943308 134.378648 
L 21.17538 138.381844 
L 21.324145 138.879933 
L 21.61374 138.706913 
L 21.685146 138.376601 
L 21.462992 137.936182 
L 21.530431 137.697621 
L 21.744652 137.574408 
L 21.927137 137.700243 
L 22.058049 137.965019 
L 22.109621 138.248146 
L 22.47459 137.697621 
L 23.045846 137.25982 
L 23.698426 136.992419 
L 24.2915 136.926879 
L 24.15067 137.430222 
L 24.120917 137.972884 
L 24.25778 138.439518 
L 24.620765 138.706913 
L 24.793332 137.618974 
L 24.781431 137.086796 
L 24.620765 136.706665 
L 25.38244 136.56772 
L 27.399686 136.926879 
L 28.131607 136.706665 
L 27.125959 136.195452 
L 26.739172 135.812695 
L 26.449577 135.167771 
L 26.223455 133.967043 
L 26.195685 133.264424 
L 26.298829 132.72959 
L 26.100476 132.648316 
L 25.620463 132.289136 
L 25.513352 132.270783 
L 25.203922 132.289136 
L 25.029372 132.373032 
L 25.017471 132.577529 
L 25.120614 133.057307 
L 25.084911 133.387645 
L 25.001603 133.552813 
L 24.898459 133.662925 
L 24.2915 134.737818 
L 23.732146 135.267394 
L 23.069648 135.526937 
L 22.276237 135.608208 
L 22.113588 135.652775 
L 21.958873 135.718316 
L 21.800191 135.734046 
L 21.61374 135.608208 
L 21.47886 135.369638 
L 21.449107 134.85055 
L 21.27654 134.378648 
L 21.256705 134.082397 
L 21.27654 133.497757 
L 21.17538 133.337832 
L 20.951242 133.261802 
L 20.717186 133.222476 
L 20.594207 133.16742 
L 20.550569 132.661425 
L 20.746938 132.320597 
L 21.103973 132.129208 
L 21.530431 132.068907 
L 21.734735 131.877518 
L 21.776389 131.43968 
L 21.677212 130.983488 
L 21.447123 130.729172 
L 21.447123 130.527292 
L 21.665311 130.448637 
L 22.248468 130.375226 
L 22.442854 130.288706 
L 22.637239 129.974086 
L 22.746333 129.363195 
L 23.133121 128.424563 
L 23.05378 127.86872 
L 22.60947 126.749157 
L 22.740382 126.552511 
L 22.764185 126.403059 
L 22.668976 126.261474 
L 22.442854 126.088424 
L 22.430952 126.730803 
L 22.60947 128.414075 
L 22.54203 128.760164 
L 22.363512 129.080033 
L 22.121522 129.316001 
L 21.859697 129.410388 
L 21.639525 129.310757 
L 21.437206 128.865039 
L 21.27654 128.749677 
L 20.879835 128.927964 
L 20.633877 129.384169 
L 20.439492 129.856103 
L 20.187584 130.071094 
L 19.019287 130.359495 
L 18.614648 130.288706 
L 18.342905 129.863968 
L 18.265547 129.18753 
L 18.307201 128.560901 
L 18.372657 128.290846 
L 18.317119 128.246274 
L 18.150502 128.041766 
L 18.063227 127.837257 
L 17.948183 127.894939 
L 17.807352 128.020791 
L 17.569329 128.151886 
L 17.521725 128.277737 
L 17.414614 128.361637 
L 17.103201 128.290846 
L 16.748149 128.023412 
L 15.891266 127.173911 
L 15.520347 126.987754 
L 15.224801 126.76751 
L 15.01058 126.232632 
L 14.951074 125.577139 
L 15.119674 124.989813 
L 15.040333 124.874445 
L 14.998679 124.785297 
L 14.939173 124.570293 
L 15.413236 124.114061 
L 15.298192 123.364159 
L 14.877684 122.603762 
L 14.42544 122.131789 
L 14.730903 123.101954 
L 14.588089 123.972472 
L 14.504781 124.263517 
L 14.350066 124.232052 
L 14.270725 123.885945 
L 14.092208 121.911534 
L 13.679634 120.495596 
L 11.261715 116.389263 
L 11.89446 117.181174 
L 12.243561 117.406684 
L 12.60853 117.249351 
L 12.261413 117.050063 
L 12.40621 116.617397 
L 12.60853 116.247663 
L 12.802915 116.006417 
L 12.925894 115.953972 
L 12.640266 115.786149 
L 11.926197 116.425974 
L 11.505689 116.284374 
L 11.345024 115.767793 
L 11.190308 114.97325 
L 11.005841 114.422574 
L 10.76385 114.632356 
L 10.583349 114.632356 
L 10.375079 113.483796 
L 10.248133 113.090451 
L 9.879198 112.259178 
L 9.236535 110.337003 
L 8.714868 109.159559 
L 8.391553 107.462869 
L 7.64178 106.183128 
L 7.072508 103.809811 
L 7.403757 103.133214 
L 7.584258 103.369236 
L 7.368053 103.990761 
L 7.633846 104.268742 
L 8.419322 104.470672 
L 8.312212 104.761764 
L 8.288409 104.958448 
L 8.32808 105.118417 
L 8.419322 105.333458 
L 8.942973 105.312479 
L 9.309925 106.09921 
L 9.514229 107.200628 
L 9.625306 108.548543 
L 9.764153 109.020573 
L 10.000193 109.398196 
L 10.339376 109.550293 
L 10.529794 109.770572 
L 10.581366 110.245221 
L 10.700377 110.693643 
L 11.097083 110.850984 
L 10.882862 110.30029 
L 10.906664 109.760083 
L 11.023692 109.191028 
L 11.097083 108.548543 
L 11.227995 108.092246 
L 11.553294 108.055533 
L 11.981735 108.181408 
L 12.410177 108.212877 
L 12.410177 107.992595 
L 12.172154 107.845741 
L 11.92223 107.586123 
L 11.755613 107.247831 
L 11.761564 106.870203 
L 11.940081 106.66041 
L 12.176121 106.686634 
L 12.763245 107.053773 
L 13.005235 107.50745 
L 13.18772 108.058155 
L 13.26111 108.548543 
L 13.445578 109.188405 
L 14.326264 110.274066 
L 14.605941 110.850984 
L 14.617842 111.501325 
L 14.449242 112.634169 
L 14.605941 113.090451 
L 14.772557 113.090451 
L 14.877684 112.48732 
L 14.939173 110.531058 
L 15.07207 109.92267 
L 15.653243 109.080888 
L 15.784156 108.548543 
L 15.760353 108.107981 
L 15.72465 107.924413 
L 15.760353 107.806405 
L 15.938871 107.552031 
L 16.081684 107.4314 
L 16.48434 107.247831 
L 16.617237 107.129823 
L 16.682693 106.796776 
L 16.635088 106.455861 
L 16.664841 106.172638 
L 16.950469 106.010047 
L 17.283701 106.870203 
L 17.234113 106.12019 
L 16.950469 105.606192 
L 16.748149 105.068591 
L 16.950469 104.232028 
L 18.392493 102.527421 
L 18.830852 101.368279 
L 21.010747 98.195033 
L 21.61374 96.949326 
L 21.96284 95.614447 
L 21.943005 91.449802 
L 22.125489 90.773175 
L 22.674926 89.33075 
L 22.791954 88.680347 
L 22.81774 88.326296 
L 22.92485 87.636553 
L 22.942702 87.248409 
L 22.887163 86.952055 
L 22.60947 86.127248 
L 22.637239 85.724679 
L 22.712613 85.340468 
L 22.847493 84.994284 
L 23.031961 84.68744 
L 23.152956 84.38453 
L 23.109318 84.105223 
L 22.998241 83.845585 
L 22.942702 83.59775 
L 22.910966 82.909317 
L 22.054082 76.807862 
L 21.776389 75.769323 
L 21.853746 75.478218 
L 21.978708 74.625884 
L 22.026313 74.44755 
L 22.133423 74.353138 
L 22.910966 73.440489 
L 23.174775 73.3487 
L 23.410814 73.576861 
L 23.621068 74.206275 
L 23.722228 74.994354 
L 23.67264 75.647373 
L 23.438584 76.8472 
L 23.484205 77.222229 
L 23.593299 77.576277 
L 23.6052 77.842469 
L 23.355276 77.946061 
L 23.22833 78.085058 
L 23.180725 78.405013 
L 23.200561 78.778732 
L 23.271968 79.069839 
L 23.484205 78.811514 
L 23.615118 78.52303 
L 23.763882 78.286997 
L 24.037609 78.18865 
L 24.834986 78.196518 
L 24.953998 78.298799 
L 25.084911 78.714478 
L 25.723606 79.540594 
L 25.949728 80.167393 
L 26.033036 81.386899 
L 26.187751 81.567858 
L 26.388087 81.737016 
L 26.556687 81.733082 
L 26.632061 81.386899 
L 26.497181 80.007415 
L 26.524951 79.427822 
L 26.782809 78.84823 
L 27.988793 79.296693 
L 28.298223 79.509122 
L 28.429136 79.863172 
L 28.635423 80.981708 
L 28.794105 81.287241 
L 28.901215 81.06432 
L 29.587515 80.162148 
L 29.80967 79.949718 
L 30.178606 79.974632 
L 30.392827 80.172638 
L 30.642752 80.828286 
L 31.85667 80.560782 
L 32.745289 81.752751 
L 33.493079 83.311886 
L 34.288473 84.148496 
L 33.395886 81.992719 
L 33.046785 81.386899 
L 32.981329 80.859757 
L 33.457375 80.572583 
L 34.086153 80.611922 
L 34.468974 81.068254 
L 34.768486 80.820419 
L 35.218747 80.046754 
L 35.482556 79.708439 
L 36.339439 78.992472 
L 36.646886 78.84823 
L 37.039624 78.857409 
L 37.75171 79.203591 
L 38.146432 79.309806 
L 38.50545 79.267844 
L 39.491263 78.84823 
L 39.491263 78.606952 
L 38.267427 78.643668 
L 37.789397 78.460087 
L 37.313351 77.946061 
L 36.938464 78.273884 
L 36.48622 78.562368 
L 36.006207 78.769553 
L 34.12384 78.921663 
L 33.802509 79.069839 
L 32.705619 78.575481 
L 32.398172 78.298799 
L 32.03122 77.862138 
L 31.832867 77.712651 
L 31.059292 77.746745 
L 30.797467 77.582833 
L 29.631153 76.427588 
L 28.786171 75.765389 
L 28.43707 75.292015 
L 28.298223 74.648176 
L 28.131607 74.648176 
L 27.99276 75.040249 
L 27.853913 75.155642 
L 27.54845 75.087455 
L 27.350098 75.166132 
L 26.802644 75.486085 
L 26.632061 75.529358 
L 26.437676 75.159576 
L 26.292878 74.010894 
L 26.033036 73.766997 
L 25.687903 73.306739 
L 24.519606 69.762385 
L 24.210176 69.156585 
L 23.53181 68.14561 
L 23.077582 67.85058 
L 22.64914 67.893851 
L 22.268303 67.870249 
L 21.943005 67.366731 
L 21.92317 66.894684 
L 22.020362 65.119274 
L 22.192929 64.727217 
L 22.722531 64.656411 
L 23.271968 64.505621 
L 23.545694 64.357453 
L 24.041576 63.979821 
L 24.2915 63.846077 
L 24.616798 63.791006 
L 24.829036 63.868368 
L 25.04524 63.986377 
L 25.376489 64.046693 
L 25.576825 63.97851 
L 25.906091 63.674308 
L 26.352384 63.444845 
L 26.735205 63.12622 
L 27.167613 62.878401 
L 27.631759 62.945273 
L 28.030447 63.468447 
L 28.210948 64.211907 
L 28.123673 64.876697 
L 27.715067 65.167789 
L 26.655864 64.86883 
L 26.138163 64.95537 
L 25.802947 65.607051 
L 26.366269 65.378897 
L 27.080338 65.436591 
L 27.651594 65.852251 
L 27.798375 66.705865 
L 28.08797 66.58392 
L 28.30219 66.359699 
L 28.429136 66.03189 
L 28.46484 65.607051 
L 28.758401 66.123677 
L 28.802039 67.062523 
L 28.675093 67.984327 
L 28.46484 68.468178 
L 28.696912 69.384743 
L 28.893281 69.666663 
L 29.309822 69.785988 
L 29.202711 69.275909 
L 29.206678 68.620283 
L 29.32569 68.047267 
L 29.543878 67.807309 
L 29.698593 67.520146 
L 29.948517 66.121054 
L 30.142903 65.607051 
L 29.80967 64.967172 
L 29.726362 64.303692 
L 29.80967 62.72499 
L 29.559746 58.9068 
L 28.696912 55.880647 
L 28.627489 55.105764 
L 28.520378 54.587867 
L 28.314092 54.256152 
L 28.179212 53.87986 
L 28.298223 53.225613 
L 28.603686 52.539903 
L 28.923034 52.218683 
L 29.280069 52.124284 
L 29.720412 52.124284 
L 30.150837 51.963019 
L 30.386877 51.574935 
L 30.553493 51.134409 
L 30.7935 50.806638 
L 31.231859 50.706995 
L 32.654047 50.756816 
L 33.046785 50.916769 
L 33.374067 51.622134 
L 33.578371 53.001413 
L 33.802509 53.685814 
L 34.002845 53.137768 
L 34.09802 52.734093 
L 34.822796 52.8445 
L 35.200657 53.027662 
L 35.60371 53.403977 
L 36.235999 54.359757 
L 36.639051 54.77271 
L 37.069814 55.01582 
L 37.503095 55.102408 
L 37.891033 54.989178 
L 38.178208 54.619518 
L 38.266376 54.196575 
L 38.268895 53.242461 
L 38.397368 52.771235 
L 38.875551 52.689363 
L 39.583854 52.568092 
L 42.244001 52.581413 
L 48.982334 52.609078 
L 49.54429 52.611385 
L 56.839541 52.644687 
L 62.358273 52.667352 
L 64.137312 52.674659 
L 71.437601 52.707961 
L 71.399815 44.266235 
L 71.362029 35.826168 
L 71.331812 29.078234 
L 71.324243 27.387933 
L 71.286457 18.947538 
L 71.27638 16.361254 
L 71.089968 15.127239 
L 71.246151 14.787745 
L 71.341876 14.409977 
L 71.384701 14.01557 
L 71.384701 13.612846 
L 71.427525 13.085316 
L 71.581189 12.717545 
L 71.77012 12.378068 
L 71.916226 11.925434 
L 71.875921 11.497766 
L 71.765081 11.078423 
L 71.810425 10.78555 
L 78.317205 10.469382 
L 78.952012 10.171521 
L 79.25934 10.08 
L 79.599416 10.128257 
L 79.838728 10.307971 
L 80.334987 10.845455 
L 81.586968 11.387938 
L 81.962311 11.442852 
L 82.791088 11.293086 
L 84.927267 11.381282 
L 86.788866 11.166618 
L 88.63535 11.319711 
L 90.068706 11.174938 
L 90.509544 11.196571 
L 91.494504 11.402915 
L 92.552517 11.462821 
L 93.038699 11.341344 
L 93.975796 10.926994 
L 94.45694 10.835471 
L 94.711367 10.747277 
L 95.220221 10.387845 
L 95.451976 10.351236 
L 95.754266 10.496007 
L 96.552814 11.139993 
L 96.993652 11.258141 
L 98.336321 10.852112 
L 99.273419 10.936978 
L 100.633721 11.522727 
L 101.054407 11.697455 
L 101.623719 11.522727 
L 102.011657 11.908794 
L 102.593564 12.191689 
L 105.891038 12.842354 
L 106.384777 12.714217 
L 106.724853 12.429655 
L 107.00447 12.131781 
L 107.311798 11.962044 
L 107.727446 12.116805 
L 108.284162 12.436311 
L 108.765306 12.576096 
L 108.97439 12.183368 
L 109.316984 12.369747 
L 109.626831 12.403029 
L 109.90393 12.268237 
L 110.153319 11.962044 
L 110.88637 12.30984 
L 111.309576 12.403029 
L 111.576598 12.303183 
L 111.911635 12.091843 
L 112.302092 12.211658 
L 112.984763 12.601058 
L 114.022623 12.429655 
L 114.254378 12.303183 
L 114.743079 11.682479 
L 115.025216 11.414563 
L 115.236819 11.303071 
L 115.979947 11.346336 
L 116.660098 11.522727 
L 117.000174 11.87052 
L 117.161395 11.962044 
L 117.388112 11.965372 
L 117.738264 11.774003 
L 117.907042 11.722416 
L 118.181622 11.87052 
L 118.559483 12.229963 
L 118.92475 12.664294 
L 119.156505 13.042048 
L 119.259787 13.514662 
L 119.159024 14.4832 
z
" clip-path="url(#p7ce62d7904)" style="stroke: #000000; stroke-linejoin: miter"/>
   </g>
   <g id="line2d_1">
    <path d="M 119.166581 15.278681 
L 119.08849 18.245201 
L 118.839101 19.01744 
L 117.823912 19.798011 
L 117.252082 20.556957 
L 117.030403 20.672631 
L 117.022846 20.943924 
L 117.161395 21.547264 
L 116.985059 22.09735 
L 116.660098 22.55673 
L 116.330099 23.435555 
L 115.939642 23.691881 
L 116.451015 24.844532 
L 116.677732 25.466223 
L 116.642465 25.982224 
L 116.204145 27.650102 
L 115.954756 28.078731 
L 115.647429 28.315102 
L 115.826283 28.867749 
L 115.496284 30.714655 
L 115.642391 32.181231 
L 115.564299 32.955316 
L 115.146132 33.592903 
L 115.995062 35.35254 
L 116.161321 35.113647 
L 116.438419 35.39416 
L 116.609717 35.77456 
L 116.639946 36.214895 
L 116.493839 36.671881 
L 116.995136 37.010668 
L 117.433455 38.568943 
L 117.823912 38.891923 
L 117.798722 39.160796 
L 117.907042 41.410879 
L 118.111087 41.802132 
L 117.909561 42.085167 
L 117.680325 42.731157 
L 117.332692 43.040834 
L 116.383 43.503687 
L 116.110939 44.349483 
L 115.647429 44.412751 
L 115.894298 44.699125 
L 116.418267 45.062089 
L 116.493839 45.511633 
L 116.750785 45.556588 
L 117.247043 45.451694 
L 118.085897 45.534943 
L 118.589712 45.398414 
L 119.035589 45.142008 
L 119.489023 44.409421 
L 120.34551 44.179657 
L 120.501693 43.608579 
L 120.698181 43.367162 
L 121.705812 43.114091 
L 122.076117 43.159044 
L 122.927566 43.560295 
L 123.68077 43.751764 
L 124.416341 43.746769 
L 125.232522 43.546976 
L 125.547407 43.247286 
L 126.104123 42.258318 
L 126.978244 41.808791 
L 127.640761 41.166139 
L 129.183697 40.888934 
L 129.642169 40.503513 
L 130.05026 40.71745 
L 130.123313 40.750748 
L 130.465908 40.550129 
L 130.992395 38.946863 
L 131.012548 38.793697 
L 131.357662 38.683817 
L 136.380704 39.373898 
L 136.824062 39.724351 
L 137.56719 40.553459 
L 138.083601 40.595081 
L 139.393522 39.999887 
L 139.882223 40.063152 
L 141.053595 40.600076 
L 141.39367 40.990492 
L 141.683364 41.063748 
L 141.758937 41.420868 
L 142.507103 42.0219 
L 142.65321 42.381522 
L 143.081453 45.235246 
L 143.056262 47.666146 
L 143.255269 48.48867 
L 143.63565 49.161347 
L 144.804503 49.87399 
L 145.137021 50.530026 
L 145.786943 52.931085 
L 146.537629 54.273171 
L 147.001139 54.83099 
L 147.583046 55.218967 
L 147.769458 55.477065 
L 147.724115 55.914999 
L 147.02633 56.704283 
L 147.109459 57.102258 
L 147.27068 58.602582 
L 146.436865 59.929743 
L 145.313356 61.203629 
L 144.608014 62.544135 
L 144.534961 64.19772 
L 144.37374 64.887134 
L 142.010845 67.421672 
L 140.786572 67.508266 
L 139.418713 67.305102 
L 138.212074 67.521589 
L 137.471465 68.880461 
L 137.897189 70.212698 
L 137.801464 70.878818 
L 137.345511 71.571586 
L 135.54437 72.883853 
L 135.02544 73.613263 
L 134.161396 76.174536 
L 133.332619 77.806566 
L 133.22178 78.575953 
L 133.695367 81.170561 
L 133.798649 83.49872 
L 133.957351 83.718547 
L 134.53422 83.798484 
L 134.72567 84.194837 
L 134.687883 84.531238 
L 134.239487 85.44052 
L 134.438495 86.612927 
L 132.526514 89.813727 
L 132.269568 90.613093 
L 132.246896 91.5257 
L 133.519031 93.444169 
L 133.997656 93.24766 
L 134.166434 92.871294 
L 134.25964 92.658131 
L 134.448571 92.571533 
L 135.556965 92.827995 
L 135.929789 93.357572 
L 136.816505 93.04782 
L 137.793907 93.24766 
L 138.685661 93.820535 
L 139.320469 94.643208 
L 139.731079 95.745654 
L 140.030849 97.037942 
L 140.209703 98.366862 
L 140.252528 99.572542 
L 141.06619 99.099596 
L 141.484357 99.096266 
L 142.325729 99.459302 
L 143.494582 98.969702 
L 144.174733 99.22949 
L 145.101754 99.772378 
L 145.922973 100.451819 
L 146.462056 101.411026 
L 147.731672 102.716607 
L 148.303503 104.271968 
L 148.522662 105.237818 
L 148.356403 106.283593 
L 147.366405 109.114481 
L 147.230375 109.903789 
L 147.235413 110.696423 
L 147.502436 112.49482 
L 147.227856 113.184199 
L 146.797094 113.810298 
L 146.421751 114.602908 
L 146.293278 115.342228 
L 146.172362 116.73427 
L 145.915416 117.420293 
L 145.910378 117.88319 
L 146.928086 121.759453 
L 146.799613 122.591963 
L 147.071077 123.115371 
L 147.673733 124.070483 
L 147.714038 124.360191 
L 147.590603 126.088424 
L 147.366405 126.737752 
L 146.75175 127.796644 
L 146.897857 128.41266 
L 147.255566 128.902139 
L 148.112053 129.651337 
L 148.248083 130.320614 
L 148.074266 130.690212 
L 147.482283 131.312865 
L 147.394115 131.615865 
L 147.35381 132.391673 
L 147.046482 133.323963 
L 147.366405 133.74349 
L 147.638466 134.322833 
L 147.648542 134.808944 
L 146.849994 135.008715 
L 146.595567 135.661296 
L 146.200072 136.210658 
L 145.252899 136.849909 
L 145.41412 137.089627 
L 145.887706 137.439214 
L 146.182439 138.744322 
L 147.29839 139.24039 
L 146.72404 139.699831 
L 146.429308 140.132636 
L 146.273125 140.828446 
L 146.197553 143.395217 
L 146.033813 144.497131 
L 146.220225 145.901959 
L 146.043889 146.344705 
L 145.343861 146.837912 
L 142.507103 148.302069 
L 142.212371 148.774755 
L 142.05115 149.933152 
L 142.494508 150.5656 
L 142.308096 151.520915 
L 142.058707 153.677798 
L 141.892448 153.897476 
L 141.34077 154.24696 
L 141.31306 154.563159 
L 141.459166 155.375281 
L 141.134205 155.844575 
L 140.297871 156.247299 
L 139.967872 156.586782 
L 140.045963 157.688424 
L 141.892448 159.751853 
L 142.073822 160.776877 
L 141.96802 160.687022 
L 140.562374 161.192871 
L 139.874666 161.911699 
L 139.564819 162.514042 
L 139.574896 163.359305 
L 138.811328 164.74114 
L 138.554669 165.402512 
L 138.33299 165.445771 
L 137.471465 164.999868 
L 137.317801 165.036472 
L 136.0104 165.495685 
L 135.854217 165.306011 
L 135.781163 164.717017 
L 135.556965 164.500717 
L 135.320172 164.500717 
L 134.153839 165.116336 
L 133.556817 165.076404 
L 133.000101 164.833485 
L 132.602086 164.370937 
L 132.629796 164.211207 
L 132.64743 162.969954 
L 132.828803 162.687089 
L 133.335138 162.350978 
L 133.680252 161.379235 
L 134.073228 160.933291 
L 133.488802 160.097967 
L 133.042925 159.698604 
L 132.962315 158.803352 
L 132.798575 158.487181 
L 132.352698 157.888114 
L 132.052927 157.295696 
L 131.49873 155.801307 
L 131.065449 153.790965 
L 130.770716 153.181856 
L 130.100641 152.472884 
L 130.045222 152.645967 
L 129.279422 154.29023 
L 128.890224 155.977707 
L 126.872442 158.68354 
L 126.693588 159.652011 
L 126.449237 159.871662 
L 125.577636 160.31096 
L 124.980614 161.186215 
L 124.77405 161.455777 
L 123.741228 162.487419 
L 123.171916 163.548988 
L 123.045962 163.495744 
L 122.841917 163.099738 
L 122.685734 163.046493 
L 122.217185 163.182933 
L 121.688179 163.069788 
L 121.21963 163.222866 
L 120.786349 163.15631 
L 116.297351 161.003178 
L 116.015214 161.053097 
L 115.282162 161.485728 
L 114.773308 161.32266 
L 113.201403 160.380848 
L 112.596825 160.237744 
L 112.28194 160.36088 
L 111.558964 161.316004 
L 111.231484 161.3393 
L 111.16095 161.14628 
L 111.286904 160.846764 
L 111.672323 160.317616 
L 111.856216 159.488937 
L 112.042627 158.899867 
L 112.246673 158.61365 
L 112.070337 158.217602 
L 111.921712 158.224258 
L 111.682399 157.718377 
L 111.558964 156.849714 
L 111.329728 156.480278 
L 110.662172 155.222177 
L 110.070189 155.621577 
L 109.722556 155.638219 
L 109.505915 154.506576 
L 109.128054 153.880833 
L 109.319504 153.281711 
L 109.430343 152.882291 
L 108.971871 152.725851 
L 108.944161 152.366371 
L 108.89126 151.467657 
L 108.042331 149.86325 
L 107.22363 146.740844 
L 106.81302 146.368007 
L 105.674501 145.825004 
L 104.064706 144.284074 
L 103.026845 143.714808 
L 101.827764 143.758086 
L 101.56578 143.88459 
L 100.223111 145.126312 
L 99.95357 145.745498 
L 99.787311 146.700897 
L 99.472426 146.927261 
L 99.044182 146.75083 
L 98.290978 145.695564 
L 98.018917 145.612341 
L 97.925712 146.048431 
L 98.129757 149.520393 
L 98.33884 150.821906 
L 98.845175 151.853773 
L 99.794868 152.422956 
L 99.686547 152.978818 
L 99.074411 154.380097 
L 99.029068 154.856057 
L 99.202884 156.187389 
L 99.034106 157.112644 
L 98.706626 158.22093 
L 98.53029 159.262628 
L 98.807389 159.971503 
L 89.131609 162.710384 
L 88.375885 162.600566 
L 87.630238 161.925011 
L 86.80398 160.570543 
L 86.111233 159.944878 
L 85.347953 160.44408 
L 84.320169 160.880044 
L 83.44101 161.109673 
L 82.899408 161.395875 
L 82.073151 162.400895 
L 81.667579 162.713712 
L 81.264526 162.67045 
L 80.821169 162.360961 
L 79.811018 161.222822 
L 79.561629 160.703662 
L 79.226592 160.477359 
L 77.994763 159.984815 
L 77.040032 159.964847 
L 76.846063 160.597167 
L 77.458199 163.182933 
L 77.29194 165.528961 
L 77.480871 166.207789 
L 78.327281 168.230896 
L 78.458273 169.721545 
L 78.115678 171.205486 
L 76.293416 175.266081 
L 76.050034 176.498645 
L 76.175988 177.253801 
L 76.594155 177.160655 
L 77.581634 176.245814 
L 78.27438 175.966367 
L 78.760562 176.175952 
L 79.158577 176.768108 
L 79.999949 178.381517 
L 81.853991 180.982785 
L 82.2117 181.724545 
L 82.2117 182.416397 
L 81.60964 182.905342 
L 80.458421 183.148149 
L 80.015064 184.511828 
L 79.99743 187.046135 
L 80.395444 187.508409 
L 82.289791 188.675708 
L 83.272232 189.743202 
L 84.158948 190.298551 
L 85.315205 190.717551 
L 86.25734 191.299487 
L 86.514286 192.33697 
L 86.186806 193.028606 
L 85.13635 194.066033 
L 84.806351 194.840756 
L 83.415819 199.176194 
L 83.347804 199.920871 
L 83.589636 200.592394 
L 84.093452 200.987987 
L 84.670321 201.233983 
L 85.138869 201.566408 
L 85.310166 202.247866 
L 85.118717 202.972522 
L 84.687954 203.650624 
L 84.161467 204.169163 
L 83.672765 204.415133 
L 83.219331 204.398513 
L 81.327503 203.79688 
L 79.999949 204.022909 
L 79.470943 203.786908 
L 79.062852 203.205206 
L 77.1282 199.076459 
L 76.22385 198.162208 
L 75.002097 197.929485 
L 74.329503 198.537886 
L 73.329429 200.449447 
L 72.399889 200.858339 
L 71.397296 201.124282 
L 70.611344 201.762536 
L 69.885849 202.550362 
L 69.054553 203.261715 
L 68.419745 203.976374 
L 68.019212 204.990163 
L 66.399134 210.747587 
L 66.01875 211.68 
L 64.949846 210.778098 
L 63.758655 209.138556 
L 63.378871 207.058956 
L 62.9901 205.910066 
L 62.865137 204.533432 
L 62.356959 203.78971 
L 61.542214 203.006128 
L 58.551751 199.654958 
L 54.622097 196.083645 
L 54.453002 194.1412 
L 54.683091 192.860908 
L 54.583915 192.240381 
L 54.353826 191.635552 
L 53.459218 190.836133 
L 52.758656 190.119158 
L 52.345057 189.867086 
L 52.249904 189.236539 
L 49.897514 185.831667 
L 47.323299 182.974283 
L 36.488247 171.900111 
L 32.1661 164.847817 
L 31.638482 163.613682 
L 32.082792 164.056508 
L 32.779009 165.036472 
L 33.304644 165.392817 
L 33.867965 165.476663 
L 34.201198 165.198924 
L 34.968823 164.053887 
L 34.802206 165.612911 
L 35.028328 165.466182 
L 35.149323 165.172722 
L 35.216763 166.362271 
L 35.42305 166.697644 
L 35.801904 166.493276 
L 36.86309 167.056596 
L 37.224092 167.79283 
L 37.313351 168.489752 
L 37.479967 168.489752 
L 37.612863 168.031252 
L 37.755677 168.060072 
L 37.979816 168.251332 
L 38.009568 168.133432 
L 38.033371 168.054832 
L 38.146432 168.031252 
L 38.313048 169.59013 
L 38.672066 169.194521 
L 39.144146 169.149982 
L 39.062821 169.60323 
L 39.15803 169.710646 
L 39.643994 169.351717 
L 39.830446 169.092344 
L 40.157728 168.251332 
L 40.508812 168.081032 
L 41.550163 167.955271 
L 41.821906 168.031252 
L 42.460602 167.944791 
L 42.682757 167.79545 
L 42.821603 167.389344 
L 42.169023 166.933452 
L 42.216628 166.330829 
L 41.147507 165.712477 
L 40.824192 165.172722 
L 40.657576 165.172722 
L 40.824192 165.743919 
L 41.157425 167.389344 
L 40.812291 167.321222 
L 40.203349 166.57712 
L 39.929622 165.971872 
L 39.550768 165.798942 
L 39.068772 165.612911 
L 38.979513 165.696756 
L 38.993398 166.254846 
L 38.670083 166.805068 
L 38.479664 167.389344 
L 37.827084 166.933452 
L 37.922293 166.603321 
L 37.777496 165.93781 
L 37.827084 165.612911 
L 38.051223 165.460942 
L 38.576857 165.44522 
L 38.660165 165.172722 
L 38.372554 164.858298 
L 37.747743 164.585796 
L 37.075328 164.433823 
L 36.646886 164.494088 
L 35.807854 162.528873 
L 35.688843 162.528873 
L 35.546029 162.877377 
L 35.149323 163.176093 
L 34.52848 163.008393 
L 33.391919 164.28971 
L 32.820663 164.494088 
L 32.364452 164.025064 
L 32.13833 163.275665 
L 32.564789 162.756842 
L 32.701652 162.65727 
L 32.241474 162.293041 
L 32.13833 162.295662 
L 31.987582 161.415213 
L 31.622614 161.39425 
L 31.515503 161.504307 
L 31.471866 161.727041 
L 31.86262 162.966468 
L 31.638482 163.377856 
L 31.253678 163.157751 
L 30.234145 161.546233 
L 29.80967 161.176755 
L 30.7935 162.955987 
L 30.250013 162.473846 
L 29.599417 161.640568 
L 29.044029 160.689354 
L 28.607653 158.944102 
L 28.46484 156.019481 
L 28.282355 155.547751 
L 25.864437 152.402775 
L 25.211856 151.915286 
L 24.192324 150.26146 
L 24.2915 149.941697 
L 23.763882 149.752983 
L 23.462386 149.192081 
L 23.125187 147.965414 
L 21.103973 145.373075 
L 21.161495 145.061147 
L 21.340013 144.851447 
L 21.447123 144.977267 
L 21.627624 145.564424 
L 22.073918 146.020515 
L 22.627321 146.253802 
L 23.125187 146.18303 
L 22.942702 146.4268 
L 23.260066 146.599798 
L 23.434617 146.4268 
L 23.621068 145.74791 
L 23.771816 145.74791 
L 23.954301 146.4268 
L 23.704376 146.58145 
L 23.621068 146.953656 
L 23.704376 147.150242 
L 23.995955 146.75969 
L 23.954301 146.628631 
L 25.203922 146.628631 
L 25.882288 146.848809 
L 26.223455 147.386145 
L 26.161965 148.044047 
L 25.620463 148.62593 
L 26.06874 149.218291 
L 26.20957 149.286438 
L 26.876035 149.396522 
L 26.937524 149.587858 
L 26.969261 150.387268 
L 27.481011 150.974367 
L 27.732918 151.629605 
L 27.875732 151.220738 
L 28.298223 150.942916 
L 28.072101 149.721531 
L 27.861848 149.273333 
L 27.631759 149.286438 
L 27.365966 148.877553 
L 26.768925 148.332368 
L 26.632061 147.965414 
L 26.917689 147.399251 
L 27.149762 147.18956 
L 27.112075 146.977246 
L 26.318664 145.17124 
L 25.86642 144.557866 
L 25.620463 144.867175 
L 25.120614 144.426802 
L 25.031355 145.034935 
L 25.120614 145.74791 
L 24.664403 145.255119 
L 24.045543 143.753131 
L 23.621068 143.525077 
L 23.442551 143.737403 
L 23.198577 144.646989 
L 22.966504 144.746597 
L 22.831625 145.008722 
L 22.791954 145.74791 
L 22.426985 145.357347 
L 21.943005 145.286574 
L 22.224666 144.646989 
L 22.169127 144.285254 
L 21.61374 143.745267 
L 21.078187 144.206615 
L 20.717186 144.038853 
L 20.510899 143.404497 
L 20.467261 142.07023 
L 20.594207 141.236627 
L 20.550569 139.556279 
L 20.264942 138.468354 
L 20.264942 137.147092 
L 19.856335 135.810073 
L 19.300948 134.795495 
L 17.950166 132.949816 
L 14.665447 126.749157 
L 14.092208 124.570293 
L 14.964959 126.951046 
L 15.437038 127.648479 
L 15.813908 127.598663 
L 16.194745 127.818904 
L 16.498225 128.19908 
L 16.748149 129.21637 
L 17.319405 130.002926 
L 17.603049 130.949404 
L 18.372657 132.210483 
L 18.848704 132.703373 
L 20.225271 134.095506 
L 20.943308 134.378648 
L 21.17538 138.381844 
L 21.324145 138.879933 
L 21.61374 138.706913 
L 21.685146 138.376601 
L 21.462992 137.936182 
L 21.530431 137.697621 
L 21.744652 137.574408 
L 21.927137 137.700243 
L 22.109621 138.248146 
L 22.47459 137.697621 
L 23.045846 137.25982 
L 23.698426 136.992419 
L 24.2915 136.926879 
L 24.15067 137.430222 
L 24.120917 137.972884 
L 24.25778 138.439518 
L 24.620765 138.706913 
L 24.781431 137.086796 
L 24.620765 136.706665 
L 25.38244 136.56772 
L 27.399686 136.926879 
L 28.131607 136.706665 
L 27.125959 136.195452 
L 26.739172 135.812695 
L 26.449577 135.167771 
L 26.195685 133.264424 
L 26.298829 132.72959 
L 26.100476 132.648316 
L 25.513352 132.270783 
L 25.029372 132.373032 
L 25.017471 132.577529 
L 25.084911 133.387645 
L 24.2915 134.737818 
L 23.732146 135.267394 
L 23.069648 135.526937 
L 21.61374 135.608208 
L 21.47886 135.369638 
L 21.449107 134.85055 
L 21.256705 134.082397 
L 21.17538 133.337832 
L 20.594207 133.16742 
L 20.550569 132.661425 
L 20.746938 132.320597 
L 21.103973 132.129208 
L 21.530431 132.068907 
L 21.734735 131.877518 
L 21.776389 131.43968 
L 21.677212 130.983488 
L 21.447123 130.729172 
L 21.447123 130.527292 
L 21.665311 130.448637 
L 22.442854 130.288706 
L 22.637239 129.974086 
L 22.746333 129.363195 
L 23.133121 128.424563 
L 23.05378 127.86872 
L 22.60947 126.749157 
L 22.764185 126.403059 
L 22.442854 126.088424 
L 22.430952 126.730803 
L 22.54203 128.760164 
L 22.121522 129.316001 
L 21.859697 129.410388 
L 21.639525 129.310757 
L 21.27654 128.749677 
L 20.879835 128.927964 
L 20.187584 130.071094 
L 19.019287 130.359495 
L 18.614648 130.288706 
L 18.342905 129.863968 
L 18.265547 129.18753 
L 18.317119 128.246274 
L 17.948183 127.894939 
L 17.414614 128.361637 
L 17.103201 128.290846 
L 16.748149 128.023412 
L 15.891266 127.173911 
L 15.224801 126.76751 
L 15.01058 126.232632 
L 14.951074 125.577139 
L 15.040333 124.874445 
L 14.939173 124.570293 
L 15.413236 124.114061 
L 15.298192 123.364159 
L 14.877684 122.603762 
L 14.42544 122.131789 
L 14.730903 123.101954 
L 14.504781 124.263517 
L 14.350066 124.232052 
L 14.270725 123.885945 
L 14.092208 121.911534 
L 13.679634 120.495596 
L 11.261715 116.389263 
L 11.89446 117.181174 
L 12.243561 117.406684 
L 12.60853 117.249351 
L 12.261413 117.050063 
L 12.60853 116.247663 
L 12.925894 115.953972 
L 12.640266 115.786149 
L 11.926197 116.425974 
L 11.505689 116.284374 
L 11.005841 114.422574 
L 10.76385 114.632356 
L 10.583349 114.632356 
L 10.248133 113.090451 
L 9.879198 112.259178 
L 9.236535 110.337003 
L 8.714868 109.159559 
L 8.391553 107.462869 
L 7.64178 106.183128 
L 7.072508 103.809811 
L 7.403757 103.133214 
L 7.584258 103.369236 
L 7.368053 103.990761 
L 7.633846 104.268742 
L 8.419322 104.470672 
L 8.288409 104.958448 
L 8.419322 105.333458 
L 8.942973 105.312479 
L 9.309925 106.09921 
L 9.514229 107.200628 
L 9.764153 109.020573 
L 10.000193 109.398196 
L 10.339376 109.550293 
L 10.529794 109.770572 
L 10.700377 110.693643 
L 11.097083 110.850984 
L 10.882862 110.30029 
L 11.023692 109.191028 
L 11.227995 108.092246 
L 11.553294 108.055533 
L 12.410177 108.212877 
L 12.410177 107.992595 
L 11.92223 107.586123 
L 11.755613 107.247831 
L 11.761564 106.870203 
L 11.940081 106.66041 
L 12.176121 106.686634 
L 12.763245 107.053773 
L 13.18772 108.058155 
L 13.445578 109.188405 
L 14.326264 110.274066 
L 14.605941 110.850984 
L 14.617842 111.501325 
L 14.449242 112.634169 
L 14.605941 113.090451 
L 14.772557 113.090451 
L 14.877684 112.48732 
L 14.939173 110.531058 
L 15.07207 109.92267 
L 15.653243 109.080888 
L 15.784156 108.548543 
L 15.760353 107.806405 
L 16.081684 107.4314 
L 16.617237 107.129823 
L 16.682693 106.796776 
L 16.664841 106.172638 
L 16.950469 106.010047 
L 17.283701 106.870203 
L 17.234113 106.12019 
L 16.748149 105.068591 
L 16.950469 104.232028 
L 18.392493 102.527421 
L 18.830852 101.368279 
L 21.010747 98.195033 
L 21.61374 96.949326 
L 21.96284 95.614447 
L 21.943005 91.449802 
L 22.125489 90.773175 
L 22.674926 89.33075 
L 22.942702 87.248409 
L 22.887163 86.952055 
L 22.60947 86.127248 
L 22.712613 85.340468 
L 23.109318 84.105223 
L 22.942702 83.59775 
L 22.910966 82.909317 
L 22.054082 76.807862 
L 21.776389 75.769323 
L 22.133423 74.353138 
L 22.910966 73.440489 
L 23.174775 73.3487 
L 23.410814 73.576861 
L 23.621068 74.206275 
L 23.722228 74.994354 
L 23.67264 75.647373 
L 23.438584 76.8472 
L 23.6052 77.842469 
L 23.22833 78.085058 
L 23.200561 78.778732 
L 23.271968 79.069839 
L 23.615118 78.52303 
L 23.763882 78.286997 
L 24.037609 78.18865 
L 24.953998 78.298799 
L 25.084911 78.714478 
L 25.723606 79.540594 
L 25.949728 80.167393 
L 26.033036 81.386899 
L 26.388087 81.737016 
L 26.556687 81.733082 
L 26.632061 81.386899 
L 26.524951 79.427822 
L 26.782809 78.84823 
L 28.298223 79.509122 
L 28.429136 79.863172 
L 28.794105 81.287241 
L 28.901215 81.06432 
L 29.80967 79.949718 
L 30.178606 79.974632 
L 30.392827 80.172638 
L 30.642752 80.828286 
L 31.85667 80.560782 
L 32.745289 81.752751 
L 33.493079 83.311886 
L 34.288473 84.148496 
L 32.981329 80.859757 
L 33.457375 80.572583 
L 34.086153 80.611922 
L 34.468974 81.068254 
L 34.768486 80.820419 
L 35.482556 79.708439 
L 36.646886 78.84823 
L 37.039624 78.857409 
L 38.146432 79.309806 
L 38.50545 79.267844 
L 39.491263 78.84823 
L 39.491263 78.606952 
L 38.267427 78.643668 
L 37.789397 78.460087 
L 37.313351 77.946061 
L 36.48622 78.562368 
L 36.006207 78.769553 
L 34.12384 78.921663 
L 33.802509 79.069839 
L 32.705619 78.575481 
L 31.832867 77.712651 
L 31.059292 77.746745 
L 30.797467 77.582833 
L 29.631153 76.427588 
L 28.786171 75.765389 
L 28.43707 75.292015 
L 28.298223 74.648176 
L 28.131607 74.648176 
L 27.853913 75.155642 
L 27.54845 75.087455 
L 26.632061 75.529358 
L 26.437676 75.159576 
L 26.292878 74.010894 
L 25.687903 73.306739 
L 24.210176 69.156585 
L 23.53181 68.14561 
L 23.077582 67.85058 
L 22.268303 67.870249 
L 21.943005 67.366731 
L 21.92317 66.894684 
L 22.020362 65.119274 
L 22.192929 64.727217 
L 23.271968 64.505621 
L 24.616798 63.791006 
L 25.376489 64.046693 
L 25.576825 63.97851 
L 25.906091 63.674308 
L 26.735205 63.12622 
L 27.167613 62.878401 
L 27.631759 62.945273 
L 28.030447 63.468447 
L 28.210948 64.211907 
L 28.123673 64.876697 
L 27.715067 65.167789 
L 26.655864 64.86883 
L 26.138163 64.95537 
L 25.802947 65.607051 
L 26.366269 65.378897 
L 27.080338 65.436591 
L 27.651594 65.852251 
L 27.798375 66.705865 
L 28.08797 66.58392 
L 28.30219 66.359699 
L 28.429136 66.03189 
L 28.46484 65.607051 
L 28.758401 66.123677 
L 28.802039 67.062523 
L 28.675093 67.984327 
L 28.46484 68.468178 
L 28.696912 69.384743 
L 28.893281 69.666663 
L 29.309822 69.785988 
L 29.202711 69.275909 
L 29.206678 68.620283 
L 29.32569 68.047267 
L 29.698593 67.520146 
L 30.142903 65.607051 
L 29.80967 64.967172 
L 29.726362 64.303692 
L 29.80967 62.72499 
L 29.559746 58.9068 
L 28.696912 55.880647 
L 28.520378 54.587867 
L 28.179212 53.87986 
L 28.298223 53.225613 
L 28.603686 52.539903 
L 28.923034 52.218683 
L 29.280069 52.124284 
L 29.720412 52.124284 
L 30.150837 51.963019 
L 30.7935 50.806638 
L 31.231859 50.706995 
L 32.654047 50.756816 
L 33.046785 50.916769 
L 33.374067 51.622134 
L 33.578371 53.001413 
L 33.802509 53.685814 
L 34.09802 52.734093 
L 34.822796 52.8445 
L 35.200657 53.027662 
L 35.60371 53.403977 
L 36.639051 54.77271 
L 37.069814 55.01582 
L 37.503095 55.102408 
L 37.891033 54.989178 
L 38.178208 54.619518 
L 38.266376 54.196575 
L 38.268895 53.242461 
L 38.397368 52.771235 
L 39.583854 52.568092 
L 71.437601 52.707961 
L 71.27638 16.361254 
L 71.089968 15.127239 
L 71.341876 14.409977 
L 71.581189 12.717545 
L 71.916226 11.925434 
L 71.810425 10.78555 
L 78.317205 10.469382 
L 79.25934 10.08 
L 79.599416 10.128257 
L 79.838728 10.307971 
L 80.334987 10.845455 
L 81.962311 11.442852 
L 82.791088 11.293086 
L 84.927267 11.381282 
L 86.788866 11.166618 
L 88.63535 11.319711 
L 90.509544 11.196571 
L 91.494504 11.402915 
L 92.552517 11.462821 
L 93.038699 11.341344 
L 94.45694 10.835471 
L 94.711367 10.747277 
L 95.451976 10.351236 
L 95.754266 10.496007 
L 96.552814 11.139993 
L 96.993652 11.258141 
L 98.336321 10.852112 
L 99.273419 10.936978 
L 101.054407 11.697455 
L 101.623719 11.522727 
L 102.011657 11.908794 
L 102.593564 12.191689 
L 105.891038 12.842354 
L 106.384777 12.714217 
L 107.311798 11.962044 
L 108.765306 12.576096 
L 108.97439 12.183368 
L 109.316984 12.369747 
L 109.626831 12.403029 
L 109.90393 12.268237 
L 110.153319 11.962044 
L 111.309576 12.403029 
L 111.911635 12.091843 
L 112.302092 12.211658 
L 112.984763 12.601058 
L 114.254378 12.303183 
L 115.025216 11.414563 
L 115.236819 11.303071 
L 115.979947 11.346336 
L 116.660098 11.522727 
L 117.161395 11.962044 
L 117.388112 11.965372 
L 117.907042 11.722416 
L 118.181622 11.87052 
L 118.92475 12.664294 
L 119.156505 13.042048 
L 119.259787 13.514662 
L 119.166581 15.278681 
L 119.166581 15.278681 
" clip-path="url(#p7ce62d7904)" style="fill: none; stroke: #000000; stroke-width: 0.5; stroke-linecap: square"/>
   </g>
  </g>
 </g>
 <defs>
  <clipPath id="p7ce62d7904">
   <rect x="0" y="-0" width="155.59517" height="221.76"/>
  </clipPath>
 </defs>
</svg>
