<?xml version="1.0" encoding="utf-8" standalone="no"?>
<!DOCTYPE svg PUBLIC "-//W3C//DTD SVG 1.1//EN"
  "http://www.w3.org/Graphics/SVG/1.1/DTD/svg11.dtd">
<svg xmlns:xlink="http://www.w3.org/1999/xlink" width="223.2pt" height="72.021024pt" viewBox="0 0 223.2 72.021024" xmlns="http://www.w3.org/2000/svg" version="1.1">
 <metadata>
  <rdf:RDF xmlns:dc="http://purl.org/dc/elements/1.1/" xmlns:cc="http://creativecommons.org/ns#" xmlns:rdf="http://www.w3.org/1999/02/22-rdf-syntax-ns#">
   <cc:Work>
    <dc:type rdf:resource="http://purl.org/dc/dcmitype/StillImage"/>
    <dc:date>2026-04-26T19:22:13.216651</dc:date>
    <dc:format>image/svg+xml</dc:format>
    <dc:creator>
     <cc:Agent>
      <dc:title>Matplotlib v3.10.9, https://matplotlib.org/</dc:title>
     </cc:Agent>
    </dc:creator>
   </cc:Work>
  </rdf:RDF>
 </metadata>
 <defs>
  <style type="text/css">*{stroke-linejoin: round; stroke-linecap: butt}</style>
 </defs>
 <g id="figure_1">
  <g id="patch_1">
   <path d="M 0 72.021024 
L 223.2 72.021024 
L 223.2 0 
L 0 0 
z
" style="fill: #ffffff"/>
  </g>
  <g id="axes_1">
   <g id="patch_2">
    <path d="M 15.270414 68.747341 
L 14.244874 67.634118 
L 13.202881 67.185311 
L 13.041098 66.570425 
L 13.323533 65.853079 
L 13.797914 64.602198 
L 13.67452 63.291323 
L 12.366545 59.002377 
L 12.317187 57.970895 
L 12.481712 53.909026 
L 12.325413 52.778902 
L 11.947005 51.627649 
L 10.795329 49.967974 
L 10.499184 48.816871 
L 11.025664 47.425741 
L 10.778877 46.97382 
L 10.145455 45.003837 
L 10.751456 44.085985 
L 11.475367 41.417378 
L 12.177341 40.859695 
L 12.999967 40.612625 
L 13.877434 40.002021 
L 14.645219 39.239673 
L 18.585597 33.131284 
L 20.313112 31.331919 
L 20.452958 32.220998 
L 20.831366 32.849021 
L 21.412688 33.328871 
L 22.103694 33.752277 
L 23.291018 32.961926 
L 24.48931 32.89136 
L 25.531303 33.406494 
L 26.249729 34.348588 
L 26.614427 35.911778 
L 25.874063 36.179967 
L 24.763518 36.275245 
L 23.99025 37.309219 
L 25.037727 38.480882 
L 25.926163 40.965583 
L 26.40877 43.549413 
L 26.249729 45.003837 
L 28.73406 48.710944 
L 29.279735 49.205273 
L 32.688149 49.395946 
L 33.656105 49.745517 
L 34.536315 50.441145 
L 35.062796 51.048514 
L 35.753802 51.465207 
L 37.124845 51.627649 
L 37.777461 52.203268 
L 38.164096 53.555856 
L 38.194259 55.109848 
L 37.793914 56.314267 
L 39.118342 54.915593 
L 39.718859 54.87321 
L 40.599069 55.720879 
L 40.204208 54.841423 
L 38.973011 53.262729 
L 38.715255 53.029643 
L 38.545246 51.927816 
L 38.073607 51.207421 
L 37.349696 50.886076 
L 36.411902 50.984951 
L 36.411902 50.391709 
L 38.394431 50.441145 
L 39.318514 50.264588 
L 40.138398 49.745517 
L 40.804725 51.482864 
L 41.577994 51.097952 
L 42.49385 49.893822 
L 43.590685 49.205273 
L 44.843819 48.732129 
L 47.328149 46.656069 
L 48.674514 46.186511 
L 50.550101 46.924392 
L 50.835278 48.643857 
L 50.544617 50.63536 
L 50.72011 52.164422 
L 51.926628 52.584668 
L 53.560912 51.966662 
L 55.864265 50.391709 
L 55.864265 49.745517 
L 55.123901 49.847918 
L 54.432896 50.144529 
L 53.810442 50.624766 
L 53.267509 51.302766 
L 52.628603 51.896034 
L 52.343426 51.387518 
L 52.036312 49.00754 
L 52.000665 48.040087 
L 51.855334 47.192718 
L 51.433053 46.839658 
L 51.095776 46.631355 
L 50.879151 46.105311 
L 50.753015 45.423944 
L 50.72011 44.707296 
L 50.933993 43.115223 
L 51.487895 42.035082 
L 54.186108 39.200851 
L 54.690652 38.516174 
L 54.904534 37.605658 
L 55.195196 37.182175 
L 55.853296 37.333922 
L 56.952873 37.895042 
L 66.404846 38.540878 
L 70.013432 37.464496 
L 71.29947 37.309219 
L 72.037092 37.355096 
L 72.418242 37.436264 
L 72.755518 37.457438 
L 73.38894 37.309219 
L 73.890742 37.033958 
L 74.252698 36.652834 
L 74.524164 36.299947 
L 74.729821 36.123506 
L 76.199579 36.010584 
L 80.545786 36.656363 
L 81.93054 36.469332 
L 85.857208 34.937858 
L 86.493372 34.479143 
L 87.754732 33.335927 
L 88.385412 33.103058 
L 89.043513 33.392381 
L 90.003243 34.648514 
L 90.661344 34.937858 
L 91.610106 34.916687 
L 92.31208 34.775543 
L 92.953728 34.429744 
L 93.716029 33.752277 
L 94.300093 32.89136 
L 95.369507 30.781556 
L 96.019381 30.199456 
L 96.825555 30.16065 
L 97.664633 30.492268 
L 98.429675 31.028512 
L 99.030192 31.628275 
L 99.726682 32.023422 
L 100.450593 31.871713 
L 101.144341 31.522433 
L 101.772279 31.331919 
L 103.050091 31.787038 
L 103.872717 32.856077 
L 104.508882 34.055723 
L 105.221824 34.937858 
L 107.541629 35.897663 
L 110.497599 36.130563 
L 112.907893 34.874343 
L 113.585188 31.331919 
L 113.234201 31.331919 
L 113.102581 31.331919 
L 113.086128 31.331919 
L 112.95725 32.633797 
L 112.463675 33.787561 
L 111.758959 34.620285 
L 111.015853 34.937858 
L 109.749009 34.750842 
L 107.43743 33.935755 
L 106.392695 33.752277 
L 105.430223 33.321814 
L 104.319678 32.319787 
L 102.688136 30.471101 
L 102.095845 30.118316 
L 101.49807 30.259429 
L 100.911264 30.562826 
L 100.371073 30.739221 
L 99.76233 30.55577 
L 99.244075 30.146539 
L 98.838246 29.737316 
L 98.547585 29.553874 
L 97.615276 29.285769 
L 96.852976 28.784844 
L 95.970024 28.544969 
L 94.642854 29.014139 
L 93.957332 29.694983 
L 92.967439 31.388368 
L 92.295628 31.924635 
L 91.143951 31.995197 
L 89.331432 30.915618 
L 88.155077 30.739221 
L 86.93759 31.088488 
L 83.970653 33.103058 
L 81.565843 34.027495 
L 59.977395 36.158794 
L 57.844051 35.195449 
L 56.516881 34.937858 
L 55.250037 35.283665 
L 54.032551 36.116448 
L 52.140511 37.895042 
L 49.316162 41.495031 
L 48.674514 42.098618 
L 48.159001 42.384533 
L 47.659942 42.914016 
L 47.149914 43.161113 
L 46.574075 42.631624 
L 46.535686 41.992724 
L 46.735858 41.092649 
L 46.859252 40.07614 
L 46.574075 39.080854 
L 45.436109 40.393794 
L 45.296263 41.113827 
L 45.69935 42.098618 
L 45.024796 42.539847 
L 44.736877 42.631624 
L 44.736877 43.224652 
L 45.057701 43.348202 
L 45.370299 43.612954 
L 45.69935 43.768277 
L 44.366696 44.629631 
L 42.071569 45.053261 
L 39.740795 45.148579 
L 38.295716 45.003837 
L 33.072041 43.390562 
L 30.892082 43.224652 
L 31.300653 42.45866 
L 32.126021 40.316145 
L 32.274094 39.405552 
L 32.126021 38.202077 
L 31.459694 36.483447 
L 31.306137 35.827088 
L 31.031928 35.220149 
L 29.789763 34.048666 
L 29.36474 33.088944 
L 28.695671 32.573818 
L 28.553082 32.249224 
L 28.553082 30.471101 
L 29.12892 26.830648 
L 29.052142 25.462113 
L 28.670992 24.319383 
L 28.226207 23.464687 
L 32.447723 23.486253 
L 36.633628 23.504168 
L 40.81605 23.526563 
L 45.001955 23.544479 
L 49.191343 23.566873 
L 53.373765 23.584789 
L 57.55967 23.607184 
L 60.304712 23.616003 
L 61.742092 23.620621 
L 65.927997 23.638537 
L 70.117385 23.660931 
L 74.299807 23.678847 
L 78.485712 23.701242 
L 82.675099 23.719158 
L 86.857522 23.741553 
L 91.046909 23.759469 
L 95.229332 23.781863 
L 98.527212 23.7953 
L 99.585877 23.347407 
L 99.721692 19.905661 
L 99.886139 18.732206 
L 99.968946 18.14134 
L 100.498279 16.236131 
L 101.194769 14.422873 
L 101.943495 12.947758 
L 104.043413 10.098551 
L 106.892057 7.471271 
L 110.012332 5.987698 
L 112.930625 6.573954 
L 113.560949 7.325818 
L 114.866867 9.503244 
L 115.437989 10.044839 
L 116.872759 9.617381 
L 121.950171 5.542423 
L 126.863908 3.273683 
L 128.305642 3.363175 
L 132.317424 5.27392 
L 139.122132 5.658775 
L 141.584224 6.685837 
L 142.861534 7.983681 
L 143.962737 9.102652 
L 144.815938 10.579733 
L 145.418401 12.175546 
L 146.727803 17.796554 
L 147.194451 18.457026 
L 149.962999 20.56396 
L 150.906743 20.991642 
L 151.739048 20.655765 
L 155.876199 17.747299 
L 158.60644 16.827153 
L 161.37847 17.091327 
L 164.272386 18.792868 
L 165.576563 20.107179 
L 166.487224 21.542491 
L 167.127995 23.199604 
L 168.028208 26.964421 
L 168.465256 28.126924 
L 169.146075 29.061004 
L 169.69464 29.554991 
L 174.58392 33.95832 
L 176.203259 34.915064 
L 177.434305 35.130169 
L 178.602668 34.776143 
L 182.560472 32.997139 
L 186.2954 30.066811 
L 187.573459 29.370134 
L 191.461614 28.263561 
L 194.578407 26.254407 
L 195.945269 25.824378 
L 196.669618 25.793023 
L 197.841463 25.918446 
L 198.544917 25.779584 
L 199.337175 25.336128 
L 200.70926 24.321588 
L 201.612956 24.137946 
L 203.028572 24.447003 
L 204.740196 25.197269 
L 206.357794 26.232009 
L 207.486108 27.389992 
L 207.834353 28.144843 
L 208.264436 29.789033 
L 208.614422 30.519327 
L 208.755688 30.671215 
L 209.229074 31.180198 
L 210.75787 32.316048 
L 211.438689 33.024024 
L 213.054545 37.124477 
L 212.795103 41.561919 
L 210.876273 45.244798 
L 207.538345 47.083111 
L 202.447003 47.634635 
L 199.741139 48.551632 
L 197.024828 48.591989 
L 194.132653 49.912625 
L 192.966033 49.894687 
L 191.956122 50.466464 
L 188.719185 53.543107 
L 187.246108 54.460354 
L 185.295936 54.545577 
L 181.637623 53.679907 
L 177.805186 54.10601 
L 175.982124 53.926597 
L 174.220004 53.296422 
L 171.763136 51.693033 
L 171.049233 51.076376 
L 170.411945 50.35435 
L 169.896542 49.48212 
L 169.142592 48.497821 
L 168.245861 48.179447 
L 166.125049 48.071829 
L 165.149963 47.715347 
L 164.254973 47.074143 
L 163.631299 46.342891 
L 161.702338 44.081361 
L 160.932716 43.736153 
L 158.74922 44.426575 
L 156.252303 44.796453 
L 153.790211 44.426575 
L 151.537066 43.227318 
L 149.656543 41.113651 
L 148.298388 38.726781 
L 147.57752 38.166521 
L 146.19847 37.834854 
L 144.9622 37.3284 
L 142.709055 35.589516 
L 141.695662 35.215315 
L 139.115167 34.950915 
L 136.837645 34.200303 
L 132.432345 31.368382 
L 132.421898 31.359421 
L 132.407968 31.345979 
L 132.397521 31.341499 
L 129.050886 28.288201 
L 126.024637 24.715752 
L 124.171974 23.199604 
L 122.632731 23.97894 
L 121.22831 25.811119 
L 119.703991 27.799893 
L 118.760247 29.72631 
L 118.506028 35.089837 
L 118.098581 37.487506 
L 116.712566 39.759938 
L 114.776324 41.38037 
L 112.56845 42.409172 
L 110.374507 42.917988 
L 107.89152 42.922471 
L 100.540068 40.950036 
L 98.436668 40.833488 
L 96.859118 41.57985 
L 95.302463 42.649009 
L 93.275677 43.503029 
L 92.175223 43.642007 
L 87.630626 43.08386 
L 86.780908 43.110758 
L 83.754659 44.3257 
L 79.056834 44.895088 
L 78.276765 45.437589 
L 78.008617 46.66163 
L 77.894435 52.815023 
L 77.869318 54.168805 
L 77.74395 60.35274 
L 77.291232 60.772243 
L 74.766456 60.745323 
L 72.970016 60.724282 
L 68.637343 60.673536 
L 59.854605 60.574829 
L 44.946236 60.404336 
L 34.707833 60.287684 
L 23.6023 60.159816 
L 20.670077 60.123923 
L 18.319423 60.785703 
L 17.323443 62.908022 
L 17.111013 63.742648 
L 16.045383 65.066448 
L 15.617042 65.775498 
L 15.373271 66.747115 
z
" clip-path="url(#p01a7d32740)" style="stroke: #000000; stroke-linejoin: miter"/>
   </g>
   <g id="line2d_1">
    <path d="M 15.270414 68.747341 
L 14.244874 67.634118 
L 13.202881 67.185311 
L 13.041098 66.570425 
L 13.797914 64.602198 
L 13.67452 63.291323 
L 12.366545 59.002377 
L 12.317187 57.970895 
L 12.481712 53.909026 
L 12.325413 52.778902 
L 11.947005 51.627649 
L 10.795329 49.967974 
L 10.499184 48.816871 
L 11.025664 47.425741 
L 10.778877 46.97382 
L 10.145455 45.003837 
L 10.751456 44.085985 
L 11.475367 41.417378 
L 12.177341 40.859695 
L 12.999967 40.612625 
L 13.877434 40.002021 
L 14.645219 39.239673 
L 18.585597 33.131284 
L 20.313112 31.331919 
L 20.452958 32.220998 
L 20.831366 32.849021 
L 21.412688 33.328871 
L 22.103694 33.752277 
L 23.291018 32.961926 
L 24.48931 32.89136 
L 25.531303 33.406494 
L 26.249729 34.348588 
L 26.614427 35.911778 
L 25.874063 36.179967 
L 24.763518 36.275245 
L 23.99025 37.309219 
L 25.037727 38.480882 
L 25.926163 40.965583 
L 26.40877 43.549413 
L 26.249729 45.003837 
L 28.73406 48.710944 
L 29.279735 49.205273 
L 32.688149 49.395946 
L 33.656105 49.745517 
L 34.536315 50.441145 
L 35.062796 51.048514 
L 35.753802 51.465207 
L 37.124845 51.627649 
L 37.777461 52.203268 
L 38.164096 53.555856 
L 38.194259 55.109848 
L 37.793914 56.314267 
L 39.118342 54.915593 
L 39.718859 54.87321 
L 40.599069 55.720879 
L 40.204208 54.841423 
L 38.715255 53.029643 
L 38.545246 51.927816 
L 38.073607 51.207421 
L 37.349696 50.886076 
L 36.411902 50.984951 
L 36.411902 50.391709 
L 38.394431 50.441145 
L 39.318514 50.264588 
L 40.138398 49.745517 
L 40.804725 51.482864 
L 41.577994 51.097952 
L 42.49385 49.893822 
L 43.590685 49.205273 
L 44.843819 48.732129 
L 47.328149 46.656069 
L 48.674514 46.186511 
L 50.550101 46.924392 
L 50.835278 48.643857 
L 50.544617 50.63536 
L 50.72011 52.164422 
L 51.926628 52.584668 
L 53.560912 51.966662 
L 55.864265 50.391709 
L 55.864265 49.745517 
L 55.123901 49.847918 
L 54.432896 50.144529 
L 53.810442 50.624766 
L 53.267509 51.302766 
L 52.628603 51.896034 
L 52.343426 51.387518 
L 51.855334 47.192718 
L 51.095776 46.631355 
L 50.879151 46.105311 
L 50.72011 44.707296 
L 50.933993 43.115223 
L 51.487895 42.035082 
L 54.690652 38.516174 
L 54.904534 37.605658 
L 55.195196 37.182175 
L 55.853296 37.333922 
L 56.952873 37.895042 
L 66.404846 38.540878 
L 70.013432 37.464496 
L 71.29947 37.309219 
L 72.755518 37.457438 
L 73.38894 37.309219 
L 73.890742 37.033958 
L 74.729821 36.123506 
L 76.199579 36.010584 
L 80.545786 36.656363 
L 81.93054 36.469332 
L 85.857208 34.937858 
L 86.493372 34.479143 
L 87.754732 33.335927 
L 88.385412 33.103058 
L 89.043513 33.392381 
L 90.003243 34.648514 
L 90.661344 34.937858 
L 91.610106 34.916687 
L 92.31208 34.775543 
L 92.953728 34.429744 
L 93.716029 33.752277 
L 94.300093 32.89136 
L 95.369507 30.781556 
L 96.019381 30.199456 
L 96.825555 30.16065 
L 97.664633 30.492268 
L 98.429675 31.028512 
L 99.030192 31.628275 
L 99.726682 32.023422 
L 100.450593 31.871713 
L 101.144341 31.522433 
L 101.772279 31.331919 
L 103.050091 31.787038 
L 103.872717 32.856077 
L 104.508882 34.055723 
L 105.221824 34.937858 
L 107.541629 35.897663 
L 110.497599 36.130563 
L 112.907893 34.874343 
L 113.585188 31.331919 
L 113.086128 31.331919 
L 112.95725 32.633797 
L 112.463675 33.787561 
L 111.758959 34.620285 
L 111.015853 34.937858 
L 109.749009 34.750842 
L 107.43743 33.935755 
L 106.392695 33.752277 
L 105.430223 33.321814 
L 104.319678 32.319787 
L 102.688136 30.471101 
L 102.095845 30.118316 
L 101.49807 30.259429 
L 100.371073 30.739221 
L 99.76233 30.55577 
L 98.547585 29.553874 
L 97.615276 29.285769 
L 96.852976 28.784844 
L 95.970024 28.544969 
L 94.642854 29.014139 
L 93.957332 29.694983 
L 92.967439 31.388368 
L 92.295628 31.924635 
L 91.143951 31.995197 
L 89.331432 30.915618 
L 88.155077 30.739221 
L 86.93759 31.088488 
L 83.970653 33.103058 
L 81.565843 34.027495 
L 59.977395 36.158794 
L 57.844051 35.195449 
L 56.516881 34.937858 
L 55.250037 35.283665 
L 54.032551 36.116448 
L 52.140511 37.895042 
L 49.316162 41.495031 
L 48.674514 42.098618 
L 48.159001 42.384533 
L 47.659942 42.914016 
L 47.149914 43.161113 
L 46.574075 42.631624 
L 46.535686 41.992724 
L 46.859252 40.07614 
L 46.574075 39.080854 
L 45.436109 40.393794 
L 45.296263 41.113827 
L 45.69935 42.098618 
L 44.736877 42.631624 
L 44.736877 43.224652 
L 45.057701 43.348202 
L 45.69935 43.768277 
L 44.366696 44.629631 
L 42.071569 45.053261 
L 39.740795 45.148579 
L 38.295716 45.003837 
L 33.072041 43.390562 
L 30.892082 43.224652 
L 31.300653 42.45866 
L 32.126021 40.316145 
L 32.274094 39.405552 
L 32.126021 38.202077 
L 31.031928 35.220149 
L 29.789763 34.048666 
L 29.36474 33.088944 
L 28.695671 32.573818 
L 28.553082 32.249224 
L 28.553082 30.471101 
L 29.12892 26.830648 
L 29.052142 25.462113 
L 28.670992 24.319383 
L 28.226207 23.464687 
L 98.527212 23.7953 
L 99.585877 23.347407 
L 99.721692 19.905661 
L 99.968946 18.14134 
L 100.498279 16.236131 
L 101.194769 14.422873 
L 101.943495 12.947758 
L 104.043413 10.098551 
L 106.892057 7.471271 
L 110.012332 5.987698 
L 112.930625 6.573954 
L 113.560949 7.325818 
L 114.866867 9.503244 
L 115.437989 10.044839 
L 116.872759 9.617381 
L 121.950171 5.542423 
L 126.863908 3.273683 
L 128.305642 3.363175 
L 132.317424 5.27392 
L 139.122132 5.658775 
L 141.584224 6.685837 
L 143.962737 9.102652 
L 144.815938 10.579733 
L 145.418401 12.175546 
L 146.727803 17.796554 
L 147.194451 18.457026 
L 149.962999 20.56396 
L 150.906743 20.991642 
L 151.739048 20.655765 
L 155.876199 17.747299 
L 158.60644 16.827153 
L 161.37847 17.091327 
L 164.272386 18.792868 
L 165.576563 20.107179 
L 166.487224 21.542491 
L 167.127995 23.199604 
L 168.028208 26.964421 
L 168.465256 28.126924 
L 169.146075 29.061004 
L 174.58392 33.95832 
L 176.203259 34.915064 
L 177.434305 35.130169 
L 178.602668 34.776143 
L 182.560472 32.997139 
L 186.2954 30.066811 
L 187.573459 29.370134 
L 191.461614 28.263561 
L 194.578407 26.254407 
L 195.945269 25.824378 
L 196.669618 25.793023 
L 197.841463 25.918446 
L 198.544917 25.779584 
L 199.337175 25.336128 
L 200.70926 24.321588 
L 201.612956 24.137946 
L 203.028572 24.447003 
L 204.740196 25.197269 
L 206.357794 26.232009 
L 207.486108 27.389992 
L 207.834353 28.144843 
L 208.264436 29.789033 
L 208.755688 30.671215 
L 209.229074 31.180198 
L 210.75787 32.316048 
L 211.438689 33.024024 
L 213.054545 37.124477 
L 212.795103 41.561919 
L 210.876273 45.244798 
L 207.538345 47.083111 
L 202.447003 47.634635 
L 199.741139 48.551632 
L 197.024828 48.591989 
L 194.132653 49.912625 
L 192.966033 49.894687 
L 191.956122 50.466464 
L 188.719185 53.543107 
L 187.246108 54.460354 
L 185.295936 54.545577 
L 181.637623 53.679907 
L 177.805186 54.10601 
L 175.982124 53.926597 
L 174.220004 53.296422 
L 171.763136 51.693033 
L 171.049233 51.076376 
L 170.411945 50.35435 
L 169.896542 49.48212 
L 169.142592 48.497821 
L 168.245861 48.179447 
L 166.125049 48.071829 
L 165.149963 47.715347 
L 164.254973 47.074143 
L 161.702338 44.081361 
L 160.932716 43.736153 
L 158.74922 44.426575 
L 156.252303 44.796453 
L 153.790211 44.426575 
L 151.537066 43.227318 
L 149.656543 41.113651 
L 148.298388 38.726781 
L 147.57752 38.166521 
L 146.19847 37.834854 
L 144.9622 37.3284 
L 142.709055 35.589516 
L 141.695662 35.215315 
L 139.115167 34.950915 
L 136.837645 34.200303 
L 132.397521 31.341499 
L 129.050886 28.288201 
L 126.024637 24.715752 
L 124.171974 23.199604 
L 122.632731 23.97894 
L 119.703991 27.799893 
L 118.760247 29.72631 
L 118.506028 35.089837 
L 118.098581 37.487506 
L 116.712566 39.759938 
L 114.776324 41.38037 
L 112.56845 42.409172 
L 110.374507 42.917988 
L 107.89152 42.922471 
L 100.540068 40.950036 
L 98.436668 40.833488 
L 96.859118 41.57985 
L 95.302463 42.649009 
L 93.275677 43.503029 
L 92.175223 43.642007 
L 87.630626 43.08386 
L 86.780908 43.110758 
L 83.754659 44.3257 
L 79.056834 44.895088 
L 78.276765 45.437589 
L 78.008617 46.66163 
L 77.74395 60.35274 
L 77.291232 60.772243 
L 20.670077 60.123923 
L 18.319423 60.785703 
L 17.323443 62.908022 
L 17.111013 63.742648 
L 15.617042 65.775498 
L 15.373271 66.747115 
L 15.270414 68.747341 
L 15.270414 68.747341 
" clip-path="url(#p01a7d32740)" style="fill: none; stroke: #000000; stroke-width: 0.5; stroke-linecap: square"/>
   </g>
  </g>
 </g>
 <defs>
  <clipPath id="p01a7d32740">
   <rect x="0" y="0" width="223.2" height="72.021024"/>
  </clipPath>
 </defs>
</svg>
