<?xml version="1.0" encoding="utf-8" standalone="no"?>
<!DOCTYPE svg PUBLIC "-//W3C//DTD SVG 1.1//EN"
  "http://www.w3.org/Graphics/SVG/1.1/DTD/svg11.dtd">
<svg xmlns:xlink="http://www.w3.org/1999/xlink" width="223.2pt" height="82.853046pt" viewBox="0 0 223.2 82.853046" xmlns="http://www.w3.org/2000/svg" version="1.1">
 <metadata>
  <rdf:RDF xmlns:dc="http://purl.org/dc/elements/1.1/" xmlns:cc="http://creativecommons.org/ns#" xmlns:rdf="http://www.w3.org/1999/02/22-rdf-syntax-ns#">
   <cc:Work>
    <dc:type rdf:resource="http://purl.org/dc/dcmitype/StillImage"/>
    <dc:date>2026-04-26T19:21:56.842061</dc:date>
    <dc:format>image/svg+xml</dc:format>
    <dc:creator>
     <cc:Agent>
      <dc:title>Matplotlib v3.10.9, https://matplotlib.org/</dc:title>
     </cc:Agent>
    </dc:creator>
   </cc:Work>
  </rdf:RDF>
 </metadata>
 <defs>
  <style type="text/css">*{stroke-linejoin: round; stroke-linecap: butt}</style>
 </defs>
 <g id="figure_1">
  <g id="patch_1">
   <path d="M 0 82.853046 
L 223.2 82.853046 
L 223.2 0 
L 0 0 
z
" style="fill: #ffffff"/>
  </g>
  <g id="axes_1">
   <g id="patch_2">
    <path d="M 57.485634 38.184936 
L 55.942485 31.242656 
L 55.415755 30.068758 
L 54.647813 29.079645 
L 53.648505 28.305087 
L 52.412906 27.791699 
L 50.10908 27.485176 
L 49.61681 27.286865 
L 49.129462 26.963603 
L 48.398441 26.670433 
L 47.630499 26.461398 
L 47.025006 26.398932 
L 46.673033 26.47341 
L 46.065079 26.74252 
L 45.681108 26.800191 
L 45.358671 26.658419 
L 43.982775 25.154859 
L 43.288674 23.339487 
L 42.033385 21.772722 
L 41.514039 20.929356 
L 40.765788 20.944926 
L 39.574494 21.329428 
L 38.811475 21.142557 
L 37.91062 20.153418 
L 37.383891 19.923573 
L 37.374045 19.772753 
L 36.665176 18.8992 
L 36.458422 18.779568 
L 34.253051 18.158802 
L 31.223127 17.861053 
L 29.812772 17.914859 
L 28.838076 18.090638 
L 28.468874 18.115751 
L 28.109516 18.022477 
L 27.528637 17.60639 
L 27.220968 17.514338 
L 27.085594 17.434244 
L 26.56871 17.039803 
L 26.302884 16.892807 
L 26.002599 16.813935 
L 25.042672 16.694439 
L 22.615779 15.862966 
L 21.493402 15.771002 
L 20.705769 16.493704 
L 20.400562 16.259541 
L 19.955057 15.47006 
L 19.674463 15.090371 
L 18.987746 14.596178 
L 18.687461 14.277531 
L 18.820374 13.35055 
L 18.347794 12.488418 
L 17.683229 11.697002 
L 17.195882 11.269257 
L 16.263029 10.960724 
L 14.606539 10.608179 
L 13.634305 9.918773 
L 13.198646 9.768782 
L 11.803059 9.608091 
L 10.865284 9.334354 
L 10.145455 9.222311 
L 10.306004 8.715607 
L 12.359731 4.951456 
L 12.772352 4.488653 
L 13.494439 4.151049 
L 15.538789 3.766048 
L 17.62065 3.768308 
L 25.082214 5.723563 
L 26.285692 5.827642 
L 27.229719 5.65041 
L 29.186543 4.93261 
L 30.286865 4.841398 
L 31.168374 5.15953 
L 31.437674 5.303634 
L 32.956399 6.116531 
L 36.057308 6.872539 
L 37.032594 7.274062 
L 41.171309 9.619333 
L 42.099706 9.782596 
L 45.25063 9.489338 
L 46.282183 9.640496 
L 47.260595 9.988964 
L 48.192118 10.532588 
L 49.245552 10.854757 
L 51.408687 10.557543 
L 52.327706 10.808621 
L 52.602787 11.098312 
L 53.027912 11.782259 
L 53.309244 12.081945 
L 53.746873 12.318854 
L 55.325461 12.669354 
L 56.12257 13.004777 
L 57.466714 13.987175 
L 58.282578 14.309202 
L 59.389153 14.375888 
L 61.605428 14.16523 
L 62.705751 14.25237 
L 64.675079 14.653266 
L 65.625357 14.72148 
L 67.732226 14.551707 
L 68.619986 14.583539 
L 69.495243 14.755588 
L 70.445522 15.09064 
L 71.402052 15.290032 
L 72.371086 15.327942 
L 73.336995 15.189954 
L 75.727633 14.244635 
L 75.893995 14.178869 
L 76.666096 14.010662 
L 81.783223 13.701566 
L 82.025452 13.725721 
L 83.849454 13.907624 
L 85.568708 14.731334 
L 86.365817 15.299131 
L 87.237948 15.782921 
L 89.082239 16.517953 
L 89.666785 16.607481 
L 90.095036 16.481535 
L 90.907774 15.93764 
L 91.432928 15.758653 
L 92.380081 15.742727 
L 93.78987 15.434094 
L 94.993348 15.456841 
L 96.156189 15.674474 
L 97.000187 16.065065 
L 97.850436 16.640866 
L 98.728819 17.04912 
L 101.3077 17.733036 
L 101.310826 18.124068 
L 101.079508 18.610128 
L 100.995109 19.084921 
L 101.270189 19.392653 
L 102.764378 20.135221 
L 106.010643 22.330479 
L 106.604682 22.563846 
L 107.182861 22.79101 
L 112.98488 23.966371 
L 115.810392 24.539029 
L 116.954478 24.745549 
L 119.036339 25.478082 
L 119.542737 25.79756 
L 120.793104 26.866954 
L 121.352643 27.124861 
L 124.169095 27.618646 
L 124.972442 27.911551 
L 125.519491 28.111035 
L 125.85709 28.973984 
L 125.16001 29.689085 
L 124.10345 30.233998 
L 123.253201 30.833357 
L 123.159423 31.707513 
L 124.022177 32.481057 
L 125.385076 32.745099 
L 126.862072 32.827763 
L 128.082743 33.059702 
L 128.772281 33.442763 
L 129.154932 33.655373 
L 129.726975 33.859843 
L 130.292766 33.794747 
L 130.739772 33.510649 
L 131.489992 32.758876 
L 131.897924 32.434375 
L 133.215498 31.990573 
L 136.111661 31.891115 
L 137.169617 31.658928 
L 137.519886 31.582062 
L 137.942297 31.270364 
L 138.510802 30.850944 
L 139.070341 30.016931 
L 139.776798 29.414014 
L 142.458835 29.373521 
L 143.690446 29.084746 
L 146.044262 28.175169 
L 146.917956 27.998041 
L 148.435589 27.914827 
L 149.726592 28.032396 
L 150.869294 28.297585 
L 150.980085 28.323298 
L 152.099163 28.784559 
L 152.571177 29.064121 
L 153.462063 29.749453 
L 153.821544 30.148391 
L 154.568638 31.874284 
L 154.943748 32.158134 
L 155.211014 31.950789 
L 155.70022 30.320374 
L 156.575476 28.953361 
L 156.764594 28.476785 
L 157.541385 27.72551 
L 158.860522 27.91559 
L 162.16149 29.62337 
L 162.696022 29.816701 
L 163.249309 29.901529 
L 163.821352 29.825871 
L 164.094245 29.738416 
L 164.937305 29.468261 
L 165.514036 29.41707 
L 166.494011 29.683736 
L 167.366142 30.228648 
L 170.345141 32.846899 
L 170.676488 33.246499 
L 170.91612 33.63364 
L 171.248531 34.170803 
L 171.554871 34.514758 
L 172.561416 34.815865 
L 173.849294 34.684843 
L 176.290635 34.15242 
L 178.031771 34.181527 
L 180.56689 34.507097 
L 182.926957 35.182929 
L 184.16482 36.254644 
L 184.161504 36.278944 
L 184.067917 36.964857 
L 180.588771 43.598944 
L 180.891985 44.293428 
L 181.804753 44.724721 
L 183.020735 45.140702 
L 186.342021 46.848713 
L 188.452015 47.250502 
L 188.869325 47.553634 
L 189.725827 49.114016 
L 190.047796 49.446783 
L 190.454165 49.613574 
L 191.023082 49.639058 
L 191.23877 49.576508 
L 191.638888 49.344862 
L 191.89365 49.298536 
L 192.08902 49.372658 
L 192.595418 49.699292 
L 192.848618 49.796598 
L 193.395653 49.768796 
L 193.808274 49.690797 
L 194.105236 49.840619 
L 194.308421 50.493328 
L 195.039886 50.745201 
L 195.968283 50.7622 
L 197.743804 50.491783 
L 197.753182 50.488692 
L 197.762559 50.48483 
L 198.018885 50.433069 
L 198.27521 50.4153 
L 198.529972 50.433069 
L 198.825371 50.493328 
L 199.616228 50.964651 
L 200.936928 52.134184 
L 201.798118 52.421844 
L 203.595521 52.534755 
L 204.336363 52.840265 
L 205.072516 53.576781 
L 203.919053 55.337195 
L 203.270425 56.116496 
L 201.970044 57.294561 
L 201.529289 57.587637 
L 201.046335 57.762884 
L 200.416463 57.807861 
L 199.000422 57.567477 
L 198.340854 57.621755 
L 197.756308 58.083176 
L 197.470286 59.111877 
L 197.484353 60.63575 
L 197.870403 61.988273 
L 198.684705 62.495807 
L 198.950408 62.332574 
L 199.100452 62.055108 
L 199.300511 61.828191 
L 199.719383 61.815757 
L 199.788154 61.983611 
L 200.460226 62.944379 
L 200.504887 63.161708 
L 200.746247 64.336613 
L 201.015076 64.991846 
L 201.535541 65.493145 
L 203.117255 66.31231 
L 203.470484 66.43537 
L 204.086289 66.54909 
L 205.50233 67.537016 
L 208.446944 68.470854 
L 209.931754 69.136813 
L 210.41002 69.979328 
L 210.878907 69.840444 
L 211.089746 69.945696 
L 211.125855 69.963722 
L 211.329039 70.222787 
L 211.913586 70.716039 
L 212.863865 71.812244 
L 213.054545 72.252769 
L 212.960768 72.290265 
L 212.710695 72.262143 
L 212.444992 72.498067 
L 212.385599 72.730894 
L 212.352777 73.260716 
L 212.288696 73.45924 
L 212.110518 73.651529 
L 211.710401 73.934526 
L 211.532224 74.12217 
L 211.238388 74.93706 
L 211.078966 75.976093 
L 210.825767 76.94989 
L 210.657185 77.129643 
L 210.24122 77.573241 
L 209.647296 77.645299 
L 209.072127 77.526248 
L 208.479766 77.482389 
L 207.840516 77.786289 
L 207.499791 78.271999 
L 207.330991 78.74842 
L 207.065288 79.065052 
L 206.404157 79.086998 
L 205.86181 78.834627 
L 205.01625 77.969592 
L 204.520792 77.639033 
L 202.720264 77.194195 
L 202.091954 76.910741 
L 200.310182 75.686549 
L 199.431799 74.855712 
L 198.953534 74.502202 
L 198.409624 74.358313 
L 196.13552 74.366133 
L 195.461884 74.483433 
L 194.689873 74.858179 
L 193.8958 75.243706 
L 193.29875 75.409566 
L 192.567285 75.459639 
L 191.107482 75.323505 
L 186.618665 74.097149 
L 185.093977 73.392256 
L 184.511797 73.123168 
L 183.26143 72.315262 
L 182.539343 71.453022 
L 183.211416 70.822198 
L 183.905369 70.636424 
L 184.336746 70.458472 
L 184.299235 70.27117 
L 183.592777 70.058917 
L 181.62345 69.757743 
L 177.275299 68.483329 
L 176.290635 67.786412 
L 175.853007 67.409212 
L 175.406001 67.348431 
L 174.405707 67.577541 
L 173.796153 67.618066 
L 173.325703 67.547926 
L 171.869575 66.98199 
L 171.304798 66.762528 
L 170.315445 66.723578 
L 169.344848 66.977546 
L 164.754051 69.831479 
L 161.867654 71.62794 
L 161.492544 71.80912 
L 160.807968 72.276204 
L 160.43911 72.466817 
L 159.291898 72.494942 
L 156.372292 72.144972 
L 155.784619 72.593383 
L 156.034693 73.020013 
L 157.169401 73.432664 
L 157.373854 73.652056 
L 157.49137 73.778169 
L 157.191282 74.094022 
L 156.397299 74.175338 
L 151.963186 74.106532 
L 150.698752 73.726574 
L 150.086073 73.664037 
L 149.435882 73.886054 
L 149.045142 74.278553 
L 148.676284 74.758725 
L 148.230841 75.059087 
L 147.610346 74.924544 
L 147.444673 74.694591 
L 147.335266 74.3849 
L 147.175844 74.156573 
L 146.850749 74.164392 
L 146.653816 74.278553 
L 146.044262 74.79314 
L 145.309672 74.954268 
L 144.629785 74.918287 
L 143.968653 74.735262 
L 142.35568 73.995508 
L 141.982133 73.962671 
L 141.624215 74.050237 
L 141.377268 74.217562 
L 141.160017 74.406796 
L 140.880247 74.550689 
L 140.169101 74.639845 
L 139.609562 74.478741 
L 138.146633 73.71094 
L 137.326079 73.45455 
L 137.00411 73.457676 
L 136.644629 73.649966 
L 136.566482 73.875109 
L 136.546163 74.131552 
L 136.39143 74.427128 
L 135.916291 74.785318 
L 135.322367 75.027797 
L 134.684679 75.11541 
L 133.403054 74.843198 
L 132.799752 74.891692 
L 131.58377 75.306293 
L 130.89022 75.434699 
L 130.877181 75.437113 
L 130.214618 75.559789 
L 127.413797 75.605172 
L 126.116541 76.013658 
L 124.706752 76.953022 
L 124.114391 77.142513 
L 123.375112 77.189497 
L 118.442415 76.663338 
L 117.157663 76.700916 
L 115.524371 77.205159 
L 115.227409 77.255276 
L 114.928884 77.250578 
L 114.62567 77.192629 
L 114.969521 76.405006 
L 114.539707 75.689679 
L 113.72228 75.11541 
L 112.897038 74.750904 
L 111.943633 74.556945 
L 111.062124 74.603869 
L 108.280058 75.192074 
L 107.843993 74.952704 
L 107.11878 73.607754 
L 106.507663 73.08253 
L 105.912176 73.027827 
L 105.246356 73.084093 
L 104.42424 72.887169 
L 106.060657 72.254331 
L 106.502974 71.963761 
L 106.910907 71.526423 
L 106.87027 71.370254 
L 105.985635 71.282805 
L 105.052549 70.948659 
L 103.592746 69.984009 
L 101.367093 68.842017 
L 100.929464 68.480211 
L 100.026074 67.203497 
L 99.791631 67.002478 
L 99.522802 66.923011 
L 99.375884 66.804595 
L 99.253973 66.667491 
L 99.069544 66.538185 
L 98.178657 66.31231 
L 97.94734 66.209507 
L 97.697266 65.869981 
L 97.528467 65.494702 
L 97.312778 65.298527 
L 96.906409 65.491588 
L 96.162441 66.133186 
L 95.593524 65.993014 
L 95.018355 65.519615 
L 94.243128 65.173981 
L 94.496327 64.875102 
L 95.093377 64.496899 
L 95.337199 64.277481 
L 95.462236 64.009855 
L 95.524754 63.711153 
L 95.624783 63.40783 
L 95.859227 63.126325 
L 95.284058 62.919499 
L 91.051567 62.647393 
L 89.526119 62.743792 
L 88.932023 62.890949 
L 88.802998 62.922909 
L 88.760269 62.933494 
L 88.153842 63.283403 
L 87.844376 63.788936 
L 87.559917 65.015196 
L 87.256703 65.500931 
L 86.600261 66.021047 
L 85.693745 67.047666 
L 85.065435 67.35934 
L 84.70131 67.373477 
L 84.302712 67.388952 
L 78.998031 65.837278 
L 77.510094 65.901128 
L 76.784881 65.855966 
L 76.281609 65.500931 
L 75.850232 65.307868 
L 75.390722 65.29697 
L 74.440443 65.500931 
L 74.009067 65.354575 
L 73.583942 65.30164 
L 73.158818 65.34679 
L 72.721189 65.500931 
L 71.652125 65.754743 
L 69.485865 65.136619 
L 68.269883 65.500931 
L 67.854136 65.740728 
L 66.906983 66.757854 
L 65.694128 67.535457 
L 65.403417 67.66171 
L 65.034559 67.544809 
L 63.831081 66.704882 
L 63.430964 66.605174 
L 62.546329 66.522607 
L 62.193101 66.415119 
L 62.064938 66.225083 
L 62.07119 65.978997 
L 62.105575 65.753186 
L 62.064938 65.63484 
L 61.83362 65.633283 
L 61.074022 65.893341 
L 60.170632 65.946292 
L 59.786144 65.891784 
L 56.565207 64.876169 
L 58.546595 62.212235 
L 59.437604 61.312822 
L 61.261466 60.424825 
L 61.770966 59.520118 
L 63.188705 57.79011 
L 63.267468 57.437211 
L 63.26993 57.166168 
L 63.314234 56.928121 
L 63.498835 56.662032 
L 63.991106 56.161686 
L 64.158478 55.910341 
L 64.222473 55.63951 
L 64.222473 53.212259 
L 64.222473 53.083118 
L 63.860654 51.19937 
L 63.808966 50.520355 
L 63.67113 50.106736 
L 62.447838 48.524851 
L 61.529754 47.342631 
L 61.209778 47.145867 
L 60.899648 46.894476 
L 60.751966 46.326235 
L 60.692894 45.310378 
L 60.44922 43.964014 
L 58.84688 39.8798 
L 58.728735 39.701951 
L 58.514597 39.480571 
L 57.702351 38.88793 
L 57.596513 38.678736 
z
" clip-path="url(#p3527bd6eb7)" style="stroke: #000000; stroke-linejoin: miter"/>
   </g>
   <g id="line2d_1">
    <path d="M 57.485634 38.184936 
L 55.942485 31.242656 
L 55.415755 30.068758 
L 54.647813 29.079645 
L 53.648505 28.305087 
L 52.412906 27.791699 
L 50.10908 27.485176 
L 49.61681 27.286865 
L 49.129462 26.963603 
L 47.630499 26.461398 
L 46.673033 26.47341 
L 45.681108 26.800191 
L 45.358671 26.658419 
L 43.982775 25.154859 
L 43.288674 23.339487 
L 42.033385 21.772722 
L 41.514039 20.929356 
L 40.765788 20.944926 
L 39.574494 21.329428 
L 38.811475 21.142557 
L 37.91062 20.153418 
L 37.383891 19.923573 
L 37.374045 19.772753 
L 36.458422 18.779568 
L 34.253051 18.158802 
L 31.223127 17.861053 
L 29.812772 17.914859 
L 28.468874 18.115751 
L 28.109516 18.022477 
L 27.220968 17.514338 
L 26.002599 16.813935 
L 25.042672 16.694439 
L 22.615779 15.862966 
L 21.493402 15.771002 
L 20.705769 16.493704 
L 20.400562 16.259541 
L 19.674463 15.090371 
L 18.687461 14.277531 
L 18.820374 13.35055 
L 18.347794 12.488418 
L 17.195882 11.269257 
L 16.263029 10.960724 
L 14.606539 10.608179 
L 13.634305 9.918773 
L 13.198646 9.768782 
L 11.803059 9.608091 
L 10.145455 9.222311 
L 10.306004 8.715607 
L 12.359731 4.951456 
L 12.772352 4.488653 
L 13.494439 4.151049 
L 15.538789 3.766048 
L 17.62065 3.768308 
L 25.082214 5.723563 
L 26.285692 5.827642 
L 27.229719 5.65041 
L 29.186543 4.93261 
L 30.286865 4.841398 
L 31.437674 5.303634 
L 32.956399 6.116531 
L 36.057308 6.872539 
L 37.032594 7.274062 
L 41.171309 9.619333 
L 42.099706 9.782596 
L 45.25063 9.489338 
L 46.282183 9.640496 
L 47.260595 9.988964 
L 48.192118 10.532588 
L 49.245552 10.854757 
L 51.408687 10.557543 
L 52.327706 10.808621 
L 52.602787 11.098312 
L 53.309244 12.081945 
L 53.746873 12.318854 
L 55.325461 12.669354 
L 56.12257 13.004777 
L 57.466714 13.987175 
L 58.282578 14.309202 
L 59.389153 14.375888 
L 61.605428 14.16523 
L 62.705751 14.25237 
L 64.675079 14.653266 
L 65.625357 14.72148 
L 68.619986 14.583539 
L 69.495243 14.755588 
L 70.445522 15.09064 
L 71.402052 15.290032 
L 72.371086 15.327942 
L 73.336995 15.189954 
L 75.893995 14.178869 
L 76.666096 14.010662 
L 82.025452 13.725721 
L 83.849454 13.907624 
L 85.568708 14.731334 
L 86.365817 15.299131 
L 87.237948 15.782921 
L 89.082239 16.517953 
L 89.666785 16.607481 
L 90.095036 16.481535 
L 90.907774 15.93764 
L 91.432928 15.758653 
L 92.380081 15.742727 
L 93.78987 15.434094 
L 94.993348 15.456841 
L 96.156189 15.674474 
L 97.000187 16.065065 
L 97.850436 16.640866 
L 98.728819 17.04912 
L 101.3077 17.733036 
L 101.310826 18.124068 
L 101.079508 18.610128 
L 100.995109 19.084921 
L 101.270189 19.392653 
L 102.764378 20.135221 
L 106.010643 22.330479 
L 107.182861 22.79101 
L 116.954478 24.745549 
L 119.036339 25.478082 
L 119.542737 25.79756 
L 120.793104 26.866954 
L 121.352643 27.124861 
L 124.169095 27.618646 
L 125.519491 28.111035 
L 125.85709 28.973984 
L 125.16001 29.689085 
L 124.10345 30.233998 
L 123.253201 30.833357 
L 123.159423 31.707513 
L 124.022177 32.481057 
L 125.385076 32.745099 
L 126.862072 32.827763 
L 128.082743 33.059702 
L 129.726975 33.859843 
L 130.292766 33.794747 
L 130.739772 33.510649 
L 131.897924 32.434375 
L 133.215498 31.990573 
L 136.111661 31.891115 
L 137.519886 31.582062 
L 138.510802 30.850944 
L 139.070341 30.016931 
L 139.776798 29.414014 
L 142.458835 29.373521 
L 143.690446 29.084746 
L 146.044262 28.175169 
L 146.917956 27.998041 
L 148.435589 27.914827 
L 149.726592 28.032396 
L 150.980085 28.323298 
L 152.571177 29.064121 
L 153.821544 30.148391 
L 154.568638 31.874284 
L 154.943748 32.158134 
L 155.211014 31.950789 
L 155.70022 30.320374 
L 156.764594 28.476785 
L 157.541385 27.72551 
L 158.860522 27.91559 
L 162.696022 29.816701 
L 163.249309 29.901529 
L 164.094245 29.738416 
L 164.937305 29.468261 
L 165.514036 29.41707 
L 166.494011 29.683736 
L 167.366142 30.228648 
L 170.676488 33.246499 
L 171.554871 34.514758 
L 172.561416 34.815865 
L 173.849294 34.684843 
L 176.290635 34.15242 
L 178.031771 34.181527 
L 180.56689 34.507097 
L 182.926957 35.182929 
L 184.161504 36.278944 
L 184.067917 36.964857 
L 180.588771 43.598944 
L 180.891985 44.293428 
L 181.804753 44.724721 
L 183.020735 45.140702 
L 186.342021 46.848713 
L 188.452015 47.250502 
L 188.869325 47.553634 
L 189.725827 49.114016 
L 190.047796 49.446783 
L 190.454165 49.613574 
L 191.23877 49.576508 
L 191.89365 49.298536 
L 192.08902 49.372658 
L 192.848618 49.796598 
L 194.105236 49.840619 
L 194.308421 50.493328 
L 195.039886 50.745201 
L 195.968283 50.7622 
L 198.529972 50.433069 
L 198.825371 50.493328 
L 199.616228 50.964651 
L 200.936928 52.134184 
L 201.798118 52.421844 
L 203.595521 52.534755 
L 204.336363 52.840265 
L 205.072516 53.576781 
L 203.919053 55.337195 
L 203.270425 56.116496 
L 201.529289 57.587637 
L 201.046335 57.762884 
L 200.416463 57.807861 
L 199.000422 57.567477 
L 198.340854 57.621755 
L 197.756308 58.083176 
L 197.470286 59.111877 
L 197.484353 60.63575 
L 197.870403 61.988273 
L 198.684705 62.495807 
L 198.950408 62.332574 
L 199.300511 61.828191 
L 199.719383 61.815757 
L 199.788154 61.983611 
L 200.504887 63.161708 
L 200.746247 64.336613 
L 201.015076 64.991846 
L 201.535541 65.493145 
L 203.470484 66.43537 
L 204.086289 66.54909 
L 205.50233 67.537016 
L 208.446944 68.470854 
L 209.931754 69.136813 
L 210.41002 69.979328 
L 210.878907 69.840444 
L 211.125855 69.963722 
L 211.329039 70.222787 
L 211.913586 70.716039 
L 212.863865 71.812244 
L 213.054545 72.252769 
L 212.960768 72.290265 
L 212.710695 72.262143 
L 212.444992 72.498067 
L 212.110518 73.651529 
L 211.532224 74.12217 
L 211.238388 74.93706 
L 210.825767 76.94989 
L 210.24122 77.573241 
L 209.647296 77.645299 
L 208.479766 77.482389 
L 207.840516 77.786289 
L 207.499791 78.271999 
L 207.330991 78.74842 
L 207.065288 79.065052 
L 206.404157 79.086998 
L 205.86181 78.834627 
L 205.01625 77.969592 
L 204.520792 77.639033 
L 202.720264 77.194195 
L 202.091954 76.910741 
L 200.310182 75.686549 
L 198.953534 74.502202 
L 198.409624 74.358313 
L 196.13552 74.366133 
L 195.461884 74.483433 
L 193.8958 75.243706 
L 193.29875 75.409566 
L 192.567285 75.459639 
L 191.107482 75.323505 
L 186.618665 74.097149 
L 184.511797 73.123168 
L 183.26143 72.315262 
L 182.539343 71.453022 
L 183.211416 70.822198 
L 184.336746 70.458472 
L 184.299235 70.27117 
L 183.592777 70.058917 
L 181.62345 69.757743 
L 177.275299 68.483329 
L 175.853007 67.409212 
L 175.406001 67.348431 
L 173.796153 67.618066 
L 173.325703 67.547926 
L 171.304798 66.762528 
L 170.315445 66.723578 
L 169.344848 66.977546 
L 160.43911 72.466817 
L 159.291898 72.494942 
L 156.372292 72.144972 
L 155.784619 72.593383 
L 156.034693 73.020013 
L 157.169401 73.432664 
L 157.49137 73.778169 
L 157.191282 74.094022 
L 156.397299 74.175338 
L 151.963186 74.106532 
L 150.698752 73.726574 
L 150.086073 73.664037 
L 149.435882 73.886054 
L 148.230841 75.059087 
L 147.610346 74.924544 
L 147.175844 74.156573 
L 146.653816 74.278553 
L 146.044262 74.79314 
L 145.309672 74.954268 
L 144.629785 74.918287 
L 143.968653 74.735262 
L 142.35568 73.995508 
L 141.982133 73.962671 
L 141.377268 74.217562 
L 140.880247 74.550689 
L 140.169101 74.639845 
L 139.609562 74.478741 
L 138.146633 73.71094 
L 137.00411 73.457676 
L 136.644629 73.649966 
L 136.39143 74.427128 
L 135.916291 74.785318 
L 135.322367 75.027797 
L 134.684679 75.11541 
L 133.403054 74.843198 
L 132.799752 74.891692 
L 130.877181 75.437113 
L 130.214618 75.559789 
L 127.413797 75.605172 
L 126.116541 76.013658 
L 124.706752 76.953022 
L 124.114391 77.142513 
L 123.375112 77.189497 
L 118.442415 76.663338 
L 117.157663 76.700916 
L 115.227409 77.255276 
L 114.62567 77.192629 
L 114.969521 76.405006 
L 114.539707 75.689679 
L 113.72228 75.11541 
L 112.897038 74.750904 
L 111.943633 74.556945 
L 111.062124 74.603869 
L 108.280058 75.192074 
L 107.843993 74.952704 
L 107.11878 73.607754 
L 106.507663 73.08253 
L 105.912176 73.027827 
L 105.246356 73.084093 
L 104.42424 72.887169 
L 106.060657 72.254331 
L 106.502974 71.963761 
L 106.910907 71.526423 
L 106.87027 71.370254 
L 105.985635 71.282805 
L 105.052549 70.948659 
L 103.592746 69.984009 
L 101.367093 68.842017 
L 100.929464 68.480211 
L 99.791631 67.002478 
L 99.375884 66.804595 
L 99.069544 66.538185 
L 97.94734 66.209507 
L 97.312778 65.298527 
L 96.906409 65.491588 
L 96.162441 66.133186 
L 95.593524 65.993014 
L 95.018355 65.519615 
L 94.243128 65.173981 
L 94.496327 64.875102 
L 95.337199 64.277481 
L 95.859227 63.126325 
L 95.284058 62.919499 
L 91.051567 62.647393 
L 88.932023 62.890949 
L 88.760269 62.933494 
L 88.153842 63.283403 
L 87.844376 63.788936 
L 87.559917 65.015196 
L 87.256703 65.500931 
L 86.600261 66.021047 
L 85.693745 67.047666 
L 85.065435 67.35934 
L 84.302712 67.388952 
L 78.998031 65.837278 
L 76.784881 65.855966 
L 75.850232 65.307868 
L 75.390722 65.29697 
L 74.440443 65.500931 
L 73.583942 65.30164 
L 72.721189 65.500931 
L 71.652125 65.754743 
L 69.485865 65.136619 
L 67.854136 65.740728 
L 66.906983 66.757854 
L 65.403417 67.66171 
L 65.034559 67.544809 
L 63.831081 66.704882 
L 63.430964 66.605174 
L 62.193101 66.415119 
L 62.064938 66.225083 
L 62.064938 65.63484 
L 61.83362 65.633283 
L 61.074022 65.893341 
L 59.786144 65.891784 
L 56.565207 64.876169 
L 58.546595 62.212235 
L 59.437604 61.312822 
L 61.261466 60.424825 
L 61.770966 59.520118 
L 63.188705 57.79011 
L 63.498835 56.662032 
L 64.158478 55.910341 
L 64.222473 55.63951 
L 64.222473 53.083118 
L 63.67113 50.106736 
L 61.529754 47.342631 
L 60.899648 46.894476 
L 60.751966 46.326235 
L 60.692894 45.310378 
L 60.44922 43.964014 
L 58.728735 39.701951 
L 58.514597 39.480571 
L 57.596513 38.678736 
L 57.485634 38.184936 
L 57.485634 38.184936 
" clip-path="url(#p3527bd6eb7)" style="fill: none; stroke: #000000; stroke-width: 0.5; stroke-linecap: square"/>
   </g>
  </g>
 </g>
 <defs>
  <clipPath id="p3527bd6eb7">
   <rect x="0" y="-0" width="223.2" height="82.853046"/>
  </clipPath>
 </defs>
</svg>
