<?xml version="1.0" encoding="utf-8" standalone="no"?>
<!DOCTYPE svg PUBLIC "-//W3C//DTD SVG 1.1//EN"
  "http://www.w3.org/Graphics/SVG/1.1/DTD/svg11.dtd">
<svg xmlns:xlink="http://www.w3.org/1999/xlink" width="201.818476pt" height="221.76pt" viewBox="0 0 201.818476 221.76" xmlns="http://www.w3.org/2000/svg" version="1.1">
 <metadata>
  <rdf:RDF xmlns:dc="http://purl.org/dc/elements/1.1/" xmlns:cc="http://creativecommons.org/ns#" xmlns:rdf="http://www.w3.org/1999/02/22-rdf-syntax-ns#">
   <cc:Work>
    <dc:type rdf:resource="http://purl.org/dc/dcmitype/StillImage"/>
    <dc:date>2026-04-26T19:22:27.585918</dc:date>
    <dc:format>image/svg+xml</dc:format>
    <dc:creator>
     <cc:Agent>
      <dc:title>Matplotlib v3.10.9, https://matplotlib.org/</dc:title>
     </cc:Agent>
    </dc:creator>
   </cc:Work>
  </rdf:RDF>
 </metadata>
 <defs>
  <style type="text/css">*{stroke-linejoin: round; stroke-linecap: butt}</style>
 </defs>
 <g id="figure_1">
  <g id="patch_1">
   <path d="M 0 221.76 
L 201.818476 221.76 
L 201.818476 0 
L 0 0 
z
" style="fill: #ffffff"/>
  </g>
  <g id="axes_1">
   <g id="patch_2">
    <path d="M 106.230313 10.08 
L 97.929431 19.121682 
L 97.290892 23.53495 
L 110.274351 32.610824 
L 114.318388 31.911861 
L 120.278002 41.24233 
L 121.555079 46.150424 
L 127.727539 55.048404 
L 136.666999 60.444425 
L 141.775228 68.435422 
L 152.204572 75.736118 
L 151.778918 80.689706 
L 158.589917 88.723469 
L 169.01926 95.352124 
L 171.573375 102.466771 
L 171.999067 111.735164 
L 177.320143 114.829449 
L 183.492642 126.51417 
L 183.705488 133.924102 
L 192.644908 137.753883 
L 183.066949 152.628161 
L 181.36418 160.326208 
L 177.320143 167.073577 
L 176.894489 174.073314 
L 172.637606 177.214869 
L 170.934837 196.112686 
L 160.292647 194.413339 
L 151.353226 190.774158 
L 147.734881 194.170629 
L 149.224765 202.430249 
L 147.522035 211.436335 
L 142.839459 211.68 
L 140.923882 202.187094 
L 91.118432 198.784382 
L 37.907445 195.869881 
L 32.586369 183.020773 
L 28.329485 170.934076 
L 31.096446 159.36317 
L 27.265255 146.144061 
L 30.670793 138.711901 
L 30.457947 133.206411 
L 37.056099 127.708416 
L 32.586369 125.081541 
L 34.289099 120.78676 
L 30.032254 113.877091 
L 25.562525 101.754715 
L 15.984565 47.319996 
L 9.173567 10.7747 
L 59.191863 10.543118 
L 86.435857 10.7747 
z
" clip-path="url(#p0ada5f2e52)" style="stroke: #000000; stroke-linejoin: miter"/>
   </g>
   <g id="line2d_1">
    <path d="M 106.230313 10.08 
L 97.929431 19.121682 
L 97.290892 23.53495 
L 110.274351 32.610824 
L 114.318388 31.911861 
L 120.278002 41.24233 
L 121.555079 46.150424 
L 127.727539 55.048404 
L 136.666999 60.444425 
L 141.775228 68.435422 
L 152.204572 75.736118 
L 151.778918 80.689706 
L 158.589917 88.723469 
L 169.01926 95.352124 
L 171.573375 102.466771 
L 171.999067 111.735164 
L 177.320143 114.829449 
L 183.492642 126.51417 
L 183.705488 133.924102 
L 192.644908 137.753883 
L 183.066949 152.628161 
L 181.36418 160.326208 
L 177.320143 167.073577 
L 176.894489 174.073314 
L 172.637606 177.214869 
L 170.934837 196.112686 
L 160.292647 194.413339 
L 151.353226 190.774158 
L 147.734881 194.170629 
L 149.224765 202.430249 
L 147.522035 211.436335 
L 142.839459 211.68 
L 140.923882 202.187094 
L 91.118432 198.784382 
L 37.907445 195.869881 
L 32.586369 183.020773 
L 28.329485 170.934076 
L 31.096446 159.36317 
L 27.265255 146.144061 
L 30.670793 138.711901 
L 30.457947 133.206411 
L 37.056099 127.708416 
L 32.586369 125.081541 
L 34.289099 120.78676 
L 30.032254 113.877091 
L 25.562525 101.754715 
L 15.984565 47.319996 
L 9.173567 10.7747 
L 59.191863 10.543118 
L 86.435857 10.7747 
L 106.230313 10.08 
" clip-path="url(#p0ada5f2e52)" style="fill: none; stroke: #000000; stroke-width: 0.5; stroke-linecap: square"/>
   </g>
  </g>
 </g>
 <defs>
  <clipPath id="p0ada5f2e52">
   <rect x="0" y="-0" width="201.818476" height="221.76"/>
  </clipPath>
 </defs>
</svg>
