<?xml version="1.0" encoding="utf-8" standalone="no"?>
<!DOCTYPE svg PUBLIC "-//W3C//DTD SVG 1.1//EN"
  "http://www.w3.org/Graphics/SVG/1.1/DTD/svg11.dtd">
<svg xmlns:xlink="http://www.w3.org/1999/xlink" width="223.2pt" height="155.47914pt" viewBox="0 0 223.2 155.47914" xmlns="http://www.w3.org/2000/svg" version="1.1">
 <metadata>
  <rdf:RDF xmlns:dc="http://purl.org/dc/elements/1.1/" xmlns:cc="http://creativecommons.org/ns#" xmlns:rdf="http://www.w3.org/1999/02/22-rdf-syntax-ns#">
   <cc:Work>
    <dc:type rdf:resource="http://purl.org/dc/dcmitype/StillImage"/>
    <dc:date>2026-04-26T19:21:55.072240</dc:date>
    <dc:format>image/svg+xml</dc:format>
    <dc:creator>
     <cc:Agent>
      <dc:title>Matplotlib v3.10.9, https://matplotlib.org/</dc:title>
     </cc:Agent>
    </dc:creator>
   </cc:Work>
  </rdf:RDF>
 </metadata>
 <defs>
  <style type="text/css">*{stroke-linejoin: round; stroke-linecap: butt}</style>
 </defs>
 <g id="figure_1">
  <g id="patch_1">
   <path d="M 0 155.47914 
L 223.2 155.47914 
L 223.2 0 
L 0 0 
z
" style="fill: #ffffff"/>
  </g>
  <g id="axes_1">
   <g id="patch_2">
    <path d="M 186.360134 118.931267 
L 185.699177 119.740955 
L 185.648862 119.92589 
L 185.763214 119.901766 
L 185.99878 120.172189 
L 186.108558 120.231511 
L 186.385291 120.308936 
L 186.090262 120.472857 
L 186.033086 120.705208 
L 186.149725 121.334136 
L 186.133716 121.661336 
L 186.065105 121.942311 
L 185.927882 122.198177 
L 185.548232 122.67886 
L 185.443028 122.771093 
L 185.260064 122.877449 
L 185.083961 122.921809 
L 184.624265 122.965163 
L 184.548792 122.95508 
L 184.361255 123.177422 
L 184.164569 123.698431 
L 184.116541 123.668667 
L 183.209726 123.429067 
L 182.871244 123.124479 
L 182.512177 122.968188 
L 182.125666 122.846196 
L 179.831758 122.471241 
L 179.090755 122.529693 
L 178.368048 122.688436 
L 178.169075 122.796295 
L 178.047862 122.931891 
L 178.061584 123.002469 
L 178.127908 123.090194 
L 178.217103 123.44218 
L 178.422937 123.630327 
L 178.470965 123.801858 
L 178.409215 123.992091 
L 178.111899 124.362064 
L 178.006695 124.541295 
L 177.965528 124.723083 
L 178.006695 125.275213 
L 177.960954 125.478865 
L 177.862611 125.613309 
L 177.761981 125.714406 
L 177.718527 125.815513 
L 177.592739 126.230664 
L 177.283988 126.535689 
L 175.120442 127.651359 
L 174.377151 127.897033 
L 171.328518 128.211683 
L 169.03461 128.751021 
L 168.67783 128.901621 
L 167.854493 129.370295 
L 167.140935 129.606236 
L 166.797878 129.770666 
L 166.827609 129.817361 
L 165.601752 129.958981 
L 165.267843 130.065082 
L 165.066583 130.196074 
L 164.661776 130.574927 
L 164.373608 130.772027 
L 163.493095 131.138898 
L 163.4039 131.203952 
L 163.088288 131.498273 
L 162.953352 131.534879 
L 162.809268 131.530812 
L 162.667471 131.559792 
L 162.532535 131.701145 
L 162.489081 131.966617 
L 162.601147 132.226053 
L 162.797833 132.463163 
L 163.003667 132.657574 
L 164.561146 133.631197 
L 164.892768 134.071463 
L 164.951258 134.283637 
L 164.959092 134.312058 
L 165.078018 134.518546 
L 165.256408 134.675096 
L 165.787003 134.865845 
L 166.232977 135.141829 
L 166.411367 135.199483 
L 166.784155 135.418907 
L 167.534307 136.464616 
L 168.0123 136.893825 
L 168.115217 136.956177 
L 166.688099 138.336039 
L 166.566886 138.491631 
L 166.523432 138.617555 
L 166.516571 138.744517 
L 166.477691 138.875592 
L 166.335894 139.015901 
L 166.33132 139.018974 
L 165.919652 139.403129 
L 166.281005 139.624979 
L 167.513723 139.763851 
L 167.845345 139.729516 
L 168.405672 139.5804 
L 168.748729 139.613706 
L 169.023174 139.73874 
L 169.295333 139.938108 
L 169.727585 140.386184 
L 169.903687 140.674408 
L 169.965438 140.928848 
L 169.951715 141.170009 
L 169.903687 141.410197 
L 169.848798 141.453314 
L 169.585788 141.847092 
L 169.572066 141.902037 
L 169.215286 142.186567 
L 169.155823 142.173212 
L 169.174119 142.624298 
L 169.222147 142.612993 
L 169.19699 142.64177 
L 168.986582 142.964024 
L 168.931693 143.015943 
L 168.931693 143.36248 
L 168.949989 143.485904 
L 169.000304 143.59494 
L 169.071202 143.696786 
L 169.128379 143.817676 
L 169.13524 143.983343 
L 168.504015 144.44035 
L 168.350783 144.521685 
L 168.11293 144.528377 
L 167.975707 144.476899 
L 167.852206 144.397626 
L 167.639511 144.328139 
L 167.408519 144.332256 
L 167.225555 144.392993 
L 167.038018 144.432629 
L 166.795591 144.372404 
L 165.71153 143.873238 
L 164.700656 143.194853 
L 164.513118 143.103338 
L 164.304997 143.058098 
L 163.964227 143.022112 
L 163.417622 142.753802 
L 163.300983 142.263106 
L 163.570854 141.802419 
L 164.174635 141.620664 
L 163.735522 141.362977 
L 163.161473 141.133061 
L 162.813842 140.874467 
L 163.042547 140.527722 
L 162.662897 140.557468 
L 161.42103 140.363622 
L 160.631999 140.363622 
L 159.842968 140.478489 
L 159.422151 140.606704 
L 158.647474 141.025993 
L 158.436434 141.140245 
L 158.09109 141.23313 
L 157.624532 141.288556 
L 157.16941 141.281371 
L 156.858372 141.188483 
L 156.199702 140.867285 
L 156.021313 140.737499 
L 155.900099 140.574905 
L 155.669107 140.151869 
L 155.56619 140.03755 
L 155.20255 139.994492 
L 154.333472 140.196472 
L 153.958396 140.233386 
L 152.679937 140.068307 
L 152.19737 140.110344 
L 151.703368 140.266713 
L 151.463228 140.28876 
L 151.243672 140.170325 
L 151.122458 139.951435 
L 151.195644 139.81305 
L 151.33744 139.694157 
L 151.4152 139.537361 
L 151.472376 139.325774 
L 151.540988 139.235108 
L 151.486099 139.241767 
L 151.163625 139.327311 
L 150.971513 139.400055 
L 150.438631 139.668535 
L 150.088713 139.754627 
L 150.132167 139.916581 
L 150.203065 140.026273 
L 150.365446 140.156483 
L 150.546122 140.265175 
L 150.658188 140.310808 
L 150.719938 140.420028 
L 150.756531 140.950397 
L 150.73366 141.13614 
L 150.653613 141.262896 
L 150.022388 141.754667 
L 149.846286 141.776745 
L 144.762181 141.642227 
L 142.905098 141.872253 
L 142.65581 141.962635 
L 142.433967 142.300606 
L 142.205262 142.346842 
L 140.958821 142.19119 
L 139.156628 142.186567 
L 138.191495 142.069459 
L 137.782113 142.061241 
L 137.706641 142.118766 
L 137.089138 142.444457 
L 136.938193 142.655131 
L 136.764377 143.115677 
L 136.652312 143.299746 
L 136.249792 143.572309 
L 135.769512 143.688555 
L 134.731193 143.793497 
L 134.230329 143.696786 
L 133.686012 143.65152 
L 133.182862 143.723535 
L 132.139968 144.455793 
L 132.412127 144.501093 
L 132.652267 144.597363 
L 132.736888 144.745646 
L 132.547063 144.943388 
L 132.187996 145.037638 
L 131.227437 145.051544 
L 130.815768 145.131896 
L 130.388091 145.375048 
L 130.095349 145.616194 
L 129.779736 145.823377 
L 129.297169 145.958428 
L 128.766574 145.921313 
L 128.814602 145.37917 
L 128.341184 145.260677 
L 127.783144 145.353924 
L 126.33773 145.96616 
L 125.905479 146.047096 
L 123.597848 146.026475 
L 123.289097 145.916158 
L 123.062679 145.646084 
L 123.115281 145.644022 
L 123.18618 145.552295 
L 123.236495 145.414205 
L 123.229634 145.280253 
L 123.163309 145.189588 
L 122.058666 144.462485 
L 120.919716 144.140289 
L 120.768771 143.982314 
L 121.48233 143.685469 
L 121.667581 143.54865 
L 121.159856 143.315686 
L 120.92429 143.234444 
L 120.617826 143.22159 
L 120.304501 143.276093 
L 119.412552 143.524991 
L 118.758457 143.573338 
L 118.568632 143.538363 
L 118.458854 143.443733 
L 118.385668 143.340883 
L 118.296473 143.278149 
L 115.375914 142.605799 
L 114.840746 142.601688 
L 114.534281 142.731703 
L 114.08602 143.112592 
L 113.804713 143.250383 
L 113.54399 143.278149 
L 112.601727 143.19074 
L 112.256382 143.094084 
L 112.075706 143.015943 
L 111.959066 142.924444 
L 111.920187 142.753802 
L 112.00252 142.627381 
L 112.110011 142.531805 
L 112.137456 142.453705 
L 112.039113 142.268243 
L 111.961353 142.231257 
L 111.792112 142.271839 
L 111.42161 142.312422 
L 111.089989 142.392052 
L 111.122007 142.563662 
L 111.314119 142.783097 
L 111.46049 143.005662 
L 111.433046 143.189712 
L 111.208915 143.983343 
L 111.519953 144.08677 
L 111.709778 144.215425 
L 111.828705 144.390934 
L 111.920187 144.637521 
L 111.924761 145.064936 
L 111.723501 145.513134 
L 111.401027 145.916673 
L 111.032812 146.216206 
L 110.842987 146.294583 
L 110.37643 146.394109 
L 110.147725 146.488488 
L 110.015076 146.613822 
L 109.523361 147.220073 
L 109.125415 147.548366 
L 108.693163 147.791037 
L 107.702872 148.164446 
L 107.220305 148.279645 
L 105.795161 148.386818 
L 105.461566 148.411907 
L 105.363223 148.376773 
L 105.452418 148.251748 
L 105.655965 148.026016 
L 105.74516 147.988313 
L 106.037902 147.934601 
L 106.145393 147.86953 
L 106.200282 147.736303 
L 106.188847 147.616515 
L 106.138532 147.485384 
L 106.538765 146.746394 
L 106.554774 146.386889 
L 106.14768 146.2523 
L 105.175685 146.360589 
L 104.912675 146.538517 
L 104.818906 146.582874 
L 104.704554 146.582358 
L 104.475849 146.497255 
L 104.366071 146.488488 
L 104.075616 146.57359 
L 103.906374 146.650446 
L 103.757716 146.654572 
L 103.542734 146.526654 
L 103.423807 146.335836 
L 103.403224 146.121336 
L 103.343761 145.914096 
L 103.101334 145.740911 
L 103.604484 145.501282 
L 103.707401 145.291587 
L 103.513002 145.057725 
L 102.424368 144.084712 
L 102.172793 144.154698 
L 101.976107 144.259685 
L 101.781708 144.311154 
L 101.539281 144.22263 
L 101.504975 144.106325 
L 101.498114 144.045604 
L 101.498114 143.985402 
L 101.296854 143.717362 
L 101.020121 143.54865 
L 100.789129 143.36248 
L 100.727379 143.033422 
L 100.459794 143.164005 
L 100.125886 143.204108 
L 99.467216 143.172231 
L 98.801685 143.022112 
L 98.68962 143.040619 
L 98.417461 143.147552 
L 98.239072 143.155778 
L 97.788524 143.013887 
L 97.703903 142.803656 
L 97.747357 142.561607 
L 97.674171 142.326293 
L 97.415735 142.154721 
L 97.102409 142.085895 
L 96.770788 142.108494 
L 96.450601 142.212251 
L 95.968034 142.553386 
L 95.693589 142.915191 
L 95.373402 143.219533 
L 94.769622 143.394363 
L 93.351653 143.409277 
L 92.057615 143.193107 
L 91.963415 143.177372 
L 91.91019 143.15721 
L 85.84099 140.860615 
L 84.981061 140.740064 
L 84.15315 140.740577 
L 83.853547 140.456951 
L 82.629976 140.456951 
L 80.162253 140.28876 
L 79.743723 140.389261 
L 79.391518 140.621065 
L 78.586478 140.776997 
L 77.719687 140.826757 
L 77.177657 140.740577 
L 76.534996 140.449771 
L 76.518768 140.439941 
L 76.205662 140.250306 
L 76.203375 140.112394 
L 76.610469 140.054979 
L 76.038707 139.727466 
L 75.316 139.472804 
L 74.721368 139.45641 
L 74.522395 139.845338 
L 74.703072 139.967837 
L 73.534391 139.978089 
L 73.490937 139.848926 
L 73.436048 139.697744 
L 73.259945 139.566054 
L 73.166176 139.404154 
L 73.239362 139.274549 
L 73.534391 139.006683 
L 73.593854 138.931918 
L 73.447483 138.731718 
L 73.230214 138.70612 
L 72.9855 138.736838 
L 72.756795 138.705608 
L 72.592128 138.547936 
L 72.418312 138.318638 
L 72.205617 138.123673 
L 71.919736 138.066367 
L 71.718476 138.193263 
L 71.604123 138.625233 
L 71.329678 138.733766 
L 71.112408 138.635984 
L 71.034649 138.395407 
L 71.014065 138.139535 
L 70.979759 137.99525 
L 70.570378 137.883725 
L 70.0192 137.86531 
L 69.666995 137.987065 
L 69.872829 138.299191 
L 69.53892 138.401548 
L 68.347368 138.544865 
L 68.100367 138.54077 
L 67.926552 138.603221 
L 67.626949 138.869448 
L 67.524032 139.013853 
L 67.357077 139.410301 
L 67.121511 139.543509 
L 66.561185 139.729516 
L 66.343915 139.879678 
L 66.318758 140.026273 
L 66.412527 140.17135 
L 66.467416 140.340548 
L 66.325619 140.555416 
L 66.67325 140.632862 
L 66.783028 140.64312 
L 67.350216 140.905249 
L 67.807625 141.063276 
L 68.200997 141.053013 
L 68.528045 140.950397 
L 68.834509 140.817523 
L 69.166131 140.716468 
L 70.241043 140.605678 
L 70.549795 140.637478 
L 70.801941 140.700229 
L 70.904287 140.725701 
L 71.105547 140.737499 
L 70.979759 141.207983 
L 70.835675 141.163851 
L 70.821953 141.041725 
L 70.80137 141.009913 
L 70.705314 141.011965 
L 70.588674 141.038646 
L 70.508628 141.080722 
L 70.458313 141.190535 
L 70.494905 141.280858 
L 70.547508 141.358357 
L 70.556656 141.426623 
L 70.529211 141.56214 
L 70.540646 141.703323 
L 70.515489 141.852227 
L 70.419487 141.954532 
L 70.371405 142.005774 
L 70.074089 142.066377 
L 69.87543 141.917956 
L 69.829375 141.883551 
L 69.566364 141.614504 
L 69.225594 141.420463 
L 68.562351 141.461527 
L 67.885385 141.733615 
L 67.626949 142.073568 
L 67.599504 142.168076 
L 66.985027 142.231061 
L 66.917964 142.237935 
L 65.502282 142.232798 
L 64.662936 142.097194 
L 64.445666 142.01091 
L 64.290147 141.819363 
L 64.171221 141.627852 
L 64.052294 141.541606 
L 63.796145 141.525179 
L 63.222096 141.41841 
L 62.821863 141.419437 
L 61.628025 141.541606 
L 61.513672 141.586782 
L 61.403894 141.683813 
L 61.252949 141.780853 
L 60.848142 141.854281 
L 60.367862 142.011937 
L 60.187185 142.097194 
L 59.999647 142.228175 
L 59.910452 142.328861 
L 59.812109 142.415172 
L 59.597127 142.504058 
L 58.602261 142.639714 
L 55.722869 142.639714 
L 55.663406 142.555441 
L 55.619952 142.368933 
L 55.549054 142.182458 
L 55.414118 142.097194 
L 53.987001 142.044806 
L 53.675962 141.948255 
L 53.273442 142.330916 
L 52.921237 142.5873 
L 52.504994 142.731189 
L 51.632699 142.841363 
L 50.661634 142.964024 
L 50.174493 142.924444 
L 49.853135 142.821021 
L 49.03097 142.556469 
L 49.08829 142.556774 
L 49.609593 142.559552 
L 49.845159 142.421337 
L 50.135614 141.923606 
L 49.63475 141.955445 
L 48.506115 142.161348 
L 48.596431 141.958526 
L 48.649033 141.887145 
L 48.601005 141.697675 
L 48.484366 141.593969 
L 48.342569 141.519019 
L 48.20992 141.41841 
L 47.711344 140.813932 
L 47.411741 140.560545 
L 47.084693 140.456951 
L 46.997785 140.365673 
L 46.926887 140.151869 
L 46.865137 139.724904 
L 46.942896 139.60602 
L 47.308824 139.370342 
L 47.439185 139.239206 
L 47.450621 138.915532 
L 47.176175 138.221919 
L 47.235638 137.94716 
L 47.551251 137.305828 
L 47.674751 137.210736 
L 47.974354 137.112074 
L 48.022382 136.890758 
L 47.90803 136.522855 
L 47.912604 136.434986 
L 47.894308 136.384925 
L 47.882872 136.334866 
L 47.90803 136.252121 
L 47.974354 136.166318 
L 48.120725 136.081033 
L 48.20992 135.983499 
L 48.34943 135.785398 
L 48.390597 135.697081 
L 48.363152 135.376039 
L 48.482079 135.112237 
L 49.072137 134.737315 
L 49.282545 134.49968 
L 49.234517 133.883919 
L 48.278532 132.877475 
L 48.20992 132.064788 
L 48.34943 131.680805 
L 48.498088 131.38084 
L 48.658181 131.204969 
L 48.809126 131.086044 
L 48.921192 130.931564 
L 48.964646 130.648073 
L 49.111017 130.407828 
L 50.510689 129.24499 
L 50.743968 128.95994 
L 50.883478 128.627313 
L 50.929219 128.228913 
L 51.082451 127.816992 
L 51.43923 127.644269 
L 51.846325 127.513606 
L 52.150502 127.225498 
L 52.177947 126.951644 
L 52.065881 126.690514 
L 51.921797 126.44058 
L 51.850899 126.20487 
L 51.876056 125.947979 
L 52.038437 125.431359 
L 52.150502 125.208517 
L 52.303734 125.023105 
L 52.447818 124.896822 
L 52.559883 124.706922 
L 52.605624 124.334803 
L 52.719977 124.157628 
L 52.985274 123.998147 
L 53.53874 123.741819 
L 53.53874 123.607626 
L 53.278016 123.193054 
L 53.280303 122.514576 
L 53.467841 121.877851 
L 54.400956 121.02717 
L 54.659393 120.920508 
L 55.02532 120.851084 
L 55.363803 120.680059 
L 55.96987 120.257654 
L 56.232881 120.158113 
L 56.525623 119.992234 
L 56.763476 119.807287 
L 56.861819 119.653525 
L 56.889263 119.282787 
L 57.005903 119.10902 
L 57.257478 119.060812 
L 57.879555 119.054787 
L 58.048796 119.020641 
L 58.174584 118.957375 
L 58.222612 118.849932 
L 58.27064 118.667206 
L 58.373557 118.56381 
L 58.476474 118.506596 
L 58.524502 118.458418 
L 58.718901 118.4534 
L 59.530802 118.200505 
L 59.665738 118.133278 
L 59.940184 117.865419 
L 60.944197 116.266807 
L 61.634886 115.512006 
L 62.090002 115.210901 
L 62.099156 115.204846 
L 61.843007 115.065806 
L 59.668025 114.805783 
L 56.159695 113.729428 
L 55.759462 113.703458 
L 54.499299 113.779371 
L 52.658226 113.472757 
L 52.413512 113.510704 
L 51.894353 113.673494 
L 51.624481 113.713446 
L 51.411786 113.695467 
L 50.942941 113.599586 
L 50.698227 113.575617 
L 50.419208 113.609573 
L 50.160771 113.673494 
L 49.895474 113.712447 
L 49.809715 113.701267 
L 49.589009 113.672495 
L 49.383175 113.571622 
L 49.168193 113.320984 
L 49.005812 113.205173 
L 48.514097 113.058432 
L 47.546677 112.961616 
L 47.06411 112.785973 
L 46.773655 112.575443 
L 46.272791 112.109646 
L 45.961753 111.924188 
L 46.000633 111.860383 
L 46.055522 111.816519 
L 46.220189 111.755711 
L 46.073818 111.476642 
L 45.673585 111.392937 
L 44.7176 111.356069 
L 44.621544 111.140869 
L 44.191579 111.119949 
L 43.761876 111.194158 
L 43.672419 111.209608 
L 43.304205 111.329166 
L 43.201287 111.424824 
L 43.041194 111.704874 
L 42.929129 111.811534 
L 42.762174 111.856395 
L 42.309339 111.889294 
L 42.112653 111.928176 
L 41.973143 112.024889 
L 41.739864 112.297135 
L 41.609503 112.373936 
L 41.469993 112.361967 
L 40.875361 112.202389 
L 38.967964 112.192416 
L 38.620332 112.124604 
L 38.272701 112.020901 
L 37.426494 111.668992 
L 37.30528 111.660021 
L 37.10402 111.773654 
L 37.122317 111.880321 
L 37.193215 111.981018 
L 37.158909 112.078734 
L 36.479656 112.324065 
L 35.992515 112.10466 
L 35.736366 111.575303 
L 35.747801 110.894843 
L 35.269809 110.8809 
L 33.888432 110.434832 
L 33.643718 110.413928 
L 32.998771 110.449764 
L 32.074804 110.32932 
L 31.852961 110.360176 
L 31.724886 110.62797 
L 31.89184 110.939661 
L 31.976461 111.259422 
L 31.594524 111.549391 
L 31.313217 111.586266 
L 30.451001 111.403898 
L 29.465284 111.398915 
L 29.20456 111.335145 
L 28.920966 111.065162 
L 28.982717 110.829114 
L 29.094782 110.585158 
L 28.955272 110.279554 
L 28.866077 110.280549 
L 28.568761 110.392029 
L 28.470418 110.398001 
L 28.410955 110.32932 
L 28.367501 110.178039 
L 28.342343 110.135247 
L 28.271445 110.054643 
L 28.097629 109.697482 
L 28.003861 109.64178 
L 27.697396 109.57912 
L 27.57847 109.52641 
L 27.553312 109.44884 
L 27.599053 109.253951 
L 27.564748 109.172427 
L 26.093033 108.365516 
L 25.722531 108.110268 
L 25.583021 107.886858 
L 25.704235 107.711146 
L 26.097607 107.700227 
L 26.193663 107.54539 
L 26.11819 107.430271 
L 25.043278 106.783482 
L 24.890046 106.655565 
L 24.9335 106.647633 
L 24.928926 106.540554 
L 24.869463 106.38194 
L 24.73224 106.222362 
L 24.35259 106.015247 
L 22.321692 105.441706 
L 22.076978 105.417939 
L 21.896302 105.45755 
L 21.475485 105.620962 
L 21.239919 105.646714 
L 21.050775 105.635436 
L 21.052381 105.494192 
L 20.98377 104.914036 
L 21.128257 104.29583 
L 21.171308 104.111711 
L 21.171308 103.505718 
L 21.297095 103.295244 
L 21.631004 103.000857 
L 22.20734 102.601902 
L 22.431471 102.343263 
L 22.598425 102.205089 
L 22.657888 102.119233 
L 22.637305 101.992932 
L 22.502369 101.918935 
L 22.360572 101.864674 
L 22.321692 101.801538 
L 22.664749 101.532272 
L 24.29084 100.94272 
L 24.247386 100.901327 
L 24.096441 100.803766 
L 24.171913 100.711141 
L 24.27483 100.682568 
L 24.466942 100.724936 
L 24.309136 100.606703 
L 24.203932 100.469769 
L 24.153617 100.314142 
L 24.169626 100.14377 
L 24.384609 100.03841 
L 24.393757 99.964567 
L 24.334294 99.879901 
L 24.336581 99.745042 
L 24.441785 99.330743 
L 24.473804 99.317953 
L 24.476091 99.157599 
L 24.524119 99.13104 
L 24.53098 99.134975 
L 24.412053 99.06317 
L 24.325146 99.06022 
L 23.643606 98.948098 
L 22.582416 98.948098 
L 22.195905 98.889093 
L 21.820829 98.756343 
L 21.18503 98.419147 
L 20.809954 98.287447 
L 20.615555 98.284499 
L 20.283934 98.39654 
L 20.105544 98.387694 
L 20.082673 98.32381 
L 19.95012 98.127695 
L 19.86083 97.995612 
L 19.755626 97.891478 
L 19.433152 97.775568 
L 18.683001 97.589947 
L 18.337657 97.395526 
L 17.610376 96.424034 
L 17.230726 96.083762 
L 16.992873 96.344593 
L 16.81677 96.178869 
L 16.480575 95.645614 
L 16.098638 95.324242 
L 16.002582 95.170454 
L 16.064332 94.959894 
L 15.927109 94.564368 
L 15.783025 94.40875 
L 15.542885 94.332418 
L 15.74872 94.111289 
L 15.831053 94.049656 
L 15.780738 94.045743 
L 15.648089 94.05259 
L 15.60921 94.038895 
L 15.74872 93.506878 
L 15.856211 93.24685 
L 16.009443 92.973216 
L 16.210703 92.843268 
L 16.27474 92.71627 
L 16.196981 92.600033 
L 15.97285 92.500413 
L 16.020878 92.407639 
L 16.094064 92.19576 
L 16.13523 92.13328 
L 16.325055 92.068851 
L 16.766455 92.049329 
L 16.931123 91.990763 
L 17.063772 91.812159 
L 17.077494 91.599443 
L 16.953993 91.384825 
L 16.658964 91.205365 
L 16.887669 91.041542 
L 17.388532 90.847527 
L 17.605802 90.664275 
L 18.065498 90.545375 
L 19.01691 90.399209 
L 19.424004 90.198512 
L 19.325661 90.029026 
L 19.371402 89.839122 
L 19.517773 89.658021 
L 19.737329 89.511997 
L 20.036933 89.417581 
L 20.283934 89.429261 
L 20.535509 89.482795 
L 20.832825 89.511997 
L 21.420596 89.453594 
L 21.697329 89.293006 
L 21.672423 89.149947 
L 21.651588 89.030287 
L 20.88314 88.302855 
L 20.853408 88.080269 
L 21.00664 87.82859 
L 21.164447 87.385649 
L 21.180456 87.072032 
L 21.095835 87.007962 
L 20.938029 86.99146 
L 20.748204 86.821604 
L 20.626991 86.631404 
L 20.562953 86.462586 
L 20.617842 86.31223 
L 20.864844 86.181294 
L 20.462323 86.168687 
L 19.504051 86.049408 
L 19.165568 85.962142 
L 19.115253 85.935963 
L 19.064938 85.926268 
L 19.010048 85.935963 
L 18.96202 85.962142 
L 18.214156 86.087227 
L 17.9946 86.081408 
L 17.818497 86.004804 
L 17.628672 85.790542 
L 17.450282 85.701361 
L 17.626385 85.539503 
L 17.367949 85.528842 
L 17.189559 85.488141 
L 17.159827 85.402866 
L 17.333643 85.2585 
L 16.965428 85.007611 
L 17.372523 84.662873 
L 18.070072 84.350207 
L 18.564074 84.191496 
L 18.564074 84.123762 
L 18.815649 83.959287 
L 18.971169 83.792907 
L 18.920854 83.680715 
L 17.393106 83.660406 
L 16.937984 83.531793 
L 16.679548 83.263022 
L 16.974577 83.161529 
L 15.627506 82.056489 
L 15.202115 81.828697 
L 14.833901 81.810361 
L 13.957962 81.93969 
L 13.66522 81.921351 
L 13.578312 81.765004 
L 13.660646 81.568161 
L 13.64921 81.388724 
L 13.280996 81.285516 
L 13.248977 81.250795 
L 13.24669 81.21704 
L 13.260412 81.183285 
L 13.297005 81.148568 
L 13.345033 80.905585 
L 13.200949 80.79183 
L 12.981393 80.709897 
L 12.812151 80.553763 
L 12.718382 80.314798 
L 13.054578 80.360081 
L 13.372478 80.201119 
L 13.489117 79.979584 
L 13.441089 79.808174 
L 13.420506 79.647387 
L 13.614905 79.460641 
L 13.919082 79.368245 
L 14.417658 79.391343 
L 14.664659 79.233519 
L 14.799595 79.042051 
L 14.806456 78.893908 
L 14.618918 78.511162 
L 14.660085 78.388103 
L 14.776725 78.287169 
L 14.820178 78.212198 
L 14.097472 78.07861 
L 13.576025 77.904688 
L 13.406783 77.805731 
L 13.349607 77.657798 
L 13.317589 77.389852 
L 13.402209 77.235268 
L 13.537145 77.078792 
L 13.491404 76.981849 
L 12.697799 77.032719 
L 12.116889 76.930982 
L 11.810425 76.908908 
L 11.510822 76.954016 
L 10.936773 77.10471 
L 10.634883 77.137347 
L 10.612012 76.669016 
L 10.271242 76.135252 
L 10.145455 75.701001 
L 10.765244 75.528511 
L 11.071709 75.619543 
L 11.334719 75.800198 
L 11.629748 75.943024 
L 12.036842 75.920017 
L 12.309001 75.76186 
L 12.734392 75.289957 
L 13.031708 75.10893 
L 15.078615 74.262721 
L 16.338778 73.902568 
L 16.668112 73.672588 
L 16.203842 73.444582 
L 16.709279 73.227148 
L 16.885382 73.173156 
L 16.377657 73.081426 
L 15.275301 73.479472 
L 14.756141 73.327495 
L 14.598335 72.985884 
L 14.662372 72.573264 
L 14.852197 72.205226 
L 15.078615 72.001464 
L 15.545172 71.703305 
L 16.679548 70.608403 
L 16.910539 70.489797 
L 17.473153 70.285015 
L 17.692709 70.122652 
L 17.811636 69.893208 
L 17.880247 69.489687 
L 18.008322 69.327952 
L 17.674413 69.120119 
L 17.704145 68.781133 
L 17.873386 68.390018 
L 17.953433 68.026152 
L 17.845942 67.692825 
L 17.688135 67.091079 
L 16.796187 66.55708 
L 15.323329 65.509982 
L 15.227273 65.285097 
L 15.346199 65.023359 
L 15.604636 64.61364 
L 14.10662 64.274568 
L 13.598895 63.941776 
L 13.896212 63.423943 
L 13.676655 63.307759 
L 13.182653 63.11557 
L 12.928791 63.053248 
L 12.28613 63.060802 
L 12.066574 63.015007 
L 12.08487 62.818638 
L 12.215944 62.751832 
L 12.576585 62.56805 
L 12.615465 62.19915 
L 12.320436 61.84597 
L 11.817286 61.648462 
L 11.892758 61.485871 
L 12.260973 61.352524 
L 13.164357 61.270547 
L 13.592034 61.177272 
L 14.049444 61.003471 
L 14.367343 60.916819 
L 15.26844 60.79298 
L 15.986572 60.89092 
L 16.508019 60.959202 
L 16.864798 61.004413 
L 16.567482 60.765201 
L 15.741858 60.322747 
L 15.467413 60.216405 
L 16.219851 60.008466 
L 16.93341 60.180176 
L 17.644681 60.474284 
L 18.392546 60.631028 
L 19.083234 60.553358 
L 19.266198 60.564655 
L 19.424004 60.642796 
L 19.668718 60.866905 
L 19.769348 60.929534 
L 20.617842 60.995465 
L 20.976909 61.102378 
L 21.043233 61.386448 
L 21.873431 61.268191 
L 21.964913 61.086364 
L 21.784236 60.675279 
L 23.202205 60.889507 
L 23.652754 60.889507 
L 24.018681 60.804751 
L 25.107316 60.378276 
L 27.309742 59.994354 
L 29.268597 59.962369 
L 29.867804 59.797287 
L 30.382389 59.484616 
L 30.887827 59.018415 
L 31.068503 58.917409 
L 31.237745 58.902376 
L 31.34981 58.846946 
L 31.370394 58.624794 
L 31.315504 58.502237 
L 31.201152 58.414439 
L 30.62939 58.107455 
L 29.183977 57.697383 
L 28.699123 57.62468 
L 28.346918 57.49852 
L 28.301177 57.221881 
L 28.454409 57.032976 
L 28.653382 56.985171 
L 28.886661 56.976735 
L 29.151958 56.90925 
L 29.330348 56.795383 
L 29.511024 56.564418 
L 29.627664 56.461371 
L 30.00274 56.264213 
L 30.357232 56.164013 
L 30.483472 56.156841 
L 31.79121 56.082551 
L 32.07023 55.953821 
L 32.559658 55.450328 
L 32.989623 55.223484 
L 33.938747 55.014002 
L 34.380147 54.816726 
L 34.899307 54.392419 
L 35.13716 54.252745 
L 36.12059 53.951991 
L 36.18234 53.859079 
L 36.126789 53.8077 
L 35.99709 53.687756 
L 35.800404 53.301828 
L 35.814126 52.971113 
L 35.974219 52.698806 
L 36.417906 52.183354 
L 36.605444 51.526234 
L 36.294406 51.063173 
L 34.947335 49.972894 
L 34.807825 50.005418 
L 34.670602 50.126234 
L 34.464768 50.2229 
L 33.911303 50.303773 
L 33.330393 50.322831 
L 32.706029 50.272166 
L 31.562506 50.054672 
L 29.810628 49.931544 
L 29.227431 49.789854 
L 28.790605 49.537198 
L 28.655669 49.269303 
L 28.62365 48.952773 
L 28.545891 48.632194 
L 28.273732 48.350692 
L 28.63966 48.334463 
L 29.867804 48.027111 
L 29.14281 47.723584 
L 28.987291 47.608227 
L 28.98043 47.459077 
L 29.08106 47.310417 
L 29.124514 47.149748 
L 28.939263 46.962264 
L 29.32189 46.825339 
L 29.719146 46.683205 
L 30.460149 46.56985 
L 32.559658 46.553195 
L 33.732913 46.728088 
L 34.823834 46.64804 
L 35.157743 46.717445 
L 35.946775 46.839151 
L 36.349295 46.456049 
L 36.511675 45.825354 
L 36.717509 43.896638 
L 36.909621 43.30024 
L 37.134757 42.991744 
L 37.30528 42.758162 
L 39.121196 41.365775 
L 39.601476 40.77039 
L 39.805023 40.203913 
L 39.839328 39.567694 
L 39.633494 38.298199 
L 39.55116 38.143492 
L 39.443669 38.051049 
L 39.359049 37.938485 
L 39.343039 37.726671 
L 39.397928 37.58397 
L 39.711254 37.19442 
L 39.862199 36.890051 
L 39.93081 36.614578 
L 39.90794 36.330986 
L 39.844172 35.829327 
L 40.062072 35.771844 
L 40.314188 35.642524 
L 40.508677 35.513225 
L 40.706767 35.324346 
L 40.782402 35.113976 
L 40.616726 34.919453 
L 41.174982 34.514776 
L 41.475719 34.441613 
L 41.988954 34.43731 
L 42.467974 34.497561 
L 43.231523 34.729286 
L 43.649314 34.809653 
L 43.118071 34.435158 
L 42.24107 34.281683 
L 37.202363 34.196353 
L 36.384789 34.002782 
L 36.06064 33.512623 
L 36.053437 32.209231 
L 36.150682 31.913222 
L 36.579278 31.380127 
L 36.676522 31.118719 
L 36.860207 30.958777 
L 37.294205 30.961633 
L 38.185613 31.053739 
L 38.304468 30.912372 
L 38.515164 30.858831 
L 38.675437 30.687525 
L 38.635819 30.466313 
L 38.439529 30.340751 
L 37.793034 30.18668 
L 37.504902 30.046903 
L 37.45808 29.816613 
L 37.771424 29.623452 
L 38.48455 29.389018 
L 39.287718 28.965228 
L 39.719916 28.824967 
L 40.541091 28.422843 
L 42.287891 28.102723 
L 45.691449 27.922093 
L 45.929158 27.998891 
L 46.165066 28.151087 
L 46.689106 28.210125 
L 49.9522 27.890097 
L 56.591839 27.454368 
L 58.362049 27.696013 
L 58.362049 27.826107 
L 58.217983 28.316832 
L 58.837467 28.950987 
L 59.748684 29.503732 
L 60.490624 29.748181 
L 60.490624 29.855822 
L 60.303338 30.07828 
L 60.645495 30.156726 
L 61.135319 30.223055 
L 61.383833 30.406383 
L 61.315401 30.721783 
L 61.106506 30.883102 
L 60.627486 31.053739 
L 60.227703 31.151569 
L 59.356104 31.188705 
L 58.967126 31.304409 
L 59.370511 31.889632 
L 59.574004 32.110548 
L 59.874742 32.263583 
L 60.15567 32.199219 
L 60.407786 32.147732 
L 60.778756 32.154882 
L 61.038074 32.222104 
L 61.459467 32.453848 
L 61.61794 32.503926 
L 61.798022 32.578333 
L 61.978105 32.743629 
L 62.210411 32.908961 
L 62.529157 32.984124 
L 62.900127 32.979113 
L 63.17025 32.949763 
L 63.407959 32.881045 
L 63.679884 32.754364 
L 64.146297 32.385176 
L 64.639723 31.78027 
L 64.758577 31.177992 
L 64.117484 30.824567 
L 63.247686 30.934504 
L 62.783073 30.89738 
L 62.826293 30.640423 
L 63.015379 30.352165 
L 63.173852 29.756735 
L 63.361138 29.50872 
L 63.656473 29.361233 
L 64.031044 29.290706 
L 64.954867 29.269335 
L 65.378061 29.361233 
L 65.705811 29.576417 
L 65.975935 29.8159 
L 66.246058 29.987007 
L 67.139267 30.203798 
L 69.028332 30.379273 
L 69.883724 30.57477 
L 69.883724 30.704654 
L 69.354281 30.920225 
L 68.868059 31.200132 
L 68.509695 31.578743 
L 68.374633 32.089097 
L 68.399844 33.076477 
L 68.529504 33.511907 
L 68.82844 33.835777 
L 68.89327 33.400161 
L 68.659163 32.30149 
L 68.677171 31.783129 
L 69.015726 31.401557 
L 69.523559 31.231556 
L 69.98457 31.02018 
L 70.186262 30.52054 
L 70.076412 30.43278 
L 69.509152 29.748181 
L 69.339875 29.645546 
L 69.109369 29.408254 
L 68.91488 29.14611 
L 68.758208 28.812864 
L 68.444865 28.415016 
L 68.374633 28.12406 
L 68.423255 27.829662 
L 68.558317 27.572338 
L 69.386696 26.602843 
L 69.973765 25.552396 
L 70.351938 25.087584 
L 70.668883 24.865202 
L 71.101081 24.671912 
L 71.590905 24.535294 
L 72.091534 24.481504 
L 72.552545 24.497074 
L 72.815466 24.550866 
L 73.359315 24.838294 
L 74.144474 25.148503 
L 74.981857 25.351839 
L 76.712449 25.551687 
L 77.661484 25.538929 
L 79.26962 25.352548 
L 80.155626 25.385852 
L 80.569815 25.158421 
L 82.329221 24.957263 
L 84.079622 24.965053 
L 84.457795 24.838294 
L 84.758533 24.943807 
L 85.122299 24.97426 
L 85.873243 24.957263 
L 86.065931 25.018171 
L 86.552154 25.315702 
L 88.70594 27.09631 
L 89.595547 27.587263 
L 90.216831 27.826107 
L 90.521171 28.010269 
L 90.823709 28.538832 
L 92.343605 29.59352 
L 92.68216 29.738915 
L 93.092748 29.82588 
L 93.620389 29.855822 
L 93.895916 29.919272 
L 95.210517 30.346458 
L 96.7016 30.503415 
L 97.918957 30.631859 
L 98.207089 30.57477 
L 97.931563 30.346458 
L 97.101383 30.116789 
L 95.116874 30.008398 
L 94.306503 29.855822 
L 92.710973 29.368357 
L 91.98344 28.980893 
L 91.724121 28.422843 
L 91.659292 27.946269 
L 91.572852 27.641992 
L 91.351351 27.546753 
L 90.312275 27.275318 
L 89.979123 27.218485 
L 89.438875 26.986938 
L 88.922039 26.462319 
L 88.572679 25.899779 
L 88.540264 25.551687 
L 87.733495 25.402859 
L 86.336055 24.839711 
L 85.500472 24.60183 
L 84.673894 24.51123 
L 81.862807 24.481504 
L 81.021822 24.300343 
L 80.458164 24.226759 
L 80.200646 24.303173 
L 79.96834 24.481504 
L 79.455105 24.40224 
L 78.677149 24.126301 
L 77.93701 23.700568 
L 76.107373 21.981774 
L 76.959162 21.799822 
L 77.375153 21.785014 
L 77.904595 21.85271 
L 78.774393 22.122853 
L 79.249811 22.196225 
L 79.734233 22.089697 
L 79.90351 21.89996 
L 80.083593 21.556585 
L 80.206049 21.185189 
L 80.200646 20.917508 
L 79.943128 20.740047 
L 79.53254 20.571781 
L 79.230002 20.395109 
L 79.293031 20.198075 
L 79.293031 20.090433 
L 78.752783 20.01446 
L 77.98023 20.079881 
L 77.2599 20.240292 
L 76.861918 20.44508 
L 76.712449 20.44508 
L 76.107373 19.961706 
L 75.716594 19.573553 
L 75.653565 19.489199 
L 75.833647 19.143453 
L 76.172202 18.845626 
L 76.402708 18.573194 
L 76.246036 18.311392 
L 76.246036 18.193506 
L 76.51796 18.098791 
L 77.454389 17.97533 
L 77.836164 17.958495 
L 78.070271 17.871526 
L 78.412428 17.656953 
L 78.758186 17.38357 
L 78.979687 17.124303 
L 78.473656 17.169143 
L 77.639874 17.499219 
L 77.164456 17.595257 
L 77.207676 17.537773 
L 77.270705 17.415109 
L 77.315726 17.359741 
L 76.644018 17.396185 
L 75.48969 17.558102 
L 74.808978 17.595257 
L 74.018416 17.532866 
L 73.67626 17.595257 
L 72.939722 17.919218 
L 72.680404 17.958495 
L 72.091534 17.861006 
L 71.461246 17.598061 
L 71.003836 17.21959 
L 70.940807 16.771992 
L 71.254151 16.594851 
L 71.859228 16.469549 
L 72.538139 16.407256 
L 73.058577 16.419154 
L 73.058577 16.30158 
L 72.660595 16.258894 
L 72.356255 16.127354 
L 72.064522 16.085379 
L 71.713361 16.30158 
L 71.524275 16.112663 
L 71.589104 15.9189 
L 71.794398 15.739174 
L 72.0159 15.597243 
L 72.487716 15.693026 
L 74.281337 15.47002 
L 76.712449 15.47002 
L 77.274307 15.401524 
L 77.742521 15.268745 
L 78.677149 14.894302 
L 79.53074 14.703664 
L 79.899909 14.575902 
L 80.049377 14.297419 
L 80.051178 13.882341 
L 79.48752 13.489114 
L 77.681293 12.610026 
L 77.423775 12.428355 
L 77.315726 12.246731 
L 77.112232 12.167415 
L 76.656624 12.173677 
L 76.19021 12.232815 
L 75.941697 12.310746 
L 75.790427 12.182721 
L 76.548574 11.948996 
L 75.776021 11.020432 
L 75.48969 10.782929 
L 74.853999 10.605201 
L 73.658251 10.135413 
L 72.907308 9.968947 
L 72.907308 9.851751 
L 73.031565 9.543945 
L 72.743433 9.197479 
L 72.313036 8.856726 
L 72.0159 8.563202 
L 71.889842 8.115542 
L 71.988887 7.721397 
L 72.288696 7.23001 
L 73.065546 7.337433 
L 73.882022 7.353227 
L 75.389186 7.102319 
L 75.906059 7.067234 
L 77.673946 7.20232 
L 79.412101 7.51821 
L 84.105122 8.009882 
L 84.475623 8.155695 
L 84.576253 8.32702 
L 84.642578 8.56431 
L 84.804958 8.766509 
L 85.196043 8.836854 
L 86.810698 8.839492 
L 87.14232 8.812232 
L 87.357303 8.712877 
L 87.672915 8.674194 
L 87.915342 8.577495 
L 88.315575 8.537061 
L 88.761549 8.724306 
L 89.136625 8.743649 
L 89.463673 8.694414 
L 89.476525 8.689868 
L 89.784634 8.690565 
L 91.102837 8.393652 
L 91.522429 8.161194 
L 92.062676 8.065742 
L 92.340003 7.843765 
L 92.628135 7.740062 
L 92.700168 8.352136 
L 93.771659 8.528597 
L 95.131281 8.560434 
L 96.051502 8.742486 
L 96.438679 8.873344 
L 97.013142 8.98345 
L 97.537182 9.14968 
L 97.767688 9.444838 
L 98.023405 9.603554 
L 98.60147 9.559193 
L 99.60813 9.386628 
L 99.521691 9.032622 
L 100.04393 9.016693 
L 100.762459 9.215491 
L 101.270291 9.503053 
L 101.57283 10.084776 
L 101.713294 10.220743 
L 101.913186 10.349797 
L 102.327375 10.549671 
L 102.042845 10.647547 
L 101.751111 10.630886 
L 101.477386 10.574659 
L 101.270291 10.549671 
L 101.282897 10.587154 
L 100.735446 10.78154 
L 100.665214 10.782929 
L 100.522949 10.826674 
L 100.427505 10.822507 
L 100.373481 10.85931 
L 100.362676 11.016265 
L 100.686824 11.025989 
L 101.264889 10.947506 
L 101.842953 10.932922 
L 102.176106 11.132962 
L 102.413815 11.04127 
L 102.66593 11.032935 
L 102.788386 11.13713 
L 102.629914 11.376839 
L 102.741565 11.613849 
L 102.755971 11.952474 
L 102.629914 12.660151 
L 102.518263 12.963758 
L 102.366993 13.205485 
L 102.154496 13.402689 
L 101.875368 13.585309 
L 101.162242 13.88513 
L 100.270834 14.109034 
L 99.312795 14.250667 
L 98.385371 14.297419 
L 98.385371 14.414661 
L 99.341608 14.640827 
L 104.682853 14.06369 
L 105.097043 14.130661 
L 106.435056 14.659677 
L 105.993854 14.859383 
L 105.992053 15.047269 
L 106.166733 15.257565 
L 106.283786 15.533629 
L 106.155928 15.763647 
L 105.842584 15.977652 
L 105.442801 16.131552 
L 105.061027 16.184026 
L 105.118653 16.222509 
L 105.194288 16.251897 
L 105.205092 16.305779 
L 105.061027 16.419154 
L 105.298735 16.536047 
L 105.365366 16.680265 
L 105.278926 16.84272 
L 105.061027 17.007314 
L 105.547249 16.925362 
L 105.914617 16.719475 
L 106.435056 16.184026 
L 106.72859 15.614022 
L 106.888863 15.47002 
L 107.110365 15.402922 
L 107.945947 15.362386 
L 108.248486 15.282022 
L 108.396153 15.189089 
L 108.509605 15.093375 
L 108.714899 15.001166 
L 108.968815 14.963447 
L 109.908846 15.001166 
L 110.395068 15.110141 
L 111.734882 15.597243 
L 115.224879 16.30158 
L 117.196782 17.148124 
L 118.106198 17.251823 
L 119.120062 17.167041 
L 119.865604 16.956181 
L 121.129782 16.419154 
L 121.859116 16.205016 
L 122.620865 16.058795 
L 124.468511 15.949674 
L 124.468511 16.066491 
L 124.070528 16.075585 
L 123.517675 16.078383 
L 123.901251 16.156739 
L 124.284827 16.09937 
L 124.803464 16.263793 
L 126.357575 15.829381 
L 127.050893 15.949674 
L 126.229717 16.368763 
L 125.993809 16.536747 
L 125.862349 16.487048 
L 125.525594 16.419154 
L 125.765104 16.70057 
L 125.968597 17.385672 
L 126.143277 17.711642 
L 125.979402 17.929037 
L 125.993809 18.222274 
L 126.143277 18.719227 
L 126.047834 19.014192 
L 125.835336 19.171556 
L 125.622839 19.280467 
L 125.525594 19.430158 
L 122.955818 20.198075 
L 122.068012 20.72174 
L 121.680835 20.837222 
L 120.785825 20.979488 
L 120.612946 20.976671 
L 120.42566 21.054154 
L 120.276192 21.004846 
L 120.11952 20.926664 
L 119.921429 20.917508 
L 119.746749 20.969627 
L 119.658509 21.015411 
L 118.804918 21.62849 
L 118.578014 21.744822 
L 118.578014 21.85271 
L 118.871549 22.191286 
L 119.193896 22.441087 
L 119.618891 22.604139 
L 120.222167 22.693092 
L 121.077558 22.652144 
L 121.297259 22.693092 
L 121.453931 22.873149 
L 121.475541 23.080092 
L 121.560179 23.239755 
L 121.886128 23.284268 
L 121.972568 23.287095 
L 122.230086 23.294867 
L 122.339936 23.284268 
L 122.622666 23.18182 
L 123.270962 22.866793 
L 123.63653 22.800415 
L 124.057923 22.759461 
L 125.235662 22.466496 
L 127.926093 22.301358 
L 128.120582 22.335935 
L 128.273652 22.434735 
L 128.417718 22.678972 
L 128.57439 22.800415 
L 129.36135 22.900691 
L 129.482006 22.988267 
L 129.379359 23.383904 
L 129.427981 23.564838 
L 129.708909 23.640476 
L 130.368011 23.660978 
L 130.551695 23.640476 
L 131.446705 23.284268 
L 131.615982 23.337265 
L 131.842886 23.583217 
L 131.979749 23.640476 
L 132.901771 23.640476 
L 132.912576 23.694912 
L 133.760764 24.192093 
L 133.928241 24.24374 
L 134.180356 24.24374 
L 134.20917 24.060516 
L 134.432472 23.78117 
L 134.60355 23.434787 
L 134.506306 23.154974 
L 134.670181 23.027821 
L 134.884479 22.950128 
L 135.069964 22.92894 
L 135.026744 22.851257 
L 134.972719 22.654968 
L 134.933101 22.573079 
L 135.689447 22.218803 
L 135.689447 22.089697 
L 135.538178 22.089697 
L 135.538178 21.981774 
L 136.103637 22.090402 
L 136.294524 22.089697 
L 136.742929 21.936634 
L 137.13731 21.476229 
L 137.434446 21.378968 
L 137.612728 21.350074 
L 137.758594 21.273969 
L 137.872046 21.164053 
L 137.969291 21.035839 
L 137.983697 20.949906 
L 137.818022 20.888632 
L 137.818022 20.7999 
L 137.888254 20.711179 
L 137.980096 20.652037 
L 138.062934 20.605572 
L 138.610384 20.150233 
L 139.314507 19.925835 
L 140.178902 19.868868 
L 142.026548 20.019384 
L 147.301163 19.49904 
L 148.131343 19.254467 
L 148.244795 19.749321 
L 148.161957 20.229738 
L 148.208778 20.63866 
L 148.725615 20.917508 
L 148.511317 20.707658 
L 148.401466 20.258587 
L 148.284413 20.090433 
L 148.514918 19.88856 
L 149.15241 19.722601 
L 149.341497 19.489199 
L 149.092983 19.477953 
L 148.855274 19.497634 
L 148.62837 19.541919 
L 148.423076 19.607297 
L 148.590553 19.44562 
L 149.341497 18.993822 
L 149.789902 18.808406 
L 150.315743 18.404029 
L 150.627285 18.311392 
L 150.917218 18.272796 
L 152.584781 17.856798 
L 153.423965 17.534969 
L 153.751715 17.359741 
L 154.549481 16.65436 
L 155.88029 15.779031 
L 156.024356 15.613323 
L 156.937374 14.894302 
L 157.288535 14.443975 
L 157.542451 14.295325 
L 157.994458 14.192057 
L 157.994458 14.297419 
L 157.843188 14.297419 
L 158.315004 14.641525 
L 159.269441 14.818879 
L 164.306347 14.818879 
L 165.136527 15.001166 
L 165.64616 14.86916 
L 166.281851 14.940398 
L 166.564581 15.131799 
L 166.015329 15.362386 
L 165.44987 15.418298 
L 163.079986 15.326046 
L 162.134553 15.164635 
L 161.551086 15.129004 
L 161.378207 15.163937 
L 161.142299 15.319757 
L 161.016241 15.362386 
L 160.566035 15.362386 
L 159.993373 15.313468 
L 159.779075 15.367977 
L 159.644013 15.597243 
L 159.50715 15.47002 
L 159.390097 15.502173 
L 159.193807 15.579067 
L 159.053342 15.597243 
L 159.092961 15.744068 
L 159.184803 15.8098 
L 159.325267 15.831479 
L 159.50715 15.843367 
L 159.427914 15.852459 
L 159.366686 15.853158 
L 159.334271 15.875537 
L 159.341474 15.949674 
L 158.91648 15.844766 
L 158.441062 15.865047 
L 158.041279 15.986746 
L 157.843188 16.184026 
L 157.483024 15.977652 
L 157.045423 15.877636 
L 156.244056 15.843367 
L 155.883891 15.921697 
L 155.584955 16.121058 
L 155.440889 16.38346 
L 155.563345 16.65436 
L 155.2464 16.624955 
L 155.11674 16.599751 
L 154.960069 16.536747 
L 154.808799 16.65436 
L 154.954666 16.860228 
L 154.846617 17.064055 
L 154.56929 17.213284 
L 154.203722 17.251823 
L 154.360394 17.486602 
L 154.544078 17.670975 
L 154.5927 17.822435 
L 154.342386 17.958495 
L 155.307628 18.265077 
L 155.846074 18.328936 
L 156.319691 18.193506 
L 155.975734 18.199821 
L 155.714614 18.140885 
L 155.260806 17.958495 
L 155.404872 17.755817 
L 155.613768 17.606474 
L 156.170223 17.359741 
L 156.299882 17.319095 
L 156.542993 17.284056 
L 156.634835 17.251823 
L 156.705067 17.167041 
L 156.726677 16.949176 
L 156.773499 16.879138 
L 157.14807 16.734179 
L 158.585128 16.419154 
L 158.286191 16.317675 
L 158.147528 16.30158 
L 158.147528 16.184026 
L 158.558116 16.114761 
L 158.707584 16.121058 
L 158.887667 16.184026 
L 158.887667 16.066491 
L 159.301856 16.234404 
L 159.960958 16.15534 
L 161.16751 15.843367 
L 161.118888 15.786024 
L 161.059461 15.65597 
L 161.016241 15.597243 
L 161.246746 15.520347 
L 161.506065 15.472815 
L 161.77799 15.45604 
L 162.058918 15.47002 
L 162.058918 15.597243 
L 161.725766 15.636394 
L 161.502463 15.772738 
L 161.372804 15.969259 
L 161.318779 16.184026 
L 161.596106 15.965762 
L 161.696953 15.850361 
L 161.772587 15.714002 
L 161.970678 15.877636 
L 162.197582 16.029415 
L 162.446095 16.08258 
L 162.691008 15.949674 
L 162.950326 16.054598 
L 163.188035 16.049701 
L 163.404134 15.969259 
L 163.598623 15.843367 
L 163.659851 15.976254 
L 163.7661 16.10007 
L 163.904763 16.209914 
L 164.282936 16.429652 
L 164.365774 16.461149 
L 164.44501 16.442251 
L 164.668313 16.419154 
L 165.093307 16.431752 
L 165.316609 16.402356 
L 165.565123 16.30158 
L 165.75421 16.163036 
L 165.982915 15.88393 
L 166.181005 15.714002 
L 166.746464 15.460234 
L 167.625266 15.202365 
L 168.504069 15.053556 
L 169.065926 15.129004 
L 168.784997 15.252673 
L 168.774192 15.457438 
L 168.941669 15.675546 
L 169.202788 15.843367 
L 170.160827 16.068589 
L 170.423747 16.184026 
L 170.005956 16.523447 
L 170.095997 16.788098 
L 170.726286 17.251823 
L 170.789315 17.43964 
L 170.789315 17.626104 
L 170.852344 17.771945 
L 171.097256 17.83085 
L 172.085908 17.83085 
L 172.085908 17.958495 
L 171.878813 17.961301 
L 171.731146 17.990761 
L 171.482632 18.065118 
L 172.206563 18.03355 
L 173.362693 18.33455 
L 174.133446 18.418768 
L 174.700705 18.560558 
L 175.430039 19.246738 
L 176.029714 19.489199 
L 175.685756 19.60097 
L 175.424637 19.725414 
L 175.97749 19.723305 
L 176.802267 19.529969 
L 177.238067 19.607297 
L 177.065188 19.809795 
L 176.958939 19.889966 
L 176.784259 19.961706 
L 177.045379 20.03486 
L 177.207453 19.993358 
L 177.353319 19.936385 
L 177.553211 19.961706 
L 177.673866 20.048929 
L 177.994413 20.44508 
L 178.275342 20.700617 
L 178.601291 20.907648 
L 179.010078 21.031612 
L 179.530516 21.035839 
L 179.530516 20.917508 
L 179.348633 20.837927 
L 179.096517 20.640068 
L 178.914634 20.563334 
L 178.914634 20.44508 
L 181.646485 20.198075 
L 182.301985 20.058777 
L 183.432902 19.70432 
L 184.063191 19.607297 
L 184.164037 19.697289 
L 184.124419 19.773229 
L 183.982154 19.828079 
L 183.760653 19.854802 
L 183.760653 19.961706 
L 184.435962 20.122091 
L 186.191765 20.7999 
L 186.191765 20.917508 
L 185.87302 21.171803 
L 185.691136 21.505833 
L 185.419212 21.810399 
L 184.819537 21.981774 
L 185.086059 22.076294 
L 185.727153 22.455909 
L 185.959459 22.632377 
L 186.089118 22.67756 
L 186.715805 22.800415 
L 186.867075 22.851257 
L 186.96612 22.968491 
L 187.034551 23.095633 
L 187.099381 23.176168 
L 187.124592 23.238341 
L 187.095779 23.317479 
L 187.088576 23.385318 
L 187.175016 23.414999 
L 187.491961 23.400865 
L 187.563994 23.414999 
L 187.682848 23.46023 
L 187.81791 23.498396 
L 187.958374 23.523842 
L 188.082631 23.532323 
L 188.358157 23.602303 
L 188.392373 23.767736 
L 188.25551 23.962909 
L 188.006996 24.126301 
L 186.422271 24.733505 
L 186.191765 24.957263 
L 186.389856 25.169755 
L 186.804046 25.264688 
L 187.214634 25.309325 
L 187.401919 25.373097 
L 187.542384 25.563736 
L 187.866532 25.783493 
L 188.223095 25.932399 
L 188.460804 25.908997 
L 190.088749 26.545353 
L 190.821685 26.623427 
L 191.180049 26.83285 
L 191.266488 26.871902 
L 191.799532 26.852021 
L 191.961607 26.871902 
L 192.518061 27.028128 
L 192.786384 27.079974 
L 194.565599 27.141768 
L 195.188684 27.053696 
L 195.451604 26.81226 
L 195.619081 26.758303 
L 195.973843 26.790251 
L 196.290788 26.935809 
L 196.355618 27.218485 
L 196.180938 27.348496 
L 195.145464 27.696013 
L 195.424592 27.771366 
L 195.74874 27.823975 
L 196.107104 27.846726 
L 196.277609 27.837514 
L 196.276769 27.839268 
L 196.304214 28.330627 
L 196.212732 28.60264 
L 196.546641 28.945283 
L 197.010911 29.625612 
L 197.052078 29.798507 
L 196.992615 30.439744 
L 197.008624 30.828557 
L 197.168717 31.190362 
L 197.706173 31.584102 
L 197.937165 31.95081 
L 198.401436 32.322239 
L 198.632427 33.232967 
L 199.095894 34.25935 
L 199.245356 34.590641 
L 199.279662 34.740074 
L 199.293384 35.059996 
L 199.361995 35.23323 
L 199.496931 35.345397 
L 199.835414 35.482664 
L 199.922322 35.581183 
L 200.21049 35.708913 
L 199.634154 36.253827 
L 199.471774 36.370253 
L 199.238495 36.430528 
L 199.018938 36.588087 
L 198.861132 36.804155 
L 198.799382 37.039479 
L 198.879429 37.326991 
L 199.012077 37.577567 
L 199.057818 37.833714 
L 198.394575 38.836712 
L 198.332824 38.985144 
L 198.035508 39.305469 
L 197.356255 39.649772 
L 196.052639 40.152978 
L 194.705568 40.494445 
L 193.63523 40.880612 
L 193.63523 40.991309 
L 193.767879 41.17002 
L 194.03775 41.801117 
L 194.088065 42.023709 
L 193.996583 42.360477 
L 193.767879 42.576325 
L 193.180108 42.825383 
L 193.43397 43.075902 
L 193.818194 43.223304 
L 194.282464 43.294251 
L 194.774179 43.311758 
L 195.217866 43.407595 
L 195.940573 43.825175 
L 196.544354 43.983324 
L 198.895438 44.832707 
L 199.238495 45.029843 
L 199.995507 45.763421 
L 200.226499 45.872962 
L 200.647316 45.969574 
L 201.283115 46.397768 
L 202.607315 46.656368 
L 203.891242 47.368156 
L 204.018423 47.438698 
L 204.706824 47.718487 
L 204.087034 48.362284 
L 203.915506 48.779245 
L 204.327174 48.965766 
L 204.430091 49.157436 
L 204.064164 49.578993 
L 203.528995 50.001237 
L 202.383184 50.503668 
L 202.506685 51.218583 
L 203.032706 52.004933 
L 203.496976 52.529594 
L 203.364328 52.857796 
L 203.860617 53.137153 
L 204.610768 53.330288 
L 205.239706 53.403542 
L 205.859496 53.539336 
L 206.202553 53.856744 
L 206.195692 54.226588 
L 205.76344 54.513427 
L 205.76344 54.625574 
L 206.083626 54.877493 
L 205.999006 55.136038 
L 205.761153 55.465298 
L 205.626217 55.935098 
L 205.848061 56.194914 
L 207.286613 56.739158 
L 206.879519 56.995481 
L 206.710277 57.149689 
L 206.639379 57.312365 
L 206.598212 57.478824 
L 206.504443 57.650477 
L 206.02645 58.090091 
L 205.907524 58.266566 
L 205.829764 59.376502 
L 205.642226 59.732392 
L 205.301456 60.06021 
L 204.894362 60.338276 
L 203.625051 60.99782 
L 203.334596 61.31389 
L 203.40092 61.700309 
L 203.764561 61.984583 
L 204.164794 62.126521 
L 204.471258 62.336879 
L 204.558166 62.818638 
L 204.786871 63.283201 
L 205.285447 63.583606 
L 206.360359 64.043396 
L 206.64624 64.359678 
L 206.863509 64.824152 
L 206.900102 65.306399 
L 206.639379 65.673357 
L 206.209414 66.025313 
L 206.028737 66.381683 
L 206.077654 66.513107 
L 206.149951 66.707381 
L 206.639379 66.972014 
L 208.084792 67.22392 
L 208.55135 67.396644 
L 208.55135 67.398542 
L 209.056787 67.548519 
L 210.095107 67.708016 
L 210.59597 67.832407 
L 210.941314 67.972963 
L 211.350695 68.19619 
L 211.5794 68.44941 
L 211.391862 68.679416 
L 211.474313 69.164611 
L 211.606845 69.945089 
L 211.606845 69.962225 
L 211.702901 70.292634 
L 211.764651 70.419785 
L 212.174032 70.795633 
L 212.674896 71.103962 
L 212.997369 71.465807 
L 212.883017 72.001464 
L 212.963064 72.058722 
L 213.054545 72.110258 
L 212.674896 72.501171 
L 212.375293 72.993527 
L 212.194616 73.512452 
L 212.169458 73.980038 
L 212.123717 74.217753 
L 211.977346 74.341181 
L 211.805818 74.426825 
L 211.686891 74.555067 
L 211.648012 74.737415 
L 211.643437 75.093606 
L 211.577113 75.306242 
L 210.589109 76.630639 
L 209.47303 78.03921 
L 208.686286 78.504432 
L 208.37296 78.779451 
L 208.370673 79.125753 
L 208.020755 79.625245 
L 207.810347 79.840913 
L 207.595364 79.972843 
L 207.238585 80.02485 
L 206.758305 80.015219 
L 205.937255 79.916987 
L 205.091048 79.574224 
L 204.775436 79.480854 
L 204.006988 79.365358 
L 203.899497 79.225821 
L 203.977256 78.892946 
L 204.352332 78.424634 
L 204.480407 78.177597 
L 204.36148 77.967142 
L 204.093896 77.96426 
L 202.870325 78.234304 
L 202.616463 78.127622 
L 202.737677 77.900845 
L 203.002974 77.633785 
L 203.174503 77.410017 
L 203.21567 77.130628 
L 203.147058 76.949217 
L 202.977817 76.802388 
L 202.710232 76.630639 
L 202.438074 76.517438 
L 201.841154 76.437822 
L 201.566709 76.336154 
L 201.358587 76.184154 
L 201.283115 76.072929 
L 201.235087 75.961238 
L 201.107012 75.804032 
L 200.9149 76.060465 
L 200.663325 76.129499 
L 199.860572 76.105528 
L 199.240782 76.250801 
L 198.996068 76.247924 
L 198.755928 76.178881 
L 198.611844 76.077723 
L 198.495205 75.974659 
L 198.32825 75.894134 
L 197.504913 75.751796 
L 196.800503 75.810742 
L 196.269908 76.096419 
L 195.95887 76.630639 
L 195.711869 76.819661 
L 195.970305 76.909868 
L 196.718169 76.961694 
L 197.159569 77.056715 
L 197.125264 77.094151 
L 196.937726 77.163267 
L 196.917142 77.358165 
L 197.482043 77.654916 
L 198.298519 77.782675 
L 198.888577 77.96426 
L 198.755928 78.427518 
L 198.106407 78.720786 
L 196.370538 78.6477 
L 195.574646 78.736173 
L 195.334506 78.862167 
L 194.929699 79.187332 
L 194.659827 79.322051 
L 191.21096 80.166441 
L 190.785569 80.181853 
L 189.975955 80.125984 
L 189.543703 80.176073 
L 189.30585 80.266627 
L 188.967367 80.497871 
L 188.74095 80.588457 
L 188.46193 80.610624 
L 188.246947 80.575929 
L 188.05941 80.579784 
L 187.855862 80.713752 
L 187.762093 80.89498 
L 187.789538 81.053102 
L 187.84214 81.18425 
L 187.830705 81.282623 
L 187.67976 81.39837 
L 187.551685 81.422486 
L 187.416749 81.424416 
L 186.776376 81.638594 
L 186.37843 81.682015 
L 185.362981 81.621227 
L 184.884988 81.647278 
L 184.043355 81.814221 
L 183.616821 81.859581 
L 181.629377 81.85379 
L 180.625363 81.955134 
L 179.719693 82.248613 
L 179.975842 82.535428 
L 179.888934 82.787554 
L 179.593905 82.992399 
L 179.225691 83.142198 
L 179.353765 83.292022 
L 179.333182 83.405132 
L 179.200533 83.493116 
L 178.980977 83.559835 
L 178.596753 83.818056 
L 178.221677 84.001854 
L 177.810009 84.057001 
L 177.316007 83.926395 
L 177.169636 83.827728 
L 176.858597 83.546297 
L 176.739671 83.473778 
L 176.469799 83.420601 
L 176.408049 83.443805 
L 176.394327 83.511487 
L 176.261678 83.588845 
L 175.43148 83.906081 
L 175.307979 84.025073 
L 175.072414 84.404408 
L 174.608143 84.532179 
L 174.239928 84.444092 
L 173.880862 84.308591 
L 173.450897 84.2873 
L 172.714468 85.349574 
L 172.396569 85.660652 
L 171.852251 85.8807 
L 170.685858 85.84386 
L 170.061494 85.960202 
L 170.05692 85.962142 
L 170.054633 85.962142 
L 169.853372 85.992199 
L 169.645251 86.000926 
L 169.439417 85.99123 
L 169.245018 85.960202 
L 169.073489 85.890395 
L 168.890526 85.869066 
L 168.705275 85.893304 
L 168.522311 85.962142 
L 168.378227 86.72747 
L 168.234143 87.07009 
L 167.920818 87.271064 
L 167.438169 87.529195 
L 167.259861 87.624577 
L 166.502849 87.601264 
L 164.453655 86.924485 
L 164.268404 86.894396 
L 164.069431 86.91672 
L 163.758392 87.028347 
L 163.62117 87.05747 
L 163.22551 87.027377 
L 162.871018 87.039026 
L 162.509665 87.109893 
L 162.226071 87.262325 
L 161.736643 87.674119 
L 161.489642 87.803329 
L 161.201474 87.820817 
L 160.019071 87.704234 
L 158.363249 87.771267 
L 157.4713 87.914095 
L 156.858372 88.199817 
L 156.693704 88.277581 
L 156.615945 88.370905 
L 156.570204 88.466184 
L 156.510741 88.550777 
L 156.515315 88.589673 
L 156.545046 88.652883 
L 156.558769 88.726795 
L 156.510741 88.79585 
L 156.421546 88.822111 
L 156.222573 88.818221 
L 156.142526 88.84351 
L 155.879516 88.971915 
L 155.229994 89.170394 
L 154.992141 89.298845 
L 154.306027 89.979355 
L 154.054452 90.123506 
L 153.807451 90.217995 
L 153.626774 90.365107 
L 153.567311 90.664275 
L 153.130485 90.970366 
L 153.011559 91.147829 
L 152.942947 91.483348 
L 153.009272 91.717504 
L 153.137346 91.919512 
L 153.137346 92.087398 
L 152.828595 92.210404 
L 152.451232 92.184045 
L 152.227102 91.992715 
L 151.961804 91.472617 
L 151.938934 91.375071 
L 151.900054 91.264856 
L 151.808572 91.141978 
L 151.712516 91.070794 
L 151.326005 90.857276 
L 151.268829 90.813408 
L 151.245959 90.771492 
L 151.266542 90.733477 
L 151.326005 90.697413 
L 151.35345 90.683768 
L 151.383181 90.673047 
L 151.412913 90.667199 
L 151.447219 90.664275 
L 151.545562 90.558044 
L 151.556997 90.471315 
L 151.483811 90.403106 
L 151.326005 90.355364 
L 150.690206 90.346595 
L 150.367733 90.292035 
L 150.120731 90.173185 
L 150.033824 90.026104 
L 150.040685 89.702806 
L 149.910323 89.528545 
L 149.484932 89.364051 
L 148.423399 89.321303 
L 147.865703 89.298845 
L 148.375715 89.5889 
L 148.554104 89.756356 
L 148.636438 90.02513 
L 148.595271 90.266705 
L 148.446613 90.354389 
L 148.217908 90.436236 
L 147.941176 90.664275 
L 148.16988 90.888471 
L 149.263089 91.26193 
L 149.805119 91.587735 
L 150.054407 91.798497 
L 150.223649 92.022973 
L 150.287686 92.307064 
L 150.132167 92.736784 
L 150.145889 93.020119 
L 150.338001 93.306474 
L 150.651326 93.463861 
L 151.005819 93.576297 
L 151.326005 93.72884 
L 151.522691 93.915643 
L 151.568432 94.109332 
L 151.573006 94.281534 
L 151.643905 94.401899 
L 154.992141 95.390859 
L 155.015012 95.390859 
L 155.353495 95.575059 
L 156.167684 95.622095 
L 156.540472 95.818104 
L 156.597648 96.095527 
L 156.444416 96.351458 
L 156.419259 96.557431 
L 157.324929 96.851757 
L 157.640542 96.919466 
L 157.777765 97.05686 
L 157.709153 97.425963 
L 157.530764 97.716637 
L 157.020752 98.240276 
L 156.858372 98.534153 
L 156.414685 98.458463 
L 156.279749 98.726846 
L 156.268314 99.126122 
L 156.197415 99.438975 
L 155.84521 99.63776 
L 154.930391 99.854306 
L 154.669668 100.140815 
L 154.779446 100.34172 
L 155.008151 100.586014 
L 155.46556 100.953561 
L 155.78346 101.114224 
L 156.121943 101.243365 
L 156.858372 101.440561 
L 157.164836 101.530299 
L 157.3478 101.732488 
L 157.363809 101.986025 
L 157.176271 102.219892 
L 157.233447 102.245552 
L 157.40955 102.293913 
L 157.304346 102.443946 
L 157.288337 102.490343 
L 157.514754 102.644357 
L 158.043062 102.807283 
L 158.276341 102.951472 
L 158.43186 103.158906 
L 158.534777 103.582805 
L 158.623972 103.807183 
L 158.765769 104.036558 
L 158.905279 104.207637 
L 159.079094 104.351051 
L 159.319234 104.492508 
L 159.568522 104.535048 
L 159.801801 104.516251 
L 159.966469 104.591442 
L 159.9962 104.914036 
L 160.060237 105.542719 
L 160.170016 105.853749 
L 160.421591 106.131186 
L 160.853843 106.334361 
L 161.873866 106.60599 
L 162.31984 106.866786 
L 163.044834 107.786589 
L 163.394752 107.992103 
L 163.833865 108.082463 
L 165.137482 108.190709 
L 165.551437 108.158929 
L 165.453094 107.911679 
L 165.757271 107.857074 
L 166.603479 107.989124 
L 166.978554 108.103317 
L 167.298741 108.250299 
L 167.920818 108.624806 
L 168.305042 108.715226 
L 168.428542 108.87224 
L 168.458274 109.058106 
L 168.558904 109.237049 
L 169.265601 109.716381 
L 169.270175 109.71837 
L 169.544621 109.806904 
L 171.616686 111.412866 
L 171.907141 111.792594 
L 172.259346 112.116627 
L 172.885997 112.326059 
L 174.223919 112.361967 
L 174.667606 112.459721 
L 174.937478 112.593401 
L 175.60987 113.10934 
L 176.549846 113.658512 
L 176.796847 113.995158 
L 176.810569 114.537832 
L 177.128469 114.834782 
L 177.764268 115.177837 
L 178.464104 115.466976 
L 178.980977 115.610077 
L 179.209681 115.272873 
L 179.42009 115.059804 
L 179.726554 114.97879 
L 179.869188 114.99621 
L 180.234278 115.0408 
L 180.623076 115.177837 
L 180.998152 115.35091 
L 181.375515 115.470979 
L 181.778035 115.444963 
L 181.832924 115.811254 
L 182.06849 116.163663 
L 182.413834 116.466116 
L 182.791197 116.683498 
L 183.209726 116.797719 
L 184.034207 116.872871 
L 184.345245 116.973083 
L 184.859831 117.437197 
L 185.927882 118.671222 
z
" clip-path="url(#pad57915457)" style="stroke: #000000; stroke-linejoin: miter"/>
   </g>
   <g id="line2d_1">
    <path d="M 186.360134 118.931267 
L 185.648862 119.92589 
L 185.763214 119.901766 
L 186.108558 120.231511 
L 186.385291 120.308936 
L 186.090262 120.472857 
L 186.033086 120.705208 
L 186.133716 121.661336 
L 185.927882 122.198177 
L 185.260064 122.877449 
L 184.361255 123.177422 
L 184.164569 123.698431 
L 184.116541 123.668667 
L 183.209726 123.429067 
L 182.871244 123.124479 
L 182.125666 122.846196 
L 179.831758 122.471241 
L 178.368048 122.688436 
L 178.047862 122.931891 
L 178.217103 123.44218 
L 178.470965 123.801858 
L 178.409215 123.992091 
L 178.006695 124.541295 
L 177.965528 124.723083 
L 177.960954 125.478865 
L 177.718527 125.815513 
L 177.592739 126.230664 
L 177.283988 126.535689 
L 175.120442 127.651359 
L 174.377151 127.897033 
L 171.328518 128.211683 
L 168.67783 128.901621 
L 167.854493 129.370295 
L 166.797878 129.770666 
L 166.827609 129.817361 
L 165.267843 130.065082 
L 162.953352 131.534879 
L 162.667471 131.559792 
L 162.532535 131.701145 
L 162.489081 131.966617 
L 162.797833 132.463163 
L 163.003667 132.657574 
L 164.561146 133.631197 
L 164.959092 134.312058 
L 165.256408 134.675096 
L 166.411367 135.199483 
L 166.784155 135.418907 
L 167.534307 136.464616 
L 168.115217 136.956177 
L 166.523432 138.617555 
L 166.477691 138.875592 
L 165.919652 139.403129 
L 166.281005 139.624979 
L 167.845345 139.729516 
L 168.405672 139.5804 
L 169.023174 139.73874 
L 169.727585 140.386184 
L 169.965438 140.928848 
L 169.848798 141.453314 
L 169.572066 141.902037 
L 169.155823 142.173212 
L 169.19699 142.64177 
L 168.931693 143.015943 
L 169.000304 143.59494 
L 169.128379 143.817676 
L 169.13524 143.983343 
L 168.350783 144.521685 
L 167.975707 144.476899 
L 167.639511 144.328139 
L 166.795591 144.372404 
L 165.71153 143.873238 
L 164.304997 143.058098 
L 163.964227 143.022112 
L 163.417622 142.753802 
L 163.300983 142.263106 
L 163.570854 141.802419 
L 164.174635 141.620664 
L 162.813842 140.874467 
L 163.042547 140.527722 
L 162.662897 140.557468 
L 161.42103 140.363622 
L 160.631999 140.363622 
L 159.422151 140.606704 
L 158.09109 141.23313 
L 157.16941 141.281371 
L 156.858372 141.188483 
L 156.021313 140.737499 
L 155.56619 140.03755 
L 155.20255 139.994492 
L 153.958396 140.233386 
L 152.19737 140.110344 
L 151.463228 140.28876 
L 151.243672 140.170325 
L 151.122458 139.951435 
L 151.540988 139.235108 
L 151.486099 139.241767 
L 150.971513 139.400055 
L 150.132167 139.916581 
L 150.365446 140.156483 
L 150.719938 140.420028 
L 150.73366 141.13614 
L 150.653613 141.262896 
L 149.846286 141.776745 
L 144.762181 141.642227 
L 142.65581 141.962635 
L 142.433967 142.300606 
L 142.205262 142.346842 
L 140.958821 142.19119 
L 139.156628 142.186567 
L 137.706641 142.118766 
L 137.089138 142.444457 
L 136.938193 142.655131 
L 136.652312 143.299746 
L 136.249792 143.572309 
L 135.769512 143.688555 
L 134.731193 143.793497 
L 133.686012 143.65152 
L 133.182862 143.723535 
L 132.139968 144.455793 
L 132.652267 144.597363 
L 132.736888 144.745646 
L 132.547063 144.943388 
L 132.187996 145.037638 
L 130.815768 145.131896 
L 129.297169 145.958428 
L 128.766574 145.921313 
L 128.814602 145.37917 
L 128.341184 145.260677 
L 127.783144 145.353924 
L 125.905479 146.047096 
L 123.289097 145.916158 
L 123.062679 145.646084 
L 123.115281 145.644022 
L 123.236495 145.414205 
L 123.163309 145.189588 
L 122.058666 144.462485 
L 120.768771 143.982314 
L 121.667581 143.54865 
L 120.92429 143.234444 
L 120.304501 143.276093 
L 119.412552 143.524991 
L 118.568632 143.538363 
L 118.296473 143.278149 
L 115.375914 142.605799 
L 114.840746 142.601688 
L 114.534281 142.731703 
L 113.804713 143.250383 
L 113.54399 143.278149 
L 112.256382 143.094084 
L 111.959066 142.924444 
L 112.00252 142.627381 
L 112.137456 142.453705 
L 111.961353 142.231257 
L 111.089989 142.392052 
L 111.122007 142.563662 
L 111.46049 143.005662 
L 111.208915 143.983343 
L 111.709778 144.215425 
L 111.920187 144.637521 
L 111.924761 145.064936 
L 111.723501 145.513134 
L 111.032812 146.216206 
L 110.015076 146.613822 
L 109.125415 147.548366 
L 108.693163 147.791037 
L 107.220305 148.279645 
L 105.363223 148.376773 
L 105.74516 147.988313 
L 106.145393 147.86953 
L 106.188847 147.616515 
L 106.138532 147.485384 
L 106.538765 146.746394 
L 106.554774 146.386889 
L 106.14768 146.2523 
L 105.175685 146.360589 
L 104.704554 146.582358 
L 104.366071 146.488488 
L 103.757716 146.654572 
L 103.423807 146.335836 
L 103.343761 145.914096 
L 103.101334 145.740911 
L 103.604484 145.501282 
L 103.707401 145.291587 
L 103.513002 145.057725 
L 102.424368 144.084712 
L 101.539281 144.22263 
L 101.296854 143.717362 
L 100.789129 143.36248 
L 100.727379 143.033422 
L 100.125886 143.204108 
L 99.467216 143.172231 
L 98.68962 143.040619 
L 98.239072 143.155778 
L 97.788524 143.013887 
L 97.703903 142.803656 
L 97.747357 142.561607 
L 97.674171 142.326293 
L 97.415735 142.154721 
L 96.770788 142.108494 
L 96.450601 142.212251 
L 95.968034 142.553386 
L 95.373402 143.219533 
L 94.769622 143.394363 
L 93.351653 143.409277 
L 91.91019 143.15721 
L 85.84099 140.860615 
L 84.981061 140.740064 
L 84.15315 140.740577 
L 83.853547 140.456951 
L 82.629976 140.456951 
L 80.162253 140.28876 
L 79.743723 140.389261 
L 79.391518 140.621065 
L 78.586478 140.776997 
L 77.719687 140.826757 
L 77.177657 140.740577 
L 76.205662 140.250306 
L 76.203375 140.112394 
L 76.610469 140.054979 
L 76.038707 139.727466 
L 75.316 139.472804 
L 74.721368 139.45641 
L 74.522395 139.845338 
L 74.703072 139.967837 
L 73.534391 139.978089 
L 73.436048 139.697744 
L 73.166176 139.404154 
L 73.239362 139.274549 
L 73.593854 138.931918 
L 73.447483 138.731718 
L 72.592128 138.547936 
L 72.205617 138.123673 
L 71.919736 138.066367 
L 71.718476 138.193263 
L 71.604123 138.625233 
L 71.329678 138.733766 
L 71.112408 138.635984 
L 70.979759 137.99525 
L 70.570378 137.883725 
L 70.0192 137.86531 
L 69.666995 137.987065 
L 69.872829 138.299191 
L 69.53892 138.401548 
L 67.926552 138.603221 
L 67.524032 139.013853 
L 67.357077 139.410301 
L 67.121511 139.543509 
L 66.343915 139.879678 
L 66.318758 140.026273 
L 66.467416 140.340548 
L 66.325619 140.555416 
L 66.783028 140.64312 
L 67.807625 141.063276 
L 68.528045 140.950397 
L 69.166131 140.716468 
L 70.549795 140.637478 
L 71.105547 140.737499 
L 70.979759 141.207983 
L 70.835675 141.163851 
L 70.80137 141.009913 
L 70.508628 141.080722 
L 70.494905 141.280858 
L 70.556656 141.426623 
L 70.371405 142.005774 
L 70.074089 142.066377 
L 69.225594 141.420463 
L 68.562351 141.461527 
L 67.885385 141.733615 
L 67.599504 142.168076 
L 66.917964 142.237935 
L 65.502282 142.232798 
L 64.445666 142.01091 
L 64.052294 141.541606 
L 62.821863 141.419437 
L 61.513672 141.586782 
L 61.252949 141.780853 
L 60.367862 142.011937 
L 59.910452 142.328861 
L 59.597127 142.504058 
L 58.602261 142.639714 
L 55.663406 142.555441 
L 55.549054 142.182458 
L 55.414118 142.097194 
L 53.675962 141.948255 
L 52.921237 142.5873 
L 52.504994 142.731189 
L 50.174493 142.924444 
L 49.03097 142.556469 
L 49.08829 142.556774 
L 49.609593 142.559552 
L 49.845159 142.421337 
L 50.135614 141.923606 
L 49.63475 141.955445 
L 48.506115 142.161348 
L 48.601005 141.697675 
L 46.926887 140.151869 
L 46.942896 139.60602 
L 47.439185 139.239206 
L 47.450621 138.915532 
L 47.176175 138.221919 
L 47.235638 137.94716 
L 47.674751 137.210736 
L 47.974354 137.112074 
L 48.022382 136.890758 
L 47.90803 136.252121 
L 48.390597 135.697081 
L 48.363152 135.376039 
L 48.482079 135.112237 
L 49.282545 134.49968 
L 49.234517 133.883919 
L 48.278532 132.877475 
L 48.20992 132.064788 
L 48.498088 131.38084 
L 48.921192 130.931564 
L 49.111017 130.407828 
L 50.743968 128.95994 
L 50.883478 128.627313 
L 51.082451 127.816992 
L 52.150502 127.225498 
L 52.177947 126.951644 
L 51.850899 126.20487 
L 51.876056 125.947979 
L 52.150502 125.208517 
L 52.559883 124.706922 
L 52.719977 124.157628 
L 53.53874 123.607626 
L 53.278016 123.193054 
L 53.280303 122.514576 
L 53.467841 121.877851 
L 54.659393 120.920508 
L 55.363803 120.680059 
L 56.861819 119.653525 
L 57.005903 119.10902 
L 57.257478 119.060812 
L 58.174584 118.957375 
L 58.476474 118.506596 
L 58.524502 118.458418 
L 58.718901 118.4534 
L 59.665738 118.133278 
L 59.940184 117.865419 
L 60.944197 116.266807 
L 61.634886 115.512006 
L 62.099156 115.204846 
L 61.843007 115.065806 
L 59.668025 114.805783 
L 55.759462 113.703458 
L 54.499299 113.779371 
L 52.413512 113.510704 
L 51.624481 113.713446 
L 50.160771 113.673494 
L 49.589009 113.672495 
L 49.383175 113.571622 
L 49.005812 113.205173 
L 48.514097 113.058432 
L 47.546677 112.961616 
L 46.773655 112.575443 
L 46.000633 111.860383 
L 46.055522 111.816519 
L 46.220189 111.755711 
L 46.073818 111.476642 
L 45.673585 111.392937 
L 44.7176 111.356069 
L 44.621544 111.140869 
L 43.761876 111.194158 
L 43.304205 111.329166 
L 42.762174 111.856395 
L 41.973143 112.024889 
L 41.609503 112.373936 
L 38.272701 112.020901 
L 37.30528 111.660021 
L 37.122317 111.880321 
L 37.158909 112.078734 
L 36.479656 112.324065 
L 35.992515 112.10466 
L 35.736366 111.575303 
L 35.747801 110.894843 
L 35.269809 110.8809 
L 33.643718 110.413928 
L 32.998771 110.449764 
L 31.852961 110.360176 
L 31.724886 110.62797 
L 31.976461 111.259422 
L 31.594524 111.549391 
L 31.313217 111.586266 
L 30.451001 111.403898 
L 29.20456 111.335145 
L 28.920966 111.065162 
L 29.094782 110.585158 
L 28.866077 110.280549 
L 28.470418 110.398001 
L 28.271445 110.054643 
L 28.003861 109.64178 
L 27.553312 109.44884 
L 27.564748 109.172427 
L 25.722531 108.110268 
L 25.583021 107.886858 
L 25.704235 107.711146 
L 26.097607 107.700227 
L 26.193663 107.54539 
L 26.11819 107.430271 
L 24.890046 106.655565 
L 24.9335 106.647633 
L 24.869463 106.38194 
L 24.73224 106.222362 
L 24.35259 106.015247 
L 22.076978 105.417939 
L 21.050775 105.635436 
L 21.171308 103.505718 
L 21.297095 103.295244 
L 22.637305 101.992932 
L 22.321692 101.801538 
L 22.664749 101.532272 
L 24.29084 100.94272 
L 24.247386 100.901327 
L 24.096441 100.803766 
L 24.27483 100.682568 
L 24.466942 100.724936 
L 24.309136 100.606703 
L 24.153617 100.314142 
L 24.169626 100.14377 
L 24.393757 99.964567 
L 24.336581 99.745042 
L 24.412053 99.06317 
L 22.195905 98.889093 
L 20.615555 98.284499 
L 20.105544 98.387694 
L 19.86083 97.995612 
L 19.755626 97.891478 
L 18.337657 97.395526 
L 17.230726 96.083762 
L 16.992873 96.344593 
L 16.81677 96.178869 
L 16.480575 95.645614 
L 16.002582 95.170454 
L 16.064332 94.959894 
L 15.783025 94.40875 
L 15.542885 94.332418 
L 15.831053 94.049656 
L 15.780738 94.045743 
L 15.60921 94.038895 
L 15.856211 93.24685 
L 16.009443 92.973216 
L 16.27474 92.71627 
L 16.196981 92.600033 
L 15.97285 92.500413 
L 16.020878 92.407639 
L 16.13523 92.13328 
L 16.325055 92.068851 
L 16.931123 91.990763 
L 17.063772 91.812159 
L 17.077494 91.599443 
L 16.953993 91.384825 
L 16.658964 91.205365 
L 16.887669 91.041542 
L 18.065498 90.545375 
L 19.01691 90.399209 
L 19.424004 90.198512 
L 19.325661 90.029026 
L 19.517773 89.658021 
L 20.036933 89.417581 
L 21.420596 89.453594 
L 21.697329 89.293006 
L 21.651588 89.030287 
L 20.88314 88.302855 
L 20.853408 88.080269 
L 21.164447 87.385649 
L 21.095835 87.007962 
L 20.938029 86.99146 
L 20.626991 86.631404 
L 20.617842 86.31223 
L 20.864844 86.181294 
L 19.504051 86.049408 
L 18.96202 85.962142 
L 17.9946 86.081408 
L 17.818497 86.004804 
L 17.450282 85.701361 
L 17.626385 85.539503 
L 17.189559 85.488141 
L 17.159827 85.402866 
L 17.333643 85.2585 
L 16.965428 85.007611 
L 17.372523 84.662873 
L 18.815649 83.959287 
L 18.971169 83.792907 
L 18.920854 83.680715 
L 17.393106 83.660406 
L 16.937984 83.531793 
L 16.679548 83.263022 
L 16.974577 83.161529 
L 15.202115 81.828697 
L 14.833901 81.810361 
L 13.66522 81.921351 
L 13.578312 81.765004 
L 13.64921 81.388724 
L 13.24669 81.21704 
L 13.260412 81.183285 
L 13.297005 81.148568 
L 13.345033 80.905585 
L 12.718382 80.314798 
L 13.054578 80.360081 
L 13.372478 80.201119 
L 13.489117 79.979584 
L 13.420506 79.647387 
L 13.614905 79.460641 
L 13.919082 79.368245 
L 14.417658 79.391343 
L 14.799595 79.042051 
L 14.806456 78.893908 
L 14.660085 78.388103 
L 14.820178 78.212198 
L 13.576025 77.904688 
L 13.349607 77.657798 
L 13.402209 77.235268 
L 13.491404 76.981849 
L 12.697799 77.032719 
L 11.810425 76.908908 
L 10.634883 77.137347 
L 10.612012 76.669016 
L 10.271242 76.135252 
L 10.145455 75.701001 
L 10.765244 75.528511 
L 11.334719 75.800198 
L 11.629748 75.943024 
L 12.036842 75.920017 
L 12.309001 75.76186 
L 13.031708 75.10893 
L 15.078615 74.262721 
L 16.338778 73.902568 
L 16.668112 73.672588 
L 16.203842 73.444582 
L 16.885382 73.173156 
L 16.377657 73.081426 
L 15.275301 73.479472 
L 14.756141 73.327495 
L 14.598335 72.985884 
L 14.662372 72.573264 
L 15.078615 72.001464 
L 15.545172 71.703305 
L 16.910539 70.489797 
L 17.692709 70.122652 
L 17.811636 69.893208 
L 18.008322 69.327952 
L 17.674413 69.120119 
L 17.704145 68.781133 
L 17.953433 68.026152 
L 17.688135 67.091079 
L 16.796187 66.55708 
L 15.323329 65.509982 
L 15.227273 65.285097 
L 15.604636 64.61364 
L 14.10662 64.274568 
L 13.598895 63.941776 
L 13.896212 63.423943 
L 13.182653 63.11557 
L 12.928791 63.053248 
L 12.066574 63.015007 
L 12.08487 62.818638 
L 12.576585 62.56805 
L 12.615465 62.19915 
L 12.320436 61.84597 
L 11.817286 61.648462 
L 11.892758 61.485871 
L 12.260973 61.352524 
L 13.592034 61.177272 
L 14.367343 60.916819 
L 15.26844 60.79298 
L 16.864798 61.004413 
L 16.567482 60.765201 
L 15.467413 60.216405 
L 16.219851 60.008466 
L 16.93341 60.180176 
L 17.644681 60.474284 
L 18.392546 60.631028 
L 19.266198 60.564655 
L 19.769348 60.929534 
L 20.976909 61.102378 
L 21.043233 61.386448 
L 21.873431 61.268191 
L 21.964913 61.086364 
L 21.784236 60.675279 
L 23.652754 60.889507 
L 24.018681 60.804751 
L 25.107316 60.378276 
L 27.309742 59.994354 
L 29.268597 59.962369 
L 29.867804 59.797287 
L 30.382389 59.484616 
L 31.068503 58.917409 
L 31.34981 58.846946 
L 31.315504 58.502237 
L 30.62939 58.107455 
L 28.346918 57.49852 
L 28.301177 57.221881 
L 28.454409 57.032976 
L 29.330348 56.795383 
L 29.627664 56.461371 
L 30.357232 56.164013 
L 31.79121 56.082551 
L 32.07023 55.953821 
L 32.559658 55.450328 
L 32.989623 55.223484 
L 34.380147 54.816726 
L 35.13716 54.252745 
L 36.18234 53.859079 
L 35.99709 53.687756 
L 35.800404 53.301828 
L 35.814126 52.971113 
L 35.974219 52.698806 
L 36.417906 52.183354 
L 36.605444 51.526234 
L 36.294406 51.063173 
L 34.947335 49.972894 
L 34.670602 50.126234 
L 34.464768 50.2229 
L 33.330393 50.322831 
L 32.706029 50.272166 
L 31.562506 50.054672 
L 29.227431 49.789854 
L 28.790605 49.537198 
L 28.655669 49.269303 
L 28.545891 48.632194 
L 28.273732 48.350692 
L 28.63966 48.334463 
L 29.867804 48.027111 
L 28.987291 47.608227 
L 29.08106 47.310417 
L 29.124514 47.149748 
L 28.939263 46.962264 
L 29.719146 46.683205 
L 30.460149 46.56985 
L 32.559658 46.553195 
L 33.732913 46.728088 
L 35.157743 46.717445 
L 35.946775 46.839151 
L 36.349295 46.456049 
L 36.511675 45.825354 
L 36.717509 43.896638 
L 36.909621 43.30024 
L 37.30528 42.758162 
L 39.121196 41.365775 
L 39.601476 40.77039 
L 39.805023 40.203913 
L 39.839328 39.567694 
L 39.55116 38.143492 
L 39.359049 37.938485 
L 39.397928 37.58397 
L 39.862199 36.890051 
L 39.90794 36.330986 
L 39.844172 35.829327 
L 40.314188 35.642524 
L 40.706767 35.324346 
L 40.782402 35.113976 
L 40.616726 34.919453 
L 41.174982 34.514776 
L 41.475719 34.441613 
L 42.467974 34.497561 
L 43.649314 34.809653 
L 43.118071 34.435158 
L 42.24107 34.281683 
L 37.202363 34.196353 
L 36.384789 34.002782 
L 36.06064 33.512623 
L 36.150682 31.913222 
L 36.860207 30.958777 
L 38.515164 30.858831 
L 38.675437 30.687525 
L 38.635819 30.466313 
L 38.439529 30.340751 
L 37.504902 30.046903 
L 37.45808 29.816613 
L 37.771424 29.623452 
L 38.48455 29.389018 
L 40.541091 28.422843 
L 42.287891 28.102723 
L 45.929158 27.998891 
L 46.165066 28.151087 
L 46.689106 28.210125 
L 49.9522 27.890097 
L 56.591839 27.454368 
L 58.362049 27.696013 
L 58.362049 27.826107 
L 58.217983 28.316832 
L 58.837467 28.950987 
L 59.748684 29.503732 
L 60.490624 29.855822 
L 60.303338 30.07828 
L 61.383833 30.406383 
L 61.315401 30.721783 
L 61.106506 30.883102 
L 60.227703 31.151569 
L 58.967126 31.304409 
L 59.574004 32.110548 
L 59.874742 32.263583 
L 60.778756 32.154882 
L 61.038074 32.222104 
L 62.529157 32.984124 
L 63.407959 32.881045 
L 63.679884 32.754364 
L 64.146297 32.385176 
L 64.639723 31.78027 
L 64.758577 31.177992 
L 64.117484 30.824567 
L 62.783073 30.89738 
L 62.826293 30.640423 
L 63.015379 30.352165 
L 63.173852 29.756735 
L 63.361138 29.50872 
L 64.031044 29.290706 
L 65.378061 29.361233 
L 66.246058 29.987007 
L 67.139267 30.203798 
L 69.028332 30.379273 
L 69.883724 30.57477 
L 69.883724 30.704654 
L 68.868059 31.200132 
L 68.509695 31.578743 
L 68.374633 32.089097 
L 68.399844 33.076477 
L 68.529504 33.511907 
L 68.82844 33.835777 
L 68.89327 33.400161 
L 68.659163 32.30149 
L 68.677171 31.783129 
L 69.015726 31.401557 
L 69.98457 31.02018 
L 70.186262 30.52054 
L 70.076412 30.43278 
L 68.444865 28.415016 
L 68.374633 28.12406 
L 68.558317 27.572338 
L 69.386696 26.602843 
L 70.351938 25.087584 
L 71.101081 24.671912 
L 72.091534 24.481504 
L 72.815466 24.550866 
L 74.144474 25.148503 
L 74.981857 25.351839 
L 76.712449 25.551687 
L 77.661484 25.538929 
L 79.26962 25.352548 
L 80.155626 25.385852 
L 80.569815 25.158421 
L 82.329221 24.957263 
L 84.079622 24.965053 
L 84.457795 24.838294 
L 85.122299 24.97426 
L 86.065931 25.018171 
L 86.552154 25.315702 
L 88.70594 27.09631 
L 90.521171 28.010269 
L 90.823709 28.538832 
L 92.68216 29.738915 
L 96.7016 30.503415 
L 98.207089 30.57477 
L 97.931563 30.346458 
L 97.101383 30.116789 
L 94.306503 29.855822 
L 92.710973 29.368357 
L 91.98344 28.980893 
L 91.724121 28.422843 
L 91.572852 27.641992 
L 91.351351 27.546753 
L 89.438875 26.986938 
L 88.922039 26.462319 
L 88.572679 25.899779 
L 88.540264 25.551687 
L 87.733495 25.402859 
L 85.500472 24.60183 
L 84.673894 24.51123 
L 81.862807 24.481504 
L 80.458164 24.226759 
L 79.96834 24.481504 
L 79.455105 24.40224 
L 78.677149 24.126301 
L 77.93701 23.700568 
L 76.107373 21.981774 
L 77.375153 21.785014 
L 77.904595 21.85271 
L 79.249811 22.196225 
L 79.734233 22.089697 
L 80.083593 21.556585 
L 80.200646 20.917508 
L 79.53254 20.571781 
L 79.230002 20.395109 
L 79.293031 20.090433 
L 78.752783 20.01446 
L 77.2599 20.240292 
L 76.712449 20.44508 
L 75.653565 19.489199 
L 75.833647 19.143453 
L 76.402708 18.573194 
L 76.246036 18.193506 
L 76.51796 18.098791 
L 78.070271 17.871526 
L 78.758186 17.38357 
L 78.979687 17.124303 
L 78.473656 17.169143 
L 77.164456 17.595257 
L 77.315726 17.359741 
L 73.67626 17.595257 
L 72.680404 17.958495 
L 72.091534 17.861006 
L 71.461246 17.598061 
L 71.003836 17.21959 
L 70.940807 16.771992 
L 71.254151 16.594851 
L 72.538139 16.407256 
L 73.058577 16.419154 
L 73.058577 16.30158 
L 72.064522 16.085379 
L 71.713361 16.30158 
L 71.524275 16.112663 
L 71.589104 15.9189 
L 72.0159 15.597243 
L 72.487716 15.693026 
L 74.281337 15.47002 
L 77.274307 15.401524 
L 79.899909 14.575902 
L 80.049377 14.297419 
L 80.051178 13.882341 
L 79.48752 13.489114 
L 77.423775 12.428355 
L 77.315726 12.246731 
L 77.112232 12.167415 
L 76.19021 12.232815 
L 75.941697 12.310746 
L 75.790427 12.182721 
L 76.548574 11.948996 
L 75.48969 10.782929 
L 74.853999 10.605201 
L 73.658251 10.135413 
L 72.907308 9.968947 
L 72.907308 9.851751 
L 73.031565 9.543945 
L 72.743433 9.197479 
L 72.0159 8.563202 
L 71.889842 8.115542 
L 71.988887 7.721397 
L 72.288696 7.23001 
L 73.882022 7.353227 
L 75.906059 7.067234 
L 77.673946 7.20232 
L 79.412101 7.51821 
L 84.475623 8.155695 
L 84.804958 8.766509 
L 85.196043 8.836854 
L 87.14232 8.812232 
L 87.672915 8.674194 
L 88.315575 8.537061 
L 88.761549 8.724306 
L 89.784634 8.690565 
L 91.102837 8.393652 
L 91.522429 8.161194 
L 92.062676 8.065742 
L 92.628135 7.740062 
L 92.700168 8.352136 
L 93.771659 8.528597 
L 95.131281 8.560434 
L 97.013142 8.98345 
L 97.537182 9.14968 
L 98.023405 9.603554 
L 99.60813 9.386628 
L 99.521691 9.032622 
L 100.04393 9.016693 
L 100.762459 9.215491 
L 101.270291 9.503053 
L 101.713294 10.220743 
L 102.327375 10.549671 
L 101.751111 10.630886 
L 101.270291 10.549671 
L 101.282897 10.587154 
L 100.362676 11.016265 
L 101.264889 10.947506 
L 101.842953 10.932922 
L 102.176106 11.132962 
L 102.66593 11.032935 
L 102.788386 11.13713 
L 102.629914 11.376839 
L 102.741565 11.613849 
L 102.755971 11.952474 
L 102.518263 12.963758 
L 102.154496 13.402689 
L 101.875368 13.585309 
L 101.162242 13.88513 
L 99.312795 14.250667 
L 98.385371 14.297419 
L 98.385371 14.414661 
L 99.341608 14.640827 
L 105.097043 14.130661 
L 106.435056 14.659677 
L 105.993854 14.859383 
L 105.992053 15.047269 
L 106.283786 15.533629 
L 106.155928 15.763647 
L 105.442801 16.131552 
L 105.061027 16.184026 
L 105.194288 16.251897 
L 105.205092 16.305779 
L 105.061027 16.419154 
L 105.365366 16.680265 
L 105.278926 16.84272 
L 105.061027 17.007314 
L 105.547249 16.925362 
L 105.914617 16.719475 
L 106.435056 16.184026 
L 106.888863 15.47002 
L 107.110365 15.402922 
L 108.248486 15.282022 
L 108.714899 15.001166 
L 108.968815 14.963447 
L 110.395068 15.110141 
L 111.734882 15.597243 
L 115.224879 16.30158 
L 117.196782 17.148124 
L 118.106198 17.251823 
L 119.120062 17.167041 
L 119.865604 16.956181 
L 121.859116 16.205016 
L 122.620865 16.058795 
L 124.468511 15.949674 
L 124.468511 16.066491 
L 123.517675 16.078383 
L 124.284827 16.09937 
L 124.803464 16.263793 
L 126.357575 15.829381 
L 127.050893 15.949674 
L 125.862349 16.487048 
L 125.525594 16.419154 
L 125.765104 16.70057 
L 126.143277 17.711642 
L 125.979402 17.929037 
L 125.993809 18.222274 
L 126.143277 18.719227 
L 126.047834 19.014192 
L 125.525594 19.430158 
L 122.955818 20.198075 
L 121.680835 20.837222 
L 120.276192 21.004846 
L 119.921429 20.917508 
L 119.658509 21.015411 
L 118.578014 21.85271 
L 119.193896 22.441087 
L 119.618891 22.604139 
L 120.222167 22.693092 
L 121.297259 22.693092 
L 121.453931 22.873149 
L 121.560179 23.239755 
L 122.339936 23.284268 
L 124.057923 22.759461 
L 125.235662 22.466496 
L 128.120582 22.335935 
L 128.273652 22.434735 
L 128.57439 22.800415 
L 129.482006 22.988267 
L 129.427981 23.564838 
L 129.708909 23.640476 
L 130.551695 23.640476 
L 131.446705 23.284268 
L 131.615982 23.337265 
L 131.979749 23.640476 
L 132.912576 23.694912 
L 133.928241 24.24374 
L 134.180356 24.24374 
L 134.20917 24.060516 
L 134.60355 23.434787 
L 134.506306 23.154974 
L 134.884479 22.950128 
L 135.069964 22.92894 
L 135.026744 22.851257 
L 134.933101 22.573079 
L 135.689447 22.218803 
L 135.689447 22.089697 
L 135.538178 22.089697 
L 136.294524 22.089697 
L 136.742929 21.936634 
L 137.13731 21.476229 
L 137.872046 21.164053 
L 137.983697 20.949906 
L 137.818022 20.7999 
L 138.062934 20.605572 
L 138.610384 20.150233 
L 139.314507 19.925835 
L 140.178902 19.868868 
L 142.026548 20.019384 
L 147.301163 19.49904 
L 148.131343 19.254467 
L 148.244795 19.749321 
L 148.161957 20.229738 
L 148.208778 20.63866 
L 148.725615 20.917508 
L 148.511317 20.707658 
L 148.284413 20.090433 
L 148.514918 19.88856 
L 149.15241 19.722601 
L 149.341497 19.489199 
L 148.62837 19.541919 
L 148.423076 19.607297 
L 148.590553 19.44562 
L 150.627285 18.311392 
L 150.917218 18.272796 
L 153.423965 17.534969 
L 153.751715 17.359741 
L 154.549481 16.65436 
L 156.024356 15.613323 
L 156.937374 14.894302 
L 157.542451 14.295325 
L 157.994458 14.192057 
L 157.843188 14.297419 
L 158.315004 14.641525 
L 159.269441 14.818879 
L 164.306347 14.818879 
L 165.136527 15.001166 
L 165.64616 14.86916 
L 166.281851 14.940398 
L 166.564581 15.131799 
L 166.015329 15.362386 
L 165.44987 15.418298 
L 163.079986 15.326046 
L 161.551086 15.129004 
L 161.142299 15.319757 
L 161.016241 15.362386 
L 159.779075 15.367977 
L 159.644013 15.597243 
L 159.390097 15.502173 
L 159.053342 15.597243 
L 159.184803 15.8098 
L 159.50715 15.843367 
L 159.334271 15.875537 
L 159.341474 15.949674 
L 158.91648 15.844766 
L 158.041279 15.986746 
L 157.843188 16.184026 
L 157.483024 15.977652 
L 157.045423 15.877636 
L 155.883891 15.921697 
L 155.584955 16.121058 
L 155.440889 16.38346 
L 155.563345 16.65436 
L 154.808799 16.65436 
L 154.954666 16.860228 
L 154.846617 17.064055 
L 154.56929 17.213284 
L 154.203722 17.251823 
L 154.5927 17.822435 
L 154.342386 17.958495 
L 155.846074 18.328936 
L 156.319691 18.193506 
L 155.975734 18.199821 
L 155.260806 17.958495 
L 155.613768 17.606474 
L 156.705067 17.167041 
L 156.773499 16.879138 
L 157.14807 16.734179 
L 158.585128 16.419154 
L 158.147528 16.184026 
L 158.707584 16.121058 
L 159.301856 16.234404 
L 159.960958 16.15534 
L 161.16751 15.843367 
L 161.118888 15.786024 
L 161.016241 15.597243 
L 161.77799 15.45604 
L 162.058918 15.47002 
L 162.058918 15.597243 
L 161.502463 15.772738 
L 161.318779 16.184026 
L 161.772587 15.714002 
L 162.197582 16.029415 
L 162.446095 16.08258 
L 162.691008 15.949674 
L 163.188035 16.049701 
L 163.659851 15.976254 
L 163.904763 16.209914 
L 164.44501 16.442251 
L 165.565123 16.30158 
L 166.746464 15.460234 
L 168.504069 15.053556 
L 169.065926 15.129004 
L 168.784997 15.252673 
L 168.774192 15.457438 
L 169.202788 15.843367 
L 170.423747 16.184026 
L 170.005956 16.523447 
L 170.095997 16.788098 
L 170.726286 17.251823 
L 170.852344 17.771945 
L 171.097256 17.83085 
L 172.085908 17.83085 
L 172.085908 17.958495 
L 171.482632 18.065118 
L 172.206563 18.03355 
L 173.362693 18.33455 
L 174.700705 18.560558 
L 175.430039 19.246738 
L 176.029714 19.489199 
L 175.424637 19.725414 
L 175.97749 19.723305 
L 176.802267 19.529969 
L 177.238067 19.607297 
L 176.958939 19.889966 
L 176.784259 19.961706 
L 177.207453 19.993358 
L 177.553211 19.961706 
L 177.673866 20.048929 
L 178.275342 20.700617 
L 178.601291 20.907648 
L 179.010078 21.031612 
L 179.530516 21.035839 
L 179.530516 20.917508 
L 178.914634 20.563334 
L 178.914634 20.44508 
L 182.301985 20.058777 
L 184.063191 19.607297 
L 184.124419 19.773229 
L 183.760653 19.961706 
L 184.435962 20.122091 
L 186.191765 20.917508 
L 185.87302 21.171803 
L 185.419212 21.810399 
L 184.819537 21.981774 
L 185.086059 22.076294 
L 186.089118 22.67756 
L 186.867075 22.851257 
L 187.124592 23.238341 
L 187.088576 23.385318 
L 187.175016 23.414999 
L 187.682848 23.46023 
L 188.392373 23.767736 
L 188.006996 24.126301 
L 186.422271 24.733505 
L 186.191765 24.957263 
L 186.389856 25.169755 
L 187.401919 25.373097 
L 187.542384 25.563736 
L 188.223095 25.932399 
L 188.460804 25.908997 
L 190.088749 26.545353 
L 190.821685 26.623427 
L 191.266488 26.871902 
L 191.961607 26.871902 
L 192.786384 27.079974 
L 195.188684 27.053696 
L 195.619081 26.758303 
L 195.973843 26.790251 
L 196.290788 26.935809 
L 196.355618 27.218485 
L 196.180938 27.348496 
L 195.145464 27.696013 
L 196.107104 27.846726 
L 196.277609 27.837514 
L 196.276769 27.839268 
L 196.212732 28.60264 
L 196.546641 28.945283 
L 197.052078 29.798507 
L 197.008624 30.828557 
L 197.168717 31.190362 
L 197.706173 31.584102 
L 197.937165 31.95081 
L 198.401436 32.322239 
L 198.632427 33.232967 
L 199.279662 34.740074 
L 199.361995 35.23323 
L 199.922322 35.581183 
L 200.21049 35.708913 
L 199.471774 36.370253 
L 199.018938 36.588087 
L 198.799382 37.039479 
L 199.057818 37.833714 
L 198.035508 39.305469 
L 197.356255 39.649772 
L 196.052639 40.152978 
L 194.705568 40.494445 
L 193.63523 40.991309 
L 193.767879 41.17002 
L 194.088065 42.023709 
L 193.996583 42.360477 
L 193.767879 42.576325 
L 193.180108 42.825383 
L 193.43397 43.075902 
L 194.282464 43.294251 
L 195.217866 43.407595 
L 195.940573 43.825175 
L 196.544354 43.983324 
L 199.238495 45.029843 
L 200.226499 45.872962 
L 200.647316 45.969574 
L 201.283115 46.397768 
L 202.607315 46.656368 
L 204.706824 47.718487 
L 204.087034 48.362284 
L 203.915506 48.779245 
L 204.327174 48.965766 
L 204.430091 49.157436 
L 204.064164 49.578993 
L 203.528995 50.001237 
L 202.383184 50.503668 
L 202.506685 51.218583 
L 203.496976 52.529594 
L 203.364328 52.857796 
L 203.860617 53.137153 
L 205.859496 53.539336 
L 206.202553 53.856744 
L 206.195692 54.226588 
L 205.76344 54.625574 
L 206.083626 54.877493 
L 205.999006 55.136038 
L 205.761153 55.465298 
L 205.626217 55.935098 
L 205.848061 56.194914 
L 207.286613 56.739158 
L 206.710277 57.149689 
L 206.504443 57.650477 
L 205.907524 58.266566 
L 205.829764 59.376502 
L 205.642226 59.732392 
L 204.894362 60.338276 
L 203.625051 60.99782 
L 203.334596 61.31389 
L 203.40092 61.700309 
L 203.764561 61.984583 
L 204.471258 62.336879 
L 204.558166 62.818638 
L 204.786871 63.283201 
L 205.285447 63.583606 
L 206.360359 64.043396 
L 206.64624 64.359678 
L 206.863509 64.824152 
L 206.900102 65.306399 
L 206.639379 65.673357 
L 206.209414 66.025313 
L 206.077654 66.513107 
L 206.149951 66.707381 
L 206.639379 66.972014 
L 208.55135 67.398542 
L 209.056787 67.548519 
L 210.59597 67.832407 
L 211.350695 68.19619 
L 211.5794 68.44941 
L 211.391862 68.679416 
L 211.764651 70.419785 
L 212.174032 70.795633 
L 212.674896 71.103962 
L 212.997369 71.465807 
L 212.963064 72.058722 
L 213.054545 72.110258 
L 212.674896 72.501171 
L 212.375293 72.993527 
L 212.194616 73.512452 
L 212.123717 74.217753 
L 211.648012 74.737415 
L 211.577113 75.306242 
L 209.47303 78.03921 
L 208.37296 78.779451 
L 208.370673 79.125753 
L 207.810347 79.840913 
L 207.595364 79.972843 
L 206.758305 80.015219 
L 205.937255 79.916987 
L 204.775436 79.480854 
L 204.006988 79.365358 
L 203.899497 79.225821 
L 203.977256 78.892946 
L 204.480407 78.177597 
L 204.36148 77.967142 
L 204.093896 77.96426 
L 202.870325 78.234304 
L 202.616463 78.127622 
L 203.002974 77.633785 
L 203.174503 77.410017 
L 203.147058 76.949217 
L 202.710232 76.630639 
L 202.438074 76.517438 
L 201.566709 76.336154 
L 201.235087 75.961238 
L 201.107012 75.804032 
L 200.9149 76.060465 
L 200.663325 76.129499 
L 199.860572 76.105528 
L 198.996068 76.247924 
L 198.611844 76.077723 
L 198.32825 75.894134 
L 197.504913 75.751796 
L 196.800503 75.810742 
L 196.269908 76.096419 
L 195.95887 76.630639 
L 195.711869 76.819661 
L 195.970305 76.909868 
L 197.159569 77.056715 
L 197.125264 77.094151 
L 196.937726 77.163267 
L 196.917142 77.358165 
L 197.482043 77.654916 
L 198.888577 77.96426 
L 198.755928 78.427518 
L 198.106407 78.720786 
L 196.370538 78.6477 
L 195.334506 78.862167 
L 194.659827 79.322051 
L 190.785569 80.181853 
L 189.543703 80.176073 
L 188.246947 80.575929 
L 188.05941 80.579784 
L 187.762093 80.89498 
L 187.830705 81.282623 
L 187.551685 81.422486 
L 187.416749 81.424416 
L 186.37843 81.682015 
L 184.884988 81.647278 
L 183.616821 81.859581 
L 180.625363 81.955134 
L 179.719693 82.248613 
L 179.975842 82.535428 
L 179.888934 82.787554 
L 179.225691 83.142198 
L 179.353765 83.292022 
L 179.333182 83.405132 
L 178.596753 83.818056 
L 178.221677 84.001854 
L 177.810009 84.057001 
L 177.169636 83.827728 
L 176.739671 83.473778 
L 176.394327 83.511487 
L 176.261678 83.588845 
L 175.307979 84.025073 
L 175.072414 84.404408 
L 174.608143 84.532179 
L 173.450897 84.2873 
L 172.396569 85.660652 
L 171.852251 85.8807 
L 170.685858 85.84386 
L 169.439417 85.99123 
L 168.705275 85.893304 
L 168.522311 85.962142 
L 168.234143 87.07009 
L 167.259861 87.624577 
L 166.502849 87.601264 
L 164.268404 86.894396 
L 162.509665 87.109893 
L 162.226071 87.262325 
L 161.489642 87.803329 
L 161.201474 87.820817 
L 160.019071 87.704234 
L 157.4713 87.914095 
L 156.615945 88.370905 
L 156.421546 88.822111 
L 156.142526 88.84351 
L 154.992141 89.298845 
L 154.054452 90.123506 
L 153.626774 90.365107 
L 153.567311 90.664275 
L 153.011559 91.147829 
L 152.942947 91.483348 
L 153.137346 92.087398 
L 152.828595 92.210404 
L 152.451232 92.184045 
L 152.227102 91.992715 
L 151.712516 91.070794 
L 151.266542 90.733477 
L 151.556997 90.471315 
L 151.326005 90.355364 
L 150.367733 90.292035 
L 150.033824 90.026104 
L 150.040685 89.702806 
L 149.910323 89.528545 
L 149.484932 89.364051 
L 147.865703 89.298845 
L 148.554104 89.756356 
L 148.595271 90.266705 
L 147.941176 90.664275 
L 148.16988 90.888471 
L 149.263089 91.26193 
L 150.054407 91.798497 
L 150.223649 92.022973 
L 150.287686 92.307064 
L 150.145889 93.020119 
L 150.338001 93.306474 
L 151.522691 93.915643 
L 151.643905 94.401899 
L 155.353495 95.575059 
L 156.167684 95.622095 
L 156.540472 95.818104 
L 156.597648 96.095527 
L 156.419259 96.557431 
L 157.777765 97.05686 
L 157.709153 97.425963 
L 157.530764 97.716637 
L 156.858372 98.534153 
L 156.414685 98.458463 
L 156.279749 98.726846 
L 156.197415 99.438975 
L 155.84521 99.63776 
L 154.930391 99.854306 
L 154.669668 100.140815 
L 155.008151 100.586014 
L 155.78346 101.114224 
L 157.3478 101.732488 
L 157.363809 101.986025 
L 157.176271 102.219892 
L 157.233447 102.245552 
L 157.40955 102.293913 
L 157.288337 102.490343 
L 157.514754 102.644357 
L 158.276341 102.951472 
L 158.43186 103.158906 
L 158.623972 103.807183 
L 159.079094 104.351051 
L 159.568522 104.535048 
L 159.966469 104.591442 
L 160.170016 105.853749 
L 160.421591 106.131186 
L 160.853843 106.334361 
L 161.873866 106.60599 
L 162.31984 106.866786 
L 163.044834 107.786589 
L 163.394752 107.992103 
L 163.833865 108.082463 
L 165.551437 108.158929 
L 165.453094 107.911679 
L 165.757271 107.857074 
L 166.978554 108.103317 
L 168.428542 108.87224 
L 168.558904 109.237049 
L 171.616686 111.412866 
L 172.259346 112.116627 
L 172.885997 112.326059 
L 174.667606 112.459721 
L 174.937478 112.593401 
L 175.60987 113.10934 
L 176.549846 113.658512 
L 176.796847 113.995158 
L 176.810569 114.537832 
L 177.128469 114.834782 
L 178.464104 115.466976 
L 178.980977 115.610077 
L 179.42009 115.059804 
L 179.869188 114.99621 
L 180.623076 115.177837 
L 181.375515 115.470979 
L 181.778035 115.444963 
L 181.832924 115.811254 
L 182.06849 116.163663 
L 182.791197 116.683498 
L 183.209726 116.797719 
L 184.345245 116.973083 
L 184.859831 117.437197 
L 185.927882 118.671222 
L 186.360134 118.931267 
L 186.360134 118.931267 
" clip-path="url(#pad57915457)" style="fill: none; stroke: #000000; stroke-width: 0.5; stroke-linecap: square"/>
   </g>
  </g>
 </g>
 <defs>
  <clipPath id="pad57915457">
   <rect x="0" y="0" width="223.2" height="155.47914"/>
  </clipPath>
 </defs>
</svg>
