<?xml version="1.0" encoding="utf-8" standalone="no"?>
<!DOCTYPE svg PUBLIC "-//W3C//DTD SVG 1.1//EN"
  "http://www.w3.org/Graphics/SVG/1.1/DTD/svg11.dtd">
<svg xmlns:xlink="http://www.w3.org/1999/xlink" width="117.320187pt" height="221.76pt" viewBox="0 0 117.320187 221.76" xmlns="http://www.w3.org/2000/svg" version="1.1">
 <metadata>
  <rdf:RDF xmlns:dc="http://purl.org/dc/elements/1.1/" xmlns:cc="http://creativecommons.org/ns#" xmlns:rdf="http://www.w3.org/1999/02/22-rdf-syntax-ns#">
   <cc:Work>
    <dc:type rdf:resource="http://purl.org/dc/dcmitype/StillImage"/>
    <dc:date>2026-04-26T19:22:10.508803</dc:date>
    <dc:format>image/svg+xml</dc:format>
    <dc:creator>
     <cc:Agent>
      <dc:title>Matplotlib v3.10.9, https://matplotlib.org/</dc:title>
     </cc:Agent>
    </dc:creator>
   </cc:Work>
  </rdf:RDF>
 </metadata>
 <defs>
  <style type="text/css">*{stroke-linejoin: round; stroke-linecap: butt}</style>
 </defs>
 <g id="figure_1">
  <g id="patch_1">
   <path d="M 0 221.76 
L 117.320187 221.76 
L 117.320187 0 
L 0 0 
z
" style="fill: #ffffff"/>
  </g>
  <g id="axes_1">
   <g id="patch_2">
    <path d="M 79.537282 10.949562 
L 79.715613 11.463943 
L 80.113144 11.934145 
L 80.60046 12.280583 
L 81.041336 12.42527 
L 81.480354 12.367395 
L 82.293992 12.091688 
L 82.744775 12.082043 
L 83.54479 12.4735 
L 83.906407 13.201799 
L 83.983189 14.164912 
L 83.915076 15.267228 
L 83.858109 15.65721 
L 83.690304 15.871104 
L 83.480393 16.042383 
L 83.288439 16.300515 
L 83.172028 16.593233 
L 82.653132 19.720412 
L 82.671708 20.022084 
L 82.794311 20.634308 
L 82.749729 20.964973 
L 82.542913 21.21841 
L 82.05374 21.644039 
L 81.715653 22.195212 
L 81.533606 22.73837 
L 81.406049 24.040464 
L 81.323729 24.481466 
L 81.176942 25.267875 
L 81.161462 25.91746 
L 81.406049 26.561453 
L 81.616579 26.786861 
L 81.879742 26.948674 
L 82.165197 27.043671 
L 82.718768 27.135448 
L 82.889669 27.281971 
L 83.039517 27.469556 
L 83.25624 27.658754 
L 84.005481 27.977582 
L 84.223442 28.149077 
L 84.412919 28.440545 
L 84.692801 29.133018 
L 84.890328 29.439815 
L 86.158464 30.464152 
L 86.538038 30.982803 
L 87.759114 33.910791 
L 87.828466 34.020356 
L 88.011751 33.996187 
L 88.113301 33.812506 
L 88.177698 33.608689 
L 88.240857 33.518463 
L 88.876783 33.839897 
L 89.107128 33.881789 
L 89.37896 33.790755 
L 89.603732 33.648969 
L 89.821074 33.560354 
L 90.06628 33.632857 
L 90.302817 33.938182 
L 90.313344 34.282187 
L 90.233466 34.612508 
L 90.200029 34.87919 
L 90.468765 35.444804 
L 90.876822 35.919396 
L 91.12884 36.416574 
L 90.918309 37.047549 
L 91.252681 37.042714 
L 92.303476 36.817073 
L 92.533201 36.958904 
L 93.022375 37.48031 
L 92.434128 38.044458 
L 92.320194 38.522397 
L 92.251462 39.034211 
L 92.078084 39.452547 
L 92.117713 40.502897 
L 91.992014 42.712774 
L 92.226694 43.519122 
L 92.530725 43.771522 
L 92.794507 43.853775 
L 92.987699 44.059411 
L 93.059527 44.690859 
L 92.973841 45.208046 
L 92.957978 45.303795 
L 92.69048 45.394125 
L 92.320194 45.315086 
L 91.900372 45.418321 
L 92.042789 45.725613 
L 92.028548 45.924026 
L 91.947431 46.117604 
L 91.900372 46.406365 
L 91.940001 46.616084 
L 92.226694 47.354975 
L 92.389545 47.972102 
L 92.374684 48.227837 
L 92.207498 48.419844 
L 91.900372 48.848242 
L 91.707179 49.32184 
L 91.658262 49.757537 
L 91.766623 51.009055 
L 91.759192 51.364122 
L 91.245251 53.791811 
L 91.279926 54.372989 
L 91.405625 54.709603 
L 91.577146 54.953391 
L 91.736901 55.26419 
L 91.848358 55.723542 
L 91.902849 56.291907 
L 91.835974 56.838502 
L 91.585814 57.223638 
L 91.156085 57.293077 
L 90.7536 57.004827 
L 90.115198 56.137703 
L 89.772157 57.02582 
L 89.789495 57.939042 
L 90.171545 58.593929 
L 90.918309 58.697293 
L 91.890464 58.377513 
L 92.364777 58.49541 
L 92.570354 59.143062 
L 92.404406 59.573506 
L 92.016163 59.715645 
L 91.57405 59.618732 
L 91.245251 59.339304 
L 90.816759 59.701108 
L 90.240897 59.744719 
L 89.034681 59.570275 
L 88.975856 59.770562 
L 88.86378 60.6509 
L 88.87183 60.850399 
L 88.931893 60.940054 
L 89.107128 61.137943 
L 89.344285 61.353606 
L 89.593206 61.492537 
L 90.204363 61.343913 
L 90.54307 61.36653 
L 90.7536 61.704975 
L 90.661957 62.028892 
L 90.35545 62.301926 
L 89.982068 62.490146 
L 88.983287 62.751882 
L 88.98081 63.197008 
L 89.149234 63.696283 
L 88.953565 64.053383 
L 89.062545 64.471899 
L 89.506517 64.53492 
L 89.952346 64.419382 
L 91.048343 63.924114 
L 91.23039 63.725367 
L 91.324509 63.459569 
L 91.397576 62.827011 
L 91.517082 62.579814 
L 91.880557 62.374628 
L 92.419267 62.250227 
L 93.383373 62.180756 
L 93.833536 62.276076 
L 95.105388 62.875481 
L 95.258951 63.153384 
L 95.301057 63.461185 
L 95.246567 63.781921 
L 95.08805 64.131752 
L 95.083096 64.162454 
L 95.08805 64.193156 
L 95.105388 64.225473 
L 95.818715 64.539768 
L 96.25216 65.030215 
L 96.400769 65.763905 
L 96.177855 67.349424 
L 96.138225 68.265927 
L 96.039152 68.659545 
L 95.796423 68.983664 
L 95.526449 69.187354 
L 95.330779 69.487238 
L 95.308488 70.104007 
L 95.605707 71.223652 
L 95.613138 71.722475 
L 95.323349 72.361195 
L 94.780923 72.987823 
L 94.629218 73.289424 
L 94.631694 73.778635 
L 94.505376 74.787039 
L 94.099796 75.759138 
L 93.853351 76.716759 
L 94.17472 77.688211 
L 94.179673 77.688211 
L 94.179673 77.691447 
L 95.335733 80.234915 
L 95.635429 81.765793 
L 95.10812 82.74795 
L 95.105388 82.753039 
L 94.984023 83.143914 
L 94.949348 83.631919 
L 94.865136 84.045485 
L 94.601353 84.209782 
L 94.290511 84.145034 
L 94.048401 84.048722 
L 93.826106 84.008255 
L 93.573469 84.117516 
L 93.702265 84.240537 
L 93.542509 84.7642 
L 93.291111 85.126002 
L 93.034759 84.421834 
L 92.751162 84.279386 
L 92.448989 84.352228 
L 92.286138 84.649267 
L 92.339092 85.049943 
L 92.491095 86.200142 
L 93.193276 88.164114 
L 94.146855 89.89439 
L 95.105388 90.74302 
L 95.514065 91.357665 
L 96.093643 92.051709 
L 96.717803 92.638073 
L 98.288113 93.596239 
L 98.706697 94.748081 
L 99.0163 95.934864 
L 99.935204 96.925692 
L 99.987217 97.250584 
L 99.979787 97.610325 
L 100.03923 98.070549 
L 100.019416 98.384937 
L 100.034277 98.533221 
L 100.128396 98.64018 
L 100.415708 98.700143 
L 100.504874 98.807104 
L 100.598994 99.578548 
L 100.418185 100.055862 
L 100.034277 100.366247 
L 98.976671 100.975694 
L 98.575425 101.319331 
L 97.777886 102.252223 
L 97.577263 102.377046 
L 97.393978 102.406226 
L 97.270136 102.527808 
L 97.242891 102.933902 
L 97.341964 103.263811 
L 97.527726 103.496455 
L 97.693674 103.765582 
L 97.73578 104.199277 
L 97.604508 104.605423 
L 97.416269 104.794314 
L 97.297381 105.016446 
L 97.423699 105.786643 
L 97.512865 107.262306 
L 97.733303 108.433225 
L 97.745687 109.034943 
L 97.725873 110.204399 
L 97.961334 112.281763 
L 97.978509 112.4333 
L 97.958694 114.313719 
L 98.176655 116.108394 
L 98.124642 117.750745 
L 98.191516 118.364244 
L 97.498004 118.211678 
L 97.190878 118.851167 
L 97.116573 119.825065 
L 97.124003 120.678906 
L 96.987778 121.100976 
L 96.663313 121.318509 
L 96.279405 121.454875 
L 95.964847 121.638322 
L 95.722118 121.946778 
L 95.573509 122.28284 
L 95.48682 122.669241 
L 95.395177 124.494236 
L 95.514065 126.04177 
L 95.90045 127.425439 
L 96.655883 128.297609 
L 97.091804 128.375571 
L 97.567356 128.263501 
L 98.449106 127.837967 
L 98.607624 128.112452 
L 98.991532 130.173687 
L 98.96181 130.854333 
L 98.642299 132.007769 
L 98.419385 133.466752 
L 97.842283 135.351623 
L 97.760548 136.58342 
L 97.867052 137.998975 
L 97.849714 139.367526 
L 97.391501 140.450103 
L 97.081897 140.67443 
L 96.071351 141.019056 
L 95.719641 141.053194 
L 95.370409 141.194623 
L 95.645337 141.675817 
L 96.326464 142.365121 
L 96.608823 143.030069 
L 96.551856 143.560098 
L 96.046583 144.664111 
L 95.885589 145.325907 
L 95.962371 145.626733 
L 96.192716 145.806418 
L 96.484981 146.100748 
L 97.178493 147.789597 
L 97.33701 148.066075 
L 97.748164 148.179921 
L 98.166748 148.481615 
L 98.515981 148.915056 
L 98.719081 149.423328 
L 98.743849 149.934056 
L 98.535795 151.523274 
L 98.669544 152.181293 
L 98.984101 152.557897 
L 99.32095 152.88245 
L 99.531481 153.382715 
L 99.756872 153.411999 
L 100.425616 153.384342 
L 100.643577 153.44291 
L 100.950703 153.835813 
L 100.935842 154.12948 
L 100.767418 154.424779 
L 100.616332 154.825841 
L 100.606753 155.01645 
L 100.574225 155.663792 
L 100.722835 156.436698 
L 101.010147 157.184418 
L 101.389102 157.946004 
L 101.894375 158.624627 
L 103.078299 159.389535 
L 103.680168 159.888372 
L 104.460369 161.11966 
L 104.769973 161.426479 
L 105.260385 161.599016 
L 107.088285 161.608782 
L 107.714922 164.133564 
L 108.086447 164.830346 
L 108.277162 165.012687 
L 108.455494 165.109556 
L 108.636302 165.238173 
L 108.819588 165.514133 
L 109.134145 166.153172 
L 109.391735 166.544748 
L 109.721153 166.76537 
L 111.705093 167.061707 
L 111.987452 167.561585 
L 111.925774 168.669383 
L 111.912123 168.674511 
L 111.758052 168.748879 
L 110.671758 169.515655 
L 109.850699 170.354275 
L 108.633738 172.067543 
L 108.354851 172.619004 
L 107.763922 174.160623 
L 107.652758 174.777564 
L 107.617653 175.427876 
L 107.36997 176.900464 
L 107.161292 177.486711 
L 106.400691 178.421923 
L 105.431413 178.863247 
L 100.856106 179.54578 
L 92.263266 178.72469 
L 91.233529 178.796534 
L 90.662104 178.971013 
L 90.371515 179.122401 
L 90.250599 179.307147 
L 90.129683 179.396954 
L 89.550456 179.430312 
L 89.349579 179.522686 
L 88.895169 179.949923 
L 87.290106 180.519587 
L 86.923458 180.844202 
L 86.26427 181.651271 
L 85.332046 182.001567 
L 84.996602 182.466074 
L 84.731367 183.035815 
L 84.345215 183.552961 
L 82.438838 184.396079 
L 82.327673 184.483345 
L 82.014656 184.894012 
L 81.874238 185.040314 
L 81.66361 185.139133 
L 81.283309 185.18405 
L 76.140477 187.368466 
L 75.056133 187.548159 
L 74.907913 187.64314 
L 74.613424 187.830537 
L 72.852341 189.766219 
L 72.665116 190.1218 
L 72.539324 190.607043 
L 72.216556 191.046082 
L 71.357467 191.739323 
L 69.68122 192.282378 
L 69.394532 192.28623 
L 69.219009 192.51347 
L 68.830907 192.901197 
L 68.433055 193.068102 
L 68.234128 192.621314 
L 66.993764 193.761413 
L 66.687573 193.911634 
L 65.287287 195.420322 
L 64.717812 196.301192 
L 64.357014 196.599104 
L 62.575452 196.94068 
L 62.025479 196.908577 
L 61.674433 196.498943 
L 61.511586 196.769891 
L 61.285356 196.873906 
L 60.692478 196.927839 
L 60.115201 197.12046 
L 59.831438 197.10505 
L 59.709547 196.82254 
L 59.623736 196.537466 
L 59.43261 196.608092 
L 59.138121 196.927839 
L 58.743194 196.974068 
L 58.359968 197.108903 
L 55.859736 198.522795 
L 55.606203 198.985124 
L 55.391674 199.258674 
L 54.902159 199.636255 
L 53.954334 200.200072 
L 53.462869 200.333643 
L 51.902662 200.395292 
L 51.645227 200.490334 
L 51.090379 200.924451 
L 50.830019 201.06188 
L 50.587212 201.086283 
L 50.092821 201.046467 
L 49.849039 201.06188 
L 49.405355 201.250686 
L 48.536515 201.809409 
L 46.869044 202.121529 
L 46.327847 202.388697 
L 45.922193 202.771473 
L 45.905616 202.786887 
L 45.561395 202.5788 
L 45.139164 202.537696 
L 44.73156 202.671283 
L 44.435121 202.980847 
L 44.397091 203.236465 
L 44.563838 203.711744 
L 44.509231 203.960949 
L 44.359061 204.187034 
L 44.259598 204.305215 
L 42.618455 205.37145 
L 42.326891 205.663067 
L 41.635524 206.666417 
L 41.581892 206.897669 
L 41.624798 207.108368 
L 41.613096 207.2574 
L 41.401493 207.312645 
L 41.178189 207.335771 
L 39.53217 207.953753 
L 37.695027 209.035585 
L 37.311801 209.480153 
L 36.732574 210.56463 
L 36.372751 211.016939 
L 36.033406 211.196838 
L 34.381537 211.474398 
L 34.058769 211.646589 
L 33.418109 211.68 
L 33.27379 211.637594 
L 33.099242 211.429422 
L 33.031958 211.104318 
L 33.057311 210.75095 
L 33.000754 210.465689 
L 32.689688 210.351328 
L 32.496612 210.31535 
L 32.133864 210.168867 
L 31.864728 210.134174 
L 31.889106 209.988977 
L 31.664827 209.678028 
L 30.644841 208.606443 
L 30.138749 208.32378 
L 29.907644 208.141335 
L 29.810131 207.861247 
L 29.769175 207.629985 
L 29.663861 207.388446 
L 29.531244 207.195732 
L 27.042714 205.917433 
L 22.988126 204.819057 
L 19.042752 203.057917 
L 15.916487 202.745783 
L 12.462579 201.949413 
L 9.137388 200.611064 
L 8.757088 200.496756 
L 8.860451 199.976598 
L 9.028174 199.920088 
L 9.251478 199.805784 
L 9.523539 199.750559 
L 11.237817 199.767255 
L 11.75561 199.966324 
L 11.898954 200.152551 
L 12.191493 200.708676 
L 12.32021 200.826838 
L 12.636152 200.770325 
L 13.127617 200.49804 
L 13.388952 200.395292 
L 13.324594 199.528374 
L 13.990607 199.162353 
L 14.851646 198.982556 
L 15.36944 198.673051 
L 16.324282 198.721884 
L 16.874757 198.617501 
L 17.216559 198.297015 
L 17.446904 197.702539 
L 17.315632 197.499492 
L 16.999837 197.144775 
L 16.924294 197.035508 
L 16.904479 196.747663 
L 17.006029 196.088001 
L 17.018413 195.818109 
L 16.911909 195.455268 
L 16.577538 194.823369 
L 16.509425 194.385536 
L 16.666703 192.432935 
L 17.47415 192.626963 
L 17.792422 192.55033 
L 18.030198 192.153309 
L 18.09088 191.603035 
L 17.988091 191.035658 
L 17.334209 189.023885 
L 16.909433 186.766187 
L 16.852466 185.113427 
L 16.762061 184.604099 
L 16.573822 184.190943 
L 16.266696 183.864172 
L 14.559541 183.28643 
L 14.17006 183.490146 
L 13.389859 184.109453 
L 12.921119 184.186053 
L 12.354545 183.771276 
L 12.225131 182.956416 
L 12.467241 180.985417 
L 10.910554 181.159776 
L 11.145233 177.56213 
L 11.083932 176.422534 
L 10.791666 175.281381 
L 9.868428 173.066887 
L 9.520434 171.940607 
L 8.794104 166.684773 
L 8.283877 164.9264 
L 7.5786 164.083097 
L 7.508436 163.97187 
L 7.223794 163.520647 
L 5.332736 152.396843 
L 5.366173 151.868141 
L 5.538932 151.537915 
L 5.980426 151.218269 
L 6.11046 151.012495 
L 6.581057 149.285076 
L 6.525329 149.075261 
L 6.202103 148.259613 
L 5.902406 147.754631 
L 5.79838 147.435875 
L 5.831817 146.298327 
L 6.233063 145.086877 
L 8.997204 138.889656 
L 9.292561 138.648708 
L 9.308893 138.635384 
L 9.33591 138.613344 
L 10.52293 138.107869 
L 10.644295 137.885205 
L 10.842441 136.312026 
L 10.963806 135.995135 
L 12.062279 134.199548 
L 12.275286 133.588611 
L 12.292624 133.159671 
L 12.18612 132.904587 
L 12.025746 132.644634 
L 11.874659 132.205974 
L 11.852368 131.837184 
L 13.025146 122.204912 
L 13.345276 120.932146 
L 15.07596 116.098657 
L 15.168841 115.892566 
L 15.409713 115.511224 
L 15.501975 115.305142 
L 15.508167 115.134761 
L 15.438196 114.727479 
L 15.458011 114.570087 
L 15.664207 114.315342 
L 16.197344 113.896727 
L 16.38806 113.629015 
L 16.467319 113.281809 
L 16.571345 110.937591 
L 16.641316 110.707248 
L 16.791783 110.684538 
L 16.951539 110.822419 
L 17.072903 111.000856 
L 17.10634 111.10143 
L 17.497679 110.673183 
L 18.591199 109.030078 
L 19.032075 108.621361 
L 20.462443 107.998578 
L 20.956571 107.671791 
L 21.193108 107.265549 
L 21.215399 106.718237 
L 21.060597 105.967443 
L 20.743563 105.064278 
L 20.685358 104.667846 
L 20.786908 104.173336 
L 20.954094 103.754233 
L 21.107657 103.56779 
L 21.305803 103.584002 
L 21.610453 103.770446 
L 21.88662 103.808546 
L 22.213561 103.665064 
L 23.289743 102.839064 
L 23.454452 102.360835 
L 22.351644 93.577205 
L 21.248836 84.799813 
L 21.134902 84.308523 
L 20.91818 84.43964 
L 20.912901 84.428445 
L 20.796815 84.182264 
L 20.858736 83.783261 
L 21.035829 83.575267 
L 21.289704 83.392365 
L 21.315711 82.964256 
L 20.827775 80.779438 
L 20.798053 80.241388 
L 20.743563 79.971968 
L 20.609815 79.897534 
L 20.448821 79.86679 
L 20.306403 79.726016 
L 19.932402 78.256884 
L 19.907634 77.617028 
L 19.752832 77.113904 
L 19.147247 76.69573 
L 18.541663 76.519405 
L 17.927409 76.480582 
L 17.595514 76.409406 
L 17.407275 76.238748 
L 17.253712 76.031696 
L 17.019651 75.859426 
L 17.245043 75.417034 
L 17.344116 74.926137 
L 17.389937 73.360581 
L 17.490249 73.100215 
L 18.000476 72.421027 
L 18.417821 71.312582 
L 18.697703 70.745061 
L 19.458089 70.229304 
L 19.744163 69.634354 
L 19.776362 69.040244 
L 19.399884 68.771086 
L 18.9813 68.651462 
L 18.641974 68.328969 
L 18.453735 67.84646 
L 18.493364 67.256484 
L 18.739809 66.83948 
L 19.06675 66.643105 
L 19.351586 66.409561 
L 19.474189 65.877034 
L 19.474189 65.033447 
L 19.355301 64.509065 
L 19.32434 64.265871 
L 19.422175 63.267293 
L 19.396169 62.822164 
L 19.071704 62.290617 
L 18.207291 60.879476 
L 17.34907 59.867477 
L 17.225228 59.546047 
L 17.183122 59.037271 
L 17.220275 58.534172 
L 17.339162 58.02302 
L 17.544739 57.565185 
L 17.850627 57.223638 
L 17.772969 57.145761 
L 17.59056 56.962842 
L 17.513779 56.676216 
L 17.484057 56.390405 
L 17.362692 56.137703 
L 17.1534 56.002069 
L 17.019651 56.021446 
L 16.88838 55.992381 
L 16.69271 55.710625 
L 16.529239 55.062372 
L 16.618405 54.408507 
L 17.019651 53.364827 
L 17.848151 52.169524 
L 18.000476 51.851553 
L 17.932363 51.545696 
L 17.362692 50.36028 
L 17.258665 49.572767 
L 17.48158 48.15523 
L 17.510064 47.354975 
L 17.354023 46.793542 
L 16.810359 45.740131 
L 16.69271 45.107813 
L 16.69271 42.433792 
L 16.44255 41.024485 
L 16.453696 40.402936 
L 16.767015 39.761273 
L 17.252473 39.270379 
L 17.430805 38.995521 
L 17.510064 38.580428 
L 17.496441 38.179858 
L 17.414706 38.013832 
L 17.258665 37.920343 
L 17.019651 37.729337 
L 16.789306 37.61812 
L 16.580014 37.62618 
L 16.424593 37.552036 
L 16.366388 37.196636 
L 16.280318 36.987915 
L 16.07598 36.923446 
L 15.830774 36.887988 
L 15.621482 36.770334 
L 15.427051 36.261858 
L 15.427051 35.607565 
L 15.547177 34.971845 
L 15.710648 34.515828 
L 15.881549 34.225792 
L 16.066072 34.034857 
L 16.298275 33.928515 
L 16.608498 33.89629 
L 16.871042 33.763364 
L 17.090241 33.470128 
L 17.194268 33.177706 
L 17.101387 33.043985 
L 16.515617 33.024652 
L 16.125516 32.94007 
L 15.830774 32.746742 
L 14.989271 31.793048 
L 14.801651 31.399193 
L 14.728585 30.790319 
L 14.657995 30.643744 
L 14.33415 30.228996 
L 14.223312 30.04619 
L 14.158914 29.74179 
L 14.119285 29.076652 
L 14.06108 28.769866 
L 13.342799 27.130617 
L 13.241249 26.535693 
L 13.309362 26.227376 
L 13.630731 25.483594 
L 13.776864 24.972477 
L 13.844357 24.853355 
L 13.897609 24.715722 
L 13.89699 24.514508 
L 13.827639 24.376075 
L 13.71742 24.308469 
L 13.614012 24.283519 
L 13.566952 24.283519 
L 13.541872 24.143985 
L 13.485217 23.828801 
L 13.558284 23.642091 
L 13.814635 23.316162 
L 13.945907 23.020824 
L 14.032596 22.309474 
L 14.4357 21.466222 
L 14.700101 20.022084 
L 14.877195 19.373701 
L 15.199182 18.898301 
L 15.581233 18.522664 
L 15.90384 18.066611 
L 16.038827 17.35402 
L 15.895171 16.758092 
L 15.632627 16.206429 
L 15.488971 15.61218 
L 15.555227 15.391056 
L 15.521789 15.210943 
L 17.588084 15.259187 
L 17.597991 15.589666 
L 18.123019 15.582969 
L 20.372039 15.554285 
L 25.04953 15.493174 
L 30.846547 15.420002 
L 36.238603 15.350852 
L 41.482049 15.284917 
L 45.205961 15.238281 
L 45.485842 15.034855 
L 45.657982 14.48892 
L 46.075328 14.321689 
L 49.103251 14.442288 
L 49.402173 14.591709 
L 49.642564 14.711874 
L 50.438261 15.109631 
L 51.038892 15.251147 
L 54.087868 15.289742 
L 56.97585 15.325121 
L 57.187619 14.851533 
L 57.867509 14.716456 
L 61.171598 15.052544 
L 61.373459 15.104807 
L 61.555506 15.267228 
L 61.722692 15.687766 
L 61.845295 15.787476 
L 62.095455 15.77461 
L 61.935699 16.199995 
L 62.353045 16.12521 
L 62.889278 15.369345 
L 63.401982 15.259187 
L 63.539446 15.042895 
L 63.680625 14.967315 
L 63.815612 15.036463 
L 63.939454 15.259187 
L 63.939454 15.267228 
L 66.670392 15.330852 
L 66.838582 15.33477 
L 66.87078 15.686158 
L 66.977284 15.715106 
L 67.14447 15.636303 
L 67.367385 15.662035 
L 67.509802 15.879949 
L 67.407014 16.12923 
L 67.227444 16.376106 
L 67.155616 16.593233 
L 68.306103 18.013526 
L 68.725925 17.681355 
L 68.968654 16.978444 
L 69.143271 16.21447 
L 69.364947 15.695807 
L 69.709226 15.530162 
L 70.207069 15.461815 
L 71.140833 15.502823 
L 71.225045 15.468248 
L 71.303065 15.415178 
L 71.374893 15.346027 
L 71.434337 15.267228 
L 71.434337 15.262404 
L 71.659729 14.906207 
L 72.290081 14.522688 
L 72.573678 14.227623 
L 72.703712 13.897996 
L 72.756964 13.192152 
L 72.868421 12.739572 
L 73.327873 11.992018 
L 73.79104 11.992018 
L 74.245538 12.460639 
L 74.676506 13.119802 
L 75.877768 11.995233 
L 76.181798 11.616656 
L 76.369418 11.154507 
L 76.315547 10.874014 
L 76.221428 10.582278 
L 76.288302 10.08 
z
" clip-path="url(#paa2c6dd094)" style="stroke: #000000; stroke-linejoin: miter"/>
   </g>
   <g id="line2d_1">
    <path d="M 79.537282 10.949562 
L 79.715613 11.463943 
L 80.113144 11.934145 
L 80.60046 12.280583 
L 81.041336 12.42527 
L 81.480354 12.367395 
L 82.293992 12.091688 
L 82.744775 12.082043 
L 83.54479 12.4735 
L 83.906407 13.201799 
L 83.983189 14.164912 
L 83.858109 15.65721 
L 83.172028 16.593233 
L 82.671708 20.022084 
L 82.749729 20.964973 
L 81.715653 22.195212 
L 81.533606 22.73837 
L 81.161462 25.91746 
L 81.406049 26.561453 
L 81.879742 26.948674 
L 82.889669 27.281971 
L 83.25624 27.658754 
L 84.223442 28.149077 
L 84.412919 28.440545 
L 84.890328 29.439815 
L 86.158464 30.464152 
L 86.538038 30.982803 
L 87.828466 34.020356 
L 88.011751 33.996187 
L 88.240857 33.518463 
L 89.107128 33.881789 
L 90.06628 33.632857 
L 90.302817 33.938182 
L 90.233466 34.612508 
L 90.200029 34.87919 
L 90.468765 35.444804 
L 90.876822 35.919396 
L 91.12884 36.416574 
L 90.918309 37.047549 
L 91.252681 37.042714 
L 92.303476 36.817073 
L 92.533201 36.958904 
L 93.022375 37.48031 
L 92.434128 38.044458 
L 92.078084 39.452547 
L 92.117713 40.502897 
L 91.992014 42.712774 
L 92.226694 43.519122 
L 92.987699 44.059411 
L 93.059527 44.690859 
L 92.957978 45.303795 
L 92.69048 45.394125 
L 92.320194 45.315086 
L 91.900372 45.418321 
L 92.028548 45.924026 
L 91.900372 46.406365 
L 91.940001 46.616084 
L 92.389545 47.972102 
L 92.374684 48.227837 
L 91.900372 48.848242 
L 91.707179 49.32184 
L 91.658262 49.757537 
L 91.759192 51.364122 
L 91.245251 53.791811 
L 91.405625 54.709603 
L 91.736901 55.26419 
L 91.902849 56.291907 
L 91.835974 56.838502 
L 91.585814 57.223638 
L 91.156085 57.293077 
L 90.7536 57.004827 
L 90.115198 56.137703 
L 89.772157 57.02582 
L 89.789495 57.939042 
L 90.171545 58.593929 
L 90.918309 58.697293 
L 91.890464 58.377513 
L 92.364777 58.49541 
L 92.570354 59.143062 
L 92.404406 59.573506 
L 92.016163 59.715645 
L 91.57405 59.618732 
L 91.245251 59.339304 
L 90.816759 59.701108 
L 90.240897 59.744719 
L 89.034681 59.570275 
L 88.975856 59.770562 
L 88.931893 60.940054 
L 89.344285 61.353606 
L 89.593206 61.492537 
L 90.54307 61.36653 
L 90.7536 61.704975 
L 90.661957 62.028892 
L 89.982068 62.490146 
L 88.983287 62.751882 
L 88.98081 63.197008 
L 89.149234 63.696283 
L 88.953565 64.053383 
L 89.062545 64.471899 
L 89.506517 64.53492 
L 89.952346 64.419382 
L 91.23039 63.725367 
L 91.324509 63.459569 
L 91.517082 62.579814 
L 91.880557 62.374628 
L 92.419267 62.250227 
L 93.383373 62.180756 
L 93.833536 62.276076 
L 95.105388 62.875481 
L 95.258951 63.153384 
L 95.246567 63.781921 
L 95.105388 64.225473 
L 95.818715 64.539768 
L 96.25216 65.030215 
L 96.400769 65.763905 
L 96.039152 68.659545 
L 95.330779 69.487238 
L 95.308488 70.104007 
L 95.605707 71.223652 
L 95.613138 71.722475 
L 95.323349 72.361195 
L 94.629218 73.289424 
L 94.631694 73.778635 
L 94.505376 74.787039 
L 94.099796 75.759138 
L 93.853351 76.716759 
L 94.179673 77.691447 
L 95.335733 80.234915 
L 95.635429 81.765793 
L 94.984023 83.143914 
L 94.865136 84.045485 
L 94.601353 84.209782 
L 93.826106 84.008255 
L 93.573469 84.117516 
L 93.702265 84.240537 
L 93.542509 84.7642 
L 93.291111 85.126002 
L 93.034759 84.421834 
L 92.751162 84.279386 
L 92.448989 84.352228 
L 92.286138 84.649267 
L 92.491095 86.200142 
L 93.193276 88.164114 
L 94.146855 89.89439 
L 95.105388 90.74302 
L 96.093643 92.051709 
L 96.717803 92.638073 
L 98.288113 93.596239 
L 98.706697 94.748081 
L 99.0163 95.934864 
L 99.935204 96.925692 
L 100.03923 98.070549 
L 100.034277 98.533221 
L 100.128396 98.64018 
L 100.504874 98.807104 
L 100.598994 99.578548 
L 100.418185 100.055862 
L 100.034277 100.366247 
L 98.575425 101.319331 
L 97.577263 102.377046 
L 97.270136 102.527808 
L 97.242891 102.933902 
L 97.527726 103.496455 
L 97.693674 103.765582 
L 97.73578 104.199277 
L 97.604508 104.605423 
L 97.297381 105.016446 
L 97.423699 105.786643 
L 97.512865 107.262306 
L 97.745687 109.034943 
L 97.725873 110.204399 
L 97.978509 112.4333 
L 97.958694 114.313719 
L 98.176655 116.108394 
L 98.191516 118.364244 
L 97.498004 118.211678 
L 97.190878 118.851167 
L 96.987778 121.100976 
L 96.279405 121.454875 
L 95.964847 121.638322 
L 95.573509 122.28284 
L 95.48682 122.669241 
L 95.395177 124.494236 
L 95.514065 126.04177 
L 95.90045 127.425439 
L 96.655883 128.297609 
L 97.091804 128.375571 
L 97.567356 128.263501 
L 98.449106 127.837967 
L 98.607624 128.112452 
L 98.991532 130.173687 
L 98.96181 130.854333 
L 98.642299 132.007769 
L 98.419385 133.466752 
L 97.842283 135.351623 
L 97.760548 136.58342 
L 97.867052 137.998975 
L 97.849714 139.367526 
L 97.391501 140.450103 
L 97.081897 140.67443 
L 95.370409 141.194623 
L 95.645337 141.675817 
L 96.326464 142.365121 
L 96.608823 143.030069 
L 96.551856 143.560098 
L 96.046583 144.664111 
L 95.885589 145.325907 
L 95.962371 145.626733 
L 96.484981 146.100748 
L 97.33701 148.066075 
L 97.748164 148.179921 
L 98.166748 148.481615 
L 98.515981 148.915056 
L 98.719081 149.423328 
L 98.743849 149.934056 
L 98.535795 151.523274 
L 98.669544 152.181293 
L 99.756872 153.411999 
L 100.643577 153.44291 
L 100.950703 153.835813 
L 100.935842 154.12948 
L 100.616332 154.825841 
L 100.574225 155.663792 
L 100.722835 156.436698 
L 101.389102 157.946004 
L 101.894375 158.624627 
L 103.680168 159.888372 
L 104.769973 161.426479 
L 105.260385 161.599016 
L 107.088285 161.608782 
L 107.714922 164.133564 
L 108.277162 165.012687 
L 108.636302 165.238173 
L 109.721153 166.76537 
L 111.705093 167.061707 
L 111.987452 167.561585 
L 111.912123 168.674511 
L 111.758052 168.748879 
L 110.671758 169.515655 
L 109.850699 170.354275 
L 108.354851 172.619004 
L 107.763922 174.160623 
L 107.161292 177.486711 
L 106.400691 178.421923 
L 105.431413 178.863247 
L 100.856106 179.54578 
L 92.263266 178.72469 
L 91.233529 178.796534 
L 90.371515 179.122401 
L 90.129683 179.396954 
L 89.349579 179.522686 
L 88.895169 179.949923 
L 87.290106 180.519587 
L 86.923458 180.844202 
L 86.26427 181.651271 
L 85.332046 182.001567 
L 84.996602 182.466074 
L 84.731367 183.035815 
L 84.345215 183.552961 
L 82.327673 184.483345 
L 81.874238 185.040314 
L 81.66361 185.139133 
L 81.283309 185.18405 
L 76.140477 187.368466 
L 74.907913 187.64314 
L 74.613424 187.830537 
L 72.665116 190.1218 
L 72.539324 190.607043 
L 72.216556 191.046082 
L 71.357467 191.739323 
L 69.219009 192.51347 
L 68.830907 192.901197 
L 68.433055 193.068102 
L 68.234128 192.621314 
L 65.287287 195.420322 
L 64.717812 196.301192 
L 64.357014 196.599104 
L 62.575452 196.94068 
L 62.025479 196.908577 
L 61.674433 196.498943 
L 61.511586 196.769891 
L 61.285356 196.873906 
L 60.692478 196.927839 
L 59.831438 197.10505 
L 59.623736 196.537466 
L 59.43261 196.608092 
L 59.138121 196.927839 
L 58.359968 197.108903 
L 55.859736 198.522795 
L 55.391674 199.258674 
L 54.902159 199.636255 
L 53.954334 200.200072 
L 53.462869 200.333643 
L 51.645227 200.490334 
L 50.830019 201.06188 
L 49.405355 201.250686 
L 48.536515 201.809409 
L 46.869044 202.121529 
L 46.327847 202.388697 
L 45.905616 202.786887 
L 45.561395 202.5788 
L 45.139164 202.537696 
L 44.73156 202.671283 
L 44.435121 202.980847 
L 44.397091 203.236465 
L 44.563838 203.711744 
L 44.359061 204.187034 
L 44.259598 204.305215 
L 42.326891 205.663067 
L 41.581892 206.897669 
L 41.613096 207.2574 
L 41.178189 207.335771 
L 39.53217 207.953753 
L 37.695027 209.035585 
L 37.311801 209.480153 
L 36.372751 211.016939 
L 36.033406 211.196838 
L 34.381537 211.474398 
L 34.058769 211.646589 
L 33.27379 211.637594 
L 33.099242 211.429422 
L 33.000754 210.465689 
L 31.889106 209.988977 
L 31.664827 209.678028 
L 30.644841 208.606443 
L 29.907644 208.141335 
L 29.531244 207.195732 
L 27.042714 205.917433 
L 22.988126 204.819057 
L 19.042752 203.057917 
L 15.916487 202.745783 
L 12.462579 201.949413 
L 8.757088 200.496756 
L 8.860451 199.976598 
L 9.523539 199.750559 
L 11.237817 199.767255 
L 11.75561 199.966324 
L 12.32021 200.826838 
L 12.636152 200.770325 
L 13.388952 200.395292 
L 13.324594 199.528374 
L 13.990607 199.162353 
L 14.851646 198.982556 
L 15.36944 198.673051 
L 16.324282 198.721884 
L 16.874757 198.617501 
L 17.216559 198.297015 
L 17.446904 197.702539 
L 16.904479 196.747663 
L 17.018413 195.818109 
L 16.911909 195.455268 
L 16.577538 194.823369 
L 16.509425 194.385536 
L 16.666703 192.432935 
L 17.47415 192.626963 
L 17.792422 192.55033 
L 18.030198 192.153309 
L 18.09088 191.603035 
L 17.988091 191.035658 
L 17.334209 189.023885 
L 16.909433 186.766187 
L 16.762061 184.604099 
L 16.573822 184.190943 
L 16.266696 183.864172 
L 14.559541 183.28643 
L 14.17006 183.490146 
L 13.389859 184.109453 
L 12.921119 184.186053 
L 12.354545 183.771276 
L 12.225131 182.956416 
L 12.467241 180.985417 
L 10.910554 181.159776 
L 11.145233 177.56213 
L 11.083932 176.422534 
L 10.791666 175.281381 
L 9.868428 173.066887 
L 9.520434 171.940607 
L 8.794104 166.684773 
L 8.283877 164.9264 
L 7.223794 163.520647 
L 5.332736 152.396843 
L 5.366173 151.868141 
L 5.538932 151.537915 
L 6.11046 151.012495 
L 6.525329 149.075261 
L 5.79838 147.435875 
L 5.831817 146.298327 
L 6.233063 145.086877 
L 8.997204 138.889656 
L 9.33591 138.613344 
L 10.52293 138.107869 
L 10.644295 137.885205 
L 10.963806 135.995135 
L 12.062279 134.199548 
L 12.275286 133.588611 
L 12.292624 133.159671 
L 11.852368 131.837184 
L 13.025146 122.204912 
L 13.345276 120.932146 
L 15.168841 115.892566 
L 15.501975 115.305142 
L 15.458011 114.570087 
L 15.664207 114.315342 
L 16.38806 113.629015 
L 16.467319 113.281809 
L 16.641316 110.707248 
L 16.791783 110.684538 
L 17.10634 111.10143 
L 17.497679 110.673183 
L 18.591199 109.030078 
L 19.032075 108.621361 
L 20.956571 107.671791 
L 21.193108 107.265549 
L 21.215399 106.718237 
L 21.060597 105.967443 
L 20.685358 104.667846 
L 20.954094 103.754233 
L 21.107657 103.56779 
L 21.305803 103.584002 
L 21.610453 103.770446 
L 21.88662 103.808546 
L 22.213561 103.665064 
L 23.289743 102.839064 
L 23.454452 102.360835 
L 21.134902 84.308523 
L 20.91818 84.43964 
L 20.912901 84.428445 
L 20.796815 84.182264 
L 20.858736 83.783261 
L 21.289704 83.392365 
L 21.315711 82.964256 
L 20.609815 79.897534 
L 20.448821 79.86679 
L 20.306403 79.726016 
L 19.932402 78.256884 
L 19.907634 77.617028 
L 19.752832 77.113904 
L 19.147247 76.69573 
L 18.541663 76.519405 
L 17.595514 76.409406 
L 17.019651 75.859426 
L 17.245043 75.417034 
L 17.344116 74.926137 
L 17.490249 73.100215 
L 18.000476 72.421027 
L 18.697703 70.745061 
L 19.458089 70.229304 
L 19.744163 69.634354 
L 19.776362 69.040244 
L 19.399884 68.771086 
L 18.9813 68.651462 
L 18.641974 68.328969 
L 18.453735 67.84646 
L 18.493364 67.256484 
L 18.739809 66.83948 
L 19.351586 66.409561 
L 19.474189 65.877034 
L 19.474189 65.033447 
L 19.32434 64.265871 
L 19.396169 62.822164 
L 18.207291 60.879476 
L 17.34907 59.867477 
L 17.225228 59.546047 
L 17.220275 58.534172 
L 17.544739 57.565185 
L 17.772969 57.145761 
L 17.59056 56.962842 
L 17.362692 56.137703 
L 17.019651 56.021446 
L 16.88838 55.992381 
L 16.69271 55.710625 
L 16.529239 55.062372 
L 16.618405 54.408507 
L 17.019651 53.364827 
L 18.000476 51.851553 
L 17.932363 51.545696 
L 17.362692 50.36028 
L 17.258665 49.572767 
L 17.510064 47.354975 
L 17.354023 46.793542 
L 16.810359 45.740131 
L 16.69271 45.107813 
L 16.69271 42.433792 
L 16.44255 41.024485 
L 16.453696 40.402936 
L 16.767015 39.761273 
L 17.430805 38.995521 
L 17.496441 38.179858 
L 17.258665 37.920343 
L 16.789306 37.61812 
L 16.424593 37.552036 
L 16.280318 36.987915 
L 15.621482 36.770334 
L 15.427051 36.261858 
L 15.427051 35.607565 
L 15.710648 34.515828 
L 16.066072 34.034857 
L 17.090241 33.470128 
L 17.194268 33.177706 
L 17.101387 33.043985 
L 16.125516 32.94007 
L 15.830774 32.746742 
L 14.989271 31.793048 
L 14.801651 31.399193 
L 14.657995 30.643744 
L 14.223312 30.04619 
L 14.06108 28.769866 
L 13.342799 27.130617 
L 13.241249 26.535693 
L 13.309362 26.227376 
L 13.897609 24.715722 
L 13.827639 24.376075 
L 13.541872 24.143985 
L 13.558284 23.642091 
L 13.945907 23.020824 
L 14.032596 22.309474 
L 14.4357 21.466222 
L 14.877195 19.373701 
L 15.581233 18.522664 
L 15.90384 18.066611 
L 16.038827 17.35402 
L 15.895171 16.758092 
L 15.632627 16.206429 
L 15.488971 15.61218 
L 15.521789 15.210943 
L 17.588084 15.259187 
L 17.597991 15.589666 
L 45.205961 15.238281 
L 45.485842 15.034855 
L 45.657982 14.48892 
L 46.075328 14.321689 
L 49.103251 14.442288 
L 50.438261 15.109631 
L 51.038892 15.251147 
L 56.97585 15.325121 
L 57.187619 14.851533 
L 57.867509 14.716456 
L 61.373459 15.104807 
L 61.555506 15.267228 
L 61.845295 15.787476 
L 62.095455 15.77461 
L 61.935699 16.199995 
L 62.353045 16.12521 
L 62.889278 15.369345 
L 63.401982 15.259187 
L 63.680625 14.967315 
L 63.815612 15.036463 
L 63.939454 15.267228 
L 66.838582 15.33477 
L 66.977284 15.715106 
L 67.14447 15.636303 
L 67.367385 15.662035 
L 67.509802 15.879949 
L 67.155616 16.593233 
L 68.306103 18.013526 
L 68.725925 17.681355 
L 69.364947 15.695807 
L 69.709226 15.530162 
L 70.207069 15.461815 
L 71.303065 15.415178 
L 71.434337 15.262404 
L 71.659729 14.906207 
L 72.573678 14.227623 
L 72.703712 13.897996 
L 72.868421 12.739572 
L 73.327873 11.992018 
L 73.79104 11.992018 
L 74.245538 12.460639 
L 74.676506 13.119802 
L 76.181798 11.616656 
L 76.369418 11.154507 
L 76.221428 10.582278 
L 76.288302 10.08 
L 79.537282 10.949562 
L 79.537282 10.949562 
" clip-path="url(#paa2c6dd094)" style="fill: none; stroke: #000000; stroke-width: 0.5; stroke-linecap: square"/>
   </g>
  </g>
 </g>
 <defs>
  <clipPath id="paa2c6dd094">
   <rect x="0" y="-0" width="117.320187" height="221.76"/>
  </clipPath>
 </defs>
</svg>
