<?xml version="1.0" encoding="utf-8" standalone="no"?>
<!DOCTYPE svg PUBLIC "-//W3C//DTD SVG 1.1//EN"
  "http://www.w3.org/Graphics/SVG/1.1/DTD/svg11.dtd">
<svg xmlns:xlink="http://www.w3.org/1999/xlink" width="135.872112pt" height="221.76pt" viewBox="0 0 135.872112 221.76" xmlns="http://www.w3.org/2000/svg" version="1.1">
 <metadata>
  <rdf:RDF xmlns:dc="http://purl.org/dc/elements/1.1/" xmlns:cc="http://creativecommons.org/ns#" xmlns:rdf="http://www.w3.org/1999/02/22-rdf-syntax-ns#">
   <cc:Work>
    <dc:type rdf:resource="http://purl.org/dc/dcmitype/StillImage"/>
    <dc:date>2026-04-26T19:22:18.552708</dc:date>
    <dc:format>image/svg+xml</dc:format>
    <dc:creator>
     <cc:Agent>
      <dc:title>Matplotlib v3.10.9, https://matplotlib.org/</dc:title>
     </cc:Agent>
    </dc:creator>
   </cc:Work>
  </rdf:RDF>
 </metadata>
 <defs>
  <style type="text/css">*{stroke-linejoin: round; stroke-linecap: butt}</style>
 </defs>
 <g id="figure_1">
  <g id="patch_1">
   <path d="M 0 221.76 
L 135.872112 221.76 
L 135.872112 0 
L 0 0 
z
" style="fill: #ffffff"/>
  </g>
  <g id="axes_1">
   <g id="patch_2">
    <path d="M 123.003427 31.609822 
L 128.518195 46.044926 
L 129.696107 58.403752 
L 127.367054 100.227857 
L 125.787582 106.183557 
L 122.896344 112.070154 
L 118.505946 125.090451 
L 118.720112 131.739393 
L 122.414471 145.661228 
L 120.754686 148.29331 
L 117.328034 150.302024 
L 115.400542 155.323884 
L 114.597421 161.973686 
L 114.383255 168.9354 
L 110.742437 176.555424 
L 82.552869 195.329446 
L 82.552869 188.990448 
L 76.931018 192.488999 
L 72.728015 197.269283 
L 70.050943 203.643145 
L 69.060426 211.68 
L 62.929931 210.225032 
L 57.013602 207.90403 
L 51.418522 204.682378 
L 46.225002 200.629395 
L 39.42524 208.215805 
L 28.261849 211.195009 
L 16.02763 210.398242 
L 6.176005 206.968707 
L 28.984659 188.33231 
L 33.160891 183.17119 
L 35.489943 170.736475 
L 33.589222 160.761469 
L 30.349965 150.960055 
L 28.609868 139.323573 
L 32.143603 120.380897 
L 45.79667 87.001208 
L 46.225002 72.25196 
L 84.507132 13.195124 
L 98.294053 10.08 
L 113.312426 12.641321 
L 127.554449 23.994543 
L 127.126118 26.625247 
z
" clip-path="url(#p510753321e)" style="stroke: #000000; stroke-linejoin: miter"/>
   </g>
   <g id="line2d_1">
    <path d="M 123.003427 31.609822 
L 128.518195 46.044926 
L 129.696107 58.403752 
L 127.367054 100.227857 
L 125.787582 106.183557 
L 122.896344 112.070154 
L 118.505946 125.090451 
L 118.720112 131.739393 
L 122.414471 145.661228 
L 120.754686 148.29331 
L 117.328034 150.302024 
L 115.400542 155.323884 
L 114.597421 161.973686 
L 114.383255 168.9354 
L 110.742437 176.555424 
L 82.552869 195.329446 
L 82.552869 188.990448 
L 76.931018 192.488999 
L 72.728015 197.269283 
L 70.050943 203.643145 
L 69.060426 211.68 
L 62.929931 210.225032 
L 57.013602 207.90403 
L 51.418522 204.682378 
L 46.225002 200.629395 
L 39.42524 208.215805 
L 28.261849 211.195009 
L 16.02763 210.398242 
L 6.176005 206.968707 
L 28.984659 188.33231 
L 33.160891 183.17119 
L 35.489943 170.736475 
L 33.589222 160.761469 
L 30.349965 150.960055 
L 28.609868 139.323573 
L 32.143603 120.380897 
L 45.79667 87.001208 
L 46.225002 72.25196 
L 84.507132 13.195124 
L 98.294053 10.08 
L 113.312426 12.641321 
L 127.554449 23.994543 
L 127.126118 26.625247 
L 123.003427 31.609822 
" clip-path="url(#p510753321e)" style="fill: none; stroke: #000000; stroke-width: 0.5; stroke-linecap: square"/>
   </g>
  </g>
 </g>
 <defs>
  <clipPath id="p510753321e">
   <rect x="0" y="-0" width="135.872112" height="221.76"/>
  </clipPath>
 </defs>
</svg>
