<?xml version="1.0" encoding="utf-8" standalone="no"?>
<!DOCTYPE svg PUBLIC "-//W3C//DTD SVG 1.1//EN"
  "http://www.w3.org/Graphics/SVG/1.1/DTD/svg11.dtd">
<svg xmlns:xlink="http://www.w3.org/1999/xlink" width="136.814501pt" height="221.76pt" viewBox="0 0 136.814501 221.76" xmlns="http://www.w3.org/2000/svg" version="1.1">
 <metadata>
  <rdf:RDF xmlns:dc="http://purl.org/dc/elements/1.1/" xmlns:cc="http://creativecommons.org/ns#" xmlns:rdf="http://www.w3.org/1999/02/22-rdf-syntax-ns#">
   <cc:Work>
    <dc:type rdf:resource="http://purl.org/dc/dcmitype/StillImage"/>
    <dc:date>2026-04-26T19:22:24.865157</dc:date>
    <dc:format>image/svg+xml</dc:format>
    <dc:creator>
     <cc:Agent>
      <dc:title>Matplotlib v3.10.9, https://matplotlib.org/</dc:title>
     </cc:Agent>
    </dc:creator>
   </cc:Work>
  </rdf:RDF>
 </metadata>
 <defs>
  <style type="text/css">*{stroke-linejoin: round; stroke-linecap: butt}</style>
 </defs>
 <g id="figure_1">
  <g id="patch_1">
   <path d="M 0 221.76 
L 136.814501 221.76 
L 136.814501 0 
L 0 0 
z
" style="fill: #ffffff"/>
  </g>
  <g id="axes_1">
   <g id="patch_2">
    <path d="M 105.658571 16.86595 
L 109.547276 27.700467 
L 116.244489 33.832529 
L 123.867584 36.551377 
L 130.503072 37.166599 
L 130.59566 42.882366 
L 125.102094 55.723999 
L 113.466843 77.123184 
L 100.134142 92.490087 
L 76.030346 111.711422 
L 66.617212 124.063946 
L 61.277959 144.243789 
L 57.759607 189.899215 
L 48.469924 207.705114 
L 41.803574 211.282506 
L 34.026165 211.68 
L 27.637578 208.877692 
L 23.748874 200.053822 
L 18.563935 191.647893 
L 17.360288 189.223596 
L 15.045583 170.725019 
L 13.841936 167.446833 
L 12.021035 164.585943 
L 9.798918 162.32112 
L 7.021272 160.731795 
L 10.909976 155.824888 
L 13.378995 150.798992 
L 14.67523 144.561608 
L 15.045583 135.901318 
L 14.304877 131.869331 
L 12.391388 126.844432 
L 10.230996 122.574427 
L 6.218841 118.820919 
L 7.916291 115.127105 
L 10.879114 113.02208 
L 12.453113 115.60372 
L 17.699778 114.948375 
L 40.599927 98.208509 
L 45.877455 92.291536 
L 66.617212 77.123184 
L 70.66023 72.041025 
L 74.116857 66.16505 
L 77.141405 59.098383 
L 85.10399 26.390747 
L 87.542146 20.497188 
L 92.017243 15.139662 
L 98.18979 10.615718 
L 103.467317 10.08 
z
" clip-path="url(#p12ee176fe7)" style="stroke: #000000; stroke-linejoin: miter"/>
   </g>
   <g id="line2d_1">
    <path d="M 105.658571 16.86595 
L 109.547276 27.700467 
L 116.244489 33.832529 
L 123.867584 36.551377 
L 130.503072 37.166599 
L 130.59566 42.882366 
L 125.102094 55.723999 
L 113.466843 77.123184 
L 100.134142 92.490087 
L 76.030346 111.711422 
L 66.617212 124.063946 
L 61.277959 144.243789 
L 57.759607 189.899215 
L 48.469924 207.705114 
L 41.803574 211.282506 
L 34.026165 211.68 
L 27.637578 208.877692 
L 23.748874 200.053822 
L 18.563935 191.647893 
L 17.360288 189.223596 
L 15.045583 170.725019 
L 13.841936 167.446833 
L 12.021035 164.585943 
L 9.798918 162.32112 
L 7.021272 160.731795 
L 10.909976 155.824888 
L 13.378995 150.798992 
L 14.67523 144.561608 
L 15.045583 135.901318 
L 14.304877 131.869331 
L 12.391388 126.844432 
L 10.230996 122.574427 
L 6.218841 118.820919 
L 7.916291 115.127105 
L 10.879114 113.02208 
L 12.453113 115.60372 
L 17.699778 114.948375 
L 40.599927 98.208509 
L 45.877455 92.291536 
L 66.617212 77.123184 
L 70.66023 72.041025 
L 74.116857 66.16505 
L 77.141405 59.098383 
L 85.10399 26.390747 
L 87.542146 20.497188 
L 92.017243 15.139662 
L 98.18979 10.615718 
L 103.467317 10.08 
L 105.658571 16.86595 
" clip-path="url(#p12ee176fe7)" style="fill: none; stroke: #000000; stroke-width: 0.5; stroke-linecap: square"/>
   </g>
  </g>
 </g>
 <defs>
  <clipPath id="p12ee176fe7">
   <rect x="0" y="-0" width="136.814501" height="221.76"/>
  </clipPath>
 </defs>
</svg>
