<?xml version="1.0" encoding="utf-8" standalone="no"?>
<!DOCTYPE svg PUBLIC "-//W3C//DTD SVG 1.1//EN"
  "http://www.w3.org/Graphics/SVG/1.1/DTD/svg11.dtd">
<svg xmlns:xlink="http://www.w3.org/1999/xlink" width="223.2pt" height="165.044198pt" viewBox="0 0 223.2 165.044198" xmlns="http://www.w3.org/2000/svg" version="1.1">
 <metadata>
  <rdf:RDF xmlns:dc="http://purl.org/dc/elements/1.1/" xmlns:cc="http://creativecommons.org/ns#" xmlns:rdf="http://www.w3.org/1999/02/22-rdf-syntax-ns#">
   <cc:Work>
    <dc:type rdf:resource="http://purl.org/dc/dcmitype/StillImage"/>
    <dc:date>2026-04-26T19:22:10.652655</dc:date>
    <dc:format>image/svg+xml</dc:format>
    <dc:creator>
     <cc:Agent>
      <dc:title>Matplotlib v3.10.9, https://matplotlib.org/</dc:title>
     </cc:Agent>
    </dc:creator>
   </cc:Work>
  </rdf:RDF>
 </metadata>
 <defs>
  <style type="text/css">*{stroke-linejoin: round; stroke-linecap: butt}</style>
 </defs>
 <g id="figure_1">
  <g id="patch_1">
   <path d="M 0 165.044198 
L 223.2 165.044198 
L 223.2 0 
L 0 0 
z
" style="fill: #ffffff"/>
  </g>
  <g id="axes_1">
   <g id="patch_2">
    <path d="M 208.585453 8.018212 
L 208.053947 13.635449 
L 208.165034 15.537597 
L 208.797372 17.859231 
L 212.129965 23.161042 
L 212.876807 24.89621 
L 213.054545 26.357738 
L 212.808446 27.823777 
L 211.644602 31.343537 
L 211.504463 32.054621 
L 211.437811 33.149999 
L 211.644602 35.619208 
L 211.57966 36.61315 
L 211.049863 38.269817 
L 210.784964 40.523074 
L 209.6741 42.697014 
L 207.754869 43.602882 
L 203.275522 43.673586 
L 204.126615 41.738157 
L 203.005497 41.322813 
L 201.195643 41.875134 
L 199.941221 42.829578 
L 198.341576 44.499948 
L 194.321957 46.877561 
L 192.879543 48.963697 
L 192.712058 49.843289 
L 192.705222 51.673301 
L 192.43007 52.614884 
L 192.937649 52.928754 
L 194.670597 53.238207 
L 196.010471 53.795233 
L 197.273438 54.781113 
L 198.565458 56.368334 
L 199.230268 56.965228 
L 201.036704 57.769953 
L 201.346037 58.274026 
L 201.513521 58.928452 
L 201.880961 59.755355 
L 203.328502 61.793993 
L 204.112943 62.479475 
L 205.187918 63.072101 
L 207.517315 63.536482 
L 208.146235 63.934531 
L 208.872569 65.345446 
L 208.961438 66.964343 
L 208.383789 70.428091 
L 208.165034 73.985262 
L 209.175066 84.075635 
L 209.161394 85.61169 
L 208.81788 89.295078 
L 208.476076 90.432968 
L 207.428446 91.429219 
L 205.825383 92.243962 
L 204.126615 92.642487 
L 202.798705 92.403371 
L 202.407339 91.770168 
L 202.550897 91.132553 
L 202.509881 90.58351 
L 201.556246 90.23815 
L 200.999105 89.795389 
L 200.780351 88.081977 
L 200.200992 87.555139 
L 199.20805 87.533003 
L 199.009804 87.989005 
L 199.308883 88.958591 
L 199.167034 90.920019 
L 198.979042 91.7436 
L 198.12624 93.368705 
L 196.986322 94.241081 
L 195.656703 94.27208 
L 194.222834 93.359849 
L 193.698164 93.873528 
L 190.847516 96.087787 
L 189.611893 96.663528 
L 186.721937 96.070072 
L 185.676015 96.096645 
L 183.690132 96.539521 
L 182.770678 96.588238 
L 181.688868 96.264937 
L 181.056529 95.782208 
L 180.487425 95.144488 
L 179.908067 94.621925 
L 179.23813 94.46693 
L 177.713683 94.728208 
L 172.176452 94.267651 
L 171.797049 94.00195 
L 171.451827 93.944381 
L 170.744292 94.431502 
L 170.226458 95.17106 
L 169.460816 97.230424 
L 169.018179 98.080792 
L 168.175632 98.935619 
L 162.021366 103.224521 
L 156.156081 107.312727 
L 153.423355 107.937469 
L 147.925432 107.126637 
L 145.187579 107.498819 
L 143.581098 108.626476 
L 142.395037 110.303657 
L 135.832393 122.587959 
L 134.837743 125.813502 
L 133.521796 132.554109 
L 127.177907 148.255091 
L 124.959596 151.639219 
L 124.959596 151.652535 
L 123.081717 154.120156 
L 120.514147 156.444573 
L 118.834731 157.542189 
L 118.070381 157.395372 
L 118.253394 156.262807 
L 118.713619 155.682561 
L 119.297647 155.298068 
L 119.876292 154.759787 
L 120.85326 152.823467 
L 121.273115 152.358631 
L 121.273115 151.771483 
L 120.780593 151.771483 
L 120.503382 152.578815 
L 120.164269 153.270835 
L 119.685205 153.80559 
L 118.974682 154.120156 
L 118.196875 154.162099 
L 117.470205 153.952387 
L 116.929239 153.459571 
L 116.719312 152.676676 
L 117.898133 146.372436 
L 118.296456 145.324207 
L 118.996213 144.849025 
L 119.410685 143.730982 
L 119.728267 142.459268 
L 120.121207 141.488056 
L 120.506073 141.243512 
L 121.332325 141.309888 
L 121.684895 141.166656 
L 121.730648 140.838273 
L 121.633759 139.695952 
L 121.684895 139.406013 
L 124.432786 139.112584 
L 124.308983 138.396492 
L 123.96987 137.813154 
L 123.533868 137.37304 
L 123.081717 137.065663 
L 123.961796 135.864134 
L 124.486614 134.243556 
L 124.411256 132.71388 
L 123.490806 131.791929 
L 122.893321 134.027021 
L 121.908279 135.647585 
L 120.586815 136.656997 
L 118.974682 137.065663 
L 119.3434 138.441903 
L 119.055423 139.287244 
L 118.398728 139.465398 
L 117.663983 138.819159 
L 117.518649 139.266285 
L 117.338327 139.60862 
L 117.203759 139.99288 
L 117.171462 140.579761 
L 116.907708 140.363173 
L 116.22679 139.99288 
L 116.197185 141.645264 
L 115.81501 142.424332 
L 115.136784 142.962356 
L 114.232483 143.85676 
L 113.473516 145.104085 
L 112.499239 147.525536 
L 110.784834 150.502868 
L 110.058163 151.397532 
L 109.24806 151.771483 
L 108.394895 151.289192 
L 107.374865 150.156893 
L 106.615897 148.881367 
L 106.537848 147.958835 
L 107.264518 147.284429 
L 109.242677 146.016033 
L 109.945126 145.324207 
L 110.281547 144.331924 
L 110.803674 140.579761 
L 110.093151 133.345995 
L 110.803674 131.254139 
L 109.315344 131.547478 
L 108.927787 132.81865 
L 109.145788 134.474063 
L 109.490284 135.944467 
L 109.58179 137.247294 
L 109.509123 139.322176 
L 109.024676 140.803339 
L 107.315654 139.936988 
L 104.97416 139.99288 
L 104.277094 139.727391 
L 103.773807 139.360601 
L 103.405089 139.014775 
L 103.130569 138.819159 
L 101.588413 139.105598 
L 100.775618 138.941419 
L 100.417665 137.973833 
L 100.237343 137.030734 
L 99.763662 136.405513 
L 99.106967 136.052742 
L 98.364148 135.944467 
L 97.381797 135.046847 
L 97.147647 132.96882 
L 97.217623 128.862161 
L 97.381797 127.936857 
L 97.346809 127.357251 
L 96.991548 127.102367 
L 96.574385 127.091893 
L 96.361766 126.997622 
L 96.283716 126.728776 
L 96.27026 126.198077 
L 96.348309 125.279853 
L 96.687422 124.152195 
L 96.765472 123.244519 
L 97.091128 122.448584 
L 98.767854 119.572257 
L 99.472993 118.849736 
L 99.900922 118.9719 
L 101.233151 119.771216 
L 101.997501 119.963195 
L 102.66227 119.697915 
L 103.596177 118.532113 
L 104.258255 118.263358 
L 104.931098 117.7817 
L 105.716979 116.633438 
L 106.400588 115.279324 
L 106.739701 114.162584 
L 103.100964 117.924801 
L 101.774117 118.849736 
L 100.75947 118.078372 
L 100.546851 117.069702 
L 100.872507 114.455724 
L 101.265448 113.618192 
L 102.040563 112.557359 
L 102.573455 111.622188 
L 102.226268 111.18253 
L 101.095891 111.562868 
L 100.231961 112.641107 
L 99.672155 114.099769 
L 99.472993 115.600396 
L 99.058522 116.588067 
L 98.105776 117.212798 
L 97.029227 117.694445 
L 96.27026 118.263358 
L 95.651244 119.614143 
L 95.317514 120.75556 
L 94.74156 121.533988 
L 93.379725 121.827214 
L 92.513103 122.179787 
L 91.775667 122.66502 
L 91.221244 122.427639 
L 90.930576 120.605463 
L 91.132429 119.690934 
L 92.125545 116.591557 
L 92.453893 115.917982 
L 92.653054 115.331673 
L 94.504719 111.817594 
L 93.347428 111.754784 
L 92.93834 111.165083 
L 92.965254 110.170649 
L 93.150958 108.893644 
L 93.670393 109.305349 
L 94.257113 109.354196 
L 94.854597 109.008781 
L 95.452082 108.255166 
L 95.500527 108.802931 
L 95.863862 110.065974 
L 96.157222 108.935512 
L 96.647052 107.965589 
L 97.196092 107.756258 
L 97.664391 108.893644 
L 98.156912 108.893644 
L 98.09501 108.045833 
L 97.922763 107.271315 
L 97.62402 106.559617 
L 97.217623 105.910734 
L 97.529822 105.844451 
L 97.578267 105.764214 
L 97.559427 105.617695 
L 97.664391 105.328149 
L 98.272641 105.663046 
L 98.993929 105.844451 
L 99.925144 105.910734 
L 101.031298 106.270059 
L 101.394634 105.99446 
L 100.872507 104.742089 
L 101.0932 104.086277 
L 101.321967 102.983993 
L 101.774117 102.983993 
L 102.307009 103.922326 
L 103.23015 103.765354 
L 103.9945 103.800236 
L 104.032179 105.328149 
L 105.297125 104.749066 
L 105.262137 103.587453 
L 104.487021 102.268931 
L 103.536967 101.232999 
L 103.259755 101.456227 
L 103.020223 101.560865 
L 102.226268 101.818975 
L 102.226268 101.232999 
L 103.666153 100.59472 
L 104.349761 100.109917 
L 104.97416 99.42284 
L 105.46399 100.490085 
L 106.295624 101.721312 
L 107.374865 102.394501 
L 108.588674 101.818975 
L 107.783953 101.662016 
L 107.724743 101.086507 
L 107.864694 100.27733 
L 107.684372 99.42284 
L 107.159555 99.088027 
L 106.60244 99.09849 
L 106.13145 98.847383 
L 105.87577 97.717435 
L 106.632046 98.038279 
L 108.07193 98.428878 
L 108.588674 98.83692 
L 109.490284 98.251015 
L 109.347641 98.812507 
L 109.17001 100.033187 
L 109.000454 100.59472 
L 110.636809 102.077089 
L 111.132021 101.95152 
L 111.751037 100.59472 
L 111.411924 99.841362 
L 110.566833 98.400978 
L 110.397276 97.98248 
L 110.577598 97.396596 
L 111.035132 96.72703 
L 111.608394 96.176048 
L 112.157434 95.911022 
L 112.300077 96.099329 
L 112.803364 96.503846 
L 113.500429 96.901394 
L 114.232483 97.079247 
L 114.652337 97.375671 
L 114.886487 98.115004 
L 114.975302 99.067101 
L 114.948388 100.008773 
L 116.22679 99.42284 
L 116.097604 99.133366 
L 115.944196 98.526529 
L 115.81501 98.251015 
L 116.805435 98.324253 
L 117.489044 98.79507 
L 118.019245 99.58676 
L 118.522531 100.59472 
L 115.9119 101.246951 
L 114.948388 101.232999 
L 115.255205 101.693408 
L 115.405922 102.017792 
L 115.653528 102.237539 
L 116.22679 102.397989 
L 115.944196 103.751401 
L 116.315606 104.518832 
L 116.880794 104.445576 
L 117.518649 102.167778 
L 118.296456 102.070112 
L 119.076954 102.272419 
L 119.424141 102.111969 
L 121.526104 101.95152 
L 122.137045 101.818975 
L 122.898704 101.330661 
L 123.426213 100.772599 
L 123.768017 99.987846 
L 123.986019 98.83692 
L 123.157076 99.182192 
L 122.559591 99.600711 
L 121.878674 99.925067 
L 119.674439 100.228501 
L 119.181918 100.019236 
L 118.974682 99.129878 
L 119.109251 98.742756 
L 119.448364 98.460266 
L 119.895132 98.292865 
L 120.368813 98.251015 
L 120.110441 97.476805 
L 120.094293 97.016476 
L 120.368813 95.911022 
L 119.61792 95.687845 
L 119.020435 96.137688 
L 118.635569 97.058323 
L 118.522531 98.251015 
L 117.615539 96.93278 
L 117.042276 96.531744 
L 116.22679 96.545693 
L 116.22679 95.911022 
L 116.697781 95.576258 
L 117.663983 94.153559 
L 117.663983 93.567766 
L 117.171462 92.403196 
L 116.719312 92.403196 
L 115.81501 95.325187 
L 115.023747 95.569283 
L 114.027939 94.843976 
L 113.102106 94.739366 
L 113.791098 93.428294 
L 114.727696 92.849492 
L 115.529725 92.173078 
L 115.81501 90.59369 
L 115.257896 91.336303 
L 114.636189 91.744227 
L 114.03063 91.723308 
L 113.513886 91.179411 
L 113.102106 91.179411 
L 113.042896 92.061506 
L 112.843734 92.605423 
L 112.431954 92.894819 
L 111.751037 92.981987 
L 111.947507 94.233758 
L 111.460369 94.571991 
L 110.784834 94.11869 
L 110.397276 92.981987 
L 109.388012 94.823054 
L 108.838971 94.334879 
L 109.167319 92.877386 
L 110.803674 91.817445 
L 110.219646 91.273546 
L 109.977422 90.576258 
L 110.044707 89.774401 
L 110.397276 88.888902 
L 110.803674 88.888902 
L 111.091651 89.125962 
L 111.347331 89.230548 
L 112.157434 89.422289 
L 111.866766 88.240487 
L 111.277355 87.459623 
L 109.945126 86.553294 
L 109.490284 86.553294 
L 109.30727 87.94766 
L 108.85512 89.063211 
L 108.499858 90.23808 
L 108.588674 91.817445 
L 107.902374 92.173078 
L 107.315654 93.260928 
L 106.739701 93.567766 
L 106.335995 93.281849 
L 106.513625 92.486876 
L 107.191851 91.179411 
L 106.416736 90.743605 
L 106.279476 89.69073 
L 106.739701 87.131946 
L 106.093771 87.626949 
L 105.6793 88.352041 
L 105.453224 89.26541 
L 105.383249 90.325239 
L 105.116803 90.394966 
L 103.736128 90.367075 
L 103.130569 90.59369 
L 104.032179 91.179411 
L 104.032179 91.817445 
L 104.791146 92.493849 
L 105.555496 93.093563 
L 105.87577 93.860661 
L 105.617398 95.007866 
L 105.027987 95.290317 
L 104.403589 94.934638 
L 104.032179 94.153559 
L 103.714597 94.830028 
L 103.461608 95.548361 
L 103.267829 96.294612 
L 103.130569 97.079247 
L 102.627283 93.770003 
L 102.218194 92.612396 
L 101.889846 92.748377 
L 101.321967 92.981987 
L 101.774117 94.153559 
L 100.872507 94.153559 
L 101.130879 96.409691 
L 101.448461 97.375671 
L 102.226268 98.251015 
L 101.774117 99.42284 
L 100.781001 98.519553 
L 99.892848 97.298949 
L 98.568692 94.739366 
L 98.364148 96.252766 
L 98.827064 97.675586 
L 99.497216 99.091515 
L 99.925144 100.59472 
L 99.612945 100.409866 
L 98.568692 100.008773 
L 98.272641 101.163241 
L 97.712835 101.177193 
L 97.244537 100.305232 
L 97.217623 98.83692 
L 96.765472 98.83692 
L 96.485569 99.621637 
L 96.299865 100.493573 
L 96.221815 101.431811 
L 96.27026 102.397989 
L 95.686232 102.028256 
L 95.452082 101.818975 
L 95.452082 103.521176 
L 94.763091 102.949112 
L 94.504719 102.185218 
L 94.321706 101.274854 
L 93.829184 100.301744 
L 93.457775 99.349599 
L 93.740369 98.67998 
L 94.504719 97.98248 
L 94.830375 96.685183 
L 95.508601 95.360058 
L 96.130308 93.804871 
L 96.27026 91.817445 
L 94.119853 94.446461 
L 92.976019 95.185705 
L 91.797198 94.153559 
L 92.11478 93.414347 
L 92.104014 91.608252 
L 92.206286 90.59369 
L 91.339664 90.541394 
L 90.806772 90.886549 
L 90.419215 91.388601 
L 89.988595 91.817445 
L 89.972447 92.096372 
L 89.46916 92.852979 
L 88.879749 93.31323 
L 88.597155 92.696077 
L 88.368389 91.263087 
L 88.007745 89.872017 
L 87.99967 88.435707 
L 89.224245 86.107114 
L 89.759828 84.21094 
L 90.21467 83.336102 
L 92.698808 80.115853 
L 93.42817 79.478128 
L 93.837258 79.28298 
L 94.014889 78.986777 
L 94.05526 78.021529 
L 94.216742 77.171306 
L 94.6043 76.425644 
L 95.452082 75.390815 
L 95.863862 75.390815 
L 96.044184 75.944809 
L 96.248729 76.185225 
L 96.485569 76.335051 
L 96.765472 76.606831 
L 97.018461 75.812407 
L 97.346809 75.498825 
L 97.734366 75.578962 
L 98.156912 75.390815 
L 99.682921 75.450046 
L 102.336614 76.376863 
L 103.784573 76.606831 
L 111.955581 76.606831 
L 112.300077 76.314145 
L 113.408923 75.038914 
L 113.764184 74.746247 
L 115.50012 74.216669 
L 116.5982 72.990323 
L 117.470205 71.638629 
L 118.522531 70.708512 
L 120.040466 70.708512 
L 120.312294 72.004415 
L 119.860144 73.742846 
L 119.198066 75.066787 
L 118.705545 76.683487 
L 118.75399 78.819511 
L 119.198066 80.920875 
L 119.876292 82.398561 
L 121.154694 83.137438 
L 122.83142 83.492943 
L 124.300909 84.120318 
L 124.930691 85.647 
L 125.633139 86.636954 
L 127.172604 87.083144 
L 128.709378 86.734557 
L 129.403752 85.326319 
L 127.683965 86.079228 
L 126.488995 84.726797 
L 125.57662 82.795878 
L 124.680393 81.820022 
L 122.726456 81.516817 
L 122.137045 81.286803 
L 121.38077 80.697836 
L 120.998595 80.094944 
L 120.67563 79.425856 
L 120.121207 78.606946 
L 119.825156 77.505817 
L 120.422641 76.477909 
L 121.256966 75.484889 
L 121.684895 74.481457 
L 122.898704 70.300944 
L 122.944457 69.771465 
L 123.235126 69.541563 
L 124.212094 69.48583 
L 124.882246 69.245481 
L 124.866098 68.691643 
L 124.4597 68.099503 
L 123.986019 67.73726 
L 123.991401 67.437717 
L 123.307793 67.166042 
L 122.5569 67.110314 
L 121.91097 67.469064 
L 121.386152 67.597937 
L 119.922045 66.838643 
L 119.198066 66.615735 
L 118.261468 66.977961 
L 116.218716 68.545348 
L 115.158315 68.907603 
L 114.587744 69.47538 
L 112.706474 72.140279 
L 111.751037 72.997291 
L 110.243868 73.321291 
L 108.99238 73.011226 
L 106.330612 71.879002 
L 103.763042 71.335553 
L 102.944865 70.837402 
L 101.997501 69.778432 
L 100.756778 68.733441 
L 99.27114 68.305009 
L 97.72091 68.388605 
L 96.27026 68.907603 
L 95.783121 69.308181 
L 94.701189 70.468151 
L 94.278644 70.708512 
L 92.852216 70.614457 
L 92.117471 70.670193 
L 91.571122 70.976744 
L 89.498765 73.634844 
L 89.100442 73.937949 
L 88.145005 74.43268 
L 87.733224 74.746247 
L 85.779288 78.31772 
L 85.230248 78.89269 
L 83.906092 79.366615 
L 80.967113 81.62137 
L 79.704859 82.300975 
L 79.521845 82.398561 
L 75.242562 83.398838 
L 74.596633 83.890279 
L 73.96416 84.62223 
L 70.809871 86.720614 
L 69.544926 87.131946 
L 70.898686 80.178581 
L 72.117878 77.293263 
L 73.724628 77.167822 
L 74.096038 77.481425 
L 74.599324 77.690496 
L 75.207575 77.774125 
L 75.907332 77.728826 
L 75.907332 77.143431 
L 74.661226 77.045866 
L 73.119069 75.36991 
L 71.848741 75.390815 
L 70.78834 76.397769 
L 70.508437 77.868208 
L 70.379251 79.488582 
L 68.236919 84.820907 
L 67.556001 85.326319 
L 66.261451 84.90456 
L 65.992314 83.813599 
L 66.425625 80.649046 
L 65.31947 81.318168 
L 65.055716 82.712232 
L 65.023419 84.406128 
L 64.576651 85.967685 
L 64.172945 86.243059 
L 62.708838 86.915822 
L 62.095205 87.431735 
L 61.427745 88.16728 
L 61.040187 88.292778 
L 60.776433 87.905828 
L 60.512678 87.131946 
L 60.34043 85.427402 
L 60.722605 83.712522 
L 61.871821 80.649046 
L 62.824567 75.892545 
L 63.225582 74.746247 
L 63.494719 74.408291 
L 63.909191 74.042468 
L 64.382872 73.756782 
L 64.826949 73.634844 
L 65.085321 73.324775 
L 65.521323 71.241496 
L 67.233036 67.960178 
L 67.779385 67.200872 
L 68.715983 66.486868 
L 70.115497 65.765919 
L 71.590369 65.295747 
L 72.74766 65.341023 
L 73.102921 65.842541 
L 73.353219 66.650564 
L 73.700406 67.402887 
L 74.346335 67.73726 
L 75.659725 67.834786 
L 76.235679 68.02984 
L 76.811633 68.371189 
L 77.02156 67.159076 
L 77.503316 65.922645 
L 77.753613 64.874342 
L 77.263784 64.230059 
L 76.881609 64.55394 
L 76.25721 65.341023 
L 75.339452 66.016681 
L 74.104112 65.985336 
L 73.711171 65.640539 
L 73.259021 64.64797 
L 72.74766 64.230059 
L 72.166323 64.010659 
L 71.891803 64.038519 
L 71.606518 64.156925 
L 69.103541 64.397223 
L 68.250375 64.087274 
L 67.779385 63.059947 
L 67.329926 63.059947 
L 66.858936 64.470357 
L 65.63167 65.361919 
L 64.113735 65.835575 
L 62.773431 65.985336 
L 62.937605 66.594838 
L 63.037186 66.852574 
L 63.225582 67.200872 
L 62.999507 67.280981 
L 62.843407 67.270532 
L 62.759974 67.36109 
L 62.773431 67.73726 
L 62.243231 67.368057 
L 61.871821 66.984927 
L 61.88797 67.381989 
L 62.105971 68.538382 
L 61.982168 69.60078 
L 61.416979 70.708512 
L 60.450776 71.833714 
L 59.543784 72.321434 
L 54.645485 72.412011 
L 54.004938 72.690714 
L 52.686165 73.467615 
L 52.158656 73.634844 
L 51.808778 73.917045 
L 51.388924 74.54417 
L 50.834501 75.150407 
L 50.086299 75.390815 
L 49.445752 75.098144 
L 48.864416 74.474489 
L 47.825546 72.997291 
L 46.210722 73.467615 
L 44.092611 72.962452 
L 42.251712 71.966094 
L 41.468523 70.976744 
L 40.112071 67.200872 
L 39.476907 66.734154 
L 37.705983 66.385864 
L 36.947016 65.985336 
L 36.381828 65.187783 
L 35.970048 64.129065 
L 35.71975 62.910204 
L 35.488292 60.291608 
L 34.83698 58.108507 
L 34.694337 56.928254 
L 36.494866 51.964184 
L 37.18924 50.892139 
L 37.95359 50.077696 
L 38.766384 49.461662 
L 39.61955 48.984856 
L 39.654537 50.001126 
L 39.974811 50.756397 
L 40.475406 50.923465 
L 41.054051 50.154267 
L 41.118644 49.444261 
L 40.531925 48.177441 
L 40.558839 47.237811 
L 41.301658 45.891075 
L 42.429343 45.010693 
L 43.656609 44.349558 
L 48.509155 40.717135 
L 49.596469 39.589947 
L 50.10783 38.789816 
L 50.850649 37.335737 
L 51.44006 36.674822 
L 52.037545 36.333937 
L 53.490886 35.88175 
L 54.150272 35.558268 
L 52.390114 35.474789 
L 51.213984 36.100886 
L 50.306992 37.252252 
L 49.389234 38.741114 
L 48.04893 39.916965 
L 44.649726 40.818028 
L 43.271743 41.39904 
L 40.99215 43.260467 
L 40.338146 43.994641 
L 38.098924 47.237811 
L 36.858201 46.576613 
L 36.95509 44.989814 
L 37.447612 43.069099 
L 37.399167 41.39904 
L 37.060054 42.66549 
L 36.212271 44.356517 
L 35.811257 47.474455 
L 35.162636 48.709914 
L 34.161445 49.127549 
L 32.885734 48.400173 
L 32.433584 48.984856 
L 32.242496 48.615947 
L 31.488912 47.815505 
L 31.354343 48.950053 
L 30.832217 49.458182 
L 30.011348 49.583476 
L 29.007466 49.569554 
L 28.848675 49.889752 
L 28.458426 50.502317 
L 28.057411 50.871256 
L 27.877089 50.474473 
L 27.764052 50.133384 
L 27.484149 49.847987 
L 27.112739 49.646123 
L 25.837028 49.34681 
L 25.21263 48.762118 
L 24.835838 47.916429 
L 24.714726 46.94549 
L 24.302946 46.500054 
L 22.720419 44.210374 
L 22.680048 43.678004 
L 22.219823 43.361371 
L 20.823001 41.858294 
L 20.201293 41.39904 
L 19.889094 41.48602 
L 18.893286 41.966151 
L 18.392691 41.927879 
L 18.005133 41.517332 
L 17.3915 40.181366 
L 17.036239 39.589947 
L 14.573633 37.154853 
L 13.833505 36.674822 
L 12.848462 36.674822 
L 12.100261 37.078326 
L 11.416652 37.579237 
L 10.633463 37.89579 
L 10.145455 37.138782 
L 11.654866 35.813575 
L 14.085095 35.071453 
L 23.050624 35.831245 
L 24.270865 35.769401 
L 27.723089 34.678315 
L 31.055682 34.642977 
L 33.058656 33.609367 
L 38.356623 29.987681 
L 42.92313 26.852295 
L 43.616993 26.666835 
L 44.324528 26.830216 
L 45.75327 27.545575 
L 46.296739 27.664804 
L 46.607781 27.505833 
L 46.894896 27.223219 
L 47.34266 26.975936 
L 52.33984 25.876439 
L 54.688036 26.141373 
L 58.823869 27.894432 
L 60.095381 28.190301 
L 65.345496 27.717795 
L 66.001559 27.766791 
L 77.407773 28.618656 
L 79.687608 28.013662 
L 96.384751 18.124071 
L 96.575148 17.946986 
L 100.086492 14.68139 
L 104.10953 12.346846 
L 107.951411 8.852104 
L 109.667269 7.863791 
L 111.564283 7.502009 
L 114.797752 7.519657 
L 132.925529 7.615163 
L 138.245532 7.643192 
L 161.688185 7.771139 
L 167.918715 7.80396 
L 185.139383 7.894675 
z
" clip-path="url(#p9b80ba67d7)" style="stroke: #000000; stroke-linejoin: miter"/>
   </g>
   <g id="line2d_1">
    <path d="M 208.585453 8.018212 
L 208.053947 13.635449 
L 208.165034 15.537597 
L 208.797372 17.859231 
L 212.129965 23.161042 
L 212.876807 24.89621 
L 213.054545 26.357738 
L 212.808446 27.823777 
L 211.504463 32.054621 
L 211.437811 33.149999 
L 211.644602 35.619208 
L 211.57966 36.61315 
L 211.049863 38.269817 
L 210.784964 40.523074 
L 209.6741 42.697014 
L 207.754869 43.602882 
L 203.275522 43.673586 
L 204.126615 41.738157 
L 203.005497 41.322813 
L 201.195643 41.875134 
L 199.941221 42.829578 
L 198.341576 44.499948 
L 194.321957 46.877561 
L 192.879543 48.963697 
L 192.712058 49.843289 
L 192.705222 51.673301 
L 192.43007 52.614884 
L 192.937649 52.928754 
L 194.670597 53.238207 
L 196.010471 53.795233 
L 197.273438 54.781113 
L 198.565458 56.368334 
L 199.230268 56.965228 
L 201.036704 57.769953 
L 201.346037 58.274026 
L 201.513521 58.928452 
L 201.880961 59.755355 
L 203.328502 61.793993 
L 204.112943 62.479475 
L 205.187918 63.072101 
L 207.517315 63.536482 
L 208.146235 63.934531 
L 208.872569 65.345446 
L 208.961438 66.964343 
L 208.383789 70.428091 
L 208.165034 73.985262 
L 209.175066 84.075635 
L 209.161394 85.61169 
L 208.81788 89.295078 
L 208.476076 90.432968 
L 207.428446 91.429219 
L 205.825383 92.243962 
L 204.126615 92.642487 
L 202.798705 92.403371 
L 202.407339 91.770168 
L 202.550897 91.132553 
L 202.509881 90.58351 
L 201.556246 90.23815 
L 200.999105 89.795389 
L 200.780351 88.081977 
L 200.200992 87.555139 
L 199.20805 87.533003 
L 199.009804 87.989005 
L 199.308883 88.958591 
L 199.167034 90.920019 
L 198.979042 91.7436 
L 198.12624 93.368705 
L 196.986322 94.241081 
L 195.656703 94.27208 
L 194.222834 93.359849 
L 193.698164 93.873528 
L 190.847516 96.087787 
L 189.611893 96.663528 
L 186.721937 96.070072 
L 185.676015 96.096645 
L 183.690132 96.539521 
L 182.770678 96.588238 
L 181.688868 96.264937 
L 181.056529 95.782208 
L 179.908067 94.621925 
L 179.23813 94.46693 
L 177.713683 94.728208 
L 172.176452 94.267651 
L 171.797049 94.00195 
L 171.451827 93.944381 
L 170.744292 94.431502 
L 170.226458 95.17106 
L 169.460816 97.230424 
L 169.018179 98.080792 
L 168.175632 98.935619 
L 156.156081 107.312727 
L 153.423355 107.937469 
L 147.925432 107.126637 
L 145.187579 107.498819 
L 143.581098 108.626476 
L 142.395037 110.303657 
L 135.832393 122.587959 
L 134.837743 125.813502 
L 133.521796 132.554109 
L 127.177907 148.255091 
L 124.959596 151.652535 
L 123.081717 154.120156 
L 120.514147 156.444573 
L 118.834731 157.542189 
L 118.070381 157.395372 
L 118.253394 156.262807 
L 118.713619 155.682561 
L 119.297647 155.298068 
L 119.876292 154.759787 
L 120.85326 152.823467 
L 121.273115 152.358631 
L 121.273115 151.771483 
L 120.780593 151.771483 
L 120.164269 153.270835 
L 119.685205 153.80559 
L 118.974682 154.120156 
L 118.196875 154.162099 
L 117.470205 153.952387 
L 116.929239 153.459571 
L 116.719312 152.676676 
L 117.898133 146.372436 
L 118.296456 145.324207 
L 118.996213 144.849025 
L 119.410685 143.730982 
L 119.728267 142.459268 
L 120.121207 141.488056 
L 120.506073 141.243512 
L 121.332325 141.309888 
L 121.684895 141.166656 
L 121.730648 140.838273 
L 121.684895 139.406013 
L 124.432786 139.112584 
L 124.308983 138.396492 
L 123.96987 137.813154 
L 123.081717 137.065663 
L 123.961796 135.864134 
L 124.486614 134.243556 
L 124.411256 132.71388 
L 123.490806 131.791929 
L 122.893321 134.027021 
L 121.908279 135.647585 
L 120.586815 136.656997 
L 118.974682 137.065663 
L 119.3434 138.441903 
L 119.055423 139.287244 
L 118.398728 139.465398 
L 117.663983 138.819159 
L 117.171462 140.579761 
L 116.907708 140.363173 
L 116.22679 139.99288 
L 116.197185 141.645264 
L 115.81501 142.424332 
L 115.136784 142.962356 
L 114.232483 143.85676 
L 113.473516 145.104085 
L 112.499239 147.525536 
L 110.784834 150.502868 
L 110.058163 151.397532 
L 109.24806 151.771483 
L 108.394895 151.289192 
L 107.374865 150.156893 
L 106.615897 148.881367 
L 106.537848 147.958835 
L 107.264518 147.284429 
L 109.242677 146.016033 
L 109.945126 145.324207 
L 110.281547 144.331924 
L 110.803674 140.579761 
L 110.093151 133.345995 
L 110.803674 131.254139 
L 109.315344 131.547478 
L 108.927787 132.81865 
L 109.145788 134.474063 
L 109.490284 135.944467 
L 109.58179 137.247294 
L 109.509123 139.322176 
L 109.024676 140.803339 
L 107.315654 139.936988 
L 104.97416 139.99288 
L 104.277094 139.727391 
L 103.130569 138.819159 
L 101.588413 139.105598 
L 100.775618 138.941419 
L 100.417665 137.973833 
L 100.237343 137.030734 
L 99.763662 136.405513 
L 99.106967 136.052742 
L 98.364148 135.944467 
L 97.381797 135.046847 
L 97.147647 132.96882 
L 97.217623 128.862161 
L 97.381797 127.936857 
L 97.346809 127.357251 
L 96.991548 127.102367 
L 96.361766 126.997622 
L 96.283716 126.728776 
L 96.348309 125.279853 
L 96.687422 124.152195 
L 96.765472 123.244519 
L 97.091128 122.448584 
L 98.767854 119.572257 
L 99.472993 118.849736 
L 99.900922 118.9719 
L 101.233151 119.771216 
L 101.997501 119.963195 
L 102.66227 119.697915 
L 103.596177 118.532113 
L 104.258255 118.263358 
L 104.931098 117.7817 
L 105.716979 116.633438 
L 106.400588 115.279324 
L 106.739701 114.162584 
L 103.100964 117.924801 
L 101.774117 118.849736 
L 100.75947 118.078372 
L 100.546851 117.069702 
L 100.872507 114.455724 
L 101.265448 113.618192 
L 102.040563 112.557359 
L 102.573455 111.622188 
L 102.226268 111.18253 
L 101.095891 111.562868 
L 100.231961 112.641107 
L 99.672155 114.099769 
L 99.472993 115.600396 
L 99.058522 116.588067 
L 98.105776 117.212798 
L 97.029227 117.694445 
L 96.27026 118.263358 
L 95.651244 119.614143 
L 95.317514 120.75556 
L 94.74156 121.533988 
L 93.379725 121.827214 
L 92.513103 122.179787 
L 91.775667 122.66502 
L 91.221244 122.427639 
L 90.930576 120.605463 
L 91.132429 119.690934 
L 92.453893 115.917982 
L 92.653054 115.331673 
L 94.504719 111.817594 
L 93.347428 111.754784 
L 92.93834 111.165083 
L 92.965254 110.170649 
L 93.150958 108.893644 
L 93.670393 109.305349 
L 94.257113 109.354196 
L 94.854597 109.008781 
L 95.452082 108.255166 
L 95.500527 108.802931 
L 95.863862 110.065974 
L 96.157222 108.935512 
L 96.647052 107.965589 
L 97.196092 107.756258 
L 97.664391 108.893644 
L 98.156912 108.893644 
L 98.09501 108.045833 
L 97.922763 107.271315 
L 97.62402 106.559617 
L 97.217623 105.910734 
L 97.578267 105.764214 
L 97.559427 105.617695 
L 97.664391 105.328149 
L 98.272641 105.663046 
L 98.993929 105.844451 
L 99.925144 105.910734 
L 101.031298 106.270059 
L 101.394634 105.99446 
L 100.872507 104.742089 
L 101.0932 104.086277 
L 101.321967 102.983993 
L 101.774117 102.983993 
L 102.307009 103.922326 
L 103.23015 103.765354 
L 103.9945 103.800236 
L 104.032179 105.328149 
L 105.297125 104.749066 
L 105.262137 103.587453 
L 104.487021 102.268931 
L 103.536967 101.232999 
L 103.020223 101.560865 
L 102.226268 101.818975 
L 102.226268 101.232999 
L 103.666153 100.59472 
L 104.349761 100.109917 
L 104.97416 99.42284 
L 105.46399 100.490085 
L 106.295624 101.721312 
L 107.374865 102.394501 
L 108.588674 101.818975 
L 107.783953 101.662016 
L 107.724743 101.086507 
L 107.864694 100.27733 
L 107.684372 99.42284 
L 107.159555 99.088027 
L 106.60244 99.09849 
L 106.13145 98.847383 
L 105.87577 97.717435 
L 106.632046 98.038279 
L 108.07193 98.428878 
L 108.588674 98.83692 
L 109.490284 98.251015 
L 109.347641 98.812507 
L 109.000454 100.59472 
L 110.636809 102.077089 
L 111.132021 101.95152 
L 111.751037 100.59472 
L 111.411924 99.841362 
L 110.397276 97.98248 
L 110.577598 97.396596 
L 111.035132 96.72703 
L 111.608394 96.176048 
L 112.157434 95.911022 
L 112.300077 96.099329 
L 112.803364 96.503846 
L 113.500429 96.901394 
L 114.232483 97.079247 
L 114.652337 97.375671 
L 114.886487 98.115004 
L 114.975302 99.067101 
L 114.948388 100.008773 
L 116.22679 99.42284 
L 115.81501 98.251015 
L 116.805435 98.324253 
L 117.489044 98.79507 
L 118.019245 99.58676 
L 118.522531 100.59472 
L 115.9119 101.246951 
L 114.948388 101.232999 
L 115.653528 102.237539 
L 116.22679 102.397989 
L 115.944196 103.751401 
L 116.315606 104.518832 
L 116.880794 104.445576 
L 117.518649 102.167778 
L 118.296456 102.070112 
L 119.076954 102.272419 
L 119.424141 102.111969 
L 122.137045 101.818975 
L 122.898704 101.330661 
L 123.426213 100.772599 
L 123.768017 99.987846 
L 123.986019 98.83692 
L 123.157076 99.182192 
L 122.559591 99.600711 
L 121.878674 99.925067 
L 119.674439 100.228501 
L 119.181918 100.019236 
L 118.974682 99.129878 
L 119.109251 98.742756 
L 119.448364 98.460266 
L 119.895132 98.292865 
L 120.368813 98.251015 
L 120.110441 97.476805 
L 120.094293 97.016476 
L 120.368813 95.911022 
L 119.61792 95.687845 
L 119.020435 96.137688 
L 118.635569 97.058323 
L 118.522531 98.251015 
L 117.615539 96.93278 
L 117.042276 96.531744 
L 116.22679 96.545693 
L 116.22679 95.911022 
L 116.697781 95.576258 
L 117.663983 94.153559 
L 117.663983 93.567766 
L 117.171462 92.403196 
L 116.719312 92.403196 
L 115.81501 95.325187 
L 115.023747 95.569283 
L 114.027939 94.843976 
L 113.102106 94.739366 
L 113.791098 93.428294 
L 114.727696 92.849492 
L 115.529725 92.173078 
L 115.81501 90.59369 
L 115.257896 91.336303 
L 114.636189 91.744227 
L 114.03063 91.723308 
L 113.513886 91.179411 
L 113.102106 91.179411 
L 113.042896 92.061506 
L 112.843734 92.605423 
L 112.431954 92.894819 
L 111.751037 92.981987 
L 111.947507 94.233758 
L 111.460369 94.571991 
L 110.784834 94.11869 
L 110.397276 92.981987 
L 109.388012 94.823054 
L 108.838971 94.334879 
L 109.167319 92.877386 
L 110.803674 91.817445 
L 110.219646 91.273546 
L 109.977422 90.576258 
L 110.044707 89.774401 
L 110.397276 88.888902 
L 110.803674 88.888902 
L 111.347331 89.230548 
L 112.157434 89.422289 
L 111.866766 88.240487 
L 111.277355 87.459623 
L 109.945126 86.553294 
L 109.490284 86.553294 
L 109.30727 87.94766 
L 108.85512 89.063211 
L 108.499858 90.23808 
L 108.588674 91.817445 
L 107.902374 92.173078 
L 107.315654 93.260928 
L 106.739701 93.567766 
L 106.335995 93.281849 
L 106.513625 92.486876 
L 107.191851 91.179411 
L 106.416736 90.743605 
L 106.279476 89.69073 
L 106.739701 87.131946 
L 106.093771 87.626949 
L 105.6793 88.352041 
L 105.453224 89.26541 
L 105.383249 90.325239 
L 105.116803 90.394966 
L 103.736128 90.367075 
L 103.130569 90.59369 
L 104.032179 91.179411 
L 104.032179 91.817445 
L 105.555496 93.093563 
L 105.87577 93.860661 
L 105.617398 95.007866 
L 105.027987 95.290317 
L 104.403589 94.934638 
L 104.032179 94.153559 
L 103.461608 95.548361 
L 103.130569 97.079247 
L 102.627283 93.770003 
L 102.218194 92.612396 
L 101.321967 92.981987 
L 101.774117 94.153559 
L 100.872507 94.153559 
L 101.130879 96.409691 
L 101.448461 97.375671 
L 102.226268 98.251015 
L 101.774117 99.42284 
L 100.781001 98.519553 
L 99.892848 97.298949 
L 98.568692 94.739366 
L 98.364148 96.252766 
L 98.827064 97.675586 
L 99.497216 99.091515 
L 99.925144 100.59472 
L 99.612945 100.409866 
L 98.568692 100.008773 
L 98.272641 101.163241 
L 97.712835 101.177193 
L 97.244537 100.305232 
L 97.217623 98.83692 
L 96.765472 98.83692 
L 96.485569 99.621637 
L 96.299865 100.493573 
L 96.221815 101.431811 
L 96.27026 102.397989 
L 95.452082 101.818975 
L 95.452082 103.521176 
L 94.763091 102.949112 
L 94.504719 102.185218 
L 94.321706 101.274854 
L 93.457775 99.349599 
L 93.740369 98.67998 
L 94.504719 97.98248 
L 94.830375 96.685183 
L 95.508601 95.360058 
L 96.130308 93.804871 
L 96.27026 91.817445 
L 94.119853 94.446461 
L 92.976019 95.185705 
L 91.797198 94.153559 
L 92.11478 93.414347 
L 92.206286 90.59369 
L 91.339664 90.541394 
L 90.806772 90.886549 
L 89.972447 92.096372 
L 89.46916 92.852979 
L 88.879749 93.31323 
L 88.597155 92.696077 
L 88.368389 91.263087 
L 88.007745 89.872017 
L 87.99967 88.435707 
L 89.224245 86.107114 
L 89.759828 84.21094 
L 90.21467 83.336102 
L 92.698808 80.115853 
L 93.42817 79.478128 
L 93.837258 79.28298 
L 94.014889 78.986777 
L 94.05526 78.021529 
L 94.216742 77.171306 
L 94.6043 76.425644 
L 95.452082 75.390815 
L 95.863862 75.390815 
L 96.044184 75.944809 
L 96.485569 76.335051 
L 96.765472 76.606831 
L 97.018461 75.812407 
L 97.346809 75.498825 
L 97.734366 75.578962 
L 98.156912 75.390815 
L 99.682921 75.450046 
L 102.336614 76.376863 
L 103.784573 76.606831 
L 111.955581 76.606831 
L 112.300077 76.314145 
L 113.764184 74.746247 
L 115.50012 74.216669 
L 116.5982 72.990323 
L 117.470205 71.638629 
L 118.522531 70.708512 
L 120.040466 70.708512 
L 120.312294 72.004415 
L 119.860144 73.742846 
L 119.198066 75.066787 
L 118.705545 76.683487 
L 118.75399 78.819511 
L 119.198066 80.920875 
L 119.876292 82.398561 
L 121.154694 83.137438 
L 122.83142 83.492943 
L 124.300909 84.120318 
L 124.930691 85.647 
L 125.633139 86.636954 
L 127.172604 87.083144 
L 128.709378 86.734557 
L 129.403752 85.326319 
L 127.683965 86.079228 
L 126.488995 84.726797 
L 125.57662 82.795878 
L 124.680393 81.820022 
L 122.726456 81.516817 
L 122.137045 81.286803 
L 121.38077 80.697836 
L 120.121207 78.606946 
L 119.825156 77.505817 
L 120.422641 76.477909 
L 121.256966 75.484889 
L 121.684895 74.481457 
L 122.944457 69.771465 
L 123.235126 69.541563 
L 124.212094 69.48583 
L 124.882246 69.245481 
L 124.866098 68.691643 
L 124.4597 68.099503 
L 123.986019 67.73726 
L 123.991401 67.437717 
L 123.307793 67.166042 
L 122.5569 67.110314 
L 121.91097 67.469064 
L 121.386152 67.597937 
L 119.922045 66.838643 
L 119.198066 66.615735 
L 118.261468 66.977961 
L 116.218716 68.545348 
L 115.158315 68.907603 
L 114.587744 69.47538 
L 112.706474 72.140279 
L 111.751037 72.997291 
L 110.243868 73.321291 
L 108.99238 73.011226 
L 106.330612 71.879002 
L 103.763042 71.335553 
L 102.944865 70.837402 
L 101.997501 69.778432 
L 100.756778 68.733441 
L 99.27114 68.305009 
L 97.72091 68.388605 
L 96.27026 68.907603 
L 95.783121 69.308181 
L 94.701189 70.468151 
L 94.278644 70.708512 
L 92.117471 70.670193 
L 91.571122 70.976744 
L 89.498765 73.634844 
L 89.100442 73.937949 
L 87.733224 74.746247 
L 85.779288 78.31772 
L 85.230248 78.89269 
L 83.906092 79.366615 
L 80.967113 81.62137 
L 79.521845 82.398561 
L 75.242562 83.398838 
L 74.596633 83.890279 
L 73.96416 84.62223 
L 70.809871 86.720614 
L 69.544926 87.131946 
L 70.898686 80.178581 
L 72.117878 77.293263 
L 73.724628 77.167822 
L 74.096038 77.481425 
L 74.599324 77.690496 
L 75.207575 77.774125 
L 75.907332 77.728826 
L 75.907332 77.143431 
L 74.661226 77.045866 
L 73.119069 75.36991 
L 71.848741 75.390815 
L 70.78834 76.397769 
L 70.508437 77.868208 
L 70.379251 79.488582 
L 68.236919 84.820907 
L 67.556001 85.326319 
L 66.261451 84.90456 
L 65.992314 83.813599 
L 66.425625 80.649046 
L 65.31947 81.318168 
L 65.055716 82.712232 
L 65.023419 84.406128 
L 64.576651 85.967685 
L 64.172945 86.243059 
L 62.708838 86.915822 
L 62.095205 87.431735 
L 61.427745 88.16728 
L 61.040187 88.292778 
L 60.776433 87.905828 
L 60.512678 87.131946 
L 60.34043 85.427402 
L 60.722605 83.712522 
L 61.871821 80.649046 
L 62.824567 75.892545 
L 63.225582 74.746247 
L 63.909191 74.042468 
L 64.382872 73.756782 
L 64.826949 73.634844 
L 65.085321 73.324775 
L 65.521323 71.241496 
L 67.233036 67.960178 
L 67.779385 67.200872 
L 68.715983 66.486868 
L 70.115497 65.765919 
L 71.590369 65.295747 
L 72.74766 65.341023 
L 73.102921 65.842541 
L 73.700406 67.402887 
L 74.346335 67.73726 
L 75.659725 67.834786 
L 76.235679 68.02984 
L 76.811633 68.371189 
L 77.02156 67.159076 
L 77.503316 65.922645 
L 77.753613 64.874342 
L 77.263784 64.230059 
L 76.881609 64.55394 
L 76.25721 65.341023 
L 75.339452 66.016681 
L 74.104112 65.985336 
L 73.711171 65.640539 
L 73.259021 64.64797 
L 72.74766 64.230059 
L 72.166323 64.010659 
L 69.103541 64.397223 
L 68.250375 64.087274 
L 67.779385 63.059947 
L 67.329926 63.059947 
L 66.858936 64.470357 
L 65.63167 65.361919 
L 64.113735 65.835575 
L 62.773431 65.985336 
L 63.037186 66.852574 
L 63.225582 67.200872 
L 62.759974 67.36109 
L 62.773431 67.73726 
L 61.871821 66.984927 
L 61.88797 67.381989 
L 62.105971 68.538382 
L 61.982168 69.60078 
L 61.416979 70.708512 
L 60.450776 71.833714 
L 59.543784 72.321434 
L 54.645485 72.412011 
L 54.004938 72.690714 
L 52.686165 73.467615 
L 52.158656 73.634844 
L 51.808778 73.917045 
L 51.388924 74.54417 
L 50.834501 75.150407 
L 50.086299 75.390815 
L 49.445752 75.098144 
L 48.864416 74.474489 
L 47.825546 72.997291 
L 46.210722 73.467615 
L 44.092611 72.962452 
L 42.251712 71.966094 
L 41.468523 70.976744 
L 40.112071 67.200872 
L 39.476907 66.734154 
L 37.705983 66.385864 
L 36.947016 65.985336 
L 36.381828 65.187783 
L 35.970048 64.129065 
L 35.71975 62.910204 
L 35.488292 60.291608 
L 34.83698 58.108507 
L 34.694337 56.928254 
L 36.494866 51.964184 
L 37.18924 50.892139 
L 37.95359 50.077696 
L 38.766384 49.461662 
L 39.61955 48.984856 
L 39.654537 50.001126 
L 39.974811 50.756397 
L 40.475406 50.923465 
L 41.054051 50.154267 
L 41.118644 49.444261 
L 40.531925 48.177441 
L 40.558839 47.237811 
L 41.301658 45.891075 
L 42.429343 45.010693 
L 43.656609 44.349558 
L 48.509155 40.717135 
L 49.596469 39.589947 
L 50.10783 38.789816 
L 50.850649 37.335737 
L 51.44006 36.674822 
L 52.037545 36.333937 
L 53.490886 35.88175 
L 54.150272 35.558268 
L 52.390114 35.474789 
L 51.213984 36.100886 
L 50.306992 37.252252 
L 49.389234 38.741114 
L 48.04893 39.916965 
L 44.649726 40.818028 
L 43.271743 41.39904 
L 40.99215 43.260467 
L 40.338146 43.994641 
L 38.098924 47.237811 
L 36.858201 46.576613 
L 36.95509 44.989814 
L 37.447612 43.069099 
L 37.399167 41.39904 
L 37.060054 42.66549 
L 36.212271 44.356517 
L 35.811257 47.474455 
L 35.162636 48.709914 
L 34.161445 49.127549 
L 32.885734 48.400173 
L 32.433584 48.984856 
L 32.242496 48.615947 
L 31.488912 47.815505 
L 31.354343 48.950053 
L 30.832217 49.458182 
L 30.011348 49.583476 
L 29.007466 49.569554 
L 28.458426 50.502317 
L 28.057411 50.871256 
L 27.484149 49.847987 
L 27.112739 49.646123 
L 25.837028 49.34681 
L 25.21263 48.762118 
L 24.835838 47.916429 
L 24.714726 46.94549 
L 24.302946 46.500054 
L 22.720419 44.210374 
L 22.680048 43.678004 
L 22.219823 43.361371 
L 20.823001 41.858294 
L 20.201293 41.39904 
L 19.889094 41.48602 
L 18.893286 41.966151 
L 18.392691 41.927879 
L 18.005133 41.517332 
L 17.036239 39.589947 
L 14.573633 37.154853 
L 13.833505 36.674822 
L 12.848462 36.674822 
L 12.100261 37.078326 
L 11.416652 37.579237 
L 10.633463 37.89579 
L 10.145455 37.138782 
L 11.654866 35.813575 
L 14.085095 35.071453 
L 23.050624 35.831245 
L 24.270865 35.769401 
L 27.723089 34.678315 
L 31.055682 34.642977 
L 33.058656 33.609367 
L 42.92313 26.852295 
L 43.616993 26.666835 
L 44.324528 26.830216 
L 45.75327 27.545575 
L 46.296739 27.664804 
L 46.607781 27.505833 
L 46.894896 27.223219 
L 47.34266 26.975936 
L 52.33984 25.876439 
L 54.688036 26.141373 
L 58.823869 27.894432 
L 60.095381 28.190301 
L 66.001559 27.766791 
L 77.407773 28.618656 
L 79.687608 28.013662 
L 96.575148 17.946986 
L 100.086492 14.68139 
L 104.10953 12.346846 
L 107.951411 8.852104 
L 109.667269 7.863791 
L 111.564283 7.502009 
L 208.585453 8.018212 
L 208.585453 8.018212 
" clip-path="url(#p9b80ba67d7)" style="fill: none; stroke: #000000; stroke-width: 0.5; stroke-linecap: square"/>
   </g>
  </g>
 </g>
 <defs>
  <clipPath id="p9b80ba67d7">
   <rect x="0" y="-0" width="223.2" height="165.044198"/>
  </clipPath>
 </defs>
</svg>
