<?xml version="1.0" encoding="utf-8" standalone="no"?>
<!DOCTYPE svg PUBLIC "-//W3C//DTD SVG 1.1//EN"
  "http://www.w3.org/Graphics/SVG/1.1/DTD/svg11.dtd">
<svg xmlns:xlink="http://www.w3.org/1999/xlink" width="223.2pt" height="214.856147pt" viewBox="0 0 223.2 214.856147" xmlns="http://www.w3.org/2000/svg" version="1.1">
 <metadata>
  <rdf:RDF xmlns:dc="http://purl.org/dc/elements/1.1/" xmlns:cc="http://creativecommons.org/ns#" xmlns:rdf="http://www.w3.org/1999/02/22-rdf-syntax-ns#">
   <cc:Work>
    <dc:type rdf:resource="http://purl.org/dc/dcmitype/StillImage"/>
    <dc:date>2026-04-26T19:22:00.169724</dc:date>
    <dc:format>image/svg+xml</dc:format>
    <dc:creator>
     <cc:Agent>
      <dc:title>Matplotlib v3.10.9, https://matplotlib.org/</dc:title>
     </cc:Agent>
    </dc:creator>
   </cc:Work>
  </rdf:RDF>
 </metadata>
 <defs>
  <style type="text/css">*{stroke-linejoin: round; stroke-linecap: butt}</style>
 </defs>
 <g id="figure_1">
  <g id="patch_1">
   <path d="M 0 214.856147 
L 223.2 214.856147 
L 223.2 -0 
L 0 -0 
z
" style="fill: #ffffff"/>
  </g>
  <g id="axes_1">
   <g id="patch_2">
    <path d="M 58.831235 138.796967 
L 58.522956 138.552749 
L 58.270323 138.256205 
L 58.155693 137.857917 
L 58.254742 137.31138 
L 58.329308 137.293938 
L 58.73775 137.31138 
L 58.843477 137.256146 
L 58.835687 137.128237 
L 58.802299 136.974166 
L 58.831235 136.844807 
L 59.578004 135.849215 
L 60.095511 134.744705 
L 60.418258 134.215737 
L 60.886797 133.875697 
L 61.370917 133.846634 
L 62.249011 134.076232 
L 62.753163 133.875697 
L 62.753163 133.653367 
L 61.090462 133.733289 
L 60.302515 133.634477 
L 59.968639 133.265391 
L 60.01872 133.125896 
L 60.259111 132.838194 
L 60.34258 132.655113 
L 60.34258 132.19016 
L 60.559599 131.469514 
L 60.698714 130.72857 
L 60.095511 131.534894 
L 59.830637 132.405199 
L 59.671489 133.348216 
L 59.391033 134.384307 
L 58.72662 134.01084 
L 58.442826 133.77543 
L 58.254742 133.387449 
L 58.489569 133.208721 
L 58.542989 132.877425 
L 58.45952 131.946066 
L 58.489569 131.951877 
L 58.555231 131.77898 
L 58.616441 131.536347 
L 58.644264 131.338756 
L 58.586393 131.213811 
L 58.323744 131.019131 
L 58.254742 130.949396 
L 58.175725 130.231725 
L 58.167935 129.171273 
L 58.350454 128.511804 
L 58.831235 128.998414 
L 58.756669 128.215489 
L 58.768911 127.88287 
L 58.831235 127.535735 
L 58.644264 127.535735 
L 58.479552 127.795722 
L 58.254742 127.943874 
L 57.963158 128.009235 
L 57.609249 128.02376 
L 57.415601 128.180629 
L 57.279825 128.54957 
L 57.003821 130.201218 
L 56.823528 130.536803 
L 56.193615 130.141656 
L 55.91316 130.028344 
L 55.798529 129.800271 
L 56.013322 129.264241 
L 55.74177 128.950478 
L 55.474669 128.389791 
L 55.283247 127.707123 
L 55.250973 127.027395 
L 55.437943 126.356418 
L 56.035581 125.347114 
L 56.2181 124.590553 
L 56.013322 124.590553 
L 55.350022 125.255628 
L 54.337266 125.347114 
L 53.413542 124.968102 
L 53.00844 124.224631 
L 52.820356 123.158872 
L 52.823695 122.601345 
L 53.110828 122.032229 
L 53.373477 121.64896 
L 53.576029 121.182957 
L 53.708466 120.621163 
L 53.755209 119.96214 
L 53.568238 119.96214 
L 52.963923 121.553145 
L 52.596659 122.223867 
L 52.092507 122.419864 
L 51.711888 122.10627 
L 51.332383 121.454427 
L 51.051927 120.673422 
L 50.971797 119.96214 
L 50.135994 120.415033 
L 49.472694 120.908589 
L 48.523374 121.617022 
L 47.762137 121.910278 
L 47.726523 121.99303 
L 47.528424 122.15418 
L 47.308065 122.219512 
L 47.203451 122.032229 
L 47.261323 121.730259 
L 47.403776 121.631539 
L 47.584069 121.58218 
L 47.762137 121.425393 
L 48.650246 119.793761 
L 49.21561 118.960607 
L 49.540582 118.012855 
L 49.950137 117.172565 
L 50.025815 116.615306 
L 49.989089 114.569337 
L 50.021363 114.316879 
L 50.148236 114.148577 
L 50.522177 113.959965 
L 50.596743 113.730734 
L 50.780375 113.330313 
L 51.183251 113.080783 
L 51.57166 112.758722 
L 51.719679 112.146539 
L 51.154316 112.541118 
L 50.811536 112.645567 
L 50.543323 112.433768 
L 49.34916 110.604615 
L 49.255675 110.199947 
L 49.146609 110.239107 
L 49.066478 110.28262 
L 48.88396 110.42186 
L 49.184448 111.54019 
L 49.273481 112.546921 
L 48.979671 113.347723 
L 48.136078 113.852603 
L 47.129998 113.720578 
L 46.630297 112.87623 
L 46.557958 111.731666 
L 46.82951 110.687291 
L 47.966914 108.84825 
L 48.413195 107.682315 
L 48.323048 106.506345 
L 48.085996 106.245356 
L 47.989172 106.72239 
L 47.94243 107.40245 
L 47.865638 107.74612 
L 47.571827 107.978139 
L 47.032061 108.990374 
L 46.643652 109.205013 
L 46.678153 109.355843 
L 46.560183 109.464616 
L 45.605298 109.935977 
L 45.495119 109.943228 
L 44.920853 109.886664 
L 44.42783 109.753232 
L 44.013823 109.560337 
L 43.840208 109.316685 
L 43.679948 108.916411 
L 43.294877 108.297172 
L 42.83079 107.728719 
L 42.433478 107.480754 
L 41.694499 106.881889 
L 41.543142 106.617992 
L 41.209266 105.77704 
L 40.96665 105.634954 
L 40.505901 105.603057 
L 40.276639 105.513167 
L 40.069636 105.297144 
L 39.530983 104.562115 
L 39.121429 104.34031 
L 38.83207 104.279423 
L 38.540485 104.141704 
L 38.119801 103.698114 
L 38.022977 102.813884 
L 38.453677 101.767389 
L 39.159268 101.23548 
L 39.886005 101.886238 
L 39.685679 101.457226 
L 39.310625 100.865912 
L 38.944475 100.445632 
L 38.783101 100.538382 
L 38.577211 100.990549 
L 38.163205 100.802144 
L 37.846023 100.392012 
L 37.923927 100.16159 
L 38.517114 99.852919 
L 38.977862 99.115331 
L 39.717954 97.486714 
L 39.318416 97.733021 
L 39.034621 98.054676 
L 38.493742 98.822627 
L 38.197706 99.066063 
L 37.449824 99.509478 
L 37.271757 99.674677 
L 37.221675 100.10942 
L 37.271757 101.752895 
L 37.191626 102.155828 
L 36.964591 102.522537 
L 36.612908 102.781995 
L 36.152159 102.857369 
L 35.525586 102.616753 
L 35.052595 102.077559 
L 34.797736 101.38331 
L 34.825559 100.670263 
L 35.26405 100.089132 
L 35.936253 99.452964 
L 36.333565 98.808137 
L 35.947382 98.216956 
L 35.840542 98.738584 
L 35.526699 99.031286 
L 35.103789 99.158802 
L 34.657508 99.187783 
L 34.724284 99.984792 
L 34.240164 100.583308 
L 33.63251 100.819535 
L 33.332021 100.538382 
L 33.245214 100.292017 
L 33.053791 99.990589 
L 32.861256 99.593526 
L 32.773336 99.066063 
L 32.864595 98.808137 
L 33.040436 98.583542 
L 33.149502 98.36185 
L 33.044888 98.105388 
L 32.897983 98.03584 
L 32.747738 98.086552 
L 32.630882 98.202466 
L 32.586365 98.338667 
L 32.327055 98.909568 
L 31.726078 98.480665 
L 30.077844 96.542105 
L 29.795163 96.365362 
L 29.412318 96.249466 
L 28.998312 96.287132 
L 28.624371 96.429105 
L 28.267124 96.47981 
L 27.900974 96.249466 
L 27.337836 96.956449 
L 27.061832 96.579772 
L 26.972799 95.706219 
L 26.966121 94.910952 
L 27.182028 93.763778 
L 27.172011 93.311893 
L 27.050703 92.84699 
L 26.898233 92.625408 
L 26.714601 92.480585 
L 25.020738 90.227379 
L 24.726927 89.445522 
L 24.64791 88.698465 
L 24.657926 87.790769 
L 24.794815 86.975787 
L 25.066367 86.532855 
L 25.081948 86.506801 
L 25.070819 86.508248 
L 24.633442 86.557462 
L 24.332953 86.822351 
L 24.081434 87.174098 
L 23.774268 87.479534 
L 23.402553 87.653246 
L 22.935126 87.745893 
L 22.512217 87.643112 
L 22.28073 87.234895 
L 22.093759 87.234895 
L 21.904563 87.685093 
L 21.72427 87.525857 
L 21.589607 87.007632 
L 21.535074 86.385215 
L 21.559558 85.759937 
L 21.633011 85.282318 
L 21.924595 84.299643 
L 22.22731 84.428443 
L 22.594573 84.046391 
L 22.992998 83.492149 
L 23.402553 83.108683 
L 22.741478 83.088424 
L 22.52112 82.628282 
L 22.554508 81.980064 
L 22.888384 79.995131 
L 23.105403 79.494613 
L 23.402553 79.708705 
L 23.571716 79.708705 
L 23.625137 79.177823 
L 23.83214 78.901544 
L 24.059175 78.751112 
L 24.166016 78.583325 
L 24.52215 76.995259 
L 25.183224 75.297526 
L 25.56273 75.099426 
L 25.775297 74.622266 
L 25.810911 74.054039 
L 25.659554 73.576924 
L 25.766394 73.414999 
L 26.033495 72.894542 
L 25.494842 73.096939 
L 25.422502 73.373073 
L 25.515987 73.767768 
L 25.455889 74.325859 
L 24.537731 75.150035 
L 24.428665 75.297526 
L 24.030239 75.690844 
L 23.567265 76.584539 
L 23.185533 77.537605 
L 22.868351 78.690361 
L 22.492184 79.457003 
L 21.722044 80.6577 
L 20.949678 81.528649 
L 20.574624 81.708055 
L 20.413251 81.276906 
L 20.467784 80.722802 
L 20.621367 80.332197 
L 20.858419 80.079035 
L 21.162246 79.93148 
L 20.958581 79.873616 
L 20.794982 79.882295 
L 20.628044 79.976325 
L 20.413251 80.171619 
L 20.040423 79.708705 
L 20.380976 78.292596 
L 20.594657 77.686574 
L 20.887354 77.128312 
L 21.056518 76.921501 
L 21.442701 76.590324 
L 21.628559 76.387862 
L 21.773238 76.110207 
L 21.846691 75.861479 
L 21.900111 75.777608 
L 21.757658 75.706751 
L 21.535074 75.540456 
L 21.172262 76.144913 
L 19.936921 77.371283 
L 19.618626 77.975841 
L 19.299218 79.30367 
L 18.919713 79.708705 
L 18.654838 79.017262 
L 18.307607 78.574646 
L 18.03049 78.085764 
L 17.969279 77.25992 
L 18.337656 77.277275 
L 18.654838 76.951872 
L 18.906358 76.471739 
L 19.088876 76.026333 
L 19.222427 75.559254 
L 19.309234 75.02279 
L 19.339283 74.565875 
L 19.292541 74.325859 
L 19.369332 74.120547 
L 19.409397 73.964397 
L 19.462817 73.576924 
L 18.958665 74.054039 
L 18.783936 74.343209 
L 18.717161 74.678656 
L 18.584724 74.834816 
L 17.800115 75.297526 
L 17.596451 75.297526 
L 17.569741 74.895546 
L 17.586435 74.510931 
L 17.656549 74.161031 
L 17.800115 73.841503 
L 17.635403 73.516202 
L 17.616484 73.201031 
L 17.730002 72.904662 
L 17.969279 72.628541 
L 17.45511 72.566378 
L 17.29485 72.151489 
L 17.376093 71.612301 
L 17.596451 71.17143 
L 17.940343 70.888126 
L 18.418899 70.656863 
L 18.930842 70.502208 
L 19.378235 70.445839 
L 19.700982 70.217476 
L 19.88684 69.717407 
L 20.005922 69.218806 
L 20.123892 68.991914 
L 20.58464 68.830057 
L 21.09547 68.049713 
L 21.535074 67.754931 
L 21.329183 67.554079 
L 21.192294 67.335892 
L 20.975275 66.765159 
L 20.925194 67.098926 
L 20.840612 67.419699 
L 20.707061 67.659562 
L 20.507849 67.754931 
L 20.354266 67.801171 
L 19.925792 68.022257 
L 19.836758 68.108959 
L 19.726579 68.818496 
L 19.433881 69.413908 
L 19.015424 69.694283 
L 18.530191 69.452928 
L 18.39664 69.61913 
L 18.256412 69.697173 
L 18.069442 69.723188 
L 17.800115 69.717407 
L 17.95815 69.036714 
L 17.800115 68.603174 
L 17.543031 68.512132 
L 17.409481 68.85896 
L 16.644905 70.181343 
L 15.793521 69.974665 
L 15.25153 67.951451 
L 14.591568 67.997692 
L 15.058995 68.611844 
L 15.132447 69.266497 
L 14.986655 69.89662 
L 14.795233 70.445839 
L 14.225418 69.890839 
L 13.898219 69.73475 
L 13.469745 69.717407 
L 14.377888 70.604829 
L 14.705086 71.074586 
L 14.795233 71.657112 
L 14.528132 72.306167 
L 14.010624 72.965381 
L 13.50981 73.423674 
L 13.282775 73.467046 
L 13.226016 73.364398 
L 13.096917 73.3297 
L 12.968932 73.364398 
L 12.909947 73.467046 
L 12.938883 73.685358 
L 13.069094 74.025122 
L 13.096917 74.205852 
L 13.096917 75.41899 
L 13.212661 75.621434 
L 13.469745 75.777608 
L 13.72683 75.997411 
L 13.843686 76.387862 
L 13.795831 76.57297 
L 13.469745 77.25992 
L 12.978948 76.947533 
L 11.983998 76.749404 
L 11.500991 76.387862 
L 10.925611 75.619988 
L 10.464862 74.811681 
L 10.191084 74.045364 
L 10.145455 73.351387 
L 10.331312 72.689258 
L 10.753109 72.011269 
L 10.952321 71.881169 
L 11.492087 71.673013 
L 11.603379 71.53569 
L 11.634541 71.275503 
L 11.719123 71.029777 
L 11.833754 70.818747 
L 11.959513 70.66698 
L 11.959513 70.445839 
L 11.837092 70.457402 
L 11.808156 70.398143 
L 11.813721 70.298415 
L 11.79035 70.181343 
L 12.566878 69.160948 
L 12.566878 69.155442 
L 13.48418 67.756058 
L 16.107465 61.263487 
L 16.651627 58.476154 
L 17.062929 57.142348 
L 19.776672 52.062621 
L 20.267125 51.369084 
L 20.931426 50.902782 
L 22.063566 50.748879 
L 24.337032 51.08417 
L 25.467052 50.82583 
L 27.892428 49.135301 
L 30.437301 47.361782 
L 30.785706 47.008299 
L 30.968742 46.65666 
L 31.285346 45.805084 
L 31.499477 45.499267 
L 31.792052 45.297836 
L 31.934807 45.321641 
L 32.091695 45.431513 
L 34.381416 45.621959 
L 35.011795 45.513917 
L 35.288823 45.57801 
L 35.528396 45.794097 
L 35.763728 46.057803 
L 36.025209 46.257418 
L 36.472553 46.391107 
L 36.852759 46.370962 
L 37.673949 46.187827 
L 38.106452 46.176839 
L 39.301488 46.42224 
L 39.812435 46.184164 
L 40.991218 45.268537 
L 41.208176 45.056124 
L 41.8011 45.433344 
L 42.350916 45.420526 
L 42.822287 45.059786 
L 43.174933 44.387783 
L 43.25267 44.047221 
L 43.311327 43.236144 
L 43.187653 42.835206 
L 43.269631 42.646643 
L 43.680226 42.655797 
L 43.919799 42.873652 
L 44.010257 43.582171 
L 44.240642 43.765259 
L 44.634983 43.90807 
L 44.651944 44.135107 
L 44.592581 44.398769 
L 44.754416 44.660607 
L 45.303525 44.759485 
L 46.005989 44.594689 
L 46.668877 44.257782 
L 47.102086 43.845819 
L 47.243427 43.375285 
L 47.385475 41.852154 
L 47.391128 41.216975 
L 46.973466 37.044467 
L 47.063924 35.573528 
L 47.30279 34.141221 
L 47.266042 33.471785 
L 46.965693 32.888352 
L 46.705626 32.723754 
L 45.742388 32.531725 
L 45.297871 32.286666 
L 44.973494 32.00321 
L 44.374916 31.160206 
L 44.222975 30.81827 
L 44.153718 30.547656 
L 44.025804 30.339215 
L 43.278818 30.00645 
L 43.00391 29.759626 
L 42.469642 29.103288 
L 41.947388 28.695614 
L 41.393332 28.465276 
L 40.676734 28.337313 
L 40.466843 28.207523 
L 40.580623 27.818165 
L 40.583449 27.06143 
L 40.652706 26.697707 
L 41.249164 25.835061 
L 42.911332 24.851886 
L 43.572807 24.161165 
L 44.091528 23.76649 
L 44.839927 23.538097 
L 45.303525 23.709848 
L 44.951586 24.510174 
L 46.803857 24.480937 
L 47.597486 24.106348 
L 48.056843 23.207394 
L 48.166383 22.275641 
L 48.385461 21.590587 
L 48.412316 21.179578 
L 48.326804 20.158526 
L 48.354366 19.705573 
L 48.412316 19.41153 
L 48.893581 17.956061 
L 48.995346 17.349834 
L 48.921849 16.745472 
L 48.613019 16.027956 
L 47.234947 13.835585 
L 46.973466 12.875557 
L 46.927531 12.088993 
L 47.147316 9.766188 
L 55.995956 10.176697 
L 57.225581 10.601232 
L 57.311838 10.631014 
L 57.437632 10.698525 
L 57.672964 10.910183 
L 57.805118 10.972222 
L 57.964833 10.957625 
L 58.039743 10.871866 
L 58.103347 10.77151 
L 58.2355 10.714946 
L 59.05457 10.495993 
L 59.29485 10.474099 
L 59.525235 10.55438 
L 59.862333 10.831723 
L 60.100492 10.880989 
L 60.337945 10.833548 
L 60.800836 10.669331 
L 61.007193 10.64926 
L 61.158428 10.742316 
L 61.419908 11.098126 
L 61.544288 11.178413 
L 61.654534 11.154692 
L 62.000819 11.023313 
L 62.245338 11.025138 
L 62.438269 10.988644 
L 62.618478 11.010541 
L 62.835436 11.198485 
L 63.09197 10.806178 
L 63.584542 11.127321 
L 64.085596 11.10725 
L 64.55838 11.008716 
L 64.975336 11.089002 
L 65.325861 11.570736 
L 65.44388 12.234986 
L 65.414199 12.94491 
L 65.310313 13.552676 
L 64.903252 14.753726 
L 64.804313 15.336053 
L 64.925866 16.022479 
L 65.241056 16.592105 
L 65.644584 16.869627 
L 66.119489 16.92988 
L 66.649517 16.855021 
L 67.137143 17.096033 
L 67.585193 17.055864 
L 67.900383 16.708955 
L 67.990135 16.027956 
L 68.448079 14.620471 
L 69.442411 14.605868 
L 70.511654 15.310496 
L 71.190797 16.066295 
L 71.178783 16.205048 
L 71.134967 16.442392 
L 71.192917 16.743646 
L 71.480546 17.077775 
L 71.742026 17.205587 
L 72.552615 17.280449 
L 72.988652 17.547036 
L 73.106671 17.893975 
L 73.2678 18.184319 
L 73.83175 18.27745 
L 75.598509 18.151449 
L 76.160339 18.233623 
L 76.6939 18.51302 
L 77.144071 18.975048 
L 77.913671 20.061724 
L 78.059959 20.397797 
L 78.080454 20.64438 
L 78.180099 20.781373 
L 78.570199 20.795986 
L 78.605171 20.782921 
L 78.809772 20.706483 
L 79.608348 20.149394 
L 80.142616 19.886386 
L 80.603387 19.76767 
L 81.076878 19.795066 
L 81.651429 19.972228 
L 82.837278 20.514695 
L 83.326317 20.962207 
L 84.102985 22.474773 
L 84.546088 22.759776 
L 89.165105 21.234378 
L 90.177105 20.518348 
L 91.083099 19.468146 
L 91.573552 19.163153 
L 92.251988 19.135759 
L 93.901435 19.831594 
L 94.483759 19.904651 
L 94.847005 19.811504 
L 95.887273 19.090102 
L 96.189742 18.821645 
L 96.308468 18.76138 
L 96.497865 18.759554 
L 96.551574 18.797904 
L 96.588323 18.856343 
L 98.24201 19.738448 
L 98.804547 19.893692 
L 101.041971 20.01241 
L 102.075172 19.795066 
L 104.179737 18.799731 
L 105.316117 18.531282 
L 107.672268 18.304841 
L 108.595223 18.425366 
L 110.390251 19.247162 
L 111.145011 19.285514 
L 111.139357 19.972228 
L 110.620636 20.061724 
L 109.961988 20.025195 
L 109.536553 20.32291 
L 109.420653 21.115645 
L 109.600156 22.514965 
L 109.608636 23.329808 
L 109.098396 24.727625 
L 108.321022 25.754649 
L 107.880039 26.790921 
L 108.377558 28.220319 
L 108.892039 28.807128 
L 110.566927 29.752313 
L 111.054553 30.25328 
L 112.159838 32.140365 
L 112.614955 32.643284 
L 113.149223 33.098677 
L 113.708933 33.460811 
L 114.247441 33.702241 
L 114.780296 33.705899 
L 115.660849 33.241334 
L 116.107486 33.210242 
L 116.539989 33.060269 
L 116.945637 32.526239 
L 117.238212 31.849599 
L 117.409234 30.827413 
L 117.591564 30.708561 
L 117.823363 30.692104 
L 118.041028 30.558627 
L 118.429715 29.774253 
L 118.555643 29.582163 
L 118.579536 29.545717 
L 119.462916 28.73766 
L 119.778106 28.280644 
L 120.132871 26.761677 
L 120.337816 26.405276 
L 120.708128 26.30841 
L 121.345575 26.337653 
L 122.534251 25.836889 
L 123.078413 25.80582 
L 123.746955 26.036095 
L 124.235994 26.489349 
L 125.334212 28.671848 
L 125.970246 29.275139 
L 126.611933 29.660898 
L 127.103799 30.174659 
L 127.279062 31.160206 
L 127.205564 31.474724 
L 126.937017 32.100133 
L 126.898855 32.38725 
L 127.026062 32.76216 
L 127.758207 33.70407 
L 128.870559 36.405935 
L 129.663481 37.45066 
L 130.79562 37.392109 
L 131.202682 37.146929 
L 131.474056 36.813932 
L 131.775112 36.210176 
L 132.018218 35.557064 
L 132.119984 35.06863 
L 132.331995 34.713753 
L 132.828101 34.282064 
L 133.393464 33.912583 
L 133.817487 33.740651 
L 133.625263 32.959679 
L 133.927732 32.531725 
L 134.476135 32.200714 
L 135.031604 31.697818 
L 135.037258 31.441809 
L 134.960933 31.066949 
L 134.970827 30.726845 
L 135.226654 30.576911 
L 135.322766 30.443435 
L 135.098034 29.732202 
L 135.126302 29.392145 
L 135.622408 29.167275 
L 136.929811 29.298905 
L 137.195531 28.787019 
L 137.387755 28.496353 
L 138.327671 27.498282 
L 138.68809 27.196688 
L 138.867593 27.384955 
L 139.048509 27.501938 
L 139.454157 27.679243 
L 139.434369 27.171099 
L 139.589844 27.032186 
L 139.838604 27.008425 
L 140.097258 26.832959 
L 140.214571 26.502143 
L 140.269693 26.423553 
L 140.46333 26.604494 
L 140.542481 26.807371 
L 140.613152 26.811026 
L 140.77852 26.392482 
L 141.818788 25.864302 
L 142.036453 26.006853 
L 142.169314 26.23896 
L 142.341749 26.456451 
L 143.243504 26.684913 
L 144.203208 27.264317 
L 144.737476 27.395922 
L 145.404604 27.361193 
L 145.601068 27.395922 
L 145.869615 27.549463 
L 146.242755 27.957089 
L 146.459007 28.132575 
L 146.648985 28.206657 
L 146.740275 28.242255 
L 147.195392 28.267848 
L 147.473833 28.350109 
L 147.804571 28.567647 
L 148.362867 29.123398 
L 148.695018 29.328157 
L 149.217979 29.531091 
L 150.170616 30.172831 
L 150.719018 30.288019 
L 151.220778 30.470861 
L 152.162107 31.42718 
L 152.655387 31.727077 
L 152.918281 31.734392 
L 153.47799 31.622843 
L 153.6688 31.619186 
L 153.959962 31.769137 
L 154.403772 32.209858 
L 154.682214 32.425654 
L 155.17408 32.626825 
L 156.69632 32.670717 
L 157.357795 31.765479 
L 157.699839 31.158377 
L 157.829873 30.710389 
L 157.771923 29.979025 
L 157.810085 29.375691 
L 158.005136 28.829066 
L 158.419264 28.269676 
L 159.289923 27.549463 
L 162.368326 26.244443 
L 162.908247 25.621239 
L 163.353471 25.226504 
L 164.467236 24.557684 
L 164.942141 24.475455 
L 166.619857 24.844576 
L 167.258717 24.024123 
L 167.392991 23.567331 
L 167.308186 22.726891 
L 167.668605 22.597177 
L 167.913125 22.036323 
L 168.033264 21.3659 
L 168.01489 20.916542 
L 167.860829 20.743015 
L 167.400058 20.613328 
L 167.194407 20.461725 
L 167.063667 20.12565 
L 167.049532 19.811504 
L 166.976035 19.548505 
L 166.222689 19.029836 
L 165.727996 18.43267 
L 165.332242 17.828238 
L 165.186661 17.466694 
L 165.581002 16.834937 
L 166.87427 16.433263 
L 167.330801 16.020653 
L 167.518784 15.976838 
L 167.677086 16.009699 
L 168.041745 16.279902 
L 168.427605 16.462475 
L 168.638203 16.309113 
L 168.841734 16.086378 
L 169.199326 16.058993 
L 171.288343 16.623143 
L 172.441684 17.108815 
L 175.71158 19.255265 
L 176.639505 19.864469 
L 177.129957 20.529307 
L 177.435254 21.322059 
L 177.480483 22.102089 
L 177.233136 22.887665 
L 176.874131 23.591083 
L 176.582969 24.336581 
L 176.53774 25.263053 
L 176.627491 25.615757 
L 176.893918 26.178648 
L 176.98579 26.531386 
L 177.186494 26.933486 
L 177.518645 26.918864 
L 178.057153 26.641048 
L 178.467041 26.940797 
L 178.826047 27.56043 
L 179.040885 28.342797 
L 179.015444 29.134367 
L 178.605555 30.525714 
L 178.486829 31.29552 
L 178.601315 31.964807 
L 179.104488 32.495149 
L 179.708013 32.537212 
L 180.334153 32.443942 
L 180.902343 32.573788 
L 181.399863 33.122453 
L 181.518589 33.722361 
L 181.491734 34.389985 
L 181.53343 35.149119 
L 181.66841 35.536941 
L 181.853567 35.873553 
L 182.000561 36.221153 
L 182.023176 36.641949 
L 180.649343 45.684222 
L 181.160997 45.640272 
L 181.621768 45.903973 
L 182.072645 46.251924 
L 182.564511 46.464362 
L 183.129874 46.361805 
L 183.572271 46.101754 
L 183.951064 45.98455 
L 184.324204 46.317852 
L 184.930556 48.87109 
L 185.022427 49.5095 
L 185.249986 50.224896 
L 185.552455 50.897285 
L 185.859165 51.409394 
L 187.351723 52.272432 
L 188.089522 52.336567 
L 188.790572 51.632934 
L 188.943221 52.075448 
L 189.068235 52.831984 
L 189.175019 53.478242 
L 189.392684 53.999642 
L 189.714941 54.156342 
L 190.471114 54.183834 
L 192.123388 54.82624 
L 192.945992 55.329379 
L 193.556584 55.976439 
L 193.063304 56.141418 
L 192.495115 56.479633 
L 192.168617 56.940687 
L 192.390522 57.471429 
L 192.893696 57.590598 
L 193.394042 57.486096 
L 193.673897 57.647432 
L 193.518422 58.565997 
L 193.198992 59.036312 
L 192.698645 59.253599 
L 192.146003 59.292106 
L 191.662617 59.218759 
L 190.605388 58.911626 
L 190.349561 59.164666 
L 190.061226 59.958666 
L 190.082427 60.092534 
L 190.167232 60.267664 
L 190.228008 60.480392 
L 190.179952 60.736221 
L 190.088081 60.818748 
L 189.816707 60.849925 
L 189.719181 60.89394 
L 189.487383 61.081921 
L 188.92626 61.393703 
L 188.729796 61.544095 
L 188.397645 62.158525 
L 188.240757 63.423261 
L 188.008958 63.981848 
L 187.767265 64.145119 
L 187.213916 64.156126 
L 186.989891 64.266197 
L 186.738304 64.692736 
L 186.729824 65.042235 
L 186.799081 65.382572 
L 186.779293 65.785302 
L 186.490251 66.494476 
L 185.228785 68.13135 
L 184.985678 68.580067 
L 184.760947 69.166454 
L 184.656354 69.791419 
L 184.779321 70.349421 
L 185.19769 70.720214 
L 185.627366 70.555008 
L 186.099444 70.240204 
L 186.639366 70.168617 
L 187.100137 70.264066 
L 187.593416 70.279669 
L 188.078215 70.207164 
L 188.517785 70.034623 
L 189.009651 69.602365 
L 189.281025 69.060003 
L 189.989142 67.151398 
L 190.445673 67.153233 
L 190.994075 67.378944 
L 191.549545 67.353253 
L 191.83788 67.259665 
L 192.08664 67.311047 
L 192.595466 67.537679 
L 192.864014 67.487214 
L 193.392629 67.111027 
L 193.720539 67.100017 
L 194.322651 67.494554 
L 194.889427 68.179066 
L 195.312036 68.997601 
L 195.477405 69.798761 
L 195.516981 73.470357 
L 195.456204 74.131377 
L 195.293662 74.45272 
L 195.100025 74.727247 
L 194.527595 76.705143 
L 194.469645 77.437992 
L 195.190483 77.798925 
L 195.312036 78.431733 
L 195.738886 85.466691 
L 196.042768 86.398647 
L 196.878092 87.872104 
L 197.562182 89.523192 
L 198.062528 89.856012 
L 198.651919 89.871642 
L 199.282299 89.712586 
L 199.703495 89.483658 
L 199.936707 89.301623 
L 200.117623 89.384366 
L 200.391824 89.941517 
L 200.482282 90.37457 
L 200.514791 91.316125 
L 200.663199 91.771299 
L 201.193227 92.25224 
L 201.905584 92.425126 
L 203.392489 92.515248 
L 203.923931 92.909773 
L 204.326752 93.665752 
L 204.609433 94.563428 
L 204.79035 95.377466 
L 204.845473 96.291833 
L 204.697065 97.119793 
L 204.104847 98.829256 
L 203.826405 99.231357 
L 203.624288 99.672119 
L 203.484361 100.151548 
L 203.392489 100.667806 
L 202.868115 101.543013 
L 202.239148 101.995827 
L 200.846942 102.668638 
L 200.333875 103.277053 
L 199.781232 104.241746 
L 199.487243 105.13655 
L 199.750137 105.52966 
L 200.095009 105.688012 
L 199.990416 106.035105 
L 199.654025 106.381287 
L 199.067461 106.670394 
L 199.043433 106.985289 
L 199.131065 107.348994 
L 199.230003 107.639045 
L 199.321875 107.710868 
L 199.474523 107.721918 
L 199.631411 107.773483 
L 199.731763 107.972382 
L 199.795366 108.59304 
L 199.837768 108.786426 
L 199.792539 108.871149 
L 199.661092 108.917194 
L 199.580528 109.045201 
L 199.692187 109.369368 
L 199.80526 109.42094 
L 200.318327 109.365684 
L 200.44412 110.128246 
L 199.437921 119.400798 
L 199.402439 119.727905 
L 199.417986 120.514157 
L 199.511271 121.325348 
L 199.641305 121.958667 
L 199.846249 122.528404 
L 201.437746 125.445718 
L 201.89569 126.082933 
L 202.343741 126.384491 
L 202.938785 126.543112 
L 203.552204 126.580001 
L 204.052551 126.519134 
L 204.613674 126.246161 
L 205.653942 125.486292 
L 206.232026 125.329529 
L 207.361339 125.331373 
L 207.504093 125.641213 
L 206.783255 128.485455 
L 206.695623 129.310072 
L 205.718959 132.410698 
L 205.74864 133.710766 
L 207.139434 134.424059 
L 207.478651 134.348391 
L 207.754266 134.198902 
L 207.981825 134.257959 
L 208.356378 135.171537 
L 208.653193 135.564671 
L 209.263786 136.178391 
L 210.402992 137.004421 
L 210.747864 137.54806 
L 210.709044 137.585446 
L 210.271545 138.006801 
L 209.618551 138.134181 
L 209.078629 138.134181 
L 208.552841 138.213563 
L 206.099165 139.838235 
L 205.68645 140.402301 
L 205.685037 140.405993 
L 205.419316 141.271988 
L 205.286456 142.115879 
L 205.170556 143.869385 
L 204.671623 146.967897 
L 204.945824 148.070787 
L 206.198104 148.563145 
L 206.804456 148.653674 
L 208.444009 149.298482 
L 208.565562 149.278158 
L 208.853191 149.088777 
L 209.013612 149.09432 
L 209.191702 149.248596 
L 209.410073 149.698499 
L 209.540813 149.896203 
L 210.056707 150.482863 
L 210.246104 150.78498 
L 210.900512 152.328928 
L 211.157045 152.716097 
L 211.919579 153.381424 
L 212.114629 153.690073 
L 212.257383 154.359145 
L 212.192367 155.73158 
L 212.254557 156.486709 
L 212.595188 157.973977 
L 212.593774 158.595183 
L 212.397311 159.494685 
L 212.312506 160.35079 
L 212.486356 161.114488 
L 213.054545 162.633682 
L 211.460221 162.860235 
L 210.705462 162.725228 
L 210.084976 162.216651 
L 209.225624 159.97358 
L 208.640473 158.948321 
L 208.041188 159.074972 
L 207.940836 159.615794 
L 208.01292 160.206562 
L 207.96345 160.70952 
L 207.498439 160.986894 
L 207.040495 160.966553 
L 206.595978 160.793656 
L 206.205171 160.510738 
L 205.905528 160.167731 
L 205.693517 159.693452 
L 205.546523 159.178512 
L 205.357126 158.706115 
L 205.017908 158.357605 
L 204.627808 158.265164 
L 204.208026 158.337268 
L 203.392489 158.613671 
L 203.140903 158.563752 
L 202.660344 158.61552 
L 202.436319 158.597032 
L 202.257523 158.483327 
L 201.959294 158.139445 
L 201.726081 158.039609 
L 201.172025 158.095073 
L 200.263204 158.563752 
L 199.704908 158.639556 
L 198.725416 158.38164 
L 198.343796 158.448199 
L 197.015193 159.817336 
L 196.863958 160.069731 
L 196.866785 160.499643 
L 197.009539 160.88334 
L 197.200349 161.277218 
L 197.343104 161.731207 
L 197.386919 162.467238 
L 197.049115 164.505389 
L 197.049115 165.175897 
L 197.112718 165.847361 
L 197.032154 166.258948 
L 196.585517 166.870339 
L 196.547355 167.246806 
L 198.818701 169.191269 
L 201.482975 170.252415 
L 201.744456 170.204305 
L 203.392489 169.469732 
L 203.731707 169.464181 
L 203.755735 169.81296 
L 203.59602 170.309776 
L 203.392489 170.749246 
L 203.228534 171.839188 
L 203.239841 172.378637 
L 203.392489 172.886644 
L 203.902729 173.285474 
L 204.357847 173.942503 
L 204.691411 174.729125 
L 204.76196 175.090979 
L 204.844059 175.512087 
L 204.35926 175.462109 
L 204.027109 175.190012 
L 203.762802 174.893858 
L 203.494255 174.781877 
L 202.349394 175.025276 
L 201.932439 175.006766 
L 201.983322 175.312178 
L 201.938093 176.178469 
L 201.658238 177.572414 
L 200.297126 180.262556 
L 200.233523 181.70132 
L 200.437053 182.073532 
L 201.047646 182.762425 
L 201.187573 183.153182 
L 201.13457 183.512466 
L 200.979802 183.71063 
L 200.800299 183.851385 
L 200.673092 184.049554 
L 200.567087 184.625556 
L 200.468148 185.820225 
L 200.338115 186.33887 
L 199.458975 187.654083 
L 199.440601 187.802283 
L 199.516925 188.154264 
L 199.499964 188.302468 
L 199.388305 188.448822 
L 199.078768 188.676691 
L 198.957215 188.81749 
L 198.410226 189.725304 
L 198.280193 190.132911 
L 198.268886 190.405272 
L 198.35793 190.987067 
L 198.34521 191.239061 
L 197.559355 192.387908 
L 196.564316 191.822739 
L 195.528288 190.773987 
L 194.610986 190.468268 
L 193.639975 190.846248 
L 193.131148 190.899982 
L 192.47674 189.927254 
L 191.786997 190.394156 
L 190.544612 191.896858 
L 189.719181 191.209414 
L 188.838628 190.362658 
L 188.326975 189.551148 
L 188.155952 188.571093 
L 188.302947 187.228016 
L 185.043628 187.007577 
L 184.827377 187.722625 
L 184.110779 188.858248 
L 183.922089 189.601171 
L 183.854952 190.84069 
L 183.815377 191.044506 
L 183.654248 191.415088 
L 183.604779 191.620765 
L 183.635874 191.843122 
L 183.74612 191.907976 
L 183.869086 191.954301 
L 183.942583 192.117365 
L 183.972265 192.953097 
L 183.866259 193.664707 
L 183.594885 194.315192 
L 183.131287 194.965702 
L 182.368047 195.564344 
L 182.204092 195.740419 
L 182.106567 196.07404 
L 182.065578 196.806178 
L 181.962399 197.124993 
L 181.7306 197.40118 
L 181.283963 197.569861 
L 181.02743 197.783031 
L 180.529203 198.585689 
L 180.28327 199.082504 
L 180.153237 199.468102 
L 180.209773 200.078032 
L 180.411891 200.725066 
L 180.53627 201.405498 
L 180.359594 202.117479 
L 180.057125 202.347396 
L 178.872689 202.938891 
L 178.510857 202.994518 
L 177.992136 201.915377 
L 177.641611 201.635405 
L 177.494617 202.479044 
L 177.206282 202.310312 
L 177.080488 202.36223 
L 176.99003 202.924057 
L 176.868477 202.942599 
L 176.262125 203.178091 
L 176.041633 203.343122 
L 175.572382 203.293056 
L 175.195002 203.563784 
L 174.850131 203.97174 
L 174.471337 204.33149 
L 174.108091 204.479843 
L 173.723644 204.565147 
L 173.569445 204.631809 
L 173.354745 204.724628 
L 173.040968 205.089958 
L 173.296795 203.853061 
L 173.19927 203.376499 
L 172.665002 203.020478 
L 172.452991 202.797969 
L 172.437443 202.176812 
L 172.284089 202.030334 
L 171.67279 202.061854 
L 171.507421 202.022917 
L 170.828985 201.208967 
L 170.457259 198.962006 
L 170.061505 198.233479 
L 169.641016 198.170452 
L 168.708873 198.493001 
L 168.279197 198.402168 
L 168.115242 198.155623 
L 167.925845 197.443814 
L 167.735035 197.134261 
L 167.506063 196.950756 
L 167.308186 196.858078 
L 166.919499 196.789496 
L 166.461555 196.806178 
L 166.209968 196.871053 
L 166.098309 196.995242 
L 166.038946 197.384498 
L 165.900432 197.50313 
L 165.74213 197.568007 
L 165.329415 198.350263 
L 165.018465 198.001766 
L 164.488437 196.789496 
L 164.183141 197.380791 
L 163.387393 198.391045 
L 163.161247 198.537491 
L 163.148304 198.524168 
L 163.049588 198.422559 
L 163.350644 198.087036 
L 163.520253 197.72186 
L 163.592337 197.299231 
L 163.609298 196.809885 
L 163.719544 196.363184 
L 163.979611 196.018436 
L 164.54356 195.462406 
L 165.164046 194.254034 
L 165.395845 193.488655 
L 165.292667 192.992012 
L 165.781706 192.247077 
L 165.977463 191.841269 
L 166.11103 190.883306 
L 166.269331 190.342277 
L 166.503957 189.879082 
L 166.802186 189.58635 
L 166.222689 188.708186 
L 166.180287 187.50218 
L 166.450248 186.225878 
L 166.748477 185.30345 
L 166.050253 184.138453 
L 165.812801 183.527282 
L 165.101856 182.345752 
L 164.47289 180.847674 
L 164.205756 179.357149 
L 164.272186 177.844554 
L 164.625434 176.289477 
L 164.662287 176.178469 
L 164.85875 175.847125 
L 164.919527 175.489874 
L 164.870058 175.117824 
L 164.73013 174.733752 
L 164.4107 174.244191 
L 164.120951 174.201621 
L 163.829789 174.498687 
L 163.500465 175.023425 
L 163.540041 174.609741 
L 163.83827 173.962862 
L 163.894806 173.591776 
L 163.395873 170.995355 
L 163.39446 170.583634 
L 163.304002 170.157121 
L 163.032627 169.968387 
L 162.368326 169.792606 
L 161.971158 169.412373 
L 161.923102 168.452121 
L 162.099778 167.432731 
L 162.368326 166.86664 
L 162.499773 166.707546 
L 162.545002 166.544754 
L 162.501186 166.384739 
L 162.368326 166.229351 
L 162.214264 165.871408 
L 162.108259 165.47648 
L 161.969745 165.099134 
L 161.718158 164.791161 
L 162.016387 164.392562 
L 162.185996 164.215 
L 162.368326 164.082754 
L 162.481398 164.019869 
L 162.819203 163.757232 
L 162.676449 163.661057 
L 162.481398 163.388254 
L 162.00084 162.93976 
L 160.629834 162.18891 
L 160.277895 161.551829 
L 160.05599 161.344714 
L 159.859527 161.629498 
L 159.72808 161.865281 
L 159.525962 161.994732 
L 159.29275 162.033567 
L 159.072258 162.00028 
L 158.60018 162.016923 
L 158.190292 162.137129 
L 157.947186 162.037266 
L 157.983934 161.389096 
L 158.241175 160.933268 
L 158.60018 160.608742 
L 158.826325 160.180675 
L 158.677918 159.415179 
L 158.323152 158.948321 
L 157.776163 158.619218 
L 157.236242 158.611823 
L 156.901264 159.110101 
L 156.83342 159.84877 
L 156.827767 160.364659 
L 156.720348 160.458963 
L 156.342968 159.927354 
L 156.058873 159.298694 
L 155.93308 158.661742 
L 155.757817 156.985837 
L 155.600929 156.368399 
L 155.312593 155.901642 
L 154.847582 155.816611 
L 154.86313 156.257485 
L 154.731683 156.562501 
L 154.535219 156.825929 
L 154.347943 157.137427 
L 154.348649 157.423975 
L 154.440521 157.698511 
L 154.403772 157.93238 
L 153.725336 158.191211 
L 153.230644 158.524926 
L 152.986124 158.619218 
L 152.853264 158.387187 
L 152.726057 158.22449 
L 152.59885 158.143142 
L 152.21299 158.276257 
L 152.077303 158.30214 
L 151.544448 158.311385 
L 151.085091 158.390884 
L 150.646934 158.572996 
L 150.183336 158.887307 
L 149.1148 159.969882 
L 148.015169 160.815846 
L 147.432845 160.940664 
L 147.068185 160.780712 
L 146.949459 160.304563 
L 147.225074 158.625689 
L 147.038504 158.102468 
L 146.628616 157.794646 
L 145.072453 157.287171 
L 144.610269 157.27423 
L 144.146671 157.455403 
L 143.222303 158.635858 
L 142.762945 158.976979 
L 142.548107 158.379791 
L 141.985571 158.659893 
L 141.698649 158.724604 
L 141.40042 158.706115 
L 141.086643 158.761582 
L 140.853431 158.661742 
L 140.634353 158.500891 
L 139.88666 158.207851 
L 139.702917 158.189362 
L 138.87042 158.342815 
L 138.459118 158.546188 
L 138.114246 158.835537 
L 137.794816 159.222887 
L 137.529096 159.710093 
L 136.867621 161.461216 
L 136.532643 162.015074 
L 134.917118 164.067958 
L 133.957414 164.889193 
L 133.457068 165.149076 
L 133.167319 165.065839 
L 132.384291 164.409209 
L 131.978643 164.185406 
L 131.074062 164.12252 
L 130.298101 164.45175 
L 129.758179 165.200868 
L 129.558889 166.401388 
L 129.009073 165.767819 
L 129.290341 164.602495 
L 129.919308 163.395652 
L 130.416827 162.633682 
L 130.819648 161.767268 
L 131.213989 158.674684 
L 131.509391 158.625689 
L 131.585715 158.342815 
L 131.582889 157.918514 
L 131.646492 157.44431 
L 131.837302 157.010793 
L 132.258498 156.492254 
L 132.695241 155.449689 
L 133.129157 154.691844 
L 133.654945 154.121639 
L 134.209 153.979323 
L 134.83938 153.914634 
L 135.353861 153.449807 
L 135.727001 152.753059 
L 135.940425 151.987045 
L 134.767297 149.946091 
L 134.617475 149.60242 
L 134.20476 149.213491 
L 133.083928 147.28102 
L 133.007604 147.191423 
L 132.81114 147.025164 
L 132.717855 146.877379 
L 132.703721 146.747145 
L 132.733403 146.368457 
L 132.726336 146.21052 
L 132.477576 145.200134 
L 132.432347 144.84273 
L 132.384291 142.239605 
L 132.514324 140.999627 
L 132.934107 138.883716 
L 132.923128 138.790981 
L 132.897922 138.57808 
L 132.870503 138.346484 
L 132.545419 138.001263 
L 131.906559 137.765891 
L 130.819648 137.620054 
L 129.688922 137.671743 
L 128.706604 137.285006 
L 128.511553 135.988274 
L 128.809782 134.446206 
L 129.297408 133.331528 
L 129.564542 133.087013 
L 129.871252 132.909857 
L 130.161 132.676422 
L 130.378665 132.260309 
L 130.414 131.930011 
L 130.303755 131.324794 
L 130.300928 131.018507 
L 130.426721 130.571081 
L 130.585023 130.175331 
L 130.689615 129.779592 
L 130.65428 129.334055 
L 129.488218 128.017827 
L 129.20271 127.844431 
L 128.838051 127.528081 
L 128.511553 127.152714 
L 128.183643 126.522823 
L 127.929229 126.447202 
L 127.638067 126.45089 
L 127.36952 126.40478 
L 127.192844 126.449046 
L 126.709458 126.42138 
L 126.37024 126.275671 
L 126.633134 125.963049 
L 126.92571 125.700231 
L 126.872 125.499202 
L 126.443738 125.140493 
L 126.036676 124.55865 
L 125.738447 124.022936 
L 125.622548 123.390435 
L 125.770955 122.50259 
L 125.800637 121.995542 
L 125.592866 121.765072 
L 125.308771 121.591762 
L 125.113721 121.260819 
L 124.973793 120.280027 
L 124.877682 119.985989 
L 124.611961 119.632968 
L 123.910911 119.005297 
L 123.708793 118.655991 
L 123.52505 117.721483 
L 123.406324 117.443171 
L 123.228235 117.259784 
L 122.783011 117.047833 
L 122.630363 116.92435 
L 122.463581 116.584317 
L 122.142737 115.372622 
L 121.49257 113.768578 
L 120.539933 112.185932 
L 119.417687 110.794147 
L 117.385207 109.133609 
L 117.183089 108.716438 
L 116.811363 106.367476 
L 116.612072 105.575692 
L 116.309603 105.235057 
L 115.93081 105.191787 
L 115.005028 104.834592 
L 114.311044 104.741613 
L 108.506905 104.782987 
L 96.876658 104.865893 
L 96.743798 107.040534 
L 96.557228 107.371093 
L 91.414316 108.815753 
L 90.551658 109.058094 
L 90.086647 109.032308 
L 89.63577 108.904302 
L 89.121289 108.659343 
L 88.471828 108.142737 
L 87.973602 107.56538 
L 87.481736 107.150106 
L 86.848529 107.11972 
L 82.739046 108.247714 
L 81.498781 108.830629 
L 80.514342 109.574739 
L 80.350387 109.897999 
L 80.332012 110.119036 
L 80.366641 110.36034 
L 80.369468 110.7352 
L 79.996328 113.380728 
L 80.013289 113.487593 
L 80.116468 113.886502 
L 80.127775 114.06339 
L 80.04297 114.149071 
L 79.90163 114.121432 
L 79.765942 114.123274 
L 79.712233 114.29648 
L 79.71718 114.73227 
L 79.681845 114.867708 
L 79.5928 114.888899 
L 78.743342 115.557824 
L 78.492462 115.88585 
L 78.045825 116.902233 
L 77.964554 117.014658 
L 77.931339 118.525119 
L 77.820387 118.833869 
L 77.600602 118.855988 
L 77.334174 118.813592 
L 77.081174 118.935251 
L 76.952554 119.236638 
L 76.713688 120.406309 
L 76.641604 120.56762 
L 76.582948 120.662564 
L 76.495317 120.723402 
L 76.339842 120.784241 
L 76.129951 120.915137 
L 76.112283 121.062627 
L 76.165993 121.223946 
L 76.160339 121.402782 
L 75.228196 125.273279 
L 75.102403 125.497358 
L 74.913007 125.70392 
L 74.821842 125.837634 
L 74.751171 126.053423 
L 74.644459 126.277515 
L 74.510185 126.240628 
L 74.370965 126.11982 
L 74.253652 126.093999 
L 73.792881 126.430602 
L 73.637406 126.607668 
L 73.417621 126.983018 
L 73.423981 127.266153 
L 73.53352 127.588952 
L 73.517266 127.862877 
L 73.140593 127.99938 
L 72.666395 128.312052 
L 72.0134 129.71502 
L 71.55687 130.20854 
L 70.980906 130.332154 
L 70.455118 130.284184 
L 69.92085 130.332154 
L 69.322272 130.74267 
L 68.789417 130.025889 
L 68.217693 130.548941 
L 67.784484 131.650464 
L 67.658691 132.676422 
L 67.779537 133.035342 
L 68.154797 133.632334 
L 68.183772 133.926688 
L 68.084126 133.967289 
L 67.655157 134.020808 
L 67.499682 134.124158 
L 67.236082 134.610463 
L 67.010643 135.130932 
L 66.649517 136.251301 
L 66.277084 136.850286 
L 65.780978 137.259162 
L 64.725869 137.921882 
L 63.896199 138.709252 
L 63.48207 138.797868 
L 62.858757 138.517251 
L 61.821316 137.671743 
L 61.390227 137.53883 
L 60.676456 137.704972 
L 59.480006 138.185872 
z
" clip-path="url(#p202c05b2e6)" style="stroke: #000000; stroke-linejoin: miter"/>
   </g>
   <g id="line2d_1">
    <path d="M 58.831235 138.796967 
L 58.270323 138.256205 
L 58.155693 137.857917 
L 58.329308 137.293938 
L 58.843477 137.256146 
L 58.831235 136.844807 
L 59.578004 135.849215 
L 60.418258 134.215737 
L 60.886797 133.875697 
L 61.370917 133.846634 
L 62.249011 134.076232 
L 62.753163 133.875697 
L 62.753163 133.653367 
L 61.090462 133.733289 
L 60.302515 133.634477 
L 59.968639 133.265391 
L 60.01872 133.125896 
L 60.34258 132.655113 
L 60.34258 132.19016 
L 60.698714 130.72857 
L 60.095511 131.534894 
L 59.830637 132.405199 
L 59.391033 134.384307 
L 58.442826 133.77543 
L 58.254742 133.387449 
L 58.489569 133.208721 
L 58.542989 132.877425 
L 58.555231 131.77898 
L 58.586393 131.213811 
L 58.254742 130.949396 
L 58.167935 129.171273 
L 58.350454 128.511804 
L 58.831235 128.998414 
L 58.768911 127.88287 
L 58.831235 127.535735 
L 58.644264 127.535735 
L 58.254742 127.943874 
L 57.415601 128.180629 
L 57.279825 128.54957 
L 57.003821 130.201218 
L 56.823528 130.536803 
L 55.798529 129.800271 
L 56.013322 129.264241 
L 55.74177 128.950478 
L 55.474669 128.389791 
L 55.283247 127.707123 
L 55.250973 127.027395 
L 55.437943 126.356418 
L 56.035581 125.347114 
L 56.2181 124.590553 
L 56.013322 124.590553 
L 55.350022 125.255628 
L 54.337266 125.347114 
L 53.413542 124.968102 
L 53.00844 124.224631 
L 52.823695 122.601345 
L 53.708466 120.621163 
L 53.755209 119.96214 
L 53.568238 119.96214 
L 52.596659 122.223867 
L 52.092507 122.419864 
L 51.711888 122.10627 
L 51.332383 121.454427 
L 51.051927 120.673422 
L 50.971797 119.96214 
L 50.135994 120.415033 
L 48.523374 121.617022 
L 47.726523 121.99303 
L 47.308065 122.219512 
L 47.203451 122.032229 
L 47.261323 121.730259 
L 47.762137 121.425393 
L 49.540582 118.012855 
L 49.950137 117.172565 
L 50.025815 116.615306 
L 50.021363 114.316879 
L 50.148236 114.148577 
L 50.522177 113.959965 
L 50.780375 113.330313 
L 51.57166 112.758722 
L 51.719679 112.146539 
L 50.811536 112.645567 
L 50.543323 112.433768 
L 49.34916 110.604615 
L 49.255675 110.199947 
L 48.88396 110.42186 
L 49.184448 111.54019 
L 49.273481 112.546921 
L 48.979671 113.347723 
L 48.136078 113.852603 
L 47.129998 113.720578 
L 46.630297 112.87623 
L 46.557958 111.731666 
L 46.82951 110.687291 
L 47.966914 108.84825 
L 48.413195 107.682315 
L 48.323048 106.506345 
L 48.085996 106.245356 
L 47.865638 107.74612 
L 47.571827 107.978139 
L 47.032061 108.990374 
L 46.643652 109.205013 
L 46.678153 109.355843 
L 46.560183 109.464616 
L 45.495119 109.943228 
L 44.42783 109.753232 
L 44.013823 109.560337 
L 43.679948 108.916411 
L 42.83079 107.728719 
L 42.433478 107.480754 
L 41.543142 106.617992 
L 41.209266 105.77704 
L 40.96665 105.634954 
L 40.276639 105.513167 
L 40.069636 105.297144 
L 39.530983 104.562115 
L 38.119801 103.698114 
L 38.022977 102.813884 
L 38.453677 101.767389 
L 39.159268 101.23548 
L 39.886005 101.886238 
L 39.310625 100.865912 
L 38.944475 100.445632 
L 38.783101 100.538382 
L 38.577211 100.990549 
L 38.163205 100.802144 
L 37.846023 100.392012 
L 37.923927 100.16159 
L 38.517114 99.852919 
L 38.977862 99.115331 
L 39.717954 97.486714 
L 39.318416 97.733021 
L 38.197706 99.066063 
L 37.271757 99.674677 
L 37.221675 100.10942 
L 37.191626 102.155828 
L 36.964591 102.522537 
L 36.612908 102.781995 
L 36.152159 102.857369 
L 35.525586 102.616753 
L 35.052595 102.077559 
L 34.797736 101.38331 
L 34.825559 100.670263 
L 35.26405 100.089132 
L 35.936253 99.452964 
L 36.333565 98.808137 
L 35.947382 98.216956 
L 35.840542 98.738584 
L 35.526699 99.031286 
L 34.657508 99.187783 
L 34.724284 99.984792 
L 34.240164 100.583308 
L 33.63251 100.819535 
L 33.332021 100.538382 
L 33.053791 99.990589 
L 32.861256 99.593526 
L 32.773336 99.066063 
L 33.040436 98.583542 
L 33.149502 98.36185 
L 32.897983 98.03584 
L 32.630882 98.202466 
L 32.327055 98.909568 
L 31.726078 98.480665 
L 29.795163 96.365362 
L 29.412318 96.249466 
L 28.624371 96.429105 
L 28.267124 96.47981 
L 27.900974 96.249466 
L 27.337836 96.956449 
L 27.061832 96.579772 
L 26.966121 94.910952 
L 27.172011 93.311893 
L 26.898233 92.625408 
L 26.714601 92.480585 
L 25.020738 90.227379 
L 24.726927 89.445522 
L 24.657926 87.790769 
L 24.794815 86.975787 
L 25.081948 86.506801 
L 25.070819 86.508248 
L 24.633442 86.557462 
L 24.081434 87.174098 
L 23.774268 87.479534 
L 23.402553 87.653246 
L 22.935126 87.745893 
L 22.512217 87.643112 
L 22.28073 87.234895 
L 22.093759 87.234895 
L 21.904563 87.685093 
L 21.72427 87.525857 
L 21.535074 86.385215 
L 21.633011 85.282318 
L 21.924595 84.299643 
L 22.22731 84.428443 
L 23.402553 83.108683 
L 22.741478 83.088424 
L 22.52112 82.628282 
L 22.554508 81.980064 
L 22.888384 79.995131 
L 23.105403 79.494613 
L 23.571716 79.708705 
L 23.625137 79.177823 
L 24.166016 78.583325 
L 24.52215 76.995259 
L 25.183224 75.297526 
L 25.56273 75.099426 
L 25.775297 74.622266 
L 25.810911 74.054039 
L 25.659554 73.576924 
L 26.033495 72.894542 
L 25.494842 73.096939 
L 25.422502 73.373073 
L 25.515987 73.767768 
L 25.455889 74.325859 
L 24.030239 75.690844 
L 23.185533 77.537605 
L 22.868351 78.690361 
L 22.492184 79.457003 
L 21.722044 80.6577 
L 20.949678 81.528649 
L 20.574624 81.708055 
L 20.413251 81.276906 
L 20.467784 80.722802 
L 20.621367 80.332197 
L 20.858419 80.079035 
L 21.162246 79.93148 
L 20.794982 79.882295 
L 20.413251 80.171619 
L 20.040423 79.708705 
L 20.594657 77.686574 
L 21.056518 76.921501 
L 21.628559 76.387862 
L 21.900111 75.777608 
L 21.535074 75.540456 
L 21.172262 76.144913 
L 19.936921 77.371283 
L 19.618626 77.975841 
L 19.299218 79.30367 
L 18.919713 79.708705 
L 18.654838 79.017262 
L 18.03049 78.085764 
L 17.969279 77.25992 
L 18.337656 77.277275 
L 18.654838 76.951872 
L 19.088876 76.026333 
L 19.309234 75.02279 
L 19.462817 73.576924 
L 18.783936 74.343209 
L 18.584724 74.834816 
L 17.596451 75.297526 
L 17.586435 74.510931 
L 17.800115 73.841503 
L 17.635403 73.516202 
L 17.616484 73.201031 
L 17.730002 72.904662 
L 17.969279 72.628541 
L 17.45511 72.566378 
L 17.29485 72.151489 
L 17.376093 71.612301 
L 17.596451 71.17143 
L 17.940343 70.888126 
L 18.930842 70.502208 
L 19.378235 70.445839 
L 19.700982 70.217476 
L 20.123892 68.991914 
L 20.58464 68.830057 
L 21.09547 68.049713 
L 21.535074 67.754931 
L 21.192294 67.335892 
L 20.975275 66.765159 
L 20.840612 67.419699 
L 20.707061 67.659562 
L 19.836758 68.108959 
L 19.726579 68.818496 
L 19.433881 69.413908 
L 19.015424 69.694283 
L 18.530191 69.452928 
L 18.256412 69.697173 
L 17.800115 69.717407 
L 17.95815 69.036714 
L 17.800115 68.603174 
L 17.543031 68.512132 
L 17.409481 68.85896 
L 16.644905 70.181343 
L 15.793521 69.974665 
L 15.25153 67.951451 
L 14.591568 67.997692 
L 15.058995 68.611844 
L 15.132447 69.266497 
L 14.795233 70.445839 
L 14.225418 69.890839 
L 13.898219 69.73475 
L 13.469745 69.717407 
L 14.705086 71.074586 
L 14.795233 71.657112 
L 14.528132 72.306167 
L 13.50981 73.423674 
L 13.282775 73.467046 
L 13.096917 73.3297 
L 12.909947 73.467046 
L 13.212661 75.621434 
L 13.72683 75.997411 
L 13.795831 76.57297 
L 13.469745 77.25992 
L 12.978948 76.947533 
L 11.983998 76.749404 
L 11.500991 76.387862 
L 10.925611 75.619988 
L 10.464862 74.811681 
L 10.191084 74.045364 
L 10.145455 73.351387 
L 10.331312 72.689258 
L 10.952321 71.881169 
L 11.603379 71.53569 
L 11.719123 71.029777 
L 11.959513 70.445839 
L 11.808156 70.398143 
L 11.79035 70.181343 
L 12.566878 69.155442 
L 13.48418 67.756058 
L 16.107465 61.263487 
L 16.651627 58.476154 
L 17.062929 57.142348 
L 20.267125 51.369084 
L 20.931426 50.902782 
L 22.063566 50.748879 
L 24.337032 51.08417 
L 25.467052 50.82583 
L 30.785706 47.008299 
L 30.968742 46.65666 
L 31.499477 45.499267 
L 31.934807 45.321641 
L 32.091695 45.431513 
L 34.381416 45.621959 
L 35.288823 45.57801 
L 36.025209 46.257418 
L 36.472553 46.391107 
L 36.852759 46.370962 
L 38.106452 46.176839 
L 39.301488 46.42224 
L 39.812435 46.184164 
L 41.208176 45.056124 
L 41.8011 45.433344 
L 42.350916 45.420526 
L 42.822287 45.059786 
L 43.25267 44.047221 
L 43.311327 43.236144 
L 43.187653 42.835206 
L 43.269631 42.646643 
L 43.680226 42.655797 
L 43.919799 42.873652 
L 44.010257 43.582171 
L 44.240642 43.765259 
L 44.634983 43.90807 
L 44.754416 44.660607 
L 45.303525 44.759485 
L 46.005989 44.594689 
L 46.668877 44.257782 
L 47.102086 43.845819 
L 47.243427 43.375285 
L 47.391128 41.216975 
L 46.973466 37.044467 
L 47.063924 35.573528 
L 47.30279 34.141221 
L 47.266042 33.471785 
L 46.965693 32.888352 
L 46.705626 32.723754 
L 45.742388 32.531725 
L 44.973494 32.00321 
L 44.222975 30.81827 
L 44.025804 30.339215 
L 43.278818 30.00645 
L 43.00391 29.759626 
L 42.469642 29.103288 
L 41.947388 28.695614 
L 41.393332 28.465276 
L 40.466843 28.207523 
L 40.580623 27.818165 
L 40.652706 26.697707 
L 41.249164 25.835061 
L 42.911332 24.851886 
L 44.091528 23.76649 
L 44.839927 23.538097 
L 45.303525 23.709848 
L 44.951586 24.510174 
L 46.803857 24.480937 
L 47.597486 24.106348 
L 48.056843 23.207394 
L 48.166383 22.275641 
L 48.412316 21.179578 
L 48.354366 19.705573 
L 48.412316 19.41153 
L 48.995346 17.349834 
L 48.921849 16.745472 
L 48.613019 16.027956 
L 47.234947 13.835585 
L 46.973466 12.875557 
L 46.927531 12.088993 
L 47.147316 9.766188 
L 55.995956 10.176697 
L 57.437632 10.698525 
L 57.805118 10.972222 
L 58.039743 10.871866 
L 58.2355 10.714946 
L 59.29485 10.474099 
L 59.525235 10.55438 
L 59.862333 10.831723 
L 60.337945 10.833548 
L 61.007193 10.64926 
L 61.158428 10.742316 
L 61.544288 11.178413 
L 62.618478 11.010541 
L 62.835436 11.198485 
L 63.09197 10.806178 
L 63.584542 11.127321 
L 64.975336 11.089002 
L 65.325861 11.570736 
L 65.44388 12.234986 
L 65.310313 13.552676 
L 64.804313 15.336053 
L 64.925866 16.022479 
L 65.241056 16.592105 
L 65.644584 16.869627 
L 66.119489 16.92988 
L 66.649517 16.855021 
L 67.137143 17.096033 
L 67.585193 17.055864 
L 67.900383 16.708955 
L 67.990135 16.027956 
L 68.448079 14.620471 
L 69.442411 14.605868 
L 70.511654 15.310496 
L 71.178783 16.205048 
L 71.134967 16.442392 
L 71.192917 16.743646 
L 71.480546 17.077775 
L 71.742026 17.205587 
L 72.552615 17.280449 
L 72.988652 17.547036 
L 73.2678 18.184319 
L 73.83175 18.27745 
L 75.598509 18.151449 
L 76.160339 18.233623 
L 76.6939 18.51302 
L 77.144071 18.975048 
L 78.059959 20.397797 
L 78.180099 20.781373 
L 78.809772 20.706483 
L 80.142616 19.886386 
L 80.603387 19.76767 
L 81.076878 19.795066 
L 81.651429 19.972228 
L 82.837278 20.514695 
L 83.326317 20.962207 
L 84.102985 22.474773 
L 84.546088 22.759776 
L 89.165105 21.234378 
L 90.177105 20.518348 
L 91.083099 19.468146 
L 91.573552 19.163153 
L 92.251988 19.135759 
L 93.901435 19.831594 
L 94.483759 19.904651 
L 94.847005 19.811504 
L 96.497865 18.759554 
L 96.588323 18.856343 
L 98.24201 19.738448 
L 98.804547 19.893692 
L 101.041971 20.01241 
L 102.075172 19.795066 
L 104.179737 18.799731 
L 105.316117 18.531282 
L 107.672268 18.304841 
L 108.595223 18.425366 
L 110.390251 19.247162 
L 111.145011 19.285514 
L 111.139357 19.972228 
L 110.620636 20.061724 
L 109.961988 20.025195 
L 109.536553 20.32291 
L 109.420653 21.115645 
L 109.608636 23.329808 
L 109.098396 24.727625 
L 108.321022 25.754649 
L 107.880039 26.790921 
L 108.377558 28.220319 
L 108.892039 28.807128 
L 110.566927 29.752313 
L 111.054553 30.25328 
L 112.159838 32.140365 
L 113.149223 33.098677 
L 114.247441 33.702241 
L 114.780296 33.705899 
L 115.660849 33.241334 
L 116.107486 33.210242 
L 116.539989 33.060269 
L 116.945637 32.526239 
L 117.238212 31.849599 
L 117.409234 30.827413 
L 117.591564 30.708561 
L 117.823363 30.692104 
L 118.041028 30.558627 
L 118.579536 29.545717 
L 119.462916 28.73766 
L 119.778106 28.280644 
L 120.132871 26.761677 
L 120.337816 26.405276 
L 120.708128 26.30841 
L 121.345575 26.337653 
L 122.534251 25.836889 
L 123.078413 25.80582 
L 123.746955 26.036095 
L 124.235994 26.489349 
L 125.334212 28.671848 
L 125.970246 29.275139 
L 126.611933 29.660898 
L 127.103799 30.174659 
L 127.279062 31.160206 
L 127.205564 31.474724 
L 126.898855 32.38725 
L 127.026062 32.76216 
L 127.758207 33.70407 
L 128.870559 36.405935 
L 129.663481 37.45066 
L 130.79562 37.392109 
L 131.202682 37.146929 
L 131.474056 36.813932 
L 132.018218 35.557064 
L 132.119984 35.06863 
L 132.331995 34.713753 
L 133.393464 33.912583 
L 133.817487 33.740651 
L 133.625263 32.959679 
L 133.927732 32.531725 
L 134.476135 32.200714 
L 135.031604 31.697818 
L 134.970827 30.726845 
L 135.322766 30.443435 
L 135.098034 29.732202 
L 135.126302 29.392145 
L 135.622408 29.167275 
L 136.929811 29.298905 
L 137.387755 28.496353 
L 138.68809 27.196688 
L 139.048509 27.501938 
L 139.454157 27.679243 
L 139.434369 27.171099 
L 139.589844 27.032186 
L 139.838604 27.008425 
L 140.097258 26.832959 
L 140.269693 26.423553 
L 140.613152 26.811026 
L 140.77852 26.392482 
L 141.818788 25.864302 
L 142.036453 26.006853 
L 142.341749 26.456451 
L 143.243504 26.684913 
L 144.203208 27.264317 
L 144.737476 27.395922 
L 145.601068 27.395922 
L 145.869615 27.549463 
L 146.459007 28.132575 
L 146.740275 28.242255 
L 147.473833 28.350109 
L 147.804571 28.567647 
L 148.695018 29.328157 
L 149.217979 29.531091 
L 150.170616 30.172831 
L 151.220778 30.470861 
L 152.162107 31.42718 
L 152.655387 31.727077 
L 152.918281 31.734392 
L 153.6688 31.619186 
L 153.959962 31.769137 
L 154.682214 32.425654 
L 155.17408 32.626825 
L 156.69632 32.670717 
L 157.699839 31.158377 
L 157.829873 30.710389 
L 157.810085 29.375691 
L 158.005136 28.829066 
L 158.419264 28.269676 
L 159.289923 27.549463 
L 162.368326 26.244443 
L 163.353471 25.226504 
L 164.467236 24.557684 
L 164.942141 24.475455 
L 166.619857 24.844576 
L 167.258717 24.024123 
L 167.392991 23.567331 
L 167.308186 22.726891 
L 167.668605 22.597177 
L 167.913125 22.036323 
L 168.01489 20.916542 
L 167.860829 20.743015 
L 167.194407 20.461725 
L 167.049532 19.811504 
L 166.976035 19.548505 
L 166.222689 19.029836 
L 165.332242 17.828238 
L 165.186661 17.466694 
L 165.581002 16.834937 
L 166.87427 16.433263 
L 167.518784 15.976838 
L 167.677086 16.009699 
L 168.427605 16.462475 
L 168.841734 16.086378 
L 169.199326 16.058993 
L 171.288343 16.623143 
L 172.441684 17.108815 
L 176.639505 19.864469 
L 177.129957 20.529307 
L 177.435254 21.322059 
L 177.480483 22.102089 
L 177.233136 22.887665 
L 176.582969 24.336581 
L 176.627491 25.615757 
L 177.186494 26.933486 
L 177.518645 26.918864 
L 178.057153 26.641048 
L 178.467041 26.940797 
L 178.826047 27.56043 
L 179.040885 28.342797 
L 179.015444 29.134367 
L 178.486829 31.29552 
L 178.601315 31.964807 
L 179.104488 32.495149 
L 179.708013 32.537212 
L 180.334153 32.443942 
L 180.902343 32.573788 
L 181.399863 33.122453 
L 181.518589 33.722361 
L 181.53343 35.149119 
L 182.023176 36.641949 
L 180.649343 45.684222 
L 181.160997 45.640272 
L 182.564511 46.464362 
L 183.129874 46.361805 
L 183.951064 45.98455 
L 184.324204 46.317852 
L 185.249986 50.224896 
L 185.859165 51.409394 
L 187.351723 52.272432 
L 188.089522 52.336567 
L 188.790572 51.632934 
L 188.943221 52.075448 
L 189.175019 53.478242 
L 189.392684 53.999642 
L 189.714941 54.156342 
L 190.471114 54.183834 
L 192.123388 54.82624 
L 192.945992 55.329379 
L 193.556584 55.976439 
L 193.063304 56.141418 
L 192.495115 56.479633 
L 192.168617 56.940687 
L 192.390522 57.471429 
L 192.893696 57.590598 
L 193.394042 57.486096 
L 193.673897 57.647432 
L 193.518422 58.565997 
L 193.198992 59.036312 
L 192.698645 59.253599 
L 191.662617 59.218759 
L 190.605388 58.911626 
L 190.349561 59.164666 
L 190.082427 60.092534 
L 190.228008 60.480392 
L 190.088081 60.818748 
L 189.719181 60.89394 
L 189.487383 61.081921 
L 188.729796 61.544095 
L 188.397645 62.158525 
L 188.240757 63.423261 
L 188.008958 63.981848 
L 187.767265 64.145119 
L 186.989891 64.266197 
L 186.738304 64.692736 
L 186.779293 65.785302 
L 186.490251 66.494476 
L 184.985678 68.580067 
L 184.760947 69.166454 
L 184.656354 69.791419 
L 184.779321 70.349421 
L 185.19769 70.720214 
L 185.627366 70.555008 
L 186.099444 70.240204 
L 186.639366 70.168617 
L 187.593416 70.279669 
L 188.517785 70.034623 
L 189.009651 69.602365 
L 189.281025 69.060003 
L 189.989142 67.151398 
L 190.445673 67.153233 
L 190.994075 67.378944 
L 192.08664 67.311047 
L 192.595466 67.537679 
L 192.864014 67.487214 
L 193.392629 67.111027 
L 193.720539 67.100017 
L 194.322651 67.494554 
L 194.889427 68.179066 
L 195.312036 68.997601 
L 195.477405 69.798761 
L 195.456204 74.131377 
L 195.100025 74.727247 
L 194.527595 76.705143 
L 194.469645 77.437992 
L 195.190483 77.798925 
L 195.312036 78.431733 
L 195.738886 85.466691 
L 196.042768 86.398647 
L 196.878092 87.872104 
L 197.562182 89.523192 
L 198.062528 89.856012 
L 198.651919 89.871642 
L 199.282299 89.712586 
L 200.117623 89.384366 
L 200.482282 90.37457 
L 200.514791 91.316125 
L 200.663199 91.771299 
L 201.193227 92.25224 
L 201.905584 92.425126 
L 203.392489 92.515248 
L 203.923931 92.909773 
L 204.326752 93.665752 
L 204.79035 95.377466 
L 204.845473 96.291833 
L 204.697065 97.119793 
L 204.104847 98.829256 
L 203.624288 99.672119 
L 203.392489 100.667806 
L 202.868115 101.543013 
L 202.239148 101.995827 
L 200.846942 102.668638 
L 200.333875 103.277053 
L 199.781232 104.241746 
L 199.487243 105.13655 
L 199.750137 105.52966 
L 200.095009 105.688012 
L 199.990416 106.035105 
L 199.654025 106.381287 
L 199.067461 106.670394 
L 199.043433 106.985289 
L 199.321875 107.710868 
L 199.631411 107.773483 
L 199.731763 107.972382 
L 199.792539 108.871149 
L 199.580528 109.045201 
L 199.80526 109.42094 
L 200.318327 109.365684 
L 200.44412 110.128246 
L 199.417986 120.514157 
L 199.641305 121.958667 
L 199.846249 122.528404 
L 201.89569 126.082933 
L 202.343741 126.384491 
L 202.938785 126.543112 
L 204.052551 126.519134 
L 204.613674 126.246161 
L 205.653942 125.486292 
L 206.232026 125.329529 
L 207.361339 125.331373 
L 207.504093 125.641213 
L 206.783255 128.485455 
L 206.695623 129.310072 
L 205.718959 132.410698 
L 205.74864 133.710766 
L 207.139434 134.424059 
L 207.981825 134.257959 
L 208.356378 135.171537 
L 208.653193 135.564671 
L 209.263786 136.178391 
L 210.402992 137.004421 
L 210.709044 137.585446 
L 210.271545 138.006801 
L 209.078629 138.134181 
L 208.552841 138.213563 
L 206.099165 139.838235 
L 205.685037 140.405993 
L 205.419316 141.271988 
L 205.286456 142.115879 
L 205.170556 143.869385 
L 204.671623 146.967897 
L 204.945824 148.070787 
L 206.198104 148.563145 
L 206.804456 148.653674 
L 208.565562 149.278158 
L 209.013612 149.09432 
L 209.191702 149.248596 
L 209.540813 149.896203 
L 210.246104 150.78498 
L 211.157045 152.716097 
L 212.114629 153.690073 
L 212.257383 154.359145 
L 212.254557 156.486709 
L 212.595188 157.973977 
L 212.593774 158.595183 
L 212.312506 160.35079 
L 212.486356 161.114488 
L 213.054545 162.633682 
L 211.460221 162.860235 
L 210.705462 162.725228 
L 210.084976 162.216651 
L 209.225624 159.97358 
L 208.640473 158.948321 
L 208.041188 159.074972 
L 207.940836 159.615794 
L 207.96345 160.70952 
L 207.498439 160.986894 
L 207.040495 160.966553 
L 206.595978 160.793656 
L 205.905528 160.167731 
L 205.017908 158.357605 
L 204.627808 158.265164 
L 204.208026 158.337268 
L 203.392489 158.613671 
L 203.140903 158.563752 
L 202.436319 158.597032 
L 202.257523 158.483327 
L 201.726081 158.039609 
L 201.172025 158.095073 
L 200.263204 158.563752 
L 199.704908 158.639556 
L 198.725416 158.38164 
L 198.343796 158.448199 
L 196.863958 160.069731 
L 196.866785 160.499643 
L 197.343104 161.731207 
L 197.386919 162.467238 
L 197.049115 165.175897 
L 197.112718 165.847361 
L 197.032154 166.258948 
L 196.585517 166.870339 
L 196.547355 167.246806 
L 198.818701 169.191269 
L 201.482975 170.252415 
L 201.744456 170.204305 
L 203.392489 169.469732 
L 203.731707 169.464181 
L 203.755735 169.81296 
L 203.392489 170.749246 
L 203.239841 172.378637 
L 203.392489 172.886644 
L 203.902729 173.285474 
L 204.357847 173.942503 
L 204.76196 175.090979 
L 204.844059 175.512087 
L 204.35926 175.462109 
L 203.494255 174.781877 
L 201.932439 175.006766 
L 201.983322 175.312178 
L 201.938093 176.178469 
L 201.658238 177.572414 
L 200.297126 180.262556 
L 200.233523 181.70132 
L 200.437053 182.073532 
L 201.047646 182.762425 
L 201.187573 183.153182 
L 201.13457 183.512466 
L 200.673092 184.049554 
L 200.567087 184.625556 
L 200.338115 186.33887 
L 199.440601 187.802283 
L 199.499964 188.302468 
L 199.078768 188.676691 
L 198.957215 188.81749 
L 198.280193 190.132911 
L 198.268886 190.405272 
L 198.34521 191.239061 
L 197.559355 192.387908 
L 196.564316 191.822739 
L 195.528288 190.773987 
L 194.610986 190.468268 
L 193.639975 190.846248 
L 193.131148 190.899982 
L 192.47674 189.927254 
L 191.786997 190.394156 
L 190.544612 191.896858 
L 188.838628 190.362658 
L 188.326975 189.551148 
L 188.155952 188.571093 
L 188.302947 187.228016 
L 185.043628 187.007577 
L 184.827377 187.722625 
L 184.110779 188.858248 
L 183.922089 189.601171 
L 183.815377 191.044506 
L 183.604779 191.620765 
L 183.74612 191.907976 
L 183.869086 191.954301 
L 183.942583 192.117365 
L 183.972265 192.953097 
L 183.866259 193.664707 
L 183.594885 194.315192 
L 183.131287 194.965702 
L 182.204092 195.740419 
L 182.106567 196.07404 
L 181.962399 197.124993 
L 181.7306 197.40118 
L 181.02743 197.783031 
L 180.28327 199.082504 
L 180.153237 199.468102 
L 180.209773 200.078032 
L 180.53627 201.405498 
L 180.359594 202.117479 
L 180.057125 202.347396 
L 178.872689 202.938891 
L 178.510857 202.994518 
L 177.992136 201.915377 
L 177.641611 201.635405 
L 177.494617 202.479044 
L 177.080488 202.36223 
L 176.99003 202.924057 
L 176.868477 202.942599 
L 176.041633 203.343122 
L 175.572382 203.293056 
L 175.195002 203.563784 
L 174.471337 204.33149 
L 173.354745 204.724628 
L 173.040968 205.089958 
L 173.296795 203.853061 
L 173.19927 203.376499 
L 172.452991 202.797969 
L 172.437443 202.176812 
L 172.284089 202.030334 
L 171.507421 202.022917 
L 170.828985 201.208967 
L 170.457259 198.962006 
L 170.061505 198.233479 
L 169.641016 198.170452 
L 168.708873 198.493001 
L 168.279197 198.402168 
L 168.115242 198.155623 
L 167.735035 197.134261 
L 167.308186 196.858078 
L 166.461555 196.806178 
L 166.098309 196.995242 
L 166.038946 197.384498 
L 165.74213 197.568007 
L 165.329415 198.350263 
L 165.018465 198.001766 
L 164.488437 196.789496 
L 164.183141 197.380791 
L 163.161247 198.537491 
L 163.148304 198.524168 
L 163.049588 198.422559 
L 163.350644 198.087036 
L 163.520253 197.72186 
L 163.719544 196.363184 
L 163.979611 196.018436 
L 164.54356 195.462406 
L 165.164046 194.254034 
L 165.395845 193.488655 
L 165.292667 192.992012 
L 165.977463 191.841269 
L 166.269331 190.342277 
L 166.503957 189.879082 
L 166.802186 189.58635 
L 166.222689 188.708186 
L 166.180287 187.50218 
L 166.748477 185.30345 
L 165.101856 182.345752 
L 164.47289 180.847674 
L 164.205756 179.357149 
L 164.272186 177.844554 
L 164.662287 176.178469 
L 164.85875 175.847125 
L 164.919527 175.489874 
L 164.73013 174.733752 
L 164.4107 174.244191 
L 164.120951 174.201621 
L 163.829789 174.498687 
L 163.500465 175.023425 
L 163.540041 174.609741 
L 163.894806 173.591776 
L 163.304002 170.157121 
L 163.032627 169.968387 
L 162.368326 169.792606 
L 161.971158 169.412373 
L 161.923102 168.452121 
L 162.099778 167.432731 
L 162.501186 166.384739 
L 162.368326 166.229351 
L 161.718158 164.791161 
L 162.368326 164.082754 
L 162.819203 163.757232 
L 162.676449 163.661057 
L 162.481398 163.388254 
L 162.00084 162.93976 
L 160.629834 162.18891 
L 160.05599 161.344714 
L 159.525962 161.994732 
L 159.072258 162.00028 
L 157.947186 162.037266 
L 157.983934 161.389096 
L 158.241175 160.933268 
L 158.60018 160.608742 
L 158.826325 160.180675 
L 158.677918 159.415179 
L 158.323152 158.948321 
L 157.776163 158.619218 
L 157.236242 158.611823 
L 156.901264 159.110101 
L 156.720348 160.458963 
L 156.342968 159.927354 
L 156.058873 159.298694 
L 155.93308 158.661742 
L 155.600929 156.368399 
L 155.312593 155.901642 
L 154.847582 155.816611 
L 154.86313 156.257485 
L 154.535219 156.825929 
L 154.347943 157.137427 
L 154.403772 157.93238 
L 153.725336 158.191211 
L 152.986124 158.619218 
L 152.59885 158.143142 
L 152.077303 158.30214 
L 151.085091 158.390884 
L 150.646934 158.572996 
L 150.183336 158.887307 
L 149.1148 159.969882 
L 148.015169 160.815846 
L 147.432845 160.940664 
L 147.068185 160.780712 
L 146.949459 160.304563 
L 147.225074 158.625689 
L 147.038504 158.102468 
L 146.628616 157.794646 
L 145.072453 157.287171 
L 144.610269 157.27423 
L 144.146671 157.455403 
L 143.222303 158.635858 
L 142.762945 158.976979 
L 142.548107 158.379791 
L 141.698649 158.724604 
L 140.853431 158.661742 
L 140.634353 158.500891 
L 139.702917 158.189362 
L 138.87042 158.342815 
L 138.114246 158.835537 
L 137.529096 159.710093 
L 136.867621 161.461216 
L 136.532643 162.015074 
L 134.917118 164.067958 
L 133.957414 164.889193 
L 133.457068 165.149076 
L 133.167319 165.065839 
L 131.978643 164.185406 
L 131.074062 164.12252 
L 130.298101 164.45175 
L 129.758179 165.200868 
L 129.558889 166.401388 
L 129.009073 165.767819 
L 129.290341 164.602495 
L 130.819648 161.767268 
L 131.213989 158.674684 
L 131.509391 158.625689 
L 131.585715 158.342815 
L 131.646492 157.44431 
L 131.837302 157.010793 
L 132.258498 156.492254 
L 133.129157 154.691844 
L 133.654945 154.121639 
L 134.83938 153.914634 
L 135.353861 153.449807 
L 135.727001 152.753059 
L 135.940425 151.987045 
L 134.617475 149.60242 
L 134.20476 149.213491 
L 132.81114 147.025164 
L 132.703721 146.747145 
L 132.726336 146.21052 
L 132.432347 144.84273 
L 132.384291 142.239605 
L 132.514324 140.999627 
L 132.897922 138.57808 
L 132.870503 138.346484 
L 132.545419 138.001263 
L 131.906559 137.765891 
L 130.819648 137.620054 
L 129.688922 137.671743 
L 128.706604 137.285006 
L 128.511553 135.988274 
L 128.809782 134.446206 
L 129.297408 133.331528 
L 130.378665 132.260309 
L 130.414 131.930011 
L 130.300928 131.018507 
L 130.689615 129.779592 
L 130.65428 129.334055 
L 129.20271 127.844431 
L 128.511553 127.152714 
L 128.183643 126.522823 
L 127.638067 126.45089 
L 127.192844 126.449046 
L 126.709458 126.42138 
L 126.37024 126.275671 
L 126.92571 125.700231 
L 126.872 125.499202 
L 126.443738 125.140493 
L 125.738447 124.022936 
L 125.622548 123.390435 
L 125.800637 121.995542 
L 125.113721 121.260819 
L 124.877682 119.985989 
L 124.611961 119.632968 
L 123.910911 119.005297 
L 123.708793 118.655991 
L 123.406324 117.443171 
L 123.228235 117.259784 
L 122.630363 116.92435 
L 122.463581 116.584317 
L 122.142737 115.372622 
L 121.49257 113.768578 
L 120.539933 112.185932 
L 119.417687 110.794147 
L 117.385207 109.133609 
L 117.183089 108.716438 
L 116.612072 105.575692 
L 116.309603 105.235057 
L 115.93081 105.191787 
L 115.005028 104.834592 
L 114.311044 104.741613 
L 96.876658 104.865893 
L 96.743798 107.040534 
L 96.557228 107.371093 
L 90.551658 109.058094 
L 89.63577 108.904302 
L 89.121289 108.659343 
L 88.471828 108.142737 
L 87.481736 107.150106 
L 86.848529 107.11972 
L 82.739046 108.247714 
L 81.498781 108.830629 
L 80.514342 109.574739 
L 80.332012 110.119036 
L 80.369468 110.7352 
L 80.013289 113.487593 
L 80.127775 114.06339 
L 80.04297 114.149071 
L 79.765942 114.123274 
L 79.712233 114.29648 
L 79.681845 114.867708 
L 79.5928 114.888899 
L 78.492462 115.88585 
L 77.964554 117.014658 
L 77.820387 118.833869 
L 77.081174 118.935251 
L 76.952554 119.236638 
L 76.582948 120.662564 
L 76.112283 121.062627 
L 76.160339 121.402782 
L 75.102403 125.497358 
L 74.821842 125.837634 
L 74.644459 126.277515 
L 74.253652 126.093999 
L 73.637406 126.607668 
L 73.417621 126.983018 
L 73.517266 127.862877 
L 73.140593 127.99938 
L 72.666395 128.312052 
L 72.0134 129.71502 
L 71.55687 130.20854 
L 70.980906 130.332154 
L 69.92085 130.332154 
L 69.322272 130.74267 
L 68.789417 130.025889 
L 68.217693 130.548941 
L 67.784484 131.650464 
L 67.658691 132.676422 
L 67.779537 133.035342 
L 68.154797 133.632334 
L 68.084126 133.967289 
L 67.499682 134.124158 
L 67.010643 135.130932 
L 66.649517 136.251301 
L 66.277084 136.850286 
L 65.780978 137.259162 
L 64.725869 137.921882 
L 63.896199 138.709252 
L 63.48207 138.797868 
L 62.858757 138.517251 
L 61.821316 137.671743 
L 61.390227 137.53883 
L 60.676456 137.704972 
L 59.480006 138.185872 
L 58.831235 138.796967 
L 58.831235 138.796967 
" clip-path="url(#p202c05b2e6)" style="fill: none; stroke: #000000; stroke-width: 0.5; stroke-linecap: square"/>
   </g>
  </g>
 </g>
 <defs>
  <clipPath id="p202c05b2e6">
   <rect x="0" y="0" width="223.2" height="214.856147"/>
  </clipPath>
 </defs>
</svg>
