<?xml version="1.0" encoding="utf-8" standalone="no"?>
<!DOCTYPE svg PUBLIC "-//W3C//DTD SVG 1.1//EN"
  "http://www.w3.org/Graphics/SVG/1.1/DTD/svg11.dtd">
<svg xmlns:xlink="http://www.w3.org/1999/xlink" width="112.286741pt" height="221.76pt" viewBox="0 0 112.286741 221.76" xmlns="http://www.w3.org/2000/svg" version="1.1">
 <metadata>
  <rdf:RDF xmlns:dc="http://purl.org/dc/elements/1.1/" xmlns:cc="http://creativecommons.org/ns#" xmlns:rdf="http://www.w3.org/1999/02/22-rdf-syntax-ns#">
   <cc:Work>
    <dc:type rdf:resource="http://purl.org/dc/dcmitype/StillImage"/>
    <dc:date>2026-04-26T19:21:50.647535</dc:date>
    <dc:format>image/svg+xml</dc:format>
    <dc:creator>
     <cc:Agent>
      <dc:title>Matplotlib v3.10.9, https://matplotlib.org/</dc:title>
     </cc:Agent>
    </dc:creator>
   </cc:Work>
  </rdf:RDF>
 </metadata>
 <defs>
  <style type="text/css">*{stroke-linejoin: round; stroke-linecap: butt}</style>
 </defs>
 <g id="figure_1">
  <g id="patch_1">
   <path d="M 0 221.76 
L 112.286741 221.76 
L 112.286741 0 
L 0 0 
z
" style="fill: #ffffff"/>
  </g>
  <g id="axes_1">
   <g id="patch_2">
    <path d="M 107.182798 190.932843 
L 106.213087 191.415774 
L 105.58146 191.892327 
L 105.250353 191.924949 
L 104.933734 191.718583 
L 104.636435 191.400173 
L 104.30801 191.12644 
L 103.906603 191.063326 
L 103.556712 191.249833 
L 103.281415 191.529948 
L 102.984653 191.742695 
L 102.566072 191.722838 
L 102.149639 191.632066 
L 101.869512 191.718583 
L 100.97654 192.649716 
L 100.725392 192.801479 
L 100.439899 192.800061 
L 98.961989 192.468878 
L 98.690448 192.344064 
L 98.355584 191.985937 
L 98.218204 191.722838 
L 98.042185 191.57817 
L 97.593553 191.573915 
L 96.901286 191.674616 
L 96.561055 191.667524 
L 96.188626 191.565406 
L 95.642325 191.186009 
L 95.25809 190.755557 
L 95.012308 190.189664 
L 94.882441 189.408204 
L 94.250277 188.741633 
L 93.244611 189.269925 
L 91.468328 190.742792 
L 91.048674 190.641385 
L 90.297376 190.02089 
L 89.786494 189.957778 
L 89.328202 190.185409 
L 89.02339 190.557707 
L 88.761509 190.986738 
L 88.434157 191.383153 
L 87.997331 191.683126 
L 87.707545 191.82283 
L 87.500401 192.066781 
L 86.985226 193.89149 
L 86.767349 194.387925 
L 85.386034 196.698536 
L 84.765677 197.318404 
L 83.795429 197.643944 
L 83.157899 197.669477 
L 81.402008 197.244644 
L 80.66037 197.194997 
L 79.997081 197.429045 
L 78.320613 198.40851 
L 77.61654 198.976621 
L 77.26665 199.143297 
L 76.917833 199.1206 
L 76.292109 198.786541 
L 75.962611 198.725545 
L 75.83811 198.925555 
L 75.863869 199.359621 
L 75.98515 200.196556 
L 75.921826 200.67106 
L 75.784446 201.17465 
L 75.41953 202.061261 
L 75.085739 202.591815 
L 74.215307 202.807443 
L 73.233253 202.764885 
L 72.564598 202.530816 
L 72.420778 202.303131 
L 72.268372 201.704487 
L 72.107379 201.439922 
L 71.761782 201.198765 
L 71.543906 201.245578 
L 71.352861 201.408714 
L 71.088834 201.515816 
L 70.696012 201.498084 
L 70.239867 201.398784 
L 69.794455 201.227137 
L 69.437052 200.990946 
L 69.288938 200.782417 
L 69.085015 200.339829 
L 68.994859 200.275994 
L 68.757664 200.490904 
L 68.61599 200.853345 
L 68.501149 201.256927 
L 68.353036 201.591001 
L 68.168431 201.754137 
L 67.69404 202.032889 
L 67.545927 202.210213 
L 67.515875 202.482583 
L 67.636083 203.062083 
L 67.626423 203.323818 
L 67.064023 203.822464 
L 66.794604 203.883539 
L 65.289887 204.224647 
L 65.230175 204.323441 
L 64.982928 204.732521 
L 65.121381 205.300693 
L 65.514203 206.379594 
L 65.646217 206.951326 
L 65.659096 207.61528 
L 65.523862 208.093387 
L 64.873453 209.444021 
L 64.702801 209.455371 
L 64.538589 209.326265 
L 64.37223 209.248234 
L 64.37867 209.194322 
L 64.296027 209.082242 
L 64.180112 208.967324 
L 64.083517 208.904899 
L 63.991215 208.953136 
L 63.726114 209.221278 
L 63.5941 209.293634 
L 61.474366 209.026911 
L 61.159894 209.065217 
L 60.921626 209.306403 
L 60.346346 210.4031 
L 60.015775 210.879807 
L 59.61866 211.255783 
L 59.119584 211.515421 
L 58.704223 211.640274 
L 58.329648 211.68 
L 57.955072 211.600548 
L 57.537565 211.366448 
L 57.00307 210.801775 
L 56.824905 210.232849 
L 56.71543 209.636971 
L 56.388079 208.978674 
L 56.003844 208.572916 
L 55.57775 208.266471 
L 55.462995 208.207236 
L 54.651507 207.788362 
L 51.185877 206.976863 
L 49.85286 206.409386 
L 49.483651 206.144802 
L 49.223916 205.68586 
L 48.779577 204.369348 
L 48.605705 204.071434 
L 48.228983 203.781324 
L 48.137754 203.308213 
L 48.091603 202.793257 
L 47.850114 202.378316 
L 47.66068 202.340014 
L 47.238343 202.494641 
L 46.986122 202.413781 
L 46.909382 202.288945 
L 46.761805 201.856275 
L 46.685602 201.697394 
L 46.579884 201.626465 
L 46.322833 201.592419 
L 46.224627 201.537095 
L 46.036803 201.24416 
L 45.628955 200.281668 
L 45.436838 199.998669 
L 44.788038 199.319193 
L 44.438685 198.726963 
L 43.859112 197.48011 
L 43.428189 197.001377 
L 42.98707 196.819105 
L 42.616251 196.880808 
L 42.255628 197.015561 
L 41.835437 197.048186 
L 41.596632 196.967334 
L 41.385732 196.82336 
L 41.195761 196.629032 
L 40.741225 195.989314 
L 40.707417 195.763783 
L 41.039598 195.17372 
L 41.475888 194.059568 
L 41.455495 193.722704 
L 41.400221 193.684408 
L 41.268207 193.729796 
L 41.008473 193.64753 
L 40.22766 193.244005 
L 39.985634 193.226276 
L 39.564371 193.425555 
L 39.311613 193.411372 
L 39.123252 193.114225 
L 39.023436 192.553269 
L 38.990701 191.947642 
L 39.003044 191.51151 
L 39.079247 191.198774 
L 39.338981 190.668333 
L 39.43343 190.377585 
L 39.454359 190.12726 
L 39.401769 189.408204 
L 39.439333 189.174903 
L 39.558468 188.72036 
L 39.572957 188.495572 
L 39.504267 188.194202 
L 39.274584 187.621958 
L 39.243459 187.259612 
L 39.308393 186.971014 
L 39.542369 186.486711 
L 39.608375 186.215136 
L 39.598716 185.935053 
L 39.409281 185.117505 
L 39.393182 184.093642 
L 39.508024 183.032935 
L 39.477435 182.091368 
L 39.029876 181.427746 
L 38.842588 181.362519 
L 38.435814 181.348339 
L 38.24155 181.297292 
L 37.983425 181.120045 
L 37.347505 180.399721 
L 36.520541 179.835382 
L 36.124499 179.462469 
L 35.910379 178.937844 
L 35.944188 178.688295 
L 36.158308 178.230321 
L 36.151868 177.925481 
L 36.105717 177.634821 
L 36.084251 177.040748 
L 36.048833 176.741588 
L 35.445111 174.955186 
L 35.368908 174.430624 
L 35.374811 174.088954 
L 35.343686 173.881969 
L 35.171424 173.4198 
L 35.086098 173.307803 
L 34.818314 173.177377 
L 34.715279 173.071052 
L 34.730305 172.983156 
L 34.832804 172.645753 
L 34.838707 172.498317 
L 34.186151 170.815609 
L 34.111021 170.286855 
L 34.243035 165.809087 
L 34.673958 163.559803 
L 34.727085 162.980146 
L 34.653029 161.411299 
L 34.751771 160.723979 
L 34.956231 160.072103 
L 35.511118 158.877505 
L 35.62113 158.759891 
L 35.75851 158.693289 
L 35.880864 158.605433 
L 35.948481 158.428304 
L 35.925942 158.237006 
L 35.770316 157.946518 
L 35.741874 157.779312 
L 35.807881 157.704211 
L 36.070835 157.650365 
L 36.122889 157.544091 
L 36.076738 157.364134 
L 35.900183 157.106245 
L 35.839543 156.927708 
L 35.843299 156.570637 
L 35.950628 156.359514 
L 36.101424 156.185233 
L 36.238804 155.934439 
L 36.521614 154.696088 
L 36.612843 154.421221 
L 37.150558 153.2474 
L 37.369507 152.325096 
L 37.436051 152.30172 
L 37.566992 152.290386 
L 37.709738 152.245051 
L 37.814383 152.117546 
L 37.830482 151.928416 
L 37.703835 151.56645 
L 37.674856 151.382281 
L 37.767159 150.059137 
L 37.407609 150.231255 
L 37.466103 149.748193 
L 37.822969 148.614235 
L 37.652854 147.918727 
L 37.277205 147.351427 
L 36.957367 146.750854 
L 36.960587 145.946334 
L 37.484349 145.190702 
L 39.189795 144.400394 
L 39.977048 143.438743 
L 40.446073 143.16895 
L 40.629604 142.972802 
L 40.756251 142.658403 
L 40.768058 142.42119 
L 40.742835 142.179731 
L 40.755715 141.851889 
L 40.92905 141.163646 
L 41.192541 140.815991 
L 42.040434 140.315406 
L 42.449355 139.898377 
L 42.515899 139.511092 
L 42.426279 139.056553 
L 42.368322 138.43848 
L 42.49658 137.884846 
L 42.798709 137.246272 
L 43.185627 136.725939 
L 43.571472 136.519933 
L 43.776469 136.481705 
L 43.890237 136.350032 
L 43.922972 136.141198 
L 43.882724 135.869362 
L 43.732465 135.643542 
L 43.486146 135.527447 
L 42.827687 135.385161 
L 42.628057 135.396488 
L 42.497653 135.288889 
L 42.516435 134.583846 
L 42.426279 134.422454 
L 42.301242 134.288669 
L 42.008772 133.587905 
L 41.305236 132.725781 
L 41.106678 132.300394 
L 41.172149 131.657727 
L 41.402904 131.202634 
L 41.461398 130.812663 
L 41.021352 130.359711 
L 40.128918 129.979662 
L 39.78815 129.650575 
L 39.544515 128.93014 
L 39.50373 128.632206 
L 39.501584 128.394429 
L 39.555248 127.910389 
L 39.605692 127.75046 
L 39.790834 127.425653 
L 39.834838 127.251575 
L 39.791907 127.069714 
L 39.581543 126.757654 
L 39.544515 126.63453 
L 39.766148 126.122226 
L 40.476125 125.152844 
L 40.605455 124.501898 
L 40.611075 124.310155 
L 40.618871 124.044125 
L 40.541595 123.954269 
L 40.302789 123.921723 
L 40.062911 123.819841 
L 39.879379 123.591314 
L 39.722143 123.322462 
L 39.555248 123.102431 
L 38.344048 122.208887 
L 38.066605 121.728526 
L 37.899173 121.972596 
L 37.721544 122.033437 
L 37.277205 121.879212 
L 37.179 121.865063 
L 36.953074 121.867893 
L 36.861845 121.831813 
L 36.777592 121.660611 
L 36.836623 121.313259 
L 36.751833 121.209975 
L 36.484049 121.20856 
L 36.079958 121.46748 
L 35.887304 121.492948 
L 35.775683 121.35995 
L 35.47731 120.838578 
L 35.290022 120.683655 
L 35.086098 120.629892 
L 34.84622 120.612914 
L 34.641223 120.689314 
L 34.551067 120.916394 
L 34.433542 121.097494 
L 34.175418 121.04373 
L 33.682781 120.8216 
L 33.278153 120.902246 
L 32.957778 121.021092 
L 32.736682 120.946106 
L 32.626671 120.447381 
L 32.516123 120.244358 
L 32.28966 120.091562 
L 32.064807 120.078829 
L 31.955869 120.29812 
L 31.907035 120.610084 
L 31.78629 120.731759 
L 31.601149 120.7261 
L 31.353221 120.657481 
L 31.02265 120.434648 
L 30.789747 120.030019 
L 30.688859 119.525658 
L 30.757549 119.005748 
L 31.312436 118.229799 
L 31.491137 118.190189 
L 31.908108 118.180286 
L 32.096469 118.092578 
L 32.29127 117.84714 
L 32.362106 117.589681 
L 32.384645 117.311713 
L 32.437236 117.004044 
L 32.541881 116.676575 
L 33.135407 115.541441 
L 33.313572 115.0966 
L 33.438609 114.619945 
L 33.48798 114.101578 
L 33.395678 112.912851 
L 33.687611 111.695208 
L 33.739665 110.054836 
L 33.884022 109.248136 
L 34.038038 108.752538 
L 34.108338 108.24635 
L 34.127657 107.191598 
L 34.496866 105.535365 
L 34.463594 104.755016 
L 33.884022 104.369801 
L 32.967975 103.68421 
L 32.539735 103.253786 
L 32.270359 102.855263 
L 32.21775 102.777433 
L 31.557681 100.764029 
L 31.376833 100.448153 
L 30.44576 100.892643 
L 30.146851 100.542845 
L 29.952587 99.899799 
L 29.679973 99.796632 
L 28.812224 100.091297 
L 28.427452 100.340036 
L 27.589754 101.445974 
L 27.194786 101.805685 
L 26.739714 101.821939 
L 25.826887 101.407813 
L 25.393818 101.437494 
L 25.235509 101.614168 
L 24.99241 102.1442 
L 24.78795 102.339963 
L 24.63447 102.327242 
L 24.49387 102.181657 
L 24.350587 101.994376 
L 24.195498 101.855861 
L 23.781747 101.746321 
L 22.609722 101.961867 
L 22.30974 101.916638 
L 22.078984 101.776003 
L 21.864864 101.602154 
L 21.614252 101.455161 
L 21.369544 101.390853 
L 20.135805 101.279196 
L 19.674294 101.308877 
L 18.746441 101.576713 
L 17.146176 99.30836 
L 15.572743 97.025466 
L 13.997701 94.742169 
L 12.424268 92.458476 
L 10.850836 90.175803 
L 9.27633 87.892036 
L 7.70236 85.612123 
L 6.128928 83.329008 
L 5.459199 82.355573 
L 5.103943 81.25515 
L 5.320746 80.954471 
L 6.01677 80.446293 
L 6.321582 80.129397 
L 7.295586 78.098311 
L 7.558004 77.227525 
L 7.748512 76.840133 
L 8.024345 76.644677 
L 8.713393 76.476742 
L 9.05416 76.333505 
L 9.304235 76.140172 
L 9.506549 75.781032 
L 9.729792 75.08112 
L 9.997039 74.774214 
L 10.283069 74.71495 
L 10.587345 74.75587 
L 10.818637 74.671208 
L 10.885181 74.236614 
L 10.89162 73.863409 
L 10.999485 72.828505 
L 10.959237 72.559032 
L 10.893767 72.470855 
L 10.82293 72.41019 
L 10.764973 72.225373 
L 10.662474 72.032094 
L 10.296485 71.734421 
L 10.18701 71.484719 
L 10.030848 70.722943 
L 10.001332 70.42036 
L 10.12798 69.104302 
L 10.229405 68.725588 
L 10.412936 68.397659 
L 10.456941 68.169876 
L 10.465527 67.944212 
L 10.440842 67.720668 
L 10.381811 67.497832 
L 10.155885 67.090249 
L 9.957328 66.273708 
L 9.794725 65.865455 
L 9.47757 65.481186 
L 9.187784 65.268961 
L 8.98869 64.999631 
L 8.940929 64.441246 
L 9.090115 63.502898 
L 9.393318 62.492007 
L 9.799018 61.519958 
L 10.449964 60.53952 
L 10.646912 60.228698 
L 11.03866 60.128617 
L 11.493732 60.183591 
L 11.881187 60.337238 
L 12.071695 59.840357 
L 12.511204 59.924932 
L 12.955543 60.103244 
L 13.338169 59.723364 
L 14.286414 59.877006 
L 14.717874 59.795251 
L 14.831105 59.682487 
L 15.394578 58.903733 
L 15.43107 58.790976 
L 15.439656 58.566875 
L 15.393505 58.314589 
L 15.188508 57.932645 
L 15.142357 57.62752 
L 15.263101 57.517593 
L 15.533032 57.547189 
L 15.99347 57.712081 
L 16.13246 57.84315 
L 16.281647 58.029891 
L 16.466788 58.207474 
L 16.71579 58.305428 
L 16.909517 58.284286 
L 17.388201 58.138414 
L 17.631836 58.10177 
L 18.056856 58.249051 
L 18.816741 58.893867 
L 19.126919 59.0327 
L 19.566965 58.831146 
L 19.90344 58.368851 
L 20.492135 57.263212 
L 20.829683 56.904551 
L 21.221431 56.68189 
L 22.715977 56.212623 
L 25.369669 54.055335 
L 25.925629 53.884852 
L 26.27552 54.155371 
L 26.467637 52.804241 
L 26.642046 52.346382 
L 26.955981 51.999828 
L 27.309628 51.70118 
L 27.60317 51.382817 
L 27.807631 51.00389 
L 27.96916 50.551729 
L 28.056632 50.072821 
L 28.04107 49.610833 
L 27.883297 49.181255 
L 27.615513 48.865771 
L 26.893731 48.339042 
L 26.879296 48.31811 
L 26.633459 47.961614 
L 26.386068 47.78417 
L 26.112917 47.756004 
L 25.774297 47.822193 
L 25.476461 47.809519 
L 25.249461 47.658834 
L 25.033731 47.471537 
L 24.77668 47.346204 
L 24.240575 47.341979 
L 23.798383 47.557439 
L 23.460835 47.977105 
L 23.00308 49.05168 
L 22.731003 49.058722 
L 21.284755 47.563072 
L 21.060975 47.27016 
L 20.756699 46.459052 
L 20.746503 45.647997 
L 21.005164 44.911615 
L 21.510681 44.31888 
L 21.604593 44.126 
L 21.651817 43.924677 
L 21.653964 43.707871 
L 21.614252 43.482622 
L 21.431794 43.115193 
L 21.194062 42.35503 
L 21.049169 42.005934 
L 20.901593 41.856726 
L 20.713231 41.759601 
L 20.545263 41.621657 
L 20.461547 41.358442 
L 20.46906 41.129013 
L 20.491599 40.957296 
L 20.482476 40.795434 
L 20.391783 40.595572 
L 20.110046 40.340824 
L 19.820797 40.25497 
L 19.560526 40.122673 
L 19.079158 38.970057 
L 18.957341 38.574619 
L 18.939095 38.163714 
L 19.231564 37.451699 
L 20.17337 37.057716 
L 20.495892 36.53571 
L 20.789435 35.836453 
L 20.992822 35.463627 
L 21.128592 35.331382 
L 21.429648 35.403132 
L 21.624985 35.2118 
L 21.703871 34.861502 
L 21.653964 34.457758 
L 21.972729 33.723456 
L 21.974875 33.42806 
L 21.906185 32.911838 
L 21.921211 32.672724 
L 22.023173 32.422363 
L 22.490588 31.69522 
L 22.900582 30.686858 
L 23.193051 30.325444 
L 23.659929 30.121539 
L 25.42065 30.162319 
L 26.329184 30.047008 
L 26.8347 29.552028 
L 27.001059 28.926301 
L 27.459351 28.383564 
L 28.46609 27.48515 
L 28.546539 27.389881 
L 28.851935 27.028237 
L 29.065518 26.592429 
L 29.312373 26.224115 
L 30.30999 25.719458 
L 30.670613 25.328681 
L 31.001721 24.881694 
L 31.428887 24.46424 
L 31.871616 24.280818 
L 32.700191 24.384124 
L 33.147213 24.3525 
L 33.498176 24.083344 
L 33.70854 23.607594 
L 33.884022 22.516326 
L 34.126583 22.1095 
L 34.153952 21.79262 
L 34.101361 21.479966 
L 34.098678 21.088633 
L 34.251621 20.664997 
L 34.783969 20.124762 
L 35.004529 19.805129 
L 35.364615 19.579636 
L 36.40248 19.268448 
L 36.82911 19.234731 
L 37.260033 19.054907 
L 37.658221 18.582883 
L 37.920638 17.982345 
L 37.942641 17.423278 
L 37.111383 15.67392 
L 34.949791 12.520729 
L 33.676823 10.08 
L 34.090079 10.327585 
L 34.773769 10.906779 
L 35.514925 11.879541 
L 36.702297 14.231117 
L 37.481484 15.207498 
L 38.071367 15.604489 
L 39.085492 15.962788 
L 39.607767 16.304511 
L 40.746968 17.383937 
L 41.343612 17.806446 
L 41.959693 17.973463 
L 42.148151 18.391571 
L 42.187026 18.445771 
L 42.21576 18.664787 
L 42.29689 18.713458 
L 42.426191 18.69576 
L 43.59497 19.0077 
L 43.747089 19.197966 
L 44.019213 19.632713 
L 45.873372 21.703805 
L 45.395043 20.700295 
L 44.669943 19.773208 
L 43.800331 19.023187 
L 42.241113 18.193576 
L 40.329486 16.472611 
L 39.07028 15.583478 
L 38.899569 15.282693 
L 38.643502 14.530767 
L 38.691673 14.179149 
L 39.183524 14.077426 
L 39.525792 14.27424 
L 40.261033 15.037206 
L 41.106982 15.365629 
L 41.519393 15.731662 
L 42.187026 16.472611 
L 43.554405 17.532145 
L 45.45082 18.650407 
L 47.656543 20.711359 
L 51.451908 23.650228 
L 52.705198 24.877565 
L 53.010043 25.24722 
L 53.315339 25.770514 
L 54.436821 27.12491 
L 57.275587 31.269407 
L 58.34179 32.368595 
L 58.948741 33.514026 
L 59.479935 34.435579 
L 59.990104 35.803554 
L 60.331216 36.450998 
L 60.4083 36.277841 
L 60.20095 35.60651 
L 60.240353 35.309044 
L 60.526703 35.335815 
L 61.041438 35.56266 
L 61.478765 36.03716 
L 61.877827 36.536297 
L 62.219403 37.084777 
L 62.56053 37.757497 
L 62.996225 38.679432 
L 63.520846 39.516005 
L 63.850556 40.127004 
L 65.479798 42.230147 
L 65.856715 43.067008 
L 66.009679 43.971546 
L 65.802628 44.849543 
L 65.944606 44.646667 
L 65.837278 45.817406 
L 65.944606 49.314745 
L 65.577831 52.185183 
L 65.320919 52.621128 
L 64.859492 53.089258 
L 64.526521 53.4265 
L 64.213832 53.922394 
L 63.987344 54.463794 
L 63.850437 55.020749 
L 63.728742 56.068154 
L 63.236891 57.707109 
L 63.192945 58.280846 
L 63.236891 60.071017 
L 63.192945 60.351828 
L 62.998571 60.690363 
L 62.952936 60.993386 
L 62.952936 65.852657 
L 62.836311 66.441169 
L 62.775464 66.74876 
L 61.394563 69.32523 
L 61.481609 69.397423 
L 61.536541 69.496271 
L 62.17544 68.732157 
L 62.386716 68.564457 
L 62.450099 68.454509 
L 62.505875 68.299029 
L 62.589541 68.210183 
L 62.870116 68.372326 
L 63.048433 68.401201 
L 63.145046 68.394746 
L 63.148155 68.394538 
L 63.39239 68.376769 
L 63.236891 68.207962 
L 63.580848 67.115212 
L 63.662824 63.533273 
L 63.874945 62.387602 
L 66.065456 57.337578 
L 66.618999 56.356649 
L 67.376213 55.659834 
L 68.290616 55.360259 
L 69.167835 55.420173 
L 69.963923 55.737503 
L 71.204537 56.591888 
L 71.611877 57.08901 
L 71.714135 57.166687 
L 71.777518 57.264338 
L 71.949919 57.454095 
L 72.043726 57.514019 
L 72.127391 57.567285 
L 72.210211 57.446328 
L 72.282045 57.127848 
L 72.458672 57.05461 
L 74.241782 57.341448 
L 75.533401 58.158124 
L 75.94591 58.609086 
L 76.563968 59.217623 
L 77.341946 60.216198 
L 77.896598 60.757963 
L 79.014316 62.153051 
L 79.677626 63.029471 
L 79.86771 63.439574 
L 80.244231 63.652379 
L 80.698582 64.270287 
L 81.889823 65.527818 
L 82.547937 66.228633 
L 82.98657 66.723235 
L 83.26834 67.114483 
L 83.581489 67.526475 
L 83.988512 68.103186 
L 84.416057 69.44296 
L 85.046826 71.381489 
L 85.27422 71.763182 
L 85.339664 72.295717 
L 85.435405 72.512685 
L 85.61164 72.177337 
L 85.64768 71.927857 
L 85.681952 71.625032 
L 85.682052 71.16497 
L 85.948841 70.783787 
L 86.155091 70.625943 
L 86.230455 70.514047 
L 86.325209 70.498103 
L 86.734368 70.541746 
L 87.165931 70.747565 
L 87.511668 70.955464 
L 87.93005 71.22806 
L 88.581577 71.731094 
L 88.838841 71.918222 
L 89.556999 72.548655 
L 90.401115 73.358245 
L 92.111049 75.634408 
L 92.543755 76.458819 
L 92.945697 77.444103 
L 93.12993 78.556516 
L 93.193883 79.231476 
L 93.265933 79.555534 
L 93.372609 79.83449 
L 93.420715 80.068509 
L 93.437802 80.37001 
L 93.132465 79.797936 
L 92.977811 79.613439 
L 93.348228 80.590406 
L 93.472045 80.977594 
L 93.477871 81.566657 
L 93.512763 82.010959 
L 93.569775 82.989609 
L 93.228807 83.945251 
L 93.135001 84.451096 
L 92.984572 84.922492 
L 92.88934 85.242862 
L 92.877001 85.805372 
L 92.66804 86.464123 
L 92.618631 87.1068 
L 93.106325 88.158884 
L 93.065943 89.634896 
L 92.820631 90.494034 
L 92.564555 91.044119 
L 92.330461 91.661414 
L 91.276616 93.65471 
L 91.276616 93.843819 
L 91.084093 94.413688 
L 91.018622 94.848133 
L 90.99501 95.434473 
L 90.912367 96.07382 
L 90.698784 96.510426 
L 89.688825 97.84504 
L 89.519246 98.138259 
L 89.44841 98.438549 
L 89.531052 98.69221 
L 89.715657 98.69221 
L 90.015103 98.531817 
L 90.224393 98.598942 
L 90.355334 98.590463 
L 90.421877 98.666773 
L 90.454076 100.576764 
L 90.491641 100.792296 
L 90.595749 100.94211 
L 90.778207 101.009951 
L 90.957445 100.978857 
L 91.094826 100.86155 
L 91.149563 100.679937 
L 90.937053 100.348515 
L 90.829725 100.084231 
L 90.866216 99.82207 
L 91.041161 99.687812 
L 91.277284 99.672266 
L 91.4855 99.755647 
L 91.574583 99.923825 
L 91.591236 99.978572 
L 91.732356 100.4425 
L 92.424623 101.548445 
L 92.580249 102.096143 
L 92.478287 102.477069 
L 92.224992 102.794395 
L 91.897641 103.042464 
L 91.574583 103.218447 
L 91.461888 102.674248 
L 91.284797 102.390847 
L 91.021842 102.283425 
L 90.652633 102.266463 
L 90.418657 102.427597 
L 90.28235 102.805703 
L 90.143897 103.591622 
L 89.834791 104.513991 
L 89.770395 104.824284 
L 89.744636 105.18689 
L 89.838011 105.492954 
L 90.595749 106.392092 
L 90.387532 106.551142 
L 90.21688 106.528522 
L 90.054814 106.437333 
L 89.87343 106.392092 
L 89.578277 106.447229 
L 89.399039 106.538418 
L 89.244486 106.651521 
L 89.022316 106.766039 
L 88.499628 106.949127 
L 86.856432 107.171098 
L 86.506541 107.311775 
L 86.238221 107.342879 
L 86.100841 107.252393 
L 85.782076 106.855816 
L 85.670454 106.766039 
L 85.137033 106.802798 
L 84.660495 106.912368 
L 83.749278 107.342879 
L 82.933583 106.875609 
L 82.153306 106.934989 
L 81.456746 107.385295 
L 80.899712 108.090819 
L 80.587387 108.869897 
L 80.345898 109.118756 
L 79.837162 109.211372 
L 79.577428 109.143501 
L 79.377797 109.013415 
L 79.177093 108.937767 
L 78.916285 109.024726 
L 78.759586 109.218442 
L 78.336713 110.145335 
L 78.056586 110.601375 
L 77.677717 111.13591 
L 77.343926 111.764502 
L 77.201179 112.684449 
L 77.357879 113.06135 
L 77.704549 113.292585 
L 78.049073 113.595246 
L 78.327053 114.721074 
L 78.884087 115.657427 
L 79.056885 116.14118 
L 79.027907 116.660308 
L 78.861548 117.135598 
L 78.490192 117.841482 
L 78.161768 119.234931 
L 77.809731 120.010212 
L 77.427642 121.226953 
L 77.274163 122.133896 
L 77.077752 122.492581 
L 76.839483 122.841368 
L 76.634486 123.262325 
L 76.551843 123.763239 
L 76.617314 124.19412 
L 76.730008 124.610859 
L 76.787966 125.064399 
L 76.743961 125.753573 
L 76.609801 126.294172 
L 76.379045 126.759069 
L 74.570563 129.194816 
L 74.28185 129.777255 
L 74.245359 130.34414 
L 74.50724 131.523959 
L 74.77878 133.853343 
L 74.983777 134.820982 
L 75.487147 135.654868 
L 76.853436 137.07495 
L 77.19152 137.596707 
L 78.24441 139.630038 
L 78.686603 140.877592 
L 78.774612 141.403679 
L 78.830423 142.647074 
L 78.95385 143.225599 
L 79.186753 143.734033 
L 79.53235 144.024368 
L 80.547675 144.579556 
L 81.339758 145.248064 
L 81.414888 145.446354 
L 81.518996 145.926504 
L 81.684282 146.330885 
L 81.702528 146.428618 
L 81.72936 146.523518 
L 81.822735 146.660202 
L 81.923624 146.71686 
L 82.146867 146.75652 
L 82.190871 146.838673 
L 82.271367 146.889664 
L 82.7039 147.221821 
L 83.044131 147.729626 
L 83.014079 148.214068 
L 82.698534 149.022199 
L 82.701754 149.200686 
L 82.746832 149.539955 
L 82.735026 149.724111 
L 82.629844 150.219214 
L 82.616965 150.446582 
L 82.659896 150.733451 
L 82.750052 151.058572 
L 82.819815 151.198114 
L 82.921777 151.312864 
L 83.097795 151.409198 
L 83.683808 151.567866 
L 84.033698 151.825705 
L 84.03805 151.828905 
L 84.683034 152.303137 
L 84.909497 152.387432 
L 85.100541 152.34918 
L 85.303391 151.810829 
L 85.570639 151.880248 
L 85.83574 152.087795 
L 85.954874 152.2068 
L 86.122306 152.216717 
L 86.285445 152.256385 
L 86.408873 152.337847 
L 86.45717 152.47952 
L 86.52908 152.601359 
L 86.684706 152.485187 
L 86.831746 152.298887 
L 86.883264 152.2068 
L 87.470349 152.007043 
L 87.615243 151.766912 
L 87.592704 151.270364 
L 88.248479 151.645076 
L 88.803367 151.870331 
L 89.358254 151.745661 
L 90.015103 151.067072 
L 90.531352 152.468186 
L 90.595749 152.852832 
L 90.547451 153.804906 
L 90.517399 153.976339 
L 90.345674 154.31921 
L 90.391825 154.54732 
L 90.521693 154.772598 
L 90.595749 155.099892 
L 90.568917 155.425773 
L 90.457296 155.989698 
L 90.440123 156.325508 
L 90.487347 156.627315 
L 90.71059 157.260695 
L 90.652633 157.592269 
L 90.518473 157.810486 
L 90.479834 157.990445 
L 90.71059 158.212916 
L 90.918807 158.258261 
L 91.124877 158.170406 
L 91.306262 158.0117 
L 91.446862 157.840243 
L 91.4855 157.922429 
L 91.489794 157.946518 
L 91.503746 157.960688 
L 91.574583 158.010283 
L 91.257965 158.813738 
L 91.446862 159.31396 
L 91.805339 159.749004 
L 91.999603 160.35836 
L 92.022142 160.569512 
L 92.120884 160.916711 
L 92.14235 161.123615 
L 92.074733 161.23557 
L 91.783873 161.21573 
L 91.71733 161.312097 
L 91.753821 161.643716 
L 91.813925 161.88322 
L 91.826804 162.098634 
L 91.71733 162.350897 
L 91.547751 162.708037 
L 91.812852 162.909284 
L 92.502973 163.005656 
L 92.602788 163.412407 
L 92.376325 163.797905 
L 92.052194 164.138054 
L 91.859003 164.410175 
L 92.134837 165.82893 
L 92.219626 166.112405 
L 92.385985 166.22863 
L 92.452528 166.486596 
L 92.544831 166.743145 
L 92.793832 166.860791 
L 92.988096 166.802677 
L 93.40453 166.546126 
L 93.650312 166.486596 
L 93.795205 166.666606 
L 93.436729 167.654552 
L 93.574109 168.171924 
L 93.642799 168.109556 
L 94.353312 167.967809 
L 94.554016 168.096798 
L 94.506792 168.394468 
L 94.364045 168.741752 
L 94.282476 169.013912 
L 94.390877 169.372543 
L 94.927518 170.121002 
L 95.133589 170.624236 
L 95.25809 171.704443 
L 95.423375 171.866052 
L 95.854835 171.544253 
L 95.995435 171.894404 
L 95.939624 172.217624 
L 95.840882 172.576288 
L 95.854835 173.042698 
L 95.955723 173.290791 
L 96.480559 174.09746 
L 96.518124 174.297358 
L 96.408649 175.221723 
L 96.542809 175.47692 
L 96.835815 175.34365 
L 97.259762 174.932502 
L 97.432561 175.186279 
L 97.404655 175.485426 
L 97.302693 175.788829 
L 97.259762 176.055373 
L 97.326842 176.432506 
L 97.425048 176.673533 
L 97.769035 177.094625 
L 97.869387 177.361177 
L 97.832358 177.646164 
L 97.698735 178.040327 
L 97.857044 178.538 
L 98.600292 179.394409 
L 98.832121 180.006951 
L 98.820852 180.995263 
L 98.909934 181.240573 
L 99.102589 181.368191 
L 99.581809 181.485883 
L 99.766951 181.616338 
L 100.030442 182.149506 
L 100.234902 183.359086 
L 100.392675 183.957507 
L 100.544007 184.775742 
L 102.543533 188.516845 
L 103.112373 188.825309 
L 105.148391 188.869274 
L 105.931351 189.408204 
L 106.047265 189.642215 
L 106.194841 189.830134 
L 106.369787 189.969124 
L 106.805539 190.154207 
L 106.987997 190.348511 
L 107.114645 190.614438 
z
" clip-path="url(#p56bd8e1111)" style="stroke: #000000; stroke-linejoin: miter"/>
   </g>
   <g id="line2d_1">
    <path d="M 107.182798 190.932843 
L 106.213087 191.415774 
L 105.58146 191.892327 
L 105.250353 191.924949 
L 104.636435 191.400173 
L 104.30801 191.12644 
L 103.906603 191.063326 
L 103.556712 191.249833 
L 102.984653 191.742695 
L 101.869512 191.718583 
L 100.725392 192.801479 
L 100.439899 192.800061 
L 98.690448 192.344064 
L 98.042185 191.57817 
L 96.188626 191.565406 
L 95.642325 191.186009 
L 95.25809 190.755557 
L 95.012308 190.189664 
L 94.882441 189.408204 
L 94.250277 188.741633 
L 93.244611 189.269925 
L 91.468328 190.742792 
L 91.048674 190.641385 
L 90.297376 190.02089 
L 89.786494 189.957778 
L 89.328202 190.185409 
L 87.997331 191.683126 
L 87.707545 191.82283 
L 87.500401 192.066781 
L 86.767349 194.387925 
L 85.386034 196.698536 
L 84.765677 197.318404 
L 83.795429 197.643944 
L 83.157899 197.669477 
L 81.402008 197.244644 
L 80.66037 197.194997 
L 79.997081 197.429045 
L 78.320613 198.40851 
L 77.26665 199.143297 
L 76.917833 199.1206 
L 75.962611 198.725545 
L 75.83811 198.925555 
L 75.921826 200.67106 
L 75.784446 201.17465 
L 75.085739 202.591815 
L 74.215307 202.807443 
L 73.233253 202.764885 
L 72.564598 202.530816 
L 72.420778 202.303131 
L 72.107379 201.439922 
L 71.761782 201.198765 
L 71.543906 201.245578 
L 71.088834 201.515816 
L 70.239867 201.398784 
L 69.437052 200.990946 
L 68.994859 200.275994 
L 68.757664 200.490904 
L 68.168431 201.754137 
L 67.545927 202.210213 
L 67.515875 202.482583 
L 67.626423 203.323818 
L 67.064023 203.822464 
L 65.230175 204.323441 
L 64.982928 204.732521 
L 65.121381 205.300693 
L 65.646217 206.951326 
L 65.659096 207.61528 
L 65.523862 208.093387 
L 64.873453 209.444021 
L 64.702801 209.455371 
L 63.991215 208.953136 
L 63.5941 209.293634 
L 61.159894 209.065217 
L 60.921626 209.306403 
L 60.015775 210.879807 
L 59.61866 211.255783 
L 58.704223 211.640274 
L 58.329648 211.68 
L 57.955072 211.600548 
L 57.537565 211.366448 
L 57.00307 210.801775 
L 56.388079 208.978674 
L 55.57775 208.266471 
L 54.651507 207.788362 
L 51.185877 206.976863 
L 49.483651 206.144802 
L 49.223916 205.68586 
L 48.605705 204.071434 
L 48.228983 203.781324 
L 47.850114 202.378316 
L 47.66068 202.340014 
L 47.238343 202.494641 
L 46.909382 202.288945 
L 46.579884 201.626465 
L 46.224627 201.537095 
L 46.036803 201.24416 
L 45.436838 199.998669 
L 44.788038 199.319193 
L 44.438685 198.726963 
L 43.859112 197.48011 
L 43.428189 197.001377 
L 42.98707 196.819105 
L 41.596632 196.967334 
L 41.195761 196.629032 
L 40.707417 195.763783 
L 41.039598 195.17372 
L 41.475888 194.059568 
L 41.400221 193.684408 
L 41.268207 193.729796 
L 41.008473 193.64753 
L 39.985634 193.226276 
L 39.564371 193.425555 
L 39.311613 193.411372 
L 39.123252 193.114225 
L 38.990701 191.947642 
L 39.079247 191.198774 
L 39.43343 190.377585 
L 39.454359 190.12726 
L 39.439333 189.174903 
L 39.572957 188.495572 
L 39.308393 186.971014 
L 39.608375 186.215136 
L 39.598716 185.935053 
L 39.409281 185.117505 
L 39.393182 184.093642 
L 39.508024 183.032935 
L 39.477435 182.091368 
L 39.029876 181.427746 
L 38.842588 181.362519 
L 38.24155 181.297292 
L 37.983425 181.120045 
L 37.347505 180.399721 
L 36.124499 179.462469 
L 35.910379 178.937844 
L 35.944188 178.688295 
L 36.158308 178.230321 
L 36.048833 176.741588 
L 35.368908 174.430624 
L 35.343686 173.881969 
L 35.086098 173.307803 
L 34.715279 173.071052 
L 34.838707 172.498317 
L 34.186151 170.815609 
L 34.111021 170.286855 
L 34.243035 165.809087 
L 34.727085 162.980146 
L 34.653029 161.411299 
L 34.956231 160.072103 
L 35.62113 158.759891 
L 35.880864 158.605433 
L 35.925942 158.237006 
L 35.741874 157.779312 
L 35.807881 157.704211 
L 36.122889 157.544091 
L 35.900183 157.106245 
L 35.839543 156.927708 
L 35.950628 156.359514 
L 36.238804 155.934439 
L 36.612843 154.421221 
L 37.150558 153.2474 
L 37.436051 152.30172 
L 37.709738 152.245051 
L 37.830482 151.928416 
L 37.674856 151.382281 
L 37.767159 150.059137 
L 37.407609 150.231255 
L 37.466103 149.748193 
L 37.822969 148.614235 
L 37.652854 147.918727 
L 36.957367 146.750854 
L 36.960587 145.946334 
L 37.484349 145.190702 
L 39.189795 144.400394 
L 39.977048 143.438743 
L 40.629604 142.972802 
L 40.768058 142.42119 
L 40.755715 141.851889 
L 40.92905 141.163646 
L 41.192541 140.815991 
L 42.040434 140.315406 
L 42.449355 139.898377 
L 42.515899 139.511092 
L 42.368322 138.43848 
L 42.49658 137.884846 
L 42.798709 137.246272 
L 43.185627 136.725939 
L 43.890237 136.350032 
L 43.882724 135.869362 
L 43.732465 135.643542 
L 43.486146 135.527447 
L 42.497653 135.288889 
L 42.426279 134.422454 
L 42.301242 134.288669 
L 42.008772 133.587905 
L 41.305236 132.725781 
L 41.106678 132.300394 
L 41.172149 131.657727 
L 41.402904 131.202634 
L 41.461398 130.812663 
L 41.021352 130.359711 
L 40.128918 129.979662 
L 39.78815 129.650575 
L 39.50373 128.632206 
L 39.605692 127.75046 
L 39.834838 127.251575 
L 39.791907 127.069714 
L 39.544515 126.63453 
L 39.766148 126.122226 
L 40.476125 125.152844 
L 40.618871 124.044125 
L 40.541595 123.954269 
L 40.062911 123.819841 
L 39.555248 123.102431 
L 38.344048 122.208887 
L 38.066605 121.728526 
L 37.899173 121.972596 
L 37.721544 122.033437 
L 36.777592 121.660611 
L 36.751833 121.209975 
L 36.484049 121.20856 
L 35.887304 121.492948 
L 35.086098 120.629892 
L 34.641223 120.689314 
L 34.433542 121.097494 
L 34.175418 121.04373 
L 33.682781 120.8216 
L 32.736682 120.946106 
L 32.516123 120.244358 
L 32.28966 120.091562 
L 32.064807 120.078829 
L 31.78629 120.731759 
L 31.353221 120.657481 
L 31.02265 120.434648 
L 30.789747 120.030019 
L 30.688859 119.525658 
L 30.757549 119.005748 
L 31.312436 118.229799 
L 32.096469 118.092578 
L 32.362106 117.589681 
L 32.541881 116.676575 
L 33.313572 115.0966 
L 33.48798 114.101578 
L 33.395678 112.912851 
L 33.687611 111.695208 
L 33.739665 110.054836 
L 34.108338 108.24635 
L 34.127657 107.191598 
L 34.496866 105.535365 
L 34.463594 104.755016 
L 32.967975 103.68421 
L 32.21775 102.777433 
L 31.376833 100.448153 
L 30.44576 100.892643 
L 30.146851 100.542845 
L 29.952587 99.899799 
L 29.679973 99.796632 
L 28.812224 100.091297 
L 28.427452 100.340036 
L 27.194786 101.805685 
L 26.739714 101.821939 
L 25.826887 101.407813 
L 25.393818 101.437494 
L 25.235509 101.614168 
L 24.78795 102.339963 
L 24.63447 102.327242 
L 24.195498 101.855861 
L 23.781747 101.746321 
L 22.30974 101.916638 
L 21.369544 101.390853 
L 19.674294 101.308877 
L 18.746441 101.576713 
L 12.424268 92.458476 
L 5.459199 82.355573 
L 5.103943 81.25515 
L 5.320746 80.954471 
L 6.321582 80.129397 
L 7.295586 78.098311 
L 7.748512 76.840133 
L 8.024345 76.644677 
L 9.05416 76.333505 
L 9.304235 76.140172 
L 9.506549 75.781032 
L 9.729792 75.08112 
L 9.997039 74.774214 
L 10.818637 74.671208 
L 10.999485 72.828505 
L 10.893767 72.470855 
L 10.764973 72.225373 
L 10.662474 72.032094 
L 10.296485 71.734421 
L 10.18701 71.484719 
L 10.001332 70.42036 
L 10.229405 68.725588 
L 10.456941 68.169876 
L 10.381811 67.497832 
L 10.155885 67.090249 
L 9.794725 65.865455 
L 8.98869 64.999631 
L 8.940929 64.441246 
L 9.090115 63.502898 
L 9.799018 61.519958 
L 10.646912 60.228698 
L 11.03866 60.128617 
L 11.881187 60.337238 
L 12.071695 59.840357 
L 12.955543 60.103244 
L 13.338169 59.723364 
L 14.286414 59.877006 
L 14.831105 59.682487 
L 15.43107 58.790976 
L 15.393505 58.314589 
L 15.142357 57.62752 
L 15.263101 57.517593 
L 15.533032 57.547189 
L 16.13246 57.84315 
L 16.466788 58.207474 
L 16.909517 58.284286 
L 17.631836 58.10177 
L 18.056856 58.249051 
L 19.126919 59.0327 
L 19.566965 58.831146 
L 19.90344 58.368851 
L 20.492135 57.263212 
L 20.829683 56.904551 
L 21.221431 56.68189 
L 22.715977 56.212623 
L 25.369669 54.055335 
L 25.925629 53.884852 
L 26.27552 54.155371 
L 26.642046 52.346382 
L 27.807631 51.00389 
L 28.056632 50.072821 
L 28.04107 49.610833 
L 27.883297 49.181255 
L 27.615513 48.865771 
L 26.879296 48.31811 
L 26.386068 47.78417 
L 25.774297 47.822193 
L 25.476461 47.809519 
L 24.77668 47.346204 
L 24.240575 47.341979 
L 23.798383 47.557439 
L 23.460835 47.977105 
L 23.00308 49.05168 
L 22.731003 49.058722 
L 21.060975 47.27016 
L 20.756699 46.459052 
L 20.746503 45.647997 
L 21.005164 44.911615 
L 21.604593 44.126 
L 21.653964 43.707871 
L 21.614252 43.482622 
L 21.431794 43.115193 
L 21.049169 42.005934 
L 20.461547 41.358442 
L 20.391783 40.595572 
L 20.110046 40.340824 
L 19.560526 40.122673 
L 18.957341 38.574619 
L 18.939095 38.163714 
L 19.231564 37.451699 
L 20.17337 37.057716 
L 20.495892 36.53571 
L 20.992822 35.463627 
L 21.128592 35.331382 
L 21.429648 35.403132 
L 21.624985 35.2118 
L 21.703871 34.861502 
L 21.653964 34.457758 
L 21.972729 33.723456 
L 22.023173 32.422363 
L 22.490588 31.69522 
L 22.900582 30.686858 
L 23.193051 30.325444 
L 23.659929 30.121539 
L 25.42065 30.162319 
L 26.329184 30.047008 
L 26.8347 29.552028 
L 27.001059 28.926301 
L 27.459351 28.383564 
L 28.851935 27.028237 
L 29.312373 26.224115 
L 30.30999 25.719458 
L 31.428887 24.46424 
L 31.871616 24.280818 
L 33.147213 24.3525 
L 33.498176 24.083344 
L 33.70854 23.607594 
L 33.884022 22.516326 
L 34.126583 22.1095 
L 34.101361 21.479966 
L 34.098678 21.088633 
L 34.251621 20.664997 
L 35.364615 19.579636 
L 37.260033 19.054907 
L 37.658221 18.582883 
L 37.920638 17.982345 
L 37.942641 17.423278 
L 37.111383 15.67392 
L 34.949791 12.520729 
L 33.676823 10.08 
L 34.090079 10.327585 
L 34.773769 10.906779 
L 35.514925 11.879541 
L 36.702297 14.231117 
L 37.481484 15.207498 
L 38.071367 15.604489 
L 39.085492 15.962788 
L 39.607767 16.304511 
L 41.343612 17.806446 
L 41.959693 17.973463 
L 42.29689 18.713458 
L 42.426191 18.69576 
L 43.59497 19.0077 
L 45.873372 21.703805 
L 45.395043 20.700295 
L 44.669943 19.773208 
L 43.800331 19.023187 
L 42.241113 18.193576 
L 40.329486 16.472611 
L 39.07028 15.583478 
L 38.899569 15.282693 
L 38.643502 14.530767 
L 38.691673 14.179149 
L 39.183524 14.077426 
L 39.525792 14.27424 
L 40.261033 15.037206 
L 41.106982 15.365629 
L 43.554405 17.532145 
L 45.45082 18.650407 
L 47.656543 20.711359 
L 51.451908 23.650228 
L 53.010043 25.24722 
L 53.315339 25.770514 
L 54.436821 27.12491 
L 57.275587 31.269407 
L 58.34179 32.368595 
L 59.479935 34.435579 
L 60.331216 36.450998 
L 60.4083 36.277841 
L 60.20095 35.60651 
L 60.240353 35.309044 
L 60.526703 35.335815 
L 61.041438 35.56266 
L 61.877827 36.536297 
L 62.56053 37.757497 
L 62.996225 38.679432 
L 63.850556 40.127004 
L 65.479798 42.230147 
L 65.856715 43.067008 
L 66.009679 43.971546 
L 65.802628 44.849543 
L 65.944606 44.646667 
L 65.837278 45.817406 
L 65.944606 49.314745 
L 65.577831 52.185183 
L 65.320919 52.621128 
L 64.526521 53.4265 
L 63.987344 54.463794 
L 63.850437 55.020749 
L 63.728742 56.068154 
L 63.236891 57.707109 
L 63.192945 58.280846 
L 63.192945 60.351828 
L 62.998571 60.690363 
L 62.952936 60.993386 
L 62.952936 65.852657 
L 62.775464 66.74876 
L 61.481609 69.397423 
L 61.536541 69.496271 
L 62.589541 68.210183 
L 63.048433 68.401201 
L 63.39239 68.376769 
L 63.236891 68.207962 
L 63.580848 67.115212 
L 63.662824 63.533273 
L 63.874945 62.387602 
L 66.065456 57.337578 
L 66.618999 56.356649 
L 67.376213 55.659834 
L 68.290616 55.360259 
L 69.167835 55.420173 
L 69.963923 55.737503 
L 71.204537 56.591888 
L 72.127391 57.567285 
L 72.210211 57.446328 
L 72.282045 57.127848 
L 72.458672 57.05461 
L 74.241782 57.341448 
L 75.533401 58.158124 
L 77.896598 60.757963 
L 79.677626 63.029471 
L 79.86771 63.439574 
L 80.244231 63.652379 
L 80.698582 64.270287 
L 83.26834 67.114483 
L 83.988512 68.103186 
L 85.046826 71.381489 
L 85.27422 71.763182 
L 85.435405 72.512685 
L 85.64768 71.927857 
L 85.682052 71.16497 
L 86.230455 70.514047 
L 86.734368 70.541746 
L 87.93005 71.22806 
L 89.556999 72.548655 
L 90.401115 73.358245 
L 92.111049 75.634408 
L 92.945697 77.444103 
L 93.437802 80.37001 
L 92.977811 79.613439 
L 93.472045 80.977594 
L 93.569775 82.989609 
L 92.984572 84.922492 
L 92.88934 85.242862 
L 92.877001 85.805372 
L 92.66804 86.464123 
L 92.618631 87.1068 
L 93.106325 88.158884 
L 93.065943 89.634896 
L 92.564555 91.044119 
L 92.330461 91.661414 
L 91.276616 93.843819 
L 91.018622 94.848133 
L 90.912367 96.07382 
L 90.698784 96.510426 
L 89.519246 98.138259 
L 89.44841 98.438549 
L 89.531052 98.69221 
L 89.715657 98.69221 
L 90.015103 98.531817 
L 90.421877 98.666773 
L 90.491641 100.792296 
L 90.595749 100.94211 
L 90.957445 100.978857 
L 91.149563 100.679937 
L 90.829725 100.084231 
L 90.866216 99.82207 
L 91.041161 99.687812 
L 91.4855 99.755647 
L 92.424623 101.548445 
L 92.580249 102.096143 
L 92.478287 102.477069 
L 91.897641 103.042464 
L 91.574583 103.218447 
L 91.461888 102.674248 
L 91.284797 102.390847 
L 91.021842 102.283425 
L 90.652633 102.266463 
L 90.418657 102.427597 
L 90.28235 102.805703 
L 90.143897 103.591622 
L 89.770395 104.824284 
L 89.744636 105.18689 
L 89.838011 105.492954 
L 90.595749 106.392092 
L 90.387532 106.551142 
L 89.578277 106.447229 
L 88.499628 106.949127 
L 86.100841 107.252393 
L 85.670454 106.766039 
L 84.660495 106.912368 
L 83.749278 107.342879 
L 82.933583 106.875609 
L 82.153306 106.934989 
L 81.456746 107.385295 
L 80.899712 108.090819 
L 80.587387 108.869897 
L 80.345898 109.118756 
L 79.837162 109.211372 
L 78.916285 109.024726 
L 78.759586 109.218442 
L 78.056586 110.601375 
L 77.343926 111.764502 
L 77.201179 112.684449 
L 77.357879 113.06135 
L 78.049073 113.595246 
L 78.327053 114.721074 
L 79.056885 116.14118 
L 79.027907 116.660308 
L 78.861548 117.135598 
L 78.490192 117.841482 
L 78.161768 119.234931 
L 77.809731 120.010212 
L 77.427642 121.226953 
L 77.274163 122.133896 
L 76.634486 123.262325 
L 76.551843 123.763239 
L 76.743961 125.753573 
L 76.609801 126.294172 
L 76.379045 126.759069 
L 74.570563 129.194816 
L 74.28185 129.777255 
L 74.245359 130.34414 
L 74.50724 131.523959 
L 74.983777 134.820982 
L 75.487147 135.654868 
L 76.853436 137.07495 
L 77.19152 137.596707 
L 78.24441 139.630038 
L 78.774612 141.403679 
L 78.95385 143.225599 
L 79.186753 143.734033 
L 79.53235 144.024368 
L 80.547675 144.579556 
L 81.414888 145.446354 
L 81.72936 146.523518 
L 81.923624 146.71686 
L 82.271367 146.889664 
L 82.7039 147.221821 
L 83.044131 147.729626 
L 83.014079 148.214068 
L 82.701754 149.200686 
L 82.735026 149.724111 
L 82.616965 150.446582 
L 82.819815 151.198114 
L 83.097795 151.409198 
L 83.683808 151.567866 
L 84.909497 152.387432 
L 85.100541 152.34918 
L 85.303391 151.810829 
L 85.570639 151.880248 
L 86.122306 152.216717 
L 86.408873 152.337847 
L 86.52908 152.601359 
L 87.615243 151.766912 
L 87.592704 151.270364 
L 88.803367 151.870331 
L 89.358254 151.745661 
L 90.015103 151.067072 
L 90.595749 152.852832 
L 90.517399 153.976339 
L 90.345674 154.31921 
L 90.568917 155.425773 
L 90.440123 156.325508 
L 90.487347 156.627315 
L 90.71059 157.260695 
L 90.479834 157.990445 
L 90.71059 158.212916 
L 90.918807 158.258261 
L 91.306262 158.0117 
L 91.446862 157.840243 
L 91.489794 157.946518 
L 91.574583 158.010283 
L 91.257965 158.813738 
L 91.446862 159.31396 
L 91.805339 159.749004 
L 92.14235 161.123615 
L 92.074733 161.23557 
L 91.71733 161.312097 
L 91.826804 162.098634 
L 91.547751 162.708037 
L 91.812852 162.909284 
L 92.502973 163.005656 
L 92.602788 163.412407 
L 92.052194 164.138054 
L 91.859003 164.410175 
L 92.219626 166.112405 
L 92.385985 166.22863 
L 92.544831 166.743145 
L 92.793832 166.860791 
L 92.988096 166.802677 
L 93.650312 166.486596 
L 93.795205 166.666606 
L 93.436729 167.654552 
L 93.574109 168.171924 
L 93.642799 168.109556 
L 94.353312 167.967809 
L 94.554016 168.096798 
L 94.364045 168.741752 
L 94.282476 169.013912 
L 94.390877 169.372543 
L 94.927518 170.121002 
L 95.133589 170.624236 
L 95.25809 171.704443 
L 95.423375 171.866052 
L 95.854835 171.544253 
L 95.995435 171.894404 
L 95.854835 173.042698 
L 95.955723 173.290791 
L 96.518124 174.297358 
L 96.408649 175.221723 
L 96.542809 175.47692 
L 96.835815 175.34365 
L 97.259762 174.932502 
L 97.432561 175.186279 
L 97.326842 176.432506 
L 97.425048 176.673533 
L 97.869387 177.361177 
L 97.698735 178.040327 
L 97.857044 178.538 
L 98.600292 179.394409 
L 98.832121 180.006951 
L 98.909934 181.240573 
L 99.102589 181.368191 
L 99.766951 181.616338 
L 100.030442 182.149506 
L 100.544007 184.775742 
L 102.543533 188.516845 
L 103.112373 188.825309 
L 105.148391 188.869274 
L 105.931351 189.408204 
L 106.194841 189.830134 
L 106.369787 189.969124 
L 106.987997 190.348511 
L 107.182798 190.932843 
L 107.182798 190.932843 
" clip-path="url(#p56bd8e1111)" style="fill: none; stroke: #000000; stroke-width: 0.5; stroke-linecap: square"/>
   </g>
  </g>
 </g>
 <defs>
  <clipPath id="p56bd8e1111">
   <rect x="0" y="-0" width="112.286741" height="221.76"/>
  </clipPath>
 </defs>
</svg>
