<?xml version="1.0" encoding="utf-8" standalone="no"?>
<!DOCTYPE svg PUBLIC "-//W3C//DTD SVG 1.1//EN"
  "http://www.w3.org/Graphics/SVG/1.1/DTD/svg11.dtd">
<svg xmlns:xlink="http://www.w3.org/1999/xlink" width="223.2pt" height="188.220221pt" viewBox="0 0 223.2 188.220221" xmlns="http://www.w3.org/2000/svg" version="1.1">
 <metadata>
  <rdf:RDF xmlns:dc="http://purl.org/dc/elements/1.1/" xmlns:cc="http://creativecommons.org/ns#" xmlns:rdf="http://www.w3.org/1999/02/22-rdf-syntax-ns#">
   <cc:Work>
    <dc:type rdf:resource="http://purl.org/dc/dcmitype/StillImage"/>
    <dc:date>2026-04-26T19:22:04.722502</dc:date>
    <dc:format>image/svg+xml</dc:format>
    <dc:creator>
     <cc:Agent>
      <dc:title>Matplotlib v3.10.9, https://matplotlib.org/</dc:title>
     </cc:Agent>
    </dc:creator>
   </cc:Work>
  </rdf:RDF>
 </metadata>
 <defs>
  <style type="text/css">*{stroke-linejoin: round; stroke-linecap: butt}</style>
 </defs>
 <g id="figure_1">
  <g id="patch_1">
   <path d="M 0 188.220221 
L 223.2 188.220221 
L 223.2 0 
L 0 0 
z
" style="fill: #ffffff"/>
  </g>
  <g id="axes_1">
   <g id="patch_2">
    <path d="M 204.630435 29.443001 
L 205.258547 31.884946 
L 205.512404 33.45615 
L 205.441648 34.866182 
L 205.324771 37.19561 
L 205.65221 39.212563 
L 207.642599 44.773814 
L 208.49247 51.722023 
L 208.444642 55.691272 
L 207.631562 57.733737 
L 207.237899 58.241524 
L 206.336521 60.953085 
L 205.659568 61.582789 
L 203.739081 62.879053 
L 203.271836 63.439883 
L 203.625029 65.214451 
L 204.894317 67.329497 
L 205.194198 67.692331 
L 207.543264 70.534823 
L 212.155936 73.191101 
L 213.054545 73.708634 
L 212.730785 79.018219 
L 212.366555 80.548408 
L 211.468856 82.124781 
L 209.055371 84.177764 
L 207.977397 85.32636 
L 205.847202 88.869372 
L 202.760443 92.931386 
L 201.825953 93.617707 
L 198.172613 94.787748 
L 196.943796 95.7736 
L 197.153504 97.319305 
L 198.43015 97.082026 
L 200.199794 96.363299 
L 201.866423 96.430102 
L 202.517622 97.056686 
L 203.525694 99.581708 
L 204.176893 100.491832 
L 205.806732 102.266154 
L 206.336521 103.072732 
L 206.730184 104.722892 
L 206.803766 108.339577 
L 207.377705 111.84643 
L 207.271011 113.522901 
L 206.921497 115.171877 
L 206.435857 116.680325 
L 205.582307 118.34348 
L 204.585273 119.319311 
L 202.675286 120.7286 
L 202.18536 121.090115 
L 202.002549 121.225012 
L 201.031269 122.521761 
L 199.56699 125.501002 
L 198.639858 126.689627 
L 195.884217 127.813711 
L 190.531137 126.634232 
L 187.885869 127.301285 
L 186.66073 128.402329 
L 187.293534 129.863584 
L 193.731948 137.744712 
L 194.191834 138.592406 
L 194.368431 139.93449 
L 193.989484 140.424229 
L 193.456016 140.789233 
L 193.187442 141.771089 
L 193.614217 143.425367 
L 194.681154 144.127795 
L 197.458869 144.961968 
L 198.058561 145.597448 
L 199.140215 147.508665 
L 199.717832 148.306037 
L 202.40357 150.448739 
L 206.229827 152.173281 
L 207.245257 152.975511 
L 207.900136 153.676051 
L 208.054658 153.935004 
L 207.216511 155.660024 
L 207.174005 155.747511 
L 204.011334 162.258435 
L 203.448433 163.940301 
L 203.249762 165.703326 
L 203.356456 166.550203 
L 204.121707 169.116558 
L 204.290945 170.118682 
L 204.243117 171.609254 
L 204.401318 174.211144 
L 204.143782 175.762292 
L 203.292057 178.472246 
L 202.127493 177.520488 
L 197.153475 169.755372 
L 194.980782 167.404703 
L 192.480737 165.524416 
L 186.880983 163.225373 
L 184.563444 161.775434 
L 182.251699 160.711743 
L 179.479343 160.704458 
L 173.795578 161.848292 
L 166.391041 161.764505 
L 156.01426 161.928436 
L 150.426094 163.145223 
L 148.995013 162.241732 
L 148.137524 161.855578 
L 147.75513 162.205302 
L 148.236019 165.651948 
L 147.563933 166.530124 
L 146.732516 166.551988 
L 144.78868 165.651948 
L 143.699437 165.415104 
L 135.327327 166.336994 
L 133.609451 166.205813 
L 133.7514 166.61758 
L 133.957082 167.627 
L 134.096134 168.038803 
L 133.038757 167.947695 
L 132.615806 167.809212 
L 132.111741 167.371906 
L 130.141833 168.895242 
L 126.213604 168.432395 
L 124.290047 169.318012 
L 122.418634 168.020582 
L 119.904104 166.839865 
L 117.209965 165.983536 
L 109.701139 164.981506 
L 107.818138 165.090816 
L 107.227166 164.981506 
L 105.155865 163.400249 
L 104.533027 163.145223 
L 95.077467 161.316435 
L 90.830577 161.841006 
L 90.172975 161.622433 
L 90.546678 160.456759 
L 91.491075 160.012368 
L 94.063544 160.037866 
L 94.063544 159.480573 
L 89.306795 158.868666 
L 83.541917 158.923299 
L 81.864598 159.480573 
L 79.573131 161.105155 
L 78.704054 161.316435 
L 78.136257 160.959445 
L 77.522109 159.316667 
L 77.000663 158.814032 
L 76.050471 159.502427 
L 75.534819 161.250865 
L 75.007579 162.562319 
L 74.042903 161.928436 
L 73.599674 161.928436 
L 72.759566 162.569606 
L 72.052717 162.110584 
L 71.739849 160.95216 
L 72.09617 159.480573 
L 71.085144 159.841172 
L 70.201582 162.183444 
L 69.178968 163.145223 
L 69.228216 161.939365 
L 69.462867 160.864735 
L 70.152335 158.814032 
L 69.593228 159.356733 
L 68.79078 160.624319 
L 68.211396 161.316435 
L 68.153457 161.097869 
L 67.7363 160.901162 
L 66.971512 160.704458 
L 66.716583 160.85745 
L 66.745552 161.214437 
L 66.829563 161.615147 
L 66.751346 161.928436 
L 63.64005 164.901347 
L 58.547258 167.729039 
L 57.25523 169.263343 
L 56.015346 171.712703 
L 59.010766 175.544221 
L 59.459789 176.94071 
L 59.821904 178.701989 
L 59.650986 179.391237 
L 58.709485 179.664757 
L 53.993293 179.642875 
L 53.303826 179.504291 
L 52.611461 179.106782 
L 52.092911 178.483186 
L 51.820601 177.163138 
L 47.266636 169.318012 
L 47.040676 169.113915 
L 46.501848 168.829641 
L 46.249816 168.651062 
L 45.997784 168.31213 
L 45.939845 168.038803 
L 45.905082 167.754548 
L 45.713885 167.371906 
L 44.387094 165.885152 
L 37.492415 159.80839 
L 36.255429 159.087201 
L 34.082736 158.650133 
L 33.170205 158.198509 
L 32.39383 157.521096 
L 32.06358 156.676191 
L 31.91294 155.722086 
L 31.510268 155.430767 
L 30.904811 155.383429 
L 30.163198 155.146737 
L 28.326548 154.291035 
L 27.729782 153.872304 
L 27.248893 154.534997 
L 25.90472 153.959691 
L 24.479434 154.680647 
L 22.97593 155.794916 
L 21.411591 156.370289 
L 20.099285 156.042542 
L 18.474111 155.255979 
L 17.092278 154.33473 
L 16.509996 153.591943 
L 15.901642 152.590692 
L 13.224885 150.970621 
L 12.619427 149.321594 
L 12.460097 147.574469 
L 11.993692 146.337039 
L 10.145455 143.545899 
L 12.619427 139.220063 
L 12.405055 138.863571 
L 12.092187 137.997838 
L 13.395803 136.892099 
L 14.233014 132.753542 
L 15.293288 131.837243 
L 15.487382 131.371842 
L 15.365711 130.324741 
L 15.08471 129.205001 
L 14.806605 128.510658 
L 14.624099 127.561893 
L 15.174514 126.733135 
L 17.587652 125.053943 
L 20.751093 123.527563 
L 22.098162 123.244109 
L 23.740718 123.723804 
L 24.467846 123.694731 
L 24.769126 122.967928 
L 25.122551 122.350172 
L 25.913411 122.077641 
L 26.750622 122.015868 
L 30.748377 122.284764 
L 33.581568 123.011535 
L 42.898075 127.961749 
L 46.997222 128.179856 
L 47.144966 128.314357 
L 47.608473 128.935985 
L 47.706969 129.121388 
L 47.869197 129.815758 
L 48.266075 129.764861 
L 48.761449 129.459481 
L 49.207575 129.401313 
L 51.275979 130.691945 
L 52.194304 131.084609 
L 55.395405 131.226407 
L 56.154399 131.400929 
L 56.988713 131.837243 
L 58.521185 133.408074 
L 58.973106 133.724441 
L 59.706027 133.789897 
L 60.059452 133.538983 
L 60.297 133.22262 
L 60.676497 133.058987 
L 61.386243 133.197166 
L 62.266908 133.713531 
L 62.904231 133.724441 
L 63.33877 133.484438 
L 64.248404 132.680818 
L 64.54389 132.502645 
L 64.630798 132.288113 
L 65.534638 130.95372 
L 66.01263 130.666495 
L 66.577531 130.637409 
L 67.162709 130.695581 
L 67.724712 130.670131 
L 70.951886 129.554002 
L 71.878901 129.401313 
L 74.416606 130.157502 
L 74.457163 131.691804 
L 73.014495 132.85172 
L 71.125701 132.502645 
L 71.125701 133.058987 
L 69.590331 132.440831 
L 68.220086 132.219028 
L 66.844048 132.404469 
L 65.291296 133.058987 
L 65.760598 133.440801 
L 66.942543 134.193548 
L 68.115797 134.535387 
L 68.194014 135.05907 
L 68.165045 135.742794 
L 68.477913 136.441096 
L 69.732281 137.110331 
L 71.994778 136.717515 
L 73.112991 137.386762 
L 75.610139 135.590045 
L 78.669291 135.131805 
L 89.929633 136.164681 
L 91.369405 136.550208 
L 94.205493 138.274286 
L 95.787213 138.659865 
L 101.491256 138.412511 
L 104.278097 138.703516 
L 106.78973 139.823935 
L 108.110727 140.7407 
L 109.188383 141.231847 
L 110.38771 141.330078 
L 112.183802 140.948071 
L 117.192584 139.878502 
L 123.357237 141.657519 
L 122.989328 143.120175 
L 124.347985 142.803619 
L 126.254161 141.999521 
L 127.511426 141.992244 
L 128.551422 142.523453 
L 133.609451 143.545899 
L 136.352838 142.79998 
L 138.285086 140.838928 
L 139.707476 138.085137 
L 140.901008 134.946332 
L 142.630472 132.393561 
L 144.890072 131.793611 
L 156.764563 133.058987 
L 157.196205 132.869901 
L 157.378711 132.448103 
L 157.494588 132.026316 
L 157.737929 131.837243 
L 158.184056 131.946323 
L 158.392634 132.171759 
L 158.531687 132.397197 
L 158.757647 132.502645 
L 160.237975 134.488111 
L 160.918752 134.946332 
L 162.170223 134.542661 
L 162.749608 133.044441 
L 162.911835 130.964628 
L 162.793061 125.526425 
L 162.911835 124.519693 
L 163.410106 123.309521 
L 163.960522 122.590004 
L 164.218348 121.921391 
L 163.835954 120.856758 
L 163.195734 120.30812 
L 159.945385 118.418915 
L 159.070514 118.237273 
L 157.338154 118.171883 
L 156.500943 117.86673 
L 155.058275 116.388278 
L 153.774938 114.535873 
L 152.398899 113.250216 
L 150.669435 113.489906 
L 148.236019 111.721368 
L 147.627665 110.918874 
L 147.028002 109.223245 
L 143.377878 102.468002 
L 142.369749 101.245045 
L 140.944462 99.858902 
L 139.446752 98.726859 
L 138.230044 98.262455 
L 136.903253 97.457038 
L 129.440778 87.885997 
L 129.098941 85.602026 
L 132.111741 84.155689 
L 134.84354 83.938207 
L 136.352838 83.340147 
L 137.013336 82.031746 
L 136.590386 80.35745 
L 135.553287 79.487758 
L 134.261259 78.900745 
L 133.079314 78.074617 
L 132.326114 76.9442 
L 130.616929 73.361484 
L 130.165008 71.945298 
L 130.651692 71.53242 
L 130.706733 71.373066 
L 130.628516 71.199228 
L 130.692249 70.728426 
L 131.38751 69.953446 
L 132.16968 67.903927 
L 132.638981 67.082026 
L 133.418254 66.625835 
L 134.548054 66.361541 
L 135.695236 66.303614 
L 136.52955 66.473775 
L 135.506936 64.073601 
L 134.771117 63.584925 
L 133.345831 63.432896 
L 132.499929 62.669154 
L 132.221824 60.931876 
L 132.331907 59.086241 
L 132.638981 57.971734 
L 133.088005 58.525359 
L 133.681874 59.006631 
L 134.365548 59.263557 
L 135.069501 59.133284 
L 135.854567 58.460225 
L 135.895124 57.808907 
L 135.643091 57.074399 
L 135.524318 55.030271 
L 135.344708 54.643185 
L 135.506936 54.715536 
L 136.52955 54.932594 
L 136.885872 55.200303 
L 137.384143 55.703174 
L 138.067817 56.126467 
L 138.960069 56.148175 
L 137.586927 52.914082 
L 136.86849 52.436624 
L 133.189397 52.161732 
L 132.256587 51.358785 
L 131.630852 50.17253 
L 130.692249 48.812793 
L 129.35387 47.673749 
L 124.817287 45.226005 
L 121.039698 42.464197 
L 119.689732 42.081055 
L 118.522272 41.437688 
L 116.010639 38.911482 
L 115.535543 38.777775 
L 114.8229 39.153603 
L 110.413782 37.231201 
L 109.683757 37.133642 
L 108.281646 36.721734 
L 107.566106 36.635018 
L 107.470507 36.624179 
L 107.111289 36.826516 
L 106.781039 37.260107 
L 106.311738 37.697324 
L 105.552744 37.89245 
L 104.495366 37.585308 
L 102.922337 36.812064 
L 101.386967 35.807629 
L 100.425189 34.810489 
L 98.988314 36.461588 
L 95.929163 36.934913 
L 89.144567 36.530237 
L 87.800395 36.114733 
L 87.012431 36.024408 
L 86.508366 35.637822 
L 85.251102 33.972366 
L 84.558737 33.596672 
L 83.570886 32.809189 
L 83.176904 31.039315 
L 83.043646 29.179374 
L 82.837964 28.139355 
L 85.378566 23.333846 
L 85.755166 22.330342 
L 86.453325 22.308684 
L 90.172975 20.265797 
L 90.172975 19.60535 
L 86.241849 19.60535 
L 87.391928 18.584061 
L 88.747689 18.414455 
L 90.199047 18.555192 
L 91.633025 18.446933 
L 100.306415 13.756475 
L 102.84412 11.584951 
L 104.269406 9.258681 
L 105.121102 10.474065 
L 105.935138 10.798665 
L 107.95719 10.524558 
L 108.997186 10.704891 
L 110.874393 11.505599 
L 111.868038 11.682337 
L 112.716836 11.660696 
L 113.189035 11.577737 
L 114.611424 11.130487 
L 115.663008 10.968182 
L 116.752251 11.076385 
L 117.740102 11.509206 
L 118.496199 12.342422 
L 119.006058 10.968182 
L 120.347334 10.113406 
L 121.981199 9.925867 
L 123.357237 10.524558 
L 125.25762 9.604893 
L 127.525911 8.908872 
L 129.898492 8.555465 
L 132.111741 8.706924 
L 139.377226 10.704891 
L 141.167525 12.010572 
L 142.647853 12.840211 
L 146.871568 14.384186 
L 147.123601 14.752168 
L 148.606826 16.920562 
L 150.513001 18.439715 
L 152.494497 19.280551 
L 153.583741 18.446933 
L 154.881563 19.262506 
L 157.036874 20.244143 
L 159.05603 20.850481 
L 159.945385 20.54009 
L 160.397305 21.94051 
L 163.835954 25.716544 
L 163.835954 26.272563 
L 163.497014 26.092035 
L 162.378801 25.716544 
L 163.279745 28.301853 
L 163.592612 28.691855 
L 164.852774 29.024088 
L 165.119291 28.908528 
L 164.852774 28.139355 
L 165.782687 26.871932 
L 165.548036 26.857489 
L 165.084528 26.900818 
L 164.852774 26.871932 
L 164.870156 26.763611 
L 165.017899 26.388102 
L 165.191714 26.099256 
L 165.296004 26.272563 
L 165.296004 25.716544 
L 165.130879 25.442152 
L 164.852774 24.510705 
L 165.296004 24.510705 
L 166.353381 25.189428 
L 167.807637 25.348283 
L 169.105458 24.850063 
L 169.673256 23.543219 
L 170.388796 22.669648 
L 171.793804 22.626332 
L 172.749789 23.579318 
L 172.144332 25.716544 
L 173.352349 26.568634 
L 174.516912 26.713061 
L 177.332722 26.12814 
L 177.576064 26.149804 
L 177.975839 26.272563 
L 178.468316 26.662511 
L 179.493827 27.882972 
L 180.183295 28.139355 
L 182.639887 28.139355 
L 183.216374 28.330741 
L 183.532139 28.746023 
L 183.758099 29.161317 
L 184.424392 29.54412 
L 185.391964 30.374765 
L 186.040875 30.566181 
L 186.591291 30.262806 
L 186.953406 29.601903 
L 187.408223 28.959086 
L 188.225156 28.691855 
L 189.578019 27.471326 
L 191.597175 27.489381 
L 195.079277 28.691855 
L 196.991247 29.002421 
L 197.501106 29.450224 
L 197.069464 30.566181 
L 196.452419 31.039315 
L 195.606518 31.205458 
L 193.619228 31.172951 
L 194.366634 32.798353 
L 195.600724 32.968127 
L 196.939103 32.52744 
L 197.993583 32.325161 
L 199.279817 33.600284 
L 200.073574 34.185505 
L 200.424102 33.903729 
L 200.806496 32.686375 
L 200.652959 32.050646 
L 199.082826 31.566643 
L 198.578761 31.021256 
L 198.323832 30.241136 
L 198.439709 29.352717 
L 198.984331 28.800191 
L 199.798366 28.865193 
L 201.64081 29.352717 
z
" clip-path="url(#p924173ccab)" style="stroke: #000000; stroke-linejoin: miter"/>
   </g>
   <g id="line2d_1">
    <path d="M 204.630435 29.443001 
L 205.258547 31.884946 
L 205.512404 33.45615 
L 205.324771 37.19561 
L 205.65221 39.212563 
L 207.642599 44.773814 
L 208.49247 51.722023 
L 208.444642 55.691272 
L 207.631562 57.733737 
L 207.237899 58.241524 
L 206.336521 60.953085 
L 205.659568 61.582789 
L 203.739081 62.879053 
L 203.271836 63.439883 
L 203.625029 65.214451 
L 205.194198 67.692331 
L 207.543264 70.534823 
L 213.054545 73.708634 
L 212.730785 79.018219 
L 212.366555 80.548408 
L 211.468856 82.124781 
L 209.055371 84.177764 
L 207.977397 85.32636 
L 205.847202 88.869372 
L 202.760443 92.931386 
L 201.825953 93.617707 
L 198.172613 94.787748 
L 196.943796 95.7736 
L 197.153504 97.319305 
L 198.43015 97.082026 
L 200.199794 96.363299 
L 201.866423 96.430102 
L 202.517622 97.056686 
L 203.525694 99.581708 
L 204.176893 100.491832 
L 205.806732 102.266154 
L 206.336521 103.072732 
L 206.730184 104.722892 
L 206.803766 108.339577 
L 207.377705 111.84643 
L 207.271011 113.522901 
L 206.921497 115.171877 
L 206.435857 116.680325 
L 205.582307 118.34348 
L 204.585273 119.319311 
L 202.002549 121.225012 
L 201.031269 122.521761 
L 199.56699 125.501002 
L 198.639858 126.689627 
L 195.884217 127.813711 
L 190.531137 126.634232 
L 187.885869 127.301285 
L 186.66073 128.402329 
L 187.293534 129.863584 
L 193.731948 137.744712 
L 194.191834 138.592406 
L 194.368431 139.93449 
L 193.989484 140.424229 
L 193.456016 140.789233 
L 193.187442 141.771089 
L 193.614217 143.425367 
L 194.681154 144.127795 
L 197.458869 144.961968 
L 198.058561 145.597448 
L 199.717832 148.306037 
L 202.40357 150.448739 
L 206.229827 152.173281 
L 207.245257 152.975511 
L 208.054658 153.935004 
L 204.011334 162.258435 
L 203.448433 163.940301 
L 203.249762 165.703326 
L 203.356456 166.550203 
L 204.121707 169.116558 
L 204.290945 170.118682 
L 204.243117 171.609254 
L 204.401318 174.211144 
L 204.143782 175.762292 
L 203.292057 178.472246 
L 202.127493 177.520488 
L 197.153475 169.755372 
L 194.980782 167.404703 
L 192.480737 165.524416 
L 186.880983 163.225373 
L 184.563444 161.775434 
L 182.251699 160.711743 
L 179.479343 160.704458 
L 173.795578 161.848292 
L 166.391041 161.764505 
L 156.01426 161.928436 
L 150.426094 163.145223 
L 148.995013 162.241732 
L 148.137524 161.855578 
L 147.75513 162.205302 
L 148.236019 165.651948 
L 147.563933 166.530124 
L 146.732516 166.551988 
L 144.78868 165.651948 
L 143.699437 165.415104 
L 135.327327 166.336994 
L 133.609451 166.205813 
L 133.7514 166.61758 
L 134.096134 168.038803 
L 132.615806 167.809212 
L 132.111741 167.371906 
L 130.141833 168.895242 
L 126.213604 168.432395 
L 124.290047 169.318012 
L 122.418634 168.020582 
L 119.904104 166.839865 
L 117.209965 165.983536 
L 109.701139 164.981506 
L 107.818138 165.090816 
L 107.227166 164.981506 
L 105.155865 163.400249 
L 104.533027 163.145223 
L 95.077467 161.316435 
L 90.830577 161.841006 
L 90.172975 161.622433 
L 90.546678 160.456759 
L 91.491075 160.012368 
L 94.063544 160.037866 
L 94.063544 159.480573 
L 89.306795 158.868666 
L 83.541917 158.923299 
L 81.864598 159.480573 
L 79.573131 161.105155 
L 78.704054 161.316435 
L 78.136257 160.959445 
L 77.522109 159.316667 
L 77.000663 158.814032 
L 76.050471 159.502427 
L 75.534819 161.250865 
L 75.007579 162.562319 
L 74.042903 161.928436 
L 73.599674 161.928436 
L 72.759566 162.569606 
L 72.052717 162.110584 
L 71.739849 160.95216 
L 72.09617 159.480573 
L 71.085144 159.841172 
L 70.201582 162.183444 
L 69.178968 163.145223 
L 69.228216 161.939365 
L 69.462867 160.864735 
L 70.152335 158.814032 
L 69.593228 159.356733 
L 68.79078 160.624319 
L 68.211396 161.316435 
L 68.153457 161.097869 
L 67.7363 160.901162 
L 66.971512 160.704458 
L 66.716583 160.85745 
L 66.751346 161.928436 
L 63.64005 164.901347 
L 58.547258 167.729039 
L 57.25523 169.263343 
L 56.015346 171.712703 
L 59.010766 175.544221 
L 59.459789 176.94071 
L 59.821904 178.701989 
L 59.650986 179.391237 
L 58.709485 179.664757 
L 53.993293 179.642875 
L 53.303826 179.504291 
L 52.611461 179.106782 
L 52.092911 178.483186 
L 51.820601 177.163138 
L 47.040676 169.113915 
L 46.249816 168.651062 
L 45.997784 168.31213 
L 45.713885 167.371906 
L 44.387094 165.885152 
L 37.492415 159.80839 
L 36.255429 159.087201 
L 34.082736 158.650133 
L 33.170205 158.198509 
L 32.39383 157.521096 
L 32.06358 156.676191 
L 31.91294 155.722086 
L 31.510268 155.430767 
L 30.904811 155.383429 
L 30.163198 155.146737 
L 28.326548 154.291035 
L 27.729782 153.872304 
L 27.248893 154.534997 
L 25.90472 153.959691 
L 24.479434 154.680647 
L 22.97593 155.794916 
L 21.411591 156.370289 
L 20.099285 156.042542 
L 18.474111 155.255979 
L 17.092278 154.33473 
L 16.509996 153.591943 
L 15.901642 152.590692 
L 13.224885 150.970621 
L 12.619427 149.321594 
L 12.460097 147.574469 
L 11.993692 146.337039 
L 10.145455 143.545899 
L 12.619427 139.220063 
L 12.405055 138.863571 
L 12.092187 137.997838 
L 13.395803 136.892099 
L 14.233014 132.753542 
L 15.293288 131.837243 
L 15.487382 131.371842 
L 15.365711 130.324741 
L 14.624099 127.561893 
L 15.174514 126.733135 
L 17.587652 125.053943 
L 20.751093 123.527563 
L 22.098162 123.244109 
L 23.740718 123.723804 
L 24.467846 123.694731 
L 25.122551 122.350172 
L 25.913411 122.077641 
L 26.750622 122.015868 
L 30.748377 122.284764 
L 33.581568 123.011535 
L 42.898075 127.961749 
L 46.997222 128.179856 
L 47.144966 128.314357 
L 47.706969 129.121388 
L 47.869197 129.815758 
L 48.266075 129.764861 
L 48.761449 129.459481 
L 49.207575 129.401313 
L 51.275979 130.691945 
L 52.194304 131.084609 
L 55.395405 131.226407 
L 56.154399 131.400929 
L 56.988713 131.837243 
L 58.973106 133.724441 
L 59.706027 133.789897 
L 60.059452 133.538983 
L 60.297 133.22262 
L 60.676497 133.058987 
L 61.386243 133.197166 
L 62.266908 133.713531 
L 62.904231 133.724441 
L 63.33877 133.484438 
L 64.630798 132.288113 
L 65.534638 130.95372 
L 66.01263 130.666495 
L 67.724712 130.670131 
L 70.951886 129.554002 
L 71.878901 129.401313 
L 74.416606 130.157502 
L 74.457163 131.691804 
L 73.014495 132.85172 
L 71.125701 132.502645 
L 71.125701 133.058987 
L 69.590331 132.440831 
L 68.220086 132.219028 
L 66.844048 132.404469 
L 65.291296 133.058987 
L 65.760598 133.440801 
L 66.942543 134.193548 
L 68.115797 134.535387 
L 68.194014 135.05907 
L 68.165045 135.742794 
L 68.477913 136.441096 
L 69.732281 137.110331 
L 71.994778 136.717515 
L 73.112991 137.386762 
L 75.610139 135.590045 
L 78.669291 135.131805 
L 89.929633 136.164681 
L 91.369405 136.550208 
L 94.205493 138.274286 
L 95.787213 138.659865 
L 101.491256 138.412511 
L 104.278097 138.703516 
L 106.78973 139.823935 
L 108.110727 140.7407 
L 109.188383 141.231847 
L 110.38771 141.330078 
L 117.192584 139.878502 
L 123.357237 141.657519 
L 122.989328 143.120175 
L 124.347985 142.803619 
L 126.254161 141.999521 
L 127.511426 141.992244 
L 128.551422 142.523453 
L 133.609451 143.545899 
L 136.352838 142.79998 
L 138.285086 140.838928 
L 139.707476 138.085137 
L 140.901008 134.946332 
L 142.630472 132.393561 
L 144.890072 131.793611 
L 156.764563 133.058987 
L 157.196205 132.869901 
L 157.737929 131.837243 
L 158.184056 131.946323 
L 158.757647 132.502645 
L 160.237975 134.488111 
L 160.918752 134.946332 
L 162.170223 134.542661 
L 162.749608 133.044441 
L 162.911835 130.964628 
L 162.793061 125.526425 
L 162.911835 124.519693 
L 163.410106 123.309521 
L 163.960522 122.590004 
L 164.218348 121.921391 
L 163.835954 120.856758 
L 163.195734 120.30812 
L 159.945385 118.418915 
L 159.070514 118.237273 
L 157.338154 118.171883 
L 156.500943 117.86673 
L 155.058275 116.388278 
L 153.774938 114.535873 
L 152.398899 113.250216 
L 150.669435 113.489906 
L 148.236019 111.721368 
L 147.627665 110.918874 
L 147.028002 109.223245 
L 143.377878 102.468002 
L 142.369749 101.245045 
L 140.944462 99.858902 
L 139.446752 98.726859 
L 138.230044 98.262455 
L 136.903253 97.457038 
L 129.440778 87.885997 
L 129.098941 85.602026 
L 132.111741 84.155689 
L 134.84354 83.938207 
L 136.352838 83.340147 
L 137.013336 82.031746 
L 136.590386 80.35745 
L 135.553287 79.487758 
L 134.261259 78.900745 
L 133.079314 78.074617 
L 132.326114 76.9442 
L 130.616929 73.361484 
L 130.165008 71.945298 
L 130.706733 71.373066 
L 130.628516 71.199228 
L 130.692249 70.728426 
L 131.38751 69.953446 
L 132.16968 67.903927 
L 132.638981 67.082026 
L 133.418254 66.625835 
L 134.548054 66.361541 
L 135.695236 66.303614 
L 136.52955 66.473775 
L 135.506936 64.073601 
L 134.771117 63.584925 
L 133.345831 63.432896 
L 132.499929 62.669154 
L 132.221824 60.931876 
L 132.331907 59.086241 
L 132.638981 57.971734 
L 133.088005 58.525359 
L 133.681874 59.006631 
L 134.365548 59.263557 
L 135.069501 59.133284 
L 135.854567 58.460225 
L 135.895124 57.808907 
L 135.643091 57.074399 
L 135.524318 55.030271 
L 135.344708 54.643185 
L 135.506936 54.715536 
L 136.52955 54.932594 
L 138.067817 56.126467 
L 138.960069 56.148175 
L 137.586927 52.914082 
L 136.86849 52.436624 
L 133.189397 52.161732 
L 132.256587 51.358785 
L 131.630852 50.17253 
L 130.692249 48.812793 
L 129.35387 47.673749 
L 124.817287 45.226005 
L 121.039698 42.464197 
L 119.689732 42.081055 
L 118.522272 41.437688 
L 116.010639 38.911482 
L 115.535543 38.777775 
L 114.8229 39.153603 
L 110.413782 37.231201 
L 109.683757 37.133642 
L 108.281646 36.721734 
L 107.470507 36.624179 
L 107.111289 36.826516 
L 106.311738 37.697324 
L 105.552744 37.89245 
L 104.495366 37.585308 
L 102.922337 36.812064 
L 101.386967 35.807629 
L 100.425189 34.810489 
L 98.988314 36.461588 
L 95.929163 36.934913 
L 89.144567 36.530237 
L 87.800395 36.114733 
L 87.012431 36.024408 
L 86.508366 35.637822 
L 85.251102 33.972366 
L 84.558737 33.596672 
L 83.570886 32.809189 
L 83.176904 31.039315 
L 83.043646 29.179374 
L 82.837964 28.139355 
L 85.378566 23.333846 
L 85.755166 22.330342 
L 86.453325 22.308684 
L 90.172975 20.265797 
L 90.172975 19.60535 
L 86.241849 19.60535 
L 87.391928 18.584061 
L 88.747689 18.414455 
L 90.199047 18.555192 
L 91.633025 18.446933 
L 100.306415 13.756475 
L 102.84412 11.584951 
L 104.269406 9.258681 
L 105.121102 10.474065 
L 105.935138 10.798665 
L 107.95719 10.524558 
L 108.997186 10.704891 
L 110.874393 11.505599 
L 111.868038 11.682337 
L 113.189035 11.577737 
L 114.611424 11.130487 
L 115.663008 10.968182 
L 116.752251 11.076385 
L 117.740102 11.509206 
L 118.496199 12.342422 
L 119.006058 10.968182 
L 120.347334 10.113406 
L 121.981199 9.925867 
L 123.357237 10.524558 
L 125.25762 9.604893 
L 127.525911 8.908872 
L 129.898492 8.555465 
L 132.111741 8.706924 
L 139.377226 10.704891 
L 141.167525 12.010572 
L 142.647853 12.840211 
L 146.871568 14.384186 
L 148.606826 16.920562 
L 150.513001 18.439715 
L 152.494497 19.280551 
L 153.583741 18.446933 
L 154.881563 19.262506 
L 157.036874 20.244143 
L 159.05603 20.850481 
L 159.945385 20.54009 
L 160.397305 21.94051 
L 163.835954 25.716544 
L 163.835954 26.272563 
L 163.497014 26.092035 
L 162.378801 25.716544 
L 163.279745 28.301853 
L 163.592612 28.691855 
L 164.852774 29.024088 
L 165.119291 28.908528 
L 164.852774 28.139355 
L 165.782687 26.871932 
L 164.852774 26.871932 
L 164.870156 26.763611 
L 165.191714 26.099256 
L 165.296004 26.272563 
L 165.296004 25.716544 
L 165.130879 25.442152 
L 164.852774 24.510705 
L 165.296004 24.510705 
L 166.353381 25.189428 
L 167.807637 25.348283 
L 169.105458 24.850063 
L 169.673256 23.543219 
L 170.388796 22.669648 
L 171.793804 22.626332 
L 172.749789 23.579318 
L 172.144332 25.716544 
L 173.352349 26.568634 
L 174.516912 26.713061 
L 177.576064 26.149804 
L 177.975839 26.272563 
L 178.468316 26.662511 
L 179.493827 27.882972 
L 180.183295 28.139355 
L 182.639887 28.139355 
L 183.216374 28.330741 
L 183.758099 29.161317 
L 184.424392 29.54412 
L 185.391964 30.374765 
L 186.040875 30.566181 
L 186.591291 30.262806 
L 187.408223 28.959086 
L 188.225156 28.691855 
L 189.578019 27.471326 
L 191.597175 27.489381 
L 195.079277 28.691855 
L 196.991247 29.002421 
L 197.501106 29.450224 
L 197.069464 30.566181 
L 196.452419 31.039315 
L 195.606518 31.205458 
L 193.619228 31.172951 
L 194.366634 32.798353 
L 195.600724 32.968127 
L 196.939103 32.52744 
L 197.993583 32.325161 
L 199.279817 33.600284 
L 200.073574 34.185505 
L 200.424102 33.903729 
L 200.806496 32.686375 
L 200.652959 32.050646 
L 199.082826 31.566643 
L 198.578761 31.021256 
L 198.323832 30.241136 
L 198.439709 29.352717 
L 198.984331 28.800191 
L 199.798366 28.865193 
L 201.64081 29.352717 
L 204.630435 29.443001 
L 204.630435 29.443001 
" clip-path="url(#p924173ccab)" style="fill: none; stroke: #000000; stroke-width: 0.5; stroke-linecap: square"/>
   </g>
  </g>
 </g>
 <defs>
  <clipPath id="p924173ccab">
   <rect x="0" y="0" width="223.2" height="188.220221"/>
  </clipPath>
 </defs>
</svg>
