<?xml version="1.0" encoding="utf-8" standalone="no"?>
<!DOCTYPE svg PUBLIC "-//W3C//DTD SVG 1.1//EN"
  "http://www.w3.org/Graphics/SVG/1.1/DTD/svg11.dtd">
<svg xmlns:xlink="http://www.w3.org/1999/xlink" width="223.2pt" height="71.676698pt" viewBox="0 0 223.2 71.676698" xmlns="http://www.w3.org/2000/svg" version="1.1">
 <metadata>
  <rdf:RDF xmlns:dc="http://purl.org/dc/elements/1.1/" xmlns:cc="http://creativecommons.org/ns#" xmlns:rdf="http://www.w3.org/1999/02/22-rdf-syntax-ns#">
   <cc:Work>
    <dc:type rdf:resource="http://purl.org/dc/dcmitype/StillImage"/>
    <dc:date>2026-04-26T19:22:20.770728</dc:date>
    <dc:format>image/svg+xml</dc:format>
    <dc:creator>
     <cc:Agent>
      <dc:title>Matplotlib v3.10.9, https://matplotlib.org/</dc:title>
     </cc:Agent>
    </dc:creator>
   </cc:Work>
  </rdf:RDF>
 </metadata>
 <defs>
  <style type="text/css">*{stroke-linejoin: round; stroke-linecap: butt}</style>
 </defs>
 <g id="figure_1">
  <g id="patch_1">
   <path d="M 0 71.676698 
L 223.2 71.676698 
L 223.2 0 
L 0 0 
z
" style="fill: #ffffff"/>
  </g>
  <g id="axes_1">
   <g id="patch_2">
    <path d="M 185.914022 45.84224 
L 195.342989 47.677415 
L 204.915254 48.136166 
L 213.054545 47.562725 
L 160.034515 55.496764 
L 141.69245 64.845893 
L 131.575655 67.021745 
L 105.696148 68.418666 
L 93.745146 67.47977 
L 82.05208 62.990386 
L 78.612943 60.745073 
L 69.355932 53.433492 
L 57.662866 39.669444 
L 55.140832 35.238719 
L 57.777504 32.368224 
L 53.707858 30.737483 
L 51.44376 28.715984 
L 51.759014 26.602242 
L 55.370108 24.649005 
L 48.434515 22.373668 
L 42.845917 21.20136 
L 22.469029 20.258836 
L 16.364561 18.37357 
L 12.151618 14.740171 
L 10.145455 9.034952 
L 21.89584 7.124955 
L 31.582743 3.258032 
L 43.562404 9.817276 
L 45.769183 10.093378 
L 48.377196 13.130094 
L 54.195069 16.717977 
L 59.955624 18.925385 
L 62.592296 17.82173 
L 64.082589 13.49813 
L 67.751002 11.565819 
L 72.451156 12.094934 
L 77.237288 15.016163 
L 72.422496 16.763968 
L 76.922034 21.270322 
L 84.459476 22.051869 
L 92.627427 20.212857 
L 98.875193 16.763968 
L 105.810786 18.442548 
L 125.729122 18.856409 
L 133.954391 21.684089 
L 137.794761 23.683762 
L 145.704776 25.315439 
L 149.803082 26.579265 
L 152.468413 28.440299 
L 157.913713 33.30982 
L 160.636364 34.29727 
L 169.664099 39.600585 
L 173.361171 42.584125 
z
" clip-path="url(#pcd82bf8112)" style="stroke: #000000; stroke-linejoin: miter"/>
   </g>
   <g id="line2d_1">
    <path d="M 185.914022 45.84224 
L 195.342989 47.677415 
L 204.915254 48.136166 
L 213.054545 47.562725 
L 160.034515 55.496764 
L 141.69245 64.845893 
L 131.575655 67.021745 
L 105.696148 68.418666 
L 93.745146 67.47977 
L 82.05208 62.990386 
L 78.612943 60.745073 
L 69.355932 53.433492 
L 57.662866 39.669444 
L 55.140832 35.238719 
L 57.777504 32.368224 
L 53.707858 30.737483 
L 51.44376 28.715984 
L 51.759014 26.602242 
L 55.370108 24.649005 
L 48.434515 22.373668 
L 42.845917 21.20136 
L 22.469029 20.258836 
L 16.364561 18.37357 
L 12.151618 14.740171 
L 10.145455 9.034952 
L 21.89584 7.124955 
L 31.582743 3.258032 
L 43.562404 9.817276 
L 45.769183 10.093378 
L 48.377196 13.130094 
L 54.195069 16.717977 
L 59.955624 18.925385 
L 62.592296 17.82173 
L 64.082589 13.49813 
L 67.751002 11.565819 
L 72.451156 12.094934 
L 77.237288 15.016163 
L 72.422496 16.763968 
L 76.922034 21.270322 
L 84.459476 22.051869 
L 92.627427 20.212857 
L 98.875193 16.763968 
L 105.810786 18.442548 
L 125.729122 18.856409 
L 133.954391 21.684089 
L 137.794761 23.683762 
L 145.704776 25.315439 
L 149.803082 26.579265 
L 152.468413 28.440299 
L 157.913713 33.30982 
L 160.636364 34.29727 
L 169.664099 39.600585 
L 173.361171 42.584125 
L 185.914022 45.84224 
" clip-path="url(#pcd82bf8112)" style="fill: none; stroke: #000000; stroke-width: 0.5; stroke-linecap: square"/>
   </g>
  </g>
 </g>
 <defs>
  <clipPath id="pcd82bf8112">
   <rect x="0" y="-0" width="223.2" height="71.676698"/>
  </clipPath>
 </defs>
</svg>
