<?xml version="1.0" encoding="utf-8" standalone="no"?>
<!DOCTYPE svg PUBLIC "-//W3C//DTD SVG 1.1//EN"
  "http://www.w3.org/Graphics/SVG/1.1/DTD/svg11.dtd">
<svg xmlns:xlink="http://www.w3.org/1999/xlink" width="223.2pt" height="140.052275pt" viewBox="0 0 223.2 140.052275" xmlns="http://www.w3.org/2000/svg" version="1.1">
 <metadata>
  <rdf:RDF xmlns:dc="http://purl.org/dc/elements/1.1/" xmlns:cc="http://creativecommons.org/ns#" xmlns:rdf="http://www.w3.org/1999/02/22-rdf-syntax-ns#">
   <cc:Work>
    <dc:type rdf:resource="http://purl.org/dc/dcmitype/StillImage"/>
    <dc:date>2026-04-26T19:22:08.073136</dc:date>
    <dc:format>image/svg+xml</dc:format>
    <dc:creator>
     <cc:Agent>
      <dc:title>Matplotlib v3.10.9, https://matplotlib.org/</dc:title>
     </cc:Agent>
    </dc:creator>
   </cc:Work>
  </rdf:RDF>
 </metadata>
 <defs>
  <style type="text/css">*{stroke-linejoin: round; stroke-linecap: butt}</style>
 </defs>
 <g id="figure_1">
  <g id="patch_1">
   <path d="M 0 140.052275 
L 223.2 140.052275 
L 223.2 0 
L 0 0 
z
" style="fill: #ffffff"/>
  </g>
  <g id="axes_1">
   <g id="patch_2">
    <path d="M 10.216106 73.607307 
L 10.145455 72.310604 
L 10.204331 71.649926 
L 10.415445 71.105681 
L 10.748516 70.83411 
L 11.471854 70.604573 
L 11.740162 70.250042 
L 12.063982 69.524856 
L 12.51733 68.913933 
L 13.536732 67.819326 
L 13.831954 67.363636 
L 13.990079 67.038311 
L 14.236519 66.831488 
L 14.790798 66.742081 
L 15.190316 66.831488 
L 16.007856 67.182659 
L 16.383823 67.146034 
L 16.766519 66.692531 
L 16.917915 66.002085 
L 16.934737 65.262148 
L 16.798481 63.162206 
L 16.914551 62.900554 
L 17.260239 62.434336 
L 17.342666 62.108105 
L 17.28379 61.398618 
L 17.228096 61.292148 
L 17.087816 61.02398 
L 16.79007 60.697798 
L 16.435971 60.128353 
L 15.821975 58.286776 
L 15.515818 57.658291 
L 14.859767 56.675831 
L 14.576319 56.138911 
L 14.421559 55.558987 
L 14.45352 54.775771 
L 14.708371 54.288446 
L 15.515818 53.422513 
L 15.828296 52.871189 
L 16.078507 52.429749 
L 16.481389 51.247821 
L 16.483072 50.150992 
L 15.848889 49.415544 
L 16.363637 47.496564 
L 16.753062 46.746282 
L 17.204428 46.287046 
L 17.413318 46.074522 
L 18.412533 45.447948 
L 21.718019 44.077805 
L 22.85265 43.412688 
L 26.967265 39.467055 
L 29.770905 36.779667 
L 32.59332 34.0751 
L 35.419384 31.365325 
L 38.263111 28.641364 
L 39.323849 27.610313 
L 41.551775 25.44964 
L 43.063215 23.619429 
L 44.048132 21.53022 
L 44.231489 21.225831 
L 44.917819 21.208682 
L 45.43509 20.970753 
L 45.91367 20.644949 
L 46.474678 20.351308 
L 46.675698 20.659953 
L 46.8927 20.106972 
L 46.865785 19.656897 
L 46.967557 19.283996 
L 47.347875 19.108384 
L 47.538611 19.209629 
L 49.014162 20.50568 
L 49.811542 20.814533 
L 50.669852 20.343663 
L 52.557338 17.859784 
L 53.358692 17.23049 
L 53.185176 16.577626 
L 53.511016 16.446046 
L 54.791858 16.663659 
L 56.691265 15.246745 
L 56.927035 14.685104 
L 56.995912 14.276968 
L 56.813124 14.088085 
L 56.450197 13.959917 
L 56.153497 13.666486 
L 56.018393 13.373066 
L 56.134953 13.241536 
L 57.509838 13.204438 
L 58.056878 13.002089 
L 58.590673 12.533332 
L 59.550973 12.135414 
L 62.349751 11.89937 
L 62.935203 11.695366 
L 63.12329 11.110356 
L 63.382902 11.010892 
L 63.584234 10.931658 
L 64.164388 11.022693 
L 64.712752 11.260398 
L 66.159163 12.327626 
L 66.712826 12.391698 
L 66.712826 12.132042 
L 66.379039 11.735829 
L 66.715475 11.262084 
L 67.843993 10.410757 
L 67.221454 11.462706 
L 66.997604 12.105065 
L 67.279734 12.391698 
L 67.458548 12.67834 
L 70.502369 16.081684 
L 71.486511 16.604616 
L 72.530258 16.351581 
L 72.711722 16.118794 
L 73.044184 15.44746 
L 73.197832 15.246745 
L 73.513076 15.216385 
L 74.35814 15.261925 
L 74.531656 15.09326 
L 74.723716 14.388276 
L 75.211151 14.022314 
L 75.858857 13.93968 
L 79.221895 14.890866 
L 82.153128 16.155905 
L 85.171783 16.56413 
L 88.638135 17.545975 
L 89.798443 17.667448 
L 91.039548 17.512233 
L 93.036972 16.776685 
L 93.614477 16.663659 
L 93.704547 16.540513 
L 94.247613 16.017585 
L 94.372121 15.943365 
L 94.557558 15.754446 
L 94.954924 15.929871 
L 95.345667 16.208197 
L 95.504613 16.351581 
L 96.887445 16.496654 
L 103.24397 15.815169 
L 104.326129 15.852278 
L 105.323517 16.351581 
L 105.391069 16.405561 
L 106.146064 17.002741 
L 106.654692 17.169756 
L 107.445449 17.23049 
L 108.089182 17.103962 
L 108.632248 16.796929 
L 111.726401 14.425379 
L 112.531729 13.329222 
L 112.901279 12.958247 
L 114.025824 12.398442 
L 115.158316 12.061228 
L 119.811467 11.852162 
L 120.220753 11.707168 
L 120.550567 11.501482 
L 121.816839 10.361872 
L 122.502957 9.424673 
L 122.795683 8.423536 
L 122.275134 7.584289 
L 120.214131 7.220304 
L 119.228664 6.911941 
L 119.386286 6.451943 
L 120.235323 6.366013 
L 122.751284 6.977434 
L 124.494345 7.37705 
L 125.71632 7.550586 
L 127.250641 8.087377 
L 128.780009 8.578586 
L 129.305856 8.713415 
L 129.668783 8.919034 
L 129.753554 9.394334 
L 129.748256 9.957313 
L 129.833027 10.410757 
L 130.07542 10.410757 
L 130.058201 10.13262 
L 130.124429 10.001139 
L 130.222446 9.930343 
L 130.297945 9.844377 
L 130.834997 9.860767 
L 131.124265 10.392097 
L 131.70276 10.967969 
L 132.389584 11.588235 
L 133.835199 12.342254 
L 136.292145 13.142366 
L 137.990824 12.968464 
L 140.412833 12.664004 
L 143.920019 12.540725 
L 145.80464 11.572665 
L 148.167011 9.454555 
L 149.729605 8.308334 
L 152.198088 8.238153 
L 153.798826 8.898159 
L 156.933924 10.648624 
L 160.868665 12.087221 
L 162.725367 12.867347 
L 163.190047 13.30521 
L 162.9881 13.820157 
L 162.585317 14.57842 
L 162.582545 15.230637 
L 162.577965 16.263455 
L 163.262408 17.083196 
L 163.905534 17.195931 
L 164.705794 16.874891 
L 164.820532 16.033212 
L 164.911007 15.653392 
L 165.221515 15.682637 
L 165.440953 16.200394 
L 166.015306 16.693421 
L 166.836591 16.535981 
L 167.612068 16.650267 
L 169.207003 16.906498 
L 169.497373 16.473967 
L 170.008613 16.206204 
L 169.323189 15.84781 
L 168.503985 15.624367 
L 165.934271 15.089753 
L 164.960542 14.566886 
L 164.141283 14.072411 
L 163.855646 13.418348 
L 165.163727 13.753306 
L 169.638937 14.790833 
L 172.56382 15.167051 
L 174.493304 15.291895 
L 175.157484 15.569363 
L 176.923244 17.379356 
L 179.310097 19.770103 
L 182.850617 23.480644 
L 186.280736 27.106107 
L 188.193583 29.086507 
L 190.688245 30.967195 
L 191.289592 31.404841 
L 191.881667 31.729287 
L 193.027404 31.96587 
L 193.316156 32.153451 
L 193.538681 32.559045 
L 193.558549 32.883534 
L 193.345296 33.096486 
L 192.86051 33.172541 
L 192.290953 32.898744 
L 191.056471 31.69549 
L 190.137232 31.303454 
L 189.51999 30.764433 
L 189.215343 30.593777 
L 188.227227 30.58195 
L 187.796748 30.465366 
L 187.415277 30.002424 
L 187.567601 29.931464 
L 187.705354 29.806441 
L 187.860327 29.742241 
L 187.578197 29.225277 
L 186.507959 27.733684 
L 186.285434 27.733684 
L 185.92913 27.95158 
L 185.492028 27.63234 
L 185.035057 27.156035 
L 184.617823 26.911136 
L 183.950249 27.014162 
L 183.644278 27.272575 
L 183.408507 27.63234 
L 182.950212 28.017456 
L 182.743582 27.845165 
L 181.840238 27.449922 
L 182.256147 26.995583 
L 182.432312 26.742245 
L 182.507812 26.472025 
L 182.351515 26.375761 
L 182.001833 26.304831 
L 181.617713 26.286254 
L 181.37532 26.345363 
L 181.283926 26.792912 
L 181.493205 27.50566 
L 181.872027 28.269142 
L 182.282638 28.868826 
L 182.20184 28.960049 
L 182.166077 28.988767 
L 182.134288 29.036069 
L 182.062762 29.177974 
L 181.840238 29.177974 
L 180.865367 26.840201 
L 180.505089 26.345363 
L 180.134215 26.265988 
L 179.706384 26.367317 
L 179.151397 26.600378 
L 178.764628 26.566601 
L 178.205667 26.401094 
L 177.818898 26.345363 
L 178.070563 27.287776 
L 178.279842 27.610382 
L 178.87589 27.870502 
L 178.883838 28.215088 
L 178.776549 28.681315 
L 178.708997 29.177974 
L 178.931521 29.177974 
L 179.032187 28.542795 
L 179.683867 28.164413 
L 179.977918 27.014162 
L 180.285214 26.890869 
L 180.588536 27.117188 
L 181.029612 28.475226 
L 181.556784 29.573295 
L 181.748844 30.509296 
L 181.050805 30.904676 
L 180.706421 31.367666 
L 180.955437 32.417085 
L 181.5091 33.554519 
L 182.062762 34.281336 
L 182.902528 34.832405 
L 183.596594 35.038641 
L 183.906539 34.649838 
L 183.596594 33.431135 
L 184.033696 33.85707 
L 184.420465 34.419945 
L 184.574113 35.062308 
L 184.306554 35.725005 
L 184.751603 36.411422 
L 185.379441 36.539919 
L 186.970228 36.29307 
L 186.970228 36.575425 
L 186.656309 36.560208 
L 186.44438 36.636294 
L 186.084102 36.859481 
L 186.084102 37.118181 
L 186.354311 37.824997 
L 186.754326 38.472679 
L 187.28812 38.944518 
L 187.971589 39.130555 
L 188.563664 39.040919 
L 189.321307 38.802457 
L 190.049811 38.440547 
L 190.546518 37.995791 
L 190.134582 37.500329 
L 188.750426 36.575425 
L 188.51598 36.291379 
L 188.407367 36.015796 
L 188.274911 35.806155 
L 187.971589 35.725005 
L 187.621907 35.692883 
L 185.134399 34.602507 
L 184.729086 34.281336 
L 183.974091 32.932546 
L 183.596594 32.579325 
L 183.885346 32.263298 
L 184.204563 32.053745 
L 184.931742 31.729287 
L 187.836485 33.307753 
L 188.305376 34.151181 
L 188.489489 34.592364 
L 188.937187 34.99807 
L 189.488201 35.29898 
L 190.415387 35.54242 
L 190.800832 35.877162 
L 191.133295 36.342101 
L 191.416749 36.859481 
L 191.199522 37.040401 
L 190.935936 37.331235 
L 190.749175 37.427618 
L 190.749175 37.686335 
L 191.284294 37.833452 
L 191.73729 37.425927 
L 192.088297 37.371817 
L 192.326716 38.589368 
L 192.253866 40.13522 
L 192.326716 40.547943 
L 192.56646 40.847349 
L 192.812827 40.828741 
L 192.978396 40.531028 
L 192.971773 39.982991 
L 193.21549 39.982991 
L 193.504243 40.791527 
L 193.7771 40.598689 
L 194.325465 39.38763 
L 194.831444 39.025698 
L 195.505641 38.777089 
L 196.669922 38.589368 
L 196.812974 38.393196 
L 196.745421 37.4496 
L 196.791781 37.118181 
L 197.009007 36.940641 
L 197.215637 36.960931 
L 197.46068 37.05731 
L 199.570691 37.567967 
L 200.124354 37.427618 
L 200.124354 37.686335 
L 199.930969 37.934914 
L 199.952162 38.102328 
L 200.059451 38.284965 
L 200.124354 38.589368 
L 200.124354 39.840913 
L 199.954811 40.46675 
L 199.578638 40.727247 
L 199.205115 40.547943 
L 199.034247 39.840913 
L 198.915038 39.629491 
L 198.632908 39.489109 
L 198.295147 39.411309 
L 198.013018 39.38763 
L 197.818309 39.558454 
L 197.642143 39.935631 
L 197.436838 40.547943 
L 197.289812 40.764461 
L 197.146761 40.898096 
L 197.038147 41.102782 
L 196.993113 41.542617 
L 197.071261 41.924952 
L 197.255374 41.994316 
L 197.476574 41.874199 
L 197.659362 41.684722 
L 197.493793 41.332846 
L 197.46068 41.062182 
L 197.525583 40.8169 
L 197.659362 40.547943 
L 197.901755 40.547943 
L 197.969308 41.567992 
L 198.191832 42.298845 
L 198.601119 42.578005 
L 199.236904 42.253165 
L 199.411745 42.014617 
L 199.708444 41.405589 
L 199.901829 41.141689 
L 200.158792 40.938695 
L 201.617124 40.287452 
L 201.605203 40.141986 
L 201.458178 39.698837 
L 201.321749 39.441752 
L 201.136311 39.252327 
L 200.94955 39.010476 
L 200.813121 38.589368 
L 200.703183 38.000864 
L 200.464764 37.206108 
L 200.060775 36.736051 
L 199.456779 37.118181 
L 198.489857 36.401277 
L 198.009044 36.2694 
L 197.436838 36.575425 
L 197.23683 36.29307 
L 197.309681 36.137525 
L 197.436838 35.725005 
L 196.912315 35.637093 
L 195.504316 34.994689 
L 195.215564 34.730978 
L 194.87383 34.261052 
L 194.194334 33.990602 
L 193.68968 33.625508 
L 193.883065 32.863253 
L 194.416859 32.540455 
L 194.924162 32.883534 
L 195.382457 33.429445 
L 195.771876 33.713399 
L 196.121557 33.85707 
L 199.638243 36.123999 
L 204.018537 38.173353 
L 205.702042 39.698837 
L 206.084838 40.481974 
L 206.60936 43.153273 
L 207.181567 44.82514 
L 208.046499 46.4093 
L 209.038589 47.396154 
L 213.054545 49.377109 
L 212.624542 49.465002 
L 211.526078 49.385439 
L 211.07273 49.491882 
L 210.213135 49.981102 
L 208.771506 49.952071 
L 208.636932 49.981102 
L 208.240778 49.788637 
L 208.001908 49.581122 
L 208.027141 49.361786 
L 208.414884 49.126327 
L 206.979983 48.93818 
L 206.420658 48.98441 
L 205.92862 49.385439 
L 205.759561 48.833895 
L 205.419761 48.572648 
L 205.001739 48.368387 
L 204.595492 47.964177 
L 204.283447 48.685531 
L 203.77627 49.380064 
L 203.116855 49.869278 
L 202.353144 49.981102 
L 202.053716 49.776809 
L 201.657563 49.02204 
L 201.485139 48.816693 
L 201.057024 48.726385 
L 200.728999 48.772614 
L 200.618816 48.98226 
L 200.83834 49.385439 
L 200.666758 49.661762 
L 200.613769 49.917664 
L 200.594424 50.548846 
L 200.27481 50.181099 
L 200.093134 50.359594 
L 200.05108 50.843485 
L 200.150328 51.401603 
L 199.966971 51.290837 
L 199.483344 51.116625 
L 199.555677 51.24352 
L 199.643151 51.538181 
L 199.707074 51.684439 
L 199.238586 51.857587 
L 198.427775 52.66099 
L 197.630421 53.032063 
L 197.470614 53.482749 
L 197.401645 54.04318 
L 197.261182 54.552007 
L 197.018948 54.552007 
L 196.74223 54.114177 
L 196.143373 53.893657 
L 195.420876 53.846326 
L 194.77576 53.957123 
L 194.168493 54.316416 
L 194.042329 54.778999 
L 194.351009 55.974291 
L 194.109616 55.974291 
L 193.986817 55.619238 
L 193.745424 55.430957 
L 193.409829 55.37286 
L 192.998536 55.405136 
L 193.064982 56.051759 
L 192.388745 56.37993 
L 190.573672 56.517657 
L 190.805813 57.0051 
L 190.966461 57.208477 
L 191.219629 57.421544 
L 190.61909 57.428001 
L 189.973133 57.686271 
L 189.393622 58.08768 
L 188.997468 58.532155 
L 188.809064 58.234042 
L 188.695516 58.130727 
L 188.567671 58.085527 
L 188.331324 57.964995 
L 188.491973 58.355654 
L 188.532345 58.532155 
L 188.116005 58.393322 
L 187.592006 57.695956 
L 187.199216 57.421544 
L 187.038568 58.375026 
L 187.031839 58.759244 
L 187.199216 59.101502 
L 183.981204 59.314613 
L 183.421879 59.23066 
L 183.359638 58.908846 
L 183.192261 58.794761 
L 182.643029 58.817363 
L 182.300705 58.76032 
L 182.177906 58.612873 
L 182.093797 58.420227 
L 181.348591 57.831551 
L 181.110562 57.853074 
L 180.75394 58.22328 
L 181.131589 59.201599 
L 181.357002 59.583699 
L 181.642131 59.928141 
L 181.642131 60.240302 
L 181.419242 60.416839 
L 181.281303 60.397463 
L 181.128225 60.298429 
L 180.854871 60.240302 
L 180.557966 60.319958 
L 180.39143 60.493267 
L 180.26022 60.693492 
L 180.06761 60.833437 
L 179.27362 61.120868 
L 178.79504 61.167159 
L 178.400568 60.964771 
L 177.630129 59.934599 
L 177.379484 59.670885 
L 177.085944 59.464224 
L 176.63596 59.269407 
L 176.226349 59.306002 
L 176.046356 59.80005 
L 176.214574 61.75497 
L 176.048038 62.672287 
L 175.380212 63.110521 
L 175.019384 63.078218 
L 174.228759 62.856407 
L 173.733357 62.79934 
L 173.484394 62.578613 
L 173.251412 61.49551 
L 172.934321 61.093954 
L 172.504524 61.880934 
L 172.052858 62.932856 
L 171.453161 63.852442 
L 170.239467 64.383345 
L 169.396694 64.969204 
L 169.035866 65.100597 
L 168.5371 64.915356 
L 168.196458 64.552422 
L 167.852452 64.316577 
L 167.358732 64.506114 
L 167.456298 63.689839 
L 167.579939 63.394791 
L 165.203017 63.306494 
L 164.469586 63.110521 
L 163.208791 62.434336 
L 162.585543 62.350354 
L 161.984163 62.79934 
L 161.492967 61.372781 
L 161.153166 60.676268 
L 160.487863 60.115436 
L 160.520666 59.561096 
L 160.430669 59.05845 
L 159.78303 58.957279 
L 159.800692 58.875481 
L 160.055543 58.467581 
L 160.156474 58.350273 
L 159.677893 57.364511 
L 158.962966 56.701655 
L 158.11767 56.385309 
L 157.260599 56.431577 
L 155.314316 56.871669 
L 154.780223 57.257977 
L 153.288128 59.051993 
L 152.705253 59.56863 
L 152.198101 59.994017 
L 152.131629 60.049774 
L 151.686692 60.570773 
L 151.397357 61.222063 
L 151.226616 62.763808 
L 151.120638 63.012535 
L 150.95242 63.110521 
L 150.441037 63.283882 
L 150.616825 63.689839 
L 151.53866 64.506114 
L 150.822051 65.350463 
L 150.6286 65.671422 
L 151.473055 65.670345 
L 151.426325 65.806289 
L 151.231662 66.372614 
L 150.072639 67.819326 
L 149.384627 68.224402 
L 148.832031 67.710519 
L 148.312237 66.997377 
L 147.719268 66.808867 
L 147.461053 67.402418 
L 147.31975 68.559464 
L 147.254145 70.667076 
L 147.138074 70.937565 
L 146.38614 71.933376 
L 146.347449 72.198512 
L 146.423148 72.835516 
L 146.38614 73.099599 
L 145.496266 73.954417 
L 146.020265 74.38455 
L 146.601459 75.045419 
L 147.019481 75.877768 
L 147.052283 76.828805 
L 146.674634 77.517881 
L 146.005126 78.023666 
L 145.19095 78.360151 
L 144.385185 78.538105 
L 143.152988 78.538105 
L 142.814869 78.628701 
L 142.041066 79.108658 
L 141.73575 79.205731 
L 141.557439 79.43871 
L 141.425388 79.720234 
L 141.194929 80.067566 
L 141.102409 80.37284 
L 141.01073 80.50876 
L 140.874473 80.545437 
L 140.525421 80.476398 
L 140.384118 80.50876 
L 140.070391 80.885247 
L 139.696105 81.496935 
L 139.38322 82.151819 
L 139.146873 83.220011 
L 138.878566 84.014217 
L 138.51942 84.82036 
L 138.142611 85.406393 
L 137.299839 86.23316 
L 136.744719 86.635775 
L 135.573921 87.037327 
L 135.386358 87.591108 
L 135.314024 88.257197 
L 135.01039 88.829401 
L 134.402282 89.079885 
L 133.864785 89.200809 
L 133.586424 89.263434 
L 132.873179 89.558199 
L 132.56534 90.140197 
L 132.248249 90.549451 
L 131.106889 90.985721 
L 131.212866 91.425249 
L 131.113618 91.466287 
L 131.024462 91.464127 
L 130.973997 91.512725 
L 130.989136 91.709279 
L 130.788116 91.709279 
L 130.510556 91.605601 
L 129.849459 92.321645 
L 129.434801 92.565738 
L 128.856972 92.516055 
L 128.519695 92.418849 
L 128.36157 92.647824 
L 128.322879 93.563774 
L 128.000742 94.821183 
L 127.865326 95.627132 
L 127.988125 95.991235 
L 128.475958 96.181395 
L 128.660998 96.666535 
L 128.592028 97.313786 
L 128.322879 97.989176 
L 128.098256 98.246538 
L 128.027657 98.327429 
L 128.00641 98.316843 
L 127.94523 98.286362 
L 127.512068 97.67579 
L 126.849289 97.60663 
L 126.088943 97.636887 
L 125.368128 97.324592 
L 124.849175 96.534713 
L 124.531243 95.676831 
L 124.149388 94.951902 
L 123.434461 94.557589 
L 122.990365 94.592158 
L 122.694302 94.745561 
L 122.394873 94.825504 
L 121.942367 94.631049 
L 121.723683 94.376102 
L 121.018849 93.209481 
L 118.719308 91.120709 
L 118.626788 90.012781 
L 118.978364 89.114435 
L 118.986774 88.651258 
L 116.495464 89.114435 
L 116.048004 89.404877 
L 115.682971 89.8195 
L 115.513071 90.181229 
L 115.385225 90.584007 
L 115.151402 91.116389 
L 114.771229 91.614241 
L 114.377598 91.871277 
L 113.994061 92.057038 
L 113.652578 92.341086 
L 112.528881 94.535983 
L 110.395876 97.406717 
L 109.881128 98.426853 
L 109.625437 99.666502 
L 109.437033 100.297734 
L 109.058542 100.834961 
L 108.572392 101.132231 
L 107.975217 101.316003 
L 106.294718 101.451131 
L 106.067624 101.410052 
L 105.759785 101.285734 
L 105.566334 101.112773 
L 105.053269 100.450143 
L 104.577212 100.534456 
L 104.139844 100.824151 
L 103.667152 101.013322 
L 103.090163 100.809017 
L 102.011885 100.066422 
L 100.726699 100.16154 
L 98.072217 100.796046 
L 96.652457 100.57337 
L 95.971173 100.646874 
L 95.232696 101.112773 
L 94.857569 101.438159 
L 94.702809 101.608963 
L 94.647297 101.864095 
L 94.571599 102.446813 
L 94.541034 103.172613 
L 94.447117 105.403086 
L 94.509358 105.782685 
L 94.637204 105.998987 
L 94.770137 106.125464 
L 95.054385 106.395913 
L 95.178866 106.666308 
L 95.200734 107.335835 
L 94.998873 108.676105 
L 95.015694 109.38904 
L 96.067058 114.41345 
L 96.013228 115.066165 
L 95.599411 116.223402 
L 95.548946 116.822098 
L 95.673427 117.240015 
L 95.866878 117.367775 
L 96.088926 117.433821 
L 96.299199 117.672024 
L 96.534704 118.205835 
L 96.603673 118.460298 
L 96.797124 119.660149 
L 96.726473 120.304531 
L 96.474145 120.855806 
L 96.028367 121.374617 
L 95.792741 121.57709 
L 95.560721 121.776469 
L 95.252882 121.878288 
L 94.948407 121.756971 
L 93.074457 120.593703 
L 92.514291 120.534135 
L 91.991133 120.723671 
L 91.560495 121.096254 
L 89.996066 122.788208 
L 89.733646 123.199864 
L 89.501505 123.762126 
L 89.266 124.943083 
L 89.210488 125.054684 
L 89.271046 125.298479 
L 89.516644 125.972465 
L 89.575521 126.077576 
L 89.294597 128.284065 
L 89.377023 128.548527 
L 89.560381 128.650412 
L 89.688227 128.802158 
L 89.600754 129.212965 
L 89.4359 129.428672 
L 88.956478 129.730019 
L 88.771438 129.913217 
L 88.00941 131.41577 
L 87.63933 131.919921 
L 86.806651 132.5824 
L 86.127891 133.002028 
L 85.951262 133.686263 
L 85.566883 133.653731 
L 84.818313 133.073594 
L 84.336368 133.008534 
L 76.869491 133.611721 
L 76.882736 133.599767 
L 77.197979 133.321415 
L 77.29997 132.785224 
L 77.53574 132.373706 
L 77.885422 132.073189 
L 78.330471 131.863174 
L 78.330471 131.601941 
L 77.431101 131.564379 
L 76.783395 131.402179 
L 76.291986 131.047056 
L 75.866805 130.432447 
L 75.654876 130.017607 
L 75.607192 129.793975 
L 75.664148 129.128229 
L 75.870778 129.029225 
L 76.868166 128.834632 
L 77.197979 128.711733 
L 75.314466 128.081898 
L 74.248202 127.935113 
L 73.644206 128.165533 
L 73.44155 128.165533 
L 73.35148 126.54758 
L 72.906431 124.892337 
L 72.278593 123.428431 
L 71.642808 122.386078 
L 71.440152 121.715683 
L 71.400415 121.683273 
L 71.319618 121.509285 
L 71.130207 121.524636 
L 70.914305 121.582632 
L 70.752709 121.529754 
L 70.526211 121.151083 
L 70.417598 120.813361 
L 70.474553 120.467122 
L 70.752709 120.071435 
L 71.029541 119.846309 
L 71.575256 119.529095 
L 71.865333 119.21189 
L 72.515688 118.052299 
L 72.755432 117.781178 
L 73.195183 117.907359 
L 73.709109 117.74878 
L 74.754181 117.237252 
L 74.709146 116.884312 
L 74.710471 116.638796 
L 74.754181 116.352368 
L 74.273369 115.794879 
L 74.050844 115.597122 
L 73.75282 115.518703 
L 73.099815 115.672133 
L 72.841528 115.602237 
L 72.531583 115.206735 
L 71.975271 115.718163 
L 71.804404 115.939789 
L 71.642808 116.352368 
L 71.583203 116.915002 
L 71.693141 117.218497 
L 71.718308 117.446976 
L 71.400415 117.781178 
L 71.197759 117.811871 
L 70.067916 117.781178 
L 69.559288 117.938052 
L 69.266562 117.949988 
L 68.955292 117.781178 
L 68.955292 117.494718 
L 69.421535 117.494718 
L 69.421535 117.237252 
L 68.804293 117.070158 
L 68.168508 116.782013 
L 67.597626 116.720634 
L 67.176419 117.237252 
L 66.956543 117.237252 
L 67.016148 116.824638 
L 67.379075 115.779536 
L 66.934026 115.561322 
L 66.830711 115.101043 
L 66.956543 113.919754 
L 66.779053 113.289107 
L 66.37374 113.396484 
L 65.920744 113.873732 
L 65.602851 114.349298 
L 65.900875 115.53916 
L 65.422712 116.650731 
L 64.54056 117.469142 
L 63.622646 117.781178 
L 63.039843 117.641357 
L 62.27955 117.054813 
L 61.657011 116.793948 
L 61.605353 116.507516 
L 61.605353 116.221091 
L 61.490117 116.091521 
L 61.172225 116.071063 
L 60.952349 116.006278 
L 60.491405 115.789765 
L 63.055095 114.318198 
L 63.616944 113.51617 
L 63.693483 112.978272 
L 63.635448 112.420922 
L 63.468071 111.918793 
L 63.217426 111.553033 
L 62.743892 111.321464 
L 62.054198 111.609303 
L 61.718603 111.457808 
L 61.377961 110.501275 
L 61.568888 109.343601 
L 62.34942 106.978893 
L 62.423436 106.216375 
L 62.396522 104.663396 
L 62.514274 103.924841 
L 62.797722 103.411237 
L 63.124065 103.023078 
L 63.284713 102.573307 
L 63.073599 101.880311 
L 63.237612 101.197091 
L 63.894504 99.300104 
L 64.188044 98.69163 
L 63.615262 98.403078 
L 62.693236 97.410561 
L 62.178679 96.856708 
L 61.980182 96.720561 
L 61.525152 96.500137 
L 61.356093 96.371558 
L 61.09199 95.875628 
L 60.774899 94.77581 
L 60.467901 94.473327 
L 59.979227 94.499254 
L 59.652043 94.839548 
L 59.382894 95.267364 
L 59.067485 95.547182 
L 58.753758 95.573112 
L 58.117053 95.406732 
L 57.791551 95.381883 
L 57.538383 95.491002 
L 57.11952 95.895076 
L 56.970646 95.989074 
L 56.747758 95.908041 
L 56.267495 95.516931 
L 56.082987 95.470154 
L 56.011803 95.452108 
L 55.524812 95.616328 
L 54.041128 96.543357 
L 53.770297 95.506127 
L 53.238728 94.713152 
L 52.63903 94.029342 
L 52.167178 93.321816 
L 51.69028 91.769758 
L 51.315995 91.382051 
L 50.458083 91.321575 
L 48.760762 91.575362 
L 48.241809 91.560243 
L 47.454576 91.341188 
L 47.376327 91.319415 
L 46.887653 91.254619 
L 46.568039 91.40581 
L 46.552899 91.546204 
L 46.584861 92.373487 
L 46.652148 92.522535 
L 46.943165 92.858441 
L 47.0012 92.970773 
L 46.845599 93.54217 
L 46.637008 93.60266 
L 46.348514 93.54433 
L 45.959089 93.752807 
L 45.745452 94.048786 
L 45.614988 94.337461 
L 45.505741 94.579195 
L 45.248368 94.887082 
L 44.894269 95.038329 
L 44.499797 95.07506 
L 44.14738 95.237113 
L 43.921127 95.761103 
L 43.712536 95.650901 
L 43.453481 95.553665 
L 43.193584 95.497484 
L 42.981629 95.51477 
L 42.879857 95.663866 
L 42.856306 95.923167 
L 42.856306 96.17059 
L 42.817616 96.291603 
L 42.579588 96.261349 
L 42.060635 96.0042 
L 41.74859 95.982591 
L 40.43733 96.346707 
L 39.844361 96.660052 
L 39.235412 97.123605 
L 38.367406 97.177633 
L 38.654218 96.586577 
L 38.63235 95.916684 
L 38.279933 94.819022 
L 38.189095 94.421474 
L 38.256382 93.804657 
L 38.367406 93.295893 
L 38.390957 92.808757 
L 38.224751 92.35255 
L 38.189095 92.254682 
L 38.322913 92.27692 
L 38.33208 92.278443 
L 38.35863 92.249401 
L 38.377499 92.228761 
L 38.387592 92.127239 
L 38.412825 91.995477 
L 38.121808 91.638001 
L 37.806399 91.472767 
L 36.372339 91.336694 
L 33.906262 90.351841 
L 33.076947 90.282732 
L 32.247631 90.442547 
L 32.048293 90.538653 
L 32.052411 90.463794 
L 32.064274 90.248178 
L 31.991099 89.899403 
L 31.829609 89.618665 
L 31.594945 89.367087 
L 31.443549 89.297985 
L 30.745444 89.181377 
L 30.234902 88.763542 
L 30.253406 88.175148 
L 30.44938 87.487474 
L 30.476295 86.780418 
L 30.243313 86.304399 
L 29.959024 86.341098 
L 29.623429 86.600154 
L 29.235686 86.789053 
L 27.808356 86.655204 
L 27.236414 86.760988 
L 27.022777 85.582318 
L 26.534103 84.333645 
L 25.85282 83.261014 
L 25.047055 82.619004 
L 24.538196 82.606056 
L 24.083166 82.850986 
L 23.697105 83.132609 
L 23.381696 83.220011 
L 23.094884 82.961044 
L 22.988907 82.517581 
L 22.956785 82.176262 
L 22.938442 81.981351 
L 22.815642 81.458097 
L 22.523784 80.842096 
L 22.223515 80.390099 
L 21.397564 79.608055 
L 21.251214 79.233775 
L 21.121686 77.954644 
L 20.913937 77.438079 
L 20.393302 77.113488 
L 19.283062 76.951735 
L 18.912141 76.553836 
L 19.039987 76.143014 
L 19.068584 75.718193 
L 18.997932 75.303094 
L 18.835602 74.920357 
L 18.64888 74.606631 
L 18.489073 74.421204 
L 18.298145 74.375926 
L 18.010492 74.475107 
L 17.752277 74.806078 
L 17.28379 75.933836 
L 16.97511 76.285344 
L 15.472081 75.726819 
L 14.64613 74.997981 
L 12.985817 74.555962 
L 11.975668 73.958729 
L 10.717884 73.707521 
z
" clip-path="url(#pc14cc21a7a)" style="stroke: #000000; stroke-linejoin: miter"/>
   </g>
   <g id="line2d_1">
    <path d="M 10.216106 73.607307 
L 10.204331 71.649926 
L 10.415445 71.105681 
L 10.748516 70.83411 
L 11.471854 70.604573 
L 11.740162 70.250042 
L 12.063982 69.524856 
L 12.51733 68.913933 
L 13.831954 67.363636 
L 13.990079 67.038311 
L 14.236519 66.831488 
L 14.790798 66.742081 
L 15.190316 66.831488 
L 16.007856 67.182659 
L 16.383823 67.146034 
L 16.766519 66.692531 
L 16.917915 66.002085 
L 16.934737 65.262148 
L 16.798481 63.162206 
L 16.914551 62.900554 
L 17.260239 62.434336 
L 17.342666 62.108105 
L 17.228096 61.292148 
L 17.087816 61.02398 
L 16.79007 60.697798 
L 16.435971 60.128353 
L 15.515818 57.658291 
L 14.576319 56.138911 
L 14.421559 55.558987 
L 14.45352 54.775771 
L 14.708371 54.288446 
L 15.515818 53.422513 
L 16.078507 52.429749 
L 16.481389 51.247821 
L 16.483072 50.150992 
L 15.848889 49.415544 
L 16.363637 47.496564 
L 16.753062 46.746282 
L 17.413318 46.074522 
L 18.412533 45.447948 
L 21.718019 44.077805 
L 22.85265 43.412688 
L 41.551775 25.44964 
L 43.063215 23.619429 
L 44.231489 21.225831 
L 44.917819 21.208682 
L 45.91367 20.644949 
L 46.474678 20.351308 
L 46.675698 20.659953 
L 46.8927 20.106972 
L 46.865785 19.656897 
L 46.967557 19.283996 
L 47.347875 19.108384 
L 47.538611 19.209629 
L 49.014162 20.50568 
L 49.811542 20.814533 
L 50.669852 20.343663 
L 52.557338 17.859784 
L 53.358692 17.23049 
L 53.185176 16.577626 
L 53.511016 16.446046 
L 54.791858 16.663659 
L 56.691265 15.246745 
L 56.995912 14.276968 
L 56.813124 14.088085 
L 56.450197 13.959917 
L 56.153497 13.666486 
L 56.018393 13.373066 
L 56.134953 13.241536 
L 57.509838 13.204438 
L 58.056878 13.002089 
L 58.590673 12.533332 
L 59.550973 12.135414 
L 62.349751 11.89937 
L 62.935203 11.695366 
L 63.12329 11.110356 
L 63.584234 10.931658 
L 64.164388 11.022693 
L 64.712752 11.260398 
L 66.159163 12.327626 
L 66.712826 12.391698 
L 66.712826 12.132042 
L 66.379039 11.735829 
L 66.715475 11.262084 
L 67.843993 10.410757 
L 67.221454 11.462706 
L 66.997604 12.105065 
L 67.458548 12.67834 
L 70.502369 16.081684 
L 71.486511 16.604616 
L 72.530258 16.351581 
L 72.711722 16.118794 
L 73.197832 15.246745 
L 73.513076 15.216385 
L 74.35814 15.261925 
L 74.531656 15.09326 
L 74.723716 14.388276 
L 75.211151 14.022314 
L 75.858857 13.93968 
L 79.221895 14.890866 
L 82.153128 16.155905 
L 85.171783 16.56413 
L 88.638135 17.545975 
L 89.798443 17.667448 
L 91.039548 17.512233 
L 93.704547 16.540513 
L 94.557558 15.754446 
L 95.345667 16.208197 
L 95.504613 16.351581 
L 96.887445 16.496654 
L 103.24397 15.815169 
L 104.326129 15.852278 
L 105.391069 16.405561 
L 106.146064 17.002741 
L 106.654692 17.169756 
L 107.445449 17.23049 
L 108.089182 17.103962 
L 108.632248 16.796929 
L 111.726401 14.425379 
L 112.901279 12.958247 
L 114.025824 12.398442 
L 115.158316 12.061228 
L 119.811467 11.852162 
L 120.550567 11.501482 
L 121.816839 10.361872 
L 122.502957 9.424673 
L 122.795683 8.423536 
L 122.275134 7.584289 
L 120.214131 7.220304 
L 119.228664 6.911941 
L 119.386286 6.451943 
L 120.235323 6.366013 
L 124.494345 7.37705 
L 125.71632 7.550586 
L 129.668783 8.919034 
L 129.833027 10.410757 
L 130.07542 10.410757 
L 130.124429 10.001139 
L 130.297945 9.844377 
L 130.834997 9.860767 
L 131.124265 10.392097 
L 132.389584 11.588235 
L 133.835199 12.342254 
L 136.292145 13.142366 
L 140.412833 12.664004 
L 143.920019 12.540725 
L 145.80464 11.572665 
L 148.167011 9.454555 
L 149.729605 8.308334 
L 152.198088 8.238153 
L 153.798826 8.898159 
L 156.933924 10.648624 
L 162.725367 12.867347 
L 163.190047 13.30521 
L 162.585317 14.57842 
L 162.577965 16.263455 
L 163.262408 17.083196 
L 163.905534 17.195931 
L 164.705794 16.874891 
L 164.911007 15.653392 
L 165.221515 15.682637 
L 165.440953 16.200394 
L 166.015306 16.693421 
L 166.836591 16.535981 
L 169.207003 16.906498 
L 169.497373 16.473967 
L 170.008613 16.206204 
L 169.323189 15.84781 
L 168.503985 15.624367 
L 165.934271 15.089753 
L 164.141283 14.072411 
L 163.855646 13.418348 
L 169.638937 14.790833 
L 172.56382 15.167051 
L 174.493304 15.291895 
L 175.157484 15.569363 
L 188.193583 29.086507 
L 191.881667 31.729287 
L 193.027404 31.96587 
L 193.316156 32.153451 
L 193.538681 32.559045 
L 193.558549 32.883534 
L 193.345296 33.096486 
L 192.86051 33.172541 
L 192.290953 32.898744 
L 191.056471 31.69549 
L 190.137232 31.303454 
L 189.215343 30.593777 
L 188.227227 30.58195 
L 187.796748 30.465366 
L 187.415277 30.002424 
L 187.860327 29.742241 
L 187.578197 29.225277 
L 186.507959 27.733684 
L 186.285434 27.733684 
L 185.92913 27.95158 
L 185.492028 27.63234 
L 185.035057 27.156035 
L 184.617823 26.911136 
L 183.950249 27.014162 
L 183.644278 27.272575 
L 183.408507 27.63234 
L 182.950212 28.017456 
L 182.743582 27.845165 
L 181.840238 27.449922 
L 182.432312 26.742245 
L 182.507812 26.472025 
L 182.351515 26.375761 
L 181.617713 26.286254 
L 181.37532 26.345363 
L 181.283926 26.792912 
L 181.493205 27.50566 
L 182.134288 29.036069 
L 182.062762 29.177974 
L 181.840238 29.177974 
L 180.865367 26.840201 
L 180.505089 26.345363 
L 180.134215 26.265988 
L 178.764628 26.566601 
L 177.818898 26.345363 
L 178.070563 27.287776 
L 178.279842 27.610382 
L 178.87589 27.870502 
L 178.883838 28.215088 
L 178.708997 29.177974 
L 178.931521 29.177974 
L 179.032187 28.542795 
L 179.683867 28.164413 
L 179.977918 27.014162 
L 180.285214 26.890869 
L 180.588536 27.117188 
L 181.029612 28.475226 
L 181.556784 29.573295 
L 181.748844 30.509296 
L 181.050805 30.904676 
L 180.706421 31.367666 
L 180.955437 32.417085 
L 181.5091 33.554519 
L 182.062762 34.281336 
L 182.902528 34.832405 
L 183.596594 35.038641 
L 183.906539 34.649838 
L 183.596594 33.431135 
L 184.033696 33.85707 
L 184.420465 34.419945 
L 184.574113 35.062308 
L 184.306554 35.725005 
L 184.751603 36.411422 
L 185.379441 36.539919 
L 186.970228 36.29307 
L 186.970228 36.575425 
L 186.44438 36.636294 
L 186.084102 36.859481 
L 186.084102 37.118181 
L 186.354311 37.824997 
L 186.754326 38.472679 
L 187.28812 38.944518 
L 187.971589 39.130555 
L 188.563664 39.040919 
L 189.321307 38.802457 
L 190.049811 38.440547 
L 190.546518 37.995791 
L 190.134582 37.500329 
L 188.51598 36.291379 
L 188.274911 35.806155 
L 187.621907 35.692883 
L 185.134399 34.602507 
L 184.729086 34.281336 
L 183.974091 32.932546 
L 183.596594 32.579325 
L 184.204563 32.053745 
L 184.931742 31.729287 
L 187.836485 33.307753 
L 188.489489 34.592364 
L 188.937187 34.99807 
L 189.488201 35.29898 
L 190.415387 35.54242 
L 190.800832 35.877162 
L 191.416749 36.859481 
L 190.749175 37.427618 
L 190.749175 37.686335 
L 191.284294 37.833452 
L 191.73729 37.425927 
L 192.088297 37.371817 
L 192.326716 38.589368 
L 192.326716 40.547943 
L 192.56646 40.847349 
L 192.812827 40.828741 
L 192.978396 40.531028 
L 192.971773 39.982991 
L 193.21549 39.982991 
L 193.504243 40.791527 
L 193.7771 40.598689 
L 194.325465 39.38763 
L 194.831444 39.025698 
L 195.505641 38.777089 
L 196.669922 38.589368 
L 196.812974 38.393196 
L 196.791781 37.118181 
L 197.009007 36.940641 
L 197.46068 37.05731 
L 199.570691 37.567967 
L 200.124354 37.427618 
L 200.124354 37.686335 
L 199.930969 37.934914 
L 200.124354 39.840913 
L 199.954811 40.46675 
L 199.578638 40.727247 
L 199.205115 40.547943 
L 198.915038 39.629491 
L 198.295147 39.411309 
L 198.013018 39.38763 
L 197.818309 39.558454 
L 196.993113 41.542617 
L 197.071261 41.924952 
L 197.255374 41.994316 
L 197.659362 41.684722 
L 197.46068 41.062182 
L 197.659362 40.547943 
L 197.901755 40.547943 
L 197.969308 41.567992 
L 198.191832 42.298845 
L 198.601119 42.578005 
L 199.236904 42.253165 
L 199.411745 42.014617 
L 199.901829 41.141689 
L 200.158792 40.938695 
L 201.617124 40.287452 
L 201.458178 39.698837 
L 201.136311 39.252327 
L 200.94955 39.010476 
L 200.464764 37.206108 
L 200.060775 36.736051 
L 199.456779 37.118181 
L 198.489857 36.401277 
L 198.009044 36.2694 
L 197.436838 36.575425 
L 197.23683 36.29307 
L 197.436838 35.725005 
L 196.912315 35.637093 
L 195.504316 34.994689 
L 195.215564 34.730978 
L 194.87383 34.261052 
L 194.194334 33.990602 
L 193.68968 33.625508 
L 193.883065 32.863253 
L 194.416859 32.540455 
L 194.924162 32.883534 
L 195.382457 33.429445 
L 196.121557 33.85707 
L 199.638243 36.123999 
L 204.018537 38.173353 
L 205.702042 39.698837 
L 206.084838 40.481974 
L 206.60936 43.153273 
L 207.181567 44.82514 
L 208.046499 46.4093 
L 209.038589 47.396154 
L 213.054545 49.377109 
L 212.624542 49.465002 
L 211.526078 49.385439 
L 211.07273 49.491882 
L 210.213135 49.981102 
L 208.636932 49.981102 
L 208.001908 49.581122 
L 208.027141 49.361786 
L 208.414884 49.126327 
L 206.979983 48.93818 
L 206.420658 48.98441 
L 205.92862 49.385439 
L 205.759561 48.833895 
L 204.595492 47.964177 
L 204.283447 48.685531 
L 203.77627 49.380064 
L 203.116855 49.869278 
L 202.353144 49.981102 
L 202.053716 49.776809 
L 201.485139 48.816693 
L 201.057024 48.726385 
L 200.728999 48.772614 
L 200.618816 48.98226 
L 200.83834 49.385439 
L 200.613769 49.917664 
L 200.594424 50.548846 
L 200.27481 50.181099 
L 200.093134 50.359594 
L 200.05108 50.843485 
L 200.150328 51.401603 
L 199.483344 51.116625 
L 199.707074 51.684439 
L 199.238586 51.857587 
L 198.427775 52.66099 
L 197.630421 53.032063 
L 197.470614 53.482749 
L 197.261182 54.552007 
L 197.018948 54.552007 
L 196.74223 54.114177 
L 196.143373 53.893657 
L 195.420876 53.846326 
L 194.77576 53.957123 
L 194.168493 54.316416 
L 194.042329 54.778999 
L 194.351009 55.974291 
L 194.109616 55.974291 
L 193.986817 55.619238 
L 193.745424 55.430957 
L 192.998536 55.405136 
L 193.064982 56.051759 
L 192.388745 56.37993 
L 190.573672 56.517657 
L 190.966461 57.208477 
L 191.219629 57.421544 
L 190.61909 57.428001 
L 189.973133 57.686271 
L 189.393622 58.08768 
L 188.997468 58.532155 
L 188.695516 58.130727 
L 188.331324 57.964995 
L 188.532345 58.532155 
L 188.116005 58.393322 
L 187.592006 57.695956 
L 187.199216 57.421544 
L 187.031839 58.759244 
L 187.199216 59.101502 
L 183.981204 59.314613 
L 183.421879 59.23066 
L 183.359638 58.908846 
L 183.192261 58.794761 
L 182.300705 58.76032 
L 182.093797 58.420227 
L 181.348591 57.831551 
L 181.110562 57.853074 
L 180.75394 58.22328 
L 181.357002 59.583699 
L 181.642131 59.928141 
L 181.642131 60.240302 
L 181.281303 60.397463 
L 180.854871 60.240302 
L 180.557966 60.319958 
L 180.06761 60.833437 
L 179.27362 61.120868 
L 178.79504 61.167159 
L 178.400568 60.964771 
L 177.379484 59.670885 
L 176.63596 59.269407 
L 176.226349 59.306002 
L 176.046356 59.80005 
L 176.214574 61.75497 
L 176.048038 62.672287 
L 175.380212 63.110521 
L 175.019384 63.078218 
L 173.484394 62.578613 
L 173.251412 61.49551 
L 172.934321 61.093954 
L 171.453161 63.852442 
L 170.239467 64.383345 
L 169.035866 65.100597 
L 168.5371 64.915356 
L 167.852452 64.316577 
L 167.358732 64.506114 
L 167.579939 63.394791 
L 165.203017 63.306494 
L 164.469586 63.110521 
L 163.208791 62.434336 
L 162.585543 62.350354 
L 161.984163 62.79934 
L 161.153166 60.676268 
L 160.487863 60.115436 
L 160.520666 59.561096 
L 160.430669 59.05845 
L 159.78303 58.957279 
L 159.800692 58.875481 
L 160.156474 58.350273 
L 159.677893 57.364511 
L 158.962966 56.701655 
L 158.11767 56.385309 
L 157.260599 56.431577 
L 155.314316 56.871669 
L 154.780223 57.257977 
L 153.288128 59.051993 
L 151.686692 60.570773 
L 151.397357 61.222063 
L 151.120638 63.012535 
L 150.441037 63.283882 
L 150.616825 63.689839 
L 151.53866 64.506114 
L 150.6286 65.671422 
L 151.473055 65.670345 
L 151.231662 66.372614 
L 150.072639 67.819326 
L 149.384627 68.224402 
L 148.832031 67.710519 
L 148.312237 66.997377 
L 147.719268 66.808867 
L 147.461053 67.402418 
L 147.31975 68.559464 
L 147.138074 70.937565 
L 146.38614 71.933376 
L 146.347449 72.198512 
L 146.38614 73.099599 
L 145.496266 73.954417 
L 146.020265 74.38455 
L 146.601459 75.045419 
L 147.019481 75.877768 
L 147.052283 76.828805 
L 146.674634 77.517881 
L 146.005126 78.023666 
L 145.19095 78.360151 
L 144.385185 78.538105 
L 142.814869 78.628701 
L 141.557439 79.43871 
L 141.01073 80.50876 
L 140.874473 80.545437 
L 140.384118 80.50876 
L 139.696105 81.496935 
L 139.38322 82.151819 
L 138.878566 84.014217 
L 138.142611 85.406393 
L 136.744719 86.635775 
L 135.573921 87.037327 
L 135.386358 87.591108 
L 135.314024 88.257197 
L 135.01039 88.829401 
L 133.864785 89.200809 
L 133.586424 89.263434 
L 132.873179 89.558199 
L 132.248249 90.549451 
L 131.106889 90.985721 
L 131.113618 91.466287 
L 130.973997 91.512725 
L 130.989136 91.709279 
L 130.510556 91.605601 
L 129.849459 92.321645 
L 129.434801 92.565738 
L 128.519695 92.418849 
L 128.36157 92.647824 
L 128.322879 93.563774 
L 127.865326 95.627132 
L 127.988125 95.991235 
L 128.475958 96.181395 
L 128.660998 96.666535 
L 128.592028 97.313786 
L 128.322879 97.989176 
L 127.94523 98.286362 
L 127.512068 97.67579 
L 126.088943 97.636887 
L 125.368128 97.324592 
L 124.849175 96.534713 
L 124.149388 94.951902 
L 123.434461 94.557589 
L 122.990365 94.592158 
L 122.394873 94.825504 
L 121.942367 94.631049 
L 121.723683 94.376102 
L 121.018849 93.209481 
L 118.719308 91.120709 
L 118.626788 90.012781 
L 118.978364 89.114435 
L 118.986774 88.651258 
L 116.495464 89.114435 
L 116.048004 89.404877 
L 115.682971 89.8195 
L 114.771229 91.614241 
L 113.652578 92.341086 
L 112.528881 94.535983 
L 110.395876 97.406717 
L 109.881128 98.426853 
L 109.437033 100.297734 
L 109.058542 100.834961 
L 108.572392 101.132231 
L 107.975217 101.316003 
L 106.067624 101.410052 
L 105.566334 101.112773 
L 105.053269 100.450143 
L 104.577212 100.534456 
L 103.667152 101.013322 
L 103.090163 100.809017 
L 102.011885 100.066422 
L 100.726699 100.16154 
L 98.072217 100.796046 
L 96.652457 100.57337 
L 95.971173 100.646874 
L 94.857569 101.438159 
L 94.702809 101.608963 
L 94.571599 102.446813 
L 94.509358 105.782685 
L 94.770137 106.125464 
L 95.178866 106.666308 
L 95.200734 107.335835 
L 94.998873 108.676105 
L 95.015694 109.38904 
L 96.067058 114.41345 
L 96.013228 115.066165 
L 95.599411 116.223402 
L 95.548946 116.822098 
L 95.673427 117.240015 
L 96.299199 117.672024 
L 96.603673 118.460298 
L 96.797124 119.660149 
L 96.726473 120.304531 
L 96.474145 120.855806 
L 95.560721 121.776469 
L 95.252882 121.878288 
L 94.948407 121.756971 
L 93.074457 120.593703 
L 92.514291 120.534135 
L 91.991133 120.723671 
L 91.560495 121.096254 
L 89.733646 123.199864 
L 89.501505 123.762126 
L 89.271046 125.298479 
L 89.575521 126.077576 
L 89.294597 128.284065 
L 89.377023 128.548527 
L 89.688227 128.802158 
L 89.600754 129.212965 
L 89.4359 129.428672 
L 88.771438 129.913217 
L 87.63933 131.919921 
L 86.127891 133.002028 
L 85.951262 133.686263 
L 85.566883 133.653731 
L 84.818313 133.073594 
L 84.336368 133.008534 
L 76.869491 133.611721 
L 76.882736 133.599767 
L 77.197979 133.321415 
L 77.29997 132.785224 
L 77.53574 132.373706 
L 77.885422 132.073189 
L 78.330471 131.863174 
L 78.330471 131.601941 
L 77.431101 131.564379 
L 76.783395 131.402179 
L 76.291986 131.047056 
L 75.654876 130.017607 
L 75.607192 129.793975 
L 75.664148 129.128229 
L 75.870778 129.029225 
L 77.197979 128.711733 
L 75.314466 128.081898 
L 74.248202 127.935113 
L 73.44155 128.165533 
L 73.35148 126.54758 
L 72.906431 124.892337 
L 72.278593 123.428431 
L 71.642808 122.386078 
L 71.319618 121.509285 
L 70.752709 121.529754 
L 70.417598 120.813361 
L 70.474553 120.467122 
L 71.029541 119.846309 
L 71.575256 119.529095 
L 71.865333 119.21189 
L 72.755432 117.781178 
L 73.195183 117.907359 
L 73.709109 117.74878 
L 74.754181 117.237252 
L 74.710471 116.638796 
L 74.754181 116.352368 
L 74.050844 115.597122 
L 73.75282 115.518703 
L 73.099815 115.672133 
L 72.841528 115.602237 
L 72.531583 115.206735 
L 71.804404 115.939789 
L 71.642808 116.352368 
L 71.583203 116.915002 
L 71.718308 117.446976 
L 71.400415 117.781178 
L 71.197759 117.811871 
L 70.067916 117.781178 
L 69.266562 117.949988 
L 68.955292 117.781178 
L 68.955292 117.494718 
L 69.421535 117.494718 
L 69.421535 117.237252 
L 68.804293 117.070158 
L 68.168508 116.782013 
L 67.597626 116.720634 
L 67.176419 117.237252 
L 66.956543 117.237252 
L 67.016148 116.824638 
L 67.379075 115.779536 
L 66.934026 115.561322 
L 66.830711 115.101043 
L 66.956543 113.919754 
L 66.779053 113.289107 
L 66.37374 113.396484 
L 65.602851 114.349298 
L 65.900875 115.53916 
L 65.422712 116.650731 
L 64.54056 117.469142 
L 63.622646 117.781178 
L 63.039843 117.641357 
L 62.27955 117.054813 
L 61.657011 116.793948 
L 61.490117 116.091521 
L 60.952349 116.006278 
L 60.491405 115.789765 
L 63.055095 114.318198 
L 63.616944 113.51617 
L 63.693483 112.978272 
L 63.635448 112.420922 
L 63.468071 111.918793 
L 63.217426 111.553033 
L 62.743892 111.321464 
L 62.054198 111.609303 
L 61.718603 111.457808 
L 61.377961 110.501275 
L 61.568888 109.343601 
L 62.34942 106.978893 
L 62.423436 106.216375 
L 62.396522 104.663396 
L 62.514274 103.924841 
L 63.284713 102.573307 
L 63.073599 101.880311 
L 63.237612 101.197091 
L 64.188044 98.69163 
L 63.615262 98.403078 
L 61.980182 96.720561 
L 61.356093 96.371558 
L 61.09199 95.875628 
L 60.774899 94.77581 
L 60.467901 94.473327 
L 59.979227 94.499254 
L 59.067485 95.547182 
L 58.753758 95.573112 
L 57.791551 95.381883 
L 57.538383 95.491002 
L 56.970646 95.989074 
L 56.747758 95.908041 
L 56.082987 95.470154 
L 56.011803 95.452108 
L 55.524812 95.616328 
L 54.041128 96.543357 
L 53.770297 95.506127 
L 53.238728 94.713152 
L 52.63903 94.029342 
L 52.167178 93.321816 
L 51.69028 91.769758 
L 51.315995 91.382051 
L 50.458083 91.321575 
L 48.241809 91.560243 
L 46.887653 91.254619 
L 46.568039 91.40581 
L 46.552899 91.546204 
L 46.652148 92.522535 
L 47.0012 92.970773 
L 46.845599 93.54217 
L 46.637008 93.60266 
L 46.348514 93.54433 
L 45.959089 93.752807 
L 45.614988 94.337461 
L 45.248368 94.887082 
L 44.894269 95.038329 
L 44.499797 95.07506 
L 44.14738 95.237113 
L 43.921127 95.761103 
L 43.193584 95.497484 
L 42.981629 95.51477 
L 42.879857 95.663866 
L 42.817616 96.291603 
L 42.579588 96.261349 
L 42.060635 96.0042 
L 41.74859 95.982591 
L 40.43733 96.346707 
L 39.844361 96.660052 
L 39.235412 97.123605 
L 38.367406 97.177633 
L 38.654218 96.586577 
L 38.63235 95.916684 
L 38.189095 94.421474 
L 38.390957 92.808757 
L 38.189095 92.254682 
L 38.377499 92.228761 
L 38.412825 91.995477 
L 38.121808 91.638001 
L 37.806399 91.472767 
L 36.372339 91.336694 
L 33.906262 90.351841 
L 33.076947 90.282732 
L 32.048293 90.538653 
L 32.052411 90.463794 
L 31.991099 89.899403 
L 31.594945 89.367087 
L 31.443549 89.297985 
L 30.745444 89.181377 
L 30.234902 88.763542 
L 30.253406 88.175148 
L 30.44938 87.487474 
L 30.476295 86.780418 
L 30.243313 86.304399 
L 29.959024 86.341098 
L 29.235686 86.789053 
L 27.808356 86.655204 
L 27.236414 86.760988 
L 27.022777 85.582318 
L 26.534103 84.333645 
L 25.85282 83.261014 
L 25.047055 82.619004 
L 24.538196 82.606056 
L 23.381696 83.220011 
L 23.094884 82.961044 
L 22.523784 80.842096 
L 22.223515 80.390099 
L 21.397564 79.608055 
L 21.251214 79.233775 
L 21.121686 77.954644 
L 20.913937 77.438079 
L 20.393302 77.113488 
L 19.283062 76.951735 
L 18.912141 76.553836 
L 19.068584 75.718193 
L 18.835602 74.920357 
L 18.489073 74.421204 
L 18.298145 74.375926 
L 18.010492 74.475107 
L 17.752277 74.806078 
L 17.28379 75.933836 
L 16.97511 76.285344 
L 15.472081 75.726819 
L 14.64613 74.997981 
L 12.985817 74.555962 
L 11.975668 73.958729 
L 10.216106 73.607307 
L 10.216106 73.607307 
" clip-path="url(#pc14cc21a7a)" style="fill: none; stroke: #000000; stroke-width: 0.5; stroke-linecap: square"/>
   </g>
  </g>
 </g>
 <defs>
  <clipPath id="pc14cc21a7a">
   <rect x="0" y="0" width="223.2" height="140.052275"/>
  </clipPath>
 </defs>
</svg>
