<?xml version="1.0" encoding="utf-8" standalone="no"?>
<!DOCTYPE svg PUBLIC "-//W3C//DTD SVG 1.1//EN"
  "http://www.w3.org/Graphics/SVG/1.1/DTD/svg11.dtd">
<svg xmlns:xlink="http://www.w3.org/1999/xlink" width="223.2pt" height="84.255158pt" viewBox="0 0 223.2 84.255158" xmlns="http://www.w3.org/2000/svg" version="1.1">
 <metadata>
  <rdf:RDF xmlns:dc="http://purl.org/dc/elements/1.1/" xmlns:cc="http://creativecommons.org/ns#" xmlns:rdf="http://www.w3.org/1999/02/22-rdf-syntax-ns#">
   <cc:Work>
    <dc:type rdf:resource="http://purl.org/dc/dcmitype/StillImage"/>
    <dc:date>2026-04-26T19:21:58.896359</dc:date>
    <dc:format>image/svg+xml</dc:format>
    <dc:creator>
     <cc:Agent>
      <dc:title>Matplotlib v3.10.9, https://matplotlib.org/</dc:title>
     </cc:Agent>
    </dc:creator>
   </cc:Work>
  </rdf:RDF>
 </metadata>
 <defs>
  <style type="text/css">*{stroke-linejoin: round; stroke-linecap: butt}</style>
 </defs>
 <g id="figure_1">
  <g id="patch_1">
   <path d="M 0 84.255158 
L 223.2 84.255158 
L 223.2 0 
L 0 0 
z
" style="fill: #ffffff"/>
  </g>
  <g id="axes_1">
   <g id="patch_2">
    <path d="M 213.054545 20.343442 
L 212.563001 20.688264 
L 211.811772 21.525845 
L 211.323318 21.796406 
L 210.123825 22.064259 
L 209.644646 22.265872 
L 209.323133 22.627053 
L 209.335499 22.855688 
L 209.486981 23.028398 
L 209.545719 23.223931 
L 209.292218 23.524539 
L 209.112912 23.596418 
L 208.466794 23.636506 
L 207.857773 23.805164 
L 207.492978 23.978682 
L 206.754115 24.565068 
L 205.879227 25.026466 
L 204.787936 25.31085 
L 203.64409 25.410502 
L 202.611536 25.308082 
L 200.394947 24.602417 
L 199.476779 24.731763 
L 198.988325 25.789106 
L 198.645171 25.9871 
L 198.249462 26.085415 
L 197.819747 26.108263 
L 196.437857 25.982253 
L 196.057605 26.004408 
L 195.525871 26.120727 
L 194.972497 26.306994 
L 194.632434 26.518913 
L 193.977041 27.118828 
L 193.748272 27.258798 
L 193.24127 27.481948 
L 193.021775 27.648294 
L 192.910481 27.847935 
L 192.808463 28.340225 
L 192.715718 28.571868 
L 191.973764 29.214287 
L 191.884111 29.39194 
L 191.862471 29.590438 
L 191.817344 29.765669 
L 191.809916 29.794517 
L 191.65225 29.997237 
L 191.415608 30.105562 
L 191.247267 30.182626 
L 189.781907 30.408319 
L 187.923929 31.258635 
L 187.039767 31.848041 
L 186.470935 32.506544 
L 186.548222 33.344887 
L 186.810997 34.277729 
L 186.851187 35.177032 
L 186.25144 35.924906 
L 184.919014 36.166149 
L 184.381097 36.368377 
L 183.836997 36.744319 
L 182.680784 37.779187 
L 182.498387 38.094749 
L 182.155233 39.062809 
L 181.997568 39.308769 
L 181.651322 39.70994 
L 181.527663 40.009842 
L 181.518389 40.323793 
L 181.589493 40.568567 
L 181.598767 40.818279 
L 181.41637 41.151995 
L 181.16596 41.369617 
L 180.504384 41.759457 
L 180.219969 42.018475 
L 180.087035 42.264234 
L 179.938644 42.742569 
L 179.737698 42.981445 
L 179.131769 43.350693 
L 177.657134 43.95907 
L 176.989375 44.351004 
L 175.820797 45.220786 
L 175.864196 45.309437 
L 175.935181 45.454452 
L 176.191774 45.531647 
L 176.479281 45.566737 
L 176.68641 45.672012 
L 176.955369 45.989287 
L 176.973918 46.017368 
L 176.859533 46.044045 
L 176.290701 47.386954 
L 176.0372 47.585122 
L 174.670767 48.283844 
L 174.537834 48.314781 
L 174.500736 48.387907 
L 174.454364 48.708581 
L 174.482187 49.040579 
L 174.584206 49.331139 
L 174.59348 49.625978 
L 174.343071 49.973668 
L 174.033923 50.141912 
L 172.942632 50.325665 
L 172.318153 50.691829 
L 171.93481 51.135573 
L 171.294875 52.235643 
L 171.161941 52.365365 
L 171.059922 52.511316 
L 170.99191 52.67068 
L 170.964086 52.834998 
L 171.029008 52.911874 
L 171.106294 52.976058 
L 171.195947 53.028253 
L 172.002823 53.374624 
L 171.900804 53.913739 
L 171.356704 54.423396 
L 170.756958 54.636628 
L 169.940808 54.727014 
L 169.619294 55.047645 
L 169.56085 55.150974 
L 169.35961 55.506818 
L 168.738223 56.022672 
L 168.092104 56.238959 
L 166.991539 56.185238 
L 166.351603 56.288441 
L 165.894064 56.636274 
L 165.724033 57.153224 
L 165.606557 58.202521 
L 165.23558 58.704432 
L 164.719303 59.117272 
L 164.298862 59.552185 
L 164.224667 60.11691 
L 165.099555 61.173944 
L 165.288135 61.776876 
L 164.595644 62.112493 
L 163.328138 62.147266 
L 162.743849 62.279266 
L 162.239938 62.654037 
L 161.936974 63.250456 
L 161.813315 64.473845 
L 161.556722 65.005565 
L 161.213568 65.423679 
L 160.926061 65.567343 
L 160.051173 65.563075 
L 159.859501 65.627088 
L 158.431239 66.735647 
L 157.893322 66.866621 
L 157.309033 66.543477 
L 157.101904 66.384066 
L 156.866952 66.308636 
L 156.610359 66.308636 
L 156.338309 66.384066 
L 155.747837 66.398298 
L 154.631814 66.089483 
L 154.096988 66.016913 
L 153.892951 66.058178 
L 153.453961 66.214709 
L 153.157179 66.231786 
L 152.912952 66.156364 
L 152.375035 65.863248 
L 152.096803 65.772194 
L 151.497056 65.755122 
L 150.869486 65.867516 
L 150.531831 65.983868 
L 150.266648 66.075253 
L 149.094978 66.697211 
L 148.965136 66.850961 
L 148.980594 67.110092 
L 149.258827 67.722499 
L 149.255735 67.94331 
L 149.0146 68.097184 
L 148.730184 68.068688 
L 148.451951 68.005998 
L 148.226273 68.058714 
L 148.077882 68.263899 
L 148.049093 68.598106 
L 148.043876 68.658672 
L 147.883119 68.930939 
L 147.425581 69.256011 
L 146.841292 69.447095 
L 145.153345 69.675286 
L 144.930759 69.671007 
L 144.569056 69.582579 
L 144.272274 69.452799 
L 143.400478 68.939492 
L 142.216442 68.621613 
L 140.995309 68.443458 
L 140.26572 69.194699 
L 135.452291 69.280252 
L 134.243523 70.265886 
L 132.617406 69.374366 
L 132.079489 69.233197 
L 131.32826 69.465634 
L 131.108765 69.482748 
L 130.879996 69.402887 
L 130.57394 69.130537 
L 130.413183 69.047843 
L 129.92473 68.972282 
L 129.631039 68.995092 
L 128.876719 69.238901 
L 128.026563 69.303067 
L 126.774515 68.849681 
L 124.86089 68.735643 
L 123.658306 68.905278 
L 123.200747 69.026611 
L 120.712128 69.686696 
L 120.189669 69.618235 
L 118.362198 68.86888 
L 117.710304 68.601659 
L 117.088917 68.471961 
L 116.44589 68.450584 
L 114.70848 68.668649 
L 114.071636 68.655821 
L 113.518261 68.718538 
L 112.779398 68.932364 
L 112.083816 69.230345 
L 111.651009 69.544072 
L 111.703564 69.770851 
L 111.926151 70.023342 
L 112.003438 70.251618 
L 111.215111 70.525593 
L 111.004891 70.711125 
L 110.853408 70.918091 
L 110.640096 71.109381 
L 110.136186 71.373514 
L 109.879593 71.442053 
L 109.548805 71.474896 
L 109.174736 71.587709 
L 108.93051 71.827643 
L 108.707923 72.104756 
L 108.401867 72.32191 
L 107.901048 72.433356 
L 106.794299 72.437642 
L 106.250199 72.516231 
L 105.991425 72.641394 
L 105.650453 72.80633 
L 105.427866 73.147944 
L 105.28875 73.485344 
L 104.948687 73.767044 
L 104.11708 73.870012 
L 101.495508 73.694111 
L 100.83084 73.44388 
L 100.83084 73.439591 
L 100.388759 72.894942 
L 99.714817 72.732013 
L 99.025417 72.920669 
L 98.555513 73.44388 
L 98.521507 74.26479 
L 97.992864 74.359208 
L 97.235452 74.289109 
L 96.524413 74.615311 
L 96.431668 74.715474 
L 96.400753 74.817075 
L 96.43476 74.920113 
L 96.663529 75.156269 
L 96.731542 75.273644 
L 96.694444 75.362398 
L 96.524413 75.416797 
L 95.952489 75.247878 
L 94.116152 75.1577 
L 93.674071 75.179171 
L 93.377289 75.40105 
L 93.043409 75.521307 
L 92.443663 75.635847 
L 91.933569 75.863519 
L 91.757448 75.867518 
L 91.618239 75.870679 
L 91.231804 75.644437 
L 90.931931 75.937985 
L 90.798997 76.191483 
L 90.666064 76.384856 
L 90.353825 76.498026 
L 89.98903 76.46651 
L 88.808086 76.065445 
L 87.327269 75.734644 
L 86.767711 75.811968 
L 86.090678 76.245911 
L 85.979385 76.386289 
L 85.889732 76.720093 
L 85.809353 76.890605 
L 85.766073 76.89777 
L 85.323991 77.223084 
L 84.668598 78.048856 
L 84.309987 78.332816 
L 83.01775 79.050116 
L 82.238697 79.239538 
L 81.567847 79.034332 
L 81.079394 79.248148 
L 80.040657 80.083604 
L 79.471826 80.373677 
L 79.252331 80.412453 
L 79.048293 80.425378 
L 78.844256 80.412453 
L 78.646401 80.376549 
L 78.637127 80.373677 
L 78.139399 79.957252 
L 77.66022 79.951509 
L 77.174858 80.129552 
L 76.658582 80.260226 
L 76.145396 80.13386 
L 75.62912 79.770615 
L 74.948995 79.764872 
L 74.030826 79.317035 
L 73.47436 79.202225 
L 71.013545 79.202225 
L 70.750769 79.256759 
L 70.234492 79.500748 
L 69.909887 79.581129 
L 69.563642 79.581129 
L 66.41961 79.014243 
L 64.35171 79.014243 
L 63.859867 79.014243 
L 63.581634 79.114689 
L 63.439426 79.332822 
L 63.269395 79.532325 
L 62.910783 79.581129 
L 62.907692 79.4663 
L 62.31722 78.806197 
L 61.448515 78.395925 
L 57.803663 77.66889 
L 57.12663 77.640217 
L 56.882403 77.535565 
L 56.826932 77.34989 
L 56.783476 77.204452 
L 56.74947 76.886306 
L 56.594896 76.473673 
L 56.56089 76.248776 
L 56.341395 75.985244 
L 54.925498 75.018865 
L 53.824933 74.698303 
L 52.557427 74.528031 
L 50.006959 74.450771 
L 49.753457 74.553785 
L 49.669988 74.645359 
L 49.555603 74.731214 
L 49.394846 74.812781 
L 49.200083 74.362069 
L 48.884752 74.274804 
L 48.170621 74.450771 
L 47.573966 74.479385 
L 47.47813 74.397835 
L 47.524503 74.151782 
L 47.35138 73.678381 
L 47.029866 74.027339 
L 46.714536 73.978709 
L 46.415922 73.809057 
L 46.362107 73.778484 
L 45.923118 73.678381 
L 45.923118 73.489633 
L 46.127155 73.456748 
L 46.498132 73.346658 
L 46.720719 73.318064 
L 46.45176 73.07647 
L 45.963307 73.033588 
L 45.496494 72.920669 
L 45.289365 72.459075 
L 45.218261 72.18047 
L 44.844192 71.294984 
L 44.680344 71.035147 
L 43.483942 70.031901 
L 43.146971 69.904937 
L 40.720162 69.85073 
L 40.271898 69.710944 
L 38.828178 69.013626 
L 38.478841 68.772704 
L 38.33045 68.474812 
L 38.083132 68.268174 
L 36.491021 67.439052 
L 36.206605 67.194105 
L 35.470834 66.311482 
L 34.351719 65.473462 
L 34.135316 65.353985 
L 33.931278 65.191853 
L 33.634542 64.644321 
L 33.408819 64.227952 
L 33.507746 63.797378 
L 33.220239 63.349882 
L 33.039261 63.195341 
L 32.771974 62.967128 
L 32.388631 62.725027 
L 32.230966 62.723607 
L 32.166045 62.849268 
L 32.085667 62.940857 
L 31.887812 62.828679 
L 31.75797 62.722188 
L 31.631219 62.63842 
L 31.498286 62.574533 
L 31.365352 62.537621 
L 30.558477 62.422633 
L 30.345165 62.333914 
L 30.122579 62.725027 
L 29.918541 62.725027 
L 29.553747 62.237393 
L 28.641761 61.879043 
L 28.079112 61.413669 
L 27.596842 60.890294 
L 27.052742 60.464919 
L 26.406623 60.18282 
L 25.612114 60.08431 
L 25.343155 59.975178 
L 25.108203 59.949667 
L 24.922714 60.043208 
L 24.792872 60.287715 
L 24.610475 60.287715 
L 24.211675 60.033286 
L 22.919437 59.52314 
L 22.746315 59.436007 
L 22.313508 58.254899 
L 21.305686 57.709975 
L 20.202029 56.623547 
L 19.13547 56.223408 
L 18.59137 55.947756 
L 18.467247 55.74951 
L 18.353326 55.56758 
L 18.628467 55.2977 
L 19.197299 55.126048 
L 19.375412 55.017631 
L 19.611557 54.873903 
L 19.447709 54.357738 
L 18.999445 54.169252 
L 18.442979 54.148075 
L 18.286899 54.106055 
L 18.261973 54.099344 
L 18.028721 54.036549 
L 18.019446 53.577122 
L 17.605188 53.622282 
L 17.326956 53.415545 
L 17.070363 53.100907 
L 16.7303 52.826535 
L 16.319134 52.041786 
L 16.251122 51.940285 
L 16.290985 51.839148 
L 16.371689 51.634415 
L 16.638186 51.347991 
L 16.751941 51.225747 
L 16.95907 50.918615 
L 17.129101 50.586196 
L 17.197114 50.342563 
L 17.06418 50.205273 
L 16.62519 50.189784 
L 16.362415 50.102489 
L 16.22824 49.998451 
L 15.775034 49.647091 
L 15.468978 49.537309 
L 12.701457 49.686944 
L 11.382045 49.758288 
L 11.228576 49.734879 
L 10.145455 49.56968 
L 10.624633 49.429647 
L 11.007977 49.199571 
L 12.093085 48.275407 
L 12.43933 48.051837 
L 13.199834 47.704599 
L 13.824312 47.53874 
L 14.031441 47.438953 
L 14.232387 47.240804 
L 14.247845 47.0757 
L 14.223113 46.924664 
L 14.3004 46.758893 
L 14.603364 46.597355 
L 14.900146 46.556622 
L 15.141281 46.432323 
L 15.271123 46.020176 
L 15.555539 45.71974 
L 15.963614 45.685348 
L 17.079637 45.825026 
L 18.297679 45.733076 
L 18.931432 45.781507 
L 19.447709 46.022984 
L 19.608466 46.097401 
L 19.763039 46.12408 
L 19.908339 46.101614 
L 20.038181 46.027197 
L 20.038181 46.024388 
L 20.535909 45.966823 
L 21.314961 45.961207 
L 21.880701 45.876268 
L 21.747768 45.582177 
L 21.318052 45.336562 
L 20.891429 45.24815 
L 20.035089 45.182897 
L 20.409158 44.973828 
L 21.747768 44.636432 
L 22.084739 44.502478 
L 22.205306 44.353809 
L 22.100196 44.212869 
L 21.747768 44.10209 
L 21.14493 43.977297 
L 20.922343 43.619105 
L 21.117106 43.223162 
L 21.747768 42.980744 
L 22.430984 42.422495 
L 22.573192 42.105291 
L 22.208398 41.776257 
L 21.716853 41.746857 
L 20.70594 42.04648 
L 20.304048 41.88266 
L 20.313322 41.732858 
L 20.557549 41.270948 
L 20.548275 41.033052 
L 20.347329 40.858153 
L 20.096919 40.843463 
L 19.858875 40.856055 
L 19.67957 40.760919 
L 19.574459 40.314002 
L 20.035089 39.721124 
L 19.936162 39.249371 
L 19.936162 39.246576 
L 20.866697 38.937051 
L 21.290229 38.698139 
L 21.488084 38.336354 
L 21.367516 37.892279 
L 20.458622 36.721997 
L 20.378243 36.668286 
L 20.24531 36.636897 
L 20.109285 36.592257 
L 20.025815 36.489031 
L 20.044364 36.329324 
L 20.174206 36.256799 
L 20.322597 36.209381 
L 20.387518 36.12989 
L 20.313322 35.095507 
L 20.616287 34.754129 
L 20.990356 34.691436 
L 21.389156 34.861411 
L 21.747768 35.218145 
L 24.962904 34.319512 
L 26.086628 33.782846 
L 26.502459 33.584305 
L 26.381892 32.499589 
L 26.721954 32.274955 
L 27.593751 32.051053 
L 27.912173 31.707618 
L 27.946179 31.293381 
L 27.714318 30.956382 
L 27.30006 30.700037 
L 26.793058 30.526388 
L 26.959998 30.005568 
L 26.706497 29.46273 
L 26.184037 29.036656 
L 25.531735 28.854885 
L 24.545554 28.957562 
L 22.576283 28.469219 
L 21.747768 28.581579 
L 20.072187 28.170331 
L 19.531179 27.981044 
L 19.793954 27.779998 
L 20.248401 27.33364 
L 20.467896 27.199205 
L 20.641019 27.331561 
L 20.78941 27.415415 
L 20.928526 27.432741 
L 21.126381 27.358588 
L 21.481901 27.164559 
L 22.675211 26.782816 
L 22.928712 26.634581 
L 23.09256 26.403947 
L 23.040005 26.050796 
L 23.219311 25.791875 
L 24.316785 25.491475 
L 25.571925 25.586987 
L 27.967819 26.151192 
L 28.344979 26.311149 
L 28.505736 26.552158 
L 28.617029 26.834772 
L 28.845799 27.111899 
L 29.179678 27.321859 
L 29.501192 27.441058 
L 31.186047 27.601854 
L 31.448822 27.563733 
L 31.77961 27.366211 
L 32.366991 26.800135 
L 32.7627 26.597178 
L 33.198598 27.299683 
L 34.33317 27.425811 
L 36.704333 27.066169 
L 38.883824 26.8895 
L 39.499028 26.716316 
L 39.158966 26.587481 
L 38.905465 26.383171 
L 38.757074 26.11311 
L 38.701427 25.238192 
L 38.500481 24.695794 
L 38.460292 24.235196 
L 38.908556 23.934436 
L 38.713793 23.765071 
L 38.426286 23.265391 
L 38.191334 23.158981 
L 37.563764 22.984182 
L 37.375184 22.863978 
L 37.365909 22.57249 
L 37.739978 22.454393 
L 38.775623 22.315589 
L 39.267168 22.082209 
L 39.563949 21.812283 
L 39.737072 21.462353 
L 39.860731 20.986948 
L 39.798902 20.933828 
L 39.641236 20.903475 
L 39.492845 20.849669 
L 39.461931 20.733786 
L 39.542309 20.657916 
L 39.820542 20.544118 
L 39.87928 20.499291 
L 39.96275 20.270351 
L 40.108049 20.103496 
L 40.120415 19.938041 
L 39.805085 19.718842 
L 41.681611 18.777645 
L 42.772902 18.38234 
L 43.851828 18.521441 
L 45.090922 18.72861 
L 45.400658 18.7804 
L 47.35138 18.956741 
L 48.29428 19.423875 
L 51.364117 21.890287 
L 51.657807 22.053212 
L 51.966955 22.130539 
L 52.718184 22.225823 
L 52.996417 22.336305 
L 54.00733 23.248807 
L 54.372124 23.474779 
L 54.681272 23.467868 
L 54.981145 23.37941 
L 55.318116 23.349004 
L 55.763289 23.483072 
L 56.384676 23.751246 
L 56.93805 24.069252 
L 57.173002 24.344453 
L 57.485241 24.554694 
L 58.758507 24.969872 
L 59.439055 25.191831 
L 61.943151 25.603598 
L 63.672635 25.536228 
L 70.525091 25.269331 
L 74.213223 25.49978 
L 75.323063 25.436109 
L 77.561293 24.886716 
L 83.685509 24.456485 
L 85.02721 24.515271 
L 86.11541 24.805087 
L 87.008846 24.910237 
L 87.880643 24.854894 
L 88.610232 24.583051 
L 89.599504 23.900562 
L 90.118872 23.6683 
L 90.795906 23.560478 
L 91.532084 23.40371 
L 91.578049 23.393922 
L 90.42802 22.888847 
L 89.553132 22.373595 
L 89.358369 21.873029 
L 89.432564 21.310537 
L 89.732438 20.208295 
L 89.63351 19.900127 
L 89.426381 19.793283 
L 89.386192 19.694719 
L 89.775718 19.407336 
L 90.047768 19.312244 
L 90.628966 19.252987 
L 90.913382 19.105545 
L 91.714074 18.111062 
L 92.236534 17.856358 
L 95.081988 17.474544 
L 96.524413 17.281035 
L 96.963402 17.158569 
L 97.637099 17.177677 
L 98.224725 17.194344 
L 100.01469 17.038177 
L 103.724462 17.308557 
L 104.052159 17.26865 
L 105.839033 16.584911 
L 109.876502 16.635801 
L 111.477887 15.957873 
L 111.524259 15.820402 
L 111.539716 15.680197 
L 111.524259 15.535882 
L 111.477887 15.390209 
L 111.468612 15.372344 
L 111.462429 15.355854 
L 111.468612 15.343486 
L 111.477887 15.331119 
L 111.833407 14.910693 
L 112.114731 13.882153 
L 112.442427 13.49579 
L 112.958704 13.318086 
L 115.710119 12.883871 
L 116.028541 12.890044 
L 116.328414 12.94217 
L 116.668476 13.113652 
L 117.317687 13.590484 
L 117.61756 13.683125 
L 118.996359 13.523923 
L 119.698124 13.592542 
L 120.229858 13.9755 
L 120.245315 14.236357 
L 120.075284 14.465677 
L 120.001089 14.690227 
L 120.282413 14.94229 
L 120.566829 14.96427 
L 121.645754 14.719071 
L 122.381526 14.858493 
L 123.519189 15.471289 
L 124.140576 15.612848 
L 124.845433 15.458921 
L 126.1995 14.70671 
L 126.888899 14.453317 
L 128.026563 14.241849 
L 128.125851 14.205683 
L 129.315709 13.772341 
L 129.881449 13.642636 
L 130.128767 13.526668 
L 130.348262 13.289271 
L 130.51211 12.811858 
L 130.629586 12.625328 
L 131.003655 12.362034 
L 131.260248 12.331868 
L 131.566304 12.399057 
L 132.091855 12.431967 
L 132.592674 12.300332 
L 133.495386 11.806814 
L 133.832357 11.719096 
L 134.429012 11.897279 
L 134.765983 12.117298 
L 135.127685 12.208469 
L 135.810902 11.997346 
L 136.679607 11.479271 
L 137.427744 10.802506 
L 138.052223 10.037781 
L 139.214618 7.93682 
L 139.560863 7.526171 
L 140.009128 7.17848 
L 140.918119 6.612989 
L 140.986034 6.570748 
L 141.387926 6.217841 
L 141.412658 6.125022 
L 141.425024 6.030845 
L 141.421933 5.937356 
L 141.403384 5.844557 
L 141.344646 5.386792 
L 141.35392 5.167175 
L 141.387926 4.96805 
L 142.250448 4.764863 
L 144.105335 4.691232 
L 150.433588 3.834549 
L 150.91895 3.82978 
L 151.382671 3.972863 
L 152.269925 4.447189 
L 152.702732 4.513308 
L 153.642541 4.571932 
L 155.271749 5.155581 
L 156.338309 5.211505 
L 157.086446 5.177405 
L 157.967517 5.270159 
L 158.802216 5.491839 
L 159.405054 5.841145 
L 160.162466 5.94418 
L 162.477982 5.294712 
L 163.470346 5.162401 
L 164.011355 5.301533 
L 164.382332 5.485018 
L 164.722395 5.572335 
L 165.164476 5.426355 
L 165.513813 5.130348 
L 165.683844 4.849407 
L 165.934253 4.60329 
L 166.518543 4.40084 
L 167.019362 4.34086 
L 168.039549 4.327911 
L 169.591471 4.03964 
L 170.027369 4.117324 
L 171.032099 4.469001 
L 171.573107 4.593746 
L 171.8297 4.730774 
L 172.027555 4.95714 
L 172.299605 5.468646 
L 172.500551 5.654201 
L 172.976638 5.782466 
L 174.080295 5.773596 
L 174.590389 5.841145 
L 174.850073 6.141402 
L 175.239599 7.232438 
L 175.483826 7.51524 
L 177.159406 9.031351 
L 177.867355 9.518395 
L 178.658773 9.863946 
L 179.59549 10.052838 
L 180.504384 10.006297 
L 182.053214 9.53892 
L 183.34236 9.42535 
L 184.254346 9.117528 
L 184.690244 9.016304 
L 186.25144 8.968431 
L 186.801723 8.856276 
L 187.342731 8.835761 
L 189.132697 8.939707 
L 189.689163 8.843967 
L 190.211622 8.59986 
L 190.777362 8.172607 
L 191.485311 8.245059 
L 191.537824 8.240759 
L 191.56878 8.238224 
L 191.865562 8.047532 
L 192.84556 7.819284 
L 193.865748 7.895135 
L 194.935399 8.208149 
L 194.490226 9.008097 
L 194.484043 9.430139 
L 195.309468 9.400722 
L 195.516597 9.422614 
L 195.739183 9.645657 
L 195.739183 9.905692 
L 195.67117 10.210953 
L 195.698994 10.576536 
L 196.020507 11.114818 
L 197.485867 12.456649 
L 197.68063 12.573214 
L 197.897034 12.608185 
L 198.128895 12.569099 
L 198.363847 12.458021 
L 198.484414 12.423739 
L 198.604982 12.412769 
L 198.731733 12.423739 
L 199.319113 12.566357 
L 199.792109 12.625328 
L 200.255831 12.600642 
L 200.833937 12.429224 
L 200.960688 12.419625 
L 201.084347 12.434709 
L 201.204914 12.470362 
L 203.427686 14.207523 
L 203.820304 14.756157 
L 204.243836 15.599104 
L 204.75393 16.229417 
L 204.914687 16.338049 
L 204.991973 16.34355 
L 205.384591 16.212229 
L 207.539351 16.212229 
L 208.089633 16.104294 
L 208.596636 15.909757 
L 209.109821 15.825901 
L 209.598274 16.012865 
L 209.703384 16.138667 
L 210.776127 16.499639 
L 211.660289 16.992775 
L 212.05909 17.296172 
L 212.371329 17.662263 
L 212.575366 18.16614 
L 212.467165 18.442248 
L 212.26931 18.688106 
L 212.213664 19.105545 
L 211.70357 19.484517 
L 211.95398 19.808447 
z
" clip-path="url(#p8b8338d0e4)" style="stroke: #000000; stroke-linejoin: miter"/>
   </g>
   <g id="line2d_1">
    <path d="M 213.054545 20.343442 
L 212.563001 20.688264 
L 211.811772 21.525845 
L 211.323318 21.796406 
L 209.644646 22.265872 
L 209.323133 22.627053 
L 209.335499 22.855688 
L 209.545719 23.223931 
L 209.112912 23.596418 
L 208.466794 23.636506 
L 207.492978 23.978682 
L 206.754115 24.565068 
L 205.879227 25.026466 
L 204.787936 25.31085 
L 203.64409 25.410502 
L 202.611536 25.308082 
L 200.394947 24.602417 
L 199.476779 24.731763 
L 198.988325 25.789106 
L 198.645171 25.9871 
L 197.819747 26.108263 
L 196.057605 26.004408 
L 194.972497 26.306994 
L 194.632434 26.518913 
L 193.748272 27.258798 
L 193.021775 27.648294 
L 192.910481 27.847935 
L 192.715718 28.571868 
L 191.884111 29.39194 
L 191.809916 29.794517 
L 191.65225 29.997237 
L 191.247267 30.182626 
L 189.781907 30.408319 
L 187.923929 31.258635 
L 187.039767 31.848041 
L 186.470935 32.506544 
L 186.548222 33.344887 
L 186.810997 34.277729 
L 186.851187 35.177032 
L 186.25144 35.924906 
L 184.381097 36.368377 
L 183.836997 36.744319 
L 182.680784 37.779187 
L 182.498387 38.094749 
L 181.997568 39.308769 
L 181.527663 40.009842 
L 181.41637 41.151995 
L 181.16596 41.369617 
L 180.219969 42.018475 
L 179.737698 42.981445 
L 179.131769 43.350693 
L 176.989375 44.351004 
L 175.864196 45.309437 
L 175.935181 45.454452 
L 176.68641 45.672012 
L 176.973918 46.017368 
L 176.859533 46.044045 
L 176.290701 47.386954 
L 176.0372 47.585122 
L 174.500736 48.387907 
L 174.482187 49.040579 
L 174.59348 49.625978 
L 174.343071 49.973668 
L 174.033923 50.141912 
L 172.942632 50.325665 
L 172.318153 50.691829 
L 171.93481 51.135573 
L 171.029008 52.911874 
L 171.195947 53.028253 
L 172.002823 53.374624 
L 171.900804 53.913739 
L 171.356704 54.423396 
L 170.756958 54.636628 
L 169.940808 54.727014 
L 169.56085 55.150974 
L 169.35961 55.506818 
L 168.738223 56.022672 
L 168.092104 56.238959 
L 166.991539 56.185238 
L 166.351603 56.288441 
L 165.894064 56.636274 
L 165.724033 57.153224 
L 165.606557 58.202521 
L 165.23558 58.704432 
L 164.298862 59.552185 
L 164.224667 60.11691 
L 165.099555 61.173944 
L 165.288135 61.776876 
L 164.595644 62.112493 
L 163.328138 62.147266 
L 162.743849 62.279266 
L 162.239938 62.654037 
L 161.936974 63.250456 
L 161.813315 64.473845 
L 161.556722 65.005565 
L 161.213568 65.423679 
L 160.926061 65.567343 
L 159.859501 65.627088 
L 158.431239 66.735647 
L 157.893322 66.866621 
L 156.866952 66.308636 
L 155.747837 66.398298 
L 154.096988 66.016913 
L 152.912952 66.156364 
L 152.096803 65.772194 
L 151.497056 65.755122 
L 150.266648 66.075253 
L 148.965136 66.850961 
L 148.980594 67.110092 
L 149.255735 67.94331 
L 149.0146 68.097184 
L 148.226273 68.058714 
L 148.077882 68.263899 
L 148.043876 68.658672 
L 147.883119 68.930939 
L 147.425581 69.256011 
L 146.841292 69.447095 
L 144.930759 69.671007 
L 144.272274 69.452799 
L 143.400478 68.939492 
L 142.216442 68.621613 
L 140.995309 68.443458 
L 140.26572 69.194699 
L 135.452291 69.280252 
L 134.243523 70.265886 
L 132.617406 69.374366 
L 132.079489 69.233197 
L 131.108765 69.482748 
L 130.879996 69.402887 
L 130.413183 69.047843 
L 129.631039 68.995092 
L 128.876719 69.238901 
L 128.026563 69.303067 
L 126.774515 68.849681 
L 124.86089 68.735643 
L 123.200747 69.026611 
L 120.712128 69.686696 
L 120.189669 69.618235 
L 117.710304 68.601659 
L 116.44589 68.450584 
L 112.779398 68.932364 
L 112.083816 69.230345 
L 111.651009 69.544072 
L 111.703564 69.770851 
L 112.003438 70.251618 
L 111.004891 70.711125 
L 110.640096 71.109381 
L 109.879593 71.442053 
L 109.174736 71.587709 
L 108.401867 72.32191 
L 107.901048 72.433356 
L 106.250199 72.516231 
L 105.650453 72.80633 
L 104.948687 73.767044 
L 104.11708 73.870012 
L 101.495508 73.694111 
L 100.83084 73.439591 
L 100.388759 72.894942 
L 99.714817 72.732013 
L 99.025417 72.920669 
L 98.555513 73.44388 
L 98.521507 74.26479 
L 97.992864 74.359208 
L 97.235452 74.289109 
L 96.431668 74.715474 
L 96.43476 74.920113 
L 96.731542 75.273644 
L 96.694444 75.362398 
L 96.524413 75.416797 
L 95.952489 75.247878 
L 93.674071 75.179171 
L 93.043409 75.521307 
L 92.443663 75.635847 
L 91.757448 75.867518 
L 91.618239 75.870679 
L 91.231804 75.644437 
L 90.798997 76.191483 
L 90.666064 76.384856 
L 90.353825 76.498026 
L 89.98903 76.46651 
L 88.808086 76.065445 
L 87.327269 75.734644 
L 86.767711 75.811968 
L 85.979385 76.386289 
L 85.766073 76.89777 
L 85.323991 77.223084 
L 84.309987 78.332816 
L 83.01775 79.050116 
L 82.238697 79.239538 
L 81.567847 79.034332 
L 81.079394 79.248148 
L 80.040657 80.083604 
L 79.252331 80.412453 
L 78.637127 80.373677 
L 78.139399 79.957252 
L 77.66022 79.951509 
L 76.658582 80.260226 
L 76.145396 80.13386 
L 75.62912 79.770615 
L 74.948995 79.764872 
L 74.030826 79.317035 
L 73.47436 79.202225 
L 70.750769 79.256759 
L 69.909887 79.581129 
L 69.563642 79.581129 
L 66.41961 79.014243 
L 63.581634 79.114689 
L 63.269395 79.532325 
L 62.910783 79.581129 
L 62.907692 79.4663 
L 62.31722 78.806197 
L 61.448515 78.395925 
L 56.882403 77.535565 
L 56.341395 75.985244 
L 54.925498 75.018865 
L 53.824933 74.698303 
L 52.557427 74.528031 
L 49.753457 74.553785 
L 49.394846 74.812781 
L 49.200083 74.362069 
L 48.884752 74.274804 
L 48.170621 74.450771 
L 47.47813 74.397835 
L 47.524503 74.151782 
L 47.35138 73.678381 
L 47.029866 74.027339 
L 46.714536 73.978709 
L 46.362107 73.778484 
L 45.923118 73.678381 
L 45.923118 73.489633 
L 46.720719 73.318064 
L 46.45176 73.07647 
L 45.496494 72.920669 
L 44.680344 71.035147 
L 43.483942 70.031901 
L 43.146971 69.904937 
L 40.720162 69.85073 
L 40.271898 69.710944 
L 38.478841 68.772704 
L 38.33045 68.474812 
L 38.083132 68.268174 
L 36.206605 67.194105 
L 35.470834 66.311482 
L 33.931278 65.191853 
L 33.408819 64.227952 
L 33.507746 63.797378 
L 33.039261 63.195341 
L 32.388631 62.725027 
L 32.230966 62.723607 
L 32.085667 62.940857 
L 31.365352 62.537621 
L 30.345165 62.333914 
L 30.122579 62.725027 
L 29.918541 62.725027 
L 29.553747 62.237393 
L 28.641761 61.879043 
L 27.052742 60.464919 
L 26.406623 60.18282 
L 24.922714 60.043208 
L 24.792872 60.287715 
L 24.610475 60.287715 
L 24.211675 60.033286 
L 22.746315 59.436007 
L 22.313508 58.254899 
L 21.305686 57.709975 
L 20.202029 56.623547 
L 18.59137 55.947756 
L 18.353326 55.56758 
L 18.628467 55.2977 
L 19.375412 55.017631 
L 19.611557 54.873903 
L 19.447709 54.357738 
L 18.999445 54.169252 
L 18.028721 54.036549 
L 18.019446 53.577122 
L 17.605188 53.622282 
L 17.070363 53.100907 
L 16.7303 52.826535 
L 16.290985 51.839148 
L 16.371689 51.634415 
L 16.95907 50.918615 
L 17.197114 50.342563 
L 17.06418 50.205273 
L 16.362415 50.102489 
L 15.468978 49.537309 
L 11.228576 49.734879 
L 10.145455 49.56968 
L 10.624633 49.429647 
L 11.007977 49.199571 
L 12.43933 48.051837 
L 14.232387 47.240804 
L 14.3004 46.758893 
L 15.141281 46.432323 
L 15.271123 46.020176 
L 15.555539 45.71974 
L 15.963614 45.685348 
L 17.079637 45.825026 
L 18.931432 45.781507 
L 19.763039 46.12408 
L 21.880701 45.876268 
L 21.747768 45.582177 
L 21.318052 45.336562 
L 20.035089 45.182897 
L 20.409158 44.973828 
L 22.084739 44.502478 
L 22.205306 44.353809 
L 22.100196 44.212869 
L 21.14493 43.977297 
L 20.922343 43.619105 
L 21.117106 43.223162 
L 21.747768 42.980744 
L 22.430984 42.422495 
L 22.573192 42.105291 
L 22.208398 41.776257 
L 21.716853 41.746857 
L 20.70594 42.04648 
L 20.304048 41.88266 
L 20.313322 41.732858 
L 20.557549 41.270948 
L 20.548275 41.033052 
L 20.347329 40.858153 
L 19.67957 40.760919 
L 19.574459 40.314002 
L 20.035089 39.721124 
L 19.936162 39.246576 
L 21.290229 38.698139 
L 21.488084 38.336354 
L 21.367516 37.892279 
L 20.378243 36.668286 
L 20.025815 36.489031 
L 20.044364 36.329324 
L 20.387518 36.12989 
L 20.313322 35.095507 
L 20.616287 34.754129 
L 20.990356 34.691436 
L 21.389156 34.861411 
L 21.747768 35.218145 
L 24.962904 34.319512 
L 26.502459 33.584305 
L 26.381892 32.499589 
L 26.721954 32.274955 
L 27.593751 32.051053 
L 27.912173 31.707618 
L 27.946179 31.293381 
L 27.714318 30.956382 
L 27.30006 30.700037 
L 26.793058 30.526388 
L 26.959998 30.005568 
L 26.706497 29.46273 
L 26.184037 29.036656 
L 25.531735 28.854885 
L 24.545554 28.957562 
L 22.576283 28.469219 
L 21.747768 28.581579 
L 19.531179 27.981044 
L 20.467896 27.199205 
L 20.928526 27.432741 
L 22.928712 26.634581 
L 23.09256 26.403947 
L 23.040005 26.050796 
L 23.219311 25.791875 
L 24.316785 25.491475 
L 25.571925 25.586987 
L 28.344979 26.311149 
L 28.845799 27.111899 
L 29.501192 27.441058 
L 31.448822 27.563733 
L 31.77961 27.366211 
L 32.366991 26.800135 
L 32.7627 26.597178 
L 33.198598 27.299683 
L 34.33317 27.425811 
L 36.704333 27.066169 
L 38.883824 26.8895 
L 39.499028 26.716316 
L 38.905465 26.383171 
L 38.757074 26.11311 
L 38.701427 25.238192 
L 38.500481 24.695794 
L 38.460292 24.235196 
L 38.908556 23.934436 
L 38.713793 23.765071 
L 38.426286 23.265391 
L 37.375184 22.863978 
L 37.365909 22.57249 
L 37.739978 22.454393 
L 38.775623 22.315589 
L 39.267168 22.082209 
L 39.563949 21.812283 
L 39.860731 20.986948 
L 39.641236 20.903475 
L 39.461931 20.733786 
L 39.820542 20.544118 
L 39.87928 20.499291 
L 40.120415 19.938041 
L 39.805085 19.718842 
L 41.681611 18.777645 
L 42.772902 18.38234 
L 47.35138 18.956741 
L 48.29428 19.423875 
L 51.657807 22.053212 
L 52.996417 22.336305 
L 54.372124 23.474779 
L 55.763289 23.483072 
L 56.93805 24.069252 
L 57.485241 24.554694 
L 59.439055 25.191831 
L 61.943151 25.603598 
L 70.525091 25.269331 
L 74.213223 25.49978 
L 75.323063 25.436109 
L 77.561293 24.886716 
L 83.685509 24.456485 
L 85.02721 24.515271 
L 86.11541 24.805087 
L 87.008846 24.910237 
L 87.880643 24.854894 
L 88.610232 24.583051 
L 90.118872 23.6683 
L 91.578049 23.393922 
L 90.42802 22.888847 
L 89.553132 22.373595 
L 89.358369 21.873029 
L 89.432564 21.310537 
L 89.732438 20.208295 
L 89.63351 19.900127 
L 89.386192 19.694719 
L 90.047768 19.312244 
L 90.628966 19.252987 
L 90.913382 19.105545 
L 91.714074 18.111062 
L 92.236534 17.856358 
L 97.637099 17.177677 
L 98.224725 17.194344 
L 100.01469 17.038177 
L 104.052159 17.26865 
L 105.839033 16.584911 
L 109.876502 16.635801 
L 111.524259 15.820402 
L 111.468612 15.372344 
L 111.477887 15.331119 
L 111.833407 14.910693 
L 112.114731 13.882153 
L 112.442427 13.49579 
L 112.958704 13.318086 
L 116.028541 12.890044 
L 116.668476 13.113652 
L 117.61756 13.683125 
L 118.996359 13.523923 
L 119.698124 13.592542 
L 120.229858 13.9755 
L 120.245315 14.236357 
L 120.001089 14.690227 
L 120.282413 14.94229 
L 120.566829 14.96427 
L 121.645754 14.719071 
L 122.381526 14.858493 
L 123.519189 15.471289 
L 124.140576 15.612848 
L 124.845433 15.458921 
L 126.1995 14.70671 
L 126.888899 14.453317 
L 128.125851 14.205683 
L 130.348262 13.289271 
L 130.629586 12.625328 
L 131.003655 12.362034 
L 131.566304 12.399057 
L 132.091855 12.431967 
L 132.592674 12.300332 
L 133.832357 11.719096 
L 134.429012 11.897279 
L 134.765983 12.117298 
L 135.127685 12.208469 
L 135.810902 11.997346 
L 136.679607 11.479271 
L 137.427744 10.802506 
L 138.052223 10.037781 
L 139.560863 7.526171 
L 140.918119 6.612989 
L 141.387926 6.217841 
L 141.403384 5.844557 
L 141.387926 4.96805 
L 142.250448 4.764863 
L 144.105335 4.691232 
L 150.91895 3.82978 
L 151.382671 3.972863 
L 152.269925 4.447189 
L 153.642541 4.571932 
L 155.271749 5.155581 
L 157.967517 5.270159 
L 158.802216 5.491839 
L 159.405054 5.841145 
L 160.162466 5.94418 
L 162.477982 5.294712 
L 163.470346 5.162401 
L 164.722395 5.572335 
L 165.164476 5.426355 
L 165.683844 4.849407 
L 165.934253 4.60329 
L 167.019362 4.34086 
L 168.039549 4.327911 
L 169.591471 4.03964 
L 170.027369 4.117324 
L 171.8297 4.730774 
L 172.027555 4.95714 
L 172.500551 5.654201 
L 172.976638 5.782466 
L 174.590389 5.841145 
L 174.850073 6.141402 
L 175.239599 7.232438 
L 175.483826 7.51524 
L 177.159406 9.031351 
L 177.867355 9.518395 
L 178.658773 9.863946 
L 179.59549 10.052838 
L 180.504384 10.006297 
L 182.053214 9.53892 
L 183.34236 9.42535 
L 184.690244 9.016304 
L 189.689163 8.843967 
L 190.211622 8.59986 
L 190.777362 8.172607 
L 191.56878 8.238224 
L 191.865562 8.047532 
L 192.84556 7.819284 
L 193.865748 7.895135 
L 194.935399 8.208149 
L 194.490226 9.008097 
L 194.484043 9.430139 
L 195.516597 9.422614 
L 195.739183 9.645657 
L 195.698994 10.576536 
L 196.020507 11.114818 
L 197.68063 12.573214 
L 198.128895 12.569099 
L 198.604982 12.412769 
L 200.255831 12.600642 
L 201.084347 12.434709 
L 201.204914 12.470362 
L 203.427686 14.207523 
L 203.820304 14.756157 
L 204.243836 15.599104 
L 204.914687 16.338049 
L 204.991973 16.34355 
L 205.384591 16.212229 
L 208.089633 16.104294 
L 209.109821 15.825901 
L 210.776127 16.499639 
L 212.05909 17.296172 
L 212.371329 17.662263 
L 212.575366 18.16614 
L 212.213664 19.105545 
L 211.70357 19.484517 
L 211.95398 19.808447 
L 213.054545 20.343442 
L 213.054545 20.343442 
" clip-path="url(#p8b8338d0e4)" style="fill: none; stroke: #000000; stroke-width: 0.5; stroke-linecap: square"/>
   </g>
  </g>
 </g>
 <defs>
  <clipPath id="p8b8338d0e4">
   <rect x="0" y="0" width="223.2" height="84.255158"/>
  </clipPath>
 </defs>
</svg>
