<?xml version="1.0" encoding="utf-8" standalone="no"?>
<!DOCTYPE svg PUBLIC "-//W3C//DTD SVG 1.1//EN"
  "http://www.w3.org/Graphics/SVG/1.1/DTD/svg11.dtd">
<svg xmlns:xlink="http://www.w3.org/1999/xlink" width="167.627117pt" height="221.76pt" viewBox="0 0 167.627117 221.76" xmlns="http://www.w3.org/2000/svg" version="1.1">
 <metadata>
  <rdf:RDF xmlns:dc="http://purl.org/dc/elements/1.1/" xmlns:cc="http://creativecommons.org/ns#" xmlns:rdf="http://www.w3.org/1999/02/22-rdf-syntax-ns#">
   <cc:Work>
    <dc:type rdf:resource="http://purl.org/dc/dcmitype/StillImage"/>
    <dc:date>2026-04-26T19:22:22.384096</dc:date>
    <dc:format>image/svg+xml</dc:format>
    <dc:creator>
     <cc:Agent>
      <dc:title>Matplotlib v3.10.9, https://matplotlib.org/</dc:title>
     </cc:Agent>
    </dc:creator>
   </cc:Work>
  </rdf:RDF>
 </metadata>
 <defs>
  <style type="text/css">*{stroke-linejoin: round; stroke-linecap: butt}</style>
 </defs>
 <g id="figure_1">
  <g id="patch_1">
   <path d="M 0 221.76 
L 167.627117 221.76 
L 167.627117 0 
L 0 0 
z
" style="fill: #ffffff"/>
  </g>
  <g id="axes_1">
   <g id="patch_2">
    <path d="M 147.876363 10.08 
L 160.007702 19.548985 
L 157.674753 40.064476 
L 156.274983 68.347693 
L 150.395949 104.639996 
L 150.395949 134.497133 
L 140.784196 156.463982 
L 143.023828 192.870875 
L 136.958158 209.981142 
L 118.761148 211.68 
L 112.788797 186.439196 
L 105.603311 162.896071 
L 101.963909 140.808156 
L 84.980034 132.797997 
L 60.810673 126.608235 
L 34.215044 128.186025 
L 11.258816 137.652654 
L 7.619414 120.418393 
L 19.657436 110.951418 
L 28.056056 84.248676 
L 21.897068 63.613709 
L 21.897068 44.677304 
L 36.734629 51.232299 
L 59.597538 66.891088 
L 91.045704 68.347693 
L 107.936261 47.954812 
L 126.226588 24.283409 
z
" clip-path="url(#p88fe796f9d)" style="stroke: #000000; stroke-linejoin: miter"/>
   </g>
   <g id="line2d_1">
    <path d="M 147.876363 10.08 
L 160.007702 19.548985 
L 157.674753 40.064476 
L 156.274983 68.347693 
L 150.395949 104.639996 
L 150.395949 134.497133 
L 140.784196 156.463982 
L 143.023828 192.870875 
L 136.958158 209.981142 
L 118.761148 211.68 
L 112.788797 186.439196 
L 105.603311 162.896071 
L 101.963909 140.808156 
L 84.980034 132.797997 
L 60.810673 126.608235 
L 34.215044 128.186025 
L 11.258816 137.652654 
L 7.619414 120.418393 
L 19.657436 110.951418 
L 28.056056 84.248676 
L 21.897068 63.613709 
L 21.897068 44.677304 
L 36.734629 51.232299 
L 59.597538 66.891088 
L 91.045704 68.347693 
L 107.936261 47.954812 
L 126.226588 24.283409 
L 147.876363 10.08 
" clip-path="url(#p88fe796f9d)" style="fill: none; stroke: #000000; stroke-width: 0.5; stroke-linecap: square"/>
   </g>
  </g>
 </g>
 <defs>
  <clipPath id="p88fe796f9d">
   <rect x="0" y="-0" width="167.627117" height="221.76"/>
  </clipPath>
 </defs>
</svg>
