<?xml version="1.0" encoding="utf-8" standalone="no"?>
<!DOCTYPE svg PUBLIC "-//W3C//DTD SVG 1.1//EN"
  "http://www.w3.org/Graphics/SVG/1.1/DTD/svg11.dtd">
<svg xmlns:xlink="http://www.w3.org/1999/xlink" width="178.15157pt" height="221.76pt" viewBox="0 0 178.15157 221.76" xmlns="http://www.w3.org/2000/svg" version="1.1">
 <metadata>
  <rdf:RDF xmlns:dc="http://purl.org/dc/elements/1.1/" xmlns:cc="http://creativecommons.org/ns#" xmlns:rdf="http://www.w3.org/1999/02/22-rdf-syntax-ns#">
   <cc:Work>
    <dc:type rdf:resource="http://purl.org/dc/dcmitype/StillImage"/>
    <dc:date>2026-04-26T19:22:28.110757</dc:date>
    <dc:format>image/svg+xml</dc:format>
    <dc:creator>
     <cc:Agent>
      <dc:title>Matplotlib v3.10.9, https://matplotlib.org/</dc:title>
     </cc:Agent>
    </dc:creator>
   </cc:Work>
  </rdf:RDF>
 </metadata>
 <defs>
  <style type="text/css">*{stroke-linejoin: round; stroke-linecap: butt}</style>
 </defs>
 <g id="figure_1">
  <g id="patch_1">
   <path d="M 0 221.76 
L 178.15157 221.76 
L 178.15157 0 
L 0 0 
z
" style="fill: #ffffff"/>
  </g>
  <g id="axes_1">
   <g id="patch_2">
    <path d="M 110.987487 10.08 
L 169.781574 10.08 
L 169.781574 13.322365 
L 170.053771 72.789668 
L 169.237178 143.68213 
L 165.426458 145.929033 
L 169.509376 160.003065 
L 160.799144 160.285093 
L 151.544517 165.082779 
L 138.751368 162.824254 
L 139.295714 172.998222 
L 130.857681 177.245479 
L 127.591356 183.767207 
L 118.881125 186.322194 
L 114.253811 199.407737 
L 108.537707 202.828697 
L 97.377744 197.983279 
L 95.47236 192.006114 
L 84.584546 198.55302 
L 85.401139 204.254934 
L 74.241177 206.252616 
L 70.974803 201.11784 
L 58.453852 206.252616 
L 54.370934 211.68 
L 41.849982 203.969634 
L 35.317284 205.681745 
L 30.962168 201.973174 
L 26.87925 205.681745 
L 14.358299 206.252616 
L 9.730986 211.108336 
L 8.097799 207.680159 
L 11.091975 195.420481 
L 14.902695 192.859436 
L 13.541706 186.322194 
L 19.25781 185.470325 
L 28.24024 174.413462 
L 29.873377 167.625195 
L 36.133878 160.285093 
L 35.317284 151.270876 
L 29.056833 140.314401 
L 34.50069 131.069081 
L 34.772888 12.511504 
L 39.6724 15.756318 
L 54.915329 15.756318 
L 69.613863 10.08 
z
" clip-path="url(#p25fb92c2e6)" style="stroke: #000000; stroke-linejoin: miter"/>
   </g>
   <g id="line2d_1">
    <path d="M 110.987487 10.08 
L 169.781574 10.08 
L 169.781574 13.322365 
L 170.053771 72.789668 
L 169.237178 143.68213 
L 165.426458 145.929033 
L 169.509376 160.003065 
L 160.799144 160.285093 
L 151.544517 165.082779 
L 138.751368 162.824254 
L 139.295714 172.998222 
L 130.857681 177.245479 
L 127.591356 183.767207 
L 118.881125 186.322194 
L 114.253811 199.407737 
L 108.537707 202.828697 
L 97.377744 197.983279 
L 95.47236 192.006114 
L 84.584546 198.55302 
L 85.401139 204.254934 
L 74.241177 206.252616 
L 70.974803 201.11784 
L 58.453852 206.252616 
L 54.370934 211.68 
L 41.849982 203.969634 
L 35.317284 205.681745 
L 30.962168 201.973174 
L 26.87925 205.681745 
L 14.358299 206.252616 
L 9.730986 211.108336 
L 8.097799 207.680159 
L 11.091975 195.420481 
L 14.902695 192.859436 
L 13.541706 186.322194 
L 19.25781 185.470325 
L 28.24024 174.413462 
L 29.873377 167.625195 
L 36.133878 160.285093 
L 35.317284 151.270876 
L 29.056833 140.314401 
L 34.50069 131.069081 
L 34.772888 12.511504 
L 39.6724 15.756318 
L 54.915329 15.756318 
L 69.613863 10.08 
L 110.987487 10.08 
" clip-path="url(#p25fb92c2e6)" style="fill: none; stroke: #000000; stroke-width: 0.5; stroke-linecap: square"/>
   </g>
  </g>
 </g>
 <defs>
  <clipPath id="p25fb92c2e6">
   <rect x="0" y="-0" width="178.15157" height="221.76"/>
  </clipPath>
 </defs>
</svg>
