<?xml version="1.0" encoding="utf-8" standalone="no"?>
<!DOCTYPE svg PUBLIC "-//W3C//DTD SVG 1.1//EN"
  "http://www.w3.org/Graphics/SVG/1.1/DTD/svg11.dtd">
<svg xmlns:xlink="http://www.w3.org/1999/xlink" width="198.692808pt" height="221.76pt" viewBox="0 0 198.692808 221.76" xmlns="http://www.w3.org/2000/svg" version="1.1">
 <metadata>
  <rdf:RDF xmlns:dc="http://purl.org/dc/elements/1.1/" xmlns:cc="http://creativecommons.org/ns#" xmlns:rdf="http://www.w3.org/1999/02/22-rdf-syntax-ns#">
   <cc:Work>
    <dc:type rdf:resource="http://purl.org/dc/dcmitype/StillImage"/>
    <dc:date>2026-04-26T19:21:46.873431</dc:date>
    <dc:format>image/svg+xml</dc:format>
    <dc:creator>
     <cc:Agent>
      <dc:title>Matplotlib v3.10.9, https://matplotlib.org/</dc:title>
     </cc:Agent>
    </dc:creator>
   </cc:Work>
  </rdf:RDF>
 </metadata>
 <defs>
  <style type="text/css">*{stroke-linejoin: round; stroke-linecap: butt}</style>
 </defs>
 <g id="figure_1">
  <g id="patch_1">
   <path d="M 0 221.76 
L 198.692808 221.76 
L 198.692808 0 
L 0 0 
z
" style="fill: #ffffff"/>
  </g>
  <g id="axes_1">
   <g id="patch_2">
    <path d="M 163.969329 15.641122 
L 163.967882 15.642077 
L 163.762358 15.824365 
L 163.278941 16.395102 
L 163.105259 16.518223 
L 162.914208 16.48959 
L 160.517389 15.404436 
L 160.531863 15.509417 
L 160.589757 15.765193 
L 160.627388 15.885447 
L 160.76344 16.043877 
L 160.928438 16.110686 
L 161.067384 16.208036 
L 161.128173 16.454277 
L 161.051463 16.563082 
L 160.931333 16.813144 
L 160.922649 17.06512 
L 161.181725 17.182518 
L 161.553695 17.214015 
L 161.898165 17.319007 
L 162.178952 17.511811 
L 162.341056 17.806747 
L 162.210794 18.144641 
L 162.210794 18.365134 
L 162.401845 18.462495 
L 162.578422 18.378497 
L 162.769473 18.218138 
L 162.960523 18.120778 
L 163.135653 18.229592 
L 164.798664 20.392641 
L 165.050503 20.627479 
L 165.646813 20.789767 
L 165.94931 20.971149 
L 166.141808 21.228905 
L 166.127335 21.521033 
L 165.846548 21.784525 
L 165.458657 21.84467 
L 165.053398 21.723425 
L 164.387615 21.120074 
L 164.021434 20.953965 
L 163.1921 20.879503 
L 163.1921 21.039884 
L 163.701569 21.095254 
L 164.18788 21.391198 
L 164.620639 21.809346 
L 164.968004 22.234186 
L 165.206817 22.3688 
L 165.484709 22.315336 
L 165.766944 22.200772 
L 166.005757 22.148263 
L 166.149045 22.229413 
L 166.67154 22.657126 
L 166.778644 22.884352 
L 167.704951 24.098813 
L 167.790345 24.375704 
L 167.806266 24.570486 
L 167.696267 24.686018 
L 167.408243 24.726121 
L 166.37049 24.578124 
L 166.596278 24.933318 
L 166.940748 25.201627 
L 167.704951 25.539645 
L 168.428628 25.720114 
L 168.631258 25.918727 
L 168.576258 26.340786 
L 168.417049 26.547044 
L 167.896002 26.926144 
L 167.704951 27.156281 
L 167.418375 27.745482 
L 167.195482 27.90496 
L 165.454315 28.117918 
L 165.063529 28.019556 
L 164.334063 27.578365 
L 163.99104 27.47905 
L 163.604596 27.269919 
L 163.374467 26.782907 
L 163.206574 26.21665 
L 162.927234 25.582613 
L 162.870788 25.327667 
L 162.838946 24.812055 
L 162.760789 24.651645 
L 162.578422 24.496965 
L 162.219478 24.259218 
L 162.419213 24.754766 
L 162.462634 24.900854 
L 162.631974 26.258665 
L 162.77092 26.596699 
L 163.012628 27.014952 
L 163.1921 27.593644 
L 163.206574 28.175217 
L 162.948945 28.59923 
L 162.675395 28.57631 
L 161.903955 28.084494 
L 161.546458 27.958438 
L 159.258191 27.991862 
L 157.786232 27.660491 
L 155.492175 27.696779 
L 154.872707 28.023376 
L 154.425475 28.903875 
L 154.842313 28.577265 
L 155.361913 28.381492 
L 155.914802 28.288859 
L 156.893214 28.278354 
L 157.42584 28.390087 
L 157.734127 28.701415 
L 157.534392 29.312622 
L 157.438867 29.828342 
L 157.622681 30.441491 
L 157.92952 30.99735 
L 158.201622 31.338323 
L 158.383989 31.446251 
L 159.052667 31.658287 
L 159.298717 31.837852 
L 159.431874 32.031744 
L 159.670687 32.621074 
L 160.018052 32.374642 
L 160.540547 32.324974 
L 161.084752 32.4224 
L 161.490011 32.621074 
L 161.631852 32.661191 
L 161.746193 32.628715 
L 161.82435 32.650684 
L 161.854745 32.854135 
L 161.854745 33.501753 
L 161.82435 33.814106 
L 161.741851 34.099717 
L 161.608694 34.304136 
L 161.429223 34.382466 
L 161.252645 34.495184 
L 161.094884 34.743548 
L 160.885017 35.198253 
L 160.76344 35.347275 
L 160.601336 35.505852 
L 160.4566 35.691177 
L 160.398706 35.912806 
L 160.340812 36.873856 
L 160.277128 37.122245 
L 160.01371 37.447065 
L 159.81687 37.407895 
L 159.427531 36.948372 
L 158.890563 36.677057 
L 158.751617 36.640755 
L 158.589513 36.711449 
L 158.585171 36.886275 
L 158.64596 37.116513 
L 158.685039 37.356306 
L 158.889116 37.619985 
L 160.155551 38.565816 
L 160.468179 38.697662 
L 160.816992 38.744477 
L 161.546458 38.740656 
L 161.95606 38.838108 
L 162.024085 39.093204 
L 161.958954 39.44958 
L 161.976322 39.848955 
L 162.449607 40.480517 
L 163.131311 40.546445 
L 163.908541 40.466185 
L 164.656823 40.664924 
L 164.859452 40.841689 
L 164.924583 40.991701 
L 164.966557 41.157002 
L 165.089582 41.379635 
L 165.163397 41.628069 
L 165.076556 41.863127 
L 164.902873 42.038945 
L 164.717612 42.107743 
L 164.568534 42.272096 
L 164.109723 43.026029 
L 163.930251 43.244855 
L 164.203801 43.35188 
L 164.58156 43.312702 
L 164.952083 43.176054 
L 165.206817 42.996407 
L 165.542604 42.919961 
L 165.895758 43.192299 
L 166.118651 43.547775 
L 166.066546 43.725515 
L 165.751023 43.808652 
L 165.096819 44.212873 
L 164.781295 44.351437 
L 163.553939 44.527271 
L 163.553939 44.687816 
L 163.973672 44.677304 
L 165.267606 45.006998 
L 166.978379 45.169457 
L 166.778644 45.523048 
L 166.408122 45.700801 
L 165.999968 45.834594 
L 165.697471 46.050576 
L 165.03603 46.687064 
L 164.902873 46.956572 
L 165.146029 47.268134 
L 165.861022 47.57301 
L 166.587594 47.694388 
L 167.260613 47.917074 
L 167.826529 48.5364 
L 167.96837 48.910105 
L 168.043632 49.359322 
L 168.124684 50.910607 
L 168.24192 51.36081 
L 168.399681 51.747933 
L 168.576258 52.07962 
L 169.30283 52.894992 
L 169.563354 53.394932 
L 171.29439 55.389037 
L 171.450704 55.628032 
L 171.662018 56.147135 
L 171.789385 56.352676 
L 172.096224 57.374661 
L 172.327801 57.799143 
L 172.462405 57.386134 
L 172.796744 57.729352 
L 173.129635 58.421536 
L 173.372791 59.204561 
L 173.435027 59.823155 
L 173.294634 60.194125 
L 172.695429 61.182761 
L 172.462405 61.441876 
L 171.233601 61.837723 
L 170.874657 62.068158 
L 170.622818 62.517558 
L 170.586634 62.982262 
L 170.515713 63.433585 
L 170.156769 63.848578 
L 170.15098 64.154567 
L 169.583617 64.108668 
L 168.576258 63.848578 
L 168.897571 64.278875 
L 169.570591 64.752208 
L 169.896246 65.176777 
L 169.175463 65.452177 
L 168.563232 65.499033 
L 167.959685 65.452177 
L 167.304034 65.262839 
L 167.056536 65.294396 
L 167.221535 65.612827 
L 167.482059 65.764872 
L 168.162315 65.850935 
L 168.445997 65.948474 
L 168.676126 66.21814 
L 168.893229 66.552836 
L 169.100201 66.742179 
L 169.305725 66.575787 
L 169.415724 66.575787 
L 169.440329 67.585628 
L 169.395461 68.121161 
L 169.240594 68.355458 
L 169.119016 68.481693 
L 169.129148 68.757115 
L 169.223226 69.032538 
L 169.362172 69.157818 
L 169.551775 69.12339 
L 169.60388 69.075573 
L 169.640064 69.111914 
L 169.780457 69.318483 
L 169.94835 69.702934 
L 170.100323 70.185894 
L 170.317426 70.601913 
L 170.686501 70.776929 
L 171.051234 70.854395 
L 171.329126 71.034194 
L 171.576624 71.247467 
L 171.855963 71.419617 
L 172.287275 71.407184 
L 172.488457 71.449265 
L 172.573851 71.65202 
L 172.544904 71.944677 
L 172.505826 72.174213 
L 172.518852 72.378884 
L 172.64043 72.616074 
L 173.921338 74.467727 
L 174.963433 75.006212 
L 176.491839 76.629355 
L 177.203938 77.117168 
L 177.942089 77.314208 
L 178.244586 77.568639 
L 178.678792 78.174114 
L 179.081156 78.295592 
L 179.227339 78.439071 
L 179.110104 78.742291 
L 178.846685 79.003425 
L 178.775765 79.175602 
L 178.866948 79.39178 
L 179.043525 79.49413 
L 179.461811 79.500826 
L 179.651414 79.619438 
L 179.689045 79.785877 
L 179.74115 80.378941 
L 179.783123 80.581732 
L 179.904701 80.581732 
L 180.137725 80.406682 
L 180.421407 80.555905 
L 180.985875 81.061929 
L 181.200083 81.144195 
L 182.023628 81.222634 
L 182.57507 81.601438 
L 183.675059 83.265912 
L 184.346632 83.644729 
L 184.63755 83.890579 
L 185.08044 84.461682 
L 185.475568 85.110277 
L 185.623198 85.586682 
L 185.549383 85.69 
L 185.426358 85.727309 
L 185.31057 85.799057 
L 185.258465 86.002823 
L 185.85767 86.332867 
L 186.05451 86.573943 
L 186.361349 87.044619 
L 186.908449 88.491106 
L 187.155947 88.535114 
L 187.286208 88.542767 
L 187.455549 88.491106 
L 187.574232 88.382045 
L 187.789888 88.086431 
L 187.950544 88.010854 
L 188.277646 88.070168 
L 189.189479 88.505456 
L 189.470266 88.73219 
L 189.551318 88.975188 
L 189.509345 89.240191 
L 189.43553 89.514761 
L 189.409477 89.774026 
L 189.464477 89.880219 
L 189.565792 89.979716 
L 189.652633 90.135658 
L 189.661317 90.416928 
L 189.505003 90.741252 
L 188.928956 91.369811 
L 188.680011 91.912271 
L 188.38475 92.161019 
L 187.051737 92.942666 
L 186.808581 93.222989 
L 186.624767 93.858263 
L 186.400428 94.135718 
L 186.122535 94.346202 
L 185.863459 94.445704 
L 185.652145 94.453358 
L 185.437937 94.426569 
L 185.241097 94.349073 
L 184.858995 94.040044 
L 184.429131 93.896533 
L 184.220712 93.716665 
L 183.869005 93.476524 
L 183.455061 93.470783 
L 183.039671 93.608554 
L 182.039549 94.240004 
L 181.90205 94.365337 
L 181.721131 94.466753 
L 181.532975 94.374905 
L 181.341924 94.219912 
L 181.168241 94.137632 
L 180.812192 94.043871 
L 180.088515 93.661174 
L 179.286681 93.620991 
L 179.114446 93.68605 
L 178.976947 94.047698 
L 178.823527 94.233306 
L 178.638266 94.382559 
L 178.496425 94.445704 
L 178.19827 94.3175 
L 178.00722 94.015169 
L 177.836432 93.643953 
L 177.586039 93.321532 
L 177.303805 93.178022 
L 175.008301 92.792459 
L 173.963311 92.374368 
L 173.387264 92.006986 
L 172.898059 91.53341 
L 172.462405 90.913459 
L 172.174381 90.222718 
L 171.766227 88.659482 
L 171.481099 88.010854 
L 171.237943 87.786993 
L 170.543213 87.316312 
L 170.399925 87.117326 
L 170.315978 86.920253 
L 170.126375 86.92121 
L 169.917956 87.040793 
L 169.780457 87.190989 
L 169.728353 87.409108 
L 169.761642 87.628185 
L 169.913614 88.010854 
L 170.486766 88.947444 
L 170.564923 89.118691 
L 171.227812 90.256202 
L 171.307416 90.653235 
L 171.394257 91.593683 
L 171.541888 91.95628 
L 171.593992 92.051952 
L 171.724254 92.357147 
L 171.767675 92.4002 
L 171.919647 92.489176 
L 171.96741 92.534142 
L 172.107803 92.849863 
L 172.209118 93.175152 
L 172.272801 93.542539 
L 172.313327 94.074487 
L 172.253986 94.55573 
L 172.032541 94.765258 
L 171.760438 94.825534 
L 171.559256 94.832231 
L 171.359521 94.765258 
L 171.193075 94.59687 
L 170.99913 94.159637 
L 170.874657 93.963505 
L 170.732816 93.829561 
L 170.567818 93.723362 
L 170.373873 93.651607 
L 170.139401 93.628645 
L 169.933877 93.680309 
L 169.796378 93.795118 
L 169.699405 93.909927 
L 169.609669 93.963505 
L 169.006123 93.990293 
L 168.632705 94.085011 
L 168.311393 94.284971 
L 167.903239 94.742296 
L 167.099957 95.95929 
L 166.856801 96.546743 
L 166.774302 98.025914 
L 166.67154 98.399059 
L 166.257597 98.862142 
L 166.127335 99.114734 
L 166.054967 99.349147 
L 165.959442 99.859116 
L 165.884179 100.092574 
L 164.915899 101.567958 
L 164.781295 102.107596 
L 164.829058 102.3401 
L 165.020109 102.931409 
L 165.03603 103.158173 
L 164.897084 103.405031 
L 164.690112 103.562906 
L 164.471561 103.677723 
L 164.294984 103.799239 
L 164.011303 104.224066 
L 163.730516 105.154095 
L 163.082101 106.530966 
L 163.031444 106.780698 
L 163.058944 106.899345 
L 163.122627 106.998855 
L 163.1921 107.186393 
L 163.2471 107.678204 
L 163.186311 108.063807 
L 163.02276 108.391044 
L 162.614606 108.907734 
L 162.484344 109.167037 
L 162.422108 109.457914 
L 162.462634 109.756447 
L 162.566843 109.819598 
L 162.74342 109.826296 
L 162.937366 109.878922 
L 163.082101 110.076031 
L 162.89684 110.244434 
L 162.484344 110.437715 
L 162.341056 110.572629 
L 162.241188 110.814709 
L 162.25132 110.969717 
L 162.306319 111.126638 
L 162.341056 111.360107 
L 162.32803 111.614626 
L 162.306319 111.744756 
L 162.301977 111.847137 
L 162.341056 112.018412 
L 162.462634 112.089218 
L 162.636316 112.088261 
L 162.723157 112.17342 
L 162.581317 112.498745 
L 162.775262 112.596343 
L 162.935918 112.760919 
L 163.074864 112.998215 
L 163.1921 113.300576 
L 163.291968 113.830665 
L 163.313678 114.133027 
L 163.252889 114.264114 
L 163.223942 114.361711 
L 163.003944 114.763584 
L 162.905524 115.010448 
L 162.684079 115.262097 
L 162.581317 115.388399 
L 162.506054 115.541493 
L 162.232504 116.402647 
L 162.158689 116.770073 
L 162.0979 117.740304 
L 161.99948 118.205325 
L 161.620273 119.009064 
L 161.60001 119.577422 
L 161.744746 120.002254 
L 162.024085 120.620364 
L 162.323688 121.138963 
L 162.523422 121.271005 
L 162.692763 121.22125 
L 162.723157 121.60972 
L 162.668158 122.135972 
L 162.581317 122.48234 
L 162.197768 123.050689 
L 162.019743 123.414279 
L 162.037111 123.693668 
L 162.178952 124.126147 
L 162.106584 124.658132 
L 161.924218 125.17098 
L 161.733167 125.54796 
L 161.733167 125.722098 
L 162.329477 125.343204 
L 164.481693 123.310943 
L 164.830505 123.136803 
L 165.089582 123.219089 
L 165.244449 123.636259 
L 165.115634 123.896512 
L 164.897084 124.10127 
L 164.781295 124.351954 
L 164.651033 124.570106 
L 164.028671 124.77869 
L 163.808673 124.904988 
L 163.74499 125.193943 
L 164.367352 125.389131 
L 164.535245 125.634072 
L 164.509193 126.529635 
L 164.438272 126.885562 
L 164.211038 127.316118 
L 164.170512 127.409884 
L 164.08946 127.459637 
L 163.539465 127.497908 
L 163.417887 127.551488 
L 163.313678 127.649081 
L 163.313678 127.809821 
L 163.61328 127.945684 
L 163.934593 128.0184 
L 164.125644 128.186794 
L 164.051829 128.613518 
L 163.840515 128.852713 
L 163.595912 129.024933 
L 163.484466 129.23351 
L 163.687095 129.58943 
L 163.474334 129.704242 
L 163.264468 129.690848 
L 162.77092 129.58943 
L 162.523422 129.664058 
L 162.471318 129.824796 
L 162.571185 129.985533 
L 162.77092 130.058247 
L 163.14289 130.134789 
L 164.109723 130.475397 
L 164.596034 130.553852 
L 164.795769 130.63422 
L 164.946294 130.846621 
L 165.03024 131.148957 
L 165.03603 131.501044 
L 164.957872 131.7498 
L 164.820374 131.856956 
L 164.299326 132.006209 
L 164.047487 131.967939 
L 163.930251 131.983247 
L 163.805778 132.082749 
L 163.568412 132.392736 
L 163.44394 132.480756 
L 162.581317 132.159289 
L 162.659474 132.838579 
L 162.031322 132.666365 
L 161.854745 133.194486 
L 161.919876 133.747479 
L 161.82435 133.99623 
L 161.490011 134.084249 
L 161.225146 133.94648 
L 160.83436 133.326516 
L 160.627388 133.10838 
L 160.546336 133.498728 
L 160.352391 134.030672 
L 160.113577 134.463113 
L 159.912395 134.566439 
L 159.800949 134.342565 
L 159.766212 134.011537 
L 159.790817 133.364785 
L 159.714108 133.160043 
L 159.237928 132.561123 
L 158.889116 132.40039 
L 158.638723 132.850059 
L 158.493988 133.556133 
L 158.444778 134.164614 
L 158.334779 134.753957 
L 158.064124 135.11177 
L 157.352025 135.691539 
L 156.797689 136.456905 
L 155.042048 139.751719 
L 154.580342 140.126729 
L 154.467448 140.633755 
L 154.409554 141.217308 
L 154.303897 141.657361 
L 154.021663 141.974963 
L 153.587457 142.286824 
L 153.130093 142.527893 
L 151.247085 143.103776 
L 150.856299 143.136301 
L 150.678274 143.032987 
L 150.634854 142.705824 
L 150.639196 142.068713 
L 150.847615 141.684147 
L 150.87222 141.471774 
L 150.639196 141.339758 
L 150.527749 141.416289 
L 150.41775 141.621009 
L 150.274462 141.994096 
L 150.204989 141.666928 
L 150.191963 140.911182 
L 150.102227 140.622275 
L 149.371313 139.485767 
L 149.317761 138.894546 
L 149.558022 137.444216 
L 149.314866 137.471004 
L 149.060132 137.92256 
L 148.909607 138.555883 
L 148.819871 139.820599 
L 148.893686 140.09229 
L 149.424865 140.85761 
L 149.562364 141.171389 
L 149.571048 141.316799 
L 149.505917 141.435422 
L 149.424865 141.657361 
L 149.222236 141.942438 
L 149.188947 142.082106 
L 149.922755 142.388226 
L 149.95315 142.445623 
L 150.026965 142.472409 
L 150.108017 142.516413 
L 150.163016 142.621642 
L 150.163016 142.744089 
L 150.12828 142.870362 
L 149.95315 143.32571 
L 149.731704 143.650956 
L 149.668021 143.905412 
L 149.746178 144.982535 
L 149.656442 145.47613 
L 149.254078 145.686576 
L 148.885002 145.755449 
L 146.941205 146.775144 
L 146.192923 147.385421 
L 145.687796 148.20039 
L 145.650165 149.244908 
L 145.783322 149.593076 
L 145.942531 149.849419 
L 146.078582 150.140193 
L 146.136476 150.603133 
L 146.012004 151.138762 
L 145.705165 151.527088 
L 145.307142 151.800637 
L 143.743999 152.3879 
L 143.047822 152.978982 
L 142.245988 153.248696 
L 141.875465 153.434244 
L 140.934685 154.501605 
L 140.781265 154.798089 
L 140.222586 155.155781 
L 140.053246 155.450349 
L 140.417979 155.829076 
L 140.739292 155.894109 
L 141.182182 155.85968 
L 141.572968 155.71431 
L 141.742308 155.440785 
L 141.807439 155.289676 
L 141.968096 155.178735 
L 142.347302 155.039101 
L 142.454407 155.041014 
L 142.619405 155.178735 
L 142.723615 155.199775 
L 142.727957 155.151956 
L 142.84085 154.926247 
L 142.848087 154.878427 
L 143.257688 154.845909 
L 143.652816 154.903293 
L 143.952419 155.130915 
L 144.069654 155.601457 
L 143.796104 156.207799 
L 143.453081 156.804569 
L 144.133338 157.667193 
L 144.395309 158.219952 
L 144.108733 159.3943 
L 144.33452 160.863144 
L 144.240442 161.390996 
L 143.895972 161.968566 
L 143.690447 162.188499 
L 142.480459 162.59585 
L 142.085331 162.936262 
L 141.649678 163.425838 
L 141.290734 163.94218 
L 141.13442 164.374373 
L 141.244418 164.374373 
L 142.094015 163.827438 
L 142.69322 163.634288 
L 142.96677 163.972778 
L 143.084006 164.884965 
L 143.400976 165.183285 
L 143.869919 165.055161 
L 145.00175 164.382022 
L 145.307142 164.305528 
L 145.540166 164.374373 
L 145.551745 164.573256 
L 145.619771 164.982493 
L 145.750033 165.311409 
L 145.958452 165.263602 
L 146.168318 165.039862 
L 146.470815 164.804647 
L 146.744365 164.714768 
L 146.865943 164.944247 
L 146.826864 165.663269 
L 146.287001 168.919723 
L 145.70227 172.445438 
L 145.30859 173.409014 
L 144.677543 173.560048 
L 144.512545 173.257979 
L 144.422809 172.764721 
L 144.295441 172.307781 
L 144.004523 172.103208 
L 143.548607 172.061146 
L 143.331503 172.103208 
L 143.24032 172.160565 
L 143.066638 172.359402 
L 142.96677 172.424407 
L 142.850982 172.422495 
L 142.754009 172.363226 
L 142.67151 172.294398 
L 142.602037 172.263808 
L 142.024542 172.405288 
L 141.807439 172.424407 
L 141.612046 172.525737 
L 141.507837 172.745603 
L 141.487574 172.967379 
L 141.559942 173.066795 
L 141.855202 173.259891 
L 141.803097 173.716817 
L 141.377575 174.684178 
L 141.620731 174.844764 
L 142.172173 173.707258 
L 142.610721 173.475928 
L 142.891508 173.49887 
L 143.088348 173.881232 
L 143.040585 174.234913 
L 142.688878 175.265344 
L 142.602037 175.727975 
L 142.677299 179.751791 
L 142.584669 180.63294 
L 142.347302 181.449078 
L 142.041911 182.139048 
L 141.212577 183.583915 
L 140.781265 184.015831 
L 140.4339 184.09992 
L 140.166139 183.926009 
L 139.992457 183.536137 
L 139.9143 182.446758 
L 139.875221 182.251812 
L 139.799959 182.077888 
L 139.653776 181.896318 
L 139.362858 181.758706 
L 139.193517 181.609626 
L 139.04444 181.282794 
L 138.928651 180.77438 
L 138.854836 180.221996 
L 138.828784 179.751791 
L 138.776679 179.574029 
L 138.668128 179.585497 
L 138.54655 179.740322 
L 138.464051 179.992628 
L 138.479972 180.130249 
L 138.581286 180.548841 
L 138.584181 180.808785 
L 138.42063 181.301907 
L 138.186159 181.768263 
L 138.077607 182.2499 
L 138.281684 182.804155 
L 138.351157 183.090834 
L 138.225237 183.335465 
L 138.051555 183.572448 
L 137.97774 183.840008 
L 138.057344 184.034942 
L 138.20208 184.012009 
L 138.464051 183.840008 
L 138.96773 183.969964 
L 139.076282 184.235609 
L 139.073387 184.608271 
L 139.254306 185.05928 
L 139.513383 185.380333 
L 140.63074 186.439015 
L 140.850738 186.804001 
L 140.808765 187.102102 
L 139.996799 187.331407 
L 139.302069 187.675362 
L 139.07194 187.5588 
L 139.002467 187.948611 
L 139.357068 188.777895 
L 139.435225 189.33583 
L 139.322332 189.897574 
L 139.09365 190.128764 
L 138.759311 190.243403 
L 138.342473 190.459305 
L 138.368525 190.105837 
L 138.485761 189.859361 
L 138.650759 189.794398 
L 138.828784 189.977822 
L 138.954704 189.82879 
L 139.07194 189.656828 
L 139.158781 189.198258 
L 138.872205 189.186794 
L 138.281684 189.481044 
L 138.063134 189.668292 
L 137.880767 190.107747 
L 137.613006 191.097447 
L 136.514464 193.556232 
L 136.266967 194.478926 
L 136.093284 196.568699 
L 135.910918 197.567672 
L 135.527369 198.180786 
L 135.188688 198.306844 
L 134.009094 198.324034 
L 133.574888 198.448182 
L 133.184102 198.753774 
L 132.480688 199.607498 
L 131.807668 200.249202 
L 128.687172 202.210478 
L 123.89064 204.616467 
L 119.385025 207.02599 
L 116.106768 209.024793 
L 113.20627 211.366968 
L 112.342199 211.68 
L 111.638785 211.359333 
L 111.316025 210.462201 
L 111.386945 209.442855 
L 111.760363 207.661734 
L 111.399971 205.632244 
L 111.274051 203.961531 
L 111.395629 199.941721 
L 111.135105 198.86264 
L 110.075642 197.114988 
L 109.816566 196.079702 
L 109.845513 195.05965 
L 110.314456 192.060358 
L 109.936696 192.278154 
L 109.62841 192.518874 
L 109.419991 192.874217 
L 109.211572 195.353827 
L 109.007495 195.642269 
L 108.557367 195.596425 
L 107.862637 195.281238 
L 107.070934 194.654673 
L 105.664106 193.854249 
L 105.368846 193.590619 
L 105.213979 193.221913 
L 105.242926 192.771053 
L 105.425292 192.396604 
L 105.737921 192.236123 
L 105.89713 192.006864 
L 106.285021 190.459305 
L 106.76699 189.733256 
L 106.923304 189.393151 
L 107.014488 188.854325 
L 106.29081 189.710328 
L 105.677132 191.082162 
L 104.938981 192.346931 
L 103.844781 192.862754 
L 103.251366 192.771053 
L 102.765055 192.524605 
L 102.452427 192.043164 
L 102.377164 191.257935 
L 102.707161 188.961327 
L 102.62032 188.357524 
L 102.524794 188.558156 
L 102.464005 188.781716 
L 102.293218 189.836433 
L 102.255586 190.369506 
L 102.19914 190.489875 
L 101.955984 190.726792 
L 101.27428 192.236123 
L 100.182975 192.927709 
L 99.602586 193.156959 
L 98.491018 193.997525 
L 97.231819 194.576351 
L 95.425521 194.98324 
L 93.991193 194.612646 
L 93.853694 192.862754 
L 94.080929 191.911339 
L 94.192375 190.894925 
L 94.161981 189.897574 
L 93.775537 188.239054 
L 93.617775 187.979184 
L 93.29791 187.879821 
L 91.778188 187.879821 
L 91.38885 187.990649 
L 91.035695 188.214214 
L 90.783856 188.569621 
L 90.685436 189.079793 
L 90.56241 189.486776 
L 90.265703 189.693131 
L 89.246765 189.824969 
L 89.016636 189.740899 
L 88.893611 189.473401 
L 88.853085 188.926933 
L 88.782165 188.590639 
L 88.599798 188.17982 
L 88.360984 187.833961 
L 88.126513 187.704024 
L 88.882032 189.675935 
L 88.986242 190.283527 
L 88.065724 188.926933 
L 87.81099 188.682356 
L 87.271127 188.27727 
L 87.032313 188.04033 
L 86.841262 187.746063 
L 86.684948 187.409753 
L 86.576396 187.039042 
L 86.476529 186.324358 
L 86.328899 186.072112 
L 85.990218 185.69756 
L 85.57338 185.405177 
L 85.023385 185.177765 
L 84.544311 184.887286 
L 83.367612 182.077888 
L 83.402348 183.72534 
L 83.302481 184.096098 
L 83.191035 184.294853 
L 83.050641 184.751601 
L 82.881301 184.979017 
L 82.803144 185.001949 
L 82.599067 184.959906 
L 82.516567 184.979017 
L 82.442752 185.055458 
L 82.321175 185.238918 
L 82.091045 185.508371 
L 81.836311 185.907769 
L 81.69447 186.385509 
L 81.843548 186.826932 
L 82.064993 187.136498 
L 82.180781 187.268349 
L 82.383411 187.398288 
L 82.573014 187.451792 
L 82.944984 187.486187 
L 83.124456 187.5588 
L 83.124456 187.704024 
L 76.868991 193.011768 
L 76.304522 193.672764 
L 75.948473 193.837056 
L 75.300059 193.653661 
L 75.200191 193.751089 
L 75.149534 193.991794 
L 75.019272 194.169455 
L 74.844142 194.280254 
L 74.651644 194.31846 
L 74.288358 194.165634 
L 71.90167 191.869307 
L 71.16352 191.468096 
L 70.341422 191.257935 
L 68.565519 191.62476 
L 67.035665 192.862754 
L 64.479637 196.226784 
L 63.729908 197.011844 
L 63.272544 197.317455 
L 62.951231 197.275434 
L 62.635708 197.038585 
L 61.7919 196.685216 
L 61.555981 196.400607 
L 61.548745 195.903966 
L 61.929399 194.880085 
L 62.027819 194.398693 
L 62.16387 192.914336 
L 62.160976 192.38132 
L 61.66598 188.357524 
L 61.712296 187.279814 
L 61.978609 185.334469 
L 61.799137 184.321608 
L 60.693358 181.71857 
L 60.583359 180.808785 
L 60.583359 179.751791 
L 60.52836 179.6696 
L 60.400993 179.600789 
L 60.27652 179.488014 
L 60.218626 179.27011 
L 60.288099 178.799889 
L 60.560202 178.163359 
L 60.583359 177.746643 
L 60.322836 177.926329 
L 60.039154 178.22835 
L 59.813367 178.593448 
L 59.723631 178.948984 
L 59.846656 180.013654 
L 59.85534 180.327122 
L 59.764157 180.59089 
L 59.599158 180.789671 
L 59.439949 180.933022 
L 59.369029 181.041968 
L 59.321266 181.139445 
L 59.221399 181.256036 
L 59.13311 181.412763 
L 59.115742 181.609626 
L 59.185215 181.798843 
L 59.282188 181.879117 
L 59.386397 181.936455 
L 59.542712 182.154338 
L 59.622316 182.200208 
L 59.691789 182.286214 
L 59.723631 182.479249 
L 59.683105 182.563343 
L 59.518106 182.549964 
L 59.480475 182.639791 
L 58.713377 182.995275 
L 57.564178 184.096098 
L 57.306549 184.256631 
L 56.985236 184.321608 
L 56.675503 184.172542 
L 56.522083 183.813252 
L 56.435242 183.3928 
L 56.320901 183.037321 
L 55.809985 182.513651 
L 55.131175 182.238433 
L 53.628822 182.077888 
L 52.938434 182.148604 
L 52.439096 182.395155 
L 48.253347 185.323003 
L 46.926123 185.942166 
L 46.147447 186.035804 
L 45.509164 185.842795 
L 44.037204 184.761156 
L 43.73326 184.661781 
L 43.086292 184.64267 
L 42.801163 184.499339 
L 42.824321 184.164898 
L 42.992214 183.788407 
L 43.154318 183.518936 
L 43.692734 182.926472 
L 44.289044 182.595833 
L 44.896933 182.366486 
L 46.390602 181.54082 
L 46.564285 181.529352 
L 46.390602 181.04579 
L 45.999817 181.16047 
L 45.339823 181.770174 
L 45.027195 181.965124 
L 44.150098 182.332084 
L 43.820101 182.398977 
L 43.507472 182.561431 
L 43.203528 182.941762 
L 41.799594 185.359312 
L 41.168548 185.783555 
L 40.602632 185.139544 
L 40.559212 184.889197 
L 40.6475 184.814666 
L 40.771973 184.761156 
L 40.832762 184.568138 
L 40.815393 184.327342 
L 40.711184 183.767385 
L 40.680789 183.281952 
L 40.59829 182.744908 
L 40.359477 181.770174 
L 39.85435 180.98845 
L 39.15962 180.778203 
L 38.422917 180.942578 
L 36.573198 182.02055 
L 34.740847 183.840008 
L 34.067827 183.954676 
L 33.659673 183.255196 
L 33.364413 182.251812 
L 33.030074 181.449078 
L 33.329676 180.976982 
L 33.611911 180.292717 
L 33.781251 179.545357 
L 33.759541 178.868702 
L 33.433886 177.826928 
L 33.355729 176.886432 
L 33.19073 176.114132 
L 33.151652 175.727975 
L 33.011259 175.433574 
L 32.365738 175.253874 
L 32.17903 174.991968 
L 32.239819 174.783589 
L 32.582842 174.257855 
L 32.665341 173.957704 
L 32.930207 173.372689 
L 33.512043 173.475928 
L 34.098222 173.472105 
L 34.376114 172.571622 
L 33.776909 173.078266 
L 33.318098 172.913847 
L 32.964943 172.33646 
L 32.231135 170.650124 
L 32.17903 170.252427 
L 32.139951 169.235217 
L 31.892454 167.202618 
L 31.736139 166.695883 
L 31.511799 166.474065 
L 31.248381 166.317262 
L 31.115224 165.934812 
L 31.076146 165.458655 
L 31.086277 165.032213 
L 31.25996 164.0225 
L 31.519036 163.028058 
L 31.684035 162.027852 
L 31.584167 160.993195 
L 31.08483 159.457416 
L 31.032725 159.210691 
L 30.721544 158.571877 
L 30.556545 158.457119 
L 29.994972 158.263943 
L 29.165638 157.684407 
L 28.828404 157.6079 
L 28.562091 157.439585 
L 27.67631 156.307262 
L 27.767494 156.242229 
L 27.945518 156.066257 
L 28.041044 156.003136 
L 27.897756 155.876895 
L 27.800783 155.691357 
L 27.763152 155.461825 
L 27.797888 155.199775 
L 27.993281 154.979805 
L 28.818273 154.363882 
L 29.078797 154.235723 
L 29.278532 154.054005 
L 29.469582 153.629354 
L 29.99063 152.07801 
L 30.073129 151.641864 
L 30.129576 150.04837 
L 30.605756 147.05637 
L 30.650624 146.053898 
L 30.478388 145.030364 
L 30.171549 144.052729 
L 29.912473 143.608866 
L 29.565108 143.423284 
L 29.178664 143.352495 
L 28.750247 143.134388 
L 28.470908 142.782353 
L 28.52446 142.315522 
L 28.139464 142.135677 
L 28.000518 141.626749 
L 28.029465 140.978148 
L 28.263936 139.887565 
L 28.22341 139.5336 
L 28.012097 139.323134 
L 27.611179 139.250427 
L 27.502628 139.204507 
L 27.068421 138.913679 
L 26.880265 138.886892 
L 26.460533 138.913679 
L 26.239087 138.657291 
L 26.006063 137.949347 
L 25.574752 137.662342 
L 25.388043 137.3275 
L 25.114493 136.66738 
L 24.77147 136.123972 
L 24.658576 135.806345 
L 24.616603 135.29546 
L 24.671603 134.951041 
L 24.801865 134.727169 
L 24.963968 134.526257 
L 25.114493 134.244979 
L 25.210018 133.931172 
L 25.181071 133.850806 
L 24.671603 134.042153 
L 24.484894 134.271767 
L 24.398053 134.631496 
L 24.373448 135.144299 
L 24.302527 135.649444 
L 24.120161 135.961332 
L 23.646876 136.506654 
L 23.125828 136.122059 
L 22.804515 135.756596 
L 22.685832 135.748942 
L 22.56136 135.821652 
L 22.365967 135.867574 
L 22.248731 135.660925 
L 21.947682 134.405709 
L 21.558343 134.003883 
L 20.950455 133.651806 
L 20.294803 133.399228 
L 19.395996 133.257631 
L 19.213629 133.280592 
L 19.083367 133.364785 
L 18.96179 133.598229 
L 18.997973 133.75896 
L 19.090604 133.919691 
L 19.144156 134.164614 
L 19.052973 134.620016 
L 18.831528 134.803706 
L 18.552188 134.815187 
L 18.293112 134.742476 
L 17.563645 134.279421 
L 17.442068 134.164614 
L 17.301674 134.145479 
L 16.650365 133.670941 
L 16.460761 133.445151 
L 15.964319 129.736773 
L 16.065634 129.308139 
L 16.271158 129.067031 
L 16.556287 129.105302 
L 16.890626 129.495666 
L 17.182991 129.715724 
L 18.41469 129.736773 
L 18.683898 129.905164 
L 19.23534 130.43904 
L 19.708624 130.588295 
L 19.817176 130.651442 
L 19.935859 130.70502 
L 20.115331 130.701193 
L 20.524932 130.56342 
L 20.665326 130.421818 
L 20.610326 130.218984 
L 20.446775 130.153924 
L 19.987964 130.222811 
L 19.811387 130.138616 
L 19.491521 129.537764 
L 19.330865 129.334928 
L 18.945869 128.986662 
L 18.536267 128.772344 
L 18.345217 128.726418 
L 18.049956 128.703456 
L 17.918247 128.613518 
L 17.918247 128.452779 
L 17.997852 128.416422 
L 18.161403 128.278645 
L 18.089035 128.190621 
L 17.997852 128.037536 
L 17.918247 127.957166 
L 17.918247 127.809821 
L 18.23956 127.815561 
L 18.827186 127.957166 
L 19.144156 127.957166 
L 19.144156 127.809821 
L 18.727318 127.419451 
L 18.262717 127.184081 
L 17.71996 127.099884 
L 16.538918 127.157291 
L 16.268263 127.304637 
L 16.165501 127.210871 
L 16.054055 127.065439 
L 15.787741 126.925748 
L 15.712479 126.776488 
L 15.65748 126.613833 
L 15.599585 126.510499 
L 15.42735 126.386116 
L 15.368009 126.357412 
L 15.297088 126.363152 
L 15.114722 126.349757 
L 14.933802 126.376548 
L 14.797751 126.449264 
L 14.650121 126.455005 
L 14.446044 126.277041 
L 14.081311 125.802469 
L 13.916312 125.50012 
L 13.794735 125.123139 
L 13.430001 123.012417 
L 13.390923 122.067081 
L 13.425659 121.864235 
L 13.602236 121.833616 
L 14.020522 121.839357 
L 13.437238 120.760061 
L 13.21724 120.126641 
L 13.403949 119.577422 
L 13.403949 119.43007 
L 13.191188 119.322905 
L 12.961058 119.265495 
L 12.800402 119.37266 
L 12.794613 119.751565 
L 12.496458 119.531494 
L 12.42409 119.154503 
L 12.508036 118.760288 
L 12.674482 118.469411 
L 12.852507 118.354591 
L 13.133294 118.251253 
L 13.712235 118.147915 
L 14.210125 118.199584 
L 14.73262 118.358419 
L 15.188537 118.611022 
L 15.488139 118.951655 
L 15.599585 118.951655 
L 15.492481 118.584231 
L 15.133537 118.096246 
L 14.991697 117.81111 
L 14.954065 117.543196 
L 14.991697 116.601669 
L 14.925118 115.306111 
L 14.797751 114.677468 
L 14.454728 113.930177 
L 14.401176 113.591455 
L 14.385255 112.900617 
L 14.46486 112.575292 
L 14.663147 112.569551 
L 15.114722 112.820243 
L 16.945625 113.126432 
L 16.591023 112.726473 
L 15.810899 112.026066 
L 14.748541 110.842457 
L 14.567622 110.732421 
L 13.421317 107.656197 
L 12.431327 106.622821 
L 12.192513 106.474513 
L 11.888569 106.393183 
L 10.768317 106.277407 
L 10.33411 105.963568 
L 10.195164 105.371294 
L 10.377531 104.44222 
L 10.577266 103.772448 
L 10.612002 103.437563 
L 10.620686 102.901748 
L 10.507793 102.434825 
L 10.056218 101.51342 
L 10.001219 100.896283 
L 10.077928 100.641775 
L 10.325426 100.118407 
L 10.377531 99.851462 
L 10.377531 98.883191 
L 10.308058 98.305294 
L 10.130033 97.827861 
L 9.396225 96.567792 
L 9.422277 96.35252 
L 9.556881 96.131507 
L 9.63938 95.6493 
L 9.51346 95.089597 
L 9.040175 94.288798 
L 9.031491 93.803729 
L 9.158858 93.579851 
L 9.413593 93.255518 
L 9.704511 92.96467 
L 9.94043 92.839339 
L 10.286348 92.775238 
L 10.559897 92.585805 
L 10.78279 92.283479 
L 10.98542 91.875915 
L 11.260417 90.892412 
L 11.251733 89.963452 
L 10.303716 86.556724 
L 10.255953 86.002823 
L 10.403583 85.67278 
L 10.753843 85.531197 
L 11.471731 85.441273 
L 12.183829 85.179154 
L 13.525527 84.481771 
L 14.1421 83.966152 
L 14.419992 83.637076 
L 15.437482 81.972593 
L 15.65748 81.427341 
L 15.93103 80.92801 
L 16.339184 80.581732 
L 16.339184 80.42103 
L 15.878925 80.355984 
L 15.644453 80.716608 
L 15.466429 81.172892 
L 15.179853 81.398644 
L 14.949723 81.649267 
L 14.537227 82.753172 
L 14.324466 83.003802 
L 14.256441 83.130074 
L 14.175389 83.413229 
L 14.045127 83.69256 
L 13.838155 83.820746 
L 13.629736 83.87623 
L 13.460396 84.008243 
L 13.170925 84.302882 
L 12.778692 84.461682 
L 11.819096 84.585086 
L 11.350153 84.785022 
L 11.431205 84.040768 
L 11.709097 83.413229 
L 12.31988 82.360968 
L 12.568825 81.577524 
L 12.683166 80.834266 
L 12.683166 78.127245 
L 12.90027 77.306556 
L 13.308423 76.679092 
L 16.096028 74.146361 
L 16.443393 73.548587 
L 16.99773 72.165606 
L 17.311806 71.564032 
L 17.633118 71.104966 
L 17.685223 71.009328 
L 17.704039 70.949077 
L 17.746012 70.900301 
L 17.787985 70.827617 
L 17.806801 70.689899 
L 17.767722 70.61052 
L 17.680881 70.582786 
L 17.59404 70.61052 
L 17.553514 70.689899 
L 16.702469 71.564032 
L 16.74589 71.147047 
L 16.936941 70.888825 
L 17.19457 70.647819 
L 17.442068 70.280574 
L 17.562198 69.873165 
L 17.585356 69.456197 
L 17.553514 68.675827 
L 17.666407 67.866782 
L 17.984825 67.566502 
L 19.144156 67.392456 
L 21.582948 66.575787 
L 21.897024 66.407482 
L 22.144522 66.175108 
L 22.355836 65.859541 
L 22.895699 64.611642 
L 23.078065 64.395534 
L 22.74631 65.653793 
L 22.277585 66.748022 
L 22.007378 67.270251 
L 21.81805 67.559909 
L 21.169186 68.28558 
L 21.01662 68.580711 
L 21.000077 68.937177 
L 21.112204 69.785544 
L 21.104851 69.960442 
L 21.112204 70.135948 
L 21.202273 70.428055 
L 21.32359 70.715305 
L 21.483508 71.001343 
L 21.685703 71.227259 
L 21.919147 71.334752 
L 22.700357 71.339611 
L 23.016517 71.498725 
L 23.1121 71.948135 
L 22.994459 73.801693 
L 23.014679 74.87973 
L 23.108424 75.33889 
L 23.305105 75.819312 
L 23.646999 76.391452 
L 25.231476 78.186869 
L 25.352793 78.436508 
L 25.39507 79.092498 
L 25.501682 79.131371 
L 25.8399 78.885374 
L 25.96857 79.04512 
L 26.282892 80.041875 
L 26.591699 80.377774 
L 26.948298 80.420294 
L 27.301221 80.364411 
L 27.644954 80.365626 
L 27.968466 80.577615 
L 28.187205 80.959682 
L 28.529099 82.343405 
L 28.742323 82.839075 
L 28.964738 83.094201 
L 29.602573 83.49876 
L 29.933438 83.897247 
L 30.308418 84.792637 
L 30.712809 85.188702 
L 31.049189 85.353932 
L 32.093252 85.536172 
L 32.416765 85.75729 
L 32.679619 86.233547 
L 33.06379 87.23224 
L 33.949774 88.940499 
L 34.041681 89.512762 
L 34.072929 89.992689 
L 34.238362 90.069234 
L 34.479158 89.968389 
L 34.736498 89.912498 
L 35.640863 90.176155 
L 35.863278 90.296441 
L 36.15738 90.643936 
L 36.903665 91.987756 
L 37.572748 92.686405 
L 38.392558 93.213737 
L 39.238103 93.353468 
L 39.988064 92.889318 
L 40.164525 92.602567 
L 40.22886 92.425171 
L 40.296871 92.352268 
L 40.499067 92.371709 
L 40.629575 92.477417 
L 40.749054 92.662104 
L 40.907134 92.823706 
L 41.14793 92.865017 
L 41.381374 92.750803 
L 41.712239 92.335257 
L 41.910758 92.177302 
L 42.004504 92.177302 
L 42.204861 92.272075 
L 42.278386 92.274505 
L 42.633147 92.091034 
L 42.649691 92.021777 
L 42.873944 91.868683 
L 42.923574 91.907564 
L 43.103711 92.10683 
L 43.201133 92.133561 
L 43.329803 92.018132 
L 43.370242 91.827371 
L 43.384947 91.40697 
L 43.561408 91.042463 
L 44.552166 89.924648 
L 45.044787 89.611177 
L 45.581524 89.489677 
L 46.699113 89.442292 
L 50.686039 88.09001 
L 51.0408 88.136179 
L 53.428544 89.532202 
L 53.825582 89.681647 
L 54.206077 89.710807 
L 54.553486 89.618467 
L 55.255655 89.326867 
L 55.568139 89.336587 
L 55.751953 89.556502 
L 55.851213 89.907638 
L 55.9229 90.308591 
L 56.121419 90.835909 
L 56.33832 90.693751 
L 56.755578 89.912498 
L 58.246309 89.147048 
L 58.507325 89.100878 
L 58.825323 89.134898 
L 59.30324 89.307427 
L 60.229662 89.825018 
L 60.738827 90.023064 
L 61.810463 89.659777 
L 63.358177 87.177567 
L 64.483118 86.707378 
L 65.918706 86.717098 
L 66.370888 86.632051 
L 66.609846 86.493546 
L 66.736678 86.216538 
L 67.672291 82.658058 
L 68.229248 81.182606 
L 68.289906 80.932955 
L 68.300935 80.656579 
L 68.190647 80.454309 
L 67.786256 80.436086 
L 67.698025 80.23078 
L 67.830371 79.642806 
L 68.159398 79.302052 
L 70.207086 78.014371 
L 70.631697 77.827902 
L 71.732743 77.687596 
L 72.045226 77.555186 
L 72.354034 77.242384 
L 72.600345 76.912578 
L 72.887095 76.644726 
L 73.324572 76.513533 
L 78.631282 76.876135 
L 79.092655 77.060778 
L 79.212135 77.074748 
L 79.425359 76.944162 
L 79.550352 76.749194 
L 79.658803 76.524466 
L 79.833426 76.316138 
L 80.162453 76.159437 
L 80.454717 76.208026 
L 80.752496 76.344077 
L 81.099904 76.446115 
L 81.960154 76.403599 
L 82.265285 76.461907 
L 82.691734 76.689671 
L 82.993189 76.910148 
L 83.158621 77.233881 
L 83.175164 77.765949 
L 83.070391 78.282837 
L 82.871871 78.73231 
L 82.594312 79.115579 
L 82.052061 79.646451 
L 81.947287 79.900955 
L 81.998755 80.086823 
L 82.265285 80.100186 
L 82.945397 79.797088 
L 83.642052 79.636732 
L 84.32584 79.718125 
L 84.97838 80.134201 
L 85.562908 80.733114 
L 85.814734 80.836983 
L 86.614325 80.903799 
L 87.651036 81.18625 
L 88.498418 81.597478 
L 89.812688 82.948415 
L 90.619632 82.984861 
L 91.319963 82.600959 
L 91.694944 82.464893 
L 92.069924 82.48676 
L 92.455934 82.768612 
L 93.351108 84.17789 
L 93.854758 84.508346 
L 94.294074 84.374705 
L 97.115619 81.872037 
L 98.183578 80.090468 
L 98.591645 79.633088 
L 98.920672 79.456332 
L 101.486716 78.925462 
L 102.20359 78.910885 
L 102.85613 79.181178 
L 103.036268 79.390733 
L 103.199862 79.64888 
L 103.38 79.871799 
L 103.611606 79.97263 
L 103.786229 79.903385 
L 104.1704 79.55291 
L 104.215989 79.527517 
L 106.854085 78.058103 
L 107.194141 77.940877 
L 107.60956 78.020445 
L 108.021304 78.287697 
L 109.431157 79.607577 
L 109.815328 79.763073 
L 110.230748 79.633088 
L 110.51566 79.27897 
L 110.629624 78.823419 
L 110.62411 78.317459 
L 110.543232 77.815755 
L 110.543232 77.248458 
L 110.745427 76.848196 
L 111.370395 76.184946 
L 111.633249 75.781656 
L 112.092784 74.77891 
L 112.425487 73.543575 
L 112.622168 71.91534 
L 112.601949 71.184748 
L 112.546804 70.893851 
L 112.489822 70.721378 
L 112.467764 70.55923 
L 112.517394 70.302345 
L 112.612977 70.094653 
L 112.774734 69.871778 
L 112.962224 69.687772 
L 113.136847 69.595465 
L 114.098195 69.437572 
L 115.094467 68.92989 
L 115.324234 68.642652 
L 115.353644 68.199957 
L 115.278281 67.699577 
L 115.278281 67.29697 
L 115.357321 66.899832 
L 115.511724 66.418293 
L 115.557678 66.122571 
L 115.561354 65.764915 
L 115.48599 65.45341 
L 115.313205 65.299784 
L 114.901462 65.365364 
L 114.61655 65.533563 
L 114.410678 65.504417 
L 114.226864 64.983426 
L 114.208483 64.785475 
L 114.226864 64.000363 
L 114.186425 63.761736 
L 113.986068 63.389529 
L 113.919895 63.183693 
L 113.903352 62.744096 
L 114.105547 61.461764 
L 114.377592 60.542544 
L 114.916167 60.132121 
L 116.292934 59.885627 
L 116.77085 59.676776 
L 116.882977 59.403572 
L 116.831509 59.038088 
L 116.805775 58.548759 
L 116.92893 58.035154 
L 117.147669 57.876096 
L 117.831457 57.951375 
L 118.171513 57.659972 
L 118.930665 56.801562 
L 119.237634 56.623083 
L 119.511517 56.409396 
L 120.1806 55.408969 
L 120.562933 55.090879 
L 121.368039 54.994967 
L 121.739343 54.824997 
L 121.978301 54.370938 
L 121.936024 53.955735 
L 121.733828 53.403354 
L 121.459946 52.860694 
L 121.191577 52.479503 
L 121.015116 52.3229 
L 120.798215 52.186936 
L 120.568448 52.094675 
L 120.357061 52.067968 
L 120.164057 52.142019 
L 119.779885 52.386027 
L 119.583205 52.379957 
L 119.316674 52.050972 
L 119.355275 51.576317 
L 119.511517 51.050685 
L 119.590557 50.566335 
L 119.535413 50.338123 
L 119.342408 49.869564 
L 119.325865 49.640144 
L 119.436153 49.348818 
L 119.596071 49.260207 
L 119.783562 49.210439 
L 119.976566 49.034433 
L 120.173247 48.460293 
L 120.057445 48.000262 
L 119.590557 47.20888 
L 119.502326 46.893305 
L 119.540927 46.788923 
L 119.691655 46.697892 
L 119.934289 46.424803 
L 120.073988 46.154143 
L 120.140161 45.912615 
L 120.184276 45.669876 
L 120.261478 45.394369 
L 120.49676 44.902833 
L 120.785348 44.538738 
L 121.805516 43.618814 
L 122.011388 43.311775 
L 122.314681 42.485336 
L 122.617974 41.880996 
L 122.862446 41.978077 
L 123.316467 42.86882 
L 123.825632 43.189203 
L 124.386264 43.066632 
L 125.547969 42.400387 
L 126.279549 42.293596 
L 126.566299 42.134623 
L 126.709674 41.672271 
L 126.777685 40.673572 
L 126.887973 40.252503 
L 127.507426 39.165282 
L 127.461473 38.989341 
L 127.193104 38.871643 
L 126.911869 38.420271 
L 126.899002 38.01016 
L 127.518455 34.472335 
L 127.841968 33.381732 
L 128.222463 32.869203 
L 128.398924 32.906809 
L 128.557004 33.011133 
L 128.716922 33.071787 
L 128.902575 32.977167 
L 129.00551 32.756994 
L 128.994482 32.499219 
L 128.852945 32.012183 
L 128.558842 31.314703 
L 128.498184 31.021768 
L 128.492669 30.784632 
L 128.529432 30.307943 
L 128.509213 30.062931 
L 128.068059 28.648102 
L 127.994533 28.087775 
L 127.99821 27.153321 
L 128.102984 26.232248 
L 128.794124 23.503221 
L 128.781257 22.727203 
L 128.53127 22.387097 
L 128.167319 22.117927 
L 127.886083 21.783288 
L 127.895274 21.248605 
L 128.020267 21.081898 
L 128.645235 20.631493 
L 128.810668 20.371439 
L 129.152562 19.45855 
L 129.376815 18.44266 
L 129.575334 16.370435 
L 129.679409 15.96256 
L 129.817968 15.419553 
L 129.977887 15.19593 
L 130.334486 15.066242 
L 130.455803 14.914133 
L 130.580796 14.695364 
L 131.341786 13.771229 
L 131.477809 13.845764 
L 131.600964 14.04695 
L 131.773749 14.174813 
L 132.02006 14.094216 
L 132.102776 13.848188 
L 132.174464 13.54702 
L 132.850899 12.787758 
L 132.929939 12.086089 
L 132.917072 11.309923 
L 133.091696 10.564689 
L 133.32514 10.257516 
L 133.538364 10.221164 
L 133.694606 10.413222 
L 133.775484 10.785832 
L 133.942755 11.126944 
L 134.297516 11.244486 
L 135.047477 11.309317 
L 135.472087 11.517746 
L 135.692664 11.67831 
L 135.802952 11.847964 
L 135.872802 12.23757 
L 135.98309 12.609611 
L 136.168742 12.896222 
L 136.464683 13.033166 
L 136.687098 12.871984 
L 137.541833 11.752231 
L 137.865345 11.49351 
L 138.052836 11.291746 
L 138.18702 11.007584 
L 138.334071 10.499255 
L 138.525238 10.636787 
L 138.709052 10.679804 
L 139.122633 10.710098 
L 139.922224 10.993043 
L 140.166697 11.033637 
L 140.672185 10.845208 
L 141.168483 10.511372 
L 141.622504 10.39444 
L 142.10042 11.007584 
L 142.219899 11.014855 
L 142.344893 10.991831 
L 142.468048 11.04939 
L 142.532383 11.168144 
L 142.596718 11.465638 
L 143.052577 12.474488 
L 143.2272 12.584162 
L 143.412852 12.615671 
L 143.598504 12.541141 
L 144.035982 11.944911 
L 144.227148 11.956423 
L 144.427505 12.060641 
L 144.739989 11.952787 
L 144.885202 11.766772 
L 144.846601 11.615902 
L 144.758371 11.445038 
L 144.74918 11.204498 
L 144.888879 10.86702 
L 145.263859 10.376264 
L 145.385176 10.08 
L 145.581857 10.113322 
L 146.357553 11.598936 
L 146.594673 11.619537 
L 147.045017 11.315982 
L 147.511904 11.555311 
L 147.855637 11.543193 
L 148.192016 11.413531 
L 148.754487 10.783409 
L 149.070647 10.837938 
L 149.723187 11.445038 
L 150.405137 11.644379 
L 151.802123 11.296593 
L 152.535541 11.295381 
L 153.537328 11.656497 
L 156.811055 11.572277 
L 156.98384 11.448673 
L 157.268752 11.106344 
L 157.487491 11.034849 
L 157.74483 11.096649 
L 157.880853 11.25721 
L 157.983788 11.477756 
L 158.127163 11.719512 
L 158.783379 12.326641 
L 160.224481 13.29918 
L 161.226267 14.69294 
L 161.645363 15.032305 
L 162.137985 15.212899 
L 162.746409 15.337134 
L 163.034997 15.35289 
L 163.525781 15.308651 
L 163.81253 15.453491 
z
" clip-path="url(#p292bf242fc)" style="stroke: #000000; stroke-linejoin: miter"/>
   </g>
   <g id="line2d_1">
    <path d="M 163.969329 15.641122 
L 163.762358 15.824365 
L 163.105259 16.518223 
L 162.914208 16.48959 
L 160.517389 15.404436 
L 160.531863 15.509417 
L 160.76344 16.043877 
L 161.067384 16.208036 
L 161.051463 16.563082 
L 160.922649 17.06512 
L 161.181725 17.182518 
L 161.898165 17.319007 
L 162.178952 17.511811 
L 162.341056 17.806747 
L 162.210794 18.365134 
L 162.401845 18.462495 
L 163.135653 18.229592 
L 165.050503 20.627479 
L 165.94931 20.971149 
L 166.141808 21.228905 
L 166.127335 21.521033 
L 165.846548 21.784525 
L 165.458657 21.84467 
L 165.053398 21.723425 
L 164.387615 21.120074 
L 164.021434 20.953965 
L 163.1921 20.879503 
L 163.1921 21.039884 
L 163.701569 21.095254 
L 164.18788 21.391198 
L 165.206817 22.3688 
L 166.149045 22.229413 
L 166.778644 22.884352 
L 167.790345 24.375704 
L 167.806266 24.570486 
L 167.696267 24.686018 
L 167.408243 24.726121 
L 166.37049 24.578124 
L 166.596278 24.933318 
L 166.940748 25.201627 
L 167.704951 25.539645 
L 168.428628 25.720114 
L 168.631258 25.918727 
L 168.576258 26.340786 
L 168.417049 26.547044 
L 167.704951 27.156281 
L 167.418375 27.745482 
L 167.195482 27.90496 
L 165.454315 28.117918 
L 165.063529 28.019556 
L 163.99104 27.47905 
L 163.604596 27.269919 
L 162.927234 25.582613 
L 162.578422 24.496965 
L 162.219478 24.259218 
L 162.462634 24.900854 
L 162.77092 26.596699 
L 163.012628 27.014952 
L 163.1921 27.593644 
L 163.206574 28.175217 
L 162.948945 28.59923 
L 162.675395 28.57631 
L 161.546458 27.958438 
L 159.258191 27.991862 
L 157.786232 27.660491 
L 155.492175 27.696779 
L 154.872707 28.023376 
L 154.425475 28.903875 
L 154.842313 28.577265 
L 155.914802 28.288859 
L 156.893214 28.278354 
L 157.42584 28.390087 
L 157.734127 28.701415 
L 157.438867 29.828342 
L 157.622681 30.441491 
L 158.201622 31.338323 
L 158.383989 31.446251 
L 159.298717 31.837852 
L 159.431874 32.031744 
L 159.670687 32.621074 
L 160.018052 32.374642 
L 160.540547 32.324974 
L 161.084752 32.4224 
L 161.746193 32.628715 
L 161.82435 32.650684 
L 161.854745 33.501753 
L 161.741851 34.099717 
L 161.429223 34.382466 
L 161.252645 34.495184 
L 160.398706 35.912806 
L 160.277128 37.122245 
L 160.01371 37.447065 
L 159.81687 37.407895 
L 159.427531 36.948372 
L 158.751617 36.640755 
L 158.589513 36.711449 
L 158.64596 37.116513 
L 158.685039 37.356306 
L 158.889116 37.619985 
L 160.468179 38.697662 
L 161.95606 38.838108 
L 162.024085 39.093204 
L 161.976322 39.848955 
L 162.449607 40.480517 
L 163.131311 40.546445 
L 163.908541 40.466185 
L 164.656823 40.664924 
L 164.924583 40.991701 
L 165.076556 41.863127 
L 164.568534 42.272096 
L 163.930251 43.244855 
L 164.203801 43.35188 
L 164.952083 43.176054 
L 165.206817 42.996407 
L 165.542604 42.919961 
L 165.895758 43.192299 
L 166.118651 43.547775 
L 166.066546 43.725515 
L 165.751023 43.808652 
L 164.781295 44.351437 
L 163.553939 44.527271 
L 163.553939 44.687816 
L 163.973672 44.677304 
L 165.267606 45.006998 
L 166.978379 45.169457 
L 166.778644 45.523048 
L 165.697471 46.050576 
L 164.902873 46.956572 
L 165.146029 47.268134 
L 165.861022 47.57301 
L 167.260613 47.917074 
L 167.826529 48.5364 
L 168.043632 49.359322 
L 168.24192 51.36081 
L 168.576258 52.07962 
L 169.30283 52.894992 
L 169.563354 53.394932 
L 171.450704 55.628032 
L 172.327801 57.799143 
L 172.462405 57.386134 
L 172.796744 57.729352 
L 173.129635 58.421536 
L 173.372791 59.204561 
L 173.435027 59.823155 
L 173.294634 60.194125 
L 172.462405 61.441876 
L 170.874657 62.068158 
L 170.622818 62.517558 
L 170.515713 63.433585 
L 170.156769 63.848578 
L 170.15098 64.154567 
L 169.583617 64.108668 
L 168.576258 63.848578 
L 168.897571 64.278875 
L 169.570591 64.752208 
L 169.896246 65.176777 
L 169.175463 65.452177 
L 167.959685 65.452177 
L 167.056536 65.294396 
L 167.221535 65.612827 
L 167.482059 65.764872 
L 168.445997 65.948474 
L 169.100201 66.742179 
L 169.415724 66.575787 
L 169.395461 68.121161 
L 169.119016 68.481693 
L 169.223226 69.032538 
L 169.362172 69.157818 
L 169.640064 69.111914 
L 169.94835 69.702934 
L 170.317426 70.601913 
L 171.855963 71.419617 
L 172.488457 71.449265 
L 172.573851 71.65202 
L 172.518852 72.378884 
L 172.64043 72.616074 
L 173.921338 74.467727 
L 174.963433 75.006212 
L 176.491839 76.629355 
L 177.203938 77.117168 
L 177.942089 77.314208 
L 178.244586 77.568639 
L 178.678792 78.174114 
L 179.227339 78.439071 
L 179.110104 78.742291 
L 178.775765 79.175602 
L 178.866948 79.39178 
L 179.043525 79.49413 
L 179.461811 79.500826 
L 179.651414 79.619438 
L 179.904701 80.581732 
L 180.137725 80.406682 
L 180.421407 80.555905 
L 181.200083 81.144195 
L 182.023628 81.222634 
L 182.57507 81.601438 
L 183.675059 83.265912 
L 184.63755 83.890579 
L 185.475568 85.110277 
L 185.549383 85.69 
L 185.31057 85.799057 
L 185.258465 86.002823 
L 185.85767 86.332867 
L 186.361349 87.044619 
L 186.908449 88.491106 
L 187.455549 88.491106 
L 187.950544 88.010854 
L 188.277646 88.070168 
L 189.470266 88.73219 
L 189.551318 88.975188 
L 189.464477 89.880219 
L 189.652633 90.135658 
L 189.661317 90.416928 
L 189.505003 90.741252 
L 188.928956 91.369811 
L 188.680011 91.912271 
L 188.38475 92.161019 
L 187.051737 92.942666 
L 186.808581 93.222989 
L 186.624767 93.858263 
L 186.122535 94.346202 
L 185.652145 94.453358 
L 185.241097 94.349073 
L 184.858995 94.040044 
L 184.220712 93.716665 
L 183.869005 93.476524 
L 183.455061 93.470783 
L 183.039671 93.608554 
L 181.721131 94.466753 
L 180.088515 93.661174 
L 179.114446 93.68605 
L 178.823527 94.233306 
L 178.496425 94.445704 
L 178.19827 94.3175 
L 177.586039 93.321532 
L 177.303805 93.178022 
L 175.008301 92.792459 
L 173.963311 92.374368 
L 173.387264 92.006986 
L 172.898059 91.53341 
L 172.462405 90.913459 
L 172.174381 90.222718 
L 171.766227 88.659482 
L 171.481099 88.010854 
L 171.237943 87.786993 
L 170.399925 87.117326 
L 170.315978 86.920253 
L 170.126375 86.92121 
L 169.780457 87.190989 
L 169.761642 87.628185 
L 169.913614 88.010854 
L 171.227812 90.256202 
L 171.767675 92.4002 
L 171.96741 92.534142 
L 172.209118 93.175152 
L 172.313327 94.074487 
L 172.253986 94.55573 
L 172.032541 94.765258 
L 171.559256 94.832231 
L 171.193075 94.59687 
L 170.732816 93.829561 
L 170.373873 93.651607 
L 169.933877 93.680309 
L 169.609669 93.963505 
L 168.632705 94.085011 
L 168.311393 94.284971 
L 167.903239 94.742296 
L 167.099957 95.95929 
L 166.856801 96.546743 
L 166.67154 98.399059 
L 166.127335 99.114734 
L 165.884179 100.092574 
L 164.915899 101.567958 
L 164.829058 102.3401 
L 165.03603 103.158173 
L 164.690112 103.562906 
L 164.294984 103.799239 
L 164.011303 104.224066 
L 163.730516 105.154095 
L 163.031444 106.780698 
L 163.2471 107.678204 
L 163.02276 108.391044 
L 162.484344 109.167037 
L 162.462634 109.756447 
L 162.74342 109.826296 
L 162.937366 109.878922 
L 163.082101 110.076031 
L 162.89684 110.244434 
L 162.341056 110.572629 
L 162.25132 110.969717 
L 162.341056 111.360107 
L 162.341056 112.018412 
L 162.723157 112.17342 
L 162.581317 112.498745 
L 162.935918 112.760919 
L 163.1921 113.300576 
L 163.313678 114.133027 
L 162.684079 115.262097 
L 162.506054 115.541493 
L 162.158689 116.770073 
L 161.99948 118.205325 
L 161.620273 119.009064 
L 161.60001 119.577422 
L 162.024085 120.620364 
L 162.523422 121.271005 
L 162.692763 121.22125 
L 162.668158 122.135972 
L 162.581317 122.48234 
L 162.019743 123.414279 
L 162.037111 123.693668 
L 162.178952 124.126147 
L 162.106584 124.658132 
L 161.733167 125.722098 
L 162.329477 125.343204 
L 164.481693 123.310943 
L 164.830505 123.136803 
L 165.089582 123.219089 
L 165.244449 123.636259 
L 164.781295 124.351954 
L 164.651033 124.570106 
L 163.808673 124.904988 
L 163.74499 125.193943 
L 164.367352 125.389131 
L 164.535245 125.634072 
L 164.438272 126.885562 
L 164.08946 127.459637 
L 163.417887 127.551488 
L 163.313678 127.649081 
L 163.313678 127.809821 
L 164.125644 128.186794 
L 164.051829 128.613518 
L 163.484466 129.23351 
L 163.687095 129.58943 
L 163.474334 129.704242 
L 162.523422 129.664058 
L 162.471318 129.824796 
L 162.571185 129.985533 
L 164.109723 130.475397 
L 164.795769 130.63422 
L 165.03024 131.148957 
L 164.957872 131.7498 
L 164.820374 131.856956 
L 164.047487 131.967939 
L 163.805778 132.082749 
L 163.44394 132.480756 
L 162.581317 132.159289 
L 162.659474 132.838579 
L 162.031322 132.666365 
L 161.854745 133.194486 
L 161.919876 133.747479 
L 161.82435 133.99623 
L 161.490011 134.084249 
L 161.225146 133.94648 
L 160.627388 133.10838 
L 160.352391 134.030672 
L 160.113577 134.463113 
L 159.912395 134.566439 
L 159.800949 134.342565 
L 159.714108 133.160043 
L 159.237928 132.561123 
L 158.889116 132.40039 
L 158.638723 132.850059 
L 158.064124 135.11177 
L 157.352025 135.691539 
L 156.797689 136.456905 
L 155.042048 139.751719 
L 154.580342 140.126729 
L 154.303897 141.657361 
L 154.021663 141.974963 
L 153.130093 142.527893 
L 150.856299 143.136301 
L 150.678274 143.032987 
L 150.639196 142.068713 
L 150.87222 141.471774 
L 150.639196 141.339758 
L 150.41775 141.621009 
L 150.274462 141.994096 
L 150.204989 141.666928 
L 150.102227 140.622275 
L 149.371313 139.485767 
L 149.317761 138.894546 
L 149.558022 137.444216 
L 149.314866 137.471004 
L 149.060132 137.92256 
L 148.909607 138.555883 
L 148.893686 140.09229 
L 149.562364 141.171389 
L 149.505917 141.435422 
L 149.188947 142.082106 
L 150.108017 142.516413 
L 150.163016 142.744089 
L 149.95315 143.32571 
L 149.668021 143.905412 
L 149.746178 144.982535 
L 149.656442 145.47613 
L 146.192923 147.385421 
L 145.687796 148.20039 
L 145.650165 149.244908 
L 146.136476 150.603133 
L 146.012004 151.138762 
L 145.705165 151.527088 
L 145.307142 151.800637 
L 143.743999 152.3879 
L 143.047822 152.978982 
L 141.875465 153.434244 
L 140.053246 155.450349 
L 140.417979 155.829076 
L 140.739292 155.894109 
L 141.182182 155.85968 
L 141.572968 155.71431 
L 141.968096 155.178735 
L 142.454407 155.041014 
L 142.723615 155.199775 
L 142.727957 155.151956 
L 142.848087 154.878427 
L 143.652816 154.903293 
L 143.952419 155.130915 
L 144.069654 155.601457 
L 143.453081 156.804569 
L 144.133338 157.667193 
L 144.395309 158.219952 
L 144.108733 159.3943 
L 144.33452 160.863144 
L 144.240442 161.390996 
L 143.690447 162.188499 
L 142.480459 162.59585 
L 141.649678 163.425838 
L 141.290734 163.94218 
L 141.13442 164.374373 
L 141.244418 164.374373 
L 142.094015 163.827438 
L 142.69322 163.634288 
L 142.96677 163.972778 
L 143.084006 164.884965 
L 143.400976 165.183285 
L 143.869919 165.055161 
L 145.307142 164.305528 
L 145.540166 164.374373 
L 145.619771 164.982493 
L 145.750033 165.311409 
L 145.958452 165.263602 
L 146.470815 164.804647 
L 146.744365 164.714768 
L 146.865943 164.944247 
L 146.826864 165.663269 
L 145.70227 172.445438 
L 145.30859 173.409014 
L 144.677543 173.560048 
L 144.512545 173.257979 
L 144.295441 172.307781 
L 144.004523 172.103208 
L 143.331503 172.103208 
L 142.754009 172.363226 
L 142.602037 172.263808 
L 141.612046 172.525737 
L 141.487574 172.967379 
L 141.559942 173.066795 
L 141.855202 173.259891 
L 141.803097 173.716817 
L 141.377575 174.684178 
L 141.620731 174.844764 
L 142.172173 173.707258 
L 142.610721 173.475928 
L 142.891508 173.49887 
L 143.088348 173.881232 
L 143.040585 174.234913 
L 142.602037 175.727975 
L 142.584669 180.63294 
L 142.041911 182.139048 
L 141.212577 183.583915 
L 140.781265 184.015831 
L 140.4339 184.09992 
L 140.166139 183.926009 
L 139.992457 183.536137 
L 139.799959 182.077888 
L 139.653776 181.896318 
L 139.193517 181.609626 
L 138.928651 180.77438 
L 138.668128 179.585497 
L 138.464051 179.992628 
L 138.584181 180.808785 
L 138.077607 182.2499 
L 138.351157 183.090834 
L 137.97774 183.840008 
L 138.057344 184.034942 
L 138.20208 184.012009 
L 138.464051 183.840008 
L 138.96773 183.969964 
L 139.076282 184.235609 
L 139.073387 184.608271 
L 139.254306 185.05928 
L 139.513383 185.380333 
L 140.63074 186.439015 
L 140.850738 186.804001 
L 140.808765 187.102102 
L 139.996799 187.331407 
L 139.302069 187.675362 
L 139.07194 187.5588 
L 139.002467 187.948611 
L 139.357068 188.777895 
L 139.435225 189.33583 
L 139.322332 189.897574 
L 139.09365 190.128764 
L 138.342473 190.459305 
L 138.485761 189.859361 
L 138.650759 189.794398 
L 138.828784 189.977822 
L 139.07194 189.656828 
L 139.158781 189.198258 
L 138.872205 189.186794 
L 138.063134 189.668292 
L 137.880767 190.107747 
L 137.613006 191.097447 
L 136.514464 193.556232 
L 136.266967 194.478926 
L 135.910918 197.567672 
L 135.527369 198.180786 
L 135.188688 198.306844 
L 134.009094 198.324034 
L 133.574888 198.448182 
L 133.184102 198.753774 
L 132.480688 199.607498 
L 131.807668 200.249202 
L 128.687172 202.210478 
L 123.89064 204.616467 
L 119.385025 207.02599 
L 116.106768 209.024793 
L 113.20627 211.366968 
L 112.342199 211.68 
L 111.638785 211.359333 
L 111.316025 210.462201 
L 111.386945 209.442855 
L 111.760363 207.661734 
L 111.399971 205.632244 
L 111.274051 203.961531 
L 111.395629 199.941721 
L 111.135105 198.86264 
L 110.075642 197.114988 
L 109.816566 196.079702 
L 109.845513 195.05965 
L 110.314456 192.060358 
L 109.62841 192.518874 
L 109.419991 192.874217 
L 109.211572 195.353827 
L 109.007495 195.642269 
L 108.557367 195.596425 
L 107.862637 195.281238 
L 107.070934 194.654673 
L 105.368846 193.590619 
L 105.213979 193.221913 
L 105.242926 192.771053 
L 105.425292 192.396604 
L 105.737921 192.236123 
L 105.89713 192.006864 
L 106.285021 190.459305 
L 106.923304 189.393151 
L 107.014488 188.854325 
L 106.29081 189.710328 
L 105.677132 191.082162 
L 104.938981 192.346931 
L 103.844781 192.862754 
L 103.251366 192.771053 
L 102.765055 192.524605 
L 102.452427 192.043164 
L 102.377164 191.257935 
L 102.707161 188.961327 
L 102.62032 188.357524 
L 102.464005 188.781716 
L 102.19914 190.489875 
L 101.955984 190.726792 
L 101.27428 192.236123 
L 100.182975 192.927709 
L 99.602586 193.156959 
L 98.491018 193.997525 
L 97.231819 194.576351 
L 95.425521 194.98324 
L 93.991193 194.612646 
L 93.853694 192.862754 
L 94.080929 191.911339 
L 94.192375 190.894925 
L 94.161981 189.897574 
L 93.617775 187.979184 
L 93.29791 187.879821 
L 91.38885 187.990649 
L 91.035695 188.214214 
L 90.783856 188.569621 
L 90.56241 189.486776 
L 90.265703 189.693131 
L 89.246765 189.824969 
L 89.016636 189.740899 
L 88.893611 189.473401 
L 88.782165 188.590639 
L 88.360984 187.833961 
L 88.126513 187.704024 
L 88.882032 189.675935 
L 88.986242 190.283527 
L 87.81099 188.682356 
L 87.032313 188.04033 
L 86.684948 187.409753 
L 86.328899 186.072112 
L 85.990218 185.69756 
L 85.57338 185.405177 
L 84.544311 184.887286 
L 83.367612 182.077888 
L 83.302481 184.096098 
L 82.803144 185.001949 
L 82.516567 184.979017 
L 82.091045 185.508371 
L 81.836311 185.907769 
L 81.69447 186.385509 
L 82.064993 187.136498 
L 82.383411 187.398288 
L 83.124456 187.704024 
L 76.868991 193.011768 
L 76.304522 193.672764 
L 75.948473 193.837056 
L 75.300059 193.653661 
L 75.200191 193.751089 
L 75.019272 194.169455 
L 74.651644 194.31846 
L 74.288358 194.165634 
L 71.90167 191.869307 
L 71.16352 191.468096 
L 70.341422 191.257935 
L 68.565519 191.62476 
L 67.035665 192.862754 
L 64.479637 196.226784 
L 63.729908 197.011844 
L 63.272544 197.317455 
L 62.951231 197.275434 
L 62.635708 197.038585 
L 61.7919 196.685216 
L 61.555981 196.400607 
L 61.548745 195.903966 
L 62.027819 194.398693 
L 62.160976 192.38132 
L 61.66598 188.357524 
L 61.712296 187.279814 
L 61.978609 185.334469 
L 61.799137 184.321608 
L 60.693358 181.71857 
L 60.583359 180.808785 
L 60.52836 179.6696 
L 60.27652 179.488014 
L 60.218626 179.27011 
L 60.288099 178.799889 
L 60.560202 178.163359 
L 60.583359 177.746643 
L 60.039154 178.22835 
L 59.723631 178.948984 
L 59.85534 180.327122 
L 59.599158 180.789671 
L 59.221399 181.256036 
L 59.115742 181.609626 
L 59.282188 181.879117 
L 59.386397 181.936455 
L 59.723631 182.479249 
L 59.683105 182.563343 
L 59.480475 182.639791 
L 58.713377 182.995275 
L 57.306549 184.256631 
L 56.985236 184.321608 
L 56.675503 184.172542 
L 56.435242 183.3928 
L 56.320901 183.037321 
L 55.809985 182.513651 
L 55.131175 182.238433 
L 53.628822 182.077888 
L 52.938434 182.148604 
L 52.439096 182.395155 
L 48.253347 185.323003 
L 46.926123 185.942166 
L 46.147447 186.035804 
L 45.509164 185.842795 
L 43.73326 184.661781 
L 43.086292 184.64267 
L 42.801163 184.499339 
L 42.824321 184.164898 
L 43.154318 183.518936 
L 43.692734 182.926472 
L 46.390602 181.54082 
L 46.564285 181.529352 
L 46.390602 181.04579 
L 45.999817 181.16047 
L 45.027195 181.965124 
L 43.507472 182.561431 
L 43.203528 182.941762 
L 41.799594 185.359312 
L 41.168548 185.783555 
L 40.602632 185.139544 
L 40.6475 184.814666 
L 40.771973 184.761156 
L 40.815393 184.327342 
L 40.359477 181.770174 
L 39.85435 180.98845 
L 39.15962 180.778203 
L 38.422917 180.942578 
L 36.573198 182.02055 
L 34.740847 183.840008 
L 34.067827 183.954676 
L 33.659673 183.255196 
L 33.030074 181.449078 
L 33.329676 180.976982 
L 33.611911 180.292717 
L 33.781251 179.545357 
L 33.759541 178.868702 
L 33.433886 177.826928 
L 33.151652 175.727975 
L 33.011259 175.433574 
L 32.365738 175.253874 
L 32.17903 174.991968 
L 32.239819 174.783589 
L 32.665341 173.957704 
L 32.930207 173.372689 
L 34.098222 173.472105 
L 34.376114 172.571622 
L 33.776909 173.078266 
L 33.318098 172.913847 
L 32.964943 172.33646 
L 32.17903 170.252427 
L 32.139951 169.235217 
L 31.736139 166.695883 
L 31.115224 165.934812 
L 31.086277 165.032213 
L 31.684035 162.027852 
L 31.584167 160.993195 
L 30.721544 158.571877 
L 30.556545 158.457119 
L 29.994972 158.263943 
L 29.165638 157.684407 
L 28.562091 157.439585 
L 27.67631 156.307262 
L 28.041044 156.003136 
L 27.800783 155.691357 
L 27.797888 155.199775 
L 27.993281 154.979805 
L 29.278532 154.054005 
L 29.469582 153.629354 
L 30.073129 151.641864 
L 30.129576 150.04837 
L 30.605756 147.05637 
L 30.650624 146.053898 
L 30.478388 145.030364 
L 30.171549 144.052729 
L 29.912473 143.608866 
L 29.565108 143.423284 
L 29.178664 143.352495 
L 28.750247 143.134388 
L 28.470908 142.782353 
L 28.52446 142.315522 
L 28.139464 142.135677 
L 28.000518 141.626749 
L 28.029465 140.978148 
L 28.263936 139.887565 
L 28.22341 139.5336 
L 28.012097 139.323134 
L 27.502628 139.204507 
L 26.880265 138.886892 
L 26.460533 138.913679 
L 26.239087 138.657291 
L 26.006063 137.949347 
L 25.574752 137.662342 
L 24.658576 135.806345 
L 24.671603 134.951041 
L 25.210018 133.931172 
L 25.181071 133.850806 
L 24.671603 134.042153 
L 24.484894 134.271767 
L 24.373448 135.144299 
L 24.302527 135.649444 
L 24.120161 135.961332 
L 23.646876 136.506654 
L 22.56136 135.821652 
L 22.365967 135.867574 
L 22.248731 135.660925 
L 21.947682 134.405709 
L 21.558343 134.003883 
L 20.294803 133.399228 
L 19.213629 133.280592 
L 19.083367 133.364785 
L 18.997973 133.75896 
L 19.144156 134.164614 
L 19.052973 134.620016 
L 18.831528 134.803706 
L 18.293112 134.742476 
L 16.650365 133.670941 
L 16.460761 133.445151 
L 15.964319 129.736773 
L 16.065634 129.308139 
L 16.271158 129.067031 
L 16.556287 129.105302 
L 17.182991 129.715724 
L 18.41469 129.736773 
L 18.683898 129.905164 
L 19.23534 130.43904 
L 20.115331 130.701193 
L 20.665326 130.421818 
L 20.610326 130.218984 
L 20.446775 130.153924 
L 19.811387 130.138616 
L 19.330865 129.334928 
L 18.945869 128.986662 
L 18.345217 128.726418 
L 17.918247 128.613518 
L 17.997852 128.416422 
L 18.161403 128.278645 
L 17.918247 127.809821 
L 18.23956 127.815561 
L 19.144156 127.957166 
L 19.144156 127.809821 
L 18.727318 127.419451 
L 18.262717 127.184081 
L 17.71996 127.099884 
L 16.538918 127.157291 
L 16.268263 127.304637 
L 15.65748 126.613833 
L 15.42735 126.386116 
L 15.114722 126.349757 
L 14.650121 126.455005 
L 14.446044 126.277041 
L 13.916312 125.50012 
L 13.794735 125.123139 
L 13.430001 123.012417 
L 13.425659 121.864235 
L 14.020522 121.839357 
L 13.21724 120.126641 
L 13.403949 119.43007 
L 12.961058 119.265495 
L 12.800402 119.37266 
L 12.794613 119.751565 
L 12.496458 119.531494 
L 12.42409 119.154503 
L 12.674482 118.469411 
L 13.133294 118.251253 
L 13.712235 118.147915 
L 14.73262 118.358419 
L 15.188537 118.611022 
L 15.599585 118.951655 
L 15.492481 118.584231 
L 14.991697 117.81111 
L 14.954065 117.543196 
L 14.991697 116.601669 
L 14.797751 114.677468 
L 14.401176 113.591455 
L 14.46486 112.575292 
L 14.663147 112.569551 
L 15.114722 112.820243 
L 16.945625 113.126432 
L 16.591023 112.726473 
L 15.810899 112.026066 
L 14.567622 110.732421 
L 13.421317 107.656197 
L 12.192513 106.474513 
L 11.888569 106.393183 
L 10.768317 106.277407 
L 10.33411 105.963568 
L 10.195164 105.371294 
L 10.620686 102.901748 
L 10.507793 102.434825 
L 10.056218 101.51342 
L 10.077928 100.641775 
L 10.377531 99.851462 
L 10.308058 98.305294 
L 10.130033 97.827861 
L 9.396225 96.567792 
L 9.556881 96.131507 
L 9.63938 95.6493 
L 9.51346 95.089597 
L 9.040175 94.288798 
L 9.031491 93.803729 
L 9.413593 93.255518 
L 9.94043 92.839339 
L 10.286348 92.775238 
L 10.559897 92.585805 
L 10.98542 91.875915 
L 11.260417 90.892412 
L 11.251733 89.963452 
L 10.255953 86.002823 
L 10.403583 85.67278 
L 10.753843 85.531197 
L 11.471731 85.441273 
L 12.183829 85.179154 
L 13.525527 84.481771 
L 14.419992 83.637076 
L 15.65748 81.427341 
L 15.93103 80.92801 
L 16.339184 80.581732 
L 16.339184 80.42103 
L 15.878925 80.355984 
L 14.949723 81.649267 
L 14.537227 82.753172 
L 14.256441 83.130074 
L 14.045127 83.69256 
L 12.778692 84.461682 
L 11.819096 84.585086 
L 11.350153 84.785022 
L 11.431205 84.040768 
L 11.709097 83.413229 
L 12.31988 82.360968 
L 12.568825 81.577524 
L 12.683166 80.834266 
L 12.683166 78.127245 
L 12.90027 77.306556 
L 13.308423 76.679092 
L 16.096028 74.146361 
L 16.443393 73.548587 
L 17.311806 71.564032 
L 17.806801 70.689899 
L 17.680881 70.582786 
L 17.553514 70.689899 
L 16.702469 71.564032 
L 16.74589 71.147047 
L 17.562198 69.873165 
L 17.666407 67.866782 
L 17.984825 67.566502 
L 19.144156 67.392456 
L 21.897024 66.407482 
L 22.355836 65.859541 
L 23.078065 64.395534 
L 22.74631 65.653793 
L 21.81805 67.559909 
L 21.01662 68.580711 
L 21.000077 68.937177 
L 21.32359 70.715305 
L 21.685703 71.227259 
L 21.919147 71.334752 
L 22.700357 71.339611 
L 23.016517 71.498725 
L 23.1121 71.948135 
L 23.014679 74.87973 
L 23.305105 75.819312 
L 23.646999 76.391452 
L 25.352793 78.436508 
L 25.501682 79.131371 
L 25.8399 78.885374 
L 25.96857 79.04512 
L 26.282892 80.041875 
L 26.591699 80.377774 
L 27.301221 80.364411 
L 27.644954 80.365626 
L 27.968466 80.577615 
L 28.187205 80.959682 
L 28.742323 82.839075 
L 28.964738 83.094201 
L 29.602573 83.49876 
L 29.933438 83.897247 
L 30.308418 84.792637 
L 30.712809 85.188702 
L 31.049189 85.353932 
L 32.093252 85.536172 
L 32.416765 85.75729 
L 32.679619 86.233547 
L 33.06379 87.23224 
L 33.949774 88.940499 
L 34.238362 90.069234 
L 34.736498 89.912498 
L 35.863278 90.296441 
L 36.15738 90.643936 
L 36.903665 91.987756 
L 37.572748 92.686405 
L 38.392558 93.213737 
L 39.238103 93.353468 
L 39.988064 92.889318 
L 40.296871 92.352268 
L 40.629575 92.477417 
L 40.907134 92.823706 
L 41.14793 92.865017 
L 41.381374 92.750803 
L 41.910758 92.177302 
L 42.633147 92.091034 
L 42.649691 92.021777 
L 42.923574 91.907564 
L 43.201133 92.133561 
L 43.329803 92.018132 
L 43.561408 91.042463 
L 44.552166 89.924648 
L 45.044787 89.611177 
L 45.581524 89.489677 
L 46.699113 89.442292 
L 50.686039 88.09001 
L 51.0408 88.136179 
L 53.825582 89.681647 
L 54.206077 89.710807 
L 55.568139 89.336587 
L 55.751953 89.556502 
L 56.121419 90.835909 
L 56.33832 90.693751 
L 56.755578 89.912498 
L 58.507325 89.100878 
L 58.825323 89.134898 
L 59.30324 89.307427 
L 60.738827 90.023064 
L 61.810463 89.659777 
L 63.358177 87.177567 
L 64.483118 86.707378 
L 66.370888 86.632051 
L 66.609846 86.493546 
L 66.736678 86.216538 
L 67.672291 82.658058 
L 68.289906 80.932955 
L 68.300935 80.656579 
L 68.190647 80.454309 
L 67.786256 80.436086 
L 67.698025 80.23078 
L 67.830371 79.642806 
L 68.159398 79.302052 
L 70.631697 77.827902 
L 72.045226 77.555186 
L 72.887095 76.644726 
L 73.324572 76.513533 
L 78.631282 76.876135 
L 79.212135 77.074748 
L 79.550352 76.749194 
L 79.833426 76.316138 
L 80.162453 76.159437 
L 80.752496 76.344077 
L 81.099904 76.446115 
L 82.265285 76.461907 
L 82.993189 76.910148 
L 83.158621 77.233881 
L 83.175164 77.765949 
L 82.871871 78.73231 
L 82.594312 79.115579 
L 81.947287 79.900955 
L 81.998755 80.086823 
L 82.265285 80.100186 
L 82.945397 79.797088 
L 83.642052 79.636732 
L 84.32584 79.718125 
L 84.97838 80.134201 
L 85.814734 80.836983 
L 86.614325 80.903799 
L 87.651036 81.18625 
L 88.498418 81.597478 
L 89.812688 82.948415 
L 90.619632 82.984861 
L 91.694944 82.464893 
L 92.069924 82.48676 
L 92.455934 82.768612 
L 93.351108 84.17789 
L 93.854758 84.508346 
L 94.294074 84.374705 
L 97.115619 81.872037 
L 98.183578 80.090468 
L 98.591645 79.633088 
L 98.920672 79.456332 
L 101.486716 78.925462 
L 102.20359 78.910885 
L 102.85613 79.181178 
L 103.611606 79.97263 
L 103.786229 79.903385 
L 104.215989 79.527517 
L 107.194141 77.940877 
L 107.60956 78.020445 
L 108.021304 78.287697 
L 109.431157 79.607577 
L 109.815328 79.763073 
L 110.230748 79.633088 
L 110.51566 79.27897 
L 110.629624 78.823419 
L 110.543232 77.248458 
L 110.745427 76.848196 
L 111.633249 75.781656 
L 112.092784 74.77891 
L 112.425487 73.543575 
L 112.601949 71.184748 
L 112.517394 70.302345 
L 112.774734 69.871778 
L 113.136847 69.595465 
L 114.098195 69.437572 
L 115.094467 68.92989 
L 115.324234 68.642652 
L 115.278281 67.699577 
L 115.357321 66.899832 
L 115.557678 66.122571 
L 115.48599 65.45341 
L 115.313205 65.299784 
L 114.901462 65.365364 
L 114.61655 65.533563 
L 114.410678 65.504417 
L 114.208483 64.785475 
L 114.186425 63.761736 
L 113.919895 63.183693 
L 113.903352 62.744096 
L 114.105547 61.461764 
L 114.377592 60.542544 
L 114.916167 60.132121 
L 116.292934 59.885627 
L 116.77085 59.676776 
L 116.882977 59.403572 
L 116.805775 58.548759 
L 116.92893 58.035154 
L 117.147669 57.876096 
L 117.831457 57.951375 
L 118.171513 57.659972 
L 118.930665 56.801562 
L 119.511517 56.409396 
L 120.1806 55.408969 
L 120.562933 55.090879 
L 121.368039 54.994967 
L 121.739343 54.824997 
L 121.978301 54.370938 
L 121.936024 53.955735 
L 121.459946 52.860694 
L 121.015116 52.3229 
L 120.568448 52.094675 
L 120.164057 52.142019 
L 119.583205 52.379957 
L 119.316674 52.050972 
L 119.355275 51.576317 
L 119.590557 50.566335 
L 119.325865 49.640144 
L 119.436153 49.348818 
L 119.976566 49.034433 
L 120.173247 48.460293 
L 120.057445 48.000262 
L 119.502326 46.893305 
L 119.691655 46.697892 
L 120.073988 46.154143 
L 120.49676 44.902833 
L 120.785348 44.538738 
L 122.011388 43.311775 
L 122.617974 41.880996 
L 122.862446 41.978077 
L 123.316467 42.86882 
L 123.825632 43.189203 
L 124.386264 43.066632 
L 125.547969 42.400387 
L 126.279549 42.293596 
L 126.566299 42.134623 
L 126.709674 41.672271 
L 126.887973 40.252503 
L 127.507426 39.165282 
L 127.461473 38.989341 
L 127.193104 38.871643 
L 126.911869 38.420271 
L 126.899002 38.01016 
L 127.518455 34.472335 
L 127.841968 33.381732 
L 128.222463 32.869203 
L 128.902575 32.977167 
L 129.00551 32.756994 
L 128.994482 32.499219 
L 128.492669 30.784632 
L 128.509213 30.062931 
L 127.994533 28.087775 
L 128.102984 26.232248 
L 128.794124 23.503221 
L 128.781257 22.727203 
L 128.53127 22.387097 
L 127.886083 21.783288 
L 127.895274 21.248605 
L 128.020267 21.081898 
L 128.645235 20.631493 
L 128.810668 20.371439 
L 129.152562 19.45855 
L 129.376815 18.44266 
L 129.679409 15.96256 
L 129.977887 15.19593 
L 130.455803 14.914133 
L 130.580796 14.695364 
L 131.341786 13.771229 
L 131.477809 13.845764 
L 131.773749 14.174813 
L 132.02006 14.094216 
L 132.174464 13.54702 
L 132.850899 12.787758 
L 133.091696 10.564689 
L 133.32514 10.257516 
L 133.538364 10.221164 
L 133.694606 10.413222 
L 133.942755 11.126944 
L 134.297516 11.244486 
L 135.047477 11.309317 
L 135.692664 11.67831 
L 135.802952 11.847964 
L 135.98309 12.609611 
L 136.168742 12.896222 
L 136.464683 13.033166 
L 136.687098 12.871984 
L 137.865345 11.49351 
L 138.18702 11.007584 
L 138.334071 10.499255 
L 138.709052 10.679804 
L 139.122633 10.710098 
L 140.166697 11.033637 
L 140.672185 10.845208 
L 141.168483 10.511372 
L 141.622504 10.39444 
L 142.219899 11.014855 
L 142.468048 11.04939 
L 142.596718 11.465638 
L 143.052577 12.474488 
L 143.412852 12.615671 
L 143.598504 12.541141 
L 144.035982 11.944911 
L 144.739989 11.952787 
L 144.885202 11.766772 
L 144.74918 11.204498 
L 144.888879 10.86702 
L 145.581857 10.113322 
L 146.357553 11.598936 
L 146.594673 11.619537 
L 147.045017 11.315982 
L 147.511904 11.555311 
L 147.855637 11.543193 
L 148.192016 11.413531 
L 148.754487 10.783409 
L 149.070647 10.837938 
L 149.723187 11.445038 
L 150.405137 11.644379 
L 151.802123 11.296593 
L 152.535541 11.295381 
L 153.537328 11.656497 
L 156.811055 11.572277 
L 156.98384 11.448673 
L 157.268752 11.106344 
L 157.487491 11.034849 
L 157.74483 11.096649 
L 158.783379 12.326641 
L 160.224481 13.29918 
L 161.226267 14.69294 
L 161.645363 15.032305 
L 162.746409 15.337134 
L 163.81253 15.453491 
L 163.969329 15.641122 
L 163.969329 15.641122 
" clip-path="url(#p292bf242fc)" style="fill: none; stroke: #000000; stroke-width: 0.5; stroke-linecap: square"/>
   </g>
  </g>
 </g>
 <defs>
  <clipPath id="p292bf242fc">
   <rect x="0" y="-0" width="198.692808" height="221.76"/>
  </clipPath>
 </defs>
</svg>
