<?xml version="1.0" encoding="utf-8" standalone="no"?>
<!DOCTYPE svg PUBLIC "-//W3C//DTD SVG 1.1//EN"
  "http://www.w3.org/Graphics/SVG/1.1/DTD/svg11.dtd">
<svg xmlns:xlink="http://www.w3.org/1999/xlink" width="223.2pt" height="106.211305pt" viewBox="0 0 223.2 106.211305" xmlns="http://www.w3.org/2000/svg" version="1.1">
 <metadata>
  <rdf:RDF xmlns:dc="http://purl.org/dc/elements/1.1/" xmlns:cc="http://creativecommons.org/ns#" xmlns:rdf="http://www.w3.org/1999/02/22-rdf-syntax-ns#">
   <cc:Work>
    <dc:type rdf:resource="http://purl.org/dc/dcmitype/StillImage"/>
    <dc:date>2026-04-26T19:22:28.229744</dc:date>
    <dc:format>image/svg+xml</dc:format>
    <dc:creator>
     <cc:Agent>
      <dc:title>Matplotlib v3.10.9, https://matplotlib.org/</dc:title>
     </cc:Agent>
    </dc:creator>
   </cc:Work>
  </rdf:RDF>
 </metadata>
 <defs>
  <style type="text/css">*{stroke-linejoin: round; stroke-linecap: butt}</style>
 </defs>
 <g id="figure_1">
  <g id="patch_1">
   <path d="M 0 106.211305 
L 223.2 106.211305 
L 223.2 0 
L 0 0 
z
" style="fill: #ffffff"/>
  </g>
  <g id="axes_1">
   <g id="patch_2">
    <path d="M 174.698721 4.827787 
L 179.493219 4.827787 
L 179.835654 9.295398 
L 184.458918 12.279787 
L 180.69182 15.933853 
L 181.719219 22.76264 
L 184.116452 27.607578 
L 195.246483 31.123646 
L 197.472483 34.981903 
L 204.321747 40.531083 
L 205.177913 43.73321 
L 212.19838 46.771604 
L 213.054545 50.660787 
L 211.855913 56.593657 
L 207.74638 58.631809 
L 206.718981 63.395499 
L 196.958815 67.316899 
L 184.801384 68.853387 
L 182.746586 74.325798 
L 187.88355 78.782809 
L 187.369851 84.281411 
L 183.260286 87.380699 
L 182.404151 92.210819 
L 173.671353 95.667624 
L 173.157654 101.383519 
L 169.733022 100.343128 
L 163.397457 93.93854 
L 160.144058 94.111388 
L 115.623933 94.97581 
L 72.644875 95.321689 
L 37.199983 94.802892 
L 33.604118 90.657096 
L 35.31645 82.561563 
L 32.234284 75.524832 
L 32.405517 67.658248 
L 26.926118 64.929076 
L 26.069952 60.672017 
L 27.953486 56.93318 
L 25.898719 51.507243 
L 21.617952 49.476309 
L 15.96732 35.653699 
L 10.145455 28.946257 
L 12.885154 24.431912 
L 13.912522 18.429325 
L 16.309755 16.266396 
L 12.371455 13.275653 
L 13.398822 7.970552 
L 11.686522 5.488985 
L 15.796087 4.827787 
z
" clip-path="url(#p6ab2172ac7)" style="stroke: #000000; stroke-linejoin: miter"/>
   </g>
   <g id="line2d_1">
    <path d="M 174.698721 4.827787 
L 179.493219 4.827787 
L 179.835654 9.295398 
L 184.458918 12.279787 
L 180.69182 15.933853 
L 181.719219 22.76264 
L 184.116452 27.607578 
L 195.246483 31.123646 
L 197.472483 34.981903 
L 204.321747 40.531083 
L 205.177913 43.73321 
L 212.19838 46.771604 
L 213.054545 50.660787 
L 211.855913 56.593657 
L 207.74638 58.631809 
L 206.718981 63.395499 
L 196.958815 67.316899 
L 184.801384 68.853387 
L 182.746586 74.325798 
L 187.88355 78.782809 
L 187.369851 84.281411 
L 183.260286 87.380699 
L 182.404151 92.210819 
L 173.671353 95.667624 
L 173.157654 101.383519 
L 169.733022 100.343128 
L 163.397457 93.93854 
L 160.144058 94.111388 
L 115.623933 94.97581 
L 72.644875 95.321689 
L 37.199983 94.802892 
L 33.604118 90.657096 
L 35.31645 82.561563 
L 32.234284 75.524832 
L 32.405517 67.658248 
L 26.926118 64.929076 
L 26.069952 60.672017 
L 27.953486 56.93318 
L 25.898719 51.507243 
L 21.617952 49.476309 
L 15.96732 35.653699 
L 10.145455 28.946257 
L 12.885154 24.431912 
L 13.912522 18.429325 
L 16.309755 16.266396 
L 12.371455 13.275653 
L 13.398822 7.970552 
L 11.686522 5.488985 
L 15.796087 4.827787 
L 174.698721 4.827787 
" clip-path="url(#p6ab2172ac7)" style="fill: none; stroke: #000000; stroke-width: 0.5; stroke-linecap: square"/>
   </g>
  </g>
 </g>
 <defs>
  <clipPath id="p6ab2172ac7">
   <rect x="0" y="0" width="223.2" height="106.211305"/>
  </clipPath>
 </defs>
</svg>
