<?xml version="1.0" encoding="utf-8" standalone="no"?>
<!DOCTYPE svg PUBLIC "-//W3C//DTD SVG 1.1//EN"
  "http://www.w3.org/Graphics/SVG/1.1/DTD/svg11.dtd">
<svg xmlns:xlink="http://www.w3.org/1999/xlink" width="223.2pt" height="210.394622pt" viewBox="0 0 223.2 210.394622" xmlns="http://www.w3.org/2000/svg" version="1.1">
 <metadata>
  <rdf:RDF xmlns:dc="http://purl.org/dc/elements/1.1/" xmlns:cc="http://creativecommons.org/ns#" xmlns:rdf="http://www.w3.org/1999/02/22-rdf-syntax-ns#">
   <cc:Work>
    <dc:type rdf:resource="http://purl.org/dc/dcmitype/StillImage"/>
    <dc:date>2026-04-26T19:22:01.193150</dc:date>
    <dc:format>image/svg+xml</dc:format>
    <dc:creator>
     <cc:Agent>
      <dc:title>Matplotlib v3.10.9, https://matplotlib.org/</dc:title>
     </cc:Agent>
    </dc:creator>
   </cc:Work>
  </rdf:RDF>
 </metadata>
 <defs>
  <style type="text/css">*{stroke-linejoin: round; stroke-linecap: butt}</style>
 </defs>
 <g id="figure_1">
  <g id="patch_1">
   <path d="M 0 210.394622 
L 223.2 210.394622 
L 223.2 0 
L 0 0 
z
" style="fill: #ffffff"/>
  </g>
  <g id="axes_1">
   <g id="patch_2">
    <path d="M 134.395508 14.685806 
L 134.113669 15.318121 
L 134.116884 15.533866 
L 134.281915 15.922276 
L 134.404081 16.069373 
L 134.550894 16.126738 
L 134.70628 16.167634 
L 134.856308 16.260788 
L 134.93668 16.403938 
L 135.0417 16.739136 
L 135.137075 16.848232 
L 135.329968 16.883463 
L 135.739331 16.775501 
L 135.939725 16.767546 
L 136.084395 16.836868 
L 136.320154 17.055079 
L 136.772381 17.257405 
L 136.90955 17.455206 
L 136.875258 17.693963 
L 136.648072 17.937303 
L 136.532336 18.524189 
L 136.650215 18.913852 
L 136.840965 19.272876 
L 136.939555 19.76687 
L 136.828106 20.297447 
L 136.541981 20.691501 
L 135.805772 21.461649 
L 135.582873 22.00643 
L 135.74576 22.390615 
L 136.159409 22.626641 
L 136.69951 22.731552 
L 137.342488 22.700762 
L 137.642544 22.744096 
L 137.901878 22.937971 
L 138.092628 23.133009 
L 138.306954 23.264187 
L 138.549143 23.33035 
L 138.819193 23.337195 
L 139.166401 23.499192 
L 139.472887 23.855182 
L 139.976553 24.64958 
L 140.197308 25.125709 
L 140.164088 25.539145 
L 139.761155 26.338888 
L 139.539328 27.094411 
L 139.520039 27.56092 
L 139.457884 27.603232 
L 139.200693 27.690147 
L 139.108533 27.743898 
L 139.066739 28.096187 
L 139.367867 28.429096 
L 139.442744 28.484588 
L 139.7708 28.727738 
L 140.036564 28.976074 
L 140.055853 29.289691 
L 140.188735 29.471706 
L 140.366626 29.619393 
L 140.532728 29.832359 
L 140.63239 30.119789 
L 140.666682 30.338543 
L 140.743839 30.540141 
L 140.981741 30.774986 
L 141.543275 31.002988 
L 142.147674 30.961739 
L 143.30932 30.561906 
L 143.834418 30.595126 
L 144.198772 30.992675 
L 144.421671 31.548479 
L 144.522404 32.062038 
L 144.574914 33.018482 
L 144.718512 33.405106 
L 145.107514 33.835425 
L 144.605991 34.116624 
L 144.72387 34.384092 
L 145.109657 34.645859 
L 145.411856 34.905367 
L 145.508303 35.331458 
L 145.456865 36.357482 
L 145.561884 36.825307 
L 146.204862 37.552002 
L 146.468483 38.001735 
L 146.382752 38.44813 
L 146.127705 38.801414 
L 145.872657 39.259521 
L 145.750491 39.718897 
L 145.885516 40.078191 
L 145.885516 40.081646 
L 145.88766 40.083949 
L 145.891946 40.085101 
L 146.2563 40.412214 
L 146.702098 40.466355 
L 147.162898 40.33043 
L 147.572261 40.085101 
L 147.578691 40.083949 
L 147.580834 40.082798 
L 147.58512 40.079343 
L 147.953761 39.989512 
L 148.641747 39.691262 
L 149.183991 39.683202 
L 149.643397 39.829824 
L 150.443156 40.085101 
L 151.20937 40.703672 
L 151.477278 40.851147 
L 152.040955 40.944477 
L 152.659285 41.440015 
L 153.620536 42.629865 
L 154.149921 43.781263 
L 154.404969 44.075576 
L 154.777896 44.167919 
L 155.560185 43.961307 
L 155.791657 44.002859 
L 156.12922 44.204858 
L 156.555729 44.178308 
L 156.956518 44.004013 
L 157.459112 43.626623 
L 157.670223 43.634701 
L 157.883477 43.694709 
L 158.097803 43.714328 
L 158.764357 43.512384 
L 160.084604 43.565464 
L 160.500396 43.446612 
L 160.901185 43.245852 
L 161.235534 43.135097 
L 161.578455 43.140865 
L 162.217146 43.354306 
L 162.368246 43.376228 
L 162.467907 43.455843 
L 162.570784 43.911678 
L 162.659729 44.066342 
L 162.786181 44.189851 
L 162.955499 44.312215 
L 163.373434 44.469222 
L 163.81816 44.454213 
L 164.699039 44.285663 
L 165.092327 44.158684 
L 165.447037 43.941686 
L 165.81782 43.781263 
L 166.265761 43.820502 
L 166.610826 44.036331 
L 166.765141 44.335303 
L 166.723347 44.685129 
L 166.481159 45.050036 
L 166.152169 45.309903 
L 165.522051 45.662228 
L 165.239141 46.028487 
L 164.915508 46.301208 
L 164.48257 46.345124 
L 163.668132 46.304675 
L 162.628652 46.790127 
L 162.202143 46.876829 
L 160.751157 46.837524 
L 160.324649 46.968159 
L 160.061028 47.224833 
L 159.897069 47.579843 
L 159.824198 47.971937 
L 159.823126 48.340976 
L 160.024593 49.201972 
L 159.966725 49.511058 
L 159.333392 49.34088 
L 159.23373 49.34088 
L 159.139427 49.364033 
L 159.319461 49.816722 
L 159.552004 50.242884 
L 159.632376 50.336699 
L 159.662382 50.431678 
L 159.63452 50.523186 
L 159.552004 50.612382 
L 159.388045 50.723594 
L 159.278739 50.870728 
L 159.2273 51.051476 
L 159.235873 51.258894 
L 159.505924 51.905634 
L 160.832601 53.785715 
L 161.979244 54.693387 
L 162.474337 55.201971 
L 162.624365 55.864037 
L 162.580601 55.955586 
L 162.472194 56.182377 
L 162.215003 56.455449 
L 162.030683 56.741347 
L 162.086407 57.095875 
L 162.375747 57.274908 
L 163.179469 57.267932 
L 163.492385 57.501631 
L 163.414156 58.093565 
L 162.965143 58.776442 
L 162.68652 59.411847 
L 163.115171 59.85769 
L 162.95014 60.130138 
L 162.727242 60.237265 
L 162.470051 60.282679 
L 161.942809 60.438727 
L 161.572025 60.351385 
L 161.363058 60.371182 
L 160.806882 60.670493 
L 160.502539 60.924421 
L 160.173549 61.00014 
L 159.552004 60.760179 
L 159.285168 60.778816 
L 159.070843 60.699612 
L 158.633618 60.446879 
L 158.327132 60.35255 
L 158.182462 60.404954 
L 157.896337 60.826573 
L 157.874904 60.932575 
L 157.932772 61.209839 
L 157.889907 61.315863 
L 157.765598 61.372955 
L 157.474115 61.398589 
L 157.338018 61.439371 
L 157.118334 61.63397 
L 157.017601 61.893856 
L 157.013314 62.192244 
L 157.073326 62.500007 
L 157.073326 62.503504 
L 157.265147 63.087693 
L 157.210494 63.512248 
L 157.034747 63.924064 
L 156.876146 64.477182 
L 156.561087 64.853021 
L 156.001696 64.679099 
L 155.75631 64.561816 
L 155.384438 64.384984 
L 154.904348 64.405991 
L 154.76718 64.840181 
L 154.807901 65.413417 
L 154.702882 65.964636 
L 154.128489 66.323247 
L 153.538021 66.379323 
L 153.275472 66.477459 
L 153.071862 66.734507 
L 153.006493 67.005614 
L 153.054716 67.462609 
L 152.990418 67.722129 
L 152.413882 68.317287 
L 152.255281 68.682191 
L 152.56391 68.99803 
L 152.73537 69.085772 
L 152.921834 69.216808 
L 153.074005 69.380616 
L 153.146876 69.565501 
L 153.211174 69.806582 
L 153.312979 69.943519 
L 153.41907 70.054715 
L 153.5048 70.212742 
L 153.57017 70.641235 
L 153.579814 71.067481 
L 153.646255 71.451653 
L 153.877727 71.74569 
L 153.93881 71.893311 
L 153.933452 72.135856 
L 153.877727 72.37726 
L 153.793069 72.523758 
L 153.669831 72.547198 
L 153.213317 72.401871 
L 151.78805 72.299913 
L 151.147216 72.160464 
L 150.435654 71.821842 
L 149.627646 71.607451 
L 149.541915 72.229601 
L 149.714448 73.147377 
L 149.685514 73.819283 
L 149.586924 73.999318 
L 149.469045 74.163535 
L 149.334019 74.306063 
L 149.183991 74.430416 
L 148.095216 74.651575 
L 147.89375 74.950208 
L 148.534584 76.819327 
L 148.800348 77.310975 
L 149.183991 77.568303 
L 149.59764 77.266916 
L 150.060584 77.264566 
L 150.489236 77.512487 
L 150.807509 77.959059 
L 150.921102 78.475095 
L 150.879309 79.036543 
L 150.602828 80.131684 
L 150.499952 80.337018 
L 150.208469 80.767759 
L 150.166675 80.978457 
L 150.266337 81.238035 
L 150.418508 81.435832 
L 150.537459 81.631882 
L 150.537459 81.885658 
L 150.326348 82.143 
L 149.488334 82.770303 
L 149.183991 83.067826 
L 148.678182 83.473237 
L 148.444567 83.979529 
L 148.269891 84.562014 
L 147.953761 85.195986 
L 147.953761 85.198346 
L 147.949474 85.198346 
L 147.778014 85.360558 
L 147.576547 85.486797 
L 147.132893 85.670862 
L 147.561544 86.221388 
L 148.03199 86.465131 
L 148.571019 86.497003 
L 149.183991 86.410242 
L 149.235429 86.417324 
L 149.280438 86.436211 
L 149.319016 86.468082 
L 151.164362 89.547853 
L 151.442986 89.832207 
L 151.762331 90.078758 
L 152.034525 90.354318 
L 152.183481 90.734604 
L 152.272427 91.197788 
L 152.416025 91.602496 
L 152.623921 91.974734 
L 152.906831 92.346449 
L 153.22189 92.63653 
L 154.199216 93.28433 
L 154.272084 93.461467 
L 154.341743 93.630817 
L 154.336385 94.446036 
L 154.47784 94.606038 
L 154.84005 94.52248 
L 155.180828 94.312711 
L 155.784156 93.775944 
L 156.162441 93.627263 
L 157.169772 93.613047 
L 157.617713 93.509984 
L 157.53627 94.214352 
L 157.902767 94.559222 
L 158.342135 94.83836 
L 158.487876 95.345768 
L 158.232829 95.691423 
L 157.249073 96.247679 
L 156.925441 96.642725 
L 157.281222 96.923932 
L 157.896337 97.057429 
L 158.524312 96.983856 
L 158.907955 96.645098 
L 159.010831 96.591709 
L 159.114779 96.57332 
L 159.220871 96.592302 
L 159.246086 96.605388 
L 159.323747 96.645692 
L 159.389116 96.679505 
L 159.452343 96.724592 
L 160.148902 97.531565 
L 160.38466 97.928049 
L 160.551834 98.362014 
L 160.61506 98.828734 
L 160.626848 99.212404 
L 160.734011 99.547431 
L 161.428427 100.170111 
L 162.253581 101.254906 
L 162.913705 101.752024 
L 163.203045 102.025609 
L 163.387365 102.414043 
L 163.391652 102.650828 
L 163.266271 103.09294 
L 163.25234 103.281595 
L 163.3445 103.495861 
L 163.584545 103.637528 
L 163.597405 103.845878 
L 163.44952 104.141772 
L 163.164466 104.466293 
L 162.605076 104.98444 
L 162.167851 105.293008 
L 161.83136 105.355561 
L 161.484152 105.33054 
L 161.027638 105.368668 
L 160.610774 105.586131 
L 160.590413 105.866781 
L 160.879753 106.0986 
L 161.790638 106.196341 
L 162.180711 106.351305 
L 162.479695 106.601062 
L 162.598646 106.917026 
L 162.460406 107.308769 
L 162.152848 107.607545 
L 161.807784 107.869382 
L 161.552736 108.151535 
L 161.552736 108.155114 
L 161.994247 109.079391 
L 163.208403 109.217262 
L 165.652789 108.960029 
L 167.854988 109.600485 
L 169.92216 110.524209 
L 170.502983 111.073741 
L 172.437608 112.125515 
L 172.516575 112.168457 
L 173.469253 112.893006 
L 174.828079 113.665056 
L 175.687526 114.586985 
L 181.930838 119.728083 
L 181.935124 119.728083 
L 181.936196 119.729882 
L 182.598463 120.190619 
L 183.229652 120.504433 
L 183.883346 120.640654 
L 184.614197 120.566241 
L 184.980695 120.434826 
L 185.930158 119.937442 
L 186.221641 119.955439 
L 187.396147 120.33762 
L 187.839801 120.55904 
L 188.104494 120.849502 
L 188.337037 121.207832 
L 188.685317 121.630463 
L 189.239349 122.03216 
L 189.355085 122.202109 
L 189.387234 122.47057 
L 189.31222 122.623134 
L 189.196484 122.75168 
L 189.014307 123.183028 
L 188.93072 123.271351 
L 188.927505 123.386717 
L 189.065745 123.701 
L 189.16112 123.834419 
L 189.77945 124.394629 
L 189.876969 124.52268 
L 189.955197 124.651942 
L 190.321695 125.135989 
L 190.454577 125.268896 
L 190.656043 125.363319 
L 190.767492 125.659244 
L 191.171497 125.952803 
L 191.279731 126.254225 
L 191.247582 126.579157 
L 191.137205 126.805435 
L 191.013967 127.010068 
L 190.932523 127.262877 
L 190.889658 127.587961 
L 190.908948 127.772197 
L 191.050403 127.876966 
L 191.375106 127.966083 
L 191.641942 128.127467 
L 191.809116 128.365953 
L 191.993436 128.565915 
L 192.306352 128.603259 
L 192.707141 128.762282 
L 192.752259 128.824294 
L 193.058636 129.245443 
L 193.531224 130.261516 
L 193.849498 130.609959 
L 194.57392 130.94881 
L 194.778601 131.362496 
L 194.778601 131.366115 
L 194.876119 131.777468 
L 195.617686 133.051825 
L 195.759141 133.238938 
L 196.134212 133.474361 
L 196.292813 133.615627 
L 196.408549 133.826939 
L 196.515712 134.236339 
L 196.589654 134.412682 
L 196.922931 134.769035 
L 197.740584 135.359862 
L 198.024566 135.778008 
L 198.082434 136.27481 
L 197.959196 136.804372 
L 194.798962 145.102808 
L 194.747411 149.130464 
L 194.674653 154.827221 
L 201.489143 154.82844 
L 201.71097 154.960086 
L 201.777411 155.262414 
L 201.706684 166.655231 
L 201.738833 167.381845 
L 203.933529 167.691919 
L 204.165001 167.770363 
L 204.379327 167.902744 
L 204.726535 168.272958 
L 204.992299 168.738873 
L 205.178763 169.256391 
L 205.349152 170.301584 
L 205.44024 170.528594 
L 205.606343 170.702854 
L 205.836743 170.804717 
L 206.081074 170.841535 
L 206.331836 170.831717 
L 207.090549 170.705309 
L 207.352027 170.717581 
L 207.602788 170.802262 
L 207.796753 170.966723 
L 208.217903 171.66397 
L 208.884456 172.416685 
L 209.690322 173.148754 
L 209.826419 173.350235 
L 209.93251 173.592281 
L 209.97216 173.849097 
L 209.918579 174.102254 
L 209.767479 174.307503 
L 209.568156 174.485727 
L 209.405268 174.683633 
L 209.36026 174.947943 
L 209.400982 175.112691 
L 209.660316 175.664801 
L 210.073965 176.130934 
L 210.191844 176.375721 
L 210.248641 176.416317 
L 210.626926 177.600031 
L 210.669791 177.910206 
L 210.854111 178.374313 
L 210.950558 178.530677 
L 211.085583 178.667349 
L 211.37278 178.893923 
L 211.681409 179.081108 
L 212.323315 179.263382 
L 212.468946 179.329754 
L 212.463884 179.343332 
L 212.463884 179.451953 
L 212.965102 179.445164 
L 213.054545 179.680851 
L 212.798029 179.964093 
L 212.251245 180.102816 
L 209.998293 179.875818 
L 208.413631 179.327815 
L 207.669398 178.777026 
L 206.945415 178.552093 
L 205.796156 177.825079 
L 204.894975 177.513985 
L 203.927977 177.33665 
L 203.040297 177.321146 
L 202.250498 177.530459 
L 200.814346 178.311669 
L 200.667524 177.685518 
L 200.596645 176.964579 
L 200.454886 176.304877 
L 200.105551 175.858398 
L 200.36038 176.633253 
L 200.389069 176.923888 
L 200.338441 177.231999 
L 200.248998 177.520768 
L 200.232122 177.77662 
L 200.389069 177.987911 
L 200.378943 178.550154 
L 195.887737 176.299453 
L 194.700372 176.069434 
L 189.342226 176.069434 
L 188.148431 176.214577 
L 184.807091 177.592646 
L 183.720459 178.32876 
L 183.01104 179.339743 
L 181.247138 183.843185 
L 180.488425 185.263872 
L 180.381262 185.607133 
L 180.301961 186.32962 
L 180.250523 186.570497 
L 179.845447 187.468123 
L 178.295871 190.050391 
L 177.680756 191.677672 
L 177.372127 192.146874 
L 176.043307 193.619429 
L 174.744492 195.829275 
L 171.625849 199.364369 
L 171.023795 200.04739 
L 170.115054 200.243638 
L 169.208455 200.439901 
L 168.844027 200.518548 
L 168.301857 200.635558 
L 167.395259 200.83123 
L 165.211278 200.63121 
L 163.630625 200.486485 
L 162.049972 200.339904 
L 160.472534 200.195195 
L 158.890809 200.049874 
L 156.76684 199.854883 
L 154.640727 199.659907 
L 152.514615 199.463705 
L 150.389574 199.26938 
L 148.264533 199.07507 
L 146.138421 198.878913 
L 144.014452 198.684634 
L 141.888339 198.488507 
L 140.236959 198.337698 
L 138.587721 198.185037 
L 136.937412 198.034868 
L 135.282817 197.881604 
L 133.386033 197.708496 
L 133.249936 197.65638 
L 133.120269 197.603024 
L 132.987387 197.549669 
L 132.854505 197.498797 
L 131.258849 196.196946 
L 129.285979 194.58344 
L 127.30668 192.972215 
L 125.329524 191.360794 
L 123.35344 189.751657 
L 120.978709 187.817872 
L 118.603979 185.886223 
L 116.228177 183.956711 
L 114.858442 182.84426 
L 113.852375 182.02749 
L 111.477644 180.099799 
L 109.100771 178.174872 
L 106.723897 176.25148 
L 104.349167 174.329627 
L 102.520967 172.851478 
L 100.693839 171.374244 
L 98.867783 169.899155 
L 97.039584 168.422531 
L 94.84703 166.655231 
L 94.844887 166.654006 
L 94.842744 166.652781 
L 94.8406 166.651556 
L 93.279208 165.315585 
L 92.875232 164.970056 
L 90.909864 163.287315 
L 88.94664 161.608229 
L 86.981272 159.929132 
L 85.228086 158.441691 
L 83.477044 156.955205 
L 81.726002 155.469677 
L 79.970673 153.985109 
L 78.596844 152.819337 
L 76.747212 151.749104 
L 74.929729 150.696408 
L 73.107959 149.644198 
L 71.290476 148.592477 
L 69.472993 147.542458 
L 67.651223 146.491712 
L 65.831597 145.441456 
L 64.014114 144.391691 
L 62.19663 143.342416 
L 60.374861 142.29242 
L 58.557377 141.244129 
L 56.737751 140.197542 
L 54.918124 139.150236 
L 53.100641 138.103424 
L 51.281015 137.055898 
L 49.459245 136.012494 
L 47.641762 134.96596 
L 45.50922 133.741204 
L 44.354003 133.094075 
L 43.237366 132.675233 
L 36.166756 131.369734 
L 36.162469 131.368527 
L 36.160326 131.367321 
L 36.15604 131.367321 
L 34.492871 131.095943 
L 30.394961 130.424277 
L 26.294907 129.751612 
L 22.194854 129.079156 
L 18.092657 128.408112 
L 18.034789 128.42618 
L 17.976921 128.445454 
L 17.91691 128.464727 
L 17.856899 128.482796 
L 17.852612 128.303318 
L 20.347365 126.275885 
L 20.87675 125.538944 
L 20.443812 123.969649 
L 20.137326 123.255128 
L 19.710817 123.018409 
L 15.782224 124.050191 
L 15.572185 123.937193 
L 15.41787 123.588622 
L 14.406252 120.247618 
L 14.37839 120.209819 
L 14.369817 120.18102 
L 14.37839 120.16422 
L 14.406252 120.155821 
L 16.007267 119.678896 
L 14.614149 114.832941 
L 13.634679 111.436392 
L 12.689502 108.155114 
L 11.971511 105.700531 
L 11.109921 102.743646 
L 10.145455 99.461293 
L 12.438741 98.187467 
L 14.732028 96.915625 
L 17.025314 95.642802 
L 19.318601 94.371966 
L 21.611887 93.10193 
L 23.905174 91.833288 
L 26.198461 90.564856 
L 28.491747 89.299002 
L 30.782891 88.031589 
L 33.07832 86.766163 
L 35.369464 85.501545 
L 37.66275 84.237146 
L 39.14862 83.417965 
L 39.956037 82.972967 
L 42.249324 81.710779 
L 44.54261 80.449402 
L 46.835897 79.187074 
L 49.87718 77.514837 
L 54.969563 76.274373 
L 55.576105 75.915655 
L 56.047622 75.30992 
L 56.793476 73.819283 
L 56.793476 73.815764 
L 60.353428 67.604055 
L 60.531318 67.046517 
L 60.57847 66.454093 
L 60.402723 62.508168 
L 60.284379 58.792376 
L 60.267698 58.269204 
L 60.471307 56.899423 
L 61.337184 54.123429 
L 61.519361 51.933456 
L 61.710111 51.258894 
L 61.712254 51.258894 
L 61.714397 51.258894 
L 61.714397 51.255418 
L 62.692642 49.95688 
L 63.392569 49.028351 
L 63.720487 48.351389 
L 63.83408 47.65039 
L 63.746206 44.57544 
L 63.647616 43.84243 
L 63.422574 43.125868 
L 61.819417 40.079343 
L 61.819417 40.077039 
L 61.817274 40.078191 
L 61.285745 38.99247 
L 61.204302 38.606927 
L 61.202158 38.235273 
L 61.870855 32.657174 
L 62.040172 32.062038 
L 63.870515 28.978363 
L 63.870515 28.976074 
L 63.872658 28.974929 
L 63.872658 28.97264 
L 64.288451 28.480582 
L 64.899279 28.236893 
L 66.245246 28.043568 
L 72.677164 26.86692 
L 73.245128 26.636029 
L 73.793802 26.2349 
L 76.588611 23.677178 
L 80.733673 19.890391 
L 82.872645 17.93844 
L 82.879075 17.937303 
L 82.879075 17.935028 
L 84.205752 16.86187 
L 84.847283 16.44204 
L 84.855159 16.436886 
L 84.848729 16.117651 
L 84.73085 15.871732 
L 84.574392 15.647427 
L 84.44151 15.387383 
L 85.367398 15.29598 
L 86.554763 14.962769 
L 88.340097 14.708506 
L 88.672302 14.582524 
L 88.74303 14.46336 
L 88.998078 13.866532 
L 91.59785 10.661921 
L 91.677151 10.489255 
L 91.70287 10.33755 
L 91.745735 10.183596 
L 91.874331 10.005886 
L 92.009356 9.926658 
L 93.033834 9.576405 
L 93.218154 9.563392 
L 93.466772 9.588852 
L 93.646805 9.70371 
L 93.736822 10.081156 
L 93.914713 10.191519 
L 95.62932 10.671545 
L 96.46519 10.77572 
L 97.348213 10.519824 
L 97.877598 10.181898 
L 98.672747 9.897232 
L 99.506474 9.709368 
L 100.151595 9.659011 
L 100.507376 9.743884 
L 103.232529 10.982956 
L 103.376127 11.027125 
L 103.54866 11.04751 
L 103.73298 11.016932 
L 103.926945 10.850458 
L 104.109122 10.779683 
L 104.492765 10.730426 
L 104.741383 10.774021 
L 105.288021 11.131706 
L 105.568681 11.31538 
L 106.413125 11.673929 
L 107.377591 12.342518 
L 107.716226 12.459265 
L 107.98199 12.42866 
L 108.494229 12.26318 
L 108.75142 12.228045 
L 109.019327 12.26318 
L 109.188644 12.341384 
L 109.568001 12.583388 
L 110.093099 12.764205 
L 110.592479 12.818624 
L 112.718591 12.69505 
L 113.259764 12.73813 
L 113.751642 12.843567 
L 113.957395 12.96375 
L 114.403192 13.33229 
L 114.555364 13.417349 
L 114.816841 13.358374 
L 115.189768 13.035184 
L 116.302119 12.863975 
L 116.935452 12.246179 
L 117.549496 11.492096 
L 118.308209 10.943319 
L 119.245885 10.817618 
L 119.939323 10.916525 
L 120.333589 10.972764 
L 122.333249 11.673929 
L 122.798336 11.929434 
L 123.135899 12.224645 
L 123.381302 12.603793 
L 123.558121 13.107187 
L 123.662069 13.588047 
L 123.684573 13.861995 
L 123.657783 14.076419 
L 123.487393 14.333424 
L 123.281641 14.413427 
L 123.044811 14.450877 
L 122.779047 14.582524 
L 122.431839 14.96504 
L 122.253948 15.410661 
L 122.241089 15.879115 
L 122.395403 16.333497 
L 123.231274 17.935028 
L 123.366299 18.165323 
L 123.552763 18.294984 
L 124.414353 18.484374 
L 124.671544 18.467311 
L 124.86658 18.306927 
L 125.058402 17.93844 
L 125.060545 17.93844 
L 125.06376 17.937303 
L 125.06376 17.935028 
L 125.385249 17.465438 
L 125.45812 17.120435 
L 125.623151 16.872098 
L 127.384909 16.381215 
L 127.93144 16.126738 
L 128.445822 15.782574 
L 128.947344 15.241481 
L 129.693198 14.647216 
L 130.499064 14.1479 
L 131.163474 13.885818 
L 131.550332 13.87107 
L 133.724668 14.129746 
L 134.14046 14.307325 
z
" clip-path="url(#p41fdf51191)" style="stroke: #000000; stroke-linejoin: miter"/>
   </g>
   <g id="line2d_1">
    <path d="M 134.395508 14.685806 
L 134.116884 15.533866 
L 134.404081 16.069373 
L 134.856308 16.260788 
L 135.329968 16.883463 
L 135.939725 16.767546 
L 136.772381 17.257405 
L 136.90955 17.455206 
L 136.875258 17.693963 
L 136.648072 17.937303 
L 136.532336 18.524189 
L 136.939555 19.76687 
L 136.828106 20.297447 
L 136.541981 20.691501 
L 135.805772 21.461649 
L 135.582873 22.00643 
L 135.74576 22.390615 
L 136.159409 22.626641 
L 136.69951 22.731552 
L 137.642544 22.744096 
L 138.549143 23.33035 
L 138.819193 23.337195 
L 139.166401 23.499192 
L 139.472887 23.855182 
L 140.197308 25.125709 
L 140.164088 25.539145 
L 139.761155 26.338888 
L 139.539328 27.094411 
L 139.457884 27.603232 
L 139.108533 27.743898 
L 139.066739 28.096187 
L 139.7708 28.727738 
L 140.036564 28.976074 
L 140.055853 29.289691 
L 140.63239 30.119789 
L 140.743839 30.540141 
L 140.981741 30.774986 
L 141.543275 31.002988 
L 142.147674 30.961739 
L 143.30932 30.561906 
L 143.834418 30.595126 
L 144.198772 30.992675 
L 144.522404 32.062038 
L 144.574914 33.018482 
L 144.718512 33.405106 
L 145.107514 33.835425 
L 144.605991 34.116624 
L 144.72387 34.384092 
L 145.411856 34.905367 
L 145.508303 35.331458 
L 145.456865 36.357482 
L 145.561884 36.825307 
L 146.468483 38.001735 
L 146.382752 38.44813 
L 145.872657 39.259521 
L 145.750491 39.718897 
L 145.891946 40.085101 
L 146.2563 40.412214 
L 146.702098 40.466355 
L 147.162898 40.33043 
L 147.58512 40.079343 
L 147.953761 39.989512 
L 148.641747 39.691262 
L 149.183991 39.683202 
L 150.443156 40.085101 
L 151.477278 40.851147 
L 152.040955 40.944477 
L 152.659285 41.440015 
L 153.620536 42.629865 
L 154.404969 44.075576 
L 154.777896 44.167919 
L 155.791657 44.002859 
L 156.12922 44.204858 
L 156.555729 44.178308 
L 156.956518 44.004013 
L 157.459112 43.626623 
L 158.097803 43.714328 
L 158.764357 43.512384 
L 160.084604 43.565464 
L 161.578455 43.140865 
L 162.467907 43.455843 
L 162.659729 44.066342 
L 162.955499 44.312215 
L 163.373434 44.469222 
L 163.81816 44.454213 
L 165.092327 44.158684 
L 165.81782 43.781263 
L 166.265761 43.820502 
L 166.610826 44.036331 
L 166.765141 44.335303 
L 166.723347 44.685129 
L 166.481159 45.050036 
L 166.152169 45.309903 
L 165.522051 45.662228 
L 164.915508 46.301208 
L 164.48257 46.345124 
L 163.668132 46.304675 
L 162.202143 46.876829 
L 160.751157 46.837524 
L 160.324649 46.968159 
L 160.061028 47.224833 
L 159.824198 47.971937 
L 159.823126 48.340976 
L 160.024593 49.201972 
L 159.966725 49.511058 
L 159.139427 49.364033 
L 159.552004 50.612382 
L 159.278739 50.870728 
L 159.235873 51.258894 
L 159.505924 51.905634 
L 160.832601 53.785715 
L 162.474337 55.201971 
L 162.580601 55.955586 
L 162.472194 56.182377 
L 162.030683 56.741347 
L 162.086407 57.095875 
L 162.375747 57.274908 
L 163.179469 57.267932 
L 163.492385 57.501631 
L 163.414156 58.093565 
L 162.965143 58.776442 
L 162.68652 59.411847 
L 163.115171 59.85769 
L 162.95014 60.130138 
L 162.470051 60.282679 
L 161.942809 60.438727 
L 161.363058 60.371182 
L 160.173549 61.00014 
L 159.552004 60.760179 
L 159.070843 60.699612 
L 158.327132 60.35255 
L 158.182462 60.404954 
L 157.874904 60.932575 
L 157.889907 61.315863 
L 157.474115 61.398589 
L 157.338018 61.439371 
L 157.118334 61.63397 
L 157.013314 62.192244 
L 157.210494 63.512248 
L 156.561087 64.853021 
L 154.904348 64.405991 
L 154.76718 64.840181 
L 154.807901 65.413417 
L 154.702882 65.964636 
L 154.128489 66.323247 
L 153.275472 66.477459 
L 153.071862 66.734507 
L 153.006493 67.005614 
L 152.990418 67.722129 
L 152.413882 68.317287 
L 152.255281 68.682191 
L 153.211174 69.806582 
L 153.5048 70.212742 
L 153.646255 71.451653 
L 153.93881 71.893311 
L 153.877727 72.37726 
L 153.669831 72.547198 
L 153.213317 72.401871 
L 151.147216 72.160464 
L 150.435654 71.821842 
L 149.627646 71.607451 
L 149.541915 72.229601 
L 149.714448 73.147377 
L 149.586924 73.999318 
L 149.183991 74.430416 
L 148.095216 74.651575 
L 147.89375 74.950208 
L 148.800348 77.310975 
L 149.183991 77.568303 
L 149.59764 77.266916 
L 150.060584 77.264566 
L 150.489236 77.512487 
L 150.807509 77.959059 
L 150.921102 78.475095 
L 150.879309 79.036543 
L 150.499952 80.337018 
L 150.166675 80.978457 
L 150.418508 81.435832 
L 150.537459 81.631882 
L 150.537459 81.885658 
L 150.326348 82.143 
L 148.678182 83.473237 
L 147.778014 85.360558 
L 147.132893 85.670862 
L 147.561544 86.221388 
L 148.03199 86.465131 
L 148.571019 86.497003 
L 149.319016 86.468082 
L 151.442986 89.832207 
L 152.034525 90.354318 
L 152.906831 92.346449 
L 153.22189 92.63653 
L 154.272084 93.461467 
L 154.341743 93.630817 
L 154.336385 94.446036 
L 154.47784 94.606038 
L 154.84005 94.52248 
L 155.180828 94.312711 
L 155.784156 93.775944 
L 156.162441 93.627263 
L 157.617713 93.509984 
L 157.53627 94.214352 
L 158.342135 94.83836 
L 158.487876 95.345768 
L 158.232829 95.691423 
L 157.249073 96.247679 
L 156.925441 96.642725 
L 157.281222 96.923932 
L 157.896337 97.057429 
L 158.524312 96.983856 
L 159.114779 96.57332 
L 159.452343 96.724592 
L 160.38466 97.928049 
L 160.61506 98.828734 
L 160.734011 99.547431 
L 161.428427 100.170111 
L 162.253581 101.254906 
L 163.203045 102.025609 
L 163.391652 102.650828 
L 163.25234 103.281595 
L 163.3445 103.495861 
L 163.584545 103.637528 
L 163.597405 103.845878 
L 163.164466 104.466293 
L 162.167851 105.293008 
L 161.484152 105.33054 
L 161.027638 105.368668 
L 160.610774 105.586131 
L 160.590413 105.866781 
L 160.879753 106.0986 
L 161.790638 106.196341 
L 162.180711 106.351305 
L 162.479695 106.601062 
L 162.598646 106.917026 
L 162.460406 107.308769 
L 161.552736 108.155114 
L 161.994247 109.079391 
L 163.208403 109.217262 
L 165.652789 108.960029 
L 167.854988 109.600485 
L 169.92216 110.524209 
L 170.502983 111.073741 
L 172.516575 112.168457 
L 173.469253 112.893006 
L 174.828079 113.665056 
L 175.687526 114.586985 
L 182.598463 120.190619 
L 183.229652 120.504433 
L 183.883346 120.640654 
L 184.980695 120.434826 
L 185.930158 119.937442 
L 186.221641 119.955439 
L 187.839801 120.55904 
L 189.355085 122.202109 
L 189.31222 122.623134 
L 189.196484 122.75168 
L 188.927505 123.386717 
L 189.16112 123.834419 
L 189.955197 124.651942 
L 190.454577 125.268896 
L 190.656043 125.363319 
L 190.767492 125.659244 
L 191.171497 125.952803 
L 191.279731 126.254225 
L 191.137205 126.805435 
L 190.932523 127.262877 
L 190.908948 127.772197 
L 191.050403 127.876966 
L 191.641942 128.127467 
L 191.993436 128.565915 
L 192.707141 128.762282 
L 193.058636 129.245443 
L 193.531224 130.261516 
L 193.849498 130.609959 
L 194.57392 130.94881 
L 195.759141 133.238938 
L 196.292813 133.615627 
L 196.515712 134.236339 
L 196.589654 134.412682 
L 196.922931 134.769035 
L 197.740584 135.359862 
L 198.024566 135.778008 
L 198.082434 136.27481 
L 197.959196 136.804372 
L 194.798962 145.102808 
L 194.674653 154.827221 
L 201.489143 154.82844 
L 201.71097 154.960086 
L 201.777411 155.262414 
L 201.738833 167.381845 
L 204.165001 167.770363 
L 204.379327 167.902744 
L 204.726535 168.272958 
L 205.178763 169.256391 
L 205.44024 170.528594 
L 205.836743 170.804717 
L 206.331836 170.831717 
L 207.352027 170.717581 
L 207.796753 170.966723 
L 208.217903 171.66397 
L 208.884456 172.416685 
L 209.826419 173.350235 
L 209.97216 173.849097 
L 209.767479 174.307503 
L 209.405268 174.683633 
L 209.400982 175.112691 
L 209.660316 175.664801 
L 210.248641 176.416317 
L 210.950558 178.530677 
L 211.37278 178.893923 
L 211.681409 179.081108 
L 212.468946 179.329754 
L 212.463884 179.343332 
L 212.463884 179.451953 
L 212.965102 179.445164 
L 213.054545 179.680851 
L 212.798029 179.964093 
L 212.251245 180.102816 
L 209.998293 179.875818 
L 208.413631 179.327815 
L 207.669398 178.777026 
L 206.945415 178.552093 
L 205.796156 177.825079 
L 204.894975 177.513985 
L 203.927977 177.33665 
L 203.040297 177.321146 
L 202.250498 177.530459 
L 200.814346 178.311669 
L 200.454886 176.304877 
L 200.105551 175.858398 
L 200.389069 176.923888 
L 200.232122 177.77662 
L 200.389069 177.987911 
L 200.378943 178.550154 
L 195.887737 176.299453 
L 194.700372 176.069434 
L 189.342226 176.069434 
L 188.148431 176.214577 
L 184.807091 177.592646 
L 183.720459 178.32876 
L 183.01104 179.339743 
L 181.247138 183.843185 
L 180.381262 185.607133 
L 180.250523 186.570497 
L 179.845447 187.468123 
L 178.295871 190.050391 
L 177.680756 191.677672 
L 177.372127 192.146874 
L 176.043307 193.619429 
L 174.744492 195.829275 
L 171.023795 200.04739 
L 167.395259 200.83123 
L 133.120269 197.603024 
L 132.854505 197.498797 
L 98.867783 169.899155 
L 92.875232 164.970056 
L 78.596844 152.819337 
L 44.354003 133.094075 
L 43.237366 132.675233 
L 34.492871 131.095943 
L 17.91691 128.464727 
L 17.856899 128.482796 
L 17.852612 128.303318 
L 20.347365 126.275885 
L 20.87675 125.538944 
L 20.137326 123.255128 
L 19.710817 123.018409 
L 15.782224 124.050191 
L 15.572185 123.937193 
L 15.41787 123.588622 
L 14.37839 120.16422 
L 14.406252 120.155821 
L 16.007267 119.678896 
L 10.145455 99.461293 
L 49.87718 77.514837 
L 54.969563 76.274373 
L 55.576105 75.915655 
L 56.047622 75.30992 
L 56.793476 73.815764 
L 60.353428 67.604055 
L 60.531318 67.046517 
L 60.57847 66.454093 
L 60.267698 58.269204 
L 60.471307 56.899423 
L 61.337184 54.123429 
L 61.519361 51.933456 
L 61.714397 51.255418 
L 63.392569 49.028351 
L 63.720487 48.351389 
L 63.83408 47.65039 
L 63.647616 43.84243 
L 63.422574 43.125868 
L 61.285745 38.99247 
L 61.202158 38.235273 
L 62.040172 32.062038 
L 64.288451 28.480582 
L 64.899279 28.236893 
L 66.245246 28.043568 
L 72.677164 26.86692 
L 73.245128 26.636029 
L 73.793802 26.2349 
L 82.879075 17.935028 
L 84.855159 16.436886 
L 84.848729 16.117651 
L 84.44151 15.387383 
L 85.367398 15.29598 
L 86.554763 14.962769 
L 88.672302 14.582524 
L 88.998078 13.866532 
L 91.677151 10.489255 
L 91.745735 10.183596 
L 92.009356 9.926658 
L 93.218154 9.563392 
L 93.646805 9.70371 
L 93.736822 10.081156 
L 93.914713 10.191519 
L 95.62932 10.671545 
L 96.46519 10.77572 
L 97.348213 10.519824 
L 97.877598 10.181898 
L 99.506474 9.709368 
L 100.151595 9.659011 
L 100.507376 9.743884 
L 103.54866 11.04751 
L 103.73298 11.016932 
L 104.109122 10.779683 
L 104.741383 10.774021 
L 105.568681 11.31538 
L 106.413125 11.673929 
L 107.716226 12.459265 
L 108.494229 12.26318 
L 109.019327 12.26318 
L 110.093099 12.764205 
L 110.592479 12.818624 
L 113.259764 12.73813 
L 113.957395 12.96375 
L 114.555364 13.417349 
L 114.816841 13.358374 
L 115.189768 13.035184 
L 116.302119 12.863975 
L 118.308209 10.943319 
L 119.245885 10.817618 
L 120.333589 10.972764 
L 122.798336 11.929434 
L 123.135899 12.224645 
L 123.381302 12.603793 
L 123.662069 13.588047 
L 123.657783 14.076419 
L 123.487393 14.333424 
L 122.779047 14.582524 
L 122.431839 14.96504 
L 122.253948 15.410661 
L 122.241089 15.879115 
L 122.395403 16.333497 
L 123.366299 18.165323 
L 123.552763 18.294984 
L 124.671544 18.467311 
L 124.86658 18.306927 
L 125.623151 16.872098 
L 127.93144 16.126738 
L 128.445822 15.782574 
L 128.947344 15.241481 
L 129.693198 14.647216 
L 130.499064 14.1479 
L 131.163474 13.885818 
L 131.550332 13.87107 
L 133.724668 14.129746 
L 134.14046 14.307325 
L 134.395508 14.685806 
L 134.395508 14.685806 
" clip-path="url(#p41fdf51191)" style="fill: none; stroke: #000000; stroke-width: 0.5; stroke-linecap: square"/>
   </g>
  </g>
 </g>
 <defs>
  <clipPath id="p41fdf51191">
   <rect x="0" y="0" width="223.2" height="210.394622"/>
  </clipPath>
 </defs>
</svg>
