<?xml version="1.0" encoding="utf-8" standalone="no"?>
<!DOCTYPE svg PUBLIC "-//W3C//DTD SVG 1.1//EN"
  "http://www.w3.org/Graphics/SVG/1.1/DTD/svg11.dtd">
<svg xmlns:xlink="http://www.w3.org/1999/xlink" width="223.2pt" height="131.732646pt" viewBox="0 0 223.2 131.732646" xmlns="http://www.w3.org/2000/svg" version="1.1">
 <metadata>
  <rdf:RDF xmlns:dc="http://purl.org/dc/elements/1.1/" xmlns:cc="http://creativecommons.org/ns#" xmlns:rdf="http://www.w3.org/1999/02/22-rdf-syntax-ns#">
   <cc:Work>
    <dc:type rdf:resource="http://purl.org/dc/dcmitype/StillImage"/>
    <dc:date>2026-04-26T19:22:21.990374</dc:date>
    <dc:format>image/svg+xml</dc:format>
    <dc:creator>
     <cc:Agent>
      <dc:title>Matplotlib v3.10.9, https://matplotlib.org/</dc:title>
     </cc:Agent>
    </dc:creator>
   </cc:Work>
  </rdf:RDF>
 </metadata>
 <defs>
  <style type="text/css">*{stroke-linejoin: round; stroke-linecap: butt}</style>
 </defs>
 <g id="figure_1">
  <g id="patch_1">
   <path d="M 0 131.732646 
L 223.2 131.732646 
L 223.2 0 
L 0 0 
z
" style="fill: #ffffff"/>
  </g>
  <g id="axes_1">
   <g id="patch_2">
    <path d="M 85.677427 125.744798 
L 82.017364 121.528034 
L 77.563135 121.203721 
L 72.487387 122.541563 
L 66.893704 123.474075 
L 60.695767 122.392908 
L 52.771384 117.582732 
L 46.487124 116.475006 
L 37.371493 118.42034 
L 29.050028 122.284795 
L 20.296952 124.987849 
L 10.145455 123.474075 
L 10.145455 121.001029 
L 12.407098 120.39297 
L 13.891841 119.825472 
L 15.687344 119.339064 
L 18.829473 118.933737 
L 18.328804 112.504129 
L 32.62377 103.189178 
L 36.456478 97.333411 
L 36.663651 87.381588 
L 38.303774 83.122562 
L 42.257333 78.191279 
L 43.690282 75.025947 
L 43.189613 72.803913 
L 44.035572 71.470864 
L 53.427433 70.434138 
L 63.682517 67.203283 
L 72.556445 61.954759 
L 85.539312 56.654435 
L 91.512812 52.969627 
L 110.089361 32.304623 
L 120.102742 23.41939 
L 135.226401 16.900069 
L 157.860096 10.812814 
L 173.795184 9.070268 
L 181.736832 7.073316 
L 189.350454 5.987848 
L 196.342557 7.703196 
L 193.891005 12.44833 
L 185.206986 24.814875 
L 186.03568 29.28407 
L 188.314587 31.740736 
L 191.059635 37.21948 
L 193.407601 39.422337 
L 196.687846 40.362689 
L 204.456849 40.80602 
L 207.633508 41.867386 
L 209.877887 43.721615 
L 212.502083 46.691591 
L 213.054545 49.474007 
L 209.221837 50.683928 
L 206.770285 51.732613 
L 200.796785 57.461459 
L 197.637391 58.618276 
L 195.047723 61.255107 
L 192.751551 64.323076 
L 190.265471 66.70526 
L 187.641274 67.957081 
L 176.039563 70.999616 
L 179.59604 80.050409 
L 170.342294 84.90149 
L 155.788362 88.527437 
L 143.651453 93.826533 
L 144.031271 97.91348 
L 120.827849 105.119154 
L 114.681705 108.642391 
L 112.126566 111.234768 
L 106.17033 112.504129 
L 99.488988 113.300914 
L 94.672206 114.421894 
L 91.271109 116.79921 
z
" clip-path="url(#pd86f500949)" style="stroke: #000000; stroke-linejoin: miter"/>
   </g>
   <g id="line2d_1">
    <path d="M 85.677427 125.744798 
L 82.017364 121.528034 
L 77.563135 121.203721 
L 72.487387 122.541563 
L 66.893704 123.474075 
L 60.695767 122.392908 
L 52.771384 117.582732 
L 46.487124 116.475006 
L 37.371493 118.42034 
L 29.050028 122.284795 
L 20.296952 124.987849 
L 10.145455 123.474075 
L 10.145455 121.001029 
L 12.407098 120.39297 
L 13.891841 119.825472 
L 15.687344 119.339064 
L 18.829473 118.933737 
L 18.328804 112.504129 
L 32.62377 103.189178 
L 36.456478 97.333411 
L 36.663651 87.381588 
L 38.303774 83.122562 
L 42.257333 78.191279 
L 43.690282 75.025947 
L 43.189613 72.803913 
L 44.035572 71.470864 
L 53.427433 70.434138 
L 63.682517 67.203283 
L 72.556445 61.954759 
L 85.539312 56.654435 
L 91.512812 52.969627 
L 110.089361 32.304623 
L 120.102742 23.41939 
L 135.226401 16.900069 
L 157.860096 10.812814 
L 173.795184 9.070268 
L 181.736832 7.073316 
L 189.350454 5.987848 
L 196.342557 7.703196 
L 193.891005 12.44833 
L 185.206986 24.814875 
L 186.03568 29.28407 
L 188.314587 31.740736 
L 191.059635 37.21948 
L 193.407601 39.422337 
L 196.687846 40.362689 
L 204.456849 40.80602 
L 207.633508 41.867386 
L 209.877887 43.721615 
L 212.502083 46.691591 
L 213.054545 49.474007 
L 209.221837 50.683928 
L 206.770285 51.732613 
L 200.796785 57.461459 
L 197.637391 58.618276 
L 195.047723 61.255107 
L 192.751551 64.323076 
L 190.265471 66.70526 
L 187.641274 67.957081 
L 176.039563 70.999616 
L 179.59604 80.050409 
L 170.342294 84.90149 
L 155.788362 88.527437 
L 143.651453 93.826533 
L 144.031271 97.91348 
L 120.827849 105.119154 
L 114.681705 108.642391 
L 112.126566 111.234768 
L 106.17033 112.504129 
L 99.488988 113.300914 
L 94.672206 114.421894 
L 91.271109 116.79921 
L 85.677427 125.744798 
" clip-path="url(#pd86f500949)" style="fill: none; stroke: #000000; stroke-width: 0.5; stroke-linecap: square"/>
   </g>
  </g>
 </g>
 <defs>
  <clipPath id="pd86f500949">
   <rect x="0" y="0" width="223.2" height="131.732646"/>
  </clipPath>
 </defs>
</svg>
