<?xml version="1.0" encoding="utf-8" standalone="no"?>
<!DOCTYPE svg PUBLIC "-//W3C//DTD SVG 1.1//EN"
  "http://www.w3.org/Graphics/SVG/1.1/DTD/svg11.dtd">
<svg xmlns:xlink="http://www.w3.org/1999/xlink" width="82.015643pt" height="221.76pt" viewBox="0 0 82.015643 221.76" xmlns="http://www.w3.org/2000/svg" version="1.1">
 <metadata>
  <rdf:RDF xmlns:dc="http://purl.org/dc/elements/1.1/" xmlns:cc="http://creativecommons.org/ns#" xmlns:rdf="http://www.w3.org/1999/02/22-rdf-syntax-ns#">
   <cc:Work>
    <dc:type rdf:resource="http://purl.org/dc/dcmitype/StillImage"/>
    <dc:date>2026-04-26T19:21:48.743408</dc:date>
    <dc:format>image/svg+xml</dc:format>
    <dc:creator>
     <cc:Agent>
      <dc:title>Matplotlib v3.10.9, https://matplotlib.org/</dc:title>
     </cc:Agent>
    </dc:creator>
   </cc:Work>
  </rdf:RDF>
 </metadata>
 <defs>
  <style type="text/css">*{stroke-linejoin: round; stroke-linecap: butt}</style>
 </defs>
 <g id="figure_1">
  <g id="patch_1">
   <path d="M 0 221.76 
L 82.015643 221.76 
L 82.015643 0 
L 0 0 
z
" style="fill: #ffffff"/>
  </g>
  <g id="axes_1">
   <g id="patch_2">
    <path d="M 3.727984 122.049643 
L 4.45771 121.392012 
L 6.798086 119.70447 
L 8.391234 118.036153 
L 8.522822 117.154251 
L 8.146858 115.382928 
L 8.160956 114.506824 
L 9.138463 112.699185 
L 14.279772 107.921055 
L 14.965906 107.469022 
L 14.975306 107.469022 
L 16.455664 106.145073 
L 17.718515 105.13282 
L 16.085852 104.181418 
L 14.316039 102.905655 
L 14.693832 102.018082 
L 15.803962 100.644301 
L 19.841135 93.93779 
L 20.155672 93.539034 
L 22.716373 87.982841 
L 23.956018 85.289465 
L 24.807118 84.001681 
L 26.235485 79.484671 
L 26.265089 79.241136 
L 26.205882 78.67918 
L 26.235485 78.435686 
L 26.857158 78.11729 
L 30.524288 67.179919 
L 32.141378 59.552067 
L 33.547543 52.919693 
L 33.806573 52.429164 
L 34.080405 50.159333 
L 34.309832 49.480875 
L 34.228423 48.732204 
L 35.271945 44.589819 
L 35.519874 40.040375 
L 35.886217 39.014636 
L 36.563397 38.659705 
L 37.140664 38.791769 
L 38.062072 39.361339 
L 38.757754 39.489295 
L 39.164802 39.408806 
L 40.759689 37.799318 
L 40.955812 37.368153 
L 41.340657 36.037782 
L 41.525679 35.39233 
L 41.444269 34.782019 
L 40.881803 34.518126 
L 41.159336 33.765701 
L 41.473873 30.681028 
L 42.088145 29.043724 
L 42.280567 28.073977 
L 42.095545 27.197059 
L 42.291668 27.011816 
L 42.535897 26.694863 
L 42.746822 26.536395 
L 42.435985 26.190665 
L 42.64691 26.143335 
L 42.691315 26.118641 
L 46.330711 26.373508 
L 46.528092 26.295102 
L 47.030944 25.930531 
L 47.327016 25.826 
L 47.59959 25.844293 
L 48.243428 25.999784 
L 48.567697 26.021998 
L 50.250137 25.503276 
L 50.804684 25.503276 
L 51.0393 25.603578 
L 51.302836 25.716245 
L 51.810388 26.100399 
L 52.261545 26.613962 
L 52.576414 27.213845 
L 52.999374 27.730148 
L 53.600917 27.809886 
L 56.166872 27.18509 
L 58.342764 26.310783 
L 59.73853 26.201016 
L 59.964109 25.431418 
L 60.810028 24.015385 
L 61.200091 23.1665 
L 61.444468 21.879112 
L 61.552557 19.38894 
L 61.905024 18.274813 
L 62.318584 17.587427 
L 62.586458 16.897538 
L 62.891929 16.418981 
L 63.422979 16.362914 
L 63.686153 16.662817 
L 64.508575 17.873064 
L 65.08662 18.269595 
L 65.091319 18.268291 
L 65.100718 18.274813 
L 65.363893 18.484832 
L 65.365725 18.47314 
L 65.39679 18.274813 
L 65.39679 18.269595 
L 66.009948 17.67542 
L 66.101112 16.998494 
L 66.602514 16.744699 
L 67.559737 16.63896 
L 67.939247 16.003057 
L 69.668682 14.317588 
L 70.472305 14.112977 
L 71.073848 14.058242 
L 71.722386 13.888827 
L 72.352126 13.629505 
L 72.892574 13.31026 
L 73.635103 12.541559 
L 74.542117 10.854789 
L 75.24235 10.08 
L 75.303444 10.349533 
L 75.054368 10.660754 
L 74.983874 11.483834 
L 74.842888 11.761267 
L 74.734798 12.43343 
L 73.98757 12.942831 
L 73.635103 13.298533 
L 72.638798 13.725935 
L 74.377632 14.831113 
L 72.854978 16.838856 
L 73.174547 17.232688 
L 74.448126 18.062195 
L 74.631408 20.422429 
L 75.65591 21.014966 
L 75.801596 22.473145 
L 75.303444 23.461633 
L 74.805292 24.209998 
L 74.805292 24.961099 
L 76.506529 25.630011 
L 76.365543 26.300329 
L 76.967085 31.118289 
L 77.220861 31.750166 
L 78.287659 33.410735 
L 77.64852 34.55608 
L 77.324251 34.634629 
L 76.544125 35.899446 
L 76.013076 37.409566 
L 76.18696 38.041004 
L 75.839193 39.340835 
L 73.56461 41.877351 
L 72.354512 43.582873 
L 72.347426 43.58619 
L 71.562601 43.776392 
L 69.06244 45.264171 
L 67.553884 46.537167 
L 67.017824 46.799904 
L 66.825454 46.894193 
L 65.749563 46.772684 
L 65.723372 46.754132 
L 65.744557 46.772119 
L 64.908037 47.340516 
L 64.221902 48.200463 
L 63.817741 48.539235 
L 63.493472 48.669235 
L 63.394781 48.837321 
L 63.371284 49.254938 
L 63.554566 49.621368 
L 63.939929 49.836774 
L 63.939929 50.153334 
L 63.625059 50.153334 
L 63.625059 50.532972 
L 63.883535 50.990155 
L 64.024521 52.301522 
L 64.278297 52.931057 
L 64.090315 53.20708 
L 64.024521 53.235998 
L 64.001023 53.116385 
L 63.939929 52.931057 
L 63.83184 53.112442 
L 63.625059 53.657953 
L 63.343086 53.309607 
L 63.498171 54.374445 
L 63.625059 54.701834 
L 63.004719 54.701834 
L 63.004719 55.046339 
L 63.244396 55.02004 
L 63.432378 55.02793 
L 63.756647 55.481609 
L 63.850638 55.697287 
L 64.278297 56.119466 
L 64.278297 56.437769 
L 63.869436 56.553521 
L 63.596862 56.823181 
L 63.427678 57.170475 
L 63.343086 57.511216 
L 63.51227 57.624363 
L 63.61566 57.719093 
L 63.737849 57.78751 
L 63.939929 57.826982 
L 63.939929 58.207246 
L 63.653257 58.391468 
L 63.343086 58.523059 
L 63.625059 58.870479 
L 63.004719 59.252144 
L 63.103409 59.341642 
L 63.1974 59.324532 
L 63.272593 59.358752 
L 63.343086 59.596985 
L 63.004719 59.596985 
L 63.004719 59.912892 
L 63.286692 60.180114 
L 63.328988 60.385477 
L 63.136306 60.527656 
L 62.694548 60.60928 
L 62.896629 61.171468 
L 63.004719 61.337372 
L 63.225597 61.559904 
L 63.413579 61.875943 
L 59.73853 60.97397 
L 58.671732 60.709336 
L 57.586136 60.676423 
L 56.406549 60.34335 
L 56.157472 59.058675 
L 56.176271 57.482271 
L 55.772109 56.285191 
L 54.418639 55.4895 
L 53.065168 55.338268 
L 50.203141 55.471089 
L 49.37602 55.192301 
L 48.078944 54.177235 
L 47.471408 53.873413 
L 47.39281 53.834108 
L 46.579787 53.881435 
L 45.945348 54.340262 
L 44.803357 55.601283 
L 43.393491 56.445661 
L 42.030622 57.061285 
L 40.832236 57.880928 
L 39.939321 59.358752 
L 39.394449 62.004209 
L 39.215591 62.872924 
L 38.886622 63.921497 
L 38.717438 64.042704 
L 38.111196 64.254824 
L 37.937313 64.373404 
L 37.749331 65.020378 
L 37.589546 66.62568 
L 37.448559 67.294058 
L 38.017205 67.464134 
L 38.332075 67.846497 
L 38.411967 68.384495 
L 38.252182 69.033338 
L 37.918514 69.665123 
L 36.151483 71.219225 
L 36.006546 71.991527 
L 36.209187 72.655149 
L 36.86214 73.854426 
L 37.312452 75.182911 
L 37.188504 76.941803 
L 38.235593 80.461385 
L 37.759515 80.956178 
L 37.852827 81.836581 
L 37.807796 82.610479 
L 37.301194 83.201822 
L 37.961785 84.10338 
L 38.257856 84.343936 
L 38.07786 84.636367 
L 38.152791 84.915095 
L 38.649822 85.282946 
L 39.265831 85.393414 
L 39.679821 86.202345 
L 39.466874 88.637496 
L 39.275182 88.847928 
L 38.205003 88.89672 
L 37.839784 89.010572 
L 37.44059 89.433498 
L 36.939475 89.856499 
L 36.88002 90.059891 
L 37.010849 90.164935 
L 37.976663 90.309428 
L 38.494522 90.266288 
L 39.156273 90.092436 
L 39.980553 89.295837 
L 40.453381 89.037117 
L 40.836147 88.972441 
L 41.376522 88.994 
L 41.911768 89.30292 
L 42.343452 90.167563 
L 43.020357 90.54201 
L 43.425972 90.496756 
L 44.133732 91.03784 
L 45.814568 91.383586 
L 46.37136 91.322609 
L 46.353194 91.046845 
L 46.192199 90.749406 
L 46.254021 90.482853 
L 46.542524 90.40388 
L 46.847769 90.414985 
L 47.603799 90.808644 
L 47.71714 90.739533 
L 47.733883 90.55319 
L 47.733883 89.763555 
L 47.589632 89.033374 
L 47.424774 88.520408 
L 47.218701 88.125894 
L 47.239308 87.810329 
L 47.548417 87.593403 
L 48.001778 87.711724 
L 48.207851 88.323143 
L 48.166636 88.836066 
L 48.249066 89.191232 
L 48.51696 89.585923 
L 49.036007 89.456408 
L 49.272991 89.495878 
L 49.444289 89.645132 
L 49.602708 89.791928 
L 49.345116 90.166977 
L 49.437849 90.265683 
L 49.736655 90.295296 
L 49.953032 90.423623 
L 49.757262 90.808644 
L 49.540886 91.144354 
L 49.674833 91.736898 
L 49.726351 92.151767 
L 49.860299 92.299952 
L 49.643922 92.606229 
L 49.396635 93.327618 
L 49.417242 93.693336 
L 49.716048 93.98002 
L 49.856435 94.406401 
L 49.643225 94.724702 
L 49.386331 94.949064 
L 49.238216 95.692182 
L 49.0154 95.908607 
L 48.929106 96.345226 
L 48.726897 96.423158 
L 48.428092 96.254927 
L 48.273537 96.00755 
L 48.098375 95.918501 
L 47.881998 96.126288 
L 47.239308 95.711968 
L 46.064692 95.870267 
L 45.487687 95.256917 
L 44.92485 95.186441 
L 44.67916 94.985086 
L 43.623769 95.203003 
L 43.100372 95.994355 
L 42.152577 96.778232 
L 40.599246 98.093697 
L 36.70603 100.47847 
L 35.87421 101.429086 
L 35.77702 101.611524 
L 35.056488 102.964271 
L 34.854407 104.356448 
L 34.835609 105.794206 
L 34.577133 107.469022 
L 32.528129 110.791101 
L 31.865492 112.512868 
L 32.396542 114.243224 
L 33.402246 114.98347 
L 34.605331 115.167217 
L 35.855411 114.975481 
L 37.011501 114.586706 
L 39.732541 114.224587 
L 45.404899 114.272513 
L 48.060146 113.306095 
L 53.018172 109.301341 
L 55.645221 107.846599 
L 58.737526 107.596651 
L 58.756324 107.612605 
L 58.692188 110.602724 
L 58.681131 111.118377 
L 58.497849 112.286636 
L 57.689526 114.357716 
L 56.843607 115.841014 
L 57.181975 116.213906 
L 57.106782 117.327422 
L 56.467643 118.409211 
L 55.898997 119.664488 
L 56.148073 121.077387 
L 56.580432 122.402678 
L 57.064486 123.440224 
L 57.741221 124.72879 
L 58.060791 126.140457 
L 57.844611 127.611257 
L 55.711015 131.735002 
L 55.419643 133.250208 
L 55.424342 134.872812 
L 54.916791 135.811327 
L 53.6896 136.972192 
L 53.135661 137.49628 
L 52.557616 138.668054 
L 52.435428 139.8401 
L 52.458926 140.999033 
L 52.30384 142.144844 
L 52.040666 142.637515 
L 51.269939 143.317694 
L 50.917473 143.724774 
L 50.616702 144.351526 
L 50.461616 144.935493 
L 50.254836 146.245644 
L 49.905128 147.476735 
L 49.90237 147.486445 
L 47.242424 152.814863 
L 45.278011 159.174909 
L 45.061832 160.413467 
L 44.272308 162.528568 
L 44.272308 163.778685 
L 44.497886 164.313773 
L 45.151124 165.367978 
L 45.278011 166.107662 
L 45.179321 166.831311 
L 44.930245 167.390929 
L 44.624774 167.92639 
L 44.3522 168.577627 
L 43.924541 171.291095 
L 43.600272 172.187819 
L 43.581473 173.677312 
L 44.511985 176.867817 
L 44.511985 178.51233 
L 43.774155 180.267945 
L 41.828541 183.176378 
L 41.302191 185.235913 
L 41.273994 185.865001 
L 41.10481 186.326739 
L 40.879232 186.731806 
L 40.700649 187.182816 
L 40.366981 188.957524 
L 40.324685 192.135651 
L 40.132003 193.198152 
L 38.021904 198.915764 
L 37.683537 200.221919 
L 37.44386 203.167007 
L 37.011501 204.47555 
L 36.405259 205.465973 
L 36.08099 206.615146 
L 35.886217 208.043052 
L 35.693795 208.743343 
L 35.405161 209.20456 
L 34.620669 210.193319 
L 34.258026 210.750777 
L 34.076705 211.126719 
L 33.998996 211.464235 
L 33.850978 211.667182 
L 33.495737 211.68 
L 33.073887 211.635137 
L 32.75565 211.660773 
L 32.363645 210.913155 
L 31.325044 208.739319 
L 31.005475 207.483963 
L 31.090067 203.859168 
L 29.919878 198.465113 
L 28.138748 193.544254 
L 26.146139 188.076849 
L 25.859466 185.238613 
L 25.882964 184.917348 
L 25.854766 184.604201 
L 25.774874 184.296471 
L 25.647986 184.004954 
L 23.885655 178.973426 
L 21.202211 171.283017 
L 19.693655 166.987352 
L 19.190803 166.242162 
L 16.70944 164.0879 
L 16.39457 163.598542 
L 16.295879 162.999007 
L 16.375772 162.085051 
L 16.80813 160.531696 
L 16.81753 159.825048 
L 16.366373 159.180282 
L 15.642642 158.205226 
L 15.370068 157.321657 
L 15.271377 155.173794 
L 14.279772 151.044366 
L 11.478839 143.778339 
L 9.161961 137.763784 
L 7.418427 133.258226 
L 5.985064 128.900898 
L 4.194535 123.458897 
z
" clip-path="url(#pc4cdf810e5)" style="stroke: #000000; stroke-linejoin: miter"/>
   </g>
   <g id="line2d_1">
    <path d="M 3.727984 122.049643 
L 4.45771 121.392012 
L 6.798086 119.70447 
L 8.391234 118.036153 
L 8.522822 117.154251 
L 8.146858 115.382928 
L 8.160956 114.506824 
L 9.138463 112.699185 
L 14.279772 107.921055 
L 14.975306 107.469022 
L 17.718515 105.13282 
L 16.085852 104.181418 
L 14.316039 102.905655 
L 14.693832 102.018082 
L 15.803962 100.644301 
L 20.155672 93.539034 
L 23.956018 85.289465 
L 24.807118 84.001681 
L 26.265089 79.241136 
L 26.235485 78.435686 
L 26.857158 78.11729 
L 30.524288 67.179919 
L 33.547543 52.919693 
L 33.806573 52.429164 
L 34.080405 50.159333 
L 34.309832 49.480875 
L 34.228423 48.732204 
L 35.271945 44.589819 
L 35.519874 40.040375 
L 35.886217 39.014636 
L 36.563397 38.659705 
L 37.140664 38.791769 
L 38.062072 39.361339 
L 38.757754 39.489295 
L 39.164802 39.408806 
L 40.759689 37.799318 
L 40.955812 37.368153 
L 41.525679 35.39233 
L 41.444269 34.782019 
L 40.881803 34.518126 
L 41.159336 33.765701 
L 41.473873 30.681028 
L 42.088145 29.043724 
L 42.280567 28.073977 
L 42.095545 27.197059 
L 42.746822 26.536395 
L 42.435985 26.190665 
L 42.691315 26.118641 
L 46.528092 26.295102 
L 47.327016 25.826 
L 47.59959 25.844293 
L 48.567697 26.021998 
L 50.250137 25.503276 
L 51.0393 25.603578 
L 51.302836 25.716245 
L 51.810388 26.100399 
L 52.261545 26.613962 
L 52.576414 27.213845 
L 52.999374 27.730148 
L 53.600917 27.809886 
L 56.166872 27.18509 
L 58.342764 26.310783 
L 59.73853 26.201016 
L 59.964109 25.431418 
L 61.200091 23.1665 
L 61.444468 21.879112 
L 61.552557 19.38894 
L 61.905024 18.274813 
L 62.318584 17.587427 
L 62.586458 16.897538 
L 62.891929 16.418981 
L 63.422979 16.362914 
L 63.686153 16.662817 
L 64.508575 17.873064 
L 65.363893 18.484832 
L 65.365725 18.47314 
L 65.39679 18.269595 
L 66.009948 17.67542 
L 66.101112 16.998494 
L 66.602514 16.744699 
L 67.559737 16.63896 
L 67.939247 16.003057 
L 69.668682 14.317588 
L 72.352126 13.629505 
L 72.892574 13.31026 
L 73.635103 12.541559 
L 74.542117 10.854789 
L 75.24235 10.08 
L 75.303444 10.349533 
L 75.054368 10.660754 
L 74.983874 11.483834 
L 74.842888 11.761267 
L 74.734798 12.43343 
L 73.635103 13.298533 
L 72.638798 13.725935 
L 74.377632 14.831113 
L 72.854978 16.838856 
L 73.174547 17.232688 
L 74.448126 18.062195 
L 74.631408 20.422429 
L 75.65591 21.014966 
L 75.801596 22.473145 
L 74.805292 24.209998 
L 74.805292 24.961099 
L 76.506529 25.630011 
L 76.365543 26.300329 
L 76.967085 31.118289 
L 77.220861 31.750166 
L 78.287659 33.410735 
L 77.64852 34.55608 
L 77.324251 34.634629 
L 76.544125 35.899446 
L 76.013076 37.409566 
L 76.18696 38.041004 
L 75.839193 39.340835 
L 73.56461 41.877351 
L 72.347426 43.58619 
L 71.562601 43.776392 
L 69.06244 45.264171 
L 67.553884 46.537167 
L 66.825454 46.894193 
L 65.723372 46.754132 
L 65.744557 46.772119 
L 64.908037 47.340516 
L 63.817741 48.539235 
L 63.493472 48.669235 
L 63.394781 48.837321 
L 63.371284 49.254938 
L 63.554566 49.621368 
L 63.939929 49.836774 
L 63.939929 50.153334 
L 63.625059 50.153334 
L 63.625059 50.532972 
L 63.883535 50.990155 
L 64.024521 52.301522 
L 64.278297 52.931057 
L 64.024521 53.235998 
L 63.939929 52.931057 
L 63.625059 53.657953 
L 63.343086 53.309607 
L 63.625059 54.701834 
L 63.004719 54.701834 
L 63.004719 55.046339 
L 63.432378 55.02793 
L 64.278297 56.119466 
L 64.278297 56.437769 
L 63.869436 56.553521 
L 63.596862 56.823181 
L 63.343086 57.511216 
L 63.939929 57.826982 
L 63.939929 58.207246 
L 63.343086 58.523059 
L 63.625059 58.870479 
L 63.004719 59.252144 
L 63.343086 59.596985 
L 63.004719 59.596985 
L 63.004719 59.912892 
L 63.286692 60.180114 
L 63.328988 60.385477 
L 63.136306 60.527656 
L 62.694548 60.60928 
L 63.004719 61.337372 
L 63.413579 61.875943 
L 58.671732 60.709336 
L 57.586136 60.676423 
L 56.406549 60.34335 
L 56.157472 59.058675 
L 56.176271 57.482271 
L 55.772109 56.285191 
L 54.418639 55.4895 
L 53.065168 55.338268 
L 50.203141 55.471089 
L 49.37602 55.192301 
L 48.078944 54.177235 
L 47.39281 53.834108 
L 46.579787 53.881435 
L 45.945348 54.340262 
L 44.803357 55.601283 
L 43.393491 56.445661 
L 42.030622 57.061285 
L 40.832236 57.880928 
L 39.939321 59.358752 
L 38.886622 63.921497 
L 38.717438 64.042704 
L 37.937313 64.373404 
L 37.749331 65.020378 
L 37.448559 67.294058 
L 38.017205 67.464134 
L 38.332075 67.846497 
L 38.411967 68.384495 
L 38.252182 69.033338 
L 37.918514 69.665123 
L 36.151483 71.219225 
L 36.006546 71.991527 
L 36.209187 72.655149 
L 36.86214 73.854426 
L 37.312452 75.182911 
L 37.188504 76.941803 
L 38.235593 80.461385 
L 37.759515 80.956178 
L 37.852827 81.836581 
L 37.807796 82.610479 
L 37.301194 83.201822 
L 38.257856 84.343936 
L 38.07786 84.636367 
L 38.152791 84.915095 
L 38.649822 85.282946 
L 39.265831 85.393414 
L 39.679821 86.202345 
L 39.466874 88.637496 
L 39.275182 88.847928 
L 37.839784 89.010572 
L 36.88002 90.059891 
L 37.010849 90.164935 
L 37.976663 90.309428 
L 38.494522 90.266288 
L 39.156273 90.092436 
L 39.980553 89.295837 
L 40.453381 89.037117 
L 40.836147 88.972441 
L 41.376522 88.994 
L 41.911768 89.30292 
L 42.343452 90.167563 
L 43.020357 90.54201 
L 43.425972 90.496756 
L 44.133732 91.03784 
L 45.814568 91.383586 
L 46.37136 91.322609 
L 46.353194 91.046845 
L 46.192199 90.749406 
L 46.254021 90.482853 
L 46.847769 90.414985 
L 47.603799 90.808644 
L 47.71714 90.739533 
L 47.733883 89.763555 
L 47.424774 88.520408 
L 47.218701 88.125894 
L 47.239308 87.810329 
L 47.548417 87.593403 
L 48.001778 87.711724 
L 48.207851 88.323143 
L 48.249066 89.191232 
L 48.51696 89.585923 
L 49.272991 89.495878 
L 49.602708 89.791928 
L 49.345116 90.166977 
L 49.437849 90.265683 
L 49.953032 90.423623 
L 49.540886 91.144354 
L 49.860299 92.299952 
L 49.643922 92.606229 
L 49.396635 93.327618 
L 49.417242 93.693336 
L 49.716048 93.98002 
L 49.856435 94.406401 
L 49.386331 94.949064 
L 49.238216 95.692182 
L 49.0154 95.908607 
L 48.929106 96.345226 
L 48.726897 96.423158 
L 48.428092 96.254927 
L 48.098375 95.918501 
L 47.881998 96.126288 
L 47.239308 95.711968 
L 46.064692 95.870267 
L 45.487687 95.256917 
L 44.92485 95.186441 
L 44.67916 94.985086 
L 43.623769 95.203003 
L 43.100372 95.994355 
L 40.599246 98.093697 
L 36.70603 100.47847 
L 35.77702 101.611524 
L 35.056488 102.964271 
L 34.854407 104.356448 
L 34.835609 105.794206 
L 34.577133 107.469022 
L 32.528129 110.791101 
L 31.865492 112.512868 
L 32.396542 114.243224 
L 33.402246 114.98347 
L 34.605331 115.167217 
L 35.855411 114.975481 
L 37.011501 114.586706 
L 39.732541 114.224587 
L 45.404899 114.272513 
L 48.060146 113.306095 
L 53.018172 109.301341 
L 55.645221 107.846599 
L 58.756324 107.612605 
L 58.681131 111.118377 
L 58.497849 112.286636 
L 57.689526 114.357716 
L 56.843607 115.841014 
L 57.181975 116.213906 
L 57.106782 117.327422 
L 56.467643 118.409211 
L 55.898997 119.664488 
L 56.148073 121.077387 
L 56.580432 122.402678 
L 57.741221 124.72879 
L 58.060791 126.140457 
L 57.844611 127.611257 
L 55.711015 131.735002 
L 55.419643 133.250208 
L 55.424342 134.872812 
L 54.916791 135.811327 
L 53.135661 137.49628 
L 52.557616 138.668054 
L 52.435428 139.8401 
L 52.458926 140.999033 
L 52.30384 142.144844 
L 52.040666 142.637515 
L 50.917473 143.724774 
L 50.616702 144.351526 
L 50.461616 144.935493 
L 50.254836 146.245644 
L 49.90237 147.486445 
L 47.242424 152.814863 
L 45.278011 159.174909 
L 45.061832 160.413467 
L 44.272308 162.528568 
L 44.272308 163.778685 
L 44.497886 164.313773 
L 45.151124 165.367978 
L 45.278011 166.107662 
L 45.179321 166.831311 
L 44.3522 168.577627 
L 43.924541 171.291095 
L 43.600272 172.187819 
L 43.581473 173.677312 
L 44.511985 176.867817 
L 44.511985 178.51233 
L 43.774155 180.267945 
L 41.828541 183.176378 
L 41.302191 185.235913 
L 41.273994 185.865001 
L 40.700649 187.182816 
L 40.366981 188.957524 
L 40.324685 192.135651 
L 40.132003 193.198152 
L 38.021904 198.915764 
L 37.683537 200.221919 
L 37.44386 203.167007 
L 37.011501 204.47555 
L 36.405259 205.465973 
L 36.08099 206.615146 
L 35.693795 208.743343 
L 35.405161 209.20456 
L 34.258026 210.750777 
L 33.850978 211.667182 
L 32.75565 211.660773 
L 31.325044 208.739319 
L 31.005475 207.483963 
L 31.090067 203.859168 
L 29.919878 198.465113 
L 26.146139 188.076849 
L 25.647986 184.004954 
L 19.693655 166.987352 
L 19.190803 166.242162 
L 16.70944 164.0879 
L 16.39457 163.598542 
L 16.295879 162.999007 
L 16.375772 162.085051 
L 16.80813 160.531696 
L 16.81753 159.825048 
L 15.642642 158.205226 
L 15.370068 157.321657 
L 15.271377 155.173794 
L 14.279772 151.044366 
L 7.418427 133.258226 
L 3.727984 122.049643 
L 3.727984 122.049643 
" clip-path="url(#pc4cdf810e5)" style="fill: none; stroke: #000000; stroke-width: 0.5; stroke-linecap: square"/>
   </g>
  </g>
 </g>
 <defs>
  <clipPath id="pc4cdf810e5">
   <rect x="0" y="-0" width="82.015643" height="221.76"/>
  </clipPath>
 </defs>
</svg>
