<?xml version="1.0" encoding="utf-8" standalone="no"?>
<!DOCTYPE svg PUBLIC "-//W3C//DTD SVG 1.1//EN"
  "http://www.w3.org/Graphics/SVG/1.1/DTD/svg11.dtd">
<svg xmlns:xlink="http://www.w3.org/1999/xlink" width="223.2pt" height="168.227055pt" viewBox="0 0 223.2 168.227055" xmlns="http://www.w3.org/2000/svg" version="1.1">
 <metadata>
  <rdf:RDF xmlns:dc="http://purl.org/dc/elements/1.1/" xmlns:cc="http://creativecommons.org/ns#" xmlns:rdf="http://www.w3.org/1999/02/22-rdf-syntax-ns#">
   <cc:Work>
    <dc:type rdf:resource="http://purl.org/dc/dcmitype/StillImage"/>
    <dc:date>2026-04-26T19:22:01.362401</dc:date>
    <dc:format>image/svg+xml</dc:format>
    <dc:creator>
     <cc:Agent>
      <dc:title>Matplotlib v3.10.9, https://matplotlib.org/</dc:title>
     </cc:Agent>
    </dc:creator>
   </cc:Work>
  </rdf:RDF>
 </metadata>
 <defs>
  <style type="text/css">*{stroke-linejoin: round; stroke-linecap: butt}</style>
 </defs>
 <g id="figure_1">
  <g id="patch_1">
   <path d="M 0 168.227055 
L 223.2 168.227055 
L 223.2 0 
L 0 0 
z
" style="fill: #ffffff"/>
  </g>
  <g id="axes_1">
   <g id="patch_2">
    <path d="M 17.28712 25.750994 
L 18.05101 26.303751 
L 18.447036 26.457083 
L 18.96979 26.526418 
L 19.525986 26.519892 
L 20.03994 26.457899 
L 21.090728 26.178983 
L 21.56948 25.987382 
L 21.793014 25.937654 
L 23.072618 26.025699 
L 23.618253 25.901786 
L 24.625039 25.425861 
L 25.131952 25.28411 
L 25.489255 25.254786 
L 25.675828 25.097589 
L 25.841278 24.918434 
L 26.126417 24.823172 
L 27.86189 25.103289 
L 28.129428 25.202655 
L 28.384644 25.355797 
L 28.704985 25.657272 
L 28.729627 25.697205 
L 28.93908 25.743659 
L 29.08165 25.721654 
L 29.210138 25.682535 
L 29.377349 25.670311 
L 30.195802 25.863474 
L 30.663993 25.857768 
L 30.968493 25.918089 
L 31.067059 25.92135 
L 31.280033 25.846357 
L 31.320516 25.793376 
L 31.306435 25.711059 
L 31.359238 25.548892 
L 31.380209 25.52309 
L 31.73071 25.512722 
L 31.776966 25.212988 
L 31.961991 24.984687 
L 32.207614 24.857367 
L 33.415052 24.681518 
L 33.578743 24.648957 
L 33.700191 24.583839 
L 33.913165 24.405603 
L 33.925486 24.371425 
L 34.090936 24.137096 
L 34.122619 24.105368 
L 34.212384 23.657241 
L 34.214144 23.480818 
L 34.251107 23.300366 
L 34.372555 23.138642 
L 34.543286 23.054134 
L 34.895309 23.029758 
L 35.080121 22.989946 
L 35.82465 22.575682 
L 36.194274 22.066649 
L 36.146751 21.490589 
L 35.643358 20.869518 
L 35.245572 20.648278 
L 35.185728 20.587507 
L 35.257893 20.455447 
L 35.428624 20.302347 
L 35.761285 20.086919 
L 36.129149 19.978416 
L 36.868398 19.873164 
L 37.220421 19.716929 
L 38.058235 19.013006 
L 38.540507 18.857734 
L 38.735879 18.762725 
L 38.90485 18.633771 
L 39.006937 18.490692 
L 38.999897 18.332282 
L 38.887249 18.277734 
L 38.822125 18.211473 
L 38.964694 18.013124 
L 39.327278 17.76919 
L 39.790188 17.609297 
L 40.513254 17.510527 
L 40.73889 17.479708 
L 41.228202 17.534206 
L 41.462297 17.749 
L 41.532702 18.101992 
L 41.541502 18.57395 
L 41.483419 19.024733 
L 41.207081 19.835924 
L 41.148997 20.239171 
L 41.215881 20.621538 
L 41.402453 20.873571 
L 41.715754 21.038931 
L 42.161063 21.153242 
L 42.631013 21.30487 
L 43.115045 21.622805 
L 44.190475 22.640652 
L 44.355926 22.695067 
L 44.685067 22.768169 
L 45.478879 23.065509 
L 45.778099 23.07526 
L 45.899547 23.031383 
L 46.163564 22.881081 
L 46.269171 22.849399 
L 46.355898 22.869913 
L 46.40998 22.882706 
L 46.534948 23.029758 
L 46.665197 23.086636 
L 46.938014 23.111013 
L 47.460769 23.102887 
L 47.717745 23.160582 
L 48.150734 23.527969 
L 47.899037 23.897136 
L 47.411485 24.278662 
L 47.112266 24.721407 
L 47.047142 24.797119 
L 47.01898 24.839455 
L 47.311159 24.851668 
L 47.571656 24.911106 
L 48.548519 25.249084 
L 48.662927 25.306919 
L 48.773814 25.407122 
L 48.941025 25.658902 
L 49.236724 25.998795 
L 49.379294 26.205077 
L 49.47434 26.411407 
L 49.502502 26.684684 
L 49.433857 26.880517 
L 49.331771 27.06823 
L 49.268406 27.3115 
L 49.94253 27.178428 
L 50.500487 27.339259 
L 51.01268 27.401314 
L 51.556556 26.968655 
L 51.980743 26.434245 
L 52.045868 26.165937 
L 51.852255 25.904231 
L 51.692085 25.838206 
L 51.3207 25.790116 
L 51.15525 25.728989 
L 51.000359 25.580671 
L 50.85955 25.293885 
L 50.676498 25.174147 
L 50.639536 25.134238 
L 50.627215 25.094331 
L 50.639536 25.053611 
L 50.676498 25.014522 
L 51.236215 24.681518 
L 50.933475 24.133028 
L 51.0074 23.954069 
L 51.443908 23.736927 
L 51.817053 23.661306 
L 51.978983 23.600326 
L 52.114512 23.453179 
L 52.169076 23.259729 
L 52.132113 22.905453 
L 52.198998 22.702377 
L 52.514058 22.399476 
L 53.751419 21.863767 
L 53.760686 21.852524 
L 53.885188 21.701496 
L 53.964393 21.520599 
L 54.059439 21.36488 
L 54.244251 21.277299 
L 54.448424 21.215674 
L 54.645557 21.098112 
L 54.800447 20.939225 
L 55.053904 20.377679 
L 55.552016 19.713691 
L 55.657623 19.368941 
L 55.634742 19.167496 
L 55.405927 18.612348 
L 55.404167 18.388853 
L 55.44817 18.191676 
L 55.414727 18.034936 
L 55.187673 17.935171 
L 55.023982 17.723964 
L 55.157751 17.34126 
L 55.45345 16.965179 
L 55.779071 16.773974 
L 56.608085 16.709442 
L 56.946027 16.766311 
L 56.958348 16.959531 
L 57.393096 17.2218 
L 57.521585 17.257313 
L 57.706397 17.210501 
L 57.789122 17.116883 
L 57.848966 17.005927 
L 57.965134 16.90628 
L 58.239712 16.778008 
L 58.37348 16.759051 
L 58.428044 16.857067 
L 58.530131 18.355718 
L 58.505489 18.59416 
L 58.538931 18.681874 
L 58.662139 18.758682 
L 59.038804 18.891697 
L 59.190174 18.97095 
L 59.529876 19.535634 
L 59.74637 19.725832 
L 60.107193 19.882069 
L 60.503219 19.974367 
L 62.455187 19.988941 
L 62.775527 19.906357 
L 63.036024 19.676458 
L 63.043065 19.553033 
L 63.016663 19.375414 
L 63.050105 19.196618 
L 63.234917 19.063556 
L 63.417969 19.066387 
L 63.833356 19.22574 
L 64.051611 19.255673 
L 64.405394 19.182461 
L 65.538908 18.812047 
L 66.281676 18.730788 
L 66.612578 18.746554 
L 66.962841 18.804366 
L 67.388788 18.982273 
L 67.501436 19.237066 
L 67.508476 19.546964 
L 67.619363 19.890165 
L 67.8693 20.105544 
L 68.541664 20.486232 
L 68.714155 20.752813 
L 68.728236 21.10703 
L 69.291473 21.114326 
L 70.009599 20.940036 
L 70.48483 20.748761 
L 70.708365 20.448966 
L 70.490111 20.169521 
L 69.787825 19.713691 
L 69.632935 19.538871 
L 69.56429 19.40697 
L 69.574851 19.263763 
L 69.661097 19.051828 
L 69.789585 18.899784 
L 70.146888 18.696022 
L 70.270096 18.590926 
L 70.398585 18.249855 
L 70.273617 18.076138 
L 69.979677 18.001007 
L 69.217548 17.907303 
L 68.717675 17.783727 
L 68.450138 17.572154 
L 68.751117 17.248435 
L 68.603268 17.184674 
L 68.520542 17.097112 
L 68.48006 16.983737 
L 68.458938 16.839318 
L 68.532863 16.673145 
L 68.536383 16.330413 
L 68.559265 16.218349 
L 68.705354 16.079701 
L 69.073218 15.847595 
L 69.214027 15.728343 
L 69.423481 15.220096 
L 69.497406 15.104957 
L 69.661097 15.048199 
L 71.273362 14.755609 
L 71.71163 14.753195 
L 71.982688 14.893239 
L 72.01613 15.069131 
L 71.922844 15.38921 
L 71.998529 15.558357 
L 72.700815 15.710618 
L 72.834584 15.78555 
L 72.924349 15.864114 
L 73.031716 15.935836 
L 73.223569 15.991848 
L 73.441823 16.014415 
L 74.034982 15.978953 
L 75.254741 16.18167 
L 75.562762 16.144186 
L 75.69628 16.004235 
L 75.800377 15.895139 
L 75.935906 15.508818 
L 75.948227 15.106568 
L 75.819738 14.806312 
L 75.464195 14.618002 
L 74.739028 14.568919 
L 74.431008 14.343659 
L 74.288438 14.046084 
L 74.369404 13.898139 
L 74.554216 13.7876 
L 74.717906 13.603935 
L 74.754869 13.383348 
L 74.739028 13.206197 
L 74.807672 13.064021 
L 75.096331 12.947969 
L 75.302265 12.751639 
L 75.260022 12.537695 
L 75.138574 12.311768 
L 75.106892 12.080687 
L 75.478276 11.800746 
L 75.578603 11.702107 
L 75.640207 11.562588 
L 75.729972 11.063236 
L 76.282649 11.343334 
L 76.988455 11.39223 
L 78.720408 11.094487 
L 79.021387 11.073653 
L 79.283644 11.116925 
L 80.586129 11.604281 
L 80.75158 11.761048 
L 80.668855 11.868517 
L 80.29043 12.060631 
L 80.211225 12.137248 
L 80.313311 12.27325 
L 80.496363 12.277262 
L 80.855427 12.206249 
L 81.05256 12.247572 
L 81.541872 12.421714 
L 81.709082 12.425727 
L 82.032944 12.367943 
L 82.207195 12.369548 
L 82.360325 12.419307 
L 82.650744 12.575422 
L 82.824995 12.620777 
L 82.993966 12.61275 
L 83.562483 12.492344 
L 83.854662 12.46666 
L 84.447821 12.50318 
L 84.73648 12.563783 
L 84.979376 12.542511 
L 85.216991 12.385599 
L 85.598936 11.9764 
L 85.669341 11.934689 
L 85.857673 11.88135 
L 85.931598 11.831222 
L 85.96152 11.75343 
L 85.942159 11.592254 
L 85.95624 11.532923 
L 86.27658 11.054823 
L 86.456112 10.509727 
L 86.596921 10.319167 
L 87.698753 9.636547 
L 88.003253 9.522965 
L 89.18253 9.284651 
L 90.375888 9.160723 
L 90.983127 9.243073 
L 91.512922 9.403799 
L 92.033916 9.420194 
L 92.612994 9.071985 
L 92.614754 9.070387 
L 92.745002 8.950087 
L 92.896372 8.878555 
L 93.067103 8.854179 
L 93.366323 8.898535 
L 93.47721 8.938897 
L 93.575777 8.996846 
L 93.665542 9.071985 
L 93.808112 9.126346 
L 93.963002 9.143934 
L 94.123172 9.125546 
L 94.283343 9.071985 
L 94.285103 9.071985 
L 94.288623 9.070387 
L 94.290383 9.070387 
L 94.784975 8.98046 
L 95.189802 8.956881 
L 96.066339 9.067988 
L 96.07514 9.067988 
L 96.096261 9.071985 
L 96.224749 9.07918 
L 96.353238 9.067988 
L 96.677099 9.088773 
L 97.228015 9.343024 
L 97.546596 9.418194 
L 97.743728 9.389805 
L 98.07815 9.219886 
L 98.266482 9.144733 
L 99.039173 9.067988 
L 99.627051 8.77786 
L 100.350458 8.534966 
L 101.102027 8.373607 
L 102.316507 8.337666 
L 104.041419 7.780365 
L 104.329304 7.745267 
L 105.137971 7.646684 
L 105.539277 7.732078 
L 105.534198 7.927837 
L 105.528716 8.139214 
L 105.166133 8.443898 
L 104.134705 8.801035 
L 103.955174 9.071985 
L 104.067821 9.225483 
L 104.141746 9.4022 
L 104.245592 9.759346 
L 104.35648 9.931774 
L 104.474407 10.078226 
L 104.472647 10.2199 
L 104.222711 10.374409 
L 104.402243 10.420046 
L 104.803549 10.464885 
L 104.993641 10.524541 
L 105.187254 10.64787 
L 105.28054 10.745184 
L 105.384387 10.82048 
L 105.616722 10.874153 
L 106.333089 10.889775 
L 106.602386 11.005546 
L 106.759036 11.344536 
L 106.764317 11.535328 
L 106.716794 11.647579 
L 106.65343 11.755033 
L 106.607667 11.934689 
L 106.604146 12.135242 
L 106.644629 12.240351 
L 106.741435 12.301336 
L 106.905126 12.373561 
L 107.260669 12.459436 
L 107.614452 12.489936 
L 107.897831 12.604321 
L 108.04744 12.944355 
L 108.369541 13.44321 
L 108.95918 13.770317 
L 109.650905 13.947987 
L 110.059709 13.993162 
L 110.574965 14.050104 
L 111.10124 14.275288 
L 111.382858 14.360551 
L 111.632794 14.375835 
L 112.623739 14.293787 
L 113.465074 14.347681 
L 113.495294 14.356294 
L 113.628765 14.394337 
L 113.938545 14.541965 
L 114.095195 14.585414 
L 114.255365 14.582196 
L 114.528183 14.515012 
L 114.661952 14.503749 
L 114.808861 14.534853 
L 115.235749 14.625244 
L 116.203812 15.023242 
L 120.190473 15.203992 
L 121.586244 15.407734 
L 122.668714 15.827853 
L 123.027778 15.918912 
L 123.714222 15.940671 
L 125.449696 15.706589 
L 126.194224 15.789176 
L 127.232692 15.741234 
L 127.35062 15.769838 
L 127.591755 15.943089 
L 127.722004 16.000713 
L 128.445411 16.017638 
L 130.506505 16.440879 
L 130.763482 16.457813 
L 131.02926 16.424751 
L 131.03102 16.547326 
L 130.999338 16.657416 
L 130.935973 16.754211 
L 130.840927 16.836898 
L 130.816286 17.236328 
L 130.77213 17.294304 
L 130.629713 17.481323 
L 130.311133 17.589918 
L 129.890465 17.580632 
L 129.313148 17.628676 
L 128.896 17.878225 
L 128.533417 18.20218 
L 128.11803 18.47776 
L 127.329498 18.746554 
L 126.921152 18.936175 
L 126.709938 19.001683 
L 126.484643 19.017049 
L 126.299831 19.158194 
L 126.071016 19.490721 
L 125.829721 19.755089 
L 125.755956 19.835924 
L 125.312407 20.012423 
L 125.444415 20.169521 
L 125.539461 20.355808 
L 125.643308 20.748761 
L 125.645068 20.750382 
L 125.646828 20.752003 
L 125.872123 20.949762 
L 125.931967 21.167026 
L 126.076296 21.303248 
L 126.540967 21.257027 
L 126.292791 20.979755 
L 126.556808 21.03812 
L 127.067241 21.060819 
L 127.304857 21.147567 
L 127.780088 21.209187 
L 128.100428 21.352715 
L 128.612622 21.677969 
L 129.04561 21.721778 
L 129.547243 21.686893 
L 129.776095 21.715239 
L 129.946789 21.736382 
L 130.009495 21.877399 
L 130.077037 22.029315 
L 129.589486 22.60573 
L 127.991658 23.387812 
L 127.693842 23.53366 
L 127.304857 23.867043 
L 127.442146 23.959763 
L 127.484388 24.06144 
L 127.436865 24.170451 
L 127.304857 24.28273 
L 127.216851 24.32016 
L 126.956354 24.472335 
L 127.178128 24.640003 
L 127.257333 24.681518 
L 127.273175 24.694543 
L 127.287255 24.709196 
L 127.297816 24.724663 
L 127.304857 24.742573 
L 127.767767 25.086187 
L 128.2782 25.06094 
L 128.827356 24.89075 
L 129.322557 24.816008 
L 129.409954 24.802818 
L 129.698613 25.102475 
L 129.571032 25.42533 
L 129.450437 25.730619 
L 129.298228 25.954983 
L 128.786873 26.709161 
L 128.73055 27.249451 
L 128.870191 27.428025 
L 128.991047 27.582603 
L 129.466278 27.75086 
L 130.052396 27.797422 
L 130.337534 27.854606 
L 131.011498 28.19479 
L 131.174469 28.27707 
L 132.353746 28.623688 
L 133.710794 30.113054 
L 133.893846 30.243286 
L 134.149063 30.33831 
L 134.302193 30.345683 
L 134.310785 30.360346 
L 134.328595 30.390742 
L 134.198346 30.598039 
L 133.872857 30.861274 
L 133.529503 31.139041 
L 132.72513 31.193159 
L 132.052766 30.955392 
L 131.213365 31.003444 
L 131.332554 30.88532 
L 131.526582 30.687835 
L 131.983935 30.678801 
L 132.492566 30.71881 
L 132.854291 30.668476 
L 132.640859 30.625888 
L 132.485637 30.509749 
L 132.326256 30.333633 
L 131.681805 30.116923 
L 131.995022 30.024063 
L 131.927112 29.749408 
L 131.679033 29.443906 
L 131.460058 29.251247 
L 130.115718 28.329123 
L 129.802501 28.1618 
L 128.871165 27.892862 
L 128.480336 27.848476 
L 128.193451 28.012523 
L 128.018826 28.360017 
L 128.089507 28.669014 
L 128.542702 28.721811 
L 127.920425 28.917576 
L 127.834499 28.981982 
L 127.740256 29.082464 
L 127.27043 29.141728 
L 127.083331 29.202284 
L 126.783973 29.409108 
L 126.380671 29.609535 
L 125.93302 29.699773 
L 125.507544 29.577309 
L 125.750079 29.536061 
L 126.060525 29.448416 
L 126.326621 29.333718 
L 126.43888 29.202284 
L 126.289201 28.929813 
L 125.592085 28.835144 
L 125.382811 28.604631 
L 125.083453 28.672877 
L 123.432826 28.423739 
L 123.278989 28.378039 
L 122.870143 28.107105 
L 122.762042 28.063995 
L 122.581872 28.080724 
L 121.977613 28.222934 
L 121.778041 28.446912 
L 121.640835 28.49519 
L 121.473139 28.442406 
L 121.329003 28.221003 
L 121.123888 28.172096 
L 120.979752 28.240309 
L 120.934017 28.389625 
L 120.996383 28.537677 
L 121.184868 28.604631 
L 121.184868 28.721811 
L 120.805127 28.737265 
L 120.464191 28.873783 
L 120.277092 29.094059 
L 120.369949 29.36078 
L 120.649904 29.481927 
L 120.993611 29.447772 
L 121.640835 29.251247 
L 121.442649 29.478704 
L 120.846704 29.801625 
L 120.720586 30.065978 
L 120.7192 30.068557 
L 120.539031 30.231076 
L 120.123255 30.314282 
L 118.780302 30.343309 
L 118.13585 30.442653 
L 115.358472 31.633054 
L 112.478536 32.544343 
L 110.793261 32.953105 
L 110.507762 33.112909 
L 110.36917 33.171144 
L 109.749665 33.271446 
L 109.277068 33.4682 
L 109.049777 33.497329 
L 109.184211 33.260445 
L 109.37131 33.055325 
L 109.483569 32.881947 
L 109.400414 32.737059 
L 109.565338 32.753876 
L 109.678984 32.732532 
L 109.742736 32.658157 
L 109.749665 32.511366 
L 109.864697 32.511366 
L 109.94508 32.646517 
L 110.014376 32.712483 
L 110.098917 32.707309 
L 110.213948 32.629702 
L 109.981114 32.41244 
L 110.173756 32.426664 
L 110.358083 32.418259 
L 110.531323 32.376235 
L 110.563199 32.41244 
L 110.574286 32.390459 
L 110.631109 32.437656 
L 110.682388 32.497787 
L 110.689317 32.511366 
L 110.631109 32.517185 
L 110.456483 32.511366 
L 110.456483 32.629702 
L 110.834839 32.598662 
L 110.926309 32.403389 
L 110.94294 32.181657 
L 111.095391 32.076951 
L 111.396135 32.054331 
L 111.641442 31.980658 
L 111.829927 31.847545 
L 111.968519 31.64339 
L 111.763403 31.698946 
L 111.329611 31.902467 
L 111.211808 31.914099 
L 110.888889 31.689902 
L 110.755841 31.545205 
L 110.689317 31.319163 
L 110.324821 31.450906 
L 109.87024 31.715743 
L 109.587513 32.001337 
L 109.749665 32.195231 
L 109.749665 32.294132 
L 109.468324 32.287021 
L 109.175896 32.10862 
L 109.049777 32.195231 
L 108.934746 32.195231 
L 108.818329 31.859821 
L 108.603512 32.117668 
L 108.710228 32.261164 
L 109.282611 32.41244 
L 109.282611 32.511366 
L 109.071952 32.589609 
L 108.761506 32.616122 
L 108.542532 32.566329 
L 108.585495 32.41244 
L 108.029742 32.405975 
L 107.334012 32.659451 
L 106.706191 33.061795 
L 106.365256 33.497329 
L 106.365256 33.596372 
L 106.471971 33.596372 
L 106.31952 33.743987 
L 106.252996 33.893568 
L 106.294574 34.033458 
L 106.471971 34.15005 
L 106.305661 34.30488 
L 106.275171 34.420211 
L 106.286258 34.535556 
L 106.239137 34.693693 
L 106.111633 34.746843 
L 105.949481 34.750732 
L 105.873255 34.807128 
L 106.016005 35.020423 
L 105.823362 35.235714 
L 105.745751 35.408243 
L 105.61686 35.522415 
L 105.255136 35.563936 
L 105.030617 35.49906 
L 104.836589 35.408243 
L 104.692454 35.452353 
L 104.600983 35.791684 
L 104.783924 35.936408 
L 104.936375 36.270725 
L 105.138719 36.336304 
L 105.325818 36.259038 
L 105.45748 36.072068 
L 105.500443 35.853335 
L 105.424218 35.672936 
L 105.762382 35.765078 
L 105.833063 35.933812 
L 105.817818 36.164899 
L 105.891272 36.446046 
L 105.704173 36.494752 
L 105.657052 36.576584 
L 105.726348 36.675312 
L 105.891272 36.772752 
L 105.831678 37.0034 
L 105.9869 37.195109 
L 106.273785 37.312103 
L 106.59809 37.317303 
L 106.549583 37.257504 
L 106.532952 37.251004 
L 106.471971 37.217856 
L 106.722822 37.089826 
L 107.10395 36.837717 
L 107.295206 36.772752 
L 107.137212 37.017045 
L 107.238383 37.251004 
L 107.428254 37.479171 
L 107.529426 37.704794 
L 107.544671 38.242088 
L 107.655545 38.845453 
L 107.483691 38.806388 
L 107.295206 38.736076 
L 107.314609 38.630618 
L 107.295206 38.475056 
L 107.295206 38.408023 
L 107.126124 38.760164 
L 107.115037 39.044708 
L 107.284119 39.204925 
L 107.655545 39.183431 
L 107.600108 39.122859 
L 107.57239 39.074014 
L 107.529426 38.96461 
L 107.866204 39.158681 
L 108.074092 39.390577 
L 108.248717 39.627092 
L 108.469078 39.838899 
L 108.469078 39.947755 
L 108.334644 39.964051 
L 108.262576 39.992734 
L 108.20714 40.029241 
L 108.110125 40.068357 
L 108.342959 40.287439 
L 108.59381 40.039672 
L 108.645089 39.842158 
L 108.543917 39.647293 
L 108.342959 39.412076 
L 108.589653 39.560627 
L 108.897326 39.664236 
L 109.102442 39.77633 
L 109.049777 39.947755 
L 109.321417 40.142683 
L 109.454465 40.214406 
L 109.633248 40.287439 
L 109.97557 40.591368 
L 110.341452 40.839934 
L 110.563199 40.724451 
L 110.506376 40.720536 
L 110.391345 40.730975 
L 110.340066 40.724451 
L 110.340066 40.605067 
L 110.621407 40.600501 
L 110.862557 40.661821 
L 111.046884 40.781212 
L 111.153599 40.943686 
L 111.138354 41.091177 
L 110.970658 41.264802 
L 111.037182 41.371866 
L 110.897205 41.525301 
L 110.838996 41.61215 
L 110.793261 41.709457 
L 110.689317 41.709457 
L 110.560427 41.723172 
L 110.489745 41.899528 
L 110.456483 42.418337 
L 110.360855 42.673927 
L 110.136336 42.938742 
L 109.633248 43.344937 
L 109.608302 43.27232 
L 109.533462 43.113365 
L 109.421203 42.934819 
L 109.282611 42.796191 
L 109.541778 42.427488 
L 109.606916 42.226854 
L 109.526533 42.049783 
L 109.332504 41.987718 
L 109.138476 42.070037 
L 108.991569 42.207251 
L 108.934746 42.313115 
L 108.739332 42.575213 
L 108.731016 42.728846 
L 109.155107 42.852424 
L 109.14402 42.974057 
L 109.013743 43.091781 
L 108.818329 43.136258 
L 108.818329 43.246152 
L 108.938904 43.265778 
L 109.150949 43.32989 
L 109.282611 43.344937 
L 109.149563 43.621721 
L 108.839118 43.774871 
L 108.459377 43.799744 
L 108.148931 43.607978 
L 107.968762 43.428029 
L 107.529426 43.136258 
L 107.221752 42.984521 
L 107.040197 42.979289 
L 106.59809 43.246152 
L 106.59809 43.344937 
L 106.830924 43.344937 
L 106.380501 44.458457 
L 106.261312 45.097312 
L 106.365256 45.793664 
L 106.589774 46.31331 
L 106.743611 46.566019 
L 106.889132 46.675 
L 106.929324 46.853598 
L 106.830924 47.996895 
L 106.89329 48.712482 
L 107.413009 50.337691 
L 107.480919 50.759589 
L 107.529426 50.880259 
L 107.604266 50.975883 
L 107.838486 51.194864 
L 107.888379 51.272707 
L 107.924412 51.616478 
L 108.02697 51.943206 
L 108.342959 52.551414 
L 108.703298 53.005342 
L 109.166194 53.448242 
L 109.861925 53.920451 
L 110.215334 54.360459 
L 110.762771 54.763589 
L 111.383662 55.107275 
L 111.841014 55.235111 
L 112.813928 56.139057 
L 113.317016 56.494502 
L 113.839507 56.782401 
L 114.158268 56.908466 
L 114.899734 57.079675 
L 114.938539 57.088302 
L 115.753459 57.169937 
L 116.077763 57.305345 
L 116.744389 57.68379 
L 117.880841 58.002594 
L 118.047152 58.185953 
L 118.194059 58.300237 
L 123.405107 61.48024 
L 125.395284 62.344552 
L 125.730676 62.440633 
L 125.898372 62.587441 
L 126.698046 62.782996 
L 127.154013 62.975251 
L 127.320323 62.905154 
L 127.449214 62.784998 
L 127.543456 62.720921 
L 127.590577 62.704903 
L 127.627997 62.670197 
L 127.682048 62.634824 
L 127.781834 62.618807 
L 127.88162 62.651509 
L 127.931513 62.726261 
L 127.964775 62.799683 
L 128.018826 62.833059 
L 128.34313 62.955223 
L 128.591209 63.225639 
L 128.785238 63.49546 
L 128.950162 63.617037 
L 129.274467 63.672486 
L 129.575211 63.820811 
L 129.727661 64.03933 
L 129.598771 64.300011 
L 132.039371 68.705661 
L 132.308239 69.038066 
L 132.380307 69.154937 
L 132.488408 69.748231 
L 132.55909 69.88871 
L 132.76282 70.117954 
L 133.308871 70.960076 
L 133.544477 71.547683 
L 133.829976 72.945694 
L 134.513233 74.699417 
L 135.17986 76.414843 
L 135.789663 77.544455 
L 136.143072 78.07618 
L 137.199141 79.302544 
L 137.294769 79.556944 
L 137.405643 79.736079 
L 139.878119 81.883988 
L 140.961906 82.583915 
L 142.188443 83.174689 
L 142.719249 83.509696 
L 143.428839 84.367441 
L 145.662937 85.977824 
L 146.269969 86.264549 
L 147.251198 86.55818 
L 147.935841 86.653799 
L 148.200551 86.819785 
L 148.333599 87.078719 
L 148.432 87.771794 
L 148.545645 88.102768 
L 148.736901 88.346276 
L 149.0224 88.443421 
L 149.122186 88.458473 
L 149.407685 88.503628 
L 149.743077 88.653476 
L 150.350109 89.027159 
L 150.957141 89.234588 
L 152.334742 89.41535 
L 153.044332 89.590664 
L 153.277166 89.746826 
L 153.740062 90.197631 
L 153.921618 90.292201 
L 154.227905 90.371015 
L 154.929179 90.748717 
L 155.253484 90.876932 
L 155.597191 90.929045 
L 155.968617 90.985961 
L 157.950479 90.981847 
L 159.973918 91.323403 
L 160.748645 91.337809 
L 163.563443 90.981847 
L 166.340821 91.097059 
L 170.644094 90.711695 
L 172.070203 90.981847 
L 172.089606 91.010649 
L 172.574677 91.119005 
L 172.922542 91.578612 
L 173.234373 91.567634 
L 173.180323 91.835939 
L 173.309213 92.155108 
L 173.45612 92.781362 
L 173.469979 92.999811 
L 173.467207 93.295267 
L 173.321686 93.486325 
L 173.020942 93.759912 
L 172.664761 94.006061 
L 172.355702 94.113338 
L 172.007837 94.195867 
L 171.709864 94.391896 
L 171.258055 94.806769 
L 170.651024 95.171545 
L 168.910312 95.846354 
L 168.480677 96.276242 
L 168.332384 96.916561 
L 168.416925 97.601401 
L 168.680249 98.170698 
L 169.051675 98.568343 
L 169.520115 98.907419 
L 170.551238 99.444903 
L 171.632253 99.701992 
L 171.89142 99.856827 
L 172.12564 100.037956 
L 175.316021 101.143334 
L 178.021331 102.253264 
L 179.049682 102.465957 
L 179.354584 102.648892 
L 179.623451 102.851957 
L 180.297007 103.201341 
L 184.327254 104.235567 
L 184.682049 104.46321 
L 184.79708 104.46321 
L 184.79708 104.33689 
L 184.903796 104.33689 
L 185.258591 104.616616 
L 188.185648 105.335335 
L 190.671983 106.374981 
L 191.919309 107.07185 
L 192.493078 107.506739 
L 193.13753 108.237028 
L 193.363434 108.334528 
L 193.644775 108.404872 
L 194.255965 108.767805 
L 195.320349 109.640428 
L 195.590603 109.738046 
L 195.935697 109.809174 
L 196.551044 110.123721 
L 198.01873 110.414631 
L 198.201671 110.503942 
L 199.957628 111.05531 
L 201.584695 111.972976 
L 202.912404 112.164423 
L 203.490331 112.379663 
L 203.475086 112.784395 
L 203.669114 112.786492 
L 204.105678 112.677431 
L 204.362073 112.719377 
L 204.431369 112.831238 
L 204.438298 112.985065 
L 204.511752 113.157795 
L 204.910896 113.449467 
L 204.978806 113.556501 
L 204.880406 114.331218 
L 206.285726 115.232552 
L 207.847655 115.918645 
L 208.184433 115.976831 
L 208.30085 116.040628 
L 208.650101 116.506243 
L 208.844129 116.668971 
L 209.406811 117.036594 
L 209.847533 117.609305 
L 210.096998 117.869082 
L 210.399128 117.978626 
L 210.551579 118.092395 
L 211.689417 119.315043 
L 212.757959 121.31052 
L 212.830027 121.415452 
L 212.918726 121.495038 
L 213.032371 121.540115 
L 212.946444 121.741576 
L 212.990793 121.863455 
L 213.054545 121.974072 
L 213.032371 122.14178 
L 212.895165 122.31374 
L 212.619367 122.485019 
L 212.478004 122.996184 
L 212.253485 123.199301 
L 211.635366 123.561892 
L 211.248695 124.319878 
L 211.189101 124.499211 
L 211.123963 124.863607 
L 210.965968 125.243657 
L 210.928549 125.408995 
L 211.049123 125.856368 
L 211.056053 126.060674 
L 210.824605 126.985783 
L 210.87034 127.129423 
L 210.781641 127.184618 
L 210.607016 127.4302 
L 210.515545 127.48541 
L 210.144119 127.460636 
L 210.005528 127.424538 
L 209.869708 127.367207 
L 209.046473 126.849236 
L 208.766518 126.772832 
L 208.063858 126.772832 
L 207.840725 126.742414 
L 207.419406 126.524555 
L 206.999473 126.373915 
L 206.467281 125.97513 
L 205.847776 125.640788 
L 205.620486 125.576475 
L 205.461105 125.488139 
L 204.367617 124.19422 
L 204.163887 124.034695 
L 204.163887 123.906244 
L 204.431369 123.894246 
L 204.587977 123.775689 
L 204.619854 123.576709 
L 204.511752 123.324855 
L 204.330197 123.174615 
L 203.87423 123.056834 
L 203.688517 122.958809 
L 204.292777 122.661964 
L 204.429983 122.288367 
L 204.195763 121.865568 
L 203.688517 121.42179 
L 203.23255 121.128142 
L 202.983085 120.89933 
L 202.873598 120.648743 
L 202.866668 120.316585 
L 202.829249 120.023913 
L 202.729463 119.791796 
L 202.534048 119.639889 
L 202.757181 119.639889 
L 202.757181 119.5323 
L 201.911771 119.00856 
L 201.648447 118.932654 
L 195.932925 118.696535 
L 195.623865 118.631891 
L 194.713318 118.225139 
L 194.54285 118.214603 
L 194.186669 118.241996 
L 194.014815 118.225139 
L 193.890083 118.155605 
L 193.593497 117.921746 
L 193.482623 117.871188 
L 193.194352 117.814313 
L 192.260244 117.388891 
L 191.299804 117.115185 
L 190.838293 116.927839 
L 190.62209 116.683 
L 191.018462 116.544818 
L 191.351083 116.321097 
L 191.434238 116.046237 
L 191.087758 115.751815 
L 191.425922 115.650888 
L 192.249157 115.772843 
L 192.598408 115.623555 
L 192.717597 115.337647 
L 192.39052 115.320831 
L 191.669844 115.50582 
L 191.700334 115.465877 
L 191.786261 115.377586 
L 191.425922 115.262678 
L 191.112705 115.364974 
L 190.800873 115.535252 
L 190.447465 115.623555 
L 190.308873 115.564686 
L 190.217402 115.429438 
L 190.137019 115.272487 
L 190.042777 115.153386 
L 189.869537 115.098043 
L 189.485638 115.09384 
L 189.333187 115.047606 
L 188.056757 114.982462 
L 186.805274 115.438548 
L 185.715943 116.255181 
L 184.884393 117.190974 
L 183.512335 118.733074 
L 183.149225 119.285516 
L 182.743151 120.298291 
L 182.626734 120.477023 
L 182.375883 120.599476 
L 181.753606 121.42179 
L 181.082822 121.894455 
L 180.818112 122.081177 
L 180.481334 122.488544 
L 180.348286 123.141465 
L 180.389864 123.360831 
L 180.632399 124.010698 
L 180.938687 124.538753 
L 180.770991 124.758373 
L 180.493807 124.942716 
L 180.216624 125.343987 
L 179.41695 125.941903 
L 178.83625 126.772832 
L 178.556295 127.331112 
L 178.523033 127.857786 
L 178.733693 128.347854 
L 179.184116 128.792768 
L 179.184116 128.911817 
L 178.963755 129.34843 
L 179.479316 129.849026 
L 180.25543 130.268947 
L 180.823656 130.469027 
L 182.951039 130.561274 
L 183.508177 130.707464 
L 183.774273 130.850122 
L 184.080561 131.066625 
L 184.332798 131.326479 
L 184.439514 131.600592 
L 184.59335 131.736251 
L 185.612 132.136923 
L 186.411674 132.669934 
L 186.716576 132.744573 
L 187.133737 132.782961 
L 187.408148 132.898132 
L 187.611878 133.085841 
L 187.822537 133.341854 
L 188.185648 133.676173 
L 188.720612 134.009159 
L 189.327643 134.246858 
L 189.915272 134.295969 
L 189.294381 135.483768 
L 189.169649 136.456642 
L 189.162719 136.691957 
L 189.21677 136.925889 
L 189.337345 137.125622 
L 189.632545 137.51662 
L 189.693526 137.72073 
L 189.603441 138.278276 
L 189.294381 139.29406 
L 189.333187 139.823708 
L 189.732331 140.468735 
L 189.798855 140.614663 
L 189.911115 140.709811 
L 190.491814 140.875085 
L 190.72742 140.902991 
L 190.3948 141.086897 
L 190.220174 141.208562 
L 190.148106 141.330238 
L 190.134247 142.019721 
L 190.148106 142.116407 
L 189.577109 142.535467 
L 189.51197 142.607831 
L 189.387238 142.675184 
L 189.237559 142.835699 
L 188.983936 143.198365 
L 188.830099 142.845015 
L 188.414324 142.78052 
L 187.932025 142.895897 
L 187.586932 143.077226 
L 187.150368 142.662287 
L 186.893973 142.526869 
L 186.485127 142.476002 
L 186.106772 142.500361 
L 184.463074 142.861498 
L 182.576841 143.554681 
L 181.89497 143.95987 
L 181.753606 144.1062 
L 181.605313 144.228154 
L 180.58112 144.652934 
L 180.155644 144.983097 
L 179.964387 145.208517 
L 179.782832 145.708318 
L 179.565243 145.979125 
L 179.358741 146.298133 
L 179.290831 146.712099 
L 179.495947 146.830708 
L 179.533367 146.888219 
L 179.523665 147.203857 
L 179.699677 148.548524 
L 180.008736 149.742558 
L 180.011508 150.197272 
L 179.882618 151.497436 
L 179.74264 151.731214 
L 179.071856 152.248705 
L 178.83625 152.525939 
L 178.656081 152.565652 
L 178.136362 152.931068 
L 177.591697 153.085642 
L 175.970174 153.780728 
L 175.399176 154.202873 
L 173.068063 156.583589 
L 172.768705 157.160239 
L 172.319668 159.049148 
L 172.070203 159.605819 
L 171.908051 159.839588 
L 171.715408 160.041447 
L 171.496433 160.207749 
L 171.258055 160.336303 
L 170.452838 160.478671 
L 170.199215 160.580371 
L 169.197197 160.32904 
L 166.12046 160.469227 
L 165.667266 160.366809 
L 165.214071 160.188141 
L 164.807997 159.964476 
L 164.490622 159.726328 
L 164.145528 159.343058 
L 163.968131 158.972959 
L 164.023568 158.640684 
L 164.365889 158.376663 
L 163.926554 157.812533 
L 163.779646 157.493594 
L 163.837855 157.221831 
L 164.079004 156.891443 
L 164.184334 156.585038 
L 164.162159 156.247568 
L 164.016638 155.823318 
L 163.929325 155.212523 
L 164.231455 154.843578 
L 164.805225 154.628769 
L 166.545937 154.186244 
L 166.702546 154.052504 
L 166.753825 153.960701 
L 166.994974 153.785064 
L 167.051797 153.688221 
L 167.283245 152.889899 
L 168.561061 150.709827 
L 168.782807 149.950799 
L 168.752317 149.356429 
L 168.480677 148.862409 
L 167.981747 148.403125 
L 167.858401 148.332592 
L 167.626952 148.241911 
L 167.52578 148.161312 
L 167.380259 147.978542 
L 167.349769 147.880691 
L 167.376101 147.784287 
L 167.399662 147.611641 
L 167.534096 147.41025 
L 167.851471 147.270734 
L 168.561061 147.074429 
L 169.637918 146.487851 
L 170.226933 146.261486 
L 171.014134 146.220529 
L 172.240671 146.34053 
L 172.498451 146.28951 
L 172.781178 146.164485 
L 173.234373 145.857722 
L 173.604413 145.360735 
L 173.845563 144.695276 
L 173.957822 143.946959 
L 173.930104 143.198365 
L 173.838633 142.847165 
L 173.666779 142.582038 
L 173.411771 142.415107 
L 173.059748 142.357081 
L 172.810283 142.213101 
L 172.560818 141.88294 
L 171.596219 140.098269 
L 170.897717 135.969041 
L 170.761891 135.362655 
L 170.103997 133.726321 
L 169.468423 133.048194 
L 169.04336 132.417613 
L 168.561061 132.028218 
L 168.074604 131.75756 
L 167.926311 131.540225 
L 167.793351 131.10651 
L 167.632496 130.653528 
L 167.399662 129.992294 
L 167.043481 129.534889 
L 166.885487 129.245642 
L 166.584743 127.48541 
L 166.584743 127.59442 
L 166.502974 127.252555 
L 166.415661 127.076352 
L 166.288156 126.999934 
L 166.260438 126.902296 
L 166.468326 126.233901 
L 166.340821 125.842937 
L 165.780911 125.17442 
L 165.654792 124.928589 
L 165.550848 124.574059 
L 165.297226 124.281756 
L 164.713755 123.798976 
L 164.249472 123.195774 
L 163.887748 122.952462 
L 163.790734 122.827652 
L 163.783804 122.604154 
L 163.54404 122.683819 
L 162.262067 122.604154 
L 161.890886 122.779247 
L 161.587488 123.142518 
L 160.982865 123.443368 
L 160.468437 123.956178 
L 160.13631 124.057179 
L 159.299174 123.971825 
L 158.996317 123.880626 
L 158.504846 123.36718 
L 158.308045 123.324855 
L 158.147279 123.390459 
L 157.972653 123.434902 
L 157.788326 123.45395 
L 157.601228 123.443368 
L 157.601228 123.324855 
L 157.906129 123.125949 
L 157.638647 122.674654 
L 157.135559 122.2193 
L 156.722556 122.013531 
L 156.387164 121.888114 
L 155.318622 121.014083 
L 155.073315 120.924673 
L 154.785044 120.954241 
L 154.270869 121.066887 
L 153.956265 121.026051 
L 153.746992 120.914818 
L 153.540605 120.564239 
L 153.205423 120.311197 
L 152.741895 120.154631 
L 152.578664 120.06401 
L 152.421447 119.943079 
L 152.098731 120.007226 
L 151.826111 119.831182 
L 151.639012 119.768586 
L 151.566944 119.475346 
L 151.992421 119.009966 
L 152.115767 118.638215 
L 152.000736 118.341038 
L 152.000736 118.17808 
L 152.167046 118.107144 
L 152.368004 118.071326 
L 152.545402 117.980733 
L 152.690923 117.862762 
L 153.058414 117.751676 
L 153.159626 117.572335 
L 153.122732 117.076771 
L 152.742202 116.492216 
L 151.259271 114.054025 
L 150.793602 113.467655 
L 150.350109 113.029819 
L 149.912159 112.680228 
L 149.439561 112.390147 
L 148.932316 112.272737 
L 148.383492 112.442565 
L 147.880405 112.746642 
L 147.669745 112.789289 
L 146.7786 112.747341 
L 146.566555 112.801873 
L 145.851422 113.285786 
L 145.389911 113.357131 
L 144.915928 113.249416 
L 144.408682 113.029819 
L 144.149516 113.166887 
L 143.30965 113.323556 
L 142.960399 113.554402 
L 142.181513 113.872065 
L 141.956995 114.09602 
L 141.739406 113.858069 
L 141.707529 113.497736 
L 141.87384 113.171083 
L 142.246651 113.029819 
L 142.588973 113.00884 
L 142.719249 112.955697 
L 142.903736 112.837256 
L 143.015884 112.627798 
L 143.687079 112.1133 
L 144.234749 111.956787 
L 144.292265 111.675388 
L 144.196637 111.363213 
L 143.966574 111.113951 
L 143.660287 110.927564 
L 143.296736 110.998625 
L 143.026175 110.896437 
L 142.83935 110.816169 
L 142.637055 110.632658 
L 142.365504 110.496962 
L 142.06371 110.210916 
L 141.441433 109.675291 
L 141.132374 109.492621 
L 140.817771 109.471009 
L 140.352102 109.510747 
L 139.930784 109.61951 
L 139.745071 109.801503 
L 139.587076 110.136276 
L 139.225046 110.141366 
L 138.942238 109.88709 
L 138.425144 109.839068 
L 138.02099 109.650886 
L 137.75628 109.577677 
L 137.527603 109.620905 
L 137.419502 109.776399 
L 137.44029 109.979339 
L 137.505429 110.206731 
L 137.527603 110.439749 
L 137.404165 110.392374 
L 136.934396 110.335591 
L 136.822918 110.217379 
L 137.012042 109.512839 
L 136.879346 108.885691 
L 136.48559 108.070455 
L 135.531883 106.794999 
L 134.933166 106.491792 
L 134.725279 106.329094 
L 134.66707 106.167115 
L 134.63658 105.803615 
L 134.600546 105.629203 
L 134.152026 104.943697 
L 133.596961 104.218376 
L 132.554131 103.220299 
L 131.385218 102.42785 
L 131.157928 102.359259 
L 130.650682 102.459029 
L 130.388744 102.45695 
L 130.273713 102.305221 
L 129.214872 102.415378 
L 128.690995 102.673147 
L 128.891953 103.182621 
L 128.355603 103.207581 
L 128.193451 103.182621 
L 128.036842 103.057831 
L 127.939828 102.891465 
L 127.852515 102.814529 
L 127.727783 102.94969 
L 127.601664 102.94969 
L 127.27043 102.65305 
L 124.616399 101.705433 
L 123.959474 101.6902 
L 122.580487 101.893784 
L 122.276971 101.991435 
L 121.667167 102.294829 
L 121.042119 102.453486 
L 120.633273 102.867899 
L 120.253532 102.94969 
L 119.851616 102.851264 
L 119.718568 102.631568 
L 119.661745 102.350945 
L 119.495435 102.06693 
L 119.295863 101.846693 
L 118.967401 101.351666 
L 118.742882 101.090046 
L 117.794915 100.260604 
L 117.279353 99.928722 
L 116.744389 99.687478 
L 116.393752 99.60454 
L 115.054956 99.55409 
L 114.809649 99.514008 
L 113.61776 98.932975 
L 113.199213 98.802439 
L 113.002413 98.928831 
L 112.880452 99.1105 
L 112.610198 98.912945 
L 111.353172 97.471022 
L 109.691457 96.003409 
L 107.899466 94.793006 
L 107.63337 94.639563 
L 107.181561 94.53705 
L 106.915465 94.371948 
L 106.772715 94.334116 
L 106.266856 94.261894 
L 106.132422 94.218563 
L 105.867711 93.975117 
L 105.726348 93.680166 
L 105.668139 93.352306 
L 105.658438 93.008055 
L 105.573897 92.680395 
L 105.375711 92.342535 
L 104.959936 91.79888 
L 104.573265 91.396118 
L 102.912936 90.440925 
L 102.723065 90.356622 
L 102.569229 90.227098 
L 102.506862 90.009202 
L 102.408462 89.88657 
L 101.926163 89.832451 
L 101.758467 89.774225 
L 101.533948 89.577651 
L 101.255379 89.394807 
L 100.947705 89.240065 
L 100.645575 89.131895 
L 99.331726 89.15654 
L 99.123838 89.194879 
L 99.032368 88.982666 
L 98.816165 88.653476 
L 98.547297 88.349013 
L 98.311691 88.213571 
L 98.178643 87.982402 
L 97.807217 87.618651 
L 97.729606 87.472364 
L 97.68387 87.209235 
L 97.568839 86.930456 
L 96.64859 85.53355 
L 96.241131 85.077185 
L 94.212148 83.912935 
L 93.363967 83.73718 
L 92.195638 83.280899 
L 91.778477 83.174689 
L 91.778477 83.05079 
L 91.620483 82.985442 
L 91.445857 82.941879 
L 91.260144 82.924863 
L 91.07166 82.936434 
L 91.197778 83.05079 
L 90.703006 83.047386 
L 89.443207 82.708441 
L 89.214531 82.683943 
L 88.904085 82.685984 
L 88.629674 82.741105 
L 88.511871 82.873816 
L 88.453662 83.13316 
L 88.204197 83.403463 
L 88.16262 83.621389 
L 88.006011 83.570309 
L 87.836929 83.570309 
L 87.712196 83.59687 
L 87.68725 83.621389 
L 87.548658 83.535575 
L 87.322754 83.321752 
L 86.847384 83.203283 
L 86.640882 83.011308 
L 86.50922 82.749952 
L 86.512271 82.564411 
L 86.71988 82.340351 
L 86.95642 82.281823 
L 87.446792 82.408229 
L 87.827846 82.390993 
L 88.09183 82.112328 
L 88.240942 81.715098 
L 88.249932 81.306844 
L 88.213898 81.037754 
L 87.859104 80.613872 
L 87.730213 80.31644 
L 87.562517 80.330699 
L 87.368489 80.401994 
L 87.222968 80.416254 
L 87.006765 80.184049 
L 86.858471 79.87045 
L 86.690775 79.601725 
L 86.409434 79.504702 
L 86.356769 79.179097 
L 85.94238 78.932247 
L 85.128847 78.584449 
L 85.03599 78.385178 
L 84.956993 78.116154 
L 84.861365 77.879037 
L 84.711686 77.778787 
L 84.560621 77.716474 
L 84.071392 77.334548 
L 83.173318 76.986603 
L 80.455534 76.312704 
L 80.865766 76.06788 
L 81.027918 75.800128 
L 81.052864 75.48581 
L 81.040391 75.105376 
L 81.093056 74.991881 
L 81.192842 74.920277 
L 81.245507 74.812881 
L 81.165124 74.590018 
L 81.004357 74.42189 
L 80.786768 74.305769 
L 79.605967 73.911595 
L 78.773031 73.755047 
L 77.934551 73.734805 
L 77.181998 73.910245 
L 77.256837 74.081665 
L 77.309502 74.148486 
L 76.832747 74.305769 
L 76.508442 74.053318 
L 76.134244 73.231593 
L 76.562493 72.974685 
L 76.8078 72.670658 
L 77.181998 71.751708 
L 77.123789 71.553743 
L 77.123789 71.202347 
L 77.186156 70.845689 
L 77.309502 70.631754 
L 77.169525 70.348594 
L 77.103 70.000972 
L 77.076668 69.324894 
L 76.996285 68.98568 
L 76.805028 68.655306 
L 75.444058 66.64784 
L 74.36027 65.584349 
L 74.117735 65.385571 
L 73.55921 65.194861 
L 73.403988 64.935955 
L 73.021474 63.68852 
L 72.497598 59.741888 
L 72.286938 59.133186 
L 71.580121 57.930854 
L 71.078419 57.359115 
L 70.325866 56.976813 
L 69.803375 56.356553 
L 69.544208 56.215971 
L 69.228219 56.148339 
L 68.60317 55.850022 
L 68.253919 55.78109 
L 67.976736 55.683666 
L 67.806268 55.655833 
L 67.731429 55.725418 
L 67.67322 55.816881 
L 67.536014 55.884489 
L 67.366932 55.901724 
L 67.21171 55.836765 
L 66.942842 55.645892 
L 66.371844 55.327853 
L 66.093274 55.11456 
L 65.903404 55.198679 
L 65.357352 54.860259 
L 65.045521 54.882773 
L 65.161938 55.003295 
L 65.082941 55.03111 
L 65.003944 55.08012 
L 64.929104 55.11456 
L 65.012259 55.246372 
L 65.116203 55.345078 
L 65.245093 55.411328 
L 65.404474 55.448431 
L 65.404474 55.549144 
L 65.304688 55.596854 
L 65.257566 55.645892 
L 65.161938 55.78109 
L 65.385071 55.875209 
L 65.319933 55.958731 
L 65.145307 55.94017 
L 65.045521 55.725418 
L 64.933262 55.596854 
L 64.115571 55.335803 
L 63.247987 54.781466 
L 63.058116 54.711947 
L 62.596605 54.406126 
L 62.424752 54.336634 
L 61.925822 54.312148 
L 61.717934 54.275089 
L 61.548852 54.215532 
L 60.954294 53.736566 
L 60.847578 53.716725 
L 60.729775 53.511058 
L 60.448434 53.372208 
L 59.677864 53.126954 
L 59.469976 53.019882 
L 59.311982 52.872511 
L 59.220511 52.662398 
L 59.018167 52.727806 
L 58.700792 52.762163 
L 58.40975 52.733092 
L 58.280859 52.606904 
L 58.164442 52.452331 
L 57.349523 52.208631 
L 57.233106 51.841546 
L 55.445273 51.160563 
L 54.899221 50.880259 
L 54.735683 51.03656 
L 54.610951 51.208717 
L 54.544427 51.412576 
L 54.559672 51.664655 
L 53.782172 51.454145 
L 53.468955 51.287881 
L 53.502217 51.101857 
L 53.186228 50.723984 
L 52.709472 50.551913 
L 50.992321 50.336373 
L 50.169086 50.133401 
L 49.671542 49.942989 
L 49.516319 49.985812 
L 48.730504 49.972635 
L 48.33829 49.912026 
L 48.208013 49.852079 
L 48.025072 49.669626 
L 46.924654 49.610352 
L 46.49502 49.664357 
L 46.28436 49.742076 
L 45.790974 50.021389 
L 45.612191 50.161076 
L 45.497159 50.21643 
L 45.366883 50.215771 
L 45.228291 50.201932 
L 45.098015 50.21643 
L 44.053034 50.733874 
L 43.761991 50.769479 
L 43.559647 50.824208 
L 43.142486 51.101857 
L 41.87853 51.681815 
L 41.511262 52.012527 
L 41.59996 52.329483 
L 41.425335 52.511119 
L 41.375442 52.60228 
L 41.356039 52.717895 
L 41.30476 52.756877 
L 41.046979 52.876476 
L 40.955509 52.93529 
L 40.864038 53.130259 
L 40.898686 53.308079 
L 40.893143 53.47998 
L 40.660308 53.661171 
L 40.23206 53.804692 
L 39.279935 54.017037 
L 38.78932 54.215532 
L 38.53154 54.370387 
L 38.309793 54.539166 
L 37.912035 54.94237 
L 37.857984 55.060251 
L 37.878773 55.321229 
L 37.857984 55.448431 
L 37.752654 55.697583 
L 37.62515 55.892444 
L 36.821318 56.521033 
L 36.541363 56.903157 
L 36.801915 57.238966 
L 36.801915 57.3392 
L 36.405543 57.40293 
L 35.903841 57.809307 
L 35.460347 57.936832 
L 35.330071 58.012558 
L 35.226127 58.10357 
L 35.18455 58.185953 
L 35.094465 58.315521 
L 34.889349 58.390611 
L 34.476346 58.465043 
L 33.255353 59.031439 
L 30.293648 59.536284 
L 29.455168 59.924238 
L 28.746964 60.03939 
L 26.652844 60.037393 
L 26.177474 60.149228 
L 25.955727 60.149228 
L 25.821293 60.07467 
L 25.645282 60.02408 
L 25.465113 60.022748 
L 25.131952 59.237889 
L 25.049227 58.824497 
L 25.315004 58.485975 
L 26.052492 57.921887 
L 26.395715 57.541511 
L 27.275772 57.027267 
L 27.655957 56.734858 
L 27.787965 56.546987 
L 27.928775 56.181458 
L 28.037902 55.982749 
L 28.224474 55.837952 
L 28.47089 55.707485 
L 28.660982 55.532433 
L 28.694424 55.250566 
L 28.626817 55.150439 
L 28.426887 54.854406 
L 28.050222 54.594592 
L 27.842529 54.291984 
L 28.076624 53.763485 
L 27.55035 53.697968 
L 26.849824 54.012995 
L 26.358752 54.039882 
L 23.396479 54.62738 
L 22.711794 54.61561 
L 22.548104 54.589548 
L 22.387933 54.481943 
L 22.296407 54.346614 
L 22.178479 54.228112 
L 21.954945 54.168446 
L 21.511396 54.117186 
L 21.191055 54.023918 
L 19.379897 53.257103 
L 18.696972 53.085849 
L 17.695467 52.719937 
L 17.480733 52.677145 
L 17.251918 52.690569 
L 17.047745 52.737558 
L 16.845332 52.760214 
L 16.618277 52.696443 
L 16.458106 52.57143 
L 16.380661 52.429656 
L 16.324338 52.277838 
L 16.216971 52.118497 
L 16.06032 51.992721 
L 15.722378 51.825882 
L 15.569248 51.716069 
L 15.474202 51.593697 
L 15.273549 51.264375 
L 15.13978 51.105201 
L 14.764876 50.804519 
L 14.694471 50.730828 
L 14.631107 50.581789 
L 14.634627 50.499744 
L 14.67687 50.402638 
L 14.819439 49.897177 
L 14.939127 49.757469 
L 15.511165 49.542509 
L 15.065855 49.289135 
L 14.548382 48.917976 
L 14.166437 48.46509 
L 14.113633 47.96232 
L 14.294925 47.745259 
L 15.162662 47.293763 
L 15.74702 46.607332 
L 15.984635 46.486445 
L 15.792783 46.143875 
L 15.914231 45.816425 
L 16.227531 45.555712 
L 16.618277 45.41081 
L 16.931577 45.409145 
L 17.545857 45.532393 
L 17.850357 45.528229 
L 17.751791 45.318384 
L 17.234317 44.658343 
L 17.169193 44.521066 
L 17.077667 44.12349 
L 16.884054 43.775126 
L 16.896375 43.754345 
L 16.98086 43.500849 
L 17.012542 43.489215 
L 17.010782 43.411934 
L 17.026623 43.368726 
L 17.031904 43.319704 
L 16.994941 43.22499 
L 16.924537 43.144408 
L 16.618277 42.919314 
L 15.764621 42.683479 
L 15.468922 42.666873 
L 14.629347 42.779799 
L 14.307246 42.724995 
L 13.133249 42.265932 
L 12.575293 41.942316 
L 12.277834 41.606371 
L 12.311276 40.708623 
L 12.202149 40.248894 
L 11.75508 40.031947 
L 11.158401 39.99469 
L 10.978869 39.892035 
L 10.774696 39.656136 
L 10.728933 39.511316 
L 10.748294 39.383065 
L 10.721892 39.27055 
L 10.444674 39.110902 
L 10.145455 38.806571 
L 10.347868 38.625508 
L 10.599425 38.485087 
L 10.655888 38.453573 
L 11.246406 38.227956 
L 11.397776 38.209777 
L 11.705796 38.217214 
L 11.839565 38.20234 
L 11.987415 38.146152 
L 12.293675 37.98835 
L 12.422163 37.944567 
L 13.018842 38.011482 
L 13.643683 38.236219 
L 14.256203 38.380014 
L 14.810639 38.20234 
L 14.844081 38.103188 
L 14.745515 38.029657 
L 14.666309 37.942915 
L 14.756075 37.807447 
L 14.889844 37.767802 
L 15.28763 37.764499 
L 15.44252 37.739721 
L 15.692456 37.58942 
L 15.988156 37.245967 
L 16.20817 37.106476 
L 16.81717 36.922445 
L 17.417369 36.812705 
L 17.552898 36.851484 
L 17.765872 37.023121 
L 17.855637 37.044578 
L 17.970045 36.967005 
L 18.293906 36.575117 
L 18.756816 36.317798 
L 18.756816 36.067147 
L 18.573764 35.747337 
L 18.487519 35.285128 
L 18.575524 35.191232 
L 19.12644 34.757292 
L 19.478463 34.340839 
L 19.629833 34.098132 
L 19.647434 33.899901 
L 19.515426 33.833286 
L 18.786738 33.623602 
L 18.559683 33.510146 
L 18.422394 33.331769 
L 18.304467 33.133705 
L 18.194589 33.019234 
L 18.137256 32.95951 
L 17.396247 32.592331 
L 16.618277 32.306577 
L 16.489788 32.075904 
L 16.396502 31.419506 
L 16.329618 31.301405 
L 16.143046 31.114443 
L 16.109604 30.986544 
L 16.155367 30.854565 
L 16.350739 30.575914 
L 16.391222 30.485781 
L 16.287375 30.249839 
L 16.077922 30.154005 
L 15.525245 30.062276 
L 15.298191 29.949266 
L 14.910965 29.698729 
L 14.683911 29.643064 
L 14.238602 29.584128 
L 13.779212 29.360697 
L 13.435989 29.02361 
L 13.244137 28.367799 
L 13.198374 28.085016 
L 13.210694 27.80314 
L 13.30222 27.543403 
L 13.518715 27.310683 
L 13.780972 27.208632 
L 14.243373 27.118137 
L 14.390537 27.156358 
L 14.502381 27.20004 
L 14.602453 27.303794 
L 14.708411 27.28195 
L 14.72607 27.210961 
L 14.74373 27.101758 
L 14.756075 27.02089 
L 14.874003 27.009463 
L 15.29467 27.011912 
L 15.657254 26.942539 
L 16.042719 26.815234 
L 16.385942 26.626759 
L 16.618277 26.373889 
L 16.725644 26.161045 
L 16.862933 25.971077 
L 17.042464 25.825979 
z
" clip-path="url(#ped0583b17b)" style="stroke: #000000; stroke-linejoin: miter"/>
   </g>
   <g id="line2d_1">
    <path d="M 17.28712 25.750994 
L 18.447036 26.457083 
L 19.525986 26.519892 
L 20.03994 26.457899 
L 21.793014 25.937654 
L 23.072618 26.025699 
L 23.618253 25.901786 
L 25.131952 25.28411 
L 25.489255 25.254786 
L 26.126417 24.823172 
L 28.129428 25.202655 
L 28.704985 25.657272 
L 28.729627 25.697205 
L 29.08165 25.721654 
L 29.377349 25.670311 
L 30.195802 25.863474 
L 31.320516 25.793376 
L 31.380209 25.52309 
L 31.73071 25.512722 
L 31.776966 25.212988 
L 32.207614 24.857367 
L 33.700191 24.583839 
L 34.122619 24.105368 
L 34.372555 23.138642 
L 34.543286 23.054134 
L 35.080121 22.989946 
L 35.82465 22.575682 
L 36.194274 22.066649 
L 36.146751 21.490589 
L 35.643358 20.869518 
L 35.185728 20.587507 
L 35.428624 20.302347 
L 36.129149 19.978416 
L 37.220421 19.716929 
L 38.058235 19.013006 
L 38.90485 18.633771 
L 38.999897 18.332282 
L 38.822125 18.211473 
L 38.964694 18.013124 
L 39.327278 17.76919 
L 39.790188 17.609297 
L 40.73889 17.479708 
L 41.228202 17.534206 
L 41.462297 17.749 
L 41.541502 18.57395 
L 41.483419 19.024733 
L 41.148997 20.239171 
L 41.215881 20.621538 
L 41.402453 20.873571 
L 42.161063 21.153242 
L 42.631013 21.30487 
L 43.115045 21.622805 
L 44.355926 22.695067 
L 44.685067 22.768169 
L 45.778099 23.07526 
L 46.40998 22.882706 
L 46.665197 23.086636 
L 47.717745 23.160582 
L 48.150734 23.527969 
L 47.899037 23.897136 
L 47.411485 24.278662 
L 47.01898 24.839455 
L 47.571656 24.911106 
L 48.773814 25.407122 
L 49.502502 26.684684 
L 49.268406 27.3115 
L 49.94253 27.178428 
L 51.01268 27.401314 
L 51.556556 26.968655 
L 51.980743 26.434245 
L 52.045868 26.165937 
L 51.692085 25.838206 
L 51.15525 25.728989 
L 50.627215 25.094331 
L 50.676498 25.014522 
L 51.236215 24.681518 
L 50.933475 24.133028 
L 51.0074 23.954069 
L 51.817053 23.661306 
L 52.114512 23.453179 
L 52.169076 23.259729 
L 52.198998 22.702377 
L 52.514058 22.399476 
L 53.885188 21.701496 
L 54.059439 21.36488 
L 54.800447 20.939225 
L 55.053904 20.377679 
L 55.552016 19.713691 
L 55.634742 19.167496 
L 55.404167 18.388853 
L 55.414727 18.034936 
L 55.187673 17.935171 
L 55.023982 17.723964 
L 55.157751 17.34126 
L 55.45345 16.965179 
L 55.779071 16.773974 
L 56.946027 16.766311 
L 56.958348 16.959531 
L 57.521585 17.257313 
L 57.789122 17.116883 
L 57.965134 16.90628 
L 58.37348 16.759051 
L 58.428044 16.857067 
L 58.662139 18.758682 
L 59.190174 18.97095 
L 59.74637 19.725832 
L 60.503219 19.974367 
L 62.775527 19.906357 
L 63.043065 19.553033 
L 63.050105 19.196618 
L 63.417969 19.066387 
L 64.051611 19.255673 
L 64.405394 19.182461 
L 65.538908 18.812047 
L 66.612578 18.746554 
L 67.388788 18.982273 
L 67.501436 19.237066 
L 67.619363 19.890165 
L 67.8693 20.105544 
L 68.541664 20.486232 
L 68.714155 20.752813 
L 68.728236 21.10703 
L 69.291473 21.114326 
L 70.48483 20.748761 
L 70.708365 20.448966 
L 70.490111 20.169521 
L 69.632935 19.538871 
L 69.574851 19.263763 
L 69.789585 18.899784 
L 70.270096 18.590926 
L 70.398585 18.249855 
L 70.273617 18.076138 
L 68.450138 17.572154 
L 68.751117 17.248435 
L 68.520542 17.097112 
L 68.458938 16.839318 
L 68.532863 16.673145 
L 68.559265 16.218349 
L 69.214027 15.728343 
L 69.497406 15.104957 
L 69.661097 15.048199 
L 71.71163 14.753195 
L 71.982688 14.893239 
L 72.01613 15.069131 
L 71.922844 15.38921 
L 71.998529 15.558357 
L 72.924349 15.864114 
L 73.223569 15.991848 
L 75.562762 16.144186 
L 75.800377 15.895139 
L 75.935906 15.508818 
L 75.948227 15.106568 
L 75.819738 14.806312 
L 75.464195 14.618002 
L 74.739028 14.568919 
L 74.431008 14.343659 
L 74.288438 14.046084 
L 74.554216 13.7876 
L 74.717906 13.603935 
L 74.807672 13.064021 
L 75.302265 12.751639 
L 75.106892 12.080687 
L 75.640207 11.562588 
L 75.729972 11.063236 
L 76.282649 11.343334 
L 76.988455 11.39223 
L 79.021387 11.073653 
L 79.283644 11.116925 
L 80.75158 11.761048 
L 80.668855 11.868517 
L 80.211225 12.137248 
L 80.313311 12.27325 
L 81.05256 12.247572 
L 81.709082 12.425727 
L 82.360325 12.419307 
L 82.824995 12.620777 
L 84.979376 12.542511 
L 85.216991 12.385599 
L 85.669341 11.934689 
L 85.96152 11.75343 
L 85.95624 11.532923 
L 86.27658 11.054823 
L 86.596921 10.319167 
L 88.003253 9.522965 
L 89.18253 9.284651 
L 90.375888 9.160723 
L 92.033916 9.420194 
L 93.067103 8.854179 
L 93.575777 8.996846 
L 93.808112 9.126346 
L 94.290383 9.070387 
L 95.189802 8.956881 
L 96.677099 9.088773 
L 97.546596 9.418194 
L 97.743728 9.389805 
L 98.266482 9.144733 
L 99.039173 9.067988 
L 100.350458 8.534966 
L 101.102027 8.373607 
L 102.316507 8.337666 
L 104.329304 7.745267 
L 105.137971 7.646684 
L 105.539277 7.732078 
L 105.528716 8.139214 
L 105.166133 8.443898 
L 104.134705 8.801035 
L 103.955174 9.071985 
L 104.141746 9.4022 
L 104.35648 9.931774 
L 104.472647 10.2199 
L 104.222711 10.374409 
L 105.28054 10.745184 
L 105.616722 10.874153 
L 106.602386 11.005546 
L 106.764317 11.535328 
L 106.604146 12.135242 
L 106.741435 12.301336 
L 107.260669 12.459436 
L 107.897831 12.604321 
L 108.369541 13.44321 
L 108.95918 13.770317 
L 110.059709 13.993162 
L 110.574965 14.050104 
L 111.382858 14.360551 
L 111.632794 14.375835 
L 112.623739 14.293787 
L 113.628765 14.394337 
L 114.255365 14.582196 
L 114.808861 14.534853 
L 115.235749 14.625244 
L 116.203812 15.023242 
L 120.190473 15.203992 
L 121.586244 15.407734 
L 123.027778 15.918912 
L 123.714222 15.940671 
L 125.449696 15.706589 
L 126.194224 15.789176 
L 127.35062 15.769838 
L 127.722004 16.000713 
L 128.445411 16.017638 
L 130.763482 16.457813 
L 131.02926 16.424751 
L 130.935973 16.754211 
L 130.840927 16.836898 
L 130.77213 17.294304 
L 130.629713 17.481323 
L 130.311133 17.589918 
L 129.313148 17.628676 
L 128.533417 18.20218 
L 128.11803 18.47776 
L 126.299831 19.158194 
L 125.755956 19.835924 
L 125.312407 20.012423 
L 125.539461 20.355808 
L 125.646828 20.752003 
L 125.872123 20.949762 
L 126.076296 21.303248 
L 126.540967 21.257027 
L 126.292791 20.979755 
L 128.100428 21.352715 
L 128.612622 21.677969 
L 130.009495 21.877399 
L 130.077037 22.029315 
L 129.589486 22.60573 
L 127.693842 23.53366 
L 127.304857 23.867043 
L 127.484388 24.06144 
L 127.304857 24.28273 
L 126.956354 24.472335 
L 127.767767 25.086187 
L 128.2782 25.06094 
L 129.409954 24.802818 
L 129.698613 25.102475 
L 129.298228 25.954983 
L 128.786873 26.709161 
L 128.73055 27.249451 
L 128.991047 27.582603 
L 129.466278 27.75086 
L 130.337534 27.854606 
L 131.174469 28.27707 
L 132.353746 28.623688 
L 133.893846 30.243286 
L 134.328595 30.390742 
L 134.198346 30.598039 
L 133.529503 31.139041 
L 132.72513 31.193159 
L 132.052766 30.955392 
L 131.213365 31.003444 
L 131.526582 30.687835 
L 132.854291 30.668476 
L 132.640859 30.625888 
L 132.326256 30.333633 
L 131.681805 30.116923 
L 131.995022 30.024063 
L 131.927112 29.749408 
L 131.460058 29.251247 
L 129.802501 28.1618 
L 128.480336 27.848476 
L 128.193451 28.012523 
L 128.018826 28.360017 
L 128.089507 28.669014 
L 128.542702 28.721811 
L 127.083331 29.202284 
L 126.380671 29.609535 
L 125.93302 29.699773 
L 125.507544 29.577309 
L 125.750079 29.536061 
L 126.326621 29.333718 
L 126.43888 29.202284 
L 126.289201 28.929813 
L 125.592085 28.835144 
L 125.382811 28.604631 
L 125.083453 28.672877 
L 123.278989 28.378039 
L 122.762042 28.063995 
L 121.977613 28.222934 
L 121.640835 28.49519 
L 121.473139 28.442406 
L 121.329003 28.221003 
L 120.979752 28.240309 
L 120.996383 28.537677 
L 121.184868 28.721811 
L 120.805127 28.737265 
L 120.464191 28.873783 
L 120.277092 29.094059 
L 120.369949 29.36078 
L 120.649904 29.481927 
L 120.993611 29.447772 
L 121.640835 29.251247 
L 121.442649 29.478704 
L 120.846704 29.801625 
L 120.539031 30.231076 
L 120.123255 30.314282 
L 118.13585 30.442653 
L 115.358472 31.633054 
L 112.478536 32.544343 
L 110.507762 33.112909 
L 110.36917 33.171144 
L 109.749665 33.271446 
L 109.049777 33.497329 
L 109.565338 32.753876 
L 109.742736 32.658157 
L 109.749665 32.511366 
L 109.864697 32.511366 
L 110.098917 32.707309 
L 110.213948 32.629702 
L 109.981114 32.41244 
L 110.689317 32.511366 
L 110.456483 32.511366 
L 110.456483 32.629702 
L 110.834839 32.598662 
L 111.095391 32.076951 
L 111.641442 31.980658 
L 111.968519 31.64339 
L 111.211808 31.914099 
L 110.755841 31.545205 
L 110.689317 31.319163 
L 109.87024 31.715743 
L 109.587513 32.001337 
L 109.749665 32.294132 
L 109.468324 32.287021 
L 109.175896 32.10862 
L 108.934746 32.195231 
L 108.818329 31.859821 
L 108.603512 32.117668 
L 108.710228 32.261164 
L 109.282611 32.511366 
L 108.761506 32.616122 
L 108.542532 32.566329 
L 108.585495 32.41244 
L 108.029742 32.405975 
L 107.334012 32.659451 
L 106.706191 33.061795 
L 106.365256 33.596372 
L 106.471971 33.596372 
L 106.252996 33.893568 
L 106.294574 34.033458 
L 106.471971 34.15005 
L 106.275171 34.420211 
L 106.239137 34.693693 
L 105.873255 34.807128 
L 106.016005 35.020423 
L 105.61686 35.522415 
L 105.030617 35.49906 
L 104.692454 35.452353 
L 104.600983 35.791684 
L 104.783924 35.936408 
L 104.936375 36.270725 
L 105.138719 36.336304 
L 105.325818 36.259038 
L 105.500443 35.853335 
L 105.424218 35.672936 
L 105.762382 35.765078 
L 105.817818 36.164899 
L 105.891272 36.446046 
L 105.657052 36.576584 
L 106.273785 37.312103 
L 106.59809 37.317303 
L 106.471971 37.217856 
L 107.295206 36.772752 
L 107.137212 37.017045 
L 107.529426 37.704794 
L 107.655545 38.845453 
L 107.483691 38.806388 
L 107.314609 38.630618 
L 107.295206 38.408023 
L 107.126124 38.760164 
L 107.115037 39.044708 
L 107.284119 39.204925 
L 107.655545 39.183431 
L 107.600108 39.122859 
L 107.529426 38.96461 
L 108.074092 39.390577 
L 108.469078 39.947755 
L 108.110125 40.068357 
L 108.342959 40.287439 
L 108.645089 39.842158 
L 108.342959 39.412076 
L 108.589653 39.560627 
L 109.102442 39.77633 
L 109.049777 39.947755 
L 110.341452 40.839934 
L 110.563199 40.724451 
L 110.340066 40.724451 
L 110.340066 40.605067 
L 110.862557 40.661821 
L 111.153599 40.943686 
L 111.138354 41.091177 
L 110.970658 41.264802 
L 111.037182 41.371866 
L 110.689317 41.709457 
L 110.560427 41.723172 
L 110.489745 41.899528 
L 110.360855 42.673927 
L 110.136336 42.938742 
L 109.633248 43.344937 
L 109.608302 43.27232 
L 109.282611 42.796191 
L 109.606916 42.226854 
L 109.526533 42.049783 
L 109.332504 41.987718 
L 108.991569 42.207251 
L 108.731016 42.728846 
L 109.155107 42.852424 
L 109.14402 42.974057 
L 108.818329 43.246152 
L 108.938904 43.265778 
L 109.282611 43.344937 
L 109.149563 43.621721 
L 108.839118 43.774871 
L 108.459377 43.799744 
L 107.040197 42.979289 
L 106.59809 43.344937 
L 106.830924 43.344937 
L 106.380501 44.458457 
L 106.261312 45.097312 
L 106.365256 45.793664 
L 106.743611 46.566019 
L 106.889132 46.675 
L 106.929324 46.853598 
L 106.830924 47.996895 
L 106.89329 48.712482 
L 107.604266 50.975883 
L 107.888379 51.272707 
L 108.02697 51.943206 
L 108.703298 53.005342 
L 109.166194 53.448242 
L 109.861925 53.920451 
L 110.215334 54.360459 
L 111.383662 55.107275 
L 111.841014 55.235111 
L 113.317016 56.494502 
L 114.158268 56.908466 
L 116.077763 57.305345 
L 116.744389 57.68379 
L 117.880841 58.002594 
L 118.194059 58.300237 
L 123.405107 61.48024 
L 125.898372 62.587441 
L 127.320323 62.905154 
L 127.781834 62.618807 
L 127.931513 62.726261 
L 128.018826 62.833059 
L 128.34313 62.955223 
L 128.950162 63.617037 
L 129.575211 63.820811 
L 129.727661 64.03933 
L 129.598771 64.300011 
L 132.380307 69.154937 
L 132.55909 69.88871 
L 132.76282 70.117954 
L 133.308871 70.960076 
L 133.544477 71.547683 
L 133.829976 72.945694 
L 135.17986 76.414843 
L 136.143072 78.07618 
L 137.294769 79.556944 
L 137.405643 79.736079 
L 139.878119 81.883988 
L 140.961906 82.583915 
L 142.719249 83.509696 
L 143.428839 84.367441 
L 145.662937 85.977824 
L 146.269969 86.264549 
L 148.200551 86.819785 
L 148.333599 87.078719 
L 148.545645 88.102768 
L 148.736901 88.346276 
L 149.743077 88.653476 
L 150.350109 89.027159 
L 150.957141 89.234588 
L 153.044332 89.590664 
L 153.277166 89.746826 
L 153.921618 90.292201 
L 154.227905 90.371015 
L 155.253484 90.876932 
L 155.968617 90.985961 
L 157.950479 90.981847 
L 159.973918 91.323403 
L 160.748645 91.337809 
L 163.563443 90.981847 
L 166.340821 91.097059 
L 170.644094 90.711695 
L 172.574677 91.119005 
L 172.922542 91.578612 
L 173.234373 91.567634 
L 173.180323 91.835939 
L 173.45612 92.781362 
L 173.467207 93.295267 
L 173.020942 93.759912 
L 172.355702 94.113338 
L 172.007837 94.195867 
L 170.651024 95.171545 
L 168.910312 95.846354 
L 168.480677 96.276242 
L 168.332384 96.916561 
L 168.416925 97.601401 
L 168.680249 98.170698 
L 169.520115 98.907419 
L 170.551238 99.444903 
L 171.89142 99.856827 
L 172.12564 100.037956 
L 175.316021 101.143334 
L 178.021331 102.253264 
L 179.049682 102.465957 
L 180.297007 103.201341 
L 184.327254 104.235567 
L 184.79708 104.46321 
L 184.79708 104.33689 
L 184.903796 104.33689 
L 185.258591 104.616616 
L 188.185648 105.335335 
L 190.671983 106.374981 
L 192.493078 107.506739 
L 193.363434 108.334528 
L 193.644775 108.404872 
L 194.255965 108.767805 
L 195.590603 109.738046 
L 195.935697 109.809174 
L 196.551044 110.123721 
L 198.201671 110.503942 
L 199.957628 111.05531 
L 201.584695 111.972976 
L 202.912404 112.164423 
L 203.490331 112.379663 
L 203.475086 112.784395 
L 203.669114 112.786492 
L 204.362073 112.719377 
L 204.978806 113.556501 
L 204.880406 114.331218 
L 206.285726 115.232552 
L 208.30085 116.040628 
L 208.844129 116.668971 
L 209.406811 117.036594 
L 210.096998 117.869082 
L 210.551579 118.092395 
L 211.689417 119.315043 
L 212.918726 121.495038 
L 213.032371 121.540115 
L 212.990793 121.863455 
L 213.032371 122.14178 
L 212.253485 123.199301 
L 211.635366 123.561892 
L 211.189101 124.499211 
L 211.049123 125.856368 
L 211.056053 126.060674 
L 210.607016 127.4302 
L 210.515545 127.48541 
L 209.869708 127.367207 
L 208.766518 126.772832 
L 207.840725 126.742414 
L 205.461105 125.488139 
L 204.163887 123.906244 
L 204.431369 123.894246 
L 204.587977 123.775689 
L 204.619854 123.576709 
L 204.330197 123.174615 
L 203.688517 122.958809 
L 204.292777 122.661964 
L 204.429983 122.288367 
L 204.195763 121.865568 
L 202.873598 120.648743 
L 202.829249 120.023913 
L 202.729463 119.791796 
L 202.534048 119.639889 
L 202.757181 119.639889 
L 202.757181 119.5323 
L 201.648447 118.932654 
L 195.623865 118.631891 
L 194.54285 118.214603 
L 193.890083 118.155605 
L 193.482623 117.871188 
L 193.194352 117.814313 
L 192.260244 117.388891 
L 190.838293 116.927839 
L 190.62209 116.683 
L 191.351083 116.321097 
L 191.434238 116.046237 
L 191.087758 115.751815 
L 191.425922 115.650888 
L 192.249157 115.772843 
L 192.598408 115.623555 
L 192.717597 115.337647 
L 192.39052 115.320831 
L 191.669844 115.50582 
L 191.786261 115.377586 
L 191.425922 115.262678 
L 190.308873 115.564686 
L 189.869537 115.098043 
L 188.056757 114.982462 
L 186.805274 115.438548 
L 185.715943 116.255181 
L 183.149225 119.285516 
L 182.626734 120.477023 
L 182.375883 120.599476 
L 181.753606 121.42179 
L 180.818112 122.081177 
L 180.481334 122.488544 
L 180.389864 123.360831 
L 180.938687 124.538753 
L 180.216624 125.343987 
L 179.41695 125.941903 
L 178.556295 127.331112 
L 178.523033 127.857786 
L 178.733693 128.347854 
L 179.184116 128.911817 
L 178.963755 129.34843 
L 179.479316 129.849026 
L 180.823656 130.469027 
L 182.951039 130.561274 
L 183.774273 130.850122 
L 184.332798 131.326479 
L 184.59335 131.736251 
L 185.612 132.136923 
L 186.716576 132.744573 
L 187.408148 132.898132 
L 188.720612 134.009159 
L 189.327643 134.246858 
L 189.915272 134.295969 
L 189.294381 135.483768 
L 189.21677 136.925889 
L 189.693526 137.72073 
L 189.603441 138.278276 
L 189.294381 139.29406 
L 189.333187 139.823708 
L 189.911115 140.709811 
L 190.72742 140.902991 
L 190.148106 141.330238 
L 190.148106 142.116407 
L 189.237559 142.835699 
L 188.983936 143.198365 
L 188.830099 142.845015 
L 188.414324 142.78052 
L 187.586932 143.077226 
L 186.893973 142.526869 
L 186.106772 142.500361 
L 184.463074 142.861498 
L 182.576841 143.554681 
L 179.964387 145.208517 
L 179.782832 145.708318 
L 179.358741 146.298133 
L 179.290831 146.712099 
L 179.533367 146.888219 
L 179.523665 147.203857 
L 179.699677 148.548524 
L 180.008736 149.742558 
L 180.011508 150.197272 
L 179.882618 151.497436 
L 179.74264 151.731214 
L 178.136362 152.931068 
L 177.591697 153.085642 
L 175.970174 153.780728 
L 175.399176 154.202873 
L 173.068063 156.583589 
L 172.768705 157.160239 
L 172.319668 159.049148 
L 171.908051 159.839588 
L 171.496433 160.207749 
L 171.258055 160.336303 
L 170.199215 160.580371 
L 169.197197 160.32904 
L 166.12046 160.469227 
L 165.214071 160.188141 
L 164.490622 159.726328 
L 164.145528 159.343058 
L 163.968131 158.972959 
L 164.023568 158.640684 
L 164.365889 158.376663 
L 163.779646 157.493594 
L 163.837855 157.221831 
L 164.184334 156.585038 
L 164.162159 156.247568 
L 164.016638 155.823318 
L 163.929325 155.212523 
L 164.231455 154.843578 
L 164.805225 154.628769 
L 166.702546 154.052504 
L 166.753825 153.960701 
L 167.051797 153.688221 
L 167.283245 152.889899 
L 168.561061 150.709827 
L 168.782807 149.950799 
L 168.752317 149.356429 
L 168.480677 148.862409 
L 167.858401 148.332592 
L 167.52578 148.161312 
L 167.349769 147.880691 
L 167.534096 147.41025 
L 170.226933 146.261486 
L 171.014134 146.220529 
L 172.498451 146.28951 
L 173.234373 145.857722 
L 173.604413 145.360735 
L 173.845563 144.695276 
L 173.957822 143.946959 
L 173.838633 142.847165 
L 173.666779 142.582038 
L 173.411771 142.415107 
L 172.810283 142.213101 
L 172.560818 141.88294 
L 171.596219 140.098269 
L 170.761891 135.362655 
L 170.103997 133.726321 
L 169.468423 133.048194 
L 169.04336 132.417613 
L 167.926311 131.540225 
L 167.399662 129.992294 
L 166.885487 129.245642 
L 166.415661 127.076352 
L 166.260438 126.902296 
L 166.468326 126.233901 
L 166.340821 125.842937 
L 165.654792 124.928589 
L 165.550848 124.574059 
L 165.297226 124.281756 
L 164.713755 123.798976 
L 164.249472 123.195774 
L 163.790734 122.827652 
L 163.783804 122.604154 
L 163.54404 122.683819 
L 162.262067 122.604154 
L 161.890886 122.779247 
L 161.587488 123.142518 
L 160.982865 123.443368 
L 160.468437 123.956178 
L 160.13631 124.057179 
L 158.996317 123.880626 
L 158.504846 123.36718 
L 158.147279 123.390459 
L 157.601228 123.443368 
L 157.601228 123.324855 
L 157.906129 123.125949 
L 157.638647 122.674654 
L 157.135559 122.2193 
L 156.387164 121.888114 
L 155.073315 120.924673 
L 153.956265 121.026051 
L 153.746992 120.914818 
L 153.540605 120.564239 
L 153.205423 120.311197 
L 151.639012 119.768586 
L 151.566944 119.475346 
L 151.992421 119.009966 
L 152.115767 118.638215 
L 152.000736 118.17808 
L 153.159626 117.572335 
L 153.122732 117.076771 
L 150.793602 113.467655 
L 149.912159 112.680228 
L 149.439561 112.390147 
L 148.932316 112.272737 
L 148.383492 112.442565 
L 147.669745 112.789289 
L 146.566555 112.801873 
L 145.851422 113.285786 
L 145.389911 113.357131 
L 144.149516 113.166887 
L 143.30965 113.323556 
L 142.960399 113.554402 
L 142.181513 113.872065 
L 141.956995 114.09602 
L 141.739406 113.858069 
L 141.707529 113.497736 
L 141.87384 113.171083 
L 143.015884 112.627798 
L 143.687079 112.1133 
L 144.234749 111.956787 
L 144.292265 111.675388 
L 144.196637 111.363213 
L 143.660287 110.927564 
L 143.296736 110.998625 
L 142.637055 110.632658 
L 142.365504 110.496962 
L 141.441433 109.675291 
L 141.132374 109.492621 
L 140.352102 109.510747 
L 139.930784 109.61951 
L 139.745071 109.801503 
L 139.587076 110.136276 
L 139.225046 110.141366 
L 138.942238 109.88709 
L 138.425144 109.839068 
L 137.75628 109.577677 
L 137.527603 109.620905 
L 137.419502 109.776399 
L 137.527603 110.439749 
L 137.404165 110.392374 
L 136.822918 110.217379 
L 137.012042 109.512839 
L 136.879346 108.885691 
L 136.48559 108.070455 
L 135.531883 106.794999 
L 134.725279 106.329094 
L 134.63658 105.803615 
L 134.600546 105.629203 
L 133.596961 104.218376 
L 132.554131 103.220299 
L 131.157928 102.359259 
L 130.388744 102.45695 
L 130.273713 102.305221 
L 129.214872 102.415378 
L 128.690995 102.673147 
L 128.891953 103.182621 
L 128.193451 103.182621 
L 127.727783 102.94969 
L 127.601664 102.94969 
L 127.27043 102.65305 
L 124.616399 101.705433 
L 123.959474 101.6902 
L 122.276971 101.991435 
L 121.667167 102.294829 
L 121.042119 102.453486 
L 120.633273 102.867899 
L 120.253532 102.94969 
L 119.851616 102.851264 
L 118.742882 101.090046 
L 117.279353 99.928722 
L 116.393752 99.60454 
L 114.809649 99.514008 
L 113.199213 98.802439 
L 112.880452 99.1105 
L 112.610198 98.912945 
L 111.353172 97.471022 
L 109.691457 96.003409 
L 107.63337 94.639563 
L 106.132422 94.218563 
L 105.867711 93.975117 
L 105.668139 93.352306 
L 105.573897 92.680395 
L 104.959936 91.79888 
L 104.573265 91.396118 
L 102.569229 90.227098 
L 102.408462 89.88657 
L 101.758467 89.774225 
L 101.255379 89.394807 
L 100.645575 89.131895 
L 99.123838 89.194879 
L 98.816165 88.653476 
L 97.68387 87.209235 
L 97.568839 86.930456 
L 96.241131 85.077185 
L 94.212148 83.912935 
L 93.363967 83.73718 
L 91.07166 82.936434 
L 91.197778 83.05079 
L 90.703006 83.047386 
L 89.214531 82.683943 
L 88.629674 82.741105 
L 88.511871 82.873816 
L 88.453662 83.13316 
L 88.204197 83.403463 
L 88.16262 83.621389 
L 87.836929 83.570309 
L 87.548658 83.535575 
L 87.322754 83.321752 
L 86.847384 83.203283 
L 86.50922 82.749952 
L 86.512271 82.564411 
L 86.71988 82.340351 
L 86.95642 82.281823 
L 87.446792 82.408229 
L 87.827846 82.390993 
L 88.09183 82.112328 
L 88.240942 81.715098 
L 88.213898 81.037754 
L 87.562517 80.330699 
L 87.222968 80.416254 
L 86.858471 79.87045 
L 86.690775 79.601725 
L 86.409434 79.504702 
L 86.356769 79.179097 
L 85.94238 78.932247 
L 85.128847 78.584449 
L 84.711686 77.778787 
L 84.560621 77.716474 
L 84.071392 77.334548 
L 83.173318 76.986603 
L 80.455534 76.312704 
L 80.865766 76.06788 
L 81.027918 75.800128 
L 81.192842 74.920277 
L 81.245507 74.812881 
L 81.004357 74.42189 
L 80.786768 74.305769 
L 79.605967 73.911595 
L 78.773031 73.755047 
L 77.934551 73.734805 
L 77.181998 73.910245 
L 77.309502 74.148486 
L 76.832747 74.305769 
L 76.508442 74.053318 
L 76.134244 73.231593 
L 76.562493 72.974685 
L 76.8078 72.670658 
L 77.181998 71.751708 
L 77.123789 71.202347 
L 77.169525 70.348594 
L 76.805028 68.655306 
L 75.444058 66.64784 
L 74.117735 65.385571 
L 73.55921 65.194861 
L 73.403988 64.935955 
L 73.021474 63.68852 
L 72.497598 59.741888 
L 72.286938 59.133186 
L 71.580121 57.930854 
L 71.078419 57.359115 
L 70.325866 56.976813 
L 69.544208 56.215971 
L 69.228219 56.148339 
L 68.253919 55.78109 
L 67.806268 55.655833 
L 67.536014 55.884489 
L 67.21171 55.836765 
L 66.093274 55.11456 
L 65.903404 55.198679 
L 65.357352 54.860259 
L 65.045521 54.882773 
L 65.161938 55.003295 
L 65.082941 55.03111 
L 64.929104 55.11456 
L 65.245093 55.411328 
L 65.404474 55.549144 
L 65.161938 55.78109 
L 65.385071 55.875209 
L 65.319933 55.958731 
L 65.145307 55.94017 
L 64.933262 55.596854 
L 64.115571 55.335803 
L 62.424752 54.336634 
L 61.548852 54.215532 
L 60.448434 53.372208 
L 59.469976 53.019882 
L 59.018167 52.727806 
L 58.40975 52.733092 
L 58.164442 52.452331 
L 57.349523 52.208631 
L 57.233106 51.841546 
L 54.899221 50.880259 
L 54.610951 51.208717 
L 54.559672 51.664655 
L 53.468955 51.287881 
L 53.502217 51.101857 
L 53.186228 50.723984 
L 52.709472 50.551913 
L 50.169086 50.133401 
L 49.516319 49.985812 
L 48.33829 49.912026 
L 48.025072 49.669626 
L 46.49502 49.664357 
L 45.790974 50.021389 
L 45.366883 50.215771 
L 45.098015 50.21643 
L 43.761991 50.769479 
L 43.559647 50.824208 
L 43.142486 51.101857 
L 41.87853 51.681815 
L 41.511262 52.012527 
L 41.59996 52.329483 
L 40.864038 53.130259 
L 40.893143 53.47998 
L 40.660308 53.661171 
L 38.309793 54.539166 
L 37.857984 55.060251 
L 37.857984 55.448431 
L 37.62515 55.892444 
L 36.821318 56.521033 
L 36.541363 56.903157 
L 36.801915 57.3392 
L 36.405543 57.40293 
L 35.903841 57.809307 
L 35.226127 58.10357 
L 35.094465 58.315521 
L 33.255353 59.031439 
L 30.293648 59.536284 
L 29.455168 59.924238 
L 28.746964 60.03939 
L 26.652844 60.037393 
L 25.955727 60.149228 
L 25.645282 60.02408 
L 25.465113 60.022748 
L 25.049227 58.824497 
L 25.315004 58.485975 
L 27.787965 56.546987 
L 28.037902 55.982749 
L 28.660982 55.532433 
L 28.626817 55.150439 
L 28.426887 54.854406 
L 28.050222 54.594592 
L 27.842529 54.291984 
L 28.076624 53.763485 
L 27.55035 53.697968 
L 26.849824 54.012995 
L 26.358752 54.039882 
L 23.396479 54.62738 
L 22.548104 54.589548 
L 21.954945 54.168446 
L 21.191055 54.023918 
L 18.696972 53.085849 
L 17.480733 52.677145 
L 16.618277 52.696443 
L 16.380661 52.429656 
L 16.216971 52.118497 
L 15.273549 51.264375 
L 14.67687 50.402638 
L 14.939127 49.757469 
L 15.511165 49.542509 
L 14.548382 48.917976 
L 14.166437 48.46509 
L 14.113633 47.96232 
L 14.294925 47.745259 
L 15.162662 47.293763 
L 15.984635 46.486445 
L 15.792783 46.143875 
L 15.914231 45.816425 
L 16.227531 45.555712 
L 16.931577 45.409145 
L 17.850357 45.528229 
L 17.751791 45.318384 
L 17.169193 44.521066 
L 17.010782 43.411934 
L 16.994941 43.22499 
L 16.618277 42.919314 
L 15.468922 42.666873 
L 14.307246 42.724995 
L 12.575293 41.942316 
L 12.277834 41.606371 
L 12.311276 40.708623 
L 12.202149 40.248894 
L 11.75508 40.031947 
L 10.978869 39.892035 
L 10.728933 39.511316 
L 10.721892 39.27055 
L 10.444674 39.110902 
L 10.145455 38.806571 
L 10.655888 38.453573 
L 11.397776 38.209777 
L 11.987415 38.146152 
L 12.422163 37.944567 
L 13.018842 38.011482 
L 14.256203 38.380014 
L 14.844081 38.103188 
L 14.666309 37.942915 
L 14.889844 37.767802 
L 15.44252 37.739721 
L 15.692456 37.58942 
L 16.20817 37.106476 
L 17.417369 36.812705 
L 17.970045 36.967005 
L 18.293906 36.575117 
L 18.756816 36.317798 
L 18.756816 36.067147 
L 18.573764 35.747337 
L 18.575524 35.191232 
L 19.478463 34.340839 
L 19.647434 33.899901 
L 19.515426 33.833286 
L 18.559683 33.510146 
L 18.137256 32.95951 
L 16.489788 32.075904 
L 16.329618 31.301405 
L 16.109604 30.986544 
L 16.287375 30.249839 
L 16.077922 30.154005 
L 15.298191 29.949266 
L 14.683911 29.643064 
L 14.238602 29.584128 
L 13.779212 29.360697 
L 13.435989 29.02361 
L 13.198374 28.085016 
L 13.30222 27.543403 
L 13.518715 27.310683 
L 14.243373 27.118137 
L 14.708411 27.28195 
L 14.72607 27.210961 
L 14.756075 27.02089 
L 16.042719 26.815234 
L 16.618277 26.373889 
L 16.862933 25.971077 
L 17.28712 25.750994 
L 17.28712 25.750994 
" clip-path="url(#ped0583b17b)" style="fill: none; stroke: #000000; stroke-width: 0.5; stroke-linecap: square"/>
   </g>
  </g>
 </g>
 <defs>
  <clipPath id="ped0583b17b">
   <rect x="0" y="0" width="223.2" height="168.227055"/>
  </clipPath>
 </defs>
</svg>
