<?xml version="1.0" encoding="utf-8" standalone="no"?>
<!DOCTYPE svg PUBLIC "-//W3C//DTD SVG 1.1//EN"
  "http://www.w3.org/Graphics/SVG/1.1/DTD/svg11.dtd">
<svg xmlns:xlink="http://www.w3.org/1999/xlink" width="223.2pt" height="105.560987pt" viewBox="0 0 223.2 105.560987" xmlns="http://www.w3.org/2000/svg" version="1.1">
 <metadata>
  <rdf:RDF xmlns:dc="http://purl.org/dc/elements/1.1/" xmlns:cc="http://creativecommons.org/ns#" xmlns:rdf="http://www.w3.org/1999/02/22-rdf-syntax-ns#">
   <cc:Work>
    <dc:type rdf:resource="http://purl.org/dc/dcmitype/StillImage"/>
    <dc:date>2026-04-26T19:22:20.378861</dc:date>
    <dc:format>image/svg+xml</dc:format>
    <dc:creator>
     <cc:Agent>
      <dc:title>Matplotlib v3.10.9, https://matplotlib.org/</dc:title>
     </cc:Agent>
    </dc:creator>
   </cc:Work>
  </rdf:RDF>
 </metadata>
 <defs>
  <style type="text/css">*{stroke-linejoin: round; stroke-linecap: butt}</style>
 </defs>
 <g id="figure_1">
  <g id="patch_1">
   <path d="M 0 105.560987 
L 223.2 105.560987 
L 223.2 0 
L 0 0 
z
" style="fill: #ffffff"/>
  </g>
  <g id="axes_1">
   <g id="patch_2">
    <path d="M 206.024089 64.613543 
L 206.669743 66.486576 
L 207.413567 68.645049 
L 208.78039 71.440933 
L 210.524789 73.65698 
L 213.054545 75.935089 
L 212.087952 76.876843 
L 207.292743 78.332362 
L 203.913442 80.5634 
L 201.976479 81.238942 
L 200.322698 80.725148 
L 200.968353 80.163794 
L 201.22888 79.764195 
L 201.591352 78.332362 
L 199.914917 79.069673 
L 198.427269 81.733719 
L 196.811246 82.323659 
L 195.372683 81.828869 
L 193.700024 80.901168 
L 191.997158 80.373111 
L 189.210651 81.629053 
L 181.915891 82.390267 
L 176.769537 81.448269 
L 176.021937 81.486329 
L 175.323423 81.648083 
L 174.564496 81.529146 
L 173.601678 80.725148 
L 173.182569 79.669054 
L 172.993781 78.318092 
L 172.714376 77.157474 
L 171.989431 76.662804 
L 171.241831 76.386935 
L 170.743431 75.730572 
L 170.312995 74.950573 
L 169.73908 74.337058 
L 166.952573 73.533331 
L 166.257834 73.067279 
L 164.830598 72.372976 
L 162.904963 72.510883 
L 159.544541 73.466752 
L 158.109754 73.676002 
L 153.269236 73.466752 
L 153.269236 72.667814 
L 163.463775 71.944992 
L 162.821897 71.203173 
L 162.353703 70.661091 
L 161.13791 70.328241 
L 158.336299 70.280691 
L 156.433563 70.331345 
L 154.494927 68.946257 
L 152.845707 67.65093 
L 151.626558 66.959477 
L 151.338771 68.16391 
L 150.90341 69.399045 
L 149.751629 70.958884 
L 149.396076 71.85882 
L 148.175687 71.682696 
L 147.815542 72.542111 
L 147.453049 75.209419 
L 145.793541 82.269697 
L 144.562344 84.369549 
L 143.074696 85.511526 
L 141.851352 85.525801 
L 141.04334 85.083277 
L 140.29574 84.474228 
L 139.276286 83.988903 
L 134.148811 83.988903 
L 134.148811 83.12296 
L 136.108428 82.323659 
L 135.107853 81.272244 
L 133.854302 79.24568 
L 132.880157 78.332362 
L 131.74743 77.804368 
L 129.074196 77.452379 
L 126.652077 78.468155 
L 124.560275 79.949297 
L 123.035961 83.604171 
L 122.67429 84.669312 
L 123.376581 87.909877 
L 122.700721 88.233484 
L 121.522685 89.094876 
L 120.843049 89.437538 
L 121.084697 90.051489 
L 121.247055 91.236606 
L 121.4736 91.979123 
L 120.480577 91.436512 
L 119.483777 91.379396 
L 118.517184 91.793491 
L 117.618554 92.697866 
L 119.24968 93.90693 
L 120.971425 94.363918 
L 122.776236 94.183026 
L 124.645235 93.497554 
L 125.585398 97.896376 
L 125.302216 99.915185 
L 123.032987 100.76276 
L 121.0998 100.648478 
L 119.370504 100.177072 
L 117.656312 99.181916 
L 109.59885 90.508394 
L 107.929966 87.98126 
L 100.993903 83.127718 
L 98.943668 82.218991 
L 96.78016 81.876445 
L 95.069743 82.723306 
L 93.10635 84.321968 
L 91.139182 84.531325 
L 87.087796 83.12296 
L 83.10815 82.304629 
L 70.534885 83.170539 
L 69.900558 83.027804 
L 67.967371 81.448269 
L 64.701343 79.502558 
L 63.882004 78.731934 
L 63.477998 77.847178 
L 62.515181 74.850698 
L 62.322617 73.904278 
L 61.971472 73.162391 
L 60.31014 72.449063 
L 59.789085 71.944992 
L 59.653158 69.491383 
L 59.819291 66.543626 
L 59.241601 64.066876 
L 56.881754 63.025873 
L 50.447867 62.959326 
L 48.967771 62.298627 
L 46.770281 56.191703 
L 46.037785 54.918265 
L 45.2411 54.257818 
L 44.31604 53.692416 
L 43.575992 53.459607 
L 43.002077 52.846717 
L 42.556538 51.43571 
L 41.990175 48.670984 
L 40.245776 44.439096 
L 37.935014 42.886194 
L 31.104672 43.090392 
L 26.932463 42.245122 
L 25.407058 42.226128 
L 24.534858 43.185368 
L 23.82124 43.655508 
L 23.194465 43.498793 
L 20.910133 42.397078 
L 20.679812 42.226128 
L 19.380952 41.974453 
L 16.526481 40.877566 
L 14.925561 40.635405 
L 13.294434 40.151089 
L 11.716169 38.883376 
L 10.553236 37.088767 
L 10.145455 35.052217 
L 10.658957 34.083858 
L 12.033332 32.920937 
L 12.682762 31.943185 
L 12.954616 30.4102 
L 12.822465 26.893781 
L 12.999925 25.897334 
L 13.705992 24.516623 
L 13.785283 23.638899 
L 14.109998 23.178702 
L 15.552336 23.036375 
L 16.458517 22.3295 
L 17.19479 20.963258 
L 18.150056 20.033507 
L 19.705667 20.650174 
L 20.664709 17.348849 
L 23.511628 14.218771 
L 26.81919 12.909971 
L 29.205467 15.081866 
L 30.583618 13.137583 
L 32.056163 13.099647 
L 33.777907 13.858369 
L 35.888554 14.356295 
L 41.892005 13.474263 
L 43.893156 13.488489 
L 44.897506 13.934243 
L 45.6149 14.247224 
L 46.641905 14.555469 
L 47.699117 14.356295 
L 48.63928 13.559619 
L 48.729898 12.796167 
L 48.703468 11.904718 
L 49.277383 10.700376 
L 51.380478 7.485982 
L 52.335744 6.41937 
L 53.974422 5.532939 
L 57.727523 4.798227 
L 61.979024 4.992567 
L 69.451243 6.940818 
L 76.039936 8.66169 
L 85.067767 8.865549 
L 89.054965 10.027113 
L 95.485076 10.596066 
L 97.909111 11.30728 
L 99.819643 12.691846 
L 102.764733 11.781436 
L 107.518408 11.795661 
L 112.408012 12.454756 
L 115.775985 13.488489 
L 116.191318 14.010116 
L 116.534912 15.451775 
L 116.984227 15.94974 
L 117.527936 15.954483 
L 118.030111 15.66993 
L 118.32462 15.300017 
L 118.252881 15.081866 
L 122.39866 15.94974 
L 122.912163 16.319665 
L 124.475326 17.965435 
L 124.958622 18.335396 
L 127.986778 18.458718 
L 131.177291 17.818401 
L 132.880157 17.472164 
L 133.990229 17.804172 
L 135.927192 18.895093 
L 137.025936 19.132258 
L 142.515885 18.852404 
L 143.586254 18.175303 
L 145.096628 17.953776 
L 146.323364 18.069183 
L 147.455377 18.296968 
L 148.113492 19.310994 
L 147.826849 20.547378 
L 147.823834 22.121973 
L 148.859895 23.249614 
L 152.160744 25.73583 
L 155.079679 27.769234 
L 155.555881 28.900643 
L 156.418216 31.96217 
L 156.969476 32.973148 
L 157.856778 33.623428 
L 159.544541 34.18354 
L 164.347302 34.629741 
L 165.940671 35.052217 
L 167.303718 35.920931 
L 169.070772 38.057267 
L 170.430044 39.111273 
L 172.004534 39.700021 
L 175.085475 39.465131 
L 176.698964 40.832531 
L 177.215076 40.991526 
L 177.679494 41.523345 
L 178.249633 42.007693 
L 179.016111 42.226128 
L 185.98238 42.226128 
L 186.469452 42.577527 
L 187.198173 44.249133 
L 187.534215 44.762039 
L 194.364557 46.300831 
L 197.913767 47.839738 
L 198.366857 50.26707 
L 201.002334 53.293317 
L 203.048794 56.809443 
z
" clip-path="url(#pf9c69689b7)" style="stroke: #000000; stroke-linejoin: miter"/>
   </g>
   <g id="line2d_1">
    <path d="M 206.024089 64.613543 
L 207.413567 68.645049 
L 208.78039 71.440933 
L 210.524789 73.65698 
L 213.054545 75.935089 
L 212.087952 76.876843 
L 207.292743 78.332362 
L 203.913442 80.5634 
L 201.976479 81.238942 
L 200.322698 80.725148 
L 200.968353 80.163794 
L 201.22888 79.764195 
L 201.591352 78.332362 
L 199.914917 79.069673 
L 198.427269 81.733719 
L 196.811246 82.323659 
L 195.372683 81.828869 
L 193.700024 80.901168 
L 191.997158 80.373111 
L 189.210651 81.629053 
L 181.915891 82.390267 
L 176.769537 81.448269 
L 176.021937 81.486329 
L 175.323423 81.648083 
L 174.564496 81.529146 
L 173.601678 80.725148 
L 173.182569 79.669054 
L 172.993781 78.318092 
L 172.714376 77.157474 
L 171.989431 76.662804 
L 171.241831 76.386935 
L 170.743431 75.730572 
L 170.312995 74.950573 
L 169.73908 74.337058 
L 166.952573 73.533331 
L 166.257834 73.067279 
L 164.830598 72.372976 
L 162.904963 72.510883 
L 159.544541 73.466752 
L 158.109754 73.676002 
L 153.269236 73.466752 
L 153.269236 72.667814 
L 163.463775 71.944992 
L 162.353703 70.661091 
L 161.13791 70.328241 
L 156.433563 70.331345 
L 151.626558 66.959477 
L 151.338771 68.16391 
L 150.90341 69.399045 
L 149.751629 70.958884 
L 149.396076 71.85882 
L 148.175687 71.682696 
L 147.815542 72.542111 
L 147.453049 75.209419 
L 145.793541 82.269697 
L 144.562344 84.369549 
L 143.074696 85.511526 
L 141.851352 85.525801 
L 141.04334 85.083277 
L 140.29574 84.474228 
L 139.276286 83.988903 
L 134.148811 83.988903 
L 134.148811 83.12296 
L 136.108428 82.323659 
L 135.107853 81.272244 
L 133.854302 79.24568 
L 132.880157 78.332362 
L 131.74743 77.804368 
L 129.074196 77.452379 
L 126.652077 78.468155 
L 124.560275 79.949297 
L 122.67429 84.669312 
L 123.376581 87.909877 
L 122.700721 88.233484 
L 121.522685 89.094876 
L 120.843049 89.437538 
L 121.084697 90.051489 
L 121.247055 91.236606 
L 121.4736 91.979123 
L 120.480577 91.436512 
L 119.483777 91.379396 
L 118.517184 91.793491 
L 117.618554 92.697866 
L 119.24968 93.90693 
L 120.971425 94.363918 
L 122.776236 94.183026 
L 124.645235 93.497554 
L 125.585398 97.896376 
L 125.302216 99.915185 
L 123.032987 100.76276 
L 121.0998 100.648478 
L 119.370504 100.177072 
L 117.656312 99.181916 
L 109.59885 90.508394 
L 107.929966 87.98126 
L 100.993903 83.127718 
L 98.943668 82.218991 
L 96.78016 81.876445 
L 95.069743 82.723306 
L 93.10635 84.321968 
L 91.139182 84.531325 
L 87.087796 83.12296 
L 83.10815 82.304629 
L 70.534885 83.170539 
L 69.900558 83.027804 
L 67.967371 81.448269 
L 64.701343 79.502558 
L 63.882004 78.731934 
L 63.477998 77.847178 
L 61.971472 73.162391 
L 60.31014 72.449063 
L 59.789085 71.944992 
L 59.653158 69.491383 
L 59.819291 66.543626 
L 59.241601 64.066876 
L 56.881754 63.025873 
L 50.447867 62.959326 
L 48.967771 62.298627 
L 46.770281 56.191703 
L 46.037785 54.918265 
L 45.2411 54.257818 
L 44.31604 53.692416 
L 43.575992 53.459607 
L 43.002077 52.846717 
L 42.556538 51.43571 
L 41.990175 48.670984 
L 40.245776 44.439096 
L 37.935014 42.886194 
L 31.104672 43.090392 
L 26.932463 42.245122 
L 25.407058 42.226128 
L 24.534858 43.185368 
L 23.82124 43.655508 
L 23.194465 43.498793 
L 20.679812 42.226128 
L 19.380952 41.974453 
L 16.526481 40.877566 
L 14.925561 40.635405 
L 13.294434 40.151089 
L 11.716169 38.883376 
L 10.553236 37.088767 
L 10.145455 35.052217 
L 10.658957 34.083858 
L 12.033332 32.920937 
L 12.682762 31.943185 
L 12.954616 30.4102 
L 12.822465 26.893781 
L 12.999925 25.897334 
L 13.705992 24.516623 
L 13.785283 23.638899 
L 14.109998 23.178702 
L 15.552336 23.036375 
L 16.458517 22.3295 
L 17.19479 20.963258 
L 18.150056 20.033507 
L 19.705667 20.650174 
L 20.664709 17.348849 
L 23.511628 14.218771 
L 26.81919 12.909971 
L 29.205467 15.081866 
L 30.583618 13.137583 
L 32.056163 13.099647 
L 33.777907 13.858369 
L 35.888554 14.356295 
L 41.892005 13.474263 
L 43.893156 13.488489 
L 45.6149 14.247224 
L 46.641905 14.555469 
L 47.699117 14.356295 
L 48.63928 13.559619 
L 48.729898 12.796167 
L 48.703468 11.904718 
L 49.277383 10.700376 
L 51.380478 7.485982 
L 52.335744 6.41937 
L 53.974422 5.532939 
L 57.727523 4.798227 
L 61.979024 4.992567 
L 76.039936 8.66169 
L 85.067767 8.865549 
L 89.054965 10.027113 
L 95.485076 10.596066 
L 97.909111 11.30728 
L 99.819643 12.691846 
L 102.764733 11.781436 
L 107.518408 11.795661 
L 112.408012 12.454756 
L 115.775985 13.488489 
L 116.191318 14.010116 
L 116.534912 15.451775 
L 116.984227 15.94974 
L 117.527936 15.954483 
L 118.030111 15.66993 
L 118.32462 15.300017 
L 118.252881 15.081866 
L 122.39866 15.94974 
L 122.912163 16.319665 
L 124.958622 18.335396 
L 127.986778 18.458718 
L 132.880157 17.472164 
L 133.990229 17.804172 
L 135.927192 18.895093 
L 137.025936 19.132258 
L 142.515885 18.852404 
L 143.586254 18.175303 
L 145.096628 17.953776 
L 146.323364 18.069183 
L 147.455377 18.296968 
L 148.113492 19.310994 
L 147.826849 20.547378 
L 147.823834 22.121973 
L 148.859895 23.249614 
L 152.160744 25.73583 
L 155.079679 27.769234 
L 155.555881 28.900643 
L 156.418216 31.96217 
L 156.969476 32.973148 
L 157.856778 33.623428 
L 159.544541 34.18354 
L 164.347302 34.629741 
L 165.940671 35.052217 
L 167.303718 35.920931 
L 169.070772 38.057267 
L 170.430044 39.111273 
L 172.004534 39.700021 
L 175.085475 39.465131 
L 176.698964 40.832531 
L 177.215076 40.991526 
L 178.249633 42.007693 
L 179.016111 42.226128 
L 185.98238 42.226128 
L 186.469452 42.577527 
L 187.534215 44.762039 
L 194.364557 46.300831 
L 197.913767 47.839738 
L 198.366857 50.26707 
L 201.002334 53.293317 
L 203.048794 56.809443 
L 206.024089 64.613543 
L 206.024089 64.613543 
" clip-path="url(#pf9c69689b7)" style="fill: none; stroke: #000000; stroke-width: 0.5; stroke-linecap: square"/>
   </g>
  </g>
 </g>
 <defs>
  <clipPath id="pf9c69689b7">
   <rect x="0" y="0" width="223.2" height="105.560987"/>
  </clipPath>
 </defs>
</svg>
