<?xml version="1.0" encoding="utf-8" standalone="no"?>
<!DOCTYPE svg PUBLIC "-//W3C//DTD SVG 1.1//EN"
  "http://www.w3.org/Graphics/SVG/1.1/DTD/svg11.dtd">
<svg xmlns:xlink="http://www.w3.org/1999/xlink" width="203.110235pt" height="221.76pt" viewBox="0 0 203.110235 221.76" xmlns="http://www.w3.org/2000/svg" version="1.1">
 <metadata>
  <rdf:RDF xmlns:dc="http://purl.org/dc/elements/1.1/" xmlns:cc="http://creativecommons.org/ns#" xmlns:rdf="http://www.w3.org/1999/02/22-rdf-syntax-ns#">
   <cc:Work>
    <dc:type rdf:resource="http://purl.org/dc/dcmitype/StillImage"/>
    <dc:date>2026-04-26T19:22:09.325300</dc:date>
    <dc:format>image/svg+xml</dc:format>
    <dc:creator>
     <cc:Agent>
      <dc:title>Matplotlib v3.10.9, https://matplotlib.org/</dc:title>
     </cc:Agent>
    </dc:creator>
   </cc:Work>
  </rdf:RDF>
 </metadata>
 <defs>
  <style type="text/css">*{stroke-linejoin: round; stroke-linecap: butt}</style>
 </defs>
 <g id="figure_1">
  <g id="patch_1">
   <path d="M 0 221.76 
L 203.110235 221.76 
L 203.110235 0 
L 0 0 
z
" style="fill: #ffffff"/>
  </g>
  <g id="axes_1">
   <g id="patch_2">
    <path d="M 37.396024 42.722353 
L 37.420515 42.739701 
L 38.426571 42.853324 
L 38.606455 42.765155 
L 39.10772 42.519471 
L 40.518358 41.329104 
L 42.856237 39.937895 
L 43.59012 39.760039 
L 43.596746 39.756937 
L 43.86258 39.632478 
L 44.113067 39.580964 
L 44.332792 39.617759 
L 44.512967 39.749 
L 44.508573 39.760039 
L 44.899684 40.228613 
L 49.469974 41.232171 
L 49.874269 41.455488 
L 50.608152 42.158645 
L 50.819088 42.224917 
L 51.368402 42.218781 
L 51.530999 42.301008 
L 51.596917 42.61766 
L 51.539788 42.925744 
L 51.403558 43.119688 
L 51.245356 43.097592 
L 51.632073 43.551797 
L 52.005606 43.884502 
L 52.449451 44.030605 
L 53.064683 43.923789 
L 54.057842 43.996227 
L 54.255595 44.53648 
L 54.128154 45.345757 
L 54.158916 46.238716 
L 54.558816 47.034796 
L 56.474822 49.789031 
L 56.712126 50.343529 
L 56.720915 50.547642 
L 56.874722 50.582072 
L 57.386458 50.597794 
L 57.995322 50.616501 
L 59.568557 50.414845 
L 59.836622 50.441896 
L 60.276073 50.604205 
L 60.530954 50.648472 
L 60.741891 50.55256 
L 61.225287 50.138197 
L 61.445012 50.071804 
L 61.906436 50.311561 
L 63.290706 51.629845 
L 66.03288 53.422217 
L 69.768213 56.781357 
L 70.396628 57.119998 
L 71.23598 57.362605 
L 73.630987 57.592909 
L 74.320925 58.003052 
L 75.873006 58.183085 
L 81.690518 58.857948 
L 83.224202 59.964386 
L 83.962479 59.550364 
L 84.885326 59.576239 
L 87.601133 60.256443 
L 88.198786 60.279858 
L 88.743706 60.10117 
L 95.577168 55.656023 
L 102.085437 51.632304 
L 102.094226 51.629845 
L 106.800745 48.78349 
L 114.078053 44.374397 
L 117.453725 42.334968 
L 121.368544 39.971014 
L 128.654641 35.573347 
L 135.940738 31.174061 
L 141.354774 27.905699 
L 148.759522 23.554634 
L 152.368013 21.432816 
L 161.459655 16.091589 
L 171.874642 10.08 
L 173.852172 16.810094 
L 175.618765 22.872854 
L 177.090925 27.905699 
L 179.028904 34.633588 
L 181.037195 41.597828 
L 183.893626 51.533911 
L 180.610927 52.511792 
L 180.553799 52.529015 
L 180.536221 52.56346 
L 180.553799 52.622509 
L 180.610927 52.700013 
L 182.685136 59.550364 
L 183.001541 60.26507 
L 183.432203 60.496758 
L 191.487338 58.381206 
L 192.361846 58.866572 
L 192.990261 60.331618 
L 193.877952 63.54928 
L 192.792508 65.060294 
L 187.677299 69.217315 
L 187.686088 69.585315 
L 187.255426 69.718691 
L 186.429258 70.313995 
L 181.379967 74.903712 
L 179.907806 75.499708 
L 179.907806 75.507128 
L 179.903411 75.504655 
L 175.073845 76.847792 
L 165.511393 79.503095 
L 155.957729 82.162444 
L 146.399671 84.820886 
L 138.369768 87.054474 
L 136.837218 87.480892 
L 128.798197 89.801686 
L 126.303579 90.522102 
L 115.769939 93.567832 
L 105.2363 96.613112 
L 96.33455 99.188193 
L 94.702661 99.66042 
L 100.235348 105.482269 
L 105.768036 111.313961 
L 105.850855 111.401237 
L 111.300723 117.14799 
L 116.833411 122.994309 
L 116.965246 123.146745 
L 117.101476 123.301685 
L 117.233311 123.456631 
L 117.369541 123.611581 
L 122.032115 128.995526 
L 126.699084 134.383098 
L 131.370448 139.77427 
L 136.033023 145.174033 
L 138.137993 147.612438 
L 138.151176 147.645092 
L 138.133598 147.665187 
L 138.094048 147.680258 
L 137.808405 147.853583 
L 134.697092 149.577116 
L 129.55991 152.430084 
L 124.941281 155.00045 
L 123.956911 155.815605 
L 123.403202 156.696328 
L 122.155162 159.719675 
L 120.625872 163.412659 
L 119.219629 166.810847 
L 117.32999 171.405153 
L 116.415932 172.21799 
L 111.406191 173.255688 
L 105.715301 174.437565 
L 99.646484 175.700564 
L 93.529326 176.973993 
L 89.745654 177.757415 
L 86.05866 178.525794 
L 84.889721 179.112268 
L 83.874589 180.207036 
L 81.523526 184.208897 
L 79.56797 187.536519 
L 76.91808 192.049854 
L 74.18909 196.70168 
L 70.910786 199.437206 
L 65.966963 203.567385 
L 61.471379 207.328458 
L 56.857144 211.183876 
L 55.767306 211.634202 
L 54.602761 211.68 
L 50.181884 210.905304 
L 45.282006 210.04933 
L 42.859469 209.623321 
L 37.833313 208.739571 
L 31.522797 207.638615 
L 25.612182 206.60144 
L 18.998445 205.445035 
L 13.949153 204.55821 
L 9.232283 203.722941 
L 9.78622 203.325639 
L 10.0665 198.851228 
L 10.367541 197.564413 
L 11.291426 195.554917 
L 11.249903 194.774104 
L 10.367541 193.877617 
L 9.78622 193.877617 
L 9.751618 193.717903 
L 9.751618 193.586143 
L 9.692794 193.516272 
L 9.49556 193.542224 
L 9.67769 192.207001 
L 9.980911 191.132419 
L 10.547803 190.206283 
L 10.952098 188.982676 
L 11.176218 186.22875 
L 11.492623 185.007376 
L 13.465757 179.660886 
L 13.645932 178.66735 
L 13.685483 175.695512 
L 13.997493 174.035998 
L 14.164484 173.614262 
L 14.375421 173.235487 
L 14.533623 172.80372 
L 14.55999 172.215466 
L 15.052175 170.289612 
L 16.871502 167.569962 
L 17.56144 165.928302 
L 17.56144 164.390531 
L 16.691327 161.407118 
L 16.708905 160.014306 
L 17.012127 159.175787 
L 17.412027 156.638447 
L 17.666908 156.02948 
L 17.952552 155.528776 
L 18.185461 155.005481 
L 18.277745 154.328804 
L 18.159093 153.637132 
L 17.548257 152.651354 
L 17.33732 152.150998 
L 17.33732 150.982024 
L 18.075598 149.004212 
L 18.277745 147.846047 
L 20.11465 141.898823 
L 22.601943 136.916266 
L 22.604522 136.907186 
L 22.931531 135.756003 
L 23.124889 134.530892 
L 23.269908 133.98483 
L 23.551157 133.398759 
L 23.880745 133.018103 
L 24.601444 132.382073 
L 24.847537 131.921381 
L 24.992556 130.849943 
L 24.970583 129.766235 
L 25.084841 128.670265 
L 25.625365 127.574548 
L 26.143349 127.084479 
L 27.290884 125.998964 
L 27.765491 125.121367 
L 27.761097 123.604084 
L 28.033556 122.187228 
L 30.028664 118.33115 
L 30.230811 116.955818 
L 29.931985 115.63578 
L 29.299175 114.430853 
L 28.846541 113.460653 
L 28.442246 112.221384 
L 28.209337 110.900195 
L 28.741072 109.726396 
L 29.338726 108.714825 
L 29.409038 107.673586 
L 29.092633 107.324898 
L 29.883645 105.937878 
L 30.639501 104.001229 
L 30.810886 102.908801 
L 30.821225 102.426618 
L 30.881199 99.630583 
L 30.863621 99.615665 
L 30.889988 99.63307 
L 30.907566 99.618151 
L 30.903171 99.573397 
L 30.889988 99.496321 
L 31.122897 95.929858 
L 31.799651 92.443132 
L 32.749526 90.318318 
L 33.816731 87.932231 
L 35.17024 86.479177 
L 34.27376 83.891616 
L 34.27376 83.534827 
L 34.730789 82.937765 
L 33.693685 79.102101 
L 33.812336 78.713517 
L 34.076007 78.572447 
L 34.370439 78.490777 
L 34.563798 78.270522 
L 34.594559 77.889434 
L 34.344072 77.359923 
L 34.27376 76.961594 
L 34.247393 76.30851 
L 34.155108 75.798972 
L 33.693685 74.676216 
L 33.614584 72.468622 
L 33.847493 71.643217 
L 34.563798 71.082326 
L 34.115558 70.48939 
L 34.141925 69.936054 
L 34.853835 68.770322 
L 34.629715 68.464121 
L 34.629715 68.204855 
L 34.823074 67.990045 
L 35.17024 67.819687 
L 35.17024 67.464177 
L 34.990065 66.897641 
L 35.176702 66.134538 
L 35.728343 63.879808 
L 35.17024 63.879808 
L 35.240552 63.614644 
L 35.354809 63.43952 
L 35.517406 63.311265 
L 35.728343 63.196579 
L 35.389965 62.63922 
L 35.231763 61.730581 
L 35.244947 60.820896 
L 35.43391 60.26507 
L 35.047194 59.556524 
L 35.08235 58.126226 
L 34.853835 57.661879 
L 34.853835 57.33428 
L 35.17024 57.33428 
L 35.17024 57.661879 
L 35.43391 57.661879 
L 35.363598 57.228369 
L 35.236158 56.862628 
L 35.060377 56.567102 
L 34.853835 56.359015 
L 34.752761 56.203879 
L 34.563798 55.678182 
L 34.976881 55.601857 
L 35.157056 55.468906 
L 35.117506 55.276873 
L 34.853835 55.026996 
L 34.853835 54.731594 
L 35.17024 54.731594 
L 35.104322 54.508825 
L 35.03401 54.476825 
L 34.94612 54.492825 
L 34.853835 54.409136 
L 35.43391 54.052244 
L 35.17024 53.727375 
L 35.460278 53.604325 
L 35.728343 53.432061 
L 35.728343 53.07648 
L 35.539379 53.03957 
L 35.425121 52.975593 
L 35.328442 52.887012 
L 35.17024 52.781209 
L 35.249341 52.462585 
L 35.407543 52.137834 
L 35.662425 51.885677 
L 36.044747 51.777438 
L 36.044747 51.479796 
L 35.644847 51.08502 
L 35.556957 50.883342 
L 35.253736 50.45911 
L 35.077955 50.451732 
L 34.853835 50.476324 
L 34.853835 50.15418 
L 35.43391 50.15418 
L 35.315259 49.848043 
L 35.17024 48.852322 
L 35.43391 49.178057 
L 35.627269 48.667954 
L 35.728343 48.498342 
L 35.785471 48.671641 
L 35.807444 48.78349 
L 35.868967 48.756449 
L 36.044747 48.498342 
L 35.807444 47.90967 
L 35.675609 46.683422 
L 35.43391 46.255914 
L 35.43391 45.900918 
L 35.728343 45.900918 
L 35.728343 45.604905 
L 35.367993 45.403481 
L 35.196607 45.060835 
L 35.21858 44.670326 
L 35.310864 44.51315 
L 35.614085 44.391587 
L 35.992013 44.074805 
L 36.633612 43.270676 
L 37.415834 42.739173 
z
" clip-path="url(#p69dbd79502)" style="stroke: #000000; stroke-linejoin: miter"/>
   </g>
   <g id="line2d_1">
    <path d="M 37.396024 42.722353 
L 37.420515 42.739701 
L 38.606455 42.765155 
L 39.10772 42.519471 
L 40.518358 41.329104 
L 42.856237 39.937895 
L 44.332792 39.617759 
L 44.508573 39.760039 
L 44.899684 40.228613 
L 49.469974 41.232171 
L 49.874269 41.455488 
L 50.819088 42.224917 
L 51.530999 42.301008 
L 51.596917 42.61766 
L 51.403558 43.119688 
L 51.245356 43.097592 
L 52.005606 43.884502 
L 52.449451 44.030605 
L 53.064683 43.923789 
L 54.057842 43.996227 
L 54.255595 44.53648 
L 54.128154 45.345757 
L 54.158916 46.238716 
L 54.558816 47.034796 
L 56.474822 49.789031 
L 56.874722 50.582072 
L 57.995322 50.616501 
L 59.836622 50.441896 
L 60.530954 50.648472 
L 60.741891 50.55256 
L 61.445012 50.071804 
L 61.906436 50.311561 
L 63.290706 51.629845 
L 66.03288 53.422217 
L 69.768213 56.781357 
L 70.396628 57.119998 
L 71.23598 57.362605 
L 73.630987 57.592909 
L 74.320925 58.003052 
L 81.690518 58.857948 
L 83.224202 59.964386 
L 83.962479 59.550364 
L 84.885326 59.576239 
L 87.601133 60.256443 
L 88.198786 60.279858 
L 88.743706 60.10117 
L 95.577168 55.656023 
L 106.800745 48.78349 
L 141.354774 27.905699 
L 171.874642 10.08 
L 181.037195 41.597828 
L 183.893626 51.533911 
L 180.553799 52.622509 
L 180.610927 52.700013 
L 183.001541 60.26507 
L 183.432203 60.496758 
L 191.487338 58.381206 
L 192.361846 58.866572 
L 192.990261 60.331618 
L 193.877952 63.54928 
L 192.792508 65.060294 
L 187.677299 69.217315 
L 187.686088 69.585315 
L 187.255426 69.718691 
L 186.429258 70.313995 
L 181.379967 74.903712 
L 179.903411 75.504655 
L 126.303579 90.522102 
L 94.702661 99.66042 
L 117.369541 123.611581 
L 138.133598 147.665187 
L 138.094048 147.680258 
L 137.808405 147.853583 
L 124.941281 155.00045 
L 123.956911 155.815605 
L 123.403202 156.696328 
L 117.32999 171.405153 
L 116.415932 172.21799 
L 86.05866 178.525794 
L 84.889721 179.112268 
L 83.874589 180.207036 
L 74.18909 196.70168 
L 56.857144 211.183876 
L 55.767306 211.634202 
L 54.602761 211.68 
L 9.232283 203.722941 
L 9.78622 203.325639 
L 10.0665 198.851228 
L 10.367541 197.564413 
L 11.291426 195.554917 
L 11.249903 194.774104 
L 10.367541 193.877617 
L 9.78622 193.877617 
L 9.692794 193.516272 
L 9.49556 193.542224 
L 9.67769 192.207001 
L 9.980911 191.132419 
L 10.547803 190.206283 
L 10.952098 188.982676 
L 11.176218 186.22875 
L 11.492623 185.007376 
L 13.465757 179.660886 
L 13.645932 178.66735 
L 13.685483 175.695512 
L 14.164484 173.614262 
L 14.533623 172.80372 
L 14.55999 172.215466 
L 15.052175 170.289612 
L 16.871502 167.569962 
L 17.56144 165.928302 
L 17.56144 164.390531 
L 16.691327 161.407118 
L 16.708905 160.014306 
L 17.012127 159.175787 
L 17.412027 156.638447 
L 18.277745 154.328804 
L 18.159093 153.637132 
L 17.33732 152.150998 
L 17.33732 150.982024 
L 18.075598 149.004212 
L 18.277745 147.846047 
L 20.11465 141.898823 
L 22.604522 136.907186 
L 22.931531 135.756003 
L 23.269908 133.98483 
L 23.551157 133.398759 
L 23.880745 133.018103 
L 24.601444 132.382073 
L 24.847537 131.921381 
L 24.992556 130.849943 
L 24.970583 129.766235 
L 25.084841 128.670265 
L 25.625365 127.574548 
L 27.290884 125.998964 
L 27.765491 125.121367 
L 27.761097 123.604084 
L 28.033556 122.187228 
L 30.028664 118.33115 
L 30.230811 116.955818 
L 29.931985 115.63578 
L 28.846541 113.460653 
L 28.442246 112.221384 
L 28.209337 110.900195 
L 28.741072 109.726396 
L 29.338726 108.714825 
L 29.409038 107.673586 
L 29.092633 107.324898 
L 29.883645 105.937878 
L 30.639501 104.001229 
L 30.821225 102.426618 
L 30.889988 99.496321 
L 31.122897 95.929858 
L 31.799651 92.443132 
L 33.816731 87.932231 
L 35.17024 86.479177 
L 34.27376 83.891616 
L 34.27376 83.534827 
L 34.730789 82.937765 
L 33.693685 79.102101 
L 33.812336 78.713517 
L 34.563798 78.270522 
L 34.594559 77.889434 
L 34.27376 76.961594 
L 34.155108 75.798972 
L 33.693685 74.676216 
L 33.614584 72.468622 
L 33.847493 71.643217 
L 34.563798 71.082326 
L 34.115558 70.48939 
L 34.141925 69.936054 
L 34.853835 68.770322 
L 34.629715 68.464121 
L 34.629715 68.204855 
L 34.823074 67.990045 
L 35.17024 67.819687 
L 35.17024 67.464177 
L 34.990065 66.897641 
L 35.728343 63.879808 
L 35.17024 63.879808 
L 35.354809 63.43952 
L 35.728343 63.196579 
L 35.389965 62.63922 
L 35.231763 61.730581 
L 35.244947 60.820896 
L 35.43391 60.26507 
L 35.047194 59.556524 
L 35.08235 58.126226 
L 34.853835 57.661879 
L 34.853835 57.33428 
L 35.17024 57.33428 
L 35.17024 57.661879 
L 35.43391 57.661879 
L 35.236158 56.862628 
L 34.563798 55.678182 
L 35.157056 55.468906 
L 35.117506 55.276873 
L 34.853835 55.026996 
L 34.853835 54.731594 
L 35.17024 54.731594 
L 35.03401 54.476825 
L 34.853835 54.409136 
L 35.43391 54.052244 
L 35.17024 53.727375 
L 35.728343 53.432061 
L 35.728343 53.07648 
L 35.328442 52.887012 
L 35.17024 52.781209 
L 35.407543 52.137834 
L 35.662425 51.885677 
L 36.044747 51.777438 
L 36.044747 51.479796 
L 35.556957 50.883342 
L 35.253736 50.45911 
L 34.853835 50.476324 
L 34.853835 50.15418 
L 35.43391 50.15418 
L 35.315259 49.848043 
L 35.17024 48.852322 
L 35.43391 49.178057 
L 35.728343 48.498342 
L 35.807444 48.78349 
L 35.868967 48.756449 
L 36.044747 48.498342 
L 35.807444 47.90967 
L 35.675609 46.683422 
L 35.43391 46.255914 
L 35.43391 45.900918 
L 35.728343 45.900918 
L 35.728343 45.604905 
L 35.367993 45.403481 
L 35.196607 45.060835 
L 35.310864 44.51315 
L 35.614085 44.391587 
L 35.992013 44.074805 
L 36.633612 43.270676 
L 37.415834 42.739173 
L 37.396024 42.722353 
" clip-path="url(#p69dbd79502)" style="fill: none; stroke: #000000; stroke-width: 0.5; stroke-linecap: square"/>
   </g>
  </g>
 </g>
 <defs>
  <clipPath id="p69dbd79502">
   <rect x="0" y="-0" width="203.110235" height="221.76"/>
  </clipPath>
 </defs>
</svg>
