<?xml version="1.0" encoding="utf-8" standalone="no"?>
<!DOCTYPE svg PUBLIC "-//W3C//DTD SVG 1.1//EN"
  "http://www.w3.org/Graphics/SVG/1.1/DTD/svg11.dtd">
<svg xmlns:xlink="http://www.w3.org/1999/xlink" width="138.282249pt" height="221.76pt" viewBox="0 0 138.282249 221.76" xmlns="http://www.w3.org/2000/svg" version="1.1">
 <metadata>
  <rdf:RDF xmlns:dc="http://purl.org/dc/elements/1.1/" xmlns:cc="http://creativecommons.org/ns#" xmlns:rdf="http://www.w3.org/1999/02/22-rdf-syntax-ns#">
   <cc:Work>
    <dc:type rdf:resource="http://purl.org/dc/dcmitype/StillImage"/>
    <dc:date>2026-04-26T19:21:49.586787</dc:date>
    <dc:format>image/svg+xml</dc:format>
    <dc:creator>
     <cc:Agent>
      <dc:title>Matplotlib v3.10.9, https://matplotlib.org/</dc:title>
     </cc:Agent>
    </dc:creator>
   </cc:Work>
  </rdf:RDF>
 </metadata>
 <defs>
  <style type="text/css">*{stroke-linejoin: round; stroke-linecap: butt}</style>
 </defs>
 <g id="figure_1">
  <g id="patch_1">
   <path d="M 0 221.76 
L 138.282249 221.76 
L 138.282249 0 
L 0 0 
z
" style="fill: #ffffff"/>
  </g>
  <g id="axes_1">
   <g id="patch_2">
    <path d="M 34.831642 18.594103 
L 34.833106 18.583422 
L 34.920844 17.720335 
L 35.359303 17.315838 
L 35.973146 17.373623 
L 36.016899 18.58426 
L 37.201191 18.590862 
L 38.212272 18.596497 
L 38.24315 18.954217 
L 38.451173 19.442079 
L 38.467425 19.841591 
L 38.420295 20.25718 
L 38.415419 20.610118 
L 38.521056 20.903079 
L 38.802213 21.134988 
L 39.411656 21.8377 
L 39.746444 22.124256 
L 40.107235 22.237273 
L 40.169817 22.236591 
L 42.465375 22.211563 
L 43.006561 22.114615 
L 43.172329 22.113544 
L 43.326722 22.168713 
L 43.612754 22.350827 
L 43.815902 22.38725 
L 46.73798 22.310119 
L 49.198507 22.243701 
L 49.335022 22.283338 
L 49.567423 22.46706 
L 49.660118 22.496479 
L 49.699063 22.50884 
L 52.730029 22.474559 
L 53.667759 22.815763 
L 54.785885 23.558725 
L 55.427832 23.75264 
L 55.5806 23.904238 
L 55.827627 24.452789 
L 55.943015 24.553501 
L 56.258301 24.52243 
L 56.375314 24.571715 
L 56.479326 24.756535 
L 56.541082 24.957429 
L 56.622342 25.418155 
L 56.672722 25.529588 
L 56.753981 25.554232 
L 56.848242 25.551018 
L 56.940877 25.583162 
L 57.792473 26.30375 
L 59.325021 27.603029 
L 60.857568 28.902946 
L 62.65177 30.421606 
L 63.925913 31.502005 
L 65.36745 32.726109 
L 66.991007 34.102523 
L 68.487801 35.371833 
L 70.056102 36.701808 
L 70.540407 37.112452 
L 70.832939 37.496836 
L 71.232734 38.342294 
L 71.474887 38.720805 
L 71.676409 38.867708 
L 72.146087 39.058041 
L 72.508503 39.473561 
L 72.700274 39.515918 
L 73.195955 39.353462 
L 73.688386 39.301991 
L 75.357448 39.551305 
L 77.037887 39.800623 
L 77.918736 39.701431 
L 78.719951 39.23926 
L 78.739454 39.120234 
L 78.726452 38.935263 
L 78.758956 38.762624 
L 78.910098 38.681667 
L 78.992982 38.729384 
L 79.29039 39.054824 
L 79.417155 39.252664 
L 79.448033 39.416728 
L 79.50979 39.538437 
L 79.72919 39.611355 
L 79.933963 39.641381 
L 80.020097 39.625832 
L 80.242748 39.511093 
L 80.272001 39.580258 
L 80.288253 39.69178 
L 80.371137 39.763627 
L 81.289365 39.851023 
L 81.286115 39.708938 
L 81.307242 39.417801 
L 81.300741 39.280544 
L 81.726539 40.020454 
L 81.971942 40.349669 
L 82.259599 40.55771 
L 83.811649 41.111067 
L 84.983406 41.529313 
L 85.392952 41.520733 
L 86.052776 41.352898 
L 86.316055 41.400085 
L 86.551707 41.515371 
L 86.795484 41.511081 
L 87.699086 41.259597 
L 87.850228 41.307856 
L 88.053067 41.430753 
L 89.46891 42.288611 
L 90.081604 42.460745 
L 90.681296 42.440367 
L 91.290702 41.977479 
L 91.391501 41.900915 
L 91.597899 41.917002 
L 91.671033 42.132031 
L 91.526391 42.514905 
L 93.489612 42.592124 
L 93.973916 42.80716 
L 94.110432 43.039895 
L 94.193316 43.320896 
L 94.311954 43.598147 
L 94.562233 43.817484 
L 95.064414 43.782626 
L 95.329319 43.236703 
L 95.672232 41.8548 
L 96.078528 41.211338 
L 97.110519 39.970053 
L 98.347283 38.479008 
L 98.647942 37.95682 
L 98.907971 37.317241 
L 99.346771 35.787808 
L 99.655555 34.702861 
L 99.972466 34.190429 
L 101.319742 33.331225 
L 102.67352 32.472063 
L 104.197941 31.501469 
L 104.909771 31.035217 
L 104.981279 30.913565 
L 104.969903 30.784411 
L 104.98453 30.701882 
L 105.135671 30.721174 
L 105.182802 30.756544 
L 105.229932 30.773693 
L 105.273812 30.770478 
L 106.866491 30.038445 
L 108.106506 29.469882 
L 108.191015 29.364853 
L 108.28365 29.029942 
L 108.373036 28.920093 
L 110.404514 27.889688 
L 112.065451 27.049015 
L 113.373723 26.387329 
L 114.365084 25.528517 
L 114.711248 26.13177 
L 115.65873 26.978826 
L 116.045523 27.559629 
L 116.308803 28.201 
L 116.471321 28.411045 
L 116.757353 28.60341 
L 117.508188 28.940991 
L 117.761716 29.140328 
L 118.172887 29.639753 
L 119.182126 31.501469 
L 119.880954 32.218557 
L 120.643165 32.62642 
L 121.465508 32.752372 
L 123.071188 32.631779 
L 124.834511 32.497789 
L 125.62435 32.20623 
L 126.040397 32.176217 
L 127.299914 31.76622 
L 127.550192 31.788729 
L 127.966239 32.016504 
L 128.190514 32.071171 
L 128.418039 32.003642 
L 129.084364 31.501469 
L 129.831948 31.823029 
L 130.524276 32.305381 
L 131.22473 32.485998 
L 131.996692 31.909852 
L 130.680294 34.40001 
L 129.360645 36.889974 
L 128.042622 39.381342 
L 126.722974 41.873031 
L 125.910382 43.407771 
L 125.096166 44.944235 
L 124.283575 46.478131 
L 123.469358 48.014282 
L 122.178963 49.702886 
L 120.885317 51.392689 
L 119.591672 53.081544 
L 118.299652 54.769446 
L 117.761716 55.4734 
L 117.535816 56.049669 
L 117.543942 57.161467 
L 117.563444 59.838135 
L 117.584571 62.634221 
L 117.584571 64.174604 
L 117.584571 66.386027 
L 117.584571 68.597612 
L 117.584571 70.808815 
L 117.584571 73.020702 
L 117.584571 75.618772 
L 117.584571 78.215412 
L 117.584571 80.813832 
L 117.584571 83.41187 
L 117.584571 86.008978 
L 117.584571 88.606756 
L 117.584571 88.958391 
L 117.584571 91.205191 
L 117.584571 93.803734 
L 117.584571 96.401298 
L 117.584571 99.000021 
L 117.584571 101.596667 
L 117.584571 104.196596 
L 117.584571 106.794424 
L 117.584571 109.394437 
L 117.584571 111.992325 
L 117.584571 114.592374 
L 117.602448 116.296373 
L 117.61545 117.699538 
L 117.626826 119.102698 
L 117.649579 121.361063 
L 117.672331 123.615107 
L 117.695084 125.871269 
L 117.717836 128.129539 
L 117.732463 129.594918 
L 117.74709 131.060276 
L 117.761716 132.639483 
L 118.163136 133.324871 
L 118.561306 134.010252 
L 118.962726 134.693479 
L 119.362521 135.378848 
L 120.140984 136.706597 
L 120.945449 138.083732 
L 121.811672 139.563957 
L 122.530002 140.788498 
L 123.303589 142.109683 
L 124.114555 143.49528 
L 124.907645 144.84647 
L 125.699109 146.199769 
L 126.302051 147.230827 
L 126.492198 147.688352 
L 126.549079 148.081433 
L 126.507619 149.382697 
L 126.494124 149.798153 
L 126.485166 149.809991 
L 125.287393 151.430175 
L 124.721779 152.571704 
L 124.647558 152.935296 
L 124.307165 153.212637 
L 123.412675 154.288163 
L 122.852179 155.197938 
L 122.525862 155.45497 
L 122.284005 155.062657 
L 121.99096 155.221612 
L 121.719669 155.18441 
L 121.539236 154.945976 
L 121.52388 154.497853 
L 121.209081 154.927375 
L 121.147656 155.424532 
L 121.001774 155.904773 
L 120.54749 155.848971 
L 119.933248 155.65789 
L 119.796323 155.644362 
L 119.603093 155.803314 
L 119.290853 156.256495 
L 118.866002 156.493228 
L 118.702204 156.773924 
L 118.530728 157.007273 
L 118.283752 156.990363 
L 118.076445 156.848325 
L 117.926723 156.709669 
L 117.82307 156.510138 
L 117.757807 156.21253 
L 117.769324 155.904773 
L 117.924164 155.329836 
L 117.913927 155.076185 
L 117.875536 154.788711 
L 117.93952 154.531674 
L 118.176259 154.068325 
L 117.619602 154.633136 
L 117.555619 157.0766 
L 117.220345 157.629527 
L 116.92858 157.340383 
L 116.636814 156.062034 
L 116.350168 155.772877 
L 116.18637 155.647744 
L 116.041767 155.427914 
L 115.894605 155.350128 
L 115.707773 155.644362 
L 115.810147 155.955502 
L 115.856215 156.229439 
L 115.815265 156.493228 
L 116.0712 156.346115 
L 116.273388 156.417135 
L 116.410313 156.650486 
L 116.45766 156.990363 
L 116.424389 157.129019 
L 116.278506 157.240619 
L 116.242676 157.358983 
L 116.295142 157.558509 
L 116.410313 157.605854 
L 116.525483 157.639672 
L 116.57539 157.778325 
L 116.602263 159.293323 
L 116.695679 160.098137 
L 116.897867 160.62227 
L 117.038631 160.672992 
L 117.210107 160.64594 
L 117.402058 160.657776 
L 117.600407 160.840374 
L 117.753968 161.139631 
L 117.777002 161.366186 
L 117.600407 161.905513 
L 117.212667 162.536126 
L 116.863316 162.62742 
L 116.813409 162.392422 
L 117.327837 162.052601 
L 117.056547 161.924111 
L 116.839003 161.731374 
L 116.45766 161.200497 
L 116.398796 161.034807 
L 116.41927 160.929983 
L 116.409033 160.850519 
L 116.242676 160.764292 
L 116.26315 160.811632 
L 116.156938 160.860663 
L 115.926597 160.916457 
L 115.533738 161.200497 
L 115.181828 161.758425 
L 114.851673 162.143897 
L 114.525357 161.910585 
L 114.535594 162.088105 
L 114.576543 162.275767 
L 114.661002 162.431306 
L 114.790249 162.492169 
L 114.865749 162.549651 
L 114.836317 162.684901 
L 114.730104 162.909753 
L 114.832478 163.214062 
L 115.277803 163.604587 
L 115.385296 163.895364 
L 115.201023 164.375478 
L 114.767215 164.938418 
L 114.2771 165.404991 
L 113.547688 165.802248 
L 112.585375 167.313465 
L 112.040235 167.587301 
L 111.557799 167.448693 
L 111.089439 167.169784 
L 110.589087 167.017651 
L 110.074659 167.088647 
L 108.485307 167.749572 
L 107.832675 168.368225 
L 107.435977 168.533872 
L 106.974015 168.914182 
L 106.190856 169.750844 
L 106.005304 170.007754 
L 105.8671 170.298464 
L 105.576614 171.167194 
L 105.106975 171.951392 
L 105.039152 172.301231 
L 105.069864 172.461784 
L 105.304044 172.874146 
L 105.32196 173.009345 
L 105.261815 173.32706 
L 105.245179 173.507885 
L 104.948295 174.834461 
L 104.912465 175.515464 
L 105.245179 175.848355 
L 105.16328 176.39246 
L 105.353951 176.632403 
L 105.677708 176.59016 
L 106.005304 176.270798 
L 106.018101 176.503983 
L 105.895252 176.750684 
L 105.344994 177.44177 
L 105.016118 178.021321 
L 104.93166 178.271385 
L 104.863837 179.325678 
L 104.764023 179.687235 
L 104.22912 180.690778 
L 104.217603 180.969532 
L 104.387799 181.724684 
L 104.38524 182.109852 
L 104.287985 182.43082 
L 104.148501 182.728134 
L 103.965508 182.98828 
L 103.741565 183.184232 
L 102.98144 183.64032 
L 102.774134 183.822752 
L 102.396631 184.405512 
L 102.184205 184.628476 
L 101.906516 184.687595 
L 102.029365 184.334568 
L 102.199561 183.542346 
L 102.228994 183.255179 
L 101.946186 183.346397 
L 101.822058 183.549103 
L 101.795185 183.819374 
L 101.799024 184.1116 
L 101.783668 184.304163 
L 101.691532 184.815968 
L 101.720964 184.930826 
L 101.779829 185.043995 
L 101.807982 185.167298 
L 101.531573 185.765221 
L 101.211655 186.87319 
L 100.791923 187.761548 
L 100.628125 188.955533 
L 100.447691 189.440199 
L 100.248062 189.676617 
L 100.111137 189.713768 
L 99.770745 189.51788 
L 99.695244 189.457086 
L 99.489217 189.142984 
L 99.414996 189.122719 
L 98.996544 189.077123 
L 99.061807 188.896426 
L 99.073324 188.813677 
L 98.910806 188.641422 
L 98.787957 189.021394 
L 98.831466 189.338876 
L 99.020857 189.524634 
L 99.338216 189.51788 
L 99.148825 189.811712 
L 99.212808 190.05488 
L 99.434191 190.151133 
L 99.980611 189.857306 
L 100.155926 190.024484 
L 100.25574 190.34195 
L 100.29541 190.649278 
L 100.264698 191.304446 
L 98.996544 195.915294 
L 98.593447 196.426788 
L 98.143003 196.52132 
L 97.825644 196.209025 
L 97.828204 195.505076 
L 97.480133 195.758298 
L 97.382878 195.915294 
L 97.439183 196.122932 
L 97.545396 196.332256 
L 97.599142 196.528072 
L 97.669524 196.717134 
L 97.828204 196.907883 
L 98.176274 196.872434 
L 98.35031 196.983844 
L 98.305521 197.3417 
L 97.974086 197.824458 
L 97.925459 197.971308 
L 97.88195 198.155291 
L 97.769339 198.411851 
L 97.629855 198.638026 
L 97.49293 198.735922 
L 97.341928 198.627899 
L 97.236995 198.151915 
L 97.114147 198.042201 
L 97.006654 197.790699 
L 97.039926 197.314693 
L 97.016892 197.027732 
L 96.743042 197.333261 
L 96.338666 197.041236 
L 96.155673 197.0041 
L 95.982917 197.191469 
L 96.139037 197.388964 
L 96.32459 197.485179 
L 96.743042 197.61684 
L 96.625312 197.986499 
L 96.476871 198.162043 
L 95.982917 198.310578 
L 95.821679 198.315642 
L 95.645084 198.293699 
L 95.503041 198.315642 
L 95.445455 198.459112 
L 95.456972 198.897955 
L 95.487684 199.103869 
L 95.552948 199.316533 
L 95.780729 198.911457 
L 96.302835 198.864198 
L 96.853094 199.076864 
L 97.161495 199.458307 
L 97.10135 199.957882 
L 96.315632 201.736656 
L 95.811441 203.427497 
L 95.297013 205.971864 
L 95.122978 206.558968 
L 94.982214 206.289037 
L 94.846569 206.304221 
L 94.713483 206.484737 
L 94.588075 206.717549 
L 94.562482 206.83058 
L 94.577838 207.088692 
L 94.527931 207.205094 
L 94.303988 207.473322 
L 94.255361 207.564417 
L 93.717899 209.699936 
L 93.618085 209.315362 
L 93.666712 208.711494 
L 93.610406 208.414611 
L 93.408218 208.622092 
L 93.295607 208.910537 
L 93.200912 209.234398 
L 93.072944 209.544758 
L 92.996164 209.532951 
L 92.884833 209.453675 
L 92.785018 209.473916 
L 92.742789 209.765717 
L 92.773501 209.93776 
L 93.019198 210.388097 
L 92.860519 210.674821 
L 92.330735 210.777703 
L 91.731849 210.583745 
L 91.355625 209.969807 
L 91.342829 210.08956 
L 91.249413 210.394843 
L 90.787451 210.211 
L 90.447059 210.641089 
L 90.159133 211.231388 
L 89.852011 211.526529 
L 89.786748 211.5552 
L 89.730443 211.561946 
L 89.679256 211.592303 
L 89.628069 211.68 
L 88.293903 210.41171 
L 86.951502 209.139298 
L 85.609101 207.864639 
L 84.2667 206.589874 
L 82.924299 205.31715 
L 81.580273 204.042181 
L 80.239497 202.767111 
L 78.898721 201.494086 
L 77.554695 200.220964 
L 77.450493 200.121849 
L 76.21392 198.945602 
L 74.869893 197.67229 
L 73.529118 196.39674 
L 72.188342 195.123243 
L 70.844316 193.847512 
L 69.50354 192.571692 
L 68.161139 191.295784 
L 67.304668 190.485162 
L 67.088518 190.112008 
L 66.930876 189.687374 
L 66.657845 188.409129 
L 66.539207 188.089555 
L 66.319807 187.823597 
L 66.022399 187.63485 
L 65.690861 187.519027 
L 65.354448 187.480419 
L 64.601989 187.538331 
L 64.556484 187.253061 
L 64.681623 186.84767 
L 64.745005 186.504476 
L 64.665371 186.341457 
L 64.406967 186.298557 
L 64.293204 186.146261 
L 64.268826 185.927468 
L 64.309456 185.685077 
L 64.384214 185.453408 
L 64.463848 185.268929 
L 64.692999 184.934289 
L 65.044039 184.567466 
L 65.417831 184.303606 
L 65.715239 184.273573 
L 65.692486 183.902448 
L 65.747743 183.612837 
L 65.90376 183.434777 
L 66.189792 183.406888 
L 65.874366 180.869754 
L 65.840378 180.596356 
L 65.562472 178.345525 
L 65.321945 177.834819 
L 64.023424 176.877751 
L 61.852269 175.276566 
L 60.647919 174.388334 
L 57.27079 171.898662 
L 53.895285 169.410892 
L 50.51978 166.920742 
L 47.144276 164.432516 
L 43.767146 161.944078 
L 40.393267 159.45329 
L 37.017762 156.962311 
L 33.642258 154.471151 
L 30.268378 151.979821 
L 27.606517 150.016784 
L 26.892874 149.49048 
L 23.515744 146.998841 
L 20.14024 144.509213 
L 19.31221 143.897947 
L 16.764735 142.017309 
L 13.387605 139.527435 
L 10.012101 137.035308 
L 8.833843 136.165188 
L 8.250403 136.105031 
L 8.039129 135.922412 
L 8.00825 135.378848 
L 7.764473 135.368106 
L 7.699466 135.378848 
L 6.501706 135.378848 
L 6.412321 131.148368 
L 6.353814 128.314324 
L 6.613844 125.331942 
L 6.987636 121.045194 
L 7.276918 117.744662 
L 7.260666 116.941013 
L 6.774737 114.805105 
L 6.285557 112.66275 
L 6.334312 112.25233 
L 7.24929 110.640734 
L 7.383095 110.404778 
L 8.646947 108.17608 
L 9.212511 107.595913 
L 9.347401 107.320871 
L 9.391281 106.897565 
L 9.214136 106.139054 
L 9.197884 105.756577 
L 9.267767 105.567488 
L 9.539173 105.142037 
L 9.649685 104.925015 
L 9.698441 104.748819 
L 10.077063 102.696603 
L 10.09011 102.625889 
L 10.35989 101.985579 
L 10.824692 101.564437 
L 11.463389 101.259325 
L 11.972071 100.917687 
L 12.350739 100.380522 
L 12.604267 99.488834 
L 12.666341 99.010343 
L 12.700153 98.749707 
L 12.830168 98.567074 
L 13.839406 97.898858 
L 14.109186 97.57442 
L 14.335087 96.737548 
L 14.788513 95.958696 
L 15.196434 94.626608 
L 15.289069 94.201204 
L 15.29882 93.268763 
L 15.380079 92.82618 
L 15.511719 92.402935 
L 15.666111 92.031256 
L 15.987898 91.614462 
L 16.247927 91.695028 
L 16.504706 91.887312 
L 16.814696 91.809207 
L 16.832993 91.804597 
L 16.921907 91.603988 
L 17.002012 91.423254 
L 17.028015 90.954902 
L 17.135277 90.574638 
L 17.897487 90.344762 
L 18.433798 89.663733 
L 18.760459 89.399487 
L 20.054105 89.224397 
L 20.554661 88.924706 
L 20.752933 88.080423 
L 20.58879 87.253339 
L 20.315759 86.408008 
L 20.284829 86.017337 
L 20.257253 85.669026 
L 21.191733 84.658314 
L 21.52327 82.980106 
L 21.885686 82.266953 
L 22.043329 82.162237 
L 22.373241 82.073093 
L 22.529258 81.97858 
L 22.690151 81.779352 
L 22.803914 81.543608 
L 23.302845 80.146894 
L 23.397106 79.695831 
L 23.413358 75.656894 
L 23.481615 75.404004 
L 23.775773 74.912191 
L 23.83428 74.689373 
L 23.754646 74.457966 
L 23.385729 74.002674 
L 23.247589 73.786842 
L 23.135451 73.422829 
L 23.070444 73.006743 
L 23.050942 72.577239 
L 23.07532 72.172974 
L 23.223211 71.246349 
L 23.221586 70.844247 
L 22.511381 68.583655 
L 22.227406 67.679161 
L 21.619156 65.741906 
L 21.516769 64.92604 
L 21.65491 64.412914 
L 21.939317 64.123077 
L 22.256227 63.884769 
L 22.488629 63.516576 
L 22.530883 63.045339 
L 22.386242 62.691112 
L 21.957194 62.10933 
L 21.866184 61.713252 
L 21.776799 60.679614 
L 21.619156 60.396256 
L 21.47614 60.425236 
L 21.372128 60.598041 
L 21.245364 60.751528 
L 21.029215 60.730061 
L 20.881323 60.539008 
L 20.218248 58.718709 
L 19.979346 56.914635 
L 19.659185 55.605393 
L 19.595803 55.42189 
L 19.488541 55.2459 
L 19.405657 55.219073 
L 18.960357 54.936848 
L 18.931104 54.881047 
L 18.900225 54.843489 
L 18.874222 54.771592 
L 18.840093 54.699696 
L 18.779962 54.662138 
L 18.740957 54.695404 
L 18.671074 54.857439 
L 18.63207 54.893924 
L 18.567063 54.935775 
L 18.391543 55.125713 
L 18.294032 55.16971 
L 18.079508 55.094593 
L 17.936492 54.89929 
L 17.70084 54.403527 
L 17.201909 53.670633 
L 17.044266 53.309023 
L 16.58759 50.168508 
L 16.586555 50.166062 
L 16.402319 49.73078 
L 16.072407 49.442184 
L 15.331324 49.162175 
L 15.003037 48.886461 
L 14.832393 48.41121 
L 14.676375 45.862414 
L 14.473227 45.034335 
L 14.357839 44.812304 
L 14.209948 44.599392 
L 14.086434 44.37683 
L 14.045804 44.128528 
L 14.092935 43.893635 
L 14.250577 43.385248 
L 14.274955 43.188439 
L 14.209948 42.960529 
L 14.016551 42.515978 
L 14.00355 42.291293 
L 14.091309 42.109509 
L 14.234326 42.026929 
L 14.395219 41.971161 
L 14.541485 41.873031 
L 14.840519 41.267104 
L 14.98841 40.435459 
L 15.027415 38.766914 
L 14.921778 38.330499 
L 14.691002 38.134277 
L 14.396844 38.015258 
L 14.101061 37.811533 
L 13.590753 37.093152 
L 13.307971 36.943583 
L 12.880548 37.107091 
L 12.716405 37.309736 
L 12.648147 37.50863 
L 12.575014 37.59548 
L 12.392993 37.459309 
L 12.155717 36.622467 
L 11.806303 36.027427 
L 11.796551 35.926111 
L 11.630783 35.944337 
L 11.318748 36.060663 
L 11.009963 36.087466 
L 10.738557 36.17967 
L 10.605292 36.191463 
L 10.405395 36.091755 
L 10.509407 35.931472 
L 10.823067 35.667196 
L 10.62642 35.351463 
L 10.379392 35.229245 
L 10.350139 35.115605 
L 11.100973 34.603161 
L 11.271617 34.323359 
L 11.230988 34.03981 
L 10.883199 33.800218 
L 10.577664 33.798074 
L 9.953594 34.091803 
L 9.706566 34.156124 
L 9.3409 33.981922 
L 9.363653 33.622267 
L 9.56355 33.144168 
L 9.730944 32.612485 
L 9.69194 32.277511 
L 9.509919 32.039014 
L 9.279143 31.835892 
L 9.092247 31.605976 
L 8.968733 31.276381 
L 8.975234 31.065765 
L 9.043492 30.868549 
L 9.105249 30.579696 
L 9.150754 30.096321 
L 9.145878 29.852495 
L 9.097123 29.611887 
L 8.965483 29.378785 
L 8.789963 29.167121 
L 8.651823 28.939919 
L 8.632321 28.657529 
L 8.653448 28.019356 
L 8.456801 27.538197 
L 8.102511 27.171175 
L 7.64746 26.881314 
L 9.236889 24.80475 
L 10.824692 22.73006 
L 12.412496 20.654035 
L 14.001924 18.579361 
L 15.236088 17.74104 
L 16.328666 16.998931 
L 17.413711 16.283974 
L 18.484845 15.578218 
L 20.015037 14.845 
L 21.291275 14.212459 
L 22.487574 13.619564 
L 23.775272 12.981398 
L 25.215302 12.267772 
L 26.503001 11.629666 
L 27.59644 11.087847 
L 27.874657 11.775057 
L 28.977639 10.972642 
L 30.204721 10.08 
L 30.552492 10.629725 
L 29.961281 12.233215 
L 31.52625 12.233215 
L 32.708671 12.691388 
L 31.943575 15.257431 
L 32.579265 16.776822 
L 33.327671 18.565817 
L 33.334592 18.582363 
L 33.358158 18.593061 
L 34.74546 19.222847 
L 34.831112 18.597974 
z
" clip-path="url(#p5d9cd3ce24)" style="stroke: #000000; stroke-linejoin: miter"/>
   </g>
   <g id="line2d_1">
    <path d="M 34.831642 18.594103 
L 34.920844 17.720335 
L 35.359303 17.315838 
L 35.973146 17.373623 
L 36.016899 18.58426 
L 38.212272 18.596497 
L 38.24315 18.954217 
L 38.451173 19.442079 
L 38.521056 20.903079 
L 38.802213 21.134988 
L 39.746444 22.124256 
L 40.169817 22.236591 
L 43.326722 22.168713 
L 43.815902 22.38725 
L 49.335022 22.283338 
L 49.699063 22.50884 
L 52.730029 22.474559 
L 53.667759 22.815763 
L 54.785885 23.558725 
L 55.5806 23.904238 
L 55.943015 24.553501 
L 56.375314 24.571715 
L 56.541082 24.957429 
L 56.753981 25.554232 
L 56.940877 25.583162 
L 70.540407 37.112452 
L 70.832939 37.496836 
L 71.474887 38.720805 
L 71.676409 38.867708 
L 72.146087 39.058041 
L 72.508503 39.473561 
L 72.700274 39.515918 
L 73.688386 39.301991 
L 77.037887 39.800623 
L 77.918736 39.701431 
L 78.739454 39.120234 
L 78.758956 38.762624 
L 78.992982 38.729384 
L 79.417155 39.252664 
L 79.50979 39.538437 
L 80.020097 39.625832 
L 80.242748 39.511093 
L 80.272001 39.580258 
L 80.371137 39.763627 
L 81.289365 39.851023 
L 81.300741 39.280544 
L 81.971942 40.349669 
L 82.259599 40.55771 
L 84.983406 41.529313 
L 85.392952 41.520733 
L 86.316055 41.400085 
L 86.795484 41.511081 
L 87.850228 41.307856 
L 89.46891 42.288611 
L 90.081604 42.460745 
L 90.681296 42.440367 
L 91.391501 41.900915 
L 91.597899 41.917002 
L 91.671033 42.132031 
L 91.526391 42.514905 
L 93.489612 42.592124 
L 93.973916 42.80716 
L 94.562233 43.817484 
L 95.064414 43.782626 
L 95.329319 43.236703 
L 95.672232 41.8548 
L 96.078528 41.211338 
L 98.647942 37.95682 
L 98.907971 37.317241 
L 99.655555 34.702861 
L 99.972466 34.190429 
L 104.981279 30.913565 
L 104.98453 30.701882 
L 105.273812 30.770478 
L 108.191015 29.364853 
L 108.373036 28.920093 
L 113.373723 26.387329 
L 114.365084 25.528517 
L 114.711248 26.13177 
L 115.65873 26.978826 
L 116.045523 27.559629 
L 116.471321 28.411045 
L 116.757353 28.60341 
L 117.761716 29.140328 
L 118.172887 29.639753 
L 119.182126 31.501469 
L 119.880954 32.218557 
L 120.643165 32.62642 
L 121.465508 32.752372 
L 124.834511 32.497789 
L 125.62435 32.20623 
L 126.040397 32.176217 
L 127.550192 31.788729 
L 128.190514 32.071171 
L 128.418039 32.003642 
L 129.084364 31.501469 
L 129.831948 31.823029 
L 130.524276 32.305381 
L 131.22473 32.485998 
L 131.996692 31.909852 
L 123.469358 48.014282 
L 117.761716 55.4734 
L 117.535816 56.049669 
L 117.584571 75.618772 
L 117.695084 125.871269 
L 117.761716 132.639483 
L 126.492198 147.688352 
L 126.549079 148.081433 
L 126.485166 149.809991 
L 125.287393 151.430175 
L 124.307165 153.212637 
L 123.412675 154.288163 
L 122.852179 155.197938 
L 122.525862 155.45497 
L 122.284005 155.062657 
L 121.99096 155.221612 
L 121.719669 155.18441 
L 121.539236 154.945976 
L 121.52388 154.497853 
L 121.209081 154.927375 
L 121.001774 155.904773 
L 120.54749 155.848971 
L 119.796323 155.644362 
L 119.603093 155.803314 
L 119.290853 156.256495 
L 118.866002 156.493228 
L 118.530728 157.007273 
L 118.283752 156.990363 
L 117.926723 156.709669 
L 117.757807 156.21253 
L 117.769324 155.904773 
L 117.913927 155.076185 
L 117.93952 154.531674 
L 118.176259 154.068325 
L 117.619602 154.633136 
L 117.555619 157.0766 
L 117.220345 157.629527 
L 116.92858 157.340383 
L 116.636814 156.062034 
L 115.894605 155.350128 
L 115.707773 155.644362 
L 115.856215 156.229439 
L 115.815265 156.493228 
L 116.0712 156.346115 
L 116.273388 156.417135 
L 116.410313 156.650486 
L 116.424389 157.129019 
L 116.242676 157.358983 
L 116.410313 157.605854 
L 116.525483 157.639672 
L 116.57539 157.778325 
L 116.695679 160.098137 
L 116.897867 160.62227 
L 117.210107 160.64594 
L 117.402058 160.657776 
L 117.600407 160.840374 
L 117.777002 161.366186 
L 117.600407 161.905513 
L 117.212667 162.536126 
L 116.863316 162.62742 
L 116.813409 162.392422 
L 117.327837 162.052601 
L 116.839003 161.731374 
L 116.398796 161.034807 
L 116.409033 160.850519 
L 116.242676 160.764292 
L 116.26315 160.811632 
L 115.533738 161.200497 
L 114.851673 162.143897 
L 114.525357 161.910585 
L 114.661002 162.431306 
L 114.865749 162.549651 
L 114.832478 163.214062 
L 115.277803 163.604587 
L 115.385296 163.895364 
L 115.201023 164.375478 
L 114.2771 165.404991 
L 113.547688 165.802248 
L 112.585375 167.313465 
L 112.040235 167.587301 
L 111.557799 167.448693 
L 111.089439 167.169784 
L 110.589087 167.017651 
L 110.074659 167.088647 
L 108.485307 167.749572 
L 107.832675 168.368225 
L 107.435977 168.533872 
L 106.974015 168.914182 
L 106.005304 170.007754 
L 105.106975 171.951392 
L 105.069864 172.461784 
L 105.32196 173.009345 
L 104.912465 175.515464 
L 105.245179 175.848355 
L 105.16328 176.39246 
L 105.353951 176.632403 
L 105.677708 176.59016 
L 106.005304 176.270798 
L 106.018101 176.503983 
L 105.895252 176.750684 
L 105.016118 178.021321 
L 104.93166 178.271385 
L 104.764023 179.687235 
L 104.22912 180.690778 
L 104.217603 180.969532 
L 104.38524 182.109852 
L 104.148501 182.728134 
L 103.741565 183.184232 
L 102.774134 183.822752 
L 102.184205 184.628476 
L 101.906516 184.687595 
L 102.199561 183.542346 
L 102.228994 183.255179 
L 101.946186 183.346397 
L 101.822058 183.549103 
L 101.779829 185.043995 
L 101.807982 185.167298 
L 101.531573 185.765221 
L 101.211655 186.87319 
L 100.791923 187.761548 
L 100.628125 188.955533 
L 100.248062 189.676617 
L 100.111137 189.713768 
L 99.695244 189.457086 
L 99.414996 189.122719 
L 98.996544 189.077123 
L 99.073324 188.813677 
L 98.910806 188.641422 
L 98.787957 189.021394 
L 98.831466 189.338876 
L 99.020857 189.524634 
L 99.338216 189.51788 
L 99.148825 189.811712 
L 99.212808 190.05488 
L 99.434191 190.151133 
L 99.980611 189.857306 
L 100.155926 190.024484 
L 100.29541 190.649278 
L 100.264698 191.304446 
L 98.996544 195.915294 
L 98.593447 196.426788 
L 98.143003 196.52132 
L 97.825644 196.209025 
L 97.828204 195.505076 
L 97.382878 195.915294 
L 97.669524 196.717134 
L 97.828204 196.907883 
L 98.176274 196.872434 
L 98.35031 196.983844 
L 98.305521 197.3417 
L 97.925459 197.971308 
L 97.769339 198.411851 
L 97.49293 198.735922 
L 97.341928 198.627899 
L 97.114147 198.042201 
L 97.006654 197.790699 
L 97.016892 197.027732 
L 96.743042 197.333261 
L 96.155673 197.0041 
L 95.982917 197.191469 
L 96.32459 197.485179 
L 96.743042 197.61684 
L 96.476871 198.162043 
L 95.821679 198.315642 
L 95.503041 198.315642 
L 95.445455 198.459112 
L 95.552948 199.316533 
L 95.780729 198.911457 
L 96.302835 198.864198 
L 96.853094 199.076864 
L 97.161495 199.458307 
L 97.10135 199.957882 
L 96.315632 201.736656 
L 95.811441 203.427497 
L 95.122978 206.558968 
L 94.982214 206.289037 
L 94.846569 206.304221 
L 94.562482 206.83058 
L 94.527931 207.205094 
L 94.255361 207.564417 
L 93.717899 209.699936 
L 93.618085 209.315362 
L 93.610406 208.414611 
L 93.408218 208.622092 
L 92.996164 209.532951 
L 92.785018 209.473916 
L 92.773501 209.93776 
L 93.019198 210.388097 
L 92.860519 210.674821 
L 92.330735 210.777703 
L 91.731849 210.583745 
L 91.355625 209.969807 
L 91.342829 210.08956 
L 91.249413 210.394843 
L 90.787451 210.211 
L 90.447059 210.641089 
L 90.159133 211.231388 
L 89.628069 211.68 
L 67.088518 190.112008 
L 66.930876 189.687374 
L 66.539207 188.089555 
L 66.022399 187.63485 
L 65.354448 187.480419 
L 64.601989 187.538331 
L 64.556484 187.253061 
L 64.745005 186.504476 
L 64.665371 186.341457 
L 64.406967 186.298557 
L 64.293204 186.146261 
L 64.309456 185.685077 
L 64.463848 185.268929 
L 65.044039 184.567466 
L 65.417831 184.303606 
L 65.715239 184.273573 
L 65.747743 183.612837 
L 65.90376 183.434777 
L 66.189792 183.406888 
L 65.562472 178.345525 
L 65.321945 177.834819 
L 8.833843 136.165188 
L 8.250403 136.105031 
L 8.039129 135.922412 
L 8.00825 135.378848 
L 6.501706 135.378848 
L 6.353814 128.314324 
L 7.260666 116.941013 
L 6.285557 112.66275 
L 6.334312 112.25233 
L 8.646947 108.17608 
L 9.347401 107.320871 
L 9.391281 106.897565 
L 9.197884 105.756577 
L 9.539173 105.142037 
L 9.698441 104.748819 
L 10.09011 102.625889 
L 10.35989 101.985579 
L 10.824692 101.564437 
L 11.972071 100.917687 
L 12.350739 100.380522 
L 12.830168 98.567074 
L 13.839406 97.898858 
L 14.109186 97.57442 
L 14.335087 96.737548 
L 14.788513 95.958696 
L 15.289069 94.201204 
L 15.380079 92.82618 
L 15.666111 92.031256 
L 15.987898 91.614462 
L 16.832993 91.804597 
L 17.002012 91.423254 
L 17.135277 90.574638 
L 17.897487 90.344762 
L 18.760459 89.399487 
L 20.054105 89.224397 
L 20.554661 88.924706 
L 20.752933 88.080423 
L 20.257253 85.669026 
L 21.191733 84.658314 
L 21.52327 82.980106 
L 22.043329 82.162237 
L 22.529258 81.97858 
L 22.803914 81.543608 
L 23.397106 79.695831 
L 23.481615 75.404004 
L 23.83428 74.689373 
L 23.754646 74.457966 
L 23.247589 73.786842 
L 23.070444 73.006743 
L 23.07532 72.172974 
L 23.221586 70.844247 
L 21.619156 65.741906 
L 21.516769 64.92604 
L 21.65491 64.412914 
L 22.488629 63.516576 
L 22.530883 63.045339 
L 22.386242 62.691112 
L 21.957194 62.10933 
L 21.866184 61.713252 
L 21.776799 60.679614 
L 21.619156 60.396256 
L 21.47614 60.425236 
L 21.245364 60.751528 
L 21.029215 60.730061 
L 20.881323 60.539008 
L 20.218248 58.718709 
L 19.979346 56.914635 
L 19.488541 55.2459 
L 19.405657 55.219073 
L 18.874222 54.771592 
L 18.779962 54.662138 
L 18.740957 54.695404 
L 18.567063 54.935775 
L 18.294032 55.16971 
L 18.079508 55.094593 
L 17.70084 54.403527 
L 17.044266 53.309023 
L 16.586555 50.166062 
L 16.402319 49.73078 
L 16.072407 49.442184 
L 15.331324 49.162175 
L 15.003037 48.886461 
L 14.832393 48.41121 
L 14.676375 45.862414 
L 14.357839 44.812304 
L 14.086434 44.37683 
L 14.092935 43.893635 
L 14.274955 43.188439 
L 14.00355 42.291293 
L 14.234326 42.026929 
L 14.541485 41.873031 
L 14.840519 41.267104 
L 14.98841 40.435459 
L 15.027415 38.766914 
L 14.921778 38.330499 
L 14.396844 38.015258 
L 14.101061 37.811533 
L 13.590753 37.093152 
L 13.307971 36.943583 
L 12.880548 37.107091 
L 12.575014 37.59548 
L 12.392993 37.459309 
L 12.155717 36.622467 
L 11.630783 35.944337 
L 10.738557 36.17967 
L 10.605292 36.191463 
L 10.405395 36.091755 
L 10.509407 35.931472 
L 10.823067 35.667196 
L 10.62642 35.351463 
L 10.350139 35.115605 
L 11.100973 34.603161 
L 11.271617 34.323359 
L 11.230988 34.03981 
L 10.883199 33.800218 
L 10.577664 33.798074 
L 9.706566 34.156124 
L 9.3409 33.981922 
L 9.363653 33.622267 
L 9.730944 32.612485 
L 9.69194 32.277511 
L 8.968733 31.276381 
L 9.043492 30.868549 
L 9.150754 30.096321 
L 9.097123 29.611887 
L 8.632321 28.657529 
L 8.653448 28.019356 
L 8.456801 27.538197 
L 8.102511 27.171175 
L 7.64746 26.881314 
L 14.001924 18.579361 
L 18.484845 15.578218 
L 26.503001 11.629666 
L 27.59644 11.087847 
L 27.874657 11.775057 
L 30.204721 10.08 
L 30.552492 10.629725 
L 29.961281 12.233215 
L 31.52625 12.233215 
L 32.708671 12.691388 
L 31.943575 15.257431 
L 33.358158 18.593061 
L 34.74546 19.222847 
L 34.831642 18.594103 
L 34.831642 18.594103 
" clip-path="url(#p5d9cd3ce24)" style="fill: none; stroke: #000000; stroke-width: 0.5; stroke-linecap: square"/>
   </g>
  </g>
 </g>
 <defs>
  <clipPath id="p5d9cd3ce24">
   <rect x="0" y="-0" width="138.282249" height="221.76"/>
  </clipPath>
 </defs>
</svg>
