<?xml version="1.0" encoding="utf-8" standalone="no"?>
<!DOCTYPE svg PUBLIC "-//W3C//DTD SVG 1.1//EN"
  "http://www.w3.org/Graphics/SVG/1.1/DTD/svg11.dtd">
<svg xmlns:xlink="http://www.w3.org/1999/xlink" width="209.834734pt" height="221.76pt" viewBox="0 0 209.834734 221.76" xmlns="http://www.w3.org/2000/svg" version="1.1">
 <metadata>
  <rdf:RDF xmlns:dc="http://purl.org/dc/elements/1.1/" xmlns:cc="http://creativecommons.org/ns#" xmlns:rdf="http://www.w3.org/1999/02/22-rdf-syntax-ns#">
   <cc:Work>
    <dc:type rdf:resource="http://purl.org/dc/dcmitype/StillImage"/>
    <dc:date>2026-04-26T19:22:18.163705</dc:date>
    <dc:format>image/svg+xml</dc:format>
    <dc:creator>
     <cc:Agent>
      <dc:title>Matplotlib v3.10.9, https://matplotlib.org/</dc:title>
     </cc:Agent>
    </dc:creator>
   </cc:Work>
  </rdf:RDF>
 </metadata>
 <defs>
  <style type="text/css">*{stroke-linejoin: round; stroke-linecap: butt}</style>
 </defs>
 <g id="figure_1">
  <g id="patch_1">
   <path d="M 0 221.76 
L 209.834734 221.76 
L 209.834734 0 
L 0 0 
z
" style="fill: #ffffff"/>
  </g>
  <g id="axes_1">
   <g id="patch_2">
    <path d="M 192.621377 177.816781 
L 198.062902 184.024125 
L 200.296791 196.489377 
L 198.349298 205.977186 
L 191.170304 203.201489 
L 186.950736 206.608027 
L 182.177469 209.509899 
L 177.07962 211.427663 
L 171.943584 211.68 
L 166.616618 209.181861 
L 162.759818 204.866906 
L 159.838579 200.779069 
L 154.988939 196.994046 
L 150.120207 188.263306 
L 147.638108 186.295113 
L 137.117827 185.260551 
L 89.576086 166.638596 
L 71.571323 155.283891 
L 55.762261 139.690276 
L 43.580884 124.677207 
L 34.358932 116.678728 
L 30.12027 120.286868 
L 25.652492 120.438259 
L 16.640564 115.896546 
L 9.537942 105.627297 
L 10.912644 88.495273 
L 13.681139 85.49278 
L 27.199031 75.425661 
L 33.480651 74.466893 
L 37.662033 76.258276 
L 39.380409 78.756127 
L 38.292104 80.0429 
L 32.220508 83.449072 
L 26.339843 91.977165 
L 24.39235 103.053692 
L 30.12027 114.281719 
L 34.989003 115.240522 
L 41.499739 114.13033 
L 47.189474 114.584499 
L 49.633387 120.286868 
L 52.000927 124.323961 
L 57.55701 125.686482 
L 68.841014 126.241585 
L 78.272989 131.5403 
L 81.156043 131.515067 
L 77.012847 124.323961 
L 72.048649 119.782232 
L 67.046265 116.905814 
L 62.59758 113.045369 
L 59.256293 105.450677 
L 65.289703 108.125214 
L 70.31118 108.04952 
L 73.060582 103.507857 
L 72.335045 92.734099 
L 77.375615 97.225255 
L 79.304015 103.507857 
L 80.468692 110.295126 
L 83.428118 116.224558 
L 88.926922 119.17667 
L 90.817136 114.407878 
L 89.843389 106.207621 
L 83.084443 92.279938 
L 82.167975 85.946938 
L 83.103536 80.269978 
L 85.165587 75.425661 
L 90.645298 80.118592 
L 93.070118 78.402895 
L 91.580858 66.948159 
L 97.022383 71.262594 
L 97.366058 76.838585 
L 96.487777 82.893992 
L 98.263432 88.495273 
L 102.960327 92.07809 
L 105.251495 90.160524 
L 106.759848 86.375866 
L 111.514022 82.641682 
L 114.034307 78.604741 
L 116.077265 73.68474 
L 116.898267 69.269373 
L 115.638125 63.870035 
L 112.525955 61.498371 
L 104.105911 58.87441 
L 90.377995 50.447499 
L 73.289699 34.905828 
L 70.597576 33.089283 
L 68.554618 29.557124 
L 63.437675 23.148807 
L 58.167988 20.171728 
L 55.762261 26.933241 
L 53.299256 31.070905 
L 48.144127 30.061717 
L 43.676349 24.788727 
L 43.218116 16.160254 
L 49.366083 10.08 
L 59.542689 10.73596 
L 83.370839 18.733651 
L 101.184672 37.327891 
L 131.218069 48.706619 
L 136.716873 48.101096 
L 136.124988 54.610486 
L 134.406611 60.690998 
L 131.771768 65.207252 
L 124.497309 69.168451 
L 122.492536 74.668739 
L 120.392299 88.495273 
L 119.074877 117.738461 
L 129.537879 133.205615 
L 146.263407 143.803135 
L 163.790844 158.337034 
L 170.377953 165.578819 
L 177.614226 171.811332 
L 185.155988 176.176634 
z
" clip-path="url(#p832c1f9475)" style="stroke: #000000; stroke-linejoin: miter"/>
   </g>
   <g id="line2d_1">
    <path d="M 192.621377 177.816781 
L 198.062902 184.024125 
L 200.296791 196.489377 
L 198.349298 205.977186 
L 191.170304 203.201489 
L 186.950736 206.608027 
L 182.177469 209.509899 
L 177.07962 211.427663 
L 171.943584 211.68 
L 166.616618 209.181861 
L 162.759818 204.866906 
L 159.838579 200.779069 
L 154.988939 196.994046 
L 150.120207 188.263306 
L 147.638108 186.295113 
L 137.117827 185.260551 
L 89.576086 166.638596 
L 71.571323 155.283891 
L 55.762261 139.690276 
L 43.580884 124.677207 
L 34.358932 116.678728 
L 30.12027 120.286868 
L 25.652492 120.438259 
L 16.640564 115.896546 
L 9.537942 105.627297 
L 10.912644 88.495273 
L 13.681139 85.49278 
L 27.199031 75.425661 
L 33.480651 74.466893 
L 37.662033 76.258276 
L 39.380409 78.756127 
L 38.292104 80.0429 
L 32.220508 83.449072 
L 26.339843 91.977165 
L 24.39235 103.053692 
L 30.12027 114.281719 
L 34.989003 115.240522 
L 41.499739 114.13033 
L 47.189474 114.584499 
L 49.633387 120.286868 
L 52.000927 124.323961 
L 57.55701 125.686482 
L 68.841014 126.241585 
L 78.272989 131.5403 
L 81.156043 131.515067 
L 77.012847 124.323961 
L 72.048649 119.782232 
L 67.046265 116.905814 
L 62.59758 113.045369 
L 59.256293 105.450677 
L 65.289703 108.125214 
L 70.31118 108.04952 
L 73.060582 103.507857 
L 72.335045 92.734099 
L 77.375615 97.225255 
L 79.304015 103.507857 
L 80.468692 110.295126 
L 83.428118 116.224558 
L 88.926922 119.17667 
L 90.817136 114.407878 
L 89.843389 106.207621 
L 83.084443 92.279938 
L 82.167975 85.946938 
L 83.103536 80.269978 
L 85.165587 75.425661 
L 90.645298 80.118592 
L 93.070118 78.402895 
L 91.580858 66.948159 
L 97.022383 71.262594 
L 97.366058 76.838585 
L 96.487777 82.893992 
L 98.263432 88.495273 
L 102.960327 92.07809 
L 105.251495 90.160524 
L 106.759848 86.375866 
L 111.514022 82.641682 
L 114.034307 78.604741 
L 116.077265 73.68474 
L 116.898267 69.269373 
L 115.638125 63.870035 
L 112.525955 61.498371 
L 104.105911 58.87441 
L 90.377995 50.447499 
L 73.289699 34.905828 
L 70.597576 33.089283 
L 68.554618 29.557124 
L 63.437675 23.148807 
L 58.167988 20.171728 
L 55.762261 26.933241 
L 53.299256 31.070905 
L 48.144127 30.061717 
L 43.676349 24.788727 
L 43.218116 16.160254 
L 49.366083 10.08 
L 59.542689 10.73596 
L 83.370839 18.733651 
L 101.184672 37.327891 
L 131.218069 48.706619 
L 136.716873 48.101096 
L 136.124988 54.610486 
L 134.406611 60.690998 
L 131.771768 65.207252 
L 124.497309 69.168451 
L 122.492536 74.668739 
L 120.392299 88.495273 
L 119.074877 117.738461 
L 129.537879 133.205615 
L 146.263407 143.803135 
L 163.790844 158.337034 
L 170.377953 165.578819 
L 177.614226 171.811332 
L 185.155988 176.176634 
L 192.621377 177.816781 
" clip-path="url(#p832c1f9475)" style="fill: none; stroke: #000000; stroke-width: 0.5; stroke-linecap: square"/>
   </g>
  </g>
 </g>
 <defs>
  <clipPath id="p832c1f9475">
   <rect x="0" y="-0" width="209.834734" height="221.76"/>
  </clipPath>
 </defs>
</svg>
