<?xml version="1.0" encoding="utf-8" standalone="no"?>
<!DOCTYPE svg PUBLIC "-//W3C//DTD SVG 1.1//EN"
  "http://www.w3.org/Graphics/SVG/1.1/DTD/svg11.dtd">
<svg xmlns:xlink="http://www.w3.org/1999/xlink" width="223.2pt" height="177.564819pt" viewBox="0 0 223.2 177.564819" xmlns="http://www.w3.org/2000/svg" version="1.1">
 <metadata>
  <rdf:RDF xmlns:dc="http://purl.org/dc/elements/1.1/" xmlns:cc="http://creativecommons.org/ns#" xmlns:rdf="http://www.w3.org/1999/02/22-rdf-syntax-ns#">
   <cc:Work>
    <dc:type rdf:resource="http://purl.org/dc/dcmitype/StillImage"/>
    <dc:date>2026-04-26T19:21:57.398294</dc:date>
    <dc:format>image/svg+xml</dc:format>
    <dc:creator>
     <cc:Agent>
      <dc:title>Matplotlib v3.10.9, https://matplotlib.org/</dc:title>
     </cc:Agent>
    </dc:creator>
   </cc:Work>
  </rdf:RDF>
 </metadata>
 <defs>
  <style type="text/css">*{stroke-linejoin: round; stroke-linecap: butt}</style>
 </defs>
 <g id="figure_1">
  <g id="patch_1">
   <path d="M 0 177.564819 
L 223.2 177.564819 
L 223.2 0 
L 0 0 
z
" style="fill: #ffffff"/>
  </g>
  <g id="axes_1">
   <g id="patch_2">
    <path d="M 14.812376 89.101889 
L 16.216051 87.605804 
L 16.348021 86.12766 
L 16.024096 84.529372 
L 16.060087 82.696479 
L 16.467993 81.768462 
L 17.787688 79.939209 
L 19.33533 77.012787 
L 19.107383 76.60782 
L 18.207591 75.437065 
L 11.567998 70.853326 
L 11.465149 70.782347 
L 10.145455 69.032112 
L 10.349407 66.787045 
L 11.297188 65.855228 
L 13.730828 64.444263 
L 14.824373 63.810344 
L 16.13207 63.35926 
L 20.283111 64.141353 
L 24.626107 66.031033 
L 28.561197 66.866167 
L 31.464526 64.51046 
L 31.644484 63.411982 
L 31.464526 62.378103 
L 31.560504 61.288739 
L 32.532279 60.038518 
L 33.516052 59.581817 
L 37.967023 58.393363 
L 47.360851 57.240225 
L 56.958632 55.744936 
L 62.561337 54.059822 
L 65.176732 51.529978 
L 64.658493 50.444555 
L 64.024999 49.117961 
L 61.445595 47.951717 
L 59.622016 46.534361 
L 60.605789 43.370445 
L 62.573334 41.521833 
L 64.552877 41.089683 
L 66.604402 41.089683 
L 68.847884 40.529096 
L 69.77167 39.907248 
L 70.407523 39.162853 
L 71.511268 37.429157 
L 72.555027 36.650008 
L 73.766746 36.667516 
L 75.098439 36.941814 
L 76.502114 36.921387 
L 78.925554 35.223251 
L 82.008841 31.822377 
L 84.456275 28.082152 
L 84.948162 25.331459 
L 84.096358 24.638129 
L 82.92063 24.597347 
L 81.672919 24.713867 
L 80.641157 24.489567 
L 79.945318 23.761368 
L 79.309465 22.677948 
L 78.325693 20.243779 
L 76.934014 18.116031 
L 76.634084 16.861808 
L 77.389909 15.398348 
L 78.349687 14.912536 
L 82.128813 14.796179 
L 84.69622 14.080624 
L 93.790117 9.219131 
L 96.597468 8.321057 
L 99.4888 8.071128 
L 101.264483 8.460384 
L 102.392129 8.707592 
L 104.599618 10.006858 
L 105.763349 10.876077 
L 106.531172 11.6291 
L 107.646914 13.216822 
L 107.286997 13.196464 
L 106.111269 12.937635 
L 104.779577 13.807221 
L 104.85156 14.383126 
L 104.671602 16.018027 
L 104.323682 17.484527 
L 103.85579 17.577648 
L 104.611616 18.49438 
L 113.194851 22.061703 
L 122.590057 25.968582 
L 123.951145 26.534754 
L 126.35059 27.184561 
L 134.100798 27.487631 
L 135.948371 28.516417 
L 137.747955 31.142983 
L 139.523545 37.064376 
L 140.519314 38.555719 
L 142.546846 39.405138 
L 144.178468 38.786307 
L 145.762102 37.960311 
L 147.705653 38.187961 
L 149.505237 40.710114 
L 149.673198 44.217523 
L 150.333046 47.793895 
L 153.596291 50.54753 
L 154.879995 50.804825 
L 157.591368 50.793129 
L 158.911063 51.012421 
L 160.146777 51.559219 
L 162.402255 52.933711 
L 163.601978 53.457257 
L 167.321118 54.086149 
L 169.660577 54.168055 
L 170.764322 55.025203 
L 170.761921 55.620236 
L 170.752325 57.998231 
L 170.260439 59.897991 
L 168.688802 63.701964 
L 168.292894 65.453822 
L 167.92098 66.019312 
L 167.369107 66.356284 
L 167.309121 66.68155 
L 168.472852 67.258861 
L 170.4284 67.683815 
L 171.85093 67.653123 
L 174.639426 67.59296 
L 186.324725 68.759501 
L 188.964115 69.398541 
L 190.739704 70.530193 
L 194.470842 73.914489 
L 196.414392 74.844424 
L 198.117999 74.832689 
L 203.144837 73.18412 
L 205.64026 73.143057 
L 209.095461 73.715023 
L 209.745256 74.024481 
L 212.08277 75.137804 
L 213.054545 77.64963 
L 212.394698 78.647562 
L 211.170981 79.225839 
L 209.779303 79.677925 
L 208.639566 80.291517 
L 208.735544 80.629161 
L 208.099691 82.931439 
L 207.955724 83.239836 
L 207.739774 83.457191 
L 206.947957 83.742111 
L 206.732007 84.068168 
L 206.899968 84.561687 
L 207.71578 85.554703 
L 207.823755 85.98662 
L 206.660024 88.60218 
L 200.877361 95.551246 
L 196.234434 98.935564 
L 195.202673 100.204356 
L 194.962728 101.950411 
L 195.538595 105.570473 
L 195.022714 107.341396 
L 192.611272 109.000739 
L 185.724864 110.536632 
L 183.253435 112.441472 
L 183.121466 115.193459 
L 187.64442 120.201612 
L 188.829443 123.366613 
L 188.568206 123.26663 
L 183.697332 124.197019 
L 181.309884 124.238373 
L 179.246361 123.195748 
L 178.139317 124.18498 
L 177.626736 124.643058 
L 176.427013 124.424466 
L 175.347263 123.612189 
L 174.003573 123.299118 
L 172.096014 124.078868 
L 172.275973 125.074352 
L 173.115779 126.078835 
L 173.247748 126.847062 
L 172.000037 126.941619 
L 167.956971 125.80702 
L 165.92944 125.931109 
L 165.211332 126.359199 
L 164.41779 126.832288 
L 157.591368 134.498263 
L 157.447401 135.506995 
L 157.687345 136.12236 
L 158.035265 136.737776 
L 158.215223 137.714263 
L 158.323198 140.037638 
L 158.269071 140.287879 
L 158.095251 141.091537 
L 156.883531 141.28694 
L 151.876659 140.546618 
L 150.956901 140.41063 
L 149.969525 139.669607 
L 149.517234 139.330189 
L 148.449481 137.68467 
L 146.553919 135.394578 
L 142.438871 132.430944 
L 138.023891 129.926687 
L 136.464252 129.300018 
L 135.684432 129.140403 
L 134.78464 129.122668 
L 131.989286 130.438113 
L 128.104877 133.24011 
L 126.746498 134.220221 
L 123.807178 135.302871 
L 120.4674 136.137885 
L 112.228635 138.198154 
L 101.360367 140.916864 
L 98.385055 142.166315 
L 96.117579 144.194902 
L 94.953848 146.665497 
L 93.526178 152.320752 
L 93.382212 154.927535 
L 94.499546 158.422177 
L 94.845873 159.505706 
L 94.454665 161.882298 
L 94.389979 162.27534 
L 93.166262 164.431202 
L 91.234708 166.893686 
L 90.199825 167.75101 
L 88.871254 168.851777 
L 86.375831 169.493691 
L 85.260089 168.884466 
L 83.0526 166.587687 
L 81.960852 166.08564 
L 81.217024 166.462915 
L 79.957315 168.206947 
L 79.093515 168.744797 
L 77.197953 168.819088 
L 75.794278 168.260433 
L 73.106899 166.139111 
L 73.178882 165.295503 
L 72.591018 163.878814 
L 72.567024 163.044371 
L 73.118896 161.657797 
L 73.826733 161.025463 
L 74.666538 160.559411 
L 75.614319 159.657074 
L 76.838036 157.556004 
L 76.838036 156.099254 
L 76.26217 154.589402 
L 75.722294 152.302962 
L 72.075137 145.252358 
L 71.367301 143.110945 
L 71.343307 139.442666 
L 71.043376 137.418344 
L 69.795665 134.368114 
L 65.40468 127.376004 
L 63.185193 125.148207 
L 62.255406 124.414453 
L 60.317856 122.885647 
L 45.969173 115.187558 
L 44.181586 114.9663 
L 36.251419 115.104954 
L 34.871738 114.954499 
L 33.923957 114.178672 
L 32.91619 112.308766 
L 32.748229 111.497836 
L 32.952182 109.955844 
L 32.676246 109.074431 
L 32.004401 108.381757 
L 30.19282 107.25004 
L 29.652945 106.536913 
L 29.796911 105.806178 
L 30.996634 104.468652 
L 31.032626 103.52605 
L 30.456759 102.648362 
L 28.89712 101.54993 
L 28.261266 100.905083 
L 24.998021 95.174655 
L 24.986024 95.151119 
L 24.986024 95.13935 
L 24.962029 95.13935 
L 23.006481 93.327288 
L 17.211821 91.006982 
z
" clip-path="url(#p0c9a4ac217)" style="stroke: #000000; stroke-linejoin: miter"/>
   </g>
   <g id="line2d_1">
    <path d="M 14.812376 89.101889 
L 16.216051 87.605804 
L 16.348021 86.12766 
L 16.024096 84.529372 
L 16.060087 82.696479 
L 16.467993 81.768462 
L 17.787688 79.939209 
L 19.33533 77.012787 
L 19.107383 76.60782 
L 18.207591 75.437065 
L 11.465149 70.782347 
L 10.145455 69.032112 
L 10.349407 66.787045 
L 11.297188 65.855228 
L 14.824373 63.810344 
L 16.13207 63.35926 
L 20.283111 64.141353 
L 24.626107 66.031033 
L 28.561197 66.866167 
L 31.464526 64.51046 
L 31.644484 63.411982 
L 31.464526 62.378103 
L 31.560504 61.288739 
L 32.532279 60.038518 
L 33.516052 59.581817 
L 37.967023 58.393363 
L 47.360851 57.240225 
L 56.958632 55.744936 
L 62.561337 54.059822 
L 65.176732 51.529978 
L 64.024999 49.117961 
L 61.445595 47.951717 
L 59.622016 46.534361 
L 60.605789 43.370445 
L 62.573334 41.521833 
L 64.552877 41.089683 
L 66.604402 41.089683 
L 68.847884 40.529096 
L 69.77167 39.907248 
L 70.407523 39.162853 
L 71.511268 37.429157 
L 72.555027 36.650008 
L 73.766746 36.667516 
L 75.098439 36.941814 
L 76.502114 36.921387 
L 78.925554 35.223251 
L 82.008841 31.822377 
L 84.456275 28.082152 
L 84.948162 25.331459 
L 84.096358 24.638129 
L 82.92063 24.597347 
L 81.672919 24.713867 
L 80.641157 24.489567 
L 79.945318 23.761368 
L 79.309465 22.677948 
L 78.325693 20.243779 
L 76.934014 18.116031 
L 76.634084 16.861808 
L 77.389909 15.398348 
L 78.349687 14.912536 
L 82.128813 14.796179 
L 84.69622 14.080624 
L 93.790117 9.219131 
L 96.597468 8.321057 
L 99.4888 8.071128 
L 102.392129 8.707592 
L 104.599618 10.006858 
L 105.763349 10.876077 
L 106.531172 11.6291 
L 107.646914 13.216822 
L 107.286997 13.196464 
L 106.111269 12.937635 
L 104.779577 13.807221 
L 104.85156 14.383126 
L 104.671602 16.018027 
L 104.323682 17.484527 
L 103.85579 17.577648 
L 104.611616 18.49438 
L 123.951145 26.534754 
L 126.35059 27.184561 
L 134.100798 27.487631 
L 135.948371 28.516417 
L 137.747955 31.142983 
L 139.523545 37.064376 
L 140.519314 38.555719 
L 142.546846 39.405138 
L 144.178468 38.786307 
L 145.762102 37.960311 
L 147.705653 38.187961 
L 149.505237 40.710114 
L 149.673198 44.217523 
L 150.333046 47.793895 
L 153.596291 50.54753 
L 154.879995 50.804825 
L 157.591368 50.793129 
L 158.911063 51.012421 
L 160.146777 51.559219 
L 162.402255 52.933711 
L 163.601978 53.457257 
L 167.321118 54.086149 
L 169.660577 54.168055 
L 170.764322 55.025203 
L 170.752325 57.998231 
L 170.260439 59.897991 
L 168.688802 63.701964 
L 168.292894 65.453822 
L 167.92098 66.019312 
L 167.369107 66.356284 
L 167.309121 66.68155 
L 168.472852 67.258861 
L 170.4284 67.683815 
L 174.639426 67.59296 
L 186.324725 68.759501 
L 188.964115 69.398541 
L 190.739704 70.530193 
L 194.470842 73.914489 
L 196.414392 74.844424 
L 198.117999 74.832689 
L 203.144837 73.18412 
L 205.64026 73.143057 
L 209.095461 73.715023 
L 212.08277 75.137804 
L 213.054545 77.64963 
L 212.394698 78.647562 
L 211.170981 79.225839 
L 209.779303 79.677925 
L 208.639566 80.291517 
L 208.735544 80.629161 
L 207.955724 83.239836 
L 207.739774 83.457191 
L 206.947957 83.742111 
L 206.732007 84.068168 
L 206.899968 84.561687 
L 207.71578 85.554703 
L 207.823755 85.98662 
L 206.660024 88.60218 
L 200.877361 95.551246 
L 196.234434 98.935564 
L 195.202673 100.204356 
L 194.962728 101.950411 
L 195.538595 105.570473 
L 195.022714 107.341396 
L 192.611272 109.000739 
L 185.724864 110.536632 
L 183.253435 112.441472 
L 183.121466 115.193459 
L 187.64442 120.201612 
L 188.829443 123.366613 
L 188.568206 123.26663 
L 183.697332 124.197019 
L 181.309884 124.238373 
L 179.246361 123.195748 
L 177.626736 124.643058 
L 176.427013 124.424466 
L 175.347263 123.612189 
L 174.003573 123.299118 
L 172.096014 124.078868 
L 172.275973 125.074352 
L 173.115779 126.078835 
L 173.247748 126.847062 
L 172.000037 126.941619 
L 167.956971 125.80702 
L 165.92944 125.931109 
L 164.41779 126.832288 
L 157.591368 134.498263 
L 157.447401 135.506995 
L 158.215223 137.714263 
L 158.269071 140.287879 
L 158.095251 141.091537 
L 156.883531 141.28694 
L 150.956901 140.41063 
L 149.517234 139.330189 
L 148.449481 137.68467 
L 146.553919 135.394578 
L 142.438871 132.430944 
L 138.023891 129.926687 
L 136.464252 129.300018 
L 135.684432 129.140403 
L 134.78464 129.122668 
L 131.989286 130.438113 
L 126.746498 134.220221 
L 123.807178 135.302871 
L 101.360367 140.916864 
L 98.385055 142.166315 
L 96.117579 144.194902 
L 94.953848 146.665497 
L 93.526178 152.320752 
L 93.382212 154.927535 
L 94.845873 159.505706 
L 94.389979 162.27534 
L 93.166262 164.431202 
L 91.234708 166.893686 
L 88.871254 168.851777 
L 86.375831 169.493691 
L 85.260089 168.884466 
L 83.0526 166.587687 
L 81.960852 166.08564 
L 81.217024 166.462915 
L 79.957315 168.206947 
L 79.093515 168.744797 
L 77.197953 168.819088 
L 75.794278 168.260433 
L 73.106899 166.139111 
L 73.178882 165.295503 
L 72.591018 163.878814 
L 72.567024 163.044371 
L 73.118896 161.657797 
L 73.826733 161.025463 
L 74.666538 160.559411 
L 75.614319 159.657074 
L 76.838036 157.556004 
L 76.838036 156.099254 
L 76.26217 154.589402 
L 75.722294 152.302962 
L 72.075137 145.252358 
L 71.367301 143.110945 
L 71.343307 139.442666 
L 71.043376 137.418344 
L 69.795665 134.368114 
L 65.40468 127.376004 
L 63.185193 125.148207 
L 60.317856 122.885647 
L 45.969173 115.187558 
L 44.181586 114.9663 
L 36.251419 115.104954 
L 34.871738 114.954499 
L 33.923957 114.178672 
L 32.91619 112.308766 
L 32.748229 111.497836 
L 32.952182 109.955844 
L 32.676246 109.074431 
L 32.004401 108.381757 
L 30.19282 107.25004 
L 29.652945 106.536913 
L 29.796911 105.806178 
L 30.996634 104.468652 
L 31.032626 103.52605 
L 30.456759 102.648362 
L 28.89712 101.54993 
L 28.261266 100.905083 
L 24.962029 95.13935 
L 23.006481 93.327288 
L 17.211821 91.006982 
L 14.812376 89.101889 
L 14.812376 89.101889 
" clip-path="url(#p0c9a4ac217)" style="fill: none; stroke: #000000; stroke-width: 0.5; stroke-linecap: square"/>
   </g>
  </g>
 </g>
 <defs>
  <clipPath id="p0c9a4ac217">
   <rect x="0" y="0" width="223.2" height="177.564819"/>
  </clipPath>
 </defs>
</svg>
