<?xml version="1.0" encoding="utf-8" standalone="no"?>
<!DOCTYPE svg PUBLIC "-//W3C//DTD SVG 1.1//EN"
  "http://www.w3.org/Graphics/SVG/1.1/DTD/svg11.dtd">
<svg xmlns:xlink="http://www.w3.org/1999/xlink" width="223.2pt" height="212.546993pt" viewBox="0 0 223.2 212.546993" xmlns="http://www.w3.org/2000/svg" version="1.1">
 <metadata>
  <rdf:RDF xmlns:dc="http://purl.org/dc/elements/1.1/" xmlns:cc="http://creativecommons.org/ns#" xmlns:rdf="http://www.w3.org/1999/02/22-rdf-syntax-ns#">
   <cc:Work>
    <dc:type rdf:resource="http://purl.org/dc/dcmitype/StillImage"/>
    <dc:date>2026-04-26T19:22:05.144323</dc:date>
    <dc:format>image/svg+xml</dc:format>
    <dc:creator>
     <cc:Agent>
      <dc:title>Matplotlib v3.10.9, https://matplotlib.org/</dc:title>
     </cc:Agent>
    </dc:creator>
   </cc:Work>
  </rdf:RDF>
 </metadata>
 <defs>
  <style type="text/css">*{stroke-linejoin: round; stroke-linecap: butt}</style>
 </defs>
 <g id="figure_1">
  <g id="patch_1">
   <path d="M 0 212.546993 
L 223.2 212.546993 
L 223.2 0 
L 0 0 
z
" style="fill: #ffffff"/>
  </g>
  <g id="axes_1">
   <g id="patch_2">
    <path d="M 161.29303 22.434276 
L 162.049005 24.491096 
L 163.161243 26.358503 
L 164.203966 28.750591 
L 164.68188 31.342955 
L 164.655812 35.899628 
L 164.994697 38.808373 
L 166.376306 42.857753 
L 169.16559 48.754189 
L 172.441478 53.272161 
L 175.26552 53.152061 
L 177.098975 58.662828 
L 179.566752 64.155968 
L 184.06784 70.668706 
L 186.161784 75.523379 
L 185.717718 78.0247 
L 183.342988 78.373016 
L 178.967187 76.457832 
L 176.725332 75.07923 
L 176.021494 73.946381 
L 173.928818 73.633861 
L 171.32073 73.07494 
L 169.391957 72.74046 
L 163.163935 73.7888 
L 160.008397 76.532703 
L 157.300858 79.272685 
L 150.748901 82.946855 
L 146.24142 87.182868 
L 143.882642 90.953374 
L 141.631139 93.928505 
L 136.775205 96.240542 
L 136.328791 98.180988 
L 135.315594 100.012442 
L 137.694759 100.223079 
L 141.661342 99.510557 
L 144.607853 98.920348 
L 146.984134 97.99308 
L 149.472594 97.066092 
L 150.951145 97.967859 
L 147.90386 100.037385 
L 147.912689 101.518365 
L 147.244207 103.231616 
L 149.859337 105.037529 
L 151.671999 105.025383 
L 153.706221 104.328663 
L 156.079885 103.516498 
L 156.742093 100.55187 
L 158.323995 99.859469 
L 160.36593 100.530842 
L 162.506571 98.925751 
L 163.628704 97.09895 
L 165.321793 96.294044 
L 166.098246 97.014192 
L 167.740535 99.329292 
L 167.966458 99.655749 
L 169.539232 101.092262 
L 170.625402 101.474019 
L 173.600439 102.514072 
L 177.550322 101.700997 
L 176.780119 107.168058 
L 176.675508 109.446414 
L 177.028187 113.089367 
L 178.176487 118.554554 
L 179.087042 121.060319 
L 180.559282 123.453621 
L 181.131279 125.962065 
L 183.763713 142.835933 
L 185.640614 146.983913 
L 190.967191 155.102231 
L 192.574723 156.665963 
L 196.68479 158.058345 
L 196.997607 159.925176 
L 196.54576 162.367593 
L 196.40673 164.86094 
L 197.293045 167.304273 
L 200.212669 171.515539 
L 200.838303 173.02061 
L 201.950541 174.743065 
L 204.461766 175.829186 
L 208.867271 176.799193 
L 207.824548 178.709101 
L 207.381391 180.902298 
L 207.494352 183.171678 
L 208.137365 185.279668 
L 206.521144 184.127056 
L 205.947646 183.591227 
L 205.817306 184.571912 
L 205.921578 185.203835 
L 206.399493 185.674006 
L 207.407459 186.204863 
L 206.608038 187.261585 
L 206.104055 187.564965 
L 205.686966 187.387993 
L 205.235119 186.978436 
L 204.505213 186.978436 
L 204.40963 189.577566 
L 205.391527 190.194554 
L 206.85134 189.435966 
L 208.137365 187.903749 
L 208.432803 189.178056 
L 208.867271 195.156789 
L 209.249603 196.68984 
L 210.118539 198.3597 
L 211.786896 200.637118 
L 213.020785 201.988569 
L 213.054545 202.01807 
L 194.09597 202.217166 
L 175.109416 202.416457 
L 156.122863 202.622179 
L 137.141827 202.827905 
L 131.408892 202.885766 
L 130.520535 199.584878 
L 128.523112 197.444718 
L 126.073234 195.674364 
L 123.794407 193.51877 
L 122.177708 190.701923 
L 120.721024 187.034813 
L 119.694724 183.246742 
L 119.286411 176.552845 
L 118.789814 173.422059 
L 112.869276 156.869464 
L 107.725648 147.919109 
L 106.419034 145.646462 
L 106.407998 145.643261 
L 106.352821 145.630459 
L 106.341786 145.630459 
L 100.382623 144.827127 
L 89.75545 143.403016 
L 79.117242 141.975859 
L 68.479033 140.548859 
L 57.85186 139.128413 
L 45.905947 137.618559 
L 33.99314 136.118474 
L 22.074815 134.621761 
L 10.145455 133.122022 
L 13.245384 129.605195 
L 29.303058 111.403247 
L 35.990563 100.024908 
L 42.832564 92.442823 
L 44.421674 90.026937 
L 47.588858 81.648184 
L 55.567515 68.352268 
L 57.653222 63.730453 
L 57.918073 62.490198 
L 58.326386 58.770165 
L 58.87816 57.002738 
L 62.784722 49.687721 
L 71.866927 26.499819 
L 75.519673 21.294337 
L 81.114665 17.50414 
L 98.318987 10.40856 
L 104.465753 9.661227 
L 132.054468 9.661227 
L 138.168127 10.845581 
z
" clip-path="url(#p6d1444c897)" style="stroke: #000000; stroke-linejoin: miter"/>
   </g>
   <g id="line2d_1">
    <path d="M 161.29303 22.434276 
L 162.049005 24.491096 
L 163.161243 26.358503 
L 164.203966 28.750591 
L 164.68188 31.342955 
L 164.655812 35.899628 
L 164.994697 38.808373 
L 166.376306 42.857753 
L 169.16559 48.754189 
L 172.441478 53.272161 
L 175.26552 53.152061 
L 177.098975 58.662828 
L 179.566752 64.155968 
L 184.06784 70.668706 
L 186.161784 75.523379 
L 185.717718 78.0247 
L 183.342988 78.373016 
L 178.967187 76.457832 
L 176.725332 75.07923 
L 176.021494 73.946381 
L 173.928818 73.633861 
L 169.391957 72.74046 
L 163.163935 73.7888 
L 160.008397 76.532703 
L 157.300858 79.272685 
L 150.748901 82.946855 
L 146.24142 87.182868 
L 143.882642 90.953374 
L 141.631139 93.928505 
L 136.775205 96.240542 
L 136.328791 98.180988 
L 135.315594 100.012442 
L 137.694759 100.223079 
L 144.607853 98.920348 
L 149.472594 97.066092 
L 150.951145 97.967859 
L 147.90386 100.037385 
L 147.912689 101.518365 
L 147.244207 103.231616 
L 149.859337 105.037529 
L 151.671999 105.025383 
L 156.079885 103.516498 
L 156.742093 100.55187 
L 158.323995 99.859469 
L 160.36593 100.530842 
L 162.506571 98.925751 
L 163.628704 97.09895 
L 165.321793 96.294044 
L 166.098246 97.014192 
L 167.966458 99.655749 
L 169.539232 101.092262 
L 173.600439 102.514072 
L 177.550322 101.700997 
L 176.780119 107.168058 
L 176.675508 109.446414 
L 177.028187 113.089367 
L 178.176487 118.554554 
L 179.087042 121.060319 
L 180.559282 123.453621 
L 181.131279 125.962065 
L 183.763713 142.835933 
L 185.640614 146.983913 
L 190.967191 155.102231 
L 192.574723 156.665963 
L 196.68479 158.058345 
L 196.997607 159.925176 
L 196.54576 162.367593 
L 196.40673 164.86094 
L 197.293045 167.304273 
L 200.212669 171.515539 
L 200.838303 173.02061 
L 201.950541 174.743065 
L 204.461766 175.829186 
L 208.867271 176.799193 
L 207.824548 178.709101 
L 207.381391 180.902298 
L 207.494352 183.171678 
L 208.137365 185.279668 
L 205.947646 183.591227 
L 205.817306 184.571912 
L 205.921578 185.203835 
L 206.399493 185.674006 
L 207.407459 186.204863 
L 206.608038 187.261585 
L 206.104055 187.564965 
L 205.686966 187.387993 
L 205.235119 186.978436 
L 204.505213 186.978436 
L 204.40963 189.577566 
L 205.391527 190.194554 
L 206.85134 189.435966 
L 208.137365 187.903749 
L 208.432803 189.178056 
L 208.867271 195.156789 
L 209.249603 196.68984 
L 210.118539 198.3597 
L 211.786896 200.637118 
L 213.054545 202.01807 
L 131.408892 202.885766 
L 130.520535 199.584878 
L 128.523112 197.444718 
L 126.073234 195.674364 
L 123.794407 193.51877 
L 122.177708 190.701923 
L 120.721024 187.034813 
L 119.694724 183.246742 
L 119.286411 176.552845 
L 118.789814 173.422059 
L 112.869276 156.869464 
L 106.341786 145.630459 
L 57.85186 139.128413 
L 10.145455 133.122022 
L 29.303058 111.403247 
L 35.990563 100.024908 
L 42.832564 92.442823 
L 44.421674 90.026937 
L 47.588858 81.648184 
L 55.567515 68.352268 
L 57.653222 63.730453 
L 57.918073 62.490198 
L 58.326386 58.770165 
L 58.87816 57.002738 
L 62.784722 49.687721 
L 71.866927 26.499819 
L 75.519673 21.294337 
L 81.114665 17.50414 
L 98.318987 10.40856 
L 104.465753 9.661227 
L 132.054468 9.661227 
L 138.168127 10.845581 
L 161.29303 22.434276 
L 161.29303 22.434276 
" clip-path="url(#p6d1444c897)" style="fill: none; stroke: #000000; stroke-width: 0.5; stroke-linecap: square"/>
   </g>
  </g>
 </g>
 <defs>
  <clipPath id="p6d1444c897">
   <rect x="0" y="-0" width="223.2" height="212.546993"/>
  </clipPath>
 </defs>
</svg>
