<?xml version="1.0" encoding="utf-8" standalone="no"?>
<!DOCTYPE svg PUBLIC "-//W3C//DTD SVG 1.1//EN"
  "http://www.w3.org/Graphics/SVG/1.1/DTD/svg11.dtd">
<svg xmlns:xlink="http://www.w3.org/1999/xlink" width="223.2pt" height="82.40329pt" viewBox="0 0 223.2 82.40329" xmlns="http://www.w3.org/2000/svg" version="1.1">
 <metadata>
  <rdf:RDF xmlns:dc="http://purl.org/dc/elements/1.1/" xmlns:cc="http://creativecommons.org/ns#" xmlns:rdf="http://www.w3.org/1999/02/22-rdf-syntax-ns#">
   <cc:Work>
    <dc:type rdf:resource="http://purl.org/dc/dcmitype/StillImage"/>
    <dc:date>2026-04-26T19:21:58.041336</dc:date>
    <dc:format>image/svg+xml</dc:format>
    <dc:creator>
     <cc:Agent>
      <dc:title>Matplotlib v3.10.9, https://matplotlib.org/</dc:title>
     </cc:Agent>
    </dc:creator>
   </cc:Work>
  </rdf:RDF>
 </metadata>
 <defs>
  <style type="text/css">*{stroke-linejoin: round; stroke-linecap: butt}</style>
 </defs>
 <g id="figure_1">
  <g id="patch_1">
   <path d="M 0 82.40329 
L 223.2 82.40329 
L 223.2 0 
L 0 0 
z
" style="fill: #ffffff"/>
  </g>
  <g id="axes_1">
   <g id="patch_2">
    <path d="M 212.185755 23.019576 
L 212.29982 23.293634 
L 212.360654 23.883663 
L 212.448103 24.179492 
L 212.642013 24.444912 
L 212.86824 24.672396 
L 213.035535 24.927606 
L 213.054545 25.274386 
L 212.569772 25.848043 
L 211.66296 26.079087 
L 207.045255 26.037289 
L 206.100422 26.220459 
L 205.427442 26.427148 
L 205.130875 26.601452 
L 204.87423 26.867421 
L 204.708836 27.18798 
L 204.501619 27.864636 
L 204.330523 28.187348 
L 203.672752 28.648989 
L 202.853389 28.736538 
L 201.984599 28.720063 
L 201.161435 28.869756 
L 200.12535 29.416909 
L 198.933378 29.751352 
L 197.482859 30.493115 
L 197.11215 30.600601 
L 196.680606 30.606259 
L 195.51715 30.329548 
L 195.116024 30.403551 
L 194.794742 30.5676 
L 193.924051 31.174966 
L 193.526727 31.388656 
L 193.133205 31.514623 
L 192.275821 31.666556 
L 191.555315 31.881278 
L 189.485046 32.991367 
L 188.37482 33.149158 
L 188.036429 33.275311 
L 186.378694 34.150244 
L 183.892091 34.882445 
L 183.637347 34.992219 
L 183.39401 35.152166 
L 183.25333 35.350947 
L 183.101244 35.80732 
L 182.918741 35.988213 
L 182.270476 36.209867 
L 180.916912 36.422088 
L 179.209749 37.411677 
L 178.475935 37.66584 
L 178.14895 37.832782 
L 177.84668 38.117395 
L 177.770637 38.44763 
L 178.093819 39.154901 
L 178.145148 39.487318 
L 177.956942 39.800823 
L 177.626155 40.015573 
L 176.892341 40.345373 
L 176.593873 40.564972 
L 176.133813 41.086084 
L 175.784151 41.595649 
L 175.289737 42.316523 
L 175.033092 42.610755 
L 174.766942 42.836476 
L 172.907693 44.053415 
L 172.580708 44.148763 
L 172.200494 44.116344 
L 171.48569 43.863696 
L 169.077031 43.600615 
L 168.421161 43.62063 
L 167.805214 43.773136 
L 165.377544 44.759161 
L 165.096185 44.835482 
L 164.755893 44.860288 
L 163.816763 44.824988 
L 162.396662 45.132225 
L 161.870065 45.114094 
L 161.324457 44.899405 
L 160.286471 44.567426 
L 159.259892 44.401469 
L 158.674362 44.426266 
L 157.60786 44.678075 
L 155.320869 44.567426 
L 154.763855 44.421497 
L 153.779099 44.03816 
L 153.277216 43.966655 
L 151.2982 44.307056 
L 150.577693 44.538811 
L 150.098623 44.902267 
L 149.840077 45.192346 
L 149.161394 45.574132 
L 148.845816 45.804215 
L 148.672818 46.153717 
L 148.737455 46.508094 
L 148.874332 46.870218 
L 148.919958 47.238182 
L 148.765971 47.61008 
L 148.478909 47.842453 
L 147.750798 48.154264 
L 147.142455 48.564712 
L 146.657681 49.131331 
L 146.344004 49.797821 
L 146.222336 51.677581 
L 146.1596 51.978834 
L 145.950482 52.242729 
L 144.975232 52.826374 
L 144.51137 53.39684 
L 143.918235 54.705849 
L 143.505703 55.235796 
L 143.001918 55.619688 
L 141.399314 56.432113 
L 140.813784 56.876084 
L 140.507711 56.964705 
L 140.247264 56.734497 
L 139.952598 55.586971 
L 139.770095 55.273314 
L 139.232091 55.141524 
L 138.703593 55.600443 
L 138.144678 56.202964 
L 137.524928 56.502406 
L 137.178933 56.438853 
L 136.492646 56.144239 
L 136.140947 56.058564 
L 135.690393 56.091293 
L 134.049767 56.703678 
L 133.808331 56.969521 
L 133.601114 57.283596 
L 133.296942 57.602566 
L 132.935739 57.793408 
L 132.542217 57.860885 
L 132.139189 57.840641 
L 130.947217 57.606421 
L 130.547991 57.583291 
L 130.152568 57.617023 
L 129.30469 57.900408 
L 128.888355 57.927401 
L 128.576579 57.666177 
L 128.41879 57.342373 
L 128.122223 56.517813 
L 128.088003 56.167344 
L 128.236287 55.809272 
L 128.479624 55.553292 
L 128.658325 55.306023 
L 128.6146 54.973199 
L 128.4359 54.771239 
L 127.916907 54.395294 
L 127.713492 54.159784 
L 127.582318 53.808042 
L 127.487264 52.757244 
L 127.156478 51.96732 
L 126.645089 51.578778 
L 125.981615 51.573023 
L 125.209779 51.927021 
L 121.189011 54.416444 
L 121.006508 54.494317 
L 120.789785 54.529891 
L 120.563558 54.599117 
L 120.466603 54.746237 
L 120.396263 54.922225 
L 120.255584 55.076115 
L 119.913391 55.140562 
L 119.571198 55.012634 
L 119.227104 54.826054 
L 118.886812 54.719312 
L 118.428653 54.777009 
L 117.531347 55.092467 
L 117.065584 55.143448 
L 116.390703 55.028023 
L 115.723427 54.804897 
L 114.124625 53.953148 
L 113.706389 53.802277 
L 113.31857 53.831104 
L 113.26252 53.896574 
L 113.037211 54.159784 
L 112.963069 54.351072 
L 112.945959 54.417405 
L 112.797676 54.758738 
L 112.569547 55.150182 
L 112.436472 55.522501 
L 112.569547 55.805422 
L 113.434535 56.429224 
L 113.658862 56.675748 
L 113.810948 57.284559 
L 113.236824 57.401153 
L 111.687449 57.091866 
L 111.282521 57.072598 
L 110.934625 57.189173 
L 109.989791 57.930293 
L 109.681818 58.10865 
L 108.965113 58.403716 
L 108.352968 58.762516 
L 106.719946 60.154295 
L 104.756138 61.399676 
L 104.092664 61.625887 
L 103.524243 61.694531 
L 102.961526 61.623953 
L 102.328469 61.435442 
L 101.689708 61.324282 
L 101.035739 61.389044 
L 100.396979 61.595917 
L 99.81525 61.904354 
L 99.231621 62.11131 
L 98.026341 62.241883 
L 97.524458 62.564019 
L 97.334351 62.757533 
L 97.178463 62.979142 
L 97.072003 63.225956 
L 97.028278 63.498958 
L 96.923719 63.941497 
L 96.615745 64.255337 
L 96.25264 64.545027 
L 95.988391 64.915227 
L 95.845811 65.695704 
L 95.758361 65.911993 
L 95.615781 66.06526 
L 95.085382 66.417453 
L 94.862956 66.687242 
L 94.697563 67.026011 
L 94.615817 67.394971 
L 94.63863 67.758207 
L 94.81733 68.129316 
L 95.066371 68.25369 
L 95.376246 68.313938 
L 95.733647 68.487895 
L 95.994094 68.817407 
L 96.106258 69.21118 
L 96.191806 70.020485 
L 96.60624 71.029892 
L 96.511186 71.23245 
L 96.100554 71.432116 
L 95.802086 71.626942 
L 95.570155 71.898772 
L 95.362938 72.323677 
L 95.157622 72.974943 
L 94.978922 73.24022 
L 94.655739 73.381658 
L 91.195787 73.756296 
L 90.674893 73.543598 
L 88.981037 73.39629 
L 88.33087 73.446041 
L 86.321437 73.842166 
L 85.870882 74.090047 
L 85.730203 74.38288 
L 85.690281 74.648437 
L 85.562909 74.84178 
L 84.513517 74.999013 
L 82.646663 75.512837 
L 82.061133 75.548988 
L 81.416669 75.403413 
L 81.093487 75.277391 
L 80.867259 75.222688 
L 80.633427 75.258831 
L 79.730418 75.640835 
L 79.454762 75.655492 
L 79.13158 75.572438 
L 77.983332 75.374105 
L 77.603117 75.351635 
L 76.808469 75.487434 
L 76.529011 75.497205 
L 73.129893 74.787094 
L 72.82192 74.773423 
L 72.502539 74.850569 
L 72.314333 74.981433 
L 71.962635 75.333074 
L 71.755418 75.438584 
L 71.455048 75.433699 
L 70.989286 75.192407 
L 70.711729 75.128916 
L 70.510215 75.199244 
L 69.93419 75.687738 
L 69.633821 75.725848 
L 69.323946 75.713145 
L 68.719405 75.589048 
L 68.398123 75.598819 
L 67.711836 75.877322 
L 67.31071 75.920324 
L 66.983725 76.015129 
L 66.7613 76.303494 
L 66.341163 77.322553 
L 65.584536 78.644955 
L 65.375418 78.657686 
L 65.371092 78.652661 
L 65.185311 78.436867 
L 65.012313 78.12602 
L 64.962885 77.944439 
L 64.960984 77.798116 
L 64.903952 77.680677 
L 64.519935 77.519216 
L 64.238576 77.341141 
L 64.082689 77.267766 
L 63.289941 77.16309 
L 62.907826 77.032013 
L 62.742432 76.747404 
L 62.712015 76.347487 
L 62.601753 75.867549 
L 62.396437 75.454216 
L 62.080859 75.257854 
L 61.744369 75.298883 
L 61.099905 75.579277 
L 60.413618 75.692624 
L 60.103743 75.821617 
L 58.286318 76.843245 
L 57.615239 77.074074 
L 56.94226 77.136678 
L 56.58866 77.047663 
L 56.25217 76.842267 
L 55.984119 76.540097 
L 55.847242 76.163702 
L 55.885263 75.774709 
L 56.073469 75.539217 
L 56.320609 75.338936 
L 56.531628 75.055661 
L 56.600066 74.675776 
L 56.55254 74.187651 
L 56.387146 73.756296 
L 56.096282 73.547501 
L 55.731276 73.555305 
L 53.85872 73.869489 
L 52.967117 73.835335 
L 52.204786 73.558232 
L 51.822671 72.900831 
L 51.978559 72.607348 
L 52.446223 72.061506 
L 52.545078 71.7799 
L 52.434816 71.476924 
L 52.168666 71.194468 
L 52.145552 71.178452 
L 51.83978 70.966599 
L 51.223833 70.667702 
L 50.887343 70.69496 
L 50.252385 70.930572 
L 49.72959 71.005548 
L 49.549938 71.056184 
L 49.422567 71.130193 
L 49.169724 71.34348 
L 49.035698 71.429194 
L 48.397888 71.702932 
L 48.141244 71.857847 
L 47.554763 72.391909 
L 47.356101 72.50986 
L 47.128922 72.50791 
L 46.081431 72.347071 
L 45.29914 72.382161 
L 44.534909 72.54788 
L 43.928467 72.863776 
L 43.549203 73.387511 
L 43.2783 74.004162 
L 42.94181 74.525415 
L 42.350576 74.765611 
L 41.847742 74.655272 
L 41.394337 74.424858 
L 40.99321 74.2755 
L 40.646265 74.407285 
L 40.420987 74.613286 
L 40.272704 74.658201 
L 40.109212 74.63672 
L 39.829754 74.642578 
L 39.608279 74.696282 
L 39.048413 74.946274 
L 38.542728 75.007803 
L 37.983812 74.929672 
L 37.497138 74.699211 
L 37.21768 74.310642 
L 37.227185 74.076383 
L 37.308931 73.824601 
L 37.352656 73.564086 
L 37.248097 73.306548 
L 37.071297 73.173896 
L 36.640704 73.028579 
L 36.442993 72.899856 
L 36.442042 72.89693 
L 36.436044 72.88193 
L 36.075135 71.979649 
L 35.820392 71.583104 
L 35.373639 71.314261 
L 35.050457 71.281146 
L 34.375576 71.380492 
L 34.054295 71.355168 
L 33.822364 71.244137 
L 33.40793 70.954914 
L 33.155088 70.873125 
L 32.837609 70.904282 
L 32.242573 71.082476 
L 31.938401 71.132141 
L 31.761601 71.182781 
L 31.649438 71.28212 
L 31.558187 71.385362 
L 31.446023 71.444779 
L 31.261619 71.441857 
L 30.878553 71.349324 
L 30.689396 71.331792 
L 30.451762 71.402895 
L 28.811137 72.358767 
L 28.484152 72.421152 
L 28.166673 72.326602 
L 28.136256 72.061506 
L 28.332066 71.384388 
L 28.328264 71.063 
L 28.244617 70.712483 
L 28.067817 70.528499 
L 27.783607 70.700801 
L 27.271268 71.576285 
L 27.117281 71.757491 
L 26.813109 71.837386 
L 26.515591 71.750671 
L 25.898693 71.465235 
L 25.522281 71.396077 
L 25.119253 71.393155 
L 24.739039 71.487639 
L 24.427263 71.708777 
L 24.140201 72.03422 
L 23.986214 72.131673 
L 23.432051 71.930927 
L 22.680177 71.866617 
L 21.258175 72.097564 
L 20.543372 71.925081 
L 19.775338 71.577259 
L 19.049128 71.384388 
L 18.296304 71.314261 
L 16.693699 71.394129 
L 16.374319 71.496406 
L 15.758372 71.920208 
L 15.444695 72.072226 
L 15.108205 72.166758 
L 14.76221 72.207692 
L 14.357281 72.206717 
L 13.564534 72.309057 
L 13.183369 72.205743 
L 12.737567 71.839335 
L 12.634909 71.783797 
L 12.458109 71.845181 
L 12.391572 71.966981 
L 12.345946 72.114131 
L 12.231882 72.251551 
L 11.507573 72.486464 
L 11.247126 72.032271 
L 11.338378 69.786981 
L 11.27184 69.430967 
L 11.134963 69.120748 
L 10.874516 68.866987 
L 10.551334 68.648267 
L 10.274727 68.398484 
L 10.145455 68.053531 
L 10.205338 67.31049 
L 10.410654 66.589219 
L 11.251879 64.584756 
L 11.605478 63.968616 
L 11.686274 63.780732 
L 11.691027 63.665498 
L 11.758515 63.625797 
L 12.013258 63.666466 
L 12.555064 64.14006 
L 13.439063 65.328191 
L 15.208962 64.833813 
L 15.18805 64.585725 
L 14.76221 63.977333 
L 14.777418 63.848523 
L 14.76221 63.725535 
L 14.722287 63.610305 
L 14.650046 63.498958 
L 14.501763 62.904623 
L 14.62153 62.425674 
L 14.917147 62.000091 
L 15.296411 61.565947 
L 15.349641 61.444142 
L 15.427585 61.121318 
L 15.511232 61.039175 
L 15.659516 61.074931 
L 15.853425 61.361012 
L 15.971292 61.450909 
L 16.262156 61.476042 
L 16.568229 61.441242 
L 23.817019 59.422506 
L 24.461482 59.47559 
L 27.084012 60.816932 
L 27.482287 60.916453 
L 28.396703 60.870073 
L 28.819691 60.896162 
L 29.223669 61.054637 
L 29.486968 61.28272 
L 29.716047 61.542745 
L 30.010713 61.793154 
L 30.3415 61.929497 
L 30.989766 61.994289 
L 31.691262 62.234145 
L 33.155088 62.406327 
L 33.613246 62.519515 
L 34.042889 62.749792 
L 34.229194 63.081733 
L 33.959241 63.497989 
L 33.666476 63.659688 
L 33.362305 63.782669 
L 33.080946 63.940529 
L 32.842361 64.203025 
L 32.670314 64.553748 
L 32.618035 64.880334 
L 32.757763 65.127509 
L 33.155088 65.238026 
L 33.315728 65.075162 
L 33.466864 64.661309 
L 33.590433 64.494642 
L 33.805255 64.408409 
L 34.586595 64.388063 
L 34.982969 64.275681 
L 35.350827 64.093564 
L 35.670207 63.834964 
L 35.917346 63.495085 
L 36.075135 62.846559 
L 36.052322 62.269933 
L 36.138821 61.790253 
L 36.626446 61.430609 
L 37.801309 61.121318 
L 38.052251 61.001487 
L 38.770856 60.525175 
L 38.884921 60.4054 
L 38.947656 60.36097 
L 39.050314 60.350346 
L 39.141566 60.384151 
L 39.20335 60.430513 
L 39.215707 60.458525 
L 39.550296 60.320405 
L 39.677668 60.233484 
L 39.922906 60.165883 
L 40.90481 60.33779 
L 41.47038 60.188095 
L 42.088228 59.831793 
L 42.394301 59.37618 
L 42.015987 58.922658 
L 42.681363 58.396001 
L 43.749766 58.253282 
L 45.886571 58.492442 
L 46.4683 58.447114 
L 46.727796 58.13179 
L 46.890338 57.719189 
L 47.1774 57.378989 
L 47.439748 57.31732 
L 47.626053 57.432953 
L 47.789545 57.628589 
L 47.980603 57.802084 
L 48.235347 57.887876 
L 48.538568 57.909084 
L 49.115543 57.861849 
L 49.487203 57.882092 
L 50.065129 58.303424 
L 50.889244 58.502087 
L 51.066044 58.72586 
L 51.212426 59.001771 
L 51.547015 59.250722 
L 51.938636 59.442774 
L 52.358773 59.569217 
L 53.223761 59.703394 
L 53.678118 59.668642 
L 53.837808 59.453391 
L 53.881533 59.1301 
L 53.993696 58.773127 
L 54.328285 58.539701 
L 54.653368 58.759622 
L 54.913815 59.182207 
L 55.043088 59.561495 
L 55.037385 60.328132 
L 55.151449 60.613081 
L 55.524059 60.739639 
L 55.778803 60.680706 
L 56.746449 60.235416 
L 57.043016 60.014277 
L 57.242629 59.760352 
L 57.586723 59.166768 
L 58.157045 58.721036 
L 58.828124 58.691134 
L 59.552432 58.828114 
L 60.278642 58.875385 
L 60.491562 58.822325 
L 60.598022 58.809785 
L 60.742504 58.834867 
L 60.963028 58.905292 
L 61.253892 58.942918 
L 61.512438 58.891785 
L 61.632206 58.689204 
L 61.529548 58.542594 
L 61.408485 58.480259 
L 61.274804 58.411431 
L 60.742504 58.218568 
L 60.396509 58.023806 
L 60.265335 57.744249 
L 60.367993 57.480172 
L 61.95919 56.852967 
L 62.445865 56.478332 
L 62.712015 55.957494 
L 62.822277 55.610065 
L 62.991473 55.417625 
L 64.215764 54.895297 
L 64.525638 54.832786 
L 65.36483 54.798989 
L 65.504691 54.793357 
L 65.841181 54.823169 
L 66.010229 54.928422 
L 66.014178 54.930881 
L 65.940037 55.1194 
L 65.673886 55.187697 
L 65.360209 55.209822 
L 65.147289 55.257922 
L 65.060237 55.427578 
L 65.057939 55.432057 
L 65.291771 55.490749 
L 66.124441 55.460922 
L 66.394393 55.538859 
L 67.481806 56.031611 
L 67.979887 56.176008 
L 68.413332 56.105733 
L 68.787843 55.709183 
L 68.985555 55.238682 
L 69.004566 54.803935 
L 69.002574 54.800122 
L 68.890962 54.586481 
L 68.810656 54.432787 
L 68.80924 54.431996 
L 68.012206 53.986784 
L 67.850615 53.818612 
L 67.85058 53.816722 
L 67.846812 53.60915 
L 67.970382 53.306547 
L 67.972283 52.974248 
L 67.969429 52.970557 
L 67.574959 52.460605 
L 67.575447 52.458206 
L 67.637694 52.152519 
L 68.183302 51.963482 
L 68.795448 52.377097 
L 69.403791 52.923354 
L 69.93419 53.125981 
L 70.64329 53.198972 
L 71.939822 53.884917 
L 72.669834 53.852245 
L 72.953094 53.678326 
L 73.129893 53.449674 
L 73.215442 53.185526 
L 73.240156 52.910871 
L 73.382736 52.601716 
L 73.717325 52.603636 
L 74.394107 52.841737 
L 74.930209 52.651636 
L 75.14503 51.413804 
L 75.584178 50.896003 
L 76.228642 50.68415 
L 77.553689 50.424414 
L 79.13158 49.664686 
L 80.857754 49.17537 
L 81.730346 48.796305 
L 82.293064 48.226968 
L 82.196109 47.853929 
L 82.194682 47.853682 
L 82.042923 47.827383 
L 81.627688 47.755428 
L 80.544077 47.808025 
L 80.171467 47.606255 
L 79.916723 47.334731 
L 79.622057 47.181786 
L 78.260888 47.662671 
L 77.409208 48.116958 
L 77.173475 48.143742 
L 77.222903 47.835758 
L 77.143058 47.293625 
L 76.433958 47.14642 
L 74.06332 47.309876 
L 73.272474 47.237226 
L 72.559572 46.998276 
L 71.98925 46.522424 
L 71.200305 45.585587 
L 70.844804 45.480583 
L 70.388547 45.45672 
L 70.055859 45.325957 
L 70.059661 44.902267 
L 70.090078 44.790643 
L 70.080573 44.6962 
L 70.029244 44.619888 
L 69.93419 44.564564 
L 68.955138 44.492075 
L 68.434244 44.37572 
L 68.050227 44.192625 
L 67.52363 43.565352 
L 67.278392 43.438601 
L 66.941902 43.644458 
L 66.844947 43.777902 
L 66.633928 44.26319 
L 66.49515 44.348063 
L 65.818368 44.420544 
L 64.760747 44.66526 
L 64.202456 44.794459 
L 64.453398 44.354739 
L 64.578868 44.024812 
L 64.578868 43.663521 
L 64.409673 42.700277 
L 64.377355 42.174669 
L 64.289905 41.673077 
L 64.078886 41.319135 
L 63.609321 41.108912 
L 63.160668 41.162178 
L 62.732927 41.374313 
L 62.335603 41.64453 
L 61.786193 41.894818 
L 61.468714 41.767288 
L 61.187355 41.463744 
L 60.742504 41.184055 
L 59.28248 41.373362 
L 58.80341 41.197373 
L 58.706455 40.422371 
L 58.752081 39.63836 
L 58.645621 39.032405 
L 58.350954 38.488441 
L 56.62478 36.552849 
L 56.478398 36.45146 
L 56.324411 36.404085 
L 56.206544 36.481781 
L 56.193237 36.86844 
L 56.044953 36.966072 
L 55.871956 36.906354 
L 55.7731 36.611601 
L 55.575388 36.550006 
L 55.48984 36.651403 
L 55.413797 36.851379 
L 55.305436 37.001145 
L 55.130537 36.952801 
L 55.115329 36.730062 
L 55.45372 35.700313 
L 55.451819 35.318761 
L 55.354864 34.962882 
L 55.121032 34.718749 
L 54.718005 34.672388 
L 54.311175 34.79539 
L 54.088749 34.997897 
L 53.723743 35.70126 
L 53.725645 35.702207 
L 53.725645 35.705994 
L 53.910049 36.010945 
L 54.42714 36.510208 
L 54.495579 36.84664 
L 54.415734 37.212556 
L 54.153386 37.828039 
L 53.541241 38.824474 
L 53.033654 39.225176 
L 52.4063 39.318249 
L 51.611652 39.058992 
L 50.725752 38.433394 
L 50.47386 38.385942 
L 50.359795 38.619426 
L 50.523288 41.793935 
L 50.424432 42.433636 
L 50.011899 42.703134 
L 48.753389 41.881494 
L 48.293329 42.3289 
L 48.095618 42.682181 
L 47.850379 42.695515 
L 47.615597 42.505052 
L 47.439748 42.247022 
L 47.21352 41.553182 
L 47.004402 41.330551 
L 46.567155 41.302963 
L 46.186941 41.459939 
L 46.137513 41.714948 
L 46.226863 42.045207 
L 46.264885 42.431732 
L 46.084283 42.7879 
L 45.79532 42.639325 
L 45.329557 42.046158 
L 45.034891 41.865314 
L 44.348604 41.794887 
L 44.014015 41.653094 
L 43.635701 41.426639 
L 43.22507 41.283937 
L 42.350576 41.163129 
L 41.55973 41.253496 
L 41.192823 41.224007 
L 40.857284 40.983366 
L 40.60349 40.719 
L 40.30122 40.485113 
L 39.970433 40.303549 
L 39.616834 40.192342 
L 39.2024 40.222757 
L 38.844998 40.352027 
L 38.548431 40.387198 
L 38.320302 40.136267 
L 38.287984 39.815075 
L 38.559837 38.686822 
L 38.525618 38.299583 
L 38.350719 37.924799 
L 37.318437 36.586015 
L 37.008562 36.274287 
L 36.660666 36.111349 
L 36.035213 36.182395 
L 33.782442 37.154723 
L 33.155088 37.334869 
L 33.036525 37.3308 
L 32.713088 37.319698 
L 32.434581 37.125333 
L 31.984977 36.490309 
L 31.715976 36.228814 
L 31.408002 36.018522 
L 30.721715 35.705994 
L 30.717913 35.703153 
L 30.71411 35.702207 
L 30.712209 35.700313 
L 28.119146 35.483486 
L 27.440463 35.21653 
L 27.103973 34.626029 
L 27.490842 34.152135 
L 30.468872 32.848239 
L 31.565791 32.200836 
L 32.16653 31.984169 
L 32.721643 31.707138 
L 33.155088 31.225909 
L 33.693091 30.365371 
L 34.495344 29.663728 
L 36.31372 28.509678 
L 36.879289 28.259806 
L 38.711923 28.104074 
L 39.349733 27.924373 
L 39.554098 27.618662 
L 39.608279 26.5742 
L 39.92861 25.908617 
L 40.687138 25.760708 
L 41.592048 25.790289 
L 42.350576 25.656479 
L 44.949343 24.227789 
L 46.4683 23.903351 
L 47.152686 23.550417 
L 47.428341 22.873907 
L 47.367043 22.858849 
L 46.778174 22.714207 
L 44.198419 21.359279 
L 43.612888 21.182015 
L 43.029259 21.240944 
L 42.211798 21.679732 
L 41.810672 21.957218 
L 41.274569 21.862687 
L 40.891503 21.71342 
L 40.161491 21.180145 
L 40.060734 20.908456 
L 40.28411 20.628417 
L 40.726015 20.320483 
L 40.938079 20.172738 
L 41.533115 19.640174 
L 41.664289 19.430019 
L 41.618663 19.304411 
L 41.516005 19.183018 
L 41.481786 18.987884 
L 41.59585 18.638778 
L 41.806869 18.283714 
L 42.071119 17.980061 
L 42.350576 17.787928 
L 43.22602 18.19928 
L 43.525439 18.220271 
L 43.777331 18.119517 
L 43.951279 17.939953 
L 43.990251 17.726844 
L 43.835314 17.523565 
L 43.831512 17.523565 
L 43.829611 17.521701 
L 43.829611 17.519836 
L 43.188949 17.107796 
L 43.004545 16.934913 
L 42.829647 16.259013 
L 43.518785 15.952638 
L 45.107132 15.771086 
L 45.397045 15.556055 
L 45.49495 15.288486 
L 45.464533 14.578222 
L 45.51206 14.198852 
L 45.668899 14.018975 
L 46.36184 13.851672 
L 46.660308 13.708091 
L 46.888437 13.479514 
L 47.285761 12.954704 
L 47.599438 12.839092 
L 48.008168 12.931952 
L 48.445415 13.081007 
L 48.837036 13.13627 
L 49.164021 13.031784 
L 49.449182 12.829343 
L 49.692519 12.57402 
L 49.888329 12.309011 
L 50.213413 12.096955 
L 50.659214 12.084428 
L 51.547015 12.300658 
L 51.851187 12.204138 
L 52.045096 12.19161 
L 52.231401 12.261678 
L 52.957611 12.707245 
L 53.187641 12.773167 
L 53.50512 12.729992 
L 55.527861 11.793094 
L 56.132403 11.652093 
L 57.425132 11.604787 
L 58.063892 11.438306 
L 58.364262 11.393791 
L 58.649423 11.483749 
L 58.936485 11.621947 
L 59.240656 11.717025 
L 60.373696 11.922515 
L 62.502897 12.774095 
L 63.094131 12.897129 
L 63.371687 12.870664 
L 63.902087 12.687748 
L 64.183445 12.632043 
L 66.542677 12.70446 
L 67.757462 13.057789 
L 69.93419 14.115649 
L 70.578654 14.205825 
L 71.903701 14.192809 
L 74.515775 14.649833 
L 75.087998 14.877716 
L 75.523344 15.233584 
L 76.160203 16.087656 
L 76.629768 16.400123 
L 77.251419 16.611121 
L 77.87307 16.737832 
L 78.498523 16.754603 
L 80.857754 16.468122 
L 81.675215 16.487685 
L 82.367205 16.697301 
L 82.736014 16.902297 
L 83.036383 17.029972 
L 83.363368 17.094747 
L 84.67891 17.162788 
L 85.102849 17.276975 
L 85.382307 17.517971 
L 85.323373 18.069143 
L 85.342384 18.459133 
L 85.559107 18.691977 
L 87.237754 18.901998 
L 88.33087 19.226905 
L 88.849863 19.156874 
L 88.857468 18.831987 
L 88.849363 18.820587 
L 87.522915 16.956348 
L 87.239655 16.39174 
L 87.100876 15.788309 
L 87.150304 15.109832 
L 87.35562 14.471744 
L 88.33087 12.887378 
L 88.821347 12.111338 
L 88.885984 11.836232 
L 88.834655 11.509718 
L 88.608427 10.910273 
L 88.562801 10.608585 
L 88.627438 10.301419 
L 88.777623 10.043428 
L 89.155936 9.562806 
L 89.85363 8.110157 
L 90.060847 7.848511 
L 90.34981 7.663177 
L 91.222402 7.302303 
L 94.376282 6.368089 
L 94.693761 6.321929 
L 95.456091 6.343624 
L 96.144279 6.07824 
L 96.758326 4.850918 
L 97.31534 4.543954 
L 97.684148 4.637509 
L 98.347622 5.090187 
L 98.686013 5.169494 
L 101.583248 4.920987 
L 101.88742 4.798829 
L 101.936848 4.543954 
L 101.742938 4.237537 
L 101.241055 3.745604 
L 101.773355 3.957919 
L 102.710584 4.564692 
L 103.231478 4.717244 
L 103.839821 4.816345 
L 104.36832 5.005814 
L 105.320757 5.567959 
L 105.689565 5.705426 
L 106.465203 5.762631 
L 107.117271 6.075471 
L 107.871996 6.222232 
L 108.219893 6.362549 
L 108.474637 6.591988 
L 108.934696 7.161405 
L 109.197044 7.378997 
L 111.084809 8.421808 
L 111.725471 8.59848 
L 113.824255 8.852437 
L 115.400244 9.407273 
L 115.921138 9.736417 
L 116.445834 9.917002 
L 117.563665 10.164311 
L 118.080757 10.384805 
L 118.519905 10.631753 
L 119.632032 11.113761 
L 120.111102 11.193961 
L 121.335393 11.183762 
L 125.481633 11.57557 
L 126.205941 11.51992 
L 126.572848 11.552382 
L 127.759118 11.909989 
L 128.232485 11.895609 
L 128.768587 11.729084 
L 129.293283 11.457781 
L 129.73053 11.131377 
L 129.926341 10.900076 
L 130.521376 9.751234 
L 130.732395 9.613729 
L 131.009952 9.562343 
L 131.192006 9.551965 
L 132.146793 9.497535 
L 132.865399 9.571139 
L 134.310214 9.875326 
L 134.724648 9.894775 
L 135.928027 9.602156 
L 136.407097 9.5966 
L 137.753057 9.831799 
L 139.422199 9.831799 
L 141.003891 10.180985 
L 141.199702 10.159216 
L 141.564708 10.038797 
L 141.785232 10.030461 
L 141.975339 10.116605 
L 142.180655 10.403799 
L 142.357455 10.470976 
L 142.688241 10.397776 
L 143.237651 10.013789 
L 143.579845 9.906814 
L 144.064618 9.95127 
L 145.018957 10.243054 
L 145.501829 10.304199 
L 145.885846 10.237958 
L 146.593045 10.011473 
L 147.410506 10.02583 
L 147.762204 9.966089 
L 148.467502 9.693359 
L 148.543545 9.627155 
L 148.566358 9.546141 
L 148.608182 9.480408 
L 148.745059 9.457263 
L 149.079648 9.506793 
L 149.184207 9.500313 
L 149.326787 9.439211 
L 149.716507 9.109229 
L 150.072008 8.925536 
L 150.438915 8.882972 
L 151.252574 8.875569 
L 151.982586 8.669712 
L 152.341889 8.625307 
L 152.701191 8.738173 
L 154.788569 8.989848 
L 155.415923 9.155504 
L 155.619338 9.283695 
L 156.145935 9.816982 
L 156.42159 9.974425 
L 156.723861 10.030461 
L 157.032482 10.032712 
L 157.358819 10.035092 
L 159.170542 10.254634 
L 159.773182 10.129573 
L 160.552621 9.856804 
L 160.83398 9.812352 
L 161.11724 9.827169 
L 161.628629 9.953122 
L 162.360542 9.950344 
L 162.717943 10.086963 
L 163.039224 10.277795 
L 163.394725 10.42372 
L 163.700798 10.428816 
L 164.666543 10.093447 
L 165.050559 10.04065 
L 166.265345 10.074921 
L 167.504844 10.289375 
L 167.62081 10.39546 
L 167.696853 10.51499 
L 167.81662 10.614145 
L 168.033342 10.725821 
L 168.504808 10.572444 
L 168.810881 10.426963 
L 168.976274 10.375539 
L 169.392609 10.332457 
L 169.81845 10.367201 
L 170.229081 10.479778 
L 171.274671 10.924641 
L 172.092133 11.023832 
L 174.065446 10.892661 
L 174.90572 10.925568 
L 175.7555 10.838435 
L 176.111 10.885245 
L 176.865726 11.081775 
L 177.253545 11.098463 
L 177.569123 11.012708 
L 178.236399 10.703578 
L 178.620416 10.601171 
L 179.430273 10.557617 
L 180.654564 10.648435 
L 182.460583 11.103563 
L 183.21721 11.422076 
L 183.852168 11.80469 
L 184.167746 11.922515 
L 186.3901 12.084428 
L 187.865333 12.522035 
L 189.082019 12.572164 
L 189.79302 12.775024 
L 190.490714 12.792665 
L 191.924123 12.268174 
L 192.650332 12.167017 
L 193.112293 12.26307 
L 193.24917 12.444525 
L 193.144611 13.13627 
L 193.161721 13.55152 
L 193.268181 13.917196 
L 193.458288 14.254634 
L 193.718735 14.585197 
L 194.376506 15.065638 
L 195.832728 15.562571 
L 196.416357 16.010834 
L 197.250928 17.459699 
L 197.752811 17.953011 
L 198.686238 18.235199 
L 200.442829 18.315437 
L 201.925666 18.107389 
L 202.733622 18.129312 
L 206.807621 18.768514 
L 207.583258 19.146603 
L 207.838002 19.364178 
L 208.539498 20.122742 
L 209.733371 20.914067 
L 210.341715 21.501016 
L 210.828389 22.125239 
L 211.381601 22.671592 
z
" clip-path="url(#p59d4eae298)" style="stroke: #000000; stroke-linejoin: miter"/>
   </g>
   <g id="line2d_1">
    <path d="M 212.185755 23.019576 
L 212.29982 23.293634 
L 212.448103 24.179492 
L 213.035535 24.927606 
L 213.054545 25.274386 
L 212.569772 25.848043 
L 211.66296 26.079087 
L 207.045255 26.037289 
L 205.427442 26.427148 
L 204.87423 26.867421 
L 204.708836 27.18798 
L 204.330523 28.187348 
L 203.672752 28.648989 
L 201.161435 28.869756 
L 200.12535 29.416909 
L 198.933378 29.751352 
L 197.11215 30.600601 
L 196.680606 30.606259 
L 195.51715 30.329548 
L 194.794742 30.5676 
L 193.526727 31.388656 
L 193.133205 31.514623 
L 191.555315 31.881278 
L 189.485046 32.991367 
L 188.036429 33.275311 
L 186.378694 34.150244 
L 183.637347 34.992219 
L 183.25333 35.350947 
L 183.101244 35.80732 
L 182.918741 35.988213 
L 182.270476 36.209867 
L 180.916912 36.422088 
L 179.209749 37.411677 
L 178.14895 37.832782 
L 177.84668 38.117395 
L 177.770637 38.44763 
L 178.145148 39.487318 
L 177.956942 39.800823 
L 177.626155 40.015573 
L 176.593873 40.564972 
L 175.784151 41.595649 
L 175.033092 42.610755 
L 174.766942 42.836476 
L 172.580708 44.148763 
L 172.200494 44.116344 
L 171.48569 43.863696 
L 168.421161 43.62063 
L 167.805214 43.773136 
L 165.096185 44.835482 
L 161.870065 45.114094 
L 160.286471 44.567426 
L 159.259892 44.401469 
L 158.674362 44.426266 
L 157.60786 44.678075 
L 155.320869 44.567426 
L 154.763855 44.421497 
L 153.779099 44.03816 
L 153.277216 43.966655 
L 150.577693 44.538811 
L 148.845816 45.804215 
L 148.672818 46.153717 
L 148.919958 47.238182 
L 148.765971 47.61008 
L 148.478909 47.842453 
L 147.750798 48.154264 
L 147.142455 48.564712 
L 146.657681 49.131331 
L 146.344004 49.797821 
L 146.1596 51.978834 
L 145.950482 52.242729 
L 144.975232 52.826374 
L 144.51137 53.39684 
L 143.918235 54.705849 
L 143.505703 55.235796 
L 143.001918 55.619688 
L 141.399314 56.432113 
L 140.813784 56.876084 
L 140.507711 56.964705 
L 140.247264 56.734497 
L 139.770095 55.273314 
L 139.232091 55.141524 
L 137.524928 56.502406 
L 137.178933 56.438853 
L 136.140947 56.058564 
L 135.690393 56.091293 
L 134.049767 56.703678 
L 132.935739 57.793408 
L 132.139189 57.840641 
L 130.547991 57.583291 
L 130.152568 57.617023 
L 128.888355 57.927401 
L 128.576579 57.666177 
L 128.122223 56.517813 
L 128.088003 56.167344 
L 128.236287 55.809272 
L 128.658325 55.306023 
L 128.6146 54.973199 
L 128.4359 54.771239 
L 127.713492 54.159784 
L 127.582318 53.808042 
L 127.487264 52.757244 
L 127.156478 51.96732 
L 126.645089 51.578778 
L 125.981615 51.573023 
L 125.209779 51.927021 
L 121.006508 54.494317 
L 120.563558 54.599117 
L 120.255584 55.076115 
L 119.913391 55.140562 
L 118.886812 54.719312 
L 118.428653 54.777009 
L 117.065584 55.143448 
L 115.723427 54.804897 
L 113.706389 53.802277 
L 113.26252 53.896574 
L 112.945959 54.417405 
L 112.436472 55.522501 
L 112.569547 55.805422 
L 113.658862 56.675748 
L 113.810948 57.284559 
L 113.236824 57.401153 
L 111.282521 57.072598 
L 110.934625 57.189173 
L 109.681818 58.10865 
L 108.352968 58.762516 
L 106.719946 60.154295 
L 104.756138 61.399676 
L 104.092664 61.625887 
L 103.524243 61.694531 
L 102.328469 61.435442 
L 101.689708 61.324282 
L 101.035739 61.389044 
L 100.396979 61.595917 
L 99.231621 62.11131 
L 98.026341 62.241883 
L 97.334351 62.757533 
L 97.072003 63.225956 
L 96.923719 63.941497 
L 95.988391 64.915227 
L 95.758361 65.911993 
L 95.615781 66.06526 
L 94.862956 66.687242 
L 94.615817 67.394971 
L 94.63863 67.758207 
L 94.81733 68.129316 
L 95.994094 68.817407 
L 96.106258 69.21118 
L 96.191806 70.020485 
L 96.60624 71.029892 
L 96.511186 71.23245 
L 95.802086 71.626942 
L 95.570155 71.898772 
L 94.978922 73.24022 
L 94.655739 73.381658 
L 91.195787 73.756296 
L 90.674893 73.543598 
L 88.33087 73.446041 
L 86.321437 73.842166 
L 85.870882 74.090047 
L 85.562909 74.84178 
L 84.513517 74.999013 
L 82.646663 75.512837 
L 82.061133 75.548988 
L 80.633427 75.258831 
L 79.454762 75.655492 
L 77.983332 75.374105 
L 77.603117 75.351635 
L 76.529011 75.497205 
L 72.82192 74.773423 
L 72.314333 74.981433 
L 71.755418 75.438584 
L 71.455048 75.433699 
L 70.711729 75.128916 
L 70.510215 75.199244 
L 69.93419 75.687738 
L 69.323946 75.713145 
L 68.398123 75.598819 
L 67.31071 75.920324 
L 66.983725 76.015129 
L 66.7613 76.303494 
L 66.341163 77.322553 
L 65.584536 78.644955 
L 65.371092 78.652661 
L 65.012313 78.12602 
L 64.903952 77.680677 
L 64.082689 77.267766 
L 62.907826 77.032013 
L 62.742432 76.747404 
L 62.601753 75.867549 
L 62.396437 75.454216 
L 62.080859 75.257854 
L 61.744369 75.298883 
L 61.099905 75.579277 
L 60.103743 75.821617 
L 58.286318 76.843245 
L 57.615239 77.074074 
L 56.94226 77.136678 
L 56.58866 77.047663 
L 56.25217 76.842267 
L 55.984119 76.540097 
L 55.847242 76.163702 
L 55.885263 75.774709 
L 56.531628 75.055661 
L 56.600066 74.675776 
L 56.55254 74.187651 
L 56.387146 73.756296 
L 56.096282 73.547501 
L 55.731276 73.555305 
L 53.85872 73.869489 
L 52.967117 73.835335 
L 52.204786 73.558232 
L 51.822671 72.900831 
L 51.978559 72.607348 
L 52.545078 71.7799 
L 52.434816 71.476924 
L 51.83978 70.966599 
L 51.223833 70.667702 
L 50.887343 70.69496 
L 50.252385 70.930572 
L 49.422567 71.130193 
L 49.035698 71.429194 
L 48.141244 71.857847 
L 47.356101 72.50986 
L 47.128922 72.50791 
L 46.081431 72.347071 
L 45.29914 72.382161 
L 44.534909 72.54788 
L 43.928467 72.863776 
L 43.549203 73.387511 
L 42.94181 74.525415 
L 42.350576 74.765611 
L 41.847742 74.655272 
L 40.99321 74.2755 
L 40.646265 74.407285 
L 40.272704 74.658201 
L 39.829754 74.642578 
L 38.542728 75.007803 
L 37.983812 74.929672 
L 37.497138 74.699211 
L 37.21768 74.310642 
L 37.248097 73.306548 
L 37.071297 73.173896 
L 36.436044 72.88193 
L 35.820392 71.583104 
L 35.373639 71.314261 
L 35.050457 71.281146 
L 34.054295 71.355168 
L 33.155088 70.873125 
L 32.837609 70.904282 
L 31.558187 71.385362 
L 31.261619 71.441857 
L 30.689396 71.331792 
L 30.451762 71.402895 
L 28.484152 72.421152 
L 28.166673 72.326602 
L 28.136256 72.061506 
L 28.328264 71.063 
L 28.244617 70.712483 
L 28.067817 70.528499 
L 27.783607 70.700801 
L 27.117281 71.757491 
L 26.813109 71.837386 
L 25.119253 71.393155 
L 24.739039 71.487639 
L 23.986214 72.131673 
L 23.432051 71.930927 
L 22.680177 71.866617 
L 21.258175 72.097564 
L 20.543372 71.925081 
L 19.775338 71.577259 
L 19.049128 71.384388 
L 18.296304 71.314261 
L 16.374319 71.496406 
L 15.444695 72.072226 
L 14.76221 72.207692 
L 13.183369 72.205743 
L 12.634909 71.783797 
L 12.391572 71.966981 
L 12.231882 72.251551 
L 11.507573 72.486464 
L 11.247126 72.032271 
L 11.27184 69.430967 
L 11.134963 69.120748 
L 10.145455 68.053531 
L 10.205338 67.31049 
L 10.410654 66.589219 
L 11.758515 63.625797 
L 12.013258 63.666466 
L 12.555064 64.14006 
L 13.439063 65.328191 
L 15.208962 64.833813 
L 15.18805 64.585725 
L 14.777418 63.848523 
L 14.650046 63.498958 
L 14.501763 62.904623 
L 14.62153 62.425674 
L 15.659516 61.074931 
L 15.971292 61.450909 
L 16.568229 61.441242 
L 23.817019 59.422506 
L 24.461482 59.47559 
L 27.482287 60.916453 
L 28.819691 60.896162 
L 29.223669 61.054637 
L 30.3415 61.929497 
L 30.989766 61.994289 
L 31.691262 62.234145 
L 33.613246 62.519515 
L 34.042889 62.749792 
L 34.229194 63.081733 
L 33.959241 63.497989 
L 32.842361 64.203025 
L 32.618035 64.880334 
L 32.757763 65.127509 
L 33.155088 65.238026 
L 33.315728 65.075162 
L 33.590433 64.494642 
L 33.805255 64.408409 
L 34.982969 64.275681 
L 35.670207 63.834964 
L 35.917346 63.495085 
L 36.075135 62.846559 
L 36.138821 61.790253 
L 36.626446 61.430609 
L 38.052251 61.001487 
L 39.141566 60.384151 
L 39.215707 60.458525 
L 39.922906 60.165883 
L 40.90481 60.33779 
L 41.47038 60.188095 
L 42.088228 59.831793 
L 42.394301 59.37618 
L 42.015987 58.922658 
L 42.681363 58.396001 
L 43.749766 58.253282 
L 46.4683 58.447114 
L 46.727796 58.13179 
L 46.890338 57.719189 
L 47.1774 57.378989 
L 47.439748 57.31732 
L 47.789545 57.628589 
L 48.235347 57.887876 
L 49.487203 57.882092 
L 50.065129 58.303424 
L 50.889244 58.502087 
L 51.547015 59.250722 
L 52.358773 59.569217 
L 53.678118 59.668642 
L 53.837808 59.453391 
L 53.993696 58.773127 
L 54.328285 58.539701 
L 54.653368 58.759622 
L 55.043088 59.561495 
L 55.037385 60.328132 
L 55.151449 60.613081 
L 55.524059 60.739639 
L 55.778803 60.680706 
L 57.043016 60.014277 
L 58.157045 58.721036 
L 58.828124 58.691134 
L 60.278642 58.875385 
L 60.742504 58.834867 
L 61.253892 58.942918 
L 61.512438 58.891785 
L 61.632206 58.689204 
L 61.408485 58.480259 
L 60.396509 58.023806 
L 60.265335 57.744249 
L 60.367993 57.480172 
L 61.95919 56.852967 
L 62.445865 56.478332 
L 62.991473 55.417625 
L 64.525638 54.832786 
L 65.841181 54.823169 
L 66.014178 54.930881 
L 65.940037 55.1194 
L 65.057939 55.432057 
L 65.291771 55.490749 
L 66.394393 55.538859 
L 67.979887 56.176008 
L 68.413332 56.105733 
L 68.787843 55.709183 
L 68.985555 55.238682 
L 69.002574 54.800122 
L 68.80924 54.431996 
L 67.85058 53.816722 
L 67.846812 53.60915 
L 67.970382 53.306547 
L 67.969429 52.970557 
L 67.575447 52.458206 
L 67.637694 52.152519 
L 68.183302 51.963482 
L 68.795448 52.377097 
L 69.403791 52.923354 
L 69.93419 53.125981 
L 70.64329 53.198972 
L 71.939822 53.884917 
L 72.669834 53.852245 
L 73.129893 53.449674 
L 73.382736 52.601716 
L 73.717325 52.603636 
L 74.394107 52.841737 
L 74.930209 52.651636 
L 75.14503 51.413804 
L 75.584178 50.896003 
L 76.228642 50.68415 
L 77.553689 50.424414 
L 79.13158 49.664686 
L 80.857754 49.17537 
L 81.730346 48.796305 
L 82.293064 48.226968 
L 82.194682 47.853682 
L 81.627688 47.755428 
L 80.544077 47.808025 
L 80.171467 47.606255 
L 79.622057 47.181786 
L 78.260888 47.662671 
L 77.173475 48.143742 
L 77.222903 47.835758 
L 77.143058 47.293625 
L 76.433958 47.14642 
L 74.06332 47.309876 
L 73.272474 47.237226 
L 72.559572 46.998276 
L 71.98925 46.522424 
L 71.200305 45.585587 
L 70.055859 45.325957 
L 70.029244 44.619888 
L 69.93419 44.564564 
L 68.434244 44.37572 
L 68.050227 44.192625 
L 67.278392 43.438601 
L 66.844947 43.777902 
L 66.49515 44.348063 
L 65.818368 44.420544 
L 64.202456 44.794459 
L 64.578868 44.024812 
L 64.578868 43.663521 
L 64.078886 41.319135 
L 63.609321 41.108912 
L 63.160668 41.162178 
L 61.786193 41.894818 
L 61.468714 41.767288 
L 61.187355 41.463744 
L 60.742504 41.184055 
L 59.28248 41.373362 
L 58.80341 41.197373 
L 58.706455 40.422371 
L 58.752081 39.63836 
L 58.645621 39.032405 
L 58.350954 38.488441 
L 56.478398 36.45146 
L 56.206544 36.481781 
L 56.193237 36.86844 
L 56.044953 36.966072 
L 55.871956 36.906354 
L 55.7731 36.611601 
L 55.575388 36.550006 
L 55.130537 36.952801 
L 55.115329 36.730062 
L 55.45372 35.700313 
L 55.354864 34.962882 
L 55.121032 34.718749 
L 54.718005 34.672388 
L 54.311175 34.79539 
L 54.088749 34.997897 
L 53.725645 35.705994 
L 53.910049 36.010945 
L 54.42714 36.510208 
L 54.495579 36.84664 
L 54.415734 37.212556 
L 54.153386 37.828039 
L 53.541241 38.824474 
L 53.033654 39.225176 
L 52.4063 39.318249 
L 51.611652 39.058992 
L 50.47386 38.385942 
L 50.359795 38.619426 
L 50.523288 41.793935 
L 50.424432 42.433636 
L 50.011899 42.703134 
L 48.753389 41.881494 
L 48.293329 42.3289 
L 48.095618 42.682181 
L 47.850379 42.695515 
L 47.439748 42.247022 
L 47.21352 41.553182 
L 47.004402 41.330551 
L 46.567155 41.302963 
L 46.186941 41.459939 
L 46.137513 41.714948 
L 46.264885 42.431732 
L 46.084283 42.7879 
L 45.79532 42.639325 
L 45.329557 42.046158 
L 45.034891 41.865314 
L 44.014015 41.653094 
L 43.22507 41.283937 
L 42.350576 41.163129 
L 41.192823 41.224007 
L 39.616834 40.192342 
L 38.844998 40.352027 
L 38.548431 40.387198 
L 38.320302 40.136267 
L 38.287984 39.815075 
L 38.559837 38.686822 
L 38.525618 38.299583 
L 38.350719 37.924799 
L 37.008562 36.274287 
L 36.660666 36.111349 
L 36.035213 36.182395 
L 33.155088 37.334869 
L 32.713088 37.319698 
L 32.434581 37.125333 
L 31.715976 36.228814 
L 31.408002 36.018522 
L 30.712209 35.700313 
L 28.119146 35.483486 
L 27.440463 35.21653 
L 27.103973 34.626029 
L 27.490842 34.152135 
L 30.468872 32.848239 
L 31.565791 32.200836 
L 32.721643 31.707138 
L 33.155088 31.225909 
L 33.693091 30.365371 
L 34.495344 29.663728 
L 36.879289 28.259806 
L 38.711923 28.104074 
L 39.349733 27.924373 
L 39.554098 27.618662 
L 39.608279 26.5742 
L 39.92861 25.908617 
L 40.687138 25.760708 
L 41.592048 25.790289 
L 42.350576 25.656479 
L 44.949343 24.227789 
L 46.4683 23.903351 
L 47.152686 23.550417 
L 47.428341 22.873907 
L 47.367043 22.858849 
L 46.778174 22.714207 
L 44.198419 21.359279 
L 43.612888 21.182015 
L 43.029259 21.240944 
L 41.810672 21.957218 
L 40.891503 21.71342 
L 40.161491 21.180145 
L 40.060734 20.908456 
L 40.28411 20.628417 
L 41.533115 19.640174 
L 41.618663 19.304411 
L 41.481786 18.987884 
L 41.806869 18.283714 
L 42.350576 17.787928 
L 43.525439 18.220271 
L 43.951279 17.939953 
L 43.990251 17.726844 
L 43.829611 17.519836 
L 43.004545 16.934913 
L 42.829647 16.259013 
L 43.518785 15.952638 
L 45.107132 15.771086 
L 45.397045 15.556055 
L 45.49495 15.288486 
L 45.51206 14.198852 
L 45.668899 14.018975 
L 46.660308 13.708091 
L 47.599438 12.839092 
L 48.837036 13.13627 
L 49.449182 12.829343 
L 50.213413 12.096955 
L 50.659214 12.084428 
L 51.547015 12.300658 
L 52.045096 12.19161 
L 52.231401 12.261678 
L 53.187641 12.773167 
L 53.50512 12.729992 
L 55.527861 11.793094 
L 56.132403 11.652093 
L 57.425132 11.604787 
L 58.364262 11.393791 
L 63.371687 12.870664 
L 64.183445 12.632043 
L 66.542677 12.70446 
L 67.757462 13.057789 
L 69.93419 14.115649 
L 70.578654 14.205825 
L 71.903701 14.192809 
L 74.515775 14.649833 
L 75.087998 14.877716 
L 75.523344 15.233584 
L 76.160203 16.087656 
L 76.629768 16.400123 
L 77.87307 16.737832 
L 78.498523 16.754603 
L 80.857754 16.468122 
L 81.675215 16.487685 
L 82.736014 16.902297 
L 83.363368 17.094747 
L 85.102849 17.276975 
L 85.382307 17.517971 
L 85.342384 18.459133 
L 85.559107 18.691977 
L 87.237754 18.901998 
L 88.33087 19.226905 
L 88.849863 19.156874 
L 88.849363 18.820587 
L 87.239655 16.39174 
L 87.100876 15.788309 
L 87.150304 15.109832 
L 87.35562 14.471744 
L 88.885984 11.836232 
L 88.834655 11.509718 
L 88.562801 10.608585 
L 88.777623 10.043428 
L 89.155936 9.562806 
L 90.060847 7.848511 
L 90.34981 7.663177 
L 91.222402 7.302303 
L 94.693761 6.321929 
L 95.456091 6.343624 
L 96.144279 6.07824 
L 96.758326 4.850918 
L 97.31534 4.543954 
L 97.684148 4.637509 
L 98.347622 5.090187 
L 98.686013 5.169494 
L 101.88742 4.798829 
L 101.936848 4.543954 
L 101.742938 4.237537 
L 101.241055 3.745604 
L 101.773355 3.957919 
L 102.710584 4.564692 
L 104.36832 5.005814 
L 105.689565 5.705426 
L 106.465203 5.762631 
L 107.117271 6.075471 
L 108.219893 6.362549 
L 108.474637 6.591988 
L 109.197044 7.378997 
L 111.084809 8.421808 
L 111.725471 8.59848 
L 113.824255 8.852437 
L 115.400244 9.407273 
L 115.921138 9.736417 
L 116.445834 9.917002 
L 118.080757 10.384805 
L 118.519905 10.631753 
L 119.632032 11.113761 
L 120.111102 11.193961 
L 121.335393 11.183762 
L 125.481633 11.57557 
L 126.572848 11.552382 
L 127.759118 11.909989 
L 128.232485 11.895609 
L 129.293283 11.457781 
L 129.926341 10.900076 
L 130.521376 9.751234 
L 131.009952 9.562343 
L 132.146793 9.497535 
L 132.865399 9.571139 
L 134.724648 9.894775 
L 136.407097 9.5966 
L 137.753057 9.831799 
L 139.422199 9.831799 
L 141.199702 10.159216 
L 141.785232 10.030461 
L 141.975339 10.116605 
L 142.357455 10.470976 
L 142.688241 10.397776 
L 143.579845 9.906814 
L 144.064618 9.95127 
L 145.501829 10.304199 
L 148.467502 9.693359 
L 148.745059 9.457263 
L 149.326787 9.439211 
L 150.072008 8.925536 
L 152.341889 8.625307 
L 152.701191 8.738173 
L 155.415923 9.155504 
L 155.619338 9.283695 
L 156.42159 9.974425 
L 157.032482 10.032712 
L 157.358819 10.035092 
L 159.170542 10.254634 
L 161.11724 9.827169 
L 161.628629 9.953122 
L 162.360542 9.950344 
L 163.700798 10.428816 
L 165.050559 10.04065 
L 166.265345 10.074921 
L 167.62081 10.39546 
L 167.81662 10.614145 
L 168.033342 10.725821 
L 169.392609 10.332457 
L 170.229081 10.479778 
L 171.274671 10.924641 
L 172.092133 11.023832 
L 175.7555 10.838435 
L 177.569123 11.012708 
L 178.620416 10.601171 
L 179.430273 10.557617 
L 180.654564 10.648435 
L 182.460583 11.103563 
L 184.167746 11.922515 
L 186.3901 12.084428 
L 187.865333 12.522035 
L 189.082019 12.572164 
L 189.79302 12.775024 
L 190.490714 12.792665 
L 191.924123 12.268174 
L 192.650332 12.167017 
L 193.112293 12.26307 
L 193.24917 12.444525 
L 193.161721 13.55152 
L 193.458288 14.254634 
L 193.718735 14.585197 
L 194.376506 15.065638 
L 195.832728 15.562571 
L 196.416357 16.010834 
L 197.250928 17.459699 
L 197.752811 17.953011 
L 198.686238 18.235199 
L 200.442829 18.315437 
L 201.925666 18.107389 
L 202.733622 18.129312 
L 206.807621 18.768514 
L 207.838002 19.364178 
L 208.539498 20.122742 
L 209.733371 20.914067 
L 210.341715 21.501016 
L 211.381601 22.671592 
L 212.185755 23.019576 
L 212.185755 23.019576 
" clip-path="url(#p59d4eae298)" style="fill: none; stroke: #000000; stroke-width: 0.5; stroke-linecap: square"/>
   </g>
  </g>
 </g>
 <defs>
  <clipPath id="p59d4eae298">
   <rect x="0" y="-0" width="223.2" height="82.40329"/>
  </clipPath>
 </defs>
</svg>
