<?xml version="1.0" encoding="utf-8" standalone="no"?>
<!DOCTYPE svg PUBLIC "-//W3C//DTD SVG 1.1//EN"
  "http://www.w3.org/Graphics/SVG/1.1/DTD/svg11.dtd">
<svg xmlns:xlink="http://www.w3.org/1999/xlink" width="155.649378pt" height="221.76pt" viewBox="0 0 155.649378 221.76" xmlns="http://www.w3.org/2000/svg" version="1.1">
 <metadata>
  <rdf:RDF xmlns:dc="http://purl.org/dc/elements/1.1/" xmlns:cc="http://creativecommons.org/ns#" xmlns:rdf="http://www.w3.org/1999/02/22-rdf-syntax-ns#">
   <cc:Work>
    <dc:type rdf:resource="http://purl.org/dc/dcmitype/StillImage"/>
    <dc:date>2026-04-26T19:21:57.893430</dc:date>
    <dc:format>image/svg+xml</dc:format>
    <dc:creator>
     <cc:Agent>
      <dc:title>Matplotlib v3.10.9, https://matplotlib.org/</dc:title>
     </cc:Agent>
    </dc:creator>
   </cc:Work>
  </rdf:RDF>
 </metadata>
 <defs>
  <style type="text/css">*{stroke-linejoin: round; stroke-linecap: butt}</style>
 </defs>
 <g id="figure_1">
  <g id="patch_1">
   <path d="M 0 221.76 
L 155.649378 221.76 
L 155.649378 0 
L 0 0 
z
" style="fill: #ffffff"/>
  </g>
  <g id="axes_1">
   <g id="patch_2">
    <path d="M 44.876181 12.33504 
L 45.002765 12.653427 
L 45.113888 12.880696 
L 45.301348 13.604038 
L 45.353528 13.685735 
L 45.515864 13.825453 
L 45.57674 13.926101 
L 45.57674 14.050436 
L 45.514898 14.321619 
L 45.543886 14.462549 
L 45.815414 14.807201 
L 46.13912 15.065417 
L 46.407748 15.361562 
L 46.527568 15.821231 
L 46.887994 16.211053 
L 48.01372 16.861649 
L 49.352996 18.360047 
L 49.939533 18.7644 
L 50.114431 18.952956 
L 50.238116 19.196079 
L 50.421711 19.765413 
L 50.551194 20.024018 
L 50.933844 20.363319 
L 51.401528 20.671804 
L 51.686583 20.961332 
L 51.522314 21.248511 
L 51.469168 21.314969 
L 51.428584 21.387363 
L 51.39573 21.470439 
L 51.378337 21.559452 
L 51.596718 22.427155 
L 52.304041 22.849811 
L 53.133117 23.165651 
L 53.709025 23.719037 
L 54.346775 25.390435 
L 54.523606 26.330441 
L 54.433741 27.679707 
L 54.473359 28.205293 
L 54.565157 28.726203 
L 54.686909 29.085416 
L 54.824122 29.320948 
L 54.876302 29.355446 
L 54.950706 29.306672 
L 55.939219 29.28645 
L 56.14214 29.231729 
L 56.721913 28.789241 
L 57.143215 28.168428 
L 57.367394 27.431211 
L 57.413775 25.581742 
L 57.742314 25.219337 
L 58.111436 25.559165 
L 58.269907 26.60976 
L 58.212896 27.526327 
L 58.273772 27.971028 
L 58.498917 28.246915 
L 58.822624 28.219563 
L 60.178327 27.542972 
L 60.283652 27.452612 
L 60.380281 27.495414 
L 60.533921 27.79861 
L 60.606393 28.049511 
L 60.641179 28.314701 
L 60.623786 29.895569 
L 60.685629 30.453628 
L 60.872122 30.958221 
L 60.887583 31.02249 
L 60.894347 31.089141 
L 60.887583 31.154603 
L 60.872122 31.220067 
L 60.498169 31.635491 
L 59.796643 32.642718 
L 59.392734 33.064269 
L 58.545299 34.674739 
L 58.827456 34.518662 
L 59.201409 34.244651 
L 59.564734 34.045709 
L 59.823699 34.105271 
L 59.800508 34.36974 
L 59.184016 35.529118 
L 59.105747 36.001083 
L 59.090286 37.056086 
L 59.022646 37.44479 
L 58.794602 37.710707 
L 58.161683 37.893164 
L 57.855369 38.16985 
L 57.640853 38.609969 
L 57.787729 38.70778 
L 58.143323 38.664838 
L 58.554962 38.682731 
L 58.83422 38.809173 
L 59.077724 39.007197 
L 59.259387 39.254145 
L 59.355049 39.527359 
L 59.332825 39.737355 
L 59.168555 40.196766 
L 59.168555 40.419929 
L 59.282578 40.651462 
L 59.410128 40.694429 
L 59.564734 40.702783 
L 59.756059 40.836461 
L 59.965744 41.223199 
L 59.970421 41.246682 
L 60.146439 42.130529 
L 60.274956 42.535322 
L 60.361922 42.74311 
L 60.45082 42.901945 
L 60.598663 42.97599 
L 60.872122 42.932996 
L 61.340772 43.170666 
L 61.62776 43.56005 
L 62.050028 44.601804 
L 62.631734 46.086117 
L 62.977665 46.763945 
L 63.512023 47.541155 
L 63.787415 47.853282 
L 63.906268 47.956135 
L 64.104358 48.058991 
L 64.442559 48.112812 
L 64.632917 48.170222 
L 64.790422 48.265907 
L 65.041657 48.480012 
L 65.225252 48.55537 
L 65.443633 48.560155 
L 65.579032 48.51271 
L 65.808891 48.432166 
L 65.977025 48.413028 
L 66.281406 48.513504 
L 67.336593 49.173848 
L 67.857422 49.37724 
L 68.056478 49.408348 
L 68.158904 49.41074 
L 68.632279 49.25638 
L 68.66524 49.245632 
L 69.045957 48.994395 
L 69.177373 48.850839 
L 69.234384 48.704896 
L 69.332945 48.645085 
L 69.59191 48.759923 
L 69.818988 49.024303 
L 70.161054 49.798416 
L 70.362042 50.098774 
L 70.506986 50.224429 
L 70.655794 50.320169 
L 70.817164 50.375221 
L 71.006557 50.384795 
L 71.007523 50.389583 
L 72.163204 50.678021 
L 72.526529 50.922195 
L 73.249313 51.837993 
L 73.659019 52.257063 
L 73.718929 52.349265 
L 73.798165 52.406743 
L 74.003018 52.447457 
L 74.173085 52.421113 
L 74.401129 52.331304 
L 74.604049 52.210364 
L 74.712274 52.095416 
L 74.702611 51.907435 
L 74.513218 51.45728 
L 74.490027 51.238208 
L 74.580858 50.934164 
L 74.696813 50.843195 
L 74.857217 50.81806 
L 75.08816 50.723503 
L 75.465979 50.445832 
L 75.541349 50.287857 
L 75.477574 50.06407 
L 75.43699 49.590215 
L 75.506563 49.216918 
L 75.664068 48.74796 
L 75.858292 48.316143 
L 76.04092 48.060187 
L 76.248672 47.977663 
L 76.627458 48.038658 
L 76.81685 48.020718 
L 76.984018 47.914276 
L 77.25941 47.624865 
L 77.411118 47.513651 
L 78.786146 46.999481 
L 79.161066 46.803399 
L 79.350459 46.747207 
L 79.56884 46.755576 
L 80.252972 46.622869 
L 81.114902 45.449053 
L 81.780675 45.394077 
L 81.909191 45.475346 
L 82.191347 45.721554 
L 82.347886 45.811197 
L 82.524717 45.84586 
L 82.948917 45.855422 
L 83.147973 45.890085 
L 83.680398 46.118392 
L 83.818577 46.221194 
L 83.927768 46.401703 
L 84.122958 46.878722 
L 84.188666 46.994699 
L 84.319115 46.987525 
L 84.740416 46.850027 
L 84.917247 46.834484 
L 85.086348 46.897852 
L 85.270909 47.00546 
L 85.438077 47.139376 
L 85.576256 47.276884 
L 85.799469 47.628452 
L 86.099018 48.340065 
L 86.344456 48.683364 
L 86.500028 48.807773 
L 86.792813 48.936972 
L 86.935824 49.051819 
L 87.036318 49.2229 
L 87.191891 49.624914 
L 87.33007 49.796023 
L 87.708855 49.930044 
L 88.135955 49.916881 
L 88.518605 49.96714 
L 88.771772 50.29025 
L 88.94957 51.017953 
L 89.260714 51.391437 
L 90.22507 51.932579 
L 91.287988 52.354055 
L 91.558549 52.679775 
L 91.537523 52.769627 
L 91.40974 53.315732 
L 90.20188 55.248243 
L 89.792173 55.629355 
L 89.326422 55.79955 
L 88.83748 55.701268 
L 88.375594 55.273409 
L 87.979416 56.181919 
L 87.977483 56.181919 
L 86.906835 57.039099 
L 86.783151 57.474359 
L 87.376452 57.916868 
L 88.13982 58.139941 
L 90.816439 58.070379 
L 91.075404 58.238289 
L 91.504437 58.936399 
L 91.805919 59.190126 
L 92.516141 59.515859 
L 92.787668 59.766627 
L 92.857241 59.950814 
L 92.914252 60.214212 
L 92.944207 60.486029 
L 92.931645 60.694256 
L 92.805061 61.009319 
L 92.660118 61.059732 
L 92.505512 61.05013 
L 92.34704 61.191768 
L 92.275535 61.49727 
L 92.246546 61.970278 
L 92.265872 62.442146 
L 92.341242 62.74655 
L 92.973195 63.121837 
L 93.772316 62.930886 
L 94.617818 62.599448 
L 95.37249 62.553818 
L 97.03354 63.614871 
L 97.051899 63.789641 
L 96.948506 64.038897 
L 96.975562 64.560888 
L 97.227764 65.000642 
L 97.947649 65.557017 
L 98.088727 65.922372 
L 98.027851 66.014918 
L 97.771784 66.075014 
L 97.706077 66.131505 
L 97.700279 66.27454 
L 97.752459 66.478284 
L 97.787245 66.909247 
L 97.846189 67.191775 
L 97.879042 67.476728 
L 97.80947 67.797177 
L 97.738375 67.869911 
L 97.551471 68.061131 
L 97.304101 68.105627 
L 96.751384 68.029865 
L 96.394823 68.096006 
L 96.304958 68.210253 
L 96.270172 68.410494 
L 96.097206 68.73463 
L 95.674938 69.114729 
L 94.652605 69.83173 
L 94.299909 70.357536 
L 94.182989 70.788343 
L 94.279617 70.917715 
L 94.832334 70.959235 
L 95.186962 71.098843 
L 95.325142 71.228827 
L 95.329973 71.440663 
L 95.296153 71.827054 
L 95.107727 72.561424 
L 94.737638 72.886519 
L 94.279617 73.129154 
L 93.831259 73.615072 
L 93.476632 73.742734 
L 93.222498 73.777661 
L 92.988656 73.852936 
L 92.694904 74.104064 
L 92.453332 74.417846 
L 92.298726 74.726836 
L 91.705425 76.589735 
L 91.541156 76.838029 
L 91.367224 76.860328 
L 91.046416 76.639151 
L 90.886012 76.59094 
L 90.717878 76.65482 
L 90.429924 76.884435 
L 90.267587 76.966401 
L 89.830825 77.026068 
L 89.513882 76.94591 
L 88.452897 76.191413 
L 87.979416 75.943763 
L 87.822877 75.826271 
L 87.558114 75.508758 
L 87.380317 75.219585 
L 87.161936 75.022598 
L 86.787016 74.971998 
L 86.447848 75.075609 
L 85.576256 75.731677 
L 85.235156 75.055127 
L 84.582911 74.79189 
L 84.336508 74.539512 
L 83.798686 74.712518 
L 83.012692 74.965371 
L 82.603952 74.971998 
L 82.509256 75.088862 
L 82.382672 75.241272 
L 82.246426 75.588887 
L 82.097617 75.731677 
L 81.714001 75.800965 
L 81.358406 75.658172 
L 80.461691 75.112355 
L 80.247175 75.039465 
L 80.073243 75.12862 
L 79.965018 75.497913 
L 80.0114 75.786505 
L 80.379556 77.00196 
L 80.596005 77.337077 
L 81.180609 77.754205 
L 81.393193 77.964594 
L 81.513013 78.343807 
L 81.53717 78.744763 
L 81.598046 79.127671 
L 81.812562 79.447895 
L 81.815461 79.449101 
L 81.737192 79.725926 
L 81.574855 79.827856 
L 81.373867 79.880933 
L 81.186407 80.014834 
L 81.065621 80.265159 
L 80.988318 80.804466 
L 80.925509 81.037345 
L 80.780566 81.366777 
L 80.770903 81.377638 
L 80.711959 81.290149 
L 80.436567 81.329368 
L 79.993041 81.517626 
L 79.56884 81.780719 
L 79.172662 81.890548 
L 78.952348 82.115043 
L 78.583226 82.782568 
L 78.295272 83.039107 
L 77.624667 83.387423 
L 77.376331 83.613815 
L 77.220759 84.017731 
L 77.410151 84.124604 
L 77.750285 84.113735 
L 78.047902 84.158417 
L 78.295272 84.715776 
L 78.389968 84.88004 
L 78.521383 84.99358 
L 78.991966 85.287107 
L 79.545649 85.761869 
L 79.56884 85.761869 
L 79.965018 85.56193 
L 80.357331 85.537769 
L 80.741914 85.645891 
L 82.817502 86.753256 
L 83.567342 87.368392 
L 83.759634 87.593805 
L 83.827274 88.059174 
L 83.829206 88.477449 
L 83.993475 88.674513 
L 84.534597 88.484098 
L 84.909394 88.595379 
L 84.915315 88.597137 
L 85.184909 88.844987 
L 85.426481 89.148474 
L 85.718301 89.42538 
L 86.075827 89.617049 
L 86.396635 89.740399 
L 86.696185 89.911524 
L 87.011195 90.246538 
L 87.548451 91.213038 
L 87.782293 91.42778 
L 88.115662 91.5161 
L 88.696402 91.444113 
L 89.048131 91.554211 
L 89.361208 91.781676 
L 89.589253 92.053925 
L 90.232801 93.214518 
L 90.453115 93.456603 
L 91.081202 93.863339 
L 91.348864 94.107278 
L 91.858098 94.724155 
L 92.138322 94.954222 
L 92.327714 95.020822 
L 92.689106 95.055939 
L 92.874634 95.136468 
L 92.973195 95.264227 
L 93.191576 95.659033 
L 93.33652 95.80861 
L 93.554901 95.904293 
L 94.320201 96.034499 
L 95.044918 96.299768 
L 95.301951 96.33429 
L 96.37743 96.233146 
L 96.87217 96.405759 
L 97.056731 96.990276 
L 97.252887 97.227135 
L 97.580459 97.330727 
L 97.947649 97.318611 
L 98.264591 97.215625 
L 98.569939 97.287109 
L 99.508205 97.943854 
L 99.961394 98.140172 
L 100.193303 98.11957 
L 100.411685 98.048071 
L 100.6291 98.012928 
L 100.861009 98.10018 
L 101.392468 99.161901 
L 101.799275 99.49223 
L 101.92296 99.689834 
L 101.92296 99.977045 
L 101.92296 100.058397 
L 101.784781 100.449426 
L 101.597321 100.482165 
L 101.377973 100.396074 
L 101.149929 100.43245 
L 100.878402 100.856863 
L 100.632965 101.552995 
L 100.34791 102.853403 
L 100.249348 103.825945 
L 100.451303 104.479491 
L 100.885166 104.982009 
L 101.473636 105.497942 
L 101.799275 105.901022 
L 101.78768 106.18575 
L 101.670759 106.497214 
L 101.68332 106.986009 
L 101.861118 107.292674 
L 102.769429 107.972883 
L 102.876687 108.138701 
L 103.040956 108.502551 
L 103.165607 108.640445 
L 103.36273 108.712736 
L 103.558041 108.687277 
L 104.047829 108.623436 
L 104.139626 108.547503 
L 104.223693 108.563297 
L 104.350277 108.814794 
L 104.379266 109.076028 
L 104.25848 109.639862 
L 104.271041 109.906616 
L 104.468164 110.248742 
L 104.772545 110.507026 
L 105.113645 110.68206 
L 105.409329 110.773835 
L 105.547509 110.856494 
L 105.589059 110.954958 
L 105.641239 110.980486 
L 105.812272 110.845554 
L 105.888608 110.679021 
L 105.973642 110.157586 
L 106.083799 109.939429 
L 106.421033 109.758957 
L 106.820111 109.790554 
L 107.195031 109.974674 
L 107.481052 110.251173 
L 107.595074 110.462053 
L 107.745815 111.101443 
L 107.751613 111.244894 
L 107.712961 111.367682 
L 107.670445 111.458255 
L 107.654984 111.512965 
L 107.740984 111.599287 
L 107.953567 111.660077 
L 108.029904 111.728772 
L 108.337184 112.559883 
L 108.489857 112.722841 
L 108.816463 112.93871 
L 108.973002 113.121751 
L 109.073496 113.380819 
L 109.142102 113.917249 
L 109.212641 114.148385 
L 109.340191 114.315054 
L 109.782751 114.609479 
L 109.782751 114.613129 
L 110.037385 115.235002 
L 110.086166 115.354146 
L 109.86392 117.144556 
L 110.070705 117.942023 
L 110.795422 118.746945 
L 111.278566 119.855328 
L 111.69407 120.53877 
L 111.86607 120.927442 
L 112.101844 121.826761 
L 112.27481 122.20336 
L 112.502854 122.42641 
L 113.477839 122.944466 
L 114.084668 123.428447 
L 114.57361 123.984421 
L 115.791134 125.90039 
L 116.184413 126.398118 
L 116.187312 126.398118 
L 117.813576 128.788728 
L 120.920194 132.028297 
L 121.328934 132.290936 
L 121.600461 132.32392 
L 121.816909 132.156561 
L 122.088436 131.819419 
L 122.171537 131.622764 
L 122.216953 131.41879 
L 122.313582 131.275891 
L 122.550322 131.261235 
L 122.773535 131.380927 
L 122.813153 131.575129 
L 122.794793 131.825526 
L 122.83731 132.113806 
L 122.933939 132.276277 
L 123.192904 132.606123 
L 123.259578 132.744177 
L 123.245084 132.961652 
L 123.093377 133.33798 
L 123.077916 133.584811 
L 123.181309 133.940417 
L 123.745621 135.074633 
L 124.645236 136.09665 
L 124.837527 136.507478 
L 124.826898 136.644429 
L 124.706112 136.893886 
L 124.691618 137.000277 
L 125.007465 137.770283 
L 125.097459 137.989703 
L 125.144807 138.215993 
L 125.144807 138.21844 
L 125.311009 138.3848 
L 125.627952 138.579304 
L 125.989343 138.742007 
L 126.311118 138.810516 
L 126.743049 138.970781 
L 127.260979 138.371344 
L 127.427181 138.764028 
L 127.429536 139.285401 
L 127.458102 145.613872 
L 127.562461 146.192197 
L 127.732528 146.69829 
L 128.156729 147.273073 
L 128.511357 147.53659 
L 128.888209 147.722899 
L 129.138478 147.74864 
L 129.423533 147.911667 
L 129.500836 148.180123 
L 129.41387 149.450289 
L 129.441893 149.721286 
L 129.703757 150.659472 
L 129.993643 151.286261 
L 130.409147 151.678812 
L 130.96573 151.56963 
L 130.963797 151.827254 
L 131.022741 151.933988 
L 131.149324 151.924173 
L 131.334852 151.829708 
L 131.50514 151.669767 
L 131.524244 151.651823 
L 131.559031 151.472718 
L 131.562896 151.289941 
L 131.647929 151.094903 
L 132.152332 150.699947 
L 132.362017 150.45465 
L 132.438353 150.059747 
L 132.839363 149.232032 
L 133.284822 149.254102 
L 133.609495 149.870893 
L 133.661675 150.825054 
L 133.582439 151.61502 
L 133.559248 151.678812 
L 133.500305 151.756099 
L 133.456822 151.857925 
L 133.456822 151.992877 
L 133.531226 152.060354 
L 133.655877 152.007599 
L 133.773764 151.929081 
L 133.838506 151.913132 
L 134.065583 152.557264 
L 134.239515 152.850527 
L 134.562256 153.178168 
L 135.020277 153.487423 
L 135.142029 153.619967 
L 135.228995 153.853155 
L 135.29277 154.387076 
L 135.339152 154.547878 
L 135.54014 154.718506 
L 135.781712 154.755333 
L 136.419462 154.729554 
L 137.149977 154.828988 
L 137.422745 154.934092 
L 137.471751 154.952976 
L 137.817682 155.165359 
L 138.176175 155.488248 
L 138.336579 155.793969 
L 138.535634 157.068632 
L 138.644825 157.371998 
L 138.694453 157.45348 
L 138.807161 157.638533 
L 139.038104 157.898942 
L 139.324126 158.116369 
L 139.577293 158.203588 
L 139.838191 158.256412 
L 140.130977 158.359604 
L 140.61702 158.760109 
L 141.310815 159.848765 
L 141.74178 160.320674 
L 142.263576 160.513629 
L 142.80663 160.43743 
L 143.846356 160.109293 
L 144.211614 160.094545 
L 144.297613 160.210066 
L 144.256063 160.482904 
L 144.253648 160.528241 
L 144.231906 160.936437 
L 144.317905 161.208086 
L 144.445455 161.397388 
L 144.46768 161.610055 
L 144.242535 161.944441 
L 143.968109 162.238276 
L 143.455976 163.374442 
L 143.17382 163.772901 
L 142.903259 163.934015 
L 142.190138 164.087755 
L 141.855802 164.24765 
L 140.558076 165.285861 
L 140.400571 165.338762 
L 140.229538 165.303085 
L 140.056573 165.199745 
L 139.865247 165.129624 
L 139.634305 165.193594 
L 139.428485 165.451946 
L 138.959835 166.74391 
L 138.933745 167.239867 
L 139.148261 167.590636 
L 140.177359 168.334103 
L 140.371583 168.588926 
L 140.452751 168.932403 
L 140.537784 169.920495 
L 140.622818 170.297314 
L 140.802547 170.631673 
L 141.114659 170.927873 
L 141.82778 171.378672 
L 142.068385 171.641041 
L 143.057865 173.850781 
L 143.287842 174.030092 
L 143.419257 173.935198 
L 143.537144 173.721386 
L 143.72557 173.551945 
L 143.859884 173.547015 
L 144.231906 173.664083 
L 144.341096 173.623417 
L 144.434826 173.537157 
L 144.526624 173.563035 
L 144.62905 173.854478 
L 144.687028 174.035021 
L 144.768196 174.129301 
L 144.875454 174.129917 
L 145.010734 174.03687 
L 145.266801 174.200165 
L 145.317048 174.674676 
L 145.307385 175.237368 
L 145.387587 175.663897 
L 145.737383 175.917242 
L 146.540369 175.766219 
L 146.868907 175.874092 
L 146.928844 176.069184 
L 146.953941 176.150873 
L 146.994525 177.067009 
L 147.120142 177.493691 
L 147.342389 177.797693 
L 148.176296 178.579671 
L 148.447823 178.947883 
L 148.569575 179.279112 
L 148.574406 179.646757 
L 148.433328 180.780085 
L 148.380182 180.926319 
L 148.25843 180.97198 
L 148.167599 180.857212 
L 148.057442 180.794894 
L 147.880611 180.999129 
L 147.812005 181.220651 
L 147.769488 182.001915 
L 147.666095 182.456164 
L 147.471871 182.812307 
L 147.355917 182.951192 
L 147.090187 183.20181 
L 147.00612 183.382065 
L 147.011918 183.616653 
L 147.183917 184.047581 
L 147.166524 184.303809 
L 146.959738 184.564989 
L 146.671784 184.599567 
L 146.159651 184.489659 
L 145.856237 184.526707 
L 145.545623 184.641714 
L 145.010734 184.839767 
L 144.660938 184.87867 
L 144.483141 185.087389 
L 144.466714 185.411599 
L 144.592331 185.791414 
L 144.564309 186.145933 
L 144.639679 186.462178 
L 144.789454 186.726555 
L 145.010734 186.931641 
L 145.304486 187.121291 
L 146.429246 188.198163 
L 146.588683 188.402689 
L 146.535538 188.654185 
L 146.260145 189.117045 
L 145.479384 190.05463 
L 145.330576 190.375437 
L 145.394351 190.745717 
L 145.581811 191.118497 
L 145.674574 191.466572 
L 145.46489 191.770151 
L 145.583743 192.001402 
L 145.775068 192.194325 
L 145.917113 192.422503 
L 145.882326 192.76015 
L 145.630125 193.026695 
L 145.010734 194.156105 
L 144.719881 194.334877 
L 144.599095 194.493242 
L 144.450287 195.035179 
L 144.387478 195.170053 
L 144.253164 195.399595 
L 144.198085 195.593259 
L 144.187456 195.782598 
L 144.209681 195.984939 
L 144.209681 196.188524 
L 144.151704 196.372315 
L 143.910131 196.618617 
L 143.695615 196.607477 
L 143.259819 196.36427 
L 142.909057 196.271446 
L 142.725462 196.182955 
L 142.372766 195.785073 
L 141.867397 195.330298 
L 141.523399 195.299363 
L 141.241242 195.614296 
L 140.910772 196.198425 
L 140.816075 196.302387 
L 140.599627 196.46576 
L 140.525223 196.582723 
L 140.4972 196.741153 
L 140.457582 197.221422 
L 140.26046 197.707305 
L 140.101022 197.815628 
L 139.815967 197.755586 
L 139.813068 197.755586 
L 139.809203 197.75311 
L 139.80727 197.751872 
L 139.528013 197.750634 
L 139.376305 198.035996 
L 139.27098 198.445806 
L 139.119273 198.820356 
L 138.609072 199.394923 
L 138.036063 199.87233 
L 137.620559 200.036428 
L 137.420537 199.908245 
L 137.2611 199.622785 
L 136.954786 199.318764 
L 136.719012 199.189979 
L 136.661035 199.209792 
L 136.648473 199.330529 
L 136.10252 200.171427 
L 135.739195 200.883628 
L 135.658993 200.941227 
L 135.424185 201.004402 
L 135.219332 201.616363 
L 135.211602 201.765028 
L 135.143961 201.888298 
L 134.91012 201.968829 
L 134.720727 201.926705 
L 134.370931 201.653529 
L 134.200864 201.581675 
L 134.002775 201.600258 
L 133.89455 201.668395 
L 133.806618 201.772461 
L 133.081902 202.282908 
L 132.801678 202.270518 
L 132.54078 202.142282 
L 132.280848 201.910599 
L 131.789008 201.29365 
L 131.133864 200.133652 
L 130.988921 199.776969 
L 130.901955 199.6265 
L 130.757011 199.435789 
L 130.675843 199.352819 
L 129.315309 198.835215 
L 129.08436 198.67487 
L 128.772255 198.458187 
L 128.404099 197.755586 
L 128.211807 197.610744 
L 127.782775 197.492521 
L 127.620439 197.36873 
L 127.554731 197.139724 
L 127.45617 196.383454 
L 127.381765 196.078996 
L 127.146957 195.622959 
L 127.035834 195.494879 
L 126.634824 195.958331 
L 126.498578 196.042486 
L 126.374893 196.056719 
L 126.283095 196.124168 
L 126.252174 196.35932 
L 126.258938 196.58953 
L 126.300488 196.760957 
L 126.381657 196.877926 
L 126.51887 196.939816 
L 126.51887 197.088354 
L 126.230916 197.06731 
L 125.992242 196.990566 
L 125.788355 196.962096 
L 125.614423 197.088354 
L 125.573839 197.189238 
L 125.542918 197.361302 
L 125.560311 197.522231 
L 125.77676 197.671404 
L 125.695592 197.835436 
L 125.558379 197.979047 
L 125.483975 197.995141 
L 125.291683 198.46252 
L 124.816269 198.708917 
L 123.810352 198.881078 
L 123.687644 198.902079 
L 123.439308 198.988757 
L 123.183241 198.96523 
L 123.001579 198.907651 
L 121.865224 198.03352 
L 121.755067 197.887433 
L 121.581135 198.294135 
L 121.391742 199.542289 
L 121.266125 200.057483 
L 120.989766 200.560958 
L 120.692149 200.782056 
L 120.334623 200.832842 
L 119.678513 200.785772 
L 119.229189 200.68668 
L 118.938336 200.708975 
L 118.736381 200.691634 
L 118.640719 200.704021 
L 118.58564 200.801875 
L 118.539258 201.179064 
L 118.489011 201.291173 
L 118.166271 201.309754 
L 117.342993 200.956092 
L 116.966141 200.873719 
L 116.881107 201.136946 
L 116.851152 201.412575 
L 116.876276 201.6845 
L 116.966141 201.941572 
L 117.329465 202.309546 
L 117.537217 202.692414 
L 117.601959 203.153378 
L 117.528521 203.748846 
L 117.686026 204.232207 
L 117.944025 204.537738 
L 118.58564 205.04596 
L 118.877459 205.461869 
L 119.354806 206.885863 
L 119.607974 207.242384 
L 119.907523 207.561721 
L 120.155859 207.912083 
L 120.247657 208.364175 
L 120.109477 208.80948 
L 119.816692 209.121463 
L 119.48139 209.401208 
L 119.211795 209.741759 
L 118.985684 210.107145 
L 119.02047 211.234469 
L 118.746044 211.653937 
L 118.373057 211.68 
L 117.404836 211.371599 
L 116.966141 211.34802 
L 116.502322 211.580714 
L 116.042369 211.640285 
L 115.576618 211.508113 
L 115.500249 211.455643 
L 115.078979 211.166215 
L 113.472041 209.406171 
L 113.155099 208.816923 
L 112.944448 208.150217 
L 112.666156 207.562961 
L 112.142428 207.212621 
L 111.939507 207.20146 
L 111.537531 207.277107 
L 111.269869 207.239903 
L 110.969354 207.080552 
L 110.779961 206.926785 
L 110.588636 206.913144 
L 110.295851 207.177898 
L 110.157671 206.751942 
L 109.87165 206.377474 
L 109.534415 206.193349 
L 109.251293 206.334077 
L 109.142102 206.143754 
L 109.018417 205.975135 
L 108.87444 205.829457 
L 108.723699 205.706098 
L 108.201903 206.168551 
L 107.925545 206.363835 
L 107.6144 206.469228 
L 107.169907 206.838122 
L 106.648111 207.06071 
L 106.092495 207.159917 
L 105.562003 207.152476 
L 105.258588 207.104113 
L 105.070162 207.009868 
L 104.914589 206.828202 
L 104.437243 205.992492 
L 104.30003 205.885868 
L 104.030435 205.779865 
L 103.901919 205.69432 
L 103.55792 205.271576 
L 102.445722 203.164531 
L 102.268891 202.667632 
L 102.199319 202.112547 
L 102.200285 201.35559 
L 102.460216 201.367978 
L 103.437134 201.081203 
L 103.776302 200.909021 
L 103.909649 200.723839 
L 104.133828 200.216014 
L 104.265244 200.077299 
L 104.450771 200.098354 
L 104.779309 200.381362 
L 105.019915 200.397463 
L 105.127173 200.292185 
L 105.478902 199.856849 
L 105.628677 199.706378 
L 105.845125 199.617831 
L 106.339865 199.502661 
L 106.532157 199.380062 
L 106.613325 199.21103 
L 106.773729 198.661246 
L 106.866492 198.427233 
L 106.988245 198.249564 
L 107.424041 197.755586 
L 108.018308 196.769621 
L 108.24442 196.124787 
L 108.292734 195.417538 
L 108.024106 193.830123 
L 108.054061 193.099054 
L 108.199004 191.999547 
L 108.13233 191.770151 
L 107.92941 191.342919 
L 107.900421 190.803827 
L 107.988353 190.261699 
L 108.13233 189.822845 
L 108.219296 189.749294 
L 108.478262 189.676362 
L 108.55943 189.586126 
L 108.553632 189.459427 
L 108.420284 189.124461 
L 108.399992 188.762327 
L 108.435745 188.618963 
L 108.513048 188.594245 
L 108.8068 188.610312 
L 108.90826 188.560877 
L 109.050305 188.0301 
L 108.742059 187.27141 
L 108.924687 186.815507 
L 109.66583 186.229934 
L 109.843628 185.914319 
L 109.345989 185.791414 
L 109.344056 185.791414 
L 109.340191 185.791414 
L 109.104417 185.56661 
L 108.557497 184.595863 
L 108.530441 184.498304 
L 108.536239 184.232188 
L 108.493722 184.113644 
L 108.412554 184.089565 
L 108.170016 184.143279 
L 108.071454 184.113644 
L 107.6144 183.528373 
L 107.204693 183.429599 
L 107.049121 183.033289 
L 107.05202 182.4969 
L 107.125458 181.9834 
L 107.251075 181.500189 
L 107.413412 181.168201 
L 108.17678 180.174214 
L 108.693744 179.652926 
L 109.230034 179.222363 
L 109.299607 179.18412 
L 109.315068 178.541432 
L 109.253225 178.02956 
L 109.188484 177.928425 
L 108.824193 178.01476 
L 108.4657 178.02586 
L 108.084982 177.939525 
L 107.791231 177.704579 
L 107.68204 177.268014 
L 107.846309 176.740856 
L 108.219296 176.43815 
L 109.090889 176.093543 
L 109.755695 175.57452 
L 109.828201 175.484873 
L 110.053312 175.206551 
L 110.167334 174.778212 
L 110.198255 173.769447 
L 110.277491 173.249429 
L 110.737444 171.770383 
L 110.926837 170.547927 
L 110.738411 169.418729 
L 110.214682 168.478131 
L 109.38464 167.813418 
L 108.578756 167.477403 
L 108.167117 167.413402 
L 107.399884 167.493403 
L 107.130289 167.444172 
L 106.900313 167.282943 
L 106.663572 166.991267 
L 106.458719 166.613468 
L 105.720474 164.652329 
L 105.497261 163.765522 
L 105.532048 162.923141 
L 105.981372 162.304668 
L 106.371753 162.111642 
L 106.572741 161.972717 
L 106.680965 161.796915 
L 106.667882 161.727561 
L 106.646179 161.612514 
L 106.504134 161.485896 
L 106.325371 161.399847 
L 104.149289 160.720112 
L 103.380123 160.678323 
L 103.189764 160.638993 
L 100.754325 159.567669 
L 100.236786 159.34004 
L 99.840608 158.965288 
L 99.547823 158.483683 
L 99.363262 157.917367 
L 99.293689 157.29462 
L 99.310116 156.236011 
L 99.247307 155.721528 
L 99.04342 155.268484 
L 98.892679 155.106431 
L 98.530087 154.859166 
L 98.367018 154.747968 
L 98.221108 154.612937 
L 97.857784 154.135451 
L 97.708009 153.983255 
L 97.207472 153.633467 
L 97.034506 153.448151 
L 96.91372 153.232163 
L 96.828687 152.987961 
L 96.654755 152.24807 
L 96.500149 151.822347 
L 96.303026 151.428557 
L 96.051791 151.056878 
L 95.740646 150.733064 
L 94.691256 150.036447 
L 94.362718 149.697987 
L 94.163663 149.281077 
L 94.069933 148.796773 
L 94.049641 148.261031 
L 94.13564 147.243658 
L 94.335662 146.248563 
L 94.594627 145.365166 
L 94.621684 145.107897 
L 94.609122 144.848193 
L 94.206179 142.889854 
L 94.197483 142.619255 
L 94.227146 142.405658 
L 94.237101 142.333979 
L 94.363684 141.79531 
L 94.398471 141.523551 
L 94.385909 141.238344 
L 94.320201 140.980081 
L 94.13564 140.488076 
L 94.072832 140.228632 
L 94.010807 139.453659 
L 93.8989 138.055754 
L 93.991663 137.529819 
L 95.199524 134.055292 
L 95.284557 133.526157 
L 95.357029 132.433867 
L 95.321276 131.019418 
L 95.38795 129.865473 
L 95.375389 129.578559 
L 95.321276 129.301431 
L 94.87775 128.103995 
L 94.807211 127.974628 
L 94.670964 127.825738 
L 94.353055 127.609735 
L 94.206179 127.479162 
L 94.072832 127.285141 
L 93.784878 126.606741 
L 93.415755 125.936986 
L 93.193509 125.652767 
L 92.304523 124.9734 
L 91.954727 124.823393 
L 89.052962 122.983475 
L 88.507009 122.381311 
L 87.951393 121.583024 
L 87.868293 121.399013 
L 87.752338 120.932316 
L 87.701125 120.783666 
L 87.625754 120.636239 
L 87.353261 120.230538 
L 86.931959 119.207315 
L 86.648836 118.765212 
L 85.432279 117.883578 
L 85.327843 117.771721 
L 85.258347 117.697288 
L 85.109539 117.476918 
L 84.997449 117.226123 
L 84.82545 116.511559 
L 83.998307 114.306538 
L 83.857129 114.070509 
L 83.759634 113.907518 
L 82.592357 112.634065 
L 82.343055 112.266817 
L 82.129505 111.813274 
L 81.334249 109.441175 
L 80.403713 107.47304 
L 80.055849 107.0188 
L 79.595896 106.731586 
L 79.143673 106.676938 
L 78.733 106.803843 
L 78.372575 107.092277 
L 78.067228 107.516766 
L 77.988958 107.660095 
L 77.922284 107.757876 
L 77.835318 107.818612 
L 77.698105 107.84655 
L 77.395657 107.770023 
L 77.231388 107.538022 
L 77.104804 107.238019 
L 76.915412 106.966578 
L 76.638087 106.738872 
L 76.341436 106.553073 
L 76.027392 106.420712 
L 75.701753 106.35514 
L 74.615645 106.284105 
L 74.362477 106.201535 
L 73.297627 105.620562 
L 73.135291 105.496728 
L 72.974887 105.319483 
L 72.709157 105.093081 
L 71.618218 104.740453 
L 71.138938 104.687046 
L 70.663524 104.545034 
L 70.502154 104.528648 
L 70.234492 104.582053 
L 70.143661 104.586302 
L 69.799662 104.508014 
L 68.775397 104.12995 
L 68.586004 104.128736 
L 67.094054 104.499518 
L 66.639899 104.736812 
L 66.232125 105.097937 
L 65.920014 105.570785 
L 65.731587 106.141431 
L 65.72579 106.294426 
L 65.756711 106.388533 
L 65.806958 106.475356 
L 65.847542 106.606505 
L 66.006013 106.685439 
L 66.786775 107.33154 
L 66.900797 107.525269 
L 66.879538 107.739656 
L 66.710438 107.914575 
L 66.470798 108.014792 
L 65.782801 108.15753 
L 65.375027 108.338541 
L 64.819411 108.44545 
L 64.66094 108.513485 
L 64.501502 108.633156 
L 64.297615 108.932651 
L 64.177795 109.297786 
L 64.069571 110.085271 
L 63.947819 110.586033 
L 63.724606 110.935508 
L 63.414427 111.171952 
L 63.022114 111.337288 
L 63.028039 111.327008 
L 63.04081 111.304844 
L 63.050137 111.288659 
L 63.090721 111.18654 
L 63.079064 111.193873 
L 62.996229 111.245981 
L 62.851081 111.337288 
L 62.689711 111.554302 
L 62.596947 111.867381 
L 62.567959 112.296001 
L 62.722565 113.673354 
L 62.631734 113.902652 
L 62.446206 114.055929 
L 62.280005 114.3917 
L 62.065489 114.728714 
L 61.738883 114.880805 
L 61.427738 114.778599 
L 60.849898 114.32722 
L 60.513629 114.223811 
L 60.208282 114.299239 
L 58.60231 115.167967 
L 58.327884 115.362664 
L 58.212896 115.61335 
L 57.131619 116.328981 
L 56.445554 117.089774 
L 56.161465 117.293081 
L 55.498591 117.487875 
L 55.241559 117.680243 
L 55.141065 118.040651 
L 55.248323 118.47172 
L 55.427086 118.811491 
L 55.427086 118.983213 
L 55.013515 118.917447 
L 54.053024 118.348727 
L 53.788261 118.258616 
L 53.794058 118.040651 
L 54.107136 116.504256 
L 53.869429 115.564672 
L 53.269364 115.195954 
L 51.671122 115.188653 
L 50.987956 115.032901 
L 50.365666 114.645979 
L 49.859331 114.131354 
L 49.508569 113.596113 
L 48.950054 113.63747 
L 48.392505 113.29811 
L 47.455205 112.296001 
L 47.01651 111.587129 
L 46.875432 111.492297 
L 46.804893 111.412057 
L 46.239614 110.930646 
L 46.062783 110.527081 
L 45.993211 110.133279 
L 45.872425 109.796631 
L 45.528426 109.565733 
L 44.665444 109.51229 
L 44.125375 109.478846 
L 43.990094 109.603405 
L 43.695757 109.983385 
L 40.868016 113.635645 
L 40.484399 113.783439 
L 39.762582 113.282298 
L 39.031101 113.040871 
L 38.855237 112.777568 
L 38.738316 112.777568 
L 38.43007 113.130873 
L 38.277396 113.56023 
L 38.112161 114.560812 
L 37.657039 116.109897 
L 37.591331 116.577289 
L 35.854911 116.986298 
L 35.549564 117.226123 
L 35.386261 117.67659 
L 35.185273 117.939588 
L 34.758173 117.615713 
L 34.758173 117.973681 
L 34.711791 118.28297 
L 34.626758 118.539916 
L 34.505006 118.742073 
L 34.158942 118.89849 
L 33.944558 118.995393 
L 34.360062 119.40585 
L 33.99094 119.712806 
L 33.358987 120.036838 
L 32.989865 120.498565 
L 32.915461 120.682538 
L 32.825596 120.856772 
L 32.755057 121.045635 
L 32.715439 121.09803 
L 32.54344 120.647205 
L 32.510586 120.498565 
L 32.486429 120.395007 
L 32.438114 120.375514 
L 32.369508 120.416936 
L 32.284475 120.498565 
L 32.037105 120.786103 
L 31.755915 120.815345 
L 31.472792 120.782447 
L 31.213827 120.887233 
L 31.099805 121.089501 
L 31.220591 121.158956 
L 31.414815 121.173578 
L 31.513376 121.211353 
L 31.495983 121.355143 
L 31.467961 121.420947 
L 31.134591 121.934009 
L 31.016704 121.987634 
L 30.874659 121.975446 
L 30.639851 122.072948 
L 28.577792 124.122206 
L 28.233793 124.680707 
L 27.857907 125.558845 
L 27.739053 125.750351 
L 27.516807 125.855256 
L 27.267504 125.910149 
L 27.076179 126.046775 
L 27.029797 126.396898 
L 26.710922 126.947148 
L 26.610428 127.072825 
L 26.432631 127.202165 
L 26.368856 127.214367 
L 26.28962 127.148476 
L 25.754296 126.881261 
L 25.195782 126.481078 
L 24.880771 126.398118 
L 24.621806 125.999199 
L 24.314526 125.668624 
L 23.974393 125.3954 
L 23.613001 125.173418 
L 22.794423 124.987579 
L 22.124916 124.835588 
L 21.8273 124.556319 
L 21.820535 124.034413 
L 22.078535 123.536954 
L 22.70469 122.65069 
L 23.09507 121.583024 
L 23.133608 121.400679 
L 23.223587 120.974962 
L 23.186868 120.498565 
L 23.143385 120.259776 
L 23.183969 120.066075 
L 23.301856 119.9138 
L 23.47772 119.798075 
L 23.495114 119.748131 
L 23.500911 119.69697 
L 23.495114 119.647028 
L 23.47772 119.598304 
L 23.355002 119.432647 
L 23.307654 119.276741 
L 23.34244 119.130584 
L 23.47772 119.0027 
L 23.861337 118.802966 
L 23.963764 118.502164 
L 23.90482 117.698506 
L 23.974393 117.22247 
L 24.113538 116.976559 
L 24.702974 116.580941 
L 25.195782 116.063648 
L 25.491466 115.490439 
L 25.733038 114.877154 
L 26.058677 114.243276 
L 26.304115 114.007269 
L 26.90418 113.557189 
L 27.04719 113.251891 
L 26.989213 112.921683 
L 26.669372 112.044295 
L 26.606563 111.591992 
L 26.681933 111.168913 
L 26.960224 110.285204 
L 27.002741 109.913908 
L 26.937034 109.707916 
L 26.815281 109.590037 
L 26.680001 109.497681 
L 26.569844 109.363404 
L 26.422002 108.889518 
L 26.359193 108.727923 
L 26.351463 107.899998 
L 26.392047 107.660095 
L 26.490608 107.490045 
L 26.808517 107.06738 
L 26.864562 106.914356 
L 26.680001 106.600433 
L 25.497264 105.943517 
L 25.344015 105.769421 
L 24.912659 105.279422 
L 24.650795 104.856981 
L 24.525177 104.449755 
L 24.624705 103.978855 
L 25.168725 103.307794 
L 25.304006 102.85583 
L 25.338792 102.618644 
L 25.415129 102.509459 
L 26.615259 101.71431 
L 26.863596 101.422612 
L 26.934135 101.164893 
L 26.915775 100.642226 
L 26.966988 100.411837 
L 27.095505 100.257847 
L 27.424043 100.112957 
L 27.588312 100.012931 
L 28.108175 99.420707 
L 28.347815 99.035837 
L 28.448309 98.679487 
L 28.348781 98.308018 
L 27.90912 97.782082 
L 27.80766 97.356171 
L 27.870468 96.975132 
L 28.146827 96.219822 
L 28.233793 95.81951 
L 28.134265 94.416613 
L 28.16422 93.965029 
L 28.313995 93.544363 
L 28.769117 92.917379 
L 28.956577 92.567013 
L 29.138239 91.803455 
L 29.267722 91.46589 
L 30.062011 90.551341 
L 29.902573 89.858916 
L 29.403002 89.183539 
L 28.585522 88.322706 
L 28.366174 88.034393 
L 28.243456 87.67237 
L 28.199006 87.121238 
L 28.256984 85.749788 
L 27.876266 83.795542 
L 27.871435 83.651247 
L 27.902356 83.53352 
L 27.90912 83.399497 
L 27.843412 83.205112 
L 27.735188 83.112148 
L 27.418245 83.034278 
L 27.295527 82.926228 
L 27.181505 82.230916 
L 27.282965 81.277478 
L 27.565121 80.446729 
L 27.98449 80.130042 
L 28.413522 79.991311 
L 28.665724 79.47443 
L 28.763319 78.8129 
L 28.724667 78.244328 
L 28.653162 77.937466 
L 28.562331 77.704774 
L 28.413522 77.520318 
L 28.166153 77.356365 
L 27.847277 77.255103 
L 27.648222 77.317789 
L 27.480088 77.460643 
L 27.265572 77.600489 
L 26.813349 77.749382 
L 26.28962 77.825338 
L 25.750431 77.774701 
L 25.234433 77.545032 
L 24.413088 76.944704 
L 24.00628 76.763901 
L 23.47772 76.697006 
L 21.820535 76.721112 
L 21.711345 76.694595 
L 21.61375 76.710264 
L 21.434986 76.844659 
L 21.363481 76.950731 
L 21.135437 77.419052 
L 20.3769 78.492126 
L 19.519802 79.450307 
L 19.340073 79.754876 
L 19.199961 79.694563 
L 19.062748 79.460559 
L 18.89558 79.236218 
L 18.625019 79.054101 
L 17.101182 78.360688 
L 16.610307 78.389628 
L 16.217028 78.738734 
L 16.007114 79.149932 
L 15.855636 79.446688 
L 15.530963 79.472018 
L 14.994673 79.283859 
L 14.45645 79.007066 
L 14.127912 78.761647 
L 13.897935 78.478861 
L 13.841891 78.135205 
L 13.841891 77.756616 
L 13.778116 77.369023 
L 13.627375 77.063436 
L 13.245691 76.502956 
L 13.092051 76.210093 
L 12.980928 75.808798 
L 12.935512 75.046694 
L 12.874636 74.681058 
L 12.748052 74.40821 
L 12.553259 74.111093 
L 12.436907 73.933632 
L 12.349941 73.615072 
L 12.431109 73.191169 
L 12.882552 72.482885 
L 13.122972 72.105736 
L 13.326859 71.457514 
L 13.458274 71.249288 
L 13.604184 71.134949 
L 13.966542 70.956828 
L 14.127912 70.826853 
L 14.309574 70.469445 
L 14.383979 70.090412 
L 14.471911 69.28314 
L 14.956021 67.797177 
L 15.41984 66.143525 
L 15.55512 65.21453 
L 15.519368 64.017274 
L 15.478784 63.787239 
L 15.39375 63.814866 
L 15.295189 64.122987 
L 15.156043 64.210083 
L 14.848763 64.080942 
L 14.541484 63.85811 
L 14.402338 63.661115 
L 14.340496 63.534997 
L 14.025486 63.37345 
L 13.880542 63.25755 
L 13.810969 63.12544 
L 13.714341 62.803592 
L 13.624476 62.622264 
L 13.143264 61.875432 
L 12.073583 59.116945 
L 11.698663 58.62931 
L 10.991339 58.403808 
L 10.313005 58.586128 
L 9.75449 59.027571 
L 9.386334 59.580649 
L 9.170852 60.416423 
L 9.134133 60.459627 
L 9.031706 60.478829 
L 8.616202 60.660651 
L 8.558225 60.703858 
L 8.384293 60.889892 
L 8.395888 61.795594 
L 8.111799 62.131763 
L 7.777464 62.132964 
L 7.440229 61.925856 
L 7.185129 61.563896 
L 7.078837 61.107745 
L 7.116522 60.304815 
L 7.085601 59.907016 
L 7.074972 59.595047 
L 7.126185 59.273506 
L 7.337802 58.980785 
L 7.521397 58.656899 
L 7.601599 58.247884 
L 7.642183 57.750171 
L 7.815149 57.022313 
L 8.050923 54.960637 
L 8.252878 54.159057 
L 8.493483 53.546908 
L 8.493483 53.245065 
L 8.628764 52.872586 
L 9.043302 52.182824 
L 9.134133 51.885884 
L 9.211436 51.500377 
L 9.403727 51.217858 
L 9.911029 50.699565 
L 10.393207 50.004236 
L 10.685992 49.70269 
L 11.424237 49.447831 
L 11.654213 49.135564 
L 11.825246 48.769493 
L 12.081313 48.471639 
L 12.434008 48.390301 
L 14.064137 48.701307 
L 14.859393 48.962094 
L 15.295189 48.946542 
L 15.900085 48.712073 
L 16.4586 48.349633 
L 16.624509 48.200974 
L 16.976531 47.885573 
L 17.453877 47.351022 
L 17.453877 47.208727 
L 16.910823 47.074808 
L 15.248807 47.413202 
L 14.902876 47.122636 
L 14.942493 46.663518 
L 15.115459 45.723945 
L 15.156043 45.226765 
L 15.231414 45.110846 
L 15.58121 44.836002 
L 15.679772 44.68186 
L 15.651749 44.500244 
L 15.421773 43.863465 
L 15.765771 43.685475 
L 16.605476 43.481214 
L 16.956239 43.245912 
L 17.181384 42.886419 
L 18.150571 40.814976 
L 18.742906 38.013615 
L 18.770929 37.73575 
L 18.7603 37.482947 
L 18.824075 37.298126 
L 19.066613 37.226586 
L 19.241511 37.238509 
L 19.408679 37.280241 
L 19.564252 37.35536 
L 19.706296 37.46983 
L 20.068654 37.628425 
L 20.491889 37.56284 
L 21.17892 37.226586 
L 21.386672 37.029856 
L 22.01476 36.281194 
L 22.274691 36.181066 
L 24.022707 35.122755 
L 26.635551 32.64629 
L 26.896449 32.502212 
L 26.97182 32.155736 
L 26.932202 31.741438 
L 27.222089 31.765247 
L 27.447234 32.141449 
L 27.469459 32.820144 
L 27.105168 34.694994 
L 27.164111 35.182336 
L 27.308088 35.302693 
L 27.847277 35.641144 
L 28.193209 35.931953 
L 28.274377 35.911691 
L 28.31786 35.912882 
L 28.348781 36.098821 
L 28.125568 36.75803 
L 27.837614 37.225393 
L 27.876266 37.367284 
L 28.042468 37.568802 
L 28.079187 37.653467 
L 28.055029 37.971874 
L 27.866603 38.824681 
L 28.079187 39.097862 
L 28.348781 39.731389 
L 28.527545 40.04044 
L 28.815499 40.349518 
L 29.106351 40.473634 
L 29.431991 40.428283 
L 29.828169 40.227793 
L 30.732615 39.510656 
L 31.092074 39.356747 
L 33.216943 38.886711 
L 33.637279 38.891483 
L 34.039255 38.978566 
L 34.671207 39.225512 
L 34.797791 39.238636 
L 34.877993 39.312604 
L 34.957229 39.567926 
L 34.92824 39.777924 
L 34.821948 39.997482 
L 34.752376 40.218246 
L 34.837409 40.437831 
L 35.112801 40.490342 
L 35.850079 40.119199 
L 36.208572 40.125165 
L 36.489762 40.405608 
L 36.82893 41.12651 
L 37.127513 41.374802 
L 37.382613 41.389127 
L 37.748836 41.317502 
L 38.094768 41.186194 
L 38.295756 41.015501 
L 38.327817 40.789112 
L 38.360497 40.55837 
L 38.236812 40.23018 
L 38.171105 39.968843 
L 38.423306 39.705139 
L 38.843641 39.807755 
L 39.015641 39.771958 
L 39.166382 39.655026 
L 39.278471 39.507076 
L 39.319547 39.389235 
L 39.344179 39.318569 
L 39.361572 39.079967 
L 39.295864 38.784123 
L 39.147056 38.53363 
L 38.939304 38.327284 
L 38.70353 38.162694 
L 37.730477 37.74529 
L 37.468613 37.46983 
L 37.330434 37.079932 
L 37.33913 36.6865 
L 37.525624 35.82826 
L 37.602927 33.548999 
L 37.87542 33.057124 
L 37.949824 32.621284 
L 37.697623 31.702154 
L 37.724679 31.32243 
L 38.000072 31.120087 
L 38.406879 31.054625 
L 38.79726 30.922516 
L 39.033034 30.514318 
L 38.989551 30.055005 
L 38.721889 29.868204 
L 38.372093 29.757556 
L 38.093801 29.531512 
L 38.026161 29.290018 
L 38.088004 28.809461 
L 38.072543 28.58467 
L 37.966251 28.394381 
L 37.660904 28.086375 
L 37.581669 27.946057 
L 37.571039 27.597665 
L 37.639646 27.187489 
L 38.011667 25.902593 
L 38.00297 25.677994 
L 37.537219 25.192009 
L 37.445422 25.029238 
L 37.210614 24.449503 
L 36.783514 23.781981 
L 36.731335 23.586026 
L 36.719739 23.409082 
L 36.684953 23.229773 
L 36.55547 23.0291 
L 35.890664 22.81063 
L 35.48289 22.517381 
L 35.305093 22.196854 
L 35.185273 21.280553 
L 35.031633 20.807072 
L 34.522399 19.856753 
L 34.344602 19.37873 
L 34.336871 18.872314 
L 34.464422 18.466763 
L 34.560084 18.024508 
L 34.458624 17.410429 
L 34.224782 17.010984 
L 33.648874 16.215793 
L 33.602492 15.822416 
L 33.901075 15.408947 
L 34.068243 15.224147 
L 34.261501 15.104507 
L 34.499208 15.102137 
L 34.724353 15.186241 
L 34.953364 15.226516 
L 35.200733 15.097399 
L 35.292531 14.917355 
L 35.549564 13.963993 
L 35.598844 13.599302 
L 35.621069 13.501032 
L 35.946708 13.119819 
L 35.995023 13.087856 
L 36.032708 12.633305 
L 36.003719 12.187101 
L 36.021112 11.724392 
L 36.197943 11.222705 
L 36.46174 10.852406 
L 36.84439 10.472686 
L 37.293715 10.182898 
L 37.829038 10.08 
L 37.994274 10.08 
L 38.077375 10.091827 
L 38.634923 10.625278 
L 39.250449 12.133845 
L 39.714267 12.660529 
L 40.187749 12.763508 
L 40.362647 12.465231 
L 40.441883 12.000116 
L 40.631275 11.598963 
L 40.962712 11.456974 
L 41.776327 11.434493 
L 42.175404 11.245185 
L 42.563852 11.193127 
L 42.930076 11.223888 
L 44.07706 11.53625 
L 44.25679 11.611979 
L 44.440385 11.749242 
L 44.526385 11.938579 
L 44.538946 12.146863 
L 44.664701 12.33504 
z
" clip-path="url(#p6d7bba28c4)" style="stroke: #000000; stroke-linejoin: miter"/>
   </g>
   <g id="line2d_1">
    <path d="M 44.876181 12.33504 
L 45.57674 14.050436 
L 45.543886 14.462549 
L 46.13912 15.065417 
L 46.407748 15.361562 
L 46.527568 15.821231 
L 46.887994 16.211053 
L 48.01372 16.861649 
L 49.352996 18.360047 
L 50.114431 18.952956 
L 50.933844 20.363319 
L 51.686583 20.961332 
L 51.378337 21.559452 
L 51.596718 22.427155 
L 52.304041 22.849811 
L 53.133117 23.165651 
L 53.709025 23.719037 
L 54.346775 25.390435 
L 54.523606 26.330441 
L 54.473359 28.205293 
L 54.686909 29.085416 
L 54.876302 29.355446 
L 54.950706 29.306672 
L 56.14214 29.231729 
L 56.721913 28.789241 
L 57.143215 28.168428 
L 57.367394 27.431211 
L 57.413775 25.581742 
L 57.742314 25.219337 
L 58.111436 25.559165 
L 58.269907 26.60976 
L 58.273772 27.971028 
L 58.498917 28.246915 
L 58.822624 28.219563 
L 60.380281 27.495414 
L 60.606393 28.049511 
L 60.641179 28.314701 
L 60.685629 30.453628 
L 60.872122 31.220067 
L 60.498169 31.635491 
L 59.392734 33.064269 
L 58.545299 34.674739 
L 59.564734 34.045709 
L 59.823699 34.105271 
L 59.800508 34.36974 
L 59.184016 35.529118 
L 59.105747 36.001083 
L 59.022646 37.44479 
L 58.794602 37.710707 
L 58.161683 37.893164 
L 57.855369 38.16985 
L 57.640853 38.609969 
L 57.787729 38.70778 
L 58.554962 38.682731 
L 59.077724 39.007197 
L 59.355049 39.527359 
L 59.332825 39.737355 
L 59.168555 40.419929 
L 59.410128 40.694429 
L 59.564734 40.702783 
L 59.756059 40.836461 
L 59.970421 41.246682 
L 60.361922 42.74311 
L 60.598663 42.97599 
L 60.872122 42.932996 
L 61.340772 43.170666 
L 61.62776 43.56005 
L 62.977665 46.763945 
L 63.906268 47.956135 
L 64.442559 48.112812 
L 64.790422 48.265907 
L 65.225252 48.55537 
L 65.579032 48.51271 
L 65.977025 48.413028 
L 66.281406 48.513504 
L 67.857422 49.37724 
L 68.158904 49.41074 
L 68.66524 49.245632 
L 69.177373 48.850839 
L 69.332945 48.645085 
L 69.59191 48.759923 
L 69.818988 49.024303 
L 70.362042 50.098774 
L 70.817164 50.375221 
L 71.007523 50.389583 
L 72.163204 50.678021 
L 72.526529 50.922195 
L 73.798165 52.406743 
L 74.173085 52.421113 
L 74.712274 52.095416 
L 74.702611 51.907435 
L 74.490027 51.238208 
L 74.696813 50.843195 
L 75.08816 50.723503 
L 75.541349 50.287857 
L 75.43699 49.590215 
L 75.664068 48.74796 
L 76.04092 48.060187 
L 76.248672 47.977663 
L 76.81685 48.020718 
L 77.411118 47.513651 
L 79.56884 46.755576 
L 80.252972 46.622869 
L 81.114902 45.449053 
L 81.909191 45.475346 
L 82.347886 45.811197 
L 83.680398 46.118392 
L 83.927768 46.401703 
L 84.188666 46.994699 
L 84.319115 46.987525 
L 84.917247 46.834484 
L 85.438077 47.139376 
L 85.799469 47.628452 
L 86.344456 48.683364 
L 87.036318 49.2229 
L 87.33007 49.796023 
L 87.708855 49.930044 
L 88.518605 49.96714 
L 88.771772 50.29025 
L 88.94957 51.017953 
L 89.260714 51.391437 
L 90.22507 51.932579 
L 91.287988 52.354055 
L 91.537523 52.769627 
L 91.40974 53.315732 
L 90.20188 55.248243 
L 89.792173 55.629355 
L 89.326422 55.79955 
L 88.83748 55.701268 
L 88.375594 55.273409 
L 87.977483 56.181919 
L 86.906835 57.039099 
L 86.783151 57.474359 
L 87.376452 57.916868 
L 88.13982 58.139941 
L 90.816439 58.070379 
L 91.075404 58.238289 
L 91.504437 58.936399 
L 91.805919 59.190126 
L 92.516141 59.515859 
L 92.857241 59.950814 
L 92.931645 60.694256 
L 92.805061 61.009319 
L 92.34704 61.191768 
L 92.246546 61.970278 
L 92.341242 62.74655 
L 92.973195 63.121837 
L 93.772316 62.930886 
L 94.617818 62.599448 
L 95.37249 62.553818 
L 97.03354 63.614871 
L 97.051899 63.789641 
L 96.948506 64.038897 
L 96.975562 64.560888 
L 97.227764 65.000642 
L 97.947649 65.557017 
L 98.027851 66.014918 
L 97.706077 66.131505 
L 97.752459 66.478284 
L 97.80947 67.797177 
L 97.551471 68.061131 
L 97.304101 68.105627 
L 96.751384 68.029865 
L 96.304958 68.210253 
L 96.270172 68.410494 
L 96.097206 68.73463 
L 95.674938 69.114729 
L 94.652605 69.83173 
L 94.299909 70.357536 
L 94.182989 70.788343 
L 94.279617 70.917715 
L 94.832334 70.959235 
L 95.325142 71.228827 
L 95.296153 71.827054 
L 95.107727 72.561424 
L 94.737638 72.886519 
L 94.279617 73.129154 
L 93.831259 73.615072 
L 92.694904 74.104064 
L 92.298726 74.726836 
L 91.541156 76.838029 
L 91.367224 76.860328 
L 90.886012 76.59094 
L 90.717878 76.65482 
L 90.267587 76.966401 
L 89.830825 77.026068 
L 89.513882 76.94591 
L 87.558114 75.508758 
L 87.161936 75.022598 
L 86.787016 74.971998 
L 86.447848 75.075609 
L 85.576256 75.731677 
L 85.235156 75.055127 
L 84.582911 74.79189 
L 84.336508 74.539512 
L 83.012692 74.965371 
L 82.603952 74.971998 
L 82.097617 75.731677 
L 81.714001 75.800965 
L 81.358406 75.658172 
L 80.247175 75.039465 
L 80.073243 75.12862 
L 79.965018 75.497913 
L 80.0114 75.786505 
L 80.596005 77.337077 
L 81.393193 77.964594 
L 81.53717 78.744763 
L 81.598046 79.127671 
L 81.815461 79.449101 
L 81.737192 79.725926 
L 81.065621 80.265159 
L 80.925509 81.037345 
L 80.770903 81.377638 
L 80.711959 81.290149 
L 80.436567 81.329368 
L 79.172662 81.890548 
L 78.952348 82.115043 
L 78.583226 82.782568 
L 78.295272 83.039107 
L 77.376331 83.613815 
L 77.220759 84.017731 
L 77.410151 84.124604 
L 78.047902 84.158417 
L 78.521383 84.99358 
L 79.56884 85.761869 
L 79.965018 85.56193 
L 80.357331 85.537769 
L 80.741914 85.645891 
L 82.817502 86.753256 
L 83.759634 87.593805 
L 83.993475 88.674513 
L 84.534597 88.484098 
L 84.915315 88.597137 
L 86.075827 89.617049 
L 86.696185 89.911524 
L 87.011195 90.246538 
L 87.782293 91.42778 
L 88.115662 91.5161 
L 88.696402 91.444113 
L 89.048131 91.554211 
L 89.589253 92.053925 
L 90.453115 93.456603 
L 91.348864 94.107278 
L 92.138322 94.954222 
L 92.973195 95.264227 
L 93.33652 95.80861 
L 93.554901 95.904293 
L 94.320201 96.034499 
L 95.301951 96.33429 
L 96.37743 96.233146 
L 96.87217 96.405759 
L 97.056731 96.990276 
L 97.252887 97.227135 
L 97.580459 97.330727 
L 98.569939 97.287109 
L 99.961394 98.140172 
L 100.861009 98.10018 
L 101.392468 99.161901 
L 101.92296 99.689834 
L 101.92296 100.058397 
L 101.784781 100.449426 
L 101.597321 100.482165 
L 101.377973 100.396074 
L 101.149929 100.43245 
L 100.878402 100.856863 
L 100.632965 101.552995 
L 100.34791 102.853403 
L 100.249348 103.825945 
L 100.451303 104.479491 
L 101.78768 106.18575 
L 101.670759 106.497214 
L 101.68332 106.986009 
L 101.861118 107.292674 
L 102.876687 108.138701 
L 103.165607 108.640445 
L 103.558041 108.687277 
L 104.223693 108.563297 
L 104.379266 109.076028 
L 104.271041 109.906616 
L 104.468164 110.248742 
L 105.113645 110.68206 
L 105.547509 110.856494 
L 105.641239 110.980486 
L 105.888608 110.679021 
L 106.083799 109.939429 
L 106.421033 109.758957 
L 106.820111 109.790554 
L 107.195031 109.974674 
L 107.595074 110.462053 
L 107.712961 111.367682 
L 107.654984 111.512965 
L 107.953567 111.660077 
L 108.029904 111.728772 
L 108.489857 112.722841 
L 108.973002 113.121751 
L 109.073496 113.380819 
L 109.212641 114.148385 
L 109.340191 114.315054 
L 109.782751 114.613129 
L 110.086166 115.354146 
L 109.86392 117.144556 
L 110.070705 117.942023 
L 110.795422 118.746945 
L 112.502854 122.42641 
L 113.477839 122.944466 
L 114.084668 123.428447 
L 114.57361 123.984421 
L 116.187312 126.398118 
L 117.813576 128.788728 
L 120.920194 132.028297 
L 121.328934 132.290936 
L 121.600461 132.32392 
L 122.088436 131.819419 
L 122.313582 131.275891 
L 122.550322 131.261235 
L 122.773535 131.380927 
L 122.933939 132.276277 
L 123.259578 132.744177 
L 123.245084 132.961652 
L 123.077916 133.584811 
L 123.181309 133.940417 
L 123.745621 135.074633 
L 124.645236 136.09665 
L 124.826898 136.644429 
L 124.691618 137.000277 
L 125.311009 138.3848 
L 125.989343 138.742007 
L 126.743049 138.970781 
L 127.260979 138.371344 
L 127.427181 138.764028 
L 127.562461 146.192197 
L 127.732528 146.69829 
L 128.156729 147.273073 
L 128.888209 147.722899 
L 129.138478 147.74864 
L 129.423533 147.911667 
L 129.500836 148.180123 
L 129.441893 149.721286 
L 129.993643 151.286261 
L 130.409147 151.678812 
L 130.96573 151.56963 
L 131.022741 151.933988 
L 131.334852 151.829708 
L 131.559031 151.472718 
L 131.647929 151.094903 
L 132.362017 150.45465 
L 132.438353 150.059747 
L 132.839363 149.232032 
L 133.284822 149.254102 
L 133.609495 149.870893 
L 133.661675 150.825054 
L 133.531226 152.060354 
L 133.838506 151.913132 
L 134.239515 152.850527 
L 135.228995 153.853155 
L 135.339152 154.547878 
L 135.54014 154.718506 
L 135.781712 154.755333 
L 136.419462 154.729554 
L 137.471751 154.952976 
L 138.176175 155.488248 
L 138.336579 155.793969 
L 138.694453 157.45348 
L 139.038104 157.898942 
L 139.577293 158.203588 
L 140.130977 158.359604 
L 140.61702 158.760109 
L 141.74178 160.320674 
L 142.263576 160.513629 
L 142.80663 160.43743 
L 144.211614 160.094545 
L 144.297613 160.210066 
L 144.231906 160.936437 
L 144.46768 161.610055 
L 143.968109 162.238276 
L 143.17382 163.772901 
L 142.903259 163.934015 
L 141.855802 164.24765 
L 140.400571 165.338762 
L 139.634305 165.193594 
L 139.428485 165.451946 
L 138.959835 166.74391 
L 138.933745 167.239867 
L 139.148261 167.590636 
L 140.371583 168.588926 
L 140.452751 168.932403 
L 140.622818 170.297314 
L 140.802547 170.631673 
L 141.114659 170.927873 
L 142.068385 171.641041 
L 143.057865 173.850781 
L 143.287842 174.030092 
L 143.537144 173.721386 
L 143.859884 173.547015 
L 144.341096 173.623417 
L 144.526624 173.563035 
L 144.768196 174.129301 
L 145.266801 174.200165 
L 145.387587 175.663897 
L 145.737383 175.917242 
L 146.540369 175.766219 
L 146.868907 175.874092 
L 146.953941 176.150873 
L 147.120142 177.493691 
L 147.342389 177.797693 
L 148.447823 178.947883 
L 148.569575 179.279112 
L 148.574406 179.646757 
L 148.380182 180.926319 
L 148.25843 180.97198 
L 148.057442 180.794894 
L 147.812005 181.220651 
L 147.666095 182.456164 
L 147.355917 182.951192 
L 147.00612 183.382065 
L 147.011918 183.616653 
L 147.183917 184.047581 
L 147.166524 184.303809 
L 146.959738 184.564989 
L 146.671784 184.599567 
L 145.856237 184.526707 
L 144.483141 185.087389 
L 144.466714 185.411599 
L 144.592331 185.791414 
L 144.639679 186.462178 
L 145.010734 186.931641 
L 145.304486 187.121291 
L 146.588683 188.402689 
L 146.535538 188.654185 
L 146.260145 189.117045 
L 145.330576 190.375437 
L 145.394351 190.745717 
L 145.674574 191.466572 
L 145.46489 191.770151 
L 145.882326 192.76015 
L 145.630125 193.026695 
L 145.010734 194.156105 
L 144.599095 194.493242 
L 143.910131 196.618617 
L 143.695615 196.607477 
L 142.372766 195.785073 
L 141.867397 195.330298 
L 141.523399 195.299363 
L 141.241242 195.614296 
L 140.816075 196.302387 
L 140.525223 196.582723 
L 140.26046 197.707305 
L 140.101022 197.815628 
L 139.528013 197.750634 
L 139.27098 198.445806 
L 139.119273 198.820356 
L 138.609072 199.394923 
L 138.036063 199.87233 
L 137.620559 200.036428 
L 137.420537 199.908245 
L 137.2611 199.622785 
L 136.719012 199.189979 
L 136.648473 199.330529 
L 135.658993 200.941227 
L 135.424185 201.004402 
L 135.143961 201.888298 
L 134.720727 201.926705 
L 134.200864 201.581675 
L 133.89455 201.668395 
L 133.806618 201.772461 
L 133.081902 202.282908 
L 132.801678 202.270518 
L 132.280848 201.910599 
L 131.789008 201.29365 
L 130.675843 199.352819 
L 129.08436 198.67487 
L 128.772255 198.458187 
L 128.211807 197.610744 
L 127.620439 197.36873 
L 127.554731 197.139724 
L 127.381765 196.078996 
L 127.035834 195.494879 
L 126.498578 196.042486 
L 126.283095 196.124168 
L 126.300488 196.760957 
L 126.51887 197.088354 
L 125.614423 197.088354 
L 125.542918 197.361302 
L 125.560311 197.522231 
L 125.77676 197.671404 
L 125.558379 197.979047 
L 125.483975 197.995141 
L 125.291683 198.46252 
L 124.816269 198.708917 
L 123.001579 198.907651 
L 121.755067 197.887433 
L 121.581135 198.294135 
L 121.266125 200.057483 
L 120.989766 200.560958 
L 120.692149 200.782056 
L 120.334623 200.832842 
L 118.58564 200.801875 
L 118.489011 201.291173 
L 118.166271 201.309754 
L 116.966141 200.873719 
L 116.851152 201.412575 
L 116.966141 201.941572 
L 117.329465 202.309546 
L 117.537217 202.692414 
L 117.601959 203.153378 
L 117.528521 203.748846 
L 117.686026 204.232207 
L 117.944025 204.537738 
L 118.58564 205.04596 
L 118.877459 205.461869 
L 119.354806 206.885863 
L 120.155859 207.912083 
L 120.247657 208.364175 
L 120.109477 208.80948 
L 118.985684 210.107145 
L 119.02047 211.234469 
L 118.746044 211.653937 
L 118.373057 211.68 
L 116.966141 211.34802 
L 116.502322 211.580714 
L 116.042369 211.640285 
L 115.500249 211.455643 
L 115.078979 211.166215 
L 113.472041 209.406171 
L 113.155099 208.816923 
L 112.666156 207.562961 
L 111.939507 207.20146 
L 111.269869 207.239903 
L 110.588636 206.913144 
L 110.295851 207.177898 
L 110.157671 206.751942 
L 109.87165 206.377474 
L 109.534415 206.193349 
L 109.251293 206.334077 
L 108.87444 205.829457 
L 108.723699 205.706098 
L 107.925545 206.363835 
L 107.6144 206.469228 
L 107.169907 206.838122 
L 106.648111 207.06071 
L 105.562003 207.152476 
L 105.070162 207.009868 
L 104.914589 206.828202 
L 104.30003 205.885868 
L 103.901919 205.69432 
L 103.55792 205.271576 
L 102.268891 202.667632 
L 102.200285 201.35559 
L 102.460216 201.367978 
L 103.776302 200.909021 
L 103.909649 200.723839 
L 104.265244 200.077299 
L 104.450771 200.098354 
L 104.779309 200.381362 
L 105.019915 200.397463 
L 105.845125 199.617831 
L 106.532157 199.380062 
L 107.424041 197.755586 
L 108.018308 196.769621 
L 108.24442 196.124787 
L 108.292734 195.417538 
L 108.024106 193.830123 
L 108.13233 191.770151 
L 107.92941 191.342919 
L 107.900421 190.803827 
L 108.13233 189.822845 
L 108.219296 189.749294 
L 108.55943 189.586126 
L 108.553632 189.459427 
L 108.420284 189.124461 
L 108.435745 188.618963 
L 108.90826 188.560877 
L 109.050305 188.0301 
L 108.742059 187.27141 
L 108.924687 186.815507 
L 109.66583 186.229934 
L 109.843628 185.914319 
L 109.340191 185.791414 
L 109.104417 185.56661 
L 108.530441 184.498304 
L 108.493722 184.113644 
L 108.412554 184.089565 
L 108.071454 184.113644 
L 107.6144 183.528373 
L 107.204693 183.429599 
L 107.049121 183.033289 
L 107.125458 181.9834 
L 107.413412 181.168201 
L 108.693744 179.652926 
L 109.299607 179.18412 
L 109.253225 178.02956 
L 109.188484 177.928425 
L 108.4657 178.02586 
L 108.084982 177.939525 
L 107.791231 177.704579 
L 107.68204 177.268014 
L 107.846309 176.740856 
L 108.219296 176.43815 
L 109.090889 176.093543 
L 110.053312 175.206551 
L 110.167334 174.778212 
L 110.277491 173.249429 
L 110.737444 171.770383 
L 110.926837 170.547927 
L 110.738411 169.418729 
L 110.214682 168.478131 
L 109.38464 167.813418 
L 108.167117 167.413402 
L 107.130289 167.444172 
L 106.663572 166.991267 
L 106.458719 166.613468 
L 105.497261 163.765522 
L 105.532048 162.923141 
L 105.981372 162.304668 
L 106.572741 161.972717 
L 106.667882 161.727561 
L 106.646179 161.612514 
L 106.325371 161.399847 
L 104.149289 160.720112 
L 103.189764 160.638993 
L 100.236786 159.34004 
L 99.840608 158.965288 
L 99.547823 158.483683 
L 99.363262 157.917367 
L 99.293689 157.29462 
L 99.247307 155.721528 
L 98.892679 155.106431 
L 98.221108 154.612937 
L 97.708009 153.983255 
L 97.034506 153.448151 
L 96.828687 152.987961 
L 96.500149 151.822347 
L 96.051791 151.056878 
L 95.740646 150.733064 
L 94.362718 149.697987 
L 94.163663 149.281077 
L 94.049641 148.261031 
L 94.13564 147.243658 
L 94.609122 144.848193 
L 94.197483 142.619255 
L 94.320201 140.980081 
L 94.072832 140.228632 
L 93.8989 138.055754 
L 93.991663 137.529819 
L 95.284557 133.526157 
L 95.357029 132.433867 
L 95.321276 129.301431 
L 94.670964 127.825738 
L 94.072832 127.285141 
L 93.415755 125.936986 
L 93.193509 125.652767 
L 91.954727 124.823393 
L 89.052962 122.983475 
L 88.507009 122.381311 
L 87.868293 121.399013 
L 87.625754 120.636239 
L 87.353261 120.230538 
L 86.648836 118.765212 
L 85.258347 117.697288 
L 84.997449 117.226123 
L 84.82545 116.511559 
L 83.759634 113.907518 
L 82.343055 112.266817 
L 82.129505 111.813274 
L 81.334249 109.441175 
L 80.403713 107.47304 
L 80.055849 107.0188 
L 79.595896 106.731586 
L 79.143673 106.676938 
L 78.733 106.803843 
L 78.372575 107.092277 
L 77.698105 107.84655 
L 77.395657 107.770023 
L 76.638087 106.738872 
L 76.027392 106.420712 
L 75.701753 106.35514 
L 74.362477 106.201535 
L 72.974887 105.319483 
L 72.709157 105.093081 
L 70.663524 104.545034 
L 69.799662 104.508014 
L 68.586004 104.128736 
L 67.094054 104.499518 
L 66.639899 104.736812 
L 66.232125 105.097937 
L 65.920014 105.570785 
L 65.756711 106.388533 
L 66.006013 106.685439 
L 66.900797 107.525269 
L 66.879538 107.739656 
L 66.470798 108.014792 
L 64.819411 108.44545 
L 64.501502 108.633156 
L 64.177795 109.297786 
L 63.947819 110.586033 
L 63.724606 110.935508 
L 63.022114 111.337288 
L 63.028039 111.327008 
L 63.090721 111.18654 
L 62.996229 111.245981 
L 62.689711 111.554302 
L 62.567959 112.296001 
L 62.722565 113.673354 
L 62.631734 113.902652 
L 62.446206 114.055929 
L 62.065489 114.728714 
L 61.738883 114.880805 
L 61.427738 114.778599 
L 60.849898 114.32722 
L 60.513629 114.223811 
L 60.208282 114.299239 
L 58.327884 115.362664 
L 58.212896 115.61335 
L 57.131619 116.328981 
L 56.161465 117.293081 
L 55.498591 117.487875 
L 55.241559 117.680243 
L 55.141065 118.040651 
L 55.427086 118.983213 
L 55.013515 118.917447 
L 53.788261 118.258616 
L 53.794058 118.040651 
L 54.107136 116.504256 
L 53.869429 115.564672 
L 53.269364 115.195954 
L 51.671122 115.188653 
L 50.987956 115.032901 
L 50.365666 114.645979 
L 49.859331 114.131354 
L 49.508569 113.596113 
L 48.950054 113.63747 
L 48.392505 113.29811 
L 47.455205 112.296001 
L 46.804893 111.412057 
L 46.239614 110.930646 
L 45.993211 110.133279 
L 45.872425 109.796631 
L 45.528426 109.565733 
L 44.125375 109.478846 
L 43.695757 109.983385 
L 40.868016 113.635645 
L 40.484399 113.783439 
L 39.762582 113.282298 
L 39.031101 113.040871 
L 38.738316 112.777568 
L 38.43007 113.130873 
L 38.277396 113.56023 
L 38.112161 114.560812 
L 37.591331 116.577289 
L 35.854911 116.986298 
L 35.549564 117.226123 
L 35.185273 117.939588 
L 34.758173 117.615713 
L 34.711791 118.28297 
L 34.505006 118.742073 
L 33.944558 118.995393 
L 34.360062 119.40585 
L 33.99094 119.712806 
L 33.358987 120.036838 
L 32.825596 120.856772 
L 32.715439 121.09803 
L 32.438114 120.375514 
L 32.369508 120.416936 
L 32.037105 120.786103 
L 31.213827 120.887233 
L 31.099805 121.089501 
L 31.467961 121.420947 
L 31.016704 121.987634 
L 30.874659 121.975446 
L 30.639851 122.072948 
L 28.577792 124.122206 
L 28.233793 124.680707 
L 27.739053 125.750351 
L 27.076179 126.046775 
L 27.029797 126.396898 
L 26.610428 127.072825 
L 26.368856 127.214367 
L 26.28962 127.148476 
L 24.880771 126.398118 
L 24.314526 125.668624 
L 23.613001 125.173418 
L 22.124916 124.835588 
L 21.8273 124.556319 
L 21.820535 124.034413 
L 22.078535 123.536954 
L 22.70469 122.65069 
L 23.223587 120.974962 
L 23.183969 120.066075 
L 23.47772 119.598304 
L 23.307654 119.276741 
L 23.47772 119.0027 
L 23.861337 118.802966 
L 23.963764 118.502164 
L 23.974393 117.22247 
L 24.113538 116.976559 
L 24.702974 116.580941 
L 25.195782 116.063648 
L 26.304115 114.007269 
L 26.90418 113.557189 
L 27.04719 113.251891 
L 26.989213 112.921683 
L 26.606563 111.591992 
L 26.681933 111.168913 
L 27.002741 109.913908 
L 26.815281 109.590037 
L 26.569844 109.363404 
L 26.359193 108.727923 
L 26.392047 107.660095 
L 26.864562 106.914356 
L 26.680001 106.600433 
L 25.344015 105.769421 
L 24.650795 104.856981 
L 24.525177 104.449755 
L 24.624705 103.978855 
L 25.168725 103.307794 
L 25.415129 102.509459 
L 26.863596 101.422612 
L 26.934135 101.164893 
L 26.966988 100.411837 
L 27.095505 100.257847 
L 27.588312 100.012931 
L 28.347815 99.035837 
L 28.448309 98.679487 
L 28.348781 98.308018 
L 27.90912 97.782082 
L 27.80766 97.356171 
L 27.870468 96.975132 
L 28.233793 95.81951 
L 28.16422 93.965029 
L 28.313995 93.544363 
L 28.956577 92.567013 
L 29.267722 91.46589 
L 30.062011 90.551341 
L 29.902573 89.858916 
L 29.403002 89.183539 
L 28.366174 88.034393 
L 28.243456 87.67237 
L 28.199006 87.121238 
L 28.256984 85.749788 
L 27.735188 83.112148 
L 27.295527 82.926228 
L 27.181505 82.230916 
L 27.282965 81.277478 
L 27.565121 80.446729 
L 27.98449 80.130042 
L 28.413522 79.991311 
L 28.665724 79.47443 
L 28.763319 78.8129 
L 28.653162 77.937466 
L 28.413522 77.520318 
L 27.847277 77.255103 
L 27.480088 77.460643 
L 27.265572 77.600489 
L 26.28962 77.825338 
L 25.750431 77.774701 
L 25.234433 77.545032 
L 24.00628 76.763901 
L 23.47772 76.697006 
L 21.61375 76.710264 
L 21.363481 76.950731 
L 21.135437 77.419052 
L 20.3769 78.492126 
L 19.199961 79.694563 
L 18.89558 79.236218 
L 18.625019 79.054101 
L 17.101182 78.360688 
L 16.610307 78.389628 
L 16.217028 78.738734 
L 15.855636 79.446688 
L 15.530963 79.472018 
L 14.45645 79.007066 
L 13.897935 78.478861 
L 13.627375 77.063436 
L 13.092051 76.210093 
L 12.980928 75.808798 
L 12.874636 74.681058 
L 12.349941 73.615072 
L 12.431109 73.191169 
L 13.122972 72.105736 
L 13.458274 71.249288 
L 14.309574 70.469445 
L 14.471911 69.28314 
L 15.41984 66.143525 
L 15.55512 65.21453 
L 15.478784 63.787239 
L 15.39375 63.814866 
L 15.156043 64.210083 
L 14.541484 63.85811 
L 14.340496 63.534997 
L 13.880542 63.25755 
L 13.143264 61.875432 
L 12.073583 59.116945 
L 11.698663 58.62931 
L 10.991339 58.403808 
L 10.313005 58.586128 
L 9.75449 59.027571 
L 9.386334 59.580649 
L 9.134133 60.459627 
L 8.616202 60.660651 
L 8.384293 60.889892 
L 8.395888 61.795594 
L 8.111799 62.131763 
L 7.777464 62.132964 
L 7.440229 61.925856 
L 7.185129 61.563896 
L 7.078837 61.107745 
L 7.126185 59.273506 
L 7.521397 58.656899 
L 7.815149 57.022313 
L 8.252878 54.159057 
L 8.493483 53.245065 
L 8.628764 52.872586 
L 9.134133 51.885884 
L 9.211436 51.500377 
L 9.403727 51.217858 
L 9.911029 50.699565 
L 10.685992 49.70269 
L 11.424237 49.447831 
L 12.081313 48.471639 
L 12.434008 48.390301 
L 15.295189 48.946542 
L 15.900085 48.712073 
L 16.976531 47.885573 
L 17.453877 47.208727 
L 16.910823 47.074808 
L 15.248807 47.413202 
L 14.902876 47.122636 
L 15.156043 45.226765 
L 15.231414 45.110846 
L 15.679772 44.68186 
L 15.651749 44.500244 
L 15.421773 43.863465 
L 15.765771 43.685475 
L 16.605476 43.481214 
L 16.956239 43.245912 
L 17.181384 42.886419 
L 18.150571 40.814976 
L 18.824075 37.298126 
L 19.241511 37.238509 
L 19.564252 37.35536 
L 20.068654 37.628425 
L 20.491889 37.56284 
L 21.386672 37.029856 
L 22.01476 36.281194 
L 22.274691 36.181066 
L 24.022707 35.122755 
L 26.896449 32.502212 
L 26.97182 32.155736 
L 26.932202 31.741438 
L 27.222089 31.765247 
L 27.447234 32.141449 
L 27.469459 32.820144 
L 27.105168 34.694994 
L 27.164111 35.182336 
L 28.193209 35.931953 
L 28.31786 35.912882 
L 28.348781 36.098821 
L 28.125568 36.75803 
L 27.876266 37.367284 
L 28.079187 37.653467 
L 28.055029 37.971874 
L 27.866603 38.824681 
L 28.079187 39.097862 
L 28.527545 40.04044 
L 28.815499 40.349518 
L 29.106351 40.473634 
L 29.431991 40.428283 
L 29.828169 40.227793 
L 31.092074 39.356747 
L 33.637279 38.891483 
L 34.797791 39.238636 
L 34.877993 39.312604 
L 34.92824 39.777924 
L 34.752376 40.218246 
L 34.837409 40.437831 
L 35.112801 40.490342 
L 35.850079 40.119199 
L 36.208572 40.125165 
L 36.489762 40.405608 
L 36.82893 41.12651 
L 37.127513 41.374802 
L 37.748836 41.317502 
L 38.295756 41.015501 
L 38.360497 40.55837 
L 38.171105 39.968843 
L 38.423306 39.705139 
L 39.015641 39.771958 
L 39.278471 39.507076 
L 39.361572 39.079967 
L 39.147056 38.53363 
L 38.70353 38.162694 
L 37.730477 37.74529 
L 37.468613 37.46983 
L 37.330434 37.079932 
L 37.33913 36.6865 
L 37.525624 35.82826 
L 37.602927 33.548999 
L 37.87542 33.057124 
L 37.949824 32.621284 
L 37.697623 31.702154 
L 37.724679 31.32243 
L 38.000072 31.120087 
L 38.79726 30.922516 
L 39.033034 30.514318 
L 38.989551 30.055005 
L 38.026161 29.290018 
L 38.072543 28.58467 
L 37.966251 28.394381 
L 37.581669 27.946057 
L 37.639646 27.187489 
L 38.00297 25.677994 
L 37.445422 25.029238 
L 37.210614 24.449503 
L 36.731335 23.586026 
L 36.684953 23.229773 
L 36.55547 23.0291 
L 35.890664 22.81063 
L 35.48289 22.517381 
L 35.305093 22.196854 
L 35.031633 20.807072 
L 34.344602 19.37873 
L 34.336871 18.872314 
L 34.560084 18.024508 
L 34.458624 17.410429 
L 33.602492 15.822416 
L 34.068243 15.224147 
L 34.261501 15.104507 
L 34.724353 15.186241 
L 34.953364 15.226516 
L 35.200733 15.097399 
L 35.292531 14.917355 
L 35.621069 13.501032 
L 35.995023 13.087856 
L 36.197943 11.222705 
L 36.84439 10.472686 
L 37.293715 10.182898 
L 38.077375 10.091827 
L 38.634923 10.625278 
L 39.250449 12.133845 
L 39.714267 12.660529 
L 40.187749 12.763508 
L 40.362647 12.465231 
L 40.441883 12.000116 
L 40.631275 11.598963 
L 40.962712 11.456974 
L 41.776327 11.434493 
L 42.175404 11.245185 
L 42.930076 11.223888 
L 44.440385 11.749242 
L 44.664701 12.33504 
L 44.876181 12.33504 
L 44.876181 12.33504 
" clip-path="url(#p6d7bba28c4)" style="fill: none; stroke: #000000; stroke-width: 0.5; stroke-linecap: square"/>
   </g>
  </g>
 </g>
 <defs>
  <clipPath id="p6d7bba28c4">
   <rect x="0" y="-0" width="155.649378" height="221.76"/>
  </clipPath>
 </defs>
</svg>
