<?xml version="1.0" encoding="utf-8" standalone="no"?>
<!DOCTYPE svg PUBLIC "-//W3C//DTD SVG 1.1//EN"
  "http://www.w3.org/Graphics/SVG/1.1/DTD/svg11.dtd">
<svg xmlns:xlink="http://www.w3.org/1999/xlink" width="223.2pt" height="54.084985pt" viewBox="0 0 223.2 54.084985" xmlns="http://www.w3.org/2000/svg" version="1.1">
 <metadata>
  <rdf:RDF xmlns:dc="http://purl.org/dc/elements/1.1/" xmlns:cc="http://creativecommons.org/ns#" xmlns:rdf="http://www.w3.org/1999/02/22-rdf-syntax-ns#">
   <cc:Work>
    <dc:type rdf:resource="http://purl.org/dc/dcmitype/StillImage"/>
    <dc:date>2026-04-26T19:21:55.342684</dc:date>
    <dc:format>image/svg+xml</dc:format>
    <dc:creator>
     <cc:Agent>
      <dc:title>Matplotlib v3.10.9, https://matplotlib.org/</dc:title>
     </cc:Agent>
    </dc:creator>
   </cc:Work>
  </rdf:RDF>
 </metadata>
 <defs>
  <style type="text/css">*{stroke-linejoin: round; stroke-linecap: butt}</style>
 </defs>
 <g id="figure_1">
  <g id="patch_1">
   <path d="M 0 54.084985 
L 223.2 54.084985 
L 223.2 0 
L 0 0 
z
" style="fill: #ffffff"/>
  </g>
  <g id="axes_1">
   <g id="patch_2">
    <path d="M 188.859447 13.361076 
L 193.764719 13.343452 
L 193.614277 14.075211 
L 193.693838 14.550127 
L 193.391508 14.961967 
L 193.293142 15.313745 
L 193.991829 15.609533 
L 196.918212 16.146828 
L 198.418185 16.804194 
L 198.797288 16.970428 
L 201.629645 17.659889 
L 202.150405 17.84135 
L 202.501918 18.130318 
L 202.665379 18.601564 
L 202.52651 19.73575 
L 202.323992 20.357639 
L 202.054933 20.79154 
L 201.207251 21.109403 
L 198.602003 21.608199 
L 198.076903 21.914346 
L 198.46458 22.284613 
L 199.192198 22.436234 
L 199.847488 22.639316 
L 199.995037 23.160127 
L 199.856167 23.38179 
L 199.401949 23.821103 
L 199.228362 24.046113 
L 199.156034 24.252255 
L 199.093832 24.658391 
L 198.998359 24.888911 
L 197.139535 26.482344 
L 196.569592 27.199517 
L 197.017732 27.248201 
L 197.488155 27.299309 
L 199.808431 26.777787 
L 200.99316 26.645879 
L 202.237199 26.78834 
L 202.836073 26.992054 
L 203.935456 27.494707 
L 204.551688 27.690155 
L 204.70213 27.981833 
L 204.175584 28.44917 
L 203.504382 28.932664 
L 203.206391 29.27563 
L 203.686648 29.628281 
L 206.440891 30.417295 
L 206.730202 30.766752 
L 206.753347 31.690727 
L 206.900896 32.125761 
L 207.279893 32.460568 
L 207.774616 32.682788 
L 210.013884 33.126885 
L 210.50282 33.279585 
L 210.673514 33.522263 
L 210.478229 33.70432 
L 209.750611 33.987605 
L 209.582811 34.231034 
L 209.672497 34.429775 
L 209.89816 34.613109 
L 211.353395 35.373545 
L 211.570379 35.54429 
L 211.671638 35.767915 
L 211.570379 36.477102 
L 211.651386 36.951671 
L 211.85535 37.370361 
L 212.985111 38.784729 
L 213.054545 39.005516 
L 212.999576 39.311073 
L 212.834669 39.474084 
L 212.609006 39.608164 
L 212.379004 39.829177 
L 212.134536 40.317554 
L 211.972521 40.808376 
L 211.706355 41.269398 
L 211.140752 41.67153 
L 210.078979 41.372062 
L 208.882678 41.563988 
L 208.402892 41.707911 
L 207.638639 41.937219 
L 206.440891 42.17932 
L 205.283646 42.282638 
L 204.930686 42.359598 
L 204.493826 42.549605 
L 204.216087 42.776812 
L 203.970173 43.032092 
L 203.631679 43.307927 
L 201.725118 43.920273 
L 200.848505 44.298907 
L 200.729887 44.799709 
L 199.818557 45.482331 
L 197.035383 46.254209 
L 196.255689 47.181641 
L 196.058957 48.179503 
L 195.817382 48.627363 
L 195.571468 48.950125 
L 194.784541 48.992446 
L 191.263624 48.855725 
L 190.340721 48.73801 
L 189.465554 48.517816 
L 188.766868 48.174082 
L 188.194032 48.460336 
L 186.886345 49.000043 
L 186.34244 49.097716 
L 185.572872 48.916487 
L 183.828325 48.289006 
L 183.219325 48.148064 
L 182.080885 48.067847 
L 178.450029 48.265152 
L 178.403976 48.277464 
L 177.799079 48.439189 
L 176.184723 49.27627 
L 174.579045 50.524516 
L 174.020675 50.802885 
L 171.787192 51.292432 
L 171.144921 51.313108 
L 169.654968 51.058501 
L 168.905652 51.024777 
L 168.219984 51.184706 
L 167.629789 51.626577 
L 166.032791 51.573235 
L 164.453152 51.388199 
L 160.570596 50.587576 
L 158.817369 50.021841 
L 157.338989 48.893701 
L 156.690932 48.253226 
L 155.987906 47.788773 
L 153.210518 46.771364 
L 151.480437 45.950344 
L 149.90265 45.509076 
L 147.38379 44.805107 
L 145.262739 43.803062 
L 144.444388 43.416779 
L 142.835817 42.949683 
L 142.49443 42.806968 
L 142.248515 42.589443 
L 141.727755 41.887732 
L 141.522344 41.704871 
L 141.180957 41.642492 
L 139.511631 41.698418 
L 139.031375 41.658624 
L 137.628215 41.3769 
L 135.725994 41.520976 
L 132.766567 41.308188 
L 126.051426 40.825565 
L 125.04173 40.519431 
L 124.225872 39.892489 
L 123.728257 39.224218 
L 123.456305 39.022667 
L 122.524722 38.595609 
L 122.244091 38.38297 
L 121.934528 37.999076 
L 121.211249 36.743745 
L 120.479292 35.87468 
L 119.978784 35.528281 
L 119.382802 35.448241 
L 118.995125 35.597655 
L 118.890973 35.817559 
L 118.856256 36.046067 
L 118.679776 36.226571 
L 118.45122 36.246867 
L 117.832094 36.146461 
L 117.551462 36.151801 
L 115.017985 36.61274 
L 113.998721 36.79826 
L 112.893552 37.156443 
L 110.619565 38.427957 
L 110.090126 38.655073 
L 108.475769 39.044642 
L 107.521042 39.217249 
L 106.601032 39.113787 
L 104.821768 38.573646 
L 103.919117 38.427957 
L 103.054077 38.491157 
L 99.672028 39.221538 
L 98.932953 39.277843 
L 98.890888 39.281048 
L 98.043206 39.213496 
L 97.105838 38.995868 
L 94.478892 38.141475 
L 91.394143 37.734037 
L 91.030302 37.685994 
L 90.104506 37.675292 
L 88.1748 37.860448 
L 87.303973 37.801579 
L 87.266363 37.733082 
L 87.298187 37.603061 
L 87.26347 37.449525 
L 87.026235 37.306179 
L 86.791893 37.270882 
L 86.028111 37.324364 
L 84.081046 37.283717 
L 83.181288 37.391756 
L 81.497497 37.80479 
L 80.490694 37.774822 
L 77.591924 37.267003 
L 75.705486 36.936703 
L 75.083467 36.88592 
L 71.840288 37.198153 
L 71.325314 37.333991 
L 71.568336 37.549026 
L 70.165176 38.173063 
L 68.753337 38.312281 
L 67.477475 37.904336 
L 66.488031 36.883247 
L 65.805256 36.287461 
L 64.896819 36.078106 
L 63.901588 36.153938 
L 63.079544 36.389068 
L 62.052889 36.682821 
L 58.092219 37.356454 
L 57.669824 37.381593 
L 57.186675 37.298692 
L 55.945529 36.760847 
L 55.202963 36.597231 
L 55.135458 36.582359 
L 53.341728 36.411924 
L 45.03271 36.527325 
L 44.483019 36.434896 
L 43.444391 36.116555 
L 42.912059 36.003884 
L 41.650662 35.968645 
L 38.546022 36.569302 
L 38.046321 36.666022 
L 30.185258 38.189126 
L 27.708754 38.235173 
L 26.670126 38.454736 
L 22.761532 39.697206 
L 22.324672 39.757824 
L 21.054595 39.783575 
L 20.195341 39.96761 
L 19.15382 40.329901 
L 18.15859 40.781518 
L 17.45267 41.2393 
L 16.975307 41.909248 
L 16.772789 42.483394 
L 16.353288 42.878591 
L 15.227867 43.009469 
L 13.581686 43.015394 
L 12.519173 43.125432 
L 12.519173 43.118645 
L 12.496393 43.022786 
L 12.22075 42.25124 
L 11.831205 41.567638 
L 10.578282 40.257117 
L 10.279859 39.809204 
L 10.159123 39.36323 
L 10.213796 39.23489 
L 10.471214 38.828051 
L 10.539556 38.590122 
L 10.539556 38.368286 
L 10.505385 38.181082 
L 10.211518 37.366158 
L 10.145455 36.952694 
L 10.200128 36.556274 
L 10.437044 36.238271 
L 10.815199 35.958231 
L 10.979218 35.797652 
L 11.113622 35.609371 
L 11.175129 35.380804 
L 11.179685 34.975092 
L 11.320924 34.764338 
L 11.1159 34.416843 
L 11.038447 34.044338 
L 11.202466 33.852281 
L 11.703635 34.047693 
L 11.879044 34.260772 
L 12.027117 34.801279 
L 12.275423 35.045635 
L 11.879044 35.327873 
L 12.072677 35.40601 
L 12.275423 35.456425 
L 12.275423 35.750578 
L 12.275423 35.89181 
L 11.879044 36.160893 
L 12.519173 36.536079 
L 12.753812 36.596664 
L 12.98845 36.548701 
L 13.184361 36.427543 
L 13.257259 36.265187 
L 12.945167 35.831279 
L 12.890494 35.463988 
L 12.931499 35.113666 
L 13.043123 34.891959 
L 12.917831 34.750906 
L 12.794816 34.388312 
L 12.658134 34.188621 
L 12.505505 34.03595 
L 12.371101 33.942014 
L 11.879044 33.765913 
L 11.571508 33.705544 
L 11.318646 33.691291 
L 11.111344 33.645181 
L 10.922267 33.484233 
L 10.806087 33.256281 
L 10.888096 33.164113 
L 11.033891 33.075307 
L 11.318646 32.231314 
L 12.316428 31.049745 
L 12.658134 30.383236 
L 12.849489 28.627824 
L 12.737865 28.222268 
L 12.541954 27.857699 
L 12.500949 27.510769 
L 12.849489 27.154849 
L 15.145755 26.540692 
L 15.412286 26.3538 
L 17.264333 25.902123 
L 17.770058 25.686342 
L 18.795177 25.057604 
L 19.079932 24.927442 
L 19.426194 24.845376 
L 20.212118 24.558631 
L 21.105111 24.231408 
L 21.731572 23.839753 
L 22.266912 23.258852 
L 22.601784 22.533762 
L 22.635954 21.708646 
L 22.553945 21.493224 
L 22.250965 20.94875 
L 22.310194 20.73107 
L 22.574447 20.444224 
L 22.635954 20.268708 
L 22.574447 18.949942 
L 22.635954 18.528951 
L 22.820476 18.168994 
L 23.162182 17.810853 
L 23.6064 17.537433 
L 24.084788 17.426616 
L 24.467499 17.262473 
L 25.517676 16.175114 
L 27.515518 15.144985 
L 30.597708 12.805092 
L 31.449696 12.434855 
L 32.625165 12.187861 
L 37.78265 12.05095 
L 38.996846 11.903473 
L 44.461867 10.757263 
L 52.558025 9.062412 
L 53.744884 8.919595 
L 54.387292 8.900122 
L 54.701662 8.857932 
L 55.045646 8.776805 
L 55.414689 8.719211 
L 55.82018 8.752469 
L 56.102657 8.820613 
L 56.095823 8.843329 
L 55.952306 8.892008 
L 55.82018 9.035632 
L 55.555927 9.788294 
L 55.453415 10.610046 
L 55.560483 11.014353 
L 55.833848 11.30735 
L 57.382916 12.195196 
L 63.620193 14.291177 
L 65.620313 15.265284 
L 67.889242 16.036643 
L 69.342632 16.363607 
L 70.29941 16.450494 
L 70.654784 16.513616 
L 70.736794 16.671035 
L 70.748184 16.870316 
L 70.873476 17.070471 
L 71.493103 17.566166 
L 71.616117 17.665509 
L 71.896317 17.994831 
L 72.115008 18.392509 
L 72.3337 19.102939 
L 72.572895 19.473221 
L 72.987498 19.633733 
L 73.235805 19.820628 
L 74.021729 21.696264 
L 74.313318 22.010837 
L 74.705141 22.137198 
L 75.201754 22.214016 
L 76.529852 22.830494 
L 78.84662 23.203433 
L 81.245397 23.386249 
L 81.589382 23.501254 
L 82.956206 24.300983 
L 83.206791 24.386303 
L 83.389034 24.447608 
L 84.701186 24.61332 
L 86.468946 24.687902 
L 91.252832 24.221469 
L 92.956807 23.892735 
L 93.683502 23.752011 
L 94.75646 23.386249 
L 95.262185 23.094262 
L 95.617559 22.8214 
L 96.00027 22.618885 
L 97.089174 22.498228 
L 98.166687 22.218146 
L 100.902615 21.508078 
L 101.139531 21.218463 
L 101.681705 20.984211 
L 102.315 20.824236 
L 102.800223 20.751681 
L 102.807057 20.534058 
L 103.084978 20.389834 
L 103.754722 20.199502 
L 105.615882 19.351419 
L 106.217285 18.787109 
L 106.447367 17.978402 
L 106.353967 17.044218 
L 105.684223 14.529065 
L 105.636384 13.783775 
L 105.504258 13.342024 
L 105.205834 13.144505 
L 105.039537 12.904615 
L 105.162552 12.378601 
L 105.492868 11.64037 
L 105.16483 10.464486 
L 105.014479 10.200274 
L 103.784337 9.410648 
L 103.387958 9.035632 
L 103.387958 8.675409 
L 103.087256 7.739181 
L 103.007525 7.267877 
L 103.087256 7.015346 
L 103.29228 6.775038 
L 103.572361 6.559971 
L 104.789944 6.749733 
L 105.588443 6.733809 
L 106.242286 6.594103 
L 106.554743 6.393323 
L 107.014747 5.92112 
L 107.364814 5.767207 
L 108.475769 5.544606 
L 109.94547 5.033499 
L 110.506734 4.986867 
L 112.471157 5.055536 
L 114.172307 4.983792 
L 114.609167 4.852623 
L 115.124141 4.304637 
L 115.534963 4.099378 
L 116.408683 4.184341 
L 117.137747 4.360952 
L 117.866812 4.407032 
L 118.163733 4.303839 
L 118.749211 4.100402 
L 119.426199 3.936134 
L 121.575782 3.817435 
L 122.29038 3.63124 
L 123.970493 2.983569 
L 124.361849 2.832789 
L 124.972295 2.68618 
L 125.631925 2.613142 
L 126.942505 2.599353 
L 127.668676 2.782724 
L 128.05346 3.189477 
L 128.310947 3.677273 
L 128.652334 4.103984 
L 129.063156 4.234504 
L 129.502909 4.234504 
L 130.399774 4.059971 
L 130.955252 3.783671 
L 130.764306 3.467592 
L 129.980273 2.931908 
L 130.012097 2.589649 
L 130.370843 2.458408 
L 130.880031 2.492621 
L 131.380539 2.646851 
L 131.571485 2.782724 
L 131.904192 3.14092 
L 132.080672 3.256951 
L 132.335266 3.315229 
L 132.508853 3.299892 
L 132.691119 3.263085 
L 132.974644 3.256951 
L 134.097172 3.486001 
L 135.792535 4.260611 
L 136.896258 4.527366 
L 137.885702 4.609819 
L 138.157655 4.681524 
L 138.397783 4.830081 
L 138.441508 4.938491 
L 138.449859 4.959196 
L 138.473004 5.090897 
L 138.623446 5.248253 
L 139.213641 5.541529 
L 139.832767 5.685647 
L 140.492396 5.723605 
L 141.192529 5.701035 
L 142.695925 5.504548 
L 143.009404 5.463584 
L 143.437585 5.468712 
L 143.859979 5.745662 
L 144.120359 6.148457 
L 144.479105 6.545315 
L 145.182131 6.802645 
L 151.063829 7.001484 
L 151.393643 7.064178 
L 151.601947 7.161314 
L 151.694527 7.350997 
L 151.596161 7.470281 
L 151.43704 7.588557 
L 151.35314 7.771151 
L 151.43704 8.181769 
L 151.680061 8.427325 
L 154.772799 9.416051 
L 155.704381 9.829665 
L 158.354472 11.493188 
L 159.306305 11.927121 
L 160.466443 12.247434 
L 160.821825 12.306529 
L 163.043126 12.676009 
L 163.049993 12.677152 
L 163.515784 12.853253 
L 164.453152 13.370407 
L 164.971019 13.597489 
L 165.404986 13.568452 
L 165.786877 13.435725 
L 166.165875 13.349672 
L 166.432041 13.376628 
L 166.949908 13.521787 
L 167.218968 13.557045 
L 167.505386 13.506233 
L 167.638469 13.383366 
L 167.736835 13.235643 
L 167.916208 13.106085 
L 168.743638 12.82321 
L 169.657861 12.613973 
L 170.59523 12.495915 
L 172.767957 12.541479 
L 173.262679 12.484524 
L 173.838408 12.286771 
L 174.174009 12.009385 
L 174.460428 11.71245 
L 174.897288 11.458546 
L 175.415155 11.366005 
L 175.759435 11.467853 
L 176.071891 11.61005 
L 176.505858 11.641079 
L 176.997687 11.598673 
L 177.48373 11.60281 
L 178.450029 11.730035 
L 179.109659 11.931777 
L 180.136714 12.541997 
L 180.702317 12.798347 
L 181.36918 12.923188 
L 183.617128 12.978104 
L 187.936545 13.591267 
z
" clip-path="url(#p633e6b5d25)" style="stroke: #000000; stroke-linejoin: miter"/>
   </g>
   <g id="line2d_1">
    <path d="M 188.859447 13.361076 
L 193.764719 13.343452 
L 193.614277 14.075211 
L 193.693838 14.550127 
L 193.391508 14.961967 
L 193.293142 15.313745 
L 193.991829 15.609533 
L 196.918212 16.146828 
L 198.797288 16.970428 
L 202.150405 17.84135 
L 202.501918 18.130318 
L 202.665379 18.601564 
L 202.52651 19.73575 
L 202.323992 20.357639 
L 202.054933 20.79154 
L 201.207251 21.109403 
L 198.602003 21.608199 
L 198.076903 21.914346 
L 198.46458 22.284613 
L 199.847488 22.639316 
L 199.995037 23.160127 
L 199.856167 23.38179 
L 199.228362 24.046113 
L 198.998359 24.888911 
L 197.139535 26.482344 
L 196.569592 27.199517 
L 197.488155 27.299309 
L 199.808431 26.777787 
L 200.99316 26.645879 
L 202.237199 26.78834 
L 202.836073 26.992054 
L 204.551688 27.690155 
L 204.70213 27.981833 
L 203.206391 29.27563 
L 203.686648 29.628281 
L 206.440891 30.417295 
L 206.730202 30.766752 
L 206.753347 31.690727 
L 206.900896 32.125761 
L 207.279893 32.460568 
L 207.774616 32.682788 
L 210.50282 33.279585 
L 210.673514 33.522263 
L 210.478229 33.70432 
L 209.750611 33.987605 
L 209.582811 34.231034 
L 209.672497 34.429775 
L 209.89816 34.613109 
L 211.570379 35.54429 
L 211.671638 35.767915 
L 211.570379 36.477102 
L 211.651386 36.951671 
L 211.85535 37.370361 
L 213.054545 39.005516 
L 212.999576 39.311073 
L 212.134536 40.317554 
L 211.706355 41.269398 
L 211.140752 41.67153 
L 210.078979 41.372062 
L 208.402892 41.707911 
L 207.638639 41.937219 
L 206.440891 42.17932 
L 204.930686 42.359598 
L 204.216087 42.776812 
L 203.631679 43.307927 
L 200.848505 44.298907 
L 200.729887 44.799709 
L 199.818557 45.482331 
L 197.035383 46.254209 
L 196.255689 47.181641 
L 196.058957 48.179503 
L 195.571468 48.950125 
L 194.784541 48.992446 
L 190.340721 48.73801 
L 189.465554 48.517816 
L 188.766868 48.174082 
L 186.886345 49.000043 
L 186.34244 49.097716 
L 185.572872 48.916487 
L 183.219325 48.148064 
L 182.080885 48.067847 
L 178.403976 48.277464 
L 177.799079 48.439189 
L 176.184723 49.27627 
L 174.579045 50.524516 
L 174.020675 50.802885 
L 171.787192 51.292432 
L 171.144921 51.313108 
L 168.905652 51.024777 
L 168.219984 51.184706 
L 167.629789 51.626577 
L 166.032791 51.573235 
L 164.453152 51.388199 
L 160.570596 50.587576 
L 158.817369 50.021841 
L 157.338989 48.893701 
L 156.690932 48.253226 
L 155.987906 47.788773 
L 153.210518 46.771364 
L 151.480437 45.950344 
L 147.38379 44.805107 
L 144.444388 43.416779 
L 142.49443 42.806968 
L 142.248515 42.589443 
L 141.522344 41.704871 
L 141.180957 41.642492 
L 139.031375 41.658624 
L 137.628215 41.3769 
L 135.725994 41.520976 
L 126.051426 40.825565 
L 125.04173 40.519431 
L 124.225872 39.892489 
L 123.456305 39.022667 
L 122.244091 38.38297 
L 121.934528 37.999076 
L 121.211249 36.743745 
L 120.479292 35.87468 
L 119.978784 35.528281 
L 119.382802 35.448241 
L 118.995125 35.597655 
L 118.679776 36.226571 
L 118.45122 36.246867 
L 117.551462 36.151801 
L 113.998721 36.79826 
L 112.893552 37.156443 
L 110.090126 38.655073 
L 107.521042 39.217249 
L 106.601032 39.113787 
L 104.821768 38.573646 
L 103.919117 38.427957 
L 103.054077 38.491157 
L 98.890888 39.281048 
L 98.043206 39.213496 
L 97.105838 38.995868 
L 94.478892 38.141475 
L 90.104506 37.675292 
L 88.1748 37.860448 
L 87.266363 37.733082 
L 87.26347 37.449525 
L 86.791893 37.270882 
L 86.028111 37.324364 
L 84.081046 37.283717 
L 83.181288 37.391756 
L 81.497497 37.80479 
L 80.490694 37.774822 
L 75.083467 36.88592 
L 71.325314 37.333991 
L 71.568336 37.549026 
L 70.165176 38.173063 
L 68.753337 38.312281 
L 67.477475 37.904336 
L 65.805256 36.287461 
L 64.896819 36.078106 
L 63.901588 36.153938 
L 62.052889 36.682821 
L 57.669824 37.381593 
L 57.186675 37.298692 
L 55.945529 36.760847 
L 55.135458 36.582359 
L 53.341728 36.411924 
L 44.483019 36.434896 
L 42.912059 36.003884 
L 41.650662 35.968645 
L 30.185258 38.189126 
L 27.708754 38.235173 
L 26.670126 38.454736 
L 22.324672 39.757824 
L 21.054595 39.783575 
L 20.195341 39.96761 
L 18.15859 40.781518 
L 17.45267 41.2393 
L 16.975307 41.909248 
L 16.772789 42.483394 
L 16.353288 42.878591 
L 15.227867 43.009469 
L 12.496393 43.022786 
L 12.22075 42.25124 
L 11.831205 41.567638 
L 10.279859 39.809204 
L 10.213796 39.23489 
L 10.539556 38.590122 
L 10.505385 38.181082 
L 10.145455 36.952694 
L 10.200128 36.556274 
L 10.437044 36.238271 
L 11.113622 35.609371 
L 11.320924 34.764338 
L 11.1159 34.416843 
L 11.038447 34.044338 
L 11.202466 33.852281 
L 11.703635 34.047693 
L 11.879044 34.260772 
L 12.027117 34.801279 
L 12.275423 35.045635 
L 11.879044 35.327873 
L 12.275423 35.456425 
L 12.275423 35.89181 
L 11.879044 36.160893 
L 12.753812 36.596664 
L 13.184361 36.427543 
L 13.257259 36.265187 
L 12.945167 35.831279 
L 12.931499 35.113666 
L 13.043123 34.891959 
L 12.917831 34.750906 
L 12.658134 34.188621 
L 12.371101 33.942014 
L 11.571508 33.705544 
L 11.111344 33.645181 
L 10.806087 33.256281 
L 11.033891 33.075307 
L 11.318646 32.231314 
L 12.316428 31.049745 
L 12.658134 30.383236 
L 12.849489 28.627824 
L 12.500949 27.510769 
L 12.849489 27.154849 
L 15.145755 26.540692 
L 15.412286 26.3538 
L 17.770058 25.686342 
L 19.079932 24.927442 
L 20.212118 24.558631 
L 21.105111 24.231408 
L 21.731572 23.839753 
L 22.266912 23.258852 
L 22.601784 22.533762 
L 22.553945 21.493224 
L 22.250965 20.94875 
L 22.310194 20.73107 
L 22.635954 20.268708 
L 22.635954 18.528951 
L 22.820476 18.168994 
L 23.162182 17.810853 
L 23.6064 17.537433 
L 24.467499 17.262473 
L 25.517676 16.175114 
L 27.515518 15.144985 
L 30.597708 12.805092 
L 31.449696 12.434855 
L 32.625165 12.187861 
L 37.78265 12.05095 
L 38.996846 11.903473 
L 53.744884 8.919595 
L 55.045646 8.776805 
L 55.82018 8.752469 
L 56.102657 8.820613 
L 55.952306 8.892008 
L 55.82018 9.035632 
L 55.555927 9.788294 
L 55.453415 10.610046 
L 55.560483 11.014353 
L 55.833848 11.30735 
L 57.382916 12.195196 
L 63.620193 14.291177 
L 65.620313 15.265284 
L 67.889242 16.036643 
L 69.342632 16.363607 
L 70.654784 16.513616 
L 70.873476 17.070471 
L 71.896317 17.994831 
L 72.115008 18.392509 
L 72.3337 19.102939 
L 72.572895 19.473221 
L 73.235805 19.820628 
L 74.021729 21.696264 
L 74.313318 22.010837 
L 76.529852 22.830494 
L 78.84662 23.203433 
L 81.589382 23.501254 
L 83.389034 24.447608 
L 84.701186 24.61332 
L 86.468946 24.687902 
L 91.252832 24.221469 
L 93.683502 23.752011 
L 94.75646 23.386249 
L 96.00027 22.618885 
L 97.089174 22.498228 
L 100.902615 21.508078 
L 101.139531 21.218463 
L 102.315 20.824236 
L 102.800223 20.751681 
L 102.807057 20.534058 
L 103.084978 20.389834 
L 103.754722 20.199502 
L 105.615882 19.351419 
L 106.217285 18.787109 
L 106.447367 17.978402 
L 106.353967 17.044218 
L 105.684223 14.529065 
L 105.504258 13.342024 
L 105.039537 12.904615 
L 105.162552 12.378601 
L 105.492868 11.64037 
L 105.014479 10.200274 
L 103.387958 9.035632 
L 103.387958 8.675409 
L 103.007525 7.267877 
L 103.087256 7.015346 
L 103.572361 6.559971 
L 104.789944 6.749733 
L 105.588443 6.733809 
L 106.242286 6.594103 
L 106.554743 6.393323 
L 107.014747 5.92112 
L 107.364814 5.767207 
L 108.475769 5.544606 
L 109.94547 5.033499 
L 110.506734 4.986867 
L 112.471157 5.055536 
L 114.172307 4.983792 
L 114.609167 4.852623 
L 115.124141 4.304637 
L 115.534963 4.099378 
L 118.163733 4.303839 
L 119.426199 3.936134 
L 121.575782 3.817435 
L 122.29038 3.63124 
L 124.972295 2.68618 
L 125.631925 2.613142 
L 126.942505 2.599353 
L 127.668676 2.782724 
L 128.05346 3.189477 
L 128.652334 4.103984 
L 129.063156 4.234504 
L 129.502909 4.234504 
L 130.399774 4.059971 
L 130.955252 3.783671 
L 130.764306 3.467592 
L 129.980273 2.931908 
L 130.012097 2.589649 
L 130.370843 2.458408 
L 130.880031 2.492621 
L 131.571485 2.782724 
L 132.080672 3.256951 
L 132.508853 3.299892 
L 132.974644 3.256951 
L 134.097172 3.486001 
L 135.792535 4.260611 
L 136.896258 4.527366 
L 138.157655 4.681524 
L 138.449859 4.959196 
L 138.473004 5.090897 
L 138.623446 5.248253 
L 139.213641 5.541529 
L 139.832767 5.685647 
L 141.192529 5.701035 
L 143.437585 5.468712 
L 143.859979 5.745662 
L 144.479105 6.545315 
L 145.182131 6.802645 
L 151.393643 7.064178 
L 151.601947 7.161314 
L 151.694527 7.350997 
L 151.35314 7.771151 
L 151.43704 8.181769 
L 151.680061 8.427325 
L 155.704381 9.829665 
L 158.354472 11.493188 
L 159.306305 11.927121 
L 160.821825 12.306529 
L 163.515784 12.853253 
L 164.971019 13.597489 
L 165.786877 13.435725 
L 166.432041 13.376628 
L 167.218968 13.557045 
L 167.638469 13.383366 
L 167.916208 13.106085 
L 169.657861 12.613973 
L 170.59523 12.495915 
L 173.262679 12.484524 
L 173.838408 12.286771 
L 174.897288 11.458546 
L 175.415155 11.366005 
L 176.505858 11.641079 
L 177.48373 11.60281 
L 178.450029 11.730035 
L 179.109659 11.931777 
L 180.702317 12.798347 
L 181.36918 12.923188 
L 183.617128 12.978104 
L 187.936545 13.591267 
L 188.859447 13.361076 
L 188.859447 13.361076 
" clip-path="url(#p633e6b5d25)" style="fill: none; stroke: #000000; stroke-width: 0.5; stroke-linecap: square"/>
   </g>
  </g>
 </g>
 <defs>
  <clipPath id="p633e6b5d25">
   <rect x="0" y="-0" width="223.2" height="54.084985"/>
  </clipPath>
 </defs>
</svg>
