<?xml version="1.0" encoding="utf-8" standalone="no"?>
<!DOCTYPE svg PUBLIC "-//W3C//DTD SVG 1.1//EN"
  "http://www.w3.org/Graphics/SVG/1.1/DTD/svg11.dtd">
<svg xmlns:xlink="http://www.w3.org/1999/xlink" width="185.456359pt" height="221.76pt" viewBox="0 0 185.456359 221.76" xmlns="http://www.w3.org/2000/svg" version="1.1">
 <metadata>
  <rdf:RDF xmlns:dc="http://purl.org/dc/elements/1.1/" xmlns:cc="http://creativecommons.org/ns#" xmlns:rdf="http://www.w3.org/1999/02/22-rdf-syntax-ns#">
   <cc:Work>
    <dc:type rdf:resource="http://purl.org/dc/dcmitype/StillImage"/>
    <dc:date>2026-04-26T19:21:49.010421</dc:date>
    <dc:format>image/svg+xml</dc:format>
    <dc:creator>
     <cc:Agent>
      <dc:title>Matplotlib v3.10.9, https://matplotlib.org/</dc:title>
     </cc:Agent>
    </dc:creator>
   </cc:Work>
  </rdf:RDF>
 </metadata>
 <defs>
  <style type="text/css">*{stroke-linejoin: round; stroke-linecap: butt}</style>
 </defs>
 <g id="figure_1">
  <g id="patch_1">
   <path d="M 0 221.76 
L 185.456359 221.76 
L 185.456359 0 
L 0 0 
z
" style="fill: #ffffff"/>
  </g>
  <g id="axes_1">
   <g id="patch_2">
    <path d="M 9.059095 207.511932 
L 9.059095 207.309075 
L 9.19589 206.761382 
L 8.685186 206.832377 
L 8.521032 206.680244 
L 8.521032 206.365842 
L 8.429834 205.985528 
L 9.122933 204.591156 
L 10.126101 203.186819 
L 11.329903 202.091863 
L 13.810464 201.118659 
L 14.612998 199.876934 
L 15.306097 198.457988 
L 16.072152 197.404032 
L 15.397294 196.557899 
L 16.072152 196.441371 
L 16.436941 196.603497 
L 16.838208 197.404032 
L 20.212501 190.601324 
L 20.704965 186.890212 
L 18.370319 183.731936 
L 20.768803 182.067118 
L 22.45595 179.755006 
L 24.571723 174.323194 
L 24.845314 172.685072 
L 24.918272 169.338802 
L 25.337779 167.610463 
L 27.380594 164.770918 
L 28.091931 163.235242 
L 27.635946 161.679579 
L 33.463441 157.533905 
L 36.390868 154.686873 
L 37.649388 151.018122 
L 37.886501 149.418791 
L 42.163645 138.663458 
L 41.461428 137.816795 
L 43.203292 136.415914 
L 44.516531 131.33294 
L 46.404311 130.214904 
L 46.331353 128.729405 
L 50.754413 118.769248 
L 51.201279 116.324652 
L 51.392793 111.195824 
L 51.420152 110.296017 
L 51.055364 108.838389 
L 50.362265 107.652328 
L 49.988357 106.637244 
L 50.590258 105.662451 
L 51.79406 105.290647 
L 53.271453 105.511718 
L 54.557333 106.02422 
L 55.241311 106.58197 
L 56.007367 106.58197 
L 57.092612 106.02422 
L 58.688562 106.129738 
L 59.737328 106.195059 
L 61.369757 105.662451 
L 62.081094 104.833445 
L 63.1481 102.376949 
L 63.731762 101.367387 
L 63.768241 100.855108 
L 63.604086 100.669288 
L 62.901868 100.609022 
L 63.859438 99.574519 
L 65.209155 96.622215 
L 66.020809 95.397349 
L 66.759506 95.156408 
L 68.619927 95.13131 
L 69.085032 94.624349 
L 69.030314 93.500087 
L 68.51049 92.917926 
L 67.908589 92.566638 
L 67.552921 92.104962 
L 67.525561 89.094522 
L 69.358623 83.692917 
L 69.851088 79.867814 
L 69.495419 78.424358 
L 67.908589 75.718409 
L 67.552921 73.97995 
L 67.552921 69.77276 
L 67.908589 68.871437 
L 69.495419 67.819991 
L 69.851088 67.184167 
L 69.914926 63.314979 
L 70.443869 59.472223 
L 71.811826 56.215985 
L 74.447422 54.130722 
L 76.362561 55.57086 
L 78.195623 53.005752 
L 79.891889 49.10679 
L 81.396642 46.578238 
L 87.607165 43.485841 
L 89.558783 41.088488 
L 87.525088 38.122525 
L 87.525088 37.358701 
L 89.604382 37.857926 
L 98.4961 35.756351 
L 104.48775 30.591572 
L 106.293453 29.404285 
L 107.442536 28.316888 
L 108.071796 26.591254 
L 108.162993 20.837889 
L 107.852923 18.251411 
L 107.159825 16.084052 
L 105.955992 14.69404 
L 107.383761 14.646472 
L 108.368233 14.893194 
L 109.190558 15.241147 
L 111.147921 16.677366 
L 113.580148 17.316452 
L 116.139778 17.37973 
L 119.104778 17.000068 
L 121.895863 17.181489 
L 126.795248 17.499959 
L 127.281693 17.360747 
L 128.625209 16.626746 
L 129.308549 16.474891 
L 129.876068 16.696348 
L 131.19642 17.58855 
L 131.87976 17.803703 
L 138.643667 17.461992 
L 139.755543 17.006395 
L 140.786343 16.006684 
L 141.203297 14.880542 
L 141.249625 12.483154 
L 141.62025 11.547122 
L 143.948238 10.08 
L 145.616051 11.06649 
L 148.256755 15.392984 
L 150.515251 17.221536 
L 153.167537 18.044173 
L 155.947225 17.993547 
L 158.65742 17.202553 
L 158.217303 21.063179 
L 157.418143 21.632901 
L 156.225193 20.759339 
L 154.568963 20.328916 
L 152.912732 21.259413 
L 152.681091 22.728122 
L 152.820076 24.53264 
L 152.310466 26.457805 
L 150.121462 28.01593 
L 147.052223 29.517271 
L 145.175934 31.322969 
L 146.29325 33.225951 
L 146.612106 33.769081 
L 146.913239 33.854642 
L 147.225954 33.876824 
L 147.538669 33.854642 
L 147.839801 33.769081 
L 150.017224 33.173343 
L 153.294939 33.037088 
L 156.364178 33.258899 
L 157.904588 33.750067 
L 157.904588 33.769081 
L 158.622674 35.819567 
L 159.734549 37.404455 
L 161.240214 38.545723 
L 163.139667 39.293955 
L 164.761152 41.120374 
L 165.571894 41.605571 
L 166.394218 41.345528 
L 168.177851 42.509428 
L 168.791699 43.584644 
L 168.699043 44.945474 
L 168.305254 46.960081 
L 168.004121 47.807284 
L 167.59875 48.38799 
L 167.239707 49.025853 
L 167.14705 50.035087 
L 167.448183 51.019026 
L 168.004121 51.971312 
L 170.424766 55.063665 
L 171.617715 56.248143 
L 172.416875 56.565721 
L 173.2392 56.508556 
L 173.968868 56.667347 
L 174.547969 57.623322 
L 174.316329 59.221042 
L 173.2392 60.577548 
L 172.393711 62.166184 
L 172.926485 64.479666 
L 173.656153 66.250077 
L 176.366349 68.697992 
L 176.965192 69.897844 
L 177.026524 70.020739 
L 173.864629 73.201094 
L 171.270254 77.174701 
L 166.255234 81.0925 
L 164.06623 83.623447 
L 163.417636 85.365216 
L 163.197577 86.814255 
L 162.583729 87.954516 
L 160.753768 88.792272 
L 159.213358 88.862353 
L 156.804295 88.040518 
L 155.518689 87.93859 
L 153.155955 89.037559 
L 149.42654 93.374017 
L 144.967457 96.956669 
L 143.206988 98.946133 
L 141.666578 101.15283 
L 139.269097 105.612258 
L 139.465992 106.058941 
L 140.184078 107.23955 
L 140.890582 107.992654 
L 144.191461 110.354427 
L 148.592634 111.043907 
L 150.526833 112.138868 
L 150.746892 114.677178 
L 149.391794 116.31223 
L 147.237536 116.631605 
L 143.010094 115.705443 
L 137.253823 113.103036 
L 135.308042 112.758224 
L 133.605483 113.34888 
L 132.041909 114.517518 
L 130.235111 115.517027 
L 127.895541 115.568123 
L 126.992142 115.041211 
L 125.567552 113.390387 
L 124.826302 112.994483 
L 120.807337 115.261553 
L 118.861555 116.031188 
L 116.776789 116.532598 
L 114.981574 117.21928 
L 113.869699 118.557638 
L 112.364035 121.193316 
L 108.657784 124.110883 
L 107.117374 126.233245 
L 106.434034 127.643056 
L 104.384014 129.379199 
L 103.550108 130.482417 
L 103.387959 131.518586 
L 103.712256 133.763957 
L 103.411123 134.954001 
L 102.87835 135.433894 
L 101.419014 135.945803 
L 100.967314 136.368147 
L 100.538779 139.014567 
L 102.021279 139.869111 
L 104.499834 140.298008 
L 107.117374 141.652027 
L 108.715694 142.061788 
L 110.777296 143.012618 
L 112.653586 144.299734 
L 113.638058 145.699084 
L 113.279015 147.998636 
L 111.553292 149.878992 
L 109.248468 151.28867 
L 107.117374 152.195446 
L 104.488252 152.163403 
L 101.847549 152.954888 
L 100.573525 154.598926 
L 102.090772 157.11834 
L 100.307138 161.078132 
L 96.832529 163.801119 
L 94.770927 164.939907 
L 91.97237 166.491953 
L 89.281043 167.984738 
L 87.55532 169.894203 
L 85.319988 174.051244 
L 83.490027 175.945706 
L 82.158093 176.732485 
L 80.606101 177.371583 
L 79.00778 177.789105 
L 77.52528 177.924 
L 75.544752 178.428265 
L 71.282564 182.582098 
L 70.347263 184.14928 
L 67.988189 184.409874 
L 66.752484 185.035349 
L 66.52781 186.703631 
L 65.016684 188.167976 
L 65.016684 188.180835 
L 64.940123 188.669613 
L 64.93561 188.698427 
L 64.287016 188.180835 
L 64.263852 188.164761 
L 64.25227 188.167976 
L 62.82768 187.190726 
L 60.800824 184.208075 
L 60.15223 183.468965 
L 58.843461 183.607142 
L 58.090629 184.786544 
L 57.430453 186.486773 
L 56.411234 188.180835 
L 55.542581 190.9266 
L 55.276195 197.063621 
L 54.673929 200.236387 
L 53.71262 202.328461 
L 51.627854 205.818271 
L 51.071917 207.714944 
L 47.632053 207.985464 
L 42.269572 210.140193 
L 35.945782 211.68 
L 34.463281 211.483486 
L 33.420898 210.211058 
L 32.644902 208.732648 
L 31.533027 207.466974 
L 30.282167 206.520228 
L 29.632683 206.242559 
L 29.054472 205.995366 
L 27.687792 205.995366 
L 23.541424 207.273754 
L 22.742264 207.219009 
L 21.155526 206.835801 
L 20.483768 206.790719 
L 19.7541 207.048335 
L 18.514822 207.946818 
L 18.028377 208.14005 
z
" clip-path="url(#p3a5dbe7169)" style="stroke: #000000; stroke-linejoin: miter"/>
   </g>
   <g id="line2d_1">
    <path d="M 9.059095 207.511932 
L 9.059095 207.309075 
L 9.19589 206.761382 
L 8.685186 206.832377 
L 8.521032 206.680244 
L 8.429834 205.985528 
L 9.122933 204.591156 
L 10.126101 203.186819 
L 11.329903 202.091863 
L 13.810464 201.118659 
L 14.612998 199.876934 
L 15.306097 198.457988 
L 16.072152 197.404032 
L 15.397294 196.557899 
L 16.072152 196.441371 
L 16.436941 196.603497 
L 16.838208 197.404032 
L 20.212501 190.601324 
L 20.704965 186.890212 
L 18.370319 183.731936 
L 20.768803 182.067118 
L 22.45595 179.755006 
L 24.571723 174.323194 
L 24.845314 172.685072 
L 24.918272 169.338802 
L 25.337779 167.610463 
L 27.380594 164.770918 
L 28.091931 163.235242 
L 27.635946 161.679579 
L 33.463441 157.533905 
L 36.390868 154.686873 
L 37.649388 151.018122 
L 37.886501 149.418791 
L 42.163645 138.663458 
L 41.461428 137.816795 
L 43.203292 136.415914 
L 44.516531 131.33294 
L 46.404311 130.214904 
L 46.331353 128.729405 
L 50.754413 118.769248 
L 51.201279 116.324652 
L 51.420152 110.296017 
L 51.055364 108.838389 
L 50.362265 107.652328 
L 49.988357 106.637244 
L 50.590258 105.662451 
L 51.79406 105.290647 
L 53.271453 105.511718 
L 54.557333 106.02422 
L 55.241311 106.58197 
L 56.007367 106.58197 
L 57.092612 106.02422 
L 59.737328 106.195059 
L 61.369757 105.662451 
L 62.081094 104.833445 
L 63.1481 102.376949 
L 63.731762 101.367387 
L 63.768241 100.855108 
L 63.604086 100.669288 
L 62.901868 100.609022 
L 63.859438 99.574519 
L 65.209155 96.622215 
L 66.020809 95.397349 
L 66.759506 95.156408 
L 68.619927 95.13131 
L 69.085032 94.624349 
L 69.030314 93.500087 
L 68.51049 92.917926 
L 67.908589 92.566638 
L 67.552921 92.104962 
L 67.525561 89.094522 
L 69.358623 83.692917 
L 69.851088 79.867814 
L 69.495419 78.424358 
L 67.908589 75.718409 
L 67.552921 73.97995 
L 67.552921 69.77276 
L 67.908589 68.871437 
L 69.495419 67.819991 
L 69.851088 67.184167 
L 69.914926 63.314979 
L 70.443869 59.472223 
L 71.811826 56.215985 
L 74.447422 54.130722 
L 76.362561 55.57086 
L 78.195623 53.005752 
L 79.891889 49.10679 
L 81.396642 46.578238 
L 87.607165 43.485841 
L 89.558783 41.088488 
L 87.525088 38.122525 
L 87.525088 37.358701 
L 89.604382 37.857926 
L 98.4961 35.756351 
L 104.48775 30.591572 
L 106.293453 29.404285 
L 107.442536 28.316888 
L 108.071796 26.591254 
L 108.162993 20.837889 
L 107.852923 18.251411 
L 107.159825 16.084052 
L 105.955992 14.69404 
L 107.383761 14.646472 
L 108.368233 14.893194 
L 109.190558 15.241147 
L 111.147921 16.677366 
L 113.580148 17.316452 
L 116.139778 17.37973 
L 119.104778 17.000068 
L 126.795248 17.499959 
L 127.281693 17.360747 
L 128.625209 16.626746 
L 129.308549 16.474891 
L 129.876068 16.696348 
L 131.19642 17.58855 
L 131.87976 17.803703 
L 138.643667 17.461992 
L 139.755543 17.006395 
L 140.786343 16.006684 
L 141.203297 14.880542 
L 141.249625 12.483154 
L 141.62025 11.547122 
L 143.948238 10.08 
L 145.616051 11.06649 
L 148.256755 15.392984 
L 150.515251 17.221536 
L 153.167537 18.044173 
L 155.947225 17.993547 
L 158.65742 17.202553 
L 158.217303 21.063179 
L 157.418143 21.632901 
L 156.225193 20.759339 
L 154.568963 20.328916 
L 152.912732 21.259413 
L 152.681091 22.728122 
L 152.820076 24.53264 
L 152.310466 26.457805 
L 150.121462 28.01593 
L 147.052223 29.517271 
L 145.175934 31.322969 
L 146.612106 33.769081 
L 147.225954 33.876824 
L 147.839801 33.769081 
L 150.017224 33.173343 
L 153.294939 33.037088 
L 156.364178 33.258899 
L 157.904588 33.769081 
L 158.622674 35.819567 
L 159.734549 37.404455 
L 161.240214 38.545723 
L 163.139667 39.293955 
L 164.761152 41.120374 
L 165.571894 41.605571 
L 166.394218 41.345528 
L 168.177851 42.509428 
L 168.791699 43.584644 
L 168.699043 44.945474 
L 168.305254 46.960081 
L 168.004121 47.807284 
L 167.239707 49.025853 
L 167.14705 50.035087 
L 167.448183 51.019026 
L 168.004121 51.971312 
L 170.424766 55.063665 
L 171.617715 56.248143 
L 172.416875 56.565721 
L 173.2392 56.508556 
L 173.968868 56.667347 
L 174.547969 57.623322 
L 174.316329 59.221042 
L 173.2392 60.577548 
L 172.393711 62.166184 
L 172.926485 64.479666 
L 173.656153 66.250077 
L 176.366349 68.697992 
L 177.026524 70.020739 
L 173.864629 73.201094 
L 171.270254 77.174701 
L 166.255234 81.0925 
L 164.06623 83.623447 
L 163.417636 85.365216 
L 163.197577 86.814255 
L 162.583729 87.954516 
L 160.753768 88.792272 
L 159.213358 88.862353 
L 156.804295 88.040518 
L 155.518689 87.93859 
L 153.155955 89.037559 
L 149.42654 93.374017 
L 144.967457 96.956669 
L 143.206988 98.946133 
L 141.666578 101.15283 
L 139.269097 105.612258 
L 139.465992 106.058941 
L 140.184078 107.23955 
L 140.890582 107.992654 
L 144.191461 110.354427 
L 148.592634 111.043907 
L 150.526833 112.138868 
L 150.746892 114.677178 
L 149.391794 116.31223 
L 147.237536 116.631605 
L 143.010094 115.705443 
L 137.253823 113.103036 
L 135.308042 112.758224 
L 133.605483 113.34888 
L 132.041909 114.517518 
L 130.235111 115.517027 
L 127.895541 115.568123 
L 126.992142 115.041211 
L 125.567552 113.390387 
L 124.826302 112.994483 
L 120.807337 115.261553 
L 118.861555 116.031188 
L 116.776789 116.532598 
L 114.981574 117.21928 
L 113.869699 118.557638 
L 112.364035 121.193316 
L 108.657784 124.110883 
L 107.117374 126.233245 
L 106.434034 127.643056 
L 104.384014 129.379199 
L 103.550108 130.482417 
L 103.387959 131.518586 
L 103.712256 133.763957 
L 103.411123 134.954001 
L 102.87835 135.433894 
L 101.419014 135.945803 
L 100.967314 136.368147 
L 100.538779 139.014567 
L 102.021279 139.869111 
L 104.499834 140.298008 
L 107.117374 141.652027 
L 108.715694 142.061788 
L 110.777296 143.012618 
L 112.653586 144.299734 
L 113.638058 145.699084 
L 113.279015 147.998636 
L 111.553292 149.878992 
L 109.248468 151.28867 
L 107.117374 152.195446 
L 104.488252 152.163403 
L 101.847549 152.954888 
L 100.573525 154.598926 
L 102.090772 157.11834 
L 100.307138 161.078132 
L 96.832529 163.801119 
L 89.281043 167.984738 
L 87.55532 169.894203 
L 85.319988 174.051244 
L 83.490027 175.945706 
L 82.158093 176.732485 
L 80.606101 177.371583 
L 79.00778 177.789105 
L 77.52528 177.924 
L 75.544752 178.428265 
L 71.282564 182.582098 
L 70.347263 184.14928 
L 67.988189 184.409874 
L 66.752484 185.035349 
L 66.52781 186.703631 
L 65.016684 188.180835 
L 64.93561 188.698427 
L 64.25227 188.167976 
L 62.82768 187.190726 
L 60.800824 184.208075 
L 60.15223 183.468965 
L 58.843461 183.607142 
L 58.090629 184.786544 
L 57.430453 186.486773 
L 56.411234 188.180835 
L 55.542581 190.9266 
L 55.276195 197.063621 
L 54.673929 200.236387 
L 53.71262 202.328461 
L 51.627854 205.818271 
L 51.071917 207.714944 
L 47.632053 207.985464 
L 42.269572 210.140193 
L 35.945782 211.68 
L 34.463281 211.483486 
L 33.420898 210.211058 
L 32.644902 208.732648 
L 31.533027 207.466974 
L 30.282167 206.520228 
L 29.054472 205.995366 
L 27.687792 205.995366 
L 23.541424 207.273754 
L 22.742264 207.219009 
L 21.155526 206.835801 
L 20.483768 206.790719 
L 19.7541 207.048335 
L 18.514822 207.946818 
L 18.028377 208.14005 
L 9.059095 207.511932 
L 9.059095 207.511932 
" clip-path="url(#p3a5dbe7169)" style="fill: none; stroke: #000000; stroke-width: 0.5; stroke-linecap: square"/>
   </g>
  </g>
 </g>
 <defs>
  <clipPath id="p3a5dbe7169">
   <rect x="0" y="-0" width="185.456359" height="221.76"/>
  </clipPath>
 </defs>
</svg>
