<?xml version="1.0" encoding="utf-8" standalone="no"?>
<!DOCTYPE svg PUBLIC "-//W3C//DTD SVG 1.1//EN"
  "http://www.w3.org/Graphics/SVG/1.1/DTD/svg11.dtd">
<svg xmlns:xlink="http://www.w3.org/1999/xlink" width="223.2pt" height="220.826249pt" viewBox="0 0 223.2 220.826249" xmlns="http://www.w3.org/2000/svg" version="1.1">
 <metadata>
  <rdf:RDF xmlns:dc="http://purl.org/dc/elements/1.1/" xmlns:cc="http://creativecommons.org/ns#" xmlns:rdf="http://www.w3.org/1999/02/22-rdf-syntax-ns#">
   <cc:Work>
    <dc:type rdf:resource="http://purl.org/dc/dcmitype/StillImage"/>
    <dc:date>2026-04-26T19:22:09.614938</dc:date>
    <dc:format>image/svg+xml</dc:format>
    <dc:creator>
     <cc:Agent>
      <dc:title>Matplotlib v3.10.9, https://matplotlib.org/</dc:title>
     </cc:Agent>
    </dc:creator>
   </cc:Work>
  </rdf:RDF>
 </metadata>
 <defs>
  <style type="text/css">*{stroke-linejoin: round; stroke-linecap: butt}</style>
 </defs>
 <g id="figure_1">
  <g id="patch_1">
   <path d="M 0 220.826249 
L 223.2 220.826249 
L 223.2 -0 
L 0 -0 
z
" style="fill: #ffffff"/>
  </g>
  <g id="axes_1">
   <g id="patch_2">
    <path d="M 175.114647 42.834903 
L 176.32962 42.76487 
L 178.294257 43.315115 
L 180.090866 44.185443 
L 180.853455 45.155721 
L 180.879306 47.056 
L 181.361848 48.285992 
L 182.464802 49.055912 
L 184.343271 49.565827 
L 187.212675 50.905482 
L 194.088905 58.300411 
L 196.837673 59.149485 
L 200.172386 59.239383 
L 202.705734 60.318094 
L 203.127958 65.879628 
L 204.062884 67.037482 
L 205.368334 68.045505 
L 206.514372 69.352791 
L 207.143401 70.989155 
L 208.056785 74.390747 
L 210.383328 77.591784 
L 211.227778 79.675402 
L 211.305329 80.263522 
L 211.227778 81.738655 
L 211.313946 82.436278 
L 211.68447 83.024236 
L 212.79604 84.140266 
L 213.054545 84.698235 
L 212.748648 86.102982 
L 211.206236 88.334233 
L 211.051133 89.848013 
L 211.107142 91.242081 
L 210.719385 92.317372 
L 210.021422 93.17354 
L 209.07357 93.890275 
L 206.876279 94.865748 
L 204.394632 95.642077 
L 202.042238 96.68704 
L 200.284405 98.498049 
L 199.681227 100.517633 
L 199.655725 102.603461 
L 199.651068 102.984351 
L 200.224087 105.281429 
L 201.413209 106.772753 
L 200.05175 107.717142 
L 199.922498 109.218039 
L 199.939732 110.808145 
L 199.000497 112.010493 
L 192.58096 114.007458 
L 190.159631 115.934495 
L 188.806788 118.337796 
L 187.751227 121.058182 
L 186.195889 123.92668 
L 186.182723 124.188796 
L 186.075254 126.32803 
L 185.575478 128.867662 
L 185.532393 131.168635 
L 186.747366 132.884095 
L 187.798619 133.707012 
L 188.031274 134.391072 
L 187.979573 135.2436 
L 188.160526 136.591633 
L 189.07391 138.434965 
L 189.272097 139.376317 
L 188.737854 140.198687 
L 187.781386 140.674243 
L 185.575478 141.328094 
L 184.558692 141.783782 
L 178.027734 145.83994 
L 174.735507 147.88399 
L 165.041574 154.247487 
L 159.673289 156.453446 
L 154.158519 157.640301 
L 146.670494 160.47827 
L 143.852791 160.458496 
L 139.802882 158.89623 
L 138.406955 158.738012 
L 137.054113 159.064334 
L 133.435045 161.229648 
L 131.375623 161.961196 
L 127.351564 161.377939 
L 125.343842 161.694286 
L 123.69372 163.137489 
L 122.985774 164.471042 
L 121.57398 167.12988 
L 120.26853 168.433965 
L 119.493015 169.016794 
L 118.458996 170.518157 
L 117.881668 171.090984 
L 117.075995 171.446514 
L 114.624507 171.802031 
L 113.099328 172.41428 
L 111.350112 173.47081 
L 110.066204 174.912243 
L 109.885251 176.689053 
L 110.798635 177.981968 
L 112.022225 178.54448 
L 112.995926 179.393118 
L 113.219964 181.573576 
L 112.634019 183.635179 
L 111.531065 184.927153 
L 104.448032 190.45797 
L 103.793153 191.59134 
L 103.974106 192.340276 
L 104.947808 194.015312 
L 105.21493 194.961084 
L 105.111528 195.739305 
L 103.698368 200.170986 
L 103.414012 200.751874 
L 102.746208 201.618218 
L 102.082712 202.17933 
L 101.371824 202.563229 
L 100.678169 203.055385 
L 100.139617 203.9412 
L 99.661383 205.860182 
L 99.717393 207.404923 
L 99.924197 208.929737 
L 99.906963 210.788692 
L 97.899242 209.923193 
L 88.050206 209.077287 
L 86.30099 208.516586 
L 84.637942 207.69023 
L 83.845194 207.070415 
L 83.190314 206.42104 
L 82.483735 205.870021 
L 81.51865 205.545299 
L 80.794836 205.663381 
L 79.200723 206.440719 
L 78.36489 206.578469 
L 74.866458 206.116016 
L 71.962586 205.220564 
L 69.455089 203.645938 
L 64.952796 198.57582 
L 59.873175 194.744353 
L 59.347548 193.936494 
L 59.209679 193.079299 
L 59.166595 192.222027 
L 58.890857 191.374532 
L 56.883135 188.565433 
L 54.703078 186.435877 
L 54.433881 185.502518 
L 54.12575 184.434054 
L 51.084009 183.043377 
L 49.774251 181.958311 
L 48.878101 180.508075 
L 48.266306 178.169476 
L 47.65882 177.547726 
L 46.318903 177.527987 
L 44.552453 178.258294 
L 43.966509 178.356979 
L 43.117751 178.228688 
L 41.456379 177.761339 
L 41.398694 177.745111 
L 40.493927 177.63655 
L 40.631796 176.146174 
L 38.774869 171.002099 
L 38.619766 168.266025 
L 40.442225 163.760174 
L 41.691666 162.494994 
L 41.7606 161.546 
L 40.976469 160.903399 
L 39.701178 160.547478 
L 37.84856 160.547478 
L 36.81454 160.794647 
L 36.043334 160.488157 
L 35.013623 158.89623 
L 34.453529 157.551292 
L 33.324725 153.010743 
L 32.135602 151.081106 
L 28.137394 147.705791 
L 26.54328 145.83451 
L 24.25174 140.368582 
L 17.366357 123.92668 
L 17.35774 123.92668 
L 17.35774 123.916756 
L 16.646852 122.487573 
L 14.216906 118.804485 
L 13.105335 117.811504 
L 12.010998 117.195805 
L 10.817567 116.222525 
L 10.145455 115.894766 
L 11.170857 113.510738 
L 11.205324 111.960812 
L 11.834353 111.056576 
L 12.71327 111.056576 
L 13.497401 112.199278 
L 14.066112 111.473926 
L 14.703757 109.92368 
L 15.151832 109.516203 
L 15.970431 109.496326 
L 16.228936 109.993248 
L 16.444357 110.58952 
L 17.125086 110.887643 
L 17.504227 110.619333 
L 20.201294 107.746964 
L 20.649369 107.438805 
L 23.001764 106.484448 
L 25.448943 106.22596 
L 26.293392 105.907812 
L 27.784104 105.082569 
L 30.127881 104.595344 
L 31.902948 103.839602 
L 34.617249 102.228486 
L 35.003216 101.816726 
L 35.18596 101.621764 
L 35.737437 100.766322 
L 36.151045 99.751632 
L 36.314764 98.647294 
L 36.762839 98.299054 
L 38.71886 98.388602 
L 39.166935 97.980652 
L 39.520225 96.249164 
L 40.442225 94.746308 
L 43.906191 90.913497 
L 44.457668 90.495283 
L 44.785107 89.917721 
L 44.905743 88.69278 
L 44.664472 87.935832 
L 44.173313 87.3382 
L 43.837256 86.780379 
L 44.035443 86.112944 
L 44.785107 85.495279 
L 45.552005 85.236246 
L 46.32752 84.807832 
L 47.137502 83.691876 
L 47.344306 82.824932 
L 47.508025 80.582488 
L 47.757913 79.804991 
L 49.140914 78.917773 
L 52.543196 77.789512 
L 53.2296 77.561873 
L 54.061124 76.84397 
L 53.923255 75.727129 
L 53.401936 73.483103 
L 53.445021 72.555426 
L 54.000806 71.697499 
L 54.840947 71.188694 
L 55.694013 70.859453 
L 56.297191 70.520224 
L 61.070914 64.571894 
L 62.958 60.97725 
L 62.864153 60.438022 
L 62.553009 58.650038 
L 63.117411 57.990731 
L 63.69043 58.650038 
L 64.104038 58.49021 
L 64.875244 58.090629 
L 65.405179 57.990731 
L 64.681366 57.031663 
L 63.638729 55.942611 
L 63.25528 55.053299 
L 64.577964 54.683562 
L 65.616292 54.213877 
L 66.637386 53.09454 
L 68.248733 50.725538 
L 68.567556 50.605574 
L 68.96393 50.735535 
L 69.299986 50.765526 
L 69.437855 50.365642 
L 69.442164 49.655809 
L 69.53264 49.355865 
L 69.717902 49.045913 
L 69.911781 48.525973 
L 69.997949 47.746013 
L 70.006566 46.405944 
L 70.687296 45.635825 
L 72.001362 45.175726 
L 72.893204 44.42552 
L 72.281409 42.794884 
L 81.777155 43.455173 
L 84.000296 42.434708 
L 84.775811 40.973867 
L 85.301438 39.442762 
L 85.97355 38.161663 
L 87.188523 37.450984 
L 88.756786 37.65118 
L 89.747721 38.582041 
L 90.523236 39.602889 
L 91.46247 40.09326 
L 93.728696 40.09326 
L 94.469744 39.873096 
L 94.573146 39.30265 
L 94.547295 38.552015 
L 94.900585 37.781305 
L 98.054345 33.486297 
L 101.750964 29.449961 
L 102.018086 28.888955 
L 104.318779 25.422068 
L 105.43035 24.008928 
L 106.257566 22.806104 
L 107.015847 23.106823 
L 111.52367 22.6434 
L 112.573702 22.535449 
L 114.253983 23.297274 
L 116.175536 23.507768 
L 118.105706 23.247155 
L 119.785988 22.585571 
L 121.388718 21.091838 
L 123.646327 17.110842 
L 125.266291 15.445792 
L 126.972423 14.713486 
L 138.579292 13.920934 
L 140.233723 13.509585 
L 144.981596 10.198138 
L 146.222419 10.037557 
L 147.799299 11.231824 
L 148.91087 12.606568 
L 149.669151 14.211878 
L 150.177544 16.117862 
L 150.780722 20.099239 
L 151.659638 21.462785 
L 155.356258 21.563039 
L 156.588465 22.625668 
L 159.009794 27.305954 
L 159.69914 27.847007 
L 162.301422 28.32792 
L 162.366179 28.35286 
L 163.680115 28.858901 
L 164.938172 29.640295 
L 164.957163 29.657178 
L 166.110061 30.682062 
L 167.178547 32.004154 
L 170.530494 38.041551 
z
" clip-path="url(#p5ba03bb119)" style="stroke: #000000; stroke-linejoin: miter"/>
   </g>
   <g id="line2d_1">
    <path d="M 175.114647 42.834903 
L 176.32962 42.76487 
L 178.294257 43.315115 
L 180.090866 44.185443 
L 180.853455 45.155721 
L 180.879306 47.056 
L 181.361848 48.285992 
L 182.464802 49.055912 
L 184.343271 49.565827 
L 187.212675 50.905482 
L 194.088905 58.300411 
L 196.837673 59.149485 
L 200.172386 59.239383 
L 202.705734 60.318094 
L 203.127958 65.879628 
L 204.062884 67.037482 
L 205.368334 68.045505 
L 206.514372 69.352791 
L 207.143401 70.989155 
L 208.056785 74.390747 
L 210.383328 77.591784 
L 211.227778 79.675402 
L 211.305329 80.263522 
L 211.227778 81.738655 
L 211.313946 82.436278 
L 211.68447 83.024236 
L 212.79604 84.140266 
L 213.054545 84.698235 
L 212.748648 86.102982 
L 211.206236 88.334233 
L 211.051133 89.848013 
L 211.107142 91.242081 
L 210.719385 92.317372 
L 210.021422 93.17354 
L 209.07357 93.890275 
L 206.876279 94.865748 
L 204.394632 95.642077 
L 202.042238 96.68704 
L 200.284405 98.498049 
L 199.681227 100.517633 
L 199.651068 102.984351 
L 200.224087 105.281429 
L 201.413209 106.772753 
L 200.05175 107.717142 
L 199.922498 109.218039 
L 199.939732 110.808145 
L 199.000497 112.010493 
L 192.58096 114.007458 
L 190.159631 115.934495 
L 188.806788 118.337796 
L 187.751227 121.058182 
L 186.195889 123.92668 
L 186.075254 126.32803 
L 185.575478 128.867662 
L 185.532393 131.168635 
L 186.747366 132.884095 
L 187.798619 133.707012 
L 188.031274 134.391072 
L 187.979573 135.2436 
L 188.160526 136.591633 
L 189.07391 138.434965 
L 189.272097 139.376317 
L 188.737854 140.198687 
L 187.781386 140.674243 
L 185.575478 141.328094 
L 184.558692 141.783782 
L 174.735507 147.88399 
L 165.041574 154.247487 
L 159.673289 156.453446 
L 154.158519 157.640301 
L 146.670494 160.47827 
L 143.852791 160.458496 
L 139.802882 158.89623 
L 138.406955 158.738012 
L 137.054113 159.064334 
L 133.435045 161.229648 
L 131.375623 161.961196 
L 127.351564 161.377939 
L 125.343842 161.694286 
L 123.69372 163.137489 
L 121.57398 167.12988 
L 120.26853 168.433965 
L 119.493015 169.016794 
L 118.458996 170.518157 
L 117.881668 171.090984 
L 117.075995 171.446514 
L 114.624507 171.802031 
L 113.099328 172.41428 
L 111.350112 173.47081 
L 110.066204 174.912243 
L 109.885251 176.689053 
L 110.798635 177.981968 
L 112.022225 178.54448 
L 112.995926 179.393118 
L 113.219964 181.573576 
L 112.634019 183.635179 
L 111.531065 184.927153 
L 104.448032 190.45797 
L 103.793153 191.59134 
L 103.974106 192.340276 
L 104.947808 194.015312 
L 105.21493 194.961084 
L 105.111528 195.739305 
L 103.414012 200.751874 
L 102.746208 201.618218 
L 102.082712 202.17933 
L 100.678169 203.055385 
L 100.139617 203.9412 
L 99.661383 205.860182 
L 99.717393 207.404923 
L 99.924197 208.929737 
L 99.906963 210.788692 
L 97.899242 209.923193 
L 88.050206 209.077287 
L 86.30099 208.516586 
L 84.637942 207.69023 
L 82.483735 205.870021 
L 81.51865 205.545299 
L 80.794836 205.663381 
L 79.200723 206.440719 
L 78.36489 206.578469 
L 74.866458 206.116016 
L 71.962586 205.220564 
L 69.455089 203.645938 
L 64.952796 198.57582 
L 59.873175 194.744353 
L 59.347548 193.936494 
L 58.890857 191.374532 
L 56.883135 188.565433 
L 54.703078 186.435877 
L 54.12575 184.434054 
L 51.084009 183.043377 
L 49.774251 181.958311 
L 48.878101 180.508075 
L 48.266306 178.169476 
L 47.65882 177.547726 
L 46.318903 177.527987 
L 44.552453 178.258294 
L 43.966509 178.356979 
L 43.117751 178.228688 
L 41.398694 177.745111 
L 40.493927 177.63655 
L 40.631796 176.146174 
L 38.774869 171.002099 
L 38.619766 168.266025 
L 40.442225 163.760174 
L 41.691666 162.494994 
L 41.7606 161.546 
L 40.976469 160.903399 
L 39.701178 160.547478 
L 37.84856 160.547478 
L 36.81454 160.794647 
L 36.043334 160.488157 
L 35.013623 158.89623 
L 34.453529 157.551292 
L 33.324725 153.010743 
L 32.135602 151.081106 
L 28.137394 147.705791 
L 26.54328 145.83451 
L 16.646852 122.487573 
L 14.216906 118.804485 
L 13.105335 117.811504 
L 12.010998 117.195805 
L 10.817567 116.222525 
L 10.145455 115.894766 
L 11.170857 113.510738 
L 11.205324 111.960812 
L 11.834353 111.056576 
L 12.71327 111.056576 
L 13.497401 112.199278 
L 14.066112 111.473926 
L 14.703757 109.92368 
L 15.151832 109.516203 
L 15.970431 109.496326 
L 16.444357 110.58952 
L 17.125086 110.887643 
L 17.504227 110.619333 
L 20.201294 107.746964 
L 20.649369 107.438805 
L 23.001764 106.484448 
L 25.448943 106.22596 
L 26.293392 105.907812 
L 27.784104 105.082569 
L 30.127881 104.595344 
L 31.902948 103.839602 
L 34.617249 102.228486 
L 35.18596 101.621764 
L 35.737437 100.766322 
L 36.151045 99.751632 
L 36.314764 98.647294 
L 36.762839 98.299054 
L 38.71886 98.388602 
L 39.166935 97.980652 
L 39.520225 96.249164 
L 40.442225 94.746308 
L 43.906191 90.913497 
L 44.457668 90.495283 
L 44.785107 89.917721 
L 44.905743 88.69278 
L 44.664472 87.935832 
L 43.837256 86.780379 
L 44.035443 86.112944 
L 44.785107 85.495279 
L 45.552005 85.236246 
L 46.32752 84.807832 
L 47.137502 83.691876 
L 47.344306 82.824932 
L 47.508025 80.582488 
L 47.757913 79.804991 
L 49.140914 78.917773 
L 53.2296 77.561873 
L 54.061124 76.84397 
L 53.923255 75.727129 
L 53.401936 73.483103 
L 53.445021 72.555426 
L 54.000806 71.697499 
L 54.840947 71.188694 
L 56.297191 70.520224 
L 61.070914 64.571894 
L 62.958 60.97725 
L 62.553009 58.650038 
L 63.117411 57.990731 
L 63.69043 58.650038 
L 65.405179 57.990731 
L 64.681366 57.031663 
L 63.638729 55.942611 
L 63.25528 55.053299 
L 64.577964 54.683562 
L 65.616292 54.213877 
L 66.637386 53.09454 
L 68.248733 50.725538 
L 68.567556 50.605574 
L 69.299986 50.765526 
L 69.437855 50.365642 
L 69.53264 49.355865 
L 69.911781 48.525973 
L 69.997949 47.746013 
L 70.006566 46.405944 
L 70.687296 45.635825 
L 72.001362 45.175726 
L 72.893204 44.42552 
L 72.281409 42.794884 
L 81.777155 43.455173 
L 84.000296 42.434708 
L 84.775811 40.973867 
L 85.301438 39.442762 
L 85.97355 38.161663 
L 87.188523 37.450984 
L 88.756786 37.65118 
L 89.747721 38.582041 
L 90.523236 39.602889 
L 91.46247 40.09326 
L 93.728696 40.09326 
L 94.469744 39.873096 
L 94.573146 39.30265 
L 94.547295 38.552015 
L 94.900585 37.781305 
L 98.054345 33.486297 
L 101.750964 29.449961 
L 102.018086 28.888955 
L 104.318779 25.422068 
L 106.257566 22.806104 
L 107.015847 23.106823 
L 112.573702 22.535449 
L 114.253983 23.297274 
L 116.175536 23.507768 
L 118.105706 23.247155 
L 119.785988 22.585571 
L 121.388718 21.091838 
L 123.646327 17.110842 
L 125.266291 15.445792 
L 126.972423 14.713486 
L 138.579292 13.920934 
L 140.233723 13.509585 
L 144.981596 10.198138 
L 146.222419 10.037557 
L 147.799299 11.231824 
L 148.91087 12.606568 
L 149.669151 14.211878 
L 150.177544 16.117862 
L 150.780722 20.099239 
L 151.659638 21.462785 
L 155.356258 21.563039 
L 156.588465 22.625668 
L 159.009794 27.305954 
L 159.69914 27.847007 
L 162.366179 28.35286 
L 163.680115 28.858901 
L 164.957163 29.657178 
L 166.110061 30.682062 
L 167.178547 32.004154 
L 170.530494 38.041551 
L 175.114647 42.834903 
L 175.114647 42.834903 
" clip-path="url(#p5ba03bb119)" style="fill: none; stroke: #000000; stroke-width: 0.5; stroke-linecap: square"/>
   </g>
  </g>
 </g>
 <defs>
  <clipPath id="p5ba03bb119">
   <rect x="0" y="0" width="223.2" height="220.826249"/>
  </clipPath>
 </defs>
</svg>
