<?xml version="1.0" encoding="utf-8" standalone="no"?>
<!DOCTYPE svg PUBLIC "-//W3C//DTD SVG 1.1//EN"
  "http://www.w3.org/Graphics/SVG/1.1/DTD/svg11.dtd">
<svg xmlns:xlink="http://www.w3.org/1999/xlink" width="216.96661pt" height="221.76pt" viewBox="0 0 216.96661 221.76" xmlns="http://www.w3.org/2000/svg" version="1.1">
 <metadata>
  <rdf:RDF xmlns:dc="http://purl.org/dc/elements/1.1/" xmlns:cc="http://creativecommons.org/ns#" xmlns:rdf="http://www.w3.org/1999/02/22-rdf-syntax-ns#">
   <cc:Work>
    <dc:type rdf:resource="http://purl.org/dc/dcmitype/StillImage"/>
    <dc:date>2026-04-26T19:21:58.473969</dc:date>
    <dc:format>image/svg+xml</dc:format>
    <dc:creator>
     <cc:Agent>
      <dc:title>Matplotlib v3.10.9, https://matplotlib.org/</dc:title>
     </cc:Agent>
    </dc:creator>
   </cc:Work>
  </rdf:RDF>
 </metadata>
 <defs>
  <style type="text/css">*{stroke-linejoin: round; stroke-linecap: butt}</style>
 </defs>
 <g id="figure_1">
  <g id="patch_1">
   <path d="M 0 221.76 
L 216.96661 221.76 
L 216.96661 0 
L 0 0 
z
" style="fill: #ffffff"/>
  </g>
  <g id="axes_1">
   <g id="patch_2">
    <path d="M 37.436373 10.08 
L 37.694616 10.139076 
L 38.121454 10.291366 
L 38.304528 10.401521 
L 38.462317 10.755657 
L 38.653483 10.905211 
L 39.060091 11.081776 
L 40.562113 11.305611 
L 41.020306 11.46817 
L 40.765417 11.211123 
L 39.955235 10.964813 
L 39.747886 10.70506 
L 40.346671 11.022731 
L 41.685848 11.439482 
L 44.590769 13.16872 
L 45.108637 13.674097 
L 45.584025 13.807659 
L 46.382069 14.303147 
L 47.364199 14.758221 
L 47.916458 14.902616 
L 52.658195 15.375401 
L 53.833514 15.295274 
L 56.941739 14.435648 
L 57.451516 14.216887 
L 57.852055 13.914181 
L 58.063451 13.793006 
L 58.349695 13.74454 
L 59.211461 13.71129 
L 60.387792 13.910799 
L 60.529397 13.975618 
L 60.658864 14.079899 
L 63.118741 15.316716 
L 63.684149 15.447067 
L 65.799117 15.360729 
L 66.336204 15.437474 
L 67.392171 15.73321 
L 68.335865 16.124434 
L 70.626828 16.497706 
L 70.748204 16.54176 
L 70.972748 16.73833 
L 71.046585 16.781828 
L 71.257981 16.869393 
L 71.70707 17.294313 
L 72.386773 17.709199 
L 73.467015 18.593122 
L 74.0304 19.169728 
L 74.280231 19.258024 
L 76.295065 19.582962 
L 76.494323 19.686008 
L 76.684478 19.846256 
L 77.228645 20.131129 
L 77.478476 20.208163 
L 79.769439 20.303329 
L 82.300118 20.736763 
L 82.862491 20.933416 
L 83.135586 20.977624 
L 83.309558 21.056976 
L 83.772808 21.651707 
L 84.225943 21.906352 
L 84.391823 22.067445 
L 84.505107 22.57468 
L 84.612322 22.855049 
L 84.883394 23.366001 
L 85.404297 24.056674 
L 85.478134 24.274857 
L 85.455882 24.569236 
L 85.343609 25.070629 
L 85.309219 25.635923 
L 85.28899 25.959627 
L 85.361816 26.983606 
L 85.478134 27.486497 
L 86.96903 31.194904 
L 87.267411 31.707401 
L 88.614679 33.549902 
L 89.418792 34.38621 
L 90.338212 35.085537 
L 93.85709 36.671676 
L 97.760324 37.354396 
L 102.351353 37.400879 
L 105.009477 37.972582 
L 107.724243 38.882864 
L 109.840222 39.339095 
L 110.279197 39.337371 
L 110.392481 39.38737 
L 110.479467 39.448291 
L 110.934625 39.682805 
L 111.29066 40.013952 
L 111.421139 40.089851 
L 111.533411 40.137577 
L 113.362135 40.667281 
L 114.329094 41.131586 
L 115.376969 41.477472 
L 116.279194 41.640949 
L 116.441028 41.782568 
L 116.782902 42.288139 
L 117.010481 42.492032 
L 117.250198 42.610119 
L 118.369887 42.854967 
L 120.339204 43.588615 
L 120.749858 43.827293 
L 121.08971 44.145017 
L 122.190181 45.420101 
L 125.224569 47.646491 
L 125.907306 48.418519 
L 126.278513 48.75175 
L 127.099821 49.189812 
L 127.618701 49.293416 
L 127.861452 49.411499 
L 129.668936 50.586496 
L 130.191862 50.80898 
L 131.295368 50.973548 
L 132.403931 50.99441 
L 133.569136 50.862289 
L 134.214449 50.676296 
L 134.797051 50.508866 
L 135.796376 50.018855 
L 137.183092 49.114574 
L 137.43798 48.99883 
L 137.997319 48.898141 
L 138.250185 48.765057 
L 139.896846 47.492136 
L 141.953149 45.050726 
L 142.498328 44.104072 
L 142.796709 43.694113 
L 143.250856 43.337875 
L 143.471355 43.121179 
L 144.259284 41.48035 
L 144.840875 39.917359 
L 144.911677 39.314958 
L 144.840875 37.500163 
L 144.610262 37.130609 
L 144.301765 36.203723 
L 144.039797 35.81102 
L 143.494618 35.25799 
L 143.294349 34.963515 
L 142.456858 32.675226 
L 142.383021 32.091474 
L 142.371895 31.472553 
L 142.326379 31.242888 
L 142.109926 30.713439 
L 142.032043 30.453075 
L 141.989562 29.870868 
L 142.019906 29.233588 
L 142.201969 28.060245 
L 142.371895 27.534348 
L 142.344585 27.39422 
L 142.294012 27.241008 
L 142.273783 27.089522 
L 142.329413 26.952858 
L 142.48619 26.739919 
L 143.614982 24.456705 
L 143.907295 24.032812 
L 146.271083 21.757189 
L 146.463261 21.460615 
L 147.063058 20.778132 
L 147.314913 20.637599 
L 147.809518 20.432494 
L 148.031028 20.255745 
L 148.19792 20.086949 
L 150.011472 18.718153 
L 152.918416 17.534523 
L 154.627787 16.429368 
L 156.080248 15.739984 
L 156.64869 15.618068 
L 159.011466 15.755788 
L 159.571817 15.707246 
L 160.602497 15.447067 
L 161.097102 15.1813 
L 163.011801 13.54393 
L 163.192853 13.460541 
L 163.795685 13.417157 
L 164.349966 13.271807 
L 164.689818 13.54224 
L 165.233984 13.748485 
L 165.838839 13.878673 
L 166.352662 13.92489 
L 169.071474 13.649866 
L 169.135196 13.603659 
L 169.265674 13.403072 
L 169.326362 13.358001 
L 169.60148 13.310678 
L 169.734993 13.305608 
L 169.881655 13.358001 
L 169.98179 13.440257 
L 170.002019 13.513504 
L 170.002019 13.605913 
L 170.051581 13.74454 
L 170.446051 14.134016 
L 170.94976 14.234928 
L 172.096758 14.216887 
L 172.588329 14.380391 
L 173.808153 15.25747 
L 174.049893 15.392894 
L 174.2623 15.480927 
L 174.49089 15.528332 
L 175.070458 15.568966 
L 177.974368 16.402824 
L 178.648002 16.824197 
L 178.869512 16.885212 
L 179.010105 16.907246 
L 179.424805 17.066579 
L 179.591696 17.089746 
L 180.017522 17.066579 
L 180.300732 17.151904 
L 180.818601 17.402261 
L 181.378951 17.486477 
L 181.623725 17.578614 
L 181.77949 17.724463 
L 181.807811 17.920651 
L 181.737009 18.063712 
L 181.521567 18.317643 
L 181.478074 18.446607 
L 181.595404 19.295382 
L 181.712734 19.511627 
L 181.9039 19.683177 
L 182.155754 19.827569 
L 182.056631 20.09941 
L 181.900866 20.977624 
L 181.65508 20.882408 
L 181.698573 20.748664 
L 181.670252 20.631932 
L 181.589335 20.522577 
L 181.478074 20.407 
L 181.287919 21.549636 
L 181.306126 21.833753 
L 181.492235 21.980089 
L 182.24982 22.259195 
L 182.528984 22.309123 
L 182.729253 22.424871 
L 182.970993 22.69329 
L 183.173286 22.99696 
L 183.331074 23.415971 
L 183.503022 23.511375 
L 183.700258 23.568166 
L 183.851977 23.651086 
L 183.949077 23.810693 
L 184.064384 24.112352 
L 184.184748 24.223717 
L 184.162496 23.993044 
L 184.021903 23.366001 
L 184.261619 23.454586 
L 184.803763 23.464808 
L 184.914013 23.507967 
L 185.262967 23.786836 
L 185.341861 23.833982 
L 186.905583 23.963502 
L 188.628103 23.93737 
L 190.749141 24.414082 
L 192.717447 25.185488 
L 192.426146 25.460735 
L 192.369504 25.567097 
L 192.469639 25.62796 
L 192.794318 25.758227 
L 193.57719 26.342032 
L 193.8604 26.417729 
L 196.225199 26.392686 
L 199.520544 26.618092 
L 200.641245 26.290241 
L 200.918386 26.097894 
L 201.064036 26.044976 
L 201.565722 26.140572 
L 201.664845 26.113258 
L 201.760934 26.060339 
L 201.852977 26.034734 
L 201.954124 26.092773 
L 202.003685 26.132037 
L 202.155405 26.219104 
L 202.328365 26.264062 
L 202.57415 26.38984 
L 202.979747 26.456433 
L 203.489524 26.647694 
L 204.934904 26.947164 
L 205.385005 27.211393 
L 205.577183 27.669363 
L 205.465922 28.225521 
L 205.438612 28.532763 
L 205.529644 28.781915 
L 205.954458 29.241573 
L 206.614943 30.168789 
L 206.679677 30.409115 
L 206.86174 30.805949 
L 207.104491 31.220038 
L 207.057964 31.265739 
L 207.037735 31.312583 
L 206.261331 31.915827 
L 205.913216 32.395708 
L 205.457198 33.589988 
L 203.437874 35.194931 
L 203.285011 35.641775 
L 203.281158 36.157212 
L 203.404475 37.343171 
L 203.416036 38.49953 
L 203.703777 40.008789 
L 203.789842 40.295064 
L 204.225307 41.172518 
L 204.387162 41.894042 
L 204.929245 43.031554 
L 205.098806 43.602491 
L 205.020448 44.091633 
L 204.834188 44.578017 
L 204.680041 45.145191 
L 204.549016 45.92598 
L 204.17264 46.903863 
L 204.131535 47.186424 
L 204.01464 47.666541 
L 203.771859 48.154166 
L 203.046084 49.246058 
L 202.669708 49.62614 
L 202.333154 50.050452 
L 202.214975 50.249047 
L 202.006876 50.737561 
L 201.491769 51.66134 
L 201.292662 52.162123 
L 201.288809 52.71245 
L 201.400565 53.019752 
L 201.75125 53.650775 
L 202.821286 56.328317 
L 202.877806 56.649688 
L 202.862392 56.933441 
L 202.654293 57.679293 
L 202.73779 58.274992 
L 203.37493 59.353486 
L 203.554768 59.94283 
L 203.553484 60.291661 
L 203.441727 61.330495 
L 203.469988 61.885036 
L 203.593305 62.381185 
L 204.62352 64.904535 
L 204.84318 65.677461 
L 204.929245 66.505825 
L 204.929245 68.283807 
L 204.929245 70.70294 
L 204.929245 76.467254 
L 204.929245 82.197832 
L 204.929245 83.334547 
L 204.929245 88.465066 
L 204.929245 89.029743 
L 204.929245 91.256068 
L 204.929245 96.197013 
L 204.929245 97.499699 
L 204.929245 100.279871 
L 204.929245 103.15537 
L 204.929245 107.45782 
L 204.929245 111.771679 
L 204.929245 116.096074 
L 204.929245 120.428589 
L 204.929245 124.772947 
L 204.929245 129.128275 
L 204.929245 133.493305 
L 204.929245 137.867148 
L 204.929245 142.251625 
L 204.929245 146.64663 
L 204.929245 151.050883 
L 204.929245 155.463486 
L 204.929245 159.887063 
L 204.929245 164.319153 
L 204.929245 168.760425 
L 204.929245 173.210765 
L 204.929245 175.112792 
L 204.92796 177.018022 
L 204.92796 178.924077 
L 204.92796 180.830945 
L 204.92796 182.740202 
L 204.926676 184.651045 
L 204.925391 186.562674 
L 204.925391 188.476666 
L 204.925391 190.392218 
L 204.924107 192.309323 
L 204.924107 194.22797 
L 204.924107 196.148152 
L 204.922822 197.613804 
L 204.921538 199.081137 
L 204.921538 200.550148 
L 204.920253 202.019238 
L 204.920253 203.744957 
L 204.920253 203.84284 
L 204.908692 203.866817 
L 204.897131 203.889996 
L 204.88557 203.913974 
L 204.874009 203.937152 
L 204.845749 203.941948 
L 204.818773 203.945545 
L 204.791797 203.949142 
L 204.764821 203.952738 
L 203.512378 203.952738 
L 201.698583 203.951539 
L 200.180236 203.95114 
L 198.632344 203.949142 
L 196.970126 203.947543 
L 195.566105 203.947143 
L 194.503776 203.945545 
L 192.501151 203.945545 
L 192.501151 205.87694 
L 192.501151 207.809019 
L 192.501151 209.742975 
L 192.501151 211.68 
L 190.966104 210.732943 
L 189.431058 209.787837 
L 187.896012 208.842682 
L 186.360966 207.896676 
L 184.825919 206.951824 
L 183.289589 206.008525 
L 181.755827 205.063581 
L 180.219496 204.120592 
L 178.68445 203.17716 
L 177.149404 202.234885 
L 175.614357 201.29177 
L 174.079311 200.349414 
L 172.544265 199.40702 
L 171.009219 198.466185 
L 169.474172 197.525313 
L 167.939126 196.584806 
L 166.402795 195.643867 
L 164.869034 194.704886 
L 163.332703 193.765476 
L 161.797657 192.824843 
L 160.26261 191.886171 
L 158.727564 190.947868 
L 157.191233 190.009142 
L 155.657472 189.072378 
L 154.121141 188.135192 
L 152.587379 187.197587 
L 151.052333 186.261945 
L 149.516002 185.325092 
L 147.98224 184.387824 
L 146.44591 183.453313 
L 144.910863 182.51839 
L 143.375817 181.583054 
L 141.840771 180.649685 
L 140.30444 179.715114 
L 138.770678 178.781719 
L 137.234348 177.848709 
L 135.699301 176.915294 
L 134.164255 175.982267 
L 132.898976 175.214152 
L 132.629209 175.050418 
L 131.095447 174.118957 
L 129.559116 173.187887 
L 128.02407 172.256419 
L 126.489024 171.32692 
L 124.953978 170.396238 
L 123.417647 169.465951 
L 121.883885 168.536846 
L 120.347554 167.608138 
L 118.812508 166.679041 
L 117.277462 165.751914 
L 115.742415 164.824401 
L 114.207369 163.896502 
L 112.672323 162.969791 
L 111.135992 162.042697 
L 109.60223 161.1164 
L 108.067184 160.191292 
L 106.530853 159.265805 
L 104.997092 158.341117 
L 103.460761 157.417619 
L 101.925715 156.493355 
L 100.390668 155.568719 
L 98.855622 154.645277 
L 97.319291 153.722247 
L 95.78553 152.80002 
L 94.249199 151.878989 
L 93.117504 151.197661 
L 92.863161 151.235528 
L 92.310802 151.540444 
L 91.594018 151.934832 
L 90.877235 152.330078 
L 90.160452 152.7254 
L 89.444954 153.120408 
L 88.728171 153.516273 
L 88.011387 153.911823 
L 87.29332 154.307449 
L 86.576537 154.703151 
L 85.859754 155.098928 
L 85.14297 155.495173 
L 84.426187 155.89071 
L 83.709404 156.285932 
L 82.991337 156.681228 
L 82.277123 157.077383 
L 81.56034 157.473613 
L 80.842272 157.869917 
L 80.624116 157.993498 
L 80.61619 157.997988 
L 80.614905 157.998772 
L 78.487678 159.309307 
L 76.36302 160.619482 
L 74.237077 161.930469 
L 72.10985 163.242265 
L 71.324985 163.726837 
L 71.132301 163.751972 
L 70.951179 163.646722 
L 70.385974 163.076578 
L 68.830374 161.512607 
L 67.277344 159.950571 
L 65.721745 158.388125 
L 64.166788 156.827233 
L 63.467989 156.124312 
L 62.010016 155.206099 
L 60.747296 154.862313 
L 59.650284 154.563943 
L 58.553272 154.267179 
L 57.45626 153.968504 
L 56.359248 153.670654 
L 55.26352 153.372846 
L 54.166508 153.075472 
L 53.07078 152.777751 
L 51.972484 152.479682 
L 50.876756 152.182048 
L 49.781028 151.884846 
L 48.682732 151.588079 
L 47.587004 151.289793 
L 46.491277 150.992721 
L 45.39298 150.695693 
L 44.295968 150.398708 
L 43.20024 150.100595 
L 42.249668 147.946826 
L 41.378738 145.977962 
L 39.984644 142.82342 
L 39.965724 142.780643 
L 39.069103 140.755516 
L 38.207165 138.81472 
L 37.88731 138.354258 
L 37.480106 138.109524 
L 36.965675 137.921545 
L 33.022691 136.481336 
L 30.056648 135.399348 
L 27.686639 134.533188 
L 27.418166 134.475897 
L 27.148409 134.509962 
L 25.773933 135.070185 
L 24.324952 135.662719 
L 23.831682 135.717335 
L 23.599177 135.617014 
L 21.96522 134.168565 
L 21.740422 133.891854 
L 21.584991 133.370275 
L 21.366616 131.979578 
L 21.132826 131.574471 
L 19.283064 130.382845 
L 19.127632 129.983485 
L 19.101941 127.911187 
L 19.046705 125.802256 
L 18.995323 123.840436 
L 18.82833 122.896084 
L 18.350475 121.943756 
L 16.451899 119.072846 
L 14.925844 116.770788 
L 13.028553 113.911128 
L 11.286693 111.28997 
L 10.996383 110.468309 
L 11.303392 109.770008 
L 11.476807 109.532466 
L 11.704174 108.94524 
L 12.128078 108.516208 
L 12.237265 108.301731 
L 12.28351 108.049889 
L 12.298924 107.755355 
L 16.688257 105.51746 
L 16.922047 105.220308 
L 17.441008 103.328115 
L 17.412748 103.016122 
L 17.270162 102.606812 
L 17.30613 102.094172 
L 17.618277 100.527541 
L 17.569464 100.316335 
L 17.372927 100.138578 
L 16.816713 99.809699 
L 16.68055 99.676799 
L 16.561086 99.38901 
L 16.319589 97.853699 
L 15.266252 93.942461 
L 15.272675 93.699542 
L 15.33048 93.461955 
L 15.536009 92.884776 
L 15.700433 92.022785 
L 15.877702 91.712881 
L 16.413362 91.094759 
L 16.512273 90.814112 
L 16.388955 90.509344 
L 16.207833 90.182358 
L 16.168012 89.878085 
L 16.473736 89.644445 
L 16.823136 89.446312 
L 17.031234 89.155004 
L 17.875372 86.245879 
L 17.912441 86.118249 
L 17.932994 85.545161 
L 16.117914 80.559432 
L 15.957344 79.715239 
L 16.582797 74.626982 
L 16.880941 72.207327 
L 16.843689 69.468673 
L 16.568794 67.266551 
L 15.58418 63.815868 
L 14.599567 60.373141 
L 13.132602 57.595005 
L 11.54232 55.216255 
L 10.893002 54.444002 
L 10.153713 53.565247 
L 9.862119 53.097878 
L 12.76008 51.504513 
L 15.541147 50.046039 
L 15.907246 49.949694 
L 16.812859 49.890125 
L 17.130145 49.707021 
L 18.675468 47.725282 
L 19.987001 45.635608 
L 21.118696 44.36557 
L 21.885577 42.799587 
L 22.082114 42.22825 
L 22.087253 41.754387 
L 21.775105 40.763311 
L 21.719869 40.262198 
L 21.789235 39.719653 
L 21.772536 39.456855 
L 21.379461 38.649068 
L 21.000517 37.161713 
L 20.073066 34.751871 
L 20.049944 34.507487 
L 20.182254 33.589988 
L 20.377507 33.264434 
L 21.171363 32.4066 
L 22.010179 30.975442 
L 22.649889 30.479395 
L 24.046203 30.496797 
L 24.727018 30.237241 
L 24.929978 30.079937 
L 25.112386 29.901633 
L 25.261394 29.690744 
L 25.470777 29.206044 
L 25.994877 28.734556 
L 26.156731 28.269027 
L 26.26078 27.147512 
L 26.540814 26.860413 
L 26.774603 26.890784 
L 26.998116 27.012994 
L 27.225483 27.099778 
L 27.468264 27.027458 
L 27.884461 26.702789 
L 28.33534 26.435305 
L 28.742545 26.045744 
L 29.243523 24.935518 
L 29.582646 24.587549 
L 33.424706 22.835328 
L 36.677257 21.353817 
L 37.545618 20.803475 
L 37.697051 20.66608 
L 37.948969 20.43755 
L 38.169913 20.003039 
L 38.126238 19.41733 
L 37.837213 18.917406 
L 37.004819 18.142213 
L 36.750477 17.604741 
L 36.741485 16.840036 
L 36.922608 15.376868 
L 36.832689 13.940455 
L 37.054917 13.002002 
L 37.06134 12.227585 
L 37.092169 12.014938 
L 37.447992 10.699477 
z
" clip-path="url(#p26bf964166)" style="stroke: #000000; stroke-linejoin: miter"/>
   </g>
   <g id="line2d_1">
    <path d="M 37.436373 10.08 
L 38.121454 10.291366 
L 38.304528 10.401521 
L 38.462317 10.755657 
L 38.653483 10.905211 
L 39.060091 11.081776 
L 41.020306 11.46817 
L 40.765417 11.211123 
L 39.955235 10.964813 
L 39.747886 10.70506 
L 40.346671 11.022731 
L 41.685848 11.439482 
L 44.590769 13.16872 
L 45.108637 13.674097 
L 45.584025 13.807659 
L 46.382069 14.303147 
L 47.916458 14.902616 
L 52.658195 15.375401 
L 53.833514 15.295274 
L 57.451516 14.216887 
L 58.063451 13.793006 
L 59.211461 13.71129 
L 60.529397 13.975618 
L 60.658864 14.079899 
L 63.118741 15.316716 
L 63.684149 15.447067 
L 66.336204 15.437474 
L 67.392171 15.73321 
L 68.335865 16.124434 
L 70.748204 16.54176 
L 71.70707 17.294313 
L 72.386773 17.709199 
L 74.280231 19.258024 
L 76.494323 19.686008 
L 76.684478 19.846256 
L 77.478476 20.208163 
L 79.769439 20.303329 
L 83.135586 20.977624 
L 83.309558 21.056976 
L 83.772808 21.651707 
L 84.391823 22.067445 
L 84.612322 22.855049 
L 84.883394 23.366001 
L 85.478134 24.274857 
L 85.361816 26.983606 
L 85.478134 27.486497 
L 87.267411 31.707401 
L 88.614679 33.549902 
L 89.418792 34.38621 
L 90.338212 35.085537 
L 93.85709 36.671676 
L 97.760324 37.354396 
L 102.351353 37.400879 
L 105.009477 37.972582 
L 107.724243 38.882864 
L 110.934625 39.682805 
L 111.533411 40.137577 
L 113.362135 40.667281 
L 114.329094 41.131586 
L 115.376969 41.477472 
L 116.441028 41.782568 
L 117.010481 42.492032 
L 117.250198 42.610119 
L 118.369887 42.854967 
L 120.749858 43.827293 
L 121.08971 44.145017 
L 122.190181 45.420101 
L 125.224569 47.646491 
L 126.278513 48.75175 
L 127.099821 49.189812 
L 127.861452 49.411499 
L 130.191862 50.80898 
L 131.295368 50.973548 
L 132.403931 50.99441 
L 133.569136 50.862289 
L 134.797051 50.508866 
L 135.796376 50.018855 
L 137.43798 48.99883 
L 138.250185 48.765057 
L 139.896846 47.492136 
L 141.953149 45.050726 
L 142.796709 43.694113 
L 143.471355 43.121179 
L 144.259284 41.48035 
L 144.840875 39.917359 
L 144.911677 39.314958 
L 144.840875 37.500163 
L 144.610262 37.130609 
L 144.301765 36.203723 
L 144.039797 35.81102 
L 143.294349 34.963515 
L 142.456858 32.675226 
L 142.109926 30.713439 
L 142.032043 30.453075 
L 142.019906 29.233588 
L 142.48619 26.739919 
L 143.907295 24.032812 
L 146.463261 21.460615 
L 147.314913 20.637599 
L 148.031028 20.255745 
L 148.19792 20.086949 
L 150.011472 18.718153 
L 152.918416 17.534523 
L 154.627787 16.429368 
L 156.080248 15.739984 
L 156.64869 15.618068 
L 159.571817 15.707246 
L 160.602497 15.447067 
L 161.097102 15.1813 
L 163.192853 13.460541 
L 164.349966 13.271807 
L 164.689818 13.54224 
L 165.838839 13.878673 
L 166.352662 13.92489 
L 169.135196 13.603659 
L 169.326362 13.358001 
L 169.881655 13.358001 
L 170.002019 13.513504 
L 170.051581 13.74454 
L 170.446051 14.134016 
L 170.94976 14.234928 
L 172.096758 14.216887 
L 172.588329 14.380391 
L 174.2623 15.480927 
L 175.070458 15.568966 
L 177.974368 16.402824 
L 178.869512 16.885212 
L 180.300732 17.151904 
L 180.818601 17.402261 
L 181.623725 17.578614 
L 181.77949 17.724463 
L 181.737009 18.063712 
L 181.478074 18.446607 
L 181.712734 19.511627 
L 182.155754 19.827569 
L 182.056631 20.09941 
L 181.900866 20.977624 
L 181.65508 20.882408 
L 181.670252 20.631932 
L 181.478074 20.407 
L 181.306126 21.833753 
L 181.492235 21.980089 
L 182.729253 22.424871 
L 183.173286 22.99696 
L 183.331074 23.415971 
L 183.949077 23.810693 
L 184.184748 24.223717 
L 184.021903 23.366001 
L 184.261619 23.454586 
L 184.914013 23.507967 
L 185.341861 23.833982 
L 186.905583 23.963502 
L 188.628103 23.93737 
L 190.749141 24.414082 
L 192.717447 25.185488 
L 192.369504 25.567097 
L 193.8604 26.417729 
L 196.225199 26.392686 
L 199.520544 26.618092 
L 200.918386 26.097894 
L 201.064036 26.044976 
L 201.664845 26.113258 
L 201.852977 26.034734 
L 202.57415 26.38984 
L 203.489524 26.647694 
L 204.934904 26.947164 
L 205.385005 27.211393 
L 205.577183 27.669363 
L 205.438612 28.532763 
L 205.529644 28.781915 
L 205.954458 29.241573 
L 206.679677 30.409115 
L 207.037735 31.312583 
L 206.261331 31.915827 
L 205.913216 32.395708 
L 205.457198 33.589988 
L 203.437874 35.194931 
L 203.285011 35.641775 
L 203.281158 36.157212 
L 203.789842 40.295064 
L 204.225307 41.172518 
L 204.387162 41.894042 
L 205.098806 43.602491 
L 204.834188 44.578017 
L 203.771859 48.154166 
L 202.669708 49.62614 
L 202.214975 50.249047 
L 202.006876 50.737561 
L 201.292662 52.162123 
L 201.288809 52.71245 
L 201.400565 53.019752 
L 201.75125 53.650775 
L 202.877806 56.649688 
L 202.862392 56.933441 
L 202.654293 57.679293 
L 202.73779 58.274992 
L 203.37493 59.353486 
L 203.553484 60.291661 
L 203.469988 61.885036 
L 203.593305 62.381185 
L 204.84318 65.677461 
L 204.929245 66.505825 
L 204.818773 203.945545 
L 204.764821 203.952738 
L 192.501151 203.945545 
L 192.501151 211.68 
L 155.657472 189.072378 
L 111.135992 162.042697 
L 93.117504 151.197661 
L 92.863161 151.235528 
L 80.614905 157.998772 
L 71.132301 163.751972 
L 70.951179 163.646722 
L 63.467989 156.124312 
L 62.010016 155.206099 
L 43.20024 150.100595 
L 38.207165 138.81472 
L 37.88731 138.354258 
L 36.965675 137.921545 
L 27.418166 134.475897 
L 27.148409 134.509962 
L 24.324952 135.662719 
L 23.831682 135.717335 
L 23.599177 135.617014 
L 21.740422 133.891854 
L 21.584991 133.370275 
L 21.366616 131.979578 
L 21.132826 131.574471 
L 19.283064 130.382845 
L 19.127632 129.983485 
L 18.995323 123.840436 
L 18.82833 122.896084 
L 18.350475 121.943756 
L 11.286693 111.28997 
L 10.996383 110.468309 
L 11.704174 108.94524 
L 12.237265 108.301731 
L 12.298924 107.755355 
L 16.688257 105.51746 
L 16.922047 105.220308 
L 17.412748 103.016122 
L 17.270162 102.606812 
L 17.30613 102.094172 
L 17.569464 100.316335 
L 17.372927 100.138578 
L 16.68055 99.676799 
L 16.561086 99.38901 
L 16.319589 97.853699 
L 15.272675 93.699542 
L 15.700433 92.022785 
L 15.877702 91.712881 
L 16.512273 90.814112 
L 16.168012 89.878085 
L 17.031234 89.155004 
L 17.912441 86.118249 
L 17.932994 85.545161 
L 16.117914 80.559432 
L 15.957344 79.715239 
L 16.880941 72.207327 
L 16.843689 69.468673 
L 16.568794 67.266551 
L 14.599567 60.373141 
L 13.132602 57.595005 
L 10.893002 54.444002 
L 9.862119 53.097878 
L 15.541147 50.046039 
L 15.907246 49.949694 
L 16.812859 49.890125 
L 17.130145 49.707021 
L 18.675468 47.725282 
L 19.987001 45.635608 
L 21.118696 44.36557 
L 22.082114 42.22825 
L 22.087253 41.754387 
L 21.719869 40.262198 
L 21.772536 39.456855 
L 21.379461 38.649068 
L 21.000517 37.161713 
L 20.049944 34.507487 
L 20.182254 33.589988 
L 20.377507 33.264434 
L 21.171363 32.4066 
L 22.010179 30.975442 
L 22.649889 30.479395 
L 24.046203 30.496797 
L 24.929978 30.079937 
L 25.261394 29.690744 
L 25.470777 29.206044 
L 25.994877 28.734556 
L 26.156731 28.269027 
L 26.26078 27.147512 
L 26.540814 26.860413 
L 26.998116 27.012994 
L 27.225483 27.099778 
L 27.468264 27.027458 
L 28.742545 26.045744 
L 29.243523 24.935518 
L 29.582646 24.587549 
L 36.677257 21.353817 
L 37.948969 20.43755 
L 38.169913 20.003039 
L 38.126238 19.41733 
L 37.837213 18.917406 
L 37.004819 18.142213 
L 36.750477 17.604741 
L 36.741485 16.840036 
L 36.922608 15.376868 
L 36.832689 13.940455 
L 37.054917 13.002002 
L 37.092169 12.014938 
L 37.447992 10.699477 
L 37.436373 10.08 
L 37.436373 10.08 
" clip-path="url(#p26bf964166)" style="fill: none; stroke: #000000; stroke-width: 0.5; stroke-linecap: square"/>
   </g>
  </g>
 </g>
 <defs>
  <clipPath id="p26bf964166">
   <rect x="0" y="-0" width="216.96661" height="221.76"/>
  </clipPath>
 </defs>
</svg>
