<?xml version="1.0" encoding="utf-8" standalone="no"?>
<!DOCTYPE svg PUBLIC "-//W3C//DTD SVG 1.1//EN"
  "http://www.w3.org/Graphics/SVG/1.1/DTD/svg11.dtd">
<svg xmlns:xlink="http://www.w3.org/1999/xlink" width="223.2pt" height="201.915607pt" viewBox="0 0 223.2 201.915607" xmlns="http://www.w3.org/2000/svg" version="1.1">
 <metadata>
  <rdf:RDF xmlns:dc="http://purl.org/dc/elements/1.1/" xmlns:cc="http://creativecommons.org/ns#" xmlns:rdf="http://www.w3.org/1999/02/22-rdf-syntax-ns#">
   <cc:Work>
    <dc:type rdf:resource="http://purl.org/dc/dcmitype/StillImage"/>
    <dc:date>2026-04-26T19:22:28.638178</dc:date>
    <dc:format>image/svg+xml</dc:format>
    <dc:creator>
     <cc:Agent>
      <dc:title>Matplotlib v3.10.9, https://matplotlib.org/</dc:title>
     </cc:Agent>
    </dc:creator>
   </cc:Work>
  </rdf:RDF>
 </metadata>
 <defs>
  <style type="text/css">*{stroke-linejoin: round; stroke-linecap: butt}</style>
 </defs>
 <g id="figure_1">
  <g id="patch_1">
   <path d="M 0 201.915607 
L 223.2 201.915607 
L 223.2 0 
L 0 0 
z
" style="fill: #ffffff"/>
  </g>
  <g id="axes_1">
   <g id="patch_2">
    <path d="M 27.569199 9.177982 
L 125.935984 9.914532 
L 129.685392 15.074054 
L 126.818207 17.041352 
L 126.377095 26.152389 
L 132.332021 31.826197 
L 133.214244 45.178014 
L 128.362057 55.592293 
L 118.87828 62.052054 
L 116.452207 72.258521 
L 112.482243 71.261693 
L 111.820576 87.988656 
L 106.968389 88.488959 
L 109.835574 97.504055 
L 106.968389 100.764007 
L 183.059324 100.764007 
L 179.08936 115.840817 
L 185.705952 125.920056 
L 187.249803 133.494057 
L 192.101989 138.297376 
L 180.192099 144.625077 
L 179.309916 149.186355 
L 189.014249 152.2297 
L 193.204768 144.878367 
L 201.585807 152.2297 
L 200.924139 158.068179 
L 196.071953 160.608934 
L 187.029287 158.322194 
L 188.132026 162.642469 
L 185.044285 169.257549 
L 192.763656 175.116906 
L 205.114659 176.901629 
L 209.525693 183.791626 
L 213.054545 184.81321 
L 206.658509 192.737625 
L 199.600805 191.202897 
L 193.64588 183.025578 
L 178.868804 178.687011 
L 178.868804 170.785367 
L 171.590544 173.332887 
L 172.031656 179.962639 
L 168.72332 186.09049 
L 163.430062 187.112554 
L 159.460098 180.217814 
L 150.196836 179.962639 
L 146.88854 187.112554 
L 140.713059 189.157276 
L 134.096467 184.81321 
L 128.803169 184.302391 
L 123.730467 172.823275 
L 114.687761 167.73017 
L 111.158909 168.493799 
L 107.630057 158.830263 
L 97.043501 160.100675 
L 96.822945 154.259644 
L 86.456945 159.846565 
L 87.780239 164.168225 
L 79.840352 168.239242 
L 67.48935 166.203278 
L 53.153386 159.846565 
L 43.007901 157.052304 
L 21.173122 159.338387 
L 18.305937 161.117248 
L 14.777085 156.544425 
L 24.260903 140.068291 
L 21.173122 131.220566 
L 24.040347 126.424607 
L 22.717012 120.121761 
L 26.686976 115.337437 
L 30.877495 103.524285 
L 30.215828 93.745538 
L 19.18816 75.250343 
L 18.967605 65.285607 
L 10.145455 55.344033 
L 10.145455 9.177982 
z
" clip-path="url(#p9d324ba541)" style="stroke: #000000; stroke-linejoin: miter"/>
   </g>
   <g id="line2d_1">
    <path d="M 27.569199 9.177982 
L 125.935984 9.914532 
L 129.685392 15.074054 
L 126.818207 17.041352 
L 126.377095 26.152389 
L 132.332021 31.826197 
L 133.214244 45.178014 
L 128.362057 55.592293 
L 118.87828 62.052054 
L 116.452207 72.258521 
L 112.482243 71.261693 
L 111.820576 87.988656 
L 106.968389 88.488959 
L 109.835574 97.504055 
L 106.968389 100.764007 
L 183.059324 100.764007 
L 179.08936 115.840817 
L 185.705952 125.920056 
L 187.249803 133.494057 
L 192.101989 138.297376 
L 180.192099 144.625077 
L 179.309916 149.186355 
L 189.014249 152.2297 
L 193.204768 144.878367 
L 201.585807 152.2297 
L 200.924139 158.068179 
L 196.071953 160.608934 
L 187.029287 158.322194 
L 188.132026 162.642469 
L 185.044285 169.257549 
L 192.763656 175.116906 
L 205.114659 176.901629 
L 209.525693 183.791626 
L 213.054545 184.81321 
L 206.658509 192.737625 
L 199.600805 191.202897 
L 193.64588 183.025578 
L 178.868804 178.687011 
L 178.868804 170.785367 
L 171.590544 173.332887 
L 172.031656 179.962639 
L 168.72332 186.09049 
L 163.430062 187.112554 
L 159.460098 180.217814 
L 150.196836 179.962639 
L 146.88854 187.112554 
L 140.713059 189.157276 
L 134.096467 184.81321 
L 128.803169 184.302391 
L 123.730467 172.823275 
L 114.687761 167.73017 
L 111.158909 168.493799 
L 107.630057 158.830263 
L 97.043501 160.100675 
L 96.822945 154.259644 
L 86.456945 159.846565 
L 87.780239 164.168225 
L 79.840352 168.239242 
L 67.48935 166.203278 
L 53.153386 159.846565 
L 43.007901 157.052304 
L 21.173122 159.338387 
L 18.305937 161.117248 
L 14.777085 156.544425 
L 24.260903 140.068291 
L 21.173122 131.220566 
L 24.040347 126.424607 
L 22.717012 120.121761 
L 26.686976 115.337437 
L 30.877495 103.524285 
L 30.215828 93.745538 
L 19.18816 75.250343 
L 18.967605 65.285607 
L 10.145455 55.344033 
L 10.145455 9.177982 
L 27.569199 9.177982 
" clip-path="url(#p9d324ba541)" style="fill: none; stroke: #000000; stroke-width: 0.5; stroke-linecap: square"/>
   </g>
  </g>
 </g>
 <defs>
  <clipPath id="p9d324ba541">
   <rect x="0" y="-0" width="223.2" height="201.915607"/>
  </clipPath>
 </defs>
</svg>
