<?xml version="1.0" encoding="utf-8" standalone="no"?>
<!DOCTYPE svg PUBLIC "-//W3C//DTD SVG 1.1//EN"
  "http://www.w3.org/Graphics/SVG/1.1/DTD/svg11.dtd">
<svg xmlns:xlink="http://www.w3.org/1999/xlink" width="94.54456pt" height="221.76pt" viewBox="0 0 94.54456 221.76" xmlns="http://www.w3.org/2000/svg" version="1.1">
 <metadata>
  <rdf:RDF xmlns:dc="http://purl.org/dc/elements/1.1/" xmlns:cc="http://creativecommons.org/ns#" xmlns:rdf="http://www.w3.org/1999/02/22-rdf-syntax-ns#">
   <cc:Work>
    <dc:type rdf:resource="http://purl.org/dc/dcmitype/StillImage"/>
    <dc:date>2026-04-26T19:22:16.066059</dc:date>
    <dc:format>image/svg+xml</dc:format>
    <dc:creator>
     <cc:Agent>
      <dc:title>Matplotlib v3.10.9, https://matplotlib.org/</dc:title>
     </cc:Agent>
    </dc:creator>
   </cc:Work>
  </rdf:RDF>
 </metadata>
 <defs>
  <style type="text/css">*{stroke-linejoin: round; stroke-linecap: butt}</style>
 </defs>
 <g id="figure_1">
  <g id="patch_1">
   <path d="M 0 221.76 
L 94.54456 221.76 
L 94.54456 0 
L 0 0 
z
" style="fill: #ffffff"/>
  </g>
  <g id="axes_1">
   <g id="patch_2">
    <path d="M 16.477732 136.512528 
L 16.437384 136.041389 
L 16.554585 135.50811 
L 17.4163 133.484837 
L 17.669916 133.022641 
L 18.374082 132.216267 
L 18.652674 131.807598 
L 18.874588 131.341487 
L 19.064799 130.792792 
L 19.125321 130.343221 
L 19.129163 129.712962 
L 19.040782 129.223708 
L 18.822712 129.187818 
L 18.71896 128.778628 
L 18.662281 128.675721 
L 18.577743 128.618283 
L 18.408666 128.607513 
L 18.331813 128.575203 
L 18.172343 128.410058 
L 18.015754 128.182664 
L 17.895672 127.925325 
L 17.848599 127.672747 
L 17.894711 127.474017 
L 18.120467 126.968739 
L 18.21173 126.813063 
L 18.306835 126.604681 
L 18.345262 126.35915 
L 18.331813 125.854837 
L 18.304914 125.705079 
L 18.262645 125.572087 
L 18.234786 125.431898 
L 18.251117 125.260545 
L 18.306835 125.193439 
L 18.512417 125.040046 
L 18.581585 124.950162 
L 18.641146 124.6733 
L 18.669966 124.446754 
L 18.764111 124.292115 
L 19.024451 124.236969 
L 19.181039 123.980409 
L 19.133967 123.402449 
L 18.896683 122.424882 
L 18.719921 121.955751 
L 18.494165 121.518936 
L 17.934098 120.875572 
L 17.848599 120.703899 
L 17.756375 120.220032 
L 17.53158 119.738472 
L 16.443148 118.051677 
L 16.237566 117.572102 
L 16.156871 117.067187 
L 16.237566 116.20499 
L 16.397036 115.74431 
L 16.397036 114.837137 
L 16.38743 114.801035 
L 16.337475 114.692729 
L 16.324026 114.634964 
L 16.345161 114.533871 
L 16.44507 114.414721 
L 16.477732 114.334081 
L 16.550743 113.966956 
L 16.558428 113.822499 
L 16.508473 113.360181 
L 16.226038 112.328091 
L 15.665011 110.501347 
L 14.821548 109.095464 
L 14.05686 107.770875 
L 13.963676 107.331609 
L 13.964637 104.380352 
L 13.501597 101.493542 
L 13.482383 100.51606 
L 13.832065 98.671431 
L 13.891626 98.010254 
L 13.828222 97.788615 
L 13.545787 97.468842 
L 13.381514 96.7892 
L 12.635078 95.511841 
L 12.568793 95.153007 
L 12.573596 94.689849 
L 12.675426 93.773004 
L 12.799352 93.337517 
L 13.401688 92.143524 
L 13.613034 91.523271 
L 13.687005 91.480783 
L 13.826301 91.566972 
L 13.901233 91.45529 
L 14.009788 91.023085 
L 14.908969 89.322759 
L 15.102062 89.082202 
L 15.188522 88.864711 
L 15.225027 88.65328 
L 15.261532 87.945963 
L 15.592 87.956902 
L 15.8802 87.385575 
L 16.280796 86.101497 
L 16.362453 85.945813 
L 16.684275 85.539533 
L 16.747679 85.414231 
L 16.844706 85.074795 
L 16.929244 84.923922 
L 17.121377 84.656225 
L 17.263555 84.376332 
L 17.490272 83.753171 
L 17.799605 83.198055 
L 18.21173 82.645269 
L 18.554687 82.054622 
L 18.662281 81.383454 
L 18.596956 81.093501 
L 18.383689 80.455017 
L 18.331813 80.14791 
L 18.391374 79.787141 
L 18.528749 79.618929 
L 18.650753 79.692066 
L 18.662281 80.057722 
L 18.84865 79.667687 
L 18.940873 79.254438 
L 18.935109 78.836255 
L 18.822712 78.420451 
L 18.378885 77.600868 
L 18.200202 77.148293 
L 18.171382 76.662706 
L 18.223258 76.473574 
L 18.315481 76.260024 
L 18.425958 76.056222 
L 18.537395 75.902446 
L 18.61809 75.741339 
L 18.64691 75.542384 
L 18.681494 74.697597 
L 18.719921 74.492468 
L 18.815987 74.356929 
L 19.011962 74.289768 
L 19.404874 74.287326 
L 19.809313 74.204288 
L 22.383891 74.510784 
L 22.702832 74.419205 
L 22.848852 74.431415 
L 23.13513 74.723237 
L 23.341673 74.866085 
L 23.55494 74.936896 
L 23.721135 74.869747 
L 23.832572 74.693934 
L 23.905582 74.548636 
L 23.993003 74.424089 
L 24.157276 74.305643 
L 24.320589 74.250692 
L 24.660664 74.184749 
L 24.816291 74.100488 
L 24.720225 73.997905 
L 25.40806 73.59609 
L 25.750056 73.327369 
L 25.981576 72.964558 
L 26.384094 72.137385 
L 26.649237 71.729214 
L 26.912459 71.41755 
L 27.23236 71.186532 
L 27.958621 70.801463 
L 28.41974 70.411455 
L 28.503318 70.504377 
L 28.530216 70.721998 
L 28.547508 71.198755 
L 28.754051 72.033514 
L 28.765579 72.106835 
L 28.772303 72.24614 
L 28.765579 72.352447 
L 28.699293 72.656685 
L 28.683922 72.912027 
L 28.703136 73.107489 
L 28.791517 73.235754 
L 28.977885 73.280951 
L 29.15849 73.207658 
L 29.275691 73.043965 
L 29.3756 72.850942 
L 29.502408 72.707999 
L 29.903965 72.521065 
L 30.07112 72.378107 
L 30.149895 72.143495 
L 30.120114 72.012739 
L 29.888594 71.905198 
L 29.748337 71.725547 
L 29.652271 71.472552 
L 29.646507 71.281875 
L 29.754101 71.160862 
L 31.682153 70.904153 
L 31.763809 70.87359 
L 31.850269 70.823468 
L 32.004936 70.69877 
L 32.092356 71.118079 
L 32.182659 71.274541 
L 32.226849 71.31121 
L 32.244141 71.367436 
L 32.247023 71.580108 
L 32.119255 72.015184 
L 32.12694 72.166712 
L 32.333483 72.040846 
L 32.414179 72.332896 
L 32.500638 72.298683 
L 32.615918 72.040846 
L 32.494874 71.267207 
L 32.530419 71.100965 
L 32.718709 70.867478 
L 32.810933 70.69877 
L 32.800365 70.66087 
L 32.810933 70.280627 
L 32.834949 70.14857 
L 32.875297 70.037295 
L 32.904117 69.919902 
L 32.898353 69.76704 
L 32.806129 69.576258 
L 32.679322 69.445394 
L 32.611115 69.312078 
L 32.696614 69.105367 
L 33.077036 68.606267 
L 33.466105 68.295512 
L 33.58907 68.285724 
L 33.785045 68.381156 
L 33.961807 68.437435 
L 34.142412 68.437435 
L 34.316292 68.461904 
L 34.742827 68.798332 
L 35.00797 68.750623 
L 35.727507 68.233113 
L 35.875449 68.167042 
L 36.034919 68.129111 
L 36.217445 68.115652 
L 36.472982 68.160924 
L 36.561363 68.293065 
L 36.540228 68.790992 
L 36.549835 69.027082 
L 36.593065 69.149401 
L 36.690092 69.205666 
L 36.86109 69.253369 
L 36.960999 69.264377 
L 37.166581 69.244807 
L 37.26649 69.253369 
L 37.587351 69.467409 
L 37.86018 69.479639 
L 37.86018 69.386687 
L 37.7449 69.201997 
L 37.668047 68.945125 
L 37.718002 68.783652 
L 37.825596 68.652755 
L 37.915898 68.490043 
L 37.91782 68.226995 
L 37.633463 68.408073 
L 37.356792 68.672329 
L 37.197322 68.765302 
L 37.26649 68.432542 
L 37.437488 68.089957 
L 37.681496 67.777927 
L 37.959128 67.509924 
L 38.230996 67.301869 
L 38.499982 67.168462 
L 38.782417 67.101145 
L 39.368421 67.098697 
L 39.665267 67.146431 
L 39.802641 67.206404 
L 39.860281 67.307989 
L 39.861242 67.484224 
L 39.877573 67.642093 
L 39.924646 67.786493 
L 40.019751 67.91865 
L 39.883337 68.190289 
L 39.827619 68.430095 
L 39.745962 68.644191 
L 39.527892 68.842371 
L 39.785349 69.10292 
L 39.973639 69.337763 
L 40.123503 69.612948 
L 40.53851 70.663315 
L 40.728721 70.946939 
L 40.9881 71.212201 
L 40.999628 71.065515 
L 40.990982 70.87359 
L 41.001549 70.695102 
L 41.068796 70.596073 
L 41.163902 70.632751 
L 41.296473 70.918822 
L 41.389657 71.006839 
L 41.624059 70.940827 
L 41.723008 70.680431 
L 41.714362 70.353989 
L 41.631745 70.083762 
L 41.943 70.047078 
L 42.169716 70.317308 
L 42.374338 70.675541 
L 42.613543 70.904153 
L 42.736508 70.786793 
L 42.607779 70.389447 
L 42.325344 69.76704 
L 42.091902 69.63863 
L 41.602925 69.073564 
L 41.308962 68.945125 
L 40.928539 68.97326 
L 40.824787 68.945125 
L 40.609599 68.784875 
L 40.630733 68.684562 
L 40.77099 68.586693 
L 40.913168 68.432542 
L 41.226345 67.828099 
L 41.27822 67.5344 
L 41.149492 67.301869 
L 41.019802 67.284735 
L 40.858411 67.31166 
L 40.722957 67.31166 
L 40.665317 67.199061 
L 40.703744 66.955489 
L 40.875702 66.544189 
L 41.007313 65.994481 
L 41.230187 65.705509 
L 41.756631 65.188723 
L 42.501145 64.152448 
L 42.774934 63.902515 
L 42.795108 63.979702 
L 42.821046 64.042186 
L 42.842181 64.112019 
L 42.847945 64.211253 
L 42.979556 64.11937 
L 43.299456 63.74446 
L 43.800923 63.292304 
L 43.94118 63.128091 
L 44.218811 62.895236 
L 44.532948 62.856017 
L 44.844203 62.862145 
L 45.112228 62.76287 
L 44.956601 62.632949 
L 44.590588 62.507926 
L 44.547358 62.362059 
L 44.674166 62.199024 
L 45.354316 61.993073 
L 46.570516 60.901805 
L 47.461051 59.893588 
L 47.959635 59.713253 
L 48.288182 59.492422 
L 48.471669 59.442119 
L 48.547561 59.492422 
L 48.583106 59.608973 
L 48.598476 59.74883 
L 48.596555 60.146285 
L 48.615768 60.228468 
L 48.759868 60.602562 
L 48.853052 60.75464 
L 48.97986 60.88341 
L 49.164307 61.014627 
L 49.567786 61.220641 
L 49.766643 61.384951 
L 49.768564 61.571323 
L 49.651363 61.767493 
L 49.47268 62.149989 
L 49.325698 62.304446 
L 49.142212 62.453993 
L 49.021168 62.612112 
L 48.495685 63.919668 
L 48.354468 64.426861 
L 48.391934 64.782093 
L 48.518741 64.816389 
L 48.606161 64.605707 
L 48.713756 64.110794 
L 48.852091 63.956424 
L 49.06728 63.869435 
L 49.48709 63.792245 
L 49.887687 63.606001 
L 50.260424 63.360928 
L 50.627397 63.229806 
L 51.009741 63.390338 
L 51.438197 63.189365 
L 51.624566 63.031274 
L 51.662993 62.76287 
L 51.616881 62.677073 
L 51.540028 62.655011 
L 51.443961 62.645206 
L 51.34021 62.608435 
L 51.23934 62.53244 
L 51.19611 62.465024 
L 50.998214 62.010236 
L 50.834901 61.053869 
L 50.838743 60.958217 
L 50.800317 60.912842 
L 50.651414 60.901805 
L 50.546702 60.927558 
L 50.204705 61.117636 
L 50.172043 60.926332 
L 50.187414 60.75464 
L 50.299811 60.38915 
L 50.13938 60.416134 
L 50.010651 60.411227 
L 49.92227 60.340088 
L 49.84926 60.033432 
L 49.648481 59.889908 
L 49.567786 59.761098 
L 49.54473 59.420035 
L 49.648481 59.094887 
L 49.970304 58.535313 
L 50.363215 58.102067 
L 50.871406 57.687179 
L 51.313311 57.203485 
L 51.568848 56.310797 
L 51.734082 56.041839 
L 52.328732 55.344164 
L 52.576584 55.164809 
L 52.842687 55.051785 
L 53.12128 55.0137 
L 53.274025 54.847842 
L 53.30957 54.49644 
L 53.232717 54.184325 
L 53.040584 54.137629 
L 52.910895 54.272802 
L 52.841727 54.5161 
L 52.710116 54.60211 
L 52.52759 54.615626 
L 52.416153 54.530845 
L 52.233627 54.189241 
L 52.306637 54.189241 
L 52.662083 53.483804 
L 54.13574 51.540017 
L 54.300975 51.388746 
L 54.377828 51.447779 
L 54.423939 51.615035 
L 54.498871 51.798269 
L 54.740958 52.145035 
L 54.756329 52.303649 
L 54.704453 53.229368 
L 54.748644 53.457993 
L 54.798598 53.51699 
L 54.876412 53.550176 
L 54.951344 53.619004 
L 54.98881 53.77632 
L 54.958068 53.818106 
L 54.827418 54.189241 
L 54.14919 55.174637 
L 53.970506 55.529652 
L 53.850423 55.980429 
L 53.72938 57.824662 
L 53.768767 58.006328 
L 53.934001 58.122933 
L 54.074258 58.086111 
L 54.461405 57.82098 
L 54.579567 57.710502 
L 54.792834 57.299247 
L 54.904271 56.878117 
L 55.057977 56.480267 
L 55.392288 56.14746 
L 55.52486 56.273955 
L 55.565208 56.135178 
L 55.55368 55.744608 
L 55.619966 55.492801 
L 56.464389 53.486263 
L 56.527792 53.046212 
L 56.579668 52.859357 
L 56.963934 52.370044 
L 56.997557 52.244631 
L 56.996596 51.971656 
L 57.040787 51.856066 
L 57.131089 51.768756 
L 57.332828 51.64701 
L 57.400075 51.591669 
L 57.666179 51.207949 
L 57.772812 50.985323 
L 57.817003 50.776212 
L 57.89962 50.544946 
L 58.074461 50.421926 
L 58.241616 50.270605 
L 58.294453 49.949487 
L 58.795919 50.824186 
L 59.026478 51.075113 
L 59.181145 51.152601 
L 59.551 51.280515 
L 59.678769 51.396125 
L 59.740251 51.576911 
L 59.726802 51.927388 
L 59.75274 52.116754 
L 59.924699 51.875741 
L 59.937187 51.540017 
L 59.84016 51.233778 
L 59.678769 51.075113 
L 60.006355 50.74915 
L 60.318571 50.793434 
L 60.553933 51.110782 
L 60.645196 51.597818 
L 60.627904 52.624545 
L 60.692269 52.910989 
L 60.888244 52.529878 
L 60.95453 52.086013 
L 60.950687 51.464997 
L 60.843093 50.91275 
L 60.605809 50.672883 
L 60.447299 50.606455 
L 60.299357 50.447761 
L 60.038057 50.100822 
L 59.816144 49.951948 
L 59.638421 49.986399 
L 59.268565 50.259533 
L 59.11582 50.33704 
L 58.963074 50.375177 
L 58.800722 50.328428 
L 58.623 50.146345 
L 58.527894 49.934722 
L 58.454883 49.715704 
L 58.374188 49.635722 
L 58.040837 50.210321 
L 57.890974 50.38871 
L 57.772812 50.466214 
L 57.700763 50.348112 
L 57.455793 49.801836 
L 57.400075 49.63203 
L 57.424092 49.570504 
L 57.544174 49.420376 
L 57.568191 49.321928 
L 57.545135 49.176712 
L 57.499984 49.090564 
L 57.447147 49.019182 
L 57.246369 48.494852 
L 57.251172 48.403762 
L 57.300166 48.354524 
L 57.321301 48.310209 
L 57.187768 48.180954 
L 57.165673 48.135405 
L 57.184886 47.48289 
L 57.259818 46.973103 
L 57.4068 46.496496 
L 57.648887 46.110976 
L 57.930361 45.897874 
L 58.017782 45.773456 
L 58.051405 45.531999 
L 58.066775 45.081069 
L 58.115769 44.918425 
L 58.220482 44.758237 
L 58.499074 44.648566 
L 59.048573 45.145139 
L 59.432839 45.118033 
L 59.590388 45.066284 
L 59.82479 45.106944 
L 59.919895 45.066284 
L 60.022686 44.89871 
L 60.097618 44.652263 
L 60.14469 44.391011 
L 60.161982 44.182734 
L 60.118753 43.836401 
L 60.001552 43.41977 
L 59.821908 43.058568 
L 59.591348 42.8872 
L 59.746015 42.680068 
L 59.99963 42.76884 
L 60.484765 43.206505 
L 60.579871 43.269377 
L 60.681701 43.318687 
L 60.777768 43.385254 
L 60.850778 43.506059 
L 60.866149 43.703282 
L 60.790256 43.848727 
L 60.692269 43.990468 
L 60.645196 44.182734 
L 60.60677 44.568467 
L 60.435772 45.350895 
L 60.397345 45.742659 
L 60.395424 45.879396 
L 60.412716 46.115903 
L 60.485726 46.304357 
L 60.645196 46.308052 
L 60.723971 46.186112 
L 60.729735 46.014897 
L 60.714364 45.837513 
L 60.725892 45.697078 
L 60.818116 45.603452 
L 60.9699 45.483952 
L 61.089983 45.350895 
L 61.089983 45.221529 
L 60.996799 45.085998 
L 60.905536 44.913496 
L 60.836368 44.726199 
L 60.813312 44.551215 
L 60.898811 44.218475 
L 61.217752 43.673699 
L 61.290762 43.350738 
L 61.290762 42.999392 
L 61.258099 42.650477 
L 61.153387 42.381678 
L 60.685544 42.181915 
L 60.424244 41.952544 
L 59.993866 41.438255 
L 60.891126 40.852344 
L 60.891126 40.661131 
L 60.323374 40.19601 
L 59.847845 39.95664 
L 59.715274 39.82461 
L 59.40594 39.09774 
L 59.223414 38.105308 
L 59.317559 37.258316 
L 59.833436 36.966886 
L 59.707589 36.732243 
L 59.562528 36.645792 
L 59.452052 36.507466 
L 59.428996 36.128278 
L 59.465501 35.809581 
L 59.559646 35.357429 
L 59.719117 35.044843 
L 59.957361 35.143687 
L 60.134123 35.160985 
L 60.23115 34.785365 
L 60.283026 34.105692 
L 60.383896 33.989517 
L 60.510703 33.893114 
L 60.634629 33.893114 
L 60.725892 34.053784 
L 60.675937 34.148947 
L 60.556815 34.275004 
L 60.483805 34.445544 
L 60.565461 34.676625 
L 60.631747 34.630904 
L 60.747026 34.601247 
L 60.813312 34.572826 
L 60.749908 34.756944 
L 60.775846 34.926227 
L 60.869991 35.007776 
L 61.009288 34.931169 
L 61.055399 34.805135 
L 61.058281 34.671683 
L 61.106315 34.549347 
L 61.290762 34.460373 
L 61.073652 34.163778 
L 61.058281 34.051313 
L 61.496344 34.053784 
L 61.676949 34.226806 
L 61.758605 34.61484 
L 61.801835 35.032487 
L 61.862357 35.299362 
L 62.189943 35.111563 
L 62.370548 35.238822 
L 62.46085 35.550156 
L 62.513687 35.920757 
L 62.718308 36.608741 
L 62.749049 36.863151 
L 62.749049 36.966886 
L 62.758656 37.069383 
L 62.795161 37.150885 
L 62.979608 37.23609 
L 62.951749 37.352162 
L 62.829745 37.536141 
L 62.960395 37.841107 
L 63.268768 38.128764 
L 63.61941 38.343565 
L 63.880711 38.425039 
L 64.215022 38.317642 
L 64.554136 38.039876 
L 64.716488 37.66949 
L 64.520513 37.276839 
L 64.60313 37.040981 
L 64.608894 36.24068 
L 64.675179 35.994873 
L 64.891329 35.505682 
L 64.933598 35.299362 
L 64.67614 34.764358 
L 64.624264 34.493738 
L 64.852902 34.365218 
L 64.989316 34.451723 
L 65.335155 35.091794 
L 65.395677 34.810078 
L 65.498468 34.538225 
L 65.619512 34.310842 
L 65.736713 34.157598 
L 65.888497 34.088389 
L 66.110411 34.041425 
L 66.328481 34.029066 
L 66.470659 34.053784 
L 66.467777 33.978394 
L 66.474502 33.821428 
L 66.470659 33.744797 
L 66.743488 34.045133 
L 66.882784 34.140296 
L 66.995182 34.105692 
L 66.969244 33.972214 
L 66.762701 33.440728 
L 66.669517 33.017956 
L 66.462013 32.674265 
L 66.382278 32.501171 
L 66.346734 32.295921 
L 66.340009 32.085713 
L 66.382278 31.670209 
L 66.566726 31.723386 
L 66.67432 31.863127 
L 66.756937 32.035014 
L 66.874138 32.189582 
L 66.879902 32.436877 
L 67.096051 32.619865 
L 67.721443 32.931418 
L 67.830959 32.962325 
L 67.949121 32.940072 
L 68.090338 32.858478 
L 68.23732 32.813971 
L 68.386222 32.843642 
L 68.525519 32.895566 
L 68.653287 32.914111 
L 69.081743 32.762045 
L 69.51212 32.446768 
L 69.898307 32.026358 
L 70.19227 31.556432 
L 69.986688 31.254659 
L 70.155765 30.821745 
L 70.595748 30.150013 
L 70.557322 29.963193 
L 70.384402 29.609324 
L 70.346937 29.371743 
L 70.353661 28.871785 
L 70.38056 28.616831 
L 70.646664 27.418565 
L 70.803252 26.995122 
L 71.130838 26.440366 
L 71.222101 26.205065 
L 71.292229 25.959843 
L 71.321049 25.769103 
L 71.378689 25.596934 
L 71.517025 25.370254 
L 71.677455 25.17453 
L 71.805224 25.098963 
L 71.753348 24.713674 
L 71.940677 23.729836 
L 71.966615 23.322103 
L 71.898408 23.127517 
L 71.661124 22.770543 
L 71.563137 22.585846 
L 71.487244 22.376347 
L 71.441132 22.205269 
L 71.37965 21.522122 
L 71.335459 21.352247 
L 71.159658 21.023636 
L 71.085687 20.965351 
L 71.021322 20.987673 
L 70.962722 20.975272 
L 70.910846 20.816535 
L 70.914689 20.662752 
L 70.972329 20.573457 
L 71.038614 20.499042 
L 71.078962 20.391138 
L 71.070316 20.264627 
L 71.00307 20.078573 
L 70.998266 19.974379 
L 71.130838 19.600996 
L 71.159658 19.557577 
L 71.070316 19.375212 
L 70.934863 19.356603 
L 70.768668 19.438483 
L 70.595748 19.557577 
L 70.589984 19.109715 
L 70.485272 18.854125 
L 70.104849 18.412389 
L 69.921363 17.791892 
L 69.822414 17.584625 
L 69.788791 17.882491 
L 69.306538 17.580901 
L 69.448716 17.434443 
L 69.65622 17.01862 
L 69.788791 17.002483 
L 69.930969 17.086892 
L 70.057777 17.134061 
L 70.35174 17.153922 
L 70.755219 17.256947 
L 71.004991 17.531255 
L 71.361397 18.403703 
L 71.491087 18.493047 
L 71.675534 18.422316 
L 71.854218 18.26596 
L 71.966615 18.102152 
L 72.015609 17.873803 
L 72.047311 17.059583 
L 72.073249 16.970208 
L 72.207742 16.642481 
L 72.208702 16.56427 
L 72.186607 16.348249 
L 72.207742 16.225336 
L 72.312454 16.031647 
L 72.463278 15.88265 
L 72.630434 15.826774 
L 72.779337 15.914933 
L 72.85715 15.641759 
L 72.980115 15.512615 
L 73.124215 15.39837 
L 73.263511 15.174837 
L 73.437391 15.448042 
L 73.591097 15.239414 
L 73.741921 14.865596 
L 73.908116 14.645761 
L 74.10217 14.851935 
L 74.278932 14.769963 
L 74.413425 14.521555 
L 74.479711 14.238351 
L 74.465301 14.120344 
L 74.424953 14.009786 
L 74.390369 13.885561 
L 74.399015 13.716609 
L 74.46338 13.546408 
L 74.553682 13.450744 
L 74.647827 13.381169 
L 74.727562 13.289229 
L 74.843802 13.263137 
L 74.872622 13.181134 
L 74.801533 12.978605 
L 74.699703 12.829498 
L 74.620928 12.804646 
L 74.531587 12.814586 
L 74.399015 12.767368 
L 74.340415 12.702752 
L 74.301027 12.613282 
L 74.250112 12.521325 
L 74.156928 12.446764 
L 74.027238 12.419424 
L 73.592058 12.446764 
L 73.750567 12.167147 
L 74.225135 11.973269 
L 74.399015 11.715993 
L 74.577699 11.875083 
L 74.962925 12.561091 
L 75.04362 12.446764 
L 75.131041 12.561091 
L 75.143529 12.265326 
L 75.053227 11.934741 
L 74.878386 11.67622 
L 74.641102 11.611587 
L 74.687214 11.457459 
L 74.761185 11.353046 
L 74.837078 11.271006 
L 74.888953 11.196423 
L 75.009036 11.129297 
L 75.04362 11.089518 
L 75.02825 11.041036 
L 74.987902 10.947802 
L 74.966767 10.838404 
L 75.003272 10.726517 
L 75.356797 10.234178 
L 75.563339 10.08 
L 75.776607 10.142169 
L 75.89765 10.251585 
L 76.223315 10.726517 
L 76.302089 10.942829 
L 76.304011 11.382879 
L 76.382785 11.564355 
L 76.615266 11.952141 
L 76.646007 12.323735 
L 76.613344 12.718906 
L 76.661378 13.174922 
L 76.871763 13.740213 
L 76.897701 13.96755 
L 76.828533 13.975004 
L 76.382785 13.341411 
L 76.27327 13.314078 
L 76.185849 13.445774 
L 76.105153 13.620949 
L 76.017733 13.716609 
L 75.857302 13.665674 
L 75.724731 13.502924 
L 75.63731 13.286744 
L 75.60849 13.082977 
L 75.482644 13.15877 
L 75.389459 13.279289 
L 75.327016 13.428381 
L 75.292432 13.602314 
L 75.435571 13.694247 
L 75.401948 13.874381 
L 75.205012 14.332754 
L 75.383695 14.327786 
L 75.626743 14.373745 
L 75.842892 14.466903 
L 75.937998 14.597321 
L 75.89765 14.697926 
L 75.727613 14.881742 
L 75.695911 14.966195 
L 75.716085 15.09784 
L 75.756433 15.236931 
L 75.816954 15.290331 
L 75.89765 15.174837 
L 76.023497 14.901614 
L 76.119563 14.837031 
L 76.214669 14.94384 
L 76.340516 15.174837 
L 76.324185 15.253075 
L 76.272309 15.35739 
L 76.265584 15.448042 
L 76.382785 15.48778 
L 76.618148 15.498956 
L 76.732467 15.472878 
L 76.82469 15.393403 
L 76.891937 15.130129 
L 76.724781 14.70041 
L 76.7805 14.496713 
L 76.995688 14.343934 
L 77.130181 14.449513 
L 77.472178 15.130129 
L 77.505801 15.306475 
L 77.511565 15.484054 
L 77.549031 15.696395 
L 77.661428 15.932316 
L 77.782472 16.102419 
L 77.869892 16.307279 
L 77.879499 16.642481 
L 77.958273 16.443846 
L 78.060104 16.314728 
L 78.188833 16.245201 
L 78.355988 16.225336 
L 78.534671 16.265066 
L 78.607682 16.349491 
L 78.657636 16.466193 
L 78.861297 16.714484 
L 78.929504 16.905658 
L 78.936229 17.078203 
L 78.845926 17.153922 
L 78.681653 17.10427 
L 78.538514 17.022344 
L 78.407864 17.007448 
L 78.282978 17.153922 
L 78.571177 17.456784 
L 78.722961 17.697568 
L 78.857454 17.719908 
L 79.088014 17.362452 
L 79.41656 18.298225 
L 79.491492 18.620855 
L 79.51743 19.025347 
L 79.48765 19.222615 
L 79.373331 19.19408 
L 79.278225 19.025347 
L 79.243641 18.835514 
L 79.247484 18.412389 
L 79.176395 18.826828 
L 79.351235 19.695275 
L 79.287832 20.032678 
L 79.194647 20.191447 
L 79.142771 20.352689 
L 79.134125 20.521366 
L 79.168709 20.703679 
L 79.278225 20.960391 
L 79.361803 20.943029 
L 79.451144 20.836377 
L 79.579873 20.816535 
L 79.756635 20.965351 
L 79.995841 21.233206 
L 80.206226 21.540721 
L 80.296528 21.804818 
L 80.323427 21.99947 
L 80.439667 22.325521 
L 80.465605 22.490396 
L 80.434864 22.686253 
L 80.283079 23.020924 
L 80.223518 23.217994 
L 80.329191 23.147348 
L 80.433903 23.12008 
L 80.532851 23.139911 
L 80.625075 23.217994 
L 80.696164 23.048192 
L 80.773978 22.919286 
L 80.840264 22.78046 
L 80.900786 22.361471 
L 80.987245 22.228824 
L 81.116935 22.20031 
L 81.278326 22.282131 
L 81.222608 22.433372 
L 81.189945 22.490396 
L 81.350376 22.54246 
L 81.508885 22.641628 
L 81.650103 22.770543 
L 81.944066 23.117601 
L 81.995942 23.217994 
L 81.944066 23.603431 
L 81.960397 23.742229 
L 82.111222 24.146201 
L 82.221698 24.304804 
L 82.370601 24.370474 
L 82.532953 24.356844 
L 82.696266 24.369235 
L 82.808663 24.48942 
L 82.817309 24.795443 
L 82.733731 24.87721 
L 82.602121 24.924287 
L 82.55793 25.038261 
L 82.728928 25.307078 
L 82.888398 25.418564 
L 83.047868 25.484215 
L 83.170833 25.615514 
L 83.218866 25.925163 
L 83.28131 26.145619 
L 83.553177 26.555534 
L 83.615621 26.704132 
L 83.638676 27.520086 
L 83.534925 28.745548 
L 83.546453 28.97698 
L 83.603132 29.285122 
L 83.615621 29.527657 
L 83.660772 29.719448 
L 83.981633 30.312081 
L 84.018138 30.576818 
L 83.975869 31.227448 
L 84.025824 31.452545 
L 84.186255 31.571272 
L 84.329393 31.516856 
L 84.460044 31.432757 
L 84.583009 31.452545 
L 84.68676 31.671445 
L 84.673311 31.937324 
L 84.583009 32.446768 
L 84.607025 32.854769 
L 84.777063 33.744797 
L 84.912516 34.157598 
L 84.964392 34.239165 
L 85.10561 34.378812 
L 85.154603 34.460373 
L 85.170935 34.579004 
L 85.1498 34.853325 
L 85.154603 34.979357 
L 85.200715 35.29442 
L 85.235299 35.401905 
L 85.26508 35.459971 
L 85.304467 35.492092 
L 85.350579 35.511859 
L 85.399573 35.5168 
L 85.470662 35.539038 
L 85.48219 35.600807 
L 85.480268 35.683577 
L 85.517734 35.771286 
L 85.543672 35.941757 
L 85.448566 36.458063 
L 85.517734 36.702603 
L 85.607076 36.873031 
L 85.879904 37.588 
L 85.985577 38.088024 
L 86.110464 41.11139 
L 86.346787 42.237406 
L 86.379449 42.673903 
L 86.367921 43.212669 
L 86.258406 43.635488 
L 86.225743 43.907889 
L 86.209412 44.441537 
L 86.237271 44.755773 
L 86.317967 44.933211 
L 86.612891 45.273276 
L 86.811748 45.726644 
L 86.820394 46.160246 
L 86.673412 47.32282 
L 86.560054 47.790695 
L 86.532195 48.02584 
L 86.552369 48.290513 
L 86.700311 49.011798 
L 86.786771 50.687644 
L 87.108593 51.510501 
L 87.142216 52.060191 
L 87.040386 52.54709 
L 86.774282 52.735192 
L 86.882837 52.919594 
L 87.197935 53.119967 
L 87.338191 53.251494 
L 87.430415 53.446931 
L 87.506308 53.712412 
L 87.647525 54.675832 
L 88.491948 56.999673 
L 88.708098 57.412194 
L 89.280653 58.281264 
L 89.399775 58.524267 
L 89.497763 59.034762 
L 89.622649 59.191821 
L 89.777316 59.302249 
L 89.924298 59.442119 
L 90.082807 59.810169 
L 90.180795 60.300837 
L 90.24708 61.267237 
L 90.235553 61.357976 
L 90.166385 61.597071 
L 90.053987 61.831246 
L 90.049184 61.935454 
L 90.076082 62.04211 
L 90.093374 62.192895 
L 90.078004 62.299543 
L 89.964645 62.659914 
L 89.941589 62.810669 
L 89.964645 62.958967 
L 89.996347 63.0901 
L 90.004993 63.184463 
L 89.955039 63.302107 
L 89.8119 63.487143 
L 89.762906 63.586396 
L 89.68221 64.110794 
L 89.471825 64.862933 
L 89.448769 65.140959 
L 89.372877 65.545094 
L 88.323832 68.001857 
L 88.231608 68.432542 
L 88.350731 68.519405 
L 88.273878 68.718816 
L 87.419848 70.083762 
L 87.149901 70.92738 
L 87.015409 71.118079 
L 86.825197 71.179198 
L 86.636907 71.146193 
L 86.457263 71.153528 
L 86.283383 71.323434 
L 86.045138 70.582624 
L 85.843399 70.342985 
L 85.558082 70.39067 
L 84.976881 69.76704 
L 84.757849 69.442948 
L 84.670429 68.996501 
L 84.61375 68.225772 
L 84.589733 68.115652 
L 84.448516 68.045907 
L 84.28136 67.881941 
L 84.127654 67.6837 
L 84.025824 67.517267 
L 83.947049 67.316556 
L 83.885567 67.079113 
L 83.851944 66.826963 
L 83.857708 66.584587 
L 83.922072 66.338519 
L 83.998925 66.138957 
L 84.013335 65.941831 
L 83.898056 65.712856 
L 83.823124 65.625915 
L 83.754917 65.580607 
L 83.679024 65.561014 
L 83.575273 65.556115 
L 83.520515 65.509581 
L 83.184283 64.963368 
L 83.154502 64.769844 
L 83.218866 64.304358 
L 83.22463 64.039736 
L 83.131446 63.277599 
L 83.147777 63.186914 
L 83.190047 63.098678 
L 83.205417 62.995733 
L 83.131446 62.865822 
L 83.073806 62.84131 
L 82.853814 62.814346 
L 82.544481 63.012891 
L 82.114103 63.071717 
L 81.351337 63.071717 
L 80.967071 63.233482 
L 80.70385 63.531256 
L 80.030424 64.707375 
L 80.041952 65.096868 
L 80.296528 65.957749 
L 80.309977 66.169565 
L 80.296528 66.378919 
L 80.173563 66.790241 
L 80.142822 66.790241 
L 80.220636 66.977521 
L 80.358011 67.139087 
L 80.488661 67.336138 
L 80.583767 67.840336 
L 80.750922 68.334664 
L 80.831618 69.093135 
L 80.949779 69.561582 
L 81.12462 69.965148 
L 81.155361 70.137565 
L 81.116935 70.39067 
L 81.030475 70.643754 
L 80.670226 71.426106 
L 80.563593 71.858759 
L 80.557829 72.359778 
L 80.636603 72.858272 
L 80.788388 73.280951 
L 81.096761 73.647388 
L 81.866252 73.986914 
L 82.206327 74.254355 
L 82.477234 74.737888 
L 82.526228 75.168851 
L 82.275495 76.572412 
L 82.255321 77.155613 
L 82.319685 77.675274 
L 82.531992 77.8997 
L 82.653036 77.996052 
L 82.682816 78.222894 
L 82.636704 78.800895 
L 82.58675 79.016703 
L 82.575222 79.131306 
L 82.575222 79.648184 
L 82.521425 79.839552 
L 81.897954 81.166601 
L 81.556919 81.651453 
L 81.030475 82.170325 
L 81.05161 82.857142 
L 81.136148 83.172488 
L 81.315792 83.497539 
L 81.563643 83.778733 
L 81.818219 83.94062 
L 82.098733 83.996609 
L 82.41383 83.95766 
L 82.056464 84.202299 
L 81.681805 84.376332 
L 80.990127 84.502896 
L 80.696164 84.698814 
L 80.102474 84.764523 
L 79.866151 84.826581 
L 79.67594 84.989626 
L 79.526076 85.220794 
L 78.738332 87.158228 
L 78.188833 89.038462 
L 77.585536 90.774173 
L 77.468335 91.837663 
L 77.522132 92.062207 
L 77.879499 92.762426 
L 78.444369 96.425685 
L 78.509694 97.388893 
L 78.369437 98.417151 
L 77.955391 100.185717 
L 77.379954 102.435604 
L 77.364583 102.69555 
L 77.379954 102.951844 
L 77.427987 103.154928 
L 77.482745 103.262507 
L 77.614356 103.452272 
L 77.670074 103.561048 
L 77.696973 103.730247 
L 77.625884 103.814842 
L 77.505801 103.872849 
L 77.387639 103.965898 
L 77.028351 104.788702 
L 76.734388 107.733468 
L 76.651771 107.922911 
L 76.427936 108.260738 
L 76.340516 108.442904 
L 76.058081 109.454844 
L 75.364482 111.183515 
L 74.750618 113.932046 
L 73.833184 116.444319 
L 73.401846 117.229492 
L 72.326864 121.852555 
L 70.836875 126.357953 
L 70.434357 128.675721 
L 70.407458 129.017929 
L 70.413222 129.565838 
L 70.030878 130.893216 
L 69.955947 130.711493 
L 69.810886 130.472362 
L 69.655259 130.34083 
L 69.548625 130.491493 
L 69.597619 130.661277 
L 69.884857 131.129914 
L 69.950183 131.352244 
L 69.91752 131.541089 
L 68.943407 133.929033 
L 68.265179 136.06286 
L 67.96353 137.152886 
L 67.326611 139.456462 
L 66.147877 144.648538 
L 66.02299 144.883826 
L 65.865441 145.113148 
L 65.767454 145.33413 
L 65.817408 145.5444 
L 65.972075 145.359079 
L 66.059495 145.412538 
L 66.088315 145.60617 
L 66.067181 145.843732 
L 65.990328 146.059892 
L 65.780903 146.492148 
L 65.736713 146.74505 
L 65.696365 147.243646 
L 65.585888 147.73857 
L 65.158393 148.903636 
L 65.116124 149.102893 
L 65.093068 149.546413 
L 64.899975 150.794664 
L 64.727055 151.320779 
L 64.562782 151.682113 
L 63.071832 157.228413 
L 61.570315 161.232465 
L 60.068798 165.228882 
L 59.905485 166.182076 
L 59.516417 167.150115 
L 59.020714 170.974257 
L 58.793037 171.847333 
L 58.727712 173.207824 
L 58.328076 174.808734 
L 57.884249 176.218716 
L 57.597011 178.308415 
L 56.197324 183.118154 
L 56.06091 182.921001 
L 55.993664 182.756496 
L 55.926417 182.724994 
L 55.795767 182.922167 
L 55.671841 183.234804 
L 55.753498 183.318787 
L 55.947552 183.339782 
L 56.156976 183.459917 
L 56.20501 183.831938 
L 55.59787 186.870701 
L 54.956147 188.791885 
L 54.748644 189.211702 
L 54.666027 189.301235 
L 54.478697 189.437271 
L 54.418176 189.496566 
L 54.393198 189.496566 
L 54.270233 189.546558 
L 54.256784 189.548883 
L 54.17897 189.622125 
L 54.202987 189.663976 
L 54.253902 189.709313 
L 54.256784 189.788361 
L 54.253902 189.825559 
L 54.176088 190.187036 
L 53.970506 190.66115 
L 53.937844 190.759909 
L 53.261537 192.833796 
L 53.170274 192.925476 
L 53.027135 192.873254 
L 52.775441 192.74095 
L 52.717801 192.826832 
L 52.879193 193.606556 
L 52.57082 195.908993 
L 51.580376 198.67481 
L 51.285452 199.188379 
L 51.251829 199.40001 
L 51.259514 199.841696 
L 51.175936 200.065966 
L 50.570718 200.574517 
L 50.406445 201.012449 
L 50.507314 201.9261 
L 50.373782 202.281732 
L 50.252739 202.121245 
L 50.172043 201.933029 
L 50.132656 201.72285 
L 50.131695 201.498787 
L 50.027943 201.699752 
L 50.017376 201.906469 
L 50.045235 202.127018 
L 50.050999 202.370629 
L 50.001045 202.647682 
L 49.914585 202.764263 
L 49.567786 202.910843 
L 49.367007 203.050487 
L 49.034617 203.389742 
L 48.467826 204.144178 
L 48.351586 204.219143 
L 48.312198 204.158018 
L 48.190194 203.839674 
L 48.052819 203.817756 
L 48.018235 203.832752 
L 48.008629 203.874279 
L 47.318872 204.420956 
L 47.060454 204.68616 
L 46.933646 204.783007 
L 46.588768 204.930574 
L 46.454275 205.025102 
L 46.288081 205.27869 
L 46.167037 205.388183 
L 46.071931 205.381268 
L 45.95473 205.331709 
L 45.832726 205.332861 
L 45.717446 205.484992 
L 45.605049 205.574881 
L 44.79617 205.81802 
L 44.611723 205.811106 
L 44.218811 205.68666 
L 43.008375 205.505736 
L 41.643273 205.548376 
L 39.885258 206.020802 
L 37.548925 207.147201 
L 36.06566 207.989799 
L 34.41428 208.990721 
L 33.231703 210.209458 
L 33.006908 210.387598 
L 32.759057 210.497921 
L 32.494874 210.522053 
L 31.900224 211.135586 
L 31.085581 211.328562 
L 27.727102 211.487063 
L 27.546497 211.531854 
L 27.373577 211.620284 
L 27.194894 211.68 
L 26.993155 211.635213 
L 26.881718 211.476726 
L 26.770281 210.935694 
L 26.670372 210.705906 
L 26.310123 210.404836 
L 25.050693 209.891059 
L 24.697169 209.608244 
L 24.543463 209.415076 
L 24.396481 208.98612 
L 24.197624 208.787132 
L 23.324381 208.084163 
L 22.528951 207.66524 
L 22.062069 207.513297 
L 20.814167 207.316443 
L 19.57299 207.24161 
L 17.832268 206.850123 
L 17.615158 206.71884 
L 17.439356 206.172873 
L 17.056052 205.698183 
L 16.969592 205.388183 
L 17.19823 205.493059 
L 17.403812 205.693574 
L 17.767903 206.156745 
L 18.004226 206.34221 
L 18.203084 206.350273 
L 18.303953 206.195913 
L 18.251117 205.879087 
L 18.062827 205.919414 
L 17.901435 205.816868 
L 17.599787 205.484992 
L 17.404772 205.343234 
L 17.225128 205.256791 
L 17.034917 205.214144 
L 16.8082 205.202618 
L 16.393194 205.01588 
L 15.680382 204.162632 
L 15.261532 203.928493 
L 14.885913 203.931953 
L 14.752381 203.893888 
L 13.81093 203.198198 
L 13.675477 202.890068 
L 13.599584 201.77482 
L 13.482383 201.303574 
L 12.626432 200.013947 
L 12.506349 199.550334 
L 12.620668 198.277967 
L 12.506349 197.803493 
L 12.387227 197.562736 
L 11.881918 196.951443 
L 11.824278 196.900492 
L 11.764717 196.83796 
L 11.701313 196.726787 
L 11.668651 196.599393 
L 11.632146 196.307511 
L 11.58027 196.191671 
L 11.188319 195.813985 
L 10.367913 195.193993 
L 10.008624 194.773206 
L 9.608988 193.757357 
L 9.413013 191.624116 
L 9.570562 189.167515 
L 9.364019 187.783245 
L 9.387075 187.64709 
L 9.490827 187.382897 
L 9.518686 187.242057 
L 9.505237 187.077924 
L 9.364019 186.655304 
L 9.265071 186.08584 
L 9.188218 185.827255 
L 9.041236 185.572129 
L 9.209352 185.277352 
L 9.185336 184.263345 
L 9.240094 183.810948 
L 9.501394 183.531062 
L 10.294902 183.139152 
L 10.499523 182.824166 
L 10.477428 182.591978 
L 10.317958 182.217383 
L 10.338132 181.951271 
L 10.519697 181.757501 
L 10.573495 181.65944 
L 10.646505 181.418939 
L 10.652269 181.299844 
L 10.613842 181.159724 
L 10.487035 180.961202 
L 10.171937 180.665718 
L 9.946181 180.318788 
L 9.444715 179.778996 
L 9.364019 179.725242 
L 9.289087 179.712388 
L 9.209352 179.687847 
L 9.115207 179.59202 
L 9.086387 179.51255 
L 9.041236 179.189961 
L 8.917311 178.68961 
L 8.867356 177.400734 
L 8.711729 176.326415 
L 8.550337 175.725805 
L 8.228515 175.328811 
L 7.421558 174.656433 
L 7.293789 174.44788 
L 7.099735 173.995548 
L 6.931619 173.815056 
L 6.71547 173.634547 
L 6.31007 173.123407 
L 6.06414 172.687194 
L 5.929647 172.375219 
L 5.876811 172.180504 
L 5.813407 171.586858 
L 5.664504 171.194908 
L 5.603022 170.441307 
L 5.462765 170.033869 
L 5.392636 169.520639 
L 5.334997 169.396129 
L 5.174566 169.151785 
L 5.110201 169.022553 
L 5.029506 168.68651 
L 5.023742 168.348062 
L 5.069853 167.682753 
L 4.947849 166.351486 
L 4.782615 165.654932 
L 4.502101 164.998167 
L 4.499219 164.854545 
L 4.509787 164.707381 
L 4.505944 164.569626 
L 4.42717 164.212834 
L 4.29748 163.877182 
L 4.327261 163.573281 
L 4.579915 163.349449 
L 4.901737 163.315284 
L 5.150549 163.582705 
L 5.228363 163.356518 
L 5.208189 163.110277 
L 5.161116 162.854579 
L 5.150549 162.592957 
L 4.74611 162.585885 
L 4.584718 162.005955 
L 4.579915 160.694627 
L 4.605853 160.534192 
L 4.721133 160.245143 
L 4.747071 160.096474 
L 4.747071 159.750718 
L 4.767244 159.604374 
L 4.813356 159.53592 
L 4.868114 159.487528 
L 4.908462 159.408446 
L 4.931518 159.401364 
L 4.982433 159.380118 
L 5.03623 159.344707 
L 5.069853 159.299852 
L 4.982433 158.905561 
L 5.000686 158.71193 
L 5.052562 158.537174 
L 5.132297 158.371852 
L 5.232206 158.219508 
L 5.370541 158.428535 
L 5.387833 158.674146 
L 5.311941 159.200696 
L 5.553067 158.808748 
L 5.599179 158.128568 
L 5.579966 157.393824 
L 5.634724 156.831373 
L 5.766334 156.561911 
L 6.556961 155.467168 
L 6.75966 155.283868 
L 6.986377 155.248388 
L 7.245756 155.425779 
L 7.245756 151.544695 
L 7.335098 151.182153 
L 7.582949 150.510225 
L 7.65692 150.151068 
L 7.749144 150.399995 
L 7.843289 150.402366 
L 8.067123 150.151068 
L 8.389906 149.954277 
L 8.545534 149.6887 
L 8.594528 149.646015 
L 9.251622 149.6638 
L 9.693527 149.517954 
L 9.914479 149.581985 
L 10.123904 149.6887 
L 10.338132 149.745612 
L 10.632095 149.615186 
L 10.975052 149.300947 
L 11.260369 148.909567 
L 11.37853 148.546589 
L 11.439052 148.118293 
L 11.862705 146.750987 
L 12.308453 143.928262 
L 13.052967 142.239583 
L 13.300818 141.956427 
L 13.687005 141.845772 
L 13.900272 141.628017 
L 14.537192 140.238889 
L 14.684174 139.647032 
L 14.793689 138.953757 
L 14.956041 138.303175 
L 15.261532 137.830017 
L 15.263454 137.96232 
L 15.282667 138.05171 
L 15.342228 138.230479 
L 15.629466 137.433061 
L 15.79374 137.180309 
L 16.312498 136.70692 
z
" clip-path="url(#p5b3c1153a8)" style="stroke: #000000; stroke-linejoin: miter"/>
   </g>
   <g id="line2d_1">
    <path d="M 16.477732 136.512528 
L 16.437384 136.041389 
L 16.554585 135.50811 
L 17.669916 133.022641 
L 18.652674 131.807598 
L 19.064799 130.792792 
L 19.129163 129.712962 
L 19.040782 129.223708 
L 18.822712 129.187818 
L 18.577743 128.618283 
L 18.331813 128.575203 
L 18.015754 128.182664 
L 17.848599 127.672747 
L 18.120467 126.968739 
L 18.306835 126.604681 
L 18.331813 125.854837 
L 18.306835 125.193439 
L 18.581585 124.950162 
L 18.764111 124.292115 
L 19.024451 124.236969 
L 19.181039 123.980409 
L 19.133967 123.402449 
L 18.719921 121.955751 
L 18.494165 121.518936 
L 17.848599 120.703899 
L 17.756375 120.220032 
L 17.53158 119.738472 
L 16.237566 117.572102 
L 16.156871 117.067187 
L 16.237566 116.20499 
L 16.397036 115.74431 
L 16.477732 114.334081 
L 16.558428 113.822499 
L 16.508473 113.360181 
L 15.665011 110.501347 
L 14.05686 107.770875 
L 13.963676 107.331609 
L 13.964637 104.380352 
L 13.501597 101.493542 
L 13.482383 100.51606 
L 13.891626 98.010254 
L 13.828222 97.788615 
L 13.545787 97.468842 
L 13.381514 96.7892 
L 12.635078 95.511841 
L 12.573596 94.689849 
L 12.799352 93.337517 
L 13.687005 91.480783 
L 13.826301 91.566972 
L 13.901233 91.45529 
L 14.009788 91.023085 
L 15.225027 88.65328 
L 15.261532 87.945963 
L 15.592 87.956902 
L 15.8802 87.385575 
L 16.362453 85.945813 
L 16.747679 85.414231 
L 16.929244 84.923922 
L 17.263555 84.376332 
L 17.799605 83.198055 
L 18.554687 82.054622 
L 18.596956 81.093501 
L 18.331813 80.14791 
L 18.528749 79.618929 
L 18.650753 79.692066 
L 18.662281 80.057722 
L 18.940873 79.254438 
L 18.822712 78.420451 
L 18.200202 77.148293 
L 18.223258 76.473574 
L 18.64691 75.542384 
L 18.719921 74.492468 
L 18.815987 74.356929 
L 19.011962 74.289768 
L 19.809313 74.204288 
L 22.383891 74.510784 
L 22.848852 74.431415 
L 23.341673 74.866085 
L 23.55494 74.936896 
L 23.721135 74.869747 
L 24.157276 74.305643 
L 24.816291 74.100488 
L 24.720225 73.997905 
L 25.750056 73.327369 
L 27.23236 71.186532 
L 27.958621 70.801463 
L 28.41974 70.411455 
L 28.503318 70.504377 
L 28.699293 72.656685 
L 28.703136 73.107489 
L 28.791517 73.235754 
L 28.977885 73.280951 
L 29.275691 73.043965 
L 29.502408 72.707999 
L 30.07112 72.378107 
L 30.120114 72.012739 
L 29.748337 71.725547 
L 29.646507 71.281875 
L 29.754101 71.160862 
L 31.850269 70.823468 
L 32.004936 70.69877 
L 32.247023 71.580108 
L 32.12694 72.166712 
L 32.333483 72.040846 
L 32.414179 72.332896 
L 32.500638 72.298683 
L 32.615918 72.040846 
L 32.530419 71.100965 
L 32.800365 70.66087 
L 32.806129 69.576258 
L 32.611115 69.312078 
L 32.696614 69.105367 
L 33.077036 68.606267 
L 33.58907 68.285724 
L 34.142412 68.437435 
L 34.316292 68.461904 
L 34.742827 68.798332 
L 35.00797 68.750623 
L 36.034919 68.129111 
L 36.472982 68.160924 
L 36.561363 68.293065 
L 36.593065 69.149401 
L 36.960999 69.264377 
L 37.26649 69.253369 
L 37.587351 69.467409 
L 37.86018 69.479639 
L 37.86018 69.386687 
L 37.668047 68.945125 
L 37.91782 68.226995 
L 37.197322 68.765302 
L 37.437488 68.089957 
L 37.959128 67.509924 
L 38.499982 67.168462 
L 38.782417 67.101145 
L 39.802641 67.206404 
L 39.861242 67.484224 
L 39.924646 67.786493 
L 40.019751 67.91865 
L 39.527892 68.842371 
L 39.973639 69.337763 
L 40.123503 69.612948 
L 40.728721 70.946939 
L 40.9881 71.212201 
L 40.999628 71.065515 
L 41.068796 70.596073 
L 41.163902 70.632751 
L 41.389657 71.006839 
L 41.624059 70.940827 
L 41.723008 70.680431 
L 41.631745 70.083762 
L 41.943 70.047078 
L 42.613543 70.904153 
L 42.736508 70.786793 
L 42.325344 69.76704 
L 42.091902 69.63863 
L 41.602925 69.073564 
L 41.308962 68.945125 
L 40.824787 68.945125 
L 40.630733 68.684562 
L 40.913168 68.432542 
L 41.27822 67.5344 
L 41.019802 67.284735 
L 40.722957 67.31166 
L 40.665317 67.199061 
L 40.875702 66.544189 
L 41.007313 65.994481 
L 42.501145 64.152448 
L 42.774934 63.902515 
L 42.795108 63.979702 
L 42.847945 64.211253 
L 42.979556 64.11937 
L 43.94118 63.128091 
L 44.218811 62.895236 
L 45.112228 62.76287 
L 44.956601 62.632949 
L 44.590588 62.507926 
L 44.547358 62.362059 
L 44.674166 62.199024 
L 45.354316 61.993073 
L 46.570516 60.901805 
L 47.461051 59.893588 
L 48.547561 59.492422 
L 48.598476 59.74883 
L 48.615768 60.228468 
L 48.97986 60.88341 
L 49.768564 61.571323 
L 49.021168 62.612112 
L 48.354468 64.426861 
L 48.391934 64.782093 
L 48.518741 64.816389 
L 48.852091 63.956424 
L 50.627397 63.229806 
L 51.009741 63.390338 
L 51.624566 63.031274 
L 51.616881 62.677073 
L 51.19611 62.465024 
L 50.998214 62.010236 
L 50.800317 60.912842 
L 50.546702 60.927558 
L 50.204705 61.117636 
L 50.187414 60.75464 
L 50.299811 60.38915 
L 49.92227 60.340088 
L 49.84926 60.033432 
L 49.567786 59.761098 
L 49.54473 59.420035 
L 49.648481 59.094887 
L 49.970304 58.535313 
L 51.313311 57.203485 
L 51.734082 56.041839 
L 52.576584 55.164809 
L 53.274025 54.847842 
L 53.232717 54.184325 
L 53.040584 54.137629 
L 52.910895 54.272802 
L 52.710116 54.60211 
L 52.416153 54.530845 
L 52.233627 54.189241 
L 52.306637 54.189241 
L 52.662083 53.483804 
L 54.300975 51.388746 
L 54.423939 51.615035 
L 54.756329 52.303649 
L 54.798598 53.51699 
L 54.951344 53.619004 
L 54.958068 53.818106 
L 54.827418 54.189241 
L 53.970506 55.529652 
L 53.850423 55.980429 
L 53.768767 58.006328 
L 54.074258 58.086111 
L 54.579567 57.710502 
L 54.904271 56.878117 
L 55.057977 56.480267 
L 55.392288 56.14746 
L 55.52486 56.273955 
L 55.565208 56.135178 
L 55.619966 55.492801 
L 56.464389 53.486263 
L 56.579668 52.859357 
L 56.997557 52.244631 
L 57.040787 51.856066 
L 57.666179 51.207949 
L 58.074461 50.421926 
L 58.241616 50.270605 
L 58.294453 49.949487 
L 59.026478 51.075113 
L 59.678769 51.396125 
L 59.740251 51.576911 
L 59.75274 52.116754 
L 59.924699 51.875741 
L 59.84016 51.233778 
L 59.678769 51.075113 
L 60.006355 50.74915 
L 60.318571 50.793434 
L 60.553933 51.110782 
L 60.645196 51.597818 
L 60.692269 52.910989 
L 60.888244 52.529878 
L 60.950687 51.464997 
L 60.843093 50.91275 
L 59.816144 49.951948 
L 59.638421 49.986399 
L 58.963074 50.375177 
L 58.800722 50.328428 
L 58.527894 49.934722 
L 58.374188 49.635722 
L 57.772812 50.466214 
L 57.455793 49.801836 
L 57.424092 49.570504 
L 57.568191 49.321928 
L 57.447147 49.019182 
L 57.300166 48.354524 
L 57.321301 48.310209 
L 57.165673 48.135405 
L 57.259818 46.973103 
L 57.4068 46.496496 
L 57.648887 46.110976 
L 58.017782 45.773456 
L 58.220482 44.758237 
L 58.499074 44.648566 
L 59.048573 45.145139 
L 59.919895 45.066284 
L 60.097618 44.652263 
L 60.161982 44.182734 
L 60.001552 43.41977 
L 59.821908 43.058568 
L 59.591348 42.8872 
L 59.746015 42.680068 
L 59.99963 42.76884 
L 60.850778 43.506059 
L 60.790256 43.848727 
L 60.645196 44.182734 
L 60.485726 46.304357 
L 60.645196 46.308052 
L 60.729735 46.014897 
L 60.725892 45.697078 
L 61.089983 45.221529 
L 60.836368 44.726199 
L 60.813312 44.551215 
L 60.898811 44.218475 
L 61.290762 43.350738 
L 61.258099 42.650477 
L 61.153387 42.381678 
L 60.424244 41.952544 
L 59.993866 41.438255 
L 60.891126 40.852344 
L 60.891126 40.661131 
L 60.323374 40.19601 
L 59.715274 39.82461 
L 59.40594 39.09774 
L 59.223414 38.105308 
L 59.317559 37.258316 
L 59.833436 36.966886 
L 59.562528 36.645792 
L 59.452052 36.507466 
L 59.465501 35.809581 
L 59.719117 35.044843 
L 60.134123 35.160985 
L 60.23115 34.785365 
L 60.383896 33.989517 
L 60.634629 33.893114 
L 60.675937 34.148947 
L 60.483805 34.445544 
L 60.565461 34.676625 
L 60.631747 34.630904 
L 60.813312 34.572826 
L 60.775846 34.926227 
L 60.869991 35.007776 
L 61.055399 34.805135 
L 61.106315 34.549347 
L 61.290762 34.460373 
L 61.058281 34.051313 
L 61.496344 34.053784 
L 61.676949 34.226806 
L 61.862357 35.299362 
L 62.189943 35.111563 
L 62.370548 35.238822 
L 62.749049 36.863151 
L 62.795161 37.150885 
L 62.979608 37.23609 
L 62.829745 37.536141 
L 62.960395 37.841107 
L 63.61941 38.343565 
L 63.880711 38.425039 
L 64.215022 38.317642 
L 64.554136 38.039876 
L 64.716488 37.66949 
L 64.520513 37.276839 
L 64.60313 37.040981 
L 64.675179 35.994873 
L 64.933598 35.299362 
L 64.624264 34.493738 
L 64.852902 34.365218 
L 64.989316 34.451723 
L 65.335155 35.091794 
L 65.498468 34.538225 
L 65.736713 34.157598 
L 66.110411 34.041425 
L 66.467777 33.978394 
L 66.470659 33.744797 
L 66.882784 34.140296 
L 66.995182 34.105692 
L 66.762701 33.440728 
L 66.669517 33.017956 
L 66.346734 32.295921 
L 66.382278 31.670209 
L 66.67432 31.863127 
L 67.096051 32.619865 
L 67.949121 32.940072 
L 68.23732 32.813971 
L 68.653287 32.914111 
L 69.081743 32.762045 
L 69.898307 32.026358 
L 70.19227 31.556432 
L 69.986688 31.254659 
L 70.155765 30.821745 
L 70.595748 30.150013 
L 70.38056 28.616831 
L 70.803252 26.995122 
L 71.292229 25.959843 
L 71.378689 25.596934 
L 71.805224 25.098963 
L 71.753348 24.713674 
L 71.966615 23.322103 
L 71.661124 22.770543 
L 71.441132 22.205269 
L 71.335459 21.352247 
L 71.021322 20.987673 
L 70.962722 20.975272 
L 70.914689 20.662752 
L 71.070316 20.264627 
L 70.998266 19.974379 
L 71.159658 19.557577 
L 71.070316 19.375212 
L 70.768668 19.438483 
L 70.595748 19.557577 
L 70.485272 18.854125 
L 70.104849 18.412389 
L 69.822414 17.584625 
L 69.788791 17.882491 
L 69.306538 17.580901 
L 69.448716 17.434443 
L 69.65622 17.01862 
L 69.930969 17.086892 
L 70.35174 17.153922 
L 70.755219 17.256947 
L 71.004991 17.531255 
L 71.491087 18.493047 
L 71.854218 18.26596 
L 72.015609 17.873803 
L 72.073249 16.970208 
L 72.208702 16.56427 
L 72.207742 16.225336 
L 72.463278 15.88265 
L 72.630434 15.826774 
L 72.779337 15.914933 
L 72.980115 15.512615 
L 73.263511 15.174837 
L 73.437391 15.448042 
L 73.908116 14.645761 
L 74.10217 14.851935 
L 74.278932 14.769963 
L 74.479711 14.238351 
L 74.46338 13.546408 
L 74.872622 13.181134 
L 74.699703 12.829498 
L 74.301027 12.613282 
L 74.156928 12.446764 
L 74.027238 12.419424 
L 73.592058 12.446764 
L 73.750567 12.167147 
L 74.225135 11.973269 
L 74.399015 11.715993 
L 74.577699 11.875083 
L 74.962925 12.561091 
L 75.04362 12.446764 
L 75.131041 12.561091 
L 75.053227 11.934741 
L 74.878386 11.67622 
L 74.641102 11.611587 
L 74.837078 11.271006 
L 74.987902 10.947802 
L 75.003272 10.726517 
L 75.563339 10.08 
L 75.89765 10.251585 
L 76.302089 10.942829 
L 76.382785 11.564355 
L 76.615266 11.952141 
L 76.871763 13.740213 
L 76.897701 13.96755 
L 76.828533 13.975004 
L 76.27327 13.314078 
L 76.017733 13.716609 
L 75.857302 13.665674 
L 75.63731 13.286744 
L 75.60849 13.082977 
L 75.389459 13.279289 
L 75.292432 13.602314 
L 75.435571 13.694247 
L 75.205012 14.332754 
L 75.383695 14.327786 
L 75.842892 14.466903 
L 75.89765 14.697926 
L 75.695911 14.966195 
L 75.816954 15.290331 
L 76.119563 14.837031 
L 76.340516 15.174837 
L 76.382785 15.48778 
L 76.732467 15.472878 
L 76.82469 15.393403 
L 76.891937 15.130129 
L 76.724781 14.70041 
L 76.7805 14.496713 
L 76.995688 14.343934 
L 77.130181 14.449513 
L 77.505801 15.306475 
L 77.549031 15.696395 
L 77.879499 16.642481 
L 77.958273 16.443846 
L 78.188833 16.245201 
L 78.534671 16.265066 
L 78.861297 16.714484 
L 78.936229 17.078203 
L 78.845926 17.153922 
L 78.407864 17.007448 
L 78.282978 17.153922 
L 78.857454 17.719908 
L 79.088014 17.362452 
L 79.491492 18.620855 
L 79.48765 19.222615 
L 79.373331 19.19408 
L 79.243641 18.835514 
L 79.247484 18.412389 
L 79.176395 18.826828 
L 79.351235 19.695275 
L 79.168709 20.703679 
L 79.361803 20.943029 
L 79.579873 20.816535 
L 79.995841 21.233206 
L 80.296528 21.804818 
L 80.434864 22.686253 
L 80.223518 23.217994 
L 80.329191 23.147348 
L 80.532851 23.139911 
L 80.625075 23.217994 
L 81.116935 22.20031 
L 81.278326 22.282131 
L 81.189945 22.490396 
L 81.508885 22.641628 
L 81.995942 23.217994 
L 81.960397 23.742229 
L 82.221698 24.304804 
L 82.532953 24.356844 
L 82.696266 24.369235 
L 82.808663 24.48942 
L 82.733731 24.87721 
L 82.55793 25.038261 
L 82.888398 25.418564 
L 83.170833 25.615514 
L 83.28131 26.145619 
L 83.615621 26.704132 
L 83.638676 27.520086 
L 83.546453 28.97698 
L 83.660772 29.719448 
L 84.018138 30.576818 
L 84.025824 31.452545 
L 84.186255 31.571272 
L 84.583009 31.452545 
L 84.68676 31.671445 
L 84.607025 32.854769 
L 84.964392 34.239165 
L 85.170935 34.579004 
L 85.200715 35.29442 
L 85.350579 35.511859 
L 85.48219 35.600807 
L 85.517734 36.702603 
L 85.879904 37.588 
L 85.985577 38.088024 
L 86.110464 41.11139 
L 86.379449 42.673903 
L 86.258406 43.635488 
L 86.209412 44.441537 
L 86.317967 44.933211 
L 86.612891 45.273276 
L 86.811748 45.726644 
L 86.820394 46.160246 
L 86.552369 48.290513 
L 86.700311 49.011798 
L 86.786771 50.687644 
L 87.108593 51.510501 
L 87.142216 52.060191 
L 87.040386 52.54709 
L 86.774282 52.735192 
L 86.882837 52.919594 
L 87.338191 53.251494 
L 87.506308 53.712412 
L 87.647525 54.675832 
L 88.708098 57.412194 
L 89.399775 58.524267 
L 89.622649 59.191821 
L 89.924298 59.442119 
L 90.180795 60.300837 
L 90.166385 61.597071 
L 90.049184 61.935454 
L 90.078004 62.299543 
L 89.964645 62.958967 
L 89.955039 63.302107 
L 89.762906 63.586396 
L 89.372877 65.545094 
L 88.231608 68.432542 
L 88.350731 68.519405 
L 88.273878 68.718816 
L 87.419848 70.083762 
L 87.015409 71.118079 
L 86.636907 71.146193 
L 86.457263 71.153528 
L 86.283383 71.323434 
L 86.045138 70.582624 
L 85.843399 70.342985 
L 85.558082 70.39067 
L 84.757849 69.442948 
L 84.448516 68.045907 
L 84.025824 67.517267 
L 83.851944 66.826963 
L 83.922072 66.338519 
L 84.013335 65.941831 
L 83.754917 65.580607 
L 83.520515 65.509581 
L 83.154502 64.769844 
L 83.22463 64.039736 
L 83.073806 62.84131 
L 82.853814 62.814346 
L 82.544481 63.012891 
L 80.967071 63.233482 
L 80.70385 63.531256 
L 80.030424 64.707375 
L 80.041952 65.096868 
L 80.309977 66.169565 
L 80.173563 66.790241 
L 80.142822 66.790241 
L 80.750922 68.334664 
L 80.949779 69.561582 
L 81.155361 70.137565 
L 81.030475 70.643754 
L 80.563593 71.858759 
L 80.636603 72.858272 
L 80.788388 73.280951 
L 81.096761 73.647388 
L 82.206327 74.254355 
L 82.477234 74.737888 
L 82.526228 75.168851 
L 82.255321 77.155613 
L 82.319685 77.675274 
L 82.653036 77.996052 
L 82.682816 78.222894 
L 82.521425 79.839552 
L 81.556919 81.651453 
L 81.030475 82.170325 
L 81.136148 83.172488 
L 81.563643 83.778733 
L 82.098733 83.996609 
L 82.41383 83.95766 
L 81.681805 84.376332 
L 80.990127 84.502896 
L 80.696164 84.698814 
L 79.866151 84.826581 
L 79.526076 85.220794 
L 78.738332 87.158228 
L 77.468335 91.837663 
L 77.522132 92.062207 
L 77.879499 92.762426 
L 78.509694 97.388893 
L 78.369437 98.417151 
L 77.379954 102.951844 
L 77.482745 103.262507 
L 77.696973 103.730247 
L 77.387639 103.965898 
L 77.028351 104.788702 
L 76.651771 107.922911 
L 76.340516 108.442904 
L 76.058081 109.454844 
L 75.364482 111.183515 
L 74.750618 113.932046 
L 73.833184 116.444319 
L 73.401846 117.229492 
L 72.326864 121.852555 
L 70.836875 126.357953 
L 70.407458 129.017929 
L 70.413222 129.565838 
L 70.030878 130.893216 
L 69.810886 130.472362 
L 69.655259 130.34083 
L 69.548625 130.491493 
L 69.597619 130.661277 
L 69.950183 131.352244 
L 69.91752 131.541089 
L 68.943407 133.929033 
L 67.96353 137.152886 
L 67.326611 139.456462 
L 66.02299 144.883826 
L 65.767454 145.33413 
L 65.817408 145.5444 
L 66.059495 145.412538 
L 66.067181 145.843732 
L 65.736713 146.74505 
L 65.585888 147.73857 
L 65.116124 149.102893 
L 65.093068 149.546413 
L 64.727055 151.320779 
L 64.562782 151.682113 
L 63.071832 157.228413 
L 60.068798 165.228882 
L 59.905485 166.182076 
L 59.516417 167.150115 
L 59.020714 170.974257 
L 58.793037 171.847333 
L 58.727712 173.207824 
L 57.884249 176.218716 
L 57.597011 178.308415 
L 56.197324 183.118154 
L 55.926417 182.724994 
L 55.671841 183.234804 
L 55.753498 183.318787 
L 56.156976 183.459917 
L 56.20501 183.831938 
L 55.59787 186.870701 
L 54.748644 189.211702 
L 54.393198 189.496566 
L 54.17897 189.622125 
L 54.202987 189.663976 
L 54.253902 189.825559 
L 53.970506 190.66115 
L 53.170274 192.925476 
L 52.717801 192.826832 
L 52.879193 193.606556 
L 52.57082 195.908993 
L 51.175936 200.065966 
L 50.570718 200.574517 
L 50.406445 201.012449 
L 50.507314 201.9261 
L 50.373782 202.281732 
L 50.172043 201.933029 
L 50.131695 201.498787 
L 50.027943 201.699752 
L 49.914585 202.764263 
L 49.367007 203.050487 
L 49.034617 203.389742 
L 48.351586 204.219143 
L 48.018235 203.832752 
L 48.008629 203.874279 
L 46.071931 205.381268 
L 45.832726 205.332861 
L 45.605049 205.574881 
L 44.611723 205.811106 
L 44.218811 205.68666 
L 43.008375 205.505736 
L 41.643273 205.548376 
L 39.885258 206.020802 
L 37.548925 207.147201 
L 34.41428 208.990721 
L 33.006908 210.387598 
L 32.494874 210.522053 
L 31.900224 211.135586 
L 31.085581 211.328562 
L 27.546497 211.531854 
L 27.194894 211.68 
L 26.993155 211.635213 
L 26.881718 211.476726 
L 26.670372 210.705906 
L 26.310123 210.404836 
L 25.050693 209.891059 
L 24.543463 209.415076 
L 24.396481 208.98612 
L 24.197624 208.787132 
L 23.324381 208.084163 
L 22.062069 207.513297 
L 20.814167 207.316443 
L 19.57299 207.24161 
L 17.615158 206.71884 
L 17.439356 206.172873 
L 17.056052 205.698183 
L 16.969592 205.388183 
L 17.403812 205.693574 
L 18.004226 206.34221 
L 18.203084 206.350273 
L 18.303953 206.195913 
L 18.251117 205.879087 
L 18.062827 205.919414 
L 17.901435 205.816868 
L 17.404772 205.343234 
L 17.034917 205.214144 
L 16.8082 205.202618 
L 16.393194 205.01588 
L 15.680382 204.162632 
L 15.261532 203.928493 
L 14.752381 203.893888 
L 13.81093 203.198198 
L 13.675477 202.890068 
L 13.482383 201.303574 
L 12.626432 200.013947 
L 12.506349 199.550334 
L 12.620668 198.277967 
L 12.387227 197.562736 
L 11.668651 196.599393 
L 11.58027 196.191671 
L 11.188319 195.813985 
L 10.367913 195.193993 
L 10.008624 194.773206 
L 9.608988 193.757357 
L 9.413013 191.624116 
L 9.570562 189.167515 
L 9.387075 187.64709 
L 9.505237 187.077924 
L 9.041236 185.572129 
L 9.209352 185.277352 
L 9.240094 183.810948 
L 9.501394 183.531062 
L 10.294902 183.139152 
L 10.499523 182.824166 
L 10.477428 182.591978 
L 10.317958 182.217383 
L 10.338132 181.951271 
L 10.573495 181.65944 
L 10.613842 181.159724 
L 9.946181 180.318788 
L 9.209352 179.687847 
L 9.086387 179.51255 
L 8.550337 175.725805 
L 8.228515 175.328811 
L 7.293789 174.44788 
L 6.931619 173.815056 
L 6.71547 173.634547 
L 6.06414 172.687194 
L 5.876811 172.180504 
L 5.603022 170.441307 
L 5.029506 168.68651 
L 4.947849 166.351486 
L 4.782615 165.654932 
L 4.499219 164.854545 
L 4.505944 164.569626 
L 4.327261 163.573281 
L 4.579915 163.349449 
L 4.901737 163.315284 
L 5.150549 163.582705 
L 5.208189 163.110277 
L 5.150549 162.592957 
L 4.74611 162.585885 
L 4.584718 162.005955 
L 4.605853 160.534192 
L 4.747071 160.096474 
L 4.813356 159.53592 
L 5.069853 159.299852 
L 5.000686 158.71193 
L 5.232206 158.219508 
L 5.370541 158.428535 
L 5.387833 158.674146 
L 5.311941 159.200696 
L 5.553067 158.808748 
L 5.766334 156.561911 
L 6.75966 155.283868 
L 6.986377 155.248388 
L 7.245756 155.425779 
L 7.335098 151.182153 
L 7.65692 150.151068 
L 7.843289 150.402366 
L 8.594528 149.646015 
L 9.251622 149.6638 
L 9.693527 149.517954 
L 10.338132 149.745612 
L 10.632095 149.615186 
L 11.260369 148.909567 
L 11.862705 146.750987 
L 12.308453 143.928262 
L 13.052967 142.239583 
L 13.300818 141.956427 
L 13.687005 141.845772 
L 13.900272 141.628017 
L 14.537192 140.238889 
L 14.956041 138.303175 
L 15.261532 137.830017 
L 15.263454 137.96232 
L 15.342228 138.230479 
L 15.79374 137.180309 
L 16.477732 136.512528 
L 16.477732 136.512528 
" clip-path="url(#p5b3c1153a8)" style="fill: none; stroke: #000000; stroke-width: 0.5; stroke-linecap: square"/>
   </g>
  </g>
 </g>
 <defs>
  <clipPath id="p5b3c1153a8">
   <rect x="0" y="-0" width="94.54456" height="221.76"/>
  </clipPath>
 </defs>
</svg>
