<?xml version="1.0" encoding="utf-8" standalone="no"?>
<!DOCTYPE svg PUBLIC "-//W3C//DTD SVG 1.1//EN"
  "http://www.w3.org/Graphics/SVG/1.1/DTD/svg11.dtd">
<svg xmlns:xlink="http://www.w3.org/1999/xlink" width="220.534657pt" height="221.76pt" viewBox="0 0 220.534657 221.76" xmlns="http://www.w3.org/2000/svg" version="1.1">
 <metadata>
  <rdf:RDF xmlns:dc="http://purl.org/dc/elements/1.1/" xmlns:cc="http://creativecommons.org/ns#" xmlns:rdf="http://www.w3.org/1999/02/22-rdf-syntax-ns#">
   <cc:Work>
    <dc:type rdf:resource="http://purl.org/dc/dcmitype/StillImage"/>
    <dc:date>2026-04-26T19:22:28.771708</dc:date>
    <dc:format>image/svg+xml</dc:format>
    <dc:creator>
     <cc:Agent>
      <dc:title>Matplotlib v3.10.9, https://matplotlib.org/</dc:title>
     </cc:Agent>
    </dc:creator>
   </cc:Work>
  </rdf:RDF>
 </metadata>
 <defs>
  <style type="text/css">*{stroke-linejoin: round; stroke-linecap: butt}</style>
 </defs>
 <g id="figure_1">
  <g id="patch_1">
   <path d="M 0 221.76 
L 220.534657 221.76 
L 220.534657 0 
L 0 0 
z
" style="fill: #ffffff"/>
  </g>
  <g id="axes_1">
   <g id="patch_2">
    <path d="M 28.493648 211.68 
L 22.604906 208.299172 
L 23.407881 203.624408 
L 15.645418 198.179922 
L 12.433373 136.684368 
L 10.024303 106.945693 
L 31.170393 100.687677 
L 27.690624 97.439443 
L 35.72081 90.457012 
L 44.018622 87.221531 
L 42.412575 84.48704 
L 50.175038 80.26672 
L 47.766016 72.34153 
L 52.584109 60.500261 
L 60.078897 56.565614 
L 63.023316 44.065588 
L 100.764981 10.08 
L 109.598142 11.526615 
L 110.133491 19.740852 
L 116.55763 22.646806 
L 132.35023 17.805497 
L 142.254089 17.805497 
L 149.213528 14.663964 
L 162.864781 21.677745 
L 170.894968 27.497989 
L 171.430268 77.787456 
L 170.359619 89.958981 
L 187.222917 93.197855 
L 184.813846 98.438482 
L 189.096589 103.439337 
L 185.61687 107.948324 
L 192.576358 114.977704 
L 201.677193 113.469825 
L 210.510354 129.850582 
L 200.338821 137.191217 
L 194.450031 134.404509 
L 189.631938 139.473414 
L 182.672499 138.205291 
L 181.869476 142.519267 
L 172.76864 142.011382 
L 158.314364 151.932035 
L 154.834644 145.060109 
L 149.748877 144.551752 
L 152.157948 151.932035 
L 140.915717 155.501997 
L 138.23902 149.639505 
L 132.885579 152.69665 
L 120.305024 152.69665 
L 120.03735 145.822774 
L 112.542562 147.348832 
L 113.880885 152.186884 
L 106.921446 162.399931 
L 108.25977 165.215059 
L 99.158983 170.853834 
L 90.058148 168.802048 
L 84.704707 174.704903 
L 77.209869 175.475754 
L 71.053454 180.362575 
L 63.558616 179.333101 
L 61.417269 174.191119 
L 50.442712 182.42273 
L 53.387132 187.579559 
L 45.356995 189.386606 
L 44.821646 193.779929 
L 35.72081 199.216193 
z
" clip-path="url(#pd137fd3c4d)" style="stroke: #000000; stroke-linejoin: miter"/>
   </g>
   <g id="line2d_1">
    <path d="M 28.493648 211.68 
L 22.604906 208.299172 
L 23.407881 203.624408 
L 15.645418 198.179922 
L 12.433373 136.684368 
L 10.024303 106.945693 
L 31.170393 100.687677 
L 27.690624 97.439443 
L 35.72081 90.457012 
L 44.018622 87.221531 
L 42.412575 84.48704 
L 50.175038 80.26672 
L 47.766016 72.34153 
L 52.584109 60.500261 
L 60.078897 56.565614 
L 63.023316 44.065588 
L 100.764981 10.08 
L 109.598142 11.526615 
L 110.133491 19.740852 
L 116.55763 22.646806 
L 132.35023 17.805497 
L 142.254089 17.805497 
L 149.213528 14.663964 
L 162.864781 21.677745 
L 170.894968 27.497989 
L 171.430268 77.787456 
L 170.359619 89.958981 
L 187.222917 93.197855 
L 184.813846 98.438482 
L 189.096589 103.439337 
L 185.61687 107.948324 
L 192.576358 114.977704 
L 201.677193 113.469825 
L 210.510354 129.850582 
L 200.338821 137.191217 
L 194.450031 134.404509 
L 189.631938 139.473414 
L 182.672499 138.205291 
L 181.869476 142.519267 
L 172.76864 142.011382 
L 158.314364 151.932035 
L 154.834644 145.060109 
L 149.748877 144.551752 
L 152.157948 151.932035 
L 140.915717 155.501997 
L 138.23902 149.639505 
L 132.885579 152.69665 
L 120.305024 152.69665 
L 120.03735 145.822774 
L 112.542562 147.348832 
L 113.880885 152.186884 
L 106.921446 162.399931 
L 108.25977 165.215059 
L 99.158983 170.853834 
L 90.058148 168.802048 
L 84.704707 174.704903 
L 77.209869 175.475754 
L 71.053454 180.362575 
L 63.558616 179.333101 
L 61.417269 174.191119 
L 50.442712 182.42273 
L 53.387132 187.579559 
L 45.356995 189.386606 
L 44.821646 193.779929 
L 35.72081 199.216193 
L 28.493648 211.68 
" clip-path="url(#pd137fd3c4d)" style="fill: none; stroke: #000000; stroke-width: 0.5; stroke-linecap: square"/>
   </g>
  </g>
 </g>
 <defs>
  <clipPath id="pd137fd3c4d">
   <rect x="0" y="-0" width="220.534657" height="221.76"/>
  </clipPath>
 </defs>
</svg>
