<?xml version="1.0" encoding="utf-8" standalone="no"?>
<!DOCTYPE svg PUBLIC "-//W3C//DTD SVG 1.1//EN"
  "http://www.w3.org/Graphics/SVG/1.1/DTD/svg11.dtd">
<svg xmlns:xlink="http://www.w3.org/1999/xlink" width="72.025567pt" height="221.76pt" viewBox="0 0 72.025567 221.76" xmlns="http://www.w3.org/2000/svg" version="1.1">
 <metadata>
  <rdf:RDF xmlns:dc="http://purl.org/dc/elements/1.1/" xmlns:cc="http://creativecommons.org/ns#" xmlns:rdf="http://www.w3.org/1999/02/22-rdf-syntax-ns#">
   <cc:Work>
    <dc:type rdf:resource="http://purl.org/dc/dcmitype/StillImage"/>
    <dc:date>2026-04-26T19:21:49.732119</dc:date>
    <dc:format>image/svg+xml</dc:format>
    <dc:creator>
     <cc:Agent>
      <dc:title>Matplotlib v3.10.9, https://matplotlib.org/</dc:title>
     </cc:Agent>
    </dc:creator>
   </cc:Work>
  </rdf:RDF>
 </metadata>
 <defs>
  <style type="text/css">*{stroke-linejoin: round; stroke-linecap: butt}</style>
 </defs>
 <g id="figure_1">
  <g id="patch_1">
   <path d="M 0 221.76 
L 72.025567 221.76 
L 72.025567 0 
L 0 0 
z
" style="fill: #ffffff"/>
  </g>
  <g id="axes_1">
   <g id="patch_2">
    <path d="M 49.767222 67.687469 
L 43.436286 67.595461 
L 42.738881 67.811949 
L 42.544693 68.147494 
L 42.546781 68.623726 
L 42.682504 69.760065 
L 42.642831 70.817787 
L 42.490404 71.851018 
L 41.669805 74.422648 
L 40.130919 77.382558 
L 37.95727 81.559519 
L 37.527134 82.880187 
L 37.431084 84.057509 
L 37.462905 84.200636 
L 37.963534 86.452055 
L 39.151629 91.775441 
L 40.26873 96.792892 
L 40.531823 99.71377 
L 40.863821 103.368474 
L 41.143619 106.485644 
L 41.377479 109.082161 
L 41.245933 111.286375 
L 41.296045 113.418601 
L 41.960042 115.308245 
L 41.985099 115.359308 
L 42.0526 115.443985 
L 42.396442 115.875298 
L 42.632391 116.281073 
L 43.041647 117.200019 
L 43.137696 117.487498 
L 43.160665 117.643323 
L 43.221218 117.750786 
L 43.438374 117.893171 
L 43.764108 117.973765 
L 46.349101 117.917349 
L 47.040242 118.051672 
L 47.716767 118.360603 
L 47.732433 118.372775 
L 48.349443 118.852176 
L 50.412426 121.223544 
L 52.180996 123.255819 
L 53.939125 125.891156 
L 56.112774 129.139506 
L 57.958601 131.898318 
L 59.689586 134.484409 
L 61.044723 137.744254 
L 62.794501 140.507171 
L 64.915949 143.854682 
L 65.645271 145.00488 
L 66.379665 146.162848 
L 67.363131 147.403478 
L 67.59908 147.780428 
L 67.71601 148.221508 
L 67.922726 153.629354 
L 68.05636 153.859021 
L 68.317365 153.909761 
L 68.751677 153.893738 
L 67.993719 156.120483 
L 67.438301 157.753943 
L 66.45901 160.606024 
L 66.325375 161.251477 
L 66.33164 161.854188 
L 66.413856 162.272996 
L 66.887058 164.682857 
L 67.463357 167.579345 
L 67.404626 168.638189 
L 67.403315 168.661836 
L 67.29005 170.703282 
L 67.110478 173.921218 
L 66.983108 176.201092 
L 66.780568 179.902157 
L 66.575661 180.863184 
L 66.436042 181.517906 
L 66.444394 181.924422 
L 66.557148 182.708141 
L 66.536267 183.11191 
L 66.344168 183.667042 
L 66.039314 184.091983 
L 64.575598 185.342704 
L 64.362618 185.47546 
L 64.176783 185.4967 
L 63.794672 185.409083 
L 63.585868 185.422358 
L 61.658607 186.136532 
L 61.170006 186.19759 
L 61.06978 186.348906 
L 61.009227 186.747086 
L 60.87768 186.983324 
L 60.625028 186.970053 
L 60.35567 186.810792 
L 60.182363 186.611708 
L 60.0362 186.181662 
L 59.702114 185.905564 
L 59.286594 185.764855 
L 58.887779 185.738306 
L 58.430498 185.884325 
L 58.050475 186.2029 
L 56.643136 187.771594 
L 56.525968 187.942657 
L 56.081453 188.591585 
L 55.709782 189.554711 
L 55.571972 190.743114 
L 55.617909 191.013649 
L 55.860121 191.735008 
L 55.780776 191.994885 
L 55.304703 192.700197 
L 55.275347 192.82851 
L 55.196125 193.17477 
L 55.202389 194.195351 
L 55.091723 194.653883 
L 54.814013 195.011668 
L 53.404587 196.161712 
L 53.147758 196.381621 
L 53.479756 197.520759 
L 53.803402 198.153796 
L 53.886924 198.418642 
L 54.003854 198.633157 
L 54.229362 198.723197 
L 54.415198 198.762921 
L 54.857862 198.972125 
L 54.987321 199.059511 
L 55.079195 199.18132 
L 55.183596 199.446112 
L 55.262942 199.583798 
L 55.325583 199.634105 
L 55.496802 199.726776 
L 55.553179 199.774434 
L 56.039693 200.42572 
L 56.102334 200.560732 
L 56.160799 202.254692 
L 56.242233 202.762768 
L 56.647312 203.760245 
L 56.749626 204.397785 
L 56.244321 204.921512 
L 56.196296 205.461052 
L 56.242233 206.431546 
L 56.177503 206.550531 
L 56.054309 206.664224 
L 55.956171 206.793779 
L 55.964523 206.955057 
L 56.058485 207.074029 
L 56.712041 207.547246 
L 56.833148 207.766655 
L 56.730834 208.099715 
L 56.515766 208.567546 
L 56.490709 208.979836 
L 56.668193 209.941709 
L 56.695337 210.459563 
L 56.643136 210.884901 
L 56.53247 211.23624 
L 56.380043 211.526802 
L 56.374783 211.5275 
L 55.225357 211.68 
L 53.187431 211.595477 
L 52.124619 211.392089 
L 51.815589 211.027553 
L 51.87823 210.369735 
L 51.220497 209.138399 
L 51.379188 208.340244 
L 51.817677 207.896181 
L 52.329246 207.589542 
L 52.773999 207.203574 
L 53.009947 206.502937 
L 53.0705 205.680553 
L 53.057972 204.752233 
L 52.872137 203.958659 
L 52.416944 203.54595 
L 51.750859 203.522139 
L 51.149504 203.593572 
L 50.573205 203.477162 
L 49.978114 202.900363 
L 49.606443 202.291741 
L 49.433136 202.061503 
L 49.157514 201.815376 
L 49.019704 201.751857 
L 48.710674 201.683044 
L 48.572863 201.587764 
L 48.48099 201.394549 
L 48.41626 200.89957 
L 48.330651 200.687799 
L 48.191354 200.563609 
L 48.007005 200.399246 
L 47.652038 200.213929 
L 47.343008 199.988891 
L 47.144644 199.597037 
L 46.998481 199.043623 
L 46.835614 198.691419 
L 45.895997 197.716771 
L 45.691369 197.375069 
L 45.330138 196.516742 
L 45.069133 196.164361 
L 43.789165 195.329679 
L 43.636738 195.260778 
L 43.511455 195.144175 
L 43.262979 194.38354 
L 43.156489 194.14764 
L 43.020766 193.964744 
L 42.36721 193.357695 
L 42.114557 193.052817 
L 41.897401 192.655124 
L 41.331542 190.878383 
L 40.880526 190.305453 
L 39.984757 190.143641 
L 39.289439 190.111809 
L 38.8948 189.615729 
L 38.061672 187.370839 
L 38.143106 186.497564 
L 38.541921 184.838203 
L 38.452136 184.115885 
L 38.111785 183.531584 
L 36.426737 181.350507 
L 36.132324 181.127301 
L 35.459975 180.73401 
L 35.20941 180.462941 
L 34.990166 179.747997 
L 34.952581 178.83092 
L 35.054895 177.932298 
L 35.272051 177.286153 
L 35.846262 176.52025 
L 36.205405 176.179814 
L 36.547844 175.97767 
L 36.965451 175.818077 
L 37.184696 175.658479 
L 37.192928 175.644316 
L 38.441695 173.495464 
L 38.68182 172.678453 
L 38.746549 171.65369 
L 38.562802 170.098874 
L 38.56489 169.230753 
L 38.817543 168.799304 
L 39.180861 168.567586 
L 39.577589 167.776475 
L 39.984757 167.467458 
L 40.118391 167.147766 
L 40.218617 166.495006 
L 40.312579 166.175258 
L 40.542263 165.796866 
L 40.79074 165.583676 
L 41.053833 165.410453 
L 41.325278 165.157271 
L 41.696949 164.488282 
L 41.776295 163.813881 
L 41.574301 161.98274 
L 41.356599 160.008514 
L 41.404624 159.568344 
L 41.590459 159.285549 
L 41.538258 158.992068 
L 41.410888 158.669221 
L 41.364951 158.303661 
L 41.483969 157.940746 
L 41.895313 157.23086 
L 42.043564 156.849192 
L 42.081148 156.414114 
L 41.934986 156.021713 
L 41.713653 155.634625 
L 41.531994 155.220812 
L 41.412976 154.705506 
L 41.364951 154.272933 
L 41.358687 152.366019 
L 41.245933 151.551247 
L 41.028776 150.789799 
L 40.690514 149.956098 
L 40.498414 149.071495 
L 40.771948 147.531804 
L 40.746891 146.668223 
L 40.416981 145.847301 
L 39.364609 144.547495 
L 38.8948 143.825256 
L 38.234979 142.137012 
L 37.965057 141.652711 
L 37.796491 141.350248 
L 37.230632 140.972886 
L 37.053149 141.010355 
L 36.900722 141.133468 
L 36.754559 141.283342 
L 36.600045 141.409125 
L 36.439265 141.449268 
L 36.115619 141.403773 
L 35.963192 141.427859 
L 33.964939 142.321645 
L 32.492871 142.372485 
L 31.845579 142.714975 
L 31.697328 142.979857 
L 31.463467 143.632644 
L 31.304776 143.763728 
L 29.179152 143.407922 
L 28.588237 143.405247 
L 28.034906 143.581815 
L 26.861428 144.475275 
L 26.287217 144.737402 
L 25.717182 144.665185 
L 24.630358 143.621943 
L 24.20231 143.790479 
L 23.896412 144.373631 
L 23.724149 145.125222 
L 23.722061 146.018447 
L 23.657331 146.481052 
L 23.458968 146.657528 
L 23.104001 146.521161 
L 22.863876 146.253765 
L 22.692657 145.908807 
L 22.569738 145.488727 
L 22.283401 144.510048 
L 22.112182 144.183712 
L 21.88041 143.956336 
L 21.337519 143.64067 
L 21.105747 143.413273 
L 20.934528 143.078849 
L 20.83117 142.75511 
L 20.698579 142.447407 
L 20.429222 142.153067 
L 19.577302 141.674065 
L 19.316297 141.411801 
L 18.948802 140.798916 
L 17.926707 138.207506 
L 17.57174 137.588936 
L 17.290688 136.910398 
L 17.234522 136.774788 
L 17.089403 136.606053 
L 16.909832 136.517666 
L 16.620638 136.281961 
L 16.451507 136.043569 
L 15.946201 135.001494 
L 15.858504 134.535315 
L 15.960818 133.246439 
L 15.737397 132.509432 
L 15.284293 132.064504 
L 14.171368 131.292505 
L 13.826841 130.772423 
L 13.198341 129.286996 
L 12.910192 128.98665 
L 12.707652 129.131461 
L 12.513464 129.788435 
L 12.330761 130.013667 
L 11.630224 130.271065 
L 11.348338 130.458744 
L 11.074805 130.844808 
L 10.443173 132.131514 
L 10.072546 132.241407 
L 9.600649 131.480153 
L 9.496247 131.086086 
L 9.567241 129.777709 
L 9.604825 129.630231 
L 9.596473 129.493476 
L 9.481631 129.273588 
L 9.318764 129.169005 
L 8.953357 129.19314 
L 8.786314 129.01883 
L 8.663119 128.611196 
L 8.619271 128.224991 
L 8.538881 127.830715 
L 7.53349 126.277507 
L 7.235944 125.952866 
L 6.616841 125.665774 
L 5.871411 125.477949 
L 5.288848 125.150583 
L 5.174005 124.450178 
L 5.391161 124.160332 
L 6.13346 123.717486 
L 6.305723 123.435659 
L 6.192969 123.124292 
L 5.426658 121.765906 
L 4.89212 121.467881 
L 4.150866 121.459827 
L 3.511926 121.277245 
L 3.273889 120.45288 
L 3.361587 119.91309 
L 3.555775 119.711664 
L 3.846012 119.746579 
L 4.221859 119.907719 
L 4.4766 119.856692 
L 5.021578 119.271191 
L 5.29198 119.053629 
L 6.036366 118.913955 
L 6.299459 118.68295 
L 6.389244 118.094655 
L 6.376716 117.62183 
L 6.420565 117.213453 
L 6.589696 116.931335 
L 6.961367 116.858789 
L 7.535578 116.47186 
L 7.896809 115.474872 
L 8.166636 114.085548 
L 8.452227 112.614729 
L 8.820766 111.60101 
L 9.32294 110.796913 
L 9.930559 110.573685 
L 10.039138 110.210586 
L 9.976496 109.909333 
L 9.65285 109.310821 
L 9.496247 108.869635 
L 9.411682 108.433801 
L 9.387669 107.981794 
L 9.702963 105.099518 
L 10.256294 103.508482 
L 10.350255 102.784178 
L 10.177992 102.151358 
L 9.682083 101.572343 
L 9.137104 101.138722 
L 9.005558 100.855911 
L 8.88654 98.943255 
L 8.957533 98.487909 
L 9.228978 97.779233 
L 9.957704 96.404784 
L 10.577852 94.844044 
L 10.790832 94.490874 
L 11.076893 94.170039 
L 11.241848 94.081066 
L 11.381747 94.121508 
L 11.490325 94.264404 
L 11.575935 94.469306 
L 11.717921 94.639154 
L 11.893317 94.53401 
L 12.077064 94.337199 
L 12.237843 94.21857 
L 12.557313 94.110724 
L 12.70974 94.089154 
L 12.902884 94.156559 
L 13.043826 94.337199 
L 13.283951 94.914137 
L 13.369561 95.046232 
L 13.576276 95.035449 
L 13.672326 94.906049 
L 13.739144 94.72812 
L 13.86025 94.57445 
L 13.962564 94.488178 
L 14.05235 94.393816 
L 14.175544 94.299453 
L 14.379128 94.215874 
L 14.662057 93.967825 
L 14.998231 93.072618 
L 15.230004 92.738234 
L 15.392871 92.649242 
L 15.929497 92.535978 
L 16.18215 92.560249 
L 16.378426 92.6843 
L 16.547557 92.819135 
L 16.708336 92.886552 
L 17.155176 92.757111 
L 17.616633 92.387653 
L 18.031109 91.85905 
L 18.347447 91.257581 
L 18.577131 90.990545 
L 19.189971 90.67764 
L 19.368498 90.367419 
L 19.385203 89.725352 
L 19.477076 89.531102 
L 19.784018 89.460955 
L 19.930181 89.029264 
L 20.45815 88.623157 
L 20.544064 88.557071 
L 20.725724 88.136118 
L 20.694403 87.604494 
L 20.462631 87.493847 
L 20.124369 87.507341 
L 19.33509 87.156496 
L 17.846317 87.728634 
L 17.136384 87.412884 
L 16.745921 86.638293 
L 16.388866 84.818884 
L 16.136213 83.965707 
L 15.902353 83.606585 
L 15.334406 82.915293 
L 15.181979 82.491304 
L 15.152746 81.610838 
L 15.225828 80.74377 
L 16.020327 78.355417 
L 16.209294 77.020405 
L 16.325181 76.604178 
L 16.393042 76.196035 
L 16.313696 75.823011 
L 16.0861 75.249922 
L 16.084012 74.83089 
L 16.351281 73.844042 
L 16.420186 72.886809 
L 16.190502 68.634549 
L 16.071484 68.212437 
L 15.797951 67.814655 
L 15.46804 67.741591 
L 15.113074 67.798419 
L 14.776899 67.795713 
L 14.438637 67.636053 
L 14.37182 67.43309 
L 14.668321 66.618479 
L 14.799868 66.128587 
L 14.822836 65.806486 
L 14.728874 63.575765 
L 14.918886 63.204817 
L 15.433588 63.746341 
L 15.603763 63.38894 
L 15.607939 63.053184 
L 15.568266 62.714706 
L 15.601675 62.346424 
L 15.693549 62.205606 
L 16.002578 62.034996 
L 16.115333 61.913129 
L 16.142477 61.753345 
L 16.072528 61.458143 
L 16.102804 61.287516 
L 17.520583 58.49466 
L 17.798292 57.760386 
L 17.973688 56.977265 
L 17.326396 55.524625 
L 16.876423 54.947288 
L 16.502664 54.288585 
L 16.211382 53.562051 
L 16.015107 52.773089 
L 15.954354 52.001548 
L 15.891912 51.208489 
L 15.739485 50.381323 
L 15.44716 50.061282 
L 15.169451 50.112815 
L 14.916798 50.112815 
L 14.757063 49.969064 
L 14.774811 49.592046 
L 14.953339 49.13092 
L 15.142306 49.04683 
L 15.353198 49.12007 
L 15.599587 49.128208 
L 15.897132 48.894922 
L 16.276112 48.157045 
L 16.5225 47.883036 
L 16.796033 47.763663 
L 17.305515 47.636149 
L 17.586356 47.492355 
L 17.86511 47.429952 
L 18.534326 47.598166 
L 18.8444 47.619871 
L 19.109581 47.465223 
L 19.477076 46.995836 
L 19.784018 46.922577 
L 20.19745 46.596971 
L 20.419826 46.141102 
L 20.748692 45.085449 
L 21.732159 43.668652 
L 22.001516 43.440639 
L 22.260433 43.291341 
L 23.0518 42.55567 
L 23.365006 42.189168 
L 23.697004 41.551143 
L 23.689868 41.446597 
L 23.683267 41.349893 
L 23.665684 41.092278 
L 23.522653 40.61438 
L 23.519521 39.924637 
L 22.969322 39.832305 
L 22.65716 39.370629 
L 22.262521 38.191882 
L 22.108006 37.966434 
L 21.544235 37.319936 
L 21.373016 37.012969 
L 20.842654 35.391015 
L 20.769573 34.760624 
L 20.896943 33.290435 
L 20.849962 32.461475 
L 20.560769 32.034732 
L 20.159865 31.673208 
L 19.784018 31.037106 
L 19.25992 30.800594 
L 18.894513 30.411831 
L 18.564603 29.946924 
L 18.140731 29.481992 
L 16.49118 28.538456 
L 16.219735 28.057132 
L 16.232263 27.37725 
L 16.338753 26.713635 
L 16.718776 25.47058 
L 17.318043 24.27088 
L 17.462118 23.715862 
L 17.33266 22.981225 
L 17.015278 21.941747 
L 16.883731 21.737647 
L 16.136213 21.383862 
L 15.889824 21.215129 
L 15.647612 20.937529 
L 15.474304 20.619095 
L 15.181979 19.903258 
L 14.960647 19.595675 
L 14.454297 19.192808 
L 14.263242 18.819867 
L 14.208952 18.430577 
L 14.274726 18.182839 
L 14.379128 17.970486 
L 14.435505 17.687341 
L 14.405228 17.287111 
L 14.315442 16.935875 
L 14.024161 16.274207 
L 13.620125 15.906593 
L 12.530169 15.833069 
L 12.062448 15.541688 
L 11.945518 16.225193 
L 11.8787 17.003945 
L 11.701217 17.485867 
L 11.254377 17.27622 
L 11.147887 17.025727 
L 11.10195 16.707156 
L 11.020516 16.426694 
L 10.79814 16.293268 
L 10.525651 16.380404 
L 10.30223 16.579179 
L 10.07881 16.709879 
L 9.811541 16.595517 
L 9.565153 15.879362 
L 9.922207 13.978421 
L 9.913855 13.259339 
L 9.734284 13.150382 
L 9.441958 12.798987 
L 9.306236 12.692749 
L 9.071331 12.70637 
L 8.936653 12.8344 
L 8.813458 12.88888 
L 8.617183 12.679129 
L 8.521133 12.322268 
L 8.477284 10.78298 
L 8.788402 10.355204 
L 9.172601 10.101799 
L 9.565153 10.08 
L 9.920119 10.34703 
L 10.93073 11.646648 
L 12.175202 12.891604 
L 12.358949 12.986944 
L 12.902884 13.14221 
L 13.494843 13.444562 
L 13.570012 13.501763 
L 13.75376 13.420047 
L 14.031469 13.123142 
L 14.165104 13.0387 
L 14.446989 13.035976 
L 14.866685 13.199412 
L 15.108898 13.229376 
L 15.282205 13.158554 
L 15.601675 12.886156 
L 15.781246 12.842572 
L 16.142477 13.006012 
L 17.278371 14.049237 
L 17.65213 14.504079 
L 17.999788 15.481776 
L 18.243045 15.974671 
L 18.554163 16.257869 
L 18.944626 16.41308 
L 19.784018 16.489322 
L 20.412518 16.293268 
L 20.888591 15.933824 
L 21.37928 15.669679 
L 22.064157 15.762267 
L 22.680129 16.012794 
L 23.210776 16.133031 
L 23.220931 16.135332 
L 23.734589 16.048194 
L 24.269127 15.658786 
L 24.917463 15.427311 
L 25.470794 15.871192 
L 25.98654 16.543781 
L 26.510637 16.987608 
L 26.984622 17.238102 
L 27.556745 17.679173 
L 28.043258 18.210063 
L 28.262503 18.732755 
L 28.498451 18.953257 
L 28.830449 18.487747 
L 28.830449 18.30807 
L 29.129039 18.054883 
L 29.296082 17.785353 
L 29.367076 17.442304 
L 29.381692 16.96038 
L 29.523679 16.165286 
L 29.561263 15.70508 
L 29.185416 14.52859 
L 29.486094 13.866749 
L 29.962167 13.357399 
L 30.208555 12.995116 
L 30.536378 12.616475 
L 31.237959 12.946084 
L 31.864844 13.479087 
L 31.891515 13.501763 
L 32.083615 13.795932 
L 32.363412 13.997487 
L 33.048289 15.070557 
L 33.200716 15.184938 
L 33.549419 15.677848 
L 34.13407 16.023687 
L 36.098915 18.70281 
L 36.702358 18.985923 
L 36.829729 19.334358 
L 36.879842 19.805268 
L 36.980068 20.303372 
L 37.096998 20.512948 
L 37.545926 21.111711 
L 37.6378 21.177028 
L 38.003207 21.631513 
L 38.026176 21.740369 
L 40.043222 24.961884 
L 40.272906 25.503223 
L 40.880526 26.61028 
L 41.116474 27.510511 
L 41.143619 27.796063 
L 41.101858 28.097923 
L 40.922286 28.611876 
L 40.880526 28.87292 
L 41.035041 29.770198 
L 41.705301 31.711264 
L 41.897401 33.108343 
L 42.066532 33.681786 
L 42.110381 34.007897 
L 42.104117 34.2878 
L 41.694861 37.156946 
L 41.784647 37.724682 
L 42.173022 38.55856 
L 42.258632 39.04744 
L 42.214783 39.297301 
L 42.026859 39.886618 
L 41.985099 40.223351 
L 41.998626 40.364094 
L 42.018507 40.570933 
L 42.112469 40.934792 
L 42.246103 41.279628 
L 42.408971 41.578294 
L 42.58019 41.681467 
L 42.755585 41.667892 
L 42.822318 41.692872 
L 42.893396 41.719478 
L 42.949773 42.026273 
L 42.933068 42.531237 
L 42.987358 42.685978 
L 43.42167 43.345631 
L 43.613769 43.874944 
L 43.630474 44.447649 
L 43.363205 45.001317 
L 43.490575 45.242856 
L 43.526072 45.359552 
L 43.611681 45.508812 
L 43.743228 45.630932 
L 43.864334 45.818179 
L 43.916535 46.157384 
L 43.670146 46.393461 
L 43.546952 46.615965 
L 43.62421 47.302433 
L 43.363205 48.94375 
L 43.363205 50.10739 
L 43.319356 50.378611 
L 42.947685 51.449842 
L 42.761292 51.75629 
L 42.358858 52.417894 
L 42.258632 53.079465 
L 42.346329 53.616272 
L 42.615686 54.692488 
L 42.674152 55.334895 
L 42.826578 55.79566 
L 43.789165 56.855318 
L 43.895655 57.112758 
L 43.958296 57.343092 
L 44.054346 57.508386 
L 44.419753 57.624903 
L 44.580532 57.768515 
L 44.705814 57.971734 
L 44.755927 58.207461 
L 44.820656 58.806231 
L 45.000228 59.315555 
L 45.263321 59.700235 
L 45.582791 59.933201 
L 45.582791 60.095732 
L 45.463772 60.182413 
L 45.290465 60.355773 
L 45.169359 60.437034 
L 45.616199 61.504184 
L 45.745658 61.704597 
L 45.879292 61.685639 
L 46.136121 61.398559 
L 46.28646 61.33085 
L 46.451415 61.357934 
L 47.324216 61.734388 
L 47.812817 62.062077 
L 48.190752 62.498071 
L 48.343179 63.036937 
L 48.428789 63.234602 
L 48.806724 63.635332 
L 48.980031 64.34468 
L 49.170043 64.62082 
L 49.360054 64.829273 
L 49.445664 65.021477 
L 49.491601 65.178485 
L 49.587651 65.413992 
L 49.687876 65.722575 
L 49.733813 66.104227 
L 49.733813 67.460152 
z
" clip-path="url(#p71f778a178)" style="stroke: #000000; stroke-linejoin: miter"/>
   </g>
   <g id="line2d_1">
    <path d="M 49.767222 67.687469 
L 43.436286 67.595461 
L 42.738881 67.811949 
L 42.544693 68.147494 
L 42.546781 68.623726 
L 42.682504 69.760065 
L 42.642831 70.817787 
L 42.490404 71.851018 
L 41.669805 74.422648 
L 37.95727 81.559519 
L 37.527134 82.880187 
L 37.462905 84.200636 
L 40.26873 96.792892 
L 41.377479 109.082161 
L 41.245933 111.286375 
L 41.296045 113.418601 
L 42.0526 115.443985 
L 42.632391 116.281073 
L 43.438374 117.893171 
L 43.764108 117.973765 
L 46.349101 117.917349 
L 47.040242 118.051672 
L 47.732433 118.372775 
L 48.349443 118.852176 
L 52.180996 123.255819 
L 59.689586 134.484409 
L 61.044723 137.744254 
L 66.379665 146.162848 
L 67.59908 147.780428 
L 67.71601 148.221508 
L 67.922726 153.629354 
L 68.05636 153.859021 
L 68.751677 153.893738 
L 66.325375 161.251477 
L 66.413856 162.272996 
L 67.463357 167.579345 
L 66.780568 179.902157 
L 66.444394 181.924422 
L 66.536267 183.11191 
L 66.344168 183.667042 
L 66.039314 184.091983 
L 64.362618 185.47546 
L 64.176783 185.4967 
L 63.585868 185.422358 
L 61.658607 186.136532 
L 61.170006 186.19759 
L 61.06978 186.348906 
L 60.87768 186.983324 
L 60.625028 186.970053 
L 60.182363 186.611708 
L 60.0362 186.181662 
L 59.702114 185.905564 
L 58.887779 185.738306 
L 58.430498 185.884325 
L 58.050475 186.2029 
L 56.525968 187.942657 
L 56.081453 188.591585 
L 55.709782 189.554711 
L 55.617909 191.013649 
L 55.860121 191.735008 
L 55.780776 191.994885 
L 55.275347 192.82851 
L 55.196125 193.17477 
L 55.202389 194.195351 
L 55.091723 194.653883 
L 54.814013 195.011668 
L 53.147758 196.381621 
L 53.479756 197.520759 
L 54.003854 198.633157 
L 55.079195 199.18132 
L 55.325583 199.634105 
L 55.553179 199.774434 
L 56.102334 200.560732 
L 56.242233 202.762768 
L 56.647312 203.760245 
L 56.749626 204.397785 
L 56.244321 204.921512 
L 56.196296 205.461052 
L 56.177503 206.550531 
L 55.956171 206.793779 
L 56.058485 207.074029 
L 56.833148 207.766655 
L 56.490709 208.979836 
L 56.695337 210.459563 
L 56.53247 211.23624 
L 56.374783 211.5275 
L 55.225357 211.68 
L 53.187431 211.595477 
L 52.124619 211.392089 
L 51.815589 211.027553 
L 51.87823 210.369735 
L 51.220497 209.138399 
L 51.379188 208.340244 
L 51.817677 207.896181 
L 52.773999 207.203574 
L 53.009947 206.502937 
L 53.057972 204.752233 
L 52.872137 203.958659 
L 52.416944 203.54595 
L 50.573205 203.477162 
L 49.978114 202.900363 
L 49.433136 202.061503 
L 49.019704 201.751857 
L 48.572863 201.587764 
L 48.48099 201.394549 
L 48.330651 200.687799 
L 47.652038 200.213929 
L 47.343008 199.988891 
L 47.144644 199.597037 
L 46.835614 198.691419 
L 45.691369 197.375069 
L 45.069133 196.164361 
L 43.511455 195.144175 
L 43.020766 193.964744 
L 42.114557 193.052817 
L 41.897401 192.655124 
L 41.331542 190.878383 
L 40.880526 190.305453 
L 39.289439 190.111809 
L 38.8948 189.615729 
L 38.061672 187.370839 
L 38.143106 186.497564 
L 38.541921 184.838203 
L 38.452136 184.115885 
L 38.111785 183.531584 
L 36.132324 181.127301 
L 35.20941 180.462941 
L 34.990166 179.747997 
L 34.952581 178.83092 
L 35.054895 177.932298 
L 35.272051 177.286153 
L 36.205405 176.179814 
L 37.192928 175.644316 
L 38.441695 173.495464 
L 38.68182 172.678453 
L 38.746549 171.65369 
L 38.56489 169.230753 
L 38.817543 168.799304 
L 39.180861 168.567586 
L 39.577589 167.776475 
L 39.984757 167.467458 
L 40.118391 167.147766 
L 40.312579 166.175258 
L 40.79074 165.583676 
L 41.325278 165.157271 
L 41.696949 164.488282 
L 41.776295 163.813881 
L 41.404624 159.568344 
L 41.590459 159.285549 
L 41.364951 158.303661 
L 41.483969 157.940746 
L 42.043564 156.849192 
L 42.081148 156.414114 
L 41.364951 154.272933 
L 41.245933 151.551247 
L 40.498414 149.071495 
L 40.771948 147.531804 
L 40.746891 146.668223 
L 40.416981 145.847301 
L 38.8948 143.825256 
L 37.965057 141.652711 
L 37.796491 141.350248 
L 37.230632 140.972886 
L 36.900722 141.133468 
L 36.439265 141.449268 
L 35.963192 141.427859 
L 33.964939 142.321645 
L 32.492871 142.372485 
L 31.845579 142.714975 
L 31.697328 142.979857 
L 31.304776 143.763728 
L 28.588237 143.405247 
L 28.034906 143.581815 
L 26.861428 144.475275 
L 26.287217 144.737402 
L 25.717182 144.665185 
L 24.630358 143.621943 
L 24.20231 143.790479 
L 23.896412 144.373631 
L 23.724149 145.125222 
L 23.657331 146.481052 
L 23.458968 146.657528 
L 23.104001 146.521161 
L 22.692657 145.908807 
L 22.112182 144.183712 
L 21.88041 143.956336 
L 21.105747 143.413273 
L 20.429222 142.153067 
L 19.316297 141.411801 
L 18.948802 140.798916 
L 17.57174 137.588936 
L 17.089403 136.606053 
L 16.620638 136.281961 
L 16.451507 136.043569 
L 15.946201 135.001494 
L 15.858504 134.535315 
L 15.960818 133.246439 
L 15.737397 132.509432 
L 15.284293 132.064504 
L 14.171368 131.292505 
L 13.826841 130.772423 
L 13.198341 129.286996 
L 12.910192 128.98665 
L 12.707652 129.131461 
L 12.513464 129.788435 
L 12.330761 130.013667 
L 11.348338 130.458744 
L 11.074805 130.844808 
L 10.443173 132.131514 
L 10.072546 132.241407 
L 9.600649 131.480153 
L 9.496247 131.086086 
L 9.596473 129.493476 
L 9.318764 129.169005 
L 8.953357 129.19314 
L 8.786314 129.01883 
L 8.538881 127.830715 
L 7.235944 125.952866 
L 6.616841 125.665774 
L 5.871411 125.477949 
L 5.288848 125.150583 
L 5.174005 124.450178 
L 5.391161 124.160332 
L 6.13346 123.717486 
L 6.305723 123.435659 
L 6.192969 123.124292 
L 5.426658 121.765906 
L 4.89212 121.467881 
L 4.150866 121.459827 
L 3.511926 121.277245 
L 3.273889 120.45288 
L 3.361587 119.91309 
L 3.555775 119.711664 
L 3.846012 119.746579 
L 4.221859 119.907719 
L 4.4766 119.856692 
L 5.29198 119.053629 
L 6.036366 118.913955 
L 6.299459 118.68295 
L 6.589696 116.931335 
L 6.961367 116.858789 
L 7.535578 116.47186 
L 7.896809 115.474872 
L 8.452227 112.614729 
L 8.820766 111.60101 
L 9.32294 110.796913 
L 9.930559 110.573685 
L 10.039138 110.210586 
L 9.976496 109.909333 
L 9.496247 108.869635 
L 9.387669 107.981794 
L 9.702963 105.099518 
L 10.256294 103.508482 
L 10.350255 102.784178 
L 10.177992 102.151358 
L 9.682083 101.572343 
L 9.137104 101.138722 
L 9.005558 100.855911 
L 8.957533 98.487909 
L 9.228978 97.779233 
L 9.957704 96.404784 
L 10.790832 94.490874 
L 11.241848 94.081066 
L 11.490325 94.264404 
L 11.717921 94.639154 
L 12.70974 94.089154 
L 12.902884 94.156559 
L 13.043826 94.337199 
L 13.369561 95.046232 
L 13.576276 95.035449 
L 14.175544 94.299453 
L 14.379128 94.215874 
L 14.662057 93.967825 
L 15.230004 92.738234 
L 15.392871 92.649242 
L 16.18215 92.560249 
L 16.708336 92.886552 
L 17.155176 92.757111 
L 17.616633 92.387653 
L 18.031109 91.85905 
L 18.577131 90.990545 
L 19.189971 90.67764 
L 19.368498 90.367419 
L 19.477076 89.531102 
L 19.784018 89.460955 
L 19.930181 89.029264 
L 20.544064 88.557071 
L 20.725724 88.136118 
L 20.694403 87.604494 
L 20.462631 87.493847 
L 20.124369 87.507341 
L 19.33509 87.156496 
L 17.846317 87.728634 
L 17.136384 87.412884 
L 16.745921 86.638293 
L 16.136213 83.965707 
L 15.181979 82.491304 
L 15.225828 80.74377 
L 16.020327 78.355417 
L 16.313696 75.823011 
L 16.0861 75.249922 
L 16.084012 74.83089 
L 16.351281 73.844042 
L 16.420186 72.886809 
L 16.071484 68.212437 
L 15.797951 67.814655 
L 15.46804 67.741591 
L 14.776899 67.795713 
L 14.438637 67.636053 
L 14.37182 67.43309 
L 14.799868 66.128587 
L 14.822836 65.806486 
L 14.728874 63.575765 
L 14.918886 63.204817 
L 15.433588 63.746341 
L 15.603763 63.38894 
L 15.693549 62.205606 
L 16.115333 61.913129 
L 16.142477 61.753345 
L 16.102804 61.287516 
L 17.798292 57.760386 
L 17.973688 56.977265 
L 17.326396 55.524625 
L 16.502664 54.288585 
L 16.211382 53.562051 
L 16.015107 52.773089 
L 15.739485 50.381323 
L 15.44716 50.061282 
L 14.916798 50.112815 
L 14.757063 49.969064 
L 14.774811 49.592046 
L 14.953339 49.13092 
L 15.142306 49.04683 
L 15.599587 49.128208 
L 15.897132 48.894922 
L 16.5225 47.883036 
L 17.586356 47.492355 
L 17.86511 47.429952 
L 18.8444 47.619871 
L 19.109581 47.465223 
L 19.477076 46.995836 
L 19.784018 46.922577 
L 20.19745 46.596971 
L 20.419826 46.141102 
L 20.748692 45.085449 
L 22.001516 43.440639 
L 22.260433 43.291341 
L 23.365006 42.189168 
L 23.683267 41.349893 
L 23.519521 39.924637 
L 22.969322 39.832305 
L 22.65716 39.370629 
L 22.108006 37.966434 
L 21.373016 37.012969 
L 20.842654 35.391015 
L 20.769573 34.760624 
L 20.896943 33.290435 
L 20.849962 32.461475 
L 20.560769 32.034732 
L 20.159865 31.673208 
L 19.784018 31.037106 
L 19.25992 30.800594 
L 18.140731 29.481992 
L 16.49118 28.538456 
L 16.219735 28.057132 
L 16.338753 26.713635 
L 16.718776 25.47058 
L 17.318043 24.27088 
L 17.462118 23.715862 
L 17.33266 22.981225 
L 16.883731 21.737647 
L 15.889824 21.215129 
L 15.474304 20.619095 
L 14.960647 19.595675 
L 14.454297 19.192808 
L 14.263242 18.819867 
L 14.274726 18.182839 
L 14.435505 17.687341 
L 14.315442 16.935875 
L 14.024161 16.274207 
L 13.620125 15.906593 
L 12.530169 15.833069 
L 12.062448 15.541688 
L 11.701217 17.485867 
L 11.254377 17.27622 
L 11.10195 16.707156 
L 11.020516 16.426694 
L 10.79814 16.293268 
L 10.525651 16.380404 
L 10.07881 16.709879 
L 9.811541 16.595517 
L 9.565153 15.879362 
L 9.922207 13.978421 
L 9.913855 13.259339 
L 9.734284 13.150382 
L 9.306236 12.692749 
L 9.071331 12.70637 
L 8.813458 12.88888 
L 8.617183 12.679129 
L 8.521133 12.322268 
L 8.477284 10.78298 
L 8.788402 10.355204 
L 9.172601 10.101799 
L 9.565153 10.08 
L 9.920119 10.34703 
L 10.93073 11.646648 
L 12.358949 12.986944 
L 12.902884 13.14221 
L 13.570012 13.501763 
L 13.75376 13.420047 
L 14.165104 13.0387 
L 14.446989 13.035976 
L 15.108898 13.229376 
L 15.282205 13.158554 
L 15.781246 12.842572 
L 16.142477 13.006012 
L 17.65213 14.504079 
L 18.243045 15.974671 
L 18.554163 16.257869 
L 18.944626 16.41308 
L 19.784018 16.489322 
L 20.412518 16.293268 
L 21.37928 15.669679 
L 22.064157 15.762267 
L 23.220931 16.135332 
L 23.734589 16.048194 
L 24.269127 15.658786 
L 24.917463 15.427311 
L 25.470794 15.871192 
L 25.98654 16.543781 
L 26.510637 16.987608 
L 26.984622 17.238102 
L 27.556745 17.679173 
L 28.043258 18.210063 
L 28.262503 18.732755 
L 28.498451 18.953257 
L 29.296082 17.785353 
L 29.523679 16.165286 
L 29.561263 15.70508 
L 29.185416 14.52859 
L 29.486094 13.866749 
L 30.536378 12.616475 
L 31.237959 12.946084 
L 32.363412 13.997487 
L 33.549419 15.677848 
L 34.13407 16.023687 
L 36.098915 18.70281 
L 36.702358 18.985923 
L 36.829729 19.334358 
L 36.980068 20.303372 
L 37.545926 21.111711 
L 37.6378 21.177028 
L 38.026176 21.740369 
L 40.272906 25.503223 
L 40.880526 26.61028 
L 41.143619 27.796063 
L 40.922286 28.611876 
L 40.880526 28.87292 
L 41.035041 29.770198 
L 41.705301 31.711264 
L 42.104117 34.2878 
L 41.694861 37.156946 
L 41.784647 37.724682 
L 42.173022 38.55856 
L 42.214783 39.297301 
L 41.985099 40.223351 
L 42.112469 40.934792 
L 42.408971 41.578294 
L 42.755585 41.667892 
L 42.893396 41.719478 
L 42.987358 42.685978 
L 43.42167 43.345631 
L 43.613769 43.874944 
L 43.630474 44.447649 
L 43.363205 45.001317 
L 43.916535 46.157384 
L 43.546952 46.615965 
L 43.62421 47.302433 
L 43.363205 48.94375 
L 43.319356 50.378611 
L 42.761292 51.75629 
L 42.358858 52.417894 
L 42.258632 53.079465 
L 42.674152 55.334895 
L 42.826578 55.79566 
L 43.895655 57.112758 
L 44.054346 57.508386 
L 44.580532 57.768515 
L 44.755927 58.207461 
L 44.820656 58.806231 
L 45.000228 59.315555 
L 45.263321 59.700235 
L 45.582791 59.933201 
L 45.582791 60.095732 
L 45.169359 60.437034 
L 45.745658 61.704597 
L 45.879292 61.685639 
L 46.28646 61.33085 
L 46.451415 61.357934 
L 47.812817 62.062077 
L 48.190752 62.498071 
L 48.428789 63.234602 
L 48.806724 63.635332 
L 48.980031 64.34468 
L 49.587651 65.413992 
L 49.733813 66.104227 
L 49.767222 67.687469 
L 49.767222 67.687469 
" clip-path="url(#p71f778a178)" style="fill: none; stroke: #000000; stroke-width: 0.5; stroke-linecap: square"/>
   </g>
  </g>
 </g>
 <defs>
  <clipPath id="p71f778a178">
   <rect x="0" y="-0" width="72.025567" height="221.76"/>
  </clipPath>
 </defs>
</svg>
