<?xml version="1.0" encoding="utf-8" standalone="no"?>
<!DOCTYPE svg PUBLIC "-//W3C//DTD SVG 1.1//EN"
  "http://www.w3.org/Graphics/SVG/1.1/DTD/svg11.dtd">
<svg xmlns:xlink="http://www.w3.org/1999/xlink" width="223.2pt" height="186.405722pt" viewBox="0 0 223.2 186.405722" xmlns="http://www.w3.org/2000/svg" version="1.1">
 <metadata>
  <rdf:RDF xmlns:dc="http://purl.org/dc/elements/1.1/" xmlns:cc="http://creativecommons.org/ns#" xmlns:rdf="http://www.w3.org/1999/02/22-rdf-syntax-ns#">
   <cc:Work>
    <dc:type rdf:resource="http://purl.org/dc/dcmitype/StillImage"/>
    <dc:date>2026-04-26T19:21:47.046924</dc:date>
    <dc:format>image/svg+xml</dc:format>
    <dc:creator>
     <cc:Agent>
      <dc:title>Matplotlib v3.10.9, https://matplotlib.org/</dc:title>
     </cc:Agent>
    </dc:creator>
   </cc:Work>
  </rdf:RDF>
 </metadata>
 <defs>
  <style type="text/css">*{stroke-linejoin: round; stroke-linecap: butt}</style>
 </defs>
 <g id="figure_1">
  <g id="patch_1">
   <path d="M 0 186.405722 
L 223.2 186.405722 
L 223.2 0 
L 0 0 
z
" style="fill: #ffffff"/>
  </g>
  <g id="axes_1">
   <g id="patch_2">
    <path d="M 127.061358 66.450784 
L 127.408563 66.464172 
L 127.728668 66.408388 
L 127.962396 66.205334 
L 128.158863 65.292737 
L 128.402752 65.047302 
L 128.688984 65.085233 
L 128.921018 65.469005 
L 128.985378 65.660894 
L 129.095467 65.712214 
L 129.54768 65.672051 
L 129.747534 65.717792 
L 129.95755 65.828241 
L 130.121837 65.978854 
L 130.345403 66.515494 
L 130.712931 66.680617 
L 131.143126 66.689542 
L 131.478474 66.608096 
L 131.725752 66.386074 
L 132.416773 65.469005 
L 132.508231 65.303893 
L 133.338134 64.345601 
L 134.00375 63.228959 
L 134.262883 63.052712 
L 134.68461 62.959011 
L 135.086012 62.719185 
L 135.416279 62.412436 
L 135.611052 62.100114 
L 135.736385 61.662873 
L 135.878654 60.550856 
L 135.90914 59.554895 
L 135.954869 59.291694 
L 136.178435 58.730732 
L 136.35119 58.496538 
L 136.534108 58.334835 
L 136.615404 58.128526 
L 136.478216 57.761636 
L 135.690655 58.24562 
L 134.920031 58.218855 
L 134.212073 57.830776 
L 132.357494 55.719907 
L 132.30499 55.464569 
L 132.352413 55.230419 
L 132.338864 55.056481 
L 132.118685 54.989582 
L 132.027227 55.050906 
L 131.620743 55.515859 
L 131.50388 55.181359 
L 131.566546 54.791117 
L 131.691878 54.368551 
L 131.829066 53.47328 
L 131.976416 53.109833 
L 132.123766 52.824432 
L 132.18982 52.615959 
L 132.43371 52.324993 
L 133.517664 51.49114 
L 133.764942 50.933775 
L 133.998669 50.522451 
L 135.468783 49.139184 
L 136.198759 47.058371 
L 136.606936 46.520099 
L 136.898249 47.148641 
L 136.180129 48.911809 
L 136.606936 49.699834 
L 136.715331 49.415605 
L 136.80679 48.671062 
L 136.905023 48.375706 
L 137.616369 49.181539 
L 138.048257 49.435668 
L 139.885899 49.606205 
L 140.487155 49.558276 
L 141.037601 49.326437 
L 141.681199 48.596386 
L 142.216402 47.518646 
L 142.62966 46.316162 
L 142.885406 45.211828 
L 143.042918 44.010629 
L 143.164863 43.481373 
L 143.388428 43.036811 
L 143.693291 42.712589 
L 145.563113 41.341127 
L 145.888299 40.866546 
L 146.025487 40.240478 
L 146.08646 38.977277 
L 146.213486 38.447075 
L 147.488826 35.733975 
L 147.783527 34.549094 
L 147.45834 33.742893 
L 146.990885 33.956688 
L 146.828291 33.600365 
L 147.036614 33.088165 
L 147.67005 32.825391 
L 148.037578 32.518085 
L 149.021606 30.584206 
L 149.46535 30.057638 
L 149.729564 29.886201 
L 150.080156 29.819408 
L 150.325739 29.929617 
L 150.637376 30.119979 
L 150.898203 30.183434 
L 151.009986 29.912918 
L 150.923608 29.002332 
L 150.669556 28.926638 
L 150.271542 29.178211 
L 149.744807 29.260585 
L 149.744807 29.089158 
L 150.31219 28.699558 
L 150.63907 28.232051 
L 150.725448 28.138551 
L 150.877879 28.105159 
L 151.294524 28.138551 
L 151.490991 27.973816 
L 151.533333 27.882544 
L 151.531639 27.728941 
L 151.711169 26.856333 
L 151.767061 26.682708 
L 151.873762 26.456776 
L 152.066842 26.162958 
L 153.912952 24.323396 
L 154.226283 23.911669 
L 154.60228 23.532223 
L 154.99352 23.299665 
L 155.303463 23.001461 
L 155.427102 22.417312 
L 155.43874 21.993001 
L 155.440651 21.923308 
L 155.511786 21.401507 
L 155.667604 20.989866 
L 155.943674 20.822987 
L 156.309509 20.453637 
L 157.600093 18.192138 
L 157.913423 17.801725 
L 158.130214 17.421333 
L 158.255547 16.938629 
L 158.296195 16.242408 
L 158.262321 15.316023 
L 158.296195 15.036896 
L 158.382573 14.821161 
L 158.636624 14.367461 
L 158.723002 14.087242 
L 158.687435 13.039809 
L 158.758569 12.58061 
L 159.34797 12.217042 
L 159.520725 11.790113 
L 159.718886 10.712845 
L 159.744291 10.112548 
L 159.793408 9.875771 
L 159.942451 9.779061 
L 160.028829 9.684575 
L 160.252395 9.246612 
L 160.365871 8.918705 
L 160.545401 8.691954 
L 160.770661 8.518559 
L 161.009469 8.472987 
L 161.075523 8.581915 
L 161.29062 9.20215 
L 162.147622 9.932464 
L 162.274648 10.238163 
L 162.559186 12.2037 
L 162.173027 11.913521 
L 161.949462 11.823466 
L 161.847841 11.933533 
L 161.71404 12.787414 
L 161.705572 12.950859 
L 161.94438 13.224383 
L 162.274648 13.373377 
L 162.571042 13.615776 
L 162.701455 14.180648 
L 162.618465 15.255971 
L 162.394899 15.973272 
L 161.705572 17.276743 
L 161.329575 18.228844 
L 161.033181 19.410165 
L 161.146657 20.364639 
L 161.99011 20.634974 
L 162.427079 20.353514 
L 162.750572 19.847346 
L 163.001236 19.360107 
L 163.209559 19.143191 
L 163.494097 18.985234 
L 164.418846 17.818409 
L 165.098012 17.181091 
L 165.231812 16.845204 
L 165.313109 15.899872 
L 165.41473 15.784212 
L 165.551918 15.730831 
L 165.697574 15.579586 
L 165.982112 14.834505 
L 166.7358 13.828156 
L 166.847582 13.424525 
L 166.720557 12.859685 
L 166.253101 11.663371 
L 166.278506 11.085265 
L 166.44618 10.771764 
L 166.612161 10.739525 
L 166.805241 10.832908 
L 167.060986 10.898498 
L 167.238822 10.807339 
L 167.37601 10.611682 
L 167.431902 10.412693 
L 167.350605 10.322649 
L 167.193093 10.193697 
L 167.152445 9.905785 
L 167.193093 9.595647 
L 167.27439 9.405566 
L 167.492874 9.348876 
L 167.741845 9.433356 
L 167.977267 9.551184 
L 168.138166 9.592313 
L 168.321084 9.458922 
L 168.636108 9.10211 
L 168.769909 9.118783 
L 168.932502 9.238831 
L 169.46093 9.535621 
L 169.631992 9.592313 
L 169.701432 9.700137 
L 170.778613 10.556098 
L 170.89717 10.685053 
L 170.981854 10.898498 
L 170.998791 11.366533 
L 170.866684 12.679564 
L 170.775225 12.950859 
L 170.4873 13.153221 
L 170.395841 13.628007 
L 170.436489 14.189544 
L 170.555047 14.647686 
L 171.303653 15.933235 
L 171.420517 16.427026 
L 171.476408 18.124288 
L 171.562786 18.565878 
L 171.801595 19.143191 
L 172.072584 19.347871 
L 172.912649 19.312274 
L 173.234448 19.447987 
L 173.513905 19.767251 
L 173.966117 20.448075 
L 174.484383 21.076643 
L 174.846831 21.419308 
L 175.185566 21.569505 
L 175.525996 21.462698 
L 175.754643 21.162309 
L 176.252585 20.075397 
L 176.577771 19.561452 
L 176.750526 19.56034 
L 176.818273 19.979726 
L 176.831823 20.728424 
L 176.918201 20.748449 
L 177.400899 21.382594 
L 177.319603 21.345879 
L 177.265405 21.469374 
L 177.243387 21.646273 
L 177.25863 21.773108 
L 177.334846 21.822062 
L 177.600753 21.913295 
L 177.685437 21.960024 
L 177.997074 22.333864 
L 178.198622 22.467381 
L 178.467917 22.518563 
L 178.75923 22.327189 
L 178.981102 22.276007 
L 179.184344 22.417312 
L 179.683979 23.171703 
L 179.905851 23.605663 
L 180.114174 24.199876 
L 180.256443 24.199876 
L 180.332658 23.962856 
L 180.434279 23.860482 
L 180.551143 23.882737 
L 180.679863 24.01293 
L 180.774709 24.20544 
L 180.800114 24.410194 
L 180.79842 24.653899 
L 180.825519 24.964378 
L 180.893266 25.218108 
L 181.084652 25.69442 
L 181.123607 25.881388 
L 181.044004 26.136248 
L 180.900041 26.382208 
L 180.805195 26.633737 
L 181.018599 27.363864 
L 180.825519 29.174871 
L 180.690025 29.581182 
L 180.378388 29.62905 
L 179.687366 29.462071 
L 179.301208 29.632389 
L 178.925211 29.964127 
L 178.322261 30.669928 
L 178.13765 31.135286 
L 178.247739 31.572824 
L 178.69487 32.266455 
L 179.031913 33.333128 
L 179.335081 33.503491 
L 179.402828 33.658267 
L 179.433315 33.927736 
L 179.487512 34.134853 
L 179.494287 34.362016 
L 179.402828 34.693858 
L 179.230073 34.925484 
L 179.036994 35.00789 
L 178.881175 35.127046 
L 178.82359 35.457792 
L 178.960778 35.907706 
L 179.257172 36.007936 
L 179.551872 36.181671 
L 179.687366 36.851011 
L 179.565422 37.297625 
L 179.267334 37.679652 
L 178.539052 38.261064 
L 175.900299 39.43175 
L 175.39897 40.146904 
L 175.768192 40.0589 
L 176.960543 39.383852 
L 177.492358 39.20674 
L 178.965859 39.196715 
L 180.358064 38.968366 
L 181.389514 39.117628 
L 181.757043 39.066389 
L 181.882375 38.754501 
L 181.702845 38.07394 
L 181.923023 37.900185 
L 182.139814 37.916892 
L 182.385398 38.013794 
L 182.685179 38.07394 
L 183.054401 38.040526 
L 184.041816 37.789918 
L 184.246752 37.607255 
L 184.375471 37.261984 
L 184.663397 36.918949 
L 185.229086 36.393272 
L 185.906557 35.241748 
L 186.27578 34.994527 
L 186.360464 34.859782 
L 186.509507 34.780718 
L 186.805901 34.879827 
L 187.515553 35.831977 
L 187.562976 36.102599 
L 187.547733 36.403296 
L 187.573138 36.649426 
L 187.932198 36.894446 
L 187.986396 37.22523 
L 187.954216 37.786576 
L 188.060918 38.421457 
L 188.931469 39.959758 
L 189.046639 40.097889 
L 189.060189 40.273897 
L 188.452158 41.362294 
L 188.142214 41.602932 
L 187.67984 41.777843 
L 187.19206 41.811265 
L 186.805901 41.626327 
L 186.45531 41.777843 
L 185.164726 41.626327 
L 184.814134 41.776728 
L 184.590568 42.109844 
L 184.54992 42.444081 
L 184.743 42.593375 
L 184.832765 42.798379 
L 185.456039 44.924334 
L 185.628794 45.113767 
L 185.72364 45.139397 
L 185.842198 45.075881 
L 186.094556 45.006793 
L 186.414661 44.873076 
L 187.242871 44.370534 
L 187.593462 44.260222 
L 187.761136 44.307021 
L 187.903406 44.543246 
L 188.096485 44.634617 
L 188.257385 44.587817 
L 188.457239 44.474161 
L 188.67403 44.417333 
L 188.878965 44.541018 
L 189.092368 44.93882 
L 189.2448 45.045794 
L 189.446347 44.924334 
L 189.608941 44.621246 
L 189.610634 44.376105 
L 189.517482 44.089741 
L 189.656364 43.608393 
L 189.747822 43.420092 
L 189.879929 43.223993 
L 189.935821 42.998929 
L 189.771534 42.495331 
L 189.80202 42.204544 
L 190.123819 41.882567 
L 191.053649 41.762245 
L 191.912345 41.260915 
L 192.359476 41.387917 
L 193.443431 42.137697 
L 193.545052 42.181147 
L 193.65006 42.067508 
L 193.878707 41.728823 
L 194.056543 41.646381 
L 194.266559 41.753333 
L 194.457945 41.91599 
L 194.588358 41.998433 
L 195.001616 42.129898 
L 197.132265 43.75547 
L 197.862241 44.541018 
L 198.148473 44.768332 
L 198.51092 44.988964 
L 198.817476 45.253058 
L 198.93434 45.604075 
L 198.858124 45.874865 
L 198.705693 46.031992 
L 198.56173 46.132287 
L 198.493983 46.232582 
L 198.290742 47.787238 
L 198.15186 48.37682 
L 198.085806 48.956392 
L 198.222994 49.529296 
L 198.365264 49.529296 
L 198.571892 48.833788 
L 198.700612 48.522826 
L 198.858124 48.288772 
L 198.954664 48.013484 
L 198.92079 47.282377 
L 199.005474 46.98816 
L 199.547452 46.497811 
L 200.004745 46.503383 
L 200.404454 46.870029 
L 201.3834 48.437006 
L 201.784802 48.929642 
L 202.145556 49.139184 
L 202.694308 49.271821 
L 203.105872 49.634071 
L 203.375167 50.175787 
L 203.507274 50.840139 
L 203.663093 50.68854 
L 203.751164 50.552547 
L 203.786731 50.36974 
L 203.778263 50.091073 
L 204.760597 51.067541 
L 205.143369 51.212455 
L 205.576951 51.473304 
L 205.929236 52.048524 
L 206.007145 52.628222 
L 205.637923 52.896897 
L 205.864876 53.141049 
L 206.190063 53.29267 
L 206.528798 53.29713 
L 206.776076 53.100914 
L 206.835354 52.729671 
L 206.71341 52.443162 
L 206.660905 52.204594 
L 206.931894 51.979407 
L 207.439998 51.997244 
L 208.425719 52.679504 
L 209.050687 52.709604 
L 210.676619 51.692911 
L 211.206741 51.589238 
L 211.530234 51.792125 
L 211.83679 52.214628 
L 212.331344 53.100914 
L 212.781863 53.686223 
L 212.974943 54.044107 
L 213.054545 54.496769 
L 213.008816 55.091045 
L 212.812349 55.999781 
L 212.770007 56.468105 
L 212.871628 57.741563 
L 212.825899 58.430741 
L 212.348281 58.97162 
L 211.337154 60.415902 
L 210.512333 61.031569 
L 206.708329 62.847464 
L 202.826415 64.325521 
L 202.079503 64.927933 
L 201.591723 65.205719 
L 201.075151 65.40653 
L 200.638181 65.469005 
L 200.312995 65.368599 
L 199.659235 65.002678 
L 199.063059 64.881078 
L 198.629478 64.71374 
L 198.365264 64.720434 
L 198.114599 64.835339 
L 197.501487 65.469005 
L 197.049275 65.832704 
L 196.847727 65.821547 
L 196.576738 65.570528 
L 196.459874 65.368599 
L 196.083877 64.525208 
L 195.370838 63.427518 
L 194.717078 62.988014 
L 194.28519 62.816231 
L 194.090417 62.959011 
L 193.888869 62.878697 
L 193.443431 63.2535 
L 192.799833 63.971892 
L 192.630465 63.816833 
L 192.525457 63.917231 
L 192.484808 64.190539 
L 192.516988 64.54975 
L 191.714184 64.295401 
L 190.970659 64.879963 
L 189.80202 66.608096 
L 189.449735 66.950618 
L 189.29561 67.1693 
L 189.234638 67.459392 
L 189.26343 67.791887 
L 189.348114 67.907927 
L 189.488689 67.967063 
L 190.022199 68.423421 
L 190.159387 68.582982 
L 190.281331 68.827346 
L 190.513366 69.620716 
L 191.013001 70.625027 
L 191.583771 71.51556 
L 192.23245 72.302343 
L 192.953958 72.994292 
L 193.223253 73.32465 
L 193.396008 73.497644 
L 193.5857 73.571307 
L 193.777086 73.578003 
L 194.214055 73.655014 
L 194.374955 73.74207 
L 194.473188 73.906139 
L 194.639169 74.408398 
L 194.732321 74.601492 
L 194.864428 74.751057 
L 195.011778 74.870487 
L 195.370838 75.068051 
L 195.421649 74.602608 
L 195.70788 74.502154 
L 196.078796 74.637209 
L 196.376884 74.880533 
L 196.60045 75.252222 
L 196.642792 75.594895 
L 196.53609 75.934227 
L 196.305749 76.286958 
L 196.224453 76.635231 
L 196.40737 76.939975 
L 196.661422 77.202303 
L 196.790142 77.427797 
L 196.962897 77.589663 
L 197.345668 77.33626 
L 197.941844 76.755788 
L 198.175571 76.907602 
L 198.680288 77.00137 
L 198.93434 77.128628 
L 198.817476 77.503706 
L 199.059672 78.014986 
L 199.884494 79.190529 
L 199.894656 79.390367 
L 199.71682 79.685103 
L 199.488173 79.868199 
L 199.306949 79.83024 
L 199.10032 79.698501 
L 198.778521 79.599138 
L 198.88861 80.061345 
L 198.792071 80.471087 
L 198.583748 80.821664 
L 198.365264 81.096323 
L 198.045158 81.400016 
L 197.752152 81.496037 
L 196.932411 81.454726 
L 196.581819 81.509435 
L 195.911122 81.762889 
L 195.513107 81.84663 
L 194.61207 81.870078 
L 194.132759 81.755074 
L 193.807572 81.454726 
L 193.53489 81.933721 
L 193.375684 82.072174 
L 191.492312 82.767803 
L 189.80202 82.972141 
L 189.307466 83.179831 
L 186.550156 85.018979 
L 186.094556 85.03238 
L 184.81244 84.539914 
L 184.46693 84.469563 
L 184.212878 84.323278 
L 183.410074 83.345091 
L 183.117067 83.119534 
L 182.942618 83.014572 
L 182.761395 82.972141 
L 182.685179 82.853781 
L 182.54291 82.339034 
L 182.465001 82.221794 
L 182.18385 82.184947 
L 181.533477 81.84663 
L 181.011824 81.721577 
L 180.825519 81.642303 
L 180.368226 81.223606 
L 180.13111 80.734577 
L 179.941418 80.205368 
L 179.611151 79.685103 
L 179.296126 79.734226 
L 178.840527 80.121633 
L 178.434044 80.589434 
L 178.251126 80.892003 
L 178.330729 81.129818 
L 178.728744 81.448026 
L 178.82359 81.743908 
L 178.82359 82.878346 
L 178.899806 83.169781 
L 179.21483 83.558368 
L 179.24701 83.906761 
L 179.152164 84.220544 
L 178.972634 84.47738 
L 178.539052 84.861523 
L 178.401864 85.03908 
L 178.298549 85.276941 
L 178.173217 85.467902 
L 178.108857 85.696834 
L 178.186766 85.839778 
L 178.552601 86.306587 
L 178.69487 86.532177 
L 178.484854 86.506491 
L 178.305324 86.539995 
L 177.446629 86.994533 
L 177.263144 86.774969 
L 176.927592 86.605478 
L 176.353282 86.657247 
L 176.01558 86.638809 
L 175.303608 86.49343 
L 174.727147 86.282102 
L 174.236725 85.884979 
L 173.064445 84.254016 
L 171.378082 83.115961 
L 170.610185 82.405504 
L 170.442409 82.122604 
L 170.321954 81.864523 
L 170.162782 81.676637 
L 169.861646 81.604319 
L 169.60568 81.687981 
L 169.27228 82.088571 
L 169.070088 82.233211 
L 165.239205 82.331765 
L 164.066925 81.909191 
L 163.208687 81.910609 
L 161.573948 82.317585 
L 160.775937 82.084317 
L 160.012341 81.373895 
L 159.642374 81.310086 
L 158.984176 82.047448 
L 158.590548 82.199178 
L 158.188316 82.213358 
L 157.641969 81.933297 
L 157.114981 82.288515 
L 156.837505 82.264408 
L 155.929795 80.525957 
L 155.69964 80.486964 
L 155.557676 80.833649 
L 155.118878 81.407926 
L 154.955404 81.80284 
L 154.966159 82.084317 
L 155.069405 82.284261 
L 155.114576 82.460808 
L 154.944649 82.678481 
L 154.578984 82.80469 
L 154.344528 82.682735 
L 154.120826 82.669263 
L 153.608895 83.366966 
L 153.391647 83.45418 
L 153.174398 83.417309 
L 152.970056 83.28897 
L 152.436615 82.108424 
L 152.361331 81.760299 
L 152.286046 81.621335 
L 152.141931 81.55398 
L 151.995665 81.580922 
L 151.855852 81.572414 
L 151.296599 80.854919 
L 150.765309 80.991751 
L 150.184546 81.382403 
L 149.593028 81.602901 
L 149.306949 81.555398 
L 148.371276 81.224298 
L 147.887307 81.188849 
L 147.67221 81.138511 
L 147.448508 80.977572 
L 147.276431 81.572414 
L 147.11941 81.904937 
L 146.90001 82.141038 
L 146.521439 82.443791 
L 145.521237 83.754115 
L 145.260969 83.942729 
L 144.914662 83.782478 
L 144.697414 83.44709 
L 144.568356 83.01173 
L 144.486619 82.555818 
L 144.35756 82.35729 
L 144.099444 82.169399 
L 143.602569 81.925498 
L 142.724972 81.849634 
L 142.309834 81.712087 
L 142.114096 81.312922 
L 142.019453 80.876897 
L 141.83662 80.652153 
L 141.587107 80.694691 
L 141.313934 81.054142 
L 141.109591 81.926207 
L 141.124648 82.834469 
L 141.032156 83.655555 
L 140.240598 84.544035 
L 140.15671 84.896459 
L 140.059916 85.184359 
L 139.771686 85.278672 
L 139.569495 85.129048 
L 139.425379 84.893623 
L 139.266207 84.806403 
L 138.375705 85.887816 
L 138.229439 86.143817 
L 138.087474 86.321814 
L 137.670186 86.473574 
L 137.483051 86.735255 
L 137.32091 87.370676 
L 137.199122 87.847968 
L 136.966817 90.272865 
L 136.704399 91.461648 
L 136.304318 92.529902 
L 136.11073 92.834215 
L 135.379399 93.361274 
L 135.233133 93.556352 
L 135.222378 94.182034 
L 135.551477 94.573625 
L 135.97737 94.888605 
L 136.269902 95.286593 
L 136.284959 96.194682 
L 135.476193 99.388162 
L 135.353588 100.465992 
L 135.349286 101.55948 
L 135.435325 102.215169 
L 135.951558 103.870788 
L 135.975219 104.157499 
L 135.932199 104.715315 
L 135.938652 104.992809 
L 136.009634 105.335599 
L 136.35379 106.151783 
L 136.519415 106.721707 
L 136.532321 107.023353 
L 136.411866 107.280997 
L 136.194618 107.391721 
L 136.007483 107.320744 
L 135.8225 107.198665 
L 135.616006 107.154659 
L 135.170755 107.754416 
L 134.792184 109.030627 
L 134.067306 113.170555 
L 134.082363 113.650462 
L 134.411462 114.178653 
L 134.725504 114.316382 
L 134.779278 114.522266 
L 134.0544 115.794522 
L 133.925342 116.287252 
L 133.845756 117.45592 
L 133.67798 117.996959 
L 133.342428 118.182988 
L 132.486341 118.307955 
L 131.126926 119.087587 
L 130.470879 119.231018 
L 129.87506 118.856109 
L 129.343769 117.813772 
L 129.05769 117.700168 
L 128.702779 118.40736 
L 128.347869 119.374451 
L 128.10696 119.733745 
L 126.91317 120.810231 
L 126.575467 121.236292 
L 126.300143 121.811482 
L 126.209802 122.133877 
L 126.158179 122.417928 
L 126.080744 122.700562 
L 125.91727 123.017285 
L 125.633341 123.336851 
L 125.456961 123.443374 
L 125.411791 123.565521 
L 125.515038 123.934804 
L 126.061385 124.860871 
L 126.196896 125.399195 
L 125.966742 126.071047 
L 125.74089 126.277009 
L 125.521491 126.335246 
L 125.334356 126.438938 
L 125.205298 126.779844 
L 125.224656 127.04831 
L 125.450508 127.596612 
L 125.515038 127.863664 
L 125.422546 128.430446 
L 125.239713 129.045535 
L 125.194543 129.600971 
L 125.506434 129.985946 
L 125.736588 129.993049 
L 126.186141 129.707514 
L 126.411993 129.620859 
L 126.659355 129.652112 
L 126.928227 129.760075 
L 127.182042 129.919179 
L 127.388535 130.102434 
L 127.702577 130.5485 
L 128.023072 131.183515 
L 128.259679 131.829906 
L 128.309151 132.315772 
L 128.029525 132.847107 
L 127.595028 133.046004 
L 126.652902 133.158239 
L 126.2055 133.530465 
L 125.422546 134.701155 
L 125.102051 134.951209 
L 124.742838 135.160063 
L 123.854487 136.164566 
L 123.456557 136.505563 
L 122.656395 136.417472 
L 122.400429 136.6036 
L 122.256314 137.204616 
L 122.286427 137.777224 
L 122.346655 138.204909 
L 122.215445 138.52461 
L 121.656192 138.769005 
L 120.045114 139.05745 
L 119.414878 139.537723 
L 119.096534 140.613384 
L 118.859927 142.113956 
L 118.879286 142.628369 
L 118.956721 142.869236 
L 119.191177 143.304788 
L 119.238499 143.584027 
L 119.216989 144.502758 
L 119.238499 144.734398 
L 119.453596 145.344056 
L 119.694505 145.378163 
L 120.027906 145.181338 
L 120.509724 145.104597 
L 120.711915 145.284369 
L 120.800105 145.648888 
L 120.795803 146.067414 
L 120.742029 146.413465 
L 120.561347 146.976957 
L 120.468855 147.441684 
L 120.468855 147.91281 
L 120.557045 148.49835 
L 120.52263 149.016387 
L 120.253758 149.352511 
L 119.087931 149.946595 
L 117.962972 150.131359 
L 117.758629 150.239376 
L 117.53923 150.454699 
L 117.349944 150.715504 
L 117.238094 150.958544 
L 117.180018 151.259148 
L 117.205829 151.448892 
L 117.272509 151.650717 
L 117.337039 151.991122 
L 117.360699 152.846053 
L 117.130545 154.751398 
L 116.741219 156.196974 
L 116.203476 157.370377 
L 115.895887 157.842304 
L 115.164556 158.618432 
L 114.927949 159.086815 
L 114.927949 159.750659 
L 115.022592 160.337748 
L 115.029045 160.929819 
L 114.895684 161.4629 
L 114.562284 161.877284 
L 114.076164 162.029392 
L 113.62661 161.847431 
L 111.976814 160.302921 
L 111.494996 159.990185 
L 111.008876 159.897076 
L 110.610946 160.034253 
L 107.523873 161.753746 
L 107.470526 161.783461 
L 107.020973 162.193583 
L 106.81663 162.274613 
L 106.545608 162.156622 
L 106.334812 161.895765 
L 106.143376 161.593683 
L 105.93258 161.348464 
L 105.168985 161.03217 
L 104.330105 161.049228 
L 101.327347 161.670447 
L 100.942323 161.877284 
L 100.464807 162.412505 
L 99.215092 164.49728 
L 95.913348 167.425877 
L 95.399266 167.582262 
L 94.809899 167.195566 
L 93.762376 165.546443 
L 93.310671 165.216623 
L 92.871873 165.191034 
L 92.433074 165.350257 
L 91.613554 165.799496 
L 90.669276 165.756846 
L 89.131331 164.175994 
L 88.139732 163.69478 
L 86.926584 163.364258 
L 85.99091 163.28607 
L 85.696227 163.164524 
L 85.012218 162.463682 
L 84.248622 161.976794 
L 83.44846 161.881549 
L 82.633242 162.069196 
L 81.837382 162.423878 
L 81.525491 162.408241 
L 81.465263 162.19074 
L 81.587869 161.892921 
L 82.222406 161.271701 
L 82.547203 160.823203 
L 82.779508 160.297235 
L 82.902113 159.692377 
L 82.882755 159.069757 
L 82.689167 158.690928 
L 82.336407 158.432928 
L 81.837382 158.1664 
L 81.48032 158.098169 
L 80.473665 158.147921 
L 80.067131 158.028517 
L 79.718673 157.869312 
L 79.376669 157.812453 
L 78.991645 157.995823 
L 78.787302 158.239606 
L 78.660395 158.502581 
L 78.514129 158.73073 
L 78.264616 158.883541 
L 78.124802 158.867193 
L 77.584908 158.651126 
L 71.375049 158.226813 
L 70.863118 158.380333 
L 70.527566 158.693771 
L 70.239336 159.079707 
L 69.877972 159.445745 
L 69.512307 159.60069 
L 68.223874 159.764875 
L 67.726999 159.983078 
L 65.330816 161.489909 
L 64.945791 161.888657 
L 64.790921 162.576698 
L 64.894168 162.816945 
L 65.367382 162.838269 
L 65.49644 163.074963 
L 65.483535 163.398376 
L 65.412553 163.690515 
L 64.760808 165.417074 
L 63.665963 169.581171 
L 63.517545 169.905323 
L 63.237919 170.0674 
L 62.70878 170.166921 
L 61.02887 170.155547 
L 59.712474 170.705757 
L 57.901355 173.610415 
L 56.647338 174.035529 
L 56.051518 173.803778 
L 54.967428 173.198098 
L 54.408175 172.996206 
L 54.036057 172.956397 
L 53.730619 173.010424 
L 51.98618 173.906147 
L 51.497909 174.820361 
L 51.244094 174.986712 
L 51.011789 174.369651 
L 50.927901 173.900459 
L 50.811748 173.489563 
L 50.596651 173.232221 
L 50.230986 173.220847 
L 49.409314 173.562074 
L 49.00278 173.67013 
L 48.557529 173.636007 
L 48.092919 173.461128 
L 45.298805 171.827515 
L 44.883667 171.773489 
L 40.218207 173.355916 
L 38.910415 173.411365 
L 38.282331 173.553544 
L 37.70587 173.920364 
L 36.546496 175.228419 
L 36.340003 175.654963 
L 36.322795 176.146912 
L 36.275473 176.370138 
L 36.124905 176.505211 
L 36.010904 176.473931 
L 35.800108 176.240752 
L 35.742032 176.195254 
L 35.479614 176.374403 
L 35.460255 176.455447 
L 35.045117 176.670143 
L 34.959078 176.6673 
L 34.724622 176.556397 
L 34.614922 176.556397 
L 34.382617 176.741235 
L 33.995442 177.227502 
L 33.722269 177.361154 
L 33.440491 177.312812 
L 33.255508 177.123708 
L 33.115694 176.907589 
L 32.962975 176.78389 
L 32.726368 176.76114 
L 32.646782 176.84645 
L 32.571498 177.054038 
L 32.365005 177.389591 
L 31.487408 177.932735 
L 30.49796 177.769223 
L 29.538626 177.152144 
L 28.755672 176.334592 
L 27.882377 174.762067 
L 27.538222 174.355433 
L 27.277954 174.214675 
L 26.219675 173.906147 
L 25.918539 173.971549 
L 25.636761 174.089557 
L 25.443174 173.999985 
L 25.406607 173.438379 
L 25.299059 172.768723 
L 24.26229 170.769736 
L 23.812736 169.601075 
L 23.505147 169.043764 
L 23.126576 168.785014 
L 21.904823 168.571758 
L 21.511195 168.378408 
L 21.037981 167.914936 
L 20.599183 166.86716 
L 20.212008 166.400855 
L 19.46562 165.927444 
L 19.205352 165.628898 
L 18.95584 165.04887 
L 18.555759 163.429651 
L 18.299793 162.98256 
L 17.921222 162.734493 
L 17.51899 162.733072 
L 17.106003 162.798465 
L 16.688714 162.748709 
L 16.327351 162.355642 
L 15.959534 161.189251 
L 15.808966 161.002317 
L 15.413187 161.290181 
L 15.288431 161.244691 
L 15.238958 160.477059 
L 15.096994 160.184934 
L 13.242856 158.083954 
L 12.842775 157.414442 
L 12.61262 156.852257 
L 12.502921 156.314953 
L 12.47926 155.053445 
L 12.616922 152.88443 
L 12.505072 152.358535 
L 12.135105 152.172341 
L 11.220941 152.166656 
L 10.947767 152.040869 
L 10.71116 151.776504 
L 10.524026 151.441785 
L 10.382062 151.105648 
L 10.276664 150.763827 
L 10.26806 150.558452 
L 10.276664 150.353788 
L 10.145455 149.361038 
L 10.164813 148.943904 
L 10.343344 148.598546 
L 11.102637 147.749372 
L 11.324188 147.410418 
L 11.640381 146.799311 
L 12.188879 145.518855 
L 12.577095 144.046453 
L 12.580483 144.064357 
L 12.673635 144.532086 
L 12.721058 145.140813 
L 12.927687 146.259818 
L 12.958173 146.801426 
L 12.883651 147.242326 
L 12.785418 147.62504 
L 12.771869 148.068186 
L 12.958173 148.680316 
L 13.571285 149.825144 
L 13.954057 150.337695 
L 14.377477 150.747292 
L 15.661286 151.465774 
L 16.39973 152.108163 
L 17.24657 152.581567 
L 17.602242 152.930746 
L 17.852907 153.4008 
L 18.201805 154.355468 
L 18.455857 154.798673 
L 18.74717 154.883733 
L 19.776927 154.856872 
L 20.025898 154.798673 
L 20.342616 154.581547 
L 20.793134 154.509918 
L 23.448824 154.53566 
L 23.724894 154.621838 
L 24.131377 154.993416 
L 24.365104 155.080714 
L 24.461644 155.005727 
L 24.78175 154.649819 
L 24.934181 154.53566 
L 25.128954 154.442766 
L 25.249205 154.415905 
L 25.37115 154.514395 
L 25.869092 155.24412 
L 26.011361 155.302319 
L 26.112982 154.818819 
L 26.314529 154.495368 
L 26.367034 154.330846 
L 26.35179 154.159609 
L 26.25017 153.88093 
L 26.224764 153.769011 
L 26.194278 152.897171 
L 26.224764 152.640882 
L 26.48051 152.038776 
L 26.814165 151.765704 
L 27.098703 151.904478 
L 27.259603 152.702436 
L 27.449295 153.038187 
L 27.515348 153.204944 
L 27.530591 153.387369 
L 27.496718 153.776845 
L 27.515348 153.954796 
L 27.586483 154.149536 
L 27.679635 154.306224 
L 27.791418 154.429336 
L 27.9303 154.53566 
L 28.079343 154.612885 
L 28.262261 154.666607 
L 28.724635 154.70466 
L 28.936345 154.589381 
L 29.192091 154.072312 
L 29.817059 153.790276 
L 30.196443 153.514956 
L 30.531791 153.461235 
L 30.797699 153.954796 
L 30.541953 154.377852 
L 30.359036 154.762858 
L 30.254028 155.188159 
L 30.216767 155.738816 
L 30.138858 155.953708 
L 29.769636 156.457365 
L 29.649384 156.771873 
L 30.208299 156.466319 
L 30.497918 156.429384 
L 30.797699 156.584959 
L 30.995859 156.892752 
L 31.051751 157.189354 
L 31.121192 157.423279 
L 31.35492 157.540801 
L 31.544612 157.483719 
L 31.9765 157.193831 
L 32.218696 157.16473 
L 32.499847 157.295683 
L 33.353461 157.914636 
L 34.552586 158.390328 
L 35.084402 158.783196 
L 35.345228 159.436863 
L 35.223283 160.124116 
L 34.852368 160.621092 
L 34.068194 161.297165 
L 34.068194 161.500884 
L 34.61864 161.480736 
L 35.050528 161.377757 
L 35.4333 161.12255 
L 35.848251 160.646837 
L 36.056574 160.126355 
L 36.031169 159.592446 
L 35.927854 159.09212 
L 35.914305 158.666791 
L 36.469832 158.095958 
L 37.433535 158.272804 
L 39.206818 159.229793 
L 40.104468 159.998754 
L 41.686364 162.097493 
L 42.485781 162.799326 
L 43.725554 163.622059 
L 43.988075 163.737355 
L 44.48771 163.642208 
L 45.178731 163.166477 
L 45.614007 162.987379 
L 46.289785 163.339978 
L 47.041779 164.15936 
L 47.859826 164.673157 
L 48.754089 164.113465 
L 48.408578 164.093317 
L 47.82934 163.810114 
L 47.546495 163.737355 
L 47.453343 163.564971 
L 47.260263 162.801565 
L 47.112913 162.629184 
L 46.782646 162.562023 
L 46.203407 162.29114 
L 45.898545 162.251963 
L 45.654655 162.344869 
L 44.902662 162.799326 
L 44.450449 162.822833 
L 44.059209 162.669481 
L 43.71878 162.372852 
L 43.418998 161.963171 
L 43.044695 161.600505 
L 42.123334 161.113595 
L 41.777823 160.733024 
L 41.401826 159.418954 
L 41.002118 158.906318 
L 40.914046 158.572771 
L 40.888641 157.764654 
L 40.914046 157.540801 
L 41.195197 156.584959 
L 41.366259 155.576529 
L 41.559338 155.220616 
L 42.758463 154.917309 
L 43.21745 154.892687 
L 43.623934 155.080714 
L 43.89831 155.573171 
L 44.170992 156.213371 
L 44.506341 156.593913 
L 44.982264 156.311864 
L 45.248172 156.241352 
L 45.537791 156.511089 
L 45.886689 156.750607 
L 46.337208 156.584959 
L 45.918869 156.419311 
L 45.720709 156.298433 
L 45.349793 155.92237 
L 45.166876 155.89327 
L 44.983958 155.908939 
L 44.572394 155.761201 
L 44.4369 155.774632 
L 44.369152 155.70412 
L 44.348828 155.371711 
L 44.11002 154.921786 
L 44.06429 154.798673 
L 43.988075 154.696825 
L 43.612078 154.597216 
L 43.481664 154.53566 
L 43.39698 154.404713 
L 42.915976 153.3191 
L 42.810967 152.947534 
L 42.770319 152.537919 
L 42.870246 152.378999 
L 43.336008 152.226793 
L 43.481664 152.05892 
L 43.447791 151.902239 
L 43.13446 151.638121 
L 43.058245 151.412055 
L 43.125992 150.859205 
L 43.302134 150.353363 
L 43.766203 149.413316 
L 44.419963 147.622802 
L 45.016138 145.080388 
L 45.056786 144.438092 
L 45.168569 144.302697 
L 45.420927 144.353051 
L 45.835879 144.532086 
L 46.345676 144.478375 
L 45.805393 143.876371 
L 45.768132 143.218428 
L 46.056057 142.867081 
L 46.426973 142.906244 
L 46.838537 143.100939 
L 47.597306 143.298992 
L 47.773448 143.251996 
L 48.054599 143.013662 
L 48.190093 142.813373 
L 48.576252 142.100619 
L 48.637225 141.885788 
L 48.444145 141.660888 
L 48.196868 141.764946 
L 47.990239 142.052505 
L 47.819178 142.738404 
L 47.621017 142.79547 
L 47.402532 142.683577 
L 46.833456 142.200202 
L 46.401568 142.106213 
L 44.91113 142.396013 
L 44.61643 142.345662 
L 44.506341 142.04803 
L 44.491097 141.416968 
L 44.618123 140.979482 
L 44.934841 140.536406 
L 45.349793 140.27459 
L 45.768132 140.385358 
L 45.547953 139.866206 
L 45.156713 139.676002 
L 44.785798 139.582018 
L 44.618123 139.360487 
L 44.653691 138.863725 
L 44.902662 137.569262 
L 45.110984 135.64275 
L 45.370117 134.894322 
L 45.898545 134.343919 
L 46.072994 134.807063 
L 46.345676 135.028568 
L 47.04686 135.317199 
L 47.285669 135.589051 
L 47.807322 136.433705 
L 47.980077 136.612707 
L 48.098635 136.695496 
L 48.230742 136.854361 
L 48.378092 136.965119 
L 48.552541 136.903587 
L 49.206301 136.317354 
L 49.39938 136.236804 
L 50.100564 136.095841 
L 50.252995 136.142829 
L 50.628992 136.509781 
L 51.040556 136.817441 
L 50.867801 136.321829 
L 50.451155 135.753505 
L 49.77199 134.924528 
L 49.599235 134.587796 
L 49.351957 133.433309 
L 49.191058 133.028351 
L 49.83635 133.078691 
L 50.415588 133.276695 
L 50.91353 133.303543 
L 51.325094 132.842654 
L 51.438571 132.909774 
L 51.469057 132.945571 
L 51.50293 132.931028 
L 51.619794 132.842654 
L 51.167582 132.618924 
L 50.380021 132.367229 
L 50.044672 132.092045 
L 49.782152 131.796727 
L 49.572136 131.498056 
L 49.455272 131.071867 
L 49.46374 130.400713 
L 49.831269 128.712816 
L 49.934583 127.635692 
L 50.075159 127.236393 
L 50.300418 126.934405 
L 51.797631 125.42115 
L 54.068855 123.565744 
L 54.707372 123.156428 
L 58.682438 122.125333 
L 61.864861 121.978835 
L 67.782577 119.915635 
L 73.544475 117.911834 
L 76.720124 117.027385 
L 78.000545 116.363227 
L 78.244435 116.369935 
L 81.862135 114.880664 
L 82.558237 114.401027 
L 83.669291 112.835834 
L 84.107954 111.788321 
L 83.838659 111.177941 
L 83.996171 110.936475 
L 84.546617 110.445726 
L 85.545887 109.289872 
L 85.769453 109.132259 
L 85.854137 108.871809 
L 86.548546 107.42764 
L 88.172784 105.540947 
L 88.553862 104.783178 
L 88.619916 104.568593 
L 88.662258 104.345068 
L 88.696131 103.753854 
L 88.807914 103.47781 
L 89.295694 102.977138 
L 89.404089 102.805035 
L 89.546358 102.512237 
L 90.542242 101.032657 
L 91.030022 99.924146 
L 91.19939 99.3051 
L 91.263749 98.663721 
L 91.433117 98.154206 
L 91.826051 97.726266 
L 92.68644 97.079342 
L 97.730217 91.341589 
L 102.099911 83.860979 
L 102.53688 82.534435 
L 102.387836 81.454726 
L 102.83158 80.543659 
L 103.044984 79.381436 
L 103.038209 78.081966 
L 102.570753 75.501134 
L 102.704554 75.056889 
L 103.182172 74.880533 
L 104.543052 75.733915 
L 105.683067 75.964276 
L 106.121866 76.265521 
L 106.801573 76.963009 
L 107.313505 77.221029 
L 107.558716 77.431559 
L 107.717888 77.993691 
L 107.846946 78.07663 
L 108.167441 78.087972 
L 108.318009 78.164532 
L 108.365331 78.347424 
L 108.384689 78.563637 
L 108.453521 78.742989 
L 108.67292 79.061998 
L 108.795525 79.363288 
L 108.956848 80.131777 
L 108.956848 80.896748 
L 109.240777 81.460392 
L 109.382741 82.685571 
L 109.31391 82.949334 
L 109.023528 83.283297 
L 108.956848 83.444253 
L 108.993415 83.854804 
L 109.090208 84.105818 
L 109.80003 84.171762 
L 110.709891 84.408598 
L 111.561676 84.207217 
L 111.946701 84.236998 
L 112.209119 84.599345 
L 112.641465 86.334579 
L 112.845807 86.871416 
L 113.142641 87.397628 
L 114.450433 88.990524 
L 114.891382 89.399758 
L 115.057007 89.608989 
L 115.158103 89.890566 
L 115.312973 90.571473 
L 115.41622 90.788517 
L 116.272307 90.919027 
L 117.253151 90.167182 
L 119.167517 87.758608 
L 119.326689 87.356495 
L 119.442841 86.223242 
L 119.589107 85.689257 
L 120.064472 84.753929 
L 120.21504 84.249762 
L 120.144058 83.771133 
L 119.494464 84.11929 
L 119.481559 83.556285 
L 119.604164 83.303151 
L 119.735428 83.13625 
L 120.23655 82.499096 
L 120.460251 82.03185 
L 120.615121 81.572414 
L 120.806558 80.533047 
L 120.853879 79.747529 
L 120.699009 79.61354 
L 120.39142 79.68018 
L 119.982735 79.484515 
L 119.610617 78.719595 
L 119.485861 77.715813 
L 119.384765 74.509856 
L 119.313783 73.901753 
L 119.193328 73.334773 
L 118.791096 72.322756 
L 118.636226 71.813932 
L 118.649132 71.361104 
L 118.674619 71.33008 
L 118.853475 71.112372 
L 119.61707 70.690739 
L 119.969829 70.398082 
L 120.640933 69.554857 
L 121.017353 69.243794 
L 121.484114 69.075156 
L 121.864837 69.102082 
L 122.24771 69.187109 
L 122.613375 69.175772 
L 122.944625 68.907229 
L 123.080136 68.488479 
L 123.097344 68.03006 
L 123.164024 67.608495 
L 123.638432 66.98409 
L 123.861998 66.842394 
L 124.060158 66.682848 
L 124.226139 66.487602 
L 124.348084 66.234342 
L 124.490353 66.79665 
L 124.510677 67.861065 
L 124.634316 68.854126 
L 124.639034 68.860344 
L 124.493325 71.034422 
L 124.577213 73.26532 
L 124.757895 74.329124 
L 125.437603 76.465408 
L 125.680663 77.546395 
L 125.930175 80.250172 
L 126.0958 80.639391 
L 126.371125 80.882569 
L 127.556311 81.46181 
L 127.990807 81.585176 
L 128.612439 81.502932 
L 128.786667 81.585176 
L 129.111464 81.944641 
L 129.328713 82.065883 
L 129.728794 82.044612 
L 129.911626 82.133948 
L 130.288047 82.465062 
L 130.769864 82.742294 
L 131.225871 82.764983 
L 131.527007 82.331765 
L 131.475384 81.763135 
L 131.174247 81.176087 
L 130.442917 80.270022 
L 129.96325 79.42851 
L 129.690076 78.35026 
L 129.573923 77.192675 
L 129.584678 76.113126 
L 129.752454 75.028672 
L 129.784719 74.553799 
L 129.694378 73.90317 
L 128.334963 68.724423 
L 127.812277 67.747363 
L 127.543405 67.50718 
L 127.26593 67.334306 
L 127.074493 67.078541 
z
" clip-path="url(#pdceca691b2)" style="stroke: #000000; stroke-linejoin: miter"/>
   </g>
   <g id="line2d_1">
    <path d="M 127.061358 66.450784 
L 127.728668 66.408388 
L 127.962396 66.205334 
L 128.158863 65.292737 
L 128.402752 65.047302 
L 128.688984 65.085233 
L 129.095467 65.712214 
L 129.747534 65.717792 
L 130.121837 65.978854 
L 130.345403 66.515494 
L 130.712931 66.680617 
L 131.478474 66.608096 
L 131.725752 66.386074 
L 134.262883 63.052712 
L 134.68461 62.959011 
L 135.416279 62.412436 
L 135.611052 62.100114 
L 135.736385 61.662873 
L 136.178435 58.730732 
L 136.615404 58.128526 
L 136.478216 57.761636 
L 135.690655 58.24562 
L 134.920031 58.218855 
L 134.212073 57.830776 
L 132.357494 55.719907 
L 132.352413 55.230419 
L 132.338864 55.056481 
L 132.027227 55.050906 
L 131.620743 55.515859 
L 131.50388 55.181359 
L 131.829066 53.47328 
L 132.18982 52.615959 
L 132.43371 52.324993 
L 133.517664 51.49114 
L 133.998669 50.522451 
L 135.468783 49.139184 
L 136.198759 47.058371 
L 136.606936 46.520099 
L 136.898249 47.148641 
L 136.180129 48.911809 
L 136.606936 49.699834 
L 136.715331 49.415605 
L 136.905023 48.375706 
L 137.616369 49.181539 
L 138.048257 49.435668 
L 140.487155 49.558276 
L 141.037601 49.326437 
L 141.681199 48.596386 
L 142.216402 47.518646 
L 142.62966 46.316162 
L 142.885406 45.211828 
L 143.164863 43.481373 
L 143.388428 43.036811 
L 143.693291 42.712589 
L 145.563113 41.341127 
L 145.888299 40.866546 
L 146.025487 40.240478 
L 146.213486 38.447075 
L 147.488826 35.733975 
L 147.783527 34.549094 
L 147.45834 33.742893 
L 146.990885 33.956688 
L 146.828291 33.600365 
L 147.036614 33.088165 
L 147.67005 32.825391 
L 148.037578 32.518085 
L 149.021606 30.584206 
L 149.729564 29.886201 
L 150.080156 29.819408 
L 150.898203 30.183434 
L 151.009986 29.912918 
L 150.923608 29.002332 
L 150.669556 28.926638 
L 150.271542 29.178211 
L 149.744807 29.260585 
L 149.744807 29.089158 
L 150.31219 28.699558 
L 150.725448 28.138551 
L 150.877879 28.105159 
L 151.294524 28.138551 
L 151.533333 27.882544 
L 151.531639 27.728941 
L 151.873762 26.456776 
L 152.066842 26.162958 
L 155.303463 23.001461 
L 155.440651 21.923308 
L 155.667604 20.989866 
L 155.943674 20.822987 
L 156.309509 20.453637 
L 158.255547 16.938629 
L 158.382573 14.821161 
L 158.723002 14.087242 
L 158.758569 12.58061 
L 159.34797 12.217042 
L 159.520725 11.790113 
L 159.942451 9.779061 
L 160.028829 9.684575 
L 160.545401 8.691954 
L 161.009469 8.472987 
L 161.075523 8.581915 
L 161.29062 9.20215 
L 162.147622 9.932464 
L 162.274648 10.238163 
L 162.559186 12.2037 
L 161.949462 11.823466 
L 161.847841 11.933533 
L 161.705572 12.950859 
L 161.94438 13.224383 
L 162.571042 13.615776 
L 162.701455 14.180648 
L 162.618465 15.255971 
L 162.394899 15.973272 
L 161.705572 17.276743 
L 161.329575 18.228844 
L 161.033181 19.410165 
L 161.146657 20.364639 
L 161.99011 20.634974 
L 162.427079 20.353514 
L 163.209559 19.143191 
L 163.494097 18.985234 
L 164.418846 17.818409 
L 165.098012 17.181091 
L 165.231812 16.845204 
L 165.41473 15.784212 
L 165.697574 15.579586 
L 165.982112 14.834505 
L 166.7358 13.828156 
L 166.847582 13.424525 
L 166.720557 12.859685 
L 166.253101 11.663371 
L 166.278506 11.085265 
L 166.44618 10.771764 
L 166.612161 10.739525 
L 167.060986 10.898498 
L 167.238822 10.807339 
L 167.431902 10.412693 
L 167.193093 10.193697 
L 167.193093 9.595647 
L 167.27439 9.405566 
L 167.492874 9.348876 
L 168.138166 9.592313 
L 168.769909 9.118783 
L 169.46093 9.535621 
L 169.701432 9.700137 
L 170.89717 10.685053 
L 170.981854 10.898498 
L 170.998791 11.366533 
L 170.775225 12.950859 
L 170.4873 13.153221 
L 170.395841 13.628007 
L 170.555047 14.647686 
L 171.303653 15.933235 
L 171.420517 16.427026 
L 171.562786 18.565878 
L 171.801595 19.143191 
L 172.072584 19.347871 
L 172.912649 19.312274 
L 173.234448 19.447987 
L 173.966117 20.448075 
L 174.846831 21.419308 
L 175.185566 21.569505 
L 175.525996 21.462698 
L 175.754643 21.162309 
L 176.577771 19.561452 
L 176.750526 19.56034 
L 176.918201 20.748449 
L 177.400899 21.382594 
L 177.319603 21.345879 
L 177.243387 21.646273 
L 177.334846 21.822062 
L 177.685437 21.960024 
L 178.198622 22.467381 
L 178.467917 22.518563 
L 178.981102 22.276007 
L 179.184344 22.417312 
L 179.905851 23.605663 
L 180.114174 24.199876 
L 180.256443 24.199876 
L 180.434279 23.860482 
L 180.679863 24.01293 
L 180.800114 24.410194 
L 180.893266 25.218108 
L 181.123607 25.881388 
L 180.805195 26.633737 
L 181.018599 27.363864 
L 180.690025 29.581182 
L 180.378388 29.62905 
L 179.687366 29.462071 
L 179.301208 29.632389 
L 178.925211 29.964127 
L 178.322261 30.669928 
L 178.13765 31.135286 
L 178.247739 31.572824 
L 178.69487 32.266455 
L 179.031913 33.333128 
L 179.402828 33.658267 
L 179.494287 34.362016 
L 179.230073 34.925484 
L 178.881175 35.127046 
L 178.82359 35.457792 
L 178.960778 35.907706 
L 179.551872 36.181671 
L 179.687366 36.851011 
L 179.565422 37.297625 
L 179.267334 37.679652 
L 178.539052 38.261064 
L 175.900299 39.43175 
L 175.39897 40.146904 
L 175.768192 40.0589 
L 177.492358 39.20674 
L 178.965859 39.196715 
L 180.358064 38.968366 
L 181.757043 39.066389 
L 181.882375 38.754501 
L 181.702845 38.07394 
L 181.923023 37.900185 
L 182.385398 38.013794 
L 183.054401 38.040526 
L 184.041816 37.789918 
L 184.246752 37.607255 
L 184.375471 37.261984 
L 185.229086 36.393272 
L 185.906557 35.241748 
L 186.509507 34.780718 
L 186.805901 34.879827 
L 187.515553 35.831977 
L 187.573138 36.649426 
L 187.932198 36.894446 
L 187.986396 37.22523 
L 187.954216 37.786576 
L 188.060918 38.421457 
L 189.060189 40.273897 
L 188.452158 41.362294 
L 188.142214 41.602932 
L 187.67984 41.777843 
L 187.19206 41.811265 
L 186.805901 41.626327 
L 186.45531 41.777843 
L 185.164726 41.626327 
L 184.814134 41.776728 
L 184.590568 42.109844 
L 184.54992 42.444081 
L 184.832765 42.798379 
L 185.456039 44.924334 
L 185.72364 45.139397 
L 187.593462 44.260222 
L 187.761136 44.307021 
L 187.903406 44.543246 
L 188.096485 44.634617 
L 188.67403 44.417333 
L 188.878965 44.541018 
L 189.2448 45.045794 
L 189.446347 44.924334 
L 189.608941 44.621246 
L 189.656364 43.608393 
L 189.935821 42.998929 
L 189.771534 42.495331 
L 189.80202 42.204544 
L 190.123819 41.882567 
L 191.053649 41.762245 
L 191.912345 41.260915 
L 192.359476 41.387917 
L 193.545052 42.181147 
L 194.056543 41.646381 
L 195.001616 42.129898 
L 197.132265 43.75547 
L 198.148473 44.768332 
L 198.817476 45.253058 
L 198.93434 45.604075 
L 198.705693 46.031992 
L 198.493983 46.232582 
L 198.085806 48.956392 
L 198.222994 49.529296 
L 198.365264 49.529296 
L 198.700612 48.522826 
L 198.954664 48.013484 
L 199.005474 46.98816 
L 199.547452 46.497811 
L 200.004745 46.503383 
L 200.404454 46.870029 
L 201.784802 48.929642 
L 202.145556 49.139184 
L 202.694308 49.271821 
L 203.105872 49.634071 
L 203.375167 50.175787 
L 203.507274 50.840139 
L 203.751164 50.552547 
L 203.778263 50.091073 
L 204.760597 51.067541 
L 205.576951 51.473304 
L 205.929236 52.048524 
L 206.007145 52.628222 
L 205.637923 52.896897 
L 205.864876 53.141049 
L 206.190063 53.29267 
L 206.528798 53.29713 
L 206.776076 53.100914 
L 206.835354 52.729671 
L 206.660905 52.204594 
L 206.931894 51.979407 
L 207.439998 51.997244 
L 208.425719 52.679504 
L 209.050687 52.709604 
L 210.676619 51.692911 
L 211.206741 51.589238 
L 211.530234 51.792125 
L 211.83679 52.214628 
L 213.054545 54.496769 
L 213.008816 55.091045 
L 212.770007 56.468105 
L 212.825899 58.430741 
L 212.348281 58.97162 
L 211.337154 60.415902 
L 210.512333 61.031569 
L 206.708329 62.847464 
L 202.826415 64.325521 
L 201.591723 65.205719 
L 200.638181 65.469005 
L 200.312995 65.368599 
L 199.659235 65.002678 
L 198.365264 64.720434 
L 198.114599 64.835339 
L 197.049275 65.832704 
L 196.847727 65.821547 
L 196.459874 65.368599 
L 196.083877 64.525208 
L 195.370838 63.427518 
L 194.28519 62.816231 
L 194.090417 62.959011 
L 193.888869 62.878697 
L 193.443431 63.2535 
L 192.799833 63.971892 
L 192.630465 63.816833 
L 192.525457 63.917231 
L 192.516988 64.54975 
L 191.714184 64.295401 
L 190.970659 64.879963 
L 189.234638 67.459392 
L 189.348114 67.907927 
L 189.488689 67.967063 
L 190.159387 68.582982 
L 190.281331 68.827346 
L 190.513366 69.620716 
L 191.013001 70.625027 
L 191.583771 71.51556 
L 192.23245 72.302343 
L 193.5857 73.571307 
L 194.214055 73.655014 
L 194.473188 73.906139 
L 194.864428 74.751057 
L 195.370838 75.068051 
L 195.421649 74.602608 
L 195.70788 74.502154 
L 196.078796 74.637209 
L 196.376884 74.880533 
L 196.60045 75.252222 
L 196.642792 75.594895 
L 196.53609 75.934227 
L 196.305749 76.286958 
L 196.224453 76.635231 
L 196.790142 77.427797 
L 196.962897 77.589663 
L 197.345668 77.33626 
L 197.941844 76.755788 
L 198.175571 76.907602 
L 198.93434 77.128628 
L 198.817476 77.503706 
L 199.059672 78.014986 
L 199.894656 79.390367 
L 199.488173 79.868199 
L 199.10032 79.698501 
L 198.778521 79.599138 
L 198.88861 80.061345 
L 198.792071 80.471087 
L 198.365264 81.096323 
L 198.045158 81.400016 
L 197.752152 81.496037 
L 196.581819 81.509435 
L 195.513107 81.84663 
L 194.61207 81.870078 
L 194.132759 81.755074 
L 193.807572 81.454726 
L 193.375684 82.072174 
L 191.492312 82.767803 
L 189.80202 82.972141 
L 189.307466 83.179831 
L 186.550156 85.018979 
L 186.094556 85.03238 
L 184.212878 84.323278 
L 183.117067 83.119534 
L 182.685179 82.853781 
L 182.465001 82.221794 
L 182.18385 82.184947 
L 181.533477 81.84663 
L 180.825519 81.642303 
L 180.368226 81.223606 
L 179.611151 79.685103 
L 179.296126 79.734226 
L 178.434044 80.589434 
L 178.251126 80.892003 
L 178.330729 81.129818 
L 178.728744 81.448026 
L 178.82359 81.743908 
L 178.899806 83.169781 
L 179.21483 83.558368 
L 179.24701 83.906761 
L 178.972634 84.47738 
L 178.401864 85.03908 
L 178.108857 85.696834 
L 178.552601 86.306587 
L 178.69487 86.532177 
L 178.305324 86.539995 
L 177.446629 86.994533 
L 177.263144 86.774969 
L 176.927592 86.605478 
L 176.01558 86.638809 
L 174.727147 86.282102 
L 174.236725 85.884979 
L 173.064445 84.254016 
L 171.378082 83.115961 
L 170.442409 82.122604 
L 170.162782 81.676637 
L 169.861646 81.604319 
L 169.60568 81.687981 
L 169.070088 82.233211 
L 165.239205 82.331765 
L 164.066925 81.909191 
L 163.208687 81.910609 
L 161.573948 82.317585 
L 160.775937 82.084317 
L 160.012341 81.373895 
L 159.642374 81.310086 
L 158.984176 82.047448 
L 158.590548 82.199178 
L 158.188316 82.213358 
L 157.641969 81.933297 
L 157.114981 82.288515 
L 156.837505 82.264408 
L 155.929795 80.525957 
L 155.69964 80.486964 
L 155.557676 80.833649 
L 154.955404 81.80284 
L 155.069405 82.284261 
L 155.114576 82.460808 
L 154.944649 82.678481 
L 154.578984 82.80469 
L 154.120826 82.669263 
L 153.608895 83.366966 
L 153.391647 83.45418 
L 152.970056 83.28897 
L 152.141931 81.55398 
L 151.855852 81.572414 
L 151.296599 80.854919 
L 150.765309 80.991751 
L 150.184546 81.382403 
L 149.593028 81.602901 
L 149.306949 81.555398 
L 148.371276 81.224298 
L 147.67221 81.138511 
L 147.448508 80.977572 
L 147.11941 81.904937 
L 145.260969 83.942729 
L 144.914662 83.782478 
L 144.697414 83.44709 
L 144.35756 82.35729 
L 143.602569 81.925498 
L 142.309834 81.712087 
L 141.83662 80.652153 
L 141.587107 80.694691 
L 141.313934 81.054142 
L 141.109591 81.926207 
L 141.032156 83.655555 
L 140.240598 84.544035 
L 140.059916 85.184359 
L 139.771686 85.278672 
L 139.266207 84.806403 
L 138.087474 86.321814 
L 137.670186 86.473574 
L 137.483051 86.735255 
L 137.199122 87.847968 
L 136.966817 90.272865 
L 136.704399 91.461648 
L 136.11073 92.834215 
L 135.233133 93.556352 
L 135.222378 94.182034 
L 135.551477 94.573625 
L 135.97737 94.888605 
L 136.269902 95.286593 
L 136.284959 96.194682 
L 135.476193 99.388162 
L 135.353588 100.465992 
L 135.435325 102.215169 
L 135.975219 104.157499 
L 135.938652 104.992809 
L 136.009634 105.335599 
L 136.519415 106.721707 
L 136.532321 107.023353 
L 136.411866 107.280997 
L 136.194618 107.391721 
L 135.616006 107.154659 
L 135.170755 107.754416 
L 134.792184 109.030627 
L 134.082363 113.650462 
L 134.411462 114.178653 
L 134.725504 114.316382 
L 134.779278 114.522266 
L 134.0544 115.794522 
L 133.925342 116.287252 
L 133.845756 117.45592 
L 133.67798 117.996959 
L 133.342428 118.182988 
L 132.486341 118.307955 
L 131.126926 119.087587 
L 130.470879 119.231018 
L 129.87506 118.856109 
L 129.343769 117.813772 
L 129.05769 117.700168 
L 128.702779 118.40736 
L 128.10696 119.733745 
L 126.575467 121.236292 
L 126.209802 122.133877 
L 126.080744 122.700562 
L 125.633341 123.336851 
L 125.411791 123.565521 
L 125.515038 123.934804 
L 126.061385 124.860871 
L 126.196896 125.399195 
L 125.966742 126.071047 
L 125.521491 126.335246 
L 125.334356 126.438938 
L 125.205298 126.779844 
L 125.224656 127.04831 
L 125.515038 127.863664 
L 125.194543 129.600971 
L 125.506434 129.985946 
L 125.736588 129.993049 
L 126.411993 129.620859 
L 126.928227 129.760075 
L 127.388535 130.102434 
L 128.023072 131.183515 
L 128.259679 131.829906 
L 128.309151 132.315772 
L 128.029525 132.847107 
L 127.595028 133.046004 
L 126.652902 133.158239 
L 126.2055 133.530465 
L 125.422546 134.701155 
L 124.742838 135.160063 
L 123.456557 136.505563 
L 122.656395 136.417472 
L 122.400429 136.6036 
L 122.256314 137.204616 
L 122.215445 138.52461 
L 121.656192 138.769005 
L 120.045114 139.05745 
L 119.414878 139.537723 
L 119.096534 140.613384 
L 118.879286 142.628369 
L 119.238499 143.584027 
L 119.238499 144.734398 
L 119.453596 145.344056 
L 119.694505 145.378163 
L 120.027906 145.181338 
L 120.509724 145.104597 
L 120.711915 145.284369 
L 120.795803 146.067414 
L 120.561347 146.976957 
L 120.468855 147.91281 
L 120.557045 148.49835 
L 120.52263 149.016387 
L 120.253758 149.352511 
L 119.087931 149.946595 
L 117.758629 150.239376 
L 117.349944 150.715504 
L 117.180018 151.259148 
L 117.360699 152.846053 
L 117.130545 154.751398 
L 116.741219 156.196974 
L 115.895887 157.842304 
L 115.164556 158.618432 
L 114.927949 159.086815 
L 114.895684 161.4629 
L 114.562284 161.877284 
L 114.076164 162.029392 
L 113.62661 161.847431 
L 111.494996 159.990185 
L 111.008876 159.897076 
L 110.610946 160.034253 
L 107.470526 161.783461 
L 106.81663 162.274613 
L 106.545608 162.156622 
L 105.93258 161.348464 
L 105.168985 161.03217 
L 104.330105 161.049228 
L 101.327347 161.670447 
L 100.942323 161.877284 
L 100.464807 162.412505 
L 99.215092 164.49728 
L 95.913348 167.425877 
L 95.399266 167.582262 
L 94.809899 167.195566 
L 93.762376 165.546443 
L 93.310671 165.216623 
L 92.871873 165.191034 
L 92.433074 165.350257 
L 91.613554 165.799496 
L 90.669276 165.756846 
L 89.131331 164.175994 
L 88.139732 163.69478 
L 86.926584 163.364258 
L 85.696227 163.164524 
L 85.012218 162.463682 
L 84.248622 161.976794 
L 83.44846 161.881549 
L 82.633242 162.069196 
L 81.837382 162.423878 
L 81.525491 162.408241 
L 81.465263 162.19074 
L 81.587869 161.892921 
L 82.547203 160.823203 
L 82.779508 160.297235 
L 82.902113 159.692377 
L 82.882755 159.069757 
L 82.689167 158.690928 
L 81.837382 158.1664 
L 81.48032 158.098169 
L 80.473665 158.147921 
L 79.376669 157.812453 
L 78.991645 157.995823 
L 78.124802 158.867193 
L 77.584908 158.651126 
L 71.375049 158.226813 
L 70.863118 158.380333 
L 69.512307 159.60069 
L 68.223874 159.764875 
L 67.726999 159.983078 
L 65.330816 161.489909 
L 64.945791 161.888657 
L 64.790921 162.576698 
L 64.894168 162.816945 
L 65.367382 162.838269 
L 65.49644 163.074963 
L 65.412553 163.690515 
L 64.760808 165.417074 
L 63.517545 169.905323 
L 63.237919 170.0674 
L 62.70878 170.166921 
L 61.02887 170.155547 
L 59.712474 170.705757 
L 57.901355 173.610415 
L 56.647338 174.035529 
L 56.051518 173.803778 
L 54.408175 172.996206 
L 53.730619 173.010424 
L 51.98618 173.906147 
L 51.497909 174.820361 
L 51.244094 174.986712 
L 50.927901 173.900459 
L 50.811748 173.489563 
L 50.596651 173.232221 
L 50.230986 173.220847 
L 49.00278 173.67013 
L 48.557529 173.636007 
L 48.092919 173.461128 
L 45.298805 171.827515 
L 44.883667 171.773489 
L 40.218207 173.355916 
L 38.910415 173.411365 
L 38.282331 173.553544 
L 37.70587 173.920364 
L 36.546496 175.228419 
L 36.340003 175.654963 
L 36.275473 176.370138 
L 36.010904 176.473931 
L 35.742032 176.195254 
L 34.959078 176.6673 
L 34.614922 176.556397 
L 34.382617 176.741235 
L 33.995442 177.227502 
L 33.722269 177.361154 
L 33.440491 177.312812 
L 32.962975 176.78389 
L 32.646782 176.84645 
L 32.365005 177.389591 
L 31.487408 177.932735 
L 30.49796 177.769223 
L 29.538626 177.152144 
L 28.755672 176.334592 
L 27.538222 174.355433 
L 27.277954 174.214675 
L 26.219675 173.906147 
L 25.443174 173.999985 
L 25.299059 172.768723 
L 24.26229 170.769736 
L 23.505147 169.043764 
L 23.126576 168.785014 
L 21.904823 168.571758 
L 21.511195 168.378408 
L 21.037981 167.914936 
L 20.599183 166.86716 
L 20.212008 166.400855 
L 19.46562 165.927444 
L 19.205352 165.628898 
L 18.95584 165.04887 
L 18.555759 163.429651 
L 18.299793 162.98256 
L 17.921222 162.734493 
L 16.688714 162.748709 
L 16.327351 162.355642 
L 15.808966 161.002317 
L 15.288431 161.244691 
L 15.238958 160.477059 
L 15.096994 160.184934 
L 13.242856 158.083954 
L 12.61262 156.852257 
L 12.502921 156.314953 
L 12.47926 155.053445 
L 12.616922 152.88443 
L 12.505072 152.358535 
L 12.135105 152.172341 
L 11.220941 152.166656 
L 10.947767 152.040869 
L 10.524026 151.441785 
L 10.26806 150.558452 
L 10.276664 150.353788 
L 10.164813 148.943904 
L 10.343344 148.598546 
L 11.324188 147.410418 
L 12.188879 145.518855 
L 12.577095 144.046453 
L 12.580483 144.064357 
L 12.927687 146.259818 
L 12.883651 147.242326 
L 12.771869 148.068186 
L 12.958173 148.680316 
L 13.954057 150.337695 
L 14.377477 150.747292 
L 15.661286 151.465774 
L 16.39973 152.108163 
L 17.24657 152.581567 
L 17.602242 152.930746 
L 17.852907 153.4008 
L 18.455857 154.798673 
L 18.74717 154.883733 
L 20.025898 154.798673 
L 20.342616 154.581547 
L 20.793134 154.509918 
L 23.724894 154.621838 
L 24.365104 155.080714 
L 25.249205 154.415905 
L 25.37115 154.514395 
L 26.011361 155.302319 
L 26.112982 154.818819 
L 26.367034 154.330846 
L 26.224764 152.640882 
L 26.48051 152.038776 
L 26.814165 151.765704 
L 27.098703 151.904478 
L 27.259603 152.702436 
L 27.530591 153.387369 
L 27.515348 153.954796 
L 27.791418 154.429336 
L 28.262261 154.666607 
L 28.724635 154.70466 
L 28.936345 154.589381 
L 29.192091 154.072312 
L 30.531791 153.461235 
L 30.797699 153.954796 
L 30.359036 154.762858 
L 30.138858 155.953708 
L 29.649384 156.771873 
L 30.497918 156.429384 
L 30.797699 156.584959 
L 30.995859 156.892752 
L 31.121192 157.423279 
L 31.35492 157.540801 
L 31.544612 157.483719 
L 32.218696 157.16473 
L 32.499847 157.295683 
L 33.353461 157.914636 
L 34.552586 158.390328 
L 35.084402 158.783196 
L 35.345228 159.436863 
L 35.223283 160.124116 
L 34.852368 160.621092 
L 34.068194 161.297165 
L 34.068194 161.500884 
L 35.050528 161.377757 
L 35.4333 161.12255 
L 35.848251 160.646837 
L 36.056574 160.126355 
L 35.914305 158.666791 
L 36.469832 158.095958 
L 37.433535 158.272804 
L 39.206818 159.229793 
L 40.104468 159.998754 
L 41.686364 162.097493 
L 42.485781 162.799326 
L 43.988075 163.737355 
L 44.48771 163.642208 
L 45.614007 162.987379 
L 46.289785 163.339978 
L 47.041779 164.15936 
L 47.859826 164.673157 
L 48.754089 164.113465 
L 48.408578 164.093317 
L 47.453343 163.564971 
L 47.112913 162.629184 
L 46.782646 162.562023 
L 45.898545 162.251963 
L 45.654655 162.344869 
L 44.902662 162.799326 
L 44.450449 162.822833 
L 44.059209 162.669481 
L 43.71878 162.372852 
L 43.044695 161.600505 
L 42.123334 161.113595 
L 41.777823 160.733024 
L 41.401826 159.418954 
L 41.002118 158.906318 
L 40.914046 158.572771 
L 40.914046 157.540801 
L 41.195197 156.584959 
L 41.366259 155.576529 
L 41.559338 155.220616 
L 43.21745 154.892687 
L 43.623934 155.080714 
L 44.506341 156.593913 
L 45.248172 156.241352 
L 45.886689 156.750607 
L 46.337208 156.584959 
L 45.720709 156.298433 
L 45.166876 155.89327 
L 44.983958 155.908939 
L 44.369152 155.70412 
L 44.348828 155.371711 
L 43.988075 154.696825 
L 43.481664 154.53566 
L 43.39698 154.404713 
L 42.810967 152.947534 
L 42.770319 152.537919 
L 42.870246 152.378999 
L 43.336008 152.226793 
L 43.481664 152.05892 
L 43.447791 151.902239 
L 43.13446 151.638121 
L 43.058245 151.412055 
L 43.125992 150.859205 
L 43.302134 150.353363 
L 43.766203 149.413316 
L 44.419963 147.622802 
L 45.168569 144.302697 
L 46.345676 144.478375 
L 45.805393 143.876371 
L 45.768132 143.218428 
L 46.056057 142.867081 
L 46.426973 142.906244 
L 46.838537 143.100939 
L 47.773448 143.251996 
L 48.190093 142.813373 
L 48.637225 141.885788 
L 48.444145 141.660888 
L 48.196868 141.764946 
L 47.990239 142.052505 
L 47.819178 142.738404 
L 47.621017 142.79547 
L 47.402532 142.683577 
L 46.833456 142.200202 
L 46.401568 142.106213 
L 44.61643 142.345662 
L 44.506341 142.04803 
L 44.491097 141.416968 
L 44.618123 140.979482 
L 44.934841 140.536406 
L 45.349793 140.27459 
L 45.768132 140.385358 
L 45.547953 139.866206 
L 44.618123 139.360487 
L 44.653691 138.863725 
L 44.902662 137.569262 
L 45.110984 135.64275 
L 45.370117 134.894322 
L 45.898545 134.343919 
L 46.072994 134.807063 
L 46.345676 135.028568 
L 47.04686 135.317199 
L 47.285669 135.589051 
L 48.098635 136.695496 
L 48.378092 136.965119 
L 48.552541 136.903587 
L 49.39938 136.236804 
L 50.252995 136.142829 
L 51.040556 136.817441 
L 50.867801 136.321829 
L 49.599235 134.587796 
L 49.191058 133.028351 
L 49.83635 133.078691 
L 50.415588 133.276695 
L 50.91353 133.303543 
L 51.325094 132.842654 
L 51.50293 132.931028 
L 51.619794 132.842654 
L 51.167582 132.618924 
L 50.380021 132.367229 
L 49.782152 131.796727 
L 49.572136 131.498056 
L 49.455272 131.071867 
L 49.46374 130.400713 
L 49.831269 128.712816 
L 50.075159 127.236393 
L 50.300418 126.934405 
L 51.797631 125.42115 
L 54.707372 123.156428 
L 58.682438 122.125333 
L 61.864861 121.978835 
L 73.544475 117.911834 
L 76.720124 117.027385 
L 78.000545 116.363227 
L 78.244435 116.369935 
L 81.862135 114.880664 
L 82.558237 114.401027 
L 83.669291 112.835834 
L 84.107954 111.788321 
L 83.838659 111.177941 
L 83.996171 110.936475 
L 84.546617 110.445726 
L 85.854137 108.871809 
L 86.548546 107.42764 
L 88.172784 105.540947 
L 88.662258 104.345068 
L 88.807914 103.47781 
L 89.404089 102.805035 
L 89.546358 102.512237 
L 90.542242 101.032657 
L 91.19939 99.3051 
L 91.263749 98.663721 
L 91.433117 98.154206 
L 91.826051 97.726266 
L 92.68644 97.079342 
L 97.730217 91.341589 
L 102.099911 83.860979 
L 102.53688 82.534435 
L 102.387836 81.454726 
L 102.83158 80.543659 
L 103.044984 79.381436 
L 103.038209 78.081966 
L 102.570753 75.501134 
L 102.704554 75.056889 
L 103.182172 74.880533 
L 104.543052 75.733915 
L 105.683067 75.964276 
L 106.121866 76.265521 
L 106.801573 76.963009 
L 107.558716 77.431559 
L 107.846946 78.07663 
L 108.318009 78.164532 
L 108.453521 78.742989 
L 108.795525 79.363288 
L 108.956848 80.131777 
L 108.956848 80.896748 
L 109.240777 81.460392 
L 109.31391 82.949334 
L 108.956848 83.444253 
L 109.090208 84.105818 
L 109.80003 84.171762 
L 110.709891 84.408598 
L 111.561676 84.207217 
L 111.946701 84.236998 
L 112.209119 84.599345 
L 112.845807 86.871416 
L 113.142641 87.397628 
L 115.158103 89.890566 
L 115.41622 90.788517 
L 116.272307 90.919027 
L 117.253151 90.167182 
L 119.167517 87.758608 
L 119.326689 87.356495 
L 119.589107 85.689257 
L 120.21504 84.249762 
L 120.144058 83.771133 
L 119.494464 84.11929 
L 119.481559 83.556285 
L 119.735428 83.13625 
L 120.23655 82.499096 
L 120.615121 81.572414 
L 120.853879 79.747529 
L 120.699009 79.61354 
L 120.39142 79.68018 
L 119.982735 79.484515 
L 119.610617 78.719595 
L 119.485861 77.715813 
L 119.313783 73.901753 
L 119.193328 73.334773 
L 118.636226 71.813932 
L 118.674619 71.33008 
L 118.853475 71.112372 
L 119.969829 70.398082 
L 121.017353 69.243794 
L 121.484114 69.075156 
L 122.613375 69.175772 
L 122.944625 68.907229 
L 123.080136 68.488479 
L 123.164024 67.608495 
L 123.861998 66.842394 
L 124.226139 66.487602 
L 124.348084 66.234342 
L 124.490353 66.79665 
L 124.577213 73.26532 
L 124.757895 74.329124 
L 125.680663 77.546395 
L 125.930175 80.250172 
L 126.0958 80.639391 
L 126.371125 80.882569 
L 127.990807 81.585176 
L 128.786667 81.585176 
L 129.328713 82.065883 
L 129.911626 82.133948 
L 130.769864 82.742294 
L 131.225871 82.764983 
L 131.527007 82.331765 
L 131.475384 81.763135 
L 131.174247 81.176087 
L 130.442917 80.270022 
L 129.96325 79.42851 
L 129.690076 78.35026 
L 129.573923 77.192675 
L 129.584678 76.113126 
L 129.784719 74.553799 
L 129.694378 73.90317 
L 128.334963 68.724423 
L 127.812277 67.747363 
L 127.074493 67.078541 
L 127.061358 66.450784 
L 127.061358 66.450784 
" clip-path="url(#pdceca691b2)" style="fill: none; stroke: #000000; stroke-width: 0.5; stroke-linecap: square"/>
   </g>
  </g>
 </g>
 <defs>
  <clipPath id="pdceca691b2">
   <rect x="0" y="-0" width="223.2" height="186.405722"/>
  </clipPath>
 </defs>
</svg>
