<?xml version="1.0" encoding="utf-8" standalone="no"?>
<!DOCTYPE svg PUBLIC "-//W3C//DTD SVG 1.1//EN"
  "http://www.w3.org/Graphics/SVG/1.1/DTD/svg11.dtd">
<svg xmlns:xlink="http://www.w3.org/1999/xlink" width="223.2pt" height="195.816264pt" viewBox="0 0 223.2 195.816264" xmlns="http://www.w3.org/2000/svg" version="1.1">
 <metadata>
  <rdf:RDF xmlns:dc="http://purl.org/dc/elements/1.1/" xmlns:cc="http://creativecommons.org/ns#" xmlns:rdf="http://www.w3.org/1999/02/22-rdf-syntax-ns#">
   <cc:Work>
    <dc:type rdf:resource="http://purl.org/dc/dcmitype/StillImage"/>
    <dc:date>2026-04-26T19:22:23.684208</dc:date>
    <dc:format>image/svg+xml</dc:format>
    <dc:creator>
     <cc:Agent>
      <dc:title>Matplotlib v3.10.9, https://matplotlib.org/</dc:title>
     </cc:Agent>
    </dc:creator>
   </cc:Work>
  </rdf:RDF>
 </metadata>
 <defs>
  <style type="text/css">*{stroke-linejoin: round; stroke-linecap: butt}</style>
 </defs>
 <g id="figure_1">
  <g id="patch_1">
   <path d="M 0 195.816264 
L 223.2 195.816264 
L 223.2 0 
L 0 0 
z
" style="fill: #ffffff"/>
  </g>
  <g id="axes_1">
   <g id="patch_2">
    <path d="M 201.905694 8.900739 
L 213.054545 22.622273 
L 211.568032 41.244527 
L 207.108492 76.529341 
L 188.527073 140.239825 
L 169.202398 166.704855 
L 143.031903 186.915525 
L 103.052547 182.388022 
L 85.957642 172.586026 
L 10.145455 137.29929 
L 11.631968 125.537201 
L 144.905468 133.667562 
L 159.110116 123.064342 
L 168.459141 86.330804 
L 180.351249 35.363794 
z
" clip-path="url(#p96fda4b8e0)" style="stroke: #000000; stroke-linejoin: miter"/>
   </g>
   <g id="line2d_1">
    <path d="M 201.905694 8.900739 
L 213.054545 22.622273 
L 211.568032 41.244527 
L 207.108492 76.529341 
L 188.527073 140.239825 
L 169.202398 166.704855 
L 143.031903 186.915525 
L 103.052547 182.388022 
L 85.957642 172.586026 
L 10.145455 137.29929 
L 11.631968 125.537201 
L 144.905468 133.667562 
L 159.110116 123.064342 
L 168.459141 86.330804 
L 180.351249 35.363794 
L 201.905694 8.900739 
" clip-path="url(#p96fda4b8e0)" style="fill: none; stroke: #000000; stroke-width: 0.5; stroke-linecap: square"/>
   </g>
  </g>
 </g>
 <defs>
  <clipPath id="p96fda4b8e0">
   <rect x="0" y="0" width="223.2" height="195.816264"/>
  </clipPath>
 </defs>
</svg>
