<?xml version="1.0" encoding="utf-8" standalone="no"?>
<!DOCTYPE svg PUBLIC "-//W3C//DTD SVG 1.1//EN"
  "http://www.w3.org/Graphics/SVG/1.1/DTD/svg11.dtd">
<svg xmlns:xlink="http://www.w3.org/1999/xlink" width="223.2pt" height="188.536444pt" viewBox="0 0 223.2 188.536444" xmlns="http://www.w3.org/2000/svg" version="1.1">
 <metadata>
  <rdf:RDF xmlns:dc="http://purl.org/dc/elements/1.1/" xmlns:cc="http://creativecommons.org/ns#" xmlns:rdf="http://www.w3.org/1999/02/22-rdf-syntax-ns#">
   <cc:Work>
    <dc:type rdf:resource="http://purl.org/dc/dcmitype/StillImage"/>
    <dc:date>2026-04-26T19:22:21.595405</dc:date>
    <dc:format>image/svg+xml</dc:format>
    <dc:creator>
     <cc:Agent>
      <dc:title>Matplotlib v3.10.9, https://matplotlib.org/</dc:title>
     </cc:Agent>
    </dc:creator>
   </cc:Work>
  </rdf:RDF>
 </metadata>
 <defs>
  <style type="text/css">*{stroke-linejoin: round; stroke-linecap: butt}</style>
 </defs>
 <g id="figure_1">
  <g id="patch_1">
   <path d="M 0 188.536444 
L 223.2 188.536444 
L 223.2 0 
L 0 0 
z
" style="fill: #ffffff"/>
  </g>
  <g id="axes_1">
   <g id="patch_2">
    <path d="M 197.223325 100.795608 
L 209.753568 118.631397 
L 213.054545 140.388351 
L 208.60833 154.461353 
L 197.223325 148.947891 
L 184.356248 161.462607 
L 180.246867 168.972482 
L 180.246867 179.966606 
L 166.975588 175.285734 
L 163.337776 173.32639 
L 134.841579 170.859143 
L 94.960377 159.938961 
L 59.390656 142.74575 
L 44.09837 121.604459 
L 41.471061 118.921447 
L 29.749222 113.374454 
L 27.189279 109.132926 
L 27.189279 81.514738 
L 23.551467 50.103824 
L 18.835784 35.978838 
L 10.145455 26.817198 
L 20.654691 18.598068 
L 31.231293 12.950228 
L 42.818399 9.655861 
L 55.887577 8.569838 
L 55.887577 15.158625 
L 48.342484 16.389565 
L 43.492068 18.561863 
L 32.780732 26.817198 
L 98.261355 33.407667 
L 112.004201 38.187948 
L 139.826729 59.014865 
L 163.944078 66.514037 
L 168.120826 73.398027 
L 169.063962 82.275726 
L 168.996596 91.190767 
L 173.44281 91.951859 
z
" clip-path="url(#pd629d57223)" style="stroke: #000000; stroke-linejoin: miter"/>
   </g>
   <g id="line2d_1">
    <path d="M 197.223325 100.795608 
L 209.753568 118.631397 
L 213.054545 140.388351 
L 208.60833 154.461353 
L 197.223325 148.947891 
L 184.356248 161.462607 
L 180.246867 168.972482 
L 180.246867 179.966606 
L 166.975588 175.285734 
L 163.337776 173.32639 
L 134.841579 170.859143 
L 94.960377 159.938961 
L 59.390656 142.74575 
L 44.09837 121.604459 
L 41.471061 118.921447 
L 29.749222 113.374454 
L 27.189279 109.132926 
L 27.189279 81.514738 
L 23.551467 50.103824 
L 18.835784 35.978838 
L 10.145455 26.817198 
L 20.654691 18.598068 
L 31.231293 12.950228 
L 42.818399 9.655861 
L 55.887577 8.569838 
L 55.887577 15.158625 
L 48.342484 16.389565 
L 43.492068 18.561863 
L 32.780732 26.817198 
L 98.261355 33.407667 
L 112.004201 38.187948 
L 139.826729 59.014865 
L 163.944078 66.514037 
L 168.120826 73.398027 
L 169.063962 82.275726 
L 168.996596 91.190767 
L 173.44281 91.951859 
L 197.223325 100.795608 
" clip-path="url(#pd629d57223)" style="fill: none; stroke: #000000; stroke-width: 0.5; stroke-linecap: square"/>
   </g>
  </g>
 </g>
 <defs>
  <clipPath id="pd629d57223">
   <rect x="0" y="0" width="223.2" height="188.536444"/>
  </clipPath>
 </defs>
</svg>
