<?xml version="1.0" encoding="utf-8" standalone="no"?>
<!DOCTYPE svg PUBLIC "-//W3C//DTD SVG 1.1//EN"
  "http://www.w3.org/Graphics/SVG/1.1/DTD/svg11.dtd">
<svg xmlns:xlink="http://www.w3.org/1999/xlink" width="223.2pt" height="84.313075pt" viewBox="0 0 223.2 84.313075" xmlns="http://www.w3.org/2000/svg" version="1.1">
 <metadata>
  <rdf:RDF xmlns:dc="http://purl.org/dc/elements/1.1/" xmlns:cc="http://creativecommons.org/ns#" xmlns:rdf="http://www.w3.org/1999/02/22-rdf-syntax-ns#">
   <cc:Work>
    <dc:type rdf:resource="http://purl.org/dc/dcmitype/StillImage"/>
    <dc:date>2026-04-26T19:22:18.292307</dc:date>
    <dc:format>image/svg+xml</dc:format>
    <dc:creator>
     <cc:Agent>
      <dc:title>Matplotlib v3.10.9, https://matplotlib.org/</dc:title>
     </cc:Agent>
    </dc:creator>
   </cc:Work>
  </rdf:RDF>
 </metadata>
 <defs>
  <style type="text/css">*{stroke-linejoin: round; stroke-linecap: butt}</style>
 </defs>
 <g id="figure_1">
  <g id="patch_1">
   <path d="M 0 84.313075 
L 223.2 84.313075 
L 223.2 0 
L 0 0 
z
" style="fill: #ffffff"/>
  </g>
  <g id="axes_1">
   <g id="patch_2">
    <path d="M 213.054545 49.056487 
L 197.921717 60.560194 
L 156.306437 68.58274 
L 139.143595 80.480662 
L 123.272579 80.480662 
L 104.541089 76.938491 
L 24.447824 30.106464 
L 10.145455 15.455712 
L 18.450056 3.832412 
L 18.588466 11.036391 
L 19.557336 15.637329 
L 22.325536 24.1129 
L 118.289818 74.486239 
L 124.564406 74.365141 
L 139.235868 70.732207 
L 151.41595 65.131509 
z
" clip-path="url(#p7b6cc64669)" style="stroke: #000000; stroke-linejoin: miter"/>
   </g>
   <g id="line2d_1">
    <path d="M 213.054545 49.056487 
L 197.921717 60.560194 
L 156.306437 68.58274 
L 139.143595 80.480662 
L 123.272579 80.480662 
L 104.541089 76.938491 
L 24.447824 30.106464 
L 10.145455 15.455712 
L 18.450056 3.832412 
L 18.588466 11.036391 
L 19.557336 15.637329 
L 22.325536 24.1129 
L 118.289818 74.486239 
L 124.564406 74.365141 
L 139.235868 70.732207 
L 151.41595 65.131509 
L 213.054545 49.056487 
" clip-path="url(#p7b6cc64669)" style="fill: none; stroke: #000000; stroke-width: 0.5; stroke-linecap: square"/>
   </g>
  </g>
 </g>
 <defs>
  <clipPath id="p7b6cc64669">
   <rect x="0" y="-0" width="223.2" height="84.313075"/>
  </clipPath>
 </defs>
</svg>
