<?xml version="1.0" encoding="utf-8" standalone="no"?>
<!DOCTYPE svg PUBLIC "-//W3C//DTD SVG 1.1//EN"
  "http://www.w3.org/Graphics/SVG/1.1/DTD/svg11.dtd">
<svg xmlns:xlink="http://www.w3.org/1999/xlink" width="223.2pt" height="94.339536pt" viewBox="0 0 223.2 94.339536" xmlns="http://www.w3.org/2000/svg" version="1.1">
 <metadata>
  <rdf:RDF xmlns:dc="http://purl.org/dc/elements/1.1/" xmlns:cc="http://creativecommons.org/ns#" xmlns:rdf="http://www.w3.org/1999/02/22-rdf-syntax-ns#">
   <cc:Work>
    <dc:type rdf:resource="http://purl.org/dc/dcmitype/StillImage"/>
    <dc:date>2026-04-26T19:22:28.904200</dc:date>
    <dc:format>image/svg+xml</dc:format>
    <dc:creator>
     <cc:Agent>
      <dc:title>Matplotlib v3.10.9, https://matplotlib.org/</dc:title>
     </cc:Agent>
    </dc:creator>
   </cc:Work>
  </rdf:RDF>
 </metadata>
 <defs>
  <style type="text/css">*{stroke-linejoin: round; stroke-linecap: butt}</style>
 </defs>
 <g id="figure_1">
  <g id="patch_1">
   <path d="M 0 94.339536 
L 223.2 94.339536 
L 223.2 0 
L 0 0 
z
" style="fill: #ffffff"/>
  </g>
  <g id="axes_1">
   <g id="patch_2">
    <path d="M 10.645852 4.288161 
L 179.278063 4.288161 
L 183.531399 63.654867 
L 213.054545 64.175659 
L 204.047477 84.284854 
L 197.041955 85.070656 
L 184.532148 87.953412 
L 174.774529 90.051375 
L 175.024728 82.190276 
L 171.271791 79.0507 
L 176.525876 75.652577 
L 169.520399 67.823331 
L 167.268609 71.213857 
L 157.761189 70.431174 
L 154.508649 61.832756 
L 157.51099 61.832756 
L 157.761189 50.660543 
L 160.76353 46.2536 
L 156.760394 31.260892 
L 161.764325 22.5029 
L 169.520399 20.959732 
L 170.771393 11.972266 
L 165.016865 12.998182 
L 164.766666 17.618699 
L 152.757257 23.532028 
L 149.254519 28.940349 
L 148.503922 42.628615 
L 144.000388 49.104488 
L 146.001979 60.011551 
L 152.006661 67.562653 
L 151.256064 73.301992 
L 155.009001 79.0507 
L 153.007456 82.975616 
L 142.499195 75.391318 
L 127.487446 71.735775 
L 122.983912 64.436084 
L 114.477241 68.60548 
L 111.224702 62.873825 
L 117.97998 55.592647 
L 121.983116 48.067557 
L 127.987843 43.146241 
L 122.233315 38.490483 
L 118.480378 41.334894 
L 112.475696 36.939964 
L 102.96823 34.615562 
L 102.96823 27.651851 
L 97.964299 23.789371 
L 90.958822 23.017448 
L 85.704691 9.921437 
L 77.948617 9.921437 
L 70.192544 5.567612 
L 65.939209 9.152688 
L 58.433288 8.896478 
L 56.681942 14.024417 
L 43.17134 10.690319 
L 34.164272 17.618699 
L 28.15959 16.077795 
L 19.152523 24.046734 
L 10.145455 28.424891 
z
" clip-path="url(#pfb490aed2d)" style="stroke: #000000; stroke-linejoin: miter"/>
   </g>
   <g id="line2d_1">
    <path d="M 10.645852 4.288161 
L 179.278063 4.288161 
L 183.531399 63.654867 
L 213.054545 64.175659 
L 204.047477 84.284854 
L 197.041955 85.070656 
L 184.532148 87.953412 
L 174.774529 90.051375 
L 175.024728 82.190276 
L 171.271791 79.0507 
L 176.525876 75.652577 
L 169.520399 67.823331 
L 167.268609 71.213857 
L 157.761189 70.431174 
L 154.508649 61.832756 
L 157.51099 61.832756 
L 157.761189 50.660543 
L 160.76353 46.2536 
L 156.760394 31.260892 
L 161.764325 22.5029 
L 169.520399 20.959732 
L 170.771393 11.972266 
L 165.016865 12.998182 
L 164.766666 17.618699 
L 152.757257 23.532028 
L 149.254519 28.940349 
L 148.503922 42.628615 
L 144.000388 49.104488 
L 146.001979 60.011551 
L 152.006661 67.562653 
L 151.256064 73.301992 
L 155.009001 79.0507 
L 153.007456 82.975616 
L 142.499195 75.391318 
L 127.487446 71.735775 
L 122.983912 64.436084 
L 114.477241 68.60548 
L 111.224702 62.873825 
L 117.97998 55.592647 
L 121.983116 48.067557 
L 127.987843 43.146241 
L 122.233315 38.490483 
L 118.480378 41.334894 
L 112.475696 36.939964 
L 102.96823 34.615562 
L 102.96823 27.651851 
L 97.964299 23.789371 
L 90.958822 23.017448 
L 85.704691 9.921437 
L 77.948617 9.921437 
L 70.192544 5.567612 
L 65.939209 9.152688 
L 58.433288 8.896478 
L 56.681942 14.024417 
L 43.17134 10.690319 
L 34.164272 17.618699 
L 28.15959 16.077795 
L 19.152523 24.046734 
L 10.145455 28.424891 
L 10.645852 4.288161 
" clip-path="url(#pfb490aed2d)" style="fill: none; stroke: #000000; stroke-width: 0.5; stroke-linecap: square"/>
   </g>
  </g>
 </g>
 <defs>
  <clipPath id="pfb490aed2d">
   <rect x="0" y="-0" width="223.2" height="94.339536"/>
  </clipPath>
 </defs>
</svg>
