<?xml version="1.0" encoding="utf-8" standalone="no"?>
<!DOCTYPE svg PUBLIC "-//W3C//DTD SVG 1.1//EN"
  "http://www.w3.org/Graphics/SVG/1.1/DTD/svg11.dtd">
<svg xmlns:xlink="http://www.w3.org/1999/xlink" width="175.538229pt" height="221.76pt" viewBox="0 0 175.538229 221.76" xmlns="http://www.w3.org/2000/svg" version="1.1">
 <metadata>
  <rdf:RDF xmlns:dc="http://purl.org/dc/elements/1.1/" xmlns:cc="http://creativecommons.org/ns#" xmlns:rdf="http://www.w3.org/1999/02/22-rdf-syntax-ns#">
   <cc:Work>
    <dc:type rdf:resource="http://purl.org/dc/dcmitype/StillImage"/>
    <dc:date>2026-04-26T19:22:12.950101</dc:date>
    <dc:format>image/svg+xml</dc:format>
    <dc:creator>
     <cc:Agent>
      <dc:title>Matplotlib v3.10.9, https://matplotlib.org/</dc:title>
     </cc:Agent>
    </dc:creator>
   </cc:Work>
  </rdf:RDF>
 </metadata>
 <defs>
  <style type="text/css">*{stroke-linejoin: round; stroke-linecap: butt}</style>
 </defs>
 <g id="figure_1">
  <g id="patch_1">
   <path d="M 0 221.76 
L 175.538229 221.76 
L 175.538229 0 
L 0 0 
z
" style="fill: #ffffff"/>
  </g>
  <g id="axes_1">
   <g id="patch_2">
    <path d="M 117.304338 10.08 
L 119.881304 11.866771 
L 122.458271 13.653779 
L 125.033219 15.444191 
L 127.60884 17.234822 
L 130.185806 19.028846 
L 132.761428 20.82307 
L 135.337049 22.620675 
L 137.913342 24.419262 
L 140.489636 26.220421 
L 143.065257 28.022545 
L 145.641551 29.826426 
L 148.217845 31.632057 
L 150.399286 33.163235 
L 152.5814 34.69566 
L 154.763514 36.23013 
L 156.626261 37.538939 
L 156.945628 37.763424 
L 158.521002 38.872732 
L 160.781144 40.541924 
L 163.040615 42.211754 
L 165.299748 43.883828 
L 167.559218 45.556526 
L 164.676527 45.55895 
L 161.794845 45.560566 
L 158.911818 45.562182 
L 156.030136 45.563798 
L 153.147781 45.566223 
L 150.265426 45.567839 
L 147.382399 45.569455 
L 144.500044 45.571071 
L 144.626505 46.817847 
L 144.75162 48.062985 
L 144.876735 49.31012 
L 145.003195 50.558847 
L 145.128983 51.806327 
L 145.254098 53.0558 
L 145.379886 54.306048 
L 145.505673 55.557474 
L 145.6295 56.832333 
L 145.638188 56.921808 
L 145.73236 57.895555 
L 145.938867 60.037309 
L 146.14672 62.181286 
L 146.24022 63.156293 
L 146.423856 65.060763 
L 146.607493 66.966958 
L 146.791802 68.874873 
L 146.975439 70.784088 
L 147.159748 72.695822 
L 147.342712 74.608431 
L 147.382911 75.025719 
L 147.527021 76.522314 
L 147.710658 78.438692 
L 147.894967 80.356328 
L 148.078604 82.275211 
L 148.261568 84.196155 
L 148.445877 86.119565 
L 148.629513 88.043785 
L 148.813823 89.96963 
L 148.997459 91.897918 
L 149.181096 93.826989 
L 149.364733 95.758486 
L 149.549042 97.68992 
L 149.732678 99.623765 
L 149.916315 101.560012 
L 150.099952 103.496997 
L 150.284261 105.43554 
L 150.467898 107.375631 
L 150.651534 109.317262 
L 150.740325 110.261607 
L 150.936743 112.337103 
L 151.132487 114.41433 
L 151.221278 115.358942 
L 151.386081 117.10069 
L 151.573753 119.119211 
L 151.76008 121.140165 
L 151.947753 123.16187 
L 152.134753 125.18599 
L 152.322425 127.210423 
L 152.508753 129.237253 
L 152.69508 131.266052 
L 152.882752 133.295972 
L 152.882752 133.297651 
L 153.07917 135.534139 
L 153.163252 136.483892 
L 153.24599 137.432714 
L 153.3294 138.382286 
L 153.41281 139.331766 
L 153.545324 140.843109 
L 153.677838 142.354434 
L 153.811025 143.866579 
L 153.942867 145.379539 
L 154.074709 146.894155 
L 154.207223 148.408735 
L 154.341083 149.924119 
L 154.472924 151.441148 
L 154.605439 152.95686 
L 154.738626 154.475901 
L 154.87114 155.994038 
L 155.003654 157.512959 
L 155.13146 158.99199 
L 155.261284 160.470907 
L 155.390435 161.951404 
L 155.51824 163.433477 
L 155.648064 164.914577 
L 155.776542 166.397246 
L 155.905021 167.879783 
L 156.034844 169.363883 
L 156.163995 170.848692 
L 156.292474 172.334208 
L 156.420952 173.819575 
L 156.550776 175.306492 
L 156.679254 176.794957 
L 156.807733 178.282409 
L 156.937556 179.772254 
L 157.066707 181.261932 
L 157.123211 181.927643 
L 157.237563 182.191405 
L 157.35057 182.455188 
L 157.863139 182.891459 
L 158.342074 183.296192 
L 158.919217 183.78467 
L 159.432458 184.221117 
L 159.965879 184.672998 
L 160.487191 185.115543 
L 160.549749 185.19842 
L 160.612306 185.283008 
L 160.62576 185.38896 
L 160.63854 185.494914 
L 160.56522 185.984572 
L 160.327098 187.548884 
L 160.089648 189.114782 
L 159.850853 190.681407 
L 159.614077 192.248756 
L 159.369228 193.857942 
L 159.125052 195.467023 
L 158.880203 197.078139 
L 158.636699 198.689999 
L 158.623919 198.771061 
L 158.61475 198.833421 
L 158.611811 198.853413 
L 158.599703 198.934479 
L 158.58625 199.015977 
L 158.58625 199.019837 
L 158.58625 199.023698 
L 158.58625 199.026271 
L 158.58625 199.029703 
L 158.58625 199.033992 
L 158.58625 199.036566 
L 158.58625 199.03914 
L 158.58625 199.042571 
L 158.58625 199.044287 
L 158.584232 199.046861 
L 158.582214 199.047718 
L 158.581541 199.049434 
L 158.580868 199.052008 
L 158.57885 199.052866 
L 158.577505 199.055439 
L 158.57616 199.057155 
L 158.573469 199.057155 
L 158.570106 199.057155 
L 158.568761 199.057155 
L 158.565397 199.057155 
L 158.562707 199.057155 
L 158.560016 199.057155 
L 158.557998 199.057155 
L 158.554635 199.057155 
L 158.549926 199.055439 
L 158.54589 199.053724 
L 158.541854 199.052008 
L 158.537818 199.050292 
L 158.533782 199.049005 
L 158.529746 199.046861 
L 158.52571 199.045145 
L 158.521002 199.043429 
L 156.474765 199.042571 
L 154.728536 199.041713 
L 153.909234 199.041713 
L 153.024684 199.041713 
L 152.079595 199.041284 
L 151.077329 199.039997 
L 149.335808 199.03914 
L 148.053137 199.038549 
L 147.472536 199.038282 
L 145.503655 199.037424 
L 143.448002 199.036566 
L 141.323064 199.035279 
L 139.144986 199.033992 
L 136.931929 199.033992 
L 134.701383 199.032277 
L 132.470838 199.031419 
L 130.258454 199.030561 
L 128.080376 199.029703 
L 125.954765 199.028845 
L 123.898439 199.027558 
L 121.930231 199.026271 
L 120.066286 199.026271 
L 118.325438 199.024556 
L 117.214201 199.023698 
L 116.173594 199.023698 
L 115.208324 199.023698 
L 114.326465 199.023698 
L 113.128154 199.022228 
L 112.928002 199.021982 
L 111.329713 199.021312 
L 110.881093 199.021124 
L 108.624313 199.020266 
L 108.705705 197.505152 
L 108.883288 196.371711 
L 108.842928 195.835555 
L 108.530141 195.664997 
L 108.276547 195.862983 
L 107.481461 197.041271 
L 107.290425 197.481999 
L 107.288407 197.965235 
L 107.49626 199.015977 
L 107.652317 199.935312 
L 104.421187 200.099213 
L 103.787204 200.260976 
L 103.528229 200.399146 
L 102.790992 200.93557 
L 102.293223 201.088358 
L 100.785788 200.920549 
L 99.272972 201.193941 
L 98.743588 201.175056 
L 98.440217 201.063036 
L 97.966664 200.688376 
L 97.700962 200.530026 
L 97.600736 200.520585 
L 97.361268 200.575513 
L 97.247588 200.574655 
L 96.134333 200.023698 
L 95.953388 199.992376 
L 95.32714 200.052016 
L 94.967266 199.965775 
L 93.639432 199.938315 
L 93.443015 199.98165 
L 93.189421 199.916005 
L 92.97417 199.958052 
L 92.541693 200.141296 
L 92.507342 200.155851 
L 92.250386 200.202621 
L 91.706875 200.195326 
L 90.921879 200.046009 
L 90.711336 200.05931 
L 90.568059 200.232657 
L 90.518955 200.548907 
L 90.535099 201.236861 
L 90.432182 201.586254 
L 90.331955 201.710739 
L 90.121412 201.859697 
L 89.977462 202.129726 
L 89.868491 202.155914 
L 89.737322 202.155914 
L 89.596063 202.217737 
L 89.38552 202.474054 
L 89.29202 202.744989 
L 89.166232 203.357351 
L 89.019592 203.638231 
L 88.669136 204.050571 
L 88.556801 204.318188 
L 88.357021 205.265532 
L 88.24065 205.546131 
L 87.812837 204.729747 
L 87.329194 204.139488 
L 86.970665 203.273606 
L 86.545543 202.764741 
L 83.254883 199.760693 
L 83.011379 199.418344 
L 81.805297 197.251767 
L 81.476366 196.900232 
L 81.17165 196.741625 
L 80.427686 196.551305 
L 80.310643 196.567164 
L 80.272301 196.582167 
L 80.294499 196.652036 
L 80.328805 196.703474 
L 80.373201 196.745054 
L 80.427686 196.786205 
L 80.457283 196.868939 
L 80.467373 196.953389 
L 80.457283 197.038699 
L 80.427686 197.121009 
L 80.311988 197.283493 
L 80.159967 197.372669 
L 79.813546 197.500006 
L 79.596949 197.653932 
L 79.132813 198.264557 
L 78.752086 198.509008 
L 78.40432 198.476414 
L 78.056554 198.337033 
L 78.002014 198.326741 
L 77.672465 198.264557 
L 77.672465 198.831967 
L 77.641522 199.013403 
L 77.310573 199.461243 
L 77.143753 199.99066 
L 76.937918 201.175056 
L 76.502706 202.334516 
L 76.448893 202.600287 
L 76.374228 203.390419 
L 76.128706 204.279526 
L 76.095746 204.627498 
L 76.107181 204.783881 
L 76.147541 205.015031 
L 76.135433 205.18604 
L 75.984084 205.856405 
L 75.953142 206.3584 
L 75.930271 206.442646 
L 76.05875 206.559992 
L 76.144178 206.520446 
L 76.212789 206.442646 
L 76.295526 206.442646 
L 76.447548 206.596529 
L 76.543738 206.783088 
L 76.578717 207.019954 
L 76.551138 207.323045 
L 76.551138 207.325625 
L 76.454947 207.586174 
L 76.387008 207.882432 
L 76.320415 208.482331 
L 76.331177 208.583829 
L 76.366829 208.662965 
L 76.456965 208.815651 
L 76.457638 208.922749 
L 76.383645 208.979526 
L 76.292163 209.010495 
L 76.240368 209.037164 
L 76.195972 209.113729 
L 76.129379 209.201479 
L 76.06144 209.313751 
L 76.010991 209.466464 
L 75.908073 209.686725 
L 75.714347 209.895814 
L 75.476897 210.053283 
L 74.952894 210.193979 
L 74.766567 210.394921 
L 74.458488 210.922929 
L 74.230455 211.119606 
L 73.975517 211.207834 
L 73.715197 211.206543 
L 73.473039 211.133378 
L 73.376848 211.221176 
L 73.308236 211.482432 
L 73.203301 211.68 
L 73.059352 211.586165 
L 72.509787 210.976293 
L 72.312025 210.845035 
L 72.034215 210.903563 
L 71.473888 211.150593 
L 71.193725 211.196214 
L 70.907171 211.136821 
L 70.681493 211.004697 
L 69.959727 210.301118 
L 69.140762 209.820954 
L 68.911721 209.581755 
L 68.472473 208.931782 
L 68.292872 208.798446 
L 68.285473 208.619096 
L 67.982102 207.29123 
L 67.920217 207.12915 
L 67.807883 206.970516 
L 67.668978 206.875081 
L 67.364263 206.787386 
L 67.226031 206.686368 
L 66.998671 206.473164 
L 66.281614 205.947515 
L 66.113449 205.684075 
L 66.010868 205.556874 
L 65.889452 205.504018 
L 65.689335 205.541834 
L 65.277667 205.697827 
L 65.143432 205.719517 
L 65.134053 205.721033 
L 64.785951 205.537536 
L 64.400777 205.076619 
L 64.297599 204.95316 
L 63.969676 204.822978 
L 63.954541 204.778296 
L 63.914518 204.627498 
L 63.905773 204.496467 
L 63.976066 204.074626 
L 63.973376 203.938032 
L 63.940752 203.810463 
L 63.872477 203.696213 
L 63.754088 203.594422 
L 63.622919 203.548037 
L 63.48536 203.548037 
L 63.207214 203.619762 
L 63.082772 203.616756 
L 62.967074 203.566076 
L 62.853731 203.45484 
L 62.556078 203.08594 
L 62.477713 202.878531 
L 62.610227 202.754435 
L 63.054856 202.811545 
L 63.270781 202.768176 
L 63.341074 202.537599 
L 63.256655 202.265822 
L 63.090844 202.049016 
L 62.315601 201.394384 
L 62.157526 201.18364 
L 62.050236 200.928274 
L 62.000796 200.657478 
L 61.998778 200.101358 
L 61.974226 199.97264 
L 61.915704 199.848216 
L 61.784871 199.63499 
L 61.741821 199.522161 
L 61.689353 199.06316 
L 61.64933 198.919038 
L 61.567265 198.795938 
L 61.360758 198.677561 
L 61.156942 198.711873 
L 60.96557 198.843548 
L 60.793368 199.015119 
L 60.596615 199.16568 
L 60.409951 199.195278 
L 60.011436 199.068317 
L 59.936734 198.997104 
L 59.890993 198.844835 
L 59.866777 198.703723 
L 59.865095 198.559187 
L 59.938415 197.934789 
L 59.907809 197.701098 
L 59.813973 197.506009 
L 59.674732 197.347802 
L 59.511948 197.230331 
L 59.212277 197.130012 
L 59.117096 197.082426 
L 58.876283 196.867653 
L 58.782783 196.820499 
L 58.593092 196.807639 
L 58.202612 196.892516 
L 58.006868 196.899375 
L 57.883771 196.48701 
L 57.864936 196.34728 
L 57.879062 196.199841 
L 57.926821 196.065265 
L 58.123575 195.685567 
L 58.146445 195.563866 
L 58.131647 195.44217 
L 58.075816 195.304196 
L 57.927494 195.035977 
L 57.840048 194.920297 
L 57.735785 194.820045 
L 57.536677 194.676098 
L 57.445532 194.587848 
L 57.378266 194.474754 
L 57.361113 194.333391 
L 57.390037 194.192891 
L 57.433424 194.052397 
L 57.462348 193.912765 
L 57.458649 193.592404 
L 57.396091 193.309758 
L 57.280393 193.054539 
L 57.044625 192.715419 
L 56.989131 192.616088 
L 56.961215 192.504771 
L 56.961215 192.368627 
L 57.010992 192.08865 
L 57.019064 191.947386 
L 56.990476 191.809552 
L 56.914465 191.681996 
L 56.58587 191.373828 
L 56.471518 191.228314 
L 56.373309 191.069967 
L 56.289563 190.897934 
L 56.108617 190.339956 
L 56.090791 190.212456 
L 56.077675 189.922389 
L 56.04505 189.794904 
L 55.966685 189.67598 
L 55.608493 189.379115 
L 55.544254 189.282447 
L 55.439655 189.05918 
L 55.37508 188.971075 
L 55.178999 188.965087 
L 54.704436 189.19348 
L 54.572258 189.082276 
L 54.596137 188.825664 
L 54.814416 188.322762 
L 54.790537 188.091862 
L 54.704436 188.070483 
L 54.630107 188.073904 
L 54.558132 188.101269 
L 54.380886 188.190206 
L 53.695444 188.369799 
L 53.300591 188.58019 
L 53.202046 188.616968 
L 53.156305 188.622955 
L 52.911793 188.624665 
L 52.836791 188.644337 
L 52.480281 188.878696 
L 52.395189 188.906922 
L 52.30438 188.887249 
L 52.275791 188.865865 
L 52.190363 188.773489 
L 52.154376 188.74954 
L 52.074666 188.711906 
L 52.043051 188.688812 
L 52.026234 188.664864 
L 52.006054 188.605849 
L 51.991592 188.577625 
L 51.932734 188.524598 
L 51.797865 188.459598 
L 51.736317 188.41256 
L 51.694612 188.238952 
L 51.752791 188.020637 
L 51.82679 187.742978 
L 51.85336 187.530928 
L 51.728918 187.512973 
L 51.608175 187.520668 
L 51.493486 187.559999 
L 51.38317 187.638661 
L 51.284961 187.754949 
L 51.053902 188.167117 
L 50.96511 188.286843 
L 50.75524 188.485256 
L 50.542006 188.636639 
L 50.439425 188.682825 
L 50.333818 188.695655 
L 50.223837 188.661443 
L 50.105785 188.570782 
L 50.002532 188.447625 
L 49.920467 188.302237 
L 49.858582 188.144027 
L 49.748602 187.698515 
L 49.684026 187.564274 
L 49.598262 187.450558 
L 49.3931 187.259046 
L 49.285811 187.181247 
L 48.775261 186.997444 
L 48.553619 186.849554 
L 48.505187 186.58542 
L 48.571781 186.288829 
L 48.567072 186.149517 
L 48.509896 186.00081 
L 48.381754 185.794853 
L 48.355184 185.68718 
L 48.379399 185.547039 
L 48.461464 185.292407 
L 48.452383 185.17706 
L 48.374354 185.065135 
L 48.254621 184.98397 
L 47.998673 184.861799 
L 47.882975 184.769533 
L 47.655616 184.435518 
L 47.567497 184.335576 
L 47.135312 184.028937 
L 46.362087 183.169814 
L 45.920149 182.537998 
L 45.611733 182.26994 
L 45.519243 182.164943 
L 45.298273 181.809854 
L 45.192665 181.733037 
L 45.044343 181.700603 
L 44.732228 181.674145 
L 44.596687 181.596477 
L 44.529085 181.468458 
L 44.511932 181.17318 
L 44.467873 181.045178 
L 44.341748 180.971792 
L 43.84297 181.026405 
L 43.721218 180.958992 
L 43.69902 180.832705 
L 43.767632 180.518714 
L 43.773013 180.337842 
L 43.718528 180.214991 
L 43.617965 180.130534 
L 42.792945 179.732164 
L 42.53767 179.751782 
L 42.412891 179.811492 
L 42.071516 180.062287 
L 41.942701 180.134799 
L 41.806823 180.180013 
L 41.667582 180.199635 
L 41.52666 180.196222 
L 40.998957 180.061434 
L 40.860052 180.065699 
L 40.31486 180.254234 
L 40.170911 180.260206 
L 40.027634 180.229494 
L 39.661706 180.017074 
L 39.547353 179.977833 
L 39.418202 179.982099 
L 38.978282 180.122856 
L 38.828278 180.145036 
L 36.605132 179.94883 
L 36.208261 180.064846 
L 35.968121 180.019633 
L 35.832916 179.810639 
L 35.733954 179.571066 
L 35.721927 179.541953 
L 35.551744 179.319344 
L 35.403758 179.227234 
L 35.113168 179.374781 
L 34.979309 179.483954 
L 34.895226 179.63663 
L 34.854194 179.867792 
L 34.825269 179.974421 
L 34.761366 180.075936 
L 34.680647 180.150155 
L 34.588492 180.197929 
L 34.491629 180.209019 
L 34.398129 180.171482 
L 34.262251 180.012809 
L 34.160007 179.823435 
L 34.042291 179.663072 
L 33.854619 179.593983 
L 33.668964 179.656249 
L 33.555957 179.81917 
L 33.529723 180.032429 
L 33.607079 180.253381 
L 33.817622 180.505063 
L 33.860673 180.610007 
L 33.855964 180.732873 
L 33.800133 180.826732 
L 33.715378 180.894995 
L 33.440932 181.021285 
L 32.043141 181.290947 
L 31.833271 181.300334 
L 31.217113 181.180861 
L 30.79939 181.198781 
L 30.596246 181.252544 
L 30.048027 181.532467 
L 29.865063 181.588796 
L 29.673354 181.593917 
L 29.512588 181.509424 
L 29.423797 181.354952 
L 29.349132 181.186834 
L 29.226707 181.063098 
L 29.029617 181.041765 
L 28.840599 181.145873 
L 28.679161 181.321669 
L 28.36301 181.87643 
L 28.237895 182.020683 
L 28.083182 182.114579 
L 27.890801 182.137627 
L 27.33182 181.996783 
L 27.133384 182.035194 
L 26.979345 182.152138 
L 26.691446 182.475677 
L 26.511845 182.615688 
L 26.319464 182.695087 
L 26.119683 182.708747 
L 25.915867 182.644715 
L 25.608461 182.465433 
L 25.498144 182.425309 
L 25.075713 182.396283 
L 24.487134 182.159821 
L 24.279281 182.147017 
L 23.958422 182.217868 
L 23.848778 182.217868 
L 23.394059 182.082996 
L 23.210422 182.108604 
L 22.694491 182.390308 
L 22.5983 182.413357 
L 22.516235 182.403967 
L 22.34807 182.322014 
L 22.239772 182.290428 
L 22.142236 182.310916 
L 22.050081 182.369819 
L 21.957254 182.45092 
L 21.646484 182.504703 
L 21.352531 182.462872 
L 21.088848 182.306648 
L 20.868215 182.020683 
L 20.710812 181.73389 
L 20.614621 181.61184 
L 20.494888 181.522226 
L 20.330758 181.482967 
L 20.174028 181.517105 
L 20.024697 181.602452 
L 19.641953 181.936179 
L 19.509438 182.012147 
L 19.361453 182.044584 
L 19.215485 182.03178 
L 18.784982 181.931058 
L 18.488338 182.004465 
L 18.211202 182.211892 
L 17.971061 182.497874 
L 17.790788 182.807786 
L 17.69258 183.117727 
L 17.624641 183.776984 
L 17.091893 186.575163 
L 17.036062 186.769201 
L 16.953997 186.937604 
L 16.750853 187.101741 
L 16.270573 187.242802 
L 16.080882 187.443718 
L 15.98671 187.776325 
L 15.928861 188.896658 
L 15.702847 189.563904 
L 15.523246 190.295459 
L 15.44589 190.485432 
L 15.414948 192.288998 
L 15.287142 193.202701 
L 14.992813 193.825054 
L 15.188255 191.032469 
L 15.162832 189.567649 
L 15.033596 186.234762 
L 15.162832 185.152121 
L 15.254992 184.857467 
L 15.615687 184.013341 
L 15.724266 183.184895 
L 15.834434 182.940839 
L 15.971615 182.505214 
L 15.971085 180.731717 
L 16.074897 180.010229 
L 17.117258 176.758815 
L 17.394797 176.203926 
L 17.586532 175.089073 
L 17.808987 174.545874 
L 18.43292 173.46713 
L 19.546255 170.526429 
L 19.622525 170.122625 
L 19.805785 169.817965 
L 21.024521 165.173445 
L 21.414877 163.163807 
L 21.513392 160.983919 
L 21.737966 158.357337 
L 21.5939 155.387217 
L 21.14899 149.78188 
L 21.003864 149.198671 
L 20.334381 147.419189 
L 20.026122 145.397103 
L 19.801019 144.734461 
L 19.918072 144.347438 
L 19.896886 143.9014 
L 19.389477 141.642429 
L 19.314266 141.428237 
L 18.942448 140.366804 
L 18.37148 139.236206 
L 17.602422 138.172966 
L 17.357191 137.900763 
L 17.304756 137.866326 
L 17.258676 137.753745 
L 17.150626 137.719972 
L 17.02192 137.703417 
L 16.912281 137.639845 
L 16.691415 137.46503 
L 16.182947 137.286916 
L 15.971085 137.139269 
L 15.874688 136.951246 
L 15.657529 136.264144 
L 15.615687 135.972939 
L 15.482214 135.663237 
L 15.230628 135.404518 
L 15.082324 135.162363 
L 15.259759 134.908322 
L 16.016106 135.150454 
L 16.744381 135.025416 
L 17.376789 134.592788 
L 17.845003 133.908928 
L 18.153263 133.279453 
L 18.227414 132.963449 
L 18.343938 132.749275 
L 18.370951 132.638889 
L 18.331227 132.531152 
L 18.244363 132.468362 
L 18.158559 132.461092 
L 18.119894 132.52322 
L 18.052628 132.516611 
L 17.32859 133.455321 
L 16.956772 133.809075 
L 17.490135 132.467701 
L 17.305815 132.587333 
L 16.778279 133.108886 
L 16.5929 133.354824 
L 16.503918 133.509538 
L 16.426058 133.69005 
L 16.400635 133.882476 
L 16.463664 134.070949 
L 16.46896 134.172134 
L 16.357733 134.479681 
L 16.325954 134.635122 
L 16.293115 134.682086 
L 16.216315 134.709869 
L 16.128922 134.715822 
L 16.060067 134.695978 
L 15.998627 134.646367 
L 15.990152 134.614616 
L 15.99439 134.568976 
L 15.971085 134.473729 
L 15.949369 134.342769 
L 15.954136 133.944638 
L 15.971085 133.809075 
L 16.093965 133.555161 
L 16.434003 133.128719 
L 16.503918 132.851072 
L 16.552646 132.512645 
L 16.678704 132.34477 
L 16.85243 132.221844 
L 17.045754 132.02425 
L 18.288854 129.79687 
L 18.367243 129.711696 
L 18.455166 129.645671 
L 18.527199 129.557201 
L 18.5558 129.404035 
L 18.57169 129.080567 
L 18.612473 128.957792 
L 18.69457 128.911588 
L 18.719993 128.849543 
L 18.948804 128.555182 
L 19.009185 128.458168 
L 19.012892 128.284609 
L 18.981113 128.139436 
L 18.915965 128.014724 
L 18.823805 127.903875 
L 18.925499 127.796329 
L 18.991176 127.667016 
L 19.018718 127.517918 
L 19.009185 127.350358 
L 18.803149 127.488231 
L 18.734823 127.572014 
L 18.696688 127.314736 
L 18.883127 126.916333 
L 18.823805 126.686818 
L 18.583342 126.511397 
L 18.41862 126.649227 
L 18.322752 126.888632 
L 18.288854 127.017907 
L 18.074874 127.170935 
L 17.981654 127.096399 
L 17.974239 126.900504 
L 18.022967 126.686818 
L 18.095001 126.506781 
L 18.173919 126.368958 
L 18.94033 125.450548 
L 19.156429 125.055725 
L 19.267127 124.574634 
L 19.209924 124.175331 
L 18.81639 123.357148 
L 18.653257 122.916543 
L 18.75601 122.925104 
L 18.849229 122.915884 
L 18.933444 122.877031 
L 19.009185 122.796032 
L 19.297317 122.270589 
L 19.408544 121.948661 
L 19.453035 121.630721 
L 19.419667 121.337172 
L 19.332274 121.093671 
L 18.959397 120.420541 
L 18.879949 120.369883 
L 18.69457 120.356725 
L 18.57063 120.286989 
L 18.51025 120.135682 
L 18.471055 119.983069 
L 18.41862 119.915316 
L 18.211525 119.764689 
L 17.845003 118.700686 
L 17.725301 118.554075 
L 17.610896 118.459407 
L 17.524033 118.358826 
L 17.490135 118.199088 
L 17.526151 118.143872 
L 17.600303 118.112321 
L 17.652739 118.068938 
L 17.627315 117.978889 
L 17.590769 117.913162 
L 17.506554 117.714676 
L 17.45094 117.408433 
L 16.96048 115.905359 
L 16.832304 115.683389 
L 16.641628 115.594082 
L 16.534638 115.392494 
L 16.517689 114.991338 
L 16.461016 114.69921 
L 16.238031 114.823278 
L 15.971085 114.612563 
L 15.971085 114.492444 
L 16.560061 114.297508 
L 16.732728 114.202343 
L 16.463664 114.161653 
L 16.003924 114.252222 
L 15.793651 114.201031 
L 15.615687 113.942462 
L 15.712613 113.832218 
L 15.526705 113.380792 
L 15.439312 113.306 
L 15.162832 113.17151 
L 15.071731 113.874215 
L 15.173954 115.435174 
L 14.992813 116.044592 
L 14.860929 115.793715 
L 14.691439 115.617065 
L 14.363053 115.373453 
L 14.255533 115.234257 
L 14.088692 114.856758 
L 13.966871 114.663107 
L 13.804267 114.525919 
L 13.395903 114.274537 
L 13.296328 114.161653 
L 13.286265 113.977899 
L 13.348235 113.901776 
L 13.430861 113.874215 
L 13.474292 113.832218 
L 13.470585 113.69442 
L 13.395903 113.561878 
L 13.377895 113.442465 
L 13.316455 113.201032 
L 13.168152 113.006197 
L 12.807987 112.671011 
L 12.758729 112.547705 
L 12.762436 112.248649 
L 12.714767 112.120774 
L 12.49655 111.840784 
L 12.349306 111.08228 
L 12.269857 110.900719 
L 12.133206 110.704754 
L 12.043165 110.466863 
L 11.98914 110.213269 
L 11.963717 109.970184 
L 11.907044 110.048152 
L 11.824418 110.126122 
L 11.786283 110.190335 
L 11.597196 109.97346 
L 11.521985 109.729743 
L 11.487557 109.467055 
L 11.42241 109.191294 
L 11.339784 109.076676 
L 11.220611 108.964028 
L 11.113091 108.813402 
L 11.066482 108.582242 
L 10.996567 108.425091 
L 10.68513 107.926205 
L 10.614157 107.702984 
L 10.587674 107.47651 
L 10.521997 107.219297 
L 10.356215 106.764497 
L 10.108336 106.405952 
L 9.930902 106.52895 
L 9.591923 107.263146 
L 9.034726 108.146174 
L 8.903901 108.275153 
L 8.82922 108.463723 
L 8.926147 108.751189 
L 9.072332 108.668678 
L 9.088221 108.943725 
L 9.006125 109.53125 
L 8.978583 110.054049 
L 8.926147 110.190335 
L 8.800619 110.287968 
L 8.498716 110.393469 
L 8.392255 110.519944 
L 8.383251 110.660844 
L 8.443102 110.782745 
L 8.570219 110.950532 
L 8.663968 111.207479 
L 8.672442 111.313674 
L 8.659201 111.510344 
L 8.535262 112.190941 
L 8.424564 112.545082 
L 8.295328 112.720859 
L 7.97901 110.983213 
L 8.027778 110.503784 
L 8.332494 109.039436 
L 8.418931 108.525457 
L 8.971523 106.683336 
L 9.221753 105.141545 
L 9.447767 103.747634 
L 9.571537 103.614843 
L 11.081662 103.614843 
L 11.620464 103.614843 
L 13.140679 103.614013 
L 15.503066 103.614013 
L 18.567712 103.614013 
L 22.195376 103.612353 
L 26.24278 103.611523 
L 30.571358 103.611523 
L 35.039848 103.609864 
L 39.508339 103.609864 
L 43.836243 103.609034 
L 44.238301 103.608951 
L 47.884321 103.608204 
L 51.510639 103.607374 
L 54.575958 103.606544 
L 56.939354 103.606544 
L 58.459233 103.606544 
L 58.997698 103.605714 
L 60.904357 103.605714 
L 60.76209 101.006994 
L 60.685083 99.617971 
L 60.31746 92.998159 
L 60.102713 89.004031 
L 59.887966 85.016862 
L 59.718455 83.98547 
L 59.085481 81.938907 
L 58.948594 80.922491 
L 59.120459 79.852325 
L 59.542218 78.842612 
L 60.655809 77.069035 
L 60.904357 76.707273 
L 62.207976 75.690804 
L 63.837162 74.424879 
L 65.239325 73.332898 
L 66.056609 72.697869 
L 66.851358 72.389634 
L 69.044235 72.037244 
L 69.51308 71.87969 
L 72.367856 70.346085 
L 73.693672 69.940471 
L 73.867891 69.687001 
L 73.920358 69.146229 
L 73.920358 67.86944 
L 73.920358 66.67547 
L 73.920358 65.480949 
L 73.920358 64.287105 
L 73.920358 63.094756 
L 73.920358 61.902273 
L 73.920358 60.71088 
L 73.920358 59.520986 
L 73.920358 58.330965 
L 73.920358 57.141633 
L 73.920358 55.952992 
L 73.920358 54.76545 
L 73.920358 53.578198 
L 73.920358 52.392453 
L 73.920358 51.206192 
L 73.920358 50.021037 
L 73.920358 48.836586 
L 73.920358 47.653649 
L 73.920358 46.470611 
L 73.920358 45.287878 
L 73.920358 44.107068 
L 73.920358 42.927375 
L 73.920358 41.747186 
L 73.920358 40.566909 
L 73.920358 39.388158 
L 73.920358 38.210934 
L 73.920358 37.033628 
L 73.920358 35.857049 
L 73.920358 34.682 
L 73.920358 33.506878 
L 73.920358 32.332488 
L 73.920358 31.159634 
L 73.920358 29.985912 
L 75.231376 29.98511 
L 76.543066 29.98511 
L 77.852738 29.98511 
L 79.164428 29.98511 
L 80.475445 29.98511 
L 81.787135 29.98511 
L 83.098153 29.98511 
L 84.40917 29.98511 
L 85.72086 29.98511 
L 87.031205 29.98511 
L 88.342895 29.98511 
L 89.653912 29.98511 
L 90.964929 29.98511 
L 92.275947 29.98511 
L 93.586964 29.98511 
L 94.898654 29.98511 
L 96.209672 29.98511 
L 97.520016 29.98511 
L 98.831706 29.98511 
L 100.142724 29.98511 
L 101.454414 29.98511 
L 102.764758 29.98511 
L 104.075776 29.98511 
L 105.387466 29.98511 
L 106.698483 29.98511 
L 108.0095 29.98511 
L 109.320518 29.98511 
L 110.631535 29.98511 
L 111.943225 29.98511 
L 113.25357 29.98511 
L 114.564587 29.98511 
L 115.87695 29.984309 
L 116.981124 29.984309 
L 117.235726 29.906568 
L 117.324854 29.703014 
L 117.324854 29.001165 
L 117.324181 28.787298 
L 117.324181 28.184278 
L 117.323172 27.246904 
L 117.321827 26.030868 
L 117.320482 24.595063 
L 117.318464 22.993505 
L 117.316446 21.281676 
L 117.3151 19.515684 
L 117.313755 17.752221 
L 117.311737 16.045375 
L 117.310392 14.450618 
L 117.308374 13.023237 
L 117.306356 11.818371 
L 117.306356 10.888698 
L 117.305683 10.29086 
z
" clip-path="url(#p8503bf4dde)" style="stroke: #000000; stroke-linejoin: miter"/>
   </g>
   <g id="line2d_1">
    <path d="M 117.304338 10.08 
L 148.217845 31.632057 
L 160.781144 40.541924 
L 167.559218 45.556526 
L 144.500044 45.571071 
L 147.382911 75.025719 
L 152.882752 133.297651 
L 157.237563 182.191405 
L 157.35057 182.455188 
L 160.612306 185.283008 
L 160.63854 185.494914 
L 158.554635 199.057155 
L 158.521002 199.043429 
L 108.624313 199.020266 
L 108.705705 197.505152 
L 108.883288 196.371711 
L 108.842928 195.835555 
L 108.530141 195.664997 
L 108.276547 195.862983 
L 107.290425 197.481999 
L 107.288407 197.965235 
L 107.652317 199.935312 
L 104.421187 200.099213 
L 103.528229 200.399146 
L 102.790992 200.93557 
L 102.293223 201.088358 
L 100.785788 200.920549 
L 99.272972 201.193941 
L 98.440217 201.063036 
L 97.600736 200.520585 
L 97.247588 200.574655 
L 95.953388 199.992376 
L 95.32714 200.052016 
L 94.967266 199.965775 
L 92.97417 199.958052 
L 92.250386 200.202621 
L 91.706875 200.195326 
L 90.711336 200.05931 
L 90.568059 200.232657 
L 90.518955 200.548907 
L 90.432182 201.586254 
L 89.868491 202.155914 
L 89.596063 202.217737 
L 89.29202 202.744989 
L 89.019592 203.638231 
L 88.556801 204.318188 
L 88.24065 205.546131 
L 87.812837 204.729747 
L 87.329194 204.139488 
L 86.970665 203.273606 
L 86.545543 202.764741 
L 83.011379 199.418344 
L 81.805297 197.251767 
L 81.476366 196.900232 
L 81.17165 196.741625 
L 80.272301 196.582167 
L 80.427686 197.121009 
L 80.159967 197.372669 
L 79.596949 197.653932 
L 79.132813 198.264557 
L 78.752086 198.509008 
L 78.056554 198.337033 
L 77.672465 198.264557 
L 77.641522 199.013403 
L 77.310573 199.461243 
L 77.143753 199.99066 
L 76.937918 201.175056 
L 76.448893 202.600287 
L 76.374228 203.390419 
L 76.095746 204.627498 
L 76.135433 205.18604 
L 75.930271 206.442646 
L 76.144178 206.520446 
L 76.295526 206.442646 
L 76.543738 206.783088 
L 76.551138 207.325625 
L 76.387008 207.882432 
L 76.366829 208.662965 
L 76.457638 208.922749 
L 76.06144 209.313751 
L 75.908073 209.686725 
L 75.476897 210.053283 
L 74.952894 210.193979 
L 74.766567 210.394921 
L 74.230455 211.119606 
L 73.715197 211.206543 
L 73.473039 211.133378 
L 73.376848 211.221176 
L 73.203301 211.68 
L 73.059352 211.586165 
L 72.312025 210.845035 
L 72.034215 210.903563 
L 71.193725 211.196214 
L 70.681493 211.004697 
L 69.959727 210.301118 
L 68.911721 209.581755 
L 68.285473 208.619096 
L 67.807883 206.970516 
L 66.113449 205.684075 
L 65.889452 205.504018 
L 65.134053 205.721033 
L 64.785951 205.537536 
L 64.297599 204.95316 
L 63.954541 204.778296 
L 63.905773 204.496467 
L 63.940752 203.810463 
L 63.754088 203.594422 
L 63.48536 203.548037 
L 63.082772 203.616756 
L 62.853731 203.45484 
L 62.477713 202.878531 
L 62.610227 202.754435 
L 63.270781 202.768176 
L 63.341074 202.537599 
L 63.090844 202.049016 
L 62.157526 201.18364 
L 62.000796 200.657478 
L 61.915704 199.848216 
L 61.741821 199.522161 
L 61.567265 198.795938 
L 61.360758 198.677561 
L 60.96557 198.843548 
L 60.596615 199.16568 
L 60.409951 199.195278 
L 59.936734 198.997104 
L 59.865095 198.559187 
L 59.907809 197.701098 
L 59.674732 197.347802 
L 59.212277 197.130012 
L 58.593092 196.807639 
L 58.006868 196.899375 
L 57.879062 196.199841 
L 58.131647 195.44217 
L 57.840048 194.920297 
L 57.361113 194.333391 
L 57.458649 193.592404 
L 57.280393 193.054539 
L 56.961215 192.504771 
L 56.914465 191.681996 
L 56.373309 191.069967 
L 56.108617 190.339956 
L 55.966685 189.67598 
L 55.544254 189.282447 
L 55.37508 188.971075 
L 55.178999 188.965087 
L 54.704436 189.19348 
L 54.572258 189.082276 
L 54.596137 188.825664 
L 54.814416 188.322762 
L 54.704436 188.070483 
L 54.380886 188.190206 
L 53.300591 188.58019 
L 52.275791 188.865865 
L 51.694612 188.238952 
L 51.85336 187.530928 
L 51.493486 187.559999 
L 51.284961 187.754949 
L 50.75524 188.485256 
L 50.333818 188.695655 
L 50.105785 188.570782 
L 49.858582 188.144027 
L 49.598262 187.450558 
L 49.285811 187.181247 
L 48.553619 186.849554 
L 48.505187 186.58542 
L 48.567072 186.149517 
L 48.379399 185.547039 
L 48.452383 185.17706 
L 48.254621 184.98397 
L 47.882975 184.769533 
L 47.567497 184.335576 
L 47.135312 184.028937 
L 45.519243 182.164943 
L 45.192665 181.733037 
L 44.596687 181.596477 
L 44.529085 181.468458 
L 44.467873 181.045178 
L 44.341748 180.971792 
L 43.721218 180.958992 
L 43.69902 180.832705 
L 43.773013 180.337842 
L 43.617965 180.130534 
L 42.792945 179.732164 
L 42.412891 179.811492 
L 41.806823 180.180013 
L 41.52666 180.196222 
L 40.860052 180.065699 
L 40.170911 180.260206 
L 40.027634 180.229494 
L 39.418202 179.982099 
L 38.828278 180.145036 
L 36.605132 179.94883 
L 35.968121 180.019633 
L 35.403758 179.227234 
L 34.979309 179.483954 
L 34.491629 180.209019 
L 34.262251 180.012809 
L 34.042291 179.663072 
L 33.854619 179.593983 
L 33.668964 179.656249 
L 33.529723 180.032429 
L 33.607079 180.253381 
L 33.860673 180.610007 
L 33.800133 180.826732 
L 33.440932 181.021285 
L 31.833271 181.300334 
L 30.79939 181.198781 
L 30.596246 181.252544 
L 29.865063 181.588796 
L 29.512588 181.509424 
L 29.226707 181.063098 
L 29.029617 181.041765 
L 28.679161 181.321669 
L 28.237895 182.020683 
L 27.890801 182.137627 
L 27.133384 182.035194 
L 26.119683 182.708747 
L 24.279281 182.147017 
L 23.848778 182.217868 
L 23.210422 182.108604 
L 22.516235 182.403967 
L 22.142236 182.310916 
L 21.646484 182.504703 
L 21.352531 182.462872 
L 21.088848 182.306648 
L 20.330758 181.482967 
L 20.024697 181.602452 
L 19.361453 182.044584 
L 18.488338 182.004465 
L 17.971061 182.497874 
L 17.69258 183.117727 
L 17.624641 183.776984 
L 16.953997 186.937604 
L 16.750853 187.101741 
L 16.270573 187.242802 
L 16.080882 187.443718 
L 15.98671 187.776325 
L 15.928861 188.896658 
L 15.44589 190.485432 
L 15.414948 192.288998 
L 15.287142 193.202701 
L 14.992813 193.825054 
L 15.188255 191.032469 
L 15.162832 185.152121 
L 15.971615 182.505214 
L 16.074897 180.010229 
L 17.808987 174.545874 
L 18.43292 173.46713 
L 19.805785 169.817965 
L 21.024521 165.173445 
L 21.414877 163.163807 
L 21.737966 158.357337 
L 21.5939 155.387217 
L 21.003864 149.198671 
L 20.334381 147.419189 
L 20.026122 145.397103 
L 19.801019 144.734461 
L 19.918072 144.347438 
L 19.896886 143.9014 
L 19.314266 141.428237 
L 18.942448 140.366804 
L 18.37148 139.236206 
L 17.150626 137.719972 
L 16.912281 137.639845 
L 16.691415 137.46503 
L 15.971085 137.139269 
L 15.874688 136.951246 
L 15.482214 135.663237 
L 15.082324 135.162363 
L 15.259759 134.908322 
L 16.016106 135.150454 
L 16.744381 135.025416 
L 17.376789 134.592788 
L 18.153263 133.279453 
L 18.244363 132.468362 
L 18.052628 132.516611 
L 16.956772 133.809075 
L 17.490135 132.467701 
L 17.305815 132.587333 
L 16.503918 133.509538 
L 16.400635 133.882476 
L 16.46896 134.172134 
L 16.216315 134.709869 
L 15.990152 134.614616 
L 16.093965 133.555161 
L 16.434003 133.128719 
L 16.678704 132.34477 
L 17.045754 132.02425 
L 18.57169 129.080567 
L 18.719993 128.849543 
L 19.009185 128.458168 
L 18.915965 128.014724 
L 18.823805 127.903875 
L 18.991176 127.667016 
L 19.009185 127.350358 
L 18.734823 127.572014 
L 18.696688 127.314736 
L 18.883127 126.916333 
L 18.823805 126.686818 
L 18.583342 126.511397 
L 18.41862 126.649227 
L 18.288854 127.017907 
L 18.074874 127.170935 
L 17.981654 127.096399 
L 18.022967 126.686818 
L 18.173919 126.368958 
L 19.156429 125.055725 
L 19.267127 124.574634 
L 19.209924 124.175331 
L 18.653257 122.916543 
L 18.933444 122.877031 
L 19.009185 122.796032 
L 19.408544 121.948661 
L 19.419667 121.337172 
L 19.332274 121.093671 
L 18.879949 120.369883 
L 18.57063 120.286989 
L 18.41862 119.915316 
L 18.211525 119.764689 
L 17.725301 118.554075 
L 17.524033 118.358826 
L 17.526151 118.143872 
L 17.652739 118.068938 
L 16.96048 115.905359 
L 16.832304 115.683389 
L 16.641628 115.594082 
L 16.534638 115.392494 
L 16.461016 114.69921 
L 16.238031 114.823278 
L 15.971085 114.492444 
L 16.732728 114.202343 
L 16.463664 114.161653 
L 15.793651 114.201031 
L 15.615687 113.942462 
L 15.712613 113.832218 
L 15.439312 113.306 
L 15.162832 113.17151 
L 15.071731 113.874215 
L 15.173954 115.435174 
L 14.992813 116.044592 
L 14.691439 115.617065 
L 14.255533 115.234257 
L 13.966871 114.663107 
L 13.286265 113.977899 
L 13.470585 113.69442 
L 12.762436 112.248649 
L 11.963717 109.970184 
L 11.907044 110.048152 
L 11.786283 110.190335 
L 11.521985 109.729743 
L 11.339784 109.076676 
L 11.113091 108.813402 
L 10.996567 108.425091 
L 10.614157 107.702984 
L 10.521997 107.219297 
L 10.108336 106.405952 
L 9.930902 106.52895 
L 9.591923 107.263146 
L 8.82922 108.463723 
L 8.926147 108.751189 
L 9.072332 108.668678 
L 9.088221 108.943725 
L 8.800619 110.287968 
L 8.392255 110.519944 
L 8.443102 110.782745 
L 8.663968 111.207479 
L 8.659201 111.510344 
L 8.424564 112.545082 
L 8.295328 112.720859 
L 7.97901 110.983213 
L 8.027778 110.503784 
L 8.418931 108.525457 
L 8.971523 106.683336 
L 9.571537 103.614843 
L 60.904357 103.605714 
L 59.887966 85.016862 
L 59.718455 83.98547 
L 59.085481 81.938907 
L 58.948594 80.922491 
L 59.120459 79.852325 
L 59.542218 78.842612 
L 60.904357 76.707273 
L 66.056609 72.697869 
L 66.851358 72.389634 
L 69.51308 71.87969 
L 72.367856 70.346085 
L 73.693672 69.940471 
L 73.867891 69.687001 
L 73.920358 69.146229 
L 73.920358 29.985912 
L 117.235726 29.906568 
L 117.324854 29.703014 
L 117.304338 10.08 
L 117.304338 10.08 
" clip-path="url(#p8503bf4dde)" style="fill: none; stroke: #000000; stroke-width: 0.5; stroke-linecap: square"/>
   </g>
  </g>
 </g>
 <defs>
  <clipPath id="p8503bf4dde">
   <rect x="0" y="-0" width="175.538229" height="221.76"/>
  </clipPath>
 </defs>
</svg>
