<?xml version="1.0" encoding="utf-8" standalone="no"?>
<!DOCTYPE svg PUBLIC "-//W3C//DTD SVG 1.1//EN"
  "http://www.w3.org/Graphics/SVG/1.1/DTD/svg11.dtd">
<svg xmlns:xlink="http://www.w3.org/1999/xlink" width="223.2pt" height="198.31042pt" viewBox="0 0 223.2 198.31042" xmlns="http://www.w3.org/2000/svg" version="1.1">
 <metadata>
  <rdf:RDF xmlns:dc="http://purl.org/dc/elements/1.1/" xmlns:cc="http://creativecommons.org/ns#" xmlns:rdf="http://www.w3.org/1999/02/22-rdf-syntax-ns#">
   <cc:Work>
    <dc:type rdf:resource="http://purl.org/dc/dcmitype/StillImage"/>
    <dc:date>2026-04-26T19:22:29.164735</dc:date>
    <dc:format>image/svg+xml</dc:format>
    <dc:creator>
     <cc:Agent>
      <dc:title>Matplotlib v3.10.9, https://matplotlib.org/</dc:title>
     </cc:Agent>
    </dc:creator>
   </cc:Work>
  </rdf:RDF>
 </metadata>
 <defs>
  <style type="text/css">*{stroke-linejoin: round; stroke-linecap: butt}</style>
 </defs>
 <g id="figure_1">
  <g id="patch_1">
   <path d="M 0 198.31042 
L 223.2 198.31042 
L 223.2 0 
L 0 0 
z
" style="fill: #ffffff"/>
  </g>
  <g id="axes_1">
   <g id="patch_2">
    <path d="M 165.162944 187.544484 
L 102.903893 189.29631 
L 102.903893 186.293778 
L 48.458727 186.293778 
L 10.145455 186.293778 
L 19.47172 180.297757 
L 25.773222 170.08272 
L 31.570641 163.871462 
L 35.855679 155.198077 
L 38.37627 142.852743 
L 37.368015 129.580051 
L 23.756758 103.709284 
L 28.041795 94.010218 
L 25.01703 82.417604 
L 35.603615 70.635749 
L 37.872142 60.818259 
L 36.359806 55.565684 
L 43.921626 53.419988 
L 44.929881 46.28079 
L 56.776738 44.380417 
L 65.85094 36.556417 
L 65.094749 52.228757 
L 69.883913 52.943455 
L 75.933351 45.092905 
L 76.185415 31.826471 
L 79.966324 28.520869 
L 92.569373 26.398139 
L 88.536399 17.220874 
L 96.85441 9.482325 
L 107.188931 9.01411 
L 118.783724 13.934806 
L 130.126454 14.63859 
L 135.67181 20.746536 
L 144.241884 21.217014 
L 158.609379 26.869699 
L 163.650561 26.633908 
L 171.464491 35.846347 
L 165.162944 40.821035 
L 171.212427 47.231535 
L 173.480955 54.611819 
L 170.7083 70.875669 
L 161.382034 74.957629 
L 159.113506 83.381734 
L 148.022794 86.27619 
L 141.973357 96.431729 
L 144.241884 100.31065 
L 155.33255 103.95221 
L 163.902625 98.370468 
L 173.985082 87.000309 
L 189.864913 82.658604 
L 197.678796 86.034861 
L 202.467961 92.316506 
L 207.257126 110.762898 
L 208.013317 120.033246 
L 213.054545 131.297026 
L 208.265381 147.537663 
L 200.703561 150.006537 
L 200.451497 144.084879 
L 195.410269 145.81077 
L 189.612849 159.407584 
L 180.286629 164.616118 
L 177.513928 175.061249 
L 165.919135 183.793989 
z
" clip-path="url(#p13943deba6)" style="stroke: #000000; stroke-linejoin: miter"/>
   </g>
   <g id="line2d_1">
    <path d="M 165.162944 187.544484 
L 102.903893 189.29631 
L 102.903893 186.293778 
L 48.458727 186.293778 
L 10.145455 186.293778 
L 19.47172 180.297757 
L 25.773222 170.08272 
L 31.570641 163.871462 
L 35.855679 155.198077 
L 38.37627 142.852743 
L 37.368015 129.580051 
L 23.756758 103.709284 
L 28.041795 94.010218 
L 25.01703 82.417604 
L 35.603615 70.635749 
L 37.872142 60.818259 
L 36.359806 55.565684 
L 43.921626 53.419988 
L 44.929881 46.28079 
L 56.776738 44.380417 
L 65.85094 36.556417 
L 65.094749 52.228757 
L 69.883913 52.943455 
L 75.933351 45.092905 
L 76.185415 31.826471 
L 79.966324 28.520869 
L 92.569373 26.398139 
L 88.536399 17.220874 
L 96.85441 9.482325 
L 107.188931 9.01411 
L 118.783724 13.934806 
L 130.126454 14.63859 
L 135.67181 20.746536 
L 144.241884 21.217014 
L 158.609379 26.869699 
L 163.650561 26.633908 
L 171.464491 35.846347 
L 165.162944 40.821035 
L 171.212427 47.231535 
L 173.480955 54.611819 
L 170.7083 70.875669 
L 161.382034 74.957629 
L 159.113506 83.381734 
L 148.022794 86.27619 
L 141.973357 96.431729 
L 144.241884 100.31065 
L 155.33255 103.95221 
L 163.902625 98.370468 
L 173.985082 87.000309 
L 189.864913 82.658604 
L 197.678796 86.034861 
L 202.467961 92.316506 
L 207.257126 110.762898 
L 208.013317 120.033246 
L 213.054545 131.297026 
L 208.265381 147.537663 
L 200.703561 150.006537 
L 200.451497 144.084879 
L 195.410269 145.81077 
L 189.612849 159.407584 
L 180.286629 164.616118 
L 177.513928 175.061249 
L 165.919135 183.793989 
L 165.162944 187.544484 
" clip-path="url(#p13943deba6)" style="fill: none; stroke: #000000; stroke-width: 0.5; stroke-linecap: square"/>
   </g>
  </g>
 </g>
 <defs>
  <clipPath id="p13943deba6">
   <rect x="0" y="0" width="223.2" height="198.31042"/>
  </clipPath>
 </defs>
</svg>
