<?xml version="1.0" encoding="utf-8" standalone="no"?>
<!DOCTYPE svg PUBLIC "-//W3C//DTD SVG 1.1//EN"
  "http://www.w3.org/Graphics/SVG/1.1/DTD/svg11.dtd">
<svg xmlns:xlink="http://www.w3.org/1999/xlink" width="223.2pt" height="158.165422pt" viewBox="0 0 223.2 158.165422" xmlns="http://www.w3.org/2000/svg" version="1.1">
 <metadata>
  <rdf:RDF xmlns:dc="http://purl.org/dc/elements/1.1/" xmlns:cc="http://creativecommons.org/ns#" xmlns:rdf="http://www.w3.org/1999/02/22-rdf-syntax-ns#">
   <cc:Work>
    <dc:type rdf:resource="http://purl.org/dc/dcmitype/StillImage"/>
    <dc:date>2026-04-26T19:22:29.290998</dc:date>
    <dc:format>image/svg+xml</dc:format>
    <dc:creator>
     <cc:Agent>
      <dc:title>Matplotlib v3.10.9, https://matplotlib.org/</dc:title>
     </cc:Agent>
    </dc:creator>
   </cc:Work>
  </rdf:RDF>
 </metadata>
 <defs>
  <style type="text/css">*{stroke-linejoin: round; stroke-linecap: butt}</style>
 </defs>
 <g id="figure_1">
  <g id="patch_1">
   <path d="M 0 158.165422 
L 223.2 158.165422 
L 223.2 0 
L 0 0 
z
" style="fill: #ffffff"/>
  </g>
  <g id="axes_1">
   <g id="patch_2">
    <path d="M 149.116281 70.752652 
L 147.072597 69.686662 
L 141.671414 71.68607 
L 141.671414 86.170206 
L 140.065668 87.654105 
L 132.474821 89.680184 
L 126.343768 94.961868 
L 125.90583 98.494094 
L 128.97137 98.766148 
L 132.328842 101.898787 
L 129.263302 105.72174 
L 129.847219 109.966234 
L 127.949514 119.182352 
L 134.956444 123.74294 
L 140.503606 124.158213 
L 143.277187 126.929798 
L 151.451924 129.706514 
L 152.765738 133.045335 
L 160.356585 137.368843 
L 164.589933 138.3468 
L 169.699157 143.947159 
L 168.96926 148.020083 
L 170.429054 150.976085 
L 166.341658 150.976085 
L 30.87431 150.976085 
L 30.87431 105.448354 
L 24.74323 102.580716 
L 20.071944 97.814127 
L 27.370832 92.521684 
L 27.954749 89.680184 
L 26.932894 79.847906 
L 23.721401 77.300389 
L 21.531711 71.952887 
L 21.969649 65.431312 
L 20.94782 64.369629 
L 20.071944 48.940755 
L 14.816741 40.839865 
L 12.773056 36.28994 
L 11.89718 26.725271 
L 13.648932 23.510969 
L 10.145455 16.087075 
L 65.471017 16.087075 
L 65.471017 7.189337 
L 70.72622 7.442614 
L 74.229698 9.217091 
L 77.73315 21.330177 
L 80.506731 22.740837 
L 89.265412 23.125853 
L 90.287241 24.281622 
L 100.505689 24.795666 
L 101.673524 27.369169 
L 110.432178 26.725271 
L 110.432178 25.69575 
L 117.293128 24.410112 
L 123.278228 24.924211 
L 130.139178 26.854023 
L 132.036883 29.302904 
L 135.978299 29.044891 
L 139.62773 34.345068 
L 141.379455 32.144629 
L 148.094452 31.110512 
L 149.26226 33.309086 
L 157.145066 34.863399 
L 157.145066 36.938891 
L 161.086455 38.627801 
L 169.115239 37.718112 
L 173.932505 35.38195 
L 180.501496 33.956487 
L 182.837166 37.458317 
L 187.362472 36.67926 
L 192.763628 37.458317 
L 199.040687 36.938891 
L 206.193596 39.928551 
L 213.054545 39.408087 
L 212.470628 40.709633 
L 203.565994 43.708391 
L 191.157882 46.060263 
L 183.129098 48.54757 
L 171.596862 54.721389 
L 166.633617 58.545653 
L 159.042771 62.911185 
L 147.072597 68.754648 
z
" clip-path="url(#pe6620e8f85)" style="stroke: #000000; stroke-linejoin: miter"/>
   </g>
   <g id="line2d_1">
    <path d="M 149.116281 70.752652 
L 147.072597 69.686662 
L 141.671414 71.68607 
L 141.671414 86.170206 
L 140.065668 87.654105 
L 132.474821 89.680184 
L 126.343768 94.961868 
L 125.90583 98.494094 
L 128.97137 98.766148 
L 132.328842 101.898787 
L 129.263302 105.72174 
L 129.847219 109.966234 
L 127.949514 119.182352 
L 134.956444 123.74294 
L 140.503606 124.158213 
L 143.277187 126.929798 
L 151.451924 129.706514 
L 152.765738 133.045335 
L 160.356585 137.368843 
L 164.589933 138.3468 
L 169.699157 143.947159 
L 168.96926 148.020083 
L 170.429054 150.976085 
L 166.341658 150.976085 
L 30.87431 150.976085 
L 30.87431 105.448354 
L 24.74323 102.580716 
L 20.071944 97.814127 
L 27.370832 92.521684 
L 27.954749 89.680184 
L 26.932894 79.847906 
L 23.721401 77.300389 
L 21.531711 71.952887 
L 21.969649 65.431312 
L 20.94782 64.369629 
L 20.071944 48.940755 
L 14.816741 40.839865 
L 12.773056 36.28994 
L 11.89718 26.725271 
L 13.648932 23.510969 
L 10.145455 16.087075 
L 65.471017 16.087075 
L 65.471017 7.189337 
L 70.72622 7.442614 
L 74.229698 9.217091 
L 77.73315 21.330177 
L 80.506731 22.740837 
L 89.265412 23.125853 
L 90.287241 24.281622 
L 100.505689 24.795666 
L 101.673524 27.369169 
L 110.432178 26.725271 
L 110.432178 25.69575 
L 117.293128 24.410112 
L 123.278228 24.924211 
L 130.139178 26.854023 
L 132.036883 29.302904 
L 135.978299 29.044891 
L 139.62773 34.345068 
L 141.379455 32.144629 
L 148.094452 31.110512 
L 149.26226 33.309086 
L 157.145066 34.863399 
L 157.145066 36.938891 
L 161.086455 38.627801 
L 169.115239 37.718112 
L 173.932505 35.38195 
L 180.501496 33.956487 
L 182.837166 37.458317 
L 187.362472 36.67926 
L 192.763628 37.458317 
L 199.040687 36.938891 
L 206.193596 39.928551 
L 213.054545 39.408087 
L 212.470628 40.709633 
L 203.565994 43.708391 
L 191.157882 46.060263 
L 183.129098 48.54757 
L 171.596862 54.721389 
L 166.633617 58.545653 
L 159.042771 62.911185 
L 147.072597 68.754648 
L 149.116281 70.752652 
" clip-path="url(#pe6620e8f85)" style="fill: none; stroke: #000000; stroke-width: 0.5; stroke-linecap: square"/>
   </g>
  </g>
 </g>
 <defs>
  <clipPath id="pe6620e8f85">
   <rect x="0" y="-0" width="223.2" height="158.165422"/>
  </clipPath>
 </defs>
</svg>
