<?xml version="1.0" encoding="utf-8" standalone="no"?>
<!DOCTYPE svg PUBLIC "-//W3C//DTD SVG 1.1//EN"
  "http://www.w3.org/Graphics/SVG/1.1/DTD/svg11.dtd">
<svg xmlns:xlink="http://www.w3.org/1999/xlink" width="223.2pt" height="161.993117pt" viewBox="0 0 223.2 161.993117" xmlns="http://www.w3.org/2000/svg" version="1.1">
 <metadata>
  <rdf:RDF xmlns:dc="http://purl.org/dc/elements/1.1/" xmlns:cc="http://creativecommons.org/ns#" xmlns:rdf="http://www.w3.org/1999/02/22-rdf-syntax-ns#">
   <cc:Work>
    <dc:type rdf:resource="http://purl.org/dc/dcmitype/StillImage"/>
    <dc:date>2026-04-26T19:22:29.555087</dc:date>
    <dc:format>image/svg+xml</dc:format>
    <dc:creator>
     <cc:Agent>
      <dc:title>Matplotlib v3.10.9, https://matplotlib.org/</dc:title>
     </cc:Agent>
    </dc:creator>
   </cc:Work>
  </rdf:RDF>
 </metadata>
 <defs>
  <style type="text/css">*{stroke-linejoin: round; stroke-linecap: butt}</style>
 </defs>
 <g id="figure_1">
  <g id="patch_1">
   <path d="M 0 161.993117 
L 223.2 161.993117 
L 223.2 0 
L 0 0 
z
" style="fill: #ffffff"/>
  </g>
  <g id="axes_1">
   <g id="patch_2">
    <path d="M 130.449927 7.532461 
L 133.633475 7.363324 
L 139.833016 13.630405 
L 143.184122 14.648459 
L 140.503243 19.065611 
L 140.838357 25.367358 
L 144.692102 34.94022 
L 154.075192 43.007002 
L 164.296035 49.723072 
L 166.306716 60.094795 
L 168.652481 62.00145 
L 172.171113 59.055504 
L 178.873324 60.441341 
L 183.22977 62.695142 
L 180.213778 66.514343 
L 181.051532 69.469881 
L 175.857332 77.660702 
L 175.689775 82.728942 
L 184.737751 89.211141 
L 188.088857 93.425261 
L 191.439962 92.722388 
L 201.325691 99.584097 
L 201.325691 104.522441 
L 203.839013 110.709438 
L 201.325691 112.834266 
L 208.195459 122.062946 
L 213.054545 122.41858 
L 210.541224 135.612183 
L 206.017221 134.182532 
L 204.341683 138.294895 
L 202.331032 138.294895 
L 200.655464 138.294895 
L 200.823021 146.359798 
L 194.791037 154.629794 
L 175.019548 154.629794 
L 179.878665 148.514666 
L 184.570194 144.56544 
L 181.889316 138.294895 
L 49.688433 138.115959 
L 45.332017 138.115959 
L 45.332017 121.885148 
L 45.499574 52.8296 
L 38.964919 51.275784 
L 34.105833 43.866914 
L 30.252057 40.772819 
L 37.121825 31.687563 
L 27.236065 29.293976 
L 24.220073 26.391014 
L 16.680109 18.215466 
L 10.145455 8.209118 
L 44.829347 8.716777 
L 86.885646 8.378324 
z
" clip-path="url(#pe9970371e6)" style="stroke: #000000; stroke-linejoin: miter"/>
   </g>
   <g id="line2d_1">
    <path d="M 130.449927 7.532461 
L 133.633475 7.363324 
L 139.833016 13.630405 
L 143.184122 14.648459 
L 140.503243 19.065611 
L 140.838357 25.367358 
L 144.692102 34.94022 
L 154.075192 43.007002 
L 164.296035 49.723072 
L 166.306716 60.094795 
L 168.652481 62.00145 
L 172.171113 59.055504 
L 178.873324 60.441341 
L 183.22977 62.695142 
L 180.213778 66.514343 
L 181.051532 69.469881 
L 175.857332 77.660702 
L 175.689775 82.728942 
L 184.737751 89.211141 
L 188.088857 93.425261 
L 191.439962 92.722388 
L 201.325691 99.584097 
L 201.325691 104.522441 
L 203.839013 110.709438 
L 201.325691 112.834266 
L 208.195459 122.062946 
L 213.054545 122.41858 
L 210.541224 135.612183 
L 206.017221 134.182532 
L 204.341683 138.294895 
L 202.331032 138.294895 
L 200.655464 138.294895 
L 200.823021 146.359798 
L 194.791037 154.629794 
L 175.019548 154.629794 
L 179.878665 148.514666 
L 184.570194 144.56544 
L 181.889316 138.294895 
L 49.688433 138.115959 
L 45.332017 138.115959 
L 45.332017 121.885148 
L 45.499574 52.8296 
L 38.964919 51.275784 
L 34.105833 43.866914 
L 30.252057 40.772819 
L 37.121825 31.687563 
L 27.236065 29.293976 
L 24.220073 26.391014 
L 16.680109 18.215466 
L 10.145455 8.209118 
L 44.829347 8.716777 
L 86.885646 8.378324 
L 130.449927 7.532461 
" clip-path="url(#pe9970371e6)" style="fill: none; stroke: #000000; stroke-width: 0.5; stroke-linecap: square"/>
   </g>
  </g>
 </g>
 <defs>
  <clipPath id="pe9970371e6">
   <rect x="0" y="-0" width="223.2" height="161.993117"/>
  </clipPath>
 </defs>
</svg>
