<?xml version="1.0" encoding="utf-8" standalone="no"?>
<!DOCTYPE svg PUBLIC "-//W3C//DTD SVG 1.1//EN"
  "http://www.w3.org/Graphics/SVG/1.1/DTD/svg11.dtd">
<svg xmlns:xlink="http://www.w3.org/1999/xlink" width="145.771246pt" height="221.76pt" viewBox="0 0 145.771246 221.76" xmlns="http://www.w3.org/2000/svg" version="1.1">
 <metadata>
  <rdf:RDF xmlns:dc="http://purl.org/dc/elements/1.1/" xmlns:cc="http://creativecommons.org/ns#" xmlns:rdf="http://www.w3.org/1999/02/22-rdf-syntax-ns#">
   <cc:Work>
    <dc:type rdf:resource="http://purl.org/dc/dcmitype/StillImage"/>
    <dc:date>2026-04-26T19:22:29.422179</dc:date>
    <dc:format>image/svg+xml</dc:format>
    <dc:creator>
     <cc:Agent>
      <dc:title>Matplotlib v3.10.9, https://matplotlib.org/</dc:title>
     </cc:Agent>
    </dc:creator>
   </cc:Work>
  </rdf:RDF>
 </metadata>
 <defs>
  <style type="text/css">*{stroke-linejoin: round; stroke-linecap: butt}</style>
 </defs>
 <g id="figure_1">
  <g id="patch_1">
   <path d="M 0 221.76 
L 145.771246 221.76 
L 145.771246 0 
L 0 0 
z
" style="fill: #ffffff"/>
  </g>
  <g id="axes_1">
   <g id="patch_2">
    <path d="M 125.195878 10.08 
L 135.247649 10.08 
L 139.14528 14.322948 
L 133.811665 59.303113 
L 125.195878 138.682889 
L 128.067807 203.688634 
L 123.965036 205.567638 
L 114.938968 204.628033 
L 111.246477 201.810454 
L 102.220372 203.688634 
L 89.706953 208.622734 
L 85.809322 211.68 
L 81.296269 207.2124 
L 79.860324 200.167768 
L 73.706185 190.792998 
L 77.398675 176.769951 
L 6.625966 176.769951 
L 9.292754 173.737847 
L 6.625966 165.352844 
L 11.139018 164.887508 
L 11.75444 149.329643 
L 15.446931 150.2568 
L 17.703438 140.763693 
L 26.524366 134.755424 
L 31.037418 125.069031 
L 30.216856 112.650413 
L 24.678139 107.373164 
L 25.08842 98.898924 
L 27.755208 97.069128 
L 24.267858 92.270219 
L 27.139787 86.565176 
L 25.08842 77.910255 
L 28.37063 74.499422 
L 21.80621 69.048697 
L 27.755208 56.361956 
L 34.524769 49.809583 
L 32.268261 45.297693 
L 40.063486 38.540642 
L 39.858383 35.841456 
L 46.627943 33.593687 
L 46.012522 25.513782 
L 49.910153 23.720823 
L 52.576942 16.78183 
L 58.52594 13.652651 
L 56.269433 10.08 
z
" clip-path="url(#p5e34cae014)" style="stroke: #000000; stroke-linejoin: miter"/>
   </g>
   <g id="line2d_1">
    <path d="M 125.195878 10.08 
L 135.247649 10.08 
L 139.14528 14.322948 
L 133.811665 59.303113 
L 125.195878 138.682889 
L 128.067807 203.688634 
L 123.965036 205.567638 
L 114.938968 204.628033 
L 111.246477 201.810454 
L 102.220372 203.688634 
L 89.706953 208.622734 
L 85.809322 211.68 
L 81.296269 207.2124 
L 79.860324 200.167768 
L 73.706185 190.792998 
L 77.398675 176.769951 
L 6.625966 176.769951 
L 9.292754 173.737847 
L 6.625966 165.352844 
L 11.139018 164.887508 
L 11.75444 149.329643 
L 15.446931 150.2568 
L 17.703438 140.763693 
L 26.524366 134.755424 
L 31.037418 125.069031 
L 30.216856 112.650413 
L 24.678139 107.373164 
L 25.08842 98.898924 
L 27.755208 97.069128 
L 24.267858 92.270219 
L 27.139787 86.565176 
L 25.08842 77.910255 
L 28.37063 74.499422 
L 21.80621 69.048697 
L 27.755208 56.361956 
L 34.524769 49.809583 
L 32.268261 45.297693 
L 40.063486 38.540642 
L 39.858383 35.841456 
L 46.627943 33.593687 
L 46.012522 25.513782 
L 49.910153 23.720823 
L 52.576942 16.78183 
L 58.52594 13.652651 
L 56.269433 10.08 
L 125.195878 10.08 
" clip-path="url(#p5e34cae014)" style="fill: none; stroke: #000000; stroke-width: 0.5; stroke-linecap: square"/>
   </g>
  </g>
 </g>
 <defs>
  <clipPath id="p5e34cae014">
   <rect x="0" y="-0" width="145.771246" height="221.76"/>
  </clipPath>
 </defs>
</svg>
