<?xml version="1.0" encoding="utf-8" standalone="no"?>
<!DOCTYPE svg PUBLIC "-//W3C//DTD SVG 1.1//EN"
  "http://www.w3.org/Graphics/SVG/1.1/DTD/svg11.dtd">
<svg xmlns:xlink="http://www.w3.org/1999/xlink" width="223.2pt" height="136.273928pt" viewBox="0 0 223.2 136.273928" xmlns="http://www.w3.org/2000/svg" version="1.1">
 <metadata>
  <rdf:RDF xmlns:dc="http://purl.org/dc/elements/1.1/" xmlns:cc="http://creativecommons.org/ns#" xmlns:rdf="http://www.w3.org/1999/02/22-rdf-syntax-ns#">
   <cc:Work>
    <dc:type rdf:resource="http://purl.org/dc/dcmitype/StillImage"/>
    <dc:date>2026-04-26T19:22:05.828809</dc:date>
    <dc:format>image/svg+xml</dc:format>
    <dc:creator>
     <cc:Agent>
      <dc:title>Matplotlib v3.10.9, https://matplotlib.org/</dc:title>
     </cc:Agent>
    </dc:creator>
   </cc:Work>
  </rdf:RDF>
 </metadata>
 <defs>
  <style type="text/css">*{stroke-linejoin: round; stroke-linecap: butt}</style>
 </defs>
 <g id="figure_1">
  <g id="patch_1">
   <path d="M 0 136.273928 
L 223.2 136.273928 
L 223.2 0 
L 0 0 
z
" style="fill: #ffffff"/>
  </g>
  <g id="axes_1">
   <g id="patch_2">
    <path d="M 213.054545 60.988825 
L 200.012049 70.532445 
L 157.881068 94.880264 
L 119.288462 130.079659 
L 52.514427 126.530563 
L 10.145455 117.122093 
L 14.425255 86.1169 
L 29.686142 54.264878 
L 71.801857 21.443222 
L 126.786266 6.194269 
L 181.338119 28.06454 
z
" clip-path="url(#p5305948d96)" style="stroke: #000000; stroke-linejoin: miter"/>
   </g>
   <g id="line2d_1">
    <path d="M 213.054545 60.988825 
L 200.012049 70.532445 
L 157.881068 94.880264 
L 119.288462 130.079659 
L 52.514427 126.530563 
L 10.145455 117.122093 
L 14.425255 86.1169 
L 29.686142 54.264878 
L 71.801857 21.443222 
L 126.786266 6.194269 
L 181.338119 28.06454 
L 213.054545 60.988825 
" clip-path="url(#p5305948d96)" style="fill: none; stroke: #000000; stroke-width: 0.5; stroke-linecap: square"/>
   </g>
  </g>
 </g>
 <defs>
  <clipPath id="p5305948d96">
   <rect x="0" y="-0" width="223.2" height="136.273928"/>
  </clipPath>
 </defs>
</svg>
