<?xml version="1.0" encoding="utf-8" standalone="no"?>
<!DOCTYPE svg PUBLIC "-//W3C//DTD SVG 1.1//EN"
  "http://www.w3.org/Graphics/SVG/1.1/DTD/svg11.dtd">
<svg xmlns:xlink="http://www.w3.org/1999/xlink" width="223.2pt" height="66.513159pt" viewBox="0 0 223.2 66.513159" xmlns="http://www.w3.org/2000/svg" version="1.1">
 <metadata>
  <rdf:RDF xmlns:dc="http://purl.org/dc/elements/1.1/" xmlns:cc="http://creativecommons.org/ns#" xmlns:rdf="http://www.w3.org/1999/02/22-rdf-syntax-ns#">
   <cc:Work>
    <dc:type rdf:resource="http://purl.org/dc/dcmitype/StillImage"/>
    <dc:date>2026-04-26T19:21:54.245592</dc:date>
    <dc:format>image/svg+xml</dc:format>
    <dc:creator>
     <cc:Agent>
      <dc:title>Matplotlib v3.10.9, https://matplotlib.org/</dc:title>
     </cc:Agent>
    </dc:creator>
   </cc:Work>
  </rdf:RDF>
 </metadata>
 <defs>
  <style type="text/css">*{stroke-linejoin: round; stroke-linecap: butt}</style>
 </defs>
 <g id="figure_1">
  <g id="patch_1">
   <path d="M 0 66.513159 
L 223.2 66.513159 
L 223.2 0 
L 0 0 
z
" style="fill: #ffffff"/>
  </g>
  <g id="axes_1">
   <g id="patch_2">
    <path d="M 192.728208 15.23077 
L 191.395151 16.899569 
L 191.299328 17.028738 
L 189.975072 18.733555 
L 188.650816 20.449007 
L 188.624089 20.547279 
L 188.712742 20.739067 
L 188.71535 20.838299 
L 188.590192 21.01712 
L 187.15349 22.333286 
L 187.095475 22.425313 
L 187.066141 22.541251 
L 187.066141 22.652631 
L 187.20955 23.763612 
L 187.150883 23.940518 
L 186.967058 24.042606 
L 185.488637 24.462324 
L 185.348486 24.560539 
L 185.350442 24.614006 
L 185.547956 25.339022 
L 185.648994 25.675369 
L 185.736344 25.807455 
L 185.888879 25.933194 
L 187.483332 26.959444 
L 187.873145 27.081874 
L 188.241447 26.939726 
L 188.944153 26.386972 
L 189.557555 26.146376 
L 189.950627 26.071366 
L 191.117459 26.227816 
L 191.563984 26.220968 
L 193.153221 26.008023 
L 193.597139 25.995793 
L 193.794001 26.019381 
L 194.548204 26.213682 
L 195.018196 26.316274 
L 195.158998 26.368749 
L 196.719554 27.250699 
L 196.995291 27.268829 
L 197.241695 27.071937 
L 197.472454 26.818522 
L 197.701909 26.667452 
L 198.044788 26.502312 
L 199.3974 25.425616 
L 199.556454 25.33815 
L 199.860874 25.272496 
L 200.854962 25.311422 
L 201.008801 25.299656 
L 201.430556 25.189577 
L 201.799509 25.145005 
L 202.177588 25.141086 
L 202.327517 25.16867 
L 202.630632 25.283534 
L 202.792946 25.310115 
L 204.008667 25.358925 
L 204.446718 25.489415 
L 204.844027 25.779665 
L 205.525548 26.462062 
L 205.866797 26.673581 
L 207.161068 27.018461 
L 207.709609 27.140915 
L 207.860189 27.208301 
L 207.945257 27.292956 
L 207.991213 27.399724 
L 208.068785 27.805933 
L 208.103985 27.902773 
L 208.178297 27.967545 
L 208.327574 28.023536 
L 208.917182 28.163852 
L 209.169452 28.212399 
L 209.289721 28.259486 
L 209.337958 28.338862 
L 209.305365 28.394922 
L 209.155437 28.52616 
L 209.111763 28.607369 
L 209.356211 28.651874 
L 210.335958 29.208516 
L 210.428522 29.277101 
L 210.511961 29.379565 
L 210.569324 29.473668 
L 210.645592 29.541281 
L 211.038339 29.612298 
L 211.303646 29.739345 
L 211.748541 30.062211 
L 211.931063 30.23861 
L 212.089139 30.43417 
L 212.130532 30.547663 
L 212.138029 30.886026 
L 212.158562 30.952766 
L 212.173229 30.985476 
L 212.191155 31.014784 
L 212.28046 31.098875 
L 212.489382 31.233054 
L 212.579339 31.30624 
L 212.611932 31.355436 
L 212.629858 31.400785 
L 212.653977 31.44377 
L 212.709385 31.486464 
L 212.776527 31.496249 
L 212.879195 31.501289 
L 212.965566 31.516412 
L 212.98773 31.556151 
L 212.949922 31.615471 
L 212.915373 31.657595 
L 212.89321 31.703879 
L 212.891906 31.774504 
L 212.90364 31.803887 
L 212.927107 31.826742 
L 212.957418 31.84381 
L 212.990011 31.855387 
L 213.028471 31.878692 
L 213.023582 31.907787 
L 213.003374 31.942824 
L 212.997508 31.98232 
L 213.001745 32.11064 
L 212.92124 32.294599 
L 212.90364 32.392714 
L 212.929388 32.442973 
L 213.031404 32.545896 
L 213.054545 32.59246 
L 213.036619 32.646471 
L 212.997508 32.688436 
L 212.94927 32.728025 
L 212.837802 32.852184 
L 212.722748 32.930366 
L 212.596613 32.980562 
L 212.488404 32.976689 
L 212.356076 32.935132 
L 212.267423 32.953602 
L 212.190503 33.023168 
L 212.092072 33.133731 
L 212.002767 33.197971 
L 211.872721 33.258795 
L 211.734852 33.303973 
L 211.623384 33.322762 
L 211.488775 33.296518 
L 211.266164 33.180233 
L 211.131881 33.160857 
L 210.965982 33.163838 
L 210.495338 33.112868 
L 210.190593 33.115848 
L 209.625103 33.199164 
L 209.332744 33.207064 
L 207.727209 32.92292 
L 207.566851 32.878094 
L 207.422464 32.794118 
L 207.238639 32.556606 
L 207.127171 32.464983 
L 206.999732 32.484019 
L 206.842308 32.608677 
L 206.747788 32.643792 
L 206.64349 32.619985 
L 206.574719 32.54054 
L 206.546689 32.444758 
L 206.497799 32.362087 
L 206.365797 32.320909 
L 206.174802 32.362979 
L 206.023244 32.48045 
L 205.781078 32.748864 
L 205.568245 32.831934 
L 205.344656 32.793225 
L 205.109986 32.711058 
L 204.870101 32.664625 
L 204.780471 32.6804 
L 204.607401 32.757051 
L 204.507993 32.779975 
L 204.008667 32.780422 
L 203.771389 32.748864 
L 203.367887 32.617455 
L 203.142995 32.570292 
L 202.92397 32.554821 
L 202.723196 32.565829 
L 202.529594 32.609272 
L 202.326213 32.692603 
L 202.092847 32.82181 
L 202.007453 32.844441 
L 201.669789 32.853077 
L 201.555713 32.880774 
L 201.061602 33.118829 
L 200.854962 33.139395 
L 200.54598 33.186792 
L 200.399963 33.230618 
L 200.259161 33.295325 
L 200.139218 33.388234 
L 199.97169 33.604729 
L 199.872607 33.693249 
L 199.750057 33.734906 
L 199.110581 33.781197 
L 198.96652 33.759395 
L 198.662753 33.645926 
L 198.551284 33.559955 
L 198.390275 33.320674 
L 198.302925 33.254024 
L 198.227961 33.265206 
L 197.936579 33.398675 
L 197.88443 33.405685 
L 197.8212 33.395095 
L 197.701909 33.362879 
L 197.203235 33.439696 
L 197.306229 33.622043 
L 197.321222 33.709672 
L 197.276896 33.78956 
L 197.048092 33.99258 
L 196.974432 34.150425 
L 196.946402 34.549419 
L 196.847971 34.678185 
L 196.622427 34.719521 
L 194.453684 34.625175 
L 193.657762 34.509602 
L 193.550205 34.507507 
L 193.486974 34.52966 
L 193.362469 34.62817 
L 192.966137 34.84386 
L 192.873573 34.869782 
L 192.481804 34.9032 
L 192.219104 34.956256 
L 192.08287 35.021853 
L 191.996819 35.063293 
L 191.870358 35.246569 
L 191.815602 35.351601 
L 191.724341 35.435352 
L 190.665067 36.140437 
L 189.757024 37.291806 
L 189.718564 37.451267 
L 189.805914 37.633171 
L 189.939545 37.766793 
L 189.999516 37.905308 
L 189.865233 38.101385 
L 189.483894 38.45692 
L 189.320277 38.541772 
L 189.010643 38.647867 
L 188.908953 38.666361 
L 188.811825 38.666664 
L 188.48785 38.636043 
L 188.425923 38.653627 
L 188.304025 38.74702 
L 186.944895 39.507875 
L 186.472295 39.867956 
L 186.314545 39.954384 
L 186.128112 40.012826 
L 185.088394 40.198876 
L 184.2325 40.305497 
L 182.902051 40.307021 
L 181.719575 40.428915 
L 181.50772 40.405447 
L 180.448445 40.126697 
L 180.233983 40.114212 
L 180.019521 40.139792 
L 179.164279 40.359735 
L 179.1017 40.390514 
L 179.074322 40.445679 
L 179.025432 40.71371 
L 178.966113 40.845212 
L 178.781636 41.105313 
L 178.440061 41.446616 
L 177.133731 42.271795 
L 176.829963 42.402365 
L 176.740007 42.46215 
L 176.676124 42.526851 
L 176.557485 42.680835 
L 176.361275 42.867732 
L 176.146813 42.993614 
L 175.905624 43.072544 
L 175.628583 43.11985 
L 175.254415 43.14289 
L 175.099924 43.185596 
L 174.773993 43.425647 
L 174.130606 43.735099 
L 173.732319 44.01957 
L 173.496345 44.150184 
L 173.30535 44.189316 
L 172.849047 44.156038 
L 172.752571 44.130774 
L 172.574613 44.030966 
L 172.47553 44.004479 
L 170.152297 43.863452 
L 169.597563 43.704326 
L 169.321826 43.703403 
L 167.904679 43.441328 
L 167.057911 43.182217 
L 166.879953 43.093124 
L 166.744366 42.973654 
L 166.488185 42.680528 
L 165.967347 42.329718 
L 165.787434 42.248813 
L 165.578186 42.220929 
L 163.862487 42.240846 
L 163.256257 42.12167 
L 163.086904 42.123611 
L 163.01572 42.124427 
L 162.920548 42.139131 
L 162.855362 42.179568 
L 162.796042 42.231347 
L 162.72173 42.27915 
L 162.592662 42.319297 
L 162.320836 42.365886 
L 162.195678 42.406044 
L 161.837155 42.589725 
L 161.674189 42.704153 
L 161.534691 42.840719 
L 160.35417 44.466756 
L 160.288984 44.61574 
L 160.283117 44.711394 
L 160.310495 44.915131 
L 160.306584 45.015809 
L 160.271384 45.122386 
L 160.220539 45.199017 
L 160.086907 45.342746 
L 159.927853 45.583044 
L 159.861363 45.649564 
L 159.84637 45.661632 
L 159.695138 45.765927 
L 159.551729 45.932802 
L 159.439609 46.122063 
L 159.380941 46.296545 
L 159.37703 46.541212 
L 159.466335 46.664384 
L 159.861363 46.827955 
L 159.970876 46.92545 
L 160.018462 47.034776 
L 160.053662 47.267515 
L 160.152745 47.491074 
L 160.306584 47.682718 
L 160.878267 48.229898 
L 161.090773 48.37828 
L 161.80065 48.711115 
L 161.994253 48.843461 
L 162.166996 48.99756 
L 162.745849 49.71536 
L 162.832547 49.919922 
L 162.855362 50.098126 
L 162.837762 50.298827 
L 162.763449 50.464044 
L 162.618736 50.534762 
L 162.510527 50.549189 
L 162.211323 50.644394 
L 161.749805 50.629962 
L 161.631166 50.666983 
L 160.643597 51.516801 
L 160.457164 51.64371 
L 160.251176 51.715597 
L 159.580411 51.756974 
L 159.408319 51.808268 
L 159.011988 52.035718 
L 157.482721 52.4718 
L 156.708962 52.783417 
L 156.458647 52.95337 
L 155.596235 53.802542 
L 154.85898 54.361688 
L 154.768371 54.485914 
L 154.612576 54.79031 
L 154.405284 55.055109 
L 154.143888 55.264667 
L 153.555257 55.606872 
L 153.404025 55.714966 
L 153.248882 56.035613 
L 153.134807 56.138098 
L 151.451701 56.668141 
L 151.235935 56.766488 
L 151.15706 56.820853 
L 151.101 56.869007 
L 151.04168 56.909352 
L 150.949116 56.941248 
L 150.838951 56.956081 
L 150.489554 56.952891 
L 150.01891 57.000104 
L 148.471391 57.493309 
L 147.531407 57.99833 
L 147.481214 58.014322 
L 147.446665 58.013203 
L 147.416028 58.023118 
L 147.376916 58.073339 
L 147.353449 58.097653 
L 147.32216 58.10997 
L 146.33459 58.164522 
L 146.030171 58.239883 
L 145.860687 58.254605 
L 144.227449 58.10853 
L 144.018201 58.120847 
L 143.396325 58.360395 
L 143.180885 58.414981 
L 142.98109 58.425387 
L 141.338725 58.1978 
L 139.972098 58.213641 
L 139.435942 58.105171 
L 139.073833 58.078938 
L 138.268569 58.172979 
L 135.573629 58.487867 
L 132.878689 58.803006 
L 130.18375 59.118397 
L 127.34799 60.029158 
L 124.512231 60.941999 
L 122.022447 61.89801 
L 121.573966 62.078109 
L 121.293014 62.238731 
L 121.206968 62.268309 
L 121.089633 62.29595 
L 120.765006 62.428845 
L 120.410394 62.472829 
L 120.300881 62.50388 
L 119.127205 63.427098 
L 118.868742 63.489833 
L 118.626575 63.262282 
L 118.489359 63.162484 
L 118.354749 63.122151 
L 116.518782 63.11794 
L 115.911247 63.048298 
L 115.867573 62.990488 
L 115.885173 61.708951 
L 113.426026 62.068416 
L 110.96688 62.428198 
L 110.780447 62.405237 
L 108.930465 61.672635 
L 107.080483 60.941355 
L 107.077875 60.941032 
L 106.882969 60.873212 
L 104.69793 60.499145 
L 102.512891 60.125427 
L 100.327852 59.752057 
L 99.949773 59.607356 
L 99.396342 59.171805 
L 98.443321 58.036553 
L 97.826661 57.700672 
L 97.116132 57.564548 
L 96.395825 57.518704 
L 95.184667 57.611675 
L 92.658161 57.309468 
L 90.131656 57.007495 
L 87.60515 56.705755 
L 87.318657 56.70719 
L 85.113379 57.193863 
L 84.18353 57.399249 
L 81.622068 57.153916 
L 79.060606 56.908738 
L 76.499144 56.663714 
L 73.937682 56.418844 
L 71.866665 56.220972 
L 69.795649 56.023202 
L 69.779304 56.024426 
L 67.521281 56.193544 
L 65.263257 56.362736 
L 64.661589 56.434246 
L 64.580075 56.419596 
L 64.526002 56.409877 
L 64.481024 56.308754 
L 64.396282 55.535673 
L 64.355215 55.392839 
L 64.279599 55.267684 
L 64.125759 55.125108 
L 61.692361 53.400947 
L 61.477247 53.201888 
L 61.354697 52.9731 
L 61.294726 52.717003 
L 61.269303 52.436018 
L 61.215199 52.214154 
L 60.329971 50.865324 
L 59.678762 49.416627 
L 59.33849 48.883423 
L 59.18074 48.753873 
L 58.957803 48.708619 
L 58.628613 48.696448 
L 58.028249 48.587553 
L 57.974145 48.52454 
L 57.972841 48.382022 
L 58.032812 48.03516 
L 57.989789 47.732823 
L 57.997612 47.673693 
L 58.025642 47.613017 
L 58.110384 47.497295 
L 58.154058 47.332485 
L 58.230978 47.230838 
L 58.41741 47.056832 
L 58.470863 46.938183 
L 58.355484 46.898435 
L 56.194563 47.091626 
L 55.923389 47.064909 
L 55.368003 46.855586 
L 54.201824 46.60605 
L 54.059066 46.559824 
L 53.969109 46.481037 
L 53.897404 46.378082 
L 53.800277 46.287866 
L 53.364182 46.004344 
L 52.558481 45.661632 
L 52.368138 45.5948 
L 51.965939 45.595728 
L 51.789937 45.549015 
L 51.685639 45.453751 
L 51.518763 45.194382 
L 51.405339 45.085621 
L 50.885154 44.698741 
L 50.802367 44.659861 
L 50.698069 44.629932 
L 50.595075 44.62191 
L 50.30956 44.714788 
L 50.024697 44.716949 
L 49.497993 44.665106 
L 49.197485 44.587665 
L 48.863732 44.341264 
L 47.851391 43.385986 
L 47.689078 43.287928 
L 46.661093 42.930053 
L 46.000757 42.907334 
L 45.870385 42.874792 
L 45.627241 42.7689 
L 45.498824 42.730541 
L 45.348896 42.724404 
L 45.044477 42.758773 
L 44.88803 42.75018 
L 44.393267 42.595246 
L 44.225739 42.582057 
L 43.82706 42.609783 
L 43.678827 42.620092 
L 43.556929 42.595246 
L 43.435683 42.585431 
L 43.313133 42.590952 
L 43.189931 42.61273 
L 43.001543 42.605982 
L 42.819674 42.554146 
L 42.47158 42.415854 
L 42.386838 42.408497 
L 42.176287 42.439461 
L 42.079812 42.443753 
L 41.78843 42.415241 
L 41.068123 42.548012 
L 40.648976 42.563347 
L 40.03753 42.655677 
L 39.93584 42.652916 
L 39.650977 42.573775 
L 39.541464 42.562734 
L 39.23183 42.595246 
L 39.128836 42.594019 
L 38.840713 42.524705 
L 38.730549 42.524705 
L 38.421566 42.580523 
L 38.262512 42.554453 
L 37.724727 42.295392 
L 37.518087 42.23196 
L 37.312098 42.196725 
L 37.100243 42.188453 
L 36.883826 42.205303 
L 36.530517 42.251571 
L 35.445168 42.210818 
L 35.304366 42.220929 
L 35.045577 42.277618 
L 34.915205 42.287424 
L 34.290721 42.182938 
L 34.217061 42.193661 
L 34.160349 42.214495 
L 34.101682 42.218785 
L 34.024762 42.1811 
L 33.610178 41.825596 
L 33.499362 41.774185 
L 33.363123 41.776939 
L 33.254914 41.828963 
L 33.153224 41.903953 
L 33.045666 41.963039 
L 32.920509 41.9661 
L 32.305152 41.871506 
L 31.896435 41.728594 
L 31.804523 41.671078 
L 31.665676 41.531001 
L 31.585497 41.468016 
L 31.37299 41.392205 
L 31.092038 41.351555 
L 30.805219 41.343303 
L 30.577068 41.367447 
L 30.137713 41.53834 
L 29.934333 41.537117 
L 29.835902 41.366225 
L 29.85285 41.26813 
L 29.888051 41.203666 
L 29.892614 41.138603 
L 29.815694 41.037826 
L 29.706833 40.982259 
L 29.450652 40.906556 
L 29.415451 40.838803 
L 29.412192 40.641727 
L 29.333968 40.478905 
L 29.236189 40.323778 
L 29.177522 40.150755 
L 29.081046 40.028352 
L 28.667114 39.828401 
L 28.533483 39.72558 
L 28.820302 38.334227 
L 28.909607 38.204312 
L 30.224411 37.047027 
L 30.577068 36.829566 
L 30.646817 36.795798 
L 30.749159 36.628219 
L 30.768063 36.358644 
L 30.708092 36.092902 
L 30.577068 35.936809 
L 30.410843 35.775381 
L 30.09795 35.116675 
L 30.079046 34.998527 
L 30.140973 34.909944 
L 30.328709 34.755919 
L 30.577068 34.334825 
L 30.646165 34.226535 
L 30.742641 33.996316 
L 30.82282 33.891427 
L 30.958407 33.683993 
L 31.019682 33.556822 
L 31.033371 33.468339 
L 30.938851 33.390322 
L 30.805219 33.35915 
L 30.708092 33.305464 
L 30.721781 33.157578 
L 30.807827 32.911452 
L 30.823945 32.756425 
L 30.831946 32.679507 
L 30.764152 32.465132 
L 30.577068 32.271115 
L 30.351524 32.129061 
L 30.262871 32.046919 
L 30.228974 31.929165 
L 30.246574 31.883442 
L 30.320235 31.795873 
L 30.333272 31.752247 
L 30.309805 31.692752 
L 30.26613 31.659078 
L 30.214633 31.631786 
L 30.167047 31.591741 
L 30.10512 31.48676 
L 30.063401 31.386409 
L 30.009297 31.291424 
L 29.912821 31.201948 
L 29.784405 31.128194 
L 29.650121 31.076074 
L 29.507364 31.050016 
L 29.358087 31.052977 
L 29.109076 31.021297 
L 28.918081 30.890465 
L 27.382948 29.210135 
L 27.367955 29.167902 
L 27.381644 29.127 
L 27.424015 29.088456 
L 27.489201 29.005207 
L 27.517231 28.908896 
L 27.499631 28.815849 
L 27.424015 28.742519 
L 27.253227 28.668914 
L 27.212812 28.518232 
L 27.224545 28.335047 
L 27.209553 28.163265 
L 27.121551 28.086575 
L 26.915563 27.983813 
L 26.833429 27.905996 
L 26.646996 27.623034 
L 26.561603 27.541066 
L 26.491853 27.426348 
L 26.555084 27.347359 
L 26.631352 27.28623 
L 26.601366 27.22482 
L 26.467083 27.159624 
L 26.332147 27.112416 
L 25.749383 27.014955 
L 25.45735 26.934322 
L 25.183242 26.820566 
L 24.949224 26.673873 
L 24.872304 26.59625 
L 24.79734 26.485249 
L 24.755621 26.365688 
L 24.77974 26.262934 
L 24.832541 26.140549 
L 24.804185 26.038019 
L 24.708035 25.976284 
L 24.442402 25.97279 
L 24.194368 25.926207 
L 24.090397 25.957068 
L 24.042159 26.026515 
L 24.033359 26.101514 
L 24.013151 26.176385 
L 23.93069 26.24501 
L 23.726984 26.288874 
L 23.061434 26.321667 
L 22.858053 26.288874 
L 22.788304 26.222133 
L 22.73094 26.060881 
L 22.68205 25.985311 
L 22.58036 25.924024 
L 22.358075 25.895642 
L 22.252474 25.863332 
L 22.180769 25.790431 
L 22.131879 25.695731 
L 22.076471 25.614874 
L 21.98847 25.583177 
L 21.882216 25.566312 
L 21.798126 25.513107 
L 21.750215 25.434334 
L 21.7538 25.339603 
L 21.726422 25.184641 
L 21.53673 25.125262 
L 21.296193 25.131069 
L 21.117583 25.170557 
L 20.802734 25.177962 
L 20.700392 25.169686 
L 20.448122 25.0852 
L 20.353928 25.081716 
L 20.227793 25.117714 
L 19.921418 25.268139 
L 19.813535 25.33815 
L 19.658392 25.410794 
L 19.499012 25.429103 
L 19.173733 25.38958 
L 18.590643 25.388127 
L 18.4091 25.339603 
L 18.408448 25.339022 
L 18.406818 25.339022 
L 17.692704 24.755038 
L 17.594925 24.704589 
L 17.421204 24.676759 
L 17.056488 24.709083 
L 16.892219 24.704589 
L 16.702527 24.622701 
L 16.285336 24.36588 
L 16.105422 24.328527 
L 15.946368 24.338951 
L 15.822514 24.312748 
L 15.572851 24.190451 
L 15.475398 24.110299 
L 15.429442 24.011079 
L 15.400108 23.902063 
L 15.352196 23.795401 
L 15.336552 23.684589 
L 15.426183 23.476515 
L 15.376641 23.377801 
L 14.982917 23.101179 
L 14.834293 23.058801 
L 14.708157 23.070043 
L 14.585282 23.094692 
L 14.440568 23.09253 
L 14.230669 23.01124 
L 13.90702 22.758583 
L 13.735254 22.674941 
L 13.298507 22.540244 
L 13.186387 22.530173 
L 12.969643 22.54269 
L 12.859153 22.537223 
L 12.747685 22.505861 
L 12.542348 22.4105 
L 12.368953 22.357153 
L 12.265307 22.286421 
L 12.20664 22.26371 
L 12.14015 22.261986 
L 11.990874 22.281822 
L 11.917213 22.280815 
L 11.705359 22.211109 
L 11.508496 22.083956 
L 11.451785 21.948964 
L 11.657773 21.854364 
L 11.747078 21.811883 
L 11.798575 21.750757 
L 11.833775 21.690647 
L 11.876472 21.649482 
L 12.15938 21.538494 
L 12.215114 21.48746 
L 12.187084 21.346161 
L 12.025422 21.229564 
L 11.657773 21.080665 
L 11.512408 21.052325 
L 11.2295 21.06492 
L 10.813938 20.951301 
L 10.683892 20.901803 
L 10.588068 20.833723 
L 10.564601 20.78396 
L 10.554172 20.669311 
L 10.526142 20.617005 
L 10.472037 20.579282 
L 10.404243 20.553851 
L 10.265397 20.520137 
L 10.159144 20.453291 
L 10.145455 20.357336 
L 10.195322 20.25542 
L 10.279086 20.171516 
L 10.777108 20.030593 
L 11.008845 19.908555 
L 11.006563 19.709645 
L 10.910088 19.646127 
L 10.789493 19.619641 
L 10.689107 19.573796 
L 10.651625 19.453381 
L 10.683892 19.336433 
L 10.737996 19.258495 
L 10.775153 19.177451 
L 10.755597 19.050104 
L 10.664988 18.884471 
L 10.653906 18.819438 
L 10.784279 18.851526 
L 10.899006 18.857206 
L 11.539786 18.802685 
L 11.657773 18.76464 
L 11.767937 18.677214 
L 12 18.54641 
L 12.496718 18.37144 
L 12.720307 18.243616 
L 12.748337 18.101974 
L 12.62709 17.941157 
L 12.541045 17.773363 
L 12.668809 17.611892 
L 12.730736 17.551118 
L 12.832427 17.371136 
L 12.914561 17.296014 
L 13.073615 17.238698 
L 14.201335 17.121563 
L 14.347352 17.121281 
L 14.657638 17.179701 
L 14.810826 17.187886 
L 15.210417 17.17208 
L 15.330685 17.147244 
L 15.595015 17.049896 
L 15.685949 17.028738 
L 15.696053 17.027892 
L 15.808173 17.037201 
L 15.903671 17.078956 
L 16.067614 17.208775 
L 16.199942 17.279072 
L 16.34987 17.301097 
L 17.303543 17.338938 
L 17.333203 17.307309 
L 17.204134 17.132004 
L 17.212282 16.926639 
L 17.228579 16.840082 
L 17.288224 16.781454 
L 17.418922 16.762008 
L 17.541472 16.793291 
L 17.609266 16.862917 
L 17.658807 16.948917 
L 17.725949 17.028456 
L 17.788854 17.083188 
L 17.833832 17.143011 
L 17.884025 17.196072 
L 17.963878 17.230511 
L 18.208326 17.204823 
L 19.133318 16.974581 
L 19.351039 16.871939 
L 19.479456 16.741436 
L 19.390803 16.604237 
L 19.243482 16.452469 
L 19.301172 16.324421 
L 19.484671 16.256341 
L 19.710215 16.283908 
L 20.079168 16.481465 
L 20.260386 16.548757 
L 20.465396 16.54397 
L 20.628687 16.449654 
L 20.759711 16.312323 
L 20.904751 16.206839 
L 21.117583 16.207682 
L 21.401143 16.100272 
L 22.006722 15.979135 
L 22.422935 15.854683 
L 22.549722 15.791496 
L 22.614257 15.708954 
L 22.544182 15.611284 
L 22.431736 15.567793 
L 22.14948 15.490089 
L 22.070604 15.421941 
L 22.076471 15.374275 
L 22.168384 15.312884 
L 22.178487 15.254589 
L 22.14948 15.222364 
L 22.036708 15.166891 
L 22.000529 15.129635 
L 22.000203 15.061299 
L 22.036708 14.851081 
L 22.054308 14.800441 
L 22.113271 14.772035 
L 22.330697 14.667313 
L 22.665102 14.599935 
L 23.584226 14.583722 
L 23.923194 14.539841 
L 24.233806 14.4521 
L 24.402964 14.313284 
L 24.408312 14.254392 
L 24.418609 14.141052 
L 24.45772 14.000168 
L 24.556151 13.892256 
L 24.749754 13.819781 
L 25.577292 13.721136 
L 25.832822 13.656786 
L 26.595499 13.332215 
L 26.72196 13.304676 
L 26.980749 13.289378 
L 27.10721 13.266293 
L 27.424015 13.117264 
L 27.699752 13.096974 
L 28.242101 13.163687 
L 28.516534 13.160073 
L 28.629958 13.140057 
L 28.740123 13.108647 
L 28.839858 13.060566 
L 28.92134 12.991657 
L 28.951326 12.916099 
L 28.95263 12.76172 
L 29.009342 12.702047 
L 29.235537 12.627684 
L 29.724433 12.546686 
L 29.958452 12.447138 
L 30.40954 12.135432 
L 30.577068 12.047392 
L 30.809782 11.986501 
L 31.552252 11.981796 
L 31.764107 11.946376 
L 32.374249 11.765478 
L 32.610223 11.766584 
L 33.144098 11.827699 
L 33.355952 11.793407 
L 33.461554 11.704101 
L 33.50914 11.594379 
L 33.574326 11.484704 
L 33.730121 11.394402 
L 34.365034 11.25556 
L 34.535169 11.161477 
L 34.853278 10.838937 
L 35.020154 10.751068 
L 35.462768 10.60432 
L 35.932108 10.511304 
L 36.409922 10.48104 
L 37.436604 10.592485 
L 38.042835 10.577623 
L 38.572146 10.413097 
L 38.898077 10.034108 
L 38.914373 9.935263 
L 38.916981 9.841122 
L 38.943707 9.757441 
L 39.029101 9.691064 
L 39.156866 9.649931 
L 39.317224 9.624706 
L 39.4665 9.639511 
L 39.562975 9.719039 
L 39.68357 9.925381 
L 39.836757 10.060473 
L 40.036227 10.14453 
L 40.298275 10.197011 
L 40.538812 10.290736 
L 40.899943 10.585329 
L 41.139176 10.657723 
L 41.278674 10.649464 
L 41.425995 10.61588 
L 41.565493 10.561385 
L 41.678265 10.49177 
L 41.74997 10.405396 
L 41.792993 10.228615 
L 41.836016 10.143156 
L 42.062211 10.051409 
L 42.450721 10.01159 
L 42.850312 10.027791 
L 43.106493 10.105245 
L 43.184065 10.295134 
L 43.180153 10.549552 
L 43.296837 10.760432 
L 43.366586 10.866764 
L 43.420038 10.928215 
L 43.492395 10.965699 
L 43.6169 10.99988 
L 44.009973 11.058882 
L 44.225739 11.055573 
L 44.536025 11.053643 
L 46.006624 11.002637 
L 46.730842 11.13417 
L 48.942281 11.186167 
L 51.15372 11.238175 
L 51.2867 11.279293 
L 51.379264 11.347469 
L 51.409902 11.430574 
L 51.41968 11.625881 
L 51.67195 11.966576 
L 51.72084 12.098606 
L 51.750825 12.652932 
L 51.827093 12.931376 
L 51.890975 13.068903 
L 51.979629 13.181202 
L 52.126297 13.273524 
L 52.651046 13.398989 
L 52.756647 13.452699 
L 52.79967 13.521453 
L 52.823137 13.599414 
L 52.86616 13.681299 
L 52.940472 13.74649 
L 53.212298 13.890862 
L 53.278136 13.958058 
L 53.390908 14.113148 
L 53.461309 14.167563 
L 53.594289 14.192123 
L 53.761165 14.177889 
L 54.362833 14.056234 
L 55.467738 14.026387 
L 55.670467 14.054839 
L 55.839951 14.140494 
L 55.987923 14.313284 
L 56.09874 14.437293 
L 56.141111 14.471937 
L 56.444226 14.568629 
L 58.199689 14.55689 
L 58.4839 14.604688 
L 58.770067 14.736945 
L 58.874365 14.800721 
L 58.972149 14.847047 
L 58.993656 14.857237 
L 59.120117 14.886899 
L 59.245926 14.871228 
L 59.350224 14.811072 
L 59.514493 14.665635 
L 59.645517 14.616429 
L 60.254355 14.566113 
L 60.512492 14.498482 
L 60.749118 14.311608 
L 60.930336 14.210824 
L 61.18391 14.165331 
L 61.430965 14.19324 
L 61.589367 14.312446 
L 61.589367 14.313284 
L 61.666939 14.464393 
L 61.781666 14.57366 
L 61.930943 14.606644 
L 62.110856 14.531178 
L 62.179302 14.463555 
L 62.258829 14.40433 
L 62.344874 14.354055 
L 62.437439 14.313004 
L 62.528047 14.285362 
L 62.622567 14.280615 
L 62.717739 14.291783 
L 62.811607 14.312446 
L 62.812259 14.312725 
L 62.813563 14.313004 
L 62.814215 14.313284 
L 63.755502 14.548784 
L 64.042973 14.672905 
L 64.308932 14.82646 
L 64.453646 14.876825 
L 64.621174 14.890537 
L 64.786747 14.859756 
L 65.100292 14.739462 
L 65.263257 14.697792 
L 65.443823 14.695276 
L 65.573543 14.729674 
L 65.670671 14.804918 
L 65.757368 14.924121 
L 65.85254 15.022098 
L 65.960097 15.045058 
L 66.081343 15.015938 
L 66.217582 14.959109 
L 66.559809 14.762398 
L 66.6967 14.740581 
L 68.382413 14.887179 
L 68.613824 15.00306 
L 68.843279 15.231051 
L 68.937799 15.287939 
L 69.114468 15.32528 
L 69.208322 15.34512 
L 69.332827 15.391378 
L 69.390191 15.488125 
L 69.541423 15.626999 
L 69.869961 15.714849 
L 70.231092 15.758083 
L 70.479451 15.761171 
L 70.742151 15.714288 
L 71.041355 15.631208 
L 71.570015 15.418295 
L 71.999592 15.233573 
L 72.194498 15.099386 
L 72.242736 14.934477 
L 72.182765 14.832615 
L 72.12866 14.766594 
L 72.150171 14.72408 
L 72.627334 14.652494 
L 73.203579 14.49932 
L 73.346989 14.482275 
L 73.48062 14.511057 
L 73.689868 14.646343 
L 73.811114 14.688844 
L 73.921279 14.652214 
L 74.092718 14.523073 
L 74.292188 14.419694 
L 75.186541 14.149703 
L 75.549628 13.929337 
L 76.539153 12.745343 
L 76.582176 12.661534 
L 76.60108 12.556394 
L 76.587391 12.465437 
L 76.535242 12.296364 
L 76.563272 12.118265 
L 76.764697 11.800044 
L 76.77969 11.625329 
L 76.780342 11.625052 
L 76.780342 11.6245 
L 76.734712 11.487189 
L 76.620636 11.385291 
L 76.468752 11.316553 
L 76.306439 11.278741 
L 75.914018 11.241211 
L 75.741275 11.207549 
L 75.262809 11.005118 
L 75.12657 10.930144 
L 75.030746 10.828468 
L 74.723068 10.396321 
L 74.530769 10.123376 
L 74.55228 10.009118 
L 74.822151 9.798592 
L 74.78695 9.738514 
L 74.587481 9.654044 
L 74.497524 9.592629 
L 74.44016 9.527941 
L 74.375626 9.470667 
L 74.076422 9.366293 
L 73.847618 9.241157 
L 73.676179 9.083525 
L 73.66249 8.921346 
L 74.064688 8.468461 
L 74.162467 8.292639 
L 74.219831 8.114627 
L 74.255031 8.037791 
L 74.436249 7.792187 
L 74.453197 7.711235 
L 74.430382 7.600395 
L 74.35607 7.419352 
L 74.352159 7.341919 
L 74.397137 7.248081 
L 74.466235 7.178168 
L 74.645496 7.053868 
L 74.723068 6.984824 
L 75.013798 6.635567 
L 75.134392 6.519666 
L 75.204793 6.471886 
L 75.304528 6.456999 
L 75.586132 6.376085 
L 75.753009 6.369997 
L 76.273846 6.425875 
L 76.333817 6.333338 
L 76.358588 6.209606 
L 76.298617 5.982185 
L 76.323387 5.859847 
L 76.389225 5.765504 
L 76.54502 5.589469 
L 76.608902 5.48701 
L 76.97916 5.156071 
L 77.564531 5.010749 
L 78.786119 4.831506 
L 78.992107 4.744018 
L 79.189621 4.629701 
L 79.368883 4.496512 
L 79.782163 4.055326 
L 79.877335 3.809746 
L 79.930787 3.730798 
L 80.172628 3.562418 
L 80.222821 3.489701 
L 80.237814 3.401909 
L 80.242377 3.227091 
L 80.280185 3.141533 
L 80.47444 3.028661 
L 80.734532 3.023325 
L 80.797705 3.048604 
L 80.95421 3.111242 
L 81.029826 3.277426 
L 81.15759 3.391622 
L 81.349238 3.457627 
L 82.444364 3.659098 
L 82.659479 3.723038 
L 82.805496 3.807605 
L 82.923482 3.903047 
L 83.053855 3.98567 
L 83.233768 4.034025 
L 84.703064 4.255836 
L 85.475519 4.270318 
L 85.666841 4.312294 
L 86.135529 4.535441 
L 86.543594 4.786347 
L 86.980341 4.993801 
L 87.535727 5.086225 
L 88.117839 5.050166 
L 88.824457 5.114888 
L 90.720395 5.111389 
L 91.100104 5.226477 
L 91.527725 5.292997 
L 94.243379 6.016493 
L 94.543235 6.150399 
L 94.806587 6.185002 
L 95.071243 6.186624 
L 95.328728 6.216636 
L 95.569265 6.334826 
L 95.794809 6.486639 
L 96.013834 6.55554 
L 96.251112 6.554999 
L 96.845609 6.438054 
L 97.125258 6.422628 
L 97.399365 6.452669 
L 97.86512 6.557436 
L 98.198873 6.545116 
L 98.369661 6.554863 
L 98.486344 6.584921 
L 98.821401 6.718329 
L 98.988277 6.748814 
L 99.49347 6.730522 
L 99.612108 6.751659 
L 99.832438 6.852624 
L 99.949773 6.887057 
L 100.435409 6.906038 
L 100.583382 6.95214 
L 100.688006 7.005576 
L 101.272073 7.219571 
L 101.332044 7.307286 
L 101.243065 7.416498 
L 100.965698 7.659277 
L 100.956246 7.708923 
L 100.993403 7.761164 
L 101.043596 7.857512 
L 101.058589 7.948316 
L 101.050766 8.035884 
L 101.009047 8.21493 
L 101.036425 8.411295 
L 101.15539 8.622972 
L 101.323244 8.818432 
L 101.495988 8.966187 
L 101.560848 9.037021 
L 101.569648 9.113073 
L 101.535099 9.188054 
L 101.469913 9.254571 
L 101.622775 9.391766 
L 101.574863 9.537807 
L 101.454268 9.686402 
L 101.392993 9.831793 
L 101.479691 9.993741 
L 101.661886 10.100575 
L 102.052025 10.262972 
L 102.189894 10.419423 
L 102.132204 10.540196 
L 101.984558 10.653043 
L 101.852556 10.784945 
L 101.825177 10.940893 
L 101.893623 11.102728 
L 102.023017 11.24535 
L 102.178812 11.343328 
L 102.463024 11.406827 
L 103.088485 11.453495 
L 103.348577 11.567025 
L 103.812051 12.040195 
L 104.008913 12.125741 
L 104.019834 12.12731 
L 104.92217 12.257022 
L 105.707663 12.578028 
L 105.961563 12.642389 
L 106.256204 12.68179 
L 107.239537 12.609374 
L 107.691603 12.674575 
L 107.934421 12.957209 
L 108.015904 13.115318 
L 108.16518 13.209007 
L 108.353242 13.247381 
L 108.987177 13.210397 
L 109.186647 13.235701 
L 109.408931 13.292715 
L 109.787011 13.444628 
L 110.212676 13.553748 
L 110.633127 13.566278 
L 111.372337 13.270465 
L 111.751721 13.278252 
L 112.562636 13.471904 
L 112.975916 13.512544 
L 113.494146 13.474409 
L 113.976197 13.357254 
L 114.287461 13.160351 
L 114.423048 13.040558 
L 114.753542 12.903879 
L 114.931015 12.809466 
L 115.105873 12.716479 
L 115.286112 12.655429 
L 115.716993 12.587182 
L 116.365595 12.607433 
L 116.576798 12.582189 
L 116.715644 12.530878 
L 116.964329 12.39918 
L 117.123057 12.372848 
L 117.706473 12.375897 
L 117.888994 12.345411 
L 118.270659 12.208268 
L 118.413091 12.176694 
L 118.619079 12.158139 
L 119.349816 12.210484 
L 119.527122 12.201621 
L 119.700843 12.175309 
L 119.862178 12.132386 
L 120.552174 11.811382 
L 120.790103 11.733406 
L 121.106582 11.712671 
L 123.066402 12.00449 
L 123.948697 11.967129 
L 124.120788 11.991482 
L 124.424555 12.063447 
L 124.736797 12.101652 
L 125.076417 12.102759 
L 125.245575 12.123248 
L 125.586498 12.275307 
L 125.613876 12.310772 
L 125.613876 12.360377 
L 125.621373 12.411377 
L 125.64484 12.453792 
L 125.693729 12.478191 
L 126.194359 12.512852 
L 126.35602 12.553065 
L 126.60992 12.659869 
L 126.7429 12.699272 
L 126.885332 12.710651 
L 128.114742 12.508415 
L 128.798544 12.466268 
L 129.481695 12.513407 
L 130.047185 12.618529 
L 130.312818 12.70399 
L 131.247261 13.146729 
L 131.481931 13.215402 
L 131.538969 13.26518 
L 131.635445 13.466059 
L 131.68629 13.517834 
L 131.813403 13.595794 
L 131.860011 13.633112 
L 131.895537 13.689934 
L 131.953553 13.817272 
L 132.008309 13.874135 
L 132.091422 13.916511 
L 132.283395 13.967539 
L 132.37107 14.001563 
L 132.685593 14.172308 
L 132.860292 14.24153 
L 133.066606 14.290108 
L 133.255646 14.280057 
L 133.416656 14.233155 
L 133.570821 14.220036 
L 133.944337 14.403213 
L 136.248015 14.42584 
L 136.344411 14.450627 
L 136.381646 14.460203 
L 136.611428 14.554095 
L 136.743755 14.577573 
L 136.940943 14.563039 
L 137.015256 14.565834 
L 137.313156 14.622859 
L 137.617901 14.633762 
L 137.680806 14.688564 
L 137.656361 14.828698 
L 137.604538 14.921042 
L 137.548478 14.995781 
L 137.513929 15.078101 
L 137.528596 15.192665 
L 137.640065 15.451946 
L 137.676243 15.652537 
L 137.670376 15.721867 
L 137.635828 15.787846 
L 137.493722 15.993185 
L 137.497633 16.062885 
L 137.573575 16.099991 
L 137.721221 16.111517 
L 137.97284 16.100272 
L 138.054974 16.140757 
L 138.002825 16.261123 
L 137.988484 16.347212 
L 138.054322 16.431921 
L 138.161228 16.502298 
L 138.625027 16.692971 
L 138.752792 16.732137 
L 139.27917 16.769899 
L 139.446046 16.812176 
L 139.535351 16.867146 
L 139.592063 16.936791 
L 139.640953 17.012095 
L 139.703206 17.084881 
L 140.06727 17.336961 
L 140.94272 17.774212 
L 141.348829 17.932949 
L 141.550128 17.942318 
L 141.792747 17.953611 
L 142.692315 17.857672 
L 143.372858 17.861067 
L 143.823946 17.815797 
L 144.470267 17.930401 
L 144.628343 17.923892 
L 145.275316 17.82768 
L 146.070586 17.872103 
L 146.22964 17.90493 
L 146.38348 17.95531 
L 146.728314 18.032313 
L 146.856079 18.065725 
L 147.10509 18.050717 
L 147.176795 18.080734 
L 147.19961 18.113586 
L 147.225684 18.211315 
L 147.254366 18.2524 
L 147.364531 18.287257 
L 147.51837 18.324952 
L 148.857293 18.267136 
L 149.213209 18.349896 
L 149.419849 18.479472 
L 149.51111 18.484293 
L 150.021517 18.556622 
L 151.713749 18.840735 
L 151.988835 18.821993 
L 152.261965 18.757827 
L 152.520753 18.65451 
L 152.748253 18.518612 
L 152.846684 18.441755 
L 152.910566 18.402626 
L 152.980316 18.411983 
L 153.302335 18.617337 
L 153.415759 18.661605 
L 153.774935 18.717801 
L 154.376602 18.93219 
L 154.637347 18.97935 
L 154.909173 18.991567 
L 155.182303 18.974236 
L 155.873928 18.838179 
L 156.659421 18.591234 
L 157.750636 18.129447 
L 158.601967 17.95814 
L 158.716695 17.914552 
L 158.901171 17.780152 
L 159.011336 17.728673 
L 159.164523 17.712836 
L 159.305325 17.742249 
L 159.586278 17.829094 
L 159.743376 17.847202 
L 159.898519 17.845788 
L 160.052358 17.825416 
L 160.764843 17.609913 
L 161.045795 17.55564 
L 163.374243 17.47086 
L 163.981055 17.317414 
L 165.909984 16.830216 
L 166.168773 16.803156 
L 166.868872 16.84572 
L 167.418391 17.011531 
L 167.608082 17.036919 
L 167.811463 17.028738 
L 168.085245 16.981914 
L 168.658883 16.816686 
L 169.025229 16.626488 
L 169.15886 16.574383 
L 169.300314 16.536649 
L 169.445679 16.514123 
L 169.766395 16.50624 
L 169.874604 16.465981 
L 169.942397 16.347493 
L 169.958694 16.153691 
L 169.977598 16.068507 
L 170.042784 15.968458 
L 170.479531 15.479711 
L 170.643148 15.346241 
L 170.830884 15.237495 
L 172.111792 14.693877 
L 172.280624 14.565834 
L 172.382966 14.505188 
L 172.7102 14.376678 
L 172.820365 14.313004 
L 173.146947 14.166447 
L 174.235556 13.849883 
L 174.367232 13.833438 
L 174.63645 13.859082 
L 174.768778 13.858803 
L 174.850913 13.838455 
L 175.628583 13.40845 
L 175.755696 13.364487 
L 176.0197 13.319975 
L 176.146813 13.28298 
L 176.543796 13.064735 
L 177.060071 12.893603 
L 177.603723 12.782539 
L 177.898364 12.806969 
L 178.478521 12.970821 
L 178.781636 13.012772 
L 179.958898 12.919432 
L 180.552091 13.001103 
L 182.088528 13.495564 
L 182.2013 13.557368 
L 182.282131 13.627263 
L 182.41837 13.78383 
L 182.505068 13.855737 
L 183.430711 14.427236 
L 184.430666 14.839889 
L 184.55126 14.863393 
L 184.944332 14.861434 
L 185.088394 14.88494 
L 185.312634 14.886619 
L 185.751989 14.849403 
L 186.415583 14.935876 
L 186.622875 14.935316 
L 186.841249 14.896414 
L 188.75055 14.28257 
L 189.266173 14.19631 
L 189.785054 14.19938 
L 190.307847 14.312167 
L 192.041798 14.697233 
L 192.30515 14.829537 
L 192.533301 15.010899 
z
" clip-path="url(#p3d2f853cf8)" style="stroke: #000000; stroke-linejoin: miter"/>
   </g>
   <g id="line2d_1">
    <path d="M 192.728208 15.23077 
L 188.650816 20.449007 
L 188.624089 20.547279 
L 188.71535 20.838299 
L 188.590192 21.01712 
L 187.066141 22.541251 
L 187.066141 22.652631 
L 187.150883 23.940518 
L 186.967058 24.042606 
L 185.350442 24.614006 
L 185.736344 25.807455 
L 185.888879 25.933194 
L 187.873145 27.081874 
L 188.241447 26.939726 
L 188.944153 26.386972 
L 189.950627 26.071366 
L 191.563984 26.220968 
L 193.794001 26.019381 
L 195.158998 26.368749 
L 196.719554 27.250699 
L 196.995291 27.268829 
L 199.556454 25.33815 
L 199.860874 25.272496 
L 201.008801 25.299656 
L 201.799509 25.145005 
L 202.327517 25.16867 
L 202.792946 25.310115 
L 204.008667 25.358925 
L 204.446718 25.489415 
L 204.844027 25.779665 
L 205.866797 26.673581 
L 207.945257 27.292956 
L 208.327574 28.023536 
L 209.337958 28.338862 
L 209.111763 28.607369 
L 209.356211 28.651874 
L 210.511961 29.379565 
L 210.645592 29.541281 
L 211.303646 29.739345 
L 212.089139 30.43417 
L 212.138029 30.886026 
L 212.28046 31.098875 
L 212.949922 31.615471 
L 212.90364 31.803887 
L 212.997508 31.98232 
L 212.94927 32.728025 
L 212.596613 32.980562 
L 212.190503 33.023168 
L 211.872721 33.258795 
L 211.488775 33.296518 
L 211.131881 33.160857 
L 209.332744 33.207064 
L 207.422464 32.794118 
L 207.127171 32.464983 
L 206.842308 32.608677 
L 206.64349 32.619985 
L 206.365797 32.320909 
L 206.023244 32.48045 
L 205.568245 32.831934 
L 204.607401 32.757051 
L 204.507993 32.779975 
L 203.771389 32.748864 
L 202.92397 32.554821 
L 202.326213 32.692603 
L 202.007453 32.844441 
L 201.555713 32.880774 
L 200.854962 33.139395 
L 200.259161 33.295325 
L 199.750057 33.734906 
L 198.96652 33.759395 
L 198.551284 33.559955 
L 198.227961 33.265206 
L 197.8212 33.395095 
L 197.701909 33.362879 
L 197.203235 33.439696 
L 197.276896 33.78956 
L 196.974432 34.150425 
L 196.847971 34.678185 
L 196.622427 34.719521 
L 193.362469 34.62817 
L 192.873573 34.869782 
L 192.08287 35.021853 
L 191.870358 35.246569 
L 191.724341 35.435352 
L 190.665067 36.140437 
L 189.718564 37.451267 
L 189.999516 37.905308 
L 189.865233 38.101385 
L 189.320277 38.541772 
L 188.811825 38.666664 
L 188.425923 38.653627 
L 188.304025 38.74702 
L 186.128112 40.012826 
L 184.2325 40.305497 
L 182.902051 40.307021 
L 181.50772 40.405447 
L 180.233983 40.114212 
L 180.019521 40.139792 
L 179.074322 40.445679 
L 178.966113 40.845212 
L 178.440061 41.446616 
L 175.628583 43.11985 
L 175.099924 43.185596 
L 174.773993 43.425647 
L 173.30535 44.189316 
L 172.574613 44.030966 
L 172.47553 44.004479 
L 170.152297 43.863452 
L 169.321826 43.703403 
L 167.057911 43.182217 
L 166.744366 42.973654 
L 166.488185 42.680528 
L 165.787434 42.248813 
L 165.578186 42.220929 
L 163.862487 42.240846 
L 162.920548 42.139131 
L 162.592662 42.319297 
L 162.195678 42.406044 
L 161.534691 42.840719 
L 160.283117 44.711394 
L 160.271384 45.122386 
L 159.84637 45.661632 
L 159.551729 45.932802 
L 159.380941 46.296545 
L 159.466335 46.664384 
L 159.970876 46.92545 
L 160.306584 47.682718 
L 161.090773 48.37828 
L 162.166996 48.99756 
L 162.832547 49.919922 
L 162.837762 50.298827 
L 162.618736 50.534762 
L 161.631166 50.666983 
L 160.251176 51.715597 
L 159.408319 51.808268 
L 159.011988 52.035718 
L 156.708962 52.783417 
L 156.458647 52.95337 
L 155.596235 53.802542 
L 154.768371 54.485914 
L 154.405284 55.055109 
L 153.555257 55.606872 
L 153.404025 55.714966 
L 153.134807 56.138098 
L 150.489554 56.952891 
L 150.01891 57.000104 
L 148.471391 57.493309 
L 147.32216 58.10997 
L 145.860687 58.254605 
L 144.018201 58.120847 
L 142.98109 58.425387 
L 141.338725 58.1978 
L 139.972098 58.213641 
L 139.073833 58.078938 
L 130.18375 59.118397 
L 124.512231 60.941999 
L 120.300881 62.50388 
L 118.868742 63.489833 
L 118.354749 63.122151 
L 115.911247 63.048298 
L 115.867573 62.990488 
L 115.885173 61.708951 
L 110.780447 62.405237 
L 106.882969 60.873212 
L 99.949773 59.607356 
L 99.396342 59.171805 
L 98.443321 58.036553 
L 97.826661 57.700672 
L 96.395825 57.518704 
L 95.184667 57.611675 
L 87.318657 56.70719 
L 84.18353 57.399249 
L 69.779304 56.024426 
L 64.526002 56.409877 
L 64.481024 56.308754 
L 64.279599 55.267684 
L 64.125759 55.125108 
L 61.477247 53.201888 
L 61.294726 52.717003 
L 61.215199 52.214154 
L 60.329971 50.865324 
L 59.33849 48.883423 
L 58.957803 48.708619 
L 58.028249 48.587553 
L 57.972841 48.382022 
L 58.230978 47.230838 
L 58.470863 46.938183 
L 58.355484 46.898435 
L 55.923389 47.064909 
L 55.368003 46.855586 
L 53.969109 46.481037 
L 53.800277 46.287866 
L 53.364182 46.004344 
L 52.368138 45.5948 
L 51.789937 45.549015 
L 50.698069 44.629932 
L 50.595075 44.62191 
L 50.024697 44.716949 
L 49.197485 44.587665 
L 48.863732 44.341264 
L 47.689078 43.287928 
L 46.661093 42.930053 
L 45.870385 42.874792 
L 45.348896 42.724404 
L 44.88803 42.75018 
L 44.225739 42.582057 
L 43.001543 42.605982 
L 42.079812 42.443753 
L 41.78843 42.415241 
L 39.93584 42.652916 
L 39.541464 42.562734 
L 38.840713 42.524705 
L 38.262512 42.554453 
L 37.312098 42.196725 
L 35.304366 42.220929 
L 34.915205 42.287424 
L 34.024762 42.1811 
L 33.499362 41.774185 
L 33.254914 41.828963 
L 32.920509 41.9661 
L 31.896435 41.728594 
L 31.092038 41.351555 
L 30.577068 41.367447 
L 29.934333 41.537117 
L 29.85285 41.26813 
L 29.892614 41.138603 
L 29.706833 40.982259 
L 29.415451 40.838803 
L 29.333968 40.478905 
L 29.081046 40.028352 
L 28.533483 39.72558 
L 28.909607 38.204312 
L 30.749159 36.628219 
L 30.708092 36.092902 
L 30.410843 35.775381 
L 30.079046 34.998527 
L 31.033371 33.468339 
L 30.721781 33.157578 
L 30.831946 32.679507 
L 30.764152 32.465132 
L 30.246574 31.883442 
L 30.309805 31.692752 
L 30.063401 31.386409 
L 29.912821 31.201948 
L 29.507364 31.050016 
L 29.109076 31.021297 
L 28.918081 30.890465 
L 27.381644 29.127 
L 27.517231 28.908896 
L 27.424015 28.742519 
L 27.253227 28.668914 
L 27.121551 28.086575 
L 26.833429 27.905996 
L 26.555084 27.347359 
L 26.601366 27.22482 
L 26.332147 27.112416 
L 25.183242 26.820566 
L 24.79734 26.485249 
L 24.77974 26.262934 
L 24.804185 26.038019 
L 24.708035 25.976284 
L 24.042159 26.026515 
L 23.93069 26.24501 
L 23.061434 26.321667 
L 22.788304 26.222133 
L 22.58036 25.924024 
L 22.180769 25.790431 
L 21.98847 25.583177 
L 21.750215 25.434334 
L 21.726422 25.184641 
L 21.296193 25.131069 
L 20.700392 25.169686 
L 20.227793 25.117714 
L 19.499012 25.429103 
L 18.406818 25.339022 
L 17.594925 24.704589 
L 17.056488 24.709083 
L 16.702527 24.622701 
L 16.105422 24.328527 
L 15.822514 24.312748 
L 15.429442 24.011079 
L 15.336552 23.684589 
L 15.376641 23.377801 
L 14.834293 23.058801 
L 14.230669 23.01124 
L 13.735254 22.674941 
L 12.969643 22.54269 
L 12.542348 22.4105 
L 11.508496 22.083956 
L 11.451785 21.948964 
L 12.215114 21.48746 
L 12.187084 21.346161 
L 11.657773 21.080665 
L 10.564601 20.78396 
L 10.472037 20.579282 
L 10.145455 20.357336 
L 10.279086 20.171516 
L 11.008845 19.908555 
L 10.910088 19.646127 
L 10.689107 19.573796 
L 10.683892 19.336433 
L 10.755597 19.050104 
L 10.653906 18.819438 
L 10.899006 18.857206 
L 11.767937 18.677214 
L 12.748337 18.101974 
L 12.541045 17.773363 
L 13.073615 17.238698 
L 14.657638 17.179701 
L 15.330685 17.147244 
L 15.808173 17.037201 
L 16.34987 17.301097 
L 17.333203 17.307309 
L 17.204134 17.132004 
L 17.288224 16.781454 
L 17.541472 16.793291 
L 17.963878 17.230511 
L 18.208326 17.204823 
L 19.351039 16.871939 
L 19.479456 16.741436 
L 19.301172 16.324421 
L 19.710215 16.283908 
L 20.260386 16.548757 
L 20.628687 16.449654 
L 20.904751 16.206839 
L 21.401143 16.100272 
L 22.549722 15.791496 
L 22.614257 15.708954 
L 22.431736 15.567793 
L 22.076471 15.374275 
L 22.178487 15.254589 
L 22.14948 15.222364 
L 22.000203 15.061299 
L 22.113271 14.772035 
L 22.665102 14.599935 
L 23.923194 14.539841 
L 24.402964 14.313284 
L 24.45772 14.000168 
L 24.749754 13.819781 
L 25.832822 13.656786 
L 26.72196 13.304676 
L 27.10721 13.266293 
L 27.699752 13.096974 
L 28.629958 13.140057 
L 28.92134 12.991657 
L 29.009342 12.702047 
L 30.40954 12.135432 
L 30.809782 11.986501 
L 31.764107 11.946376 
L 32.610223 11.766584 
L 33.355952 11.793407 
L 33.730121 11.394402 
L 34.535169 11.161477 
L 35.020154 10.751068 
L 35.932108 10.511304 
L 36.409922 10.48104 
L 38.042835 10.577623 
L 38.572146 10.413097 
L 38.914373 9.935263 
L 39.029101 9.691064 
L 39.4665 9.639511 
L 40.298275 10.197011 
L 40.538812 10.290736 
L 41.139176 10.657723 
L 41.565493 10.561385 
L 41.74997 10.405396 
L 41.836016 10.143156 
L 42.450721 10.01159 
L 43.106493 10.105245 
L 43.492395 10.965699 
L 44.225739 11.055573 
L 46.730842 11.13417 
L 51.379264 11.347469 
L 51.750825 12.652932 
L 51.979629 13.181202 
L 52.126297 13.273524 
L 52.79967 13.521453 
L 52.940472 13.74649 
L 53.278136 13.958058 
L 53.461309 14.167563 
L 53.761165 14.177889 
L 54.362833 14.056234 
L 55.670467 14.054839 
L 55.987923 14.313284 
L 56.141111 14.471937 
L 56.444226 14.568629 
L 58.4839 14.604688 
L 59.245926 14.871228 
L 59.645517 14.616429 
L 60.512492 14.498482 
L 60.930336 14.210824 
L 61.430965 14.19324 
L 61.930943 14.606644 
L 62.814215 14.313284 
L 64.042973 14.672905 
L 64.621174 14.890537 
L 65.670671 14.804918 
L 65.960097 15.045058 
L 66.217582 14.959109 
L 66.6967 14.740581 
L 68.613824 15.00306 
L 68.937799 15.287939 
L 69.390191 15.488125 
L 69.541423 15.626999 
L 70.231092 15.758083 
L 70.742151 15.714288 
L 71.570015 15.418295 
L 72.194498 15.099386 
L 72.182765 14.832615 
L 72.150171 14.72408 
L 73.48062 14.511057 
L 73.811114 14.688844 
L 75.186541 14.149703 
L 75.549628 13.929337 
L 76.60108 12.556394 
L 76.563272 12.118265 
L 76.780342 11.6245 
L 76.620636 11.385291 
L 76.306439 11.278741 
L 75.741275 11.207549 
L 75.030746 10.828468 
L 74.55228 10.009118 
L 74.78695 9.738514 
L 73.847618 9.241157 
L 73.66249 8.921346 
L 74.162467 8.292639 
L 74.645496 7.053868 
L 75.304528 6.456999 
L 75.753009 6.369997 
L 76.333817 6.333338 
L 76.608902 5.48701 
L 76.97916 5.156071 
L 77.564531 5.010749 
L 78.992107 4.744018 
L 79.368883 4.496512 
L 79.877335 3.809746 
L 80.47444 3.028661 
L 80.95421 3.111242 
L 81.15759 3.391622 
L 81.349238 3.457627 
L 82.805496 3.807605 
L 83.233768 4.034025 
L 86.135529 4.535441 
L 86.980341 4.993801 
L 87.535727 5.086225 
L 88.824457 5.114888 
L 90.720395 5.111389 
L 91.527725 5.292997 
L 96.251112 6.554999 
L 97.125258 6.422628 
L 98.821401 6.718329 
L 101.272073 7.219571 
L 101.332044 7.307286 
L 100.993403 7.761164 
L 101.050766 8.035884 
L 101.036425 8.411295 
L 101.323244 8.818432 
L 101.569648 9.113073 
L 101.469913 9.254571 
L 101.622775 9.391766 
L 101.479691 9.993741 
L 102.189894 10.419423 
L 101.984558 10.653043 
L 101.825177 10.940893 
L 102.023017 11.24535 
L 102.463024 11.406827 
L 103.348577 11.567025 
L 104.019834 12.12731 
L 104.92217 12.257022 
L 105.961563 12.642389 
L 106.256204 12.68179 
L 107.691603 12.674575 
L 108.16518 13.209007 
L 108.353242 13.247381 
L 109.408931 13.292715 
L 110.212676 13.553748 
L 110.633127 13.566278 
L 111.372337 13.270465 
L 111.751721 13.278252 
L 112.975916 13.512544 
L 113.976197 13.357254 
L 115.286112 12.655429 
L 115.716993 12.587182 
L 116.715644 12.530878 
L 117.123057 12.372848 
L 117.888994 12.345411 
L 118.619079 12.158139 
L 119.700843 12.175309 
L 119.862178 12.132386 
L 120.790103 11.733406 
L 121.106582 11.712671 
L 123.066402 12.00449 
L 124.120788 11.991482 
L 124.736797 12.101652 
L 125.245575 12.123248 
L 125.621373 12.411377 
L 125.693729 12.478191 
L 126.35602 12.553065 
L 126.885332 12.710651 
L 128.798544 12.466268 
L 130.047185 12.618529 
L 130.312818 12.70399 
L 131.538969 13.26518 
L 131.813403 13.595794 
L 132.685593 14.172308 
L 133.255646 14.280057 
L 133.570821 14.220036 
L 133.944337 14.403213 
L 136.381646 14.460203 
L 136.743755 14.577573 
L 137.313156 14.622859 
L 137.680806 14.688564 
L 137.640065 15.451946 
L 137.635828 15.787846 
L 137.497633 16.062885 
L 137.721221 16.111517 
L 138.054974 16.140757 
L 137.988484 16.347212 
L 138.161228 16.502298 
L 138.752792 16.732137 
L 139.535351 16.867146 
L 139.703206 17.084881 
L 140.06727 17.336961 
L 141.348829 17.932949 
L 141.792747 17.953611 
L 143.823946 17.815797 
L 144.628343 17.923892 
L 145.275316 17.82768 
L 146.38348 17.95531 
L 147.364531 18.287257 
L 147.51837 18.324952 
L 149.213209 18.349896 
L 149.51111 18.484293 
L 151.988835 18.821993 
L 152.520753 18.65451 
L 152.980316 18.411983 
L 153.415759 18.661605 
L 153.774935 18.717801 
L 154.637347 18.97935 
L 155.182303 18.974236 
L 156.659421 18.591234 
L 157.750636 18.129447 
L 158.716695 17.914552 
L 159.164523 17.712836 
L 160.052358 17.825416 
L 161.045795 17.55564 
L 163.374243 17.47086 
L 166.168773 16.803156 
L 166.868872 16.84572 
L 167.811463 17.028738 
L 168.658883 16.816686 
L 169.445679 16.514123 
L 169.874604 16.465981 
L 170.643148 15.346241 
L 170.830884 15.237495 
L 174.367232 13.833438 
L 174.850913 13.838455 
L 175.755696 13.364487 
L 176.146813 13.28298 
L 177.060071 12.893603 
L 177.898364 12.806969 
L 178.781636 13.012772 
L 179.958898 12.919432 
L 180.552091 13.001103 
L 182.282131 13.627263 
L 182.505068 13.855737 
L 183.430711 14.427236 
L 184.55126 14.863393 
L 186.841249 14.896414 
L 189.266173 14.19631 
L 190.307847 14.312167 
L 192.30515 14.829537 
L 192.728208 15.23077 
L 192.728208 15.23077 
" clip-path="url(#p3d2f853cf8)" style="fill: none; stroke: #000000; stroke-width: 0.5; stroke-linecap: square"/>
   </g>
  </g>
 </g>
 <defs>
  <clipPath id="p3d2f853cf8">
   <rect x="0" y="-0" width="223.2" height="66.513159"/>
  </clipPath>
 </defs>
</svg>
