<?xml version="1.0" encoding="utf-8" standalone="no"?>
<!DOCTYPE svg PUBLIC "-//W3C//DTD SVG 1.1//EN"
  "http://www.w3.org/Graphics/SVG/1.1/DTD/svg11.dtd">
<svg xmlns:xlink="http://www.w3.org/1999/xlink" width="223.2pt" height="192.538797pt" viewBox="0 0 223.2 192.538797" xmlns="http://www.w3.org/2000/svg" version="1.1">
 <metadata>
  <rdf:RDF xmlns:dc="http://purl.org/dc/elements/1.1/" xmlns:cc="http://creativecommons.org/ns#" xmlns:rdf="http://www.w3.org/1999/02/22-rdf-syntax-ns#">
   <cc:Work>
    <dc:type rdf:resource="http://purl.org/dc/dcmitype/StillImage"/>
    <dc:date>2026-04-26T19:22:07.335156</dc:date>
    <dc:format>image/svg+xml</dc:format>
    <dc:creator>
     <cc:Agent>
      <dc:title>Matplotlib v3.10.9, https://matplotlib.org/</dc:title>
     </cc:Agent>
    </dc:creator>
   </cc:Work>
  </rdf:RDF>
 </metadata>
 <defs>
  <style type="text/css">*{stroke-linejoin: round; stroke-linecap: butt}</style>
 </defs>
 <g id="figure_1">
  <g id="patch_1">
   <path d="M 0 192.538797 
L 223.2 192.538797 
L 223.2 0 
L 0 0 
z
" style="fill: #ffffff"/>
  </g>
  <g id="axes_1">
   <g id="patch_2">
    <path d="M 16.78708 125.044958 
L 16.933464 123.507171 
L 16.40963 122.34466 
L 14.576213 121.573337 
L 13.757723 121.203777 
L 12.404487 120.028285 
L 11.280427 118.660265 
L 10.527416 117.05702 
L 10.451024 115.258852 
L 11.040337 111.920704 
L 10.549243 110.244247 
L 11.640563 109.519787 
L 12.830101 109.15625 
L 14.052379 109.225748 
L 15.241918 109.781759 
L 16.333238 109.669484 
L 16.726113 109.038639 
L 16.496936 108.111194 
L 15.754838 107.076994 
L 17.881853 106.181477 
L 18.985145 105.717016 
L 21.22235 104.132958 
L 21.686789 103.293128 
L 22.400976 102.001898 
L 22.444629 98.990759 
L 21.353309 96.16241 
L 19.541718 94.465991 
L 17.391818 92.860669 
L 13.724983 88.553327 
L 12.295355 86.08376 
L 11.313167 83.617797 
L 11.214948 81.82617 
L 12.251702 80.673722 
L 13.572199 79.936583 
L 14.347036 78.933463 
L 13.74681 76.962268 
L 11.247688 73.343331 
L 10.200021 71.283494 
L 10.145455 69.503263 
L 12.175309 65.474327 
L 15.372876 63.292269 
L 21.276917 62.342165 
L 27.552005 62.283783 
L 31.840892 62.716351 
L 29.952909 54.894846 
L 29.898343 52.215621 
L 29.954139 52.008961 
L 30.793225 48.901938 
L 32.506597 46.309941 
L 37.057401 41.77451 
L 34.514626 40.883153 
L 36.118866 39.21451 
L 49.596665 32.203625 
L 52.379531 31.577702 
L 52.041222 31.168377 
L 51.440996 30.223069 
L 51.08086 29.816472 
L 53.02341 29.159107 
L 59.309412 28.74202 
L 61.874013 29.259423 
L 64.711445 30.666659 
L 65.453542 31.403406 
L 65.519021 32.105903 
L 65.431716 32.837535 
L 65.682719 33.693414 
L 66.643081 34.842694 
L 68.792981 36.81413 
L 68.851762 36.90876 
L 69.16403 37.411496 
L 70.266262 36.71105 
L 71.106579 35.854762 
L 71.772284 34.951028 
L 72.339396 34.399933 
L 72.568947 34.176879 
L 73.791225 33.706623 
L 76.563178 33.598311 
L 77.316188 33.143948 
L 74.140448 28.863448 
L 71.00836 22.707912 
L 67.352439 19.312157 
L 66.610341 18.922079 
L 64.28583 19.346422 
L 64.296743 18.821928 
L 64.755097 17.983884 
L 64.809663 17.319854 
L 63.401861 15.775992 
L 62.637937 15.436183 
L 61.011871 15.120098 
L 59.996943 14.585424 
L 59.942377 13.72688 
L 60.564429 12.889519 
L 61.568444 12.38663 
L 63.510993 11.699502 
L 66.021028 9.728047 
L 67.581616 8.920168 
L 69.982519 8.751764 
L 71.466714 9.780682 
L 72.601687 11.283576 
L 73.987663 12.507741 
L 75.766514 12.947447 
L 78.025546 12.892152 
L 80.099054 12.315545 
L 82.925572 9.967537 
L 85.555653 9.743838 
L 90.586637 10.288624 
L 88.458564 12.649918 
L 88.534956 15.578426 
L 90.259241 18.265855 
L 93.02028 19.931587 
L 107.513007 24.538375 
L 109.270032 25.440616 
L 113.678964 30.122737 
L 119.9104 34.734362 
L 121.187244 36.082037 
L 122.998835 38.963326 
L 124.068329 40.118855 
L 127.807694 42.353341 
L 128.02982 42.486099 
L 131.292866 45.529108 
L 133.11537 46.717601 
L 135.287096 47.532999 
L 139.968858 48.53121 
L 142.249717 48.713923 
L 143.59204 48.356446 
L 144.454183 47.744808 
L 145.305412 47.803057 
L 148.393847 51.810258 
L 150.336396 53.63327 
L 152.508123 54.892196 
L 154.974506 55.560189 
L 158.477642 55.724548 
L 162.057171 55.517775 
L 163.279449 54.971715 
L 165.745832 53.169518 
L 166.749846 52.779993 
L 168.070343 53.103271 
L 168.856094 53.924789 
L 169.456319 54.977016 
L 170.252983 55.973745 
L 171.30065 56.729347 
L 177.652131 59.933036 
L 181.294471 62.513268 
L 181.50099 62.659598 
L 187.899624 67.195013 
L 189.221855 67.508465 
L 190.431486 67.795238 
L 196.095436 68.204272 
L 199.118392 69.147277 
L 204.651383 72.003698 
L 211.144736 74.361533 
L 212.890847 76.00748 
L 213.054545 78.560991 
L 212.017792 82.550215 
L 203.472758 83.59916 
L 199.423961 84.68023 
L 198.529079 85.095664 
L 197.64511 86.232919 
L 197.557804 87.223853 
L 197.721502 88.164314 
L 197.557804 89.163537 
L 194.91681 91.306391 
L 191.337281 90.546716 
L 187.386704 88.827781 
L 183.610737 88.116355 
L 182.421199 88.526681 
L 181.426463 89.103322 
L 179.212718 90.386796 
L 178.350576 91.234418 
L 178.165051 93.276628 
L 179.365503 94.868717 
L 179.459059 94.933284 
L 185.49872 99.102851 
L 186.31721 100.16782 
L 186.524561 100.536196 
L 185.116759 103.198197 
L 183.916307 104.862165 
L 183.545258 105.70633 
L 183.512518 107.373609 
L 183.807175 108.82748 
L 183.68713 110.172065 
L 182.410285 111.532969 
L 179.692899 110.393961 
L 177.422954 111.586448 
L 173.625161 115.258852 
L 170.940514 115.823403 
L 165.789485 115.711024 
L 163.170317 117.03561 
L 163.148491 117.05702 
L 162.177216 117.736812 
L 158.182986 119.455342 
L 157.501969 119.61373 
L 156.502353 119.846223 
L 154.58163 119.674875 
L 152.791866 119.008267 
L 149.321469 117.05702 
L 147.498965 113.849027 
L 147.138829 112.888806 
L 147.07335 112.188122 
L 147.269788 110.623886 
L 147.455312 109.894037 
L 148.241062 108.672457 
L 148.732156 108.100504 
L 148.917681 108.207407 
L 148.824645 107.170139 
L 148.732156 106.13914 
L 147.837274 103.502647 
L 146.211208 101.262332 
L 143.799391 100.360014 
L 141.343921 101.200927 
L 139.443093 102.447333 
L 138.375531 103.147456 
L 135.614492 105.508636 
L 133.846554 107.592738 
L 133.235415 109.019929 
L 132.646102 111.733519 
L 132.05679 112.971717 
L 130.747206 114.060348 
L 129.230271 114.691675 
L 127.96434 115.483597 
L 127.375028 117.040963 
L 127.375028 117.05702 
L 126.098184 118.986851 
L 124.635815 120.721773 
L 122.91153 122.162534 
L 120.827109 123.161611 
L 119.419306 124.860121 
L 114.017273 129.424687 
L 113.471613 130.017266 
L 112.478512 131.71754 
L 112.271162 132.471271 
L 112.336641 133.893132 
L 112.238422 134.429763 
L 102.121887 145.945566 
L 98.9898 148.424282 
L 98.68423 149.526827 
L 99.732033 151.188107 
L 99.74281 151.205196 
L 101.401616 152.547656 
L 107.447528 155.841726 
L 109.028553 157.25181 
L 109.291859 157.486676 
L 109.542862 158.485689 
L 107.611226 161.599469 
L 107.098306 163.391355 
L 106.978261 165.455984 
L 107.360223 167.451136 
L 108.331497 169.023408 
L 108.364237 169.039591 
L 109.139074 169.762475 
L 108.582501 171.521458 
L 107.949535 171.910007 
L 107.087393 171.996354 
L 106.541733 172.374136 
L 107.218351 174.781643 
L 106.967347 175.526741 
L 106.563559 176.069418 
L 106.432601 176.590537 
L 106.487167 177.292626 
L 106.421688 177.724716 
L 106.672691 178.14063 
L 107.654879 178.842879 
L 108.495195 179.955824 
L 108.418803 182.690337 
L 108.509502 183.787034 
L 106.593247 182.573954 
L 102.717773 179.37842 
L 100.921822 178.72333 
L 93.213839 176.834983 
L 91.392108 175.976045 
L 88.805594 175.261763 
L 87.937694 174.836632 
L 87.095573 173.795172 
L 87.061201 173.221375 
L 87.19869 172.643377 
L 86.889339 171.598006 
L 86.390941 171.423793 
L 85.299622 170.697246 
L 84.526245 169.894313 
L 85.050423 169.52474 
L 85.119167 169.082979 
L 84.655141 163.932653 
L 78.674365 159.889035 
L 77.849431 158.383378 
L 78.811854 156.878058 
L 78.029885 156.267546 
L 76.715145 155.826655 
L 75.099648 153.741295 
L 71.078092 153.809102 
L 70.184413 152.698859 
L 69.943807 151.567618 
L 69.411037 151.300724 
L 68.697812 151.292251 
L 68.018959 150.944881 
L 66.583917 148.691653 
L 65.045757 147.531453 
L 60.809374 145.203192 
L 59.580565 143.616208 
L 58.841561 140.185382 
L 57.922103 138.743356 
L 56.40113 138.109133 
L 54.545027 138.109133 
L 52.946716 138.603822 
L 52.156153 139.453758 
L 51.640569 138.967463 
L 51.004682 138.502344 
L 50.703925 138.037258 
L 49.002497 138.743356 
L 48.203341 139.161977 
L 47.653385 139.610226 
L 47.404186 139.808987 
L 46.579251 140.08388 
L 45.883213 139.51719 
L 44.877824 138.037258 
L 41.39763 135.915188 
L 39.816506 134.495217 
L 39.77354 133.07555 
L 39.163432 132.708007 
L 38.252567 131.943415 
L 37.608087 131.59283 
L 37.608087 130.94662 
L 37.8401 129.460155 
L 36.009776 128.193544 
L 33.904474 128.125998 
L 33.337332 130.237129 
L 32.6327 130.237129 
L 31.781986 129.819072 
L 29.487637 130.051323 
L 29.023611 129.857076 
L 28.473654 129.185702 
L 27.184694 128.425738 
L 25.706686 127.792501 
L 24.623959 127.467463 
L 24.873158 127.108674 
L 24.881751 126.99471 
L 24.984868 126.918735 
L 25.414522 126.699256 
L 22.759263 125.323459 
L 21.934329 124.293908 
L 22.458506 123.095782 
L 23.799025 122.741448 
L 32.469432 124.83398 
L 33.689647 125.129351 
L 36.757373 126.323626 
L 38.329905 127.467463 
L 39.146246 125.855174 
L 38.974385 124.5555 
L 36.576919 120.641146 
L 36.516767 119.679786 
L 36.946421 118.145273 
L 33.440448 121.366476 
L 28.636923 122.032838 
L 17.422967 120.970065 
L 17.422967 121.741823 
L 19.407966 122.800502 
L 18.531473 125.804533 
L 20.310238 126.699256 
L 18.247902 126.192794 
z
" clip-path="url(#pca2fd84902)" style="stroke: #000000; stroke-linejoin: miter"/>
   </g>
   <g id="line2d_1">
    <path d="M 16.78708 125.044958 
L 16.933464 123.507171 
L 16.40963 122.34466 
L 13.757723 121.203777 
L 12.404487 120.028285 
L 11.280427 118.660265 
L 10.527416 117.05702 
L 10.451024 115.258852 
L 11.040337 111.920704 
L 10.549243 110.244247 
L 11.640563 109.519787 
L 12.830101 109.15625 
L 14.052379 109.225748 
L 15.241918 109.781759 
L 16.333238 109.669484 
L 16.726113 109.038639 
L 16.496936 108.111194 
L 15.754838 107.076994 
L 18.985145 105.717016 
L 21.22235 104.132958 
L 22.400976 102.001898 
L 22.444629 98.990759 
L 21.353309 96.16241 
L 19.541718 94.465991 
L 17.391818 92.860669 
L 13.724983 88.553327 
L 12.295355 86.08376 
L 11.313167 83.617797 
L 11.214948 81.82617 
L 12.251702 80.673722 
L 13.572199 79.936583 
L 14.347036 78.933463 
L 13.74681 76.962268 
L 11.247688 73.343331 
L 10.200021 71.283494 
L 10.145455 69.503263 
L 12.175309 65.474327 
L 15.372876 63.292269 
L 21.276917 62.342165 
L 27.552005 62.283783 
L 31.840892 62.716351 
L 29.952909 54.894846 
L 29.954139 52.008961 
L 30.793225 48.901938 
L 32.506597 46.309941 
L 37.057401 41.77451 
L 34.514626 40.883153 
L 36.118866 39.21451 
L 49.596665 32.203625 
L 52.379531 31.577702 
L 52.041222 31.168377 
L 51.08086 29.816472 
L 53.02341 29.159107 
L 59.309412 28.74202 
L 61.874013 29.259423 
L 64.711445 30.666659 
L 65.453542 31.403406 
L 65.519021 32.105903 
L 65.431716 32.837535 
L 65.682719 33.693414 
L 66.643081 34.842694 
L 68.851762 36.90876 
L 69.16403 37.411496 
L 70.266262 36.71105 
L 71.106579 35.854762 
L 71.772284 34.951028 
L 72.568947 34.176879 
L 73.791225 33.706623 
L 76.563178 33.598311 
L 77.316188 33.143948 
L 74.140448 28.863448 
L 71.00836 22.707912 
L 67.352439 19.312157 
L 66.610341 18.922079 
L 64.28583 19.346422 
L 64.296743 18.821928 
L 64.755097 17.983884 
L 64.809663 17.319854 
L 63.401861 15.775992 
L 62.637937 15.436183 
L 61.011871 15.120098 
L 59.996943 14.585424 
L 59.942377 13.72688 
L 60.564429 12.889519 
L 61.568444 12.38663 
L 63.510993 11.699502 
L 66.021028 9.728047 
L 67.581616 8.920168 
L 69.982519 8.751764 
L 71.466714 9.780682 
L 72.601687 11.283576 
L 73.987663 12.507741 
L 75.766514 12.947447 
L 78.025546 12.892152 
L 80.099054 12.315545 
L 82.925572 9.967537 
L 85.555653 9.743838 
L 90.586637 10.288624 
L 88.458564 12.649918 
L 88.534956 15.578426 
L 90.259241 18.265855 
L 93.02028 19.931587 
L 107.513007 24.538375 
L 109.270032 25.440616 
L 113.678964 30.122737 
L 119.9104 34.734362 
L 121.187244 36.082037 
L 122.998835 38.963326 
L 124.068329 40.118855 
L 128.02982 42.486099 
L 131.292866 45.529108 
L 133.11537 46.717601 
L 135.287096 47.532999 
L 139.968858 48.53121 
L 142.249717 48.713923 
L 143.59204 48.356446 
L 144.454183 47.744808 
L 145.305412 47.803057 
L 148.393847 51.810258 
L 150.336396 53.63327 
L 152.508123 54.892196 
L 154.974506 55.560189 
L 158.477642 55.724548 
L 162.057171 55.517775 
L 163.279449 54.971715 
L 165.745832 53.169518 
L 166.749846 52.779993 
L 168.070343 53.103271 
L 168.856094 53.924789 
L 169.456319 54.977016 
L 170.252983 55.973745 
L 171.30065 56.729347 
L 177.652131 59.933036 
L 187.899624 67.195013 
L 190.431486 67.795238 
L 196.095436 68.204272 
L 199.118392 69.147277 
L 204.651383 72.003698 
L 211.144736 74.361533 
L 212.890847 76.00748 
L 213.054545 78.560991 
L 212.017792 82.550215 
L 203.472758 83.59916 
L 199.423961 84.68023 
L 198.529079 85.095664 
L 197.64511 86.232919 
L 197.557804 87.223853 
L 197.721502 88.164314 
L 197.557804 89.163537 
L 194.91681 91.306391 
L 191.337281 90.546716 
L 187.386704 88.827781 
L 183.610737 88.116355 
L 182.421199 88.526681 
L 179.212718 90.386796 
L 178.350576 91.234418 
L 178.165051 93.276628 
L 179.459059 94.933284 
L 185.49872 99.102851 
L 186.524561 100.536196 
L 185.116759 103.198197 
L 183.916307 104.862165 
L 183.545258 105.70633 
L 183.512518 107.373609 
L 183.807175 108.82748 
L 183.68713 110.172065 
L 182.410285 111.532969 
L 179.692899 110.393961 
L 177.422954 111.586448 
L 173.625161 115.258852 
L 170.940514 115.823403 
L 165.789485 115.711024 
L 163.148491 117.05702 
L 162.177216 117.736812 
L 158.182986 119.455342 
L 156.502353 119.846223 
L 154.58163 119.674875 
L 152.791866 119.008267 
L 149.321469 117.05702 
L 147.498965 113.849027 
L 147.138829 112.888806 
L 147.07335 112.188122 
L 147.455312 109.894037 
L 148.732156 108.100504 
L 148.917681 108.207407 
L 148.732156 106.13914 
L 147.837274 103.502647 
L 146.211208 101.262332 
L 143.799391 100.360014 
L 141.343921 101.200927 
L 138.375531 103.147456 
L 135.614492 105.508636 
L 133.846554 107.592738 
L 133.235415 109.019929 
L 132.646102 111.733519 
L 132.05679 112.971717 
L 130.747206 114.060348 
L 129.230271 114.691675 
L 127.96434 115.483597 
L 127.375028 117.05702 
L 126.098184 118.986851 
L 124.635815 120.721773 
L 122.91153 122.162534 
L 120.827109 123.161611 
L 119.419306 124.860121 
L 113.471613 130.017266 
L 112.478512 131.71754 
L 112.271162 132.471271 
L 112.336641 133.893132 
L 112.238422 134.429763 
L 102.121887 145.945566 
L 98.9898 148.424282 
L 98.68423 149.526827 
L 99.74281 151.205196 
L 101.401616 152.547656 
L 107.447528 155.841726 
L 109.291859 157.486676 
L 109.542862 158.485689 
L 107.611226 161.599469 
L 107.098306 163.391355 
L 106.978261 165.455984 
L 107.360223 167.451136 
L 108.364237 169.039591 
L 109.139074 169.762475 
L 108.582501 171.521458 
L 107.949535 171.910007 
L 107.087393 171.996354 
L 106.541733 172.374136 
L 107.218351 174.781643 
L 106.967347 175.526741 
L 106.563559 176.069418 
L 106.432601 176.590537 
L 106.421688 177.724716 
L 106.672691 178.14063 
L 107.654879 178.842879 
L 108.495195 179.955824 
L 108.418803 182.690337 
L 108.509502 183.787034 
L 106.593247 182.573954 
L 102.717773 179.37842 
L 100.921822 178.72333 
L 93.213839 176.834983 
L 91.392108 175.976045 
L 88.805594 175.261763 
L 87.937694 174.836632 
L 87.095573 173.795172 
L 87.061201 173.221375 
L 87.19869 172.643377 
L 86.889339 171.598006 
L 86.390941 171.423793 
L 85.299622 170.697246 
L 84.526245 169.894313 
L 85.050423 169.52474 
L 85.119167 169.082979 
L 84.655141 163.932653 
L 78.674365 159.889035 
L 77.849431 158.383378 
L 78.811854 156.878058 
L 78.029885 156.267546 
L 76.715145 155.826655 
L 75.099648 153.741295 
L 71.078092 153.809102 
L 70.184413 152.698859 
L 69.943807 151.567618 
L 69.411037 151.300724 
L 68.697812 151.292251 
L 68.018959 150.944881 
L 66.583917 148.691653 
L 65.045757 147.531453 
L 60.809374 145.203192 
L 59.580565 143.616208 
L 58.841561 140.185382 
L 57.922103 138.743356 
L 56.40113 138.109133 
L 54.545027 138.109133 
L 52.946716 138.603822 
L 52.156153 139.453758 
L 50.703925 138.037258 
L 48.203341 139.161977 
L 47.404186 139.808987 
L 46.579251 140.08388 
L 45.883213 139.51719 
L 44.877824 138.037258 
L 41.39763 135.915188 
L 39.816506 134.495217 
L 39.77354 133.07555 
L 39.163432 132.708007 
L 38.252567 131.943415 
L 37.608087 131.59283 
L 37.608087 130.94662 
L 37.8401 129.460155 
L 36.009776 128.193544 
L 33.904474 128.125998 
L 33.337332 130.237129 
L 32.6327 130.237129 
L 31.781986 129.819072 
L 29.487637 130.051323 
L 29.023611 129.857076 
L 28.473654 129.185702 
L 27.184694 128.425738 
L 25.706686 127.792501 
L 24.623959 127.467463 
L 24.984868 126.918735 
L 25.414522 126.699256 
L 22.759263 125.323459 
L 21.934329 124.293908 
L 22.458506 123.095782 
L 23.799025 122.741448 
L 33.689647 125.129351 
L 36.757373 126.323626 
L 38.329905 127.467463 
L 39.146246 125.855174 
L 38.974385 124.5555 
L 36.576919 120.641146 
L 36.516767 119.679786 
L 36.946421 118.145273 
L 33.440448 121.366476 
L 28.636923 122.032838 
L 17.422967 120.970065 
L 17.422967 121.741823 
L 19.407966 122.800502 
L 18.531473 125.804533 
L 20.310238 126.699256 
L 18.247902 126.192794 
L 16.78708 125.044958 
L 16.78708 125.044958 
" clip-path="url(#pca2fd84902)" style="fill: none; stroke: #000000; stroke-width: 0.5; stroke-linecap: square"/>
   </g>
  </g>
 </g>
 <defs>
  <clipPath id="pca2fd84902">
   <rect x="0" y="-0" width="223.2" height="192.538797"/>
  </clipPath>
 </defs>
</svg>
