<?xml version="1.0" encoding="utf-8" standalone="no"?>
<!DOCTYPE svg PUBLIC "-//W3C//DTD SVG 1.1//EN"
  "http://www.w3.org/Graphics/SVG/1.1/DTD/svg11.dtd">
<svg xmlns:xlink="http://www.w3.org/1999/xlink" width="210.515671pt" height="221.76pt" viewBox="0 0 210.515671 221.76" xmlns="http://www.w3.org/2000/svg" version="1.1">
 <metadata>
  <rdf:RDF xmlns:dc="http://purl.org/dc/elements/1.1/" xmlns:cc="http://creativecommons.org/ns#" xmlns:rdf="http://www.w3.org/1999/02/22-rdf-syntax-ns#">
   <cc:Work>
    <dc:type rdf:resource="http://purl.org/dc/dcmitype/StillImage"/>
    <dc:date>2026-04-26T19:21:51.101697</dc:date>
    <dc:format>image/svg+xml</dc:format>
    <dc:creator>
     <cc:Agent>
      <dc:title>Matplotlib v3.10.9, https://matplotlib.org/</dc:title>
     </cc:Agent>
    </dc:creator>
   </cc:Work>
  </rdf:RDF>
 </metadata>
 <defs>
  <style type="text/css">*{stroke-linejoin: round; stroke-linecap: butt}</style>
 </defs>
 <g id="figure_1">
  <g id="patch_1">
   <path d="M 0 221.76 
L 210.515671 221.76 
L 210.515671 0 
L 0 0 
z
" style="fill: #ffffff"/>
  </g>
  <g id="axes_1">
   <g id="patch_2">
    <path d="M 107.722684 121.621837 
L 107.705746 121.650892 
L 107.771959 122.298591 
L 108.122827 123.466722 
L 108.245352 124.457327 
L 108.070227 125.077043 
L 107.906242 125.861318 
L 107.976477 126.605151 
L 108.245352 127.41826 
L 108.491021 128.259514 
L 108.491021 128.824853 
L 107.999683 129.25273 
L 106.871585 129.487527 
L 105.520714 129.680355 
L 104.532468 129.680355 
L 103.047314 129.542305 
L 102.123425 129.57006 
L 101.316492 129.57006 
L 100.59743 129.708113 
L 99.708194 130.246558 
L 98.719948 131.089286 
L 97.480464 132.222505 
L 96.737887 132.927553 
L 95.749951 133.079798 
L 94.762014 133.079798 
L 93.797283 132.51261 
L 93.177232 132.222505 
L 92.768196 132.24994 
L 92.095545 132.650913 
L 91.300369 132.927553 
L 90.557792 132.927553 
L 89.318308 132.360417 
L 87.833154 131.517396 
L 86.967434 131.089286 
L 85.734137 130.951116 
L 84.494653 130.674811 
L 83.628932 130.812958 
L 82.518161 130.812958 
L 81.033008 131.37919 
L 79.793523 131.793844 
L 78.437083 132.222505 
L 76.893142 132.609201 
L 77.267525 133.882248 
L 77.799705 134.574455 
L 77.799705 135.433344 
L 77.547848 136.153336 
L 76.805271 136.860436 
L 75.957496 137.761984 
L 75.466776 138.469401 
L 74.969559 139.455217 
L 74.601056 140.024786 
L 73.963677 140.95562 
L 73.396844 142.123198 
L 73.2211 142.846808 
L 72.993377 143.681956 
L 72.554638 143.932433 
L 71.045969 144.154947 
L 70.087427 144.4475 
L 69.251099 144.726099 
L 68.9389 145.21856 
L 68.888784 145.297442 
L 68.648684 146.301255 
L 68.648684 147.011875 
L 68.409203 147.583978 
L 68.052457 149.007675 
L 67.573185 150.306823 
L 67.21056 152.026954 
L 66.853814 153.453906 
L 66.374543 155.751888 
L 65.894962 157.897244 
L 65.298425 159.919512 
L 64.818844 161.212525 
L 64.456529 161.929527 
L 63.620202 162.802067 
L 62.90114 163.365121 
L 62.065122 164.097126 
L 61.105961 164.815258 
L 59.790672 165.674999 
L 58.708675 166.408295 
L 58.268689 166.738119 
L 57.750133 167.127325 
L 56.913806 168.128909 
L 56.194434 169.583524 
L 55.715163 170.741596 
L 54.878836 172.622642 
L 54.282609 173.641385 
L 53.920293 174.207339 
L 52.961131 174.788075 
L 51.885323 175.227303 
L 50.686681 175.807973 
L 49.727828 176.389569 
L 48.41223 176.970215 
L 47.576212 177.551787 
L 46.973487 178.417338 
L 46.494525 179.439156 
L 45.897989 180.902026 
L 45.418408 182.493522 
L 45.178927 183.517844 
L 44.459556 187.020786 
L 44.219765 189.059517 
L 43.980284 190.372728 
L 43.623229 191.98614 
L 43.383748 194.473739 
L 43.383748 196.520304 
L 43.143648 197.694628 
L 43.021123 198.582915 
L 42.424586 199.600945 
L 41.945005 200.332152 
L 41.109297 201.365076 
L 40.389926 201.953699 
L 40.150445 202.542486 
L 39.431073 203.274328 
L 38.712012 204.452793 
L 38.115475 205.186049 
L 38.232431 205.775725 
L 38.355265 206.811283 
L 37.99264 207.847335 
L 37.636204 209.028298 
L 36.677042 210.497392 
L 35.601234 211.23269 
L 34.040276 211.37688 
L 31.88835 211.37688 
L 30.210436 211.23269 
L 28.175466 211.23269 
L 26.380596 210.944339 
L 24.702373 210.641534 
L 22.667713 210.497392 
L 21.22897 210.497392 
L 19.43441 210.785685 
L 14.762364 210.785685 
L 12.967185 210.944339 
L 10.330419 211.535575 
L 9.568894 211.68 
L 9.580109 211.307255 
L 10.080033 209.132537 
L 10.129733 208.484502 
L 10.088804 207.925426 
L 10.116577 207.58957 
L 10.319275 207.184213 
L 10.360205 207.018135 
L 10.375309 206.837681 
L 10.368001 206.665035 
L 10.32902 206.58591 
L 10.173586 206.434862 
L 10.129733 206.353348 
L 10.194051 206.137591 
L 10.24911 205.697754 
L 10.47812 205.09507 
L 10.57411 204.486567 
L 10.679357 204.142863 
L 11.929166 201.212846 
L 12.359899 200.696309 
L 12.427141 200.56062 
L 12.446631 200.472157 
L 12.582575 200.118941 
L 12.651278 200.043046 
L 12.848129 199.882302 
L 12.917319 199.799843 
L 13.111734 199.297391 
L 13.244755 199.084736 
L 13.534184 198.958109 
L 13.599476 198.878076 
L 13.681335 198.806406 
L 13.816792 198.79685 
L 13.921552 198.846421 
L 14.012669 198.930635 
L 14.14374 199.107434 
L 15.459329 198.506018 
L 15.694673 198.285682 
L 15.934403 197.95731 
L 16.120534 197.588997 
L 16.541035 195.892735 
L 16.56686 195.638087 
L 16.684288 195.471718 
L 17.280201 194.790877 
L 17.429789 194.573913 
L 17.584249 193.638371 
L 17.620305 192.393626 
L 17.674878 192.075713 
L 17.818131 191.552512 
L 17.918506 191.310302 
L 18.158235 190.92949 
L 18.160671 190.781944 
L 18.116331 190.665343 
L 18.090507 190.568974 
L 18.090019 190.400041 
L 18.108535 190.301305 
L 18.214757 190.032482 
L 18.240094 189.939711 
L 18.298077 189.88738 
L 18.563631 189.855269 
L 18.850624 189.767857 
L 19.236043 189.381983 
L 19.637054 188.863636 
L 19.753508 188.574799 
L 19.834393 188.278873 
L 19.881169 187.961602 
L 19.896761 187.613494 
L 19.797848 187.271979 
L 19.563966 187.21853 
L 19.071351 187.368192 
L 19.156133 187.097384 
L 19.360781 186.634244 
L 19.472849 186.462672 
L 20.040501 185.870299 
L 20.090201 185.774158 
L 20.984802 183.4504 
L 21.119771 183.253024 
L 21.249381 183.16827 
L 21.402379 183.007664 
L 21.933487 181.976186 
L 22.101103 180.99912 
L 22.229739 180.725629 
L 22.410997 180.440339 
L 22.839782 179.582944 
L 23.419615 178.834141 
L 23.458109 178.74544 
L 23.655447 178.579283 
L 23.739255 178.482907 
L 23.803085 178.326823 
L 23.863018 178.028879 
L 23.910769 177.878152 
L 24.095438 177.543637 
L 24.28498 177.277131 
L 24.431157 177.003571 
L 24.490115 176.643218 
L 24.516914 176.003018 
L 24.472574 175.728458 
L 24.319088 175.40081 
L 24.358556 175.32171 
L 24.400947 175.202477 
L 24.261592 175.319349 
L 24.247462 175.489358 
L 24.27085 175.689492 
L 24.244538 175.895551 
L 24.159269 176.004789 
L 23.853272 176.242182 
L 23.739255 176.300649 
L 23.581384 176.305964 
L 23.478086 176.273482 
L 23.364068 176.30183 
L 23.174526 176.490235 
L 23.047353 176.67098 
L 22.961596 176.844653 
L 22.781311 177.330311 
L 22.626364 177.645877 
L 22.59518 177.738074 
L 22.569355 177.913616 
L 22.456799 178.203265 
L 22.431462 178.333917 
L 22.328164 178.507148 
L 21.76977 179.078387 
L 21.591434 178.926987 
L 21.67037 178.684534 
L 21.933487 178.333917 
L 21.997805 178.122869 
L 22.431462 177.192636 
L 23.174526 176.049077 
L 23.250051 175.822335 
L 23.423026 175.564922 
L 23.613056 175.337058 
L 24.484755 174.507293 
L 24.87261 174.343271 
L 25.3891 173.986366 
L 25.545509 173.816491 
L 25.939699 173.774614 
L 26.257389 173.544604 
L 26.507351 173.224994 
L 26.697868 172.907207 
L 27.188534 172.270025 
L 27.523278 171.72084 
L 27.982272 171.349701 
L 28.178149 171.1459 
L 28.258058 170.880873 
L 28.357946 170.711864 
L 29.451346 169.710491 
L 30.111577 168.928484 
L 30.934063 167.547089 
L 31.240547 167.160906 
L 31.624991 166.775977 
L 31.844256 166.610277 
L 32.085447 166.479842 
L 32.33346 166.394066 
L 32.851899 166.297131 
L 33.104298 166.138523 
L 33.505796 165.789631 
L 33.498974 165.454311 
L 33.536493 165.369757 
L 33.683157 165.038623 
L 33.967714 164.650026 
L 34.256169 164.392964 
L 34.557292 164.21222 
L 34.786789 164.014479 
L 34.932966 163.722893 
L 35.049907 162.785672 
L 35.336413 161.929808 
L 35.438249 161.260638 
L 35.602942 160.847071 
L 35.646307 160.654964 
L 35.623406 160.418372 
L 35.574681 160.200548 
L 35.561038 159.984506 
L 35.646307 159.752685 
L 35.55714 159.663126 
L 35.632177 159.46061 
L 35.687724 159.232367 
L 35.721832 158.992451 
L 35.728166 158.762512 
L 35.696007 158.539623 
L 35.58199 158.226103 
L 35.55714 158.039538 
L 35.569808 156.76802 
L 35.48259 156.406898 
L 35.847544 154.741308 
L 35.932813 154.513666 
L 36.292895 153.067949 
L 36.842031 152.228366 
L 36.99844 152.080897 
L 37.096866 151.941017 
L 37.453049 151.005857 
L 37.534908 150.36639 
L 37.559758 150.275556 
L 37.672314 150.020546 
L 37.738093 149.56884 
L 38.221938 148.249321 
L 39.114102 146.883152 
L 39.436665 146.246945 
L 39.503906 146.058743 
L 39.538014 145.774736 
L 39.730479 145.136036 
L 39.831341 144.938668 
L 39.786027 144.709982 
L 39.905404 143.90692 
L 39.870322 143.697513 
L 39.756304 143.266598 
L 39.789437 143.123951 
L 39.882503 142.965081 
L 40.008215 142.549423 
L 40.075943 142.390027 
L 40.746406 141.452505 
L 40.858962 141.363878 
L 41.428563 141.226604 
L 42.078074 140.852485 
L 43.072075 139.810488 
L 43.238229 139.572078 
L 43.349323 139.326758 
L 43.499398 139.115026 
L 43.777133 138.981405 
L 45.09662 138.830443 
L 45.32563 138.717087 
L 46.571054 138.027859 
L 48.747135 136.363209 
L 50.208413 135.35864 
L 50.913471 134.505236 
L 51.634609 132.95766 
L 51.880672 132.201701 
L 52.111631 131.054603 
L 52.459531 130.233934 
L 52.813279 128.447282 
L 53.03839 127.909431 
L 54.027031 126.368706 
L 54.030929 126.290073 
L 53.947121 126.158644 
L 53.945172 126.079447 
L 54.10889 125.983613 
L 54.748656 124.381683 
L 55.146743 122.944593 
L 55.172568 122.647367 
L 55.228115 122.394856 
L 55.465408 121.855613 
L 55.498033 121.607394 
L 55.498541 121.603229 
L 55.506337 121.541999 
L 55.581862 121.290809 
L 55.710497 121.155217 
L 56.071553 120.966439 
L 56.459408 120.626694 
L 56.896963 120.476864 
L 57.091865 120.238996 
L 57.596662 119.379311 
L 57.877321 118.359052 
L 58.014727 118.065551 
L 58.202807 117.869154 
L 58.433766 117.727581 
L 59.561274 117.282966 
L 61.730047 116.895529 
L 63.457853 116.932044 
L 65.595441 116.205347 
L 68.871744 115.62036 
L 69.003791 115.522314 
L 69.273243 115.229923 
L 69.330739 115.192309 
L 69.540258 115.141589 
L 72.21334 113.924817 
L 75.767378 112.309082 
L 76.160106 111.990008 
L 76.447099 111.606184 
L 76.920224 110.782572 
L 77.103432 110.574608 
L 77.319773 110.378035 
L 77.499083 110.157063 
L 77.57412 109.87706 
L 77.679367 109.661272 
L 78.391247 109.153725 
L 78.952078 108.443787 
L 79.045631 108.244656 
L 79.542631 107.924741 
L 79.636671 107.817551 
L 79.735584 107.627009 
L 79.796004 107.53515 
L 80.205298 107.19838 
L 80.246227 107.14396 
L 80.491804 106.718303 
L 80.826548 106.355089 
L 81.012192 106.225351 
L 84.424927 104.437368 
L 85.244003 103.876168 
L 86.223385 103.35985 
L 86.68579 103.04438 
L 88.157301 101.631254 
L 89.391031 99.728156 
L 89.714568 99.332273 
L 89.940654 99.139446 
L 90.395263 98.969757 
L 90.582369 98.758379 
L 90.870337 98.291765 
L 91.172435 97.901345 
L 91.310816 97.65633 
L 91.368799 97.402911 
L 91.429706 97.284664 
L 91.859465 96.969386 
L 91.915987 96.881571 
L 92.022208 96.591144 
L 92.51531 95.844521 
L 92.587911 95.689844 
L 92.61471 95.39741 
L 92.687311 95.08817 
L 92.794995 94.808225 
L 92.922656 94.601393 
L 93.493719 94.069838 
L 93.583373 93.898502 
L 93.656462 93.677762 
L 94.156385 92.998907 
L 95.709755 91.304036 
L 96.934714 89.133596 
L 97.686549 87.341638 
L 97.804952 86.831831 
L 98.006675 85.08304 
L 98.226914 84.172382 
L 98.259073 83.900753 
L 98.207424 83.534391 
L 98.074891 83.355427 
L 97.889734 83.228885 
L 97.686549 83.015963 
L 97.553528 82.781899 
L 97.248019 82.093315 
L 97.148619 81.640021 
L 97.048732 81.574323 
L 96.915224 81.560404 
L 96.780254 81.511968 
L 96.672571 81.405081 
L 96.452819 81.036607 
L 95.596711 80.46517 
L 95.341877 80.451263 
L 95.065603 80.391741 
L 94.891653 80.196506 
L 94.91358 79.67157 
L 95.165978 79.157953 
L 95.484643 78.67231 
L 95.709755 78.22905 
L 95.787715 77.923631 
L 95.797461 77.753737 
L 95.750684 77.623833 
L 95.666389 77.501157 
L 95.660055 77.415124 
L 95.689777 77.317442 
L 95.709755 77.154284 
L 95.6201 74.478912 
L 95.575272 74.235259 
L 95.382806 73.746428 
L 95.532394 73.427098 
L 95.844724 71.505009 
L 95.872498 70.727797 
L 95.821336 70.410306 
L 95.694163 70.23917 
L 95.535317 70.112212 
L 95.382806 69.927869 
L 95.757506 69.461058 
L 96.036216 68.993312 
L 96.315413 68.178471 
L 96.452819 67.984484 
L 96.675007 67.792179 
L 96.751019 67.692457 
L 96.81826 67.451722 
L 96.986363 67.279875 
L 97.057989 67.124571 
L 97.218784 66.902663 
L 97.277742 66.774381 
L 97.446332 65.689728 
L 97.540859 65.476868 
L 98.636696 64.329024 
L 99.12054 63.675853 
L 99.209708 63.584689 
L 99.38512 63.455093 
L 99.485007 63.352963 
L 99.575149 63.221744 
L 99.679909 62.989535 
L 99.73838 62.892382 
L 101.147521 61.493555 
L 101.291749 61.218909 
L 101.383353 61.019403 
L 101.522221 60.479143 
L 101.543173 60.257846 
L 101.602618 60.091351 
L 102.0353 59.573388 
L 102.205839 59.2012 
L 102.298418 58.785903 
L 102.361274 57.39985 
L 102.311087 57.334276 
L 102.085975 57.22718 
L 102.0353 57.128834 
L 102.063074 56.838215 
L 102.138598 56.632855 
L 102.46311 56.03172 
L 102.551791 55.763733 
L 102.574692 55.498533 
L 102.480651 55.284668 
L 102.37443 55.147749 
L 102.270157 54.954124 
L 102.199018 54.731629 
L 102.191222 54.506449 
L 102.419257 54.097087 
L 104.18848 52.678734 
L 105.549384 51.151115 
L 106.709051 50.38042 
L 107.114934 50.018613 
L 108.469016 48.301242 
L 109.972686 46.742868 
L 110.06429 46.586871 
L 110.077933 46.41844 
L 110.070137 46.131998 
L 110.179282 45.962549 
L 111.169871 44.866312 
L 111.265861 44.815474 
L 111.369159 44.842515 
L 111.485613 44.961502 
L 111.589398 44.988547 
L 111.880776 44.973402 
L 112.098092 44.925805 
L 112.536622 44.715969 
L 112.970766 44.388311 
L 113.671926 43.581989 
L 114.097787 43.257346 
L 114.594787 43.062387 
L 116.230503 42.713054 
L 117.368243 42.241323 
L 117.954898 41.997436 
L 118.509395 41.867959 
L 118.80662 41.751442 
L 119.066327 41.444023 
L 119.365015 41.31946 
L 120.165087 41.089782 
L 120.641623 40.860149 
L 120.86576 40.812718 
L 121.086974 40.69954 
L 121.285287 40.472139 
L 121.487498 40.302964 
L 121.723329 40.36061 
L 121.862684 40.278183 
L 121.977676 40.295961 
L 122.089745 40.347141 
L 122.222278 40.36061 
L 122.336296 40.318049 
L 122.544841 40.1963 
L 122.895665 40.132737 
L 123.14514 40.039015 
L 123.371226 39.921065 
L 123.529097 39.809589 
L 123.933518 39.326112 
L 124.280444 39.171098 
L 124.615188 38.790647 
L 124.84566 38.718015 
L 124.763801 38.816473 
L 125.004505 38.892339 
L 125.258852 38.821315 
L 125.396258 38.736307 
L 126.27819 38.190359 
L 126.735235 37.813457 
L 127.170841 37.591997 
L 127.654198 37.428616 
L 128.080059 37.365205 
L 128.085419 37.364668 
L 128.290066 37.293738 
L 128.668663 36.984812 
L 129.100371 36.845152 
L 130.351155 35.922744 
L 131.611684 34.664359 
L 132.669515 33.045418 
L 133.459355 31.495079 
L 134.774944 29.693851 
L 134.896758 29.470769 
L 135.098481 28.955395 
L 135.373781 28.552226 
L 137.958181 23.635905 
L 138.996522 20.460383 
L 141.16968 15.573122 
L 141.233997 15.326581 
L 141.256411 15.010587 
L 141.308547 14.826827 
L 141.565818 14.313102 
L 141.814806 13.615027 
L 141.836245 13.506175 
L 141.872302 13.386294 
L 142.030172 13.18915 
L 142.066229 13.06142 
L 142.137368 12.454524 
L 142.220202 12.154621 
L 142.327398 11.959284 
L 142.557382 11.745086 
L 142.972036 11.685244 
L 144.07372 11.82803 
L 144.218922 11.803881 
L 144.541485 11.51886 
L 144.690585 11.418623 
L 144.907901 11.315771 
L 145.126191 11.268547 
L 145.27724 11.334662 
L 145.486273 11.248084 
L 145.770342 11.241787 
L 146.054899 11.304227 
L 146.258085 11.422821 
L 146.964117 11.053441 
L 147.164866 10.895026 
L 147.593651 10.460818 
L 147.816326 10.28834 
L 148.064827 10.182979 
L 148.161612 10.188365 
L 148.216401 10.235897 
L 148.359559 10.306249 
L 148.470904 10.300544 
L 148.516856 10.201674 
L 148.545134 10.102813 
L 148.57518 10.08 
L 148.649045 10.106455 
L 148.654594 10.105958 
L 148.764052 10.395252 
L 148.899573 10.657616 
L 149.085217 10.888071 
L 149.350693 11.100131 
L 149.349718 11.103279 
L 149.291248 11.290585 
L 149.331202 11.611759 
L 149.510512 12.280664 
L 149.567521 12.823874 
L 149.61381 12.979429 
L 149.686899 13.099264 
L 149.780939 13.192829 
L 149.851591 13.204394 
L 150.055264 13.176008 
L 150.116658 13.192829 
L 150.133224 13.268003 
L 150.108374 13.46411 
L 150.116658 13.545613 
L 150.317407 14.233118 
L 150.444093 14.493088 
L 150.695517 14.701531 
L 151.201288 15.021645 
L 151.625199 15.379783 
L 152.637228 16.657422 
L 152.821898 16.786115 
L 153.115225 16.832005 
L 153.332541 16.893722 
L 153.568373 17.040909 
L 153.973282 17.370701 
L 154.310949 17.787705 
L 154.516571 17.992572 
L 155.047679 18.155226 
L 155.698652 18.700403 
L 156.179085 18.946669 
L 157.882042 19.40976 
L 159.47293 19.729705 
L 159.48706 19.73235 
L 160.902536 20.105828 
L 161.24264 20.128051 
L 161.489191 20.067734 
L 162.179632 19.676286 
L 163.841659 19.417691 
L 164.846379 19.013266 
L 165.869127 18.824586 
L 166.371487 18.611635 
L 166.490378 18.7617 
L 166.45305 18.818292 
L 166.30765 18.861963 
L 166.24949 18.910488 
L 166.303176 18.988133 
L 166.38196 19.078398 
L 166.556385 19.295635 
L 166.73174 19.370557 
L 166.979582 19.38438 
L 167.310915 19.40976 
L 167.537976 19.391782 
L 167.950681 19.360058 
L 168.222082 19.240042 
L 168.333176 19.006923 
L 168.433551 18.652848 
L 168.684 18.410875 
L 169.003152 18.299946 
L 169.314508 18.337977 
L 169.546442 18.479552 
L 170.049289 18.890647 
L 170.303636 19.047094 
L 171.20116 19.17396 
L 171.520799 19.336794 
L 171.663565 19.341024 
L 171.815101 19.32622 
L 171.945686 19.328863 
L 172.077244 19.36746 
L 172.312101 19.468982 
L 172.435864 19.506527 
L 173.044933 19.550947 
L 173.557525 19.456291 
L 175.043653 18.983138 
L 175.297513 18.842026 
L 175.839828 18.329526 
L 175.967002 18.257162 
L 176.066402 18.2635 
L 176.177983 18.316849 
L 176.306619 18.359107 
L 176.457668 18.337977 
L 176.836752 17.993628 
L 177.305492 16.967577 
L 177.610026 16.566187 
L 177.58615 16.430139 
L 177.644621 16.322578 
L 177.75669 16.281982 
L 177.899456 16.349468 
L 177.952566 16.455449 
L 177.888249 16.678519 
L 177.943796 16.832005 
L 177.822956 17.227691 
L 177.981802 17.72752 
L 178.001779 17.788233 
L 178.00519 17.794569 
L 177.776526 18.001063 
L 177.814274 18.359915 
L 178.062418 18.598098 
L 178.423255 18.480609 
L 178.589409 18.700403 
L 178.4827 18.817716 
L 178.430076 19.014851 
L 178.418382 19.232112 
L 178.460286 19.652486 
L 178.51632 19.823327 
L 178.62108 19.976207 
L 178.793569 20.172497 
L 179.10395 20.373056 
L 179.524451 20.495315 
L 180.396638 20.572594 
L 179.873326 20.192604 
L 178.957774 19.254317 
L 178.779438 18.979438 
L 178.836447 18.877963 
L 178.998703 18.991066 
L 179.579024 19.550947 
L 179.671602 19.690566 
L 180.241203 20.217474 
L 180.753309 20.481024 
L 181.371148 20.673171 
L 182.610725 20.830407 
L 183.1584 20.788581 
L 183.447829 20.722934 
L 183.640782 20.616 
L 183.89318 20.357709 
L 184.120728 20.193662 
L 184.364843 20.140749 
L 185.505995 20.535013 
L 185.773985 20.572594 
L 186.059029 20.655702 
L 186.377207 20.816112 
L 186.690025 20.919359 
L 186.707249 21.431489 
L 186.820492 21.77668 
L 187.034602 22.035141 
L 187.399702 22.159682 
L 187.845867 22.447864 
L 188.218393 22.763739 
L 188.621859 22.998179 
L 189.160228 23.043322 
L 189.311837 23.148436 
L 189.358867 23.302758 
L 189.374337 23.480692 
L 189.433125 23.661353 
L 189.597729 23.838671 
L 190.232632 24.193395 
L 190.638574 24.538114 
L 191.897242 25.256232 
L 192.115064 25.456768 
L 192.071747 25.551984 
L 191.916425 25.659366 
L 191.624345 26.249141 
L 190.996249 27.127293 
L 190.898476 27.349139 
L 192.340931 28.691303 
L 192.777195 28.810843 
L 192.912097 28.881286 
L 191.634865 30.287693 
L 192.093406 30.783238 
L 192.396006 31.366232 
L 193.249969 33.790688 
L 193.281891 33.974155 
L 193.311232 34.14281 
L 193.281529 34.406548 
L 192.723358 36.530585 
L 192.683135 37.149972 
L 192.791428 37.799391 
L 192.917666 38.184847 
L 192.909003 38.330323 
L 192.818037 38.525344 
L 192.696749 38.666764 
L 192.557516 38.77916 
L 192.441798 38.912751 
L 192.387342 39.116073 
L 192.459744 39.324898 
L 192.643531 39.442486 
L 193.058756 39.579915 
L 193.267915 39.723173 
L 193.397866 39.879443 
L 193.937471 41.074563 
L 193.992546 41.511449 
L 193.840936 41.872448 
L 193.66148 42.120485 
L 193.436851 42.860112 
L 193.272865 43.194091 
L 193.148484 43.53091 
L 193.146627 44.837935 
L 193.256157 45.274847 
L 193.862595 45.824995 
L 194.077942 46.205197 
L 194.240071 46.623353 
L 194.487597 46.951171 
L 194.797623 47.219547 
L 195.146634 47.457351 
L 195.348367 47.640813 
L 195.425719 47.916918 
L 195.422006 48.227872 
L 195.384258 48.519271 
L 195.356412 48.656383 
L 195.306907 48.781452 
L 195.236362 48.892405 
L 195.146634 48.983381 
L 194.638588 49.328048 
L 196.260499 51.882343 
L 196.653446 52.198121 
L 197.413968 52.463867 
L 200.761133 54.899399 
L 200.946777 55.202449 
L 200.252468 55.939433 
L 199.855189 56.227832 
L 199.410881 56.402222 
L 198.914592 56.470528 
L 198.719666 56.56762 
L 198.525977 56.809342 
L 198.406546 57.046949 
L 198.246273 57.531322 
L 198.055778 58.759582 
L 198.030926 58.91991 
L 198.034639 59.033524 
L 198.017312 59.144021 
L 197.941198 59.287543 
L 197.86694 59.359136 
L 197.669538 59.508939 
L 197.623127 59.593407 
L 197.675727 59.812424 
L 197.869415 59.8159 
L 198.314343 59.646245 
L 198.543304 59.643464 
L 198.793305 59.715773 
L 198.987612 59.881265 
L 199.047637 60.161539 
L 198.81125 60.640166 
L 198.34157 60.748022 
L 197.438721 60.706966 
L 197.337235 60.702095 
L 197.050106 60.688874 
L 196.595277 60.668695 
L 195.99379 60.642254 
L 195.266684 60.609551 
L 194.434998 60.571979 
L 193.517916 60.530233 
L 192.536477 60.486401 
L 191.511102 60.440484 
L 190.462212 60.393873 
L 189.40961 60.346568 
L 188.374953 60.299961 
L 187.378043 60.254746 
L 186.44054 60.213011 
L 185.581008 60.174059 
L 184.821104 60.140673 
L 183.17444 60.067644 
L 181.025918 60.640166 
L 178.803138 60.820395 
L 178.114089 61.192763 
L 178.939893 63.298769 
L 179.442032 64.619681 
L 177.349788 64.902912 
L 174.755406 65.658503 
L 171.254536 66.266489 
L 170.8093 66.30423 
L 170.298778 66.191708 
L 169.482953 66.60362 
L 169.315574 70.106603 
L 168.429651 70.161796 
L 167.770614 70.630162 
L 167.618695 70.813207 
L 167.570427 71.061516 
L 167.645923 72.086818 
L 167.62117 72.397164 
L 167.367456 72.815053 
L 167.287629 73.081307 
L 167.329709 73.317398 
L 167.471727 73.439676 
L 167.671294 73.452326 
L 167.884785 73.360264 
L 168.235034 73.037045 
L 168.412943 72.945012 
L 168.621792 72.997701 
L 168.793204 73.175457 
L 169.121175 73.687781 
L 169.334047 73.888126 
L 169.765979 74.09483 
L 169.90645 74.21929 
L 170.021549 74.471059 
L 170.074767 74.712323 
L 170.090857 74.97685 
L 170.738299 75.99766 
L 170.068781 77.0456 
L 169.482953 77.617551 
L 169.566643 78.475936 
L 169.650333 79.334872 
L 167.39071 80.480975 
L 165.382156 80.958805 
L 163.540982 81.054391 
L 162.118257 81.436804 
L 160.9466 82.106286 
L 159.607564 83.829326 
L 157.93377 85.170973 
L 156.176285 85.938218 
L 154.920939 86.609908 
L 153.916663 87.377953 
L 152.577627 88.530821 
L 151.322281 89.3961 
L 150.150624 90.646895 
L 149.313727 92.284235 
L 148.225761 94.019965 
L 146.970415 95.661217 
L 145.798758 96.047669 
L 144.794481 95.661217 
L 144.376033 94.405972 
L 142.869618 94.599014 
L 141.446892 94.888628 
L 139.940477 94.888628 
L 138.182992 94.888628 
L 136.509198 95.081736 
L 134.751713 95.564621 
L 133.077919 95.757821 
L 132.073642 96.724211 
L 129.981398 95.85443 
L 128.642363 95.757821 
L 127.721776 95.85443 
L 126.38274 96.434226 
L 125.294773 97.594521 
L 123.933523 97.515657 
L 123.68476 97.608279 
L 123.420527 97.639034 
L 123.15258 97.629021 
L 122.623494 97.536756 
L 122.063467 97.511724 
L 121.654431 97.694826 
L 120.923303 98.447506 
L 120.739824 98.595297 
L 120.164946 98.897727 
L 119.432889 99.594452 
L 118.16494 100.465291 
L 117.071495 101.524901 
L 116.67236 101.80965 
L 115.323346 102.417707 
L 114.50713 102.984019 
L 113.713192 103.758117 
L 113.51579 103.878793 
L 113.094378 104.071319 
L 112.914303 104.22076 
L 112.503411 104.963879 
L 112.35242 105.121678 
L 111.808483 105.431215 
L 111.269805 105.872084 
L 109.736693 106.723267 
L 109.512064 106.921923 
L 109.3784 107.184678 
L 109.335083 107.559815 
L 109.335083 108.19654 
L 109.335083 109.032472 
L 109.335083 109.86779 
L 109.335083 110.704292 
L 109.335083 111.54162 
L 109.335083 112.379051 
L 109.335083 113.217305 
L 109.335083 114.055659 
L 109.335083 114.89375 
L 109.335083 115.733386 
L 109.335083 116.573119 
L 109.335083 117.413672 
L 109.335083 118.254682 
L 109.335083 119.095785 
L 109.335083 119.936617 
L 109.335083 120.778629 
L 109.335083 121.622185 
L 108.494734 121.622185 
L 107.728642 121.621821 
z
" clip-path="url(#p06462af425)" style="stroke: #000000; stroke-linejoin: miter"/>
   </g>
   <g id="line2d_1">
    <path d="M 107.722684 121.621837 
L 107.705746 121.650892 
L 107.771959 122.298591 
L 108.122827 123.466722 
L 108.245352 124.457327 
L 107.906242 125.861318 
L 107.976477 126.605151 
L 108.491021 128.259514 
L 108.491021 128.824853 
L 107.999683 129.25273 
L 105.520714 129.680355 
L 104.532468 129.680355 
L 103.047314 129.542305 
L 100.59743 129.708113 
L 99.708194 130.246558 
L 97.480464 132.222505 
L 96.737887 132.927553 
L 95.749951 133.079798 
L 94.762014 133.079798 
L 93.177232 132.222505 
L 92.768196 132.24994 
L 92.095545 132.650913 
L 91.300369 132.927553 
L 90.557792 132.927553 
L 89.318308 132.360417 
L 86.967434 131.089286 
L 85.734137 130.951116 
L 84.494653 130.674811 
L 83.628932 130.812958 
L 82.518161 130.812958 
L 79.793523 131.793844 
L 76.893142 132.609201 
L 77.267525 133.882248 
L 77.799705 134.574455 
L 77.799705 135.433344 
L 77.547848 136.153336 
L 75.957496 137.761984 
L 75.466776 138.469401 
L 74.601056 140.024786 
L 73.963677 140.95562 
L 73.396844 142.123198 
L 72.993377 143.681956 
L 72.554638 143.932433 
L 71.045969 144.154947 
L 69.251099 144.726099 
L 68.888784 145.297442 
L 68.648684 146.301255 
L 68.648684 147.011875 
L 68.409203 147.583978 
L 68.052457 149.007675 
L 67.573185 150.306823 
L 65.894962 157.897244 
L 64.818844 161.212525 
L 64.456529 161.929527 
L 63.620202 162.802067 
L 59.790672 165.674999 
L 57.750133 167.127325 
L 56.913806 168.128909 
L 55.715163 170.741596 
L 54.878836 172.622642 
L 53.920293 174.207339 
L 52.961131 174.788075 
L 50.686681 175.807973 
L 49.727828 176.389569 
L 48.41223 176.970215 
L 47.576212 177.551787 
L 46.973487 178.417338 
L 45.897989 180.902026 
L 45.178927 183.517844 
L 44.459556 187.020786 
L 43.980284 190.372728 
L 43.623229 191.98614 
L 43.383748 194.473739 
L 43.383748 196.520304 
L 43.021123 198.582915 
L 41.945005 200.332152 
L 41.109297 201.365076 
L 40.389926 201.953699 
L 40.150445 202.542486 
L 39.431073 203.274328 
L 38.712012 204.452793 
L 38.115475 205.186049 
L 38.355265 206.811283 
L 37.636204 209.028298 
L 36.677042 210.497392 
L 35.601234 211.23269 
L 34.040276 211.37688 
L 31.88835 211.37688 
L 30.210436 211.23269 
L 28.175466 211.23269 
L 24.702373 210.641534 
L 21.22897 210.497392 
L 19.43441 210.785685 
L 14.762364 210.785685 
L 12.967185 210.944339 
L 9.568894 211.68 
L 9.580109 211.307255 
L 10.129733 208.484502 
L 10.116577 207.58957 
L 10.375309 206.837681 
L 10.32902 206.58591 
L 10.129733 206.353348 
L 10.679357 204.142863 
L 11.929166 201.212846 
L 12.446631 200.472157 
L 12.651278 200.043046 
L 12.917319 199.799843 
L 13.244755 199.084736 
L 13.921552 198.846421 
L 14.14374 199.107434 
L 15.694673 198.285682 
L 16.120534 197.588997 
L 16.684288 195.471718 
L 17.429789 194.573913 
L 17.584249 193.638371 
L 17.674878 192.075713 
L 17.918506 191.310302 
L 18.160671 190.781944 
L 18.090019 190.400041 
L 18.298077 189.88738 
L 18.850624 189.767857 
L 19.637054 188.863636 
L 19.881169 187.961602 
L 19.896761 187.613494 
L 19.797848 187.271979 
L 19.563966 187.21853 
L 19.071351 187.368192 
L 19.360781 186.634244 
L 19.472849 186.462672 
L 20.090201 185.774158 
L 21.119771 183.253024 
L 21.402379 183.007664 
L 21.933487 181.976186 
L 22.229739 180.725629 
L 23.910769 177.878152 
L 24.490115 176.643218 
L 24.472574 175.728458 
L 24.358556 175.32171 
L 24.400947 175.202477 
L 24.159269 176.004789 
L 23.739255 176.300649 
L 23.364068 176.30183 
L 22.961596 176.844653 
L 22.328164 178.507148 
L 21.76977 179.078387 
L 21.591434 178.926987 
L 21.67037 178.684534 
L 21.997805 178.122869 
L 22.431462 177.192636 
L 23.613056 175.337058 
L 24.484755 174.507293 
L 24.87261 174.343271 
L 25.545509 173.816491 
L 25.939699 173.774614 
L 26.257389 173.544604 
L 27.188534 172.270025 
L 27.523278 171.72084 
L 28.178149 171.1459 
L 28.357946 170.711864 
L 29.451346 169.710491 
L 30.111577 168.928484 
L 31.240547 167.160906 
L 31.844256 166.610277 
L 32.33346 166.394066 
L 33.104298 166.138523 
L 33.505796 165.789631 
L 33.536493 165.369757 
L 33.967714 164.650026 
L 34.932966 163.722893 
L 35.049907 162.785672 
L 35.336413 161.929808 
L 35.602942 160.847071 
L 35.623406 160.418372 
L 35.561038 159.984506 
L 35.646307 159.752685 
L 35.55714 159.663126 
L 35.721832 158.992451 
L 35.696007 158.539623 
L 35.55714 158.039538 
L 35.48259 156.406898 
L 36.292895 153.067949 
L 37.096866 151.941017 
L 37.453049 151.005857 
L 37.738093 149.56884 
L 38.221938 148.249321 
L 39.436665 146.246945 
L 39.831341 144.938668 
L 39.786027 144.709982 
L 39.870322 143.697513 
L 39.789437 143.123951 
L 40.008215 142.549423 
L 40.075943 142.390027 
L 40.858962 141.363878 
L 41.428563 141.226604 
L 42.078074 140.852485 
L 43.238229 139.572078 
L 43.499398 139.115026 
L 43.777133 138.981405 
L 45.32563 138.717087 
L 46.571054 138.027859 
L 50.208413 135.35864 
L 50.913471 134.505236 
L 51.880672 132.201701 
L 52.111631 131.054603 
L 52.459531 130.233934 
L 52.813279 128.447282 
L 53.03839 127.909431 
L 54.030929 126.290073 
L 53.945172 126.079447 
L 54.10889 125.983613 
L 54.748656 124.381683 
L 55.710497 121.155217 
L 56.071553 120.966439 
L 56.459408 120.626694 
L 56.896963 120.476864 
L 57.091865 120.238996 
L 57.596662 119.379311 
L 58.014727 118.065551 
L 58.433766 117.727581 
L 59.561274 117.282966 
L 61.730047 116.895529 
L 63.457853 116.932044 
L 65.595441 116.205347 
L 69.003791 115.522314 
L 69.330739 115.192309 
L 69.540258 115.141589 
L 75.767378 112.309082 
L 76.160106 111.990008 
L 76.447099 111.606184 
L 77.103432 110.574608 
L 77.499083 110.157063 
L 77.679367 109.661272 
L 78.391247 109.153725 
L 79.045631 108.244656 
L 79.636671 107.817551 
L 79.796004 107.53515 
L 80.246227 107.14396 
L 80.826548 106.355089 
L 81.012192 106.225351 
L 84.424927 104.437368 
L 85.244003 103.876168 
L 86.68579 103.04438 
L 88.157301 101.631254 
L 89.714568 99.332273 
L 89.940654 99.139446 
L 90.395263 98.969757 
L 90.870337 98.291765 
L 91.310816 97.65633 
L 91.429706 97.284664 
L 91.915987 96.881571 
L 92.022208 96.591144 
L 92.587911 95.689844 
L 92.687311 95.08817 
L 92.922656 94.601393 
L 93.583373 93.898502 
L 93.656462 93.677762 
L 94.156385 92.998907 
L 95.709755 91.304036 
L 96.934714 89.133596 
L 97.804952 86.831831 
L 98.006675 85.08304 
L 98.259073 83.900753 
L 98.074891 83.355427 
L 97.686549 83.015963 
L 97.248019 82.093315 
L 97.048732 81.574323 
L 96.780254 81.511968 
L 95.596711 80.46517 
L 95.065603 80.391741 
L 94.891653 80.196506 
L 94.91358 79.67157 
L 95.797461 77.753737 
L 95.689777 77.317442 
L 95.709755 77.154284 
L 95.575272 74.235259 
L 95.382806 73.746428 
L 95.532394 73.427098 
L 95.872498 70.727797 
L 95.694163 70.23917 
L 95.382806 69.927869 
L 96.036216 68.993312 
L 96.452819 67.984484 
L 96.751019 67.692457 
L 96.81826 67.451722 
L 97.218784 66.902663 
L 97.277742 66.774381 
L 97.540859 65.476868 
L 99.575149 63.221744 
L 99.73838 62.892382 
L 101.291749 61.218909 
L 101.522221 60.479143 
L 101.602618 60.091351 
L 102.205839 59.2012 
L 102.298418 58.785903 
L 102.311087 57.334276 
L 102.0353 57.128834 
L 102.138598 56.632855 
L 102.551791 55.763733 
L 102.574692 55.498533 
L 102.191222 54.506449 
L 102.419257 54.097087 
L 104.18848 52.678734 
L 105.549384 51.151115 
L 107.114934 50.018613 
L 108.469016 48.301242 
L 110.06429 46.586871 
L 110.179282 45.962549 
L 111.265861 44.815474 
L 112.098092 44.925805 
L 112.970766 44.388311 
L 114.097787 43.257346 
L 114.594787 43.062387 
L 116.230503 42.713054 
L 121.086974 40.69954 
L 121.487498 40.302964 
L 121.723329 40.36061 
L 121.977676 40.295961 
L 122.222278 40.36061 
L 123.529097 39.809589 
L 123.933518 39.326112 
L 124.280444 39.171098 
L 124.615188 38.790647 
L 124.84566 38.718015 
L 124.763801 38.816473 
L 125.004505 38.892339 
L 125.396258 38.736307 
L 127.654198 37.428616 
L 128.290066 37.293738 
L 128.668663 36.984812 
L 129.100371 36.845152 
L 130.351155 35.922744 
L 131.611684 34.664359 
L 132.669515 33.045418 
L 133.459355 31.495079 
L 134.896758 29.470769 
L 135.373781 28.552226 
L 137.958181 23.635905 
L 138.996522 20.460383 
L 141.233997 15.326581 
L 141.308547 14.826827 
L 141.814806 13.615027 
L 141.872302 13.386294 
L 142.066229 13.06142 
L 142.220202 12.154621 
L 142.557382 11.745086 
L 142.972036 11.685244 
L 144.218922 11.803881 
L 144.907901 11.315771 
L 145.770342 11.241787 
L 146.258085 11.422821 
L 147.164866 10.895026 
L 147.816326 10.28834 
L 148.216401 10.235897 
L 148.470904 10.300544 
L 148.654594 10.105958 
L 148.899573 10.657616 
L 149.291248 11.290585 
L 149.567521 12.823874 
L 149.780939 13.192829 
L 150.133224 13.268003 
L 150.116658 13.545613 
L 150.444093 14.493088 
L 151.625199 15.379783 
L 152.821898 16.786115 
L 153.332541 16.893722 
L 153.973282 17.370701 
L 154.516571 17.992572 
L 155.047679 18.155226 
L 155.698652 18.700403 
L 156.179085 18.946669 
L 159.48706 19.73235 
L 161.24264 20.128051 
L 161.489191 20.067734 
L 162.179632 19.676286 
L 163.841659 19.417691 
L 164.846379 19.013266 
L 165.869127 18.824586 
L 166.371487 18.611635 
L 166.45305 18.818292 
L 166.24949 18.910488 
L 166.556385 19.295635 
L 166.979582 19.38438 
L 167.950681 19.360058 
L 168.222082 19.240042 
L 168.684 18.410875 
L 169.003152 18.299946 
L 169.314508 18.337977 
L 170.303636 19.047094 
L 171.20116 19.17396 
L 171.663565 19.341024 
L 172.077244 19.36746 
L 172.435864 19.506527 
L 173.044933 19.550947 
L 173.557525 19.456291 
L 175.297513 18.842026 
L 176.066402 18.2635 
L 176.457668 18.337977 
L 176.836752 17.993628 
L 177.644621 16.322578 
L 177.75669 16.281982 
L 177.952566 16.455449 
L 177.822956 17.227691 
L 178.00519 17.794569 
L 177.776526 18.001063 
L 177.814274 18.359915 
L 178.062418 18.598098 
L 178.423255 18.480609 
L 178.589409 18.700403 
L 178.430076 19.014851 
L 178.460286 19.652486 
L 178.62108 19.976207 
L 179.10395 20.373056 
L 179.524451 20.495315 
L 180.396638 20.572594 
L 179.873326 20.192604 
L 178.779438 18.979438 
L 178.836447 18.877963 
L 178.998703 18.991066 
L 180.241203 20.217474 
L 180.753309 20.481024 
L 181.371148 20.673171 
L 183.1584 20.788581 
L 183.640782 20.616 
L 184.120728 20.193662 
L 184.364843 20.140749 
L 186.690025 20.919359 
L 186.820492 21.77668 
L 187.034602 22.035141 
L 187.399702 22.159682 
L 188.621859 22.998179 
L 189.311837 23.148436 
L 189.597729 23.838671 
L 190.638574 24.538114 
L 192.115064 25.456768 
L 191.916425 25.659366 
L 191.624345 26.249141 
L 190.898476 27.349139 
L 192.340931 28.691303 
L 192.912097 28.881286 
L 191.634865 30.287693 
L 192.093406 30.783238 
L 192.396006 31.366232 
L 193.311232 34.14281 
L 193.281529 34.406548 
L 192.723358 36.530585 
L 192.683135 37.149972 
L 192.818037 38.525344 
L 192.387342 39.116073 
L 192.459744 39.324898 
L 193.397866 39.879443 
L 193.937471 41.074563 
L 193.992546 41.511449 
L 193.148484 43.53091 
L 193.256157 45.274847 
L 193.862595 45.824995 
L 194.487597 46.951171 
L 195.348367 47.640813 
L 195.422006 48.227872 
L 195.236362 48.892405 
L 195.146634 48.983381 
L 194.638588 49.328048 
L 196.260499 51.882343 
L 196.653446 52.198121 
L 197.413968 52.463867 
L 200.761133 54.899399 
L 200.946777 55.202449 
L 199.855189 56.227832 
L 199.410881 56.402222 
L 198.719666 56.56762 
L 198.406546 57.046949 
L 198.246273 57.531322 
L 197.86694 59.359136 
L 197.623127 59.593407 
L 197.675727 59.812424 
L 197.869415 59.8159 
L 198.543304 59.643464 
L 198.987612 59.881265 
L 199.047637 60.161539 
L 198.81125 60.640166 
L 198.34157 60.748022 
L 183.17444 60.067644 
L 181.025918 60.640166 
L 178.803138 60.820395 
L 178.114089 61.192763 
L 179.442032 64.619681 
L 177.349788 64.902912 
L 174.755406 65.658503 
L 170.8093 66.30423 
L 170.298778 66.191708 
L 169.482953 66.60362 
L 169.315574 70.106603 
L 168.429651 70.161796 
L 167.618695 70.813207 
L 167.570427 71.061516 
L 167.62117 72.397164 
L 167.287629 73.081307 
L 167.329709 73.317398 
L 167.471727 73.439676 
L 167.884785 73.360264 
L 168.412943 72.945012 
L 168.621792 72.997701 
L 168.793204 73.175457 
L 169.334047 73.888126 
L 169.90645 74.21929 
L 170.074767 74.712323 
L 170.090857 74.97685 
L 170.738299 75.99766 
L 170.068781 77.0456 
L 169.482953 77.617551 
L 169.650333 79.334872 
L 167.39071 80.480975 
L 165.382156 80.958805 
L 163.540982 81.054391 
L 162.118257 81.436804 
L 160.9466 82.106286 
L 159.607564 83.829326 
L 157.93377 85.170973 
L 156.176285 85.938218 
L 154.920939 86.609908 
L 151.322281 89.3961 
L 150.150624 90.646895 
L 149.313727 92.284235 
L 148.225761 94.019965 
L 146.970415 95.661217 
L 145.798758 96.047669 
L 144.794481 95.661217 
L 144.376033 94.405972 
L 139.940477 94.888628 
L 138.182992 94.888628 
L 136.509198 95.081736 
L 134.751713 95.564621 
L 133.077919 95.757821 
L 132.073642 96.724211 
L 129.981398 95.85443 
L 128.642363 95.757821 
L 127.721776 95.85443 
L 126.38274 96.434226 
L 125.294773 97.594521 
L 123.68476 97.608279 
L 123.15258 97.629021 
L 122.063467 97.511724 
L 121.654431 97.694826 
L 120.739824 98.595297 
L 120.164946 98.897727 
L 119.432889 99.594452 
L 118.16494 100.465291 
L 116.67236 101.80965 
L 115.323346 102.417707 
L 114.50713 102.984019 
L 113.51579 103.878793 
L 112.914303 104.22076 
L 112.35242 105.121678 
L 111.808483 105.431215 
L 111.269805 105.872084 
L 109.512064 106.921923 
L 109.3784 107.184678 
L 109.335083 108.19654 
L 109.335083 121.622185 
L 107.722684 121.621837 
L 107.722684 121.621837 
" clip-path="url(#p06462af425)" style="fill: none; stroke: #000000; stroke-width: 0.5; stroke-linecap: square"/>
   </g>
  </g>
 </g>
 <defs>
  <clipPath id="p06462af425">
   <rect x="0" y="-0" width="210.515671" height="221.76"/>
  </clipPath>
 </defs>
</svg>
