<?xml version="1.0" encoding="utf-8" standalone="no"?>
<!DOCTYPE svg PUBLIC "-//W3C//DTD SVG 1.1//EN"
  "http://www.w3.org/Graphics/SVG/1.1/DTD/svg11.dtd">
<svg xmlns:xlink="http://www.w3.org/1999/xlink" width="115.081387pt" height="221.76pt" viewBox="0 0 115.081387 221.76" xmlns="http://www.w3.org/2000/svg" version="1.1">
 <metadata>
  <rdf:RDF xmlns:dc="http://purl.org/dc/elements/1.1/" xmlns:cc="http://creativecommons.org/ns#" xmlns:rdf="http://www.w3.org/1999/02/22-rdf-syntax-ns#">
   <cc:Work>
    <dc:type rdf:resource="http://purl.org/dc/dcmitype/StillImage"/>
    <dc:date>2026-04-26T19:22:06.136979</dc:date>
    <dc:format>image/svg+xml</dc:format>
    <dc:creator>
     <cc:Agent>
      <dc:title>Matplotlib v3.10.9, https://matplotlib.org/</dc:title>
     </cc:Agent>
    </dc:creator>
   </cc:Work>
  </rdf:RDF>
 </metadata>
 <defs>
  <style type="text/css">*{stroke-linejoin: round; stroke-linecap: butt}</style>
 </defs>
 <g id="figure_1">
  <g id="patch_1">
   <path d="M 0 221.76 
L 115.081387 221.76 
L 115.081387 0 
L 0 0 
z
" style="fill: #ffffff"/>
  </g>
  <g id="axes_1">
   <g id="patch_2">
    <path d="M 23.923682 211.444263 
L 23.958253 208.441039 
L 23.856574 207.484734 
L 23.3919 206.486716 
L 23.318182 206.159518 
L 23.195659 204.953889 
L 23.243448 204.61303 
L 23.568822 203.687938 
L 23.604409 203.375808 
L 23.536793 202.970418 
L 23.42037 202.537066 
L 23.368514 202.11569 
L 23.497646 201.747488 
L 22.842832 201.566986 
L 22.560164 201.403423 
L 22.303932 201.141683 
L 21.917551 199.791015 
L 21.876879 199.439193 
L 21.93687 199.113984 
L 22.354772 197.935086 
L 22.432048 197.79297 
L 22.55813 197.661773 
L 22.653709 197.5986 
L 22.720817 197.526919 
L 22.761489 197.370182 
L 22.760472 197.114991 
L 22.669469 196.377112 
L 22.61202 196.131474 
L 22.509324 195.888227 
L 22.47272 195.520846 
L 22.484921 195.1339 
L 22.524576 194.835711 
L 22.692347 194.259851 
L 22.677603 191.697989 
L 22.668452 189.819463 
L 22.661843 188.408089 
L 22.651675 186.414012 
L 22.643541 184.762928 
L 22.723867 183.947747 
L 22.670994 183.030301 
L 22.422897 182.118443 
L 22.078321 181.291787 
L 21.518968 179.948926 
L 21.455927 179.44481 
L 21.391431 177.558193 
L 21.384752 177.362684 
L 21.331879 177.173038 
L 21.215964 177.02032 
L 20.580469 176.499243 
L 20.394904 176.304565 
L 20.257129 176.054406 
L 19.858038 175.00836 
L 19.478266 173.51546 
L 19.284059 173.083369 
L 18.339459 171.94209 
L 18.155928 171.516991 
L 18.095429 171.023786 
L 18.301837 168.290524 
L 18.241847 167.927642 
L 17.56568 165.552698 
L 17.15998 164.1256 
L 16.653617 162.340636 
L 16.146238 160.551293 
L 15.711051 159.015357 
L 15.807646 158.798672 
L 16.59261 158.168385 
L 17.233189 157.650032 
L 17.744635 157.001871 
L 18.260149 156.345984 
L 18.776679 155.689848 
L 19.292193 155.033466 
L 19.807707 154.375587 
L 20.322204 153.718711 
L 20.838734 153.061589 
L 21.354248 152.402971 
L 21.870778 151.745359 
L 22.386292 151.087502 
L 22.901806 150.429402 
L 23.41732 149.769808 
L 23.932833 149.111222 
L 24.449364 148.452395 
L 24.964877 147.793327 
L 25.481408 147.134018 
L 25.995905 146.47447 
L 26.47278 145.864864 
L 26.822557 145.408153 
L 27.202837 145.691729 
L 27.189575 145.634779 
L 27.177418 145.58257 
L 26.460579 144.164169 
L 26.47278 144.116451 
L 26.51091 144.049896 
L 26.547006 143.973291 
L 26.548023 143.89166 
L 26.519553 143.866542 
L 26.476339 143.869053 
L 26.432109 143.861518 
L 26.343648 143.72085 
L 26.200789 143.616598 
L 26.14639 143.509828 
L 26.906951 142.377687 
L 27.404162 141.638469 
L 27.633957 141.105245 
L 27.694965 140.639807 
L 27.559731 139.374993 
L 27.418397 138.066495 
L 27.437716 137.562501 
L 27.541429 137.044507 
L 27.851551 136.575545 
L 28.278604 136.511243 
L 28.742261 136.578067 
L 29.163213 136.494852 
L 29.412327 136.175827 
L 29.733633 135.443005 
L 30.042738 134.740191 
L 30.681284 133.816175 
L 31.118505 133.182237 
L 31.194764 133.025614 
L 31.248654 132.850031 
L 31.318813 132.476073 
L 31.313729 132.378782 
L 31.247637 132.214513 
L 31.235436 132.129846 
L 31.256788 132.011053 
L 31.391005 131.721623 
L 31.439811 131.532017 
L 31.51302 130.936534 
L 31.602498 130.82652 
L 31.762643 130.791112 
L 31.91872 130.734205 
L 31.99498 130.558415 
L 32.05192 130.184019 
L 32.186137 130.046133 
L 32.712835 130.067639 
L 32.684365 129.972758 
L 32.625391 129.686823 
L 32.660979 128.781933 
L 32.851119 128.060256 
L 32.866371 127.554927 
L 32.93297 127.267376 
L 32.963983 127.031731 
L 32.865354 126.89616 
L 32.647252 126.788456 
L 32.435251 126.630058 
L 32.271547 126.433626 
L 32.190204 126.218163 
L 32.271547 125.742796 
L 32.257312 125.494292 
L 32.082424 125.377637 
L 31.899401 125.451181 
L 31.605548 125.807452 
L 31.383887 125.879713 
L 31.157143 125.865768 
L 30.979204 125.817594 
L 30.866848 125.684476 
L 30.833803 125.411874 
L 30.865323 125.287605 
L 30.92328 125.181083 
L 30.964969 125.063142 
L 30.950734 124.903339 
L 30.926331 124.782845 
L 30.92328 124.669954 
L 30.993439 123.78183 
L 30.990389 123.555931 
L 30.92328 123.289388 
L 30.784997 123.232268 
L 30.606041 123.258924 
L 30.417426 123.248769 
L 30.313205 123.102788 
L 30.30202 122.850152 
L 30.364045 122.351135 
L 30.343709 121.990447 
L 30.367095 121.869781 
L 30.734157 121.375608 
L 30.877525 121.103698 
L 30.955818 120.897837 
L 30.990389 120.677974 
L 31.000557 120.374195 
L 31.286275 118.849541 
L 31.223743 118.427171 
L 31.140874 118.306296 
L 31.048854 118.219771 
L 30.97107 118.124334 
L 30.922264 117.9729 
L 30.899894 117.829091 
L 30.870407 117.745091 
L 30.813467 117.68909 
L 30.706704 117.636905 
L 30.535883 117.613995 
L 29.92479 117.723455 
L 29.791082 117.715818 
L 29.679743 117.669998 
L 29.601959 117.571991 
L 29.578064 117.407787 
L 29.594333 117.251209 
L 29.578064 117.116262 
L 29.503838 116.841249 
L 29.518073 116.689722 
L 29.613652 116.586576 
L 29.739734 116.502526 
L 29.844972 116.408286 
L 29.721432 116.31022 
L 29.658391 116.129359 
L 29.590266 115.464373 
L 29.605518 115.353521 
L 30.552151 114.823393 
L 30.850071 114.771138 
L 31.252721 114.808099 
L 31.512003 114.781334 
L 31.682316 114.616913 
L 31.788062 114.351774 
L 31.856696 114.021578 
L 31.877032 113.613544 
L 31.800772 113.276858 
L 31.504886 112.575257 
L 31.378803 112.132494 
L 31.345249 111.878534 
L 31.369652 111.670494 
L 31.491667 111.502005 
L 31.660455 111.417756 
L 31.847545 111.352652 
L 32.022941 111.241587 
L 32.214607 111.103707 
L 32.430675 110.982415 
L 32.606072 110.822811 
L 32.671146 110.572528 
L 32.636576 110.446099 
L 32.51151 110.268575 
L 32.497275 110.147237 
L 32.525237 110.156178 
L 32.732154 109.79468 
L 33.015839 109.536614 
L 33.062103 109.399903 
L 32.985335 109.163513 
L 32.807397 108.92582 
L 32.347807 108.478478 
L 32.198338 108.216421 
L 32.154616 108.031045 
L 32.171901 107.928762 
L 32.229859 107.834145 
L 32.306118 107.670475 
L 32.394071 107.405765 
L 32.40068 107.313684 
L 32.368651 106.90439 
L 32.022433 105.62742 
L 32.00108 105.348385 
L 32.053954 105.103881 
L 32.063105 104.997622 
L 31.942615 104.824781 
L 31.926854 104.708265 
L 31.976677 104.609671 
L 32.05497 104.548207 
L 32.13123 104.464972 
L 32.170376 104.303615 
L 32.152074 104.084613 
L 32.035651 103.737495 
L 32.020399 103.495378 
L 32.047853 103.253235 
L 32.110894 102.995689 
L 32.218674 102.788093 
L 32.381361 102.697104 
L 32.632508 102.494607 
L 32.672672 102.040847 
L 32.643693 101.497242 
L 32.681314 101.021481 
L 32.844001 100.561014 
L 32.882639 100.322407 
L 32.841968 100.065812 
L 32.706734 99.847685 
L 32.337639 99.643652 
L 32.165801 99.48067 
L 32.122079 99.377998 
L 32.018366 98.958279 
L 32.017349 98.820924 
L 32.08039 98.737479 
L 32.165801 98.670722 
L 32.229859 98.574433 
L 32.61624 97.66142 
L 32.75597 97.40053 
L 32.801296 97.315897 
L 32.862303 97.120634 
L 32.854169 96.922786 
L 32.785536 96.812292 
L 32.566417 96.663245 
L 32.47999 96.577153 
L 32.377802 96.330425 
L 32.340689 96.059251 
L 32.337249 95.935053 
L 32.32442 95.471815 
L 32.190204 94.704199 
L 31.938039 93.986504 
L 31.527255 93.098731 
L 30.970053 91.895208 
L 30.956835 91.815381 
L 31.662488 90.975748 
L 31.817041 90.728438 
L 31.985828 90.327794 
L 32.263413 89.013321 
L 32.331538 88.65494 
L 32.21054 88.672989 
L 32.046836 88.756787 
L 31.751966 88.984962 
L 31.59233 89.039102 
L 31.283733 89.01461 
L 30.680267 88.850896 
L 30.372179 88.827691 
L 30.21966 88.858631 
L 30.082393 88.924375 
L 29.997999 88.993986 
L 29.994418 88.992216 
L 29.938009 88.964337 
L 29.676693 88.719401 
L 29.578064 88.226876 
L 29.570947 87.939309 
L 29.523666 87.760047 
L 29.412327 87.633652 
L 28.234882 87.054476 
L 26.676139 86.28547 
L 25.660872 85.786005 
L 24.886584 85.641438 
L 22.942478 85.700815 
L 21.920601 85.500735 
L 21.764015 85.40779 
L 21.678096 85.218015 
L 21.629799 84.740288 
L 21.543371 84.519469 
L 21.42644 84.399367 
L 21.013623 84.134604 
L 20.823482 83.935691 
L 20.227642 83.137297 
L 19.957175 82.863356 
L 19.715179 82.730251 
L 18.073059 82.595847 
L 17.693796 82.3645 
L 17.546361 82.236539 
L 17.35012 82.20164 
L 17.13761 82.199055 
L 16.945436 82.168033 
L 16.927134 82.13184 
L 16.940352 82.071086 
L 16.942894 82.012916 
L 16.89663 81.980599 
L 16.856976 81.985769 
L 16.779699 82.009038 
L 16.743095 81.999989 
L 16.681579 81.917256 
L 16.650567 81.800908 
L 16.607861 81.685847 
L 16.510249 81.600518 
L 16.319092 81.472519 
L 16.195552 81.299257 
L 16.011004 80.876397 
L 15.870687 80.659121 
L 15.709017 80.516846 
L 15.522944 80.431478 
L 14.524454 80.140428 
L 14.087742 80.099032 
L 13.84117 80.286604 
L 13.760843 80.462521 
L 13.686617 80.457348 
L 13.608832 80.383619 
L 13.524947 80.357749 
L 13.380563 80.449587 
L 13.198557 80.703095 
L 13.083659 80.824666 
L 12.86454 80.942352 
L 12.700329 80.913901 
L 12.554927 80.776814 
L 12.396308 80.569877 
L 11.999759 80.2271 
L 11.562538 80.114556 
L 10.50304 80.123611 
L 8.898034 80.137841 
L 8.191871 80.143016 
L 7.087635 80.153364 
L 7.075433 79.282609 
L 7.055098 77.783653 
L 7.039846 76.59086 
L 7.025611 75.57766 
L 7.164403 75.50768 
L 7.187281 75.476578 
L 7.074417 75.107206 
L 7.02256 75.008698 
L 6.741926 74.640556 
L 6.720573 74.466838 
L 6.784631 74.19068 
L 6.96562 73.75629 
L 6.992056 73.630497 
L 6.960536 73.509887 
L 6.815643 73.260868 
L 6.784631 73.116893 
L 6.759211 72.299592 
L 6.717523 72.041376 
L 6.648381 71.809091 
L 6.545685 71.585871 
L 6.421636 71.421039 
L 6.280302 71.354844 
L 5.960012 71.096538 
L 5.715982 70.498056 
L 5.34892 68.927875 
L 5.301131 68.38349 
L 5.301131 67.822103 
L 5.230972 67.446481 
L 5.236635 67.364431 
L 5.237073 67.358092 
L 5.398743 67.304797 
L 6.259966 67.176105 
L 6.988498 66.723687 
L 7.904119 66.156761 
L 8.949382 65.680765 
L 9.787219 65.297048 
L 11.152771 64.675185 
L 12.129908 64.395432 
L 13.521897 63.997224 
L 13.697802 63.980305 
L 14.716628 63.671848 
L 15.983551 63.289159 
L 17.007461 62.979324 
L 17.851398 62.588729 
L 18.766512 61.987107 
L 19.442678 61.542971 
L 20.848902 60.963276 
L 22.143279 60.427769 
L 23.130584 60.019883 
L 23.873351 59.592388 
L 24.250072 59.447703 
L 25.04012 59.26651 
L 25.955233 58.875409 
L 26.989311 58.433402 
L 28.477895 57.797002 
L 30.132216 57.088714 
L 31.826192 56.364597 
L 33.063628 55.83477 
L 33.920784 55.468011 
L 34.635589 55.162562 
L 35.17754 55.538495 
L 35.398183 55.755157 
L 35.50698 56.11405 
L 35.457157 56.741682 
L 35.499863 56.968692 
L 35.745926 57.476141 
L 35.828287 57.592229 
L 35.969112 57.707008 
L 36.056556 57.750049 
L 36.127224 57.832216 
L 36.154574 57.898253 
L 36.291436 58.228674 
L 36.46429 58.529893 
L 36.96201 59.791806 
L 37.140966 60.090257 
L 37.268065 60.217969 
L 37.682916 60.451224 
L 37.814082 60.594556 
L 37.878648 60.744395 
L 37.92898 60.902043 
L 38.012357 61.064894 
L 38.12522 61.175628 
L 38.389586 61.329344 
L 38.50245 61.440067 
L 38.585827 61.59898 
L 38.725262 62.075558 
L 38.785119 62.28012 
L 38.868496 62.448101 
L 38.985427 62.578312 
L 39.158281 62.644718 
L 39.254877 62.558781 
L 39.286397 62.333511 
L 39.287414 61.898546 
L 39.371299 61.532551 
L 39.52026 61.248579 
L 39.728702 61.166509 
L 40.257942 61.674526 
L 40.535527 61.709693 
L 40.815145 61.582047 
L 41.386582 61.146968 
L 41.656032 61.060986 
L 41.943784 61.062289 
L 42.978879 61.235552 
L 43.056155 61.171719 
L 43.170036 60.853838 
L 43.242228 60.724851 
L 43.557433 60.558072 
L 44.274272 60.533315 
L 45.247342 60.098077 
L 45.321568 60.086348 
L 45.479171 60.108502 
L 45.557464 60.088954 
L 45.632707 60.027702 
L 45.703882 59.95472 
L 45.778108 59.894769 
L 45.864535 59.876523 
L 46.140086 60.060283 
L 46.222171 60.207571 
L 46.353612 60.443406 
L 46.674919 61.265514 
L 46.903697 61.617215 
L 47.41616 62.250169 
L 47.576813 62.649926 
L 47.589015 63.070456 
L 47.455815 63.820224 
L 47.54936 64.25099 
L 47.71408 64.65697 
L 47.819827 65.027765 
L 47.874734 65.424526 
L 47.877784 66.353118 
L 47.90117 66.563763 
L 47.959127 66.814697 
L 48.047588 67.016207 
L 48.155368 67.204704 
L 48.226544 67.395787 
L 48.208242 67.607654 
L 48.136049 67.79351 
L 47.935741 68.139197 
L 47.877784 68.315922 
L 47.900153 68.493935 
L 47.962178 68.651149 
L 47.987598 68.794062 
L 47.897103 68.931772 
L 47.873717 69.146118 
L 47.979729 70.107487 
L 48.078092 70.99918 
L 48.039454 71.327587 
L 47.858465 71.653358 
L 47.726282 71.776647 
L 47.598166 71.861 
L 47.477168 71.964815 
L 47.365321 72.149077 
L 47.319565 72.304782 
L 47.270759 72.62265 
L 47.205684 72.778327 
L 47.00741 72.928806 
L 46.814219 73.314046 
L 46.637297 73.426883 
L 46.514265 73.636982 
L 46.513249 74.059722 
L 46.602726 74.816856 
L 46.571206 75.315875 
L 46.454275 75.713726 
L 45.846175 76.760132 
L 45.842166 76.767029 
L 45.735403 76.844747 
L 45.532044 76.922462 
L 45.36529 77.020898 
L 45.190402 77.186677 
L 44.910784 77.559641 
L 44.805038 77.874288 
L 44.755215 78.311882 
L 44.773517 78.758462 
L 44.88028 79.106611 
L 45.002295 79.238611 
L 45.329702 79.430128 
L 45.47307 79.538821 
L 46.293622 80.600919 
L 46.459359 80.88545 
L 46.503081 81.23719 
L 46.308873 82.045233 
L 46.269219 82.470483 
L 46.674919 83.563655 
L 46.867092 83.805226 
L 47.205684 83.820728 
L 47.641888 83.899523 
L 47.861515 84.178518 
L 48.137066 85.04372 
L 48.242812 85.237381 
L 48.365844 85.385844 
L 48.6841 85.681453 
L 48.750192 85.770516 
L 48.802048 85.88539 
L 48.923046 86.255789 
L 48.984054 86.31257 
L 49.05828 86.346122 
L 49.681574 86.752579 
L 49.808673 86.924174 
L 49.984578 87.342146 
L 50.084223 87.508541 
L 50.54178 87.983156 
L 50.62109 88.154665 
L 50.692265 88.424156 
L 50.78886 88.614973 
L 50.939346 88.724558 
L 51.1122 88.8148 
L 51.201971 88.894838 
L 51.269803 88.955314 
L 51.311492 89.058438 
L 51.343012 89.299473 
L 51.387751 89.393561 
L 51.454859 89.439959 
L 51.605345 89.473468 
L 51.672453 89.504399 
L 51.80667 89.624253 
L 51.891063 89.73637 
L 52.072052 90.032744 
L 52.361838 90.313623 
L 52.642473 90.37031 
L 52.935309 90.335525 
L 53.259666 90.34712 
L 53.481326 90.548092 
L 53.571821 90.934531 
L 53.577922 91.386587 
L 53.548435 91.787055 
L 53.433537 92.128237 
L 53.21696 92.316188 
L 52.967846 92.465509 
L 52.75432 92.68175 
L 52.677044 93.07042 
L 52.997333 93.670032 
L 52.96683 93.990363 
L 53.117315 94.167878 
L 53.634862 94.26692 
L 54.627251 94.308079 
L 55.186976 94.233817 
L 55.189538 94.233477 
L 55.263763 94.091985 
L 55.317653 93.920897 
L 55.343073 93.713774 
L 55.329855 93.4616 
L 55.243428 92.993206 
L 55.255629 92.792438 
L 55.360359 92.564622 
L 55.410182 92.402435 
L 55.351208 92.295592 
L 55.032952 92.065154 
L 54.987196 92.00722 
L 54.983129 91.928684 
L 55.030918 91.865595 
L 55.090909 91.810231 
L 55.122429 91.75229 
L 55.10006 91.279698 
L 55.123446 91.016964 
L 55.36951 90.76193 
L 55.319687 90.451473 
L 55.122429 89.965741 
L 55.082774 89.718328 
L 55.054304 88.893437 
L 55.0238 88.827691 
L 54.786888 88.510541 
L 54.759434 88.487333 
L 54.676057 88.442207 
L 54.645554 88.417709 
L 54.606916 88.350661 
L 54.556076 88.221718 
L 54.511337 88.162402 
L 54.448296 88.119848 
L 54.232736 88.017974 
L 54.142241 87.998631 
L 54.032428 87.954785 
L 53.975488 87.850324 
L 53.934816 87.721355 
L 53.777213 87.413091 
L 53.615543 86.858376 
L 53.740609 86.751289 
L 54.426943 86.191264 
L 54.562177 86.017036 
L 54.616067 85.793749 
L 54.613016 85.296767 
L 54.651594 85.128152 
L 54.66589 85.065669 
L 54.897718 84.72221 
L 54.936356 84.59566 
L 54.818408 84.244387 
L 54.796039 84.112647 
L 54.863147 83.533942 
L 55.044136 83.064938 
L 55.260597 82.748936 
L 55.317653 82.665635 
L 56.002971 81.901743 
L 56.188028 81.74661 
L 56.410705 81.675504 
L 56.604912 81.688433 
L 56.807254 81.756953 
L 56.969941 81.891401 
L 57.041116 82.100817 
L 57.12551 82.197762 
L 57.256676 82.275316 
L 57.379708 82.281779 
L 57.443766 82.16674 
L 57.473253 81.972842 
L 57.522059 81.899158 
L 57.759989 81.869424 
L 58.698488 81.52165 
L 58.800167 81.515186 
L 58.98624 81.557852 
L 59.076735 81.547509 
L 59.180447 81.482862 
L 59.893219 80.87381 
L 60.041671 80.666881 
L 60.135215 80.396554 
L 60.145383 80.199934 
L 60.090477 79.818295 
L 60.086409 79.620337 
L 60.154398 79.301514 
L 60.25418 78.833531 
L 60.352809 77.03126 
L 60.414833 75.921052 
L 60.502277 74.354045 
L 60.557433 73.359942 
L 60.558072 73.348427 
L 60.586671 72.832812 
L 60.306037 71.422337 
L 60.075606 70.248831 
L 60.03557 70.044888 
L 60.032519 69.751391 
L 60.097594 69.437082 
L 60.57447 68.048231 
L 60.844936 67.252801 
L 61.214032 66.168464 
L 61.002539 66.176267 
L 60.87544 66.151559 
L 60.810366 66.03972 
L 60.709703 63.406314 
L 60.652763 63.191525 
L 60.537865 63.007966 
L 60.058956 62.403828 
L 59.701336 61.839944 
L 59.346185 61.279843 
L 58.313124 59.649738 
L 57.461052 58.304307 
L 56.801153 56.716892 
L 55.958233 55.457569 
L 55.059388 54.114137 
L 54.000907 52.532319 
L 53.144768 51.249015 
L 52.283545 50.259378 
L 51.278954 49.104616 
L 50.978495 48.871167 
L 50.970866 48.865239 
L 50.641426 48.714802 
L 50.304867 48.649392 
L 49.046078 48.676865 
L 48.887459 48.637619 
L 48.781712 48.568282 
L 48.752225 48.515952 
L 48.741041 48.440072 
L 48.694268 48.300081 
L 48.494977 47.852591 
L 48.380079 47.654995 
L 48.212642 47.444962 
L 48.179771 47.403728 
L 48.16757 47.378862 
L 47.84423 46.45868 
L 47.819827 45.420371 
L 47.883885 44.347007 
L 47.770004 43.082606 
L 47.633754 41.564668 
L 47.472084 39.784972 
L 47.343968 38.362621 
L 46.799984 35.919322 
L 46.221429 33.327044 
L 45.977643 32.230692 
L 45.962147 32.160995 
L 46.00892 31.587686 
L 46.218379 30.944573 
L 47.27686 28.910559 
L 48.026236 27.469201 
L 48.425835 26.216919 
L 48.500061 25.713777 
L 48.51938 25.198708 
L 48.453288 24.645356 
L 48.452272 24.41345 
L 48.546833 24.250053 
L 48.886442 24.144631 
L 51.969356 24.189436 
L 56.07313 24.242146 
L 56.483914 24.227651 
L 56.5012 24.297491 
L 56.566274 24.37919 
L 56.657786 24.417403 
L 56.899782 24.431897 
L 56.942488 24.426627 
L 57.073654 24.359424 
L 57.075687 24.347565 
L 57.139745 24.323846 
L 57.178383 24.294856 
L 57.224139 24.301445 
L 57.311583 24.387096 
L 57.364456 24.483287 
L 57.389876 24.571569 
L 57.434615 24.64272 
L 57.546462 24.688836 
L 57.558664 24.47011 
L 57.666444 24.459569 
L 57.825063 24.539946 
L 57.986733 24.592651 
L 58.217545 24.426627 
L 58.22873 24.427944 
L 58.759495 24.250053 
L 58.858124 24.169669 
L 58.927266 23.907422 
L 59.009626 23.730823 
L 59.118423 23.560806 
L 59.237388 23.461955 
L 59.161128 23.182522 
L 59.342117 23.045434 
L 59.836278 22.93075 
L 60.01015 22.756741 
L 60.317221 22.261034 
L 60.447371 22.147645 
L 60.85002 22.242575 
L 61.128622 22.394196 
L 61.191663 22.416609 
L 61.562792 22.411335 
L 61.693958 22.494394 
L 61.863762 22.756741 
L 61.770217 23.041479 
L 61.858678 23.282698 
L 62.042718 23.406597 
L 62.232858 23.335422 
L 62.374192 23.323559 
L 62.579584 23.440866 
L 62.938512 23.722916 
L 63.035107 23.772997 
L 63.252701 23.845482 
L 63.347262 23.896879 
L 63.429623 23.979905 
L 63.49368 24.065563 
L 63.560789 24.131454 
L 63.650266 24.157809 
L 63.808886 24.255324 
L 63.863793 24.493828 
L 63.886162 24.782384 
L 63.952254 25.036663 
L 63.889213 25.227691 
L 63.9187 25.489843 
L 64.007161 25.720363 
L 64.120024 25.82047 
L 64.525725 25.732218 
L 64.643673 25.758562 
L 64.796191 25.877108 
L 64.897871 25.913988 
L 65.042255 25.894231 
L 65.400166 25.76383 
L 65.709271 25.704556 
L 65.777396 25.645281 
L 65.828236 25.586004 
L 65.875008 25.558341 
L 67.023983 25.558341 
L 67.10126 25.626839 
L 67.160234 25.925842 
L 67.222258 25.993016 
L 67.277165 26.019358 
L 67.524245 26.17609 
L 67.694049 26.199797 
L 68.311242 26.073359 
L 68.457661 26.008821 
L 68.719993 25.971942 
L 68.792185 25.913988 
L 68.845058 25.832324 
L 68.940637 25.732218 
L 69.303632 25.555707 
L 69.416496 25.479304 
L 69.504957 25.373918 
L 69.778474 24.861436 
L 70.223829 24.189436 
L 70.390583 24.118276 
L 70.484128 24.178894 
L 70.678335 24.197342 
L 70.922365 24.398955 
L 71.067766 24.434533 
L 71.977796 24.330434 
L 72.070324 24.279043 
L 72.157768 24.194707 
L 72.31232 24.078742 
L 72.430268 24.471428 
L 72.697685 24.898327 
L 73.04136 25.267212 
L 73.38707 25.479304 
L 74.222873 25.72168 
L 74.651959 25.780954 
L 75.004786 25.732218 
L 75.100365 25.676894 
L 75.177641 25.613667 
L 75.2539 25.566245 
L 75.346428 25.558341 
L 75.460309 25.626839 
L 75.635198 25.862619 
L 75.715524 25.913988 
L 76.202568 26.089164 
L 76.427279 26.089164 
L 76.614369 26.049652 
L 76.68046 26.00487 
L 76.76282 25.913988 
L 76.817727 25.78754 
L 76.873651 25.611032 
L 76.94991 25.452958 
L 77.068875 25.384457 
L 77.274267 25.329129 
L 77.630144 25.089362 
L 77.84367 25.036663 
L 78.155826 25.032711 
L 78.366302 24.985282 
L 78.549324 24.852214 
L 78.987562 24.404226 
L 79.703384 24.002308 
L 79.907759 23.819124 
L 80.030791 23.679424 
L 80.111117 23.509404 
L 80.092815 23.352557 
L 80.033841 23.195703 
L 79.994186 23.025661 
L 80.046043 22.739604 
L 80.281938 22.203021 
L 80.267703 21.973599 
L 80.360231 21.818005 
L 80.511733 21.241726 
L 80.537153 21.054449 
L 80.604262 20.943661 
L 81.222471 20.4952 
L 81.385158 20.445074 
L 81.785774 20.413416 
L 81.873218 20.384395 
L 81.965746 20.259076 
L 82.528033 20.136392 
L 82.750133 20.142273 
L 82.82697 20.144307 
L 82.82697 20.124519 
L 82.857473 20.087581 
L 82.907296 20.057239 
L 82.967287 20.05592 
L 82.984572 20.087581 
L 83.036429 20.20499 
L 83.067949 20.230055 
L 83.163528 20.270949 
L 83.356718 20.45167 
L 83.473649 20.492561 
L 83.586513 20.467499 
L 83.804107 20.351417 
L 83.901719 20.317119 
L 84.356225 20.408139 
L 84.709052 20.720756 
L 85.252019 21.450093 
L 85.600779 21.678229 
L 86.380659 21.928767 
L 86.668936 22.143491 
L 86.674512 22.147645 
L 86.919559 21.759986 
L 87.888562 20.91992 
L 88.110222 20.562472 
L 88.267825 20.390991 
L 88.560661 20.289417 
L 88.759953 20.170691 
L 88.866716 20.144307 
L 88.984664 20.160138 
L 89.197173 20.224778 
L 89.30597 20.230055 
L 89.485942 20.108689 
L 89.877408 19.631102 
L 90.007557 19.52555 
L 90.212949 19.459578 
L 90.385804 19.3052 
L 90.649153 19.010941 
L 90.981644 18.913289 
L 92.267886 18.914609 
L 92.608512 18.828832 
L 92.911516 18.653312 
L 93.143344 18.7127 
L 93.543961 18.992466 
L 93.751386 19.090116 
L 94.012702 19.094075 
L 94.259782 18.999064 
L 94.489577 18.838069 
L 96.418433 16.859388 
L 96.574002 16.749798 
L 96.742789 16.678497 
L 97.501316 16.605875 
L 99.15157 16.142377 
L 99.400684 16.007675 
L 100.385956 15.137283 
L 101.400715 14.581134 
L 101.587805 14.455626 
L 102.818123 13.221476 
L 103.092657 13.090638 
L 103.207555 12.94658 
L 103.392611 12.635979 
L 103.974216 11.895724 
L 104.346362 11.538767 
L 104.983891 11.253179 
L 105.336718 10.9279 
L 105.64989 10.524572 
L 105.805663 10.15394 
L 105.973794 10.08 
L 106.125913 10.125822 
L 106.185159 10.254954 
L 106.081078 10.423653 
L 106.266823 10.477802 
L 106.530228 10.19143 
L 106.692755 10.328891 
L 106.742393 10.597551 
L 106.638312 10.811008 
L 106.491798 10.979684 
L 106.41734 11.122324 
L 106.491798 11.325343 
L 106.670337 11.409671 
L 106.875297 11.460683 
L 107.027415 11.559583 
L 107.09707 11.753211 
L 107.120288 12.18936 
L 107.192344 12.393366 
L 107.333254 12.496406 
L 107.719154 12.559893 
L 107.870472 12.655644 
L 107.951335 12.867951 
L 107.808024 12.924148 
L 107.43093 12.877317 
L 107.113883 12.992833 
L 106.282835 13.829438 
L 106.350088 14.274723 
L 106.426947 14.206061 
L 106.48219 14.126994 
L 106.521421 14.037521 
L 106.551845 13.925158 
L 106.741593 14.132195 
L 107.43093 14.575366 
L 107.61027 14.836459 
L 107.426126 15.079853 
L 106.886506 15.408515 
L 106.707966 15.616515 
L 106.508611 15.945132 
L 106.388517 16.303875 
L 106.491798 16.776949 
L 106.410935 17.21774 
L 106.490997 17.344562 
L 106.603085 17.309218 
L 106.731985 16.991113 
L 106.825658 16.908984 
L 107.077054 17.047251 
L 107.073852 17.41109 
L 106.938546 17.818548 
L 106.78963 18.08462 
L 106.474985 18.511751 
L 106.41734 18.652039 
L 106.410935 18.817261 
L 106.484592 19.136254 
L 106.490997 19.263012 
L 106.369302 19.48431 
L 105.714392 20.098265 
L 105.640735 20.264462 
L 105.496622 20.709004 
L 105.415759 20.837787 
L 105.290062 20.893868 
L 105.054678 20.893868 
L 104.939388 20.917754 
L 105.040267 21.109878 
L 105.125133 21.353912 
L 105.201993 21.448406 
L 105.27565 21.186724 
L 105.424566 21.297837 
L 105.579087 21.484749 
L 105.713592 21.693456 
L 105.805663 21.876195 
L 106.090685 21.786903 
L 106.145128 22.189738 
L 106.08348 22.61848 
L 106.013825 23.111524 
L 105.910545 23.507987 
L 105.831283 23.682334 
L 105.714392 23.854598 
L 105.67276 24.056946 
L 105.78805 24.255132 
L 105.939367 24.435669 
L 106.013825 24.591297 
L 105.954579 24.734469 
L 105.732807 25.056067 
L 105.714392 25.164989 
L 105.820075 25.350668 
L 105.852099 25.500033 
L 105.879321 25.912832 
L 105.924956 26.163807 
L 106.106698 26.385728 
L 106.138723 26.454169 
L 106.151533 26.535051 
L 106.169147 27.15509 
L 106.22519 27.373841 
L 106.350088 27.572882 
L 106.434954 27.511719 
L 106.487795 27.499279 
L 106.625502 27.572882 
L 106.358094 27.918068 
L 106.290841 28.288094 
L 106.358094 28.668446 
L 106.490997 29.043575 
L 106.78963 29.582366 
L 106.78963 29.699438 
L 106.641515 29.899385 
L 106.579066 30.031986 
L 106.551845 30.442188 
L 106.434954 31.054294 
L 106.41734 31.233452 
L 106.45577 31.459198 
L 106.636711 31.80918 
L 106.692755 32.014182 
L 106.671938 32.225384 
L 106.59748 32.486263 
L 106.484592 32.709858 
L 106.350088 32.805088 
L 106.209178 32.750228 
L 106.069869 32.675699 
L 105.970592 32.709858 
L 105.946573 32.97691 
L 106.189162 32.906526 
L 106.405331 33.111464 
L 106.561452 33.446789 
L 106.625502 33.767595 
L 106.595078 33.943508 
L 106.53263 34.097683 
L 106.490997 34.258059 
L 106.52062 34.460846 
L 106.607088 34.564305 
L 106.742393 34.593272 
L 107.027415 34.547751 
L 106.998593 34.680174 
L 106.940948 34.786729 
L 106.860886 34.861212 
L 106.63511 34.934659 
L 106.57106 35.050516 
L 106.490997 35.320489 
L 106.233196 35.782805 
L 106.21238 35.995843 
L 106.350088 36.196458 
L 106.454169 36.254365 
L 106.573462 36.279182 
L 106.986584 36.303999 
L 107.037023 36.363973 
L 107.027415 37.234502 
L 107.064244 37.418504 
L 107.152313 37.499131 
L 107.2644 37.535309 
L 107.549422 37.720328 
L 107.603865 37.825753 
L 107.535011 37.982851 
L 107.437335 38.001454 
L 107.269204 37.758571 
L 107.16192 37.758571 
L 107.096269 37.882598 
L 107.102674 38.043828 
L 107.195546 38.602903 
L 107.27721 38.607036 
L 107.385294 38.534703 
L 107.498182 38.546069 
L 107.568637 38.677301 
L 107.651902 39.00794 
L 107.699939 39.074064 
L 107.818432 39.117457 
L 107.871273 39.224904 
L 107.871273 39.364374 
L 107.834444 39.506936 
L 107.675921 39.711472 
L 107.464556 39.770351 
L 107.253191 39.699076 
L 107.094668 39.506936 
L 107.086661 39.609206 
L 107.104275 39.736263 
L 107.134699 39.835426 
L 107.16192 39.854019 
L 107.017808 39.968673 
L 106.741593 39.937686 
L 106.692755 40.032711 
L 106.753602 40.139096 
L 106.875297 40.23928 
L 106.962565 40.386968 
L 106.924135 40.634822 
L 106.813649 40.972492 
L 106.753602 41.074716 
L 106.667135 41.180034 
L 106.640714 41.191391 
L 106.617496 41.142863 
L 106.551845 41.074716 
L 106.561452 40.968362 
L 106.527826 40.883689 
L 106.41734 40.814504 
L 106.330873 40.803145 
L 106.270025 40.823798 
L 105.987405 41.012762 
L 105.786448 41.192424 
L 105.619919 41.402016 
L 105.550264 41.595077 
L 105.567077 41.835612 
L 105.617517 41.972906 
L 106.114704 42.545759 
L 106.26362 42.607683 
L 106.41734 42.539567 
L 106.548642 42.31663 
L 106.496602 42.137031 
L 106.390119 41.961551 
L 106.350088 41.759221 
L 106.428549 41.67044 
L 106.579066 41.663213 
L 106.742393 41.715863 
L 106.856882 41.802578 
L 106.998593 41.852129 
L 107.165123 41.79432 
L 107.304431 41.796385 
L 107.363677 42.021422 
L 107.308434 42.432229 
L 107.073051 43.167009 
L 107.027415 43.585924 
L 107.051434 43.811868 
L 107.142705 44.23895 
L 107.16192 44.460722 
L 107.094668 45.414679 
L 107.039425 45.662146 
L 106.913727 45.809585 
L 106.776019 45.934336 
L 106.692755 46.110629 
L 106.718375 46.262171 
L 106.848076 46.199287 
L 107.094668 45.939491 
L 107.094668 46.976485 
L 107.140303 46.953811 
L 107.250789 46.92083 
L 107.296425 46.898156 
L 107.257995 47.186728 
L 106.960163 47.590686 
L 106.886506 47.801918 
L 106.86649 48.344874 
L 106.808044 48.60859 
L 106.692755 48.798123 
L 106.692755 48.799153 
L 106.864088 48.977344 
L 107.0082 49.20805 
L 107.160319 49.405785 
L 107.363677 49.49023 
L 107.375687 49.572613 
L 107.246786 49.766205 
L 106.924135 50.143057 
L 106.814449 50.391178 
L 106.846474 50.675308 
L 107.115484 51.403013 
L 107.164322 51.632507 
L 107.318042 53.133571 
L 107.445341 53.472982 
L 107.451746 53.610792 
L 107.471762 53.749625 
L 107.624681 53.934724 
L 107.690332 54.040638 
L 107.744774 54.159914 
L 107.767192 54.261706 
L 107.789609 54.576316 
L 107.889687 55.130399 
L 107.908102 55.390444 
L 107.860064 55.728571 
L 107.747977 55.880664 
L 107.363677 56.065631 
L 107.476565 56.149891 
L 107.57264 56.269082 
L 107.623079 56.419093 
L 107.602263 56.593753 
L 107.505388 56.737583 
L 107.378089 56.795113 
L 107.094668 56.848532 
L 106.806443 57.064256 
L 106.873696 57.276882 
L 107.017808 57.535711 
L 106.960163 57.892076 
L 107.094668 57.837649 
L 107.205154 57.596306 
L 107.293222 57.590144 
L 107.360475 57.696954 
L 107.330051 57.824298 
L 107.314039 57.951637 
L 107.43093 58.062541 
L 107.283615 58.200138 
L 107.222768 58.23505 
L 107.326849 58.311033 
L 107.429329 58.308979 
L 107.530207 58.247372 
L 107.632687 58.148797 
L 107.630285 57.781166 
L 107.874475 57.544954 
L 108.358052 57.292289 
L 108.478146 57.395001 
L 108.598239 57.572684 
L 108.652682 57.762681 
L 108.631866 58.145716 
L 108.683105 58.287417 
L 108.848034 58.407548 
L 108.739149 58.58825 
L 108.691912 58.826431 
L 108.68951 59.072804 
L 108.713529 59.278099 
L 108.579024 59.333526 
L 108.346843 59.565487 
L 108.242762 59.620909 
L 108.106656 59.569593 
L 107.91851 59.323262 
L 107.767192 59.278099 
L 107.967348 60.655252 
L 107.792812 60.58446 
L 107.702341 60.664485 
L 107.711949 60.806062 
L 107.834444 60.919934 
L 107.632687 61.178438 
L 107.651902 61.248189 
L 107.696737 61.315887 
L 107.743173 61.356915 
L 107.767192 61.350761 
L 107.693534 61.935351 
L 107.699939 62.132238 
L 107.908102 61.889203 
L 108.053015 61.596919 
L 108.322024 60.536239 
L 108.399685 60.439794 
L 108.992146 60.082715 
L 109.115442 60.05193 
L 109.392458 60.170963 
L 109.657465 60.467497 
L 109.796773 60.848124 
L 109.693493 61.22152 
L 109.565393 61.328196 
L 109.264358 61.414354 
L 109.115442 61.483073 
L 108.984941 61.625636 
L 108.994548 61.736398 
L 109.100231 61.796906 
L 109.249947 61.789727 
L 109.350025 61.701529 
L 109.438894 61.576406 
L 109.536571 61.512817 
L 109.659867 61.609226 
L 109.710306 61.7846 
L 109.695094 61.999956 
L 109.490134 62.719743 
L 109.508549 62.855067 
L 109.592614 63.070343 
L 109.624639 63.112371 
L 109.682284 63.162599 
L 109.743932 63.233326 
L 109.794371 63.337876 
L 109.806381 63.419874 
L 109.807181 63.593086 
L 109.827998 63.680201 
L 109.850415 63.879017 
L 109.714309 64.616768 
L 109.695094 64.686434 
L 109.699898 64.747903 
L 109.760745 64.841129 
L 109.795973 64.913863 
L 109.796773 64.985571 
L 109.772755 65.053179 
L 109.727119 65.104397 
L 109.256352 65.351252 
L 109.182695 65.446506 
L 109.133857 65.554047 
L 108.780782 66.009768 
L 108.652682 66.168485 
L 108.490155 66.27395 
L 108.312417 66.33436 
L 108.139482 66.35279 
L 108.057018 66.275998 
L 107.947332 65.895077 
L 107.834444 65.751706 
L 107.872874 65.989288 
L 107.884083 66.22685 
L 107.938525 66.439819 
L 108.108258 66.610797 
L 108.26518 66.642534 
L 108.732744 66.64151 
L 108.848034 66.610797 
L 108.948913 66.812475 
L 109.054595 67.092959 
L 109.126651 67.36932 
L 109.121847 67.562756 
L 108.975333 67.41026 
L 108.875255 67.396954 
L 108.780782 67.445058 
L 108.652682 67.477809 
L 108.108258 67.297673 
L 108.020189 67.526935 
L 108.144286 67.888189 
L 108.511772 68.508248 
L 108.205934 68.643292 
L 107.899295 68.69342 
L 107.629484 68.824363 
L 107.43093 69.201811 
L 107.289219 69.135327 
L 107.089864 69.079069 
L 106.891309 69.061681 
L 106.753602 69.108733 
L 106.702362 69.238633 
L 106.620698 69.693746 
L 106.551845 69.87986 
L 106.902518 69.947349 
L 107.077054 70.024038 
L 107.222768 70.145715 
L 107.307634 69.766352 
L 107.505388 69.619092 
L 107.759186 69.661021 
L 108.004977 69.841002 
L 108.140283 70.119131 
L 108.21394 70.519914 
L 108.173108 70.87055 
L 107.967348 71.004454 
L 108.092245 71.194567 
L 108.068226 71.351962 
L 107.699939 71.851681 
L 107.655104 71.934448 
L 107.672718 72.132668 
L 107.642294 72.237903 
L 107.591055 72.345177 
L 107.535011 72.42895 
L 107.346064 72.645522 
L 107.296425 72.7252 
L 107.279612 72.819175 
L 107.294824 73.022437 
L 107.259596 73.115381 
L 107.177933 73.282877 
L 107.142705 73.472828 
L 107.176331 73.603539 
L 107.296425 73.591285 
L 107.231574 73.773046 
L 107.147509 73.934373 
L 107.035422 74.071188 
L 106.886506 74.189618 
L 106.755203 74.260062 
L 106.665533 74.26925 
L 106.41734 74.189618 
L 106.386916 74.518338 
L 106.2372 74.738823 
L 105.843293 75.092989 
L 105.696778 75.314446 
L 105.085102 76.565278 
L 103.126776 79.081452 
L 102.710451 79.382046 
L 102.649604 79.492086 
L 102.628788 79.650004 
L 102.587155 79.790595 
L 102.475869 79.852738 
L 102.384597 79.870056 
L 102.257298 79.918953 
L 102.146812 80.002485 
L 102.10598 80.116572 
L 102.216466 80.257137 
L 102.427831 80.112498 
L 102.777704 79.681587 
L 102.833747 79.968869 
L 102.755286 80.188893 
L 102.641598 80.391583 
L 102.582352 80.628884 
L 102.538317 80.939481 
L 102.423027 81.132948 
L 102.10598 81.491332 
L 101.697662 82.452205 
L 101.432656 82.920295 
L 101.092391 83.121751 
L 100.4623 83.135995 
L 100.280558 83.20009 
L 99.671283 83.601923 
L 99.376654 83.91419 
L 99.352635 83.968095 
L 99.368647 84.075902 
L 99.4359 84.120651 
L 99.546386 84.138957 
L 99.552791 84.286417 
L 99.53838 84.594531 
L 99.546386 84.742982 
L 99.618442 85.001224 
L 99.743339 85.222844 
L 99.905065 85.395653 
L 100.09081 85.51153 
L 99.644062 85.859129 
L 99.479133 85.936366 
L 99.467925 85.847949 
L 99.418286 85.684319 
L 99.406277 85.594877 
L 99.312604 85.649762 
L 99.214928 85.680254 
L 99.114049 85.690417 
L 99.009968 85.680254 
L 99.061208 85.738186 
L 99.15408 85.877422 
L 99.20532 85.936366 
L 98.941114 86.052218 
L 98.841837 86.128433 
L 98.736154 86.277809 
L 98.748964 86.300163 
L 98.760173 86.378403 
L 98.752167 86.478994 
L 98.70493 86.576532 
L 98.539201 86.789884 
L 98.343849 86.9636 
L 97.941135 87.24091 
L 97.648107 87.535454 
L 97.251798 87.691853 
L 97.157324 87.773096 
L 96.909131 88.083823 
L 95.174179 89.182221 
L 93.680215 90.343021 
L 93.514486 90.517499 
L 93.258286 90.976965 
L 93.120579 91.086494 
L 92.940438 90.976965 
L 92.939638 91.026659 
L 92.938036 91.229482 
L 92.829952 91.39984 
L 92.657818 91.507321 
L 92.464067 91.573227 
L 92.637002 91.649271 
L 92.784317 91.592492 
L 92.873186 91.59452 
L 92.873186 91.83582 
L 92.813139 92.059863 
L 92.702653 92.261584 
L 92.560142 92.421734 
L 92.40322 92.515993 
L 92.049344 92.564642 
L 91.705876 92.539304 
L 91.379222 92.576804 
L 90.809978 93.044997 
L 90.444894 93.190908 
L 88.898088 93.366192 
L 88.749172 93.297296 
L 88.516191 92.999397 
L 88.353664 92.941637 
L 88.569833 93.297296 
L 88.391293 93.561725 
L 88.028611 93.730904 
L 87.689947 93.798775 
L 87.73238 93.570843 
L 87.272822 94.139113 
L 87.119102 94.136075 
L 87.012619 94.044917 
L 86.935759 93.949705 
L 86.870909 93.926408 
L 86.792448 94.004402 
L 86.754018 94.099612 
L 86.758821 94.205959 
L 86.803656 94.309264 
L 84.02389 95.654846 
L 83.89579 95.768208 
L 83.671616 96.082963 
L 83.532307 96.201364 
L 83.365777 96.192256 
L 83.186438 95.906867 
L 83.172026 95.068716 
L 83.029515 94.825718 
L 83.096768 95.080865 
L 82.979877 95.136548 
L 82.854979 95.126424 
L 82.734886 95.071753 
L 82.626802 94.996831 
L 82.763708 95.250948 
L 82.994288 95.54249 
L 83.107176 95.81679 
L 82.895011 96.023254 
L 83.090363 96.186185 
L 82.862185 96.401722 
L 82.224088 96.702227 
L 80.935083 97.042146 
L 80.39226 97.394153 
L 79.12087 98.448843 
L 79.021592 98.469062 
L 79.048013 98.307301 
L 78.802221 98.432667 
L 78.438738 98.814788 
L 78.046432 99.138227 
L 77.705367 99.077586 
L 77.462778 99.409073 
L 76.198592 100.316376 
L 75.935187 100.635564 
L 75.787072 100.764843 
L 75.644561 100.809281 
L 75.543682 100.704245 
L 75.377152 100.991064 
L 75.279476 101.090028 
L 75.140168 101.128401 
L 74.877563 101.13547 
L 74.777485 101.208174 
L 74.738255 101.377808 
L 74.628569 101.577719 
L 74.376373 101.777611 
L 74.083344 101.883608 
L 73.857568 101.804868 
L 73.814335 102.263136 
L 73.534116 102.692048 
L 72.843978 103.421516 
L 72.126619 104.864622 
L 71.836794 105.197283 
L 71.83279 105.101522 
L 71.769541 104.859582 
L 71.702289 104.944264 
L 71.61422 104.784978 
L 71.527753 104.666011 
L 71.426874 104.573252 
L 71.297173 104.490573 
L 71.157865 104.361506 
L 71.122637 104.20823 
L 71.124238 104.035781 
L 71.092213 103.845165 
L 70.891257 103.569802 
L 70.607836 103.448753 
L 70.348434 103.527436 
L 70.218733 103.845165 
L 70.534979 103.593003 
L 70.749546 103.792718 
L 70.886453 104.20823 
L 70.963313 104.605516 
L 71.01055 105.064225 
L 71.083407 105.222482 
L 71.412463 105.319246 
L 71.526152 105.405926 
L 71.635036 105.517799 
L 71.769541 105.620597 
L 71.468507 106.304785 
L 71.333201 106.51534 
L 71.078603 106.835667 
L 70.994537 107.010921 
L 70.963313 107.2345 
L 70.885652 107.384547 
L 70.699107 107.349302 
L 70.474132 107.259676 
L 70.285985 107.241549 
L 70.136268 107.358365 
L 70.036191 107.536599 
L 69.882471 107.917184 
L 70.067415 107.833622 
L 70.355639 107.578889 
L 70.493347 107.495314 
L 70.377256 107.755091 
L 69.694324 108.759675 
L 69.294012 109.164197 
L 68.370092 110.458769 
L 67.910534 110.968541 
L 67.586281 111.056005 
L 67.515026 111.553576 
L 67.451777 111.731467 
L 67.388527 111.676192 
L 67.183568 111.562622 
L 67.216393 111.806841 
L 67.25082 111.891256 
L 67.124321 111.876182 
L 66.94338 111.882211 
L 66.808075 111.925423 
L 66.813679 112.021892 
L 66.872926 112.172615 
L 66.823287 112.3173 
L 66.64715 112.574494 
L 66.26285 113.558779 
L 66.10913 113.837912 
L 66.126744 113.675256 
L 66.106729 113.566812 
L 66.053887 113.530663 
L 65.974626 113.584887 
L 65.936196 113.681281 
L 65.904971 113.950359 
L 65.819305 114.21338 
L 65.899367 114.24751 
L 65.991439 114.196314 
L 65.974626 114.098939 
L 66.010654 114.12504 
L 66.078707 114.159172 
L 66.10913 114.183264 
L 66.120339 114.22141 
L 66.12194 114.340863 
L 66.25004 114.622905 
L 66.164373 114.744342 
L 66.000246 114.817603 
L 65.871345 114.897885 
L 65.686401 114.982178 
L 65.463828 114.897885 
L 65.242055 114.759396 
L 65.061914 114.687137 
L 64.833737 114.419156 
L 64.498275 113.625051 
L 64.485465 114.00658 
L 64.699232 114.861758 
L 64.754475 115.304269 
L 64.618369 115.706562 
L 64.704036 115.737659 
L 64.767285 115.796842 
L 64.805715 115.883106 
L 64.820126 115.996447 
L 64.781696 116.051611 
L 64.695229 116.032554 
L 64.559123 115.95733 
L 64.235671 116.019516 
L 63.947446 116.125829 
L 63.599175 116.169957 
L 63.45266 115.995444 
L 63.404623 115.285206 
L 63.425439 115.192897 
L 63.46467 115.07851 
L 63.46467 114.982178 
L 63.373399 114.940032 
L 63.279726 114.958095 
L 63.223682 115.004255 
L 62.927451 115.397575 
L 62.456684 116.234143 
L 62.249323 116.42067 
L 61.926671 116.470809 
L 61.985917 116.220102 
L 61.947488 116.086714 
L 61.849811 116.077688 
L 61.730518 116.210073 
L 61.672874 116.388581 
L 61.632042 116.609186 
L 61.572796 116.819743 
L 61.456705 116.966118 
L 61.24534 117.024264 
L 61.127649 116.920001 
L 61.037979 116.773623 
L 60.91148 116.707449 
L 60.817007 116.735523 
L 60.73214 116.796683 
L 60.673695 116.891929 
L 60.649676 117.013237 
L 60.682502 117.133534 
L 60.756159 117.110478 
L 60.845829 117.050329 
L 60.91148 117.058349 
L 60.851433 117.253825 
L 59.434329 118.411271 
L 59.34546 118.533492 
L 59.194142 118.801953 
L 59.093263 118.908125 
L 58.969167 118.871066 
L 58.833061 119.033322 
L 58.622497 119.496984 
L 58.693752 119.452926 
L 58.749796 119.435903 
L 58.891506 119.412872 
L 58.891506 119.496984 
L 58.618493 119.679216 
L 58.358291 119.928508 
L 57.877916 120.505067 
L 58.079674 120.505067 
L 57.997209 120.674201 
L 57.558467 121.274564 
L 57.486411 121.33459 
L 57.373523 121.358601 
L 57.287857 121.399617 
L 57.251028 121.496654 
L 57.223807 121.618693 
L 57.169364 121.732723 
L 56.662569 122.533755 
L 55.660989 123.799167 
L 54.506489 124.897018 
L 53.564956 126.061147 
L 53.22389 126.237804 
L 52.977298 126.318642 
L 52.44088 126.974207 
L 52.143048 127.242558 
L 52.053378 127.114872 
L 51.94129 127.206647 
L 51.673882 127.584678 
L 51.137464 128.002523 
L 50.826822 127.858929 
L 50.743557 127.770176 
L 50.672302 127.584678 
L 50.61946 127.232583 
L 50.577027 127.062997 
L 50.50417 126.991167 
L 50.421706 126.92632 
L 50.005382 126.488292 
L 49.534615 126.282715 
L 49.423328 126.190897 
L 49.035026 125.500133 
L 48.953362 125.392304 
L 48.804446 125.310431 
L 48.738795 125.120711 
L 48.702767 124.897018 
L 48.645122 124.722241 
L 48.549047 124.643336 
L 48.392925 124.56343 
L 48.219991 124.5015 
L 48.073476 124.477527 
L 47.922159 124.555439 
L 47.818878 124.897018 
L 47.697984 124.972916 
L 47.697984 125.063791 
L 47.851704 125.051808 
L 48.03905 124.855073 
L 48.205579 124.806135 
L 48.378514 124.833101 
L 48.517823 124.914994 
L 48.610695 125.058798 
L 48.679549 125.438232 
L 48.764415 125.625925 
L 49.286422 126.526211 
L 49.347269 126.572113 
L 49.446546 126.614022 
L 49.621082 126.655931 
L 49.710752 126.695843 
L 49.7716 126.793624 
L 49.859668 126.991167 
L 50.090248 127.300413 
L 50.129479 127.410134 
L 50.083843 127.734274 
L 49.932525 128.072321 
L 49.711553 128.290675 
L 49.456954 128.253786 
L 49.481774 128.464144 
L 49.574646 128.464144 
L 49.692338 128.377412 
L 49.792416 128.329557 
L 49.966952 128.392366 
L 50.003781 128.491061 
L 49.926921 128.839943 
L 49.932525 129.03828 
L 49.997376 129.433898 
L 50.005382 129.591326 
L 49.994173 129.69295 
L 49.975759 129.758704 
L 49.944534 129.81549 
L 49.893294 129.887217 
L 49.846858 130.003768 
L 49.865273 130.108359 
L 49.904503 130.206968 
L 49.926921 130.305572 
L 49.91331 130.573473 
L 49.926921 130.69297 
L 49.956544 130.78458 
L 50.043011 130.963804 
L 50.074235 131.14799 
L 50.122273 131.328177 
L 50.129479 131.435684 
L 50.103058 131.537212 
L 50.023796 131.65267 
L 50.005382 131.736273 
L 49.922117 131.88257 
L 49.731568 131.817882 
L 49.423328 131.602905 
L 49.260001 131.65267 
L 49.121493 131.727316 
L 49.010206 131.720349 
L 48.926141 131.529249 
L 48.93735 131.62082 
L 48.935748 131.690491 
L 48.926141 131.778073 
L 49.078259 131.98308 
L 49.792416 132.446754 
L 49.792416 132.522364 
L 49.711553 132.621847 
L 49.637095 132.769072 
L 49.572244 132.942146 
L 49.467363 133.351893 
L 49.422528 133.479176 
L 49.221571 133.739681 
L 49.16873 133.918634 
L 49.40011 134.108504 
L 49.353674 134.239713 
L 49.201555 134.369918 
L 49.072655 134.424582 
L 48.942153 134.397748 
L 48.778826 134.274501 
L 48.814053 134.454398 
L 48.866895 134.634279 
L 48.935748 134.793275 
L 49.017412 134.9145 
L 49.145512 135.019822 
L 49.355275 135.065525 
L 49.456954 135.12315 
L 49.486578 135.206603 
L 49.526609 135.384426 
L 49.538618 135.588058 
L 49.490581 135.752935 
L 49.101477 136.140239 
L 49.054241 136.289181 
L 49.39931 136.078673 
L 49.60507 136.021077 
L 49.75879 136.084631 
L 49.783609 136.400384 
L 49.854865 136.521508 
L 50.005382 136.380527 
L 50.085444 136.635675 
L 50.216747 136.749836 
L 50.386479 136.835204 
L 50.56742 137.004935 
L 50.6699 137.154802 
L 50.744358 137.311604 
L 50.789993 137.504116 
L 50.806806 137.758122 
L 50.859647 137.871223 
L 51.140666 137.631123 
L 51.270368 137.72042 
L 51.26076 137.91289 
L 51.131059 138.028958 
L 51.018972 138.158906 
L 51.062205 138.386045 
L 51.118249 138.281902 
L 51.19671 138.212469 
L 51.295988 138.166841 
L 51.411277 138.136091 
L 51.880443 138.177752 
L 51.930882 138.278926 
L 52.251932 138.594315 
L 52.291163 138.713316 
L 52.298369 138.885854 
L 52.283957 139.210064 
L 52.391241 139.135709 
L 52.476107 139.142649 
L 52.533752 139.224934 
L 52.552967 139.376609 
L 52.520942 139.461858 
L 52.382434 139.626398 
L 52.35121 139.755245 
L 52.412057 139.967327 
L 52.713092 140.294323 
L 52.828382 140.466716 
L 52.761129 140.611356 
L 52.709089 140.773814 
L 52.682668 140.946163 
L 52.687472 141.13038 
L 52.962886 140.868905 
L 53.102195 140.830275 
L 53.297547 140.963991 
L 53.3648 141.033322 
L 53.381613 141.063034 
L 53.39122 141.106611 
L 53.432052 141.221492 
L 53.424046 141.303686 
L 53.424046 141.305667 
L 53.379211 141.383897 
L 53.37761 141.44331 
L 53.499304 141.471035 
L 53.432052 141.739357 
L 53.376809 141.864098 
L 53.297547 141.975962 
L 53.190264 141.894787 
L 53.081379 141.881917 
L 52.996513 141.947254 
L 52.961285 142.096728 
L 52.991709 142.184823 
L 53.058961 142.205609 
L 53.127014 142.203629 
L 53.163042 142.217486 
L 53.17265 142.291719 
L 53.160641 142.389702 
L 53.161441 142.731116 
L 53.092587 142.914167 
L 52.963687 143.021021 
L 52.790752 143.054659 
L 52.7243 143.00717 
L 52.644238 142.928019 
L 52.562574 142.912188 
L 52.49212 143.054659 
L 52.47931 143.230753 
L 52.536955 143.313848 
L 52.629827 143.36034 
L 52.776341 143.47607 
L 52.817173 143.483983 
L 52.8524 143.495852 
L 52.887628 143.55322 
L 52.894033 143.616519 
L 52.874818 143.687729 
L 52.848397 143.7352 
L 52.828382 143.727288 
L 52.844394 143.865741 
L 52.841192 143.974517 
L 52.862808 144.060545 
L 52.961285 144.142614 
L 52.902039 144.285978 
L 52.968491 144.35123 
L 53.081379 144.393741 
L 53.163042 144.472829 
L 53.188662 144.642857 
L 53.119809 144.707108 
L 53.002918 144.736761 
L 52.887628 144.804962 
L 52.785148 144.953216 
L 52.823578 145.000655 
L 52.930061 145.033269 
L 53.028538 145.137035 
L 53.054158 145.275381 
L 53.028538 145.792109 
L 53.273528 145.490784 
L 53.566557 144.051646 
L 53.580968 144.263238 
L 53.511314 145.048093 
L 53.417641 145.399883 
L 53.499304 146.462748 
L 53.809146 147.392739 
L 54.405611 148.575762 
L 54.548922 148.78387 
L 54.678623 148.871643 
L 54.983661 149.698866 
L 55.00768 150.215316 
L 54.959642 151.266482 
L 55.050913 151.787401 
L 55.345543 152.531587 
L 55.385574 152.730377 
L 55.43201 153.497773 
L 55.53369 154.071133 
L 55.620958 155.080697 
L 55.327129 158.179451 
L 55.324727 158.693408 
L 55.382372 158.987589 
L 55.52168 159.128778 
L 55.697818 159.207212 
L 55.862746 159.31113 
L 56.052494 159.707139 
L 56.194204 159.88747 
L 56.259055 159.760064 
L 56.231033 159.232702 
L 56.303089 159.054263 
L 56.528065 158.89934 
L 56.298285 158.46195 
L 56.165382 157.873357 
L 56.16298 157.2826 
L 56.331912 156.834982 
L 56.29188 156.725023 
L 56.297485 156.635676 
L 56.335915 156.559089 
L 56.399164 156.497228 
L 56.514454 156.853635 
L 56.605725 156.935117 
L 56.735426 156.742695 
L 56.489635 156.235031 
L 56.399164 156.167266 
L 56.448803 156.022887 
L 56.662569 155.674169 
L 56.671376 155.604417 
L 56.660167 155.520908 
L 56.660167 155.448202 
L 56.700199 155.418726 
L 56.741831 155.403005 
L 56.799476 155.368615 
L 56.849115 155.330294 
L 56.869931 155.302781 
L 56.913165 155.161279 
L 57.014043 155.109196 
L 57.127732 155.121971 
L 57.205392 155.171106 
L 57.244623 155.285094 
L 57.24142 155.426586 
L 57.205392 155.713465 
L 57.40715 157.747765 
L 57.484009 157.541695 
L 57.522439 157.333637 
L 57.560069 156.660222 
L 57.647337 156.369572 
L 57.676159 156.167266 
L 57.742611 156.167266 
L 57.608907 157.657489 
L 57.608907 157.900829 
L 57.676159 158.693408 
L 57.65214 158.950329 
L 57.16456 160.81626 
L 57.132536 162.322014 
L 57.440776 164.936748 
L 57.608907 165.408607 
L 57.704982 165.259151 
L 57.733003 165.188813 
L 57.742611 165.080371 
L 57.913944 165.167321 
L 58.074069 165.171229 
L 58.154132 165.10675 
L 58.079674 164.991463 
L 58.079674 164.916229 
L 58.28063 165.021751 
L 58.22939 165.368558 
L 57.872312 166.194741 
L 57.654542 166.551064 
L 57.272645 167.619572 
L 57.094106 167.974612 
L 57.025252 168.165756 
L 56.998831 168.407579 
L 57.020448 168.659115 
L 57.116523 169.099698 
L 57.132536 169.345282 
L 57.06128 169.848027 
L 56.489635 171.801995 
L 56.331912 173.359969 
L 56.331912 174.387092 
L 56.309494 174.627986 
L 56.245444 174.890209 
L 56.158176 174.995086 
L 56.057298 174.753276 
L 56.066905 174.525999 
L 56.110139 174.313262 
L 56.071709 174.155877 
L 55.82912 174.094667 
L 55.665793 174.138388 
L 55.697818 174.234571 
L 55.805101 174.322005 
L 55.862746 174.346292 
L 55.921992 174.622158 
L 55.929998 174.753276 
L 55.908382 174.979549 
L 55.817111 175.447531 
L 55.795494 175.694088 
L 55.812307 176.087142 
L 55.795494 176.233663 
L 55.761867 176.354945 
L 55.686609 176.520843 
L 55.660989 176.641133 
L 55.667394 176.712914 
L 55.711428 176.942787 
L 55.721836 177.085349 
L 55.70102 177.221111 
L 55.609749 177.448001 
L 55.587331 177.576945 
L 55.673799 177.566281 
L 56.131756 176.959275 
L 55.973232 176.548006 
L 55.95722 176.328748 
L 56.057298 176.145364 
L 56.20141 176.115283 
L 56.34312 176.210376 
L 56.600921 176.471366 
L 56.787467 176.569348 
L 56.902756 176.571288 
L 56.966006 176.464575 
L 57.039663 175.628085 
L 56.998831 175.494127 
L 56.998831 175.405787 
L 57.401545 175.517425 
L 57.505626 175.65138 
L 57.551262 176.180296 
L 57.580885 176.272474 
L 57.642533 176.308373 
L 57.661748 176.369498 
L 57.095707 178.43275 
L 57.071688 178.674965 
L 57.092504 178.829963 
L 57.185377 179.072117 
L 57.205392 179.20577 
L 57.172567 179.315201 
L 57.102112 179.396544 
L 57.030056 179.463358 
L 56.998831 179.524359 
L 56.946791 179.759628 
L 56.8307 179.982278 
L 55.311917 182.467973 
L 54.198249 183.812636 
L 54.170227 183.930431 
L 54.167025 184.084902 
L 54.145408 184.202676 
L 54.094969 184.306927 
L 53.3648 185.104019 
L 50.470544 186.803918 
L 48.863692 187.648815 
L 47.228018 188.104303 
L 47.203198 188.115857 
L 45.916596 188.717501 
L 45.659595 188.800268 
L 44.566744 189.304471 
L 44.019117 189.400674 
L 41.82861 190.291214 
L 39.815041 191.10435 
L 38.398738 191.924722 
L 37.213014 192.37986 
L 35.766286 193.251333 
L 35.368376 193.366466 
L 35.368376 193.285874 
L 35.528501 193.207196 
L 35.691828 193.087251 
L 35.829536 192.946184 
L 35.9128 192.796465 
L 35.781498 192.842534 
L 35.381987 193.059423 
L 35.295519 193.168814 
L 35.175426 193.266684 
L 34.932837 193.295468 
L 34.752696 193.372223 
L 34.819949 193.616851 
L 34.877594 193.575603 
L 35.021706 193.519964 
L 34.877594 193.780873 
L 34.651818 193.938163 
L 34.147425 194.17982 
L 33.940063 194.337067 
L 31.389276 196.276326 
L 31.113861 196.615237 
L 30.598259 197.407633 
L 30.374084 197.897399 
L 30.194745 198.650851 
L 30.057037 198.903188 
L 30.129094 199.486068 
L 30.082657 199.590197 
L 30.090664 199.522371 
L 30.071449 199.440211 
L 30.031417 199.333204 
L 29.97057 199.333204 
L 29.901716 199.429701 
L 29.810445 199.495621 
L 29.731984 199.570136 
L 29.696757 199.693363 
L 29.687149 199.860514 
L 29.660729 200.01905 
L 29.619897 200.163246 
L 29.562252 200.295015 
L 29.099491 200.776152 
L 29.024233 200.906909 
L 28.971391 200.976578 
L 28.711989 201.211326 
L 28.622319 201.26953 
L 28.505428 201.279071 
L 28.421363 201.24663 
L 28.219606 201.109225 
L 28.053876 201.051014 
L 27.885745 201.046243 
L 27.724019 201.102545 
L 27.576705 201.227547 
L 27.49424 201.451759 
L 27.533471 201.670213 
L 27.637552 201.798025 
L 27.741633 201.743659 
L 27.732026 201.686428 
L 27.741633 201.305787 
L 27.808886 201.263805 
L 27.954599 201.290521 
L 28.104316 201.342997 
L 28.185979 201.38593 
L 28.234817 201.475609 
L 28.306874 201.670213 
L 28.35331 201.743659 
L 28.449385 201.807563 
L 28.660749 201.895308 
L 28.762429 201.989723 
L 28.832083 202.11846 
L 28.920151 202.385434 
L 28.990606 202.515088 
L 29.075473 202.600882 
L 29.151532 202.659028 
L 29.205174 202.726704 
L 29.262819 203.085044 
L 29.440557 203.585231 
L 29.501404 203.836687 
L 29.671137 203.664292 
L 29.920931 203.721442 
L 30.16272 203.875734 
L 30.308433 203.99668 
L 30.520599 204.275672 
L 30.647898 204.542233 
L 30.788808 204.776384 
L 30.979356 204.955302 
L 31.091443 205.012399 
L 31.193123 204.964818 
L 31.308413 204.8963 
L 31.454927 204.882025 
L 31.363656 204.51082 
L 31.350846 204.202359 
L 31.403687 203.890972 
L 31.515774 203.516645 
L 31.606245 202.976408 
L 31.687908 202.835359 
L 31.808002 202.739095 
L 32.193102 202.557032 
L 32.199507 202.870623 
L 31.94731 204.747831 
L 31.836824 207.997163 
L 31.70312 208.879941 
L 31.61345 209.143714 
L 31.589431 209.280325 
L 31.650279 209.758354 
L 31.589431 210.679791 
L 31.567815 210.796348 
L 31.454927 211.117538 
L 31.47254 211.235004 
L 31.558207 211.404555 
L 31.589431 211.515366 
L 30.068158 211.56334 
L 28.687354 211.606637 
L 27.416364 211.646326 
L 26.268405 211.68 
L 25.713745 211.583786 
L 24.997415 211.4599 
L 24.712713 211.447872 
L 24.211943 211.510418 
z
" clip-path="url(#pd1b6983f3e)" style="stroke: #000000; stroke-linejoin: miter"/>
   </g>
   <g id="line2d_1">
    <path d="M 23.923682 211.444263 
L 23.958253 208.441039 
L 23.856574 207.484734 
L 23.318182 206.159518 
L 23.243448 204.61303 
L 23.604409 203.375808 
L 23.368514 202.11569 
L 23.497646 201.747488 
L 22.560164 201.403423 
L 22.303932 201.141683 
L 21.876879 199.439193 
L 21.93687 199.113984 
L 22.55813 197.661773 
L 22.720817 197.526919 
L 22.760472 197.114991 
L 22.524576 194.835711 
L 22.692347 194.259851 
L 22.670994 183.030301 
L 22.422897 182.118443 
L 21.518968 179.948926 
L 21.455927 179.44481 
L 21.331879 177.173038 
L 21.215964 177.02032 
L 20.394904 176.304565 
L 20.257129 176.054406 
L 19.858038 175.00836 
L 19.284059 173.083369 
L 18.339459 171.94209 
L 18.155928 171.516991 
L 18.095429 171.023786 
L 18.241847 167.927642 
L 15.711051 159.015357 
L 15.807646 158.798672 
L 17.233189 157.650032 
L 26.822557 145.408153 
L 27.202837 145.691729 
L 27.177418 145.58257 
L 26.51091 144.049896 
L 26.519553 143.866542 
L 26.476339 143.869053 
L 26.432109 143.861518 
L 26.14639 143.509828 
L 27.633957 141.105245 
L 27.694965 140.639807 
L 27.437716 137.562501 
L 27.541429 137.044507 
L 27.851551 136.575545 
L 28.278604 136.511243 
L 28.742261 136.578067 
L 29.163213 136.494852 
L 29.412327 136.175827 
L 30.042738 134.740191 
L 31.248654 132.850031 
L 31.313729 132.378782 
L 31.256788 132.011053 
L 31.439811 131.532017 
L 31.602498 130.82652 
L 31.91872 130.734205 
L 32.186137 130.046133 
L 32.712835 130.067639 
L 32.684365 129.972758 
L 32.625391 129.686823 
L 32.660979 128.781933 
L 32.851119 128.060256 
L 32.865354 126.89616 
L 32.435251 126.630058 
L 32.190204 126.218163 
L 32.257312 125.494292 
L 32.082424 125.377637 
L 31.899401 125.451181 
L 31.605548 125.807452 
L 31.157143 125.865768 
L 30.866848 125.684476 
L 30.865323 125.287605 
L 30.950734 124.903339 
L 30.92328 124.669954 
L 30.92328 123.289388 
L 30.606041 123.258924 
L 30.417426 123.248769 
L 30.313205 123.102788 
L 30.367095 121.869781 
L 30.955818 120.897837 
L 31.286275 118.849541 
L 31.140874 118.306296 
L 30.922264 117.9729 
L 30.813467 117.68909 
L 30.535883 117.613995 
L 29.679743 117.669998 
L 29.578064 117.407787 
L 29.578064 117.116262 
L 29.518073 116.689722 
L 29.844972 116.408286 
L 29.721432 116.31022 
L 29.658391 116.129359 
L 29.605518 115.353521 
L 30.850071 114.771138 
L 31.512003 114.781334 
L 31.682316 114.616913 
L 31.856696 114.021578 
L 31.800772 113.276858 
L 31.378803 112.132494 
L 31.369652 111.670494 
L 31.660455 111.417756 
L 32.022941 111.241587 
L 32.606072 110.822811 
L 32.636576 110.446099 
L 32.497275 110.147237 
L 32.525237 110.156178 
L 32.732154 109.79468 
L 33.062103 109.399903 
L 32.807397 108.92582 
L 32.198338 108.216421 
L 32.171901 107.928762 
L 32.394071 107.405765 
L 32.368651 106.90439 
L 32.00108 105.348385 
L 32.063105 104.997622 
L 31.926854 104.708265 
L 32.152074 104.084613 
L 32.020399 103.495378 
L 32.110894 102.995689 
L 32.381361 102.697104 
L 32.632508 102.494607 
L 32.841968 100.065812 
L 32.706734 99.847685 
L 32.165801 99.48067 
L 32.018366 98.958279 
L 32.08039 98.737479 
L 32.229859 98.574433 
L 32.854169 96.922786 
L 32.566417 96.663245 
L 32.377802 96.330425 
L 32.190204 94.704199 
L 31.527255 93.098731 
L 30.956835 91.815381 
L 31.817041 90.728438 
L 31.985828 90.327794 
L 32.331538 88.65494 
L 32.046836 88.756787 
L 31.59233 89.039102 
L 31.283733 89.01461 
L 30.372179 88.827691 
L 29.938009 88.964337 
L 29.676693 88.719401 
L 29.412327 87.633652 
L 25.660872 85.786005 
L 24.886584 85.641438 
L 22.942478 85.700815 
L 21.764015 85.40779 
L 21.678096 85.218015 
L 21.543371 84.519469 
L 19.715179 82.730251 
L 18.073059 82.595847 
L 17.35012 82.20164 
L 16.927134 82.13184 
L 16.89663 81.980599 
L 16.856976 81.985769 
L 16.743095 81.999989 
L 15.522944 80.431478 
L 14.087742 80.099032 
L 13.608832 80.383619 
L 13.524947 80.357749 
L 13.380563 80.449587 
L 13.083659 80.824666 
L 12.700329 80.913901 
L 11.999759 80.2271 
L 11.562538 80.114556 
L 7.087635 80.153364 
L 7.025611 75.57766 
L 7.187281 75.476578 
L 7.02256 75.008698 
L 6.720573 74.466838 
L 6.960536 73.509887 
L 6.784631 73.116893 
L 6.648381 71.809091 
L 6.421636 71.421039 
L 5.960012 71.096538 
L 5.715982 70.498056 
L 5.301131 68.38349 
L 5.398743 67.304797 
L 6.259966 67.176105 
L 7.904119 66.156761 
L 11.152771 64.675185 
L 17.007461 62.979324 
L 17.851398 62.588729 
L 19.442678 61.542971 
L 23.130584 60.019883 
L 24.250072 59.447703 
L 25.04012 59.26651 
L 34.635589 55.162562 
L 35.398183 55.755157 
L 35.50698 56.11405 
L 35.499863 56.968692 
L 35.969112 57.707008 
L 36.154574 57.898253 
L 37.140966 60.090257 
L 37.268065 60.217969 
L 37.814082 60.594556 
L 38.12522 61.175628 
L 38.50245 61.440067 
L 38.725262 62.075558 
L 38.985427 62.578312 
L 39.158281 62.644718 
L 39.254877 62.558781 
L 39.52026 61.248579 
L 39.728702 61.166509 
L 40.257942 61.674526 
L 40.535527 61.709693 
L 40.815145 61.582047 
L 41.656032 61.060986 
L 41.943784 61.062289 
L 43.056155 61.171719 
L 43.242228 60.724851 
L 43.557433 60.558072 
L 44.274272 60.533315 
L 45.479171 60.108502 
L 45.703882 59.95472 
L 45.864535 59.876523 
L 46.222171 60.207571 
L 46.353612 60.443406 
L 46.903697 61.617215 
L 47.41616 62.250169 
L 47.576813 62.649926 
L 47.589015 63.070456 
L 47.455815 63.820224 
L 47.874734 65.424526 
L 47.959127 66.814697 
L 48.208242 67.607654 
L 47.900153 68.493935 
L 47.987598 68.794062 
L 47.873717 69.146118 
L 48.039454 71.327587 
L 47.726282 71.776647 
L 47.477168 71.964815 
L 47.319565 72.304782 
L 47.205684 72.778327 
L 47.00741 72.928806 
L 46.637297 73.426883 
L 46.514265 73.636982 
L 46.454275 75.713726 
L 45.735403 76.844747 
L 45.36529 77.020898 
L 44.910784 77.559641 
L 44.755215 78.311882 
L 44.88028 79.106611 
L 45.329702 79.430128 
L 45.47307 79.538821 
L 46.459359 80.88545 
L 46.503081 81.23719 
L 46.269219 82.470483 
L 46.867092 83.805226 
L 47.641888 83.899523 
L 47.861515 84.178518 
L 48.242812 85.237381 
L 48.802048 85.88539 
L 49.05828 86.346122 
L 49.808673 86.924174 
L 50.084223 87.508541 
L 50.62109 88.154665 
L 50.78886 88.614973 
L 51.311492 89.058438 
L 51.454859 89.439959 
L 51.80667 89.624253 
L 52.361838 90.313623 
L 52.935309 90.335525 
L 53.259666 90.34712 
L 53.481326 90.548092 
L 53.577922 91.386587 
L 53.433537 92.128237 
L 52.75432 92.68175 
L 52.677044 93.07042 
L 52.997333 93.670032 
L 52.96683 93.990363 
L 53.117315 94.167878 
L 53.634862 94.26692 
L 55.189538 94.233477 
L 55.343073 93.713774 
L 55.360359 92.564622 
L 55.351208 92.295592 
L 54.983129 91.928684 
L 55.122429 91.75229 
L 55.123446 91.016964 
L 55.36951 90.76193 
L 55.319687 90.451473 
L 55.082774 89.718328 
L 55.0238 88.827691 
L 54.448296 88.119848 
L 53.975488 87.850324 
L 53.740609 86.751289 
L 54.562177 86.017036 
L 54.616067 85.793749 
L 54.66589 85.065669 
L 54.936356 84.59566 
L 54.796039 84.112647 
L 54.863147 83.533942 
L 55.260597 82.748936 
L 55.317653 82.665635 
L 56.188028 81.74661 
L 56.604912 81.688433 
L 56.969941 81.891401 
L 57.12551 82.197762 
L 57.379708 82.281779 
L 57.522059 81.899158 
L 57.759989 81.869424 
L 58.800167 81.515186 
L 59.076735 81.547509 
L 59.180447 81.482862 
L 60.041671 80.666881 
L 60.145383 80.199934 
L 60.086409 79.620337 
L 60.25418 78.833531 
L 60.586671 72.832812 
L 60.032519 69.751391 
L 60.097594 69.437082 
L 61.214032 66.168464 
L 60.87544 66.151559 
L 60.810366 66.03972 
L 60.652763 63.191525 
L 58.313124 59.649738 
L 57.461052 58.304307 
L 56.801153 56.716892 
L 53.144768 51.249015 
L 50.970866 48.865239 
L 50.304867 48.649392 
L 48.887459 48.637619 
L 48.741041 48.440072 
L 48.380079 47.654995 
L 48.16757 47.378862 
L 47.84423 46.45868 
L 47.633754 41.564668 
L 47.343968 38.362621 
L 45.962147 32.160995 
L 46.00892 31.587686 
L 46.218379 30.944573 
L 48.026236 27.469201 
L 48.500061 25.713777 
L 48.546833 24.250053 
L 48.886442 24.144631 
L 56.5012 24.297491 
L 56.657786 24.417403 
L 57.075687 24.347565 
L 57.224139 24.301445 
L 57.546462 24.688836 
L 57.666444 24.459569 
L 57.986733 24.592651 
L 58.22873 24.427944 
L 58.858124 24.169669 
L 59.118423 23.560806 
L 59.237388 23.461955 
L 59.161128 23.182522 
L 59.342117 23.045434 
L 59.836278 22.93075 
L 60.01015 22.756741 
L 60.447371 22.147645 
L 61.693958 22.494394 
L 61.863762 22.756741 
L 61.770217 23.041479 
L 61.858678 23.282698 
L 62.042718 23.406597 
L 62.374192 23.323559 
L 63.49368 24.065563 
L 63.863793 24.493828 
L 64.007161 25.720363 
L 64.120024 25.82047 
L 64.643673 25.758562 
L 64.897871 25.913988 
L 65.709271 25.704556 
L 65.875008 25.558341 
L 67.10126 25.626839 
L 67.277165 26.019358 
L 67.694049 26.199797 
L 68.792185 25.913988 
L 68.940637 25.732218 
L 69.504957 25.373918 
L 70.223829 24.189436 
L 70.484128 24.178894 
L 70.678335 24.197342 
L 71.067766 24.434533 
L 72.070324 24.279043 
L 72.31232 24.078742 
L 72.430268 24.471428 
L 73.04136 25.267212 
L 73.38707 25.479304 
L 74.651959 25.780954 
L 75.177641 25.613667 
L 75.346428 25.558341 
L 75.460309 25.626839 
L 75.715524 25.913988 
L 76.427279 26.089164 
L 76.76282 25.913988 
L 77.068875 25.384457 
L 77.274267 25.329129 
L 77.84367 25.036663 
L 78.366302 24.985282 
L 80.030791 23.679424 
L 80.092815 23.352557 
L 79.994186 23.025661 
L 80.046043 22.739604 
L 80.360231 21.818005 
L 80.604262 20.943661 
L 81.385158 20.445074 
L 81.873218 20.384395 
L 81.965746 20.259076 
L 82.984572 20.087581 
L 83.163528 20.270949 
L 83.473649 20.492561 
L 84.356225 20.408139 
L 84.709052 20.720756 
L 85.252019 21.450093 
L 85.600779 21.678229 
L 86.380659 21.928767 
L 86.674512 22.147645 
L 86.919559 21.759986 
L 87.888562 20.91992 
L 88.267825 20.390991 
L 88.984664 20.160138 
L 89.30597 20.230055 
L 89.485942 20.108689 
L 90.007557 19.52555 
L 90.385804 19.3052 
L 90.649153 19.010941 
L 90.981644 18.913289 
L 92.608512 18.828832 
L 92.911516 18.653312 
L 93.143344 18.7127 
L 93.751386 19.090116 
L 94.259782 18.999064 
L 94.489577 18.838069 
L 96.742789 16.678497 
L 97.501316 16.605875 
L 99.400684 16.007675 
L 100.385956 15.137283 
L 101.587805 14.455626 
L 103.392611 12.635979 
L 104.346362 11.538767 
L 104.983891 11.253179 
L 105.64989 10.524572 
L 105.805663 10.15394 
L 106.125913 10.125822 
L 106.185159 10.254954 
L 106.081078 10.423653 
L 106.266823 10.477802 
L 106.530228 10.19143 
L 106.692755 10.328891 
L 106.742393 10.597551 
L 106.491798 11.325343 
L 107.027415 11.559583 
L 107.09707 11.753211 
L 107.192344 12.393366 
L 107.333254 12.496406 
L 107.870472 12.655644 
L 107.951335 12.867951 
L 107.808024 12.924148 
L 107.43093 12.877317 
L 107.113883 12.992833 
L 106.282835 13.829438 
L 106.350088 14.274723 
L 106.426947 14.206061 
L 106.551845 13.925158 
L 106.741593 14.132195 
L 107.43093 14.575366 
L 107.61027 14.836459 
L 107.426126 15.079853 
L 106.707966 15.616515 
L 106.388517 16.303875 
L 106.491798 16.776949 
L 106.490997 17.344562 
L 106.603085 17.309218 
L 106.825658 16.908984 
L 107.077054 17.047251 
L 107.073852 17.41109 
L 106.78963 18.08462 
L 106.41734 18.652039 
L 106.369302 19.48431 
L 105.640735 20.264462 
L 105.415759 20.837787 
L 105.054678 20.893868 
L 104.939388 20.917754 
L 105.201993 21.448406 
L 105.27565 21.186724 
L 105.579087 21.484749 
L 105.805663 21.876195 
L 106.090685 21.786903 
L 106.145128 22.189738 
L 105.831283 23.682334 
L 105.67276 24.056946 
L 105.954579 24.734469 
L 105.714392 25.164989 
L 105.852099 25.500033 
L 105.924956 26.163807 
L 106.151533 26.535051 
L 106.22519 27.373841 
L 106.350088 27.572882 
L 106.434954 27.511719 
L 106.625502 27.572882 
L 106.358094 27.918068 
L 106.290841 28.288094 
L 106.490997 29.043575 
L 106.78963 29.699438 
L 106.579066 30.031986 
L 106.45577 31.459198 
L 106.692755 32.014182 
L 106.59748 32.486263 
L 106.350088 32.805088 
L 105.970592 32.709858 
L 105.946573 32.97691 
L 106.189162 32.906526 
L 106.405331 33.111464 
L 106.625502 33.767595 
L 106.52062 34.460846 
L 106.742393 34.593272 
L 107.027415 34.547751 
L 106.860886 34.861212 
L 106.57106 35.050516 
L 106.490997 35.320489 
L 106.21238 35.995843 
L 106.454169 36.254365 
L 107.037023 36.363973 
L 107.064244 37.418504 
L 107.535011 37.982851 
L 107.437335 38.001454 
L 107.16192 37.758571 
L 107.102674 38.043828 
L 107.27721 38.607036 
L 107.498182 38.546069 
L 107.871273 39.364374 
L 107.675921 39.711472 
L 107.464556 39.770351 
L 107.253191 39.699076 
L 107.094668 39.506936 
L 107.086661 39.609206 
L 107.16192 39.854019 
L 107.017808 39.968673 
L 106.692755 40.032711 
L 106.924135 40.634822 
L 106.640714 41.191391 
L 106.41734 40.814504 
L 106.270025 40.823798 
L 105.786448 41.192424 
L 105.550264 41.595077 
L 105.617517 41.972906 
L 106.26362 42.607683 
L 106.41734 42.539567 
L 106.548642 42.31663 
L 106.428549 41.67044 
L 106.742393 41.715863 
L 106.998593 41.852129 
L 107.304431 41.796385 
L 107.363677 42.021422 
L 107.308434 42.432229 
L 107.027415 43.585924 
L 107.16192 44.460722 
L 107.039425 45.662146 
L 106.692755 46.110629 
L 106.718375 46.262171 
L 106.848076 46.199287 
L 107.094668 45.939491 
L 107.094668 46.976485 
L 107.140303 46.953811 
L 107.296425 46.898156 
L 107.257995 47.186728 
L 106.886506 47.801918 
L 106.808044 48.60859 
L 106.692755 48.799153 
L 107.375687 49.572613 
L 106.814449 50.391178 
L 106.846474 50.675308 
L 107.164322 51.632507 
L 107.471762 53.749625 
L 107.767192 54.261706 
L 107.860064 55.728571 
L 107.747977 55.880664 
L 107.363677 56.065631 
L 107.57264 56.269082 
L 107.602263 56.593753 
L 107.378089 56.795113 
L 107.094668 56.848532 
L 106.806443 57.064256 
L 106.960163 57.892076 
L 107.094668 57.837649 
L 107.293222 57.590144 
L 107.330051 57.824298 
L 107.314039 57.951637 
L 107.43093 58.062541 
L 107.222768 58.23505 
L 107.326849 58.311033 
L 107.530207 58.247372 
L 107.632687 58.148797 
L 107.630285 57.781166 
L 107.874475 57.544954 
L 108.358052 57.292289 
L 108.598239 57.572684 
L 108.652682 57.762681 
L 108.683105 58.287417 
L 108.848034 58.407548 
L 108.691912 58.826431 
L 108.579024 59.333526 
L 108.242762 59.620909 
L 108.106656 59.569593 
L 107.767192 59.278099 
L 107.967348 60.655252 
L 107.702341 60.664485 
L 107.711949 60.806062 
L 107.834444 60.919934 
L 107.651902 61.248189 
L 107.767192 61.350761 
L 107.699939 62.132238 
L 108.053015 61.596919 
L 108.399685 60.439794 
L 109.115442 60.05193 
L 109.392458 60.170963 
L 109.657465 60.467497 
L 109.796773 60.848124 
L 109.565393 61.328196 
L 109.115442 61.483073 
L 108.994548 61.736398 
L 109.249947 61.789727 
L 109.536571 61.512817 
L 109.710306 61.7846 
L 109.695094 61.999956 
L 109.508549 62.855067 
L 109.850415 63.879017 
L 109.760745 64.841129 
L 109.772755 65.053179 
L 109.727119 65.104397 
L 109.182695 65.446506 
L 109.133857 65.554047 
L 108.490155 66.27395 
L 108.139482 66.35279 
L 108.057018 66.275998 
L 107.834444 65.751706 
L 107.872874 65.989288 
L 107.938525 66.439819 
L 108.26518 66.642534 
L 108.848034 66.610797 
L 109.126651 67.36932 
L 109.121847 67.562756 
L 108.875255 67.396954 
L 108.652682 67.477809 
L 108.108258 67.297673 
L 108.020189 67.526935 
L 108.144286 67.888189 
L 108.511772 68.508248 
L 107.629484 68.824363 
L 107.43093 69.201811 
L 106.891309 69.061681 
L 106.702362 69.238633 
L 106.551845 69.87986 
L 107.077054 70.024038 
L 107.222768 70.145715 
L 107.307634 69.766352 
L 107.505388 69.619092 
L 107.759186 69.661021 
L 108.004977 69.841002 
L 108.21394 70.519914 
L 108.173108 70.87055 
L 107.967348 71.004454 
L 108.068226 71.351962 
L 107.655104 71.934448 
L 107.591055 72.345177 
L 107.279612 72.819175 
L 107.259596 73.115381 
L 107.142705 73.472828 
L 107.176331 73.603539 
L 107.296425 73.591285 
L 107.035422 74.071188 
L 106.665533 74.26925 
L 106.41734 74.189618 
L 106.386916 74.518338 
L 106.2372 74.738823 
L 105.696778 75.314446 
L 105.085102 76.565278 
L 103.126776 79.081452 
L 102.649604 79.492086 
L 102.587155 79.790595 
L 102.10598 80.116572 
L 102.216466 80.257137 
L 102.427831 80.112498 
L 102.777704 79.681587 
L 102.833747 79.968869 
L 102.423027 81.132948 
L 102.10598 81.491332 
L 101.432656 82.920295 
L 101.092391 83.121751 
L 100.280558 83.20009 
L 99.376654 83.91419 
L 99.368647 84.075902 
L 99.552791 84.286417 
L 99.618442 85.001224 
L 99.905065 85.395653 
L 100.09081 85.51153 
L 99.479133 85.936366 
L 99.406277 85.594877 
L 99.114049 85.690417 
L 99.009968 85.680254 
L 99.061208 85.738186 
L 99.20532 85.936366 
L 98.841837 86.128433 
L 98.760173 86.378403 
L 98.70493 86.576532 
L 98.343849 86.9636 
L 95.174179 89.182221 
L 93.514486 90.517499 
L 93.120579 91.086494 
L 92.940438 90.976965 
L 92.939638 91.026659 
L 92.829952 91.39984 
L 92.464067 91.573227 
L 92.637002 91.649271 
L 92.873186 91.59452 
L 92.813139 92.059863 
L 92.560142 92.421734 
L 92.40322 92.515993 
L 91.379222 92.576804 
L 90.809978 93.044997 
L 90.444894 93.190908 
L 88.749172 93.297296 
L 88.353664 92.941637 
L 88.569833 93.297296 
L 88.391293 93.561725 
L 87.689947 93.798775 
L 87.73238 93.570843 
L 87.272822 94.139113 
L 87.012619 94.044917 
L 86.870909 93.926408 
L 86.754018 94.099612 
L 86.803656 94.309264 
L 83.89579 95.768208 
L 83.532307 96.201364 
L 83.365777 96.192256 
L 83.186438 95.906867 
L 83.172026 95.068716 
L 83.029515 94.825718 
L 83.096768 95.080865 
L 82.854979 95.126424 
L 82.626802 94.996831 
L 83.107176 95.81679 
L 82.895011 96.023254 
L 83.090363 96.186185 
L 82.862185 96.401722 
L 82.224088 96.702227 
L 80.935083 97.042146 
L 80.39226 97.394153 
L 79.021592 98.469062 
L 79.048013 98.307301 
L 78.802221 98.432667 
L 78.046432 99.138227 
L 77.705367 99.077586 
L 77.462778 99.409073 
L 75.935187 100.635564 
L 75.644561 100.809281 
L 75.543682 100.704245 
L 75.279476 101.090028 
L 74.777485 101.208174 
L 74.628569 101.577719 
L 74.083344 101.883608 
L 73.857568 101.804868 
L 73.814335 102.263136 
L 73.534116 102.692048 
L 72.843978 103.421516 
L 72.126619 104.864622 
L 71.836794 105.197283 
L 71.83279 105.101522 
L 71.769541 104.859582 
L 71.702289 104.944264 
L 71.426874 104.573252 
L 71.157865 104.361506 
L 70.891257 103.569802 
L 70.607836 103.448753 
L 70.348434 103.527436 
L 70.218733 103.845165 
L 70.534979 103.593003 
L 70.749546 103.792718 
L 70.963313 104.605516 
L 71.083407 105.222482 
L 71.526152 105.405926 
L 71.769541 105.620597 
L 71.333201 106.51534 
L 70.994537 107.010921 
L 70.885652 107.384547 
L 70.285985 107.241549 
L 70.036191 107.536599 
L 69.882471 107.917184 
L 70.067415 107.833622 
L 70.493347 107.495314 
L 70.377256 107.755091 
L 69.294012 109.164197 
L 67.910534 110.968541 
L 67.586281 111.056005 
L 67.451777 111.731467 
L 67.388527 111.676192 
L 67.183568 111.562622 
L 67.25082 111.891256 
L 67.124321 111.876182 
L 66.808075 111.925423 
L 66.823287 112.3173 
L 66.64715 112.574494 
L 66.10913 113.837912 
L 66.126744 113.675256 
L 66.053887 113.530663 
L 65.936196 113.681281 
L 65.899367 114.24751 
L 66.10913 114.183264 
L 66.120339 114.22141 
L 66.12194 114.340863 
L 66.25004 114.622905 
L 66.000246 114.817603 
L 65.686401 114.982178 
L 65.061914 114.687137 
L 64.833737 114.419156 
L 64.498275 113.625051 
L 64.485465 114.00658 
L 64.754475 115.304269 
L 64.704036 115.737659 
L 64.820126 115.996447 
L 64.695229 116.032554 
L 64.559123 115.95733 
L 63.599175 116.169957 
L 63.45266 115.995444 
L 63.373399 114.940032 
L 63.279726 114.958095 
L 63.223682 115.004255 
L 62.927451 115.397575 
L 62.249323 116.42067 
L 61.926671 116.470809 
L 61.947488 116.086714 
L 61.849811 116.077688 
L 61.672874 116.388581 
L 61.456705 116.966118 
L 61.24534 117.024264 
L 60.817007 116.735523 
L 60.673695 116.891929 
L 60.682502 117.133534 
L 60.91148 117.058349 
L 60.851433 117.253825 
L 59.34546 118.533492 
L 59.093263 118.908125 
L 58.969167 118.871066 
L 58.833061 119.033322 
L 58.622497 119.496984 
L 58.749796 119.435903 
L 58.891506 119.412872 
L 58.891506 119.496984 
L 58.358291 119.928508 
L 57.877916 120.505067 
L 58.079674 120.505067 
L 57.997209 120.674201 
L 57.373523 121.358601 
L 57.251028 121.496654 
L 57.169364 121.732723 
L 56.662569 122.533755 
L 55.660989 123.799167 
L 54.506489 124.897018 
L 53.564956 126.061147 
L 52.977298 126.318642 
L 52.143048 127.242558 
L 52.053378 127.114872 
L 51.94129 127.206647 
L 51.673882 127.584678 
L 51.137464 128.002523 
L 50.743557 127.770176 
L 50.421706 126.92632 
L 50.005382 126.488292 
L 49.423328 126.190897 
L 48.392925 124.56343 
L 48.073476 124.477527 
L 47.922159 124.555439 
L 47.697984 125.063791 
L 47.851704 125.051808 
L 48.205579 124.806135 
L 48.517823 124.914994 
L 48.610695 125.058798 
L 48.764415 125.625925 
L 49.446546 126.614022 
L 49.7716 126.793624 
L 50.083843 127.734274 
L 49.932525 128.072321 
L 49.711553 128.290675 
L 49.456954 128.253786 
L 49.574646 128.464144 
L 49.792416 128.329557 
L 50.003781 128.491061 
L 49.932525 129.03828 
L 49.975759 129.758704 
L 49.865273 130.108359 
L 49.926921 130.305572 
L 49.956544 130.78458 
L 50.122273 131.328177 
L 50.103058 131.537212 
L 49.922117 131.88257 
L 49.121493 131.727316 
L 49.010206 131.720349 
L 48.926141 131.529249 
L 49.078259 131.98308 
L 49.792416 132.522364 
L 49.572244 132.942146 
L 49.422528 133.479176 
L 49.16873 133.918634 
L 49.40011 134.108504 
L 49.201555 134.369918 
L 48.942153 134.397748 
L 48.778826 134.274501 
L 48.935748 134.793275 
L 49.145512 135.019822 
L 49.486578 135.206603 
L 49.538618 135.588058 
L 49.490581 135.752935 
L 49.054241 136.289181 
L 49.60507 136.021077 
L 49.75879 136.084631 
L 49.854865 136.521508 
L 50.005382 136.380527 
L 50.216747 136.749836 
L 50.56742 137.004935 
L 50.789993 137.504116 
L 50.859647 137.871223 
L 51.140666 137.631123 
L 51.270368 137.72042 
L 51.26076 137.91289 
L 51.018972 138.158906 
L 51.062205 138.386045 
L 51.118249 138.281902 
L 51.411277 138.136091 
L 51.930882 138.278926 
L 52.291163 138.713316 
L 52.283957 139.210064 
L 52.391241 139.135709 
L 52.533752 139.224934 
L 52.520942 139.461858 
L 52.35121 139.755245 
L 52.412057 139.967327 
L 52.828382 140.466716 
L 52.682668 140.946163 
L 52.687472 141.13038 
L 53.102195 140.830275 
L 53.39122 141.106611 
L 53.379211 141.383897 
L 53.37761 141.44331 
L 53.499304 141.471035 
L 53.297547 141.975962 
L 53.081379 141.881917 
L 52.961285 142.096728 
L 53.058961 142.205609 
L 53.17265 142.291719 
L 53.092587 142.914167 
L 52.790752 143.054659 
L 52.562574 142.912188 
L 52.47931 143.230753 
L 52.776341 143.47607 
L 52.887628 143.55322 
L 53.081379 144.393741 
L 53.188662 144.642857 
L 52.823578 145.000655 
L 52.930061 145.033269 
L 53.054158 145.275381 
L 53.028538 145.792109 
L 53.273528 145.490784 
L 53.566557 144.051646 
L 53.580968 144.263238 
L 53.417641 145.399883 
L 53.499304 146.462748 
L 53.809146 147.392739 
L 54.983661 149.698866 
L 55.050913 151.787401 
L 55.385574 152.730377 
L 55.620958 155.080697 
L 55.324727 158.693408 
L 55.52168 159.128778 
L 55.862746 159.31113 
L 56.194204 159.88747 
L 56.259055 159.760064 
L 56.303089 159.054263 
L 56.528065 158.89934 
L 56.298285 158.46195 
L 56.165382 157.873357 
L 56.16298 157.2826 
L 56.399164 156.497228 
L 56.605725 156.935117 
L 56.735426 156.742695 
L 56.448803 156.022887 
L 56.660167 155.520908 
L 56.741831 155.403005 
L 56.869931 155.302781 
L 57.014043 155.109196 
L 57.205392 155.171106 
L 57.24142 155.426586 
L 57.205392 155.713465 
L 57.40715 157.747765 
L 57.484009 157.541695 
L 57.742611 156.167266 
L 57.608907 157.900829 
L 57.65214 158.950329 
L 57.16456 160.81626 
L 57.132536 162.322014 
L 57.440776 164.936748 
L 57.608907 165.408607 
L 57.742611 165.080371 
L 58.074069 165.171229 
L 58.154132 165.10675 
L 58.079674 164.916229 
L 58.28063 165.021751 
L 58.22939 165.368558 
L 56.998831 168.407579 
L 57.06128 169.848027 
L 56.489635 171.801995 
L 56.158176 174.995086 
L 56.066905 174.525999 
L 56.071709 174.155877 
L 55.665793 174.138388 
L 55.805101 174.322005 
L 55.862746 174.346292 
L 55.908382 174.979549 
L 55.795494 175.694088 
L 55.761867 176.354945 
L 55.667394 176.712914 
L 55.70102 177.221111 
L 55.587331 177.576945 
L 55.673799 177.566281 
L 56.131756 176.959275 
L 55.95722 176.328748 
L 56.057298 176.145364 
L 56.20141 176.115283 
L 56.902756 176.571288 
L 56.966006 176.464575 
L 56.998831 175.405787 
L 57.505626 175.65138 
L 57.661748 176.369498 
L 57.092504 178.829963 
L 57.172567 179.315201 
L 56.998831 179.524359 
L 56.8307 179.982278 
L 55.311917 182.467973 
L 54.170227 183.930431 
L 54.094969 184.306927 
L 53.3648 185.104019 
L 48.863692 187.648815 
L 47.203198 188.115857 
L 44.566744 189.304471 
L 44.019117 189.400674 
L 39.815041 191.10435 
L 38.398738 191.924722 
L 37.213014 192.37986 
L 35.368376 193.366466 
L 35.368376 193.285874 
L 35.829536 192.946184 
L 35.9128 192.796465 
L 35.781498 192.842534 
L 34.752696 193.372223 
L 34.819949 193.616851 
L 34.877594 193.575603 
L 35.021706 193.519964 
L 34.877594 193.780873 
L 31.389276 196.276326 
L 30.598259 197.407633 
L 30.374084 197.897399 
L 30.057037 198.903188 
L 30.082657 199.590197 
L 30.031417 199.333204 
L 29.901716 199.429701 
L 29.696757 199.693363 
L 29.562252 200.295015 
L 28.505428 201.279071 
L 27.885745 201.046243 
L 27.576705 201.227547 
L 27.49424 201.451759 
L 27.637552 201.798025 
L 27.732026 201.686428 
L 27.808886 201.263805 
L 28.185979 201.38593 
L 28.449385 201.807563 
L 28.762429 201.989723 
L 29.262819 203.085044 
L 29.501404 203.836687 
L 29.671137 203.664292 
L 30.16272 203.875734 
L 30.520599 204.275672 
L 30.788808 204.776384 
L 31.091443 205.012399 
L 31.454927 204.882025 
L 31.350846 204.202359 
L 31.687908 202.835359 
L 32.193102 202.557032 
L 32.199507 202.870623 
L 31.94731 204.747831 
L 31.70312 208.879941 
L 31.589431 209.280325 
L 31.650279 209.758354 
L 31.589431 211.515366 
L 26.268405 211.68 
L 24.712713 211.447872 
L 23.923682 211.444263 
L 23.923682 211.444263 
" clip-path="url(#pd1b6983f3e)" style="fill: none; stroke: #000000; stroke-width: 0.5; stroke-linecap: square"/>
   </g>
  </g>
 </g>
 <defs>
  <clipPath id="pd1b6983f3e">
   <rect x="0" y="-0" width="115.081387" height="221.76"/>
  </clipPath>
 </defs>
</svg>
