<?xml version="1.0" encoding="utf-8" standalone="no"?>
<!DOCTYPE svg PUBLIC "-//W3C//DTD SVG 1.1//EN"
  "http://www.w3.org/Graphics/SVG/1.1/DTD/svg11.dtd">
<svg xmlns:xlink="http://www.w3.org/1999/xlink" width="205.365182pt" height="221.76pt" viewBox="0 0 205.365182 221.76" xmlns="http://www.w3.org/2000/svg" version="1.1">
 <metadata>
  <rdf:RDF xmlns:dc="http://purl.org/dc/elements/1.1/" xmlns:cc="http://creativecommons.org/ns#" xmlns:rdf="http://www.w3.org/1999/02/22-rdf-syntax-ns#">
   <cc:Work>
    <dc:type rdf:resource="http://purl.org/dc/dcmitype/StillImage"/>
    <dc:date>2026-04-26T19:21:52.483466</dc:date>
    <dc:format>image/svg+xml</dc:format>
    <dc:creator>
     <cc:Agent>
      <dc:title>Matplotlib v3.10.9, https://matplotlib.org/</dc:title>
     </cc:Agent>
    </dc:creator>
   </cc:Work>
  </rdf:RDF>
 </metadata>
 <defs>
  <style type="text/css">*{stroke-linejoin: round; stroke-linecap: butt}</style>
 </defs>
 <g id="figure_1">
  <g id="patch_1">
   <path d="M 0 221.76 
L 205.365182 221.76 
L 205.365182 0 
L 0 0 
z
" style="fill: #ffffff"/>
  </g>
  <g id="axes_1">
   <g id="patch_2">
    <path d="M 75.087618 205.486107 
L 74.831818 205.682107 
L 74.693821 205.929034 
L 74.5188 206.089714 
L 74.155296 206.033543 
L 73.995982 205.929034 
L 73.154536 205.215592 
L 72.728203 204.705809 
L 72.52289 204.386792 
L 71.038579 202.848409 
L 70.796243 202.74109 
L 70.688538 202.639 
L 69.857189 201.473702 
L 68.974232 200.407232 
L 67.147733 199.025359 
L 66.777497 198.643645 
L 66.072926 197.70278 
L 65.084507 196.880918 
L 64.896023 196.658976 
L 64.468569 195.945686 
L 64.019798 195.452914 
L 63.94575 195.338572 
L 63.933409 195.151928 
L 64.024285 194.821968 
L 64.041114 194.668141 
L 63.864972 194.16055 
L 63.492491 193.622556 
L 62.117008 192.186678 
L 61.941987 191.900945 
L 61.874671 191.512433 
L 61.880281 190.671908 
L 61.849989 190.541446 
L 61.764722 190.339806 
L 60.446457 188.11632 
L 60.224315 187.597643 
L 60.057148 187.34023 
L 59.830518 187.231974 
L 59.711594 187.086742 
L 59.3077 186.234922 
L 58.744492 185.464642 
L 58.656982 185.291516 
L 58.470742 184.006437 
L 58.39445 183.847723 
L 58.302452 183.730002 
L 58.221673 183.600367 
L 58.188016 183.395315 
L 58.282258 182.729729 
L 58.090408 181.678596 
L 58.188016 181.441546 
L 57.912021 180.841501 
L 57.831243 180.527494 
L 57.802072 180.160423 
L 57.815536 179.4844 
L 57.737001 179.160883 
L 57.519347 178.874444 
L 57.422861 178.834657 
L 57.171549 178.813437 
L 57.048137 178.763039 
L 57.02121 178.691418 
L 56.925847 178.518987 
L 56.824873 178.370418 
L 56.77663 178.370418 
L 56.736241 178.012212 
L 56.639755 177.70702 
L 56.197715 176.724763 
L 56.125912 176.448577 
L 56.18874 176.005002 
L 56.044011 175.683544 
L 55.848796 175.35406 
L 55.730993 175.077674 
L 55.700701 174.700237 
L 55.737725 174.373241 
L 55.852161 174.141917 
L 56.056352 174.054166 
L 56.198837 174.016938 
L 56.339078 173.958434 
L 56.442296 173.965082 
L 56.484929 174.120645 
L 56.484929 174.745427 
L 56.579171 174.745427 
L 56.633023 174.421097 
L 56.90453 173.567475 
L 56.912383 173.394577 
L 56.823751 173.179097 
L 56.543269 172.181189 
L 56.361517 171.193415 
L 56.042889 170.587453 
L 55.586265 170.082562 
L 55.064568 169.698809 
L 54.245561 169.336307 
L 54.122148 169.189687 
L 54.018931 167.908293 
L 54.071662 166.66743 
L 53.794545 166.217589 
L 53.747424 166.106782 
L 53.802399 165.913187 
L 53.8843 165.907846 
L 53.992005 165.950572 
L 54.122148 165.883812 
L 54.308388 165.360336 
L 54.297169 164.656361 
L 54.149075 163.950797 
L 53.933665 163.406752 
L 53.31436 162.299486 
L 53.236947 161.760338 
L 53.464699 161.151448 
L 53.361481 161.151448 
L 52.654667 160.243788 
L 52.419062 159.804535 
L 52.385404 159.608983 
L 52.385404 159.471014 
L 52.419062 159.241937 
L 52.419062 157.939317 
L 52.47628 157.601463 
L 52.890271 156.748531 
L 52.928417 156.474872 
L 52.926173 156.099202 
L 52.867833 155.766408 
L 52.56379 155.44027 
L 52.477402 155.021447 
L 52.419062 154.270841 
L 52.077996 153.266018 
L 52.001704 152.491914 
L 51.862585 151.877528 
L 51.846878 151.545388 
L 52.274333 150.311829 
L 52.233944 150.118051 
L 52.513304 148.937498 
L 52.56379 148.261439 
L 52.425793 147.629623 
L 52.235065 147.19977 
L 51.950096 146.554151 
L 51.776197 145.905635 
L 51.732442 144.578313 
L 51.564152 143.939982 
L 50.774315 142.283198 
L 50.443346 141.776587 
L 49.763458 141.042798 
L 49.569364 140.545354 
L 49.098155 139.939612 
L 49.015132 139.520359 
L 49.066741 139.343166 
L 49.261956 139.095612 
L 49.305711 138.998206 
L 49.305711 138.31624 
L 49.241761 137.999539 
L 48.935475 137.378182 
L 48.632555 136.534528 
L 47.88535 134.932978 
L 47.599259 133.780539 
L 47.329996 133.227151 
L 47.235754 132.461941 
L 47.131415 132.213598 
L 47.199852 131.878357 
L 47.19873 131.319055 
L 47.137024 130.747389 
L 47.030441 130.380683 
L 47.131415 130.148405 
L 47.222291 129.691926 
L 47.319899 129.469087 
L 47.406287 129.422886 
L 47.531943 129.398426 
L 47.64638 129.337275 
L 47.696867 129.178275 
L 47.88535 128.774608 
L 47.776523 128.570708 
L 47.791108 127.632525 
L 47.548772 126.832717 
L 47.508383 126.538837 
L 47.696867 124.129199 
L 47.628429 123.528428 
L 47.473603 123.067865 
L 46.962004 121.549246 
L 46.788105 120.792282 
L 46.798202 120.629945 
L 46.909273 120.48124 
L 47.24473 119.800346 
L 47.414141 119.612006 
L 47.410775 119.964107 
L 47.478091 120.116939 
L 47.561113 120.029608 
L 47.602625 119.662505 
L 47.58243 119.01413 
L 47.327752 117.061071 
L 47.179658 116.466629 
L 46.942931 116.027873 
L 46.746593 115.557587 
L 46.599621 115.014725 
L 46.505379 114.430699 
L 46.454892 113.330633 
L 46.471721 113.169137 
L 46.535671 113.00763 
L 46.715179 112.687319 
L 46.754447 112.527148 
L 46.754447 111.832943 
L 46.798202 111.800076 
L 46.878981 111.800076 
L 46.91937 111.861701 
L 46.840835 112.009594 
L 46.903663 112.115031 
L 46.977711 112.2766 
L 47.030441 112.345059 
L 46.948541 112.684581 
L 46.926102 113.028161 
L 47.027075 113.204722 
L 47.319899 113.044586 
L 47.299704 113.234832 
L 47.131415 113.742535 
L 47.338971 113.522225 
L 47.649746 112.843374 
L 47.838229 112.69964 
L 47.996421 112.533993 
L 48.097395 112.142417 
L 48.166954 111.368655 
L 48.072712 108.426034 
L 47.811303 106.21014 
L 47.488188 105.608817 
L 47.338971 104.857637 
L 46.840835 103.692636 
L 46.572695 102.694791 
L 46.128411 101.625018 
L 46.044267 101.490231 
L 45.145602 100.337362 
L 44.857267 99.781368 
L 44.846047 99.373925 
L 44.816877 99.22387 
L 42.691946 96.040258 
L 41.655284 94.931709 
L 41.547579 94.655873 
L 40.409944 93.436311 
L 40.142925 93.287274 
L 40.140681 93.107865 
L 40.199021 92.931204 
L 40.234923 92.853911 
L 40.32019 92.425994 
L 40.329165 92.316933 
L 40.28541 92.101557 
L 40.224826 91.945536 
L 39.117483 90.033837 
L 38.908804 88.943351 
L 38.480228 87.727921 
L 37.06772 85.581869 
L 36.207201 83.916086 
L 35.673164 83.154146 
L 35.323122 82.652528 
L 34.091245 80.09304 
L 33.520184 79.191211 
L 33.344041 78.561134 
L 33.146582 78.322387 
L 32.77298 77.978108 
L 32.495863 77.388009 
L 32.352257 76.82139 
L 32.207528 75.412646 
L 31.831682 73.890527 
L 30.635707 71.166614 
L 30.309226 69.661573 
L 30.234057 68.934508 
L 29.951331 67.542513 
L 29.464414 66.100998 
L 29.145786 65.501305 
L 28.591472 65.301511 
L 27.991153 64.815637 
L 27.52883 63.876635 
L 27.08817 61.749558 
L 26.017851 59.332242 
L 25.889951 58.83175 
L 25.304305 57.911618 
L 24.291204 55.723352 
L 24.173401 55.327212 
L 24.023063 55.073822 
L 23.671899 54.211286 
L 23.557463 54.025023 
L 22.941524 52.730646 
L 22.755284 52.182741 
L 22.685725 51.851985 
L 22.598214 51.064186 
L 22.441144 50.691238 
L 21.999105 50.005505 
L 21.716379 49.400972 
L 21.049954 47.413963 
L 20.764984 46.8819 
L 20.347627 46.296379 
L 19.849491 45.838552 
L 19.712615 45.608207 
L 19.551058 44.363471 
L 19.432133 44.00091 
L 17.182668 40.426331 
L 15.63661 39.220166 
L 14.96125 38.300936 
L 14.877106 38.209411 
L 14.634769 37.802447 
L 14.491162 37.710908 
L 14.358775 37.601057 
L 13.66736 37.099031 
L 13.447769 36.190953 
L 13.399526 35.872497 
L 13.22114 35.335557 
L 13.203189 35.134003 
L 13.207677 34.959219 
L 13.194213 34.790064 
L 13.22114 34.61526 
L 12.898024 34.058358 
L 12.363987 32.365887 
L 12.27872 32.24879 
L 11.147126 30.823894 
L 10.934242 30.040899 
L 10.836146 29.020205 
L 10.587641 28.19267 
L 10.427889 27.577185 
L 10.250399 25.902254 
L 9.932 24.630043 
L 9.719841 22.848667 
L 9.561004 21.957786 
L 9.460437 21.386318 
L 9.334781 20.454653 
L 9.390877 19.089237 
L 9.85199 15.585261 
L 10.00345 15.341318 
L 10.004277 15.342211 
L 10.188108 15.379924 
L 10.427483 15.534829 
L 10.575667 15.570852 
L 10.779421 15.545636 
L 10.849238 15.469986 
L 10.87916 15.354707 
L 10.960376 15.214205 
L 11.213999 15.005242 
L 11.779664 14.67736 
L 12.429395 14.082765 
L 12.993635 13.758396 
L 13.626268 13.53312 
L 14.2646 13.428588 
L 14.36149 13.39975 
L 14.442706 13.361901 
L 14.541021 13.370913 
L 14.683506 13.482657 
L 15.156555 13.655672 
L 15.313289 13.614221 
L 15.387381 13.534923 
L 15.454349 13.486261 
L 15.58116 13.536725 
L 15.669501 13.634046 
L 15.702272 13.752989 
L 15.72507 13.886345 
L 15.779214 14.0233 
L 15.856156 14.118804 
L 15.991517 14.235928 
L 16.146825 14.338634 
L 16.29216 14.381877 
L 16.423246 14.455751 
L 16.488789 14.619707 
L 16.52726 14.783655 
L 16.572855 14.855717 
L 17.565974 14.738615 
L 18.459355 14.77825 
L 18.658833 14.679161 
L 18.846913 14.493587 
L 18.989398 14.482777 
L 19.317113 14.718797 
L 19.576436 14.825091 
L 20.38575 14.907961 
L 20.873048 15.043072 
L 21.04688 15.025058 
L 21.381719 14.816083 
L 21.998678 14.163852 
L 22.336368 14.0233 
L 22.684031 13.962031 
L 22.943353 13.799845 
L 23.427802 13.298818 
L 24.040487 12.941926 
L 24.509262 12.763465 
L 24.600452 12.615642 
L 24.713015 12.361443 
L 24.839827 12.226223 
L 24.945265 12.170331 
L 25.190339 12.078376 
L 25.310027 11.977404 
L 25.367021 11.82053 
L 25.391243 11.623977 
L 25.458211 11.454463 
L 25.787351 11.344454 
L 26.055222 11.18214 
L 26.485527 11.063105 
L 27.210775 10.54904 
L 28.692617 10.233347 
L 29.006084 10.103454 
L 29.306727 10.08 
L 29.5632 10.309116 
L 29.74558 10.19005 
L 29.846745 10.289272 
L 29.937935 10.458845 
L 30.086119 10.54904 
L 30.395311 10.608567 
L 30.559169 10.613979 
L 30.701654 10.54904 
L 30.701654 10.678916 
L 31.053591 10.476884 
L 31.265894 10.413747 
L 31.359934 10.487708 
L 31.44685 10.496727 
L 31.783283 10.388154 
L 32.028188 10.309116 
L 32.280386 10.417355 
L 32.766259 10.825021 
L 33.012758 10.91701 
L 33.340473 10.965709 
L 33.628293 11.113605 
L 33.833471 11.353472 
L 34.014427 12.042315 
L 34.213906 12.276706 
L 34.333593 12.561559 
L 34.201082 13.060894 
L 35.375157 13.853908 
L 36.583429 15.061087 
L 37.910675 15.958077 
L 39.205863 16.836818 
L 39.378269 17.02046 
L 40.010902 18.050102 
L 40.211806 18.240874 
L 40.532397 18.31826 
L 40.703379 18.278667 
L 40.922805 18.107695 
L 41.046767 18.0681 
L 41.202076 18.089697 
L 41.454274 18.186883 
L 41.753492 18.231876 
L 41.977193 18.31826 
L 42.141051 18.31826 
L 42.292085 18.26427 
L 42.508662 18.109494 
L 42.602702 18.0681 
L 43.212537 18.190483 
L 43.517455 18.132891 
L 43.647116 17.787322 
L 43.65994 17.699124 
L 43.816673 17.700924 
L 43.820959 17.700924 
L 44.762772 17.700924 
L 48.299247 17.702724 
L 51.837146 17.704524 
L 55.375045 17.704524 
L 58.911519 17.706324 
L 62.294571 17.708046 
L 62.447993 17.708124 
L 65.984468 17.709924 
L 69.522367 17.709924 
L 73.057416 17.709924 
L 76.59389 17.711724 
L 80.130365 17.711724 
L 83.668264 17.713524 
L 86.004963 17.714713 
L 87.206163 17.715324 
L 90.742637 17.715324 
L 94.279111 17.717124 
L 95.951894 17.717975 
L 97.815586 17.718924 
L 101.353485 17.720724 
L 102.090131 17.720724 
L 102.19842 17.731524 
L 102.218368 17.83772 
L 102.268238 17.999707 
L 102.358003 18.0681 
L 102.447768 18.156288 
L 102.674319 18.814923 
L 102.698542 18.994855 
L 102.738438 19.03084 
L 103.067578 19.149588 
L 103.540627 20.263091 
L 103.584798 20.455531 
L 103.768603 20.576026 
L 104.488152 21.298898 
L 104.532322 21.426552 
L 104.60214 21.733981 
L 104.676232 21.892179 
L 104.807318 22.050368 
L 105.062366 22.20136 
L 105.194877 22.312802 
L 105.985668 23.317403 
L 106.260663 23.759399 
L 106.450168 23.95702 
L 106.985911 24.111515 
L 108.215556 24.853346 
L 110.015139 25.253826 
L 111.180666 25.181995 
L 111.652291 24.957511 
L 111.948659 24.882081 
L 112.103968 24.887469 
L 112.514324 24.989838 
L 113.131283 24.93596 
L 113.349285 25.108366 
L 115.539278 25.89844 
L 117.904526 25.860737 
L 118.689618 25.647074 
L 119.004509 25.607572 
L 119.288054 25.695554 
L 119.412016 26.007958 
L 119.537403 26.133629 
L 119.823797 26.291608 
L 120.142963 26.413678 
L 120.360965 26.435219 
L 120.429358 26.343668 
L 120.590366 26.020525 
L 120.677282 25.948711 
L 122.855875 25.948711 
L 123.373095 26.304175 
L 123.856119 26.508817 
L 123.990055 26.532153 
L 124.793669 26.435219 
L 125.171254 26.4424 
L 125.350785 26.408293 
L 125.545989 26.304175 
L 125.648578 26.435219 
L 125.850907 26.223391 
L 126.180047 26.119267 
L 126.549083 26.14081 
L 126.873948 26.304175 
L 127.352697 25.819442 
L 127.500882 25.936143 
L 127.691811 25.92178 
L 128.152037 25.819442 
L 128.31162 25.889463 
L 128.850213 26.435219 
L 129.206425 26.327512 
L 129.549814 26.507022 
L 129.860431 26.840884 
L 130.128302 27.199837 
L 130.266513 27.334433 
L 130.740987 27.619759 
L 131.139945 27.976829 
L 131.313777 28.082686 
L 131.66144 27.971446 
L 132.204307 27.93915 
L 132.703004 27.996565 
L 132.922431 28.141892 
L 133.02502 28.287213 
L 133.252995 28.405617 
L 133.478122 28.45226 
L 133.580711 28.380501 
L 133.684725 28.226215 
L 133.9184 28.303359 
L 134.334456 28.558101 
L 134.632249 28.884571 
L 134.987036 28.848697 
L 135.395968 28.665732 
L 135.84907 28.558101 
L 136.039999 28.098833 
L 137.11725 27.745285 
L 137.313814 27.680769 
L 138.587629 27.264444 
L 138.812755 27.384681 
L 139.042155 27.316488 
L 139.277255 27.189069 
L 139.528029 27.135228 
L 139.727508 27.180096 
L 140.290323 27.135228 
L 140.512599 27.201632 
L 141.138108 27.619759 
L 141.923199 27.957092 
L 142.333556 28.201098 
L 142.558682 28.558101 
L 142.637048 28.590391 
L 142.894946 28.500696 
L 143.888066 28.271066 
L 147.347598 27.469024 
L 150.80713 26.668573 
L 154.268088 25.866123 
L 157.72762 25.06347 
L 160.543121 24.393539 
L 163.357197 23.719873 
L 166.171273 23.047863 
L 168.985349 22.377509 
L 170.138052 22.104295 
L 170.699442 21.971274 
L 171.182466 21.854428 
L 171.441788 21.847237 
L 171.852144 21.744767 
L 172.442032 21.59735 
L 173.034769 21.449925 
L 173.624656 21.302493 
L 174.213119 21.156853 
L 174.803006 21.009409 
L 175.392893 20.861957 
L 175.982781 20.716297 
L 176.574093 20.568832 
L 177.165405 20.42136 
L 177.755292 20.275681 
L 178.34518 20.128196 
L 178.933642 19.980704 
L 179.524954 19.835004 
L 180.114842 19.687499 
L 180.704729 19.539987 
L 181.294616 19.392469 
L 181.702123 19.29172 
L 181.954321 19.268332 
L 182.210794 19.315109 
L 182.940316 19.345693 
L 183.092775 19.451837 
L 183.203913 19.38887 
L 183.780977 19.190969 
L 184.024626 19.149588 
L 184.273975 19.205362 
L 184.856738 19.459033 
L 185.269944 19.55258 
L 185.530691 19.709085 
L 185.881204 19.784637 
L 185.992342 19.881773 
L 186.077833 20.002288 
L 186.19752 20.110209 
L 186.416947 20.209133 
L 186.538059 20.230716 
L 186.669145 20.219925 
L 186.81448 20.142585 
L 187.023932 19.912352 
L 187.174966 19.808022 
L 187.249059 19.689298 
L 187.344523 19.570569 
L 187.478459 19.5166 
L 188.098268 19.5166 
L 189.275193 19.743264 
L 189.347861 19.78104 
L 189.416253 19.861986 
L 189.510293 19.94293 
L 189.655628 19.980704 
L 190.098756 19.95732 
L 191.04628 20.189349 
L 191.413891 20.396182 
L 191.589147 20.705507 
L 191.869843 20.54905 
L 192.035236 20.692052 
L 192.050798 20.705507 
L 192.208957 20.980638 
L 192.428383 21.180228 
L 192.559469 21.189218 
L 192.817367 21.088526 
L 192.958427 21.061554 
L 193.008297 21.119094 
L 192.915681 21.415765 
L 192.915681 21.536223 
L 193.001172 21.669262 
L 193.07384 21.735779 
L 193.173579 21.760947 
L 193.334587 21.762745 
L 193.373058 21.82926 
L 193.623831 22.1007 
L 193.669426 22.131258 
L 193.784839 22.643511 
L 193.810486 22.724385 
L 193.937298 22.760329 
L 194.035612 22.85378 
L 194.104005 22.972388 
L 194.139626 23.090991 
L 194.260739 22.893317 
L 194.359053 22.886128 
L 194.562806 23.1449 
L 194.605552 23.243731 
L 194.589879 23.464742 
L 194.611251 23.56536 
L 194.671095 23.639024 
L 194.826403 23.73784 
L 194.900496 23.802517 
L 195.078602 24.089958 
L 195.181191 24.14385 
L 195.414866 24.158221 
L 195.604371 24.213909 
L 195.791026 24.350428 
L 195.943485 24.54442 
L 196.030401 24.763545 
L 195.125622 24.558789 
L 194.571356 24.549809 
L 194.115404 25.101183 
L 193.660877 25.331043 
L 193.234848 25.347205 
L 193.103761 24.989838 
L 192.720477 25.278967 
L 192.546646 25.313086 
L 192.428383 25.108366 
L 192.21893 25.221502 
L 192.106367 25.14967 
L 192.016602 24.998818 
L 191.871267 24.882081 
L 191.956758 24.634227 
L 191.805724 24.664761 
L 191.740181 24.749176 
L 191.693161 24.865917 
L 191.589147 24.989838 
L 191.499382 25.049103 
L 190.483465 25.449559 
L 190.217018 25.474698 
L 189.979068 25.548318 
L 189.655628 25.8751 
L 189.373508 25.948711 
L 189.288017 26.004367 
L 189.202526 26.250319 
L 189.085688 26.304175 
L 188.958877 26.329307 
L 188.83919 26.388546 
L 188.7366 26.462145 
L 188.662508 26.532153 
L 188.292048 27.104718 
L 187.817573 27.469024 
L 187.612395 27.69333 
L 186.915644 28.699815 
L 186.865774 28.73569 
L 186.821604 28.832553 
L 186.627825 29.110568 
L 186.583654 29.214594 
L 186.444019 29.255844 
L 185.809961 29.334756 
L 185.63328 29.386766 
L 185.16308 28.859459 
L 185.138858 28.590391 
L 185.07474 28.489933 
L 184.983549 28.439702 
L 184.88096 28.321299 
L 184.644435 27.770487 
L 184.474878 27.583871 
L 184.169961 27.512092 
L 183.698336 27.485175 
L 183.496007 27.576693 
L 183.270881 27.845848 
L 182.879048 28.676495 
L 182.749387 28.794885 
L 182.625425 28.764391 
L 182.38605 28.613711 
L 182.236441 28.558101 
L 181.947197 28.51146 
L 181.672201 28.558101 
L 181.186328 28.85049 
L 180.525198 29.822534 
L 180.063547 30.227761 
L 179.560575 30.338921 
L 179.448012 30.405256 
L 179.05048 30.869563 
L 178.942191 30.969944 
L 178.548933 31.174282 
L 178.382226 31.321254 
L 178.316683 31.410867 
L 178.265388 31.529153 
L 178.20412 31.473595 
L 178.138576 31.425205 
L 178.064484 31.403698 
L 177.984693 31.421621 
L 177.504519 31.830224 
L 177.461773 32.428694 
L 177.242347 32.679516 
L 176.836265 33.012718 
L 176.666708 33.197218 
L 176.418784 33.643197 
L 176.257776 33.838404 
L 176.041199 33.91899 
L 174.744587 35.605448 
L 174.539409 35.759367 
L 174.253014 35.820217 
L 173.926724 36.283708 
L 173.835534 36.373177 
L 173.774265 36.41791 
L 173.284117 36.620097 
L 173.040468 36.629043 
L 172.860937 36.450118 
L 172.752649 35.725363 
L 172.534647 34.982534 
L 172.41211 34.746223 
L 172.607314 34.382769 
L 172.479078 34.019273 
L 172.028826 33.433649 
L 172.145663 33.15602 
L 172.068721 32.991222 
L 171.924812 32.855078 
L 171.84787 32.665184 
L 171.790876 32.459152 
L 171.649816 32.383903 
L 171.463161 32.344485 
L 171.275081 32.251315 
L 171.200989 32.115139 
L 171.00151 31.821264 
L 170.796332 31.6098 
L 170.650997 31.781839 
L 170.532735 31.763919 
L 170.408773 31.710157 
L 170.333256 31.659979 
L 170.314733 31.570373 
L 170.34038 31.278238 
L 170.333256 31.174282 
L 170.24919 30.998624 
L 169.833134 30.407049 
L 169.674976 29.978535 
L 169.516818 29.716736 
L 169.478347 29.623487 
L 169.461248 29.503335 
L 169.478347 29.090839 
L 169.434176 29.033444 
L 169.333012 29.019095 
L 169.231848 28.983223 
L 169.187678 28.859459 
L 169.189102 28.626268 
L 169.170579 28.509666 
L 169.090788 28.43432 
L 168.912682 28.321299 
L 168.391187 28.294389 
L 167.437963 28.393059 
L 166.24964 28.516841 
L 164.619613 28.687258 
L 163.415616 28.96708 
L 162.252939 29.239703 
L 161.088838 29.510508 
L 159.926162 29.783084 
L 158.76206 30.053843 
L 157.599384 30.326371 
L 156.436707 30.598875 
L 155.274031 30.869563 
L 154.109929 31.142019 
L 152.945828 31.414452 
L 151.783152 31.685068 
L 150.6219 31.957453 
L 149.456374 32.228022 
L 148.293697 32.50036 
L 147.129596 32.772673 
L 145.968345 33.04317 
L 144.804243 33.313645 
L 144.569143 33.369169 
L 144.332618 33.424693 
L 144.098943 33.480216 
L 143.862418 33.533947 
L 143.601671 33.546484 
L 143.340924 33.560812 
L 142.692618 33.59305 
L 142.045736 33.625287 
L 141.396005 33.657524 
L 140.749124 33.689761 
L 139.971157 33.729161 
L 139.191765 33.76677 
L 138.415222 33.806169 
L 137.637255 33.843776 
L 137.213505 33.86508 
L 136.960452 33.877802 
L 136.960452 34.370236 
L 136.960452 35.077411 
L 136.960452 35.782634 
L 136.960452 36.489482 
L 136.960452 37.197956 
L 136.960452 37.906264 
L 136.960452 38.61083 
L 136.960452 39.31702 
L 136.960452 40.023044 
L 136.960452 40.728902 
L 136.960452 41.434594 
L 136.960452 42.140119 
L 136.960452 42.845477 
L 136.960452 43.548883 
L 136.960452 44.253906 
L 136.960452 44.958762 
L 136.960452 45.665233 
L 136.966151 47.82106 
L 136.967731 48.617651 
L 136.970426 49.975296 
L 136.97755 52.12793 
L 136.983249 54.280733 
L 136.987524 56.430134 
L 136.994648 58.577905 
L 137.000347 60.725808 
L 137.004622 62.870284 
L 137.010321 65.014871 
L 137.016021 67.156013 
L 137.019449 68.872186 
L 137.020295 69.295474 
L 137.025995 71.433243 
L 137.031694 73.571077 
L 137.037393 75.705432 
L 137.043093 77.839829 
L 137.048757 79.957529 
L 137.048792 79.970729 
L 137.050217 80.953635 
L 137.054492 81.936168 
L 137.057341 82.916569 
L 137.058766 83.896597 
L 137.061616 84.878011 
L 137.064466 85.85729 
L 137.067315 86.837951 
L 137.070165 87.818235 
L 137.07159 88.796383 
L 137.075864 89.775909 
L 137.078714 90.755053 
L 137.081564 91.733816 
L 137.084413 92.712196 
L 137.087263 93.68844 
L 137.090113 94.6643 
L 137.092963 95.641528 
L 137.094387 96.33831 
L 136.917706 96.959646 
L 136.12834 96.959646 
L 132.901058 96.959646 
L 129.673776 96.959646 
L 126.446494 96.959646 
L 123.219212 96.959646 
L 123.220636 98.41698 
L 123.223486 100.962167 
L 123.226336 103.50294 
L 123.227761 106.042773 
L 123.23061 108.579904 
L 123.232035 111.477888 
L 123.23631 114.368813 
L 123.239159 117.257873 
L 123.240021 119.003625 
L 123.240584 120.143302 
L 123.243434 123.026805 
L 123.246284 125.904892 
L 123.248669 128.310594 
L 123.249133 128.778408 
L 123.251983 131.649054 
L 123.253408 134.517662 
L 123.257682 137.379042 
L 123.260532 140.238333 
L 123.261957 143.095503 
L 123.266232 143.30299 
L 123.266232 144.232147 
L 123.266232 145.162607 
L 123.266232 146.092653 
L 123.267656 147.020574 
L 123.269081 147.949792 
L 123.269081 148.876884 
L 123.269081 149.803561 
L 123.269081 150.73153 
L 123.269081 151.659081 
L 123.269081 152.584506 
L 123.269081 153.509512 
L 123.270506 154.435803 
L 123.270506 155.359968 
L 123.270506 156.285416 
L 123.270506 157.21044 
L 123.270506 157.423067 
L 123.270506 158.133337 
L 123.270506 159.055809 
L 123.270506 159.977857 
L 123.270506 160.90118 
L 123.271931 161.822375 
L 123.273356 162.74484 
L 123.273356 163.666876 
L 123.273356 164.586784 
L 123.273356 165.506263 
L 123.273356 166.427005 
L 123.274781 167.345619 
L 123.274781 168.265495 
L 123.274781 169.183242 
L 123.274781 170.102247 
L 123.274781 171.019124 
L 123.274781 171.937255 
L 123.276206 172.853258 
L 123.27763 173.768822 
L 123.27763 174.685636 
L 123.27763 175.600322 
L 123.27763 176.516253 
L 123.27763 177.430055 
L 123.279055 178.3451 
L 123.279055 179.258017 
L 123.279055 180.172172 
L 123.279055 181.084198 
L 123.279055 181.995779 
L 123.279055 182.908594 
L 123.28048 183.820959 
L 123.281905 184.731196 
L 123.281905 185.642661 
L 123.281905 186.553675 
L 123.281905 187.460882 
L 123.281905 188.369316 
L 123.281905 189.278971 
L 123.281905 190.188172 
L 123.28333 191.095243 
L 123.28333 192.003531 
L 123.28333 192.911361 
L 123.28333 193.815391 
L 123.28333 194.722304 
L 123.28333 195.628758 
L 123.28333 196.533081 
L 123.28333 197.438612 
L 123.284755 198.343679 
L 123.286179 199.246617 
L 123.286179 200.149092 
L 123.286179 201.052766 
L 123.286179 201.954311 
L 123.286179 202.589438 
L 123.264807 203.066462 
L 122.835927 203.177804 
L 122.693442 203.19276 
L 122.247465 203.132936 
L 122.093581 203.152878 
L 121.730245 203.363913 
L 121.113285 203.940389 
L 120.710053 204.05998 
L 120.044649 204.108146 
L 119.731182 204.221082 
L 119.459036 204.443611 
L 119.221086 204.57147 
L 117.837558 204.679394 
L 117.716446 204.719242 
L 117.572537 204.815536 
L 117.484196 204.926766 
L 117.40298 205.056249 
L 117.280443 205.212279 
L 117.20635 205.343399 
L 117.089513 205.6388 
L 117.002597 205.695219 
L 116.870086 205.749976 
L 116.78602 205.889352 
L 116.388487 207.176385 
L 116.244578 207.408479 
L 116.005203 207.609049 
L 115.723083 207.741645 
L 114.604577 208.036633 
L 114.405098 208.126114 
L 114.258339 208.099601 
L 113.929199 207.824512 
L 113.72972 207.841084 
L 113.554463 207.996862 
L 113.39773 208.208962 
L 113.158355 208.672839 
L 113.108486 209.007414 
L 113.199676 209.356827 
L 113.714046 210.265625 
L 113.706922 210.459241 
L 113.544489 210.561832 
L 113.091388 210.599888 
L 113.007322 210.659453 
L 112.856288 210.914234 
L 112.743725 211.031685 
L 111.958633 211.456756 
L 111.388694 211.650236 
L 110.857225 211.68 
L 110.62355 211.36745 
L 110.559432 211.301295 
L 110.406973 211.248369 
L 109.923949 211.185517 
L 109.827059 211.150782 
L 109.681725 210.97875 
L 109.334062 210.417872 
L 109.104661 210.196117 
L 106.225042 209.767419 
L 103.581948 210.164672 
L 103.081826 210.446003 
L 102.785458 210.541976 
L 102.722764 210.510537 
L 102.554632 210.350025 
L 102.493364 210.313618 
L 102.416422 210.328512 
L 102.296735 210.407943 
L 102.221218 210.432765 
L 101.951921 210.477443 
L 101.800887 210.525429 
L 101.694024 210.596579 
L 101.426152 210.712398 
L 101.088463 210.652835 
L 100.508549 210.432765 
L 100.200782 210.409598 
L 98.988236 210.589961 
L 98.496663 210.765341 
L 98.240191 210.760377 
L 97.081789 210.34506 
L 96.55317 210.063712 
L 95.715359 209.348548 
L 95.249433 209.043849 
L 94.749311 208.82854 
L 92.448181 208.305061 
L 92.003628 208.344825 
L 91.854019 208.416065 
L 91.580448 208.608235 
L 91.447937 208.672839 
L 91.271256 208.684434 
L 90.826703 208.553568 
L 90.52891 208.417722 
L 90.466216 208.092973 
L 90.477615 207.698552 
L 90.403523 207.358747 
L 90.195495 207.207885 
L 89.96182 207.260937 
L 89.699648 207.386929 
L 89.418953 207.458209 
L 88.847588 207.527829 
L 88.237753 207.678663 
L 87.723383 207.594131 
L 87.697736 207.111725 
L 87.870142 206.445084 
L 87.957058 205.814688 
L 87.806024 205.461234 
L 87.301628 205.268712 
L 87.194764 204.998149 
L 87.114973 204.632905 
L 86.741662 204.131398 
L 86.629099 203.840724 
L 86.683243 203.609811 
L 86.862774 203.395483 
L 87.102149 203.234304 
L 87.334399 203.172819 
L 87.553826 203.009957 
L 87.669239 202.630996 
L 87.70201 202.18877 
L 87.673513 201.844554 
L 87.602271 201.663273 
L 87.382844 201.360541 
L 87.287379 201.195847 
L 87.233235 200.99786 
L 87.218986 200.833131 
L 87.179091 200.668387 
L 87.053704 200.470341 
L 87.000985 200.315549 
L 86.981037 200.110804 
L 86.925468 199.932673 
L 86.770159 199.856088 
L 86.413947 199.876067 
L 85.53909 200.090828 
L 85.097387 200.004261 
L 84.805293 199.629642 
L 84.738325 198.875169 
L 84.775371 198.510307 
L 84.778221 198.147037 
L 84.652834 197.867034 
L 84.306596 197.755354 
L 84.038724 197.628664 
L 83.857769 197.335241 
L 83.69961 197.005082 
L 83.507256 196.764928 
L 83.351947 196.698212 
L 83.212312 196.694877 
L 82.940166 196.764928 
L 82.784858 196.848318 
L 82.324631 197.203518 
L 81.957021 197.105137 
L 81.797438 197.150159 
L 81.600808 197.368587 
L 81.435526 197.435277 
L 81.297316 197.408601 
L 81.159105 197.233532 
L 81.050817 197.203518 
L 80.966751 197.273549 
L 80.731651 197.551979 
L 80.683206 197.595323 
L 80.580617 198.875169 
L 80.479453 199.03675 
L 80.419609 199.028421 
L 80.348366 198.97012 
L 80.118966 198.976783 
L 80.060547 198.930141 
L 80.004978 198.905154 
L 79.920912 198.975118 
L 79.89384 199.071729 
L 79.930886 199.156677 
L 80.17311 199.478107 
L 80.178809 199.594674 
L 79.967932 199.646294 
L 79.674413 199.644629 
L 79.598896 199.704572 
L 79.543327 199.856088 
L 79.584648 199.9693 
L 79.688662 200.132445 
L 79.768453 200.323872 
L 79.741381 200.526928 
L 79.61172 200.628447 
L 79.472085 200.57852 
L 79.335299 200.473669 
L 79.215612 200.415416 
L 78.970538 200.540242 
L 78.910694 200.828139 
L 78.966263 201.157582 
L 79.064578 201.405456 
L 79.358097 201.867836 
L 79.454986 202.162166 
L 79.308227 202.293518 
L 79.105898 202.433172 
L 79.034656 202.754001 
L 79.017558 203.121303 
L 78.979087 203.392159 
L 78.828053 203.666296 
L 78.580129 204.008491 
L 78.305134 204.250976 
L 78.075733 204.226065 
L 78.018739 204.076589 
L 77.978843 203.872285 
L 77.917575 203.689554 
L 77.795038 203.611472 
L 77.652553 203.667957 
L 76.608139 204.735845 
L 76.080945 204.910165 
L 75.70051 205.112687 
L 75.340024 205.364975 
z
" clip-path="url(#p4a77e29978)" style="stroke: #000000; stroke-linejoin: miter"/>
   </g>
   <g id="line2d_1">
    <path d="M 75.087618 205.486107 
L 74.831818 205.682107 
L 74.5188 206.089714 
L 73.995982 205.929034 
L 73.154536 205.215592 
L 71.038579 202.848409 
L 70.688538 202.639 
L 68.974232 200.407232 
L 66.777497 198.643645 
L 66.072926 197.70278 
L 64.896023 196.658976 
L 64.468569 195.945686 
L 63.94575 195.338572 
L 63.933409 195.151928 
L 64.041114 194.668141 
L 63.864972 194.16055 
L 63.492491 193.622556 
L 61.941987 191.900945 
L 61.874671 191.512433 
L 61.849989 190.541446 
L 61.764722 190.339806 
L 59.3077 186.234922 
L 58.656982 185.291516 
L 58.39445 183.847723 
L 58.221673 183.600367 
L 58.188016 183.395315 
L 58.282258 182.729729 
L 58.090408 181.678596 
L 58.188016 181.441546 
L 57.831243 180.527494 
L 57.737001 179.160883 
L 57.422861 178.834657 
L 57.02121 178.691418 
L 56.736241 178.012212 
L 56.639755 177.70702 
L 56.125912 176.448577 
L 56.18874 176.005002 
L 55.700701 174.700237 
L 55.852161 174.141917 
L 56.442296 173.965082 
L 56.484929 174.120645 
L 56.484929 174.745427 
L 56.579171 174.745427 
L 56.633023 174.421097 
L 56.912383 173.394577 
L 56.823751 173.179097 
L 56.042889 170.587453 
L 55.586265 170.082562 
L 55.064568 169.698809 
L 54.122148 169.189687 
L 54.018931 167.908293 
L 54.071662 166.66743 
L 53.747424 166.106782 
L 53.8843 165.907846 
L 54.122148 165.883812 
L 54.308388 165.360336 
L 54.297169 164.656361 
L 53.933665 163.406752 
L 53.31436 162.299486 
L 53.236947 161.760338 
L 53.464699 161.151448 
L 53.361481 161.151448 
L 52.419062 159.804535 
L 52.419062 159.241937 
L 52.47628 157.601463 
L 52.928417 156.474872 
L 52.867833 155.766408 
L 52.56379 155.44027 
L 51.846878 151.545388 
L 52.233944 150.118051 
L 52.56379 148.261439 
L 52.235065 147.19977 
L 51.776197 145.905635 
L 51.732442 144.578313 
L 51.564152 143.939982 
L 50.443346 141.776587 
L 49.763458 141.042798 
L 49.569364 140.545354 
L 49.098155 139.939612 
L 49.066741 139.343166 
L 49.305711 138.998206 
L 49.241761 137.999539 
L 48.632555 136.534528 
L 47.88535 134.932978 
L 47.599259 133.780539 
L 47.329996 133.227151 
L 47.19873 131.319055 
L 47.131415 130.148405 
L 47.319899 129.469087 
L 47.696867 129.178275 
L 47.88535 128.774608 
L 47.776523 128.570708 
L 47.791108 127.632525 
L 47.508383 126.538837 
L 47.696867 124.129199 
L 47.473603 123.067865 
L 46.788105 120.792282 
L 46.909273 120.48124 
L 47.414141 119.612006 
L 47.478091 120.116939 
L 47.561113 120.029608 
L 47.58243 119.01413 
L 47.179658 116.466629 
L 46.746593 115.557587 
L 46.505379 114.430699 
L 46.535671 113.00763 
L 46.754447 112.527148 
L 46.798202 111.800076 
L 46.91937 111.861701 
L 46.903663 112.115031 
L 47.030441 112.345059 
L 46.926102 113.028161 
L 47.027075 113.204722 
L 47.319899 113.044586 
L 47.299704 113.234832 
L 47.131415 113.742535 
L 47.338971 113.522225 
L 47.649746 112.843374 
L 47.996421 112.533993 
L 48.097395 112.142417 
L 48.166954 111.368655 
L 48.072712 108.426034 
L 47.811303 106.21014 
L 47.488188 105.608817 
L 47.338971 104.857637 
L 46.840835 103.692636 
L 46.572695 102.694791 
L 46.044267 101.490231 
L 45.145602 100.337362 
L 44.857267 99.781368 
L 44.816877 99.22387 
L 42.691946 96.040258 
L 41.547579 94.655873 
L 40.140681 93.107865 
L 40.329165 92.316933 
L 40.224826 91.945536 
L 39.117483 90.033837 
L 38.908804 88.943351 
L 38.480228 87.727921 
L 37.06772 85.581869 
L 36.207201 83.916086 
L 35.323122 82.652528 
L 34.091245 80.09304 
L 33.520184 79.191211 
L 33.344041 78.561134 
L 32.495863 77.388009 
L 32.352257 76.82139 
L 32.207528 75.412646 
L 31.831682 73.890527 
L 30.635707 71.166614 
L 29.464414 66.100998 
L 29.145786 65.501305 
L 28.591472 65.301511 
L 27.991153 64.815637 
L 27.52883 63.876635 
L 27.08817 61.749558 
L 25.304305 57.911618 
L 22.755284 52.182741 
L 22.441144 50.691238 
L 21.716379 49.400972 
L 20.764984 46.8819 
L 20.347627 46.296379 
L 19.712615 45.608207 
L 19.432133 44.00091 
L 17.182668 40.426331 
L 15.63661 39.220166 
L 14.358775 37.601057 
L 13.66736 37.099031 
L 13.194213 34.790064 
L 13.22114 34.61526 
L 12.898024 34.058358 
L 12.27872 32.24879 
L 11.147126 30.823894 
L 10.934242 30.040899 
L 10.836146 29.020205 
L 10.427889 27.577185 
L 10.250399 25.902254 
L 9.932 24.630043 
L 9.334781 20.454653 
L 9.390877 19.089237 
L 9.85199 15.585261 
L 10.00345 15.341318 
L 10.004277 15.342211 
L 10.849238 15.469986 
L 10.960376 15.214205 
L 12.429395 14.082765 
L 12.993635 13.758396 
L 13.626268 13.53312 
L 14.541021 13.370913 
L 14.683506 13.482657 
L 15.313289 13.614221 
L 15.454349 13.486261 
L 15.669501 13.634046 
L 15.856156 14.118804 
L 16.29216 14.381877 
L 16.488789 14.619707 
L 16.572855 14.855717 
L 17.565974 14.738615 
L 18.658833 14.679161 
L 18.989398 14.482777 
L 19.576436 14.825091 
L 21.04688 15.025058 
L 21.381719 14.816083 
L 21.998678 14.163852 
L 22.943353 13.799845 
L 23.427802 13.298818 
L 24.600452 12.615642 
L 24.839827 12.226223 
L 25.310027 11.977404 
L 25.458211 11.454463 
L 26.485527 11.063105 
L 27.210775 10.54904 
L 29.306727 10.08 
L 29.5632 10.309116 
L 29.74558 10.19005 
L 30.086119 10.54904 
L 30.559169 10.613979 
L 30.701654 10.54904 
L 30.701654 10.678916 
L 31.265894 10.413747 
L 31.44685 10.496727 
L 32.028188 10.309116 
L 32.280386 10.417355 
L 33.012758 10.91701 
L 33.628293 11.113605 
L 33.833471 11.353472 
L 34.014427 12.042315 
L 34.333593 12.561559 
L 34.201082 13.060894 
L 35.375157 13.853908 
L 36.583429 15.061087 
L 39.378269 17.02046 
L 40.211806 18.240874 
L 40.703379 18.278667 
L 41.046767 18.0681 
L 41.753492 18.231876 
L 42.141051 18.31826 
L 42.602702 18.0681 
L 43.212537 18.190483 
L 43.517455 18.132891 
L 43.65994 17.699124 
L 51.837146 17.704524 
L 102.19842 17.731524 
L 102.358003 18.0681 
L 102.447768 18.156288 
L 102.738438 19.03084 
L 103.067578 19.149588 
L 103.768603 20.576026 
L 104.532322 21.426552 
L 104.676232 21.892179 
L 105.062366 22.20136 
L 105.194877 22.312802 
L 106.450168 23.95702 
L 106.985911 24.111515 
L 108.215556 24.853346 
L 110.015139 25.253826 
L 111.180666 25.181995 
L 111.948659 24.882081 
L 113.131283 24.93596 
L 113.349285 25.108366 
L 115.539278 25.89844 
L 117.904526 25.860737 
L 119.004509 25.607572 
L 119.288054 25.695554 
L 119.537403 26.133629 
L 120.142963 26.413678 
L 120.429358 26.343668 
L 120.677282 25.948711 
L 122.855875 25.948711 
L 123.856119 26.508817 
L 123.990055 26.532153 
L 125.850907 26.223391 
L 126.180047 26.119267 
L 126.549083 26.14081 
L 126.873948 26.304175 
L 127.352697 25.819442 
L 127.500882 25.936143 
L 128.31162 25.889463 
L 128.850213 26.435219 
L 129.206425 26.327512 
L 129.549814 26.507022 
L 130.266513 27.334433 
L 131.313777 28.082686 
L 131.66144 27.971446 
L 132.703004 27.996565 
L 133.478122 28.45226 
L 133.684725 28.226215 
L 133.9184 28.303359 
L 134.334456 28.558101 
L 134.632249 28.884571 
L 134.987036 28.848697 
L 135.84907 28.558101 
L 136.039999 28.098833 
L 138.587629 27.264444 
L 138.812755 27.384681 
L 139.727508 27.180096 
L 140.512599 27.201632 
L 141.138108 27.619759 
L 142.333556 28.201098 
L 142.637048 28.590391 
L 143.888066 28.271066 
L 175.392893 20.861957 
L 181.954321 19.268332 
L 183.203913 19.38887 
L 184.024626 19.149588 
L 184.273975 19.205362 
L 186.669145 20.219925 
L 187.023932 19.912352 
L 187.478459 19.5166 
L 188.098268 19.5166 
L 189.416253 19.861986 
L 189.655628 19.980704 
L 190.098756 19.95732 
L 191.04628 20.189349 
L 191.413891 20.396182 
L 191.589147 20.705507 
L 191.869843 20.54905 
L 192.208957 20.980638 
L 192.559469 21.189218 
L 193.008297 21.119094 
L 192.915681 21.536223 
L 193.173579 21.760947 
L 193.373058 21.82926 
L 193.669426 22.131258 
L 193.810486 22.724385 
L 194.035612 22.85378 
L 194.139626 23.090991 
L 194.359053 22.886128 
L 194.605552 23.243731 
L 194.671095 23.639024 
L 194.900496 23.802517 
L 195.181191 24.14385 
L 195.604371 24.213909 
L 195.943485 24.54442 
L 196.030401 24.763545 
L 195.125622 24.558789 
L 194.571356 24.549809 
L 194.115404 25.101183 
L 193.660877 25.331043 
L 193.234848 25.347205 
L 193.103761 24.989838 
L 192.546646 25.313086 
L 192.428383 25.108366 
L 192.21893 25.221502 
L 191.871267 24.882081 
L 191.956758 24.634227 
L 191.740181 24.749176 
L 191.589147 24.989838 
L 191.499382 25.049103 
L 189.288017 26.004367 
L 189.085688 26.304175 
L 188.7366 26.462145 
L 188.662508 26.532153 
L 188.292048 27.104718 
L 187.612395 27.69333 
L 186.444019 29.255844 
L 185.63328 29.386766 
L 185.16308 28.859459 
L 185.07474 28.489933 
L 184.88096 28.321299 
L 184.474878 27.583871 
L 183.698336 27.485175 
L 183.496007 27.576693 
L 183.270881 27.845848 
L 182.749387 28.794885 
L 181.672201 28.558101 
L 181.186328 28.85049 
L 180.525198 29.822534 
L 180.063547 30.227761 
L 179.448012 30.405256 
L 178.942191 30.969944 
L 178.316683 31.410867 
L 178.265388 31.529153 
L 178.20412 31.473595 
L 177.984693 31.421621 
L 177.504519 31.830224 
L 177.461773 32.428694 
L 174.539409 35.759367 
L 174.253014 35.820217 
L 173.774265 36.41791 
L 173.040468 36.629043 
L 172.860937 36.450118 
L 172.534647 34.982534 
L 172.41211 34.746223 
L 172.607314 34.382769 
L 172.479078 34.019273 
L 172.028826 33.433649 
L 172.145663 33.15602 
L 171.790876 32.459152 
L 171.200989 32.115139 
L 170.796332 31.6098 
L 170.532735 31.763919 
L 170.314733 31.570373 
L 170.333256 31.174282 
L 170.24919 30.998624 
L 169.833134 30.407049 
L 169.461248 29.503335 
L 169.434176 29.033444 
L 169.231848 28.983223 
L 168.912682 28.321299 
L 168.391187 28.294389 
L 164.619613 28.687258 
L 143.340924 33.560812 
L 136.960452 33.877802 
L 137.070165 87.818235 
L 137.094387 96.33831 
L 136.917706 96.959646 
L 123.219212 96.959646 
L 123.264807 203.066462 
L 122.693442 203.19276 
L 122.093581 203.152878 
L 121.730245 203.363913 
L 121.113285 203.940389 
L 120.710053 204.05998 
L 119.731182 204.221082 
L 119.221086 204.57147 
L 117.716446 204.719242 
L 117.40298 205.056249 
L 117.20635 205.343399 
L 117.002597 205.695219 
L 116.78602 205.889352 
L 116.244578 207.408479 
L 115.723083 207.741645 
L 114.258339 208.099601 
L 113.929199 207.824512 
L 113.72972 207.841084 
L 113.39773 208.208962 
L 113.108486 209.007414 
L 113.199676 209.356827 
L 113.706922 210.459241 
L 113.544489 210.561832 
L 113.007322 210.659453 
L 112.743725 211.031685 
L 111.388694 211.650236 
L 110.857225 211.68 
L 110.406973 211.248369 
L 109.827059 211.150782 
L 109.104661 210.196117 
L 106.225042 209.767419 
L 103.581948 210.164672 
L 102.785458 210.541976 
L 102.296735 210.407943 
L 101.426152 210.712398 
L 101.088463 210.652835 
L 100.200782 210.409598 
L 98.240191 210.760377 
L 96.55317 210.063712 
L 95.249433 209.043849 
L 94.749311 208.82854 
L 92.448181 208.305061 
L 91.854019 208.416065 
L 91.447937 208.672839 
L 91.271256 208.684434 
L 90.52891 208.417722 
L 90.195495 207.207885 
L 88.237753 207.678663 
L 87.723383 207.594131 
L 87.697736 207.111725 
L 87.957058 205.814688 
L 87.806024 205.461234 
L 87.301628 205.268712 
L 86.683243 203.609811 
L 87.102149 203.234304 
L 87.553826 203.009957 
L 87.70201 202.18877 
L 87.602271 201.663273 
L 87.233235 200.99786 
L 87.179091 200.668387 
L 87.000985 200.315549 
L 86.925468 199.932673 
L 86.770159 199.856088 
L 86.413947 199.876067 
L 85.53909 200.090828 
L 85.097387 200.004261 
L 84.805293 199.629642 
L 84.652834 197.867034 
L 84.038724 197.628664 
L 83.351947 196.698212 
L 82.940166 196.764928 
L 82.324631 197.203518 
L 81.797438 197.150159 
L 81.435526 197.435277 
L 81.297316 197.408601 
L 81.050817 197.203518 
L 80.683206 197.595323 
L 80.479453 199.03675 
L 79.920912 198.975118 
L 79.930886 199.156677 
L 80.178809 199.594674 
L 79.543327 199.856088 
L 79.741381 200.526928 
L 79.61172 200.628447 
L 79.215612 200.415416 
L 78.970538 200.540242 
L 78.910694 200.828139 
L 79.064578 201.405456 
L 79.454986 202.162166 
L 79.105898 202.433172 
L 78.828053 203.666296 
L 78.305134 204.250976 
L 78.075733 204.226065 
L 77.795038 203.611472 
L 77.652553 203.667957 
L 76.608139 204.735845 
L 75.70051 205.112687 
L 75.087618 205.486107 
L 75.087618 205.486107 
" clip-path="url(#p4a77e29978)" style="fill: none; stroke: #000000; stroke-width: 0.5; stroke-linecap: square"/>
   </g>
  </g>
 </g>
 <defs>
  <clipPath id="p4a77e29978">
   <rect x="0" y="-0" width="205.365182" height="221.76"/>
  </clipPath>
 </defs>
</svg>
