<?xml version="1.0" encoding="utf-8" standalone="no"?>
<!DOCTYPE svg PUBLIC "-//W3C//DTD SVG 1.1//EN"
  "http://www.w3.org/Graphics/SVG/1.1/DTD/svg11.dtd">
<svg xmlns:xlink="http://www.w3.org/1999/xlink" width="181.621015pt" height="221.76pt" viewBox="0 0 181.621015 221.76" xmlns="http://www.w3.org/2000/svg" version="1.1">
 <metadata>
  <rdf:RDF xmlns:dc="http://purl.org/dc/elements/1.1/" xmlns:cc="http://creativecommons.org/ns#" xmlns:rdf="http://www.w3.org/1999/02/22-rdf-syntax-ns#">
   <cc:Work>
    <dc:type rdf:resource="http://purl.org/dc/dcmitype/StillImage"/>
    <dc:date>2026-04-26T19:22:29.989056</dc:date>
    <dc:format>image/svg+xml</dc:format>
    <dc:creator>
     <cc:Agent>
      <dc:title>Matplotlib v3.10.9, https://matplotlib.org/</dc:title>
     </cc:Agent>
    </dc:creator>
   </cc:Work>
  </rdf:RDF>
 </metadata>
 <defs>
  <style type="text/css">*{stroke-linejoin: round; stroke-linecap: butt}</style>
 </defs>
 <g id="figure_1">
  <g id="patch_1">
   <path d="M 0 221.76 
L 181.621015 221.76 
L 181.621015 0 
L 0 0 
z
" style="fill: #ffffff"/>
  </g>
  <g id="axes_1">
   <g id="patch_2">
    <path d="M 90.658764 10.08 
L 173.365514 10.230016 
L 173.213757 152.158446 
L 173.213757 175.95156 
L 170.330398 181.00019 
L 167.598796 181.163228 
L 164.260194 177.578988 
L 154.092573 178.718822 
L 155.761875 196.210011 
L 158.038205 201.958836 
L 158.645234 207.556242 
L 156.975932 211.68 
L 123.286198 182.631045 
L 104.164987 166.858786 
L 77.607785 145.726584 
L 43.918051 120.024649 
L 8.255501 94.155605 
L 8.407258 58.264207 
L 8.255501 10.230016 
L 44.373322 10.380045 
z
" clip-path="url(#p38c578ae15)" style="stroke: #000000; stroke-linejoin: miter"/>
   </g>
   <g id="line2d_1">
    <path d="M 90.658764 10.08 
L 173.365514 10.230016 
L 173.213757 152.158446 
L 173.213757 175.95156 
L 170.330398 181.00019 
L 167.598796 181.163228 
L 164.260194 177.578988 
L 154.092573 178.718822 
L 155.761875 196.210011 
L 158.038205 201.958836 
L 158.645234 207.556242 
L 156.975932 211.68 
L 123.286198 182.631045 
L 104.164987 166.858786 
L 77.607785 145.726584 
L 43.918051 120.024649 
L 8.255501 94.155605 
L 8.407258 58.264207 
L 8.255501 10.230016 
L 44.373322 10.380045 
L 90.658764 10.08 
" clip-path="url(#p38c578ae15)" style="fill: none; stroke: #000000; stroke-width: 0.5; stroke-linecap: square"/>
   </g>
  </g>
 </g>
 <defs>
  <clipPath id="p38c578ae15">
   <rect x="0" y="-0" width="181.621015" height="221.76"/>
  </clipPath>
 </defs>
</svg>
