<?xml version="1.0" encoding="utf-8" standalone="no"?>
<!DOCTYPE svg PUBLIC "-//W3C//DTD SVG 1.1//EN"
  "http://www.w3.org/Graphics/SVG/1.1/DTD/svg11.dtd">
<svg xmlns:xlink="http://www.w3.org/1999/xlink" width="223.2pt" height="209.01643pt" viewBox="0 0 223.2 209.01643" xmlns="http://www.w3.org/2000/svg" version="1.1">
 <metadata>
  <rdf:RDF xmlns:dc="http://purl.org/dc/elements/1.1/" xmlns:cc="http://creativecommons.org/ns#" xmlns:rdf="http://www.w3.org/1999/02/22-rdf-syntax-ns#">
   <cc:Work>
    <dc:type rdf:resource="http://purl.org/dc/dcmitype/StillImage"/>
    <dc:date>2026-04-26T19:22:15.905210</dc:date>
    <dc:format>image/svg+xml</dc:format>
    <dc:creator>
     <cc:Agent>
      <dc:title>Matplotlib v3.10.9, https://matplotlib.org/</dc:title>
     </cc:Agent>
    </dc:creator>
   </cc:Work>
  </rdf:RDF>
 </metadata>
 <defs>
  <style type="text/css">*{stroke-linejoin: round; stroke-linecap: butt}</style>
 </defs>
 <g id="figure_1">
  <g id="patch_1">
   <path d="M 0 209.01643 
L 223.2 209.01643 
L 223.2 0 
L 0 0 
z
" style="fill: #ffffff"/>
  </g>
  <g id="axes_1">
   <g id="patch_2">
    <path d="M 213.054545 186.617167 
L 212.87579 187.367703 
L 212.464111 187.487253 
L 211.982013 187.513819 
L 211.657003 188.031854 
L 211.814091 188.549865 
L 212.236604 189.12762 
L 212.567031 189.798312 
L 212.355774 190.542003 
L 212.128267 191.079822 
L 211.657003 193.051613 
L 211.153238 194.146909 
L 210.811977 194.711111 
L 210.324462 195.335022 
L 210.199875 194.943422 
L 209.999453 194.57836 
L 209.609441 194.784124 
L 209.26818 195.182366 
L 208.471906 195.573957 
L 208.152313 195.859346 
L 208.228149 196.277461 
L 208.509824 196.994194 
L 206.408093 198.931808 
L 205.151388 199.515683 
L 203.504672 199.223749 
L 204.880547 198.65313 
L 205.416813 198.248371 
L 205.790574 197.498536 
L 204.761376 197.531715 
L 204.311779 197.697612 
L 203.791764 197.014103 
L 203.428836 195.958898 
L 202.881736 194.790761 
L 202.605477 194.465521 
L 202.394221 193.516297 
L 201.971708 194.107081 
L 201.565446 195.228826 
L 201.446276 195.839435 
L 200.899176 195.507586 
L 200.547082 194.744299 
L 200.232905 193.828288 
L 199.83206 193.051613 
L 200.124569 192.952036 
L 200.742087 192.547079 
L 200.135402 191.551224 
L 199.539551 191.790237 
L 199.095371 192.879012 
L 198.846196 195.228826 
L 198.727026 195.640327 
L 198.705359 196.091634 
L 198.932866 196.994194 
L 199.117038 197.100373 
L 200.330408 198.109025 
L 199.599136 198.308091 
L 198.683691 198.128932 
L 197.892834 197.850235 
L 197.567824 197.81042 
L 197.389069 198.228465 
L 196.966556 198.692941 
L 196.441123 199.064509 
L 195.964442 199.223749 
L 194.296058 198.785834 
L 193.407698 197.777241 
L 193.494367 196.649106 
L 194.78899 195.839435 
L 194.78899 195.335022 
L 193.586453 195.481038 
L 192.123909 195.295198 
L 191.19763 194.55181 
L 191.60931 193.051613 
L 191.165129 192.547079 
L 190.168432 192.952036 
L 188.630052 192.308081 
L 187.23251 191.126299 
L 186.614991 189.984239 
L 186.322482 189.838153 
L 184.805769 190.601762 
L 184.112415 190.820876 
L 183.581565 190.6748 
L 181.913181 189.851434 
L 181.338997 189.426448 
L 181.106073 188.629557 
L 181.55567 188.171321 
L 181.853596 187.693142 
L 181.11149 186.876207 
L 180.515639 186.623809 
L 178.565579 186.298341 
L 177.893892 186.371406 
L 177.157203 187.566952 
L 176.702189 189.386605 
L 176.041336 190.6748 
L 174.719629 190.263125 
L 174.703378 190.595122 
L 174.670878 190.741199 
L 174.557124 190.794317 
L 174.30795 190.820876 
L 174.827966 192.347915 
L 174.145445 192.732963 
L 173.267918 192.37447 
L 173.137914 191.657452 
L 173.33292 190.953669 
L 173.441257 188.881912 
L 173.890854 188.031854 
L 173.890854 187.487253 
L 172.915824 187.553669 
L 172.032881 187.288002 
L 171.274524 186.69023 
L 170.667839 185.747017 
L 172.823738 185.853298 
L 173.76085 185.547736 
L 174.30795 184.697436 
L 173.105413 184.617717 
L 172.704568 183.906867 
L 172.942908 181.295618 
L 172.282055 181.355425 
L 170.841178 181.082972 
L 170.218242 181.295618 
L 169.996152 181.774059 
L 169.714477 183.262415 
L 169.530304 183.581323 
L 168.690696 183.727487 
L 168.365686 184.139393 
L 168.17068 184.743938 
L 167.715666 185.501237 
L 167.098147 185.800157 
L 166.789388 185.301953 
L 166.897724 184.425061 
L 167.488159 183.581323 
L 166.805638 183.102957 
L 165.175172 181.295618 
L 165.175172 180.790577 
L 165.603102 180.518112 
L 165.825192 180.219057 
L 165.955196 179.760491 
L 166.041865 179.06264 
L 165.630186 179.06264 
L 164.969332 179.860181 
L 163.230529 179.42154 
L 163.355117 180.179182 
L 162.087578 180.763995 
L 160.982544 180.285514 
L 159.920845 179.620924 
L 158.761643 179.620924 
L 158.707475 178.065638 
L 158.10079 176.842533 
L 157.201596 176.018196 
L 156.269901 175.725675 
L 155.446542 175.1938 
L 154.682769 174.302857 
L 153.870245 174.129979 
L 152.862714 175.725675 
L 152.142275 175.233692 
L 151.448921 174.60871 
L 151.75768 174.183172 
L 151.914768 173.74432 
L 151.958103 173.159159 
L 151.952686 172.321263 
L 152.369782 172.321263 
L 152.927716 173.059412 
L 153.658988 173.418495 
L 154.211505 173.099311 
L 154.227755 171.815837 
L 153.821493 171.024403 
L 152.521454 170.365943 
L 151.952686 169.541154 
L 153.767325 169.554457 
L 154.520264 169.727401 
L 155.137783 170.086585 
L 155.072781 169.228517 
L 154.780272 168.716306 
L 154.265673 168.476824 
L 153.545235 168.423605 
L 153.203974 167.918013 
L 153.312311 166.853537 
L 153.583153 165.875467 
L 153.772742 165.629273 
L 153.236475 163.805949 
L 152.39145 163.033947 
L 150.094713 162.22196 
L 149.287605 162.79435 
L 148.859675 162.561404 
L 148.946345 161.889162 
L 149.677617 161.103723 
L 148.978846 160.71764 
L 148.491331 160.105208 
L 148.242157 159.306336 
L 148.274658 158.320987 
L 147.234626 159.093294 
L 146.855448 159.852238 
L 146.915033 161.94241 
L 146.606274 162.441601 
L 145.902085 162.434945 
L 145.132895 162.261895 
L 144.639964 162.22196 
L 144.894555 162.621305 
L 144.840386 163.606298 
L 144.412457 164.271789 
L 143.502429 163.646229 
L 142.54365 162.122121 
L 141.936965 161.403261 
L 139.867735 160.49131 
L 138.497277 157.808307 
L 137.538498 157.202384 
L 137.083484 157.055892 
L 136.579718 156.696315 
L 135.734693 155.850599 
L 135.32843 155.590879 
L 134.98717 155.737388 
L 134.629659 156.030402 
L 134.190896 156.130291 
L 132.257087 156.090336 
L 131.612484 155.650815 
L 131.460813 154.405419 
L 132.858355 155.124701 
L 132.414175 154.312175 
L 130.550785 152.220668 
L 130.550785 151.581153 
L 130.83246 150.821685 
L 130.908296 150.208746 
L 130.307028 149.935578 
L 129.608256 150.128795 
L 129.331998 150.621817 
L 129.364499 151.35465 
L 129.608256 152.220668 
L 128.492389 151.774343 
L 128.264882 150.848334 
L 128.356968 149.635753 
L 128.194463 148.303105 
L 127.63653 147.47679 
L 126.943175 146.783707 
L 126.423159 145.857313 
L 126.423159 144.290945 
L 125.919394 144.290945 
L 125.383128 145.577381 
L 124.689773 146.623759 
L 123.82308 147.370164 
L 122.750548 147.696702 
L 122.804716 146.017271 
L 122.734297 145.077487 
L 122.230532 144.737547 
L 120.962993 144.857527 
L 120.919659 145.037495 
L 120.946743 145.424083 
L 120.86549 145.817323 
L 120.464645 146.017271 
L 120.101717 145.957287 
L 111.22353 140.877559 
L 109.181385 138.717027 
L 109.977659 137.016338 
L 109.977659 136.409367 
L 109.024297 136.809571 
L 108.466363 136.596131 
L 108.563866 136.155898 
L 109.522645 135.85573 
L 108.466363 134.93517 
L 107.361329 135.23536 
L 106.250879 135.99581 
L 105.156679 136.409367 
L 103.997477 136.155898 
L 96.993514 132.56674 
L 96.078069 131.699312 
L 95.530969 130.591583 
L 94.913451 128.008716 
L 94.734695 127.508098 
L 93.47799 127.334545 
L 92.654632 126.853925 
L 90.802075 125.211663 
L 90.265809 125.044754 
L 89.664541 125.024725 
L 89.18786 124.877843 
L 88.992854 124.343712 
L 88.088243 123.168541 
L 87.876987 122.968217 
L 85.396078 117.878879 
L 85.276907 117.11062 
L 85.493581 116.703089 
L 85.526082 116.328951 
L 85.071068 115.861262 
L 84.903146 115.687544 
L 84.442715 115.700907 
L 83.846864 115.968164 
L 83.435185 116.228733 
L 83.489353 116.195327 
L 83.261846 117.357805 
L 82.676828 117.745273 
L 82.07556 117.344443 
L 81.755967 116.195327 
L 81.257618 116.703089 
L 80.743019 117.11062 
L 80.158002 117.197469 
L 79.410479 116.749856 
L 80.661767 115.166376 
L 80.510096 113.803218 
L 79.470064 113.068119 
L 78.007519 113.388895 
L 78.565453 112.159209 
L 78.256694 111.337122 
L 76.674979 110.020332 
L 76.079127 111.129921 
L 76.284967 112.860947 
L 75.770368 113.950232 
L 75.055346 114.458087 
L 74.405327 114.270985 
L 73.86906 113.656202 
L 73.495299 112.78075 
L 73.760724 112.132475 
L 73.804058 111.424012 
L 74.020732 110.715508 
L 74.405327 110.020332 
L 73.901561 109.311748 
L 73.430297 109.137938 
L 72.926532 109.051032 
L 72.341514 108.629864 
L 71.967752 108.108398 
L 71.512739 107.172379 
L 66.599672 100.263707 
L 66.274662 99.133075 
L 66.17716 97.373366 
L 66.220494 96.081862 
L 66.133825 94.622905 
L 65.602975 93.752803 
L 64.33002 94.261486 
L 64.411272 93.190552 
L 64.519609 92.936191 
L 64.817535 92.574723 
L 64.817535 91.958864 
L 64.378771 91.95217 
L 64.064595 91.824978 
L 63.419992 91.463478 
L 63.810004 90.82748 
L 63.728752 90.486036 
L 63.257487 90.486036 
L 62.509965 90.901123 
L 62.34746 91.851756 
L 61.59452 91.972253 
L 60.982418 91.342975 
L 60.727827 90.057544 
L 60.305314 89.990591 
L 59.487373 90.144583 
L 58.951106 90.606547 
L 59.362785 91.463478 
L 58.934856 92.052584 
L 58.452758 92.574723 
L 57.228554 88.718413 
L 56.383528 87.138054 
L 55.278495 86.347801 
L 56.556867 85.282888 
L 55.977266 84.579595 
L 54.579723 83.909755 
L 53.458439 82.918327 
L 54.509304 82.811141 
L 55.061821 82.288596 
L 55.13224 81.538236 
L 54.780146 80.734231 
L 53.956788 80.178096 
L 53.100928 80.064186 
L 52.532161 79.715749 
L 52.505077 78.42913 
L 52.093398 78.42913 
L 51.053366 79.233282 
L 50.013334 78.650277 
L 48.420786 76.793861 
L 47.722015 76.565979 
L 46.356973 76.519062 
L 45.647368 76.17723 
L 45.365693 75.748251 
L 44.531501 73.924929 
L 43.047289 73.589731 
L 41.855586 72.718175 
L 38.952164 69.231352 
L 36.964187 67.675384 
L 36.07041 66.575361 
L 35.409557 65.260575 
L 35.842903 65.19349 
L 36.828766 65.394743 
L 37.879632 64.931857 
L 38.394231 63.643739 
L 37.987968 62.563498 
L 37.012939 61.825392 
L 35.842903 61.550269 
L 34.851623 60.664467 
L 33.383662 56.798434 
L 32.159458 55.919017 
L 30.15523 50.231565 
L 29.781469 50.533795 
L 29.472709 50.614389 
L 29.16395 50.668117 
L 28.790189 50.795722 
L 28.118501 49.338266 
L 23.893373 46.100378 
L 22.885842 44.299709 
L 22.116652 40.919418 
L 21.975815 39.756609 
L 21.639971 38.398747 
L 20.859947 37.780268 
L 19.960753 37.370173 
L 19.289066 36.603732 
L 18.97489 34.909334 
L 19.738663 34.727778 
L 21.526218 35.474158 
L 22.159987 34.606739 
L 22.419995 33.20799 
L 22.430828 30.679101 
L 22.159987 30.100617 
L 21.477466 29.017571 
L 20.648691 27.988258 
L 19.895751 27.524031 
L 16.764823 27.342373 
L 15.984799 26.958864 
L 16.428979 25.868829 
L 16.483147 24.785434 
L 16.060635 24.233608 
L 15.118106 24.697951 
L 15.399781 25.525652 
L 15.02602 26.454229 
L 14.370583 27.20781 
L 13.753064 27.524031 
L 12.767201 27.201081 
L 12.458442 26.434044 
L 12.279686 25.666961 
L 11.710919 25.31032 
L 10.730472 24.489335 
L 10.957979 22.860672 
L 12.182183 21.743374 
L 14.213495 22.436649 
L 14.831014 21.460669 
L 14.571006 20.457691 
L 13.303467 18.539029 
L 14.083491 18.148531 
L 14.571006 17.340566 
L 14.652258 16.27667 
L 14.213495 15.158814 
L 13.222215 14.236175 
L 12.425941 14.404545 
L 11.586332 14.943313 
L 10.540883 15.158814 
L 10.540883 14.52577 
L 10.882144 14.195766 
L 11.098817 13.825344 
L 11.445494 12.841993 
L 10.481298 12.464798 
L 10.145455 11.696902 
L 10.22129 10.672973 
L 10.540883 9.500747 
L 11.055482 9.588331 
L 11.976344 9.500747 
L 13.222215 10.390031 
L 14.522254 11.669958 
L 15.562286 13.057528 
L 16.228556 15.024126 
L 16.851492 15.488794 
L 18.341121 16.27667 
L 23.254187 23.089505 
L 24.250884 24.17977 
L 27.338478 26.232184 
L 28.671018 26.508058 
L 30.15523 25.875558 
L 30.566909 25.875558 
L 31.439019 28.169907 
L 32.148624 29.024298 
L 33.340327 29.219387 
L 32.739059 28.203545 
L 31.769446 25.39107 
L 31.336099 22.712602 
L 31.476937 22.073189 
L 32.094456 22.052996 
L 44.065653 27.463479 
L 46.189051 29.643192 
L 49.737076 34.956403 
L 50.695855 36.005339 
L 52.028396 37.121421 
L 53.425938 37.981949 
L 54.574306 38.338245 
L 56.643536 40.54975 
L 57.326057 40.919418 
L 59.362785 41.725929 
L 60.316148 42.774319 
L 62.179538 45.683828 
L 63.208736 46.288494 
L 63.777503 46.866259 
L 66.17716 50.795722 
L 69.627681 54.415142 
L 70.277701 54.482283 
L 72.298179 55.94587 
L 73.327377 57.10051 
L 73.002367 58.1745 
L 74.172403 59.12759 
L 76.875402 59.261823 
L 78.007519 60.422875 
L 79.264224 60.94632 
L 81.7343 63.281432 
L 88.765347 64.931857 
L 88.96577 65.092863 
L 89.502036 65.857612 
L 89.892048 66.099102 
L 90.119555 65.998482 
L 90.455398 65.71674 
L 90.856244 65.461826 
L 91.300424 65.434993 
L 92.118366 65.783822 
L 92.416291 66.078978 
L 92.622131 66.481452 
L 93.125896 67.125384 
L 94.734695 68.721659 
L 95.23846 69.808085 
L 94.940535 71.068759 
L 95.612222 74.44782 
L 96.305576 75.627598 
L 97.313107 76.478847 
L 98.342305 77.169187 
L 99.15483 78.006929 
L 99.490673 79.293592 
L 100.048607 79.554929 
L 103.574964 80.117791 
L 104.777501 80.573423 
L 105.135012 81.002238 
L 104.853336 83.748988 
L 104.430824 85.604381 
L 104.257485 86.093301 
L 103.964976 86.689357 
L 104.073313 87.23181 
L 104.338737 87.767543 
L 104.484992 88.336734 
L 104.712499 89.749557 
L 105.265016 90.646716 
L 107.464249 92.554641 
L 109.338473 93.72603 
L 110.205166 94.54259 
L 111.066442 95.64687 
L 111.570207 95.881098 
L 113.29276 96.008249 
L 113.780275 96.269239 
L 113.910279 96.804585 
L 113.650271 97.687857 
L 114.040283 97.500501 
L 114.213621 97.460353 
L 114.332791 97.373366 
L 114.571132 97.07225 
L 116.607861 99.039408 
L 117.485387 100.1366 
L 117.745395 100.992877 
L 118.092073 101.260452 
L 118.276245 101.501264 
L 118.601255 102.170162 
L 117.485387 102.150096 
L 116.461606 101.829029 
L 115.502827 101.267141 
L 114.571132 100.497849 
L 114.863641 101.27383 
L 115.486577 102.210295 
L 116.282851 102.972793 
L 117.062875 103.29383 
L 117.745395 103.815499 
L 118.249161 105.019266 
L 118.671674 106.343274 
L 119.110437 107.225868 
L 120.654234 108.0148 
L 124.668106 109.211473 
L 125.919394 110.635297 
L 127.853203 110.047071 
L 129.640757 111.183392 
L 130.962464 113.161679 
L 131.460813 115.072831 
L 132.630848 114.752099 
L 133.32962 118.23293 
L 134.635076 119.602277 
L 133.941721 117.972403 
L 133.87672 117.357805 
L 134.190896 116.749856 
L 134.797581 116.328951 
L 135.425933 116.355675 
L 136.000117 116.870112 
L 136.455131 117.878879 
L 136.823476 117.150705 
L 136.904728 116.262139 
L 136.639304 115.340101 
L 135.956783 114.511544 
L 137.148486 114.872374 
L 138.101848 116.262139 
L 140.414835 121.245292 
L 140.864432 122.641013 
L 140.56109 123.342153 
L 139.147297 122.968217 
L 139.629395 123.822912 
L 142.359478 125.765784 
L 141.969466 126.52015 
L 142.500315 126.600256 
L 143.31284 126.333231 
L 143.729936 126.046173 
L 143.562014 124.998019 
L 143.172002 124.223529 
L 142.716989 123.595889 
L 142.359478 122.968217 
L 141.806961 121.004865 
L 141.666123 119.495407 
L 142.164472 118.920963 
L 143.502429 119.836053 
L 145.549991 122.407291 
L 146.237929 122.634336 
L 147.890063 122.874731 
L 148.502165 123.24867 
L 148.643002 123.80288 
L 148.177155 124.063284 
L 147.597554 124.250236 
L 147.407965 124.604104 
L 147.695057 124.95796 
L 148.144654 125.118194 
L 148.729671 125.211663 
L 148.892176 126.079552 
L 149.011347 127.601548 
L 149.184685 128.569385 
L 150.723065 127.694998 
L 151.952686 127.688323 
L 153.063137 128.402522 
L 156.497408 131.979564 
L 156.909087 132.233121 
L 157.786614 132.513361 
L 158.10079 132.793595 
L 158.761643 134.221353 
L 161.101715 136.00915 
L 163.57179 137.376504 
L 168.8532 139.303877 
L 168.8532 139.817346 
L 166.995227 139.817346 
L 166.995227 140.37747 
L 167.471908 140.744204 
L 167.618163 141.217608 
L 167.699415 141.704327 
L 167.943173 142.104356 
L 168.381936 142.3377 
L 169.291964 142.424369 
L 171.577867 143.117703 
L 172.525812 143.677674 
L 173.289585 145.250786 
L 175.873414 147.450133 
L 176.165923 148.023231 
L 176.39343 149.502495 
L 176.799692 150.215408 
L 177.200538 150.535206 
L 178.392241 151.101494 
L 177.893892 151.614462 
L 179.421439 153.13991 
L 182.368195 156.989305 
L 183.64115 157.761698 
L 184.843687 158.84696 
L 186.631241 160.957279 
L 188.22379 162.281862 
L 188.879226 161.103723 
L 191.19763 162.967393 
L 192.064323 163.340092 
L 192.064323 163.952358 
L 191.555141 164.351645 
L 191.013458 164.657756 
L 190.42844 164.877352 
L 189.800088 165.017093 
L 189.800088 165.629273 
L 190.341771 165.915389 
L 192.29183 165.629273 
L 193.158523 165.842197 
L 193.862711 166.241421 
L 194.404395 166.467642 
L 194.78899 166.134963 
L 195.276504 167.611986 
L 196.007777 168.4103 
L 197.064059 168.782829 
L 198.477852 168.982392 
L 202.356303 170.086585 
L 203.304249 170.698503 
L 206.689768 173.74432 
L 207.318121 174.741688 
L 208.05481 176.284117 
L 208.152313 176.96219 
L 208.05481 179.06264 
L 207.783968 179.527879 
L 207.318121 180.112724 
L 207.30187 180.591213 
L 208.282317 180.790577 
L 208.867335 181.122844 
L 209.414435 181.933534 
L 210.324462 183.581323 
L 212.680784 185.747017 
z
" clip-path="url(#p086e3f1e95)" style="stroke: #000000; stroke-linejoin: miter"/>
   </g>
   <g id="line2d_1">
    <path d="M 213.054545 186.617167 
L 212.87579 187.367703 
L 211.982013 187.513819 
L 211.657003 188.031854 
L 211.814091 188.549865 
L 212.236604 189.12762 
L 212.567031 189.798312 
L 211.657003 193.051613 
L 210.811977 194.711111 
L 210.324462 195.335022 
L 209.999453 194.57836 
L 209.609441 194.784124 
L 209.26818 195.182366 
L 208.471906 195.573957 
L 208.152313 195.859346 
L 208.228149 196.277461 
L 208.509824 196.994194 
L 206.408093 198.931808 
L 205.151388 199.515683 
L 203.504672 199.223749 
L 204.880547 198.65313 
L 205.416813 198.248371 
L 205.790574 197.498536 
L 204.761376 197.531715 
L 204.311779 197.697612 
L 203.791764 197.014103 
L 203.428836 195.958898 
L 202.881736 194.790761 
L 202.605477 194.465521 
L 202.394221 193.516297 
L 201.971708 194.107081 
L 201.446276 195.839435 
L 200.899176 195.507586 
L 199.83206 193.051613 
L 200.124569 192.952036 
L 200.742087 192.547079 
L 200.135402 191.551224 
L 199.539551 191.790237 
L 199.095371 192.879012 
L 198.705359 196.091634 
L 198.932866 196.994194 
L 199.117038 197.100373 
L 200.330408 198.109025 
L 199.599136 198.308091 
L 198.683691 198.128932 
L 197.567824 197.81042 
L 197.389069 198.228465 
L 196.966556 198.692941 
L 196.441123 199.064509 
L 195.964442 199.223749 
L 194.296058 198.785834 
L 193.407698 197.777241 
L 193.494367 196.649106 
L 194.78899 195.839435 
L 194.78899 195.335022 
L 193.586453 195.481038 
L 192.123909 195.295198 
L 191.19763 194.55181 
L 191.60931 193.051613 
L 191.165129 192.547079 
L 190.168432 192.952036 
L 188.630052 192.308081 
L 187.23251 191.126299 
L 186.614991 189.984239 
L 186.322482 189.838153 
L 184.805769 190.601762 
L 184.112415 190.820876 
L 183.581565 190.6748 
L 181.913181 189.851434 
L 181.338997 189.426448 
L 181.106073 188.629557 
L 181.55567 188.171321 
L 181.853596 187.693142 
L 181.11149 186.876207 
L 180.515639 186.623809 
L 178.565579 186.298341 
L 177.893892 186.371406 
L 177.157203 187.566952 
L 176.702189 189.386605 
L 176.041336 190.6748 
L 174.719629 190.263125 
L 174.670878 190.741199 
L 174.30795 190.820876 
L 174.827966 192.347915 
L 174.145445 192.732963 
L 173.267918 192.37447 
L 173.137914 191.657452 
L 173.33292 190.953669 
L 173.441257 188.881912 
L 173.890854 188.031854 
L 173.890854 187.487253 
L 172.915824 187.553669 
L 172.032881 187.288002 
L 171.274524 186.69023 
L 170.667839 185.747017 
L 172.823738 185.853298 
L 173.76085 185.547736 
L 174.30795 184.697436 
L 173.105413 184.617717 
L 172.704568 183.906867 
L 172.942908 181.295618 
L 172.282055 181.355425 
L 170.841178 181.082972 
L 170.218242 181.295618 
L 169.996152 181.774059 
L 169.714477 183.262415 
L 169.530304 183.581323 
L 168.690696 183.727487 
L 168.365686 184.139393 
L 168.17068 184.743938 
L 167.715666 185.501237 
L 167.098147 185.800157 
L 166.789388 185.301953 
L 166.897724 184.425061 
L 167.488159 183.581323 
L 166.805638 183.102957 
L 165.175172 181.295618 
L 165.175172 180.790577 
L 165.603102 180.518112 
L 165.825192 180.219057 
L 166.041865 179.06264 
L 165.630186 179.06264 
L 164.969332 179.860181 
L 163.230529 179.42154 
L 163.355117 180.179182 
L 162.087578 180.763995 
L 160.982544 180.285514 
L 159.920845 179.620924 
L 158.761643 179.620924 
L 158.707475 178.065638 
L 158.10079 176.842533 
L 157.201596 176.018196 
L 156.269901 175.725675 
L 155.446542 175.1938 
L 154.682769 174.302857 
L 153.870245 174.129979 
L 152.862714 175.725675 
L 152.142275 175.233692 
L 151.448921 174.60871 
L 151.75768 174.183172 
L 151.914768 173.74432 
L 151.952686 172.321263 
L 152.369782 172.321263 
L 152.927716 173.059412 
L 153.658988 173.418495 
L 154.211505 173.099311 
L 154.227755 171.815837 
L 153.821493 171.024403 
L 152.521454 170.365943 
L 151.952686 169.541154 
L 153.767325 169.554457 
L 154.520264 169.727401 
L 155.137783 170.086585 
L 155.072781 169.228517 
L 154.780272 168.716306 
L 154.265673 168.476824 
L 153.545235 168.423605 
L 153.203974 167.918013 
L 153.312311 166.853537 
L 153.583153 165.875467 
L 153.772742 165.629273 
L 153.236475 163.805949 
L 152.39145 163.033947 
L 150.094713 162.22196 
L 149.287605 162.79435 
L 148.859675 162.561404 
L 148.946345 161.889162 
L 149.677617 161.103723 
L 148.978846 160.71764 
L 148.491331 160.105208 
L 148.242157 159.306336 
L 148.274658 158.320987 
L 147.234626 159.093294 
L 146.855448 159.852238 
L 146.915033 161.94241 
L 146.606274 162.441601 
L 145.902085 162.434945 
L 144.639964 162.22196 
L 144.894555 162.621305 
L 144.840386 163.606298 
L 144.412457 164.271789 
L 143.502429 163.646229 
L 142.54365 162.122121 
L 141.936965 161.403261 
L 139.867735 160.49131 
L 138.497277 157.808307 
L 137.538498 157.202384 
L 137.083484 157.055892 
L 136.579718 156.696315 
L 135.32843 155.590879 
L 134.98717 155.737388 
L 134.629659 156.030402 
L 134.190896 156.130291 
L 132.257087 156.090336 
L 131.612484 155.650815 
L 131.460813 154.405419 
L 132.858355 155.124701 
L 132.414175 154.312175 
L 130.550785 152.220668 
L 130.550785 151.581153 
L 130.83246 150.821685 
L 130.908296 150.208746 
L 130.307028 149.935578 
L 129.608256 150.128795 
L 129.331998 150.621817 
L 129.364499 151.35465 
L 129.608256 152.220668 
L 128.492389 151.774343 
L 128.264882 150.848334 
L 128.356968 149.635753 
L 128.194463 148.303105 
L 127.63653 147.47679 
L 126.943175 146.783707 
L 126.423159 145.857313 
L 126.423159 144.290945 
L 125.919394 144.290945 
L 125.383128 145.577381 
L 124.689773 146.623759 
L 123.82308 147.370164 
L 122.750548 147.696702 
L 122.734297 145.077487 
L 122.230532 144.737547 
L 120.962993 144.857527 
L 120.919659 145.037495 
L 120.86549 145.817323 
L 120.464645 146.017271 
L 120.101717 145.957287 
L 111.22353 140.877559 
L 109.181385 138.717027 
L 109.977659 137.016338 
L 109.977659 136.409367 
L 109.024297 136.809571 
L 108.466363 136.596131 
L 108.563866 136.155898 
L 109.522645 135.85573 
L 108.466363 134.93517 
L 107.361329 135.23536 
L 106.250879 135.99581 
L 105.156679 136.409367 
L 103.997477 136.155898 
L 96.993514 132.56674 
L 96.078069 131.699312 
L 95.530969 130.591583 
L 94.734695 127.508098 
L 93.47799 127.334545 
L 92.654632 126.853925 
L 90.802075 125.211663 
L 90.265809 125.044754 
L 89.664541 125.024725 
L 89.18786 124.877843 
L 88.992854 124.343712 
L 87.876987 122.968217 
L 85.396078 117.878879 
L 85.276907 117.11062 
L 85.493581 116.703089 
L 85.526082 116.328951 
L 84.903146 115.687544 
L 84.442715 115.700907 
L 83.435185 116.228733 
L 83.489353 116.195327 
L 83.261846 117.357805 
L 82.676828 117.745273 
L 82.07556 117.344443 
L 81.755967 116.195327 
L 80.743019 117.11062 
L 80.158002 117.197469 
L 79.410479 116.749856 
L 80.661767 115.166376 
L 80.510096 113.803218 
L 79.470064 113.068119 
L 78.007519 113.388895 
L 78.565453 112.159209 
L 78.256694 111.337122 
L 76.674979 110.020332 
L 76.079127 111.129921 
L 76.284967 112.860947 
L 75.770368 113.950232 
L 75.055346 114.458087 
L 74.405327 114.270985 
L 73.86906 113.656202 
L 73.495299 112.78075 
L 73.760724 112.132475 
L 73.804058 111.424012 
L 74.020732 110.715508 
L 74.405327 110.020332 
L 73.901561 109.311748 
L 72.341514 108.629864 
L 71.967752 108.108398 
L 71.512739 107.172379 
L 66.599672 100.263707 
L 66.274662 99.133075 
L 66.17716 97.373366 
L 66.220494 96.081862 
L 66.133825 94.622905 
L 65.602975 93.752803 
L 64.33002 94.261486 
L 64.519609 92.936191 
L 64.817535 92.574723 
L 64.817535 91.958864 
L 64.378771 91.95217 
L 63.419992 91.463478 
L 63.810004 90.82748 
L 63.728752 90.486036 
L 63.257487 90.486036 
L 62.509965 90.901123 
L 62.34746 91.851756 
L 61.59452 91.972253 
L 60.982418 91.342975 
L 60.727827 90.057544 
L 60.305314 89.990591 
L 59.487373 90.144583 
L 58.951106 90.606547 
L 59.362785 91.463478 
L 58.452758 92.574723 
L 57.228554 88.718413 
L 56.383528 87.138054 
L 55.278495 86.347801 
L 56.556867 85.282888 
L 55.977266 84.579595 
L 54.579723 83.909755 
L 53.458439 82.918327 
L 54.509304 82.811141 
L 55.061821 82.288596 
L 55.13224 81.538236 
L 54.780146 80.734231 
L 53.956788 80.178096 
L 53.100928 80.064186 
L 52.532161 79.715749 
L 52.505077 78.42913 
L 52.093398 78.42913 
L 51.053366 79.233282 
L 50.013334 78.650277 
L 48.420786 76.793861 
L 47.722015 76.565979 
L 46.356973 76.519062 
L 45.647368 76.17723 
L 45.365693 75.748251 
L 44.531501 73.924929 
L 43.047289 73.589731 
L 41.855586 72.718175 
L 38.952164 69.231352 
L 36.964187 67.675384 
L 36.07041 66.575361 
L 35.409557 65.260575 
L 35.842903 65.19349 
L 36.828766 65.394743 
L 37.879632 64.931857 
L 38.394231 63.643739 
L 37.987968 62.563498 
L 37.012939 61.825392 
L 35.842903 61.550269 
L 34.851623 60.664467 
L 33.383662 56.798434 
L 32.159458 55.919017 
L 30.15523 50.231565 
L 29.781469 50.533795 
L 28.790189 50.795722 
L 28.118501 49.338266 
L 23.893373 46.100378 
L 22.885842 44.299709 
L 22.116652 40.919418 
L 21.975815 39.756609 
L 21.639971 38.398747 
L 20.859947 37.780268 
L 19.960753 37.370173 
L 19.289066 36.603732 
L 18.97489 34.909334 
L 19.738663 34.727778 
L 21.526218 35.474158 
L 22.159987 34.606739 
L 22.419995 33.20799 
L 22.430828 30.679101 
L 22.159987 30.100617 
L 21.477466 29.017571 
L 20.648691 27.988258 
L 19.895751 27.524031 
L 16.764823 27.342373 
L 15.984799 26.958864 
L 16.428979 25.868829 
L 16.483147 24.785434 
L 16.060635 24.233608 
L 15.118106 24.697951 
L 15.399781 25.525652 
L 15.02602 26.454229 
L 14.370583 27.20781 
L 13.753064 27.524031 
L 12.767201 27.201081 
L 12.458442 26.434044 
L 12.279686 25.666961 
L 11.710919 25.31032 
L 10.730472 24.489335 
L 10.957979 22.860672 
L 12.182183 21.743374 
L 14.213495 22.436649 
L 14.831014 21.460669 
L 14.571006 20.457691 
L 13.303467 18.539029 
L 14.083491 18.148531 
L 14.571006 17.340566 
L 14.652258 16.27667 
L 14.213495 15.158814 
L 13.222215 14.236175 
L 12.425941 14.404545 
L 11.586332 14.943313 
L 10.540883 15.158814 
L 10.540883 14.52577 
L 10.882144 14.195766 
L 11.098817 13.825344 
L 11.445494 12.841993 
L 10.481298 12.464798 
L 10.145455 11.696902 
L 10.22129 10.672973 
L 10.540883 9.500747 
L 11.055482 9.588331 
L 11.976344 9.500747 
L 13.222215 10.390031 
L 14.522254 11.669958 
L 15.562286 13.057528 
L 16.228556 15.024126 
L 16.851492 15.488794 
L 18.341121 16.27667 
L 23.254187 23.089505 
L 24.250884 24.17977 
L 27.338478 26.232184 
L 28.671018 26.508058 
L 30.15523 25.875558 
L 30.566909 25.875558 
L 31.439019 28.169907 
L 32.148624 29.024298 
L 33.340327 29.219387 
L 32.739059 28.203545 
L 31.769446 25.39107 
L 31.336099 22.712602 
L 31.476937 22.073189 
L 32.094456 22.052996 
L 44.065653 27.463479 
L 46.189051 29.643192 
L 49.737076 34.956403 
L 50.695855 36.005339 
L 52.028396 37.121421 
L 53.425938 37.981949 
L 54.574306 38.338245 
L 56.643536 40.54975 
L 57.326057 40.919418 
L 59.362785 41.725929 
L 60.316148 42.774319 
L 62.179538 45.683828 
L 63.208736 46.288494 
L 63.777503 46.866259 
L 66.17716 50.795722 
L 69.627681 54.415142 
L 70.277701 54.482283 
L 72.298179 55.94587 
L 73.327377 57.10051 
L 73.002367 58.1745 
L 74.172403 59.12759 
L 76.875402 59.261823 
L 78.007519 60.422875 
L 79.264224 60.94632 
L 81.7343 63.281432 
L 88.96577 65.092863 
L 89.502036 65.857612 
L 89.892048 66.099102 
L 90.119555 65.998482 
L 90.856244 65.461826 
L 91.300424 65.434993 
L 92.118366 65.783822 
L 92.416291 66.078978 
L 92.622131 66.481452 
L 93.125896 67.125384 
L 94.734695 68.721659 
L 95.23846 69.808085 
L 94.940535 71.068759 
L 95.612222 74.44782 
L 96.305576 75.627598 
L 97.313107 76.478847 
L 98.342305 77.169187 
L 99.15483 78.006929 
L 99.490673 79.293592 
L 100.048607 79.554929 
L 103.574964 80.117791 
L 104.777501 80.573423 
L 105.135012 81.002238 
L 104.853336 83.748988 
L 104.257485 86.093301 
L 103.964976 86.689357 
L 104.073313 87.23181 
L 104.338737 87.767543 
L 104.484992 88.336734 
L 104.712499 89.749557 
L 105.265016 90.646716 
L 107.464249 92.554641 
L 109.338473 93.72603 
L 110.205166 94.54259 
L 111.066442 95.64687 
L 111.570207 95.881098 
L 113.29276 96.008249 
L 113.780275 96.269239 
L 113.910279 96.804585 
L 113.650271 97.687857 
L 114.332791 97.373366 
L 114.571132 97.07225 
L 116.607861 99.039408 
L 117.485387 100.1366 
L 117.745395 100.992877 
L 118.276245 101.501264 
L 118.601255 102.170162 
L 117.485387 102.150096 
L 116.461606 101.829029 
L 115.502827 101.267141 
L 114.571132 100.497849 
L 114.863641 101.27383 
L 115.486577 102.210295 
L 116.282851 102.972793 
L 117.062875 103.29383 
L 117.745395 103.815499 
L 118.249161 105.019266 
L 118.671674 106.343274 
L 119.110437 107.225868 
L 120.654234 108.0148 
L 124.668106 109.211473 
L 125.919394 110.635297 
L 127.853203 110.047071 
L 129.640757 111.183392 
L 130.962464 113.161679 
L 131.460813 115.072831 
L 132.630848 114.752099 
L 133.32962 118.23293 
L 134.635076 119.602277 
L 133.941721 117.972403 
L 133.87672 117.357805 
L 134.190896 116.749856 
L 134.797581 116.328951 
L 135.425933 116.355675 
L 136.000117 116.870112 
L 136.455131 117.878879 
L 136.823476 117.150705 
L 136.904728 116.262139 
L 136.639304 115.340101 
L 135.956783 114.511544 
L 137.148486 114.872374 
L 138.101848 116.262139 
L 140.414835 121.245292 
L 140.864432 122.641013 
L 140.56109 123.342153 
L 139.147297 122.968217 
L 139.629395 123.822912 
L 142.359478 125.765784 
L 141.969466 126.52015 
L 142.500315 126.600256 
L 143.31284 126.333231 
L 143.729936 126.046173 
L 143.562014 124.998019 
L 143.172002 124.223529 
L 142.359478 122.968217 
L 141.806961 121.004865 
L 141.666123 119.495407 
L 142.164472 118.920963 
L 143.502429 119.836053 
L 145.549991 122.407291 
L 146.237929 122.634336 
L 147.890063 122.874731 
L 148.502165 123.24867 
L 148.643002 123.80288 
L 148.177155 124.063284 
L 147.597554 124.250236 
L 147.407965 124.604104 
L 147.695057 124.95796 
L 148.729671 125.211663 
L 148.892176 126.079552 
L 149.184685 128.569385 
L 150.723065 127.694998 
L 151.952686 127.688323 
L 153.063137 128.402522 
L 156.497408 131.979564 
L 156.909087 132.233121 
L 157.786614 132.513361 
L 158.10079 132.793595 
L 158.761643 134.221353 
L 161.101715 136.00915 
L 163.57179 137.376504 
L 168.8532 139.303877 
L 168.8532 139.817346 
L 166.995227 139.817346 
L 166.995227 140.37747 
L 167.471908 140.744204 
L 167.943173 142.104356 
L 168.381936 142.3377 
L 169.291964 142.424369 
L 171.577867 143.117703 
L 172.525812 143.677674 
L 173.289585 145.250786 
L 175.873414 147.450133 
L 176.165923 148.023231 
L 176.39343 149.502495 
L 176.799692 150.215408 
L 177.200538 150.535206 
L 178.392241 151.101494 
L 177.893892 151.614462 
L 179.421439 153.13991 
L 182.368195 156.989305 
L 183.64115 157.761698 
L 184.843687 158.84696 
L 186.631241 160.957279 
L 188.22379 162.281862 
L 188.879226 161.103723 
L 191.19763 162.967393 
L 192.064323 163.340092 
L 192.064323 163.952358 
L 191.013458 164.657756 
L 189.800088 165.017093 
L 189.800088 165.629273 
L 190.341771 165.915389 
L 192.29183 165.629273 
L 193.158523 165.842197 
L 194.404395 166.467642 
L 194.78899 166.134963 
L 195.276504 167.611986 
L 196.007777 168.4103 
L 197.064059 168.782829 
L 198.477852 168.982392 
L 202.356303 170.086585 
L 203.304249 170.698503 
L 206.689768 173.74432 
L 207.318121 174.741688 
L 208.05481 176.284117 
L 208.152313 176.96219 
L 208.05481 179.06264 
L 207.318121 180.112724 
L 207.30187 180.591213 
L 208.282317 180.790577 
L 208.867335 181.122844 
L 209.414435 181.933534 
L 210.324462 183.581323 
L 212.680784 185.747017 
L 213.054545 186.617167 
L 213.054545 186.617167 
" clip-path="url(#p086e3f1e95)" style="fill: none; stroke: #000000; stroke-width: 0.5; stroke-linecap: square"/>
   </g>
  </g>
 </g>
 <defs>
  <clipPath id="p086e3f1e95">
   <rect x="0" y="0" width="223.2" height="209.01643"/>
  </clipPath>
 </defs>
</svg>
