<?xml version="1.0" encoding="utf-8" standalone="no"?>
<!DOCTYPE svg PUBLIC "-//W3C//DTD SVG 1.1//EN"
  "http://www.w3.org/Graphics/SVG/1.1/DTD/svg11.dtd">
<svg xmlns:xlink="http://www.w3.org/1999/xlink" width="223.2pt" height="169.041658pt" viewBox="0 0 223.2 169.041658" xmlns="http://www.w3.org/2000/svg" version="1.1">
 <metadata>
  <rdf:RDF xmlns:dc="http://purl.org/dc/elements/1.1/" xmlns:cc="http://creativecommons.org/ns#" xmlns:rdf="http://www.w3.org/1999/02/22-rdf-syntax-ns#">
   <cc:Work>
    <dc:type rdf:resource="http://purl.org/dc/dcmitype/StillImage"/>
    <dc:date>2026-04-26T19:22:15.772290</dc:date>
    <dc:format>image/svg+xml</dc:format>
    <dc:creator>
     <cc:Agent>
      <dc:title>Matplotlib v3.10.9, https://matplotlib.org/</dc:title>
     </cc:Agent>
    </dc:creator>
   </cc:Work>
  </rdf:RDF>
 </metadata>
 <defs>
  <style type="text/css">*{stroke-linejoin: round; stroke-linecap: butt}</style>
 </defs>
 <g id="figure_1">
  <g id="patch_1">
   <path d="M 0 169.041658 
L 223.2 169.041658 
L 223.2 0 
L 0 0 
z
" style="fill: #ffffff"/>
  </g>
  <g id="axes_1">
   <g id="patch_2">
    <path d="M 172.324462 78.675756 
L 172.513904 78.997863 
L 172.324825 79.599992 
L 172.223983 80.230347 
L 172.175663 81.555284 
L 172.00129 81.70965 
L 171.833044 82.051775 
L 171.898347 82.584775 
L 172.366843 84.140895 
L 173.106352 85.614397 
L 173.058032 86.009386 
L 172.730295 85.725815 
L 172.425668 85.6853 
L 172.299615 85.847352 
L 172.513904 86.195704 
L 172.904668 86.398198 
L 174.482427 86.705937 
L 173.751322 86.938724 
L 172.04751 87.017661 
L 171.278588 87.199808 
L 170.587399 87.642941 
L 170.889926 87.835127 
L 171.606325 87.920086 
L 172.175663 88.045492 
L 172.711387 87.557966 
L 173.673589 87.38598 
L 174.597975 87.394074 
L 175.011848 87.446683 
L 175.123195 87.82299 
L 175.364796 88.176956 
L 175.604296 88.377163 
L 175.717743 88.29223 
L 175.841695 87.655079 
L 176.070691 87.025757 
L 176.753476 87.327298 
L 176.904739 87.53571 
L 176.950959 87.956495 
L 176.871125 88.644065 
L 176.963564 88.795692 
L 177.318612 88.724935 
L 177.543406 88.534883 
L 177.728283 88.23965 
L 177.946775 87.976722 
L 178.282915 87.861424 
L 178.667376 87.891767 
L 179.051837 88.00504 
L 179.345959 88.215381 
L 179.448902 88.555103 
L 180.177907 87.988858 
L 180.488837 87.861424 
L 180.595982 88.298297 
L 180.896407 88.551059 
L 181.257758 88.753238 
L 181.551881 89.050392 
L 181.577092 89.244421 
L 181.503561 89.448528 
L 181.409022 89.622301 
L 181.375407 89.741505 
L 181.440535 89.888982 
L 181.654824 90.143498 
L 181.724153 90.264681 
L 181.818693 90.941106 
L 181.743061 91.661619 
L 181.535074 92.359602 
L 181.211539 92.974606 
L 180.892206 92.637897 
L 180.25564 93.222553 
L 179.787144 93.14394 
L 179.625376 93.669963 
L 179.61067 93.835188 
L 179.400582 93.627646 
L 179.173687 93.585328 
L 178.944692 93.669963 
L 178.730402 93.835188 
L 178.619056 93.520841 
L 178.289218 92.964526 
L 178.186275 92.637897 
L 178.188376 92.254723 
L 178.261906 92.044945 
L 178.226192 91.855312 
L 177.929968 91.536513 
L 177.79131 91.209573 
L 177.841731 90.844204 
L 177.822823 90.543365 
L 177.484582 90.420185 
L 177.085415 90.52923 
L 176.915244 90.777581 
L 176.988774 91.064244 
L 177.318612 91.282233 
L 176.950959 91.952149 
L 176.921546 92.629832 
L 177.19466 93.295115 
L 178.009801 94.189758 
L 177.923665 94.244144 
L 177.318612 94.159542 
L 175.629506 94.159542 
L 175.276559 94.016513 
L 174.684111 93.520841 
L 174.093765 93.649812 
L 173.782835 93.480535 
L 173.234506 92.974606 
L 172.232387 92.248673 
L 172.207176 91.915835 
L 172.705084 91.451758 
L 172.251295 91.475974 
L 171.5454 91.716098 
L 169.438219 91.92794 
L 168.719719 92.194213 
L 167.223894 92.297079 
L 164.952845 92.867755 
L 163.906608 92.984686 
L 163.686016 92.889932 
L 163.786858 92.625799 
L 164.043165 92.442289 
L 164.360397 92.333383 
L 165.053687 92.254723 
L 168.942412 91.318561 
L 169.339478 91.282233 
L 169.717636 91.2015 
L 169.522254 91.013779 
L 168.807956 90.684706 
L 168.488622 90.63221 
L 167.66928 90.717011 
L 167.223894 90.589807 
L 167.045319 90.450476 
L 166.730188 90.103102 
L 166.522201 89.929385 
L 165.828911 89.693016 
L 165.167134 89.77181 
L 164.496954 89.971806 
L 163.770051 90.080883 
L 163.339371 90.341425 
L 163.093568 90.959275 
L 162.986423 91.689868 
L 162.975919 92.297079 
L 163.043147 92.662095 
L 163.093568 92.807269 
L 163.024239 92.93227 
L 162.711208 93.2286 
L 162.433892 93.327364 
L 160.286795 93.567191 
L 159.980067 93.524872 
L 159.446253 93.645304 
L 158.985549 94.016447 
L 157.795154 94.302557 
L 157.261531 94.630837 
L 154.576609 95.510592 
L 149.597528 98.028205 
L 148.820203 98.116606 
L 148.398574 98.057688 
L 148.00544 98.092934 
L 147.677326 98.239153 
L 145.761325 99.164959 
L 144.803325 99.311509 
L 144.406259 99.419906 
L 144.091127 99.624634 
L 143.815912 99.851408 
L 143.525991 100.034006 
L 142.799087 100.184482 
L 142.1121 100.533527 
L 141.828482 100.61175 
L 141.395875 100.710563 
L 140.929028 101.097531 
L 140.671034 101.285116 
L 140.498626 101.491972 
L 139.830547 101.664346 
L 139.515415 101.8367 
L 137.937656 103.002561 
L 137.309493 103.254842 
L 136.794778 103.118696 
L 136.425024 103.290879 
L 136.113137 103.452323 
L 135.897703 103.725251 
L 135.809467 103.965401 
L 134.410282 105.735293 
L 134.30944 106.017077 
L 134.30944 107.419194 
L 134.168681 107.876288 
L 133.824137 108.239465 
L 133.076224 108.849876 
L 133.021602 109.071236 
L 133.011097 109.348387 
L 132.924961 109.585618 
L 132.630838 109.687276 
L 132.416549 109.731127 
L 131.668636 110.038043 
L 132.240075 110.524192 
L 132.374531 111.366596 
L 132.374531 113.207017 
L 132.670755 114.38365 
L 132.708571 114.80279 
L 132.576215 115.261519 
L 132.269487 115.446161 
L 131.920742 115.577182 
L 131.668636 115.874913 
L 132.408145 115.960251 
L 132.664452 116.551524 
L 132.639242 117.348759 
L 132.424952 118.791371 
L 132.153939 119.282476 
L 131.847019 119.63295 
L 131.635095 119.954126 
L 131.386315 120.318616 
L 131.277873 120.687519 
L 129.534144 122.877388 
L 126.672749 124.848907 
L 125.273564 126.868856 
L 124.655906 128.592855 
L 124.313463 129.096269 
L 124.004634 129.709557 
L 124.363884 130.00824 
L 124.811371 130.287215 
L 124.76095 130.841069 
L 123.802949 131.59097 
L 123.563449 131.916716 
L 123.559247 132.179612 
L 123.657989 132.442458 
L 123.721015 132.752316 
L 123.361765 133.189528 
L 122.643265 133.512937 
L 122.109642 133.885252 
L 122.294519 134.47683 
L 121.987791 134.762733 
L 121.676861 134.905662 
L 121.323913 134.88021 
L 120.88483 134.656995 
L 120.916343 134.919367 
L 121.00458 135.164072 
L 121.237777 135.627911 
L 120.807097 135.89401 
L 120.475159 135.987915 
L 119.546571 135.968352 
L 119.025553 136.089638 
L 119.038158 136.338044 
L 119.416316 136.570762 
L 120.004562 136.625514 
L 119.395307 137.49733 
L 119.193623 137.626295 
L 118.903702 137.681004 
L 118.578066 137.815814 
L 118.048645 138.118597 
L 117.834355 138.16938 
L 117.664184 138.13227 
L 117.544434 138.145942 
L 117.504517 138.354917 
L 117.504517 138.583386 
L 117.529728 138.708344 
L 117.638974 138.763009 
L 117.872171 138.770818 
L 118.262934 138.864525 
L 118.605377 139.012881 
L 118.937316 139.046063 
L 119.28186 138.770818 
L 119.752457 139.036304 
L 120.43104 139.268561 
L 120.954159 139.516388 
L 120.966764 139.83635 
L 120.508773 140.064569 
L 119.252448 140.230345 
L 118.735632 140.40975 
L 118.239825 140.928332 
L 118.048645 141.080359 
L 117.823851 141.134929 
L 117.529728 141.175855 
L 117.273421 141.263549 
L 116.949886 141.871406 
L 115.987684 142.288175 
L 115.73978 142.697029 
L 116.222982 142.531555 
L 117.153671 142.369956 
L 117.937298 141.925944 
L 119.105386 141.629855 
L 119.462536 141.403848 
L 119.853299 140.85816 
L 120.16633 140.573534 
L 120.521378 140.41755 
L 120.844913 140.362951 
L 121.139036 140.249847 
L 121.414251 139.918279 
L 121.678962 140.222544 
L 121.779804 140.593031 
L 121.689466 141.902571 
L 121.464672 142.216126 
L 121.084413 142.338802 
L 120.531882 142.369956 
L 120.004562 142.34659 
L 119.899518 142.381638 
L 119.634808 142.519874 
L 119.49825 142.677562 
L 119.504553 142.841071 
L 119.447829 142.973421 
L 114.103196 143.335371 
L 111.897274 143.821708 
L 109.981274 144.735546 
L 108.483348 146.138143 
L 108.077878 146.695276 
L 107.983339 146.968905 
L 107.901404 147.68473 
L 107.668207 148.124898 
L 107.617786 148.342019 
L 107.428707 148.847852 
L 106.966514 149.299257 
L 106.386671 149.659496 
L 105.840443 149.893792 
L 104.474873 150.255805 
L 103.836206 150.519024 
L 103.275271 150.956318 
L 102.831986 151.389598 
L 102.342482 151.751202 
L 98.768888 153.385879 
L 97.873914 154.179297 
L 97.525168 155.421548 
L 97.588195 156.04994 
L 97.466344 156.292735 
L 96.73944 156.464205 
L 96.134387 156.799375 
L 95.9264 156.874487 
L 95.483115 156.824413 
L 94.613352 156.602906 
L 94.174268 156.550895 
L 93.730983 156.591349 
L 92.987272 156.801301 
L 92.571298 156.874487 
L 92.976768 156.984259 
L 95.054536 157.051658 
L 94.53772 157.867874 
L 93.726781 158.219997 
L 92.798193 158.45277 
L 91.945237 158.914344 
L 91.577583 158.891269 
L 90.909504 158.716272 
L 90.184701 158.598953 
L 89.646876 158.752812 
L 89.319139 158.952801 
L 87.953569 159.471861 
L 88.10063 159.583335 
L 88.356937 159.858137 
L 88.501898 159.971499 
L 87.802306 160.111748 
L 86.936744 159.944601 
L 86.142612 159.906173 
L 85.663612 160.455581 
L 85.123686 160.182827 
L 84.959818 160.13288 
L 84.071146 160.031059 
L 83.617357 160.056034 
L 83.270712 160.203958 
L 82.741291 160.574652 
L 82.432462 160.716755 
L 82.123633 160.778201 
L 81.222356 160.858843 
L 80.875711 160.820443 
L 80.53747 160.601538 
L 80.636211 160.129038 
L 80.571084 159.858137 
L 80.524864 159.850451 
L 80.201329 159.794726 
L 79.966031 159.961893 
L 79.98704 160.490151 
L 79.665605 160.653387 
L 79.617285 160.7686 
L 79.550057 160.883803 
L 79.394592 160.939481 
L 78.606763 160.939481 
L 78.146671 160.839643 
L 77.877758 160.624582 
L 77.705486 160.399882 
L 77.524811 160.278873 
L 77.192872 160.307686 
L 77.184469 160.515118 
L 77.264302 160.805082 
L 77.171863 161.10074 
L 76.478574 161.357946 
L 75.606709 161.212075 
L 74.72224 160.929881 
L 73.999538 160.778201 
L 73.161287 160.797402 
L 72.68859 160.747478 
L 72.386063 160.469025 
L 71.736892 158.987412 
L 71.692774 158.752812 
L 71.545712 158.483547 
L 71.192765 158.483547 
L 70.432247 158.664345 
L 67.785141 158.99318 
L 66.902772 158.987412 
L 67.117062 158.73935 
L 67.427992 158.658575 
L 67.785141 158.622033 
L 68.138088 158.506629 
L 67.621272 158.30657 
L 66.972101 158.210378 
L 65.684263 158.183442 
L 65.888048 158.514323 
L 66.222088 158.725888 
L 66.373351 158.902807 
L 66.03721 159.148915 
L 66.133851 159.221969 
L 66.297719 159.39882 
L 66.390158 159.471861 
L 65.003578 159.763981 
L 60.55602 159.471861 
L 60.881656 159.06432 
L 61.028717 158.947033 
L 61.243007 158.841272 
L 61.612762 158.76435 
L 62.535047 158.775889 
L 62.848078 158.841272 
L 63.114889 159.110463 
L 63.860701 159.20659 
L 64.322894 159.072011 
L 63.730446 158.664345 
L 62.982534 158.472005 
L 60.732494 158.506629 
L 59.692559 158.087241 
L 59.175743 158.012198 
L 58.95305 158.42584 
L 59.116919 158.906653 
L 59.900546 159.544897 
L 60.203072 159.971499 
L 59.495077 159.892723 
L 58.558085 159.166217 
L 57.974041 158.987412 
L 57.883703 158.887423 
L 57.835383 158.664345 
L 57.679918 158.441228 
L 57.001335 158.298875 
L 56.810155 158.164203 
L 56.698808 157.956395 
L 56.648387 157.683115 
L 57.442519 157.527204 
L 57.719835 157.536829 
L 57.990848 157.594575 
L 58.037067 157.660018 
L 58.034966 157.76395 
L 58.161019 157.931378 
L 58.324888 157.771648 
L 59.675752 157.051658 
L 59.915252 156.419895 
L 59.736678 155.652893 
L 59.257677 155.093739 
L 58.602203 155.097596 
L 58.81019 155.695302 
L 58.549682 156.250345 
L 58.053874 156.589422 
L 57.528655 156.550895 
L 57.226128 156.227223 
L 56.692505 155.249941 
L 55.312229 153.611791 
L 54.88365 153.316359 
L 54.152544 153.190829 
L 51.625188 153.478565 
L 51.253333 153.605999 
L 51.238626 153.882063 
L 51.328964 154.159998 
L 51.263837 154.287366 
L 50.88778 154.210175 
L 50.431889 154.06929 
L 49.990705 153.976645 
L 49.66717 154.05964 
L 48.885643 153.978575 
L 48.389836 153.988226 
L 48.171345 154.214035 
L 48.028485 154.462958 
L 47.723858 154.526629 
L 47.415029 154.495759 
L 47.150318 154.434016 
L 46.784765 154.310522 
L 46.583081 154.287366 
L 46.406607 154.341397 
L 46.015844 154.565216 
L 45.864581 154.611518 
L 45.568357 154.532417 
L 45.316252 154.370341 
L 45.076752 154.138769 
L 44.788931 154.048059 
L 44.559936 153.837665 
L 44.194383 153.397465 
L 43.944378 153.23718 
L 43.337225 153.009271 
L 43.028396 152.843144 
L 43.385545 152.704044 
L 43.738492 152.611302 
L 44.049422 152.470246 
L 44.293124 152.180356 
L 42.971672 151.054979 
L 42.328803 150.370002 
L 42.322501 149.893792 
L 41.935939 149.674988 
L 40.8855 149.605273 
L 40.364482 149.49682 
L 39.150175 148.981546 
L 38.774118 148.917607 
L 35.818183 148.710269 
L 35.608095 148.756778 
L 35.45263 148.927295 
L 35.431621 149.314753 
L 35.33288 149.49682 
L 35.036656 149.870558 
L 34.931612 150.197734 
L 34.87909 150.515154 
L 34.727827 150.867323 
L 34.393787 151.159436 
L 33.998822 151.234872 
L 33.126958 151.192319 
L 32.704682 151.281292 
L 31.918953 151.600385 
L 31.538694 151.693197 
L 31.023979 151.658393 
L 29.965137 151.393466 
L 29.406303 151.370259 
L 28.977724 151.447616 
L 28.771838 151.517234 
L 28.612171 151.611986 
L 28.431496 151.681596 
L 28.288636 151.586849 
L 28.175189 151.443749 
L 28.078548 151.370259 
L 27.782325 151.323842 
L 26.131035 150.820888 
L 25.68985 150.828627 
L 25.250767 150.878931 
L 24.807481 150.867323 
L 23.044845 150.557729 
L 19.500664 150.615783 
L 17.773742 150.418388 
L 16.317834 149.731144 
L 15.548913 149.062919 
L 15.431263 148.838164 
L 15.586728 148.685077 
L 16.317834 148.469949 
L 16.578343 148.342019 
L 17.565755 147.61685 
L 18.448124 146.802017 
L 19.175028 145.687607 
L 19.588901 145.201946 
L 20.120423 144.995973 
L 20.876739 144.871596 
L 22.057432 144.241762 
L 22.691897 143.988968 
L 22.691897 143.839213 
L 22.128862 143.891726 
L 20.559506 144.506173 
L 19.435537 144.778306 
L 18.830484 145.003746 
L 18.448124 145.308807 
L 18.353585 145.578835 
L 18.416611 145.751701 
L 18.494343 145.90901 
L 18.448124 146.138143 
L 18.340979 146.188625 
L 17.536343 146.759322 
L 17.490124 146.856355 
L 17.422896 146.846652 
L 17.196001 146.638991 
L 17.21701 146.518649 
L 17.322053 146.336175 
L 17.322053 146.136201 
L 17.036334 145.961442 
L 16.69179 146.706921 
L 15.876649 147.015474 
L 14.006868 147.277397 
L 14.004767 146.864117 
L 14.093004 146.483709 
L 14.322 146.297348 
L 14.72957 146.462357 
L 14.817807 145.699261 
L 15.103526 145.180573 
L 15.595132 144.813291 
L 16.317834 144.506173 
L 17.874584 144.265095 
L 18.544764 144.055088 
L 18.977545 143.514363 
L 18.095177 143.794478 
L 17.196001 143.988968 
L 16.840952 143.967575 
L 16.349347 143.880057 
L 15.948079 143.747796 
L 15.876649 143.59607 
L 17.284238 142.475095 
L 17.515334 142.225863 
L 17.565755 142.042803 
L 17.307347 141.851928 
L 17.015325 141.886989 
L 16.727505 142.040856 
L 16.490106 142.20639 
L 16.385062 142.315436 
L 16.273715 142.475095 
L 16.187579 142.646415 
L 16.158167 142.778785 
L 15.679167 143.000668 
L 15.523702 143.103812 
L 14.822009 143.848938 
L 14.72957 144.084257 
L 14.34721 144.346755 
L 11.893385 144.819121 
L 11.553043 144.957107 
L 10.943788 145.392347 
L 10.746306 145.485594 
L 10.557227 145.361263 
L 10.359744 145.081475 
L 10.221086 144.782193 
L 10.221086 144.587819 
L 10.317727 144.311758 
L 10.284112 143.988968 
L 10.145455 143.514363 
L 10.153858 141.362929 
L 10.324029 140.807477 
L 10.746306 140.573534 
L 12.418604 140.40975 
L 14.200149 140.40975 
L 14.006868 140.573534 
L 14.200149 140.752894 
L 14.838816 140.394151 
L 15.603535 140.251797 
L 17.212808 140.245946 
L 17.876685 140.169888 
L 19.248559 139.830497 
L 19.954454 139.754415 
L 20.717072 139.840251 
L 21.07002 139.828547 
L 21.366243 139.672476 
L 21.580533 139.491022 
L 21.830537 139.332961 
L 22.33895 139.083149 
L 23.591073 138.720058 
L 24.137301 138.438889 
L 24.456635 137.938889 
L 23.355775 138.224068 
L 22.956608 138.267035 
L 21.103634 138.118597 
L 18.691826 138.579481 
L 18.090975 138.4467 
L 18.569975 137.743526 
L 18.880905 137.487559 
L 19.330493 137.28236 
L 20.704467 137.016532 
L 21.103634 136.789755 
L 18.616194 137.03217 
L 18.179212 136.953976 
L 17.981729 136.379115 
L 18.000637 135.847055 
L 18.290558 135.451788 
L 18.889308 135.29913 
L 19.582598 135.193433 
L 20.876739 134.741194 
L 21.637257 134.656995 
L 22.998626 134.974185 
L 23.710823 135.001593 
L 24.265455 134.656995 
L 23.395692 134.670702 
L 23.004928 134.574749 
L 22.691897 134.312311 
L 24.359994 133.965581 
L 25.116311 133.591327 
L 25.336903 132.983683 
L 21.901967 134.179114 
L 19.77798 134.459204 
L 18.355685 134.985931 
L 18.069966 135.005508 
L 17.509032 135.111219 
L 17.212808 135.134709 
L 16.759018 135.103389 
L 16.551031 135.005508 
L 16.2359 134.566915 
L 16.238 134.206538 
L 17.196001 132.834671 
L 17.658194 131.382923 
L 17.918703 131.006003 
L 19.072085 130.601486 
L 20.332612 130.951027 
L 21.578432 131.492839 
L 22.691897 131.665545 
L 22.399875 131.094353 
L 21.998608 130.499356 
L 21.595239 130.281322 
L 21.280107 130.841069 
L 20.805309 130.585774 
L 19.788484 130.240069 
L 19.330493 130.020029 
L 18.994352 129.741001 
L 18.910317 129.47764 
L 19.05948 129.172945 
L 19.414528 128.773791 
L 20.292695 128.152219 
L 20.85573 127.864943 
L 21.103634 127.94759 
L 21.30952 128.358784 
L 21.794823 128.665626 
L 22.868371 129.01369 
L 22.633073 129.131658 
L 22.425086 129.279104 
L 22.261217 129.461916 
L 22.166678 129.689905 
L 22.990222 129.627015 
L 23.712924 129.399016 
L 24.410416 129.35577 
L 25.145723 129.854977 
L 25.3306 130.080936 
L 25.437745 130.293108 
L 25.389425 130.530781 
L 25.145723 130.841069 
L 24.481845 131.188587 
L 24.204529 131.412366 
L 24.441929 131.516391 
L 25.317995 131.481062 
L 25.626824 131.355443 
L 25.960863 131.096316 
L 26.137337 130.786086 
L 26.242381 130.471858 
L 26.427258 130.342218 
L 27.128952 130.764485 
L 27.452487 130.90783 
L 27.712996 131.106133 
L 27.885268 131.673395 
L 28.349562 132.489529 
L 28.460908 132.426767 
L 28.526035 132.340464 
L 28.721417 132.434612 
L 29.057557 132.55425 
L 29.229829 132.669955 
L 29.08697 131.88336 
L 27.750811 130.729137 
L 25.145723 129.01369 
L 25.519679 128.677426 
L 25.954561 128.512213 
L 28.578557 127.990879 
L 29.055457 128.022361 
L 29.318066 128.215175 
L 29.767654 128.797389 
L 30.129005 129.01369 
L 30.608005 129.123794 
L 31.141628 129.13559 
L 31.608023 129.001893 
L 31.891642 128.683326 
L 31.475668 128.596789 
L 30.568089 128.628258 
L 30.208839 128.453204 
L 29.956733 128.199436 
L 29.887404 128.087291 
L 29.935724 127.626813 
L 30.082786 127.36502 
L 30.303378 127.254776 
L 30.301277 127.225245 
L 29.332772 127.237058 
L 28.349562 127.544147 
L 27.694088 127.656335 
L 25.591109 127.80197 
L 25.145723 127.626813 
L 25.0911 127.30793 
L 24.857903 126.825531 
L 24.700337 126.340995 
L 24.227639 126.07699 
L 24.116293 125.80111 
L 24.044863 124.718742 
L 24.22974 124.314365 
L 24.807481 124.055896 
L 25.576403 124.067736 
L 26.187758 124.363685 
L 27.19618 125.30439 
L 27.492403 125.462098 
L 27.927285 125.570512 
L 28.326452 125.570512 
L 28.526035 125.395074 
L 28.385277 125.241302 
L 27.454588 124.718742 
L 26.515495 123.90395 
L 25.973469 123.594086 
L 25.336903 123.558556 
L 26.355828 122.446798 
L 26.977688 122.041766 
L 27.549127 122.136613 
L 28.526035 123.228872 
L 28.582759 123.580269 
L 28.540741 123.901977 
L 28.582759 124.174285 
L 28.878983 124.387359 
L 29.01554 124.055896 
L 28.939908 123.568426 
L 29.055457 123.380892 
L 29.444119 123.262437 
L 31.009273 123.380892 
L 30.61851 123.074862 
L 29.154198 122.711488 
L 28.612171 122.474455 
L 28.175189 122.077334 
L 27.870561 121.672195 
L 27.830645 121.272871 
L 28.173088 120.891233 
L 28.80125 120.731033 
L 29.465128 120.867501 
L 30.152115 121.098873 
L 30.832799 121.223442 
L 31.372725 121.415218 
L 32.011392 121.780902 
L 32.584931 121.992363 
L 32.950484 121.721609 
L 32.465181 121.62871 
L 29.355882 120.422449 
L 29.055457 120.21471 
L 29.171005 119.872368 
L 29.603786 119.535882 
L 30.893725 118.791371 
L 31.318102 118.640837 
L 31.803405 118.573488 
L 32.418962 118.551698 
L 32.276102 118.442742 
L 32.028199 118.171307 
L 31.891642 118.054395 
L 33.876971 117.25359 
L 34.727827 117.217901 
L 35.078674 117.971164 
L 35.162709 118.078175 
L 35.343384 118.218861 
L 35.528261 118.399157 
L 35.608095 118.634895 
L 35.540867 118.866632 
L 35.28456 119.333952 
L 35.255147 119.563596 
L 35.461033 119.892159 
L 35.774064 120.141499 
L 35.961042 120.438275 
L 35.784569 120.891233 
L 36.742569 120.96045 
L 37.192157 120.909032 
L 37.112323 120.644003 
L 37.003078 120.51147 
L 36.914841 120.339357 
L 36.860218 120.149414 
L 36.843411 119.971319 
L 36.76988 119.824869 
L 36.234156 119.472535 
L 36.164827 119.229017 
L 36.217349 118.878515 
L 36.229955 118.490287 
L 36.05138 118.13564 
L 35.862301 117.883965 
L 35.486244 117.094962 
L 35.414814 116.797485 
L 35.734147 115.960251 
L 36.494665 115.420352 
L 37.427455 115.336967 
L 38.250999 115.874913 
L 38.433776 116.202346 
L 38.360245 116.36901 
L 38.150157 116.54359 
L 37.914859 116.888718 
L 37.788806 117.338846 
L 37.860236 117.695675 
L 38.120745 117.981073 
L 38.585039 118.218861 
L 38.63546 117.669907 
L 38.856052 117.309106 
L 39.127065 116.987877 
L 39.326649 116.555492 
L 39.272026 116.059475 
L 38.595543 115.551376 
L 38.427473 115.126497 
L 38.145955 114.804777 
L 38.087131 114.622039 
L 38.582938 114.451197 
L 38.843447 114.276362 
L 39.116561 114.177014 
L 39.404381 114.308152 
L 39.889684 114.77697 
L 40.31196 115.064939 
L 40.790961 115.241664 
L 41.456939 115.376675 
L 41.019956 115.209895 
L 40.04725 114.391597 
L 39.385473 113.980285 
L 39.272026 113.7239 
L 39.486315 113.374031 
L 39.895987 113.145376 
L 41.263658 112.87691 
L 41.446434 112.729729 
L 41.654421 112.381606 
L 41.793079 112.224426 
L 41.96325 112.152794 
L 42.402334 112.059269 
L 42.587211 111.957777 
L 43.330922 111.414378 
L 44.087238 111.197358 
L 44.849857 111.316823 
L 45.990633 112.023449 
L 46.860397 112.371659 
L 47.200739 112.626295 
L 47.994871 113.707999 
L 48.177647 113.425721 
L 48.234371 113.061859 
L 48.171345 112.685969 
L 47.994871 112.375638 
L 47.852011 112.280137 
L 47.270068 112.041359 
L 46.583081 111.539796 
L 46.427616 111.452203 
L 46.299462 111.432295 
L 46.17341 111.384514 
L 46.036853 111.205323 
L 45.996936 111.022127 
L 46.036853 110.368802 
L 45.872984 109.659371 
L 45.717519 109.298543 
L 45.511633 109.017395 
L 46.120888 108.415034 
L 48.259582 106.750261 
L 49.009595 106.292814 
L 49.944486 105.849212 
L 50.591556 105.287523 
L 50.461302 104.47959 
L 52.784873 104.47959 
L 53.024373 104.385569 
L 53.335303 103.959398 
L 53.345807 103.583143 
L 53.263873 103.505078 
L 53.036978 103.290879 
L 52.400412 103.118696 
L 52.400412 102.950498 
L 53.608417 102.670125 
L 54.09582 102.457806 
L 55.034913 101.696413 
L 56.648387 100.948663 
L 57.663111 100.256705 
L 58.513967 99.504209 
L 58.549682 99.353664 
L 58.57069 99.09469 
L 58.646322 98.787477 
L 58.85641 98.492251 
L 59.125322 98.293392 
L 59.411041 98.124642 
L 59.713568 97.99204 
L 60.011893 97.901622 
L 59.83752 97.839331 
L 59.308098 97.549946 
L 59.812309 97.371061 
L 60.327024 97.272565 
L 61.923691 97.200196 
L 62.881692 97.043385 
L 63.751455 96.733735 
L 64.280876 96.472293 
L 64.52878 96.291267 
L 64.881728 96.14643 
L 65.545605 96.198734 
L 65.7725 96.126313 
L 66.406965 95.705799 
L 66.846048 95.874824 
L 67.251518 96.315405 
L 67.785141 96.707593 
L 69.012054 96.8383 
L 70.482668 96.514529 
L 71.888155 95.909029 
L 73.444906 94.824146 
L 74.642406 94.25623 
L 75.138213 93.91175 
L 75.592003 93.673993 
L 77.239091 93.05726 
L 77.647765 92.791826 
L 77.778297 92.578108 
L 77.797925 92.331366 
L 77.894565 92.129667 
L 78.087846 91.994513 
L 78.793741 91.681797 
L 79.047947 91.621264 
L 79.529048 91.435613 
L 80.510158 90.60798 
L 80.976553 90.420185 
L 81.487067 90.288917 
L 83.358949 89.402051 
L 84.659392 89.098902 
L 85.363186 88.834102 
L 85.663612 88.470179 
L 85.781261 88.276052 
L 86.058577 88.077854 
L 86.382112 87.922108 
L 86.636318 87.861424 
L 87.335911 87.806806 
L 87.558604 87.849287 
L 87.78325 87.876007 
L 88.005924 87.839041 
L 88.310718 87.691495 
L 88.693078 87.424426 
L 89.72671 87.215998 
L 90.606978 86.738327 
L 91.651114 86.900266 
L 92.220452 86.855734 
L 93.55661 86.114699 
L 94.079729 86.009386 
L 94.4894 85.810892 
L 95.365466 84.874784 
L 95.749927 84.556538 
L 95.90418 84.282509 
L 95.920098 83.970549 
L 96.441115 83.536489 
L 97.113396 83.447227 
L 97.39686 83.215003 
L 97.439032 82.877048 
L 97.602901 82.33508 
L 98.138625 81.868062 
L 98.70166 81.543097 
L 102.142898 80.327927 
L 102.474837 79.933502 
L 102.693328 79.270478 
L 103.257014 79.133839 
L 103.644005 78.883983 
L 103.882425 78.485055 
L 104.075706 78.134945 
L 104.332013 77.976148 
L 104.958074 77.784756 
L 105.613548 77.442634 
L 105.966496 77.32043 
L 106.376167 77.271545 
L 106.672391 77.328577 
L 107.231224 77.572975 
L 107.529549 77.629996 
L 109.201848 75.734969 
L 108.378304 75.620785 
L 107.731233 76.134543 
L 107.157694 76.788727 
L 106.542136 77.100437 
L 107.037944 76.012236 
L 107.91401 75.272067 
L 108.582751 74.916591 
L 108.834194 74.535627 
L 108.834194 74.347892 
L 110.738845 74.254372 
L 111.310118 74.057442 
L 111.512814 73.900908 
L 111.304827 73.666139 
L 111.764919 73.408873 
L 112.124169 73.045363 
L 112.521235 72.824764 
L 113.082169 72.994301 
L 113.168305 72.571446 
L 113.447784 72.481104 
L 113.60949 72.293566 
L 114.645223 71.831686 
L 116.951986 71.240852 
L 117.954105 70.664115 
L 118.773448 70.5782 
L 119.17894 70.562276 
L 119.455362 70.526388 
L 119.674724 70.33884 
L 120.004562 70.06261 
L 120.292382 69.892756 
L 121.237777 69.546851 
L 121.689466 69.180395 
L 122.613852 68.201398 
L 123.088651 68.000608 
L 123.525633 67.726017 
L 125.731555 64.965162 
L 126.065595 64.71879 
L 126.315599 64.65103 
L 126.845052 64.485522 
L 127.300911 64.256738 
L 127.502595 63.93425 
L 127.882854 63.455532 
L 128.126556 63.239753 
L 128.391267 63.147268 
L 128.80724 62.949948 
L 129.242122 62.483271 
L 129.891294 61.594768 
L 130.351386 61.393141 
L 132.198057 58.641892 
L 132.73168 58.182204 
L 133.000056 57.806712 
L 133.076224 57.000432 
L 133.244295 56.412317 
L 134.504821 54.99377 
L 135.05105 53.846874 
L 135.740138 50.098846 
L 136.20023 49.157901 
L 136.313677 48.591831 
L 136.576287 47.963326 
L 136.706541 47.759996 
L 137.58891 46.958879 
L 137.967068 46.506263 
L 138.223375 45.924738 
L 138.658257 44.320329 
L 139.021709 43.817072 
L 139.269612 42.982826 
L 139.799034 42.010744 
L 139.630963 41.7213 
L 139.439784 41.910798 
L 139.328437 41.723382 
L 139.294823 41.5776 
L 139.265411 40.371281 
L 139.672981 40.146171 
L 141.217126 40.321259 
L 143.013377 40.13158 
L 143.496579 40.156594 
L 143.687759 40.146171 
L 144.967193 39.739647 
L 147.404212 38.571642 
L 148.055484 37.999856 
L 148.282379 37.855836 
L 148.664738 37.795302 
L 149.009282 37.843311 
L 149.259287 37.786952 
L 149.437862 37.185664 
L 149.643748 37.031132 
L 149.902156 36.897471 
L 150.15216 36.715759 
L 150.513511 36.283329 
L 151.471511 34.684256 
L 151.610169 34.5525 
L 151.729919 34.533677 
L 151.811854 34.435375 
L 151.853871 33.904027 
L 151.893788 33.84335 
L 151.969419 33.805688 
L 152.097573 33.719898 
L 152.307661 33.48971 
L 152.442117 33.240653 
L 152.524051 32.964345 
L 152.549262 32.656585 
L 152.845486 32.27966 
L 153.52617 31.843998 
L 154.288789 31.481559 
L 154.824512 31.330695 
L 154.727872 31.091799 
L 154.704762 30.838197 
L 154.761486 30.595039 
L 155.110232 30.096037 
L 155.160653 29.794049 
L 155.17746 29.236069 
L 155.259394 28.612846 
L 155.385447 28.367271 
L 155.63125 28.436539 
L 155.751 28.400856 
L 155.988399 28.285405 
L 156.290925 28.174145 
L 156.601855 28.165747 
L 156.097644 27.439225 
L 155.950583 27.119962 
L 155.719486 24.269164 
L 155.782513 23.95352 
L 156.009408 23.364163 
L 156.055627 23.124152 
L 155.89596 21.78032 
L 155.89596 18.965005 
L 155.744697 18.154362 
L 155.753101 17.698209 
L 155.975794 17.497548 
L 156.303531 17.482762 
L 156.530425 17.413052 
L 156.709 17.256725 
L 157.04304 16.741167 
L 157.660698 16.113418 
L 157.748935 15.967545 
L 157.795154 15.694793 
L 157.849777 15.580606 
L 158.02625 15.447377 
L 158.198522 15.428344 
L 158.366593 15.430459 
L 158.538865 15.371242 
L 158.6229 15.252803 
L 158.702733 15.083591 
L 158.81408 14.922824 
L 158.988453 14.857244 
L 159.022067 14.85936 
L 159.368711 14.872053 
L 159.55569 14.846666 
L 159.904435 14.603362 
L 160.627137 14.220354 
L 160.933865 14.146282 
L 161.043111 14.046809 
L 162.38137 13.255058 
L 164.963349 10.803453 
L 166.087319 9.961452 
L 167.04742 9.668672 
L 166.627245 10.529899 
L 166.593631 10.818295 
L 166.959183 10.930672 
L 167.089438 10.803453 
L 167.234398 10.56171 
L 167.423477 10.389925 
L 167.845754 10.555348 
L 168.07685 10.479001 
L 168.295342 10.343265 
L 168.457109 10.218124 
L 168.341561 9.838405 
L 169.137794 9.566825 
L 169.160903 9.327035 
L 168.862579 9.065988 
L 168.778544 8.972597 
L 168.450807 9.223045 
L 168.078951 9.384333 
L 167.711298 9.431019 
L 167.385662 9.327035 
L 168.379377 8.35269 
L 169.555868 7.881246 
L 174.671506 7.683712 
L 176.345906 7.849387 
L 177.885849 8.191308 
L 178.730402 8.25926 
L 178.140055 8.441868 
L 172.560124 8.089376 
L 172.156755 8.17432 
L 171.892045 8.435498 
L 171.644141 8.972597 
L 171.368926 10.003879 
L 171.131527 10.498088 
L 170.751268 10.752562 
L 170.984465 11.293198 
L 170.845807 11.496689 
L 170.486557 11.515765 
L 170.045373 11.479732 
L 170.39832 12.174822 
L 170.543281 12.263808 
L 170.978163 12.395159 
L 171.102115 12.513791 
L 171.097913 12.954353 
L 170.786983 13.727188 
L 170.925641 14.146282 
L 171.09161 14.017178 
L 171.644141 13.790693 
L 171.999189 14.529306 
L 172.887861 15.225307 
L 175.106388 16.576325 
L 175.438327 16.669315 
L 175.774467 16.563645 
L 176.398428 16.183179 
L 176.526581 16.136672 
L 176.862722 16.113418 
L 176.963564 16.039426 
L 176.908941 15.701137 
L 176.950959 15.580606 
L 177.362731 15.265494 
L 177.564415 15.286644 
L 177.833327 15.580606 
L 178.169468 15.18089 
L 178.530819 14.943979 
L 178.900573 14.973594 
L 179.259823 15.371242 
L 179.392179 15.696908 
L 179.400582 15.935832 
L 179.259823 16.453741 
L 179.411087 16.696788 
L 179.379573 16.910219 
L 179.064442 17.176443 
L 179.497223 17.235598 
L 179.879582 17.214472 
L 180.211521 17.305315 
L 180.488837 17.691872 
L 180.413205 17.818594 
L 180.154797 18.965005 
L 180.249337 19.446147 
L 180.316565 19.674009 
L 180.25774 19.851215 
L 179.963618 20.190809 
L 179.383775 20.667393 
L 178.730402 21.072177 
L 178.972003 21.186005 
L 179.165284 21.23027 
L 179.360666 21.194437 
L 179.61067 21.072177 
L 179.915297 22.361793 
L 179.963618 22.759862 
L 180.110679 23.153629 
L 180.4006 23.494681 
L 180.602284 23.846188 
L 180.488837 24.269164 
L 180.392197 24.025071 
L 180.23253 23.820932 
L 180.030846 23.658867 
L 179.787144 23.562041 
L 179.61067 24.490081 
L 179.698907 24.71728 
L 180.102275 25.034887 
L 180.243034 25.224162 
L 180.316565 25.518548 
L 180.488837 25.518548 
L 180.766153 25.196824 
L 180.967837 25.526958 
L 181.211539 26.577918 
L 181.530872 27.2754 
L 181.551881 27.477029 
L 181.40482 27.636635 
L 180.959434 27.796225 
L 180.858592 27.989395 
L 181.043469 28.371469 
L 181.493057 28.58766 
L 182.064495 28.6884 
L 183.261996 28.694696 
L 183.810325 28.619142 
L 184.304031 28.43444 
L 185.259931 27.804625 
L 186.152804 27.390919 
L 186.596089 27.01913 
L 187.591905 25.960031 
L 189.194875 24.761454 
L 189.837744 24.553195 
L 190.127665 24.176581 
L 190.396577 24.092411 
L 190.556244 24.176581 
L 190.568849 24.378574 
L 190.493218 24.614203 
L 190.396577 24.799317 
L 191.287349 24.513223 
L 191.724332 24.290205 
L 192.07728 24.004027 
L 192.495354 23.385215 
L 192.703341 23.212581 
L 192.930236 23.199949 
L 193.152929 23.305216 
L 193.37142 23.317847 
L 193.581508 23.035719 
L 193.320999 22.753544 
L 193.556298 22.395495 
L 194.007986 22.090042 
L 194.384043 21.957311 
L 194.839934 22.087935 
L 195.245403 22.424984 
L 195.508013 22.884108 
L 195.539526 23.385215 
L 195.716 23.385215 
L 195.842053 23.138891 
L 195.972307 23.056775 
L 196.100461 23.138891 
L 196.226513 23.385215 
L 196.594167 23.212581 
L 196.232816 22.597697 
L 196.598369 22.307025 
L 197.29586 22.134283 
L 197.909317 21.875139 
L 198.111001 21.594882 
L 198.08579 21.333549 
L 197.879904 21.143847 
L 197.556369 21.072177 
L 196.564755 21.599097 
L 196.402987 21.52323 
L 196.396685 21.177574 
L 196.428198 21.038448 
L 196.850474 20.62944 
L 197.071066 20.481836 
L 197.663514 20.249862 
L 197.909317 20.102225 
L 198.190834 20.000982 
L 199.503883 19.832229 
L 199.64044 19.722531 
L 200.209778 19.038873 
L 200.846344 18.709609 
L 200.749704 19.901842 
L 201.369463 20.009419 
L 201.464002 19.914498 
L 202.251831 19.304772 
L 202.316958 19.173938 
L 202.384187 18.838367 
L 202.413599 18.756047 
L 202.554358 18.6885 
L 202.938818 18.595618 
L 204.205648 18.063563 
L 204.422038 18.038223 
L 204.728766 18.038223 
L 205.035494 18.091014 
L 205.249784 18.224041 
L 205.5271 18.908019 
L 205.081714 19.002995 
L 203.837994 18.756047 
L 204.003963 19.097966 
L 203.8527 19.281561 
L 203.606898 19.471466 
L 203.485047 19.832229 
L 203.195125 19.747847 
L 202.91781 19.737299 
L 202.657301 19.823791 
L 202.413599 20.009419 
L 202.569064 20.1655 
L 202.623687 20.266734 
L 202.711924 20.332111 
L 202.938818 20.367962 
L 202.510239 20.680044 
L 201.671989 20.895096 
L 200.854747 20.911961 
L 200.487094 20.62944 
L 200.09423 20.587269 
L 199.354721 20.667393 
L 198.961856 20.926719 
L 199.59212 21.443145 
L 199.226567 21.6286 
L 198.968159 21.837212 
L 198.980764 22.026838 
L 199.415646 22.151137 
L 199.327409 22.481855 
L 199.16144 22.778816 
L 198.936646 23.027296 
L 198.697146 23.212581 
L 198.913536 23.418897 
L 199.211861 23.48205 
L 199.478672 23.34311 
L 199.59212 22.936752 
L 200.19087 22.27332 
L 200.209778 22.151137 
L 201.911489 21.910958 
L 202.819068 21.88146 
L 203.485047 22.151137 
L 203.203529 22.11743 
L 202.976634 22.172204 
L 202.831674 22.323877 
L 202.781252 22.582954 
L 202.693016 22.823039 
L 202.485029 22.808298 
L 202.245529 22.707213 
L 202.060651 22.677728 
L 201.930397 22.646137 
L 201.753923 22.555573 
L 201.596357 22.547149 
L 201.533331 22.759862 
L 201.560642 22.86305 
L 201.690897 23.014663 
L 201.72241 23.124152 
L 201.684594 23.372583 
L 201.569046 23.48205 
L 201.394673 23.479945 
L 201.180384 23.385215 
L 200.991304 23.982983 
L 200.623651 24.155539 
L 200.216081 24.25654 
L 199.945067 24.639447 
L 200.346335 24.64155 
L 200.814831 24.793006 
L 201.205594 25.060125 
L 201.369463 25.423929 
L 201.312739 25.69095 
L 201.060633 26.266901 
L 201.001809 26.577918 
L 200.682475 26.876274 
L 199.947168 27.161974 
L 198.533277 27.477029 
L 198.621514 27.768928 
L 198.800089 27.972598 
L 199.024883 28.096468 
L 199.239172 28.165747 
L 201.968213 26.951905 
L 202.938818 26.754416 
L 202.938818 26.577918 
L 202.56066 26.48546 
L 202.214015 26.493865 
L 201.926195 26.451837 
L 201.72241 26.224867 
L 202.804362 26.119779 
L 203.34849 26.13239 
L 203.749757 26.313137 
L 204.157327 26.430823 
L 204.783389 26.371981 
L 205.405249 26.220664 
L 205.806517 26.052518 
L 205.648951 25.972644 
L 205.249784 25.678336 
L 206.779223 25.791861 
L 207.522934 25.636288 
L 208.085969 25.169485 
L 205.176253 25.224162 
L 204.732968 25.329305 
L 204.66574 25.411313 
L 204.66574 25.526958 
L 204.611117 25.636288 
L 204.375819 25.678336 
L 204.203547 25.676233 
L 204.085898 25.657312 
L 203.978753 25.606853 
L 203.837994 25.518548 
L 204.016569 25.169485 
L 202.63209 25.615263 
L 201.951406 25.590034 
L 201.72241 24.799317 
L 201.854765 24.389094 
L 202.123678 24.147122 
L 202.453516 23.97246 
L 202.781252 23.755687 
L 202.831674 23.593615 
L 202.779152 23.410477 
L 202.766546 23.271531 
L 202.957726 23.212581 
L 203.184621 23.187316 
L 203.310674 23.107308 
L 203.34849 22.94307 
L 203.308573 22.677728 
L 204.205648 22.83778 
L 203.934634 23.250478 
L 203.867406 23.650447 
L 204.016569 24.4459 
L 204.468257 23.820932 
L 204.69095 23.326268 
L 205.02499 23.037825 
L 205.806517 23.035719 
L 205.371635 22.526086 
L 205.253986 22.27332 
L 205.69517 21.746606 
L 205.711977 21.363056 
L 205.497688 21.076393 
L 205.07331 21.072177 
L 204.90524 21.325118 
L 204.798095 21.729748 
L 204.632126 22.001556 
L 204.293885 21.875139 
L 203.499753 21.217623 
L 203.308573 20.911961 
L 204.205648 20.911961 
L 203.997661 20.578835 
L 203.966148 20.319457 
L 204.142621 20.218226 
L 204.543889 20.367962 
L 204.590108 19.823791 
L 205.037595 19.971451 
L 205.970385 20.717997 
L 206.518714 21.000503 
L 207.060741 21.126984 
L 207.548144 21.002611 
L 207.938908 20.540879 
L 208.377991 20.874013 
L 208.808671 20.730647 
L 209.060777 20.317348 
L 208.964136 19.832229 
L 209.354899 19.933483 
L 209.76247 20.230881 
L 210.086005 20.621006 
L 210.216259 20.992071 
L 210.216259 21.29561 
L 210.186847 21.483188 
L 210.056593 21.578023 
L 209.506163 21.645458 
L 209.386413 21.755034 
L 209.392715 21.925707 
L 209.510364 22.151137 
L 209.976759 22.458686 
L 210.476768 22.319664 
L 210.91165 21.982594 
L 211.453676 21.445253 
L 212.489409 20.646308 
L 212.859164 20.540879 
L 213.054545 20.874013 
L 212.854962 21.320903 
L 211.529308 22.936752 
L 211.378045 23.189421 
L 211.350733 23.692544 
L 211.2709 23.915639 
L 211.186865 23.852502 
L 210.823413 24.008236 
L 210.508281 24.20604 
L 210.569207 24.269164 
L 210.468365 24.336494 
L 210.224663 24.4459 
L 209.976759 24.441692 
L 209.863312 24.18079 
L 209.863312 23.124152 
L 209.783479 23.002029 
L 209.607005 23.189421 
L 209.422128 23.503101 
L 209.333891 23.755687 
L 208.947329 23.631503 
L 208.938926 23.846188 
L 209.132206 24.187102 
L 209.333891 24.4459 
L 209.875917 24.893969 
L 210.056593 25.123218 
L 210.216259 25.518548 
L 210.09861 25.562701 
L 209.770873 25.648902 
L 209.686838 25.678336 
L 209.676334 25.625776 
L 209.157417 25.871744 
L 208.951531 26.039907 
L 208.812873 26.208054 
L 208.627996 26.346762 
L 208.266645 26.401402 
L 206.913679 26.407706 
L 206.224591 26.559007 
L 205.806517 26.930896 
L 205.497688 26.767023 
L 205.186758 26.729203 
L 204.917845 26.838457 
L 204.732968 27.107358 
L 204.333801 26.985517 
L 203.859003 27.082151 
L 203.39681 27.302705 
L 203.035459 27.554733 
L 202.955625 27.859218 
L 203.562779 27.84662 
L 204.287582 27.691233 
L 204.558595 27.554733 
L 205.123731 27.699633 
L 205.506091 27.582034 
L 205.859039 27.340512 
L 206.321232 27.107358 
L 206.615355 27.090553 
L 206.892671 27.157773 
L 207.174188 27.174577 
L 207.678399 26.918291 
L 208.214123 26.825851 
L 208.453623 26.754416 
L 208.724636 27.002324 
L 209.077584 27.233391 
L 209.449439 27.409822 
L 209.777176 27.477029 
L 210.094408 27.416123 
L 210.468365 27.164074 
L 210.735176 27.107358 
L 211.426365 27.038036 
L 211.970492 26.846861 
L 213.035638 26.224867 
L 212.714203 26.872072 
L 212.312936 27.477029 
L 212.119655 27.655534 
L 211.607041 28.014589 
L 211.352834 28.260214 
L 211.224681 28.510002 
L 211.132242 28.763951 
L 210.95997 28.965404 
L 210.153233 29.129067 
L 209.539777 29.504594 
L 209.157417 29.588499 
L 209.28557 29.330477 
L 209.726755 28.770247 
L 209.777176 28.612846 
L 209.518768 28.547782 
L 208.980943 28.954912 
L 208.630097 28.887764 
L 208.80657 28.5142 
L 208.06286 28.904551 
L 207.564951 29.546547 
L 207.157381 30.288946 
L 206.674179 30.978626 
L 206.060723 31.596794 
L 205.93467 31.91522 
L 205.970385 32.401123 
L 206.249802 33.184139 
L 206.298122 33.554585 
L 206.127951 33.981438 
L 206.613254 34.06303 
L 206.917881 34.376809 
L 207.03553 34.715625 
L 206.947293 34.874552 
L 207.041833 34.974919 
L 207.32125 35.110824 
L 207.606969 35.041828 
L 207.733022 34.523219 
L 207.598566 34.406092 
L 207.363267 33.883104 
L 207.291837 33.485525 
L 207.653188 33.719898 
L 209.077584 35.547735 
L 209.120501 35.912064 
L 209.249366 36.240232 
L 209.356864 36.499846 
L 209.510364 36.978922 
L 209.531373 37.252485 
L 210.0734 38.657184 
L 210.216259 38.826169 
L 210.459961 39.272543 
L 211.035602 39.526964 
L 211.686874 39.58535 
L 212.170076 39.445637 
L 212.020914 40.071128 
L 210.182645 42.685226 
L 209.737259 43.180504 
L 206.737206 45.557026 
L 204.732968 47.141552 
L 203.985056 48.058758 
L 203.632108 48.643677 
L 203.485047 49.162048 
L 203.501854 49.935152 
L 203.443029 50.393039 
L 203.198789 50.625772 
L 203.045221 50.883142 
L 202.850581 51.209044 
L 202.80016 51.329132 
L 202.308555 51.811466 
L 201.810647 52.479874 
L 201.306436 52.841899 
L 200.144651 53.394092 
L 199.59212 53.778655 
L 198.791685 54.739663 
L 198.640422 54.826436 
L 198.463948 54.851227 
L 198.098396 54.836765 
L 197.839988 55.28708 
L 197.732843 55.433715 
L 197.442922 55.629895 
L 197.169808 55.770305 
L 196.976527 55.978832 
L 196.932408 56.393742 
L 197.033251 56.624889 
L 197.474435 57.021064 
L 197.650909 57.260373 
L 197.480738 57.452207 
L 197.285356 57.623394 
L 196.755935 57.103588 
L 196.463913 56.963294 
L 196.068948 56.913776 
L 195.734908 56.994243 
L 195.182377 57.353198 
L 194.913465 57.433643 
L 194.587829 57.623394 
L 193.232762 58.8315 
L 192.720148 59.801863 
L 192.31888 60.911601 
L 191.707525 61.841624 
L 190.568849 62.271474 
L 190.568849 62.458597 
L 190.749525 62.468878 
L 190.871376 62.516169 
L 190.97642 62.573739 
L 191.115077 62.631306 
L 189.11084 65.761504 
L 188.827221 66.639479 
L 188.438559 67.176691 
L 187.944853 67.627644 
L 187.138116 67.926842 
L 187.087695 68.185008 
L 187.207445 68.672539 
L 187.199041 68.957205 
L 187.232655 69.094399 
L 187.213747 69.239771 
L 187.030971 69.546851 
L 186.785168 69.765865 
L 186.558273 69.851824 
L 186.388102 69.978708 
L 186.325076 70.330656 
L 186.228435 70.5066 
L 185.988935 70.678434 
L 184.862865 71.181552 
L 184.579246 71.253121 
L 183.848141 71.332865 
L 182.778794 71.729481 
L 182.631732 71.978848 
L 182.539294 72.260871 
L 182.430048 72.479506 
L 182.207355 72.651123 
L 180.961535 73.347614 
L 177.476178 73.962146 
L 176.61902 74.245852 
L 175.919428 74.874311 
L 173.9383 75.906228 
L 173.568545 76.397473 
L 172.980299 77.438561 
L 172.371045 78.114587 
L 172.24079 78.318152 
z
" clip-path="url(#pfe38af8e38)" style="stroke: #000000; stroke-linejoin: miter"/>
   </g>
   <g id="line2d_1">
    <path d="M 172.324462 78.675756 
L 172.513904 78.997863 
L 172.223983 80.230347 
L 172.175663 81.555284 
L 172.00129 81.70965 
L 171.833044 82.051775 
L 171.898347 82.584775 
L 172.366843 84.140895 
L 173.106352 85.614397 
L 173.058032 86.009386 
L 172.730295 85.725815 
L 172.425668 85.6853 
L 172.299615 85.847352 
L 172.513904 86.195704 
L 172.904668 86.398198 
L 174.482427 86.705937 
L 173.751322 86.938724 
L 172.04751 87.017661 
L 171.278588 87.199808 
L 170.587399 87.642941 
L 170.889926 87.835127 
L 172.175663 88.045492 
L 172.711387 87.557966 
L 173.673589 87.38598 
L 175.011848 87.446683 
L 175.123195 87.82299 
L 175.604296 88.377163 
L 175.717743 88.29223 
L 176.070691 87.025757 
L 176.753476 87.327298 
L 176.904739 87.53571 
L 176.950959 87.956495 
L 176.963564 88.795692 
L 177.318612 88.724935 
L 177.728283 88.23965 
L 177.946775 87.976722 
L 178.282915 87.861424 
L 179.051837 88.00504 
L 179.345959 88.215381 
L 179.448902 88.555103 
L 180.488837 87.861424 
L 180.595982 88.298297 
L 181.577092 89.244421 
L 181.440535 89.888982 
L 181.724153 90.264681 
L 181.818693 90.941106 
L 181.743061 91.661619 
L 181.535074 92.359602 
L 181.211539 92.974606 
L 180.892206 92.637897 
L 180.25564 93.222553 
L 179.787144 93.14394 
L 179.61067 93.835188 
L 179.400582 93.627646 
L 179.173687 93.585328 
L 178.730402 93.835188 
L 178.619056 93.520841 
L 178.186275 92.637897 
L 178.226192 91.855312 
L 177.929968 91.536513 
L 177.79131 91.209573 
L 177.822823 90.543365 
L 177.484582 90.420185 
L 177.085415 90.52923 
L 176.915244 90.777581 
L 176.988774 91.064244 
L 177.318612 91.282233 
L 176.950959 91.952149 
L 176.921546 92.629832 
L 177.19466 93.295115 
L 178.009801 94.189758 
L 177.923665 94.244144 
L 177.318612 94.159542 
L 175.629506 94.159542 
L 175.276559 94.016513 
L 174.684111 93.520841 
L 174.093765 93.649812 
L 173.782835 93.480535 
L 173.234506 92.974606 
L 172.232387 92.248673 
L 172.207176 91.915835 
L 172.705084 91.451758 
L 172.251295 91.475974 
L 171.5454 91.716098 
L 169.438219 91.92794 
L 168.719719 92.194213 
L 167.223894 92.297079 
L 164.952845 92.867755 
L 163.906608 92.984686 
L 163.686016 92.889932 
L 163.786858 92.625799 
L 164.360397 92.333383 
L 165.053687 92.254723 
L 169.717636 91.2015 
L 169.522254 91.013779 
L 168.488622 90.63221 
L 167.66928 90.717011 
L 167.045319 90.450476 
L 166.522201 89.929385 
L 165.828911 89.693016 
L 165.167134 89.77181 
L 163.339371 90.341425 
L 163.093568 90.959275 
L 162.975919 92.297079 
L 163.024239 92.93227 
L 162.711208 93.2286 
L 162.433892 93.327364 
L 159.446253 93.645304 
L 158.985549 94.016447 
L 157.795154 94.302557 
L 157.261531 94.630837 
L 154.576609 95.510592 
L 149.597528 98.028205 
L 148.398574 98.057688 
L 148.00544 98.092934 
L 145.761325 99.164959 
L 144.406259 99.419906 
L 143.525991 100.034006 
L 142.799087 100.184482 
L 141.828482 100.61175 
L 141.395875 100.710563 
L 140.498626 101.491972 
L 139.515415 101.8367 
L 137.937656 103.002561 
L 137.309493 103.254842 
L 136.794778 103.118696 
L 136.113137 103.452323 
L 134.410282 105.735293 
L 134.30944 106.017077 
L 134.30944 107.419194 
L 134.168681 107.876288 
L 133.824137 108.239465 
L 133.076224 108.849876 
L 132.924961 109.585618 
L 131.668636 110.038043 
L 132.240075 110.524192 
L 132.374531 111.366596 
L 132.374531 113.207017 
L 132.708571 114.80279 
L 132.576215 115.261519 
L 131.668636 115.874913 
L 132.408145 115.960251 
L 132.664452 116.551524 
L 132.639242 117.348759 
L 132.424952 118.791371 
L 131.847019 119.63295 
L 131.277873 120.687519 
L 129.534144 122.877388 
L 126.672749 124.848907 
L 125.273564 126.868856 
L 124.655906 128.592855 
L 124.004634 129.709557 
L 124.811371 130.287215 
L 124.76095 130.841069 
L 123.563449 131.916716 
L 123.657989 132.442458 
L 123.721015 132.752316 
L 123.361765 133.189528 
L 122.643265 133.512937 
L 122.109642 133.885252 
L 122.294519 134.47683 
L 121.676861 134.905662 
L 121.323913 134.88021 
L 120.88483 134.656995 
L 121.00458 135.164072 
L 121.237777 135.627911 
L 120.475159 135.987915 
L 119.546571 135.968352 
L 119.025553 136.089638 
L 119.038158 136.338044 
L 119.416316 136.570762 
L 120.004562 136.625514 
L 119.193623 137.626295 
L 118.578066 137.815814 
L 117.834355 138.16938 
L 117.544434 138.145942 
L 117.529728 138.708344 
L 117.872171 138.770818 
L 118.937316 139.046063 
L 119.28186 138.770818 
L 119.752457 139.036304 
L 120.954159 139.516388 
L 120.966764 139.83635 
L 120.508773 140.064569 
L 118.735632 140.40975 
L 118.048645 141.080359 
L 117.273421 141.263549 
L 116.949886 141.871406 
L 115.987684 142.288175 
L 115.73978 142.697029 
L 116.222982 142.531555 
L 117.153671 142.369956 
L 117.937298 141.925944 
L 119.105386 141.629855 
L 119.462536 141.403848 
L 120.16633 140.573534 
L 121.414251 139.918279 
L 121.678962 140.222544 
L 121.779804 140.593031 
L 121.689466 141.902571 
L 121.464672 142.216126 
L 121.084413 142.338802 
L 119.634808 142.519874 
L 119.49825 142.677562 
L 119.447829 142.973421 
L 114.103196 143.335371 
L 111.897274 143.821708 
L 109.981274 144.735546 
L 108.483348 146.138143 
L 107.983339 146.968905 
L 107.901404 147.68473 
L 107.617786 148.342019 
L 107.428707 148.847852 
L 106.966514 149.299257 
L 105.840443 149.893792 
L 103.836206 150.519024 
L 102.342482 151.751202 
L 98.768888 153.385879 
L 97.873914 154.179297 
L 97.525168 155.421548 
L 97.588195 156.04994 
L 97.466344 156.292735 
L 96.73944 156.464205 
L 95.9264 156.874487 
L 95.483115 156.824413 
L 94.174268 156.550895 
L 93.730983 156.591349 
L 92.571298 156.874487 
L 92.976768 156.984259 
L 95.054536 157.051658 
L 94.53772 157.867874 
L 93.726781 158.219997 
L 92.798193 158.45277 
L 91.945237 158.914344 
L 91.577583 158.891269 
L 90.184701 158.598953 
L 89.319139 158.952801 
L 87.953569 159.471861 
L 88.501898 159.971499 
L 87.802306 160.111748 
L 86.936744 159.944601 
L 86.142612 159.906173 
L 85.663612 160.455581 
L 84.959818 160.13288 
L 83.617357 160.056034 
L 83.270712 160.203958 
L 82.432462 160.716755 
L 81.222356 160.858843 
L 80.875711 160.820443 
L 80.53747 160.601538 
L 80.636211 160.129038 
L 80.524864 159.850451 
L 80.201329 159.794726 
L 79.966031 159.961893 
L 79.98704 160.490151 
L 79.617285 160.7686 
L 79.394592 160.939481 
L 78.146671 160.839643 
L 77.524811 160.278873 
L 77.192872 160.307686 
L 77.171863 161.10074 
L 76.478574 161.357946 
L 75.606709 161.212075 
L 73.999538 160.778201 
L 72.68859 160.747478 
L 72.386063 160.469025 
L 71.545712 158.483547 
L 71.192765 158.483547 
L 70.432247 158.664345 
L 67.785141 158.99318 
L 66.902772 158.987412 
L 67.117062 158.73935 
L 68.138088 158.506629 
L 67.621272 158.30657 
L 66.972101 158.210378 
L 65.684263 158.183442 
L 65.888048 158.514323 
L 66.373351 158.902807 
L 66.03721 159.148915 
L 66.390158 159.471861 
L 65.003578 159.763981 
L 60.55602 159.471861 
L 61.028717 158.947033 
L 61.612762 158.76435 
L 62.848078 158.841272 
L 63.114889 159.110463 
L 63.860701 159.20659 
L 64.322894 159.072011 
L 63.730446 158.664345 
L 62.982534 158.472005 
L 60.732494 158.506629 
L 59.692559 158.087241 
L 59.175743 158.012198 
L 58.95305 158.42584 
L 59.116919 158.906653 
L 59.900546 159.544897 
L 60.203072 159.971499 
L 59.495077 159.892723 
L 58.558085 159.166217 
L 57.883703 158.887423 
L 57.679918 158.441228 
L 56.810155 158.164203 
L 56.648387 157.683115 
L 57.719835 157.536829 
L 58.037067 157.660018 
L 58.034966 157.76395 
L 58.161019 157.931378 
L 58.324888 157.771648 
L 59.675752 157.051658 
L 59.915252 156.419895 
L 59.736678 155.652893 
L 59.257677 155.093739 
L 58.602203 155.097596 
L 58.81019 155.695302 
L 58.549682 156.250345 
L 58.053874 156.589422 
L 57.528655 156.550895 
L 57.226128 156.227223 
L 56.692505 155.249941 
L 55.312229 153.611791 
L 54.88365 153.316359 
L 54.152544 153.190829 
L 51.253333 153.605999 
L 51.263837 154.287366 
L 49.66717 154.05964 
L 48.389836 153.988226 
L 47.723858 154.526629 
L 47.150318 154.434016 
L 46.583081 154.287366 
L 45.568357 154.532417 
L 44.559936 153.837665 
L 43.944378 153.23718 
L 43.028396 152.843144 
L 44.049422 152.470246 
L 44.293124 152.180356 
L 42.328803 150.370002 
L 42.322501 149.893792 
L 41.935939 149.674988 
L 40.364482 149.49682 
L 38.774118 148.917607 
L 35.608095 148.756778 
L 35.45263 148.927295 
L 35.33288 149.49682 
L 35.036656 149.870558 
L 34.727827 150.867323 
L 34.393787 151.159436 
L 33.998822 151.234872 
L 32.704682 151.281292 
L 31.538694 151.693197 
L 31.023979 151.658393 
L 29.965137 151.393466 
L 28.977724 151.447616 
L 28.288636 151.586849 
L 28.078548 151.370259 
L 27.782325 151.323842 
L 26.131035 150.820888 
L 24.807481 150.867323 
L 23.044845 150.557729 
L 19.500664 150.615783 
L 17.773742 150.418388 
L 16.317834 149.731144 
L 15.431263 148.838164 
L 15.586728 148.685077 
L 16.578343 148.342019 
L 17.565755 147.61685 
L 18.448124 146.802017 
L 19.588901 145.201946 
L 20.120423 144.995973 
L 20.876739 144.871596 
L 22.691897 143.839213 
L 22.128862 143.891726 
L 20.559506 144.506173 
L 18.830484 145.003746 
L 18.448124 145.308807 
L 18.353585 145.578835 
L 18.448124 146.138143 
L 18.340979 146.188625 
L 17.422896 146.846652 
L 17.21701 146.518649 
L 17.322053 146.136201 
L 17.036334 145.961442 
L 16.69179 146.706921 
L 15.876649 147.015474 
L 14.006868 147.277397 
L 14.093004 146.483709 
L 14.322 146.297348 
L 14.72957 146.462357 
L 14.817807 145.699261 
L 15.103526 145.180573 
L 15.595132 144.813291 
L 16.317834 144.506173 
L 18.544764 144.055088 
L 18.977545 143.514363 
L 17.196001 143.988968 
L 16.349347 143.880057 
L 15.948079 143.747796 
L 15.876649 143.59607 
L 17.515334 142.225863 
L 17.565755 142.042803 
L 17.307347 141.851928 
L 17.015325 141.886989 
L 16.385062 142.315436 
L 16.158167 142.778785 
L 15.523702 143.103812 
L 14.34721 144.346755 
L 11.553043 144.957107 
L 10.746306 145.485594 
L 10.557227 145.361263 
L 10.221086 144.782193 
L 10.324029 140.807477 
L 10.746306 140.573534 
L 12.418604 140.40975 
L 14.200149 140.40975 
L 14.006868 140.573534 
L 14.200149 140.752894 
L 14.838816 140.394151 
L 15.603535 140.251797 
L 17.876685 140.169888 
L 19.954454 139.754415 
L 21.07002 139.828547 
L 22.33895 139.083149 
L 23.591073 138.720058 
L 24.137301 138.438889 
L 24.456635 137.938889 
L 22.956608 138.267035 
L 21.103634 138.118597 
L 18.691826 138.579481 
L 18.090975 138.4467 
L 18.569975 137.743526 
L 18.880905 137.487559 
L 19.330493 137.28236 
L 20.704467 137.016532 
L 21.103634 136.789755 
L 18.616194 137.03217 
L 18.179212 136.953976 
L 17.981729 136.379115 
L 18.000637 135.847055 
L 18.290558 135.451788 
L 21.637257 134.656995 
L 22.998626 134.974185 
L 23.710823 135.001593 
L 24.265455 134.656995 
L 23.004928 134.574749 
L 22.691897 134.312311 
L 24.359994 133.965581 
L 25.116311 133.591327 
L 25.336903 132.983683 
L 21.901967 134.179114 
L 19.77798 134.459204 
L 18.069966 135.005508 
L 17.212808 135.134709 
L 16.551031 135.005508 
L 16.2359 134.566915 
L 16.238 134.206538 
L 17.196001 132.834671 
L 17.658194 131.382923 
L 17.918703 131.006003 
L 19.072085 130.601486 
L 20.332612 130.951027 
L 21.578432 131.492839 
L 22.691897 131.665545 
L 21.998608 130.499356 
L 21.595239 130.281322 
L 21.280107 130.841069 
L 20.805309 130.585774 
L 19.330493 130.020029 
L 18.994352 129.741001 
L 18.910317 129.47764 
L 19.05948 129.172945 
L 19.414528 128.773791 
L 20.85573 127.864943 
L 21.103634 127.94759 
L 21.30952 128.358784 
L 21.794823 128.665626 
L 22.868371 129.01369 
L 22.425086 129.279104 
L 22.166678 129.689905 
L 22.990222 129.627015 
L 23.712924 129.399016 
L 24.410416 129.35577 
L 25.3306 130.080936 
L 25.437745 130.293108 
L 25.389425 130.530781 
L 25.145723 130.841069 
L 24.204529 131.412366 
L 24.441929 131.516391 
L 25.317995 131.481062 
L 25.626824 131.355443 
L 25.960863 131.096316 
L 26.427258 130.342218 
L 27.712996 131.106133 
L 27.885268 131.673395 
L 28.349562 132.489529 
L 28.526035 132.340464 
L 29.229829 132.669955 
L 29.08697 131.88336 
L 27.750811 130.729137 
L 25.145723 129.01369 
L 25.519679 128.677426 
L 25.954561 128.512213 
L 28.578557 127.990879 
L 29.055457 128.022361 
L 29.318066 128.215175 
L 29.767654 128.797389 
L 30.129005 129.01369 
L 31.141628 129.13559 
L 31.608023 129.001893 
L 31.891642 128.683326 
L 31.475668 128.596789 
L 30.568089 128.628258 
L 30.208839 128.453204 
L 29.887404 128.087291 
L 29.935724 127.626813 
L 30.082786 127.36502 
L 30.301277 127.225245 
L 29.332772 127.237058 
L 27.694088 127.656335 
L 25.591109 127.80197 
L 25.145723 127.626813 
L 25.0911 127.30793 
L 24.700337 126.340995 
L 24.227639 126.07699 
L 24.116293 125.80111 
L 24.044863 124.718742 
L 24.22974 124.314365 
L 24.807481 124.055896 
L 25.576403 124.067736 
L 26.187758 124.363685 
L 27.492403 125.462098 
L 28.326452 125.570512 
L 28.526035 125.395074 
L 28.385277 125.241302 
L 27.454588 124.718742 
L 26.515495 123.90395 
L 25.973469 123.594086 
L 25.336903 123.558556 
L 26.355828 122.446798 
L 26.977688 122.041766 
L 27.549127 122.136613 
L 28.526035 123.228872 
L 28.582759 124.174285 
L 28.878983 124.387359 
L 29.01554 124.055896 
L 28.939908 123.568426 
L 29.055457 123.380892 
L 29.444119 123.262437 
L 31.009273 123.380892 
L 30.61851 123.074862 
L 28.612171 122.474455 
L 27.870561 121.672195 
L 27.830645 121.272871 
L 28.173088 120.891233 
L 28.80125 120.731033 
L 30.832799 121.223442 
L 31.372725 121.415218 
L 32.584931 121.992363 
L 32.950484 121.721609 
L 32.465181 121.62871 
L 29.055457 120.21471 
L 29.171005 119.872368 
L 29.603786 119.535882 
L 31.318102 118.640837 
L 32.418962 118.551698 
L 32.276102 118.442742 
L 31.891642 118.054395 
L 33.876971 117.25359 
L 34.727827 117.217901 
L 35.162709 118.078175 
L 35.528261 118.399157 
L 35.608095 118.634895 
L 35.540867 118.866632 
L 35.255147 119.563596 
L 35.461033 119.892159 
L 35.774064 120.141499 
L 35.961042 120.438275 
L 35.784569 120.891233 
L 37.192157 120.909032 
L 36.76988 119.824869 
L 36.234156 119.472535 
L 36.164827 119.229017 
L 36.229955 118.490287 
L 35.414814 116.797485 
L 35.734147 115.960251 
L 36.494665 115.420352 
L 37.427455 115.336967 
L 38.250999 115.874913 
L 38.433776 116.202346 
L 38.360245 116.36901 
L 38.150157 116.54359 
L 37.914859 116.888718 
L 37.788806 117.338846 
L 37.860236 117.695675 
L 38.120745 117.981073 
L 38.585039 118.218861 
L 38.63546 117.669907 
L 39.326649 116.555492 
L 39.272026 116.059475 
L 38.595543 115.551376 
L 38.427473 115.126497 
L 38.087131 114.622039 
L 39.116561 114.177014 
L 39.404381 114.308152 
L 40.31196 115.064939 
L 41.456939 115.376675 
L 41.019956 115.209895 
L 40.04725 114.391597 
L 39.385473 113.980285 
L 39.272026 113.7239 
L 39.486315 113.374031 
L 39.895987 113.145376 
L 41.446434 112.729729 
L 41.793079 112.224426 
L 42.587211 111.957777 
L 43.330922 111.414378 
L 44.087238 111.197358 
L 44.849857 111.316823 
L 45.990633 112.023449 
L 47.200739 112.626295 
L 47.994871 113.707999 
L 48.177647 113.425721 
L 48.234371 113.061859 
L 48.171345 112.685969 
L 47.852011 112.280137 
L 47.270068 112.041359 
L 46.299462 111.432295 
L 46.17341 111.384514 
L 45.996936 111.022127 
L 46.036853 110.368802 
L 45.717519 109.298543 
L 45.511633 109.017395 
L 46.120888 108.415034 
L 49.009595 106.292814 
L 49.944486 105.849212 
L 50.591556 105.287523 
L 50.461302 104.47959 
L 53.024373 104.385569 
L 53.335303 103.959398 
L 53.263873 103.505078 
L 53.036978 103.290879 
L 52.400412 103.118696 
L 52.400412 102.950498 
L 54.09582 102.457806 
L 55.034913 101.696413 
L 56.648387 100.948663 
L 57.663111 100.256705 
L 58.549682 99.353664 
L 58.646322 98.787477 
L 59.125322 98.293392 
L 59.713568 97.99204 
L 60.011893 97.901622 
L 59.83752 97.839331 
L 59.308098 97.549946 
L 60.327024 97.272565 
L 61.923691 97.200196 
L 62.881692 97.043385 
L 64.280876 96.472293 
L 64.881728 96.14643 
L 65.7725 96.126313 
L 66.406965 95.705799 
L 66.846048 95.874824 
L 67.251518 96.315405 
L 67.785141 96.707593 
L 69.012054 96.8383 
L 70.482668 96.514529 
L 71.888155 95.909029 
L 73.444906 94.824146 
L 75.138213 93.91175 
L 75.592003 93.673993 
L 77.647765 92.791826 
L 77.778297 92.578108 
L 77.894565 92.129667 
L 78.087846 91.994513 
L 79.529048 91.435613 
L 80.510158 90.60798 
L 83.358949 89.402051 
L 85.363186 88.834102 
L 86.058577 88.077854 
L 86.636318 87.861424 
L 88.310718 87.691495 
L 88.693078 87.424426 
L 89.72671 87.215998 
L 90.606978 86.738327 
L 91.651114 86.900266 
L 92.220452 86.855734 
L 93.55661 86.114699 
L 94.079729 86.009386 
L 94.4894 85.810892 
L 95.90418 84.282509 
L 95.920098 83.970549 
L 96.441115 83.536489 
L 97.113396 83.447227 
L 97.39686 83.215003 
L 97.602901 82.33508 
L 98.138625 81.868062 
L 98.70166 81.543097 
L 102.142898 80.327927 
L 102.474837 79.933502 
L 102.693328 79.270478 
L 103.257014 79.133839 
L 103.644005 78.883983 
L 104.075706 78.134945 
L 104.332013 77.976148 
L 104.958074 77.784756 
L 105.966496 77.32043 
L 106.672391 77.328577 
L 107.529549 77.629996 
L 109.201848 75.734969 
L 108.378304 75.620785 
L 107.731233 76.134543 
L 107.157694 76.788727 
L 106.542136 77.100437 
L 107.037944 76.012236 
L 107.91401 75.272067 
L 108.582751 74.916591 
L 108.834194 74.347892 
L 110.738845 74.254372 
L 111.512814 73.900908 
L 111.304827 73.666139 
L 111.764919 73.408873 
L 112.124169 73.045363 
L 112.521235 72.824764 
L 113.082169 72.994301 
L 113.168305 72.571446 
L 113.447784 72.481104 
L 113.60949 72.293566 
L 114.645223 71.831686 
L 116.951986 71.240852 
L 117.954105 70.664115 
L 119.455362 70.526388 
L 120.292382 69.892756 
L 121.237777 69.546851 
L 121.689466 69.180395 
L 122.613852 68.201398 
L 123.525633 67.726017 
L 126.065595 64.71879 
L 126.845052 64.485522 
L 127.300911 64.256738 
L 127.882854 63.455532 
L 128.391267 63.147268 
L 128.80724 62.949948 
L 129.242122 62.483271 
L 129.891294 61.594768 
L 130.351386 61.393141 
L 132.198057 58.641892 
L 133.000056 57.806712 
L 133.076224 57.000432 
L 133.244295 56.412317 
L 134.504821 54.99377 
L 135.05105 53.846874 
L 135.740138 50.098846 
L 136.20023 49.157901 
L 136.313677 48.591831 
L 136.706541 47.759996 
L 137.967068 46.506263 
L 138.223375 45.924738 
L 138.658257 44.320329 
L 139.021709 43.817072 
L 139.269612 42.982826 
L 139.799034 42.010744 
L 139.630963 41.7213 
L 139.439784 41.910798 
L 139.294823 41.5776 
L 139.265411 40.371281 
L 139.672981 40.146171 
L 141.217126 40.321259 
L 143.687759 40.146171 
L 144.967193 39.739647 
L 147.404212 38.571642 
L 148.282379 37.855836 
L 149.259287 37.786952 
L 149.437862 37.185664 
L 150.513511 36.283329 
L 151.610169 34.5525 
L 151.811854 34.435375 
L 151.969419 33.805688 
L 152.307661 33.48971 
L 152.524051 32.964345 
L 152.549262 32.656585 
L 152.845486 32.27966 
L 154.288789 31.481559 
L 154.824512 31.330695 
L 154.704762 30.838197 
L 154.761486 30.595039 
L 155.110232 30.096037 
L 155.385447 28.367271 
L 155.751 28.400856 
L 156.290925 28.174145 
L 156.601855 28.165747 
L 155.950583 27.119962 
L 155.782513 23.95352 
L 156.055627 23.124152 
L 155.89596 21.78032 
L 155.89596 18.965005 
L 155.753101 17.698209 
L 155.975794 17.497548 
L 156.530425 17.413052 
L 156.709 17.256725 
L 157.04304 16.741167 
L 157.748935 15.967545 
L 157.849777 15.580606 
L 158.198522 15.428344 
L 158.538865 15.371242 
L 159.022067 14.85936 
L 159.55569 14.846666 
L 160.627137 14.220354 
L 161.043111 14.046809 
L 162.38137 13.255058 
L 164.963349 10.803453 
L 166.087319 9.961452 
L 167.04742 9.668672 
L 166.593631 10.818295 
L 166.959183 10.930672 
L 167.423477 10.389925 
L 167.845754 10.555348 
L 168.295342 10.343265 
L 168.457109 10.218124 
L 168.341561 9.838405 
L 169.137794 9.566825 
L 169.160903 9.327035 
L 168.778544 8.972597 
L 168.078951 9.384333 
L 167.711298 9.431019 
L 167.385662 9.327035 
L 168.379377 8.35269 
L 169.555868 7.881246 
L 174.671506 7.683712 
L 176.345906 7.849387 
L 177.885849 8.191308 
L 178.730402 8.25926 
L 178.140055 8.441868 
L 172.156755 8.17432 
L 171.892045 8.435498 
L 171.644141 8.972597 
L 171.131527 10.498088 
L 170.751268 10.752562 
L 170.984465 11.293198 
L 170.845807 11.496689 
L 170.045373 11.479732 
L 170.543281 12.263808 
L 171.102115 12.513791 
L 171.097913 12.954353 
L 170.786983 13.727188 
L 170.925641 14.146282 
L 171.09161 14.017178 
L 171.644141 13.790693 
L 171.999189 14.529306 
L 172.887861 15.225307 
L 175.438327 16.669315 
L 175.774467 16.563645 
L 176.526581 16.136672 
L 176.963564 16.039426 
L 176.950959 15.580606 
L 177.362731 15.265494 
L 177.564415 15.286644 
L 177.833327 15.580606 
L 178.169468 15.18089 
L 178.530819 14.943979 
L 178.900573 14.973594 
L 179.259823 15.371242 
L 179.400582 15.935832 
L 179.259823 16.453741 
L 179.411087 16.696788 
L 179.379573 16.910219 
L 179.064442 17.176443 
L 180.211521 17.305315 
L 180.488837 17.691872 
L 180.413205 17.818594 
L 180.154797 18.965005 
L 180.25774 19.851215 
L 179.963618 20.190809 
L 178.730402 21.072177 
L 179.165284 21.23027 
L 179.61067 21.072177 
L 180.110679 23.153629 
L 180.602284 23.846188 
L 180.488837 24.269164 
L 180.23253 23.820932 
L 179.787144 23.562041 
L 179.61067 24.490081 
L 179.698907 24.71728 
L 180.243034 25.224162 
L 180.316565 25.518548 
L 180.488837 25.518548 
L 180.766153 25.196824 
L 180.967837 25.526958 
L 181.211539 26.577918 
L 181.551881 27.477029 
L 181.40482 27.636635 
L 180.959434 27.796225 
L 180.858592 27.989395 
L 181.043469 28.371469 
L 181.493057 28.58766 
L 182.064495 28.6884 
L 183.810325 28.619142 
L 184.304031 28.43444 
L 185.259931 27.804625 
L 186.152804 27.390919 
L 186.596089 27.01913 
L 187.591905 25.960031 
L 189.194875 24.761454 
L 189.837744 24.553195 
L 190.127665 24.176581 
L 190.396577 24.092411 
L 190.556244 24.176581 
L 190.493218 24.614203 
L 190.396577 24.799317 
L 191.724332 24.290205 
L 192.07728 24.004027 
L 192.703341 23.212581 
L 192.930236 23.199949 
L 193.37142 23.317847 
L 193.581508 23.035719 
L 193.320999 22.753544 
L 193.556298 22.395495 
L 194.384043 21.957311 
L 194.839934 22.087935 
L 195.245403 22.424984 
L 195.508013 22.884108 
L 195.539526 23.385215 
L 195.716 23.385215 
L 195.972307 23.056775 
L 196.100461 23.138891 
L 196.226513 23.385215 
L 196.594167 23.212581 
L 196.232816 22.597697 
L 196.598369 22.307025 
L 197.909317 21.875139 
L 198.111001 21.594882 
L 198.08579 21.333549 
L 197.879904 21.143847 
L 197.556369 21.072177 
L 196.564755 21.599097 
L 196.402987 21.52323 
L 196.428198 21.038448 
L 197.071066 20.481836 
L 198.190834 20.000982 
L 199.64044 19.722531 
L 200.209778 19.038873 
L 200.846344 18.709609 
L 200.749704 19.901842 
L 201.464002 19.914498 
L 202.316958 19.173938 
L 202.413599 18.756047 
L 202.938818 18.595618 
L 204.422038 18.038223 
L 205.035494 18.091014 
L 205.249784 18.224041 
L 205.5271 18.908019 
L 205.081714 19.002995 
L 203.837994 18.756047 
L 204.003963 19.097966 
L 203.485047 19.832229 
L 202.91781 19.737299 
L 202.413599 20.009419 
L 202.711924 20.332111 
L 202.938818 20.367962 
L 202.510239 20.680044 
L 201.671989 20.895096 
L 200.854747 20.911961 
L 200.487094 20.62944 
L 200.09423 20.587269 
L 199.354721 20.667393 
L 198.961856 20.926719 
L 199.59212 21.443145 
L 198.968159 21.837212 
L 198.980764 22.026838 
L 199.415646 22.151137 
L 199.16144 22.778816 
L 198.697146 23.212581 
L 198.913536 23.418897 
L 199.211861 23.48205 
L 199.478672 23.34311 
L 199.59212 22.936752 
L 200.209778 22.151137 
L 202.819068 21.88146 
L 203.485047 22.151137 
L 203.203529 22.11743 
L 202.976634 22.172204 
L 202.831674 22.323877 
L 202.693016 22.823039 
L 202.060651 22.677728 
L 201.596357 22.547149 
L 201.560642 22.86305 
L 201.72241 23.124152 
L 201.569046 23.48205 
L 201.180384 23.385215 
L 200.991304 23.982983 
L 200.216081 24.25654 
L 199.945067 24.639447 
L 200.346335 24.64155 
L 200.814831 24.793006 
L 201.205594 25.060125 
L 201.369463 25.423929 
L 201.312739 25.69095 
L 200.682475 26.876274 
L 199.947168 27.161974 
L 198.533277 27.477029 
L 198.621514 27.768928 
L 199.024883 28.096468 
L 199.239172 28.165747 
L 201.968213 26.951905 
L 202.938818 26.754416 
L 202.938818 26.577918 
L 202.214015 26.493865 
L 201.926195 26.451837 
L 201.72241 26.224867 
L 203.34849 26.13239 
L 204.157327 26.430823 
L 205.405249 26.220664 
L 205.806517 26.052518 
L 205.249784 25.678336 
L 206.779223 25.791861 
L 207.522934 25.636288 
L 208.085969 25.169485 
L 204.732968 25.329305 
L 204.375819 25.678336 
L 203.978753 25.606853 
L 203.837994 25.518548 
L 204.016569 25.169485 
L 202.63209 25.615263 
L 201.951406 25.590034 
L 201.72241 24.799317 
L 201.854765 24.389094 
L 202.453516 23.97246 
L 202.831674 23.593615 
L 202.766546 23.271531 
L 203.310674 23.107308 
L 203.308573 22.677728 
L 204.205648 22.83778 
L 203.934634 23.250478 
L 203.867406 23.650447 
L 204.016569 24.4459 
L 205.02499 23.037825 
L 205.806517 23.035719 
L 205.253986 22.27332 
L 205.69517 21.746606 
L 205.711977 21.363056 
L 205.497688 21.076393 
L 205.07331 21.072177 
L 204.90524 21.325118 
L 204.632126 22.001556 
L 204.293885 21.875139 
L 203.499753 21.217623 
L 203.308573 20.911961 
L 204.205648 20.911961 
L 203.966148 20.319457 
L 204.142621 20.218226 
L 204.543889 20.367962 
L 204.590108 19.823791 
L 205.037595 19.971451 
L 205.970385 20.717997 
L 206.518714 21.000503 
L 207.060741 21.126984 
L 207.548144 21.002611 
L 207.938908 20.540879 
L 208.377991 20.874013 
L 208.808671 20.730647 
L 209.060777 20.317348 
L 208.964136 19.832229 
L 209.354899 19.933483 
L 209.76247 20.230881 
L 210.086005 20.621006 
L 210.216259 21.29561 
L 210.186847 21.483188 
L 210.056593 21.578023 
L 209.386413 21.755034 
L 209.510364 22.151137 
L 209.976759 22.458686 
L 210.476768 22.319664 
L 212.859164 20.540879 
L 213.054545 20.874013 
L 212.854962 21.320903 
L 211.378045 23.189421 
L 211.2709 23.915639 
L 211.186865 23.852502 
L 210.508281 24.20604 
L 210.569207 24.269164 
L 210.224663 24.4459 
L 209.976759 24.441692 
L 209.863312 24.18079 
L 209.783479 23.002029 
L 209.422128 23.503101 
L 209.333891 23.755687 
L 208.947329 23.631503 
L 208.938926 23.846188 
L 209.333891 24.4459 
L 210.056593 25.123218 
L 210.216259 25.518548 
L 208.951531 26.039907 
L 208.627996 26.346762 
L 208.266645 26.401402 
L 206.913679 26.407706 
L 206.224591 26.559007 
L 205.806517 26.930896 
L 205.497688 26.767023 
L 205.186758 26.729203 
L 204.917845 26.838457 
L 204.732968 27.107358 
L 204.333801 26.985517 
L 203.859003 27.082151 
L 203.035459 27.554733 
L 202.955625 27.859218 
L 203.562779 27.84662 
L 204.558595 27.554733 
L 205.123731 27.699633 
L 205.506091 27.582034 
L 206.321232 27.107358 
L 206.892671 27.157773 
L 207.174188 27.174577 
L 207.678399 26.918291 
L 208.453623 26.754416 
L 209.077584 27.233391 
L 209.777176 27.477029 
L 210.094408 27.416123 
L 210.735176 27.107358 
L 211.426365 27.038036 
L 211.970492 26.846861 
L 213.035638 26.224867 
L 212.312936 27.477029 
L 211.224681 28.510002 
L 210.95997 28.965404 
L 210.153233 29.129067 
L 209.539777 29.504594 
L 209.157417 29.588499 
L 209.28557 29.330477 
L 209.777176 28.612846 
L 209.518768 28.547782 
L 208.980943 28.954912 
L 208.630097 28.887764 
L 208.80657 28.5142 
L 208.06286 28.904551 
L 207.564951 29.546547 
L 206.674179 30.978626 
L 206.060723 31.596794 
L 205.93467 31.91522 
L 205.970385 32.401123 
L 206.298122 33.554585 
L 206.127951 33.981438 
L 206.613254 34.06303 
L 206.917881 34.376809 
L 207.03553 34.715625 
L 206.947293 34.874552 
L 207.32125 35.110824 
L 207.606969 35.041828 
L 207.733022 34.523219 
L 207.598566 34.406092 
L 207.291837 33.485525 
L 207.653188 33.719898 
L 209.077584 35.547735 
L 209.249366 36.240232 
L 209.510364 36.978922 
L 209.531373 37.252485 
L 210.216259 38.826169 
L 210.459961 39.272543 
L 211.035602 39.526964 
L 211.686874 39.58535 
L 212.170076 39.445637 
L 212.020914 40.071128 
L 209.737259 43.180504 
L 204.732968 47.141552 
L 203.632108 48.643677 
L 203.485047 49.162048 
L 203.443029 50.393039 
L 203.045221 50.883142 
L 202.80016 51.329132 
L 202.308555 51.811466 
L 201.810647 52.479874 
L 201.306436 52.841899 
L 199.59212 53.778655 
L 198.640422 54.826436 
L 198.098396 54.836765 
L 197.732843 55.433715 
L 196.976527 55.978832 
L 196.932408 56.393742 
L 197.033251 56.624889 
L 197.650909 57.260373 
L 197.285356 57.623394 
L 196.463913 56.963294 
L 196.068948 56.913776 
L 195.734908 56.994243 
L 194.587829 57.623394 
L 193.232762 58.8315 
L 192.720148 59.801863 
L 192.31888 60.911601 
L 191.707525 61.841624 
L 190.568849 62.271474 
L 190.568849 62.458597 
L 190.97642 62.573739 
L 191.115077 62.631306 
L 189.11084 65.761504 
L 188.827221 66.639479 
L 188.438559 67.176691 
L 187.944853 67.627644 
L 187.138116 67.926842 
L 187.087695 68.185008 
L 187.232655 69.094399 
L 187.213747 69.239771 
L 186.785168 69.765865 
L 186.388102 69.978708 
L 186.228435 70.5066 
L 185.988935 70.678434 
L 184.579246 71.253121 
L 183.848141 71.332865 
L 182.778794 71.729481 
L 182.207355 72.651123 
L 180.961535 73.347614 
L 177.476178 73.962146 
L 176.61902 74.245852 
L 175.919428 74.874311 
L 173.9383 75.906228 
L 173.568545 76.397473 
L 172.980299 77.438561 
L 172.24079 78.318152 
L 172.324462 78.675756 
L 172.324462 78.675756 
" clip-path="url(#pfe38af8e38)" style="fill: none; stroke: #000000; stroke-width: 0.5; stroke-linecap: square"/>
   </g>
  </g>
 </g>
 <defs>
  <clipPath id="pfe38af8e38">
   <rect x="0" y="0" width="223.2" height="169.041658"/>
  </clipPath>
 </defs>
</svg>
