<?xml version="1.0" encoding="utf-8" standalone="no"?>
<!DOCTYPE svg PUBLIC "-//W3C//DTD SVG 1.1//EN"
  "http://www.w3.org/Graphics/SVG/1.1/DTD/svg11.dtd">
<svg xmlns:xlink="http://www.w3.org/1999/xlink" width="215.395733pt" height="221.76pt" viewBox="0 0 215.395733 221.76" xmlns="http://www.w3.org/2000/svg" version="1.1">
 <metadata>
  <rdf:RDF xmlns:dc="http://purl.org/dc/elements/1.1/" xmlns:cc="http://creativecommons.org/ns#" xmlns:rdf="http://www.w3.org/1999/02/22-rdf-syntax-ns#">
   <cc:Work>
    <dc:type rdf:resource="http://purl.org/dc/dcmitype/StillImage"/>
    <dc:date>2026-04-26T19:22:30.379496</dc:date>
    <dc:format>image/svg+xml</dc:format>
    <dc:creator>
     <cc:Agent>
      <dc:title>Matplotlib v3.10.9, https://matplotlib.org/</dc:title>
     </cc:Agent>
    </dc:creator>
   </cc:Work>
  </rdf:RDF>
 </metadata>
 <defs>
  <style type="text/css">*{stroke-linejoin: round; stroke-linecap: butt}</style>
 </defs>
 <g id="figure_1">
  <g id="patch_1">
   <path d="M 0 221.76 
L 215.395733 221.76 
L 215.395733 0 
L 0 0 
z
" style="fill: #ffffff"/>
  </g>
  <g id="axes_1">
   <g id="patch_2">
    <path d="M 62.469012 10.08 
L 80.383184 10.268211 
L 162.3272 10.268211 
L 205.605018 10.08 
L 205.605018 27.261387 
L 204.363429 27.261387 
L 204.186059 114.5819 
L 203.476611 150.904124 
L 203.476611 187.238688 
L 88.542105 187.238688 
L 87.655287 190.833919 
L 91.379992 195.033099 
L 36.928028 195.033099 
L 36.928028 211.68 
L 9.790715 211.68 
L 9.968085 10.08 
z
" clip-path="url(#p01864bd973)" style="stroke: #000000; stroke-linejoin: miter"/>
   </g>
   <g id="line2d_1">
    <path d="M 62.469012 10.08 
L 80.383184 10.268211 
L 162.3272 10.268211 
L 205.605018 10.08 
L 205.605018 27.261387 
L 204.363429 27.261387 
L 204.186059 114.5819 
L 203.476611 150.904124 
L 203.476611 187.238688 
L 88.542105 187.238688 
L 87.655287 190.833919 
L 91.379992 195.033099 
L 36.928028 195.033099 
L 36.928028 211.68 
L 9.790715 211.68 
L 9.968085 10.08 
L 62.469012 10.08 
" clip-path="url(#p01864bd973)" style="fill: none; stroke: #000000; stroke-width: 0.5; stroke-linecap: square"/>
   </g>
  </g>
 </g>
 <defs>
  <clipPath id="p01864bd973">
   <rect x="0" y="-0" width="215.395733" height="221.76"/>
  </clipPath>
 </defs>
</svg>
