<?xml version="1.0" encoding="utf-8" standalone="no"?>
<!DOCTYPE svg PUBLIC "-//W3C//DTD SVG 1.1//EN"
  "http://www.w3.org/Graphics/SVG/1.1/DTD/svg11.dtd">
<svg xmlns:xlink="http://www.w3.org/1999/xlink" width="212.282402pt" height="221.76pt" viewBox="0 0 212.282402 221.76" xmlns="http://www.w3.org/2000/svg" version="1.1">
 <metadata>
  <rdf:RDF xmlns:dc="http://purl.org/dc/elements/1.1/" xmlns:cc="http://creativecommons.org/ns#" xmlns:rdf="http://www.w3.org/1999/02/22-rdf-syntax-ns#">
   <cc:Work>
    <dc:type rdf:resource="http://purl.org/dc/dcmitype/StillImage"/>
    <dc:date>2026-04-26T19:22:02.793001</dc:date>
    <dc:format>image/svg+xml</dc:format>
    <dc:creator>
     <cc:Agent>
      <dc:title>Matplotlib v3.10.9, https://matplotlib.org/</dc:title>
     </cc:Agent>
    </dc:creator>
   </cc:Work>
  </rdf:RDF>
 </metadata>
 <defs>
  <style type="text/css">*{stroke-linejoin: round; stroke-linecap: butt}</style>
 </defs>
 <g id="figure_1">
  <g id="patch_1">
   <path d="M 0 221.76 
L 212.282402 221.76 
L 212.282402 0 
L 0 0 
z
" style="fill: #ffffff"/>
  </g>
  <g id="axes_1">
   <g id="patch_2">
    <path d="M 24.531589 55.409637 
L 25.357742 54.7798 
L 25.552228 54.527884 
L 25.666925 54.077907 
L 25.587136 53.665638 
L 25.389325 53.283534 
L 25.011987 52.769079 
L 24.943834 52.717421 
L 24.888979 52.647468 
L 24.797553 52.426852 
L 24.746023 52.222386 
L 24.652935 51.039852 
L 24.726075 50.698802 
L 24.903939 50.400803 
L 25.178215 50.040428 
L 25.450829 49.348785 
L 25.376027 48.636792 
L 24.975417 47.113079 
L 24.983729 46.210011 
L 25.417584 43.478032 
L 25.258005 38.303605 
L 25.324496 38.08462 
L 28.841879 34.738675 
L 29.882466 33.47831 
L 32.450688 28.378196 
L 32.958145 23.935119 
L 33.012539 23.459095 
L 33.045784 18.502418 
L 34.086371 18.460175 
L 34.570095 18.344141 
L 35.01891 18.064493 
L 37.548899 15.021455 
L 38.301912 14.34874 
L 39.172947 13.916518 
L 41.088696 13.327652 
L 44.289443 12.343955 
L 44.80475 12.274526 
L 45.173776 12.482817 
L 45.536152 12.917584 
L 45.901854 13.122162 
L 46.836055 13.192672 
L 48.463427 12.823577 
L 50.767346 12.951769 
L 51.320885 12.819304 
L 51.505398 12.720492 
L 51.999095 12.277731 
L 52.221841 11.947154 
L 52.49113 11.187286 
L 52.675643 10.880275 
L 53.122796 10.597308 
L 55.498194 10.08 
L 56.021812 10.222001 
L 60.573964 12.488425 
L 65.126117 14.755885 
L 65.272397 14.859546 
L 65.373796 14.971225 
L 65.480182 15.030005 
L 65.648072 14.973363 
L 66.577287 14.317751 
L 66.886471 14.23654 
L 67.761037 14.475076 
L 68.050066 14.553911 
L 69.123899 15.33086 
L 71.381274 18.024927 
L 74.006845 21.644925 
L 75.315015 24.674947 
L 75.714006 25.599454 
L 76.666492 26.983821 
L 77.249952 27.667838 
L 77.771908 28.158007 
L 78.26228 28.39534 
L 78.799197 28.469274 
L 79.996038 28.461773 
L 80.2855 28.400929 
L 80.378362 28.38141 
L 80.722454 28.16765 
L 81.483778 27.320729 
L 82.461198 25.866659 
L 82.820251 25.77991 
L 84.497491 26.168151 
L 85.074302 26.172436 
L 85.577973 25.967333 
L 91.425872 21.521328 
L 91.974424 21.214221 
L 92.526301 21.14574 
L 96.603873 21.876076 
L 97.047701 22.090649 
L 97.232214 22.268842 
L 97.609552 22.723182 
L 98.05338 23.069985 
L 98.596946 23.608431 
L 98.831327 23.748672 
L 99.308401 23.910863 
L 99.3253 23.920952 
L 99.536134 24.04683 
L 99.748905 24.281835 
L 100.149515 24.887866 
L 101.755277 26.736911 
L 101.873299 26.831174 
L 102.03454 26.909907 
L 102.096044 26.917405 
L 102.162535 26.859561 
L 102.345386 26.743338 
L 102.529899 26.668356 
L 102.928846 26.607301 
L 103.120008 26.609443 
L 103.553863 26.726199 
L 103.93785 26.960254 
L 104.640994 27.627662 
L 104.955165 28.063719 
L 105.417278 29.030245 
L 105.693217 29.454093 
L 106.283326 29.884942 
L 110.520477 31.469307 
L 111.084681 31.552682 
L 115.77328 32.245582 
L 116.370038 32.24451 
L 117.227774 31.938383 
L 117.518673 31.913722 
L 120.934658 32.419831 
L 121.275425 32.387661 
L 121.386798 32.328685 
L 121.561337 32.18339 
L 121.74585 31.981272 
L 121.857201 31.815034 
L 124.618269 27.694622 
L 125.156848 27.047023 
L 125.466032 26.795825 
L 125.637246 26.719772 
L 125.718698 26.734768 
L 125.783527 26.719772 
L 125.911523 26.552137 
L 125.986325 26.344342 
L 126.047829 25.837742 
L 126.115983 25.621944 
L 126.400233 25.274435 
L 129.450516 23.117083 
L 130.122077 22.762785 
L 137.944347 20.646304 
L 138.380281 20.528379 
L 139.929526 20.371108 
L 142.851813 20.801742 
L 150.684474 20.749315 
L 155.546642 22.30202 
L 157.323619 23.214493 
L 159.561047 24.940335 
L 160.302423 25.680846 
L 160.618256 25.879511 
L 161.564094 26.168151 
L 162.097685 26.111386 
L 162.325418 26.062118 
L 162.66286 25.7692 
L 162.930487 25.700123 
L 163.74168 26.061047 
L 163.92453 26.188501 
L 163.986035 26.327205 
L 163.992684 26.441812 
L 164.020943 26.520004 
L 164.148938 26.548924 
L 164.20878 26.499652 
L 164.280258 26.392542 
L 164.379995 26.29293 
L 164.532925 26.266154 
L 164.692504 26.379688 
L 164.812188 26.561778 
L 164.93021 26.666214 
L 165.083139 26.548924 
L 165.345779 26.645862 
L 165.911362 26.67108 
L 166.354783 26.690851 
L 166.723809 26.765832 
L 167.031331 26.902409 
L 167.293971 26.969895 
L 167.518379 26.832245 
L 167.591519 26.586949 
L 167.729488 25.481652 
L 167.802629 25.406154 
L 168.166668 25.322625 
L 168.288014 25.275506 
L 168.417672 25.091855 
L 168.504111 24.870734 
L 168.60551 24.412993 
L 168.349519 24.292542 
L 168.459229 23.984734 
L 168.668676 23.605219 
L 168.71522 23.269086 
L 169.302005 22.570126 
L 169.385119 22.49788 
L 169.439974 22.617219 
L 169.554671 22.570126 
L 169.666044 22.467912 
L 169.77243 22.326636 
L 169.804013 22.204093 
L 169.82396 21.868585 
L 169.995175 22.033928 
L 170.133144 22.215865 
L 170.292723 22.360884 
L 170.537078 22.42082 
L 170.678372 22.312722 
L 170.789745 21.83541 
L 170.977582 21.726255 
L 171.341622 21.621918 
L 171.605924 21.362422 
L 172.019832 20.723636 
L 172.12788 20.380737 
L 172.149489 20.371108 
L 172.194371 20.288195 
L 172.289121 20.378597 
L 172.380546 20.52089 
L 172.415454 20.595782 
L 172.641524 20.572244 
L 172.634875 20.492003 
L 172.533476 20.338478 
L 172.470309 20.094559 
L 172.515191 20.020208 
L 172.729625 19.923929 
L 172.799441 19.87579 
L 172.840998 19.861884 
L 172.980629 19.887558 
L 173.028835 19.87579 
L 173.040471 19.819094 
L 173.017199 19.651683 
L 173.028835 19.59285 
L 173.475989 18.964446 
L 173.687098 18.745192 
L 173.585699 18.578885 
L 173.4843 18.453758 
L 173.371265 18.369807 
L 173.238283 18.322217 
L 173.238283 18.168223 
L 173.487624 18.255379 
L 173.693747 18.380501 
L 173.840028 18.36339 
L 173.906519 18.025996 
L 174.355334 18.152182 
L 174.799163 18.045245 
L 176.245346 17.132625 
L 176.657592 16.942316 
L 177.10142 16.895809 
L 177.10142 17.02464 
L 177.013319 17.225644 
L 177.194508 17.310111 
L 177.497043 17.29033 
L 177.761345 17.1786 
L 177.766332 17.251304 
L 177.761345 17.474237 
L 177.881029 17.326149 
L 178.000713 16.98027 
L 178.090476 16.895809 
L 178.246731 16.934298 
L 178.281639 17.099481 
L 178.246731 17.307972 
L 178.190213 17.474237 
L 178.620744 17.229921 
L 179.054599 17.128348 
L 179.443572 16.949266 
L 179.737795 16.472455 
L 179.510063 16.435039 
L 179.476818 16.334552 
L 179.626423 16.048602 
L 179.696238 16.013862 
L 179.809273 16.024017 
L 179.912335 15.993552 
L 179.957216 15.830009 
L 179.933944 15.712966 
L 179.852493 15.566533 
L 179.85748 15.483164 
L 179.943918 15.275283 
L 180.055291 15.087716 
L 180.696931 14.330574 
L 180.941286 14.114192 
L 180.932974 13.758919 
L 181.080917 13.611475 
L 181.547422 13.512043 
L 181.564641 13.508373 
L 185.542476 13.721524 
L 189.222347 20.19833 
L 192.902218 26.683353 
L 193.806498 32.204031 
L 194.710778 37.730398 
L 194.732388 39.335312 
L 194.756774 39.435153 
L 194.840436 39.777685 
L 194.835449 40.176066 
L 194.739037 40.811816 
L 194.750673 41.054537 
L 194.896953 41.370306 
L 195.109725 41.534641 
L 195.357405 41.601236 
L 198.663679 41.729057 
L 199.69263 42.048086 
L 200.131472 42.344574 
L 200.183002 42.556207 
L 200.099888 42.86239 
L 200.131472 43.054704 
L 200.246169 43.200824 
L 200.723243 43.656397 
L 200.899445 43.75203 
L 200.899445 43.906764 
L 200.83794 43.937926 
L 200.680024 44.048607 
L 200.995857 44.336604 
L 201.320001 44.555834 
L 201.57433 44.823436 
L 201.679054 45.255496 
L 201.770479 45.351155 
L 201.979926 45.25657 
L 202.202672 45.108248 
L 202.337317 45.042686 
L 202.528479 45.171661 
L 202.606606 45.369427 
L 202.633202 45.590848 
L 202.322356 45.992866 
L 202.282461 46.122937 
L 202.202672 46.247636 
L 202.10626 46.489517 
L 201.828659 47.981879 
L 201.865229 48.200175 
L 201.577655 48.441063 
L 201.609238 48.840056 
L 201.913435 49.73816 
L 201.941694 49.965128 
L 201.945019 50.113577 
L 201.885177 50.811766 
L 201.702326 51.469152 
L 201.358234 53.589215 
L 201.23855 53.939046 
L 200.648441 54.933754 
L 200.573638 55.116781 
L 200.59691 55.298738 
L 200.74319 55.550687 
L 200.808019 55.581912 
L 201.082296 55.577605 
L 201.20198 55.670205 
L 201.268471 55.8048 
L 201.324988 55.953396 
L 201.409765 56.092305 
L 201.672405 56.429361 
L 201.851931 56.784744 
L 201.945019 57.203693 
L 201.951668 57.73146 
L 201.891826 58.166633 
L 201.768817 58.683711 
L 201.600927 59.183057 
L 201.408102 59.564463 
L 201.132164 59.754097 
L 200.301024 60.139849 
L 199.963581 60.401161 
L 199.373472 61.077932 
L 199.036029 61.33174 
L 198.083543 61.713281 
L 197.781008 61.92993 
L 196.348123 63.622961 
L 196.22179 63.689808 
L 195.787935 63.756656 
L 195.591786 63.863937 
L 195.14962 64.451591 
L 194.862046 64.720636 
L 194.519616 64.948175 
L 194.162226 65.065183 
L 193.82977 65.002634 
L 192.702744 64.38851 
L 192.069416 64.154522 
L 191.574057 64.156679 
L 190.955689 64.793965 
L 190.350619 65.58069 
L 189.81869 66.447335 
L 189.433041 67.322731 
L 189.157102 68.152934 
L 188.964278 68.477169 
L 188.352559 68.93145 
L 188.093243 69.215797 
L 187.91538 69.574622 
L 187.843901 70.003079 
L 187.950287 70.795856 
L 187.834784 71.126 
L 187.747489 71.375525 
L 184.882551 76.631105 
L 184.440384 77.83531 
L 183.836977 80.451394 
L 183.288424 84.400975 
L 182.929372 85.701248 
L 182.924385 85.973342 
L 183.034096 86.399625 
L 183.060692 86.642532 
L 183.025784 86.922237 
L 182.769793 87.628855 
L 182.581956 87.941608 
L 182.239526 88.278727 
L 182.090278 88.392308 
L 181.860526 88.567157 
L 181.561316 88.736 
L 180.299646 88.912965 
L 179.76273 89.178691 
L 179.476818 89.892576 
L 179.481804 90.310983 
L 179.674629 90.995751 
L 179.737795 91.397982 
L 179.671304 91.894984 
L 179.292305 92.664377 
L 179.169296 93.089447 
L 179.195892 93.563281 
L 179.360458 93.899046 
L 179.827559 94.525668 
L 180.00376 94.997432 
L 179.963865 95.333264 
L 179.812598 95.678321 
L 179.656344 96.179956 
L 179.448559 97.593499 
L 179.368769 98.952039 
L 178.918292 100.439842 
L 177.871056 100.978669 
L 176.606061 101.23075 
L 175.492334 101.858549 
L 175.276237 102.079213 
L 174.810799 102.855113 
L 174.632935 103.085568 
L 174.499953 103.20378 
L 173.555778 103.782939 
L 173.449392 103.883266 
L 173.336357 104.26452 
L 173.412822 104.33394 
L 173.869949 104.426682 
L 174.026203 104.851354 
L 174.155861 105.480544 
L 174.1409 106.311587 
L 174.079396 106.699475 
L 173.979659 107.061341 
L 173.23662 108.789528 
L 172.914138 109.789721 
L 172.895853 110.63806 
L 173.012213 111.403979 
L 172.649836 115.364501 
L 172.470309 116.266131 
L 172.122893 116.887555 
L 171.908459 117.005978 
L 171.708985 117.001632 
L 171.504525 116.953828 
L 171.27513 116.941877 
L 171.09228 117.058672 
L 170.97592 117.305847 
L 170.834626 117.900186 
L 170.598583 118.577156 
L 170.312671 118.984669 
L 168.665352 120.112772 
L 168.417672 120.18994 
L 168.179966 120.130162 
L 167.661335 119.82095 
L 167.451888 119.743241 
L 167.159326 119.787258 
L 166.958191 119.923113 
L 166.772015 120.093208 
L 166.517686 120.236677 
L 166.294941 120.263849 
L 166.065546 120.216026 
L 165.62338 120.030713 
L 165.7547 120.335041 
L 166.132038 121.527467 
L 166.176919 121.825872 
L 166.186893 122.408581 
L 166.047261 122.602102 
L 165.563538 123.039171 
L 165.442192 123.253908 
L 165.33913 123.508882 
L 165.211135 123.750816 
L 165.019973 123.928601 
L 164.680868 123.990582 
L 164.0625 123.855203 
L 163.711759 124.044951 
L 163.342733 124.727864 
L 163.218062 125.635963 
L 163.257956 126.59365 
L 163.513947 128.293934 
L 163.498987 128.712802 
L 163.450123 128.892598 
L 163.375978 129.165419 
L 162.719378 130.380859 
L 162.627952 130.89233 
L 162.629615 131.710202 
L 162.717716 132.518899 
L 162.829088 133.035937 
L 162.872308 133.384275 
L 162.780882 133.690171 
L 162.172488 134.518646 
L 160.575037 137.414011 
L 159.996564 138.78525 
L 159.886854 139.217685 
L 159.836985 139.681731 
L 159.863582 140.126191 
L 160.092976 141.362732 
L 160.02981 141.792019 
L 159.828674 142.031731 
L 159.576007 142.260552 
L 159.147139 143.095254 
L 158.139855 144.378936 
L 157.193961 145.584542 
L 156.196593 147.522799 
L 155.870786 147.922927 
L 155.583212 148.205315 
L 155.455216 148.392852 
L 155.548304 148.516061 
L 155.930628 148.610923 
L 156.156698 148.86171 
L 156.956255 150.374202 
L 157.582934 151.266321 
L 157.782408 151.795305 
L 157.636127 152.274141 
L 157.481535 152.35704 
L 157.345228 152.306864 
L 157.20061 152.219603 
L 157.021084 152.197787 
L 156.801663 152.28614 
L 156.61715 152.431213 
L 155.933953 153.2417 
L 155.694585 153.443514 
L 155.648041 153.633332 
L 155.619782 153.836245 
L 155.526694 154.002069 
L 155.416984 154.053344 
L 155.16598 154.066435 
L 154.986454 154.122075 
L 154.821888 154.100255 
L 154.745423 154.126438 
L 154.680594 154.225717 
L 154.622414 154.501739 
L 154.562572 154.611932 
L 153.631696 155.37895 
L 152.642639 156.56614 
L 152.35174 157.101948 
L 152.261977 157.667796 
L 152.366701 157.983746 
L 152.720767 158.50653 
L 152.798894 158.885811 
L 152.757337 159.45885 
L 152.652613 160.021005 
L 152.187175 161.444537 
L 151.806513 162.137268 
L 151.369333 162.457173 
L 150.734343 162.539607 
L 150.310461 162.988913 
L 150.069431 163.703582 
L 149.971356 164.579376 
L 149.869957 165.061529 
L 149.555786 165.44541 
L 149.143541 165.712442 
L 148.746256 165.835858 
L 148.570055 165.822752 
L 148.220976 165.710258 
L 148.044774 165.689507 
L 147.984932 165.735378 
L 147.813717 165.935793 
L 147.717305 165.990403 
L 147.600946 165.968559 
L 147.421419 165.819475 
L 147.334981 165.782341 
L 146.860973 165.847342 
L 145.865526 165.983849 
L 145.433333 165.905212 
L 145.169031 165.585751 
L 144.853198 164.579376 
L 144.582246 162.947421 
L 144.530715 162.122529 
L 144.557312 161.283507 
L 144.507443 160.276987 
L 144.198259 159.428288 
L 143.649707 158.863981 
L 142.150331 158.504893 
L 141.636687 157.832591 
L 141.314205 156.909883 
L 141.166262 155.948522 
L 140.903621 155.106177 
L 140.376679 154.639207 
L 139.055167 153.988977 
L 137.929803 153.208974 
L 137.505922 153.025709 
L 137.215023 152.723548 
L 137.128585 151.685143 
L 136.831037 151.187794 
L 136.598318 151.782216 
L 136.398844 152.549019 
L 136.262537 153.343152 
L 136.167787 154.959974 
L 136.099634 155.029802 
L 136.008208 155.05817 
L 135.906809 155.157458 
L 135.708998 155.504427 
L 135.577678 155.790304 
L 135.511187 156.120927 
L 135.501213 156.595603 
L 131.358813 156.673081 
L 130.914984 156.500666 
L 130.577541 156.156937 
L 130.409651 155.745567 
L 130.178594 154.191897 
L 130.047274 153.849336 
L 129.822866 153.787152 
L 129.445529 154.067526 
L 125.507589 158.432313 
L 125.130251 158.639686 
L 124.817743 158.519627 
L 124.505234 158.319351 
L 124.12291 158.283334 
L 123.822037 158.727548 
L 122.602232 163.785487 
L 122.586964 163.848815 
L 122.385828 164.057386 
L 121.81134 164.061869 
L 121.616192 164.063392 
L 121.139118 164.189519 
L 120.89975 164.452698 
L 120.524075 165.385343 
L 120.269746 165.71135 
L 119.942277 165.925963 
L 119.298839 166.239005 
L 119.202562 166.285846 
L 118.728813 166.673046 
L 118.241765 167.905734 
L 117.792949 168.26131 
L 117.538621 168.280974 
L 117.335823 168.258033 
L 117.146323 168.283159 
L 116.92524 168.442107 
L 116.705819 168.769297 
L 116.247029 170.039362 
L 115.836446 170.793275 
L 113.630602 173.124707 
L 112.146186 175.148355 
L 112.146186 175.151634 
L 111.802094 175.804763 
L 111.599296 176.089527 
L 111.341643 176.264433 
L 111.255204 176.408187 
L 111.220296 177.010548 
L 111.162116 177.286595 
L 110.877867 177.332512 
L 110.527126 177.166883 
L 110.181372 177.102381 
L 109.907095 177.448399 
L 109.690999 177.808094 
L 109.1225 178.307749 
L 108.951285 178.655989 
L 108.981206 179.085153 
L 109.154083 179.42084 
L 109.295377 179.789888 
L 109.223899 180.321336 
L 108.941311 180.77571 
L 108.657061 181.051842 
L 108.534053 181.355867 
L 108.745162 181.89121 
L 109.069307 182.303533 
L 109.428359 182.668292 
L 109.730894 183.085015 
L 109.895459 183.649419 
L 109.823981 184.160247 
L 109.579626 184.573191 
L 109.277092 184.953877 
L 109.036061 185.365752 
L 108.936324 185.824136 
L 108.959596 186.238227 
L 109.016114 186.647408 
L 109.024425 187.094349 
L 108.918039 187.568112 
L 108.572285 188.463712 
L 108.469224 188.975824 
L 108.487509 189.255415 
L 108.620491 189.76701 
L 108.637114 189.992446 
L 108.206584 192.869824 
L 108.090224 193.142927 
L 107.922334 193.243632 
L 107.732834 193.286869 
L 107.553308 193.394143 
L 107.392067 193.620186 
L 107.079558 194.24853 
L 106.979821 194.531513 
L 106.742115 195.456036 
L 106.59251 195.874253 
L 106.353142 196.31438 
L 106.353142 196.317664 
L 105.721476 197.631557 
L 105.623401 198.014798 
L 105.184559 198.441303 
L 105.043266 198.76598 
L 105.094796 199.217146 
L 105.143002 199.510083 
L 105.202844 199.813977 
L 104.928568 200.164968 
L 104.913359 200.165408 
L 104.919903 200.161096 
L 104.885872 200.061067 
L 104.777235 199.961901 
L 104.631949 199.916199 
L 104.50237 199.998118 
L 104.333524 200.183517 
L 104.189548 200.400824 
L 104.126721 200.568118 
L 104.095308 200.754386 
L 103.95264 201.161424 
L 103.909447 201.377021 
L 103.922536 201.586584 
L 104.027246 201.892741 
L 104.019393 202.08765 
L 103.878034 202.420553 
L 103.693481 202.523185 
L 103.477516 202.4792 
L 103.237991 202.375705 
L 103.166002 202.401579 
L 103.010245 202.41969 
L 102.900299 202.361906 
L 102.96967 202.160094 
L 103.037732 202.02038 
L 103.113647 201.79615 
L 103.147678 201.587446 
L 103.079616 201.496032 
L 102.935639 201.544326 
L 102.624125 201.749579 
L 102.414704 201.797875 
L 101.938271 201.563299 
L 101.909476 200.980325 
L 102.067851 200.22577 
L 102.142457 199.483326 
L 102.042982 199.483326 
L 101.935654 200.205937 
L 101.580947 200.578466 
L 101.121529 200.545697 
L 100.702687 200.04727 
L 100.755042 199.966212 
L 100.823104 199.759259 
L 100.697452 199.717869 
L 100.375467 199.483326 
L 100.448764 199.197051 
L 100.316567 198.960792 
L 99.88071 198.529672 
L 99.495898 198.246864 
L 99.477574 198.227896 
L 99.385952 197.877843 
L 99.205327 197.421753 
L 99.090145 197.232941 
L 98.891195 197.155347 
L 98.714496 197.054477 
L 98.519473 196.826874 
L 98.359789 196.582894 
L 98.278639 196.432888 
L 98.179164 196.432888 
L 98.179164 196.563066 
L 99.060041 197.657125 
L 99.276006 198.022691 
L 99.694848 199.033221 
L 99.757675 199.52644 
L 99.495898 199.759259 
L 99.600609 200.049857 
L 99.76291 200.387026 
L 99.946154 200.668151 
L 100.100602 200.784569 
L 100.261594 200.969977 
L 100.503737 201.880667 
L 100.702687 202.232539 
L 100.647714 202.365356 
L 100.519444 202.838848 
L 100.495884 203.034632 
L 100.560019 203.33823 
L 100.715776 203.457256 
L 100.897711 203.529707 
L 101.042996 203.692724 
L 101.090116 204.186958 
L 100.842738 204.483679 
L 100.528606 204.732101 
L 100.375467 205.07455 
L 100.155575 205.718927 
L 99.998509 205.818994 
L 99.84537 205.856087 
L 99.145118 205.855225 
L 98.228901 205.718927 
L 96.851958 205.718927 
L 96.18181 205.589532 
L 95.871606 205.602472 
L 95.336273 205.970819 
L 95.024759 206.021716 
L 94.316654 206.021716 
L 91.569312 206.441834 
L 91.417482 206.322785 
L 91.213296 206.290866 
L 91.0222 206.374546 
L 90.900474 206.600568 
L 91.073246 206.590215 
L 91.222458 206.61092 
L 91.346802 206.662681 
L 91.450204 206.745499 
L 91.10335 206.865414 
L 90.582415 206.900785 
L 90.111218 206.802437 
L 89.903106 206.521201 
L 89.679287 206.44356 
L 88.255224 206.31157 
L 88.308888 206.222716 
L 88.338992 206.153703 
L 88.383494 206.091591 
L 88.473807 206.021716 
L 88.269622 205.938901 
L 88.081143 205.975995 
L 87.947637 205.962193 
L 87.916224 205.718927 
L 87.971197 205.594708 
L 88.081143 205.499819 
L 88.192398 205.375601 
L 88.255224 205.153047 
L 88.208104 205.048672 
L 87.916224 204.561311 
L 87.963343 204.479366 
L 88.035332 204.271489 
L 87.79188 203.904906 
L 87.846853 203.36583 
L 88.136116 202.375705 
L 88.035332 202.375705 
L 87.854706 202.551646 
L 87.763085 202.639617 
L 87.645285 202.825911 
L 87.595548 203.034632 
L 87.632196 203.34858 
L 87.681934 203.581458 
L 87.680625 203.793639 
L 87.547119 204.047226 
L 87.543193 204.179195 
L 87.763085 204.525945 
L 87.81544 204.704499 
L 87.763085 204.757979 
L 87.496073 205.153047 
L 87.34686 205.307455 
L 87.162308 205.442886 
L 86.980373 205.467039 
L 86.825925 205.284164 
L 86.715979 205.284164 
L 86.577238 205.721515 
L 86.227767 205.67407 
L 85.670183 205.284164 
L 85.268356 205.255698 
L 84.849514 205.146147 
L 84.493499 204.924458 
L 84.291931 204.561311 
L 84.193765 204.640668 
L 84.083819 204.685522 
L 83.793247 204.704499 
L 83.742201 204.770055 
L 83.722567 204.91842 
L 83.667594 205.069375 
L 83.514455 205.153047 
L 83.514455 205.284164 
L 83.620475 205.370426 
L 83.734347 205.442023 
L 83.634872 205.57573 
L 83.841676 205.67407 
L 84.115232 205.962193 
L 84.555016 206.081239 
L 84.633549 206.226166 
L 84.609989 206.414229 
L 84.511823 206.600568 
L 83.793247 206.745499 
L 83.714714 206.63335 
L 83.353463 205.943215 
L 82.336462 204.481954 
L 82.195103 204.047226 
L 82.195103 203.469331 
L 82.150601 203.26923 
L 82.04589 203.268367 
L 81.818145 203.414131 
L 81.467365 203.418443 
L 81.415009 203.389981 
L 81.281503 203.195055 
L 80.990932 202.882834 
L 80.867897 202.667216 
L 80.603503 201.703009 
L 80.428113 201.377021 
L 80.407171 201.583997 
L 80.32602 201.78925 
L 80.242251 201.932412 
L 80.200367 201.954835 
L 80.244869 202.170443 
L 80.329947 202.207528 
L 80.435966 202.22564 
L 80.538059 202.375705 
L 80.699051 203.107943 
L 80.848264 203.418443 
L 81.142762 203.54782 
L 81.641446 203.879893 
L 82.002697 204.602714 
L 82.061597 205.303142 
L 81.645372 205.57573 
L 81.852176 205.76896 
L 82.096937 206.076063 
L 82.242222 206.445285 
L 82.14013 206.817966 
L 81.696419 207.471904 
L 81.421554 207.632373 
L 81.087789 207.455512 
L 81.079936 207.784217 
L 81.087789 207.890335 
L 80.789364 207.71002 
L 80.569472 207.475355 
L 80.472615 207.161323 
L 80.538059 206.745499 
L 80.323402 206.997408 
L 80.281518 207.351985 
L 80.369213 207.729001 
L 80.538059 208.04822 
L 80.100892 208.193165 
L 79.980475 208.193165 
L 79.786761 207.698805 
L 79.689903 207.168225 
L 79.648019 206.088141 
L 79.386243 205.51017 
L 79.309019 205.154773 
L 79.489645 204.996054 
L 79.560324 204.82181 
L 79.642784 204.42675 
L 79.687286 203.988573 
L 79.648019 203.692724 
L 79.731788 203.744475 
L 79.881 203.780702 
L 79.980475 203.824691 
L 79.874456 203.589221 
L 79.551162 203.113118 
L 79.4831 202.880247 
L 79.403258 202.422278 
L 79.33127 202.232539 
L 79.030227 202.77675 
L 78.928134 202.770713 
L 78.86269 202.425727 
L 78.672903 201.954835 
L 78.59437 202.279974 
L 78.633636 202.784512 
L 78.562957 202.955283 
L 78.742273 203.298555 
L 79.100907 204.561311 
L 78.93337 204.561311 
L 78.820806 204.536296 
L 78.737038 204.453489 
L 78.672903 204.271489 
L 78.608767 204.330143 
L 78.45301 204.416399 
L 78.311651 204.005823 
L 78.140188 203.646147 
L 77.674226 202.955283 
L 77.706948 203.309768 
L 77.785481 203.591809 
L 78.011917 204.112779 
L 78.145423 204.333593 
L 78.205632 204.46384 
L 78.233118 204.632042 
L 78.171601 204.814909 
L 78.060346 204.91842 
L 78.006682 205.042634 
L 78.123172 205.284164 
L 78.284165 204.956374 
L 78.58259 204.854588 
L 78.870544 204.947748 
L 79.001432 205.219468 
L 78.846984 206.679072 
L 78.881015 207.178578 
L 79.450378 208.669423 
L 79.654564 209.008505 
L 79.629695 209.212994 
L 79.535455 209.416622 
L 79.379699 209.508083 
L 79.168969 209.471844 
L 78.996196 209.370892 
L 78.696462 209.190561 
L 78.705625 209.287197 
L 78.727876 209.383835 
L 78.782849 209.508083 
L 78.428142 209.361401 
L 78.074744 209.148282 
L 77.714801 209.042155 
L 77.344388 209.219897 
L 77.161144 208.972267 
L 77.035492 208.635773 
L 77.009314 208.257873 
L 77.124496 207.890335 
L 76.849631 207.703118 
L 76.600943 207.14752 
L 76.425553 206.477204 
L 76.356182 205.943215 
L 76.386287 205.558478 
L 76.466128 205.34886 
L 76.576074 205.199628 
L 76.695183 204.996054 
L 76.76848 204.782131 
L 76.835233 204.440551 
L 76.788113 204.122267 
L 76.521101 203.982535 
L 76.108804 203.672886 
L 75.823468 202.963045 
L 75.577398 201.653852 
L 75.530278 201.132103 
L 75.585251 200.862181 
L 75.751479 200.568118 
L 75.861425 200.311141 
L 75.82085 200.128328 
L 75.674255 200.111944 
L 75.476614 200.350808 
L 75.323475 200.109357 
L 75.272428 199.957589 
L 75.24756 199.759259 
L 75.108818 199.850663 
L 74.975312 199.881706 
L 74.839189 199.850663 
L 74.699138 199.759259 
L 74.769818 200.11798 
L 74.801231 200.500855 
L 74.879764 200.805265 
L 75.083949 200.930308 
L 75.226618 201.089847 
L 75.343108 201.467572 
L 75.476614 202.232539 
L 75.53944 203.025144 
L 75.61012 203.392568 
L 75.751479 203.54782 
L 75.955665 203.690136 
L 76.166394 204.023937 
L 76.466128 204.704499 
L 76.104877 205.11078 
L 76.026344 205.284164 
L 75.994931 205.582631 
L 76.315607 207.667746 
L 76.475291 208.291522 
L 76.695183 208.628008 
L 76.661152 209.119809 
L 76.988372 209.492552 
L 77.195175 209.800589 
L 76.795967 210.087923 
L 76.292047 210.207 
L 75.648077 210.26395 
L 75.052536 210.194057 
L 74.699138 209.930018 
L 74.65071 209.624567 
L 74.710918 208.372623 
L 74.789451 208.219049 
L 74.809084 208.120693 
L 74.773745 208.009396 
L 74.624532 207.843746 
L 74.589192 207.758334 
L 74.589192 207.020701 
L 74.648092 206.679072 
L 75.009343 205.410969 
L 75.044683 205.183239 
L 75.028976 204.561311 
L 74.724007 205.054711 
L 74.477937 205.946665 
L 74.3693 206.907687 
L 74.479246 207.613393 
L 74.408567 207.789393 
L 74.400713 208.206107 
L 74.3693 208.483059 
L 74.218779 208.005082 
L 74.169041 207.713471 
L 74.124539 206.412503 
L 74.039462 206.153703 
L 73.977945 206.296905 
L 73.904647 206.419405 
L 73.818261 206.518613 
L 73.709624 206.600568 
L 73.79601 206.900785 
L 73.810408 207.890335 
L 73.874543 208.234578 
L 74.069566 208.695306 
L 74.197837 209.102553 
L 74.360138 209.836829 
L 74.3693 210.087923 
L 74.250192 210.313998 
L 74.086582 210.388206 
L 73.590516 210.377851 
L 73.137643 210.43739 
L 73.043403 210.310546 
L 72.868013 209.62543 
L 72.820893 208.969679 
L 72.841835 208.004219 
L 72.773774 207.228615 
L 72.531631 206.68166 
L 72.043418 206.745499 
L 72.492364 207.212224 
L 72.653357 207.958493 
L 72.594457 208.822138 
L 72.382418 209.640099 
L 72.351005 210.349376 
L 71.551278 210.598752 
L 70.616737 210.481398 
L 70.175644 210.087923 
L 69.959678 210.13797 
L 69.74764 210.219943 
L 69.869366 210.617736 
L 69.60628 210.750623 
L 69.203145 210.784276 
L 68.907338 210.885237 
L 68.598442 211.063861 
L 67.858924 211.090612 
L 67.540865 211.245939 
L 67.159981 210.65484 
L 67.485892 209.753995 
L 68.538233 208.193165 
L 68.328812 208.169871 
L 68.197924 208.12932 
L 68.098449 208.122418 
L 67.970179 208.193165 
L 67.420448 209.061137 
L 67.347151 207.918806 
L 67.09061 206.890433 
L 66.991135 206.890433 
L 66.972811 207.311437 
L 67.001606 207.849786 
L 67.077521 208.376937 
L 67.200556 208.759154 
L 67.04349 208.552945 
L 66.908676 208.322582 
L 66.726741 208.133634 
L 66.433552 208.04822 
L 66.606324 208.542592 
L 66.781714 208.871318 
L 66.89166 209.223348 
L 66.870718 209.785058 
L 66.766008 210.200097 
L 66.650826 210.509873 
L 66.551351 210.607381 
L 66.417845 210.664332 
L 66.320988 210.788591 
L 66.323606 211.088886 
L 66.451876 211.006908 
L 66.553969 211.006908 
L 66.771243 211.088886 
L 66.68093 211.289086 
L 66.225439 211.49274 
L 65.628589 211.535024 
L 65.224145 211.390912 
L 65.169172 211.493603 
L 65.064462 211.591116 
L 65.004253 211.68 
L 64.745094 211.553146 
L 64.601118 211.339136 
L 64.546144 211.040562 
L 64.556616 210.65484 
L 64.623368 210.301917 
L 64.839334 209.798001 
L 64.883836 209.508083 
L 64.810539 209.5495 
L 64.632531 209.604722 
L 64.556616 209.640099 
L 64.559233 209.30618 
L 64.616824 208.73327 
L 64.441434 208.708248 
L 64.273897 208.651304 
L 64.081492 208.547769 
L 63.886468 208.628008 
L 63.83804 208.843709 
L 63.868144 209.156048 
L 63.938823 209.456313 
L 64.006885 209.640099 
L 63.938823 209.918801 
L 64.02521 210.151776 
L 64.156098 210.402012 
L 64.226777 210.733365 
L 64.183584 211.190711 
L 64.057932 211.168275 
L 63.868144 210.949093 
L 63.624692 210.812752 
L 63.268676 210.790317 
L 63.140406 210.678139 
L 63.116846 209.930018 
L 63.213703 209.896367 
L 63.242499 209.834241 
L 63.033077 209.423525 
L 63.0069 209.350184 
L 62.988575 208.992112 
L 63.0069 208.628008 
L 62.910043 208.628008 
L 62.789626 209.350184 
L 62.707166 209.256998 
L 62.459787 209.061137 
L 62.703239 209.785058 
L 62.752977 210.139696 
L 62.569733 210.377851 
L 62.326281 210.343336 
L 62.078903 210.132793 
L 61.873408 209.898093 
L 61.745138 209.785058 
L 61.419227 209.629744 
L 61.059284 209.238879 
L 60.868187 208.722916 
L 61.033107 208.193165 
L 60.852481 208.174184 
L 60.737299 208.239755 
L 60.688871 208.392467 
L 60.703268 208.628008 
L 60.602485 208.628008 
L 60.339399 208.272541 
L 59.690194 207.782491 
L 59.495171 207.455512 
L 59.606426 207.548688 
L 59.818464 207.67206 
L 59.933646 207.758334 
L 59.809302 207.490884 
L 59.614279 207.367514 
L 59.389151 207.295045 
L 59.165333 207.178578 
L 58.821097 206.686836 
L 58.698062 206.461676 
L 58.268749 205.881967 
L 58.166656 205.791389 
L 56.674531 203.955796 
L 56.224276 203.133818 
L 56.069828 202.232539 
L 56.13789 202.261862 
L 56.187627 202.290323 
L 56.298882 202.375705 
L 56.297573 201.982433 
L 55.593395 201.411517 
L 55.41146 201.002747 
L 55.332928 200.662976 
L 54.928483 199.747187 
L 54.753093 199.483326 
L 55.301514 199.916199 
L 55.164082 199.410894 
L 54.649691 198.650384 
L 54.203363 197.010508 
L 54.060695 196.020809 
L 53.974309 195.694948 
L 53.768814 195.140656 
L 53.682428 194.819988 
L 53.64447 194.465709 
L 53.593424 194.305381 
L 53.479551 194.143331 
L 53.368296 193.926118 
L 53.314632 193.591687 
L 53.393165 193.334834 
L 53.585571 193.234853 
L 53.836876 193.258986 
L 54.084255 193.367587 
L 54.258336 193.558933 
L 54.548908 194.084718 
L 54.753093 194.248491 
L 54.508332 193.417578 
L 54.412784 193.092639 
L 54.755711 193.136596 
L 55.081622 193.236577 
L 54.963823 192.984903 
L 54.524039 192.350566 
L 54.357811 192.223875 
L 54.297602 192.312645 
L 54.312 192.700482 
L 54.2531 192.788393 
L 54.10127 192.795288 
L 53.988706 192.818559 
L 53.754416 192.933189 
L 53.542378 192.812526 
L 53.156258 192.900438 
L 52.986103 192.788393 
L 52.95469 192.616881 
L 52.986103 191.850702 
L 52.914115 190.871711 
L 52.577732 188.966501 
L 52.666736 188.686473 
L 53.041076 188.583079 
L 54.107814 188.555508 
L 54.412784 188.439191 
L 54.453359 188.635637 
L 54.496552 188.77522 
L 54.633985 189.031124 
L 54.763564 188.894986 
L 54.88529 188.57791 
L 54.972985 188.439191 
L 55.065916 188.353893 
L 55.624808 188.067846 
L 55.889202 188.002367 
L 56.133963 188.01529 
L 56.298882 188.160897 
L 56.400975 188.160897 
L 56.279249 187.892086 
L 55.894438 187.450972 
L 55.741299 187.137377 
L 55.682399 186.842742 
L 55.661457 186.495563 
L 55.694179 186.162178 
L 55.796272 185.908913 
L 56.009619 185.728013 
L 56.253071 185.664268 
L 56.789713 185.678051 
L 56.982118 185.557453 
L 57.170597 185.283527 
L 57.398343 184.811493 
L 57.140493 184.951034 
L 56.925836 185.19825 
L 56.695473 185.361053 
L 56.400975 185.244765 
L 56.357782 185.348132 
L 56.255689 185.441163 
L 56.179774 185.547116 
L 55.808052 185.440302 
L 55.42324 185.691834 
L 55.199422 186.160455 
L 55.301514 186.704903 
L 55.116962 187.220083 
L 54.904923 187.535403 
L 54.643147 187.614665 
L 54.302838 187.425988 
L 54.208598 187.282112 
L 54.182421 187.146853 
L 54.119594 187.046056 
L 53.919336 187.006427 
L 53.834258 187.127039 
L 53.87876 187.402726 
L 53.982162 187.695651 
L 54.084255 187.873132 
L 53.15364 187.804207 
L 51.33953 187.006427 
L 51.263615 186.89357 
L 51.190318 186.661829 
L 51.130109 186.547252 
L 50.622263 185.934756 
L 50.291116 185.631534 
L 50.172008 185.178438 
L 50.137977 184.727941 
L 50.18117 184.522079 
L 50.289807 184.443697 
L 50.551583 184.071605 
L 50.690325 183.94327 
L 50.809433 183.915708 
L 52.384018 184.001839 
L 52.980868 184.131035 
L 53.314632 184.379097 
L 53.424578 184.379097 
L 53.581644 184.079357 
L 53.848656 183.322286 
L 53.974309 183.076829 
L 54.182421 182.9597 
L 54.437653 182.965729 
L 54.682413 183.063049 
L 54.853877 183.221519 
L 54.89707 183.376545 
L 54.987383 183.845082 
L 55.027958 183.94327 
L 55.195495 183.931212 
L 55.277955 183.872643 
L 55.302823 183.743449 
L 55.301514 183.510903 
L 55.182406 183.180179 
L 54.90885 182.818459 
L 54.582938 182.516172 
L 54.302838 182.355127 
L 53.997868 182.363739 
L 53.844729 182.573873 
L 53.64447 183.221519 
L 53.475625 183.42047 
L 53.21254 183.588418 
L 52.920659 183.679714 
L 52.654956 183.655598 
L 52.349987 183.430805 
L 52.219098 183.131088 
L 52.224334 182.769369 
L 52.525377 181.616244 
L 52.562025 181.304514 
L 52.535848 180.909265 
L 52.436373 180.909265 
L 51.996589 182.48603 
L 51.822507 182.90372 
L 51.614395 183.175011 
L 51.336912 183.322286 
L 50.952101 183.36621 
L 50.77802 183.426499 
L 50.402371 183.715027 
L 49.996618 183.913986 
L 49.898452 183.854556 
L 49.682486 183.655598 
L 49.436416 183.362765 
L 49.183802 182.950227 
L 48.983543 182.511866 
L 48.831713 181.915926 
L 48.679883 181.622272 
L 48.531979 181.244235 
L 48.47308 180.751685 
L 48.512346 180.326317 
L 48.609203 179.84758 
L 48.758416 179.456683 
L 48.956057 179.293095 
L 49.140609 179.37575 
L 49.462594 179.713262 
L 49.583011 179.752868 
L 49.66678 179.61769 
L 49.63144 179.429131 
L 49.568613 179.214746 
L 49.583011 179.00553 
L 50.088239 178.423534 
L 51.407592 177.791634 
L 51.776697 176.983299 
L 51.441623 177.061633 
L 50.891893 177.706408 
L 50.255776 177.958645 
L 49.035899 178.801484 
L 48.802918 179.023611 
L 47.991411 180.019786 
L 47.825183 180.000843 
L 47.224407 178.272013 
L 45.271555 174.943333 
L 44.943026 174.539685 
L 44.310836 174.181663 
L 44.017647 173.747921 
L 43.611894 172.913184 
L 43.050384 172.144763 
L 42.555626 171.620751 
L 41.34622 170.62184 
L 40.813505 170.180488 
L 39.826608 168.969224 
L 39.210125 168.45138 
L 38.952276 168.303429 
L 37.545228 167.493173 
L 36.522991 167.245463 
L 33.046602 166.405182 
L 28.936714 165.955396 
L 22.074249 166.405182 
L 21.712997 166.32778 
L 21.515356 166.139437 
L 21.35829 165.904657 
L 21.130545 165.682782 
L 21.281066 165.580445 
L 21.389704 165.546047 
L 21.483943 165.578725 
L 21.579491 165.682782 
L 21.830797 165.382655 
L 21.923727 165.496169 
L 21.956449 165.814358 
L 22.019276 166.129116 
L 22.584712 165.449731 
L 22.678952 165.46607 
L 22.733925 165.633763 
L 22.859577 165.641503 
L 23.06769 165.538307 
L 23.373968 165.528847 
L 23.646215 165.465211 
L 23.894903 165.293221 
L 24.116104 164.960428 
L 24.146208 164.730833 
L 24.109559 164.496083 
L 24.12003 164.31293 
L 24.281023 164.238982 
L 24.932846 164.238982 
L 25.277082 164.149557 
L 25.985186 163.853772 
L 26.201152 163.938035 
L 26.562403 163.750593 
L 26.884388 163.500388 
L 27.112133 163.162491 
L 27.19852 162.711119 
L 27.398778 162.607091 
L 28.737764 162.350895 
L 28.614729 162.226238 
L 28.513946 162.168638 
L 28.415779 162.165199 
L 28.29798 162.206465 
L 27.383072 161.924487 
L 26.478635 162.373247 
L 25.616082 163.026648 
L 24.83468 163.361101 
L 24.54149 163.36368 
L 24.375262 163.392913 
L 23.809825 163.788425 
L 23.625273 163.874408 
L 23.436794 163.923418 
L 23.227373 163.938035 
L 23.189416 163.888165 
L 22.98523 163.793584 
L 22.788898 163.807341 
L 22.685496 163.700723 
L 22.635759 163.634518 
L 22.569006 163.361101 
L 22.55199 163.102307 
L 22.663245 162.649218 
L 22.678952 162.350895 
L 22.402778 162.561526 
L 22.207754 162.782478 
L 21.854356 163.288879 
L 21.724777 163.353363 
L 21.554623 163.361961 
L 21.410646 163.408389 
L 21.350437 163.583789 
L 21.373997 163.732537 
L 21.463001 164.042936 
L 21.469545 164.238982 
L 21.40541 164.464268 
L 21.178974 164.918292 
L 21.130545 165.171969 
L 21.069028 165.321599 
L 20.952537 165.437692 
L 20.887093 165.566686 
L 20.970861 165.755019 
L 21.049394 165.865957 
L 21.092587 165.974316 
L 21.117456 166.099876 
L 21.203842 166.201357 
L 21.124001 166.672655 
L 20.185533 166.805103 
L 18.384512 166.693296 
L 16.264124 167.01496 
L 13.777249 166.854127 
L 10.176085 167.292808 
L 10.182792 166.004601 
L 10.306027 165.058853 
L 10.362318 164.62688 
L 10.416726 164.419584 
L 10.714721 163.284275 
L 10.747967 162.837141 
L 10.609998 161.946203 
L 10.614985 161.513317 
L 10.799498 161.059161 
L 11.090396 160.720193 
L 11.288208 160.549349 
L 11.377971 160.310827 
L 11.324778 159.336599 
L 11.293195 159.122118 
L 11.198445 159.026612 
L 10.998971 159.002053 
L 10.834405 158.937656 
L 10.698098 158.809408 
L 10.57509 158.594937 
L 10.493638 158.178559 
L 10.536857 157.721272 
L 10.708072 156.835678 
L 10.628283 155.950704 
L 10.410524 155.141091 
L 10.357331 154.375183 
L 10.774563 153.615877 
L 10.962401 153.49915 
L 11.168524 153.419514 
L 11.333089 153.304971 
L 11.396256 153.07698 
L 11.303168 152.877355 
L 10.880949 152.424668 
L 10.74298 152.197787 
L 10.681476 151.922919 
L 10.698098 151.776762 
L 10.767914 151.636061 
L 10.915857 151.235782 
L 11.043853 151.017654 
L 11.097046 150.81807 
L 11.113668 150.525791 
L 10.776226 145.33602 
L 10.81612 145.102764 
L 10.939129 145.010117 
L 11.107019 145.012297 
L 11.454436 145.102764 
L 11.505966 145.060255 
L 11.517602 144.94145 
L 11.555835 144.75289 
L 11.599054 143.871179 
L 11.243326 143.098523 
L 10.767914 142.358621 
L 10.445432 141.574104 
L 10.360656 140.747165 
L 10.398036 140.056531 
L 10.551818 137.215803 
L 10.506936 136.913054 
L 10.36398 136.610315 
L 9.978331 136.049512 
L 9.797143 135.445192 
L 9.667485 135.187143 
L 9.659052 135.106291 
L 9.6492 135.011848 
L 9.68577 134.85071 
L 9.850336 134.448968 
L 9.906853 134.261712 
L 9.968358 132.933616 
L 10.171156 131.599733 
L 10.206064 130.340595 
L 10.249283 129.955381 
L 10.373954 129.599019 
L 10.541844 129.247568 
L 10.668177 128.86077 
L 10.676489 128.398921 
L 10.566778 127.950695 
L 10.250945 127.074438 
L 10.126274 126.609966 
L 10.068095 126.108539 
L 10.088042 125.705569 
L 10.211051 124.833894 
L 10.211051 124.638691 
L 10.171156 124.249928 
L 10.17448 124.063437 
L 10.259257 123.800291 
L 10.580077 123.330019 
L 10.708072 123.082118 
L 10.834405 122.371617 
L 10.796868 121.757584 
L 10.483404 116.631804 
L 10.482002 116.608886 
L 10.486989 116.385632 
L 10.578414 116.227022 
L 10.849366 116.0657 
L 10.935804 115.954894 
L 10.955752 115.768593 
L 10.872638 115.445427 
L 10.85269 115.259137 
L 10.912533 114.934905 
L 11.113668 114.336442 
L 11.120317 114.015507 
L 11.058813 113.868891 
L 10.979024 113.831965 
L 10.91087 113.785809 
L 10.882612 113.613677 
L 10.922506 113.570237 
L 11.103695 113.216754 
L 11.155225 113.089156 
L 11.243326 112.513636 
L 11.278234 111.181958 
L 11.226703 110.625033 
L 12.466764 110.756932 
L 12.68286 110.717851 
L 12.837452 110.569125 
L 12.973759 110.383494 
L 13.144974 110.240203 
L 13.317851 110.197867 
L 13.811548 110.177242 
L 13.986087 110.20438 
L 14.162289 110.312934 
L 14.318543 110.451341 
L 14.479784 110.552299 
L 14.667622 110.550128 
L 15.766389 110.180499 
L 16.162011 109.824456 
L 16.408029 109.167773 
L 16.943283 107.013598 
L 17.274076 106.197666 
L 17.373813 105.761526 
L 17.375475 104.398479 
L 17.32062 104.04813 
L 17.11616 103.388694 
L 17.008112 102.803059 
L 17.071278 102.221808 
L 17.380462 101.573918 
L 17.496822 101.462238 
L 17.756137 101.348932 
L 17.875821 101.213402 
L 18.856566 99.554712 
L 18.874851 99.446314 
L 18.790075 99.17912 
L 18.770128 99.037668 
L 18.891474 98.520661 
L 19.15079 98.417697 
L 19.464961 98.493565 
L 19.74921 98.515241 
L 20.272828 98.136451 
L 20.385863 97.586997 
L 20.257868 96.949271 
L 20.060057 96.303475 
L 20.003539 95.891214 
L 20.040109 95.416683 
L 20.181403 94.997432 
L 20.440719 94.748818 
L 21.597665 94.135715 
L 22.224345 93.920708 
L 23.191791 94.056644 
L 23.476041 93.713832 
L 23.899922 92.716358 
L 24.420216 91.914475 
L 24.583119 91.498138 
L 24.682856 89.70855 
L 24.78758 89.369739 
L 25.036922 89.061792 
L 25.271303 88.917294 
L 25.472439 88.724094 
L 25.618719 88.264657 
L 25.632183 88.14735 
L 25.675237 87.772244 
L 25.628693 87.44489 
L 25.484075 87.181394 
L 24.390295 85.728295 
L 24.1609 85.250668 
L 24.14594 84.859071 
L 24.476733 83.912086 
L 24.88233 83.108523 
L 24.945496 82.859795 
L 24.962119 82.447791 
L 25.007001 82.314788 
L 25.113386 82.118531 
L 25.427557 81.717926 
L 25.74339 81.586559 
L 26.082495 81.663865 
L 27.113109 82.356959 
L 27.364113 82.307218 
L 27.608468 81.915252 
L 27.714854 81.528174 
L 27.731477 80.448151 
L 27.876095 79.89037 
L 28.286678 78.846279 
L 28.408024 78.285391 
L 28.405236 77.643164 
L 28.403038 77.136747 
L 28.323248 76.528469 
L 28.175305 76.124422 
L 27.970845 75.973181 
L 27.743113 75.918087 
L 27.53699 75.837607 
L 27.385723 75.605896 
L 27.234455 74.919993 
L 27.154666 74.695875 
L 27.033319 74.516587 
L 26.892025 74.364303 
L 26.762368 74.190424 
L 26.680916 73.940952 
L 26.700863 73.579182 
L 27.049942 72.478878 
L 27.068227 71.863482 
L 26.737433 70.003079 
L 26.737433 69.997683 
L 26.572868 69.640993 
L 26.453184 69.257884 
L 26.388355 68.840807 
L 26.388355 68.388691 
L 26.55292 67.577876 
L 26.418276 67.411734 
L 26.287639 67.402785 
L 26.268671 67.401485 
L 26.117403 67.436547 
L 25.984421 67.407958 
L 25.595447 66.93491 
L 22.713055 61.735916 
L 22.473687 61.169 
L 22.445428 60.689426 
L 22.76791 59.567695 
L 22.869309 59.250394 
L 23.060471 58.310979 
L 24.177523 55.883405 
z
" clip-path="url(#p005afb5126)" style="stroke: #000000; stroke-linejoin: miter"/>
   </g>
   <g id="line2d_1">
    <path d="M 24.531589 55.409637 
L 25.552228 54.527884 
L 25.666925 54.077907 
L 25.587136 53.665638 
L 25.011987 52.769079 
L 24.888979 52.647468 
L 24.746023 52.222386 
L 24.726075 50.698802 
L 25.450829 49.348785 
L 25.376027 48.636792 
L 24.975417 47.113079 
L 24.983729 46.210011 
L 25.417584 43.478032 
L 25.324496 38.08462 
L 28.841879 34.738675 
L 29.882466 33.47831 
L 32.450688 28.378196 
L 33.012539 23.459095 
L 33.045784 18.502418 
L 34.570095 18.344141 
L 35.01891 18.064493 
L 37.548899 15.021455 
L 38.301912 14.34874 
L 39.172947 13.916518 
L 44.80475 12.274526 
L 45.173776 12.482817 
L 45.536152 12.917584 
L 45.901854 13.122162 
L 46.836055 13.192672 
L 48.463427 12.823577 
L 50.767346 12.951769 
L 51.505398 12.720492 
L 52.221841 11.947154 
L 52.675643 10.880275 
L 53.122796 10.597308 
L 55.498194 10.08 
L 56.021812 10.222001 
L 65.648072 14.973363 
L 66.577287 14.317751 
L 66.886471 14.23654 
L 68.050066 14.553911 
L 69.123899 15.33086 
L 71.381274 18.024927 
L 74.006845 21.644925 
L 75.714006 25.599454 
L 77.249952 27.667838 
L 77.771908 28.158007 
L 78.26228 28.39534 
L 78.799197 28.469274 
L 80.378362 28.38141 
L 80.722454 28.16765 
L 81.483778 27.320729 
L 82.461198 25.866659 
L 82.820251 25.77991 
L 84.497491 26.168151 
L 85.074302 26.172436 
L 85.577973 25.967333 
L 91.974424 21.214221 
L 92.526301 21.14574 
L 96.603873 21.876076 
L 97.232214 22.268842 
L 97.609552 22.723182 
L 99.308401 23.910863 
L 99.748905 24.281835 
L 100.149515 24.887866 
L 102.03454 26.909907 
L 102.162535 26.859561 
L 102.529899 26.668356 
L 103.120008 26.609443 
L 103.553863 26.726199 
L 103.93785 26.960254 
L 104.955165 28.063719 
L 105.693217 29.454093 
L 106.283326 29.884942 
L 110.520477 31.469307 
L 116.370038 32.24451 
L 117.518673 31.913722 
L 121.275425 32.387661 
L 121.561337 32.18339 
L 121.857201 31.815034 
L 125.156848 27.047023 
L 125.637246 26.719772 
L 125.783527 26.719772 
L 125.986325 26.344342 
L 126.115983 25.621944 
L 126.400233 25.274435 
L 130.122077 22.762785 
L 138.380281 20.528379 
L 139.929526 20.371108 
L 142.851813 20.801742 
L 150.684474 20.749315 
L 155.546642 22.30202 
L 157.323619 23.214493 
L 159.561047 24.940335 
L 160.618256 25.879511 
L 161.564094 26.168151 
L 162.325418 26.062118 
L 162.66286 25.7692 
L 162.930487 25.700123 
L 163.92453 26.188501 
L 164.148938 26.548924 
L 164.532925 26.266154 
L 165.083139 26.548924 
L 165.345779 26.645862 
L 166.723809 26.765832 
L 167.293971 26.969895 
L 167.518379 26.832245 
L 167.591519 26.586949 
L 167.802629 25.406154 
L 168.288014 25.275506 
L 168.504111 24.870734 
L 168.60551 24.412993 
L 168.349519 24.292542 
L 168.71522 23.269086 
L 169.385119 22.49788 
L 169.439974 22.617219 
L 169.666044 22.467912 
L 169.804013 22.204093 
L 169.82396 21.868585 
L 170.537078 22.42082 
L 170.678372 22.312722 
L 170.789745 21.83541 
L 171.605924 21.362422 
L 172.194371 20.288195 
L 172.289121 20.378597 
L 172.415454 20.595782 
L 172.634875 20.492003 
L 172.470309 20.094559 
L 172.515191 20.020208 
L 173.040471 19.819094 
L 173.028835 19.59285 
L 173.687098 18.745192 
L 173.371265 18.369807 
L 173.238283 18.322217 
L 173.238283 18.168223 
L 173.840028 18.36339 
L 173.906519 18.025996 
L 174.355334 18.152182 
L 174.799163 18.045245 
L 176.657592 16.942316 
L 177.10142 16.895809 
L 177.194508 17.310111 
L 177.766332 17.251304 
L 177.761345 17.474237 
L 177.881029 17.326149 
L 178.090476 16.895809 
L 178.246731 16.934298 
L 178.246731 17.307972 
L 178.190213 17.474237 
L 178.620744 17.229921 
L 179.443572 16.949266 
L 179.737795 16.472455 
L 179.476818 16.334552 
L 179.696238 16.013862 
L 179.912335 15.993552 
L 179.933944 15.712966 
L 179.85748 15.483164 
L 180.055291 15.087716 
L 180.941286 14.114192 
L 180.932974 13.758919 
L 181.080917 13.611475 
L 181.564641 13.508373 
L 185.542476 13.721524 
L 192.902218 26.683353 
L 194.710778 37.730398 
L 194.750673 41.054537 
L 194.896953 41.370306 
L 195.357405 41.601236 
L 198.663679 41.729057 
L 199.69263 42.048086 
L 200.131472 42.344574 
L 200.183002 42.556207 
L 200.131472 43.054704 
L 200.723243 43.656397 
L 200.899445 43.75203 
L 200.83794 43.937926 
L 200.680024 44.048607 
L 201.57433 44.823436 
L 201.770479 45.351155 
L 202.337317 45.042686 
L 202.528479 45.171661 
L 202.633202 45.590848 
L 202.202672 46.247636 
L 202.10626 46.489517 
L 201.865229 48.200175 
L 201.577655 48.441063 
L 201.609238 48.840056 
L 201.945019 50.113577 
L 201.885177 50.811766 
L 201.702326 51.469152 
L 201.23855 53.939046 
L 200.573638 55.116781 
L 200.59691 55.298738 
L 200.808019 55.581912 
L 201.20198 55.670205 
L 201.945019 57.203693 
L 201.891826 58.166633 
L 201.600927 59.183057 
L 201.408102 59.564463 
L 201.132164 59.754097 
L 199.963581 60.401161 
L 199.036029 61.33174 
L 197.781008 61.92993 
L 196.22179 63.689808 
L 195.591786 63.863937 
L 194.862046 64.720636 
L 194.162226 65.065183 
L 193.82977 65.002634 
L 192.069416 64.154522 
L 191.574057 64.156679 
L 190.955689 64.793965 
L 189.81869 66.447335 
L 188.964278 68.477169 
L 188.093243 69.215797 
L 187.91538 69.574622 
L 187.843901 70.003079 
L 187.950287 70.795856 
L 187.747489 71.375525 
L 184.882551 76.631105 
L 184.440384 77.83531 
L 183.836977 80.451394 
L 183.288424 84.400975 
L 182.924385 85.973342 
L 183.060692 86.642532 
L 183.025784 86.922237 
L 182.581956 87.941608 
L 181.860526 88.567157 
L 181.561316 88.736 
L 180.299646 88.912965 
L 179.76273 89.178691 
L 179.476818 89.892576 
L 179.481804 90.310983 
L 179.737795 91.397982 
L 179.671304 91.894984 
L 179.169296 93.089447 
L 179.195892 93.563281 
L 179.360458 93.899046 
L 179.827559 94.525668 
L 180.00376 94.997432 
L 179.812598 95.678321 
L 179.656344 96.179956 
L 179.448559 97.593499 
L 179.368769 98.952039 
L 178.918292 100.439842 
L 177.871056 100.978669 
L 176.606061 101.23075 
L 175.276237 102.079213 
L 174.499953 103.20378 
L 173.449392 103.883266 
L 173.412822 104.33394 
L 173.869949 104.426682 
L 174.155861 105.480544 
L 174.079396 106.699475 
L 173.979659 107.061341 
L 172.914138 109.789721 
L 172.895853 110.63806 
L 173.012213 111.403979 
L 172.470309 116.266131 
L 172.122893 116.887555 
L 171.708985 117.001632 
L 171.27513 116.941877 
L 171.09228 117.058672 
L 170.97592 117.305847 
L 170.598583 118.577156 
L 170.312671 118.984669 
L 168.417672 120.18994 
L 168.179966 120.130162 
L 167.451888 119.743241 
L 166.958191 119.923113 
L 166.517686 120.236677 
L 166.065546 120.216026 
L 165.62338 120.030713 
L 165.7547 120.335041 
L 166.176919 121.825872 
L 166.186893 122.408581 
L 166.047261 122.602102 
L 165.442192 123.253908 
L 165.211135 123.750816 
L 165.019973 123.928601 
L 164.680868 123.990582 
L 164.0625 123.855203 
L 163.711759 124.044951 
L 163.342733 124.727864 
L 163.218062 125.635963 
L 163.257956 126.59365 
L 163.498987 128.712802 
L 163.375978 129.165419 
L 162.719378 130.380859 
L 162.627952 130.89233 
L 162.717716 132.518899 
L 162.872308 133.384275 
L 162.780882 133.690171 
L 162.172488 134.518646 
L 160.575037 137.414011 
L 159.886854 139.217685 
L 159.863582 140.126191 
L 160.092976 141.362732 
L 160.02981 141.792019 
L 159.576007 142.260552 
L 159.147139 143.095254 
L 157.193961 145.584542 
L 155.870786 147.922927 
L 155.455216 148.392852 
L 155.548304 148.516061 
L 155.930628 148.610923 
L 156.156698 148.86171 
L 156.956255 150.374202 
L 157.582934 151.266321 
L 157.782408 151.795305 
L 157.636127 152.274141 
L 157.345228 152.306864 
L 157.021084 152.197787 
L 156.61715 152.431213 
L 155.648041 153.633332 
L 155.526694 154.002069 
L 155.16598 154.066435 
L 154.680594 154.225717 
L 154.562572 154.611932 
L 153.631696 155.37895 
L 152.642639 156.56614 
L 152.35174 157.101948 
L 152.261977 157.667796 
L 152.366701 157.983746 
L 152.720767 158.50653 
L 152.798894 158.885811 
L 152.652613 160.021005 
L 152.187175 161.444537 
L 151.806513 162.137268 
L 151.369333 162.457173 
L 150.734343 162.539607 
L 150.310461 162.988913 
L 150.069431 163.703582 
L 149.869957 165.061529 
L 149.555786 165.44541 
L 149.143541 165.712442 
L 148.570055 165.822752 
L 147.984932 165.735378 
L 147.717305 165.990403 
L 147.600946 165.968559 
L 147.334981 165.782341 
L 145.865526 165.983849 
L 145.433333 165.905212 
L 145.169031 165.585751 
L 144.853198 164.579376 
L 144.530715 162.122529 
L 144.507443 160.276987 
L 144.198259 159.428288 
L 143.649707 158.863981 
L 142.150331 158.504893 
L 141.636687 157.832591 
L 141.314205 156.909883 
L 141.166262 155.948522 
L 140.903621 155.106177 
L 140.376679 154.639207 
L 139.055167 153.988977 
L 137.215023 152.723548 
L 137.128585 151.685143 
L 136.831037 151.187794 
L 136.398844 152.549019 
L 136.262537 153.343152 
L 136.099634 155.029802 
L 135.906809 155.157458 
L 135.577678 155.790304 
L 135.501213 156.595603 
L 131.358813 156.673081 
L 130.914984 156.500666 
L 130.577541 156.156937 
L 130.409651 155.745567 
L 130.047274 153.849336 
L 129.822866 153.787152 
L 129.445529 154.067526 
L 125.507589 158.432313 
L 125.130251 158.639686 
L 124.12291 158.283334 
L 123.822037 158.727548 
L 122.586964 163.848815 
L 122.385828 164.057386 
L 121.616192 164.063392 
L 121.139118 164.189519 
L 120.89975 164.452698 
L 120.524075 165.385343 
L 120.269746 165.71135 
L 118.728813 166.673046 
L 118.241765 167.905734 
L 117.792949 168.26131 
L 117.146323 168.283159 
L 116.92524 168.442107 
L 116.705819 168.769297 
L 116.247029 170.039362 
L 115.836446 170.793275 
L 113.630602 173.124707 
L 111.802094 175.804763 
L 111.255204 176.408187 
L 111.162116 177.286595 
L 110.877867 177.332512 
L 110.181372 177.102381 
L 108.951285 178.655989 
L 108.981206 179.085153 
L 109.295377 179.789888 
L 109.223899 180.321336 
L 108.534053 181.355867 
L 108.745162 181.89121 
L 109.730894 183.085015 
L 109.895459 183.649419 
L 109.823981 184.160247 
L 108.936324 185.824136 
L 109.024425 187.094349 
L 108.918039 187.568112 
L 108.469224 188.975824 
L 108.637114 189.992446 
L 108.090224 193.142927 
L 107.392067 193.620186 
L 106.979821 194.531513 
L 106.59251 195.874253 
L 105.721476 197.631557 
L 105.623401 198.014798 
L 105.184559 198.441303 
L 105.043266 198.76598 
L 105.202844 199.813977 
L 104.913359 200.165408 
L 104.885872 200.061067 
L 104.631949 199.916199 
L 104.333524 200.183517 
L 104.126721 200.568118 
L 103.922536 201.586584 
L 104.019393 202.08765 
L 103.878034 202.420553 
L 103.693481 202.523185 
L 102.900299 202.361906 
L 103.147678 201.587446 
L 103.079616 201.496032 
L 102.414704 201.797875 
L 101.938271 201.563299 
L 101.909476 200.980325 
L 102.142457 199.483326 
L 102.042982 199.483326 
L 101.935654 200.205937 
L 101.580947 200.578466 
L 101.121529 200.545697 
L 100.755042 199.966212 
L 100.823104 199.759259 
L 100.697452 199.717869 
L 100.375467 199.483326 
L 100.448764 199.197051 
L 100.316567 198.960792 
L 99.477574 198.227896 
L 99.205327 197.421753 
L 99.090145 197.232941 
L 98.714496 197.054477 
L 98.179164 196.432888 
L 98.179164 196.563066 
L 99.276006 198.022691 
L 99.694848 199.033221 
L 99.757675 199.52644 
L 99.495898 199.759259 
L 99.76291 200.387026 
L 100.261594 200.969977 
L 100.647714 202.365356 
L 100.495884 203.034632 
L 100.560019 203.33823 
L 101.042996 203.692724 
L 101.090116 204.186958 
L 100.375467 205.07455 
L 100.155575 205.718927 
L 99.84537 205.856087 
L 99.145118 205.855225 
L 98.228901 205.718927 
L 96.851958 205.718927 
L 95.871606 205.602472 
L 95.336273 205.970819 
L 95.024759 206.021716 
L 94.316654 206.021716 
L 91.569312 206.441834 
L 91.213296 206.290866 
L 91.0222 206.374546 
L 90.900474 206.600568 
L 91.346802 206.662681 
L 91.450204 206.745499 
L 91.10335 206.865414 
L 90.582415 206.900785 
L 90.111218 206.802437 
L 89.903106 206.521201 
L 89.679287 206.44356 
L 88.255224 206.31157 
L 88.308888 206.222716 
L 88.473807 206.021716 
L 88.081143 205.975995 
L 87.947637 205.962193 
L 87.971197 205.594708 
L 88.192398 205.375601 
L 88.208104 205.048672 
L 87.963343 204.479366 
L 88.035332 204.271489 
L 87.79188 203.904906 
L 87.846853 203.36583 
L 88.136116 202.375705 
L 88.035332 202.375705 
L 87.645285 202.825911 
L 87.632196 203.34858 
L 87.680625 203.793639 
L 87.543193 204.179195 
L 87.81544 204.704499 
L 86.980373 205.467039 
L 86.715979 205.284164 
L 86.577238 205.721515 
L 86.227767 205.67407 
L 85.670183 205.284164 
L 84.849514 205.146147 
L 84.493499 204.924458 
L 84.291931 204.561311 
L 84.083819 204.685522 
L 83.742201 204.770055 
L 83.667594 205.069375 
L 83.514455 205.153047 
L 83.620475 205.370426 
L 83.734347 205.442023 
L 83.634872 205.57573 
L 83.841676 205.67407 
L 84.115232 205.962193 
L 84.555016 206.081239 
L 84.609989 206.414229 
L 84.511823 206.600568 
L 83.793247 206.745499 
L 82.336462 204.481954 
L 82.195103 204.047226 
L 82.150601 203.26923 
L 82.04589 203.268367 
L 81.818145 203.414131 
L 81.415009 203.389981 
L 80.867897 202.667216 
L 80.428113 201.377021 
L 80.32602 201.78925 
L 80.200367 201.954835 
L 80.329947 202.207528 
L 80.435966 202.22564 
L 80.538059 202.375705 
L 80.848264 203.418443 
L 81.641446 203.879893 
L 82.002697 204.602714 
L 82.061597 205.303142 
L 81.645372 205.57573 
L 82.096937 206.076063 
L 82.242222 206.445285 
L 82.14013 206.817966 
L 81.696419 207.471904 
L 81.421554 207.632373 
L 81.087789 207.455512 
L 81.087789 207.890335 
L 80.569472 207.475355 
L 80.472615 207.161323 
L 80.538059 206.745499 
L 80.323402 206.997408 
L 80.281518 207.351985 
L 80.538059 208.04822 
L 79.980475 208.193165 
L 79.689903 207.168225 
L 79.648019 206.088141 
L 79.309019 205.154773 
L 79.560324 204.82181 
L 79.687286 203.988573 
L 79.648019 203.692724 
L 79.731788 203.744475 
L 79.980475 203.824691 
L 79.33127 202.232539 
L 78.928134 202.770713 
L 78.672903 201.954835 
L 78.59437 202.279974 
L 78.742273 203.298555 
L 79.100907 204.561311 
L 78.737038 204.453489 
L 78.672903 204.271489 
L 78.608767 204.330143 
L 78.45301 204.416399 
L 78.140188 203.646147 
L 77.674226 202.955283 
L 77.785481 203.591809 
L 78.233118 204.632042 
L 78.123172 205.284164 
L 78.284165 204.956374 
L 78.58259 204.854588 
L 78.870544 204.947748 
L 79.001432 205.219468 
L 78.881015 207.178578 
L 79.629695 209.212994 
L 79.379699 209.508083 
L 78.996196 209.370892 
L 78.696462 209.190561 
L 78.705625 209.287197 
L 78.782849 209.508083 
L 77.714801 209.042155 
L 77.344388 209.219897 
L 77.035492 208.635773 
L 77.009314 208.257873 
L 77.124496 207.890335 
L 76.849631 207.703118 
L 76.600943 207.14752 
L 76.356182 205.943215 
L 76.466128 205.34886 
L 76.76848 204.782131 
L 76.788113 204.122267 
L 76.108804 203.672886 
L 75.823468 202.963045 
L 75.530278 201.132103 
L 75.751479 200.568118 
L 75.82085 200.128328 
L 75.674255 200.111944 
L 75.476614 200.350808 
L 75.272428 199.957589 
L 75.24756 199.759259 
L 74.975312 199.881706 
L 74.699138 199.759259 
L 74.879764 200.805265 
L 75.226618 201.089847 
L 75.476614 202.232539 
L 75.61012 203.392568 
L 76.166394 204.023937 
L 76.466128 204.704499 
L 76.026344 205.284164 
L 75.994931 205.582631 
L 76.475291 208.291522 
L 76.695183 208.628008 
L 76.661152 209.119809 
L 77.195175 209.800589 
L 76.795967 210.087923 
L 75.648077 210.26395 
L 75.052536 210.194057 
L 74.699138 209.930018 
L 74.65071 209.624567 
L 74.773745 208.009396 
L 74.589192 207.758334 
L 74.648092 206.679072 
L 75.044683 205.183239 
L 75.028976 204.561311 
L 74.724007 205.054711 
L 74.477937 205.946665 
L 74.3693 206.907687 
L 74.408567 207.789393 
L 74.3693 208.483059 
L 74.169041 207.713471 
L 74.039462 206.153703 
L 73.818261 206.518613 
L 73.709624 206.600568 
L 73.79601 206.900785 
L 73.874543 208.234578 
L 74.197837 209.102553 
L 74.3693 210.087923 
L 74.086582 210.388206 
L 73.043403 210.310546 
L 72.868013 209.62543 
L 72.773774 207.228615 
L 72.531631 206.68166 
L 72.043418 206.745499 
L 72.492364 207.212224 
L 72.653357 207.958493 
L 72.594457 208.822138 
L 72.382418 209.640099 
L 72.351005 210.349376 
L 71.551278 210.598752 
L 70.616737 210.481398 
L 70.175644 210.087923 
L 69.74764 210.219943 
L 69.869366 210.617736 
L 69.60628 210.750623 
L 68.907338 210.885237 
L 68.598442 211.063861 
L 67.858924 211.090612 
L 67.540865 211.245939 
L 67.159981 210.65484 
L 67.485892 209.753995 
L 68.538233 208.193165 
L 67.970179 208.193165 
L 67.420448 209.061137 
L 67.347151 207.918806 
L 66.991135 206.890433 
L 67.001606 207.849786 
L 67.200556 208.759154 
L 67.04349 208.552945 
L 66.726741 208.133634 
L 66.433552 208.04822 
L 66.89166 209.223348 
L 66.766008 210.200097 
L 66.551351 210.607381 
L 66.320988 210.788591 
L 66.323606 211.088886 
L 66.553969 211.006908 
L 66.771243 211.088886 
L 66.68093 211.289086 
L 66.225439 211.49274 
L 65.628589 211.535024 
L 65.224145 211.390912 
L 65.004253 211.68 
L 64.745094 211.553146 
L 64.601118 211.339136 
L 64.556616 210.65484 
L 64.623368 210.301917 
L 64.883836 209.508083 
L 64.556616 209.640099 
L 64.616824 208.73327 
L 63.886468 208.628008 
L 63.868144 209.156048 
L 64.226777 210.733365 
L 64.183584 211.190711 
L 64.057932 211.168275 
L 63.624692 210.812752 
L 63.140406 210.678139 
L 63.213703 209.896367 
L 63.242499 209.834241 
L 63.0069 209.350184 
L 62.910043 208.628008 
L 62.789626 209.350184 
L 62.707166 209.256998 
L 62.459787 209.061137 
L 62.752977 210.139696 
L 62.569733 210.377851 
L 62.326281 210.343336 
L 61.059284 209.238879 
L 60.868187 208.722916 
L 61.033107 208.193165 
L 60.737299 208.239755 
L 60.602485 208.628008 
L 60.339399 208.272541 
L 59.690194 207.782491 
L 59.495171 207.455512 
L 59.606426 207.548688 
L 59.933646 207.758334 
L 59.809302 207.490884 
L 59.165333 207.178578 
L 58.166656 205.791389 
L 56.674531 203.955796 
L 56.224276 203.133818 
L 56.069828 202.232539 
L 56.187627 202.290323 
L 56.298882 202.375705 
L 56.297573 201.982433 
L 55.593395 201.411517 
L 54.753093 199.483326 
L 55.301514 199.916199 
L 55.164082 199.410894 
L 54.649691 198.650384 
L 54.203363 197.010508 
L 53.974309 195.694948 
L 53.682428 194.819988 
L 53.593424 194.305381 
L 53.368296 193.926118 
L 53.314632 193.591687 
L 53.393165 193.334834 
L 53.585571 193.234853 
L 54.084255 193.367587 
L 54.258336 193.558933 
L 54.753093 194.248491 
L 54.412784 193.092639 
L 55.081622 193.236577 
L 54.963823 192.984903 
L 54.357811 192.223875 
L 54.297602 192.312645 
L 54.2531 192.788393 
L 53.988706 192.818559 
L 53.754416 192.933189 
L 53.542378 192.812526 
L 53.156258 192.900438 
L 52.986103 192.788393 
L 52.95469 192.616881 
L 52.986103 191.850702 
L 52.914115 190.871711 
L 52.577732 188.966501 
L 52.666736 188.686473 
L 53.041076 188.583079 
L 54.453359 188.635637 
L 54.633985 189.031124 
L 54.763564 188.894986 
L 55.065916 188.353893 
L 55.889202 188.002367 
L 56.133963 188.01529 
L 56.400975 188.160897 
L 56.279249 187.892086 
L 55.741299 187.137377 
L 55.661457 186.495563 
L 55.796272 185.908913 
L 56.253071 185.664268 
L 56.789713 185.678051 
L 56.982118 185.557453 
L 57.398343 184.811493 
L 57.140493 184.951034 
L 56.695473 185.361053 
L 56.400975 185.244765 
L 56.179774 185.547116 
L 55.808052 185.440302 
L 55.42324 185.691834 
L 55.199422 186.160455 
L 55.301514 186.704903 
L 54.904923 187.535403 
L 54.643147 187.614665 
L 54.208598 187.282112 
L 54.119594 187.046056 
L 53.919336 187.006427 
L 53.834258 187.127039 
L 53.982162 187.695651 
L 54.084255 187.873132 
L 53.15364 187.804207 
L 51.263615 186.89357 
L 51.130109 186.547252 
L 50.291116 185.631534 
L 50.137977 184.727941 
L 50.289807 184.443697 
L 50.690325 183.94327 
L 50.809433 183.915708 
L 52.980868 184.131035 
L 53.424578 184.379097 
L 53.581644 184.079357 
L 53.974309 183.076829 
L 54.182421 182.9597 
L 54.682413 183.063049 
L 54.89707 183.376545 
L 55.027958 183.94327 
L 55.277955 183.872643 
L 55.301514 183.510903 
L 55.182406 183.180179 
L 54.582938 182.516172 
L 54.302838 182.355127 
L 53.997868 182.363739 
L 53.844729 182.573873 
L 53.475625 183.42047 
L 52.920659 183.679714 
L 52.654956 183.655598 
L 52.349987 183.430805 
L 52.219098 183.131088 
L 52.224334 182.769369 
L 52.562025 181.304514 
L 52.436373 180.909265 
L 51.822507 182.90372 
L 51.614395 183.175011 
L 51.336912 183.322286 
L 50.77802 183.426499 
L 49.996618 183.913986 
L 49.682486 183.655598 
L 49.183802 182.950227 
L 48.679883 181.622272 
L 48.531979 181.244235 
L 48.512346 180.326317 
L 48.758416 179.456683 
L 48.956057 179.293095 
L 49.140609 179.37575 
L 49.583011 179.752868 
L 49.66678 179.61769 
L 49.583011 179.00553 
L 50.088239 178.423534 
L 51.407592 177.791634 
L 51.776697 176.983299 
L 51.441623 177.061633 
L 50.891893 177.706408 
L 50.255776 177.958645 
L 48.802918 179.023611 
L 47.991411 180.019786 
L 47.825183 180.000843 
L 47.224407 178.272013 
L 44.943026 174.539685 
L 44.310836 174.181663 
L 44.017647 173.747921 
L 43.611894 172.913184 
L 42.555626 171.620751 
L 40.813505 170.180488 
L 39.826608 168.969224 
L 38.952276 168.303429 
L 37.545228 167.493173 
L 33.046602 166.405182 
L 28.936714 165.955396 
L 21.712997 166.32778 
L 21.130545 165.682782 
L 21.389704 165.546047 
L 21.579491 165.682782 
L 21.830797 165.382655 
L 21.923727 165.496169 
L 22.019276 166.129116 
L 22.678952 165.46607 
L 22.733925 165.633763 
L 22.859577 165.641503 
L 23.06769 165.538307 
L 23.646215 165.465211 
L 23.894903 165.293221 
L 24.146208 164.730833 
L 24.12003 164.31293 
L 24.281023 164.238982 
L 25.277082 164.149557 
L 25.985186 163.853772 
L 26.201152 163.938035 
L 26.884388 163.500388 
L 27.112133 163.162491 
L 27.19852 162.711119 
L 27.398778 162.607091 
L 28.737764 162.350895 
L 28.415779 162.165199 
L 28.29798 162.206465 
L 27.383072 161.924487 
L 26.478635 162.373247 
L 25.616082 163.026648 
L 24.83468 163.361101 
L 24.375262 163.392913 
L 23.436794 163.923418 
L 23.189416 163.888165 
L 22.635759 163.634518 
L 22.55199 163.102307 
L 22.678952 162.350895 
L 22.207754 162.782478 
L 21.724777 163.353363 
L 21.410646 163.408389 
L 21.373997 163.732537 
L 21.469545 164.238982 
L 21.069028 165.321599 
L 20.887093 165.566686 
L 21.203842 166.201357 
L 21.124001 166.672655 
L 20.185533 166.805103 
L 18.384512 166.693296 
L 16.264124 167.01496 
L 13.777249 166.854127 
L 10.176085 167.292808 
L 10.182792 166.004601 
L 10.416726 164.419584 
L 10.747967 162.837141 
L 10.614985 161.513317 
L 10.799498 161.059161 
L 11.377971 160.310827 
L 11.198445 159.026612 
L 10.834405 158.937656 
L 10.57509 158.594937 
L 10.493638 158.178559 
L 10.628283 155.950704 
L 10.410524 155.141091 
L 10.357331 154.375183 
L 10.962401 153.49915 
L 11.333089 153.304971 
L 11.396256 153.07698 
L 11.303168 152.877355 
L 10.74298 152.197787 
L 10.698098 151.776762 
L 11.097046 150.81807 
L 11.113668 150.525791 
L 10.81612 145.102764 
L 11.107019 145.012297 
L 11.505966 145.060255 
L 11.599054 143.871179 
L 11.243326 143.098523 
L 10.767914 142.358621 
L 10.445432 141.574104 
L 10.398036 140.056531 
L 10.506936 136.913054 
L 9.6492 135.011848 
L 9.906853 134.261712 
L 9.968358 132.933616 
L 10.171156 131.599733 
L 10.249283 129.955381 
L 10.676489 128.398921 
L 10.088042 125.705569 
L 10.211051 124.638691 
L 10.17448 124.063437 
L 10.259257 123.800291 
L 10.708072 123.082118 
L 10.834405 122.371617 
L 10.486989 116.385632 
L 10.578414 116.227022 
L 10.935804 115.954894 
L 10.955752 115.768593 
L 10.85269 115.259137 
L 11.058813 113.868891 
L 10.91087 113.785809 
L 10.922506 113.570237 
L 11.155225 113.089156 
L 11.243326 112.513636 
L 11.226703 110.625033 
L 12.68286 110.717851 
L 13.317851 110.197867 
L 13.986087 110.20438 
L 14.667622 110.550128 
L 15.766389 110.180499 
L 16.162011 109.824456 
L 16.408029 109.167773 
L 16.943283 107.013598 
L 17.373813 105.761526 
L 17.32062 104.04813 
L 17.008112 102.803059 
L 17.071278 102.221808 
L 17.496822 101.462238 
L 17.875821 101.213402 
L 18.874851 99.446314 
L 18.770128 99.037668 
L 18.891474 98.520661 
L 19.15079 98.417697 
L 19.74921 98.515241 
L 20.272828 98.136451 
L 20.385863 97.586997 
L 20.040109 95.416683 
L 20.181403 94.997432 
L 20.440719 94.748818 
L 22.224345 93.920708 
L 23.191791 94.056644 
L 23.476041 93.713832 
L 23.899922 92.716358 
L 24.583119 91.498138 
L 24.78758 89.369739 
L 25.271303 88.917294 
L 25.472439 88.724094 
L 25.675237 87.772244 
L 25.484075 87.181394 
L 24.1609 85.250668 
L 24.14594 84.859071 
L 24.476733 83.912086 
L 24.945496 82.859795 
L 25.007001 82.314788 
L 25.427557 81.717926 
L 25.74339 81.586559 
L 26.082495 81.663865 
L 27.113109 82.356959 
L 27.364113 82.307218 
L 27.608468 81.915252 
L 27.714854 81.528174 
L 27.731477 80.448151 
L 27.876095 79.89037 
L 28.408024 78.285391 
L 28.323248 76.528469 
L 28.175305 76.124422 
L 27.743113 75.918087 
L 27.53699 75.837607 
L 27.385723 75.605896 
L 27.033319 74.516587 
L 26.762368 74.190424 
L 26.680916 73.940952 
L 26.700863 73.579182 
L 27.049942 72.478878 
L 27.068227 71.863482 
L 26.572868 69.640993 
L 26.388355 68.840807 
L 26.388355 68.388691 
L 26.55292 67.577876 
L 26.268671 67.401485 
L 25.984421 67.407958 
L 25.595447 66.93491 
L 22.473687 61.169 
L 22.445428 60.689426 
L 23.060471 58.310979 
L 24.177523 55.883405 
L 24.531589 55.409637 
L 24.531589 55.409637 
" clip-path="url(#p005afb5126)" style="fill: none; stroke: #000000; stroke-width: 0.5; stroke-linecap: square"/>
   </g>
  </g>
 </g>
 <defs>
  <clipPath id="p005afb5126">
   <rect x="0" y="-0" width="212.282402" height="221.76"/>
  </clipPath>
 </defs>
</svg>
