<?xml version="1.0" encoding="utf-8" standalone="no"?>
<!DOCTYPE svg PUBLIC "-//W3C//DTD SVG 1.1//EN"
  "http://www.w3.org/Graphics/SVG/1.1/DTD/svg11.dtd">
<svg xmlns:xlink="http://www.w3.org/1999/xlink" width="166.095308pt" height="221.76pt" viewBox="0 0 166.095308 221.76" xmlns="http://www.w3.org/2000/svg" version="1.1">
 <metadata>
  <rdf:RDF xmlns:dc="http://purl.org/dc/elements/1.1/" xmlns:cc="http://creativecommons.org/ns#" xmlns:rdf="http://www.w3.org/1999/02/22-rdf-syntax-ns#">
   <cc:Work>
    <dc:type rdf:resource="http://purl.org/dc/dcmitype/StillImage"/>
    <dc:date>2026-04-26T19:22:24.477139</dc:date>
    <dc:format>image/svg+xml</dc:format>
    <dc:creator>
     <cc:Agent>
      <dc:title>Matplotlib v3.10.9, https://matplotlib.org/</dc:title>
     </cc:Agent>
    </dc:creator>
   </cc:Work>
  </rdf:RDF>
 </metadata>
 <defs>
  <style type="text/css">*{stroke-linejoin: round; stroke-linecap: butt}</style>
 </defs>
 <g id="figure_1">
  <g id="patch_1">
   <path d="M 0 221.76 
L 166.095308 221.76 
L 166.095308 0 
L 0 0 
z
" style="fill: #ffffff"/>
  </g>
  <g id="axes_1">
   <g id="patch_2">
    <path d="M 97.039607 11.274066 
L 120.328966 14.48882 
L 122.749593 19.724163 
L 148.312874 103.837511 
L 158.545521 128.440128 
L 145.9656 134.039535 
L 137.750141 143.126751 
L 121.649308 166.072344 
L 84.166276 196.906882 
L 77.344512 192.685781 
L 70.155985 196.264547 
L 53.9818 211.68 
L 51.157736 200.669089 
L 44.005885 195.713971 
L 33.993295 195.071632 
L 22.623687 196.906882 
L 25.484427 193.236365 
L 27.795024 189.198715 
L 30.655764 185.252746 
L 35.497017 181.490235 
L 31.315935 162.768349 
L 29.335424 157.720467 
L 7.549787 149.184655 
L 10.007089 128.990896 
L 29.335424 93.004014 
L 27.795024 86.577076 
L 24.530847 80.60901 
L 22.000192 74.273477 
L 22.623687 66.009424 
L 25.74116 60.132548 
L 29.225394 59.030613 
L 33.333124 58.571472 
L 38.577815 54.163661 
L 56.769188 11.274066 
L 85.706675 10.08 
z
" clip-path="url(#pf5fab414cc)" style="stroke: #000000; stroke-linejoin: miter"/>
   </g>
   <g id="line2d_1">
    <path d="M 97.039607 11.274066 
L 120.328966 14.48882 
L 122.749593 19.724163 
L 148.312874 103.837511 
L 158.545521 128.440128 
L 145.9656 134.039535 
L 137.750141 143.126751 
L 121.649308 166.072344 
L 84.166276 196.906882 
L 77.344512 192.685781 
L 70.155985 196.264547 
L 53.9818 211.68 
L 51.157736 200.669089 
L 44.005885 195.713971 
L 33.993295 195.071632 
L 22.623687 196.906882 
L 25.484427 193.236365 
L 27.795024 189.198715 
L 30.655764 185.252746 
L 35.497017 181.490235 
L 31.315935 162.768349 
L 29.335424 157.720467 
L 7.549787 149.184655 
L 10.007089 128.990896 
L 29.335424 93.004014 
L 27.795024 86.577076 
L 24.530847 80.60901 
L 22.000192 74.273477 
L 22.623687 66.009424 
L 25.74116 60.132548 
L 29.225394 59.030613 
L 33.333124 58.571472 
L 38.577815 54.163661 
L 56.769188 11.274066 
L 85.706675 10.08 
L 97.039607 11.274066 
" clip-path="url(#pf5fab414cc)" style="fill: none; stroke: #000000; stroke-width: 0.5; stroke-linecap: square"/>
   </g>
  </g>
 </g>
 <defs>
  <clipPath id="pf5fab414cc">
   <rect x="0" y="-0" width="166.095308" height="221.76"/>
  </clipPath>
 </defs>
</svg>
