<?xml version="1.0" encoding="utf-8" standalone="no"?>
<!DOCTYPE svg PUBLIC "-//W3C//DTD SVG 1.1//EN"
  "http://www.w3.org/Graphics/SVG/1.1/DTD/svg11.dtd">
<svg xmlns:xlink="http://www.w3.org/1999/xlink" width="195.192914pt" height="221.76pt" viewBox="0 0 195.192914 221.76" xmlns="http://www.w3.org/2000/svg" version="1.1">
 <metadata>
  <rdf:RDF xmlns:dc="http://purl.org/dc/elements/1.1/" xmlns:cc="http://creativecommons.org/ns#" xmlns:rdf="http://www.w3.org/1999/02/22-rdf-syntax-ns#">
   <cc:Work>
    <dc:type rdf:resource="http://purl.org/dc/dcmitype/StillImage"/>
    <dc:date>2026-04-26T19:22:22.789563</dc:date>
    <dc:format>image/svg+xml</dc:format>
    <dc:creator>
     <cc:Agent>
      <dc:title>Matplotlib v3.10.9, https://matplotlib.org/</dc:title>
     </cc:Agent>
    </dc:creator>
   </cc:Work>
  </rdf:RDF>
 </metadata>
 <defs>
  <style type="text/css">*{stroke-linejoin: round; stroke-linecap: butt}</style>
 </defs>
 <g id="figure_1">
  <g id="patch_1">
   <path d="M 0 221.76 
L 195.192914 221.76 
L 195.192914 0 
L 0 0 
z
" style="fill: #ffffff"/>
  </g>
  <g id="axes_1">
   <g id="patch_2">
    <path d="M 160.603391 59.798804 
L 186.320509 78.888277 
L 182.720112 120.243946 
L 162.489315 160.99664 
L 138.143777 178.289733 
L 130.942984 184.650119 
L 126.485351 192.202872 
L 123.399297 201.345381 
L 123.742191 211.68 
L 111.226528 176.500846 
L 89.62415 154.436886 
L 66.993089 152.449049 
L 52.07716 178.289733 
L 39.047156 178.289733 
L 34.589521 152.051481 
L 25.845703 127.400985 
L 21.902411 105.13399 
L 30.474782 86.444136 
L 46.419396 63.775894 
L 47.619527 45.878505 
L 35.103864 37.525966 
L 8.872405 44.685302 
L 39.218603 10.08 
L 79.337305 19.228978 
L 122.027716 45.083036 
z
" clip-path="url(#pa3cad769f3)" style="stroke: #000000; stroke-linejoin: miter"/>
   </g>
   <g id="line2d_1">
    <path d="M 160.603391 59.798804 
L 186.320509 78.888277 
L 182.720112 120.243946 
L 162.489315 160.99664 
L 138.143777 178.289733 
L 130.942984 184.650119 
L 126.485351 192.202872 
L 123.399297 201.345381 
L 123.742191 211.68 
L 111.226528 176.500846 
L 89.62415 154.436886 
L 66.993089 152.449049 
L 52.07716 178.289733 
L 39.047156 178.289733 
L 34.589521 152.051481 
L 25.845703 127.400985 
L 21.902411 105.13399 
L 30.474782 86.444136 
L 46.419396 63.775894 
L 47.619527 45.878505 
L 35.103864 37.525966 
L 8.872405 44.685302 
L 39.218603 10.08 
L 79.337305 19.228978 
L 122.027716 45.083036 
L 160.603391 59.798804 
" clip-path="url(#pa3cad769f3)" style="fill: none; stroke: #000000; stroke-width: 0.5; stroke-linecap: square"/>
   </g>
  </g>
 </g>
 <defs>
  <clipPath id="pa3cad769f3">
   <rect x="0" y="-0" width="195.192914" height="221.76"/>
  </clipPath>
 </defs>
</svg>
