<?xml version="1.0" encoding="utf-8" standalone="no"?>
<!DOCTYPE svg PUBLIC "-//W3C//DTD SVG 1.1//EN"
  "http://www.w3.org/Graphics/SVG/1.1/DTD/svg11.dtd">
<svg xmlns:xlink="http://www.w3.org/1999/xlink" width="223.2pt" height="131.587371pt" viewBox="0 0 223.2 131.587371" xmlns="http://www.w3.org/2000/svg" version="1.1">
 <metadata>
  <rdf:RDF xmlns:dc="http://purl.org/dc/elements/1.1/" xmlns:cc="http://creativecommons.org/ns#" xmlns:rdf="http://www.w3.org/1999/02/22-rdf-syntax-ns#">
   <cc:Work>
    <dc:type rdf:resource="http://purl.org/dc/dcmitype/StillImage"/>
    <dc:date>2026-04-26T19:21:56.981822</dc:date>
    <dc:format>image/svg+xml</dc:format>
    <dc:creator>
     <cc:Agent>
      <dc:title>Matplotlib v3.10.9, https://matplotlib.org/</dc:title>
     </cc:Agent>
    </dc:creator>
   </cc:Work>
  </rdf:RDF>
 </metadata>
 <defs>
  <style type="text/css">*{stroke-linejoin: round; stroke-linecap: butt}</style>
 </defs>
 <g id="figure_1">
  <g id="patch_1">
   <path d="M 0 131.587371 
L 223.2 131.587371 
L 223.2 0 
L 0 0 
z
" style="fill: #ffffff"/>
  </g>
  <g id="axes_1">
   <g id="patch_2">
    <path d="M 19.873189 44.777118 
L 21.704292 46.222526 
L 22.660716 46.603178 
L 23.952297 46.552558 
L 24.540866 46.186082 
L 25.399196 44.997749 
L 25.906019 44.740684 
L 26.649904 45.082765 
L 28.154025 46.647724 
L 28.914259 47.062833 
L 30.614569 46.625451 
L 31.519819 45.87542 
L 32.224959 45.291264 
L 33.541064 43.613398 
L 34.37487 42.144455 
L 34.418945 41.876647 
L 34.685503 40.257306 
L 34.449525 39.51902 
L 33.688206 37.137871 
L 33.786301 35.361684 
L 34.759074 31.508355 
L 35.552007 29.824962 
L 37.097 28.442741 
L 39.124293 27.591401 
L 46.529619 25.73895 
L 52.143278 24.335142 
L 54.418907 23.766187 
L 56.421676 23.0285 
L 57.347236 22.360681 
L 59.993961 20.45148 
L 61.898635 19.555174 
L 62.511728 19.567258 
L 63.043075 19.676015 
L 64.105768 20.10301 
L 67.114009 21.809338 
L 69.917885 23.828674 
L 71.209467 25.389077 
L 71.937003 26.510286 
L 72.245181 26.741556 
L 72.917951 27.246468 
L 73.544647 27.339126 
L 76.956187 27.84356 
L 77.781818 27.710419 
L 77.900254 27.162829 
L 77.937135 26.992322 
L 77.863564 25.40924 
L 77.740945 24.74389 
L 77.503883 24.324563 
L 77.340392 23.905271 
L 77.438486 23.21795 
L 82.089815 17.994574 
L 82.630512 17.672225 
L 83.11981 17.380537 
L 84.501312 17.295986 
L 87.256141 18.069069 
L 88.106296 18.004641 
L 88.016376 17.481193 
L 87.444156 16.796767 
L 87.321537 16.118473 
L 88.621293 15.587173 
L 89.536845 15.800491 
L 90.272556 16.353953 
L 91.090012 16.502896 
L 91.439271 16.190774 
L 92.193579 15.51674 
L 93.599604 16.227155 
L 95.226343 16.198978 
L 98.545217 15.565037 
L 98.723216 15.633163 
L 99.591562 15.965517 
L 103.515354 15.907154 
L 106.286532 16.468679 
L 107.646633 16.516806 
L 108.845171 15.965517 
L 109.98961 14.949286 
L 111.018736 14.490928 
L 118.744571 11.051296 
L 120.338612 10.785909 
L 123.502169 10.812045 
L 124.058039 10.711523 
L 126.739297 9.013007 
L 127.589452 8.719595 
L 128.578575 8.876347 
L 132.804826 10.470278 
L 135.387989 11.143783 
L 136.794346 11.263024 
L 138.020199 11.366964 
L 140.758679 10.999022 
L 151.663551 7.648585 
L 153.748065 6.077653 
L 154.467427 5.981244 
L 154.818933 6.358858 
L 154.876155 7.680732 
L 155.105043 8.243338 
L 156.265832 9.242122 
L 157.532889 9.947622 
L 158.93074 10.337599 
L 160.492083 10.405948 
L 168.290619 18.115377 
L 171.28251 19.760605 
L 172.328855 22.002772 
L 173.298572 23.221968 
L 173.55504 23.544466 
L 175.206302 24.768083 
L 182.064764 28.390285 
L 182.808658 28.669611 
L 186.65887 30.11558 
L 189.02132 30.480894 
L 189.381001 30.710994 
L 189.675285 31.052128 
L 190.026792 31.377135 
L 190.549964 31.53258 
L 194.154948 31.413472 
L 194.96423 31.478073 
L 195.315736 31.793013 
L 195.503751 32.305841 
L 195.773512 32.834876 
L 196.394779 33.19231 
L 196.950649 33.180193 
L 198.160485 32.869205 
L 198.610086 32.891418 
L 199.501114 33.329635 
L 199.934366 33.721438 
L 200.086254 34.273111 
L 200.097857 34.315258 
L 200.163254 35.349562 
L 200.187778 35.361684 
L 200.809045 36.210296 
L 200.99706 37.050967 
L 201.136027 38.928835 
L 201.724596 40.728522 
L 202.574751 42.516709 
L 202.69737 43.067047 
L 202.664671 44.222547 
L 202.869036 44.815576 
L 202.970578 44.899591 
L 203.204193 45.092886 
L 204.127919 45.461307 
L 204.495774 45.777118 
L 204.994423 46.70442 
L 205.836403 49.388067 
L 207.528539 52.340697 
L 208.019012 52.918454 
L 208.885517 53.206342 
L 210.757492 53.279331 
L 211.599473 53.573323 
L 212.997323 55.226075 
L 213.054545 57.076168 
L 212.188041 58.902573 
L 211.144619 60.153102 
L 210.446859 60.989529 
L 209.931861 62.130811 
L 209.686624 62.522805 
L 209.253372 62.723891 
L 208.010838 62.992018 
L 207.618459 63.26219 
L 207.242429 64.164221 
L 206.997192 65.251338 
L 206.923621 66.383403 
L 207.054414 67.434392 
L 207.307825 67.881687 
L 208.059885 68.760124 
L 208.239726 69.292953 
L 208.174329 69.752612 
L 207.790125 71.058594 
L 207.835717 72.267372 
L 208.043536 77.780865 
L 208.149806 78.163862 
L 208.607581 78.966615 
L 208.705676 79.423058 
L 208.509486 79.793948 
L 207.593935 80.645871 
L 207.340523 81.131 
L 207.504015 82.815034 
L 207.904569 84.471055 
L 207.618459 85.939888 
L 205.730134 87.049947 
L 198.536515 86.637728 
L 196.226204 86.949907 
L 194.972404 87.119334 
L 193.495553 88.098339 
L 192.626304 88.67465 
L 191.890742 90.901213 
L 191.800672 91.173922 
L 191.47369 97.435501 
L 190.72163 100.491341 
L 189.814253 102.091558 
L 188.955923 102.562302 
L 187.925928 102.173423 
L 186.519902 101.219768 
L 185.90681 100.593642 
L 185.555304 99.979865 
L 185.182159 99.606339 
L 185.097528 99.521625 
L 184.181976 99.349795 
L 182.980315 99.59936 
L 182.710554 100.176266 
L 182.775951 100.888281 
L 182.596111 101.534906 
L 181.239132 102.852957 
L 179.882154 103.712732 
L 179.601987 103.796318 
L 178.386209 104.159052 
L 176.645026 104.236855 
L 174.061863 103.94203 
L 172.80298 103.950219 
L 171.28251 104.298279 
L 170.178944 104.515316 
L 168.911886 104.621791 
L 166.565786 104.543982 
L 165.666583 104.285994 
L 163.990797 103.458879 
L 163.271435 103.192756 
L 162.282313 103.139533 
L 160.279544 103.409748 
L 158.783598 103.446596 
L 158.121458 103.770056 
L 157.62281 103.725016 
L 157.459318 103.450691 
L 157.344874 102.406747 
L 157.14051 102.099744 
L 156.412974 101.94011 
L 154.001477 101.706807 
L 151.009585 100.982404 
L 150.100239 100.8972 
L 149.480941 100.839173 
L 147.690711 100.95785 
L 145.884132 101.592205 
L 143.039383 103.548955 
L 141.379946 103.999356 
L 140.791377 103.831474 
L 138.167341 102.758799 
L 137.971152 102.533647 
L 137.840359 102.13249 
L 137.595122 101.751829 
L 137.014727 101.596298 
L 136.687745 101.747736 
L 135.878463 102.435402 
L 135.502433 102.648269 
L 130.442376 103.77415 
L 128.039053 104.76103 
L 127.313991 105.169695 
L 126.011761 105.903747 
L 125.390494 106.43628 
L 125.071686 107.190111 
L 125.003462 108.50334 
L 124.98994 108.763669 
L 124.842798 109.366171 
L 123.763755 110.587779 
L 120.94353 112.654494 
L 119.872661 114.135315 
L 119.864487 114.14352 
L 119.856312 114.151725 
L 116.88077 115.735558 
L 116.096012 116.482502 
L 115.948869 117.139243 
L 115.940695 117.997233 
L 115.654585 118.90053 
L 114.657288 119.680773 
L 113.990303 119.792471 
L 112.401108 120.058616 
L 108.297475 119.356342 
L 106.065818 120.132545 
L 105.902327 120.444701 
L 105.730661 121.471657 
L 105.428202 121.915364 
L 105.035823 122.022187 
L 103.899558 121.972884 
L 103.441783 122.026296 
L 102.64885 122.511139 
L 100.801398 123.912498 
L 100.106559 124.261868 
L 97.899426 123.933049 
L 94.408887 121.541498 
L 94.109269 121.509634 
L 88.073597 120.867783 
L 86.136225 120.896537 
L 84.264249 121.541498 
L 81.386802 123.723437 
L 80.152442 124.261868 
L 77.471185 124.693474 
L 74.749054 124.697585 
L 73.552307 124.505779 
L 70.645422 124.039913 
L 68.585431 123.9536 
L 62.977678 125.244336 
L 51.361619 125.606127 
L 51.328921 123.493285 
L 50.68313 121.997536 
L 49.35885 121.019772 
L 45.426884 120.128438 
L 41.24968 119.668453 
L 41.180811 119.681384 
L 39.631116 119.972367 
L 36.998906 121.656531 
L 35.609229 122.079709 
L 33.614635 121.742807 
L 32.799116 121.214836 
L 31.742659 120.530958 
L 30.59822 118.695222 
L 29.069576 114.12711 
L 27.540932 108.944003 
L 26.73165 107.665407 
L 25.873321 107.165528 
L 25.170996 107.086246 
L 24.965944 107.063099 
L 23.968647 107.099973 
L 22.889604 107.013934 
L 22.267523 106.793186 
L 20.649773 106.219164 
L 20.093902 105.141908 
L 20.142949 103.7373 
L 19.742396 101.948296 
L 18.491687 100.110798 
L 15.565192 96.981571 
L 14.567895 94.97412 
L 13.227266 90.708281 
L 12.802189 88.327623 
L 12.830766 88.170633 
L 13.112822 86.621404 
L 14.249087 86.89077 
L 15.385352 86.368375 
L 16.415347 85.389027 
L 17.167407 84.311956 
L 17.723278 82.994478 
L 17.739627 81.926057 
L 17.650779 81.747287 
L 17.257327 80.955696 
L 16.317252 79.952909 
L 15.720509 79.655371 
L 14.404404 79.496419 
L 13.840359 79.137777 
L 13.685042 78.709883 
L 13.521551 77.422341 
L 13.259964 76.815352 
L 13.106695 76.595541 
L 12.254493 75.373526 
L 11.649575 74.901151 
L 10.766722 74.599831 
L 10.210851 73.427291 
L 10.439739 71.30274 
L 10.145455 70.183835 
L 14.00385 69.553286 
L 15.148289 69.191264 
L 16.210983 68.711318 
L 16.881297 68.198883 
L 17.306375 67.381533 
L 17.304454 67.2196 
L 17.2982 66.692375 
L 15.622414 63.044832 
L 15.22186 61.367221 
L 14.592419 55.684479 
L 14.821307 54.856948 
L 15.458923 53.812584 
L 16.235507 53.050232 
L 18.074784 51.708281 
L 18.589782 51.021226 
L 18.52773 50.508474 
L 18.393592 49.400222 
L 17.764151 47.421271 
L 17.788195 46.995878 
L 17.862245 45.686017 
z
" clip-path="url(#pd69142532c)" style="stroke: #000000; stroke-linejoin: miter"/>
   </g>
   <g id="line2d_1">
    <path d="M 19.873189 44.777118 
L 21.704292 46.222526 
L 22.660716 46.603178 
L 23.952297 46.552558 
L 24.540866 46.186082 
L 25.399196 44.997749 
L 25.906019 44.740684 
L 26.649904 45.082765 
L 28.154025 46.647724 
L 28.914259 47.062833 
L 30.614569 46.625451 
L 32.224959 45.291264 
L 33.541064 43.613398 
L 34.418945 41.876647 
L 34.685503 40.257306 
L 33.688206 37.137871 
L 33.786301 35.361684 
L 34.759074 31.508355 
L 35.552007 29.824962 
L 37.097 28.442741 
L 39.124293 27.591401 
L 54.418907 23.766187 
L 56.421676 23.0285 
L 59.993961 20.45148 
L 61.898635 19.555174 
L 63.043075 19.676015 
L 64.105768 20.10301 
L 67.114009 21.809338 
L 69.917885 23.828674 
L 71.209467 25.389077 
L 71.937003 26.510286 
L 72.917951 27.246468 
L 76.956187 27.84356 
L 77.781818 27.710419 
L 77.937135 26.992322 
L 77.740945 24.74389 
L 77.340392 23.905271 
L 77.438486 23.21795 
L 82.089815 17.994574 
L 83.11981 17.380537 
L 84.501312 17.295986 
L 87.256141 18.069069 
L 88.106296 18.004641 
L 88.016376 17.481193 
L 87.444156 16.796767 
L 87.321537 16.118473 
L 88.621293 15.587173 
L 89.536845 15.800491 
L 90.272556 16.353953 
L 91.090012 16.502896 
L 92.193579 15.51674 
L 93.599604 16.227155 
L 95.226343 16.198978 
L 98.723216 15.633163 
L 99.591562 15.965517 
L 103.515354 15.907154 
L 106.286532 16.468679 
L 107.646633 16.516806 
L 108.845171 15.965517 
L 109.98961 14.949286 
L 118.744571 11.051296 
L 120.338612 10.785909 
L 124.058039 10.711523 
L 126.739297 9.013007 
L 127.589452 8.719595 
L 128.578575 8.876347 
L 132.804826 10.470278 
L 135.387989 11.143783 
L 138.020199 11.366964 
L 140.758679 10.999022 
L 151.663551 7.648585 
L 153.748065 6.077653 
L 154.467427 5.981244 
L 154.818933 6.358858 
L 154.876155 7.680732 
L 155.105043 8.243338 
L 156.265832 9.242122 
L 157.532889 9.947622 
L 158.93074 10.337599 
L 160.492083 10.405948 
L 168.290619 18.115377 
L 171.28251 19.760605 
L 172.328855 22.002772 
L 173.55504 23.544466 
L 175.206302 24.768083 
L 182.808658 28.669611 
L 186.65887 30.11558 
L 189.02132 30.480894 
L 189.381001 30.710994 
L 190.026792 31.377135 
L 190.549964 31.53258 
L 194.96423 31.478073 
L 195.315736 31.793013 
L 195.773512 32.834876 
L 196.394779 33.19231 
L 196.950649 33.180193 
L 198.160485 32.869205 
L 198.610086 32.891418 
L 199.501114 33.329635 
L 199.934366 33.721438 
L 200.097857 34.315258 
L 200.187778 35.361684 
L 200.809045 36.210296 
L 200.99706 37.050967 
L 201.136027 38.928835 
L 201.724596 40.728522 
L 202.574751 42.516709 
L 202.69737 43.067047 
L 202.664671 44.222547 
L 202.970578 44.899591 
L 203.204193 45.092886 
L 204.127919 45.461307 
L 204.495774 45.777118 
L 204.994423 46.70442 
L 205.836403 49.388067 
L 207.528539 52.340697 
L 208.019012 52.918454 
L 208.885517 53.206342 
L 210.757492 53.279331 
L 211.599473 53.573323 
L 212.997323 55.226075 
L 213.054545 57.076168 
L 212.188041 58.902573 
L 210.446859 60.989529 
L 209.686624 62.522805 
L 209.253372 62.723891 
L 208.010838 62.992018 
L 207.618459 63.26219 
L 207.242429 64.164221 
L 206.997192 65.251338 
L 206.923621 66.383403 
L 207.054414 67.434392 
L 207.307825 67.881687 
L 208.059885 68.760124 
L 208.239726 69.292953 
L 208.174329 69.752612 
L 207.790125 71.058594 
L 208.149806 78.163862 
L 208.607581 78.966615 
L 208.705676 79.423058 
L 208.509486 79.793948 
L 207.593935 80.645871 
L 207.340523 81.131 
L 207.504015 82.815034 
L 207.904569 84.471055 
L 207.618459 85.939888 
L 205.730134 87.049947 
L 198.536515 86.637728 
L 194.972404 87.119334 
L 192.626304 88.67465 
L 191.800672 91.173922 
L 191.47369 97.435501 
L 190.72163 100.491341 
L 189.814253 102.091558 
L 188.955923 102.562302 
L 187.925928 102.173423 
L 186.519902 101.219768 
L 185.90681 100.593642 
L 185.555304 99.979865 
L 185.097528 99.521625 
L 184.181976 99.349795 
L 182.980315 99.59936 
L 182.710554 100.176266 
L 182.775951 100.888281 
L 182.596111 101.534906 
L 181.239132 102.852957 
L 179.601987 103.796318 
L 178.386209 104.159052 
L 176.645026 104.236855 
L 174.061863 103.94203 
L 172.80298 103.950219 
L 170.178944 104.515316 
L 168.911886 104.621791 
L 166.565786 104.543982 
L 165.666583 104.285994 
L 163.271435 103.192756 
L 162.282313 103.139533 
L 160.279544 103.409748 
L 158.783598 103.446596 
L 158.121458 103.770056 
L 157.62281 103.725016 
L 157.459318 103.450691 
L 157.344874 102.406747 
L 157.14051 102.099744 
L 156.412974 101.94011 
L 154.001477 101.706807 
L 151.009585 100.982404 
L 149.480941 100.839173 
L 147.690711 100.95785 
L 145.884132 101.592205 
L 143.039383 103.548955 
L 141.379946 103.999356 
L 140.791377 103.831474 
L 138.167341 102.758799 
L 137.971152 102.533647 
L 137.840359 102.13249 
L 137.595122 101.751829 
L 137.014727 101.596298 
L 136.687745 101.747736 
L 135.502433 102.648269 
L 130.442376 103.77415 
L 127.313991 105.169695 
L 126.011761 105.903747 
L 125.390494 106.43628 
L 125.071686 107.190111 
L 124.98994 108.763669 
L 124.842798 109.366171 
L 123.763755 110.587779 
L 120.94353 112.654494 
L 119.856312 114.151725 
L 116.88077 115.735558 
L 116.096012 116.482502 
L 115.948869 117.139243 
L 115.940695 117.997233 
L 115.654585 118.90053 
L 114.657288 119.680773 
L 112.401108 120.058616 
L 108.297475 119.356342 
L 106.065818 120.132545 
L 105.902327 120.444701 
L 105.730661 121.471657 
L 105.428202 121.915364 
L 105.035823 122.022187 
L 103.441783 122.026296 
L 102.64885 122.511139 
L 100.801398 123.912498 
L 100.106559 124.261868 
L 97.899426 123.933049 
L 94.408887 121.541498 
L 88.073597 120.867783 
L 86.136225 120.896537 
L 84.264249 121.541498 
L 81.386802 123.723437 
L 80.152442 124.261868 
L 77.471185 124.693474 
L 74.749054 124.697585 
L 70.645422 124.039913 
L 68.585431 123.9536 
L 62.977678 125.244336 
L 51.361619 125.606127 
L 51.328921 123.493285 
L 50.68313 121.997536 
L 49.35885 121.019772 
L 45.426884 120.128438 
L 41.180811 119.681384 
L 39.631116 119.972367 
L 36.998906 121.656531 
L 35.609229 122.079709 
L 33.614635 121.742807 
L 31.742659 120.530958 
L 30.59822 118.695222 
L 29.069576 114.12711 
L 27.540932 108.944003 
L 26.73165 107.665407 
L 25.873321 107.165528 
L 24.965944 107.063099 
L 23.968647 107.099973 
L 22.889604 107.013934 
L 20.649773 106.219164 
L 20.093902 105.141908 
L 20.142949 103.7373 
L 19.742396 101.948296 
L 18.491687 100.110798 
L 15.565192 96.981571 
L 14.567895 94.97412 
L 13.227266 90.708281 
L 12.830766 88.170633 
L 13.112822 86.621404 
L 14.249087 86.89077 
L 15.385352 86.368375 
L 16.415347 85.389027 
L 17.167407 84.311956 
L 17.723278 82.994478 
L 17.650779 81.747287 
L 17.257327 80.955696 
L 16.317252 79.952909 
L 15.720509 79.655371 
L 14.404404 79.496419 
L 13.840359 79.137777 
L 13.685042 78.709883 
L 13.521551 77.422341 
L 13.106695 76.595541 
L 12.254493 75.373526 
L 11.649575 74.901151 
L 10.766722 74.599831 
L 10.210851 73.427291 
L 10.439739 71.30274 
L 10.145455 70.183835 
L 14.00385 69.553286 
L 15.148289 69.191264 
L 16.210983 68.711318 
L 16.881297 68.198883 
L 17.304454 67.2196 
L 17.2982 66.692375 
L 15.622414 63.044832 
L 15.22186 61.367221 
L 14.592419 55.684479 
L 14.821307 54.856948 
L 15.458923 53.812584 
L 16.235507 53.050232 
L 18.074784 51.708281 
L 18.589782 51.021226 
L 18.393592 49.400222 
L 17.764151 47.421271 
L 17.862245 45.686017 
L 19.873189 44.777118 
L 19.873189 44.777118 
" clip-path="url(#pd69142532c)" style="fill: none; stroke: #000000; stroke-width: 0.5; stroke-linecap: square"/>
   </g>
  </g>
 </g>
 <defs>
  <clipPath id="pd69142532c">
   <rect x="0" y="-0" width="223.2" height="131.587371"/>
  </clipPath>
 </defs>
</svg>
