<?xml version="1.0" encoding="utf-8" standalone="no"?>
<!DOCTYPE svg PUBLIC "-//W3C//DTD SVG 1.1//EN"
  "http://www.w3.org/Graphics/SVG/1.1/DTD/svg11.dtd">
<svg xmlns:xlink="http://www.w3.org/1999/xlink" width="223.2pt" height="88.553503pt" viewBox="0 0 223.2 88.553503" xmlns="http://www.w3.org/2000/svg" version="1.1">
 <metadata>
  <rdf:RDF xmlns:dc="http://purl.org/dc/elements/1.1/" xmlns:cc="http://creativecommons.org/ns#" xmlns:rdf="http://www.w3.org/1999/02/22-rdf-syntax-ns#">
   <cc:Work>
    <dc:type rdf:resource="http://purl.org/dc/dcmitype/StillImage"/>
    <dc:date>2026-04-26T19:22:13.618036</dc:date>
    <dc:format>image/svg+xml</dc:format>
    <dc:creator>
     <cc:Agent>
      <dc:title>Matplotlib v3.10.9, https://matplotlib.org/</dc:title>
     </cc:Agent>
    </dc:creator>
   </cc:Work>
  </rdf:RDF>
 </metadata>
 <defs>
  <style type="text/css">*{stroke-linejoin: round; stroke-linecap: butt}</style>
 </defs>
 <g id="figure_1">
  <g id="patch_1">
   <path d="M 0 88.553503 
L 223.2 88.553503 
L 223.2 0 
L 0 0 
z
" style="fill: #ffffff"/>
  </g>
  <g id="axes_1">
   <g id="patch_2">
    <path d="M 150.492664 77.367867 
L 150.128434 77.845322 
L 145.169636 76.839932 
L 142.818385 77.845322 
L 141.124593 77.487973 
L 139.776246 77.118524 
L 139.0965 76.752117 
L 139.087217 76.745585 
L 139.274794 76.555293 
L 139.943396 76.282773 
L 140.701145 75.386541 
L 139.854249 74.193711 
L 139.018497 74.193711 
L 139.018497 73.551944 
L 138.773343 73.182644 
L 138.260748 72.09299 
L 137.502999 71.899286 
L 137.246701 70.900564 
L 135.82035 70.900564 
L 135.318899 73.097889 
L 135.318899 74.829465 
L 135.898354 75.840702 
L 135.318899 76.282773 
L 134.817447 77.021621 
L 133.379953 78.02703 
L 132.209899 78.208741 
L 131.363003 77.391067 
L 130.19295 77.021621 
L 127.418251 78.675149 
L 126.994804 80.135089 
L 126.147908 80.328957 
L 124.966711 80.135089 
L 123.952664 81.140819 
L 121.099962 79.311196 
L 118.815572 81.049935 
L 117.639947 81.413474 
L 118.057823 80.044215 
L 118.910291 77.487973 
L 118.408839 77.021621 
L 117.394793 77.021621 
L 116.224739 78.02703 
L 114.542091 78.305655 
L 114.029496 79.402063 
L 114.196646 80.504653 
L 114.604755 80.872424 
L 113.695195 81.231703 
L 112.09055 81.049935 
L 111.667102 81.231703 
L 110.084744 81.231703 
L 107.555199 79.402063 
L 106.284856 79.9594 
L 105.125945 80.868171 
L 103.772026 80.68641 
L 102.418107 79.76554 
L 101.916655 78.02703 
L 101.23691 77.021621 
L 100.312011 76.282773 
L 99.643409 76.282773 
L 99.225532 77.021621 
L 99.05281 78.208741 
L 98.384208 78.305655 
L 97.030289 77.845322 
L 96.032958 77.663617 
L 95.275209 77.663617 
L 94.595463 78.208741 
L 93.770854 80.328957 
L 93.258259 81.140819 
L 92.923958 82.607188 
L 92.756808 83.794987 
L 92.756808 84.528344 
L 91.653614 84.249541 
L 91.575611 83.158648 
L 92.166209 80.328957 
L 92.756808 78.117885 
L 92.756808 75.840702 
L 92.756808 73.733571 
L 91.999059 72.637802 
L 89.970966 69.351233 
L 88.789769 67.427019 
L 87.463708 65.146291 
L 87.118264 63.501112 
L 86.783963 62.134374 
L 85.937067 61.487357 
L 84.510716 61.680853 
L 83.240372 62.775386 
L 82.40462 63.960766 
L 81.730446 64.420442 
L 78.526728 65.321712 
L 76.520922 65.321712 
L 75.339725 65.878243 
L 73.651505 65.787502 
L 70.548077 65.049508 
L 67.24964 64.777311 
L 65.500131 63.857947 
L 61.861822 62.593963 
L 58.329375 63.138242 
L 56.652298 63.682551 
L 54.301047 66.059727 
L 53.114279 66.241215 
L 51.682356 64.958774 
L 49.832557 65.503186 
L 47.397731 66.604201 
L 44.706608 67.336264 
L 42.856809 68.249907 
L 40.171258 69.442008 
L 38.065161 71.626897 
L 35.624764 72.819412 
L 34.270845 73.097889 
L 33.017216 73.273454 
L 31.836019 73.097889 
L 29.317618 72.819412 
L 28.058417 73.097889 
L 27.378672 73.364265 
L 26.364626 74.556994 
L 25.707167 75.568203 
L 24.013375 75.477371 
L 23.010472 73.097889 
L 21.327824 71.178985 
L 19.221727 69.986671 
L 15.432982 69.169687 
L 13.744762 68.703735 
L 12.401987 68.068381 
L 11.22079 66.876449 
L 10.373894 65.696762 
L 10.145455 64.305521 
L 10.231314 63.567004 
L 13.895372 63.986672 
L 17.238383 64.829653 
L 19.940869 66.434853 
L 22.845163 67.43526 
L 26.819924 66.453907 
L 29.76809 64.339096 
L 32.154701 61.320098 
L 33.734076 57.559573 
L 34.31318 53.163044 
L 34.453569 45.445419 
L 34.032402 41.980922 
L 32.768902 38.303936 
L 35.348548 38.68392 
L 39.770798 41.011657 
L 42.008245 41.562796 
L 48.874326 42.863106 
L 56.452276 42.461921 
L 69.647306 43.957766 
L 71.603976 44.760975 
L 87.441596 46.343826 
L 112.544883 42.79347 
L 121.442028 38.303936 
L 125.825771 36.092761 
L 131.339444 36.879126 
L 137.085362 35.253852 
L 153.008422 29.715299 
L 157.393138 27.040332 
L 163.31243 25.055632 
L 168.75308 20.063437 
L 171.851138 19.485555 
L 178.040403 17.958298 
L 183.634301 16.338016 
L 188.141957 13.759727 
L 207.842608 5.605991 
L 211.536591 4.280725 
L 213.054545 4.025159 
L 212.466667 4.403777 
L 212.098146 4.839207 
L 211.843691 5.274657 
L 211.580462 5.605991 
L 211.211941 8.891559 
L 210.922389 9.658672 
L 210.132702 9.933332 
L 207.640799 10.38796 
L 207.096792 10.771569 
L 196.760661 16.631825 
L 187.152797 23.965792 
L 164.014955 36.280769 
L 160.9264 38.71242 
L 158.381852 41.562796 
L 156.521699 45.317082 
L 155.521428 46.904779 
L 153.889407 47.941201 
L 151.300987 48.0458 
L 148.61605 47.470518 
L 146.080276 47.237563 
L 143.956894 48.378624 
L 140.929759 52.230704 
L 139.692582 54.39996 
L 139.183672 56.39839 
L 138.376436 65.577443 
L 139.868068 66.539653 
L 144.167478 70.475225 
L 145.062457 71.647629 
L 145.588915 73.115716 
L 146.869963 74.59356 
z
" clip-path="url(#p446b5e919d)" style="stroke: #000000; stroke-linejoin: miter"/>
   </g>
   <g id="line2d_1">
    <path d="M 150.492664 77.367867 
L 150.128434 77.845322 
L 145.169636 76.839932 
L 142.818385 77.845322 
L 139.776246 77.118524 
L 139.087217 76.745585 
L 139.274794 76.555293 
L 139.943396 76.282773 
L 140.701145 75.386541 
L 139.854249 74.193711 
L 139.018497 74.193711 
L 139.018497 73.551944 
L 138.773343 73.182644 
L 138.260748 72.09299 
L 137.502999 71.899286 
L 137.246701 70.900564 
L 135.82035 70.900564 
L 135.318899 73.097889 
L 135.318899 74.829465 
L 135.898354 75.840702 
L 135.318899 76.282773 
L 134.817447 77.021621 
L 133.379953 78.02703 
L 132.209899 78.208741 
L 131.363003 77.391067 
L 130.19295 77.021621 
L 127.418251 78.675149 
L 126.994804 80.135089 
L 126.147908 80.328957 
L 124.966711 80.135089 
L 123.952664 81.140819 
L 121.099962 79.311196 
L 118.815572 81.049935 
L 117.639947 81.413474 
L 118.910291 77.487973 
L 118.408839 77.021621 
L 117.394793 77.021621 
L 116.224739 78.02703 
L 114.542091 78.305655 
L 114.029496 79.402063 
L 114.196646 80.504653 
L 114.604755 80.872424 
L 113.695195 81.231703 
L 112.09055 81.049935 
L 111.667102 81.231703 
L 110.084744 81.231703 
L 107.555199 79.402063 
L 106.284856 79.9594 
L 105.125945 80.868171 
L 103.772026 80.68641 
L 102.418107 79.76554 
L 101.916655 78.02703 
L 101.23691 77.021621 
L 100.312011 76.282773 
L 99.643409 76.282773 
L 99.225532 77.021621 
L 99.05281 78.208741 
L 98.384208 78.305655 
L 97.030289 77.845322 
L 96.032958 77.663617 
L 95.275209 77.663617 
L 94.595463 78.208741 
L 93.770854 80.328957 
L 93.258259 81.140819 
L 92.756808 83.794987 
L 92.756808 84.528344 
L 91.653614 84.249541 
L 91.575611 83.158648 
L 92.166209 80.328957 
L 92.756808 78.117885 
L 92.756808 73.733571 
L 91.999059 72.637802 
L 87.463708 65.146291 
L 86.783963 62.134374 
L 85.937067 61.487357 
L 84.510716 61.680853 
L 83.240372 62.775386 
L 82.40462 63.960766 
L 81.730446 64.420442 
L 78.526728 65.321712 
L 76.520922 65.321712 
L 75.339725 65.878243 
L 73.651505 65.787502 
L 70.548077 65.049508 
L 67.24964 64.777311 
L 65.500131 63.857947 
L 61.861822 62.593963 
L 58.329375 63.138242 
L 56.652298 63.682551 
L 54.301047 66.059727 
L 53.114279 66.241215 
L 51.682356 64.958774 
L 49.832557 65.503186 
L 47.397731 66.604201 
L 44.706608 67.336264 
L 42.856809 68.249907 
L 40.171258 69.442008 
L 38.065161 71.626897 
L 35.624764 72.819412 
L 33.017216 73.273454 
L 29.317618 72.819412 
L 28.058417 73.097889 
L 27.378672 73.364265 
L 26.364626 74.556994 
L 25.707167 75.568203 
L 24.013375 75.477371 
L 23.010472 73.097889 
L 21.327824 71.178985 
L 19.221727 69.986671 
L 13.744762 68.703735 
L 12.401987 68.068381 
L 11.22079 66.876449 
L 10.373894 65.696762 
L 10.145455 64.305521 
L 10.231314 63.567004 
L 13.895372 63.986672 
L 17.238383 64.829653 
L 19.940869 66.434853 
L 22.845163 67.43526 
L 26.819924 66.453907 
L 29.76809 64.339096 
L 32.154701 61.320098 
L 33.734076 57.559573 
L 34.31318 53.163044 
L 34.453569 45.445419 
L 34.032402 41.980922 
L 32.768902 38.303936 
L 35.348548 38.68392 
L 39.770798 41.011657 
L 42.008245 41.562796 
L 48.874326 42.863106 
L 56.452276 42.461921 
L 69.647306 43.957766 
L 71.603976 44.760975 
L 87.441596 46.343826 
L 112.544883 42.79347 
L 125.825771 36.092761 
L 131.339444 36.879126 
L 137.085362 35.253852 
L 153.008422 29.715299 
L 157.393138 27.040332 
L 163.31243 25.055632 
L 168.75308 20.063437 
L 171.851138 19.485555 
L 178.040403 17.958298 
L 183.634301 16.338016 
L 188.141957 13.759727 
L 207.842608 5.605991 
L 211.536591 4.280725 
L 213.054545 4.025159 
L 212.466667 4.403777 
L 211.580462 5.605991 
L 211.211941 8.891559 
L 210.922389 9.658672 
L 210.132702 9.933332 
L 207.640799 10.38796 
L 207.096792 10.771569 
L 196.760661 16.631825 
L 187.152797 23.965792 
L 164.014955 36.280769 
L 160.9264 38.71242 
L 158.381852 41.562796 
L 156.521699 45.317082 
L 155.521428 46.904779 
L 153.889407 47.941201 
L 151.300987 48.0458 
L 148.61605 47.470518 
L 146.080276 47.237563 
L 143.956894 48.378624 
L 140.929759 52.230704 
L 139.692582 54.39996 
L 139.183672 56.39839 
L 138.376436 65.577443 
L 139.868068 66.539653 
L 144.167478 70.475225 
L 145.062457 71.647629 
L 145.588915 73.115716 
L 146.869963 74.59356 
L 150.492664 77.367867 
L 150.492664 77.367867 
" clip-path="url(#p446b5e919d)" style="fill: none; stroke: #000000; stroke-width: 0.5; stroke-linecap: square"/>
   </g>
  </g>
 </g>
 <defs>
  <clipPath id="p446b5e919d">
   <rect x="0" y="0" width="223.2" height="88.553503"/>
  </clipPath>
 </defs>
</svg>
