<?xml version="1.0" encoding="utf-8" standalone="no"?>
<!DOCTYPE svg PUBLIC "-//W3C//DTD SVG 1.1//EN"
  "http://www.w3.org/Graphics/SVG/1.1/DTD/svg11.dtd">
<svg xmlns:xlink="http://www.w3.org/1999/xlink" width="223.2pt" height="77.223471pt" viewBox="0 0 223.2 77.223471" xmlns="http://www.w3.org/2000/svg" version="1.1">
 <metadata>
  <rdf:RDF xmlns:dc="http://purl.org/dc/elements/1.1/" xmlns:cc="http://creativecommons.org/ns#" xmlns:rdf="http://www.w3.org/1999/02/22-rdf-syntax-ns#">
   <cc:Work>
    <dc:type rdf:resource="http://purl.org/dc/dcmitype/StillImage"/>
    <dc:date>2026-04-26T19:22:30.641240</dc:date>
    <dc:format>image/svg+xml</dc:format>
    <dc:creator>
     <cc:Agent>
      <dc:title>Matplotlib v3.10.9, https://matplotlib.org/</dc:title>
     </cc:Agent>
    </dc:creator>
   </cc:Work>
  </rdf:RDF>
 </metadata>
 <defs>
  <style type="text/css">*{stroke-linejoin: round; stroke-linecap: butt}</style>
 </defs>
 <g id="figure_1">
  <g id="patch_1">
   <path d="M 0 77.223471 
L 223.2 77.223471 
L 223.2 0 
L 0 0 
z
" style="fill: #ffffff"/>
  </g>
  <g id="axes_1">
   <g id="patch_2">
    <path d="M 88.93255 4.199125 
L 105.07746 4.612636 
L 123.547214 4.750492 
L 209.438072 4.474789 
L 212.150421 14.562624 
L 205.563301 13.593084 
L 204.659201 14.839721 
L 196.651314 16.364408 
L 195.488892 17.751507 
L 190.193355 18.167796 
L 190.451676 19.972811 
L 196.909635 18.723015 
L 197.813759 19.833907 
L 204.917522 18.584196 
L 207.242389 20.945378 
L 211.504642 19.972811 
L 213.054545 26.093855 
L 211.633779 29.021695 
L 208.792293 29.300755 
L 202.850976 35.58942 
L 194.97225 35.869358 
L 193.680667 40.213104 
L 197.038796 44.565757 
L 199.751145 45.409241 
L 194.713928 52.592158 
L 190.451676 51.745861 
L 182.960455 52.451085 
L 177.794078 54.00336 
L 169.657054 58.949797 
L 163.199095 65.467757 
L 159.840943 73.713313 
L 154.932911 71.86255 
L 146.408405 73.570891 
L 119.672443 48.927279 
L 93.194803 48.504805 
L 93.582285 45.549854 
L 89.965835 41.195195 
L 87.511807 42.739373 
L 87.382646 40.072842 
L 58.321817 38.810929 
L 51.863858 39.792346 
L 46.826665 42.177715 
L 38.689618 43.863107 
L 26.677823 44.284669 
L 10.145455 44.144139 
L 10.791234 38.110178 
L 15.440969 37.549743 
L 17.249193 33.351282 
L 23.061373 29.579853 
L 29.519333 29.440299 
L 35.331489 25.536636 
L 41.401967 24.144272 
L 46.568344 18.445387 
L 49.797312 16.780438 
L 50.443115 19.278385 
L 59.742584 14.42409 
L 64.004837 15.394029 
L 66.975483 10.687313 
L 71.366897 9.443249 
L 72.400181 3.510158 
z
" clip-path="url(#p593dded35f)" style="stroke: #000000; stroke-linejoin: miter"/>
   </g>
   <g id="line2d_1">
    <path d="M 88.93255 4.199125 
L 105.07746 4.612636 
L 123.547214 4.750492 
L 209.438072 4.474789 
L 212.150421 14.562624 
L 205.563301 13.593084 
L 204.659201 14.839721 
L 196.651314 16.364408 
L 195.488892 17.751507 
L 190.193355 18.167796 
L 190.451676 19.972811 
L 196.909635 18.723015 
L 197.813759 19.833907 
L 204.917522 18.584196 
L 207.242389 20.945378 
L 211.504642 19.972811 
L 213.054545 26.093855 
L 211.633779 29.021695 
L 208.792293 29.300755 
L 202.850976 35.58942 
L 194.97225 35.869358 
L 193.680667 40.213104 
L 197.038796 44.565757 
L 199.751145 45.409241 
L 194.713928 52.592158 
L 190.451676 51.745861 
L 182.960455 52.451085 
L 177.794078 54.00336 
L 169.657054 58.949797 
L 163.199095 65.467757 
L 159.840943 73.713313 
L 154.932911 71.86255 
L 146.408405 73.570891 
L 119.672443 48.927279 
L 93.194803 48.504805 
L 93.582285 45.549854 
L 89.965835 41.195195 
L 87.511807 42.739373 
L 87.382646 40.072842 
L 58.321817 38.810929 
L 51.863858 39.792346 
L 46.826665 42.177715 
L 38.689618 43.863107 
L 26.677823 44.284669 
L 10.145455 44.144139 
L 10.791234 38.110178 
L 15.440969 37.549743 
L 17.249193 33.351282 
L 23.061373 29.579853 
L 29.519333 29.440299 
L 35.331489 25.536636 
L 41.401967 24.144272 
L 46.568344 18.445387 
L 49.797312 16.780438 
L 50.443115 19.278385 
L 59.742584 14.42409 
L 64.004837 15.394029 
L 66.975483 10.687313 
L 71.366897 9.443249 
L 72.400181 3.510158 
L 88.93255 4.199125 
" clip-path="url(#p593dded35f)" style="fill: none; stroke: #000000; stroke-width: 0.5; stroke-linecap: square"/>
   </g>
  </g>
 </g>
 <defs>
  <clipPath id="p593dded35f">
   <rect x="0" y="-0" width="223.2" height="77.223471"/>
  </clipPath>
 </defs>
</svg>
