<?xml version="1.0" encoding="utf-8" standalone="no"?>
<!DOCTYPE svg PUBLIC "-//W3C//DTD SVG 1.1//EN"
  "http://www.w3.org/Graphics/SVG/1.1/DTD/svg11.dtd">
<svg xmlns:xlink="http://www.w3.org/1999/xlink" width="139.577165pt" height="221.76pt" viewBox="0 0 139.577165 221.76" xmlns="http://www.w3.org/2000/svg" version="1.1">
 <metadata>
  <rdf:RDF xmlns:dc="http://purl.org/dc/elements/1.1/" xmlns:cc="http://creativecommons.org/ns#" xmlns:rdf="http://www.w3.org/1999/02/22-rdf-syntax-ns#">
   <cc:Work>
    <dc:type rdf:resource="http://purl.org/dc/dcmitype/StillImage"/>
    <dc:date>2026-04-26T19:22:24.999880</dc:date>
    <dc:format>image/svg+xml</dc:format>
    <dc:creator>
     <cc:Agent>
      <dc:title>Matplotlib v3.10.9, https://matplotlib.org/</dc:title>
     </cc:Agent>
    </dc:creator>
   </cc:Work>
  </rdf:RDF>
 </metadata>
 <defs>
  <style type="text/css">*{stroke-linejoin: round; stroke-linecap: butt}</style>
 </defs>
 <g id="figure_1">
  <g id="patch_1">
   <path d="M 0 221.76 
L 139.577165 221.76 
L 139.577165 0 
L 0 0 
z
" style="fill: #ffffff"/>
  </g>
  <g id="axes_1">
   <g id="patch_2">
    <path d="M 101.073119 15.666144 
L 112.959785 10.08 
L 126.815407 12.360994 
L 133.232748 21.252414 
L 122.585796 35.172089 
L 112.37639 43.179749 
L 105.448579 55.750437 
L 90.353243 104.642527 
L 90.936638 114.561815 
L 98.083222 128.952474 
L 93.853611 139.38506 
L 88.311361 144.601516 
L 81.602323 144.135757 
L 73.580647 137.47549 
L 62.641998 150.050969 
L 57.099749 165.142381 
L 57.683144 181.119782 
L 64.392182 196.446008 
L 69.496885 211.68 
L 56.880977 211.214115 
L 41.202246 204.412292 
L 36.972635 200.685344 
L 17.064293 206.555312 
L 9.407239 204.272531 
L 6.344417 188.200475 
L 7.875828 171.290997 
L 18.595704 128.952474 
L 19.616644 112.605868 
L 19.179099 99.892585 
L 20.783433 88.996007 
L 27.565396 78.518979 
L 32.305477 74.887046 
L 49.223922 66.459306 
L 52.286743 60.965132 
L 52.870138 47.742369 
L 54.693246 42.993521 
L 65.70482 36.196309 
L 89.040605 26.978472 
z
" clip-path="url(#p09380c6ba0)" style="stroke: #000000; stroke-linejoin: miter"/>
   </g>
   <g id="line2d_1">
    <path d="M 101.073119 15.666144 
L 112.959785 10.08 
L 126.815407 12.360994 
L 133.232748 21.252414 
L 122.585796 35.172089 
L 112.37639 43.179749 
L 105.448579 55.750437 
L 90.353243 104.642527 
L 90.936638 114.561815 
L 98.083222 128.952474 
L 93.853611 139.38506 
L 88.311361 144.601516 
L 81.602323 144.135757 
L 73.580647 137.47549 
L 62.641998 150.050969 
L 57.099749 165.142381 
L 57.683144 181.119782 
L 64.392182 196.446008 
L 69.496885 211.68 
L 56.880977 211.214115 
L 41.202246 204.412292 
L 36.972635 200.685344 
L 17.064293 206.555312 
L 9.407239 204.272531 
L 6.344417 188.200475 
L 7.875828 171.290997 
L 18.595704 128.952474 
L 19.616644 112.605868 
L 19.179099 99.892585 
L 20.783433 88.996007 
L 27.565396 78.518979 
L 32.305477 74.887046 
L 49.223922 66.459306 
L 52.286743 60.965132 
L 52.870138 47.742369 
L 54.693246 42.993521 
L 65.70482 36.196309 
L 89.040605 26.978472 
L 101.073119 15.666144 
" clip-path="url(#p09380c6ba0)" style="fill: none; stroke: #000000; stroke-width: 0.5; stroke-linecap: square"/>
   </g>
  </g>
 </g>
 <defs>
  <clipPath id="p09380c6ba0">
   <rect x="0" y="-0" width="139.577165" height="221.76"/>
  </clipPath>
 </defs>
</svg>
