<?xml version="1.0" encoding="utf-8" standalone="no"?>
<!DOCTYPE svg PUBLIC "-//W3C//DTD SVG 1.1//EN"
  "http://www.w3.org/Graphics/SVG/1.1/DTD/svg11.dtd">
<svg xmlns:xlink="http://www.w3.org/1999/xlink" width="169.174706pt" height="221.76pt" viewBox="0 0 169.174706 221.76" xmlns="http://www.w3.org/2000/svg" version="1.1">
 <metadata>
  <rdf:RDF xmlns:dc="http://purl.org/dc/elements/1.1/" xmlns:cc="http://creativecommons.org/ns#" xmlns:rdf="http://www.w3.org/1999/02/22-rdf-syntax-ns#">
   <cc:Work>
    <dc:type rdf:resource="http://purl.org/dc/dcmitype/StillImage"/>
    <dc:date>2026-04-26T19:21:53.040430</dc:date>
    <dc:format>image/svg+xml</dc:format>
    <dc:creator>
     <cc:Agent>
      <dc:title>Matplotlib v3.10.9, https://matplotlib.org/</dc:title>
     </cc:Agent>
    </dc:creator>
   </cc:Work>
  </rdf:RDF>
 </metadata>
 <defs>
  <style type="text/css">*{stroke-linejoin: round; stroke-linecap: butt}</style>
 </defs>
 <g id="figure_1">
  <g id="patch_1">
   <path d="M 0 221.76 
L 169.174706 221.76 
L 169.174706 0 
L 0 0 
z
" style="fill: #ffffff"/>
  </g>
  <g id="axes_1">
   <g id="patch_2">
    <path d="M 93.810355 10.08 
L 94.243146 11.981685 
L 95.496969 14.849421 
L 95.707 15.089721 
L 95.834292 15.637407 
L 95.964766 16.618132 
L 98.265562 21.421019 
L 98.742905 22.009202 
L 99.848751 23.097593 
L 101.985659 25.983613 
L 102.408904 26.735097 
L 102.588703 27.175311 
L 102.760547 27.853054 
L 104.684242 30.40386 
L 107.007314 32.599506 
L 108.830766 34.245572 
L 109.470407 34.70227 
L 112.248547 35.892506 
L 115.831806 36.956872 
L 117.333847 37.707158 
L 118.482654 38.110342 
L 119.295729 38.278189 
L 119.744432 38.3052 
L 121.066674 38.216451 
L 121.426273 38.3052 
L 121.986356 39.125281 
L 122.193205 39.304763 
L 122.667366 39.446618 
L 123.224267 39.760267 
L 123.71434 39.831687 
L 126.263354 39.672442 
L 127.116208 39.730348 
L 127.992929 39.938819 
L 129.197426 40.507358 
L 129.531567 40.587483 
L 129.865707 40.74967 
L 130.584905 41.563625 
L 130.941321 41.882312 
L 131.622332 42.13149 
L 132.527693 42.258984 
L 133.474425 42.243529 
L 134.276362 42.059052 
L 134.70438 41.879415 
L 134.876224 41.722965 
L 135.017836 41.285525 
L 135.186497 41.2778 
L 135.558825 41.395603 
L 136.395767 41.414916 
L 136.841288 41.513411 
L 137.239074 41.735519 
L 137.410918 42.032975 
L 137.80234 42.97768 
L 137.974184 43.178635 
L 138.072835 43.224045 
L 138.158756 43.327427 
L 138.236723 43.441441 
L 138.305142 43.518741 
L 138.349694 43.503281 
L 138.457892 43.484922 
L 138.597913 43.483956 
L 138.722022 43.518741 
L 139.000472 43.781576 
L 139.153222 43.982581 
L 139.240735 44.168136 
L 139.387121 44.168136 
L 139.508048 43.843422 
L 139.554191 43.971951 
L 139.59397 44.05023 
L 139.630566 44.145907 
L 139.654433 44.328572 
L 139.788089 44.328572 
L 139.810365 44.22709 
L 139.907425 44.003842 
L 140.012441 44.108216 
L 140.074495 44.137209 
L 140.319532 44.003842 
L 140.790511 44.715199 
L 140.924167 45.105739 
L 140.854157 45.463453 
L 141.010089 45.792199 
L 141.210573 46.8773 
L 141.463565 47.337756 
L 142.60919 48.538541 
L 143.314067 48.899541 
L 143.592518 49.327374 
L 143.926658 50.350723 
L 144.116004 50.723547 
L 144.70791 51.364709 
L 145.005455 51.843242 
L 145.169343 53.250188 
L 146.413618 54.681011 
L 146.494767 54.873968 
L 146.607738 55.583837 
L 146.690478 55.749689 
L 146.781173 55.863171 
L 147.326936 56.360795 
L 148.367545 57.047698 
L 149.029461 57.610522 
L 149.513169 58.262741 
L 149.860039 59.002467 
L 150.566507 61.043879 
L 150.638109 61.387799 
L 150.789268 61.850301 
L 151.144093 62.166122 
L 151.850562 62.603462 
L 152.628632 64.012085 
L 152.738421 64.397153 
L 153.00096 64.761842 
L 153.818808 65.640176 
L 154.432991 66.005 
L 154.881693 66.453544 
L 155.330396 66.745471 
L 155.441777 66.860302 
L 155.46087 67.111388 
L 155.343126 67.171729 
L 155.177647 67.12112 
L 155.053537 67.039369 
L 155.056719 67.376119 
L 155.199923 67.528932 
L 155.435412 67.559106 
L 155.721818 67.528932 
L 157.227042 66.938156 
L 157.748937 67.179515 
L 158.538145 67.855996 
L 158.657481 67.868651 
L 158.964572 67.820952 
L 159.07277 67.855996 
L 159.126869 67.966971 
L 159.163465 68.223007 
L 159.215973 68.345677 
L 159.212791 68.413829 
L 159.190515 68.522875 
L 159.206426 68.66503 
L 159.3369 68.836403 
L 159.435551 68.90067 
L 159.559661 68.953253 
L 159.690135 68.986361 
L 159.811062 68.999994 
L 159.881072 68.881195 
L 159.75378 68.622188 
L 159.470557 68.256108 
L 159.553296 67.932899 
L 159.760145 67.927058 
L 160.151567 67.855996 
L 160.676645 68.016619 
L 161.099889 68.63582 
L 161.383113 69.439197 
L 161.484946 70.158016 
L 161.099889 74.083025 
L 160.843715 75.138389 
L 160.452293 76.080883 
L 159.3369 77.878774 
L 158.754541 78.444102 
L 158.426765 78.848383 
L 158.28038 79.271269 
L 158.227872 79.828032 
L 157.869864 80.977005 
L 157.779169 82.137109 
L 157.588232 82.615141 
L 156.813344 82.990574 
L 156.574672 83.41005 
L 156.253261 84.287299 
L 154.706668 86.690341 
L 154.114761 88.854084 
L 153.742433 89.85318 
L 151.912616 93.207093 
L 151.766231 93.980839 
L 151.702585 94.193673 
L 151.545062 94.36238 
L 148.790789 95.776102 
L 148.22275 96.169609 
L 146.034926 98.236961 
L 143.392033 101.457144 
L 142.588505 102.904103 
L 142.389612 103.122376 
L 142.122299 103.343612 
L 141.815208 103.85398 
L 141.215347 105.152345 
L 141.148518 105.374686 
L 141.099193 106.229743 
L 141.038729 106.476753 
L 140.924167 106.685395 
L 139.788089 107.759301 
L 139.869238 108.261417 
L 139.539871 108.60506 
L 138.722022 109.081684 
L 138.744298 109.126987 
L 138.59473 109.570189 
L 138.572454 109.578069 
L 138.437207 109.729755 
L 138.349694 109.856821 
L 138.305142 109.989802 
L 138.352876 110.212433 
L 138.473803 110.439018 
L 138.645647 110.630148 
L 138.842949 110.749363 
L 139.132537 110.590739 
L 139.460313 110.232135 
L 139.679891 110.087325 
L 139.654433 110.569064 
L 139.460313 110.890258 
L 139.103897 111.201626 
L 138.750663 111.319873 
L 138.572454 111.065645 
L 138.451527 111.065645 
L 138.341738 111.406591 
L 138.193762 112.061962 
L 138.037829 112.403984 
L 137.883488 112.567613 
L 137.452288 112.857431 
L 137.239074 113.079246 
L 136.990856 113.547566 
L 136.776051 114.16485 
L 136.628075 114.839441 
L 136.573976 115.478639 
L 136.077538 116.63894 
L 135.807044 117.488671 
L 135.830911 117.879551 
L 135.721122 118.06316 
L 135.616106 118.871738 
L 135.558825 119.055395 
L 135.399711 119.093905 
L 135.138763 119.201537 
L 134.874633 119.36151 
L 134.69006 119.551115 
L 134.559586 120.202957 
L 134.136341 120.467675 
L 133.585805 120.443969 
L 133.076638 120.228638 
L 132.70431 120.012331 
L 132.441771 119.910602 
L 131.802131 119.882948 
L 131.555504 119.929367 
L 131.090889 120.157522 
L 130.807665 120.228638 
L 130.868129 120.012331 
L 130.982691 119.900726 
L 130.887223 119.831591 
L 130.193483 119.603456 
L 129.805244 119.551115 
L 129.386772 119.348672 
L 129.340629 118.871738 
L 129.59203 117.879551 
L 129.588848 118.184584 
L 129.668405 118.455087 
L 129.814791 118.691052 
L 130.007319 118.889511 
L 130.082103 118.3998 
L 129.88321 117.30805 
L 130.074147 116.810647 
L 130.333504 116.329097 
L 130.533988 115.62859 
L 130.584905 114.912431 
L 130.408288 114.387728 
L 130.012093 114.232895 
L 129.442463 114.289107 
L 128.866468 114.498185 
L 128.239557 114.971612 
L 127.443984 115.215253 
L 127.195765 115.41649 
L 127.071656 115.629577 
L 126.734333 116.7692 
L 126.721604 117.041576 
L 126.848896 117.300154 
L 126.902995 117.521242 
L 126.742289 117.704834 
L 126.502026 117.83217 
L 126.0215 117.961483 
L 125.663493 118.166815 
L 125.310258 118.437316 
L 124.847235 118.948755 
L 124.678574 119.199562 
L 124.556055 119.474087 
L 124.508321 119.793074 
L 124.570376 120.023195 
L 124.847235 120.388653 
L 124.90929 120.621774 
L 124.766087 121.157215 
L 124.417626 121.464485 
L 123.563181 121.87257 
L 123.238587 122.116651 
L 122.886944 122.448706 
L 122.606902 122.847011 
L 122.493931 123.28984 
L 122.387324 123.562679 
L 122.164564 123.875085 
L 121.973627 124.294301 
L 121.959306 124.887609 
L 122.330043 125.874679 
L 122.447788 126.46526 
L 122.129559 127.350805 
L 121.827241 128.679004 
L 121.816103 129.023499 
L 121.776325 129.743274 
L 121.321257 131.032665 
L 120.995072 132.39976 
L 120.767538 133.006189 
L 119.53281 135.164122 
L 119.343463 135.802706 
L 119.424612 136.551487 
L 119.563041 136.8312 
L 119.734885 137.056373 
L 119.882862 137.298424 
L 119.944916 137.633748 
L 119.956054 138.375925 
L 119.924231 138.733172 
L 119.82558 139.048766 
L 119.682377 139.68797 
L 119.641008 140.17836 
L 119.784211 140.647959 
L 120.732533 142.488162 
L 120.88051 142.894449 
L 120.999846 143.573011 
L 120.996663 144.226842 
L 120.904377 144.844004 
L 120.57501 145.968254 
L 120.498635 146.471334 
L 120.544778 147.032152 
L 120.939382 148.281341 
L 121.128728 148.668309 
L 121.620392 149.355788 
L 121.741319 149.749822 
L 121.567885 150.770903 
L 121.548791 151.268597 
L 122.288673 152.854648 
L 122.293447 153.213161 
L 121.816103 153.789835 
L 121.531288 154.061766 
L 121.453322 154.09663 
L 120.576601 154.248044 
L 120.479541 154.375554 
L 120.392028 154.521997 
L 120.178815 154.719254 
L 119.933778 154.887628 
L 119.744432 154.959363 
L 115.672691 154.722243 
L 114.574801 154.926484 
L 109.925474 155.792377 
L 107.505342 156.61559 
L 104.206898 158.234579 
L 102.941938 159.324556 
L 102.109769 159.820275 
L 101.657883 160.237242 
L 101.463764 160.762 
L 101.301467 161.015423 
L 99.213884 163.504564 
L 98.851103 164.390186 
L 98.768364 165.551655 
L 98.895655 166.355779 
L 98.913158 166.640505 
L 98.851103 166.952226 
L 98.567879 167.419851 
L 98.462864 167.819569 
L 98.287838 168.310275 
L 98.23533 168.569142 
L 98.23533 169.590768 
L 98.058713 170.624634 
L 97.046744 173.465525 
L 97.337924 173.947859 
L 97.29019 174.464275 
L 97.014922 174.944716 
L 96.631456 175.314091 
L 95.781784 175.761587 
L 95.36013 176.058941 
L 94.76186 177.344703 
L 94.63775 177.461882 
L 94.357709 177.566043 
L 94.217688 177.666201 
L 93.309144 178.880294 
L 93.256636 179.06464 
L 93.282095 179.613718 
L 93.059334 179.667827 
L 90.001153 179.192886 
L 89.604958 179.267029 
L 89.021008 179.599689 
L 88.588216 179.697889 
L 86.923878 179.529548 
L 86.526092 179.604699 
L 85.261131 180.217981 
L 84.545116 180.435456 
L 79.540964 180.714079 
L 77.574308 181.331523 
L 77.136743 181.379639 
L 76.97922 181.42575 
L 76.878978 181.529002 
L 76.791465 181.646291 
L 76.668947 181.732506 
L 76.310939 181.745538 
L 76.282298 181.732506 
L 75.639476 181.944038 
L 75.467632 182.052315 
L 75.203502 182.455367 
L 74.92346 183.427053 
L 74.740479 183.83424 
L 74.449299 184.242467 
L 74.363377 184.436062 
L 74.064242 185.446299 
L 73.987867 185.617872 
L 73.718963 185.982108 
L 71.909831 187.803726 
L 71.359295 189.010509 
L 71.225639 189.505563 
L 71.17154 190.081017 
L 71.251097 190.743933 
L 71.457946 191.075427 
L 72.11668 191.513438 
L 72.496964 192.000723 
L 72.64494 192.516196 
L 72.651305 193.643806 
L 72.516057 194.114226 
L 71.718894 195.423212 
L 71.675933 195.649456 
L 71.642519 195.992363 
L 71.664795 196.301102 
L 71.785722 196.434861 
L 71.941654 196.519343 
L 71.948019 196.710438 
L 71.85255 197.026265 
L 71.744352 197.164069 
L 71.232003 197.474896 
L 71.050613 197.616737 
L 70.931277 197.821961 
L 70.856493 198.033231 
L 70.773753 198.461835 
L 70.585998 198.842179 
L 70.649644 198.967961 
L 70.46348 199.239661 
L 69.869983 199.461058 
L 69.570848 199.658312 
L 69.470605 199.879728 
L 69.363999 200.221938 
L 69.203293 200.532968 
L 68.964621 200.671881 
L 68.167457 201.777292 
L 67.289145 202.545593 
L 67.168218 202.545593 
L 66.977281 202.170993 
L 66.748156 202.334122 
L 66.509484 202.688594 
L 66.28195 202.883967 
L 65.974859 202.948422 
L 65.690044 203.069278 
L 65.421141 203.139778 
L 65.141099 203.052156 
L 64.835599 203.441934 
L 64.472818 203.586976 
L 63.670881 203.713892 
L 63.018511 204.022128 
L 62.693918 204.024143 
L 62.472748 203.713892 
L 62.248397 203.862971 
L 61.890389 203.798504 
L 61.66922 203.898227 
L 61.00253 203.375458 
L 60.857736 203.559781 
L 60.698621 203.085392 
L 60.611108 202.650326 
L 60.39153 202.332108 
L 59.591184 202.154882 
L 59.027919 201.922283 
L 58.787656 201.868918 
L 58.558531 201.89711 
L 58.155971 202.011898 
L 57.920482 202.038077 
L 57.229925 201.870931 
L 56.97375 201.868918 
L 56.763719 201.940407 
L 56.354795 202.160924 
L 56.238641 202.207243 
L 55.317368 201.885028 
L 54.836842 201.844752 
L 54.435874 202.207243 
L 54.252892 202.088424 
L 54.061954 202.037071 
L 50.419823 202.545593 
L 48.87323 202.545593 
L 48.532724 202.654354 
L 47.670324 203.184093 
L 47.460293 203.375458 
L 47.3871 203.597049 
L 47.393464 203.788431 
L 47.434834 203.967732 
L 47.460293 204.158121 
L 47.396647 204.369674 
L 47.121379 204.668886 
L 47.059324 204.82001 
L 46.842928 205.079955 
L 46.349673 205.200864 
L 45.45545 205.26535 
L 44.285958 205.565626 
L 43.902492 205.60291 
L 43.549257 205.748017 
L 43.145107 206.032199 
L 42.740956 206.22267 
L 42.38613 206.095688 
L 42.023349 206.382914 
L 41.528503 206.88182 
L 41.092529 207.436221 
L 40.906365 207.89491 
L 40.745659 208.168128 
L 40.379696 208.438337 
L 39.692321 208.817461 
L 39.052681 209.014093 
L 35.930854 209.09174 
L 34.280836 209.389229 
L 31.087408 210.635855 
L 29.426252 211.68 
L 28.20547 208.331815 
L 26.980892 204.976862 
L 25.758336 201.626818 
L 24.5378 198.276585 
L 23.780017 196.20705 
L 23.5739 195.866048 
L 23.238455 195.720459 
L 22.5029 195.669377 
L 22.213932 195.447173 
L 22.244244 195.434403 
L 22.347302 195.417802 
L 22.383676 195.405033 
L 21.763304 193.63674 
L 20.926712 191.252847 
L 20.090119 188.868911 
L 19.256558 186.487491 
L 18.419966 184.107317 
L 17.581353 181.728395 
L 16.74476 179.352006 
L 15.909178 176.973065 
L 15.071576 174.598578 
L 14.233973 172.225369 
L 13.400412 169.851541 
L 12.561798 167.479641 
L 11.725206 165.11031 
L 10.890635 162.740382 
L 10.054042 160.373034 
L 9.21745 158.005739 
L 8.380857 155.641037 
L 7.828066 154.084446 
L 7.689759 153.695082 
L 9.866112 152.789472 
L 13.212481 151.393498 
L 16.55683 149.997993 
L 19.900169 148.602959 
L 23.248559 147.209661 
L 26.594928 145.814941 
L 29.939277 144.421328 
L 33.287667 143.028822 
L 36.632016 141.636162 
L 39.978385 140.245242 
L 43.322734 138.852911 
L 46.669104 137.461693 
L 50.017494 136.071587 
L 53.363863 134.681335 
L 56.706191 133.292828 
L 60.052561 131.904807 
L 63.39893 130.515387 
L 66.341149 129.294939 
L 66.969604 126.945656 
L 67.098932 126.465666 
L 67.462668 125.108946 
L 68.024437 123.001946 
L 68.755951 120.268201 
L 69.622854 117.03753 
L 70.586754 113.435805 
L 71.61936 109.588578 
L 72.686318 105.6191 
L 73.501938 102.58756 
L 73.753277 101.653875 
L 74.783861 97.817623 
L 75.749782 94.234545 
L 76.614665 91.027132 
L 77.346178 88.318763 
L 77.909969 86.231357 
L 78.271684 84.889305 
L 78.401012 84.413497 
L 78.498407 84.051944 
L 79.229521 81.339069 
L 79.219417 80.788044 
L 79.017342 80.263161 
L 77.978674 78.290908 
L 76.398444 75.296225 
L 74.820235 72.302908 
L 73.237984 69.312212 
L 71.659775 66.324151 
L 70.417011 63.97957 
L 70.627169 60.495381 
L 70.503903 57.014228 
L 70.503903 57.011763 
L 70.572609 56.305748 
L 71.180856 54.013783 
L 73.041971 50.350719 
L 73.474412 48.895007 
L 73.882605 46.523504 
L 74.100846 45.731345 
L 74.466603 45.117403 
L 74.470644 45.114947 
L 75.200137 44.220644 
L 75.470918 43.761621 
L 76.115539 40.815749 
L 76.293365 40.414836 
L 77.206746 38.908494 
L 77.289597 38.593589 
L 77.226954 36.796046 
L 77.13804 36.114045 
L 76.824823 35.594379 
L 76.115539 35.121307 
L 75.788176 34.79026 
L 75.616412 34.363806 
L 75.695222 34.018158 
L 76.535855 33.841984 
L 77.366386 33.490889 
L 77.746287 33.25909 
L 78.320182 32.909283 
L 78.853661 32.669579 
L 79.411389 32.554013 
L 80.060051 32.571745 
L 80.696589 32.69098 
L 80.997681 32.682419 
L 81.318981 32.547899 
L 81.670593 32.480029 
L 82.179823 32.919679 
L 82.543559 32.969212 
L 84.820949 31.935903 
L 86.057651 31.599082 
L 86.273872 31.223181 
L 85.548421 29.776847 
L 85.318055 28.774526 
L 85.008879 27.92638 
L 84.42286 27.654095 
L 83.327611 28.146179 
L 82.998228 28.12603 
L 81.773651 27.828086 
L 81.539244 27.69927 
L 81.508932 27.341546 
L 81.66453 26.928322 
L 82.424334 25.433369 
L 82.549621 25.090548 
L 82.618327 23.947072 
L 82.57387 23.748913 
L 82.426355 23.540403 
L 82.034329 23.247781 
L 81.909042 23.081974 
L 81.846398 22.72357 
L 81.890855 21.446338 
L 81.646344 20.451615 
L 81.620074 19.954681 
L 81.818108 19.627699 
L 82.09293 19.299534 
L 82.214176 18.509407 
L 82.7618 17.95559 
L 82.697136 17.499832 
L 82.40509 16.781115 
L 82.303089 16.530132 
L 82.262674 16.0977 
L 82.347545 15.220865 
L 82.347545 14.778288 
L 82.183864 12.970971 
L 82.387961 12.244465 
L 82.980042 11.420374 
L 83.536062 10.863861 
L 83.620621 10.779236 
L 84.301615 10.305758 
L 85.053336 10.091503 
L 85.84412 10.223393 
L 85.89397 10.231708 
L 86.425428 10.597727 
L 86.647711 11.292257 
L 86.809585 12.327738 
L 86.888181 12.830637 
L 86.419366 12.458875 
L 86.166772 12.31735 
L 85.89397 12.244465 
L 85.550441 12.358653 
L 85.487798 12.65447 
L 85.62723 13.002563 
L 86.356722 13.728039 
L 86.932637 15.347935 
L 87.530781 15.874514 
L 87.807074 15.916903 
L 87.839956 15.921948 
L 88.254211 15.904312 
L 88.628051 15.788772 
L 88.803856 15.54676 
L 88.923081 15.143652 
L 89.343398 14.581946 
L 89.662677 13.704948 
L 89.666405 13.703089 
L 89.957707 13.557895 
L 90.68922 13.458243 
L 91.040831 13.271102 
L 91.686449 12.577235 
L 91.796594 12.458875 
L 92.344218 12.031285 
L 92.447277 11.798687 
L 92.460607 11.636705 
L 92.495324 11.214871 
L 92.558418 10.4484 
L 92.659514 10.32144 
L 92.748369 10.209857 
z
" clip-path="url(#pf3469b1db0)" style="stroke: #000000; stroke-linejoin: miter"/>
   </g>
   <g id="line2d_1">
    <path d="M 93.810355 10.08 
L 94.243146 11.981685 
L 95.834292 15.637407 
L 95.964766 16.618132 
L 98.265562 21.421019 
L 98.742905 22.009202 
L 99.848751 23.097593 
L 102.408904 26.735097 
L 102.760547 27.853054 
L 104.684242 30.40386 
L 108.830766 34.245572 
L 109.470407 34.70227 
L 112.248547 35.892506 
L 115.831806 36.956872 
L 117.333847 37.707158 
L 119.295729 38.278189 
L 119.744432 38.3052 
L 121.066674 38.216451 
L 121.426273 38.3052 
L 122.193205 39.304763 
L 122.667366 39.446618 
L 123.224267 39.760267 
L 123.71434 39.831687 
L 127.116208 39.730348 
L 127.992929 39.938819 
L 129.865707 40.74967 
L 130.941321 41.882312 
L 131.622332 42.13149 
L 132.527693 42.258984 
L 133.474425 42.243529 
L 134.70438 41.879415 
L 134.876224 41.722965 
L 135.017836 41.285525 
L 135.186497 41.2778 
L 135.558825 41.395603 
L 136.841288 41.513411 
L 137.239074 41.735519 
L 137.410918 42.032975 
L 137.974184 43.178635 
L 138.158756 43.327427 
L 138.349694 43.503281 
L 138.722022 43.518741 
L 139.153222 43.982581 
L 139.240735 44.168136 
L 139.387121 44.168136 
L 139.508048 43.843422 
L 139.554191 43.971951 
L 139.788089 44.328572 
L 139.907425 44.003842 
L 140.074495 44.137209 
L 140.319532 44.003842 
L 140.924167 45.105739 
L 140.854157 45.463453 
L 141.010089 45.792199 
L 141.210573 46.8773 
L 141.463565 47.337756 
L 142.60919 48.538541 
L 143.314067 48.899541 
L 143.592518 49.327374 
L 144.116004 50.723547 
L 145.005455 51.843242 
L 145.169343 53.250188 
L 146.494767 54.873968 
L 146.690478 55.749689 
L 146.781173 55.863171 
L 147.326936 56.360795 
L 149.029461 57.610522 
L 149.513169 58.262741 
L 149.860039 59.002467 
L 150.789268 61.850301 
L 151.144093 62.166122 
L 151.850562 62.603462 
L 153.00096 64.761842 
L 153.818808 65.640176 
L 154.432991 66.005 
L 155.46087 67.111388 
L 155.343126 67.171729 
L 155.053537 67.039369 
L 155.056719 67.376119 
L 155.199923 67.528932 
L 155.721818 67.528932 
L 157.227042 66.938156 
L 157.748937 67.179515 
L 158.657481 67.868651 
L 159.07277 67.855996 
L 159.215973 68.345677 
L 159.206426 68.66503 
L 159.559661 68.953253 
L 159.811062 68.999994 
L 159.881072 68.881195 
L 159.470557 68.256108 
L 159.553296 67.932899 
L 160.151567 67.855996 
L 160.676645 68.016619 
L 161.099889 68.63582 
L 161.383113 69.439197 
L 161.484946 70.158016 
L 161.099889 74.083025 
L 160.843715 75.138389 
L 160.452293 76.080883 
L 159.3369 77.878774 
L 158.426765 78.848383 
L 158.28038 79.271269 
L 158.227872 79.828032 
L 157.869864 80.977005 
L 157.779169 82.137109 
L 157.588232 82.615141 
L 156.813344 82.990574 
L 156.574672 83.41005 
L 156.253261 84.287299 
L 154.706668 86.690341 
L 153.742433 89.85318 
L 151.912616 93.207093 
L 151.702585 94.193673 
L 151.545062 94.36238 
L 148.22275 96.169609 
L 146.034926 98.236961 
L 143.392033 101.457144 
L 142.389612 103.122376 
L 142.122299 103.343612 
L 141.815208 103.85398 
L 141.148518 105.374686 
L 141.038729 106.476753 
L 140.924167 106.685395 
L 139.788089 107.759301 
L 139.869238 108.261417 
L 139.539871 108.60506 
L 138.744298 109.126987 
L 138.437207 109.729755 
L 138.305142 109.989802 
L 138.473803 110.439018 
L 138.842949 110.749363 
L 139.132537 110.590739 
L 139.679891 110.087325 
L 139.654433 110.569064 
L 139.460313 110.890258 
L 139.103897 111.201626 
L 138.750663 111.319873 
L 138.451527 111.065645 
L 137.883488 112.567613 
L 137.239074 113.079246 
L 136.776051 114.16485 
L 136.573976 115.478639 
L 135.807044 117.488671 
L 135.830911 117.879551 
L 135.721122 118.06316 
L 135.558825 119.055395 
L 135.138763 119.201537 
L 134.69006 119.551115 
L 134.559586 120.202957 
L 134.136341 120.467675 
L 133.585805 120.443969 
L 132.441771 119.910602 
L 131.555504 119.929367 
L 130.807665 120.228638 
L 130.887223 119.831591 
L 129.386772 119.348672 
L 129.340629 118.871738 
L 129.59203 117.879551 
L 129.588848 118.184584 
L 129.814791 118.691052 
L 130.007319 118.889511 
L 130.082103 118.3998 
L 129.88321 117.30805 
L 130.533988 115.62859 
L 130.584905 114.912431 
L 130.408288 114.387728 
L 130.012093 114.232895 
L 129.442463 114.289107 
L 128.866468 114.498185 
L 128.239557 114.971612 
L 127.443984 115.215253 
L 127.071656 115.629577 
L 126.721604 117.041576 
L 126.902995 117.521242 
L 126.502026 117.83217 
L 125.663493 118.166815 
L 125.310258 118.437316 
L 124.678574 119.199562 
L 124.508321 119.793074 
L 124.570376 120.023195 
L 124.90929 120.621774 
L 124.766087 121.157215 
L 124.417626 121.464485 
L 123.238587 122.116651 
L 122.606902 122.847011 
L 122.387324 123.562679 
L 121.973627 124.294301 
L 121.959306 124.887609 
L 122.447788 126.46526 
L 122.129559 127.350805 
L 121.816103 129.023499 
L 121.776325 129.743274 
L 121.321257 131.032665 
L 120.767538 133.006189 
L 119.53281 135.164122 
L 119.343463 135.802706 
L 119.563041 136.8312 
L 119.882862 137.298424 
L 119.944916 137.633748 
L 119.924231 138.733172 
L 119.682377 139.68797 
L 119.641008 140.17836 
L 119.784211 140.647959 
L 120.88051 142.894449 
L 120.999846 143.573011 
L 120.904377 144.844004 
L 120.498635 146.471334 
L 120.544778 147.032152 
L 121.128728 148.668309 
L 121.620392 149.355788 
L 121.741319 149.749822 
L 121.548791 151.268597 
L 122.288673 152.854648 
L 122.293447 153.213161 
L 121.453322 154.09663 
L 120.479541 154.375554 
L 120.178815 154.719254 
L 119.744432 154.959363 
L 115.672691 154.722243 
L 109.925474 155.792377 
L 107.505342 156.61559 
L 104.206898 158.234579 
L 102.941938 159.324556 
L 102.109769 159.820275 
L 101.657883 160.237242 
L 101.301467 161.015423 
L 99.213884 163.504564 
L 98.851103 164.390186 
L 98.768364 165.551655 
L 98.913158 166.640505 
L 98.851103 166.952226 
L 98.567879 167.419851 
L 98.23533 168.569142 
L 98.23533 169.590768 
L 98.058713 170.624634 
L 97.046744 173.465525 
L 97.337924 173.947859 
L 97.29019 174.464275 
L 97.014922 174.944716 
L 96.631456 175.314091 
L 95.36013 176.058941 
L 94.63775 177.461882 
L 94.217688 177.666201 
L 93.256636 179.06464 
L 93.282095 179.613718 
L 93.059334 179.667827 
L 90.001153 179.192886 
L 89.604958 179.267029 
L 89.021008 179.599689 
L 88.588216 179.697889 
L 86.923878 179.529548 
L 86.526092 179.604699 
L 85.261131 180.217981 
L 84.545116 180.435456 
L 79.540964 180.714079 
L 76.791465 181.646291 
L 76.668947 181.732506 
L 76.282298 181.732506 
L 75.467632 182.052315 
L 75.203502 182.455367 
L 74.740479 183.83424 
L 74.363377 184.436062 
L 73.987867 185.617872 
L 73.718963 185.982108 
L 71.909831 187.803726 
L 71.225639 189.505563 
L 71.17154 190.081017 
L 71.251097 190.743933 
L 71.457946 191.075427 
L 72.11668 191.513438 
L 72.496964 192.000723 
L 72.64494 192.516196 
L 72.651305 193.643806 
L 72.516057 194.114226 
L 71.675933 195.649456 
L 71.664795 196.301102 
L 71.948019 196.710438 
L 71.744352 197.164069 
L 71.050613 197.616737 
L 70.856493 198.033231 
L 70.773753 198.461835 
L 70.585998 198.842179 
L 70.649644 198.967961 
L 70.46348 199.239661 
L 69.570848 199.658312 
L 69.203293 200.532968 
L 68.964621 200.671881 
L 68.167457 201.777292 
L 67.168218 202.545593 
L 66.977281 202.170993 
L 66.748156 202.334122 
L 66.28195 202.883967 
L 65.141099 203.052156 
L 64.835599 203.441934 
L 64.472818 203.586976 
L 63.670881 203.713892 
L 63.018511 204.022128 
L 62.693918 204.024143 
L 62.472748 203.713892 
L 62.248397 203.862971 
L 61.890389 203.798504 
L 61.66922 203.898227 
L 61.00253 203.375458 
L 60.857736 203.559781 
L 60.39153 202.332108 
L 58.558531 201.89711 
L 57.920482 202.038077 
L 56.97375 201.868918 
L 56.238641 202.207243 
L 55.317368 201.885028 
L 54.836842 201.844752 
L 54.435874 202.207243 
L 54.061954 202.037071 
L 50.419823 202.545593 
L 48.532724 202.654354 
L 47.460293 203.375458 
L 47.393464 203.788431 
L 47.460293 204.158121 
L 47.396647 204.369674 
L 46.842928 205.079955 
L 46.349673 205.200864 
L 45.45545 205.26535 
L 43.549257 205.748017 
L 42.740956 206.22267 
L 42.38613 206.095688 
L 41.528503 206.88182 
L 41.092529 207.436221 
L 40.745659 208.168128 
L 39.692321 208.817461 
L 39.052681 209.014093 
L 35.930854 209.09174 
L 34.280836 209.389229 
L 31.087408 210.635855 
L 29.426252 211.68 
L 23.5739 195.866048 
L 23.238455 195.720459 
L 22.5029 195.669377 
L 22.213932 195.447173 
L 22.347302 195.417802 
L 22.383676 195.405033 
L 7.689759 153.695082 
L 66.341149 129.294939 
L 79.219417 80.788044 
L 79.017342 80.263161 
L 70.417011 63.97957 
L 70.627169 60.495381 
L 70.572609 56.305748 
L 71.180856 54.013783 
L 73.041971 50.350719 
L 73.474412 48.895007 
L 74.100846 45.731345 
L 74.470644 45.114947 
L 75.470918 43.761621 
L 76.293365 40.414836 
L 77.289597 38.593589 
L 77.13804 36.114045 
L 76.824823 35.594379 
L 75.788176 34.79026 
L 75.616412 34.363806 
L 75.695222 34.018158 
L 76.535855 33.841984 
L 77.746287 33.25909 
L 78.853661 32.669579 
L 79.411389 32.554013 
L 81.318981 32.547899 
L 81.670593 32.480029 
L 82.179823 32.919679 
L 82.543559 32.969212 
L 84.820949 31.935903 
L 86.057651 31.599082 
L 86.273872 31.223181 
L 85.548421 29.776847 
L 85.318055 28.774526 
L 85.008879 27.92638 
L 84.42286 27.654095 
L 83.327611 28.146179 
L 82.998228 28.12603 
L 81.539244 27.69927 
L 81.508932 27.341546 
L 81.66453 26.928322 
L 82.549621 25.090548 
L 82.57387 23.748913 
L 82.426355 23.540403 
L 81.909042 23.081974 
L 81.846398 22.72357 
L 81.890855 21.446338 
L 81.620074 19.954681 
L 82.09293 19.299534 
L 82.214176 18.509407 
L 82.7618 17.95559 
L 82.697136 17.499832 
L 82.303089 16.530132 
L 82.262674 16.0977 
L 82.347545 14.778288 
L 82.183864 12.970971 
L 82.387961 12.244465 
L 82.980042 11.420374 
L 83.620621 10.779236 
L 84.301615 10.305758 
L 85.053336 10.091503 
L 85.89397 10.231708 
L 86.425428 10.597727 
L 86.647711 11.292257 
L 86.888181 12.830637 
L 86.166772 12.31735 
L 85.89397 12.244465 
L 85.550441 12.358653 
L 85.487798 12.65447 
L 85.62723 13.002563 
L 86.356722 13.728039 
L 86.932637 15.347935 
L 87.530781 15.874514 
L 88.254211 15.904312 
L 88.628051 15.788772 
L 88.803856 15.54676 
L 88.923081 15.143652 
L 89.343398 14.581946 
L 89.666405 13.703089 
L 89.957707 13.557895 
L 90.68922 13.458243 
L 91.040831 13.271102 
L 92.460607 11.636705 
L 92.659514 10.32144 
L 92.748369 10.209857 
L 93.810355 10.08 
L 93.810355 10.08 
" clip-path="url(#pf3469b1db0)" style="fill: none; stroke: #000000; stroke-width: 0.5; stroke-linecap: square"/>
   </g>
  </g>
 </g>
 <defs>
  <clipPath id="pf3469b1db0">
   <rect x="0" y="-0" width="169.174706" height="221.76"/>
  </clipPath>
 </defs>
</svg>
