<?xml version="1.0" encoding="utf-8" standalone="no"?>
<!DOCTYPE svg PUBLIC "-//W3C//DTD SVG 1.1//EN"
  "http://www.w3.org/Graphics/SVG/1.1/DTD/svg11.dtd">
<svg xmlns:xlink="http://www.w3.org/1999/xlink" width="223.2pt" height="112.572988pt" viewBox="0 0 223.2 112.572988" xmlns="http://www.w3.org/2000/svg" version="1.1">
 <metadata>
  <rdf:RDF xmlns:dc="http://purl.org/dc/elements/1.1/" xmlns:cc="http://creativecommons.org/ns#" xmlns:rdf="http://www.w3.org/1999/02/22-rdf-syntax-ns#">
   <cc:Work>
    <dc:type rdf:resource="http://purl.org/dc/dcmitype/StillImage"/>
    <dc:date>2026-04-26T19:22:31.155843</dc:date>
    <dc:format>image/svg+xml</dc:format>
    <dc:creator>
     <cc:Agent>
      <dc:title>Matplotlib v3.10.9, https://matplotlib.org/</dc:title>
     </cc:Agent>
    </dc:creator>
   </cc:Work>
  </rdf:RDF>
 </metadata>
 <defs>
  <style type="text/css">*{stroke-linejoin: round; stroke-linecap: butt}</style>
 </defs>
 <g id="figure_1">
  <g id="patch_1">
   <path d="M 0 112.572988 
L 223.2 112.572988 
L 223.2 0 
L 0 0 
z
" style="fill: #ffffff"/>
  </g>
  <g id="axes_1">
   <g id="patch_2">
    <path d="M 43.803355 7.141955 
L 46.138802 6.888652 
L 51.4966 9.297012 
L 53.832047 12.091248 
L 55.068448 19.103069 
L 67.982085 21.662066 
L 78.972443 17.953109 
L 85.841403 17.570011 
L 93.809385 18.847436 
L 94.633669 20.381951 
L 108.371591 17.059387 
L 111.668703 18.208569 
L 119.087161 17.570011 
L 125.269244 15.273785 
L 136.259576 13.236063 
L 146.288243 12.727122 
L 149.722736 11.201514 
L 201.652071 11.328582 
L 205.086564 15.273785 
L 210.99386 16.931786 
L 213.054545 20.126071 
L 207.834153 27.052034 
L 206.322965 31.173191 
L 203.43802 34.01376 
L 203.850138 36.212785 
L 201.239954 39.712576 
L 198.629745 40.491521 
L 193.546709 48.957954 
L 195.332633 52.227849 
L 200.140908 52.620747 
L 202.201594 54.586839 
L 198.904507 62.478205 
L 198.904507 107.184414 
L 157.003839 107.456034 
L 124.307579 107.320218 
L 98.342898 107.320218 
L 64.684998 106.912839 
L 43.253832 107.04862 
L 18.662959 107.184414 
L 15.091085 104.335204 
L 13.16778 96.357563 
L 13.579922 90.837598 
L 10.145455 86.542948 
L 12.618282 82.527604 
L 14.404207 75.991951 
L 18.113436 69.087158 
L 19.76198 63.005807 
L 22.509569 42.700881 
L 22.097427 39.972176 
L 24.570255 31.173191 
L 25.53192 19.103069 
L 24.158112 12.472749 
L 25.394539 8.535985 
L 35.423231 5.116954 
L 39.819364 7.775428 
z
" clip-path="url(#pa3252a9442)" style="stroke: #000000; stroke-linejoin: miter"/>
   </g>
   <g id="line2d_1">
    <path d="M 43.803355 7.141955 
L 46.138802 6.888652 
L 51.4966 9.297012 
L 53.832047 12.091248 
L 55.068448 19.103069 
L 67.982085 21.662066 
L 78.972443 17.953109 
L 85.841403 17.570011 
L 93.809385 18.847436 
L 94.633669 20.381951 
L 108.371591 17.059387 
L 111.668703 18.208569 
L 119.087161 17.570011 
L 125.269244 15.273785 
L 136.259576 13.236063 
L 146.288243 12.727122 
L 149.722736 11.201514 
L 201.652071 11.328582 
L 205.086564 15.273785 
L 210.99386 16.931786 
L 213.054545 20.126071 
L 207.834153 27.052034 
L 206.322965 31.173191 
L 203.43802 34.01376 
L 203.850138 36.212785 
L 201.239954 39.712576 
L 198.629745 40.491521 
L 193.546709 48.957954 
L 195.332633 52.227849 
L 200.140908 52.620747 
L 202.201594 54.586839 
L 198.904507 62.478205 
L 198.904507 107.184414 
L 157.003839 107.456034 
L 124.307579 107.320218 
L 98.342898 107.320218 
L 64.684998 106.912839 
L 43.253832 107.04862 
L 18.662959 107.184414 
L 15.091085 104.335204 
L 13.16778 96.357563 
L 13.579922 90.837598 
L 10.145455 86.542948 
L 12.618282 82.527604 
L 14.404207 75.991951 
L 18.113436 69.087158 
L 19.76198 63.005807 
L 22.509569 42.700881 
L 22.097427 39.972176 
L 24.570255 31.173191 
L 25.53192 19.103069 
L 24.158112 12.472749 
L 25.394539 8.535985 
L 35.423231 5.116954 
L 39.819364 7.775428 
L 43.803355 7.141955 
" clip-path="url(#pa3252a9442)" style="fill: none; stroke: #000000; stroke-width: 0.5; stroke-linecap: square"/>
   </g>
  </g>
 </g>
 <defs>
  <clipPath id="pa3252a9442">
   <rect x="0" y="-0" width="223.2" height="112.572988"/>
  </clipPath>
 </defs>
</svg>
