<?xml version="1.0" encoding="utf-8" standalone="no"?>
<!DOCTYPE svg PUBLIC "-//W3C//DTD SVG 1.1//EN"
  "http://www.w3.org/Graphics/SVG/1.1/DTD/svg11.dtd">
<svg xmlns:xlink="http://www.w3.org/1999/xlink" width="80.653895pt" height="221.76pt" viewBox="0 0 80.653895 221.76" xmlns="http://www.w3.org/2000/svg" version="1.1">
 <metadata>
  <rdf:RDF xmlns:dc="http://purl.org/dc/elements/1.1/" xmlns:cc="http://creativecommons.org/ns#" xmlns:rdf="http://www.w3.org/1999/02/22-rdf-syntax-ns#">
   <cc:Work>
    <dc:type rdf:resource="http://purl.org/dc/dcmitype/StillImage"/>
    <dc:date>2026-04-26T19:22:24.731490</dc:date>
    <dc:format>image/svg+xml</dc:format>
    <dc:creator>
     <cc:Agent>
      <dc:title>Matplotlib v3.10.9, https://matplotlib.org/</dc:title>
     </cc:Agent>
    </dc:creator>
   </cc:Work>
  </rdf:RDF>
 </metadata>
 <defs>
  <style type="text/css">*{stroke-linejoin: round; stroke-linecap: butt}</style>
 </defs>
 <g id="figure_1">
  <g id="patch_1">
   <path d="M 0 221.76 
L 80.653895 221.76 
L 80.653895 0 
L 0 0 
z
" style="fill: #ffffff"/>
  </g>
  <g id="axes_1">
   <g id="patch_2">
    <path d="M 70.836325 17.881491 
L 75.697982 35.674208 
L 76.987809 60.946109 
L 74.904242 86.264098 
L 69.678787 104.170417 
L 61.708316 118.522467 
L 61.344518 122.034733 
L 65.87545 129.731545 
L 65.87545 133.092203 
L 63.990318 135.477216 
L 60.550778 149.26739 
L 51.092045 165.378616 
L 48.90926 176.80675 
L 51.68735 196.801867 
L 49.703 204.089001 
L 47.85094 205.715624 
L 45.833518 204.804714 
L 41.071079 204.284196 
L 37.267742 201.226172 
L 34.72116 200.770725 
L 32.836027 202.700959 
L 28.569675 210.161781 
L 26.386891 211.68 
L 21.988249 210.682312 
L 20.268479 208.83877 
L 19.673174 205.650559 
L 16.068272 192.442703 
L 12.99253 175.267065 
L 10.313658 167.698895 
L 7.039481 164.316066 
L 4.724406 164.532912 
L 3.666086 163.665527 
L 4.261391 156.769926 
L 5.551218 150.806908 
L 7.899366 145.364429 
L 11.14047 140.984517 
L 15.307604 138.252533 
L 16.895084 145.1476 
L 20.533059 146.058284 
L 24.369469 142.242107 
L 26.386891 134.935165 
L 25.295498 130.533763 
L 22.120539 126.197485 
L 15.307604 120.040106 
L 18.449492 116.202666 
L 23.906454 106.16491 
L 28.801183 101.829078 
L 29.462633 102.175942 
L 29.793358 99.227617 
L 29.760285 91.943679 
L 29.462633 91.293338 
L 33.762057 80.888132 
L 38.689859 74.190024 
L 45.602011 70.548415 
L 55.788339 69.486289 
L 65.478581 65.866428 
L 67.892873 57.001258 
L 64.651768 29.19412 
L 60.881504 18.661654 
L 59.955474 12.420419 
L 61.542954 10.08 
L 65.180928 11.098513 
L 68.851975 14.132408 
z
" clip-path="url(#pbcf8bb2b27)" style="stroke: #000000; stroke-linejoin: miter"/>
   </g>
   <g id="line2d_1">
    <path d="M 70.836325 17.881491 
L 75.697982 35.674208 
L 76.987809 60.946109 
L 74.904242 86.264098 
L 69.678787 104.170417 
L 61.708316 118.522467 
L 61.344518 122.034733 
L 65.87545 129.731545 
L 65.87545 133.092203 
L 63.990318 135.477216 
L 60.550778 149.26739 
L 51.092045 165.378616 
L 48.90926 176.80675 
L 51.68735 196.801867 
L 49.703 204.089001 
L 47.85094 205.715624 
L 45.833518 204.804714 
L 41.071079 204.284196 
L 37.267742 201.226172 
L 34.72116 200.770725 
L 32.836027 202.700959 
L 28.569675 210.161781 
L 26.386891 211.68 
L 21.988249 210.682312 
L 20.268479 208.83877 
L 19.673174 205.650559 
L 16.068272 192.442703 
L 12.99253 175.267065 
L 10.313658 167.698895 
L 7.039481 164.316066 
L 4.724406 164.532912 
L 3.666086 163.665527 
L 4.261391 156.769926 
L 5.551218 150.806908 
L 7.899366 145.364429 
L 11.14047 140.984517 
L 15.307604 138.252533 
L 16.895084 145.1476 
L 20.533059 146.058284 
L 24.369469 142.242107 
L 26.386891 134.935165 
L 25.295498 130.533763 
L 22.120539 126.197485 
L 15.307604 120.040106 
L 18.449492 116.202666 
L 23.906454 106.16491 
L 28.801183 101.829078 
L 29.462633 102.175942 
L 29.793358 99.227617 
L 29.760285 91.943679 
L 29.462633 91.293338 
L 33.762057 80.888132 
L 38.689859 74.190024 
L 45.602011 70.548415 
L 55.788339 69.486289 
L 65.478581 65.866428 
L 67.892873 57.001258 
L 64.651768 29.19412 
L 60.881504 18.661654 
L 59.955474 12.420419 
L 61.542954 10.08 
L 65.180928 11.098513 
L 68.851975 14.132408 
L 70.836325 17.881491 
" clip-path="url(#pbcf8bb2b27)" style="fill: none; stroke: #000000; stroke-width: 0.5; stroke-linecap: square"/>
   </g>
  </g>
 </g>
 <defs>
  <clipPath id="pbcf8bb2b27">
   <rect x="0" y="-0" width="80.653895" height="221.76"/>
  </clipPath>
 </defs>
</svg>
