<?xml version="1.0" encoding="utf-8" standalone="no"?>
<!DOCTYPE svg PUBLIC "-//W3C//DTD SVG 1.1//EN"
  "http://www.w3.org/Graphics/SVG/1.1/DTD/svg11.dtd">
<svg xmlns:xlink="http://www.w3.org/1999/xlink" width="115.970433pt" height="221.76pt" viewBox="0 0 115.970433 221.76" xmlns="http://www.w3.org/2000/svg" version="1.1">
 <metadata>
  <rdf:RDF xmlns:dc="http://purl.org/dc/elements/1.1/" xmlns:cc="http://creativecommons.org/ns#" xmlns:rdf="http://www.w3.org/1999/02/22-rdf-syntax-ns#">
   <cc:Work>
    <dc:type rdf:resource="http://purl.org/dc/dcmitype/StillImage"/>
    <dc:date>2026-04-26T19:21:48.884246</dc:date>
    <dc:format>image/svg+xml</dc:format>
    <dc:creator>
     <cc:Agent>
      <dc:title>Matplotlib v3.10.9, https://matplotlib.org/</dc:title>
     </cc:Agent>
    </dc:creator>
   </cc:Work>
  </rdf:RDF>
 </metadata>
 <defs>
  <style type="text/css">*{stroke-linejoin: round; stroke-linecap: butt}</style>
 </defs>
 <g id="figure_1">
  <g id="patch_1">
   <path d="M 0 221.76 
L 115.970433 221.76 
L 115.970433 0 
L 0 0 
z
" style="fill: #ffffff"/>
  </g>
  <g id="axes_1">
   <g id="patch_2">
    <path d="M 23.138365 106.610752 
L 24.803548 104.667027 
L 24.951564 102.123246 
L 24.644852 99.229391 
L 26.209702 97.603021 
L 22.767956 86.034267 
L 23.175369 80.252843 
L 21.695206 75.886156 
L 19.54897 71.944171 
L 18.882897 69.762865 
L 19.3593 67.224332 
L 25.167476 62.116049 
L 26.264233 60.039392 
L 26.78944 57.906663 
L 26.526837 56.138281 
L 25.491869 54.881465 
L 23.622749 54.322431 
L 24.086167 52.125494 
L 24.611374 46.848918 
L 25.229265 44.722334 
L 25.800814 44.332564 
L 27.793513 43.635334 
L 28.349615 43.236931 
L 29.430925 39.790305 
L 30.018827 36.934863 
L 31.809805 28.239331 
L 34.744788 23.381768 
L 38.683844 20.687629 
L 43.163554 18.664092 
L 47.797737 15.888648 
L 51.551425 11.743711 
L 53.636808 10.23556 
L 56.309187 10.08 
L 56.567536 10.209193 
L 58.564489 11.207846 
L 62.827938 14.544338 
L 65.546658 15.460704 
L 74.95405 15.024126 
L 79.402866 15.52122 
L 83.851682 18.136632 
L 85.180147 22.071397 
L 85.118358 27.252988 
L 85.937064 31.475674 
L 89.814331 32.570473 
L 93.382652 32.678659 
L 96.889184 33.548501 
L 108.968954 36.51326 
L 109.416925 37.798886 
L 109.664082 39.322731 
L 108.737245 39.322731 
L 108.737245 38.171176 
L 107.625041 38.171176 
L 107.625041 39.322731 
L 108.428299 40.95497 
L 108.304721 45.982657 
L 109.664082 48.473288 
L 108.999849 50.42709 
L 108.953507 53.624751 
L 109.509609 56.818737 
L 110.699049 58.777925 
L 109.95758 59.181063 
L 109.386031 59.631896 
L 108.984401 60.247478 
L 108.737245 61.179568 
L 110.699049 61.179568 
L 108.75996 69.105237 
L 108.103907 71.787646 
L 108.737245 73.779092 
L 108.737245 75.028757 
L 107.51691 75.62759 
L 106.83723 76.382673 
L 106.83723 77.294029 
L 107.625041 78.370365 
L 105.122582 82.468066 
L 105.029898 84.413113 
L 106.605521 86.497361 
L 104.087615 88.468967 
L 103.268909 91.370372 
L 103.54696 99.130356 
L 105.168924 103.076992 
L 105.493317 104.868083 
L 105.586 107.163759 
L 105.833157 108.563938 
L 106.713652 110.425238 
L 106.605521 111.764814 
L 105.925841 112.539036 
L 104.890873 112.826117 
L 103.964036 113.321996 
L 103.54696 114.68792 
L 107.192517 128.170782 
L 105.586 130.269535 
L 105.586 131.523694 
L 108.737245 140.619312 
L 103.979484 145.726987 
L 100.22812 154.114395 
L 96.889184 161.583394 
L 94.510303 173.839694 
L 93.691597 186.376277 
L 93.737939 186.64721 
L 93.753386 186.804528 
L 93.691597 186.856967 
L 93.598914 186.795788 
L 83.434605 187.617361 
L 74.799577 192.39905 
L 58.5027 205.562551 
L 49.774989 208.739136 
L 31.130125 208.581605 
L 22.186152 209.771879 
L 18.386122 211.04977 
L 14.277146 211.68 
L 10.322643 211.076029 
L 7.016925 208.642867 
L 5.271383 202.955241 
L 7.449449 197.295847 
L 14.184462 186.376277 
L 15.034062 180.87121 
L 15.095852 176.145343 
L 15.760084 171.569303 
L 18.128451 167.122866 
L 18.447911 166.523197 
L 21.182079 163.398551 
L 33.978956 155.559876 
L 39.084706 151.235985 
L 42.200079 148.659406 
L 43.92047 146.058258 
L 47.389507 145.34197 
L 48.197083 146.003819 
L 50.04711 146.235471 
L 51.943705 148.251533 
L 55.804632 147.73121 
L 57.917134 149.093066 
L 58.628357 148.410076 
L 59.204109 148.702779 
L 59.712126 149.515899 
L 60.694291 150.068869 
L 61.358947 149.812709 
L 61.642589 148.377554 
L 62.37498 147.666172 
L 62.861829 145.223569 
L 63.706231 144.486097 
L 64.407046 143.43985 
L 63.945598 142.038349 
L 62.963432 141.09603 
L 62.895697 139.893925 
L 63.708523 137.522743 
L 64.419747 136.516018 
L 63.979466 136.02894 
L 63.810127 134.66528 
L 63.369846 132.717606 
L 64.081069 131.614137 
L 64.724557 130.348585 
L 64.013333 129.92678 
L 63.031168 129.829443 
L 62.726358 129.504997 
L 63.573052 128.272223 
L 63.052335 127.78971 
L 62.489284 127.299117 
L 61.710325 127.169379 
L 60.004236 127.595091 
L 59.123673 126.297755 
L 58.852731 125.130337 
L 58.988202 123.444372 
L 58.310847 121.434658 
L 56.820665 121.04574 
L 55.804632 121.758771 
L 55.736896 122.796021 
L 56.414252 124.092777 
L 56.956136 125.778881 
L 57.430285 128.178962 
L 57.430285 130.774469 
L 57.37525 131.386972 
L 57.002704 131.614137 
L 54.517656 130.320194 
L 53.514323 130.28369 
L 52.566026 130.543272 
L 52.362819 131.419424 
L 52.892003 132.397097 
L 52.951714 133.303525 
L 51.121557 133.503955 
L 45.596701 132.367498 
L 43.270316 130.588971 
L 41.937074 130.73772 
L 39.712108 129.506925 
L 38.293175 126.66487 
L 36.533837 125.649458 
L 34.757642 125.578597 
L 33.499504 125.791184 
L 31.945333 126.641589 
L 29.235951 129.259983 
L 27.060796 129.831429 
L 25.358609 129.97323 
L 22.18401 129.498285 
L 21.753979 129.153011 
L 21.949404 128.484466 
L 23.596554 127.094075 
L 24.908691 125.703931 
L 26.109157 125.329703 
L 29.6268 125.169325 
L 30.256885 124.477643 
L 30.956837 116.473376 
L 29.596065 113.814447 
L 27.571261 113.45134 
L 25.937535 112.242226 
L 25.69124 111.326056 
L 26.28288 110.364844 
L 25.309706 109.574145 
z
" clip-path="url(#pff6da25fb6)" style="stroke: #000000; stroke-linejoin: miter"/>
   </g>
   <g id="line2d_1">
    <path d="M 23.138365 106.610752 
L 24.803548 104.667027 
L 24.951564 102.123246 
L 24.644852 99.229391 
L 26.209702 97.603021 
L 22.767956 86.034267 
L 23.175369 80.252843 
L 21.695206 75.886156 
L 19.54897 71.944171 
L 18.882897 69.762865 
L 19.3593 67.224332 
L 25.167476 62.116049 
L 26.264233 60.039392 
L 26.78944 57.906663 
L 26.526837 56.138281 
L 25.491869 54.881465 
L 23.622749 54.322431 
L 24.086167 52.125494 
L 24.611374 46.848918 
L 25.229265 44.722334 
L 25.800814 44.332564 
L 27.793513 43.635334 
L 28.349615 43.236931 
L 29.430925 39.790305 
L 31.809805 28.239331 
L 34.744788 23.381768 
L 38.683844 20.687629 
L 43.163554 18.664092 
L 47.797737 15.888648 
L 51.551425 11.743711 
L 53.636808 10.23556 
L 56.309187 10.08 
L 58.564489 11.207846 
L 62.827938 14.544338 
L 65.546658 15.460704 
L 74.95405 15.024126 
L 79.402866 15.52122 
L 83.851682 18.136632 
L 85.180147 22.071397 
L 85.118358 27.252988 
L 85.937064 31.475674 
L 89.814331 32.570473 
L 93.382652 32.678659 
L 108.968954 36.51326 
L 109.416925 37.798886 
L 109.664082 39.322731 
L 108.737245 39.322731 
L 108.737245 38.171176 
L 107.625041 38.171176 
L 107.625041 39.322731 
L 108.428299 40.95497 
L 108.304721 45.982657 
L 109.664082 48.473288 
L 108.999849 50.42709 
L 108.953507 53.624751 
L 109.509609 56.818737 
L 110.699049 58.777925 
L 109.95758 59.181063 
L 109.386031 59.631896 
L 108.984401 60.247478 
L 108.737245 61.179568 
L 110.699049 61.179568 
L 108.103907 71.787646 
L 108.737245 73.779092 
L 108.737245 75.028757 
L 107.51691 75.62759 
L 106.83723 76.382673 
L 106.83723 77.294029 
L 107.625041 78.370365 
L 105.122582 82.468066 
L 105.029898 84.413113 
L 106.605521 86.497361 
L 104.087615 88.468967 
L 103.268909 91.370372 
L 103.54696 99.130356 
L 105.168924 103.076992 
L 105.493317 104.868083 
L 105.586 107.163759 
L 105.833157 108.563938 
L 106.713652 110.425238 
L 106.605521 111.764814 
L 105.925841 112.539036 
L 104.890873 112.826117 
L 103.964036 113.321996 
L 103.54696 114.68792 
L 107.192517 128.170782 
L 105.586 130.269535 
L 105.586 131.523694 
L 108.737245 140.619312 
L 103.979484 145.726987 
L 96.889184 161.583394 
L 94.510303 173.839694 
L 93.691597 186.856967 
L 93.598914 186.795788 
L 83.434605 187.617361 
L 74.799577 192.39905 
L 58.5027 205.562551 
L 49.774989 208.739136 
L 31.130125 208.581605 
L 22.186152 209.771879 
L 18.386122 211.04977 
L 14.277146 211.68 
L 10.322643 211.076029 
L 7.016925 208.642867 
L 5.271383 202.955241 
L 7.449449 197.295847 
L 14.184462 186.376277 
L 15.034062 180.87121 
L 15.095852 176.145343 
L 15.760084 171.569303 
L 18.447911 166.523197 
L 21.182079 163.398551 
L 33.978956 155.559876 
L 42.200079 148.659406 
L 43.92047 146.058258 
L 47.389507 145.34197 
L 48.197083 146.003819 
L 50.04711 146.235471 
L 51.943705 148.251533 
L 55.804632 147.73121 
L 57.917134 149.093066 
L 58.628357 148.410076 
L 59.204109 148.702779 
L 59.712126 149.515899 
L 60.694291 150.068869 
L 61.358947 149.812709 
L 61.642589 148.377554 
L 62.37498 147.666172 
L 62.861829 145.223569 
L 63.706231 144.486097 
L 64.407046 143.43985 
L 63.945598 142.038349 
L 62.963432 141.09603 
L 62.895697 139.893925 
L 63.708523 137.522743 
L 64.419747 136.516018 
L 63.979466 136.02894 
L 63.810127 134.66528 
L 63.369846 132.717606 
L 64.081069 131.614137 
L 64.724557 130.348585 
L 64.013333 129.92678 
L 63.031168 129.829443 
L 62.726358 129.504997 
L 63.573052 128.272223 
L 62.489284 127.299117 
L 61.710325 127.169379 
L 60.004236 127.595091 
L 59.123673 126.297755 
L 58.852731 125.130337 
L 58.988202 123.444372 
L 58.310847 121.434658 
L 56.820665 121.04574 
L 55.804632 121.758771 
L 55.736896 122.796021 
L 56.414252 124.092777 
L 56.956136 125.778881 
L 57.430285 128.178962 
L 57.37525 131.386972 
L 57.002704 131.614137 
L 54.517656 130.320194 
L 53.514323 130.28369 
L 52.566026 130.543272 
L 52.362819 131.419424 
L 52.892003 132.397097 
L 52.951714 133.303525 
L 51.121557 133.503955 
L 45.596701 132.367498 
L 43.270316 130.588971 
L 41.937074 130.73772 
L 39.712108 129.506925 
L 38.293175 126.66487 
L 36.533837 125.649458 
L 34.757642 125.578597 
L 33.499504 125.791184 
L 31.945333 126.641589 
L 29.235951 129.259983 
L 27.060796 129.831429 
L 25.358609 129.97323 
L 22.18401 129.498285 
L 21.753979 129.153011 
L 21.949404 128.484466 
L 23.596554 127.094075 
L 24.908691 125.703931 
L 26.109157 125.329703 
L 29.6268 125.169325 
L 30.256885 124.477643 
L 30.956837 116.473376 
L 29.596065 113.814447 
L 27.571261 113.45134 
L 25.937535 112.242226 
L 25.69124 111.326056 
L 26.28288 110.364844 
L 25.309706 109.574145 
L 23.138365 106.610752 
L 23.138365 106.610752 
" clip-path="url(#pff6da25fb6)" style="fill: none; stroke: #000000; stroke-width: 0.5; stroke-linecap: square"/>
   </g>
  </g>
 </g>
 <defs>
  <clipPath id="pff6da25fb6">
   <rect x="0" y="-0" width="115.970433" height="221.76"/>
  </clipPath>
 </defs>
</svg>
