<?xml version="1.0" encoding="utf-8" standalone="no"?>
<!DOCTYPE svg PUBLIC "-//W3C//DTD SVG 1.1//EN"
  "http://www.w3.org/Graphics/SVG/1.1/DTD/svg11.dtd">
<svg xmlns:xlink="http://www.w3.org/1999/xlink" width="223.2pt" height="120.149222pt" viewBox="0 0 223.2 120.149222" xmlns="http://www.w3.org/2000/svg" version="1.1">
 <metadata>
  <rdf:RDF xmlns:dc="http://purl.org/dc/elements/1.1/" xmlns:cc="http://creativecommons.org/ns#" xmlns:rdf="http://www.w3.org/1999/02/22-rdf-syntax-ns#">
   <cc:Work>
    <dc:type rdf:resource="http://purl.org/dc/dcmitype/StillImage"/>
    <dc:date>2026-04-26T19:22:12.110163</dc:date>
    <dc:format>image/svg+xml</dc:format>
    <dc:creator>
     <cc:Agent>
      <dc:title>Matplotlib v3.10.9, https://matplotlib.org/</dc:title>
     </cc:Agent>
    </dc:creator>
   </cc:Work>
  </rdf:RDF>
 </metadata>
 <defs>
  <style type="text/css">*{stroke-linejoin: round; stroke-linecap: butt}</style>
 </defs>
 <g id="figure_1">
  <g id="patch_1">
   <path d="M 0 120.149222 
L 223.2 120.149222 
L 223.2 0 
L 0 0 
z
" style="fill: #ffffff"/>
  </g>
  <g id="axes_1">
   <g id="patch_2">
    <path d="M 26.669294 7.84672 
L 27.073004 8.166669 
L 30.38819 11.542065 
L 32.422158 14.18108 
L 33.718796 15.093773 
L 34.621535 14.303623 
L 34.541635 15.071824 
L 34.386038 15.673608 
L 33.449656 17.780942 
L 33.357139 18.291354 
L 33.466477 18.909724 
L 33.759447 19.328692 
L 34.150541 19.65802 
L 34.436502 20.01114 
L 34.408466 20.497836 
L 33.943079 20.975398 
L 33.076785 20.88757 
L 32.995482 21.39259 
L 32.824466 21.742088 
L 32.867921 21.965332 
L 33.036134 22.056826 
L 33.233783 22.005589 
L 33.573012 22.305693 
L 33.87299 22.830887 
L 34.091666 23.434791 
L 34.171567 24.003944 
L 34.352396 24.432195 
L 35.584551 25.411358 
L 35.820049 25.411358 
L 36.079376 24.88974 
L 36.499907 24.823853 
L 36.698959 24.664626 
L 36.291044 23.846556 
L 36.749422 24.011265 
L 36.923242 24.468798 
L 37.022767 25.006874 
L 37.251256 25.411358 
L 37.628332 25.541307 
L 37.889061 25.343638 
L 38.008212 24.867778 
L 37.956346 24.154014 
L 38.193245 24.154014 
L 38.225486 24.746985 
L 38.469394 25.039818 
L 38.745543 25.083743 
L 38.877309 24.922684 
L 38.89413 24.36997 
L 38.958612 23.972832 
L 39.108601 23.857536 
L 39.36933 24.154014 
L 39.402973 24.014925 
L 39.401571 23.894138 
L 39.443624 23.828255 
L 39.604828 23.846556 
L 39.670711 24.256501 
L 39.766031 24.574948 
L 39.897798 24.834834 
L 40.075822 25.076422 
L 40.309918 25.076422 
L 40.309918 24.768947 
L 40.545415 24.768947 
L 40.4543 25.444302 
L 40.514576 26.674289 
L 40.309918 27.225251 
L 39.259992 26.388748 
L 38.709097 26.123346 
L 37.830187 26.026338 
L 37.447504 26.375936 
L 37.342371 27.163015 
L 37.447504 28.003218 
L 37.699822 28.510289 
L 37.699822 28.788544 
L 37.509182 28.684198 
L 36.996134 28.510289 
L 37.181167 29.151015 
L 38.005408 29.711213 
L 38.193245 30.187214 
L 37.956346 33.120408 
L 37.80075 33.072799 
L 37.697019 33.023359 
L 37.6031 32.948284 
L 37.467129 32.812783 
L 38.057274 33.55622 
L 38.891327 34.056136 
L 39.722576 34.164179 
L 40.309918 33.732013 
L 41.546279 34.253909 
L 41.985033 34.594524 
L 41.978024 34.962616 
L 42.488269 35.973535 
L 42.662088 36.218949 
L 42.743391 36.372792 
L 42.799462 36.673156 
L 42.918612 36.83433 
L 43.060191 36.880118 
L 43.444276 36.830667 
L 44.100304 36.874623 
L 45.740375 36.218949 
L 46.508545 36.121882 
L 46.938888 36.352646 
L 47.300545 36.673156 
L 47.857048 36.83433 
L 48.360283 36.676819 
L 48.860715 36.284881 
L 49.159292 35.775742 
L 49.056963 35.27028 
L 49.445253 35.057844 
L 49.746633 35.056013 
L 50.231646 35.27028 
L 50.298931 35.440597 
L 50.63115 35.816033 
L 50.999816 36.039467 
L 51.170832 35.746439 
L 51.518471 35.632892 
L 53.54543 36.83433 
L 54.162209 36.446051 
L 54.333225 35.671352 
L 54.207066 33.871184 
L 51.877324 32.168253 
L 50.664793 29.828381 
L 50.349395 29.431112 
L 49.899426 29.172983 
L 49.260219 28.583514 
L 48.723341 27.94281 
L 48.585968 27.532772 
L 49.115837 27.541925 
L 49.990541 27.827486 
L 50.809175 27.928165 
L 51.170832 27.379011 
L 50.055023 26.696254 
L 49.519547 26.192899 
L 49.760651 25.691391 
L 50.467143 25.680409 
L 51.064297 26.258792 
L 51.877324 27.532772 
L 52.673529 28.308923 
L 52.817912 28.510289 
L 52.767448 28.894722 
L 52.485692 29.011884 
L 52.13525 28.942319 
L 51.877324 28.788544 
L 51.877324 29.096095 
L 52.157678 29.535463 
L 52.429771 29.919311 
L 52.600317 30.577958 
L 52.855772 30.705839 
L 53.309822 30.705577 
L 54.118655 30.833306 
L 54.629744 30.888299 
L 55.49389 32.095013 
L 56.035281 32.315995 
L 56.542414 33.794274 
L 56.710627 34.012187 
L 57.195639 34.468166 
L 59.260446 38.297782 
L 60.646797 40.22299 
L 61.329459 40.801878 
L 61.532715 41.212241 
L 61.905586 41.732536 
L 62.309296 42.177731 
L 62.612078 42.366438 
L 62.914861 42.45438 
L 63.541217 42.716869 
L 63.957894 42.715749 
L 64.568436 42.463189 
L 66.358728 42.920979 
L 66.774731 42.755598 
L 67.735336 42.754665 
L 68.547172 43.430934 
L 70.390854 43.575895 
L 71.708184 43.244821 
L 73.539243 43.128929 
L 74.858265 42.905717 
L 76.389371 42.6819 
L 77.857728 42.366438 
L 78.126868 42.542323 
L 78.443668 42.452548 
L 78.760468 42.166738 
L 79.033813 41.750856 
L 81.73604 40.59491 
L 84.361664 39.174711 
L 84.954414 38.901782 
L 86.224241 38.95662 
L 86.997269 38.676944 
L 87.325174 38.137785 
L 87.621687 37.701156 
L 88.335959 36.49367 
L 88.714437 35.852661 
L 89.060674 35.577951 
L 89.177021 35.435103 
L 89.290564 35.116447 
L 89.469991 34.797797 
L 89.77838 34.654956 
L 90.290386 33.882063 
L 91.094504 33.392144 
L 92.347825 32.419104 
L 92.825828 32.168253 
L 93.380832 31.431786 
L 95.371367 30.126223 
L 97.871209 28.767299 
L 101.263038 27.35599 
L 105.249715 26.947022 
L 105.771174 26.720049 
L 106.896795 25.878082 
L 107.236024 25.691391 
L 108.441546 25.515683 
L 109.717156 25.076422 
L 110.861001 24.479779 
L 111.856257 23.755051 
L 113.08332 21.948734 
L 114.427103 20.41367 
L 115.301112 19.33906 
L 115.380991 18.831837 
L 116.054864 17.413037 
L 116.923438 16.959829 
L 117.140288 16.986132 
L 117.267089 17.40226 
L 117.192796 19.098167 
L 117.267089 19.548243 
L 117.45773 19.850131 
L 117.760512 20.075178 
L 118.113758 20.11909 
L 118.462799 19.883065 
L 118.719323 19.063405 
L 118.765582 18.155974 
L 118.957624 17.724231 
L 119.640286 18.320625 
L 119.56459 17.940101 
L 119.480484 17.168104 
L 119.404789 16.787607 
L 119.487493 16.869925 
L 119.640286 17.065661 
L 119.875783 16.787607 
L 119.449631 16.006479 
L 119.766227 15.576517 
L 120.159832 15.806732 
L 120.810521 15.733661 
L 121.577892 16.168685 
L 122.206927 17.528487 
L 122.462049 18.042549 
L 122.323274 17.056515 
L 122.145249 16.365046 
L 122.125624 15.739458 
L 122.462049 14.947446 
L 122.972293 14.345691 
L 124.001192 13.853694 
L 124.578722 13.381831 
L 124.653015 13.250151 
L 124.746934 12.917297 
L 124.812817 12.767333 
L 124.930566 12.653946 
L 125.1596 12.176611 
L 125.476258 11.924261 
L 125.987253 11.459575 
L 126.205891 10.305573 
L 126.443891 9.221278 
L 127.053363 8.917245 
L 127.329671 8.588317 
L 127.163541 8.351568 
L 126.776478 8.538512 
L 126.473915 8.64569 
L 126.279114 8.371162 
L 126.500478 8.183363 
L 126.703344 7.995536 
L 126.88794 7.524504 
L 127.385872 7.244303 
L 127.770958 6.844333 
L 128.064393 6.396635 
L 128.688796 6.163322 
L 129.238875 6.259709 
L 129.917324 5.978081 
L 130.798566 5.461328 
L 131.422163 5.68404 
L 131.590375 6.217827 
L 131.775409 6.649257 
L 131.781016 6.989291 
L 131.422163 7.247063 
L 131.422163 7.526778 
L 131.759989 7.718743 
L 131.7684 7.822953 
L 131.893157 8.166669 
L 132.06137 8.013093 
L 132.184725 7.921679 
L 132.282849 7.793701 
L 132.382375 7.526778 
L 132.617872 7.526778 
L 132.82954 7.735197 
L 133.109894 7.89974 
L 133.795359 8.166669 
L 133.81218 7.779075 
L 134.051883 6.939931 
L 134.234113 7.343957 
L 134.464003 7.50484 
L 134.716322 7.464619 
L 134.971444 7.247063 
L 136.278729 7.653372 
L 138.202625 7.929368 
L 140.383178 8.708406 
L 141.521426 9.225432 
L 143.10446 9.491135 
L 143.750519 9.050695 
L 144.39574 8.80125 
L 145.188029 8.870914 
L 145.781922 8.938989 
L 146.376703 8.75285 
L 147.021093 8.50359 
L 148.110084 8.384995 
L 149.334904 8.1151 
L 150.79279 7.976363 
L 151.249994 8.337156 
L 151.248234 8.8427 
L 150.65742 9.260465 
L 150.232104 9.152615 
L 149.887166 9.487605 
L 149.51046 9.527526 
L 148.462335 9.690285 
L 147.888992 9.8346 
L 147.510546 10.654207 
L 147.603794 11.707085 
L 147.779215 13.161513 
L 148.384221 13.417611 
L 148.941431 13.252191 
L 149.300854 13.464816 
L 149.743215 13.361994 
L 150.185467 13.280257 
L 150.562172 13.198175 
L 150.938195 13.305632 
L 151.412645 13.308415 
L 152.016891 13.627844 
L 152.376257 13.777303 
L 152.68421 14.10975 
L 152.94634 14.380442 
L 153.110348 14.735275 
L 153.371009 14.667756 
L 153.813013 14.628467 
L 154.091087 14.651248 
L 154.434307 14.758695 
L 154.859214 14.697748 
L 155.04209 14.278336 
L 155.417587 14.174953 
L 156.054606 14.368414 
L 157.035067 14.121634 
L 157.319205 13.7031 
L 157.905925 13.85413 
L 158.300592 13.772689 
L 158.6814 13.585934 
L 159.142071 13.294007 
L 159.498213 13.884787 
L 160.057264 14.225513 
L 160.497805 14.167353 
L 161.643912 14.574379 
L 162.413369 14.473923 
L 162.869388 14.919286 
L 163.424994 15.028579 
L 163.916874 14.758506 
L 164.314223 14.331652 
L 164.891916 14.05558 
L 165.405594 14.220541 
L 166.069953 14.798926 
L 166.562674 15.046651 
L 167.697125 15.046166 
L 168.263481 15.558371 
L 168.637021 15.368446 
L 169.150124 15.569942 
L 169.510165 16.039951 
L 169.899792 16.470887 
L 170.837541 17.031086 
L 171.196131 17.305278 
L 171.681778 17.509904 
L 172.573522 17.743326 
L 173.291011 18.253371 
L 173.80036 18.763622 
L 174.339668 19.079543 
L 174.6699 19.277763 
L 174.999769 19.319834 
L 175.449318 19.479616 
L 175.897312 19.83234 
L 176.435456 20.225225 
L 177.062842 20.696123 
L 177.602701 20.818651 
L 178.14356 20.708562 
L 178.473169 20.867842 
L 178.892209 21.183783 
L 179.340645 21.263895 
L 179.967585 21.774075 
L 180.301881 22.338631 
L 181.192196 22.600698 
L 182.300345 22.805125 
L 182.958033 23.122032 
L 183.382972 23.568384 
L 183.511935 24.146693 
L 184.254873 25.171595 
L 184.702801 25.258079 
L 185.309004 25.630991 
L 186.45443 27.327792 
L 187.035984 28.510289 
L 187.501037 29.288325 
L 188.013516 30.282532 
L 189.198894 31.313946 
L 189.023377 30.692983 
L 188.872303 30.145105 
L 188.485832 29.097372 
L 188.443841 28.40755 
L 189.048926 28.788544 
L 189.491194 29.817085 
L 189.76901 30.314555 
L 190.710503 31.145255 
L 190.837718 32.166993 
L 191.179937 32.665107 
L 191.607967 32.997772 
L 192.127213 33.578194 
L 192.247765 34.101917 
L 192.547744 34.58903 
L 192.926222 34.991917 
L 193.034119 35.39629 
L 192.696864 36.202739 
L 193.367779 37.200639 
L 193.84864 38.605017 
L 194.208692 39.100579 
L 194.527863 38.741437 
L 194.67666 38.823971 
L 194.718593 39.459043 
L 195.380965 39.98536 
L 196.085144 40.815015 
L 196.856785 41.974369 
L 197.515617 42.366438 
L 197.338994 41.996354 
L 197.111907 41.71788 
L 196.915659 41.413762 
L 196.831553 40.968587 
L 197.008176 40.757911 
L 197.389457 41.175601 
L 197.753918 41.761849 
L 197.877273 42.058645 
L 198.902429 43.086356 
L 198.771483 43.884444 
L 199.409894 44.574441 
L 199.60693 43.80673 
L 199.949161 43.890967 
L 200.245054 44.662821 
L 200.13332 45.402725 
L 200.066228 46.088873 
L 199.912608 46.605689 
L 200.347097 47.119201 
L 201.429358 48.081777 
L 202.247992 48.618775 
L 203.376417 48.868036 
L 204.444566 48.763566 
L 205.085175 48.235727 
L 205.219744 48.455658 
L 205.387957 48.633438 
L 205.587008 48.765399 
L 205.811291 48.851541 
L 205.76265 49.472893 
L 205.40304 49.802274 
L 204.845823 49.874435 
L 204.290385 50.035055 
L 203.727827 50.494807 
L 203.692222 50.838174 
L 203.857785 51.296783 
L 203.89695 52.099961 
L 203.482153 53.22447 
L 202.509311 54.569746 
L 202.130945 55.092992 
L 201.844325 56.429601 
L 201.842544 57.461233 
L 202.154088 57.722062 
L 203.190192 57.596305 
L 203.772333 57.84782 
L 204.130163 58.237908 
L 204.699842 59.497894 
L 205.200092 61.071253 
L 205.484932 64.163637 
L 205.782233 65.770022 
L 206.166766 66.547055 
L 206.604707 66.75792 
L 207.064011 66.79287 
L 207.505513 67.037523 
L 207.761869 67.504704 
L 208.509573 69.549486 
L 209.397191 71.253918 
L 209.718361 71.870677 
L 210.71886 74.364649 
L 211.457663 77.884748 
L 211.521752 78.973547 
L 211.747843 79.631054 
L 212.08075 80.043756 
L 212.449261 80.391179 
L 212.785728 80.852865 
L 213.054545 81.559406 
L 212.856938 81.748288 
L 211.5805 81.729633 
L 210.544396 82.011793 
L 209.387235 82.513162 
L 208.329768 83.236089 
L 207.599866 84.187595 
L 206.718643 86.769495 
L 205.703902 88.448964 
L 205.591746 88.999489 
L 206.052831 90.322211 
L 206.759589 91.197076 
L 206.974999 92.032317 
L 205.963818 93.226914 
L 201.132225 97.14019 
L 199.562047 99.200979 
L 198.698627 100.108913 
L 197.917098 100.213947 
L 197.550367 99.69812 
L 197.132009 97.441244 
L 196.870312 96.843809 
L 195.916099 95.15662 
L 195.825307 95.070281 
L 195.533346 94.979275 
L 195.431872 94.857935 
L 195.433652 94.687593 
L 195.576072 94.286246 
L 195.590314 94.167243 
L 195.255627 93.67024 
L 193.534128 91.75701 
L 193.178078 91.507371 
L 192.352043 92.099978 
L 192.134853 93.758906 
L 192.296855 95.67933 
L 192.606618 97.074846 
L 193.384587 99.051605 
L 193.487841 100.020218 
L 193.178078 101.182616 
L 192.665367 102.018276 
L 192.006675 102.531828 
L 191.246509 102.68823 
L 190.424035 102.450125 
L 189.224148 107.471921 
L 187.817606 113.359858 
L 187.79294 113.350869 
L 187.026172 113.063981 
L 186.033719 111.888884 
L 184.557655 109.480049 
L 184.006759 108.959704 
L 183.733414 108.573591 
L 183.615666 108.0643 
L 183.694165 107.591793 
L 183.831538 107.119296 
L 183.893216 106.654164 
L 183.733414 106.200072 
L 183.537167 106.005202 
L 183.441846 106.089768 
L 183.371758 106.268094 
L 183.265223 106.367368 
L 182.99328 106.223972 
L 182.914781 105.935344 
L 182.984869 105.700032 
L 183.144671 105.722093 
L 182.732551 104.900361 
L 182.508267 104.736754 
L 182.183057 105.104412 
L 181.971389 105.104412 
L 181.138738 103.865431 
L 180.590646 103.223911 
L 180.184133 102.946354 
L 180.071991 102.749677 
L 179.986483 102.31773 
L 179.822476 101.880277 
L 179.480444 101.685449 
L 179.26317 101.486946 
L 179.093556 101.034808 
L 178.869273 100.14159 
L 178.656204 100.14159 
L 178.507616 100.81977 
L 178.430519 100.378675 
L 178.398278 98.796324 
L 178.227262 97.984062 
L 177.862802 97.803972 
L 177.530582 98.164153 
L 177.459092 98.965396 
L 177.269853 98.371812 
L 177.328727 97.950984 
L 177.454887 97.555892 
L 177.459092 97.059741 
L 177.328727 96.583815 
L 177.185747 96.326562 
L 176.773626 95.856166 
L 176.040501 94.62143 
L 175.535864 94.121678 
L 174.871425 94.004091 
L 174.952727 93.508028 
L 174.80414 93.135071 
L 174.509768 92.879701 
L 174.164933 92.743749 
L 174.494348 91.87846 
L 174.66957 91.259369 
L 174.647141 90.671527 
L 174.401832 89.914707 
L 173.365924 87.850131 
L 173.203318 87.335859 
L 172.880911 85.892294 
L 172.132366 84.676552 
L 171.277286 83.5931 
L 170.638079 82.544597 
L 170.188111 81.154639 
L 169.910561 79.715213 
L 169.897945 79.171784 
L 169.979247 78.654073 
L 169.910561 78.2043 
L 169.29238 76.752249 
L 169.204069 76.188714 
L 169.3877 75.338855 
L 169.792812 74.514731 
L 170.197924 74.208218 
L 170.596026 75.665578 
L 171.092253 75.948253 
L 171.647354 75.841791 
L 172.04826 75.404934 
L 173.026695 76.069401 
L 174.36118 75.177332 
L 175.541471 73.518122 
L 176.048911 71.873741 
L 175.983028 70.952511 
L 175.797995 70.387317 
L 175.503623 69.987288 
L 175.106922 69.554238 
L 174.099049 68.029471 
L 173.69534 67.704718 
L 173.69534 67.368961 
L 174.63032 67.499227 
L 174.924692 67.435011 
L 175.362044 67.091922 
L 175.362044 66.752507 
L 175.162993 66.625917 
L 175.062065 66.493823 
L 174.990575 66.339715 
L 174.871425 66.137909 
L 175.146172 65.994811 
L 175.227474 65.976465 
L 175.362044 65.521496 
L 175.653612 65.774663 
L 176.048911 66.257158 
L 176.281605 66.444288 
L 176.584388 66.554366 
L 176.849322 66.543358 
L 177.349754 66.444288 
L 177.404423 66.266331 
L 177.826356 65.508655 
L 177.927283 65.382072 
L 177.876819 64.145651 
L 177.927283 63.676053 
L 178.026809 63.593508 
L 178.656204 62.751567 
L 178.801988 62.333363 
L 178.863665 61.937179 
L 178.869273 61.045796 
L 179.015057 60.8037 
L 179.340267 60.598287 
L 179.665478 60.539598 
L 179.80986 60.737674 
L 179.982278 62.381053 
L 180.066384 62.751567 
L 180.407014 63.125758 
L 180.971928 63.527472 
L 181.588706 63.852151 
L 182.076522 63.984225 
L 182.471821 64.274059 
L 182.766193 64.95647 
L 183.371758 67.104764 
L 183.708182 67.699213 
L 184.141329 68.12855 
L 184.662788 68.293682 
L 184.826795 68.203776 
L 185.192657 68.062497 
L 185.562724 68.08268 
L 185.830462 68.724867 
L 186.068763 68.967069 
L 186.374349 69.146887 
L 186.672926 69.216613 
L 187.143921 69.216613 
L 187.143921 68.937711 
L 186.615453 68.787252 
L 186.133245 68.420284 
L 185.74916 67.919384 
L 185.519269 67.368961 
L 187.240643 67.79829 
L 188.1574 68.233133 
L 188.741938 69.09918 
L 189.566179 69.680849 
L 189.752615 70.000133 
L 189.784855 70.669912 
L 189.894193 71.145195 
L 190.111468 71.475515 
L 190.457705 71.706742 
L 190.829174 71.431472 
L 191.213259 71.704907 
L 191.513238 72.323362 
L 191.635192 73.094166 
L 191.872091 73.595206 
L 192.407567 73.771399 
L 192.965471 73.569511 
L 193.282271 72.940003 
L 192.320657 72.951014 
L 191.054859 70.952511 
L 190.457705 71.091977 
L 188.687269 68.183593 
L 188.33963 67.844159 
L 187.83219 67.473541 
L 184.770724 66.752507 
L 184.024983 66.369069 
L 183.430632 65.717792 
L 183.032529 64.85374 
L 182.888147 63.830138 
L 182.1382 61.865647 
L 181.919524 60.656976 
L 182.440982 59.983897 
L 182.068112 59.666624 
L 181.653188 59.224651 
L 181.269103 58.690997 
L 180.985945 58.107847 
L 180.834554 57.365184 
L 180.936883 56.941604 
L 181.128926 56.639054 
L 181.243871 56.263165 
L 181.193407 55.69843 
L 180.995758 55.555415 
L 180.684565 55.460073 
L 180.301881 55.031039 
L 180.133669 54.526845 
L 180.097223 54.097834 
L 179.987885 53.747666 
L 179.598193 53.492835 
L 179.73837 53.908999 
L 179.766405 55.043873 
L 179.940225 55.478408 
L 180.398604 55.867115 
L 180.571021 55.91112 
L 180.583637 56.046803 
L 180.559807 57.530217 
L 180.618681 57.92447 
L 181.096685 59.389702 
L 181.142943 59.861022 
L 180.985945 60.290173 
L 180.772876 60.290173 
L 180.121053 58.863378 
L 179.701924 58.16286 
L 179.362696 57.799776 
L 178.825818 57.796108 
L 178.367439 58.181198 
L 178.047835 58.883551 
L 177.927283 59.829845 
L 177.722625 60.521258 
L 177.209577 61.053132 
L 176.561959 61.397942 
L 175.940975 61.522662 
L 175.646603 61.37043 
L 175.519042 61.018285 
L 175.512033 60.609291 
L 175.577917 60.290173 
L 175.776968 59.983897 
L 176.773626 59.340186 
L 176.908196 59.488733 
L 177.000713 59.563924 
L 177.244621 59.675793 
L 177.286674 58.195868 
L 177.108649 56.826085 
L 176.538129 54.389341 
L 176.281605 54.389341 
L 176.040501 55.032872 
L 176.208713 55.445405 
L 176.536727 55.797441 
L 176.773626 56.263165 
L 176.724564 57.062626 
L 176.458228 57.704421 
L 176.290016 58.236212 
L 176.538129 58.724006 
L 176.538129 59.059602 
L 176.430193 59.158631 
L 176.311042 59.230153 
L 176.048911 59.340186 
L 175.89752 58.977078 
L 175.690058 58.77352 
L 175.49381 58.624979 
L 175.362044 58.443431 
L 175.249902 58.047333 
L 175.308777 58.001488 
L 175.44615 58.014325 
L 175.577917 57.799776 
L 175.947984 56.936103 
L 175.907333 56.508867 
L 175.362044 56.263165 
L 175.527453 56.826085 
L 175.453159 57.090131 
L 175.269527 57.245994 
L 175.106922 57.491709 
L 174.635927 58.724006 
L 174.082228 58.830369 
L 173.779446 58.333403 
L 173.459842 56.87926 
L 173.203318 57.212987 
L 173.169676 57.794274 
L 172.694476 58.698332 
L 172.067885 59.477729 
L 171.577265 59.675793 
L 171.260465 58.918394 
L 170.901612 56.252164 
L 170.638079 55.340896 
L 170.768444 55.034706 
L 170.851148 54.724854 
L 170.638079 54.724854 
L 170.638079 55.031039 
L 170.381555 55.031039 
L 170.381555 54.108834 
L 170.167085 54.108834 
L 170.035318 55.214386 
L 170.663311 57.451368 
L 170.996932 59.609772 
L 171.643148 60.301177 
L 171.793138 61.045796 
L 170.851148 63.676053 
L 170.713775 63.287176 
L 170.467063 63.087238 
L 170.179701 62.944165 
L 170.115219 62.898308 
L 169.910561 62.751567 
L 169.115757 61.482311 
L 168.734476 61.185186 
L 168.919509 60.634968 
L 168.892876 59.829845 
L 168.728869 59.015589 
L 168.497577 58.443431 
L 168.243856 58.696499 
L 168.103679 58.971576 
L 168.039198 59.292505 
L 168.008359 59.675793 
L 167.848557 59.246658 
L 167.472883 58.624979 
L 167.321492 58.107847 
L 167.301867 57.473372 
L 167.556989 55.955125 
L 167.321492 55.170382 
L 166.315021 53.414004 
L 165.911311 52.84936 
L 166.428564 52.882358 
L 166.80564 53.03085 
L 167.144869 53.085848 
L 167.556989 52.84936 
L 166.993477 52.277401 
L 166.802837 51.809949 
L 166.8533 50.235368 
L 164.714199 49.467376 
L 164.893626 48.774563 
L 164.972125 48.571123 
L 164.745038 48.534467 
L 164.62729 48.604113 
L 164.478702 48.851541 
L 164.195544 48.609611 
L 163.93061 48.633438 
L 163.678291 48.77273 
L 163.430178 48.851541 
L 163.127396 48.626106 
L 162.90872 48.098272 
L 162.597527 47.005998 
L 163.088146 46.487375 
L 163.270376 45.671905 
L 163.232529 44.744698 
L 163.068521 43.903658 
L 162.811998 43.903658 
L 162.762936 44.629258 
L 162.900309 45.558292 
L 162.879282 46.203331 
L 162.362029 46.082384 
L 161.7845 46.905204 
L 160.727566 45.113009 
L 159.774362 45.133166 
L 159.101512 44.590779 
L 158.413243 42.677902 
L 157.870758 42.058645 
L 157.870758 41.750856 
L 158.128684 41.750856 
L 158.128684 41.443074 
L 157.61844 41.248881 
L 157.296033 40.831189 
L 157.026893 40.332904 
L 156.673647 39.907908 
L 156.948394 40.658986 
L 157.00867 41.248881 
L 156.791396 41.703223 
L 156.226482 42.058645 
L 155.709229 42.16857 
L 155.360188 41.996354 
L 154.685937 40.968587 
L 154.444833 40.255964 
L 154.307459 39.387668 
L 154.123827 38.654964 
L 149.597512 35.577951 
L 147.794836 35.061507 
L 146.920131 34.259403 
L 146.774347 34.012187 
L 146.730892 33.572701 
L 146.827615 33.31817 
L 146.962184 33.067306 
L 147.029469 32.644324 
L 147.046291 31.714168 
L 146.993023 30.930533 
L 146.718276 30.436204 
L 146.067855 30.353817 
L 146.067855 30.018781 
L 146.806588 29.949212 
L 147.371501 29.557432 
L 147.761193 28.934996 
L 147.971459 28.177121 
L 148.18593 28.177121 
L 148.490114 28.784883 
L 148.825137 28.761085 
L 149.381639 28.177121 
L 150.082524 27.854944 
L 150.393717 27.618806 
L 150.559126 27.225251 
L 150.339048 27.368028 
L 149.876464 27.41562 
L 149.597512 27.532772 
L 149.367622 27.767078 
L 148.927466 28.385808 
L 148.783084 28.510289 
L 148.506935 28.374825 
L 148.417222 28.091085 
L 148.310687 27.858605 
L 147.971459 27.869588 
L 147.75839 28.103899 
L 147.337859 28.920351 
L 147.138808 29.096095 
L 147.057505 29.19129 
L 146.948167 29.403651 
L 146.754723 29.616015 
L 146.421101 29.711213 
L 146.101498 29.733182 
L 145.846376 29.817397 
L 145.678163 30.013289 
L 145.620691 30.353817 
L 145.832358 30.661397 
L 146.276719 30.831666 
L 146.679027 31.219815 
L 146.774347 32.168253 
L 146.617349 32.721229 
L 146.261299 33.486636 
L 145.780492 34.021343 
L 145.246418 33.871184 
L 145.022135 33.721026 
L 144.18668 33.424377 
L 144.150234 33.226613 
L 143.982022 32.864053 
L 143.802595 32.743202 
L 143.715685 33.274223 
L 143.131147 33.523259 
L 140.362651 32.889689 
L 139.462715 33.120408 
L 139.246843 33.120408 
L 139.246843 32.812783 
L 138.400173 33.153368 
L 136.453115 32.908 
L 135.677936 33.424377 
L 135.37235 33.120408 
L 135.052747 33.155199 
L 134.720527 33.325495 
L 134.123373 33.473818 
L 133.694432 33.682571 
L 133.432301 33.732013 
L 133.174375 33.830897 
L 133.104287 34.039655 
L 133.081858 34.252078 
L 132.971118 34.347303 
L 132.86178 34.501129 
L 131.893157 35.27028 
L 131.823069 35.673183 
L 131.856711 36.057781 
L 131.789426 36.354477 
L 131.422163 36.497333 
L 132.019317 37.808729 
L 132.146878 38.341742 
L 131.694106 37.929617 
L 131.137603 37.209797 
L 130.670814 36.363634 
L 130.481575 35.577951 
L 130.267104 35.577951 
L 130.314764 35.83801 
L 130.376442 36.006501 
L 130.481575 36.218949 
L 130.481575 36.497333 
L 130.267104 36.497333 
L 130.515217 37.614577 
L 130.354014 38.583527 
L 129.850778 39.056116 
L 129.068591 38.676944 
L 127.495805 39.03963 
L 127.00098 39.373014 
L 127.188817 39.907908 
L 127.188817 40.188184 
L 126.806134 40.021483 
L 126.560824 39.808988 
L 126.330934 39.715564 
L 125.990304 39.907908 
L 125.889377 39.759528 
L 125.848725 39.684423 
L 125.767423 39.644122 
L 125.540336 39.600159 
L 125.540336 39.907908 
L 125.637058 40.061785 
L 125.691727 40.292602 
L 125.775833 40.523423 
L 125.184286 40.391525 
L 124.623578 40.765239 
L 124.163798 41.406433 
L 123.87223 42.058645 
L 123.726445 42.927077 
L 123.87223 45.607768 
L 123.946523 45.866148 
L 124.107727 46.001753 
L 124.270332 46.093379 
L 124.343224 46.236316 
L 124.309582 46.520362 
L 124.239493 46.762262 
L 124.130155 47.005998 
L 124.051656 47.356031 
L 123.914283 47.731729 
L 123.734856 48.092773 
L 123.530198 48.402508 
L 123.392824 48.532635 
L 122.963883 48.802055 
L 122.529334 48.919355 
L 122.504102 49.087975 
L 122.546155 49.289588 
L 122.462049 49.467376 
L 121.874317 49.668607 
L 121.313057 50.032623 
L 121.747817 50.593915 
L 122.921958 50.938532 
L 124.033209 50.359726 
L 125.068292 49.681704 
L 125.464502 49.400604 
L 125.592323 49.185741 
L 125.758525 49.185625 
L 125.771336 49.565612 
L 125.643531 49.896108 
L 124.480572 51.069685 
L 123.101514 52.689198 
L 122.437416 53.020009 
L 121.313482 53.50005 
L 120.010599 53.914347 
L 119.755414 54.344105 
L 119.815507 54.84036 
L 119.748222 55.18505 
L 119.640286 55.340896 
L 119.463663 55.434404 
L 119.076774 55.538914 
L 118.933794 55.617755 
L 118.410934 56.252164 
L 118.167026 56.479529 
L 117.853029 56.57121 
L 117.667996 56.761907 
L 117.334374 57.607234 
L 117.159153 57.799776 
L 117.087663 57.972148 
L 116.355939 58.793692 
L 113.923868 60.87156 
L 112.543125 62.052732 
L 110.994169 63.09641 
L 108.592937 64.705149 
L 107.579457 65.240815 
L 105.933779 65.521496 
L 105.628193 65.471964 
L 105.185234 65.268333 
L 104.993192 65.240815 
L 104.690409 65.349051 
L 104.08905 65.72513 
L 103.815705 65.8297 
L 102.876519 65.521496 
L 102.422345 65.136249 
L 102.213482 64.820719 
L 102.384498 64.600585 
L 102.039662 64.776692 
L 102.022841 64.974814 
L 102.074706 65.216967 
L 101.935931 65.521496 
L 101.307938 66.053518 
L 99.129588 68.866151 
L 98.856243 69.691859 
L 98.971188 74.015502 
L 98.927733 74.538592 
L 98.84643 74.696439 
L 98.641772 75.094735 
L 99.201078 75.441644 
L 99.450593 76.304357 
L 99.617404 77.185466 
L 99.924391 77.587486 
L 100.433234 77.725166 
L 101.746692 78.474163 
L 102.149 78.848672 
L 103.311068 79.302132 
L 104.038586 80.925132 
L 104.534813 82.814521 
L 104.993192 84.0834 
L 108.285949 87.502996 
L 110.375988 89.977162 
L 113.524364 95.198366 
L 115.130792 99.029717 
L 115.552725 100.362134 
L 115.513475 101.235144 
L 114.983606 102.961059 
L 114.714466 103.341552 
L 114.293935 103.472061 
L 113.372972 103.534559 
L 113.091217 103.604409 
L 110.660548 104.795579 
L 108.490608 104.791902 
L 108.071478 105.104412 
L 107.653751 104.852566 
L 106.728583 104.569472 
L 106.404774 104.179765 
L 106.169277 104.179765 
L 105.862289 104.378294 
L 104.757694 104.795579 
L 104.757694 105.104412 
L 105.202055 105.038233 
L 105.560908 104.922421 
L 105.872101 104.747784 
L 106.169277 104.516162 
L 106.404774 104.795579 
L 103.927846 105.854455 
L 103.011089 106.720348 
L 102.876519 107.908022 
L 103.465262 109.187698 
L 103.355924 109.601404 
L 102.502246 109.759533 
L 102.263945 109.849631 
L 101.993404 110.062925 
L 101.770522 110.318513 
L 101.678006 110.531811 
L 101.589694 111.03013 
L 101.364009 111.20482 
L 101.052816 111.315151 
L 100.716391 111.613049 
L 100.567804 111.988185 
L 100.58042 112.302643 
L 100.546777 112.580326 
L 100.266423 112.845139 
L 100.005694 112.872724 
L 99.353871 112.611588 
L 98.983804 112.536191 
L 94.768681 113.225815 
L 94.519166 113.286503 
L 90.762423 114.202362 
L 87.998132 114.33294 
L 87.287435 114.080981 
L 87.053339 114.080981 
L 86.875315 114.343974 
L 86.698692 114.432253 
L 86.522069 114.343974 
L 86.346847 114.080981 
L 86.11135 114.080981 
L 85.640355 114.687894 
L 85.252065 114.378918 
L 84.701169 113.181678 
L 84.516136 112.983065 
L 84.263817 112.77158 
L 83.961035 112.606071 
L 83.633021 112.536191 
L 83.300801 112.392751 
L 83.285382 112.072776 
L 83.443782 111.756482 
L 83.633021 111.613049 
L 83.773198 111.41445 
L 83.733948 110.443549 
L 83.760582 110.068441 
L 83.940008 109.748501 
L 84.326897 109.364212 
L 84.462869 109.14357 
L 84.587626 108.540496 
L 84.61426 107.70762 
L 84.474083 106.964863 
L 83.595173 106.268094 
L 83.607789 105.420603 
L 83.973651 104.025355 
L 83.805438 103.438974 
L 82.562069 101.685449 
L 82.442918 101.593549 
L 82.182189 101.279255 
L 82.019584 100.942911 
L 82.440115 100.62679 
L 82.507399 100.240834 
L 82.545247 99.783211 
L 82.679817 99.399109 
L 82.728879 98.875346 
L 82.40507 98.245011 
L 81.948093 97.684526 
L 81.599053 97.368456 
L 81.599053 97.059741 
L 81.855576 97.059741 
L 81.855576 96.751031 
L 80.188872 94.592032 
L 79.848242 94.342155 
L 79.587513 94.24294 
L 79.457148 94.088606 
L 79.504808 93.666032 
L 79.667414 93.263676 
L 79.921134 92.982583 
L 80.264568 92.881538 
L 80.680893 93.021165 
L 80.514083 92.633519 
L 80.127194 92.238533 
L 79.692645 91.939084 
L 79.38706 91.817836 
L 79.335194 91.604735 
L 79.975803 90.249027 
L 79.600129 90.282092 
L 79.265106 90.226983 
L 78.990359 90.100235 
L 78.77729 89.91287 
L 78.895038 89.877968 
L 78.99176 89.883479 
L 79.045028 89.833883 
L 79.033813 89.631825 
L 78.237608 89.433443 
L 77.913799 88.786878 
L 77.936228 88.099926 
L 78.188546 87.78401 
L 78.38199 87.684828 
L 78.554408 87.475446 
L 78.784298 87.262392 
L 79.151562 87.166886 
L 79.583307 87.166886 
L 79.929544 87.086074 
L 80.146819 86.819763 
L 80.188872 86.241238 
L 79.975803 86.241238 
L 79.196419 86.819763 
L 78.953913 85.614981 
L 79.033813 82.825539 
L 78.288072 84.626969 
L 77.76381 85.232992 
L 77.367109 84.364364 
L 77.152638 84.364364 
L 77.229736 84.847339 
L 77.3601 85.199936 
L 77.561955 85.449696 
L 77.85913 85.624163 
L 77.85913 85.934535 
L 76.296157 85.934535 
L 75.975151 85.839035 
L 75.54621 85.414803 
L 75.121473 85.31747 
L 74.250974 84.985071 
L 74.079958 84.276218 
L 73.991647 83.618808 
L 73.367859 83.442523 
L 73.708489 83.626153 
L 73.809417 83.785913 
L 73.838854 84.0834 
L 73.381877 84.279891 
L 73.465983 84.639824 
L 74.074351 85.31747 
L 74.671505 85.728844 
L 74.77804 85.780267 
L 74.723371 86.180631 
L 74.622443 86.505704 
L 74.566373 86.775684 
L 75.20558 88.34054 
L 74.870557 89.514265 
L 74.103788 90.474972 
L 73.367859 91.173029 
L 73.21787 90.805627 
L 73.191236 90.588863 
L 73.250111 90.430885 
L 73.367859 90.249027 
L 73.367859 89.91287 
L 72.88565 89.874295 
L 72.406245 89.91287 
L 72.406245 90.249027 
L 72.770705 90.37945 
L 72.973962 90.651321 
L 73.367859 91.481652 
L 72.902472 91.709448 
L 72.700617 91.676381 
L 72.406245 91.481652 
L 72.657162 92.021754 
L 72.898266 92.40755 
L 73.111335 92.40755 
L 73.571116 92.082378 
L 74.074351 91.817836 
L 74.221537 92.324878 
L 74.074351 94.283361 
L 74.145842 94.810678 
L 74.155654 95.119358 
L 74.074351 95.516239 
L 73.943987 95.736732 
L 73.527661 96.177725 
L 73.367859 96.469888 
L 73.111335 96.469888 
L 72.816964 96.185075 
L 71.708164 95.411505 
L 71.464256 95.361895 
L 71.27782 94.794141 
L 70.848879 94.58652 
L 70.054075 94.592032 
L 67.204277 93.55396 
L 66.269296 93.666032 
L 66.127717 93.146095 
L 65.896425 92.690471 
L 65.621678 92.337738 
L 65.349735 92.126469 
L 64.55353 92.385504 
L 63.535845 92.269764 
L 62.766273 91.841718 
L 62.720015 91.173029 
L 63.011583 91.053623 
L 63.654995 90.612744 
L 64.041884 90.136974 
L 62.687774 89.624477 
L 62.309296 89.769591 
L 62.270046 90.555798 
L 61.476645 89.817351 
L 61.072935 89.631825 
L 61.072935 89.323231 
L 61.29862 88.926475 
L 61.109381 88.551768 
L 60.791179 88.142171 
L 60.622967 87.642584 
L 60.681841 86.902411 
L 60.837438 86.419385 
L 61.329459 85.624163 
L 61.329459 85.31747 
L 61.084149 85.106277 
L 60.833232 85.023637 
L 60.589324 85.086076 
L 60.366443 85.31747 
L 60.154776 85.31747 
L 59.895448 85.008945 
L 59.895448 84.672879 
L 60.217855 84.33131 
L 60.21365 84.006273 
L 59.933296 83.789586 
L 59.427257 83.778568 
L 59.533791 83.089958 
L 59.566032 82.337107 
L 59.763682 81.912953 
L 60.366443 82.208574 
L 60.278131 81.806456 
L 60.137954 81.52553 
L 59.662754 80.976541 
L 59.822556 80.640546 
L 59.763682 79.983261 
L 59.895448 79.434317 
L 59.474917 79.660135 
L 59.275866 79.594042 
L 59.214188 79.638104 
L 59.212786 80.205413 
L 59.378195 80.831493 
L 59.431462 81.167492 
L 59.317919 81.312542 
L 59.062797 81.261132 
L 58.884772 81.108738 
L 58.776836 80.864542 
L 58.741791 80.528549 
L 58.628248 80.032832 
L 58.01988 78.940465 
L 57.780177 78.512715 
L 57.288156 76.805483 
L 57.073685 76.353918 
L 56.86342 77.053297 
L 56.821367 77.4186 
L 56.838188 77.868354 
L 56.476531 77.40575 
L 56.470924 76.750413 
L 56.407844 76.118962 
L 55.877975 75.739 
L 55.877975 75.403098 
L 56.169544 75.623361 
L 56.438683 75.72248 
L 56.66577 75.661907 
L 56.838188 75.403098 
L 57.073685 75.403098 
L 57.191434 75.535256 
L 57.267129 75.588486 
L 57.54468 75.739 
L 56.369997 72.940003 
L 55.608836 71.706742 
L 55.268205 71.007563 
L 55.171483 70.167116 
L 54.957012 70.167116 
L 54.759363 70.671747 
L 54.675257 71.169051 
L 54.784595 71.54892 
L 55.171483 71.706742 
L 54.958414 72.097633 
L 54.439759 72.829887 
L 54.208467 73.24833 
L 53.995398 73.24833 
L 53.377218 72.633515 
L 50.681614 71.246125 
L 50.378832 71.002058 
L 48.943419 70.55614 
L 48.457005 70.475398 
L 48.089741 70.183631 
L 48.225713 69.515705 
L 48.800439 68.293682 
L 48.384113 68.46065 
L 47.921529 68.849637 
L 47.544453 69.389095 
L 47.387455 70.000133 
L 47.174386 70.134087 
L 46.699186 69.746907 
L 45.975872 68.937711 
L 45.469833 69.423958 
L 44.352623 69.334047 
L 43.221394 68.878995 
L 42.662088 68.293682 
L 42.447617 68.293682 
L 42.388743 69.113859 
L 41.523851 71.598468 
L 41.449557 71.515887 
L 41.299568 71.416791 
L 41.251907 71.398439 
L 41.251907 71.706742 
L 41.037437 71.706742 
L 41.358442 70.657067 
L 41.345826 70.324927 
L 41.037437 70.475398 
L 41.076686 70.104727 
L 41.131355 69.82948 
L 41.249104 69.64782 
L 41.487405 69.554238 
L 41.487405 69.214778 
L 41.024821 69.267991 
L 40.431872 69.719383 
L 39.956672 69.831315 
L 39.659497 69.699199 
L 39.220743 69.097345 
L 38.877309 68.937711 
L 38.877309 68.629455 
L 39.053932 68.559731 
L 39.209529 68.392761 
L 39.36933 68.293682 
L 38.969826 66.901115 
L 38.934782 66.27 
L 39.133833 65.8297 
L 39.133833 65.521496 
L 38.931978 65.317865 
L 38.892729 65.092221 
L 38.974031 64.848236 
L 39.133833 64.600585 
L 39.174484 64.71799 
L 39.166074 64.842733 
L 39.201118 64.925284 
L 39.36933 64.905105 
L 39.201118 64.303409 
L 39.241769 63.841144 
L 39.520722 63.516466 
L 40.075822 63.340371 
L 39.268403 63.307354 
L 38.84647 63.351377 
L 38.662838 63.507294 
L 38.111943 64.985821 
L 38.076898 65.240815 
L 37.405451 65.161932 
L 36.883992 64.87025 
L 36.631674 64.286899 
L 36.781663 63.340371 
L 36.215348 63.655875 
L 35.613989 63.89801 
L 35.004219 63.945703 
L 34.409868 63.676053 
L 34.472948 63.973219 
L 34.54584 64.611592 
L 34.621535 64.905105 
L 34.073443 65.013339 
L 33.090803 65.673763 
L 32.64504 65.8297 
L 31.997422 65.602216 
L 31.503999 65.092221 
L 31.432509 64.562062 
L 32.056296 64.261218 
L 32.056296 63.984225 
L 31.764728 63.831973 
L 31.606328 63.567827 
L 31.555865 63.204633 
L 31.585302 62.751567 
L 31.236261 63.092741 
L 31.181592 63.650372 
L 31.030201 64.226364 
L 30.389592 64.600585 
L 30.389592 64.905105 
L 30.533974 65.156428 
L 30.671348 65.46646 
L 30.784891 65.805851 
L 30.857783 66.137909 
L 30.208764 66.319534 
L 29.970463 66.306692 
L 29.6831 66.137909 
L 28.801387 66.350723 
L 27.391206 65.857218 
L 24.97876 64.600585 
L 23.729783 64.261218 
L 22.363057 64.259383 
L 21.004742 64.501526 
L 18.569868 65.482971 
L 17.525549 66.257158 
L 16.718129 67.359788 
L 16.210689 68.937711 
L 16.118172 70.794696 
L 16.360678 72.688572 
L 17.173705 75.739 
L 17.173705 76.019841 
L 16.730745 76.61274 
L 16.52048 77.358021 
L 16.219099 77.741687 
L 15.506443 77.250982 
L 15.722081 76.222526 
L 15.892985 74.208475 
L 14.078022 69.037978 
L 13.92047 67.607229 
L 13.684587 67.144706 
L 13.081973 66.73229 
L 12.76776 66.675205 
L 12.352072 66.890731 
L 12.133991 66.874421 
L 11.941725 66.675205 
L 11.608818 66.037961 
L 11.426343 65.784001 
L 10.461449 65.046607 
L 10.145455 64.607447 
L 10.18462 64.042494 
L 10.488152 63.722169 
L 12.056551 62.576031 
L 13.581333 60.685762 
L 14.571151 60.025437 
L 15.544946 59.637639 
L 16.443972 59.062362 
L 17.205918 57.843162 
L 17.529033 56.515762 
L 17.630507 54.932326 
L 17.427558 51.79149 
L 17.15429 50.422643 
L 16.726141 49.258741 
L 16.150231 48.206642 
L 15.06873 46.636758 
L 14.762527 46.044451 
L 14.592514 45.407948 
L 14.633459 44.734235 
L 14.912068 44.345611 
L 15.937491 43.517196 
L 16.258826 43.034361 
L 16.264166 42.421237 
L 15.990898 42.202519 
L 15.827116 41.997765 
L 16.162692 41.419578 
L 16.564138 41.046153 
L 20.117513 39.160536 
L 21.148277 38.348657 
L 21.620354 37.346972 
L 21.647636 37.289085 
L 21.510557 36.865741 
L 20.622213 34.923609 
L 20.154898 34.522418 
L 18.58828 33.830532 
L 17.00653 32.317784 
L 16.232122 31.870149 
L 16.030064 31.716677 
L 15.876963 31.439965 
L 15.779939 31.085363 
L 15.656212 30.744719 
L 15.416769 30.514527 
L 15.098994 30.516852 
L 14.068231 31.076062 
L 14.063274 30.578208 
L 13.9899 23.210502 
L 13.936492 17.819433 
L 13.899107 14.095539 
L 13.98812 13.23264 
L 14.27741 12.604367 
L 14.920969 12.310562 
L 16.758185 11.985409 
L 17.271787 11.605685 
L 17.326974 11.239905 
L 17.168532 11.114496 
L 16.943331 11.026246 
L 16.79557 10.767306 
L 16.557017 9.534202 
L 16.139549 8.578672 
L 16.203638 8.161879 
L 16.594402 7.4479 
L 17.234402 6.747885 
L 17.86995 6.655016 
L 19.865608 7.682407 
L 21.303158 9.253226 
L 21.635174 9.413452 
L 21.912003 9.248582 
L 22.264492 9.762934 
L 22.705103 10.846265 
L 23.070944 11.37112 
L 23.410081 11.577816 
L 24.012695 11.817029 
L 24.652694 11.959862 
L 25.110218 11.868123 
L 25.332749 11.29332 
L 25.476949 9.569034 
L 25.721733 9.083714 
L 26.246016 9.192852 
L 26.772079 9.552779 
L 27.040007 9.53188 
z
" clip-path="url(#p0bcbf07d2b)" style="stroke: #000000; stroke-linejoin: miter"/>
   </g>
   <g id="line2d_1">
    <path d="M 26.669294 7.84672 
L 27.073004 8.166669 
L 30.38819 11.542065 
L 32.422158 14.18108 
L 33.718796 15.093773 
L 34.621535 14.303623 
L 34.386038 15.673608 
L 33.449656 17.780942 
L 33.357139 18.291354 
L 33.466477 18.909724 
L 33.759447 19.328692 
L 34.436502 20.01114 
L 34.408466 20.497836 
L 33.943079 20.975398 
L 33.076785 20.88757 
L 32.995482 21.39259 
L 32.824466 21.742088 
L 32.867921 21.965332 
L 33.036134 22.056826 
L 33.233783 22.005589 
L 33.573012 22.305693 
L 34.091666 23.434791 
L 34.171567 24.003944 
L 34.352396 24.432195 
L 35.584551 25.411358 
L 35.820049 25.411358 
L 36.079376 24.88974 
L 36.499907 24.823853 
L 36.698959 24.664626 
L 36.291044 23.846556 
L 36.749422 24.011265 
L 37.251256 25.411358 
L 37.628332 25.541307 
L 37.889061 25.343638 
L 38.008212 24.867778 
L 37.956346 24.154014 
L 38.193245 24.154014 
L 38.225486 24.746985 
L 38.469394 25.039818 
L 38.745543 25.083743 
L 38.877309 24.922684 
L 38.958612 23.972832 
L 39.108601 23.857536 
L 39.36933 24.154014 
L 39.443624 23.828255 
L 39.604828 23.846556 
L 39.766031 24.574948 
L 40.075822 25.076422 
L 40.309918 25.076422 
L 40.309918 24.768947 
L 40.545415 24.768947 
L 40.4543 25.444302 
L 40.514576 26.674289 
L 40.309918 27.225251 
L 39.259992 26.388748 
L 38.709097 26.123346 
L 37.830187 26.026338 
L 37.447504 26.375936 
L 37.342371 27.163015 
L 37.447504 28.003218 
L 37.699822 28.510289 
L 37.699822 28.788544 
L 36.996134 28.510289 
L 37.181167 29.151015 
L 38.005408 29.711213 
L 38.193245 30.187214 
L 37.956346 33.120408 
L 37.6031 32.948284 
L 37.467129 32.812783 
L 38.057274 33.55622 
L 38.891327 34.056136 
L 39.722576 34.164179 
L 40.309918 33.732013 
L 41.546279 34.253909 
L 41.985033 34.594524 
L 41.978024 34.962616 
L 43.060191 36.880118 
L 43.444276 36.830667 
L 44.100304 36.874623 
L 45.740375 36.218949 
L 46.508545 36.121882 
L 46.938888 36.352646 
L 47.300545 36.673156 
L 47.857048 36.83433 
L 48.360283 36.676819 
L 48.860715 36.284881 
L 49.159292 35.775742 
L 49.056963 35.27028 
L 49.445253 35.057844 
L 49.746633 35.056013 
L 50.231646 35.27028 
L 50.298931 35.440597 
L 50.63115 35.816033 
L 50.999816 36.039467 
L 51.170832 35.746439 
L 51.518471 35.632892 
L 53.54543 36.83433 
L 54.162209 36.446051 
L 54.333225 35.671352 
L 54.207066 33.871184 
L 51.877324 32.168253 
L 50.349395 29.431112 
L 49.899426 29.172983 
L 48.723341 27.94281 
L 48.585968 27.532772 
L 49.115837 27.541925 
L 49.990541 27.827486 
L 50.809175 27.928165 
L 51.170832 27.379011 
L 50.055023 26.696254 
L 49.519547 26.192899 
L 49.760651 25.691391 
L 50.467143 25.680409 
L 51.064297 26.258792 
L 51.877324 27.532772 
L 52.817912 28.510289 
L 52.767448 28.894722 
L 52.485692 29.011884 
L 51.877324 28.788544 
L 51.877324 29.096095 
L 52.429771 29.919311 
L 52.600317 30.577958 
L 52.855772 30.705839 
L 53.309822 30.705577 
L 54.629744 30.888299 
L 55.49389 32.095013 
L 56.035281 32.315995 
L 56.710627 34.012187 
L 57.195639 34.468166 
L 59.260446 38.297782 
L 60.646797 40.22299 
L 61.329459 40.801878 
L 61.905586 41.732536 
L 62.612078 42.366438 
L 63.957894 42.715749 
L 64.568436 42.463189 
L 66.358728 42.920979 
L 66.774731 42.755598 
L 67.735336 42.754665 
L 68.547172 43.430934 
L 70.390854 43.575895 
L 71.708184 43.244821 
L 73.539243 43.128929 
L 77.857728 42.366438 
L 78.126868 42.542323 
L 78.443668 42.452548 
L 78.760468 42.166738 
L 79.033813 41.750856 
L 81.73604 40.59491 
L 84.954414 38.901782 
L 86.224241 38.95662 
L 86.997269 38.676944 
L 88.714437 35.852661 
L 89.177021 35.435103 
L 89.469991 34.797797 
L 89.77838 34.654956 
L 90.290386 33.882063 
L 91.094504 33.392144 
L 92.825828 32.168253 
L 93.380832 31.431786 
L 95.371367 30.126223 
L 97.871209 28.767299 
L 101.263038 27.35599 
L 105.249715 26.947022 
L 105.771174 26.720049 
L 107.236024 25.691391 
L 108.441546 25.515683 
L 109.717156 25.076422 
L 110.861001 24.479779 
L 111.856257 23.755051 
L 113.08332 21.948734 
L 115.301112 19.33906 
L 115.380991 18.831837 
L 116.054864 17.413037 
L 116.923438 16.959829 
L 117.140288 16.986132 
L 117.267089 17.40226 
L 117.267089 19.548243 
L 117.45773 19.850131 
L 117.760512 20.075178 
L 118.113758 20.11909 
L 118.462799 19.883065 
L 118.719323 19.063405 
L 118.765582 18.155974 
L 118.957624 17.724231 
L 119.640286 18.320625 
L 119.404789 16.787607 
L 119.640286 17.065661 
L 119.875783 16.787607 
L 119.449631 16.006479 
L 119.766227 15.576517 
L 120.159832 15.806732 
L 120.810521 15.733661 
L 121.577892 16.168685 
L 122.462049 18.042549 
L 122.125624 15.739458 
L 122.462049 14.947446 
L 122.972293 14.345691 
L 124.001192 13.853694 
L 124.653015 13.250151 
L 124.930566 12.653946 
L 125.1596 12.176611 
L 125.987253 11.459575 
L 126.443891 9.221278 
L 127.053363 8.917245 
L 127.329671 8.588317 
L 127.163541 8.351568 
L 126.473915 8.64569 
L 126.279114 8.371162 
L 126.703344 7.995536 
L 126.88794 7.524504 
L 127.385872 7.244303 
L 128.064393 6.396635 
L 128.688796 6.163322 
L 129.238875 6.259709 
L 129.917324 5.978081 
L 130.798566 5.461328 
L 131.422163 5.68404 
L 131.781016 6.989291 
L 131.422163 7.247063 
L 131.422163 7.526778 
L 131.7684 7.822953 
L 131.893157 8.166669 
L 132.282849 7.793701 
L 132.382375 7.526778 
L 132.617872 7.526778 
L 133.109894 7.89974 
L 133.795359 8.166669 
L 133.81218 7.779075 
L 134.051883 6.939931 
L 134.234113 7.343957 
L 134.464003 7.50484 
L 134.716322 7.464619 
L 134.971444 7.247063 
L 136.278729 7.653372 
L 138.202625 7.929368 
L 141.521426 9.225432 
L 143.10446 9.491135 
L 143.750519 9.050695 
L 144.39574 8.80125 
L 145.781922 8.938989 
L 147.021093 8.50359 
L 148.110084 8.384995 
L 149.334904 8.1151 
L 150.79279 7.976363 
L 151.249994 8.337156 
L 151.248234 8.8427 
L 150.65742 9.260465 
L 150.232104 9.152615 
L 149.887166 9.487605 
L 148.462335 9.690285 
L 147.888992 9.8346 
L 147.510546 10.654207 
L 147.779215 13.161513 
L 148.384221 13.417611 
L 148.941431 13.252191 
L 149.300854 13.464816 
L 150.562172 13.198175 
L 150.938195 13.305632 
L 151.412645 13.308415 
L 152.376257 13.777303 
L 152.94634 14.380442 
L 153.110348 14.735275 
L 153.813013 14.628467 
L 154.859214 14.697748 
L 155.04209 14.278336 
L 155.417587 14.174953 
L 156.054606 14.368414 
L 157.035067 14.121634 
L 157.319205 13.7031 
L 157.905925 13.85413 
L 158.6814 13.585934 
L 159.142071 13.294007 
L 159.498213 13.884787 
L 160.057264 14.225513 
L 160.497805 14.167353 
L 161.643912 14.574379 
L 162.413369 14.473923 
L 162.869388 14.919286 
L 163.424994 15.028579 
L 163.916874 14.758506 
L 164.314223 14.331652 
L 164.891916 14.05558 
L 165.405594 14.220541 
L 166.069953 14.798926 
L 166.562674 15.046651 
L 167.697125 15.046166 
L 168.263481 15.558371 
L 168.637021 15.368446 
L 169.150124 15.569942 
L 169.899792 16.470887 
L 171.681778 17.509904 
L 172.573522 17.743326 
L 173.291011 18.253371 
L 173.80036 18.763622 
L 174.6699 19.277763 
L 175.449318 19.479616 
L 177.062842 20.696123 
L 177.602701 20.818651 
L 178.14356 20.708562 
L 179.340645 21.263895 
L 179.967585 21.774075 
L 180.301881 22.338631 
L 181.192196 22.600698 
L 182.300345 22.805125 
L 182.958033 23.122032 
L 183.382972 23.568384 
L 183.511935 24.146693 
L 184.254873 25.171595 
L 184.702801 25.258079 
L 185.309004 25.630991 
L 186.45443 27.327792 
L 188.013516 30.282532 
L 189.198894 31.313946 
L 188.443841 28.40755 
L 189.048926 28.788544 
L 189.76901 30.314555 
L 190.710503 31.145255 
L 190.837718 32.166993 
L 191.179937 32.665107 
L 191.607967 32.997772 
L 192.127213 33.578194 
L 192.247765 34.101917 
L 193.034119 35.39629 
L 192.696864 36.202739 
L 193.367779 37.200639 
L 193.84864 38.605017 
L 194.208692 39.100579 
L 194.527863 38.741437 
L 194.67666 38.823971 
L 194.718593 39.459043 
L 195.380965 39.98536 
L 196.085144 40.815015 
L 196.856785 41.974369 
L 197.515617 42.366438 
L 197.111907 41.71788 
L 196.915659 41.413762 
L 196.831553 40.968587 
L 197.008176 40.757911 
L 197.389457 41.175601 
L 197.877273 42.058645 
L 198.902429 43.086356 
L 198.771483 43.884444 
L 199.409894 44.574441 
L 199.60693 43.80673 
L 199.949161 43.890967 
L 200.245054 44.662821 
L 199.912608 46.605689 
L 200.347097 47.119201 
L 201.429358 48.081777 
L 202.247992 48.618775 
L 203.376417 48.868036 
L 204.444566 48.763566 
L 205.085175 48.235727 
L 205.387957 48.633438 
L 205.811291 48.851541 
L 205.76265 49.472893 
L 205.40304 49.802274 
L 204.290385 50.035055 
L 203.727827 50.494807 
L 203.692222 50.838174 
L 203.857785 51.296783 
L 203.89695 52.099961 
L 203.482153 53.22447 
L 202.130945 55.092992 
L 201.844325 56.429601 
L 201.842544 57.461233 
L 202.154088 57.722062 
L 203.190192 57.596305 
L 203.772333 57.84782 
L 204.130163 58.237908 
L 204.699842 59.497894 
L 205.200092 61.071253 
L 205.484932 64.163637 
L 205.782233 65.770022 
L 206.166766 66.547055 
L 206.604707 66.75792 
L 207.064011 66.79287 
L 207.505513 67.037523 
L 207.761869 67.504704 
L 208.509573 69.549486 
L 209.718361 71.870677 
L 210.71886 74.364649 
L 211.457663 77.884748 
L 211.521752 78.973547 
L 211.747843 79.631054 
L 212.785728 80.852865 
L 213.054545 81.559406 
L 212.856938 81.748288 
L 211.5805 81.729633 
L 210.544396 82.011793 
L 209.387235 82.513162 
L 208.329768 83.236089 
L 207.599866 84.187595 
L 206.718643 86.769495 
L 205.703902 88.448964 
L 205.591746 88.999489 
L 206.052831 90.322211 
L 206.759589 91.197076 
L 206.974999 92.032317 
L 205.963818 93.226914 
L 201.132225 97.14019 
L 199.562047 99.200979 
L 198.698627 100.108913 
L 197.917098 100.213947 
L 197.550367 99.69812 
L 197.132009 97.441244 
L 196.870312 96.843809 
L 195.825307 95.070281 
L 195.431872 94.857935 
L 195.433652 94.687593 
L 195.590314 94.167243 
L 195.255627 93.67024 
L 193.178078 91.507371 
L 192.352043 92.099978 
L 192.134853 93.758906 
L 192.296855 95.67933 
L 192.606618 97.074846 
L 193.384587 99.051605 
L 193.487841 100.020218 
L 193.178078 101.182616 
L 192.665367 102.018276 
L 192.006675 102.531828 
L 191.246509 102.68823 
L 190.424035 102.450125 
L 187.817606 113.359858 
L 187.79294 113.350869 
L 187.026172 113.063981 
L 186.033719 111.888884 
L 184.557655 109.480049 
L 183.733414 108.573591 
L 183.615666 108.0643 
L 183.893216 106.654164 
L 183.733414 106.200072 
L 183.537167 106.005202 
L 183.265223 106.367368 
L 182.99328 106.223972 
L 182.914781 105.935344 
L 182.984869 105.700032 
L 183.144671 105.722093 
L 182.732551 104.900361 
L 182.508267 104.736754 
L 182.183057 105.104412 
L 181.971389 105.104412 
L 180.590646 103.223911 
L 180.071991 102.749677 
L 179.822476 101.880277 
L 179.26317 101.486946 
L 178.656204 100.14159 
L 178.507616 100.81977 
L 178.430519 100.378675 
L 178.398278 98.796324 
L 178.227262 97.984062 
L 177.862802 97.803972 
L 177.530582 98.164153 
L 177.459092 98.965396 
L 177.269853 98.371812 
L 177.459092 97.059741 
L 177.185747 96.326562 
L 176.773626 95.856166 
L 176.040501 94.62143 
L 175.535864 94.121678 
L 174.871425 94.004091 
L 174.952727 93.508028 
L 174.80414 93.135071 
L 174.509768 92.879701 
L 174.164933 92.743749 
L 174.66957 91.259369 
L 174.647141 90.671527 
L 174.401832 89.914707 
L 173.203318 87.335859 
L 172.880911 85.892294 
L 172.132366 84.676552 
L 171.277286 83.5931 
L 170.638079 82.544597 
L 170.188111 81.154639 
L 169.897945 79.171784 
L 169.979247 78.654073 
L 169.910561 78.2043 
L 169.29238 76.752249 
L 169.204069 76.188714 
L 169.3877 75.338855 
L 169.792812 74.514731 
L 170.197924 74.208218 
L 170.596026 75.665578 
L 171.092253 75.948253 
L 171.647354 75.841791 
L 172.04826 75.404934 
L 173.026695 76.069401 
L 174.36118 75.177332 
L 175.541471 73.518122 
L 176.048911 71.873741 
L 175.983028 70.952511 
L 175.797995 70.387317 
L 173.69534 67.368961 
L 174.924692 67.435011 
L 175.362044 67.091922 
L 175.362044 66.752507 
L 175.062065 66.493823 
L 174.871425 66.137909 
L 175.227474 65.976465 
L 175.362044 65.521496 
L 176.584388 66.554366 
L 177.349754 66.444288 
L 177.404423 66.266331 
L 177.927283 65.382072 
L 177.927283 63.676053 
L 178.026809 63.593508 
L 178.656204 62.751567 
L 178.863665 61.937179 
L 178.869273 61.045796 
L 179.015057 60.8037 
L 179.340267 60.598287 
L 179.665478 60.539598 
L 179.80986 60.737674 
L 180.066384 62.751567 
L 180.407014 63.125758 
L 181.588706 63.852151 
L 182.076522 63.984225 
L 182.471821 64.274059 
L 182.766193 64.95647 
L 183.371758 67.104764 
L 183.708182 67.699213 
L 184.141329 68.12855 
L 184.662788 68.293682 
L 185.192657 68.062497 
L 185.562724 68.08268 
L 185.830462 68.724867 
L 186.374349 69.146887 
L 187.143921 69.216613 
L 187.143921 68.937711 
L 186.615453 68.787252 
L 186.133245 68.420284 
L 185.74916 67.919384 
L 185.519269 67.368961 
L 187.240643 67.79829 
L 188.1574 68.233133 
L 188.741938 69.09918 
L 189.566179 69.680849 
L 189.752615 70.000133 
L 189.894193 71.145195 
L 190.111468 71.475515 
L 190.457705 71.706742 
L 190.829174 71.431472 
L 191.213259 71.704907 
L 191.513238 72.323362 
L 191.635192 73.094166 
L 191.872091 73.595206 
L 192.407567 73.771399 
L 192.965471 73.569511 
L 193.282271 72.940003 
L 192.320657 72.951014 
L 191.054859 70.952511 
L 190.457705 71.091977 
L 188.687269 68.183593 
L 187.83219 67.473541 
L 184.770724 66.752507 
L 184.024983 66.369069 
L 183.430632 65.717792 
L 183.032529 64.85374 
L 182.888147 63.830138 
L 182.1382 61.865647 
L 181.919524 60.656976 
L 182.440982 59.983897 
L 181.653188 59.224651 
L 180.985945 58.107847 
L 180.834554 57.365184 
L 180.936883 56.941604 
L 181.243871 56.263165 
L 181.193407 55.69843 
L 180.301881 55.031039 
L 179.987885 53.747666 
L 179.598193 53.492835 
L 179.73837 53.908999 
L 179.766405 55.043873 
L 179.940225 55.478408 
L 180.583637 56.046803 
L 180.618681 57.92447 
L 181.142943 59.861022 
L 180.985945 60.290173 
L 180.772876 60.290173 
L 179.701924 58.16286 
L 179.362696 57.799776 
L 178.825818 57.796108 
L 178.367439 58.181198 
L 178.047835 58.883551 
L 177.927283 59.829845 
L 177.722625 60.521258 
L 177.209577 61.053132 
L 176.561959 61.397942 
L 175.940975 61.522662 
L 175.646603 61.37043 
L 175.519042 61.018285 
L 175.577917 60.290173 
L 175.776968 59.983897 
L 176.773626 59.340186 
L 177.000713 59.563924 
L 177.244621 59.675793 
L 177.286674 58.195868 
L 177.108649 56.826085 
L 176.538129 54.389341 
L 176.281605 54.389341 
L 176.040501 55.032872 
L 176.208713 55.445405 
L 176.536727 55.797441 
L 176.773626 56.263165 
L 176.724564 57.062626 
L 176.290016 58.236212 
L 176.538129 58.724006 
L 176.430193 59.158631 
L 176.048911 59.340186 
L 175.89752 58.977078 
L 175.362044 58.443431 
L 175.308777 58.001488 
L 175.44615 58.014325 
L 175.577917 57.799776 
L 175.947984 56.936103 
L 175.907333 56.508867 
L 175.362044 56.263165 
L 175.527453 56.826085 
L 175.453159 57.090131 
L 175.106922 57.491709 
L 174.635927 58.724006 
L 174.082228 58.830369 
L 173.779446 58.333403 
L 173.459842 56.87926 
L 173.203318 57.212987 
L 173.169676 57.794274 
L 172.694476 58.698332 
L 172.067885 59.477729 
L 171.577265 59.675793 
L 171.260465 58.918394 
L 170.901612 56.252164 
L 170.638079 55.340896 
L 170.851148 54.724854 
L 170.638079 54.724854 
L 170.638079 55.031039 
L 170.381555 55.031039 
L 170.381555 54.108834 
L 170.167085 54.108834 
L 170.035318 55.214386 
L 170.663311 57.451368 
L 170.996932 59.609772 
L 171.643148 60.301177 
L 171.793138 61.045796 
L 170.851148 63.676053 
L 170.713775 63.287176 
L 169.910561 62.751567 
L 169.115757 61.482311 
L 168.734476 61.185186 
L 168.919509 60.634968 
L 168.892876 59.829845 
L 168.728869 59.015589 
L 168.497577 58.443431 
L 168.103679 58.971576 
L 168.008359 59.675793 
L 167.848557 59.246658 
L 167.472883 58.624979 
L 167.321492 58.107847 
L 167.301867 57.473372 
L 167.556989 55.955125 
L 167.321492 55.170382 
L 165.911311 52.84936 
L 166.428564 52.882358 
L 167.144869 53.085848 
L 167.556989 52.84936 
L 166.993477 52.277401 
L 166.802837 51.809949 
L 166.8533 50.235368 
L 164.714199 49.467376 
L 164.972125 48.571123 
L 164.62729 48.604113 
L 164.478702 48.851541 
L 164.195544 48.609611 
L 163.93061 48.633438 
L 163.430178 48.851541 
L 163.127396 48.626106 
L 162.90872 48.098272 
L 162.597527 47.005998 
L 163.088146 46.487375 
L 163.270376 45.671905 
L 163.232529 44.744698 
L 163.068521 43.903658 
L 162.811998 43.903658 
L 162.762936 44.629258 
L 162.900309 45.558292 
L 162.879282 46.203331 
L 162.362029 46.082384 
L 161.7845 46.905204 
L 160.727566 45.113009 
L 159.774362 45.133166 
L 159.101512 44.590779 
L 158.413243 42.677902 
L 157.870758 42.058645 
L 157.870758 41.750856 
L 158.128684 41.750856 
L 158.128684 41.443074 
L 157.61844 41.248881 
L 156.673647 39.907908 
L 156.948394 40.658986 
L 157.00867 41.248881 
L 156.791396 41.703223 
L 156.226482 42.058645 
L 155.709229 42.16857 
L 155.360188 41.996354 
L 154.685937 40.968587 
L 154.444833 40.255964 
L 154.123827 38.654964 
L 149.597512 35.577951 
L 147.794836 35.061507 
L 146.774347 34.012187 
L 146.730892 33.572701 
L 147.029469 32.644324 
L 146.993023 30.930533 
L 146.718276 30.436204 
L 146.067855 30.353817 
L 146.067855 30.018781 
L 146.806588 29.949212 
L 147.371501 29.557432 
L 147.761193 28.934996 
L 147.971459 28.177121 
L 148.18593 28.177121 
L 148.490114 28.784883 
L 148.825137 28.761085 
L 149.381639 28.177121 
L 150.393717 27.618806 
L 150.559126 27.225251 
L 150.339048 27.368028 
L 149.597512 27.532772 
L 149.367622 27.767078 
L 148.783084 28.510289 
L 148.506935 28.374825 
L 148.310687 27.858605 
L 147.971459 27.869588 
L 147.75839 28.103899 
L 147.138808 29.096095 
L 146.754723 29.616015 
L 145.678163 30.013289 
L 145.620691 30.353817 
L 145.832358 30.661397 
L 146.276719 30.831666 
L 146.679027 31.219815 
L 146.774347 32.168253 
L 146.617349 32.721229 
L 146.261299 33.486636 
L 145.780492 34.021343 
L 145.022135 33.721026 
L 144.18668 33.424377 
L 143.982022 32.864053 
L 143.802595 32.743202 
L 143.715685 33.274223 
L 143.131147 33.523259 
L 140.362651 32.889689 
L 139.246843 33.120408 
L 139.246843 32.812783 
L 138.400173 33.153368 
L 136.453115 32.908 
L 135.677936 33.424377 
L 135.37235 33.120408 
L 135.052747 33.155199 
L 134.720527 33.325495 
L 133.432301 33.732013 
L 133.174375 33.830897 
L 132.86178 34.501129 
L 131.893157 35.27028 
L 131.789426 36.354477 
L 131.422163 36.497333 
L 132.146878 38.341742 
L 131.694106 37.929617 
L 131.137603 37.209797 
L 130.670814 36.363634 
L 130.481575 35.577951 
L 130.267104 35.577951 
L 130.481575 36.497333 
L 130.267104 36.497333 
L 130.515217 37.614577 
L 130.354014 38.583527 
L 129.850778 39.056116 
L 129.068591 38.676944 
L 127.495805 39.03963 
L 127.00098 39.373014 
L 127.188817 40.188184 
L 126.330934 39.715564 
L 125.990304 39.907908 
L 125.767423 39.644122 
L 125.540336 39.600159 
L 125.637058 40.061785 
L 125.775833 40.523423 
L 125.184286 40.391525 
L 124.623578 40.765239 
L 124.163798 41.406433 
L 123.87223 42.058645 
L 123.726445 42.927077 
L 123.946523 45.866148 
L 124.343224 46.236316 
L 124.239493 46.762262 
L 123.392824 48.532635 
L 122.963883 48.802055 
L 122.529334 48.919355 
L 122.462049 49.467376 
L 121.874317 49.668607 
L 121.313057 50.032623 
L 121.747817 50.593915 
L 122.921958 50.938532 
L 124.033209 50.359726 
L 125.464502 49.400604 
L 125.592323 49.185741 
L 125.758525 49.185625 
L 125.771336 49.565612 
L 125.643531 49.896108 
L 124.480572 51.069685 
L 123.101514 52.689198 
L 121.313482 53.50005 
L 120.010599 53.914347 
L 119.755414 54.344105 
L 119.748222 55.18505 
L 119.463663 55.434404 
L 118.933794 55.617755 
L 118.167026 56.479529 
L 117.853029 56.57121 
L 117.667996 56.761907 
L 117.087663 57.972148 
L 116.355939 58.793692 
L 112.543125 62.052732 
L 108.592937 64.705149 
L 107.579457 65.240815 
L 105.628193 65.471964 
L 104.993192 65.240815 
L 104.690409 65.349051 
L 103.815705 65.8297 
L 102.876519 65.521496 
L 102.213482 64.820719 
L 102.384498 64.600585 
L 102.039662 64.776692 
L 101.935931 65.521496 
L 101.307938 66.053518 
L 99.129588 68.866151 
L 98.856243 69.691859 
L 98.927733 74.538592 
L 98.641772 75.094735 
L 99.201078 75.441644 
L 99.924391 77.587486 
L 100.433234 77.725166 
L 101.746692 78.474163 
L 102.149 78.848672 
L 103.311068 79.302132 
L 104.038586 80.925132 
L 104.534813 82.814521 
L 104.993192 84.0834 
L 108.285949 87.502996 
L 110.375988 89.977162 
L 113.524364 95.198366 
L 115.130792 99.029717 
L 115.552725 100.362134 
L 115.513475 101.235144 
L 114.983606 102.961059 
L 114.714466 103.341552 
L 114.293935 103.472061 
L 113.091217 103.604409 
L 110.660548 104.795579 
L 108.490608 104.791902 
L 108.071478 105.104412 
L 107.653751 104.852566 
L 106.728583 104.569472 
L 106.404774 104.179765 
L 106.169277 104.179765 
L 105.862289 104.378294 
L 104.757694 104.795579 
L 104.757694 105.104412 
L 105.560908 104.922421 
L 106.169277 104.516162 
L 106.404774 104.795579 
L 103.927846 105.854455 
L 103.011089 106.720348 
L 102.876519 107.908022 
L 103.465262 109.187698 
L 103.355924 109.601404 
L 102.263945 109.849631 
L 101.770522 110.318513 
L 101.678006 110.531811 
L 101.589694 111.03013 
L 100.716391 111.613049 
L 100.567804 111.988185 
L 100.546777 112.580326 
L 100.266423 112.845139 
L 100.005694 112.872724 
L 98.983804 112.536191 
L 94.519166 113.286503 
L 90.762423 114.202362 
L 87.998132 114.33294 
L 87.053339 114.080981 
L 86.698692 114.432253 
L 86.522069 114.343974 
L 86.346847 114.080981 
L 86.11135 114.080981 
L 85.640355 114.687894 
L 85.252065 114.378918 
L 84.516136 112.983065 
L 83.961035 112.606071 
L 83.300801 112.392751 
L 83.285382 112.072776 
L 83.633021 111.613049 
L 83.773198 111.41445 
L 83.760582 110.068441 
L 83.940008 109.748501 
L 84.462869 109.14357 
L 84.587626 108.540496 
L 84.61426 107.70762 
L 84.474083 106.964863 
L 83.595173 106.268094 
L 83.607789 105.420603 
L 83.973651 104.025355 
L 83.805438 103.438974 
L 82.019584 100.942911 
L 82.440115 100.62679 
L 82.728879 98.875346 
L 82.40507 98.245011 
L 81.599053 97.368456 
L 81.599053 97.059741 
L 81.855576 97.059741 
L 81.855576 96.751031 
L 80.188872 94.592032 
L 79.457148 94.088606 
L 79.504808 93.666032 
L 79.667414 93.263676 
L 79.921134 92.982583 
L 80.264568 92.881538 
L 80.680893 93.021165 
L 80.514083 92.633519 
L 79.692645 91.939084 
L 79.38706 91.817836 
L 79.335194 91.604735 
L 79.975803 90.249027 
L 79.265106 90.226983 
L 78.77729 89.91287 
L 79.045028 89.833883 
L 79.033813 89.631825 
L 78.237608 89.433443 
L 77.913799 88.786878 
L 77.936228 88.099926 
L 78.554408 87.475446 
L 78.784298 87.262392 
L 79.583307 87.166886 
L 79.929544 87.086074 
L 80.146819 86.819763 
L 80.188872 86.241238 
L 79.975803 86.241238 
L 79.196419 86.819763 
L 78.953913 85.614981 
L 79.033813 82.825539 
L 78.288072 84.626969 
L 77.76381 85.232992 
L 77.367109 84.364364 
L 77.152638 84.364364 
L 77.3601 85.199936 
L 77.561955 85.449696 
L 77.85913 85.624163 
L 77.85913 85.934535 
L 75.975151 85.839035 
L 75.54621 85.414803 
L 75.121473 85.31747 
L 74.250974 84.985071 
L 73.991647 83.618808 
L 73.367859 83.442523 
L 73.708489 83.626153 
L 73.809417 83.785913 
L 73.838854 84.0834 
L 73.381877 84.279891 
L 73.465983 84.639824 
L 74.074351 85.31747 
L 74.77804 85.780267 
L 74.566373 86.775684 
L 75.20558 88.34054 
L 74.870557 89.514265 
L 74.103788 90.474972 
L 73.367859 91.173029 
L 73.191236 90.588863 
L 73.367859 89.91287 
L 72.406245 89.91287 
L 72.406245 90.249027 
L 72.770705 90.37945 
L 72.973962 90.651321 
L 73.367859 91.481652 
L 72.902472 91.709448 
L 72.700617 91.676381 
L 72.406245 91.481652 
L 72.898266 92.40755 
L 73.111335 92.40755 
L 74.074351 91.817836 
L 74.221537 92.324878 
L 74.145842 94.810678 
L 74.074351 95.516239 
L 73.943987 95.736732 
L 73.111335 96.469888 
L 72.816964 96.185075 
L 71.464256 95.361895 
L 71.27782 94.794141 
L 70.848879 94.58652 
L 70.054075 94.592032 
L 67.204277 93.55396 
L 66.269296 93.666032 
L 65.896425 92.690471 
L 65.349735 92.126469 
L 64.55353 92.385504 
L 63.535845 92.269764 
L 62.766273 91.841718 
L 62.720015 91.173029 
L 63.011583 91.053623 
L 63.654995 90.612744 
L 64.041884 90.136974 
L 62.687774 89.624477 
L 62.309296 89.769591 
L 62.270046 90.555798 
L 61.476645 89.817351 
L 61.072935 89.631825 
L 61.072935 89.323231 
L 61.29862 88.926475 
L 60.622967 87.642584 
L 60.681841 86.902411 
L 60.837438 86.419385 
L 61.329459 85.624163 
L 61.329459 85.31747 
L 60.833232 85.023637 
L 60.589324 85.086076 
L 60.366443 85.31747 
L 60.154776 85.31747 
L 59.895448 85.008945 
L 59.895448 84.672879 
L 60.217855 84.33131 
L 60.21365 84.006273 
L 59.933296 83.789586 
L 59.427257 83.778568 
L 59.763682 81.912953 
L 60.366443 82.208574 
L 60.137954 81.52553 
L 59.662754 80.976541 
L 59.822556 80.640546 
L 59.763682 79.983261 
L 59.895448 79.434317 
L 59.474917 79.660135 
L 59.214188 79.638104 
L 59.212786 80.205413 
L 59.431462 81.167492 
L 59.317919 81.312542 
L 59.062797 81.261132 
L 58.884772 81.108738 
L 58.741791 80.528549 
L 58.628248 80.032832 
L 57.780177 78.512715 
L 57.073685 76.353918 
L 56.821367 77.4186 
L 56.838188 77.868354 
L 56.476531 77.40575 
L 56.407844 76.118962 
L 55.877975 75.739 
L 55.877975 75.403098 
L 56.438683 75.72248 
L 56.66577 75.661907 
L 56.838188 75.403098 
L 57.073685 75.403098 
L 57.267129 75.588486 
L 57.54468 75.739 
L 56.369997 72.940003 
L 55.268205 71.007563 
L 55.171483 70.167116 
L 54.957012 70.167116 
L 54.675257 71.169051 
L 54.784595 71.54892 
L 55.171483 71.706742 
L 54.208467 73.24833 
L 53.995398 73.24833 
L 53.377218 72.633515 
L 50.378832 71.002058 
L 48.089741 70.183631 
L 48.225713 69.515705 
L 48.800439 68.293682 
L 48.384113 68.46065 
L 47.921529 68.849637 
L 47.544453 69.389095 
L 47.387455 70.000133 
L 47.174386 70.134087 
L 46.699186 69.746907 
L 45.975872 68.937711 
L 45.469833 69.423958 
L 44.352623 69.334047 
L 43.221394 68.878995 
L 42.662088 68.293682 
L 42.447617 68.293682 
L 42.388743 69.113859 
L 41.523851 71.598468 
L 41.449557 71.515887 
L 41.251907 71.398439 
L 41.251907 71.706742 
L 41.037437 71.706742 
L 41.345826 70.324927 
L 41.037437 70.475398 
L 41.131355 69.82948 
L 41.249104 69.64782 
L 41.487405 69.554238 
L 41.487405 69.214778 
L 41.024821 69.267991 
L 40.431872 69.719383 
L 39.956672 69.831315 
L 39.659497 69.699199 
L 39.220743 69.097345 
L 38.877309 68.937711 
L 38.877309 68.629455 
L 39.209529 68.392761 
L 39.36933 68.293682 
L 38.969826 66.901115 
L 38.934782 66.27 
L 39.133833 65.8297 
L 39.133833 65.521496 
L 38.931978 65.317865 
L 38.892729 65.092221 
L 39.133833 64.600585 
L 39.201118 64.925284 
L 39.36933 64.905105 
L 39.201118 64.303409 
L 39.241769 63.841144 
L 39.520722 63.516466 
L 40.075822 63.340371 
L 38.84647 63.351377 
L 38.662838 63.507294 
L 38.076898 65.240815 
L 37.405451 65.161932 
L 36.883992 64.87025 
L 36.631674 64.286899 
L 36.781663 63.340371 
L 35.613989 63.89801 
L 35.004219 63.945703 
L 34.409868 63.676053 
L 34.621535 64.905105 
L 34.073443 65.013339 
L 33.090803 65.673763 
L 32.64504 65.8297 
L 31.997422 65.602216 
L 31.503999 65.092221 
L 31.432509 64.562062 
L 32.056296 64.261218 
L 32.056296 63.984225 
L 31.764728 63.831973 
L 31.606328 63.567827 
L 31.585302 62.751567 
L 31.236261 63.092741 
L 31.030201 64.226364 
L 30.389592 64.600585 
L 30.389592 64.905105 
L 30.784891 65.805851 
L 30.857783 66.137909 
L 29.970463 66.306692 
L 29.6831 66.137909 
L 28.801387 66.350723 
L 27.391206 65.857218 
L 24.97876 64.600585 
L 23.729783 64.261218 
L 22.363057 64.259383 
L 21.004742 64.501526 
L 18.569868 65.482971 
L 17.525549 66.257158 
L 16.718129 67.359788 
L 16.210689 68.937711 
L 16.118172 70.794696 
L 16.360678 72.688572 
L 17.173705 76.019841 
L 16.730745 76.61274 
L 16.52048 77.358021 
L 16.219099 77.741687 
L 15.506443 77.250982 
L 15.722081 76.222526 
L 15.892985 74.208475 
L 14.078022 69.037978 
L 13.92047 67.607229 
L 13.684587 67.144706 
L 13.081973 66.73229 
L 12.76776 66.675205 
L 12.352072 66.890731 
L 12.133991 66.874421 
L 11.941725 66.675205 
L 11.426343 65.784001 
L 10.461449 65.046607 
L 10.145455 64.607447 
L 10.18462 64.042494 
L 10.488152 63.722169 
L 12.056551 62.576031 
L 13.581333 60.685762 
L 14.571151 60.025437 
L 15.544946 59.637639 
L 16.443972 59.062362 
L 17.205918 57.843162 
L 17.529033 56.515762 
L 17.630507 54.932326 
L 17.427558 51.79149 
L 17.15429 50.422643 
L 16.726141 49.258741 
L 16.150231 48.206642 
L 14.762527 46.044451 
L 14.592514 45.407948 
L 14.633459 44.734235 
L 14.912068 44.345611 
L 15.937491 43.517196 
L 16.258826 43.034361 
L 16.264166 42.421237 
L 15.827116 41.997765 
L 16.162692 41.419578 
L 16.564138 41.046153 
L 20.117513 39.160536 
L 21.148277 38.348657 
L 21.647636 37.289085 
L 21.510557 36.865741 
L 20.622213 34.923609 
L 20.154898 34.522418 
L 18.58828 33.830532 
L 17.00653 32.317784 
L 16.030064 31.716677 
L 15.779939 31.085363 
L 15.656212 30.744719 
L 15.416769 30.514527 
L 15.098994 30.516852 
L 14.068231 31.076062 
L 13.98812 13.23264 
L 14.27741 12.604367 
L 14.920969 12.310562 
L 16.758185 11.985409 
L 17.271787 11.605685 
L 17.326974 11.239905 
L 16.79557 10.767306 
L 16.557017 9.534202 
L 16.139549 8.578672 
L 16.203638 8.161879 
L 16.594402 7.4479 
L 17.234402 6.747885 
L 17.86995 6.655016 
L 19.865608 7.682407 
L 21.303158 9.253226 
L 21.635174 9.413452 
L 21.912003 9.248582 
L 22.264492 9.762934 
L 22.705103 10.846265 
L 23.070944 11.37112 
L 24.012695 11.817029 
L 24.652694 11.959862 
L 25.110218 11.868123 
L 25.332749 11.29332 
L 25.476949 9.569034 
L 25.721733 9.083714 
L 26.246016 9.192852 
L 26.772079 9.552779 
L 27.040007 9.53188 
L 26.669294 7.84672 
L 26.669294 7.84672 
" clip-path="url(#p0bcbf07d2b)" style="fill: none; stroke: #000000; stroke-width: 0.5; stroke-linecap: square"/>
   </g>
  </g>
 </g>
 <defs>
  <clipPath id="p0bcbf07d2b">
   <rect x="0" y="0" width="223.2" height="120.149222"/>
  </clipPath>
 </defs>
</svg>
