<?xml version="1.0" encoding="utf-8" standalone="no"?>
<!DOCTYPE svg PUBLIC "-//W3C//DTD SVG 1.1//EN"
  "http://www.w3.org/Graphics/SVG/1.1/DTD/svg11.dtd">
<svg xmlns:xlink="http://www.w3.org/1999/xlink" width="223.2pt" height="97.990889pt" viewBox="0 0 223.2 97.990889" xmlns="http://www.w3.org/2000/svg" version="1.1">
 <metadata>
  <rdf:RDF xmlns:dc="http://purl.org/dc/elements/1.1/" xmlns:cc="http://creativecommons.org/ns#" xmlns:rdf="http://www.w3.org/1999/02/22-rdf-syntax-ns#">
   <cc:Work>
    <dc:type rdf:resource="http://purl.org/dc/dcmitype/StillImage"/>
    <dc:date>2026-04-26T19:22:31.282425</dc:date>
    <dc:format>image/svg+xml</dc:format>
    <dc:creator>
     <cc:Agent>
      <dc:title>Matplotlib v3.10.9, https://matplotlib.org/</dc:title>
     </cc:Agent>
    </dc:creator>
   </cc:Work>
  </rdf:RDF>
 </metadata>
 <defs>
  <style type="text/css">*{stroke-linejoin: round; stroke-linecap: butt}</style>
 </defs>
 <g id="figure_1">
  <g id="patch_1">
   <path d="M 0 97.990889 
L 223.2 97.990889 
L 223.2 0 
L 0 0 
z
" style="fill: #ffffff"/>
  </g>
  <g id="axes_1">
   <g id="patch_2">
    <path d="M 36.487375 5.017874 
L 36.487375 13.680474 
L 189.957644 13.680474 
L 193.775319 18.402588 
L 196.447681 18.213509 
L 200.647127 22.187482 
L 199.883585 27.307164 
L 206.182737 33.19963 
L 211.527461 33.38993 
L 213.054545 35.865711 
L 208.473328 38.344126 
L 206.564508 42.162295 
L 197.78388 49.434103 
L 200.647127 53.078515 
L 195.302368 59.229209 
L 195.684139 63.274285 
L 200.074471 64.43129 
L 200.456242 68.871581 
L 210.382183 76.031881 
L 208.664214 79.134765 
L 197.97473 84.963281 
L 197.402109 87.688015 
L 188.048824 90.610667 
L 180.98613 89.636055 
L 175.068749 93.536758 
L 46.413316 93.536758 
L 10.145455 93.536758 
L 10.145455 61.154597 
L 10.145455 14.435318 
L 16.635492 12.548637 
L 36.487375 4.454131 
z
" clip-path="url(#pbd2ec01a77)" style="stroke: #000000; stroke-linejoin: miter"/>
   </g>
   <g id="line2d_1">
    <path d="M 36.487375 5.017874 
L 36.487375 13.680474 
L 189.957644 13.680474 
L 193.775319 18.402588 
L 196.447681 18.213509 
L 200.647127 22.187482 
L 199.883585 27.307164 
L 206.182737 33.19963 
L 211.527461 33.38993 
L 213.054545 35.865711 
L 208.473328 38.344126 
L 206.564508 42.162295 
L 197.78388 49.434103 
L 200.647127 53.078515 
L 195.302368 59.229209 
L 195.684139 63.274285 
L 200.074471 64.43129 
L 200.456242 68.871581 
L 210.382183 76.031881 
L 208.664214 79.134765 
L 197.97473 84.963281 
L 197.402109 87.688015 
L 188.048824 90.610667 
L 180.98613 89.636055 
L 175.068749 93.536758 
L 46.413316 93.536758 
L 10.145455 93.536758 
L 10.145455 61.154597 
L 10.145455 14.435318 
L 16.635492 12.548637 
L 36.487375 4.454131 
L 36.487375 5.017874 
" clip-path="url(#pbd2ec01a77)" style="fill: none; stroke: #000000; stroke-width: 0.5; stroke-linecap: square"/>
   </g>
  </g>
 </g>
 <defs>
  <clipPath id="pbd2ec01a77">
   <rect x="0" y="-0" width="223.2" height="97.990889"/>
  </clipPath>
 </defs>
</svg>
