<?xml version="1.0" encoding="utf-8" standalone="no"?>
<!DOCTYPE svg PUBLIC "-//W3C//DTD SVG 1.1//EN"
  "http://www.w3.org/Graphics/SVG/1.1/DTD/svg11.dtd">
<svg xmlns:xlink="http://www.w3.org/1999/xlink" width="223.2pt" height="107.017665pt" viewBox="0 0 223.2 107.017665" xmlns="http://www.w3.org/2000/svg" version="1.1">
 <metadata>
  <rdf:RDF xmlns:dc="http://purl.org/dc/elements/1.1/" xmlns:cc="http://creativecommons.org/ns#" xmlns:rdf="http://www.w3.org/1999/02/22-rdf-syntax-ns#">
   <cc:Work>
    <dc:type rdf:resource="http://purl.org/dc/dcmitype/StillImage"/>
    <dc:date>2026-04-26T19:21:59.181384</dc:date>
    <dc:format>image/svg+xml</dc:format>
    <dc:creator>
     <cc:Agent>
      <dc:title>Matplotlib v3.10.9, https://matplotlib.org/</dc:title>
     </cc:Agent>
    </dc:creator>
   </cc:Work>
  </rdf:RDF>
 </metadata>
 <defs>
  <style type="text/css">*{stroke-linejoin: round; stroke-linecap: butt}</style>
 </defs>
 <g id="figure_1">
  <g id="patch_1">
   <path d="M 0 107.017665 
L 223.2 107.017665 
L 223.2 0 
L 0 0 
z
" style="fill: #ffffff"/>
  </g>
  <g id="axes_1">
   <g id="patch_2">
    <path d="M 105.517458 93.060461 
L 105.603275 92.768041 
L 105.544668 92.406049 
L 105.253727 91.659918 
L 105.163724 91.501731 
L 104.925111 91.196285 
L 104.830922 91.028246 
L 104.69487 90.426826 
L 104.611146 90.290526 
L 104.307647 90.164175 
L 103.991589 90.194859 
L 103.675532 90.271572 
L 103.380405 90.285111 
L 103.125047 90.199371 
L 102.727358 89.93679 
L 102.463628 89.815903 
L 102.17478 89.767193 
L 101.551037 89.736524 
L 101.281028 89.630998 
L 101.153349 89.500235 
L 100.950318 88.992704 
L 100.473092 88.444944 
L 100.121451 87.915536 
L 100.113079 87.448526 
L 100.669843 87.089669 
L 100.131917 86.928727 
L 100.044007 86.715684 
L 100.094241 86.44878 
L 99.968655 86.133457 
L 99.669342 86.032866 
L 98.871872 86.315809 
L 98.400925 86.316708 
L 96.895988 85.855962 
L 96.113169 85.701538 
L 95.296861 85.757199 
L 95.340816 85.757199 
L 95.376399 85.767075 
L 95.403609 85.786827 
L 95.426633 85.816456 
L 94.859403 86.090345 
L 94.56637 86.122679 
L 94.164495 85.940369 
L 94.051468 85.822741 
L 93.91123 85.553426 
L 93.825413 85.458288 
L 93.584707 85.359572 
L 93.109574 85.304834 
L 92.870961 85.245614 
L 92.232566 84.941501 
L 91.92488 84.847329 
L 90.631346 84.71192 
L 90.367615 84.543361 
L 90.499481 84.22337 
L 89.31688 83.796905 
L 89.029886 83.757342 
L 88.693137 83.710922 
L 88.78314 84.103293 
L 88.889888 84.128382 
L 89.051057 84.100605 
L 89.224784 84.103293 
L 89.367115 84.22337 
L 89.402697 84.396347 
L 89.300136 84.47254 
L 88.64081 84.581014 
L 87.828688 84.594463 
L 87.460303 84.647361 
L 86.86377 84.941501 
L 86.126999 85.065286 
L 85.390229 84.979173 
L 84.077857 84.258321 
L 83.849709 84.084476 
L 83.690633 83.877523 
L 83.577606 83.663455 
L 83.439462 83.471826 
L 83.2155 83.324104 
L 83.025028 83.219372 
L 82.962235 83.120022 
L 83.027121 83.025159 
L 83.2155 82.93657 
L 83.223873 82.924043 
L 83.228059 82.910622 
L 83.223873 82.894516 
L 83.2155 82.877516 
L 82.930839 82.844412 
L 82.380354 82.694117 
L 82.114531 82.654758 
L 81.898942 82.682488 
L 81.727308 82.737056 
L 81.522184 82.757631 
L 81.206126 82.67891 
L 80.22237 81.994884 
L 80.180508 81.86887 
L 80.329118 81.694626 
L 80.550987 81.632979 
L 81.528463 81.612431 
L 82.068483 81.4963 
L 82.930839 81.213187 
L 83.341086 81.018547 
L 83.531558 80.757014 
L 83.2155 80.437574 
L 83.002004 80.321607 
L 82.955956 80.147686 
L 82.995725 79.989851 
L 83.2155 79.66714 
L 83.261548 79.612773 
L 83.2762 79.561083 
L 83.265735 79.514743 
L 83.2155 79.475535 
L 82.842929 79.201125 
L 82.729901 79.143226 
L 82.386633 79.073752 
L 82.254768 79.120067 
L 82.202441 79.237649 
L 82.089414 79.378412 
L 81.488694 79.832046 
L 81.14124 79.987176 
L 80.672386 80.054052 
L 78.861857 79.879295 
L 77.896939 79.927439 
L 77.302499 80.321607 
L 77.197844 80.359964 
L 77.091096 80.372452 
L 76.982255 80.359072 
L 76.879693 80.321607 
L 76.691314 80.000551 
L 76.249671 79.805302 
L 75.801748 79.824023 
L 75.581972 80.13966 
L 75.311963 80.028192 
L 75.171725 79.850767 
L 75.131956 79.632381 
L 75.157073 79.407815 
L 75.064977 79.364156 
L 74.981253 79.314264 
L 74.910088 79.256356 
L 74.853574 79.191327 
L 75.226146 79.109379 
L 74.807526 79.012299 
L 73.85726 79.027439 
L 73.375847 78.951741 
L 72.662101 78.705993 
L 72.463257 78.588487 
L 72.341857 78.438958 
L 72.216271 78.216495 
L 72.147199 78.029672 
L 72.191154 77.981639 
L 71.954634 77.942503 
L 71.33717 78.011882 
L 71.058788 78.010103 
L 70.799244 77.935387 
L 70.328297 77.720173 
L 70.106428 77.646373 
L 68.025889 77.329908 
L 67.557035 77.360127 
L 67.257629 77.262638 
L 66.686307 77.076645 
L 66.223732 77.04466 
L 65.673247 77.225927 
L 65.67534 77.465902 
L 66.324201 77.986086 
L 66.554441 78.301024 
L 66.705144 78.667713 
L 66.903989 79.001612 
L 67.282839 79.214487 
L 67.776811 79.372175 
L 68.145196 79.593166 
L 68.358692 79.902475 
L 68.387995 80.321607 
L 68.651725 80.512516 
L 68.691494 80.740058 
L 68.561722 80.887324 
L 68.31683 80.836447 
L 68.101241 80.659742 
L 68.007051 80.555343 
L 67.885652 80.509839 
L 67.588432 80.507163 
L 67.531918 80.55445 
L 67.536104 80.763262 
L 67.48587 80.826629 
L 67.30377 80.83377 
L 66.929106 80.760584 
L 66.751193 80.764154 
L 66.508393 80.856084 
L 66.171404 81.11229 
L 65.980933 81.205151 
L 65.754072 81.236841 
L 65.507892 81.271231 
L 65.101831 81.25605 
L 64.699957 81.288198 
L 64.245754 81.50166 
L 63.881555 81.803636 
L 63.66178 82.037787 
L 63.414795 82.229983 
L 62.964779 82.408809 
L 62.341035 82.876621 
L 61.518448 82.909727 
L 60.66865 82.667281 
L 59.971649 82.314027 
L 59.615822 82.058345 
L 59.42535 81.842061 
L 59.195109 81.252478 
L 58.975334 80.925707 
L 58.362056 80.575864 
L 58.104605 80.321607 
L 57.811572 80.103989 
L 57.29667 79.592275 
L 57.005729 79.368611 
L 56.555713 79.196671 
L 55.653588 79.016752 
L 55.293575 78.755849 
L 55.241248 78.6054 
L 55.257992 78.448748 
L 55.243341 78.288566 
L 55.10101 78.128416 
L 54.908445 78.0955 
L 53.985389 78.0955 
L 53.748869 78.137312 
L 53.604445 78.205818 
L 53.455835 78.223613 
L 53.196291 78.109734 
L 53.100008 78.010103 
L 52.838371 77.566356 
L 52.181138 77.503237 
L 51.990667 77.195713 
L 52.149742 76.922948 
L 52.55371 76.972697 
L 52.516034 76.920283 
L 52.417659 76.729313 
L 52.541151 76.723097 
L 52.727437 76.659154 
L 52.838371 76.635177 
L 53.150243 76.493993 
L 53.506069 76.379465 
L 53.809569 76.238325 
L 53.966551 76.016456 
L 54.284702 75.960554 
L 54.933562 76.058162 
L 55.281016 76.016456 
L 55.471488 75.871829 
L 55.888015 75.649172 
L 56.061742 75.517912 
L 56.005228 75.527667 
L 56.003135 75.426575 
L 56.030345 75.294464 
L 56.061742 75.207584 
L 56.149652 75.108304 
L 56.206166 75.060442 
L 56.206166 75.003719 
L 56.128721 74.874335 
L 56.765023 74.733454 
L 56.58083 74.406597 
L 54.856118 73.423274 
L 54.234467 73.234004 
L 53.573049 73.142922 
L 52.838371 73.134964 
L 52.576734 73.165028 
L 52.428124 73.336594 
L 52.281607 73.555082 
L 52.034622 73.722306 
L 51.693447 73.76478 
L 51.385761 73.686911 
L 50.745273 73.423274 
L 49.891289 73.376395 
L 48.635431 74.030298 
L 47.775168 74.115283 
L 47.733306 74.063937 
L 47.718654 74.009939 
L 47.735399 73.95506 
L 47.775168 73.899299 
L 48.066108 73.77186 
L 48.112156 73.568353 
L 48.001222 73.332171 
L 47.825402 73.10048 
L 47.561672 72.831729 
L 47.289569 72.690318 
L 46.954673 72.664689 
L 45.755328 72.906865 
L 45.194378 72.915704 
L 45.064606 72.890953 
L 44.041081 71.95714 
L 43.976195 71.852959 
L 43.93224 71.736433 
L 43.429896 71.710835 
L 41.747046 71.928886 
L 41.53355 71.892687 
L 41.38494 71.814998 
L 41.117023 71.595212 
L 40.886783 71.513139 
L 36.834545 70.754578 
L 35.991027 70.792489 
L 35.802648 70.917697 
L 35.610083 71.09937 
L 35.386121 71.225508 
L 35.352171 71.219763 
L 35.099367 71.176991 
L 34.969595 71.035868 
L 34.98634 70.873607 
L 35.042853 70.702563 
L 35.036574 70.536844 
L 34.793775 70.216961 
L 34.486089 70.081292 
L 34.119797 69.994968 
L 33.715829 69.82235 
L 33.50024 69.637442 
L 33.261627 69.355761 
L 33.073248 69.055703 
L 33.012548 68.813802 
L 33.154879 68.500759 
L 33.330699 68.322309 
L 33.35163 68.15796 
L 33.0272 67.879433 
L 32.487181 67.737133 
L 31.333884 67.727471 
L 31.143412 67.47807 
L 31.049223 67.219969 
L 30.812703 67.156773 
L 30.551065 67.254202 
L 30.368966 67.476314 
L 30.368966 67.47807 
L 30.301987 67.651062 
L 30.073839 67.675652 
L 29.789178 67.601004 
L 29.550565 67.476314 
L 29.378931 67.308627 
L 28.353313 67.189248 
L 27.968183 67.001877 
L 27.911669 67.141853 
L 27.81748 67.219969 
L 27.524446 67.333207 
L 27.409326 67.346375 
L 27.294205 67.375346 
L 27.191643 67.420121 
L 27.099547 67.47807 
L 27.097454 67.47807 
L 27.183271 67.670383 
L 27.511887 67.80828 
L 27.819573 68.046362 
L 27.842597 68.540322 
L 27.779804 68.626489 
L 27.58096 68.746083 
L 27.524446 68.804127 
L 27.505608 68.899119 
L 27.518167 68.964212 
L 27.541191 69.012595 
L 27.566308 69.603988 
L 27.524446 69.751023 
L 25.211573 69.660333 
L 24.478989 69.769515 
L 24.04781 69.76159 
L 24.049904 69.444656 
L 24.336658 69.192959 
L 25.056684 68.767189 
L 26.078115 67.47807 
L 26.982334 66.265986 
L 27.043033 66.071382 
L 27.04722 65.745397 
L 27.082802 65.578513 
L 27.191643 65.461146 
L 27.348626 65.382765 
L 27.482584 65.269805 
L 27.524446 65.052249 
L 27.54747 64.624315 
L 27.712825 64.149396 
L 27.987021 63.698795 
L 28.334475 63.341032 
L 28.250751 63.293867 
L 28.177492 63.241464 
L 28.282147 62.751232 
L 27.987021 62.420073 
L 27.528632 62.137892 
L 27.153968 61.793916 
L 27.097454 61.677548 
L 27.009544 61.375159 
L 27.009544 61.359476 
L 26.888252 60.645186 
L 26.812793 60.201137 
L 26.984427 59.990636 
L 26.775117 59.75889 
L 26.400452 59.554593 
L 26.084395 59.425957 
L 25.626006 59.312115 
L 24.67574 59.166143 
L 24.213165 59.028885 
L 24.213165 59.027148 
L 23.786173 58.869071 
L 22.463335 58.638528 
L 22.015412 58.396337 
L 21.949247 58.218538 
L 21.904478 58.098259 
L 22.069833 57.772111 
L 22.463335 57.450001 
L 22.701949 57.114162 
L 22.668459 56.672812 
L 22.469615 56.247726 
L 22.207977 55.958266 
L 21.224221 55.537468 
L 20.767926 55.262539 
L 20.558616 54.837371 
L 20.479079 54.396467 
L 20.198603 54.203949 
L 19.832311 54.074048 
L 19.499509 53.813881 
L 19.438809 53.460231 
L 19.704632 53.170965 
L 20.866302 52.567352 
L 21.238873 52.312868 
L 21.550745 52.01285 
L 21.722379 51.68714 
L 21.793544 50.67133 
L 21.902385 50.509821 
L 22.339843 50.107488 
L 22.42566 49.950392 
L 22.463335 49.798048 
L 22.528221 49.649168 
L 22.683111 49.508038 
L 23.055682 49.273452 
L 21.739124 48.775362 
L 21.536093 48.537578 
L 21.659586 48.107619 
L 21.877268 47.806281 
L 21.954713 47.569662 
L 21.661679 47.339106 
L 21.661679 47.23647 
L 22.057274 46.973956 
L 22.063554 46.635476 
L 21.749589 46.344985 
L 21.182359 46.220707 
L 20.606758 46.153665 
L 19.920221 45.976909 
L 19.466019 45.721242 
L 19.587419 45.420872 
L 19.16252 44.940705 
L 18.681108 44.221039 
L 18.56808 43.566751 
L 19.616722 43.106928 
L 20.106507 42.720492 
L 20.441403 42.334684 
L 20.347213 42.159269 
L 19.970456 41.988566 
L 20.127438 41.606964 
L 20.694668 41.017763 
L 20.064645 40.761701 
L 19.94825 40.697142 
L 18.773204 40.045716 
L 17.5613 39.809045 
L 16.979419 39.417164 
L 16.594289 39.328745 
L 16.382886 39.228494 
L 15.690071 38.557125 
L 15.376106 38.376707 
L 13.224401 37.599354 
L 12.671824 37.454617 
L 12.010405 37.072449 
L 11.604344 36.984739 
L 11.154328 36.968717 
L 10.729429 36.903786 
L 10.377788 36.768885 
L 10.145455 36.53961 
L 10.683381 36.311673 
L 10.89269 36.11413 
L 10.976414 35.805921 
L 10.930366 35.602206 
L 10.683381 35.024627 
L 10.561981 34.861072 
L 10.561981 34.759763 
L 11.541551 34.406344 
L 12.774385 34.093834 
L 13.967451 33.633302 
L 14.589101 33.318197 
L 14.861204 33.025036 
L 14.917718 32.889192 
L 15.524716 31.971252 
L 15.482854 31.736827 
L 15.361454 31.5075 
L 15.288196 31.24437 
L 15.34471 31.029003 
L 15.489133 30.831258 
L 15.690071 30.68706 
L 15.903567 30.631897 
L 16.052177 30.525344 
L 16.579637 30.02664 
L 16.315907 29.909743 
L 16.236369 29.819578 
L 15.926591 29.693952 
L 15.803098 29.591297 
L 15.740305 29.432754 
L 15.727747 29.139962 
L 15.69635 29.003201 
L 15.559563 28.700005 
L 15.1354 27.760663 
L 14.923997 26.927167 
L 14.499098 26.587237 
L 14.287695 26.251627 
L 13.795817 25.891277 
L 13.6493 25.560155 
L 13.634649 25.204314 
L 13.689069 24.617456 
L 13.651393 24.459223 
L 13.226495 23.836589 
L 12.920902 23.523003 
L 13.004626 23.274058 
L 12.979509 22.824367 
L 12.980278 22.822762 
L 13.178576 22.812323 
L 13.542808 22.738151 
L 13.809801 22.621704 
L 13.836171 22.491619 
L 13.48018 22.375214 
L 13.677953 22.319945 
L 13.743877 22.265331 
L 13.677953 22.210721 
L 13.48018 22.156765 
L 13.593899 22.037818 
L 13.79332 22.121014 
L 14.076795 22.187318 
L 14.327307 22.275733 
L 14.562987 22.583976 
L 14.849758 22.687406 
L 15.403522 22.812323 
L 15.808957 23.017314 
L 16.031452 23.104536 
L 16.924726 23.176144 
L 18.012478 23.359104 
L 18.389895 23.497822 
L 18.698091 23.706278 
L 19.363927 24.307248 
L 19.59631 24.44942 
L 19.703437 24.402461 
L 19.726511 24.145547 
L 19.818805 23.996268 
L 19.990208 23.898505 
L 20.268739 23.794891 
L 20.253906 23.734294 
L 20.248961 23.671097 
L 20.268739 23.577289 
L 20.051188 23.547325 
L 19.532034 23.525179 
L 19.299651 23.467862 
L 18.671721 22.757669 
L 18.80357 22.404476 
L 19.299651 21.711634 
L 19.532034 21.807784 
L 19.733103 21.780496 
L 19.95395 21.719429 
L 20.268739 21.711634 
L 20.125353 21.308994 
L 20.199518 20.988352 
L 20.339607 20.703537 
L 20.40718 20.40393 
L 20.268739 20.40393 
L 20.219295 20.594574 
L 20.061077 20.721051 
L 19.576533 20.948769 
L 19.703437 21.05779 
L 19.525442 21.023394 
L 19.383704 20.980565 
L 19.269985 20.920868 
L 19.16121 20.839766 
L 19.265041 20.793056 
L 19.447981 20.679538 
L 19.576533 20.621813 
L 19.298003 20.351415 
L 18.816755 20.224359 
L 16.570383 20.115474 
L 16.253946 19.952826 
L 16.509403 19.642543 
L 16.443479 19.61081 
L 16.426998 19.606277 
L 16.420405 19.593326 
L 16.382499 19.533751 
L 16.183078 19.69306 
L 16.024859 19.715728 
L 15.853456 19.672982 
L 15.611184 19.642543 
L 15.434836 19.674925 
L 15.296395 19.753943 
L 15.16125 19.856292 
L 14.988199 19.959953 
L 15.593055 20.014381 
L 15.922676 20.084367 
L 16.09408 20.186766 
L 16.054525 20.379941 
L 15.843567 20.520644 
L 15.586462 20.575766 
L 15.403522 20.512863 
L 14.849758 20.675646 
L 14.574524 20.717159 
L 14.284456 20.730781 
L 14.284456 20.839766 
L 14.562987 20.890372 
L 14.548154 20.923463 
L 14.284456 20.948769 
L 14.093276 20.935143 
L 13.773543 20.857283 
L 13.536215 20.839766 
L 13.198353 20.734024 
L 12.224321 20.077886 
L 11.749666 19.976799 
L 11.702744 19.979432 
L 11.539458 19.73093 
L 11.185724 19.528604 
L 11.378289 19.502289 
L 11.545737 19.448842 
L 11.889755 19.01982 
L 12.224321 19.090349 
L 12.445167 19.17577 
L 13.064856 19.284504 
L 15.068956 19.361534 
L 15.873233 19.284504 
L 16.659381 19.090349 
L 18.113013 18.594216 
L 23.471013 17.492656 
L 28.09231 16.934496 
L 33.727193 15.840832 
L 37.376105 15.393447 
L 41.37112 14.898779 
L 45.298563 14.084577 
L 48.561818 13.898358 
L 50.803245 13.555597 
L 50.547789 13.673682 
L 49.544091 13.879097 
L 49.984136 14.021642 
L 51.769037 13.879097 
L 51.769037 13.781517 
L 51.630596 13.781517 
L 51.630596 13.664696 
L 52.596388 13.664696 
L 52.586499 13.587683 
L 52.565073 13.573565 
L 52.527167 13.578699 
L 52.457946 13.555597 
L 52.497501 13.30153 
L 52.031086 13.291267 
L 50.928502 13.449082 
L 51.625652 13.291908 
L 52.464539 13.041791 
L 53.717101 12.372716 
L 53.463293 12.607199 
L 53.010063 12.822536 
L 52.833715 12.939847 
L 53.018303 12.909075 
L 53.385832 12.874458 
L 53.707213 12.815485 
L 53.989039 12.661667 
L 54.699374 12.509167 
L 54.959775 12.372716 
L 54.719151 12.144081 
L 54.317013 12.138318 
L 54.139017 12.236294 
L 53.842358 12.372716 
L 54.701022 11.700488 
L 57.046281 10.334484 
L 57.046281 10.430911 
L 56.937505 10.584203 
L 57.141871 10.62317 
L 57.468196 10.566956 
L 57.726949 10.430911 
L 57.855502 10.220195 
L 57.736838 10.155717 
L 57.474789 10.205512 
L 57.173185 10.334484 
L 57.588508 9.959768 
L 58.292251 9.642036 
L 59.675014 9.253697 
L 63.905708 8.972631 
L 65.548873 8.678313 
L 66.410833 8.612715 
L 67.175556 8.48918 
L 69.117028 7.534811 
L 75.224918 6.255646 
L 82.885326 5.610051 
L 86.323281 5.085434 
L 91.729077 4.864439 
L 95.061552 4.864439 
L 95.519726 4.939784 
L 96.254783 5.225416 
L 96.525072 5.288133 
L 96.950284 5.331849 
L 103.867396 7.175065 
L 105.128199 7.907482 
L 105.332564 8.079264 
L 105.540226 8.322381 
L 105.560003 8.535025 
L 105.202364 8.612715 
L 105.113366 8.559223 
L 105.01448 8.445248 
L 104.890871 8.332566 
L 104.521695 8.215449 
L 104.274479 7.922114 
L 103.941561 7.731295 
L 102.977417 7.000985 
L 102.789533 6.960966 
L 102.079198 6.895543 
L 101.899554 6.861882 
L 101.706726 6.71519 
L 101.133184 6.626302 
L 99.923472 6.255646 
L 98.733538 6.000627 
L 98.542357 5.878864 
L 97.884762 5.653155 
L 97.711711 5.617024 
L 97.464494 5.666467 
L 97.335942 5.746345 
L 97.049171 6.191564 
L 97.009616 6.294351 
L 97.009616 6.522192 
L 97.118392 6.579958 
L 97.602935 6.677093 
L 97.711711 6.735509 
L 97.955631 6.926031 
L 98.25229 7.214462 
L 98.240753 7.333938 
L 98.163292 7.437545 
L 98.169885 7.539897 
L 98.403916 7.651168 
L 98.281956 7.956467 
L 98.512691 8.086263 
L 98.898349 8.049994 
L 99.234563 7.855321 
L 99.115899 8.114898 
L 99.279062 8.322381 
L 99.531222 8.498094 
L 100.042136 9.209712 
L 100.200355 9.360801 
L 100.121245 9.720498 
L 100.137726 10.34087 
L 100.269575 10.92924 
L 100.55305 11.191976 
L 100.871135 11.239931 
L 101.489175 11.454817 
L 101.805612 11.504072 
L 102.07755 11.516866 
L 102.415412 11.564206 
L 102.705479 11.649938 
L 102.829088 11.786878 
L 103.170246 12.003865 
L 106.585127 12.505323 
L 107.339961 12.530951 
L 107.971186 12.372716 
L 108.144238 12.45279 
L 108.381565 12.51173 
L 108.938626 12.587976 
L 116.534758 12.073009 
L 118.210885 11.704967 
L 119.006921 11.620507 
L 119.649683 11.48616 
L 120.895653 10.897924 
L 121.240108 10.829544 
L 121.669894 10.987877 
L 122.672488 11.144567 
L 124.251728 11.182634 
L 128.432693 11.283427 
L 136.277624 11.473495 
L 142.125739 11.614457 
L 147.973854 11.75545 
L 155.220159 11.929397 
L 163.996518 12.141609 
L 169.630091 12.277022 
L 175.263664 12.412464 
L 179.987786 12.527184 
L 183.795131 12.619137 
L 185.189134 12.409209 
L 185.570078 12.268482 
L 186.082736 11.83699 
L 186.110097 11.813969 
L 186.614534 11.706688 
L 187.045712 11.733507 
L 188.259708 12.018013 
L 188.479484 12.031022 
L 188.939965 11.987118 
L 189.147182 12.00907 
L 189.362771 12.108269 
L 189.477891 12.231068 
L 189.567895 12.353891 
L 189.695574 12.454769 
L 189.923721 12.525556 
L 190.61863 12.562987 
L 190.746309 12.650062 
L 190.67305 12.799826 
L 190.555837 12.978123 
L 190.553744 13.145065 
L 190.917943 13.377227 
L 191.38261 13.376412 
L 191.866116 13.282723 
L 192.27427 13.241178 
L 192.642655 13.322641 
L 193.898514 13.802662 
L 194.670867 14.018746 
L 196.303483 14.300984 
L 196.707849 14.458626 
L 197.082116 14.604567 
L 197.276774 14.743348 
L 197.645159 15.065921 
L 197.831445 15.188459 
L 198.040755 15.253822 
L 198.476119 15.308568 
L 198.662405 15.359233 
L 198.9973 15.586455 
L 199.279869 15.902898 
L 199.501737 16.257133 
L 199.656626 16.595184 
L 199.951753 17.334911 
L 199.958032 17.693192 
L 199.656626 17.936802 
L 199.411734 18.031153 
L 199.302893 18.093514 
L 199.204517 18.164088 
L 199.191958 18.333987 
L 199.277775 18.478476 
L 199.441037 18.593434 
L 199.656626 18.675558 
L 199.775933 18.747014 
L 199.834539 18.826693 
L 199.821981 18.913775 
L 199.738257 19.006621 
L 199.763374 19.472687 
L 199.972684 19.861734 
L 200.2406 20.22878 
L 200.447817 20.629797 
L 200.634103 21.477905 
L 200.847599 21.806224 
L 201.339477 22.14461 
L 201.34157 22.14461 
L 201.387618 23.126057 
L 201.871124 24.243058 
L 203.589557 26.740143 
L 204.54401 27.68326 
L 204.950071 28.192779 
L 205.760099 29.718157 
L 206.118019 30.178218 
L 206.482218 30.412541 
L 206.681063 30.641091 
L 206.838045 30.876404 
L 207.078751 31.126851 
L 207.440857 31.317986 
L 207.788311 31.44767 
L 208.001807 31.64266 
L 207.955759 32.035314 
L 207.77366 32.269001 
L 207.528767 32.464218 
L 207.334109 32.68757 
L 207.306899 33.004071 
L 207.480626 33.279185 
L 208.093904 33.660581 
L 208.326237 33.901104 
L 208.359727 34.025806 
L 208.311586 34.221089 
L 208.313679 34.324843 
L 208.485313 34.777838 
L 208.493685 34.908159 
L 208.432985 35.008649 
L 208.209024 35.228178 
L 208.15251 35.356478 
L 208.171348 35.531087 
L 208.24042 35.628719 
L 208.322051 35.710791 
L 208.374379 35.835389 
L 208.543812 37.81327 
L 208.585782 38.304045 
L 208.3074 39.003084 
L 207.501557 39.491207 
L 204.811926 40.394723 
L 201.427387 40.870644 
L 199.633602 41.387178 
L 197.84819 42.122747 
L 195.38252 44.007278 
L 194.570398 44.502601 
L 194.197827 44.792368 
L 193.258026 45.751542 
L 193.320819 45.759224 
L 193.469748 45.821869 
L 193.620132 45.885132 
L 193.842 46.047777 
L 193.906886 46.26512 
L 193.745718 46.558998 
L 194.202013 46.705553 
L 195.658809 46.902999 
L 195.970681 46.841879 
L 196.236504 46.976521 
L 197.494456 47.213806 
L 197.919355 47.23647 
L 197.919355 47.339106 
L 197.770745 47.491804 
L 197.829352 47.519182 
L 198.120292 47.462717 
L 198.373557 47.519182 
L 198.555657 47.613728 
L 198.748222 47.632126 
L 199.026604 47.462717 
L 199.106141 47.536294 
L 199.307079 47.621002 
L 199.441037 47.699301 
L 199.780119 47.533727 
L 199.857564 47.658225 
L 199.80105 47.856353 
L 199.719419 47.91456 
L 200.282462 48.481036 
L 200.675965 48.544004 
L 201.636697 48.529011 
L 202.017641 48.645536 
L 202.151599 48.774076 
L 202.254161 48.909068 
L 202.37556 49.014078 
L 202.566032 49.056944 
L 202.813018 49.143968 
L 202.894649 49.33563 
L 202.91558 49.526911 
L 203.083027 49.733687 
L 203.369782 50.361229 
L 203.602116 50.645125 
L 203.283965 50.764987 
L 203.018141 50.977691 
L 202.635104 51.439402 
L 202.503239 51.745645 
L 202.488588 52.284884 
L 202.356722 52.473472 
L 202.43626 52.489835 
L 202.471843 52.490697 
L 202.486494 52.510506 
L 202.49696 52.587164 
L 202.254161 52.656507 
L 202.170437 53.01797 
L 201.944382 53.15631 
L 202.262533 53.458507 
L 202.635104 53.715964 
L 202.40905 54.104255 
L 202.019734 54.301929 
L 201.594835 54.435322 
L 201.251567 54.638264 
L 201.169936 54.758327 
L 201.088305 54.937593 
L 200.973185 55.323049 
L 201.046443 55.409501 
L 201.182494 55.527091 
L 201.228543 55.631295 
L 201.042257 55.677132 
L 200.962719 55.723836 
L 201.027605 55.831527 
L 201.151098 55.947019 
L 201.251567 56.019697 
L 200.992023 56.185412 
L 200.86853 56.224358 
L 200.68643 56.23734 
L 200.68643 56.362415 
L 200.916671 56.491407 
L 200.943881 56.65376 
L 200.837133 57.106364 
L 200.908299 57.347284 
L 201.084119 57.58091 
L 201.527856 57.975503 
L 201.389711 57.982443 
L 201.251567 57.975503 
L 201.502738 58.237955 
L 201.825076 58.301304 
L 202.101364 58.387223 
L 202.180902 58.612048 
L 202.218578 58.715802 
L 202.354629 58.951145 
L 202.67278 59.065369 
L 203.039072 59.13617 
L 203.325827 59.237388 
L 203.009769 59.573716 
L 203.041165 59.678469 
L 203.865846 60.310324 
L 204.031201 60.512209 
L 203.796774 60.569216 
L 203.65235 60.686725 
L 203.627233 60.859973 
L 203.752819 61.087693 
L 203.38234 61.163034 
L 203.022328 61.36209 
L 202.743945 61.610001 
L 202.635104 61.834889 
L 202.76697 62.193709 
L 203.08512 62.279624 
L 203.47653 62.283549 
L 203.821891 62.401316 
L 204.943791 63.687872 
L 205.400087 63.979352 
L 206.429891 64.321663 
L 207.392716 64.838253 
L 207.61877 65.043933 
L 207.283875 65.135412 
L 207.208523 65.291257 
L 207.507836 65.626691 
L 208.039483 66.061303 
L 208.215303 66.288342 
L 208.453916 66.998806 
L 208.453916 67.104114 
L 208.368099 67.237524 
L 208.516709 67.306871 
L 208.77416 67.362177 
L 209.021146 67.451729 
L 209.245107 67.632619 
L 209.301621 67.772266 
L 209.322552 67.925116 
L 209.433486 68.148293 
L 209.736985 68.415485 
L 211.105871 69.087375 
L 212.792908 69.582859 
L 213.054545 69.795932 
L 212.805467 70.091862 
L 212.190096 70.161457 
L 211.518212 70.1641 
L 211.105871 70.261896 
L 210.570038 70.100671 
L 210.011181 70.140314 
L 209.546513 70.328861 
L 209.297435 70.621462 
L 209.335111 70.947679 
L 209.634424 71.164642 
L 210.113743 71.283731 
L 210.678879 71.320785 
L 210.678879 71.426662 
L 210.415149 71.725841 
L 210.69981 71.98716 
L 211.252388 72.172607 
L 211.796594 72.244148 
L 211.673101 72.63376 
L 211.832176 72.993499 
L 212.34591 73.65874 
L 212.351265 73.665676 
L 211.882411 74.102003 
L 212.087534 74.91687 
L 212.231958 75.14376 
L 212.336613 75.191628 
L 212.311496 75.229747 
L 212.058231 75.426575 
L 211.675194 75.647398 
L 210.371194 76.016456 
L 210.31468 76.223236 
L 210.346077 76.554371 
L 210.312587 76.777274 
L 210.220491 76.962924 
L 209.776754 77.529018 
L 208.711367 77.769081 
L 205.042167 77.79398 
L 204.343072 77.914041 
L 203.993525 78.010992 
L 203.719329 78.157775 
L 203.497461 78.410479 
L 203.242898 78.868067 
L 203.229544 78.892078 
L 202.949069 79.114723 
L 201.352035 80.061185 
L 200.765968 80.319823 
L 200.763875 80.319823 
L 200.761782 80.320715 
L 200.759689 80.320715 
L 199.656626 80.783789 
L 198.741942 81.172112 
L 194.114103 83.933064 
L 193.505012 84.452819 
L 192.764055 84.773793 
L 191.958212 85.266251 
L 189.762553 87.051004 
L 188.914848 87.53489 
L 188.8081 87.67885 
L 188.642745 88.029853 
L 188.548556 88.154089 
L 188.372736 88.25223 
L 188.014816 88.326069 
L 187.836903 88.391808 
L 187.640151 88.526005 
L 186.392665 89.787939 
L 186.05149 89.980999 
L 185.829622 90.034233 
L 185.394257 90.082959 
L 185.168203 90.192151 
L 185.021686 90.342877 
L 184.672139 90.900883 
L 183.135805 92.060488 
L 182.631368 92.736361 
L 183.020685 93.362942 
L 183.156736 93.619319 
L 183.282322 94.365326 
L 183.357673 94.564853 
L 183.414187 94.661912 
L 183.677917 94.897801 
L 184.115375 95.159169 
L 184.228402 95.293514 
L 184.318405 95.573162 
L 184.592601 97.185603 
L 184.515156 97.441284 
L 184.173981 97.977456 
L 183.887227 98.601428 
L 183.566983 98.983316 
L 183.458142 99.197574 
L 183.581635 99.291499 
L 183.675824 99.255934 
L 183.943741 99.063542 
L 184.261892 99.191191 
L 184.236774 99.198485 
L 184.15933 99.209428 
L 184.816562 99.473906 
L 185.408909 99.92005 
L 185.781481 100.077942 
L 186.689885 100.369158 
L 186.934778 100.548134 
L 186.936871 100.697918 
L 186.752678 101.04416 
L 186.727561 101.284508 
L 186.815471 101.450871 
L 187.144087 101.775458 
L 187.169661 101.812943 
L 187.208973 101.870571 
L 186.972453 102.153226 
L 186.562206 102.051679 
L 186.114283 101.819355 
L 185.752177 101.710531 
L 185.528216 101.669383 
L 185.153551 101.367686 
L 184.948428 101.256175 
L 184.728652 101.241552 
L 184.272357 101.321069 
L 183.539773 101.289992 
L 183.106502 101.313757 
L 182.671137 101.283594 
L 182.17298 101.088021 
L 181.413185 100.606584 
L 181.007124 100.534436 
L 180.580132 100.770079 
L 179.878945 100.571879 
L 178.29447 100.53261 
L 177.55142 100.402029 
L 176.525802 99.811458 
L 176.094624 99.713829 
L 174.974816 99.738463 
L 174.02455 99.572421 
L 173.873847 99.498534 
L 173.827799 99.387258 
L 173.884312 99.27326 
L 173.882219 99.149247 
L 173.660351 99.00793 
L 173.492903 98.989697 
L 173.007304 99.023428 
L 172.804274 99.016135 
L 172.569847 98.956879 
L 171.910521 98.714428 
L 170.476749 98.558601 
L 169.90324 98.318992 
L 169.769282 97.758032 
L 169.513924 97.136477 
L 168.932043 96.601728 
L 168.201552 96.210876 
L 167.111048 95.901953 
L 166.367998 95.514138 
L 165.99752 95.394286 
L 165.589366 95.436958 
L 165.239818 95.618567 
L 164.953064 95.812023 
L 164.741661 95.89196 
L 164.42979 95.748441 
L 163.749533 95.154631 
L 163.408358 94.956784 
L 163.20742 94.923209 
L 162.893456 94.963136 
L 162.74066 94.951339 
L 162.535536 94.87058 
L 162.158778 94.662819 
L 161.953655 94.584808 
L 161.574804 94.529479 
L 160.124287 94.621998 
L 159.817527 94.692383 
L 159.448217 94.777127 
L 159.150997 94.727229 
L 158.399575 94.820677 
L 158.064679 94.822491 
L 156.090888 94.506804 
L 154.956429 94.164938 
L 154.675954 94.12686 
L 154.309661 94.270113 
L 153.677546 94.799809 
L 153.330092 94.984008 
L 152.894727 95.024845 
L 152.584949 94.904153 
L 152.296101 94.721785 
L 151.929809 94.579365 
L 151.615845 94.563038 
L 150.793257 94.657376 
L 150.483479 94.740837 
L 150.073231 95.000343 
L 150.320217 95.160077 
L 150.786978 95.320748 
L 151.033963 95.585875 
L 150.868609 95.746625 
L 150.493944 95.789315 
L 150.066952 95.792039 
L 149.748801 95.83019 
L 149.332275 96.060035 
L 148.670856 96.60991 
L 148.233398 96.82541 
L 147.758265 96.92272 
L 147.385694 96.882703 
L 147.057077 96.747205 
L 146.726368 96.551725 
L 146.347517 96.391737 
L 146.029366 96.364469 
L 145.684005 96.376285 
L 145.229803 96.336293 
L 144.909559 96.203605 
L 143.111588 94.985823 
L 142.79553 94.954062 
L 142.029456 95.023938 
L 141.591999 94.98673 
L 141.405713 94.99399 
L 141.198497 95.06024 
L 140.876159 95.286251 
L 140.643826 95.40972 
L 140.164506 95.506873 
L 139.720769 95.44513 
L 138.008615 94.950432 
L 137.692558 94.991268 
L 137.696744 95.293514 
L 136.650195 95.316209 
L 135.821328 95.139201 
L 135.580622 95.141924 
L 135.373405 95.22997 
L 135.298054 95.338905 
L 135.256192 95.500517 
L 135.151537 95.751166 
L 135.007113 95.994618 
L 134.906644 96.072756 
L 133.3431 96.1509 
L 133.035415 96.249044 
L 132.593771 96.548089 
L 132.394927 96.653551 
L 131.949097 96.623548 
L 131.898863 96.596273 
L 131.783742 96.683556 
L 131.396519 97.177415 
L 131.281399 97.386684 
L 131.141161 97.582351 
L 130.88999 97.755301 
L 130.774869 98.370917 
L 130.56556 98.811947 
L 130.169964 98.986051 
L 129.49808 98.798275 
L 128.453624 98.237922 
L 127.890581 98.071251 
L 127.24172 98.112233 
L 126.875428 98.26707 
L 126.480169 98.499976 
L 126.195171 98.66795 
L 125.745155 98.76273 
L 124.811634 98.72263 
L 124.300918 98.616008 
L 124.03928 98.41009 
L 124.120911 98.177807 
L 124.886985 97.465856 
L 124.976988 97.423994 
L 125.10676 97.403064 
L 125.223974 97.363935 
L 125.272115 97.264756 
L 125.234439 97.188332 
L 125.227047 97.183909 
L 125.073271 97.091902 
L 125.068028 97.085446 
L 125.035595 97.04551 
L 125.033528 97.044639 
L 124.757213 96.928177 
L 124.686048 96.869062 
L 124.686279 96.867688 
L 124.698606 96.794491 
L 124.853496 96.662643 
L 124.884892 96.590818 
L 124.765585 95.740267 
L 124.663024 95.447854 
L 124.474645 95.115602 
L 124.470451 95.113804 
L 124.288359 95.035736 
L 123.610195 95.19003 
L 123.199948 95.213631 
L 122.758305 95.1864 
L 121.594424 94.961807 
L 121.595512 94.956576 
L 121.638497 94.749909 
L 121.625939 94.47506 
L 121.657335 94.379835 
L 121.751525 94.269206 
L 120.941496 94.264673 
L 120.51869 94.200297 
L 120.171236 94.048897 
L 120.066581 93.923808 
L 119.740058 93.36566 
L 119.371672 92.482055 
L 119.12678 92.130132 
L 118.651647 91.952867 
L 118.49885 91.861536 
L 118.157676 91.523423 
L 117.986457 91.483991 
L 117.875107 91.458347 
L 117.757894 91.487269 
L 117.680449 91.574041 
L 115.92434 92.662143 
L 115.771544 92.736361 
L 115.48479 92.801533 
L 115.27548 92.820543 
L 114.651737 92.816922 
L 114.26242 92.863995 
L 113.931711 92.955432 
L 113.636584 93.113885 
L 113.360295 93.362942 
L 113.035865 93.931966 
L 113.071448 93.951906 
L 113.136334 94.004479 
L 113.176103 94.087878 
L 113.127961 94.20483 
L 113.037958 94.242911 
L 112.78888 94.246538 
L 112.730273 94.253792 
L 112.587942 94.595693 
L 112.535615 94.814326 
L 112.389098 94.954969 
L 111.765355 95.096543 
L 111.256732 95.153723 
L 111.047422 95.145554 
L 110.852764 95.089282 
L 110.450889 94.923209 
L 110.264604 94.886913 
L 109.82296 94.945895 
L 109.040141 95.203646 
L 108.527332 95.226339 
L 108.131737 95.184584 
L 108.01871 94.98673 
L 108.102434 94.409762 
L 108.050106 94.149525 
L 107.95173 93.912025 
L 107.930799 93.661905 
L 108.108713 93.366565 
L 107.522645 93.164597 
z
" clip-path="url(#p0047425592)" style="stroke: #000000; stroke-linejoin: miter"/>
   </g>
   <g id="line2d_1">
    <path d="M 105.517458 93.060461 
L 105.603275 92.768041 
L 105.544668 92.406049 
L 105.163724 91.501731 
L 104.830922 91.028246 
L 104.611146 90.290526 
L 104.307647 90.164175 
L 103.125047 90.199371 
L 102.463628 89.815903 
L 101.153349 89.500235 
L 100.950318 88.992704 
L 100.121451 87.915536 
L 100.113079 87.448526 
L 100.669843 87.089669 
L 100.131917 86.928727 
L 100.044007 86.715684 
L 100.094241 86.44878 
L 99.968655 86.133457 
L 99.669342 86.032866 
L 98.871872 86.315809 
L 98.400925 86.316708 
L 96.113169 85.701538 
L 95.296861 85.757199 
L 95.426633 85.816456 
L 94.56637 86.122679 
L 94.051468 85.822741 
L 93.825413 85.458288 
L 93.584707 85.359572 
L 92.870961 85.245614 
L 91.92488 84.847329 
L 90.631346 84.71192 
L 90.367615 84.543361 
L 90.499481 84.22337 
L 89.029886 83.757342 
L 88.693137 83.710922 
L 88.889888 84.128382 
L 89.224784 84.103293 
L 89.402697 84.396347 
L 89.300136 84.47254 
L 88.64081 84.581014 
L 87.460303 84.647361 
L 86.86377 84.941501 
L 86.126999 85.065286 
L 85.390229 84.979173 
L 83.849709 84.084476 
L 83.2155 83.324104 
L 82.962235 83.120022 
L 83.2155 82.877516 
L 81.206126 82.67891 
L 80.180508 81.86887 
L 80.329118 81.694626 
L 80.550987 81.632979 
L 82.068483 81.4963 
L 83.341086 81.018547 
L 83.531558 80.757014 
L 82.955956 80.147686 
L 82.995725 79.989851 
L 83.2155 79.475535 
L 82.729901 79.143226 
L 82.254768 79.120067 
L 82.089414 79.378412 
L 81.14124 79.987176 
L 80.672386 80.054052 
L 78.861857 79.879295 
L 77.896939 79.927439 
L 77.091096 80.372452 
L 76.879693 80.321607 
L 76.691314 80.000551 
L 76.249671 79.805302 
L 75.801748 79.824023 
L 75.581972 80.13966 
L 75.171725 79.850767 
L 74.981253 79.314264 
L 74.853574 79.191327 
L 75.226146 79.109379 
L 74.807526 79.012299 
L 73.375847 78.951741 
L 72.463257 78.588487 
L 72.147199 78.029672 
L 72.191154 77.981639 
L 71.954634 77.942503 
L 71.058788 78.010103 
L 70.106428 77.646373 
L 66.223732 77.04466 
L 65.673247 77.225927 
L 65.67534 77.465902 
L 66.554441 78.301024 
L 66.903989 79.001612 
L 68.358692 79.902475 
L 68.387995 80.321607 
L 68.651725 80.512516 
L 68.691494 80.740058 
L 68.561722 80.887324 
L 68.31683 80.836447 
L 67.885652 80.509839 
L 67.531918 80.55445 
L 67.48587 80.826629 
L 66.508393 80.856084 
L 65.980933 81.205151 
L 64.245754 81.50166 
L 63.414795 82.229983 
L 62.964779 82.408809 
L 62.341035 82.876621 
L 61.518448 82.909727 
L 60.66865 82.667281 
L 59.615822 82.058345 
L 59.42535 81.842061 
L 58.975334 80.925707 
L 58.104605 80.321607 
L 56.555713 79.196671 
L 55.653588 79.016752 
L 55.241248 78.6054 
L 55.243341 78.288566 
L 55.10101 78.128416 
L 54.908445 78.0955 
L 53.604445 78.205818 
L 53.455835 78.223613 
L 53.100008 78.010103 
L 52.838371 77.566356 
L 52.181138 77.503237 
L 51.990667 77.195713 
L 52.149742 76.922948 
L 52.55371 76.972697 
L 52.516034 76.920283 
L 52.417659 76.729313 
L 52.838371 76.635177 
L 54.284702 75.960554 
L 55.281016 76.016456 
L 56.003135 75.426575 
L 56.149652 75.108304 
L 56.206166 75.003719 
L 56.128721 74.874335 
L 56.765023 74.733454 
L 56.58083 74.406597 
L 54.856118 73.423274 
L 53.573049 73.142922 
L 52.576734 73.165028 
L 52.034622 73.722306 
L 51.693447 73.76478 
L 49.891289 73.376395 
L 48.635431 74.030298 
L 47.718654 74.009939 
L 47.775168 73.899299 
L 48.066108 73.77186 
L 48.112156 73.568353 
L 47.825402 73.10048 
L 47.289569 72.690318 
L 46.954673 72.664689 
L 45.194378 72.915704 
L 45.064606 72.890953 
L 43.93224 71.736433 
L 43.429896 71.710835 
L 41.53355 71.892687 
L 40.886783 71.513139 
L 36.834545 70.754578 
L 35.991027 70.792489 
L 35.352171 71.219763 
L 35.099367 71.176991 
L 34.969595 71.035868 
L 35.036574 70.536844 
L 34.793775 70.216961 
L 33.50024 69.637442 
L 33.073248 69.055703 
L 33.012548 68.813802 
L 33.35163 68.15796 
L 33.0272 67.879433 
L 32.487181 67.737133 
L 31.333884 67.727471 
L 30.812703 67.156773 
L 30.551065 67.254202 
L 30.073839 67.675652 
L 29.550565 67.476314 
L 29.378931 67.308627 
L 28.353313 67.189248 
L 27.968183 67.001877 
L 27.81748 67.219969 
L 27.097454 67.47807 
L 27.183271 67.670383 
L 27.819573 68.046362 
L 27.779804 68.626489 
L 27.505608 68.899119 
L 27.566308 69.603988 
L 27.524446 69.751023 
L 25.211573 69.660333 
L 24.04781 69.76159 
L 24.049904 69.444656 
L 24.336658 69.192959 
L 25.056684 68.767189 
L 26.982334 66.265986 
L 27.348626 65.382765 
L 27.482584 65.269805 
L 27.712825 64.149396 
L 28.177492 63.241464 
L 28.282147 62.751232 
L 27.987021 62.420073 
L 27.153968 61.793916 
L 27.009544 61.359476 
L 26.812793 60.201137 
L 26.984427 59.990636 
L 26.775117 59.75889 
L 26.084395 59.425957 
L 22.015412 58.396337 
L 21.904478 58.098259 
L 22.069833 57.772111 
L 22.701949 57.114162 
L 22.668459 56.672812 
L 22.469615 56.247726 
L 22.207977 55.958266 
L 20.767926 55.262539 
L 20.558616 54.837371 
L 20.479079 54.396467 
L 19.499509 53.813881 
L 19.438809 53.460231 
L 19.704632 53.170965 
L 21.238873 52.312868 
L 21.550745 52.01285 
L 21.722379 51.68714 
L 21.902385 50.509821 
L 22.42566 49.950392 
L 22.528221 49.649168 
L 23.055682 49.273452 
L 21.739124 48.775362 
L 21.536093 48.537578 
L 21.659586 48.107619 
L 21.954713 47.569662 
L 21.661679 47.23647 
L 22.057274 46.973956 
L 22.063554 46.635476 
L 21.749589 46.344985 
L 19.920221 45.976909 
L 19.466019 45.721242 
L 19.587419 45.420872 
L 19.16252 44.940705 
L 18.681108 44.221039 
L 18.56808 43.566751 
L 19.616722 43.106928 
L 20.441403 42.334684 
L 20.347213 42.159269 
L 19.970456 41.988566 
L 20.127438 41.606964 
L 20.694668 41.017763 
L 19.94825 40.697142 
L 18.773204 40.045716 
L 17.5613 39.809045 
L 16.979419 39.417164 
L 16.382886 39.228494 
L 15.376106 38.376707 
L 11.154328 36.968717 
L 10.377788 36.768885 
L 10.145455 36.53961 
L 10.89269 36.11413 
L 10.930366 35.602206 
L 10.561981 34.759763 
L 11.541551 34.406344 
L 12.774385 34.093834 
L 14.589101 33.318197 
L 14.917718 32.889192 
L 15.524716 31.971252 
L 15.34471 31.029003 
L 15.690071 30.68706 
L 16.052177 30.525344 
L 16.579637 30.02664 
L 15.803098 29.591297 
L 15.727747 29.139962 
L 15.559563 28.700005 
L 15.1354 27.760663 
L 14.923997 26.927167 
L 14.499098 26.587237 
L 14.287695 26.251627 
L 13.795817 25.891277 
L 13.6493 25.560155 
L 13.651393 24.459223 
L 12.920902 23.523003 
L 13.004626 23.274058 
L 12.980278 22.822762 
L 13.542808 22.738151 
L 13.836171 22.491619 
L 13.48018 22.375214 
L 13.743877 22.265331 
L 13.677953 22.210721 
L 13.48018 22.156765 
L 13.593899 22.037818 
L 14.327307 22.275733 
L 14.562987 22.583976 
L 16.031452 23.104536 
L 18.012478 23.359104 
L 18.698091 23.706278 
L 19.59631 24.44942 
L 19.703437 24.402461 
L 19.818805 23.996268 
L 20.248961 23.671097 
L 20.268739 23.577289 
L 19.299651 23.467862 
L 18.671721 22.757669 
L 18.80357 22.404476 
L 19.299651 21.711634 
L 19.733103 21.780496 
L 20.268739 21.711634 
L 20.125353 21.308994 
L 20.40718 20.40393 
L 20.219295 20.594574 
L 20.061077 20.721051 
L 19.576533 20.948769 
L 19.703437 21.05779 
L 19.525442 21.023394 
L 19.16121 20.839766 
L 19.576533 20.621813 
L 19.298003 20.351415 
L 18.816755 20.224359 
L 16.570383 20.115474 
L 16.253946 19.952826 
L 16.509403 19.642543 
L 16.420405 19.593326 
L 16.382499 19.533751 
L 16.024859 19.715728 
L 15.434836 19.674925 
L 14.988199 19.959953 
L 15.922676 20.084367 
L 16.09408 20.186766 
L 16.054525 20.379941 
L 15.586462 20.575766 
L 15.403522 20.512863 
L 14.284456 20.839766 
L 14.562987 20.890372 
L 14.284456 20.948769 
L 13.536215 20.839766 
L 13.198353 20.734024 
L 12.224321 20.077886 
L 11.702744 19.979432 
L 11.539458 19.73093 
L 11.185724 19.528604 
L 11.545737 19.448842 
L 11.889755 19.01982 
L 13.064856 19.284504 
L 15.873233 19.284504 
L 16.659381 19.090349 
L 18.113013 18.594216 
L 23.471013 17.492656 
L 28.09231 16.934496 
L 33.727193 15.840832 
L 41.37112 14.898779 
L 45.298563 14.084577 
L 48.561818 13.898358 
L 50.803245 13.555597 
L 50.547789 13.673682 
L 49.544091 13.879097 
L 49.984136 14.021642 
L 51.769037 13.781517 
L 51.630596 13.781517 
L 51.630596 13.664696 
L 52.596388 13.664696 
L 52.457946 13.555597 
L 52.497501 13.30153 
L 52.031086 13.291267 
L 50.928502 13.449082 
L 51.625652 13.291908 
L 52.464539 13.041791 
L 53.717101 12.372716 
L 52.833715 12.939847 
L 53.989039 12.661667 
L 54.959775 12.372716 
L 54.719151 12.144081 
L 54.139017 12.236294 
L 53.842358 12.372716 
L 54.701022 11.700488 
L 57.046281 10.334484 
L 57.046281 10.430911 
L 56.937505 10.584203 
L 57.141871 10.62317 
L 57.726949 10.430911 
L 57.855502 10.220195 
L 57.736838 10.155717 
L 57.173185 10.334484 
L 57.588508 9.959768 
L 58.292251 9.642036 
L 59.675014 9.253697 
L 63.905708 8.972631 
L 67.175556 8.48918 
L 69.117028 7.534811 
L 75.224918 6.255646 
L 82.885326 5.610051 
L 86.323281 5.085434 
L 91.729077 4.864439 
L 95.519726 4.939784 
L 96.525072 5.288133 
L 96.950284 5.331849 
L 103.867396 7.175065 
L 105.332564 8.079264 
L 105.540226 8.322381 
L 105.560003 8.535025 
L 105.113366 8.559223 
L 104.890871 8.332566 
L 104.521695 8.215449 
L 104.274479 7.922114 
L 103.941561 7.731295 
L 102.789533 6.960966 
L 101.899554 6.861882 
L 101.706726 6.71519 
L 101.133184 6.626302 
L 97.711711 5.617024 
L 97.335942 5.746345 
L 97.009616 6.294351 
L 97.118392 6.579958 
L 97.711711 6.735509 
L 98.25229 7.214462 
L 98.169885 7.539897 
L 98.403916 7.651168 
L 98.281956 7.956467 
L 98.512691 8.086263 
L 98.898349 8.049994 
L 99.234563 7.855321 
L 99.115899 8.114898 
L 100.200355 9.360801 
L 100.121245 9.720498 
L 100.137726 10.34087 
L 100.269575 10.92924 
L 100.55305 11.191976 
L 100.871135 11.239931 
L 101.805612 11.504072 
L 102.705479 11.649938 
L 103.170246 12.003865 
L 107.339961 12.530951 
L 107.971186 12.372716 
L 108.381565 12.51173 
L 108.938626 12.587976 
L 116.534758 12.073009 
L 119.649683 11.48616 
L 121.240108 10.829544 
L 121.669894 10.987877 
L 122.672488 11.144567 
L 183.795131 12.619137 
L 185.570078 12.268482 
L 186.110097 11.813969 
L 186.614534 11.706688 
L 187.045712 11.733507 
L 188.479484 12.031022 
L 189.147182 12.00907 
L 189.477891 12.231068 
L 189.695574 12.454769 
L 189.923721 12.525556 
L 190.746309 12.650062 
L 190.553744 13.145065 
L 190.917943 13.377227 
L 191.866116 13.282723 
L 192.27427 13.241178 
L 192.642655 13.322641 
L 194.670867 14.018746 
L 196.707849 14.458626 
L 197.276774 14.743348 
L 197.831445 15.188459 
L 198.9973 15.586455 
L 199.501737 16.257133 
L 199.951753 17.334911 
L 199.958032 17.693192 
L 199.191958 18.333987 
L 199.441037 18.593434 
L 199.834539 18.826693 
L 199.763374 19.472687 
L 200.447817 20.629797 
L 200.634103 21.477905 
L 200.847599 21.806224 
L 201.34157 22.14461 
L 201.387618 23.126057 
L 201.871124 24.243058 
L 203.589557 26.740143 
L 204.950071 28.192779 
L 206.118019 30.178218 
L 206.681063 30.641091 
L 207.078751 31.126851 
L 208.001807 31.64266 
L 207.955759 32.035314 
L 207.306899 33.004071 
L 207.480626 33.279185 
L 208.326237 33.901104 
L 208.311586 34.221089 
L 208.313679 34.324843 
L 208.493685 34.908159 
L 208.171348 35.531087 
L 208.374379 35.835389 
L 208.585782 38.304045 
L 208.3074 39.003084 
L 207.501557 39.491207 
L 204.811926 40.394723 
L 201.427387 40.870644 
L 199.633602 41.387178 
L 197.84819 42.122747 
L 193.258026 45.751542 
L 193.620132 45.885132 
L 193.842 46.047777 
L 193.906886 46.26512 
L 193.745718 46.558998 
L 194.202013 46.705553 
L 197.919355 47.23647 
L 197.919355 47.339106 
L 197.770745 47.491804 
L 197.829352 47.519182 
L 198.373557 47.519182 
L 198.748222 47.632126 
L 199.106141 47.536294 
L 199.441037 47.699301 
L 199.780119 47.533727 
L 199.857564 47.658225 
L 199.719419 47.91456 
L 200.282462 48.481036 
L 200.675965 48.544004 
L 201.636697 48.529011 
L 202.151599 48.774076 
L 202.37556 49.014078 
L 202.813018 49.143968 
L 203.369782 50.361229 
L 203.602116 50.645125 
L 203.018141 50.977691 
L 202.503239 51.745645 
L 202.488588 52.284884 
L 202.356722 52.473472 
L 202.471843 52.490697 
L 202.49696 52.587164 
L 202.254161 52.656507 
L 202.170437 53.01797 
L 201.944382 53.15631 
L 202.635104 53.715964 
L 202.40905 54.104255 
L 201.169936 54.758327 
L 200.973185 55.323049 
L 201.228543 55.631295 
L 200.962719 55.723836 
L 201.251567 56.019697 
L 200.86853 56.224358 
L 200.68643 56.23734 
L 200.68643 56.362415 
L 200.916671 56.491407 
L 200.943881 56.65376 
L 200.837133 57.106364 
L 201.084119 57.58091 
L 201.527856 57.975503 
L 201.389711 57.982443 
L 201.251567 57.975503 
L 201.502738 58.237955 
L 202.101364 58.387223 
L 202.354629 58.951145 
L 203.325827 59.237388 
L 203.041165 59.678469 
L 204.031201 60.512209 
L 203.65235 60.686725 
L 203.627233 60.859973 
L 203.752819 61.087693 
L 203.38234 61.163034 
L 202.743945 61.610001 
L 202.635104 61.834889 
L 202.76697 62.193709 
L 203.821891 62.401316 
L 204.943791 63.687872 
L 205.400087 63.979352 
L 206.429891 64.321663 
L 207.61877 65.043933 
L 207.283875 65.135412 
L 207.208523 65.291257 
L 208.215303 66.288342 
L 208.453916 67.104114 
L 208.368099 67.237524 
L 209.301621 67.772266 
L 209.433486 68.148293 
L 209.736985 68.415485 
L 211.105871 69.087375 
L 212.792908 69.582859 
L 213.054545 69.795932 
L 212.805467 70.091862 
L 211.105871 70.261896 
L 210.570038 70.100671 
L 210.011181 70.140314 
L 209.546513 70.328861 
L 209.297435 70.621462 
L 209.335111 70.947679 
L 209.634424 71.164642 
L 210.678879 71.426662 
L 210.415149 71.725841 
L 210.69981 71.98716 
L 211.796594 72.244148 
L 211.673101 72.63376 
L 211.832176 72.993499 
L 212.351265 73.665676 
L 211.882411 74.102003 
L 212.231958 75.14376 
L 212.336613 75.191628 
L 212.311496 75.229747 
L 211.675194 75.647398 
L 210.371194 76.016456 
L 210.31468 76.223236 
L 210.312587 76.777274 
L 210.220491 76.962924 
L 209.776754 77.529018 
L 208.711367 77.769081 
L 205.042167 77.79398 
L 203.993525 78.010992 
L 203.719329 78.157775 
L 203.242898 78.868067 
L 203.229544 78.892078 
L 202.949069 79.114723 
L 200.759689 80.320715 
L 198.741942 81.172112 
L 194.114103 83.933064 
L 193.505012 84.452819 
L 192.764055 84.773793 
L 191.958212 85.266251 
L 189.762553 87.051004 
L 188.8081 87.67885 
L 188.548556 88.154089 
L 188.014816 88.326069 
L 187.640151 88.526005 
L 186.05149 89.980999 
L 185.168203 90.192151 
L 185.021686 90.342877 
L 184.672139 90.900883 
L 183.135805 92.060488 
L 182.631368 92.736361 
L 183.156736 93.619319 
L 183.414187 94.661912 
L 184.318405 95.573162 
L 184.592601 97.185603 
L 184.515156 97.441284 
L 183.458142 99.197574 
L 183.675824 99.255934 
L 183.943741 99.063542 
L 184.816562 99.473906 
L 185.781481 100.077942 
L 186.934778 100.548134 
L 186.936871 100.697918 
L 186.727561 101.284508 
L 186.815471 101.450871 
L 187.208973 101.870571 
L 186.972453 102.153226 
L 186.562206 102.051679 
L 185.752177 101.710531 
L 185.528216 101.669383 
L 184.948428 101.256175 
L 184.272357 101.321069 
L 182.671137 101.283594 
L 182.17298 101.088021 
L 181.413185 100.606584 
L 181.007124 100.534436 
L 180.580132 100.770079 
L 179.878945 100.571879 
L 178.29447 100.53261 
L 177.55142 100.402029 
L 176.525802 99.811458 
L 176.094624 99.713829 
L 174.974816 99.738463 
L 173.873847 99.498534 
L 173.884312 99.27326 
L 173.882219 99.149247 
L 173.492903 98.989697 
L 172.569847 98.956879 
L 171.910521 98.714428 
L 170.476749 98.558601 
L 169.90324 98.318992 
L 169.513924 97.136477 
L 168.932043 96.601728 
L 168.201552 96.210876 
L 167.111048 95.901953 
L 165.99752 95.394286 
L 165.589366 95.436958 
L 164.741661 95.89196 
L 164.42979 95.748441 
L 163.408358 94.956784 
L 162.158778 94.662819 
L 161.574804 94.529479 
L 159.817527 94.692383 
L 159.448217 94.777127 
L 159.150997 94.727229 
L 158.064679 94.822491 
L 156.090888 94.506804 
L 154.675954 94.12686 
L 154.309661 94.270113 
L 153.330092 94.984008 
L 152.894727 95.024845 
L 151.615845 94.563038 
L 150.483479 94.740837 
L 150.073231 95.000343 
L 150.320217 95.160077 
L 150.786978 95.320748 
L 151.033963 95.585875 
L 150.868609 95.746625 
L 149.748801 95.83019 
L 149.332275 96.060035 
L 148.670856 96.60991 
L 148.233398 96.82541 
L 147.758265 96.92272 
L 147.057077 96.747205 
L 146.347517 96.391737 
L 144.909559 96.203605 
L 143.111588 94.985823 
L 142.79553 94.954062 
L 141.198497 95.06024 
L 140.643826 95.40972 
L 140.164506 95.506873 
L 139.720769 95.44513 
L 138.008615 94.950432 
L 137.692558 94.991268 
L 137.696744 95.293514 
L 136.650195 95.316209 
L 135.580622 95.141924 
L 135.298054 95.338905 
L 135.151537 95.751166 
L 134.906644 96.072756 
L 133.035415 96.249044 
L 132.394927 96.653551 
L 131.783742 96.683556 
L 130.88999 97.755301 
L 130.774869 98.370917 
L 130.56556 98.811947 
L 130.169964 98.986051 
L 129.49808 98.798275 
L 128.453624 98.237922 
L 127.890581 98.071251 
L 127.24172 98.112233 
L 125.745155 98.76273 
L 124.300918 98.616008 
L 124.03928 98.41009 
L 124.120911 98.177807 
L 125.10676 97.403064 
L 125.272115 97.264756 
L 125.068028 97.085446 
L 125.033528 97.044639 
L 124.698606 96.794491 
L 124.884892 96.590818 
L 124.663024 95.447854 
L 124.470451 95.113804 
L 124.288359 95.035736 
L 123.199948 95.213631 
L 122.758305 95.1864 
L 121.594424 94.961807 
L 121.595512 94.956576 
L 121.751525 94.269206 
L 120.51869 94.200297 
L 120.066581 93.923808 
L 119.740058 93.36566 
L 119.12678 92.130132 
L 118.49885 91.861536 
L 117.986457 91.483991 
L 117.757894 91.487269 
L 117.680449 91.574041 
L 115.771544 92.736361 
L 115.27548 92.820543 
L 114.26242 92.863995 
L 113.636584 93.113885 
L 113.360295 93.362942 
L 113.035865 93.931966 
L 113.071448 93.951906 
L 113.176103 94.087878 
L 113.037958 94.242911 
L 112.730273 94.253792 
L 112.389098 94.954969 
L 111.256732 95.153723 
L 110.852764 95.089282 
L 110.264604 94.886913 
L 109.82296 94.945895 
L 109.040141 95.203646 
L 108.131737 95.184584 
L 108.01871 94.98673 
L 108.050106 94.149525 
L 107.930799 93.661905 
L 108.108713 93.366565 
L 107.522645 93.164597 
L 105.517458 93.060461 
L 105.517458 93.060461 
" clip-path="url(#p0047425592)" style="fill: none; stroke: #000000; stroke-width: 0.5; stroke-linecap: square"/>
   </g>
  </g>
 </g>
 <defs>
  <clipPath id="p0047425592">
   <rect x="0" y="-0" width="223.2" height="107.017665"/>
  </clipPath>
 </defs>
</svg>
