<?xml version="1.0" encoding="utf-8" standalone="no"?>
<!DOCTYPE svg PUBLIC "-//W3C//DTD SVG 1.1//EN"
  "http://www.w3.org/Graphics/SVG/1.1/DTD/svg11.dtd">
<svg xmlns:xlink="http://www.w3.org/1999/xlink" width="223.2pt" height="100.108896pt" viewBox="0 0 223.2 100.108896" xmlns="http://www.w3.org/2000/svg" version="1.1">
 <metadata>
  <rdf:RDF xmlns:dc="http://purl.org/dc/elements/1.1/" xmlns:cc="http://creativecommons.org/ns#" xmlns:rdf="http://www.w3.org/1999/02/22-rdf-syntax-ns#">
   <cc:Work>
    <dc:type rdf:resource="http://purl.org/dc/dcmitype/StillImage"/>
    <dc:date>2026-04-26T19:22:32.954154</dc:date>
    <dc:format>image/svg+xml</dc:format>
    <dc:creator>
     <cc:Agent>
      <dc:title>Matplotlib v3.10.9, https://matplotlib.org/</dc:title>
     </cc:Agent>
    </dc:creator>
   </cc:Work>
  </rdf:RDF>
 </metadata>
 <defs>
  <style type="text/css">*{stroke-linejoin: round; stroke-linecap: butt}</style>
 </defs>
 <g id="figure_1">
  <g id="patch_1">
   <path d="M 0 100.108896 
L 223.2 100.108896 
L 223.2 0 
L 0 0 
z
" style="fill: #ffffff"/>
  </g>
  <g id="axes_1">
   <g id="patch_2">
    <path d="M 111.6 87.040361 
L 71.694479 83.633831 
L 52.756336 95.558492 
L 45.316378 88.743781 
L 17.585413 91.299105 
L 24.349123 54.69536 
L 10.145455 28.336578 
L 31.789081 4.550404 
L 48.69811 8.79647 
L 116.334597 8.79647 
L 186.676322 17.290432 
L 212.378174 27.486704 
L 213.054545 52.99417 
L 200.203619 55.546072 
L 187.352693 81.930876 
L 137.978224 95.558492 
z
" clip-path="url(#p0e5fc11603)" style="stroke: #000000; stroke-linejoin: miter"/>
   </g>
   <g id="line2d_1">
    <path d="M 111.6 87.040361 
L 71.694479 83.633831 
L 52.756336 95.558492 
L 45.316378 88.743781 
L 17.585413 91.299105 
L 24.349123 54.69536 
L 10.145455 28.336578 
L 31.789081 4.550404 
L 48.69811 8.79647 
L 116.334597 8.79647 
L 186.676322 17.290432 
L 212.378174 27.486704 
L 213.054545 52.99417 
L 200.203619 55.546072 
L 187.352693 81.930876 
L 137.978224 95.558492 
L 111.6 87.040361 
" clip-path="url(#p0e5fc11603)" style="fill: none; stroke: #000000; stroke-width: 0.5; stroke-linecap: square"/>
   </g>
  </g>
 </g>
 <defs>
  <clipPath id="p0e5fc11603">
   <rect x="0" y="0" width="223.2" height="100.108896"/>
  </clipPath>
 </defs>
</svg>
