<?xml version="1.0" encoding="utf-8" standalone="no"?>
<!DOCTYPE svg PUBLIC "-//W3C//DTD SVG 1.1//EN"
  "http://www.w3.org/Graphics/SVG/1.1/DTD/svg11.dtd">
<svg xmlns:xlink="http://www.w3.org/1999/xlink" width="144.816319pt" height="221.76pt" viewBox="0 0 144.816319 221.76" xmlns="http://www.w3.org/2000/svg" version="1.1">
 <metadata>
  <rdf:RDF xmlns:dc="http://purl.org/dc/elements/1.1/" xmlns:cc="http://creativecommons.org/ns#" xmlns:rdf="http://www.w3.org/1999/02/22-rdf-syntax-ns#">
   <cc:Work>
    <dc:type rdf:resource="http://purl.org/dc/dcmitype/StillImage"/>
    <dc:date>2026-04-26T19:21:51.680025</dc:date>
    <dc:format>image/svg+xml</dc:format>
    <dc:creator>
     <cc:Agent>
      <dc:title>Matplotlib v3.10.9, https://matplotlib.org/</dc:title>
     </cc:Agent>
    </dc:creator>
   </cc:Work>
  </rdf:RDF>
 </metadata>
 <defs>
  <style type="text/css">*{stroke-linejoin: round; stroke-linecap: butt}</style>
 </defs>
 <g id="figure_1">
  <g id="patch_1">
   <path d="M 0 221.76 
L 144.816319 221.76 
L 144.816319 0 
L 0 0 
z
" style="fill: #ffffff"/>
  </g>
  <g id="axes_1">
   <g id="patch_2">
    <path d="M 137.953618 15.420252 
L 138.0964 16.058354 
L 138.233759 18.952703 
L 138.036757 22.296589 
L 137.874094 22.811992 
L 137.83614 23.0864 
L 137.720468 23.469384 
L 137.445749 23.78198 
L 136.829439 24.19361 
L 136.467966 24.516954 
L 136.240239 24.933369 
L 135.661883 27.212435 
L 135.387164 27.78283 
L 135.320291 28.017912 
L 135.249804 28.525077 
L 135.172088 28.763746 
L 134.855799 29.361622 
L 134.434684 30.53593 
L 134.376848 30.843837 
L 134.315398 31.469207 
L 133.876209 33.041049 
L 132.538761 36.02862 
L 132.486348 36.221993 
L 132.307419 36.300775 
L 131.304333 37.539827 
L 131.074798 37.917043 
L 130.937438 38.289489 
L 130.74405 39.647999 
L 130.633801 40.102838 
L 130.481983 40.538583 
L 130.286788 40.958813 
L 130.042794 41.762279 
L 129.863865 42.110892 
L 129.56565 42.229087 
L 129.495163 42.465478 
L 129.074048 43.129291 
L 128.943918 43.399118 
L 128.266157 45.831239 
L 128.266157 46.173922 
L 128.369176 46.876015 
L 128.412553 47.584092 
L 128.329414 49.794976 
L 128.428819 50.859565 
L 128.425205 51.226177 
L 128.369176 51.625036 
L 128.192055 52.389327 
L 128.155908 52.7876 
L 128.287845 59.412473 
L 128.248083 59.895014 
L 127.214272 62.888298 
L 127.116674 63.340411 
L 127.035343 64.186714 
L 126.422647 66.777064 
L 126.35939 68.216525 
L 126.234682 68.674054 
L 125.509929 70.284388 
L 125.119539 70.853032 
L 124.78337 71.726314 
L 124.667699 72.257934 
L 124.870123 73.863568 
L 124.864701 75.696227 
L 125.385221 78.642417 
L 125.383414 79.275632 
L 125.121347 81.060601 
L 125.132191 81.712946 
L 125.238825 82.27688 
L 125.573187 83.388029 
L 125.829833 83.576805 
L 126.014183 83.95197 
L 126.124433 84.398823 
L 126.16058 84.795496 
L 126.046716 87.039343 
L 125.949118 87.409736 
L 124.4472 90.188893 
L 123.071798 95.152238 
L 122.751895 95.981457 
L 122.039794 100.290038 
L 121.992803 100.870726 
L 122.037987 101.456192 
L 122.466331 103.76698 
L 122.619957 107.865162 
L 122.48802 108.094561 
L 122.244026 108.55097 
L 121.127076 109.929744 
L 121.031286 110.092233 
L 120.957184 110.271449 
L 120.922844 110.610763 
L 120.895734 110.706344 
L 120.837898 110.789978 
L 120.631859 110.988308 
L 120.407746 111.33001 
L 120.042659 111.686047 
L 119.058179 113.253575 
L 116.708075 116.9954 
L 116.25262 117.552124 
L 115.894762 118.125569 
L 115.761018 118.271319 
L 115.291103 118.572375 
L 115.242305 118.691842 
L 114.898906 119.229439 
L 114.71817 119.370409 
L 113.803644 119.712079 
L 112.919844 119.87694 
L 112.58006 119.998794 
L 111.412504 120.631953 
L 110.570273 120.944947 
L 110.013606 121.066799 
L 109.906971 121.12653 
L 109.72262 121.293777 
L 109.615986 121.351119 
L 109.567187 121.492084 
L 109.155109 122.12523 
L 108.471926 122.923224 
L 107.924295 123.764213 
L 107.109175 124.63625 
L 106.709748 124.951614 
L 106.595884 125.102128 
L 106.51636 125.269365 
L 106.326587 125.914419 
L 105.921738 126.870041 
L 105.652441 127.722921 
L 105.363263 128.265222 
L 104.712612 129.978092 
L 104.136064 130.971866 
L 103.733022 132.044451 
L 103.496368 132.528201 
L 103.151052 133.234062 
L 103.022729 133.613871 
L 102.934168 133.996066 
L 102.910672 134.258824 
L 102.921517 135.044698 
L 102.818497 135.727848 
L 102.590769 136.313056 
L 101.205522 138.727694 
L 101.162953 138.801894 
L 101.06897 139.078953 
L 101.012942 139.394225 
L 100.9045 139.461101 
L 100.599056 139.769205 
L 100.327952 139.919674 
L 100.244813 139.979383 
L 100.085765 140.168065 
L 99.818276 140.621853 
L 98.715785 142.047669 
L 97.974766 142.785634 
L 96.998791 144.020319 
L 96.503573 144.46451 
L 96.069806 144.977949 
L 95.641462 145.715856 
L 95.428193 146.203009 
L 95.301677 146.723588 
L 95.323366 147.258486 
L 95.348669 147.437579 
L 95.346861 147.585629 
L 95.119134 148.624349 
L 95.082987 148.999236 
L 95.14263 149.355016 
L 95.303485 149.674976 
L 95.345054 149.794364 
L 95.377587 150.011648 
L 95.388431 151.126697 
L 95.970401 156.67271 
L 95.6017 160.079071 
L 95.187814 161.728394 
L 95.140822 162.05061 
L 95.120941 162.382368 
L 95.242544 163.721517 
L 95.317944 164.551822 
L 95.251071 165.699723 
L 95.345054 166.99791 
L 95.27276 168.245921 
L 95.346861 168.630095 
L 95.509524 169.064372 
L 95.513139 169.594084 
L 95.406504 170.600982 
L 95.49868 171.087713 
L 95.704719 171.354934 
L 95.908951 171.541033 
L 96.002934 171.789162 
L 95.970401 172.328357 
L 95.885455 172.75541 
L 95.657728 173.452037 
L 94.795616 175.42252 
L 94.435951 176.655774 
L 94.045561 177.659979 
L 92.957529 179.408282 
L 92.247235 181.306687 
L 92.117105 181.826572 
L 91.869497 182.153282 
L 91.574897 183.250228 
L 91.030881 184.502105 
L 90.90798 184.680938 
L 90.806768 184.914611 
L 90.488672 186.271292 
L 90.066966 186.803919 
L 89.978996 186.915027 
L 89.301235 187.382318 
L 88.527684 187.687482 
L 87.743289 187.84483 
L 86.97516 187.995025 
L 84.450275 189.053507 
L 84.139408 189.241835 
L 83.871919 189.513595 
L 83.651421 189.94745 
L 83.112827 192.216684 
L 83.018844 192.416898 
L 82.632068 192.953173 
L 82.563389 193.108094 
L 82.41157 193.186746 
L 81.977803 193.484666 
L 81.298235 193.811181 
L 79.351706 195.102883 
L 79.010115 195.396006 
L 78.531164 195.667676 
L 78.104626 195.994151 
L 77.920275 196.449301 
L 77.826292 196.759082 
L 77.172857 197.980184 
L 76.250272 199.704111 
L 75.868919 200.168693 
L 74.93632 200.7905 
L 74.793538 201.043028 
L 74.681482 201.343198 
L 73.331382 203.091701 
L 71.898144 206.24521 
L 71.764399 206.623876 
L 71.585471 206.966812 
L 71.310751 207.264492 
L 70.488402 207.731245 
L 69.329883 208.683759 
L 68.814784 208.921878 
L 68.14606 209.0076 
L 67.950865 208.912354 
L 67.405042 208.476592 
L 67.186351 208.37896 
L 67.106827 208.317048 
L 66.964045 208.014624 
L 66.880907 207.907464 
L 66.736318 207.890795 
L 66.362194 207.914608 
L 66.284477 207.821736 
L 66.141696 207.571693 
L 65.819985 207.557405 
L 65.478394 207.676474 
L 65.270547 207.821736 
L 64.910882 208.324191 
L 64.697613 208.467067 
L 64.363251 208.536123 
L 64.057807 208.60756 
L 63.983705 207.907464 
L 64.265654 206.116605 
L 64.198781 205.878443 
L 64.11022 205.67124 
L 64.039733 205.452126 
L 64.028889 205.180611 
L 64.072266 204.963872 
L 64.206011 204.558968 
L 64.236736 204.339839 
L 64.166249 203.76342 
L 63.972861 203.396598 
L 63.712601 203.075026 
L 63.446919 202.639108 
L 63.30233 201.760092 
L 63.170392 201.247906 
L 63.184851 201.066851 
L 63.327633 200.733323 
L 63.604159 200.402171 
L 64.265654 200.040041 
L 64.475308 199.758908 
L 64.670503 199.399147 
L 64.963295 198.9679 
L 65.209097 198.50805 
L 65.265125 198.076781 
L 65.151261 197.921903 
L 64.545795 197.409604 
L 64.204203 196.882992 
L 63.91864 196.311089 
L 63.801162 195.97747 
L 63.795739 195.853553 
L 63.855382 195.729635 
L 63.931292 195.398389 
L 63.962017 195.102883 
L 63.963824 194.857419 
L 63.920447 194.673915 
L 63.819235 194.566671 
L 63.495717 194.597652 
L 62.742047 195.136247 
L 61.946808 195.388856 
L 61.590758 195.715337 
L 60.936492 196.47313 
L 60.28042 196.88061 
L 59.609889 197.166554 
L 58.071823 197.411987 
L 57.419366 197.75511 
L 56.904267 198.670071 
L 56.873542 198.736785 
L 56.835588 198.786821 
L 56.557254 199.051291 
L 56.262654 199.518274 
L 56.08011 199.661225 
L 55.906603 199.670755 
L 55.396941 199.477483 
L 55.378854 199.470623 
L 54.887251 199.513509 
L 54.726396 199.458711 
L 54.534815 199.237133 
L 54.289014 198.631949 
L 54.128159 198.350793 
L 53.735961 198.01483 
L 53.378104 197.967175 
L 52.268383 198.477076 
L 52.065959 198.622418 
L 51.997279 198.886891 
L 52.185245 201.112115 
L 52.121987 201.557602 
L 51.849979 202.489036 
L 51.788529 202.994037 
L 52.022582 203.984939 
L 51.906911 204.185017 
L 51.775877 204.165962 
L 51.631288 204.111179 
L 51.488506 204.208836 
L 51.416212 204.461313 
L 51.465011 204.885274 
L 51.372835 205.047234 
L 51.219209 205.068669 
L 50.819782 204.921 
L 50.64989 204.90671 
L 50.284803 205.218719 
L 49.905257 206.145184 
L 49.703498 206.22893 
L 49.543785 206.295223 
L 49.332323 206.169 
L 48.987117 205.697439 
L 48.764812 205.566447 
L 48.564194 205.604554 
L 47.996683 206.040393 
L 48.173804 206.240447 
L 48.244291 206.438117 
L 48.193685 206.611969 
L 47.996683 206.747715 
L 47.096616 207.619321 
L 46.614051 208.390867 
L 46.4297 208.586129 
L 46.057383 207.581219 
L 45.930868 206.778674 
L 45.836885 206.500037 
L 45.672415 206.288079 
L 45.413962 206.102315 
L 44.354848 205.602172 
L 44.036752 205.328278 
L 43.214402 204.387476 
L 42.748103 203.994466 
L 42.578211 203.765802 
L 42.361327 203.010711 
L 42.048654 202.410425 
L 41.907679 202.065013 
L 41.528133 201.478987 
L 41.101596 201.538544 
L 40.814225 202.048338 
L 40.85218 202.824911 
L 40.038867 202.291319 
L 38.891192 200.485555 
L 38.198972 199.758908 
L 37.857381 199.249046 
L 37.5429 198.141115 
L 37.288062 197.676478 
L 37.01515 197.471557 
L 36.805496 197.500151 
L 36.595842 197.624057 
L 36.324738 197.697923 
L 36.084358 197.631205 
L 35.762552 197.401964 
L 35.636133 197.311908 
L 35.395753 197.197532 
L 34.98006 197.514448 
L 34.78125 198.045806 
L 34.640276 198.596209 
L 34.403512 198.9679 
L 34.087223 199.206159 
L 33.80166 199.506361 
L 33.557666 199.87565 
L 33.17812 200.804794 
L 32.984732 201.071616 
L 32.710013 201.205025 
L 30.770713 201.671949 
L 29.579662 202.184122 
L 29.317594 202.21509 
L 28.844065 202.136478 
L 28.679595 202.458068 
L 28.701284 203.44662 
L 28.618145 203.927773 
L 27.887971 205.833192 
L 27.705427 206.116605 
L 27.456011 206.242829 
L 26.863196 206.323802 
L 26.597514 206.407157 
L 26.344483 206.53576 
L 26.18905 206.711992 
L 25.968552 206.173763 
L 25.809504 205.909405 
L 25.645034 205.778415 
L 25.437188 205.778415 
L 25.355856 205.883207 
L 24.824492 208.245609 
L 24.363614 209.221904 
L 22.392046 211.425895 
L 22.244032 211.68 
L 21.976587 211.361214 
L 21.734657 210.984405 
L 21.339029 210.120146 
L 20.681548 209.072098 
L 20.252583 208.524172 
L 20.086684 207.892726 
L 19.113428 206.551311 
L 18.931983 206.269684 
L 18.915471 206.139711 
L 18.999463 205.983021 
L 19.102491 206.010045 
L 19.336086 206.361464 
L 19.425371 206.298339 
L 19.50779 206.018929 
L 19.459335 205.533195 
L 18.99942 204.746061 
L 18.25738 203.864015 
L 18.174709 203.575217 
L 18.188381 203.340661 
L 18.601654 203.346137 
L 18.931155 202.870038 
L 19.009175 202.35113 
L 18.690631 201.483346 
L 16.707111 198.864075 
L 14.890873 196.816759 
L 13.295556 194.957249 
L 12.468279 194.281372 
L 11.608183 193.281422 
L 11.277572 192.581451 
L 11.193608 192.435065 
L 10.967332 191.930211 
L 10.920369 191.70687 
L 10.938869 191.20012 
L 10.921792 190.939232 
L 10.853482 190.757171 
L 9.313452 189.138344 
L 7.603963 187.656294 
L 7.021111 187.094059 
L 6.58256 186.719332 
L 6.855474 186.050355 
L 8.017831 181.919578 
L 8.305201 181.192215 
L 8.760657 180.679469 
L 9.357086 180.169095 
L 9.877606 179.603854 
L 10.441503 179.145926 
L 11.160834 178.95512 
L 11.82775 178.661752 
L 12.21814 178.001064 
L 12.545273 177.290265 
L 13.027839 176.853756 
L 13.904409 177.020728 
L 14.553252 177.676675 
L 15.941307 180.638926 
L 16.234099 181.056279 
L 16.613645 181.225603 
L 17.566125 181.063433 
L 17.916753 181.1159 
L 18.923454 181.495087 
L 19.248779 181.507011 
L 19.292178 181.485168 
L 19.599408 181.330535 
L 19.977146 180.9585 
L 20.286205 180.471982 
L 20.423565 179.952063 
L 20.300664 179.463138 
L 19.964495 179.224633 
L 19.550609 179.048138 
L 19.189136 178.764312 
L 19.01563 178.282515 
L 19.064428 177.748232 
L 20.062092 174.637687 
L 20.298857 174.081847 
L 21.052527 173.337525 
L 21.287484 172.841296 
L 21.103133 172.096934 
L 20.42718 171.679413 
L 19.5976 171.378793 
L 18.961409 170.980347 
L 18.256538 170.214452 
L 17.887836 169.923358 
L 16.897401 169.376951 
L 16.761849 169.24333 
L 16.611838 169.045283 
L 16.579305 168.956997 
L 16.608223 168.82576 
L 16.624489 167.226995 
L 16.711243 166.821323 
L 16.942585 166.248597 
L 17.125129 166.103027 
L 17.365508 166.129277 
L 17.76855 166.07439 
L 18.200509 165.723587 
L 18.200509 165.227204 
L 17.943864 164.695014 
L 16.613645 162.828684 
L 16.009986 161.671111 
L 15.724423 161.246258 
L 15.375602 161.095887 
L 14.878578 161.296382 
L 14.170092 161.952752 
L 13.870069 162.019582 
L 13.779701 161.47778 
L 13.95432 160.593453 
L 13.987548 160.425175 
L 15.261738 157.680099 
L 15.422594 157.095245 
L 15.50754 156.615417 
L 15.50754 156.135581 
L 15.413557 155.545922 
L 15.249087 155.027872 
L 14.806283 154.094404 
L 14.670731 153.607366 
L 14.663501 153.203882 
L 14.790017 151.924161 
L 14.726759 151.415601 
L 14.350828 150.068953 
L 14.489995 149.615283 
L 14.527949 149.600956 
L 15.174985 149.629609 
L 16.058785 149.982995 
L 16.299164 150.14536 
L 16.407606 150.324438 
L 16.478093 150.517842 
L 16.611838 150.723183 
L 17.202845 151.334422 
L 17.520941 151.556471 
L 17.810119 151.58751 
L 18.101104 151.363073 
L 18.693919 150.642002 
L 19.082502 150.43666 
L 19.713271 150.271909 
L 20.450675 149.959118 
L 20.998306 149.600956 
L 21.179042 149.741833 
L 21.495331 150.049851 
L 22.088145 151.021641 
L 22.623125 151.506331 
L 23.165333 151.585122 
L 30.107412 149.620058 
L 29.908602 149.111462 
L 30.035117 148.364075 
L 30.270074 147.568914 
L 30.391167 146.905072 
L 30.266459 145.949881 
L 30.298992 145.608395 
L 30.4237 145.257352 
L 30.738181 144.60302 
L 30.815898 144.204205 
L 30.134522 143.795834 
L 29.771242 143.055501 
L 29.621231 142.121705 
L 29.474835 139.630678 
L 29.541707 139.317796 
L 29.736902 139.377506 
L 29.945466 139.669714 
L 30.277304 140.134628 
L 30.584555 140.261211 
L 30.810475 140.098802 
L 30.886385 139.864741 
L 30.899036 139.613959 
L 30.929761 139.413333 
L 31.036396 139.119557 
L 31.123149 138.969085 
L 31.229783 138.837721 
L 32.086473 138.078187 
L 32.274439 137.987424 
L 33.134743 137.956374 
L 33.879376 138.364805 
L 35.034355 139.470376 
L 35.111997 139.544695 
L 35.851209 139.859964 
L 36.145809 140.127463 
L 36.348233 140.691115 
L 36.733201 142.367694 
L 36.890442 142.85728 
L 36.991654 143.026842 
L 37.264566 143.380294 
L 37.342282 143.518808 
L 37.410962 144.046589 
L 37.380237 144.056141 
L 37.380237 144.163607 
L 37.362163 144.302118 
L 37.400118 144.421524 
L 37.729058 144.533765 
L 37.718214 144.667498 
L 37.649534 144.820336 
L 37.617002 144.930187 
L 37.5429 145.104516 
L 37.512175 145.250188 
L 37.553744 145.403023 
L 37.783279 145.69914 
L 37.850151 145.861525 
L 37.862803 146.100326 
L 37.938712 146.511059 
L 38.188128 146.499119 
L 38.612858 146.212561 
L 38.764677 146.408376 
L 39.091809 147.11521 
L 39.256279 147.38027 
L 39.34484 148.003509 
L 39.391831 148.189762 
L 39.516539 148.366463 
L 39.623174 148.361688 
L 39.706312 148.385566 
L 39.749689 148.64584 
L 39.603293 148.851192 
L 39.505695 149.039829 
L 39.469548 149.273832 
L 39.456896 149.472017 
L 39.408097 149.674976 
L 39.33761 149.868384 
L 39.256279 150.030749 
L 39.061084 150.248032 
L 38.970716 150.462925 
L 39.021322 150.601411 
L 39.256279 150.584697 
L 39.458535 150.317498 
L 39.774992 149.899424 
L 40.000912 149.811078 
L 40.434679 149.913751 
L 41.562473 150.589473 
L 41.92756 150.706469 
L 42.119141 150.65394 
L 42.453503 150.396069 
L 42.655927 150.360254 
L 42.827627 150.410396 
L 45.876647 151.905061 
L 46.187513 151.952812 
L 46.523682 151.842983 
L 46.903229 151.924161 
L 46.993597 151.926549 
L 47.239398 151.82627 
L 47.351454 151.864472 
L 47.497851 152.148594 
L 47.588219 152.186795 
L 47.77257 152.048316 
L 47.852094 151.862084 
L 47.900892 151.6472 
L 47.996683 151.425152 
L 48.170189 151.203102 
L 48.737701 150.68498 
L 48.885905 150.491577 
L 49.140743 150.068953 
L 49.31425 149.863608 
L 49.522096 149.725119 
L 49.939597 149.548425 
L 50.114911 149.390833 
L 50.192628 149.185484 
L 50.243234 148.695984 
L 50.360712 148.457201 
L 51.690931 146.754631 
L 51.831905 146.496731 
L 51.896067 146.255545 
L 51.923177 145.799436 
L 51.970168 145.543918 
L 52.154519 145.083024 
L 52.519607 144.364209 
L 52.559369 144.240027 
L 52.615397 144.268684 
L 52.799748 144.443017 
L 53.040127 144.748693 
L 53.251588 145.185711 
L 53.403407 145.672871 
L 53.562455 146.628069 
L 53.960074 147.700248 
L 54.17515 148.12529 
L 54.495053 148.555102 
L 54.612532 148.781946 
L 54.670368 149.424262 
L 54.80592 149.593793 
L 54.990271 149.710793 
L 55.171007 149.880322 
L 55.409579 150.310112 
L 55.335477 150.460537 
L 55.12763 150.630063 
L 54.880022 151.327259 
L 54.516742 151.568409 
L 54.386612 151.771355 
L 54.37396 152.661917 
L 54.354079 152.776519 
L 54.639642 153.108383 
L 55.03907 153.282669 
L 55.467414 153.311319 
L 55.834309 153.211045 
L 56.136138 152.969907 
L 56.304223 152.869632 
L 56.474115 152.869632 
L 56.63497 153.02482 
L 56.687384 153.447405 
L 56.79944 153.583491 
L 56.933185 153.585879 
L 57.737461 153.25402 
L 57.84771 153.227757 
L 58.023025 153.246857 
L 58.292322 153.45218 
L 58.465828 153.547679 
L 58.624876 153.516642 
L 58.729703 153.342356 
L 58.809021 153.042128 
L 58.917669 152.630879 
L 59.065873 152.425551 
L 59.233957 152.251259 
L 59.356858 152.050703 
L 59.349628 151.444253 
L 59.429152 151.210265 
L 59.571934 151.01209 
L 59.906296 150.637226 
L 60.065344 150.496353 
L 60.238851 150.391294 
L 61.073852 150.133422 
L 61.149761 150.19789 
L 61.019631 149.462466 
L 59.694835 147.982018 
L 59.638806 147.191624 
L 59.875571 146.948055 
L 60.475615 146.659113 
L 60.708765 146.322409 
L 60.71238 146.152861 
L 60.603938 145.739736 
L 60.623819 145.512873 
L 60.717802 145.403023 
L 61.019631 145.262128 
L 61.138917 145.104516 
L 61.220248 144.774962 
L 61.317846 143.557018 
L 61.433517 143.100876 
L 61.451591 142.871609 
L 61.366645 142.675776 
L 61.223863 142.537259 
L 61.133495 142.417847 
L 61.122651 142.274553 
L 61.214826 142.057222 
L 61.205789 141.792124 
L 61.249166 141.586732 
L 61.335919 141.414775 
L 61.460627 141.247594 
L 63.495915 140.197106 
L 63.533672 140.177618 
L 63.998164 139.843245 
L 64.124679 139.525588 
L 63.990935 138.517667 
L 64.001779 138.321813 
L 64.108413 137.727078 
L 64.162634 135.885497 
L 64.27469 135.386274 
L 64.486152 135.07575 
L 64.89823 134.746115 
L 64.764486 134.59324 
L 64.395784 134.512025 
L 64.097569 134.390202 
L 63.886108 133.453826 
L 63.546323 133.203008 
L 63.430652 133.031018 
L 63.587893 132.847083 
L 63.94575 132.679869 
L 64.11022 132.572374 
L 64.276498 132.412326 
L 64.393976 132.178224 
L 64.464463 131.910678 
L 64.57652 131.710017 
L 65.149454 131.566688 
L 65.142224 131.217918 
L 64.947029 130.802257 
L 64.717494 130.501259 
L 64.937992 129.832369 
L 64.96691 129.27575 
L 65.030168 129.058357 
L 65.232592 128.80035 
L 65.454898 128.611623 
L 65.579606 128.346447 
L 65.482008 127.866261 
L 64.867505 127.328735 
L 64.61086 126.977548 
L 64.506033 126.535575 
L 64.554832 126.279946 
L 64.675925 126.112712 
L 64.820514 125.964589 
L 64.947029 125.775852 
L 65.044627 125.532166 
L 65.107884 125.30998 
L 65.178372 124.791543 
L 65.196445 124.070025 
L 65.167527 123.862169 
L 65.031975 123.563524 
L 64.73514 123.176904 
L 64.663273 123.083299 
L 64.540373 122.801375 
L 64.534951 122.603072 
L 64.632548 122.204074 
L 64.647007 122.005769 
L 64.587364 121.735786 
L 64.401206 121.236435 
L 63.902374 119.422974 
L 63.905989 119.090859 
L 64.090339 118.598658 
L 64.177093 117.599911 
L 64.269268 117.069471 
L 64.538565 116.500797 
L 64.847624 116.05159 
L 65.044627 115.556982 
L 64.970525 114.85449 
L 64.853046 114.266687 
L 64.849432 113.697996 
L 64.947029 113.131691 
L 65.657322 111.100616 
L 65.776608 110.350304 
L 65.619368 109.657336 
L 65.209097 108.541411 
L 64.994021 108.237936 
L 64.298186 107.604697 
L 63.911411 106.916495 
L 63.322211 106.429017 
L 62.657101 106.039511 
L 62.169113 105.853122 
L 61.869091 105.915251 
L 61.597987 106.084914 
L 61.330497 106.204394 
L 61.046742 106.115979 
L 60.726838 105.943927 
L 60.426816 105.946316 
L 60.137638 106.077745 
L 59.843038 106.285641 
L 59.812313 105.420602 
L 59.68399 104.467142 
L 59.468914 103.539965 
L 59.174314 102.748993 
L 58.718859 102.15875 
L 58.079053 101.74773 
L 57.377796 101.604351 
L 56.741605 101.826588 
L 56.615089 101.601961 
L 56.474115 101.446633 
L 56.304223 101.358216 
L 55.678876 101.26263 
L 55.543324 101.324761 
L 55.476451 101.477699 
L 55.42946 101.644975 
L 55.355358 101.74773 
L 55.124016 101.860044 
L 55.011959 101.888719 
L 54.907132 101.785964 
L 54.099241 100.512276 
L 54.115507 99.857508 
L 54.299858 99.283988 
L 55.092972 97.892046 
L 55.310174 97.51085 
L 55.489103 97.286221 
L 55.671646 96.987511 
L 55.653573 96.743764 
L 55.563205 96.485679 
L 55.528865 96.146344 
L 55.602967 95.916935 
L 55.850575 95.493962 
L 55.877686 95.252605 
L 55.740326 94.968233 
L 55.530672 94.91805 
L 55.32644 94.910881 
L 55.212576 94.753162 
L 55.138474 93.082779 
L 55.055336 92.518816 
L 54.885444 91.801916 
L 54.79869 91.221227 
L 54.878214 90.669215 
L 55.472836 89.498283 
L 56.092762 87.660647 
L 56.465078 87.137318 
L 57.757342 86.195806 
L 58.084475 85.698766 
L 58.153155 85.220845 
L 58.044713 84.747704 
L 57.84771 84.265006 
L 58.379075 83.290056 
L 59.244801 83.134734 
L 60.226199 83.280498 
L 61.104577 83.218369 
L 61.339534 83.09889 
L 61.438939 83.003308 
L 61.504004 82.881439 
L 62.799883 81.399915 
L 62.915554 80.905281 
L 62.967968 79.718885 
L 63.474029 78.757112 
L 64.280112 77.843138 
L 64.878349 76.89094 
L 64.762678 75.814503 
L 64.703035 75.528968 
L 64.834973 75.3414 
L 65.042819 75.177726 
L 65.203675 74.962681 
L 65.236207 74.648476 
L 65.102462 74.4633 
L 64.684962 74.184938 
L 64.352407 73.784719 
L 64.059614 73.328353 
L 63.813813 72.821814 
L 63.620425 72.281827 
L 63.347514 71.099127 
L 63.108942 70.628441 
L 62.270326 70.117141 
L 61.997414 69.634516 
L 61.854632 69.04438 
L 61.872706 67.300283 
L 61.825715 66.695833 
L 61.565454 65.252823 
L 61.460627 64.994805 
L 61.272662 64.801292 
L 61.073852 64.691397 
L 60.923841 64.563583 
L 60.896749 64.435561 
L 60.86962 64.30736 
L 60.661773 64.254801 
L 60.529836 64.128183 
L 60.417779 63.97469 
L 60.265961 63.838516 
L 59.577356 63.589463 
L 59.226728 63.544072 
L 58.912247 63.651577 
L 58.286899 63.971106 
L 57.91639 63.941243 
L 57.641671 63.681439 
L 57.383218 63.346384 
L 57.065123 63.094944 
L 56.763293 63.006552 
L 53.461242 62.599832 
L 53.213634 62.678667 
L 53.199175 62.788559 
L 53.034705 63.385802 
L 52.821436 63.938854 
L 52.763601 63.989024 
L 52.575635 64.082792 
L 52.523221 64.058902 
L 52.318989 63.929298 
L 52.230429 63.905408 
L 52.111143 63.965133 
L 51.901489 64.181936 
L 51.788529 64.255996 
L 51.466818 64.334236 
L 51.305963 64.348571 
L 51.141493 64.339014 
L 50.794479 64.380822 
L 50.546871 64.594641 
L 50.319143 64.841906 
L 49.691988 65.164428 
L 49.292561 65.873982 
L 49.066641 66.089 
L 48.481056 66.232346 
L 47.953306 66.23593 
L 47.412905 66.098557 
L 46.802016 65.810672 
L 46.536334 65.778419 
L 46.154981 65.835757 
L 45.813389 65.959989 
L 45.672415 66.133199 
L 45.560358 66.54293 
L 45.263951 66.648051 
L 44.945855 66.707779 
L 44.62053 67.233387 
L 44.300627 67.417351 
L 43.939155 67.515306 
L 43.337303 67.455578 
L 42.981253 67.530836 
L 42.796902 67.498582 
L 42.796464 67.495977 
L 42.742681 67.176048 
L 42.576403 67.027922 
L 42.366749 66.915633 
L 42.189628 66.710168 
L 42.522183 66.664775 
L 42.652313 66.380471 
L 42.717378 66.057942 
L 42.856545 65.90504 
L 43.102346 65.859648 
L 43.398753 65.725859 
L 43.648169 65.503675 
L 43.812639 65.040197 
L 43.919274 64.958969 
L 43.957228 64.837128 
L 43.810832 64.556416 
L 43.752996 64.401129 
L 43.745767 64.223744 
L 43.756611 64.035012 
L 43.733115 62.94205 
L 43.751189 62.749142 
L 43.471048 62.517413 
L 43.156567 61.399399 
L 42.796902 61.156329 
L 42.901729 60.828456 
L 42.88004 60.512529 
L 42.75714 60.239603 
L 42.55833 60.038343 
L 42.439044 60.209742 
L 42.115526 59.618508 
L 41.829963 58.947256 
L 42.129985 58.489807 
L 42.186013 57.934424 
L 42.081186 56.8822 
L 42.148059 56.39551 
L 42.267344 55.961375 
L 42.317951 55.557101 
L 42.189628 55.160594 
L 42.410126 54.991005 
L 42.589055 54.683477 
L 42.7228 54.335346 
L 42.903536 53.486825 
L 42.928839 53.11661 
L 42.856545 52.843131 
L 42.766176 52.670566 
L 42.625202 52.253186 
L 42.399282 51.843574 
L 42.471576 51.738484 
L 42.679423 51.659668 
L 42.796902 51.297828 
L 42.916188 51.029138 
L 43.033666 50.843444 
L 43.149337 50.699547 
L 43.239705 50.538334 
L 43.275853 50.304877 
L 43.176448 49.871998 
L 43.18187 49.677354 
L 43.340918 49.594361 
L 43.433093 49.509578 
L 43.751189 49.049841 
L 43.856016 48.944162 
L 44.479556 48.489804 
L 44.658485 47.935747 
L 44.719935 47.193036 
L 44.714513 45.807359 
L 47.721964 45.843179 
L 50.411319 45.875417 
L 51.144564 45.88353 
L 53.972726 45.91482 
L 57.099462 45.951834 
L 59.879186 45.984073 
L 61.71908 46.006759 
L 61.881743 45.980491 
L 62.651679 45.585273 
L 63.759592 45.783478 
L 64.034311 45.990043 
L 64.372288 46.403175 
L 64.621704 46.476011 
L 64.722916 46.433026 
L 65.080774 46.142878 
L 66.459791 45.753628 
L 66.617032 45.680794 
L 66.67306 45.481395 
L 66.633298 45.268863 
L 66.629683 45.053945 
L 66.792346 44.852162 
L 66.880907 44.704109 
L 67.33094 44.867684 
L 67.909296 45.720196 
L 68.326796 45.966163 
L 68.178593 46.332728 
L 68.348485 46.447355 
L 68.802133 46.424668 
L 69.046127 46.62049 
L 69.391333 47.090347 
L 69.649786 47.227663 
L 69.5305 46.664072 
L 69.657015 46.58049 
L 70.128737 46.91303 
L 69.877513 47.171543 
L 69.769072 47.227663 
L 69.940771 47.30886 
L 70.123315 47.283187 
L 70.27694 47.227663 
L 70.365501 47.227663 
L 70.385382 47.390653 
L 70.369116 47.907089 
L 70.425144 48.016347 
L 71.500525 47.859326 
L 71.760785 47.774546 
L 71.883685 47.56021 
L 71.918025 47.279008 
L 71.918025 46.991838 
L 72.037311 46.849746 
L 72.290342 47.179901 
L 72.519877 47.631854 
L 72.575905 47.859326 
L 72.917496 48.167996 
L 72.729531 48.814003 
L 72.657236 49.381209 
L 73.351263 49.451663 
L 73.730809 49.394345 
L 73.891665 49.288067 
L 74.030832 48.732804 
L 74.200724 48.763851 
L 75.03211 49.63735 
L 75.301407 49.740046 
L 75.641191 49.594361 
L 75.847231 50.005742 
L 76.140023 49.888716 
L 76.420164 49.509578 
L 76.597286 49.135817 
L 76.70392 49.135817 
L 76.960566 49.262991 
L 77.190101 48.58175 
L 77.748576 48.851021 
L 77.983533 48.720863 
L 78.256444 48.613394 
L 78.625146 48.805645 
L 78.7119 48.944162 
L 78.80769 49.296426 
L 78.87637 49.451663 
L 78.97216 49.521519 
L 79.566782 49.811097 
L 79.704142 49.955588 
L 79.803547 50.135307 
L 79.841501 50.304877 
L 79.818005 50.607596 
L 79.78728 50.738357 
L 79.812583 50.832696 
L 79.949943 51.029138 
L 80.034889 51.048245 
L 80.44516 51.290663 
L 80.437931 51.343804 
L 80.64397 51.301411 
L 80.97291 51.080487 
L 81.325346 50.925842 
L 82.218182 50.226063 
L 82.982697 50.086944 
L 83.747211 50.272635 
L 85.236477 50.85658 
L 86.897443 51.100788 
L 86.973352 51.20707 
L 87.155896 51.340222 
L 87.374587 51.453669 
L 87.783051 51.539651 
L 87.909566 51.638172 
L 88.57829 52.764909 
L 88.796981 52.915979 
L 89.26328 53.130344 
L 89.680781 53.492797 
L 89.850673 53.601473 
L 89.968152 53.764489 
L 90.013336 54.112615 
L 90.100089 54.306086 
L 90.307936 54.295338 
L 90.542893 54.174717 
L 90.729051 54.040959 
L 90.783272 54.405808 
L 91.041725 54.575395 
L 91.381509 54.673923 
L 91.683338 54.830374 
L 91.864075 54.701391 
L 92.073729 54.707363 
L 92.267116 54.813654 
L 92.409898 54.987422 
L 92.485807 55.253152 
L 92.460504 55.480069 
L 92.409898 55.698029 
L 92.409898 55.9351 
L 92.558102 56.336988 
L 93.246707 57.512218 
L 94.032909 56.021091 
L 94.186535 55.962569 
L 94.562466 56.130968 
L 94.750432 56.021091 
L 94.80646 55.657423 
L 94.387152 53.103474 
L 93.797952 51.081682 
L 93.485278 50.383691 
L 93.335267 50.20815 
L 93.226826 50.13889 
L 93.159953 50.015295 
L 93.140072 49.162088 
L 93.187064 48.939982 
L 93.454553 48.446817 
L 93.450939 48.243224 
L 93.391296 48.062917 
L 93.365993 47.859326 
L 93.356956 47.846191 
L 93.346112 47.785293 
L 93.346112 47.681408 
L 93.365993 47.543493 
L 93.418406 47.443192 
L 93.496123 47.412146 
L 93.56661 47.408564 
L 93.604564 47.385877 
L 93.642519 47.058705 
L 93.595528 46.84497 
L 93.521426 46.64258 
L 93.485278 46.345862 
L 93.52504 46.081982 
L 93.734694 45.564975 
L 93.850366 45.056333 
L 94.130507 44.83067 
L 94.48475 44.911861 
L 94.810075 45.321399 
L 95.513139 44.6265 
L 95.657728 44.374573 
L 95.563745 44.168018 
L 95.46434 44.065338 
L 96.362599 41.543801 
L 97.157838 39.314932 
L 97.719928 37.734403 
L 98.515167 35.506997 
L 99.259801 33.421789 
L 99.500892 32.745254 
L 99.905029 31.61123 
L 100.403861 30.208933 
L 100.485192 29.652807 
L 100.331566 29.237511 
L 100.078536 28.862795 
L 99.865267 28.427223 
L 99.816468 27.406941 
L 100.492422 25.69224 
L 100.608093 24.862971 
L 100.474348 24.347526 
L 100.291804 23.875044 
L 100.152638 23.385867 
L 100.165289 22.815571 
L 100.367714 22.287044 
L 100.969565 21.182306 
L 101.06897 20.687218 
L 101.079814 20.120564 
L 101.517196 18.668202 
L 101.672629 16.738222 
L 101.95277 15.70829 
L 102.491364 14.847764 
L 103.20708 14.226393 
L 104.027622 13.912136 
L 104.430664 13.87755 
L 104.7831 13.912136 
L 106.223567 14.386206 
L 106.592269 14.358775 
L 106.935668 14.129193 
L 106.970008 13.93241 
L 106.921209 13.688521 
L 106.944705 13.499494 
L 107.20135 13.466101 
L 107.36582 13.520961 
L 107.685723 13.677788 
L 107.846579 13.71774 
L 108.330952 13.64201 
L 108.502651 13.661091 
L 108.694231 13.804204 
L 108.822554 13.999197 
L 108.963528 14.113689 
L 109.196678 14.009931 
L 109.33223 13.975345 
L 109.567187 14.015894 
L 109.673822 14.006353 
L 109.820218 13.921677 
L 110.017221 13.696869 
L 110.138314 13.590728 
L 110.429299 13.41005 
L 110.58654 13.359961 
L 111.058261 13.399316 
L 111.29864 13.349228 
L 111.768555 13.10773 
L 112.008934 13.020673 
L 112.71019 13.049294 
L 112.961414 13.000399 
L 113.254206 12.825688 
L 113.411447 12.612818 
L 113.554228 12.368347 
L 113.796415 12.10301 
L 114.049446 11.980778 
L 114.273559 12.011783 
L 114.725399 12.21153 
L 115.359783 12.151307 
L 115.733907 11.691596 
L 116.082728 11.114436 
L 116.760794 10.653672 
L 116.988217 10.499134 
L 117.253899 10.241571 
L 117.537655 10.08 
L 117.938889 10.161084 
L 118.014798 10.264227 
L 118.083478 10.567699 
L 118.168424 10.658324 
L 118.412418 10.691712 
L 118.491942 10.751334 
L 119.138978 11.467408 
L 119.773362 11.834696 
L 120.481848 11.971238 
L 121.913279 11.968853 
L 122.007261 11.94381 
L 122.209686 11.843639 
L 122.334394 11.835292 
L 122.451873 11.90565 
L 122.621765 12.161444 
L 122.732014 12.243728 
L 122.892869 12.247306 
L 123.230846 12.157866 
L 123.382664 12.174562 
L 123.648346 12.380273 
L 123.872459 12.717166 
L 124.036929 13.13993 
L 124.120068 13.597883 
L 124.239354 13.95984 
L 124.48877 14.025435 
L 124.819517 13.90021 
L 125.488241 13.470872 
L 125.587646 13.372483 
L 125.679821 13.421976 
L 126.297939 13.938373 
L 126.466024 14.020664 
L 126.682907 13.990849 
L 127.228731 13.640817 
L 127.823353 13.429131 
L 128.434241 13.421976 
L 129.036093 13.686136 
L 129.343345 14.082681 
L 129.56565 15.004004 
L 129.795185 15.340937 
L 130.174731 15.408325 
L 130.541626 15.178732 
L 130.84707 14.795287 
L 131.049495 14.398133 
L 131.116367 14.172724 
L 131.241075 13.475642 
L 131.345902 13.157818 
L 131.474225 13.104152 
L 131.631465 13.161396 
L 131.824853 13.169744 
L 133.218329 13.006362 
L 133.323156 13.036176 
L 133.520159 13.166166 
L 133.643059 13.169744 
L 133.709932 13.086264 
L 133.782226 12.770831 
L 133.859943 12.674234 
L 134.058753 12.63965 
L 134.35516 12.662309 
L 134.514208 12.573464 
L 134.834111 12.162636 
L 135.027499 11.854372 
L 135.255226 11.838869 
L 135.692608 12.314087 
L 135.978171 12.757713 
L 136.693887 14.277676 
L 136.972221 15.126254 
L 137.185489 15.408325 
z
" clip-path="url(#p248feb43bd)" style="stroke: #000000; stroke-linejoin: miter"/>
   </g>
   <g id="line2d_1">
    <path d="M 137.953618 15.420252 
L 138.0964 16.058354 
L 138.233759 18.952703 
L 138.036757 22.296589 
L 137.720468 23.469384 
L 137.445749 23.78198 
L 136.467966 24.516954 
L 136.240239 24.933369 
L 135.661883 27.212435 
L 135.320291 28.017912 
L 135.172088 28.763746 
L 134.855799 29.361622 
L 134.376848 30.843837 
L 134.315398 31.469207 
L 133.876209 33.041049 
L 132.307419 36.300775 
L 131.074798 37.917043 
L 130.937438 38.289489 
L 130.633801 40.102838 
L 129.863865 42.110892 
L 129.56565 42.229087 
L 129.495163 42.465478 
L 128.943918 43.399118 
L 128.266157 46.173922 
L 128.412553 47.584092 
L 128.329414 49.794976 
L 128.425205 51.226177 
L 128.155908 52.7876 
L 128.248083 59.895014 
L 127.116674 63.340411 
L 127.035343 64.186714 
L 126.422647 66.777064 
L 126.234682 68.674054 
L 125.509929 70.284388 
L 125.119539 70.853032 
L 124.667699 72.257934 
L 124.870123 73.863568 
L 124.864701 75.696227 
L 125.385221 78.642417 
L 125.383414 79.275632 
L 125.132191 81.712946 
L 125.238825 82.27688 
L 125.573187 83.388029 
L 125.829833 83.576805 
L 126.124433 84.398823 
L 126.16058 84.795496 
L 125.949118 87.409736 
L 124.4472 90.188893 
L 122.751895 95.981457 
L 121.992803 100.870726 
L 122.037987 101.456192 
L 122.466331 103.76698 
L 122.619957 107.865162 
L 122.244026 108.55097 
L 120.957184 110.271449 
L 120.837898 110.789978 
L 120.042659 111.686047 
L 115.894762 118.125569 
L 115.761018 118.271319 
L 115.242305 118.691842 
L 114.71817 119.370409 
L 113.803644 119.712079 
L 112.58006 119.998794 
L 111.412504 120.631953 
L 109.615986 121.351119 
L 109.567187 121.492084 
L 109.155109 122.12523 
L 108.471926 122.923224 
L 107.924295 123.764213 
L 106.51636 125.269365 
L 106.326587 125.914419 
L 102.910672 134.258824 
L 102.921517 135.044698 
L 102.818497 135.727848 
L 102.590769 136.313056 
L 101.06897 139.078953 
L 100.9045 139.461101 
L 99.818276 140.621853 
L 98.715785 142.047669 
L 97.974766 142.785634 
L 96.998791 144.020319 
L 96.069806 144.977949 
L 95.428193 146.203009 
L 95.301677 146.723588 
L 95.346861 147.585629 
L 95.082987 148.999236 
L 95.303485 149.674976 
L 95.377587 150.011648 
L 95.388431 151.126697 
L 95.970401 156.67271 
L 95.6017 160.079071 
L 95.120941 162.382368 
L 95.317944 164.551822 
L 95.251071 165.699723 
L 95.345054 166.99791 
L 95.346861 168.630095 
L 95.509524 169.064372 
L 95.513139 169.594084 
L 95.406504 170.600982 
L 95.49868 171.087713 
L 96.002934 171.789162 
L 95.885455 172.75541 
L 95.657728 173.452037 
L 94.795616 175.42252 
L 94.045561 177.659979 
L 92.957529 179.408282 
L 90.488672 186.271292 
L 89.978996 186.915027 
L 89.301235 187.382318 
L 88.527684 187.687482 
L 86.97516 187.995025 
L 84.139408 189.241835 
L 83.871919 189.513595 
L 83.651421 189.94745 
L 83.018844 192.416898 
L 82.41157 193.186746 
L 81.977803 193.484666 
L 81.298235 193.811181 
L 78.104626 195.994151 
L 77.826292 196.759082 
L 76.250272 199.704111 
L 75.868919 200.168693 
L 74.93632 200.7905 
L 74.681482 201.343198 
L 73.331382 203.091701 
L 71.585471 206.966812 
L 71.310751 207.264492 
L 70.488402 207.731245 
L 69.329883 208.683759 
L 68.814784 208.921878 
L 68.14606 209.0076 
L 67.950865 208.912354 
L 66.964045 208.014624 
L 66.736318 207.890795 
L 66.284477 207.821736 
L 66.141696 207.571693 
L 65.819985 207.557405 
L 65.270547 207.821736 
L 64.697613 208.467067 
L 64.057807 208.60756 
L 63.983705 207.907464 
L 64.198781 205.878443 
L 64.039733 205.452126 
L 64.072266 204.963872 
L 64.236736 204.339839 
L 64.166249 203.76342 
L 63.712601 203.075026 
L 63.446919 202.639108 
L 63.184851 201.066851 
L 63.327633 200.733323 
L 63.604159 200.402171 
L 64.265654 200.040041 
L 64.963295 198.9679 
L 65.209097 198.50805 
L 65.265125 198.076781 
L 65.151261 197.921903 
L 64.545795 197.409604 
L 63.91864 196.311089 
L 63.795739 195.853553 
L 63.931292 195.398389 
L 63.920447 194.673915 
L 63.819235 194.566671 
L 63.495717 194.597652 
L 62.742047 195.136247 
L 61.946808 195.388856 
L 61.590758 195.715337 
L 60.936492 196.47313 
L 59.609889 197.166554 
L 58.071823 197.411987 
L 57.419366 197.75511 
L 56.835588 198.786821 
L 56.557254 199.051291 
L 56.08011 199.661225 
L 55.906603 199.670755 
L 55.378854 199.470623 
L 54.726396 199.458711 
L 54.534815 199.237133 
L 54.128159 198.350793 
L 53.735961 198.01483 
L 53.378104 197.967175 
L 52.065959 198.622418 
L 51.997279 198.886891 
L 52.121987 201.557602 
L 51.788529 202.994037 
L 52.022582 203.984939 
L 51.906911 204.185017 
L 51.488506 204.208836 
L 51.416212 204.461313 
L 51.372835 205.047234 
L 51.219209 205.068669 
L 50.64989 204.90671 
L 50.284803 205.218719 
L 49.905257 206.145184 
L 49.543785 206.295223 
L 49.332323 206.169 
L 48.764812 205.566447 
L 48.564194 205.604554 
L 47.996683 206.040393 
L 48.244291 206.438117 
L 48.193685 206.611969 
L 47.996683 206.747715 
L 47.096616 207.619321 
L 46.4297 208.586129 
L 46.057383 207.581219 
L 45.836885 206.500037 
L 45.413962 206.102315 
L 44.354848 205.602172 
L 44.036752 205.328278 
L 42.578211 203.765802 
L 42.361327 203.010711 
L 41.528133 201.478987 
L 41.101596 201.538544 
L 40.814225 202.048338 
L 40.85218 202.824911 
L 40.038867 202.291319 
L 38.891192 200.485555 
L 37.857381 199.249046 
L 37.5429 198.141115 
L 37.288062 197.676478 
L 37.01515 197.471557 
L 36.595842 197.624057 
L 36.324738 197.697923 
L 36.084358 197.631205 
L 35.395753 197.197532 
L 34.98006 197.514448 
L 34.403512 198.9679 
L 33.80166 199.506361 
L 33.557666 199.87565 
L 32.984732 201.071616 
L 32.710013 201.205025 
L 30.770713 201.671949 
L 29.317594 202.21509 
L 28.844065 202.136478 
L 28.679595 202.458068 
L 28.618145 203.927773 
L 27.705427 206.116605 
L 27.456011 206.242829 
L 26.597514 206.407157 
L 26.18905 206.711992 
L 25.809504 205.909405 
L 25.645034 205.778415 
L 25.355856 205.883207 
L 24.824492 208.245609 
L 24.363614 209.221904 
L 22.244032 211.68 
L 21.734657 210.984405 
L 21.339029 210.120146 
L 20.252583 208.524172 
L 20.086684 207.892726 
L 18.915471 206.139711 
L 19.102491 206.010045 
L 19.336086 206.361464 
L 19.425371 206.298339 
L 19.50779 206.018929 
L 19.459335 205.533195 
L 18.99942 204.746061 
L 18.25738 203.864015 
L 18.188381 203.340661 
L 18.601654 203.346137 
L 18.931155 202.870038 
L 19.009175 202.35113 
L 18.690631 201.483346 
L 16.707111 198.864075 
L 13.295556 194.957249 
L 12.468279 194.281372 
L 11.608183 193.281422 
L 10.920369 191.70687 
L 10.853482 190.757171 
L 9.313452 189.138344 
L 6.58256 186.719332 
L 6.855474 186.050355 
L 8.305201 181.192215 
L 9.357086 180.169095 
L 10.441503 179.145926 
L 11.160834 178.95512 
L 11.82775 178.661752 
L 12.545273 177.290265 
L 13.027839 176.853756 
L 13.904409 177.020728 
L 14.553252 177.676675 
L 16.234099 181.056279 
L 16.613645 181.225603 
L 17.916753 181.1159 
L 19.248779 181.507011 
L 19.599408 181.330535 
L 19.977146 180.9585 
L 20.286205 180.471982 
L 20.423565 179.952063 
L 20.300664 179.463138 
L 19.189136 178.764312 
L 19.01563 178.282515 
L 19.064428 177.748232 
L 20.298857 174.081847 
L 21.052527 173.337525 
L 21.287484 172.841296 
L 21.103133 172.096934 
L 20.42718 171.679413 
L 19.5976 171.378793 
L 18.961409 170.980347 
L 17.887836 169.923358 
L 16.761849 169.24333 
L 16.579305 168.956997 
L 16.608223 168.82576 
L 16.711243 166.821323 
L 16.942585 166.248597 
L 17.125129 166.103027 
L 17.76855 166.07439 
L 18.200509 165.723587 
L 18.200509 165.227204 
L 17.943864 164.695014 
L 16.613645 162.828684 
L 15.724423 161.246258 
L 15.375602 161.095887 
L 14.878578 161.296382 
L 14.170092 161.952752 
L 13.870069 162.019582 
L 13.779701 161.47778 
L 13.987548 160.425175 
L 15.422594 157.095245 
L 15.50754 156.135581 
L 15.249087 155.027872 
L 14.670731 153.607366 
L 14.663501 153.203882 
L 14.790017 151.924161 
L 14.726759 151.415601 
L 14.350828 150.068953 
L 14.527949 149.600956 
L 15.174985 149.629609 
L 16.299164 150.14536 
L 16.611838 150.723183 
L 17.520941 151.556471 
L 17.810119 151.58751 
L 18.101104 151.363073 
L 18.693919 150.642002 
L 19.082502 150.43666 
L 19.713271 150.271909 
L 20.450675 149.959118 
L 20.998306 149.600956 
L 21.495331 150.049851 
L 22.088145 151.021641 
L 22.623125 151.506331 
L 23.165333 151.585122 
L 30.107412 149.620058 
L 29.908602 149.111462 
L 30.391167 146.905072 
L 30.298992 145.608395 
L 30.815898 144.204205 
L 30.134522 143.795834 
L 29.771242 143.055501 
L 29.621231 142.121705 
L 29.541707 139.317796 
L 29.736902 139.377506 
L 30.277304 140.134628 
L 30.584555 140.261211 
L 30.810475 140.098802 
L 31.229783 138.837721 
L 32.274439 137.987424 
L 33.134743 137.956374 
L 33.879376 138.364805 
L 35.111997 139.544695 
L 35.851209 139.859964 
L 36.145809 140.127463 
L 36.348233 140.691115 
L 36.991654 143.026842 
L 37.342282 143.518808 
L 37.400118 144.421524 
L 37.729058 144.533765 
L 37.617002 144.930187 
L 37.512175 145.250188 
L 37.553744 145.403023 
L 37.850151 145.861525 
L 37.938712 146.511059 
L 38.188128 146.499119 
L 38.612858 146.212561 
L 38.764677 146.408376 
L 39.256279 147.38027 
L 39.391831 148.189762 
L 39.623174 148.361688 
L 39.706312 148.385566 
L 39.749689 148.64584 
L 39.505695 149.039829 
L 39.256279 150.030749 
L 38.970716 150.462925 
L 39.021322 150.601411 
L 39.256279 150.584697 
L 39.774992 149.899424 
L 40.000912 149.811078 
L 40.434679 149.913751 
L 41.92756 150.706469 
L 42.119141 150.65394 
L 42.655927 150.360254 
L 42.827627 150.410396 
L 46.187513 151.952812 
L 46.523682 151.842983 
L 46.993597 151.926549 
L 47.351454 151.864472 
L 47.588219 152.186795 
L 47.852094 151.862084 
L 47.996683 151.425152 
L 48.170189 151.203102 
L 48.885905 150.491577 
L 49.31425 149.863608 
L 50.192628 149.185484 
L 50.360712 148.457201 
L 51.831905 146.496731 
L 51.923177 145.799436 
L 52.154519 145.083024 
L 52.559369 144.240027 
L 52.615397 144.268684 
L 53.040127 144.748693 
L 53.403407 145.672871 
L 53.562455 146.628069 
L 54.17515 148.12529 
L 54.612532 148.781946 
L 54.670368 149.424262 
L 55.409579 150.310112 
L 55.335477 150.460537 
L 55.12763 150.630063 
L 54.880022 151.327259 
L 54.386612 151.771355 
L 54.354079 152.776519 
L 54.639642 153.108383 
L 55.03907 153.282669 
L 55.467414 153.311319 
L 55.834309 153.211045 
L 56.304223 152.869632 
L 56.474115 152.869632 
L 56.63497 153.02482 
L 56.79944 153.583491 
L 56.933185 153.585879 
L 58.023025 153.246857 
L 58.465828 153.547679 
L 58.624876 153.516642 
L 58.809021 153.042128 
L 59.065873 152.425551 
L 59.356858 152.050703 
L 59.429152 151.210265 
L 60.065344 150.496353 
L 60.238851 150.391294 
L 61.149761 150.19789 
L 61.019631 149.462466 
L 59.694835 147.982018 
L 59.638806 147.191624 
L 59.875571 146.948055 
L 60.475615 146.659113 
L 60.71238 146.152861 
L 60.623819 145.512873 
L 60.717802 145.403023 
L 61.138917 145.104516 
L 61.220248 144.774962 
L 61.366645 142.675776 
L 61.133495 142.417847 
L 61.214826 142.057222 
L 61.249166 141.586732 
L 61.460627 141.247594 
L 63.998164 139.843245 
L 64.124679 139.525588 
L 64.001779 138.321813 
L 64.108413 137.727078 
L 64.27469 135.386274 
L 64.486152 135.07575 
L 64.89823 134.746115 
L 64.764486 134.59324 
L 64.097569 134.390202 
L 63.886108 133.453826 
L 63.430652 133.031018 
L 63.587893 132.847083 
L 64.276498 132.412326 
L 64.57652 131.710017 
L 65.149454 131.566688 
L 65.142224 131.217918 
L 64.717494 130.501259 
L 64.937992 129.832369 
L 65.030168 129.058357 
L 65.579606 128.346447 
L 65.482008 127.866261 
L 64.61086 126.977548 
L 64.554832 126.279946 
L 65.044627 125.532166 
L 65.178372 124.791543 
L 65.167527 123.862169 
L 64.73514 123.176904 
L 64.540373 122.801375 
L 64.632548 122.204074 
L 64.587364 121.735786 
L 64.401206 121.236435 
L 63.905989 119.090859 
L 64.090339 118.598658 
L 64.269268 117.069471 
L 65.044627 115.556982 
L 64.849432 113.697996 
L 64.947029 113.131691 
L 65.657322 111.100616 
L 65.776608 110.350304 
L 65.619368 109.657336 
L 64.994021 108.237936 
L 64.298186 107.604697 
L 63.911411 106.916495 
L 63.322211 106.429017 
L 62.169113 105.853122 
L 61.869091 105.915251 
L 61.330497 106.204394 
L 60.426816 105.946316 
L 59.843038 106.285641 
L 59.68399 104.467142 
L 59.174314 102.748993 
L 58.718859 102.15875 
L 58.079053 101.74773 
L 57.377796 101.604351 
L 56.741605 101.826588 
L 56.474115 101.446633 
L 56.304223 101.358216 
L 55.543324 101.324761 
L 55.355358 101.74773 
L 55.011959 101.888719 
L 54.907132 101.785964 
L 54.099241 100.512276 
L 54.115507 99.857508 
L 54.299858 99.283988 
L 55.653573 96.743764 
L 55.528865 96.146344 
L 55.877686 95.252605 
L 55.740326 94.968233 
L 55.212576 94.753162 
L 55.055336 92.518816 
L 54.79869 91.221227 
L 54.878214 90.669215 
L 55.472836 89.498283 
L 56.092762 87.660647 
L 56.465078 87.137318 
L 57.757342 86.195806 
L 58.084475 85.698766 
L 58.153155 85.220845 
L 57.84771 84.265006 
L 58.379075 83.290056 
L 59.244801 83.134734 
L 60.226199 83.280498 
L 61.339534 83.09889 
L 61.504004 82.881439 
L 62.799883 81.399915 
L 62.915554 80.905281 
L 62.967968 79.718885 
L 63.474029 78.757112 
L 64.280112 77.843138 
L 64.878349 76.89094 
L 64.703035 75.528968 
L 65.236207 74.648476 
L 65.102462 74.4633 
L 64.684962 74.184938 
L 64.059614 73.328353 
L 63.620425 72.281827 
L 63.347514 71.099127 
L 63.108942 70.628441 
L 62.270326 70.117141 
L 61.997414 69.634516 
L 61.854632 69.04438 
L 61.825715 66.695833 
L 61.460627 64.994805 
L 60.265961 63.838516 
L 59.226728 63.544072 
L 57.91639 63.941243 
L 57.065123 63.094944 
L 56.763293 63.006552 
L 53.213634 62.678667 
L 53.034705 63.385802 
L 52.763601 63.989024 
L 52.523221 64.058902 
L 52.230429 63.905408 
L 51.901489 64.181936 
L 51.466818 64.334236 
L 50.794479 64.380822 
L 50.319143 64.841906 
L 49.691988 65.164428 
L 49.066641 66.089 
L 48.481056 66.232346 
L 47.953306 66.23593 
L 47.412905 66.098557 
L 46.536334 65.778419 
L 45.813389 65.959989 
L 45.672415 66.133199 
L 45.560358 66.54293 
L 44.945855 66.707779 
L 44.62053 67.233387 
L 43.939155 67.515306 
L 42.796464 67.495977 
L 42.742681 67.176048 
L 42.189628 66.710168 
L 42.522183 66.664775 
L 42.856545 65.90504 
L 43.398753 65.725859 
L 43.648169 65.503675 
L 43.957228 64.837128 
L 43.745767 64.223744 
L 43.751189 62.749142 
L 43.471048 62.517413 
L 43.156567 61.399399 
L 42.796902 61.156329 
L 42.901729 60.828456 
L 42.75714 60.239603 
L 42.55833 60.038343 
L 42.439044 60.209742 
L 41.829963 58.947256 
L 42.129985 58.489807 
L 42.186013 57.934424 
L 42.081186 56.8822 
L 42.317951 55.557101 
L 42.189628 55.160594 
L 42.410126 54.991005 
L 42.7228 54.335346 
L 42.928839 53.11661 
L 42.625202 52.253186 
L 42.399282 51.843574 
L 42.471576 51.738484 
L 42.679423 51.659668 
L 43.033666 50.843444 
L 43.239705 50.538334 
L 43.275853 50.304877 
L 43.18187 49.677354 
L 43.433093 49.509578 
L 43.856016 48.944162 
L 44.479556 48.489804 
L 44.658485 47.935747 
L 44.719935 47.193036 
L 44.714513 45.807359 
L 61.881743 45.980491 
L 62.651679 45.585273 
L 63.759592 45.783478 
L 64.034311 45.990043 
L 64.372288 46.403175 
L 64.722916 46.433026 
L 65.080774 46.142878 
L 66.617032 45.680794 
L 66.633298 45.268863 
L 66.629683 45.053945 
L 66.880907 44.704109 
L 67.33094 44.867684 
L 67.909296 45.720196 
L 68.326796 45.966163 
L 68.178593 46.332728 
L 68.348485 46.447355 
L 68.802133 46.424668 
L 69.046127 46.62049 
L 69.391333 47.090347 
L 69.649786 47.227663 
L 69.5305 46.664072 
L 69.657015 46.58049 
L 70.128737 46.91303 
L 69.769072 47.227663 
L 70.123315 47.283187 
L 70.365501 47.227663 
L 70.425144 48.016347 
L 71.760785 47.774546 
L 71.918025 47.279008 
L 71.918025 46.991838 
L 72.037311 46.849746 
L 72.519877 47.631854 
L 72.575905 47.859326 
L 72.917496 48.167996 
L 72.657236 49.381209 
L 73.730809 49.394345 
L 73.891665 49.288067 
L 74.030832 48.732804 
L 74.200724 48.763851 
L 75.03211 49.63735 
L 75.301407 49.740046 
L 75.641191 49.594361 
L 75.847231 50.005742 
L 76.140023 49.888716 
L 76.70392 49.135817 
L 76.960566 49.262991 
L 77.190101 48.58175 
L 77.748576 48.851021 
L 78.256444 48.613394 
L 78.7119 48.944162 
L 78.97216 49.521519 
L 79.704142 49.955588 
L 79.841501 50.304877 
L 79.812583 50.832696 
L 80.034889 51.048245 
L 80.64397 51.301411 
L 82.218182 50.226063 
L 82.982697 50.086944 
L 83.747211 50.272635 
L 85.236477 50.85658 
L 86.973352 51.20707 
L 87.374587 51.453669 
L 87.909566 51.638172 
L 88.796981 52.915979 
L 89.26328 53.130344 
L 89.968152 53.764489 
L 90.100089 54.306086 
L 90.542893 54.174717 
L 90.729051 54.040959 
L 90.783272 54.405808 
L 91.381509 54.673923 
L 91.683338 54.830374 
L 91.864075 54.701391 
L 92.267116 54.813654 
L 92.485807 55.253152 
L 92.409898 55.9351 
L 92.558102 56.336988 
L 93.246707 57.512218 
L 94.186535 55.962569 
L 94.562466 56.130968 
L 94.750432 56.021091 
L 94.80646 55.657423 
L 94.387152 53.103474 
L 93.485278 50.383691 
L 93.159953 50.015295 
L 93.187064 48.939982 
L 93.450939 48.243224 
L 93.346112 47.681408 
L 93.496123 47.412146 
L 93.604564 47.385877 
L 93.595528 46.84497 
L 93.485278 46.345862 
L 93.52504 46.081982 
L 94.130507 44.83067 
L 94.48475 44.911861 
L 94.810075 45.321399 
L 95.657728 44.374573 
L 95.46434 44.065338 
L 100.485192 29.652807 
L 100.078536 28.862795 
L 99.865267 28.427223 
L 99.816468 27.406941 
L 100.492422 25.69224 
L 100.608093 24.862971 
L 100.165289 22.815571 
L 100.367714 22.287044 
L 100.969565 21.182306 
L 101.517196 18.668202 
L 101.672629 16.738222 
L 101.95277 15.70829 
L 102.491364 14.847764 
L 103.20708 14.226393 
L 104.027622 13.912136 
L 104.7831 13.912136 
L 106.223567 14.386206 
L 106.592269 14.358775 
L 106.935668 14.129193 
L 106.944705 13.499494 
L 107.36582 13.520961 
L 107.846579 13.71774 
L 108.502651 13.661091 
L 108.963528 14.113689 
L 109.33223 13.975345 
L 109.673822 14.006353 
L 110.017221 13.696869 
L 110.429299 13.41005 
L 110.58654 13.359961 
L 111.29864 13.349228 
L 112.008934 13.020673 
L 112.961414 13.000399 
L 113.411447 12.612818 
L 113.796415 12.10301 
L 114.049446 11.980778 
L 114.273559 12.011783 
L 114.725399 12.21153 
L 115.359783 12.151307 
L 116.082728 11.114436 
L 117.537655 10.08 
L 118.014798 10.264227 
L 118.168424 10.658324 
L 118.491942 10.751334 
L 119.138978 11.467408 
L 119.773362 11.834696 
L 120.481848 11.971238 
L 122.007261 11.94381 
L 122.334394 11.835292 
L 122.451873 11.90565 
L 122.732014 12.243728 
L 123.382664 12.174562 
L 123.648346 12.380273 
L 124.036929 13.13993 
L 124.239354 13.95984 
L 124.48877 14.025435 
L 124.819517 13.90021 
L 125.679821 13.421976 
L 126.466024 14.020664 
L 126.682907 13.990849 
L 127.228731 13.640817 
L 127.823353 13.429131 
L 128.434241 13.421976 
L 129.036093 13.686136 
L 129.343345 14.082681 
L 129.56565 15.004004 
L 129.795185 15.340937 
L 130.174731 15.408325 
L 130.541626 15.178732 
L 131.049495 14.398133 
L 131.474225 13.104152 
L 131.824853 13.169744 
L 133.323156 13.036176 
L 133.643059 13.169744 
L 133.709932 13.086264 
L 133.859943 12.674234 
L 134.514208 12.573464 
L 135.027499 11.854372 
L 135.255226 11.838869 
L 135.978171 12.757713 
L 137.185489 15.408325 
L 137.953618 15.420252 
L 137.953618 15.420252 
" clip-path="url(#p248feb43bd)" style="fill: none; stroke: #000000; stroke-width: 0.5; stroke-linecap: square"/>
   </g>
  </g>
 </g>
 <defs>
  <clipPath id="p248feb43bd">
   <rect x="0" y="-0" width="144.816319" height="221.76"/>
  </clipPath>
 </defs>
</svg>
