<?xml version="1.0" encoding="utf-8" standalone="no"?>
<!DOCTYPE svg PUBLIC "-//W3C//DTD SVG 1.1//EN"
  "http://www.w3.org/Graphics/SVG/1.1/DTD/svg11.dtd">
<svg xmlns:xlink="http://www.w3.org/1999/xlink" width="223.2pt" height="202.574676pt" viewBox="0 0 223.2 202.574676" xmlns="http://www.w3.org/2000/svg" version="1.1">
 <metadata>
  <rdf:RDF xmlns:dc="http://purl.org/dc/elements/1.1/" xmlns:cc="http://creativecommons.org/ns#" xmlns:rdf="http://www.w3.org/1999/02/22-rdf-syntax-ns#">
   <cc:Work>
    <dc:type rdf:resource="http://purl.org/dc/dcmitype/StillImage"/>
    <dc:date>2026-04-26T19:22:02.271311</dc:date>
    <dc:format>image/svg+xml</dc:format>
    <dc:creator>
     <cc:Agent>
      <dc:title>Matplotlib v3.10.9, https://matplotlib.org/</dc:title>
     </cc:Agent>
    </dc:creator>
   </cc:Work>
  </rdf:RDF>
 </metadata>
 <defs>
  <style type="text/css">*{stroke-linejoin: round; stroke-linecap: butt}</style>
 </defs>
 <g id="figure_1">
  <g id="patch_1">
   <path d="M 0 202.574676 
L 223.2 202.574676 
L 223.2 0 
L 0 0 
z
" style="fill: #ffffff"/>
  </g>
  <g id="axes_1">
   <g id="patch_2">
    <path d="M 78.663305 12.182682 
L 81.743442 14.65066 
L 82.3311 15.329483 
L 83.3595 17.40453 
L 84.109271 18.13565 
L 84.945163 18.538794 
L 86.870249 19.092048 
L 87.792263 19.495342 
L 90.370865 21.038768 
L 91.262484 21.313305 
L 93.131843 21.447064 
L 94.048792 21.686441 
L 94.803628 22.17465 
L 96.429819 24.062644 
L 96.774308 24.274073 
L 97.625398 24.647641 
L 97.969887 24.931965 
L 98.137066 25.310329 
L 98.243452 26.236499 
L 98.302506 26.382149 
L 98.420762 26.673842 
L 98.896968 27.193578 
L 100.021623 28.134544 
L 100.487697 28.751063 
L 101.075354 29.101745 
L 101.72887 29.195895 
L 102.387452 29.066439 
L 103.005506 28.736943 
L 103.294269 28.209836 
L 103.72488 27.819282 
L 104.266944 27.673428 
L 104.869799 27.875744 
L 105.275081 28.320425 
L 105.264949 28.736943 
L 105.07244 29.16765 
L 104.950856 29.636096 
L 104.991384 32.005525 
L 104.859667 32.651253 
L 104.662093 33.044896 
L 104.120029 33.879523 
L 103.740078 35.021087 
L 103.917389 35.766676 
L 105.356137 37.393087 
L 105.984323 38.451154 
L 105.857672 39.091398 
L 105.14843 39.568731 
L 104.049105 40.150155 
L 104.363198 40.790817 
L 105.07244 41.100566 
L 105.94886 41.285014 
L 106.759423 41.545155 
L 107.463599 42.018205 
L 109.06446 43.565677 
L 112.230719 45.455115 
L 114.120342 47.101786 
L 114.870113 47.504726 
L 116.594496 48.023465 
L 118.912792 48.72103 
L 119.419394 48.984281 
L 119.834807 49.299742 
L 120.265418 49.555934 
L 120.842944 49.648453 
L 121.319149 49.499 
L 122.109448 48.922616 
L 122.610983 48.839608 
L 123.406348 49.230954 
L 125.078132 50.865747 
L 125.878563 51.492409 
L 127.504753 52.252198 
L 128.381174 52.494426 
L 130.448108 52.537175 
L 135.655971 53.617992 
L 137.038993 54.11698 
L 138.295365 54.796704 
L 139.520579 55.778366 
L 139.957018 56.128137 
L 140.179923 56.737014 
L 139.997546 57.3151 
L 139.379492 57.672007 
L 138.766504 57.695802 
L 138.254837 57.867135 
L 137.834358 58.157476 
L 137.464539 58.531157 
L 137.530397 58.597806 
L 137.560793 58.883465 
L 137.560793 59.223914 
L 137.530397 59.452493 
L 137.393614 59.645371 
L 136.978201 59.978773 
L 136.831287 60.171689 
L 136.638778 60.819607 
L 136.613448 61.143626 
L 136.456402 61.36522 
L 135.838348 61.708369 
L 135.32668 61.827528 
L 134.075375 61.88711 
L 133.589037 62.051562 
L 133.234416 62.418637 
L 133.00138 62.895433 
L 133.1027 63.284084 
L 133.766348 63.400929 
L 134.597174 63.429545 
L 134.749155 63.665637 
L 134.62757 63.970919 
L 134.657966 64.221371 
L 135.79782 64.73666 
L 138.153517 65.013431 
L 139.379492 65.419094 
L 141.086739 65.865394 
L 141.806113 66.292671 
L 142.201262 67.039971 
L 142.06448 67.926018 
L 141.370436 68.320175 
L 139.379492 68.697665 
L 138.001536 68.83864 
L 135.154436 68.743063 
L 133.842338 69.05609 
L 133.20402 69.438463 
L 132.758211 69.94519 
L 132.5809 70.578732 
L 133.413651 70.823247 
L 133.452255 70.834582 
L 134.333741 71.286563 
L 135.184832 72.508964 
L 135.980196 72.76021 
L 140.149526 73.073703 
L 143.148607 72.906183 
L 144.11115 73.090455 
L 144.972372 73.633772 
L 145.397918 74.373528 
L 145.691747 75.209288 
L 146.152754 76.045305 
L 147.946123 77.26266 
L 150.342348 77.75407 
L 152.875356 77.744481 
L 155.074006 77.43764 
L 156.867375 76.912735 
L 157.708334 76.761753 
L 158.518896 76.876786 
L 162.951659 78.439794 
L 164.517058 78.612452 
L 165.003395 78.938611 
L 166.371219 81.177215 
L 166.472624 81.50967 
L 166.567261 81.819972 
L 166.746104 82.406468 
L 167.009537 82.761901 
L 167.52627 83.090958 
L 168.083532 83.31916 
L 168.534407 83.621857 
L 169.056207 84.967579 
L 169.907297 85.532499 
L 171.001557 85.857079 
L 172.060354 85.938831 
L 173.230603 85.732051 
L 173.868921 85.277669 
L 179.451669 78.46857 
L 179.740432 77.739686 
L 180.464872 77.370523 
L 182.496344 77.058931 
L 183.453821 76.665896 
L 185.161068 75.400902 
L 185.677801 75.130251 
L 186.878447 75.161387 
L 187.780198 75.290723 
L 188.504638 75.578158 
L 191.914066 78.120887 
L 193.590917 79.039345 
L 195.242437 79.593447 
L 199.112873 79.910127 
L 199.827181 80.260438 
L 202.299396 82.130318 
L 202.010633 82.973262 
L 201.149411 83.569002 
L 200.055151 83.917378 
L 199.112873 84.035115 
L 198.054076 83.862116 
L 196.270838 83.04532 
L 195.242437 82.761901 
L 194.219102 82.735482 
L 193.246428 82.934831 
L 192.516921 83.403239 
L 192.233225 84.176887 
L 192.081244 84.982001 
L 191.675963 85.436334 
L 191.042711 85.631071 
L 189.320266 85.683965 
L 188.864325 85.784947 
L 188.524902 85.991731 
L 188.312129 86.426991 
L 188.185479 87.052347 
L 188.175347 87.658596 
L 188.322261 88.038773 
L 189.350662 88.68375 
L 189.568501 89.006295 
L 189.614095 89.35536 
L 189.497577 90.092153 
L 189.553303 90.44858 
L 190.414525 91.800051 
L 191.721557 93.01718 
L 193.362946 93.976799 
L 195.242437 94.560448 
L 197.268843 94.758241 
L 198.20099 95.054958 
L 198.591073 95.689506 
L 198.388433 97.934508 
L 198.651865 98.62527 
L 198.696069 98.645984 
L 196.595063 99.321036 
L 196.164452 99.632737 
L 195.419748 100.471362 
L 194.624384 101.104727 
L 194.507865 101.16517 
L 194.442007 101.450479 
L 194.497733 101.699544 
L 194.593987 101.847059 
L 194.664912 101.849477 
L 194.15831 103.235529 
L 194.062056 103.763037 
L 194.112716 104.220453 
L 194.431875 105.210566 
L 194.436941 105.622207 
L 193.859415 106.346356 
L 192.988061 106.465048 
L 191.979924 106.416602 
L 190.976853 106.663685 
L 190.409459 107.247566 
L 190.034574 107.923662 
L 189.482379 108.410843 
L 188.393185 108.432659 
L 187.630302 108.517513 
L 186.083083 108.689616 
L 184.978691 109.019331 
L 184.380902 109.657051 
L 184.269449 110.239126 
L 184.244119 111.600195 
L 184.132667 112.333163 
L 184.006017 112.543137 
L 183.519679 113.168297 
L 183.372765 113.406259 
L 183.27651 114.81501 
L 182.810437 116.262137 
L 182.182251 117.346445 
L 181.923884 118.371569 
L 182.567268 119.646496 
L 183.838838 120.708964 
L 183.889498 121.075382 
L 183.707122 121.861939 
L 183.717254 122.254081 
L 183.935092 122.869194 
L 184.249185 123.484439 
L 184.639268 124.060818 
L 185.085078 124.556864 
L 185.698066 124.95547 
L 187.14188 125.512636 
L 187.648481 125.856499 
L 187.972706 126.478483 
L 188.0183 127.561788 
L 188.393185 128.145087 
L 188.408383 128.176818 
L 188.418515 128.201227 
L 188.408383 128.225635 
L 188.393185 128.245163 
L 188.231073 128.416032 
L 188.180413 128.586911 
L 188.231073 128.762683 
L 188.393185 128.925037 
L 188.453978 129.038569 
L 188.474242 129.154547 
L 188.453978 129.276633 
L 188.393185 129.398725 
L 188.256403 129.631935 
L 188.205743 129.868827 
L 188.246271 130.102075 
L 188.844061 130.969288 
L 189.761009 133.217922 
L 190.227083 134.121534 
L 190.900863 134.566718 
L 192.527053 135.11106 
L 192.866476 135.356965 
L 193.555454 136.006695 
L 194.021528 136.256347 
L 194.543327 136.33957 
L 195.602124 136.299182 
L 196.058066 136.388525 
L 196.427885 136.676154 
L 196.975014 137.486565 
L 197.092522 137.576438 
L 197.37523 137.79267 
L 197.841303 137.915121 
L 198.77345 137.880835 
L 199.249655 137.92002 
L 200.055151 138.174735 
L 200.29905 138.298463 
L 200.723865 138.513981 
L 204.229548 141.005038 
L 204.847601 141.644993 
L 205.024912 142.022657 
L 205.176892 142.888524 
L 205.328873 143.263895 
L 205.632834 143.584102 
L 206.818281 144.424659 
L 208.115181 145.676737 
L 208.799093 146.164209 
L 209.670448 146.548596 
L 212.081871 146.92075 
L 212.897499 147.178706 
L 212.972745 147.733785 
L 213.054545 148.337331 
L 212.537812 149.927956 
L 211.636061 151.494835 
L 210.638056 152.576392 
L 210.237841 152.786843 
L 209.407015 153.066237 
L 208.991602 153.329655 
L 208.748433 153.6645 
L 208.393812 154.538722 
L 208.135445 154.906957 
L 206.078643 156.296565 
L 205.430193 156.957102 
L 205.430193 156.964497 
L 205.425127 156.966962 
L 205.420061 156.966962 
L 204.781743 157.145678 
L 203.424051 157.374944 
L 202.851592 157.621485 
L 202.507103 158.024624 
L 202.203142 158.627586 
L 201.336853 160.946857 
L 201.045843 161.482421 
L 201.007562 161.552878 
L 200.430037 162.05408 
L 198.940628 162.50721 
L 197.45122 162.768994 
L 193.758095 162.05408 
L 192.420667 162.178777 
L 191.751953 162.509679 
L 191.497713 162.779778 
L 191.483454 162.794927 
L 191.144031 162.940648 
L 190.272677 162.844323 
L 189.598897 162.855438 
L 189.158154 163.128368 
L 188.393185 163.973251 
L 187.876452 164.289526 
L 186.630212 164.765236 
L 186.204667 165.046991 
L 185.893195 165.391851 
L 185.74366 165.557431 
L 185.667669 165.737897 
L 185.839914 165.915902 
L 187.005097 167.951349 
L 187.663679 168.672619 
L 188.393185 169.089624 
L 188.448912 169.233176 
L 188.46411 169.37921 
L 188.448912 169.527726 
L 188.393185 169.671299 
L 187.739669 170.11939 
L 186.463034 171.875259 
L 186.812589 172.533043 
L 186.584618 173.716425 
L 186.426107 174.215239 
L 185.814584 176.140392 
L 185.642339 177.096873 
L 185.855112 177.166357 
L 188.393185 178.885344 
L 189.897792 179.675038 
L 190.520912 180.22894 
L 190.895797 180.907171 
L 190.895797 180.914625 
L 191.093371 181.6365 
L 190.926193 182.636971 
L 190.257479 184.401331 
L 189.735679 185.171304 
L 189.183484 185.447496 
L 188.570496 185.545787 
L 187.820726 185.808325 
L 187.06589 186.527622 
L 186.285723 188.296713 
L 185.576481 188.979225 
L 184.684863 189.188492 
L 182.643259 189.215897 
L 181.706046 189.579661 
L 180.738437 189.537303 
L 179.872148 189.295623 
L 179.086916 188.858404 
L 178.367542 188.239429 
L 178.225694 187.890766 
L 178.190232 187.071562 
L 177.972393 186.837544 
L 177.526584 186.897292 
L 176.23475 187.870843 
L 169.476686 189.947206 
L 167.779571 190.17523 
L 167.019875 190.110816 
L 166.148314 190.036918 
L 164.547454 189.619528 
L 161.928324 188.631723 
L 161.315336 188.534579 
L 160.788471 188.716415 
L 159.126818 189.769034 
L 158.782329 189.831331 
L 156.821781 189.815134 
L 155.833908 189.979601 
L 151.045985 192.111241 
L 150.408206 192.395298 
L 149.698964 193.025086 
L 148.956196 193.366736 
L 148.113302 193.33691 
L 146.395923 192.988917 
L 143.964236 193.025086 
L 143.426097 192.819116 
L 142.925703 191.482646 
L 141.015815 189.367875 
L 141.071541 188.205806 
L 142.11514 187.401458 
L 145.023033 186.752904 
L 146.041302 186.05222 
L 146.25914 185.30442 
L 146.015972 183.775793 
L 146.117292 183.038494 
L 146.552969 182.502728 
L 148.513517 181.073647 
L 150.955336 178.139296 
L 151.446739 177.034835 
L 151.401145 176.852452 
L 151.056656 176.433135 
L 150.985732 176.224739 
L 151.07692 176.087056 
L 151.411277 175.966744 
L 151.502466 175.874963 
L 151.563258 175.744738 
L 151.831757 174.772565 
L 151.791228 174.629989 
L 152.2725 174.370891 
L 152.860158 174.17999 
L 153.376891 173.935804 
L 153.655522 173.514412 
L 153.245175 172.453755 
L 152.258123 171.983636 
L 151.983737 171.852963 
L 150.524725 171.611442 
L 149.470994 171.628781 
L 147.348333 172.324915 
L 146.628959 172.32987 
L 145.808265 171.937191 
L 144.232734 170.508119 
L 143.482964 170.030262 
L 142.368441 169.760417 
L 137.434142 169.267827 
L 136.256657 169.293232 
L 135.655971 169.306192 
L 134.830211 169.126749 
L 134.338807 168.88297 
L 134.364137 168.745622 
L 134.597174 168.60333 
L 134.754221 168.364543 
L 134.921399 167.624794 
L 135.585047 166.018507 
L 135.792754 165.216304 
L 135.796806 164.212159 
L 135.79782 163.960897 
L 135.331746 163.598953 
L 134.343873 163.564367 
L 132.773409 163.298808 
L 132.266807 163.077732 
L 131.314397 162.497332 
L 130.792597 162.266438 
L 130.235335 162.173838 
L 129.090416 162.178777 
L 128.548353 162.07013 
L 127.170397 160.907365 
L 126.891766 159.397187 
L 126.820841 157.916129 
L 126.060939 156.851111 
L 125.240245 156.754982 
L 124.571531 157.103771 
L 123.882553 157.365082 
L 123.026396 157.006402 
L 122.605917 156.376659 
L 121.856147 153.87626 
L 121.096245 152.767151 
L 120.316078 152.33273 
L 117.043433 152.204755 
L 116.03023 151.930363 
L 115.45549 151.691289 
L 111.488218 150.041548 
L 107.863814 148.535191 
L 107.544655 148.148087 
L 107.74223 148.108765 
L 107.889144 147.489512 
L 107.965134 146.79915 
L 107.934738 146.555965 
L 108.497066 146.188769 
L 108.993535 146.298064 
L 109.145516 146.30666 
L 108.674376 145.63622 
L 108.350152 145.318244 
L 107.858748 144.951203 
L 106.926601 144.402568 
L 106.450436 144.298181 
L 105.700626 144.133811 
L 104.479716 144.239347 
L 103.294269 144.618573 
L 99.454229 146.671414 
L 98.370102 146.973568 
L 96.774308 147.022702 
L 96.369026 147.227843 
L 96.049868 147.845812 
L 96.176518 148.375427 
L 96.764176 149.273901 
L 97.179589 150.301767 
L 97.448088 150.759258 
L 97.741916 151.066751 
L 98.177594 151.161466 
L 98.704459 151.112263 
L 99.200929 151.129484 
L 99.560616 151.422253 
L 99.352909 152.583776 
L 98.319442 154.163144 
L 97.017476 155.599216 
L 95.994141 156.31628 
L 95.401418 156.324906 
L 94.83909 156.209079 
L 94.327423 156.201686 
L 93.886679 156.530694 
L 93.420606 157.262774 
L 93.152107 157.577106 
L 92.762024 157.839691 
L 91.814679 158.076408 
L 90.948391 158.076408 
L 90.112498 158.258889 
L 89.281672 159.039495 
L 88.866259 160.375507 
L 89.636293 160.974008 
L 90.725486 161.466473 
L 90.992989 162.026647 
L 91.211823 162.484984 
L 90.107432 163.55325 
L 87.741603 164.264815 
L 83.688791 164.896224 
L 84.170063 163.044387 
L 84.094073 161.859021 
L 83.28351 161.094957 
L 80.269231 160.000426 
L 77.700762 158.674447 
L 76.297476 158.236695 
L 73.668214 158.046817 
L 73.106691 157.913695 
L 72.492899 157.768187 
L 69.522589 155.662802 
L 69.426721 155.594875 
L 67.735911 154.397105 
L 64.78749 152.909921 
L 64.301153 152.559163 
L 63.931334 152.096472 
L 63.652703 151.608017 
L 63.28795 151.22666 
L 62.674962 151.076592 
L 62.208889 151.257413 
L 61.063969 152.094011 
L 60.496576 152.347497 
L 58.834923 152.443483 
L 57.208732 152.367186 
L 56.063813 152.057097 
L 55.055676 151.472691 
L 54.153925 150.626431 
L 52.720243 148.766248 
L 52.325094 148.739209 
L 51.924879 149.023137 
L 51.301759 149.189082 
L 50.242962 149.104264 
L 48.069641 148.640885 
L 47.061504 148.262369 
L 46.21548 147.710659 
L 44.700742 146.298064 
L 44.597629 146.236436 
L 42.861778 145.199165 
L 42.365309 144.662758 
L 41.52435 143.325235 
L 40.931627 142.699631 
L 38.038932 140.558869 
L 35.992262 138.385381 
L 35.176634 137.966552 
L 28.448966 135.828036 
L 27.167264 135.054786 
L 26.366834 133.807255 
L 26.331372 132.447813 
L 27.319245 131.351677 
L 28.403372 131.351677 
L 28.99103 130.550306 
L 29.452037 129.49274 
L 30.130883 128.712636 
L 30.667881 128.602779 
L 31.919186 128.745594 
L 32.491646 128.728504 
L 33.069172 128.499029 
L 34.203959 127.868066 
L 34.730824 127.758241 
L 35.556585 128.101152 
L 36.392477 128.856676 
L 37.086521 129.760148 
L 37.491802 130.555192 
L 37.87682 130.975396 
L 38.297299 130.573513 
L 38.910287 129.539137 
L 39.50301 129.504949 
L 41.357172 130.026359 
L 41.742189 129.855395 
L 41.848575 129.658798 
L 41.711793 129.44268 
L 41.357172 129.209485 
L 41.119069 128.710194 
L 41.058277 128.054778 
L 41.149465 127.373888 
L 41.357172 126.810263 
L 42.613543 125.947958 
L 42.532487 124.699478 
L 41.357172 122.078706 
L 40.374365 120.527598 
L 35.364076 116.758047 
L 32.739881 113.817882 
L 31.245406 112.477594 
L 29.558423 111.580781 
L 28.985964 111.33084 
L 29.543225 110.952332 
L 29.649612 110.619965 
L 29.416575 110.030535 
L 29.411509 109.695852 
L 29.680008 109.249669 
L 30.100487 108.992661 
L 31.11369 108.762344 
L 31.827998 108.733252 
L 32.476448 108.898107 
L 33.717621 109.504276 
L 34.984125 110.324022 
L 35.617377 110.598132 
L 36.326619 110.571448 
L 37.056125 110.421049 
L 39.660057 110.292489 
L 42.451431 110.486544 
L 43.652076 110.413772 
L 44.812194 110.122701 
L 46.828468 109.082369 
L 47.66436 108.439931 
L 48.079773 107.669198 
L 47.71502 106.787235 
L 47.102033 106.409335 
L 46.661289 106.515917 
L 46.362394 106.796925 
L 46.185084 106.927749 
L 45.729142 106.675797 
L 44.928712 106.002423 
L 43.332918 105.358265 
L 43.045993 105.068566 
L 42.162668 104.176886 
L 41.402766 103.688019 
L 41.093739 103.390383 
L 40.987353 102.553302 
L 40.571939 102.183228 
L 40.278111 102.188065 
L 39.725915 102.575073 
L 39.437152 102.633129 
L 39.092663 102.497667 
L 38.570864 102.137274 
L 36.427939 101.046703 
L 35.505925 100.386763 
L 35.196898 99.787393 
L 35.095577 98.837847 
L 34.487656 97.833082 
L 33.641631 96.985593 
L 32.810805 96.507636 
L 32.248477 96.432812 
L 30.667881 96.695912 
L 29.973836 96.66936 
L 29.543225 96.577635 
L 28.530022 96.225245 
L 26.427626 95.911512 
L 25.439753 95.602639 
L 24.553201 94.866792 
L 23.464007 93.263081 
L 23.084056 92.33263 
L 22.997934 91.443449 
L 23.418413 90.470256 
L 24.097259 89.88506 
L 24.674785 89.201285 
L 24.771039 87.925677 
L 23.985807 85.861888 
L 24.112457 85.128629 
L 25.845034 84.739241 
L 26.230052 84.518131 
L 26.549211 84.200917 
L 26.827841 83.830881 
L 26.924096 83.501735 
L 26.873435 82.757098 
L 26.974756 82.444891 
L 27.217924 82.233571 
L 27.749856 82.022267 
L 27.972761 81.871003 
L 30.277797 79.21204 
L 30.981973 77.821196 
L 31.351793 77.392096 
L 31.873592 77.013394 
L 32.861465 76.452627 
L 33.332604 75.973431 
L 33.839206 75.115881 
L 35.571783 69.529284 
L 35.774423 69.314185 
L 36.03279 69.268778 
L 36.205035 69.142119 
L 36.159441 68.673771 
L 36.017592 68.289118 
L 35.814952 68.026343 
L 35.526189 67.842416 
L 35.242185 67.622129 
L 35.055049 67.476987 
L 35.044917 67.519976 
L 34.913201 67.570131 
L 34.416731 67.605956 
L 33.930394 67.491317 
L 32.947587 66.860887 
L 32.51191 66.860887 
L 32.106629 66.99699 
L 31.655753 67.044747 
L 29.482433 66.731953 
L 28.996096 66.796419 
L 28.129807 67.044747 
L 27.638404 67.044747 
L 27.395235 66.822683 
L 27.212858 66.435907 
L 26.903832 66.15899 
L 26.285778 66.256863 
L 21.888477 68.403792 
L 21.098179 68.594925 
L 20.084976 68.692886 
L 18.519577 69.020245 
L 17.465846 67.670443 
L 17.323998 66.741504 
L 18.646227 66.244927 
L 19.309875 66.385774 
L 20.297748 67.10922 
L 21.012056 67.168919 
L 21.599714 66.930131 
L 22.050589 66.538565 
L 22.820624 65.664908 
L 23.286697 65.471596 
L 23.849025 65.30932 
L 24.19858 64.975254 
L 24.001005 64.271464 
L 23.555196 63.942297 
L 22.552125 64.197517 
L 22.020193 63.870744 
L 21.918873 63.400929 
L 22.080985 62.838213 
L 22.314022 62.282766 
L 22.420408 61.848977 
L 22.364682 61.36522 
L 21.959401 60.00497 
L 21.777025 58.897748 
L 21.625044 58.452608 
L 21.250159 57.879034 
L 20.885406 57.579206 
L 20.399069 57.255621 
L 20.008985 56.89877 
L 19.943127 56.489641 
L 20.687831 56.047281 
L 23.433611 56.230399 
L 24.492408 56.08533 
L 24.689983 55.343462 
L 24.056731 54.473457 
L 23.717308 53.796191 
L 24.796369 53.62512 
L 25.378961 53.834209 
L 26.300976 54.715888 
L 26.827841 55.072446 
L 27.77012 55.310177 
L 28.818785 55.352971 
L 30.870521 55.174668 
L 31.11369 55.058183 
L 31.260604 54.851375 
L 31.442981 54.649336 
L 31.797602 54.544758 
L 32.025572 54.627945 
L 32.420722 55.029656 
L 32.658824 55.141386 
L 36.894013 55.013016 
L 37.053209 54.907806 
L 37.613387 54.537628 
L 37.734971 53.458811 
L 37.218238 52.532425 
L 36.275959 52.242699 
L 31.946672 51.93399 
L 30.483873 51.627867 
L 27.409161 50.619639 
L 25.512374 50.103104 
L 22.849041 49.067715 
L 22.587587 48.097396 
L 22.460937 47.673031 
L 21.810341 47.209578 
L 21.037974 47.016904 
L 20.339168 46.926565 
L 19.226349 46.938416 
L 18.438291 46.558451 
L 18.112834 46.278231 
L 17.569305 46.161149 
L 17.532749 46.153275 
L 16.640798 45.743017 
L 16.54453 44.830009 
L 17.614313 44.433887 
L 18.852836 44.313982 
L 19.279233 43.681396 
L 18.549573 42.886512 
L 17.855969 42.422768 
L 17.604105 41.881204 
L 17.567166 41.043815 
L 18.215616 39.906697 
L 18.622776 39.9462 
L 21.52879 40.228161 
L 22.95234 39.313513 
L 22.40521 38.654314 
L 21.777025 38.420445 
L 21.067782 38.318872 
L 20.242022 38.066138 
L 19.750619 37.78745 
L 19.53278 37.584357 
L 19.3808 37.348223 
L 19.076839 36.984618 
L 18.631029 36.765063 
L 18.195352 36.852411 
L 17.774873 37.048364 
L 16.918716 37.343501 
L 16.427313 37.730772 
L 15.794061 38.05669 
L 14.887244 38.066138 
L 14.411039 37.763834 
L 13.433298 36.727292 
L 13.017885 36.505399 
L 13.185063 36.11359 
L 13.245856 35.25701 
L 13.448496 34.398354 
L 14.04122 34.011579 
L 14.578217 33.75219 
L 15.925777 32.533407 
L 16.199342 32.139842 
L 15.915645 31.487174 
L 15.201337 31.077279 
L 14.365445 30.764012 
L 13.691665 30.41546 
L 13.281318 29.829149 
L 13.078677 28.447491 
L 12.850706 27.758116 
L 11.427156 26.617406 
L 11.077601 26.227094 
L 10.327831 25.726359 
L 10.145455 25.446648 
L 10.231577 25.251573 
L 10.408887 25.058863 
L 10.510208 24.793324 
L 10.652056 23.552936 
L 12.212389 23.456643 
L 12.830442 23.369748 
L 13.185063 23.071508 
L 13.038149 22.719301 
L 12.521416 22.348362 
L 11.513279 21.831955 
L 11.959088 21.496346 
L 12.344105 21.256987 
L 13.185063 20.902684 
L 12.906433 20.198916 
L 15.915645 20.346691 
L 16.852858 20.6235 
L 17.131489 20.534355 
L 17.192281 20.388914 
L 17.080829 20.196571 
L 16.705944 19.809581 
L 16.650218 19.640732 
L 16.700878 19.474238 
L 16.852858 19.3101 
L 18.018042 18.775553 
L 19.259215 18.890424 
L 20.125504 18.735701 
L 20.18123 17.390472 
L 20.951264 16.533085 
L 22.080985 16.223934 
L 23.185377 16.490926 
L 23.909817 17.383444 
L 23.909817 17.390472 
L 24.99901 17.800528 
L 29.29499 18.088778 
L 30.657748 17.920042 
L 31.21501 17.45842 
L 31.442981 16.905521 
L 31.807734 16.345716 
L 32.366487 16.075435 
L 32.790541 15.870331 
L 33.682159 15.741547 
L 35.495793 15.734523 
L 36.316487 15.551896 
L 36.818022 15.196045 
L 37.182776 14.741939 
L 37.582991 14.348759 
L 38.195979 14.163892 
L 38.738042 14.110072 
L 39.158521 13.997757 
L 39.984282 13.564921 
L 40.333837 13.251454 
L 40.582071 12.912298 
L 40.92656 12.608266 
L 42.218394 12.1593 
L 42.091744 11.785224 
L 41.726991 11.371466 
L 41.640869 10.999843 
L 42.350111 10.485738 
L 43.489964 9.997435 
L 44.700742 9.647037 
L 45.607558 9.544262 
L 46.651157 9.565284 
L 49.498258 9.20794 
L 50.551989 9.242971 
L 51.570258 9.455506 
L 52.638519 9.893403 
L 55.633201 11.121374 
L 56.489358 11.233561 
L 60.567467 10.151877 
L 61.31727 9.953048 
L 63.28795 9.675067 
L 66.423813 9.861942 
L 68.475549 10.604907 
L 69.868703 10.499757 
L 71.104811 10.100228 
L 71.586082 10.062848 
L 72.386512 10.18667 
L 72.649945 10.322181 
L 73.151481 10.768482 
L 73.526366 10.89935 
L 73.886053 10.871307 
L 75.117094 10.490411 
L 75.998581 10.721746 
z
" clip-path="url(#pc58cc25f99)" style="stroke: #000000; stroke-linejoin: miter"/>
   </g>
   <g id="line2d_1">
    <path d="M 78.663305 12.182682 
L 81.743442 14.65066 
L 82.3311 15.329483 
L 83.3595 17.40453 
L 84.109271 18.13565 
L 84.945163 18.538794 
L 86.870249 19.092048 
L 87.792263 19.495342 
L 90.370865 21.038768 
L 91.262484 21.313305 
L 93.131843 21.447064 
L 94.048792 21.686441 
L 94.803628 22.17465 
L 96.429819 24.062644 
L 96.774308 24.274073 
L 97.625398 24.647641 
L 97.969887 24.931965 
L 98.137066 25.310329 
L 98.302506 26.382149 
L 98.420762 26.673842 
L 98.896968 27.193578 
L 100.021623 28.134544 
L 100.487697 28.751063 
L 101.075354 29.101745 
L 101.72887 29.195895 
L 102.387452 29.066439 
L 103.005506 28.736943 
L 103.294269 28.209836 
L 103.72488 27.819282 
L 104.266944 27.673428 
L 104.869799 27.875744 
L 105.275081 28.320425 
L 105.264949 28.736943 
L 104.950856 29.636096 
L 104.991384 32.005525 
L 104.859667 32.651253 
L 103.740078 35.021087 
L 103.917389 35.766676 
L 105.356137 37.393087 
L 105.984323 38.451154 
L 105.857672 39.091398 
L 105.14843 39.568731 
L 104.049105 40.150155 
L 104.363198 40.790817 
L 105.07244 41.100566 
L 106.759423 41.545155 
L 107.463599 42.018205 
L 109.06446 43.565677 
L 112.230719 45.455115 
L 114.120342 47.101786 
L 114.870113 47.504726 
L 119.419394 48.984281 
L 120.265418 49.555934 
L 120.842944 49.648453 
L 121.319149 49.499 
L 122.109448 48.922616 
L 122.610983 48.839608 
L 123.406348 49.230954 
L 125.078132 50.865747 
L 125.878563 51.492409 
L 127.504753 52.252198 
L 128.381174 52.494426 
L 130.448108 52.537175 
L 135.655971 53.617992 
L 137.038993 54.11698 
L 138.295365 54.796704 
L 139.957018 56.128137 
L 140.179923 56.737014 
L 139.997546 57.3151 
L 139.379492 57.672007 
L 138.766504 57.695802 
L 138.254837 57.867135 
L 137.464539 58.531157 
L 137.530397 58.597806 
L 137.530397 59.452493 
L 137.393614 59.645371 
L 136.831287 60.171689 
L 136.456402 61.36522 
L 135.838348 61.708369 
L 135.32668 61.827528 
L 134.075375 61.88711 
L 133.589037 62.051562 
L 133.234416 62.418637 
L 133.00138 62.895433 
L 133.1027 63.284084 
L 133.766348 63.400929 
L 134.597174 63.429545 
L 134.749155 63.665637 
L 134.62757 63.970919 
L 134.657966 64.221371 
L 135.79782 64.73666 
L 138.153517 65.013431 
L 139.379492 65.419094 
L 141.086739 65.865394 
L 141.806113 66.292671 
L 142.201262 67.039971 
L 142.06448 67.926018 
L 141.370436 68.320175 
L 139.379492 68.697665 
L 138.001536 68.83864 
L 135.154436 68.743063 
L 133.842338 69.05609 
L 133.20402 69.438463 
L 132.758211 69.94519 
L 132.5809 70.578732 
L 133.452255 70.834582 
L 134.333741 71.286563 
L 135.184832 72.508964 
L 135.980196 72.76021 
L 140.149526 73.073703 
L 143.148607 72.906183 
L 144.11115 73.090455 
L 144.972372 73.633772 
L 145.397918 74.373528 
L 145.691747 75.209288 
L 146.152754 76.045305 
L 147.946123 77.26266 
L 150.342348 77.75407 
L 152.875356 77.744481 
L 155.074006 77.43764 
L 157.708334 76.761753 
L 158.518896 76.876786 
L 162.951659 78.439794 
L 164.517058 78.612452 
L 165.003395 78.938611 
L 166.472624 81.50967 
L 166.746104 82.406468 
L 167.009537 82.761901 
L 168.534407 83.621857 
L 169.056207 84.967579 
L 169.907297 85.532499 
L 171.001557 85.857079 
L 172.060354 85.938831 
L 173.230603 85.732051 
L 173.868921 85.277669 
L 179.451669 78.46857 
L 179.740432 77.739686 
L 180.464872 77.370523 
L 182.496344 77.058931 
L 183.453821 76.665896 
L 185.677801 75.130251 
L 187.780198 75.290723 
L 188.504638 75.578158 
L 191.914066 78.120887 
L 193.590917 79.039345 
L 195.242437 79.593447 
L 199.112873 79.910127 
L 199.827181 80.260438 
L 202.299396 82.130318 
L 202.010633 82.973262 
L 201.149411 83.569002 
L 200.055151 83.917378 
L 199.112873 84.035115 
L 198.054076 83.862116 
L 196.270838 83.04532 
L 195.242437 82.761901 
L 194.219102 82.735482 
L 193.246428 82.934831 
L 192.516921 83.403239 
L 192.233225 84.176887 
L 192.081244 84.982001 
L 191.675963 85.436334 
L 191.042711 85.631071 
L 188.864325 85.784947 
L 188.524902 85.991731 
L 188.312129 86.426991 
L 188.175347 87.658596 
L 188.322261 88.038773 
L 189.350662 88.68375 
L 189.568501 89.006295 
L 189.614095 89.35536 
L 189.553303 90.44858 
L 190.414525 91.800051 
L 191.721557 93.01718 
L 193.362946 93.976799 
L 195.242437 94.560448 
L 197.268843 94.758241 
L 198.20099 95.054958 
L 198.591073 95.689506 
L 198.388433 97.934508 
L 198.696069 98.645984 
L 196.595063 99.321036 
L 196.164452 99.632737 
L 195.419748 100.471362 
L 194.507865 101.16517 
L 194.497733 101.699544 
L 194.664912 101.849477 
L 194.062056 103.763037 
L 194.112716 104.220453 
L 194.431875 105.210566 
L 194.436941 105.622207 
L 193.859415 106.346356 
L 192.988061 106.465048 
L 191.979924 106.416602 
L 190.976853 106.663685 
L 190.409459 107.247566 
L 190.034574 107.923662 
L 189.482379 108.410843 
L 187.630302 108.517513 
L 186.083083 108.689616 
L 184.978691 109.019331 
L 184.380902 109.657051 
L 184.269449 110.239126 
L 184.132667 112.333163 
L 183.372765 113.406259 
L 183.27651 114.81501 
L 182.810437 116.262137 
L 182.182251 117.346445 
L 181.923884 118.371569 
L 182.567268 119.646496 
L 183.838838 120.708964 
L 183.889498 121.075382 
L 183.717254 122.254081 
L 184.249185 123.484439 
L 185.085078 124.556864 
L 185.698066 124.95547 
L 187.14188 125.512636 
L 187.648481 125.856499 
L 187.972706 126.478483 
L 188.0183 127.561788 
L 188.393185 128.245163 
L 188.180413 128.586911 
L 188.393185 128.925037 
L 188.474242 129.154547 
L 188.393185 129.398725 
L 188.205743 129.868827 
L 188.246271 130.102075 
L 188.844061 130.969288 
L 190.227083 134.121534 
L 190.900863 134.566718 
L 192.527053 135.11106 
L 192.866476 135.356965 
L 193.555454 136.006695 
L 194.021528 136.256347 
L 194.543327 136.33957 
L 196.058066 136.388525 
L 196.427885 136.676154 
L 197.092522 137.576438 
L 197.37523 137.79267 
L 197.841303 137.915121 
L 199.249655 137.92002 
L 200.29905 138.298463 
L 200.723865 138.513981 
L 204.229548 141.005038 
L 204.847601 141.644993 
L 205.024912 142.022657 
L 205.328873 143.263895 
L 205.632834 143.584102 
L 206.818281 144.424659 
L 208.115181 145.676737 
L 208.799093 146.164209 
L 209.670448 146.548596 
L 212.081871 146.92075 
L 212.897499 147.178706 
L 213.054545 148.337331 
L 212.537812 149.927956 
L 211.636061 151.494835 
L 210.638056 152.576392 
L 210.237841 152.786843 
L 209.407015 153.066237 
L 208.991602 153.329655 
L 208.748433 153.6645 
L 208.135445 154.906957 
L 206.078643 156.296565 
L 205.420061 156.966962 
L 204.781743 157.145678 
L 203.424051 157.374944 
L 202.851592 157.621485 
L 202.507103 158.024624 
L 202.203142 158.627586 
L 201.007562 161.552878 
L 200.430037 162.05408 
L 198.940628 162.50721 
L 197.45122 162.768994 
L 193.758095 162.05408 
L 192.420667 162.178777 
L 191.751953 162.509679 
L 191.483454 162.794927 
L 191.144031 162.940648 
L 189.598897 162.855438 
L 189.158154 163.128368 
L 188.393185 163.973251 
L 187.876452 164.289526 
L 186.630212 164.765236 
L 186.204667 165.046991 
L 185.667669 165.737897 
L 185.839914 165.915902 
L 187.005097 167.951349 
L 187.663679 168.672619 
L 188.448912 169.233176 
L 188.393185 169.671299 
L 187.739669 170.11939 
L 186.463034 171.875259 
L 186.812589 172.533043 
L 186.426107 174.215239 
L 185.814584 176.140392 
L 185.642339 177.096873 
L 185.855112 177.166357 
L 188.393185 178.885344 
L 189.897792 179.675038 
L 190.520912 180.22894 
L 190.895797 180.914625 
L 191.093371 181.6365 
L 190.926193 182.636971 
L 190.257479 184.401331 
L 189.735679 185.171304 
L 189.183484 185.447496 
L 188.570496 185.545787 
L 187.820726 185.808325 
L 187.06589 186.527622 
L 186.285723 188.296713 
L 185.576481 188.979225 
L 184.684863 189.188492 
L 182.643259 189.215897 
L 181.706046 189.579661 
L 180.738437 189.537303 
L 179.872148 189.295623 
L 179.086916 188.858404 
L 178.367542 188.239429 
L 178.225694 187.890766 
L 178.190232 187.071562 
L 177.972393 186.837544 
L 177.526584 186.897292 
L 176.23475 187.870843 
L 169.476686 189.947206 
L 167.779571 190.17523 
L 166.148314 190.036918 
L 164.547454 189.619528 
L 161.928324 188.631723 
L 161.315336 188.534579 
L 160.788471 188.716415 
L 159.126818 189.769034 
L 158.782329 189.831331 
L 156.821781 189.815134 
L 155.833908 189.979601 
L 150.408206 192.395298 
L 149.698964 193.025086 
L 148.956196 193.366736 
L 148.113302 193.33691 
L 146.395923 192.988917 
L 143.964236 193.025086 
L 143.426097 192.819116 
L 142.925703 191.482646 
L 141.015815 189.367875 
L 141.071541 188.205806 
L 142.11514 187.401458 
L 145.023033 186.752904 
L 146.041302 186.05222 
L 146.25914 185.30442 
L 146.015972 183.775793 
L 146.117292 183.038494 
L 146.552969 182.502728 
L 148.513517 181.073647 
L 150.955336 178.139296 
L 151.446739 177.034835 
L 151.401145 176.852452 
L 150.985732 176.224739 
L 151.07692 176.087056 
L 151.502466 175.874963 
L 151.563258 175.744738 
L 151.791228 174.629989 
L 152.860158 174.17999 
L 153.376891 173.935804 
L 153.655522 173.514412 
L 153.245175 172.453755 
L 151.983737 171.852963 
L 150.524725 171.611442 
L 149.470994 171.628781 
L 147.348333 172.324915 
L 146.628959 172.32987 
L 145.808265 171.937191 
L 144.232734 170.508119 
L 143.482964 170.030262 
L 142.368441 169.760417 
L 137.434142 169.267827 
L 135.655971 169.306192 
L 134.830211 169.126749 
L 134.338807 168.88297 
L 134.364137 168.745622 
L 134.597174 168.60333 
L 134.754221 168.364543 
L 134.921399 167.624794 
L 135.585047 166.018507 
L 135.792754 165.216304 
L 135.79782 163.960897 
L 135.331746 163.598953 
L 134.343873 163.564367 
L 132.773409 163.298808 
L 132.266807 163.077732 
L 130.792597 162.266438 
L 130.235335 162.173838 
L 128.548353 162.07013 
L 127.170397 160.907365 
L 126.891766 159.397187 
L 126.820841 157.916129 
L 126.060939 156.851111 
L 125.240245 156.754982 
L 123.882553 157.365082 
L 123.026396 157.006402 
L 122.605917 156.376659 
L 121.856147 153.87626 
L 121.096245 152.767151 
L 120.316078 152.33273 
L 117.043433 152.204755 
L 115.45549 151.691289 
L 107.863814 148.535191 
L 107.544655 148.148087 
L 107.74223 148.108765 
L 107.965134 146.79915 
L 107.934738 146.555965 
L 108.497066 146.188769 
L 109.145516 146.30666 
L 108.350152 145.318244 
L 107.858748 144.951203 
L 106.926601 144.402568 
L 105.700626 144.133811 
L 104.479716 144.239347 
L 103.294269 144.618573 
L 99.454229 146.671414 
L 98.370102 146.973568 
L 96.774308 147.022702 
L 96.369026 147.227843 
L 96.049868 147.845812 
L 96.176518 148.375427 
L 96.764176 149.273901 
L 97.448088 150.759258 
L 97.741916 151.066751 
L 98.177594 151.161466 
L 99.200929 151.129484 
L 99.560616 151.422253 
L 99.352909 152.583776 
L 98.319442 154.163144 
L 97.017476 155.599216 
L 95.994141 156.31628 
L 95.401418 156.324906 
L 94.327423 156.201686 
L 93.886679 156.530694 
L 93.152107 157.577106 
L 92.762024 157.839691 
L 91.814679 158.076408 
L 90.948391 158.076408 
L 90.112498 158.258889 
L 89.281672 159.039495 
L 88.866259 160.375507 
L 89.636293 160.974008 
L 90.725486 161.466473 
L 91.211823 162.484984 
L 90.107432 163.55325 
L 87.741603 164.264815 
L 83.688791 164.896224 
L 84.170063 163.044387 
L 84.094073 161.859021 
L 83.28351 161.094957 
L 80.269231 160.000426 
L 77.700762 158.674447 
L 76.297476 158.236695 
L 73.106691 157.913695 
L 72.492899 157.768187 
L 67.735911 154.397105 
L 64.301153 152.559163 
L 63.28795 151.22666 
L 62.674962 151.076592 
L 62.208889 151.257413 
L 61.063969 152.094011 
L 60.496576 152.347497 
L 58.834923 152.443483 
L 57.208732 152.367186 
L 56.063813 152.057097 
L 55.055676 151.472691 
L 54.153925 150.626431 
L 52.720243 148.766248 
L 52.325094 148.739209 
L 51.924879 149.023137 
L 51.301759 149.189082 
L 50.242962 149.104264 
L 48.069641 148.640885 
L 47.061504 148.262369 
L 46.21548 147.710659 
L 44.597629 146.236436 
L 42.861778 145.199165 
L 42.365309 144.662758 
L 41.52435 143.325235 
L 40.931627 142.699631 
L 38.038932 140.558869 
L 35.992262 138.385381 
L 35.176634 137.966552 
L 28.448966 135.828036 
L 27.167264 135.054786 
L 26.366834 133.807255 
L 26.331372 132.447813 
L 27.319245 131.351677 
L 28.403372 131.351677 
L 28.99103 130.550306 
L 29.452037 129.49274 
L 30.130883 128.712636 
L 30.667881 128.602779 
L 32.491646 128.728504 
L 33.069172 128.499029 
L 34.203959 127.868066 
L 34.730824 127.758241 
L 35.556585 128.101152 
L 36.392477 128.856676 
L 37.086521 129.760148 
L 37.491802 130.555192 
L 37.87682 130.975396 
L 38.297299 130.573513 
L 38.910287 129.539137 
L 39.50301 129.504949 
L 41.357172 130.026359 
L 41.742189 129.855395 
L 41.848575 129.658798 
L 41.711793 129.44268 
L 41.357172 129.209485 
L 41.119069 128.710194 
L 41.058277 128.054778 
L 41.149465 127.373888 
L 41.357172 126.810263 
L 42.613543 125.947958 
L 42.532487 124.699478 
L 41.357172 122.078706 
L 40.374365 120.527598 
L 35.364076 116.758047 
L 32.739881 113.817882 
L 31.245406 112.477594 
L 28.985964 111.33084 
L 29.543225 110.952332 
L 29.649612 110.619965 
L 29.416575 110.030535 
L 29.411509 109.695852 
L 29.680008 109.249669 
L 30.100487 108.992661 
L 31.11369 108.762344 
L 31.827998 108.733252 
L 32.476448 108.898107 
L 33.717621 109.504276 
L 34.984125 110.324022 
L 35.617377 110.598132 
L 36.326619 110.571448 
L 37.056125 110.421049 
L 39.660057 110.292489 
L 42.451431 110.486544 
L 43.652076 110.413772 
L 44.812194 110.122701 
L 46.828468 109.082369 
L 47.66436 108.439931 
L 48.079773 107.669198 
L 47.71502 106.787235 
L 47.102033 106.409335 
L 46.661289 106.515917 
L 46.185084 106.927749 
L 45.729142 106.675797 
L 44.928712 106.002423 
L 43.332918 105.358265 
L 42.162668 104.176886 
L 41.093739 103.390383 
L 40.987353 102.553302 
L 40.571939 102.183228 
L 40.278111 102.188065 
L 39.725915 102.575073 
L 39.437152 102.633129 
L 39.092663 102.497667 
L 38.570864 102.137274 
L 36.427939 101.046703 
L 35.505925 100.386763 
L 35.196898 99.787393 
L 35.095577 98.837847 
L 34.487656 97.833082 
L 33.641631 96.985593 
L 32.810805 96.507636 
L 32.248477 96.432812 
L 30.667881 96.695912 
L 29.543225 96.577635 
L 28.530022 96.225245 
L 26.427626 95.911512 
L 25.439753 95.602639 
L 24.553201 94.866792 
L 23.464007 93.263081 
L 23.084056 92.33263 
L 22.997934 91.443449 
L 23.418413 90.470256 
L 24.097259 89.88506 
L 24.674785 89.201285 
L 24.771039 87.925677 
L 23.985807 85.861888 
L 24.112457 85.128629 
L 25.845034 84.739241 
L 26.230052 84.518131 
L 26.827841 83.830881 
L 26.924096 83.501735 
L 26.873435 82.757098 
L 26.974756 82.444891 
L 27.217924 82.233571 
L 27.972761 81.871003 
L 30.277797 79.21204 
L 30.981973 77.821196 
L 31.351793 77.392096 
L 31.873592 77.013394 
L 32.861465 76.452627 
L 33.332604 75.973431 
L 33.839206 75.115881 
L 35.571783 69.529284 
L 35.774423 69.314185 
L 36.205035 69.142119 
L 36.017592 68.289118 
L 35.814952 68.026343 
L 34.913201 67.570131 
L 34.416731 67.605956 
L 33.930394 67.491317 
L 32.947587 66.860887 
L 32.51191 66.860887 
L 31.655753 67.044747 
L 29.482433 66.731953 
L 28.996096 66.796419 
L 28.129807 67.044747 
L 27.638404 67.044747 
L 27.395235 66.822683 
L 27.212858 66.435907 
L 26.903832 66.15899 
L 26.285778 66.256863 
L 21.888477 68.403792 
L 21.098179 68.594925 
L 20.084976 68.692886 
L 18.519577 69.020245 
L 17.465846 67.670443 
L 17.323998 66.741504 
L 18.646227 66.244927 
L 19.309875 66.385774 
L 20.297748 67.10922 
L 21.012056 67.168919 
L 21.599714 66.930131 
L 22.050589 66.538565 
L 22.820624 65.664908 
L 24.19858 64.975254 
L 24.001005 64.271464 
L 23.555196 63.942297 
L 22.552125 64.197517 
L 22.020193 63.870744 
L 21.918873 63.400929 
L 22.420408 61.848977 
L 22.364682 61.36522 
L 21.959401 60.00497 
L 21.625044 58.452608 
L 21.250159 57.879034 
L 20.008985 56.89877 
L 19.943127 56.489641 
L 20.687831 56.047281 
L 23.433611 56.230399 
L 24.492408 56.08533 
L 24.689983 55.343462 
L 24.056731 54.473457 
L 23.717308 53.796191 
L 24.796369 53.62512 
L 25.378961 53.834209 
L 26.827841 55.072446 
L 27.77012 55.310177 
L 28.818785 55.352971 
L 31.11369 55.058183 
L 31.442981 54.649336 
L 31.797602 54.544758 
L 32.025572 54.627945 
L 32.658824 55.141386 
L 37.053209 54.907806 
L 37.613387 54.537628 
L 37.734971 53.458811 
L 37.218238 52.532425 
L 36.275959 52.242699 
L 31.946672 51.93399 
L 30.483873 51.627867 
L 22.849041 49.067715 
L 22.460937 47.673031 
L 21.810341 47.209578 
L 20.339168 46.926565 
L 19.226349 46.938416 
L 16.640798 45.743017 
L 16.54453 44.830009 
L 17.614313 44.433887 
L 18.852836 44.313982 
L 19.279233 43.681396 
L 18.549573 42.886512 
L 17.855969 42.422768 
L 17.604105 41.881204 
L 17.567166 41.043815 
L 18.215616 39.906697 
L 21.52879 40.228161 
L 22.95234 39.313513 
L 22.40521 38.654314 
L 21.777025 38.420445 
L 21.067782 38.318872 
L 20.242022 38.066138 
L 19.53278 37.584357 
L 19.076839 36.984618 
L 18.631029 36.765063 
L 17.774873 37.048364 
L 16.918716 37.343501 
L 16.427313 37.730772 
L 15.794061 38.05669 
L 14.887244 38.066138 
L 14.411039 37.763834 
L 13.433298 36.727292 
L 13.017885 36.505399 
L 13.185063 36.11359 
L 13.245856 35.25701 
L 13.448496 34.398354 
L 14.578217 33.75219 
L 16.199342 32.139842 
L 15.915645 31.487174 
L 15.201337 31.077279 
L 13.691665 30.41546 
L 13.281318 29.829149 
L 13.078677 28.447491 
L 12.850706 27.758116 
L 10.327831 25.726359 
L 10.145455 25.446648 
L 10.510208 24.793324 
L 10.652056 23.552936 
L 12.830442 23.369748 
L 13.185063 23.071508 
L 13.038149 22.719301 
L 12.521416 22.348362 
L 11.513279 21.831955 
L 12.344105 21.256987 
L 13.185063 20.902684 
L 12.906433 20.198916 
L 15.915645 20.346691 
L 16.852858 20.6235 
L 17.131489 20.534355 
L 17.192281 20.388914 
L 17.080829 20.196571 
L 16.650218 19.640732 
L 16.852858 19.3101 
L 18.018042 18.775553 
L 19.259215 18.890424 
L 20.125504 18.735701 
L 20.18123 17.390472 
L 20.951264 16.533085 
L 22.080985 16.223934 
L 23.185377 16.490926 
L 23.909817 17.390472 
L 24.99901 17.800528 
L 29.29499 18.088778 
L 30.657748 17.920042 
L 31.21501 17.45842 
L 31.442981 16.905521 
L 31.807734 16.345716 
L 32.790541 15.870331 
L 33.682159 15.741547 
L 35.495793 15.734523 
L 36.316487 15.551896 
L 36.818022 15.196045 
L 37.582991 14.348759 
L 38.738042 14.110072 
L 39.158521 13.997757 
L 39.984282 13.564921 
L 40.92656 12.608266 
L 42.218394 12.1593 
L 42.091744 11.785224 
L 41.726991 11.371466 
L 41.640869 10.999843 
L 42.350111 10.485738 
L 43.489964 9.997435 
L 44.700742 9.647037 
L 45.607558 9.544262 
L 46.651157 9.565284 
L 49.498258 9.20794 
L 50.551989 9.242971 
L 51.570258 9.455506 
L 55.633201 11.121374 
L 56.489358 11.233561 
L 61.31727 9.953048 
L 63.28795 9.675067 
L 66.423813 9.861942 
L 68.475549 10.604907 
L 69.868703 10.499757 
L 71.104811 10.100228 
L 71.586082 10.062848 
L 72.649945 10.322181 
L 73.151481 10.768482 
L 73.526366 10.89935 
L 73.886053 10.871307 
L 75.117094 10.490411 
L 75.998581 10.721746 
L 78.663305 12.182682 
L 78.663305 12.182682 
" clip-path="url(#pc58cc25f99)" style="fill: none; stroke: #000000; stroke-width: 0.5; stroke-linecap: square"/>
   </g>
  </g>
 </g>
 <defs>
  <clipPath id="pc58cc25f99">
   <rect x="0" y="-0" width="223.2" height="202.574676"/>
  </clipPath>
 </defs>
</svg>
