<?xml version="1.0" encoding="utf-8" standalone="no"?>
<!DOCTYPE svg PUBLIC "-//W3C//DTD SVG 1.1//EN"
  "http://www.w3.org/Graphics/SVG/1.1/DTD/svg11.dtd">
<svg xmlns:xlink="http://www.w3.org/1999/xlink" width="223.2pt" height="100.993533pt" viewBox="0 0 223.2 100.993533" xmlns="http://www.w3.org/2000/svg" version="1.1">
 <metadata>
  <rdf:RDF xmlns:dc="http://purl.org/dc/elements/1.1/" xmlns:cc="http://creativecommons.org/ns#" xmlns:rdf="http://www.w3.org/1999/02/22-rdf-syntax-ns#">
   <cc:Work>
    <dc:type rdf:resource="http://purl.org/dc/dcmitype/StillImage"/>
    <dc:date>2026-04-26T19:21:58.758938</dc:date>
    <dc:format>image/svg+xml</dc:format>
    <dc:creator>
     <cc:Agent>
      <dc:title>Matplotlib v3.10.9, https://matplotlib.org/</dc:title>
     </cc:Agent>
    </dc:creator>
   </cc:Work>
  </rdf:RDF>
 </metadata>
 <defs>
  <style type="text/css">*{stroke-linejoin: round; stroke-linecap: butt}</style>
 </defs>
 <g id="figure_1">
  <g id="patch_1">
   <path d="M 0 100.993533 
L 223.2 100.993533 
L 223.2 0 
L 0 0 
z
" style="fill: #ffffff"/>
  </g>
  <g id="axes_1">
   <g id="patch_2">
    <path d="M 66.678715 10.851805 
L 67.113364 10.770687 
L 67.499226 10.613417 
L 67.678852 10.354322 
L 67.497009 9.966793 
L 67.676634 9.740475 
L 68.002621 9.724664 
L 68.384048 9.830403 
L 68.714471 9.96877 
L 69.051546 10.093317 
L 69.399709 10.156584 
L 69.741219 10.12495 
L 70.659305 9.690079 
L 70.947593 9.36405 
L 71.428812 8.471474 
L 71.850156 8.08369 
L 72.289241 7.957914 
L 72.774895 8.000331 
L 74.269557 8.309138 
L 74.639896 8.471474 
L 75.522501 9.102316 
L 76.547032 9.624865 
L 77.030468 9.963828 
L 77.1857 10.000894 
L 77.345367 10.013249 
L 77.505034 10.002376 
L 77.67579 9.965311 
L 77.706836 9.957898 
L 77.737882 9.955427 
L 77.768929 9.957898 
L 77.802193 9.965311 
L 79.192628 10.381019 
L 79.638365 10.365199 
L 79.721635 10.325577 
L 79.786944 10.294502 
L 79.91113 10.205026 
L 80.019792 10.096282 
L 80.112931 9.96877 
L 80.343562 9.852145 
L 80.583062 9.810144 
L 81.390269 9.722688 
L 81.787219 9.802732 
L 83.168783 9.897607 
L 84.051388 10.076512 
L 84.550348 10.11803 
L 86.042792 10.071569 
L 86.39539 10.177345 
L 87.508625 10.795912 
L 87.654987 11.091238 
L 88.11403 11.08728 
L 90.273971 10.554077 
L 90.950339 10.574845 
L 91.302938 10.727163 
L 92.369603 10.900775 
L 92.795382 11.020491 
L 93.575977 11.468314 
L 93.952969 11.514839 
L 93.984015 11.499496 
L 95.252482 11.793049 
L 95.718178 11.803941 
L 97.152965 11.367845 
L 98.210759 11.34706 
L 99.049012 10.910174 
L 99.541319 10.749914 
L 99.95601 10.741012 
L 101.180125 10.919572 
L 102.393152 10.9077 
L 102.812278 10.970525 
L 102.987714 11.03273 
L 103.816851 11.32677 
L 104.357945 11.588097 
L 104.692802 11.838599 
L 104.836946 12.143643 
L 104.856905 12.394779 
L 104.954479 12.631112 
L 105.333689 12.894761 
L 106.056626 13.167403 
L 107.790789 13.578984 
L 108.10347 13.74664 
L 108.3718 13.97039 
L 109.094737 14.757132 
L 109.595914 15.225993 
L 109.999518 15.392929 
L 110.69169 15.318373 
L 110.981832 15.287123 
L 112.591891 15.113725 
L 113.933539 14.761105 
L 113.935756 14.758125 
L 113.940192 14.757132 
L 114.833884 14.234885 
L 116.91621 12.159492 
L 117.834296 11.774235 
L 128.364567 11.084312 
L 129.777177 10.740023 
L 130.905935 10.654958 
L 131.555692 10.483861 
L 131.917161 10.441833 
L 132.939474 10.504134 
L 134.303298 10.257426 
L 135.874691 10.248415 
L 136.372318 10.245561 
L 137.387978 9.963828 
L 137.594215 9.770121 
L 138.068781 9.118117 
L 138.332676 8.9147 
L 138.893728 8.630381 
L 139.153187 8.450255 
L 139.48361 8.044229 
L 139.831773 7.450535 
L 140.057968 6.847344 
L 140.029139 6.415381 
L 140.186589 5.785753 
L 140.363997 5.830046 
L 140.760947 5.853177 
L 141.126851 5.784769 
L 141.8387 5.573178 
L 142.202386 5.516106 
L 143.215829 5.487079 
L 143.572863 5.436407 
L 146.278334 5.075381 
L 146.932526 4.89246 
L 147.959274 4.602412 
L 148.448255 4.590615 
L 148.940562 4.847718 
L 149.174519 4.877218 
L 149.405149 4.66828 
L 149.639106 4.956872 
L 150.061558 5.010961 
L 150.945272 4.905735 
L 151.310067 5.014895 
L 151.800156 5.380818 
L 152.030787 5.294735 
L 152.935567 5.844318 
L 153.070841 5.987545 
L 153.157327 6.310005 
L 153.365781 6.24452 
L 153.609717 6.033323 
L 153.803757 5.923558 
L 154.070978 6.062366 
L 154.17964 6.28194 
L 154.339308 6.484325 
L 155.079986 6.652273 
L 155.079986 6.8168 
L 154.83605 6.960168 
L 154.414706 6.975935 
L 154.414706 7.094687 
L 155.00237 7.303646 
L 155.403755 7.385468 
L 155.669867 7.253374 
L 155.853928 7.304139 
L 156.049077 7.401241 
L 156.162174 7.49786 
L 156.160267 7.51355 
L 156.148869 7.607307 
L 155.922674 7.781855 
L 155.867234 7.888375 
L 156.026901 8.356011 
L 156.401675 8.72317 
L 156.916158 8.998135 
L 157.477211 9.192187 
L 157.477211 9.333922 
L 157.040344 9.453944 
L 157.06252 9.533967 
L 157.093566 9.606092 
L 157.134592 9.671305 
L 157.186705 9.725652 
L 157.737779 9.580403 
L 158.019414 9.823979 
L 158.215671 10.08442 
L 158.503959 9.986561 
L 158.75233 10.156584 
L 158.774506 10.334052 
L 158.625927 10.502156 
L 158.370903 10.640122 
L 158.821076 10.85774 
L 158.956349 10.901764 
L 158.956349 10.940691 
L 158.956349 11.020491 
L 158.579358 11.330729 
L 158.812205 11.50494 
L 159.29786 11.669281 
L 159.688157 11.948028 
L 159.670416 12.034193 
L 159.705898 12.626157 
L 159.688157 12.745087 
L 159.912135 12.846189 
L 160.171594 12.893274 
L 160.405551 12.962667 
L 160.568544 13.125759 
L 159.834519 13.400447 
L 160.089543 13.528891 
L 160.385592 13.807162 
L 160.628419 14.09593 
L 160.728211 14.258708 
L 160.810262 14.345567 
L 161.19169 14.515833 
L 161.300352 14.580372 
L 161.313273 14.612111 
L 161.377968 14.771036 
L 161.344704 14.977132 
L 161.462237 15.116706 
L 161.462237 15.236923 
L 160.967712 15.298527 
L 161.162861 15.720917 
L 161.655168 16.230006 
L 163.052255 17.351496 
L 163.651007 17.721948 
L 164.32294 17.877339 
L 164.344862 17.933144 
L 164.386453 18.039028 
L 164.482607 18.283858 
L 164.550244 18.403951 
L 164.577964 18.473722 
L 164.573529 18.648667 
L 164.617881 18.733409 
L 164.702149 18.767307 
L 164.934997 18.786251 
L 164.990437 18.799213 
L 165.145669 19.31782 
L 165.28316 19.599175 
L 165.509355 19.721918 
L 165.700069 19.738883 
L 165.806514 19.779801 
L 165.890783 19.827708 
L 166.014968 19.865635 
L 166.56715 19.876614 
L 166.600414 19.865635 
L 166.893137 19.937501 
L 167.214689 20.051799 
L 167.487454 20.205047 
L 167.640468 20.39327 
L 167.464169 20.478655 
L 167.347745 20.627472 
L 167.265694 20.826262 
L 167.201384 21.053069 
L 167.582811 21.256938 
L 167.412056 21.852786 
L 167.713649 21.977297 
L 167.763327 22.003893 
L 168.004155 22.132833 
L 168.520855 22.893844 
L 168.798055 23.179681 
L 168.964375 23.231751 
L 169.544277 23.311863 
L 169.771581 23.400995 
L 169.933466 23.485628 
L 170.104221 23.551236 
L 170.64088 23.632375 
L 170.864858 23.781647 
L 171.301725 24.25064 
L 171.275114 24.493237 
L 171.503526 24.737896 
L 172.04573 25.165686 
L 172.30408 25.696028 
L 172.341779 25.708073 
L 172.399437 25.860654 
L 172.461529 25.977615 
L 172.422721 26.059947 
L 172.182112 26.106639 
L 172.437136 26.324558 
L 173.36631 26.637458 
L 173.36631 26.769578 
L 173.235472 26.912265 
L 173.330828 26.970049 
L 173.534847 27.01075 
L 173.734431 27.101707 
L 174.390841 27.553592 
L 174.998463 27.799974 
L 175.266793 27.949843 
L 175.273445 28.230527 
L 175.796799 28.293918 
L 176.300194 28.491661 
L 176.76589 28.62653 
L 177.189451 28.496693 
L 177.382382 28.818295 
L 177.406395 28.837319 
L 178.069838 29.363078 
L 178.362561 29.694012 
L 178.782796 30.404083 
L 178.840719 30.695536 
L 178.850433 30.744421 
L 178.666372 31.03846 
L 179.024515 31.191816 
L 179.041147 31.413819 
L 179.014535 31.647476 
L 179.254036 31.83878 
L 179.254036 31.984174 
L 179.21881 32.21723 
L 179.19527 32.372999 
L 179.544542 32.921635 
L 180.410514 33.85284 
L 180.409405 34.221097 
L 181.611344 35.737954 
L 181.828669 36.268549 
L 181.846598 36.345462 
L 181.895197 36.553973 
L 181.890762 36.822229 
L 181.748835 37.033737 
L 181.533728 37.278773 
L 181.425066 37.560405 
L 181.611344 37.88323 
L 181.410652 37.969536 
L 181.331927 38.117795 
L 181.287575 38.854316 
L 181.331927 39.010828 
L 181.611344 39.358995 
L 181.696722 39.407799 
L 181.787643 39.389497 
L 181.861933 39.409324 
L 181.890762 39.573034 
L 181.892979 40.183352 
L 181.867477 40.347179 
L 181.742183 40.496782 
L 181.438372 40.593475 
L 181.593603 40.861207 
L 181.493812 40.972696 
L 181.454179 40.98376 
L 181.298663 41.027173 
L 181.156736 41.118821 
L 181.032551 41.720837 
L 180.930541 41.804391 
L 180.672191 41.860437 
L 180.620077 42.004133 
L 180.706564 42.404236 
L 180.726522 42.646408 
L 180.693258 42.714736 
L 180.402753 43.123771 
L 180.144402 43.285999 
L 179.941492 43.354367 
L 179.697556 43.402329 
L 179.489102 43.473765 
L 179.400398 43.610528 
L 179.473578 43.947404 
L 179.422574 44.054614 
L 179.180855 44.095459 
L 178.925831 44.168983 
L 178.969075 44.337494 
L 179.362699 44.751221 
L 179.497972 44.866684 
L 179.624375 45.002598 
L 179.693121 45.175326 
L 179.446967 45.635383 
L 179.320564 46.123252 
L 178.958996 46.79324 
L 178.901414 46.899978 
L 178.750641 47.179508 
L 178.579886 47.251189 
L 178.522228 47.350527 
L 178.528881 47.457044 
L 178.65972 47.515428 
L 178.666372 47.62196 
L 178.40026 48.317746 
L 178.362561 48.513547 
L 178.435742 48.794493 
L 178.959095 49.789656 
L 178.999012 50.012407 
L 179.052235 50.131499 
L 179.180855 50.269088 
L 179.269559 50.426205 
L 179.22299 50.577182 
L 179.136503 50.729207 
L 179.107675 50.886389 
L 179.16755 51.033318 
L 179.358263 51.286122 
L 179.400398 51.361152 
L 179.338305 51.459829 
L 179.054452 51.592441 
L 178.959095 51.700392 
L 179.018971 52.276306 
L 179.353828 52.880305 
L 179.73082 53.355912 
L 179.912663 53.542298 
L 180.101159 55.542992 
L 180.059025 55.863886 
L 180.192081 56.122937 
L 179.886052 56.222032 
L 179.180855 56.217903 
L 178.89922 56.283971 
L 178.544404 56.452255 
L 178.191806 56.674263 
L 177.921259 56.899413 
L 179.119871 57.316781 
L 179.612178 57.566862 
L 179.972538 57.992747 
L 180.05459 58.116821 
L 180.107812 58.159216 
L 180.136641 58.205749 
L 180.147729 58.880172 
L 180.298525 59.085061 
L 180.868448 59.537394 
L 181.156736 59.769323 
L 181.204205 59.765984 
L 181.686743 59.732045 
L 182.314323 59.964014 
L 182.73345 60.340027 
L 182.621461 60.738963 
L 183.256803 61.822488 
L 183.673712 62.322602 
L 184.168236 62.533295 
L 184.531923 62.597653 
L 185.281471 62.882114 
L 187.190824 63.207151 
L 188.969339 63.826322 
L 191.823389 64.251416 
L 192.623943 64.180729 
L 193.295875 64.168255 
L 193.56864 64.090298 
L 193.810358 63.905301 
L 193.201627 63.720333 
L 193.05083 63.632016 
L 192.94993 63.483452 
L 192.887837 63.301667 
L 192.927754 63.147952 
L 193.542029 62.942338 
L 193.508765 62.640214 
L 193.533158 62.352699 
L 194.103081 62.259297 
L 194.435721 62.335055 
L 195.0001 62.600767 
L 195.487972 62.6589 
L 195.761846 62.786594 
L 196.114444 63.036833 
L 196.540223 63.202996 
L 197.03253 63.082525 
L 197.130104 62.943376 
L 197.195524 62.556132 
L 197.325253 62.383834 
L 197.479376 62.307035 
L 197.667872 62.270713 
L 198.143547 62.259297 
L 198.434053 62.162791 
L 199.5362 61.562142 
L 200.411043 61.396214 
L 200.780273 61.286301 
L 201.088519 61.074798 
L 201.265927 61.018819 
L 201.784845 60.99705 
L 201.893508 60.939001 
L 201.973341 60.795965 
L 202.155185 60.65191 
L 202.478954 60.466428 
L 202.940215 60.299623 
L 203.292813 60.290299 
L 203.640976 60.333811 
L 204.091149 60.32863 
L 204.277427 60.282011 
L 204.465923 60.196029 
L 204.632243 60.091409 
L 204.756429 59.986799 
L 204.956013 59.896697 
L 205.18886 59.930873 
L 205.423926 60.011656 
L 205.634598 60.055157 
L 207.284492 60.165989 
L 210.268272 60.876809 
L 211.269518 61.470879 
L 211.522324 61.562142 
L 211.99689 61.856721 
L 212.358359 62.544713 
L 212.469239 63.326596 
L 212.189822 63.905301 
L 212.312898 64.032094 
L 212.345053 64.177611 
L 212.296266 64.327304 
L 212.184967 64.474094 
L 211.994638 64.447078 
L 211.430634 64.461814 
L 211.430634 64.587079 
L 211.751924 64.881874 
L 211.985907 65.240643 
L 212.356089 65.514298 
L 213.054545 65.562645 
L 212.560387 65.909328 
L 212.300212 66.46686 
L 212.125598 68.241255 
L 212.006861 68.58134 
L 211.723986 69.154943 
L 211.668109 69.441028 
L 211.640171 69.768302 
L 211.580802 70.06523 
L 211.430634 70.258562 
L 211.570325 70.692233 
L 211.029022 71.251222 
L 211.30142 71.626774 
L 211.158236 71.873088 
L 210.987114 71.952184 
L 210.784562 71.97443 
L 210.564548 72.056004 
L 210.26072 72.367521 
L 210.098328 72.461486 
L 209.674016 72.308178 
L 209.440033 72.340321 
L 209.213035 72.416151 
L 209.008736 72.45654 
L 204.823236 72.896792 
L 202.165609 73.016364 
L 201.393814 73.187909 
L 199.242568 74.186333 
L 198.610465 74.602452 
L 198.060431 75.125285 
L 197.913755 74.974111 
L 197.934709 74.674297 
L 197.643103 74.302732 
L 197.506904 73.988231 
L 197.987093 73.852881 
L 198.505697 73.790163 
L 199.294953 73.514574 
L 200.150562 73.371028 
L 200.632497 73.144196 
L 201.02014 72.790424 
L 201.149355 72.332079 
L 201.023632 72.078253 
L 200.747742 71.808827 
L 200.112147 71.351687 
L 200.229138 71.67455 
L 200.262315 71.832719 
L 200.271046 72.056004 
L 199.930548 72.006565 
L 199.621481 72.154065 
L 199.338606 72.216697 
L 199.087162 71.916755 
L 198.991124 71.544406 
L 198.940486 70.327675 
L 199.162246 69.944312 
L 200.164531 69.69511 
L 200.417721 69.431162 
L 200.227392 69.223992 
L 199.294953 68.806474 
L 199.013824 68.728412 
L 198.353783 68.728412 
L 197.68501 68.578053 
L 197.461504 68.604344 
L 197.384674 68.70787 
L 197.316575 68.895226 
L 197.190853 69.074392 
L 196.955123 69.154943 
L 196.478427 69.177137 
L 196.260159 69.236322 
L 195.470903 69.739518 
L 195.242159 69.970633 
L 195.116437 70.39597 
L 195.149613 70.511997 
L 195.348674 70.613222 
L 195.397566 70.749026 
L 195.355658 70.865088 
L 195.257874 70.919419 
L 195.158344 70.954818 
L 195.116437 71.018209 
L 195.179298 71.198522 
L 195.331212 71.353334 
L 195.502334 71.460396 
L 195.986015 71.601239 
L 197.023223 72.332079 
L 196.750825 72.529904 
L 196.630341 72.584312 
L 196.434773 72.607395 
L 196.637326 72.719517 
L 196.729871 72.745901 
L 196.729871 72.896792 
L 196.462712 73.014715 
L 196.44525 73.202756 
L 196.605895 73.408975 
L 196.88877 73.577277 
L 196.679233 73.683715 
L 196.410327 73.727449 
L 195.456934 73.752204 
L 195.229936 73.81327 
L 193.934299 74.354745 
L 193.717778 74.490152 
L 193.513479 74.773401 
L 193.47681 75.036065 
L 193.618248 75.145939 
L 193.932553 74.974111 
L 193.8435 75.220295 
L 193.440141 75.312834 
L 193.34585 75.60537 
L 193.410457 75.931045 
L 193.592056 76.022812 
L 194.73054 75.883924 
L 195.243905 75.675622 
L 195.713617 75.363238 
L 196.155391 74.974111 
L 195.849816 74.559513 
L 197.346259 74.879946 
L 197.688503 75.050109 
L 197.777556 75.402075 
L 197.601196 75.807047 
L 197.231014 76.131123 
L 196.729871 76.235309 
L 197.108784 75.893017 
L 197.458012 75.504544 
L 197.515635 75.167419 
L 197.023223 74.974111 
L 197.023223 75.125285 
L 197.185614 75.266564 
L 197.138468 75.331012 
L 196.729871 75.402901 
L 196.417312 75.264085 
L 196.289844 75.251692 
L 196.195552 75.307876 
L 196.10126 75.403727 
L 195.996492 75.541733 
L 195.586149 75.750838 
L 194.915631 76.233655 
L 194.531479 76.374238 
L 193.492525 76.736521 
L 193.199174 76.91605 
L 193.571102 76.447017 
L 193.639201 76.235309 
L 193.319657 76.203887 
L 193.043767 76.246059 
L 192.848199 76.38747 
L 192.759146 76.652144 
L 193.040275 76.652144 
L 192.907568 76.85648 
L 192.989637 77.015339 
L 193.204412 77.132015 
L 193.492525 77.206495 
L 192.638662 77.383611 
L 192.308642 77.585587 
L 192.308642 77.901865 
L 192.404679 77.804986 
L 192.549609 77.704802 
L 192.614216 77.623669 
L 192.918045 77.741232 
L 193.199174 77.901865 
L 193.015829 78.175156 
L 192.753908 78.692095 
L 192.586278 79.249046 
L 192.685808 79.645368 
L 192.862168 79.674392 
L 193.031544 79.525131 
L 193.152028 79.298787 
L 193.288227 78.816392 
L 193.497764 78.653979 
L 193.932553 78.456794 
L 194.571641 77.867087 
L 194.947061 77.588899 
L 195.331212 77.472178 
L 195.736317 77.398509 
L 196.033161 77.181668 
L 196.218252 76.903639 
L 196.434773 76.51401 
L 196.295082 76.911085 
L 196.106499 77.252841 
L 194.697363 79.094864 
L 193.682855 79.62049 
L 191.74813 81.392225 
L 191.528117 81.855711 
L 191.460017 82.10497 
L 191.182381 81.957901 
L 190.843629 82.059269 
L 190.560754 82.229619 
L 190.338994 82.463993 
L 190.215018 82.712546 
L 190.15565 82.997737 
L 190.127711 83.776326 
L 190.218511 84.028475 
L 190.560754 84.462994 
L 190.861091 85.107566 
L 190.923952 85.414148 
L 190.854106 85.592467 
L 191.000782 85.734141 
L 190.714415 85.615801 
L 190.445509 85.665802 
L 190.239464 85.824155 
L 190.124219 86.025041 
L 190.265656 86.406066 
L 190.623615 88.066614 
L 190.990305 89.12586 
L 191.000782 89.247882 
L 190.944905 89.416727 
L 190.749338 89.609005 
L 190.641077 89.987795 
L 190.338994 90.587573 
L 190.270895 90.86623 
L 189.757529 91.575288 
L 189.663238 91.7746 
L 189.32274 92.906596 
L 189.197018 93.097737 
L 189.128919 93.291423 
L 189.230195 93.487656 
L 189.135903 93.671337 
L 189.087011 93.878535 
L 189.073042 94.098353 
L 189.097488 94.31821 
L 188.997958 94.51964 
L 185.912378 94.644769 
L 181.335253 94.092656 
L 176.905598 92.690021 
L 176.180443 92.292522 
L 175.211353 89.925592 
L 174.701305 89.333105 
L 174.701305 89.330981 
L 173.508236 89.427586 
L 172.024662 90.007373 
L 170.616487 90.247437 
L 169.775761 89.455894 
L 169.638525 89.326735 
L 169.212746 88.703765 
L 168.722657 88.582816 
L 167.458625 88.859744 
L 163.367154 88.88415 
L 163.132089 88.768489 
L 162.717398 88.264586 
L 162.462374 88.104441 
L 161.253782 87.706819 
L 160.802501 87.35172 
L 160.903402 86.887595 
L 160.552594 86.700637 
L 160.519757 86.683139 
L 159.996403 86.717036 
L 159.541796 86.542264 
L 157.282062 86.229855 
L 155.720872 85.562943 
L 155.164255 85.807435 
L 152.645062 85.983161 
L 150.613741 86.814495 
L 149.846451 86.975532 
L 148.880687 86.975532 
L 148.634533 87.016854 
L 148.207645 87.20229 
L 148.003626 87.24256 
L 147.573412 87.277533 
L 146.852692 87.452409 
L 142.596185 87.884582 
L 140.805522 88.066438 
L 140.337385 88.113985 
L 138.640922 88.629497 
L 136.908977 88.939332 
L 136.168299 89.217401 
L 135.376616 89.83001 
L 134.997406 90.226191 
L 134.839957 90.543864 
L 132.258671 91.860578 
L 132.054652 92.101533 
L 131.881679 92.394678 
L 130.870454 93.290501 
L 130.22735 93.547177 
L 129.517718 94.058024 
L 129.477801 94.135282 
L 128.978842 94.710869 
L 128.087367 94.980633 
L 127.944713 94.983803 
L 126.623751 95.013158 
L 126.240106 95.203525 
L 125.905249 95.427524 
L 125.446206 95.624356 
L 124.960552 95.770533 
L 124.556948 95.838292 
L 124.159998 95.983427 
L 123.672126 96.018112 
L 122.705253 95.979692 
L 122.569884 95.996728 
L 122.247319 96.037323 
L 121.360279 96.313244 
L 120.867972 96.402918 
L 119.934363 96.315379 
L 119.149332 95.996767 
L 118.413089 95.599284 
L 118.341966 95.569781 
L 117.632495 95.275521 
L 116.752108 95.126202 
L 113.96902 94.980633 
L 111.43874 94.347898 
L 106.910402 94.570678 
L 105.901394 94.468344 
L 104.960749 94.223078 
L 101.492807 93.319255 
L 100.767652 93.259086 
L 100.013668 93.428951 
L 98.818382 94.053762 
L 98.448043 94.13315 
L 97.986119 94.148956 
L 94.181382 94.279154 
L 93.971602 94.242397 
L 86.468571 92.928475 
L 85.244456 92.429265 
L 84.76989 92.364882 
L 82.953676 92.646381 
L 82.626384 92.60823 
L 82.022284 92.537818 
L 79.704893 91.648917 
L 76.281612 91.525688 
L 74.336085 91.716985 
L 73.531096 92.016423 
L 72.77933 92.128132 
L 72.134009 92.321253 
L 70.432558 92.42679 
L 67.57906 92.603806 
L 66.918215 92.494715 
L 66.374903 92.167498 
L 66.108791 91.777611 
L 66.097703 91.311822 
L 66.616622 89.768417 
L 66.856122 89.306566 
L 67.284119 89.112322 
L 67.727639 89.067745 
L 68.581415 88.8746 
L 69.049328 88.831093 
L 69.798877 88.544624 
L 70.164781 87.914627 
L 69.969632 87.283891 
L 69.483222 87.132665 
L 69.049328 86.997782 
L 68.073584 86.906665 
L 67.297425 86.672546 
L 62.688645 84.510993 
L 62.669295 84.501926 
L 62.55398 84.199551 
L 62.642684 83.216823 
L 62.471929 82.939055 
L 62.06389 82.809171 
L 61.176851 82.722589 
L 60.354121 82.467102 
L 59.635619 82.047038 
L 59.063478 81.514251 
L 58.686486 80.922658 
L 58.662093 80.766635 
L 58.713098 80.444111 
L 58.693139 80.291312 
L 58.597782 80.150121 
L 58.14761 79.867788 
L 58.083299 79.701369 
L 58.087735 79.435989 
L 58.143175 79.162246 
L 58.236314 78.971715 
L 58.384893 78.881197 
L 58.584477 78.836993 
L 59.338461 78.81384 
L 59.615661 78.728595 
L 59.793069 78.529716 
L 59.859597 78.177285 
L 59.983782 77.838628 
L 60.303116 77.633587 
L 60.728895 77.546323 
L 61.176851 77.557888 
L 61.627023 77.681952 
L 62.407618 78.039496 
L 62.871096 78.115225 
L 63.28357 78.063687 
L 63.762571 77.911189 
L 64.139563 77.650409 
L 64.265966 77.281419 
L 63.183778 76.462896 
L 62.871096 76.309551 
L 61.176851 76.170928 
L 60.453913 75.928375 
L 59.719888 75.526329 
L 58.227443 74.413273 
L 57.910327 74.287451 
L 57.515594 74.230836 
L 56.990023 74.217206 
L 56.763828 74.335682 
L 56.016497 74.88942 
L 55.597371 75.061468 
L 54.708113 75.197864 
L 54.390997 75.359462 
L 54.264593 75.678523 
L 51.820799 78.659141 
L 51.541381 78.858043 
L 51.029116 78.948559 
L 50.565638 78.912773 
L 50.086636 78.77069 
L 49.71408 78.523402 
L 49.485667 77.934325 
L 49.2883 77.801823 
L 49.044365 77.70193 
L 48.818169 77.557888 
L 48.702854 77.4023 
L 48.624568 77.145568 
L 48.583141 77.009736 
L 48.538752 76.864207 
L 47.94 75.88428 
L 47.727111 75.741506 
L 47.041872 75.665927 
L 45.101473 74.981735 
L 44.746657 74.931381 
L 44.378536 74.997472 
L 43.593505 75.227244 
L 42.631067 75.36156 
L 41.522268 75.365758 
L 40.473343 75.150648 
L 39.688313 74.617763 
L 39.486511 74.251804 
L 39.357891 73.885958 
L 39.171612 73.562137 
L 38.79462 73.324305 
L 38.373277 73.243642 
L 37.060458 73.316972 
L 35.235373 73.179744 
L 34.88721 73.069763 
L 34.514654 72.534669 
L 34.128791 72.336819 
L 34.111893 72.331857 
L 33.747364 72.224823 
L 33.82498 71.947496 
L 34.020129 71.725681 
L 34.299547 71.558301 
L 34.873905 71.421276 
L 36.120196 71.463114 
L 36.723383 71.401404 
L 37.594899 71.236161 
L 37.89871 71.063622 
L 37.958585 70.675764 
L 37.785613 70.348641 
L 37.470714 70.161604 
L 36.723383 69.966241 
L 36.186724 69.788665 
L 35.15554 69.667512 
L 34.65658 69.441949 
L 34.643274 69.332316 
L 34.696497 69.198682 
L 34.629969 69.095335 
L 34.266283 69.082808 
L 33.975777 69.031661 
L 33.931425 68.861532 
L 34.033435 68.65282 
L 34.188667 68.492136 
L 34.401556 68.420149 
L 34.949303 68.394067 
L 35.173281 68.341906 
L 35.443828 68.191696 
L 35.512573 68.094695 
L 35.523661 67.95286 
L 35.60793 67.669239 
L 35.672241 67.584792 
L 35.854084 67.438849 
L 35.913959 67.354418 
L 35.927264 67.25436 
L 35.927264 67.105332 
L 35.913959 66.980287 
L 35.88513 66.951112 
L 36.047015 66.787537 
L 36.231076 66.660443 
L 36.455053 66.585444 
L 36.723383 66.575028 
L 36.99393 66.418795 
L 37.073763 66.165743 
L 36.976189 65.899213 
L 36.785142 65.746105 
L 36.248816 65.316391 
L 35.698852 65.018849 
L 35.093447 64.800422 
L 32.813755 64.327304 
L 31.908974 64.308592 
L 31.52533 64.202558 
L 30.81348 63.869968 
L 30.4631 63.595653 
L 29.731292 62.880038 
L 29.383129 62.70873 
L 29.163586 62.745066 
L 28.817641 62.997372 
L 28.609187 63.062794 
L 28.35638 63.022295 
L 28.167884 62.910149 
L 27.986041 62.772059 
L 27.764281 62.656823 
L 26.749469 62.351471 
L 25.994637 62.124398 
L 25.666432 61.948015 
L 24.839268 61.2272 
L 23.453268 60.400117 
L 22.752507 59.722726 
L 22.44426 59.515653 
L 22.089445 59.401779 
L 21.7058 59.321038 
L 21.395336 59.185449 
L 21.257845 58.905005 
L 21.739064 58.650492 
L 22.049528 58.441545 
L 22.104968 58.161284 
L 21.829985 57.698125 
L 21.200187 56.98618 
L 21.122571 56.659805 
L 21.288891 56.160096 
L 21.526174 55.794746 
L 21.612661 55.622433 
L 21.670318 55.339772 
L 21.652577 54.302577 
L 21.7058 54.097519 
L 21.790069 53.908981 
L 21.794504 53.726655 
L 21.617096 53.532 
L 21.353202 53.443438 
L 21.115918 53.507284 
L 20.927423 53.678245 
L 20.801019 53.908981 
L 20.530472 54.053215 
L 20.242184 54.109883 
L 19.956114 54.06867 
L 19.698872 53.915162 
L 19.494853 53.645287 
L 19.002546 53.233388 
L 18.794092 53.005879 
L 18.742326 52.878193 
L 18.716476 52.814436 
L 18.669906 52.409014 
L 18.596726 52.243389 
L 18.445929 52.118929 
L 18.073372 51.955403 
L 17.922575 51.862852 
L 17.210726 51.036401 
L 16.880304 50.822692 
L 16.478918 50.717907 
L 15.660624 50.659355 
L 15.270327 50.539179 
L 14.141569 49.863559 
L 13.737965 49.687021 
L 12.895278 49.444839 
L 12.529374 49.268367 
L 12.201169 48.948327 
L 11.750996 48.039994 
L 11.493755 47.742846 
L 10.145455 46.662513 
L 11.012536 45.955491 
L 14.465338 45.894121 
L 14.988691 45.355236 
L 15.864643 45.483031 
L 16.713984 45.711055 
L 17.339347 46.079264 
L 17.552236 46.172358 
L 17.811695 46.23579 
L 17.971363 46.238859 
L 19.182172 46.075172 
L 19.601298 45.938102 
L 19.929503 45.704919 
L 20.044818 45.509615 
L 20.04856 45.466169 
L 20.069212 45.226434 
L 20.175656 45.079249 
L 20.337541 45.041434 
L 20.537125 45.086403 
L 20.741144 45.106845 
L 20.914117 44.996466 
L 20.916335 44.838073 
L 20.716751 44.398777 
L 20.705663 44.212895 
L 20.798802 44.102606 
L 21.639272 43.656459 
L 21.829495 43.590906 
L 22.071704 43.507444 
L 22.521876 43.42682 
L 22.952091 43.439067 
L 23.151675 43.504382 
L 23.537537 43.714642 
L 23.712727 43.768745 
L 23.925617 43.756495 
L 24.240516 43.644211 
L 24.386877 43.61461 
L 24.770522 43.666667 
L 25.571076 43.888188 
L 25.994637 43.877979 
L 26.189786 43.823871 
L 26.373847 43.823871 
L 26.542384 43.877979 
L 26.690963 43.992329 
L 27.110089 44.224129 
L 27.495952 44.130178 
L 28.520483 43.334978 
L 28.657974 43.28906 
L 29.285554 43.292121 
L 29.491791 43.189067 
L 29.737945 42.889143 
L 29.922005 42.507726 
L 30.010709 41.630156 
L 30.228034 41.202329 
L 30.589503 40.933496 
L 31.008629 40.838808 
L 31.917845 40.813865 
L 32.414587 40.573118 
L 32.279314 40.140619 
L 31.651733 39.38238 
L 31.704955 38.977288 
L 32.006549 38.665313 
L 32.376888 38.369172 
L 32.643 38.009137 
L 32.727269 37.256448 
L 32.849237 36.885627 
L 33.177441 36.636116 
L 33.636484 36.562086 
L 34.42595 36.600622 
L 34.889428 36.445473 
L 35.335165 36.075437 
L 35.47952 35.820181 
L 35.521444 35.74606 
L 35.752074 35.516063 
L 36.33752 35.451227 
L 36.767735 35.29827 
L 37.158032 34.932679 
L 37.231213 34.545957 
L 36.652419 34.297496 
L 36.588109 34.260055 
L 36.532669 34.214014 
L 36.486099 34.158869 
L 36.506058 34.041 
L 36.554845 33.926684 
L 36.628026 33.821989 
L 36.723383 33.728936 
L 37.182426 32.939826 
L 37.457408 32.621517 
L 37.905363 32.358857 
L 38.688176 32.227046 
L 38.909936 32.106361 
L 39.089561 31.856953 
L 39.082908 31.645457 
L 39.009728 31.437031 
L 38.989769 31.198879 
L 39.023033 30.968852 
L 39.049644 30.916396 
L 39.145001 30.894204 
L 40.12518 30.392993 
L 40.307023 30.250841 
L 40.715061 29.287537 
L 40.797113 29.2684 
L 40.783807 29.248257 
L 40.590876 29.020667 
L 40.442297 28.945151 
L 40.23606 28.91998 
L 40.051999 28.864605 
L 40.001079 28.760583 
L 39.969948 28.69699 
L 40.808201 28.073073 
L 41.287202 27.791928 
L 42.344997 27.355523 
L 42.779646 27.090651 
L 42.92379 26.919299 
L 43.030235 26.576177 
L 43.125592 26.399887 
L 43.329611 26.214086 
L 43.804177 25.934444 
L 43.983803 25.778338 
L 44.114641 25.538954 
L 44.107988 25.359829 
L 44.056984 25.184246 
L 44.063636 24.959041 
L 44.15234 24.743913 
L 44.400712 24.456142 
L 44.513809 24.279709 
L 44.759963 23.585293 
L 44.890801 23.358932 
L 45.720183 22.616593 
L 46.110481 22.34692 
L 46.496343 22.201856 
L 47.452128 22.028807 
L 47.882342 21.492337 
L 47.853514 20.847242 
L 47.665018 20.17809 
L 47.609578 19.576724 
L 48.017616 19.104362 
L 48.651849 18.681566 
L 49.984627 18.071611 
L 51.035769 17.909715 
L 51.156524 17.854435 
L 51.326274 17.776731 
L 51.439372 17.631314 
L 51.444701 17.610621 
L 51.477071 17.484923 
L 51.492594 17.342535 
L 51.556905 17.2151 
L 52.089128 16.754276 
L 52.155656 16.588112 
L 52.228837 16.234979 
L 52.308671 16.091771 
L 52.46612 15.972447 
L 52.829807 15.812375 
L 52.993909 15.711971 
L 53.46404 15.281635 
L 53.707976 15.129621 
L 54.104926 14.996006 
L 54.486353 14.912567 
L 54.759118 14.896675 
L 55.750385 14.987066 
L 56.058631 14.970676 
L 56.342484 14.900152 
L 56.588638 14.758125 
L 56.939018 13.999665 
L 57.597645 13.906882 
L 59.187664 14.413074 
L 59.928342 14.486543 
L 60.748854 14.41506 
L 61.531666 14.211063 
L 62.159247 13.88009 
L 62.689253 13.45946 
L 62.95093 13.334991 
L 63.387797 13.214008 
L 63.851275 13.185251 
L 63.979896 13.133691 
L 64.161739 12.918057 
L 64.119605 12.777796 
L 64.010943 12.653906 
L 64.002072 12.4899 
L 64.232702 12.230815 
L 64.57643 12.086193 
L 65.436859 11.894055 
L 65.78724 11.699974 
L 66.326116 11.099154 
z
" clip-path="url(#p4cf2edce47)" style="stroke: #000000; stroke-linejoin: miter"/>
   </g>
   <g id="line2d_1">
    <path d="M 66.678715 10.851805 
L 67.499226 10.613417 
L 67.678852 10.354322 
L 67.497009 9.966793 
L 67.676634 9.740475 
L 68.002621 9.724664 
L 69.741219 10.12495 
L 70.659305 9.690079 
L 70.947593 9.36405 
L 71.428812 8.471474 
L 71.850156 8.08369 
L 72.289241 7.957914 
L 72.774895 8.000331 
L 74.639896 8.471474 
L 75.522501 9.102316 
L 77.505034 10.002376 
L 77.802193 9.965311 
L 79.192628 10.381019 
L 79.786944 10.294502 
L 80.583062 9.810144 
L 81.390269 9.722688 
L 81.787219 9.802732 
L 83.168783 9.897607 
L 84.550348 10.11803 
L 86.042792 10.071569 
L 86.39539 10.177345 
L 87.508625 10.795912 
L 87.654987 11.091238 
L 88.11403 11.08728 
L 90.273971 10.554077 
L 90.950339 10.574845 
L 91.302938 10.727163 
L 92.795382 11.020491 
L 93.575977 11.468314 
L 93.984015 11.499496 
L 95.718178 11.803941 
L 97.152965 11.367845 
L 98.210759 11.34706 
L 99.541319 10.749914 
L 99.95601 10.741012 
L 101.180125 10.919572 
L 102.812278 10.970525 
L 104.357945 11.588097 
L 104.692802 11.838599 
L 104.954479 12.631112 
L 105.333689 12.894761 
L 106.056626 13.167403 
L 108.10347 13.74664 
L 108.3718 13.97039 
L 109.595914 15.225993 
L 109.999518 15.392929 
L 112.591891 15.113725 
L 113.940192 14.757132 
L 114.833884 14.234885 
L 116.91621 12.159492 
L 117.834296 11.774235 
L 128.364567 11.084312 
L 129.777177 10.740023 
L 130.905935 10.654958 
L 131.917161 10.441833 
L 132.939474 10.504134 
L 134.303298 10.257426 
L 136.372318 10.245561 
L 137.387978 9.963828 
L 137.594215 9.770121 
L 138.332676 8.9147 
L 139.153187 8.450255 
L 139.831773 7.450535 
L 140.057968 6.847344 
L 140.029139 6.415381 
L 140.186589 5.785753 
L 140.760947 5.853177 
L 143.572863 5.436407 
L 146.932526 4.89246 
L 147.959274 4.602412 
L 148.448255 4.590615 
L 149.174519 4.877218 
L 149.405149 4.66828 
L 149.639106 4.956872 
L 150.061558 5.010961 
L 150.945272 4.905735 
L 151.310067 5.014895 
L 151.800156 5.380818 
L 152.030787 5.294735 
L 153.070841 5.987545 
L 153.157327 6.310005 
L 153.365781 6.24452 
L 153.803757 5.923558 
L 154.070978 6.062366 
L 154.339308 6.484325 
L 155.079986 6.652273 
L 155.079986 6.8168 
L 154.83605 6.960168 
L 154.414706 6.975935 
L 154.414706 7.094687 
L 155.403755 7.385468 
L 155.669867 7.253374 
L 156.162174 7.49786 
L 156.148869 7.607307 
L 155.867234 7.888375 
L 156.026901 8.356011 
L 156.401675 8.72317 
L 157.477211 9.333922 
L 157.040344 9.453944 
L 157.06252 9.533967 
L 157.186705 9.725652 
L 157.737779 9.580403 
L 158.215671 10.08442 
L 158.503959 9.986561 
L 158.75233 10.156584 
L 158.774506 10.334052 
L 158.370903 10.640122 
L 158.956349 11.020491 
L 158.579358 11.330729 
L 158.812205 11.50494 
L 159.29786 11.669281 
L 159.670416 12.034193 
L 159.688157 12.745087 
L 160.568544 13.125759 
L 159.834519 13.400447 
L 160.089543 13.528891 
L 161.377968 14.771036 
L 161.344704 14.977132 
L 161.462237 15.236923 
L 160.967712 15.298527 
L 161.162861 15.720917 
L 161.655168 16.230006 
L 163.651007 17.721948 
L 164.344862 17.933144 
L 164.702149 18.767307 
L 164.990437 18.799213 
L 165.28316 19.599175 
L 165.890783 19.827708 
L 166.014968 19.865635 
L 166.893137 19.937501 
L 167.487454 20.205047 
L 167.640468 20.39327 
L 167.347745 20.627472 
L 167.201384 21.053069 
L 167.582811 21.256938 
L 167.412056 21.852786 
L 168.004155 22.132833 
L 168.798055 23.179681 
L 170.104221 23.551236 
L 170.64088 23.632375 
L 170.864858 23.781647 
L 171.301725 24.25064 
L 171.275114 24.493237 
L 172.341779 25.708073 
L 172.422721 26.059947 
L 172.182112 26.106639 
L 172.437136 26.324558 
L 173.36631 26.637458 
L 173.36631 26.769578 
L 173.235472 26.912265 
L 173.330828 26.970049 
L 173.734431 27.101707 
L 174.390841 27.553592 
L 175.266793 27.949843 
L 175.273445 28.230527 
L 175.796799 28.293918 
L 176.76589 28.62653 
L 177.189451 28.496693 
L 177.406395 28.837319 
L 178.362561 29.694012 
L 178.840719 30.695536 
L 178.850433 30.744421 
L 178.666372 31.03846 
L 179.024515 31.191816 
L 179.014535 31.647476 
L 179.254036 31.83878 
L 179.19527 32.372999 
L 179.544542 32.921635 
L 180.410514 33.85284 
L 180.409405 34.221097 
L 181.611344 35.737954 
L 181.895197 36.553973 
L 181.890762 36.822229 
L 181.425066 37.560405 
L 181.611344 37.88323 
L 181.331927 38.117795 
L 181.331927 39.010828 
L 181.696722 39.407799 
L 181.861933 39.409324 
L 181.892979 40.183352 
L 181.742183 40.496782 
L 181.438372 40.593475 
L 181.593603 40.861207 
L 181.298663 41.027173 
L 181.156736 41.118821 
L 180.930541 41.804391 
L 180.672191 41.860437 
L 180.620077 42.004133 
L 180.693258 42.714736 
L 180.402753 43.123771 
L 179.941492 43.354367 
L 179.489102 43.473765 
L 179.400398 43.610528 
L 179.422574 44.054614 
L 178.925831 44.168983 
L 178.969075 44.337494 
L 179.693121 45.175326 
L 179.446967 45.635383 
L 179.320564 46.123252 
L 178.750641 47.179508 
L 178.522228 47.350527 
L 178.528881 47.457044 
L 178.666372 47.62196 
L 178.362561 48.513547 
L 178.435742 48.794493 
L 179.269559 50.426205 
L 179.16755 51.033318 
L 179.400398 51.361152 
L 179.338305 51.459829 
L 178.959095 51.700392 
L 179.018971 52.276306 
L 179.73082 53.355912 
L 179.912663 53.542298 
L 180.192081 56.122937 
L 179.886052 56.222032 
L 178.89922 56.283971 
L 178.191806 56.674263 
L 177.921259 56.899413 
L 179.612178 57.566862 
L 180.136641 58.205749 
L 180.147729 58.880172 
L 180.298525 59.085061 
L 181.204205 59.765984 
L 181.686743 59.732045 
L 182.314323 59.964014 
L 182.73345 60.340027 
L 182.621461 60.738963 
L 183.673712 62.322602 
L 184.531923 62.597653 
L 185.281471 62.882114 
L 187.190824 63.207151 
L 188.969339 63.826322 
L 191.823389 64.251416 
L 193.56864 64.090298 
L 193.810358 63.905301 
L 193.05083 63.632016 
L 192.887837 63.301667 
L 192.927754 63.147952 
L 193.542029 62.942338 
L 193.533158 62.352699 
L 194.103081 62.259297 
L 194.435721 62.335055 
L 195.0001 62.600767 
L 195.761846 62.786594 
L 196.540223 63.202996 
L 197.03253 63.082525 
L 197.130104 62.943376 
L 197.325253 62.383834 
L 197.667872 62.270713 
L 198.434053 62.162791 
L 199.5362 61.562142 
L 200.780273 61.286301 
L 201.265927 61.018819 
L 201.893508 60.939001 
L 202.155185 60.65191 
L 202.940215 60.299623 
L 204.465923 60.196029 
L 204.956013 59.896697 
L 207.284492 60.165989 
L 210.268272 60.876809 
L 211.99689 61.856721 
L 212.358359 62.544713 
L 212.469239 63.326596 
L 212.189822 63.905301 
L 212.345053 64.177611 
L 212.184967 64.474094 
L 211.430634 64.461814 
L 211.430634 64.587079 
L 212.356089 65.514298 
L 213.054545 65.562645 
L 212.560387 65.909328 
L 212.300212 66.46686 
L 212.006861 68.58134 
L 211.668109 69.441028 
L 211.580802 70.06523 
L 211.430634 70.258562 
L 211.570325 70.692233 
L 211.029022 71.251222 
L 211.30142 71.626774 
L 210.987114 71.952184 
L 210.564548 72.056004 
L 210.098328 72.461486 
L 209.440033 72.340321 
L 209.008736 72.45654 
L 204.823236 72.896792 
L 202.165609 73.016364 
L 201.393814 73.187909 
L 199.242568 74.186333 
L 198.610465 74.602452 
L 198.060431 75.125285 
L 197.913755 74.974111 
L 197.934709 74.674297 
L 197.506904 73.988231 
L 199.294953 73.514574 
L 200.150562 73.371028 
L 200.632497 73.144196 
L 201.02014 72.790424 
L 201.149355 72.332079 
L 201.023632 72.078253 
L 200.747742 71.808827 
L 200.112147 71.351687 
L 200.271046 72.056004 
L 199.930548 72.006565 
L 199.338606 72.216697 
L 199.087162 71.916755 
L 198.991124 71.544406 
L 198.940486 70.327675 
L 199.162246 69.944312 
L 200.164531 69.69511 
L 200.417721 69.431162 
L 200.227392 69.223992 
L 199.013824 68.728412 
L 198.353783 68.728412 
L 197.461504 68.604344 
L 196.955123 69.154943 
L 196.260159 69.236322 
L 195.242159 69.970633 
L 195.149613 70.511997 
L 195.397566 70.749026 
L 195.257874 70.919419 
L 195.116437 71.018209 
L 195.331212 71.353334 
L 195.502334 71.460396 
L 195.986015 71.601239 
L 197.023223 72.332079 
L 196.630341 72.584312 
L 196.434773 72.607395 
L 196.729871 72.896792 
L 196.462712 73.014715 
L 196.44525 73.202756 
L 196.605895 73.408975 
L 196.88877 73.577277 
L 196.410327 73.727449 
L 195.229936 73.81327 
L 193.717778 74.490152 
L 193.513479 74.773401 
L 193.47681 75.036065 
L 193.618248 75.145939 
L 193.932553 74.974111 
L 193.8435 75.220295 
L 193.440141 75.312834 
L 193.34585 75.60537 
L 193.410457 75.931045 
L 193.592056 76.022812 
L 194.73054 75.883924 
L 195.243905 75.675622 
L 196.155391 74.974111 
L 195.849816 74.559513 
L 197.688503 75.050109 
L 197.777556 75.402075 
L 197.601196 75.807047 
L 197.231014 76.131123 
L 196.729871 76.235309 
L 197.458012 75.504544 
L 197.515635 75.167419 
L 197.023223 74.974111 
L 197.023223 75.125285 
L 197.138468 75.331012 
L 196.729871 75.402901 
L 196.289844 75.251692 
L 195.586149 75.750838 
L 194.531479 76.374238 
L 193.199174 76.91605 
L 193.639201 76.235309 
L 193.043767 76.246059 
L 192.848199 76.38747 
L 192.759146 76.652144 
L 193.040275 76.652144 
L 192.907568 76.85648 
L 192.989637 77.015339 
L 193.492525 77.206495 
L 192.638662 77.383611 
L 192.308642 77.585587 
L 192.308642 77.901865 
L 192.404679 77.804986 
L 192.614216 77.623669 
L 193.199174 77.901865 
L 192.753908 78.692095 
L 192.586278 79.249046 
L 192.685808 79.645368 
L 192.862168 79.674392 
L 193.152028 79.298787 
L 193.288227 78.816392 
L 194.947061 77.588899 
L 196.033161 77.181668 
L 196.434773 76.51401 
L 194.697363 79.094864 
L 193.682855 79.62049 
L 191.74813 81.392225 
L 191.460017 82.10497 
L 191.182381 81.957901 
L 190.560754 82.229619 
L 190.215018 82.712546 
L 190.15565 82.997737 
L 190.218511 84.028475 
L 190.560754 84.462994 
L 190.923952 85.414148 
L 190.854106 85.592467 
L 191.000782 85.734141 
L 190.714415 85.615801 
L 190.445509 85.665802 
L 190.124219 86.025041 
L 190.265656 86.406066 
L 190.623615 88.066614 
L 191.000782 89.247882 
L 190.944905 89.416727 
L 190.749338 89.609005 
L 190.641077 89.987795 
L 189.663238 91.7746 
L 189.073042 94.098353 
L 189.097488 94.31821 
L 188.997958 94.51964 
L 185.912378 94.644769 
L 181.335253 94.092656 
L 176.905598 92.690021 
L 176.180443 92.292522 
L 175.211353 89.925592 
L 174.701305 89.330981 
L 173.508236 89.427586 
L 172.024662 90.007373 
L 170.616487 90.247437 
L 169.638525 89.326735 
L 169.212746 88.703765 
L 168.722657 88.582816 
L 167.458625 88.859744 
L 163.367154 88.88415 
L 163.132089 88.768489 
L 162.462374 88.104441 
L 161.253782 87.706819 
L 160.802501 87.35172 
L 160.903402 86.887595 
L 160.519757 86.683139 
L 159.996403 86.717036 
L 159.541796 86.542264 
L 157.282062 86.229855 
L 155.720872 85.562943 
L 155.164255 85.807435 
L 152.645062 85.983161 
L 150.613741 86.814495 
L 149.846451 86.975532 
L 148.634533 87.016854 
L 148.003626 87.24256 
L 147.573412 87.277533 
L 146.852692 87.452409 
L 140.337385 88.113985 
L 138.640922 88.629497 
L 136.908977 88.939332 
L 136.168299 89.217401 
L 134.997406 90.226191 
L 134.839957 90.543864 
L 132.258671 91.860578 
L 131.881679 92.394678 
L 130.870454 93.290501 
L 130.22735 93.547177 
L 129.477801 94.135282 
L 128.978842 94.710869 
L 127.944713 94.983803 
L 126.623751 95.013158 
L 124.960552 95.770533 
L 123.672126 96.018112 
L 122.247319 96.037323 
L 120.867972 96.402918 
L 119.934363 96.315379 
L 116.752108 95.126202 
L 113.96902 94.980633 
L 111.43874 94.347898 
L 106.910402 94.570678 
L 105.901394 94.468344 
L 101.492807 93.319255 
L 100.767652 93.259086 
L 100.013668 93.428951 
L 98.448043 94.13315 
L 93.971602 94.242397 
L 86.468571 92.928475 
L 85.244456 92.429265 
L 84.76989 92.364882 
L 82.626384 92.60823 
L 82.022284 92.537818 
L 79.704893 91.648917 
L 76.281612 91.525688 
L 74.336085 91.716985 
L 73.531096 92.016423 
L 70.432558 92.42679 
L 67.57906 92.603806 
L 66.918215 92.494715 
L 66.374903 92.167498 
L 66.108791 91.777611 
L 66.097703 91.311822 
L 66.856122 89.306566 
L 67.284119 89.112322 
L 69.049328 88.831093 
L 69.798877 88.544624 
L 70.164781 87.914627 
L 69.969632 87.283891 
L 69.049328 86.997782 
L 68.073584 86.906665 
L 67.297425 86.672546 
L 62.669295 84.501926 
L 62.55398 84.199551 
L 62.642684 83.216823 
L 62.471929 82.939055 
L 62.06389 82.809171 
L 61.176851 82.722589 
L 60.354121 82.467102 
L 59.635619 82.047038 
L 59.063478 81.514251 
L 58.662093 80.766635 
L 58.693139 80.291312 
L 58.597782 80.150121 
L 58.083299 79.701369 
L 58.143175 79.162246 
L 58.384893 78.881197 
L 58.584477 78.836993 
L 59.615661 78.728595 
L 59.793069 78.529716 
L 59.983782 77.838628 
L 60.303116 77.633587 
L 61.176851 77.557888 
L 61.627023 77.681952 
L 62.407618 78.039496 
L 62.871096 78.115225 
L 63.762571 77.911189 
L 64.139563 77.650409 
L 64.265966 77.281419 
L 62.871096 76.309551 
L 61.176851 76.170928 
L 60.453913 75.928375 
L 59.719888 75.526329 
L 57.910327 74.287451 
L 56.990023 74.217206 
L 56.763828 74.335682 
L 56.016497 74.88942 
L 55.597371 75.061468 
L 54.708113 75.197864 
L 54.390997 75.359462 
L 54.264593 75.678523 
L 51.541381 78.858043 
L 51.029116 78.948559 
L 50.086636 78.77069 
L 49.71408 78.523402 
L 49.485667 77.934325 
L 48.702854 77.4023 
L 48.538752 76.864207 
L 47.727111 75.741506 
L 47.041872 75.665927 
L 44.746657 74.931381 
L 42.631067 75.36156 
L 41.522268 75.365758 
L 40.473343 75.150648 
L 39.688313 74.617763 
L 39.171612 73.562137 
L 38.79462 73.324305 
L 38.373277 73.243642 
L 37.060458 73.316972 
L 34.88721 73.069763 
L 34.514654 72.534669 
L 33.747364 72.224823 
L 33.82498 71.947496 
L 34.299547 71.558301 
L 34.873905 71.421276 
L 36.723383 71.401404 
L 37.594899 71.236161 
L 37.89871 71.063622 
L 37.958585 70.675764 
L 37.785613 70.348641 
L 37.470714 70.161604 
L 34.643274 69.332316 
L 34.629969 69.095335 
L 33.975777 69.031661 
L 33.931425 68.861532 
L 34.188667 68.492136 
L 34.401556 68.420149 
L 35.173281 68.341906 
L 35.512573 68.094695 
L 35.60793 67.669239 
L 35.927264 67.105332 
L 35.88513 66.951112 
L 36.231076 66.660443 
L 36.99393 66.418795 
L 37.073763 66.165743 
L 36.976189 65.899213 
L 36.248816 65.316391 
L 35.093447 64.800422 
L 32.813755 64.327304 
L 31.52533 64.202558 
L 30.4631 63.595653 
L 29.731292 62.880038 
L 29.383129 62.70873 
L 29.163586 62.745066 
L 28.609187 63.062794 
L 28.167884 62.910149 
L 27.764281 62.656823 
L 25.666432 61.948015 
L 24.839268 61.2272 
L 23.453268 60.400117 
L 22.44426 59.515653 
L 21.395336 59.185449 
L 21.257845 58.905005 
L 22.049528 58.441545 
L 22.104968 58.161284 
L 21.829985 57.698125 
L 21.200187 56.98618 
L 21.122571 56.659805 
L 21.526174 55.794746 
L 21.670318 55.339772 
L 21.7058 54.097519 
L 21.794504 53.726655 
L 21.617096 53.532 
L 21.353202 53.443438 
L 21.115918 53.507284 
L 20.530472 54.053215 
L 19.956114 54.06867 
L 19.698872 53.915162 
L 19.494853 53.645287 
L 18.742326 52.878193 
L 18.445929 52.118929 
L 17.922575 51.862852 
L 16.880304 50.822692 
L 16.478918 50.717907 
L 15.270327 50.539179 
L 13.737965 49.687021 
L 12.529374 49.268367 
L 12.201169 48.948327 
L 11.493755 47.742846 
L 10.145455 46.662513 
L 11.012536 45.955491 
L 14.465338 45.894121 
L 14.988691 45.355236 
L 16.713984 45.711055 
L 17.811695 46.23579 
L 17.971363 46.238859 
L 19.601298 45.938102 
L 20.044818 45.509615 
L 20.175656 45.079249 
L 20.537125 45.086403 
L 20.741144 45.106845 
L 20.914117 44.996466 
L 20.916335 44.838073 
L 20.705663 44.212895 
L 20.798802 44.102606 
L 22.071704 43.507444 
L 22.952091 43.439067 
L 23.925617 43.756495 
L 24.386877 43.61461 
L 24.770522 43.666667 
L 25.571076 43.888188 
L 26.542384 43.877979 
L 27.110089 44.224129 
L 27.495952 44.130178 
L 28.657974 43.28906 
L 29.491791 43.189067 
L 29.922005 42.507726 
L 30.010709 41.630156 
L 30.228034 41.202329 
L 30.589503 40.933496 
L 31.008629 40.838808 
L 31.917845 40.813865 
L 32.414587 40.573118 
L 32.279314 40.140619 
L 31.651733 39.38238 
L 31.704955 38.977288 
L 32.643 38.009137 
L 32.849237 36.885627 
L 33.177441 36.636116 
L 33.636484 36.562086 
L 34.42595 36.600622 
L 34.889428 36.445473 
L 35.47952 35.820181 
L 35.752074 35.516063 
L 36.767735 35.29827 
L 37.158032 34.932679 
L 37.231213 34.545957 
L 36.486099 34.158869 
L 36.628026 33.821989 
L 36.723383 33.728936 
L 37.457408 32.621517 
L 37.905363 32.358857 
L 38.909936 32.106361 
L 39.089561 31.856953 
L 39.145001 30.894204 
L 40.307023 30.250841 
L 40.783807 29.248257 
L 40.442297 28.945151 
L 40.051999 28.864605 
L 39.969948 28.69699 
L 41.287202 27.791928 
L 42.779646 27.090651 
L 42.92379 26.919299 
L 43.125592 26.399887 
L 43.329611 26.214086 
L 43.983803 25.778338 
L 44.107988 25.359829 
L 44.063636 24.959041 
L 44.15234 24.743913 
L 44.513809 24.279709 
L 44.890801 23.358932 
L 46.110481 22.34692 
L 46.496343 22.201856 
L 47.452128 22.028807 
L 47.882342 21.492337 
L 47.853514 20.847242 
L 47.609578 19.576724 
L 48.017616 19.104362 
L 48.651849 18.681566 
L 49.984627 18.071611 
L 51.326274 17.776731 
L 51.477071 17.484923 
L 51.556905 17.2151 
L 52.155656 16.588112 
L 52.308671 16.091771 
L 52.829807 15.812375 
L 52.993909 15.711971 
L 53.707976 15.129621 
L 54.486353 14.912567 
L 54.759118 14.896675 
L 56.058631 14.970676 
L 56.588638 14.758125 
L 56.939018 13.999665 
L 57.597645 13.906882 
L 59.187664 14.413074 
L 59.928342 14.486543 
L 60.748854 14.41506 
L 61.531666 14.211063 
L 62.159247 13.88009 
L 62.95093 13.334991 
L 64.161739 12.918057 
L 64.002072 12.4899 
L 64.232702 12.230815 
L 64.57643 12.086193 
L 65.436859 11.894055 
L 65.78724 11.699974 
L 66.678715 10.851805 
L 66.678715 10.851805 
" clip-path="url(#p4cf2edce47)" style="fill: none; stroke: #000000; stroke-width: 0.5; stroke-linecap: square"/>
   </g>
  </g>
 </g>
 <defs>
  <clipPath id="p4cf2edce47">
   <rect x="0" y="-0" width="223.2" height="100.993533"/>
  </clipPath>
 </defs>
</svg>
