<?xml version="1.0" encoding="utf-8" standalone="no"?>
<!DOCTYPE svg PUBLIC "-//W3C//DTD SVG 1.1//EN"
  "http://www.w3.org/Graphics/SVG/1.1/DTD/svg11.dtd">
<svg xmlns:xlink="http://www.w3.org/1999/xlink" width="192.728451pt" height="221.76pt" viewBox="0 0 192.728451 221.76" xmlns="http://www.w3.org/2000/svg" version="1.1">
 <metadata>
  <rdf:RDF xmlns:dc="http://purl.org/dc/elements/1.1/" xmlns:cc="http://creativecommons.org/ns#" xmlns:rdf="http://www.w3.org/1999/02/22-rdf-syntax-ns#">
   <cc:Work>
    <dc:type rdf:resource="http://purl.org/dc/dcmitype/StillImage"/>
    <dc:date>2026-04-26T19:22:06.556507</dc:date>
    <dc:format>image/svg+xml</dc:format>
    <dc:creator>
     <cc:Agent>
      <dc:title>Matplotlib v3.10.9, https://matplotlib.org/</dc:title>
     </cc:Agent>
    </dc:creator>
   </cc:Work>
  </rdf:RDF>
 </metadata>
 <defs>
  <style type="text/css">*{stroke-linejoin: round; stroke-linecap: butt}</style>
 </defs>
 <g id="figure_1">
  <g id="patch_1">
   <path d="M 0 221.76 
L 192.728451 221.76 
L 192.728451 0 
L 0 0 
z
" style="fill: #ffffff"/>
  </g>
  <g id="axes_1">
   <g id="patch_2">
    <path d="M 22.404592 199.58444 
L 21.089219 197.641044 
L 19.319039 196.486772 
L 16.7418 196.121644 
L 15.591406 195.520946 
L 12.372086 192.741213 
L 11.703253 191.834255 
L 12.282908 183.129526 
L 11.703253 180.479134 
L 10.815933 179.289388 
L 9.848354 178.676841 
L 9.081424 177.981834 
L 8.760384 176.52113 
L 9.072507 175.025071 
L 10.570694 173.258055 
L 10.267489 171.867987 
L 9.393547 169.806424 
L 9.072507 167.544563 
L 8.89861 165.105957 
L 9.545149 162.113608 
L 10.757967 160.735223 
L 13.076591 159.674919 
L 14.877983 158.979828 
L 16.371712 157.813481 
L 17.597907 156.164087 
L 18.596699 154.102321 
L 19.247697 152.405763 
L 19.541984 151.18046 
L 19.644538 150.190786 
L 20.531858 149.095069 
L 21.263116 148.753392 
L 23.746718 148.85943 
L 27.585824 147.516281 
L 30.555446 144.417572 
L 32.713549 139.9756 
L 34.069052 134.579099 
L 34.568448 129.818732 
L 34.390092 125.718118 
L 32.098222 107.818134 
L 31.910949 103.646343 
L 32.339002 99.568747 
L 33.962039 94.548246 
L 37.182989 87.740266 
L 39.392969 83.069009 
L 41.212196 78.507793 
L 42.255577 76.492343 
L 46.420182 71.930999 
L 47.294124 70.434104 
L 49.657337 63.998533 
L 50.656129 62.301212 
L 52.011632 61.546843 
L 58.606332 61.193232 
L 58.820359 61.12251 
L 59.012091 60.957491 
L 59.190447 60.709963 
L 59.48116 60.104638 
L 61.143442 56.643393 
L 64.113063 52.553185 
L 67.555327 49.276259 
L 70.944085 47.684932 
L 74.413103 47.932472 
L 76.223413 47.755658 
L 77.828614 47.178063 
L 79.607711 45.857841 
L 80.94092 44.584765 
L 82.385601 43.59459 
L 84.48128 43.099501 
L 85.506825 43.405985 
L 87.343888 44.879459 
L 87.941379 45.162365 
L 88.654802 44.60834 
L 89.172034 42.356867 
L 89.95234 41.130926 
L 90.750481 40.470802 
L 91.499575 40.176103 
L 92.265843 40.327454 
L 92.275422 40.329346 
L 93.220707 40.965895 
L 95.646344 45.622087 
L 96.029809 48.014986 
L 96.234918 52.706422 
L 97.073189 55.122833 
L 98.553541 56.949862 
L 100.239002 57.586372 
L 102.053771 57.327053 
L 103.9488 56.395861 
L 109.807783 52.105263 
L 110.699562 51.857726 
L 111.484327 49.37056 
L 112.607967 47.838171 
L 113.057052 47.520168 
L 115.604342 45.716389 
L 119.126867 43.901073 
L 120.063234 42.745866 
L 120.509123 41.013047 
L 121.035272 36.592543 
L 121.650599 35.03651 
L 122.328351 34.506042 
L 123.01502 34.352796 
L 123.701689 34.282066 
L 124.339311 34.034514 
L 125.672519 32.985363 
L 129.511625 28.163935 
L 130.639725 26.254205 
L 131.567174 24.191212 
L 131.732153 23.436743 
L 131.923885 21.798124 
L 132.173583 21.114381 
L 132.468143 20.793709 
L 132.779992 20.454215 
L 134.224673 19.593638 
L 134.750823 19.01599 
L 135.196712 17.283039 
L 135.754073 12.567482 
L 136.480872 10.9406 
L 137.800704 10.315781 
L 139.22755 10.598718 
L 140.698984 11.164591 
L 142.152582 11.412161 
L 143.508085 10.964178 
L 144.640644 10.292203 
L 145.813332 10.08 
L 147.126119 10.619943 
L 148.07156 11.008798 
L 147.387321 11.954455 
L 146.722946 13.204086 
L 146.450954 14.489079 
L 146.736323 15.715123 
L 147.99373 16.858641 
L 148.279099 18.414763 
L 148.096285 19.086722 
L 147.770786 19.735103 
L 147.538923 20.418848 
L 147.681608 21.102592 
L 148.439619 21.774547 
L 149.126289 21.633083 
L 149.688109 21.232268 
L 150.04482 21.102592 
L 151.106036 22.116417 
L 151.471666 22.823735 
L 151.810541 25.770876 
L 152.336691 27.433052 
L 153.90622 30.875261 
L 154.414534 33.197551 
L 155.217134 34.576771 
L 155.391031 35.508036 
L 155.306312 35.86168 
L 155.110121 36.356781 
L 154.905012 37.028702 
L 154.815834 37.877443 
L 155.279559 39.704584 
L 156.394282 40.812652 
L 158.93585 42.203624 
L 159.845464 43.05235 
L 161.138542 44.679067 
L 161.932225 45.315605 
L 167.630688 48.109287 
L 169.325067 48.427552 
L 171.00161 49.771337 
L 171.492088 52.753572 
L 171.331568 55.723986 
L 171.064035 57.067734 
L 170.604769 57.727818 
L 171.117542 59.213001 
L 172.544387 61.735436 
L 173.614521 63.24417 
L 173.997986 64.116402 
L 174.836257 68.218212 
L 175.665611 70.787702 
L 177.016655 72.190302 
L 179.067745 71.153086 
L 179.696449 73.569321 
L 179.625107 76.504129 
L 178.510384 85.496905 
L 178.48363 86.722629 
L 178.679822 87.311917 
L 179.446751 88.86763 
L 179.660778 89.916552 
L 178.670904 93.051501 
L 178.974108 94.253612 
L 179.660778 98.826286 
L 179.188135 100.759036 
L 178.309734 102.467855 
L 177.823714 104.223799 
L 178.48363 106.262561 
L 177.083538 107.712072 
L 176.557389 108.454501 
L 176.129336 109.373694 
L 178.715493 109.915781 
L 178.974108 112.932584 
L 177.837091 119.567028 
L 179.45121 119.107456 
L 181.007363 120.132654 
L 182.322736 121.876657 
L 183.245726 123.526374 
L 183.968067 126.837548 
L 180.998445 139.527861 
L 180.249351 144.547177 
L 180.61498 152.346854 
L 180.249351 154.667836 
L 179.357573 156.800283 
L 178.233932 157.872387 
L 176.784793 158.72064 
L 175.451584 159.733825 
L 174.247683 160.122604 
L 173.623439 160.59385 
L 172.838674 160.876597 
L 172.134169 160.652755 
L 167.630688 157.71923 
L 166.703239 157.330445 
L 165.588516 157.530729 
L 164.598642 158.555702 
L 163.367988 161.618804 
L 162.400409 162.690876 
L 160.594558 162.820467 
L 158.721823 162.113608 
L 156.88476 161.807301 
L 155.217134 163.10321 
L 152.38128 162.961839 
L 149.509753 161.182905 
L 144.823458 156.105179 
L 144.328521 155.209787 
L 143.882632 153.607493 
L 143.472414 152.983066 
L 143.178127 153.124446 
L 140.449286 152.264382 
L 140.03015 151.981621 
L 138.643435 152.52358 
L 137.800704 153.560367 
L 137.443362 154.180518 
L 137.047152 154.868123 
L 135.936888 156.222994 
L 134.697316 157.059474 
L 133.074279 157.754574 
L 131.424489 158.202264 
L 130.033315 158.284733 
L 128.963181 157.966638 
L 126.270011 156.234775 
L 125.26676 156.105179 
L 124.959097 156.870972 
L 124.914508 157.943075 
L 124.736152 158.744203 
L 120.839081 165.200204 
L 119.367647 166.543207 
L 117.441406 166.625672 
L 115.461658 165.61253 
L 113.660266 164.033901 
L 112.242338 162.396352 
L 109.567003 158.214045 
L 108.514705 157.141944 
L 107.52929 156.682469 
L 106.699936 156.647125 
L 105.973137 156.741376 
L 105.304303 156.611781 
L 103.784486 154.885098 
L 103.63447 154.714662 
L 103.043645 154.043413 
L 102.352517 153.525022 
L 101.469656 153.560367 
L 101.219958 154.196573 
L 101.228876 155.256913 
L 100.667056 161.088656 
L 101.286842 169.853545 
L 99.418566 178.464806 
L 99.056593 190.152261 
L 99.017266 191.421999 
L 98.553541 193.930851 
L 97.733105 196.416102 
L 96.680807 198.771751 
L 95.530413 200.832911 
L 93.764692 203.200263 
L 92.141655 204.460479 
L 90.398229 204.896252 
L 88.253502 204.813809 
L 86.327261 204.04826 
L 85.337387 204.060038 
L 84.695306 205.120027 
L 84.409937 207.510861 
L 84.035391 208.570824 
L 83.197119 209.242129 
L 81.266419 209.560115 
L 79.638923 209.230352 
L 76.049714 207.665928 
L 75.126525 207.263536 
L 74.511198 207.216426 
L 71.942877 208.441273 
L 71.300796 208.959475 
L 70.614127 209.312793 
L 69.722349 209.265684 
L 67.831779 209.595447 
L 66.21766 210.949821 
L 64.576788 211.68 
L 62.570287 210.184307 
L 59.447472 209.416313 
L 57.781437 209.006584 
L 56.234202 209.242129 
L 52.511028 211.373796 
L 50.388595 211.632892 
L 49.626125 209.465897 
L 49.52357 208.040844 
L 48.72097 205.673574 
L 48.524779 204.35448 
L 48.819065 203.16493 
L 50.014048 201.233361 
L 50.201322 199.937782 
L 49.675173 198.52441 
L 47.802438 196.204092 
L 47.78226 196.098992 
L 47.485857 194.555113 
L 47.597329 193.212358 
L 47.534905 192.68232 
L 46.482606 191.645796 
L 44.904159 190.456139 
L 43.080472 189.878975 
L 39.437558 189.278252 
L 37.511317 188.500841 
L 32.272119 185.48539 
L 30.867568 185.214467 
L 25.846856 185.650299 
L 23.889403 188.182808 
z
" clip-path="url(#p3c5318c321)" style="stroke: #000000; stroke-linejoin: miter"/>
   </g>
   <g id="line2d_1">
    <path d="M 22.404592 199.58444 
L 21.089219 197.641044 
L 19.319039 196.486772 
L 16.7418 196.121644 
L 15.591406 195.520946 
L 12.372086 192.741213 
L 11.703253 191.834255 
L 12.282908 183.129526 
L 11.703253 180.479134 
L 10.815933 179.289388 
L 9.848354 178.676841 
L 9.081424 177.981834 
L 8.760384 176.52113 
L 9.072507 175.025071 
L 10.570694 173.258055 
L 10.267489 171.867987 
L 9.393547 169.806424 
L 9.072507 167.544563 
L 8.89861 165.105957 
L 9.545149 162.113608 
L 10.757967 160.735223 
L 13.076591 159.674919 
L 14.877983 158.979828 
L 16.371712 157.813481 
L 17.597907 156.164087 
L 18.596699 154.102321 
L 19.247697 152.405763 
L 19.541984 151.18046 
L 19.644538 150.190786 
L 20.531858 149.095069 
L 21.263116 148.753392 
L 23.746718 148.85943 
L 27.585824 147.516281 
L 30.555446 144.417572 
L 32.713549 139.9756 
L 34.069052 134.579099 
L 34.568448 129.818732 
L 34.390092 125.718118 
L 32.098222 107.818134 
L 31.910949 103.646343 
L 32.339002 99.568747 
L 33.962039 94.548246 
L 39.392969 83.069009 
L 41.212196 78.507793 
L 42.255577 76.492343 
L 46.420182 71.930999 
L 47.294124 70.434104 
L 49.657337 63.998533 
L 50.656129 62.301212 
L 52.011632 61.546843 
L 58.820359 61.12251 
L 59.190447 60.709963 
L 61.143442 56.643393 
L 64.113063 52.553185 
L 67.555327 49.276259 
L 70.944085 47.684932 
L 74.413103 47.932472 
L 76.223413 47.755658 
L 77.828614 47.178063 
L 79.607711 45.857841 
L 80.94092 44.584765 
L 82.385601 43.59459 
L 84.48128 43.099501 
L 85.506825 43.405985 
L 87.343888 44.879459 
L 87.941379 45.162365 
L 88.654802 44.60834 
L 89.172034 42.356867 
L 89.95234 41.130926 
L 90.750481 40.470802 
L 91.499575 40.176103 
L 92.275422 40.329346 
L 93.220707 40.965895 
L 95.646344 45.622087 
L 96.029809 48.014986 
L 96.234918 52.706422 
L 97.073189 55.122833 
L 98.553541 56.949862 
L 100.239002 57.586372 
L 102.053771 57.327053 
L 103.9488 56.395861 
L 109.807783 52.105263 
L 110.699562 51.857726 
L 111.484327 49.37056 
L 112.607967 47.838171 
L 115.604342 45.716389 
L 119.126867 43.901073 
L 120.063234 42.745866 
L 120.509123 41.013047 
L 121.035272 36.592543 
L 121.650599 35.03651 
L 122.328351 34.506042 
L 124.339311 34.034514 
L 125.672519 32.985363 
L 129.511625 28.163935 
L 130.639725 26.254205 
L 131.567174 24.191212 
L 131.732153 23.436743 
L 131.923885 21.798124 
L 132.173583 21.114381 
L 132.779992 20.454215 
L 134.224673 19.593638 
L 134.750823 19.01599 
L 135.196712 17.283039 
L 135.754073 12.567482 
L 136.480872 10.9406 
L 137.800704 10.315781 
L 139.22755 10.598718 
L 140.698984 11.164591 
L 142.152582 11.412161 
L 143.508085 10.964178 
L 144.640644 10.292203 
L 145.813332 10.08 
L 148.07156 11.008798 
L 147.387321 11.954455 
L 146.722946 13.204086 
L 146.450954 14.489079 
L 146.736323 15.715123 
L 147.99373 16.858641 
L 148.279099 18.414763 
L 148.096285 19.086722 
L 147.538923 20.418848 
L 147.681608 21.102592 
L 148.439619 21.774547 
L 149.126289 21.633083 
L 150.04482 21.102592 
L 151.106036 22.116417 
L 151.471666 22.823735 
L 151.810541 25.770876 
L 152.336691 27.433052 
L 153.90622 30.875261 
L 154.414534 33.197551 
L 155.217134 34.576771 
L 155.391031 35.508036 
L 155.110121 36.356781 
L 154.905012 37.028702 
L 154.815834 37.877443 
L 155.279559 39.704584 
L 156.394282 40.812652 
L 158.93585 42.203624 
L 159.845464 43.05235 
L 161.138542 44.679067 
L 161.932225 45.315605 
L 167.630688 48.109287 
L 169.325067 48.427552 
L 171.00161 49.771337 
L 171.492088 52.753572 
L 171.331568 55.723986 
L 171.064035 57.067734 
L 170.604769 57.727818 
L 171.117542 59.213001 
L 172.544387 61.735436 
L 173.614521 63.24417 
L 173.997986 64.116402 
L 174.836257 68.218212 
L 175.665611 70.787702 
L 177.016655 72.190302 
L 179.067745 71.153086 
L 179.696449 73.569321 
L 179.625107 76.504129 
L 178.510384 85.496905 
L 178.48363 86.722629 
L 178.679822 87.311917 
L 179.446751 88.86763 
L 179.660778 89.916552 
L 178.670904 93.051501 
L 178.974108 94.253612 
L 179.660778 98.826286 
L 179.188135 100.759036 
L 178.309734 102.467855 
L 177.823714 104.223799 
L 178.48363 106.262561 
L 177.083538 107.712072 
L 176.557389 108.454501 
L 176.129336 109.373694 
L 178.715493 109.915781 
L 178.974108 112.932584 
L 177.837091 119.567028 
L 179.45121 119.107456 
L 181.007363 120.132654 
L 182.322736 121.876657 
L 183.245726 123.526374 
L 183.968067 126.837548 
L 180.998445 139.527861 
L 180.249351 144.547177 
L 180.61498 152.346854 
L 180.249351 154.667836 
L 179.357573 156.800283 
L 178.233932 157.872387 
L 176.784793 158.72064 
L 175.451584 159.733825 
L 174.247683 160.122604 
L 173.623439 160.59385 
L 172.838674 160.876597 
L 172.134169 160.652755 
L 167.630688 157.71923 
L 166.703239 157.330445 
L 165.588516 157.530729 
L 164.598642 158.555702 
L 163.367988 161.618804 
L 162.400409 162.690876 
L 160.594558 162.820467 
L 158.721823 162.113608 
L 156.88476 161.807301 
L 155.217134 163.10321 
L 152.38128 162.961839 
L 149.509753 161.182905 
L 144.823458 156.105179 
L 144.328521 155.209787 
L 143.882632 153.607493 
L 143.472414 152.983066 
L 143.178127 153.124446 
L 140.449286 152.264382 
L 140.03015 151.981621 
L 138.643435 152.52358 
L 137.800704 153.560367 
L 137.047152 154.868123 
L 135.936888 156.222994 
L 134.697316 157.059474 
L 133.074279 157.754574 
L 131.424489 158.202264 
L 130.033315 158.284733 
L 128.963181 157.966638 
L 126.270011 156.234775 
L 125.26676 156.105179 
L 124.959097 156.870972 
L 124.914508 157.943075 
L 124.736152 158.744203 
L 120.839081 165.200204 
L 119.367647 166.543207 
L 117.441406 166.625672 
L 115.461658 165.61253 
L 113.660266 164.033901 
L 112.242338 162.396352 
L 109.567003 158.214045 
L 108.514705 157.141944 
L 107.52929 156.682469 
L 106.699936 156.647125 
L 105.973137 156.741376 
L 105.304303 156.611781 
L 103.043645 154.043413 
L 102.352517 153.525022 
L 101.469656 153.560367 
L 101.219958 154.196573 
L 101.228876 155.256913 
L 100.667056 161.088656 
L 101.286842 169.853545 
L 99.418566 178.464806 
L 99.017266 191.421999 
L 98.553541 193.930851 
L 97.733105 196.416102 
L 96.680807 198.771751 
L 95.530413 200.832911 
L 93.764692 203.200263 
L 92.141655 204.460479 
L 90.398229 204.896252 
L 88.253502 204.813809 
L 86.327261 204.04826 
L 85.337387 204.060038 
L 84.695306 205.120027 
L 84.409937 207.510861 
L 84.035391 208.570824 
L 83.197119 209.242129 
L 81.266419 209.560115 
L 79.638923 209.230352 
L 75.126525 207.263536 
L 74.511198 207.216426 
L 71.942877 208.441273 
L 71.300796 208.959475 
L 70.614127 209.312793 
L 69.722349 209.265684 
L 67.831779 209.595447 
L 66.21766 210.949821 
L 64.576788 211.68 
L 62.570287 210.184307 
L 57.781437 209.006584 
L 56.234202 209.242129 
L 52.511028 211.373796 
L 50.388595 211.632892 
L 49.626125 209.465897 
L 49.52357 208.040844 
L 48.72097 205.673574 
L 48.524779 204.35448 
L 48.819065 203.16493 
L 50.014048 201.233361 
L 50.201322 199.937782 
L 49.675173 198.52441 
L 47.78226 196.098992 
L 47.485857 194.555113 
L 47.534905 192.68232 
L 46.482606 191.645796 
L 44.904159 190.456139 
L 43.080472 189.878975 
L 39.437558 189.278252 
L 37.511317 188.500841 
L 32.272119 185.48539 
L 30.867568 185.214467 
L 25.846856 185.650299 
L 23.889403 188.182808 
L 22.404592 199.58444 
L 22.404592 199.58444 
" clip-path="url(#p3c5318c321)" style="fill: none; stroke: #000000; stroke-width: 0.5; stroke-linecap: square"/>
   </g>
  </g>
 </g>
 <defs>
  <clipPath id="p3c5318c321">
   <rect x="0" y="-0" width="192.728451" height="221.76"/>
  </clipPath>
 </defs>
</svg>
