<?xml version="1.0" encoding="utf-8" standalone="no"?>
<!DOCTYPE svg PUBLIC "-//W3C//DTD SVG 1.1//EN"
  "http://www.w3.org/Graphics/SVG/1.1/DTD/svg11.dtd">
<svg xmlns:xlink="http://www.w3.org/1999/xlink" width="223.2pt" height="183.158913pt" viewBox="0 0 223.2 183.158913" xmlns="http://www.w3.org/2000/svg" version="1.1">
 <metadata>
  <rdf:RDF xmlns:dc="http://purl.org/dc/elements/1.1/" xmlns:cc="http://creativecommons.org/ns#" xmlns:rdf="http://www.w3.org/1999/02/22-rdf-syntax-ns#">
   <cc:Work>
    <dc:type rdf:resource="http://purl.org/dc/dcmitype/StillImage"/>
    <dc:date>2026-04-26T19:21:52.775217</dc:date>
    <dc:format>image/svg+xml</dc:format>
    <dc:creator>
     <cc:Agent>
      <dc:title>Matplotlib v3.10.9, https://matplotlib.org/</dc:title>
     </cc:Agent>
    </dc:creator>
   </cc:Work>
  </rdf:RDF>
 </metadata>
 <defs>
  <style type="text/css">*{stroke-linejoin: round; stroke-linecap: butt}</style>
 </defs>
 <g id="figure_1">
  <g id="patch_1">
   <path d="M 0 183.158913 
L 223.2 183.158913 
L 223.2 0 
L 0 0 
z
" style="fill: #ffffff"/>
  </g>
  <g id="axes_1">
   <g id="patch_2">
    <path d="M 202.861996 174.833508 
L 101.014767 127.694792 
L 69.532002 120.92357 
L 69.532002 111.837986 
L 57.157277 114.815588 
L 34.470282 124.435711 
L 28.768202 125.886388 
L 14.573666 116.113525 
L 10.145455 105.577472 
L 14.937627 98.324584 
L 59.462373 97.408441 
L 85.788993 89.621324 
L 104.108438 72.444497 
L 111.145047 41.986405 
L 123.398451 31.07102 
L 151.362902 18.247799 
L 182.239054 8.783354 
L 202.742276 8.325405 
L 202.317652 48.856412 
L 212.508602 104.737657 
L 213.054545 160.857231 
z
" clip-path="url(#p9f1f11c441)" style="stroke: #000000; stroke-linejoin: miter"/>
   </g>
   <g id="line2d_1">
    <path d="M 202.861996 174.833508 
L 101.014767 127.694792 
L 69.532002 120.92357 
L 69.532002 111.837986 
L 57.157277 114.815588 
L 34.470282 124.435711 
L 28.768202 125.886388 
L 14.573666 116.113525 
L 10.145455 105.577472 
L 14.937627 98.324584 
L 59.462373 97.408441 
L 85.788993 89.621324 
L 104.108438 72.444497 
L 111.145047 41.986405 
L 123.398451 31.07102 
L 151.362902 18.247799 
L 182.239054 8.783354 
L 202.742276 8.325405 
L 202.317652 48.856412 
L 212.508602 104.737657 
L 213.054545 160.857231 
L 202.861996 174.833508 
" clip-path="url(#p9f1f11c441)" style="fill: none; stroke: #000000; stroke-width: 0.5; stroke-linecap: square"/>
   </g>
  </g>
 </g>
 <defs>
  <clipPath id="p9f1f11c441">
   <rect x="0" y="0" width="223.2" height="183.158913"/>
  </clipPath>
 </defs>
</svg>
