<?xml version="1.0" encoding="utf-8" standalone="no"?>
<!DOCTYPE svg PUBLIC "-//W3C//DTD SVG 1.1//EN"
  "http://www.w3.org/Graphics/SVG/1.1/DTD/svg11.dtd">
<svg xmlns:xlink="http://www.w3.org/1999/xlink" width="85.002382pt" height="221.76pt" viewBox="0 0 85.002382 221.76" xmlns="http://www.w3.org/2000/svg" version="1.1">
 <metadata>
  <rdf:RDF xmlns:dc="http://purl.org/dc/elements/1.1/" xmlns:cc="http://creativecommons.org/ns#" xmlns:rdf="http://www.w3.org/1999/02/22-rdf-syntax-ns#">
   <cc:Work>
    <dc:type rdf:resource="http://purl.org/dc/dcmitype/StillImage"/>
    <dc:date>2026-04-26T19:22:18.933028</dc:date>
    <dc:format>image/svg+xml</dc:format>
    <dc:creator>
     <cc:Agent>
      <dc:title>Matplotlib v3.10.9, https://matplotlib.org/</dc:title>
     </cc:Agent>
    </dc:creator>
   </cc:Work>
  </rdf:RDF>
 </metadata>
 <defs>
  <style type="text/css">*{stroke-linejoin: round; stroke-linecap: butt}</style>
 </defs>
 <g id="figure_1">
  <g id="patch_1">
   <path d="M 0 221.76 
L 85.002382 221.76 
L 85.002382 0 
L 0 0 
z
" style="fill: #ffffff"/>
  </g>
  <g id="axes_1">
   <g id="patch_2">
    <path d="M 79.627227 61.71783 
L 81.138637 76.664363 
L 81.10648 89.960912 
L 76.347144 129.074509 
L 77.488741 151.486902 
L 72.584696 176.341618 
L 71.523493 179.854332 
L 70.333658 180.474233 
L 65.381377 182.209974 
L 63.693099 183.615115 
L 61.860111 188.491907 
L 58.290609 207.897684 
L 55.830547 210.853254 
L 54.608556 211.68 
L 52.646937 211.68 
L 45.411461 199.320735 
L 15.858557 184.937615 
L 9.234076 174.977886 
L 7.979927 172.312453 
L 5.568101 168.98591 
L 4.024533 165.142937 
L 6.774014 157.188781 
L 7.208143 152.044683 
L 6.774014 142.046338 
L 6.14694 138.782593 
L 5.021421 136.221236 
L 4.024533 132.99896 
L 3.863745 127.835235 
L 4.89279 122.465196 
L 8.462292 113.006246 
L 9.234076 108.793328 
L 11.388641 101.730826 
L 20.842997 84.633857 
L 24.380341 73.23723 
L 33.995486 55.091581 
L 36.053577 53.048046 
L 39.912498 50.323386 
L 41.874116 47.887759 
L 42.806689 44.750414 
L 44.350257 35.792922 
L 45.925983 32.28441 
L 55.589365 14.949757 
L 61.1848 10.08 
L 68.822248 13.216431 
L 67.053576 21.96586 
L 69.690505 26.505912 
L 73.999633 29.601501 
L 77.183243 34.018015 
L 78.276604 40.333501 
z
" clip-path="url(#pe022076270)" style="stroke: #000000; stroke-linejoin: miter"/>
   </g>
   <g id="line2d_1">
    <path d="M 79.627227 61.71783 
L 81.138637 76.664363 
L 81.10648 89.960912 
L 76.347144 129.074509 
L 77.488741 151.486902 
L 72.584696 176.341618 
L 71.523493 179.854332 
L 70.333658 180.474233 
L 65.381377 182.209974 
L 63.693099 183.615115 
L 61.860111 188.491907 
L 58.290609 207.897684 
L 55.830547 210.853254 
L 54.608556 211.68 
L 52.646937 211.68 
L 45.411461 199.320735 
L 15.858557 184.937615 
L 9.234076 174.977886 
L 7.979927 172.312453 
L 5.568101 168.98591 
L 4.024533 165.142937 
L 6.774014 157.188781 
L 7.208143 152.044683 
L 6.774014 142.046338 
L 6.14694 138.782593 
L 5.021421 136.221236 
L 4.024533 132.99896 
L 3.863745 127.835235 
L 4.89279 122.465196 
L 8.462292 113.006246 
L 9.234076 108.793328 
L 11.388641 101.730826 
L 20.842997 84.633857 
L 24.380341 73.23723 
L 33.995486 55.091581 
L 36.053577 53.048046 
L 39.912498 50.323386 
L 41.874116 47.887759 
L 42.806689 44.750414 
L 44.350257 35.792922 
L 45.925983 32.28441 
L 55.589365 14.949757 
L 61.1848 10.08 
L 68.822248 13.216431 
L 67.053576 21.96586 
L 69.690505 26.505912 
L 73.999633 29.601501 
L 77.183243 34.018015 
L 78.276604 40.333501 
L 79.627227 61.71783 
" clip-path="url(#pe022076270)" style="fill: none; stroke: #000000; stroke-width: 0.5; stroke-linecap: square"/>
   </g>
  </g>
 </g>
 <defs>
  <clipPath id="pe022076270">
   <rect x="0" y="-0" width="85.002382" height="221.76"/>
  </clipPath>
 </defs>
</svg>
