<?xml version="1.0" encoding="utf-8" standalone="no"?>
<!DOCTYPE svg PUBLIC "-//W3C//DTD SVG 1.1//EN"
  "http://www.w3.org/Graphics/SVG/1.1/DTD/svg11.dtd">
<svg xmlns:xlink="http://www.w3.org/1999/xlink" width="109.025906pt" height="221.76pt" viewBox="0 0 109.025906 221.76" xmlns="http://www.w3.org/2000/svg" version="1.1">
 <metadata>
  <rdf:RDF xmlns:dc="http://purl.org/dc/elements/1.1/" xmlns:cc="http://creativecommons.org/ns#" xmlns:rdf="http://www.w3.org/1999/02/22-rdf-syntax-ns#">
   <cc:Work>
    <dc:type rdf:resource="http://purl.org/dc/dcmitype/StillImage"/>
    <dc:date>2026-04-26T19:22:17.326113</dc:date>
    <dc:format>image/svg+xml</dc:format>
    <dc:creator>
     <cc:Agent>
      <dc:title>Matplotlib v3.10.9, https://matplotlib.org/</dc:title>
     </cc:Agent>
    </dc:creator>
   </cc:Work>
  </rdf:RDF>
 </metadata>
 <defs>
  <style type="text/css">*{stroke-linejoin: round; stroke-linecap: butt}</style>
 </defs>
 <g id="figure_1">
  <g id="patch_1">
   <path d="M 0 221.76 
L 109.025906 221.76 
L 109.025906 0 
L 0 0 
z
" style="fill: #ffffff"/>
  </g>
  <g id="axes_1">
   <g id="patch_2">
    <path d="M 80.512035 147.391163 
L 104.070183 160.51614 
L 95.608277 177.181163 
L 70.973614 193.148003 
L 35.924297 210.081972 
L 28.388694 211.68 
L 20.903162 208.62099 
L 16.446891 201.431239 
L 18.199358 196.981287 
L 18.174322 193.05674 
L 8.335478 187.398978 
L 5.105934 180.487894 
L 15.2452 172.005139 
L 38.077327 158.533359 
L 46.989867 136.480781 
L 41.757505 114.489717 
L 12.090762 69.010255 
L 10.138014 59.968004 
L 8.335478 39.871209 
L 4.955723 30.860394 
L 5.381321 25.505118 
L 10.438437 18.92579 
L 16.747314 13.980898 
L 23.606966 10.669638 
L 30.767041 10.08 
L 38.077327 13.209751 
L 26.661264 18.608204 
L 20.277281 24.075694 
L 20.602739 29.793801 
L 29.314998 36.057739 
L 39.579441 39.190197 
L 61.435193 42.481899 
L 93.104754 58.923095 
L 94.106163 64.397914 
L 93.730635 72.032516 
L 91.452429 78.850757 
L 83.240875 84.192788 
L 80.512035 89.422074 
L 76.481364 94.675005 
L 69.396395 97.063003 
L 65.866428 95.880352 
L 64.214103 93.242297 
L 63.162624 90.604472 
L 61.209876 89.422074 
L 56.903817 89.83136 
L 46.113635 93.242297 
L 37.576622 91.195689 
L 33.49588 91.923356 
L 33.520916 97.063003 
L 36.22472 100.133563 
L 39.954969 100.611233 
L 43.560041 100.338278 
L 48.441911 102.067038 
L 52.046983 102.112533 
L 55.952479 102.521991 
L 59.106917 104.705863 
L 60.233502 108.482511 
L 58.430966 111.190157 
L 55.852337 113.124339 
L 54.525471 114.740043 
L 54.525471 137.687791 
L 57.154169 144.771403 
L 63.663328 146.912755 
z
" clip-path="url(#p3c2d6bb3a6)" style="stroke: #000000; stroke-linejoin: miter"/>
   </g>
   <g id="line2d_1">
    <path d="M 80.512035 147.391163 
L 104.070183 160.51614 
L 95.608277 177.181163 
L 70.973614 193.148003 
L 35.924297 210.081972 
L 28.388694 211.68 
L 20.903162 208.62099 
L 16.446891 201.431239 
L 18.199358 196.981287 
L 18.174322 193.05674 
L 8.335478 187.398978 
L 5.105934 180.487894 
L 15.2452 172.005139 
L 38.077327 158.533359 
L 46.989867 136.480781 
L 41.757505 114.489717 
L 12.090762 69.010255 
L 10.138014 59.968004 
L 8.335478 39.871209 
L 4.955723 30.860394 
L 5.381321 25.505118 
L 10.438437 18.92579 
L 16.747314 13.980898 
L 23.606966 10.669638 
L 30.767041 10.08 
L 38.077327 13.209751 
L 26.661264 18.608204 
L 20.277281 24.075694 
L 20.602739 29.793801 
L 29.314998 36.057739 
L 39.579441 39.190197 
L 61.435193 42.481899 
L 93.104754 58.923095 
L 94.106163 64.397914 
L 93.730635 72.032516 
L 91.452429 78.850757 
L 83.240875 84.192788 
L 80.512035 89.422074 
L 76.481364 94.675005 
L 69.396395 97.063003 
L 65.866428 95.880352 
L 64.214103 93.242297 
L 63.162624 90.604472 
L 61.209876 89.422074 
L 56.903817 89.83136 
L 46.113635 93.242297 
L 37.576622 91.195689 
L 33.49588 91.923356 
L 33.520916 97.063003 
L 36.22472 100.133563 
L 39.954969 100.611233 
L 43.560041 100.338278 
L 48.441911 102.067038 
L 52.046983 102.112533 
L 55.952479 102.521991 
L 59.106917 104.705863 
L 60.233502 108.482511 
L 58.430966 111.190157 
L 55.852337 113.124339 
L 54.525471 114.740043 
L 54.525471 137.687791 
L 57.154169 144.771403 
L 63.663328 146.912755 
L 80.512035 147.391163 
" clip-path="url(#p3c2d6bb3a6)" style="fill: none; stroke: #000000; stroke-width: 0.5; stroke-linecap: square"/>
   </g>
  </g>
 </g>
 <defs>
  <clipPath id="p3c2d6bb3a6">
   <rect x="0" y="-0" width="109.025906" height="221.76"/>
  </clipPath>
 </defs>
</svg>
