<?xml version="1.0" encoding="utf-8" standalone="no"?>
<!DOCTYPE svg PUBLIC "-//W3C//DTD SVG 1.1//EN"
  "http://www.w3.org/Graphics/SVG/1.1/DTD/svg11.dtd">
<svg xmlns:xlink="http://www.w3.org/1999/xlink" width="223.2pt" height="201.021209pt" viewBox="0 0 223.2 201.021209" xmlns="http://www.w3.org/2000/svg" version="1.1">
 <metadata>
  <rdf:RDF xmlns:dc="http://purl.org/dc/elements/1.1/" xmlns:cc="http://creativecommons.org/ns#" xmlns:rdf="http://www.w3.org/1999/02/22-rdf-syntax-ns#">
   <cc:Work>
    <dc:type rdf:resource="http://purl.org/dc/dcmitype/StillImage"/>
    <dc:date>2026-04-26T19:22:03.672988</dc:date>
    <dc:format>image/svg+xml</dc:format>
    <dc:creator>
     <cc:Agent>
      <dc:title>Matplotlib v3.10.9, https://matplotlib.org/</dc:title>
     </cc:Agent>
    </dc:creator>
   </cc:Work>
  </rdf:RDF>
 </metadata>
 <defs>
  <style type="text/css">*{stroke-linejoin: round; stroke-linecap: butt}</style>
 </defs>
 <g id="figure_1">
  <g id="patch_1">
   <path d="M 0 201.021209 
L 223.2 201.021209 
L 223.2 0 
L 0 0 
z
" style="fill: #ffffff"/>
  </g>
  <g id="axes_1">
   <g id="patch_2">
    <path d="M 166.531979 91.926326 
L 167.236466 93.205034 
L 167.69492 93.776003 
L 168.179259 94.002172 
L 168.757181 94.09337 
L 169.302249 94.08977 
L 169.803015 93.902881 
L 170.456174 93.327505 
L 170.478936 93.422533 
L 170.972012 93.343201 
L 171.062161 93.408367 
L 171.141335 93.530205 
L 171.225997 93.597268 
L 171.334175 93.50187 
L 171.344366 93.591601 
L 171.333392 93.696451 
L 171.295764 93.782887 
L 171.233052 93.818313 
L 171.178962 93.876887 
L 171.197776 94.001126 
L 171.242459 94.114037 
L 171.268327 94.135769 
L 171.239323 94.534102 
L 171.295764 94.589395 
L 171.465871 94.525123 
L 171.596783 94.416434 
L 171.860959 93.904757 
L 171.996574 93.754075 
L 172.119647 93.6615 
L 172.195686 93.530678 
L 172.190199 93.263873 
L 172.332085 93.34509 
L 172.509248 93.362089 
L 172.65819 93.398922 
L 172.721686 93.54154 
L 172.76872 93.695034 
L 172.886306 93.716288 
L 173.036031 93.718178 
L 173.182621 93.818313 
L 173.182621 93.904757 
L 173.026624 93.984591 
L 172.827513 94.051675 
L 172.656622 94.152778 
L 172.584503 94.337994 
L 172.546875 94.338466 
L 172.327382 94.604518 
L 172.281916 94.698569 
L 172.233313 94.851711 
L 172.190199 94.92876 
L 171.621084 95.393502 
L 171.531719 95.531109 
L 171.50585 95.586911 
L 171.381994 95.777981 
L 171.334175 95.881093 
L 171.314578 95.995092 
L 171.294196 96.252922 
L 171.268327 96.36411 
L 171.263624 96.430827 
L 171.272247 96.508904 
L 171.269111 96.574681 
L 171.233052 96.602601 
L 171.129576 96.596449 
L 171.08411 96.606861 
L 171.06608 96.642354 
L 171.059025 96.892722 
L 171.068432 97.023365 
L 171.101356 97.079223 
L 171.705746 97.139344 
L 171.926023 97.079223 
L 172.044393 96.997804 
L 172.125135 96.921121 
L 172.2145 96.863376 
L 172.359522 96.840657 
L 172.996836 96.98739 
L 173.169295 97.133663 
L 173.450717 97.483073 
L 173.86697 97.623712 
L 173.926617 98.071251 
L 173.92363 98.371475 
L 173.903719 99.11808 
L 173.955488 99.420919 
L 174.099844 99.69491 
L 174.648397 100.48434 
L 175.150158 101.207563 
L 175.652915 101.931427 
L 176.154676 102.655932 
L 176.657433 103.379569 
L 177.16019 104.104147 
L 177.662947 104.828457 
L 178.164709 105.554311 
L 178.667465 106.279896 
L 179.169227 107.00521 
L 179.671984 107.731764 
L 180.173745 108.458954 
L 180.676502 109.18587 
L 181.177766 109.912511 
L 181.680523 110.640391 
L 182.182782 111.3686 
L 182.685539 112.097137 
L 183.202233 112.844221 
L 183.394874 113.03431 
L 183.631817 113.122074 
L 185.17991 113.354414 
L 186.518936 113.555498 
L 187.857962 113.756607 
L 189.197983 113.957437 
L 190.537009 114.158292 
L 191.876035 114.359475 
L 193.216056 114.560683 
L 194.555082 114.761611 
L 195.894108 114.962869 
L 197.235125 115.164454 
L 198.574151 115.366065 
L 199.913176 115.566788 
L 201.253198 115.768144 
L 202.591228 115.970132 
L 203.930254 116.170929 
L 205.270275 116.37175 
L 206.610297 116.573812 
L 207.92742 116.771638 
L 208.072772 116.742419 
L 208.712916 115.798562 
L 209.325184 116.953659 
L 210.102715 118.425777 
L 210.882237 119.899193 
L 211.659768 121.3739 
L 212.438295 122.84928 
L 212.950012 123.820944 
L 213.049568 124.079536 
L 213.054545 124.351007 
L 212.69435 125.68755 
L 212.646367 125.865675 
L 212.582651 126.10009 
L 212.404446 126.761274 
L 212.126685 127.789669 
L 211.766293 129.123993 
L 211.340194 130.704178 
L 210.864317 132.469441 
L 210.356583 134.359434 
L 210.232757 134.819429 
L 209.830928 136.312968 
L 209.305273 138.268597 
L 208.796543 140.163997 
L 208.321661 141.938447 
L 207.894567 143.530091 
L 207.534175 144.876915 
L 207.25741 145.914964 
L 207.078209 146.583374 
L 207.014494 146.819849 
L 206.704875 147.977263 
L 205.255342 148.578537 
L 203.606698 149.263058 
L 201.958053 149.946889 
L 200.3114 150.63096 
L 198.662755 151.315891 
L 197.013115 152.00075 
L 195.364471 152.686157 
L 193.716822 153.372111 
L 192.068177 154.057371 
L 190.420528 154.743488 
L 188.770888 155.429529 
L 187.12324 156.116116 
L 185.474595 156.803248 
L 183.824955 157.48968 
L 182.177804 158.176966 
L 180.530155 158.864485 
L 178.88151 159.552234 
L 177.809294 159.998398 
L 176.288081 160.254862 
L 174.744966 160.514786 
L 173.201851 160.775054 
L 171.658735 161.035043 
L 170.11562 161.295065 
L 168.5735 161.555432 
L 167.031381 161.815519 
L 165.486772 162.075016 
L 163.94515 162.336104 
L 162.402035 162.596289 
L 160.858919 162.855883 
L 159.315804 163.116757 
L 157.772689 163.377039 
L 156.230569 163.637354 
L 154.687454 163.897701 
L 153.144338 164.158081 
L 151.601223 164.418492 
L 150.358269 164.628969 
L 149.462764 165.02031 
L 149.033678 165.284265 
L 147.648857 166.132891 
L 145.99623 167.145374 
L 144.150465 168.278461 
L 142.495847 169.293524 
L 141.261355 170.05263 
L 141.044821 170.234542 
L 140.297655 171.362046 
L 139.423057 172.675696 
L 137.90035 174.974587 
L 136.462764 177.143931 
L 135.525944 178.559055 
L 135.36317 178.935606 
L 134.907702 180.453759 
L 134.263576 182.60567 
L 133.980454 183.066194 
L 133.970882 183.081765 
L 132.872781 183.860982 
L 131.691054 184.702223 
L 131.406324 184.842145 
L 131.092723 184.89572 
L 129.823574 184.829069 
L 129.688488 184.821975 
L 129.566532 184.727434 
L 128.752166 183.353233 
L 128.039346 182.14793 
L 127.417122 181.096794 
L 127.059717 180.845725 
L 124.919266 181.203774 
L 123.327369 181.470616 
L 120.989798 181.179231 
L 119.167926 180.952064 
L 116.774106 180.654452 
L 114.732714 180.399657 
L 114.292677 180.223519 
L 112.726664 179.117304 
L 112.180103 178.983387 
L 110.561325 178.969556 
L 110.321769 178.967553 
L 109.132699 178.957611 
L 107.181405 178.941893 
L 106.971342 178.997847 
L 106.367536 179.274493 
L 106.096246 179.293986 
L 105.435196 179.128621 
L 104.847318 179.100957 
L 103.914978 179.21979 
L 103.175278 179.427921 
L 102.992096 179.443013 
L 102.585908 179.300274 
L 102.389783 179.270092 
L 102.247916 179.393336 
L 102.107044 179.694557 
L 101.960697 179.913423 
L 101.776519 180.017203 
L 101.526136 179.973174 
L 101.156286 179.742353 
L 100.992019 179.720342 
L 100.783947 179.854302 
L 100.6376 180.064377 
L 100.514151 180.30215 
L 100.363822 180.482698 
L 100.136835 180.523591 
L 100.022843 180.493393 
L 99.965599 180.456276 
L 99.933741 180.39777 
L 99.895412 180.300263 
L 99.920301 180.058087 
L 99.920301 179.924744 
L 99.863056 179.892667 
L 99.637064 179.974432 
L 99.468815 179.983867 
L 99.087516 179.942355 
L 98.727124 179.992044 
L 98.552404 179.990157 
L 98.359763 179.907762 
L 97.96154 179.52539 
L 97.289538 178.613113 
L 96.880364 178.319578 
L 96.17053 177.948784 
L 96.014228 177.899768 
L 95.686689 177.884058 
L 95.511471 177.834416 
L 95.298919 177.869605 
L 95.088359 177.967008 
L 94.241139 178.610599 
L 93.401883 179.484515 
L 92.938948 180.174454 
L 92.911571 180.230438 
L 93.462114 180.450614 
L 93.65127 180.62614 
L 93.750826 180.887253 
L 93.716479 181.131404 
L 93.500443 181.261041 
L 93.280425 181.321457 
L 93.025562 181.452993 
L 92.825953 181.645591 
L 92.767215 181.886046 
L 92.776175 182.167447 
L 92.721419 182.414882 
L 92.519321 182.897235 
L 92.462574 183.149787 
L 92.501401 183.346304 
L 92.577063 183.549138 
L 92.631819 183.818141 
L 92.630823 184.084024 
L 92.58901 184.317799 
L 92.433703 184.78857 
L 92.368991 185.091754 
L 92.406822 185.298521 
L 92.609916 185.774533 
L 92.726397 186.220369 
L 92.837401 186.331369 
L 93.194807 186.452464 
L 93.293865 186.547075 
L 93.359074 186.679536 
L 93.372016 186.837868 
L 93.331198 186.965929 
L 93.258523 187.030278 
L 93.169918 187.077594 
L 93.083304 187.153933 
L 92.944922 187.407572 
L 92.965828 187.575418 
L 93.053438 187.761576 
L 93.110335 188.047168 
L 93.114167 188.066403 
L 93.055429 188.294259 
L 92.891162 188.332132 
L 92.504387 188.188218 
L 92.263462 188.133306 
L 92.140013 188.197055 
L 92.092226 188.364956 
L 92.079284 188.623143 
L 92.040457 188.854209 
L 91.791567 189.652378 
L 91.671105 189.862067 
L 91.463033 190.052825 
L 91.041912 190.35731 
L 90.900543 190.419222 
L 90.526213 190.503881 
L 90.42367 190.558215 
L 90.386835 190.718067 
L 90.412719 190.903836 
L 90.42367 191.101627 
L 90.341039 191.297538 
L 90.093145 191.508634 
L 89.754655 191.684982 
L 89.293904 191.883881 
L 89.280577 191.850532 
L 89.282145 191.408075 
L 89.214729 191.281176 
L 89.346425 190.882606 
L 89.282145 190.649764 
L 88.814938 190.005584 
L 88.708327 189.729062 
L 88.672268 189.494839 
L 88.681675 188.959345 
L 88.794557 188.438383 
L 88.791421 188.214723 
L 88.617395 188.163035 
L 88.681675 188.072088 
L 88.565657 187.939401 
L 88.469237 187.751564 
L 88.446503 187.577157 
L 88.551547 187.488219 
L 88.492754 187.365997 
L 88.222307 187.071896 
L 88.161162 186.983971 
L 88.038873 186.763427 
L 87.813109 186.45599 
L 87.747261 186.398382 
L 87.439187 186.191796 
L 87.342766 186.177892 
L 87.236155 186.24642 
L 86.9077 185.689312 
L 87.041747 185.151694 
L 86.972764 184.95564 
L 86.973548 184.35666 
L 86.931217 184.148269 
L 86.837932 184.075336 
L 86.745431 184.018778 
L 86.704668 183.857048 
L 86.627846 183.749896 
L 86.452251 183.73303 
L 86.254707 183.74692 
L 86.117524 183.732038 
L 85.999939 183.603562 
L 85.903518 183.407142 
L 85.783581 183.066421 
L 85.740466 182.887898 
L 85.691864 182.469909 
L 85.646398 182.302834 
L 85.558601 182.208146 
L 85.125102 181.977641 
L 85.149403 182.187821 
L 85.21917 182.381164 
L 85.388493 182.726247 
L 85.193301 182.875997 
L 85.290505 183.673504 
L 85.185462 183.89872 
L 85.130589 183.645229 
L 85.125102 182.80955 
L 85.085122 182.559649 
L 84.955778 182.085703 
L 84.787239 180.433108 
L 84.72531 180.141364 
L 84.682196 179.925427 
L 84.739421 179.318835 
L 84.72531 179.060401 
L 84.654759 178.789622 
L 84.593615 178.676766 
L 84.498762 178.630239 
L 84.39999 178.624299 
L 84.324735 178.599551 
L 84.276133 178.540158 
L 84.258888 178.433748 
L 84.199311 178.294185 
L 83.161422 177.21509 
L 83.074408 177.180959 
L 83.046188 177.246748 
L 82.98034 177.141883 
L 82.876865 176.887159 
L 82.686376 176.562243 
L 82.629935 176.357526 
L 82.589956 176.26358 
L 82.519404 176.223036 
L 82.300695 176.278413 
L 82.201923 176.249736 
L 82.159592 176.098442 
L 82.11099 175.99363 
L 81.693953 175.469151 
L 81.676707 175.49337 
L 81.616347 175.526981 
L 81.543444 175.552189 
L 81.490138 175.552189 
L 81.397637 175.440978 
L 81.101322 174.92997 
L 81.00255 174.865732 
L 80.431868 174.218017 
L 80.223349 174.321757 
L 79.862753 174.018948 
L 79.64326 174.059452 
L 79.553895 173.740874 
L 79.384572 173.537897 
L 79.177621 173.366048 
L 78.98478 173.140887 
L 78.580286 172.517864 
L 78.519141 172.312532 
L 78.533252 172.159533 
L 78.561472 172.02431 
L 78.545794 171.927586 
L 78.422721 171.890082 
L 78.35217 171.854059 
L 78.33806 171.765238 
L 78.342763 171.658658 
L 78.327869 171.566884 
L 77.921806 171.1283 
L 77.773649 170.877227 
L 77.860662 170.649362 
L 77.692906 170.398344 
L 77.623923 170.265203 
L 77.59727 170.107416 
L 77.554939 170.037402 
L 77.470278 170.00141 
L 77.416188 169.926962 
L 77.460871 169.738635 
L 77.264895 169.713986 
L 77.078326 169.655816 
L 77.105762 169.603563 
L 77.120656 169.563634 
L 77.14339 169.528635 
L 77.197479 169.490187 
L 77.137902 169.345272 
L 77.051673 169.276761 
L 76.941926 169.273311 
L 76.808663 169.325557 
L 76.870591 169.211703 
L 76.917625 169.094898 
L 76.927032 168.988448 
L 76.874511 168.904179 
L 76.934087 168.741072 
L 76.877646 168.658784 
L 76.753789 168.636611 
L 76.604848 168.65632 
L 76.63542 168.490768 
L 76.60328 168.259706 
L 76.531944 168.029654 
L 76.443363 167.871046 
L 76.399465 167.72624 
L 76.339888 167.266768 
L 76.313235 167.16878 
L 76.29207 167.065872 
L 76.277176 166.417522 
L 76.254442 166.347628 
L 76.227006 166.295455 
L 76.183107 166.263955 
L 76.112556 166.253127 
L 76.061602 166.207847 
L 76.043572 166.105478 
L 76.038085 165.992287 
L 76.020055 165.914534 
L 75.671218 165.627658 
L 75.618696 165.550902 
L 75.603018 165.424457 
L 75.555984 165.274898 
L 75.483081 165.149453 
L 75.333355 165.069763 
L 75.276914 165.010244 
L 75.233799 164.951217 
L 75.218905 164.924656 
L 75.159328 164.948758 
L 75.058989 165.073207 
L 75.021361 165.096326 
L 74.916318 165.049103 
L 74.809707 164.970893 
L 74.709367 164.871535 
L 74.631761 164.759394 
L 74.373856 164.074873 
L 74.264894 163.889029 
L 74.142605 163.731713 
L 74.08146 163.591614 
L 74.072053 163.426456 
L 74.100274 163.192014 
L 74.329958 162.39992 
L 74.363666 162.153312 
L 74.39267 162.058509 
L 74.443624 162.015775 
L 74.455382 161.946518 
L 74.363666 161.775597 
L 74.323686 161.766266 
L 74.110465 161.629736 
L 74.100274 161.610583 
L 73.70597 161.494198 
L 73.606414 161.116112 
L 73.600927 161.044921 
L 73.414358 160.750367 
L 73.371243 160.711587 
L 73.364188 160.585926 
L 73.378298 160.455855 
L 73.437091 160.21733 
L 73.484125 160.084829 
L 73.531159 159.993555 
L 73.566435 159.899341 
L 73.586817 159.678544 
L 73.633851 159.427846 
L 73.756924 159.133523 
L 73.673046 158.954497 
L 73.495884 158.815701 
L 73.305395 158.720561 
L 72.889142 158.576387 
L 72.717467 158.434185 
L 72.618695 158.101764 
L 72.482296 157.846848 
L 72.443884 157.733616 
L 72.448588 157.599805 
L 72.520707 157.321918 
L 72.514436 157.204795 
L 72.457995 156.984289 
L 72.443884 156.862777 
L 72.404689 156.757929 
L 72.228311 156.644268 
L 72.186764 156.537472 
L 72.144433 156.282752 
L 72.040174 156.151485 
L 71.892016 156.057939 
L 71.63176 155.809645 
L 71.649006 155.772429 
L 71.661548 155.626016 
L 71.639599 155.505075 
L 71.54553 155.318046 
L 71.523581 155.215237 
L 71.508687 155.087956 
L 71.456165 154.894604 
L 71.462436 154.760002 
L 71.5275 154.638623 
L 71.616865 154.542211 
L 71.6639 154.454122 
L 71.5957 154.35723 
L 71.619217 154.228046 
L 71.598836 154.102297 
L 71.54553 154.000528 
L 71.523581 153.856691 
L 70.699698 153.510352 
L 70.471582 153.364594 
L 69.982425 152.767001 
L 69.748822 152.618364 
L 69.748822 152.543561 
L 69.853081 152.560673 
L 70.076494 152.707838 
L 70.136071 152.215537 
L 70.110986 151.613893 
L 70.042002 151.352961 
L 69.599096 150.597235 
L 69.411743 150.450227 
L 68.916316 150.381366 
L 68.724259 150.38918 
L 68.637246 150.504438 
L 68.74856 150.807265 
L 68.604322 150.666591 
L 68.479681 150.415552 
L 68.399723 150.176265 
L 68.3911 150.069328 
L 68.253133 149.96679 
L 67.861181 149.290669 
L 67.563297 149.073481 
L 67.500585 148.997349 
L 67.509992 148.910972 
L 67.630713 148.594777 
L 67.572704 148.380106 
L 67.458254 148.252291 
L 67.165074 148.103997 
L 66.80291 147.843533 
L 66.715897 147.805979 
L 66.627316 147.642601 
L 66.542654 147.605538 
L 66.454857 147.548482 
L 66.214982 147.152062 
L 66.137376 147.106233 
L 65.899853 147.036516 
L 65.816759 147.025303 
L 65.638812 146.969239 
L 65.44362 146.83518 
L 65.00385 146.420875 
L 64.659716 145.962806 
L 64.723996 145.789353 
L 64.560944 145.657813 
L 64.308527 145.574508 
L 64.011427 145.521897 
L 63.954986 145.46198 
L 63.864837 145.308543 
L 63.714328 145.149274 
L 63.628098 145.034335 
L 63.637505 144.981252 
L 63.537165 144.908203 
L 63.231443 144.57806 
L 63.075446 144.490907 
L 62.859088 144.495776 
L 62.619998 144.544464 
L 62.427157 144.627237 
L 62.346415 144.728516 
L 62.115947 144.627724 
L 61.704398 144.337062 
L 61.490392 144.230935 
L 61.50215 144.382825 
L 61.558591 144.467538 
L 61.636982 144.526936 
L 61.71694 144.606787 
L 61.76319 144.632106 
L 61.856475 144.706118 
L 61.914484 144.782567 
L 61.852555 144.818114 
L 61.684016 144.765524 
L 60.741763 144.089767 
L 60.606148 143.952989 
L 60.479939 143.882414 
L 60.288667 143.818655 
L 60.113072 143.721804 
L 59.96413 143.358779 
L 59.797943 143.170481 
L 59.279782 142.700549 
L 59.018742 142.397538 
L 58.446492 141.315272 
L 58.256787 141.129608 
L 58.256787 141.040672 
L 58.353207 141.047961 
L 58.429246 141.031924 
L 58.484903 140.979439 
L 58.520179 140.877875 
L 58.372021 140.846775 
L 58.249732 140.764169 
L 58.026319 140.514428 
L 57.963607 140.382283 
L 57.906382 140.033504 
L 57.8617 139.89945 
L 57.539515 139.475497 
L 57.51051 139.276908 
L 57.665723 138.996299 
L 57.33178 138.864262 
L 57.198517 138.840477 
L 57.222034 138.933677 
L 57.266716 139.000668 
L 57.325509 139.048728 
L 57.394493 139.085138 
L 57.205572 139.014746 
L 56.993918 138.87397 
L 56.867709 138.694375 
L 56.935125 138.507033 
L 56.84576 138.456075 
L 56.805781 138.383766 
L 56.814404 138.293505 
L 56.869277 138.188692 
L 56.911608 138.280889 
L 56.985295 138.347855 
L 57.083283 138.394443 
L 57.198517 138.425501 
L 57.151482 138.2838 
L 57.137372 138.218776 
L 57.132669 138.144536 
L 57.113855 138.031482 
L 57.068389 138.027601 
L 57.003324 138.04992 
L 56.935125 138.018867 
L 56.805781 137.802486 
L 56.753259 137.798119 
L 56.737581 138.018867 
L 56.532198 137.866524 
L 56.256264 137.610383 
L 56.057936 137.314507 
L 56.074398 137.041955 
L 56.114377 137.103058 
L 56.18728 137.177741 
L 56.25548 137.20393 
L 56.276645 137.122941 
L 56.243721 136.981825 
L 56.189632 136.928 
L 56.119081 136.900361 
L 56.041474 136.838296 
L 55.948973 136.785445 
L 55.848634 136.805809 
L 55.746726 136.853812 
L 55.653442 136.879026 
L 55.65109 136.831507 
L 55.379859 136.347666 
L 55.318714 136.175104 
L 55.291278 135.975418 
L 55.285791 135.689013 
L 55.254434 135.580957 
L 55.122738 135.476783 
L 55.093734 135.366802 
L 55.081975 135.224369 
L 55.045916 135.173018 
L 54.983204 135.148312 
L 54.577141 134.815541 
L 54.47053 134.677025 
L 54.409386 134.350636 
L 54.320021 134.11726 
L 54.298855 133.978798 
L 54.320021 133.918768 
L 54.411737 133.767736 
L 54.430551 133.694161 
L 54.363919 133.52282 
L 54.002539 132.874388 
L 53.87006 132.781498 
L 53.56904 132.225224 
L 54.331779 131.454949 
L 54.439174 131.166364 
L 54.451717 130.787454 
L 54.37803 130.444379 
L 54.233007 130.263688 
L 54.233007 130.197986 
L 54.336483 130.093642 
L 54.322372 129.935205 
L 54.166375 129.542071 
L 54.044086 129.795135 
L 53.945314 129.827012 
L 53.854382 129.693712 
L 53.766584 129.453218 
L 53.83792 129.379821 
L 53.680355 129.119092 
L 53.645863 128.771514 
L 53.659973 128.401805 
L 53.640376 128.076565 
L 53.5369 127.755244 
L 53.555714 127.579652 
L 53.736796 127.502956 
L 53.788534 127.434946 
L 53.837136 127.274337 
L 53.841839 127.088667 
L 53.766584 126.944002 
L 53.692897 127.190904 
L 53.642727 127.294111 
L 53.56904 127.349093 
L 53.434209 127.355846 
L 53.402853 127.298934 
L 53.405204 127.205372 
L 53.372281 127.105063 
L 53.310352 127.040444 
L 53.268021 127.005242 
L 53.228826 126.95895 
L 53.180224 126.862995 
L 53.15122 126.753545 
L 53.137109 126.557324 
L 53.108889 126.458499 
L 53.090075 126.452714 
L 52.977193 126.377515 
L 52.957595 126.337506 
L 52.930942 126.247851 
L 52.911345 126.208328 
L 52.584727 125.734756 
L 52.305807 125.02624 
L 52.129097 124.030329 
L 52.142595 123.804227 
L 52.397759 123.694728 
L 52.658507 124.07569 
L 52.846143 124.078455 
L 52.887828 123.816896 
L 52.887828 123.586357 
L 52.911345 123.460272 
L 52.951324 123.415038 
L 53.080668 123.308693 
L 53.108889 123.248066 
L 53.128486 123.024339 
L 53.219419 122.55533 
L 53.240585 122.315825 
L 53.180224 122.315825 
L 53.043041 122.719829 
L 52.977193 122.546192 
L 53.010117 122.417298 
L 53.073613 122.290337 
L 53.108889 122.118186 
L 53.108889 121.633563 
L 53.180224 121.314884 
L 53.496921 120.897278 
L 53.595693 120.396673 
L 53.663893 120.28043 
L 53.750906 120.181967 
L 53.83792 120.058055 
L 53.969615 119.728149 
L 54.135019 119.537053 
L 54.166375 119.487123 
L 54.166375 119.338299 
L 54.114638 119.202929 
L 54.020569 119.126128 
L 53.89828 119.156848 
L 53.833216 119.271093 
L 53.766584 119.607151 
L 53.704479 119.728163 
L 53.468058 119.779562 
L 53.458139 119.44136 
L 53.581864 118.948309 
L 53.506235 118.303387 
L 53.576531 117.645372 
L 53.504001 117.322672 
L 53.429506 117.165065 
L 53.162978 116.750889 
L 52.911345 116.091968 
L 52.723992 115.739853 
L 52.65344 115.554962 
L 52.678525 115.412237 
L 52.93251 115.146457 
L 52.916832 115.054521 
L 52.454329 114.471903 
L 52.266192 114.296727 
L 52.182314 114.353681 
L 52.21759 114.419253 
L 52.386913 114.621248 
L 52.451193 114.726564 
L 52.482549 114.851994 
L 52.49274 114.971688 
L 52.516257 115.088997 
L 52.582105 115.208229 
L 52.51077 115.28868 
L 52.383984 114.958388 
L 52.115599 114.487115 
L 51.853074 114.156026 
L 51.356052 113.138378 
L 51.357736 112.979069 
L 51.639307 113.152797 
L 51.951846 113.934948 
L 52.121953 113.996196 
L 52.226997 114.069409 
L 52.319497 114.052661 
L 52.394752 113.968442 
L 52.451193 113.835425 
L 52.350853 113.700504 
L 52.187801 113.345553 
L 52.087462 113.273807 
L 52.01691 113.239848 
L 51.93852 113.15328 
L 51.878943 113.035632 
L 51.853074 112.908428 
L 51.769197 112.721945 
L 51.576356 112.632058 
L 51.356863 112.571339 
L 51.195379 112.470943 
L 51.001754 112.515403 
L 50.860652 112.328009 
L 50.663108 111.829034 
L 50.770503 111.70957 
L 50.852029 111.553325 
L 50.906902 111.381807 
L 50.9265 111.217473 
L 50.902624 110.88166 
L 50.857206 110.700824 
L 50.848893 110.556006 
L 50.736281 110.497868 
L 50.649198 110.677014 
L 50.528751 110.421095 
L 50.360892 110.16465 
L 50.183358 109.774058 
L 50.011683 109.545466 
L 49.939564 109.287324 
L 49.821691 109.109085 
L 49.794772 108.94987 
L 49.711314 108.747603 
L 49.712885 108.578158 
L 49.640174 108.227755 
L 49.509774 107.950779 
L 49.386535 107.611815 
L 49.331947 107.150981 
L 49.295752 106.822025 
L 49.239223 106.565904 
L 49.216805 106.357178 
L 49.05532 106.164789 
L 48.983985 106.035273 
L 48.953413 105.841496 
L 48.939948 105.65078 
L 48.725297 105.786747 
L 48.630444 105.718195 
L 48.552054 105.718195 
L 48.561461 105.914338 
L 48.652394 106.01718 
L 48.89462 106.117172 
L 48.89462 106.198122 
L 48.572435 106.164313 
L 48.360924 105.943314 
L 48.352817 105.374475 
L 47.925384 104.757407 
L 47.699166 103.954487 
L 47.631751 103.6887 
L 47.58942 103.399666 
L 47.518868 103.128746 
L 47.368359 102.917746 
L 47.272722 102.863575 
L 47.168463 102.837916 
L 47.007607 102.777416 
L 46.916621 102.660119 
L 46.872 102.492306 
L 46.794822 102.287853 
L 46.677951 102.119405 
L 46.519391 102.06406 
L 46.363531 102.014609 
L 46.23278 101.933388 
L 46.138413 101.851781 
L 46.044263 101.655224 
L 45.887974 101.450119 
L 45.811525 101.379836 
L 45.652633 101.251571 
L 45.455772 101.18433 
L 45.297996 101.161095 
L 45.06866 100.991689 
L 44.944157 100.888691 
L 44.754244 100.690497 
L 44.571179 100.434136 
L 44.374125 100.26486 
L 44.209775 100.096242 
L 43.920971 99.787404 
L 43.843273 99.744378 
L 43.764395 99.721938 
L 43.678545 99.76485 
L 43.599177 99.822348 
L 43.382206 99.656619 
L 43.231697 99.522904 
L 42.835193 99.243166 
L 42.535661 98.987886 
L 42.591558 98.848768 
L 42.758173 98.719195 
L 42.995631 98.677401 
L 42.901111 98.572066 
L 42.75852 98.623312 
L 42.576208 98.726583 
L 42.505597 98.577873 
L 42.61707 98.378219 
L 42.657309 98.19553 
L 42.554651 98.15125 
L 42.491055 98.237919 
L 42.372343 98.263229 
L 42.316575 98.3761 
L 42.371694 98.437478 
L 42.402932 98.542274 
L 42.41819 98.690562 
L 42.425701 98.795231 
L 42.370094 98.864579 
L 42.156997 98.775883 
L 41.864397 98.861145 
L 41.426365 98.490564 
L 41.293886 98.356004 
L 40.919963 98.028513 
L 40.833968 97.793165 
L 40.708012 97.696884 
L 40.542541 97.609154 
L 40.369215 97.504011 
L 40.227607 97.355567 
L 40.038599 97.215681 
L 39.809642 97.223479 
L 39.700208 97.210356 
L 39.55597 97.329664 
L 39.524643 97.483289 
L 39.579158 97.718345 
L 39.168626 97.734387 
L 39.066507 97.560105 
L 38.782656 97.411448 
L 38.56124 97.489174 
L 38.348507 97.245184 
L 38.214754 96.98403 
L 38.001981 96.653215 
L 37.662355 96.330858 
L 37.552109 95.939519 
L 37.647428 95.705105 
L 37.718635 95.731346 
L 37.908478 95.870879 
L 37.987982 95.688667 
L 37.924993 95.471302 
L 36.601092 93.346206 
L 36.00802 92.440152 
L 35.727382 92.030114 
L 35.713272 91.709336 
L 35.746196 91.624436 
L 35.754035 91.509357 
L 35.744628 91.394287 
L 35.713272 91.313177 
L 35.642721 91.275453 
L 35.51808 91.412207 
L 35.416956 91.428241 
L 35.247633 91.315063 
L 35.122992 91.12834 
L 34.957588 90.716782 
L 35.20295 90.721967 
L 35.419308 90.76062 
L 35.634882 90.76769 
L 35.877892 90.677188 
L 35.997829 90.482534 
L 36.011939 89.897312 
L 36.22281 89.407451 
L 36.194589 89.146574 
L 36.009588 88.661673 
L 35.948443 88.383987 
L 36.009588 87.702706 
L 35.992342 87.441194 
L 35.941388 87.194306 
L 35.859078 86.965327 
L 35.746196 86.752836 
L 35.565114 86.514996 
L 35.454584 86.400321 
L 35.351108 86.31949 
L 35.260175 86.228325 
L 35.170026 86.012184 
L 35.089284 85.921039 
L 34.897228 85.758496 
L 34.706739 85.530215 
L 34.540551 85.269098 
L 34.424534 85.011785 
L 34.402584 84.89723 
L 34.382203 84.639045 
L 34.358686 84.53907 
L 34.295189 84.43347 
L 34.148599 84.258895 
L 34.102349 84.14487 
L 34.271672 84.013025 
L 34.129786 83.752186 
L 33.701774 83.279421 
L 33.628087 83.133121 
L 33.472874 82.642751 
L 33.422704 82.562132 
L 33.291008 82.467928 
L 33.240838 82.406534 
L 33.227512 82.340925 
L 33.236919 82.198002 
L 33.207914 82.131934 
L 33.124037 81.993249 
L 32.987637 81.661116 
L 32.912382 81.535123 
L 32.78931 81.435836 
L 32.507888 81.311267 
L 32.385599 81.227916 
L 32.006973 80.572516 
L 31.767099 80.248674 
L 31.557796 80.231361 
L 31.538982 80.360045 
L 31.604046 80.492952 
L 31.637754 80.607151 
L 31.524872 80.678295 
L 31.402583 80.63851 
L 31.107051 80.410586 
L 30.962813 80.357237 
L 30.876583 80.295468 
L 30.658658 79.99555 
L 30.598297 79.885612 
L 30.586539 79.815911 
L 30.598297 79.568477 
L 30.577132 79.502066 
L 30.461114 79.4712 
L 30.401538 79.414614 
L 30.283952 79.125639 
L 30.271409 78.856358 
L 30.363126 78.599748 
L 30.565373 78.348793 
L 30.692366 78.113768 
L 30.727642 77.799374 
L 30.690014 77.475712 
L 30.598297 77.212354 
L 30.370181 76.949047 
L 30.064459 76.777271 
L 29.72738 76.684857 
L 29.408331 76.656854 
L 29.062629 76.522448 
L 28.832161 76.194887 
L 28.220716 74.63748 
L 27.999655 74.237691 
L 27.58105 73.634037 
L 26.869265 71.76191 
L 26.107311 70.307613 
L 25.647943 69.683435 
L 25.089803 69.152835 
L 24.83425 68.842373 
L 24.682173 68.348753 
L 24.392128 67.808487 
L 24.20164 67.10068 
L 24.027613 67.151655 
L 23.895917 67.024221 
L 23.669369 66.634579 
L 23.044597 66.044547 
L 22.272452 64.985101 
L 21.996517 64.424024 
L 21.965161 64.332923 
L 21.953403 64.22056 
L 21.974568 64.127624 
L 22.068637 63.96535 
L 22.090586 63.867348 
L 22.043552 63.73099 
L 21.813084 63.362664 
L 21.003311 62.349269 
L 20.547079 62.019649 
L 20.429493 61.910256 
L 20.201377 61.613512 
L 19.942688 61.168292 
L 19.651076 60.865263 
L 19.284209 60.153404 
L 19.178382 59.862136 
L 19.143106 59.632671 
L 19.136835 59.224069 
L 19.07961 59.011297 
L 18.999652 58.863484 
L 18.682171 58.512668 
L 18.506576 58.208891 
L 18.258862 57.517841 
L 18.059751 57.228099 
L 17.968818 57.164641 
L 17.77441 57.084633 
L 17.699155 57.031757 
L 17.645065 56.952217 
L 17.601951 56.798669 
L 17.504747 56.587685 
L 17.462416 56.265534 
L 17.369915 56.106556 
L 16.871352 55.525037 
L 16.719275 55.243103 
L 16.626774 55.135213 
L 16.476264 55.063139 
L 16.009058 54.67759 
L 16.009058 54.755149 
L 15.94321 54.755149 
L 15.836599 54.605083 
L 15.961239 54.490825 
L 16.178381 54.392177 
L 16.344568 54.285737 
L 16.446476 54.336662 
L 16.436285 54.273351 
L 16.344568 54.097197 
L 16.28656 54.072427 
L 16.020032 54.01234 
L 15.94321 53.977482 
L 15.877362 53.977482 
L 15.877362 54.054538 
L 15.819353 54.054538 
L 15.780158 53.98482 
L 15.723716 53.909602 
L 15.655517 53.849064 
L 15.582614 53.8243 
L 15.410939 53.831637 
L 15.323925 53.820631 
L 15.211043 53.69865 
L 14.761082 53.362576 
L 14.665446 53.436385 
L 14.552564 53.431342 
L 14.450656 53.431342 
L 14.477309 53.49461 
L 14.513368 53.549629 
L 14.557267 53.593187 
L 14.460063 53.540918 
L 14.352668 53.464351 
L 14.24057 53.42309 
L 14.12612 53.478105 
L 14.028132 53.544585 
L 13.735736 53.635371 
L 13.656561 53.681683 
L 13.599336 53.740837 
L 13.564844 53.8243 
L 13.498996 53.8243 
L 13.498996 53.747257 
L 13.433149 53.747257 
L 13.306156 53.783026 
L 13.110964 53.744965 
L 12.914204 53.747716 
L 12.781724 53.907768 
L 12.755855 53.849982 
L 12.748016 53.849064 
L 12.708821 53.8243 
L 12.708821 53.747257 
L 12.781724 53.747257 
L 12.781724 53.662883 
L 12.744881 53.584934 
L 12.793483 53.520744 
L 12.882848 53.472145 
L 12.972213 53.439136 
L 12.880496 53.397875 
L 12.787211 53.384581 
L 12.68844 53.399709 
L 12.578693 53.439136 
L 12.578693 53.516618 
L 12.650028 53.516618 
L 12.650028 53.593187 
L 12.542633 53.630786 
L 12.472082 53.707821 
L 12.381149 53.907768 
L 12.351361 53.86053 
L 12.321572 53.844478 
L 12.288648 53.838975 
L 12.254941 53.8243 
L 12.293352 53.756429 
L 12.349793 53.691313 
L 12.425048 53.634913 
L 12.518332 53.593187 
L 12.512845 53.550087 
L 12.511277 53.502863 
L 12.518332 53.439136 
L 12.381933 53.432718 
L 12.273754 53.458391 
L 12.203987 53.529914 
L 12.184389 53.662883 
L 12.131868 53.630786 
L 12.11619 53.6262 
L 12.102079 53.639956 
L 12.052693 53.662883 
L 12.048774 53.626659 
L 12.053477 53.55238 
L 12.052693 53.516618 
L 11.997036 53.516618 
L 11.997036 53.593187 
L 11.920214 53.593187 
L 11.871611 53.497361 
L 11.826929 53.447847 
L 11.779895 53.45289 
L 11.723454 53.516618 
L 11.634872 53.446471 
L 11.612923 53.413463 
L 11.553346 53.32361 
L 11.518855 53.27181 
L 11.460062 53.13155 
L 11.431841 53.159509 
L 11.394998 53.188844 
L 11.356586 53.227805 
L 11.322879 53.285104 
L 11.197454 53.18701 
L 11.162962 53.236515 
L 11.156691 53.348823 
L 11.126119 53.439136 
L 11.053216 53.484982 
L 10.923871 53.542752 
L 10.861943 53.593187 
L 10.861943 53.662883 
L 11.065758 53.8243 
L 11.065758 53.907768 
L 11.003046 53.912354 
L 10.975609 53.930699 
L 10.961499 53.955466 
L 10.940333 53.977482 
L 10.861943 53.907768 
L 10.815693 54.094903 
L 10.80707 54.24032 
L 10.745141 54.335286 
L 10.533487 54.369695 
L 10.549949 54.316017 
L 10.559356 54.307758 
L 10.575034 54.310511 
L 10.604822 54.285737 
L 10.533487 54.208666 
L 10.491156 54.047199 
L 10.472343 53.90043 
L 10.467639 53.628035 
L 10.397088 53.546419 
L 10.161133 53.650044 
L 10.204247 53.516618 
L 10.145455 53.439136 
L 10.286557 53.224597 
L 10.378274 53.144842 
L 10.462152 53.103591 
L 10.467639 53.047676 
L 10.528 53.016053 
L 10.609526 52.936769 
L 10.665183 52.901025 
L 10.604822 52.82404 
L 10.633043 52.764472 
L 10.669103 52.719569 
L 10.72084 52.68887 
L 10.796095 52.670085 
L 10.796095 52.722318 
L 10.774146 52.733314 
L 10.747493 52.730107 
L 10.730247 52.739729 
L 10.825883 52.791965 
L 10.905842 52.819458 
L 10.96385 52.788299 
L 10.994423 52.670085 
L 10.940333 52.670085 
L 10.940333 52.593115 
L 10.87135 52.521647 
L 10.88546 52.446976 
L 10.959147 52.386052 
L 11.065758 52.35582 
L 11.065758 52.279328 
L 11.032834 52.180856 
L 11.126119 51.663896 
L 11.162962 51.686329 
L 11.229594 51.714713 
L 11.262518 51.740808 
L 11.257815 51.705099 
L 11.262518 51.586989 
L 11.206861 51.6259 
L 11.18256 51.650163 
L 11.126119 51.587447 
L 11.319743 51.394285 
L 11.515719 51.022693 
L 11.664661 50.616452 
L 11.766568 50.088267 
L 11.954705 49.796148 
L 12.025257 49.460687 
L 12.09424 49.271061 
L 12.370687 48.779468 
L 12.29746 48.273902 
L 12.27106 47.743909 
L 12.126931 47.238626 
L 12.304327 46.551485 
L 12.428967 46.191406 
L 12.578693 45.895675 
L 12.578693 45.825968 
L 12.518332 45.825968 
L 12.682168 45.536249 
L 12.705685 45.40098 
L 12.650028 45.277567 
L 12.650028 45.20744 
L 12.758991 44.865521 
L 12.738609 44.717584 
L 12.578693 44.666151 
L 12.578693 44.597426 
L 12.72058 44.350779 
L 12.876577 43.888111 
L 12.948696 43.413804 
L 12.840517 43.132856 
L 12.840517 42.980136 
L 12.951047 42.772451 
L 13.042764 42.531181 
L 13.235605 41.532555 
L 13.280287 41.38776 
L 13.387682 41.1377 
L 13.373572 41.068274 
L 13.387682 40.909017 
L 13.480183 40.815107 
L 13.702812 40.68809 
L 13.636964 40.500767 
L 13.611879 40.255885 
L 13.647938 40.093113 
L 13.76082 40.155226 
L 13.771795 40.119409 
L 13.773363 40.088579 
L 13.785905 40.072258 
L 13.83294 40.079058 
L 13.760037 39.913591 
L 13.734168 39.725032 
L 13.773295 39.560352 
L 14.841883 39.749579 
L 15.98578 39.950486 
L 17.484095 40.212465 
L 18.823121 40.447432 
L 20.252742 40.69685 
L 21.391398 40.89706 
L 21.940213 40.99357 
L 23.050261 41.187488 
L 24.051793 41.362992 
L 24.315615 41.352616 
L 24.562514 41.250597 
L 25.60785 40.377168 
L 26.626306 39.525112 
L 27.746309 38.589437 
L 28.488996 37.969714 
L 29.107237 36.915862 
L 29.707559 35.893384 
L 30.150582 35.139525 
L 30.683206 34.23292 
L 30.91318 33.984905 
L 31.177999 33.852041 
L 32.013272 33.677968 
L 32.870448 33.500487 
L 34.256265 33.211997 
L 35.631131 32.92587 
L 36.920379 32.65812 
L 38.055315 32.423034 
L 38.262391 32.238889 
L 38.690481 31.198068 
L 39.00906 30.428222 
L 39.355514 29.591592 
L 39.638253 28.906665 
L 39.763693 28.70714 
L 39.986698 28.52247 
L 41.03303 27.940164 
L 42.196837 27.293836 
L 42.901693 26.903377 
L 42.966404 26.864111 
L 42.975364 26.860696 
L 42.979346 26.856144 
L 42.976359 26.848746 
L 42.499487 26.296336 
L 41.4432 25.073041 
L 40.384921 23.851693 
L 39.327638 22.631161 
L 38.271351 21.41145 
L 38.240489 21.376346 
L 38.210622 21.341244 
L 38.17976 21.306143 
L 38.149893 21.271609 
L 36.896485 19.94715 
L 35.66184 18.645246 
L 35.643077 18.625474 
L 34.389669 17.304328 
L 33.136262 15.985412 
L 33.50596 15.878431 
L 35.522615 15.295056 
L 37.908968 14.605161 
L 40.295321 13.915163 
L 40.860467 13.751956 
L 42.681674 13.226189 
L 43.028867 13.129586 
L 44.848009 12.623576 
L 47.013348 12.021316 
L 49.177692 11.418852 
L 51.344027 10.817304 
L 52.438145 10.513021 
L 52.439141 10.513582 
L 52.439141 10.511901 
L 52.772653 10.37688 
L 53.916549 9.337098 
L 54.103714 9.202235 
L 54.201279 9.172019 
L 54.229154 9.163626 
L 54.25703 9.154673 
L 54.28391 9.145721 
L 54.31079 9.137328 
L 56.216289 9.449032 
L 58.120792 9.761393 
L 60.025295 10.07385 
L 61.928802 10.385844 
L 62.701355 10.511901 
L 62.703346 10.511901 
L 62.704342 10.512461 
L 62.706333 10.513021 
L 65.99068 11.119435 
L 66.509366 11.31399 
L 67.045971 11.614586 
L 68.036552 12.183493 
L 68.880785 12.669616 
L 69.72701 13.154284 
L 70.572239 13.640867 
L 71.416472 14.127118 
L 72.261701 14.613599 
L 73.10693 15.099746 
L 73.951164 15.586684 
L 74.797388 16.074414 
L 75.641621 16.56181 
L 76.485855 17.049433 
L 77.331084 17.537284 
L 78.177308 18.025363 
L 79.021542 18.513103 
L 79.865775 19.001635 
L 80.712 19.490394 
L 81.556233 19.979379 
L 82.4154 20.476509 
L 83.053553 21.018018 
L 83.868915 21.70761 
L 84.682286 22.397648 
L 85.495657 23.088131 
L 86.310024 23.779058 
L 87.222951 24.55901 
L 88.134882 25.338956 
L 89.047809 26.120601 
L 89.235459 26.281102 
L 89.960736 26.901669 
L 89.961731 26.902238 
L 89.962727 26.902808 
L 89.963723 26.903377 
L 90.982179 27.7243 
L 91.83139 28.410202 
L 92.679605 29.095391 
L 93.528319 29.781576 
L 94.37753 30.468186 
L 95.480609 31.3609 
L 96.584683 32.254329 
L 97.688757 33.14847 
L 98.791835 34.043896 
L 99.25916 34.423291 
L 99.895412 34.940033 
L 100.998988 35.836304 
L 102.102067 36.733568 
L 103.205145 37.631825 
L 104.12305 38.37928 
L 105.041452 39.127796 
L 105.96085 39.876221 
L 106.877262 40.625706 
L 107.618455 41.230425 
L 107.680179 41.254055 
L 107.741904 41.278839 
L 107.802135 41.303623 
L 107.865353 41.327831 
L 108.746422 41.408241 
L 109.514993 41.479433 
L 110.281573 41.549188 
L 111.047655 41.6201 
L 111.814733 41.690151 
L 112.802327 41.781254 
L 113.788925 41.871498 
L 114.776519 41.962614 
L 115.763615 42.052872 
L 116.750711 42.143138 
L 117.738305 42.234275 
L 118.725898 42.324843 
L 119.712497 42.415417 
L 120.447219 42.48292 
L 121.179949 42.550138 
L 121.914174 42.618226 
L 122.648398 42.685452 
L 123.662872 42.778363 
L 124.083993 42.687471 
L 124.335835 42.633119 
L 124.505114 42.596587 
L 124.926235 42.505422 
L 125.348352 42.414263 
L 126.42455 42.549561 
L 127.499753 42.684586 
L 128.574458 42.819915 
L 129.65215 42.956125 
L 130.610873 43.08427 
L 131.570591 43.213006 
L 132.530309 43.341756 
L 133.489032 43.470231 
L 134.026633 43.542703 
L 134.027629 43.542703 
L 134.032607 43.543858 
L 134.033602 43.544147 
L 134.151477 43.749172 
L 134.615506 44.556621 
L 135.149623 46.049902 
L 135.194423 46.332343 
L 135.231259 46.936228 
L 135.323846 47.277966 
L 135.455259 47.608792 
L 135.601109 47.862912 
L 135.806691 48.057377 
L 136.027705 48.217088 
L 136.207901 48.410161 
L 136.288044 48.707948 
L 136.805236 48.702728 
L 138.517597 48.684169 
L 140.230454 48.66561 
L 141.943312 48.647631 
L 143.653646 48.62967 
L 143.881069 48.876823 
L 144.000222 48.964522 
L 144.249504 49.082377 
L 144.287131 49.163695 
L 144.374928 49.654914 
L 144.376496 50.03066 
L 144.291834 50.281679 
L 144.070773 50.198458 
L 144.023739 50.272534 
L 144.011981 50.305001 
L 144.000222 50.352102 
L 144.188359 50.365821 
L 144.348275 50.32375 
L 144.468213 50.218577 
L 144.531709 50.044833 
L 144.643023 50.121643 
L 144.637536 50.222235 
L 144.531709 50.428474 
L 144.472916 50.722117 
L 144.465861 50.854325 
L 144.515247 51.119699 
L 144.637536 51.344855 
L 145.441822 52.262381 
L 145.491208 52.397504 
L 145.352457 52.613273 
L 145.281121 52.82404 
L 145.272498 53.044926 
L 145.326588 53.285104 
L 145.423008 53.464351 
L 145.727947 53.899054 
L 145.792227 54.016009 
L 145.778117 54.148114 
L 145.766358 54.190775 
L 145.917652 54.285737 
L 146.246891 54.439894 
L 146.351934 54.452282 
L 146.681174 54.439894 
L 146.765836 54.465588 
L 146.958676 54.575714 
L 147.074694 54.600953 
L 147.113889 54.63124 
L 147.109186 54.701453 
L 147.07783 54.779473 
L 147.04177 54.831795 
L 146.979842 54.861169 
L 146.914778 54.857039 
L 146.844226 54.831795 
L 146.678822 54.917626 
L 146.635708 54.989692 
L 146.64825 55.14669 
L 146.740751 55.29728 
L 146.933591 55.502994 
L 147.154652 55.684859 
L 147.332598 55.7634 
L 147.337302 55.813466 
L 147.553659 56.151582 
L 147.941692 56.552295 
L 147.987158 56.666283 
L 147.901713 56.89383 
L 147.889954 57.037274 
L 147.897793 57.170159 
L 147.929933 57.228099 
L 147.908768 57.308116 
L 147.821755 57.487484 
L 147.699466 57.674697 
L 147.568554 57.775445 
L 147.635969 57.642956 
L 147.65008 57.547739 
L 147.628914 57.270407 
L 147.657919 57.111761 
L 147.713576 57.020722 
L 147.745716 56.92831 
L 147.70025 56.765571 
L 147.557579 56.922793 
L 147.400798 57.343068 
L 147.239314 57.459887 
L 147.416476 56.972446 
L 147.436858 56.8428 
L 147.38904 56.629052 
L 147.311433 56.645139 
L 147.229907 56.798669 
L 147.048041 57.593277 
L 147.04177 57.775445 
L 147.019821 57.803049 
L 146.986897 57.877581 
L 146.998655 57.939235 
L 147.107618 57.930033 
L 147.160923 57.875741 
L 147.229123 57.686198 
L 147.299675 57.614436 
L 147.299675 58.119153 
L 147.338086 58.239266 
L 147.427451 58.223618 
L 147.518384 58.127436 
L 147.568554 58.007334 
L 147.635969 58.131578 
L 147.646944 58.281607 
L 147.628914 58.470319 
L 147.750419 58.519113 
L 147.84292 58.462954 
L 147.913471 58.353406 
L 147.962857 58.239266 
L 147.966777 58.434416 
L 147.946395 58.503462 
L 147.897009 58.555019 
L 147.944044 58.657679 
L 147.933853 58.726737 
L 147.871141 58.76403 
L 147.765314 58.772318 
L 147.863302 59.020047 
L 147.897009 59.088665 
L 147.662622 58.965708 
L 147.565418 58.96755 
L 147.497218 59.088665 
L 147.699466 59.177551 
L 147.872708 59.166497 
L 148.00754 59.059651 
L 148.094553 58.857037 
L 148.160401 58.857037 
L 148.226249 59.018205 
L 148.108664 59.142548 
L 148.068684 59.364554 
L 148.122774 59.546978 
L 148.292097 59.552507 
L 148.362649 59.469583 
L 148.320318 59.39035 
L 148.245847 59.312964 
L 148.226249 59.236504 
L 148.301504 59.132416 
L 148.404979 59.073467 
L 148.626824 59.018205 
L 148.814177 58.999785 
L 148.94117 59.065178 
L 149.28452 59.39772 
L 149.639628 59.589363 
L 149.733697 59.72436 
L 149.547912 59.862136 
L 149.685095 59.930338 
L 149.807384 59.915131 
L 149.865393 59.835409 
L 149.811303 59.707312 
L 149.973572 59.7838 
L 150.141327 59.831723 
L 150.50741 59.862136 
L 150.588152 59.837713 
L 150.759043 59.731271 
L 150.83665 59.707312 
L 150.937774 59.720213 
L 151.128262 59.778271 
L 151.232522 59.791173 
L 151.42693 59.851537 
L 151.575088 59.995779 
L 151.796149 60.3258 
L 151.865916 60.389417 
L 151.9349 60.429064 
L 151.998396 60.477011 
L 152.058757 60.565072 
L 152.083058 60.651295 
L 152.101871 60.853272 
L 152.130092 60.944588 
L 152.008587 60.951045 
L 151.936468 60.895701 
L 151.909815 60.789171 
L 151.927845 60.642073 
L 151.861997 60.642073 
L 151.659749 60.896623 
L 151.129046 60.837593 
L 150.940125 61.029453 
L 150.869574 61.029453 
L 150.803726 60.834826 
L 150.636754 60.832981 
L 150.271455 61.029453 
L 150.351413 61.077422 
L 150.563067 61.140616 
L 150.67203 61.190896 
L 150.757476 61.257324 
L 150.813917 61.316374 
L 150.881333 61.369891 
L 151.000486 61.422948 
L 151.063198 61.511074 
L 151.1118 61.550756 
L 151.165106 61.532299 
L 151.328158 61.362048 
L 151.329726 61.338519 
L 151.381463 61.290078 
L 151.403413 61.224109 
L 151.431633 61.187667 
L 151.495913 61.226416 
L 151.5696 61.29423 
L 151.658965 61.338519 
L 151.59155 61.495387 
L 151.499833 61.573828 
L 151.40498 61.630585 
L 151.329726 61.72611 
L 151.301505 61.850717 
L 151.295234 62.145209 
L 151.269365 62.275398 
L 151.372057 62.24585 
L 151.484939 62.183064 
L 151.596253 62.098123 
L 151.693457 62.003955 
L 151.803204 61.963336 
L 151.931764 62.001186 
L 152.130092 62.120281 
L 152.054053 62.340959 
L 152.083058 62.558904 
L 152.152825 62.780119 
L 152.190452 63.011534 
L 152.171639 63.496673 
L 152.224944 63.700947 
L 152.387996 63.676913 
L 152.377022 63.88399 
L 152.44287 63.96119 
L 152.546345 63.936226 
L 152.651388 63.832217 
L 152.602786 63.662123 
L 152.689799 63.553053 
L 152.839525 63.542886 
L 152.97906 63.676913 
L 153.038637 63.592336 
L 153.08959 63.720359 
L 153.06137 63.834991 
L 153.008848 63.955642 
L 152.97906 64.104045 
L 152.946136 64.190968 
L 152.863042 64.227958 
L 152.755647 64.229807 
L 152.651388 64.213162 
L 152.728211 64.344484 
L 152.961814 64.393964 
L 153.038637 64.530392 
L 153.135841 64.468882 
L 153.197769 64.374079 
L 153.3083 64.142882 
L 153.316139 64.193742 
L 153.324762 64.200215 
L 153.341224 64.196978 
L 153.374148 64.213162 
L 153.277727 64.416162 
L 153.357686 64.449921 
L 153.603048 64.36853 
L 153.753557 64.397201 
L 154.013813 64.516055 
L 154.169026 64.530392 
L 153.907986 64.230732 
L 153.828812 64.052726 
L 153.97305 63.902942 
L 154.092204 63.897858 
L 154.185488 63.96119 
L 154.27015 64.036545 
L 154.36657 64.065209 
L 154.441825 64.030072 
L 154.628394 63.832217 
L 154.594686 64.012505 
L 154.506105 64.288532 
L 154.498266 64.452696 
L 154.556275 64.712627 
L 154.608797 64.856027 
L 154.661318 64.918481 
L 154.841616 65.007772 
L 155.017211 65.221076 
L 155.572999 66.143176 
L 155.855204 66.515069 
L 155.939866 66.584551 
L 156.213448 66.712406 
L 156.30203 66.78792 
L 156.443132 66.943133 
L 156.542688 67.023757 
L 157.141591 67.31479 
L 157.515513 67.605423 
L 157.729519 67.630456 
L 157.952932 67.617012 
L 158.192806 67.652709 
L 158.489906 67.834915 
L 158.768976 68.124272 
L 159.251077 68.8201 
L 159.415697 69.13195 
L 160.117291 69.670899 
L 160.276424 69.858956 
L 160.309348 70.151541 
L 159.874281 69.739153 
L 159.641461 69.582219 
L 159.114678 69.51258 
L 158.978278 69.463371 
L 158.884994 69.335249 
L 158.811307 68.914761 
L 158.726645 68.986225 
L 158.638848 69.179291 
L 158.593381 69.364493 
L 158.585542 69.507009 
L 158.588678 69.643505 
L 158.620034 69.768871 
L 158.689018 69.878459 
L 158.785438 69.987128 
L 158.811307 70.044717 
L 158.771328 70.743411 
L 158.785438 70.933943 
L 159.04491 71.803299 
L 159.153089 71.987935 
L 159.311438 72.15399 
L 159.487032 72.270287 
L 160.313267 72.575498 
L 160.595473 72.844476 
L 160.76558 73.233613 
L 160.836131 73.755585 
L 160.830644 75.001959 
L 160.794584 75.274217 
L 160.695812 75.502694 
L 160.506891 75.631871 
L 160.502188 75.455597 
L 160.426933 75.395445 
L 160.324242 75.435546 
L 160.238796 75.561452 
L 160.300725 75.84968 
L 160.27564 76.2924 
L 160.198817 76.742732 
L 160.111804 77.055485 
L 159.962078 76.935043 
L 159.919747 76.771204 
L 159.923667 76.590583 
L 159.908773 76.421651 
L 159.841357 76.283535 
L 159.755127 76.192088 
L 159.664195 76.11884 
L 159.585804 76.030669 
L 159.533283 75.987286 
L 159.4886 75.987286 
L 159.458812 75.959297 
L 159.439998 75.641664 
L 159.4204 75.564716 
L 159.382773 75.475648 
L 159.307518 75.362805 
L 159.189933 75.237384 
L 159.062156 75.162323 
L 158.95241 75.201485 
L 158.700776 75.722814 
L 158.62317 75.795574 
L 158.517343 75.866938 
L 158.566729 76.021339 
L 158.668636 76.170626 
L 158.724293 76.226613 
L 158.745459 76.310597 
L 158.834824 76.475782 
L 158.850502 76.585916 
L 158.818362 76.614384 
L 158.75173 76.640053 
L 158.684314 76.687191 
L 158.653742 76.774471 
L 158.676475 76.941578 
L 158.712535 77.104038 
L 158.720374 77.269784 
L 158.653742 77.447693 
L 158.81601 77.507934 
L 158.95241 77.416872 
L 159.021393 77.244571 
L 158.982198 77.055485 
L 159.074699 77.085363 
L 159.140547 77.143722 
L 159.251077 77.290796 
L 159.302815 77.316944 
L 159.344362 77.305738 
L 159.372582 77.314609 
L 159.382773 77.404731 
L 159.383557 77.474311 
L 159.394531 77.510736 
L 159.422752 77.52428 
L 159.481545 77.525214 
L 159.726123 77.588728 
L 159.824111 77.743323 
L 159.874281 77.947453 
L 159.980108 78.152547 
L 159.980108 78.231042 
L 159.788051 78.446926 
L 159.889959 78.985382 
L 160.117291 79.58017 
L 160.309348 79.964205 
L 160.888653 80.715741 
L 161.131663 81.152061 
L 161.230435 81.699057 
L 161.170074 81.699057 
L 161.001535 81.151125 
L 160.934119 81.063101 
L 160.817317 81.034541 
L 160.676215 80.96291 
L 160.556277 80.87443 
L 160.435556 80.680168 
L 160.283479 80.55005 
L 160.143944 80.531797 
L 160.111804 80.756465 
L 160.182355 80.917031 
L 160.429285 81.110858 
L 160.506891 81.227916 
L 160.557845 81.111794 
L 160.572739 81.063101 
L 160.638587 81.063101 
L 161.004671 81.891587 
L 162.102136 83.424329 
L 162.355337 83.665876 
L 162.327117 83.512032 
L 162.263621 83.33288 
L 162.236968 83.183761 
L 162.32163 83.121867 
L 162.423537 83.069822 
L 162.467436 83.09561 
L 162.506631 83.348825 
L 162.555233 83.410729 
L 162.602267 83.444495 
L 162.623433 83.472166 
L 162.701039 83.632104 
L 162.879769 83.723103 
L 163.209009 83.830057 
L 163.292103 83.942181 
L 163.478672 84.460221 
L 163.406553 84.53907 
L 163.524138 84.716496 
L 163.654267 85.022114 
L 163.762445 85.354566 
L 163.807912 85.609592 
L 163.796937 85.753329 
L 163.746767 86.009835 
L 163.735793 86.1616 
L 163.756958 86.308681 
L 163.801641 86.41301 
L 163.846323 86.491496 
L 163.900412 86.690787 
L 164.039164 86.970968 
L 164.063465 87.147755 
L 164.003888 87.62039 
L 164.081494 88.090357 
L 164.165372 88.357633 
L 164.26728 88.495996 
L 164.340967 88.272928 
L 164.590248 88.497879 
L 164.852072 88.859851 
L 164.961035 89.04911 
L 165.123303 89.223796 
L 165.313792 89.988708 
L 165.556018 90.162564 
L 165.747291 90.361889 
L 165.830384 90.80493 
L 165.852334 91.514545 
L 165.892313 91.648962 
L 165.974623 91.851319 
L 166.07653 92.045212 
L 166.180006 92.154671 
L 166.322676 92.151368 
z
" clip-path="url(#p99b5df9bf1)" style="stroke: #000000; stroke-linejoin: miter"/>
   </g>
   <g id="line2d_1">
    <path d="M 166.531979 91.926326 
L 167.236466 93.205034 
L 167.69492 93.776003 
L 168.179259 94.002172 
L 169.302249 94.08977 
L 169.803015 93.902881 
L 170.456174 93.327505 
L 170.478936 93.422533 
L 171.062161 93.408367 
L 171.225997 93.597268 
L 171.334175 93.50187 
L 171.344366 93.591601 
L 171.233052 93.818313 
L 171.197776 94.001126 
L 171.268327 94.135769 
L 171.295764 94.589395 
L 171.596783 94.416434 
L 171.996574 93.754075 
L 172.195686 93.530678 
L 172.190199 93.263873 
L 172.509248 93.362089 
L 172.65819 93.398922 
L 172.886306 93.716288 
L 173.182621 93.818313 
L 173.182621 93.904757 
L 172.656622 94.152778 
L 172.546875 94.338466 
L 171.314578 95.995092 
L 171.233052 96.602601 
L 171.06608 96.642354 
L 171.101356 97.079223 
L 171.926023 97.079223 
L 172.359522 96.840657 
L 173.169295 97.133663 
L 173.450717 97.483073 
L 173.86697 97.623712 
L 173.92363 98.371475 
L 173.955488 99.420919 
L 174.099844 99.69491 
L 183.394874 113.03431 
L 183.631817 113.122074 
L 208.072772 116.742419 
L 208.712916 115.798562 
L 213.049568 124.079536 
L 213.054545 124.351007 
L 206.704875 147.977263 
L 177.809294 159.998398 
L 150.358269 164.628969 
L 149.033678 165.284265 
L 141.044821 170.234542 
L 135.36317 178.935606 
L 134.263576 182.60567 
L 133.970882 183.081765 
L 131.406324 184.842145 
L 131.092723 184.89572 
L 129.566532 184.727434 
L 127.417122 181.096794 
L 127.059717 180.845725 
L 123.327369 181.470616 
L 114.732714 180.399657 
L 114.292677 180.223519 
L 112.726664 179.117304 
L 112.180103 178.983387 
L 106.971342 178.997847 
L 106.096246 179.293986 
L 105.435196 179.128621 
L 104.847318 179.100957 
L 103.914978 179.21979 
L 102.992096 179.443013 
L 102.389783 179.270092 
L 102.247916 179.393336 
L 101.960697 179.913423 
L 101.776519 180.017203 
L 101.526136 179.973174 
L 100.992019 179.720342 
L 100.6376 180.064377 
L 100.363822 180.482698 
L 99.965599 180.456276 
L 99.895412 180.300263 
L 99.863056 179.892667 
L 99.468815 179.983867 
L 98.359763 179.907762 
L 97.96154 179.52539 
L 97.289538 178.613113 
L 96.880364 178.319578 
L 96.014228 177.899768 
L 95.298919 177.869605 
L 95.088359 177.967008 
L 94.241139 178.610599 
L 93.401883 179.484515 
L 92.911571 180.230438 
L 93.65127 180.62614 
L 93.750826 180.887253 
L 93.716479 181.131404 
L 92.825953 181.645591 
L 92.501401 183.346304 
L 92.631819 183.818141 
L 92.58901 184.317799 
L 92.368991 185.091754 
L 92.406822 185.298521 
L 92.837401 186.331369 
L 93.293865 186.547075 
L 93.372016 186.837868 
L 93.258523 187.030278 
L 93.083304 187.153933 
L 92.965828 187.575418 
L 93.114167 188.066403 
L 93.055429 188.294259 
L 92.891162 188.332132 
L 92.263462 188.133306 
L 92.140013 188.197055 
L 91.671105 189.862067 
L 90.900543 190.419222 
L 90.42367 190.558215 
L 90.412719 190.903836 
L 90.341039 191.297538 
L 89.754655 191.684982 
L 89.293904 191.883881 
L 89.280577 191.850532 
L 89.282145 190.649764 
L 88.708327 189.729062 
L 88.681675 188.959345 
L 88.791421 188.214723 
L 88.617395 188.163035 
L 88.681675 188.072088 
L 88.469237 187.751564 
L 88.446503 187.577157 
L 88.551547 187.488219 
L 88.492754 187.365997 
L 88.038873 186.763427 
L 87.747261 186.398382 
L 87.342766 186.177892 
L 87.236155 186.24642 
L 86.9077 185.689312 
L 87.041747 185.151694 
L 86.972764 184.95564 
L 86.931217 184.148269 
L 86.704668 183.857048 
L 86.627846 183.749896 
L 85.999939 183.603562 
L 85.740466 182.887898 
L 85.558601 182.208146 
L 85.125102 181.977641 
L 85.21917 182.381164 
L 85.388493 182.726247 
L 85.193301 182.875997 
L 85.290505 183.673504 
L 85.185462 183.89872 
L 85.130589 183.645229 
L 85.085122 182.559649 
L 84.955778 182.085703 
L 84.498762 178.630239 
L 84.276133 178.540158 
L 84.199311 178.294185 
L 82.686376 176.562243 
L 82.519404 176.223036 
L 82.201923 176.249736 
L 82.11099 175.99363 
L 81.616347 175.526981 
L 81.490138 175.552189 
L 80.431868 174.218017 
L 80.223349 174.321757 
L 79.862753 174.018948 
L 79.64326 174.059452 
L 79.384572 173.537897 
L 78.98478 173.140887 
L 78.519141 172.312532 
L 78.545794 171.927586 
L 78.33806 171.765238 
L 78.327869 171.566884 
L 77.773649 170.877227 
L 77.860662 170.649362 
L 77.416188 169.926962 
L 77.460871 169.738635 
L 77.078326 169.655816 
L 77.105762 169.603563 
L 77.137902 169.345272 
L 76.941926 169.273311 
L 76.808663 169.325557 
L 76.870591 169.211703 
L 76.927032 168.988448 
L 76.874511 168.904179 
L 76.877646 168.658784 
L 76.604848 168.65632 
L 76.60328 168.259706 
L 76.29207 167.065872 
L 76.183107 166.263955 
L 76.061602 166.207847 
L 76.020055 165.914534 
L 75.618696 165.550902 
L 75.483081 165.149453 
L 75.159328 164.948758 
L 75.021361 165.096326 
L 74.709367 164.871535 
L 74.631761 164.759394 
L 74.100274 163.192014 
L 74.455382 161.946518 
L 74.323686 161.766266 
L 73.70597 161.494198 
L 73.414358 160.750367 
L 73.364188 160.585926 
L 73.531159 159.993555 
L 73.756924 159.133523 
L 73.495884 158.815701 
L 72.717467 158.434185 
L 72.448588 157.599805 
L 72.514436 157.204795 
L 72.404689 156.757929 
L 72.186764 156.537472 
L 72.040174 156.151485 
L 71.63176 155.809645 
L 71.661548 155.626016 
L 71.5275 154.638623 
L 71.6639 154.454122 
L 71.619217 154.228046 
L 71.523581 153.856691 
L 70.471582 153.364594 
L 69.748822 152.543561 
L 70.076494 152.707838 
L 70.110986 151.613893 
L 70.042002 151.352961 
L 69.411743 150.450227 
L 68.724259 150.38918 
L 68.637246 150.504438 
L 68.74856 150.807265 
L 68.604322 150.666591 
L 67.861181 149.290669 
L 67.509992 148.910972 
L 67.630713 148.594777 
L 67.458254 148.252291 
L 66.715897 147.805979 
L 66.454857 147.548482 
L 66.137376 147.106233 
L 65.44362 146.83518 
L 64.659716 145.962806 
L 64.723996 145.789353 
L 64.308527 145.574508 
L 63.954986 145.46198 
L 63.537165 144.908203 
L 63.075446 144.490907 
L 62.619998 144.544464 
L 62.346415 144.728516 
L 61.704398 144.337062 
L 61.490392 144.230935 
L 61.558591 144.467538 
L 61.914484 144.782567 
L 61.852555 144.818114 
L 61.684016 144.765524 
L 60.113072 143.721804 
L 59.797943 143.170481 
L 59.018742 142.397538 
L 58.256787 141.040672 
L 58.353207 141.047961 
L 58.484903 140.979439 
L 58.520179 140.877875 
L 58.249732 140.764169 
L 57.963607 140.382283 
L 57.8617 139.89945 
L 57.51051 139.276908 
L 57.665723 138.996299 
L 57.198517 138.840477 
L 57.222034 138.933677 
L 57.394493 139.085138 
L 57.205572 139.014746 
L 56.867709 138.694375 
L 56.84576 138.456075 
L 56.814404 138.293505 
L 56.869277 138.188692 
L 56.911608 138.280889 
L 57.198517 138.425501 
L 57.068389 138.027601 
L 57.003324 138.04992 
L 56.935125 138.018867 
L 56.753259 137.798119 
L 56.737581 138.018867 
L 56.256264 137.610383 
L 56.057936 137.314507 
L 56.074398 137.041955 
L 56.114377 137.103058 
L 56.25548 137.20393 
L 56.276645 137.122941 
L 56.119081 136.900361 
L 55.848634 136.805809 
L 55.653442 136.879026 
L 55.65109 136.831507 
L 55.291278 135.975418 
L 55.254434 135.580957 
L 55.093734 135.366802 
L 54.983204 135.148312 
L 54.47053 134.677025 
L 54.411737 133.767736 
L 54.363919 133.52282 
L 53.56904 132.225224 
L 54.331779 131.454949 
L 54.439174 131.166364 
L 54.37803 130.444379 
L 54.233007 130.197986 
L 54.336483 130.093642 
L 54.322372 129.935205 
L 54.166375 129.542071 
L 53.945314 129.827012 
L 53.766584 129.453218 
L 53.83792 129.379821 
L 53.680355 129.119092 
L 53.555714 127.579652 
L 53.788534 127.434946 
L 53.841839 127.088667 
L 53.766584 126.944002 
L 53.56904 127.349093 
L 53.402853 127.298934 
L 53.310352 127.040444 
L 53.180224 126.862995 
L 52.911345 126.208328 
L 52.584727 125.734756 
L 52.305807 125.02624 
L 52.142595 123.804227 
L 52.397759 123.694728 
L 52.658507 124.07569 
L 52.846143 124.078455 
L 53.080668 123.308693 
L 53.128486 123.024339 
L 53.240585 122.315825 
L 53.180224 122.315825 
L 53.043041 122.719829 
L 53.010117 122.417298 
L 53.108889 122.118186 
L 53.180224 121.314884 
L 53.496921 120.897278 
L 53.750906 120.181967 
L 54.166375 119.487123 
L 54.114638 119.202929 
L 53.89828 119.156848 
L 53.766584 119.607151 
L 53.704479 119.728163 
L 53.468058 119.779562 
L 53.458139 119.44136 
L 53.581864 118.948309 
L 53.506235 118.303387 
L 53.504001 117.322672 
L 52.678525 115.412237 
L 52.916832 115.054521 
L 52.266192 114.296727 
L 52.21759 114.419253 
L 52.482549 114.851994 
L 52.51077 115.28868 
L 52.383984 114.958388 
L 51.357736 112.979069 
L 51.639307 113.152797 
L 51.951846 113.934948 
L 52.319497 114.052661 
L 52.451193 113.835425 
L 51.853074 112.908428 
L 51.769197 112.721945 
L 51.195379 112.470943 
L 51.001754 112.515403 
L 50.860652 112.328009 
L 50.663108 111.829034 
L 50.852029 111.553325 
L 50.9265 111.217473 
L 50.848893 110.556006 
L 50.736281 110.497868 
L 50.649198 110.677014 
L 49.712885 108.578158 
L 49.509774 107.950779 
L 49.331947 107.150981 
L 49.216805 106.357178 
L 48.983985 106.035273 
L 48.939948 105.65078 
L 48.630444 105.718195 
L 48.552054 105.718195 
L 48.652394 106.01718 
L 48.89462 106.198122 
L 48.572435 106.164313 
L 48.360924 105.943314 
L 48.352817 105.374475 
L 47.925384 104.757407 
L 47.368359 102.917746 
L 46.916621 102.660119 
L 46.677951 102.119405 
L 46.138413 101.851781 
L 45.811525 101.379836 
L 45.455772 101.18433 
L 45.297996 101.161095 
L 44.754244 100.690497 
L 44.209775 100.096242 
L 43.764395 99.721938 
L 43.599177 99.822348 
L 42.535661 98.987886 
L 42.758173 98.719195 
L 42.995631 98.677401 
L 42.901111 98.572066 
L 42.576208 98.726583 
L 42.505597 98.577873 
L 42.657309 98.19553 
L 42.491055 98.237919 
L 42.316575 98.3761 
L 42.402932 98.542274 
L 42.370094 98.864579 
L 42.156997 98.775883 
L 41.864397 98.861145 
L 40.919963 98.028513 
L 40.708012 97.696884 
L 40.227607 97.355567 
L 40.038599 97.215681 
L 39.55597 97.329664 
L 39.579158 97.718345 
L 39.168626 97.734387 
L 39.066507 97.560105 
L 38.782656 97.411448 
L 38.56124 97.489174 
L 38.214754 96.98403 
L 38.001981 96.653215 
L 37.662355 96.330858 
L 37.552109 95.939519 
L 37.718635 95.731346 
L 37.908478 95.870879 
L 37.987982 95.688667 
L 37.924993 95.471302 
L 35.727382 92.030114 
L 35.642721 91.275453 
L 35.416956 91.428241 
L 35.122992 91.12834 
L 34.957588 90.716782 
L 35.877892 90.677188 
L 35.997829 90.482534 
L 36.011939 89.897312 
L 36.22281 89.407451 
L 36.194589 89.146574 
L 35.948443 88.383987 
L 35.992342 87.441194 
L 35.746196 86.752836 
L 34.402584 84.89723 
L 34.295189 84.43347 
L 34.102349 84.14487 
L 34.271672 84.013025 
L 34.129786 83.752186 
L 33.628087 83.133121 
L 33.422704 82.562132 
L 33.227512 82.340925 
L 33.207914 82.131934 
L 32.78931 81.435836 
L 32.385599 81.227916 
L 31.767099 80.248674 
L 31.557796 80.231361 
L 31.604046 80.492952 
L 31.637754 80.607151 
L 31.402583 80.63851 
L 30.598297 79.885612 
L 30.461114 79.4712 
L 30.401538 79.414614 
L 30.271409 78.856358 
L 30.565373 78.348793 
L 30.692366 78.113768 
L 30.690014 77.475712 
L 30.598297 77.212354 
L 30.370181 76.949047 
L 29.72738 76.684857 
L 29.062629 76.522448 
L 28.832161 76.194887 
L 27.999655 74.237691 
L 27.58105 73.634037 
L 26.869265 71.76191 
L 26.107311 70.307613 
L 25.647943 69.683435 
L 24.83425 68.842373 
L 24.682173 68.348753 
L 24.392128 67.808487 
L 24.20164 67.10068 
L 24.027613 67.151655 
L 23.895917 67.024221 
L 23.669369 66.634579 
L 23.044597 66.044547 
L 21.996517 64.424024 
L 21.974568 64.127624 
L 22.090586 63.867348 
L 21.813084 63.362664 
L 21.003311 62.349269 
L 20.429493 61.910256 
L 19.651076 60.865263 
L 19.178382 59.862136 
L 18.999652 58.863484 
L 18.506576 58.208891 
L 18.059751 57.228099 
L 17.601951 56.798669 
L 17.369915 56.106556 
L 16.009058 54.67759 
L 16.009058 54.755149 
L 15.94321 54.755149 
L 15.836599 54.605083 
L 16.344568 54.285737 
L 16.446476 54.336662 
L 16.436285 54.273351 
L 16.28656 54.072427 
L 15.323925 53.820631 
L 14.761082 53.362576 
L 14.552564 53.431342 
L 14.450656 53.431342 
L 14.477309 53.49461 
L 14.557267 53.593187 
L 14.352668 53.464351 
L 14.12612 53.478105 
L 13.498996 53.8243 
L 13.498996 53.747257 
L 13.433149 53.747257 
L 13.110964 53.744965 
L 12.914204 53.747716 
L 12.781724 53.907768 
L 12.708821 53.8243 
L 12.793483 53.520744 
L 12.972213 53.439136 
L 12.880496 53.397875 
L 12.578693 53.439136 
L 12.472082 53.707821 
L 12.381149 53.907768 
L 12.321572 53.844478 
L 12.254941 53.8243 
L 12.293352 53.756429 
L 12.518332 53.439136 
L 12.203987 53.529914 
L 12.184389 53.662883 
L 12.102079 53.639956 
L 12.052693 53.662883 
L 12.053477 53.55238 
L 11.997036 53.516618 
L 11.997036 53.593187 
L 11.871611 53.497361 
L 11.779895 53.45289 
L 11.723454 53.516618 
L 11.518855 53.27181 
L 11.460062 53.13155 
L 11.394998 53.188844 
L 11.322879 53.285104 
L 11.197454 53.18701 
L 11.162962 53.236515 
L 11.053216 53.484982 
L 10.861943 53.662883 
L 11.065758 53.907768 
L 11.003046 53.912354 
L 10.815693 54.094903 
L 10.745141 54.335286 
L 10.533487 54.369695 
L 10.604822 54.285737 
L 10.491156 54.047199 
L 10.397088 53.546419 
L 10.161133 53.650044 
L 10.204247 53.516618 
L 10.145455 53.439136 
L 10.528 53.016053 
L 10.633043 52.764472 
L 10.796095 52.670085 
L 10.730247 52.739729 
L 10.96385 52.788299 
L 10.940333 52.593115 
L 10.88546 52.446976 
L 11.065758 52.279328 
L 11.032834 52.180856 
L 11.126119 51.663896 
L 11.229594 51.714713 
L 11.262518 51.740808 
L 11.257815 51.705099 
L 11.262518 51.586989 
L 11.18256 51.650163 
L 11.126119 51.587447 
L 11.319743 51.394285 
L 11.664661 50.616452 
L 11.766568 50.088267 
L 11.954705 49.796148 
L 12.09424 49.271061 
L 12.370687 48.779468 
L 12.126931 47.238626 
L 12.578693 45.825968 
L 12.518332 45.825968 
L 12.705685 45.40098 
L 12.650028 45.20744 
L 12.738609 44.717584 
L 12.578693 44.597426 
L 12.876577 43.888111 
L 12.948696 43.413804 
L 12.840517 42.980136 
L 13.042764 42.531181 
L 13.480183 40.815107 
L 13.702812 40.68809 
L 13.611879 40.255885 
L 13.647938 40.093113 
L 13.83294 40.079058 
L 13.734168 39.725032 
L 13.773295 39.560352 
L 24.315615 41.352616 
L 24.562514 41.250597 
L 28.488996 37.969714 
L 30.91318 33.984905 
L 31.177999 33.852041 
L 38.055315 32.423034 
L 38.262391 32.238889 
L 39.763693 28.70714 
L 39.986698 28.52247 
L 42.976359 26.848746 
L 36.896485 19.94715 
L 33.136262 15.985412 
L 52.772653 10.37688 
L 54.28391 9.145721 
L 54.31079 9.137328 
L 65.99068 11.119435 
L 67.045971 11.614586 
L 82.4154 20.476509 
L 93.528319 29.781576 
L 107.865353 41.327831 
L 123.662872 42.778363 
L 125.348352 42.414263 
L 134.033602 43.544147 
L 134.615506 44.556621 
L 135.194423 46.332343 
L 135.323846 47.277966 
L 135.601109 47.862912 
L 136.207901 48.410161 
L 136.288044 48.707948 
L 143.653646 48.62967 
L 144.000222 48.964522 
L 144.287131 49.163695 
L 144.376496 50.03066 
L 144.291834 50.281679 
L 144.023739 50.272534 
L 144.000222 50.352102 
L 144.348275 50.32375 
L 144.643023 50.121643 
L 144.531709 50.428474 
L 144.465861 50.854325 
L 144.637536 51.344855 
L 145.491208 52.397504 
L 145.281121 52.82404 
L 145.326588 53.285104 
L 145.917652 54.285737 
L 146.351934 54.452282 
L 146.765836 54.465588 
L 147.109186 54.701453 
L 146.979842 54.861169 
L 146.678822 54.917626 
L 146.64825 55.14669 
L 146.933591 55.502994 
L 147.553659 56.151582 
L 147.987158 56.666283 
L 147.897793 57.170159 
L 147.908768 57.308116 
L 147.568554 57.775445 
L 147.635969 57.642956 
L 147.70025 56.765571 
L 147.557579 56.922793 
L 147.239314 57.459887 
L 147.436858 56.8428 
L 147.311433 56.645139 
L 147.229907 56.798669 
L 146.998655 57.939235 
L 147.160923 57.875741 
L 147.299675 57.614436 
L 147.338086 58.239266 
L 147.518384 58.127436 
L 147.568554 58.007334 
L 147.635969 58.131578 
L 147.750419 58.519113 
L 147.913471 58.353406 
L 147.962857 58.239266 
L 147.897009 58.555019 
L 147.871141 58.76403 
L 147.765314 58.772318 
L 147.897009 59.088665 
L 147.565418 58.96755 
L 147.497218 59.088665 
L 147.872708 59.166497 
L 148.160401 58.857037 
L 148.226249 59.018205 
L 148.108664 59.142548 
L 148.122774 59.546978 
L 148.362649 59.469583 
L 148.301504 59.132416 
L 148.626824 59.018205 
L 148.94117 59.065178 
L 149.733697 59.72436 
L 149.547912 59.862136 
L 149.807384 59.915131 
L 149.865393 59.835409 
L 149.811303 59.707312 
L 150.141327 59.831723 
L 150.588152 59.837713 
L 150.937774 59.720213 
L 151.575088 59.995779 
L 152.130092 60.944588 
L 151.936468 60.895701 
L 151.861997 60.642073 
L 151.659749 60.896623 
L 151.129046 60.837593 
L 150.869574 61.029453 
L 150.803726 60.834826 
L 150.636754 60.832981 
L 150.271455 61.029453 
L 150.351413 61.077422 
L 150.813917 61.316374 
L 151.165106 61.532299 
L 151.495913 61.226416 
L 151.658965 61.338519 
L 151.499833 61.573828 
L 151.329726 61.72611 
L 151.269365 62.275398 
L 151.596253 62.098123 
L 151.803204 61.963336 
L 152.130092 62.120281 
L 152.083058 62.558904 
L 152.190452 63.011534 
L 152.224944 63.700947 
L 152.387996 63.676913 
L 152.44287 63.96119 
L 152.651388 63.832217 
L 152.602786 63.662123 
L 152.839525 63.542886 
L 153.06137 63.834991 
L 152.863042 64.227958 
L 152.651388 64.213162 
L 152.728211 64.344484 
L 152.961814 64.393964 
L 153.038637 64.530392 
L 153.197769 64.374079 
L 153.3083 64.142882 
L 153.277727 64.416162 
L 153.357686 64.449921 
L 153.753557 64.397201 
L 154.169026 64.530392 
L 153.828812 64.052726 
L 154.092204 63.897858 
L 154.441825 64.030072 
L 154.628394 63.832217 
L 154.594686 64.012505 
L 154.498266 64.452696 
L 154.661318 64.918481 
L 154.841616 65.007772 
L 155.017211 65.221076 
L 155.939866 66.584551 
L 156.30203 66.78792 
L 156.542688 67.023757 
L 157.952932 67.617012 
L 158.192806 67.652709 
L 158.768976 68.124272 
L 159.415697 69.13195 
L 160.276424 69.858956 
L 160.309348 70.151541 
L 159.641461 69.582219 
L 158.978278 69.463371 
L 158.884994 69.335249 
L 158.811307 68.914761 
L 158.726645 68.986225 
L 158.585542 69.507009 
L 158.689018 69.878459 
L 158.811307 70.044717 
L 158.785438 70.933943 
L 159.153089 71.987935 
L 159.487032 72.270287 
L 160.313267 72.575498 
L 160.595473 72.844476 
L 160.76558 73.233613 
L 160.836131 73.755585 
L 160.794584 75.274217 
L 160.695812 75.502694 
L 160.506891 75.631871 
L 160.426933 75.395445 
L 160.238796 75.561452 
L 160.300725 75.84968 
L 160.198817 76.742732 
L 160.111804 77.055485 
L 159.919747 76.771204 
L 159.841357 76.283535 
L 159.458812 75.959297 
L 159.382773 75.475648 
L 159.062156 75.162323 
L 158.95241 75.201485 
L 158.566729 76.021339 
L 158.850502 76.585916 
L 158.653742 76.774471 
L 158.81601 77.507934 
L 159.021393 77.244571 
L 158.982198 77.055485 
L 159.074699 77.085363 
L 159.824111 77.743323 
L 159.980108 78.231042 
L 159.788051 78.446926 
L 159.889959 78.985382 
L 160.309348 79.964205 
L 161.131663 81.152061 
L 161.230435 81.699057 
L 161.170074 81.699057 
L 160.934119 81.063101 
L 160.556277 80.87443 
L 160.283479 80.55005 
L 160.143944 80.531797 
L 160.182355 80.917031 
L 160.506891 81.227916 
L 160.557845 81.111794 
L 160.638587 81.063101 
L 161.004671 81.891587 
L 162.355337 83.665876 
L 162.32163 83.121867 
L 162.467436 83.09561 
L 162.623433 83.472166 
L 162.701039 83.632104 
L 163.292103 83.942181 
L 163.807912 85.609592 
L 163.846323 86.491496 
L 164.063465 87.147755 
L 164.003888 87.62039 
L 164.165372 88.357633 
L 164.26728 88.495996 
L 164.340967 88.272928 
L 164.852072 88.859851 
L 165.123303 89.223796 
L 165.313792 89.988708 
L 165.747291 90.361889 
L 166.180006 92.154671 
L 166.322676 92.151368 
L 166.531979 91.926326 
L 166.531979 91.926326 
" clip-path="url(#p99b5df9bf1)" style="fill: none; stroke: #000000; stroke-width: 0.5; stroke-linecap: square"/>
   </g>
  </g>
 </g>
 <defs>
  <clipPath id="p99b5df9bf1">
   <rect x="0" y="0" width="223.2" height="201.021209"/>
  </clipPath>
 </defs>
</svg>
