<?xml version="1.0" encoding="utf-8" standalone="no"?>
<!DOCTYPE svg PUBLIC "-//W3C//DTD SVG 1.1//EN"
  "http://www.w3.org/Graphics/SVG/1.1/DTD/svg11.dtd">
<svg xmlns:xlink="http://www.w3.org/1999/xlink" width="223.2pt" height="203.601946pt" viewBox="0 0 223.2 203.601946" xmlns="http://www.w3.org/2000/svg" version="1.1">
 <metadata>
  <rdf:RDF xmlns:dc="http://purl.org/dc/elements/1.1/" xmlns:cc="http://creativecommons.org/ns#" xmlns:rdf="http://www.w3.org/1999/02/22-rdf-syntax-ns#">
   <cc:Work>
    <dc:type rdf:resource="http://purl.org/dc/dcmitype/StillImage"/>
    <dc:date>2026-04-26T19:22:02.629141</dc:date>
    <dc:format>image/svg+xml</dc:format>
    <dc:creator>
     <cc:Agent>
      <dc:title>Matplotlib v3.10.9, https://matplotlib.org/</dc:title>
     </cc:Agent>
    </dc:creator>
   </cc:Work>
  </rdf:RDF>
 </metadata>
 <defs>
  <style type="text/css">*{stroke-linejoin: round; stroke-linecap: butt}</style>
 </defs>
 <g id="figure_1">
  <g id="patch_1">
   <path d="M 0 203.601946 
L 223.2 203.601946 
L 223.2 0 
L 0 0 
z
" style="fill: #ffffff"/>
  </g>
  <g id="axes_1">
   <g id="patch_2">
    <path d="M 183.85 89.692085 
L 184.101147 90.920975 
L 184.756683 91.652066 
L 184.958451 92.238287 
L 185.211301 92.713393 
L 185.71104 92.995635 
L 186.245685 93.128585 
L 186.611764 93.15474 
L 186.429576 93.661497 
L 186.283144 93.963384 
L 186.220145 94.248932 
L 186.298469 94.70997 
L 186.530035 94.950852 
L 186.865465 95.04895 
L 187.11576 95.304011 
L 187.085112 96.008188 
L 186.901221 96.377739 
L 186.259307 97.155041 
L 186.015822 97.595504 
L 185.947714 98.026175 
L 185.915363 98.539734 
L 185.825121 99.000979 
L 185.585041 99.26596 
L 184.961857 99.742508 
L 184.762642 100.469916 
L 184.836709 101.351168 
L 185.224071 103.193552 
L 185.308354 104.052143 
L 185.247057 105.88304 
L 185.671879 105.987798 
L 188.743532 107.408688 
L 188.971693 107.962041 
L 188.828667 108.487045 
L 188.341697 108.710808 
L 188.612425 109.290433 
L 188.929125 109.81551 
L 189.33096 110.241268 
L 190.630113 110.831902 
L 191.093245 111.219491 
L 191.416756 111.838573 
L 192.632477 115.393321 
L 192.70399 116.329454 
L 192.462208 118.044655 
L 191.721538 121.289055 
L 191.718132 123.044466 
L 192.048454 124.142028 
L 192.584802 124.807839 
L 193.199473 125.397157 
L 193.774982 126.26425 
L 193.9759 127.060335 
L 193.970792 127.92101 
L 193.774982 129.637109 
L 193.250554 131.527453 
L 192.14721 132.952008 
L 189.336068 134.932711 
L 189.788984 135.417549 
L 190.233386 136.252663 
L 190.911057 137.900106 
L 191.323108 139.429564 
L 192.053562 140.862884 
L 192.658017 141.722534 
L 194.561625 143.46943 
L 194.769353 143.761886 
L 195.062216 144.393926 
L 195.249512 144.66669 
L 195.593455 144.8814 
L 195.898237 144.929601 
L 196.163857 145.072015 
L 196.392017 145.563903 
L 196.320504 146.317666 
L 195.848859 148.590239 
L 195.927183 149.057088 
L 196.21664 149.154624 
L 197.088418 149.69712 
L 197.343821 149.931662 
L 197.46982 150.246219 
L 197.674143 151.06499 
L 197.82398 151.359851 
L 198.215599 151.767628 
L 198.399489 151.791744 
L 198.579974 151.552776 
L 199.962559 150.237451 
L 200.047694 149.417649 
L 200.243503 148.548597 
L 200.575528 147.842887 
L 201.079524 147.5032 
L 201.551169 147.588668 
L 201.78614 147.923976 
L 201.975139 148.33929 
L 202.305461 148.66695 
L 202.618756 148.71736 
L 203.262373 148.546405 
L 204.091583 148.50805 
L 204.24142 148.693251 
L 204.19715 149.297095 
L 204.283987 149.717943 
L 204.648363 149.769455 
L 205.062117 149.635745 
L 205.300493 149.496558 
L 205.303899 150.419395 
L 205.540573 151.242563 
L 206.352756 152.664353 
L 207.098534 153.497564 
L 207.239858 153.90652 
L 207.188777 154.37141 
L 206.768213 155.135674 
L 206.643916 155.594039 
L 206.742672 156.354003 
L 207.059373 156.874934 
L 207.450991 157.330084 
L 207.757476 157.891645 
L 207.7728 159.375756 
L 207.937961 160.063584 
L 208.520281 160.235822 
L 208.976602 160.582501 
L 209.366518 160.95662 
L 209.781975 161.274796 
L 210.318322 161.449248 
L 210.665671 161.622606 
L 210.628212 161.921051 
L 210.446024 162.244742 
L 210.379619 162.489437 
L 210.834237 163.315734 
L 211.01983 163.834808 
L 211.147532 164.101488 
L 211.278639 164.239769 
L 211.564691 164.412074 
L 211.513611 164.590967 
L 211.32972 164.769863 
L 211.220748 164.941079 
L 211.217343 165.306569 
L 211.137316 166.135277 
L 211.047073 166.557887 
L 211.561286 166.680831 
L 211.942689 166.481048 
L 212.182768 165.996971 
L 212.262794 165.258275 
L 212.53863 165.627068 
L 212.69017 166.062831 
L 212.765088 166.549106 
L 212.834898 167.653458 
L 212.724224 167.908156 
L 212.51309 168.069541 
L 212.227038 168.363772 
L 212.082309 168.368164 
L 211.874581 168.223243 
L 211.641312 168.124434 
L 211.425071 168.269354 
L 211.401233 168.529555 
L 211.561286 168.760119 
L 211.751987 168.977512 
L 211.8235 169.202595 
L 211.685582 169.634109 
L 211.501692 170.073326 
L 211.379098 170.513659 
L 211.482962 171.204392 
L 211.431882 171.38779 
L 211.333125 171.565699 
L 211.251396 171.80072 
L 211.265018 172.063202 
L 211.394422 172.162046 
L 211.549367 172.188405 
L 211.631096 172.22355 
L 211.673664 172.26199 
L 211.794555 172.457486 
L 211.937581 172.762819 
L 212.043147 173.119784 
L 212.112958 173.553649 
L 212.143606 174.061127 
L 212.072093 174.523591 
L 211.84223 174.832277 
L 211.84223 175.023424 
L 212.189579 175.810022 
L 212.250876 176.21323 
L 211.98185 176.762583 
L 211.525529 176.865864 
L 211.091343 177.041664 
L 210.742292 178.160259 
L 210.485186 178.386629 
L 210.282565 178.705313 
L 210.313214 179.331718 
L 210.439213 179.435024 
L 210.689508 179.553716 
L 210.946615 179.78451 
L 211.10837 180.221934 
L 211.115181 180.663771 
L 210.944912 182.006975 
L 210.973858 182.459875 
L 211.050479 182.752291 
L 211.091343 183.060106 
L 211.009614 183.54823 
L 210.325133 183.950619 
L 210.088459 184.218885 
L 210.454537 184.379409 
L 210.692914 184.57292 
L 211.074317 185.417369 
L 211.339936 185.71646 
L 211.321207 185.401975 
L 211.5068 184.948956 
L 211.762203 184.823609 
L 211.964824 185.503137 
L 212.036337 185.86161 
L 212.244065 186.558796 
L 212.305362 186.941496 
L 212.565873 186.418035 
L 212.637386 186.176108 
L 213.054545 186.912903 
L 212.988141 187.907103 
L 212.765088 189.031182 
L 212.703791 190.161972 
L 211.794555 190.11577 
L 209.632138 189.125777 
L 208.520281 188.980585 
L 205.681896 189.253371 
L 204.312933 189.576763 
L 201.777627 190.775814 
L 200.53296 191.037642 
L 197.837601 190.894626 
L 197.159931 190.707608 
L 195.167783 189.644963 
L 195.123513 189.574563 
L 195.058811 189.528364 
L 194.83065 189.530564 
L 194.687624 189.603163 
L 194.323248 189.926565 
L 193.070068 190.795616 
L 192.632477 190.907827 
L 191.930968 190.819818 
L 189.943929 189.981566 
L 189.126637 190.014567 
L 188.535804 190.381983 
L 187.444379 191.64713 
L 186.225253 192.509711 
L 180.660861 194.347312 
L 180.127067 194.003977 
L 179.191439 192.181834 
L 178.602308 191.642729 
L 177.173751 190.989236 
L 176.481607 190.775814 
L 175.911206 190.742811 
L 175.356129 190.885825 
L 174.712512 191.202663 
L 173.750492 191.873771 
L 173.504015 191.965853 
L 173.461886 191.981592 
L 172.991943 191.963989 
L 172.871904 191.798957 
L 172.847215 191.501906 
L 172.670986 191.097049 
L 171.743871 189.787963 
L 171.201564 189.231372 
L 170.558799 188.894791 
L 169.881979 188.795798 
L 167.753616 188.947587 
L 167.074243 188.835395 
L 166.880136 188.485627 
L 166.737961 188.067679 
L 166.212682 187.746529 
L 165.236189 187.656345 
L 164.921191 187.502374 
L 164.574693 187.099859 
L 164.504883 186.736948 
L 164.557666 186.451026 
L 164.572139 186.283875 
L 163.753997 185.373386 
L 162.465911 184.524542 
L 161.268069 184.542134 
L 160.716397 186.237689 
L 160.608276 187.058068 
L 160.228576 187.475979 
L 159.688823 187.52437 
L 159.101395 187.234029 
L 158.462886 187.32421 
L 157.890782 187.251625 
L 157.404664 186.917302 
L 157.024964 186.231091 
L 156.878533 185.404174 
L 156.997721 184.702662 
L 157.488096 183.255793 
L 157.613244 182.523634 
L 157.649 181.66841 
L 157.506826 180.868209 
L 157.084558 180.287878 
L 156.582265 180.19116 
L 156.012715 180.30986 
L 155.409111 180.33404 
L 154.815723 179.947168 
L 154.506685 180.419769 
L 154.245322 180.193358 
L 154.028229 180.16698 
L 153.795812 180.210943 
L 153.501246 180.208745 
L 153.084087 180.367013 
L 152.951277 180.395589 
L 152.801441 180.298869 
L 152.486443 179.870235 
L 152.304255 179.758134 
L 152.055662 179.782312 
L 151.498031 179.98014 
L 151.211979 180.037291 
L 150.925076 179.977942 
L 150.518984 179.643835 
L 150.241446 179.547122 
L 149.951988 179.573498 
L 148.965279 179.837264 
L 148.806078 179.905405 
L 148.729457 180.0263 
L 148.639214 180.129612 
L 148.44681 180.147197 
L 148.287608 180.07246 
L 148.004111 179.817481 
L 147.852571 179.736153 
L 147.74866 179.700276 
L 146.267366 179.188851 
L 135.607673 178.694324 
L 123.928068 178.632784 
L 115.349633 178.587595 
L 112.24591 178.571245 
L 100.568008 178.507508 
L 97.917861 178.493546 
L 88.887552 178.44597 
L 87.276806 178.437178 
L 86.331813 178.617399 
L 85.477063 179.109725 
L 83.563239 180.850622 
L 81.559172 182.01357 
L 79.810004 183.640319 
L 79.715158 183.728534 
L 71.397516 188.65501 
L 70.261821 188.956386 
L 64.579843 188.532032 
L 64.253027 188.507624 
L 61.637695 188.743002 
L 61.004294 188.595616 
L 58.944038 187.722334 
L 57.77429 187.590357 
L 55.284957 188.138069 
L 55.061904 188.261253 
L 54.918878 188.402036 
L 54.763934 188.481227 
L 54.493206 188.421834 
L 53.781481 188.065479 
L 53.429024 187.984091 
L 53.083378 188.076478 
L 50.808584 189.638363 
L 48.169414 191.442497 
L 47.171637 191.957388 
L 45.511514 191.974991 
L 43.791797 192.518513 
L 43.183936 192.54932 
L 38.717779 192.170832 
L 37.507166 192.540518 
L 36.755257 193.200667 
L 36.538496 192.662848 
L 36.382975 192.099724 
L 36.238179 191.228234 
L 36.02903 190.938908 
L 35.534311 190.498868 
L 34.776815 189.563407 
L 34.438958 189.012561 
L 34.299525 188.463473 
L 34.299525 186.691677 
L 34.371923 186.307219 
L 34.696373 185.933164 
L 34.770112 185.543536 
L 35.011438 185.095048 
L 36.648434 183.855305 
L 37.36705 183.82414 
L 38.390004 183.933218 
L 39.492061 183.060626 
L 39.844665 182.688409 
L 40.032363 182.342173 
L 40.175818 181.985561 
L 40.393012 181.583953 
L 41.654612 180.420755 
L 42.260609 181.313914 
L 42.727172 182.927319 
L 43.184352 183.290886 
L 43.204462 182.629548 
L 43.542319 182.110201 
L 44.125524 181.899006 
L 44.773082 182.082503 
L 45.87782 182.878844 
L 46.869939 183.225097 
L 47.96127 183.876082 
L 48.533749 183.933218 
L 49.181308 183.538465 
L 49.973662 182.297163 
L 50.556867 181.899006 
L 51.323748 181.940552 
L 51.976669 182.240035 
L 52.62825 182.328324 
L 53.380383 181.741478 
L 53.763824 181.54587 
L 54.019898 181.918048 
L 54.212959 182.458161 
L 54.401998 182.769777 
L 56.9681 181.556256 
L 57.558008 181.379692 
L 58.347681 181.317376 
L 58.858488 181.126968 
L 59.284831 180.732314 
L 59.775528 180.413832 
L 60.496825 180.448449 
L 61.074667 180.843093 
L 61.947463 181.720705 
L 62.470337 182.248691 
L 62.746521 182.639936 
L 63.129962 182.726496 
L 65.241566 182.769777 
L 65.444012 182.95675 
L 65.870355 183.522883 
L 66.028557 183.642346 
L 66.31949 183.592137 
L 67.164131 183.325512 
L 67.542209 183.029463 
L 67.90822 182.468548 
L 68.374784 182.130974 
L 69.063905 182.508365 
L 69.243559 182.312743 
L 69.452708 182.182908 
L 69.66588 182.177714 
L 70.116355 182.591462 
L 70.308075 182.549914 
L 70.477004 182.446043 
L 70.659339 182.508365 
L 70.916754 182.884038 
L 71.137969 183.605988 
L 71.314942 183.933218 
L 71.528113 184.180811 
L 71.764077 184.360882 
L 72.061712 184.471696 
L 72.461241 184.485548 
L 72.835297 184.388585 
L 74.340904 183.602525 
L 74.94422 182.823445 
L 75.956449 181.159856 
L 76.333186 180.806743 
L 76.668361 180.58865 
L 76.907006 180.292673 
L 76.998174 179.707665 
L 76.809135 179.448056 
L 76.448486 179.249026 
L 76.247381 179.018848 
L 76.528928 178.677918 
L 76.20716 177.714022 
L 75.906843 176.419731 
L 75.799587 175.09445 
L 76.081134 174.032264 
L 76.461893 173.741652 
L 76.93382 173.720894 
L 77.428539 173.776248 
L 77.879014 173.715704 
L 78.337534 173.461425 
L 78.649918 173.15526 
L 78.856386 172.766079 
L 79.005203 172.264489 
L 79.682257 173.098179 
L 80.301661 173.323044 
L 80.722641 172.875048 
L 80.803084 171.686823 
L 80.293617 172.361346 
L 79.808283 172.34059 
L 79.310883 172.065588 
L 78.778625 171.973922 
L 78.281225 172.252381 
L 77.46876 173.008234 
L 76.877511 173.163908 
L 76.543676 173.165638 
L 76.048957 173.253855 
L 75.601163 173.551374 
L 75.405421 174.177574 
L 75.405421 176.644664 
L 75.778136 178.240088 
L 75.835786 178.677918 
L 75.855897 179.371905 
L 75.831764 179.714588 
L 75.732552 179.998434 
L 74.934835 180.869057 
L 74.681442 181.284487 
L 73.021654 183.193934 
L 72.584586 183.540197 
L 72.193101 183.564435 
L 71.849882 183.370526 
L 71.56029 183.060626 
L 71.747988 181.788217 
L 70.747825 181.213516 
L 68.410983 180.735776 
L 66.824934 182.013258 
L 66.24307 182.188101 
L 66.130451 182.053074 
L 65.985655 181.753596 
L 65.748351 181.452394 
L 65.354185 181.317376 
L 64.951975 181.409119 
L 64.395584 181.80899 
L 63.994714 181.899006 
L 63.612614 181.763982 
L 63.116555 181.438546 
L 62.296046 180.735776 
L 62.257165 180.526338 
L 62.298727 180.22517 
L 62.314815 179.955164 
L 62.191471 179.840933 
L 61.754402 179.76651 
L 61.525143 179.679973 
L 61.376325 179.576129 
L 61.169857 179.223066 
L 60.720722 178.096455 
L 60.600059 177.952825 
L 60.44856 177.873224 
L 60.322534 177.724405 
L 60.197848 176.817692 
L 60.027579 176.329759 
L 59.823793 176.329759 
L 59.823793 176.644664 
L 59.775528 176.819422 
L 59.421583 177.691527 
L 59.268743 177.966669 
L 59.145398 179.416903 
L 58.225677 180.157668 
L 56.876932 180.448449 
L 56.52835 180.638846 
L 55.849955 181.2014 
L 55.64885 181.317376 
L 55.300267 181.268908 
L 54.50255 181.002339 
L 53.257039 181.002339 
L 52.887005 181.11312 
L 52.258217 181.466243 
L 51.905612 181.583953 
L 51.508765 181.583953 
L 50.444248 181.317376 
L 50.086281 181.409119 
L 49.627761 181.80899 
L 49.330125 181.899006 
L 49.217506 182.099814 
L 49.055282 182.556838 
L 48.830044 183.03985 
L 48.533749 183.325512 
L 47.182322 182.769777 
L 46.08831 181.980367 
L 45.577503 181.438546 
L 45.362991 180.869057 
L 45.231602 180.770394 
L 44.929944 180.650962 
L 44.625605 180.462296 
L 44.46338 180.157668 
L 44.518349 179.735357 
L 44.727499 179.358059 
L 45.030497 179.088074 
L 45.362991 178.99462 
L 45.362991 178.677918 
L 44.856206 178.662342 
L 44.535778 178.340458 
L 44.350762 177.824771 
L 44.238143 177.22605 
L 44.012905 180.735776 
L 43.764875 180.735776 
L 43.329147 179.996703 
L 42.118494 178.672726 
L 41.968336 177.835154 
L 41.582214 178.226243 
L 41.327481 178.698685 
L 41.027164 179.093266 
L 40.505631 179.25941 
L 40.111465 179.15557 
L 39.844665 178.864823 
L 39.713276 178.413141 
L 39.737409 177.835154 
L 40.203973 176.724256 
L 40.860917 175.890292 
L 41.292622 174.924909 
L 41.088836 173.4251 
L 40.941359 174.577184 
L 40.863598 174.904149 
L 40.686625 175.277835 
L 40.533786 175.461222 
L 40.376923 175.584059 
L 39.721321 176.350522 
L 39.442455 176.788277 
L 39.305703 177.338524 
L 39.265482 178.241818 
L 39.501446 179.749203 
L 39.431729 180.444987 
L 38.43961 180.983298 
L 36.998357 182.508365 
L 35.892278 182.9983 
L 35.2836 182.541258 
L 35.027526 181.440277 
L 34.972557 179.998434 
L 35.152211 178.496207 
L 35.675085 177.001105 
L 36.523749 176.163659 
L 37.67407 176.644664 
L 37.726357 176.014863 
L 37.255771 175.551187 
L 36.573354 175.378178 
L 35.994172 175.630772 
L 35.315777 176.68446 
L 34.93904 177.02706 
L 34.522082 176.911129 
L 34.717824 176.565072 
L 34.784859 176.198263 
L 34.717824 175.838387 
L 34.522082 175.485443 
L 35.238016 174.222551 
L 35.381471 173.592889 
L 35.219246 172.845644 
L 34.972557 172.845644 
L 34.818377 173.316125 
L 34.593139 173.523697 
L 34.388012 173.361099 
L 34.299525 172.714189 
L 34.379968 172.205683 
L 34.577051 171.66261 
L 35.752845 169.452547 
L 35.872168 168.91307 
L 35.83865 168.37016 
L 35.683129 167.374321 
L 35.64693 166.886808 
L 35.720669 165.998276 
L 36.045118 164.23353 
L 36.117516 163.101547 
L 36.066569 162.406863 
L 35.924455 162.050898 
L 35.974745 161.072918 
L 36.093933 160.597861 
L 36.303364 160.251181 
L 36.824388 159.60393 
L 36.928252 159.195852 
L 37.415221 158.158177 
L 38.564537 157.83461 
L 39.998202 157.852159 
L 45.428082 157.914678 
L 50.433992 157.971714 
L 57.723209 158.055073 
L 62.017395 158.103335 
L 64.135788 158.128146 
L 65.01413 158.138434 
L 66.24858 158.151596 
L 66.46993 157.946486 
L 66.531227 154.922946 
L 66.543507 154.261036 
L 66.599334 151.252429 
L 66.730442 150.653953 
L 67.111844 150.388705 
L 69.408774 150.110312 
L 70.888411 149.516285 
L 71.303868 149.503133 
L 73.525879 149.776031 
L 74.063929 149.70808 
L 75.054895 149.290519 
L 75.815997 148.767771 
L 76.587316 148.402849 
L 77.615741 148.459833 
L 81.210121 149.424225 
L 82.424139 149.422033 
L 83.496834 149.173255 
L 84.576339 148.670238 
L 85.523035 147.877953 
L 86.200706 146.766882 
L 86.399921 145.594578 
L 86.524217 142.972164 
L 86.985646 142.030273 
L 87.730939 141.057892 
L 88.417609 140.162076 
L 89.170198 139.781032 
L 90.076029 140.522329 
L 91.555667 142.269023 
L 93.191953 143.761886 
L 93.197061 143.764077 
L 93.203872 143.770649 
L 93.20898 143.77503 
L 95.362883 145.159655 
L 96.476443 145.526655 
L 97.738136 145.655929 
L 98.233619 145.838889 
L 99.33526 146.689089 
L 99.939715 146.936712 
L 100.61398 147.098876 
L 100.966437 147.372806 
L 101.630486 148.53983 
L 102.549939 149.573275 
L 103.65158 150.159633 
L 104.855382 150.340479 
L 106.076211 150.159633 
L 107.143798 149.822062 
L 107.520092 149.990846 
L 108.463228 151.096586 
L 108.768165 151.454121 
L 109.205756 151.767628 
L 109.682509 151.941924 
L 110.719448 151.994542 
L 111.157891 152.150206 
L 111.526523 152.631464 
L 111.778521 153.057927 
L 112.090113 153.410951 
L 112.439165 153.712456 
L 113.640413 154.496408 
L 114.501974 154.804523 
L 115.393333 154.892244 
L 117.267144 154.683907 
L 119.05582 155.107164 
L 120.009326 155.065495 
L 120.729565 154.617021 
L 122.312215 153.112744 
L 122.805995 152.833182 
L 123.376397 152.841953 
L 124.790481 152.196248 
L 126.11858 152.176516 
L 127.44157 151.728165 
L 129.930903 151.458505 
L 131.562932 150.55969 
L 132.501115 148.759004 
L 132.627965 146.589384 
L 131.837917 144.584531 
L 131.505041 144.238377 
L 130.75756 143.683021 
L 130.526105 143.434161 
L 130.457035 143.359898 
L 130.285914 143.002832 
L 130.075632 142.198931 
L 129.905363 141.829858 
L 129.353691 141.26368 
L 128.562792 140.75776 
L 127.725919 140.390928 
L 127.033776 140.23982 
L 126.591928 140.329609 
L 125.921068 140.825652 
L 125.533705 141.042474 
L 125.189762 141.110368 
L 124.616807 141.049044 
L 124.262647 141.064375 
L 123.594341 141.274631 
L 122.070433 142.256976 
L 120.169379 142.798018 
L 119.544492 143.138647 
L 117.718357 144.571386 
L 115.783249 145.441203 
L 115.211996 145.614298 
L 114.610095 145.509126 
L 113.818344 145.041341 
L 111.427806 142.888401 
L 111.159593 142.646873 
L 110.826717 142.190169 
L 110.61303 141.621781 
L 110.172884 139.781032 
L 109.859589 138.970812 
L 109.414336 138.269038 
L 108.776678 137.626426 
L 107.361742 136.794484 
L 106.006401 136.66532 
L 104.671491 137.115211 
L 102.648695 138.537261 
L 102.241752 138.701483 
L 101.780323 138.492374 
L 100.426684 137.462222 
L 100.198524 137.139294 
L 99.558312 134.390988 
L 99.263747 133.61074 
L 98.846588 132.888544 
L 98.308171 132.34144 
L 97.68365 131.706879 
L 96.479848 131.204713 
L 93.152791 131.016544 
L 91.191292 130.082315 
L 90.486378 130.038559 
L 88.083882 131.147825 
L 85.601359 133.140213 
L 84.899851 133.349212 
L 84.620609 133.084407 
L 83.982101 132.019788 
L 83.673914 131.652176 
L 82.247059 131.365535 
L 80.721448 132.090905 
L 79.328648 133.375474 
L 78.301925 134.768549 
L 77.935847 135.489784 
L 77.595309 136.376349 
L 77.3365 137.307872 
L 77.296013 137.596766 
L 77.215609 138.170509 
L 77.149204 139.853298 
L 76.631586 140.072289 
L 75.019138 140.065719 
L 72.974207 140.054769 
L 70.925871 140.046009 
L 68.880939 140.03506 
L 66.832603 140.0263 
L 64.785969 140.01535 
L 62.741038 140.006591 
L 60.692701 139.995641 
L 58.646068 139.986882 
L 57.943283 139.984624 
L 56.601136 139.980312 
L 54.554503 139.969362 
L 52.509571 139.960603 
L 50.461235 139.949653 
L 48.414601 139.940893 
L 46.36967 139.929944 
L 44.323036 139.921184 
L 42.258991 139.91064 
L 42.255246 139.902613 
L 41.930796 139.28015 
L 41.764549 138.837034 
L 41.786 137.647441 
L 42.349095 136.98719 
L 43.177648 136.449366 
L 44.012905 135.628895 
L 43.837273 135.50652 
L 43.498076 135.187661 
L 43.317081 135.077355 
L 43.73538 134.575825 
L 44.043741 133.929558 
L 43.988772 133.416021 
L 43.317081 133.314351 
L 43.405567 133.991598 
L 43.244683 134.811937 
L 42.89476 135.387593 
L 42.418811 135.341057 
L 42.182848 136.230453 
L 41.6707 136.832045 
L 41.024482 137.059591 
L 40.393012 136.81136 
L 39.81517 136.049465 
L 39.669033 135.268667 
L 39.942536 133.603856 
L 40.00689 132.557886 
L 40.094036 132.135738 
L 40.393012 131.579218 
L 41.563444 129.839214 
L 41.764549 129.24148 
L 41.95761 129.398231 
L 42.472439 129.701405 
L 42.662819 129.846105 
L 42.58908 129.653172 
L 42.418811 128.9521 
L 43.562429 128.692009 
L 43.618739 129.529146 
L 43.856043 130.321562 
L 44.230098 130.800487 
L 44.708729 130.688506 
L 44.459358 129.722076 
L 44.403049 128.652394 
L 44.262275 127.806718 
L 43.764875 127.507046 
L 43.940507 126.935281 
L 44.655101 122.995817 
L 44.708729 122.30898 
L 43.988772 123.631054 
L 43.687114 124.457439 
L 43.427018 126.208568 
L 43.089162 127.255603 
L 42.653434 127.951391 
L 42.212343 127.796384 
L 41.968336 127.796384 
L 41.638523 128.364753 
L 41.056659 128.585219 
L 40.372901 128.698899 
L 39.737409 128.9521 
L 39.383464 129.324162 
L 39.265482 129.675566 
L 39.210514 130.035596 
L 39.042926 130.424925 
L 38.863272 130.631654 
L 38.485194 130.903855 
L 38.268001 131.134714 
L 37.939529 131.913471 
L 37.690158 132.196044 
L 37.356324 132.001343 
L 37.251749 131.589556 
L 37.249068 131.0658 
L 37.187396 130.61615 
L 36.885738 130.424925 
L 36.466098 130.052823 
L 36.294489 129.215642 
L 36.338732 128.32686 
L 36.567992 127.796384 
L 36.366887 127.217715 
L 36.227454 126.559864 
L 36.117516 125.196079 
L 36.149693 124.4781 
L 36.262312 124.066619 
L 36.466098 123.787718 
L 37.223594 123.030246 
L 37.609716 122.84433 
L 38.032037 122.82023 
L 39.001364 122.959667 
L 39.461225 123.14042 
L 39.774949 123.481279 
L 39.737409 124.042517 
L 40.19861 123.522596 
L 40.56194 122.897695 
L 41.02046 122.555134 
L 41.764549 122.887366 
L 41.752483 121.956112 
L 42.011238 121.539572 
L 42.428196 121.281395 
L 42.886716 120.840788 
L 42.476461 121.019782 
L 42.030008 121.136819 
L 41.614391 121.033551 
L 41.292622 120.575745 
L 42.782141 119.417555 
L 43.317081 118.817001 
L 44.172448 117.502449 
L 44.640353 116.996634 
L 45.698166 116.611269 
L 46.210314 115.799298 
L 46.609843 115.613517 
L 46.884687 115.775215 
L 47.148805 116.084856 
L 47.422308 116.270646 
L 47.745417 116.060773 
L 47.945181 115.871547 
L 48.47878 115.551591 
L 48.738876 115.324532 
L 46.663471 115.226486 
L 45.773245 114.801629 
L 45.832236 113.884894 
L 45.312044 114.223715 
L 45.118983 114.834309 
L 45.220877 115.474184 
L 45.588229 115.902511 
L 45.179315 116.188072 
L 44.840117 116.155387 
L 44.510305 115.998844 
L 44.125524 115.902511 
L 43.847999 116.033249 
L 43.730017 116.35322 
L 43.662982 116.742016 
L 43.562429 117.084376 
L 42.716447 118.958102 
L 42.418811 119.395184 
L 42.080955 119.587919 
L 41.367702 119.799588 
L 40.976217 120.128285 
L 40.686625 120.592955 
L 40.276371 121.575718 
L 39.942536 121.99398 
L 39.202469 122.303816 
L 38.502623 122.128241 
L 37.790711 121.818411 
L 36.998357 121.730628 
L 37.771941 119.99061 
L 37.796074 119.684288 
L 38.351124 119.484668 
L 39.265482 118.211322 
L 38.824392 118.374783 
L 38.398049 119.200732 
L 38.032037 119.395184 
L 37.304037 119.422717 
L 37.015786 119.505318 
L 36.773119 119.684288 
L 37.160582 120.248753 
L 37.128405 120.627376 
L 36.567992 121.441464 
L 36.471461 121.766774 
L 36.386997 122.37267 
L 36.219409 122.727274 
L 35.565147 123.663764 
L 35.423033 124.042517 
L 35.272874 125.230515 
L 35.423033 129.24148 
L 35.219246 129.24148 
L 35.023504 121.119607 
L 34.858598 119.894238 
L 34.312932 117.8586 
L 33.712298 116.35322 
L 33.418685 115.902511 
L 32.98832 115.651361 
L 32.130271 115.410539 
L 31.80314 115.038996 
L 31.632871 114.430109 
L 31.352664 112.151417 
L 31.138152 111.429226 
L 30.872693 110.897933 
L 30.249267 110.107066 
L 29.963698 109.911078 
L 29.746505 109.852626 
L 29.60439 109.677273 
L 29.553444 109.123728 
L 29.593665 108.690542 
L 29.759912 107.860321 
L 29.798792 107.377347 
L 29.637908 106.67957 
L 29.239719 105.930289 
L 28.204698 104.624341 
L 25.847746 103.236106 
L 25.485756 102.751646 
L 25.298058 102.195062 
L 24.13433 100.015418 
L 23.265555 97.111715 
L 21.93558 94.828526 
L 20.989045 93.742058 
L 20.423269 93.256363 
L 19.77571 92.882241 
L 19.061117 92.732939 
L 18.527518 92.545886 
L 17.130507 91.632985 
L 16.915995 91.320697 
L 15.827346 91.337855 
L 14.880811 91.193725 
L 14.054939 91.262358 
L 13.316213 91.92126 
L 13.593738 92.326233 
L 13.990585 92.473812 
L 13.743896 93.088178 
L 13.316213 93.338741 
L 13.428832 93.472606 
L 13.631277 93.7781 
L 13.743896 93.911971 
L 13.54011 94.516132 
L 13.428832 94.557326 
L 13.316213 94.802779 
L 12.883166 94.452625 
L 10.668328 91.035872 
L 10.145455 90.431933 
L 15.584679 88.623782 
L 17.19352 86.990913 
L 22.10853 84.386117 
L 23.238741 83.252856 
L 28.47552 75.496912 
L 29.523948 73.561517 
L 31.819228 70.395548 
L 36.401745 60.33311 
L 38.691662 56.575216 
L 42.999335 47.65192 
L 43.152175 47.231862 
L 43.095865 46.799873 
L 42.886716 46.205709 
L 43.631744 44.630363 
L 43.955255 42.317532 
L 44.033579 37.752213 
L 44.229388 37.271339 
L 44.684006 35.419572 
L 45.25611 33.730591 
L 45.402542 30.894723 
L 45.640918 30.052804 
L 46.121077 29.54423 
L 47.336798 29.187164 
L 47.851011 28.771689 
L 48.058739 28.345415 
L 48.200062 27.854253 
L 49.548593 20.771295 
L 49.720565 19.102537 
L 49.969157 18.31799 
L 50.425478 17.533517 
L 51.033339 16.809621 
L 51.734847 16.284565 
L 52.485734 16.098751 
L 53.575456 16.353707 
L 53.944939 16.386117 
L 54.319531 16.304011 
L 54.654961 16.111715 
L 55.623792 15.26696 
L 56.001789 15.050924 
L 56.398516 14.964511 
L 56.813973 15.063886 
L 57.117052 15.290724 
L 57.360536 15.599666 
L 57.758966 16.325618 
L 58.317448 17.049472 
L 58.984903 17.444918 
L 59.728979 17.550805 
L 60.515622 17.414664 
L 60.750593 17.209377 
L 60.983862 17.060276 
L 61.230752 17.008416 
L 61.504885 17.088368 
L 61.930557 17.295813 
L 62.138286 17.319583 
L 62.38177 17.261238 
L 63.687734 16.548169 
L 64.152568 16.483348 
L 65.303587 16.824746 
L 65.581126 16.824746 
L 66.393309 16.645402 
L 66.91944 16.677814 
L 68.409294 17.276365 
L 69.478584 17.349836 
L 69.757825 17.451401 
L 70.535955 17.905214 
L 71.05187 18.067296 
L 71.557569 18.032719 
L 72.044538 17.831738 
L 72.499157 17.477332 
L 73.227908 16.658367 
L 73.617824 16.362349 
L 74.120118 16.265119 
L 75.535054 16.621634 
L 76.022023 16.563294 
L 76.413642 16.325618 
L 76.730342 15.960474 
L 77.530607 14.556223 
L 77.939252 14.111233 
L 78.417708 13.847707 
L 78.916597 13.901707 
L 79.226486 14.214918 
L 79.415485 14.640471 
L 79.64024 15.031481 
L 80.047183 15.245356 
L 80.53245 15.232394 
L 80.995582 15.08981 
L 82.383274 14.381248 
L 82.897487 14.24516 
L 83.954858 14.199797 
L 85.514522 14.502218 
L 86.045761 14.478456 
L 89.583952 13.795867 
L 90.27865 13.476192 
L 90.493189 13.303401 
L 90.634512 13.065818 
L 90.646431 12.754811 
L 90.537459 12.489168 
L 90.004516 11.852093 
L 89.808707 11.292803 
L 89.875112 10.752985 
L 90.161164 10.340587 
L 90.631107 10.182975 
L 91.106157 10.35786 
L 91.404128 10.763781 
L 91.662937 11.243139 
L 92.00688 11.644784 
L 92.243554 11.7398 
L 92.488742 11.711727 
L 92.72201 11.590799 
L 92.926333 11.402931 
L 93.088089 11.145969 
L 93.161304 10.87606 
L 93.265169 10.290928 
L 93.478005 9.904461 
L 93.81684 9.628116 
L 94.552402 9.254634 
L 94.926994 9.487789 
L 95.357775 10.051273 
L 95.388218 10.124967 
L 95.638719 10.731393 
L 95.98096 11.260413 
L 96.58882 11.374859 
L 97.593408 11.08119 
L 103.220799 11.577842 
L 103.600499 11.521697 
L 104.714059 11.165403 
L 105.040975 11.154606 
L 105.330433 11.253935 
L 106.256696 11.791628 
L 106.619369 11.869369 
L 106.983745 11.854253 
L 108.363776 11.377018 
L 108.715381 11.366222 
L 110.051142 11.707408 
L 110.407855 11.716046 
L 110.760312 11.666379 
L 111.104256 11.551929 
L 111.430321 11.368381 
L 112.294436 10.733552 
L 112.610285 10.582409 
L 113.256456 10.532749 
L 115.344806 11.541132 
L 115.599358 11.754917 
L 115.737276 12.065886 
L 115.723655 12.523723 
L 115.54998 13.31852 
L 115.606169 13.638188 
L 115.914356 13.808827 
L 117.176901 13.670587 
L 117.496155 13.856347 
L 117.607682 14.180356 
L 117.6511 14.927786 
L 117.822221 15.251837 
L 118.165313 15.448434 
L 118.955361 15.515408 
L 119.330804 15.597506 
L 119.598127 15.791951 
L 120.157461 16.690778 
L 120.39158 16.956556 
L 121.172264 17.635084 
L 122.290932 19.234382 
L 124.248174 21.409057 
L 125.342153 22.185246 
L 125.565205 22.438225 
L 126.140715 23.283709 
L 126.433577 23.517259 
L 127.081451 23.826507 
L 127.38453 24.031957 
L 127.582042 24.315271 
L 127.605028 24.607245 
L 127.3973 25.251788 
L 127.336003 25.606524 
L 127.40326 25.879075 
L 127.727622 26.400408 
L 127.872351 26.776826 
L 127.88427 27.129462 
L 127.715703 27.880217 
L 127.838297 28.548812 
L 128.399333 28.923162 
L 129.691675 29.388417 
L 129.963255 29.585347 
L 130.482575 30.070117 
L 130.699668 30.357963 
L 130.863126 30.697762 
L 131.141516 31.825476 
L 131.298164 32.225948 
L 131.505892 32.593965 
L 131.767255 32.905711 
L 132.066077 33.135197 
L 132.344467 33.221797 
L 132.611789 33.189322 
L 132.87145 33.072412 
L 133.411203 32.68922 
L 133.942442 32.186982 
L 134.167197 31.883922 
L 134.752071 30.840612 
L 135.000664 30.546258 
L 135.279905 30.347141 
L 135.570214 30.247585 
L 135.875847 30.228106 
L 136.190845 30.273556 
L 136.123588 30.810311 
L 135.936276 31.513143 
L 135.78901 32.065757 
L 135.894576 32.505207 
L 136.050373 32.624274 
L 136.391762 32.788805 
L 136.540747 32.92303 
L 136.577355 32.994473 
L 136.628436 33.143857 
L 136.671003 33.204477 
L 136.75103 33.262933 
L 136.952799 33.358194 
L 137.043892 33.418816 
L 137.260134 33.652646 
L 137.332499 33.706775 
L 137.562362 33.756573 
L 137.777752 33.685123 
L 138.680178 33.091897 
L 138.870028 33.042103 
L 139.488956 33.037773 
L 139.604739 33.022618 
L 139.854183 32.929525 
L 140.853662 32.396966 
L 142.588704 31.942369 
L 143.037363 31.717244 
L 143.219551 31.647976 
L 143.407698 31.639317 
L 143.625642 31.693433 
L 143.686088 32.277902 
L 143.133565 33.550886 
L 143.073119 34.200441 
L 143.407698 34.48193 
L 144.608946 33.903805 
L 145.10528 33.918961 
L 145.268738 34.141979 
L 145.533507 34.707128 
L 145.696114 34.951821 
L 146.602796 35.703267 
L 146.80116 36.004297 
L 146.88374 36.326996 
L 146.916943 37.061235 
L 146.962064 37.383973 
L 147.420088 38.796368 
L 147.632073 39.231831 
L 147.880665 39.63265 
L 148.170123 40.000986 
L 149.001887 40.781044 
L 149.194291 41.103923 
L 149.266655 41.452818 
L 149.246223 41.810396 
L 149.120224 42.519095 
L 149.120224 42.863712 
L 149.190886 43.145485 
L 149.331358 43.396921 
L 149.928151 44.255326 
L 150.221013 44.901354 
L 150.379364 45.616809 
L 150.388728 46.42773 
L 150.315513 46.781177 
L 150.205689 47.136806 
L 150.132474 47.49245 
L 150.175892 47.850277 
L 150.346161 48.136549 
L 150.576876 48.359934 
L 151.080872 48.724303 
L 151.344789 48.97807 
L 151.566139 49.270886 
L 151.941582 49.949823 
L 152.082905 50.299073 
L 152.120365 50.607119 
L 152.062473 50.915176 
L 151.564436 51.876296 
L 151.443545 52.216944 
L 151.407789 52.590153 
L 151.455464 52.943848 
L 151.767056 53.987657 
L 152.262539 53.970295 
L 153.250951 53.755447 
L 153.73111 53.788 
L 153.967784 53.907359 
L 154.577347 54.451009 
L 154.818277 54.571462 
L 155.576826 54.825397 
L 155.988877 55.122749 
L 156.341334 55.523214 
L 156.578859 56.017036 
L 156.656332 56.608573 
L 156.470738 58.189095 
L 156.474995 58.554956 
L 156.536292 58.912147 
L 156.652075 59.297582 
L 156.841166 59.477841 
L 157.849918 59.799215 
L 158.322414 59.724294 
L 158.820451 59.343184 
L 159.25634 58.90889 
L 159.740755 58.575584 
L 160.256671 58.488731 
L 160.779397 58.788377 
L 160.987125 59.099977 
L 161.088435 59.46479 
L 161.221245 60.626645 
L 161.330217 60.912246 
L 161.66139 61.45198 
L 161.809524 61.76693 
L 161.871672 62.092753 
L 161.87678 63.500443 
L 162.001928 64.185903 
L 162.273507 64.832303 
L 162.67364 65.365755 
L 164.63599 67.022806 
L 165.055703 67.571602 
L 165.269391 68.259545 
L 165.09146 68.843197 
L 164.544896 68.952975 
L 163.419418 68.808416 
L 163.083988 69.122537 
L 163.282351 69.647546 
L 164.035792 70.581332 
L 164.322695 70.8629 
L 164.615558 70.991185 
L 164.930556 70.998795 
L 165.634618 70.81724 
L 165.982818 70.81724 
L 166.314843 70.934653 
L 166.614516 71.192313 
L 166.78734 71.481511 
L 166.86992 71.804423 
L 166.876731 72.150179 
L 166.6988 73.217976 
L 166.720935 73.549649 
L 166.822245 73.93136 
L 166.860555 74.044463 
L 167.690617 74.373991 
L 167.95179 74.686498 
L 168.92677 75.853207 
L 169.807912 76.317686 
L 169.831652 76.31385 
L 170.171437 76.258945 
L 171.213483 75.864084 
L 171.720034 75.768363 
L 172.027369 75.902155 
L 172.28703 76.224136 
L 172.712702 76.890975 
L 174.52777 78.221536 
L 175.103279 78.761213 
L 175.453182 79.016918 
L 176.224501 79.238898 
L 176.576107 79.48047 
L 176.860456 79.882015 
L 177.017103 80.292284 
L 177.785017 83.653476 
L 177.803746 84.107461 
L 178.258365 84.444971 
L 179.370222 86.090231 
L 179.949988 86.695707 
L 182.023013 87.911134 
z
" clip-path="url(#p058456795d)" style="stroke: #000000; stroke-linejoin: miter"/>
   </g>
   <g id="line2d_1">
    <path d="M 183.85 89.692085 
L 184.101147 90.920975 
L 184.756683 91.652066 
L 185.211301 92.713393 
L 185.71104 92.995635 
L 186.611764 93.15474 
L 186.220145 94.248932 
L 186.298469 94.70997 
L 186.530035 94.950852 
L 186.865465 95.04895 
L 187.11576 95.304011 
L 187.085112 96.008188 
L 186.901221 96.377739 
L 186.015822 97.595504 
L 185.825121 99.000979 
L 185.585041 99.26596 
L 184.961857 99.742508 
L 184.762642 100.469916 
L 184.836709 101.351168 
L 185.308354 104.052143 
L 185.247057 105.88304 
L 185.671879 105.987798 
L 188.743532 107.408688 
L 188.971693 107.962041 
L 188.828667 108.487045 
L 188.341697 108.710808 
L 188.929125 109.81551 
L 189.33096 110.241268 
L 190.630113 110.831902 
L 191.093245 111.219491 
L 191.416756 111.838573 
L 192.632477 115.393321 
L 192.70399 116.329454 
L 192.462208 118.044655 
L 191.721538 121.289055 
L 191.718132 123.044466 
L 192.048454 124.142028 
L 193.774982 126.26425 
L 193.9759 127.060335 
L 193.970792 127.92101 
L 193.774982 129.637109 
L 193.250554 131.527453 
L 192.14721 132.952008 
L 189.336068 134.932711 
L 189.788984 135.417549 
L 190.233386 136.252663 
L 190.911057 137.900106 
L 191.323108 139.429564 
L 192.053562 140.862884 
L 192.658017 141.722534 
L 194.769353 143.761886 
L 195.249512 144.66669 
L 195.593455 144.8814 
L 196.163857 145.072015 
L 196.392017 145.563903 
L 196.320504 146.317666 
L 195.848859 148.590239 
L 195.927183 149.057088 
L 196.21664 149.154624 
L 197.343821 149.931662 
L 197.46982 150.246219 
L 197.82398 151.359851 
L 198.215599 151.767628 
L 198.399489 151.791744 
L 198.579974 151.552776 
L 199.962559 150.237451 
L 200.243503 148.548597 
L 200.575528 147.842887 
L 201.079524 147.5032 
L 201.551169 147.588668 
L 202.305461 148.66695 
L 202.618756 148.71736 
L 203.262373 148.546405 
L 204.091583 148.50805 
L 204.24142 148.693251 
L 204.19715 149.297095 
L 204.283987 149.717943 
L 204.648363 149.769455 
L 205.300493 149.496558 
L 205.303899 150.419395 
L 205.540573 151.242563 
L 206.352756 152.664353 
L 207.098534 153.497564 
L 207.239858 153.90652 
L 207.188777 154.37141 
L 206.768213 155.135674 
L 206.643916 155.594039 
L 206.742672 156.354003 
L 207.757476 157.891645 
L 207.7728 159.375756 
L 207.937961 160.063584 
L 208.520281 160.235822 
L 209.781975 161.274796 
L 210.665671 161.622606 
L 210.628212 161.921051 
L 210.379619 162.489437 
L 211.278639 164.239769 
L 211.564691 164.412074 
L 211.513611 164.590967 
L 211.220748 164.941079 
L 211.137316 166.135277 
L 211.047073 166.557887 
L 211.561286 166.680831 
L 211.942689 166.481048 
L 212.182768 165.996971 
L 212.262794 165.258275 
L 212.53863 165.627068 
L 212.765088 166.549106 
L 212.834898 167.653458 
L 212.724224 167.908156 
L 212.082309 168.368164 
L 211.641312 168.124434 
L 211.425071 168.269354 
L 211.401233 168.529555 
L 211.8235 169.202595 
L 211.379098 170.513659 
L 211.431882 171.38779 
L 211.251396 171.80072 
L 211.265018 172.063202 
L 211.794555 172.457486 
L 212.043147 173.119784 
L 212.143606 174.061127 
L 212.072093 174.523591 
L 211.84223 174.832277 
L 211.84223 175.023424 
L 212.250876 176.21323 
L 211.98185 176.762583 
L 211.091343 177.041664 
L 210.742292 178.160259 
L 210.282565 178.705313 
L 210.313214 179.331718 
L 210.946615 179.78451 
L 211.10837 180.221934 
L 211.115181 180.663771 
L 210.973858 182.459875 
L 211.091343 183.060106 
L 211.009614 183.54823 
L 210.325133 183.950619 
L 210.088459 184.218885 
L 210.692914 184.57292 
L 211.074317 185.417369 
L 211.339936 185.71646 
L 211.321207 185.401975 
L 211.5068 184.948956 
L 211.762203 184.823609 
L 212.305362 186.941496 
L 212.637386 186.176108 
L 213.054545 186.912903 
L 212.988141 187.907103 
L 212.765088 189.031182 
L 212.703791 190.161972 
L 211.794555 190.11577 
L 209.632138 189.125777 
L 208.520281 188.980585 
L 205.681896 189.253371 
L 204.312933 189.576763 
L 201.777627 190.775814 
L 200.53296 191.037642 
L 197.837601 190.894626 
L 197.159931 190.707608 
L 194.83065 189.530564 
L 194.687624 189.603163 
L 194.323248 189.926565 
L 193.070068 190.795616 
L 192.632477 190.907827 
L 191.930968 190.819818 
L 189.943929 189.981566 
L 189.126637 190.014567 
L 188.535804 190.381983 
L 187.444379 191.64713 
L 186.225253 192.509711 
L 180.660861 194.347312 
L 180.127067 194.003977 
L 179.191439 192.181834 
L 178.602308 191.642729 
L 176.481607 190.775814 
L 175.911206 190.742811 
L 175.356129 190.885825 
L 174.712512 191.202663 
L 173.461886 191.981592 
L 172.991943 191.963989 
L 172.871904 191.798957 
L 172.847215 191.501906 
L 172.670986 191.097049 
L 171.743871 189.787963 
L 171.201564 189.231372 
L 170.558799 188.894791 
L 169.881979 188.795798 
L 167.753616 188.947587 
L 167.074243 188.835395 
L 166.737961 188.067679 
L 166.212682 187.746529 
L 165.236189 187.656345 
L 164.921191 187.502374 
L 164.574693 187.099859 
L 164.557666 186.451026 
L 164.572139 186.283875 
L 163.753997 185.373386 
L 162.465911 184.524542 
L 161.268069 184.542134 
L 160.716397 186.237689 
L 160.608276 187.058068 
L 160.228576 187.475979 
L 159.688823 187.52437 
L 159.101395 187.234029 
L 158.462886 187.32421 
L 157.890782 187.251625 
L 157.404664 186.917302 
L 157.024964 186.231091 
L 156.878533 185.404174 
L 156.997721 184.702662 
L 157.488096 183.255793 
L 157.649 181.66841 
L 157.506826 180.868209 
L 157.084558 180.287878 
L 156.582265 180.19116 
L 155.409111 180.33404 
L 154.815723 179.947168 
L 154.506685 180.419769 
L 154.245322 180.193358 
L 153.501246 180.208745 
L 152.951277 180.395589 
L 152.801441 180.298869 
L 152.304255 179.758134 
L 152.055662 179.782312 
L 151.211979 180.037291 
L 150.925076 179.977942 
L 150.241446 179.547122 
L 149.951988 179.573498 
L 148.806078 179.905405 
L 148.639214 180.129612 
L 148.287608 180.07246 
L 147.74866 179.700276 
L 146.267366 179.188851 
L 135.607673 178.694324 
L 87.276806 178.437178 
L 86.331813 178.617399 
L 85.477063 179.109725 
L 83.563239 180.850622 
L 81.559172 182.01357 
L 79.715158 183.728534 
L 71.397516 188.65501 
L 70.261821 188.956386 
L 64.253027 188.507624 
L 61.637695 188.743002 
L 61.004294 188.595616 
L 58.944038 187.722334 
L 57.77429 187.590357 
L 55.061904 188.261253 
L 54.763934 188.481227 
L 54.493206 188.421834 
L 53.429024 187.984091 
L 53.083378 188.076478 
L 48.169414 191.442497 
L 47.171637 191.957388 
L 45.511514 191.974991 
L 43.791797 192.518513 
L 43.183936 192.54932 
L 38.717779 192.170832 
L 37.507166 192.540518 
L 36.755257 193.200667 
L 36.382975 192.099724 
L 36.238179 191.228234 
L 36.02903 190.938908 
L 35.534311 190.498868 
L 34.438958 189.012561 
L 34.299525 188.463473 
L 34.371923 186.307219 
L 34.696373 185.933164 
L 34.770112 185.543536 
L 35.011438 185.095048 
L 36.648434 183.855305 
L 37.36705 183.82414 
L 38.390004 183.933218 
L 39.844665 182.688409 
L 40.393012 181.583953 
L 41.654612 180.420755 
L 42.260609 181.313914 
L 42.727172 182.927319 
L 43.184352 183.290886 
L 43.204462 182.629548 
L 43.542319 182.110201 
L 44.125524 181.899006 
L 44.773082 182.082503 
L 45.87782 182.878844 
L 46.869939 183.225097 
L 47.96127 183.876082 
L 48.533749 183.933218 
L 49.181308 183.538465 
L 49.973662 182.297163 
L 50.556867 181.899006 
L 51.323748 181.940552 
L 51.976669 182.240035 
L 52.62825 182.328324 
L 53.763824 181.54587 
L 54.019898 181.918048 
L 54.401998 182.769777 
L 57.558008 181.379692 
L 58.347681 181.317376 
L 58.858488 181.126968 
L 59.775528 180.413832 
L 60.496825 180.448449 
L 61.074667 180.843093 
L 62.746521 182.639936 
L 63.129962 182.726496 
L 65.241566 182.769777 
L 65.444012 182.95675 
L 66.028557 183.642346 
L 66.31949 183.592137 
L 67.164131 183.325512 
L 67.542209 183.029463 
L 67.90822 182.468548 
L 68.374784 182.130974 
L 69.063905 182.508365 
L 69.452708 182.182908 
L 69.66588 182.177714 
L 70.116355 182.591462 
L 70.659339 182.508365 
L 70.916754 182.884038 
L 71.314942 183.933218 
L 71.764077 184.360882 
L 72.061712 184.471696 
L 72.835297 184.388585 
L 74.340904 183.602525 
L 74.94422 182.823445 
L 75.956449 181.159856 
L 76.907006 180.292673 
L 76.998174 179.707665 
L 76.809135 179.448056 
L 76.247381 179.018848 
L 76.528928 178.677918 
L 76.20716 177.714022 
L 75.906843 176.419731 
L 75.799587 175.09445 
L 76.081134 174.032264 
L 76.461893 173.741652 
L 77.879014 173.715704 
L 78.337534 173.461425 
L 78.649918 173.15526 
L 79.005203 172.264489 
L 79.682257 173.098179 
L 80.301661 173.323044 
L 80.722641 172.875048 
L 80.803084 171.686823 
L 80.293617 172.361346 
L 79.808283 172.34059 
L 79.310883 172.065588 
L 78.778625 171.973922 
L 78.281225 172.252381 
L 77.46876 173.008234 
L 76.543676 173.165638 
L 76.048957 173.253855 
L 75.601163 173.551374 
L 75.405421 174.177574 
L 75.405421 176.644664 
L 75.835786 178.677918 
L 75.831764 179.714588 
L 75.732552 179.998434 
L 74.681442 181.284487 
L 72.584586 183.540197 
L 72.193101 183.564435 
L 71.849882 183.370526 
L 71.56029 183.060626 
L 71.747988 181.788217 
L 70.747825 181.213516 
L 68.410983 180.735776 
L 66.824934 182.013258 
L 66.24307 182.188101 
L 65.748351 181.452394 
L 65.354185 181.317376 
L 64.951975 181.409119 
L 64.395584 181.80899 
L 63.994714 181.899006 
L 63.612614 181.763982 
L 63.116555 181.438546 
L 62.296046 180.735776 
L 62.298727 180.22517 
L 62.314815 179.955164 
L 62.191471 179.840933 
L 61.525143 179.679973 
L 61.376325 179.576129 
L 61.169857 179.223066 
L 60.600059 177.952825 
L 60.322534 177.724405 
L 60.027579 176.329759 
L 59.823793 176.329759 
L 59.775528 176.819422 
L 59.268743 177.966669 
L 59.145398 179.416903 
L 58.225677 180.157668 
L 56.876932 180.448449 
L 56.52835 180.638846 
L 55.64885 181.317376 
L 55.300267 181.268908 
L 54.50255 181.002339 
L 52.887005 181.11312 
L 51.905612 181.583953 
L 51.508765 181.583953 
L 50.444248 181.317376 
L 50.086281 181.409119 
L 49.627761 181.80899 
L 49.330125 181.899006 
L 49.055282 182.556838 
L 48.830044 183.03985 
L 48.533749 183.325512 
L 47.182322 182.769777 
L 46.08831 181.980367 
L 45.577503 181.438546 
L 45.231602 180.770394 
L 44.625605 180.462296 
L 44.46338 180.157668 
L 44.518349 179.735357 
L 44.727499 179.358059 
L 45.030497 179.088074 
L 45.362991 178.99462 
L 45.362991 178.677918 
L 44.856206 178.662342 
L 44.535778 178.340458 
L 44.238143 177.22605 
L 44.012905 180.735776 
L 43.764875 180.735776 
L 43.329147 179.996703 
L 42.118494 178.672726 
L 41.968336 177.835154 
L 41.582214 178.226243 
L 41.027164 179.093266 
L 40.505631 179.25941 
L 40.111465 179.15557 
L 39.844665 178.864823 
L 39.713276 178.413141 
L 39.737409 177.835154 
L 40.203973 176.724256 
L 40.860917 175.890292 
L 41.292622 174.924909 
L 41.088836 173.4251 
L 40.863598 174.904149 
L 40.533786 175.461222 
L 40.376923 175.584059 
L 39.442455 176.788277 
L 39.305703 177.338524 
L 39.265482 178.241818 
L 39.501446 179.749203 
L 39.431729 180.444987 
L 38.43961 180.983298 
L 36.998357 182.508365 
L 35.892278 182.9983 
L 35.2836 182.541258 
L 35.027526 181.440277 
L 34.972557 179.998434 
L 35.152211 178.496207 
L 35.675085 177.001105 
L 36.523749 176.163659 
L 37.67407 176.644664 
L 37.726357 176.014863 
L 37.255771 175.551187 
L 36.573354 175.378178 
L 35.994172 175.630772 
L 35.315777 176.68446 
L 34.93904 177.02706 
L 34.522082 176.911129 
L 34.717824 176.565072 
L 34.784859 176.198263 
L 34.717824 175.838387 
L 34.522082 175.485443 
L 35.238016 174.222551 
L 35.381471 173.592889 
L 35.219246 172.845644 
L 34.972557 172.845644 
L 34.818377 173.316125 
L 34.593139 173.523697 
L 34.388012 173.361099 
L 34.299525 172.714189 
L 34.577051 171.66261 
L 35.752845 169.452547 
L 35.872168 168.91307 
L 35.720669 165.998276 
L 36.045118 164.23353 
L 36.066569 162.406863 
L 35.924455 162.050898 
L 36.093933 160.597861 
L 36.303364 160.251181 
L 36.824388 159.60393 
L 36.928252 159.195852 
L 37.415221 158.158177 
L 38.564537 157.83461 
L 66.24858 158.151596 
L 66.46993 157.946486 
L 66.599334 151.252429 
L 66.730442 150.653953 
L 67.111844 150.388705 
L 69.408774 150.110312 
L 70.888411 149.516285 
L 71.303868 149.503133 
L 73.525879 149.776031 
L 74.063929 149.70808 
L 75.054895 149.290519 
L 75.815997 148.767771 
L 76.587316 148.402849 
L 77.615741 148.459833 
L 81.210121 149.424225 
L 82.424139 149.422033 
L 83.496834 149.173255 
L 84.576339 148.670238 
L 85.523035 147.877953 
L 86.200706 146.766882 
L 86.399921 145.594578 
L 86.524217 142.972164 
L 86.985646 142.030273 
L 88.417609 140.162076 
L 89.170198 139.781032 
L 90.076029 140.522329 
L 91.555667 142.269023 
L 93.20898 143.77503 
L 95.362883 145.159655 
L 96.476443 145.526655 
L 97.738136 145.655929 
L 98.233619 145.838889 
L 99.33526 146.689089 
L 100.966437 147.372806 
L 101.630486 148.53983 
L 102.549939 149.573275 
L 103.65158 150.159633 
L 104.855382 150.340479 
L 106.076211 150.159633 
L 107.143798 149.822062 
L 107.520092 149.990846 
L 108.768165 151.454121 
L 109.205756 151.767628 
L 109.682509 151.941924 
L 110.719448 151.994542 
L 111.157891 152.150206 
L 112.439165 153.712456 
L 113.640413 154.496408 
L 114.501974 154.804523 
L 115.393333 154.892244 
L 117.267144 154.683907 
L 119.05582 155.107164 
L 120.009326 155.065495 
L 120.729565 154.617021 
L 122.312215 153.112744 
L 122.805995 152.833182 
L 123.376397 152.841953 
L 124.790481 152.196248 
L 126.11858 152.176516 
L 127.44157 151.728165 
L 129.930903 151.458505 
L 131.562932 150.55969 
L 132.501115 148.759004 
L 132.627965 146.589384 
L 131.837917 144.584531 
L 131.505041 144.238377 
L 130.457035 143.359898 
L 130.285914 143.002832 
L 129.905363 141.829858 
L 129.353691 141.26368 
L 128.562792 140.75776 
L 127.725919 140.390928 
L 127.033776 140.23982 
L 126.591928 140.329609 
L 125.533705 141.042474 
L 125.189762 141.110368 
L 124.262647 141.064375 
L 123.594341 141.274631 
L 122.070433 142.256976 
L 120.169379 142.798018 
L 119.544492 143.138647 
L 117.718357 144.571386 
L 115.211996 145.614298 
L 114.610095 145.509126 
L 113.818344 145.041341 
L 111.159593 142.646873 
L 110.826717 142.190169 
L 110.61303 141.621781 
L 110.172884 139.781032 
L 109.859589 138.970812 
L 109.414336 138.269038 
L 108.776678 137.626426 
L 107.361742 136.794484 
L 106.006401 136.66532 
L 104.671491 137.115211 
L 102.241752 138.701483 
L 101.780323 138.492374 
L 100.426684 137.462222 
L 100.198524 137.139294 
L 99.263747 133.61074 
L 98.846588 132.888544 
L 97.68365 131.706879 
L 96.479848 131.204713 
L 93.152791 131.016544 
L 91.191292 130.082315 
L 90.486378 130.038559 
L 88.083882 131.147825 
L 85.601359 133.140213 
L 84.899851 133.349212 
L 84.620609 133.084407 
L 83.673914 131.652176 
L 82.247059 131.365535 
L 80.721448 132.090905 
L 79.328648 133.375474 
L 78.301925 134.768549 
L 77.595309 136.376349 
L 77.296013 137.596766 
L 77.215609 138.170509 
L 77.149204 139.853298 
L 76.631586 140.072289 
L 42.255246 139.902613 
L 41.764549 138.837034 
L 41.786 137.647441 
L 42.349095 136.98719 
L 43.177648 136.449366 
L 44.012905 135.628895 
L 43.317081 135.077355 
L 43.73538 134.575825 
L 44.043741 133.929558 
L 43.988772 133.416021 
L 43.317081 133.314351 
L 43.405567 133.991598 
L 43.244683 134.811937 
L 42.89476 135.387593 
L 42.418811 135.341057 
L 42.182848 136.230453 
L 41.6707 136.832045 
L 41.024482 137.059591 
L 40.393012 136.81136 
L 39.81517 136.049465 
L 39.669033 135.268667 
L 40.094036 132.135738 
L 40.393012 131.579218 
L 41.563444 129.839214 
L 41.764549 129.24148 
L 42.662819 129.846105 
L 42.418811 128.9521 
L 43.562429 128.692009 
L 43.618739 129.529146 
L 43.856043 130.321562 
L 44.230098 130.800487 
L 44.708729 130.688506 
L 44.459358 129.722076 
L 44.262275 127.806718 
L 43.764875 127.507046 
L 43.940507 126.935281 
L 44.708729 122.30898 
L 43.988772 123.631054 
L 43.687114 124.457439 
L 43.427018 126.208568 
L 43.089162 127.255603 
L 42.653434 127.951391 
L 41.968336 127.796384 
L 41.638523 128.364753 
L 41.056659 128.585219 
L 40.372901 128.698899 
L 39.737409 128.9521 
L 39.383464 129.324162 
L 38.863272 130.631654 
L 38.268001 131.134714 
L 37.939529 131.913471 
L 37.690158 132.196044 
L 37.356324 132.001343 
L 37.251749 131.589556 
L 37.187396 130.61615 
L 36.466098 130.052823 
L 36.294489 129.215642 
L 36.338732 128.32686 
L 36.567992 127.796384 
L 36.227454 126.559864 
L 36.149693 124.4781 
L 36.262312 124.066619 
L 36.466098 123.787718 
L 37.223594 123.030246 
L 37.609716 122.84433 
L 38.032037 122.82023 
L 39.001364 122.959667 
L 39.461225 123.14042 
L 39.774949 123.481279 
L 39.737409 124.042517 
L 40.19861 123.522596 
L 40.56194 122.897695 
L 41.02046 122.555134 
L 41.764549 122.887366 
L 41.752483 121.956112 
L 42.011238 121.539572 
L 42.428196 121.281395 
L 42.886716 120.840788 
L 42.030008 121.136819 
L 41.614391 121.033551 
L 41.292622 120.575745 
L 42.782141 119.417555 
L 43.317081 118.817001 
L 44.172448 117.502449 
L 44.640353 116.996634 
L 45.698166 116.611269 
L 46.210314 115.799298 
L 46.609843 115.613517 
L 46.884687 115.775215 
L 47.422308 116.270646 
L 48.738876 115.324532 
L 46.663471 115.226486 
L 45.773245 114.801629 
L 45.832236 113.884894 
L 45.312044 114.223715 
L 45.118983 114.834309 
L 45.220877 115.474184 
L 45.588229 115.902511 
L 45.179315 116.188072 
L 44.840117 116.155387 
L 44.125524 115.902511 
L 43.847999 116.033249 
L 42.716447 118.958102 
L 42.418811 119.395184 
L 42.080955 119.587919 
L 41.367702 119.799588 
L 40.976217 120.128285 
L 40.686625 120.592955 
L 40.276371 121.575718 
L 39.942536 121.99398 
L 39.202469 122.303816 
L 38.502623 122.128241 
L 37.790711 121.818411 
L 36.998357 121.730628 
L 37.796074 119.684288 
L 38.351124 119.484668 
L 39.265482 118.211322 
L 38.824392 118.374783 
L 38.398049 119.200732 
L 38.032037 119.395184 
L 37.015786 119.505318 
L 36.773119 119.684288 
L 37.160582 120.248753 
L 37.128405 120.627376 
L 36.471461 121.766774 
L 36.386997 122.37267 
L 36.219409 122.727274 
L 35.423033 124.042517 
L 35.272874 125.230515 
L 35.423033 129.24148 
L 35.219246 129.24148 
L 35.023504 121.119607 
L 34.858598 119.894238 
L 34.312932 117.8586 
L 33.418685 115.902511 
L 32.98832 115.651361 
L 32.130271 115.410539 
L 31.80314 115.038996 
L 31.632871 114.430109 
L 31.352664 112.151417 
L 30.872693 110.897933 
L 29.963698 109.911078 
L 29.746505 109.852626 
L 29.60439 109.677273 
L 29.593665 108.690542 
L 29.798792 107.377347 
L 29.637908 106.67957 
L 29.239719 105.930289 
L 28.204698 104.624341 
L 25.847746 103.236106 
L 25.485756 102.751646 
L 25.298058 102.195062 
L 24.13433 100.015418 
L 23.265555 97.111715 
L 21.93558 94.828526 
L 20.423269 93.256363 
L 19.77571 92.882241 
L 18.527518 92.545886 
L 17.130507 91.632985 
L 16.915995 91.320697 
L 15.827346 91.337855 
L 14.880811 91.193725 
L 14.054939 91.262358 
L 13.316213 91.92126 
L 13.593738 92.326233 
L 13.990585 92.473812 
L 13.743896 93.088178 
L 13.316213 93.338741 
L 13.743896 93.911971 
L 13.428832 94.557326 
L 13.316213 94.802779 
L 12.883166 94.452625 
L 10.145455 90.431933 
L 15.584679 88.623782 
L 17.19352 86.990913 
L 22.10853 84.386117 
L 23.238741 83.252856 
L 28.47552 75.496912 
L 29.523948 73.561517 
L 31.819228 70.395548 
L 36.401745 60.33311 
L 38.691662 56.575216 
L 43.152175 47.231862 
L 43.095865 46.799873 
L 42.886716 46.205709 
L 43.631744 44.630363 
L 43.955255 42.317532 
L 44.033579 37.752213 
L 44.229388 37.271339 
L 44.684006 35.419572 
L 45.25611 33.730591 
L 45.402542 30.894723 
L 45.640918 30.052804 
L 46.121077 29.54423 
L 47.336798 29.187164 
L 47.851011 28.771689 
L 48.200062 27.854253 
L 49.548593 20.771295 
L 49.720565 19.102537 
L 49.969157 18.31799 
L 50.425478 17.533517 
L 51.033339 16.809621 
L 51.734847 16.284565 
L 52.485734 16.098751 
L 53.944939 16.386117 
L 54.319531 16.304011 
L 54.654961 16.111715 
L 56.001789 15.050924 
L 56.398516 14.964511 
L 56.813973 15.063886 
L 57.360536 15.599666 
L 57.758966 16.325618 
L 58.317448 17.049472 
L 58.984903 17.444918 
L 59.728979 17.550805 
L 60.515622 17.414664 
L 60.983862 17.060276 
L 61.230752 17.008416 
L 62.38177 17.261238 
L 63.687734 16.548169 
L 64.152568 16.483348 
L 65.581126 16.824746 
L 66.393309 16.645402 
L 66.91944 16.677814 
L 68.409294 17.276365 
L 69.757825 17.451401 
L 70.535955 17.905214 
L 71.05187 18.067296 
L 71.557569 18.032719 
L 72.044538 17.831738 
L 72.499157 17.477332 
L 73.617824 16.362349 
L 74.120118 16.265119 
L 75.535054 16.621634 
L 76.022023 16.563294 
L 76.413642 16.325618 
L 76.730342 15.960474 
L 77.530607 14.556223 
L 77.939252 14.111233 
L 78.417708 13.847707 
L 78.916597 13.901707 
L 79.226486 14.214918 
L 79.64024 15.031481 
L 80.047183 15.245356 
L 80.53245 15.232394 
L 80.995582 15.08981 
L 82.383274 14.381248 
L 82.897487 14.24516 
L 83.954858 14.199797 
L 85.514522 14.502218 
L 86.045761 14.478456 
L 89.583952 13.795867 
L 90.493189 13.303401 
L 90.634512 13.065818 
L 90.646431 12.754811 
L 90.537459 12.489168 
L 90.004516 11.852093 
L 89.808707 11.292803 
L 89.875112 10.752985 
L 90.161164 10.340587 
L 90.631107 10.182975 
L 91.106157 10.35786 
L 92.243554 11.7398 
L 92.72201 11.590799 
L 93.088089 11.145969 
L 93.478005 9.904461 
L 93.81684 9.628116 
L 94.552402 9.254634 
L 94.926994 9.487789 
L 95.388218 10.124967 
L 95.638719 10.731393 
L 95.98096 11.260413 
L 96.58882 11.374859 
L 97.593408 11.08119 
L 103.600499 11.521697 
L 105.040975 11.154606 
L 105.330433 11.253935 
L 106.256696 11.791628 
L 106.983745 11.854253 
L 108.715381 11.366222 
L 110.407855 11.716046 
L 111.104256 11.551929 
L 111.430321 11.368381 
L 112.610285 10.582409 
L 113.256456 10.532749 
L 115.599358 11.754917 
L 115.737276 12.065886 
L 115.723655 12.523723 
L 115.54998 13.31852 
L 115.606169 13.638188 
L 115.914356 13.808827 
L 117.176901 13.670587 
L 117.496155 13.856347 
L 117.607682 14.180356 
L 117.6511 14.927786 
L 117.822221 15.251837 
L 118.165313 15.448434 
L 119.330804 15.597506 
L 119.598127 15.791951 
L 120.39158 16.956556 
L 121.172264 17.635084 
L 122.290932 19.234382 
L 124.248174 21.409057 
L 125.565205 22.438225 
L 126.433577 23.517259 
L 127.38453 24.031957 
L 127.582042 24.315271 
L 127.605028 24.607245 
L 127.336003 25.606524 
L 127.40326 25.879075 
L 127.872351 26.776826 
L 127.88427 27.129462 
L 127.715703 27.880217 
L 127.838297 28.548812 
L 128.399333 28.923162 
L 129.963255 29.585347 
L 130.699668 30.357963 
L 130.863126 30.697762 
L 131.298164 32.225948 
L 131.767255 32.905711 
L 132.344467 33.221797 
L 132.87145 33.072412 
L 133.942442 32.186982 
L 134.167197 31.883922 
L 135.000664 30.546258 
L 135.570214 30.247585 
L 136.190845 30.273556 
L 135.936276 31.513143 
L 135.78901 32.065757 
L 135.894576 32.505207 
L 137.562362 33.756573 
L 137.777752 33.685123 
L 138.870028 33.042103 
L 139.854183 32.929525 
L 140.853662 32.396966 
L 143.037363 31.717244 
L 143.407698 31.639317 
L 143.625642 31.693433 
L 143.686088 32.277902 
L 143.133565 33.550886 
L 143.073119 34.200441 
L 143.407698 34.48193 
L 144.608946 33.903805 
L 145.10528 33.918961 
L 145.268738 34.141979 
L 145.696114 34.951821 
L 146.80116 36.004297 
L 146.88374 36.326996 
L 146.962064 37.383973 
L 147.632073 39.231831 
L 148.170123 40.000986 
L 149.194291 41.103923 
L 149.246223 41.810396 
L 149.120224 42.863712 
L 149.331358 43.396921 
L 149.928151 44.255326 
L 150.221013 44.901354 
L 150.379364 45.616809 
L 150.315513 46.781177 
L 150.132474 47.49245 
L 150.175892 47.850277 
L 150.576876 48.359934 
L 151.344789 48.97807 
L 151.941582 49.949823 
L 152.120365 50.607119 
L 152.062473 50.915176 
L 151.443545 52.216944 
L 151.455464 52.943848 
L 151.767056 53.987657 
L 152.262539 53.970295 
L 153.250951 53.755447 
L 153.967784 53.907359 
L 154.818277 54.571462 
L 155.576826 54.825397 
L 155.988877 55.122749 
L 156.341334 55.523214 
L 156.578859 56.017036 
L 156.656332 56.608573 
L 156.474995 58.554956 
L 156.652075 59.297582 
L 156.841166 59.477841 
L 157.849918 59.799215 
L 158.322414 59.724294 
L 159.740755 58.575584 
L 160.256671 58.488731 
L 160.779397 58.788377 
L 160.987125 59.099977 
L 161.088435 59.46479 
L 161.330217 60.912246 
L 161.809524 61.76693 
L 161.871672 62.092753 
L 161.87678 63.500443 
L 162.001928 64.185903 
L 162.273507 64.832303 
L 162.67364 65.365755 
L 164.63599 67.022806 
L 165.055703 67.571602 
L 165.269391 68.259545 
L 165.09146 68.843197 
L 164.544896 68.952975 
L 163.419418 68.808416 
L 163.083988 69.122537 
L 163.282351 69.647546 
L 164.322695 70.8629 
L 164.615558 70.991185 
L 164.930556 70.998795 
L 165.982818 70.81724 
L 166.314843 70.934653 
L 166.78734 71.481511 
L 166.876731 72.150179 
L 166.720935 73.549649 
L 166.860555 74.044463 
L 167.690617 74.373991 
L 168.92677 75.853207 
L 169.831652 76.31385 
L 170.171437 76.258945 
L 171.720034 75.768363 
L 172.027369 75.902155 
L 172.712702 76.890975 
L 175.453182 79.016918 
L 176.224501 79.238898 
L 176.576107 79.48047 
L 177.017103 80.292284 
L 177.803746 84.107461 
L 178.258365 84.444971 
L 179.370222 86.090231 
L 179.949988 86.695707 
L 182.023013 87.911134 
L 183.85 89.692085 
L 183.85 89.692085 
" clip-path="url(#p058456795d)" style="fill: none; stroke: #000000; stroke-width: 0.5; stroke-linecap: square"/>
   </g>
  </g>
 </g>
 <defs>
  <clipPath id="p058456795d">
   <rect x="0" y="0" width="223.2" height="203.601946"/>
  </clipPath>
 </defs>
</svg>
