<?xml version="1.0" encoding="utf-8" standalone="no"?>
<!DOCTYPE svg PUBLIC "-//W3C//DTD SVG 1.1//EN"
  "http://www.w3.org/Graphics/SVG/1.1/DTD/svg11.dtd">
<svg xmlns:xlink="http://www.w3.org/1999/xlink" width="223.2pt" height="126.959664pt" viewBox="0 0 223.2 126.959664" xmlns="http://www.w3.org/2000/svg" version="1.1">
 <metadata>
  <rdf:RDF xmlns:dc="http://purl.org/dc/elements/1.1/" xmlns:cc="http://creativecommons.org/ns#" xmlns:rdf="http://www.w3.org/1999/02/22-rdf-syntax-ns#">
   <cc:Work>
    <dc:type rdf:resource="http://purl.org/dc/dcmitype/StillImage"/>
    <dc:date>2026-04-26T19:22:13.872838</dc:date>
    <dc:format>image/svg+xml</dc:format>
    <dc:creator>
     <cc:Agent>
      <dc:title>Matplotlib v3.10.9, https://matplotlib.org/</dc:title>
     </cc:Agent>
    </dc:creator>
   </cc:Work>
  </rdf:RDF>
 </metadata>
 <defs>
  <style type="text/css">*{stroke-linejoin: round; stroke-linecap: butt}</style>
 </defs>
 <g id="figure_1">
  <g id="patch_1">
   <path d="M 0 126.959664 
L 223.2 126.959664 
L 223.2 0 
L 0 0 
z
" style="fill: #ffffff"/>
  </g>
  <g id="axes_1">
   <g id="patch_2">
    <path d="M 64.020778 121.18877 
L 37.083116 63.566708 
L 10.145455 6.132199 
L 11.233715 6.213423 
L 19.515646 5.770894 
L 23.164616 7.164899 
L 25.932093 9.88685 
L 30.606054 15.863354 
L 33.763028 18.232387 
L 37.452998 19.616317 
L 41.573464 20.369221 
L 49.629897 20.579597 
L 57.78883 19.306307 
L 62.052794 19.217734 
L 65.845263 20.26957 
L 68.407742 22.218402 
L 72.610207 27.191122 
L 75.193186 29.295817 
L 82.327127 31.999059 
L 89.522567 32.475494 
L 104.056947 30.857886 
L 110.063397 31.434003 
L 114.880857 33.616772 
L 124.126281 40.432752 
L 130.419729 43.448144 
L 136.180181 44.002501 
L 148.808077 42.339484 
L 155.901018 42.06233 
L 157.370707 42.280401 
L 185.338775 46.430787 
L 191.099227 45.443909 
L 196.470183 42.716421 
L 202.558632 38.659234 
L 205.121111 37.850127 
L 207.745089 37.661709 
L 213.054545 38.426474 
L 138.537662 79.759281 
z
" clip-path="url(#pa109bfb30f)" style="stroke: #000000; stroke-linejoin: miter"/>
   </g>
   <g id="line2d_1">
    <path d="M 64.020778 121.18877 
L 37.083116 63.566708 
L 10.145455 6.132199 
L 11.233715 6.213423 
L 19.515646 5.770894 
L 23.164616 7.164899 
L 25.932093 9.88685 
L 30.606054 15.863354 
L 33.763028 18.232387 
L 37.452998 19.616317 
L 41.573464 20.369221 
L 49.629897 20.579597 
L 57.78883 19.306307 
L 62.052794 19.217734 
L 65.845263 20.26957 
L 68.407742 22.218402 
L 72.610207 27.191122 
L 75.193186 29.295817 
L 82.327127 31.999059 
L 89.522567 32.475494 
L 104.056947 30.857886 
L 110.063397 31.434003 
L 114.880857 33.616772 
L 124.126281 40.432752 
L 130.419729 43.448144 
L 136.180181 44.002501 
L 148.808077 42.339484 
L 155.901018 42.06233 
L 157.370707 42.280401 
L 185.338775 46.430787 
L 191.099227 45.443909 
L 196.470183 42.716421 
L 202.558632 38.659234 
L 205.121111 37.850127 
L 207.745089 37.661709 
L 213.054545 38.426474 
L 138.537662 79.759281 
L 64.020778 121.18877 
" clip-path="url(#pa109bfb30f)" style="fill: none; stroke: #000000; stroke-width: 0.5; stroke-linecap: square"/>
   </g>
  </g>
 </g>
 <defs>
  <clipPath id="pa109bfb30f">
   <rect x="0" y="-0" width="223.2" height="126.959664"/>
  </clipPath>
 </defs>
</svg>
