<?xml version="1.0" encoding="utf-8" standalone="no"?>
<!DOCTYPE svg PUBLIC "-//W3C//DTD SVG 1.1//EN"
  "http://www.w3.org/Graphics/SVG/1.1/DTD/svg11.dtd">
<svg xmlns:xlink="http://www.w3.org/1999/xlink" width="166.355438pt" height="221.76pt" viewBox="0 0 166.355438 221.76" xmlns="http://www.w3.org/2000/svg" version="1.1">
 <metadata>
  <rdf:RDF xmlns:dc="http://purl.org/dc/elements/1.1/" xmlns:cc="http://creativecommons.org/ns#" xmlns:rdf="http://www.w3.org/1999/02/22-rdf-syntax-ns#">
   <cc:Work>
    <dc:type rdf:resource="http://purl.org/dc/dcmitype/StillImage"/>
    <dc:date>2026-04-26T19:22:00.016378</dc:date>
    <dc:format>image/svg+xml</dc:format>
    <dc:creator>
     <cc:Agent>
      <dc:title>Matplotlib v3.10.9, https://matplotlib.org/</dc:title>
     </cc:Agent>
    </dc:creator>
   </cc:Work>
  </rdf:RDF>
 </metadata>
 <defs>
  <style type="text/css">*{stroke-linejoin: round; stroke-linecap: butt}</style>
 </defs>
 <g id="figure_1">
  <g id="patch_1">
   <path d="M 0 221.76 
L 166.355438 221.76 
L 166.355438 0 
L 0 0 
z
" style="fill: #ffffff"/>
  </g>
  <g id="axes_1">
   <g id="patch_2">
    <path d="M 158.793827 108.9204 
L 158.760173 112.306998 
L 157.219854 120.343461 
L 156.337082 122.838736 
L 156.23612 124.316022 
L 156.601137 126.166134 
L 156.994631 127.470777 
L 156.854837 128.685678 
L 155.622581 130.244626 
L 154.651792 130.97499 
L 153.668058 131.37492 
L 152.640316 131.56133 
L 148.599243 131.588444 
L 147.597388 131.786718 
L 146.419496 132.544239 
L 145.681696 133.739031 
L 144.519338 136.550812 
L 143.986051 137.210157 
L 142.717552 138.123774 
L 142.267106 138.606867 
L 142.062593 139.220493 
L 141.990107 139.990088 
L 142.114368 155.8546 
L 140.964953 156.085275 
L 140.599937 156.248106 
L 138.236388 157.920564 
L 136.33364 160.02739 
L 129.64863 170.65151 
L 129.118732 171.493813 
L 128.562146 172.064029 
L 127.896832 172.43739 
L 125.991495 173.011018 
L 123.943777 174.51133 
L 116.508823 182.190588 
L 115.612394 183.690863 
L 112.353844 189.145041 
L 111.921519 189.678236 
L 107.797605 192.109998 
L 106.945899 192.340957 
L 105.201066 195.910862 
L 104.294996 197.004674 
L 104.13967 197.252655 
L 104.271697 197.938861 
L 104.981021 199.454002 
L 105.146702 200.279547 
L 105.04574 200.853705 
L 104.779096 201.210436 
L 104.406313 201.387104 
L 103.313851 201.546785 
L 103.153348 201.985064 
L 103.334562 203.310132 
L 103.223244 204.292077 
L 102.912592 205.53909 
L 102.433669 206.619648 
L 101.06162 207.642474 
L 100.851929 208.757087 
L 100.958069 210.422282 
L 100.569753 210.724746 
L 98.981959 211.68 
L 98.15029 210.802268 
L 96.089465 210.1868 
L 95.08657 209.501771 
L 94.136674 208.629451 
L 93.380427 207.765182 
L 93.832952 207.668857 
L 94.067368 207.524369 
L 94.21821 207.280881 
L 94.407782 206.866154 
L 93.003322 206.820668 
L 92.391801 206.946423 
L 91.98412 207.315665 
L 91.670206 207.315665 
L 91.215642 205.838724 
L 90.51647 204.883565 
L 87.862469 201.972785 
L 80.776979 196.585348 
L 69.048007 191.025025 
L 56.968429 184.754497 
L 47.363473 180.75755 
L 48.88616 179.097437 
L 50.718685 179.006548 
L 52.594016 179.787134 
L 54.232892 180.75755 
L 54.151356 180.180109 
L 53.910824 179.760401 
L 53.53372 179.498422 
L 53.038388 179.410205 
L 52.651091 179.26585 
L 52.24341 178.466565 
L 51.839807 178.065593 
L 50.904179 177.581762 
L 50.372156 177.520282 
L 49.483412 178.143114 
L 49.057386 177.857091 
L 48.647667 177.381282 
L 48.231833 177.130015 
L 48.072837 176.568683 
L 48.513132 175.336461 
L 49.157268 174.101619 
L 50.09901 173.027188 
L 50.62288 172.01961 
L 51.283322 171.314059 
L 52.182258 171.704248 
L 52.732627 171.362164 
L 53.313572 171.249919 
L 54.573305 171.260609 
L 54.830144 171.185779 
L 55.43555 170.910513 
L 55.771886 170.849046 
L 56.136761 170.988015 
L 56.744205 171.581311 
L 56.970468 171.704248 
L 57.959093 171.346129 
L 58.811146 170.669991 
L 59.773272 170.079386 
L 61.106388 169.993869 
L 61.004468 169.76939 
L 60.890317 169.283023 
L 60.79655 169.053204 
L 61.709755 168.695118 
L 62.633152 168.529437 
L 63.318055 168.064469 
L 63.532088 166.77382 
L 63.15906 166.77382 
L 62.847184 166.872687 
L 62.508809 166.899408 
L 62.156165 166.968883 
L 61.819829 167.222735 
L 61.526299 166.626855 
L 61.446801 166.364992 
L 60.951469 166.487907 
L 60.380716 166.509284 
L 59.90373 166.613495 
L 59.708043 166.998276 
L 59.577585 167.567442 
L 59.251441 167.848021 
L 58.370851 168.160669 
L 57.779714 168.529437 
L 56.817587 168.566849 
L 56.324294 168.713823 
L 55.2949 169.355176 
L 54.204354 169.627754 
L 53.136231 170.204989 
L 52.52471 170.400075 
L 52.200604 170.357316 
L 51.195671 170.060679 
L 50.645302 169.993869 
L 49.509912 169.448707 
L 49.142999 168.192735 
L 48.880045 166.808557 
L 48.0443 165.876011 
L 48.0443 165.47254 
L 48.292985 165.170609 
L 48.433635 164.785852 
L 48.470326 164.280865 
L 48.419366 163.634282 
L 48.042261 164.080476 
L 47.675349 164.385068 
L 47.343089 164.419802 
L 47.051597 164.045742 
L 46.709146 164.045742 
L 46.709146 164.97823 
L 45.492219 163.436569 
L 46.120047 161.235105 
L 48.0443 157.764936 
L 48.863738 158.333918 
L 49.132807 158.662491 
L 49.446721 158.21371 
L 49.149114 157.356237 
L 49.106308 156.45071 
L 49.399838 155.753553 
L 50.09901 155.523843 
L 49.087962 154.631729 
L 48.186988 155.665408 
L 46.709146 158.662491 
L 44.212101 160.679422 
L 42.589532 161.451503 
L 41.859784 160.700794 
L 41.472487 160.730181 
L 38.255887 159.931404 
L 37.933819 159.920718 
L 37.611752 159.856604 
L 37.102151 159.600146 
L 35.108593 157.762264 
L 34.380883 157.329525 
L 33.763246 156.723166 
L 33.306644 155.523843 
L 33.139495 154.3219 
L 33.290337 153.520632 
L 33.793822 152.941063 
L 34.676451 152.388214 
L 33.7714 152.575167 
L 31.225434 153.934618 
L 28.862925 151.939532 
L 28.190252 150.224994 
L 27.725496 149.509298 
L 26.96721 149.210207 
L 26.420918 148.903108 
L 25.758437 148.152732 
L 24.69439 146.523872 
L 25.678939 146.267535 
L 27.378967 145.017929 
L 28.32071 144.729566 
L 29.107533 144.863067 
L 29.935125 145.186142 
L 31.598462 146.115337 
L 30.587414 144.766946 
L 29.31545 143.618863 
L 28.235097 142.31865 
L 27.391198 139.117772 
L 27.293354 138.906885 
L 27.065053 138.685321 
L 27.150666 138.186143 
L 27.46458 137.31861 
L 27.580769 136.389712 
L 27.896722 135.47686 
L 28.341094 134.638772 
L 28.862925 133.939495 
L 27.250548 133.651249 
L 26.577875 132.829231 
L 26.180386 131.556219 
L 25.40987 129.906997 
L 24.839117 129.402643 
L 24.162367 129.034391 
L 23.593652 128.482022 
L 23.361274 127.425349 
L 23.391851 126.48345 
L 23.497848 125.624297 
L 23.709841 124.823868 
L 24.04414 124.047475 
L 23.591614 124.162199 
L 23.302161 124.415659 
L 23.043284 124.703806 
L 22.674333 124.943931 
L 22.327804 125.039982 
L 22.113772 125.026641 
L 21.875279 124.975948 
L 21.463521 124.943931 
L 19.253892 125.39217 
L 18.114424 125.96582 
L 16.738502 127.00109 
L 15.495076 128.249871 
L 14.744944 129.461351 
L 14.433068 129.461351 
L 14.543142 128.420649 
L 14.433068 125.634969 
L 14.214959 124.252911 
L 14.18846 123.447187 
L 14.433068 122.702849 
L 13.846008 122.086585 
L 12.111327 118.46132 
L 12.011445 118.431978 
L 11.901371 118.197247 
L 11.666955 118.157236 
L 11.4305 118.029202 
L 11.326542 117.535743 
L 11.071741 116.836915 
L 9.799778 114.649862 
L 9.436942 114.35649 
L 9.216794 113.716419 
L 8.911034 113.097699 
L 8.279129 112.860348 
L 8.972186 111.721631 
L 9.192333 111.196291 
L 9.271831 110.356303 
L 9.135258 109.740329 
L 8.482969 108.505758 
L 8.279129 107.897827 
L 9.345214 108.108469 
L 9.644859 108.345775 
L 9.987311 108.073806 
L 10.1035 108.233788 
L 10.329762 108.793731 
L 11.177738 108.324444 
L 12.086866 108.345775 
L 12.977648 108.713738 
L 13.750203 109.279025 
L 14.386185 110.206975 
L 15.411502 112.420323 
L 17.133953 113.599074 
L 18.352918 115.092592 
L 19.620805 116.255461 
L 20.51974 116.079427 
L 20.964112 115.994078 
L 20.964112 115.545998 
L 20.352591 115.369969 
L 19.826683 115.044585 
L 19.44754 114.521845 
L 19.253892 113.753756 
L 19.936757 113.753756 
L 19.936757 113.308382 
L 18.469107 112.868349 
L 17.087069 112.249649 
L 16.353244 111.252292 
L 16.828192 109.684332 
L 17.417291 109.11637 
L 18.921632 108.361774 
L 19.563729 107.897827 
L 19.938795 107.244584 
L 20.244556 106.532701 
L 20.644083 106.159437 
L 21.306564 106.556697 
L 21.288218 105.802175 
L 21.434983 105.082334 
L 21.685707 104.431828 
L 21.991467 103.869314 
L 22.480684 104.042599 
L 25.795128 104.351849 
L 26.73687 104.687763 
L 27.293354 104.765077 
L 27.705112 104.573125 
L 28.708006 103.664039 
L 29.172762 103.381456 
L 28.253442 103.125535 
L 27.187357 103.293483 
L 26.247654 103.184183 
L 26.135541 102.445755 
L 26.094773 102.485742 
L 27.0569 100.912986 
L 28.862925 95.779547 
L 27.611345 97.767765 
L 26.808214 99.550897 
L 25.829781 100.902323 
L 24.04414 101.59539 
L 23.153357 101.536745 
L 22.401187 101.350149 
L 21.740744 101.350149 
L 20.444319 102.363116 
L 19.547422 102.46175 
L 18.713715 102.080548 
L 18.197999 101.184879 
L 19.325236 100.912986 
L 19.918411 100.118647 
L 20.423935 99.17507 
L 21.306564 98.463411 
L 21.306564 98.015637 
L 20.860154 97.922351 
L 20.587008 97.805079 
L 20.407628 97.559874 
L 20.248633 97.120111 
L 19.936757 97.120111 
L 19.461809 99.137754 
L 19.107127 99.921399 
L 18.540451 100.251924 
L 17.735282 99.92673 
L 17.025917 99.137754 
L 16.114751 97.56787 
L 15.601073 97.938343 
L 15.2097 97.863715 
L 14.9284 97.423947 
L 14.744944 96.712338 
L 14.500336 97.823736 
L 14.91617 98.540707 
L 15.674456 98.999152 
L 16.487779 99.358985 
L 15.802875 99.804117 
L 17.182874 101.142229 
L 17.260334 102.605702 
L 16.526508 104.010608 
L 15.460423 105.17298 
L 15.670379 105.724858 
L 15.668341 106.308742 
L 15.425771 106.77266 
L 14.91617 106.959295 
L 14.508489 106.756662 
L 14.202729 106.260751 
L 12.87369 103.381456 
L 12.500662 102.347122 
L 12.182671 100.422519 
L 11.779067 99.228378 
L 11.26539 98.108922 
L 10.794518 97.343989 
L 10.56214 96.632383 
L 10.521372 95.555682 
L 10.611062 93.540991 
L 10.861786 93.506348 
L 10.611062 86.570768 
L 12.011445 84.522171 
L 12.58016 84.346357 
L 12.800307 84.572785 
L 12.967456 85.001672 
L 13.379214 85.414582 
L 17.227719 85.377287 
L 18.026773 85.209458 
L 19.045975 84.626062 
L 20.487126 84.442255 
L 23.361274 84.522171 
L 21.294334 83.699051 
L 20.964112 83.890843 
L 20.587008 84.253122 
L 19.72884 84.25845 
L 18.799328 84.024033 
L 18.197999 83.667085 
L 17.643553 83.978749 
L 16.842461 84.178535 
L 16.114751 84.066655 
L 15.802875 83.422019 
L 15.64388 82.931895 
L 15.295313 82.798711 
L 14.934515 82.809365 
L 14.744944 82.732119 
L 14.708253 82.220699 
L 14.836672 82.020929 
L 15.001783 81.903731 
L 15.499153 80.619918 
L 16.502048 80.01266 
L 17.747512 79.71969 
L 18.882903 79.645117 
L 18.882903 79.155068 
L 18.010466 78.792864 
L 16.879152 79.056526 
L 14.744944 80.049947 
L 13.578977 80.207087 
L 12.319244 79.858185 
L 11.336734 78.931353 
L 10.982052 77.370733 
L 10.788403 77.663674 
L 10.676291 77.698295 
L 10.623293 77.802157 
L 10.611062 78.305495 
L 9.877237 77.370733 
L 9.595937 77.442636 
L 9.504209 77.706284 
L 9.392097 77.924662 
L 9.271831 78.305495 
L 8.195554 77.168339 
L 8.36678 74.055412 
L 7.561611 72.859877 
L 7.561611 72.455166 
L 8.749888 71.335896 
L 10.941284 70.455088 
L 12.248614 70.150785 
L 13.038189 70.394227 
L 14.938348 71.942844 
L 16.079996 72.456817 
L 16.838507 72.294508 
L 18.358116 70.852377 
L 20.290634 69.638551 
L 21.199293 68.889662 
L 21.881435 67.792572 
L 22.542866 65.740523 
L 22.955775 64.787242 
L 23.438581 63.896534 
L 23.723346 63.707241 
L 24.509039 63.609216 
L 24.691547 63.534852 
L 24.638477 62.995718 
L 23.951158 61.902279 
L 23.729818 61.244888 
L 23.960219 59.365761 
L 24.753678 57.348233 
L 25.800836 56.39022 
L 26.776803 57.703062 
L 27.873148 56.951168 
L 28.851704 56.863308 
L 29.814727 56.951168 
L 30.869652 56.72476 
L 31.705825 55.820838 
L 32.901838 53.251188 
L 33.770371 52.678503 
L 34.460279 52.428486 
L 34.49005 51.926771 
L 34.28942 51.335537 
L 34.27777 50.816953 
L 34.680324 50.129468 
L 34.965089 49.805157 
L 35.809029 49.188641 
L 36.023897 49.235935 
L 36.278891 49.457204 
L 36.524824 49.524767 
L 36.720277 49.114323 
L 36.849715 48.719087 
L 37.016691 48.474179 
L 37.363587 48.095845 
L 37.593987 47.685426 
L 39.301283 40.596295 
L 39.311638 40.268741 
L 39.213264 39.973272 
L 39.245624 39.703131 
L 39.630057 39.463385 
L 39.914822 39.351954 
L 40.075325 39.240524 
L 40.18276 39.066626 
L 40.314787 38.771172 
L 40.752289 36.628824 
L 40.987868 36.076809 
L 41.451258 35.853981 
L 41.939241 35.931633 
L 42.341796 35.891119 
L 42.545014 35.325618 
L 42.60585 32.559086 
L 42.754705 32.353171 
L 43.572757 30.491582 
L 44.032264 29.890775 
L 45.588116 28.665585 
L 45.751208 28.626772 
L 45.815928 28.378705 
L 45.806867 27.580521 
L 45.90524 27.26328 
L 46.153762 27.259905 
L 46.41264 27.310528 
L 46.567966 27.153597 
L 46.547256 26.829612 
L 46.358275 26.098978 
L 46.32721 25.903246 
L 47.010646 21.057744 
L 47.005469 20.371158 
L 46.942044 19.929191 
L 46.975698 19.524343 
L 47.275995 18.932266 
L 49.079075 17.569368 
L 51.350723 16.501711 
L 58.877578 14.435698 
L 60.037347 14.491351 
L 60.93824 15.251961 
L 61.850782 16.309437 
L 63.040323 17.255644 
L 63.982636 17.704305 
L 64.808455 17.938759 
L 65.660161 17.985987 
L 67.24019 17.542121 
L 76.659853 14.896107 
L 77.001571 14.290663 
L 77.244916 10.307628 
L 98.546664 10.15578 
L 109.17742 10.08 
L 110.448507 10.250299 
L 112.144153 10.904531 
L 112.837944 10.983782 
L 113.391941 11.607684 
L 113.756958 13.057902 
L 114.437805 17.360218 
L 114.808 18.1243 
L 118.530654 21.16571 
L 120.586139 23.714879 
L 122.330972 26.613626 
L 123.521807 29.551563 
L 124.109458 31.77088 
L 124.414933 32.393679 
L 124.694521 32.619848 
L 125.509984 33.008055 
L 125.836169 33.343943 
L 126.053626 33.853693 
L 126.390166 35.565321 
L 126.760361 36.205105 
L 128.044392 37.354735 
L 128.531081 38.001322 
L 128.707117 38.539877 
L 128.963406 40.336278 
L 129.320656 40.942426 
L 129.841 41.259858 
L 130.221549 41.681982 
L 130.167185 42.610683 
L 129.895364 44.236843 
L 130.107643 45.39532 
L 130.653874 46.376525 
L 131.39944 47.442218 
L 132.183838 48.099223 
L 132.282212 48.467424 
L 131.746336 48.948796 
L 131.264824 49.521389 
L 131.88613 49.788266 
L 132.77149 49.838939 
L 133.095086 49.757862 
L 133.586953 49.842317 
L 134.12024 49.835561 
L 134.586219 49.974068 
L 135.186814 51.127764 
L 135.78482 51.81528 
L 136.452724 52.3947 
L 136.975656 52.71229 
L 139.111393 55.123068 
L 139.176112 55.939107 
L 138.984543 56.663934 
L 138.6946 57.388784 
L 138.4642 58.20828 
L 138.469377 58.769271 
L 138.671301 59.877775 
L 138.606582 60.482742 
L 138.207911 61.244888 
L 137.677213 61.672444 
L 137.115449 61.996918 
L 136.626171 62.444767 
L 135.733045 64.486392 
L 135.186814 67.310815 
L 135.544065 69.685886 
L 137.343261 70.394227 
L 139.414279 70.299555 
L 141.405045 70.566666 
L 142.57517 70.99777 
L 143.170587 71.630069 
L 143.220808 72.054258 
L 143.266974 72.444203 
L 143.287082 72.614055 
L 142.518217 76.489519 
L 142.28005 78.760639 
L 142.368068 83.528477 
L 142.450909 84.183091 
L 142.906533 86.033695 
L 142.919476 86.32297 
L 142.865112 87.016567 
L 142.891 87.255102 
L 143.061859 87.525782 
L 143.421698 87.8303 
L 143.561492 87.994403 
L 145.614388 91.533882 
L 146.37031 92.246237 
L 146.64472 92.875699 
L 148.7934 96.613874 
L 148.402496 98.01689 
L 147.71906 99.293042 
L 146.776747 100.14441 
L 145.622155 100.262893 
L 144.607356 100.523557 
L 143.644333 101.567934 
L 142.84958 102.955988 
L 142.049649 104.865533 
L 141.278195 105.815279 
L 140.928711 106.609301 
L 140.812216 107.477844 
L 140.817393 108.254986 
L 140.6776 108.773093 
L 140.136546 108.862832 
L 139.414279 114.527152 
L 138.676479 116.114061 
L 137.765231 117.509671 
L 136.613228 119.720103 
L 136.098062 121.854489 
L 137.105094 123.014922 
L 137.470111 120.816072 
L 138.459022 119.444 
L 139.880258 118.840989 
L 141.537072 118.95617 
L 142.28005 119.366082 
L 143.71423 120.568755 
L 144.244928 120.72121 
L 145.161353 120.245214 
L 146.919129 118.741053 
L 149.878096 114.981029 
L 150.491635 113.966592 
L 151.70318 110.759268 
L 152.189869 109.86691 
L 152.774932 109.157447 
L 153.406592 108.62748 
L 154.159925 108.254986 
L 155.684712 107.973925 
L 156.021252 108.007788 
L 157.390713 108.544515 
L 157.791972 108.839127 
L 158.21912 109.021992 
z
" clip-path="url(#pea4648cc24)" style="stroke: #000000; stroke-linejoin: miter"/>
   </g>
   <g id="line2d_1">
    <path d="M 158.793827 108.9204 
L 158.760173 112.306998 
L 157.219854 120.343461 
L 156.337082 122.838736 
L 156.23612 124.316022 
L 156.601137 126.166134 
L 156.994631 127.470777 
L 156.854837 128.685678 
L 155.622581 130.244626 
L 154.651792 130.97499 
L 153.668058 131.37492 
L 152.640316 131.56133 
L 148.599243 131.588444 
L 147.597388 131.786718 
L 146.419496 132.544239 
L 145.681696 133.739031 
L 144.519338 136.550812 
L 143.986051 137.210157 
L 142.717552 138.123774 
L 142.267106 138.606867 
L 142.062593 139.220493 
L 141.990107 139.990088 
L 142.114368 155.8546 
L 140.599937 156.248106 
L 138.236388 157.920564 
L 136.33364 160.02739 
L 129.118732 171.493813 
L 128.562146 172.064029 
L 127.896832 172.43739 
L 125.991495 173.011018 
L 123.943777 174.51133 
L 116.508823 182.190588 
L 111.921519 189.678236 
L 107.797605 192.109998 
L 106.945899 192.340957 
L 105.201066 195.910862 
L 104.13967 197.252655 
L 104.271697 197.938861 
L 104.981021 199.454002 
L 105.146702 200.279547 
L 105.04574 200.853705 
L 104.779096 201.210436 
L 104.406313 201.387104 
L 103.313851 201.546785 
L 103.153348 201.985064 
L 103.334562 203.310132 
L 103.223244 204.292077 
L 102.912592 205.53909 
L 102.433669 206.619648 
L 101.06162 207.642474 
L 100.851929 208.757087 
L 100.958069 210.422282 
L 100.569753 210.724746 
L 98.981959 211.68 
L 98.15029 210.802268 
L 96.089465 210.1868 
L 95.08657 209.501771 
L 94.136674 208.629451 
L 93.380427 207.765182 
L 94.067368 207.524369 
L 94.407782 206.866154 
L 93.003322 206.820668 
L 92.391801 206.946423 
L 91.98412 207.315665 
L 91.670206 207.315665 
L 91.215642 205.838724 
L 90.51647 204.883565 
L 87.862469 201.972785 
L 80.776979 196.585348 
L 69.048007 191.025025 
L 56.968429 184.754497 
L 47.363473 180.75755 
L 48.88616 179.097437 
L 50.718685 179.006548 
L 52.594016 179.787134 
L 54.232892 180.75755 
L 54.151356 180.180109 
L 53.910824 179.760401 
L 53.53372 179.498422 
L 52.651091 179.26585 
L 52.24341 178.466565 
L 51.839807 178.065593 
L 50.904179 177.581762 
L 50.372156 177.520282 
L 49.483412 178.143114 
L 49.057386 177.857091 
L 48.647667 177.381282 
L 48.231833 177.130015 
L 48.072837 176.568683 
L 48.513132 175.336461 
L 49.157268 174.101619 
L 50.09901 173.027188 
L 50.62288 172.01961 
L 51.283322 171.314059 
L 52.182258 171.704248 
L 52.732627 171.362164 
L 53.313572 171.249919 
L 54.830144 171.185779 
L 55.771886 170.849046 
L 56.136761 170.988015 
L 56.970468 171.704248 
L 57.959093 171.346129 
L 58.811146 170.669991 
L 59.773272 170.079386 
L 61.106388 169.993869 
L 60.79655 169.053204 
L 61.709755 168.695118 
L 62.633152 168.529437 
L 63.318055 168.064469 
L 63.532088 166.77382 
L 62.847184 166.872687 
L 62.156165 166.968883 
L 61.819829 167.222735 
L 61.446801 166.364992 
L 60.951469 166.487907 
L 59.90373 166.613495 
L 59.708043 166.998276 
L 59.577585 167.567442 
L 59.251441 167.848021 
L 58.370851 168.160669 
L 57.779714 168.529437 
L 56.817587 168.566849 
L 56.324294 168.713823 
L 55.2949 169.355176 
L 54.204354 169.627754 
L 53.136231 170.204989 
L 52.52471 170.400075 
L 52.200604 170.357316 
L 49.509912 169.448707 
L 49.142999 168.192735 
L 48.880045 166.808557 
L 48.0443 165.876011 
L 48.0443 165.47254 
L 48.292985 165.170609 
L 48.433635 164.785852 
L 48.419366 163.634282 
L 47.675349 164.385068 
L 47.343089 164.419802 
L 47.051597 164.045742 
L 46.709146 164.045742 
L 46.709146 164.97823 
L 45.492219 163.436569 
L 46.120047 161.235105 
L 48.0443 157.764936 
L 48.863738 158.333918 
L 49.132807 158.662491 
L 49.446721 158.21371 
L 49.149114 157.356237 
L 49.106308 156.45071 
L 49.399838 155.753553 
L 50.09901 155.523843 
L 49.087962 154.631729 
L 48.186988 155.665408 
L 46.709146 158.662491 
L 44.212101 160.679422 
L 42.589532 161.451503 
L 41.859784 160.700794 
L 41.472487 160.730181 
L 37.102151 159.600146 
L 35.108593 157.762264 
L 34.380883 157.329525 
L 33.763246 156.723166 
L 33.306644 155.523843 
L 33.139495 154.3219 
L 33.290337 153.520632 
L 33.793822 152.941063 
L 34.676451 152.388214 
L 33.7714 152.575167 
L 31.225434 153.934618 
L 28.862925 151.939532 
L 28.190252 150.224994 
L 27.725496 149.509298 
L 26.420918 148.903108 
L 25.758437 148.152732 
L 24.69439 146.523872 
L 25.678939 146.267535 
L 27.378967 145.017929 
L 28.32071 144.729566 
L 29.107533 144.863067 
L 29.935125 145.186142 
L 31.598462 146.115337 
L 30.587414 144.766946 
L 29.31545 143.618863 
L 28.235097 142.31865 
L 27.293354 138.906885 
L 27.065053 138.685321 
L 27.150666 138.186143 
L 27.46458 137.31861 
L 27.580769 136.389712 
L 27.896722 135.47686 
L 28.341094 134.638772 
L 28.862925 133.939495 
L 27.250548 133.651249 
L 26.577875 132.829231 
L 26.180386 131.556219 
L 25.40987 129.906997 
L 24.839117 129.402643 
L 24.162367 129.034391 
L 23.593652 128.482022 
L 23.361274 127.425349 
L 23.497848 125.624297 
L 23.709841 124.823868 
L 24.04414 124.047475 
L 23.591614 124.162199 
L 22.674333 124.943931 
L 22.113772 125.026641 
L 21.463521 124.943931 
L 19.253892 125.39217 
L 18.114424 125.96582 
L 16.738502 127.00109 
L 15.495076 128.249871 
L 14.744944 129.461351 
L 14.433068 129.461351 
L 14.543142 128.420649 
L 14.433068 125.634969 
L 14.18846 123.447187 
L 14.433068 122.702849 
L 13.846008 122.086585 
L 11.901371 118.197247 
L 11.4305 118.029202 
L 11.071741 116.836915 
L 9.799778 114.649862 
L 9.436942 114.35649 
L 8.911034 113.097699 
L 8.279129 112.860348 
L 9.192333 111.196291 
L 9.271831 110.356303 
L 9.135258 109.740329 
L 8.279129 107.897827 
L 9.345214 108.108469 
L 9.644859 108.345775 
L 9.987311 108.073806 
L 10.1035 108.233788 
L 10.329762 108.793731 
L 11.177738 108.324444 
L 12.086866 108.345775 
L 12.977648 108.713738 
L 13.750203 109.279025 
L 14.386185 110.206975 
L 15.411502 112.420323 
L 17.133953 113.599074 
L 18.352918 115.092592 
L 19.620805 116.255461 
L 20.964112 115.994078 
L 20.964112 115.545998 
L 20.352591 115.369969 
L 19.826683 115.044585 
L 19.44754 114.521845 
L 19.253892 113.753756 
L 19.936757 113.753756 
L 19.936757 113.308382 
L 18.469107 112.868349 
L 17.087069 112.249649 
L 16.353244 111.252292 
L 16.828192 109.684332 
L 17.417291 109.11637 
L 18.921632 108.361774 
L 19.563729 107.897827 
L 20.644083 106.159437 
L 21.306564 106.556697 
L 21.288218 105.802175 
L 21.434983 105.082334 
L 21.991467 103.869314 
L 22.480684 104.042599 
L 25.795128 104.351849 
L 26.73687 104.687763 
L 27.293354 104.765077 
L 27.705112 104.573125 
L 29.172762 103.381456 
L 28.253442 103.125535 
L 27.187357 103.293483 
L 26.247654 103.184183 
L 26.135541 102.445755 
L 26.094773 102.485742 
L 27.0569 100.912986 
L 28.862925 95.779547 
L 27.611345 97.767765 
L 26.808214 99.550897 
L 25.829781 100.902323 
L 24.04414 101.59539 
L 23.153357 101.536745 
L 22.401187 101.350149 
L 21.740744 101.350149 
L 20.444319 102.363116 
L 19.547422 102.46175 
L 18.713715 102.080548 
L 18.197999 101.184879 
L 19.325236 100.912986 
L 19.918411 100.118647 
L 20.423935 99.17507 
L 21.306564 98.463411 
L 21.306564 98.015637 
L 20.587008 97.805079 
L 20.407628 97.559874 
L 20.248633 97.120111 
L 19.936757 97.120111 
L 19.461809 99.137754 
L 19.107127 99.921399 
L 18.540451 100.251924 
L 17.735282 99.92673 
L 17.025917 99.137754 
L 16.114751 97.56787 
L 15.601073 97.938343 
L 15.2097 97.863715 
L 14.9284 97.423947 
L 14.744944 96.712338 
L 14.500336 97.823736 
L 14.91617 98.540707 
L 15.674456 98.999152 
L 16.487779 99.358985 
L 15.802875 99.804117 
L 17.182874 101.142229 
L 17.260334 102.605702 
L 16.526508 104.010608 
L 15.460423 105.17298 
L 15.670379 105.724858 
L 15.668341 106.308742 
L 15.425771 106.77266 
L 14.91617 106.959295 
L 14.508489 106.756662 
L 14.202729 106.260751 
L 12.500662 102.347122 
L 12.182671 100.422519 
L 11.779067 99.228378 
L 10.56214 96.632383 
L 10.521372 95.555682 
L 10.611062 93.540991 
L 10.861786 93.506348 
L 10.611062 86.570768 
L 12.011445 84.522171 
L 12.58016 84.346357 
L 12.800307 84.572785 
L 12.967456 85.001672 
L 13.379214 85.414582 
L 17.227719 85.377287 
L 18.026773 85.209458 
L 19.045975 84.626062 
L 20.487126 84.442255 
L 23.361274 84.522171 
L 21.294334 83.699051 
L 20.964112 83.890843 
L 20.587008 84.253122 
L 19.72884 84.25845 
L 18.799328 84.024033 
L 18.197999 83.667085 
L 17.643553 83.978749 
L 16.842461 84.178535 
L 16.114751 84.066655 
L 15.64388 82.931895 
L 15.295313 82.798711 
L 14.744944 82.732119 
L 14.708253 82.220699 
L 15.001783 81.903731 
L 15.499153 80.619918 
L 16.502048 80.01266 
L 17.747512 79.71969 
L 18.882903 79.645117 
L 18.882903 79.155068 
L 18.010466 78.792864 
L 16.879152 79.056526 
L 14.744944 80.049947 
L 13.578977 80.207087 
L 12.319244 79.858185 
L 11.336734 78.931353 
L 10.982052 77.370733 
L 10.623293 77.802157 
L 10.611062 78.305495 
L 9.877237 77.370733 
L 9.595937 77.442636 
L 9.271831 78.305495 
L 8.195554 77.168339 
L 8.36678 74.055412 
L 7.561611 72.859877 
L 7.561611 72.455166 
L 8.749888 71.335896 
L 10.941284 70.455088 
L 12.248614 70.150785 
L 13.038189 70.394227 
L 14.938348 71.942844 
L 16.079996 72.456817 
L 16.838507 72.294508 
L 18.358116 70.852377 
L 20.290634 69.638551 
L 21.199293 68.889662 
L 21.881435 67.792572 
L 22.955775 64.787242 
L 23.438581 63.896534 
L 23.723346 63.707241 
L 24.691547 63.534852 
L 24.638477 62.995718 
L 23.951158 61.902279 
L 23.729818 61.244888 
L 23.960219 59.365761 
L 24.753678 57.348233 
L 25.800836 56.39022 
L 26.776803 57.703062 
L 27.873148 56.951168 
L 28.851704 56.863308 
L 29.814727 56.951168 
L 30.869652 56.72476 
L 31.705825 55.820838 
L 32.901838 53.251188 
L 33.770371 52.678503 
L 34.460279 52.428486 
L 34.49005 51.926771 
L 34.28942 51.335537 
L 34.27777 50.816953 
L 34.965089 49.805157 
L 35.809029 49.188641 
L 36.023897 49.235935 
L 36.524824 49.524767 
L 37.016691 48.474179 
L 37.593987 47.685426 
L 39.311638 40.268741 
L 39.213264 39.973272 
L 39.245624 39.703131 
L 40.18276 39.066626 
L 40.314787 38.771172 
L 40.752289 36.628824 
L 40.987868 36.076809 
L 41.451258 35.853981 
L 42.341796 35.891119 
L 42.545014 35.325618 
L 42.60585 32.559086 
L 42.754705 32.353171 
L 43.572757 30.491582 
L 44.032264 29.890775 
L 45.815928 28.378705 
L 45.90524 27.26328 
L 46.567966 27.153597 
L 46.547256 26.829612 
L 46.32721 25.903246 
L 47.005469 20.371158 
L 46.975698 19.524343 
L 47.275995 18.932266 
L 49.079075 17.569368 
L 51.350723 16.501711 
L 58.877578 14.435698 
L 60.037347 14.491351 
L 60.93824 15.251961 
L 61.850782 16.309437 
L 63.040323 17.255644 
L 63.982636 17.704305 
L 64.808455 17.938759 
L 65.660161 17.985987 
L 76.659853 14.896107 
L 77.001571 14.290663 
L 77.244916 10.307628 
L 109.17742 10.08 
L 110.448507 10.250299 
L 112.144153 10.904531 
L 112.837944 10.983782 
L 113.391941 11.607684 
L 113.756958 13.057902 
L 114.437805 17.360218 
L 114.808 18.1243 
L 118.530654 21.16571 
L 120.586139 23.714879 
L 122.330972 26.613626 
L 123.521807 29.551563 
L 124.109458 31.77088 
L 124.414933 32.393679 
L 124.694521 32.619848 
L 125.509984 33.008055 
L 125.836169 33.343943 
L 126.053626 33.853693 
L 126.390166 35.565321 
L 126.760361 36.205105 
L 128.044392 37.354735 
L 128.531081 38.001322 
L 128.707117 38.539877 
L 128.963406 40.336278 
L 129.320656 40.942426 
L 129.841 41.259858 
L 130.221549 41.681982 
L 130.167185 42.610683 
L 129.895364 44.236843 
L 130.107643 45.39532 
L 130.653874 46.376525 
L 131.39944 47.442218 
L 132.183838 48.099223 
L 132.282212 48.467424 
L 131.264824 49.521389 
L 131.88613 49.788266 
L 134.586219 49.974068 
L 135.186814 51.127764 
L 135.78482 51.81528 
L 136.975656 52.71229 
L 139.111393 55.123068 
L 139.176112 55.939107 
L 138.469377 58.769271 
L 138.671301 59.877775 
L 138.606582 60.482742 
L 138.207911 61.244888 
L 136.626171 62.444767 
L 135.733045 64.486392 
L 135.186814 67.310815 
L 135.544065 69.685886 
L 137.343261 70.394227 
L 139.414279 70.299555 
L 141.405045 70.566666 
L 142.57517 70.99777 
L 143.170587 71.630069 
L 143.287082 72.614055 
L 142.518217 76.489519 
L 142.28005 78.760639 
L 142.450909 84.183091 
L 142.919476 86.32297 
L 142.891 87.255102 
L 143.061859 87.525782 
L 143.561492 87.994403 
L 145.614388 91.533882 
L 146.37031 92.246237 
L 146.64472 92.875699 
L 148.7934 96.613874 
L 148.402496 98.01689 
L 147.71906 99.293042 
L 146.776747 100.14441 
L 145.622155 100.262893 
L 144.607356 100.523557 
L 143.644333 101.567934 
L 142.84958 102.955988 
L 142.049649 104.865533 
L 141.278195 105.815279 
L 140.928711 106.609301 
L 140.6776 108.773093 
L 140.136546 108.862832 
L 139.414279 114.527152 
L 138.676479 116.114061 
L 137.765231 117.509671 
L 136.613228 119.720103 
L 136.098062 121.854489 
L 137.105094 123.014922 
L 137.470111 120.816072 
L 138.459022 119.444 
L 139.880258 118.840989 
L 141.537072 118.95617 
L 142.28005 119.366082 
L 143.71423 120.568755 
L 144.244928 120.72121 
L 145.161353 120.245214 
L 146.919129 118.741053 
L 149.878096 114.981029 
L 150.491635 113.966592 
L 151.70318 110.759268 
L 152.189869 109.86691 
L 152.774932 109.157447 
L 153.406592 108.62748 
L 154.159925 108.254986 
L 156.021252 108.007788 
L 157.390713 108.544515 
L 158.21912 109.021992 
L 158.793827 108.9204 
L 158.793827 108.9204 
" clip-path="url(#pea4648cc24)" style="fill: none; stroke: #000000; stroke-width: 0.5; stroke-linecap: square"/>
   </g>
  </g>
 </g>
 <defs>
  <clipPath id="pea4648cc24">
   <rect x="0" y="-0" width="166.355438" height="221.76"/>
  </clipPath>
 </defs>
</svg>
