<?xml version="1.0" encoding="utf-8" standalone="no"?>
<!DOCTYPE svg PUBLIC "-//W3C//DTD SVG 1.1//EN"
  "http://www.w3.org/Graphics/SVG/1.1/DTD/svg11.dtd">
<svg xmlns:xlink="http://www.w3.org/1999/xlink" width="223.2pt" height="149.797896pt" viewBox="0 0 223.2 149.797896" xmlns="http://www.w3.org/2000/svg" version="1.1">
 <metadata>
  <rdf:RDF xmlns:dc="http://purl.org/dc/elements/1.1/" xmlns:cc="http://creativecommons.org/ns#" xmlns:rdf="http://www.w3.org/1999/02/22-rdf-syntax-ns#">
   <cc:Work>
    <dc:type rdf:resource="http://purl.org/dc/dcmitype/StillImage"/>
    <dc:date>2026-04-26T19:22:22.654766</dc:date>
    <dc:format>image/svg+xml</dc:format>
    <dc:creator>
     <cc:Agent>
      <dc:title>Matplotlib v3.10.9, https://matplotlib.org/</dc:title>
     </cc:Agent>
    </dc:creator>
   </cc:Work>
  </rdf:RDF>
 </metadata>
 <defs>
  <style type="text/css">*{stroke-linejoin: round; stroke-linecap: butt}</style>
 </defs>
 <g id="figure_1">
  <g id="patch_1">
   <path d="M 0 149.797896 
L 223.2 149.797896 
L 223.2 0 
L 0 0 
z
" style="fill: #ffffff"/>
  </g>
  <g id="axes_1">
   <g id="patch_2">
    <path d="M 189.220346 49.315272 
L 203.13879 53.493808 
L 210.87126 57.281555 
L 213.054545 61.820848 
L 206.595659 76.040035 
L 197.089271 91.161192 
L 185.627022 103.246182 
L 173.073131 108.146336 
L 159.291141 110.160514 
L 148.374714 115.691998 
L 128.816115 133.398865 
L 125.586672 137.36715 
L 123.994694 139.892427 
L 121.083646 141.545883 
L 113.896998 142.988901 
L 100.251464 142.628146 
L 93.519667 140.343369 
L 90.654105 135.924137 
L 85.878168 125.79301 
L 74.279464 118.758371 
L 60.315535 114.459438 
L 48.35295 112.74588 
L 24.063899 113.587627 
L 14.19363 110.401013 
L 10.145455 100.179833 
L 12.556166 88.515732 
L 29.249202 57.281555 
L 31.659913 43.303006 
L 34.434505 35.42697 
L 40.711451 26.979809 
L 48.125524 21.027741 
L 53.492768 19.855366 
L 65.682778 21.959629 
L 78.236669 19.855366 
L 93.792578 10.025488 
L 102.116354 6.808995 
L 116.989986 7.9513 
L 131.317796 14.143809 
L 173.391526 41.920188 
z
" clip-path="url(#p915514d0cd)" style="stroke: #000000; stroke-linejoin: miter"/>
   </g>
   <g id="line2d_1">
    <path d="M 189.220346 49.315272 
L 203.13879 53.493808 
L 210.87126 57.281555 
L 213.054545 61.820848 
L 206.595659 76.040035 
L 197.089271 91.161192 
L 185.627022 103.246182 
L 173.073131 108.146336 
L 159.291141 110.160514 
L 148.374714 115.691998 
L 128.816115 133.398865 
L 125.586672 137.36715 
L 123.994694 139.892427 
L 121.083646 141.545883 
L 113.896998 142.988901 
L 100.251464 142.628146 
L 93.519667 140.343369 
L 90.654105 135.924137 
L 85.878168 125.79301 
L 74.279464 118.758371 
L 60.315535 114.459438 
L 48.35295 112.74588 
L 24.063899 113.587627 
L 14.19363 110.401013 
L 10.145455 100.179833 
L 12.556166 88.515732 
L 29.249202 57.281555 
L 31.659913 43.303006 
L 34.434505 35.42697 
L 40.711451 26.979809 
L 48.125524 21.027741 
L 53.492768 19.855366 
L 65.682778 21.959629 
L 78.236669 19.855366 
L 93.792578 10.025488 
L 102.116354 6.808995 
L 116.989986 7.9513 
L 131.317796 14.143809 
L 173.391526 41.920188 
L 189.220346 49.315272 
" clip-path="url(#p915514d0cd)" style="fill: none; stroke: #000000; stroke-width: 0.5; stroke-linecap: square"/>
   </g>
  </g>
 </g>
 <defs>
  <clipPath id="p915514d0cd">
   <rect x="0" y="-0" width="223.2" height="149.797896"/>
  </clipPath>
 </defs>
</svg>
