<?xml version="1.0" encoding="utf-8" standalone="no"?>
<!DOCTYPE svg PUBLIC "-//W3C//DTD SVG 1.1//EN"
  "http://www.w3.org/Graphics/SVG/1.1/DTD/svg11.dtd">
<svg xmlns:xlink="http://www.w3.org/1999/xlink" width="223.2pt" height="63.839505pt" viewBox="0 0 223.2 63.839505" xmlns="http://www.w3.org/2000/svg" version="1.1">
 <metadata>
  <rdf:RDF xmlns:dc="http://purl.org/dc/elements/1.1/" xmlns:cc="http://creativecommons.org/ns#" xmlns:rdf="http://www.w3.org/1999/02/22-rdf-syntax-ns#">
   <cc:Work>
    <dc:type rdf:resource="http://purl.org/dc/dcmitype/StillImage"/>
    <dc:date>2026-04-26T19:21:59.040553</dc:date>
    <dc:format>image/svg+xml</dc:format>
    <dc:creator>
     <cc:Agent>
      <dc:title>Matplotlib v3.10.9, https://matplotlib.org/</dc:title>
     </cc:Agent>
    </dc:creator>
   </cc:Work>
  </rdf:RDF>
 </metadata>
 <defs>
  <style type="text/css">*{stroke-linejoin: round; stroke-linecap: butt}</style>
 </defs>
 <g id="figure_1">
  <g id="patch_1">
   <path d="M 0 63.839505 
L 223.2 63.839505 
L 223.2 0 
L 0 0 
z
" style="fill: #ffffff"/>
  </g>
  <g id="axes_1">
   <g id="patch_2">
    <path d="M 213.054545 19.283508 
L 212.782056 19.796231 
L 212.524295 20.506927 
L 212.358592 21.224382 
L 212.373321 21.750617 
L 211.820977 22.021045 
L 210.451164 22.136957 
L 209.825174 22.420333 
L 209.051893 23.728389 
L 208.610017 24.282869 
L 208.56583 24.43603 
L 208.569512 24.839157 
L 208.499549 25.029468 
L 208.16446 25.308525 
L 207.310168 25.726397 
L 207.039125 25.95105 
L 206.971397 26.007192 
L 206.73573 26.388119 
L 206.709954 26.631896 
L 206.779918 26.887014 
L 206.857246 27.946678 
L 206.776235 28.158373 
L 206.529522 28.517187 
L 206.220209 28.775842 
L 205.88512 28.929438 
L 205.612631 29.134795 
L 205.502162 29.553676 
L 205.546349 30.225087 
L 205.318047 30.890305 
L 204.883537 31.474825 
L 204.312781 31.915381 
L 203.881953 32.079 
L 202.931921 32.255598 
L 202.493728 32.430596 
L 202.224921 32.65099 
L 201.853009 33.151041 
L 201.632072 33.379641 
L 199.304862 34.480135 
L 198.77093 34.991307 
L 198.697284 35.627658 
L 199.113383 36.901116 
L 198.988185 37.395177 
L 198.59418 37.907274 
L 198.561039 40.175458 
L 197.887179 40.684364 
L 197.264872 40.975123 
L 196.602059 41.08916 
L 194.470011 40.965349 
L 193.82561 40.989784 
L 193.170162 41.123373 
L 191.310603 41.180396 
L 190.7914 41.300965 
L 189.705124 41.667615 
L 188.169607 41.802889 
L 186.324778 42.359588 
L 185.242184 42.415023 
L 184.126449 42.190031 
L 183.183782 41.778441 
L 182.340537 41.198318 
L 180.344734 39.392461 
L 180.053833 39.055613 
L 179.589864 37.756067 
L 179.280551 37.398428 
L 178.672973 37.31797 
L 177.358394 37.328535 
L 176.791321 37.175756 
L 176.551972 36.95474 
L 176.22793 36.345479 
L 175.992263 36.075852 
L 175.686633 35.912637 
L 175.042232 35.764052 
L 173.845486 35.345165 
L 173.326283 35.252635 
L 171.477772 35.595997 
L 170.262615 35.611421 
L 169.666083 35.682864 
L 168.97013 35.924004 
L 168.671864 36.217157 
L 168.469338 36.551789 
L 168.053239 36.904366 
L 167.526671 37.078245 
L 167.121619 36.97424 
L 166.679743 36.755689 
L 166.035342 36.589968 
L 164.853326 36.747565 
L 162.095288 37.521154 
L 161.193126 37.398428 
L 160.475079 36.982366 
L 159.48086 36.718319 
L 158.431406 36.607839 
L 157.540291 36.648456 
L 156.2699 36.581845 
L 154.329332 35.886654 
L 153.209914 35.816826 
L 152.694393 35.738071 
L 151.637575 35.173096 
L 151.085231 35.002668 
L 150.507111 35.008348 
L 142.969457 36.028754 
L 140.760081 36.116456 
L 139.732721 36.358474 
L 139.692216 36.595654 
L 139.681169 36.857243 
L 139.751132 37.402491 
L 139.773226 37.513026 
L 139.776908 37.624381 
L 139.762179 37.736557 
L 139.732721 37.847115 
L 139.254023 38.267465 
L 139.173128 38.31778 
L 138.090418 38.991343 
L 137.556486 39.405481 
L 137.144069 39.89461 
L 135.759526 42.397088 
L 135.015703 43.307961 
L 134.124588 44.114064 
L 133.089864 44.731148 
L 132.276077 44.98262 
L 131.845249 44.874025 
L 131.443879 44.611958 
L 130.733196 44.399722 
L 130.331826 44.504204 
L 129.256596 45.092038 
L 128.660065 45.24883 
L 128.034075 45.209631 
L 127.669528 45.129602 
L 127.363898 45.165533 
L 126.91834 45.479145 
L 126.778413 45.701323 
L 126.583252 46.269975 
L 126.321809 46.552741 
L 126.027225 46.690873 
L 125.353366 46.845365 
L 123.936112 47.361523 
L 123.817849 47.404601 
L 122.462765 47.656483 
L 121.641614 47.958302 
L 120.028769 48.854269 
L 119.189206 49.037614 
L 118.449066 48.869002 
L 117.093982 48.139093 
L 116.217596 47.973026 
L 114.932475 48.265085 
L 114.593704 48.238904 
L 114.258616 47.93867 
L 114.346991 47.671205 
L 114.549517 47.398059 
L 114.531105 47.08735 
L 113.897751 46.631205 
L 113.06187 46.549472 
L 111.419568 46.739099 
L 111.062385 46.628753 
L 110.289104 46.060793 
L 109.884051 45.856539 
L 109.526869 45.794451 
L 109.147593 45.787098 
L 105.870352 46.304297 
L 105.255409 46.515962 
L 104.865086 46.976163 
L 104.529997 48.20127 
L 104.106533 48.702043 
L 104.095486 48.716774 
L 104.088122 48.731505 
L 104.095486 48.751147 
L 104.106533 48.772426 
L 104.161768 48.945939 
L 104.180179 49.117834 
L 104.161768 49.284834 
L 104.106533 49.448577 
L 102.199105 50.256065 
L 97.39003 50.195449 
L 95.261665 51.009859 
L 94.871341 51.057392 
L 90.452589 50.73534 
L 88.320542 50.921352 
L 87.620614 50.901499 
L 86.818166 50.878739 
L 86.29528 51.02461 
L 84.577192 51.255102 
L 81.187939 51.709884 
L 80.565632 52.013265 
L 79.611918 53.197805 
L 79.273147 53.373425 
L 78.580876 53.444007 
L 78.256834 53.557272 
L 77.792865 53.899576 
L 77.840735 54.016978 
L 78.087449 54.14424 
L 78.205282 54.511303 
L 77.848099 55.824196 
L 77.759724 56.494186 
L 77.991709 57.090416 
L 79.033798 57.704139 
L 80.403611 58.30574 
L 80.348861 58.317398 
L 79.471991 58.504126 
L 78.665569 58.632555 
L 78.046943 58.909204 
L 76.868609 59.722124 
L 75.999588 60.04592 
L 74.961181 60.11184 
L 73.896999 59.986594 
L 72.600831 59.641391 
L 71.002716 59.571371 
L 63.708093 60.083823 
L 61.042113 60.738211 
L 59.720169 60.814051 
L 55.327194 60.53956 
L 47.165155 60.857465 
L 45.105147 60.93771 
L 42.12249 60.447249 
L 41.311881 60.182871 
L 39.79528 59.688348 
L 39.423369 59.437928 
L 39.143514 59.110132 
L 38.484384 58.731353 
L 37.744243 58.411927 
L 37.213993 58.252237 
L 36.812623 58.288454 
L 36.45544 58.393817 
L 36.087211 58.402049 
L 35.6527 58.132891 
L 34.44859 57.046 
L 34.117184 56.914404 
L 33.222387 56.80091 
L 32.854157 56.708805 
L 32.50434 56.514743 
L 28.847822 53.576971 
L 27.724723 53.020562 
L 25.401196 52.810522 
L 25.032265 52.748833 
L 23.556367 52.502072 
L 22.271246 52.336387 
L 20.971397 52.80724 
L 20.139199 52.360172 
L 18.986641 52.114951 
L 18.169172 51.847628 
L 18.360651 51.327046 
L 17.933505 51.114762 
L 17.793578 51.062309 
L 17.996104 50.472336 
L 18.180219 50.151217 
L 18.544766 49.883392 
L 18.080797 49.587771 
L 17.911542 49.404327 
L 17.377479 48.825624 
L 17.001885 48.682402 
L 16.431129 48.630027 
L 15.941384 48.451637 
L 15.042905 47.865869 
L 14.788826 47.37271 
L 14.785144 46.686786 
L 14.615759 46.11472 
L 14.059732 44.979354 
L 14.045003 44.828303 
L 14.092873 44.466655 
L 14.059732 44.329527 
L 13.92717 44.22016 
L 13.706232 44.175272 
L 13.312227 43.963093 
L 12.988185 43.874966 
L 12.715695 43.77134 
L 12.597862 43.58532 
L 12.553674 43.44174 
L 12.439523 43.260652 
L 12.318008 43.10242 
L 12.222268 43.035543 
L 12.067612 42.9703 
L 12.133893 42.810465 
L 12.27382 42.627816 
L 12.354831 42.487582 
L 12.19281 42.23731 
L 11.828263 41.996856 
L 11.452669 41.814299 
L 11.250143 41.744215 
L 10.532095 41.699396 
L 10.255923 41.600797 
L 10.145455 41.410951 
L 10.167548 41.064723 
L 10.230147 40.921365 
L 10.318522 40.827701 
L 10.41058 40.628987 
L 10.727257 38.947413 
L 10.874549 38.497607 
L 11.235413 38.073944 
L 12.167034 37.285463 
L 12.354831 36.866992 
L 12.619956 36.570472 
L 13.209123 36.291875 
L 13.794607 35.929688 
L 13.871271 35.769097 
L 14.059732 35.374386 
L 13.728326 33.90587 
L 13.816701 33.309923 
L 14.380092 32.908695 
L 14.788826 32.471917 
L 16.589468 29.450159 
L 17.465854 28.583463 
L 18.692057 27.967685 
L 19.203896 27.591224 
L 19.413787 27.001669 
L 19.737829 26.711011 
L 21.652621 25.903905 
L 23.247054 25.707034 
L 24.959321 25.965231 
L 29.024572 27.158324 
L 29.643198 27.090492 
L 30.337626 26.826722 
L 30.990917 26.578617 
L 31.837844 26.434934 
L 32.357048 26.580232 
L 33.447007 27.247156 
L 34.750538 27.365068 
L 41.595922 25.805467 
L 42.225594 25.503734 
L 43.45548 24.281257 
L 44.029918 24.005605 
L 44.906303 23.918567 
L 45.657491 23.99271 
L 46.338716 23.970144 
L 46.994164 23.60108 
L 47.285065 23.174104 
L 47.561237 22.209406 
L 47.782175 21.747398 
L 48.253508 21.203465 
L 49.001014 20.926743 
L 49.86267 20.849527 
L 51.77378 20.934787 
L 52.955797 20.622727 
L 54.00525 20.061498 
L 54.745391 19.342969 
L 54.981058 18.66011 
L 54.935624 17.271891 
L 54.929506 17.08505 
L 55.058386 16.252405 
L 55.511308 15.234265 
L 56.177803 14.288875 
L 57.035778 13.494552 
L 58.085231 12.929486 
L 62.879577 11.867146 
L 64.197455 11.281178 
L 65.037401 10.907828 
L 65.125776 9.439632 
L 66.164183 9.572176 
L 66.96324 9.275167 
L 68.480345 8.224919 
L 69.651315 7.869147 
L 69.945898 7.700065 
L 70.12633 7.428934 
L 70.214705 6.854933 
L 70.39882 6.601485 
L 71.131596 6.340111 
L 72.707618 6.469198 
L 73.723931 6.166417 
L 73.970645 6.137736 
L 74.217358 6.166417 
L 75.384645 6.497886 
L 76.415687 6.676399 
L 77.413589 6.64452 
L 78.875459 5.885999 
L 79.541954 5.742624 
L 81.000143 5.720322 
L 84.52778 5.903524 
L 85.558822 6.258839 
L 85.245827 6.778416 
L 85.28265 7.218442 
L 85.455717 7.636265 
L 85.547775 8.094087 
L 85.400483 9.109122 
L 85.599327 9.457198 
L 86.29528 9.530655 
L 87.197442 9.490732 
L 88.57462 9.037282 
L 89.351584 8.933518 
L 89.679308 8.997372 
L 90.386308 9.289537 
L 90.728761 9.388534 
L 91.096991 9.402905 
L 91.991788 9.30231 
L 93.089112 9.053246 
L 93.346872 8.805818 
L 93.438929 8.421187 
L 93.689325 7.819696 
L 93.79243 7.806935 
L 94.230622 7.800555 
L 94.388961 7.733561 
L 94.473654 7.527811 
L 94.40369 7.381092 
L 94.289539 7.288603 
L 94.22694 7.253522 
L 94.797696 6.252465 
L 95.283758 5.81431 
L 95.802962 5.53555 
L 96.384764 5.374689 
L 97.069671 5.291876 
L 98.166994 5.298246 
L 98.535223 5.264803 
L 99.039697 5.150148 
L 99.308505 5.01958 
L 102.397949 3.105331 
L 102.534194 2.952677 
L 102.740402 2.901796 
L 102.936295 2.946909 
L 103.237512 3.016281 
L 103.837726 3.611108 
L 104.106533 3.771783 
L 104.942414 4.083636 
L 105.373242 4.702759 
L 106.021326 6.257245 
L 106.595763 7.239171 
L 106.779878 7.459234 
L 107.391139 7.725585 
L 108.134962 7.838838 
L 109.56001 7.846814 
L 109.394306 8.041439 
L 109.339072 8.208963 
L 109.361166 8.692494 
L 109.285543 9.056074 
L 109.28363 9.065275 
L 111.331193 9.460391 
L 112.108157 9.508298 
L 112.829886 9.466779 
L 114.022949 9.195335 
L 114.343295 9.332678 
L 114.350673 9.335841 
L 114.68208 9.920356 
L 114.862512 10.434785 
L 115.072403 11.931121 
L 115.017168 12.057481 
L 114.744678 12.289434 
L 114.722992 12.418207 
L 114.722585 12.420623 
L 114.847783 12.524623 
L 115.333891 12.729509 
L 115.337528 12.731042 
L 115.394586 12.8013 
L 115.403809 12.812657 
L 115.67434 12.97452 
L 115.687346 12.982302 
L 115.753627 13.116751 
L 115.668934 13.291232 
L 115.462726 13.36007 
L 115.234423 13.396891 
L 115.076085 13.470536 
L 113.728366 14.723041 
L 113.584756 15.131686 
L 114.045043 15.493947 
L 114.943522 15.681523 
L 116.585825 15.75207 
L 117.377518 15.585327 
L 117.878903 15.289819 
L 118.574264 14.880076 
L 119.218665 14.607679 
L 120.360176 14.535582 
L 121.350713 14.828798 
L 123.188177 15.814603 
L 124.370193 16.144948 
L 125.066147 15.838655 
L 125.434376 15.06277 
L 125.636902 13.979745 
L 126.078777 13.675481 
L 126.325491 13.331254 
L 126.528017 12.963096 
L 127.209241 12.094271 
L 127.411768 11.940718 
L 127.500143 11.988702 
L 128.284471 12.041486 
L 128.634289 11.85595 
L 129.411253 11.329854 
L 129.95255 11.157193 
L 132.703223 11.019718 
L 132.879973 10.882255 
L 133.134051 10.45396 
L 133.318166 10.013004 
L 133.391812 9.728687 
L 133.524374 9.537043 
L 133.888921 9.382147 
L 134.312385 9.377357 
L 135.770573 9.688759 
L 137.61172 9.648832 
L 137.604355 9.117105 
L 138.160382 9.045264 
L 141.172498 9.915564 
L 141.953144 10.024187 
L 142.796389 9.853269 
L 143.205124 9.636056 
L 143.772197 9.238444 
L 144.136744 9.121894 
L 144.464468 9.109122 
L 145.234067 9.17458 
L 146.581786 9.05165 
L 147.137813 9.107526 
L 150.300903 11.249916 
L 150.864294 11.483347 
L 151.663351 11.553703 
L 152.27093 11.532916 
L 152.830638 11.580887 
L 153.497133 11.862348 
L 154.078936 12.206247 
L 154.657056 12.444623 
L 155.312504 12.515022 
L 156.148385 12.343828 
L 156.917984 11.96471 
L 158.081589 10.997339 
L 158.814365 10.592983 
L 159.374073 10.525867 
L 160.125261 10.521073 
L 160.784392 10.44597 
L 161.075293 10.163171 
L 160.640782 9.696745 
L 159.819631 9.414083 
L 159.38512 9.13307 
L 160.10685 8.676533 
L 160.651829 8.529704 
L 162.098971 8.36374 
L 162.651315 8.392463 
L 163.295716 8.643016 
L 163.803872 8.963848 
L 164.348852 9.176177 
L 165.114769 9.104333 
L 165.726029 8.780279 
L 166.838082 7.84841 
L 167.482483 7.596391 
L 167.975911 7.66338 
L 169.971714 8.264809 
L 173.444116 8.820184 
L 174.033283 8.816991 
L 175.355227 8.652593 
L 175.878112 8.740376 
L 176.527824 8.59129 
L 177.067493 8.467465 
L 179.619322 8.3047 
L 180.285817 8.402038 
L 180.646682 8.539279 
L 181.309495 8.904784 
L 181.67036 9.04686 
L 181.939167 9.067614 
L 182.491511 8.997372 
L 182.845011 9.056439 
L 183.445225 9.404502 
L 184.64197 10.449166 
L 185.190632 10.701653 
L 185.562544 10.561022 
L 186.067018 10.220685 
L 186.681961 9.901188 
L 187.400008 9.826116 
L 188.051774 10.036966 
L 189.358988 10.719233 
L 191.277463 11.262706 
L 192.562583 11.950315 
L 193.586261 12.891075 
L 194.0355 13.98455 
L 194.271167 14.97142 
L 195.280116 15.392954 
L 197.802487 15.667093 
L 198.962409 16.093627 
L 199.374826 16.197873 
L 199.732008 16.210704 
L 200.5863 16.151363 
L 200.880884 16.183439 
L 201.271207 16.432052 
L 201.274889 16.650222 
L 201.175467 16.850773 
L 201.256478 17.046536 
L 201.521603 17.176523 
L 203.193364 17.468633 
L 205.163391 17.425295 
L 205.921943 17.59705 
L 207.726267 18.636014 
L 209.033481 18.865739 
L 211.820977 18.934824 
z
" clip-path="url(#p398d618a82)" style="stroke: #000000; stroke-linejoin: miter"/>
   </g>
   <g id="line2d_1">
    <path d="M 213.054545 19.283508 
L 212.524295 20.506927 
L 212.358592 21.224382 
L 212.373321 21.750617 
L 211.820977 22.021045 
L 210.451164 22.136957 
L 209.825174 22.420333 
L 208.56583 24.43603 
L 208.499549 25.029468 
L 208.16446 25.308525 
L 206.971397 26.007192 
L 206.709954 26.631896 
L 206.779918 26.887014 
L 206.776235 28.158373 
L 206.220209 28.775842 
L 205.612631 29.134795 
L 205.502162 29.553676 
L 205.546349 30.225087 
L 205.318047 30.890305 
L 204.883537 31.474825 
L 204.312781 31.915381 
L 203.881953 32.079 
L 202.493728 32.430596 
L 202.224921 32.65099 
L 201.632072 33.379641 
L 199.304862 34.480135 
L 198.77093 34.991307 
L 198.697284 35.627658 
L 199.113383 36.901116 
L 198.988185 37.395177 
L 198.59418 37.907274 
L 198.561039 40.175458 
L 197.887179 40.684364 
L 197.264872 40.975123 
L 196.602059 41.08916 
L 193.82561 40.989784 
L 193.170162 41.123373 
L 190.7914 41.300965 
L 189.705124 41.667615 
L 188.169607 41.802889 
L 186.324778 42.359588 
L 185.242184 42.415023 
L 184.126449 42.190031 
L 183.183782 41.778441 
L 182.340537 41.198318 
L 180.053833 39.055613 
L 179.589864 37.756067 
L 179.280551 37.398428 
L 178.672973 37.31797 
L 177.358394 37.328535 
L 176.791321 37.175756 
L 176.551972 36.95474 
L 175.992263 36.075852 
L 175.686633 35.912637 
L 175.042232 35.764052 
L 173.326283 35.252635 
L 171.477772 35.595997 
L 169.666083 35.682864 
L 168.97013 35.924004 
L 168.053239 36.904366 
L 167.526671 37.078245 
L 166.035342 36.589968 
L 164.853326 36.747565 
L 162.095288 37.521154 
L 161.193126 37.398428 
L 160.475079 36.982366 
L 159.48086 36.718319 
L 158.431406 36.607839 
L 157.540291 36.648456 
L 156.2699 36.581845 
L 154.329332 35.886654 
L 152.694393 35.738071 
L 151.085231 35.002668 
L 150.507111 35.008348 
L 142.969457 36.028754 
L 140.760081 36.116456 
L 139.732721 36.358474 
L 139.681169 36.857243 
L 139.732721 37.847115 
L 139.173128 38.31778 
L 137.556486 39.405481 
L 137.144069 39.89461 
L 135.759526 42.397088 
L 135.015703 43.307961 
L 134.124588 44.114064 
L 133.089864 44.731148 
L 132.276077 44.98262 
L 131.845249 44.874025 
L 131.443879 44.611958 
L 130.733196 44.399722 
L 130.331826 44.504204 
L 129.256596 45.092038 
L 128.660065 45.24883 
L 127.363898 45.165533 
L 126.778413 45.701323 
L 126.583252 46.269975 
L 126.321809 46.552741 
L 126.027225 46.690873 
L 125.353366 46.845365 
L 123.817849 47.404601 
L 122.462765 47.656483 
L 121.641614 47.958302 
L 120.028769 48.854269 
L 119.189206 49.037614 
L 118.449066 48.869002 
L 117.093982 48.139093 
L 116.217596 47.973026 
L 114.593704 48.238904 
L 114.258616 47.93867 
L 114.531105 47.08735 
L 113.897751 46.631205 
L 113.06187 46.549472 
L 111.419568 46.739099 
L 111.062385 46.628753 
L 109.884051 45.856539 
L 109.147593 45.787098 
L 105.870352 46.304297 
L 105.255409 46.515962 
L 104.865086 46.976163 
L 104.529997 48.20127 
L 104.106533 48.772426 
L 104.161768 49.284834 
L 104.106533 49.448577 
L 102.199105 50.256065 
L 97.39003 50.195449 
L 94.871341 51.057392 
L 90.452589 50.73534 
L 87.620614 50.901499 
L 86.818166 50.878739 
L 86.29528 51.02461 
L 81.187939 51.709884 
L 80.565632 52.013265 
L 79.611918 53.197805 
L 79.273147 53.373425 
L 78.256834 53.557272 
L 77.792865 53.899576 
L 77.840735 54.016978 
L 78.087449 54.14424 
L 78.205282 54.511303 
L 77.759724 56.494186 
L 77.991709 57.090416 
L 79.033798 57.704139 
L 80.403611 58.30574 
L 80.348861 58.317398 
L 78.046943 58.909204 
L 76.868609 59.722124 
L 75.999588 60.04592 
L 74.961181 60.11184 
L 73.896999 59.986594 
L 72.600831 59.641391 
L 71.002716 59.571371 
L 63.708093 60.083823 
L 61.042113 60.738211 
L 59.720169 60.814051 
L 55.327194 60.53956 
L 45.105147 60.93771 
L 42.12249 60.447249 
L 39.79528 59.688348 
L 39.423369 59.437928 
L 39.143514 59.110132 
L 37.744243 58.411927 
L 37.213993 58.252237 
L 36.087211 58.402049 
L 35.6527 58.132891 
L 34.44859 57.046 
L 34.117184 56.914404 
L 32.854157 56.708805 
L 32.50434 56.514743 
L 28.847822 53.576971 
L 27.724723 53.020562 
L 25.032265 52.748833 
L 22.271246 52.336387 
L 20.971397 52.80724 
L 20.139199 52.360172 
L 18.169172 51.847628 
L 18.360651 51.327046 
L 17.793578 51.062309 
L 18.180219 50.151217 
L 18.544766 49.883392 
L 17.911542 49.404327 
L 17.377479 48.825624 
L 17.001885 48.682402 
L 16.431129 48.630027 
L 15.941384 48.451637 
L 15.042905 47.865869 
L 14.788826 47.37271 
L 14.785144 46.686786 
L 14.615759 46.11472 
L 14.045003 44.828303 
L 14.059732 44.329527 
L 13.706232 44.175272 
L 12.988185 43.874966 
L 12.715695 43.77134 
L 12.222268 43.035543 
L 12.067612 42.9703 
L 12.354831 42.487582 
L 12.19281 42.23731 
L 11.250143 41.744215 
L 10.255923 41.600797 
L 10.145455 41.410951 
L 10.230147 40.921365 
L 10.41058 40.628987 
L 10.874549 38.497607 
L 11.235413 38.073944 
L 12.167034 37.285463 
L 12.354831 36.866992 
L 12.619956 36.570472 
L 13.794607 35.929688 
L 14.059732 35.374386 
L 13.728326 33.90587 
L 13.816701 33.309923 
L 14.380092 32.908695 
L 14.788826 32.471917 
L 16.589468 29.450159 
L 17.465854 28.583463 
L 19.203896 27.591224 
L 19.413787 27.001669 
L 19.737829 26.711011 
L 21.652621 25.903905 
L 23.247054 25.707034 
L 24.959321 25.965231 
L 29.024572 27.158324 
L 29.643198 27.090492 
L 30.990917 26.578617 
L 31.837844 26.434934 
L 32.357048 26.580232 
L 33.447007 27.247156 
L 34.750538 27.365068 
L 41.595922 25.805467 
L 42.225594 25.503734 
L 43.45548 24.281257 
L 44.029918 24.005605 
L 44.906303 23.918567 
L 46.338716 23.970144 
L 46.994164 23.60108 
L 47.285065 23.174104 
L 47.782175 21.747398 
L 48.253508 21.203465 
L 49.001014 20.926743 
L 49.86267 20.849527 
L 51.77378 20.934787 
L 52.955797 20.622727 
L 54.00525 20.061498 
L 54.745391 19.342969 
L 54.981058 18.66011 
L 54.929506 17.08505 
L 55.058386 16.252405 
L 55.511308 15.234265 
L 56.177803 14.288875 
L 57.035778 13.494552 
L 58.085231 12.929486 
L 62.879577 11.867146 
L 65.037401 10.907828 
L 65.125776 9.439632 
L 66.164183 9.572176 
L 66.96324 9.275167 
L 68.480345 8.224919 
L 69.945898 7.700065 
L 70.12633 7.428934 
L 70.214705 6.854933 
L 70.39882 6.601485 
L 71.131596 6.340111 
L 72.707618 6.469198 
L 73.970645 6.137736 
L 74.217358 6.166417 
L 76.415687 6.676399 
L 77.413589 6.64452 
L 78.875459 5.885999 
L 79.541954 5.742624 
L 81.000143 5.720322 
L 84.52778 5.903524 
L 85.558822 6.258839 
L 85.245827 6.778416 
L 85.28265 7.218442 
L 85.547775 8.094087 
L 85.400483 9.109122 
L 85.599327 9.457198 
L 86.29528 9.530655 
L 87.197442 9.490732 
L 88.57462 9.037282 
L 89.679308 8.997372 
L 90.728761 9.388534 
L 91.096991 9.402905 
L 91.991788 9.30231 
L 93.089112 9.053246 
L 93.346872 8.805818 
L 93.689325 7.819696 
L 94.388961 7.733561 
L 94.473654 7.527811 
L 94.22694 7.253522 
L 94.797696 6.252465 
L 95.283758 5.81431 
L 95.802962 5.53555 
L 97.069671 5.291876 
L 98.535223 5.264803 
L 99.308505 5.01958 
L 102.740402 2.901796 
L 103.237512 3.016281 
L 104.106533 3.771783 
L 104.942414 4.083636 
L 105.373242 4.702759 
L 106.021326 6.257245 
L 106.779878 7.459234 
L 107.391139 7.725585 
L 108.134962 7.838838 
L 109.56001 7.846814 
L 109.339072 8.208963 
L 109.28363 9.065275 
L 112.108157 9.508298 
L 112.829886 9.466779 
L 114.022949 9.195335 
L 114.350673 9.335841 
L 114.862512 10.434785 
L 115.017168 12.057481 
L 114.722585 12.420623 
L 114.847783 12.524623 
L 115.687346 12.982302 
L 115.753627 13.116751 
L 115.668934 13.291232 
L 115.076085 13.470536 
L 113.728366 14.723041 
L 113.584756 15.131686 
L 114.045043 15.493947 
L 114.943522 15.681523 
L 116.585825 15.75207 
L 117.377518 15.585327 
L 119.218665 14.607679 
L 120.360176 14.535582 
L 121.350713 14.828798 
L 123.188177 15.814603 
L 124.370193 16.144948 
L 125.066147 15.838655 
L 125.434376 15.06277 
L 125.636902 13.979745 
L 126.078777 13.675481 
L 127.411768 11.940718 
L 127.500143 11.988702 
L 128.284471 12.041486 
L 129.95255 11.157193 
L 132.703223 11.019718 
L 132.879973 10.882255 
L 133.318166 10.013004 
L 133.524374 9.537043 
L 133.888921 9.382147 
L 134.312385 9.377357 
L 135.770573 9.688759 
L 137.61172 9.648832 
L 137.604355 9.117105 
L 138.160382 9.045264 
L 141.172498 9.915564 
L 141.953144 10.024187 
L 142.796389 9.853269 
L 144.136744 9.121894 
L 147.137813 9.107526 
L 150.300903 11.249916 
L 150.864294 11.483347 
L 152.830638 11.580887 
L 155.312504 12.515022 
L 156.148385 12.343828 
L 156.917984 11.96471 
L 158.081589 10.997339 
L 158.814365 10.592983 
L 160.784392 10.44597 
L 161.075293 10.163171 
L 160.640782 9.696745 
L 159.819631 9.414083 
L 159.38512 9.13307 
L 160.10685 8.676533 
L 160.651829 8.529704 
L 162.651315 8.392463 
L 163.295716 8.643016 
L 163.803872 8.963848 
L 164.348852 9.176177 
L 165.114769 9.104333 
L 165.726029 8.780279 
L 166.838082 7.84841 
L 167.482483 7.596391 
L 167.975911 7.66338 
L 169.971714 8.264809 
L 174.033283 8.816991 
L 175.355227 8.652593 
L 175.878112 8.740376 
L 177.067493 8.467465 
L 179.619322 8.3047 
L 180.646682 8.539279 
L 181.67036 9.04686 
L 181.939167 9.067614 
L 182.845011 9.056439 
L 183.445225 9.404502 
L 184.64197 10.449166 
L 185.190632 10.701653 
L 185.562544 10.561022 
L 186.681961 9.901188 
L 187.400008 9.826116 
L 188.051774 10.036966 
L 189.358988 10.719233 
L 191.277463 11.262706 
L 192.562583 11.950315 
L 193.586261 12.891075 
L 194.0355 13.98455 
L 194.271167 14.97142 
L 195.280116 15.392954 
L 197.802487 15.667093 
L 199.374826 16.197873 
L 200.880884 16.183439 
L 201.271207 16.432052 
L 201.256478 17.046536 
L 201.521603 17.176523 
L 203.193364 17.468633 
L 205.163391 17.425295 
L 205.921943 17.59705 
L 207.726267 18.636014 
L 209.033481 18.865739 
L 211.820977 18.934824 
L 213.054545 19.283508 
L 213.054545 19.283508 
" clip-path="url(#p398d618a82)" style="fill: none; stroke: #000000; stroke-width: 0.5; stroke-linecap: square"/>
   </g>
  </g>
 </g>
 <defs>
  <clipPath id="p398d618a82">
   <rect x="0" y="-0" width="223.2" height="63.839505"/>
  </clipPath>
 </defs>
</svg>
