<?xml version="1.0" encoding="utf-8" standalone="no"?>
<!DOCTYPE svg PUBLIC "-//W3C//DTD SVG 1.1//EN"
  "http://www.w3.org/Graphics/SVG/1.1/DTD/svg11.dtd">
<svg xmlns:xlink="http://www.w3.org/1999/xlink" width="129.794344pt" height="221.76pt" viewBox="0 0 129.794344 221.76" xmlns="http://www.w3.org/2000/svg" version="1.1">
 <metadata>
  <rdf:RDF xmlns:dc="http://purl.org/dc/elements/1.1/" xmlns:cc="http://creativecommons.org/ns#" xmlns:rdf="http://www.w3.org/1999/02/22-rdf-syntax-ns#">
   <cc:Work>
    <dc:type rdf:resource="http://purl.org/dc/dcmitype/StillImage"/>
    <dc:date>2026-04-26T19:22:21.287425</dc:date>
    <dc:format>image/svg+xml</dc:format>
    <dc:creator>
     <cc:Agent>
      <dc:title>Matplotlib v3.10.9, https://matplotlib.org/</dc:title>
     </cc:Agent>
    </dc:creator>
   </cc:Work>
  </rdf:RDF>
 </metadata>
 <defs>
  <style type="text/css">*{stroke-linejoin: round; stroke-linecap: butt}</style>
 </defs>
 <g id="figure_1">
  <g id="patch_1">
   <path d="M 0 221.76 
L 129.794344 221.76 
L 129.794344 0 
L 0 0 
z
" style="fill: #ffffff"/>
  </g>
  <g id="axes_1">
   <g id="patch_2">
    <path d="M 92.54269 11.989261 
L 101.399525 19.96574 
L 110.545169 32.948762 
L 118.054225 47.989595 
L 122.161743 62.181901 
L 123.894601 76.098458 
L 123.734152 84.372035 
L 122.161743 93.876055 
L 119.016924 103.97409 
L 115.679566 110.295976 
L 106.020482 122.345759 
L 101.110715 130.195098 
L 89.847132 154.719018 
L 87.440383 155.949458 
L 83.782126 157.073826 
L 81.471647 159.301347 
L 84.103025 168.296295 
L 81.182837 170.43896 
L 76.78651 171.584544 
L 73.705872 172.857414 
L 67.608775 181.916012 
L 66.838616 183.528316 
L 53.681724 183.931392 
L 51.916775 183.528316 
L 47.712987 202.28196 
L 43.60547 209.516117 
L 38.438983 201.348521 
L 35.582975 210.470772 
L 31.507547 211.68 
L 27.46421 206.715798 
L 24.993281 197.445046 
L 25.635081 196.766181 
L 27.56048 187.771221 
L 27.68884 183.528316 
L 26.40524 178.224686 
L 24.800741 175.933518 
L 23.260422 174.787934 
L 22.073093 172.857414 
L 8.113951 113.478135 
L 5.899743 108.42911 
L 7.728872 103.804375 
L 8.434851 99.222072 
L 8.595301 88.720971 
L 9.525911 84.584178 
L 17.163326 72.555672 
L 18.767825 67.846105 
L 19.184995 64.515468 
L 20.147694 61.227261 
L 34.042656 42.749694 
L 37.091204 40.797992 
L 51.884685 34.179181 
L 64.207237 20.729446 
L 76.94696 10.08 
z
" clip-path="url(#p06a10717f3)" style="stroke: #000000; stroke-linejoin: miter"/>
   </g>
   <g id="line2d_1">
    <path d="M 92.54269 11.989261 
L 101.399525 19.96574 
L 110.545169 32.948762 
L 118.054225 47.989595 
L 122.161743 62.181901 
L 123.894601 76.098458 
L 123.734152 84.372035 
L 122.161743 93.876055 
L 119.016924 103.97409 
L 115.679566 110.295976 
L 106.020482 122.345759 
L 101.110715 130.195098 
L 89.847132 154.719018 
L 87.440383 155.949458 
L 83.782126 157.073826 
L 81.471647 159.301347 
L 84.103025 168.296295 
L 81.182837 170.43896 
L 76.78651 171.584544 
L 73.705872 172.857414 
L 67.608775 181.916012 
L 66.838616 183.528316 
L 53.681724 183.931392 
L 51.916775 183.528316 
L 47.712987 202.28196 
L 43.60547 209.516117 
L 38.438983 201.348521 
L 35.582975 210.470772 
L 31.507547 211.68 
L 27.46421 206.715798 
L 24.993281 197.445046 
L 25.635081 196.766181 
L 27.56048 187.771221 
L 27.68884 183.528316 
L 26.40524 178.224686 
L 24.800741 175.933518 
L 23.260422 174.787934 
L 22.073093 172.857414 
L 8.113951 113.478135 
L 5.899743 108.42911 
L 7.728872 103.804375 
L 8.434851 99.222072 
L 8.595301 88.720971 
L 9.525911 84.584178 
L 17.163326 72.555672 
L 18.767825 67.846105 
L 19.184995 64.515468 
L 20.147694 61.227261 
L 34.042656 42.749694 
L 37.091204 40.797992 
L 51.884685 34.179181 
L 64.207237 20.729446 
L 76.94696 10.08 
L 92.54269 11.989261 
" clip-path="url(#p06a10717f3)" style="fill: none; stroke: #000000; stroke-width: 0.5; stroke-linecap: square"/>
   </g>
  </g>
 </g>
 <defs>
  <clipPath id="p06a10717f3">
   <rect x="0" y="-0" width="129.794344" height="221.76"/>
  </clipPath>
 </defs>
</svg>
