<?xml version="1.0" encoding="utf-8" standalone="no"?>
<!DOCTYPE svg PUBLIC "-//W3C//DTD SVG 1.1//EN"
  "http://www.w3.org/Graphics/SVG/1.1/DTD/svg11.dtd">
<svg xmlns:xlink="http://www.w3.org/1999/xlink" width="223.2pt" height="162.590741pt" viewBox="0 0 223.2 162.590741" xmlns="http://www.w3.org/2000/svg" version="1.1">
 <metadata>
  <rdf:RDF xmlns:dc="http://purl.org/dc/elements/1.1/" xmlns:cc="http://creativecommons.org/ns#" xmlns:rdf="http://www.w3.org/1999/02/22-rdf-syntax-ns#">
   <cc:Work>
    <dc:type rdf:resource="http://purl.org/dc/dcmitype/StillImage"/>
    <dc:date>2026-04-26T19:22:23.430215</dc:date>
    <dc:format>image/svg+xml</dc:format>
    <dc:creator>
     <cc:Agent>
      <dc:title>Matplotlib v3.10.9, https://matplotlib.org/</dc:title>
     </cc:Agent>
    </dc:creator>
   </cc:Work>
  </rdf:RDF>
 </metadata>
 <defs>
  <style type="text/css">*{stroke-linejoin: round; stroke-linecap: butt}</style>
 </defs>
 <g id="figure_1">
  <g id="patch_1">
   <path d="M 0 162.590741 
L 223.2 162.590741 
L 223.2 0 
L 0 0 
z
" style="fill: #ffffff"/>
  </g>
  <g id="axes_1">
   <g id="patch_2">
    <path d="M 213.054545 133.826153 
L 212.786961 140.242533 
L 208.478856 143.834063 
L 196.116466 147.146481 
L 189.694446 149.796307 
L 186.189093 152.16712 
L 183.205529 155.200253 
L 171.324791 151.365236 
L 160.822112 144.949842 
L 157.236484 144.078141 
L 150.493362 145.682062 
L 148.366068 144.914974 
L 146.934492 142.997218 
L 145.716984 140.626103 
L 144.27203 138.359524 
L 143.562931 138.150297 
L 141.636325 138.533879 
L 140.913848 138.359524 
L 140.499093 137.592358 
L 139.415377 134.837468 
L 138.652762 133.826153 
L 133.796109 131.315241 
L 132.431429 130.164378 
L 129.862621 129.065809 
L 111.439449 128.0021 
L 97.565209 130.792124 
L 90.206644 130.931622 
L 85.671092 130.21669 
L 83.83814 130.234128 
L 82.339669 130.931622 
L 81.242574 130.164378 
L 77.737221 129.432001 
L 74.098076 128.17648 
L 70.458931 127.82772 
L 66.886682 127.025567 
L 61.267414 123.223937 
L 58.658468 122.142703 
L 55.474216 122.770518 
L 52.838512 124.270277 
L 50.176049 124.514421 
L 46.77773 121.323048 
L 39.178339 111.294605 
L 36.221534 108.817805 
L 31.726119 105.887399 
L 31.55219 104.997788 
L 31.819774 102.485888 
L 31.726119 101.526459 
L 31.070538 100.619351 
L 29.705859 100.165793 
L 28.849589 99.328448 
L 28.234146 97.444386 
L 28.073595 95.2637 
L 27.725736 93.484212 
L 26.575124 92.734023 
L 23.819007 92.228077 
L 23.297218 90.884687 
L 23.738731 88.982964 
L 23.76549 86.732238 
L 22.24026 81.916502 
L 20.313654 77.554154 
L 17.958913 73.610373 
L 15.283071 70.032869 
L 12.821296 67.711763 
L 11.737581 66.21086 
L 11.296067 64.168885 
L 13.43674 62.755177 
L 15.015487 61.131999 
L 15.911894 58.932799 
L 15.590793 56.71608 
L 13.26281 52.317357 
L 12.540333 50.257551 
L 12.473437 47.743812 
L 13.664187 42.070139 
L 13.490257 39.818009 
L 12.714263 36.954741 
L 12.540333 34.685001 
L 10.787657 32.432654 
L 10.145455 31.804081 
L 10.854553 30.389771 
L 12.540333 28.032529 
L 13.008605 20.71589 
L 14.065563 17.607417 
L 16.473821 16.29763 
L 19.02925 15.337105 
L 29.357999 7.390488 
L 35.057543 9.923015 
L 40.864119 14.74332 
L 49.694398 25.098972 
L 56.370623 31.367568 
L 57.427581 33.218364 
L 58.150058 36.291286 
L 59.889355 39.975137 
L 62.110304 43.414401 
L 64.277736 45.736253 
L 67.288058 47.115365 
L 70.780032 47.499417 
L 77.175294 47.202649 
L 78.887833 46.888424 
L 80.4532 45.998112 
L 81.804501 44.811012 
L 82.901596 43.536606 
L 84.34655 43.10016 
L 86.433707 43.798472 
L 90.206644 45.736253 
L 93.49793 46.905881 
L 95.263985 47.25502 
L 97.030041 47.202649 
L 98.635546 46.347255 
L 101.525455 43.431859 
L 103.13096 42.803376 
L 106.636313 43.274739 
L 111.921101 45.264905 
L 115.091974 45.736253 
L 116.189069 45.334735 
L 117.580507 43.431859 
L 118.463534 42.803376 
L 119.373321 42.908123 
L 120.791517 44.077795 
L 121.714682 44.269829 
L 134.077072 44.269829 
L 134.719274 44.042879 
L 136.405054 42.960497 
L 137.435254 42.803376 
L 137.689459 43.274739 
L 138.411936 44.269829 
L 139.375239 45.264905 
L 142.706662 47.115365 
L 146.11836 53.172685 
L 152.714311 56.157526 
L 155.390153 60.067315 
L 160.00598 69.299896 
L 166.106899 68.252779 
L 173.612636 72.528414 
L 180.516308 79.159528 
L 184.797655 85.266612 
L 185.948267 88.87828 
L 186.643986 93.274857 
L 187.018604 102.259115 
L 187.848115 103.968617 
L 189.640929 104.038392 
L 192.276633 102.991763 
L 194.36379 103.410417 
L 196.06295 104.491926 
L 199.488027 107.387502 
L 204.960124 109.288753 
L 206.324803 110.282965 
L 206.726179 112.445766 
L 206.579008 115.445675 
L 207.007143 118.079215 
L 209.067541 119.212829 
L 209.629468 120.259226 
L 209.790018 122.596126 
L 209.682985 127.18251 
L 210.084361 129.257624 
L 210.967389 130.548001 
L 212.064484 131.803481 
z
" clip-path="url(#p3b64c881a5)" style="stroke: #000000; stroke-linejoin: miter"/>
   </g>
   <g id="line2d_1">
    <path d="M 213.054545 133.826153 
L 212.786961 140.242533 
L 208.478856 143.834063 
L 196.116466 147.146481 
L 189.694446 149.796307 
L 186.189093 152.16712 
L 183.205529 155.200253 
L 171.324791 151.365236 
L 160.822112 144.949842 
L 157.236484 144.078141 
L 150.493362 145.682062 
L 148.366068 144.914974 
L 146.934492 142.997218 
L 145.716984 140.626103 
L 144.27203 138.359524 
L 143.562931 138.150297 
L 141.636325 138.533879 
L 140.913848 138.359524 
L 140.499093 137.592358 
L 139.415377 134.837468 
L 138.652762 133.826153 
L 133.796109 131.315241 
L 132.431429 130.164378 
L 129.862621 129.065809 
L 111.439449 128.0021 
L 97.565209 130.792124 
L 90.206644 130.931622 
L 85.671092 130.21669 
L 83.83814 130.234128 
L 82.339669 130.931622 
L 81.242574 130.164378 
L 77.737221 129.432001 
L 74.098076 128.17648 
L 70.458931 127.82772 
L 66.886682 127.025567 
L 61.267414 123.223937 
L 58.658468 122.142703 
L 55.474216 122.770518 
L 52.838512 124.270277 
L 50.176049 124.514421 
L 46.77773 121.323048 
L 39.178339 111.294605 
L 36.221534 108.817805 
L 31.726119 105.887399 
L 31.55219 104.997788 
L 31.819774 102.485888 
L 31.726119 101.526459 
L 31.070538 100.619351 
L 29.705859 100.165793 
L 28.849589 99.328448 
L 28.234146 97.444386 
L 28.073595 95.2637 
L 27.725736 93.484212 
L 26.575124 92.734023 
L 23.819007 92.228077 
L 23.297218 90.884687 
L 23.738731 88.982964 
L 23.76549 86.732238 
L 22.24026 81.916502 
L 20.313654 77.554154 
L 17.958913 73.610373 
L 15.283071 70.032869 
L 12.821296 67.711763 
L 11.737581 66.21086 
L 11.296067 64.168885 
L 13.43674 62.755177 
L 15.015487 61.131999 
L 15.911894 58.932799 
L 15.590793 56.71608 
L 13.26281 52.317357 
L 12.540333 50.257551 
L 12.473437 47.743812 
L 13.664187 42.070139 
L 13.490257 39.818009 
L 12.714263 36.954741 
L 12.540333 34.685001 
L 10.787657 32.432654 
L 10.145455 31.804081 
L 10.854553 30.389771 
L 12.540333 28.032529 
L 13.008605 20.71589 
L 14.065563 17.607417 
L 16.473821 16.29763 
L 19.02925 15.337105 
L 29.357999 7.390488 
L 35.057543 9.923015 
L 40.864119 14.74332 
L 49.694398 25.098972 
L 56.370623 31.367568 
L 57.427581 33.218364 
L 58.150058 36.291286 
L 59.889355 39.975137 
L 62.110304 43.414401 
L 64.277736 45.736253 
L 67.288058 47.115365 
L 70.780032 47.499417 
L 77.175294 47.202649 
L 78.887833 46.888424 
L 80.4532 45.998112 
L 81.804501 44.811012 
L 82.901596 43.536606 
L 84.34655 43.10016 
L 86.433707 43.798472 
L 90.206644 45.736253 
L 93.49793 46.905881 
L 95.263985 47.25502 
L 97.030041 47.202649 
L 98.635546 46.347255 
L 101.525455 43.431859 
L 103.13096 42.803376 
L 106.636313 43.274739 
L 111.921101 45.264905 
L 115.091974 45.736253 
L 116.189069 45.334735 
L 117.580507 43.431859 
L 118.463534 42.803376 
L 119.373321 42.908123 
L 120.791517 44.077795 
L 121.714682 44.269829 
L 134.077072 44.269829 
L 134.719274 44.042879 
L 136.405054 42.960497 
L 137.435254 42.803376 
L 137.689459 43.274739 
L 138.411936 44.269829 
L 139.375239 45.264905 
L 142.706662 47.115365 
L 146.11836 53.172685 
L 152.714311 56.157526 
L 155.390153 60.067315 
L 160.00598 69.299896 
L 166.106899 68.252779 
L 173.612636 72.528414 
L 180.516308 79.159528 
L 184.797655 85.266612 
L 185.948267 88.87828 
L 186.643986 93.274857 
L 187.018604 102.259115 
L 187.848115 103.968617 
L 189.640929 104.038392 
L 192.276633 102.991763 
L 194.36379 103.410417 
L 196.06295 104.491926 
L 199.488027 107.387502 
L 204.960124 109.288753 
L 206.324803 110.282965 
L 206.726179 112.445766 
L 206.579008 115.445675 
L 207.007143 118.079215 
L 209.067541 119.212829 
L 209.629468 120.259226 
L 209.790018 122.596126 
L 209.682985 127.18251 
L 210.084361 129.257624 
L 210.967389 130.548001 
L 212.064484 131.803481 
L 213.054545 133.826153 
L 213.054545 133.826153 
" clip-path="url(#p3b64c881a5)" style="fill: none; stroke: #000000; stroke-width: 0.5; stroke-linecap: square"/>
   </g>
  </g>
 </g>
 <defs>
  <clipPath id="p3b64c881a5">
   <rect x="0" y="0" width="223.2" height="162.590741"/>
  </clipPath>
 </defs>
</svg>
