<?xml version="1.0" encoding="utf-8" standalone="no"?>
<!DOCTYPE svg PUBLIC "-//W3C//DTD SVG 1.1//EN"
  "http://www.w3.org/Graphics/SVG/1.1/DTD/svg11.dtd">
<svg xmlns:xlink="http://www.w3.org/1999/xlink" width="128.893065pt" height="221.76pt" viewBox="0 0 128.893065 221.76" xmlns="http://www.w3.org/2000/svg" version="1.1">
 <metadata>
  <rdf:RDF xmlns:dc="http://purl.org/dc/elements/1.1/" xmlns:cc="http://creativecommons.org/ns#" xmlns:rdf="http://www.w3.org/1999/02/22-rdf-syntax-ns#">
   <cc:Work>
    <dc:type rdf:resource="http://purl.org/dc/dcmitype/StillImage"/>
    <dc:date>2026-04-26T19:21:49.450851</dc:date>
    <dc:format>image/svg+xml</dc:format>
    <dc:creator>
     <cc:Agent>
      <dc:title>Matplotlib v3.10.9, https://matplotlib.org/</dc:title>
     </cc:Agent>
    </dc:creator>
   </cc:Work>
  </rdf:RDF>
 </metadata>
 <defs>
  <style type="text/css">*{stroke-linejoin: round; stroke-linecap: butt}</style>
 </defs>
 <g id="figure_1">
  <g id="patch_1">
   <path d="M 0 221.76 
L 128.893065 221.76 
L 128.893065 0 
L 0 0 
z
" style="fill: #ffffff"/>
  </g>
  <g id="axes_1">
   <g id="patch_2">
    <path d="M 67.538034 89.823977 
L 67.774397 89.524204 
L 68.002663 89.234597 
L 68.504964 88.599099 
L 69.007843 87.963275 
L 69.236109 87.674489 
L 69.780702 86.984341 
L 70.325296 86.294258 
L 70.86931 85.60386 
L 71.414482 84.915048 
L 71.960234 84.224402 
L 72.504827 83.534583 
L 73.049421 82.845591 
L 73.592855 82.155146 
L 74.137449 81.46553 
L 74.683201 80.775221 
L 75.227794 80.086503 
L 75.772387 79.397093 
L 76.318139 78.708513 
L 76.863891 78.019243 
L 77.408484 77.329284 
L 77.953078 76.640157 
L 78.497671 75.951101 
L 79.042264 75.262117 
L 79.482724 74.704314 
L 79.586858 74.572445 
L 80.131451 73.884366 
L 80.677203 73.195601 
L 81.221796 72.50691 
L 81.76581 71.819052 
L 82.310983 71.129751 
L 82.854997 70.442043 
L 83.400169 69.753651 
L 83.94708 69.065336 
L 84.491673 68.377097 
L 85.163725 67.042195 
L 85.835776 65.706069 
L 86.507827 64.372135 
L 87.182196 63.038501 
L 87.854247 61.705927 
L 88.527457 60.372523 
L 89.201826 59.037913 
L 89.873877 57.707404 
L 90.545928 56.373423 
L 91.218559 55.041276 
L 91.892928 53.710966 
L 92.5644 52.377954 
L 93.23703 51.048298 
L 93.91082 49.718217 
L 94.581133 48.387715 
L 95.253764 47.057553 
L 95.253764 45.427323 
L 95.253764 45.414128 
L 95.253764 43.770854 
L 95.253764 42.127737 
L 95.253764 40.48705 
L 95.253764 38.846532 
L 95.253764 37.205435 
L 95.253764 35.565276 
L 95.253764 33.926436 
L 95.253764 32.286283 
L 95.253764 30.647839 
L 95.253764 29.009603 
L 95.253764 27.37384 
L 95.253764 25.736415 
L 95.253764 24.100721 
L 95.253764 22.46526 
L 95.25378 20.830091 
L 95.676501 20.796923 
L 97.151802 20.430569 
L 98.622541 20.086143 
L 99.054092 19.843522 
L 99.224705 19.538195 
L 99.338751 19.429324 
L 99.478344 19.500918 
L 99.585091 19.579614 
L 99.70005 19.586714 
L 100.421734 19.500918 
L 100.636141 19.43879 
L 100.814053 19.347672 
L 101.414392 18.901575 
L 101.624237 18.851288 
L 101.785726 18.726462 
L 102.040277 18.102385 
L 102.199029 17.858103 
L 102.4034 17.76347 
L 102.658864 17.738629 
L 103.162492 17.758738 
L 103.224533 17.732715 
L 103.403357 17.602007 
L 103.507367 17.561199 
L 103.636011 17.555284 
L 103.967201 17.651096 
L 104.959859 17.787128 
L 105.47991 17.692496 
L 105.810187 17.353614 
L 105.897775 17.367216 
L 106.098496 17.201038 
L 106.228053 17.154911 
L 106.271846 17.126525 
L 106.412351 16.995245 
L 106.499026 16.956217 
L 106.58114 16.965087 
L 106.657779 17.000567 
L 106.711608 17.037822 
L 106.728943 17.055563 
L 107.75171 17.017125 
L 107.960642 17.055563 
L 108.62211 16.602021 
L 108.841991 16.34068 
L 108.962424 16.261453 
L 109.362954 16.272095 
L 109.463315 16.211789 
L 109.550902 16.126653 
L 109.674984 16.04743 
L 110.155803 15.884851 
L 110.386632 15.693902 
L 111.321811 14.728061 
L 111.835475 14.595674 
L 112.047145 14.413059 
L 112.421216 13.872351 
L 112.762442 13.480604 
L 112.895648 13.242501 
L 112.95039 12.931158 
L 112.964988 12.603297 
L 113.010607 12.273691 
L 113.083596 11.960649 
L 113.185782 11.683066 
L 113.43942 11.25846 
L 113.604559 11.068908 
L 113.760574 10.989192 
L 113.89743 10.967344 
L 114.182089 10.790795 
L 114.234094 10.694553 
L 114.283362 10.624291 
L 114.335367 10.583552 
L 114.402882 10.588866 
L 114.501418 10.670345 
L 114.563459 10.682744 
L 114.804325 10.598903 
L 115.274195 10.340896 
L 115.685674 10.230496 
L 115.802457 10.128363 
L 116.092606 10.08 
L 116.868328 10.750744 
L 118.023387 10.904104 
L 118.687369 11.589755 
L 118.906338 11.683066 
L 119.790424 11.683066 
L 120.009392 11.756299 
L 120.38985 12.020893 
L 120.59787 12.079957 
L 120.857896 12.087635 
L 121.128869 12.134296 
L 121.356049 12.252427 
L 121.640293 12.344098 
L 121.468271 12.81596 
L 121.345241 13.415873 
L 121.15441 13.858921 
L 121.225586 14.543262 
L 121.136942 14.968316 
L 120.93222 15.207911 
L 120.741502 15.613951 
L 120.390765 16.037003 
L 120.019428 16.658785 
L 119.757578 17.011212 
L 119.713785 17.105237 
L 119.725645 17.267863 
L 119.778563 17.490228 
L 119.790424 17.605556 
L 119.760315 17.938543 
L 119.686413 18.254403 
L 119.325115 19.258922 
L 119.270373 19.486717 
L 119.248476 20.440038 
L 119.171837 21.053211 
L 119.322378 21.71975 
L 119.826843 22.115826 
L 120.314474 22.144757 
L 120.483364 22.442433 
L 120.201902 22.755873 
L 119.953738 23.459392 
L 119.83148 23.685632 
L 119.74663 23.891153 
L 119.685501 24.209227 
L 119.649006 24.552203 
L 119.754841 26.573284 
L 119.908119 29.163924 
L 120.159933 30.304987 
L 120.088768 30.461579 
L 119.83148 30.516744 
L 119.563244 30.624109 
L 119.501202 30.886303 
L 119.560506 31.521089 
L 119.504852 31.817748 
L 119.393543 32.0005 
L 119.221105 32.093065 
L 118.982977 32.11858 
L 118.760359 32.214114 
L 118.564199 32.439014 
L 118.47205 32.702498 
L 118.565111 32.915552 
L 118.785905 32.964217 
L 120.49386 32.526247 
L 120.611556 32.54583 
L 120.734726 32.588557 
L 120.829612 32.58559 
L 120.868844 32.471652 
L 120.820489 32.309057 
L 120.715566 32.220048 
L 120.610644 32.155963 
L 120.562288 32.06933 
L 120.554077 31.735869 
L 120.523056 31.431502 
L 120.452804 31.134275 
L 120.333283 30.824609 
L 120.508458 31.026305 
L 120.683323 31.184942 
L 120.832512 31.376931 
L 121.02668 31.52134 
L 121.123701 31.607872 
L 121.250636 31.684985 
L 121.504171 31.925164 
L 121.638435 32.030957 
L 121.847723 32.089588 
L 122.012292 32.138801 
L 122.124316 32.110592 
L 122.236467 32.024851 
L 122.363544 31.977512 
L 122.595014 32.007415 
L 122.789164 32.046303 
L 122.877776 32.371736 
L 123.034289 32.506223 
L 122.966205 32.763955 
L 122.815347 33.260164 
L 122.675336 33.322695 
L 122.62078 33.38348 
L 122.535743 33.469892 
L 122.575105 33.670058 
L 122.478005 33.669583 
L 122.276643 33.563446 
L 122.127222 33.572293 
L 121.947265 33.512628 
L 121.731477 33.598976 
L 121.418024 33.521099 
L 121.334153 33.244349 
L 121.306781 33.073419 
L 121.235617 32.902495 
L 121.060442 32.825344 
L 119.368912 33.092134 
L 118.550793 33.462585 
L 117.544738 34.251394 
L 117.348443 34.721339 
L 117.256774 35.614274 
L 117.381336 36.454782 
L 117.056053 37.558234 
L 117.110795 38.224219 
L 117.242176 38.685294 
L 117.256774 38.866527 
L 117.234877 39.026375 
L 117.134516 39.2409 
L 116.987625 40.254226 
L 117.026857 40.417685 
L 116.8973 40.724409 
L 116.824311 40.9937 
L 116.722125 41.723176 
L 116.571584 42.254151 
L 116.489471 42.414703 
L 116.549688 42.822052 
L 116.530528 42.970134 
L 116.472136 43.243709 
L 116.390935 44.135311 
L 116.185652 44.524359 
L 116.178353 44.97055 
L 116.262291 45.742257 
L 116.528703 46.680123 
L 116.568847 46.986038 
L 116.536002 47.262805 
L 116.456626 47.519944 
L 115.7614 48.988022 
L 115.536958 49.218451 
L 115.066175 49.479259 
L 114.877314 49.638252 
L 114.734985 49.867518 
L 114.401058 50.56729 
L 114.335367 50.787067 
L 114.425692 51.721667 
L 114.41748 52.045152 
L 114.251429 52.590295 
L 113.924801 53.106891 
L 112.695839 54.365518 
L 112.350964 54.825656 
L 112.077253 55.30014 
L 111.879269 55.754991 
L 111.721429 56.352376 
L 111.51797 57.565824 
L 111.343708 58.073941 
L 110.808147 58.920903 
L 110.730596 59.225125 
L 110.764353 60.113425 
L 110.730596 60.376541 
L 110.549946 60.922501 
L 110.40123 61.183864 
L 110.229705 61.295454 
L 110.01986 61.392128 
L 109.906726 61.628447 
L 109.828262 61.923263 
L 109.727902 62.197205 
L 109.008955 63.433981 
L 108.901295 63.620834 
L 108.732507 64.099632 
L 108.415002 65.397717 
L 108.168662 65.962657 
L 107.800977 66.413572 
L 106.355784 67.566992 
L 105.376812 68.874186 
L 105.177003 69.297232 
L 105.045622 69.831457 
L 104.941612 70.868966 
L 105.001828 71.043495 
L 105.167879 71.185751 
L 105.215323 71.515105 
L 105.186127 71.884527 
L 105.122261 72.146364 
L 104.802019 72.740021 
L 104.46718 73.21355 
L 104.369556 73.463483 
L 104.325762 74.105101 
L 104.279232 74.36344 
L 103.120523 77.008418 
L 102.512885 78.395928 
L 101.772041 79.500635 
L 100.051312 82.648173 
L 99.223793 84.778862 
L 98.709217 85.813894 
L 98.155408 87.831671 
L 96.774081 91.636261 
L 96.743973 91.95999 
L 96.766782 92.291527 
L 96.872617 92.906677 
L 96.896339 93.226262 
L 96.735762 94.514927 
L 96.341618 95.63046 
L 95.392564 97.775662 
L 94.255942 100.345568 
L 92.526089 103.843247 
L 91.975931 105.426573 
L 91.677586 105.958614 
L 90.870139 106.975943 
L 89.747924 109.431444 
L 88.412216 111.337176 
L 86.994394 113.858696 
L 85.349392 118.231366 
L 84.147801 120.534441 
L 82.937999 122.244918 
L 79.993783 126.406687 
L 78.999301 128.233553 
L 77.276747 130.564452 
L 75.831554 132.549021 
L 73.960285 135.143178 
L 73.659203 135.56043 
L 71.65564 138.647142 
L 70.151142 140.411773 
L 69.318149 141.734471 
L 67.771683 143.437992 
L 66.947814 144.554288 
L 66.244377 145.217593 
L 66.22248 145.342907 
L 66.169562 145.492321 
L 66.105697 145.616432 
L 66.052779 145.667643 
L 65.863919 145.76163 
L 65.751697 145.996602 
L 65.66411 146.296646 
L 65.547327 146.58585 
L 65.390399 146.739492 
L 64.954286 147.009422 
L 63.898675 148.471209 
L 63.770031 148.691752 
L 63.586645 149.147308 
L 63.479897 149.335318 
L 63.009115 149.728217 
L 62.836677 150.157281 
L 62.605848 150.407975 
L 60.355945 152.323227 
L 59.073153 153.278506 
L 57.881599 154.18621 
L 54.076106 157.086157 
L 53.694736 157.376714 
L 53.45387 157.444229 
L 53.3307 157.496072 
L 51.108169 158.877772 
L 49.203141 160.606203 
L 49.118291 160.745471 
L 48.985997 160.815406 
L 47.462341 162.267211 
L 46.047256 163.430875 
L 43.611229 165.936813 
L 42.362196 167.631255 
L 42.104908 167.778392 
L 41.650548 168.147442 
L 41.511867 168.313877 
L 41.473548 168.435086 
L 41.446177 168.586447 
L 41.427929 168.876506 
L 41.382311 168.936207 
L 41.169729 169.01822 
L 41.123198 169.0737 
L 41.043822 169.220842 
L 40.249148 170.271352 
L 40.021056 170.467949 
L 39.779278 170.551171 
L 39.642423 170.698317 
L 39.125109 171.570352 
L 37.860565 172.465319 
L 37.435401 172.877829 
L 36.900753 173.865695 
L 36.71098 174.009232 
L 36.555877 174.079795 
L 36.056811 174.60751 
L 33.91183 177.340236 
L 31.869948 180.387294 
L 30.742259 181.850539 
L 29.680261 183.227546 
L 27.448606 186.493064 
L 26.093737 188.455755 
L 25.441393 189.157835 
L 24.720621 189.932292 
L 23.964267 190.949215 
L 23.690556 191.461896 
L 23.664098 191.61389 
L 23.668659 191.745378 
L 23.633077 191.839469 
L 23.362103 191.915466 
L 23.27999 192.013177 
L 22.836578 192.794858 
L 22.777274 193.040942 
L 22.912305 193.200173 
L 22.799171 193.446256 
L 22.759027 193.504158 
L 22.759939 193.413686 
L 22.754465 193.33769 
L 22.732568 193.268931 
L 22.682388 193.200173 
L 22.083874 193.816585 
L 21.993549 193.963752 
L 21.919647 194.207421 
L 21.748122 194.472801 
L 21.380437 194.922741 
L 20.263697 196.701969 
L 20.224465 196.829831 
L 20.224465 196.943217 
L 20.208042 197.025241 
L 20.107682 197.056604 
L 20.065713 197.108472 
L 19.613177 198.043298 
L 19.324869 198.436524 
L 19.157905 198.602981 
L 18.977256 198.718777 
L 18.763762 198.786324 
L 18.428922 198.776675 
L 18.260134 198.822511 
L 18.158861 198.979317 
L 18.37418 199.040833 
L 18.365056 199.329114 
L 18.264696 199.648754 
L 18.194443 199.797115 
L 18.034778 199.90929 
L 17.872377 200.175855 
L 17.744645 200.495491 
L 17.691728 200.76929 
L 17.641547 200.887494 
L 17.269301 201.273463 
L 17.143394 201.357894 
L 17.098687 201.255371 
L 17.050332 200.632994 
L 17.062193 200.050413 
L 16.996502 199.797115 
L 16.928987 199.797115 
L 16.958183 200.021465 
L 16.924425 200.187917 
L 16.869683 200.336276 
L 16.843224 200.515996 
L 16.857822 200.69089 
L 16.913476 200.907999 
L 16.928987 201.07083 
L 16.960007 201.256577 
L 17.034822 201.345832 
L 17.113285 201.408552 
L 17.157079 201.526754 
L 17.140656 201.711294 
L 17.025698 202.01524 
L 16.996502 202.188923 
L 16.936286 202.378284 
L 16.673523 202.694287 
L 16.613307 202.800425 
L 16.59506 202.993403 
L 16.542142 203.155021 
L 16.467328 203.302165 
L 16.043988 203.970338 
L 15.99472 204.121097 
L 16.03304 204.25859 
L 16.120627 204.250147 
L 16.226462 204.168134 
L 16.308576 204.076473 
L 16.173545 204.468446 
L 15.919906 204.508246 
L 15.68634 204.280299 
L 15.611525 203.864203 
L 15.542185 203.864203 
L 15.554958 204.165722 
L 15.68634 204.693979 
L 15.695463 204.976196 
L 15.626123 205.248762 
L 14.456466 207.75001 
L 14.192791 208.179329 
L 13.979297 208.615879 
L 13.557782 209.736168 
L 13.347025 209.961669 
L 13.092473 210.152197 
L 12.693768 211.032472 
L 12.4675 211.285697 
L 12.536841 211.285697 
L 12.245795 211.68 
L 12.255416 211.383792 
L 12.284976 210.456028 
L 12.244422 210.175772 
L 12.108853 209.84957 
L 11.678972 209.114455 
L 11.11468 208.149591 
L 10.54923 207.186231 
L 9.971034 206.19834 
L 9.419489 205.256372 
L 8.907339 204.383309 
L 8.289747 203.327951 
L 7.716186 202.346093 
L 7.161165 201.399446 
L 6.876122 200.910797 
L 6.589921 200.423676 
L 6.306037 199.935018 
L 6.019836 199.446356 
L 6.009408 198.320426 
L 5.998979 197.275668 
L 5.988551 196.230894 
L 5.972329 194.620811 
L 5.956107 193.012233 
L 5.939885 191.405163 
L 5.923663 189.795013 
L 5.915552 188.794599 
L 5.906283 187.794183 
L 5.893537 186.57928 
L 5.893537 184.725519 
L 5.893537 182.873299 
L 5.893537 181.019564 
L 5.893537 179.167386 
L 5.893537 177.31371 
L 5.893537 175.462375 
L 5.893537 173.60956 
L 5.893537 171.75757 
L 5.893537 169.904883 
L 5.893537 168.302978 
L 5.893537 168.052273 
L 5.893537 166.200131 
L 5.893537 164.348466 
L 5.893537 162.496139 
L 5.893537 160.64354 
L 5.893537 158.792209 
L 5.893537 156.939859 
L 5.893537 155.362847 
L 5.893537 153.786322 
L 5.893537 152.209524 
L 5.893537 150.632842 
L 5.893537 149.534593 
L 5.878474 147.541063 
L 5.864569 145.632675 
L 5.858776 144.839995 
L 6.019836 144.429131 
L 6.403369 143.927232 
L 7.324543 142.723806 
L 8.246875 141.5197 
L 9.169208 140.314918 
L 10.089223 139.110992 
L 10.669736 138.01576 
L 11.249091 136.922136 
L 11.829604 135.826681 
L 12.408958 134.732455 
L 13.34983 132.955951 
L 14.289543 131.179676 
L 15.230415 129.404403 
L 16.168969 127.628991 
L 16.319602 127.337826 
L 16.47371 127.174287 
L 16.532804 126.989736 
L 16.523534 126.536584 
L 16.600009 126.248883 
L 16.799307 126.017352 
L 17.590706 125.377416 
L 18.224519 124.711155 
L 18.611528 124.454823 
L 18.975363 124.333726 
L 19.945202 124.320738 
L 20.79106 124.309278 
L 22.11083 124.01399 
L 23.829195 123.627415 
L 25.515117 123.248493 
L 26.312309 123.069349 
L 26.781586 122.82222 
L 27.19988 122.460893 
L 27.213966 122.440116 
L 27.544017 121.953298 
L 27.713188 121.477424 
L 27.912486 120.444014 
L 28.063119 119.946819 
L 28.137276 119.788348 
L 28.225338 119.643626 
L 29.066561 118.734477 
L 30.006274 117.717742 
L 31.279116 116.922899 
L 32.559489 116.122773 
L 33.819006 115.337212 
L 34.594182 114.853614 
L 35.850223 114.472706 
L 36.701874 114.215086 
L 37.808442 113.879998 
L 38.144467 113.778482 
L 39.121259 113.322816 
L 39.532601 113.193448 
L 40.206969 113.245348 
L 40.788641 113.289616 
L 41.369155 113.333502 
L 41.950827 113.378533 
L 42.53134 113.422038 
L 43.113012 113.466307 
L 43.693525 113.511339 
L 44.275197 113.555226 
L 44.855131 113.599877 
L 45.436224 113.643765 
L 46.017896 113.688034 
L 46.57136 113.729877 
L 46.598409 113.731922 
L 47.180081 113.776192 
L 47.760594 113.819699 
L 48.342266 113.86397 
L 48.922779 113.908622 
L 49.503872 113.952892 
L 50.111615 113.999453 
L 50.436054 113.820844 
L 51.323045 112.559604 
L 51.325942 112.559604 
L 51.963232 111.641155 
L 53.165972 109.910951 
L 54.369292 108.180295 
L 55.571452 106.44996 
L 56.774192 104.720713 
L 56.904379 104.533556 
L 57.976933 102.991799 
L 59.179673 101.261701 
L 60.382413 99.533475 
L 61.585153 97.805604 
L 62.267053 96.884092 
L 62.951271 95.962304 
L 63.634909 95.041002 
L 64.319706 94.119805 
L 65.004503 93.198716 
L 65.6893 92.277735 
L 66.37178 91.356482 
L 67.055418 90.436101 
z
" clip-path="url(#p3502711d7b)" style="stroke: #000000; stroke-linejoin: miter"/>
   </g>
   <g id="line2d_1">
    <path d="M 67.538034 89.823977 
L 84.491673 68.377097 
L 95.253764 47.057553 
L 95.25378 20.830091 
L 95.676501 20.796923 
L 98.622541 20.086143 
L 99.054092 19.843522 
L 99.338751 19.429324 
L 99.70005 19.586714 
L 100.814053 19.347672 
L 101.785726 18.726462 
L 102.199029 17.858103 
L 102.658864 17.738629 
L 103.224533 17.732715 
L 103.636011 17.555284 
L 103.967201 17.651096 
L 104.959859 17.787128 
L 105.47991 17.692496 
L 106.098496 17.201038 
L 106.728943 17.055563 
L 107.960642 17.055563 
L 108.962424 16.261453 
L 109.463315 16.211789 
L 109.674984 16.04743 
L 110.386632 15.693902 
L 111.321811 14.728061 
L 111.835475 14.595674 
L 112.047145 14.413059 
L 112.95039 12.931158 
L 113.083596 11.960649 
L 113.43942 11.25846 
L 113.760574 10.989192 
L 113.89743 10.967344 
L 114.563459 10.682744 
L 115.685674 10.230496 
L 115.802457 10.128363 
L 116.092606 10.08 
L 116.868328 10.750744 
L 118.023387 10.904104 
L 118.906338 11.683066 
L 120.009392 11.756299 
L 120.59787 12.079957 
L 121.128869 12.134296 
L 121.640293 12.344098 
L 121.15441 13.858921 
L 121.225586 14.543262 
L 121.136942 14.968316 
L 120.93222 15.207911 
L 120.741502 15.613951 
L 120.019428 16.658785 
L 119.713785 17.105237 
L 119.686413 18.254403 
L 119.270373 19.486717 
L 119.322378 21.71975 
L 119.826843 22.115826 
L 120.314474 22.144757 
L 120.483364 22.442433 
L 120.201902 22.755873 
L 119.649006 24.552203 
L 119.908119 29.163924 
L 120.088768 30.461579 
L 119.563244 30.624109 
L 119.501202 30.886303 
L 119.504852 31.817748 
L 119.221105 32.093065 
L 118.760359 32.214114 
L 118.47205 32.702498 
L 118.565111 32.915552 
L 118.785905 32.964217 
L 120.611556 32.54583 
L 120.829612 32.58559 
L 120.820489 32.309057 
L 120.562288 32.06933 
L 120.452804 31.134275 
L 120.333283 30.824609 
L 120.508458 31.026305 
L 121.638435 32.030957 
L 122.124316 32.110592 
L 122.363544 31.977512 
L 122.789164 32.046303 
L 122.877776 32.371736 
L 123.034289 32.506223 
L 122.815347 33.260164 
L 122.535743 33.469892 
L 122.575105 33.670058 
L 122.478005 33.669583 
L 121.947265 33.512628 
L 121.731477 33.598976 
L 121.418024 33.521099 
L 121.235617 32.902495 
L 121.060442 32.825344 
L 119.368912 33.092134 
L 118.550793 33.462585 
L 117.544738 34.251394 
L 117.348443 34.721339 
L 117.256774 35.614274 
L 117.381336 36.454782 
L 117.056053 37.558234 
L 117.134516 39.2409 
L 116.722125 41.723176 
L 116.489471 42.414703 
L 116.530528 42.970134 
L 116.178353 44.97055 
L 116.262291 45.742257 
L 116.568847 46.986038 
L 116.456626 47.519944 
L 115.536958 49.218451 
L 114.877314 49.638252 
L 114.401058 50.56729 
L 114.335367 50.787067 
L 114.41748 52.045152 
L 114.251429 52.590295 
L 113.924801 53.106891 
L 112.350964 54.825656 
L 111.879269 55.754991 
L 111.721429 56.352376 
L 111.343708 58.073941 
L 110.730596 59.225125 
L 110.730596 60.376541 
L 110.40123 61.183864 
L 109.906726 61.628447 
L 109.727902 62.197205 
L 108.732507 64.099632 
L 108.168662 65.962657 
L 107.800977 66.413572 
L 106.355784 67.566992 
L 105.177003 69.297232 
L 105.045622 69.831457 
L 105.001828 71.043495 
L 105.167879 71.185751 
L 105.186127 71.884527 
L 105.122261 72.146364 
L 104.369556 73.463483 
L 104.279232 74.36344 
L 102.512885 78.395928 
L 101.772041 79.500635 
L 100.051312 82.648173 
L 98.155408 87.831671 
L 96.743973 91.95999 
L 96.896339 93.226262 
L 96.735762 94.514927 
L 96.341618 95.63046 
L 94.255942 100.345568 
L 92.526089 103.843247 
L 91.677586 105.958614 
L 90.870139 106.975943 
L 89.747924 109.431444 
L 88.412216 111.337176 
L 86.994394 113.858696 
L 85.349392 118.231366 
L 84.147801 120.534441 
L 79.993783 126.406687 
L 78.999301 128.233553 
L 73.659203 135.56043 
L 71.65564 138.647142 
L 70.151142 140.411773 
L 69.318149 141.734471 
L 67.771683 143.437992 
L 66.947814 144.554288 
L 66.22248 145.342907 
L 66.052779 145.667643 
L 65.863919 145.76163 
L 65.390399 146.739492 
L 64.954286 147.009422 
L 63.770031 148.691752 
L 63.479897 149.335318 
L 63.009115 149.728217 
L 62.836677 150.157281 
L 62.605848 150.407975 
L 59.073153 153.278506 
L 53.45387 157.444229 
L 53.3307 157.496072 
L 51.108169 158.877772 
L 46.047256 163.430875 
L 43.611229 165.936813 
L 42.362196 167.631255 
L 41.650548 168.147442 
L 41.473548 168.435086 
L 41.382311 168.936207 
L 41.123198 169.0737 
L 41.043822 169.220842 
L 40.021056 170.467949 
L 39.642423 170.698317 
L 39.125109 171.570352 
L 37.435401 172.877829 
L 36.71098 174.009232 
L 36.555877 174.079795 
L 36.056811 174.60751 
L 33.91183 177.340236 
L 31.869948 180.387294 
L 29.680261 183.227546 
L 26.093737 188.455755 
L 24.720621 189.932292 
L 23.690556 191.461896 
L 23.633077 191.839469 
L 23.27999 192.013177 
L 22.777274 193.040942 
L 22.912305 193.200173 
L 22.759027 193.504158 
L 22.754465 193.33769 
L 22.682388 193.200173 
L 21.993549 193.963752 
L 21.748122 194.472801 
L 21.380437 194.922741 
L 20.224465 196.943217 
L 20.107682 197.056604 
L 20.065713 197.108472 
L 19.324869 198.436524 
L 18.977256 198.718777 
L 18.428922 198.776675 
L 18.260134 198.822511 
L 18.158861 198.979317 
L 18.37418 199.040833 
L 18.264696 199.648754 
L 18.034778 199.90929 
L 17.744645 200.495491 
L 17.641547 200.887494 
L 17.143394 201.357894 
L 17.098687 201.255371 
L 16.928987 199.797115 
L 16.924425 200.187917 
L 16.843224 200.515996 
L 16.960007 201.256577 
L 17.157079 201.526754 
L 16.996502 202.188923 
L 16.936286 202.378284 
L 16.613307 202.800425 
L 16.467328 203.302165 
L 15.99472 204.121097 
L 16.120627 204.250147 
L 16.308576 204.076473 
L 16.173545 204.468446 
L 15.919906 204.508246 
L 15.68634 204.280299 
L 15.542185 203.864203 
L 15.68634 204.693979 
L 15.626123 205.248762 
L 13.347025 209.961669 
L 13.092473 210.152197 
L 12.4675 211.285697 
L 12.536841 211.285697 
L 12.245795 211.68 
L 12.244422 210.175772 
L 12.108853 209.84957 
L 6.019836 199.446356 
L 5.893537 175.462375 
L 5.858776 144.839995 
L 6.019836 144.429131 
L 10.089223 139.110992 
L 16.532804 126.989736 
L 16.600009 126.248883 
L 16.799307 126.017352 
L 17.590706 125.377416 
L 18.611528 124.454823 
L 18.975363 124.333726 
L 20.79106 124.309278 
L 26.312309 123.069349 
L 26.781586 122.82222 
L 27.213966 122.440116 
L 27.544017 121.953298 
L 27.713188 121.477424 
L 28.137276 119.788348 
L 28.225338 119.643626 
L 30.006274 117.717742 
L 34.594182 114.853614 
L 38.144467 113.778482 
L 39.532601 113.193448 
L 50.111615 113.999453 
L 50.436054 113.820844 
L 65.6893 92.277735 
L 67.538034 89.823977 
L 67.538034 89.823977 
" clip-path="url(#p3502711d7b)" style="fill: none; stroke: #000000; stroke-width: 0.5; stroke-linecap: square"/>
   </g>
  </g>
 </g>
 <defs>
  <clipPath id="p3502711d7b">
   <rect x="0" y="-0" width="128.893065" height="221.76"/>
  </clipPath>
 </defs>
</svg>
