<?xml version="1.0" encoding="utf-8" standalone="no"?>
<!DOCTYPE svg PUBLIC "-//W3C//DTD SVG 1.1//EN"
  "http://www.w3.org/Graphics/SVG/1.1/DTD/svg11.dtd">
<svg xmlns:xlink="http://www.w3.org/1999/xlink" width="223.2pt" height="161.942646pt" viewBox="0 0 223.2 161.942646" xmlns="http://www.w3.org/2000/svg" version="1.1">
 <metadata>
  <rdf:RDF xmlns:dc="http://purl.org/dc/elements/1.1/" xmlns:cc="http://creativecommons.org/ns#" xmlns:rdf="http://www.w3.org/1999/02/22-rdf-syntax-ns#">
   <cc:Work>
    <dc:type rdf:resource="http://purl.org/dc/dcmitype/StillImage"/>
    <dc:date>2026-04-26T19:21:50.174131</dc:date>
    <dc:format>image/svg+xml</dc:format>
    <dc:creator>
     <cc:Agent>
      <dc:title>Matplotlib v3.10.9, https://matplotlib.org/</dc:title>
     </cc:Agent>
    </dc:creator>
   </cc:Work>
  </rdf:RDF>
 </metadata>
 <defs>
  <style type="text/css">*{stroke-linejoin: round; stroke-linecap: butt}</style>
 </defs>
 <g id="figure_1">
  <g id="patch_1">
   <path d="M 0 161.942646 
L 223.2 161.942646 
L 223.2 0 
L 0 0 
z
" style="fill: #ffffff"/>
  </g>
  <g id="axes_1">
   <g id="patch_2">
    <path d="M 213.054545 17.808645 
L 213.054499 22.512272 
L 213.054499 27.216738 
L 213.054499 31.921874 
L 213.054499 36.631991 
L 213.054499 41.337327 
L 213.054499 46.049775 
L 213.054499 50.762821 
L 213.054499 55.480783 
L 213.054499 60.19497 
L 213.054499 64.912952 
L 213.054499 69.63363 
L 213.054499 74.352643 
L 213.054499 79.072143 
L 213.054499 83.79863 
L 213.054499 88.52557 
L 213.054499 88.563529 
L 213.054499 93.252946 
L 211.119651 97.07921 
L 209.191469 100.906449 
L 207.253288 104.732477 
L 205.318441 108.557284 
L 203.386926 112.391744 
L 201.447078 116.218433 
L 199.51223 120.050404 
L 197.579049 123.88765 
L 195.645868 127.714912 
L 193.70602 131.553969 
L 191.769506 135.389558 
L 189.836325 139.222756 
L 187.896477 143.059006 
L 185.963296 146.896117 
L 184.030115 150.739536 
L 182.096933 154.579434 
L 177.502294 154.581616 
L 171.607758 154.581616 
L 167.404755 154.581616 
L 162.325155 154.581616 
L 157.310549 154.581616 
L 152.71591 154.581616 
L 149.849469 154.579434 
L 147.956285 153.352845 
L 145.919778 152.460239 
L 143.216657 151.270895 
L 140.50687 150.085996 
L 137.80375 148.896814 
L 135.093963 147.709895 
L 132.385842 146.523057 
L 129.681055 145.336301 
L 126.971268 144.150718 
L 124.264814 142.965216 
L 121.556694 141.779796 
L 118.851906 140.591188 
L 116.145453 139.404844 
L 113.438999 138.218583 
L 110.735878 137.032406 
L 108.026091 135.847403 
L 105.319637 134.661393 
L 102.60985 133.475468 
L 99.763407 132.254751 
L 96.923631 131.034124 
L 94.078854 129.816856 
L 91.237411 128.599679 
L 88.392635 127.376055 
L 85.554525 126.15797 
L 82.708082 124.939976 
L 79.868305 123.720984 
L 77.025195 122.500995 
L 74.185419 121.281098 
L 71.338976 120.063472 
L 68.499199 118.843761 
L 65.65609 117.625233 
L 62.81298 116.405709 
L 59.96987 115.188456 
L 57.12676 113.96912 
L 54.540297 112.860912 
L 53.280396 111.900819 
L 51.02724 109.239647 
L 46.920896 104.387584 
L 44.046122 100.999994 
L 41.564651 98.064476 
L 41.104687 97.739309 
L 40.588061 97.782809 
L 39.801456 98.173229 
L 39.201503 98.099277 
L 36.718365 96.165775 
L 35.035164 94.860966 
L 34.625196 94.203168 
L 34.485207 93.413849 
L 34.403547 92.002745 
L 34.206896 91.246154 
L 33.475287 89.340714 
L 33.18031 88.964656 
L 32.530361 88.408193 
L 32.220385 88.043026 
L 32.005402 87.587667 
L 31.69876 86.672645 
L 31.388784 86.256448 
L 31.122138 86.089103 
L 30.25054 85.802231 
L 29.545596 84.793877 
L 29.108963 83.134808 
L 28.175703 76.433113 
L 27.559085 75.083379 
L 26.35418 74.383044 
L 24.884296 74.049719 
L 23.704388 73.43629 
L 22.807792 72.282249 
L 22.191174 70.331557 
L 21.927861 68.950932 
L 21.517894 67.578039 
L 20.937939 66.332243 
L 20.174666 65.327439 
L 17.081576 62.740895 
L 16.241642 61.442382 
L 15.335046 58.880429 
L 14.731761 56.185584 
L 14.31846 52.355165 
L 13.968487 51.208312 
L 13.47186 50.382378 
L 11.692 48.156297 
L 10.832067 46.414925 
L 10.188784 44.536191 
L 10.145455 43.64784 
L 10.565422 43.253518 
L 11.208704 43.000032 
L 11.835322 42.543986 
L 12.221958 41.847489 
L 12.458606 41.022141 
L 12.768582 39.318534 
L 13.075224 38.300593 
L 13.455194 37.628145 
L 14.608437 36.430604 
L 15.111731 35.744179 
L 15.318381 35.102178 
L 15.445038 34.410411 
L 15.698351 33.574711 
L 16.194979 32.911169 
L 17.548206 32.184885 
L 18.088163 31.601506 
L 18.334811 30.892612 
L 18.661452 29.184935 
L 19.06142 28.287902 
L 27.61072 11.172864 
L 29.285065 7.823738 
L 29.670861 8.441278 
L 30.130143 8.890417 
L 30.820377 8.973782 
L 30.639289 7.361029 
L 31.103819 8.058502 
L 31.843919 9.569262 
L 32.47379 10.402983 
L 32.885831 10.671828 
L 33.646926 11.849369 
L 34.234807 12.116544 
L 34.867303 12.295231 
L 35.819984 13.188705 
L 36.347502 13.544411 
L 36.560083 12.839817 
L 36.943255 12.336074 
L 37.305431 12.295231 
L 37.465524 12.972563 
L 36.9695 16.860291 
L 37.26344 18.235928 
L 37.85132 19.489116 
L 38.59142 20.425685 
L 38.796128 20.544889 
L 39.321021 20.708372 
L 39.551974 20.868451 
L 39.677948 21.10687 
L 39.845914 21.730186 
L 40.328816 22.578356 
L 40.60176 23.736592 
L 41.433716 25.273124 
L 42.772193 28.740377 
L 45.890058 32.667098 
L 48.275697 36.491014 
L 51.259715 39.792461 
L 54.679393 42.811562 
L 56.915438 45.449154 
L 58.595096 46.711837 
L 62.615777 51.007563 
L 63.565834 51.71597 
L 64.979415 52.778865 
L 66.322452 53.504926 
L 68.775292 53.325596 
L 71.231578 53.692191 
L 72.673954 54.076485 
L 74.001989 53.781598 
L 75.115508 53.28655 
L 77.024868 52.57443 
L 77.979423 52.218595 
L 79.258498 52.402415 
L 81.337299 52.778123 
L 82.775018 52.89205 
L 84.79522 52.724825 
L 85.831799 51.596477 
L 85.63234 50.853937 
L 86.068001 50.853937 
L 89.61103 48.119699 
L 90.107054 47.851767 
L 91.091228 47.469504 
L 94.156604 44.976533 
L 96.358531 42.395328 
L 96.896546 42.028576 
L 97.460806 42.11216 
L 98.05656 42.381682 
L 98.675934 42.550562 
L 99.216574 42.504503 
L 100.381836 42.156512 
L 101.728187 41.44691 
L 102.680868 40.723703 
L 103.531195 39.898203 
L 104.499623 38.370144 
L 104.922162 38.046137 
L 107.378661 37.009368 
L 107.727715 36.77406 
L 108.108263 36.242076 
L 108.420574 35.682834 
L 108.801122 35.23955 
L 109.389002 35.05883 
L 109.819414 34.789461 
L 110.323312 33.609759 
L 110.829834 33.342125 
L 111.412465 33.357467 
L 111.908489 33.459747 
L 112.365146 33.71545 
L 112.829676 34.201301 
L 113.115743 34.74343 
L 113.3257 35.263418 
L 113.614392 35.611225 
L 114.152407 35.631685 
L 114.018559 34.881524 
L 114.543452 34.888343 
L 117.545841 36.651292 
L 118.674361 36.835444 
L 119.805506 37.231038 
L 120.32515 37.503869 
L 121.566522 37.844915 
L 122.695042 37.607887 
L 124.957332 36.77406 
L 125.931008 36.932636 
L 126.757715 37.585719 
L 128.174926 39.505939 
L 129.077743 40.399637 
L 130.206263 40.938614 
L 131.450259 41.158646 
L 132.710003 41.095536 
L 133.828025 40.749287 
L 134.389661 40.450804 
L 135.287228 39.707186 
L 136.352761 39.478651 
L 137.255577 38.990896 
L 138.559937 38.917564 
L 139.111074 38.805008 
L 139.544111 38.52874 
L 140.65426 37.372568 
L 143.496556 35.704998 
L 144.777295 34.41099 
L 146.197131 33.60294 
L 146.386093 33.34383 
L 146.693155 32.713121 
L 146.858497 32.48471 
L 147.086825 32.360279 
L 147.532984 32.293803 
L 147.740317 32.196646 
L 150.779448 30.793915 
L 153.188707 28.435356 
L 154.787007 26.738284 
L 155.926025 25.218609 
L 156.34594 24.867679 
L 157.831387 24.308937 
L 158.219808 23.99721 
L 159.012397 23.179604 
L 162.350717 21.002986 
L 162.975339 20.696451 
L 163.61046 20.507425 
L 164.613006 20.708372 
L 166.305786 20.165141 
L 167.376568 20.410358 
L 172.376175 23.716152 
L 173.43121 23.99721 
L 175.265712 22.786149 
L 179.312637 22.687362 
L 181.099898 22.997353 
L 186.973452 22.515338 
L 187.955003 22.138936 
L 188.364419 21.658657 
L 189.083523 20.415467 
L 189.721268 20.0221 
L 189.776382 19.71048 
L 189.860364 19.398869 
L 190.164802 19.257539 
L 190.721189 19.267756 
L 190.996758 19.233701 
L 191.592512 19.010642 
L 192.256502 18.918695 
L 192.579311 18.712669 
L 192.784019 18.409596 
L 192.873251 18.106529 
L 192.92574 17.813686 
L 193.035968 17.54128 
L 193.453258 16.989676 
L 193.823307 16.707073 
L 194.799609 16.42618 
L 197.09864 16.129971 
L 198.200916 15.83377 
L 199.11423 15.113725 
L 199.602381 14.873719 
L 201.66521 14.970742 
L 203.308126 14.449891 
L 203.885508 14.398828 
L 206.11368 15.042234 
L 207.357676 15.638009 
L 208.588551 16.557263 
L 211.433471 17.748989 
L 211.924246 17.866466 
L 212.475384 17.854548 
z
" clip-path="url(#p2367708831)" style="stroke: #000000; stroke-linejoin: miter"/>
   </g>
   <g id="line2d_1">
    <path d="M 213.054545 17.808645 
L 213.054499 93.252946 
L 182.096933 154.579434 
L 149.849469 154.579434 
L 147.956285 153.352845 
L 91.237411 128.599679 
L 54.540297 112.860912 
L 53.280396 111.900819 
L 41.564651 98.064476 
L 41.104687 97.739309 
L 40.588061 97.782809 
L 39.801456 98.173229 
L 39.201503 98.099277 
L 35.035164 94.860966 
L 34.625196 94.203168 
L 34.485207 93.413849 
L 34.403547 92.002745 
L 34.206896 91.246154 
L 33.475287 89.340714 
L 33.18031 88.964656 
L 32.220385 88.043026 
L 32.005402 87.587667 
L 31.69876 86.672645 
L 31.388784 86.256448 
L 31.122138 86.089103 
L 30.25054 85.802231 
L 29.545596 84.793877 
L 29.108963 83.134808 
L 28.175703 76.433113 
L 27.559085 75.083379 
L 26.35418 74.383044 
L 24.884296 74.049719 
L 23.704388 73.43629 
L 22.807792 72.282249 
L 22.191174 70.331557 
L 21.927861 68.950932 
L 21.517894 67.578039 
L 20.937939 66.332243 
L 20.174666 65.327439 
L 17.081576 62.740895 
L 16.241642 61.442382 
L 15.335046 58.880429 
L 14.731761 56.185584 
L 14.31846 52.355165 
L 13.968487 51.208312 
L 13.47186 50.382378 
L 11.692 48.156297 
L 10.832067 46.414925 
L 10.188784 44.536191 
L 10.145455 43.64784 
L 10.565422 43.253518 
L 11.208704 43.000032 
L 11.835322 42.543986 
L 12.221958 41.847489 
L 12.458606 41.022141 
L 12.768582 39.318534 
L 13.075224 38.300593 
L 13.455194 37.628145 
L 14.608437 36.430604 
L 15.111731 35.744179 
L 15.698351 33.574711 
L 16.194979 32.911169 
L 17.548206 32.184885 
L 18.088163 31.601506 
L 18.334811 30.892612 
L 18.661452 29.184935 
L 19.06142 28.287902 
L 29.285065 7.823738 
L 29.670861 8.441278 
L 30.130143 8.890417 
L 30.820377 8.973782 
L 30.639289 7.361029 
L 31.103819 8.058502 
L 31.843919 9.569262 
L 32.47379 10.402983 
L 32.885831 10.671828 
L 33.646926 11.849369 
L 34.867303 12.295231 
L 36.347502 13.544411 
L 36.560083 12.839817 
L 36.943255 12.336074 
L 37.305431 12.295231 
L 37.465524 12.972563 
L 36.9695 16.860291 
L 37.26344 18.235928 
L 37.85132 19.489116 
L 38.796128 20.544889 
L 39.551974 20.868451 
L 39.677948 21.10687 
L 39.845914 21.730186 
L 40.328816 22.578356 
L 40.60176 23.736592 
L 41.433716 25.273124 
L 42.772193 28.740377 
L 45.890058 32.667098 
L 48.275697 36.491014 
L 51.259715 39.792461 
L 54.679393 42.811562 
L 56.915438 45.449154 
L 58.595096 46.711837 
L 62.615777 51.007563 
L 64.979415 52.778865 
L 66.322452 53.504926 
L 68.775292 53.325596 
L 71.231578 53.692191 
L 72.673954 54.076485 
L 74.001989 53.781598 
L 75.115508 53.28655 
L 77.979423 52.218595 
L 82.775018 52.89205 
L 84.79522 52.724825 
L 85.831799 51.596477 
L 85.63234 50.853937 
L 86.068001 50.853937 
L 90.107054 47.851767 
L 91.091228 47.469504 
L 94.156604 44.976533 
L 96.358531 42.395328 
L 96.896546 42.028576 
L 97.460806 42.11216 
L 98.675934 42.550562 
L 99.216574 42.504503 
L 100.381836 42.156512 
L 101.728187 41.44691 
L 102.680868 40.723703 
L 103.531195 39.898203 
L 104.499623 38.370144 
L 104.922162 38.046137 
L 107.727715 36.77406 
L 108.801122 35.23955 
L 109.389002 35.05883 
L 109.819414 34.789461 
L 110.323312 33.609759 
L 110.829834 33.342125 
L 111.908489 33.459747 
L 112.365146 33.71545 
L 112.829676 34.201301 
L 113.614392 35.611225 
L 114.152407 35.631685 
L 114.018559 34.881524 
L 114.543452 34.888343 
L 117.545841 36.651292 
L 118.674361 36.835444 
L 121.566522 37.844915 
L 122.695042 37.607887 
L 124.957332 36.77406 
L 125.931008 36.932636 
L 126.757715 37.585719 
L 128.174926 39.505939 
L 129.077743 40.399637 
L 130.206263 40.938614 
L 131.450259 41.158646 
L 132.710003 41.095536 
L 133.828025 40.749287 
L 134.389661 40.450804 
L 135.287228 39.707186 
L 136.352761 39.478651 
L 137.255577 38.990896 
L 139.111074 38.805008 
L 139.544111 38.52874 
L 140.65426 37.372568 
L 143.496556 35.704998 
L 144.777295 34.41099 
L 146.197131 33.60294 
L 146.386093 33.34383 
L 146.858497 32.48471 
L 147.086825 32.360279 
L 147.740317 32.196646 
L 150.779448 30.793915 
L 154.787007 26.738284 
L 155.926025 25.218609 
L 156.34594 24.867679 
L 157.831387 24.308937 
L 158.219808 23.99721 
L 159.012397 23.179604 
L 162.975339 20.696451 
L 163.61046 20.507425 
L 164.613006 20.708372 
L 166.305786 20.165141 
L 167.376568 20.410358 
L 172.376175 23.716152 
L 173.43121 23.99721 
L 175.265712 22.786149 
L 179.312637 22.687362 
L 181.099898 22.997353 
L 186.973452 22.515338 
L 187.955003 22.138936 
L 188.364419 21.658657 
L 189.083523 20.415467 
L 189.721268 20.0221 
L 189.860364 19.398869 
L 190.164802 19.257539 
L 190.996758 19.233701 
L 191.592512 19.010642 
L 192.256502 18.918695 
L 192.579311 18.712669 
L 192.873251 18.106529 
L 193.035968 17.54128 
L 193.453258 16.989676 
L 193.823307 16.707073 
L 194.799609 16.42618 
L 197.09864 16.129971 
L 198.200916 15.83377 
L 199.11423 15.113725 
L 199.602381 14.873719 
L 201.66521 14.970742 
L 203.308126 14.449891 
L 203.885508 14.398828 
L 206.11368 15.042234 
L 207.357676 15.638009 
L 208.588551 16.557263 
L 211.924246 17.866466 
L 213.054545 17.808645 
L 213.054545 17.808645 
" clip-path="url(#p2367708831)" style="fill: none; stroke: #000000; stroke-width: 0.5; stroke-linecap: square"/>
   </g>
  </g>
 </g>
 <defs>
  <clipPath id="p2367708831">
   <rect x="0" y="0" width="223.2" height="161.942646"/>
  </clipPath>
 </defs>
</svg>
