<?xml version="1.0" encoding="utf-8" standalone="no"?>
<!DOCTYPE svg PUBLIC "-//W3C//DTD SVG 1.1//EN"
  "http://www.w3.org/Graphics/SVG/1.1/DTD/svg11.dtd">
<svg xmlns:xlink="http://www.w3.org/1999/xlink" width="165.761792pt" height="221.76pt" viewBox="0 0 165.761792 221.76" xmlns="http://www.w3.org/2000/svg" version="1.1">
 <metadata>
  <rdf:RDF xmlns:dc="http://purl.org/dc/elements/1.1/" xmlns:cc="http://creativecommons.org/ns#" xmlns:rdf="http://www.w3.org/1999/02/22-rdf-syntax-ns#">
   <cc:Work>
    <dc:type rdf:resource="http://purl.org/dc/dcmitype/StillImage"/>
    <dc:date>2026-04-26T19:21:50.802387</dc:date>
    <dc:format>image/svg+xml</dc:format>
    <dc:creator>
     <cc:Agent>
      <dc:title>Matplotlib v3.10.9, https://matplotlib.org/</dc:title>
     </cc:Agent>
    </dc:creator>
   </cc:Work>
  </rdf:RDF>
 </metadata>
 <defs>
  <style type="text/css">*{stroke-linejoin: round; stroke-linecap: butt}</style>
 </defs>
 <g id="figure_1">
  <g id="patch_1">
   <path d="M 0 221.76 
L 165.761792 221.76 
L 165.761792 0 
L 0 0 
z
" style="fill: #ffffff"/>
  </g>
  <g id="axes_1">
   <g id="patch_2">
    <path d="M 104.976914 10.08 
L 106.27793 12.173343 
L 108.309486 15.446246 
L 108.713649 16.882773 
L 109.748874 19.059952 
L 113.595513 25.285664 
L 116.594828 31.836049 
L 117.084078 32.549419 
L 118.647551 34.143465 
L 119.246705 35.482303 
L 126.507458 44.069316 
L 129.325964 47.473692 
L 132.701079 50.583364 
L 133.179693 50.909391 
L 135.441588 53.125324 
L 135.558583 54.061325 
L 135.569219 55.187846 
L 135.838661 56.143064 
L 137.380862 56.859651 
L 137.827568 57.628653 
L 139.100327 61.095005 
L 139.667574 61.898586 
L 140.348269 62.240631 
L 140.919061 62.736001 
L 142.900878 66.005336 
L 144.092095 67.26301 
L 144.503349 67.955671 
L 144.662887 68.689667 
L 144.964236 69.40134 
L 147.066593 71.347938 
L 147.736653 72.944988 
L 148.332262 76.435892 
L 149.151224 78.358201 
L 151.384756 80.9918 
L 151.55493 81.544314 
L 151.299669 82.078117 
L 150.895506 82.587559 
L 150.640245 83.085792 
L 150.622519 83.533321 
L 150.93805 84.979713 
L 151.320941 89.113329 
L 151.725104 91.023627 
L 153.171582 94.928382 
L 153.288577 96.841761 
L 152.83478 98.612632 
L 151.852734 100.22189 
L 151.055044 102.132391 
L 151.06568 102.209891 
L 151.289033 104.03633 
L 151.884642 105.943154 
L 152.122176 107.866117 
L 151.852734 111.840152 
L 151.586838 112.694998 
L 150.239627 114.099954 
L 149.714925 114.890832 
L 149.484481 115.812788 
L 149.300126 121.451959 
L 149.449028 122.2178 
L 149.714925 122.643546 
L 150.005638 122.814618 
L 150.239627 123.050331 
L 150.491343 124.63988 
L 150.813964 125.857217 
L 151.164948 126.070292 
L 151.398937 126.332847 
L 151.235854 127.063533 
L 150.88487 127.474606 
L 150.431073 127.664933 
L 150.002093 127.786748 
L 149.276071 128.307713 
L 149.235819 128.948136 
L 150.154087 129.688775 
L 150.813809 130.332225 
L 151.509572 131.072115 
L 152.393058 131.204163 
L 153.51193 130.440999 
L 156.280801 127.805781 
L 156.813268 127.030574 
L 157.532288 127.527897 
L 157.691826 128.331154 
L 158.000267 129.166952 
L 158.227165 130.098164 
L 157.547278 131.024518 
L 155.976594 133.745092 
L 155.85677 134.964498 
L 155.390423 138.174399 
L 154.261326 140.965354 
L 154.323801 142.712145 
L 153.168266 145.749399 
L 152.316571 147.226432 
L 151.945301 147.965269 
L 152.307861 148.804646 
L 152.709271 149.225615 
L 153.000509 149.678508 
L 152.83552 150.703559 
L 152.74244 151.918962 
L 152.448343 153.746431 
L 152.005182 154.52075 
L 151.289033 155.371913 
L 150.629609 155.686354 
L 150.342441 154.856208 
L 150.08718 153.775178 
L 149.523479 152.964604 
L 148.917234 152.826651 
L 148.555615 153.746431 
L 149.151224 153.867169 
L 149.505753 154.263904 
L 149.675926 154.844706 
L 149.714925 155.513792 
L 149.523479 156.146558 
L 149.076772 156.294218 
L 148.576887 156.33449 
L 148.229448 156.641338 
L 148.293263 156.978899 
L 148.349053 157.85536 
L 148.526703 158.760059 
L 148.120707 159.340084 
L 147.751513 159.920241 
L 148.114949 160.373381 
L 148.406145 160.632663 
L 148.346443 161.273866 
L 147.450385 161.533838 
L 146.606896 161.983558 
L 145.396093 163.045505 
L 144.371703 163.011634 
L 144.150427 163.688651 
L 144.075229 164.559423 
L 143.817502 165.01131 
L 143.523459 165.398367 
L 143.769474 166.042659 
L 143.783655 166.307977 
L 143.29064 167.194368 
L 142.597471 168.503154 
L 141.822615 169.331984 
L 141.404024 170.106318 
L 141.110507 170.632508 
L 140.437391 170.620502 
L 139.940072 170.601067 
L 139.327226 170.690252 
L 138.876974 170.667154 
L 138.403321 170.856601 
L 137.882837 170.91099 
L 137.840993 171.575686 
L 138.188807 172.036664 
L 138.246341 172.589267 
L 138.022807 173.218887 
L 137.047315 173.624535 
L 136.258282 173.013492 
L 135.780453 172.661707 
L 135.42507 172.272229 
L 134.283104 173.361426 
L 133.763051 174.229293 
L 133.596294 175.153573 
L 133.243065 175.375017 
L 133.034106 174.909622 
L 132.514336 174.407992 
L 132.557405 174.855319 
L 132.661385 175.818209 
L 132.328918 175.81761 
L 132.182346 175.498785 
L 131.995285 175.423491 
L 131.54886 175.690255 
L 131.124563 175.92721 
L 130.833672 175.60805 
L 130.481367 174.541285 
L 130.627012 173.580721 
L 130.959729 172.361788 
L 131.022318 171.678892 
L 130.814614 171.512773 
L 130.419663 172.029583 
L 129.089881 174.116618 
L 128.487529 174.153709 
L 128.445811 173.193111 
L 128.487224 172.288185 
L 128.197071 172.250544 
L 127.819215 173.000711 
L 127.511385 174.135428 
L 126.431698 174.02472 
L 123.563105 174.065904 
L 123.398336 173.196492 
L 123.106613 172.735313 
L 122.710673 174.048859 
L 122.274268 174.234495 
L 121.260026 173.827557 
L 120.785361 173.035378 
L 120.264203 172.981451 
L 119.594143 173.441778 
L 119.594143 171.371696 
L 119.413334 171.200361 
L 119.041078 171.337043 
L 118.725547 171.772147 
L 118.70073 172.503847 
L 118.009399 172.02245 
L 117.470515 171.329343 
L 116.874906 170.900062 
L 115.99922 171.211912 
L 116.190665 170.543969 
L 115.829046 169.595185 
L 115.99922 169.243058 
L 115.563149 168.000284 
L 115.307888 167.869489 
L 114.808002 168.27343 
L 114.265573 169.031412 
L 114.254937 169.537457 
L 114.808002 170.563216 
L 115.116443 171.814505 
L 115.297252 172.253514 
L 115.669508 172.823527 
L 116.396292 173.69604 
L 116.502651 174.135258 
L 116.297024 174.765276 
L 116.640917 174.807666 
L 117.179801 175.01577 
L 117.488241 175.088994 
L 117.10535 175.316383 
L 116.722459 175.406957 
L 115.839682 175.408884 
L 115.375249 175.312529 
L 115.244073 175.062017 
L 115.222801 174.746008 
L 115.077444 174.441585 
L 114.6591 174.048567 
L 114.361296 173.832809 
L 112.010769 173.095083 
L 111.351345 173.05849 
L 109.908412 173.303096 
L 109.514885 173.476449 
L 109.543247 173.809693 
L 110.046678 174.441585 
L 109.238352 174.586086 
L 107.745785 175.256644 
L 106.03341 175.67291 
L 105.810057 176.272333 
L 105.72497 176.923899 
L 105.260537 177.351909 
L 105.260537 177.673911 
L 109.607062 175.615093 
L 110.344483 175.570767 
L 110.493385 176.403408 
L 110.755736 177.01451 
L 110.844368 177.558219 
L 110.493385 178.188784 
L 109.936774 178.466496 
L 109.085905 178.593787 
L 108.235035 178.559071 
L 107.671334 178.35078 
L 107.377075 178.813663 
L 107.579157 179.037409 
L 107.972684 179.241878 
L 108.266943 179.646989 
L 108.309486 179.893934 
L 108.323668 180.248945 
L 108.266943 181.236968 
L 107.940776 183.178997 
L 108.341394 183.520785 
L 108.724285 183.406852 
L 109.025635 183.028389 
L 109.160356 182.561152 
L 109.748874 183.178997 
L 109.142629 184.1523 
L 108.04359 185.434951 
L 107.068449 185.697594 
L 105.759475 185.619028 
L 105.781858 184.892704 
L 106.621928 184.882433 
L 106.980003 184.824481 
L 107.196265 184.50576 
L 104.491209 184.233419 
L 103.927508 184.032555 
L 103.303537 183.256235 
L 103.214905 182.866201 
L 103.661612 182.615209 
L 104.664929 182.267708 
L 103.675793 180.492069 
L 102.963189 181.121172 
L 102.247041 182.356511 
L 101.236633 182.414427 
L 100.314858 181.306448 
L 99.832699 181.030467 
L 98.843563 180.939764 
L 98.407492 181.17521 
L 98.166413 181.748444 
L 98.07778 182.476205 
L 98.099052 183.178997 
L 97.177277 183.039974 
L 95.152916 183.12107 
L 94.355226 182.723327 
L 94.263049 182.466552 
L 94.252413 181.771607 
L 94.206324 181.588239 
L 94.004242 181.541916 
L 93.518538 181.621052 
L 92.891021 181.491733 
L 91.866433 181.4126 
L 91.504813 181.236968 
L 91.302732 180.856782 
L 91.324003 180.48435 
L 91.433907 180.127389 
L 91.504813 179.809045 
L 91.433907 176.297391 
L 91.504813 175.732655 
L 91.632444 175.470553 
L 91.855797 175.12368 
L 92.047243 174.668937 
L 92.100422 174.089023 
L 91.419726 174.815374 
L 90.85957 175.663274 
L 90.168239 176.299318 
L 89.122379 176.380277 
L 89.920069 178.057649 
L 89.377639 178.385494 
L 88.197058 178.362351 
L 87.069656 178.998831 
L 86.612313 177.860954 
L 86.335781 177.396255 
L 85.846531 177.058852 
L 85.7189 178.586072 
L 85.250922 179.793611 
L 84.339783 180.522942 
L 83.176928 180.615566 
L 82.712495 180.451547 
L 82.297696 180.356998 
L 81.953803 180.39173 
L 81.687906 180.615566 
L 81.039118 180.137036 
L 80.585321 180.02706 
L 80.298153 179.955673 
L 78.532598 179.971108 
L 77.94408 179.882358 
L 77.710091 179.641202 
L 77.603732 179.280458 
L 77.348471 178.821378 
L 76.848586 178.466496 
L 76.731591 178.831022 
L 76.806042 179.39813 
L 76.901765 179.646989 
L 76.586234 180.521013 
L 76.412515 180.820116 
L 76.008352 181.236968 
L 74.359792 182.414427 
L 73.445108 182.779317 
L 72.789229 182.27543 
L 71.966722 180.777661 
L 71.286026 180.53452 
L 70.810957 181.140471 
L 70.576968 182.090109 
L 70.626602 182.883578 
L 71.030765 183.723554 
L 71.70437 184.809027 
L 72.477243 185.755679 
L 73.168575 186.153726 
L 73.657825 186.721881 
L 74.115167 186.919015 
L 74.657597 186.613655 
L 76.008352 185.477456 
L 76.944308 185.365399 
L 77.741999 185.504504 
L 78.486509 185.54701 
L 79.305471 185.154819 
L 79.255837 186.09189 
L 79.114026 186.756669 
L 78.6815 188.100091 
L 78.181615 190.472964 
L 77.819995 191.022387 
L 76.28843 191.482878 
L 75.075941 190.93726 
L 74.104531 190.751535 
L 73.306841 192.322731 
L 73.05158 192.171777 
L 72.987765 192.185324 
L 72.927495 192.272412 
L 72.711233 192.322731 
L 73.05158 192.949834 
L 73.306841 193.619625 
L 73.625917 195.745889 
L 73.427381 196.141056 
L 72.977129 195.916348 
L 72.264526 195.2423 
L 71.222211 195.126096 
L 70.445792 194.740711 
L 69.945907 194.037818 
L 69.733189 192.973061 
L 69.999086 191.966643 
L 70.566332 190.975954 
L 70.977586 190.03967 
L 70.775504 189.237038 
L 70.424521 188.790342 
L 69.733189 187.450553 
L 69.552379 187.346173 
L 69.307754 187.340374 
L 69.052494 187.305581 
L 68.839776 187.100696 
L 68.818504 186.857168 
L 68.892956 186.571138 
L 69.020586 186.389481 
L 68.361162 185.145159 
L 68.247713 184.681537 
L 68.286711 184.401457 
L 68.478157 183.937921 
L 68.5207 183.694586 
L 68.424977 183.428094 
L 68.222896 183.219547 
L 68.020814 183.159688 
L 67.925091 183.356646 
L 67.776189 183.462853 
L 67.031678 185.154819 
L 66.74451 185.514164 
L 66.595608 185.606904 
L 66.372255 185.630089 
L 64.886778 186.09962 
L 64.021728 186.196238 
L 62.139179 186.153726 
L 61.430121 186.343102 
L 62.004458 186.766332 
L 63.128315 187.207003 
L 64.053635 187.450553 
L 64.053635 187.750178 
L 62.202994 188.279893 
L 61.267037 188.751669 
L 61.107499 189.399485 
L 61.479755 189.67218 
L 62.298717 189.376278 
L 62.734787 189.544533 
L 63.043228 189.997116 
L 62.95105 190.163463 
L 62.717061 190.217624 
L 62.596521 190.345292 
L 63.202766 192.237577 
L 64.461343 193.251807 
L 65.822735 194.037818 
L 66.755146 195.2423 
L 66.308439 195.180324 
L 65.542657 195.176451 
L 65.21649 195.2423 
L 67.088403 195.891166 
L 67.330199 196.418313 
L 67.453503 197.41062 
L 67.054904 197.770105 
L 66.606244 198.113599 
L 65.755374 198.076774 
L 65.21649 198.198878 
L 63.234673 197.086516 
L 62.596521 196.900506 
L 62.03282 196.997385 
L 61.330853 197.288036 
L 60.735244 197.671727 
L 60.483528 198.036074 
L 60.586342 198.187249 
L 61.107499 199.175839 
L 61.718258 199.296538 
L 62.087157 199.517081 
L 63.743059 199.127542 
L 64.649244 199.8234 
L 62.58291 201.534301 
L 61.848976 202.475601 
L 61.050762 202.145258 
L 59.795378 203.005257 
L 59.926918 203.837098 
L 60.483528 204.384464 
L 59.277996 204.389842 
L 57.49866 202.265003 
L 56.885059 201.126591 
L 55.250681 199.530627 
L 54.750795 199.633386 
L 53.024239 200.447793 
L 53.197958 200.936516 
L 53.322043 201.126591 
L 52.612985 200.905484 
L 51.928744 200.785238 
L 51.343772 200.50791 
L 50.939609 199.8234 
L 50.886429 199.123496 
L 51.162962 198.716405 
L 52.130826 198.198878 
L 52.442811 197.94886 
L 53.322043 196.900506 
L 53.864473 195.873733 
L 54.176458 195.521203 
L 54.811065 195.2423 
L 54.768521 196.036449 
L 54.555804 196.807505 
L 53.917652 198.198878 
L 55.193956 198.12329 
L 56.261088 197.772501 
L 56.899241 196.978009 
L 56.885059 195.571563 
L 56.629799 195.021516 
L 56.292996 194.707791 
L 56.03419 194.339873 
L 55.995192 193.619625 
L 56.229181 193.242128 
L 57.484213 191.993735 
L 57.93801 192.208547 
L 58.235815 192.498852 
L 58.310266 192.870473 
L 58.079822 193.323432 
L 58.342173 193.944882 
L 58.714429 194.378599 
L 59.214315 194.525764 
L 59.88792 194.29921 
L 60.171543 193.968116 
L 60.767152 192.818211 
L 61.107499 192.322731 
L 60.501255 191.511902 
L 60.267266 190.66448 
L 59.958826 190.281458 
L 59.132773 190.859874 
L 58.182635 191.221669 
L 57.395581 190.631593 
L 56.321358 189.074597 
L 55.704478 189.944893 
L 54.825246 191.974383 
L 54.215456 192.644012 
L 53.58794 192.872408 
L 53.056147 192.847245 
L 51.964197 192.644012 
L 51.45013 192.806598 
L 50.971516 193.201476 
L 50.184462 194.136564 
L 49.833478 194.403772 
L 48.238098 195.2423 
L 47.376592 195.833055 
L 46.823527 196.123621 
L 46.291734 196.24954 
L 45.962022 196.402585 
L 45.887571 196.79588 
L 45.908843 197.320978 
L 45.827301 197.877153 
L 45.540132 198.268653 
L 45.135969 198.695082 
L 44.933888 199.20298 
L 45.260055 199.8234 
L 42.856348 201.956818 
L 42.934344 203.928321 
L 42.526636 204.256351 
L 41.367326 203.732292 
L 40.984435 204.149593 
L 40.803625 204.617408 
L 40.824897 205.129933 
L 41.069522 205.687182 
L 40.505821 205.526018 
L 39.286241 204.73971 
L 37.612865 204.297114 
L 37.229973 204.08748 
L 36.889626 203.173371 
L 37.070435 200.758086 
L 36.903807 199.8234 
L 37.144886 199.228183 
L 37.091707 198.49543 
L 36.804539 197.853897 
L 36.308198 197.518634 
L 35.836674 197.640721 
L 35.361606 198.043826 
L 34.996441 198.559395 
L 34.851084 199.012996 
L 35.028348 199.672164 
L 35.304881 200.246115 
L 35.319062 200.647542 
L 33.975397 201.052887 
L 34.149117 201.634794 
L 35.124071 202.75423 
L 33.45424 203.629429 
L 32.826724 204.151534 
L 33.475512 204.384464 
L 33.624414 204.491229 
L 33.666957 204.724179 
L 33.617323 204.957143 
L 33.475512 205.061981 
L 33.209615 205.013444 
L 32.805452 204.792125 
L 32.592734 204.73971 
L 32.018398 204.817363 
L 31.901403 205.036742 
L 31.894312 205.392044 
L 31.670959 205.863886 
L 31.330611 206.07167 
L 30.040126 206.366857 
L 29.554421 206.737814 
L 29.380702 207.046646 
L 28.32066 210.272335 
L 28.232028 210.735022 
L 28.232028 211.287205 
L 27.168441 211.0811 
L 25.161807 211.68 
L 24.658376 211.586659 
L 24.598106 211.02277 
L 25.00936 209.873844 
L 24.927818 209.331569 
L 24.530746 209.022564 
L 23.981226 208.923453 
L 22.843188 208.975923 
L 22.843188 208.678603 
L 23.073632 208.402679 
L 23.148083 208.212263 
L 23.23317 207.460402 
L 23.382072 207.435148 
L 23.577063 207.493427 
L 23.764963 207.376871 
L 24.381844 206.362973 
L 24.498838 205.875538 
L 24.332209 205.38816 
L 24.115947 205.232833 
L 23.796871 205.131874 
L 23.148083 205.061981 
L 22.680104 204.945494 
L 22.616289 204.687294 
L 22.74392 204.452405 
L 22.843188 204.384464 
L 22.860914 203.77305 
L 23.023998 203.185014 
L 22.946001 202.870654 
L 22.247579 203.080224 
L 22.439025 201.929659 
L 23.307621 201.351589 
L 24.46693 201.149866 
L 25.551789 201.126591 
L 25.353253 200.758086 
L 25.083811 200.474943 
L 24.743463 200.277142 
L 24.332209 200.149158 
L 25.019996 199.714819 
L 25.44543 199.206857 
L 25.459612 198.760989 
L 24.927818 198.49543 
L 24.732827 198.56521 
L 24.3393 199.00718 
L 24.062767 199.175839 
L 23.701148 199.171961 
L 23.137447 198.857913 
L 22.843188 198.850159 
L 22.577291 199.067276 
L 22.396481 199.392973 
L 22.247579 199.8234 
L 21.861143 199.900959 
L 21.488887 199.889325 
L 21.063452 199.8234 
L 20.131041 199.838911 
L 19.620519 199.920349 
L 18.978822 200.149158 
L 18.89728 199.392973 
L 18.525025 198.954839 
L 17.4898 198.49543 
L 17.503982 198.344244 
L 17.287719 197.960489 
L 17.025367 197.729866 
L 16.894192 198.036074 
L 16.766561 198.21826 
L 16.458121 198.379133 
L 16.107137 198.443096 
L 15.830605 198.346182 
L 14.926556 197.567081 
L 14.813107 197.518634 
L 14.664204 197.040013 
L 14.738656 196.902444 
L 14.91592 196.838505 
L 15.086094 196.57501 
L 15.259813 196.797817 
L 15.695884 196.80363 
L 16.011415 196.57501 
L 15.830605 196.086815 
L 14.664204 195.571563 
L 13.760156 194.975037 
L 13.685705 193.604137 
L 14.065051 192.08082 
L 14.522393 191.022387 
L 14.568482 190.662545 
L 14.533029 190.221493 
L 14.596844 189.850118 
L 14.951373 189.695388 
L 15.27754 189.7244 
L 15.617887 189.811435 
L 15.873148 189.968103 
L 16.160317 190.534867 
L 17.4898 192.322731 
L 17.075001 192.81434 
L 16.947371 193.290523 
L 17.021822 193.776442 
L 17.163634 194.29921 
L 18.064137 196.57501 
L 18.606567 196.867568 
L 20.765648 197.193088 
L 21.690969 197.768625 
L 22.190854 197.727928 
L 22.545383 196.900506 
L 22.056133 196.966384 
L 21.797327 196.85013 
L 20.900775 196.674375 
L 20.478294 196.079909 
L 19.923597 195.58033 
L 20.077862 194.487036 
L 19.502556 194.581686 
L 19.224494 195.254836 
L 18.772064 195.29143 
L 18.498525 194.402861 
L 18.364374 193.215025 
L 18.695636 192.538173 
L 18.444422 191.70665 
L 19.636198 191.600799 
L 21.462061 191.958875 
L 21.699714 192.339114 
L 21.58461 192.957576 
L 21.595246 193.149211 
L 21.577519 193.333111 
L 21.680333 193.619625 
L 22.134036 193.883433 
L 22.397885 194.204481 
L 22.965848 194.537805 
L 23.747643 194.816276 
L 24.220223 195.228628 
L 24.827192 195.621448 
L 25.28834 195.893964 
L 25.477338 195.683905 
L 24.56517 194.599676 
L 25.107318 194.493705 
L 25.912468 194.910917 
L 26.950817 195.421092 
L 28.206713 195.781862 
L 29.118351 195.571563 
L 28.20012 195.432107 
L 27.45561 195.007959 
L 26.147398 193.973924 
L 26.466474 193.619625 
L 25.523427 193.000161 
L 24.09822 191.359043 
L 23.307621 191.022387 
L 22.222762 190.826985 
L 20.934333 190.901932 
L 20.045954 190.38398 
L 18.948277 190.650322 
L 17.941124 190.352382 
L 17.808555 189.900984 
L 18.431526 189.200978 
L 19.041932 188.976673 
L 20.340133 189.158401 
L 21.996486 188.494438 
L 23.988316 189.811435 
L 24.658376 189.695388 
L 24.82855 189.79983 
L 24.934909 189.896538 
L 25.051903 189.979708 
L 25.253985 190.049341 
L 25.062539 189.134545 
L 25.147626 188.299227 
L 25.668784 187.688318 
L 26.735916 187.450553 
L 28.731914 187.986028 
L 29.752957 188.053692 
L 29.444517 187.450553 
L 30.118122 187.147084 
L 30.479742 187.079435 
L 30.933539 187.100696 
L 30.284751 186.431996 
L 29.295615 186.269669 
L 27.03372 186.451321 
L 27.203894 185.99141 
L 27.147169 185.678392 
L 27.03372 185.353807 
L 27.03372 184.859252 
L 27.193258 184.546323 
L 27.423702 184.31454 
L 27.615148 184.02483 
L 27.629329 183.532371 
L 27.278345 182.831447 
L 26.679191 182.669268 
L 26.030403 182.941502 
L 25.551789 183.532371 
L 25.49861 183.926333 
L 25.785778 184.725965 
L 25.849593 185.154819 
L 25.775142 185.218571 
L 25.253985 186.153726 
L 24.764735 187.773376 
L 24.310938 188.326295 
L 23.445887 188.395898 
L 23.445887 188.285693 
L 23.1729 188.100091 
L 23.350164 187.846836 
L 23.584153 187.351971 
L 23.764963 187.100696 
L 23.1729 186.83011 
L 22.775827 186.988594 
L 22.392936 187.290118 
L 21.818599 187.450553 
L 20.659289 187.2186 
L 20.290579 187.375167 
L 20.217717 187.865696 
L 19.620519 187.856502 
L 18.681018 188.134891 
L 18.223675 187.926097 
L 18.074773 187.421558 
L 18.386759 186.949939 
L 19.276626 186.153726 
L 19.599248 185.717035 
L 19.780058 185.373127 
L 19.854509 185.050499 
L 19.872235 184.681537 
L 19.75524 183.972684 
L 19.904143 183.623134 
L 20.467844 183.178997 
L 19.925414 182.796694 
L 19.450346 182.003242 
L 19.191539 181.074854 
L 19.276626 180.295253 
L 19.882871 179.79747 
L 20.705378 179.293962 
L 20.960639 178.877314 
L 19.872235 178.645862 
L 19.375894 178.726868 
L 19.085181 178.952539 
L 18.851192 179.187866 
L 18.52148 179.293962 
L 18.096045 179.488798 
L 18.15986 179.951814 
L 18.372577 180.495928 
L 18.386759 180.939764 
L 17.776969 181.435761 
L 16.989915 181.484013 
L 16.227677 181.262058 
L 15.681703 180.939764 
L 16.096502 180.685034 
L 16.277311 180.615566 
L 15.89442 180.370505 
L 15.568253 180.075295 
L 15.298811 179.722229 
L 15.086094 179.293962 
L 15.58598 179.064414 
L 16.07523 179.087561 
L 17.163634 179.293962 
L 17.032458 178.275567 
L 18.248492 177.197666 
L 17.925871 176.204869 
L 16.68502 174.67279 
L 15.919237 174.048567 
L 15.086094 173.794282 
L 15.429987 174.857764 
L 15.128637 175.466699 
L 14.511757 175.48597 
L 13.894877 174.765276 
L 14.302585 174.260483 
L 13.182273 172.935229 
L 13.026281 172.149533 
L 13.653797 171.500683 
L 14.543665 171.394798 
L 15.334264 171.754819 
L 15.681703 172.503847 
L 16.234768 172.188044 
L 16.543208 171.645077 
L 16.894192 170.563216 
L 17.202632 171.102184 
L 17.259357 171.556515 
L 17.142362 172.430671 
L 16.947371 172.8736 
L 16.894192 173.147086 
L 16.979279 173.428295 
L 17.152998 173.428295 
L 17.355079 173.36088 
L 17.4898 173.441778 
L 17.66352 174.065905 
L 17.706063 174.333693 
L 17.865601 174.487825 
L 18.386759 174.765276 
L 18.808648 174.898228 
L 19.542523 174.921351 
L 19.872235 175.088994 
L 19.620519 175.628583 
L 19.691425 176.148971 
L 20.003411 176.632801 
L 20.467844 177.058852 
L 21.566884 174.840423 
L 21.680333 174.089023 
L 21.659061 173.245314 
L 21.446344 172.942933 
L 20.627382 172.759974 
L 20.279943 172.586653 
L 19.992775 172.326686 
L 19.546068 171.263889 
L 18.117317 169.77992 
L 17.787605 169.096829 
L 17.883328 168.865952 
L 18.085409 168.671641 
L 18.291036 168.415781 
L 18.386759 167.979126 
L 17.925871 167.690614 
L 17.702518 167.315581 
L 17.787605 166.661763 
L 17.227449 166.857897 
L 16.649567 166.940584 
L 15.408715 166.954044 
L 15.89442 166.421416 
L 16.69211 166.257989 
L 17.596159 166.213768 
L 18.386759 166.042659 
L 18.127953 165.954224 
L 17.989686 165.846566 
L 17.830148 165.752368 
L 17.4898 165.692775 
L 17.702518 165.266035 
L 17.957779 165.016164 
L 18.237856 164.823967 
L 18.52148 164.551063 
L 18.670382 164.193626 
L 18.599476 163.884258 
L 18.46121 163.586442 
L 18.386759 163.259832 
L 18.535661 162.5241 
L 18.915007 161.798108 
L 19.872235 160.505872 
L 20.127496 160.740094 
L 20.765648 161.473569 
L 21.534976 161.680964 
L 21.924958 161.657919 
L 21.818599 161.312269 
L 20.382757 159.868553 
L 20.170039 159.365683 
L 20.489115 158.250772 
L 21.237172 156.87149 
L 22.417565 154.44 
L 23.412972 153.177433 
L 24.834035 152.728928 
L 26.453196 152.435606 
L 27.837796 152.369678 
L 28.476521 151.919211 
L 29.090048 151.139902 
L 29.957501 150.943972 
L 30.735003 151.711713 
L 31.532693 152.579498 
L 32.117666 152.751929 
L 31.550419 150.993497 
L 31.146256 150.194997 
L 30.486832 149.86186 
L 24.305806 150.750002 
L 22.152769 149.570049 
L 22.283796 148.304602 
L 22.319316 147.798399 
L 23.339528 147.352772 
L 24.229912 146.580913 
L 25.054111 145.752125 
L 26.361527 145.083488 
L 27.965657 144.308274 
L 29.18392 142.817547 
L 29.369363 141.415705 
L 30.038763 141.067318 
L 30.533743 140.79347 
L 30.79674 140.593391 
L 32.359368 140.455348 
L 33.888669 140.620769 
L 34.858175 141.275404 
L 35.553051 141.428223 
L 36.017484 142.131269 
L 36.198294 141.749163 
L 36.347196 141.218098 
L 36.411011 140.6661 
L 35.829077 140.260433 
L 35.428131 140.004055 
L 34.595151 139.642617 
L 33.648849 139.078573 
L 32.879903 138.575344 
L 32.47574 138.395918 
L 32.592734 137.991284 
L 32.954354 137.556161 
L 33.315974 137.296638 
L 33.713046 137.216494 
L 36.145115 137.353884 
L 36.676908 137.31572 
L 37.070435 137.136353 
L 37.336332 136.714683 
L 37.4356 136.369369 
L 37.644772 136.13091 
L 38.243926 136.041254 
L 38.435372 135.888652 
L 38.208473 135.545321 
L 37.74404 135.192485 
L 37.229973 135.026568 
L 37.091707 135.121921 
L 33.89031 136.251092 
L 32.816088 136.296876 
L 30.706881 136.176441 
L 28.624407 136.032684 
L 28.604768 135.225708 
L 28.472818 134.115654 
L 28.070562 133.809842 
L 26.770771 133.421063 
L 24.853755 133.683095 
L 24.665603 132.270284 
L 28.613822 131.899846 
L 30.761081 131.667182 
L 32.933082 131.55543 
L 33.63505 131.187727 
L 34.383106 131.378242 
L 35.29779 130.970551 
L 36.903807 129.909618 
L 38.942348 129.20313 
L 39.803854 128.666213 
L 39.88185 127.990415 
L 37.329241 128.675732 
L 36.432283 128.915622 
L 35.553051 129.443054 
L 34.815631 130.060073 
L 34.000214 130.401 
L 33.028805 130.543856 
L 32.117666 130.894352 
L 31.454696 130.612429 
L 31.231343 130.286719 
L 31.160437 129.858198 
L 30.933539 129.269774 
L 30.571919 128.761405 
L 29.838044 127.92189 
L 29.444517 127.352802 
L 30.050762 126.926518 
L 29.767139 126.633477 
L 29.17153 126.416564 
L 28.626125 126.258301 
L 27.629329 124.771105 
L 26.863516 124.482546 
L 26.284313 124.773024 
L 26.010213 124.770917 
L 25.987828 124.256167 
L 25.003468 123.709825 
L 24.152885 123.826145 
L 23.888532 124.706354 
L 23.743691 125.008843 
L 23.445887 124.771105 
L 23.619376 123.405903 
L 25.098638 122.755531 
L 26.404895 122.398242 
L 28.232028 122.854537 
L 27.586785 121.930829 
L 27.221621 121.56787 
L 26.735916 121.260049 
L 26.445202 121.201147 
L 26.097764 121.377854 
L 25.849593 121.260049 
L 25.523427 120.952252 
L 25.253985 120.621685 
L 26.16867 118.445233 
L 26.693372 117.486556 
L 27.331525 117.120236 
L 26.849365 116.609726 
L 24.998724 116.120158 
L 24.332209 115.814686 
L 24.988088 115.291077 
L 26.927362 114.885141 
L 27.331525 114.399595 
L 27.051447 113.781374 
L 26.36366 113.625887 
L 24.927818 113.618303 
L 24.630014 113.44007 
L 24.115947 112.899735 
L 23.764963 112.632441 
L 23.764963 112.31778 
L 24.332209 112.31778 
L 23.679417 111.273781 
L 24.468629 110.897456 
L 25.367857 110.663066 
L 26.206082 109.610495 
L 28.00017 109.180278 
L 28.848909 108.790104 
L 26.306936 108.790104 
L 25.693601 109.091207 
L 24.754099 110.295867 
L 24.062767 110.409535 
L 23.630242 109.95678 
L 23.23317 109.096889 
L 22.981454 108.214478 
L 23.009816 107.693842 
L 23.917411 106.779594 
L 24.3393 106.215638 
L 24.201034 105.962076 
L 23.365775 106.22145 
L 22.988545 105.916663 
L 22.646584 105.721791 
L 22.439969 105.685319 
L 22.237659 105.258083 
L 22.428212 104.868543 
L 22.391569 104.442381 
L 22.1722 103.643555 
L 21.90703 103.304971 
L 21.887939 103.110325 
L 22.489108 103.077995 
L 23.360251 102.730888 
L 24.268957 102.756563 
L 24.336745 102.190597 
L 24.598106 101.690109 
L 24.24275 101.286857 
L 23.726289 101.194553 
L 23.026791 100.60165 
L 23.469289 100.057819 
L 24.082426 99.635487 
L 23.667704 98.992129 
L 22.623229 98.824502 
L 22.412015 98.049421 
L 22.745821 97.478675 
L 23.764963 97.340085 
L 23.17999 96.770038 
L 22.977909 96.483161 
L 22.843188 96.075533 
L 22.478023 96.341619 
L 21.861143 96.91726 
L 21.169811 97.170194 
L 21.031545 97.498657 
L 21.056362 97.825262 
L 21.364257 98.228787 
L 21.418463 99.015873 
L 21.097527 99.920901 
L 21.288945 101.136721 
L 20.826403 102.17504 
L 20.432073 102.599896 
L 19.62567 102.060335 
L 18.783273 102.028192 
L 17.945039 101.555439 
L 18.154974 99.047626 
L 18.413747 98.142471 
L 17.913351 97.938778 
L 18.064137 96.762489 
L 17.596159 96.283116 
L 16.894192 96.388799 
L 16.500665 96.992761 
L 16.394306 97.73464 
L 16.078775 98.278403 
L 15.086094 98.291621 
L 15.493802 99.005436 
L 16.287947 100.091536 
L 16.575116 100.856723 
L 16.096502 101.204416 
L 16.160317 101.588051 
L 16.894192 102.440508 
L 16.227677 102.553932 
L 15.663976 102.829945 
L 15.192453 103.226987 
L 14.813107 103.709167 
L 14.820197 103.368798 
L 14.770563 103.022789 
L 14.671295 102.708951 
L 14.522393 102.440508 
L 15.121547 101.306463 
L 13.841697 99.507835 
L 14.224589 98.606967 
L 13.894877 97.340085 
L 13.090096 97.725201 
L 11.937877 98.971442 
L 11.087007 99.241517 
L 10.587121 99.32651 
L 10.140415 99.477614 
L 9.693708 99.504058 
L 9.16546 99.241517 
L 9.03783 99.026211 
L 8.85702 98.593748 
L 8.789659 98.167001 
L 9.002377 97.974415 
L 10.799839 97.989519 
L 11.257181 97.723313 
L 11.246545 97.022962 
L 10.778567 96.294439 
L 10.108507 96.013261 
L 9.40654 95.837771 
L 8.842839 95.441536 
L 8.619486 95.996278 
L 8.491855 97.151318 
L 8.24723 97.687442 
L 7.736708 98.083923 
L 7.566535 97.710097 
L 7.619714 96.547329 
L 7.534627 95.418895 
L 7.655167 95.105714 
L 8.771933 93.894747 
L 8.991741 93.472325 
L 9.16546 92.880263 
L 9.303726 93.329015 
L 9.491627 93.732562 
L 9.725616 94.113521 
L 10.026966 94.490749 
L 10.257409 94.305902 
L 10.544578 94.324764 
L 10.87429 94.422845 
L 11.246545 94.490749 
L 10.789203 93.94001 
L 10.32477 93.227192 
L 11.565621 93.543983 
L 12.076143 93.43084 
L 12.405855 92.880263 
L 11.292634 92.812389 
L 10.608393 92.548449 
L 10.526851 91.971617 
L 11.246545 90.984055 
L 10.260955 90.288777 
L 10.32477 89.644494 
L 11.076371 89.12463 
L 12.139958 88.798811 
L 11.863426 89.928944 
L 11.969784 90.241677 
L 12.568938 90.350951 
L 13.650252 90.333995 
L 13.940965 90.162549 
L 14.224589 89.746215 
L 14.302585 88.704649 
L 14.192681 87.305698 
L 14.394762 86.165099 
L 15.408715 85.899764 
L 15.27754 86.53773 
L 15.309447 87.53725 
L 15.500893 88.55023 
L 16.043322 89.76882 
L 15.777425 90.198345 
L 15.351991 90.582699 
L 15.086094 90.984055 
L 15.100275 91.409955 
L 15.373262 92.092254 
L 15.408715 92.276987 
L 15.171181 92.495663 
L 14.387672 92.933054 
L 14.224589 93.053723 
L 14.267132 93.453468 
L 14.408944 93.875888 
L 14.639387 94.122952 
L 14.951373 94.000361 
L 15.685248 93.423297 
L 16.234768 93.410098 
L 17.4898 94.145584 
L 16.589297 92.482467 
L 16.270221 91.447648 
L 16.734654 90.984055 
L 17.436621 91.749204 
L 17.865601 91.986697 
L 18.064137 91.485341 
L 18.248492 91.328917 
L 18.702289 91.1725 
L 19.574431 90.984055 
L 19.574431 90.695753 
L 19.226992 90.650531 
L 18.386759 90.350951 
L 18.386759 90.0627 
L 19.436164 89.853591 
L 20.053045 89.000325 
L 20.212583 87.960859 
L 19.872235 87.192751 
L 19.492889 87.085455 
L 18.351306 87.068514 
L 17.787605 86.874637 
L 17.365715 86.437981 
L 17.227449 86.008907 
L 17.436621 85.858366 
L 18.064137 86.244139 
L 18.351306 85.5272 
L 18.042866 85.101997 
L 17.372806 84.928919 
L 16.575116 84.979713 
L 16.897737 84.624174 
L 17.330262 84.368358 
L 17.798241 84.300645 
L 18.223675 84.505668 
L 18.638474 84.776543 
L 19.003639 84.838622 
L 19.170268 84.695655 
L 18.978822 84.347668 
L 18.978822 84.003476 
L 20.584838 83.980907 
L 21.354166 84.210363 
L 21.680333 84.821691 
L 21.460525 85.199826 
L 21.042181 85.60058 
L 20.78692 86.12558 
L 21.063452 86.874637 
L 21.446344 86.549022 
L 21.939139 86.321298 
L 22.364574 86.328826 
L 22.545383 86.716531 
L 22.595018 87.040278 
L 22.797099 87.333935 
L 22.843188 87.650207 
L 22.765191 87.770699 
L 22.371664 88.169858 
L 22.247579 88.456074 
L 22.247579 90.52429 
L 22.392936 91.123503 
L 22.712012 91.543766 
L 23.031088 91.702084 
L 23.1729 91.485341 
L 23.350164 90.33211 
L 24.147854 88.120902 
L 24.332209 87.032749 
L 24.566199 86.776761 
L 25.094447 87.08169 
L 25.849593 87.793292 
L 26.158034 88.294133 
L 26.381387 88.75738 
L 26.711099 89.062477 
L 27.331525 89.085078 
L 27.331525 88.798811 
L 27.019539 88.446659 
L 26.640193 87.503363 
L 26.306936 87.032749 
L 23.637333 84.63546 
L 23.445887 84.505668 
L 23.594789 84.007237 
L 23.967045 84.06366 
L 24.413751 84.421024 
L 25.108628 85.158437 
L 25.477338 85.436887 
L 25.924045 85.609988 
L 26.466474 85.61187 
L 26.874182 85.408664 
L 26.91318 85.090709 
L 26.615376 84.793474 
L 25.998496 84.663676 
L 25.168898 84.325097 
L 24.266453 83.608289 
L 23.859835 82.541295 
L 23.764963 81.826242 
L 24.562653 81.807446 
L 25.25753 82.091275 
L 25.881501 82.555599 
L 26.75342 83.083907 
L 27.585978 83.571742 
L 27.927525 83.867226 
L 28.588586 84.249373 
L 29.225855 84.547792 
L 29.661524 85.178924 
L 29.456216 85.804198 
L 29.033264 86.227201 
L 29.118351 86.558433 
L 29.550876 87.262401 
L 29.604055 87.695391 
L 29.444517 88.456074 
L 29.923131 88.173624 
L 30.114577 87.830947 
L 30.231572 87.446886 
L 30.065805 86.311887 
L 30.243265 85.937125 
L 30.51962 85.542336 
L 30.922619 84.898214 
L 31.64149 84.612531 
L 32.316202 84.607244 
L 33.070575 84.689364 
L 33.905448 84.948779 
L 34.962086 85.189709 
L 35.71968 85.61187 
L 36.63791 86.413515 
L 36.701725 87.401705 
L 36.017484 89.401504 
L 36.538642 89.107679 
L 37.357604 88.2094 
L 37.80431 88.139731 
L 38.116296 88.5201 
L 38.297106 89.201851 
L 38.392828 90.52429 
L 38.34674 90.806925 
L 38.144658 91.43634 
L 38.102115 91.801978 
L 38.187202 92.182734 
L 38.573638 92.736976 
L 38.942348 94.179533 
L 38.818263 94.592607 
L 38.102115 94.779354 
L 38.23329 95.169857 
L 38.403464 95.435876 
L 38.65518 95.617006 
L 39.016799 95.758521 
L 39.27206 94.717104 
L 39.70104 94.098433 
L 39.920848 93.438383 
L 39.559229 92.276987 
L 40.442006 92.495663 
L 41.367326 92.593694 
L 39.871214 91.180038 
L 39.424508 90.401821 
L 40.314375 90.0627 
L 41.115611 89.949666 
L 43.008796 89.299793 
L 44.402094 88.395816 
L 45.057973 88.1322 
L 45.529497 87.68033 
L 45.827301 86.558433 
L 45.742214 86.358937 
L 45.338051 85.995734 
L 45.260055 85.899764 
L 45.494044 85.713477 
L 45.728033 85.689016 
L 45.951386 85.696542 
L 46.557631 85.410546 
L 46.944067 85.361628 
L 47.231236 85.199826 
L 47.344685 84.663676 
L 44.738897 85.284489 
L 44.34537 85.756755 
L 44.483636 87.187104 
L 44.168105 87.510893 
L 43.154152 87.793292 
L 41.71122 87.621967 
L 39.998845 86.772997 
L 38.453098 85.482043 
L 37.865345 84.246781 
L 40.473913 84.003476 
L 40.473913 83.715734 
L 40.293104 83.642392 
L 39.88185 83.375363 
L 40.3711 83.320832 
L 40.835533 83.343397 
L 41.260968 83.467505 
L 41.636768 83.715734 
L 41.452413 82.835727 
L 40.856805 82.0518 
L 40.424279 81.153411 
L 40.743355 79.935872 
L 40.25056 79.748018 
L 39.871214 80.174462 
L 39.637225 80.909118 
L 39.559229 81.651444 
L 39.357147 82.457841 
L 38.942348 82.643959 
L 38.531095 82.294292 
L 37.697952 82.440922 
L 36.857718 82.623279 
L 34.851084 82.111952 
L 34.864484 81.588727 
L 34.675588 81.129108 
L 34.833441 80.507351 
L 34.748268 79.716365 
L 35.253275 78.93303 
L 35.85522 78.23402 
L 36.548477 77.951787 
L 37.290303 77.711843 
L 38.392828 77.69729 
L 39.569865 77.426953 
L 39.81449 77.119093 
L 39.88185 76.265112 
L 39.612408 76.098094 
L 39.006163 76.377713 
L 38.102115 77.040256 
L 37.538414 76.94265 
L 37.123615 76.736184 
L 36.900261 76.372083 
L 36.903807 75.809114 
L 35.868582 76.255729 
L 35.028348 76.762461 
L 33.475512 78.185451 
L 33.074894 78.455846 
L 32.571463 78.607952 
L 32.103484 78.594807 
L 31.819861 78.358201 
L 31.837588 77.933852 
L 32.103484 77.520817 
L 32.745182 76.754953 
L 31.475968 77.002715 
L 31.071805 76.895725 
L 30.933539 76.265112 
L 31.167528 75.797856 
L 31.699321 75.533292 
L 32.305566 75.358803 
L 32.745182 75.150554 
L 33.27343 74.540885 
L 33.135164 74.383326 
L 31.968763 74.520252 
L 31.582327 74.319554 
L 31.277432 73.824424 
L 30.986718 73.205608 
L 30.635735 72.631894 
L 30.830725 72.585026 
L 30.954811 72.511913 
L 31.231343 72.29071 
L 31.550419 72.496916 
L 32.032579 72.47442 
L 32.879903 72.29071 
L 33.571234 72.451925 
L 34.149117 72.753754 
L 34.719908 72.909365 
L 35.389968 72.631894 
L 35.336789 73.145608 
L 35.389968 73.644393 
L 35.602685 74.03072 
L 36.017484 74.205143 
L 36.474827 74.053225 
L 36.687544 73.620015 
L 36.903807 72.631894 
L 37.637682 71.705899 
L 38.240381 71.777121 
L 38.921077 72.123879 
L 39.88185 72.00579 
L 39.676223 71.629056 
L 39.410327 71.349812 
L 39.073524 71.162412 
L 38.665816 71.06122 
L 38.060587 71.080264 
L 37.784088 70.729229 
L 37.133157 70.629805 
L 36.608506 70.769852 
L 36.086318 70.744849 
L 35.261646 70.606744 
L 33.896635 70.242822 
L 32.000822 69.031386 
L 31.900414 68.500221 
L 32.744572 67.46766 
L 33.318752 66.980731 
L 33.193168 66.66862 
L 30.90986 66.423499 
L 29.846444 67.563308 
L 28.746325 66.856923 
L 29.194805 66.021085 
L 29.771879 65.291247 
L 29.409416 64.775317 
L 28.629484 64.420082 
L 27.914143 64.102199 
L 28.014581 63.262536 
L 27.872008 62.603394 
L 28.296455 61.986765 
L 29.54603 61.671016 
L 29.919712 61.510662 
L 30.012984 61.12843 
L 29.425397 60.994528 
L 29.266383 61.394355 
L 28.37009 61.476238 
L 28.137218 61.01744 
L 28.041321 60.176981 
L 28.254258 59.066588 
L 28.041416 58.663142 
L 27.701524 57.984849 
L 27.315777 57.452051 
L 26.866387 56.809364 
L 26.368884 56.403076 
L 26.358914 55.78429 
L 26.179305 54.85955 
L 25.711327 53.416166 
L 25.083811 49.65203 
L 25.253985 49.033763 
L 25.831867 48.944384 
L 28.232028 49.65948 
L 28.997811 49.521663 
L 29.635963 49.272118 
L 30.203209 49.179009 
L 30.784637 49.50304 
L 31.000899 50.04316 
L 31.085986 50.887034 
L 31.022171 51.753477 
L 30.784637 52.346137 
L 30.76691 53.419895 
L 32.103484 54.354111 
L 33.798133 54.949082 
L 34.851084 55.003176 
L 34.032122 54.296298 
L 31.522057 52.786039 
L 32.252387 51.160918 
L 32.468649 50.188448 
L 32.284294 49.50304 
L 31.873041 48.786115 
L 31.837541 48.394636 
L 31.787954 47.87202 
L 31.98649 46.954446 
L 32.443832 46.223168 
L 32.117666 45.882702 
L 31.688686 45.932933 
L 31.027861 46.307629 
L 30.725413 42.377391 
L 30.955041 41.289484 
L 31.479585 40.972145 
L 32.285535 40.899008 
L 33.408914 40.545141 
L 35.142383 39.401222 
L 38.863714 34.703395 
L 39.62464 34.065266 
L 41.304079 32.991785 
L 42.02223 32.308089 
L 42.90683 30.506419 
L 43.499056 29.300766 
L 44.036475 28.737946 
L 44.291499 28.470902 
L 46.680085 26.854078 
L 49.455887 25.427078 
L 52.37577 24.456126 
L 55.185341 24.207269 
L 56.572117 24.328174 
L 61.943621 23.943173 
L 66.074681 24.970331 
L 67.387165 24.871711 
L 69.946846 24.235441 
L 78.350796 23.632152 
L 78.708746 23.831672 
L 79.264807 24.491343 
L 79.800607 24.935109 
L 80.399442 25.060736 
L 83.278802 24.564126 
L 87.848858 24.782485 
L 90.816017 24.589952 
L 93.805689 23.716653 
L 96.588245 22.24289 
L 98.907042 20.253872 
L 99.915606 19.074625 
L 100.757576 17.816129 
L 101.324894 16.417577 
L 101.513999 14.810086 
L 101.144793 13.260703 
L 101.05024 12.471077 
L 101.324894 11.88629 
L 102.513558 11.120377 
z
" clip-path="url(#pdca2e219fa)" style="stroke: #000000; stroke-linejoin: miter"/>
   </g>
   <g id="line2d_1">
    <path d="M 104.976914 10.08 
L 108.309486 15.446246 
L 108.713649 16.882773 
L 109.748874 19.059952 
L 113.595513 25.285664 
L 116.594828 31.836049 
L 117.084078 32.549419 
L 118.647551 34.143465 
L 119.246705 35.482303 
L 129.325964 47.473692 
L 135.441588 53.125324 
L 135.558583 54.061325 
L 135.569219 55.187846 
L 135.838661 56.143064 
L 137.380862 56.859651 
L 137.827568 57.628653 
L 139.100327 61.095005 
L 139.667574 61.898586 
L 140.348269 62.240631 
L 140.919061 62.736001 
L 142.900878 66.005336 
L 144.092095 67.26301 
L 144.503349 67.955671 
L 144.662887 68.689667 
L 144.964236 69.40134 
L 147.066593 71.347938 
L 147.736653 72.944988 
L 148.332262 76.435892 
L 149.151224 78.358201 
L 151.384756 80.9918 
L 151.55493 81.544314 
L 151.299669 82.078117 
L 150.640245 83.085792 
L 150.622519 83.533321 
L 150.93805 84.979713 
L 151.320941 89.113329 
L 151.725104 91.023627 
L 153.171582 94.928382 
L 153.288577 96.841761 
L 152.83478 98.612632 
L 151.852734 100.22189 
L 151.06568 102.209891 
L 151.289033 104.03633 
L 151.884642 105.943154 
L 152.122176 107.866117 
L 151.852734 111.840152 
L 151.586838 112.694998 
L 150.239627 114.099954 
L 149.714925 114.890832 
L 149.484481 115.812788 
L 149.300126 121.451959 
L 149.449028 122.2178 
L 149.714925 122.643546 
L 150.239627 123.050331 
L 150.491343 124.63988 
L 150.813964 125.857217 
L 151.398937 126.332847 
L 151.235854 127.063533 
L 150.88487 127.474606 
L 150.002093 127.786748 
L 149.276071 128.307713 
L 149.235819 128.948136 
L 150.813809 130.332225 
L 151.509572 131.072115 
L 152.393058 131.204163 
L 153.51193 130.440999 
L 156.280801 127.805781 
L 156.813268 127.030574 
L 157.532288 127.527897 
L 157.691826 128.331154 
L 158.227165 130.098164 
L 157.547278 131.024518 
L 155.976594 133.745092 
L 155.85677 134.964498 
L 155.390423 138.174399 
L 154.261326 140.965354 
L 154.323801 142.712145 
L 153.168266 145.749399 
L 151.945301 147.965269 
L 152.307861 148.804646 
L 153.000509 149.678508 
L 152.448343 153.746431 
L 152.005182 154.52075 
L 151.289033 155.371913 
L 150.629609 155.686354 
L 150.342441 154.856208 
L 150.08718 153.775178 
L 149.523479 152.964604 
L 148.917234 152.826651 
L 148.555615 153.746431 
L 149.151224 153.867169 
L 149.505753 154.263904 
L 149.675926 154.844706 
L 149.714925 155.513792 
L 149.523479 156.146558 
L 149.076772 156.294218 
L 148.576887 156.33449 
L 148.229448 156.641338 
L 148.526703 158.760059 
L 147.751513 159.920241 
L 148.406145 160.632663 
L 148.346443 161.273866 
L 147.450385 161.533838 
L 146.606896 161.983558 
L 145.396093 163.045505 
L 144.371703 163.011634 
L 144.150427 163.688651 
L 144.075229 164.559423 
L 143.523459 165.398367 
L 143.783655 166.307977 
L 142.597471 168.503154 
L 141.822615 169.331984 
L 141.110507 170.632508 
L 138.876974 170.667154 
L 138.403321 170.856601 
L 137.882837 170.91099 
L 137.840993 171.575686 
L 138.188807 172.036664 
L 138.246341 172.589267 
L 138.022807 173.218887 
L 137.047315 173.624535 
L 135.42507 172.272229 
L 134.283104 173.361426 
L 133.763051 174.229293 
L 133.596294 175.153573 
L 133.243065 175.375017 
L 133.034106 174.909622 
L 132.514336 174.407992 
L 132.661385 175.818209 
L 132.328918 175.81761 
L 132.182346 175.498785 
L 131.995285 175.423491 
L 131.124563 175.92721 
L 130.833672 175.60805 
L 130.481367 174.541285 
L 130.627012 173.580721 
L 130.959729 172.361788 
L 131.022318 171.678892 
L 130.814614 171.512773 
L 130.419663 172.029583 
L 129.089881 174.116618 
L 128.487529 174.153709 
L 128.487224 172.288185 
L 128.197071 172.250544 
L 127.819215 173.000711 
L 127.511385 174.135428 
L 126.431698 174.02472 
L 123.563105 174.065904 
L 123.398336 173.196492 
L 123.106613 172.735313 
L 122.710673 174.048859 
L 122.274268 174.234495 
L 121.260026 173.827557 
L 120.785361 173.035378 
L 120.264203 172.981451 
L 119.594143 173.441778 
L 119.594143 171.371696 
L 119.413334 171.200361 
L 119.041078 171.337043 
L 118.725547 171.772147 
L 118.70073 172.503847 
L 118.009399 172.02245 
L 117.470515 171.329343 
L 116.874906 170.900062 
L 115.99922 171.211912 
L 116.190665 170.543969 
L 115.829046 169.595185 
L 115.99922 169.243058 
L 115.563149 168.000284 
L 115.307888 167.869489 
L 114.808002 168.27343 
L 114.265573 169.031412 
L 114.254937 169.537457 
L 114.808002 170.563216 
L 115.297252 172.253514 
L 115.669508 172.823527 
L 116.396292 173.69604 
L 116.502651 174.135258 
L 116.297024 174.765276 
L 116.640917 174.807666 
L 117.488241 175.088994 
L 117.10535 175.316383 
L 116.722459 175.406957 
L 115.375249 175.312529 
L 115.244073 175.062017 
L 115.222801 174.746008 
L 115.077444 174.441585 
L 114.361296 173.832809 
L 112.010769 173.095083 
L 111.351345 173.05849 
L 109.514885 173.476449 
L 109.543247 173.809693 
L 110.046678 174.441585 
L 109.238352 174.586086 
L 107.745785 175.256644 
L 106.03341 175.67291 
L 105.810057 176.272333 
L 105.72497 176.923899 
L 105.260537 177.351909 
L 105.260537 177.673911 
L 109.607062 175.615093 
L 110.344483 175.570767 
L 110.493385 176.403408 
L 110.755736 177.01451 
L 110.844368 177.558219 
L 110.493385 178.188784 
L 109.936774 178.466496 
L 109.085905 178.593787 
L 108.235035 178.559071 
L 107.671334 178.35078 
L 107.377075 178.813663 
L 107.579157 179.037409 
L 107.972684 179.241878 
L 108.309486 179.893934 
L 108.266943 181.236968 
L 107.940776 183.178997 
L 108.341394 183.520785 
L 108.724285 183.406852 
L 109.025635 183.028389 
L 109.160356 182.561152 
L 109.748874 183.178997 
L 109.142629 184.1523 
L 108.04359 185.434951 
L 107.068449 185.697594 
L 105.759475 185.619028 
L 105.781858 184.892704 
L 106.980003 184.824481 
L 107.196265 184.50576 
L 104.491209 184.233419 
L 103.927508 184.032555 
L 103.303537 183.256235 
L 103.214905 182.866201 
L 103.661612 182.615209 
L 104.664929 182.267708 
L 103.675793 180.492069 
L 102.963189 181.121172 
L 102.247041 182.356511 
L 101.236633 182.414427 
L 100.314858 181.306448 
L 99.832699 181.030467 
L 98.843563 180.939764 
L 98.407492 181.17521 
L 98.166413 181.748444 
L 98.099052 183.178997 
L 97.177277 183.039974 
L 95.152916 183.12107 
L 94.355226 182.723327 
L 94.263049 182.466552 
L 94.206324 181.588239 
L 94.004242 181.541916 
L 93.518538 181.621052 
L 92.891021 181.491733 
L 91.866433 181.4126 
L 91.504813 181.236968 
L 91.302732 180.856782 
L 91.433907 180.127389 
L 91.504813 179.809045 
L 91.504813 175.732655 
L 92.047243 174.668937 
L 92.100422 174.089023 
L 91.419726 174.815374 
L 90.85957 175.663274 
L 90.168239 176.299318 
L 89.122379 176.380277 
L 89.920069 178.057649 
L 89.377639 178.385494 
L 88.197058 178.362351 
L 87.069656 178.998831 
L 86.335781 177.396255 
L 85.846531 177.058852 
L 85.7189 178.586072 
L 85.250922 179.793611 
L 84.339783 180.522942 
L 83.176928 180.615566 
L 82.297696 180.356998 
L 81.953803 180.39173 
L 81.687906 180.615566 
L 81.039118 180.137036 
L 80.298153 179.955673 
L 77.94408 179.882358 
L 77.710091 179.641202 
L 77.603732 179.280458 
L 77.348471 178.821378 
L 76.848586 178.466496 
L 76.731591 178.831022 
L 76.901765 179.646989 
L 76.412515 180.820116 
L 76.008352 181.236968 
L 74.359792 182.414427 
L 73.445108 182.779317 
L 72.789229 182.27543 
L 71.966722 180.777661 
L 71.286026 180.53452 
L 70.810957 181.140471 
L 70.576968 182.090109 
L 70.626602 182.883578 
L 71.030765 183.723554 
L 71.70437 184.809027 
L 72.477243 185.755679 
L 73.168575 186.153726 
L 73.657825 186.721881 
L 74.115167 186.919015 
L 74.657597 186.613655 
L 76.008352 185.477456 
L 76.944308 185.365399 
L 78.486509 185.54701 
L 79.305471 185.154819 
L 79.114026 186.756669 
L 78.6815 188.100091 
L 78.181615 190.472964 
L 77.819995 191.022387 
L 76.28843 191.482878 
L 75.075941 190.93726 
L 74.104531 190.751535 
L 73.306841 192.322731 
L 72.987765 192.185324 
L 72.927495 192.272412 
L 72.711233 192.322731 
L 73.306841 193.619625 
L 73.625917 195.745889 
L 73.427381 196.141056 
L 72.977129 195.916348 
L 72.264526 195.2423 
L 71.222211 195.126096 
L 70.445792 194.740711 
L 69.945907 194.037818 
L 69.733189 192.973061 
L 69.999086 191.966643 
L 70.977586 190.03967 
L 70.775504 189.237038 
L 70.424521 188.790342 
L 69.733189 187.450553 
L 69.552379 187.346173 
L 69.052494 187.305581 
L 68.839776 187.100696 
L 68.892956 186.571138 
L 69.020586 186.389481 
L 68.361162 185.145159 
L 68.286711 184.401457 
L 68.5207 183.694586 
L 68.424977 183.428094 
L 68.020814 183.159688 
L 67.031678 185.154819 
L 66.595608 185.606904 
L 66.372255 185.630089 
L 64.886778 186.09962 
L 64.021728 186.196238 
L 62.139179 186.153726 
L 61.430121 186.343102 
L 62.004458 186.766332 
L 64.053635 187.450553 
L 64.053635 187.750178 
L 62.202994 188.279893 
L 61.267037 188.751669 
L 61.107499 189.399485 
L 61.479755 189.67218 
L 62.298717 189.376278 
L 62.734787 189.544533 
L 63.043228 189.997116 
L 62.95105 190.163463 
L 62.596521 190.345292 
L 63.202766 192.237577 
L 64.461343 193.251807 
L 65.822735 194.037818 
L 66.755146 195.2423 
L 65.542657 195.176451 
L 65.21649 195.2423 
L 67.088403 195.891166 
L 67.330199 196.418313 
L 67.453503 197.41062 
L 66.606244 198.113599 
L 65.755374 198.076774 
L 65.21649 198.198878 
L 63.234673 197.086516 
L 62.596521 196.900506 
L 62.03282 196.997385 
L 61.330853 197.288036 
L 60.735244 197.671727 
L 60.483528 198.036074 
L 60.586342 198.187249 
L 61.107499 199.175839 
L 61.718258 199.296538 
L 62.087157 199.517081 
L 63.743059 199.127542 
L 64.649244 199.8234 
L 62.58291 201.534301 
L 61.848976 202.475601 
L 61.050762 202.145258 
L 59.795378 203.005257 
L 59.926918 203.837098 
L 60.483528 204.384464 
L 59.277996 204.389842 
L 57.49866 202.265003 
L 56.885059 201.126591 
L 55.250681 199.530627 
L 54.750795 199.633386 
L 53.024239 200.447793 
L 53.322043 201.126591 
L 51.343772 200.50791 
L 50.939609 199.8234 
L 50.886429 199.123496 
L 51.162962 198.716405 
L 52.442811 197.94886 
L 53.322043 196.900506 
L 53.864473 195.873733 
L 54.176458 195.521203 
L 54.811065 195.2423 
L 54.768521 196.036449 
L 54.555804 196.807505 
L 53.917652 198.198878 
L 55.193956 198.12329 
L 56.261088 197.772501 
L 56.899241 196.978009 
L 56.885059 195.571563 
L 56.629799 195.021516 
L 56.03419 194.339873 
L 55.995192 193.619625 
L 56.229181 193.242128 
L 57.484213 191.993735 
L 57.93801 192.208547 
L 58.235815 192.498852 
L 58.310266 192.870473 
L 58.079822 193.323432 
L 58.342173 193.944882 
L 58.714429 194.378599 
L 59.214315 194.525764 
L 59.88792 194.29921 
L 60.171543 193.968116 
L 61.107499 192.322731 
L 60.501255 191.511902 
L 60.267266 190.66448 
L 59.958826 190.281458 
L 59.132773 190.859874 
L 58.182635 191.221669 
L 57.395581 190.631593 
L 56.321358 189.074597 
L 55.704478 189.944893 
L 54.825246 191.974383 
L 54.215456 192.644012 
L 53.58794 192.872408 
L 53.056147 192.847245 
L 51.964197 192.644012 
L 51.45013 192.806598 
L 50.971516 193.201476 
L 49.833478 194.403772 
L 48.238098 195.2423 
L 46.823527 196.123621 
L 45.962022 196.402585 
L 45.887571 196.79588 
L 45.827301 197.877153 
L 44.933888 199.20298 
L 45.260055 199.8234 
L 42.856348 201.956818 
L 42.934344 203.928321 
L 42.526636 204.256351 
L 41.367326 203.732292 
L 40.984435 204.149593 
L 40.803625 204.617408 
L 40.824897 205.129933 
L 41.069522 205.687182 
L 40.505821 205.526018 
L 39.286241 204.73971 
L 37.229973 204.08748 
L 36.889626 203.173371 
L 37.070435 200.758086 
L 36.903807 199.8234 
L 37.144886 199.228183 
L 37.091707 198.49543 
L 36.804539 197.853897 
L 36.308198 197.518634 
L 35.836674 197.640721 
L 35.361606 198.043826 
L 34.996441 198.559395 
L 34.851084 199.012996 
L 35.028348 199.672164 
L 35.304881 200.246115 
L 35.319062 200.647542 
L 33.975397 201.052887 
L 34.149117 201.634794 
L 35.124071 202.75423 
L 33.45424 203.629429 
L 32.826724 204.151534 
L 33.624414 204.491229 
L 33.617323 204.957143 
L 33.475512 205.061981 
L 33.209615 205.013444 
L 32.592734 204.73971 
L 32.018398 204.817363 
L 31.901403 205.036742 
L 31.894312 205.392044 
L 31.670959 205.863886 
L 31.330611 206.07167 
L 30.040126 206.366857 
L 29.554421 206.737814 
L 29.380702 207.046646 
L 28.232028 210.735022 
L 28.232028 211.287205 
L 27.168441 211.0811 
L 25.161807 211.68 
L 24.658376 211.586659 
L 24.598106 211.02277 
L 25.00936 209.873844 
L 24.927818 209.331569 
L 24.530746 209.022564 
L 23.981226 208.923453 
L 22.843188 208.975923 
L 22.843188 208.678603 
L 23.148083 208.212263 
L 23.23317 207.460402 
L 23.764963 207.376871 
L 24.381844 206.362973 
L 24.498838 205.875538 
L 24.332209 205.38816 
L 23.796871 205.131874 
L 22.680104 204.945494 
L 22.616289 204.687294 
L 22.843188 204.384464 
L 22.860914 203.77305 
L 23.023998 203.185014 
L 22.946001 202.870654 
L 22.247579 203.080224 
L 22.439025 201.929659 
L 23.307621 201.351589 
L 24.46693 201.149866 
L 25.551789 201.126591 
L 25.083811 200.474943 
L 24.332209 200.149158 
L 25.019996 199.714819 
L 25.44543 199.206857 
L 25.459612 198.760989 
L 24.927818 198.49543 
L 24.732827 198.56521 
L 24.062767 199.175839 
L 23.701148 199.171961 
L 23.137447 198.857913 
L 22.843188 198.850159 
L 22.577291 199.067276 
L 22.247579 199.8234 
L 21.488887 199.889325 
L 21.063452 199.8234 
L 19.620519 199.920349 
L 18.978822 200.149158 
L 18.89728 199.392973 
L 18.525025 198.954839 
L 17.4898 198.49543 
L 17.503982 198.344244 
L 17.287719 197.960489 
L 17.025367 197.729866 
L 16.766561 198.21826 
L 16.107137 198.443096 
L 15.830605 198.346182 
L 14.813107 197.518634 
L 14.664204 197.040013 
L 14.738656 196.902444 
L 14.91592 196.838505 
L 15.086094 196.57501 
L 15.259813 196.797817 
L 15.695884 196.80363 
L 16.011415 196.57501 
L 15.830605 196.086815 
L 14.664204 195.571563 
L 13.760156 194.975037 
L 13.685705 193.604137 
L 14.065051 192.08082 
L 14.568482 190.662545 
L 14.596844 189.850118 
L 14.951373 189.695388 
L 15.617887 189.811435 
L 15.873148 189.968103 
L 16.160317 190.534867 
L 17.4898 192.322731 
L 17.075001 192.81434 
L 16.947371 193.290523 
L 17.163634 194.29921 
L 18.064137 196.57501 
L 18.606567 196.867568 
L 20.765648 197.193088 
L 21.690969 197.768625 
L 22.190854 197.727928 
L 22.545383 196.900506 
L 22.056133 196.966384 
L 21.797327 196.85013 
L 20.900775 196.674375 
L 20.478294 196.079909 
L 19.923597 195.58033 
L 20.077862 194.487036 
L 19.502556 194.581686 
L 19.224494 195.254836 
L 18.772064 195.29143 
L 18.498525 194.402861 
L 18.364374 193.215025 
L 18.695636 192.538173 
L 18.444422 191.70665 
L 19.636198 191.600799 
L 21.462061 191.958875 
L 21.699714 192.339114 
L 21.577519 193.333111 
L 21.680333 193.619625 
L 22.134036 193.883433 
L 22.397885 194.204481 
L 22.965848 194.537805 
L 23.747643 194.816276 
L 24.827192 195.621448 
L 25.28834 195.893964 
L 25.477338 195.683905 
L 24.56517 194.599676 
L 25.107318 194.493705 
L 26.950817 195.421092 
L 28.206713 195.781862 
L 29.118351 195.571563 
L 28.20012 195.432107 
L 27.45561 195.007959 
L 26.147398 193.973924 
L 26.466474 193.619625 
L 25.523427 193.000161 
L 24.09822 191.359043 
L 23.307621 191.022387 
L 22.222762 190.826985 
L 20.934333 190.901932 
L 20.045954 190.38398 
L 18.948277 190.650322 
L 17.941124 190.352382 
L 17.808555 189.900984 
L 18.431526 189.200978 
L 19.041932 188.976673 
L 20.340133 189.158401 
L 21.996486 188.494438 
L 23.988316 189.811435 
L 24.658376 189.695388 
L 25.253985 190.049341 
L 25.062539 189.134545 
L 25.147626 188.299227 
L 25.668784 187.688318 
L 26.735916 187.450553 
L 28.731914 187.986028 
L 29.752957 188.053692 
L 29.444517 187.450553 
L 30.479742 187.079435 
L 30.933539 187.100696 
L 30.284751 186.431996 
L 29.295615 186.269669 
L 27.03372 186.451321 
L 27.203894 185.99141 
L 27.03372 184.859252 
L 27.423702 184.31454 
L 27.615148 184.02483 
L 27.629329 183.532371 
L 27.278345 182.831447 
L 26.679191 182.669268 
L 26.030403 182.941502 
L 25.551789 183.532371 
L 25.49861 183.926333 
L 25.849593 185.154819 
L 25.775142 185.218571 
L 25.253985 186.153726 
L 24.764735 187.773376 
L 24.310938 188.326295 
L 23.445887 188.395898 
L 23.445887 188.285693 
L 23.1729 188.100091 
L 23.764963 187.100696 
L 23.1729 186.83011 
L 22.775827 186.988594 
L 22.392936 187.290118 
L 21.818599 187.450553 
L 20.659289 187.2186 
L 20.290579 187.375167 
L 20.217717 187.865696 
L 19.620519 187.856502 
L 18.681018 188.134891 
L 18.223675 187.926097 
L 18.074773 187.421558 
L 18.386759 186.949939 
L 19.599248 185.717035 
L 19.854509 185.050499 
L 19.872235 184.681537 
L 19.75524 183.972684 
L 19.904143 183.623134 
L 20.467844 183.178997 
L 19.925414 182.796694 
L 19.450346 182.003242 
L 19.191539 181.074854 
L 19.276626 180.295253 
L 19.882871 179.79747 
L 20.705378 179.293962 
L 20.960639 178.877314 
L 19.872235 178.645862 
L 19.375894 178.726868 
L 18.52148 179.293962 
L 18.096045 179.488798 
L 18.15986 179.951814 
L 18.372577 180.495928 
L 18.386759 180.939764 
L 17.776969 181.435761 
L 16.989915 181.484013 
L 16.227677 181.262058 
L 15.681703 180.939764 
L 16.277311 180.615566 
L 15.568253 180.075295 
L 15.086094 179.293962 
L 15.58598 179.064414 
L 16.07523 179.087561 
L 17.163634 179.293962 
L 17.032458 178.275567 
L 18.248492 177.197666 
L 17.925871 176.204869 
L 16.68502 174.67279 
L 15.919237 174.048567 
L 15.086094 173.794282 
L 15.429987 174.857764 
L 15.128637 175.466699 
L 14.511757 175.48597 
L 13.894877 174.765276 
L 14.302585 174.260483 
L 13.182273 172.935229 
L 13.026281 172.149533 
L 13.653797 171.500683 
L 14.543665 171.394798 
L 15.334264 171.754819 
L 15.681703 172.503847 
L 16.234768 172.188044 
L 16.543208 171.645077 
L 16.894192 170.563216 
L 17.202632 171.102184 
L 17.259357 171.556515 
L 17.142362 172.430671 
L 16.894192 173.147086 
L 16.979279 173.428295 
L 17.4898 173.441778 
L 17.865601 174.487825 
L 18.808648 174.898228 
L 19.542523 174.921351 
L 19.872235 175.088994 
L 19.620519 175.628583 
L 19.691425 176.148971 
L 20.003411 176.632801 
L 20.467844 177.058852 
L 21.566884 174.840423 
L 21.680333 174.089023 
L 21.659061 173.245314 
L 21.446344 172.942933 
L 20.279943 172.586653 
L 19.992775 172.326686 
L 19.546068 171.263889 
L 18.117317 169.77992 
L 17.787605 169.096829 
L 17.883328 168.865952 
L 18.291036 168.415781 
L 18.386759 167.979126 
L 17.925871 167.690614 
L 17.702518 167.315581 
L 17.787605 166.661763 
L 17.227449 166.857897 
L 16.649567 166.940584 
L 15.408715 166.954044 
L 15.89442 166.421416 
L 16.69211 166.257989 
L 17.596159 166.213768 
L 18.386759 166.042659 
L 17.4898 165.692775 
L 17.702518 165.266035 
L 18.670382 164.193626 
L 18.386759 163.259832 
L 18.535661 162.5241 
L 18.915007 161.798108 
L 19.872235 160.505872 
L 20.765648 161.473569 
L 21.534976 161.680964 
L 21.924958 161.657919 
L 21.818599 161.312269 
L 20.382757 159.868553 
L 20.170039 159.365683 
L 20.489115 158.250772 
L 21.237172 156.87149 
L 22.417565 154.44 
L 23.412972 153.177433 
L 24.834035 152.728928 
L 26.453196 152.435606 
L 27.837796 152.369678 
L 28.476521 151.919211 
L 29.090048 151.139902 
L 29.957501 150.943972 
L 31.532693 152.579498 
L 32.117666 152.751929 
L 31.550419 150.993497 
L 31.146256 150.194997 
L 30.486832 149.86186 
L 24.305806 150.750002 
L 22.152769 149.570049 
L 22.319316 147.798399 
L 23.339528 147.352772 
L 25.054111 145.752125 
L 27.965657 144.308274 
L 29.18392 142.817547 
L 29.369363 141.415705 
L 30.79674 140.593391 
L 32.359368 140.455348 
L 33.888669 140.620769 
L 34.858175 141.275404 
L 35.553051 141.428223 
L 36.017484 142.131269 
L 36.347196 141.218098 
L 36.411011 140.6661 
L 35.428131 140.004055 
L 34.595151 139.642617 
L 32.47574 138.395918 
L 32.592734 137.991284 
L 32.954354 137.556161 
L 33.315974 137.296638 
L 33.713046 137.216494 
L 36.676908 137.31572 
L 37.070435 137.136353 
L 37.644772 136.13091 
L 38.243926 136.041254 
L 38.435372 135.888652 
L 38.208473 135.545321 
L 37.74404 135.192485 
L 37.229973 135.026568 
L 37.091707 135.121921 
L 33.89031 136.251092 
L 32.816088 136.296876 
L 28.624407 136.032684 
L 28.472818 134.115654 
L 28.070562 133.809842 
L 26.770771 133.421063 
L 24.853755 133.683095 
L 24.665603 132.270284 
L 32.933082 131.55543 
L 33.63505 131.187727 
L 34.383106 131.378242 
L 35.29779 130.970551 
L 36.903807 129.909618 
L 38.942348 129.20313 
L 39.803854 128.666213 
L 39.88185 127.990415 
L 36.432283 128.915622 
L 35.553051 129.443054 
L 34.815631 130.060073 
L 34.000214 130.401 
L 33.028805 130.543856 
L 32.117666 130.894352 
L 31.454696 130.612429 
L 31.231343 130.286719 
L 31.160437 129.858198 
L 30.933539 129.269774 
L 30.571919 128.761405 
L 29.444517 127.352802 
L 30.050762 126.926518 
L 29.767139 126.633477 
L 28.626125 126.258301 
L 27.629329 124.771105 
L 26.863516 124.482546 
L 26.284313 124.773024 
L 26.010213 124.770917 
L 25.987828 124.256167 
L 25.003468 123.709825 
L 24.152885 123.826145 
L 23.743691 125.008843 
L 23.445887 124.771105 
L 23.619376 123.405903 
L 25.098638 122.755531 
L 26.404895 122.398242 
L 28.232028 122.854537 
L 27.221621 121.56787 
L 26.445202 121.201147 
L 26.097764 121.377854 
L 25.849593 121.260049 
L 25.253985 120.621685 
L 26.16867 118.445233 
L 26.693372 117.486556 
L 27.331525 117.120236 
L 26.849365 116.609726 
L 24.998724 116.120158 
L 24.332209 115.814686 
L 24.988088 115.291077 
L 26.927362 114.885141 
L 27.331525 114.399595 
L 27.051447 113.781374 
L 26.36366 113.625887 
L 24.927818 113.618303 
L 24.630014 113.44007 
L 23.764963 112.632441 
L 23.764963 112.31778 
L 24.332209 112.31778 
L 23.679417 111.273781 
L 24.468629 110.897456 
L 25.367857 110.663066 
L 26.206082 109.610495 
L 28.00017 109.180278 
L 28.848909 108.790104 
L 26.306936 108.790104 
L 25.693601 109.091207 
L 24.754099 110.295867 
L 24.062767 110.409535 
L 23.630242 109.95678 
L 23.23317 109.096889 
L 22.981454 108.214478 
L 23.009816 107.693842 
L 24.3393 106.215638 
L 24.201034 105.962076 
L 23.365775 106.22145 
L 22.646584 105.721791 
L 22.439969 105.685319 
L 22.237659 105.258083 
L 22.428212 104.868543 
L 22.391569 104.442381 
L 22.1722 103.643555 
L 21.887939 103.110325 
L 22.489108 103.077995 
L 23.360251 102.730888 
L 24.268957 102.756563 
L 24.336745 102.190597 
L 24.598106 101.690109 
L 24.24275 101.286857 
L 23.726289 101.194553 
L 23.026791 100.60165 
L 23.469289 100.057819 
L 24.082426 99.635487 
L 23.667704 98.992129 
L 22.623229 98.824502 
L 22.412015 98.049421 
L 22.745821 97.478675 
L 23.764963 97.340085 
L 22.977909 96.483161 
L 22.843188 96.075533 
L 21.031545 97.498657 
L 21.056362 97.825262 
L 21.364257 98.228787 
L 21.418463 99.015873 
L 21.097527 99.920901 
L 21.288945 101.136721 
L 20.826403 102.17504 
L 20.432073 102.599896 
L 19.62567 102.060335 
L 18.783273 102.028192 
L 17.945039 101.555439 
L 18.154974 99.047626 
L 18.413747 98.142471 
L 17.913351 97.938778 
L 18.064137 96.762489 
L 17.596159 96.283116 
L 16.894192 96.388799 
L 16.500665 96.992761 
L 16.394306 97.73464 
L 16.078775 98.278403 
L 15.086094 98.291621 
L 15.493802 99.005436 
L 16.287947 100.091536 
L 16.575116 100.856723 
L 16.096502 101.204416 
L 16.160317 101.588051 
L 16.894192 102.440508 
L 16.227677 102.553932 
L 15.663976 102.829945 
L 15.192453 103.226987 
L 14.813107 103.709167 
L 14.770563 103.022789 
L 14.522393 102.440508 
L 15.121547 101.306463 
L 13.841697 99.507835 
L 14.224589 98.606967 
L 13.894877 97.340085 
L 13.090096 97.725201 
L 11.937877 98.971442 
L 10.140415 99.477614 
L 9.693708 99.504058 
L 9.16546 99.241517 
L 8.85702 98.593748 
L 8.789659 98.167001 
L 9.002377 97.974415 
L 10.799839 97.989519 
L 11.257181 97.723313 
L 11.246545 97.022962 
L 10.778567 96.294439 
L 8.842839 95.441536 
L 8.619486 95.996278 
L 8.491855 97.151318 
L 8.24723 97.687442 
L 7.736708 98.083923 
L 7.566535 97.710097 
L 7.619714 96.547329 
L 7.534627 95.418895 
L 7.655167 95.105714 
L 8.771933 93.894747 
L 8.991741 93.472325 
L 9.16546 92.880263 
L 9.491627 93.732562 
L 10.026966 94.490749 
L 10.257409 94.305902 
L 10.87429 94.422845 
L 11.246545 94.490749 
L 10.32477 93.227192 
L 11.565621 93.543983 
L 12.076143 93.43084 
L 12.405855 92.880263 
L 11.292634 92.812389 
L 10.608393 92.548449 
L 10.526851 91.971617 
L 11.246545 90.984055 
L 10.260955 90.288777 
L 10.32477 89.644494 
L 11.076371 89.12463 
L 12.139958 88.798811 
L 11.863426 89.928944 
L 11.969784 90.241677 
L 12.568938 90.350951 
L 13.650252 90.333995 
L 13.940965 90.162549 
L 14.224589 89.746215 
L 14.302585 88.704649 
L 14.192681 87.305698 
L 14.394762 86.165099 
L 15.408715 85.899764 
L 15.27754 86.53773 
L 15.309447 87.53725 
L 15.500893 88.55023 
L 16.043322 89.76882 
L 15.777425 90.198345 
L 15.351991 90.582699 
L 15.086094 90.984055 
L 15.100275 91.409955 
L 15.408715 92.276987 
L 15.171181 92.495663 
L 14.224589 93.053723 
L 14.408944 93.875888 
L 14.639387 94.122952 
L 14.951373 94.000361 
L 15.685248 93.423297 
L 16.234768 93.410098 
L 17.4898 94.145584 
L 16.589297 92.482467 
L 16.270221 91.447648 
L 16.734654 90.984055 
L 17.436621 91.749204 
L 17.865601 91.986697 
L 18.064137 91.485341 
L 18.248492 91.328917 
L 19.574431 90.984055 
L 19.574431 90.695753 
L 19.226992 90.650531 
L 18.386759 90.350951 
L 18.386759 90.0627 
L 19.436164 89.853591 
L 20.053045 89.000325 
L 20.212583 87.960859 
L 19.872235 87.192751 
L 19.492889 87.085455 
L 18.351306 87.068514 
L 17.787605 86.874637 
L 17.365715 86.437981 
L 17.227449 86.008907 
L 17.436621 85.858366 
L 18.064137 86.244139 
L 18.351306 85.5272 
L 18.042866 85.101997 
L 17.372806 84.928919 
L 16.575116 84.979713 
L 16.897737 84.624174 
L 17.330262 84.368358 
L 17.798241 84.300645 
L 19.003639 84.838622 
L 19.170268 84.695655 
L 18.978822 84.347668 
L 18.978822 84.003476 
L 20.584838 83.980907 
L 21.354166 84.210363 
L 21.680333 84.821691 
L 21.460525 85.199826 
L 21.042181 85.60058 
L 20.78692 86.12558 
L 21.063452 86.874637 
L 21.446344 86.549022 
L 21.939139 86.321298 
L 22.364574 86.328826 
L 22.797099 87.333935 
L 22.765191 87.770699 
L 22.371664 88.169858 
L 22.247579 88.456074 
L 22.247579 90.52429 
L 22.392936 91.123503 
L 22.712012 91.543766 
L 23.031088 91.702084 
L 23.1729 91.485341 
L 23.350164 90.33211 
L 24.147854 88.120902 
L 24.332209 87.032749 
L 24.566199 86.776761 
L 25.094447 87.08169 
L 25.849593 87.793292 
L 26.711099 89.062477 
L 27.331525 89.085078 
L 27.331525 88.798811 
L 27.019539 88.446659 
L 26.640193 87.503363 
L 26.306936 87.032749 
L 23.445887 84.505668 
L 23.594789 84.007237 
L 23.967045 84.06366 
L 24.413751 84.421024 
L 25.477338 85.436887 
L 25.924045 85.609988 
L 26.466474 85.61187 
L 26.874182 85.408664 
L 26.91318 85.090709 
L 26.615376 84.793474 
L 25.998496 84.663676 
L 25.168898 84.325097 
L 24.266453 83.608289 
L 23.859835 82.541295 
L 23.764963 81.826242 
L 24.562653 81.807446 
L 25.25753 82.091275 
L 26.75342 83.083907 
L 29.225855 84.547792 
L 29.661524 85.178924 
L 29.456216 85.804198 
L 29.033264 86.227201 
L 29.118351 86.558433 
L 29.550876 87.262401 
L 29.604055 87.695391 
L 29.444517 88.456074 
L 29.923131 88.173624 
L 30.231572 87.446886 
L 30.065805 86.311887 
L 30.51962 85.542336 
L 30.922619 84.898214 
L 31.64149 84.612531 
L 33.070575 84.689364 
L 35.71968 85.61187 
L 36.63791 86.413515 
L 36.701725 87.401705 
L 36.017484 89.401504 
L 36.538642 89.107679 
L 37.357604 88.2094 
L 37.80431 88.139731 
L 38.116296 88.5201 
L 38.297106 89.201851 
L 38.34674 90.806925 
L 38.102115 91.801978 
L 38.187202 92.182734 
L 38.573638 92.736976 
L 38.942348 94.179533 
L 38.818263 94.592607 
L 38.102115 94.779354 
L 38.403464 95.435876 
L 39.016799 95.758521 
L 39.27206 94.717104 
L 39.70104 94.098433 
L 39.920848 93.438383 
L 39.559229 92.276987 
L 40.442006 92.495663 
L 41.367326 92.593694 
L 39.871214 91.180038 
L 39.424508 90.401821 
L 40.314375 90.0627 
L 41.115611 89.949666 
L 43.008796 89.299793 
L 44.402094 88.395816 
L 45.057973 88.1322 
L 45.529497 87.68033 
L 45.827301 86.558433 
L 45.742214 86.358937 
L 45.260055 85.899764 
L 45.494044 85.713477 
L 45.951386 85.696542 
L 46.557631 85.410546 
L 46.944067 85.361628 
L 47.231236 85.199826 
L 47.344685 84.663676 
L 44.738897 85.284489 
L 44.34537 85.756755 
L 44.483636 87.187104 
L 44.168105 87.510893 
L 43.154152 87.793292 
L 41.71122 87.621967 
L 39.998845 86.772997 
L 38.453098 85.482043 
L 37.865345 84.246781 
L 40.473913 84.003476 
L 40.473913 83.715734 
L 39.88185 83.375363 
L 40.835533 83.343397 
L 41.260968 83.467505 
L 41.636768 83.715734 
L 41.452413 82.835727 
L 40.856805 82.0518 
L 40.424279 81.153411 
L 40.743355 79.935872 
L 40.25056 79.748018 
L 39.871214 80.174462 
L 39.637225 80.909118 
L 39.559229 81.651444 
L 39.357147 82.457841 
L 38.942348 82.643959 
L 38.531095 82.294292 
L 36.857718 82.623279 
L 34.851084 82.111952 
L 34.864484 81.588727 
L 34.675588 81.129108 
L 34.833441 80.507351 
L 34.748268 79.716365 
L 35.253275 78.93303 
L 35.85522 78.23402 
L 37.290303 77.711843 
L 38.392828 77.69729 
L 39.569865 77.426953 
L 39.81449 77.119093 
L 39.88185 76.265112 
L 39.612408 76.098094 
L 39.006163 76.377713 
L 38.102115 77.040256 
L 37.538414 76.94265 
L 37.123615 76.736184 
L 36.900261 76.372083 
L 36.903807 75.809114 
L 35.868582 76.255729 
L 35.028348 76.762461 
L 33.074894 78.455846 
L 32.571463 78.607952 
L 32.103484 78.594807 
L 31.819861 78.358201 
L 31.837588 77.933852 
L 32.103484 77.520817 
L 32.745182 76.754953 
L 31.475968 77.002715 
L 31.071805 76.895725 
L 30.933539 76.265112 
L 31.167528 75.797856 
L 31.699321 75.533292 
L 32.745182 75.150554 
L 33.27343 74.540885 
L 33.135164 74.383326 
L 31.968763 74.520252 
L 31.582327 74.319554 
L 30.635735 72.631894 
L 30.954811 72.511913 
L 31.231343 72.29071 
L 31.550419 72.496916 
L 32.032579 72.47442 
L 32.879903 72.29071 
L 33.571234 72.451925 
L 34.149117 72.753754 
L 34.719908 72.909365 
L 35.389968 72.631894 
L 35.389968 73.644393 
L 35.602685 74.03072 
L 36.017484 74.205143 
L 36.474827 74.053225 
L 36.687544 73.620015 
L 36.903807 72.631894 
L 37.637682 71.705899 
L 38.240381 71.777121 
L 38.921077 72.123879 
L 39.88185 72.00579 
L 39.410327 71.349812 
L 38.665816 71.06122 
L 38.060587 71.080264 
L 37.784088 70.729229 
L 37.133157 70.629805 
L 36.608506 70.769852 
L 35.261646 70.606744 
L 33.896635 70.242822 
L 32.000822 69.031386 
L 31.900414 68.500221 
L 32.744572 67.46766 
L 33.318752 66.980731 
L 33.193168 66.66862 
L 30.90986 66.423499 
L 29.846444 67.563308 
L 28.746325 66.856923 
L 29.194805 66.021085 
L 29.771879 65.291247 
L 29.409416 64.775317 
L 27.914143 64.102199 
L 28.014581 63.262536 
L 27.872008 62.603394 
L 28.296455 61.986765 
L 29.919712 61.510662 
L 30.012984 61.12843 
L 29.425397 60.994528 
L 29.266383 61.394355 
L 28.37009 61.476238 
L 28.137218 61.01744 
L 28.041321 60.176981 
L 28.254258 59.066588 
L 27.315777 57.452051 
L 26.866387 56.809364 
L 26.368884 56.403076 
L 26.358914 55.78429 
L 26.179305 54.85955 
L 25.711327 53.416166 
L 25.083811 49.65203 
L 25.253985 49.033763 
L 25.831867 48.944384 
L 28.232028 49.65948 
L 28.997811 49.521663 
L 29.635963 49.272118 
L 30.203209 49.179009 
L 30.784637 49.50304 
L 31.000899 50.04316 
L 31.085986 50.887034 
L 31.022171 51.753477 
L 30.784637 52.346137 
L 30.76691 53.419895 
L 32.103484 54.354111 
L 33.798133 54.949082 
L 34.851084 55.003176 
L 34.032122 54.296298 
L 31.522057 52.786039 
L 32.252387 51.160918 
L 32.468649 50.188448 
L 32.284294 49.50304 
L 31.873041 48.786115 
L 31.787954 47.87202 
L 31.98649 46.954446 
L 32.443832 46.223168 
L 32.117666 45.882702 
L 31.688686 45.932933 
L 31.027861 46.307629 
L 30.725413 42.377391 
L 30.955041 41.289484 
L 31.479585 40.972145 
L 32.285535 40.899008 
L 33.408914 40.545141 
L 35.142383 39.401222 
L 38.863714 34.703395 
L 39.62464 34.065266 
L 41.304079 32.991785 
L 42.02223 32.308089 
L 43.499056 29.300766 
L 44.291499 28.470902 
L 46.680085 26.854078 
L 49.455887 25.427078 
L 52.37577 24.456126 
L 55.185341 24.207269 
L 56.572117 24.328174 
L 61.943621 23.943173 
L 66.074681 24.970331 
L 67.387165 24.871711 
L 69.946846 24.235441 
L 78.350796 23.632152 
L 78.708746 23.831672 
L 79.264807 24.491343 
L 79.800607 24.935109 
L 80.399442 25.060736 
L 83.278802 24.564126 
L 87.848858 24.782485 
L 90.816017 24.589952 
L 93.805689 23.716653 
L 96.588245 22.24289 
L 98.907042 20.253872 
L 99.915606 19.074625 
L 100.757576 17.816129 
L 101.324894 16.417577 
L 101.513999 14.810086 
L 101.05024 12.471077 
L 101.324894 11.88629 
L 102.513558 11.120377 
L 104.976914 10.08 
L 104.976914 10.08 
" clip-path="url(#pdca2e219fa)" style="fill: none; stroke: #000000; stroke-width: 0.5; stroke-linecap: square"/>
   </g>
  </g>
 </g>
 <defs>
  <clipPath id="pdca2e219fa">
   <rect x="0" y="-0" width="165.761792" height="221.76"/>
  </clipPath>
 </defs>
</svg>
