<?xml version="1.0" encoding="utf-8" standalone="no"?>
<!DOCTYPE svg PUBLIC "-//W3C//DTD SVG 1.1//EN"
  "http://www.w3.org/Graphics/SVG/1.1/DTD/svg11.dtd">
<svg xmlns:xlink="http://www.w3.org/1999/xlink" width="223.2pt" height="200.735446pt" viewBox="0 0 223.2 200.735446" xmlns="http://www.w3.org/2000/svg" version="1.1">
 <metadata>
  <rdf:RDF xmlns:dc="http://purl.org/dc/elements/1.1/" xmlns:cc="http://creativecommons.org/ns#" xmlns:rdf="http://www.w3.org/1999/02/22-rdf-syntax-ns#">
   <cc:Work>
    <dc:type rdf:resource="http://purl.org/dc/dcmitype/StillImage"/>
    <dc:date>2026-04-26T19:21:52.644068</dc:date>
    <dc:format>image/svg+xml</dc:format>
    <dc:creator>
     <cc:Agent>
      <dc:title>Matplotlib v3.10.9, https://matplotlib.org/</dc:title>
     </cc:Agent>
    </dc:creator>
   </cc:Work>
  </rdf:RDF>
 </metadata>
 <defs>
  <style type="text/css">*{stroke-linejoin: round; stroke-linecap: butt}</style>
 </defs>
 <g id="figure_1">
  <g id="patch_1">
   <path d="M 0 200.735446 
L 223.2 200.735446 
L 223.2 0 
L 0 0 
z
" style="fill: #ffffff"/>
  </g>
  <g id="axes_1">
   <g id="patch_2">
    <path d="M 53.529981 48.562994 
L 53.591273 48.805799 
L 53.67172 48.910288 
L 53.888799 49.091593 
L 54.121202 49.495626 
L 54.760947 50.051605 
L 55.091673 50.463108 
L 55.228305 50.567505 
L 55.345783 50.602814 
L 55.60117 50.621236 
L 55.727587 50.66115 
L 56.671242 51.290447 
L 58.267412 52.732426 
L 58.398936 52.924094 
L 58.785848 53.839231 
L 59.120405 54.416898 
L 59.254483 54.737066 
L 59.235329 54.954565 
L 59.126789 55.202666 
L 59.242991 55.403266 
L 59.472839 55.556382 
L 59.710349 55.657431 
L 59.733334 56.044735 
L 59.757596 56.141165 
L 59.835489 56.228408 
L 60.058952 56.353907 
L 60.139399 56.4442 
L 60.166215 56.583457 
L 60.120245 56.673738 
L 60.065337 56.756365 
L 60.066614 56.868059 
L 60.117691 56.972095 
L 60.246662 57.163324 
L 60.297739 57.279582 
L 60.379463 57.73995 
L 60.458633 57.903575 
L 60.662943 58.048836 
L 61.024316 58.226193 
L 61.09327 58.362257 
L 61.134132 58.652696 
L 61.320565 58.625183 
L 61.312903 58.748989 
L 61.245226 58.932391 
L 61.254164 59.083683 
L 61.37675 59.144808 
L 61.48912 59.09438 
L 61.59766 59.0195 
L 61.71003 59.014915 
L 61.870924 59.169257 
L 61.504443 59.419844 
L 61.423997 59.653591 
L 61.401012 60.066014 
L 61.955202 60.602022 
L 62.054803 60.992857 
L 61.978187 61.137872 
L 61.707476 61.31798 
L 61.641076 61.423289 
L 61.679384 61.58353 
L 61.807077 61.633888 
L 61.951371 61.658304 
L 62.047141 61.746808 
L 62.054803 61.910071 
L 61.94754 62.228927 
L 61.948817 62.381469 
L 62.049695 62.532473 
L 62.365098 62.703291 
L 62.492792 62.817669 
L 62.614101 63.079947 
L 62.874595 64.058579 
L 62.743071 64.342008 
L 62.735409 64.477611 
L 62.902688 64.415143 
L 63.025274 64.346579 
L 63.096782 64.354197 
L 63.234691 64.526365 
L 63.237245 64.581211 
L 63.570525 65.458522 
L 63.677788 66.734116 
L 63.649695 67.79286 
L 63.691834 68.06961 
L 64.155362 68.952793 
L 64.111946 69.180737 
L 63.578187 69.990458 
L 63.349615 70.558407 
L 63.066136 71.082152 
L 62.352329 72.047254 
L 61.987125 72.77831 
L 61.816016 73.013335 
L 61.450812 73.302903 
L 61.397181 73.481774 
L 61.237564 74.266768 
L 61.200533 74.69094 
L 61.237564 75.065034 
L 61.31418 75.243722 
L 61.514659 75.549568 
L 61.572121 75.761509 
L 61.55169 76.099046 
L 61.282257 77.091595 
L 61.286088 77.531702 
L 61.353765 78.072984 
L 61.478905 78.602003 
L 61.650014 79.005459 
L 61.72663 79.11575 
L 61.796862 79.191288 
L 61.983294 79.328758 
L 62.104603 79.488874 
L 62.23102 79.952521 
L 62.29359 80.098988 
L 62.328067 80.05822 
L 62.592393 79.854365 
L 63.3892 79.460175 
L 63.965098 79.032654 
L 64.284332 78.852852 
L 64.973878 78.757655 
L 65.498698 78.991861 
L 65.995426 79.321205 
L 67.62735 79.712407 
L 68.01043 79.700325 
L 69.086887 79.371054 
L 69.263104 79.368033 
L 69.609154 79.41486 
L 69.782817 79.407307 
L 70.819689 79.108196 
L 71.385371 79.088555 
L 71.667574 79.142944 
L 72.275395 79.436007 
L 73.328867 79.464706 
L 74.063105 79.67465 
L 74.324877 79.679181 
L 74.604526 79.564395 
L 75.304287 79.056828 
L 75.532858 78.822631 
L 75.66949 78.564222 
L 75.720568 78.296704 
L 75.707798 78.014026 
L 75.596705 77.35779 
L 75.612028 77.129409 
L 75.758876 76.975121 
L 76.088325 76.849563 
L 76.477791 76.775434 
L 77.676833 76.766357 
L 78.457041 76.566645 
L 79.18234 76.088452 
L 79.805485 75.419363 
L 80.275397 74.647013 
L 80.672524 73.484805 
L 80.908757 72.958751 
L 81.406762 72.411304 
L 81.537009 72.12007 
L 81.648103 72.032083 
L 82.215062 71.92437 
L 82.407879 71.85458 
L 82.705405 71.686162 
L 83.350258 71.0184 
L 83.767816 70.351901 
L 84.039803 70.110441 
L 84.431822 70.032985 
L 84.992397 70.163596 
L 85.204368 70.070954 
L 85.435494 69.685148 
L 85.638527 69.176178 
L 85.777713 68.980148 
L 86.02033 68.794734 
L 86.140252 68.661753 
L 86.169732 68.629061 
L 86.685614 67.777652 
L 86.695829 67.607321 
L 86.64986 67.459789 
L 86.643475 67.328977 
L 86.774999 67.210325 
L 87.126157 67.068845 
L 87.247465 66.974518 
L 87.357282 66.788894 
L 87.417298 66.542379 
L 87.454329 66.195373 
L 87.449221 65.866568 
L 87.385375 65.680828 
L 87.227035 65.415885 
L 87.358559 65.169179 
L 87.606284 64.936148 
L 87.793994 64.713749 
L 87.926795 64.465422 
L 87.910195 64.374005 
L 87.833579 64.162203 
L 87.746747 64.015908 
L 87.673962 63.986953 
L 87.626715 63.939708 
L 87.617777 63.735476 
L 87.691839 63.415364 
L 87.856564 63.113492 
L 88.4082 62.410451 
L 88.479708 62.265538 
L 88.511632 62.112986 
L 88.538447 61.902443 
L 88.519293 61.74223 
L 88.472047 61.61405 
L 88.48737 61.496544 
L 88.654649 61.356136 
L 88.765742 61.212665 
L 88.70828 61.056971 
L 88.590802 60.899736 
L 88.519293 60.754702 
L 88.526955 60.629506 
L 88.561432 60.508881 
L 88.658479 60.281352 
L 88.904928 59.366368 
L 88.987929 59.221211 
L 89.302055 59.083683 
L 89.436133 58.909467 
L 89.634058 58.334739 
L 89.736213 58.152806 
L 89.842199 58.025901 
L 89.971169 57.934157 
L 90.142279 57.851583 
L 90.282741 57.753713 
L 90.333819 57.639015 
L 90.361911 57.512075 
L 90.429589 57.380536 
L 90.910994 56.846638 
L 91.203412 56.678329 
L 91.498384 56.724233 
L 91.580108 56.845108 
L 91.633739 56.995044 
L 91.710355 57.071537 
L 91.861034 56.978215 
L 91.978512 56.871119 
L 92.906844 56.390637 
L 93.494234 56.200858 
L 94.107164 56.15341 
L 94.782663 56.292689 
L 95.345791 56.528367 
L 95.537331 56.577336 
L 95.756964 56.558973 
L 96.161753 56.395228 
L 96.32137 56.36309 
L 96.498864 56.422775 
L 96.60868 56.54214 
L 96.797667 56.857349 
L 96.959838 57.04553 
L 97.083701 57.144967 
L 97.445073 57.327001 
L 97.756646 57.535016 
L 99.061674 58.649639 
L 99.15489 58.79637 
L 99.309399 58.970597 
L 100.000221 59.201346 
L 100.116423 59.314418 
L 100.242839 59.623038 
L 100.32584 59.754414 
L 100.440764 59.830792 
L 100.691044 59.919385 
L 100.80086 59.994228 
L 101.269495 60.66615 
L 101.828793 61.105817 
L 102.015226 61.395818 
L 102.250182 61.554535 
L 102.88865 61.382082 
L 103.031667 61.411079 
L 103.158083 61.496544 
L 103.287054 61.612524 
L 103.298546 61.733075 
L 103.232145 61.859721 
L 103.250023 61.929906 
L 103.514348 61.887185 
L 104.797669 61.510278 
L 105.446352 61.5057 
L 105.99288 61.845988 
L 106.845873 62.945763 
L 107.366863 63.363531 
L 107.988731 63.476342 
L 108.328396 63.381825 
L 108.576121 63.267484 
L 108.82257 63.233942 
L 109.367704 63.45257 
L 110.305092 63.828451 
L 110.958883 64.311534 
L 111.395595 64.418191 
L 112.297111 64.308486 
L 112.7019 64.407525 
L 113.046673 64.505035 
L 113.420815 64.457804 
L 114.157607 64.246013 
L 114.402778 64.134774 
L 115.138293 63.526648 
L 115.698868 63.233942 
L 116.173888 63.157709 
L 116.650185 63.24309 
L 117.21459 63.433658 
L 117.731749 63.532745 
L 120.309882 63.241565 
L 121.19863 62.764293 
L 122.79033 61.411079 
L 123.057209 60.521097 
L 123.60062 59.103022 
L 123.732708 58.75816 
L 124.127281 56.834398 
L 125.207569 54.188611 
L 125.479556 53.201595 
L 125.853698 52.48246 
L 125.876683 51.930271 
L 126.236779 51.02494 
L 126.367026 50.547547 
L 126.373411 49.948715 
L 126.245718 48.862654 
L 126.263595 48.498446 
L 126.333826 48.427747 
L 126.428319 48.409304 
L 126.835662 48.255601 
L 127.470299 48.281731 
L 127.656731 48.174133 
L 128.057689 47.849766 
L 129.93969 47.199727 
L 131.334306 46.717887 
L 131.914035 46.627123 
L 132.146437 46.651737 
L 132.381393 46.711734 
L 132.604857 46.73327 
L 132.881323 46.781715 
L 132.885783 46.782496 
L 133.690252 45.868536 
L 133.780915 45.697697 
L 134.142287 44.638461 
L 134.452583 44.188725 
L 134.788417 43.883706 
L 135.592886 43.305888 
L 136.341809 42.441147 
L 136.450987 42.219119 
L 136.711482 42.060292 
L 137.801985 41.668565 
L 138.061203 41.506608 
L 138.257851 41.309156 
L 138.388098 41.048426 
L 138.625608 39.738079 
L 138.64987 39.072537 
L 139.518186 35.099299 
L 139.565433 34.695344 
L 139.480517 34.390389 
L 139.832313 33.675806 
L 139.80687 33.555182 
L 139.776127 33.409417 
L 139.839336 33.129051 
L 140.078761 32.653422 
L 140.296479 32.036641 
L 140.415872 31.926593 
L 140.544843 31.987043 
L 140.613797 32.169932 
L 140.709567 32.334208 
L 140.921539 32.345056 
L 141.110525 32.19008 
L 141.102863 31.974643 
L 141.02497 31.712678 
L 141.005178 31.41502 
L 141.090094 31.458431 
L 141.174372 31.517345 
L 141.21268 31.37936 
L 141.284188 31.289432 
L 141.511483 31.106463 
L 141.428482 31.106463 
L 141.526806 30.925028 
L 141.645561 30.813368 
L 141.782193 30.796308 
L 141.934149 30.901766 
L 141.989057 30.723415 
L 141.921379 30.627253 
L 141.819224 30.527985 
L 141.765593 30.343396 
L 141.819224 30.223947 
L 141.945641 30.199125 
L 142.087381 30.261179 
L 142.186982 30.39924 
L 142.240613 30.296858 
L 142.332552 30.172752 
L 142.363199 30.08277 
L 142.452584 30.202228 
L 142.550908 30.258076 
L 142.662002 30.254973 
L 142.785865 30.194471 
L 142.610924 29.905898 
L 142.746918 29.729011 
L 143.206615 29.569178 
L 143.680996 29.302244 
L 143.896799 29.123752 
L 144.099831 28.903331 
L 144.390973 28.383229 
L 144.569105 28.218631 
L 144.707653 28.684438 
L 144.832792 28.602153 
L 144.95027 28.426705 
L 144.986025 28.339751 
L 145.135426 28.257452 
L 145.316751 28.186021 
L 145.415075 28.215525 
L 145.324413 28.432916 
L 145.498076 28.536944 
L 145.619385 28.445337 
L 145.720263 28.272981 
L 145.837741 28.125457 
L 145.998635 28.052467 
L 146.511963 28.032278 
L 146.778842 27.942202 
L 147.026568 27.757377 
L 147.20917 27.487099 
L 147.279401 27.149978 
L 147.259609 27.05054 
L 147.224493 26.930897 
L 147.2047 26.831448 
L 147.236624 26.791046 
L 147.282593 26.766182 
L 147.325371 26.700914 
L 147.352186 26.615441 
L 147.362402 26.529965 
L 147.416033 26.299937 
L 147.648435 26.010812 
L 147.756975 25.591041 
L 147.894884 25.595706 
L 148.071101 25.692105 
L 148.240295 25.754296 
L 148.38395 25.692105 
L 148.874294 25.241167 
L 149.211405 25.665674 
L 149.377406 25.754296 
L 149.556177 25.65168 
L 149.627686 25.511742 
L 149.810287 24.933229 
L 149.829441 24.925452 
L 149.922658 24.841461 
L 149.938619 24.82124 
L 149.99672 24.794797 
L 149.973097 24.734133 
L 149.919465 24.668801 
L 149.894565 24.625244 
L 149.870303 24.55213 
L 149.815395 24.447899 
L 149.779641 24.331216 
L 149.810287 24.212971 
L 149.943089 24.240977 
L 150.208691 24.261204 
L 150.404062 24.180297 
L 150.323616 23.904879 
L 150.793528 23.767935 
L 151.30941 23.525147 
L 151.735906 23.187376 
L 151.933831 22.765475 
L 151.832953 22.12701 
L 151.827846 21.782781 
L 151.972139 21.633234 
L 152.209649 21.589614 
L 152.468867 21.480561 
L 152.702547 21.345014 
L 152.869825 21.221924 
L 153.062642 20.992865 
L 153.214598 20.69053 
L 153.266952 20.355417 
L 153.160966 20.032722 
L 153.182674 19.869018 
L 153.412523 19.7474 
L 153.697279 19.653844 
L 153.881158 19.564961 
L 153.930959 19.472956 
L 153.998636 19.242145 
L 154.050991 19.153245 
L 154.151868 19.093977 
L 154.275731 19.061222 
L 154.402148 19.00663 
L 154.514518 18.889643 
L 154.607735 18.693089 
L 154.610288 18.572964 
L 154.573257 18.455952 
L 154.548995 18.271841 
L 154.573257 18.07679 
L 154.63455 17.933221 
L 155.024016 17.374459 
L 155.13894 17.288602 
L 155.273018 17.246453 
L 155.573736 17.212109 
L 155.695684 17.13249 
L 156.143888 16.531353 
L 156.329044 16.350198 
L 156.782994 16.059693 
L 157.256099 15.914426 
L 158.275732 15.833197 
L 159.055301 16.062817 
L 159.253226 15.99409 
L 159.516913 15.733218 
L 159.735908 15.687914 
L 159.978526 15.728532 
L 160.307975 15.730094 
L 160.742133 15.566056 
L 161.635988 14.991044 
L 162.172301 14.801944 
L 162.444288 14.753494 
L 162.692014 14.673783 
L 162.869508 14.512791 
L 162.938462 14.223599 
L 163.059771 14.023487 
L 163.341336 14.007853 
L 163.874456 14.079771 
L 164.095366 13.885899 
L 164.380123 13.279156 
L 164.502709 13.149341 
L 164.558894 12.971028 
L 164.463762 11.908665 
L 164.754265 11.481382 
L 164.989221 11.199611 
L 165.178208 11.072802 
L 165.175654 11.002349 
L 165.433595 10.601509 
L 165.545965 10.546701 
L 167.041257 10.451175 
L 167.26089 10.355644 
L 167.46073 10.155174 
L 167.698878 9.968782 
L 168.021943 9.924923 
L 168.697442 10.090957 
L 169.051153 10.130114 
L 169.280363 10.037702 
L 169.365279 10.101921 
L 169.443172 10.122282 
L 169.625774 10.13168 
L 169.891377 9.968782 
L 170.343412 9.680549 
L 170.600076 9.614751 
L 171.218113 9.785508 
L 171.525854 9.821537 
L 171.658017 9.671149 
L 171.763364 9.420479 
L 171.999598 9.359374 
L 172.417156 9.406378 
L 172.875575 9.166647 
L 173.127132 9.124338 
L 173.351872 9.304535 
L 173.498082 9.240293 
L 174.331282 9.191718 
L 174.582838 9.274764 
L 175.300476 9.821537 
L 175.722503 9.924923 
L 176.025776 10.108186 
L 176.471426 10.153607 
L 176.651474 10.213124 
L 176.988585 10.451175 
L 177.109894 10.507551 
L 177.375497 10.576454 
L 177.501913 10.648486 
L 177.736869 10.938157 
L 177.753469 11.005481 
L 177.781562 11.054015 
L 178.14932 11.104113 
L 178.330644 11.191783 
L 178.683079 11.486078 
L 178.979328 11.656688 
L 179.196407 11.67547 
L 179.744212 11.589384 
L 180.0494 11.615993 
L 180.280525 11.695816 
L 180.464404 11.825719 
L 180.638067 12.002562 
L 181.026255 12.313958 
L 181.448921 12.431306 
L 181.907341 12.412531 
L 182.409177 12.312393 
L 182.644133 12.226333 
L 183.10766 11.982218 
L 183.345171 11.908665 
L 183.57885 11.899275 
L 184.379488 12.005692 
L 184.73703 12.002562 
L 184.850678 12.03699 
L 185.039026 12.187214 
L 185.123942 12.218509 
L 185.309097 12.154353 
L 185.641101 11.883625 
L 185.883719 11.795983 
L 187.259617 11.670774 
L 187.66249 11.486078 
L 188.023224 11.59721 
L 188.765762 11.689556 
L 190.111652 12.051074 
L 190.534318 12.263887 
L 190.748205 12.312393 
L 190.864416 12.282781 
L 190.956984 12.259193 
L 191.36688 12.03386 
L 191.550759 12.002562 
L 191.68356 12.096455 
L 191.934478 12.443823 
L 192.02131 12.520487 
L 192.110057 12.550213 
L 192.302874 12.691015 
L 192.402475 12.736383 
L 192.502076 12.722303 
L 192.701278 12.625309 
L 192.823864 12.631567 
L 192.947088 12.745769 
L 193.235037 13.227544 
L 193.113728 13.499668 
L 193.660256 15.428567 
L 194.297447 17.675709 
L 194.933361 19.917351 
L 195.442859 21.709567 
L 196.292021 24.692134 
L 196.36736 25.147857 
L 196.108142 28.580417 
L 196.18412 29.199807 
L 196.414607 29.733666 
L 197.60088 31.166938 
L 197.844774 31.709578 
L 198.32171 33.584432 
L 198.822907 34.898106 
L 198.995932 35.212268 
L 199.228973 35.456754 
L 200.027057 36.111147 
L 200.172628 36.302937 
L 200.239029 36.541103 
L 200.247417 36.786633 
L 200.328414 39.155935 
L 200.407584 39.789028 
L 201.110046 41.475456 
L 201.54278 42.513609 
L 201.854352 43.658763 
L 201.920753 44.810935 
L 201.819875 45.834677 
L 201.83009 47.908187 
L 201.84286 50.412442 
L 201.85116 52.184912 
L 201.862652 54.544053 
L 201.881168 57.76136 
L 201.670474 58.484553 
L 201.620673 58.859032 
L 201.60535 59.344977 
L 201.651319 59.806351 
L 201.78029 60.111832 
L 201.852437 60.420316 
L 201.966723 61.346979 
L 201.968 61.66746 
L 201.916922 61.864298 
L 201.832644 61.954318 
L 201.712612 62.033654 
L 201.554272 62.198417 
L 201.457225 62.376893 
L 200.932405 63.857409 
L 200.857066 64.265822 
L 200.908143 64.707656 
L 201.393378 66.403889 
L 200.684679 66.782807 
L 200.332245 66.872579 
L 199.976618 66.75694 
L 198.894226 66.001618 
L 198.692021 65.860479 
L 197.557464 65.06866 
L 196.248605 64.156108 
L 194.939746 63.24309 
L 194.62562 63.130264 
L 194.261693 63.136363 
L 193.83392 63.258336 
L 193.486593 63.445854 
L 192.240304 64.643673 
L 191.14597 65.696053 
L 190.985715 66.003578 
L 190.797367 66.779764 
L 190.132083 68.493776 
L 189.293137 70.096773 
L 188.396728 71.309819 
L 187.250678 72.86171 
L 186.98316 73.960693 
L 186.998483 75.520803 
L 187.017637 77.542288 
L 187.140862 78.546086 
L 187.224501 78.887605 
L 187.439026 78.874006 
L 187.644613 78.831698 
L 187.85403 78.707787 
L 188.043655 78.537018 
L 188.185395 78.351118 
L 188.248179 78.547449 
L 188.461852 79.215459 
L 188.625299 79.479811 
L 188.97901 79.877017 
L 189.110535 80.092949 
L 189.18332 80.382828 
L 189.167997 80.746616 
L 189.040303 81.320064 
L 189.092658 81.683649 
L 189.369753 82.190425 
L 190.638388 83.40395 
L 191.228333 84.342508 
L 191.419234 84.544311 
L 191.605667 84.676826 
L 192.688754 85.070339 
L 193.126497 85.229356 
L 194.072068 85.572525 
L 195.341981 86.032982 
L 196.170712 86.21051 
L 197.534479 86.230067 
L 199.333681 86.255641 
L 200.520593 86.273693 
L 201.628335 86.288736 
L 201.62195 86.096172 
L 201.586196 85.930669 
L 201.523626 85.775684 
L 201.439348 85.617674 
L 201.370394 85.40396 
L 201.339109 84.324435 
L 201.331122 84.0468 
L 201.30527 83.147751 
L 201.522349 81.80734 
L 201.715166 80.607752 
L 201.924584 79.316673 
L 201.897768 78.878539 
L 202.726499 78.883072 
L 202.924424 78.923869 
L 203.228335 79.247184 
L 203.427537 79.342353 
L 203.789548 79.425434 
L 204.418439 79.346885 
L 204.775981 79.361991 
L 205.675582 79.517572 
L 206.37215 79.638403 
L 207.813811 79.596113 
L 209.40998 79.54627 
L 211.144059 79.491895 
L 213.054545 79.431648 
L 212.899704 80.027421 
L 212.710678 81.93224 
L 212.484449 82.860694 
L 212.455291 83.17758 
L 212.390941 83.482541 
L 211.950549 84.132621 
L 211.917369 84.258337 
L 211.86609 84.679298 
L 211.838943 84.803787 
L 211.72432 85.027844 
L 211.670025 85.410686 
L 210.379013 89.261415 
L 209.522361 93.513516 
L 209.504262 93.837779 
L 209.480131 93.986329 
L 209.364503 94.329355 
L 209.328307 94.484931 
L 209.326296 94.661703 
L 209.395672 94.933893 
L 209.412765 95.088232 
L 208.82256 98.690319 
L 208.741117 98.958295 
L 207.703481 100.641502 
L 207.633099 100.871584 
L 207.584837 101.202561 
L 207.447089 101.505309 
L 207.234937 101.725878 
L 206.958435 101.811517 
L 207.00368 101.951109 
L 207.048926 101.99099 
L 207.11227 101.967531 
L 207.211811 101.910054 
L 207.311352 102.409681 
L 207.175614 102.944316 
L 206.971506 103.465877 
L 206.864927 103.935718 
L 206.708075 104.187569 
L 205.642286 105.311612 
L 205.480407 105.442697 
L 205.08325 105.641644 
L 204.925392 105.751639 
L 204.805742 105.910767 
L 204.575492 106.32372 
L 204.412607 106.537757 
L 203.055235 107.733708 
L 202.716394 107.446204 
L 202.228746 107.524514 
L 201.946211 107.8307 
L 202.219696 108.223276 
L 202.318232 108.099438 
L 202.482122 107.952222 
L 202.680198 107.842385 
L 202.886317 107.821351 
L 202.651039 108.284023 
L 202.169423 108.695168 
L 200.641123 109.531134 
L 200.192687 109.625676 
L 199.719115 109.608169 
L 199.167117 109.496116 
L 199.183204 109.618673 
L 199.207335 109.701539 
L 199.253586 109.757559 
L 199.336034 109.799572 
L 199.336034 109.888263 
L 198.957981 110.126303 
L 196.552918 112.928617 
L 195.96975 113.459582 
L 195.774691 113.555043 
L 195.700287 113.612083 
L 195.671128 113.699386 
L 195.622866 113.95079 
L 195.573599 114.00316 
L 195.414736 114.116042 
L 194.941163 114.791987 
L 194.763197 114.949004 
L 194.342914 115.216477 
L 194.175002 115.369961 
L 194.113669 115.510642 
L 194.047309 115.809397 
L 193.892468 115.904708 
L 193.791921 115.995363 
L 193.699419 116.106931 
L 193.601889 116.361415 
L 191.974048 118.619633 
L 190.351234 121.887602 
L 190.224545 122.45238 
L 190.355255 123.003058 
L 189.860568 123.000745 
L 189.740919 123.115251 
L 189.680591 123.488777 
L 189.867607 123.385865 
L 190.288895 123.243625 
L 190.447758 123.090962 
L 190.447758 123.197365 
L 190.425638 123.296822 
L 190.385419 123.396272 
L 190.277835 123.576652 
L 189.959104 123.962774 
L 188.676135 125.136688 
L 188.314169 125.584742 
L 187.719942 126.623501 
L 187.027179 128.241306 
L 185.237458 131.38285 
L 184.988104 131.955378 
L 184.941853 132.170302 
L 184.841307 132.371406 
L 184.258139 132.997513 
L 182.157731 136.847904 
L 181.80783 137.342619 
L 181.611766 137.544119 
L 181.433799 137.624252 
L 181.267898 137.765047 
L 180.877779 138.592355 
L 179.731553 140.092362 
L 178.834682 141.266518 
L 178.484781 141.506251 
L 178.085613 142.348401 
L 177.433069 143.098819 
L 175.631283 144.769219 
L 175.410081 144.881947 
L 174.647942 145.093714 
L 174.366413 145.222352 
L 174.123091 145.411302 
L 174.020534 145.654848 
L 173.262416 146.561497 
L 172.990942 146.674075 
L 172.879336 146.751395 
L 172.795882 147.018569 
L 172.710418 147.127698 
L 172.613894 147.208401 
L 172.546528 147.237953 
L 172.270026 147.306148 
L 172.047819 147.478893 
L 171.651668 147.904977 
L 171.454597 148.01744 
L 170.967954 148.191228 
L 170.648218 148.412689 
L 170.541639 148.436536 
L 170.425005 148.446756 
L 170.294295 148.485365 
L 170.233968 148.492179 
L 170.097225 148.471739 
L 170.040919 148.485365 
L 169.965509 148.578476 
L 169.982602 148.651144 
L 170.028853 148.712454 
L 170.040919 148.771491 
L 169.796592 149.294758 
L 169.433621 149.493341 
L 169.365249 149.577304 
L 169.314976 149.919909 
L 169.18125 150.103654 
L 168.776049 150.389428 
L 168.373864 150.815705 
L 168.182827 151.078658 
L 168.100379 151.3019 
L 168.068204 151.434467 
L 167.848008 151.817364 
L 167.715287 151.892117 
L 167.679091 151.920432 
L 167.657976 151.974794 
L 167.617758 152.144662 
L 167.594632 152.195619 
L 166.779203 152.557916 
L 166.659553 152.727708 
L 166.608275 152.956326 
L 166.484603 153.214322 
L 166.145763 153.723375 
L 164.625505 155.293389 
L 163.353597 156.963033 
L 162.696026 157.352192 
L 162.587436 157.487524 
L 160.928425 158.951573 
L 160.64589 159.345756 
L 160.541322 159.434712 
L 160.337214 159.529291 
L 160.225608 159.610353 
L 159.770134 160.066232 
L 159.551949 160.354308 
L 159.457435 160.609695 
L 159.378004 160.77505 
L 158.005549 161.791455 
L 157.689835 161.95216 
L 157.28765 162.274634 
L 157.088569 162.373494 
L 157.049356 162.591409 
L 156.7628 162.804793 
L 156.15349 163.118066 
L 155.572334 163.51544 
L 155.204335 163.705102 
L 154.521627 163.895857 
L 154.207923 164.176327 
L 153.969629 164.557665 
L 153.876121 164.965791 
L 153.761498 165.25947 
L 153.49304 165.546356 
L 152.22817 166.540979 
L 151.854138 166.668609 
L 151.743538 166.776077 
L 151.582664 166.998819 
L 151.413746 167.092829 
L 151.393637 167.143188 
L 151.390621 167.213688 
L 151.378555 167.28866 
L 151.329288 167.358032 
L 150.738077 167.613111 
L 150.497771 167.870374 
L 150.360023 167.930767 
L 150.120723 167.966554 
L 149.509403 168.180136 
L 149.297251 168.304243 
L 148.192249 169.400534 
L 147.78001 169.718845 
L 146.90727 170.030375 
L 146.766505 170.145364 
L 146.710199 170.165458 
L 146.422637 170.562806 
L 146.328124 170.613023 
L 146.233611 170.639805 
L 146.130048 170.62753 
L 145.998333 170.562806 
L 145.909852 170.913168 
L 145.614247 171.212124 
L 144.942599 171.713936 
L 144.64096 171.881161 
L 144.590687 171.881161 
L 144.538403 171.847718 
L 144.498185 171.81093 
L 144.474054 171.796437 
L 144.431824 171.837685 
L 144.381551 171.983715 
L 143.065403 172.830562 
L 142.947764 172.96422 
L 142.012685 173.385148 
L 141.819636 173.527652 
L 141.725123 173.622274 
L 141.682894 173.715775 
L 141.658763 173.819286 
L 141.590391 173.928352 
L 141.491856 174.012927 
L 141.379245 174.046311 
L 141.125868 174.088595 
L 140.055052 174.627032 
L 139.816758 174.682642 
L 139.519141 174.700437 
L 139.245656 174.78051 
L 138.552893 175.344204 
L 138.302534 175.407561 
L 137.707301 175.47425 
L 137.295061 175.703184 
L 136.110628 176.176474 
L 135.96182 176.192025 
L 135.865296 176.250895 
L 135.783853 176.505223 
L 135.705427 176.565187 
L 135.436969 176.602941 
L 134.254547 177.153569 
L 133.771926 177.27565 
L 133.262157 177.300064 
L 132.212456 177.156899 
L 131.885681 177.169107 
L 131.648392 177.268991 
L 131.431212 177.304503 
L 131.141639 177.190194 
L 130.677116 176.937123 
L 129.033188 176.631811 
L 127.336975 176.54742 
L 126.252082 176.697321 
L 125.238577 176.993735 
L 124.320591 177.411033 
L 123.92444 177.697286 
L 123.603698 178.072195 
L 123.36842 178.514613 
L 123.164311 179.280415 
L 123.132136 179.60166 
L 123.187437 179.750068 
L 123.428747 179.857486 
L 123.484048 179.977074 
L 123.54337 180.060114 
L 123.899303 180.302557 
L 124.129554 180.646763 
L 124.237138 180.767377 
L 124.21904 180.873596 
L 124.195914 180.916745 
L 124.152679 180.960998 
L 123.763566 180.847042 
L 123.495108 180.927808 
L 123.246759 181.071624 
L 122.925011 181.145738 
L 122.538914 181.10481 
L 121.884359 180.914532 
L 121.529431 180.860319 
L 120.914089 180.93334 
L 120.606418 180.934446 
L 120.27361 180.752993 
L 119.834224 180.682174 
L 119.41193 180.395536 
L 118.963494 180.229497 
L 117.914799 179.971537 
L 116.783655 179.949392 
L 115.676642 180.091114 
L 114.95271 180.283739 
L 114.65811 180.429847 
L 114.464056 180.640123 
L 114.638001 181.197725 
L 114.501258 181.469792 
L 114.290111 181.704206 
L 114.159401 181.795968 
L 113.571207 182.286719 
L 113.485742 182.492243 
L 113.536015 182.656857 
L 113.652649 182.745231 
L 113.769282 182.811506 
L 113.821566 182.908704 
L 113.779337 183.025773 
L 113.56819 183.175957 
L 113.485742 183.279749 
L 113.401284 183.279749 
L 113.245437 183.076572 
L 112.986028 182.995955 
L 112.141441 182.976075 
L 111.460744 182.807088 
L 111.176198 182.771741 
L 110.394955 182.908704 
L 110.159677 182.889928 
L 109.091877 182.630343 
L 108.556972 182.374016 
L 108.123618 182.015947 
L 107.885324 181.93194 
L 106.381154 181.766119 
L 106.165985 181.656664 
L 105.995057 181.544987 
L 105.19471 181.230908 
L 102.984706 181.045075 
L 102.718259 180.987549 
L 102.18637 180.806104 
L 100.869216 180.682174 
L 98.676306 180.209571 
L 98.096155 180.230604 
L 96.107352 180.654509 
L 95.841911 180.764058 
L 95.604622 180.910107 
L 95.406546 181.095961 
L 95.286896 181.392381 
L 95.370349 181.663297 
L 95.588535 181.849032 
L 95.870064 181.888829 
L 95.870064 181.981682 
L 91.600876 181.610225 
L 91.534515 181.522871 
L 91.461117 181.13357 
L 91.429947 181.045075 
L 91.057927 181.018525 
L 90.905097 180.963211 
L 90.800529 180.860319 
L 90.844769 181.064987 
L 90.936266 181.145738 
L 91.055916 181.188877 
L 91.180593 181.281785 
L 91.303259 181.470898 
L 91.30527 181.570419 
L 91.222822 181.656664 
L 91.148418 181.587005 
L 90.975479 181.538352 
L 90.633622 181.509602 
L 90.474759 181.542775 
L 90.356115 181.591428 
L 90.225405 181.62681 
L 90.034367 181.610225 
L 89.04801 181.326025 
L 88.652864 181.100385 
L 88.494001 181.053925 
L 88.355247 180.969849 
L 88.254701 180.767377 
L 88.227554 180.640123 
L 88.236603 180.54495 
L 88.319051 180.494041 
L 88.508077 180.496254 
L 88.313018 180.343513 
L 88.039532 180.262707 
L 87.494573 180.209571 
L 87.611206 180.414352 
L 87.775096 180.615777 
L 87.96915 180.777336 
L 88.170242 180.860319 
L 87.943008 180.93334 
L 87.643381 180.879128 
L 86.251823 180.428741 
L 86.004479 180.395536 
L 85.680721 180.405497 
L 85.437399 180.448663 
L 85.236307 180.53499 
L 84.595828 181.019631 
L 84.096114 181.261877 
L 83.541099 181.378004 
L 82.38683 181.259665 
L 81.869018 181.270725 
L 80.807251 181.509602 
L 80.559907 181.616859 
L 80.35781 181.759485 
L 79.995844 182.124264 
L 79.841003 182.409375 
L 79.895297 182.630343 
L 80.07427 182.791624 
L 80.294466 182.908704 
L 80.125548 183.041234 
L 79.87921 183.120744 
L 78.272483 183.340474 
L 77.813993 183.524839 
L 77.5023 183.836094 
L 77.465098 184.056792 
L 77.528442 184.500269 
L 77.410803 184.651365 
L 77.166476 185.04721 
L 77.094083 185.095717 
L 76.364118 185.488104 
L 75.859377 185.660007 
L 75.332515 185.755865 
L 74.795599 185.785612 
L 73.492521 185.543204 
L 73.030009 185.28311 
L 72.756524 185.221384 
L 72.488065 185.266576 
L 71.972264 185.463859 
L 71.537905 185.538796 
L 71.45043 185.613728 
L 71.396135 185.704081 
L 71.329774 185.785612 
L 71.248332 185.845105 
L 70.425865 186.17336 
L 69.893976 186.246048 
L 69.35706 186.205299 
L 67.33005 185.517858 
L 66.835363 185.417572 
L 65.635848 185.31838 
L 65.044637 185.377897 
L 64.551961 185.600505 
L 64.642452 185.600505 
L 63.936619 185.782307 
L 63.707374 185.886968 
L 64.041187 185.937643 
L 64.336792 186.142521 
L 64.4856 186.426647 
L 64.383043 186.708501 
L 64.150782 186.793264 
L 61.96692 186.433254 
L 60.238533 186.647952 
L 59.722731 186.867014 
L 59.294405 187.176271 
L 58.617729 188.00678 
L 58.386473 188.209091 
L 58.151195 188.294843 
L 57.974234 188.330021 
L 57.889776 188.417962 
L 57.82241 188.536671 
L 57.695722 188.66416 
L 57.590148 188.714712 
L 57.188969 188.857565 
L 56.989888 188.98282 
L 56.76567 189.171777 
L 56.582676 189.398044 
L 56.507266 189.630854 
L 56.374546 189.590226 
L 56.072907 189.662697 
L 55.571182 189.861422 
L 54.656213 190.465067 
L 54.308323 190.888524 
L 54.474224 191.250422 
L 54.474224 191.334848 
L 54.275143 191.384185 
L 53.95239 191.57055 
L 53.750292 191.611108 
L 53.556238 191.585896 
L 53.36319 191.520125 
L 53.184218 191.432424 
L 52.405991 190.90717 
L 52.227019 190.741539 
L 52.009839 190.637321 
L 50.029081 190.691077 
L 49.850108 190.730569 
L 49.644994 190.917041 
L 49.474066 190.966397 
L 49.341345 190.938977 
L 49.258897 190.855619 
L 49.201586 190.761284 
L 49.144275 190.691077 
L 48.520889 190.344363 
L 47.577766 189.484804 
L 46.945331 189.158595 
L 46.753288 189.022372 
L 46.56024 188.807019 
L 46.329989 188.64218 
L 46.034384 188.608111 
L 45.737773 188.683942 
L 45.502495 188.857565 
L 45.39491 188.786141 
L 45.28632 188.765262 
L 45.178736 188.789437 
L 45.072157 188.857565 
L 45.118408 188.70702 
L 45.853401 187.789036 
L 45.914734 187.64165 
L 45.854406 187.272003 
L 45.659347 186.839496 
L 45.40597 186.436557 
L 45.16466 186.155738 
L 44.99172 186.036782 
L 44.834868 186.001533 
L 43.971177 186.164549 
L 43.214065 186.116087 
L 43.048164 186.072029 
L 42.878241 185.921118 
L 42.653018 185.538796 
L 42.456953 185.417572 
L 42.456953 185.324993 
L 42.775684 185.272087 
L 42.922481 185.073669 
L 43.004929 184.790312 
L 43.132623 184.482621 
L 42.91846 184.59512 
L 42.626876 185.040596 
L 42.496166 185.137607 
L 41.552038 185.081386 
L 41.39217 185.091307 
L 41.036236 185.212565 
L 39.833705 185.397735 
L 39.574296 185.554224 
L 39.525028 185.664415 
L 39.405378 185.695266 
L 39.266625 185.666618 
L 39.150997 185.600505 
L 39.035369 185.435206 
L 39.049445 185.302949 
L 39.150997 185.137607 
L 39.067543 184.691066 
L 39.060505 184.584091 
L 39.102735 184.434089 
L 39.160046 184.370112 
L 39.232439 184.320472 
L 39.32092 184.204637 
L 39.423477 183.939828 
L 39.405378 183.741181 
L 39.228417 183.279749 
L 39.211324 182.999268 
L 39.32092 182.87557 
L 39.489837 182.764009 
L 39.651716 182.528703 
L 39.132898 181.805918 
L 38.933817 181.7031 
L 38.200836 181.538352 
L 37.045561 181.437723 
L 35.906374 181.489697 
L 35.724385 181.560467 
L 35.618812 181.62681 
L 35.172387 181.795968 
L 34.959229 181.938572 
L 34.856672 182.035843 
L 34.74205 182.175103 
L 34.560061 182.349706 
L 34.505766 182.445838 
L 34.488674 182.630343 
L 34.518837 182.770637 
L 34.581176 182.844643 
L 34.662618 182.903182 
L 34.74205 182.992641 
L 34.910967 183.557955 
L 34.929066 183.69041 
L 34.937109 183.814022 
L 34.826508 184.712019 
L 34.876782 184.988779 
L 35.087928 185.137607 
L 34.856672 185.201542 
L 34.549001 185.053825 
L 34.255407 184.809058 
L 34.068391 184.584091 
L 33.770774 184.045759 
L 33.730556 183.884651 
L 33.744632 183.798571 
L 33.800938 183.612043 
L 33.815015 183.506072 
L 33.790884 183.456395 
L 33.7386 183.425484 
L 33.679277 183.400092 
L 33.646097 183.372492 
L 33.527453 183.015833 
L 33.426907 182.868943 
L 33.069968 182.757381 
L 32.956351 182.625924 
L 32.926187 182.451362 
L 32.964395 182.260197 
L 33.054886 182.152999 
L 33.169509 182.115422 
L 33.266033 182.044685 
L 33.308262 181.842399 
L 33.314295 181.656664 
L 33.338426 181.511813 
L 33.39071 181.378004 
L 33.47718 181.230908 
L 33.296197 181.255241 
L 33.223803 181.278467 
L 33.131301 181.331555 
L 32.955345 181.078262 
L 32.938253 180.881341 
L 33.04081 180.702092 
L 33.223803 180.496254 
L 33.395737 180.243888 
L 33.528458 179.75782 
L 33.646097 179.466526 
L 34.047276 179.16962 
L 34.522859 179.1807 
L 34.922027 179.123083 
L 35.087928 178.621035 
L 35.033633 178.361615 
L 34.795339 178.00787 
L 34.74205 177.830403 
L 34.711886 177.561935 
L 34.384106 176.354187 
L 34.060347 175.756522 
L 33.991976 175.48981 
L 33.879364 175.43646 
L 33.308262 174.793855 
L 33.105159 174.670408 
L 33.006624 174.589216 
L 32.964395 174.466861 
L 32.964395 173.902756 
L 32.93222 173.618934 
L 32.846756 173.382922 
L 32.542101 172.917442 
L 32.189184 172.5632 
L 30.854937 171.693868 
L 30.976598 171.463056 
L 30.904205 171.192047 
L 30.593517 170.654311 
L 30.432643 170.29048 
L 30.133016 169.910909 
L 30.095814 169.765747 
L 29.978175 169.587063 
L 29.411095 169.075437 
L 29.201959 168.970404 
L 28.946572 168.874303 
L 28.774638 168.653017 
L 28.63689 168.400389 
L 28.492103 168.210326 
L 28.807818 168.062726 
L 28.990812 168.020233 
L 29.121522 168.069436 
L 29.218046 168.227097 
L 29.286418 168.375795 
L 29.370877 168.505471 
L 29.511641 168.594895 
L 29.456341 168.744665 
L 29.545827 168.85754 
L 29.884667 169.111191 
L 30.112907 169.410588 
L 30.273781 169.569194 
L 30.432643 169.625036 
L 30.623681 169.52005 
L 30.573408 169.365906 
L 30.306961 169.111191 
L 30.241606 168.994987 
L 30.216469 168.763665 
L 30.180273 168.6709 
L 30.125978 168.637369 
L 29.987224 168.622838 
L 29.926896 168.594895 
L 29.655422 168.340019 
L 29.55387 168.205853 
L 29.511641 168.069436 
L 29.549849 167.475509 
L 29.511641 167.272994 
L 29.335685 167.005534 
L 29.043096 166.870104 
L 28.685152 166.841001 
L 28.316148 166.896967 
L 28.427754 167.114092 
L 28.492103 167.186832 
L 28.341284 167.220402 
L 28.212585 167.280827 
L 27.971275 167.460965 
L 27.836543 167.315514 
L 27.762139 167.172284 
L 27.731975 167.044706 
L 27.724937 166.948454 
L 27.67768 166.829807 
L 27.592216 166.706671 
L 27.548981 166.554414 
L 27.634445 166.34167 
L 27.575123 166.233044 
L 27.424304 165.835416 
L 27.3499 165.530668 
L 27.339845 165.41861 
L 27.382074 165.302058 
L 27.507757 165.154112 
L 27.579145 164.98597 
L 27.510773 164.824532 
L 27.225222 164.463463 
L 27.156851 164.427574 
L 27.109594 164.375983 
L 27.120655 164.255969 
L 27.168917 164.239144 
L 27.259408 164.257091 
L 27.341856 164.263821 
L 27.381069 164.208857 
L 27.420282 164.167353 
L 27.610314 164.008053 
L 27.679691 163.973273 
L 27.780237 163.9542 
L 27.802357 163.905955 
L 27.806379 163.833023 
L 27.848608 163.737645 
L 27.857658 163.629914 
L 27.846597 163.204511 
L 27.886816 163.031615 
L 28.056739 162.903612 
L 28.349328 162.789072 
L 28.646944 162.723936 
L 28.829938 162.740782 
L 28.738441 162.842974 
L 28.883228 163.047334 
L 29.511641 163.596246 
L 30.044535 163.797117 
L 30.517102 163.682658 
L 30.928336 163.381874 
L 32.423456 161.951037 
L 32.711018 161.412647 
L 32.888985 160.919016 
L 33.177552 159.791599 
L 33.223803 159.242154 
L 33.165487 158.278928 
L 33.094099 158.059142 
L 32.946296 157.747997 
L 33.015673 157.521354 
L 33.308262 157.152551 
L 33.365573 156.592941 
L 32.887979 154.777043 
L 32.749226 153.29239 
L 32.530035 152.688091 
L 32.457642 152.385837 
L 32.487806 151.77772 
L 32.469708 151.484318 
L 32.330954 151.201049 
L 32.176113 151.006124 
L 32.035348 150.770363 
L 31.960944 150.584444 
L 31.95089 150.459728 
L 31.962955 150.348607 
L 31.95089 150.200053 
L 31.68947 149.226666 
L 31.480334 148.762408 
L 31.184728 148.286631 
L 30.608599 147.574348 
L 30.517102 147.376613 
L 30.49096 147.272051 
L 29.926896 146.473931 
L 29.336691 145.872182 
L 29.244188 145.654848 
L 29.165762 145.39992 
L 28.976736 145.185925 
L 28.569524 144.834124 
L 28.087908 144.102903 
L 27.735997 143.835145 
L 27.61333 143.488689 
L 27.465528 142.827439 
L 27.311692 142.651812 
L 26.807956 142.255995 
L 26.698361 142.108818 
L 26.632 141.92625 
L 25.963369 140.850882 
L 25.902036 140.807485 
L 25.775348 140.462536 
L 25.728091 140.372287 
L 25.568223 140.131212 
L 25.306803 139.501473 
L 25.179109 139.264818 
L 24.31944 138.070626 
L 23.633715 136.720761 
L 23.569366 136.520287 
L 23.466809 136.004647 
L 23.31599 135.510598 
L 22.590047 134.527708 
L 22.258245 133.917209 
L 22.304496 133.383377 
L 22.000847 133.037712 
L 21.309089 131.773757 
L 21.198489 131.446092 
L 20.971254 131.170104 
L 20.177946 129.802015 
L 20.122645 129.65811 
L 20.084438 129.291951 
L 19.978864 128.842757 
L 19.927586 128.725252 
L 19.899433 128.34848 
L 19.249905 127.218717 
L 19.082998 126.746948 
L 19.036747 126.194239 
L 18.749185 125.056994 
L 17.97498 123.240156 
L 17.894543 122.755511 
L 17.867396 122.68494 
L 17.810085 122.612052 
L 17.752773 122.512549 
L 17.725626 122.364437 
L 17.716577 122.213997 
L 17.389802 121.04234 
L 17.466217 121.04234 
L 17.405889 120.85817 
L 17.4079 120.475855 
L 17.389802 120.274231 
L 17.084142 119.453543 
L 17.090174 119.301642 
L 16.926284 119.167121 
L 16.841826 118.858604 
L 16.790547 118.319123 
L 16.425565 117.301114 
L 16.334068 117.142022 
L 15.877588 115.72803 
L 15.825304 115.636196 
L 15.586005 115.372287 
L 15.532715 115.231593 
L 15.497524 115.165312 
L 15.272301 114.889688 
L 15.010881 114.027599 
L 14.940499 113.897254 
L 14.8118 113.758749 
L 14.757505 113.636529 
L 14.76957 113.30823 
L 14.724324 113.171999 
L 14.608696 112.956567 
L 14.506139 112.62579 
L 14.459888 112.290279 
L 14.520216 112.057241 
L 14.331189 111.732093 
L 13.542908 111.022118 
L 13.428285 110.842531 
L 13.240264 110.289642 
L 13.144745 110.093633 
L 12.588725 109.300005 
L 11.756203 108.566697 
L 11.622477 108.255986 
L 11.4978 107.746563 
L 11.429428 107.239308 
L 11.467636 106.940019 
L 11.417363 106.84414 
L 11.310784 106.596232 
L 11.29168 106.488636 
L 11.244424 106.413783 
L 11.140861 106.388051 
L 11.025233 106.379864 
L 10.946807 106.350622 
L 10.683376 105.742278 
L 10.480273 105.576111 
L 10.16858 105.232019 
L 10.145455 105.154763 
L 10.273148 105.061115 
L 10.351574 104.849214 
L 10.379727 104.62089 
L 10.356601 104.476854 
L 10.582805 104.368296 
L 10.90587 104.142198 
L 11.246812 103.9607 
L 11.719278 103.804475 
L 12.655272 102.847445 
L 12.782965 102.796824 
L 12.892782 102.8668 
L 12.94769 103.030562 
L 12.983444 103.213657 
L 13.034521 103.347615 
L 13.240108 103.369941 
L 13.486557 103.152628 
L 13.708743 102.845956 
L 13.844099 102.600278 
L 13.878576 102.357539 
L 13.893899 102.028366 
L 13.957746 101.740842 
L 14.139071 101.615686 
L 14.270595 101.49797 
L 14.183764 101.234194 
L 13.920715 100.819813 
L 13.832606 100.597671 
L 13.782806 100.302427 
L 13.836437 100.044416 
L 14.05607 99.932549 
L 14.163333 99.984755 
L 14.285918 100.078721 
L 14.411058 100.123465 
L 14.527259 100.032484 
L 14.551521 99.850508 
L 14.480013 99.678953 
L 14.386796 99.532744 
L 14.349765 99.431284 
L 14.399566 99.295498 
L 14.467243 99.241777 
L 14.730292 99.243269 
L 14.919278 99.197008 
L 14.914171 99.092542 
L 14.697092 98.804479 
L 14.663891 98.72835 
L 14.688153 98.641767 
L 14.763492 98.579067 
L 14.813293 98.60146 
L 14.865647 98.64326 
L 15.071234 98.637289 
L 15.135081 98.689538 
L 15.188712 98.697002 
L 15.279374 98.552194 
L 15.371314 97.405209 
L 15.414729 97.366364 
L 15.625424 97.116838 
L 15.700763 97.054077 
L 15.79781 97.080975 
L 15.921673 97.23787 
L 16.045536 97.261777 
L 16.19366 97.20201 
L 16.369877 97.006257 
L 16.512894 96.965908 
L 16.842343 97.054077 
L 17.254794 96.73575 
L 17.39398 96.661016 
L 17.637874 96.598237 
L 17.763014 96.601227 
L 17.9022 96.661016 
L 18.074586 96.87624 
L 18.216326 97.172126 
L 18.378497 97.435089 
L 18.618561 97.548627 
L 18.928856 97.648714 
L 19.041227 97.899649 
L 19.038673 98.225209 
L 19.005472 98.552194 
L 19.065488 99.228346 
L 19.32726 99.564075 
L 19.72311 99.641656 
L 20.507149 99.449189 
L 20.826383 99.431284 
L 20.965569 99.499919 
L 21.015369 99.659558 
L 21.033246 99.843049 
L 21.080493 99.981772 
L 21.192863 100.159259 
L 21.228617 100.306901 
L 21.241387 100.45453 
L 21.28991 100.631963 
L 21.375465 100.779561 
L 21.572113 101.050866 
L 21.63596 101.213329 
L 21.661498 101.521812 
L 21.632129 101.91813 
L 21.528697 102.257752 
L 21.332049 102.403707 
L 21.123909 102.458809 
L 20.909383 102.603256 
L 20.74849 102.795335 
L 20.699966 103.002277 
L 20.800844 103.262776 
L 21.135401 103.712221 
L 21.206909 104.03955 
L 21.30268 104.282026 
L 21.754715 104.454562 
L 21.89007 104.771324 
L 21.812177 105.336279 
L 21.657668 105.933716 
L 21.680652 106.366044 
L 22.141626 106.441801 
L 22.688155 106.306625 
L 23.200206 106.244232 
L 23.451762 106.180351 
L 23.686718 106.067439 
L 23.896136 106.019894 
L 24.082568 106.155095 
L 24.148969 106.459625 
L 24.138754 106.813102 
L 24.194939 107.104138 
L 24.461818 107.225882 
L 24.860222 107.343163 
L 25.018562 107.332771 
L 25.137317 107.274874 
L 25.382489 107.102654 
L 25.516567 107.038808 
L 25.914971 107.003173 
L 27.977222 107.47231 
L 28.425426 107.665268 
L 28.842984 107.938335 
L 29.593823 108.579259 
L 30.067566 108.8314 
L 31.105714 109.203603 
L 31.335563 109.208052 
L 31.776105 109.050878 
L 32.862778 108.889239 
L 33.138596 108.910001 
L 33.658309 109.107225 
L 33.960942 109.160605 
L 34.201006 109.056809 
L 34.296776 108.993046 
L 34.432132 108.950041 
L 34.673472 108.910001 
L 34.74115 108.887756 
L 34.848413 108.81657 
L 34.917367 108.803222 
L 34.972275 108.83585 
L 35.122954 108.979699 
L 35.179139 109.007874 
L 35.444741 108.921864 
L 35.892946 108.669738 
L 38.261661 108.313724 
L 40.842348 108.697919 
L 41.047935 108.896654 
L 41.359507 109.399307 
L 41.489755 109.55348 
L 41.576586 109.584609 
L 42.009467 109.640937 
L 42.1461 109.688369 
L 42.203562 109.747657 
L 42.412979 110.027761 
L 42.889276 110.001086 
L 43.40005 109.827692 
L 44.103642 109.446747 
L 44.20452 109.341488 
L 44.339875 109.113156 
L 44.415214 109.059775 
L 44.82128 109.025669 
L 44.96685 108.933728 
L 44.973235 108.760212 
L 44.512261 107.945755 
L 44.430537 107.632615 
L 44.47523 107.332771 
L 44.689755 106.91705 
L 44.830218 106.726968 
L 44.987281 106.587361 
L 45.166052 106.572509 
L 45.461024 106.819042 
L 45.592549 106.842802 
L 45.77132 106.76261 
L 46.773714 106.498244 
L 47.026547 106.379414 
L 47.241073 106.199664 
L 47.370043 105.991664 
L 47.726308 104.838238 
L 47.801647 104.71333 
L 47.920402 104.664257 
L 47.998296 104.613695 
L 48.103004 104.34896 
L 48.169405 104.231451 
L 48.279221 104.091618 
L 48.352007 103.975577 
L 48.431177 103.875894 
L 48.560147 103.789596 
L 48.668687 103.753885 
L 49.908591 103.657164 
L 50.121839 103.542579 
L 50.365734 103.34315 
L 50.64666 103.241938 
L 51.242989 103.198772 
L 51.604362 103.091596 
L 52.157275 102.574963 
L 52.482893 102.385835 
L 52.620802 102.367964 
L 53.020483 102.421578 
L 53.148177 102.408175 
L 53.532534 102.308391 
L 53.551688 101.880886 
L 53.551688 101.311692 
L 53.551688 100.503736 
L 53.551688 99.693871 
L 53.551688 98.885082 
L 53.550412 98.075878 
L 53.549135 97.264765 
L 53.549135 96.453238 
L 53.549135 95.642792 
L 53.549135 94.830437 
L 53.549135 94.01767 
L 53.549135 93.207487 
L 53.549135 92.393898 
L 53.549135 91.579899 
L 53.547858 90.766991 
L 53.547858 89.952174 
L 53.547858 89.13695 
L 53.547858 88.322821 
L 53.547858 87.509789 
L 53.547858 86.693348 
L 53.547858 85.876501 
L 53.546581 85.060756 
L 53.545304 84.243103 
L 53.545304 83.425047 
L 53.545304 82.608098 
L 53.545304 81.790748 
L 53.545304 80.971491 
L 53.545304 80.153344 
L 53.544027 79.33329 
L 53.544027 78.514349 
L 53.544027 77.6935 
L 53.544027 76.873768 
L 53.544027 76.052128 
L 53.54275 75.231608 
L 53.541473 74.410695 
L 53.541473 73.587875 
L 53.541473 72.766179 
L 53.541473 71.942575 
L 53.541473 71.120099 
L 53.541473 70.295715 
L 53.540196 69.472462 
L 53.540196 68.647301 
L 53.540196 67.823274 
L 53.540196 66.998861 
L 53.540196 66.172541 
L 53.538919 65.345836 
L 53.537642 64.520271 
L 53.537642 63.692798 
L 53.537642 62.866467 
L 53.537642 62.039756 
L 53.537642 61.403219 
L 53.537642 61.212665 
L 53.537642 60.383668 
L 53.537642 59.55429 
L 53.537642 58.726063 
L 53.536365 57.895929 
L 53.536365 57.066948 
L 53.536365 56.237591 
L 53.536365 55.406329 
L 53.536365 54.574691 
L 53.536365 53.744213 
L 53.536365 52.913361 
L 53.535088 52.080605 
L 53.533811 51.249012 
L 53.533811 50.415513 
L 53.533811 49.581644 
L 53.533811 48.748943 
z
" clip-path="url(#p26c5027e35)" style="stroke: #000000; stroke-linejoin: miter"/>
   </g>
   <g id="line2d_1">
    <path d="M 53.529981 48.562994 
L 53.67172 48.910288 
L 53.888799 49.091593 
L 54.121202 49.495626 
L 55.345783 50.602814 
L 55.727587 50.66115 
L 56.671242 51.290447 
L 58.398936 52.924094 
L 59.235329 54.954565 
L 59.126789 55.202666 
L 59.242991 55.403266 
L 59.710349 55.657431 
L 59.835489 56.228408 
L 60.139399 56.4442 
L 60.120245 56.673738 
L 60.066614 56.868059 
L 60.662943 58.048836 
L 61.09327 58.362257 
L 61.134132 58.652696 
L 61.320565 58.625183 
L 61.37675 59.144808 
L 61.71003 59.014915 
L 61.870924 59.169257 
L 61.504443 59.419844 
L 61.423997 59.653591 
L 61.401012 60.066014 
L 61.955202 60.602022 
L 61.978187 61.137872 
L 61.641076 61.423289 
L 61.679384 61.58353 
L 62.047141 61.746808 
L 62.054803 61.910071 
L 61.948817 62.381469 
L 62.049695 62.532473 
L 62.492792 62.817669 
L 62.614101 63.079947 
L 62.874595 64.058579 
L 62.735409 64.477611 
L 63.096782 64.354197 
L 63.237245 64.581211 
L 63.570525 65.458522 
L 63.677788 66.734116 
L 63.691834 68.06961 
L 64.155362 68.952793 
L 64.111946 69.180737 
L 63.578187 69.990458 
L 63.066136 71.082152 
L 62.352329 72.047254 
L 61.816016 73.013335 
L 61.397181 73.481774 
L 61.200533 74.69094 
L 61.31418 75.243722 
L 61.572121 75.761509 
L 61.55169 76.099046 
L 61.282257 77.091595 
L 61.353765 78.072984 
L 61.650014 79.005459 
L 62.29359 80.098988 
L 62.328067 80.05822 
L 62.592393 79.854365 
L 63.3892 79.460175 
L 64.284332 78.852852 
L 64.973878 78.757655 
L 65.995426 79.321205 
L 68.01043 79.700325 
L 69.263104 79.368033 
L 69.782817 79.407307 
L 70.819689 79.108196 
L 71.667574 79.142944 
L 72.275395 79.436007 
L 73.328867 79.464706 
L 74.324877 79.679181 
L 74.604526 79.564395 
L 75.532858 78.822631 
L 75.720568 78.296704 
L 75.758876 76.975121 
L 76.477791 76.775434 
L 77.676833 76.766357 
L 78.457041 76.566645 
L 79.18234 76.088452 
L 79.805485 75.419363 
L 80.275397 74.647013 
L 80.908757 72.958751 
L 81.648103 72.032083 
L 82.407879 71.85458 
L 82.705405 71.686162 
L 83.350258 71.0184 
L 84.039803 70.110441 
L 84.431822 70.032985 
L 84.992397 70.163596 
L 85.204368 70.070954 
L 86.64986 67.459789 
L 86.643475 67.328977 
L 86.774999 67.210325 
L 87.247465 66.974518 
L 87.417298 66.542379 
L 87.449221 65.866568 
L 87.227035 65.415885 
L 87.606284 64.936148 
L 87.926795 64.465422 
L 87.746747 64.015908 
L 87.626715 63.939708 
L 87.691839 63.415364 
L 87.856564 63.113492 
L 88.511632 62.112986 
L 88.654649 61.356136 
L 88.765742 61.212665 
L 88.561432 60.508881 
L 88.658479 60.281352 
L 88.987929 59.221211 
L 89.436133 58.909467 
L 89.842199 58.025901 
L 90.333819 57.639015 
L 90.429589 57.380536 
L 91.203412 56.678329 
L 91.580108 56.845108 
L 91.710355 57.071537 
L 92.906844 56.390637 
L 93.494234 56.200858 
L 94.107164 56.15341 
L 94.782663 56.292689 
L 95.537331 56.577336 
L 95.756964 56.558973 
L 96.32137 56.36309 
L 96.60868 56.54214 
L 97.083701 57.144967 
L 97.756646 57.535016 
L 99.309399 58.970597 
L 100.116423 59.314418 
L 100.440764 59.830792 
L 100.80086 59.994228 
L 101.269495 60.66615 
L 101.828793 61.105817 
L 102.015226 61.395818 
L 102.250182 61.554535 
L 103.031667 61.411079 
L 103.287054 61.612524 
L 103.250023 61.929906 
L 103.514348 61.887185 
L 104.797669 61.510278 
L 105.446352 61.5057 
L 105.99288 61.845988 
L 106.845873 62.945763 
L 107.366863 63.363531 
L 107.988731 63.476342 
L 108.82257 63.233942 
L 110.305092 63.828451 
L 110.958883 64.311534 
L 111.395595 64.418191 
L 112.297111 64.308486 
L 113.046673 64.505035 
L 113.420815 64.457804 
L 114.402778 64.134774 
L 115.138293 63.526648 
L 115.698868 63.233942 
L 116.173888 63.157709 
L 117.731749 63.532745 
L 120.309882 63.241565 
L 121.19863 62.764293 
L 122.79033 61.411079 
L 123.057209 60.521097 
L 123.732708 58.75816 
L 124.127281 56.834398 
L 125.207569 54.188611 
L 125.479556 53.201595 
L 125.853698 52.48246 
L 125.876683 51.930271 
L 126.367026 50.547547 
L 126.373411 49.948715 
L 126.263595 48.498446 
L 126.428319 48.409304 
L 126.835662 48.255601 
L 127.470299 48.281731 
L 128.057689 47.849766 
L 131.914035 46.627123 
L 132.885783 46.782496 
L 133.780915 45.697697 
L 134.142287 44.638461 
L 134.788417 43.883706 
L 135.592886 43.305888 
L 136.711482 42.060292 
L 138.061203 41.506608 
L 138.388098 41.048426 
L 139.565433 34.695344 
L 139.480517 34.390389 
L 139.80687 33.555182 
L 139.776127 33.409417 
L 139.839336 33.129051 
L 140.415872 31.926593 
L 140.544843 31.987043 
L 140.709567 32.334208 
L 140.921539 32.345056 
L 141.110525 32.19008 
L 141.005178 31.41502 
L 141.174372 31.517345 
L 141.284188 31.289432 
L 141.511483 31.106463 
L 141.428482 31.106463 
L 141.645561 30.813368 
L 141.782193 30.796308 
L 141.934149 30.901766 
L 141.921379 30.627253 
L 141.765593 30.343396 
L 141.945641 30.199125 
L 142.240613 30.296858 
L 142.363199 30.08277 
L 142.550908 30.258076 
L 142.785865 30.194471 
L 142.610924 29.905898 
L 142.746918 29.729011 
L 143.680996 29.302244 
L 144.099831 28.903331 
L 144.569105 28.218631 
L 144.707653 28.684438 
L 144.95027 28.426705 
L 145.135426 28.257452 
L 145.415075 28.215525 
L 145.324413 28.432916 
L 145.498076 28.536944 
L 145.720263 28.272981 
L 145.998635 28.052467 
L 146.778842 27.942202 
L 147.20917 27.487099 
L 147.224493 26.930897 
L 147.282593 26.766182 
L 147.362402 26.529965 
L 147.416033 26.299937 
L 147.648435 26.010812 
L 147.756975 25.591041 
L 148.071101 25.692105 
L 148.38395 25.692105 
L 148.874294 25.241167 
L 149.377406 25.754296 
L 149.627686 25.511742 
L 149.938619 24.82124 
L 149.973097 24.734133 
L 149.779641 24.331216 
L 149.810287 24.212971 
L 150.208691 24.261204 
L 150.404062 24.180297 
L 150.323616 23.904879 
L 151.30941 23.525147 
L 151.735906 23.187376 
L 151.933831 22.765475 
L 151.827846 21.782781 
L 151.972139 21.633234 
L 152.468867 21.480561 
L 152.869825 21.221924 
L 153.214598 20.69053 
L 153.266952 20.355417 
L 153.182674 19.869018 
L 153.930959 19.472956 
L 154.151868 19.093977 
L 154.514518 18.889643 
L 154.610288 18.572964 
L 154.548995 18.271841 
L 154.63455 17.933221 
L 155.13894 17.288602 
L 155.695684 17.13249 
L 156.329044 16.350198 
L 156.782994 16.059693 
L 157.256099 15.914426 
L 158.275732 15.833197 
L 159.055301 16.062817 
L 159.253226 15.99409 
L 159.516913 15.733218 
L 159.978526 15.728532 
L 160.307975 15.730094 
L 160.742133 15.566056 
L 161.635988 14.991044 
L 162.869508 14.512791 
L 163.059771 14.023487 
L 164.095366 13.885899 
L 164.558894 12.971028 
L 164.463762 11.908665 
L 164.989221 11.199611 
L 165.175654 11.002349 
L 165.545965 10.546701 
L 167.26089 10.355644 
L 167.698878 9.968782 
L 168.021943 9.924923 
L 169.051153 10.130114 
L 169.365279 10.101921 
L 169.625774 10.13168 
L 170.600076 9.614751 
L 171.525854 9.821537 
L 171.999598 9.359374 
L 172.417156 9.406378 
L 173.127132 9.124338 
L 173.351872 9.304535 
L 173.498082 9.240293 
L 174.582838 9.274764 
L 175.300476 9.821537 
L 176.651474 10.213124 
L 177.109894 10.507551 
L 177.501913 10.648486 
L 177.781562 11.054015 
L 178.330644 11.191783 
L 178.979328 11.656688 
L 179.196407 11.67547 
L 180.0494 11.615993 
L 180.464404 11.825719 
L 181.026255 12.313958 
L 181.448921 12.431306 
L 182.409177 12.312393 
L 183.57885 11.899275 
L 185.039026 12.187214 
L 185.123942 12.218509 
L 185.309097 12.154353 
L 185.883719 11.795983 
L 187.259617 11.670774 
L 187.66249 11.486078 
L 188.023224 11.59721 
L 188.765762 11.689556 
L 190.956984 12.259193 
L 191.550759 12.002562 
L 191.68356 12.096455 
L 192.110057 12.550213 
L 192.502076 12.722303 
L 192.823864 12.631567 
L 192.947088 12.745769 
L 193.235037 13.227544 
L 193.113728 13.499668 
L 196.36736 25.147857 
L 196.108142 28.580417 
L 196.18412 29.199807 
L 196.414607 29.733666 
L 197.60088 31.166938 
L 197.844774 31.709578 
L 198.32171 33.584432 
L 198.995932 35.212268 
L 199.228973 35.456754 
L 200.172628 36.302937 
L 200.247417 36.786633 
L 200.407584 39.789028 
L 201.54278 42.513609 
L 201.854352 43.658763 
L 201.920753 44.810935 
L 201.819875 45.834677 
L 201.881168 57.76136 
L 201.620673 58.859032 
L 201.651319 59.806351 
L 201.852437 60.420316 
L 201.968 61.66746 
L 201.832644 61.954318 
L 201.554272 62.198417 
L 201.457225 62.376893 
L 200.857066 64.265822 
L 200.908143 64.707656 
L 201.393378 66.403889 
L 200.332245 66.872579 
L 199.976618 66.75694 
L 194.62562 63.130264 
L 194.261693 63.136363 
L 193.486593 63.445854 
L 190.985715 66.003578 
L 190.797367 66.779764 
L 190.132083 68.493776 
L 189.293137 70.096773 
L 187.250678 72.86171 
L 186.98316 73.960693 
L 187.017637 77.542288 
L 187.224501 78.887605 
L 187.644613 78.831698 
L 188.043655 78.537018 
L 188.185395 78.351118 
L 188.625299 79.479811 
L 189.110535 80.092949 
L 189.167997 80.746616 
L 189.040303 81.320064 
L 189.092658 81.683649 
L 189.369753 82.190425 
L 190.638388 83.40395 
L 191.419234 84.544311 
L 191.605667 84.676826 
L 195.341981 86.032982 
L 196.170712 86.21051 
L 201.628335 86.288736 
L 201.523626 85.775684 
L 201.370394 85.40396 
L 201.30527 83.147751 
L 201.897768 78.878539 
L 202.924424 78.923869 
L 203.427537 79.342353 
L 203.789548 79.425434 
L 204.775981 79.361991 
L 206.37215 79.638403 
L 213.054545 79.431648 
L 212.899704 80.027421 
L 212.710678 81.93224 
L 212.390941 83.482541 
L 211.917369 84.258337 
L 211.670025 85.410686 
L 210.379013 89.261415 
L 209.326296 94.661703 
L 209.412765 95.088232 
L 208.741117 98.958295 
L 207.633099 100.871584 
L 207.447089 101.505309 
L 207.234937 101.725878 
L 206.958435 101.811517 
L 207.048926 101.99099 
L 207.11227 101.967531 
L 207.211811 101.910054 
L 207.311352 102.409681 
L 206.864927 103.935718 
L 206.708075 104.187569 
L 205.480407 105.442697 
L 204.925392 105.751639 
L 204.412607 106.537757 
L 203.055235 107.733708 
L 202.716394 107.446204 
L 202.228746 107.524514 
L 201.946211 107.8307 
L 202.219696 108.223276 
L 202.482122 107.952222 
L 202.886317 107.821351 
L 202.651039 108.284023 
L 202.169423 108.695168 
L 200.641123 109.531134 
L 200.192687 109.625676 
L 199.167117 109.496116 
L 199.183204 109.618673 
L 199.336034 109.888263 
L 198.957981 110.126303 
L 195.96975 113.459582 
L 195.671128 113.699386 
L 195.573599 114.00316 
L 195.414736 114.116042 
L 194.763197 114.949004 
L 194.175002 115.369961 
L 193.791921 115.995363 
L 193.601889 116.361415 
L 191.974048 118.619633 
L 190.351234 121.887602 
L 190.224545 122.45238 
L 190.355255 123.003058 
L 189.860568 123.000745 
L 189.740919 123.115251 
L 189.680591 123.488777 
L 190.447758 123.090962 
L 190.385419 123.396272 
L 189.959104 123.962774 
L 188.314169 125.584742 
L 187.719942 126.623501 
L 187.027179 128.241306 
L 184.988104 131.955378 
L 184.841307 132.371406 
L 184.258139 132.997513 
L 181.80783 137.342619 
L 181.267898 137.765047 
L 180.877779 138.592355 
L 178.834682 141.266518 
L 178.484781 141.506251 
L 178.085613 142.348401 
L 177.433069 143.098819 
L 175.410081 144.881947 
L 174.366413 145.222352 
L 174.123091 145.411302 
L 174.020534 145.654848 
L 173.262416 146.561497 
L 172.879336 146.751395 
L 172.710418 147.127698 
L 172.546528 147.237953 
L 172.270026 147.306148 
L 170.967954 148.191228 
L 170.425005 148.446756 
L 169.982602 148.651144 
L 170.040919 148.771491 
L 169.796592 149.294758 
L 169.365249 149.577304 
L 169.18125 150.103654 
L 168.776049 150.389428 
L 168.182827 151.078658 
L 167.848008 151.817364 
L 167.657976 151.974794 
L 167.594632 152.195619 
L 166.659553 152.727708 
L 166.484603 153.214322 
L 166.145763 153.723375 
L 164.625505 155.293389 
L 163.353597 156.963033 
L 162.587436 157.487524 
L 159.770134 160.066232 
L 159.457435 160.609695 
L 159.378004 160.77505 
L 155.572334 163.51544 
L 155.204335 163.705102 
L 154.521627 163.895857 
L 154.207923 164.176327 
L 153.969629 164.557665 
L 153.761498 165.25947 
L 153.49304 165.546356 
L 152.22817 166.540979 
L 151.743538 166.776077 
L 151.329288 167.358032 
L 150.738077 167.613111 
L 150.360023 167.930767 
L 150.120723 167.966554 
L 149.297251 168.304243 
L 147.78001 169.718845 
L 146.710199 170.165458 
L 146.233611 170.639805 
L 145.998333 170.562806 
L 145.909852 170.913168 
L 145.614247 171.212124 
L 144.590687 171.881161 
L 144.431824 171.837685 
L 144.381551 171.983715 
L 141.658763 173.819286 
L 141.491856 174.012927 
L 141.125868 174.088595 
L 139.816758 174.682642 
L 139.245656 174.78051 
L 138.302534 175.407561 
L 137.707301 175.47425 
L 137.295061 175.703184 
L 135.865296 176.250895 
L 135.705427 176.565187 
L 135.436969 176.602941 
L 133.771926 177.27565 
L 133.262157 177.300064 
L 131.885681 177.169107 
L 131.431212 177.304503 
L 130.677116 176.937123 
L 129.033188 176.631811 
L 127.336975 176.54742 
L 126.252082 176.697321 
L 125.238577 176.993735 
L 123.92444 177.697286 
L 123.36842 178.514613 
L 123.132136 179.60166 
L 123.187437 179.750068 
L 123.484048 179.977074 
L 123.54337 180.060114 
L 123.899303 180.302557 
L 124.195914 180.916745 
L 124.152679 180.960998 
L 123.763566 180.847042 
L 122.538914 181.10481 
L 121.529431 180.860319 
L 120.606418 180.934446 
L 120.27361 180.752993 
L 119.834224 180.682174 
L 119.41193 180.395536 
L 118.963494 180.229497 
L 117.914799 179.971537 
L 116.783655 179.949392 
L 114.95271 180.283739 
L 114.464056 180.640123 
L 114.638001 181.197725 
L 114.290111 181.704206 
L 113.571207 182.286719 
L 113.536015 182.656857 
L 113.821566 182.908704 
L 113.779337 183.025773 
L 113.401284 183.279749 
L 113.245437 183.076572 
L 112.986028 182.995955 
L 112.141441 182.976075 
L 111.176198 182.771741 
L 110.159677 182.889928 
L 109.091877 182.630343 
L 108.556972 182.374016 
L 107.885324 181.93194 
L 106.165985 181.656664 
L 105.995057 181.544987 
L 105.19471 181.230908 
L 102.718259 180.987549 
L 102.18637 180.806104 
L 100.869216 180.682174 
L 98.676306 180.209571 
L 98.096155 180.230604 
L 95.841911 180.764058 
L 95.406546 181.095961 
L 95.286896 181.392381 
L 95.370349 181.663297 
L 95.588535 181.849032 
L 95.870064 181.981682 
L 91.534515 181.522871 
L 91.429947 181.045075 
L 90.905097 180.963211 
L 90.800529 180.860319 
L 90.936266 181.145738 
L 91.180593 181.281785 
L 91.30527 181.570419 
L 91.148418 181.587005 
L 90.633622 181.509602 
L 90.034367 181.610225 
L 88.494001 181.053925 
L 88.355247 180.969849 
L 88.236603 180.54495 
L 88.508077 180.496254 
L 88.039532 180.262707 
L 87.494573 180.209571 
L 87.775096 180.615777 
L 88.170242 180.860319 
L 87.943008 180.93334 
L 87.643381 180.879128 
L 86.004479 180.395536 
L 85.437399 180.448663 
L 85.236307 180.53499 
L 84.096114 181.261877 
L 83.541099 181.378004 
L 81.869018 181.270725 
L 80.559907 181.616859 
L 79.995844 182.124264 
L 79.841003 182.409375 
L 79.895297 182.630343 
L 80.294466 182.908704 
L 79.87921 183.120744 
L 78.272483 183.340474 
L 77.813993 183.524839 
L 77.5023 183.836094 
L 77.465098 184.056792 
L 77.528442 184.500269 
L 77.094083 185.095717 
L 75.859377 185.660007 
L 74.795599 185.785612 
L 73.492521 185.543204 
L 72.756524 185.221384 
L 71.537905 185.538796 
L 71.248332 185.845105 
L 70.425865 186.17336 
L 69.893976 186.246048 
L 69.35706 186.205299 
L 66.835363 185.417572 
L 65.044637 185.377897 
L 63.707374 185.886968 
L 64.041187 185.937643 
L 64.336792 186.142521 
L 64.4856 186.426647 
L 64.383043 186.708501 
L 64.150782 186.793264 
L 61.96692 186.433254 
L 60.238533 186.647952 
L 59.722731 186.867014 
L 59.294405 187.176271 
L 58.386473 188.209091 
L 57.889776 188.417962 
L 57.695722 188.66416 
L 56.76567 189.171777 
L 56.374546 189.590226 
L 55.571182 189.861422 
L 54.656213 190.465067 
L 54.308323 190.888524 
L 54.474224 191.334848 
L 53.36319 191.520125 
L 53.184218 191.432424 
L 52.009839 190.637321 
L 49.850108 190.730569 
L 49.474066 190.966397 
L 49.258897 190.855619 
L 49.144275 190.691077 
L 48.520889 190.344363 
L 47.577766 189.484804 
L 46.753288 189.022372 
L 46.329989 188.64218 
L 45.737773 188.683942 
L 45.502495 188.857565 
L 45.28632 188.765262 
L 45.072157 188.857565 
L 45.118408 188.70702 
L 45.914734 187.64165 
L 45.854406 187.272003 
L 45.40597 186.436557 
L 44.99172 186.036782 
L 44.834868 186.001533 
L 43.971177 186.164549 
L 43.048164 186.072029 
L 42.878241 185.921118 
L 42.456953 185.324993 
L 42.775684 185.272087 
L 43.004929 184.790312 
L 43.132623 184.482621 
L 42.91846 184.59512 
L 42.496166 185.137607 
L 41.39217 185.091307 
L 41.036236 185.212565 
L 39.833705 185.397735 
L 39.266625 185.666618 
L 39.035369 185.435206 
L 39.232439 184.320472 
L 39.423477 183.939828 
L 39.405378 183.741181 
L 39.211324 182.999268 
L 39.651716 182.528703 
L 38.933817 181.7031 
L 38.200836 181.538352 
L 37.045561 181.437723 
L 35.724385 181.560467 
L 34.505766 182.445838 
L 34.518837 182.770637 
L 34.74205 182.992641 
L 34.937109 183.814022 
L 34.876782 184.988779 
L 35.087928 185.137607 
L 34.856672 185.201542 
L 34.255407 184.809058 
L 34.068391 184.584091 
L 33.744632 183.798571 
L 33.790884 183.456395 
L 33.646097 183.372492 
L 33.426907 182.868943 
L 32.956351 182.625924 
L 32.964395 182.260197 
L 33.308262 181.842399 
L 33.39071 181.378004 
L 33.47718 181.230908 
L 33.131301 181.331555 
L 32.938253 180.881341 
L 33.646097 179.466526 
L 34.047276 179.16962 
L 34.922027 179.123083 
L 35.087928 178.621035 
L 35.033633 178.361615 
L 34.74205 177.830403 
L 34.711886 177.561935 
L 34.384106 176.354187 
L 33.879364 175.43646 
L 32.964395 174.466861 
L 32.93222 173.618934 
L 32.846756 173.382922 
L 32.189184 172.5632 
L 30.854937 171.693868 
L 30.976598 171.463056 
L 30.904205 171.192047 
L 29.978175 169.587063 
L 29.201959 168.970404 
L 28.946572 168.874303 
L 28.492103 168.210326 
L 28.990812 168.020233 
L 29.121522 168.069436 
L 29.884667 169.111191 
L 30.273781 169.569194 
L 30.432643 169.625036 
L 30.623681 169.52005 
L 30.573408 169.365906 
L 30.241606 168.994987 
L 30.125978 168.637369 
L 29.926896 168.594895 
L 29.511641 168.069436 
L 29.511641 167.272994 
L 29.335685 167.005534 
L 29.043096 166.870104 
L 28.316148 166.896967 
L 28.492103 167.186832 
L 28.212585 167.280827 
L 27.971275 167.460965 
L 27.731975 167.044706 
L 27.67768 166.829807 
L 27.548981 166.554414 
L 27.575123 166.233044 
L 27.339845 165.41861 
L 27.510773 164.824532 
L 27.120655 164.255969 
L 27.168917 164.239144 
L 27.381069 164.208857 
L 27.679691 163.973273 
L 27.802357 163.905955 
L 27.886816 163.031615 
L 28.349328 162.789072 
L 28.829938 162.740782 
L 28.738441 162.842974 
L 28.883228 163.047334 
L 29.511641 163.596246 
L 30.044535 163.797117 
L 30.517102 163.682658 
L 30.928336 163.381874 
L 32.423456 161.951037 
L 32.888985 160.919016 
L 33.223803 159.242154 
L 33.094099 158.059142 
L 32.946296 157.747997 
L 33.015673 157.521354 
L 33.308262 157.152551 
L 33.365573 156.592941 
L 32.887979 154.777043 
L 32.749226 153.29239 
L 32.457642 152.385837 
L 32.469708 151.484318 
L 31.95089 150.200053 
L 31.480334 148.762408 
L 31.184728 148.286631 
L 30.49096 147.272051 
L 29.926896 146.473931 
L 29.244188 145.654848 
L 29.165762 145.39992 
L 27.61333 143.488689 
L 27.465528 142.827439 
L 27.311692 142.651812 
L 26.698361 142.108818 
L 26.632 141.92625 
L 25.568223 140.131212 
L 25.179109 139.264818 
L 24.31944 138.070626 
L 23.569366 136.520287 
L 23.31599 135.510598 
L 22.258245 133.917209 
L 22.304496 133.383377 
L 22.000847 133.037712 
L 20.122645 129.65811 
L 19.899433 128.34848 
L 19.082998 126.746948 
L 19.036747 126.194239 
L 18.749185 125.056994 
L 17.97498 123.240156 
L 17.716577 122.213997 
L 17.405889 120.85817 
L 17.389802 120.274231 
L 16.841826 118.858604 
L 16.790547 118.319123 
L 15.825304 115.636196 
L 15.272301 114.889688 
L 14.940499 113.897254 
L 14.757505 113.636529 
L 14.724324 113.171999 
L 14.506139 112.62579 
L 14.331189 111.732093 
L 13.428285 110.842531 
L 13.144745 110.093633 
L 12.588725 109.300005 
L 11.756203 108.566697 
L 11.4978 107.746563 
L 11.244424 106.413783 
L 10.946807 106.350622 
L 10.683376 105.742278 
L 10.16858 105.232019 
L 10.145455 105.154763 
L 10.273148 105.061115 
L 10.379727 104.62089 
L 10.356601 104.476854 
L 11.719278 103.804475 
L 12.782965 102.796824 
L 12.94769 103.030562 
L 13.034521 103.347615 
L 13.240108 103.369941 
L 13.708743 102.845956 
L 13.878576 102.357539 
L 13.957746 101.740842 
L 14.270595 101.49797 
L 14.183764 101.234194 
L 13.832606 100.597671 
L 13.836437 100.044416 
L 14.163333 99.984755 
L 14.411058 100.123465 
L 14.527259 100.032484 
L 14.480013 99.678953 
L 14.349765 99.431284 
L 14.467243 99.241777 
L 14.919278 99.197008 
L 14.914171 99.092542 
L 14.688153 98.641767 
L 14.813293 98.60146 
L 14.865647 98.64326 
L 15.279374 98.552194 
L 15.414729 97.366364 
L 15.79781 97.080975 
L 16.045536 97.261777 
L 16.19366 97.20201 
L 16.512894 96.965908 
L 16.842343 97.054077 
L 17.39398 96.661016 
L 17.763014 96.601227 
L 17.9022 96.661016 
L 18.216326 97.172126 
L 18.378497 97.435089 
L 18.928856 97.648714 
L 19.041227 97.899649 
L 19.065488 99.228346 
L 19.32726 99.564075 
L 19.72311 99.641656 
L 20.826383 99.431284 
L 20.965569 99.499919 
L 21.375465 100.779561 
L 21.63596 101.213329 
L 21.632129 101.91813 
L 21.528697 102.257752 
L 20.699966 103.002277 
L 20.800844 103.262776 
L 21.135401 103.712221 
L 21.30268 104.282026 
L 21.754715 104.454562 
L 21.89007 104.771324 
L 21.680652 106.366044 
L 22.141626 106.441801 
L 23.896136 106.019894 
L 24.082568 106.155095 
L 24.194939 107.104138 
L 24.860222 107.343163 
L 25.137317 107.274874 
L 25.516567 107.038808 
L 25.914971 107.003173 
L 28.425426 107.665268 
L 28.842984 107.938335 
L 29.593823 108.579259 
L 30.067566 108.8314 
L 31.335563 109.208052 
L 31.776105 109.050878 
L 33.138596 108.910001 
L 33.960942 109.160605 
L 34.972275 108.83585 
L 35.179139 109.007874 
L 35.892946 108.669738 
L 38.261661 108.313724 
L 40.842348 108.697919 
L 41.047935 108.896654 
L 41.576586 109.584609 
L 42.203562 109.747657 
L 42.412979 110.027761 
L 42.889276 110.001086 
L 43.40005 109.827692 
L 44.20452 109.341488 
L 44.415214 109.059775 
L 44.96685 108.933728 
L 44.973235 108.760212 
L 44.430537 107.632615 
L 44.47523 107.332771 
L 44.830218 106.726968 
L 45.166052 106.572509 
L 45.592549 106.842802 
L 45.77132 106.76261 
L 47.026547 106.379414 
L 47.370043 105.991664 
L 47.801647 104.71333 
L 47.998296 104.613695 
L 48.352007 103.975577 
L 48.668687 103.753885 
L 50.121839 103.542579 
L 50.64666 103.241938 
L 51.604362 103.091596 
L 52.482893 102.385835 
L 53.532534 102.308391 
L 53.551688 99.693871 
L 53.529981 48.562994 
L 53.529981 48.562994 
" clip-path="url(#p26c5027e35)" style="fill: none; stroke: #000000; stroke-width: 0.5; stroke-linecap: square"/>
   </g>
  </g>
 </g>
 <defs>
  <clipPath id="p26c5027e35">
   <rect x="0" y="-0" width="223.2" height="200.735446"/>
  </clipPath>
 </defs>
</svg>
