<?xml version="1.0" encoding="utf-8" standalone="no"?>
<!DOCTYPE svg PUBLIC "-//W3C//DTD SVG 1.1//EN"
  "http://www.w3.org/Graphics/SVG/1.1/DTD/svg11.dtd">
<svg xmlns:xlink="http://www.w3.org/1999/xlink" width="223.2pt" height="96.491583pt" viewBox="0 0 223.2 96.491583" xmlns="http://www.w3.org/2000/svg" version="1.1">
 <metadata>
  <rdf:RDF xmlns:dc="http://purl.org/dc/elements/1.1/" xmlns:cc="http://creativecommons.org/ns#" xmlns:rdf="http://www.w3.org/1999/02/22-rdf-syntax-ns#">
   <cc:Work>
    <dc:type rdf:resource="http://purl.org/dc/dcmitype/StillImage"/>
    <dc:date>2026-04-26T19:22:31.677321</dc:date>
    <dc:format>image/svg+xml</dc:format>
    <dc:creator>
     <cc:Agent>
      <dc:title>Matplotlib v3.10.9, https://matplotlib.org/</dc:title>
     </cc:Agent>
    </dc:creator>
   </cc:Work>
  </rdf:RDF>
 </metadata>
 <defs>
  <style type="text/css">*{stroke-linejoin: round; stroke-linecap: butt}</style>
 </defs>
 <g id="figure_1">
  <g id="patch_1">
   <path d="M 0 96.491583 
L 223.2 96.491583 
L 223.2 0 
L 0 0 
z
" style="fill: #ffffff"/>
  </g>
  <g id="axes_1">
   <g id="patch_2">
    <path d="M 10.436994 4.385981 
L 209.701898 4.655887 
L 209.118819 7.493304 
L 201.830418 12.778143 
L 206.494993 17.537883 
L 212.617263 20.401401 
L 212.617263 65.863718 
L 209.118819 66.426591 
L 210.576489 68.539132 
L 209.701898 73.055328 
L 213.054545 75.601326 
L 211.013798 77.442613 
L 210.139206 82.552574 
L 207.806919 86.395604 
L 212.763033 92.105602 
L 207.952689 91.390765 
L 206.203454 87.67864 
L 192.20973 82.836936 
L 179.673677 82.836936 
L 175.88372 82.268261 
L 172.676815 84.828838 
L 158.974632 80.137527 
L 158.100014 78.860442 
L 74.86647 78.860442 
L 29.67837 78.718603 
L 10.291224 78.718603 
L 10.145455 27.928213 
L 10.582763 27.928213 
z
" clip-path="url(#p59c9722c12)" style="stroke: #000000; stroke-linejoin: miter"/>
   </g>
   <g id="line2d_1">
    <path d="M 10.436994 4.385981 
L 209.701898 4.655887 
L 209.118819 7.493304 
L 201.830418 12.778143 
L 206.494993 17.537883 
L 212.617263 20.401401 
L 212.617263 65.863718 
L 209.118819 66.426591 
L 210.576489 68.539132 
L 209.701898 73.055328 
L 213.054545 75.601326 
L 211.013798 77.442613 
L 210.139206 82.552574 
L 207.806919 86.395604 
L 212.763033 92.105602 
L 207.952689 91.390765 
L 206.203454 87.67864 
L 192.20973 82.836936 
L 179.673677 82.836936 
L 175.88372 82.268261 
L 172.676815 84.828838 
L 158.974632 80.137527 
L 158.100014 78.860442 
L 74.86647 78.860442 
L 29.67837 78.718603 
L 10.291224 78.718603 
L 10.145455 27.928213 
L 10.582763 27.928213 
L 10.436994 4.385981 
" clip-path="url(#p59c9722c12)" style="fill: none; stroke: #000000; stroke-width: 0.5; stroke-linecap: square"/>
   </g>
  </g>
 </g>
 <defs>
  <clipPath id="p59c9722c12">
   <rect x="0" y="-0" width="223.2" height="96.491583"/>
  </clipPath>
 </defs>
</svg>
