<?xml version="1.0" encoding="utf-8" standalone="no"?>
<!DOCTYPE svg PUBLIC "-//W3C//DTD SVG 1.1//EN"
  "http://www.w3.org/Graphics/SVG/1.1/DTD/svg11.dtd">
<svg xmlns:xlink="http://www.w3.org/1999/xlink" width="223.2pt" height="70.495788pt" viewBox="0 0 223.2 70.495788" xmlns="http://www.w3.org/2000/svg" version="1.1">
 <metadata>
  <rdf:RDF xmlns:dc="http://purl.org/dc/elements/1.1/" xmlns:cc="http://creativecommons.org/ns#" xmlns:rdf="http://www.w3.org/1999/02/22-rdf-syntax-ns#">
   <cc:Work>
    <dc:type rdf:resource="http://purl.org/dc/dcmitype/StillImage"/>
    <dc:date>2026-04-26T19:22:24.071806</dc:date>
    <dc:format>image/svg+xml</dc:format>
    <dc:creator>
     <cc:Agent>
      <dc:title>Matplotlib v3.10.9, https://matplotlib.org/</dc:title>
     </cc:Agent>
    </dc:creator>
   </cc:Work>
  </rdf:RDF>
 </metadata>
 <defs>
  <style type="text/css">*{stroke-linejoin: round; stroke-linecap: butt}</style>
 </defs>
 <g id="figure_1">
  <g id="patch_1">
   <path d="M 0 70.495788 
L 223.2 70.495788 
L 223.2 0 
L 0 0 
z
" style="fill: #ffffff"/>
  </g>
  <g id="axes_1">
   <g id="patch_2">
    <path d="M 201.8163 53.39158 
L 199.381347 53.516189 
L 201.276424 55.339399 
L 205.184101 56.844649 
L 209.613292 57.862787 
L 213.054545 58.258631 
L 213.054545 58.778799 
L 211.890322 58.914479 
L 210.648973 59.287567 
L 209.650018 59.801895 
L 209.242356 60.372633 
L 208.467432 60.581687 
L 206.708242 60.513887 
L 203.755448 60.146612 
L 201.948515 61.547653 
L 199.238114 61.920394 
L 196.307356 61.649314 
L 193.839349 61.09578 
L 189.355069 59.558872 
L 186.765866 58.914479 
L 183.97834 58.778799 
L 184.867116 59.502353 
L 186.005631 60.073151 
L 187.272688 60.446086 
L 188.547091 60.581687 
L 189.696624 60.818972 
L 191.50723 61.999454 
L 192.605346 62.518936 
L 193.578593 62.76735 
L 194.562857 62.891548 
L 196.920685 62.953646 
L 197.783753 63.156864 
L 199.557633 64.110665 
L 200.622696 64.415362 
L 200.622696 64.849781 
L 199.616395 64.911835 
L 198.654166 64.883629 
L 197.7507 64.73131 
L 196.920685 64.415362 
L 197.104317 64.742593 
L 197.368746 65.521023 
L 197.54136 65.836847 
L 194.922775 65.870683 
L 193.927493 65.599983 
L 193.222348 64.849781 
L 192.888138 65.757894 
L 192.910174 66.135719 
L 193.222348 66.739005 
L 192.08016 66.75028 
L 190.170393 66.406368 
L 189.164092 66.310516 
L 188.605853 66.513493 
L 187.933762 66.930676 
L 187.030295 67.280161 
L 184.39702 67.291434 
L 183.118945 67.088514 
L 182.094281 66.609338 
L 181.455244 65.836847 
L 182.288931 65.797371 
L 182.84717 65.67894 
L 183.97834 65.323616 
L 180.283675 64.415362 
L 176.221747 62.005101 
L 174.469903 61.671905 
L 172.372832 60.886764 
L 169.074811 59.208431 
L 168.938923 58.213394 
L 168.002403 58.343447 
L 166.614149 57.308513 
L 166.959376 56.256225 
L 166.162416 55.045047 
L 165.394836 53.606811 
L 162.317173 51.090985 
L 155.519136 46.847598 
L 154.263097 46.325249 
L 153.106219 46.25711 
L 151.662876 46.035645 
L 150.43989 45.660821 
L 149.922049 45.115534 
L 150.219532 44.348549 
L 151.497607 43.496103 
L 151.769382 42.950405 
L 150.763081 41.995185 
L 148.544813 41.062402 
L 146.172295 40.368306 
L 144.681208 40.083793 
L 142.125058 40.095174 
L 141.173847 40.300026 
L 139.355895 41.289937 
L 138.107201 41.449202 
L 136.799745 41.369571 
L 135.686939 41.085156 
L 134.148107 40.243124 
L 133.108753 39.434997 
L 131.81966 38.717737 
L 122.685831 36.735807 
L 122.043121 36.713019 
L 121.205762 36.781384 
L 120.478581 36.758596 
L 120.17008 36.479424 
L 120.272914 36.166036 
L 120.724647 35.379567 
L 120.838499 35.265569 
L 120.845844 34.912144 
L 121.337976 34.399032 
L 121.462846 34.091121 
L 121.352667 33.55505 
L 121.073547 33.520829 
L 120.662213 33.58927 
L 120.17008 33.39535 
L 118.829571 32.63095 
L 117.11078 32.174496 
L 115.226721 31.963362 
L 113.390407 31.912003 
L 114.06617 31.432605 
L 112.218838 30.998797 
L 112.744024 30.285155 
L 113.603419 29.959676 
L 114.686845 29.908281 
L 115.917176 30.00536 
L 113.750324 28.863059 
L 110.2246 28.817358 
L 103.195188 29.525648 
L 102.019947 29.360015 
L 98.545639 28.503141 
L 96.731361 27.834605 
L 95.886656 27.411691 
L 95.519393 27.125903 
L 95.592846 26.645717 
L 96.000507 25.99391 
L 96.084978 25.41631 
L 95.210892 25.158927 
L 94.028306 24.987325 
L 92.588635 24.563998 
L 91.207726 24.026171 
L 90.201426 23.49969 
L 89.481591 23.322268 
L 87.777491 23.61415 
L 86.811589 23.49969 
L 85.269085 23.018908 
L 83.142633 22.755589 
L 81.523003 22.824283 
L 78.922782 23.545475 
L 73.435874 23.831613 
L 71.720756 24.117723 
L 70.086436 24.724183 
L 69.546559 24.232159 
L 68.797343 23.957505 
L 67.92693 23.923171 
L 67.001427 24.197828 
L 65.987782 23.16773 
L 66.351372 22.686893 
L 73.127373 21.364185 
L 74.515627 21.324094 
L 72.7748 20.247148 
L 67.728608 19.34175 
L 66.388098 17.994598 
L 70.152543 18.034735 
L 74.335668 17.426889 
L 81.908629 15.591122 
L 79.668325 15.120522 
L 71.426945 15.132001 
L 68.297865 15.591122 
L 67.152005 15.407482 
L 65.029225 14.730212 
L 63.949472 14.586702 
L 55.575878 14.586702 
L 53.394336 14.879454 
L 52.601048 15.533735 
L 53.21805 16.205084 
L 55.245341 16.549306 
L 53.58164 16.876279 
L 46.489793 17.547321 
L 42.964069 17.381009 
L 41.06532 17.472769 
L 41.495017 17.163068 
L 41.913697 16.755819 
L 42.299323 16.549306 
L 41.098373 16.187872 
L 37.932567 14.586702 
L 41.215898 13.656592 
L 42.846545 13.019125 
L 44.150328 12.1747 
L 42.695967 11.950628 
L 39.577905 12.105756 
L 37.932567 11.692063 
L 43.639833 10.329912 
L 46.320852 9.329453 
L 47.848666 7.833884 
L 37.032773 7.833884 
L 31.766223 8.271129 
L 30.411023 8.069774 
L 28.486565 7.431102 
L 27.450883 7.310257 
L 22.401018 8.2136 
L 19.591457 8.38043 
L 17.255665 7.569205 
L 15.485457 7.143368 
L 11.959733 8.834848 
L 10.145455 8.794586 
L 10.369485 8.121552 
L 10.791837 7.482892 
L 11.504327 7.005245 
L 12.606116 6.826827 
L 12.172746 6.268482 
L 11.754066 5.946091 
L 11.137064 5.825185 
L 10.145455 5.85973 
L 11.636542 5.445164 
L 16.300781 5.416373 
L 20.968693 4.517938 
L 22.830716 4.408495 
L 24.762519 4.633137 
L 27.755712 5.635181 
L 29.301888 5.85973 
L 31.215328 5.71579 
L 33.209566 5.324238 
L 35.104643 4.713774 
L 36.698564 3.924593 
L 36.691218 3.26198 
L 38.641385 3.204354 
L 41.157136 3.515518 
L 42.861236 3.924593 
L 42.031221 4.091663 
L 41.56847 4.304808 
L 41.304041 4.713774 
L 41.06532 5.416373 
L 58.881244 5.186031 
L 65.271619 4.160793 
L 68.852432 3.924593 
L 68.852432 4.408495 
L 63.310435 5.85973 
L 63.927437 6.383613 
L 63.310435 7.310257 
L 61.45943 7.310257 
L 63.361852 8.190589 
L 64.845594 8.62778 
L 66.424824 8.788835 
L 68.576985 8.794586 
L 69.362928 8.719812 
L 70.901759 8.351667 
L 71.684029 8.271129 
L 76.921199 8.271129 
L 82.312618 9.933219 
L 83.142633 10.002213 
L 83.704545 8.863607 
L 85.059745 8.616276 
L 86.668357 8.622028 
L 88.012539 8.271129 
L 87.858288 7.569205 
L 89.246542 7.379312 
L 91.108565 7.408085 
L 92.38664 7.310257 
L 90.715594 8.409192 
L 91.281179 8.719812 
L 92.713504 8.696805 
L 93.616971 8.794586 
L 93.565554 9.553723 
L 92.695141 10.099951 
L 90.535635 10.726552 
L 90.910243 11.376008 
L 90.8221 11.996593 
L 90.425456 12.59407 
L 89.863544 13.17994 
L 92.276461 13.065073 
L 94.138484 12.140228 
L 95.871965 10.881745 
L 97.928638 9.760727 
L 99.963274 9.243191 
L 102.853634 8.834848 
L 105.299605 9.0304 
L 106.001077 10.243679 
L 102.126453 11.97361 
L 100.484788 12.967432 
L 101.685737 13.622138 
L 103.657939 13.421147 
L 110.929745 11.209347 
L 110.444958 10.985202 
L 109.552509 10.450634 
L 109.07874 10.243679 
L 111.017888 9.961966 
L 113.125977 10.071205 
L 117.760835 10.726552 
L 120.236188 11.410488 
L 120.838499 11.692063 
L 121.011112 12.444712 
L 119.909324 13.329261 
L 120.17008 14.104459 
L 119.733037 14.718731 
L 120.184771 15.13774 
L 121.110273 15.292701 
L 122.131264 15.068866 
L 122.454456 14.552259 
L 122.799683 12.795117 
L 123.306506 12.1747 
L 125.572518 11.795491 
L 134.456608 12.657258 
L 133.780844 13.17994 
L 135.554724 13.214399 
L 136.579388 13.329261 
L 137.482854 13.622138 
L 137.482854 14.104459 
L 136.740983 14.707251 
L 136.51328 15.00573 
L 136.248851 15.591122 
L 134.728382 15.13774 
L 133.10508 15.063127 
L 131.511159 15.36157 
L 130.089852 16.02722 
L 132.623966 16.325566 
L 133.641284 16.583725 
L 133.222604 17.036884 
L 132.164887 17.231893 
L 129.935601 17.197481 
L 128.855848 17.472769 
L 131.165932 18.160876 
L 134.089345 18.011799 
L 139.444038 17.036884 
L 144.681208 16.549306 
L 145.445114 16.945111 
L 146.253093 17.65628 
L 147.277756 18.05767 
L 148.684373 17.472769 
L 149.117744 17.965928 
L 149.257304 18.218211 
L 149.117744 18.470471 
L 148.684373 18.957732 
L 147.321828 18.441806 
L 145.849104 18.413141 
L 143.135031 18.957732 
L 141.856956 19.43918 
L 134.243595 22.051381 
L 133.626594 22.171623 
L 133.112426 22.34339 
L 132.60193 22.755589 
L 132.737817 23.076148 
L 133.207914 23.493967 
L 133.376855 24.037615 
L 132.60193 24.724183 
L 134.875288 24.838596 
L 136.645495 24.747066 
L 138.232071 24.392362 
L 144.387397 21.931133 
L 146.73788 21.518818 
L 148.071044 22.286136 
L 149.191196 21.71353 
L 150.49498 22.011299 
L 151.266232 22.85863 
L 150.814498 23.957505 
L 150.109354 24.180663 
L 149.191196 24.209272 
L 148.405254 24.352312 
L 148.071044 24.941563 
L 148.357509 25.347677 
L 148.890041 25.553572 
L 149.16916 25.879543 
L 148.684373 26.645717 
L 149.565804 27.308811 
L 149.734745 28.057467 
L 149.382173 28.811645 
L 148.684373 29.525648 
L 152.235806 27.59458 
L 154.174954 27.023013 
L 155.772548 27.337389 
L 158.130376 29.34288 
L 159.731642 30.245186 
L 161.626719 30.473573 
L 163.209622 29.925413 
L 163.033336 28.988734 
L 162.151905 27.766028 
L 161.626719 26.382725 
L 161.318218 25.856669 
L 159.221147 24.724183 
L 158.582109 24.152054 
L 158.211174 23.699993 
L 158.042233 23.144835 
L 157.983471 22.286136 
L 163.870695 23.305097 
L 166.606804 24.071947 
L 167.231151 25.158927 
L 168.281523 25.055967 
L 169.302514 25.055967 
L 170.062748 25.284761 
L 170.367576 25.902417 
L 170.525499 26.668585 
L 170.745857 27.217358 
L 170.602624 27.651731 
L 169.691812 28.086038 
L 172.402213 29.034433 
L 172.343451 29.365726 
L 171.124138 29.839754 
L 170.367576 31.215709 
L 171.572199 31.592413 
L 178.99091 31.432605 
L 178.741171 32.357086 
L 178.667718 33.281273 
L 178.149877 34.011287 
L 176.530248 34.353418 
L 176.981981 35.003355 
L 177.676108 35.447964 
L 178.568557 35.69874 
L 179.607911 35.789925 
L 179.593221 36.405354 
L 180.375491 36.815566 
L 181.543387 37.066223 
L 182.689247 37.225721 
L 183.221778 37.168758 
L 184.540252 36.735807 
L 185.197653 36.952291 
L 186.721794 37.704161 
L 188.936389 37.613036 
L 189.795785 37.806674 
L 190.141012 38.410285 
L 190.420132 39.213007 
L 191.125276 39.730957 
L 192.120559 40.004124 
L 190.559692 40.641413 
L 188.495674 41.363883 
L 184.540252 43.473368 
L 185.601642 43.92804 
L 187.283706 44.984877 
L 188.23859 45.337069 
L 189.678261 45.46203 
L 198.04451 45.257545 
L 199.381347 44.905343 
L 201.695103 43.962138 
L 202.763838 43.723447 
L 203.755448 43.905308 
L 203.402876 44.689456 
L 201.849354 46.80218 
L 199.741265 48.538899 
L 199.381347 48.709109 
L 201.533508 51.827831 
z
" clip-path="url(#p2c711065e4)" style="stroke: #000000; stroke-linejoin: miter"/>
   </g>
   <g id="line2d_1">
    <path d="M 201.8163 53.39158 
L 199.381347 53.516189 
L 201.276424 55.339399 
L 205.184101 56.844649 
L 209.613292 57.862787 
L 213.054545 58.258631 
L 213.054545 58.778799 
L 211.890322 58.914479 
L 210.648973 59.287567 
L 209.650018 59.801895 
L 209.242356 60.372633 
L 208.467432 60.581687 
L 206.708242 60.513887 
L 203.755448 60.146612 
L 201.948515 61.547653 
L 199.238114 61.920394 
L 196.307356 61.649314 
L 193.839349 61.09578 
L 189.355069 59.558872 
L 186.765866 58.914479 
L 183.97834 58.778799 
L 184.867116 59.502353 
L 186.005631 60.073151 
L 187.272688 60.446086 
L 188.547091 60.581687 
L 189.696624 60.818972 
L 191.50723 61.999454 
L 192.605346 62.518936 
L 193.578593 62.76735 
L 194.562857 62.891548 
L 196.920685 62.953646 
L 197.783753 63.156864 
L 199.557633 64.110665 
L 200.622696 64.415362 
L 200.622696 64.849781 
L 198.654166 64.883629 
L 197.7507 64.73131 
L 196.920685 64.415362 
L 197.104317 64.742593 
L 197.54136 65.836847 
L 194.922775 65.870683 
L 193.927493 65.599983 
L 193.222348 64.849781 
L 192.888138 65.757894 
L 192.910174 66.135719 
L 193.222348 66.739005 
L 192.08016 66.75028 
L 189.164092 66.310516 
L 188.605853 66.513493 
L 187.933762 66.930676 
L 187.030295 67.280161 
L 184.39702 67.291434 
L 183.118945 67.088514 
L 182.094281 66.609338 
L 181.455244 65.836847 
L 182.84717 65.67894 
L 183.97834 65.323616 
L 180.283675 64.415362 
L 176.221747 62.005101 
L 174.469903 61.671905 
L 172.372832 60.886764 
L 169.074811 59.208431 
L 168.938923 58.213394 
L 168.002403 58.343447 
L 166.614149 57.308513 
L 166.959376 56.256225 
L 166.162416 55.045047 
L 165.394836 53.606811 
L 162.317173 51.090985 
L 155.519136 46.847598 
L 154.263097 46.325249 
L 153.106219 46.25711 
L 151.662876 46.035645 
L 150.43989 45.660821 
L 149.922049 45.115534 
L 150.219532 44.348549 
L 151.497607 43.496103 
L 151.769382 42.950405 
L 150.763081 41.995185 
L 148.544813 41.062402 
L 146.172295 40.368306 
L 144.681208 40.083793 
L 142.125058 40.095174 
L 141.173847 40.300026 
L 139.355895 41.289937 
L 138.107201 41.449202 
L 136.799745 41.369571 
L 135.686939 41.085156 
L 134.148107 40.243124 
L 133.108753 39.434997 
L 131.81966 38.717737 
L 122.685831 36.735807 
L 120.478581 36.758596 
L 120.17008 36.479424 
L 120.272914 36.166036 
L 120.838499 35.265569 
L 120.845844 34.912144 
L 121.337976 34.399032 
L 121.462846 34.091121 
L 121.352667 33.55505 
L 121.073547 33.520829 
L 120.662213 33.58927 
L 120.17008 33.39535 
L 118.829571 32.63095 
L 117.11078 32.174496 
L 115.226721 31.963362 
L 113.390407 31.912003 
L 114.06617 31.432605 
L 112.218838 30.998797 
L 112.744024 30.285155 
L 113.603419 29.959676 
L 114.686845 29.908281 
L 115.917176 30.00536 
L 113.750324 28.863059 
L 110.2246 28.817358 
L 103.195188 29.525648 
L 102.019947 29.360015 
L 98.545639 28.503141 
L 95.886656 27.411691 
L 95.519393 27.125903 
L 95.592846 26.645717 
L 96.000507 25.99391 
L 96.084978 25.41631 
L 95.210892 25.158927 
L 94.028306 24.987325 
L 92.588635 24.563998 
L 91.207726 24.026171 
L 90.201426 23.49969 
L 89.481591 23.322268 
L 87.777491 23.61415 
L 86.811589 23.49969 
L 85.269085 23.018908 
L 83.142633 22.755589 
L 81.523003 22.824283 
L 78.922782 23.545475 
L 73.435874 23.831613 
L 71.720756 24.117723 
L 70.086436 24.724183 
L 69.546559 24.232159 
L 68.797343 23.957505 
L 67.92693 23.923171 
L 67.001427 24.197828 
L 65.987782 23.16773 
L 66.351372 22.686893 
L 73.127373 21.364185 
L 74.515627 21.324094 
L 72.7748 20.247148 
L 67.728608 19.34175 
L 66.388098 17.994598 
L 70.152543 18.034735 
L 74.335668 17.426889 
L 81.908629 15.591122 
L 79.668325 15.120522 
L 71.426945 15.132001 
L 68.297865 15.591122 
L 67.152005 15.407482 
L 65.029225 14.730212 
L 63.949472 14.586702 
L 55.575878 14.586702 
L 53.394336 14.879454 
L 52.601048 15.533735 
L 53.21805 16.205084 
L 55.245341 16.549306 
L 53.58164 16.876279 
L 46.489793 17.547321 
L 42.964069 17.381009 
L 41.06532 17.472769 
L 42.299323 16.549306 
L 41.098373 16.187872 
L 37.932567 14.586702 
L 41.215898 13.656592 
L 42.846545 13.019125 
L 44.150328 12.1747 
L 42.695967 11.950628 
L 39.577905 12.105756 
L 37.932567 11.692063 
L 43.639833 10.329912 
L 46.320852 9.329453 
L 47.848666 7.833884 
L 37.032773 7.833884 
L 31.766223 8.271129 
L 30.411023 8.069774 
L 28.486565 7.431102 
L 27.450883 7.310257 
L 22.401018 8.2136 
L 19.591457 8.38043 
L 17.255665 7.569205 
L 15.485457 7.143368 
L 11.959733 8.834848 
L 10.145455 8.794586 
L 10.369485 8.121552 
L 10.791837 7.482892 
L 11.504327 7.005245 
L 12.606116 6.826827 
L 12.172746 6.268482 
L 11.754066 5.946091 
L 11.137064 5.825185 
L 10.145455 5.85973 
L 11.636542 5.445164 
L 16.300781 5.416373 
L 20.968693 4.517938 
L 22.830716 4.408495 
L 24.762519 4.633137 
L 27.755712 5.635181 
L 29.301888 5.85973 
L 31.215328 5.71579 
L 33.209566 5.324238 
L 35.104643 4.713774 
L 36.698564 3.924593 
L 36.691218 3.26198 
L 38.641385 3.204354 
L 41.157136 3.515518 
L 42.861236 3.924593 
L 42.031221 4.091663 
L 41.56847 4.304808 
L 41.304041 4.713774 
L 41.06532 5.416373 
L 58.881244 5.186031 
L 65.271619 4.160793 
L 68.852432 3.924593 
L 68.852432 4.408495 
L 63.310435 5.85973 
L 63.927437 6.383613 
L 63.310435 7.310257 
L 61.45943 7.310257 
L 63.361852 8.190589 
L 64.845594 8.62778 
L 66.424824 8.788835 
L 69.362928 8.719812 
L 71.684029 8.271129 
L 76.921199 8.271129 
L 82.312618 9.933219 
L 83.142633 10.002213 
L 83.704545 8.863607 
L 85.059745 8.616276 
L 86.668357 8.622028 
L 88.012539 8.271129 
L 87.858288 7.569205 
L 89.246542 7.379312 
L 91.108565 7.408085 
L 92.38664 7.310257 
L 90.715594 8.409192 
L 91.281179 8.719812 
L 92.713504 8.696805 
L 93.616971 8.794586 
L 93.565554 9.553723 
L 92.695141 10.099951 
L 90.535635 10.726552 
L 90.910243 11.376008 
L 90.8221 11.996593 
L 90.425456 12.59407 
L 89.863544 13.17994 
L 92.276461 13.065073 
L 94.138484 12.140228 
L 95.871965 10.881745 
L 97.928638 9.760727 
L 99.963274 9.243191 
L 102.853634 8.834848 
L 105.299605 9.0304 
L 106.001077 10.243679 
L 102.126453 11.97361 
L 100.484788 12.967432 
L 101.685737 13.622138 
L 103.657939 13.421147 
L 110.929745 11.209347 
L 109.07874 10.243679 
L 111.017888 9.961966 
L 113.125977 10.071205 
L 117.760835 10.726552 
L 120.838499 11.692063 
L 121.011112 12.444712 
L 119.909324 13.329261 
L 120.17008 14.104459 
L 119.733037 14.718731 
L 120.184771 15.13774 
L 121.110273 15.292701 
L 122.131264 15.068866 
L 122.454456 14.552259 
L 122.799683 12.795117 
L 123.306506 12.1747 
L 125.572518 11.795491 
L 134.456608 12.657258 
L 133.780844 13.17994 
L 136.579388 13.329261 
L 137.482854 13.622138 
L 137.482854 14.104459 
L 136.51328 15.00573 
L 136.248851 15.591122 
L 134.728382 15.13774 
L 133.10508 15.063127 
L 131.511159 15.36157 
L 130.089852 16.02722 
L 132.623966 16.325566 
L 133.641284 16.583725 
L 133.222604 17.036884 
L 132.164887 17.231893 
L 129.935601 17.197481 
L 128.855848 17.472769 
L 131.165932 18.160876 
L 134.089345 18.011799 
L 139.444038 17.036884 
L 144.681208 16.549306 
L 145.445114 16.945111 
L 146.253093 17.65628 
L 147.277756 18.05767 
L 148.684373 17.472769 
L 149.257304 18.218211 
L 149.117744 18.470471 
L 148.684373 18.957732 
L 147.321828 18.441806 
L 145.849104 18.413141 
L 143.135031 18.957732 
L 141.856956 19.43918 
L 133.112426 22.34339 
L 132.60193 22.755589 
L 132.737817 23.076148 
L 133.207914 23.493967 
L 133.376855 24.037615 
L 132.60193 24.724183 
L 134.875288 24.838596 
L 136.645495 24.747066 
L 138.232071 24.392362 
L 144.387397 21.931133 
L 146.73788 21.518818 
L 148.071044 22.286136 
L 149.191196 21.71353 
L 150.49498 22.011299 
L 151.266232 22.85863 
L 150.814498 23.957505 
L 150.109354 24.180663 
L 149.191196 24.209272 
L 148.405254 24.352312 
L 148.071044 24.941563 
L 148.357509 25.347677 
L 148.890041 25.553572 
L 149.16916 25.879543 
L 148.684373 26.645717 
L 149.565804 27.308811 
L 149.734745 28.057467 
L 149.382173 28.811645 
L 148.684373 29.525648 
L 152.235806 27.59458 
L 154.174954 27.023013 
L 155.772548 27.337389 
L 158.130376 29.34288 
L 159.731642 30.245186 
L 161.626719 30.473573 
L 163.209622 29.925413 
L 163.033336 28.988734 
L 162.151905 27.766028 
L 161.318218 25.856669 
L 159.221147 24.724183 
L 158.211174 23.699993 
L 158.042233 23.144835 
L 157.983471 22.286136 
L 163.870695 23.305097 
L 166.606804 24.071947 
L 167.231151 25.158927 
L 169.302514 25.055967 
L 170.062748 25.284761 
L 170.367576 25.902417 
L 170.745857 27.217358 
L 170.602624 27.651731 
L 169.691812 28.086038 
L 172.402213 29.034433 
L 172.343451 29.365726 
L 171.124138 29.839754 
L 170.367576 31.215709 
L 171.572199 31.592413 
L 178.99091 31.432605 
L 178.741171 32.357086 
L 178.667718 33.281273 
L 178.149877 34.011287 
L 176.530248 34.353418 
L 176.981981 35.003355 
L 177.676108 35.447964 
L 178.568557 35.69874 
L 179.607911 35.789925 
L 179.593221 36.405354 
L 180.375491 36.815566 
L 182.689247 37.225721 
L 183.221778 37.168758 
L 184.540252 36.735807 
L 185.197653 36.952291 
L 186.721794 37.704161 
L 188.936389 37.613036 
L 189.795785 37.806674 
L 190.141012 38.410285 
L 190.420132 39.213007 
L 191.125276 39.730957 
L 192.120559 40.004124 
L 190.559692 40.641413 
L 188.495674 41.363883 
L 184.540252 43.473368 
L 185.601642 43.92804 
L 187.283706 44.984877 
L 188.23859 45.337069 
L 189.678261 45.46203 
L 198.04451 45.257545 
L 199.381347 44.905343 
L 201.695103 43.962138 
L 202.763838 43.723447 
L 203.755448 43.905308 
L 203.402876 44.689456 
L 201.849354 46.80218 
L 199.381347 48.709109 
L 201.533508 51.827831 
L 201.8163 53.39158 
L 201.8163 53.39158 
" clip-path="url(#p2c711065e4)" style="fill: none; stroke: #000000; stroke-width: 0.5; stroke-linecap: square"/>
   </g>
  </g>
 </g>
 <defs>
  <clipPath id="p2c711065e4">
   <rect x="0" y="-0" width="223.2" height="70.495788"/>
  </clipPath>
 </defs>
</svg>
