<?xml version="1.0" encoding="utf-8" standalone="no"?>
<!DOCTYPE svg PUBLIC "-//W3C//DTD SVG 1.1//EN"
  "http://www.w3.org/Graphics/SVG/1.1/DTD/svg11.dtd">
<svg xmlns:xlink="http://www.w3.org/1999/xlink" width="223.2pt" height="140.474678pt" viewBox="0 0 223.2 140.474678" xmlns="http://www.w3.org/2000/svg" version="1.1">
 <metadata>
  <rdf:RDF xmlns:dc="http://purl.org/dc/elements/1.1/" xmlns:cc="http://creativecommons.org/ns#" xmlns:rdf="http://www.w3.org/1999/02/22-rdf-syntax-ns#">
   <cc:Work>
    <dc:type rdf:resource="http://purl.org/dc/dcmitype/StillImage"/>
    <dc:date>2026-04-26T19:21:57.735915</dc:date>
    <dc:format>image/svg+xml</dc:format>
    <dc:creator>
     <cc:Agent>
      <dc:title>Matplotlib v3.10.9, https://matplotlib.org/</dc:title>
     </cc:Agent>
    </dc:creator>
   </cc:Work>
  </rdf:RDF>
 </metadata>
 <defs>
  <style type="text/css">*{stroke-linejoin: round; stroke-linecap: butt}</style>
 </defs>
 <g id="figure_1">
  <g id="patch_1">
   <path d="M 0 140.474678 
L 223.2 140.474678 
L 223.2 -0 
L 0 -0 
z
" style="fill: #ffffff"/>
  </g>
  <g id="axes_1">
   <g id="patch_2">
    <path d="M 130.798079 12.703874 
L 130.759874 12.884909 
L 130.748233 13.212699 
L 130.752391 13.402587 
L 131.213902 13.561527 
L 131.414306 13.754301 
L 131.468357 14.057426 
L 131.511653 14.124382 
L 131.549849 14.183454 
L 131.723643 14.162918 
L 131.912405 14.097286 
L 132.258331 14.064673 
L 132.58513 13.966438 
L 132.732315 13.978516 
L 133.037495 14.081584 
L 133.196321 14.162113 
L 133.193826 14.235803 
L 133.148923 14.330844 
L 133.175532 14.46738 
L 133.292781 14.734065 
L 133.37261 14.805381 
L 133.568856 14.86945 
L 133.74265 14.887986 
L 133.945549 14.86945 
L 134.121006 14.797726 
L 134.212477 14.661142 
L 134.339705 14.394881 
L 134.580023 14.291377 
L 134.899339 14.299431 
L 135.399933 14.405352 
L 136.070995 14.654696 
L 136.249779 14.632136 
L 136.427731 14.587017 
L 136.620651 14.588628 
L 137.082994 14.926672 
L 137.144528 15.497465 
L 136.969903 16.119433 
L 136.724595 16.61342 
L 136.520865 16.808421 
L 135.858118 17.316898 
L 135.725901 17.449009 
L 135.927968 17.788053 
L 136.219843 18.023716 
L 136.575747 18.170074 
L 136.969903 18.245283 
L 137.410625 18.271972 
L 137.684205 18.207678 
L 137.821412 17.996226 
L 137.860494 17.58639 
L 137.971922 17.272866 
L 138.248829 17.049904 
L 138.609723 16.952577 
L 138.973111 17.02123 
L 138.636332 17.227623 
L 138.505779 17.432444 
L 138.578124 17.641753 
L 138.850041 17.865254 
L 139.152726 17.996226 
L 140.085727 18.114682 
L 140.638709 18.333439 
L 141.163418 18.639619 
L 141.767124 18.599976 
L 141.906825 18.639215 
L 142.172922 18.760581 
L 142.293497 18.832599 
L 142.850636 18.882367 
L 143.117564 18.937398 
L 143.313811 19.101296 
L 143.874276 19.40205 
L 144.489625 19.545375 
L 145.771877 19.621095 
L 147.012552 19.461159 
L 147.443296 19.567241 
L 147.678759 20.002585 
L 147.745149 20.12537 
L 147.736834 20.23517 
L 147.682783 20.307297 
L 147.665321 20.391586 
L 147.755128 20.534651 
L 147.918944 20.648956 
L 148.076939 20.663144 
L 148.234102 20.646524 
L 148.397086 20.665981 
L 148.949236 20.91207 
L 149.23529 21.084004 
L 149.859785 21.686009 
L 149.883069 21.752966 
L 149.852302 21.821145 
L 149.848975 21.879994 
L 149.955414 21.915305 
L 150.216521 21.915305 
L 150.287203 21.931135 
L 150.380337 22.026117 
L 150.357885 22.12801 
L 150.35539 22.221794 
L 150.51089 22.29569 
L 150.637286 22.281479 
L 150.906709 22.148309 
L 151.048073 22.113802 
L 151.076346 21.73998 
L 151.486301 21.748096 
L 152.354441 22.039919 
L 152.845888 22.012316 
L 153.235054 21.84509 
L 154.008397 21.406461 
L 154.148098 21.508695 
L 154.274078 21.473804 
L 154.385506 21.35413 
L 154.473234 21.198372 
L 154.720621 21.365894 
L 154.757365 21.381925 
L 155.692289 21.789896 
L 155.883546 22.082137 
L 156.314706 22.119079 
L 156.78079 22.026929 
L 157.07017 21.938847 
L 157.034414 22.211644 
L 157.128379 22.483298 
L 157.322546 22.716029 
L 157.587811 22.873246 
L 157.68635 22.960193 
L 157.707139 23.071122 
L 157.752043 23.172716 
L 157.921679 23.227582 
L 158.126657 23.26985 
L 158.237669 23.341386 
L 158.312508 23.420651 
L 158.405642 23.490165 
L 159.040948 23.671493 
L 159.598087 23.634086 
L 160.839594 23.304398 
L 161.826646 23.19832 
L 162.128499 23.050804 
L 162.389606 23.021548 
L 163.246105 23.182876 
L 163.503054 23.274728 
L 163.848148 23.715001 
L 164.098861 23.930533 
L 164.337932 23.905318 
L 164.789465 23.445041 
L 165.074687 23.238149 
L 165.366562 23.162556 
L 165.811442 23.436098 
L 165.846783 23.487319 
L 165.841378 23.552772 
L 165.853019 23.617416 
L 165.931601 23.671493 
L 166.253411 23.717034 
L 166.567322 23.704835 
L 167.181007 23.588143 
L 167.447935 23.669054 
L 169.453638 23.626768 
L 170.024083 23.682065 
L 170.235297 23.626768 
L 170.342968 23.497357 
L 170.374997 23.458862 
L 170.391628 23.205635 
L 170.281864 22.967506 
L 170.088944 22.7924 
L 169.861099 22.733497 
L 169.959222 22.57549 
L 170.019093 22.508883 
L 170.138837 22.441063 
L 169.960885 22.263614 
L 170.187067 21.82358 
L 170.152142 21.488004 
L 170.228644 21.262457 
L 170.599516 21.157409 
L 171.040239 21.134292 
L 171.322966 21.15457 
L 171.878443 21.311943 
L 172.159507 21.356158 
L 172.472171 21.334253 
L 172.748246 21.369139 
L 173.443423 21.665314 
L 173.920734 21.79923 
L 174.060435 21.876341 
L 174.316553 22.059404 
L 174.489515 22.111366 
L 174.642521 22.053721 
L 174.793863 21.96523 
L 174.95851 21.92667 
L 175.094885 21.964418 
L 175.360981 22.121109 
L 175.484051 22.174292 
L 176.856111 22.240876 
L 177.192058 22.316398 
L 177.476449 22.500355 
L 177.634444 22.726185 
L 177.75585 22.969944 
L 177.920498 23.186534 
L 178.196573 23.332038 
L 178.374525 23.348296 
L 178.911707 23.223111 
L 180.894126 23.227582 
L 181.271651 23.301553 
L 181.201801 23.525127 
L 181.283293 23.588143 
L 181.434635 23.594242 
L 181.569346 23.646691 
L 181.853737 24.016353 
L 182.163074 24.32512 
L 182.43416 24.865184 
L 182.666995 25.085038 
L 182.595481 25.179916 
L 182.505674 25.339152 
L 182.485716 25.487823 
L 182.620428 25.553815 
L 182.618765 25.614515 
L 182.352668 25.948638 
L 182.299449 26.127969 
L 182.662005 26.092915 
L 182.944733 26.275534 
L 182.999615 26.525057 
L 182.681963 26.691033 
L 182.590492 26.708162 
L 182.317743 26.7983 
L 182.781749 27.323788 
L 182.781749 27.521733 
L 182.966353 27.621332 
L 183.940932 27.715634 
L 184.072317 27.70257 
L 184.258585 27.627864 
L 184.360034 27.53806 
L 184.429884 27.447448 
L 184.519692 27.373168 
L 185.534185 27.277266 
L 186.049747 27.119353 
L 186.224373 26.69348 
L 186.282581 26.644133 
L 186.330811 26.626597 
L 186.375715 26.639647 
L 186.417293 26.688586 
L 186.60855 26.739159 
L 186.803133 26.737528 
L 186.982748 26.676759 
L 187.135754 26.545446 
L 187.183984 26.568282 
L 187.215582 26.600497 
L 187.227224 26.640055 
L 187.218909 26.688586 
L 187.514941 26.777906 
L 188.514466 26.87784 
L 188.852076 26.980231 
L 189.755141 27.42949 
L 190.132666 27.493569 
L 190.433688 27.505814 
L 190.683153 27.585818 
L 190.902683 27.851184 
L 191.113897 28.442588 
L 191.266902 28.68693 
L 191.582892 28.887596 
L 191.780801 28.980381 
L 191.998668 29.005725 
L 192.41777 28.971389 
L 192.682203 28.922338 
L 192.868471 28.834462 
L 193.139557 28.623183 
L 193.523734 28.408679 
L 193.600236 28.316763 
L 193.721643 28.083538 
L 193.798146 28.001044 
L 194.054264 27.912432 
L 194.814302 27.982259 
L 195.808838 27.756052 
L 196.314421 27.716451 
L 196.763459 27.90059 
L 196.956379 28.016971 
L 197.892706 28.337597 
L 198.3933 28.417667 
L 198.649418 28.426655 
L 198.767499 28.682026 
L 199.02029 28.928469 
L 199.331291 29.107925 
L 199.628986 29.16557 
L 199.954955 29.300496 
L 200.13457 29.344658 
L 200.302543 29.340978 
L 200.410645 29.263696 
L 200.545356 29.00736 
L 200.670089 28.923973 
L 200.981089 28.917842 
L 201.72117 29.10261 
L 202.075411 29.15126 
L 202.506155 29.133272 
L 202.499503 29.064591 
L 202.29993 28.900675 
L 202.153577 28.598257 
L 202.281636 28.46179 
L 202.960182 28.071286 
L 203.244573 27.965108 
L 203.573868 27.947141 
L 204.204184 28.017787 
L 204.540131 27.978992 
L 204.797912 27.859758 
L 205.283538 27.516018 
L 205.541319 27.404594 
L 205.800763 27.384595 
L 206.076838 27.391534 
L 206.346261 27.358884 
L 206.875128 27.059377 
L 207.395679 27.205039 
L 207.670091 27.073657 
L 207.841391 27.100585 
L 208.312049 27.109561 
L 208.418488 27.131594 
L 208.5216 27.305832 
L 208.647996 27.45357 
L 208.804328 27.573981 
L 208.997248 27.662971 
L 209.328205 27.739313 
L 209.738992 27.773608 
L 210.159757 27.75891 
L 210.854043 27.671289 
L 210.817868 27.884428 
L 210.680367 28.222717 
L 210.749772 28.471039 
L 210.749772 28.741304 
L 210.956678 28.967224 
L 211.227751 29.124303 
L 211.586562 29.077949 
L 211.962397 29.067005 
L 212.174541 29.28849 
L 212.284542 29.28849 
L 212.4574 29.16744 
L 212.668234 29.197057 
L 213.054545 29.387015 
L 212.673472 29.940351 
L 212.614543 30.098226 
L 212.560853 30.337985 
L 212.437757 30.453374 
L 212.292399 30.541052 
L 212.174541 30.703534 
L 211.919183 30.610684 
L 211.323346 30.705469 
L 210.817868 30.547499 
L 210.680367 30.389554 
L 210.381794 30.434679 
L 210.038697 30.705469 
L 209.854054 31.044703 
L 209.831792 31.607334 
L 209.816077 31.994646 
L 209.912982 32.279414 
L 210.172269 32.483515 
L 210.72751 32.731591 
L 211.036342 33.034673 
L 211.393528 33.425285 
L 211.369608 33.621505 
L 211.15801 33.7772 
L 211.094233 33.985004 
L 211.185846 34.234251 
L 211.272275 34.564304 
L 211.28668 34.670461 
L 211.350847 34.75656 
L 211.652039 34.941082 
L 211.734539 35.060229 
L 211.678229 35.370466 
L 211.280132 35.881686 
L 211.078464 36.290066 
L 210.815249 36.498208 
L 210.358356 36.974505 
L 209.821929 36.939137 
L 209.207259 37.27323 
L 209.053209 37.712594 
L 208.591117 37.907051 
L 207.152493 38.746985 
L 206.86369 39.09547 
L 206.346821 39.18747 
L 205.966793 39.263349 
L 205.545699 39.339852 
L 205.370222 39.380169 
L 205.294269 39.413334 
L 205.048078 39.583077 
L 204.998315 39.652023 
L 204.935458 39.769111 
L 204.783552 39.795783 
L 204.59498 39.789928 
L 204.377645 40.164593 
L 202.339969 40.809167 
L 199.083167 41.931085 
L 198.753166 42.191865 
L 197.826018 42.668606 
L 196.625179 43.051591 
L 196.152439 43.319175 
L 195.718984 43.763122 
L 194.938504 44.79406 
L 194.47755 45.277861 
L 193.951118 45.647398 
L 192.820994 46.114572 
L 192.167538 46.255288 
L 191.067533 46.338417 
L 189.985861 46.550524 
L 189.658478 46.701774 
L 189.501335 46.735824 
L 188.951332 46.717489 
L 185.80584 47.441308 
L 184.436072 47.517322 
L 180.394861 48.664069 
L 179.263427 48.851048 
L 179.139022 48.928473 
L 178.856163 49.313714 
L 178.794615 49.437782 
L 178.713425 49.53035 
L 178.541876 49.593379 
L 178.158184 49.416118 
L 178.039017 49.382639 
L 177.330561 49.396424 
L 176.654843 49.492928 
L 176.039364 49.704346 
L 175.6046 49.899387 
L 173.786972 51.27092 
L 172.906968 52.162986 
L 171.160054 53.528819 
L 170.848386 54.002057 
L 171.277912 54.191937 
L 171.738867 54.33305 
L 171.935296 54.325136 
L 172.013868 54.244687 
L 171.953629 54.125343 
L 171.738867 54.002057 
L 172.00863 54.017879 
L 172.227321 54.107542 
L 172.411965 54.24205 
L 172.796967 54.611372 
L 173.213398 54.87525 
L 173.412446 54.858756 
L 173.726733 54.943209 
L 173.705781 55.281087 
L 173.475304 55.619068 
L 173.31816 55.796022 
L 172.283631 56.029803 
L 171.838391 56.333661 
L 171.044816 57.289378 
L 170.562908 57.585646 
L 170.094097 57.719919 
L 169.578142 57.776146 
L 169.200997 57.310537 
L 169.976239 57.233175 
L 170.338979 57.430227 
L 170.870648 57.176314 
L 171.457318 56.471746 
L 171.132554 56.432103 
L 170.645409 56.463817 
L 169.318855 56.796875 
L 169.003258 56.960137 
L 168.734804 57.181603 
L 168.493851 57.469245 
L 167.99361 58.412045 
L 167.734323 58.902619 
L 167.446226 59.214554 
L 167.168606 59.448397 
L 166.951224 59.718735 
L 166.846462 60.136299 
L 166.430031 60.465158 
L 165.309073 62.150754 
L 165.12181 62.322774 
L 164.689665 62.597796 
L 164.476212 62.773207 
L 163.927519 63.37739 
L 162.970252 64.00252 
L 161.993343 65.518898 
L 161.550721 65.887316 
L 160.732265 66.287182 
L 160.319108 66.763206 
L 159.620474 67.926102 
L 159.206007 68.420842 
L 158.198324 69.305365 
L 156.53784 71.483502 
L 156.452065 71.65627 
L 156.414744 72.052797 
L 156.305398 72.328839 
L 156.129921 72.537924 
L 155.745574 72.873076 
L 155.524918 73.117127 
L 155.329798 73.406166 
L 155.244024 73.684544 
L 155.137952 73.889848 
L 154.635092 74.473082 
L 154.464198 74.766488 
L 154.347699 75.357676 
L 154.397935 76.179084 
L 154.507413 76.882265 
L 154.818426 77.975929 
L 155.826381 79.740625 
L 156.001512 80.007645 
L 156.199842 80.29772 
L 156.000877 80.407049 
L 155.77037 80.555796 
L 155.861719 80.858026 
L 156.019447 81.459866 
L 156.287801 82.009205 
L 156.705962 82.614286 
L 157.124509 83.28091 
L 157.725583 84.129362 
L 157.962608 84.37237 
L 158.563683 84.756952 
L 159.168686 85.266984 
L 159.510473 85.484474 
L 159.947856 85.573921 
L 160.682503 85.632878 
L 161.453816 85.813833 
L 162.145248 86.129044 
L 162.649417 86.586756 
L 162.580012 86.613885 
L 162.41763 86.710876 
L 162.610131 86.782099 
L 162.737156 86.891993 
L 163.173229 87.176951 
L 163.331682 87.142345 
L 163.433826 87.347958 
L 163.441683 87.608586 
L 163.331682 87.736885 
L 163.03049 87.751141 
L 162.758108 87.806131 
L 162.511916 87.912724 
L 162.284058 88.087909 
L 162.095486 88.439714 
L 162.064057 88.481829 
L 162.0012 88.541607 
L 161.690841 88.555873 
L 161.575602 88.600709 
L 161.362149 88.771917 
L 161.174886 88.854132 
L 161.003338 88.965574 
L 160.84423 89.228589 
L 160.964052 89.465827 
L 160.639943 89.401925 
L 160.417978 89.445433 
L 160.204524 89.526334 
L 159.909225 89.570526 
L 159.429937 89.575965 
L 159.204043 89.638517 
L 158.976185 89.78811 
L 158.786303 90.062866 
L 158.781065 90.305709 
L 158.804636 90.536353 
L 158.701184 90.774526 
L 158.453682 90.988241 
L 158.216003 91.065161 
L 157.547487 91.065161 
L 156.819389 91.200632 
L 156.414744 91.328629 
L 155.902717 91.628929 
L 154.366638 92.158209 
L 154.123066 92.299252 
L 154.022232 92.493469 
L 153.895208 92.561623 
L 153.308538 93.100851 
L 153.133061 93.350434 
L 153.067584 93.677834 
L 153.070203 93.8518 
L 153.01062 93.921393 
L 152.492701 93.944592 
L 152.262223 94.001226 
L 152.095258 94.138386 
L 152.034365 94.392275 
L 151.46341 94.364973 
L 151.319362 95.031324 
L 151.557041 96.566796 
L 151.373052 96.763736 
L 151.092813 96.819815 
L 150.514 96.78562 
L 150.151261 96.862218 
L 149.85989 97.057152 
L 149.631377 97.31985 
L 149.459174 97.599026 
L 149.357031 97.837197 
L 149.28828 98.100058 
L 149.239828 98.810882 
L 149.167803 99.923125 
L 149.135065 100.233742 
L 148.992326 100.385993 
L 148.565419 100.523172 
L 148.260954 100.790714 
L 148.107084 101.014395 
L 147.460176 102.358688 
L 147.426128 102.63349 
L 147.428747 102.654103 
L 147.500771 103.326255 
L 147.426128 103.494005 
L 146.987436 103.043055 
L 146.594576 103.93411 
L 146.383087 104.081305 
L 146.024931 104.17073 
L 145.891359 104.400513 
L 145.947669 104.717049 
L 146.475409 105.513553 
L 146.634517 105.679526 
L 147.153091 105.964001 
L 147.521724 106.112808 
L 147.842559 106.145878 
L 147.97744 105.939891 
L 148.274704 106.083872 
L 148.383395 106.281614 
L 148.317918 106.481454 
L 148.086131 106.633768 
L 147.954524 106.75439 
L 147.813749 106.821944 
L 147.668391 106.821944 
L 147.526307 106.739226 
L 147.373092 106.819187 
L 146.931126 106.957062 
L 146.665946 107.00808 
L 146.208265 107.21217 
L 145.605226 107.21217 
L 145.398975 107.248028 
L 145.175046 107.336985 
L 144.780222 107.559751 
L 144.642722 107.472847 
L 144.002361 107.21217 
L 143.472656 107.126669 
L 142.450568 107.107363 
L 142.163781 107.136322 
L 141.911696 107.21217 
L 141.730981 107.343192 
L 141.645207 107.506643 
L 141.695624 107.670114 
L 141.873993 107.962559 
L 141.368635 107.863102 
L 140.887732 107.765535 
L 140.785535 107.573625 
L 140.702231 107.424335 
L 140.361948 107.37889 
L 139.891091 107.217687 
L 139.670548 107.164709 
L 139.429691 107.371285 
L 139.365264 107.529799 
L 138.912872 107.516988 
L 138.366552 107.456413 
L 137.891439 107.661147 
L 137.635425 107.806011 
L 136.919112 108.396675 
L 136.650659 108.539552 
L 136.331133 108.597535 
L 136.245359 108.63136 
L 136.11768 108.711439 
L 135.998513 108.808783 
L 135.946786 108.887492 
L 135.905536 108.970348 
L 135.734642 109.529769 
L 135.717618 109.640992 
L 135.579463 109.732878 
L 135.485177 109.708006 
L 135.398748 109.649973 
L 135.288747 109.640992 
L 135.145354 109.71837 
L 134.826483 109.950531 
L 134.677851 109.998212 
L 134.440172 110.03622 
L 133.619751 110.336176 
L 133.251342 110.527179 
L 133.182217 110.727496 
L 133.070776 110.863239 
L 132.780342 110.828421 
L 132.631056 110.979174 
L 132.540698 111.27589 
L 132.328554 111.625258 
L 131.853195 112.203824 
L 130.908369 113.007044 
L 130.497831 113.486442 
L 130.214318 114.179525 
L 130.09515 114.771708 
L 129.900685 115.235101 
L 129.814256 115.709762 
L 129.334968 116.752675 
L 128.995145 117.228579 
L 128.981395 117.439142 
L 129.026574 117.591353 
L 129.085502 117.721336 
L 129.114967 117.870103 
L 129.088122 118.021668 
L 129.00955 118.110668 
L 128.886454 118.152389 
L 128.525678 118.175336 
L 128.427464 118.214973 
L 128.227105 118.38466 
L 127.662698 118.717142 
L 127.439423 118.947424 
L 127.274422 119.653128 
L 127.08585 119.858507 
L 126.83311 120.020048 
L 126.56924 120.263788 
L 126.507037 120.39473 
L 126.423882 120.717961 
L 126.339418 120.858702 
L 126.192095 120.93953 
L 126.013345 120.979946 
L 125.862094 121.032907 
L 125.697093 121.359081 
L 125.445663 121.525683 
L 125.123519 121.63653 
L 124.811196 121.676967 
L 124.207502 121.513134 
L 123.756369 121.120018 
L 123.362855 120.652472 
L 122.933984 120.263788 
L 122.361719 119.958771 
L 122.027135 119.850152 
L 121.664395 119.806985 
L 121.365822 119.858507 
L 120.843319 120.093862 
L 120.515282 120.15793 
L 120.36665 120.12311 
L 119.931231 119.961557 
L 119.737421 119.923957 
L 118.460629 120.114753 
L 118.201342 120.242894 
L 117.882471 120.897025 
L 117.553124 121.662326 
L 117.142587 122.0291 
L 117.064015 122.077918 
L 116.88199 122.238332 
L 116.472107 122.389697 
L 115.926688 122.457363 
L 115.637936 122.365282 
L 115.30859 122.485966 
L 114.885611 122.24182 
L 114.56936 122.024219 
L 114.273406 121.911247 
L 114.128703 121.948206 
L 113.98269 122.107907 
L 113.834713 122.145569 
L 113.665784 122.064667 
L 113.225782 121.559842 
L 112.777268 121.287288 
L 112.466909 121.264287 
L 111.590544 121.513461 
L 110.162673 121.296801 
L 108.871204 121.3864 
L 107.725755 121.209923 
L 106.089497 121.379992 
L 105.851162 121.51662 
L 105.627233 121.704855 
L 105.297886 121.911247 
L 104.712459 122.22623 
L 103.707585 122.216293 
L 103.090308 121.788676 
L 102.766904 121.833918 
L 102.545305 121.937318 
L 101.956839 121.693871 
L 101.720315 121.420241 
L 101.216334 121.442009 
L 100.681343 121.474717 
L 100.453557 121.655685 
L 99.625504 121.736399 
L 98.464474 121.421542 
L 97.899531 121.258882 
L 97.080417 121.405884 
L 95.92961 121.690213 
L 94.388844 121.327017 
L 94.014772 121.402872 
L 93.528579 121.708378 
L 92.131214 121.885447 
L 91.685319 121.937049 
L 88.813519 121.740414 
L 88.537863 121.808745 
L 88.329648 121.966337 
L 87.880479 122.638754 
L 87.788812 122.783186 
L 87.57012 122.986254 
L 87.398572 123.235422 
L 87.330476 123.511863 
L 86.856174 124.19553 
L 85.842831 124.313944 
L 85.404796 125.056873 
L 84.844988 125.373733 
L 84.693082 125.450638 
L 84.354569 125.568102 
L 83.670994 125.702359 
L 83.003788 125.685576 
L 81.135743 125.484198 
L 80.776277 125.469516 
L 80.623062 125.512865 
L 80.440383 125.635928 
L 79.30378 126.319354 
L 78.20436 126.403228 
L 77.460547 126.802087 
L 77.262153 126.861576 
L 76.673519 126.923868 
L 76.415542 127.001561 
L 76.207981 127.108659 
L 75.997147 127.350185 
L 75.55518 128.025286 
L 75.542085 128.187108 
L 75.272322 128.814962 
L 75.128273 129.072914 
L 75.048392 129.151431 
L 74.930534 129.245376 
L 74.798927 129.323903 
L 74.533747 129.412251 
L 74.551425 129.54268 
L 74.618866 129.698369 
L 74.436841 129.929832 
L 73.91041 130.778863 
L 73.834458 130.957156 
L 73.758532 131.762923 
L 73.442925 131.763099 
L 73.310645 131.382626 
L 73.054632 131.224639 
L 72.675523 131.105284 
L 72.363855 131.096157 
L 72.311474 131.264661 
L 72.163497 131.411417 
L 72.092128 131.630526 
L 72.105878 131.876364 
L 72.21195 132.101168 
L 72.131413 132.227637 
L 72.175283 132.495366 
L 72.264331 132.664041 
L 72.311474 132.80462 
L 72.261057 132.998642 
L 72.151711 133.115349 
L 72.041056 133.208159 
L 71.703197 133.324181 
L 70.092475 133.827055 
L 69.860688 133.959309 
L 69.365686 134.089465 
L 69.076934 133.565397 
L 68.401217 133.233472 
L 68.117049 133.040824 
L 67.734666 133.164566 
L 67.400735 133.066134 
L 67.08252 132.894598 
L 66.400254 132.723083 
L 66.155372 132.527694 
L 65.809656 132.086414 
L 64.761377 131.197257 
L 64.451019 131.021741 
L 64.100719 131.025953 
L 63.383097 131.143898 
L 62.526664 130.927673 
L 62.112852 130.449714 
L 61.795946 129.873015 
L 61.433206 129.355455 
L 60.552547 128.948838 
L 60.447785 128.700721 
L 60.406535 128.414812 
L 60.299153 128.10024 
L 60.15445 127.805351 
L 59.604447 127.25917 
L 59.223374 126.501882 
L 58.981111 125.986999 
L 58.619026 125.387715 
L 58.268072 125.135354 
L 58.129916 124.995562 
L 58.32831 124.915887 
L 58.461882 124.941047 
L 58.974563 125.345069 
L 59.112064 125.500279 
L 59.029563 125.645718 
L 59.149385 125.811452 
L 59.393613 126.051349 
L 59.593316 126.012179 
L 59.715103 125.916358 
L 59.887961 125.687674 
L 60.232367 125.349264 
L 60.117783 125.337379 
L 59.790401 125.428964 
L 59.508197 125.395406 
L 59.377899 125.131859 
L 59.481351 124.608414 
L 59.338613 124.280752 
L 58.561406 123.6522 
L 58.389858 123.575397 
L 57.29771 123.511863 
L 57.006994 123.448332 
L 56.76735 123.231234 
L 56.569611 122.548753 
L 56.398062 122.218803 
L 56.174133 121.899393 
L 56.071989 121.578665 
L 56.145323 121.271954 
L 56.447825 120.990399 
L 56.741159 120.862883 
L 57.343543 120.678946 
L 57.556997 120.522202 
L 57.724617 120.123806 
L 57.587116 119.410892 
L 57.676164 119.003783 
L 58.220929 118.602363 
L 59.525875 118.685837 
L 59.983556 118.176727 
L 59.674507 118.354754 
L 59.262005 118.496637 
L 58.853432 118.504984 
L 58.555514 118.282428 
L 57.873903 118.509157 
L 57.571402 118.703924 
L 57.446996 119.062928 
L 57.539973 120.095951 
L 57.446996 120.289558 
L 56.874731 120.296522 
L 56.420324 119.78958 
L 55.899131 118.653838 
L 55.537701 118.116926 
L 55.079366 117.706044 
L 51.132441 115.287139 
L 50.704225 115.092875 
L 50.331009 115.00824 
L 50.056008 114.906269 
L 49.392076 114.439526 
L 49.066003 114.310559 
L 48.750406 114.176059 
L 48.461 113.794819 
L 48.352309 113.349949 
L 48.462964 113.136575 
L 48.65612 112.997347 
L 49.213325 112.286892 
L 49.397314 111.985793 
L 48.580167 112.762564 
L 48.134927 113.029902 
L 47.629448 113.030594 
L 47.629448 113.136575 
L 47.980402 113.595232 
L 48.151951 113.893238 
L 48.178141 114.077619 
L 47.965997 114.099109 
L 46.554324 113.512773 
L 46.03444 113.369348 
L 45.401001 113.193705 
L 44.977649 113.355491 
L 45.434021 113.40399 
L 45.650093 113.496143 
L 41.750967 113.579987 
L 41.506085 113.670767 
L 41.187214 113.91819 
L 40.889296 113.948688 
L 40.614295 113.854424 
L 40.358281 113.72898 
L 40.117413 112.980987 
L 40.039247 112.596641 
L 40.146517 112.338128 
L 39.987691 111.77995 
L 39.866284 110.429889 
L 39.588546 109.90149 
L 39.624303 109.710196 
L 39.577736 109.336904 
L 39.482108 108.922066 
L 39.368185 108.605108 
L 39.279209 108.501226 
L 39.003134 108.309701 
L 38.879233 108.200146 
L 38.745987 108.027011 
L 38.732879 108.009981 
L 38.698786 107.910965 
L 38.684649 107.796188 
L 38.600247 107.563597 
L 38.537049 107.566225 
L 38.512518 107.546077 
L 38.503371 107.368708 
L 38.554927 107.300395 
L 38.726227 107.135319 
L 38.745353 107.051694 
L 38.779446 106.975518 
L 38.79192 106.892341 
L 38.750342 106.788598 
L 38.902516 106.70412 
L 39.327439 106.323385 
L 39.438035 106.187311 
L 39.522854 105.932265 
L 39.664217 105.118034 
L 39.882084 104.609294 
L 40.166475 104.263258 
L 41.645805 103.227021 
L 42.089022 102.571132 
L 42.266974 101.995382 
L 42.619552 101.208076 
L 42.70437 100.909586 
L 42.696886 100.737496 
L 42.647825 100.57719 
L 42.638678 100.441295 
L 42.749274 100.341125 
L 43.260678 100.254899 
L 43.433641 100.157792 
L 43.642361 100.17129 
L 43.846922 100.223545 
L 44.045663 100.244447 
L 44.245236 100.157792 
L 44.45645 100.107717 
L 44.577025 100.042841 
L 44.743335 99.85868 
L 44.902993 99.508283 
L 45.043525 99.379901 
L 45.322095 99.40253 
L 46.232644 99.713286 
L 46.640936 99.673676 
L 46.773153 99.265022 
L 46.924495 99.054436 
L 47.065027 98.544653 
L 47.365218 98.034208 
L 47.582253 97.472698 
L 47.708648 97.223316 
L 47.871633 96.744677 
L 47.822204 96.715268 
L 47.603041 96.584882 
L 47.154004 96.616144 
L 46.734901 96.721227 
L 46.688335 96.717753 
L 46.601853 96.694304 
L 46.403944 96.919693 
L 46.012283 97.065631 
L 45.605654 97.135566 
L 45.361178 97.132091 
L 45.14309 96.963231 
L 44.985317 96.841085 
L 44.336706 95.477303 
L 44.25272 95.40269 
L 43.978308 95.234827 
L 43.867711 95.140278 
L 43.797861 95.035763 
L 43.693917 94.81245 
L 43.62573 94.714465 
L 41.923543 92.9196 
L 41.467021 92.645164 
L 41.24666 92.554709 
L 41.477832 92.354346 
L 41.633332 92.168293 
L 41.650794 91.974482 
L 41.465358 91.75475 
L 41.623353 91.55841 
L 41.914396 90.715455 
L 42.587953 89.920152 
L 42.675266 89.688268 
L 42.625373 89.559607 
L 42.530576 89.500894 
L 42.424137 89.450817 
L 42.34514 89.346353 
L 42.320194 89.213412 
L 42.31271 89.043803 
L 42.34514 88.66281 
L 42.455736 88.092622 
L 42.509787 87.972753 
L 42.646993 87.750724 
L 42.675266 87.687787 
L 43.39217 87.210304 
L 43.623235 87.056446 
L 43.866048 86.979329 
L 44.134639 86.797541 
L 44.352506 86.588648 
L 44.442313 86.430602 
L 44.596982 86.324245 
L 45.339558 86.192496 
L 45.599833 86.089604 
L 45.795248 85.925168 
L 45.992326 85.793893 
L 46.124543 85.726754 
L 46.105417 85.488787 
L 46.186909 85.229788 
L 45.964053 84.903322 
L 46.31081 84.669818 
L 46.670872 84.266561 
L 47.209718 83.420076 
L 47.367712 83.252998 
L 47.456688 83.084655 
L 47.43091 82.93394 
L 47.247137 82.81673 
L 47.358565 82.532554 
L 47.257116 82.207252 
L 47.031765 81.909494 
L 46.773153 81.708314 
L 46.402281 81.503736 
L 45.982347 81.410252 
L 45.558256 81.448845 
L 45.173247 81.637115 
L 44.978664 81.697162 
L 44.733357 81.663278 
L 44.497196 81.565063 
L 44.331717 81.431692 
L 44.309265 81.292763 
L 44.485554 80.968657 
L 44.519648 80.800637 
L 44.32257 80.483521 
L 43.944214 80.342131 
L 43.497671 80.247881 
L 43.098526 80.068827 
L 42.874007 79.809288 
L 42.750106 79.477025 
L 42.773389 79.129448 
L 42.990424 78.826472 
L 42.192135 78.043716 
L 41.88945 77.851314 
L 41.770538 77.65638 
L 41.694035 77.304211 
L 41.68572 76.938478 
L 41.769706 76.705255 
L 41.896102 76.466954 
L 41.980089 76.089529 
L 41.981752 75.736978 
L 41.86284 75.572263 
L 41.186789 75.428903 
L 40.845021 75.298358 
L 40.599713 75.138823 
L 40.446708 74.777178 
L 40.307838 74.634769 
L 39.764004 74.409677 
L 39.494581 74.205087 
L 39.015607 73.697176 
L 38.726227 73.4876 
L 38.204844 72.343266 
L 38.082079 72.112831 
L 38.059323 72.070122 
L 41.532714 72.201155 
L 41.751412 72.152654 
L 42.015846 72.061613 
L 42.316036 72.012267 
L 42.957994 72.028432 
L 43.233237 71.959521 
L 43.582489 72.12968 
L 44.083915 72.147549 
L 46.451342 71.914433 
L 46.686671 71.836171 
L 46.872108 71.483207 
L 46.854645 71.362459 
L 46.807246 71.250225 
L 46.812236 71.097197 
L 46.886244 70.942489 
L 47.078332 70.673075 
L 47.139036 70.516725 
L 47.114089 70.379087 
L 47.04507 70.227873 
L 47.022618 70.0512 
L 47.139036 69.828697 
L 47.2646 69.745483 
L 47.632977 69.624068 
L 47.785983 69.552753 
L 48.190948 69.075738 
L 48.245831 68.917059 
L 48.258304 68.642183 
L 48.285745 68.497135 
L 48.289072 68.414865 
L 48.231695 68.249495 
L 48.230031 68.15622 
L 48.27743 68.082453 
L 48.433762 67.989191 
L 48.482823 67.925608 
L 48.576788 67.520455 
L 48.639986 67.373855 
L 48.610051 67.195928 
L 48.685722 67.021416 
L 48.962628 66.659771 
L 48.315681 65.747277 
L 47.958114 65.396188 
L 47.739416 65.124697 
L 47.567285 65.003774 
L 47.394322 64.953041 
L 46.967736 64.905692 
L 46.773153 64.860881 
L 46.581896 64.638545 
L 46.46631 64.080785 
L 46.333262 63.841709 
L 46.470468 63.650822 
L 46.628463 63.272523 
L 46.773153 63.120563 
L 47.062533 63.019268 
L 47.756047 62.665652 
L 47.958579 62.639205 
L 48.066216 62.625149 
L 48.381374 62.647932 
L 48.693206 62.631056 
L 48.989238 62.47159 
L 49.036637 62.373728 
L 49.046231 62.243953 
L 49.056594 62.103808 
L 49.115634 61.977306 
L 49.216252 61.888763 
L 49.910597 61.490826 
L 50.052793 61.377035 
L 50.334689 60.984336 
L 49.793349 60.59009 
L 49.419982 60.118527 
L 49.326017 59.587414 
L 49.622881 59.016184 
L 49.998742 58.604138 
L 50.043646 58.407419 
L 49.95467 58.126693 
L 49.785865 57.904851 
L 49.605418 57.757822 
L 49.466549 57.592333 
L 49.433287 57.308454 
L 49.529747 57.055712 
L 49.902282 56.529423 
L 50.015373 56.253369 
L 50.016204 56.056229 
L 49.983774 55.766876 
L 49.854052 55.222763 
L 49.650322 54.693999 
L 49.615397 54.463635 
L 49.615397 54.14958 
L 49.645332 53.989656 
L 49.689405 53.900913 
L 49.706036 53.810503 
L 49.652816 53.640585 
L 49.632859 53.533458 
L 49.655311 53.123461 
L 49.918081 53.059047 
L 49.984606 52.854954 
L 49.904777 52.640866 
L 49.729319 52.546379 
L 49.488169 52.497885 
L 49.355952 52.363283 
L 49.221241 52.022253 
L 48.874484 51.365572 
L 48.648302 51.077459 
L 48.14355 50.668388 
L 47.985555 50.485608 
L 47.952293 50.281999 
L 48.124424 50.070086 
L 48.187622 49.766473 
L 48.194367 49.763847 
L 48.526064 49.634711 
L 49.516442 49.702258 
L 49.955501 49.666399 
L 50.175031 49.500464 
L 50.811999 48.783653 
L 50.945048 48.490398 
L 50.905133 48.092299 
L 50.965837 47.978227 
L 51.174556 47.775092 
L 51.742506 47.406384 
L 51.833976 47.275743 
L 51.954551 47.035307 
L 52.526659 46.384154 
L 52.712927 46.227038 
L 52.998149 46.189633 
L 54.050893 46.177165 
L 54.196415 46.098204 
L 55.139394 45.787404 
L 55.665767 45.479187 
L 56.182992 45.078888 
L 56.688575 44.461293 
L 56.754268 44.446356 
L 56.952177 44.476231 
L 57.017038 44.461293 
L 57.056121 44.372502 
L 57.075247 44.247212 
L 57.065268 44.150142 
L 57.017038 44.142676 
L 57.224926 44.016583 
L 57.448614 43.951053 
L 57.950871 43.922852 
L 57.952534 43.785175 
L 58.565388 43.046501 
L 58.572871 42.939598 
L 58.529631 42.832705 
L 58.517989 42.70594 
L 58.62027 42.54357 
L 59.036877 42.214764 
L 59.8044 41.369618 
L 59.640584 41.212418 
L 59.416065 40.975422 
L 58.737519 40.442065 
L 58.015732 40.091603 
L 57.229915 39.876342 
L 55.924379 39.674343 
L 55.703187 39.669387 
L 55.591759 39.741259 
L 55.48532 39.839162 
L 55.264959 39.953187 
L 55.023809 40.044498 
L 54.856667 40.079207 
L 54.404303 39.951534 
L 54.18311 39.695822 
L 54.099123 39.383186 
L 54.057546 39.086331 
L 53.983538 38.936078 
L 53.876267 38.79864 
L 53.827206 38.659982 
L 53.922003 38.508552 
L 54.036757 38.376121 
L 54.104944 38.226383 
L 54.497437 36.922963 
L 54.682873 36.622691 
L 54.267097 36.519738 
L 53.980211 36.48803 
L 53.852984 36.376031 
L 53.984369 35.688248 
L 53.919508 35.424945 
L 53.702473 35.23327 
L 53.310812 35.111127 
L 53.096272 35.451272 
L 52.549943 35.576747 
L 51.404064 35.61213 
L 50.922596 35.505163 
L 50.33552 34.834405 
L 49.844073 34.769861 
L 49.742624 35.244375 
L 49.360942 35.419598 
L 48.360585 35.480891 
L 47.909884 35.413016 
L 47.517392 35.18474 
L 47.293108 35.100421 
L 47.149846 35.046565 
L 46.773153 35.248899 
L 46.201877 35.434406 
L 45.695462 35.262883 
L 45.205678 34.950348 
L 44.687621 34.710664 
L 44.45645 34.738618 
L 44.173722 34.855783 
L 43.927583 34.995166 
L 43.809503 35.088921 
L 43.774577 35.311417 
L 43.878521 35.82692 
L 43.841933 36.079623 
L 43.658681 36.276217 
L 43.508481 36.437382 
L 42.980446 36.681997 
L 41.837894 36.973634 
L 41.547682 37.008653 
L 40.963101 36.995469 
L 40.720288 37.027193 
L 40.503253 37.136377 
L 40.114918 37.466474 
L 39.902873 37.602911 
L 39.834685 37.349424 
L 39.680017 37.072101 
L 39.473792 36.859936 
L 39.250105 36.801443 
L 39.093773 36.790322 
L 38.850128 36.662228 
L 38.726227 36.661405 
L 38.606484 36.738423 
L 38.574885 36.833984 
L 38.557422 36.942325 
L 38.473435 37.057269 
L 38.229791 37.186647 
L 37.901328 37.273596 
L 37.558728 37.311509 
L 37.274338 37.290492 
L 37.014894 37.182115 
L 37.004915 37.032137 
L 37.253549 36.530856 
L 36.387904 36.503266 
L 36.106008 36.400736 
L 35.660296 36.163185 
L 35.408336 36.115435 
L 34.955972 36.288747 
L 33.95811 36.467853 
L 33.522377 36.448088 
L 33.353572 36.489677 
L 33.2779 36.57739 
L 33.222186 36.680762 
L 33.110758 36.77467 
L 32.599354 36.773846 
L 32.490421 36.313449 
L 32.446349 35.882888 
L 32.129527 35.973431 
L 32.053856 36.156599 
L 31.97569 36.42297 
L 31.824348 36.630104 
L 31.524989 36.635458 
L 31.266377 36.603747 
L 31.0377 36.682409 
L 30.840622 36.83728 
L 30.682627 37.029665 
L 30.153761 37.436386 
L 30.123638 37.442811 
L 29.431142 37.590545 
L 28.045777 37.527065 
L 28.05074 37.496632 
L 28.113133 37.114127 
L 28.086523 36.902777 
L 27.965117 36.777141 
L 27.388851 36.610336 
L 27.206741 36.325801 
L 27.230856 36.028995 
L 27.383862 35.741739 
L 28.004615 35.06178 
L 28.474026 34.721352 
L 28.941358 34.49734 
L 29.19706 34.3383 
L 29.368776 34.1382 
L 29.405364 33.860918 
L 29.27481 33.624364 
L 29.029503 33.448626 
L 28.720997 33.352558 
L 28.386713 33.376779 
L 28.100659 33.474081 
L 27.857015 33.524584 
L 27.652453 33.405928 
L 27.598402 33.148135 
L 27.647464 32.46497 
L 27.501526 32.223407 
L 27.357252 32.07087 
L 26.874952 32.325521 
L 26.579751 32.41411 
L 26.303676 32.423133 
L 26.18227 32.444461 
L 26.039243 32.512141 
L 25.625962 32.788237 
L 25.355707 32.895331 
L 22.870199 33.190822 
L 22.567514 33.276202 
L 22.013701 33.556611 
L 21.718084 33.646538 
L 21.12893 33.658447 
L 20.847866 33.700335 
L 20.574285 33.851882 
L 20.434584 34.011668 
L 20.263285 34.354326 
L 20.141047 34.514602 
L 19.811752 34.676957 
L 19.397639 34.769861 
L 19.034251 34.907587 
L 18.853831 35.005187 
L 18.674425 35.26618 
L 18.430852 35.51169 
L 18.136208 35.694403 
L 17.804897 35.765683 
L 17.533824 35.881038 
L 17.277156 36.111785 
L 17.021798 36.280341 
L 16.754654 36.210322 
L 16.795249 35.989923 
L 16.475724 32.894423 
L 16.525486 32.619174 
L 16.700963 32.508707 
L 17.338704 32.499664 
L 17.635313 32.437653 
L 17.755135 32.291685 
L 17.680492 32.166402 
L 17.374061 32.057921 
L 17.305966 31.956554 
L 17.385847 31.901678 
L 17.804897 31.739649 
L 17.845492 31.673167 
L 17.884778 31.523436 
L 17.969243 31.375018 
L 18.138827 31.307914 
L 18.212816 31.263396 
L 18.513353 30.982781 
L 19.35669 30.505593 
L 19.567525 30.441125 
L 19.640858 30.407603 
L 20.155504 30.053116 
L 20.4436 29.967413 
L 20.769673 29.801183 
L 20.875745 29.720011 
L 20.932055 29.589247 
L 20.932055 29.104989 
L 20.915031 28.99941 
L 20.854793 28.985892 
L 20.721221 29.016791 
L 20.477648 29.187399 
L 20.302826 29.484906 
L 20.076932 29.766394 
L 19.67818 29.890738 
L 19.352107 29.947438 
L 18.481924 30.241946 
L 18.303828 30.383108 
L 18.130315 30.412116 
L 17.285013 30.368926 
L 16.975964 30.441125 
L 17.038167 30.241946 
L 17.202513 29.892026 
L 17.205132 29.674274 
L 17.305966 29.674274 
L 17.531205 29.922954 
L 17.624182 29.803116 
L 17.635313 29.291066 
L 17.603229 29.161645 
L 17.567872 29.092113 
L 17.623527 29.052198 
L 17.855314 29.016791 
L 18.433471 29.11529 
L 18.513353 29.07473 
L 18.63121 28.869383 
L 19.238833 28.34687 
L 19.513179 28.162897 
L 20.043539 27.908863 
L 20.274671 27.743615 
L 20.391219 27.515398 
L 20.244552 27.568751 
L 20.113599 27.56168 
L 19.952526 27.515398 
L 19.811752 27.526968 
L 19.760026 27.542396 
L 19.723359 27.568751 
L 19.368476 27.726898 
L 18.969069 27.959665 
L 18.74383 28.054844 
L 18.394186 28.123019 
L 17.884778 28.157751 
L 17.360966 28.110155 
L 16.975964 27.936514 
L 16.843702 27.758402 
L 16.771023 27.457548 
L 16.645963 27.289804 
L 16.437747 27.204978 
L 15.882507 27.135581 
L 15.767268 27.073898 
L 15.889054 26.919708 
L 16.183698 26.784811 
L 16.517629 26.685898 
L 16.754654 26.64351 
L 16.951738 26.693605 
L 17.083346 26.82592 
L 17.078108 26.974956 
L 16.865964 27.073898 
L 17.007393 27.141363 
L 17.232632 27.208834 
L 17.467038 27.237751 
L 17.635313 27.191484 
L 17.700134 27.025711 
L 17.65692 26.840052 
L 17.658884 26.669199 
L 17.855314 26.545895 
L 17.65692 25.998916 
L 17.635313 25.727464 
L 17.692277 25.49265 
L 17.839599 25.30471 
L 18.036684 25.180933 
L 18.248828 25.135402 
L 18.456388 24.937912 
L 19.047641 23.971548 
L 19.173356 23.619968 
L 19.073177 23.619968 
L 18.962522 23.871633 
L 18.804068 24.116314 
L 18.587996 24.300826 
L 18.303828 24.373231 
L 18.000672 24.288653 
L 17.804897 24.09069 
L 17.639896 23.844734 
L 17.426443 23.714095 
L 17.183525 24.042647 
L 17.144894 24.238678 
L 17.305966 24.373231 
L 16.955667 24.736616 
L 16.766439 24.826361 
L 16.535962 24.695592 
L 16.622391 24.530233 
L 16.397807 24.610986 
L 15.867447 24.910985 
L 16.095305 25.111675 
L 15.906078 25.220052 
L 15.328575 25.340627 
L 15.282087 25.423371 
L 15.153098 25.781363 
L 15.018217 25.81794 
L 14.891192 25.904573 
L 14.658096 26.104822 
L 14.419761 25.909066 
L 14.384404 25.619673 
L 14.307142 25.357304 
L 13.945711 25.242499 
L 13.703448 25.073201 
L 13.785949 24.692387 
L 14.016426 24.288653 
L 14.219403 24.050334 
L 14.208927 23.862026 
L 14.259999 23.627651 
L 14.358868 23.316518 
L 14.541548 23.127069 
L 14.618155 23.015721 
L 14.743215 22.905665 
L 14.932442 22.85576 
L 14.972383 22.823131 
L 15.437266 22.631218 
L 15.851733 22.214895 
L 16.095305 22.052506 
L 16.480962 21.986663 
L 16.592272 21.876082 
L 16.695725 21.630037 
L 16.651201 21.377026 
L 16.317271 21.246073 
L 16.250485 21.605116 
L 16.001019 21.826229 
L 15.631731 21.942557 
L 15.208098 21.986663 
L 14.390297 21.899092 
L 14.056367 21.94831 
L 14.109403 22.211059 
L 13.738806 22.49882 
L 13.535828 22.57557 
L 13.230708 22.533357 
L 13.018564 22.399053 
L 12.911182 22.195714 
L 12.824753 21.944475 
L 12.671538 21.665183 
L 12.871896 21.667739 
L 13.022492 21.60895 
L 13.135112 21.49969 
L 13.230708 21.343168 
L 13.099755 21.161762 
L 12.877135 21.053189 
L 12.571359 20.963786 
L 12.553681 20.84055 
L 12.469871 20.631787 
L 12.451537 20.539869 
L 12.484276 20.478595 
L 12.630943 20.357973 
L 12.671538 20.262251 
L 12.692491 20.120601 
L 12.679396 20.021075 
L 12.568085 19.960471 
L 12.291775 19.941334 
L 12.142488 19.875632 
L 11.891713 19.586724 
L 11.69201 19.522959 
L 11.69201 19.619884 
L 11.786296 19.788249 
L 11.693319 19.879459 
L 11.542069 19.908163 
L 11.463497 19.892854 
L 11.394746 19.684293 
L 11.235638 19.665799 
L 11.052959 19.749344 
L 10.913494 19.845015 
L 10.793672 19.978971 
L 10.6326 20.293519 
L 10.524564 20.432642 
L 10.44992 20.400731 
L 10.290812 20.035748 
L 10.145455 19.941334 
L 10.145455 19.845015 
L 10.251526 19.695134 
L 10.583492 19.037206 
L 10.595933 18.940339 
L 10.630636 18.815446 
L 10.681707 18.691843 
L 10.74391 18.603929 
L 10.805458 18.46634 
L 10.703314 18.365072 
L 10.46498 18.239616 
L 10.345813 17.868436 
L 10.481349 17.782506 
L 10.693493 17.776141 
L 10.803493 17.637396 
L 10.889922 17.352332 
L 11.07915 17.219372 
L 11.266412 17.12205 
L 11.342365 16.938882 
L 11.578081 17.085795 
L 11.78957 17.128411 
L 11.99844 17.077527 
L 12.232846 16.938882 
L 12.319275 16.856213 
L 12.362489 16.778638 
L 12.425347 16.70234 
L 12.571359 16.619692 
L 12.701658 16.571377 
L 12.819515 16.54595 
L 13.110231 16.521794 
L 13.110231 16.406745 
L 12.837849 16.500181 
L 12.477073 16.559935 
L 12.215822 16.543407 
L 12.232846 16.406745 
L 11.718855 16.593627 
L 11.490997 16.572649 
L 11.342365 16.299971 
L 12.107131 15.778348 
L 12.624395 15.578922 
L 13.228089 15.76628 
L 13.505709 15.762469 
L 13.795115 15.722454 
L 14.000712 15.659577 
L 14.203689 15.53193 
L 14.40994 15.444301 
L 14.574286 15.230344 
L 14.658096 14.998028 
L 14.778573 14.998028 
L 15.073217 15.183368 
L 15.504052 15.173846 
L 15.92965 15.051976 
L 16.20727 14.900294 
L 15.867447 14.91489 
L 15.67822 14.82351 
L 15.437266 14.475204 
L 15.366552 14.480279 
L 15.168813 14.402894 
L 15.03655 14.307758 
L 15.153098 14.262096 
L 15.312861 14.252583 
L 15.962388 14.047132 
L 16.645963 13.720024 
L 17.151441 13.624321 
L 17.271918 13.512786 
L 17.399597 13.436746 
L 17.579658 13.401263 
L 17.788528 13.484904 
L 18.294661 13.849332 
L 18.568353 13.933012 
L 18.859069 13.966613 
L 19.482405 14.112441 
L 19.782288 14.146048 
L 20.228183 14.024941 
L 20.797173 13.796085 
L 21.400867 13.66615 
L 21.94956 13.837288 
L 22.793552 13.552075 
L 22.929089 13.454488 
L 22.982125 13.316996 
L 23.113732 13.197261 
L 23.276114 13.113646 
L 23.602187 13.056639 
L 23.671592 12.993936 
L 23.710878 12.922371 
L 23.806474 12.870442 
L 24.687133 12.705808 
L 24.745407 12.910972 
L 24.889455 13.06234 
L 25.245648 13.285952 
L 25.451244 13.109845 
L 25.508209 12.967969 
L 25.465649 12.599444 
L 25.613626 12.398145 
L 25.93708 12.437389 
L 26.404582 12.648193 
L 26.635714 12.705175 
L 26.738512 12.843845 
L 26.798751 13.020537 
L 26.903513 13.188393 
L 27.27411 13.449419 
L 27.439111 13.60214 
L 27.55304 13.837288 
L 27.677445 13.587563 
L 27.669588 13.347407 
L 27.55304 12.870442 
L 27.562207 12.631099 
L 27.639469 12.49056 
L 27.814291 12.380422 
L 28.112864 12.232326 
L 27.796613 12.12475 
L 27.503278 12.098174 
L 26.958513 12.127281 
L 26.675 12.061475 
L 26.289343 11.767302 
L 26.024818 11.692034 
L 26.325355 11.522544 
L 27.948518 11.374581 
L 28.058519 11.346761 
L 28.176376 11.274055 
L 28.248401 11.171643 
L 28.222865 11.055969 
L 28.144293 11.044592 
L 27.773041 11.162161 
L 26.794822 11.277848 
L 26.853751 11.222848 
L 26.898275 11.198193 
L 27.013514 11.162161 
L 26.951966 11.122338 
L 26.794822 11.055969 
L 26.603631 11.258882 
L 26.285415 11.351819 
L 25.574995 11.374581 
L 25.700055 11.137509 
L 25.758984 10.809498 
L 25.840174 10.576357 
L 26.024818 10.63132 
L 26.234998 10.42033 
L 26.105354 10.338221 
L 25.975711 10.212544 
L 25.895175 10.057208 
L 25.904341 9.889903 
L 25.967854 9.889903 
L 26.247438 9.925255 
L 26.35482 9.889903 
L 26.735893 9.930306 
L 27.198157 9.759867 
L 29.540907 8.504617 
L 29.599836 8.67546 
L 29.734717 8.765622 
L 29.912813 8.777602 
L 30.100731 8.716442 
L 29.931147 8.724008 
L 29.88073 8.716442 
L 29.88073 8.61935 
L 29.94948 8.59035 
L 30.026743 8.539287 
L 30.100731 8.504617 
L 29.790372 8.328133 
L 29.745194 8.163024 
L 29.822456 7.996684 
L 29.88073 7.817145 
L 29.980909 7.684875 
L 30.219244 7.643308 
L 30.75877 7.648976 
L 31.238058 7.554513 
L 31.692465 7.364355 
L 32.091872 7.106885 
L 32.406814 6.804181 
L 32.852709 6.852003 
L 33.042591 7.074785 
L 33.164377 7.347986 
L 33.405331 7.552624 
L 33.405331 7.648976 
L 33.312354 7.61119 
L 33.151282 7.579073 
L 33.066162 7.552624 
L 32.952888 7.684875 
L 32.878245 7.822814 
L 32.869733 7.955103 
L 32.966638 8.071029 
L 32.800328 8.161763 
L 32.748601 8.14538 
L 32.626815 8.071029 
L 32.524672 8.14412 
L 32.482112 8.166805 
L 32.406814 8.186969 
L 32.406814 8.29284 
L 33.214139 8.323091 
L 33.361461 8.208394 
L 33.066162 7.870058 
L 33.252116 7.777462 
L 33.44789 7.771793 
L 33.845333 7.870058 
L 33.809321 7.819035 
L 33.76807 7.705659 
L 33.734677 7.648976 
L 33.960571 7.473282 
L 34.252597 7.302657 
L 34.575396 7.171718 
L 35.215101 7.055903 
L 35.557544 6.891647 
L 35.83189 6.672053 
L 35.942545 6.438674 
L 35.995581 6.385213 
L 36.111475 6.431126 
L 36.224749 6.548751 
L 36.272547 6.708544 
L 36.203797 6.799147 
L 35.8332 7.120103 
L 35.824688 7.342949 
L 35.898676 7.409058 
L 36.020462 7.386392 
L 36.162546 7.341061 
L 36.188082 7.29888 
L 36.178916 7.223966 
L 36.205761 7.152205 
L 36.332131 7.120103 
L 36.438203 7.110662 
L 36.711894 7.015623 
L 36.766895 7.225854 
L 37.162373 7.764235 
L 37.11523 8.008024 
L 37.256659 7.968333 
L 37.458981 7.773683 
L 37.590589 7.552624 
L 37.785709 7.605522 
L 37.928448 7.524287 
L 38.083627 7.403391 
L 38.314759 7.341061 
L 38.948572 7.392058 
L 39.139763 7.438651 
L 40.467627 7.966443 
L 41.120428 8.139079 
L 42.13335 9.402046 
L 42.895496 9.665192 
L 42.840496 9.728939 
L 42.806448 9.778803 
L 42.760615 9.822358 
L 42.665019 9.866546 
L 42.665019 9.982706 
L 42.879782 10.052157 
L 43.01008 10.009854 
L 43.132521 9.925887 
L 43.324367 9.866546 
L 43.560083 9.865914 
L 43.890739 9.946089 
L 44.50098 10.011748 
L 45.484437 9.985231 
L 45.750272 9.866546 
L 46.03575 9.975761 
L 46.314025 10.009854 
L 46.506526 10.108984 
L 46.530097 10.415908 
L 46.419442 10.586465 
L 46.247894 10.769689 
L 46.164084 10.985813 
L 46.309442 11.255089 
L 46.321227 11.255089 
L 46.410275 11.255089 
L 46.500633 11.002246 
L 46.551705 10.743151 
L 46.644681 10.530873 
L 46.860099 10.415908 
L 47.004802 10.052157 
L 47.928676 9.907579 
L 49.506005 9.866546 
L 49.750887 9.920836 
L 50.714701 9.866546 
L 51.377324 10.004172 
L 51.794409 10.038266 
L 52.680306 9.704955 
L 53.500072 9.764286 
L 54.322457 9.971973 
L 54.909781 10.194862 
L 55.078056 10.107721 
L 55.26139 10.07615 
L 55.668654 10.078676 
L 55.639844 10.005435 
L 55.599249 9.831826 
L 55.569785 9.761761 
L 55.79175 9.793321 
L 56.170204 9.947351 
L 56.398062 9.982706 
L 57.226995 9.866546 
L 58.055928 9.866546 
L 58.290334 9.835614 
L 58.710693 9.696118 
L 59.095695 9.627325 
L 59.19391 9.545915 
L 59.314386 9.468299 
L 59.533733 9.44369 
L 60.045104 9.712529 
L 60.253319 9.761761 
L 61.502611 9.857708 
L 61.751422 9.761761 
L 62.005471 9.850133 
L 62.246424 9.774385 
L 62.487378 9.641841 
L 62.740117 9.559168 
L 64.608817 9.559168 
L 64.692627 9.418451 
L 64.585245 9.303621 
L 64.51715 9.180605 
L 64.717508 9.019762 
L 64.686079 8.969307 
L 64.641555 8.855793 
L 64.608817 8.80913 
L 65.127391 8.809761 
L 65.314654 8.737879 
L 65.386678 8.548743 
L 65.496679 8.404395 
L 65.752037 8.41574 
L 66.275194 8.597285 
L 66.62091 8.805977 
L 67.504843 9.542129 
L 67.803416 9.866546 
L 67.914071 9.866546 
L 67.997881 9.646258 
L 68.119668 9.712529 
L 68.30824 9.982706 
L 69.143065 10.078676 
L 72.383498 9.982706 
L 72.871953 10.074256 
L 72.92237 10.290221 
L 72.716119 10.53719 
L 72.438498 10.724196 
L 72.549154 10.830351 
L 72.714154 10.75958 
L 73.052668 10.677441 
L 73.217014 10.618053 
L 73.334872 10.516975 
L 73.38136 10.413382 
L 73.468444 10.332536 
L 73.707433 10.300958 
L 74.38446 10.347063 
L 74.639819 10.412119 
L 75.800062 10.957373 
L 76.347446 11.097054 
L 77.734893 11.145094 
L 78.12055 11.220951 
L 78.292098 11.419473 
L 78.485254 11.330955 
L 79.609486 11.572502 
L 79.739129 11.539618 
L 79.973535 11.396711 
L 80.158834 11.370787 
L 80.332347 11.405563 
L 80.696396 11.543412 
L 81.840271 11.712274 
L 83.15242 12.149428 
L 83.475219 12.220302 
L 87.057439 12.443718 
L 87.124225 12.448149 
L 87.550477 12.741265 
L 87.886372 12.506385 
L 88.341434 12.445617 
L 88.786019 12.532973 
L 89.097032 12.741265 
L 89.198521 12.741265 
L 89.36745 12.545634 
L 89.518701 12.491193 
L 90.267752 12.551964 
L 92.26675 12.402576 
L 92.711336 12.157021 
L 93.728841 11.932407 
L 94.111224 11.891286 
L 94.831465 11.891286 
L 94.924442 11.849535 
L 94.938192 11.774893 
L 94.965037 11.702786 
L 95.09599 11.669897 
L 95.20992 11.696461 
L 95.60016 11.891286 
L 95.680041 11.818539 
L 95.752065 11.799562 
L 95.829982 11.798929 
L 95.928852 11.785013 
L 95.857482 11.757814 
L 95.71016 11.669897 
L 95.71016 11.572502 
L 96.266056 11.287331 
L 96.544986 11.201986 
L 96.808856 11.255089 
L 97.010524 11.166586 
L 97.057667 11.184918 
L 97.138203 11.255089 
L 97.605705 11.050281 
L 98.089577 10.978229 
L 98.567555 11.044592 
L 99.016069 11.255089 
L 98.316125 11.477647 
L 98.021481 11.615507 
L 97.806718 11.785013 
L 97.974993 11.927979 
L 98.048981 11.970999 
L 98.136065 12.007695 
L 98.081065 12.019083 
L 98.037195 12.017818 
L 98.012314 12.034268 
L 98.016243 12.103868 
L 98.194339 12.108931 
L 98.339697 12.089948 
L 98.576067 12.007695 
L 98.688032 11.928611 
L 98.902795 11.714171 
L 98.965652 11.669897 
L 99.107082 11.704684 
L 99.257678 11.856493 
L 99.405 11.891286 
L 99.47375 11.828027 
L 99.436428 11.687607 
L 99.342142 11.542147 
L 99.235416 11.467529 
L 99.235416 11.370787 
L 99.460655 11.394181 
L 99.553631 11.416312 
L 99.664287 11.467529 
L 99.691787 11.389755 
L 99.713394 11.389755 
L 99.784109 11.370787 
L 99.664287 11.255089 
L 99.840418 11.20009 
L 100.315778 11.1767 
L 100.499112 11.09579 
L 100.658875 10.983917 
L 100.835661 10.92135 
L 102.069239 10.648378 
L 102.472574 10.669227 
L 102.4418 10.936518 
L 102.718766 10.947893 
L 102.934838 11.061658 
L 103.110315 11.192504 
L 103.260911 11.255089 
L 104.36681 11.390388 
L 104.44931 11.446662 
L 104.501037 11.526338 
L 104.51937 11.621199 
L 104.495798 11.757814 
L 104.431631 11.779953 
L 104.330798 11.762242 
L 104.199845 11.785013 
L 104.133059 11.744531 
L 103.981153 11.674325 
L 103.829248 11.643966 
L 103.759842 11.727454 
L 103.704842 11.816641 
L 103.575199 11.902041 
L 103.31984 12.007695 
L 103.64002 12.050086 
L 103.8227 12.225365 
L 103.973296 12.292448 
L 104.199845 12.007695 
L 104.374012 12.19056 
L 104.598597 12.205115 
L 105.07723 12.103868 
L 105.309672 12.135507 
L 106.077711 12.325358 
L 107.065097 12.422197 
L 107.795815 12.616538 
L 108.00534 12.644394 
L 108.174269 12.711506 
L 108.546175 13.01167 
L 108.965225 13.105411 
L 109.276893 13.174456 
L 109.584633 13.201062 
L 109.952611 13.001536 
L 110.462018 13.227669 
L 111.261486 13.717488 
L 111.261486 13.600238 
L 111.07095 13.224501 
L 111.01595 13.031938 
L 110.921663 12.919838 
L 110.921663 12.857144 
L 111.001545 12.783056 
L 111.216308 12.733034 
L 111.402261 12.574121 
L 112.102205 12.27093 
L 112.359528 12.220302 
L 112.359528 12.103868 
L 112.250837 12.103868 
L 112.250837 12.007695 
L 112.517981 11.896347 
L 112.917387 11.865982 
L 113.738463 11.891286 
L 114.498645 11.838148 
L 114.837159 11.742001 
L 115.116089 11.669897 
L 115.321685 11.704684 
L 115.658234 11.883063 
L 115.975795 12.105134 
L 116.11526 12.273462 
L 116.301868 12.663388 
L 116.364726 12.991403 
L 116.429548 12.930604 
L 116.553953 12.644394 
L 116.567048 12.56969 
L 116.56181 12.477267 
L 116.577524 12.389917 
L 116.655441 12.325358 
L 116.844669 12.300676 
L 117.03586 12.338017 
L 117.216575 12.393714 
L 117.718125 12.457011 
L 118.65182 12.741265 
L 119.341943 12.841946 
L 119.704028 12.94327 
L 120.011113 13.276449 
L 121.572073 13.798621 
L 122.2216 13.936816 
L 122.903865 13.988802 
L 123.604464 13.930476 
L 124.139407 13.825244 
L 124.326015 13.8132 
L 124.420301 13.862645 
L 124.532266 13.972953 
L 124.676969 14.083273 
L 124.874053 14.132732 
L 124.916613 14.115611 
L 124.968994 14.079469 
L 125.046256 14.043328 
L 125.153638 14.026209 
L 125.2309 14.060447 
L 125.266912 14.133366 
L 125.31471 14.205655 
L 125.427985 14.239266 
L 125.893523 13.978659 
L 126.093881 13.930476 
L 126.429775 13.893707 
L 127.571031 13.600238 
L 127.938354 13.432311 
L 128.122343 13.372117 
L 128.359368 13.379087 
L 128.551214 13.488072 
L 128.665798 13.640165 
L 128.792822 13.716221 
L 129.018716 13.600238 
L 128.929014 13.55461 
L 128.790203 13.442449 
L 128.680203 13.379087 
L 129.336278 13.170656 
L 129.939971 12.783056 
L 130.521402 12.562726 
z
" clip-path="url(#p05039487d5)" style="stroke: #000000; stroke-linejoin: miter"/>
   </g>
   <g id="line2d_1">
    <path d="M 130.798079 12.703874 
L 130.752391 13.402587 
L 131.213902 13.561527 
L 131.414306 13.754301 
L 131.549849 14.183454 
L 133.037495 14.081584 
L 133.193826 14.235803 
L 133.175532 14.46738 
L 133.37261 14.805381 
L 133.74265 14.887986 
L 134.121006 14.797726 
L 134.580023 14.291377 
L 135.399933 14.405352 
L 136.249779 14.632136 
L 136.620651 14.588628 
L 137.082994 14.926672 
L 137.144528 15.497465 
L 136.724595 16.61342 
L 135.725901 17.449009 
L 135.927968 17.788053 
L 136.575747 18.170074 
L 137.410625 18.271972 
L 137.684205 18.207678 
L 137.821412 17.996226 
L 137.971922 17.272866 
L 138.248829 17.049904 
L 138.609723 16.952577 
L 138.973111 17.02123 
L 138.505779 17.432444 
L 138.578124 17.641753 
L 139.152726 17.996226 
L 140.085727 18.114682 
L 141.163418 18.639619 
L 141.906825 18.639215 
L 142.293497 18.832599 
L 143.117564 18.937398 
L 143.313811 19.101296 
L 143.874276 19.40205 
L 144.489625 19.545375 
L 145.771877 19.621095 
L 147.012552 19.461159 
L 147.443296 19.567241 
L 147.736834 20.23517 
L 147.665321 20.391586 
L 147.918944 20.648956 
L 148.397086 20.665981 
L 149.23529 21.084004 
L 149.852302 21.821145 
L 149.955414 21.915305 
L 150.380337 22.026117 
L 150.35539 22.221794 
L 150.637286 22.281479 
L 151.048073 22.113802 
L 151.076346 21.73998 
L 151.486301 21.748096 
L 152.354441 22.039919 
L 152.845888 22.012316 
L 154.473234 21.198372 
L 154.757365 21.381925 
L 155.692289 21.789896 
L 155.883546 22.082137 
L 156.314706 22.119079 
L 157.07017 21.938847 
L 157.034414 22.211644 
L 157.322546 22.716029 
L 157.707139 23.071122 
L 157.752043 23.172716 
L 159.040948 23.671493 
L 159.598087 23.634086 
L 160.839594 23.304398 
L 161.826646 23.19832 
L 162.389606 23.021548 
L 163.503054 23.274728 
L 164.098861 23.930533 
L 164.337932 23.905318 
L 165.074687 23.238149 
L 165.366562 23.162556 
L 165.841378 23.552772 
L 165.931601 23.671493 
L 166.567322 23.704835 
L 167.181007 23.588143 
L 167.447935 23.669054 
L 170.342968 23.497357 
L 170.374997 23.458862 
L 170.391628 23.205635 
L 170.088944 22.7924 
L 169.861099 22.733497 
L 170.138837 22.441063 
L 169.960885 22.263614 
L 170.187067 21.82358 
L 170.228644 21.262457 
L 171.040239 21.134292 
L 171.322966 21.15457 
L 172.159507 21.356158 
L 172.748246 21.369139 
L 174.489515 22.111366 
L 175.094885 21.964418 
L 175.484051 22.174292 
L 177.192058 22.316398 
L 177.634444 22.726185 
L 177.920498 23.186534 
L 178.374525 23.348296 
L 178.911707 23.223111 
L 181.271651 23.301553 
L 181.283293 23.588143 
L 181.569346 23.646691 
L 182.666995 25.085038 
L 182.485716 25.487823 
L 182.618765 25.614515 
L 182.299449 26.127969 
L 182.662005 26.092915 
L 182.944733 26.275534 
L 182.999615 26.525057 
L 182.317743 26.7983 
L 182.781749 27.323788 
L 182.781749 27.521733 
L 182.966353 27.621332 
L 184.072317 27.70257 
L 184.429884 27.447448 
L 184.519692 27.373168 
L 186.049747 27.119353 
L 186.330811 26.626597 
L 186.803133 26.737528 
L 187.215582 26.600497 
L 187.218909 26.688586 
L 187.514941 26.777906 
L 188.852076 26.980231 
L 190.132666 27.493569 
L 190.683153 27.585818 
L 190.902683 27.851184 
L 191.266902 28.68693 
L 191.780801 28.980381 
L 192.41777 28.971389 
L 192.868471 28.834462 
L 194.054264 27.912432 
L 194.814302 27.982259 
L 196.314421 27.716451 
L 197.892706 28.337597 
L 198.649418 28.426655 
L 198.767499 28.682026 
L 199.331291 29.107925 
L 200.410645 29.263696 
L 200.670089 28.923973 
L 200.981089 28.917842 
L 202.075411 29.15126 
L 202.506155 29.133272 
L 202.499503 29.064591 
L 202.29993 28.900675 
L 202.153577 28.598257 
L 202.281636 28.46179 
L 203.244573 27.965108 
L 204.797912 27.859758 
L 205.541319 27.404594 
L 206.346261 27.358884 
L 206.875128 27.059377 
L 207.395679 27.205039 
L 207.841391 27.100585 
L 208.418488 27.131594 
L 208.804328 27.573981 
L 209.328205 27.739313 
L 210.159757 27.75891 
L 210.854043 27.671289 
L 210.749772 28.741304 
L 211.227751 29.124303 
L 211.962397 29.067005 
L 212.284542 29.28849 
L 212.4574 29.16744 
L 212.668234 29.197057 
L 213.054545 29.387015 
L 212.614543 30.098226 
L 212.437757 30.453374 
L 212.174541 30.703534 
L 211.919183 30.610684 
L 211.323346 30.705469 
L 210.381794 30.434679 
L 210.038697 30.705469 
L 209.854054 31.044703 
L 209.912982 32.279414 
L 210.172269 32.483515 
L 210.72751 32.731591 
L 211.393528 33.425285 
L 211.369608 33.621505 
L 211.15801 33.7772 
L 211.094233 33.985004 
L 211.350847 34.75656 
L 211.734539 35.060229 
L 211.678229 35.370466 
L 210.358356 36.974505 
L 209.821929 36.939137 
L 209.207259 37.27323 
L 209.053209 37.712594 
L 208.591117 37.907051 
L 207.152493 38.746985 
L 206.86369 39.09547 
L 205.294269 39.413334 
L 204.377645 40.164593 
L 199.083167 41.931085 
L 198.753166 42.191865 
L 197.826018 42.668606 
L 196.625179 43.051591 
L 196.152439 43.319175 
L 195.718984 43.763122 
L 194.47755 45.277861 
L 193.951118 45.647398 
L 192.820994 46.114572 
L 192.167538 46.255288 
L 191.067533 46.338417 
L 185.80584 47.441308 
L 184.436072 47.517322 
L 180.394861 48.664069 
L 179.139022 48.928473 
L 178.541876 49.593379 
L 178.039017 49.382639 
L 176.654843 49.492928 
L 175.6046 49.899387 
L 173.786972 51.27092 
L 172.906968 52.162986 
L 171.160054 53.528819 
L 170.848386 54.002057 
L 171.738867 54.33305 
L 172.013868 54.244687 
L 171.953629 54.125343 
L 171.738867 54.002057 
L 172.227321 54.107542 
L 173.412446 54.858756 
L 173.726733 54.943209 
L 173.705781 55.281087 
L 173.31816 55.796022 
L 172.283631 56.029803 
L 171.838391 56.333661 
L 171.044816 57.289378 
L 170.562908 57.585646 
L 169.578142 57.776146 
L 169.200997 57.310537 
L 169.976239 57.233175 
L 170.338979 57.430227 
L 170.870648 57.176314 
L 171.457318 56.471746 
L 170.645409 56.463817 
L 169.003258 56.960137 
L 168.493851 57.469245 
L 167.446226 59.214554 
L 166.951224 59.718735 
L 166.846462 60.136299 
L 166.430031 60.465158 
L 165.12181 62.322774 
L 164.476212 62.773207 
L 163.927519 63.37739 
L 162.970252 64.00252 
L 161.993343 65.518898 
L 161.550721 65.887316 
L 160.732265 66.287182 
L 160.319108 66.763206 
L 159.206007 68.420842 
L 158.198324 69.305365 
L 156.452065 71.65627 
L 156.305398 72.328839 
L 154.635092 74.473082 
L 154.464198 74.766488 
L 154.347699 75.357676 
L 154.507413 76.882265 
L 154.818426 77.975929 
L 156.199842 80.29772 
L 155.77037 80.555796 
L 156.287801 82.009205 
L 157.962608 84.37237 
L 159.947856 85.573921 
L 160.682503 85.632878 
L 161.453816 85.813833 
L 162.145248 86.129044 
L 162.649417 86.586756 
L 162.580012 86.613885 
L 162.41763 86.710876 
L 162.737156 86.891993 
L 163.173229 87.176951 
L 163.331682 87.142345 
L 163.441683 87.608586 
L 163.331682 87.736885 
L 162.758108 87.806131 
L 162.284058 88.087909 
L 162.0012 88.541607 
L 161.575602 88.600709 
L 160.84423 89.228589 
L 160.964052 89.465827 
L 160.417978 89.445433 
L 159.909225 89.570526 
L 159.204043 89.638517 
L 158.976185 89.78811 
L 158.786303 90.062866 
L 158.701184 90.774526 
L 158.216003 91.065161 
L 157.547487 91.065161 
L 156.414744 91.328629 
L 155.902717 91.628929 
L 154.123066 92.299252 
L 153.895208 92.561623 
L 153.133061 93.350434 
L 153.01062 93.921393 
L 152.262223 94.001226 
L 152.095258 94.138386 
L 152.034365 94.392275 
L 151.46341 94.364973 
L 151.319362 95.031324 
L 151.557041 96.566796 
L 151.373052 96.763736 
L 151.092813 96.819815 
L 150.151261 96.862218 
L 149.631377 97.31985 
L 149.357031 97.837197 
L 149.28828 98.100058 
L 149.135065 100.233742 
L 148.992326 100.385993 
L 148.565419 100.523172 
L 148.107084 101.014395 
L 147.428747 102.654103 
L 147.426128 103.494005 
L 146.987436 103.043055 
L 146.594576 103.93411 
L 146.383087 104.081305 
L 146.024931 104.17073 
L 145.891359 104.400513 
L 145.947669 104.717049 
L 146.634517 105.679526 
L 147.521724 106.112808 
L 147.842559 106.145878 
L 147.97744 105.939891 
L 148.274704 106.083872 
L 148.383395 106.281614 
L 148.317918 106.481454 
L 147.668391 106.821944 
L 147.526307 106.739226 
L 146.931126 106.957062 
L 146.665946 107.00808 
L 146.208265 107.21217 
L 145.398975 107.248028 
L 144.642722 107.472847 
L 144.002361 107.21217 
L 143.472656 107.126669 
L 142.163781 107.136322 
L 141.730981 107.343192 
L 141.645207 107.506643 
L 141.873993 107.962559 
L 140.887732 107.765535 
L 140.702231 107.424335 
L 139.891091 107.217687 
L 139.670548 107.164709 
L 139.365264 107.529799 
L 138.366552 107.456413 
L 137.635425 107.806011 
L 136.650659 108.539552 
L 136.11768 108.711439 
L 135.905536 108.970348 
L 135.579463 109.732878 
L 135.145354 109.71837 
L 134.677851 109.998212 
L 134.440172 110.03622 
L 133.251342 110.527179 
L 133.070776 110.863239 
L 132.780342 110.828421 
L 132.631056 110.979174 
L 132.328554 111.625258 
L 131.853195 112.203824 
L 130.497831 113.486442 
L 130.214318 114.179525 
L 129.814256 115.709762 
L 129.026574 117.591353 
L 129.114967 117.870103 
L 129.00955 118.110668 
L 128.227105 118.38466 
L 127.439423 118.947424 
L 127.274422 119.653128 
L 126.423882 120.717961 
L 126.192095 120.93953 
L 125.862094 121.032907 
L 125.697093 121.359081 
L 125.123519 121.63653 
L 124.811196 121.676967 
L 124.207502 121.513134 
L 122.361719 119.958771 
L 121.664395 119.806985 
L 121.365822 119.858507 
L 120.515282 120.15793 
L 119.737421 119.923957 
L 118.201342 120.242894 
L 117.553124 121.662326 
L 116.88199 122.238332 
L 116.472107 122.389697 
L 115.926688 122.457363 
L 115.637936 122.365282 
L 115.30859 122.485966 
L 114.273406 121.911247 
L 114.128703 121.948206 
L 113.834713 122.145569 
L 113.665784 122.064667 
L 113.225782 121.559842 
L 112.777268 121.287288 
L 112.466909 121.264287 
L 111.590544 121.513461 
L 110.162673 121.296801 
L 108.871204 121.3864 
L 107.725755 121.209923 
L 106.089497 121.379992 
L 104.712459 122.22623 
L 103.707585 122.216293 
L 103.090308 121.788676 
L 102.545305 121.937318 
L 101.956839 121.693871 
L 101.720315 121.420241 
L 100.681343 121.474717 
L 100.453557 121.655685 
L 99.625504 121.736399 
L 97.899531 121.258882 
L 95.92961 121.690213 
L 94.388844 121.327017 
L 94.014772 121.402872 
L 93.528579 121.708378 
L 91.685319 121.937049 
L 88.537863 121.808745 
L 88.329648 121.966337 
L 86.856174 124.19553 
L 85.842831 124.313944 
L 85.404796 125.056873 
L 84.354569 125.568102 
L 83.670994 125.702359 
L 83.003788 125.685576 
L 80.623062 125.512865 
L 79.30378 126.319354 
L 78.20436 126.403228 
L 77.262153 126.861576 
L 76.415542 127.001561 
L 76.207981 127.108659 
L 75.55518 128.025286 
L 75.542085 128.187108 
L 75.048392 129.151431 
L 74.798927 129.323903 
L 74.533747 129.412251 
L 74.618866 129.698369 
L 73.91041 130.778863 
L 73.834458 130.957156 
L 73.758532 131.762923 
L 73.442925 131.763099 
L 73.310645 131.382626 
L 72.675523 131.105284 
L 72.363855 131.096157 
L 72.105878 131.876364 
L 72.21195 132.101168 
L 72.131413 132.227637 
L 72.261057 132.998642 
L 72.041056 133.208159 
L 69.365686 134.089465 
L 69.076934 133.565397 
L 68.117049 133.040824 
L 67.734666 133.164566 
L 66.400254 132.723083 
L 66.155372 132.527694 
L 65.809656 132.086414 
L 64.451019 131.021741 
L 63.383097 131.143898 
L 62.526664 130.927673 
L 62.112852 130.449714 
L 61.433206 129.355455 
L 60.552547 128.948838 
L 60.15445 127.805351 
L 59.604447 127.25917 
L 58.619026 125.387715 
L 58.129916 124.995562 
L 58.461882 124.941047 
L 59.112064 125.500279 
L 59.029563 125.645718 
L 59.393613 126.051349 
L 59.715103 125.916358 
L 60.232367 125.349264 
L 60.117783 125.337379 
L 59.508197 125.395406 
L 59.377899 125.131859 
L 59.481351 124.608414 
L 59.338613 124.280752 
L 58.389858 123.575397 
L 57.006994 123.448332 
L 56.76735 123.231234 
L 56.398062 122.218803 
L 56.071989 121.578665 
L 56.145323 121.271954 
L 56.741159 120.862883 
L 57.556997 120.522202 
L 57.724617 120.123806 
L 57.587116 119.410892 
L 57.676164 119.003783 
L 58.220929 118.602363 
L 59.525875 118.685837 
L 59.983556 118.176727 
L 59.674507 118.354754 
L 59.262005 118.496637 
L 58.853432 118.504984 
L 58.555514 118.282428 
L 57.571402 118.703924 
L 57.446996 119.062928 
L 57.446996 120.289558 
L 56.874731 120.296522 
L 56.420324 119.78958 
L 55.537701 118.116926 
L 55.079366 117.706044 
L 50.704225 115.092875 
L 50.056008 114.906269 
L 49.066003 114.310559 
L 48.750406 114.176059 
L 48.461 113.794819 
L 48.352309 113.349949 
L 48.65612 112.997347 
L 49.397314 111.985793 
L 48.580167 112.762564 
L 48.134927 113.029902 
L 47.629448 113.136575 
L 48.151951 113.893238 
L 48.178141 114.077619 
L 47.965997 114.099109 
L 46.03444 113.369348 
L 45.401001 113.193705 
L 44.977649 113.355491 
L 45.650093 113.496143 
L 41.506085 113.670767 
L 41.187214 113.91819 
L 40.889296 113.948688 
L 40.358281 113.72898 
L 40.039247 112.596641 
L 40.146517 112.338128 
L 39.987691 111.77995 
L 39.866284 110.429889 
L 39.588546 109.90149 
L 39.624303 109.710196 
L 39.482108 108.922066 
L 39.279209 108.501226 
L 38.732879 108.009981 
L 38.554927 107.300395 
L 38.779446 106.975518 
L 38.902516 106.70412 
L 39.438035 106.187311 
L 39.522854 105.932265 
L 39.664217 105.118034 
L 39.882084 104.609294 
L 40.166475 104.263258 
L 41.645805 103.227021 
L 42.089022 102.571132 
L 42.749274 100.341125 
L 43.846922 100.223545 
L 44.245236 100.157792 
L 44.577025 100.042841 
L 44.743335 99.85868 
L 45.043525 99.379901 
L 45.322095 99.40253 
L 46.232644 99.713286 
L 46.640936 99.673676 
L 47.065027 98.544653 
L 47.582253 97.472698 
L 47.871633 96.744677 
L 47.603041 96.584882 
L 46.601853 96.694304 
L 46.403944 96.919693 
L 45.605654 97.135566 
L 45.361178 97.132091 
L 44.985317 96.841085 
L 44.25272 95.40269 
L 43.797861 95.035763 
L 43.62573 94.714465 
L 41.923543 92.9196 
L 41.24666 92.554709 
L 41.633332 92.168293 
L 41.650794 91.974482 
L 41.465358 91.75475 
L 41.623353 91.55841 
L 41.914396 90.715455 
L 42.675266 89.688268 
L 42.530576 89.500894 
L 42.34514 89.346353 
L 42.31271 89.043803 
L 42.509787 87.972753 
L 42.675266 87.687787 
L 44.596982 86.324245 
L 45.599833 86.089604 
L 46.124543 85.726754 
L 45.964053 84.903322 
L 46.31081 84.669818 
L 46.670872 84.266561 
L 47.43091 82.93394 
L 47.247137 82.81673 
L 47.358565 82.532554 
L 47.257116 82.207252 
L 46.773153 81.708314 
L 46.402281 81.503736 
L 45.982347 81.410252 
L 45.558256 81.448845 
L 44.978664 81.697162 
L 44.497196 81.565063 
L 44.309265 81.292763 
L 44.519648 80.800637 
L 44.32257 80.483521 
L 43.098526 80.068827 
L 42.874007 79.809288 
L 42.750106 79.477025 
L 42.773389 79.129448 
L 42.990424 78.826472 
L 41.770538 77.65638 
L 41.68572 76.938478 
L 41.980089 76.089529 
L 41.981752 75.736978 
L 41.86284 75.572263 
L 40.845021 75.298358 
L 40.599713 75.138823 
L 40.307838 74.634769 
L 39.494581 74.205087 
L 38.726227 73.4876 
L 38.059323 72.070122 
L 41.751412 72.152654 
L 42.316036 72.012267 
L 44.083915 72.147549 
L 46.686671 71.836171 
L 46.854645 71.362459 
L 46.812236 71.097197 
L 47.114089 70.379087 
L 47.022618 70.0512 
L 47.2646 69.745483 
L 47.785983 69.552753 
L 48.245831 68.917059 
L 48.27743 68.082453 
L 48.482823 67.925608 
L 48.685722 67.021416 
L 48.962628 66.659771 
L 47.739416 65.124697 
L 47.394322 64.953041 
L 46.773153 64.860881 
L 46.581896 64.638545 
L 46.470468 63.650822 
L 46.773153 63.120563 
L 48.381374 62.647932 
L 48.693206 62.631056 
L 49.036637 62.373728 
L 49.115634 61.977306 
L 49.216252 61.888763 
L 50.052793 61.377035 
L 50.334689 60.984336 
L 49.793349 60.59009 
L 49.419982 60.118527 
L 49.326017 59.587414 
L 49.622881 59.016184 
L 50.043646 58.407419 
L 49.785865 57.904851 
L 49.466549 57.592333 
L 49.433287 57.308454 
L 49.529747 57.055712 
L 50.015373 56.253369 
L 49.983774 55.766876 
L 49.645332 53.989656 
L 49.706036 53.810503 
L 49.632859 53.533458 
L 49.655311 53.123461 
L 49.918081 53.059047 
L 49.984606 52.854954 
L 49.904777 52.640866 
L 49.355952 52.363283 
L 48.874484 51.365572 
L 48.648302 51.077459 
L 47.985555 50.485608 
L 47.952293 50.281999 
L 48.124424 50.070086 
L 48.194367 49.763847 
L 48.526064 49.634711 
L 49.955501 49.666399 
L 50.175031 49.500464 
L 50.945048 48.490398 
L 50.965837 47.978227 
L 51.174556 47.775092 
L 51.833976 47.275743 
L 51.954551 47.035307 
L 52.712927 46.227038 
L 52.998149 46.189633 
L 54.196415 46.098204 
L 55.139394 45.787404 
L 56.182992 45.078888 
L 56.754268 44.446356 
L 57.017038 44.461293 
L 57.065268 44.150142 
L 57.017038 44.142676 
L 57.448614 43.951053 
L 57.950871 43.922852 
L 57.952534 43.785175 
L 58.572871 42.939598 
L 58.517989 42.70594 
L 58.62027 42.54357 
L 59.036877 42.214764 
L 59.8044 41.369618 
L 58.737519 40.442065 
L 58.015732 40.091603 
L 57.229915 39.876342 
L 55.703187 39.669387 
L 55.023809 40.044498 
L 54.856667 40.079207 
L 54.404303 39.951534 
L 54.18311 39.695822 
L 53.922003 38.508552 
L 54.104944 38.226383 
L 54.682873 36.622691 
L 53.852984 36.376031 
L 53.984369 35.688248 
L 53.919508 35.424945 
L 53.702473 35.23327 
L 53.310812 35.111127 
L 53.096272 35.451272 
L 52.549943 35.576747 
L 51.404064 35.61213 
L 50.922596 35.505163 
L 50.33552 34.834405 
L 49.844073 34.769861 
L 49.742624 35.244375 
L 49.360942 35.419598 
L 47.909884 35.413016 
L 47.149846 35.046565 
L 46.201877 35.434406 
L 45.695462 35.262883 
L 44.687621 34.710664 
L 44.173722 34.855783 
L 43.809503 35.088921 
L 43.774577 35.311417 
L 43.841933 36.079623 
L 43.508481 36.437382 
L 42.980446 36.681997 
L 41.547682 37.008653 
L 40.720288 37.027193 
L 40.503253 37.136377 
L 39.902873 37.602911 
L 39.680017 37.072101 
L 39.473792 36.859936 
L 38.606484 36.738423 
L 38.473435 37.057269 
L 37.901328 37.273596 
L 37.274338 37.290492 
L 37.014894 37.182115 
L 37.004915 37.032137 
L 37.253549 36.530856 
L 36.106008 36.400736 
L 35.408336 36.115435 
L 34.955972 36.288747 
L 33.222186 36.680762 
L 33.110758 36.77467 
L 32.599354 36.773846 
L 32.446349 35.882888 
L 32.129527 35.973431 
L 31.824348 36.630104 
L 31.0377 36.682409 
L 30.123638 37.442811 
L 29.431142 37.590545 
L 28.045777 37.527065 
L 28.05074 37.496632 
L 28.086523 36.902777 
L 27.965117 36.777141 
L 27.388851 36.610336 
L 27.206741 36.325801 
L 27.230856 36.028995 
L 27.383862 35.741739 
L 28.004615 35.06178 
L 28.941358 34.49734 
L 29.368776 34.1382 
L 29.405364 33.860918 
L 29.27481 33.624364 
L 28.720997 33.352558 
L 27.652453 33.405928 
L 27.598402 33.148135 
L 27.647464 32.46497 
L 27.357252 32.07087 
L 26.579751 32.41411 
L 26.039243 32.512141 
L 25.355707 32.895331 
L 22.567514 33.276202 
L 21.718084 33.646538 
L 20.847866 33.700335 
L 20.434584 34.011668 
L 20.141047 34.514602 
L 19.397639 34.769861 
L 18.853831 35.005187 
L 18.430852 35.51169 
L 18.136208 35.694403 
L 17.533824 35.881038 
L 17.021798 36.280341 
L 16.754654 36.210322 
L 16.795249 35.989923 
L 16.525486 32.619174 
L 16.700963 32.508707 
L 17.635313 32.437653 
L 17.755135 32.291685 
L 17.680492 32.166402 
L 17.305966 31.956554 
L 18.212816 31.263396 
L 18.513353 30.982781 
L 20.932055 29.589247 
L 20.854793 28.985892 
L 20.721221 29.016791 
L 20.477648 29.187399 
L 20.076932 29.766394 
L 18.130315 30.412116 
L 16.975964 30.441125 
L 17.305966 29.674274 
L 17.531205 29.922954 
L 17.624182 29.803116 
L 17.623527 29.052198 
L 17.855314 29.016791 
L 18.513353 29.07473 
L 18.63121 28.869383 
L 19.513179 28.162897 
L 20.274671 27.743615 
L 20.391219 27.515398 
L 20.244552 27.568751 
L 19.723359 27.568751 
L 18.394186 28.123019 
L 17.360966 28.110155 
L 16.843702 27.758402 
L 16.645963 27.289804 
L 16.437747 27.204978 
L 15.767268 27.073898 
L 15.889054 26.919708 
L 16.754654 26.64351 
L 17.083346 26.82592 
L 17.078108 26.974956 
L 16.865964 27.073898 
L 17.467038 27.237751 
L 17.635313 27.191484 
L 17.65692 26.840052 
L 17.658884 26.669199 
L 17.855314 26.545895 
L 17.635313 25.727464 
L 17.839599 25.30471 
L 18.456388 24.937912 
L 19.173356 23.619968 
L 19.073177 23.619968 
L 18.804068 24.116314 
L 18.587996 24.300826 
L 18.303828 24.373231 
L 18.000672 24.288653 
L 17.426443 23.714095 
L 17.144894 24.238678 
L 17.305966 24.373231 
L 16.766439 24.826361 
L 16.535962 24.695592 
L 16.622391 24.530233 
L 15.867447 24.910985 
L 16.095305 25.111675 
L 15.906078 25.220052 
L 15.282087 25.423371 
L 15.153098 25.781363 
L 14.891192 25.904573 
L 14.658096 26.104822 
L 14.419761 25.909066 
L 14.307142 25.357304 
L 13.703448 25.073201 
L 13.785949 24.692387 
L 14.208927 23.862026 
L 14.358868 23.316518 
L 14.972383 22.823131 
L 15.437266 22.631218 
L 16.095305 22.052506 
L 16.592272 21.876082 
L 16.695725 21.630037 
L 16.651201 21.377026 
L 16.317271 21.246073 
L 16.250485 21.605116 
L 16.001019 21.826229 
L 15.208098 21.986663 
L 14.056367 21.94831 
L 14.109403 22.211059 
L 13.535828 22.57557 
L 13.018564 22.399053 
L 12.671538 21.665183 
L 13.022492 21.60895 
L 13.230708 21.343168 
L 13.099755 21.161762 
L 12.553681 20.84055 
L 12.484276 20.478595 
L 12.671538 20.262251 
L 12.679396 20.021075 
L 12.568085 19.960471 
L 12.142488 19.875632 
L 11.69201 19.522959 
L 11.693319 19.879459 
L 11.463497 19.892854 
L 11.394746 19.684293 
L 11.052959 19.749344 
L 10.793672 19.978971 
L 10.524564 20.432642 
L 10.44992 20.400731 
L 10.251526 19.695134 
L 10.805458 18.46634 
L 10.345813 17.868436 
L 10.803493 17.637396 
L 10.889922 17.352332 
L 11.342365 16.938882 
L 11.78957 17.128411 
L 12.232846 16.938882 
L 12.701658 16.571377 
L 13.110231 16.406745 
L 12.477073 16.559935 
L 12.215822 16.543407 
L 12.232846 16.406745 
L 11.490997 16.572649 
L 11.342365 16.299971 
L 12.107131 15.778348 
L 12.624395 15.578922 
L 13.505709 15.762469 
L 14.000712 15.659577 
L 14.574286 15.230344 
L 14.658096 14.998028 
L 14.778573 14.998028 
L 15.073217 15.183368 
L 15.504052 15.173846 
L 16.20727 14.900294 
L 15.67822 14.82351 
L 15.366552 14.480279 
L 15.03655 14.307758 
L 16.645963 13.720024 
L 17.271918 13.512786 
L 17.579658 13.401263 
L 17.788528 13.484904 
L 18.568353 13.933012 
L 20.228183 14.024941 
L 21.400867 13.66615 
L 21.94956 13.837288 
L 22.929089 13.454488 
L 23.113732 13.197261 
L 23.806474 12.870442 
L 24.687133 12.705808 
L 24.889455 13.06234 
L 25.245648 13.285952 
L 25.508209 12.967969 
L 25.465649 12.599444 
L 25.613626 12.398145 
L 25.93708 12.437389 
L 26.738512 12.843845 
L 26.903513 13.188393 
L 27.439111 13.60214 
L 27.55304 13.837288 
L 27.677445 13.587563 
L 27.639469 12.49056 
L 28.112864 12.232326 
L 27.503278 12.098174 
L 26.675 12.061475 
L 26.024818 11.692034 
L 26.325355 11.522544 
L 28.176376 11.274055 
L 28.222865 11.055969 
L 28.144293 11.044592 
L 27.773041 11.162161 
L 26.794822 11.277848 
L 27.013514 11.162161 
L 26.794822 11.055969 
L 26.603631 11.258882 
L 26.285415 11.351819 
L 25.574995 11.374581 
L 25.758984 10.809498 
L 25.840174 10.576357 
L 26.024818 10.63132 
L 26.234998 10.42033 
L 25.975711 10.212544 
L 25.904341 9.889903 
L 26.735893 9.930306 
L 27.198157 9.759867 
L 29.540907 8.504617 
L 29.734717 8.765622 
L 30.100731 8.716442 
L 29.88073 8.716442 
L 29.94948 8.59035 
L 30.100731 8.504617 
L 29.790372 8.328133 
L 29.745194 8.163024 
L 29.980909 7.684875 
L 31.692465 7.364355 
L 32.406814 6.804181 
L 32.852709 6.852003 
L 33.405331 7.648976 
L 33.066162 7.552624 
L 32.878245 7.822814 
L 32.800328 8.161763 
L 32.748601 8.14538 
L 32.626815 8.071029 
L 32.406814 8.29284 
L 33.214139 8.323091 
L 33.361461 8.208394 
L 33.066162 7.870058 
L 33.44789 7.771793 
L 33.845333 7.870058 
L 33.809321 7.819035 
L 33.734677 7.648976 
L 34.252597 7.302657 
L 34.575396 7.171718 
L 35.557544 6.891647 
L 35.83189 6.672053 
L 35.995581 6.385213 
L 36.224749 6.548751 
L 36.203797 6.799147 
L 35.8332 7.120103 
L 35.898676 7.409058 
L 36.188082 7.29888 
L 36.205761 7.152205 
L 36.711894 7.015623 
L 36.766895 7.225854 
L 37.162373 7.764235 
L 37.11523 8.008024 
L 37.256659 7.968333 
L 37.785709 7.605522 
L 38.314759 7.341061 
L 39.139763 7.438651 
L 41.120428 8.139079 
L 42.13335 9.402046 
L 42.895496 9.665192 
L 42.840496 9.728939 
L 42.665019 9.982706 
L 43.01008 10.009854 
L 43.324367 9.866546 
L 43.890739 9.946089 
L 44.50098 10.011748 
L 45.484437 9.985231 
L 45.750272 9.866546 
L 46.506526 10.108984 
L 46.530097 10.415908 
L 46.164084 10.985813 
L 46.410275 11.255089 
L 46.644681 10.530873 
L 46.860099 10.415908 
L 47.004802 10.052157 
L 47.928676 9.907579 
L 50.714701 9.866546 
L 51.794409 10.038266 
L 52.680306 9.704955 
L 53.500072 9.764286 
L 55.078056 10.107721 
L 55.668654 10.078676 
L 55.639844 10.005435 
L 55.569785 9.761761 
L 56.398062 9.982706 
L 57.226995 9.866546 
L 58.290334 9.835614 
L 59.533733 9.44369 
L 60.253319 9.761761 
L 61.502611 9.857708 
L 61.751422 9.761761 
L 62.005471 9.850133 
L 62.740117 9.559168 
L 64.608817 9.559168 
L 64.692627 9.418451 
L 64.51715 9.180605 
L 64.686079 8.969307 
L 64.608817 8.80913 
L 65.314654 8.737879 
L 65.496679 8.404395 
L 65.752037 8.41574 
L 66.62091 8.805977 
L 67.914071 9.866546 
L 67.997881 9.646258 
L 68.119668 9.712529 
L 68.30824 9.982706 
L 69.143065 10.078676 
L 72.871953 10.074256 
L 72.92237 10.290221 
L 72.549154 10.830351 
L 73.707433 10.300958 
L 74.639819 10.412119 
L 76.347446 11.097054 
L 78.12055 11.220951 
L 78.292098 11.419473 
L 78.485254 11.330955 
L 79.739129 11.539618 
L 80.158834 11.370787 
L 81.840271 11.712274 
L 83.475219 12.220302 
L 87.124225 12.448149 
L 87.550477 12.741265 
L 87.886372 12.506385 
L 88.341434 12.445617 
L 88.786019 12.532973 
L 89.198521 12.741265 
L 89.518701 12.491193 
L 90.267752 12.551964 
L 92.26675 12.402576 
L 92.711336 12.157021 
L 94.111224 11.891286 
L 94.924442 11.849535 
L 94.965037 11.702786 
L 95.20992 11.696461 
L 95.680041 11.818539 
L 95.928852 11.785013 
L 95.857482 11.757814 
L 95.71016 11.572502 
L 96.544986 11.201986 
L 96.808856 11.255089 
L 97.057667 11.184918 
L 97.138203 11.255089 
L 97.605705 11.050281 
L 98.089577 10.978229 
L 98.567555 11.044592 
L 99.016069 11.255089 
L 98.021481 11.615507 
L 97.806718 11.785013 
L 98.194339 12.108931 
L 98.576067 12.007695 
L 99.107082 11.704684 
L 99.405 11.891286 
L 99.47375 11.828027 
L 99.342142 11.542147 
L 99.235416 11.370787 
L 99.784109 11.370787 
L 99.664287 11.255089 
L 99.840418 11.20009 
L 100.499112 11.09579 
L 100.835661 10.92135 
L 102.472574 10.669227 
L 102.4418 10.936518 
L 102.934838 11.061658 
L 103.260911 11.255089 
L 104.44931 11.446662 
L 104.51937 11.621199 
L 104.431631 11.779953 
L 103.759842 11.727454 
L 103.575199 11.902041 
L 103.31984 12.007695 
L 103.64002 12.050086 
L 103.973296 12.292448 
L 104.199845 12.007695 
L 104.374012 12.19056 
L 104.598597 12.205115 
L 105.309672 12.135507 
L 106.077711 12.325358 
L 107.065097 12.422197 
L 108.174269 12.711506 
L 108.546175 13.01167 
L 109.584633 13.201062 
L 109.952611 13.001536 
L 110.462018 13.227669 
L 111.261486 13.717488 
L 111.261486 13.600238 
L 110.921663 12.857144 
L 111.216308 12.733034 
L 111.402261 12.574121 
L 112.359528 12.103868 
L 112.250837 12.103868 
L 112.250837 12.007695 
L 112.517981 11.896347 
L 115.321685 11.704684 
L 115.975795 12.105134 
L 116.301868 12.663388 
L 116.364726 12.991403 
L 116.429548 12.930604 
L 116.655441 12.325358 
L 117.03586 12.338017 
L 118.65182 12.741265 
L 119.704028 12.94327 
L 120.011113 13.276449 
L 122.2216 13.936816 
L 122.903865 13.988802 
L 124.420301 13.862645 
L 124.676969 14.083273 
L 124.968994 14.079469 
L 125.2309 14.060447 
L 125.427985 14.239266 
L 126.093881 13.930476 
L 126.429775 13.893707 
L 128.359368 13.379087 
L 128.792822 13.716221 
L 129.018716 13.600238 
L 128.929014 13.55461 
L 128.680203 13.379087 
L 129.336278 13.170656 
L 129.939971 12.783056 
L 130.521402 12.562726 
L 130.798079 12.703874 
L 130.798079 12.703874 
" clip-path="url(#p05039487d5)" style="fill: none; stroke: #000000; stroke-width: 0.5; stroke-linecap: square"/>
   </g>
  </g>
 </g>
 <defs>
  <clipPath id="p05039487d5">
   <rect x="0" y="0" width="223.2" height="140.474678"/>
  </clipPath>
 </defs>
</svg>
