<?xml version="1.0" encoding="utf-8" standalone="no"?>
<!DOCTYPE svg PUBLIC "-//W3C//DTD SVG 1.1//EN"
  "http://www.w3.org/Graphics/SVG/1.1/DTD/svg11.dtd">
<svg xmlns:xlink="http://www.w3.org/1999/xlink" width="95.083664pt" height="221.76pt" viewBox="0 0 95.083664 221.76" xmlns="http://www.w3.org/2000/svg" version="1.1">
 <metadata>
  <rdf:RDF xmlns:dc="http://purl.org/dc/elements/1.1/" xmlns:cc="http://creativecommons.org/ns#" xmlns:rdf="http://www.w3.org/1999/02/22-rdf-syntax-ns#">
   <cc:Work>
    <dc:type rdf:resource="http://purl.org/dc/dcmitype/StillImage"/>
    <dc:date>2026-04-26T19:22:16.354640</dc:date>
    <dc:format>image/svg+xml</dc:format>
    <dc:creator>
     <cc:Agent>
      <dc:title>Matplotlib v3.10.9, https://matplotlib.org/</dc:title>
     </cc:Agent>
    </dc:creator>
   </cc:Work>
  </rdf:RDF>
 </metadata>
 <defs>
  <style type="text/css">*{stroke-linejoin: round; stroke-linecap: butt}</style>
 </defs>
 <g id="figure_1">
  <g id="patch_1">
   <path d="M 0 221.76 
L 95.083664 221.76 
L 95.083664 0 
L 0 0 
z
" style="fill: #ffffff"/>
  </g>
  <g id="axes_1">
   <g id="patch_2">
    <path d="M 90.197259 151.195059 
L 90.293467 152.013645 
L 90.697541 153.84241 
L 90.76168 154.919951 
L 90.537194 156.976248 
L 88.72207 165.188387 
L 88.619448 166.034804 
L 88.580965 167.154981 
L 88.446274 168.089903 
L 87.878646 169.53236 
L 87.753576 170.176754 
L 87.52909 171.061243 
L 86.76584 172.621807 
L 86.406664 173.356842 
L 86.676046 174.616348 
L 86.24311 176.109721 
L 82.532687 183.78644 
L 81.294811 185.406754 
L 79.008267 187.52869 
L 78.261052 187.821602 
L 77.260488 188.523338 
L 69.945472 196.047589 
L 68.48311 197.084704 
L 63.733641 199.293972 
L 63.730434 199.293972 
L 63.666296 198.545584 
L 63.663089 198.501314 
L 63.380879 198.210397 
L 63.374465 198.212505 
L 63.310326 198.233586 
L 63.073013 198.31791 
L 62.922287 198.733206 
L 62.845321 199.605982 
L 62.630456 199.934861 
L 62.284107 200.057137 
L 61.825516 200.322774 
L 60.969264 200.999527 
L 60.113013 201.492871 
L 56.011345 202.646149 
L 54.023046 203.54013 
L 51.842331 204.05882 
L 50.848181 204.560651 
L 50.251691 205.661336 
L 49.183782 205.387215 
L 48.526361 205.71827 
L 48.154357 205.908048 
L 46.637477 207.377815 
L 45.120597 208.845548 
L 44.421486 209.908435 
L 42.808398 209.784008 
L 42.805191 209.781899 
L 42.131735 209.908435 
L 41.605798 210.169945 
L 41.063826 210.574869 
L 40.104953 211.515493 
L 39.829156 211.599855 
L 39.55336 211.68 
L 38.899146 211.348878 
L 38.206448 210.880674 
L 37.808788 210.722498 
L 37.532992 210.614939 
L 35.252862 210.969252 
L 34.601854 210.80264 
L 34.27154 210.374515 
L 34.059882 209.811424 
L 33.893122 209.482432 
L 33.768051 209.235691 
L 33.101009 209.743938 
L 32.504519 209.802988 
L 31.443024 209.60264 
L 31.189677 209.554135 
L 31.000467 209.444472 
L 30.868983 209.199839 
L 30.702223 208.957318 
L 30.394357 208.845548 
L 30.211562 208.929903 
L 30.06725 209.098613 
L 29.913317 209.242017 
L 29.708073 209.233582 
L 29.637521 209.157662 
L 29.573382 209.083851 
L 29.323241 208.617791 
L 29.201378 208.520785 
L 29.169308 208.495478 
L 29.169308 208.491261 
L 28.890305 208.362622 
L 27.206665 207.571821 
L 26.517174 207.38625 
L 26.026513 207.25129 
L 25.170262 206.350868 
L 24.977846 206.228564 
L 24.599427 205.988176 
L 24.593014 205.983959 
L 24.30439 206.369846 
L 23.570002 205.59386 
L 20.359861 201.138675 
L 20.096892 200.868813 
L 20.093685 200.866705 
L 20.064823 200.818215 
L 19.975029 200.676961 
L 19.926925 200.45981 
L 19.939753 200.019189 
L 19.840338 199.791503 
L 19.705646 199.56171 
L 19.349677 198.952452 
L 17.531345 193.927103 
L 17.454379 193.446538 
L 17.454379 193.442322 
L 17.464 193.012351 
L 17.47362 192.582385 
L 17.47362 192.57817 
L 17.406275 192.316822 
L 17.079168 191.425306 
L 16.745646 189.008032 
L 16.020879 187.309535 
L 15.565495 184.879983 
L 15.398734 183.990817 
L 15.315354 183.904431 
L 15.145386 183.769584 
L 14.969005 183.567315 
L 14.859969 183.282877 
L 14.904866 182.97948 
L 15.097282 182.905738 
L 15.299319 182.935235 
L 15.302526 182.935235 
L 15.398734 182.928914 
L 15.097282 180.213246 
L 15.071627 179.996257 
L 14.250652 177.240865 
L 10.873751 165.925316 
L 10.338193 162.017733 
L 10.286882 161.630377 
L 10.286882 157.908688 
L 10.331779 157.763452 
L 10.723025 156.53635 
L 10.825647 155.947026 
L 10.816026 155.347192 
L 10.816026 155.336669 
L 8.930349 146.603912 
L 9.19011 145.32267 
L 9.177283 146.111604 
L 9.324802 146.60812 
L 9.536459 146.991033 
L 9.722461 147.443383 
L 10.10088 149.175016 
L 10.286882 149.591636 
L 10.530609 149.591636 
L 10.588333 149.097164 
L 10.700576 148.888857 
L 10.799991 148.855191 
L 10.803198 148.855191 
L 10.825647 148.884649 
L 10.816026 147.302418 
L 10.816026 147.291898 
L 10.729439 146.599704 
L 10.530609 146.029554 
L 10.344607 145.86335 
L 9.825083 145.716082 
L 9.594184 145.514116 
L 9.568528 145.442587 
L 9.427423 145.070217 
L 9.491562 144.659986 
L 9.642288 144.27711 
L 9.722461 143.911069 
L 7.785473 125.462829 
L 7.544953 124.794401 
L 7.708507 124.567392 
L 7.83037 124.544271 
L 8.112581 124.794401 
L 8.176719 123.901092 
L 8.372342 122.864897 
L 8.420446 122.368886 
L 8.46855 121.870784 
L 8.247272 121.093178 
L 7.949027 120.380746 
L 7.891302 119.907905 
L 7.833577 119.435075 
L 7.836784 117.531245 
L 6.929222 111.743004 
L 6.823393 111.074986 
L 6.355181 109.804125 
L 5.957521 107.134509 
L 5.312927 105.028033 
L 4.321985 99.209514 
L 4.321985 97.557267 
L 4.482331 97.651737 
L 4.491952 97.666433 
L 4.50478 97.681128 
L 4.50478 97.733612 
L 4.591367 97.909959 
L 4.732472 96.950565 
L 4.524022 93.902627 
L 4.321985 92.979096 
L 4.969785 92.424997 
L 5.58231 91.398693 
L 6.024867 90.229733 
L 6.201248 89.247606 
L 6.380836 88.605471 
L 7.544953 86.223868 
L 7.532126 86.263734 
L 6.945257 88.061979 
L 6.201248 89.776438 
L 6.364802 90.194057 
L 6.406492 90.296889 
L 6.698323 90.674644 
L 7.079948 90.871918 
L 7.544953 90.867721 
L 7.163328 92.269684 
L 6.765668 93.298129 
L 6.592494 93.476538 
L 6.409699 93.501725 
L 6.265387 93.646553 
L 6.201248 94.194387 
L 6.236524 95.413946 
L 6.201248 95.793892 
L 5.534206 98.558677 
L 5.559861 99.070947 
L 5.611172 100.095523 
L 6.300663 101.160043 
L 6.496286 101.462402 
L 5.70738 103.604229 
L 6.964498 104.790725 
L 8.792451 104.977631 
L 9.722461 104.12292 
L 9.54608 103.203145 
L 9.247835 102.482893 
L 9.132386 102.207817 
L 8.99128 101.98104 
L 8.641725 101.409908 
L 8.247272 101.082354 
L 8.131822 100.523844 
L 9.459493 97.23607 
L 9.408182 96.639874 
L 9.238214 96.199036 
L 9.042591 95.829578 
L 8.920728 95.443334 
L 8.888659 94.822 
L 8.933556 93.751501 
L 8.920728 93.310723 
L 8.920728 93.298129 
L 8.898279 93.214172 
L 8.792451 92.846866 
L 8.728312 92.771307 
L 8.651345 92.676858 
L 8.574379 92.466973 
L 8.651345 91.889801 
L 8.837348 91.400792 
L 9.353664 90.523541 
L 9.459493 89.952718 
L 9.542873 88.874074 
L 9.91167 86.714854 
L 10.286882 81.679652 
L 10.527402 81.106976 
L 10.787163 80.82379 
L 10.985993 80.481875 
L 11.069374 79.728843 
L 11.069374 77.58317 
L 11.297066 76.530342 
L 11.832624 75.852954 
L 12.467597 75.293025 
L 12.980706 74.575835 
L 13.044845 74.322098 
L 13.436091 72.74523 
L 13.490609 72.678131 
L 13.519471 72.642486 
L 13.606058 72.181194 
L 13.971649 71.149615 
L 14.321204 66.135061 
L 13.371952 62.936641 
L 13.448918 62.381268 
L 13.519471 58.735057 
L 13.519471 58.68477 
L 13.423263 57.467426 
L 13.307813 56.868211 
L 13.10257 56.41567 
L 12.942223 55.900288 
L 13.307813 55.644698 
L 13.836957 55.516903 
L 14.186513 55.378635 
L 16.473057 52.707744 
L 17.666037 51.947394 
L 18.163111 51.383958 
L 18.42608 50.131473 
L 18.897499 48.843468 
L 19.166882 47.052973 
L 20.43362 42.810911 
L 20.478517 42.576432 
L 20.597174 41.956752 
L 20.840901 40.7028 
L 20.840901 37.713753 
L 20.927488 37.276321 
L 20.850522 36.981217 
L 20.388723 36.866107 
L 19.301573 36.133605 
L 18.878257 35.622963 
L 18.612082 34.656132 
L 18.567185 34.48035 
L 18.377976 33.275032 
L 18.358734 32.590799 
L 18.830153 31.948437 
L 19.702439 31.385605 
L 20.670934 30.985984 
L 21.466253 30.833252 
L 21.822223 30.596833 
L 22.688095 29.111439 
L 22.78751 29.015206 
L 22.938236 28.864582 
L 23.22686 28.642833 
L 23.582829 28.471292 
L 24.035007 28.379247 
L 23.659796 27.483921 
L 23.43531 27.090661 
L 23.207618 26.69741 
L 22.627163 25.956949 
L 21.860706 25.216519 
L 18.945603 23.003776 
L 18.358734 22.06062 
L 19.62868 22.1129 
L 20.83128 22.73609 
L 23.204411 24.517949 
L 25.468507 25.254167 
L 26.064996 25.747785 
L 26.998214 26.801997 
L 27.229113 27.358412 
L 26.748073 27.676371 
L 26.853902 28.027805 
L 26.995007 28.379247 
L 26.748073 28.726511 
L 26.75128 28.728603 
L 27.575462 29.446165 
L 29.522071 28.83111 
L 33.081768 27.004898 
L 34.040641 27.12413 
L 36.141182 27.873006 
L 38.620142 29.316458 
L 40.489785 29.780897 
L 40.496199 29.780897 
L 37.815202 27.404432 
L 36.891605 26.852199 
L 36.07063 26.622107 
L 35.948766 26.548897 
L 35.83011 26.475687 
L 35.11817 25.777068 
L 34.848788 25.572089 
L 34.579406 25.517707 
L 34.255505 25.538623 
L 33.768051 25.572089 
L 33.460186 25.724777 
L 33.415289 25.812626 
L 33.328701 25.998782 
L 33.174769 26.101274 
L 32.652038 25.601372 
L 32.443588 25.555356 
L 31.164021 25.59928 
L 30.798431 25.461234 
L 27.99557 22.324113 
L 26.79297 21.318259 
L 26.789763 21.318259 
L 26.360034 21.073601 
L 24.333252 19.927723 
L 23.602071 19.381994 
L 23.11141 19.37363 
L 23.204411 20.624023 
L 23.477001 20.992049 
L 23.900316 21.408177 
L 24.150457 21.916328 
L 23.900316 22.572971 
L 23.602071 22.690082 
L 23.313447 22.489321 
L 23.050478 22.204913 
L 22.293642 21.696755 
L 20.821659 20.038544 
L 19.975029 19.570174 
L 19.978236 19.574356 
L 20.407965 20.184912 
L 21.184043 21.050599 
L 21.613772 21.677934 
L 20.658106 21.439544 
L 19.715267 20.931408 
L 17.819969 19.570174 
L 16.309503 18.035514 
L 15.411562 17.625736 
L 15.321768 17.554653 
L 14.981833 17.270324 
L 14.664346 17.105165 
L 14.616242 17.468936 
L 14.183306 17.086349 
L 14.019753 16.59088 
L 13.942786 15.999262 
L 13.788853 15.330319 
L 13.529092 14.759647 
L 13.375159 14.500447 
L 12.971085 13.819019 
L 12.711324 13.227495 
L 13.564368 12.675702 
L 15.116524 10.821888 
L 15.815636 10.420638 
L 15.818843 10.420638 
L 18.897499 10.771732 
L 20.504173 10.539758 
L 21.091042 10.627531 
L 21.321941 11.313015 
L 21.283458 12.389362 
L 21.398907 12.763486 
L 21.735636 12.905613 
L 22.062743 12.966227 
L 23.005581 13.279749 
L 23.204411 13.4177 
L 23.380793 13.869185 
L 23.804108 13.850373 
L 24.137629 13.718689 
L 24.265906 13.668524 
L 24.458322 13.63299 
L 24.593014 13.607908 
L 24.596221 13.609998 
L 24.900879 13.839922 
L 25.032364 13.938163 
L 26.135549 15.489191 
L 29.611865 20.373101 
L 30.836914 21.368446 
L 33.678257 23.062333 
L 33.768051 23.112525 
L 33.768051 22.731908 
L 32.337759 21.797131 
L 28.87427 18.135869 
L 26.036134 13.906809 
L 24.593014 12.907704 
L 22.332125 12.215888 
L 21.735636 11.664126 
L 21.658669 10.884585 
L 22.486058 10.420638 
L 22.75544 10.362123 
L 23.576416 10.184489 
L 25.208745 10.08 
L 25.994444 10.270171 
L 26.539622 10.765462 
L 26.902006 12.445793 
L 27.264389 13.148069 
L 32.424346 20.97532 
L 33.184389 21.696755 
L 34.723718 22.832289 
L 45.604844 34.229235 
L 45.646534 34.32131 
L 45.922331 34.919808 
L 46.364888 35.631334 
L 47.211518 36.661004 
L 47.750283 37.563058 
L 47.27245 37.887473 
L 47.269243 37.889566 
L 46.99986 37.73259 
L 46.967791 37.713753 
L 46.961377 37.71166 
L 46.547683 37.020983 
L 46.31999 36.870293 
L 46.316784 36.866107 
L 45.604844 36.715419 
L 45.293772 36.836806 
L 45.447704 37.24702 
L 45.499015 37.376783 
L 47.545039 39.842458 
L 48.343566 40.409735 
L 48.346773 40.411828 
L 48.029286 39.773381 
L 47.83687 39.189378 
L 47.936285 38.75819 
L 48.481464 38.592835 
L 48.738019 38.816798 
L 49.15492 40.411828 
L 49.536545 41.393614 
L 51.034183 45.264741 
L 50.732731 45.120266 
L 49.898929 44.720348 
L 49.376198 44.707785 
L 49.15492 45.440625 
L 49.462786 45.62698 
L 50.104172 45.763084 
L 50.675007 46.227936 
L 50.68142 46.290755 
L 50.764801 47.404776 
L 50.771215 47.404776 
L 51.034183 47.404776 
L 51.165667 47.109512 
L 51.284324 46.981775 
L 51.419015 46.898014 
L 51.598604 46.73468 
L 51.598604 46.738868 
L 51.80064 47.760774 
L 51.823089 47.888516 
L 52.381095 49.536676 
L 53.128311 51.015325 
L 53.888354 51.656248 
L 53.946079 51.71699 
L 54.035873 51.815435 
L 54.032666 52.175705 
L 53.849871 52.538076 
L 53.484281 52.707744 
L 53.378452 52.556928 
L 52.945516 51.656248 
L 52.474097 51.333689 
L 51.39336 50.973435 
L 50.764801 50.600621 
L 51.053425 51.12005 
L 51.213771 51.409092 
L 52.63765 53.135062 
L 52.650478 54.115415 
L 53.11869 54.542764 
L 53.115483 54.546953 
L 52.695375 55.051824 
L 52.323371 55.623748 
L 52.326578 55.625843 
L 52.945516 56.256445 
L 53.612558 56.189403 
L 54.157737 55.529473 
L 54.56181 54.611894 
L 54.824779 53.763487 
L 54.831193 53.767677 
L 56.255071 55.994564 
L 57.518603 58.804203 
L 58.03492 59.499867 
L 58.75648 59.772272 
L 59.333728 60.375768 
L 60.180359 63.035143 
L 60.395223 63.32646 
L 60.622915 63.63874 
L 60.626122 63.640836 
L 61.594616 64.210916 
L 62.078863 65.550252 
L 62.633663 68.24387 
L 62.733078 67.749139 
L 62.861355 67.556281 
L 63.07622 67.619169 
L 63.079427 67.621266 
L 63.461052 67.891687 
L 63.345602 68.386422 
L 64.442374 69.937788 
L 64.807964 70.707227 
L 64.804757 71.636044 
L 64.516133 72.00926 
L 64.105646 72.25458 
L 63.730434 72.818618 
L 63.736848 72.814425 
L 64.022265 72.720068 
L 64.317303 72.621518 
L 64.391063 72.569098 
L 64.538582 72.466355 
L 64.541789 72.470548 
L 65.394833 74.877806 
L 65.519903 76.131876 
L 64.541789 76.337399 
L 64.538582 76.337399 
L 64.740618 75.506928 
L 64.47765 74.84006 
L 64.041507 74.745693 
L 63.730434 75.632755 
L 63.836263 76.320622 
L 64.115266 76.809273 
L 64.269199 77.331493 
L 63.977368 78.128481 
L 63.746469 77.897771 
L 63.31674 77.463623 
L 62.633663 76.916233 
L 61.944172 76.710703 
L 61.286751 77.07143 
L 60.776848 77.960691 
L 60.956437 78.426311 
L 61.565754 78.304661 
L 62.386729 77.425872 
L 62.951149 78.203987 
L 63.461052 79.137345 
L 64.076783 79.915526 
L 64.942655 80.238553 
L 66.754573 80.192406 
L 67.367097 79.68899 
L 66.963024 78.480844 
L 67.998863 77.86631 
L 68.409351 77.702718 
L 68.845494 77.742567 
L 68.848701 77.746762 
L 69.326534 78.103312 
L 69.762677 78.707366 
L 70.089784 79.412117 
L 70.368787 81.476172 
L 70.984519 84.132061 
L 71.00376 84.824411 
L 71.023002 85.518882 
L 70.52272 85.063592 
L 69.99999 83.695683 
L 69.541398 83.406168 
L 69.525364 83.779601 
L 69.714573 85.45384 
L 69.730608 85.581827 
L 69.945472 86.223868 
L 70.208441 86.385431 
L 70.448961 86.532307 
L 70.455375 86.532307 
L 70.987726 86.532307 
L 71.411041 86.779901 
L 71.661182 88.752362 
L 71.962634 90.120606 
L 72.013944 90.347256 
L 72.097325 91.184623 
L 72.097325 91.188821 
L 72.219188 91.723998 
L 73.040163 95.327882 
L 73.351236 97.67693 
L 72.63609 98.959674 
L 72.63609 98.965972 
L 72.23843 96.839304 
L 72.180705 96.53911 
L 71.581008 94.385398 
L 71.292384 94.385398 
L 71.24428 96.020604 
L 71.292384 96.534912 
L 71.263522 96.518118 
L 71.23466 96.665065 
L 71.23466 96.669263 
L 71.23466 96.925374 
L 71.292384 97.23607 
L 71.423869 97.437605 
L 71.75739 97.569863 
L 71.760597 97.571962 
L 71.827942 97.733612 
L 72.148636 98.81481 
L 72.841333 99.474053 
L 72.84454 99.474053 
L 73.505169 99.402669 
L 73.736068 98.294149 
L 73.976588 98.294149 
L 74.226729 98.886192 
L 74.294074 99.045753 
L 74.617975 100.908081 
L 74.948289 101.624081 
L 75.387639 102.249813 
L 75.669849 102.858765 
L 76.157303 104.316119 
L 76.349719 104.06412 
L 76.603067 103.816324 
L 76.718516 103.57903 
L 76.891691 104.05992 
L 76.718516 104.316119 
L 76.805104 104.50092 
L 76.88207 104.622722 
L 76.894898 104.654223 
L 76.939795 104.757125 
L 76.96545 104.988131 
L 76.968657 104.983931 
L 77.16428 104.773925 
L 77.568354 104.521921 
L 77.773598 104.316119 
L 77.773598 104.320319 
L 77.866599 104.610122 
L 77.978841 104.96293 
L 77.895461 105.380848 
L 77.757563 105.796673 
L 77.763977 106.117998 
L 77.773598 106.428827 
L 78.049394 107.121907 
L 78.536848 107.607077 
L 78.854334 107.924228 
L 79.142958 108.543841 
L 78.960163 108.558544 
L 78.867162 108.64046 
L 78.748506 108.745482 
L 78.674746 108.806394 
L 78.600987 108.865207 
L 78.485537 109.428133 
L 78.370087 109.991074 
L 78.831886 111.751407 
L 79.082027 112.125339 
L 79.646447 112.969859 
L 79.652861 112.969859 
L 80.486664 112.772381 
L 80.756046 112.772381 
L 81.028636 113.850127 
L 81.339708 114.516129 
L 81.435916 114.722026 
L 83.135591 117.03325 
L 83.683977 118.161634 
L 83.780185 119.159787 
L 82.907899 119.502321 
L 82.904692 119.504423 
L 82.500618 119.147179 
L 81.532124 117.543853 
L 81.025429 116.974416 
L 80.371214 116.661337 
L 80.3648 116.661337 
L 80.297455 116.669742 
L 79.832449 116.722271 
L 79.421962 117.268588 
L 79.142958 118.413795 
L 79.614378 118.693277 
L 80.069762 118.777332 
L 80.461008 118.588208 
L 80.756046 118.060771 
L 81.221052 118.287714 
L 81.647574 118.565093 
L 81.795093 118.792041 
L 81.894508 118.949646 
L 81.833576 119.504423 
L 82.356306 120.141172 
L 82.879036 120.77794 
L 83.289524 121.391607 
L 83.719253 122.32475 
L 83.716046 122.326851 
L 83.514009 122.631602 
L 83.462698 122.92795 
L 83.530044 123.283153 
L 83.719253 123.770777 
L 83.96298 123.381938 
L 83.815461 122.679943 
L 83.815461 122.675739 
L 84.280466 122.890118 
L 85.194443 123.770777 
L 85.412514 124.182743 
L 86.137281 126.589532 
L 86.092384 126.692536 
L 85.867899 128.000092 
L 85.899968 128.143044 
L 85.906382 128.164067 
L 86.092384 128.664409 
L 86.137281 128.866231 
L 85.983348 129.221525 
L 85.701138 129.505345 
L 85.531171 129.820703 
L 85.733207 130.279032 
L 85.925623 130.609119 
L 85.992969 130.867725 
L 86.00259 130.901365 
L 86.11804 131.195717 
L 86.406664 131.530022 
L 85.983348 131.929512 
L 86.021831 132.125055 
L 86.060315 132.324804 
L 86.377801 132.411012 
L 86.695288 131.881153 
L 86.939015 131.881153 
L 86.942222 131.883255 
L 87.243673 133.967019 
L 87.234053 134.734546 
L 87.240466 134.734546 
L 87.509849 134.734546 
L 87.509849 134.715621 
L 87.541918 133.992252 
L 87.638126 133.277316 
L 87.804887 132.667536 
L 88.048614 132.234391 
L 88.048614 131.883255 
L 88.026165 131.801254 
L 87.939578 131.477458 
L 88.01013 131.315562 
L 88.228202 131.435407 
L 88.580965 131.881153 
L 88.702828 132.289059 
L 88.792622 133.384555 
L 89.398733 134.639918 
L 90.383262 139.037373 
z
" clip-path="url(#p3b126ff9ef)" style="stroke: #000000; stroke-linejoin: miter"/>
   </g>
   <g id="line2d_1">
    <path d="M 90.197259 151.195059 
L 90.293467 152.013645 
L 90.697541 153.84241 
L 90.76168 154.919951 
L 90.537194 156.976248 
L 88.619448 166.034804 
L 88.446274 168.089903 
L 87.878646 169.53236 
L 87.52909 171.061243 
L 86.406664 173.356842 
L 86.676046 174.616348 
L 86.24311 176.109721 
L 82.532687 183.78644 
L 81.294811 185.406754 
L 79.008267 187.52869 
L 78.261052 187.821602 
L 77.260488 188.523338 
L 69.945472 196.047589 
L 68.48311 197.084704 
L 63.730434 199.293972 
L 63.663089 198.501314 
L 63.310326 198.233586 
L 63.073013 198.31791 
L 62.922287 198.733206 
L 62.845321 199.605982 
L 62.630456 199.934861 
L 61.825516 200.322774 
L 60.969264 200.999527 
L 60.113013 201.492871 
L 56.011345 202.646149 
L 54.023046 203.54013 
L 51.842331 204.05882 
L 50.848181 204.560651 
L 50.251691 205.661336 
L 49.183782 205.387215 
L 48.154357 205.908048 
L 45.120597 208.845548 
L 44.421486 209.908435 
L 42.805191 209.781899 
L 42.131735 209.908435 
L 41.605798 210.169945 
L 41.063826 210.574869 
L 40.104953 211.515493 
L 39.55336 211.68 
L 37.532992 210.614939 
L 35.252862 210.969252 
L 34.601854 210.80264 
L 34.27154 210.374515 
L 33.768051 209.235691 
L 33.101009 209.743938 
L 32.504519 209.802988 
L 31.000467 209.444472 
L 30.702223 208.957318 
L 30.394357 208.845548 
L 30.06725 209.098613 
L 29.913317 209.242017 
L 29.637521 209.157662 
L 29.573382 209.083851 
L 29.169308 208.491261 
L 26.517174 207.38625 
L 26.026513 207.25129 
L 24.977846 206.228564 
L 24.593014 205.983959 
L 24.30439 206.369846 
L 23.570002 205.59386 
L 19.926925 200.45981 
L 19.840338 199.791503 
L 19.349677 198.952452 
L 17.454379 193.442322 
L 17.406275 192.316822 
L 17.079168 191.425306 
L 16.745646 189.008032 
L 16.020879 187.309535 
L 15.315354 183.904431 
L 14.969005 183.567315 
L 14.859969 183.282877 
L 14.904866 182.97948 
L 15.302526 182.935235 
L 15.398734 182.928914 
L 15.071627 179.996257 
L 10.873751 165.925316 
L 10.286882 161.630377 
L 10.331779 157.763452 
L 10.825647 155.947026 
L 10.816026 155.336669 
L 8.930349 146.603912 
L 9.19011 145.32267 
L 9.177283 146.111604 
L 9.536459 146.991033 
L 9.722461 147.443383 
L 10.286882 149.591636 
L 10.530609 149.591636 
L 10.700576 148.888857 
L 10.825647 148.884649 
L 10.729439 146.599704 
L 10.530609 146.029554 
L 10.344607 145.86335 
L 9.825083 145.716082 
L 9.568528 145.442587 
L 9.427423 145.070217 
L 9.642288 144.27711 
L 9.722461 143.911069 
L 7.785473 125.462829 
L 7.544953 124.794401 
L 7.83037 124.544271 
L 8.112581 124.794401 
L 8.176719 123.901092 
L 8.46855 121.870784 
L 7.833577 119.435075 
L 7.836784 117.531245 
L 6.823393 111.074986 
L 6.355181 109.804125 
L 5.957521 107.134509 
L 5.312927 105.028033 
L 4.321985 99.209514 
L 4.321985 97.557267 
L 4.50478 97.733612 
L 4.591367 97.909959 
L 4.732472 96.950565 
L 4.524022 93.902627 
L 4.321985 92.979096 
L 4.969785 92.424997 
L 5.58231 91.398693 
L 6.024867 90.229733 
L 6.380836 88.605471 
L 7.544953 86.223868 
L 7.532126 86.263734 
L 6.945257 88.061979 
L 6.201248 89.776438 
L 6.406492 90.296889 
L 6.698323 90.674644 
L 7.079948 90.871918 
L 7.544953 90.867721 
L 7.163328 92.269684 
L 6.592494 93.476538 
L 6.409699 93.501725 
L 6.265387 93.646553 
L 6.201248 94.194387 
L 6.201248 95.793892 
L 5.534206 98.558677 
L 5.611172 100.095523 
L 6.496286 101.462402 
L 5.70738 103.604229 
L 6.964498 104.790725 
L 8.792451 104.977631 
L 9.722461 104.12292 
L 9.54608 103.203145 
L 8.99128 101.98104 
L 8.641725 101.409908 
L 8.247272 101.082354 
L 8.131822 100.523844 
L 9.459493 97.23607 
L 9.408182 96.639874 
L 8.920728 95.443334 
L 8.728312 92.771307 
L 8.574379 92.466973 
L 8.651345 91.889801 
L 8.837348 91.400792 
L 9.353664 90.523541 
L 9.459493 89.952718 
L 9.542873 88.874074 
L 9.91167 86.714854 
L 10.286882 81.679652 
L 10.527402 81.106976 
L 10.985993 80.481875 
L 11.069374 79.728843 
L 11.069374 77.58317 
L 11.297066 76.530342 
L 11.832624 75.852954 
L 12.467597 75.293025 
L 13.044845 74.322098 
L 13.606058 72.181194 
L 13.971649 71.149615 
L 14.321204 66.135061 
L 13.371952 62.936641 
L 13.448918 62.381268 
L 13.519471 58.68477 
L 13.307813 56.868211 
L 12.942223 55.900288 
L 13.307813 55.644698 
L 14.186513 55.378635 
L 16.473057 52.707744 
L 17.666037 51.947394 
L 18.163111 51.383958 
L 18.42608 50.131473 
L 18.897499 48.843468 
L 19.166882 47.052973 
L 20.597174 41.956752 
L 20.840901 40.7028 
L 20.850522 36.981217 
L 20.388723 36.866107 
L 19.301573 36.133605 
L 18.878257 35.622963 
L 18.567185 34.48035 
L 18.358734 32.590799 
L 18.830153 31.948437 
L 19.702439 31.385605 
L 20.670934 30.985984 
L 21.466253 30.833252 
L 21.822223 30.596833 
L 22.938236 28.864582 
L 23.582829 28.471292 
L 24.035007 28.379247 
L 23.43531 27.090661 
L 23.207618 26.69741 
L 22.627163 25.956949 
L 21.860706 25.216519 
L 18.945603 23.003776 
L 18.358734 22.06062 
L 19.62868 22.1129 
L 20.83128 22.73609 
L 23.204411 24.517949 
L 25.468507 25.254167 
L 26.064996 25.747785 
L 26.998214 26.801997 
L 27.229113 27.358412 
L 26.748073 27.676371 
L 26.995007 28.379247 
L 26.748073 28.726511 
L 26.75128 28.728603 
L 27.575462 29.446165 
L 29.522071 28.83111 
L 33.081768 27.004898 
L 34.040641 27.12413 
L 36.141182 27.873006 
L 38.620142 29.316458 
L 40.496199 29.780897 
L 37.815202 27.404432 
L 36.891605 26.852199 
L 35.83011 26.475687 
L 34.848788 25.572089 
L 34.255505 25.538623 
L 33.768051 25.572089 
L 33.415289 25.812626 
L 33.174769 26.101274 
L 32.443588 25.555356 
L 31.164021 25.59928 
L 30.798431 25.461234 
L 27.99557 22.324113 
L 26.360034 21.073601 
L 24.333252 19.927723 
L 23.602071 19.381994 
L 23.11141 19.37363 
L 23.204411 20.624023 
L 24.150457 21.916328 
L 23.900316 22.572971 
L 23.602071 22.690082 
L 22.293642 21.696755 
L 20.821659 20.038544 
L 19.975029 19.570174 
L 19.978236 19.574356 
L 20.407965 20.184912 
L 21.613772 21.677934 
L 20.658106 21.439544 
L 19.715267 20.931408 
L 17.819969 19.570174 
L 16.309503 18.035514 
L 15.321768 17.554653 
L 14.664346 17.105165 
L 14.616242 17.468936 
L 14.183306 17.086349 
L 14.019753 16.59088 
L 13.788853 15.330319 
L 13.375159 14.500447 
L 12.711324 13.227495 
L 13.564368 12.675702 
L 15.116524 10.821888 
L 15.818843 10.420638 
L 18.897499 10.771732 
L 20.504173 10.539758 
L 21.091042 10.627531 
L 21.321941 11.313015 
L 21.283458 12.389362 
L 21.398907 12.763486 
L 22.062743 12.966227 
L 23.204411 13.4177 
L 23.380793 13.869185 
L 23.804108 13.850373 
L 24.596221 13.609998 
L 25.032364 13.938163 
L 29.611865 20.373101 
L 30.836914 21.368446 
L 33.768051 23.112525 
L 33.768051 22.731908 
L 32.337759 21.797131 
L 28.87427 18.135869 
L 26.036134 13.906809 
L 24.593014 12.907704 
L 22.332125 12.215888 
L 21.735636 11.664126 
L 21.658669 10.884585 
L 22.75544 10.362123 
L 23.576416 10.184489 
L 25.208745 10.08 
L 25.994444 10.270171 
L 26.539622 10.765462 
L 26.902006 12.445793 
L 27.264389 13.148069 
L 32.424346 20.97532 
L 33.184389 21.696755 
L 34.723718 22.832289 
L 45.646534 34.32131 
L 46.364888 35.631334 
L 47.211518 36.661004 
L 47.750283 37.563058 
L 47.269243 37.889566 
L 46.961377 37.71166 
L 46.547683 37.020983 
L 46.316784 36.866107 
L 45.604844 36.715419 
L 45.293772 36.836806 
L 45.499015 37.376783 
L 47.545039 39.842458 
L 48.346773 40.411828 
L 47.83687 39.189378 
L 47.936285 38.75819 
L 48.481464 38.592835 
L 48.738019 38.816798 
L 49.15492 40.411828 
L 51.034183 45.264741 
L 49.898929 44.720348 
L 49.376198 44.707785 
L 49.15492 45.440625 
L 49.462786 45.62698 
L 50.104172 45.763084 
L 50.68142 46.290755 
L 50.771215 47.404776 
L 51.034183 47.404776 
L 51.284324 46.981775 
L 51.598604 46.73468 
L 51.598604 46.738868 
L 51.823089 47.888516 
L 52.381095 49.536676 
L 53.128311 51.015325 
L 54.035873 51.815435 
L 54.032666 52.175705 
L 53.849871 52.538076 
L 53.484281 52.707744 
L 53.378452 52.556928 
L 52.945516 51.656248 
L 52.474097 51.333689 
L 51.39336 50.973435 
L 50.764801 50.600621 
L 51.213771 51.409092 
L 52.63765 53.135062 
L 52.650478 54.115415 
L 53.115483 54.546953 
L 52.323371 55.623748 
L 52.326578 55.625843 
L 52.945516 56.256445 
L 53.612558 56.189403 
L 54.157737 55.529473 
L 54.824779 53.763487 
L 54.831193 53.767677 
L 56.255071 55.994564 
L 57.518603 58.804203 
L 58.03492 59.499867 
L 58.75648 59.772272 
L 59.333728 60.375768 
L 60.180359 63.035143 
L 60.626122 63.640836 
L 61.594616 64.210916 
L 62.078863 65.550252 
L 62.633663 68.24387 
L 62.861355 67.556281 
L 63.079427 67.621266 
L 63.461052 67.891687 
L 63.345602 68.386422 
L 64.442374 69.937788 
L 64.807964 70.707227 
L 64.804757 71.636044 
L 64.516133 72.00926 
L 64.105646 72.25458 
L 63.730434 72.818618 
L 63.736848 72.814425 
L 64.541789 72.470548 
L 65.394833 74.877806 
L 65.519903 76.131876 
L 64.538582 76.337399 
L 64.740618 75.506928 
L 64.47765 74.84006 
L 64.041507 74.745693 
L 63.730434 75.632755 
L 63.836263 76.320622 
L 64.115266 76.809273 
L 64.269199 77.331493 
L 63.977368 78.128481 
L 62.633663 76.916233 
L 61.944172 76.710703 
L 61.286751 77.07143 
L 60.776848 77.960691 
L 60.956437 78.426311 
L 61.565754 78.304661 
L 62.386729 77.425872 
L 62.951149 78.203987 
L 63.461052 79.137345 
L 64.076783 79.915526 
L 64.942655 80.238553 
L 66.754573 80.192406 
L 67.367097 79.68899 
L 66.963024 78.480844 
L 68.409351 77.702718 
L 68.848701 77.746762 
L 69.326534 78.103312 
L 69.762677 78.707366 
L 70.089784 79.412117 
L 70.368787 81.476172 
L 70.984519 84.132061 
L 71.023002 85.518882 
L 70.52272 85.063592 
L 69.99999 83.695683 
L 69.541398 83.406168 
L 69.525364 83.779601 
L 69.730608 85.581827 
L 69.945472 86.223868 
L 70.455375 86.532307 
L 70.987726 86.532307 
L 71.411041 86.779901 
L 71.661182 88.752362 
L 73.040163 95.327882 
L 73.351236 97.67693 
L 72.63609 98.965972 
L 72.180705 96.53911 
L 71.581008 94.385398 
L 71.292384 94.385398 
L 71.292384 97.23607 
L 71.423869 97.437605 
L 71.760597 97.571962 
L 71.827942 97.733612 
L 72.148636 98.81481 
L 72.84454 99.474053 
L 73.505169 99.402669 
L 73.736068 98.294149 
L 73.976588 98.294149 
L 74.294074 99.045753 
L 74.617975 100.908081 
L 74.948289 101.624081 
L 75.387639 102.249813 
L 75.669849 102.858765 
L 76.157303 104.316119 
L 76.718516 103.57903 
L 76.891691 104.05992 
L 76.718516 104.316119 
L 76.96545 104.988131 
L 76.968657 104.983931 
L 77.16428 104.773925 
L 77.773598 104.316119 
L 77.773598 104.320319 
L 77.978841 104.96293 
L 77.773598 106.428827 
L 78.049394 107.121907 
L 78.854334 107.924228 
L 79.142958 108.543841 
L 78.867162 108.64046 
L 78.600987 108.865207 
L 78.370087 109.991074 
L 78.831886 111.751407 
L 79.652861 112.969859 
L 80.756046 112.772381 
L 81.028636 113.850127 
L 81.435916 114.722026 
L 83.135591 117.03325 
L 83.683977 118.161634 
L 83.780185 119.159787 
L 82.904692 119.504423 
L 82.500618 119.147179 
L 81.532124 117.543853 
L 81.025429 116.974416 
L 80.297455 116.669742 
L 79.832449 116.722271 
L 79.421962 117.268588 
L 79.142958 118.413795 
L 79.614378 118.693277 
L 80.069762 118.777332 
L 80.461008 118.588208 
L 80.756046 118.060771 
L 81.647574 118.565093 
L 81.894508 118.949646 
L 81.833576 119.504423 
L 83.289524 121.391607 
L 83.716046 122.326851 
L 83.514009 122.631602 
L 83.462698 122.92795 
L 83.719253 123.770777 
L 83.96298 123.381938 
L 83.815461 122.675739 
L 84.280466 122.890118 
L 85.194443 123.770777 
L 85.412514 124.182743 
L 86.092384 126.692536 
L 85.906382 128.164067 
L 86.137281 128.866231 
L 85.983348 129.221525 
L 85.531171 129.820703 
L 86.11804 131.195717 
L 86.406664 131.530022 
L 85.983348 131.929512 
L 86.060315 132.324804 
L 86.377801 132.411012 
L 86.695288 131.881153 
L 86.942222 131.883255 
L 87.243673 133.967019 
L 87.234053 134.734546 
L 87.240466 134.734546 
L 87.509849 134.734546 
L 87.509849 134.715621 
L 87.638126 133.277316 
L 87.804887 132.667536 
L 88.048614 132.234391 
L 88.01013 131.315562 
L 88.228202 131.435407 
L 88.580965 131.881153 
L 88.702828 132.289059 
L 88.792622 133.384555 
L 89.398733 134.639918 
L 90.383262 139.037373 
L 90.197259 151.195059 
L 90.197259 151.195059 
" clip-path="url(#p3b126ff9ef)" style="fill: none; stroke: #000000; stroke-width: 0.5; stroke-linecap: square"/>
   </g>
  </g>
 </g>
 <defs>
  <clipPath id="p3b126ff9ef">
   <rect x="0" y="-0" width="95.083664" height="221.76"/>
  </clipPath>
 </defs>
</svg>
