<?xml version="1.0" encoding="utf-8" standalone="no"?>
<!DOCTYPE svg PUBLIC "-//W3C//DTD SVG 1.1//EN"
  "http://www.w3.org/Graphics/SVG/1.1/DTD/svg11.dtd">
<svg xmlns:xlink="http://www.w3.org/1999/xlink" width="216.041548pt" height="221.76pt" viewBox="0 0 216.041548 221.76" xmlns="http://www.w3.org/2000/svg" version="1.1">
 <metadata>
  <rdf:RDF xmlns:dc="http://purl.org/dc/elements/1.1/" xmlns:cc="http://creativecommons.org/ns#" xmlns:rdf="http://www.w3.org/1999/02/22-rdf-syntax-ns#">
   <cc:Work>
    <dc:type rdf:resource="http://purl.org/dc/dcmitype/StillImage"/>
    <dc:date>2026-04-26T19:22:00.622455</dc:date>
    <dc:format>image/svg+xml</dc:format>
    <dc:creator>
     <cc:Agent>
      <dc:title>Matplotlib v3.10.9, https://matplotlib.org/</dc:title>
     </cc:Agent>
    </dc:creator>
   </cc:Work>
  </rdf:RDF>
 </metadata>
 <defs>
  <style type="text/css">*{stroke-linejoin: round; stroke-linecap: butt}</style>
 </defs>
 <g id="figure_1">
  <g id="patch_1">
   <path d="M 0 221.76 
L 216.041548 221.76 
L 216.041548 0 
L 0 0 
z
" style="fill: #ffffff"/>
  </g>
  <g id="axes_1">
   <g id="patch_2">
    <path d="M 22.11814 177.576681 
L 22.576221 175.439372 
L 22.649949 175.287558 
L 22.834873 175.0267 
L 22.867507 174.861563 
L 22.87355 174.555233 
L 22.912227 174.254806 
L 22.984746 173.982242 
L 23.181757 173.448536 
L 23.233729 173.179158 
L 23.211239 172.738449 
L 23.201096 172.539695 
L 22.904975 171.413897 
L 22.746641 170.337756 
L 22.578638 170.153592 
L 22.304273 170.14458 
L 21.191102 170.295437 
L 21.075071 170.230391 
L 21.071445 169.773533 
L 21.038811 169.636798 
L 20.737856 169.276371 
L 19.796313 168.867401 
L 19.393831 168.613185 
L 18.975636 168.100489 
L 18.617874 167.458627 
L 18.383395 166.746776 
L 18.329005 166.020949 
L 18.981679 161.35652 
L 19.188359 160.58939 
L 19.22341 160.322765 
L 19.210115 160.08743 
L 19.150891 160.013158 
L 19.051781 160.23207 
L 18.895865 160.109321 
L 18.438993 160.214087 
L 17.678749 160.519018 
L 17.550631 160.642561 
L 17.480529 160.690259 
L 17.405592 160.728574 
L 17.706548 159.065715 
L 17.717426 158.881254 
L 17.708965 158.696802 
L 17.678749 158.516266 
L 16.819395 155.14381 
L 16.432625 154.371594 
L 16.408452 154.186565 
L 16.677982 153.688513 
L 17.260554 151.952062 
L 17.105846 151.759343 
L 15.909277 151.191384 
L 14.444386 149.955107 
L 14.109589 150.586847 
L 13.733697 151.043166 
L 13.286494 151.35833 
L 12.735348 151.565073 
L 12.278476 151.644652 
L 11.781718 151.638411 
L 11.299465 151.522163 
L 10.888522 151.267055 
L 10.646791 150.967499 
L 10.187502 149.870883 
L 9.869625 149.367524 
L 9.82007 149.195984 
L 9.847869 149.10086 
L 10.035211 148.631124 
L 10.328914 147.505547 
L 11.289796 145.192284 
L 11.628219 144.601531 
L 12.029493 144.115601 
L 12.236173 143.97038 
L 13.491966 143.338555 
L 13.685351 143.167673 
L 14.76468 141.728911 
L 15.17804 141.043387 
L 15.275941 140.414777 
L 15.135737 140.070564 
L 14.722377 139.439396 
L 14.570087 139.08011 
L 14.518114 138.791229 
L 14.510862 137.925499 
L 14.339233 137.342889 
L 13.593493 136.467788 
L 13.385604 135.88541 
L 13.385604 135.549779 
L 13.408569 135.317108 
L 13.368683 135.096881 
L 13.183759 134.797441 
L 12.910603 134.472784 
L 12.925106 134.338037 
L 13.210349 133.750566 
L 14.162383 132.231155 
L 14.277592 132.04733 
L 14.559209 131.689552 
L 14.896424 131.40708 
L 16.752918 130.297975 
L 16.978937 130.105207 
L 17.412844 129.595218 
L 17.678749 129.408693 
L 17.99179 129.332302 
L 18.263738 129.197362 
L 18.437784 128.941067 
L 18.453497 128.501028 
L 18.373726 128.018794 
L 18.268573 127.726927 
L 18.060684 127.564531 
L 17.400758 127.419195 
L 17.206164 127.288591 
L 17.06596 127.067313 
L 16.959599 126.742978 
L 16.925756 126.565129 
L 16.937843 126.447344 
L 17.041787 126.191639 
L 17.092551 126.12849 
L 17.250885 126.036288 
L 17.310109 125.961133 
L 17.322195 125.849954 
L 17.279892 125.762407 
L 17.221877 125.682998 
L 17.1832 125.593131 
L 17.017614 123.981746 
L 16.926965 123.77694 
L 16.566786 123.440915 
L 16.299673 122.886624 
L 16.519648 122.353707 
L 16.992232 121.904837 
L 17.491407 121.602271 
L 19.841033 120.816963 
L 19.96069 120.708659 
L 20.017497 120.499797 
L 19.99695 120.366751 
L 19.820486 119.888757 
L 19.755219 119.626585 
L 19.659735 118.805402 
L 19.659735 118.419624 
L 19.75401 118.188102 
L 20.181874 117.828289 
L 20.413936 117.55971 
L 20.480412 117.312792 
L 20.49129 117.032665 
L 20.552931 116.668341 
L 20.68951 116.357752 
L 21.743457 114.985176 
L 21.97431 114.748104 
L 22.241423 114.565871 
L 22.637862 114.373611 
L 22.728511 114.237337 
L 23.251859 113.043161 
L 23.3413 112.710538 
L 23.489964 110.974277 
L 23.467 110.47529 
L 23.350969 110.009923 
L 23.099569 109.587796 
L 22.849377 109.252834 
L 22.653575 108.86742 
L 22.56776 108.438125 
L 22.652366 107.972671 
L 22.87355 107.636724 
L 23.795754 106.928732 
L 24.543912 105.806983 
L 24.849702 105.545184 
L 25.137473 105.50106 
L 25.693343 105.415832 
L 27.491823 105.887067 
L 28.371724 105.782342 
L 29.906717 105.084779 
L 30.674213 104.878465 
L 32.017029 104.880775 
L 33.438408 105.146367 
L 34.800563 105.724591 
L 35.117231 105.741531 
L 35.255017 105.293415 
L 35.255017 105.281801 
L 35.255017 104.422008 
L 35.253809 100.964208 
L 35.250183 97.51033 
L 35.247765 94.060429 
L 35.246557 90.61456 
L 35.244139 87.172014 
L 35.241722 83.735142 
L 35.239305 80.301704 
L 35.236887 76.872521 
L 35.235679 73.447647 
L 35.232053 70.027139 
L 35.229636 66.611051 
L 35.228427 63.200198 
L 35.22601 59.793495 
L 35.223592 56.391377 
L 35.221175 52.993522 
L 35.218758 49.600362 
L 35.218758 47.777792 
L 35.218758 45.95811 
L 35.218758 44.140193 
L 35.218758 42.322921 
L 37.103052 42.322921 
L 38.10261 42.324425 
L 39.42367 42.324801 
L 40.98767 42.326305 
L 42.4441 42.328185 
L 43.872731 42.328561 
L 45.579353 42.329689 
L 46.757792 42.329689 
L 46.783174 42.326305 
L 46.808555 42.322921 
L 46.833937 42.319537 
L 46.860528 42.315024 
L 46.871406 42.293215 
L 46.882283 42.270654 
L 46.893161 42.248845 
L 46.904039 42.226285 
L 46.904039 42.134185 
L 46.904039 40.510436 
L 46.905248 39.128151 
L 46.905248 37.745941 
L 46.906457 36.36531 
L 46.907665 34.986261 
L 46.907665 33.179539 
L 46.907665 31.374261 
L 46.908874 29.570434 
L 46.908874 27.768068 
L 46.908874 25.96717 
L 46.910083 24.168496 
L 46.911291 22.37056 
L 46.911291 20.574118 
L 46.911291 18.779923 
L 46.911291 16.986493 
L 46.9125 15.193839 
L 46.9125 13.404199 
L 48.049845 13.404941 
L 49.188398 13.404941 
L 50.326952 13.404941 
L 51.466714 13.404941 
L 52.604059 13.404941 
L 53.742008 13.405683 
L 54.880561 13.405683 
L 56.017906 13.405683 
L 57.155251 13.405683 
L 58.293805 13.406426 
L 59.433567 13.407168 
L 60.570912 13.407168 
L 61.709465 13.407168 
L 62.84681 13.40791 
L 63.984155 13.40791 
L 65.122708 13.40791 
L 66.261262 13.40791 
L 67.399815 13.408653 
L 68.53716 13.409395 
L 69.675714 13.409395 
L 70.813059 13.409395 
L 71.951612 13.409395 
L 73.090166 13.409395 
L 74.22751 13.410137 
L 75.366064 13.410137 
L 76.504617 13.410137 
L 77.643171 13.410137 
L 78.781724 13.410137 
L 79.919069 13.410137 
L 81.057623 13.410879 
L 82.196176 13.411622 
L 83.33473 13.411622 
L 84.47147 13.411622 
L 85.610628 13.412364 
L 86.749182 13.412364 
L 87.885922 13.412364 
L 89.02508 13.412364 
L 90.163634 13.412364 
L 91.302187 13.412364 
L 92.440741 13.413106 
L 93.578085 13.413848 
L 94.716639 13.413848 
L 95.855192 13.413848 
L 96.992537 13.413848 
L 98.129278 13.413848 
L 99.268436 13.414591 
L 100.406989 13.414591 
L 101.545543 13.414591 
L 102.684096 13.414591 
L 103.821441 13.415333 
L 104.958786 13.416075 
L 106.097339 13.416075 
L 107.23408 13.416075 
L 108.374446 13.416075 
L 109.513 13.416075 
L 110.650345 13.416818 
L 111.78769 13.416818 
L 112.926243 13.416818 
L 114.064797 13.416818 
L 115.202141 13.416818 
L 116.341299 13.416818 
L 117.480457 13.41756 
L 118.619011 13.418302 
L 119.755751 13.418302 
L 120.203558 13.418302 
L 120.358266 13.312159 
L 120.934795 11.963206 
L 120.975166 11.868954 
L 121.502863 10.637369 
L 121.805027 10.25935 
L 122.023793 10.125948 
L 122.248603 10.08 
L 122.473413 10.120019 
L 122.688554 10.244527 
L 122.945997 10.532109 
L 123.049942 10.850869 
L 123.035438 11.209718 
L 122.764699 12.129367 
L 122.391225 13.404199 
L 123.08404 13.403689 
L 123.400452 13.403457 
L 124.597021 13.403457 
L 125.794799 13.403457 
L 126.991367 13.403457 
L 128.189145 13.403457 
L 129.385714 13.403457 
L 130.583492 13.403457 
L 131.780061 13.403457 
L 132.977838 13.403457 
L 134.174407 13.403457 
L 135.126986 13.403457 
L 135.371581 13.403457 
L 136.569358 13.403457 
L 137.76774 13.403457 
L 138.964309 13.403457 
L 140.162087 13.403457 
L 141.358656 13.403457 
L 142.543714 13.403457 
L 142.555792 13.403457 
L 142.805763 13.40336 
L 144.238865 14.730816 
L 145.828095 16.203874 
L 147.218155 17.493165 
L 147.246695 17.519645 
L 150.820217 16.935319 
L 152.371617 16.681692 
L 153.366368 13.402714 
L 153.439772 13.402714 
L 156.160456 13.402714 
L 158.881139 13.401972 
L 161.603031 13.40123 
L 164.323715 13.40123 
L 167.044399 13.40123 
L 169.765082 13.40123 
L 172.486975 13.400488 
L 175.207658 13.400488 
L 177.92955 13.400488 
L 180.650234 13.399745 
L 183.370918 13.399003 
L 186.104501 13.398991 
L 186.069288 13.61467 
L 186.037882 13.681891 
L 185.988394 13.709949 
L 185.801862 13.739762 
L 185.595343 13.82394 
L 185.874191 14.064802 
L 185.986491 14.255407 
L 185.994104 15.992697 
L 186.258676 17.969216 
L 186.15399 18.368725 
L 186.319585 18.499373 
L 186.357653 18.667527 
L 186.365266 18.844484 
L 186.437595 19.002704 
L 186.567026 19.155074 
L 186.651727 19.293389 
L 187.278896 21.024254 
L 188.793998 23.732399 
L 189.792328 24.828592 
L 191.037148 26.673269 
L 191.125656 26.915578 
L 191.100912 27.197915 
L 191.020018 27.447342 
L 190.872505 27.566771 
L 190.647904 27.457931 
L 190.411883 27.662084 
L 190.200606 27.456755 
L 189.880836 26.811476 
L 189.800893 26.686207 
L 189.713337 26.505079 
L 189.679076 26.343958 
L 189.760922 26.273398 
L 189.913194 26.323966 
L 189.996943 26.442746 
L 190.050238 26.587408 
L 190.120664 26.71326 
L 190.389042 26.954397 
L 190.547024 27.030273 
L 190.647904 26.964985 
L 190.62316 26.845 
L 190.334796 26.462151 
L 190.15207 25.901819 
L 190.025494 25.700769 
L 189.840865 25.771311 
L 189.513481 25.484456 
L 189.418311 25.636696 
L 189.326948 25.610244 
L 189.250812 25.469173 
L 189.203228 25.278742 
L 189.231779 25.104195 
L 189.307914 24.936714 
L 189.330755 24.766307 
L 189.203228 24.588863 
L 188.885361 24.508959 
L 188.693118 24.75103 
L 188.61603 25.135342 
L 188.64363 25.484456 
L 188.702635 25.565571 
L 188.847293 25.576739 
L 188.875844 25.672553 
L 188.835872 25.844794 
L 188.795901 25.968252 
L 188.847293 26.335138 
L 188.843486 26.504491 
L 188.795901 26.668564 
L 188.678842 26.805007 
L 188.55988 26.847353 
L 188.478986 26.923813 
L 188.476131 27.162621 
L 188.536088 27.292035 
L 188.875844 27.75387 
L 189.188 28.60484 
L 189.336465 29.5109 
L 189.443055 31.419599 
L 189.612457 32.317957 
L 190.132084 34.048482 
L 190.160635 34.991567 
L 190.128277 35.222382 
L 190.066417 35.452038 
L 189.953165 35.590788 
L 189.59723 35.530564 
L 189.557259 35.717737 
L 189.601037 36.148826 
L 189.513481 37.180224 
L 189.59723 37.767607 
L 189.601037 37.982743 
L 189.877093 38.833542 
L 189.970819 39.3459 
L 190.033169 39.821037 
L 190.095293 40.517442 
L 189.917001 41.068948 
L 189.920807 41.167196 
L 189.877981 41.327007 
L 189.735226 41.535961 
L 189.68098 41.672709 
L 189.673366 42.064645 
L 189.759019 42.559691 
L 190.499439 44.866937 
L 190.567961 45.3602 
L 190.567961 46.310256 
L 190.545121 46.571262 
L 190.48326 46.730252 
L 190.288162 47.056571 
L 190.251998 47.278493 
L 190.334796 48.156889 
L 190.316713 48.432344 
L 190.334796 48.554647 
L 190.380477 48.692987 
L 190.567961 49.071236 
L 190.807789 49.904544 
L 191.271266 53.008053 
L 191.365484 54.516942 
L 191.40831 54.691928 
L 191.506335 54.792521 
L 191.613877 54.870498 
L 191.685254 54.975265 
L 191.685254 55.072893 
L 191.624345 55.264589 
L 191.619587 55.3658 
L 191.90408 55.838883 
L 192.044575 56.568504 
L 192.287678 57.508283 
L 192.446612 58.120333 
L 192.544637 58.8786 
L 192.699763 59.144525 
L 192.95207 59.703626 
L 193.222321 60.259413 
L 193.607683 60.684575 
L 193.672398 60.855219 
L 193.778036 61.016327 
L 193.909371 61.103449 
L 194.051173 61.04855 
L 194.182508 60.957253 
L 194.269112 60.982912 
L 194.967442 60.857127 
L 195.355844 60.648769 
L 195.410176 60.919329 
L 195.670962 61.085547 
L 195.887949 61.13448 
L 196.127777 61.114787 
L 196.202525 61.28335 
L 196.229931 61.522295 
L 196.418259 61.729038 
L 196.330488 62.296008 
L 196.512263 62.178398 
L 196.647314 62.127102 
L 196.778738 62.250635 
L 196.970029 62.48706 
L 198.288578 62.935865 
L 198.773098 63.494786 
L 199.099927 64.154594 
L 199.606461 64.755701 
L 199.928272 65.010901 
L 200.437391 65.250097 
L 200.584819 65.457582 
L 200.437673 65.712868 
L 200.129897 65.904524 
L 200.049935 66.415297 
L 200.37159 67.245101 
L 200.933507 67.867468 
L 201.562003 68.042985 
L 202.029976 67.947241 
L 202.096949 67.404429 
L 202.331891 67.319419 
L 202.74017 67.026328 
L 202.812498 67.181842 
L 202.713522 67.305661 
L 202.548878 67.413334 
L 202.428013 67.519218 
L 202.410882 67.637669 
L 202.420399 67.799201 
L 202.389945 67.975104 
L 202.2529 68.140247 
L 202.075885 68.201281 
L 201.919806 68.189314 
L 201.789424 68.202478 
L 201.700916 68.332329 
L 201.853188 68.330534 
L 202.260514 68.240774 
L 202.414689 68.274284 
L 202.520327 68.353274 
L 202.617401 68.449022 
L 202.74017 68.532804 
L 202.894344 68.580082 
L 203.223632 68.628559 
L 203.382565 68.693195 
L 203.559581 68.7309 
L 203.680446 68.662672 
L 203.697577 68.54597 
L 203.552919 68.440644 
L 203.737548 68.237184 
L 203.967859 68.520835 
L 204.342828 69.244463 
L 204.233383 69.442014 
L 204.427529 69.587493 
L 204.721603 69.614434 
L 204.910039 69.454586 
L 205.03376 69.680891 
L 205.073731 70.264703 
L 205.149867 70.450952 
L 205.381129 70.49527 
L 205.494381 70.271889 
L 205.475347 69.935956 
L 205.309752 69.646764 
L 205.507705 69.793452 
L 205.994974 70.400645 
L 206.072062 70.627031 
L 206.07111 70.859426 
L 206.099661 71.003186 
L 206.221478 71.332065 
L 206.194831 71.465067 
L 204.53085 73.14537 
L 204.20693 73.716451 
L 203.502284 75.974549 
L 203.179573 76.607215 
L 202.942676 76.829064 
L 202.362522 77.169877 
L 202.160676 77.394822 
L 202.101452 77.686135 
L 202.115956 77.998834 
L 202.08574 78.290974 
L 201.888729 78.52898 
L 201.611947 78.57933 
L 201.405267 78.425231 
L 201.227594 78.206303 
L 201.037835 78.062141 
L 200.625684 78.221559 
L 200.55679 78.235289 
L 200.50361 78.367255 
L 200.518113 78.461085 
L 200.54833 78.562546 
L 200.544704 78.717416 
L 200.42263 78.999712 
L 200.229245 79.203442 
L 200.05399 79.205731 
L 199.987514 78.88679 
L 200.004435 78.591536 
L 199.992348 78.345896 
L 199.882361 78.198675 
L 199.614039 78.19715 
L 199.339674 78.318435 
L 199.328446 78.327584 
L 198.538336 78.971481 
L 198.172113 79.543025 
L 197.942469 79.756716 
L 197.663269 79.834565 
L 197.396156 79.735346 
L 197.045646 79.326297 
L 196.807541 79.246174 
L 196.399015 79.512499 
L 195.890171 80.623862 
L 195.412753 80.925442 
L 194.940168 81.005615 
L 193.391881 81.589798 
L 193.26618 81.682973 
L 193.237173 81.851765 
L 193.367707 82.528565 
L 193.378585 82.797498 
L 193.324196 83.414153 
L 193.250468 83.716799 
L 192.994233 84.273264 
L 192.938635 84.603526 
L 192.841942 84.898653 
L 192.183225 85.857649 
L 191.088183 85.481354 
L 190.750968 85.516533 
L 190.194987 85.935668 
L 189.840851 85.963204 
L 189.666804 85.931843 
L 189.03226 86.057289 
L 188.916229 86.033576 
L 188.464192 85.695499 
L 188.343326 85.641196 
L 188.042371 85.578482 
L 187.833274 85.474471 
L 187.65681 85.326108 
L 187.470677 85.225929 
L 187.232572 85.264165 
L 187.155218 85.375051 
L 187.153886 85.381594 
L 187.129836 85.499708 
L 187.156427 85.631254 
L 187.388489 86.024397 
L 187.430791 86.307433 
L 187.376402 86.593557 
L 187.092368 87.090901 
L 187.132254 87.250834 
L 187.254328 87.396236 
L 187.355855 87.579146 
L 187.384863 87.767426 
L 187.363107 88.362197 
L 187.378819 88.418848 
L 187.447713 88.55206 
L 187.462216 88.638574 
L 187.440461 88.699825 
L 187.355855 88.818501 
L 187.334099 88.88435 
L 187.289379 89.771154 
L 187.001719 90.661295 
L 186.876019 90.865867 
L 186.490457 91.20532 
L 186.312785 91.4015 
L 186.206423 91.681233 
L 186.187085 91.94413 
L 186.208841 92.427831 
L 186.17379 92.714562 
L 186.02996 93.306514 
L 186.021499 93.510505 
L 186.10127 93.854099 
L 186.253561 94.116424 
L 186.437277 94.355758 
L 186.602862 94.628101 
L 186.61527 94.670872 
L 186.689886 94.928091 
L 186.683842 95.190511 
L 186.642748 95.456792 
L 186.625827 95.77375 
L 186.68626 96.086137 
L 186.898983 96.687977 
L 186.930408 97.004299 
L 186.810751 97.382087 
L 186.321246 98.004158 
L 186.131487 98.392825 
L 185.7423 99.748946 
L 185.214117 101.598551 
L 184.653301 103.560848 
L 184.339051 104.197267 
L 183.761313 104.935431 
L 183.617483 105.264159 
L 182.982939 108.119852 
L 182.952723 108.750264 
L 183.113474 109.401231 
L 182.73033 109.718862 
L 182.501894 110.179946 
L 181.909653 112.352099 
L 181.69693 112.763786 
L 180.836367 113.801532 
L 180.742092 114.061696 
L 180.725171 114.389439 
L 180.859331 115.807339 
L 181.097436 118.312944 
L 181.176015 119.140321 
L 181.313786 120.591462 
L 181.491458 122.471739 
L 181.667922 124.327892 
L 181.926574 127.083589 
L 180.876253 131.170023 
L 180.82428 131.489724 
L 180.829115 131.871541 
L 180.893174 132.240203 
L 181.096228 132.990453 
L 181.128862 133.739695 
L 180.915726 134.400353 
L 180.430259 135.905611 
L 180.387956 136.207862 
L 180.346861 137.058808 
L 180.239291 137.484744 
L 178.502453 140.635712 
L 177.37236 145.594998 
L 177.389281 145.883234 
L 177.482348 146.123577 
L 177.519816 146.252519 
L 177.523442 146.381855 
L 177.418289 146.603528 
L 177.244243 146.823266 
L 177.108873 147.080812 
L 177.119751 147.41514 
L 177.392907 148.016459 
L 177.443671 148.241344 
L 177.446088 148.609295 
L 177.216444 150.285783 
L 177.116125 150.582167 
L 176.933618 150.674986 
L 176.614533 150.563447 
L 176.508171 150.490129 
L 176.440487 150.426172 
L 176.363133 150.376255 
L 176.220511 150.345838 
L 176.121402 150.350517 
L 172.594545 150.996362 
L 172.294798 151.121955 
L 172.278537 151.131444 
L 172.118335 151.224928 
L 172.076032 151.272516 
L 172.078449 151.352869 
L 171.998678 151.738277 
L 171.981757 151.899785 
L 171.939454 152.054277 
L 171.823423 152.215017 
L 171.721896 152.269639 
L 171.495877 152.291488 
L 171.395559 152.34377 
L 171.290406 152.494378 
L 169.090652 157.151168 
L 168.966161 157.573854 
L 168.934736 157.995021 
L 168.900894 158.184131 
L 168.793323 158.388879 
L 168.671249 158.515484 
L 168.416223 158.685079 
L 168.3014 158.808567 
L 168.213169 158.979736 
L 168.00528 159.641034 
L 167.889249 160.470541 
L 167.787722 160.830227 
L 167.559286 161.16492 
L 167.121753 161.485562 
L 167.0166 161.616954 
L 166.982757 161.756954 
L 166.981047 161.826838 
L 166.974297 162.102672 
L 166.950124 162.25051 
L 166.597196 162.754293 
L 165.813671 163.13821 
L 165.557752 163.263614 
L 165.105715 163.638407 
L 164.926834 163.931065 
L 164.767292 164.279308 
L 164.640383 164.650277 
L 164.558194 165.01032 
L 164.550942 165.31638 
L 164.639174 165.890204 
L 164.617418 166.509518 
L 164.702024 166.821166 
L 164.946173 167.438264 
L 164.97518 167.721783 
L 164.931669 168.020202 
L 163.458318 172.17668 
L 163.424475 172.504804 
L 163.538089 172.916461 
L 163.742352 173.208173 
L 163.891016 173.519118 
L 163.846296 173.991654 
L 163.073965 176.896181 
L 163.065505 177.062961 
L 163.17791 177.261143 
L 163.524794 177.58767 
L 163.588853 177.815704 
L 163.499412 178.335787 
L 163.302401 178.698506 
L 162.670274 179.316843 
L 162.457551 179.575587 
L 162.409205 179.756598 
L 162.407996 179.940758 
L 162.337894 180.211318 
L 162.188021 180.463827 
L 162.059903 180.484641 
L 161.917282 180.430839 
L 161.720271 180.455973 
L 161.576441 180.618167 
L 161.420525 181.085145 
L 161.326249 181.206905 
L 161.204175 181.147989 
L 161.187254 180.926077 
L 161.234392 180.468933 
L 161.160664 180.238806 
L 161.005956 180.064844 
L 160.662697 179.780943 
L 159.247362 178.182307 
L 159.103532 178.108513 
L 158.905312 178.205074 
L 157.49602 179.452691 
L 157.294175 179.67846 
L 157.10925 179.997303 
L 156.657213 181.122851 
L 155.650403 182.951552 
L 155.559754 183.490278 
L 155.611726 184.119457 
L 156.181003 187.467935 
L 156.193089 188.154267 
L 156.09398 188.798208 
L 156.056511 188.886722 
L 155.944106 189.036216 
L 155.911473 189.117652 
L 155.909055 189.289579 
L 155.948941 189.660991 
L 155.930811 189.829395 
L 155.666116 190.338574 
L 154.977182 191.162264 
L 153.530421 196.440089 
L 153.164199 198.705563 
L 153.208709 199.873943 
L 151.222493 199.8633 
L 151.186234 199.843589 
L 151.151787 199.799435 
L 151.119153 199.726109 
L 151.080476 199.626371 
L 150.995266 199.193146 
L 150.951755 198.51874 
L 151.024274 197.353019 
L 151.269631 195.967729 
L 152.02081 194.022008 
L 152.058883 193.861341 
L 152.069157 193.770378 
L 152.069157 193.664846 
L 151.999055 193.318341 
L 151.912031 193.018317 
L 151.86852 192.564378 
L 151.999055 191.554675 
L 152.011746 191.241767 
L 151.993616 190.838754 
L 151.934996 190.583345 
L 151.411044 188.900884 
L 151.236997 188.634166 
L 148.704562 185.956373 
L 146.172126 183.280046 
L 145.246296 181.830285 
L 145.146582 181.7309 
L 145.021486 181.653122 
L 142.450072 180.435945 
L 142.324976 180.313419 
L 142.341293 180.13435 
L 142.421064 179.903062 
L 142.729875 179.200236 
L 142.773387 179.014142 
L 142.816899 178.729912 
L 142.237046 173.10172 
L 141.657194 167.480556 
L 141.66082 167.259312 
L 141.713396 167.112476 
L 141.756908 167.022418 
L 141.910407 166.783188 
L 142.043963 166.535357 
L 142.196254 166.102765 
L 142.23614 165.940309 
L 142.395078 163.934196 
L 142.382991 162.177763 
L 143.061651 159.250965 
L 143.134171 158.006743 
L 137.550786 157.919224 
L 137.51634 157.9833 
L 137.512714 158.05988 
L 137.526613 158.147402 
L 137.53447 158.241178 
L 137.530844 158.437333 
L 137.485519 158.799579 
L 137.474641 158.991461 
L 137.48008 159.186869 
L 137.56529 159.88807 
L 137.712142 160.415418 
L 137.735711 160.590954 
L 137.742963 160.78331 
L 137.724833 161.147716 
L 133.83961 161.169808 
L 129.954387 161.1919 
L 133.030415 165.593497 
L 133.066674 165.683524 
L 133.121064 165.922694 
L 133.14282 166.098459 
L 133.200835 167.648552 
L 133.035854 170.102263 
L 133.071509 171.680425 
L 133.251599 172.705531 
L 134.084362 174.723888 
L 134.029973 175.100837 
L 133.835379 175.576676 
L 131.080249 178.578578 
L 128.325119 181.582416 
L 128.172828 181.865639 
L 127.404728 184.371781 
L 126.677117 185.830562 
L 126.352593 186.248504 
L 125.073231 188.296265 
L 122.558925 191.50882 
L 120.04462 194.723408 
L 119.220921 195.155085 
L 116.716587 195.331154 
L 116.712791 195.331289 
L 115.3919 195.378422 
L 115.241423 195.426871 
L 115.016009 195.537166 
L 114.878222 195.703793 
L 114.715053 195.82788 
L 114.553698 195.760518 
L 114.366356 195.585617 
L 111.270989 191.984906 
L 108.513442 189.711944 
L 105.755894 187.440011 
L 105.227712 187.85337 
L 102.106963 189.806967 
L 101.46275 190.314177 
L 101.106801 190.673071 
L 101.088671 192.862013 
L 100.544172 193.975934 
L 99.559117 195.190535 
L 96.860794 195.960638 
L 95.456336 196.622899 
L 94.020453 197.606397 
L 93.786579 197.852695 
L 92.901978 198.73829 
L 92.147658 199.701396 
L 91.906918 200.287718 
L 91.890868 200.936936 
L 91.939017 201.4815 
L 92.083461 201.858538 
L 92.068366 201.858369 
L 87.405549 201.806086 
L 82.742732 201.753803 
L 82.181004 200.936936 
L 80.988125 197.725801 
L 80.867864 197.787277 
L 80.675688 197.83102 
L 79.520817 197.910231 
L 78.022689 197.626101 
L 77.957421 197.63477 
L 77.713877 197.71989 
L 77.646193 197.729348 
L 76.696189 197.574084 
L 75.024619 197.582753 
L 74.487976 197.460595 
L 71.460898 197.551622 
L 66.945965 199.532943 
L 66.820869 199.547135 
L 66.144022 199.476177 
L 65.853341 199.303519 
L 65.338453 198.869137 
L 63.131751 195.525348 
L 60.925048 192.183698 
L 60.026412 191.744004 
L 60.022787 191.739095 
L 59.857805 191.515708 
L 59.720018 191.288997 
L 59.021415 189.809327 
L 58.952522 189.690107 
L 58.910823 189.639744 
L 58.836491 189.562627 
L 58.803857 189.541381 
L 58.485981 189.421773 
L 58.308308 189.321447 
L 57.887092 189.002383 
L 57.796443 188.905605 
L 57.720298 188.798208 
L 57.689477 188.733299 
L 57.667721 188.649115 
L 57.597015 186.293328 
L 57.582511 186.209579 
L 57.558942 186.138806 
L 57.499114 186.012203 
L 56.990874 185.198016 
L 56.947362 185.156347 
L 56.820454 185.171678 
L 56.29771 185.34897 
L 56.052353 185.503468 
L 55.949013 185.540029 
L 55.854738 185.554182 
L 55.385175 185.530594 
L 55.31749 185.544746 
L 55.132566 185.610793 
L 54.866058 185.666619 
L 54.488353 185.671337 
L 54.421272 185.68431 
L 53.918472 185.844716 
L 53.054887 186.235529 
L 53.018628 186.242606 
L 52.871776 186.296867 
L 52.739428 186.323997 
L 52.269261 186.302765 
L 52.127848 186.319279 
L 51.994896 186.351128 
L 51.82085 186.427802 
L 51.710258 186.49386 
L 51.590601 186.542618 
L 51.451001 186.561493 
L 51.376065 186.562672 
L 51.238278 186.582726 
L 51.17845 186.606319 
L 50.960892 186.738442 
L 50.897437 186.752598 
L 50.829752 186.753778 
L 50.702844 186.730184 
L 50.637576 186.737263 
L 50.525171 186.791528 
L 50.461717 186.810404 
L 50.39101 186.808044 
L 50.322117 186.792708 
L 50.255037 186.765575 
L 50.137193 186.698333 
L 50.073134 186.671201 
L 49.933534 186.640529 
L 49.853763 186.651146 
L 49.770366 186.677099 
L 49.665213 186.732544 
L 49.587255 186.74552 
L 49.450676 186.723106 
L 49.383596 186.725466 
L 49.100771 186.86703 
L 48.96661 186.895736 
L 48.666863 186.86467 
L 48.541768 186.898096 
L 48.371347 186.985396 
L 48.187631 187.055394 
L 48.115112 187.093933 
L 48.031715 187.190676 
L 47.915684 187.372367 
L 47.331299 189.000022 
L 47.300478 189.162109 
L 47.291413 189.288398 
L 47.316795 189.456396 
L 47.334925 189.533118 
L 47.431013 189.819951 
L 47.467273 189.976162 
L 47.474525 190.062336 
L 47.470899 190.156775 
L 47.456395 190.246493 
L 47.329486 190.694322 
L 47.023092 191.512166 
L 46.956011 191.778249 
L 46.854484 192.056156 
L 46.755979 192.229756 
L 46.598249 192.438794 
L 46.277351 193.002962 
L 46.124456 193.223843 
L 45.720161 193.54081 
L 45.317075 193.971208 
L 45.21736 194.047998 
L 45.115833 194.10825 
L 44.988925 194.137785 
L 44.878333 194.148418 
L 44.83603 194.161808 
L 44.790705 194.22206 
L 44.750819 194.318939 
L 44.707308 194.631247 
L 44.727251 198.690191 
L 44.705495 198.869925 
L 44.620285 199.219162 
L 43.903552 200.261096 
L 43.564524 200.66247 
L 43.471458 200.838721 
L 43.391686 201.113558 
L 43.166876 204.03036 
L 43.154185 204.11124 
L 43.108861 204.259194 
L 42.04887 206.58752 
L 41.978164 206.816459 
L 41.967286 206.915931 
L 41.967286 208.544845 
L 41.902018 208.646716 
L 41.785987 208.729637 
L 41.21248 208.978799 
L 40.148864 209.123327 
L 39.882355 209.194802 
L 38.604806 210.241758 
L 38.25067 210.458597 
L 37.577449 211.12536 
L 37.506743 211.248609 
L 37.481361 211.465881 
L 37.42927 211.56249 
L 36.770671 211.68 
L 35.549929 211.4165 
L 35.218758 211.488398 
L 34.993948 211.444943 
L 34.528615 211.1937 
L 33.878359 211.280212 
L 33.138661 211.060972 
L 32.734971 211.074402 
L 32.367539 211.294433 
L 32.17778 211.3687 
L 31.801888 211.235968 
L 31.427205 211.246239 
L 31.274915 211.167628 
L 31.09966 211.008039 
L 30.915944 210.906521 
L 30.717724 210.87729 
L 30.502584 210.933382 
L 30.339415 211.052281 
L 30.063842 211.326036 
L 29.891004 211.376601 
L 29.65169 211.235178 
L 29.474018 210.900991 
L 29.377325 210.491776 
L 29.383369 210.124455 
L 29.536868 209.726352 
L 30.019122 209.020657 
L 30.217341 208.599729 
L 30.361171 207.730725 
L 30.379301 207.198964 
L 30.293486 206.868563 
L 30.088015 206.855932 
L 29.654108 207.408978 
L 29.333814 207.442139 
L 29.021981 207.208833 
L 28.868481 206.897773 
L 28.838265 206.525156 
L 29.095709 204.581945 
L 29.155362 204.466441 
L 29.289094 204.207508 
L 29.466766 204.11558 
L 29.845075 204.136096 
L 30.033625 204.093486 
L 30.168995 203.984989 
L 30.42523 203.648465 
L 30.877267 202.913154 
L 31.031975 202.757742 
L 31.135919 202.575512 
L 31.118998 202.352664 
L 30.999341 201.884121 
L 31.015054 201.613189 
L 31.307548 200.426294 
L 31.301505 200.324967 
L 31.237446 200.201563 
L 31.168553 200.166868 
L 31.08153 200.171599 
L 30.993298 199.978812 
L 30.960664 199.834521 
L 30.976377 199.359494 
L 30.952204 199.158852 
L 30.83859 198.780845 
L 30.831338 198.614121 
L 30.976377 198.173095 
L 31.409075 197.31322 
L 31.567409 196.862452 
L 31.625425 196.278166 
L 31.283375 193.645158 
L 31.040435 192.963984 
L 29.0945 188.912686 
L 27.148565 184.864675 
L 25.02254 182.20663 
L 23.807841 181.10714 
L 22.143522 177.991937 
z
" clip-path="url(#p0e54d81273)" style="stroke: #000000; stroke-linejoin: miter"/>
   </g>
   <g id="line2d_1">
    <path d="M 22.11814 177.576681 
L 22.649949 175.287558 
L 22.867507 174.861563 
L 22.984746 173.982242 
L 23.233729 173.179158 
L 23.201096 172.539695 
L 22.904975 171.413897 
L 22.746641 170.337756 
L 22.578638 170.153592 
L 22.304273 170.14458 
L 21.075071 170.230391 
L 21.038811 169.636798 
L 20.737856 169.276371 
L 19.393831 168.613185 
L 18.975636 168.100489 
L 18.617874 167.458627 
L 18.383395 166.746776 
L 18.329005 166.020949 
L 19.150891 160.013158 
L 19.051781 160.23207 
L 18.895865 160.109321 
L 18.438993 160.214087 
L 17.405592 160.728574 
L 17.708965 158.696802 
L 17.678749 158.516266 
L 16.819395 155.14381 
L 16.408452 154.186565 
L 16.677982 153.688513 
L 17.260554 151.952062 
L 17.105846 151.759343 
L 15.909277 151.191384 
L 14.444386 149.955107 
L 14.109589 150.586847 
L 13.733697 151.043166 
L 13.286494 151.35833 
L 12.278476 151.644652 
L 11.299465 151.522163 
L 10.888522 151.267055 
L 10.646791 150.967499 
L 9.847869 149.10086 
L 10.035211 148.631124 
L 10.328914 147.505547 
L 11.628219 144.601531 
L 12.236173 143.97038 
L 13.685351 143.167673 
L 15.17804 141.043387 
L 15.275941 140.414777 
L 15.135737 140.070564 
L 14.570087 139.08011 
L 14.518114 138.791229 
L 14.510862 137.925499 
L 14.339233 137.342889 
L 13.593493 136.467788 
L 13.385604 135.88541 
L 13.368683 135.096881 
L 12.925106 134.338037 
L 13.210349 133.750566 
L 14.559209 131.689552 
L 14.896424 131.40708 
L 16.978937 130.105207 
L 17.678749 129.408693 
L 18.263738 129.197362 
L 18.437784 128.941067 
L 18.373726 128.018794 
L 18.268573 127.726927 
L 18.060684 127.564531 
L 17.206164 127.288591 
L 16.959599 126.742978 
L 16.937843 126.447344 
L 17.092551 126.12849 
L 17.310109 125.961133 
L 17.279892 125.762407 
L 17.1832 125.593131 
L 16.926965 123.77694 
L 16.566786 123.440915 
L 16.299673 122.886624 
L 16.519648 122.353707 
L 16.992232 121.904837 
L 17.491407 121.602271 
L 19.96069 120.708659 
L 19.99695 120.366751 
L 19.755219 119.626585 
L 19.659735 118.419624 
L 19.75401 118.188102 
L 20.413936 117.55971 
L 20.68951 116.357752 
L 21.97431 114.748104 
L 22.728511 114.237337 
L 23.3413 112.710538 
L 23.467 110.47529 
L 23.350969 110.009923 
L 22.653575 108.86742 
L 22.56776 108.438125 
L 22.652366 107.972671 
L 22.87355 107.636724 
L 23.795754 106.928732 
L 24.849702 105.545184 
L 25.693343 105.415832 
L 27.491823 105.887067 
L 28.371724 105.782342 
L 29.906717 105.084779 
L 30.674213 104.878465 
L 32.017029 104.880775 
L 33.438408 105.146367 
L 35.117231 105.741531 
L 35.255017 105.281801 
L 35.218758 42.322921 
L 46.904039 42.226285 
L 46.9125 13.404199 
L 120.203558 13.418302 
L 120.358266 13.312159 
L 121.502863 10.637369 
L 122.023793 10.125948 
L 122.473413 10.120019 
L 122.688554 10.244527 
L 122.945997 10.532109 
L 123.049942 10.850869 
L 123.035438 11.209718 
L 122.391225 13.404199 
L 142.805763 13.40336 
L 147.246695 17.519645 
L 152.371617 16.681692 
L 153.439772 13.402714 
L 186.104501 13.398991 
L 185.988394 13.709949 
L 185.595343 13.82394 
L 185.986491 14.255407 
L 185.994104 15.992697 
L 186.258676 17.969216 
L 186.15399 18.368725 
L 186.357653 18.667527 
L 186.437595 19.002704 
L 186.651727 19.293389 
L 187.278896 21.024254 
L 188.793998 23.732399 
L 189.792328 24.828592 
L 191.125656 26.915578 
L 191.020018 27.447342 
L 190.872505 27.566771 
L 190.647904 27.457931 
L 190.411883 27.662084 
L 190.200606 27.456755 
L 189.679076 26.343958 
L 189.760922 26.273398 
L 189.996943 26.442746 
L 190.120664 26.71326 
L 190.547024 27.030273 
L 190.647904 26.964985 
L 190.62316 26.845 
L 190.334796 26.462151 
L 190.025494 25.700769 
L 189.840865 25.771311 
L 189.513481 25.484456 
L 189.326948 25.610244 
L 189.203228 25.278742 
L 189.330755 24.766307 
L 189.203228 24.588863 
L 188.885361 24.508959 
L 188.693118 24.75103 
L 188.64363 25.484456 
L 188.835872 25.844794 
L 188.795901 25.968252 
L 188.795901 26.668564 
L 188.476131 27.162621 
L 188.536088 27.292035 
L 188.875844 27.75387 
L 189.188 28.60484 
L 189.336465 29.5109 
L 189.443055 31.419599 
L 189.612457 32.317957 
L 190.132084 34.048482 
L 190.066417 35.452038 
L 189.953165 35.590788 
L 189.59723 35.530564 
L 189.557259 35.717737 
L 189.601037 36.148826 
L 189.513481 37.180224 
L 189.601037 37.982743 
L 189.970819 39.3459 
L 190.095293 40.517442 
L 189.673366 42.064645 
L 189.759019 42.559691 
L 190.567961 45.3602 
L 190.48326 46.730252 
L 190.251998 47.278493 
L 190.380477 48.692987 
L 190.567961 49.071236 
L 190.807789 49.904544 
L 191.271266 53.008053 
L 191.40831 54.691928 
L 191.685254 55.072893 
L 191.619587 55.3658 
L 191.90408 55.838883 
L 192.544637 58.8786 
L 193.909371 61.103449 
L 194.269112 60.982912 
L 194.967442 60.857127 
L 195.355844 60.648769 
L 195.410176 60.919329 
L 195.887949 61.13448 
L 196.127777 61.114787 
L 196.418259 61.729038 
L 196.330488 62.296008 
L 196.647314 62.127102 
L 196.970029 62.48706 
L 198.288578 62.935865 
L 198.773098 63.494786 
L 199.099927 64.154594 
L 199.928272 65.010901 
L 200.437391 65.250097 
L 200.584819 65.457582 
L 200.437673 65.712868 
L 200.129897 65.904524 
L 200.049935 66.415297 
L 200.37159 67.245101 
L 200.933507 67.867468 
L 201.562003 68.042985 
L 202.029976 67.947241 
L 202.096949 67.404429 
L 202.331891 67.319419 
L 202.74017 67.026328 
L 202.812498 67.181842 
L 202.420399 67.799201 
L 202.2529 68.140247 
L 201.700916 68.332329 
L 202.260514 68.240774 
L 202.520327 68.353274 
L 202.894344 68.580082 
L 203.680446 68.662672 
L 203.697577 68.54597 
L 203.552919 68.440644 
L 203.737548 68.237184 
L 203.967859 68.520835 
L 204.342828 69.244463 
L 204.233383 69.442014 
L 204.427529 69.587493 
L 204.721603 69.614434 
L 204.910039 69.454586 
L 205.03376 69.680891 
L 205.149867 70.450952 
L 205.381129 70.49527 
L 205.494381 70.271889 
L 205.475347 69.935956 
L 205.309752 69.646764 
L 205.507705 69.793452 
L 206.072062 70.627031 
L 206.099661 71.003186 
L 206.194831 71.465067 
L 204.53085 73.14537 
L 204.20693 73.716451 
L 203.502284 75.974549 
L 202.942676 76.829064 
L 202.160676 77.394822 
L 201.888729 78.52898 
L 201.611947 78.57933 
L 201.037835 78.062141 
L 200.50361 78.367255 
L 200.544704 78.717416 
L 200.229245 79.203442 
L 200.05399 79.205731 
L 200.004435 78.591536 
L 199.882361 78.198675 
L 199.614039 78.19715 
L 199.328446 78.327584 
L 198.538336 78.971481 
L 197.942469 79.756716 
L 197.663269 79.834565 
L 197.396156 79.735346 
L 197.045646 79.326297 
L 196.807541 79.246174 
L 196.399015 79.512499 
L 195.890171 80.623862 
L 195.412753 80.925442 
L 194.940168 81.005615 
L 193.26618 81.682973 
L 193.237173 81.851765 
L 193.378585 82.797498 
L 193.250468 83.716799 
L 192.938635 84.603526 
L 192.841942 84.898653 
L 192.183225 85.857649 
L 191.088183 85.481354 
L 190.750968 85.516533 
L 190.194987 85.935668 
L 188.916229 86.033576 
L 188.343326 85.641196 
L 187.833274 85.474471 
L 187.470677 85.225929 
L 187.153886 85.381594 
L 187.156427 85.631254 
L 187.430791 86.307433 
L 187.376402 86.593557 
L 187.092368 87.090901 
L 187.254328 87.396236 
L 187.384863 87.767426 
L 187.289379 89.771154 
L 186.876019 90.865867 
L 186.312785 91.4015 
L 186.187085 91.94413 
L 186.17379 92.714562 
L 186.021499 93.510505 
L 186.253561 94.116424 
L 186.61527 94.670872 
L 186.683842 95.190511 
L 186.625827 95.77375 
L 186.930408 97.004299 
L 186.810751 97.382087 
L 186.131487 98.392825 
L 184.653301 103.560848 
L 184.339051 104.197267 
L 183.617483 105.264159 
L 182.952723 108.750264 
L 183.113474 109.401231 
L 182.73033 109.718862 
L 182.501894 110.179946 
L 181.69693 112.763786 
L 180.742092 114.061696 
L 180.725171 114.389439 
L 181.926574 127.083589 
L 180.82428 131.489724 
L 180.893174 132.240203 
L 181.096228 132.990453 
L 181.128862 133.739695 
L 180.387956 136.207862 
L 180.239291 137.484744 
L 178.502453 140.635712 
L 177.389281 145.883234 
L 177.523442 146.381855 
L 177.119751 147.41514 
L 177.443671 148.241344 
L 177.446088 148.609295 
L 177.116125 150.582167 
L 176.933618 150.674986 
L 176.121402 150.350517 
L 172.278537 151.131444 
L 172.078449 151.352869 
L 171.823423 152.215017 
L 171.290406 152.494378 
L 168.966161 157.573854 
L 168.900894 158.184131 
L 168.671249 158.515484 
L 168.3014 158.808567 
L 168.213169 158.979736 
L 168.00528 159.641034 
L 167.787722 160.830227 
L 167.559286 161.16492 
L 167.0166 161.616954 
L 166.950124 162.25051 
L 166.597196 162.754293 
L 165.557752 163.263614 
L 165.105715 163.638407 
L 164.767292 164.279308 
L 164.558194 165.01032 
L 164.617418 166.509518 
L 164.931669 168.020202 
L 163.424475 172.504804 
L 163.538089 172.916461 
L 163.891016 173.519118 
L 163.846296 173.991654 
L 163.065505 177.062961 
L 163.17791 177.261143 
L 163.524794 177.58767 
L 163.588853 177.815704 
L 163.499412 178.335787 
L 163.302401 178.698506 
L 162.457551 179.575587 
L 162.188021 180.463827 
L 161.576441 180.618167 
L 161.326249 181.206905 
L 161.204175 181.147989 
L 161.160664 180.238806 
L 159.247362 178.182307 
L 159.103532 178.108513 
L 158.905312 178.205074 
L 157.294175 179.67846 
L 157.10925 179.997303 
L 156.657213 181.122851 
L 155.650403 182.951552 
L 155.559754 183.490278 
L 155.611726 184.119457 
L 156.193089 188.154267 
L 156.056511 188.886722 
L 155.911473 189.117652 
L 155.930811 189.829395 
L 155.666116 190.338574 
L 154.977182 191.162264 
L 153.530421 196.440089 
L 153.164199 198.705563 
L 153.208709 199.873943 
L 151.151787 199.799435 
L 150.995266 199.193146 
L 150.951755 198.51874 
L 151.024274 197.353019 
L 151.269631 195.967729 
L 152.069157 193.664846 
L 151.86852 192.564378 
L 151.993616 190.838754 
L 151.934996 190.583345 
L 151.236997 188.634166 
L 146.172126 183.280046 
L 145.021486 181.653122 
L 142.324976 180.313419 
L 142.421064 179.903062 
L 142.816899 178.729912 
L 141.713396 167.112476 
L 142.23614 165.940309 
L 142.395078 163.934196 
L 142.382991 162.177763 
L 143.061651 159.250965 
L 143.134171 158.006743 
L 137.51634 157.9833 
L 137.48008 159.186869 
L 137.724833 161.147716 
L 129.954387 161.1919 
L 133.066674 165.683524 
L 133.14282 166.098459 
L 133.200835 167.648552 
L 133.035854 170.102263 
L 133.071509 171.680425 
L 133.251599 172.705531 
L 134.084362 174.723888 
L 134.029973 175.100837 
L 133.835379 175.576676 
L 128.172828 181.865639 
L 127.404728 184.371781 
L 126.352593 186.248504 
L 125.073231 188.296265 
L 120.04462 194.723408 
L 119.220921 195.155085 
L 115.016009 195.537166 
L 114.715053 195.82788 
L 114.366356 195.585617 
L 111.270989 191.984906 
L 105.755894 187.440011 
L 105.227712 187.85337 
L 101.46275 190.314177 
L 101.106801 190.673071 
L 101.088671 192.862013 
L 100.544172 193.975934 
L 99.559117 195.190535 
L 96.860794 195.960638 
L 95.456336 196.622899 
L 93.786579 197.852695 
L 92.901978 198.73829 
L 92.147658 199.701396 
L 91.906918 200.287718 
L 91.939017 201.4815 
L 92.083461 201.858538 
L 92.068366 201.858369 
L 82.742732 201.753803 
L 82.181004 200.936936 
L 80.988125 197.725801 
L 80.675688 197.83102 
L 79.520817 197.910231 
L 77.957421 197.63477 
L 77.646193 197.729348 
L 76.696189 197.574084 
L 75.024619 197.582753 
L 74.487976 197.460595 
L 71.460898 197.551622 
L 66.820869 199.547135 
L 66.144022 199.476177 
L 65.338453 198.869137 
L 60.925048 192.183698 
L 60.022787 191.739095 
L 59.720018 191.288997 
L 58.803857 189.541381 
L 58.308308 189.321447 
L 57.689477 188.733299 
L 57.667721 188.649115 
L 57.499114 186.012203 
L 56.947362 185.156347 
L 56.820454 185.171678 
L 55.854738 185.554182 
L 55.132566 185.610793 
L 53.918472 185.844716 
L 52.739428 186.323997 
L 51.994896 186.351128 
L 50.829752 186.753778 
L 50.525171 186.791528 
L 50.255037 186.765575 
L 49.853763 186.651146 
L 48.96661 186.895736 
L 48.541768 186.898096 
L 48.031715 187.190676 
L 47.915684 187.372367 
L 47.291413 189.288398 
L 47.456395 190.246493 
L 46.854484 192.056156 
L 46.124456 193.223843 
L 44.750819 194.318939 
L 44.707308 194.631247 
L 44.620285 199.219162 
L 43.391686 201.113558 
L 43.108861 204.259194 
L 41.967286 206.915931 
L 41.902018 208.646716 
L 41.785987 208.729637 
L 41.21248 208.978799 
L 39.882355 209.194802 
L 37.506743 211.248609 
L 37.42927 211.56249 
L 36.770671 211.68 
L 35.549929 211.4165 
L 34.993948 211.444943 
L 34.528615 211.1937 
L 33.878359 211.280212 
L 33.138661 211.060972 
L 32.734971 211.074402 
L 32.17778 211.3687 
L 31.801888 211.235968 
L 31.274915 211.167628 
L 30.915944 210.906521 
L 30.502584 210.933382 
L 29.891004 211.376601 
L 29.65169 211.235178 
L 29.377325 210.491776 
L 29.383369 210.124455 
L 29.536868 209.726352 
L 30.217341 208.599729 
L 30.379301 207.198964 
L 30.293486 206.868563 
L 30.088015 206.855932 
L 29.654108 207.408978 
L 29.333814 207.442139 
L 29.021981 207.208833 
L 28.868481 206.897773 
L 28.838265 206.525156 
L 29.155362 204.466441 
L 29.289094 204.207508 
L 29.466766 204.11558 
L 30.033625 204.093486 
L 30.42523 203.648465 
L 31.118998 202.352664 
L 31.015054 201.613189 
L 31.301505 200.324967 
L 31.168553 200.166868 
L 31.08153 200.171599 
L 30.960664 199.834521 
L 30.952204 199.158852 
L 30.831338 198.614121 
L 30.976377 198.173095 
L 31.567409 196.862452 
L 31.625425 196.278166 
L 31.283375 193.645158 
L 31.040435 192.963984 
L 27.148565 184.864675 
L 25.02254 182.20663 
L 23.807841 181.10714 
L 22.143522 177.991937 
L 22.11814 177.576681 
L 22.11814 177.576681 
" clip-path="url(#p0e54d81273)" style="fill: none; stroke: #000000; stroke-width: 0.5; stroke-linecap: square"/>
   </g>
  </g>
 </g>
 <defs>
  <clipPath id="p0e54d81273">
   <rect x="0" y="-0" width="216.041548" height="221.76"/>
  </clipPath>
 </defs>
</svg>
