<?xml version="1.0" encoding="utf-8" standalone="no"?>
<!DOCTYPE svg PUBLIC "-//W3C//DTD SVG 1.1//EN"
  "http://www.w3.org/Graphics/SVG/1.1/DTD/svg11.dtd">
<svg xmlns:xlink="http://www.w3.org/1999/xlink" width="164.24826pt" height="221.76pt" viewBox="0 0 164.24826 221.76" xmlns="http://www.w3.org/2000/svg" version="1.1">
 <metadata>
  <rdf:RDF xmlns:dc="http://purl.org/dc/elements/1.1/" xmlns:cc="http://creativecommons.org/ns#" xmlns:rdf="http://www.w3.org/1999/02/22-rdf-syntax-ns#">
   <cc:Work>
    <dc:type rdf:resource="http://purl.org/dc/dcmitype/StillImage"/>
    <dc:date>2026-04-26T19:21:50.503174</dc:date>
    <dc:format>image/svg+xml</dc:format>
    <dc:creator>
     <cc:Agent>
      <dc:title>Matplotlib v3.10.9, https://matplotlib.org/</dc:title>
     </cc:Agent>
    </dc:creator>
   </cc:Work>
  </rdf:RDF>
 </metadata>
 <defs>
  <style type="text/css">*{stroke-linejoin: round; stroke-linecap: butt}</style>
 </defs>
 <g id="figure_1">
  <g id="patch_1">
   <path d="M 0 221.76 
L 164.24826 221.76 
L 164.24826 0 
L 0 0 
z
" style="fill: #ffffff"/>
  </g>
  <g id="axes_1">
   <g id="patch_2">
    <path d="M 153.32706 140.363125 
L 152.102019 141.518917 
L 151.160503 143.468119 
L 149.823852 145.614576 
L 149.315282 146.700318 
L 148.557154 149.148938 
L 149.406031 148.976708 
L 149.804946 149.673123 
L 149.891914 150.766439 
L 149.806837 151.787387 
L 149.717979 151.907206 
L 149.551607 152.019537 
L 149.387125 152.181793 
L 149.30772 152.446396 
L 149.385234 152.486336 
L 149.727432 152.810851 
L 149.806837 152.940658 
L 150.031818 154.103939 
L 150.094207 154.785443 
L 149.931616 155.085008 
L 149.510014 155.409539 
L 149.706635 156.088564 
L 150.109332 156.685214 
L 150.304063 156.7651 
L 150.321079 157.429163 
L 150.056395 158.907105 
L 149.94485 159.191713 
L 149.440062 160.167881 
L 149.30772 160.722131 
L 149.283142 161.228951 
L 149.345532 161.553518 
L 149.574294 161.880583 
L 150.056395 162.402394 
L 149.617777 162.71698 
L 149.372 163.116458 
L 148.793478 165.36357 
L 148.507998 166.105137 
L 145.84415 170.861868 
L 144.560436 174.307922 
L 143.133037 179.075276 
L 142.54128 180.246566 
L 140.790589 182.559238 
L 140.351971 182.791509 
L 139.799918 182.896405 
L 138.992634 182.908893 
L 138.60128 183.191116 
L 138.232614 183.470842 
L 137.247614 186.765208 
L 136.835465 187.187318 
L 136.118929 187.287226 
L 134.890042 186.792682 
L 134.360676 186.915069 
L 133.772701 187.859202 
L 133.083579 188.156431 
L 132.379332 188.331273 
L 131.666578 188.35625 
L 130.948152 188.211382 
L 130.522768 187.929138 
L 130.43391 187.539494 
L 130.474558 187.072424 
L 130.427293 186.5579 
L 130.099275 185.458932 
L 130.309131 184.547301 
L 130.407442 184.494851 
L 130.599337 184.502344 
L 130.774217 184.424918 
L 130.834716 184.125207 
L 130.789342 183.855468 
L 130.633368 183.333477 
L 130.580431 183.051253 
L 130.556799 182.079714 
L 130.393262 181.862431 
L 129.898872 181.492802 
L 129.09915 181.080717 
L 128.485652 181.115682 
L 127.911662 181.524473 
L 127.28985 181.967326 
L 125.481496 182.676622 
L 124.07773 182.007286 
L 120.481818 177.382063 
L 120.326789 176.932545 
L 120.445897 176.268263 
L 121.152979 175.321798 
L 121.393085 174.675013 
L 121.194572 174.195548 
L 120.544208 174.295436 
L 119.048747 175.08456 
L 118.317087 175.696387 
L 116.906703 177.277175 
L 115.583286 178.11878 
L 115.275119 178.263627 
L 114.983968 178.221172 
L 114.700378 177.829087 
L 114.828939 176.907572 
L 114.656895 176.458057 
L 113.407211 176.595409 
L 110.481516 179.564768 
L 109.627912 179.49484 
L 109.198747 178.790574 
L 108.620225 178.510867 
L 107.971751 178.578296 
L 107.341237 178.91794 
L 106.727739 179.709618 
L 106.5245 180.611194 
L 106.426189 181.495299 
L 106.122749 182.239555 
L 105.07914 182.836464 
L 103.763286 182.803996 
L 102.34534 182.564233 
L 100.991674 182.53676 
L 98.910129 182.784016 
L 98.210609 182.659139 
L 97.443027 182.654144 
L 96.086525 183.490823 
L 93.199587 184.444899 
L 92.474544 184.245091 
L 92.090753 183.840483 
L 91.66915 182.784016 
L 91.396904 182.359436 
L 91.047144 182.112182 
L 88.462701 181.268028 
L 87.844476 180.868432 
L 85.85557 178.705663 
L 85.044505 178.101299 
L 84.172941 177.99641 
L 83.734323 178.183712 
L 83.506506 178.455925 
L 83.225753 179.305037 
L 82.838181 181.362932 
L 82.813603 183.508306 
L 82.624544 184.352488 
L 81.555412 186.465487 
L 81.274659 186.855125 
L 80.838877 187.11988 
L 80.426727 187.079917 
L 80.10249 186.822655 
L 79.766909 186.620342 
L 79.316002 186.757715 
L 78.839572 187.529503 
L 78.283737 188.918244 
L 77.848901 190.349475 
L 77.743027 191.246195 
L 78.16463 191.615876 
L 79.766909 191.743267 
L 80.444688 191.955585 
L 81.136645 192.799869 
L 81.472226 194.700792 
L 81.966617 195.72746 
L 82.951617 196.621747 
L 83.267346 196.988957 
L 84.577528 199.232225 
L 85.827212 200.648665 
L 86.103238 201.194513 
L 86.217619 201.810315 
L 86.158066 202.252495 
L 86.025724 202.69343 
L 85.908507 203.311741 
L 85.953881 205.460251 
L 86.158066 207.390211 
L 85.965225 209.131585 
L 84.802509 210.724336 
L 82.393891 211.68 
L 80.089256 211.049136 
L 77.797855 209.829893 
L 75.438392 209.019157 
L 73.676357 209.159068 
L 73.095945 209.069125 
L 72.403987 208.684371 
L 71.090024 207.572592 
L 70.382941 207.1791 
L 69.67964 207.069173 
L 68.605782 207.417693 
L 67.923277 207.512631 
L 67.388239 207.367726 
L 65.485355 206.453332 
L 65.365302 205.892459 
L 65.142212 205.424026 
L 64.82081 205.08176 
L 64.053229 204.755734 
L 63.745062 204.510902 
L 63.485105 204.179882 
L 63.280921 203.76767 
L 61.901732 202.81834 
L 58.315273 202.740896 
L 57.313258 202.197535 
L 53.791079 195.607556 
L 53.524505 194.16623 
L 53.246588 193.112107 
L 52.88643 190.981424 
L 52.422289 190.042245 
L 52.096161 189.812448 
L 51.25201 189.605132 
L 50.912648 189.380331 
L 50.755729 188.948217 
L 50.77558 187.207299 
L 50.367212 186.128301 
L 49.057975 184.619731 
L 48.779112 183.743077 
L 49.014491 183.048755 
L 49.079717 182.54675 
L 48.902946 182.077217 
L 48.29701 181.33546 
L 48.124021 180.910889 
L 48.005859 180.246566 
L 48.081482 179.777049 
L 48.261089 179.242602 
L 48.310244 178.715652 
L 48.005859 178.268622 
L 47.259074 178.992862 
L 46.742941 179.227618 
L 46.506617 178.778087 
L 46.699457 177.149812 
L 46.633287 176.79769 
L 45.708786 175.376737 
L 45.53107 174.93972 
L 45.506492 174.118135 
L 45.680427 173.486346 
L 45.778738 172.916992 
L 45.53107 172.300198 
L 44.771051 172.867049 
L 44.479899 172.582374 
L 44.26059 170.679582 
L 43.897596 169.793131 
L 42.952298 168.474716 
L 42.761348 167.842985 
L 42.905033 167.363574 
L 43.156482 166.75183 
L 43.239669 166.227483 
L 42.886127 166.000268 
L 41.634553 166.249955 
L 41.513555 166.359818 
L 41.271559 165.448463 
L 41.903018 163.708189 
L 41.647788 163.3911 
L 41.214841 163.495964 
L 40.48129 163.947879 
L 40.139093 164.050247 
L 39.700475 163.843015 
L 39.537884 163.3911 
L 39.420667 162.936693 
L 39.127624 162.731961 
L 38.978267 162.232618 
L 38.492385 159.733471 
L 38.832692 159.254127 
L 39.403651 158.654953 
L 39.802567 157.975897 
L 39.626742 157.259402 
L 38.411089 157.089641 
L 37.944112 156.735143 
L 38.242826 156.106039 
L 38.435667 155.661676 
L 38.41298 155.282223 
L 38.307106 154.860334 
L 38.242826 154.276186 
L 38.360043 154.106435 
L 38.872394 154.141384 
L 38.991502 153.944173 
L 38.95369 153.57971 
L 38.779755 152.968117 
L 38.740052 152.596172 
L 38.397855 151.522787 
L 37.766396 150.756454 
L 37.433651 149.87531 
L 37.991377 148.460018 
L 37.866598 148.372656 
L 37.84202 148.347695 
L 37.834457 148.305262 
L 37.766396 148.160491 
L 37.518728 148.462514 
L 37.199218 148.742075 
L 36.836223 148.896833 
L 36.469448 148.816958 
L 36.06297 148.425073 
L 36.131031 148.108073 
L 36.367356 147.723683 
L 36.469448 147.139614 
L 36.076204 146.02391 
L 35.993018 145.492275 
L 36.023267 144.900744 
L 36.219889 143.907387 
L 36.267154 143.333345 
L 36.136703 142.756814 
L 35.907941 142.359984 
L 35.826646 141.958167 
L 36.129141 141.354199 
L 36.182077 141.052218 
L 36.267154 139.375132 
L 36.153719 138.697576 
L 35.244342 136.229505 
L 34.087298 137.424844 
L 33.109861 137.64445 
L 32.132423 137.247662 
L 30.977269 136.587604 
L 31.016972 137.462277 
L 30.761742 137.88527 
L 29.727586 138.237143 
L 29.636838 138.399354 
L 29.377826 138.727523 
L 29.10369 138.932161 
L 28.97702 138.717541 
L 28.891943 138.467983 
L 28.674525 138.324487 
L 28.387154 138.254611 
L 28.092221 138.237143 
L 27.882365 138.027516 
L 27.415388 137.661919 
L 26.94463 137.539638 
L 26.587308 138.487947 
L 26.250782 138.555328 
L 25.851866 138.406841 
L 24.715723 137.571478 
L 24.708056 137.565841 
L 24.091722 137.111657 
L 23.059458 136.832162 
L 22.7494 136.662469 
L 22.569793 136.460335 
L 22.446905 136.214532 
L 22.288095 135.641828 
L 22.212471 135.136507 
L 22.235158 134.735996 
L 22.420436 133.863869 
L 22.441233 133.539477 
L 22.361828 132.941852 
L 22.356156 132.627447 
L 22.911991 131.203918 
L 22.964928 130.350571 
L 22.365609 129.456069 
L 21.603699 128.870972 
L 21.461905 128.78115 
L 21.38439 128.636437 
L 20.991147 128.566575 
L 20.813431 128.466774 
L 20.648949 128.226002 
L 20.601684 128.058836 
L 20.569544 127.886679 
L 20.278392 127.174359 
L 20.095005 126.328571 
L 19.962663 125.979282 
L 18.567404 124.801702 
L 16.778901 123.823734 
L 16.170129 123.312306 
L 15.75987 122.416696 
L 15.542452 121.39762 
L 15.444141 119.207371 
L 15.289112 118.280665 
L 14.510187 116.083091 
L 12.655513 112.501365 
L 12.059976 111.582287 
L 9.653248 109.080802 
L 8.766559 107.611906 
L 8.405456 105.907404 
L 7.927135 101.804177 
L 7.46583 99.725919 
L 7.53011 98.727348 
L 8.03868 97.701376 
L 11.224333 93.410792 
L 11.630811 92.591872 
L 11.867135 91.639603 
L 11.94465 90.425619 
L 11.842557 89.626705 
L 11.644045 88.892617 
L 11.528719 88.133617 
L 11.674295 87.251253 
L 12.035398 86.509734 
L 12.45511 85.895344 
L 12.801089 85.263518 
L 13.071444 83.665931 
L 13.744496 81.522634 
L 14.364611 80.156972 
L 14.943133 77.7024 
L 15.597279 76.458982 
L 15.890321 75.621756 
L 15.941367 74.707308 
L 15.636982 73.855174 
L 14.655763 72.205781 
L 14.166099 70.222628 
L 13.559218 69.689489 
L 12.948555 69.282166 
L 12.672529 68.618252 
L 12.923978 66.99776 
L 13.511953 65.89049 
L 14.179333 64.948903 
L 14.672778 64.145586 
L 15.417673 62.512858 
L 15.693699 62.171626 
L 16.153114 62.018447 
L 16.506655 62.1517 
L 16.858306 62.380848 
L 17.31583 62.500404 
L 18.211972 62.33726 
L 18.637356 61.898893 
L 19.187519 60.526543 
L 20.168738 59.283756 
L 21.395734 58.49054 
L 22.770197 58.385941 
L 24.207049 59.209041 
L 25.812164 58.450693 
L 26.651588 58.257684 
L 27.591214 58.192933 
L 27.787836 58.351075 
L 28.349342 59.049649 
L 28.591339 59.209041 
L 29.063987 59.15425 
L 29.680321 58.906447 
L 32.574822 58.515444 
L 33.495542 58.192933 
L 33.886895 57.991209 
L 34.159141 57.791977 
L 34.47487 57.631347 
L 34.994784 57.534223 
L 35.314294 57.613915 
L 35.599774 57.774544 
L 35.900379 57.814391 
L 36.267154 57.534223 
L 34.932394 55.950385 
L 34.767912 55.411251 
L 34.813287 54.772519 
L 34.926722 54.225934 
L 35.471214 52.601176 
L 35.7151 51.216774 
L 35.955206 50.550738 
L 36.367356 50.2669 
L 37.01772 50.296777 
L 37.480916 50.486003 
L 37.792864 50.985216 
L 37.991377 51.943826 
L 38.560446 51.633831 
L 39.137077 51.196855 
L 39.583258 50.637882 
L 39.762864 49.96688 
L 39.488728 49.002106 
L 38.269294 47.053975 
L 38.020712 46.236763 
L 37.991377 46.140326 
L 37.834457 45.84408 
L 37.467682 45.697203 
L 37.051751 45.724587 
L 36.743584 45.961085 
L 36.679304 46.422882 
L 36.868363 46.888421 
L 37.242701 47.472222 
L 37.146281 47.792134 
L 36.904285 47.998772 
L 36.588555 48.053544 
L 36.267154 47.934042 
L 36.083766 47.670144 
L 36.017596 47.290483 
L 35.960878 43.926021 
L 35.843661 43.7916 
L 35.613008 43.806535 
L 35.244342 43.688295 
L 34.716866 43.970829 
L 34.391684 43.970829 
L 34.246108 43.524003 
L 34.370887 42.99504 
L 34.669601 42.478533 
L 36.448651 40.1276 
L 36.82488 39.358515 
L 36.970456 38.232302 
L 37.012049 37.199459 
L 37.127375 36.434183 
L 37.466506 35.430354 
L 37.966695 34.754328 
L 38.292711 34.342842 
L 39.465773 33.755015 
L 39.960007 33.231858 
L 40.302398 32.644053 
L 40.539095 31.956336 
L 41.418891 26.754902 
L 41.593064 22.190957 
L 41.844647 20.590814 
L 41.926252 19.388164 
L 42.362457 17.429382 
L 42.785514 16.102484 
L 43.754595 14.005147 
L 43.906438 13.464735 
L 44.111873 13.037894 
L 44.417048 12.759865 
L 45.253673 12.566029 
L 45.506745 12.348699 
L 45.697293 12.131371 
L 45.88933 12.035434 
L 46.059037 11.894466 
L 46.523498 11.215088 
L 46.728933 10.989938 
L 47.087699 10.815693 
L 47.456886 10.727592 
L 47.849337 10.196523 
L 48.11767 10.08 
L 49.130849 10.431781 
L 51.394426 11.135504 
L 52.734044 11.331801 
L 54.549826 11.334128 
L 57.406892 11.49379 
L 58.984424 11.61286 
L 59.609287 11.925273 
L 60.743807 12.867221 
L 61.413959 13.247086 
L 62.114711 13.487507 
L 63.837554 13.689983 
L 67.808686 14.902609 
L 70.124182 15.70525 
L 71.997983 15.809308 
L 73.718975 16.391715 
L 74.960386 16.856254 
L 76.101633 17.247848 
L 78.56685 17.948917 
L 80.074919 18.607468 
L 80.969126 18.926498 
L 81.722804 19.098474 
L 83.142746 19.745901 
L 85.45406 20.037185 
L 86.117321 20.996227 
L 86.641328 21.399688 
L 86.855695 22.042103 
L 86.855695 26.196612 
L 86.87207 26.196612 
L 87.128119 26.196612 
L 87.320156 25.43853 
L 87.38268 24.686345 
L 87.355884 23.056679 
L 87.236791 22.212502 
L 86.605601 20.396923 
L 86.209339 19.213655 
L 86.772714 18.241808 
L 86.40539 17.810859 
L 85.957497 17.838051 
L 85.52896 17.863351 
L 85.01994 17.300569 
L 84.899323 16.338538 
L 85.063963 15.617549 
L 85.657945 14.602755 
L 85.907475 14.108807 
L 86.391042 13.446161 
L 86.747426 12.949107 
L 87.28164 12.419367 
L 87.942424 12.089347 
L 88.806145 11.793484 
L 89.694708 11.730302 
L 93.024185 11.540644 
L 94.872116 11.346264 
L 96.381614 11.314938 
L 105.247339 11.893841 
L 107.40662 12.431207 
L 108.434538 13.362722 
L 109.013516 13.6814 
L 109.789952 14.005147 
L 110.04749 14.177455 
L 110.434541 14.592565 
L 110.811171 14.99789 
L 111.177381 15.291608 
L 111.292008 15.332729 
L 111.597182 15.438468 
L 111.9098 15.438468 
L 112.292011 15.508386 
L 112.806851 15.574124 
L 113.225857 15.386684 
L 113.696189 15.127126 
L 114.289287 15.055239 
L 114.915392 15.648214 
L 115.643353 16.354892 
L 115.925865 17.06516 
L 115.487062 18.474525 
L 114.946662 19.26298 
L 114.99281 19.233604 
L 116.001518 18.793565 
L 116.342752 17.720689 
L 116.377999 16.646256 
L 116.569298 16.276564 
L 117.377706 16.27251 
L 118.586429 17.384927 
L 119.327781 17.588589 
L 119.80564 17.447592 
L 120.103371 17.196933 
L 120.386216 17.11077 
L 121.204978 17.768753 
L 121.516107 17.84121 
L 121.827236 17.753086 
L 122.187492 17.588589 
L 122.473314 17.353595 
L 122.672794 17.03244 
L 122.918422 16.754369 
L 123.347156 16.632959 
L 123.694013 16.73087 
L 124.061711 16.971734 
L 124.709277 17.588589 
L 124.544036 17.196933 
L 124.295431 16.817033 
L 124.00812 16.490009 
L 123.711877 16.276564 
L 123.229552 16.15124 
L 122.896336 16.217544 
L 122.557183 16.573651 
L 122.137627 16.90829 
L 121.300228 17.009217 
L 120.738351 16.542786 
L 120.223665 16.392599 
L 119.642577 16.831909 
L 119.091084 16.79745 
L 118.537303 16.196278 
L 117.968636 15.820308 
L 115.845811 15.019429 
L 115.101482 14.551445 
L 114.467314 13.999273 
L 114.196378 13.482357 
L 114.059422 12.977198 
L 113.845686 12.652273 
L 114.088692 12.148091 
L 114.411516 11.875947 
L 115.423032 11.346264 
L 116.577305 11.086786 
L 118.059085 10.968619 
L 119.189335 10.954698 
L 127.981346 11.346264 
L 128.648265 11.553796 
L 130.21431 11.782794 
L 131.641102 12.11924 
L 139.023093 13.477232 
L 143.528595 14.786828 
L 147.038243 15.698604 
L 150.08791 16.993275 
L 152.720071 17.98308 
L 153.559312 18.101084 
L 154.013867 18.309429 
L 154.939485 18.22317 
L 155.151233 18.616213 
L 155.534697 18.805555 
L 155.745969 19.29175 
L 155.686724 19.794446 
L 156.572886 22.018494 
L 156.78243 22.876883 
L 156.432568 23.41316 
L 155.560649 25.605629 
L 155.14377 26.552547 
L 154.950193 28.469034 
L 154.440745 32.197329 
L 154.047739 34.084197 
L 153.590721 35.195213 
L 152.925291 36.249444 
L 152.291123 36.976454 
L 151.948732 37.460483 
L 151.799866 37.911207 
L 151.581034 38.832271 
L 150.028364 42.00722 
L 149.315282 43.097098 
L 146.435906 45.826654 
L 144.893181 47.911636 
L 144.552184 48.55489 
L 144.136943 49.338217 
L 143.713449 51.256612 
L 143.477125 51.584033 
L 142.913728 52.105672 
L 142.751136 52.413183 
L 142.662278 52.958491 
L 142.54128 53.256049 
L 140.542921 56.219333 
L 139.86987 57.621386 
L 139.644889 58.38096 
L 139.542797 59.209041 
L 139.862307 61.130519 
L 139.790465 61.841607 
L 139.61842 62.096904 
L 138.644764 62.994822 
L 138.476501 63.46932 
L 138.540781 63.961262 
L 138.771434 64.640028 
L 138.771434 70.592592 
L 138.890541 71.241596 
L 139.187365 71.508176 
L 139.563593 71.646451 
L 139.917135 71.910543 
L 140.351971 72.800002 
L 140.363315 73.620965 
L 140.238536 74.541613 
L 140.268785 75.725162 
L 140.724419 77.301213 
L 140.790589 77.865618 
L 140.790589 79.840484 
L 140.618545 80.671581 
L 139.894447 82.437258 
L 139.790465 83.658454 
L 140.425705 88.860213 
L 141.541156 91.920046 
L 141.864447 94.000376 
L 141.898478 95.226939 
L 141.664044 96.053396 
L 141.263238 96.954665 
L 141.408814 97.777419 
L 141.836088 98.434388 
L 142.289831 98.837052 
L 143.518718 99.27338 
L 143.896837 99.668572 
L 144.038632 100.663428 
L 143.932758 101.390262 
L 143.441204 103.058416 
L 143.289956 103.808983 
L 143.337221 105.00593 
L 143.68509 105.815136 
L 144.934774 107.298931 
L 145.165426 107.769018 
L 145.55867 109.441176 
L 145.802557 109.880114 
L 146.313017 110.420063 
L 146.558795 110.758002 
L 147.46439 112.986476 
L 148.152566 113.476582 
L 148.307595 113.889372 
L 148.434265 113.861936 
L 148.708401 114.428126 
L 149.058161 115.373456 
L 149.428718 115.963363 
L 149.638574 116.140461 
L 150.056395 116.391144 
L 151.304188 116.877548 
L 151.69176 117.215539 
L 152.449889 118.697244 
L 152.828008 119.227328 
L 153.574793 122.652447 
L 154.429342 124.368849 
L 154.450138 124.659496 
L 154.841491 124.567187 
L 155.244188 124.403776 
L 155.62987 124.325189 
L 155.960724 124.496085 
L 156.473075 125.187156 
L 156.692384 125.795907 
L 156.639447 126.534403 
L 156.346405 127.628446 
L 156.053363 129.656925 
L 156.17247 133.308661 
L 155.575042 135.241313 
L 154.245954 137.061747 
L 154.0758 137.71183 
L 153.988833 138.557823 
L 153.741165 139.504904 
L 153.347921 140.343442 
z
" clip-path="url(#p9862928038)" style="stroke: #000000; stroke-linejoin: miter"/>
   </g>
   <g id="line2d_1">
    <path d="M 153.32706 140.363125 
L 152.102019 141.518917 
L 151.160503 143.468119 
L 149.823852 145.614576 
L 149.315282 146.700318 
L 148.557154 149.148938 
L 149.406031 148.976708 
L 149.804946 149.673123 
L 149.891914 150.766439 
L 149.717979 151.907206 
L 149.387125 152.181793 
L 149.385234 152.486336 
L 149.806837 152.940658 
L 150.094207 154.785443 
L 149.931616 155.085008 
L 149.510014 155.409539 
L 149.706635 156.088564 
L 150.109332 156.685214 
L 150.304063 156.7651 
L 150.321079 157.429163 
L 149.94485 159.191713 
L 149.440062 160.167881 
L 149.283142 161.228951 
L 149.345532 161.553518 
L 150.056395 162.402394 
L 149.617777 162.71698 
L 149.372 163.116458 
L 148.507998 166.105137 
L 145.84415 170.861868 
L 144.560436 174.307922 
L 143.133037 179.075276 
L 142.54128 180.246566 
L 140.790589 182.559238 
L 140.351971 182.791509 
L 139.799918 182.896405 
L 138.992634 182.908893 
L 138.232614 183.470842 
L 137.247614 186.765208 
L 136.835465 187.187318 
L 136.118929 187.287226 
L 134.890042 186.792682 
L 134.360676 186.915069 
L 133.772701 187.859202 
L 133.083579 188.156431 
L 132.379332 188.331273 
L 131.666578 188.35625 
L 130.948152 188.211382 
L 130.522768 187.929138 
L 130.43391 187.539494 
L 130.427293 186.5579 
L 130.099275 185.458932 
L 130.407442 184.494851 
L 130.774217 184.424918 
L 130.789342 183.855468 
L 130.580431 183.051253 
L 130.556799 182.079714 
L 130.393262 181.862431 
L 129.898872 181.492802 
L 129.09915 181.080717 
L 128.485652 181.115682 
L 127.28985 181.967326 
L 125.481496 182.676622 
L 124.07773 182.007286 
L 120.481818 177.382063 
L 120.326789 176.932545 
L 120.445897 176.268263 
L 121.152979 175.321798 
L 121.393085 174.675013 
L 121.194572 174.195548 
L 120.544208 174.295436 
L 119.048747 175.08456 
L 118.317087 175.696387 
L 116.906703 177.277175 
L 115.275119 178.263627 
L 114.983968 178.221172 
L 114.700378 177.829087 
L 114.828939 176.907572 
L 114.656895 176.458057 
L 113.407211 176.595409 
L 110.481516 179.564768 
L 109.627912 179.49484 
L 109.198747 178.790574 
L 108.620225 178.510867 
L 107.971751 178.578296 
L 107.341237 178.91794 
L 106.727739 179.709618 
L 106.122749 182.239555 
L 105.07914 182.836464 
L 103.763286 182.803996 
L 102.34534 182.564233 
L 100.991674 182.53676 
L 98.910129 182.784016 
L 98.210609 182.659139 
L 97.443027 182.654144 
L 96.086525 183.490823 
L 93.199587 184.444899 
L 92.474544 184.245091 
L 92.090753 183.840483 
L 91.396904 182.359436 
L 91.047144 182.112182 
L 88.462701 181.268028 
L 87.844476 180.868432 
L 85.85557 178.705663 
L 85.044505 178.101299 
L 84.172941 177.99641 
L 83.734323 178.183712 
L 83.506506 178.455925 
L 83.225753 179.305037 
L 82.838181 181.362932 
L 82.813603 183.508306 
L 82.624544 184.352488 
L 81.274659 186.855125 
L 80.838877 187.11988 
L 80.426727 187.079917 
L 79.766909 186.620342 
L 79.316002 186.757715 
L 78.839572 187.529503 
L 78.283737 188.918244 
L 77.848901 190.349475 
L 77.743027 191.246195 
L 78.16463 191.615876 
L 79.766909 191.743267 
L 80.444688 191.955585 
L 81.136645 192.799869 
L 81.472226 194.700792 
L 81.966617 195.72746 
L 83.267346 196.988957 
L 84.577528 199.232225 
L 85.827212 200.648665 
L 86.103238 201.194513 
L 86.217619 201.810315 
L 85.908507 203.311741 
L 85.953881 205.460251 
L 86.158066 207.390211 
L 85.965225 209.131585 
L 84.802509 210.724336 
L 82.393891 211.68 
L 80.089256 211.049136 
L 77.797855 209.829893 
L 75.438392 209.019157 
L 73.676357 209.159068 
L 73.095945 209.069125 
L 72.403987 208.684371 
L 71.090024 207.572592 
L 70.382941 207.1791 
L 69.67964 207.069173 
L 68.605782 207.417693 
L 67.923277 207.512631 
L 67.388239 207.367726 
L 65.485355 206.453332 
L 65.365302 205.892459 
L 65.142212 205.424026 
L 64.82081 205.08176 
L 63.745062 204.510902 
L 63.280921 203.76767 
L 61.901732 202.81834 
L 58.315273 202.740896 
L 57.313258 202.197535 
L 53.791079 195.607556 
L 52.88643 190.981424 
L 52.422289 190.042245 
L 52.096161 189.812448 
L 51.25201 189.605132 
L 50.912648 189.380331 
L 50.755729 188.948217 
L 50.77558 187.207299 
L 50.367212 186.128301 
L 49.057975 184.619731 
L 48.779112 183.743077 
L 49.079717 182.54675 
L 48.902946 182.077217 
L 48.29701 181.33546 
L 48.124021 180.910889 
L 48.005859 180.246566 
L 48.310244 178.715652 
L 48.005859 178.268622 
L 47.259074 178.992862 
L 46.742941 179.227618 
L 46.506617 178.778087 
L 46.633287 176.79769 
L 45.53107 174.93972 
L 45.506492 174.118135 
L 45.778738 172.916992 
L 45.53107 172.300198 
L 44.771051 172.867049 
L 44.479899 172.582374 
L 44.26059 170.679582 
L 43.897596 169.793131 
L 42.952298 168.474716 
L 42.761348 167.842985 
L 43.239669 166.227483 
L 42.886127 166.000268 
L 41.513555 166.359818 
L 41.271559 165.448463 
L 41.903018 163.708189 
L 41.647788 163.3911 
L 41.214841 163.495964 
L 40.139093 164.050247 
L 39.700475 163.843015 
L 39.420667 162.936693 
L 39.127624 162.731961 
L 38.978267 162.232618 
L 38.492385 159.733471 
L 38.832692 159.254127 
L 39.403651 158.654953 
L 39.802567 157.975897 
L 39.626742 157.259402 
L 38.411089 157.089641 
L 37.944112 156.735143 
L 38.435667 155.661676 
L 38.360043 154.106435 
L 38.872394 154.141384 
L 38.991502 153.944173 
L 38.740052 152.596172 
L 38.397855 151.522787 
L 37.766396 150.756454 
L 37.433651 149.87531 
L 37.991377 148.460018 
L 37.834457 148.305262 
L 37.766396 148.160491 
L 37.199218 148.742075 
L 36.836223 148.896833 
L 36.469448 148.816958 
L 36.06297 148.425073 
L 36.131031 148.108073 
L 36.367356 147.723683 
L 36.469448 147.139614 
L 35.993018 145.492275 
L 36.023267 144.900744 
L 36.267154 143.333345 
L 36.136703 142.756814 
L 35.907941 142.359984 
L 35.826646 141.958167 
L 36.182077 141.052218 
L 36.267154 139.375132 
L 36.153719 138.697576 
L 35.244342 136.229505 
L 34.087298 137.424844 
L 33.109861 137.64445 
L 32.132423 137.247662 
L 30.977269 136.587604 
L 31.016972 137.462277 
L 30.761742 137.88527 
L 29.727586 138.237143 
L 29.377826 138.727523 
L 29.10369 138.932161 
L 28.674525 138.324487 
L 27.882365 138.027516 
L 27.415388 137.661919 
L 26.94463 137.539638 
L 26.587308 138.487947 
L 26.250782 138.555328 
L 25.851866 138.406841 
L 24.091722 137.111657 
L 22.7494 136.662469 
L 22.446905 136.214532 
L 22.212471 135.136507 
L 22.235158 134.735996 
L 22.441233 133.539477 
L 22.356156 132.627447 
L 22.911991 131.203918 
L 22.964928 130.350571 
L 22.365609 129.456069 
L 21.38439 128.636437 
L 20.813431 128.466774 
L 20.601684 128.058836 
L 20.569544 127.886679 
L 20.278392 127.174359 
L 19.962663 125.979282 
L 18.567404 124.801702 
L 16.778901 123.823734 
L 16.170129 123.312306 
L 15.75987 122.416696 
L 15.542452 121.39762 
L 15.444141 119.207371 
L 15.289112 118.280665 
L 14.510187 116.083091 
L 12.059976 111.582287 
L 9.653248 109.080802 
L 8.766559 107.611906 
L 8.405456 105.907404 
L 7.927135 101.804177 
L 7.46583 99.725919 
L 7.53011 98.727348 
L 8.03868 97.701376 
L 11.224333 93.410792 
L 11.630811 92.591872 
L 11.867135 91.639603 
L 11.94465 90.425619 
L 11.644045 88.892617 
L 11.528719 88.133617 
L 11.674295 87.251253 
L 12.45511 85.895344 
L 12.801089 85.263518 
L 13.071444 83.665931 
L 13.744496 81.522634 
L 14.364611 80.156972 
L 14.943133 77.7024 
L 15.597279 76.458982 
L 15.890321 75.621756 
L 15.941367 74.707308 
L 15.636982 73.855174 
L 14.655763 72.205781 
L 14.166099 70.222628 
L 12.948555 69.282166 
L 12.672529 68.618252 
L 12.923978 66.99776 
L 13.511953 65.89049 
L 14.672778 64.145586 
L 15.693699 62.171626 
L 16.153114 62.018447 
L 17.31583 62.500404 
L 18.211972 62.33726 
L 18.637356 61.898893 
L 19.187519 60.526543 
L 20.168738 59.283756 
L 21.395734 58.49054 
L 22.770197 58.385941 
L 24.207049 59.209041 
L 25.812164 58.450693 
L 26.651588 58.257684 
L 27.591214 58.192933 
L 27.787836 58.351075 
L 28.591339 59.209041 
L 29.063987 59.15425 
L 29.680321 58.906447 
L 32.574822 58.515444 
L 33.886895 57.991209 
L 34.47487 57.631347 
L 34.994784 57.534223 
L 35.900379 57.814391 
L 36.267154 57.534223 
L 34.932394 55.950385 
L 34.767912 55.411251 
L 34.926722 54.225934 
L 35.471214 52.601176 
L 35.7151 51.216774 
L 35.955206 50.550738 
L 36.367356 50.2669 
L 37.01772 50.296777 
L 37.480916 50.486003 
L 37.792864 50.985216 
L 37.991377 51.943826 
L 39.137077 51.196855 
L 39.583258 50.637882 
L 39.762864 49.96688 
L 39.488728 49.002106 
L 38.269294 47.053975 
L 37.834457 45.84408 
L 37.467682 45.697203 
L 37.051751 45.724587 
L 36.743584 45.961085 
L 36.679304 46.422882 
L 36.868363 46.888421 
L 37.242701 47.472222 
L 37.146281 47.792134 
L 36.904285 47.998772 
L 36.588555 48.053544 
L 36.267154 47.934042 
L 36.083766 47.670144 
L 36.017596 47.290483 
L 35.960878 43.926021 
L 35.843661 43.7916 
L 35.613008 43.806535 
L 35.244342 43.688295 
L 34.716866 43.970829 
L 34.391684 43.970829 
L 34.246108 43.524003 
L 34.370887 42.99504 
L 34.669601 42.478533 
L 36.448651 40.1276 
L 36.82488 39.358515 
L 37.127375 36.434183 
L 37.466506 35.430354 
L 38.292711 34.342842 
L 39.465773 33.755015 
L 39.960007 33.231858 
L 40.302398 32.644053 
L 40.539095 31.956336 
L 41.418891 26.754902 
L 41.593064 22.190957 
L 42.362457 17.429382 
L 42.785514 16.102484 
L 44.417048 12.759865 
L 45.253673 12.566029 
L 46.059037 11.894466 
L 46.728933 10.989938 
L 47.456886 10.727592 
L 47.849337 10.196523 
L 48.11767 10.08 
L 51.394426 11.135504 
L 52.734044 11.331801 
L 54.549826 11.334128 
L 58.984424 11.61286 
L 59.609287 11.925273 
L 60.743807 12.867221 
L 61.413959 13.247086 
L 62.114711 13.487507 
L 63.837554 13.689983 
L 70.124182 15.70525 
L 71.997983 15.809308 
L 81.722804 19.098474 
L 83.142746 19.745901 
L 85.45406 20.037185 
L 86.117321 20.996227 
L 86.641328 21.399688 
L 86.855695 22.042103 
L 86.855695 26.196612 
L 86.87207 26.196612 
L 87.128119 26.196612 
L 87.320156 25.43853 
L 87.38268 24.686345 
L 87.236791 22.212502 
L 86.209339 19.213655 
L 86.772714 18.241808 
L 86.40539 17.810859 
L 85.52896 17.863351 
L 85.01994 17.300569 
L 84.899323 16.338538 
L 85.063963 15.617549 
L 86.747426 12.949107 
L 87.28164 12.419367 
L 87.942424 12.089347 
L 88.806145 11.793484 
L 96.381614 11.314938 
L 105.247339 11.893841 
L 107.40662 12.431207 
L 108.434538 13.362722 
L 110.04749 14.177455 
L 111.177381 15.291608 
L 111.9098 15.438468 
L 112.806851 15.574124 
L 113.696189 15.127126 
L 114.289287 15.055239 
L 115.643353 16.354892 
L 115.925865 17.06516 
L 115.487062 18.474525 
L 114.946662 19.26298 
L 114.99281 19.233604 
L 116.001518 18.793565 
L 116.342752 17.720689 
L 116.377999 16.646256 
L 116.569298 16.276564 
L 117.377706 16.27251 
L 118.586429 17.384927 
L 119.327781 17.588589 
L 119.80564 17.447592 
L 120.103371 17.196933 
L 120.386216 17.11077 
L 121.204978 17.768753 
L 121.516107 17.84121 
L 122.187492 17.588589 
L 122.473314 17.353595 
L 122.918422 16.754369 
L 123.347156 16.632959 
L 123.694013 16.73087 
L 124.061711 16.971734 
L 124.709277 17.588589 
L 124.295431 16.817033 
L 123.711877 16.276564 
L 123.229552 16.15124 
L 122.896336 16.217544 
L 122.137627 16.90829 
L 121.300228 17.009217 
L 120.738351 16.542786 
L 120.223665 16.392599 
L 119.642577 16.831909 
L 119.091084 16.79745 
L 118.537303 16.196278 
L 117.968636 15.820308 
L 115.845811 15.019429 
L 115.101482 14.551445 
L 114.467314 13.999273 
L 114.196378 13.482357 
L 114.059422 12.977198 
L 113.845686 12.652273 
L 114.088692 12.148091 
L 114.411516 11.875947 
L 115.423032 11.346264 
L 116.577305 11.086786 
L 119.189335 10.954698 
L 127.981346 11.346264 
L 128.648265 11.553796 
L 130.21431 11.782794 
L 131.641102 12.11924 
L 139.023093 13.477232 
L 147.038243 15.698604 
L 150.08791 16.993275 
L 152.720071 17.98308 
L 153.559312 18.101084 
L 154.013867 18.309429 
L 154.939485 18.22317 
L 155.151233 18.616213 
L 155.534697 18.805555 
L 155.745969 19.29175 
L 155.686724 19.794446 
L 156.572886 22.018494 
L 156.78243 22.876883 
L 156.432568 23.41316 
L 155.14377 26.552547 
L 154.950193 28.469034 
L 154.440745 32.197329 
L 154.047739 34.084197 
L 153.590721 35.195213 
L 152.925291 36.249444 
L 151.948732 37.460483 
L 151.581034 38.832271 
L 150.028364 42.00722 
L 149.315282 43.097098 
L 146.435906 45.826654 
L 144.552184 48.55489 
L 144.136943 49.338217 
L 143.713449 51.256612 
L 143.477125 51.584033 
L 142.913728 52.105672 
L 142.751136 52.413183 
L 142.54128 53.256049 
L 140.542921 56.219333 
L 139.86987 57.621386 
L 139.644889 58.38096 
L 139.542797 59.209041 
L 139.862307 61.130519 
L 139.790465 61.841607 
L 139.61842 62.096904 
L 138.644764 62.994822 
L 138.476501 63.46932 
L 138.540781 63.961262 
L 138.771434 64.640028 
L 138.771434 70.592592 
L 138.890541 71.241596 
L 139.187365 71.508176 
L 139.563593 71.646451 
L 139.917135 71.910543 
L 140.351971 72.800002 
L 140.363315 73.620965 
L 140.238536 74.541613 
L 140.268785 75.725162 
L 140.790589 77.865618 
L 140.790589 79.840484 
L 140.618545 80.671581 
L 139.894447 82.437258 
L 139.790465 83.658454 
L 140.425705 88.860213 
L 141.541156 91.920046 
L 141.864447 94.000376 
L 141.898478 95.226939 
L 141.664044 96.053396 
L 141.263238 96.954665 
L 141.408814 97.777419 
L 141.836088 98.434388 
L 142.289831 98.837052 
L 143.518718 99.27338 
L 143.896837 99.668572 
L 144.038632 100.663428 
L 143.932758 101.390262 
L 143.289956 103.808983 
L 143.337221 105.00593 
L 143.68509 105.815136 
L 144.934774 107.298931 
L 145.165426 107.769018 
L 145.55867 109.441176 
L 145.802557 109.880114 
L 146.558795 110.758002 
L 147.46439 112.986476 
L 148.152566 113.476582 
L 148.307595 113.889372 
L 148.434265 113.861936 
L 149.638574 116.140461 
L 150.056395 116.391144 
L 151.304188 116.877548 
L 151.69176 117.215539 
L 152.828008 119.227328 
L 153.574793 122.652447 
L 154.450138 124.659496 
L 155.62987 124.325189 
L 155.960724 124.496085 
L 156.473075 125.187156 
L 156.692384 125.795907 
L 156.639447 126.534403 
L 156.346405 127.628446 
L 156.053363 129.656925 
L 156.17247 133.308661 
L 155.575042 135.241313 
L 154.245954 137.061747 
L 154.0758 137.71183 
L 153.988833 138.557823 
L 153.741165 139.504904 
L 153.32706 140.363125 
L 153.32706 140.363125 
" clip-path="url(#p9862928038)" style="fill: none; stroke: #000000; stroke-width: 0.5; stroke-linecap: square"/>
   </g>
  </g>
 </g>
 <defs>
  <clipPath id="p9862928038">
   <rect x="0" y="-0" width="164.24826" height="221.76"/>
  </clipPath>
 </defs>
</svg>
