<?xml version="1.0" encoding="utf-8" standalone="no"?>
<!DOCTYPE svg PUBLIC "-//W3C//DTD SVG 1.1//EN"
  "http://www.w3.org/Graphics/SVG/1.1/DTD/svg11.dtd">
<svg xmlns:xlink="http://www.w3.org/1999/xlink" width="223.2pt" height="89.287247pt" viewBox="0 0 223.2 89.287247" xmlns="http://www.w3.org/2000/svg" version="1.1">
 <metadata>
  <rdf:RDF xmlns:dc="http://purl.org/dc/elements/1.1/" xmlns:cc="http://creativecommons.org/ns#" xmlns:rdf="http://www.w3.org/1999/02/22-rdf-syntax-ns#">
   <cc:Work>
    <dc:type rdf:resource="http://purl.org/dc/dcmitype/StillImage"/>
    <dc:date>2026-04-26T19:22:01.541812</dc:date>
    <dc:format>image/svg+xml</dc:format>
    <dc:creator>
     <cc:Agent>
      <dc:title>Matplotlib v3.10.9, https://matplotlib.org/</dc:title>
     </cc:Agent>
    </dc:creator>
   </cc:Work>
  </rdf:RDF>
 </metadata>
 <defs>
  <style type="text/css">*{stroke-linejoin: round; stroke-linecap: butt}</style>
 </defs>
 <g id="figure_1">
  <g id="patch_1">
   <path d="M 0 89.287247 
L 223.2 89.287247 
L 223.2 0 
L 0 0 
z
" style="fill: #ffffff"/>
  </g>
  <g id="axes_1">
   <g id="patch_2">
    <path d="M 212.478185 42.08354 
L 212.241134 43.402215 
L 212.078451 43.770652 
L 211.813511 44.031136 
L 210.832769 44.770398 
L 210.916434 45.380632 
L 211.237151 45.977254 
L 211.348704 46.542231 
L 210.80488 47.060694 
L 210.042597 47.367163 
L 209.861323 47.742619 
L 209.903155 48.210435 
L 209.805546 48.792954 
L 209.373276 49.277972 
L 208.885228 49.569882 
L 208.671417 49.96057 
L 209.047911 50.746398 
L 209.861323 51.341262 
L 211.776327 51.470878 
L 212.715236 51.968163 
L 213.054545 52.76107 
L 213.022009 53.823322 
L 212.664108 54.843511 
L 212.389211 55.131608 
L 212.036619 55.501186 
L 211.223207 55.600173 
L 208.002095 55.064843 
L 206.435696 55.15849 
L 205.859336 55.098896 
L 205.352697 54.950982 
L 205.069164 54.761581 
L 204.832113 54.554109 
L 204.47886 54.356231 
L 202.624281 53.954144 
L 202.424414 53.507465 
L 202.670761 52.662207 
L 202.582448 52.197716 
L 201.866645 51.827892 
L 200.709276 51.834267 
L 196.451646 52.606931 
L 196.019376 52.756818 
L 195.824157 53.060874 
L 195.271037 54.403039 
L 194.899191 54.717957 
L 193.927745 55.330896 
L 193.541955 55.697035 
L 193.481531 55.992971 
L 193.472234 56.898048 
L 193.277015 57.336875 
L 193.332792 57.718254 
L 193.439698 58.01765 
L 193.658157 58.248882 
L 194.048595 58.41726 
L 193.253775 59.27213 
L 193.960281 59.830847 
L 195.280333 60.157184 
L 197.292946 60.404634 
L 198.069174 60.60304 
L 198.399187 61.061786 
L 198.059878 61.962478 
L 197.734513 62.240014 
L 196.790955 62.778103 
L 196.451646 63.179617 
L 196.223891 63.73929 
L 196.196002 64.117468 
L 196.377277 64.465789 
L 196.786307 64.927448 
L 198.640886 66.131193 
L 199.217247 66.869146 
L 198.626942 67.660837 
L 197.371964 68.165949 
L 195.475552 68.626212 
L 193.98817 68.606943 
L 193.950985 67.671537 
L 193.495475 66.967557 
L 191.719913 65.962246 
L 191.059887 65.393477 
L 190.767059 64.48716 
L 190.748466 63.66879 
L 190.45099 62.995937 
L 189.326158 62.526125 
L 188.401192 62.373457 
L 187.527355 62.331822 
L 185.56587 62.54641 
L 182.572515 63.52459 
L 181.638253 63.717926 
L 181.061892 63.638881 
L 179.964948 63.218063 
L 179.481549 63.210587 
L 178.993502 63.561974 
L 178.905189 64.034135 
L 178.97491 64.503188 
L 178.956318 64.829124 
L 178.268403 65.436237 
L 177.422455 65.654323 
L 172.267747 65.615836 
L 171.221932 65.372098 
L 170.269078 64.959512 
L 169.697366 64.45724 
L 168.800289 62.966037 
L 168.400555 62.756748 
L 167.405868 62.405484 
L 167.080503 62.202652 
L 166.99219 61.971017 
L 167.057263 61.341347 
L 166.787675 57.383745 
L 166.643585 57.124907 
L 166.290332 57.174968 
L 165.565233 57.513707 
L 165.258461 57.776851 
L 165.100426 58.069861 
L 164.881967 58.317085 
L 164.39392 58.440706 
L 164.054611 58.346924 
L 162.906538 57.654331 
L 162.874002 57.144079 
L 161.981573 56.993901 
L 159.792333 57.164316 
L 158.93244 57.669246 
L 158.151564 58.66239 
L 157.798311 59.673027 
L 158.230582 60.230776 
L 158.830182 60.494234 
L 158.918496 60.908149 
L 158.802294 61.42885 
L 158.806942 62.01905 
L 159.411191 63.48507 
L 159.471616 64.017042 
L 159.192732 64.927448 
L 157.877328 66.680892 
L 157.208007 68.163809 
L 156.798977 68.583393 
L 156.278393 68.893849 
L 155.739217 69.056587 
L 155.25117 69.287867 
L 155.000174 69.699088 
L 154.791011 70.176796 
L 154.462231 70.575628 
L 154.437758 70.605318 
L 151.170166 72.020004 
L 150.338162 72.819898 
L 150.161535 73.356175 
L 150.259145 74.291739 
L 150.115055 74.802596 
L 149.757153 75.19118 
L 149.329531 75.352215 
L 148.344141 75.551913 
L 147.19142 76.125336 
L 146.996201 76.597925 
L 147.795669 78.046365 
L 146.317583 78.925753 
L 146.219974 79.028979 
L 146.187437 79.136511 
L 146.219974 79.241897 
L 146.317583 79.347288 
L 146.800982 79.66349 
L 147.172828 80.420827 
L 147.581858 80.8125 
L 148.018776 80.973924 
L 148.999518 81.100918 
L 149.422493 81.275276 
L 149.93378 81.966382 
L 149.761802 82.674923 
L 148.641617 84.086181 
L 147.205364 85.228736 
L 145.852776 85.064863 
L 144.379339 84.640143 
L 142.599128 84.991556 
L 142.766459 84.349135 
L 143.036047 83.853427 
L 143.217322 83.336277 
L 143.142952 82.614613 
L 142.891957 82.069742 
L 142.515463 81.524998 
L 141.734588 80.627416 
L 141.293021 79.962522 
L 141.000193 79.697909 
L 140.698069 79.545178 
L 138.118391 78.652655 
L 137.430477 78.495693 
L 136.658897 78.463441 
L 136.733266 78.35164 
L 136.905245 78.151702 
L 137.695417 76.982512 
L 138.982931 75.974987 
L 139.647605 75.0001 
L 138.50418 74.029915 
L 137.825562 73.877555 
L 136.445086 73.899014 
L 135.724636 73.834639 
L 135.380679 73.684438 
L 135.050666 73.296106 
L 134.907846 73.262323 
L 134.67882 73.20815 
L 134.399936 73.291816 
L 133.702726 73.688729 
L 133.382009 73.804598 
L 132.591838 73.778849 
L 130.495559 72.993638 
L 129.62637 72.800595 
L 129.189452 72.656895 
L 126.349482 69.968991 
L 125.071263 69.129395 
L 123.830229 68.728981 
L 122.654268 68.42711 
L 121.826912 67.990431 
L 121.334217 67.32487 
L 121.15759 66.315124 
L 121.310976 65.250238 
L 122.040723 63.108065 
L 122.194109 61.917649 
L 122.170869 60.671312 
L 121.984946 59.73914 
L 121.366753 59.171917 
L 120.07459 59.028001 
L 119.478736 59.109387 
L 117.569282 59.370215 
L 116.34684 59.792457 
L 115.389338 60.436634 
L 115.012844 60.960427 
L 115.184823 61.135408 
L 115.482299 61.279457 
L 115.500891 61.697783 
L 115.231303 62.075624 
L 114.785089 62.41616 
L 114.269153 62.667058 
L 112.995582 63.077096 
L 110.783102 64.935999 
L 109.853488 65.34858 
L 107.9013 65.626527 
L 106.929854 65.913061 
L 106.051369 66.481958 
L 105.600506 66.88626 
L 105.409935 67.235001 
L 105.56797 67.395483 
L 106.618433 67.97973 
L 107.94778 69.619836 
L 108.073278 71.141082 
L 107.097184 72.485324 
L 105.131051 73.579303 
L 104.643004 73.684438 
L 103.71339 73.748809 
L 103.262528 73.971974 
L 102.941811 74.399053 
L 102.844202 74.875585 
L 102.839554 75.341479 
L 102.602502 76.524883 
L 102.518837 76.608667 
L 102.081918 77.227478 
L 102.049382 77.317734 
L 101.486966 77.788416 
L 101.166249 77.960379 
L 100.733979 78.046365 
L 97.545404 78.510743 
L 96.89677 78.846966 
L 96.40816 79.449857 
L 96.286008 80.241387 
L 95.360415 80.268767 
L 95.305035 80.336905 
L 95.165593 80.765152 
L 95.202778 80.982533 
L 95.095872 81.122443 
L 94.533456 81.320483 
L 94.273164 81.311872 
L 93.469048 81.152578 
L 92.232662 81.167646 
L 90.07131 80.657545 
L 89.629744 80.689826 
L 89.290435 80.79313 
L 88.913941 80.851241 
L 88.360821 80.728565 
L 88.295748 80.623112 
L 87.4498 79.826985 
L 86.77583 79.42257 
L 86.069324 79.160169 
L 81.486328 78.42044 
L 80.733341 78.672008 
L 80.296423 79.145114 
L 79.803728 79.560236 
L 78.86017 79.637676 
L 77.521526 80.012006 
L 74.862831 81.268819 
L 73.42193 81.596045 
L 70.042785 81.363537 
L 69.45248 81.494858 
L 68.188206 82.000835 
L 65.413309 82.737388 
L 64.056073 82.901098 
L 62.587283 82.918331 
L 61.206807 82.735234 
L 60.160992 82.330317 
L 58.14373 80.870611 
L 57.83231 80.534879 
L 57.59061 80.115281 
L 57.274542 79.353741 
L 56.758606 78.489242 
L 56.595924 78.046365 
L 56.377464 77.95178 
L 53.33298 75.738743 
L 52.310405 75.448841 
L 51.933911 75.547618 
L 51.613195 75.760219 
L 51.269237 75.927736 
L 50.841615 75.889077 
L 50.446529 75.695792 
L 50.418641 75.566945 
L 50.511602 75.393012 
L 50.49301 75.070948 
L 50.558083 75.030157 
L 50.544139 74.596523 
L 50.465122 74.184431 
L 50.339624 74.225207 
L 50.544139 74.010601 
L 50.906688 73.727352 
L 51.222757 73.40981 
L 51.269237 73.092312 
L 50.581323 72.665474 
L 47.002311 72.159376 
L 46.611873 71.4626 
L 47.025551 70.041828 
L 47.806427 68.557702 
L 49.400714 66.578214 
L 48.378139 65.455479 
L 46.783852 64.377101 
L 45.923959 63.432735 
L 46.165659 62.955358 
L 47.350916 62.071354 
L 47.671633 61.379763 
L 47.621181 60.974955 
L 47.574023 60.596639 
L 47.153861 60.18647 
L 46.477079 59.973747 
L 39.776889 58.874501 
L 36.778885 58.813743 
L 33.897083 59.176181 
L 30.062427 60.844137 
L 28.602933 61.080992 
L 27.124847 61.124738 
L 25.739723 61.409642 
L 24.28023 62.213327 
L 22.997363 63.290686 
L 22.049157 64.111058 
L 21.807458 64.675234 
L 21.99338 65.087769 
L 22.407058 65.791173 
L 22.430299 65.957969 
L 22.862569 66.642387 
L 23.05314 66.817802 
L 23.522595 66.973976 
L 24.275582 66.753624 
L 24.59165 66.841334 
L 24.824054 67.795665 
L 23.662037 68.581252 
L 20.784883 69.799762 
L 18.488737 71.520478 
L 17.029243 72.000707 
L 15.500029 71.563351 
L 13.450231 71.614801 
L 11.409729 71.925664 
L 10.326729 72.339499 
L 10.92633 71.43902 
L 11.270287 71.02106 
L 11.409729 70.665317 
L 10.614909 70.026832 
L 10.145455 69.4592 
L 10.312785 68.960228 
L 11.409729 68.514884 
L 14.105609 67.671537 
L 14.179978 67.656556 
L 14.254347 67.652276 
L 14.338012 67.656556 
L 14.691265 67.72932 
L 14.960853 67.750721 
L 15.221145 67.73146 
L 16.211183 67.534576 
L 16.406402 67.258538 
L 16.36457 66.875564 
L 16.38781 66.428484 
L 16.708527 65.256651 
L 16.857265 64.933861 
L 17.511902 64.001078 
L 18.31211 62.86139 
L 18.251685 62.404417 
L 17.703213 61.778896 
L 17.043188 61.326408 
L 14.832078 60.46401 
L 14.616896 60.380101 
L 15.132832 60.06653 
L 15.216497 59.79459 
L 15.123536 59.515219 
L 15.123536 59.200701 
L 15.090999 59.07384 
L 14.984093 58.903281 
L 14.886484 58.709287 
L 14.886484 58.498257 
L 15.063111 58.246751 
L 15.574398 57.897247 
L 17.140797 56.19738 
L 18.730436 54.928636 
L 17.642788 54.160497 
L 17.503346 53.618063 
L 18.107595 53.118288 
L 24.154732 49.633577 
L 27.375843 48.522366 
L 27.822058 48.285761 
L 29.007315 47.446704 
L 30.499345 46.950418 
L 30.973448 46.728822 
L 31.480087 46.330216 
L 31.652066 45.989972 
L 31.633474 45.297986 
L 31.298813 45.067018 
L 31.061761 44.865736 
L 30.936263 44.634813 
L 31.001336 44.435687 
L 31.707843 43.10264 
L 32.019263 42.750188 
L 32.106055 42.614787 
L 32.270259 42.35864 
L 32.344628 41.791547 
L 32.200538 41.338823 
L 31.600937 40.626074 
L 31.415014 40.256043 
L 32.084336 38.820905 
L 34.26428 38.035037 
L 39.102919 37.088986 
L 42.103247 35.669613 
L 43.13047 34.748827 
L 42.591294 33.991814 
L 43.195543 33.343605 
L 43.618517 33.085428 
L 44.747998 32.834657 
L 44.915328 32.575486 
L 45.082659 32.503851 
L 45.72874 32.297386 
L 45.672963 31.600184 
L 47.020903 31.309573 
L 49.868451 29.682366 
L 49.967778 29.625628 
L 50.823023 28.754695 
L 52.12913 27.925107 
L 55.182911 26.54526 
L 55.001636 25.536938 
L 55.289816 24.703323 
L 56.135765 24.168047 
L 56.544795 24.136564 
L 56.786494 24.077797 
L 57.441872 23.533233 
L 57.911327 23.36433 
L 58.371486 23.286702 
L 58.79446 23.120965 
L 59.143065 22.675217 
L 58.67361 22.263113 
L 57.99964 21.887778 
L 57.330318 21.553386 
L 56.502962 21.797623 
L 51.153036 22.12052 
L 51.376143 21.601602 
L 51.933911 20.967539 
L 52.598585 20.435278 
L 53.755954 20.018363 
L 53.825675 19.253877 
L 55.006284 19.092636 
L 55.736031 18.835096 
L 56.405353 18.486522 
L 56.744662 18.14533 
L 56.526203 17.662939 
L 56.061396 17.10325 
L 55.949842 16.652467 
L 56.786494 16.496649 
L 57.186228 16.305291 
L 57.59061 16.241509 
L 57.99964 16.305291 
L 58.40867 16.496649 
L 59.575335 16.600178 
L 61.815704 16.361756 
L 62.875464 16.496649 
L 63.46112 16.702665 
L 63.544372 16.710797 
L 64.060721 16.761232 
L 65.283163 16.685932 
L 64.465103 17.834537 
L 64.720747 18.495942 
L 65.696841 18.853939 
L 67.016892 19.107294 
L 67.202815 19.198384 
L 67.328313 19.343926 
L 67.509588 19.490524 
L 67.858193 19.580583 
L 68.160317 19.542884 
L 69.86151 19.090543 
L 71.051416 18.937689 
L 72.303305 18.970418 
L 74.174917 19.019349 
L 74.609908 18.912268 
L 75.425248 18.71157 
L 76.064518 18.200574 
L 76.313029 18.001962 
L 76.457119 17.623181 
L 76.38275 17.395107 
L 76.16429 17.205762 
L 76.015552 17.107434 
L 75.787797 16.857452 
L 75.783149 16.608544 
L 76.308381 16.514426 
L 77.005591 16.662925 
L 77.208297 16.741835 
L 77.591247 16.890921 
L 78.172256 16.943217 
L 78.86017 16.564622 
L 78.939187 16.496649 
L 78.999612 16.381623 
L 79.00426 16.276014 
L 78.997331 16.260893 
L 78.957779 16.174592 
L 78.637063 15.899628 
L 78.539453 15.736547 
L 78.599878 15.609018 
L 78.86017 15.523307 
L 79.324977 15.583932 
L 79.687526 15.510764 
L 79.882745 15.279779 
L 79.868801 14.875353 
L 79.715415 14.877443 
L 78.967076 14.528465 
L 78.86017 14.501302 
L 80.575447 13.646334 
L 80.821655 13.523642 
L 81.900007 13.158178 
L 83.481421 12.795174 
L 83.50596 12.789542 
L 85.799736 12.371077 
L 86.817663 12.306368 
L 86.227358 13.31793 
L 85.748607 13.59883 
L 84.68914 13.593185 
L 84.572646 13.592565 
L 86.243569 14.130226 
L 86.89668 14.340417 
L 87.886718 14.420858 
L 89.860256 14.171567 
L 91.633061 13.947657 
L 92.47901 13.655224 
L 93.194812 13.134164 
L 94.012872 12.356466 
L 94.645009 12.55269 
L 97.545404 12.65916 
L 97.81964 12.832446 
L 97.96373 13.211428 
L 98.052043 13.590476 
L 98.172893 13.761749 
L 104.024811 13.761749 
L 106.046721 13.486048 
L 106.483639 13.3054 
L 106.683506 13.129988 
L 106.864781 12.925358 
L 107.245922 12.65916 
L 107.61312 12.485888 
L 108.589214 12.165477 
L 109.411922 12.016246 
L 109.718694 11.819027 
L 109.941802 11.621826 
L 110.174205 11.530014 
L 112.600497 11.281723 
L 113.413909 11.279637 
L 114.580574 11.496628 
L 115.101157 11.530014 
L 115.342857 11.705295 
L 115.584556 12.094513 
L 115.900625 12.483801 
L 116.342192 12.65916 
L 118.048033 12.934754 
L 120.925187 12.945194 
L 121.061482 12.931223 
L 122.310311 12.803216 
L 122.366088 12.611144 
L 122.89132 11.920243 
L 124.267148 11.367265 
L 125.615087 11.28381 
L 126.30765 11.678167 
L 126.842177 12.224963 
L 126.935777 12.294887 
L 127.339521 12.59653 
L 127.94377 12.473363 
L 128.041488 12.369221 
L 128.236598 12.161302 
L 128.287727 11.858678 
L 128.264486 11.571746 
L 128.320263 11.296328 
L 128.301671 11.157589 
L 128.194765 11.000084 
L 128.120396 10.816517 
L 128.222654 10.593337 
L 128.385336 10.507826 
L 128.622388 10.453601 
L 128.817606 10.44943 
L 128.859439 10.514083 
L 128.887327 10.762284 
L 129.180156 10.851978 
L 129.435799 9.895791 
L 129.026769 9.871814 
L 128.818767 9.820046 
L 128.306319 9.692513 
L 127.67883 9.627885 
L 125.494238 9.853049 
L 124.820268 10.058427 
L 124.197427 10.328472 
L 123.532753 10.537025 
L 122.733285 10.557881 
L 121.803672 10.236716 
L 120.650951 9.70398 
L 120.427843 9.683132 
L 119.721337 9.525736 
L 120.009517 9.089049 
L 119.897964 8.745182 
L 119.707393 8.450334 
L 119.758522 8.152402 
L 120.200088 7.847221 
L 121.338865 7.469191 
L 121.817616 7.198467 
L 122.156925 6.392747 
L 122.366088 6.099266 
L 122.974985 5.558202 
L 123.328238 5.43128 
L 123.830229 5.439602 
L 126.251873 5.148334 
L 126.930491 4.940309 
L 126.512165 4.30596 
L 127.227967 4.058511 
L 128.348152 4.095939 
L 129.180156 4.322596 
L 129.249877 4.615831 
L 129.291709 5.135851 
L 129.449744 5.624787 
L 129.89131 5.823514 
L 130.449078 5.602938 
L 130.681482 4.725025 
L 131.090512 4.467129 
L 131.67152 4.583594 
L 132.103791 4.979832 
L 132.457044 5.445844 
L 132.791705 5.766287 
L 133.256512 5.829757 
L 133.753855 5.767328 
L 134.195421 5.819352 
L 134.492898 6.226228 
L 134.372048 6.378176 
L 133.772447 6.922573 
L 133.623709 7.185973 
L 133.81428 7.51501 
L 134.172181 7.78265 
L 134.283735 8.089904 
L 134.372048 8.352408 
L 136.747211 8.331573 
L 136.380013 8.082613 
L 136.784395 7.292176 
L 137.992893 7.325495 
L 139.461682 7.843055 
L 140.6237 8.508675 
L 139.796343 8.625362 
L 139.800991 8.905646 
L 140.437331 9.291051 
L 140.470313 9.311029 
L 141.77642 9.902046 
L 142.878013 10.077194 
L 144.63963 9.976065 
L 146.27575 9.659157 
L 146.991553 9.188051 
L 147.842149 8.983799 
L 152.857415 9.32562 
L 155.344131 9.32562 
L 155.953028 9.902046 
L 157.635629 9.901004 
L 159.383303 10.146006 
L 171.71801 14.813478 
L 171.96882 15.527596 
L 172.053936 15.769998 
L 173.383284 16.99133 
L 175.056588 17.457878 
L 176.344103 18.150563 
L 176.306919 19.867539 
L 175.87 20.48347 
L 174.126975 21.832217 
L 173.917812 22.196009 
L 173.685408 22.91119 
L 173.51343 23.190196 
L 171.979567 24.325467 
L 170.534018 25.830984 
L 169.790327 26.606195 
L 169.0141 27.97767 
L 168.907194 29.347902 
L 169.251151 30.021239 
L 169.739198 30.608474 
L 170.115692 31.261141 
L 170.138932 32.130964 
L 169.71131 32.674515 
L 169.023396 33.112825 
L 168.498164 33.550168 
L 168.549293 33.930674 
L 169.562572 34.116208 
L 172.30958 34.39981 
L 173.234546 34.217415 
L 174.075846 34.355528 
L 176.432417 34.174191 
L 177.185404 34.244826 
L 185.682072 35.906991 
L 185.607703 36.372326 
L 185.798274 36.473636 
L 186.077158 36.459917 
L 186.249136 36.586561 
L 186.249136 36.827204 
L 186.063214 37.217777 
L 185.95166 38.176557 
L 185.80757 38.617017 
L 185.881939 39.00051 
L 186.453651 39.505597 
L 187.569188 40.038282 
L 192.379938 41.005685 
L 194.118316 42.036988 
L 195.131595 42.403083 
L 197.074487 42.792522 
L 197.699062 42.807454 
L 198.004101 42.814747 
L 199.166118 42.608376 
L 201.127603 41.985147 
L 201.587761 41.567289 
L 201.708611 41.254211 
L 201.745796 40.909454 
L 201.959607 40.391361 
L 202.642873 39.673633 
L 203.37262 39.589085 
L 204.246456 39.731761 
L 205.366641 39.698998 
L 205.389881 38.935005 
L 206.175405 37.997018 
L 207.309533 37.188218 
L 208.61564 36.722711 
L 208.861988 36.692103 
L 209.112984 36.722711 
L 209.350035 36.81876 
L 209.354683 36.81876 
L 209.354683 36.825093 
L 209.81949 37.135434 
L 210.7584 38.075169 
L 212.287614 38.831469 
L 212.687348 39.129413 
L 212.929048 39.819485 
L 212.371279 41.209792 
z
" clip-path="url(#pc9f711cc1b)" style="stroke: #000000; stroke-linejoin: miter"/>
   </g>
   <g id="line2d_1">
    <path d="M 212.478185 42.08354 
L 212.078451 43.770652 
L 211.813511 44.031136 
L 210.832769 44.770398 
L 210.916434 45.380632 
L 211.237151 45.977254 
L 211.348704 46.542231 
L 210.80488 47.060694 
L 210.042597 47.367163 
L 209.861323 47.742619 
L 209.903155 48.210435 
L 209.805546 48.792954 
L 209.373276 49.277972 
L 208.885228 49.569882 
L 208.671417 49.96057 
L 209.047911 50.746398 
L 209.861323 51.341262 
L 211.776327 51.470878 
L 212.715236 51.968163 
L 213.054545 52.76107 
L 213.022009 53.823322 
L 212.664108 54.843511 
L 212.036619 55.501186 
L 211.223207 55.600173 
L 208.002095 55.064843 
L 205.859336 55.098896 
L 205.069164 54.761581 
L 204.47886 54.356231 
L 202.624281 53.954144 
L 202.424414 53.507465 
L 202.670761 52.662207 
L 202.582448 52.197716 
L 201.866645 51.827892 
L 200.709276 51.834267 
L 196.019376 52.756818 
L 195.824157 53.060874 
L 195.271037 54.403039 
L 194.899191 54.717957 
L 193.541955 55.697035 
L 193.481531 55.992971 
L 193.472234 56.898048 
L 193.277015 57.336875 
L 193.439698 58.01765 
L 193.658157 58.248882 
L 194.048595 58.41726 
L 193.253775 59.27213 
L 193.960281 59.830847 
L 195.280333 60.157184 
L 198.069174 60.60304 
L 198.399187 61.061786 
L 198.059878 61.962478 
L 197.734513 62.240014 
L 196.790955 62.778103 
L 196.451646 63.179617 
L 196.223891 63.73929 
L 196.196002 64.117468 
L 196.377277 64.465789 
L 196.786307 64.927448 
L 198.640886 66.131193 
L 199.217247 66.869146 
L 198.626942 67.660837 
L 197.371964 68.165949 
L 195.475552 68.626212 
L 193.98817 68.606943 
L 193.950985 67.671537 
L 193.495475 66.967557 
L 191.719913 65.962246 
L 191.059887 65.393477 
L 190.767059 64.48716 
L 190.748466 63.66879 
L 190.45099 62.995937 
L 189.326158 62.526125 
L 187.527355 62.331822 
L 185.56587 62.54641 
L 181.638253 63.717926 
L 181.061892 63.638881 
L 179.964948 63.218063 
L 179.481549 63.210587 
L 178.993502 63.561974 
L 178.905189 64.034135 
L 178.956318 64.829124 
L 178.268403 65.436237 
L 177.422455 65.654323 
L 172.267747 65.615836 
L 171.221932 65.372098 
L 170.269078 64.959512 
L 169.697366 64.45724 
L 168.800289 62.966037 
L 168.400555 62.756748 
L 167.080503 62.202652 
L 166.99219 61.971017 
L 167.057263 61.341347 
L 166.787675 57.383745 
L 166.643585 57.124907 
L 166.290332 57.174968 
L 165.258461 57.776851 
L 164.881967 58.317085 
L 164.39392 58.440706 
L 164.054611 58.346924 
L 162.906538 57.654331 
L 162.874002 57.144079 
L 161.981573 56.993901 
L 159.792333 57.164316 
L 158.93244 57.669246 
L 158.151564 58.66239 
L 157.798311 59.673027 
L 158.230582 60.230776 
L 158.830182 60.494234 
L 158.918496 60.908149 
L 158.802294 61.42885 
L 158.806942 62.01905 
L 159.411191 63.48507 
L 159.471616 64.017042 
L 159.192732 64.927448 
L 157.877328 66.680892 
L 157.208007 68.163809 
L 156.798977 68.583393 
L 156.278393 68.893849 
L 155.25117 69.287867 
L 154.437758 70.605318 
L 151.170166 72.020004 
L 150.338162 72.819898 
L 150.161535 73.356175 
L 150.259145 74.291739 
L 150.115055 74.802596 
L 149.757153 75.19118 
L 149.329531 75.352215 
L 148.344141 75.551913 
L 147.19142 76.125336 
L 146.996201 76.597925 
L 147.795669 78.046365 
L 146.219974 79.028979 
L 146.219974 79.241897 
L 146.317583 79.347288 
L 146.800982 79.66349 
L 147.172828 80.420827 
L 147.581858 80.8125 
L 148.018776 80.973924 
L 148.999518 81.100918 
L 149.422493 81.275276 
L 149.93378 81.966382 
L 149.761802 82.674923 
L 148.641617 84.086181 
L 147.205364 85.228736 
L 145.852776 85.064863 
L 144.379339 84.640143 
L 142.599128 84.991556 
L 142.766459 84.349135 
L 143.217322 83.336277 
L 143.142952 82.614613 
L 142.891957 82.069742 
L 142.515463 81.524998 
L 140.698069 79.545178 
L 137.430477 78.495693 
L 136.658897 78.463441 
L 137.695417 76.982512 
L 138.982931 75.974987 
L 139.647605 75.0001 
L 138.50418 74.029915 
L 137.825562 73.877555 
L 135.724636 73.834639 
L 135.380679 73.684438 
L 134.907846 73.262323 
L 134.67882 73.20815 
L 134.399936 73.291816 
L 133.382009 73.804598 
L 132.591838 73.778849 
L 130.495559 72.993638 
L 129.189452 72.656895 
L 126.349482 69.968991 
L 125.071263 69.129395 
L 121.826912 67.990431 
L 121.334217 67.32487 
L 121.15759 66.315124 
L 121.310976 65.250238 
L 122.040723 63.108065 
L 122.194109 61.917649 
L 122.170869 60.671312 
L 121.984946 59.73914 
L 121.366753 59.171917 
L 120.07459 59.028001 
L 117.569282 59.370215 
L 116.34684 59.792457 
L 115.389338 60.436634 
L 115.012844 60.960427 
L 115.184823 61.135408 
L 115.482299 61.279457 
L 115.500891 61.697783 
L 115.231303 62.075624 
L 114.785089 62.41616 
L 114.269153 62.667058 
L 112.995582 63.077096 
L 110.783102 64.935999 
L 109.853488 65.34858 
L 107.9013 65.626527 
L 106.929854 65.913061 
L 105.600506 66.88626 
L 105.409935 67.235001 
L 105.56797 67.395483 
L 106.618433 67.97973 
L 107.94778 69.619836 
L 108.073278 71.141082 
L 107.097184 72.485324 
L 105.131051 73.579303 
L 104.643004 73.684438 
L 103.71339 73.748809 
L 103.262528 73.971974 
L 102.941811 74.399053 
L 102.518837 76.608667 
L 102.049382 77.317734 
L 101.166249 77.960379 
L 100.733979 78.046365 
L 97.545404 78.510743 
L 96.89677 78.846966 
L 96.40816 79.449857 
L 96.286008 80.241387 
L 95.305035 80.336905 
L 95.095872 81.122443 
L 94.273164 81.311872 
L 93.469048 81.152578 
L 92.232662 81.167646 
L 90.07131 80.657545 
L 88.360821 80.728565 
L 88.295748 80.623112 
L 87.4498 79.826985 
L 86.77583 79.42257 
L 86.069324 79.160169 
L 81.486328 78.42044 
L 80.733341 78.672008 
L 79.803728 79.560236 
L 78.86017 79.637676 
L 77.521526 80.012006 
L 74.862831 81.268819 
L 73.42193 81.596045 
L 70.042785 81.363537 
L 69.45248 81.494858 
L 68.188206 82.000835 
L 65.413309 82.737388 
L 64.056073 82.901098 
L 62.587283 82.918331 
L 61.206807 82.735234 
L 60.160992 82.330317 
L 57.83231 80.534879 
L 56.758606 78.489242 
L 56.595924 78.046365 
L 56.377464 77.95178 
L 53.33298 75.738743 
L 52.310405 75.448841 
L 51.933911 75.547618 
L 51.269237 75.927736 
L 50.841615 75.889077 
L 50.418641 75.566945 
L 50.511602 75.393012 
L 50.465122 74.184431 
L 50.339624 74.225207 
L 51.269237 73.092312 
L 50.581323 72.665474 
L 47.002311 72.159376 
L 46.611873 71.4626 
L 47.025551 70.041828 
L 47.806427 68.557702 
L 49.400714 66.578214 
L 48.378139 65.455479 
L 46.783852 64.377101 
L 45.923959 63.432735 
L 46.165659 62.955358 
L 47.350916 62.071354 
L 47.671633 61.379763 
L 47.574023 60.596639 
L 47.153861 60.18647 
L 46.477079 59.973747 
L 39.776889 58.874501 
L 36.778885 58.813743 
L 33.897083 59.176181 
L 30.062427 60.844137 
L 28.602933 61.080992 
L 27.124847 61.124738 
L 25.739723 61.409642 
L 24.28023 62.213327 
L 22.049157 64.111058 
L 21.807458 64.675234 
L 22.430299 65.957969 
L 23.05314 66.817802 
L 23.522595 66.973976 
L 24.275582 66.753624 
L 24.59165 66.841334 
L 24.824054 67.795665 
L 23.662037 68.581252 
L 20.784883 69.799762 
L 18.488737 71.520478 
L 17.029243 72.000707 
L 15.500029 71.563351 
L 13.450231 71.614801 
L 11.409729 71.925664 
L 10.326729 72.339499 
L 11.409729 70.665317 
L 10.614909 70.026832 
L 10.145455 69.4592 
L 10.312785 68.960228 
L 11.409729 68.514884 
L 14.338012 67.656556 
L 15.221145 67.73146 
L 16.211183 67.534576 
L 16.406402 67.258538 
L 16.38781 66.428484 
L 16.857265 64.933861 
L 18.31211 62.86139 
L 18.251685 62.404417 
L 17.703213 61.778896 
L 17.043188 61.326408 
L 14.616896 60.380101 
L 15.132832 60.06653 
L 15.216497 59.79459 
L 14.886484 58.498257 
L 15.063111 58.246751 
L 15.574398 57.897247 
L 17.140797 56.19738 
L 18.730436 54.928636 
L 17.642788 54.160497 
L 17.503346 53.618063 
L 18.107595 53.118288 
L 24.154732 49.633577 
L 27.822058 48.285761 
L 29.007315 47.446704 
L 30.973448 46.728822 
L 31.480087 46.330216 
L 31.652066 45.989972 
L 31.633474 45.297986 
L 31.061761 44.865736 
L 30.936263 44.634813 
L 31.001336 44.435687 
L 32.019263 42.750188 
L 32.270259 42.35864 
L 32.344628 41.791547 
L 32.200538 41.338823 
L 31.415014 40.256043 
L 32.084336 38.820905 
L 34.26428 38.035037 
L 39.102919 37.088986 
L 42.103247 35.669613 
L 43.13047 34.748827 
L 42.591294 33.991814 
L 43.195543 33.343605 
L 43.618517 33.085428 
L 44.747998 32.834657 
L 45.082659 32.503851 
L 45.72874 32.297386 
L 45.672963 31.600184 
L 47.020903 31.309573 
L 49.967778 29.625628 
L 50.823023 28.754695 
L 52.12913 27.925107 
L 55.182911 26.54526 
L 55.001636 25.536938 
L 55.289816 24.703323 
L 56.135765 24.168047 
L 56.786494 24.077797 
L 57.441872 23.533233 
L 58.79446 23.120965 
L 59.143065 22.675217 
L 58.67361 22.263113 
L 57.330318 21.553386 
L 56.502962 21.797623 
L 51.153036 22.12052 
L 51.376143 21.601602 
L 51.933911 20.967539 
L 52.598585 20.435278 
L 53.755954 20.018363 
L 53.825675 19.253877 
L 55.006284 19.092636 
L 56.405353 18.486522 
L 56.744662 18.14533 
L 56.526203 17.662939 
L 56.061396 17.10325 
L 55.949842 16.652467 
L 56.786494 16.496649 
L 57.186228 16.305291 
L 57.59061 16.241509 
L 57.99964 16.305291 
L 58.40867 16.496649 
L 59.575335 16.600178 
L 61.815704 16.361756 
L 62.875464 16.496649 
L 63.544372 16.710797 
L 64.060721 16.761232 
L 65.283163 16.685932 
L 64.465103 17.834537 
L 64.720747 18.495942 
L 65.696841 18.853939 
L 67.202815 19.198384 
L 67.509588 19.490524 
L 67.858193 19.580583 
L 68.160317 19.542884 
L 69.86151 19.090543 
L 71.051416 18.937689 
L 74.174917 19.019349 
L 75.425248 18.71157 
L 76.313029 18.001962 
L 76.457119 17.623181 
L 76.38275 17.395107 
L 75.787797 16.857452 
L 75.783149 16.608544 
L 76.308381 16.514426 
L 78.172256 16.943217 
L 78.999612 16.381623 
L 78.957779 16.174592 
L 78.539453 15.736547 
L 78.599878 15.609018 
L 78.86017 15.523307 
L 79.324977 15.583932 
L 79.687526 15.510764 
L 79.882745 15.279779 
L 79.868801 14.875353 
L 79.715415 14.877443 
L 78.86017 14.501302 
L 80.821655 13.523642 
L 81.900007 13.158178 
L 85.799736 12.371077 
L 86.817663 12.306368 
L 86.227358 13.31793 
L 85.748607 13.59883 
L 84.572646 13.592565 
L 86.89668 14.340417 
L 87.886718 14.420858 
L 91.633061 13.947657 
L 92.47901 13.655224 
L 93.194812 13.134164 
L 94.012872 12.356466 
L 94.645009 12.55269 
L 97.545404 12.65916 
L 97.81964 12.832446 
L 98.172893 13.761749 
L 104.024811 13.761749 
L 106.046721 13.486048 
L 106.683506 13.129988 
L 107.245922 12.65916 
L 107.61312 12.485888 
L 108.589214 12.165477 
L 109.411922 12.016246 
L 110.174205 11.530014 
L 113.413909 11.279637 
L 115.342857 11.705295 
L 115.900625 12.483801 
L 116.342192 12.65916 
L 118.048033 12.934754 
L 121.061482 12.931223 
L 122.310311 12.803216 
L 122.366088 12.611144 
L 122.89132 11.920243 
L 124.267148 11.367265 
L 125.615087 11.28381 
L 126.30765 11.678167 
L 127.339521 12.59653 
L 128.041488 12.369221 
L 128.236598 12.161302 
L 128.301671 11.157589 
L 128.120396 10.816517 
L 128.222654 10.593337 
L 128.622388 10.453601 
L 128.859439 10.514083 
L 128.887327 10.762284 
L 129.180156 10.851978 
L 129.435799 9.895791 
L 128.818767 9.820046 
L 127.67883 9.627885 
L 125.494238 9.853049 
L 123.532753 10.537025 
L 122.733285 10.557881 
L 121.803672 10.236716 
L 120.427843 9.683132 
L 119.721337 9.525736 
L 120.009517 9.089049 
L 119.758522 8.152402 
L 120.200088 7.847221 
L 121.817616 7.198467 
L 122.366088 6.099266 
L 122.974985 5.558202 
L 123.328238 5.43128 
L 123.830229 5.439602 
L 126.251873 5.148334 
L 126.930491 4.940309 
L 126.512165 4.30596 
L 127.227967 4.058511 
L 128.348152 4.095939 
L 129.180156 4.322596 
L 129.449744 5.624787 
L 129.89131 5.823514 
L 130.449078 5.602938 
L 130.681482 4.725025 
L 131.090512 4.467129 
L 131.67152 4.583594 
L 132.457044 5.445844 
L 132.791705 5.766287 
L 133.256512 5.829757 
L 134.195421 5.819352 
L 134.492898 6.226228 
L 134.372048 6.378176 
L 133.623709 7.185973 
L 133.81428 7.51501 
L 134.172181 7.78265 
L 134.372048 8.352408 
L 136.747211 8.331573 
L 136.380013 8.082613 
L 136.784395 7.292176 
L 137.992893 7.325495 
L 139.461682 7.843055 
L 140.6237 8.508675 
L 139.796343 8.625362 
L 139.800991 8.905646 
L 140.470313 9.311029 
L 141.77642 9.902046 
L 142.878013 10.077194 
L 144.63963 9.976065 
L 146.27575 9.659157 
L 146.991553 9.188051 
L 147.842149 8.983799 
L 152.857415 9.32562 
L 155.344131 9.32562 
L 155.953028 9.902046 
L 157.635629 9.901004 
L 159.383303 10.146006 
L 171.71801 14.813478 
L 172.053936 15.769998 
L 173.383284 16.99133 
L 175.056588 17.457878 
L 176.344103 18.150563 
L 176.306919 19.867539 
L 175.87 20.48347 
L 174.126975 21.832217 
L 173.917812 22.196009 
L 173.51343 23.190196 
L 171.979567 24.325467 
L 169.790327 26.606195 
L 169.0141 27.97767 
L 168.907194 29.347902 
L 169.251151 30.021239 
L 169.739198 30.608474 
L 170.115692 31.261141 
L 170.138932 32.130964 
L 169.71131 32.674515 
L 168.498164 33.550168 
L 168.549293 33.930674 
L 169.562572 34.116208 
L 172.30958 34.39981 
L 173.234546 34.217415 
L 174.075846 34.355528 
L 176.432417 34.174191 
L 177.185404 34.244826 
L 185.682072 35.906991 
L 185.607703 36.372326 
L 185.798274 36.473636 
L 186.077158 36.459917 
L 186.249136 36.586561 
L 186.249136 36.827204 
L 186.063214 37.217777 
L 185.881939 39.00051 
L 186.453651 39.505597 
L 187.569188 40.038282 
L 192.379938 41.005685 
L 194.118316 42.036988 
L 195.131595 42.403083 
L 197.699062 42.807454 
L 198.004101 42.814747 
L 199.166118 42.608376 
L 201.127603 41.985147 
L 201.587761 41.567289 
L 201.959607 40.391361 
L 202.642873 39.673633 
L 203.37262 39.589085 
L 204.246456 39.731761 
L 205.366641 39.698998 
L 205.389881 38.935005 
L 206.175405 37.997018 
L 207.309533 37.188218 
L 208.861988 36.692103 
L 209.354683 36.825093 
L 209.81949 37.135434 
L 210.7584 38.075169 
L 212.687348 39.129413 
L 212.929048 39.819485 
L 212.371279 41.209792 
L 212.478185 42.08354 
L 212.478185 42.08354 
" clip-path="url(#pc9f711cc1b)" style="fill: none; stroke: #000000; stroke-width: 0.5; stroke-linecap: square"/>
   </g>
  </g>
 </g>
 <defs>
  <clipPath id="pc9f711cc1b">
   <rect x="0" y="-0" width="223.2" height="89.287247"/>
  </clipPath>
 </defs>
</svg>
