<?xml version="1.0" encoding="utf-8" standalone="no"?>
<!DOCTYPE svg PUBLIC "-//W3C//DTD SVG 1.1//EN"
  "http://www.w3.org/Graphics/SVG/1.1/DTD/svg11.dtd">
<svg xmlns:xlink="http://www.w3.org/1999/xlink" width="223.2pt" height="183.231096pt" viewBox="0 0 223.2 183.231096" xmlns="http://www.w3.org/2000/svg" version="1.1">
 <metadata>
  <rdf:RDF xmlns:dc="http://purl.org/dc/elements/1.1/" xmlns:cc="http://creativecommons.org/ns#" xmlns:rdf="http://www.w3.org/1999/02/22-rdf-syntax-ns#">
   <cc:Work>
    <dc:type rdf:resource="http://purl.org/dc/dcmitype/StillImage"/>
    <dc:date>2026-04-26T19:21:50.028463</dc:date>
    <dc:format>image/svg+xml</dc:format>
    <dc:creator>
     <cc:Agent>
      <dc:title>Matplotlib v3.10.9, https://matplotlib.org/</dc:title>
     </cc:Agent>
    </dc:creator>
   </cc:Work>
  </rdf:RDF>
 </metadata>
 <defs>
  <style type="text/css">*{stroke-linejoin: round; stroke-linecap: butt}</style>
 </defs>
 <g id="figure_1">
  <g id="patch_1">
   <path d="M 0 183.231096 
L 223.2 183.231096 
L 223.2 0 
L 0 0 
z
" style="fill: #ffffff"/>
  </g>
  <g id="axes_1">
   <g id="patch_2">
    <path d="M 11.188121 160.183219 
L 11.999679 159.039403 
L 13.525138 157.338277 
L 13.758369 156.46654 
L 13.641753 156.043063 
L 13.997904 155.030294 
L 14.521098 154.182039 
L 14.738571 154.12936 
L 15.167212 153.361229 
L 14.451759 152.247562 
L 14.281564 151.82379 
L 13.878136 148.592604 
L 13.97269 148.143053 
L 12.831747 147.694444 
L 12.831747 147.190714 
L 13.165835 146.68882 
L 13.499923 146.025886 
L 13.402218 145.047952 
L 12.715132 144.650565 
L 12.592212 143.067663 
L 11.738081 142.51135 
L 11.523761 142.247226 
L 12.544936 140.900724 
L 11.378779 140.159531 
L 12.046955 139.872892 
L 12.283338 139.634339 
L 12.784471 139.292707 
L 12.856961 138.841918 
L 12.951515 138.655856 
L 12.998791 138.103854 
L 13.165835 137.895132 
L 13.124862 137.714369 
L 13.857243 137.308143 
L 14.618803 136.88579 
L 15.179819 136.575896 
L 16.125352 135.8349 
L 16.610725 134.757337 
L 16.197843 134.071738 
L 16.544538 133.624352 
L 17.263143 133.408969 
L 17.978595 133.417688 
L 18.558522 133.170931 
L 19.185725 132.78732 
L 19.65534 132.275626 
L 19.753045 131.649858 
L 19.485144 131.269058 
L 18.974556 130.9188 
L 18.41354 130.660054 
L 17.978595 130.548548 
L 17.266294 130.180084 
L 16.591815 130.063369 
L 16.188387 129.830825 
L 16.305003 129.110665 
L 16.427922 128.995735 
L 16.825046 128.856431 
L 16.970027 128.725839 
L 17.051974 128.401997 
L 16.963724 127.790973 
L 17.007849 127.509004 
L 17.234777 127.208789 
L 17.792641 126.736339 
L 17.978595 126.352693 
L 18.397781 125.775142 
L 19.406349 124.981196 
L 19.81608 124.263959 
L 20.118651 123.899757 
L 20.607176 123.712892 
L 21.174495 123.576446 
L 21.703993 123.367008 
L 22.797659 122.750078 
L 22.999373 122.857814 
L 23.387041 123.307047 
L 23.632879 123.450433 
L 24.269538 123.436529 
L 24.761215 123.164536 
L 25.186704 122.846519 
L 25.650015 122.685786 
L 26.179513 122.779619 
L 27.745946 123.487802 
L 28.896343 123.739835 
L 29.482574 123.652925 
L 29.851331 123.207984 
L 29.791447 122.517243 
L 29.265101 122.219276 
L 28.067427 122.03165 
L 27.169171 121.38895 
L 26.976913 121.18401 
L 26.781502 120.862736 
L 26.727922 120.741182 
L 27.38034 119.527654 
L 27.799526 118.927154 
L 28.278596 118.385769 
L 29.492029 117.410835 
L 30.5069 116.230771 
L 31.149862 115.931713 
L 31.499709 115.959451 
L 32.155279 116.183093 
L 32.574465 116.164022 
L 33.072445 115.936047 
L 33.239489 115.625752 
L 33.299373 115.231431 
L 33.475872 114.75745 
L 34.071558 114.068712 
L 35.436276 113.002577 
L 36.142274 111.921254 
L 37.002708 111.055796 
L 36.986018 111.022353 
L 36.823057 110.695842 
L 36.085542 110.0297 
L 35.88698 109.547925 
L 35.741998 108.918366 
L 35.972078 108.486056 
L 36.265193 108.116916 
L 36.328228 107.682134 
L 36.17064 107.421988 
L 35.972078 107.378777 
L 35.748302 107.394333 
L 35.530829 107.307912 
L 35.206197 106.985584 
L 34.547476 106.144074 
L 34.39619 105.884932 
L 34.314244 105.617176 
L 34.339458 105.342537 
L 34.437163 105.168958 
L 34.547476 105.010933 
L 34.629422 104.780387 
L 34.736582 104.232159 
L 34.761796 103.861842 
L 34.594752 103.569247 
L 34.109379 103.252519 
L 33.885603 103.323284 
L 33.664979 103.191249 
L 33.22373 102.694233 
L 32.706839 102.490619 
L 32.297108 102.18005 
L 31.994538 101.748761 
L 31.799128 101.190769 
L 31.799128 101.185595 
L 31.379942 101.051936 
L 30.544722 100.991575 
L 29.652769 101.028654 
L 29.060236 101.190769 
L 28.97829 101.214053 
L 28.893192 101.220089 
L 28.808094 101.214053 
L 28.726148 101.190769 
L 28.639378 101.04297 
L 28.335327 100.525118 
L 28.845915 100.033741 
L 29.681135 99.625186 
L 30.276821 99.20118 
L 30.415499 98.677292 
L 30.377678 98.186235 
L 30.440713 97.786561 
L 30.891417 97.533348 
L 31.342121 97.650478 
L 31.666753 97.888197 
L 31.884226 97.73316 
L 32.003993 96.682583 
L 31.266478 96.897833 
L 30.510052 96.91161 
L 29.788296 96.687749 
L 29.1737 96.190152 
L 28.455095 95.012799 
L 28.001239 94.74435 
L 27.367733 95.143592 
L 27.266876 95.398311 
L 27.254269 96.050703 
L 27.140805 96.357156 
L 26.860297 96.629203 
L 26.557726 96.753183 
L 24.71709 96.846172 
L 24.531135 96.787623 
L 24.171833 96.544831 
L 24.017396 96.484567 
L 23.831441 96.525891 
L 23.465835 96.725632 
L 23.333461 96.763515 
L 22.00021 96.676851 
L 21.240682 96.627481 
L 20.433828 96.730798 
L 19.737286 96.713578 
L 19.075413 96.539666 
L 18.542763 96.148833 
L 18.318987 96.054146 
L 18.051086 95.987006 
L 17.662553 95.999951 
L 17.533512 95.380584 
L 16.977609 94.34538 
L 16.779072 93.456819 
L 16.481266 92.966605 
L 16.41426 92.671435 
L 16.41426 91.311076 
L 16.324919 91.104035 
L 15.788869 90.278729 
L 15.669746 89.945969 
L 15.503472 89.248115 
L 14.520714 86.874558 
L 14.70436 86.785387 
L 14.724214 86.628668 
L 14.907861 86.41522 
L 14.962458 86.18558 
L 14.907861 85.955958 
L 14.724214 85.742562 
L 14.724214 85.515678 
L 14.87808 85.369834 
L 14.888007 85.349578 
L 14.818519 85.299615 
L 14.724214 85.061966 
L 14.969904 84.596178 
L 15.146105 84.35319 
L 15.389313 84.134518 
L 15.548143 83.632449 
L 15.448874 83.146663 
L 15.270191 82.702783 
L 15.160995 82.325069 
L 15.160995 80.739236 
L 15.354569 80.345617 
L 16.788999 78.375671 
L 17.434244 77.800584 
L 17.156292 76.911929 
L 15.997332 74.824727 
L 16.41426 73.715164 
L 16.265357 73.151814 
L 16.039522 71.012416 
L 16.10901 70.538268 
L 15.801277 70.272351 
L 14.329622 68.512322 
L 13.70423 68.238553 
L 13.39898 68.03727 
L 13.269931 67.712566 
L 13.041613 67.527421 
L 12.550234 67.594501 
L 12.078709 67.750133 
L 11.909952 67.836002 
L 11.582366 67.683049 
L 11.627037 67.312776 
L 11.783385 66.862078 
L 11.813165 66.465097 
L 11.627037 66.294789 
L 10.562382 65.789292 
L 10.614498 65.62707 
L 10.679023 65.301315 
L 10.753474 65.116336 
L 10.562382 65.116336 
L 10.145455 65.320082 
L 10.145455 65.116336 
L 10.755956 64.923329 
L 11.363975 64.582918 
L 11.825574 64.10722 
L 12.004257 63.520418 
L 11.934769 63.152058 
L 11.664263 62.700719 
L 11.60222 62.29498 
L 11.768494 62.053976 
L 12.483228 61.845124 
L 13.657078 59.851139 
L 13.711675 59.674563 
L 13.70423 58.906859 
L 13.577663 58.277079 
L 13.25504 57.505769 
L 12.843076 56.785458 
L 12.438557 56.316492 
L 13.910212 56.396651 
L 14.642317 56.247023 
L 14.952532 55.758117 
L 15.081581 55.125078 
L 15.875705 54.082394 
L 16.166325 54.168635 
L 16.768314 54.061833 
L 17.38291 53.865194 
L 17.978595 53.78383 
L 18.35996 54.163549 
L 18.369415 54.587408 
L 18.278014 55.016421 
L 18.347353 55.408191 
L 18.700352 55.676187 
L 19.173118 55.774573 
L 20.128106 55.800018 
L 21.029513 56.16815 
L 22.803963 57.298315 
L 23.316619 57.217732 
L 23.387041 57.206662 
L 23.727433 56.237711 
L 23.913387 53.921133 
L 24.584715 52.968635 
L 25.564917 52.658554 
L 26.299281 52.839854 
L 26.784654 52.738189 
L 27.039948 51.58118 
L 27.0431 51.576099 
L 27.648241 51.361016 
L 28.849067 51.770874 
L 29.498332 51.582874 
L 29.42269 50.651537 
L 29.517243 45.918689 
L 29.573975 45.438778 
L 29.750474 45.192098 
L 29.999465 44.97416 
L 30.040438 44.692051 
L 29.602341 44.246144 
L 29.95534 43.937094 
L 30.339856 44.333968 
L 30.721221 44.570432 
L 31.140407 44.69374 
L 31.975627 44.793404 
L 32.15843 44.842393 
L 32.325474 44.842393 
L 32.58392 44.737659 
L 32.728902 44.551852 
L 32.769875 44.318767 
L 32.880187 44.107658 
L 33.22373 44.004643 
L 33.784746 43.92865 
L 36.098149 44.239388 
L 36.678075 44.247833 
L 38.837041 43.891499 
L 39.013541 43.619638 
L 38.985175 42.883561 
L 38.874862 42.421087 
L 38.660542 41.882763 
L 38.364626 41.38586 
L 38.361123 41.379978 
L 38.008124 41.024038 
L 37.510144 40.853677 
L 36.504728 40.762597 
L 36.195854 40.499496 
L 36.334532 40.49275 
L 36.504728 40.197637 
L 36.70329 39.708667 
L 36.709593 39.420386 
L 36.674924 39.174278 
L 36.589826 38.950103 
L 36.441692 38.732689 
L 36.293559 38.639999 
L 35.811337 38.452943 
L 35.597017 38.289491 
L 35.436276 38.04349 
L 34.859501 36.273314 
L 34.780707 35.734587 
L 34.90993 35.246463 
L 35.820793 33.992914 
L 35.962622 32.586978 
L 35.94056 31.141486 
L 36.353443 29.767348 
L 36.715897 29.006683 
L 36.819905 28.368773 
L 36.845119 27.741092 
L 36.977494 27.021296 
L 37.355707 26.383885 
L 37.853687 25.808676 
L 38.197231 25.181629 
L 38.093222 24.388821 
L 38.376882 24.373738 
L 38.663694 24.407255 
L 38.69402 24.416259 
L 44.308522 26.083687 
L 46.234257 26.189339 
L 46.817335 26.306736 
L 47.425627 26.511355 
L 47.99925 26.798184 
L 48.468865 27.173963 
L 49.398638 27.912263 
L 49.638173 28.330168 
L 49.669691 29.006683 
L 49.404942 30.049507 
L 49.518406 30.422407 
L 50.092029 30.862567 
L 50.694018 31.148208 
L 50.977678 31.077635 
L 51.214061 30.771841 
L 51.686827 30.360253 
L 52.26045 30.138527 
L 52.764734 30.173801 
L 53.265866 30.30482 
L 53.836337 30.368652 
L 55.774679 29.938655 
L 56.452311 29.891628 
L 61.410052 30.676078 
L 62.680218 30.684478 
L 67.171497 28.204286 
L 69.021588 27.502816 
L 74.073883 26.580124 
L 78.962286 24.662001 
L 79.813265 24.464236 
L 80.364072 24.164528 
L 83.321191 22.556092 
L 85.366693 21.87879 
L 86.40993 21.785873 
L 88.411307 22.002683 
L 94.207421 23.492393 
L 95.713969 24.206158 
L 98.941386 27.116015 
L 99.823884 27.912263 
L 101.680279 28.743106 
L 103.826638 28.979821 
L 108.784379 28.776681 
L 109.455708 28.605453 
L 111.047354 28.508093 
L 115.734043 29.861397 
L 117.372966 29.804296 
L 123.536318 28.793927 
L 133.402893 27.177319 
L 139.945977 25.074342 
L 142.977984 23.520873 
L 144.074802 23.200913 
L 145.218896 23.018337 
L 146.359839 22.562791 
L 148.533343 21.319718 
L 152.568835 19.013366 
L 153.183431 18.6898 
L 153.832697 18.476621 
L 154.497721 18.362932 
L 155.194264 18.329496 
L 156.593652 17.982616 
L 160.672048 16.062691 
L 162.181748 15.570833 
L 167.899068 14.852845 
L 175.176516 16.095262 
L 176.538083 16.568011 
L 177.196803 16.718374 
L 185.687685 16.375894 
L 198.39179 13.83258 
L 201.834227 13.143866 
L 203.167428 12.46494 
L 205.465072 10.637602 
L 206.996834 8.928197 
L 207.438083 8.705029 
L 207.992795 8.328686 
L 208.33949 8.681714 
L 208.377312 9.054779 
L 208.326883 9.37626 
L 208.358401 9.513693 
L 208.774435 9.572833 
L 209.701057 9.952698 
L 209.874405 9.881052 
L 210.066663 9.70278 
L 210.268377 9.564504 
L 210.457483 9.612816 
L 210.589858 9.786084 
L 210.744295 10.100994 
L 210.876669 10.274296 
L 211.916755 10.980958 
L 212.124772 11.073473 
L 212.323334 11.484412 
L 211.778077 13.287348 
L 212.124772 13.698654 
L 212.364307 13.893068 
L 212.424191 14.349542 
L 212.446253 15.263576 
L 212.641663 15.645983 
L 212.871743 15.975836 
L 213.04509 16.337472 
L 213.054545 16.806925 
L 213.042964 16.814503 
L 212.099558 17.431886 
L 210.148609 19.010022 
L 210.148609 19.013366 
L 210.139154 19.015039 
L 206.993683 21.885486 
L 200.89815 27.454156 
L 196.788236 31.215422 
L 195.981381 31.805302 
L 195.146161 32.14484 
L 185.687685 33.875163 
L 183.70837 34.159458 
L 182.810114 34.517816 
L 182.19867 35.241413 
L 182.19867 35.244779 
L 182.195518 35.246463 
L 182.195518 35.249829 
L 179.503903 39.784535 
L 179.254912 40.659714 
L 178.271559 48.862604 
L 178.27471 49.40914 
L 178.394478 49.976101 
L 179.176118 51.572712 
L 179.17927 51.571018 
L 179.17927 51.574406 
L 181.536797 56.054482 
L 181.867734 57.108224 
L 182.012715 58.186155 
L 182.141938 62.708031 
L 181.974894 63.738886 
L 181.492673 64.734396 
L 180.463393 66.099846 
L 179.024833 68.009414 
L 179.024833 68.014526 
L 179.021681 68.014526 
L 179.018529 68.014526 
L 178.738021 69.006505 
L 178.47012 72.226976 
L 177.196803 76.309222 
L 176.897385 78.323558 
L 176.921916 79.09291 
L 177.095947 84.557177 
L 177.354392 90.359869 
L 177.285053 91.231059 
L 177.023456 92.050948 
L 171.788358 101.185595 
L 171.788358 101.190769 
L 170.69154 103.382831 
L 169.99815 104.273596 
L 169.106198 104.801109 
L 161.617581 106.625277 
L 157.145212 109.08439 
L 153.772813 110.94071 
L 150.400414 112.795631 
L 147.028015 114.651746 
L 145.840665 115.306139 
L 143.655616 116.510787 
L 140.283217 118.370153 
L 136.91397 120.229841 
L 133.538419 122.090716 
L 130.169172 123.954515 
L 126.796772 125.81602 
L 123.424373 127.681315 
L 120.051974 129.54692 
L 116.679575 131.414575 
L 113.307176 133.283408 
L 109.934777 135.155161 
L 106.562378 137.025471 
L 103.189979 138.8987 
L 95.720273 143.210256 
L 89.19968 147.041024 
L 86.611644 148.562807 
L 81.300903 151.683423 
L 77.417917 154.027517 
L 72.192274 157.182717 
L 66.966631 160.336756 
L 64.158894 162.032201 
L 61.737837 163.494896 
L 56.518498 166.65713 
L 53.142947 168.698556 
L 53.136643 168.70032 
L 48.468865 171.586161 
L 43.567855 174.774254 
L 43.177035 174.90241 
L 42.748394 174.885617 
L 40.800597 174.397769 
L 40.138724 174.379211 
L 39.609226 174.676151 
L 38.509257 173.882606 
L 34.336894 173.398588 
L 33.22373 173.269468 
L 32.728902 172.97531 
L 31.011184 172.810134 
L 30.409195 172.636135 
L 29.958491 172.393259 
L 27.279483 169.984059 
L 25.312775 168.698556 
L 24.319966 167.753073 
L 23.98903 167.581118 
L 23.831441 167.628735 
L 23.484746 167.92592 
L 23.333461 167.994709 
L 23.150658 167.96296 
L 22.83548 167.84655 
L 22.643222 167.827149 
L 21.514887 167.971779 
L 21.078204 167.958362 
L 20.711184 167.947086 
L 20.600872 167.922392 
L 20.594569 167.776001 
L 20.424373 167.378311 
L 19.050199 165.402954 
L 18.763387 164.831999 
L 18.741325 164.191562 
L 18.832726 163.611143 
L 18.690897 163.223669 
L 17.978595 163.171716 
L 17.537347 163.248325 
L 17.219018 163.143539 
L 16.951117 162.904921 
L 16.673761 162.579162 
L 16.787225 162.595009 
L 16.88493 162.455911 
L 16.925903 162.234951 
L 16.878626 162.007846 
L 16.76201 161.948871 
L 16.368039 161.953272 
L 16.216753 161.905742 
L 15.690407 161.401432 
L 15.400444 161.241268 
L 12.122598 160.521509 
L 11.84209 160.185444 
L 11.845242 160.177526 
L 11.716019 160.0834 
L 11.55843 160.05701 
L 11.378779 160.093956 
z
" clip-path="url(#p25fc2ea776)" style="stroke: #000000; stroke-linejoin: miter"/>
   </g>
   <g id="line2d_1">
    <path d="M 11.188121 160.183219 
L 11.999679 159.039403 
L 13.525138 157.338277 
L 13.758369 156.46654 
L 13.641753 156.043063 
L 13.997904 155.030294 
L 14.521098 154.182039 
L 14.738571 154.12936 
L 15.167212 153.361229 
L 14.281564 151.82379 
L 13.878136 148.592604 
L 13.97269 148.143053 
L 12.831747 147.694444 
L 12.831747 147.190714 
L 13.499923 146.025886 
L 13.402218 145.047952 
L 12.715132 144.650565 
L 12.592212 143.067663 
L 11.523761 142.247226 
L 12.544936 140.900724 
L 11.378779 140.159531 
L 12.046955 139.872892 
L 12.283338 139.634339 
L 12.784471 139.292707 
L 12.998791 138.103854 
L 13.165835 137.895132 
L 13.124862 137.714369 
L 15.179819 136.575896 
L 16.125352 135.8349 
L 16.610725 134.757337 
L 16.197843 134.071738 
L 16.544538 133.624352 
L 17.263143 133.408969 
L 17.978595 133.417688 
L 19.185725 132.78732 
L 19.65534 132.275626 
L 19.753045 131.649858 
L 19.485144 131.269058 
L 18.41354 130.660054 
L 17.978595 130.548548 
L 17.266294 130.180084 
L 16.591815 130.063369 
L 16.188387 129.830825 
L 16.427922 128.995735 
L 16.970027 128.725839 
L 17.051974 128.401997 
L 17.007849 127.509004 
L 17.234777 127.208789 
L 17.792641 126.736339 
L 17.978595 126.352693 
L 18.397781 125.775142 
L 19.406349 124.981196 
L 20.118651 123.899757 
L 21.703993 123.367008 
L 22.797659 122.750078 
L 22.999373 122.857814 
L 23.632879 123.450433 
L 24.269538 123.436529 
L 25.650015 122.685786 
L 26.179513 122.779619 
L 27.745946 123.487802 
L 28.896343 123.739835 
L 29.482574 123.652925 
L 29.851331 123.207984 
L 29.791447 122.517243 
L 29.265101 122.219276 
L 28.067427 122.03165 
L 26.976913 121.18401 
L 26.727922 120.741182 
L 27.799526 118.927154 
L 28.278596 118.385769 
L 29.492029 117.410835 
L 30.5069 116.230771 
L 31.149862 115.931713 
L 31.499709 115.959451 
L 32.155279 116.183093 
L 32.574465 116.164022 
L 33.072445 115.936047 
L 33.239489 115.625752 
L 33.475872 114.75745 
L 34.071558 114.068712 
L 35.436276 113.002577 
L 36.142274 111.921254 
L 36.986018 111.022353 
L 36.823057 110.695842 
L 36.085542 110.0297 
L 35.741998 108.918366 
L 36.328228 107.682134 
L 36.17064 107.421988 
L 35.530829 107.307912 
L 35.206197 106.985584 
L 34.39619 105.884932 
L 34.339458 105.342537 
L 34.629422 104.780387 
L 34.761796 103.861842 
L 34.594752 103.569247 
L 34.109379 103.252519 
L 33.885603 103.323284 
L 33.664979 103.191249 
L 33.22373 102.694233 
L 32.706839 102.490619 
L 32.297108 102.18005 
L 31.994538 101.748761 
L 31.799128 101.185595 
L 31.379942 101.051936 
L 29.652769 101.028654 
L 28.726148 101.190769 
L 28.335327 100.525118 
L 28.845915 100.033741 
L 29.681135 99.625186 
L 30.276821 99.20118 
L 30.415499 98.677292 
L 30.440713 97.786561 
L 30.891417 97.533348 
L 31.342121 97.650478 
L 31.666753 97.888197 
L 31.884226 97.73316 
L 32.003993 96.682583 
L 31.266478 96.897833 
L 30.510052 96.91161 
L 29.788296 96.687749 
L 29.1737 96.190152 
L 28.455095 95.012799 
L 28.001239 94.74435 
L 27.367733 95.143592 
L 27.266876 95.398311 
L 27.140805 96.357156 
L 26.860297 96.629203 
L 26.557726 96.753183 
L 24.531135 96.787623 
L 24.017396 96.484567 
L 23.831441 96.525891 
L 23.333461 96.763515 
L 21.240682 96.627481 
L 19.737286 96.713578 
L 19.075413 96.539666 
L 18.318987 96.054146 
L 17.662553 95.999951 
L 17.533512 95.380584 
L 16.977609 94.34538 
L 16.779072 93.456819 
L 16.41426 92.671435 
L 16.324919 91.104035 
L 15.669746 89.945969 
L 15.503472 89.248115 
L 14.520714 86.874558 
L 14.70436 86.785387 
L 14.724214 86.628668 
L 14.962458 86.18558 
L 14.907861 85.955958 
L 14.724214 85.742562 
L 14.724214 85.515678 
L 14.888007 85.349578 
L 14.818519 85.299615 
L 14.724214 85.061966 
L 15.146105 84.35319 
L 15.389313 84.134518 
L 15.548143 83.632449 
L 15.270191 82.702783 
L 15.160995 82.325069 
L 15.160995 80.739236 
L 15.354569 80.345617 
L 16.788999 78.375671 
L 17.434244 77.800584 
L 17.156292 76.911929 
L 15.997332 74.824727 
L 16.41426 73.715164 
L 16.265357 73.151814 
L 16.039522 71.012416 
L 16.10901 70.538268 
L 15.801277 70.272351 
L 14.329622 68.512322 
L 13.39898 68.03727 
L 13.269931 67.712566 
L 13.041613 67.527421 
L 12.078709 67.750133 
L 11.909952 67.836002 
L 11.582366 67.683049 
L 11.813165 66.465097 
L 11.627037 66.294789 
L 10.562382 65.789292 
L 10.753474 65.116336 
L 10.562382 65.116336 
L 10.145455 65.320082 
L 10.145455 65.116336 
L 10.755956 64.923329 
L 11.363975 64.582918 
L 11.825574 64.10722 
L 12.004257 63.520418 
L 11.934769 63.152058 
L 11.664263 62.700719 
L 11.60222 62.29498 
L 11.768494 62.053976 
L 12.483228 61.845124 
L 13.711675 59.674563 
L 13.70423 58.906859 
L 13.577663 58.277079 
L 12.843076 56.785458 
L 12.438557 56.316492 
L 13.910212 56.396651 
L 14.642317 56.247023 
L 14.952532 55.758117 
L 15.081581 55.125078 
L 15.875705 54.082394 
L 16.166325 54.168635 
L 17.978595 53.78383 
L 18.35996 54.163549 
L 18.347353 55.408191 
L 18.700352 55.676187 
L 19.173118 55.774573 
L 20.128106 55.800018 
L 21.029513 56.16815 
L 22.803963 57.298315 
L 23.387041 57.206662 
L 23.727433 56.237711 
L 23.913387 53.921133 
L 24.584715 52.968635 
L 25.564917 52.658554 
L 26.299281 52.839854 
L 26.784654 52.738189 
L 27.0431 51.576099 
L 27.648241 51.361016 
L 28.849067 51.770874 
L 29.498332 51.582874 
L 29.42269 50.651537 
L 29.573975 45.438778 
L 30.040438 44.692051 
L 29.602341 44.246144 
L 29.95534 43.937094 
L 30.721221 44.570432 
L 31.140407 44.69374 
L 32.325474 44.842393 
L 32.58392 44.737659 
L 32.769875 44.318767 
L 32.880187 44.107658 
L 33.784746 43.92865 
L 36.678075 44.247833 
L 38.837041 43.891499 
L 39.013541 43.619638 
L 38.874862 42.421087 
L 38.361123 41.379978 
L 38.008124 41.024038 
L 37.510144 40.853677 
L 36.504728 40.762597 
L 36.195854 40.499496 
L 36.334532 40.49275 
L 36.70329 39.708667 
L 36.674924 39.174278 
L 36.441692 38.732689 
L 35.436276 38.04349 
L 34.780707 35.734587 
L 34.90993 35.246463 
L 35.820793 33.992914 
L 35.962622 32.586978 
L 35.94056 31.141486 
L 36.353443 29.767348 
L 36.715897 29.006683 
L 36.977494 27.021296 
L 37.355707 26.383885 
L 37.853687 25.808676 
L 38.197231 25.181629 
L 38.093222 24.388821 
L 38.69402 24.416259 
L 44.308522 26.083687 
L 46.817335 26.306736 
L 47.99925 26.798184 
L 49.398638 27.912263 
L 49.638173 28.330168 
L 49.669691 29.006683 
L 49.404942 30.049507 
L 49.518406 30.422407 
L 50.092029 30.862567 
L 50.694018 31.148208 
L 50.977678 31.077635 
L 51.214061 30.771841 
L 51.686827 30.360253 
L 52.26045 30.138527 
L 53.265866 30.30482 
L 53.836337 30.368652 
L 56.452311 29.891628 
L 61.410052 30.676078 
L 62.680218 30.684478 
L 67.171497 28.204286 
L 69.021588 27.502816 
L 74.073883 26.580124 
L 78.962286 24.662001 
L 79.813265 24.464236 
L 83.321191 22.556092 
L 85.366693 21.87879 
L 86.40993 21.785873 
L 88.411307 22.002683 
L 94.207421 23.492393 
L 95.713969 24.206158 
L 99.823884 27.912263 
L 101.680279 28.743106 
L 103.826638 28.979821 
L 108.784379 28.776681 
L 109.455708 28.605453 
L 111.047354 28.508093 
L 115.734043 29.861397 
L 117.372966 29.804296 
L 133.402893 27.177319 
L 139.945977 25.074342 
L 142.977984 23.520873 
L 144.074802 23.200913 
L 145.218896 23.018337 
L 146.359839 22.562791 
L 153.183431 18.6898 
L 154.497721 18.362932 
L 155.194264 18.329496 
L 156.593652 17.982616 
L 160.672048 16.062691 
L 162.181748 15.570833 
L 167.899068 14.852845 
L 175.176516 16.095262 
L 177.196803 16.718374 
L 185.687685 16.375894 
L 201.834227 13.143866 
L 203.167428 12.46494 
L 205.465072 10.637602 
L 206.996834 8.928197 
L 207.992795 8.328686 
L 208.33949 8.681714 
L 208.358401 9.513693 
L 208.774435 9.572833 
L 209.701057 9.952698 
L 210.066663 9.70278 
L 210.268377 9.564504 
L 210.457483 9.612816 
L 210.876669 10.274296 
L 212.124772 11.073473 
L 212.323334 11.484412 
L 211.778077 13.287348 
L 212.364307 13.893068 
L 212.641663 15.645983 
L 213.04509 16.337472 
L 213.042964 16.814503 
L 212.099558 17.431886 
L 210.139154 19.015039 
L 195.981381 31.805302 
L 195.146161 32.14484 
L 183.70837 34.159458 
L 182.810114 34.517816 
L 182.195518 35.249829 
L 179.503903 39.784535 
L 179.254912 40.659714 
L 178.27471 49.40914 
L 178.394478 49.976101 
L 179.17927 51.574406 
L 181.536797 56.054482 
L 181.867734 57.108224 
L 182.012715 58.186155 
L 182.141938 62.708031 
L 181.974894 63.738886 
L 181.492673 64.734396 
L 179.018529 68.014526 
L 178.738021 69.006505 
L 178.47012 72.226976 
L 177.196803 76.309222 
L 176.897385 78.323558 
L 177.285053 91.231059 
L 177.023456 92.050948 
L 171.788358 101.190769 
L 170.69154 103.382831 
L 169.99815 104.273596 
L 169.106198 104.801109 
L 161.617581 106.625277 
L 109.934777 135.155161 
L 103.189979 138.8987 
L 86.611644 148.562807 
L 77.417917 154.027517 
L 48.468865 171.586161 
L 43.177035 174.90241 
L 42.748394 174.885617 
L 40.800597 174.397769 
L 40.138724 174.379211 
L 39.609226 174.676151 
L 38.509257 173.882606 
L 33.22373 173.269468 
L 32.728902 172.97531 
L 31.011184 172.810134 
L 29.958491 172.393259 
L 27.279483 169.984059 
L 25.312775 168.698556 
L 23.98903 167.581118 
L 23.831441 167.628735 
L 23.333461 167.994709 
L 22.643222 167.827149 
L 21.078204 167.958362 
L 20.600872 167.922392 
L 20.594569 167.776001 
L 20.424373 167.378311 
L 18.763387 164.831999 
L 18.741325 164.191562 
L 18.832726 163.611143 
L 18.690897 163.223669 
L 17.219018 163.143539 
L 16.673761 162.579162 
L 16.787225 162.595009 
L 16.925903 162.234951 
L 16.76201 161.948871 
L 16.216753 161.905742 
L 15.400444 161.241268 
L 12.122598 160.521509 
L 11.716019 160.0834 
L 11.378779 160.093956 
L 11.188121 160.183219 
L 11.188121 160.183219 
" clip-path="url(#p25fc2ea776)" style="fill: none; stroke: #000000; stroke-width: 0.5; stroke-linecap: square"/>
   </g>
  </g>
 </g>
 <defs>
  <clipPath id="p25fc2ea776">
   <rect x="0" y="0" width="223.2" height="183.231096"/>
  </clipPath>
 </defs>
</svg>
