<?xml version="1.0" encoding="utf-8" standalone="no"?>
<!DOCTYPE svg PUBLIC "-//W3C//DTD SVG 1.1//EN"
  "http://www.w3.org/Graphics/SVG/1.1/DTD/svg11.dtd">
<svg xmlns:xlink="http://www.w3.org/1999/xlink" width="105.451952pt" height="221.76pt" viewBox="0 0 105.451952 221.76" xmlns="http://www.w3.org/2000/svg" version="1.1">
 <metadata>
  <rdf:RDF xmlns:dc="http://purl.org/dc/elements/1.1/" xmlns:cc="http://creativecommons.org/ns#" xmlns:rdf="http://www.w3.org/1999/02/22-rdf-syntax-ns#">
   <cc:Work>
    <dc:type rdf:resource="http://purl.org/dc/dcmitype/StillImage"/>
    <dc:date>2026-04-26T19:22:17.017220</dc:date>
    <dc:format>image/svg+xml</dc:format>
    <dc:creator>
     <cc:Agent>
      <dc:title>Matplotlib v3.10.9, https://matplotlib.org/</dc:title>
     </cc:Agent>
    </dc:creator>
   </cc:Work>
  </rdf:RDF>
 </metadata>
 <defs>
  <style type="text/css">*{stroke-linejoin: round; stroke-linecap: butt}</style>
 </defs>
 <g id="figure_1">
  <g id="patch_1">
   <path d="M 0 221.76 
L 105.451952 221.76 
L 105.451952 0 
L 0 0 
z
" style="fill: #ffffff"/>
  </g>
  <g id="axes_1">
   <g id="patch_2">
    <path d="M 95.769138 29.950473 
L 92.281743 34.586606 
L 91.730471 35.566541 
L 91.295046 36.935784 
L 91.01142 38.504716 
L 90.911552 40.064363 
L 90.959489 41.578661 
L 91.574677 44.738036 
L 91.538724 45.546125 
L 91.275072 46.354302 
L 91.311025 48.007003 
L 91.950181 49.282261 
L 93.164577 50.105277 
L 94.594689 50.394076 
L 94.594689 50.759903 
L 93.98749 50.692513 
L 93.41225 50.757496 
L 92.928888 50.930789 
L 92.581347 51.202771 
L 93.072698 52.228205 
L 93.324366 53.557143 
L 93.168572 54.71293 
L 92.054044 55.408896 
L 91.970154 55.912246 
L 92.113964 56.524018 
L 92.429548 57.078027 
L 92.5414 57.651348 
L 92.070022 58.137982 
L 90.911552 58.877629 
L 89.597288 60.533061 
L 89.553346 61.178945 
L 89.63324 62.610689 
L 89.417525 63.160318 
L 89.177842 63.620784 
L 89.026042 64.283806 
L 88.930169 65.58832 
L 88.826306 65.923527 
L 88.638554 66.196043 
L 88.54268 66.478217 
L 88.738422 66.818286 
L 88.778369 66.866524 
L 88.902206 67.020888 
L 89.069984 67.3248 
L 89.20181 67.628725 
L 89.237762 67.848233 
L 88.978105 68.340341 
L 87.89154 69.508016 
L 86.721086 71.291234 
L 85.858225 72.051458 
L 85.582589 72.456942 
L 85.714415 72.891413 
L 85.558621 73.200385 
L 84.312267 74.238427 
L 83.844884 74.735771 
L 83.321575 75.976857 
L 82.786282 78.48861 
L 81.400112 80.730553 
L 81.124476 81.636694 
L 81.160428 82.608194 
L 81.495985 83.688586 
L 81.779611 84.145441 
L 82.023289 84.363001 
L 82.179083 84.645837 
L 82.191068 85.313081 
L 81.987337 86.060172 
L 81.304239 87.242608 
L 81.160428 87.96328 
L 81.088523 89.288716 
L 80.489315 92.651683 
L 79.302881 96.185557 
L 77.804859 104.476995 
L 76.906046 106.510603 
L 74.844768 119.835159 
L 73.993892 125.339306 
L 73.574446 126.355043 
L 72.256186 128.318838 
L 71.764835 129.337378 
L 71.377347 130.621066 
L 71.105706 133.001773 
L 71.129674 135.122864 
L 70.945917 137.142304 
L 70.039114 139.225524 
L 69.651626 139.670953 
L 68.756807 140.401218 
L 68.36133 140.861319 
L 68.165588 141.336052 
L 67.853999 142.551008 
L 66.959181 144.318979 
L 66.407909 147.056914 
L 66.012431 148.292205 
L 64.094963 151.399519 
L 63.85528 151.969929 
L 61.262703 154.442156 
L 60.647516 155.242008 
L 60.559632 155.795609 
L 60.679473 157.112693 
L 60.647516 157.70057 
L 60.415822 158.371434 
L 60.016349 159.110667 
L 59.12952 160.379469 
L 58.250681 161.321434 
L 55.246647 163.581607 
L 53.225317 166.081685 
L 52.733965 166.374712 
L 52.338488 166.953469 
L 51.363775 169.781892 
L 50.876418 170.844627 
L 49.374402 172.963165 
L 48.767203 174.224277 
L 48.415668 176.817965 
L 47.520849 180.356531 
L 45.739202 183.891669 
L 45.483539 185.095662 
L 45.171951 188.505444 
L 45.219888 191.607976 
L 45.379677 202.562662 
L 45.088062 204.119984 
L 44.612689 205.38812 
L 43.985518 205.913088 
L 43.242499 206.695694 
L 43.266467 208.477056 
L 43.530119 210.420772 
L 43.470198 211.68 
L 42.623316 210.231781 
L 41.360983 209.137184 
L 39.890924 208.381353 
L 38.412876 207.96911 
L 38.352955 209.375235 
L 37.921525 209.878354 
L 37.286364 209.696737 
L 36.599271 209.036566 
L 36.559324 208.538404 
L 36.795013 207.048993 
L 35.764373 205.091306 
L 35.680484 204.568839 
L 35.692468 204.142059 
L 35.764373 203.443067 
L 35.764373 201.162535 
L 35.872231 200.493202 
L 36.32763 199.743022 
L 36.431493 199.103213 
L 32.716398 188.155346 
L 32.408804 187.55801 
L 31.374171 186.104014 
L 30.559247 184.018913 
L 30.183743 183.416971 
L 28.665747 182.059087 
L 28.058549 181.662772 
L 27.854818 181.586936 
L 27.651087 181.425481 
L 27.471324 180.637821 
L 27.351483 180.356531 
L 26.532564 179.754847 
L 24.663033 178.742352 
L 23.816151 178.082094 
L 22.921333 177.194495 
L 22.505881 176.896204 
L 21.958604 176.627262 
L 21.659 176.646821 
L 21.315453 176.791071 
L 20.915981 176.803296 
L 18.479198 174.649578 
L 16.218184 171.025427 
L 18.59904 174.275605 
L 18.319409 172.728561 
L 17.923932 171.880616 
L 17.608348 171.206231 
L 16.617657 169.930911 
L 14.931883 168.172164 
L 14.284737 167.275832 
L 13.981138 166.281919 
L 14.384605 165.312539 
L 14.596326 164.44825 
L 14.3127 163.232534 
L 13.81336 162.03408 
L 12.898568 160.423392 
L 12.035707 158.281169 
L 11.84396 157.329788 
L 11.863934 156.715107 
L 12.143565 155.956575 
L 12.20748 155.451738 
L 12.103617 155.18348 
L 11.863934 154.983511 
L 11.616261 154.710391 
L 11.508403 154.222698 
L 10.9811 153.19376 
L 10.837289 152.789047 
L 10.441812 149.92736 
L 10.262049 148.611413 
L 9.922497 147.851183 
L 9.195458 147.027679 
L 10.082286 146.318752 
L 10.577632 145.04722 
L 10.377896 143.948794 
L 9.195458 143.758837 
L 8.967758 144.148497 
L 8.772017 144.857238 
L 8.440454 145.41989 
L 7.821272 145.390661 
L 7.577594 144.923001 
L 7.669473 143.454428 
L 7.517673 142.940611 
L 6.758675 142.570488 
L 6.33124 143.001488 
L 5.983699 143.607849 
L 5.472374 143.758837 
L 4.929091 143.232825 
L 4.793271 142.507179 
L 4.917107 141.791335 
L 5.136817 141.306837 
L 5.684094 140.987912 
L 6.379176 140.883229 
L 6.954417 140.676302 
L 7.150158 140.04338 
L 6.882512 139.714767 
L 5.136817 139.225524 
L 5.136817 138.816626 
L 6.598886 138.802023 
L 6.455076 138.251991 
L 5.660126 137.482981 
L 5.136817 136.811374 
L 5.264648 135.974374 
L 5.732031 135.677552 
L 6.239361 135.487786 
L 6.487034 134.957438 
L 6.335234 134.137656 
L 6.079572 133.466323 
L 6.253096 132.849718 
L 6.512512 132.073006 
L 6.937302 131.523001 
L 6.846559 131.044144 
L 6.934443 130.574869 
L 7.56561 128.702902 
L 7.861219 128.343145 
L 8.340586 128.207025 
L 7.643963 127.68677 
L 7.940139 126.838683 
L 8.659389 126.784172 
L 9.267363 126.481412 
L 9.531014 126.57862 
L 9.37522 125.917629 
L 8.961853 126.251193 
L 8.615442 126.155592 
L 8.156829 126.131473 
L 8.14884 125.44379 
L 8.608802 124.267086 
L 9.296765 124.213699 
L 10.298787 124.222232 
L 9.614904 122.047541 
L 8.835932 120.369378 
L 9.195458 119.611769 
L 9.195458 119.203855 
L 8.628207 118.893077 
L 8.704106 118.536183 
L 9.027679 118.101619 
L 9.195458 117.574833 
L 9.953518 116.47804 
L 8.35748 116.589247 
L 8.319795 114.775512 
L 9.175267 113.706516 
L 9.134937 110.289512 
L 9.269508 107.740454 
L 9.790858 105.704318 
L 10.604481 104.114572 
L 10.837289 102.034444 
L 11.272715 100.215134 
L 11.508403 99.595066 
L 12.658884 97.907078 
L 12.850631 97.342882 
L 12.994441 97.028111 
L 14.037064 96.141979 
L 14.332674 95.512547 
L 14.636273 94.04568 
L 14.859978 93.430936 
L 16.182232 92.027369 
L 16.565725 91.436978 
L 17.06906 89.835403 
L 17.836048 88.234154 
L 18.914623 84.906926 
L 19.417959 83.939974 
L 19.981215 83.318771 
L 20.444603 82.973142 
L 20.852065 82.755621 
L 21.14368 82.455936 
L 21.259527 81.846933 
L 21.479237 81.276641 
L 22.437971 80.445442 
L 22.657681 79.81727 
L 22.769533 77.737414 
L 22.937312 77.165008 
L 23.440647 76.636113 
L 25.557851 73.905273 
L 25.673698 73.753185 
L 25.813514 73.074863 
L 26.428701 72.507629 
L 26.844153 71.189876 
L 27.351483 68.65878 
L 29.089188 65.339939 
L 29.616492 63.304964 
L 30.239669 62.176799 
L 32.720393 59.152305 
L 34.074605 57.501991 
L 34.422146 56.673355 
L 34.58593 55.322197 
L 34.997386 54.178357 
L 36.09993 52.042846 
L 36.399535 50.764717 
L 36.687155 50.215982 
L 37.949488 49.806863 
L 38.305019 49.373703 
L 38.516739 48.834693 
L 38.772401 48.334219 
L 39.555368 47.439222 
L 40.414233 46.743989 
L 41.456857 46.443303 
L 42.799084 46.722339 
L 42.619322 45.601444 
L 43.126652 44.846257 
L 43.821734 44.076717 
L 44.16528 42.905725 
L 44.321075 42.530661 
L 44.992188 42.162829 
L 45.267824 41.059438 
L 46.306453 38.740204 
L 46.713915 38.132275 
L 46.849735 37.812712 
L 46.841746 37.466733 
L 46.71791 37.091942 
L 46.514179 36.63549 
L 46.793809 36.030134 
L 47.117382 35.655414 
L 47.129366 35.638601 
L 47.408997 35.184639 
L 47.520849 34.401682 
L 47.676644 33.808514 
L 48.064132 33.224998 
L 48.559478 32.78559 
L 49.030855 32.610315 
L 48.990908 32.360614 
L 49.114745 31.762807 
L 49.534191 30.521731 
L 49.917684 29.852068 
L 51.57949 26.967687 
L 52.877775 25.283652 
L 54.220003 24.046058 
L 57.659461 22.815865 
L 58.462401 22.269178 
L 59.153488 21.607454 
L 59.992381 21.111199 
L 61.662176 20.45677 
L 65.417217 19.71851 
L 67.518443 19.306266 
L 68.405272 18.927598 
L 69.555752 17.887559 
L 69.899299 17.700656 
L 70.32274 17.619186 
L 70.88999 17.609602 
L 71.545125 17.846824 
L 71.896661 18.3812 
L 72.124361 18.939581 
L 72.415975 19.253539 
L 73.063121 18.96834 
L 72.388012 17.815673 
L 71.305442 16.624853 
L 70.734196 16.236741 
L 70.89798 15.688147 
L 71.237532 15.381528 
L 71.593062 15.199478 
L 71.740867 15.012643 
L 72.128355 13.968369 
L 72.723569 12.785358 
L 73.94995 11.580991 
L 75.743581 10.589871 
L 77.800865 10.08 
L 79.818201 10.338522 
L 80.657093 11.020776 
L 82.526624 13.882151 
L 83.197738 15.3959 
L 83.417448 15.295293 
L 83.920783 15.144385 
L 84.496024 15.072526 
L 84.903486 15.194688 
L 84.879517 15.374341 
L 84.683776 15.635446 
L 84.496024 15.994779 
L 84.512003 16.437982 
L 84.711739 16.694332 
L 85.402826 17.221437 
L 85.546637 17.427497 
L 85.858225 17.762956 
L 86.577276 18.050505 
L 95.133977 20.308153 
L 95.73718 20.725247 
L 95.433581 21.468403 
L 95.349692 22.062982 
L 95.481518 23.117998 
L 95.936916 24.88309 
L 96.428267 25.708223 
L 96.823745 25.904925 
L 98.13002 25.689033 
L 98.801134 25.765794 
L 99.588095 25.996082 
L 100.283177 26.377512 
L 100.658681 26.895712 
L 96.799777 28.976077 
z
" clip-path="url(#pcc1c3dd1ff)" style="stroke: #000000; stroke-linejoin: miter"/>
   </g>
   <g id="line2d_1">
    <path d="M 95.769138 29.950473 
L 92.281743 34.586606 
L 91.730471 35.566541 
L 91.295046 36.935784 
L 91.01142 38.504716 
L 90.911552 40.064363 
L 90.959489 41.578661 
L 91.574677 44.738036 
L 91.538724 45.546125 
L 91.275072 46.354302 
L 91.311025 48.007003 
L 91.950181 49.282261 
L 93.164577 50.105277 
L 94.594689 50.394076 
L 94.594689 50.759903 
L 93.98749 50.692513 
L 93.41225 50.757496 
L 92.928888 50.930789 
L 92.581347 51.202771 
L 93.072698 52.228205 
L 93.324366 53.557143 
L 93.168572 54.71293 
L 92.054044 55.408896 
L 91.970154 55.912246 
L 92.113964 56.524018 
L 92.429548 57.078027 
L 92.5414 57.651348 
L 92.070022 58.137982 
L 90.911552 58.877629 
L 89.597288 60.533061 
L 89.553346 61.178945 
L 89.63324 62.610689 
L 89.026042 64.283806 
L 88.826306 65.923527 
L 88.54268 66.478217 
L 89.237762 67.848233 
L 88.978105 68.340341 
L 87.89154 69.508016 
L 86.721086 71.291234 
L 85.858225 72.051458 
L 85.582589 72.456942 
L 85.714415 72.891413 
L 85.558621 73.200385 
L 83.844884 74.735771 
L 83.321575 75.976857 
L 82.786282 78.48861 
L 81.400112 80.730553 
L 81.124476 81.636694 
L 81.160428 82.608194 
L 81.495985 83.688586 
L 82.179083 84.645837 
L 82.191068 85.313081 
L 81.987337 86.060172 
L 81.304239 87.242608 
L 81.160428 87.96328 
L 81.088523 89.288716 
L 80.489315 92.651683 
L 79.302881 96.185557 
L 77.804859 104.476995 
L 76.906046 106.510603 
L 73.993892 125.339306 
L 73.574446 126.355043 
L 72.256186 128.318838 
L 71.764835 129.337378 
L 71.377347 130.621066 
L 71.105706 133.001773 
L 71.129674 135.122864 
L 70.945917 137.142304 
L 70.039114 139.225524 
L 69.651626 139.670953 
L 68.36133 140.861319 
L 68.165588 141.336052 
L 67.853999 142.551008 
L 66.959181 144.318979 
L 66.407909 147.056914 
L 66.012431 148.292205 
L 63.85528 151.969929 
L 61.262703 154.442156 
L 60.647516 155.242008 
L 60.559632 155.795609 
L 60.647516 157.70057 
L 60.415822 158.371434 
L 60.016349 159.110667 
L 59.12952 160.379469 
L 58.250681 161.321434 
L 55.246647 163.581607 
L 53.225317 166.081685 
L 52.733965 166.374712 
L 52.338488 166.953469 
L 51.363775 169.781892 
L 50.876418 170.844627 
L 49.374402 172.963165 
L 48.767203 174.224277 
L 48.415668 176.817965 
L 47.520849 180.356531 
L 45.739202 183.891669 
L 45.483539 185.095662 
L 45.171951 188.505444 
L 45.379677 202.562662 
L 45.088062 204.119984 
L 44.612689 205.38812 
L 43.985518 205.913088 
L 43.242499 206.695694 
L 43.266467 208.477056 
L 43.530119 210.420772 
L 43.470198 211.68 
L 42.623316 210.231781 
L 41.360983 209.137184 
L 39.890924 208.381353 
L 38.412876 207.96911 
L 38.352955 209.375235 
L 37.921525 209.878354 
L 37.286364 209.696737 
L 36.599271 209.036566 
L 36.559324 208.538404 
L 36.795013 207.048993 
L 35.764373 205.091306 
L 35.692468 204.142059 
L 35.764373 203.443067 
L 35.872231 200.493202 
L 36.32763 199.743022 
L 36.431493 199.103213 
L 32.408804 187.55801 
L 31.374171 186.104014 
L 30.559247 184.018913 
L 30.183743 183.416971 
L 28.058549 181.662772 
L 27.651087 181.425481 
L 27.351483 180.356531 
L 26.532564 179.754847 
L 24.663033 178.742352 
L 23.816151 178.082094 
L 22.505881 176.896204 
L 21.958604 176.627262 
L 21.659 176.646821 
L 21.315453 176.791071 
L 20.915981 176.803296 
L 18.479198 174.649578 
L 16.218184 171.025427 
L 18.59904 174.275605 
L 18.319409 172.728561 
L 17.608348 171.206231 
L 16.617657 169.930911 
L 14.931883 168.172164 
L 14.284737 167.275832 
L 13.981138 166.281919 
L 14.384605 165.312539 
L 14.596326 164.44825 
L 14.3127 163.232534 
L 13.81336 162.03408 
L 12.898568 160.423392 
L 12.035707 158.281169 
L 11.84396 157.329788 
L 11.863934 156.715107 
L 12.143565 155.956575 
L 12.20748 155.451738 
L 12.103617 155.18348 
L 11.616261 154.710391 
L 11.508403 154.222698 
L 10.837289 152.789047 
L 10.262049 148.611413 
L 9.922497 147.851183 
L 9.195458 147.027679 
L 10.082286 146.318752 
L 10.577632 145.04722 
L 10.377896 143.948794 
L 9.195458 143.758837 
L 8.967758 144.148497 
L 8.772017 144.857238 
L 8.440454 145.41989 
L 7.821272 145.390661 
L 7.577594 144.923001 
L 7.669473 143.454428 
L 7.517673 142.940611 
L 6.758675 142.570488 
L 6.33124 143.001488 
L 5.983699 143.607849 
L 5.472374 143.758837 
L 4.929091 143.232825 
L 4.793271 142.507179 
L 4.917107 141.791335 
L 5.136817 141.306837 
L 5.684094 140.987912 
L 6.379176 140.883229 
L 6.954417 140.676302 
L 7.150158 140.04338 
L 6.882512 139.714767 
L 5.136817 139.225524 
L 5.136817 138.816626 
L 6.598886 138.802023 
L 6.455076 138.251991 
L 5.660126 137.482981 
L 5.136817 136.811374 
L 5.264648 135.974374 
L 5.732031 135.677552 
L 6.239361 135.487786 
L 6.487034 134.957438 
L 6.335234 134.137656 
L 6.079572 133.466323 
L 6.512512 132.073006 
L 6.937302 131.523001 
L 6.846559 131.044144 
L 6.934443 130.574869 
L 7.56561 128.702902 
L 7.861219 128.343145 
L 8.340586 128.207025 
L 7.643963 127.68677 
L 7.940139 126.838683 
L 8.659389 126.784172 
L 9.267363 126.481412 
L 9.531014 126.57862 
L 9.37522 125.917629 
L 8.961853 126.251193 
L 8.156829 126.131473 
L 8.14884 125.44379 
L 8.608802 124.267086 
L 10.298787 124.222232 
L 9.614904 122.047541 
L 8.835932 120.369378 
L 9.195458 119.611769 
L 9.195458 119.203855 
L 8.628207 118.893077 
L 8.704106 118.536183 
L 9.027679 118.101619 
L 9.195458 117.574833 
L 9.953518 116.47804 
L 8.35748 116.589247 
L 8.319795 114.775512 
L 9.175267 113.706516 
L 9.134937 110.289512 
L 9.269508 107.740454 
L 9.790858 105.704318 
L 10.604481 104.114572 
L 10.837289 102.034444 
L 11.508403 99.595066 
L 12.658884 97.907078 
L 12.994441 97.028111 
L 14.037064 96.141979 
L 14.332674 95.512547 
L 14.859978 93.430936 
L 16.182232 92.027369 
L 16.565725 91.436978 
L 17.06906 89.835403 
L 17.836048 88.234154 
L 18.914623 84.906926 
L 19.417959 83.939974 
L 19.981215 83.318771 
L 21.14368 82.455936 
L 21.479237 81.276641 
L 22.437971 80.445442 
L 22.657681 79.81727 
L 22.769533 77.737414 
L 22.937312 77.165008 
L 23.440647 76.636113 
L 25.673698 73.753185 
L 25.813514 73.074863 
L 26.428701 72.507629 
L 26.844153 71.189876 
L 27.351483 68.65878 
L 29.089188 65.339939 
L 29.616492 63.304964 
L 30.239669 62.176799 
L 34.074605 57.501991 
L 34.422146 56.673355 
L 34.58593 55.322197 
L 34.997386 54.178357 
L 36.09993 52.042846 
L 36.399535 50.764717 
L 36.687155 50.215982 
L 37.949488 49.806863 
L 38.305019 49.373703 
L 38.772401 48.334219 
L 39.555368 47.439222 
L 40.414233 46.743989 
L 41.456857 46.443303 
L 42.799084 46.722339 
L 42.619322 45.601444 
L 43.126652 44.846257 
L 43.821734 44.076717 
L 44.321075 42.530661 
L 44.992188 42.162829 
L 45.267824 41.059438 
L 46.306453 38.740204 
L 46.849735 37.812712 
L 46.841746 37.466733 
L 46.514179 36.63549 
L 46.793809 36.030134 
L 47.408997 35.184639 
L 47.676644 33.808514 
L 48.064132 33.224998 
L 48.559478 32.78559 
L 49.030855 32.610315 
L 48.990908 32.360614 
L 49.114745 31.762807 
L 49.534191 30.521731 
L 51.57949 26.967687 
L 52.877775 25.283652 
L 54.220003 24.046058 
L 57.659461 22.815865 
L 58.462401 22.269178 
L 59.153488 21.607454 
L 59.992381 21.111199 
L 61.662176 20.45677 
L 67.518443 19.306266 
L 68.405272 18.927598 
L 69.899299 17.700656 
L 70.88999 17.609602 
L 71.545125 17.846824 
L 71.896661 18.3812 
L 72.124361 18.939581 
L 72.415975 19.253539 
L 73.063121 18.96834 
L 72.388012 17.815673 
L 71.305442 16.624853 
L 70.734196 16.236741 
L 70.89798 15.688147 
L 71.740867 15.012643 
L 72.128355 13.968369 
L 72.723569 12.785358 
L 73.94995 11.580991 
L 75.743581 10.589871 
L 77.800865 10.08 
L 79.818201 10.338522 
L 80.657093 11.020776 
L 82.526624 13.882151 
L 83.197738 15.3959 
L 83.920783 15.144385 
L 84.496024 15.072526 
L 84.903486 15.194688 
L 84.879517 15.374341 
L 84.496024 15.994779 
L 84.512003 16.437982 
L 84.711739 16.694332 
L 85.546637 17.427497 
L 85.858225 17.762956 
L 86.577276 18.050505 
L 95.133977 20.308153 
L 95.73718 20.725247 
L 95.433581 21.468403 
L 95.349692 22.062982 
L 95.481518 23.117998 
L 95.936916 24.88309 
L 96.428267 25.708223 
L 96.823745 25.904925 
L 98.13002 25.689033 
L 98.801134 25.765794 
L 99.588095 25.996082 
L 100.283177 26.377512 
L 100.658681 26.895712 
L 96.799777 28.976077 
L 95.769138 29.950473 
L 95.769138 29.950473 
" clip-path="url(#pcc1c3dd1ff)" style="fill: none; stroke: #000000; stroke-width: 0.5; stroke-linecap: square"/>
   </g>
  </g>
 </g>
 <defs>
  <clipPath id="pcc1c3dd1ff">
   <rect x="0" y="-0" width="105.451952" height="221.76"/>
  </clipPath>
 </defs>
</svg>
