<?xml version="1.0" encoding="utf-8" standalone="no"?>
<!DOCTYPE svg PUBLIC "-//W3C//DTD SVG 1.1//EN"
  "http://www.w3.org/Graphics/SVG/1.1/DTD/svg11.dtd">
<svg xmlns:xlink="http://www.w3.org/1999/xlink" width="223.2pt" height="128.786685pt" viewBox="0 0 223.2 128.786685" xmlns="http://www.w3.org/2000/svg" version="1.1">
 <metadata>
  <rdf:RDF xmlns:dc="http://purl.org/dc/elements/1.1/" xmlns:cc="http://creativecommons.org/ns#" xmlns:rdf="http://www.w3.org/1999/02/22-rdf-syntax-ns#">
   <cc:Work>
    <dc:type rdf:resource="http://purl.org/dc/dcmitype/StillImage"/>
    <dc:date>2026-04-26T19:21:53.530668</dc:date>
    <dc:format>image/svg+xml</dc:format>
    <dc:creator>
     <cc:Agent>
      <dc:title>Matplotlib v3.10.9, https://matplotlib.org/</dc:title>
     </cc:Agent>
    </dc:creator>
   </cc:Work>
  </rdf:RDF>
 </metadata>
 <defs>
  <style type="text/css">*{stroke-linejoin: round; stroke-linecap: butt}</style>
 </defs>
 <g id="figure_1">
  <g id="patch_1">
   <path d="M 0 128.786685 
L 223.2 128.786685 
L 223.2 0 
L 0 0 
z
" style="fill: #ffffff"/>
  </g>
  <g id="axes_1">
   <g id="patch_2">
    <path d="M 103.961114 26.837457 
L 104.494683 27.4771 
L 104.063001 28.119691 
L 103.191594 28.622215 
L 102.393922 28.833344 
L 101.009055 28.590888 
L 100.663174 28.686232 
L 100.48353 28.808824 
L 100.01163 29.003626 
L 99.994202 28.964119 
L 99.907061 28.89873 
L 99.778361 28.851052 
L 99.633573 28.866037 
L 99.545092 28.9287 
L 99.384217 29.097629 
L 98.370704 29.769415 
L 98.016779 29.938423 
L 96.359765 30.374643 
L 95.672024 30.881881 
L 95.550027 31.558417 
L 95.582202 32.371684 
L 95.359658 33.286357 
L 95.011095 33.765719 
L 94.560645 34.130446 
L 94.041823 34.387301 
L 93.482782 34.545804 
L 92.380787 34.5745 
L 92.077806 34.696121 
L 91.903524 34.931187 
L 91.690365 35.514881 
L 91.463799 35.744582 
L 90.903418 35.588711 
L 90.706346 35.240098 
L 90.78008 34.779484 
L 91.022733 34.284828 
L 91.35923 33.914607 
L 91.756056 33.691963 
L 92.185056 33.518511 
L 92.597969 33.290454 
L 92.978706 32.703371 
L 92.715944 32.235204 
L 92.109981 31.910425 
L 91.463799 31.750785 
L 89.399235 31.507941 
L 88.409853 31.169651 
L 87.495546 31.078269 
L 87.029009 30.885972 
L 86.613415 30.532799 
L 86.290324 30.166062 
L 85.91897 29.844376 
L 85.349204 29.620865 
L 84.752626 29.58407 
L 83.462944 29.649484 
L 82.901222 29.50912 
L 79.202435 27.617307 
L 78.29349 27.542438 
L 68.069877 30.38964 
L 67.638196 30.438722 
L 67.227964 30.403274 
L 67.061727 30.276485 
L 66.788239 29.872999 
L 66.579101 29.822569 
L 66.461126 29.938423 
L 66.351195 30.39373 
L 66.27612 30.565523 
L 65.74121 31.177835 
L 65.324276 31.778073 
L 65.155357 32.453576 
L 65.364494 33.291819 
L 65.466382 33.448862 
L 65.522688 33.611381 
L 65.544138 33.784842 
L 65.522688 33.966515 
L 66.123289 34.824583 
L 66.152782 35.174484 
L 63.656537 35.87175 
L 62.409755 34.196023 
L 61.645598 33.528071 
L 61.28631 33.470713 
L 61.191126 33.526706 
L 61.184423 33.689232 
L 61.07047 33.954221 
L 60.571757 34.823217 
L 59.385303 37.650289 
L 59.095728 38.667562 
L 59.011268 39.715539 
L 59.193593 40.202057 
L 59.583715 40.554348 
L 60.039528 40.862829 
L 60.40686 41.22073 
L 60.59991 41.658259 
L 60.693754 42.160378 
L 60.565054 45.32711 
L 60.932385 45.967699 
L 61.953942 45.63638 
L 62.114817 45.442565 
L 62.179167 45.235026 
L 62.273011 45.06324 
L 62.522367 44.976665 
L 62.667155 45.054994 
L 63.295909 45.571772 
L 63.8335 45.717485 
L 64.951582 45.573147 
L 65.522688 45.574522 
L 66.010676 45.516789 
L 66.485258 45.383462 
L 66.927664 45.169058 
L 67.79639 44.571331 
L 68.24684 44.427081 
L 70.507135 44.314436 
L 71.568911 44.413343 
L 72.593149 44.685366 
L 73.676375 45.17593 
L 74.684526 45.419198 
L 76.690102 45.093473 
L 77.750537 45.184176 
L 78.532122 45.467306 
L 78.749303 45.329859 
L 79.154172 44.870858 
L 79.593898 44.558967 
L 80.130148 44.425707 
L 80.698573 44.429829 
L 81.229461 44.527368 
L 82.099527 44.929945 
L 82.519143 45.052246 
L 82.948143 44.939563 
L 83.165325 44.683992 
L 83.887922 43.44922 
L 84.288769 43.206207 
L 84.538126 43.465696 
L 84.656101 43.960061 
L 84.661463 44.413343 
L 84.385294 45.368343 
L 84.428194 45.74223 
L 84.875964 45.875583 
L 85.337139 45.787597 
L 87.651059 44.439445 
L 87.986216 44.339162 
L 88.253 44.363889 
L 88.793272 44.494396 
L 89.053354 44.498518 
L 89.211548 44.414717 
L 89.340248 44.269105 
L 89.498442 44.128999 
L 89.747798 44.057576 
L 90.176798 43.98753 
L 91.01603 43.736207 
L 91.463799 43.692264 
L 91.820406 43.807618 
L 92.404919 44.215534 
L 92.732031 44.372131 
L 93.185163 44.407848 
L 94.137007 44.267732 
L 94.59282 44.314436 
L 95.222914 44.693609 
L 95.582202 45.252893 
L 96.091224 46.525459 
L 96.099683 46.546616 
L 96.101024 46.550742 
L 96.379874 46.732292 
L 96.987178 46.937245 
L 97.236534 47.124336 
L 97.384003 47.487565 
L 97.322334 47.854993 
L 97.20704 48.210103 
L 97.193634 48.540499 
L 97.587778 49.088532 
L 98.274179 49.413572 
L 99.062467 49.523768 
L 99.77568 49.436988 
L 100.565308 49.084401 
L 100.877674 49.008658 
L 101.271818 49.000396 
L 101.502406 49.030692 
L 101.711543 48.967345 
L 102.029272 48.676804 
L 102.5186 48.490936 
L 103.084344 48.701588 
L 103.723823 49.026561 
L 104.433014 49.182182 
L 105.266883 48.843412 
L 105.741465 48.108243 
L 106.123543 47.238525 
L 106.658453 46.499856 
L 107.513772 46.054319 
L 108.591636 45.820591 
L 109.694971 45.7711 
L 111.17234 45.997946 
L 111.49275 46.000696 
L 111.772941 45.834339 
L 112.600107 45.081105 
L 112.962076 44.862613 
L 113.861636 44.476537 
L 114.050664 44.355647 
L 114.407271 44.054829 
L 114.586914 43.950447 
L 114.840293 43.879031 
L 115.577637 43.773286 
L 116.473175 43.440981 
L 116.947757 43.402537 
L 117.816482 43.824098 
L 118.247739 44.122893 
L 118.280339 44.145481 
L 118.655714 44.543854 
L 118.811227 44.971169 
L 118.671802 45.368343 
L 118.012214 46.138192 
L 117.792351 46.552117 
L 118.331283 47.479309 
L 119.406465 47.870132 
L 120.663972 47.918302 
L 123.305005 47.475181 
L 123.819805 47.464173 
L 124.230037 47.758656 
L 124.463305 48.367034 
L 124.530337 49.055481 
L 124.433812 49.591266 
L 124.136193 49.990793 
L 123.78763 50.273268 
L 123.522186 50.605403 
L 123.468561 51.154035 
L 123.661611 51.684898 
L 124.039668 52.111074 
L 124.514249 52.400763 
L 125.012962 52.526309 
L 125.962125 52.438012 
L 126.908607 52.112454 
L 129.471884 50.671561 
L 129.908928 50.489631 
L 130.87686 50.329768 
L 131.785804 49.934303 
L 132.260386 49.876437 
L 132.705473 50.153383 
L 132.995049 50.736343 
L 133.150561 51.413243 
L 133.193461 51.97728 
L 133.42673 52.37869 
L 133.965662 52.563561 
L 135.083744 52.711194 
L 135.303606 52.814682 
L 135.700432 53.065836 
L 136.242044 53.293559 
L 136.322482 53.459194 
L 136.325163 53.665566 
L 136.394876 53.921665 
L 136.63887 54.360082 
L 136.900893 54.664434 
L 136.906995 54.671522 
L 137.201933 54.653566 
L 138.269071 52.788464 
L 138.861627 51.351195 
L 139.175334 50.944488 
L 139.636509 50.810777 
L 140.202253 50.750127 
L 141.170185 50.35733 
L 141.623317 50.343549 
L 142.475955 50.518574 
L 142.912999 50.53649 
L 143.336637 50.48274 
L 144.149056 49.793774 
L 144.433269 49.694583 
L 144.824731 49.78413 
L 145.481638 50.124447 
L 145.905276 50.131336 
L 146.197532 49.982526 
L 146.693564 49.486576 
L 146.959008 49.302005 
L 147.409458 49.1932 
L 147.843821 49.212481 
L 152.637899 50.214014 
L 153.032043 50.200234 
L 154.152806 50.008705 
L 154.689057 50.040395 
L 156.308533 50.320122 
L 156.764346 50.437261 
L 157.153127 50.416589 
L 158.426722 49.877814 
L 158.756516 49.826839 
L 159.075585 49.903992 
L 159.531397 50.081731 
L 160.440342 50.287048 
L 161.266167 50.236062 
L 163.899157 49.51137 
L 165.379208 49.28961 
L 165.558851 49.016921 
L 165.615158 48.642382 
L 165.81357 48.229375 
L 166.449027 47.879766 
L 169.28311 47.321076 
L 170.200098 47.250908 
L 172.589094 47.458669 
L 173.323757 47.758656 
L 173.304988 48.278931 
L 173.581157 49.799285 
L 173.613332 50.344927 
L 173.548982 50.772181 
L 172.739244 52.635306 
L 172.535469 53.428136 
L 172.680256 54.188155 
L 173.291582 55.049324 
L 174.390895 55.917791 
L 174.629526 56.288927 
L 174.860114 57.206363 
L 175.02367 57.63585 
L 175.313245 57.982413 
L 176.852284 58.934574 
L 177.707603 59.697474 
L 178.080297 59.903134 
L 178.34306 60.355388 
L 178.420816 60.804283 
L 178.286754 61.212398 
L 177.91406 61.541585 
L 177.350997 61.691297 
L 176.106896 61.695456 
L 175.517021 61.919353 
L 175.147008 62.229247 
L 174.785039 62.65708 
L 174.57322 63.143274 
L 174.648295 63.627507 
L 174.962001 64.025808 
L 175.718114 64.712269 
L 176.002327 65.092043 
L 176.082765 65.61149 
L 175.919208 66.792564 
L 176.015733 67.209585 
L 176.946128 68.475787 
L 177.12309 68.863947 
L 177.369766 69.985034 
L 177.597672 70.409001 
L 178.091022 70.846987 
L 178.53611 71.079598 
L 179.474548 71.380501 
L 179.924998 71.589489 
L 180.707924 72.18174 
L 181.112793 72.381752 
L 183.603676 72.447266 
L 184.035357 72.361541 
L 184.378558 71.913463 
L 184.172101 71.491958 
L 183.842307 71.045471 
L 183.820857 70.52667 
L 184.01927 70.392291 
L 185.043508 70.107551 
L 185.225833 69.934916 
L 185.263371 69.710792 
L 185.258008 69.469992 
L 185.319677 69.25288 
L 185.684327 68.807597 
L 186.05434 68.614208 
L 186.496747 68.621164 
L 188.094773 69.076146 
L 188.598848 69.14642 
L 189.177998 69.1332 
L 190.985162 68.621164 
L 191.524094 68.680988 
L 195.218859 70.160458 
L 199.616112 71.533757 
L 200.088012 71.859812 
L 200.484837 72.240278 
L 200.921881 72.535085 
L 201.509075 72.601301 
L 202.104313 72.55948 
L 202.578895 72.643123 
L 202.994489 72.894071 
L 203.40472 73.343069 
L 203.407402 73.34795 
L 203.64067 73.645712 
L 203.828358 73.785194 
L 204.286852 74.001411 
L 204.461134 74.163241 
L 204.536209 74.392057 
L 204.571065 74.646716 
L 204.758752 75.416473 
L 204.75339 75.942844 
L 204.600559 76.438625 
L 204.300258 76.876551 
L 203.200945 77.891766 
L 202.95427 78.325818 
L 202.857745 78.815201 
L 202.863107 81.394829 
L 203.367183 84.50851 
L 203.865896 85.275056 
L 205.694509 86.131715 
L 206.01626 86.882731 
L 205.911691 88.597773 
L 205.973359 89.322993 
L 205.962634 89.500823 
L 206.045753 89.649145 
L 206.33801 89.793962 
L 206.557872 89.959881 
L 206.504247 90.152533 
L 206.061841 90.741853 
L 205.874153 90.828367 
L 205.766903 90.966233 
L 205.841978 91.328529 
L 205.973359 91.533272 
L 206.161047 91.681741 
L 207.480223 92.288395 
L 207.796611 92.55659 
L 207.893136 93.047317 
L 207.804654 93.302936 
L 207.614286 93.585351 
L 207.204054 94.046031 
L 207.029773 94.298252 
L 206.949335 94.547685 
L 206.901073 94.788691 
L 206.815273 95.014219 
L 206.485479 95.425872 
L 206.126191 95.77133 
L 205.841978 96.156336 
L 205.740091 96.676139 
L 205.992128 97.637801 
L 206.592729 98.415642 
L 207.375654 99.021459 
L 209.727112 100.174273 
L 210.182925 100.517697 
L 211.494057 101.973996 
L 212.234082 102.579437 
L 213.054545 103.068304 
L 211.786313 103.419991 
L 211.177669 103.676186 
L 210.861281 104.147611 
L 210.796931 105.162314 
L 210.571706 105.493102 
L 208.15858 106.256875 
L 207.539211 106.339078 
L 207.056585 106.580039 
L 206.817954 107.054953 
L 206.53106 107.499485 
L 206.002853 107.715758 
L 205.233334 107.345625 
L 204.045539 105.636199 
L 203.310876 104.971799 
L 199.986124 103.250862 
L 199.235374 103.603995 
L 196.599703 103.749795 
L 196.374478 103.754042 
L 196.154615 103.709451 
L 195.218859 103.466698 
L 194.653114 103.260061 
L 194.162445 103.295443 
L 193.706633 103.381776 
L 192.955882 103.26643 
L 192.663626 103.256523 
L 192.406225 103.185055 
L 192.028169 102.650178 
L 191.77345 102.510821 
L 191.478512 102.528506 
L 191.178212 102.705357 
L 191.041468 102.34884 
L 190.735806 103.08104 
L 190.10303 103.15392 
L 189.349598 102.984814 
L 188.663198 102.994012 
L 188.242241 103.361962 
L 188.199341 104.300529 
L 187.722079 104.773511 
L 187.089303 105.001543 
L 184.206958 105.490268 
L 182.249644 106.092477 
L 181.702668 106.188847 
L 180.241386 106.772827 
L 179.128667 106.87986 
L 178.605823 107.012419 
L 177.619122 107.786673 
L 177.249109 107.859008 
L 176.852284 107.776744 
L 176.267771 107.731359 
L 176.010371 107.810784 
L 175.589414 108.088085 
L 175.310564 108.102979 
L 175.133602 107.988791 
L 174.760908 107.556919 
L 174.565176 107.404473 
L 174.031607 107.369022 
L 172.934975 107.659029 
L 172.519381 107.447724 
L 172.406768 106.87348 
L 172.733881 106.336244 
L 173.280857 105.935886 
L 173.825151 105.769388 
L 174.822576 105.682956 
L 175.200633 105.525687 
L 175.648402 105.210477 
L 176.085446 104.774927 
L 176.257046 104.376992 
L 176.262409 103.225388 
L 176.291902 103.000379 
L 176.45814 102.308523 
L 175.533108 102.214454 
L 174.409664 102.235672 
L 172.607862 101.832563 
L 169.500292 100.869661 
L 168.341991 100.897933 
L 166.727877 101.647301 
L 166.298877 101.541949 
L 165.861833 101.320656 
L 165.245145 101.251375 
L 164.598963 101.307931 
L 164.073438 101.457813 
L 163.663206 101.715888 
L 162.397656 102.859584 
L 162.116124 102.971371 
L 161.555743 102.791666 
L 161.327836 102.859584 
L 160.338454 103.513406 
L 159.930904 103.933121 
L 159.485816 104.733147 
L 159.188197 105.11132 
L 158.662672 105.413056 
L 156.796521 105.571025 
L 154.946457 106.516252 
L 154.37535 107.093234 
L 153.73185 107.283233 
L 152.514562 107.478213 
L 151.48228 108.013614 
L 150.710079 108.91311 
L 149.500835 111.042783 
L 148.42029 112.482945 
L 148.262096 113.013217 
L 148.031509 113.274847 
L 144.165143 113.763357 
L 143.291055 114.13746 
L 141.499979 113.857232 
L 140.333635 114.060642 
L 137.708689 114.968401 
L 136.684451 115.56762 
L 136.427051 115.813904 
L 136.051676 116.299436 
L 135.815725 116.508776 
L 134.933594 116.941049 
L 134.255237 117.574305 
L 126.728963 122.365741 
L 125.718131 122.727064 
L 124.444537 122.932745 
L 123.184348 122.932745 
L 121.96706 122.701355 
L 120.878472 122.208663 
L 120.004384 121.423444 
L 119.655821 120.94246 
L 119.368927 120.420208 
L 119.173196 119.856716 
L 118.996233 118.584767 
L 118.736152 118.031733 
L 117.264144 115.99472 
L 117.038919 115.497869 
L 116.958482 114.900093 
L 116.958482 113.772602 
L 116.867319 113.447626 
L 116.41955 112.85469 
L 116.264037 112.561838 
L 116.210412 112.224966 
L 116.264037 110.56555 
L 116.467813 109.436811 
L 116.617963 109.020252 
L 116.797607 108.772627 
L 116.703763 108.112199 
L 117.66097 106.72959 
L 117.68242 105.963519 
L 117.837932 105.619197 
L 117.907645 105.044037 
L 117.859382 103.888527 
L 117.663651 102.836945 
L 117.744088 102.445744 
L 118.036345 101.832563 
L 118.288383 100.73537 
L 117.923732 98.530013 
L 118.036345 97.333661 
L 118.130189 97.179139 
L 118.443895 96.817926 
L 118.569914 96.588673 
L 118.639627 96.312898 
L 118.762964 95.47099 
L 119.057902 94.621675 
L 119.100802 94.353209 
L 119.041814 94.054485 
L 118.805864 93.475479 
L 118.762964 93.219839 
L 118.977464 92.731887 
L 119.934671 92.215193 
L 120.33954 91.732406 
L 120.441428 91.241291 
L 120.462878 90.594156 
L 120.419978 90.00066 
L 120.33954 89.67164 
L 120.53259 89.48325 
L 119.744302 88.675061 
L 118.958696 88.22964 
L 118.028301 88.181872 
L 114.863083 89.086846 
L 114.391183 89.383439 
L 113.876383 89.621026 
L 113.321364 89.422801 
L 112.337344 88.758676 
L 112.061175 88.726354 
L 111.862763 88.776243 
L 111.726019 88.718625 
L 111.629494 88.370141 
L 111.661669 88.082125 
L 111.924431 87.466188 
L 112.098713 86.774623 
L 112.870913 85.57039 
L 113.224839 84.458726 
L 113.704783 83.688284 
L 113.87102 82.895016 
L 114.34158 81.724606 
L 114.482346 81.109206 
L 114.317449 79.905558 
L 113.700761 79.109588 
L 112.811926 78.621531 
L 110.673628 77.887573 
L 109.07158 76.525225 
L 108.071473 75.919105 
L 107.344853 75.616114 
L 107.023103 75.553288 
L 106.710737 75.563061 
L 106.508303 75.638453 
L 106.317934 75.648226 
L 106.049809 75.468127 
L 105.88089 75.243374 
L 105.663709 74.749984 
L 105.509537 74.536476 
L 105.248115 74.29997 
L 104.979989 74.108831 
L 104.683711 73.967234 
L 104.352576 73.892602 
L 103.747954 73.909342 
L 103.558926 74.101158 
L 103.644726 74.714398 
L 103.371238 74.990732 
L 102.749188 74.865121 
L 101.679368 74.445079 
L 101.376387 74.48694 
L 101.227578 74.601364 
L 101.129712 74.725562 
L 100.95409 74.797434 
L 100.722162 74.785571 
L 100.303886 74.666951 
L 100.067936 74.62997 
L 99.247473 74.62718 
L 98.827857 74.706723 
L 98.649554 74.897221 
L 98.327804 75.357143 
L 96.810215 75.48837 
L 96.331612 75.736188 
L 96.331612 75.919105 
L 96.847753 76.243091 
L 96.638615 76.560145 
L 95.721627 77.120351 
L 95.481655 77.230735 
L 94.890439 77.201392 
L 94.649126 77.313177 
L 94.539195 77.553537 
L 94.533832 77.834459 
L 94.563326 78.110528 
L 94.560645 78.337702 
L 94.209401 79.260644 
L 93.94932 79.369747 
L 93.595394 79.447381 
L 93.279007 79.597064 
L 93.039035 80.263078 
L 92.276218 81.497047 
L 91.603224 82.991705 
L 91.284155 83.448589 
L 91.018711 83.672864 
L 90.133898 83.987593 
L 89.85907 84.153739 
L 88.712835 85.136874 
L 87.547831 86.41384 
L 87.33199 86.5486 
L 86.829286 86.770754 
L 86.704577 86.825868 
L 86.573196 86.969782 
L 86.444496 87.212704 
L 86.157602 87.313111 
L 85.851939 87.359454 
L 85.670955 87.443015 
L 85.579792 87.694421 
L 85.573089 87.926191 
L 85.664252 88.149559 
L 85.868027 88.370141 
L 85.260723 88.558427 
L 84.65342 88.64274 
L 84.070247 88.544375 
L 83.548744 88.185384 
L 83.247103 88.876727 
L 83.3691 89.713116 
L 83.731069 90.505542 
L 84.168113 91.07386 
L 84.465732 91.190638 
L 85.31837 91.410142 
L 85.495333 91.638817 
L 85.565045 92.027976 
L 85.737986 92.384125 
L 85.972596 92.672749 
L 86.220611 92.864249 
L 86.077164 93.178996 
L 86.133471 93.558587 
L 86.396233 94.353209 
L 86.427068 94.754864 
L 86.361377 94.994484 
L 86.270214 95.214396 
L 86.220611 95.555588 
L 85.894839 95.953952 
L 85.76882 96.030108 
L 85.66157 96.126013 
L 85.669614 96.34393 
L 85.70447 96.592905 
L 85.670955 96.774895 
L 85.524826 96.97877 
L 85.46718 97.03521 
L 85.334458 97.148094 
L 85.248658 97.121284 
L 84.749945 97.139628 
L 84.699001 97.148094 
L 84.322285 97.944102 
L 84.256594 98.181976 
L 84.082313 98.270922 
L 83.178731 99.216375 
L 82.433343 99.466403 
L 81.653099 99.349155 
L 80.878217 99.113265 
L 80.165004 99.013691 
L 80.32856 99.216375 
L 79.521504 99.092079 
L 79.280191 99.013691 
L 79.191868 98.944699 
L 79.044241 98.829386 
L 78.945035 98.647216 
L 78.810972 98.508833 
L 78.475816 98.453765 
L 77.926159 98.285746 
L 77.644627 97.897519 
L 77.403315 97.46138 
L 76.976996 97.148094 
L 76.36567 97.119873 
L 75.277082 97.582756 
L 74.748876 97.706962 
L 74.491475 97.80859 
L 74.22335 98.002686 
L 73.952544 98.12127 
L 73.683078 97.995628 
L 73.491368 97.877757 
L 72.914899 97.730957 
L 72.708443 97.706962 
L 72.067624 97.777536 
L 70.970992 98.173506 
L 70.391841 98.267392 
L 66.85527 97.997745 
L 66.336448 98.190447 
L 65.89002 99.337854 
L 65.326957 99.798408 
L 64.1767 100.50639 
L 64.082856 100.636425 
L 63.921981 100.964376 
L 63.821434 101.100801 
L 63.621681 101.255617 
L 63.248987 101.476195 
L 63.114924 101.627503 
L 62.95673 102.061689 
L 62.903105 102.569534 
L 62.921874 103.615319 
L 62.971477 103.712283 
L 63.21413 103.76749 
L 63.289205 103.888527 
L 63.281162 104.035762 
L 63.219493 104.078236 
L 63.14978 104.095225 
L 63.114924 104.177344 
L 63.125649 104.430801 
L 63.165868 104.687828 
L 63.243624 104.923641 
L 63.377687 105.11132 
L 63.597549 105.52002 
L 63.76915 106.463807 
L 63.982309 106.712578 
L 63.773171 107.316556 
L 64.214237 107.486722 
L 64.69016 107.570392 
L 64.611063 107.921416 
L 63.718206 109.188427 
L 63.289205 109.540431 
L 62.242177 110.104043 
L 61.825242 110.518684 
L 61.543711 110.740238 
L 61.236707 110.836821 
L 61.146888 110.853177 
L 60.550307 110.961816 
L 60.035506 111.1685 
L 59.514003 111.210408 
L 57.057976 109.804472 
L 56.921232 109.751945 
L 56.347445 109.415519 
L 56.106132 109.188427 
L 55.642275 108.212208 
L 55.174397 107.878865 
L 54.583181 107.551247 
L 54.068381 107.154202 
L 53.686302 106.15625 
L 53.282774 105.674455 
L 52.757248 105.267849 
L 52.243789 105.027039 
L 50.472822 104.840077 
L 50.381659 104.807502 
L 50.231509 104.780592 
L 50.159115 104.871236 
L 50.294519 105.19702 
L 50.462097 105.374097 
L 50.883053 105.64045 
L 51.00371 105.75947 
L 51.094872 106.15625 
L 50.956788 106.400024 
L 50.668553 106.465225 
L 50.294519 106.320653 
L 49.949978 105.933052 
L 49.716709 105.493102 
L 49.424452 105.143191 
L 48.881499 105.027039 
L 48.310392 105.184271 
L 48.216549 105.494518 
L 48.523552 106.320653 
L 48.590583 106.906088 
L 48.480652 107.172635 
L 48.172308 107.152784 
L 47.207057 106.628943 
L 46.904076 106.504913 
L 46.564897 106.477981 
L 46.029988 106.524757 
L 45.019156 106.401442 
L 44.549937 106.421285 
L 44.25634 106.712578 
L 44.389062 106.821026 
L 44.461455 106.940113 
L 44.611606 107.274726 
L 44.024411 107.352006 
L 43.708024 107.748379 
L 43.561895 108.19022 
L 43.461349 108.398052 
L 42.99213 108.457639 
L 42.021516 108.71516 
L 41.504035 108.772627 
L 41.376675 108.893243 
L 41.018728 109.421197 
L 40.788141 109.540431 
L 40.514653 109.558884 
L 39.281277 109.795954 
L 37.671185 109.898172 
L 38.042539 110.539987 
L 37.872279 110.949742 
L 37.364182 111.16779 
L 36.688507 111.228876 
L 36.176387 111.127304 
L 35.672312 110.958975 
L 35.169577 110.926305 
L 34.677568 111.228876 
L 34.481836 111.684234 
L 34.503286 112.239179 
L 34.677568 113.396431 
L 34.40408 113.791092 
L 33.780689 113.786825 
L 32.71221 113.483179 
L 32.033853 113.564242 
L 31.55525 113.900615 
L 31.140997 114.266917 
L 30.658371 114.439065 
L 30.339302 114.611227 
L 28.623301 115.868005 
L 28.357857 116.017501 
L 28.046832 116.127138 
L 27.841735 116.119487 
L 27.722401 116.115035 
L 27.48645 115.971939 
L 27.355069 115.756957 
L 27.2505 115.514239 
L 27.09901 115.285781 
L 26.207493 114.345165 
L 25.976906 114.171602 
L 25.362899 113.896348 
L 25.081368 113.687976 
L 24.668455 113.121988 
L 24.394967 112.636469 
L 24.035679 112.295321 
L 22.862632 112.05726 
L 22.217791 111.778017 
L 21.629256 111.412144 
L 21.310187 111.042783 
L 21.282034 110.630879 
L 21.504578 108.875505 
L 21.622553 108.471827 
L 22.111881 107.651938 
L 22.4095 106.721793 
L 22.544903 105.735382 
L 22.455081 104.580906 
L 21.940281 102.416743 
L 22.040828 101.266928 
L 22.767447 99.585071 
L 23.873464 97.97657 
L 25.210068 96.556932 
L 26.609681 95.439267 
L 28.499964 93.239557 
L 29.26412 91.989972 
L 30.368796 89.211944 
L 30.828631 88.821214 
L 31.637028 88.593557 
L 32.846273 88.457256 
L 33.243098 88.35609 
L 33.372842 88.27692 
L 33.650648 88.107412 
L 33.845039 87.764652 
L 33.963014 87.351028 
L 34.157405 86.887645 
L 34.160086 86.885539 
L 34.162767 86.883433 
L 34.162767 86.879923 
L 34.165449 86.877817 
L 34.476474 86.3605 
L 35.487306 85.08497 
L 36.130806 83.585955 
L 36.554444 81.997011 
L 36.43915 80.952411 
L 35.811737 80.129437 
L 33.752536 78.620133 
L 32.407888 77.999397 
L 31.964141 77.626209 
L 31.004253 76.186529 
L 29.988058 75.388553 
L 29.741383 75.006085 
L 29.652902 74.613225 
L 29.599277 73.754507 
L 29.451808 73.343069 
L 28.821714 72.55948 
L 28.628664 72.202646 
L 28.560292 71.610389 
L 28.647432 70.061606 
L 28.591126 69.517315 
L 28.243904 68.50987 
L 28.174192 68.017468 
L 28.377967 67.612094 
L 29.033533 67.234609 
L 29.167595 67.069873 
L 29.186364 66.767546 
L 29.07107 66.518769 
L 28.918239 66.280446 
L 28.840483 66.008807 
L 28.928964 65.426751 
L 29.218539 65.280917 
L 29.678374 65.293417 
L 30.285677 65.192033 
L 30.725403 64.982339 
L 31.122228 64.696996 
L 31.443978 64.333956 
L 31.674566 63.887018 
L 31.704059 63.295191 
L 31.445319 62.75417 
L 31.177102 62.433983 
L 30.691887 61.854885 
L 29.816458 60.291664 
L 29.419633 59.903134 
L 29.41427 59.902442 
L 29.410249 59.898287 
L 29.404886 59.898287 
L 29.202452 59.856045 
L 28.990633 59.840811 
L 28.778814 59.856045 
L 28.575039 59.898287 
L 28.143357 60.154527 
L 27.711676 60.280582 
L 27.285357 60.215476 
L 26.88585 59.903134 
L 26.682075 59.806187 
L 26.245031 59.68501 
L 25.872337 59.68224 
L 25.507687 59.761178 
L 25.161805 59.900364 
L 25.155102 59.900364 
L 25.152421 59.902442 
L 23.183041 60.439201 
L 22.485916 60.448899 
L 19.169207 60.01463 
L 18.721179 59.656386 
L 18.694626 59.635157 
L 18.693452 59.629205 
L 18.564585 58.976104 
L 18.859523 56.89935 
L 18.81126 56.532935 
L 18.807495 56.52778 
L 18.57397 56.208059 
L 18.407732 56.165207 
L 17.97605 56.239162 
L 17.799088 56.214279 
L 17.6543 56.089182 
L 17.447844 55.79064 
L 17.335231 55.68699 
L 16.310993 55.356731 
L 14.200848 55.293173 
L 11.066465 54.397369 
L 10.337164 53.854013 
L 10.336062 53.847907 
L 10.145455 52.792604 
L 10.189695 52.4118 
L 10.24332 52.225565 
L 10.366658 52.106936 
L 10.610652 51.933144 
L 10.886821 51.860046 
L 11.12009 51.917973 
L 11.29169 51.868321 
L 11.487421 50.983087 
L 11.815874 50.085865 
L 11.844028 49.102304 
L 12.015628 48.031163 
L 12.340059 47.006026 
L 12.578691 46.763928 
L 12.972835 46.725415 
L 13.640466 46.798315 
L 13.769166 46.774932 
L 13.889823 46.725415 
L 13.997073 46.647016 
L 14.085554 46.550742 
L 13.90591 45.372466 
L 14.41937 44.975291 
L 16.493318 44.716967 
L 18.907785 43.34899 
L 19.871695 43.103245 
L 21.088984 43.123837 
L 29.953202 44.943686 
L 33.835655 45.038504 
L 35.955184 45.640504 
L 37.227438 45.713361 
L 38.51578 45.617135 
L 40.109784 45.281754 
L 40.621903 45.094847 
L 40.617163 45.086205 
L 40.432726 44.749923 
L 40.343053 44.586444 
L 40.694297 44.188062 
L 41.801654 43.629097 
L 42.426385 43.108736 
L 42.772267 42.585776 
L 42.914373 41.947715 
L 43.174455 37.67219 
L 43.44258 37.102864 
L 43.74288 37.120653 
L 44.088761 37.232863 
L 44.970893 36.615792 
L 45.397212 36.868889 
L 46.088975 37.755687 
L 46.437538 37.896683 
L 46.611819 37.724204 
L 46.668126 37.461409 
L 46.670807 37.328657 
L 46.665444 37.291707 
L 46.850451 36.893517 
L 46.938932 36.851103 
L 47.211079 36.814163 
L 47.308945 36.760806 
L 47.623992 36.253308 
L 47.630695 35.881323 
L 47.050204 34.910686 
L 46.799507 34.33948 
L 46.707004 33.844942 
L 46.885307 33.638697 
L 47.42692 33.932365 
L 47.955127 34.839617 
L 48.350611 35.983885 
L 48.944508 36.704714 
L 50.047844 36.342212 
L 49.960703 35.754154 
L 47.676276 33.283626 
L 47.547576 33.018734 
L 47.508698 32.770261 
L 47.563664 32.228381 
L 47.475182 32.027775 
L 47.014007 31.738506 
L 46.959041 31.50112 
L 47.295539 31.015532 
L 47.703089 31.27195 
L 48.292964 32.097371 
L 48.628121 32.014129 
L 49.54779 31.386532 
L 50.073315 31.254218 
L 51.960917 31.486114 
L 52.550792 31.411086 
L 52.762611 31.087816 
L 52.80283 30.703241 
L 52.719711 30.299661 
L 52.550792 29.930245 
L 51.341548 29.250224 
L 45.268099 30.174908 
L 45.021837 30.212412 
L 44.104849 29.93706 
L 42.943867 29.368767 
L 42.273554 28.791116 
L 42.815167 28.49555 
L 43.872053 28.277829 
L 45.314094 27.980807 
L 45.890563 27.939961 
L 47.393404 28.144202 
L 48.000708 28.081565 
L 48.902949 27.678566 
L 49.41909 27.512491 
L 53.63938 27.00347 
L 54.230596 27.079678 
L 55.050955 27.401853 
L 55.942576 27.752079 
L 58.275265 28.296716 
L 59.566287 28.3294 
L 60.540922 27.980807 
L 60.540922 27.35732 
L 58.653321 26.037541 
L 58.546071 25.259731 
L 59.227109 25.193116 
L 60.225875 25.489504 
L 61.061085 25.378013 
L 61.252795 24.089568 
L 61.087898 23.506808 
L 60.806366 23.00842 
L 60.130691 22.066342 
L 59.878653 21.598202 
L 59.323634 20.119953 
L 59.320953 20.119953 
L 58.277946 18.759416 
L 58.288671 18.217659 
L 59.217725 17.726157 
L 60.79296 17.624624 
L 61.165654 17.45 
L 61.272904 17.095391 
L 61.094601 15.703356 
L 61.109348 14.740799 
L 61.291673 13.957081 
L 61.691179 13.276338 
L 62.352108 12.622857 
L 62.72078 12.386637 
L 63.135033 12.21118 
L 63.978287 11.999305 
L 64.447506 12.039789 
L 64.793388 12.254368 
L 65.117819 12.518916 
L 65.522688 12.709254 
L 66.351195 12.771354 
L 66.938389 13.191264 
L 67.949221 14.397542 
L 68.254884 14.608354 
L 68.909109 14.938135 
L 69.196003 15.203086 
L 69.670585 15.823713 
L 69.93871 16.098264 
L 70.265823 16.326864 
L 71.064836 16.55414 
L 71.75928 16.390444 
L 72.378649 15.967069 
L 73.467237 14.907046 
L 73.980697 14.575919 
L 74.551804 14.357004 
L 79.333816 13.206118 
L 81.787161 11.761819 
L 84.479138 10.945707 
L 86.357355 10.081447 
L 87.797187 8.797304 
L 88.514422 6.050279 
L 89.490398 5.85394 
L 90.646017 6.21974 
L 90.965153 6.484823 
L 91.463799 6.899093 
L 91.52949 6.986554 
L 91.611268 7.063254 
L 92.42905 7.608325 
L 97.161459 11.686263 
L 97.375959 11.915642 
L 97.325016 12.398785 
L 96.814237 12.253018 
L 95.911996 11.652533 
L 95.394514 11.695707 
L 95.15052 12.026294 
L 95.21353 12.475722 
L 95.619739 12.87801 
L 97.992647 13.299296 
L 98.98471 13.739593 
L 98.760826 14.620517 
L 98.703507 14.838817 
L 98.700498 14.850277 
L 98.29831 15.044922 
L 98.207147 15.153067 
L 98.164247 15.27609 
L 98.075766 15.377488 
L 97.649447 15.451851 
L 97.430925 15.53433 
L 97.059572 15.7588 
L 96.67079 16.033342 
L 95.094214 17.027726 
L 94.183929 17.896745 
L 93.852794 18.114744 
L 93.461332 18.256931 
L 93.077913 18.33954 
L 92.715944 18.464138 
L 92.3647 18.735034 
L 91.739968 19.553388 
L 91.478546 19.817672 
L 91.22919 19.896287 
L 89.443476 20.218916 
L 88.672616 20.603979 
L 88.262385 21.11255 
L 88.303944 21.664684 
L 88.345503 21.788157 
L 88.391085 21.858717 
L 88.732944 22.245489 
L 88.718197 22.235988 
L 88.774504 22.276706 
L 88.997047 22.483022 
L 89.069441 22.594334 
L 88.718197 23.508167 
L 90.010561 23.95371 
L 90.554855 24.075982 
L 91.12328 24.036582 
L 91.611268 23.919747 
L 92.104618 23.878992 
L 92.678406 24.065113 
L 93.367488 24.940273 
L 93.713369 26.157234 
L 94.177226 27.275656 
L 95.222914 27.859632 
L 96.316865 27.914092 
L 97.429584 27.843295 
L 101.127031 26.958563 
L 103.426204 26.796636 
z
" clip-path="url(#peb62809647)" style="stroke: #000000; stroke-linejoin: miter"/>
   </g>
   <g id="line2d_1">
    <path d="M 103.961114 26.837457 
L 104.494683 27.4771 
L 104.063001 28.119691 
L 103.191594 28.622215 
L 102.393922 28.833344 
L 101.009055 28.590888 
L 100.48353 28.808824 
L 99.994202 28.964119 
L 99.778361 28.851052 
L 99.545092 28.9287 
L 99.384217 29.097629 
L 98.016779 29.938423 
L 96.359765 30.374643 
L 95.672024 30.881881 
L 95.550027 31.558417 
L 95.582202 32.371684 
L 95.359658 33.286357 
L 95.011095 33.765719 
L 94.560645 34.130446 
L 93.482782 34.545804 
L 92.380787 34.5745 
L 92.077806 34.696121 
L 91.903524 34.931187 
L 91.690365 35.514881 
L 91.463799 35.744582 
L 90.903418 35.588711 
L 90.706346 35.240098 
L 90.78008 34.779484 
L 91.022733 34.284828 
L 91.35923 33.914607 
L 92.597969 33.290454 
L 92.978706 32.703371 
L 92.715944 32.235204 
L 92.109981 31.910425 
L 91.463799 31.750785 
L 89.399235 31.507941 
L 88.409853 31.169651 
L 87.495546 31.078269 
L 87.029009 30.885972 
L 85.91897 29.844376 
L 85.349204 29.620865 
L 84.752626 29.58407 
L 83.462944 29.649484 
L 82.901222 29.50912 
L 79.202435 27.617307 
L 78.29349 27.542438 
L 67.638196 30.438722 
L 67.227964 30.403274 
L 67.061727 30.276485 
L 66.788239 29.872999 
L 66.579101 29.822569 
L 66.461126 29.938423 
L 66.27612 30.565523 
L 65.324276 31.778073 
L 65.155357 32.453576 
L 65.522688 33.966515 
L 66.123289 34.824583 
L 66.152782 35.174484 
L 63.656537 35.87175 
L 62.409755 34.196023 
L 61.645598 33.528071 
L 61.191126 33.526706 
L 61.07047 33.954221 
L 60.571757 34.823217 
L 59.385303 37.650289 
L 59.095728 38.667562 
L 59.011268 39.715539 
L 59.193593 40.202057 
L 60.40686 41.22073 
L 60.59991 41.658259 
L 60.693754 42.160378 
L 60.565054 45.32711 
L 60.932385 45.967699 
L 61.953942 45.63638 
L 62.179167 45.235026 
L 62.273011 45.06324 
L 62.522367 44.976665 
L 62.667155 45.054994 
L 63.295909 45.571772 
L 63.8335 45.717485 
L 66.485258 45.383462 
L 66.927664 45.169058 
L 67.79639 44.571331 
L 68.24684 44.427081 
L 70.507135 44.314436 
L 71.568911 44.413343 
L 72.593149 44.685366 
L 73.676375 45.17593 
L 74.684526 45.419198 
L 76.690102 45.093473 
L 77.750537 45.184176 
L 78.532122 45.467306 
L 78.749303 45.329859 
L 79.154172 44.870858 
L 79.593898 44.558967 
L 80.130148 44.425707 
L 81.229461 44.527368 
L 82.519143 45.052246 
L 82.948143 44.939563 
L 83.165325 44.683992 
L 83.887922 43.44922 
L 84.288769 43.206207 
L 84.538126 43.465696 
L 84.661463 44.413343 
L 84.385294 45.368343 
L 84.428194 45.74223 
L 84.875964 45.875583 
L 85.337139 45.787597 
L 87.986216 44.339162 
L 89.211548 44.414717 
L 89.498442 44.128999 
L 91.01603 43.736207 
L 91.463799 43.692264 
L 91.820406 43.807618 
L 92.732031 44.372131 
L 93.185163 44.407848 
L 94.137007 44.267732 
L 94.59282 44.314436 
L 95.222914 44.693609 
L 95.582202 45.252893 
L 96.101024 46.550742 
L 96.379874 46.732292 
L 97.236534 47.124336 
L 97.384003 47.487565 
L 97.193634 48.540499 
L 97.587778 49.088532 
L 98.274179 49.413572 
L 99.062467 49.523768 
L 99.77568 49.436988 
L 100.877674 49.008658 
L 101.711543 48.967345 
L 102.029272 48.676804 
L 102.5186 48.490936 
L 104.433014 49.182182 
L 105.266883 48.843412 
L 105.741465 48.108243 
L 106.123543 47.238525 
L 106.658453 46.499856 
L 107.513772 46.054319 
L 108.591636 45.820591 
L 109.694971 45.7711 
L 111.49275 46.000696 
L 111.772941 45.834339 
L 112.962076 44.862613 
L 114.050664 44.355647 
L 114.586914 43.950447 
L 116.473175 43.440981 
L 116.947757 43.402537 
L 118.280339 44.145481 
L 118.655714 44.543854 
L 118.811227 44.971169 
L 118.671802 45.368343 
L 117.792351 46.552117 
L 118.331283 47.479309 
L 119.406465 47.870132 
L 120.663972 47.918302 
L 123.819805 47.464173 
L 124.230037 47.758656 
L 124.463305 48.367034 
L 124.530337 49.055481 
L 124.433812 49.591266 
L 123.78763 50.273268 
L 123.522186 50.605403 
L 123.468561 51.154035 
L 123.661611 51.684898 
L 124.039668 52.111074 
L 124.514249 52.400763 
L 125.012962 52.526309 
L 125.962125 52.438012 
L 126.908607 52.112454 
L 129.908928 50.489631 
L 130.87686 50.329768 
L 131.785804 49.934303 
L 132.260386 49.876437 
L 132.705473 50.153383 
L 132.995049 50.736343 
L 133.42673 52.37869 
L 133.965662 52.563561 
L 135.303606 52.814682 
L 136.322482 53.459194 
L 136.394876 53.921665 
L 136.906995 54.671522 
L 137.201933 54.653566 
L 138.269071 52.788464 
L 138.861627 51.351195 
L 139.175334 50.944488 
L 141.623317 50.343549 
L 142.912999 50.53649 
L 143.336637 50.48274 
L 144.433269 49.694583 
L 144.824731 49.78413 
L 145.481638 50.124447 
L 145.905276 50.131336 
L 146.197532 49.982526 
L 146.959008 49.302005 
L 147.409458 49.1932 
L 147.843821 49.212481 
L 153.032043 50.200234 
L 154.152806 50.008705 
L 154.689057 50.040395 
L 157.153127 50.416589 
L 158.756516 49.826839 
L 160.440342 50.287048 
L 161.266167 50.236062 
L 163.899157 49.51137 
L 165.379208 49.28961 
L 165.558851 49.016921 
L 165.615158 48.642382 
L 165.81357 48.229375 
L 166.449027 47.879766 
L 170.200098 47.250908 
L 172.589094 47.458669 
L 173.323757 47.758656 
L 173.304988 48.278931 
L 173.613332 50.344927 
L 173.548982 50.772181 
L 172.739244 52.635306 
L 172.535469 53.428136 
L 172.680256 54.188155 
L 173.291582 55.049324 
L 174.390895 55.917791 
L 174.629526 56.288927 
L 175.02367 57.63585 
L 175.313245 57.982413 
L 176.852284 58.934574 
L 178.34306 60.355388 
L 178.420816 60.804283 
L 178.286754 61.212398 
L 177.91406 61.541585 
L 177.350997 61.691297 
L 176.106896 61.695456 
L 175.517021 61.919353 
L 174.785039 62.65708 
L 174.57322 63.143274 
L 174.648295 63.627507 
L 174.962001 64.025808 
L 176.002327 65.092043 
L 176.082765 65.61149 
L 175.919208 66.792564 
L 176.015733 67.209585 
L 177.12309 68.863947 
L 177.369766 69.985034 
L 177.597672 70.409001 
L 178.091022 70.846987 
L 178.53611 71.079598 
L 179.924998 71.589489 
L 181.112793 72.381752 
L 184.035357 72.361541 
L 184.378558 71.913463 
L 183.820857 70.52667 
L 184.01927 70.392291 
L 185.043508 70.107551 
L 185.225833 69.934916 
L 185.319677 69.25288 
L 185.684327 68.807597 
L 186.05434 68.614208 
L 186.496747 68.621164 
L 188.598848 69.14642 
L 189.177998 69.1332 
L 190.985162 68.621164 
L 191.524094 68.680988 
L 195.218859 70.160458 
L 199.616112 71.533757 
L 200.921881 72.535085 
L 202.578895 72.643123 
L 202.994489 72.894071 
L 203.828358 73.785194 
L 204.461134 74.163241 
L 204.758752 75.416473 
L 204.75339 75.942844 
L 204.600559 76.438625 
L 204.300258 76.876551 
L 203.200945 77.891766 
L 202.95427 78.325818 
L 202.857745 78.815201 
L 202.863107 81.394829 
L 203.367183 84.50851 
L 203.865896 85.275056 
L 205.694509 86.131715 
L 206.01626 86.882731 
L 205.962634 89.500823 
L 206.045753 89.649145 
L 206.557872 89.959881 
L 206.504247 90.152533 
L 205.766903 90.966233 
L 205.973359 91.533272 
L 206.161047 91.681741 
L 207.480223 92.288395 
L 207.796611 92.55659 
L 207.893136 93.047317 
L 207.614286 93.585351 
L 207.029773 94.298252 
L 206.815273 95.014219 
L 205.841978 96.156336 
L 205.740091 96.676139 
L 205.992128 97.637801 
L 206.592729 98.415642 
L 207.375654 99.021459 
L 210.182925 100.517697 
L 211.494057 101.973996 
L 212.234082 102.579437 
L 213.054545 103.068304 
L 211.177669 103.676186 
L 210.861281 104.147611 
L 210.796931 105.162314 
L 210.571706 105.493102 
L 207.056585 106.580039 
L 206.53106 107.499485 
L 206.002853 107.715758 
L 205.233334 107.345625 
L 204.045539 105.636199 
L 203.310876 104.971799 
L 199.986124 103.250862 
L 199.235374 103.603995 
L 196.154615 103.709451 
L 194.162445 103.295443 
L 193.706633 103.381776 
L 192.406225 103.185055 
L 192.028169 102.650178 
L 191.77345 102.510821 
L 191.478512 102.528506 
L 191.178212 102.705357 
L 191.041468 102.34884 
L 190.735806 103.08104 
L 190.10303 103.15392 
L 189.349598 102.984814 
L 188.663198 102.994012 
L 188.242241 103.361962 
L 188.199341 104.300529 
L 187.722079 104.773511 
L 187.089303 105.001543 
L 184.206958 105.490268 
L 180.241386 106.772827 
L 178.605823 107.012419 
L 177.619122 107.786673 
L 177.249109 107.859008 
L 176.267771 107.731359 
L 176.010371 107.810784 
L 175.589414 108.088085 
L 175.310564 108.102979 
L 175.133602 107.988791 
L 174.565176 107.404473 
L 174.031607 107.369022 
L 172.934975 107.659029 
L 172.519381 107.447724 
L 172.406768 106.87348 
L 172.733881 106.336244 
L 173.280857 105.935886 
L 173.825151 105.769388 
L 174.822576 105.682956 
L 175.200633 105.525687 
L 176.085446 104.774927 
L 176.257046 104.376992 
L 176.291902 103.000379 
L 176.45814 102.308523 
L 175.533108 102.214454 
L 174.409664 102.235672 
L 172.607862 101.832563 
L 169.500292 100.869661 
L 168.341991 100.897933 
L 166.727877 101.647301 
L 165.245145 101.251375 
L 164.073438 101.457813 
L 163.663206 101.715888 
L 162.116124 102.971371 
L 161.555743 102.791666 
L 161.327836 102.859584 
L 160.338454 103.513406 
L 159.930904 103.933121 
L 159.188197 105.11132 
L 158.662672 105.413056 
L 156.796521 105.571025 
L 154.946457 106.516252 
L 154.37535 107.093234 
L 153.73185 107.283233 
L 152.514562 107.478213 
L 151.48228 108.013614 
L 150.710079 108.91311 
L 149.500835 111.042783 
L 148.42029 112.482945 
L 148.262096 113.013217 
L 148.031509 113.274847 
L 144.165143 113.763357 
L 143.291055 114.13746 
L 141.499979 113.857232 
L 140.333635 114.060642 
L 137.708689 114.968401 
L 136.427051 115.813904 
L 135.815725 116.508776 
L 134.933594 116.941049 
L 134.255237 117.574305 
L 126.728963 122.365741 
L 125.718131 122.727064 
L 124.444537 122.932745 
L 123.184348 122.932745 
L 121.96706 122.701355 
L 120.878472 122.208663 
L 120.004384 121.423444 
L 119.368927 120.420208 
L 119.173196 119.856716 
L 118.996233 118.584767 
L 118.736152 118.031733 
L 117.038919 115.497869 
L 116.958482 114.900093 
L 116.867319 113.447626 
L 116.264037 112.561838 
L 116.210412 112.224966 
L 116.264037 110.56555 
L 116.617963 109.020252 
L 116.797607 108.772627 
L 116.703763 108.112199 
L 117.66097 106.72959 
L 117.68242 105.963519 
L 117.837932 105.619197 
L 117.907645 105.044037 
L 117.859382 103.888527 
L 117.663651 102.836945 
L 117.744088 102.445744 
L 118.036345 101.832563 
L 118.288383 100.73537 
L 117.923732 98.530013 
L 118.130189 97.179139 
L 118.569914 96.588673 
L 119.100802 94.353209 
L 119.041814 94.054485 
L 118.762964 93.219839 
L 118.977464 92.731887 
L 119.934671 92.215193 
L 120.33954 91.732406 
L 120.462878 90.594156 
L 120.33954 89.67164 
L 120.53259 89.48325 
L 119.744302 88.675061 
L 118.958696 88.22964 
L 118.028301 88.181872 
L 114.863083 89.086846 
L 113.876383 89.621026 
L 113.321364 89.422801 
L 112.337344 88.758676 
L 111.726019 88.718625 
L 111.661669 88.082125 
L 112.098713 86.774623 
L 112.870913 85.57039 
L 113.224839 84.458726 
L 113.704783 83.688284 
L 113.87102 82.895016 
L 114.482346 81.109206 
L 114.317449 79.905558 
L 113.700761 79.109588 
L 112.811926 78.621531 
L 110.673628 77.887573 
L 109.07158 76.525225 
L 108.071473 75.919105 
L 107.023103 75.553288 
L 106.317934 75.648226 
L 105.88089 75.243374 
L 105.509537 74.536476 
L 104.979989 74.108831 
L 104.352576 73.892602 
L 103.747954 73.909342 
L 103.558926 74.101158 
L 103.644726 74.714398 
L 103.371238 74.990732 
L 102.749188 74.865121 
L 101.679368 74.445079 
L 101.227578 74.601364 
L 100.95409 74.797434 
L 100.303886 74.666951 
L 100.067936 74.62997 
L 98.827857 74.706723 
L 98.327804 75.357143 
L 96.810215 75.48837 
L 96.331612 75.736188 
L 96.331612 75.919105 
L 96.847753 76.243091 
L 96.638615 76.560145 
L 95.481655 77.230735 
L 94.890439 77.201392 
L 94.649126 77.313177 
L 94.539195 77.553537 
L 94.560645 78.337702 
L 94.209401 79.260644 
L 93.279007 79.597064 
L 93.039035 80.263078 
L 92.276218 81.497047 
L 91.284155 83.448589 
L 91.018711 83.672864 
L 89.85907 84.153739 
L 88.712835 85.136874 
L 87.33199 86.5486 
L 86.573196 86.969782 
L 86.444496 87.212704 
L 85.670955 87.443015 
L 85.573089 87.926191 
L 85.868027 88.370141 
L 84.65342 88.64274 
L 84.070247 88.544375 
L 83.548744 88.185384 
L 83.247103 88.876727 
L 83.3691 89.713116 
L 83.731069 90.505542 
L 84.168113 91.07386 
L 85.495333 91.638817 
L 85.737986 92.384125 
L 86.220611 92.864249 
L 86.077164 93.178996 
L 86.133471 93.558587 
L 86.427068 94.754864 
L 86.220611 95.555588 
L 85.669614 96.34393 
L 85.670955 96.774895 
L 85.334458 97.148094 
L 85.248658 97.121284 
L 84.699001 97.148094 
L 84.082313 98.270922 
L 83.178731 99.216375 
L 82.433343 99.466403 
L 81.653099 99.349155 
L 80.878217 99.113265 
L 80.165004 99.013691 
L 80.32856 99.216375 
L 79.191868 98.944699 
L 78.475816 98.453765 
L 77.926159 98.285746 
L 76.976996 97.148094 
L 76.36567 97.119873 
L 73.952544 98.12127 
L 72.914899 97.730957 
L 72.708443 97.706962 
L 72.067624 97.777536 
L 70.391841 98.267392 
L 66.85527 97.997745 
L 66.336448 98.190447 
L 65.89002 99.337854 
L 65.326957 99.798408 
L 64.082856 100.636425 
L 63.821434 101.100801 
L 63.114924 101.627503 
L 62.95673 102.061689 
L 62.903105 102.569534 
L 62.971477 103.712283 
L 63.289205 103.888527 
L 63.219493 104.078236 
L 63.114924 104.177344 
L 63.243624 104.923641 
L 63.597549 105.52002 
L 63.76915 106.463807 
L 63.982309 106.712578 
L 63.773171 107.316556 
L 64.69016 107.570392 
L 64.611063 107.921416 
L 63.718206 109.188427 
L 63.289205 109.540431 
L 62.242177 110.104043 
L 61.543711 110.740238 
L 60.035506 111.1685 
L 59.514003 111.210408 
L 56.106132 109.188427 
L 55.642275 108.212208 
L 54.068381 107.154202 
L 53.686302 106.15625 
L 53.282774 105.674455 
L 52.757248 105.267849 
L 52.243789 105.027039 
L 50.159115 104.871236 
L 50.462097 105.374097 
L 51.00371 105.75947 
L 51.094872 106.15625 
L 50.956788 106.400024 
L 50.668553 106.465225 
L 50.294519 106.320653 
L 49.949978 105.933052 
L 49.424452 105.143191 
L 48.881499 105.027039 
L 48.310392 105.184271 
L 48.216549 105.494518 
L 48.523552 106.320653 
L 48.590583 106.906088 
L 48.480652 107.172635 
L 48.172308 107.152784 
L 46.904076 106.504913 
L 44.549937 106.421285 
L 44.25634 106.712578 
L 44.461455 106.940113 
L 44.611606 107.274726 
L 44.024411 107.352006 
L 43.708024 107.748379 
L 43.461349 108.398052 
L 42.99213 108.457639 
L 41.376675 108.893243 
L 41.018728 109.421197 
L 40.514653 109.558884 
L 39.281277 109.795954 
L 37.671185 109.898172 
L 38.042539 110.539987 
L 37.872279 110.949742 
L 37.364182 111.16779 
L 36.688507 111.228876 
L 35.169577 110.926305 
L 34.677568 111.228876 
L 34.481836 111.684234 
L 34.503286 112.239179 
L 34.677568 113.396431 
L 34.40408 113.791092 
L 33.780689 113.786825 
L 32.71221 113.483179 
L 32.033853 113.564242 
L 30.658371 114.439065 
L 30.339302 114.611227 
L 28.357857 116.017501 
L 27.841735 116.119487 
L 27.722401 116.115035 
L 27.48645 115.971939 
L 27.09901 115.285781 
L 25.976906 114.171602 
L 25.081368 113.687976 
L 24.035679 112.295321 
L 22.862632 112.05726 
L 21.629256 111.412144 
L 21.310187 111.042783 
L 21.282034 110.630879 
L 21.622553 108.471827 
L 22.111881 107.651938 
L 22.4095 106.721793 
L 22.544903 105.735382 
L 22.455081 104.580906 
L 21.940281 102.416743 
L 22.040828 101.266928 
L 22.767447 99.585071 
L 23.873464 97.97657 
L 25.210068 96.556932 
L 26.609681 95.439267 
L 28.499964 93.239557 
L 29.26412 91.989972 
L 30.368796 89.211944 
L 30.828631 88.821214 
L 31.637028 88.593557 
L 33.243098 88.35609 
L 33.650648 88.107412 
L 33.963014 87.351028 
L 34.476474 86.3605 
L 35.487306 85.08497 
L 36.130806 83.585955 
L 36.554444 81.997011 
L 36.43915 80.952411 
L 35.811737 80.129437 
L 33.752536 78.620133 
L 32.407888 77.999397 
L 31.964141 77.626209 
L 31.004253 76.186529 
L 29.988058 75.388553 
L 29.741383 75.006085 
L 29.652902 74.613225 
L 29.599277 73.754507 
L 29.451808 73.343069 
L 28.628664 72.202646 
L 28.560292 71.610389 
L 28.591126 69.517315 
L 28.174192 68.017468 
L 28.377967 67.612094 
L 29.167595 67.069873 
L 29.186364 66.767546 
L 28.840483 66.008807 
L 28.928964 65.426751 
L 29.218539 65.280917 
L 29.678374 65.293417 
L 30.285677 65.192033 
L 31.122228 64.696996 
L 31.443978 64.333956 
L 31.674566 63.887018 
L 31.704059 63.295191 
L 31.177102 62.433983 
L 30.691887 61.854885 
L 29.816458 60.291664 
L 29.404886 59.898287 
L 28.778814 59.856045 
L 28.575039 59.898287 
L 28.143357 60.154527 
L 27.711676 60.280582 
L 27.285357 60.215476 
L 26.682075 59.806187 
L 25.872337 59.68224 
L 25.152421 59.902442 
L 23.183041 60.439201 
L 22.485916 60.448899 
L 19.169207 60.01463 
L 18.693452 59.629205 
L 18.564585 58.976104 
L 18.807495 56.52778 
L 18.407732 56.165207 
L 17.799088 56.214279 
L 17.335231 55.68699 
L 16.310993 55.356731 
L 14.200848 55.293173 
L 11.066465 54.397369 
L 10.336062 53.847907 
L 10.145455 52.792604 
L 10.24332 52.225565 
L 10.610652 51.933144 
L 10.886821 51.860046 
L 11.29169 51.868321 
L 11.487421 50.983087 
L 11.815874 50.085865 
L 11.844028 49.102304 
L 12.015628 48.031163 
L 12.340059 47.006026 
L 12.578691 46.763928 
L 12.972835 46.725415 
L 13.889823 46.725415 
L 14.085554 46.550742 
L 13.90591 45.372466 
L 14.41937 44.975291 
L 16.493318 44.716967 
L 18.907785 43.34899 
L 19.871695 43.103245 
L 21.088984 43.123837 
L 29.953202 44.943686 
L 33.835655 45.038504 
L 35.955184 45.640504 
L 37.227438 45.713361 
L 38.51578 45.617135 
L 40.621903 45.094847 
L 40.617163 45.086205 
L 40.343053 44.586444 
L 40.694297 44.188062 
L 41.801654 43.629097 
L 42.426385 43.108736 
L 42.772267 42.585776 
L 42.914373 41.947715 
L 43.174455 37.67219 
L 43.44258 37.102864 
L 44.088761 37.232863 
L 44.970893 36.615792 
L 45.397212 36.868889 
L 46.088975 37.755687 
L 46.437538 37.896683 
L 46.611819 37.724204 
L 46.850451 36.893517 
L 47.308945 36.760806 
L 47.623992 36.253308 
L 47.630695 35.881323 
L 46.799507 34.33948 
L 46.707004 33.844942 
L 46.885307 33.638697 
L 47.42692 33.932365 
L 47.955127 34.839617 
L 48.350611 35.983885 
L 48.944508 36.704714 
L 50.047844 36.342212 
L 49.960703 35.754154 
L 47.547576 33.018734 
L 47.508698 32.770261 
L 47.475182 32.027775 
L 47.014007 31.738506 
L 46.959041 31.50112 
L 47.295539 31.015532 
L 47.703089 31.27195 
L 48.292964 32.097371 
L 48.628121 32.014129 
L 49.54779 31.386532 
L 50.073315 31.254218 
L 51.960917 31.486114 
L 52.550792 31.411086 
L 52.762611 31.087816 
L 52.80283 30.703241 
L 52.550792 29.930245 
L 51.341548 29.250224 
L 45.021837 30.212412 
L 44.104849 29.93706 
L 42.943867 29.368767 
L 42.273554 28.791116 
L 42.815167 28.49555 
L 45.890563 27.939961 
L 47.393404 28.144202 
L 48.000708 28.081565 
L 49.41909 27.512491 
L 53.63938 27.00347 
L 54.230596 27.079678 
L 55.942576 27.752079 
L 58.275265 28.296716 
L 59.566287 28.3294 
L 60.540922 27.980807 
L 60.540922 27.35732 
L 58.653321 26.037541 
L 58.546071 25.259731 
L 59.227109 25.193116 
L 60.225875 25.489504 
L 61.061085 25.378013 
L 61.252795 24.089568 
L 61.087898 23.506808 
L 60.806366 23.00842 
L 59.878653 21.598202 
L 59.320953 20.119953 
L 58.277946 18.759416 
L 58.288671 18.217659 
L 59.217725 17.726157 
L 60.79296 17.624624 
L 61.165654 17.45 
L 61.272904 17.095391 
L 61.094601 15.703356 
L 61.109348 14.740799 
L 61.291673 13.957081 
L 61.691179 13.276338 
L 62.72078 12.386637 
L 63.135033 12.21118 
L 63.978287 11.999305 
L 64.447506 12.039789 
L 65.522688 12.709254 
L 66.351195 12.771354 
L 66.938389 13.191264 
L 68.254884 14.608354 
L 69.196003 15.203086 
L 69.93871 16.098264 
L 70.265823 16.326864 
L 71.064836 16.55414 
L 71.75928 16.390444 
L 72.378649 15.967069 
L 73.467237 14.907046 
L 73.980697 14.575919 
L 74.551804 14.357004 
L 79.333816 13.206118 
L 81.787161 11.761819 
L 84.479138 10.945707 
L 86.357355 10.081447 
L 87.797187 8.797304 
L 88.514422 6.050279 
L 89.490398 5.85394 
L 90.646017 6.21974 
L 97.375959 11.915642 
L 97.325016 12.398785 
L 96.814237 12.253018 
L 95.911996 11.652533 
L 95.394514 11.695707 
L 95.15052 12.026294 
L 95.21353 12.475722 
L 95.619739 12.87801 
L 97.992647 13.299296 
L 98.98471 13.739593 
L 98.700498 14.850277 
L 98.207147 15.153067 
L 98.075766 15.377488 
L 97.430925 15.53433 
L 95.094214 17.027726 
L 93.852794 18.114744 
L 92.3647 18.735034 
L 91.478546 19.817672 
L 91.22919 19.896287 
L 89.443476 20.218916 
L 88.672616 20.603979 
L 88.262385 21.11255 
L 88.391085 21.858717 
L 89.069441 22.594334 
L 88.718197 23.508167 
L 90.554855 24.075982 
L 92.104618 23.878992 
L 92.678406 24.065113 
L 93.367488 24.940273 
L 93.713369 26.157234 
L 94.177226 27.275656 
L 95.222914 27.859632 
L 96.316865 27.914092 
L 97.429584 27.843295 
L 101.127031 26.958563 
L 103.961114 26.837457 
L 103.961114 26.837457 
" clip-path="url(#peb62809647)" style="fill: none; stroke: #000000; stroke-width: 0.5; stroke-linecap: square"/>
   </g>
  </g>
 </g>
 <defs>
  <clipPath id="peb62809647">
   <rect x="0" y="-0" width="223.2" height="128.786685"/>
  </clipPath>
 </defs>
</svg>
