<?xml version="1.0" encoding="utf-8" standalone="no"?>
<!DOCTYPE svg PUBLIC "-//W3C//DTD SVG 1.1//EN"
  "http://www.w3.org/Graphics/SVG/1.1/DTD/svg11.dtd">
<svg xmlns:xlink="http://www.w3.org/1999/xlink" width="223.2pt" height="47.125424pt" viewBox="0 0 223.2 47.125424" xmlns="http://www.w3.org/2000/svg" version="1.1">
 <metadata>
  <rdf:RDF xmlns:dc="http://purl.org/dc/elements/1.1/" xmlns:cc="http://creativecommons.org/ns#" xmlns:rdf="http://www.w3.org/1999/02/22-rdf-syntax-ns#">
   <cc:Work>
    <dc:type rdf:resource="http://purl.org/dc/dcmitype/StillImage"/>
    <dc:date>2026-04-26T19:22:31.802982</dc:date>
    <dc:format>image/svg+xml</dc:format>
    <dc:creator>
     <cc:Agent>
      <dc:title>Matplotlib v3.10.9, https://matplotlib.org/</dc:title>
     </cc:Agent>
    </dc:creator>
   </cc:Work>
  </rdf:RDF>
 </metadata>
 <defs>
  <style type="text/css">*{stroke-linejoin: round; stroke-linecap: butt}</style>
 </defs>
 <g id="figure_1">
  <g id="patch_1">
   <path d="M 0 47.125424 
L 223.2 47.125424 
L 223.2 0 
L 0 0 
z
" style="fill: #ffffff"/>
  </g>
  <g id="axes_1">
   <g id="patch_2">
    <path d="M 63.190207 6.674303 
L 62.803954 2.142065 
L 67.95394 3.239818 
L 97.566301 2.690852 
L 123.573686 3.651643 
L 128.208668 3.377084 
L 145.718593 4.200878 
L 165.80351 4.475552 
L 166.189739 4.063555 
L 213.054545 4.33821 
L 212.024539 10.252478 
L 207.647058 11.492596 
L 204.685836 16.184378 
L 200.437106 15.217516 
L 191.16714 20.056411 
L 190.523386 17.566389 
L 187.304662 19.226056 
L 182.154676 24.90686 
L 176.103458 26.294807 
L 170.309742 30.186085 
L 163.872271 30.325196 
L 158.078531 34.08466 
L 156.276043 38.269801 
L 151.64106 38.828457 
L 150.997329 44.843275 
L 120.741215 44.983359 
L 79.541397 44.563135 
L 59.713982 44.7032 
L 53.405262 44.7032 
L 10.145455 44.7032 
L 12.462946 44.002989 
L 14.780437 39.526986 
L 14.394185 33.387941 
L 18.771666 29.212572 
L 19.544147 25.323153 
L 23.020396 23.935839 
L 23.792877 19.226056 
L 28.42786 12.871382 
L 28.299109 6.674303 
L 29.586618 6.674303 
L 31.131604 6.674303 
L 33.964099 6.399322 
z
" clip-path="url(#p729311447e)" style="stroke: #000000; stroke-linejoin: miter"/>
   </g>
   <g id="line2d_1">
    <path d="M 63.190207 6.674303 
L 62.803954 2.142065 
L 67.95394 3.239818 
L 97.566301 2.690852 
L 123.573686 3.651643 
L 128.208668 3.377084 
L 145.718593 4.200878 
L 165.80351 4.475552 
L 166.189739 4.063555 
L 213.054545 4.33821 
L 212.024539 10.252478 
L 207.647058 11.492596 
L 204.685836 16.184378 
L 200.437106 15.217516 
L 191.16714 20.056411 
L 190.523386 17.566389 
L 187.304662 19.226056 
L 182.154676 24.90686 
L 176.103458 26.294807 
L 170.309742 30.186085 
L 163.872271 30.325196 
L 158.078531 34.08466 
L 156.276043 38.269801 
L 151.64106 38.828457 
L 150.997329 44.843275 
L 120.741215 44.983359 
L 79.541397 44.563135 
L 59.713982 44.7032 
L 53.405262 44.7032 
L 10.145455 44.7032 
L 12.462946 44.002989 
L 14.780437 39.526986 
L 14.394185 33.387941 
L 18.771666 29.212572 
L 19.544147 25.323153 
L 23.020396 23.935839 
L 23.792877 19.226056 
L 28.42786 12.871382 
L 28.299109 6.674303 
L 29.586618 6.674303 
L 31.131604 6.674303 
L 33.964099 6.399322 
L 63.190207 6.674303 
" clip-path="url(#p729311447e)" style="fill: none; stroke: #000000; stroke-width: 0.5; stroke-linecap: square"/>
   </g>
  </g>
 </g>
 <defs>
  <clipPath id="p729311447e">
   <rect x="0" y="-0" width="223.2" height="47.125424"/>
  </clipPath>
 </defs>
</svg>
