<?xml version="1.0" encoding="utf-8" standalone="no"?>
<!DOCTYPE svg PUBLIC "-//W3C//DTD SVG 1.1//EN"
  "http://www.w3.org/Graphics/SVG/1.1/DTD/svg11.dtd">
<svg xmlns:xlink="http://www.w3.org/1999/xlink" width="223.2pt" height="204.715645pt" viewBox="0 0 223.2 204.715645" xmlns="http://www.w3.org/2000/svg" version="1.1">
 <metadata>
  <rdf:RDF xmlns:dc="http://purl.org/dc/elements/1.1/" xmlns:cc="http://creativecommons.org/ns#" xmlns:rdf="http://www.w3.org/1999/02/22-rdf-syntax-ns#">
   <cc:Work>
    <dc:type rdf:resource="http://purl.org/dc/dcmitype/StillImage"/>
    <dc:date>2026-04-26T19:22:31.939950</dc:date>
    <dc:format>image/svg+xml</dc:format>
    <dc:creator>
     <cc:Agent>
      <dc:title>Matplotlib v3.10.9, https://matplotlib.org/</dc:title>
     </cc:Agent>
    </dc:creator>
   </cc:Work>
  </rdf:RDF>
 </metadata>
 <defs>
  <style type="text/css">*{stroke-linejoin: round; stroke-linecap: butt}</style>
 </defs>
 <g id="figure_1">
  <g id="patch_1">
   <path d="M 0 204.715645 
L 223.2 204.715645 
L 223.2 0 
L 0 0 
z
" style="fill: #ffffff"/>
  </g>
  <g id="axes_1">
   <g id="patch_2">
    <path d="M 84.870217 9.305257 
L 112.913181 9.305257 
L 112.913181 41.720494 
L 114.099286 41.535212 
L 117.572894 44.781082 
L 119.436782 44.224122 
L 124.350647 44.409751 
L 125.452029 47.662092 
L 128.586745 47.476046 
L 131.975629 48.965063 
L 135.025622 48.778851 
L 136.296449 50.176003 
L 138.245045 48.592662 
L 141.210315 49.337558 
L 142.481143 51.201439 
L 144.683922 51.48121 
L 145.870027 53.814827 
L 148.581128 51.574485 
L 152.224181 52.880949 
L 153.579732 54.281995 
L 155.358881 53.628 
L 156.629709 55.777901 
L 160.526931 51.947642 
L 161.628313 53.908248 
L 165.017197 53.908248 
L 168.23662 55.12325 
L 169.422725 56.620001 
L 172.472718 54.001676 
L 175.776879 53.161038 
L 177.301876 54.09511 
L 180.944913 52.414222 
L 181.792142 53.347806 
L 185.774071 53.441198 
L 186.79073 51.947642 
L 190.772659 53.628 
L 192.297656 55.590829 
L 198.228196 57.462592 
L 199.837915 59.055427 
L 202.887908 58.211942 
L 205.090672 58.961683 
L 205.090672 68.081753 
L 205.090672 85.815685 
L 208.479556 89.634578 
L 208.564279 93.462368 
L 212.800377 100.566993 
L 213.054545 104.323339 
L 211.444826 108.861168 
L 209.91983 110.698987 
L 210.428167 113.120122 
L 209.32677 114.962411 
L 210.51289 118.36112 
L 206.869837 124.690157 
L 208.225388 126.446732 
L 205.683732 126.54437 
L 197.635151 128.986977 
L 194.754604 127.618714 
L 194.246267 124.690157 
L 192.212933 126.739644 
L 190.772659 126.251471 
L 190.010169 128.791446 
L 191.619888 129.867124 
L 191.874057 133.195868 
L 188.99351 136.726895 
L 184.333798 141.150036 
L 175.014389 145.879371 
L 174.082437 145.090331 
L 171.286613 146.274012 
L 171.20189 145.188944 
L 167.389407 145.978024 
L 165.610242 143.710306 
L 164.50886 144.203065 
L 168.575512 148.841102 
L 165.610242 150.32366 
L 162.814418 149.433997 
L 162.390803 152.698099 
L 158.917212 156.066779 
L 155.358881 162.323816 
L 153.071395 168.899607 
L 151.376952 168.400696 
L 150.953338 170.796549 
L 152.732503 170.197321 
L 151.88529 174.995927 
L 150.699185 175.196111 
L 150.614462 177.900433 
L 152.054735 179.404322 
L 152.478334 184.927658 
L 154.172777 186.839025 
L 154.596391 190.364362 
L 155.951942 193.491539 
L 151.207507 195.410388 
L 149.258911 192.986869 
L 145.615858 192.078718 
L 140.786716 192.280497 
L 136.635341 189.255793 
L 133.500625 188.953548 
L 131.1284 186.537115 
L 127.908977 185.732246 
L 125.706197 183.419881 
L 124.265924 177.900433 
L 121.4701 174.595636 
L 121.808991 171.795629 
L 120.538164 168.799815 
L 120.961778 166.206962 
L 119.013167 163.318779 
L 117.403448 163.020233 
L 114.777069 160.434717 
L 113.929856 157.157865 
L 111.642354 154.183572 
L 108.338192 151.708393 
L 106.728488 146.274012 
L 105.203492 144.794525 
L 103.170158 140.461309 
L 102.492391 136.923261 
L 100.54378 134.372137 
L 97.239618 132.118256 
L 96.477128 130.551954 
L 93.427135 129.182529 
L 91.054925 125.275482 
L 84.277157 124.397556 
L 80.210505 124.592618 
L 76.736913 123.227641 
L 75.974407 125.080347 
L 72.246647 125.665815 
L 69.450822 129.378102 
L 67.75638 135.352924 
L 66.824444 135.451033 
L 64.706387 138.986322 
L 62.164732 139.08462 
L 58.352249 136.334242 
L 48.778656 131.922394 
L 46.914783 129.573695 
L 43.187007 127.325644 
L 40.560629 122.253274 
L 40.391183 117.680852 
L 37.764805 113.992536 
L 37.17176 110.795769 
L 35.477318 108.764493 
L 29.462055 105.770286 
L 26.242617 101.72191 
L 23.616238 100.278382 
L 20.820414 96.81892 
L 16.923208 94.995954 
L 14.212106 90.399434 
L 11.924604 89.443419 
L 10.145455 87.437631 
L 10.569053 85.720326 
L 65.468893 85.720326 
L 65.468893 68.364687 
L 65.807769 51.014943 
L 65.892492 9.305257 
L 66.485552 9.305257 
z
" clip-path="url(#pcd953d51b0)" style="stroke: #000000; stroke-linejoin: miter"/>
   </g>
   <g id="line2d_1">
    <path d="M 84.870217 9.305257 
L 112.913181 9.305257 
L 112.913181 41.720494 
L 114.099286 41.535212 
L 117.572894 44.781082 
L 119.436782 44.224122 
L 124.350647 44.409751 
L 125.452029 47.662092 
L 128.586745 47.476046 
L 131.975629 48.965063 
L 135.025622 48.778851 
L 136.296449 50.176003 
L 138.245045 48.592662 
L 141.210315 49.337558 
L 142.481143 51.201439 
L 144.683922 51.48121 
L 145.870027 53.814827 
L 148.581128 51.574485 
L 152.224181 52.880949 
L 153.579732 54.281995 
L 155.358881 53.628 
L 156.629709 55.777901 
L 160.526931 51.947642 
L 161.628313 53.908248 
L 165.017197 53.908248 
L 168.23662 55.12325 
L 169.422725 56.620001 
L 172.472718 54.001676 
L 175.776879 53.161038 
L 177.301876 54.09511 
L 180.944913 52.414222 
L 181.792142 53.347806 
L 185.774071 53.441198 
L 186.79073 51.947642 
L 190.772659 53.628 
L 192.297656 55.590829 
L 198.228196 57.462592 
L 199.837915 59.055427 
L 202.887908 58.211942 
L 205.090672 58.961683 
L 205.090672 85.815685 
L 208.479556 89.634578 
L 208.564279 93.462368 
L 212.800377 100.566993 
L 213.054545 104.323339 
L 211.444826 108.861168 
L 209.91983 110.698987 
L 210.428167 113.120122 
L 209.32677 114.962411 
L 210.51289 118.36112 
L 206.869837 124.690157 
L 208.225388 126.446732 
L 205.683732 126.54437 
L 197.635151 128.986977 
L 194.754604 127.618714 
L 194.246267 124.690157 
L 192.212933 126.739644 
L 190.772659 126.251471 
L 190.010169 128.791446 
L 191.619888 129.867124 
L 191.874057 133.195868 
L 188.99351 136.726895 
L 184.333798 141.150036 
L 175.014389 145.879371 
L 174.082437 145.090331 
L 171.286613 146.274012 
L 171.20189 145.188944 
L 167.389407 145.978024 
L 165.610242 143.710306 
L 164.50886 144.203065 
L 168.575512 148.841102 
L 165.610242 150.32366 
L 162.814418 149.433997 
L 162.390803 152.698099 
L 158.917212 156.066779 
L 155.358881 162.323816 
L 153.071395 168.899607 
L 151.376952 168.400696 
L 150.953338 170.796549 
L 152.732503 170.197321 
L 151.88529 174.995927 
L 150.699185 175.196111 
L 150.614462 177.900433 
L 152.054735 179.404322 
L 152.478334 184.927658 
L 154.172777 186.839025 
L 154.596391 190.364362 
L 155.951942 193.491539 
L 151.207507 195.410388 
L 149.258911 192.986869 
L 145.615858 192.078718 
L 140.786716 192.280497 
L 136.635341 189.255793 
L 133.500625 188.953548 
L 131.1284 186.537115 
L 127.908977 185.732246 
L 125.706197 183.419881 
L 124.265924 177.900433 
L 121.4701 174.595636 
L 121.808991 171.795629 
L 120.538164 168.799815 
L 120.961778 166.206962 
L 119.013167 163.318779 
L 117.403448 163.020233 
L 114.777069 160.434717 
L 113.929856 157.157865 
L 111.642354 154.183572 
L 108.338192 151.708393 
L 106.728488 146.274012 
L 105.203492 144.794525 
L 103.170158 140.461309 
L 102.492391 136.923261 
L 100.54378 134.372137 
L 97.239618 132.118256 
L 96.477128 130.551954 
L 93.427135 129.182529 
L 91.054925 125.275482 
L 84.277157 124.397556 
L 80.210505 124.592618 
L 76.736913 123.227641 
L 75.974407 125.080347 
L 72.246647 125.665815 
L 69.450822 129.378102 
L 67.75638 135.352924 
L 66.824444 135.451033 
L 64.706387 138.986322 
L 62.164732 139.08462 
L 58.352249 136.334242 
L 48.778656 131.922394 
L 46.914783 129.573695 
L 43.187007 127.325644 
L 40.560629 122.253274 
L 40.391183 117.680852 
L 37.764805 113.992536 
L 37.17176 110.795769 
L 35.477318 108.764493 
L 29.462055 105.770286 
L 26.242617 101.72191 
L 23.616238 100.278382 
L 20.820414 96.81892 
L 16.923208 94.995954 
L 14.212106 90.399434 
L 11.924604 89.443419 
L 10.145455 87.437631 
L 10.569053 85.720326 
L 65.468893 85.720326 
L 65.468893 68.364687 
L 65.807769 51.014943 
L 65.892492 9.305257 
L 84.870217 9.305257 
L 84.870217 9.305257 
" clip-path="url(#pcd953d51b0)" style="fill: none; stroke: #000000; stroke-width: 0.5; stroke-linecap: square"/>
   </g>
  </g>
 </g>
 <defs>
  <clipPath id="pcd953d51b0">
   <rect x="0" y="0" width="223.2" height="204.715645"/>
  </clipPath>
 </defs>
</svg>
