<?xml version="1.0" encoding="utf-8" standalone="no"?>
<!DOCTYPE svg PUBLIC "-//W3C//DTD SVG 1.1//EN"
  "http://www.w3.org/Graphics/SVG/1.1/DTD/svg11.dtd">
<svg xmlns:xlink="http://www.w3.org/1999/xlink" width="142.882428pt" height="221.76pt" viewBox="0 0 142.882428 221.76" xmlns="http://www.w3.org/2000/svg" version="1.1">
 <metadata>
  <rdf:RDF xmlns:dc="http://purl.org/dc/elements/1.1/" xmlns:cc="http://creativecommons.org/ns#" xmlns:rdf="http://www.w3.org/1999/02/22-rdf-syntax-ns#">
   <cc:Work>
    <dc:type rdf:resource="http://purl.org/dc/dcmitype/StillImage"/>
    <dc:date>2026-04-26T19:22:16.757679</dc:date>
    <dc:format>image/svg+xml</dc:format>
    <dc:creator>
     <cc:Agent>
      <dc:title>Matplotlib v3.10.9, https://matplotlib.org/</dc:title>
     </cc:Agent>
    </dc:creator>
   </cc:Work>
  </rdf:RDF>
 </metadata>
 <defs>
  <style type="text/css">*{stroke-linejoin: round; stroke-linecap: butt}</style>
 </defs>
 <g id="figure_1">
  <g id="patch_1">
   <path d="M 0 221.76 
L 142.882428 221.76 
L 142.882428 0 
L 0 0 
z
" style="fill: #ffffff"/>
  </g>
  <g id="axes_1">
   <g id="patch_2">
    <path d="M 22.52787 128.088402 
L 24.454483 126.769996 
L 25.848358 125.152838 
L 26.162162 123.149099 
L 24.863158 120.706142 
L 27.213042 116.989395 
L 30.088366 117.103614 
L 32.511227 119.968024 
L 33.547512 124.467332 
L 33.335876 128.176298 
L 32.671779 131.428646 
L 31.51873 134.338504 
L 29.87673 137.072819 
L 26.731389 139.49964 
L 26.198651 140.027238 
L 26.556242 142.155319 
L 27.41738 144.046107 
L 28.730979 144.837638 
L 33.562107 141.460597 
L 36.218498 140.616401 
L 37.678053 138.901708 
L 37.225591 134.118715 
L 40.713928 135.964993 
L 40.743119 139.851371 
L 39.809004 144.389101 
L 40.341741 148.206294 
L 43.311936 150.211851 
L 45.00502 147.485033 
L 45.420993 142.718145 
L 44.567154 138.549989 
L 46.289429 139.394122 
L 48.15766 140.616401 
L 49.76317 141.152814 
L 50.697286 140.027238 
L 50.587819 136.923348 
L 49.266921 134.769294 
L 47.457073 133.046173 
L 45.902647 131.164928 
L 45.676416 129.881536 
L 46.085091 126.611792 
L 45.902647 125.267091 
L 44.80798 123.658808 
L 42.005634 120.829163 
L 40.90367 119.247501 
L 40.188488 116.225021 
L 39.692239 112.825128 
L 38.590275 110.795935 
L 35.999564 111.867611 
L 37.896986 113.659688 
L 38.568382 117.015753 
L 38.451617 125.267091 
L 36.758533 122.97334 
L 35.612782 119.458384 
L 34.211609 116.225021 
L 31.71577 114.819329 
L 31.409263 113.194088 
L 31.934703 109.495925 
L 33.547512 103.023143 
L 36.291476 99.861961 
L 40.217679 96.306066 
L 42.968941 92.013269 
L 42.231865 86.694296 
L 43.932247 85.377879 
L 48.617419 84.368669 
L 49.580726 83.069914 
L 50.128059 80.34975 
L 52.580112 75.103233 
L 53.134743 72.103171 
L 54.747551 71.901424 
L 54.112645 70.217337 
L 52.667685 67.963278 
L 51.923312 66.068962 
L 52.295499 64.367697 
L 53.258805 61.368821 
L 54.638085 58.528086 
L 56.258191 57.2481 
L 57.659364 54.539286 
L 57.265284 48.482693 
L 55.586796 38.808986 
L 53.652885 31.985151 
L 49.909126 23.052835 
L 47.50086 14.832476 
L 49.580726 10.08 
L 52.602005 10.263782 
L 59.118919 11.629057 
L 61.833692 12.889373 
L 64.030322 15.147587 
L 65.256349 17.546054 
L 66.745095 19.471986 
L 69.722588 20.242397 
L 72.459254 18.981736 
L 75.101049 16.618155 
L 77.845012 15.165093 
L 80.924674 16.635662 
L 83.208878 18.456477 
L 85.726611 19.927226 
L 88.15677 21.800797 
L 90.090681 24.777767 
L 87.419695 28.140389 
L 86.967233 31.932599 
L 88.383001 35.46255 
L 91.331303 38.003 
L 89.07629 46.502105 
L 88.35381 51.804448 
L 89.426583 54.171119 
L 92.710582 54.723372 
L 95.403462 56.485397 
L 97.746048 59.702922 
L 108.656223 89.379984 
L 116.581608 102.399659 
L 119.559101 105.921215 
L 122.609571 107.449412 
L 124.769713 108.872293 
L 131.410689 116.154734 
L 133.074582 119.247501 
L 133.264324 123.131523 
L 132.972413 128.422408 
L 132.249933 133.38903 
L 131.17716 136.334263 
L 130.140876 140.449324 
L 131.593133 145.734733 
L 135.526635 154.918442 
L 136.387772 162.547453 
L 134.745773 168.092338 
L 130.58604 171.490226 
L 123.835597 172.634686 
L 121.077038 173.585504 
L 119.20151 175.768986 
L 117.632488 178.234412 
L 115.808044 180.013177 
L 110.363903 180.805732 
L 108.955432 182.672729 
L 111.035298 187.411234 
L 108.889752 189.824833 
L 102.343647 194.802437 
L 99.103434 195.886174 
L 92.863836 195.93904 
L 90.71829 197.022821 
L 83.654042 202.733188 
L 82.749118 204.478254 
L 83.114007 206.373271 
L 83.712424 208.127378 
L 83.843784 209.722917 
L 82.749118 211.20394 
L 81.019545 211.68 
L 79.311865 211.009992 
L 77.779332 209.705286 
L 76.633582 208.241972 
L 74.590204 202.283719 
L 73.444453 194.881733 
L 71.568925 188.591581 
L 67.394597 185.931466 
L 61.884776 183.289218 
L 60.680643 176.896011 
L 61.833692 162.160232 
L 58.600777 164.9413 
L 56.389551 167.828271 
L 53.652885 170.099331 
L 48.916628 171.023653 
L 45.33342 169.976091 
L 22.878163 155.921445 
L 12.143134 144.987152 
L 8.727775 140.502085 
L 6.494656 135.595728 
L 8.895624 134.945129 
L 12.61749 133.072546 
L 16.032849 130.795727 
L 17.521595 128.897056 
L 18.076226 125.891094 
L 19.389826 126.163551 
L 21.053719 127.613769 
z
" clip-path="url(#pb8cfcd1562)" style="stroke: #000000; stroke-linejoin: miter"/>
   </g>
   <g id="line2d_1">
    <path d="M 22.52787 128.088402 
L 24.454483 126.769996 
L 25.848358 125.152838 
L 26.162162 123.149099 
L 24.863158 120.706142 
L 27.213042 116.989395 
L 30.088366 117.103614 
L 32.511227 119.968024 
L 33.547512 124.467332 
L 33.335876 128.176298 
L 32.671779 131.428646 
L 31.51873 134.338504 
L 29.87673 137.072819 
L 26.198651 140.027238 
L 26.556242 142.155319 
L 27.41738 144.046107 
L 28.730979 144.837638 
L 33.562107 141.460597 
L 36.218498 140.616401 
L 37.678053 138.901708 
L 37.225591 134.118715 
L 40.713928 135.964993 
L 40.743119 139.851371 
L 39.809004 144.389101 
L 40.341741 148.206294 
L 43.311936 150.211851 
L 45.00502 147.485033 
L 45.420993 142.718145 
L 44.567154 138.549989 
L 46.289429 139.394122 
L 48.15766 140.616401 
L 49.76317 141.152814 
L 50.697286 140.027238 
L 50.587819 136.923348 
L 49.266921 134.769294 
L 47.457073 133.046173 
L 45.902647 131.164928 
L 45.676416 129.881536 
L 46.085091 126.611792 
L 45.902647 125.267091 
L 44.80798 123.658808 
L 42.005634 120.829163 
L 40.90367 119.247501 
L 40.188488 116.225021 
L 39.692239 112.825128 
L 38.590275 110.795935 
L 35.999564 111.867611 
L 37.896986 113.659688 
L 38.568382 117.015753 
L 38.451617 125.267091 
L 36.758533 122.97334 
L 35.612782 119.458384 
L 34.211609 116.225021 
L 31.71577 114.819329 
L 31.409263 113.194088 
L 31.934703 109.495925 
L 33.547512 103.023143 
L 36.291476 99.861961 
L 40.217679 96.306066 
L 42.968941 92.013269 
L 42.231865 86.694296 
L 43.932247 85.377879 
L 48.617419 84.368669 
L 49.580726 83.069914 
L 50.128059 80.34975 
L 52.580112 75.103233 
L 53.134743 72.103171 
L 54.747551 71.901424 
L 54.112645 70.217337 
L 52.667685 67.963278 
L 51.923312 66.068962 
L 52.295499 64.367697 
L 53.258805 61.368821 
L 54.638085 58.528086 
L 56.258191 57.2481 
L 57.659364 54.539286 
L 57.265284 48.482693 
L 55.586796 38.808986 
L 53.652885 31.985151 
L 49.909126 23.052835 
L 47.50086 14.832476 
L 49.580726 10.08 
L 52.602005 10.263782 
L 59.118919 11.629057 
L 61.833692 12.889373 
L 64.030322 15.147587 
L 65.256349 17.546054 
L 66.745095 19.471986 
L 69.722588 20.242397 
L 72.459254 18.981736 
L 75.101049 16.618155 
L 77.845012 15.165093 
L 80.924674 16.635662 
L 83.208878 18.456477 
L 85.726611 19.927226 
L 88.15677 21.800797 
L 90.090681 24.777767 
L 87.419695 28.140389 
L 86.967233 31.932599 
L 88.383001 35.46255 
L 91.331303 38.003 
L 89.07629 46.502105 
L 88.35381 51.804448 
L 89.426583 54.171119 
L 92.710582 54.723372 
L 95.403462 56.485397 
L 97.746048 59.702922 
L 108.656223 89.379984 
L 116.581608 102.399659 
L 119.559101 105.921215 
L 122.609571 107.449412 
L 124.769713 108.872293 
L 131.410689 116.154734 
L 133.074582 119.247501 
L 133.264324 123.131523 
L 132.972413 128.422408 
L 132.249933 133.38903 
L 131.17716 136.334263 
L 130.140876 140.449324 
L 131.593133 145.734733 
L 135.526635 154.918442 
L 136.387772 162.547453 
L 134.745773 168.092338 
L 130.58604 171.490226 
L 123.835597 172.634686 
L 121.077038 173.585504 
L 119.20151 175.768986 
L 117.632488 178.234412 
L 115.808044 180.013177 
L 110.363903 180.805732 
L 108.955432 182.672729 
L 111.035298 187.411234 
L 108.889752 189.824833 
L 102.343647 194.802437 
L 99.103434 195.886174 
L 92.863836 195.93904 
L 90.71829 197.022821 
L 83.654042 202.733188 
L 82.749118 204.478254 
L 83.114007 206.373271 
L 83.712424 208.127378 
L 83.843784 209.722917 
L 82.749118 211.20394 
L 81.019545 211.68 
L 79.311865 211.009992 
L 77.779332 209.705286 
L 76.633582 208.241972 
L 74.590204 202.283719 
L 73.444453 194.881733 
L 71.568925 188.591581 
L 67.394597 185.931466 
L 61.884776 183.289218 
L 60.680643 176.896011 
L 61.833692 162.160232 
L 58.600777 164.9413 
L 56.389551 167.828271 
L 53.652885 170.099331 
L 48.916628 171.023653 
L 45.33342 169.976091 
L 22.878163 155.921445 
L 12.143134 144.987152 
L 8.727775 140.502085 
L 6.494656 135.595728 
L 8.895624 134.945129 
L 12.61749 133.072546 
L 16.032849 130.795727 
L 17.521595 128.897056 
L 18.076226 125.891094 
L 19.389826 126.163551 
L 21.053719 127.613769 
L 22.52787 128.088402 
L 22.52787 128.088402 
" clip-path="url(#pb8cfcd1562)" style="fill: none; stroke: #000000; stroke-width: 0.5; stroke-linecap: square"/>
   </g>
  </g>
 </g>
 <defs>
  <clipPath id="pb8cfcd1562">
   <rect x="0" y="-0" width="142.882428" height="221.76"/>
  </clipPath>
 </defs>
</svg>
