<?xml version="1.0" encoding="utf-8" standalone="no"?>
<!DOCTYPE svg PUBLIC "-//W3C//DTD SVG 1.1//EN"
  "http://www.w3.org/Graphics/SVG/1.1/DTD/svg11.dtd">
<svg xmlns:xlink="http://www.w3.org/1999/xlink" width="65.654098pt" height="221.76pt" viewBox="0 0 65.654098 221.76" xmlns="http://www.w3.org/2000/svg" version="1.1">
 <metadata>
  <rdf:RDF xmlns:dc="http://purl.org/dc/elements/1.1/" xmlns:cc="http://creativecommons.org/ns#" xmlns:rdf="http://www.w3.org/1999/02/22-rdf-syntax-ns#">
   <cc:Work>
    <dc:type rdf:resource="http://purl.org/dc/dcmitype/StillImage"/>
    <dc:date>2026-04-26T19:22:10.355276</dc:date>
    <dc:format>image/svg+xml</dc:format>
    <dc:creator>
     <cc:Agent>
      <dc:title>Matplotlib v3.10.9, https://matplotlib.org/</dc:title>
     </cc:Agent>
    </dc:creator>
   </cc:Work>
  </rdf:RDF>
 </metadata>
 <defs>
  <style type="text/css">*{stroke-linejoin: round; stroke-linecap: butt}</style>
 </defs>
 <g id="figure_1">
  <g id="patch_1">
   <path d="M 0 221.76 
L 65.654098 221.76 
L 65.654098 0 
L 0 0 
z
" style="fill: #ffffff"/>
  </g>
  <g id="axes_1">
   <g id="patch_2">
    <path d="M 2.984277 10.08 
L 4.547956 10.490403 
L 6.139118 10.908033 
L 9.897859 11.892297 
L 16.881092 13.720284 
L 19.552859 14.421374 
L 22.978657 15.320386 
L 23.045142 15.376913 
L 23.086299 15.467356 
L 23.102128 15.592743 
L 23.060971 15.769522 
L 23.03881 15.934997 
L 22.994487 16.097391 
L 22.886846 16.255676 
L 23.380729 16.414991 
L 23.010316 18.103858 
L 26.837916 16.380045 
L 28.759631 15.904163 
L 31.707104 15.831189 
L 35.686668 15.736633 
L 34.901519 18.186098 
L 34.812874 18.976652 
L 34.88569 19.405362 
L 35.142129 20.213474 
L 35.186452 20.644284 
L 34.708398 21.81752 
L 34.648246 22.243245 
L 34.600757 23.152329 
L 34.505779 23.561645 
L 34.110039 24.293922 
L 32.444764 26.332598 
L 32.004701 27.663781 
L 32.248477 31.251691 
L 32.226315 32.808796 
L 31.776754 35.027979 
L 31.349355 39.131816 
L 31.374682 40.048307 
L 31.621624 40.648696 
L 33.939079 42.638522 
L 36.851727 45.136539 
L 38.616073 46.650314 
L 41.223865 48.888073 
L 45.611833 52.653052 
L 48.84424 55.429291 
L 49.236814 56.787209 
L 49.240404 57.093925 
L 49.274805 60.033574 
L 49.331792 64.395946 
L 49.369783 67.497598 
L 49.610393 69.362434 
L 49.56607 69.848551 
L 49.493254 70.24592 
L 49.502751 71.047918 
L 49.46476 71.455643 
L 49.274805 71.962479 
L 48.730266 73.04434 
L 48.60363 73.563621 
L 48.701773 74.377167 
L 49.012033 75.353897 
L 49.46476 75.951739 
L 49.990303 75.62029 
L 50.341721 76.754064 
L 50.550672 80.804591 
L 50.993901 82.398472 
L 51.574707 83.555948 
L 51.73156 83.868553 
L 54.178818 87.189443 
L 56.081537 89.77828 
L 56.711556 91.211898 
L 56.955332 92.175301 
L 57.11996 93.266959 
L 57.170614 98.27452 
L 57.214937 102.644449 
L 57.252928 106.35755 
L 57.304699 111.719555 
L 57.316247 112.915858 
L 57.36057 113.38789 
L 57.5157 113.836126 
L 58.30718 115.139499 
L 58.436983 115.530843 
L 58.32301 116.239013 
L 57.316247 118.400992 
L 57.268758 118.74064 
L 57.268758 119.436527 
L 57.116794 120.414133 
L 57.204864 120.580817 
L 57.385897 120.660615 
L 57.541027 121.030345 
L 57.867117 124.469141 
L 57.813296 129.063968 
L 57.737314 135.454305 
L 57.75631 141.805594 
L 57.781637 149.763051 
L 57.784119 150.469406 
L 57.796264 153.925922 
L 57.810131 157.873563 
L 57.829126 163.871625 
L 57.848122 169.705459 
L 57.870283 175.609665 
L 57.313081 175.825758 
L 54.998792 175.804979 
L 55.593985 178.662198 
L 55.939071 179.32929 
L 55.98811 179.377273 
L 56.442452 179.821829 
L 56.717888 180.256189 
L 56.781206 180.81526 
L 56.550094 182.503999 
L 56.569089 183.190967 
L 56.702058 183.884195 
L 56.936336 184.70737 
L 57.116794 185.678178 
L 56.993323 186.300809 
L 56.752654 186.723204 
L 56.29682 187.523259 
L 56.043546 188.425591 
L 56.239833 188.877812 
L 56.635574 189.298854 
L 56.971161 190.104576 
L 56.977493 190.417517 
L 56.923672 190.754376 
L 56.904677 191.12555 
L 57.00282 191.537281 
L 57.186444 191.86792 
L 57.427054 192.186086 
L 57.683494 192.455388 
L 57.924104 192.64255 
L 58.212203 192.686221 
L 58.512965 192.648788 
L 58.73458 192.750688 
L 58.775737 193.211323 
L 58.854885 193.491037 
L 59.364598 194.041116 
L 59.557719 194.384274 
L 59.595711 194.788791 
L 59.519728 195.651925 
L 59.586213 196.003429 
L 59.788832 196.220781 
L 60.447344 196.664854 
L 60.710115 196.922774 
L 61.49843 198.583729 
L 62.093623 201.606443 
L 62.669821 204.56092 
L 62.03347 204.610858 
L 58.098229 205.832303 
L 57.465045 206.272414 
L 57.685625 207.11278 
L 57.675653 207.116057 
L 51.862323 208.399109 
L 47.006247 210.341036 
L 44.817523 211.598054 
L 44.573224 211.624276 
L 44.383767 211.68 
L 44.462604 210.263995 
L 44.101689 209.625044 
L 41.565785 209.24626 
L 41.144717 208.964258 
L 40.815462 208.463739 
L 40.413389 207.646909 
L 40.179111 207.294173 
L 39.947999 207.129772 
L 39.720053 207.005953 
L 39.476277 206.772882 
L 39.001388 205.882244 
L 38.20041 202.655027 
L 35.86396 202.642544 
L 35.237107 202.422004 
L 34.841367 202.029823 
L 33.844101 200.455972 
L 33.074782 199.818351 
L 31.561472 198.840633 
L 30.915624 197.973206 
L 30.431238 196.999734 
L 30.063991 196.043987 
L 29.874035 195.056046 
L 29.915613 194.228603 
L 29.927856 193.984964 
L 30.120977 193.47232 
L 30.33626 193.094864 
L 30.355255 192.719494 
L 29.962681 192.217279 
L 29.68408 192.142416 
L 28.829281 192.177768 
L 28.541182 192.140336 
L 28.272079 191.50089 
L 27.841513 191.086041 
L 27.439441 190.60466 
L 27.268481 189.76357 
L 27.534419 187.732206 
L 27.50276 187.079385 
L 27.243154 186.429703 
L 26.796759 185.875672 
L 26.261718 185.490042 
L 25.736175 185.344523 
L 25.533556 184.991124 
L 24.647098 182.83241 
L 24.273519 182.456193 
L 23.979089 182.226516 
L 23.880945 181.841996 
L 24.08673 180.996078 
L 24.732578 179.58491 
L 24.805394 178.907419 
L 24.444479 178.057472 
L 23.573851 177.176392 
L 23.222433 176.561322 
L 23.668828 176.380545 
L 24.118389 176.33691 
L 25.410085 175.896404 
L 25.805826 175.609665 
L 26.391521 174.225898 
L 26.413683 172.476593 
L 26.277548 170.667209 
L 26.382023 169.092707 
L 27.119683 166.683434 
L 27.404616 164.818538 
L 27.81302 163.344198 
L 27.851011 162.474185 
L 27.360293 159.839481 
L 27.157674 159.488631 
L 26.030606 160.032556 
L 25.422749 160.175806 
L 24.865547 160.076153 
L 23.899941 158.961331 
L 23.406057 157.192704 
L 23.254092 155.21462 
L 23.371232 152.881883 
L 23.482039 152.387979 
L 23.671994 151.958419 
L 23.982255 151.564145 
L 24.384327 151.329661 
L 24.875045 151.155356 
L 25.28978 150.877301 
L 25.463906 150.337804 
L 25.454408 149.246411 
L 25.549386 148.001559 
L 25.94196 147.184154 
L 26.828418 147.379166 
L 26.742938 146.594983 
L 26.809423 144.495702 
L 26.530822 142.201721 
L 26.556149 139.79814 
L 26.534196 139.604442 
L 26.233225 136.949122 
L 26.258552 135.454305 
L 26.242723 134.685179 
L 25.960956 133.188492 
L 25.846983 131.302276 
L 25.685521 130.317798 
L 25.837485 130.033864 
L 26.078095 129.792421 
L 26.245889 129.273279 
L 26.192068 128.718923 
L 25.979951 128.374921 
L 25.742507 128.077552 
L 25.61587 127.655856 
L 25.650695 127.136781 
L 25.808991 126.981372 
L 26.04327 126.944075 
L 26.299709 126.784524 
L 27.319136 125.592086 
L 27.832016 125.152844 
L 29.183864 124.373839 
L 29.674582 123.977099 
L 29.905694 123.366989 
L 29.785389 122.380917 
L 29.671416 122.244198 
L 29.304169 122.167553 
L 29.183864 122.030835 
L 29.164869 121.841296 
L 29.190196 121.439441 
L 29.114214 120.851175 
L 29.123712 120.391349 
L 29.057227 119.976067 
L 27.88267 118.709574 
L 27.48693 117.192608 
L 26.951889 115.720306 
L 24.944695 114.495563 
L 24.146882 113.746063 
L 23.406057 112.858925 
L 22.88368 112.073276 
L 21.658468 110.988544 
L 20.439588 108.776877 
L 19.542049 106.266496 
L 19.347756 104.796294 
L 19.280069 104.284144 
L 19.488228 103.904464 
L 19.874471 103.811355 
L 20.236969 103.993434 
L 20.564642 104.893514 
L 20.885983 104.431052 
L 21.090185 103.761698 
L 20.925557 103.604451 
L 21.248481 103.464791 
L 21.532622 103.516517 
L 21.842091 103.639624 
L 22.239414 103.722386 
L 22.576585 103.512379 
L 22.684227 102.983753 
L 22.728549 102.359977 
L 22.88368 101.860354 
L 22.887172 101.853849 
L 23.561187 100.59844 
L 23.17811 98.641648 
L 21.700416 95.390546 
L 21.700416 95.38641 
L 21.694084 95.38641 
L 21.283306 94.144685 
L 21.598315 92.920638 
L 22.116735 91.678086 
L 22.278197 90.389127 
L 22.275031 89.763811 
L 22.468944 89.378298 
L 23.162281 88.577333 
L 23.532694 87.760911 
L 23.523196 87.123307 
L 23.143285 85.692158 
L 23.171779 84.903795 
L 23.421886 84.520478 
L 23.766972 84.260118 
L 24.077232 83.845824 
L 24.203869 83.342695 
L 24.254524 82.171206 
L 24.539457 80.144572 
L 24.349501 79.206756 
L 23.795465 78.57986 
L 22.88368 78.178123 
L 22.861518 78.136814 
L 22.855186 78.097571 
L 22.861518 78.058327 
L 23.064137 77.611167 
L 23.133787 77.201197 
L 23.079967 76.807761 
L 22.88368 76.452542 
L 21.257979 75.686373 
L 20.682572 75.564533 
L 19.450237 75.653331 
L 18.761649 75.812344 
L 18.29705 76.074615 
L 18.144294 76.390586 
L 18.0509 77.199132 
L 17.930595 77.53888 
L 17.697899 77.792921 
L 16.296979 78.42598 
L 15.727113 78.573663 
L 15.159622 78.493108 
L 15.020321 77.958154 
L 15.270429 77.501703 
L 15.055146 76.863523 
L 15.058312 76.294555 
L 16.33497 75.96 
L 16.812233 75.719414 
L 17.204016 75.370418 
L 17.321155 74.956382 
L 17.052051 74.523775 
L 16.619112 74.494867 
L 15.83792 74.68484 
L 15.519745 74.507256 
L 15.216608 74.231592 
L 14.992619 73.978648 
L 14.915846 73.86405 
L 14.905556 73.609046 
L 15.048814 72.483785 
L 15.124005 72.227775 
L 16.665809 72.450751 
L 17.401886 72.395006 
L 17.94959 71.932543 
L 18.369866 72.289712 
L 18.934983 72.413588 
L 19.431242 72.231904 
L 19.643358 71.681704 
L 19.380587 70.853865 
L 18.774313 70.703166 
L 17.531689 71.111914 
L 16.577163 70.979792 
L 16.08882 70.142706 
L 16.066658 68.975411 
L 16.505138 67.840205 
L 17.321155 68.948578 
L 17.835617 69.317023 
L 18.384904 69.228265 
L 18.704663 68.735978 
L 18.790143 68.037312 
L 18.720492 67.310819 
L 18.578026 66.723667 
L 18.373824 66.3264 
L 18.154584 66.014785 
L 17.993913 65.58452 
L 17.94959 64.84165 
L 18.606519 61.738539 
L 18.616017 61.284685 
L 18.477508 59.684975 
L 18.540035 59.128061 
L 18.786977 58.5227 
L 19.179551 57.975114 
L 19.393251 57.729688 
L 19.412246 57.402803 
L 19.204087 56.613982 
L 18.837631 55.66952 
L 18.786977 55.401453 
L 18.847129 55.032355 
L 18.950813 54.784921 
L 18.969017 54.531305 
L 18.786977 54.13852 
L 19.3236 54.006563 
L 19.796906 54.107593 
L 20.138825 53.992131 
L 20.159102 53.869743 
L 20.268628 53.208666 
L 20.176816 52.401539 
L 19.929874 52.138692 
L 19.592704 52.033555 
L 19.204087 51.710934 
L 18.904116 50.680246 
L 19.064786 47.855547 
L 19.014131 46.512972 
L 19.235746 45.978248 
L 19.3236 45.324039 
L 19.469233 44.71313 
L 20.221139 43.992027 
L 19.59587 43.325558 
L 19.30223 43.144267 
L 17.959088 43.432685 
L 17.531689 43.438865 
L 17.800792 42.632342 
L 17.478659 41.996842 
L 16.957074 41.39021 
L 16.613571 40.667234 
L 16.656311 40.326357 
L 16.758412 39.904136 
L 16.744957 39.464423 
L 16.442611 39.074151 
L 16.129185 38.981476 
L 15.851375 39.094746 
L 15.564068 39.275979 
L 15.216608 39.39234 
L 14.922177 39.338793 
L 14.109327 38.927931 
L 14.028596 39.04326 
L 13.946282 39.303782 
L 13.816479 39.538565 
L 13.582201 39.569458 
L 13.493555 39.429411 
L 11.932756 35.68681 
L 11.447578 35.023862 
L 9.826626 33.714538 
L 9.574144 33.322385 
L 9.216395 32.437255 
L 8.974201 32.064696 
L 8.6956 31.845488 
L 7.737909 31.437957 
L 7.460891 31.196121 
L 7.269353 30.956347 
L 7.050904 30.769059 
L 6.34332 30.651748 
L 5.978448 30.530322 
L 5.642069 30.323489 
L 5.372965 30.03537 
L 5.06033 29.212207 
L 5.080117 28.381898 
L 5.267742 27.376697 
L 5.372965 26.813 
L 5.53601 25.148644 
L 5.768706 24.454371 
L 6.200854 23.749852 
L 6.826123 23.205807 
L 7.090478 22.881859 
L 7.147465 22.459198 
L 6.990751 21.676644 
L 6.967007 21.291041 
L 7.630268 17.293831 
L 7.779066 16.919674 
L 8.024425 16.589726 
L 8.292737 16.370794 
L 8.507228 16.097391 
L 8.580044 15.59891 
L 8.667107 14.189913 
L 8.568963 12.958846 
L 8.106739 12.027922 
L 7.084146 11.527555 
L 6.507948 11.539884 
L 5.467943 11.892297 
L 4.906783 11.966274 
L 4.343249 11.781332 
L 3.720354 11.33851 
L 3.212224 10.737491 
z
" clip-path="url(#pf712b374d2)" style="stroke: #000000; stroke-linejoin: miter"/>
   </g>
   <g id="line2d_1">
    <path d="M 2.984277 10.08 
L 23.086299 15.467356 
L 23.03881 15.934997 
L 22.886846 16.255676 
L 23.380729 16.414991 
L 23.010316 18.103858 
L 26.837916 16.380045 
L 28.759631 15.904163 
L 35.686668 15.736633 
L 34.901519 18.186098 
L 34.812874 18.976652 
L 34.88569 19.405362 
L 35.186452 20.644284 
L 34.648246 22.243245 
L 34.505779 23.561645 
L 34.110039 24.293922 
L 32.444764 26.332598 
L 32.004701 27.663781 
L 32.248477 31.251691 
L 32.226315 32.808796 
L 31.776754 35.027979 
L 31.349355 39.131816 
L 31.374682 40.048307 
L 31.621624 40.648696 
L 48.84424 55.429291 
L 49.240404 57.093925 
L 49.369783 67.497598 
L 49.56607 69.848551 
L 49.493254 70.24592 
L 49.46476 71.455643 
L 49.274805 71.962479 
L 48.730266 73.04434 
L 48.60363 73.563621 
L 48.701773 74.377167 
L 49.012033 75.353897 
L 49.46476 75.951739 
L 49.990303 75.62029 
L 50.341721 76.754064 
L 50.550672 80.804591 
L 50.993901 82.398472 
L 51.73156 83.868553 
L 56.081537 89.77828 
L 56.711556 91.211898 
L 57.11996 93.266959 
L 57.36057 113.38789 
L 57.5157 113.836126 
L 58.436983 115.530843 
L 58.32301 116.239013 
L 57.268758 118.74064 
L 57.268758 119.436527 
L 57.116794 120.414133 
L 57.204864 120.580817 
L 57.385897 120.660615 
L 57.541027 121.030345 
L 57.867117 124.469141 
L 57.75631 141.805594 
L 57.870283 175.609665 
L 57.313081 175.825758 
L 54.998792 175.804979 
L 55.593985 178.662198 
L 55.98811 179.377273 
L 56.442452 179.821829 
L 56.717888 180.256189 
L 56.781206 180.81526 
L 56.550094 182.503999 
L 56.569089 183.190967 
L 57.116794 185.678178 
L 56.993323 186.300809 
L 56.29682 187.523259 
L 56.043546 188.425591 
L 56.239833 188.877812 
L 56.635574 189.298854 
L 56.971161 190.104576 
L 57.00282 191.537281 
L 57.427054 192.186086 
L 57.924104 192.64255 
L 58.73458 192.750688 
L 58.854885 193.491037 
L 59.557719 194.384274 
L 59.595711 194.788791 
L 59.586213 196.003429 
L 59.788832 196.220781 
L 60.710115 196.922774 
L 61.49843 198.583729 
L 62.669821 204.56092 
L 62.03347 204.610858 
L 58.098229 205.832303 
L 57.465045 206.272414 
L 57.675653 207.116057 
L 51.862323 208.399109 
L 47.006247 210.341036 
L 44.573224 211.624276 
L 44.383767 211.68 
L 44.462604 210.263995 
L 44.101689 209.625044 
L 41.565785 209.24626 
L 41.144717 208.964258 
L 40.815462 208.463739 
L 40.179111 207.294173 
L 39.476277 206.772882 
L 39.001388 205.882244 
L 38.20041 202.655027 
L 35.86396 202.642544 
L 35.237107 202.422004 
L 34.841367 202.029823 
L 33.844101 200.455972 
L 33.074782 199.818351 
L 31.561472 198.840633 
L 30.915624 197.973206 
L 30.063991 196.043987 
L 29.874035 195.056046 
L 29.927856 193.984964 
L 30.355255 192.719494 
L 29.962681 192.217279 
L 29.68408 192.142416 
L 28.541182 192.140336 
L 28.272079 191.50089 
L 27.439441 190.60466 
L 27.268481 189.76357 
L 27.534419 187.732206 
L 27.50276 187.079385 
L 27.243154 186.429703 
L 26.796759 185.875672 
L 26.261718 185.490042 
L 25.736175 185.344523 
L 25.533556 184.991124 
L 24.647098 182.83241 
L 23.979089 182.226516 
L 23.880945 181.841996 
L 24.08673 180.996078 
L 24.732578 179.58491 
L 24.805394 178.907419 
L 24.444479 178.057472 
L 23.573851 177.176392 
L 23.222433 176.561322 
L 23.668828 176.380545 
L 24.118389 176.33691 
L 25.410085 175.896404 
L 25.805826 175.609665 
L 26.391521 174.225898 
L 26.413683 172.476593 
L 26.277548 170.667209 
L 26.382023 169.092707 
L 27.119683 166.683434 
L 27.404616 164.818538 
L 27.81302 163.344198 
L 27.851011 162.474185 
L 27.360293 159.839481 
L 27.157674 159.488631 
L 26.030606 160.032556 
L 25.422749 160.175806 
L 24.865547 160.076153 
L 23.899941 158.961331 
L 23.406057 157.192704 
L 23.254092 155.21462 
L 23.482039 152.387979 
L 23.671994 151.958419 
L 23.982255 151.564145 
L 25.28978 150.877301 
L 25.463906 150.337804 
L 25.549386 148.001559 
L 25.94196 147.184154 
L 26.828418 147.379166 
L 26.742938 146.594983 
L 26.809423 144.495702 
L 26.530822 142.201721 
L 26.534196 139.604442 
L 26.233225 136.949122 
L 26.242723 134.685179 
L 25.960956 133.188492 
L 25.837485 130.033864 
L 26.078095 129.792421 
L 26.245889 129.273279 
L 26.192068 128.718923 
L 25.61587 127.655856 
L 25.650695 127.136781 
L 25.808991 126.981372 
L 26.04327 126.944075 
L 26.299709 126.784524 
L 27.832016 125.152844 
L 29.674582 123.977099 
L 29.905694 123.366989 
L 29.671416 122.244198 
L 29.183864 122.030835 
L 29.057227 119.976067 
L 27.88267 118.709574 
L 27.48693 117.192608 
L 26.951889 115.720306 
L 24.944695 114.495563 
L 24.146882 113.746063 
L 22.88368 112.073276 
L 21.658468 110.988544 
L 20.439588 108.776877 
L 19.542049 106.266496 
L 19.280069 104.284144 
L 19.488228 103.904464 
L 19.874471 103.811355 
L 20.236969 103.993434 
L 20.564642 104.893514 
L 20.885983 104.431052 
L 21.090185 103.761698 
L 20.925557 103.604451 
L 21.248481 103.464791 
L 22.239414 103.722386 
L 22.576585 103.512379 
L 22.887172 101.853849 
L 23.561187 100.59844 
L 23.17811 98.641648 
L 21.694084 95.38641 
L 21.283306 94.144685 
L 21.598315 92.920638 
L 22.116735 91.678086 
L 22.468944 89.378298 
L 23.162281 88.577333 
L 23.532694 87.760911 
L 23.523196 87.123307 
L 23.143285 85.692158 
L 23.171779 84.903795 
L 23.421886 84.520478 
L 23.766972 84.260118 
L 24.077232 83.845824 
L 24.203869 83.342695 
L 24.254524 82.171206 
L 24.539457 80.144572 
L 24.349501 79.206756 
L 23.795465 78.57986 
L 22.861518 78.058327 
L 23.133787 77.201197 
L 23.079967 76.807761 
L 22.88368 76.452542 
L 21.257979 75.686373 
L 20.682572 75.564533 
L 18.761649 75.812344 
L 18.29705 76.074615 
L 18.144294 76.390586 
L 17.930595 77.53888 
L 17.697899 77.792921 
L 15.727113 78.573663 
L 15.159622 78.493108 
L 15.020321 77.958154 
L 15.270429 77.501703 
L 15.055146 76.863523 
L 15.058312 76.294555 
L 16.33497 75.96 
L 16.812233 75.719414 
L 17.204016 75.370418 
L 17.321155 74.956382 
L 17.052051 74.523775 
L 16.619112 74.494867 
L 15.83792 74.68484 
L 15.216608 74.231592 
L 14.915846 73.86405 
L 14.905556 73.609046 
L 15.124005 72.227775 
L 16.665809 72.450751 
L 17.401886 72.395006 
L 17.94959 71.932543 
L 18.369866 72.289712 
L 18.934983 72.413588 
L 19.431242 72.231904 
L 19.643358 71.681704 
L 19.380587 70.853865 
L 18.774313 70.703166 
L 17.531689 71.111914 
L 16.577163 70.979792 
L 16.08882 70.142706 
L 16.066658 68.975411 
L 16.505138 67.840205 
L 17.321155 68.948578 
L 17.835617 69.317023 
L 18.384904 69.228265 
L 18.704663 68.735978 
L 18.790143 68.037312 
L 18.578026 66.723667 
L 17.993913 65.58452 
L 17.94959 64.84165 
L 18.616017 61.284685 
L 18.540035 59.128061 
L 18.786977 58.5227 
L 19.393251 57.729688 
L 19.412246 57.402803 
L 19.204087 56.613982 
L 18.786977 55.401453 
L 18.969017 54.531305 
L 18.786977 54.13852 
L 19.3236 54.006563 
L 19.796906 54.107593 
L 20.159102 53.869743 
L 20.268628 53.208666 
L 20.176816 52.401539 
L 19.929874 52.138692 
L 19.592704 52.033555 
L 19.204087 51.710934 
L 18.904116 50.680246 
L 19.064786 47.855547 
L 19.014131 46.512972 
L 19.235746 45.978248 
L 19.469233 44.71313 
L 20.221139 43.992027 
L 19.30223 43.144267 
L 17.531689 43.438865 
L 17.800792 42.632342 
L 17.478659 41.996842 
L 16.957074 41.39021 
L 16.613571 40.667234 
L 16.744957 39.464423 
L 16.442611 39.074151 
L 16.129185 38.981476 
L 15.216608 39.39234 
L 14.922177 39.338793 
L 14.109327 38.927931 
L 13.582201 39.569458 
L 13.493555 39.429411 
L 11.932756 35.68681 
L 11.447578 35.023862 
L 9.826626 33.714538 
L 9.574144 33.322385 
L 8.974201 32.064696 
L 8.6956 31.845488 
L 7.737909 31.437957 
L 7.050904 30.769059 
L 5.978448 30.530322 
L 5.372965 30.03537 
L 5.06033 29.212207 
L 5.080117 28.381898 
L 5.372965 26.813 
L 5.53601 25.148644 
L 5.768706 24.454371 
L 6.200854 23.749852 
L 7.090478 22.881859 
L 7.147465 22.459198 
L 6.967007 21.291041 
L 7.779066 16.919674 
L 8.507228 16.097391 
L 8.580044 15.59891 
L 8.667107 14.189913 
L 8.568963 12.958846 
L 8.106739 12.027922 
L 7.084146 11.527555 
L 6.507948 11.539884 
L 4.906783 11.966274 
L 4.343249 11.781332 
L 3.720354 11.33851 
L 3.212224 10.737491 
L 2.984277 10.08 
L 2.984277 10.08 
" clip-path="url(#pf712b374d2)" style="fill: none; stroke: #000000; stroke-width: 0.5; stroke-linecap: square"/>
   </g>
  </g>
 </g>
 <defs>
  <clipPath id="pf712b374d2">
   <rect x="0" y="-0" width="65.654098" height="221.76"/>
  </clipPath>
 </defs>
</svg>
