<?xml version="1.0" encoding="utf-8" standalone="no"?>
<!DOCTYPE svg PUBLIC "-//W3C//DTD SVG 1.1//EN"
  "http://www.w3.org/Graphics/SVG/1.1/DTD/svg11.dtd">
<svg xmlns:xlink="http://www.w3.org/1999/xlink" width="223.2pt" height="180.384255pt" viewBox="0 0 223.2 180.384255" xmlns="http://www.w3.org/2000/svg" version="1.1">
 <metadata>
  <rdf:RDF xmlns:dc="http://purl.org/dc/elements/1.1/" xmlns:cc="http://creativecommons.org/ns#" xmlns:rdf="http://www.w3.org/1999/02/22-rdf-syntax-ns#">
   <cc:Work>
    <dc:type rdf:resource="http://purl.org/dc/dcmitype/StillImage"/>
    <dc:date>2026-04-26T19:22:23.042369</dc:date>
    <dc:format>image/svg+xml</dc:format>
    <dc:creator>
     <cc:Agent>
      <dc:title>Matplotlib v3.10.9, https://matplotlib.org/</dc:title>
     </cc:Agent>
    </dc:creator>
   </cc:Work>
  </rdf:RDF>
 </metadata>
 <defs>
  <style type="text/css">*{stroke-linejoin: round; stroke-linecap: butt}</style>
 </defs>
 <g id="figure_1">
  <g id="patch_1">
   <path d="M 0 180.384255 
L 223.2 180.384255 
L 223.2 0 
L 0 0 
z
" style="fill: #ffffff"/>
  </g>
  <g id="axes_1">
   <g id="patch_2">
    <path d="M 203.586331 57.210356 
L 210.63489 63.254118 
L 213.054545 69.492523 
L 212.423331 81.96837 
L 206.847605 88.985469 
L 170.079373 120.362512 
L 167.76492 127.24748 
L 168.816944 135.755719 
L 171.026194 144.717948 
L 172.288623 153.09508 
L 169.921569 162.575472 
L 164.161739 168.029606 
L 156.876474 170.75658 
L 149.801614 172.18497 
L 135.835998 168.484106 
L 129.28715 161.861222 
L 118.924716 138.938037 
L 110.429623 129.455783 
L 79.631626 111.658311 
L 74.766017 117.634397 
L 58.748954 106.72132 
L 49.596347 102.563699 
L 41.522064 100.874624 
L 35.394026 96.846736 
L 19.429565 70.857131 
L 10.145455 49.216532 
L 16.299794 29.782193 
L 31.264833 15.09063 
L 48.307618 8.199284 
L 40.259636 19.576295 
L 30.028705 29.782193 
L 25.662805 40.182226 
L 35.078419 51.751216 
L 42.074377 55.130713 
L 47.834207 55.39067 
L 84.470936 47.071757 
L 90.441171 49.021553 
L 95.280481 53.505967 
L 100.382796 57.080379 
L 104.485689 62.084381 
L 106.090025 70.857131 
L 96.437707 78.069806 
L 91.966606 84.69729 
L 94.649267 92.883681 
L 101.43482 96.002161 
L 107.904766 92.688773 
L 114.374713 87.231232 
L 121.133966 84.502369 
L 129.103046 86.061727 
L 140.543804 93.468403 
L 145.777623 95.417452 
L 155.37734 92.688773 
L 159.190926 84.307448 
L 162.951912 73.326383 
L 172.288623 62.669251 
L 178.916373 59.030015 
L 187.253661 56.235527 
L 195.932858 55.260691 
z
" clip-path="url(#p8578d511d8)" style="stroke: #000000; stroke-linejoin: miter"/>
   </g>
   <g id="line2d_1">
    <path d="M 203.586331 57.210356 
L 210.63489 63.254118 
L 213.054545 69.492523 
L 212.423331 81.96837 
L 206.847605 88.985469 
L 170.079373 120.362512 
L 167.76492 127.24748 
L 168.816944 135.755719 
L 171.026194 144.717948 
L 172.288623 153.09508 
L 169.921569 162.575472 
L 164.161739 168.029606 
L 156.876474 170.75658 
L 149.801614 172.18497 
L 135.835998 168.484106 
L 129.28715 161.861222 
L 118.924716 138.938037 
L 110.429623 129.455783 
L 79.631626 111.658311 
L 74.766017 117.634397 
L 58.748954 106.72132 
L 49.596347 102.563699 
L 41.522064 100.874624 
L 35.394026 96.846736 
L 19.429565 70.857131 
L 10.145455 49.216532 
L 16.299794 29.782193 
L 31.264833 15.09063 
L 48.307618 8.199284 
L 40.259636 19.576295 
L 30.028705 29.782193 
L 25.662805 40.182226 
L 35.078419 51.751216 
L 42.074377 55.130713 
L 47.834207 55.39067 
L 84.470936 47.071757 
L 90.441171 49.021553 
L 95.280481 53.505967 
L 100.382796 57.080379 
L 104.485689 62.084381 
L 106.090025 70.857131 
L 96.437707 78.069806 
L 91.966606 84.69729 
L 94.649267 92.883681 
L 101.43482 96.002161 
L 107.904766 92.688773 
L 114.374713 87.231232 
L 121.133966 84.502369 
L 129.103046 86.061727 
L 140.543804 93.468403 
L 145.777623 95.417452 
L 155.37734 92.688773 
L 159.190926 84.307448 
L 162.951912 73.326383 
L 172.288623 62.669251 
L 178.916373 59.030015 
L 187.253661 56.235527 
L 195.932858 55.260691 
L 203.586331 57.210356 
" clip-path="url(#p8578d511d8)" style="fill: none; stroke: #000000; stroke-width: 0.5; stroke-linecap: square"/>
   </g>
  </g>
 </g>
 <defs>
  <clipPath id="p8578d511d8">
   <rect x="0" y="0" width="223.2" height="180.384255"/>
  </clipPath>
 </defs>
</svg>
