<?xml version="1.0" encoding="utf-8" standalone="no"?>
<!DOCTYPE svg PUBLIC "-//W3C//DTD SVG 1.1//EN"
  "http://www.w3.org/Graphics/SVG/1.1/DTD/svg11.dtd">
<svg xmlns:xlink="http://www.w3.org/1999/xlink" width="223.2pt" height="124.116847pt" viewBox="0 0 223.2 124.116847" xmlns="http://www.w3.org/2000/svg" version="1.1">
 <metadata>
  <rdf:RDF xmlns:dc="http://purl.org/dc/elements/1.1/" xmlns:cc="http://creativecommons.org/ns#" xmlns:rdf="http://www.w3.org/1999/02/22-rdf-syntax-ns#">
   <cc:Work>
    <dc:type rdf:resource="http://purl.org/dc/dcmitype/StillImage"/>
    <dc:date>2026-04-26T19:22:09.185257</dc:date>
    <dc:format>image/svg+xml</dc:format>
    <dc:creator>
     <cc:Agent>
      <dc:title>Matplotlib v3.10.9, https://matplotlib.org/</dc:title>
     </cc:Agent>
    </dc:creator>
   </cc:Work>
  </rdf:RDF>
 </metadata>
 <defs>
  <style type="text/css">*{stroke-linejoin: round; stroke-linecap: butt}</style>
 </defs>
 <g id="figure_1">
  <g id="patch_1">
   <path d="M 0 124.116847 
L 223.2 124.116847 
L 223.2 0 
L 0 0 
z
" style="fill: #ffffff"/>
  </g>
  <g id="axes_1">
   <g id="patch_2">
    <path d="M 136.27722 111.085271 
L 135.930359 110.610446 
L 135.735526 110.262407 
L 135.698626 109.85078 
L 135.754714 109.758441 
L 135.949547 109.590497 
L 135.992351 109.483057 
L 135.982019 109.210121 
L 135.992351 109.124194 
L 136.086815 108.759071 
L 136.083863 108.607167 
L 135.992351 108.494245 
L 136.083863 108.149181 
L 136.075007 107.899586 
L 136.023347 107.668319 
L 135.958403 107.117741 
L 135.868366 106.846117 
L 135.74143 106.588051 
L 135.59383 106.375286 
L 135.365049 106.130016 
L 135.115604 105.929233 
L 134.826307 105.794337 
L 134.476494 105.745937 
L 134.280186 105.668977 
L 134.445498 105.487307 
L 134.736271 105.278697 
L 134.91044 105.11691 
L 134.919296 104.973381 
L 134.869111 104.66497 
L 134.91044 104.479484 
L 135.000476 104.406566 
L 135.134792 104.360598 
L 135.255825 104.283725 
L 135.310437 104.118106 
L 135.316341 103.977863 
L 135.341433 103.827338 
L 135.385713 103.690296 
L 135.456561 103.584951 
L 135.607114 103.413884 
L 135.635158 103.319649 
L 135.611542 103.241257 
L 135.574642 102.779717 
L 135.360621 101.827897 
L 135.152504 101.528975 
L 135.105272 101.380332 
L 135.099368 101.025402 
L 135.074276 100.865757 
L 135.016712 100.705342 
L 134.957672 100.615267 
L 134.869111 100.522828 
L 134.755459 100.443825 
L 134.618191 100.392477 
L 134.656567 100.286626 
L 134.678707 100.243973 
L 134.724463 100.183154 
L 134.520774 99.745669 
L 134.603431 98.996627 
L 134.91044 97.767909 
L 134.824831 97.539339 
L 134.801215 97.355726 
L 134.863207 97.194202 
L 134.951768 97.07839 
L 135.02852 96.931869 
L 135.084608 96.761738 
L 135.105272 96.574307 
L 135.081656 96.382968 
L 135.02852 96.242043 
L 134.91044 96.007466 
L 134.793835 95.489672 
L 134.213765 95.422013 
L 133.503807 95.315026 
L 132.039611 95.337052 
L 130.346634 95.363012 
L 127.30016 95.411 
L 125.303126 95.441681 
L 123.033031 95.477084 
L 122.56071 95.25131 
L 122.266985 94.808541 
L 121.852228 93.875567 
L 121.551123 93.460012 
L 120.038218 91.885528 
L 119.378444 91.02657 
L 118.842655 90.056243 
L 118.419041 89.574707 
L 117.881776 89.377452 
L 116.709828 89.199795 
L 116.185847 88.938444 
L 115.248584 88.266558 
L 113.192509 87.699784 
L 113.040481 87.691186 
L 112.906165 87.751368 
L 112.739376 87.974537 
L 112.639008 88.065615 
L 112.503215 88.089851 
L 112.311335 87.962029 
L 112.212442 87.711507 
L 112.144546 87.425486 
L 112.042702 87.189923 
L 111.803589 86.972372 
L 111.592521 86.941129 
L 111.139387 87.092664 
L 111.021307 87.086805 
L 110.900274 87.035641 
L 110.785146 86.957531 
L 110.692158 86.876303 
L 110.457473 86.823976 
L 110.416145 86.715816 
L 110.458949 86.591268 
L 110.476661 86.489766 
L 110.497325 86.448387 
L 110.548985 86.39725 
L 110.566697 86.323868 
L 110.482565 86.221998 
L 110.213932 85.96912 
L 109.319474 85.342627 
L 109.152685 85.135171 
L 108.872244 84.095335 
L 108.838296 83.779828 
L 108.885528 83.611982 
L 108.974089 83.463629 
L 109.033129 83.328921 
L 108.993277 83.20396 
L 108.907668 83.039312 
L 108.951949 82.70503 
L 108.885528 82.506219 
L 108.609515 82.185705 
L 108.323171 81.956654 
L 107.994022 81.883943 
L 107.192551 82.191927 
L 106.887018 82.167815 
L 104.981496 81.017989 
L 104.515079 80.613998 
L 104.357147 80.540208 
L 103.942389 80.487781 
L 103.751985 80.436133 
L 103.551248 80.314982 
L 102.987414 80.098342 
L 101.878935 79.885625 
L 101.022852 79.486693 
L 100.944624 79.590681 
L 100.9092 79.81421 
L 100.718795 80.012552 
L 100.568243 80.055252 
L 100.422119 80.064957 
L 100.118062 80.016045 
L 99.955701 80.016433 
L 99.853857 80.085531 
L 99.763821 80.17521 
L 99.639836 80.238105 
L 99.318067 80.266837 
L 98.994822 80.226458 
L 98.377852 80.014493 
L 97.660514 79.483589 
L 97.427305 79.382714 
L 97.148341 79.400561 
L 96.92694 79.534418 
L 96.755723 79.745905 
L 96.624359 79.997025 
L 96.432478 80.24587 
L 96.18451 80.345269 
L 94.89153 80.452442 
L 94.692269 80.408174 
L 94.315888 80.182974 
L 94.135815 80.111541 
L 93.022908 79.972182 
L 92.779367 79.89494 
L 92.535827 79.725725 
L 92.466454 79.554982 
L 92.464978 79.347022 
L 92.428078 79.073163 
L 92.377894 78.961466 
L 92.152065 78.610158 
L 92.140257 78.494242 
L 92.171253 78.386866 
L 92.169777 78.282989 
L 92.060553 78.181446 
L 91.819964 78.083013 
L 91.589708 78.038837 
L 91.10853 78.00435 
L 90.166839 77.820308 
L 87.927741 76.926485 
L 87.433279 76.815775 
L 87.201546 76.830484 
L 86.960958 76.876935 
L 86.726273 76.892032 
L 86.512252 76.818097 
L 86.42812 76.725202 
L 86.298232 76.498801 
L 86.197863 76.41638 
L 86.079783 76.392003 
L 85.846574 76.437275 
L 85.795287 76.433175 
L 85.725542 76.427601 
L 85.542517 76.331256 
L 85.363921 76.202034 
L 85.17204 76.103774 
L 84.956543 76.10068 
L 84.742523 76.146327 
L 84.045849 76.158706 
L 83.318179 75.984636 
L 83.079066 75.958334 
L 82.837001 75.990438 
L 82.614124 76.046911 
L 82.388296 76.073215 
L 80.333697 75.396479 
L 79.972076 74.998749 
L 80.253993 74.209122 
L 80.289417 73.960451 
L 80.218569 73.699098 
L 79.913036 73.33979 
L 79.747724 72.893421 
L 79.27983 72.476536 
L 79.113042 72.268345 
L 78.854741 71.751892 
L 78.525592 71.291913 
L 78.465076 71.160966 
L 78.459172 71.050058 
L 78.41932 70.953408 
L 78.261387 70.869087 
L 77.955854 70.783617 
L 77.799398 70.767448 
L 77.642941 70.783617 
L 77.394972 70.882947 
L 77.270645 70.993901 
L 77.226708 71.033115 
L 76.938887 71.444833 
L 76.769147 71.595462 
L 76.307157 71.848227 
L 76.107897 71.994672 
L 75.849596 72.113384 
L 75.558823 72.07561 
L 74.992037 71.88291 
L 72.842975 71.551543 
L 72.621574 71.49183 
L 72.133016 71.26033 
L 71.573611 70.886027 
L 71.436342 70.864466 
L 70.752952 70.960339 
L 69.607573 71.373956 
L 69.377316 71.408238 
L 69.185435 71.334667 
L 69.005363 71.217194 
L 68.806102 71.117064 
L 68.562562 71.067772 
L 67.253346 71.10243 
L 66.733792 71.265722 
L 66.252615 71.543067 
L 65.352252 72.230566 
L 65.262216 72.434124 
L 65.650405 72.802009 
L 65.718301 73.061222 
L 65.668117 73.338246 
L 65.524944 73.573655 
L 65.300592 73.71145 
L 64.076984 73.881692 
L 63.845251 73.854667 
L 63.401106 73.703125 
L 63.331602 73.679412 
L 62.754484 73.618427 
L 60.711694 73.925704 
L 60.491769 73.916438 
L 60.292508 73.863161 
L 59.904319 73.693308 
L 59.663731 73.63155 
L 58.93606 73.625375 
L 58.726468 73.566708 
L 58.168538 73.299659 
L 57.284411 73.138381 
L 56.859322 73.137609 
L 54.035725 73.62769 
L 53.127983 73.660113 
L 52.781122 73.776301 
L 51.719874 74.454758 
L 51.424673 74.579915 
L 51.129473 74.779266 
L 50.967112 74.797813 
L 50.316194 74.979427 
L 50.006233 75.123194 
L 49.876345 75.359753 
L 49.7007 75.416968 
L 48.875614 75.546872 
L 48.599601 75.624203 
L 48.477092 75.737889 
L 48.320636 76.010938 
L 48.217316 76.125824 
L 48.063811 76.174567 
L 47.863075 76.202034 
L 47.690382 76.280958 
L 47.615106 76.484483 
L 47.502929 76.640828 
L 46.835775 77.259843 
L 44.691141 78.488815 
L 44.2631 78.876925 
L 44.077123 79.126688 
L 43.998895 79.364092 
L 43.935427 79.662857 
L 43.700742 80.129399 
L 43.715502 80.445841 
L 43.765686 80.52778 
L 43.933951 80.654391 
L 43.998895 80.753436 
L 44.016607 80.858706 
L 43.998895 81.220426 
L 43.954615 81.43456 
L 43.759782 81.812403 
L 43.715502 82.042591 
L 43.649082 82.150702 
L 43.287461 82.405076 
L 42.608499 82.77935 
L 42.429902 82.920999 
L 42.147985 83.01596 
L 41.796696 83.333592 
L 41.582675 83.418465 
L 41.26681 83.422358 
L 40.397444 83.26274 
L 40.074199 83.304784 
L 37.65798 84.48263 
L 37.148758 84.624489 
L 36.832893 84.625269 
L 36.503744 84.588633 
L 36.192307 84.601105 
L 35.928102 84.749995 
L 35.663897 84.964399 
L 35.405597 85.05719 
L 35.122204 85.070056 
L 31.225627 84.783143 
L 31.225627 84.779459 
L 31.024565 82.889105 
L 30.883938 82.291122 
L 30.61663 81.694063 
L 30.532951 81.400853 
L 30.466705 80.738808 
L 29.956496 78.733 
L 29.703135 74.432751 
L 29.748461 74.187034 
L 29.943712 73.692117 
L 30.088988 72.964126 
L 30.442299 71.826914 
L 30.386513 71.421007 
L 30.550384 70.953399 
L 30.574791 70.313867 
L 30.501572 69.22116 
L 30.47949 69.103111 
L 30.351647 68.895498 
L 30.288888 68.758724 
L 30.251697 68.612891 
L 30.221479 68.309791 
L 30.005309 67.405226 
L 29.986713 67.080105 
L 30.116881 65.882591 
L 30.278428 65.287044 
L 30.501572 64.796734 
L 31.169841 63.933053 
L 31.413905 63.400604 
L 31.272116 62.958704 
L 31.485962 62.817864 
L 31.597534 62.551883 
L 31.680051 62.252283 
L 31.809056 62.009295 
L 31.965954 61.800033 
L 32.136799 61.506655 
L 32.21118 61.29629 
L 32.070553 61.334753 
L 32.048471 61.026482 
L 31.857869 60.875083 
L 31.360444 60.730313 
L 31.355795 60.705085 
L 31.297684 60.575953 
L 31.272116 60.538117 
L 31.204708 60.503886 
L 31.025728 60.457045 
L 30.981564 60.437229 
L 30.911831 60.343555 
L 30.846747 60.224673 
L 30.801421 60.084194 
L 30.777015 59.923926 
L 30.614306 59.637665 
L 30.453921 59.536862 
L 29.898386 59.521262 
L 29.55321 59.442068 
L 29.420718 59.430069 
L 29.270793 59.479265 
L 29.203385 59.568062 
L 29.133652 59.599263 
L 28.977917 59.475665 
L 28.855885 59.253705 
L 28.573468 58.561728 
L 28.48514 58.414277 
L 28.346838 58.51857 
L 28.389839 58.750568 
L 28.517682 58.993411 
L 28.631579 59.128348 
L 28.631579 59.220115 
L 28.401461 59.121151 
L 28.194588 58.898665 
L 28.096963 58.624671 
L 28.249212 58.225498 
L 28.134153 57.956471 
L 28.144613 57.8115 
L 28.229454 57.718658 
L 28.631579 57.510241 
L 28.207373 57.476108 
L 28.203886 57.165367 
L 28.524655 56.496896 
L 28.229454 56.628522 
L 27.834304 56.871474 
L 27.601862 57.104307 
L 27.802924 57.20847 
L 27.941227 58.826113 
L 27.775031 58.60309 
L 27.420558 58.229093 
L 27.259011 58.012787 
L 27.192765 57.748007 
L 27.176494 57.452156 
L 27.078868 57.233015 
L 26.769721 57.20847 
L 26.844102 57.023498 
L 26.892915 56.787691 
L 26.867346 56.583647 
L 26.720908 56.496896 
L 26.641878 56.594417 
L 26.411761 57.059412 
L 26.282756 57.20847 
L 26.230456 56.864293 
L 26.297864 56.428696 
L 26.575632 55.593313 
L 26.18513 55.89462 
L 26.421058 55.394283 
L 26.478007 55.192303 
L 26.381543 55.230545 
L 26.087505 55.292093 
L 26.244403 54.976623 
L 26.202563 54.856554 
L 26.028232 54.930027 
L 25.794628 55.192303 
L 25.690029 55.083561 
L 25.528482 55.15944 
L 24.909025 55.192303 
L 24.638231 55.374561 
L 24.508064 55.363804 
L 24.518523 55.083561 
L 24.420898 55.083561 
L 24.312813 55.230545 
L 24.157077 55.374561 
L 23.961826 55.474369 
L 23.73752 55.483932 
L 23.807252 55.389502 
L 23.933933 55.083561 
L 23.833983 55.078782 
L 23.631759 55.094913 
L 23.534133 55.083561 
L 23.514376 55.101485 
L 23.39583 55.175573 
L 23.340044 55.192303 
L 23.297043 55.15944 
L 23.197093 55.019636 
L 23.144793 54.991557 
L 22.955353 55.044727 
L 22.59042 55.188121 
L 22.364952 55.192303 
L 22.364952 55.083561 
L 22.453279 54.976623 
L 22.416089 54.919274 
L 22.292895 54.895978 
L 22.119726 54.891199 
L 21.955854 54.863722 
L 21.739684 54.732318 
L 21.583948 54.690511 
L 21.296882 54.702456 
L 20.60653 54.869098 
L 20.317141 54.991557 
L 20.830837 55.252654 
L 21.000519 55.292093 
L 20.740184 55.621408 
L 20.647208 55.811513 
L 20.607693 56.048894 
L 20.634423 56.294703 
L 20.805268 56.906785 
L 20.768077 57.266542 
L 20.630937 57.441377 
L 20.482174 57.41024 
L 20.131187 55.32496 
L 20.040535 55.148088 
L 19.44316 54.417614 
L 19.393185 54.165083 
L 19.529163 53.880388 
L 19.661655 53.741352 
L 20.073077 53.42993 
L 20.139323 53.292743 
L 20.188136 53.106675 
L 20.252057 52.940911 
L 20.540285 52.753714 
L 20.721589 52.475962 
L 21.241096 51.337124 
L 21.628112 50.711062 
L 22.116239 50.293502 
L 22.656666 50.38152 
L 22.356816 50.512967 
L 22.137159 50.668227 
L 21.725737 51.126411 
L 21.666464 51.246643 
L 21.535135 51.670545 
L 21.49562 51.716994 
L 21.193446 51.970716 
L 21.2748 52.338902 
L 21.804767 52.395511 
L 23.367937 52.148239 
L 24.270973 52.179219 
L 24.556876 52.257866 
L 24.727721 52.444973 
L 24.853239 52.671454 
L 25.006651 52.871156 
L 25.205389 52.987418 
L 25.447128 53.050026 
L 26.038692 53.079244 
L 26.286242 53.178832 
L 26.418734 53.177043 
L 26.478007 53.029156 
L 26.467547 52.881887 
L 26.422221 52.775175 
L 26.335055 52.708411 
L 26.18513 52.679799 
L 26.369921 52.306129 
L 26.546577 52.356182 
L 26.737179 52.59218 
L 26.964972 52.779944 
L 27.236929 52.774579 
L 27.652999 52.452124 
L 27.941227 52.380614 
L 28.071394 52.42054 
L 28.401461 52.570127 
L 28.524655 52.579663 
L 28.689689 52.443781 
L 28.646687 52.295999 
L 28.494438 52.163133 
L 28.338702 52.070196 
L 28.020257 51.967142 
L 27.418233 51.852781 
L 27.161385 51.670545 
L 27.391502 51.609211 
L 27.525156 51.503821 
L 27.537941 51.345459 
L 27.408935 51.126411 
L 27.217171 50.974057 
L 27.025407 50.941923 
L 26.339704 51.002026 
L 26.290891 50.910979 
L 26.282756 50.621825 
L 26.23743 50.471925 
L 26.123533 50.298854 
L 25.968959 50.147218 
L 25.794628 50.065165 
L 25.884118 50.564718 
L 25.884118 50.771747 
L 25.794628 50.771747 
L 25.275121 50.124028 
L 24.903214 49.833312 
L 24.518523 49.764361 
L 24.570823 49.849362 
L 24.713774 50.173381 
L 24.626609 50.121055 
L 24.40114 50.023546 
L 24.315137 49.974201 
L 24.323273 50.251874 
L 24.591743 50.531407 
L 24.616149 50.771747 
L 24.128022 50.511183 
L 24.072236 49.989064 
L 24.315137 48.86723 
L 24.148941 48.94206 
L 23.971123 48.965223 
L 23.794468 48.940278 
L 23.631759 48.86723 
L 23.631759 48.768653 
L 24.10594 48.582214 
L 24.853239 47.756119 
L 25.306501 47.36467 
L 25.228633 47.289956 
L 25.149603 47.138766 
L 25.103114 47.075332 
L 25.228633 47.01783 
L 25.355313 46.98582 
L 25.641217 46.967444 
L 25.846928 46.916468 
L 25.844603 46.808005 
L 25.756275 46.706664 
L 25.690029 46.67822 
L 25.849252 46.500458 
L 26.070072 46.335168 
L 26.27462 46.141476 
L 26.380381 45.873803 
L 26.303675 45.908146 
L 26.265323 45.918805 
L 26.233943 45.931832 
L 26.18513 45.973284 
L 25.939904 45.780845 
L 25.728382 45.742361 
L 25.20074 45.774332 
L 24.959 45.709207 
L 24.631258 45.472426 
L 24.420898 45.36826 
L 24.168699 45.31263 
L 23.918824 45.308488 
L 23.678247 45.362342 
L 23.444643 45.475978 
L 22.843781 46.008223 
L 22.607853 46.08225 
L 22.541607 46.113047 
L 22.318463 46.249868 
L 22.213865 46.280078 
L 22.102293 46.249868 
L 21.847769 46.113047 
L 21.725737 46.08225 
L 21.568839 46.021843 
L 20.63791 45.444016 
L 20.393846 45.518002 
L 20.181162 45.683159 
L 19.971965 45.774332 
L 18.941086 45.873803 
L 19.022441 45.741177 
L 19.10612 45.639351 
L 19.210718 45.555293 
L 19.34321 45.475978 
L 18.354171 45.726968 
L 17.817231 45.780845 
L 17.372105 45.674871 
L 17.140825 45.244577 
L 16.942088 45.091917 
L 16.691051 45.278307 
L 16.688726 45.432179 
L 16.792163 45.626328 
L 17.03274 45.92295 
L 17.085039 46.097056 
L 17.179178 46.921803 
L 17.262857 47.04332 
L 17.66963 47.471414 
L 17.817231 47.563934 
L 18.355333 48.360195 
L 18.800459 48.690274 
L 18.941086 48.768653 
L 18.941086 48.86723 
L 18.260032 48.569153 
L 18.452959 48.68018 
L 18.845785 49.075698 
L 18.748159 49.166582 
L 18.291412 48.811408 
L 18.103134 48.608931 
L 17.695199 47.839766 
L 17.499948 47.642227 
L 16.993225 47.469635 
L 16.823543 47.233035 
L 16.725917 46.928323 
L 16.645725 46.364196 
L 16.521368 46.208997 
L 15.146476 45.343996 
L 14.652538 44.942238 
L 14.441016 44.627571 
L 14.550263 43.99735 
L 14.659511 43.647529 
L 14.776894 43.433678 
L 14.867546 43.17263 
L 14.721108 42.901022 
L 14.334092 42.492569 
L 14.51191 42.36393 
L 14.447989 42.221147 
L 14.145815 41.988726 
L 13.877345 41.431491 
L 13.920346 40.87339 
L 14.414285 38.38374 
L 14.609536 37.906064 
L 14.926819 37.42862 
L 15.784528 36.507863 
L 16.221519 35.880437 
L 16.293576 35.36121 
L 16.165733 35.276847 
L 15.793826 35.206551 
L 15.714796 35.111658 
L 15.746176 34.979878 
L 15.856585 34.714615 
L 15.851936 34.665435 
L 15.784528 34.621526 
L 15.965833 34.533715 
L 16.199437 34.464057 
L 16.293576 34.47752 
L 16.324955 34.340559 
L 16.302873 34.186646 
L 16.251736 34.052651 
L 16.205248 33.977177 
L 16.541126 32.89837 
L 17.081553 31.811426 
L 17.195449 31.316546 
L 16.990901 30.322888 
L 16.983927 29.747807 
L 17.137339 29.835183 
L 17.482515 29.981993 
L 17.62198 30.093863 
L 17.683577 30.259945 
L 17.64871 30.426055 
L 17.587113 30.58753 
L 17.578978 30.734455 
L 17.725416 31.010292 
L 18.34836 31.615895 
L 18.459932 31.857542 
L 18.629614 32.404684 
L 18.748159 32.60388 
L 19.204907 32.847529 
L 19.239774 32.89837 
L 19.60122 32.901876 
L 19.766254 32.87441 
L 19.917341 32.800197 
L 19.694197 33.000644 
L 19.345535 33.098253 
L 19.100309 33.206394 
L 19.187474 33.437916 
L 19.289749 33.519195 
L 19.518704 33.660135 
L 19.633762 33.781792 
L 19.665142 33.911655 
L 19.665142 34.0743 
L 19.710468 34.213565 
L 19.874339 34.272085 
L 20.507743 34.312466 
L 20.7797 34.291983 
L 21.098145 34.18255 
L 21.74317 33.657795 
L 21.973287 33.593464 
L 21.737359 33.977177 
L 21.673438 34.19835 
L 21.83266 34.28496 
L 22.90073 34.18255 
L 23.025086 34.114088 
L 23.04833 33.953776 
L 23.04833 33.772433 
L 23.095981 33.638495 
L 23.30634 33.410434 
L 23.459752 33.332672 
L 23.631759 33.3888 
L 23.646867 33.470661 
L 23.545755 33.736754 
L 23.534133 33.87012 
L 23.657327 34.150366 
L 23.870011 34.373919 
L 24.150103 34.522593 
L 24.469711 34.575863 
L 24.559201 34.607476 
L 24.763749 34.746232 
L 24.909025 34.77258 
L 25.075221 34.74389 
L 25.20074 34.688853 
L 25.395991 34.575863 
L 25.912011 34.390307 
L 26.107262 34.219416 
L 26.18513 33.924525 
L 26.160724 33.309286 
L 26.213023 33.077211 
L 26.565172 32.522678 
L 26.641878 32.496975 
L 26.823182 32.496975 
L 26.955674 32.523262 
L 27.097464 32.588107 
L 27.210198 32.670483 
L 27.259011 32.745855 
L 27.30085 32.803703 
L 27.499588 32.863307 
L 27.55886 32.89837 
L 27.565834 32.98954 
L 27.523994 33.077795 
L 27.471695 33.150861 
L 27.453099 33.192949 
L 27.53213 33.49522 
L 27.606511 33.60516 
L 27.754111 33.683529 
L 27.632079 33.887085 
L 27.555374 33.985953 
L 27.453099 34.07547 
L 27.615809 34.324757 
L 27.836628 34.904332 
L 28.046988 35.164375 
L 28.189939 35.232325 
L 28.332891 35.253415 
L 28.451436 35.301452 
L 28.524655 35.450854 
L 28.487465 35.55457 
L 28.287565 35.867541 
L 28.241077 35.995924 
L 28.473518 36.347743 
L 29.023243 36.347743 
L 29.670593 36.247462 
L 30.495761 36.340706 
L 30.731689 36.171231 
L 30.954833 35.953128 
L 31.568479 35.685841 
L 31.71143 35.656538 
L 31.855544 35.678808 
L 32.248371 35.84468 
L 32.61098 35.883954 
L 32.893396 35.812442 
L 33.15838 35.709285 
L 33.604668 35.621375 
L 33.71624 35.533474 
L 33.789459 35.4198 
L 33.817352 35.308483 
L 33.737159 35.292665 
L 33.360604 35.155003 
L 33.231599 35.057187 
L 34.057929 35.083543 
L 34.476324 35.034345 
L 34.90053 34.849872 
L 35.773348 34.869196 
L 35.814026 34.906674 
L 35.748942 34.998033 
L 35.609477 35.343634 
L 35.564151 35.417456 
L 35.623423 35.463159 
L 36.066225 35.614343 
L 38.220959 35.656538 
L 37.940867 35.52527 
L 37.636368 35.450854 
L 37.815348 35.263959 
L 38.382506 35.151488 
L 38.604488 34.96875 
L 37.185431 34.98632 
L 37.001802 34.965822 
L 36.892555 34.835819 
L 36.857689 34.526691 
L 36.797254 34.268574 
L 36.527621 33.875385 
L 36.435807 33.498728 
L 36.296342 33.264854 
L 36.262638 33.143846 
L 36.289369 33.047402 
L 36.341668 32.978435 
L 36.378859 32.905967 
L 36.360263 32.800197 
L 36.271936 32.772733 
L 36.128984 32.787926 
L 36.003466 32.761047 
L 35.969761 32.60388 
L 36.027872 32.536698 
L 36.134795 32.525015 
L 36.257989 32.526183 
L 36.360263 32.496975 
L 36.727521 32.171074 
L 36.920448 32.058962 
L 37.194729 32.015755 
L 37.606151 32.157059 
L 38.471996 32.690932 
L 38.710249 32.69327 
L 39.110048 32.890773 
L 39.151888 33.0965 
L 38.97407 33.326241 
L 38.710249 33.593464 
L 39.240216 33.696396 
L 40.892876 33.454288 
L 41.37403 33.313963 
L 41.596012 33.281224 
L 41.848211 32.94746 
L 42.44791 32.702034 
L 42.582727 32.617318 
L 43.119667 31.932851 
L 43.254483 31.706943 
L 43.311431 31.468835 
L 43.256807 31.231368 
L 43.123153 31.029539 
L 42.76868 30.681396 
L 42.313094 30.118919 
L 42.139925 30.041422 
L 42.139925 29.95228 
L 42.461857 29.988985 
L 42.802384 30.118337 
L 43.417192 30.440627 
L 43.324215 30.315894 
L 43.039474 30.138731 
L 42.919767 30.041422 
L 42.795411 29.895186 
L 42.740787 29.814795 
L 42.717543 29.747807 
L 42.738462 29.649956 
L 42.801222 29.563179 
L 42.872116 29.52125 
L 42.919767 29.562014 
L 42.683839 29.318034 
L 42.293337 29.231287 
L 41.873779 29.185298 
L 41.546037 29.063639 
L 41.526279 28.638828 
L 41.032341 28.214788 
L 38.175633 26.548387 
L 36.909988 26.131084 
L 36.667086 25.999953 
L 36.142931 25.593912 
L 35.476985 25.310947 
L 35.181784 25.147469 
L 35.114376 25.072696 
L 34.956316 24.832767 
L 34.640195 24.478781 
L 34.525137 24.400007 
L 34.009116 24.318923 
L 33.733673 24.186307 
L 33.514015 23.998709 
L 33.329224 23.786838 
L 33.04797 23.336047 
L 32.88991 22.839793 
L 32.82715 22.281389 
L 32.822502 21.054772 
L 32.738823 20.540123 
L 32.5796 20.067844 
L 32.345996 19.611365 
L 31.666104 18.743986 
L 31.555695 18.491298 
L 31.490611 18.377353 
L 31.339524 18.332469 
L 31.176815 18.306 
L 31.069891 18.249612 
L 31.011781 18.079319 
L 31.052458 17.94817 
L 31.128002 17.822214 
L 31.17449 17.670401 
L 31.162868 17.580705 
L 31.087325 17.299599 
L 31.069891 17.135804 
L 31.240736 16.804856 
L 31.272116 16.644596 
L 31.261656 16.410288 
L 31.218654 16.129542 
L 31.128002 15.854048 
L 30.981564 15.629697 
L 30.5376 15.306752 
L 29.868168 14.987361 
L 29.14295 14.822262 
L 28.524655 14.964429 
L 27.913334 14.712213 
L 23.534133 15.253416 
L 22.697343 15.581506 
L 22.413764 15.629697 
L 21.314315 15.59298 
L 20.515878 15.279223 
L 19.917341 15.472512 
L 19.382725 15.831668 
L 19.038712 16.11921 
L 17.609195 16.962846 
L 17.276804 17.372023 
L 15.626468 20.067268 
L 15.377755 20.350952 
L 15.170882 20.47264 
L 15.063959 20.624917 
L 14.945414 20.968208 
L 14.88033 21.332986 
L 14.926819 21.54661 
L 15.10115 21.51081 
L 15.543951 21.074394 
L 15.760122 20.9659 
L 16.470231 21.016683 
L 16.802623 21.13211 
L 16.983927 21.352615 
L 16.967656 21.543145 
L 16.746837 21.833636 
L 16.691051 21.986714 
L 16.707322 22.129995 
L 16.77473 22.408532 
L 16.788676 22.56922 
L 16.73289 22.889522 
L 15.786853 24.717461 
L 15.714796 25.006622 
L 15.543951 25.41183 
L 15.512572 25.545779 
L 15.540465 25.685546 
L 15.714796 26.040567 
L 15.851936 26.635469 
L 15.9484 27.531139 
L 16.052998 27.768268 
L 16.804947 28.960037 
L 16.886302 29.21033 
L 16.809596 29.506691 
L 16.50626 29.928976 
L 16.4958 30.244792 
L 16.398174 30.244792 
L 16.319144 30.107848 
L 16.091351 29.957523 
L 16.009997 29.854407 
L 15.986753 29.697133 
L 16.098325 29.25865 
L 16.100649 28.926864 
L 16.049512 28.629519 
L 15.949562 28.354369 
L 15.803124 28.087439 
L 15.73804 28.012433 
L 15.557898 27.85023 
L 15.512572 27.794425 
L 15.477705 27.623543 
L 15.516058 27.352751 
L 15.512572 27.210413 
L 15.195289 26.373666 
L 15.170882 26.234957 
L 14.993065 26.113096 
L 14.762947 25.570715 
L 14.538641 25.44836 
L 14.348039 25.418788 
L 14.226007 25.333558 
L 14.16441 25.195002 
L 14.145815 25.006622 
L 14.117922 24.875069 
L 14.038892 24.791626 
L 13.800639 24.617231 
L 13.640254 24.53439 
L 13.262536 24.491524 
L 13.124234 24.422596 
L 12.630295 23.936185 
L 12.376934 23.79031 
L 12.11195 23.703491 
L 11.923673 23.55071 
L 11.89578 23.204149 
L 11.942268 23.1706 
L 12.237469 22.766938 
L 12.288606 22.651886 
L 12.30139 22.488872 
L 12.286282 22.176797 
L 12.308363 22.07684 
L 12.395529 21.927213 
L 12.400178 21.837679 
L 12.357176 21.756817 
L 12.288606 21.702529 
L 12.221198 21.667878 
L 12.188656 21.643623 
L 12.071273 21.358965 
L 11.994567 21.246396 
L 11.89578 21.159814 
L 11.791181 21.133841 
L 11.558739 21.158083 
L 11.457627 21.111332 
L 11.319324 20.957244 
L 11.242619 20.888576 
L 11.018312 20.815298 
L 10.800979 20.614533 
L 10.673136 20.56954 
L 10.324474 20.493403 
L 10.145455 20.294028 
L 10.733444 19.848164 
L 12.912764 18.236275 
L 14.810906 16.83403 
L 14.815334 16.832571 
L 14.815334 16.830017 
L 17.872139 14.956191 
L 20.105334 14.375733 
L 20.914185 14.021091 
L 24.063978 13.104759 
L 25.008621 12.957274 
L 27.522257 12.622434 
L 29.709695 12.33309 
L 33.131074 11.879113 
L 34.208557 11.988685 
L 35.246188 12.263037 
L 37.463147 13.347473 
L 39.869034 14.524542 
L 41.306663 15.22999 
L 43.001116 16.061726 
L 45.411431 17.70046 
L 45.750912 18.024395 
L 45.892609 18.301676 
L 45.889657 18.540665 
L 45.830616 18.787393 
L 45.809952 19.092331 
L 45.885229 19.37725 
L 46.034305 19.632619 
L 47.520642 21.128566 
L 48.167131 21.779334 
L 49.094062 23.010624 
L 50.000329 24.214491 
L 50.440178 24.615389 
L 50.939068 24.945062 
L 51.833527 25.407389 
L 52.059355 25.599601 
L 52.232048 25.841948 
L 52.632045 26.5642 
L 52.872634 26.80827 
L 53.169311 26.978639 
L 53.569308 27.151253 
L 54.012109 27.264133 
L 55.814311 27.185927 
L 56.655633 26.940285 
L 57.982561 26.795733 
L 59.257829 26.327565 
L 59.736055 26.297345 
L 60.711694 26.367369 
L 63.029021 26.460988 
L 65.687305 26.570836 
L 68.642036 26.691903 
L 69.160343 26.713141 
L 72.351465 26.843669 
L 73.700533 27.057566 
L 75.446647 27.332015 
L 75.722659 27.211011 
L 76.162509 26.606963 
L 76.444426 26.362946 
L 77.110104 26.112359 
L 77.414161 25.948777 
L 77.575045 25.805113 
L 77.606041 25.707876 
L 77.496817 25.645267 
L 76.780955 25.513432 
L 76.562506 25.432426 
L 76.360293 25.32271 
L 76.04738 25.057678 
L 75.772844 24.706626 
L 75.580963 24.312309 
L 75.516019 23.918158 
L 75.526351 23.415414 
L 75.473215 23.005482 
L 75.309378 22.633173 
L 74.992037 22.243399 
L 74.736688 21.736057 
L 74.752924 21.288741 
L 74.865101 20.83248 
L 74.900525 20.298813 
L 74.58466 19.180467 
L 74.589088 18.634962 
L 74.992037 18.223854 
L 76.363245 17.747929 
L 76.950695 17.418616 
L 77.485009 16.83403 
L 77.485009 16.830382 
L 78.268767 15.746502 
L 79.417099 14.916875 
L 80.760263 14.435035 
L 82.131471 14.394287 
L 84.152121 14.652632 
L 84.816323 14.555107 
L 85.605985 14.270235 
L 85.881998 14.222219 
L 86.857637 14.255321 
L 87.132174 14.210943 
L 87.446563 14.043638 
L 87.402283 13.91018 
L 87.219258 13.75929 
L 87.115938 13.53791 
L 87.232542 13.354014 
L 87.778664 13.224654 
L 87.983829 13.056806 
L 88.565374 12.082304 
L 88.689359 11.755045 
L 88.664267 11.536334 
L 88.358734 11.057388 
L 88.277554 10.685938 
L 88.519618 10.536315 
L 88.907808 10.410621 
L 89.272381 10.106423 
L 89.397841 9.94314 
L 89.549869 9.803052 
L 89.811122 9.715101 
L 90.128463 9.672033 
L 90.451708 9.679272 
L 90.723293 9.74876 
L 90.929934 9.897165 
L 91.256131 10.25018 
L 91.484911 10.3476 
L 91.716644 10.332027 
L 92.234722 10.169789 
L 92.493022 10.138286 
L 92.805935 10.179204 
L 94.224376 10.666011 
L 94.708505 10.924736 
L 95.07603 11.283596 
L 95.222155 11.782977 
L 95.173447 12.039485 
L 95.096694 12.280096 
L 95.092266 12.498262 
L 95.260531 12.687431 
L 95.49374 12.731007 
L 96.411814 12.629332 
L 96.588935 12.550906 
L 96.639119 12.436546 
L 96.574175 12.312763 
L 96.411814 12.203151 
L 95.836173 11.706438 
L 94.776401 10.452638 
L 94.395592 9.79907 
L 93.955743 9.309481 
L 93.452425 9.024464 
L 91.663508 8.415312 
L 91.396351 8.241501 
L 91.315171 7.972359 
L 91.448011 7.7683 
L 91.707788 7.626389 
L 92.24653 7.455981 
L 93.00372 7.1214 
L 93.270877 7.060417 
L 93.619214 7.068716 
L 95.160163 7.519158 
L 95.892261 7.642637 
L 96.625835 7.675856 
L 97.216237 7.549485 
L 97.518818 7.143052 
L 97.71365 5.958034 
L 97.977855 5.641675 
L 98.326192 5.785788 
L 101.399234 8.398688 
L 102.355684 9.041099 
L 103.359368 9.369534 
L 103.995525 9.452386 
L 104.414711 9.434657 
L 104.826516 9.352893 
L 105.241273 9.20711 
L 105.605846 9.178897 
L 105.949755 9.336251 
L 106.857498 10.023148 
L 107.059711 10.259233 
L 107.195503 10.527621 
L 107.365244 11.599076 
L 107.554172 11.849002 
L 107.964502 12.011908 
L 108.692172 12.069966 
L 109.027225 12.15452 
L 109.596962 12.602463 
L 109.954156 12.702682 
L 110.692158 12.71866 
L 113.710587 12.37919 
L 114.950431 12.461232 
L 115.588065 12.4046 
L 116.236031 12.457601 
L 116.686212 12.818529 
L 117.083257 13.27189 
L 117.583623 13.603337 
L 118.216829 13.785467 
L 118.547454 13.929815 
L 118.721622 14.113466 
L 118.672914 14.349539 
L 118.438229 14.475057 
L 118.145981 14.563476 
L 117.911296 14.689024 
L 117.779931 15.342155 
L 118.060372 16.035119 
L 118.104652 16.592204 
L 117.257426 16.835125 
L 117.252998 16.835125 
L 117.24857 16.835125 
L 117.244142 16.83403 
L 116.991745 16.888021 
L 116.830861 17.027026 
L 116.80872 17.213494 
L 116.966653 17.41387 
L 117.170342 17.481402 
L 117.911296 17.46169 
L 119.412392 17.881221 
L 119.833054 18.148595 
L 120.160417 18.519379 
L 120.323087 18.703681 
L 120.537108 18.867822 
L 121.213118 19.165107 
L 121.413854 19.292021 
L 121.588023 19.455536 
L 121.726767 19.650914 
L 121.753336 19.85219 
L 121.588023 20.036304 
L 121.36367 20.059001 
L 121.084705 19.966022 
L 120.59172 19.733981 
L 120.054454 19.608103 
L 119.607225 19.636644 
L 119.214608 19.838282 
L 118.847083 20.22851 
L 118.976971 20.723304 
L 119.41682 21.353992 
L 120.367367 22.358993 
L 120.497256 22.619958 
L 120.300947 22.799115 
L 119.710545 23.020172 
L 119.467005 23.18104 
L 119.281028 23.380144 
L 119.168852 23.623388 
L 118.990255 24.764758 
L 119.089147 25.101845 
L 119.490621 25.400762 
L 121.053709 26.005512 
L 122.42787 26.536922 
L 123.289856 27.014782 
L 124.064759 27.601377 
L 124.475088 27.824304 
L 124.972501 27.932095 
L 125.83006 27.915852 
L 127.554033 27.479601 
L 130.430766 27.348248 
L 131.430021 27.530523 
L 132.111935 28.065006 
L 132.206399 28.005194 
L 132.299388 27.926927 
L 132.48759 27.683203 
L 132.572448 27.57333 
L 132.627061 27.606543 
L 132.671341 27.734241 
L 132.751045 27.864171 
L 133.59532 27.75491 
L 133.849192 27.760816 
L 135.319293 28.551026 
L 135.899363 28.729838 
L 136.444008 28.715798 
L 136.936994 28.527384 
L 137.338467 28.193504 
L 137.610052 27.745314 
L 137.959865 27.593996 
L 138.098609 27.091499 
L 138.291966 26.791308 
L 138.612259 26.672586 
L 139.139192 26.717566 
L 140.528113 26.994129 
L 141.770908 27.399164 
L 144.963506 29.177753 
L 145.242471 29.409185 
L 146.290434 30.746373 
L 146.411467 30.98411 
L 146.460175 31.276733 
L 146.498551 32.288637 
L 146.567923 32.500048 
L 146.460175 32.607625 
L 146.619583 32.891837 
L 147.069027 34.09788 
L 147.232863 34.754259 
L 147.346515 35.061415 
L 147.502972 35.251856 
L 147.973817 35.646247 
L 148.136178 35.847224 
L 148.430641 36.732761 
L 148.623259 37.03756 
L 149.154621 37.584049 
L 149.238753 37.718295 
L 149.353882 38.047274 
L 149.3786 38.08119 
L 149.44687 38.174868 
L 149.755355 38.35472 
L 150.433579 38.511465 
L 151.614382 39.036368 
L 151.752389 39.16633 
L 151.796669 39.776783 
L 151.885229 40.044396 
L 152.252754 40.616492 
L 152.370097 40.879093 
L 152.422495 41.167212 
L 152.433565 41.55125 
L 152.491867 41.846304 
L 152.93024 42.58657 
L 152.986329 42.895426 
L 152.906624 43.157878 
L 152.787806 43.42115 
L 152.728028 43.734766 
L 152.76788 44.067997 
L 153.018801 44.884278 
L 153.173781 45.272751 
L 154.198866 46.284082 
L 154.353109 46.353296 
L 155.178195 47.005038 
L 156.849032 47.945006 
L 158.795882 49.041224 
L 161.116161 50.348572 
L 165.824616 53.006886 
L 167.808366 54.128982 
L 168.714632 54.81602 
L 170.249677 56.52876 
L 171.117568 57.243989 
L 172.699845 58.15298 
L 174.693927 59.298891 
L 176.992066 60.621847 
L 177.420107 60.802257 
L 177.842244 60.866342 
L 178.211245 60.802257 
L 179.316773 60.356057 
L 179.747766 60.314878 
L 180.087247 60.48494 
L 180.518861 60.936376 
L 181.329305 61.784557 
L 184.336664 63.837554 
L 186.171338 64.698597 
L 188.273168 65.301353 
L 189.232571 65.791772 
L 191.133665 67.201812 
L 192.482733 68.206484 
L 194.408919 69.274747 
L 195.828835 70.061624 
L 198.178634 71.365867 
L 199.142465 71.630137 
L 200.121794 71.564641 
L 200.490057 71.3936 
L 201.180827 70.936851 
L 201.588205 70.800556 
L 202.070858 70.835976 
L 203.509962 71.408238 
L 204.453129 71.533051 
L 204.854602 71.70681 
L 205.739467 72.292246 
L 206.66566 72.509696 
L 207.132077 72.687851 
L 207.551263 73.016859 
L 208.215465 73.709134 
L 209.663425 74.27014 
L 210.107702 74.380598 
L 211.199946 74.386006 
L 211.746067 74.509223 
L 212.263407 74.716675 
L 212.743847 75.000295 
L 212.746799 75.002227 
L 212.748275 75.003 
L 212.92233 75.410475 
L 213.054545 75.720101 
L 212.529826 76.569232 
L 211.738687 77.425978 
L 211.241274 78.165169 
L 211.186662 78.753615 
L 211.300314 79.931425 
L 211.245702 80.529334 
L 210.932789 81.542225 
L 210.879653 82.079146 
L 211.074485 82.506219 
L 211.355664 82.708921 
L 211.582231 82.913994 
L 211.638319 83.154524 
L 211.41249 83.465576 
L 211.145334 83.696486 
L 210.929837 83.95393 
L 210.898841 84.230133 
L 211.252344 84.460028 
L 211.013969 84.588633 
L 210.761572 84.773382 
L 210.543124 84.979214 
L 210.422091 85.059529 
L 210.273753 85.082143 
L 210.096632 85.007284 
L 209.881874 84.739081 
L 209.737225 84.679445 
L 209.396268 84.716473 
L 208.411773 84.988571 
L 208.036868 84.957381 
L 207.750523 84.775331 
L 207.512887 84.570705 
L 207.414408 84.528357 
L 207.28632 84.473277 
L 207.152741 84.441323 
L 206.952005 84.299876 
L 206.7985 84.268316 
L 206.326179 84.289356 
L 206.160866 84.268316 
L 205.873046 84.1452 
L 205.625815 83.939518 
L 205.229508 83.491663 
L 204.969731 83.304005 
L 201.763849 82.293829 
L 201.490788 82.125035 
L 201.391158 82.027814 
L 201.276768 81.883943 
L 201.037655 81.430673 
L 200.925479 81.370043 
L 200.64061 81.316412 
L 200.425113 81.234027 
L 200.388213 81.448552 
L 200.299653 81.843507 
L 200.110724 81.976096 
L 199.523274 81.970653 
L 199.276782 82.016148 
L 199.102613 82.104035 
L 198.957965 82.258824 
L 198.809626 82.501551 
L 198.808888 82.504663 
L 198.807412 82.506219 
L 198.630292 82.803475 
L 198.487119 83.124163 
L 198.419223 83.461682 
L 198.532137 84.107801 
L 198.540255 84.441323 
L 198.463503 84.747266 
L 198.280478 84.95972 
L 197.879005 85.306748 
L 197.217755 86.07604 
L 196.711486 86.300058 
L 196.518899 86.304261 
L 190.451751 86.436676 
L 189.394931 86.732215 
L 186.807496 87.913953 
L 186.391262 88.178201 
L 186.125581 88.562954 
L 186.060637 89.153232 
L 186.332222 90.30531 
L 186.391262 90.898427 
L 186.197906 91.411867 
L 185.674128 92.23225 
L 184.143307 94.633208 
L 183.907147 95.120743 
L 183.724122 95.721786 
L 183.678366 96.035802 
L 183.681318 96.343602 
L 183.748476 96.654631 
L 183.949213 97.236747 
L 183.988327 97.552737 
L 183.921907 98.160521 
L 183.75807 98.723645 
L 183.504935 99.251517 
L 182.38391 100.751963 
L 182.091661 101.054646 
L 181.618602 101.385867 
L 181.137424 101.540836 
L 180.085771 101.753555 
L 179.824518 101.848461 
L 179.60607 101.974222 
L 179.437805 102.159328 
L 179.211976 102.774968 
L 179.07028 102.87866 
L 178.893159 102.842248 
L 178.656261 102.756763 
L 178.067335 102.672867 
L 177.535973 102.759138 
L 177.03118 102.97682 
L 176.087275 103.602376 
L 175.907202 103.800404 
L 175.786908 104.044417 
L 175.789122 104.317802 
L 175.920486 105.043161 
L 175.913844 105.235869 
L 174.555182 104.773579 
L 174.155185 104.699058 
L 173.931804 104.729534 
L 173.696148 104.761687 
L 173.268106 104.87744 
L 171.926418 105.565049 
L 171.352252 105.694365 
L 169.589903 105.789576 
L 169.301344 105.84512 
L 169.034925 105.974465 
L 168.837141 106.152239 
L 168.499136 106.557086 
L 168.287329 106.723827 
L 167.132356 107.197174 
L 165.88587 107.424382 
L 162.777404 107.363207 
L 162.474823 107.421204 
L 162.254161 107.622229 
L 162.193645 107.888459 
L 162.292537 108.084791 
L 162.434971 108.281153 
L 162.497702 108.553091 
L 162.588476 108.752709 
L 163.319836 109.331861 
L 163.519835 109.569009 
L 163.615037 109.639048 
L 163.978134 109.760033 
L 164.050458 109.840431 
L 164.03865 109.947902 
L 163.954518 110.088026 
L 163.557473 110.346023 
L 162.461539 110.660628 
L 162.082944 110.989654 
L 162.05859 111.219147 
L 162.093276 112.006754 
L 162.139032 112.195758 
L 162.376669 112.366443 
L 162.426853 112.528377 
L 162.280729 113.013504 
L 162.220213 113.598616 
L 162.133866 113.886083 
L 161.942724 114.063387 
L 161.660807 114.128884 
L 161.067453 114.174414 
L 160.778156 114.233526 
L 159.820229 114.641794 
L 158.525773 115.552279 
L 158.461483 115.580186 
L 157.567847 115.968169 
L 157.192941 116.304179 
L 157.012869 116.525834 
L 156.826892 116.686698 
L 156.612872 116.805159 
L 155.576716 117.203041 
L 155.340556 117.254286 
L 155.213619 117.23587 
L 154.792958 117.078139 
L 154.639454 117.083743 
L 154.497757 117.120572 
L 154.354585 117.130981 
L 154.198866 117.056523 
L 153.260865 116.286576 
L 152.87489 116.305779 
L 152.409949 116.688299 
L 151.020291 118.368579 
L 150.794462 118.475172 
L 150.644647 118.314083 
L 150.375277 117.754036 
L 150.291144 117.518553 
L 150.31476 116.89161 
L 150.294834 116.619469 
L 150.19668 116.345787 
L 150.044652 116.102562 
L 149.835059 115.908976 
L 149.047611 115.601059 
L 148.654255 115.365972 
L 147.190059 114.088148 
L 146.813678 113.857334 
L 146.389327 113.672074 
L 145.555384 113.657702 
L 143.837315 114.188793 
L 142.988612 114.246308 
L 141.062426 113.985914 
L 140.119259 113.650515 
L 139.462437 113.003927 
L 138.534031 112.252384 
L 138.414166 112.20536 
L 138.318534 112.167844 
L 138.156173 112.144716 
L 138.041045 112.086499 
L 137.951009 111.994793 
L 137.856545 111.874389 
L 137.852117 111.812996 
L 137.908205 111.646371 
L 137.902301 111.579408 
L 137.676472 111.401656 
L 137.645476 111.393686 
L 137.623336 111.397671 
L 137.446215 111.260588 
L 137.568724 111.086865 
L 137.580532 111.046227 
L 137.446215 110.941849 
L 137.341419 110.894045 
L 137.220387 110.894045 
L 136.472052 111.021526 
z
" clip-path="url(#p3023a6f9bd)" style="stroke: #000000; stroke-linejoin: miter"/>
   </g>
   <g id="line2d_1">
    <path d="M 136.27722 111.085271 
L 135.735526 110.262407 
L 135.754714 109.758441 
L 135.992351 109.483057 
L 135.992351 109.124194 
L 136.083863 108.607167 
L 135.992351 108.494245 
L 136.075007 107.899586 
L 135.74143 106.588051 
L 135.365049 106.130016 
L 134.826307 105.794337 
L 134.280186 105.668977 
L 134.919296 104.973381 
L 134.91044 104.479484 
L 135.310437 104.118106 
L 135.385713 103.690296 
L 135.611542 103.241257 
L 135.574642 102.779717 
L 135.360621 101.827897 
L 135.105272 101.380332 
L 135.016712 100.705342 
L 134.755459 100.443825 
L 134.618191 100.392477 
L 134.724463 100.183154 
L 134.520774 99.745669 
L 134.603431 98.996627 
L 134.91044 97.767909 
L 134.801215 97.355726 
L 135.081656 96.382968 
L 134.793835 95.489672 
L 133.503807 95.315026 
L 123.033031 95.477084 
L 122.56071 95.25131 
L 122.266985 94.808541 
L 121.551123 93.460012 
L 120.038218 91.885528 
L 119.378444 91.02657 
L 118.842655 90.056243 
L 118.419041 89.574707 
L 117.881776 89.377452 
L 116.709828 89.199795 
L 116.185847 88.938444 
L 115.248584 88.266558 
L 113.040481 87.691186 
L 112.906165 87.751368 
L 112.639008 88.065615 
L 112.503215 88.089851 
L 112.311335 87.962029 
L 111.803589 86.972372 
L 111.592521 86.941129 
L 111.021307 87.086805 
L 110.416145 86.715816 
L 110.482565 86.221998 
L 110.213932 85.96912 
L 109.152685 85.135171 
L 108.838296 83.779828 
L 108.993277 83.20396 
L 108.907668 83.039312 
L 108.885528 82.506219 
L 108.323171 81.956654 
L 107.994022 81.883943 
L 107.192551 82.191927 
L 106.887018 82.167815 
L 103.942389 80.487781 
L 103.551248 80.314982 
L 102.987414 80.098342 
L 101.878935 79.885625 
L 101.022852 79.486693 
L 100.568243 80.055252 
L 99.763821 80.17521 
L 99.639836 80.238105 
L 98.994822 80.226458 
L 98.377852 80.014493 
L 97.427305 79.382714 
L 97.148341 79.400561 
L 96.755723 79.745905 
L 96.432478 80.24587 
L 96.18451 80.345269 
L 94.692269 80.408174 
L 94.135815 80.111541 
L 92.779367 79.89494 
L 92.466454 79.554982 
L 92.377894 78.961466 
L 92.140257 78.494242 
L 92.169777 78.282989 
L 91.819964 78.083013 
L 90.166839 77.820308 
L 87.433279 76.815775 
L 86.512252 76.818097 
L 86.079783 76.392003 
L 85.725542 76.427601 
L 84.956543 76.10068 
L 84.742523 76.146327 
L 84.045849 76.158706 
L 83.079066 75.958334 
L 82.388296 76.073215 
L 80.333697 75.396479 
L 79.972076 74.998749 
L 80.289417 73.960451 
L 80.218569 73.699098 
L 79.913036 73.33979 
L 79.747724 72.893421 
L 79.113042 72.268345 
L 78.41932 70.953408 
L 77.955854 70.783617 
L 77.642941 70.783617 
L 77.226708 71.033115 
L 76.769147 71.595462 
L 75.849596 72.113384 
L 75.558823 72.07561 
L 74.992037 71.88291 
L 72.621574 71.49183 
L 71.436342 70.864466 
L 70.752952 70.960339 
L 69.377316 71.408238 
L 68.562562 71.067772 
L 67.253346 71.10243 
L 66.733792 71.265722 
L 66.252615 71.543067 
L 65.262216 72.434124 
L 65.650405 72.802009 
L 65.718301 73.061222 
L 65.524944 73.573655 
L 65.300592 73.71145 
L 63.845251 73.854667 
L 63.331602 73.679412 
L 62.754484 73.618427 
L 60.491769 73.916438 
L 59.663731 73.63155 
L 58.726468 73.566708 
L 58.168538 73.299659 
L 56.859322 73.137609 
L 54.035725 73.62769 
L 52.781122 73.776301 
L 51.129473 74.779266 
L 50.316194 74.979427 
L 50.006233 75.123194 
L 49.876345 75.359753 
L 49.7007 75.416968 
L 48.599601 75.624203 
L 47.863075 76.202034 
L 47.690382 76.280958 
L 47.502929 76.640828 
L 46.835775 77.259843 
L 44.691141 78.488815 
L 44.077123 79.126688 
L 43.715502 80.445841 
L 44.016607 80.858706 
L 43.954615 81.43456 
L 43.649082 82.150702 
L 42.429902 82.920999 
L 42.147985 83.01596 
L 41.582675 83.418465 
L 41.26681 83.422358 
L 40.074199 83.304784 
L 37.148758 84.624489 
L 36.192307 84.601105 
L 35.405597 85.05719 
L 35.122204 85.070056 
L 31.225627 84.779459 
L 30.883938 82.291122 
L 30.532951 81.400853 
L 30.466705 80.738808 
L 29.956496 78.733 
L 29.748461 74.187034 
L 29.943712 73.692117 
L 30.088988 72.964126 
L 30.442299 71.826914 
L 30.386513 71.421007 
L 30.550384 70.953399 
L 30.574791 70.313867 
L 30.47949 69.103111 
L 30.251697 68.612891 
L 30.221479 68.309791 
L 29.986713 67.080105 
L 30.278428 65.287044 
L 30.501572 64.796734 
L 31.169841 63.933053 
L 31.413905 63.400604 
L 31.272116 62.958704 
L 31.485962 62.817864 
L 32.21118 61.29629 
L 32.070553 61.334753 
L 32.048471 61.026482 
L 31.857869 60.875083 
L 31.355795 60.705085 
L 31.204708 60.503886 
L 30.911831 60.343555 
L 30.453921 59.536862 
L 28.977917 59.475665 
L 28.48514 58.414277 
L 28.346838 58.51857 
L 28.517682 58.993411 
L 28.631579 59.220115 
L 28.401461 59.121151 
L 28.194588 58.898665 
L 28.096963 58.624671 
L 28.249212 58.225498 
L 28.144613 57.8115 
L 28.229454 57.718658 
L 28.631579 57.510241 
L 28.207373 57.476108 
L 28.203886 57.165367 
L 28.524655 56.496896 
L 27.834304 56.871474 
L 27.601862 57.104307 
L 27.802924 57.20847 
L 27.941227 58.826113 
L 27.192765 57.748007 
L 27.078868 57.233015 
L 26.769721 57.20847 
L 26.892915 56.787691 
L 26.867346 56.583647 
L 26.720908 56.496896 
L 26.641878 56.594417 
L 26.282756 57.20847 
L 26.230456 56.864293 
L 26.297864 56.428696 
L 26.575632 55.593313 
L 26.18513 55.89462 
L 26.478007 55.192303 
L 26.381543 55.230545 
L 26.087505 55.292093 
L 26.202563 54.856554 
L 26.028232 54.930027 
L 25.794628 55.192303 
L 25.690029 55.083561 
L 25.528482 55.15944 
L 24.909025 55.192303 
L 24.508064 55.363804 
L 24.518523 55.083561 
L 24.420898 55.083561 
L 24.157077 55.374561 
L 23.73752 55.483932 
L 23.933933 55.083561 
L 23.514376 55.101485 
L 23.297043 55.15944 
L 23.144793 54.991557 
L 22.364952 55.192303 
L 22.292895 54.895978 
L 21.955854 54.863722 
L 21.583948 54.690511 
L 21.296882 54.702456 
L 20.317141 54.991557 
L 21.000519 55.292093 
L 20.647208 55.811513 
L 20.634423 56.294703 
L 20.805268 56.906785 
L 20.768077 57.266542 
L 20.630937 57.441377 
L 20.482174 57.41024 
L 20.040535 55.148088 
L 19.44316 54.417614 
L 19.393185 54.165083 
L 19.661655 53.741352 
L 20.139323 53.292743 
L 20.252057 52.940911 
L 20.540285 52.753714 
L 20.721589 52.475962 
L 21.628112 50.711062 
L 22.116239 50.293502 
L 22.656666 50.38152 
L 22.137159 50.668227 
L 21.666464 51.246643 
L 21.49562 51.716994 
L 21.193446 51.970716 
L 21.2748 52.338902 
L 21.804767 52.395511 
L 23.367937 52.148239 
L 24.556876 52.257866 
L 25.205389 52.987418 
L 25.447128 53.050026 
L 26.478007 53.029156 
L 26.422221 52.775175 
L 26.18513 52.679799 
L 26.369921 52.306129 
L 26.546577 52.356182 
L 26.964972 52.779944 
L 27.236929 52.774579 
L 27.652999 52.452124 
L 28.071394 52.42054 
L 28.524655 52.579663 
L 28.689689 52.443781 
L 28.494438 52.163133 
L 28.020257 51.967142 
L 27.418233 51.852781 
L 27.161385 51.670545 
L 27.525156 51.503821 
L 27.537941 51.345459 
L 27.217171 50.974057 
L 27.025407 50.941923 
L 26.290891 50.910979 
L 26.23743 50.471925 
L 25.968959 50.147218 
L 25.794628 50.065165 
L 25.884118 50.771747 
L 25.794628 50.771747 
L 24.903214 49.833312 
L 24.518523 49.764361 
L 24.570823 49.849362 
L 24.713774 50.173381 
L 24.626609 50.121055 
L 24.315137 49.974201 
L 24.323273 50.251874 
L 24.591743 50.531407 
L 24.616149 50.771747 
L 24.128022 50.511183 
L 24.072236 49.989064 
L 24.315137 48.86723 
L 23.971123 48.965223 
L 23.631759 48.86723 
L 23.631759 48.768653 
L 24.10594 48.582214 
L 25.228633 47.289956 
L 25.103114 47.075332 
L 25.355313 46.98582 
L 25.846928 46.916468 
L 25.756275 46.706664 
L 25.690029 46.67822 
L 26.380381 45.873803 
L 26.18513 45.973284 
L 25.728382 45.742361 
L 24.959 45.709207 
L 24.420898 45.36826 
L 23.918824 45.308488 
L 23.444643 45.475978 
L 22.607853 46.08225 
L 22.102293 46.249868 
L 20.63791 45.444016 
L 20.181162 45.683159 
L 19.971965 45.774332 
L 18.941086 45.873803 
L 19.210718 45.555293 
L 19.34321 45.475978 
L 17.817231 45.780845 
L 17.372105 45.674871 
L 16.942088 45.091917 
L 16.691051 45.278307 
L 16.792163 45.626328 
L 17.085039 46.097056 
L 17.262857 47.04332 
L 17.817231 47.563934 
L 18.355333 48.360195 
L 18.941086 48.86723 
L 18.260032 48.569153 
L 18.452959 48.68018 
L 18.845785 49.075698 
L 18.748159 49.166582 
L 18.103134 48.608931 
L 17.499948 47.642227 
L 16.993225 47.469635 
L 16.725917 46.928323 
L 16.521368 46.208997 
L 14.652538 44.942238 
L 14.441016 44.627571 
L 14.659511 43.647529 
L 14.867546 43.17263 
L 14.721108 42.901022 
L 14.334092 42.492569 
L 14.51191 42.36393 
L 14.447989 42.221147 
L 14.145815 41.988726 
L 13.877345 41.431491 
L 13.920346 40.87339 
L 14.609536 37.906064 
L 14.926819 37.42862 
L 16.221519 35.880437 
L 16.293576 35.36121 
L 16.165733 35.276847 
L 15.714796 35.111658 
L 15.965833 34.533715 
L 16.324955 34.340559 
L 16.205248 33.977177 
L 16.541126 32.89837 
L 17.081553 31.811426 
L 17.195449 31.316546 
L 16.983927 29.747807 
L 17.683577 30.259945 
L 17.578978 30.734455 
L 17.725416 31.010292 
L 18.459932 31.857542 
L 18.748159 32.60388 
L 19.239774 32.89837 
L 19.917341 32.800197 
L 19.694197 33.000644 
L 19.100309 33.206394 
L 19.289749 33.519195 
L 19.633762 33.781792 
L 19.710468 34.213565 
L 19.874339 34.272085 
L 20.7797 34.291983 
L 21.098145 34.18255 
L 21.973287 33.593464 
L 21.673438 34.19835 
L 21.83266 34.28496 
L 23.025086 34.114088 
L 23.095981 33.638495 
L 23.459752 33.332672 
L 23.646867 33.470661 
L 23.534133 33.87012 
L 23.870011 34.373919 
L 24.469711 34.575863 
L 25.075221 34.74389 
L 26.107262 34.219416 
L 26.18513 33.924525 
L 26.213023 33.077211 
L 26.641878 32.496975 
L 27.097464 32.588107 
L 27.565834 32.98954 
L 27.453099 33.192949 
L 27.606511 33.60516 
L 27.754111 33.683529 
L 27.453099 34.07547 
L 27.615809 34.324757 
L 28.046988 35.164375 
L 28.524655 35.450854 
L 28.241077 35.995924 
L 28.473518 36.347743 
L 30.495761 36.340706 
L 31.568479 35.685841 
L 31.855544 35.678808 
L 32.61098 35.883954 
L 33.71624 35.533474 
L 33.817352 35.308483 
L 33.360604 35.155003 
L 33.231599 35.057187 
L 34.476324 35.034345 
L 34.90053 34.849872 
L 35.814026 34.906674 
L 35.564151 35.417456 
L 35.623423 35.463159 
L 36.066225 35.614343 
L 38.220959 35.656538 
L 37.636368 35.450854 
L 37.815348 35.263959 
L 38.382506 35.151488 
L 38.604488 34.96875 
L 37.001802 34.965822 
L 36.892555 34.835819 
L 36.797254 34.268574 
L 36.527621 33.875385 
L 36.271936 32.772733 
L 36.003466 32.761047 
L 36.027872 32.536698 
L 36.360263 32.496975 
L 36.920448 32.058962 
L 37.194729 32.015755 
L 37.606151 32.157059 
L 38.471996 32.690932 
L 38.710249 32.69327 
L 39.110048 32.890773 
L 39.151888 33.0965 
L 38.710249 33.593464 
L 39.240216 33.696396 
L 41.596012 33.281224 
L 41.848211 32.94746 
L 42.582727 32.617318 
L 43.254483 31.706943 
L 43.256807 31.231368 
L 42.76868 30.681396 
L 42.139925 29.95228 
L 42.802384 30.118337 
L 43.417192 30.440627 
L 43.039474 30.138731 
L 42.717543 29.747807 
L 42.872116 29.52125 
L 42.919767 29.562014 
L 42.683839 29.318034 
L 41.546037 29.063639 
L 41.526279 28.638828 
L 41.032341 28.214788 
L 38.175633 26.548387 
L 36.667086 25.999953 
L 36.142931 25.593912 
L 35.114376 25.072696 
L 34.640195 24.478781 
L 34.525137 24.400007 
L 33.733673 24.186307 
L 33.329224 23.786838 
L 33.04797 23.336047 
L 32.82715 22.281389 
L 32.738823 20.540123 
L 32.345996 19.611365 
L 31.339524 18.332469 
L 31.069891 18.249612 
L 31.052458 17.94817 
L 31.162868 17.580705 
L 31.069891 17.135804 
L 31.272116 16.644596 
L 31.128002 15.854048 
L 30.981564 15.629697 
L 30.5376 15.306752 
L 29.868168 14.987361 
L 29.14295 14.822262 
L 28.524655 14.964429 
L 27.913334 14.712213 
L 23.534133 15.253416 
L 22.413764 15.629697 
L 21.314315 15.59298 
L 20.515878 15.279223 
L 19.917341 15.472512 
L 17.276804 17.372023 
L 15.377755 20.350952 
L 15.063959 20.624917 
L 14.88033 21.332986 
L 14.926819 21.54661 
L 15.10115 21.51081 
L 15.760122 20.9659 
L 16.802623 21.13211 
L 16.983927 21.352615 
L 16.967656 21.543145 
L 16.691051 21.986714 
L 16.73289 22.889522 
L 15.543951 25.41183 
L 15.540465 25.685546 
L 15.714796 26.040567 
L 16.052998 27.768268 
L 16.886302 29.21033 
L 16.809596 29.506691 
L 16.50626 29.928976 
L 16.398174 30.244792 
L 16.319144 30.107848 
L 16.009997 29.854407 
L 15.986753 29.697133 
L 16.100649 28.926864 
L 15.949562 28.354369 
L 15.557898 27.85023 
L 15.477705 27.623543 
L 15.512572 27.210413 
L 14.993065 26.113096 
L 14.762947 25.570715 
L 14.16441 25.195002 
L 14.038892 24.791626 
L 13.640254 24.53439 
L 13.124234 24.422596 
L 12.376934 23.79031 
L 11.923673 23.55071 
L 11.942268 23.1706 
L 12.288606 22.651886 
L 12.288606 21.702529 
L 12.188656 21.643623 
L 11.89578 21.159814 
L 11.242619 20.888576 
L 11.018312 20.815298 
L 10.673136 20.56954 
L 10.324474 20.493403 
L 10.145455 20.294028 
L 14.815334 16.830017 
L 17.872139 14.956191 
L 20.105334 14.375733 
L 20.914185 14.021091 
L 24.063978 13.104759 
L 29.709695 12.33309 
L 33.131074 11.879113 
L 34.208557 11.988685 
L 35.246188 12.263037 
L 43.001116 16.061726 
L 45.750912 18.024395 
L 45.892609 18.301676 
L 45.885229 19.37725 
L 46.034305 19.632619 
L 48.167131 21.779334 
L 50.440178 24.615389 
L 52.232048 25.841948 
L 52.872634 26.80827 
L 53.569308 27.151253 
L 54.012109 27.264133 
L 55.814311 27.185927 
L 56.655633 26.940285 
L 57.982561 26.795733 
L 59.257829 26.327565 
L 59.736055 26.297345 
L 63.029021 26.460988 
L 72.351465 26.843669 
L 75.446647 27.332015 
L 75.722659 27.211011 
L 76.444426 26.362946 
L 77.414161 25.948777 
L 77.606041 25.707876 
L 77.496817 25.645267 
L 76.562506 25.432426 
L 76.04738 25.057678 
L 75.580963 24.312309 
L 75.309378 22.633173 
L 74.992037 22.243399 
L 74.736688 21.736057 
L 74.865101 20.83248 
L 74.900525 20.298813 
L 74.58466 19.180467 
L 74.589088 18.634962 
L 74.992037 18.223854 
L 76.363245 17.747929 
L 76.950695 17.418616 
L 77.485009 16.830382 
L 78.268767 15.746502 
L 79.417099 14.916875 
L 80.760263 14.435035 
L 82.131471 14.394287 
L 84.152121 14.652632 
L 84.816323 14.555107 
L 85.881998 14.222219 
L 87.132174 14.210943 
L 87.446563 14.043638 
L 87.402283 13.91018 
L 87.115938 13.53791 
L 87.232542 13.354014 
L 87.778664 13.224654 
L 87.983829 13.056806 
L 88.689359 11.755045 
L 88.664267 11.536334 
L 88.358734 11.057388 
L 88.277554 10.685938 
L 90.128463 9.672033 
L 90.723293 9.74876 
L 91.716644 10.332027 
L 92.493022 10.138286 
L 92.805935 10.179204 
L 94.708505 10.924736 
L 95.07603 11.283596 
L 95.222155 11.782977 
L 95.092266 12.498262 
L 95.260531 12.687431 
L 95.49374 12.731007 
L 96.588935 12.550906 
L 96.574175 12.312763 
L 95.836173 11.706438 
L 94.776401 10.452638 
L 94.395592 9.79907 
L 93.955743 9.309481 
L 93.452425 9.024464 
L 91.396351 8.241501 
L 91.315171 7.972359 
L 91.448011 7.7683 
L 92.24653 7.455981 
L 93.270877 7.060417 
L 93.619214 7.068716 
L 95.892261 7.642637 
L 96.625835 7.675856 
L 97.216237 7.549485 
L 97.518818 7.143052 
L 97.71365 5.958034 
L 97.977855 5.641675 
L 98.326192 5.785788 
L 101.399234 8.398688 
L 102.355684 9.041099 
L 103.359368 9.369534 
L 104.414711 9.434657 
L 105.605846 9.178897 
L 105.949755 9.336251 
L 107.059711 10.259233 
L 107.195503 10.527621 
L 107.365244 11.599076 
L 107.554172 11.849002 
L 107.964502 12.011908 
L 109.027225 12.15452 
L 109.596962 12.602463 
L 109.954156 12.702682 
L 110.692158 12.71866 
L 113.710587 12.37919 
L 116.236031 12.457601 
L 117.583623 13.603337 
L 118.547454 13.929815 
L 118.721622 14.113466 
L 118.672914 14.349539 
L 117.911296 14.689024 
L 117.779931 15.342155 
L 118.060372 16.035119 
L 118.104652 16.592204 
L 116.830861 17.027026 
L 116.80872 17.213494 
L 116.966653 17.41387 
L 117.170342 17.481402 
L 117.911296 17.46169 
L 119.412392 17.881221 
L 119.833054 18.148595 
L 120.537108 18.867822 
L 121.413854 19.292021 
L 121.726767 19.650914 
L 121.753336 19.85219 
L 121.588023 20.036304 
L 121.36367 20.059001 
L 120.054454 19.608103 
L 119.607225 19.636644 
L 119.214608 19.838282 
L 118.847083 20.22851 
L 118.976971 20.723304 
L 119.41682 21.353992 
L 120.497256 22.619958 
L 120.300947 22.799115 
L 119.467005 23.18104 
L 119.168852 23.623388 
L 118.990255 24.764758 
L 119.089147 25.101845 
L 119.490621 25.400762 
L 122.42787 26.536922 
L 123.289856 27.014782 
L 124.475088 27.824304 
L 124.972501 27.932095 
L 125.83006 27.915852 
L 127.554033 27.479601 
L 130.430766 27.348248 
L 131.430021 27.530523 
L 132.206399 28.005194 
L 132.627061 27.606543 
L 132.671341 27.734241 
L 132.751045 27.864171 
L 133.849192 27.760816 
L 135.319293 28.551026 
L 135.899363 28.729838 
L 136.444008 28.715798 
L 136.936994 28.527384 
L 137.338467 28.193504 
L 137.610052 27.745314 
L 137.959865 27.593996 
L 138.291966 26.791308 
L 138.612259 26.672586 
L 139.139192 26.717566 
L 140.528113 26.994129 
L 141.770908 27.399164 
L 145.242471 29.409185 
L 146.411467 30.98411 
L 146.460175 31.276733 
L 146.619583 32.891837 
L 147.502972 35.251856 
L 148.136178 35.847224 
L 148.623259 37.03756 
L 149.238753 37.718295 
L 149.44687 38.174868 
L 149.755355 38.35472 
L 150.433579 38.511465 
L 151.752389 39.16633 
L 151.885229 40.044396 
L 152.370097 40.879093 
L 152.491867 41.846304 
L 152.986329 42.895426 
L 152.728028 43.734766 
L 152.76788 44.067997 
L 153.173781 45.272751 
L 154.353109 46.353296 
L 155.178195 47.005038 
L 167.808366 54.128982 
L 168.714632 54.81602 
L 170.249677 56.52876 
L 171.117568 57.243989 
L 177.420107 60.802257 
L 177.842244 60.866342 
L 178.211245 60.802257 
L 179.316773 60.356057 
L 179.747766 60.314878 
L 180.087247 60.48494 
L 181.329305 61.784557 
L 184.336664 63.837554 
L 186.171338 64.698597 
L 188.273168 65.301353 
L 189.232571 65.791772 
L 192.482733 68.206484 
L 198.178634 71.365867 
L 199.142465 71.630137 
L 200.121794 71.564641 
L 200.490057 71.3936 
L 201.588205 70.800556 
L 202.070858 70.835976 
L 203.509962 71.408238 
L 204.453129 71.533051 
L 204.854602 71.70681 
L 205.739467 72.292246 
L 207.132077 72.687851 
L 207.551263 73.016859 
L 208.215465 73.709134 
L 210.107702 74.380598 
L 211.199946 74.386006 
L 212.263407 74.716675 
L 212.748275 75.003 
L 213.054545 75.720101 
L 212.529826 76.569232 
L 211.738687 77.425978 
L 211.241274 78.165169 
L 211.186662 78.753615 
L 211.300314 79.931425 
L 211.245702 80.529334 
L 210.879653 82.079146 
L 211.074485 82.506219 
L 211.582231 82.913994 
L 211.638319 83.154524 
L 210.898841 84.230133 
L 211.252344 84.460028 
L 210.761572 84.773382 
L 210.273753 85.082143 
L 210.096632 85.007284 
L 209.737225 84.679445 
L 209.396268 84.716473 
L 208.411773 84.988571 
L 208.036868 84.957381 
L 206.7985 84.268316 
L 206.160866 84.268316 
L 205.625815 83.939518 
L 204.969731 83.304005 
L 201.490788 82.125035 
L 201.276768 81.883943 
L 200.925479 81.370043 
L 200.425113 81.234027 
L 200.299653 81.843507 
L 200.110724 81.976096 
L 199.276782 82.016148 
L 198.957965 82.258824 
L 198.487119 83.124163 
L 198.419223 83.461682 
L 198.540255 84.441323 
L 198.463503 84.747266 
L 197.217755 86.07604 
L 196.518899 86.304261 
L 190.451751 86.436676 
L 189.394931 86.732215 
L 186.391262 88.178201 
L 186.125581 88.562954 
L 186.060637 89.153232 
L 186.391262 90.898427 
L 186.197906 91.411867 
L 183.907147 95.120743 
L 183.678366 96.035802 
L 183.748476 96.654631 
L 183.988327 97.552737 
L 183.75807 98.723645 
L 183.504935 99.251517 
L 182.091661 101.054646 
L 181.618602 101.385867 
L 181.137424 101.540836 
L 179.824518 101.848461 
L 179.437805 102.159328 
L 179.07028 102.87866 
L 178.067335 102.672867 
L 177.535973 102.759138 
L 177.03118 102.97682 
L 175.907202 103.800404 
L 175.786908 104.044417 
L 175.789122 104.317802 
L 175.913844 105.235869 
L 174.155185 104.699058 
L 173.268106 104.87744 
L 171.926418 105.565049 
L 171.352252 105.694365 
L 169.301344 105.84512 
L 168.837141 106.152239 
L 168.287329 106.723827 
L 167.132356 107.197174 
L 165.88587 107.424382 
L 162.474823 107.421204 
L 162.254161 107.622229 
L 162.193645 107.888459 
L 162.588476 108.752709 
L 164.03865 109.947902 
L 163.954518 110.088026 
L 163.557473 110.346023 
L 162.461539 110.660628 
L 162.082944 110.989654 
L 162.05859 111.219147 
L 162.139032 112.195758 
L 162.426853 112.528377 
L 161.942724 114.063387 
L 159.820229 114.641794 
L 158.461483 115.580186 
L 157.567847 115.968169 
L 156.612872 116.805159 
L 155.213619 117.23587 
L 154.639454 117.083743 
L 154.354585 117.130981 
L 154.198866 117.056523 
L 153.260865 116.286576 
L 152.87489 116.305779 
L 152.409949 116.688299 
L 150.794462 118.475172 
L 150.644647 118.314083 
L 150.291144 117.518553 
L 150.294834 116.619469 
L 150.044652 116.102562 
L 149.835059 115.908976 
L 148.654255 115.365972 
L 146.813678 113.857334 
L 146.389327 113.672074 
L 145.555384 113.657702 
L 143.837315 114.188793 
L 142.988612 114.246308 
L 141.062426 113.985914 
L 140.119259 113.650515 
L 139.462437 113.003927 
L 138.318534 112.167844 
L 138.041045 112.086499 
L 137.852117 111.812996 
L 137.902301 111.579408 
L 137.446215 111.260588 
L 137.580532 111.046227 
L 137.220387 110.894045 
L 136.27722 111.085271 
L 136.27722 111.085271 
" clip-path="url(#p3023a6f9bd)" style="fill: none; stroke: #000000; stroke-width: 0.5; stroke-linecap: square"/>
   </g>
  </g>
 </g>
 <defs>
  <clipPath id="p3023a6f9bd">
   <rect x="0" y="-0" width="223.2" height="124.116847"/>
  </clipPath>
 </defs>
</svg>
