<?xml version="1.0" encoding="utf-8" standalone="no"?>
<!DOCTYPE svg PUBLIC "-//W3C//DTD SVG 1.1//EN"
  "http://www.w3.org/Graphics/SVG/1.1/DTD/svg11.dtd">
<svg xmlns:xlink="http://www.w3.org/1999/xlink" width="160.854387pt" height="221.76pt" viewBox="0 0 160.854387 221.76" xmlns="http://www.w3.org/2000/svg" version="1.1">
 <metadata>
  <rdf:RDF xmlns:dc="http://purl.org/dc/elements/1.1/" xmlns:cc="http://creativecommons.org/ns#" xmlns:rdf="http://www.w3.org/1999/02/22-rdf-syntax-ns#">
   <cc:Work>
    <dc:type rdf:resource="http://purl.org/dc/dcmitype/StillImage"/>
    <dc:date>2026-04-26T19:22:07.619346</dc:date>
    <dc:format>image/svg+xml</dc:format>
    <dc:creator>
     <cc:Agent>
      <dc:title>Matplotlib v3.10.9, https://matplotlib.org/</dc:title>
     </cc:Agent>
    </dc:creator>
   </cc:Work>
  </rdf:RDF>
 </metadata>
 <defs>
  <style type="text/css">*{stroke-linejoin: round; stroke-linecap: butt}</style>
 </defs>
 <g id="figure_1">
  <g id="patch_1">
   <path d="M 0 221.76 
L 160.854387 221.76 
L 160.854387 0 
L 0 0 
z
" style="fill: #ffffff"/>
  </g>
  <g id="axes_1">
   <g id="patch_2">
    <path d="M 32.049351 197.217342 
L 31.755785 197.096599 
L 31.348156 196.928943 
L 30.984028 196.994834 
L 30.632361 197.203487 
L 30.211468 197.342588 
L 29.760115 197.265717 
L 29.303225 197.090009 
L 28.86018 197.002155 
L 28.450363 197.196166 
L 28.224687 197.701324 
L 28.051622 199.165537 
L 27.91317 199.70363 
L 27.749797 199.882994 
L 27.301214 200.150209 
L 27.204383 200.255624 
L 27.11292 200.355195 
L 27.035387 200.567502 
L 26.975853 201.076304 
L 26.924625 201.310572 
L 26.636646 201.951146 
L 26.286363 202.54413 
L 25.094294 204.041217 
L 24.680324 204.366986 
L 24.482338 204.443852 
L 24.269123 204.465814 
L 24.055907 204.513398 
L 23.84546 204.678112 
L 23.654397 205.161271 
L 23.491024 206.533868 
L 23.352573 207.07192 
L 23.061824 207.43062 
L 21.968056 207.994288 
L 21.177105 208.554374 
L 21.037661 208.653116 
L 20.688763 209.128934 
L 20.445088 209.901216 
L 20.168184 209.978078 
L 18.34893 211.310338 
L 17.76051 211.59948 
L 17.197012 211.68 
L 16.673664 211.482359 
L 16.214005 210.915054 
L 15.953716 210.164742 
L 15.890028 208.708019 
L 15.77096 207.965007 
L 15.017783 206.519227 
L 14.724265 206.321574 
L 14.721291 206.320987 
L 14.483359 206.273991 
L 14.25076 206.365497 
L 14.002932 206.57047 
L 13.760641 206.951133 
L 13.600038 207.650232 
L 13.378515 207.82226 
L 13.19299 207.734416 
L 12.622569 207.276892 
L 12.30413 207.181727 
L 11.653407 207.335455 
L 11.204824 207.642911 
L 10.790853 208.03821 
L 10.238431 208.448148 
L 9.740005 208.627495 
L 9.177891 208.682398 
L 8.100738 208.605535 
L 8.35272 206.526548 
L 8.347181 205.849402 
L 8.241958 205.450433 
L 7.929057 204.740337 
L 7.915212 204.363325 
L 8.168579 203.466543 
L 8.194885 203.166394 
L 8.03705 202.401375 
L 7.761531 201.859636 
L 7.541393 201.28861 
L 7.538624 200.435725 
L 7.86537 198.246745 
L 7.890291 197.60981 
L 7.77953 196.925283 
L 7.384942 195.563538 
L 7.311563 194.94123 
L 7.389096 194.516594 
L 7.393495 194.506709 
L 7.527548 194.205438 
L 7.630002 193.861335 
L 7.598158 193.337857 
L 7.494319 192.671609 
L 7.477705 192.32018 
L 7.513702 191.998036 
L 7.812758 191.37571 
L 8.604702 191.020617 
L 8.906526 190.544717 
L 8.98129 190.032208 
L 9.050516 187.901615 
L 8.989597 187.154802 
L 8.75146 185.774652 
L 8.773613 185.03515 
L 9.108666 182.245516 
L 9.197275 182.062468 
L 9.346802 181.916029 
L 9.476947 181.736642 
L 9.51156 181.462068 
L 9.449257 181.249731 
L 9.241579 180.872649 
L 9.197275 180.660312 
L 9.305267 180.272246 
L 9.55448 180.17706 
L 9.83969 180.151433 
L 10.055675 179.957399 
L 10.113825 179.463163 
L 10.025216 177.292169 
L 9.900609 176.746671 
L 9.619842 175.969438 
L 9.546173 175.765505 
L 9.479716 175.099188 
L 10.058315 170.637748 
L 10.138746 170.01756 
L 10.58313 166.543203 
L 10.745164 165.276357 
L 11.211746 161.662769 
L 11.613256 160.359386 
L 11.755861 159.693049 
L 11.732325 159.015729 
L 11.41527 157.470707 
L 11.454037 156.859288 
L 11.68802 155.900057 
L 12.866244 153.728977 
L 13.013002 153.329909 
L 13.328672 153.494662 
L 13.525274 153.717993 
L 13.70803 153.813184 
L 13.973857 153.589852 
L 14.068004 153.318925 
L 14.92502 147.490368 
L 15.11193 146.728854 
L 15.419292 146.066191 
L 16.834768 143.903888 
L 17.34377 143.126332 
L 17.42886 142.882139 
L 17.814506 141.775398 
L 17.748049 140.395184 
L 17.252392 137.532275 
L 17.266238 136.803741 
L 17.595752 133.810923 
L 17.448994 131.97865 
L 17.48776 131.619885 
L 17.997262 130.217784 
L 18.343391 129.952375 
L 18.932192 129.352987 
L 19.312553 128.965788 
L 20.436781 128.294035 
L 23.297192 127.435587 
L 23.557481 127.239737 
L 23.848229 126.787636 
L 24.33281 125.594244 
L 24.415881 125.46612 
L 24.540488 124.895053 
L 25.144137 124.056761 
L 25.329662 123.399676 
L 25.185673 121.959228 
L 25.177365 121.274701 
L 25.517957 120.851907 
L 25.612104 120.542591 
L 25.68133 120.176538 
L 25.73671 119.418812 
L 25.808705 119.188201 
L 26.62557 118.080908 
L 26.856784 117.92717 
L 27.085229 117.831998 
L 27.331673 117.890565 
L 27.622422 118.199873 
L 28.08485 118.485389 
L 28.412981 118.024171 
L 28.738342 117.310386 
L 29.186926 116.849174 
L 29.499826 116.81257 
L 30.106245 116.90042 
L 30.466219 116.849174 
L 30.972952 116.673475 
L 31.346772 116.468492 
L 31.687363 116.153699 
L 32.223171 115.553399 
L 34.244117 112.118134 
L 35.411712 110.133482 
L 37.674012 106.284934 
L 41.298677 102.419187 
L 44.980107 98.483195 
L 46.893509 96.444837 
L 48.773787 93.324647 
L 49.392561 92.297868 
L 51.112131 89.435493 
L 52.707094 86.78181 
L 53.474116 84.946897 
L 53.705614 83.232038 
L 53.715022 83.16235 
L 53.669289 83.069906 
L 53.367508 82.459889 
L 51.851463 81.323897 
L 51.294887 80.751337 
L 51.089978 80.142198 
L 50.9986 79.397704 
L 50.958449 77.870336 
L 49.663926 78.516033 
L 49.218112 78.607492 
L 48.855369 78.585542 
L 47.681299 78.318482 
L 47.290865 78.047765 
L 47.152413 77.727663 
L 47.241022 77.584989 
L 47.39055 77.480728 
L 47.432086 77.277693 
L 47.368398 77.016127 
L 47.307479 76.867968 
L 45.795587 74.623687 
L 45.344235 74.241419 
L 44.350152 74.235932 
L 43.909875 75.207154 
L 43.53744 76.346672 
L 42.766265 76.838703 
L 42.314912 76.567994 
L 41.816486 75.979024 
L 41.373441 75.283975 
L 41.102076 74.704165 
L 41.030081 74.186548 
L 41.034234 73.648818 
L 40.9747 73.217175 
L 40.708873 73.014158 
L 38.831468 72.990382 
L 38.446573 72.836748 
L 38.36904 72.229532 
L 38.612715 71.492471 
L 38.950537 70.771881 
L 39.155445 70.203098 
L 39.177598 69.568483 
L 39.075143 68.259046 
L 39.108372 67.600684 
L 39.219133 67.238588 
L 39.74248 66.159635 
L 39.804784 65.8835 
L 39.825135 65.735431 
L 39.88647 65.289176 
L 40.780868 62.105561 
L 40.814096 61.922707 
L 40.819634 61.571629 
L 40.886091 61.372321 
L 40.999621 61.273581 
L 41.323598 61.191298 
L 41.428821 61.121815 
L 41.611578 60.770744 
L 42.273377 58.390117 
L 42.312143 56.980455 
L 42.021395 55.579982 
L 41.4039 54.152135 
L 40.940087 53.589054 
L 39.692638 52.442807 
L 39.37143 51.918141 
L 39.338201 51.239924 
L 39.446194 50.488597 
L 39.86271 48.835781 
L 40.955317 44.500452 
L 41.435744 43.248473 
L 41.53266 43.168056 
L 41.855253 43.071189 
L 41.979859 42.988945 
L 42.065699 42.806179 
L 42.098928 42.435167 
L 42.147386 42.26337 
L 42.677656 41.058072 
L 43.450216 39.937794 
L 43.654242 39.548068 
L 43.790807 39.287208 
L 43.959718 38.530643 
L 43.909875 38.117646 
L 43.641279 37.375725 
L 43.599744 36.970965 
L 43.779731 35.971419 
L 43.771424 35.654385 
L 43.425294 34.812019 
L 42.990556 35.008448 
L 42.483823 35.581294 
L 41.902326 35.864523 
L 42.015857 35.309031 
L 42.602892 33.786957 
L 44.372304 30.387665 
L 44.494141 29.972027 
L 44.577212 29.563702 
L 44.712895 29.179133 
L 45.009181 28.835673 
L 45.290238 28.70779 
L 45.820508 28.725145 
L 46.093258 28.675819 
L 46.457386 28.454766 
L 47.282558 27.590662 
L 47.531771 27.457304 
L 48.041273 27.324859 
L 48.282179 27.198809 
L 48.998597 26.46096 
L 49.992057 25.437813 
L 50.691238 25.180248 
L 51.956686 25.182074 
L 53.053223 25.383011 
L 54.105456 25.824164 
L 56.320682 27.41072 
L 59.743207 29.866063 
L 60.233326 29.999431 
L 60.522154 29.664274 
L 60.548996 29.633126 
L 60.861897 29.118844 
L 61.332632 28.807356 
L 64.112742 28.269338 
L 64.602861 27.993481 
L 64.852074 27.694792 
L 66.984229 24.533605 
L 67.042379 24.330847 
L 67.12545 24.352766 
L 67.664555 24.682997 
L 67.823246 24.780204 
L 68.457355 25.481654 
L 70.365219 28.294914 
L 70.750114 29.144421 
L 70.851184 29.814908 
L 70.932871 31.441855 
L 71.118396 32.04022 
L 71.483908 32.291444 
L 73.589059 32.462379 
L 73.801589 32.479636 
L 74.106183 32.694322 
L 74.446138 33.411661 
L 74.623992 33.786957 
L 75.033809 34.345164 
L 75.485161 34.65305 
L 77.168733 35.101637 
L 77.494095 35.085192 
L 77.669928 34.779129 
L 77.706797 34.555077 
L 77.788997 34.055553 
L 77.794535 33.507399 
L 77.678236 32.242113 
L 77.70731 31.784429 
L 78.024365 31.304827 
L 82.954628 27.348608 
L 84.127314 26.9869 
L 89.049271 26.457133 
L 93.259586 26.006838 
L 95.508041 25.113573 
L 97.612506 23.704314 
L 99.237928 22.112467 
L 99.711433 21.88872 
L 100.247241 22.183701 
L 103.629615 25.827817 
L 104.191729 26.217827 
L 105.021054 26.429731 
L 107.461957 26.589574 
L 111.770573 26.878205 
L 112.930798 26.68822 
L 113.923939 25.921685 
L 114.055025 25.82051 
L 116.026577 23.212047 
L 118.590702 19.819365 
L 121.585411 15.862785 
L 123.792331 12.9539 
L 125.963253 10.08 
L 126.738582 10.573874 
L 127.342231 11.199216 
L 127.677284 12.019029 
L 127.641287 13.106368 
L 127.674515 13.587512 
L 127.909883 13.974624 
L 128.208939 14.335264 
L 128.43323 14.73243 
L 128.516301 15.142384 
L 128.524608 15.557822 
L 128.447075 16.381411 
L 128.341852 16.873566 
L 128.225553 17.209588 
L 128.214477 17.568442 
L 128.424923 18.130015 
L 128.743362 18.521753 
L 129.136565 18.867839 
L 129.446696 19.274197 
L 129.513153 19.844935 
L 129.227943 20.750831 
L 128.887352 21.565431 
L 128.848585 22.178221 
L 129.471618 22.475032 
L 129.892511 22.36544 
L 130.95582 21.864975 
L 131.476398 21.868628 
L 132.068971 22.276853 
L 132.138197 22.759972 
L 131.847448 23.236706 
L 130.568155 24.109823 
L 130.617997 24.303447 
L 131.038891 24.511685 
L 131.373944 25.049639 
L 130.83952 25.499921 
L 130.662302 25.773015 
L 131.002893 25.942902 
L 131.229954 25.922808 
L 131.692382 25.765709 
L 132.218499 25.72004 
L 132.750153 25.521841 
L 133.032594 25.490787 
L 133.049209 25.663412 
L 133.644551 26.677259 
L 134.04883 28.103093 
L 134.358961 28.335105 
L 134.483568 28.187129 
L 134.599867 27.848247 
L 134.87954 27.502974 
L 135.607795 27.224384 
L 136.089607 27.479226 
L 136.959084 28.703223 
L 137.463048 29.050335 
L 137.964243 29.253123 
L 138.357445 29.587453 
L 138.537433 30.331028 
L 138.470976 33.173944 
L 138.218994 34.590925 
L 137.709492 35.623321 
L 137.460279 35.790517 
L 137.186144 35.885536 
L 136.942469 36.026238 
L 136.792942 36.335967 
L 136.815094 36.718792 
L 137.144609 37.476231 
L 137.25537 37.864551 
L 137.213835 38.199879 
L 136.945238 39.066085 
L 136.864936 39.466301 
L 136.934162 39.889365 
L 137.144609 40.268574 
L 137.396591 40.631339 
L 137.593192 41.009642 
L 137.939321 42.420546 
L 138.205149 46.763259 
L 138.495897 47.573005 
L 139.055242 48.042775 
L 140.317921 48.519862 
L 140.880035 49.01158 
L 141.19394 49.753225 
L 141.195704 49.757393 
L 141.973803 55.108294 
L 142.242399 55.724415 
L 143.092492 56.973142 
L 143.494002 57.817836 
L 143.737677 58.150599 
L 144.103189 58.278586 
L 144.269331 58.203622 
L 144.568387 57.88 
L 144.679148 57.808694 
L 144.745605 57.74653 
L 144.864673 57.470449 
L 144.93113 57.41377 
L 145.033585 57.477762 
L 145.091734 57.600262 
L 145.136039 57.722761 
L 145.18865 57.786754 
L 145.238493 57.881829 
L 145.997208 58.362691 
L 146.138429 58.408401 
L 146.321185 58.708258 
L 146.429177 59.020915 
L 146.974677 61.251639 
L 147.381725 64.325473 
L 148.51149 67.426951 
L 148.763472 67.752472 
L 149.131754 67.789048 
L 149.347738 67.527533 
L 149.524956 67.233102 
L 149.768631 67.183726 
L 150.037228 67.666519 
L 150.189524 69.427662 
L 150.34459 70.10251 
L 151.075615 71.093767 
L 151.322059 71.697311 
L 151.250064 72.500218 
L 150.854092 73.127555 
L 150.314131 73.533591 
L 149.82955 74.027424 
L 149.594182 74.901702 
L 149.768631 76.291799 
L 150.804985 79.59255 
L 151.288831 81.133653 
L 152.498898 84.985315 
L 152.501667 85.670428 
L 152.249685 87.249238 
L 152.20815 87.938037 
L 152.241378 88.669837 
L 152.352139 89.378777 
L 152.543203 89.998993 
L 152.77857 90.366734 
L 153.407141 91.142474 
L 153.542824 91.536751 
L 153.443138 91.916394 
L 152.941943 92.75436 
L 152.825644 93.185241 
L 152.797954 100.066898 
L 152.63735 100.835432 
L 151.787257 103.215195 
L 151.593424 103.616861 
L 151.31929 103.956313 
L 151.053463 104.117347 
L 150.491349 104.269231 
L 150.222753 104.44765 
L 149.605258 105.662741 
L 149.040376 108.522121 
L 147.448182 110.244201 
L 147.495167 110.837663 
L 147.547867 111.5033 
L 148.013064 112.943599 
L 148.292737 114.352809 
L 147.954915 115.791322 
L 147.102052 116.301945 
L 144.897902 116.600267 
L 144.341326 117.050497 
L 143.427545 118.210855 
L 142.128869 118.602524 
L 141.946112 119.250429 
L 141.901808 120.04842 
L 141.765322 120.35636 
L 141.613828 120.698164 
L 141.582655 120.706018 
L 141.054484 120.839095 
L 140.616977 120.511476 
L 140.173931 120.374206 
L 139.625663 121.084352 
L 139.362604 121.71763 
L 139.138313 122.438765 
L 138.999861 123.192851 
L 138.983247 124.781572 
L 138.825412 125.506387 
L 138.130385 127.776037 
L 137.357824 129.103068 
L 136.972929 130.528954 
L 136.513269 131.081741 
L 134.7937 132.220267 
L 134.572177 132.531441 
L 134.514567 132.975522 
L 134.408804 133.790788 
L 133.976835 135.310071 
L 133.33165 136.225308 
L 132.464943 136.807402 
L 131.376713 137.32726 
L 130.584769 138.044813 
L 130.12511 139.135792 
L 130.10288 139.256278 
L 129.457773 142.752902 
L 129.374702 143.05311 
L 129.186407 143.422879 
L 128.723979 144.147774 
L 128.60491 144.46995 
L 128.632601 145.121625 
L 128.934425 146.413997 
L 128.859661 147.135238 
L 128.629832 147.603863 
L 127.666208 148.592369 
L 125.512821 152.389689 
L 125.284839 152.791716 
L 123.725874 155.5376 
L 123.642803 156.236887 
L 124.476282 159.887092 
L 125.304223 163.526313 
L 125.331913 164.895595 
L 124.839025 170.519137 
L 124.202147 177.823021 
L 123.759102 182.904489 
L 123.858787 187.733216 
L 124.011084 194.94123 
L 121.815241 194.94123 
L 116.912667 194.94123 
L 116.711934 194.94123 
L 112.005941 194.94123 
L 111.209866 194.94123 
L 107.101983 194.94123 
L 102.195256 194.94123 
L 97.292683 194.94123 
L 95.692203 194.94123 
L 92.38734 194.94123 
L 92.344333 194.94123 
L 87.483382 194.94123 
L 82.575271 194.94123 
L 77.669928 194.94123 
L 72.763202 194.94123 
L 72.623387 194.94123 
L 67.859244 194.94123 
L 62.955286 194.94123 
L 58.049943 194.94123 
L 53.716251 194.94123 
L 53.144601 194.94123 
L 48.240643 194.94123 
L 43.333916 194.94123 
L 41.603271 194.94123 
L 41.17684 194.663021 
L 40.22983 194.348204 
L 39.221902 195.043728 
L 38.205667 195.468362 
L 37.818002 195.735587 
L 36.859917 197.075367 
L 36.519326 197.448745 
L 35.874141 197.181523 
L 35.289875 197.09733 
L 33.938587 197.262056 
L 33.440161 197.4158 
L 33.117568 197.448745 
L 32.966656 197.357231 
L 32.828204 197.15956 
L 32.628834 196.983852 
L 32.29655 196.943586 
L 32.080565 197.174202 
z
" clip-path="url(#paf1df460e1)" style="stroke: #000000; stroke-linejoin: miter"/>
   </g>
   <g id="line2d_1">
    <path d="M 32.049351 197.217342 
L 31.348156 196.928943 
L 30.984028 196.994834 
L 30.211468 197.342588 
L 28.86018 197.002155 
L 28.450363 197.196166 
L 28.224687 197.701324 
L 27.91317 199.70363 
L 27.749797 199.882994 
L 27.11292 200.355195 
L 27.035387 200.567502 
L 26.924625 201.310572 
L 26.286363 202.54413 
L 25.094294 204.041217 
L 24.482338 204.443852 
L 24.055907 204.513398 
L 23.84546 204.678112 
L 23.654397 205.161271 
L 23.352573 207.07192 
L 23.061824 207.43062 
L 21.968056 207.994288 
L 21.037661 208.653116 
L 20.688763 209.128934 
L 20.445088 209.901216 
L 20.168184 209.978078 
L 18.34893 211.310338 
L 17.76051 211.59948 
L 17.197012 211.68 
L 16.673664 211.482359 
L 16.214005 210.915054 
L 15.953716 210.164742 
L 15.77096 207.965007 
L 15.017783 206.519227 
L 14.483359 206.273991 
L 14.002932 206.57047 
L 13.760641 206.951133 
L 13.600038 207.650232 
L 13.378515 207.82226 
L 13.19299 207.734416 
L 12.622569 207.276892 
L 12.30413 207.181727 
L 11.653407 207.335455 
L 10.790853 208.03821 
L 10.238431 208.448148 
L 9.740005 208.627495 
L 9.177891 208.682398 
L 8.100738 208.605535 
L 8.347181 205.849402 
L 8.241958 205.450433 
L 7.929057 204.740337 
L 7.915212 204.363325 
L 8.194885 203.166394 
L 8.03705 202.401375 
L 7.541393 201.28861 
L 7.538624 200.435725 
L 7.890291 197.60981 
L 7.77953 196.925283 
L 7.311563 194.94123 
L 7.527548 194.205438 
L 7.630002 193.861335 
L 7.513702 191.998036 
L 7.812758 191.37571 
L 8.604702 191.020617 
L 8.906526 190.544717 
L 8.98129 190.032208 
L 8.989597 187.154802 
L 8.75146 185.774652 
L 8.773613 185.03515 
L 9.197275 182.062468 
L 9.476947 181.736642 
L 9.449257 181.249731 
L 9.197275 180.660312 
L 9.305267 180.272246 
L 10.055675 179.957399 
L 10.113825 179.463163 
L 9.900609 176.746671 
L 9.546173 175.765505 
L 9.479716 175.099188 
L 11.211746 161.662769 
L 11.755861 159.693049 
L 11.732325 159.015729 
L 11.41527 157.470707 
L 11.454037 156.859288 
L 11.68802 155.900057 
L 13.013002 153.329909 
L 13.70803 153.813184 
L 13.973857 153.589852 
L 14.068004 153.318925 
L 15.11193 146.728854 
L 15.419292 146.066191 
L 17.42886 142.882139 
L 17.814506 141.775398 
L 17.748049 140.395184 
L 17.252392 137.532275 
L 17.266238 136.803741 
L 17.595752 133.810923 
L 17.48776 131.619885 
L 17.997262 130.217784 
L 18.343391 129.952375 
L 19.312553 128.965788 
L 20.436781 128.294035 
L 23.297192 127.435587 
L 23.557481 127.239737 
L 23.848229 126.787636 
L 24.540488 124.895053 
L 25.144137 124.056761 
L 25.329662 123.399676 
L 25.177365 121.274701 
L 25.517957 120.851907 
L 25.68133 120.176538 
L 25.808705 119.188201 
L 26.856784 117.92717 
L 27.085229 117.831998 
L 27.331673 117.890565 
L 27.622422 118.199873 
L 28.08485 118.485389 
L 28.412981 118.024171 
L 28.738342 117.310386 
L 29.186926 116.849174 
L 29.499826 116.81257 
L 30.466219 116.849174 
L 31.346772 116.468492 
L 32.223171 115.553399 
L 37.674012 106.284934 
L 46.893509 96.444837 
L 52.707094 86.78181 
L 53.474116 84.946897 
L 53.669289 83.069906 
L 53.367508 82.459889 
L 51.851463 81.323897 
L 51.294887 80.751337 
L 51.089978 80.142198 
L 50.9986 79.397704 
L 50.958449 77.870336 
L 49.663926 78.516033 
L 48.855369 78.585542 
L 47.681299 78.318482 
L 47.290865 78.047765 
L 47.152413 77.727663 
L 47.432086 77.277693 
L 47.307479 76.867968 
L 45.795587 74.623687 
L 45.344235 74.241419 
L 44.350152 74.235932 
L 43.909875 75.207154 
L 43.53744 76.346672 
L 42.766265 76.838703 
L 42.314912 76.567994 
L 41.373441 75.283975 
L 41.102076 74.704165 
L 40.9747 73.217175 
L 40.708873 73.014158 
L 38.831468 72.990382 
L 38.446573 72.836748 
L 38.36904 72.229532 
L 39.177598 69.568483 
L 39.108372 67.600684 
L 39.219133 67.238588 
L 39.825135 65.735431 
L 39.88647 65.289176 
L 40.999621 61.273581 
L 41.428821 61.121815 
L 41.611578 60.770744 
L 42.273377 58.390117 
L 42.312143 56.980455 
L 42.021395 55.579982 
L 41.4039 54.152135 
L 40.940087 53.589054 
L 39.692638 52.442807 
L 39.37143 51.918141 
L 39.338201 51.239924 
L 39.446194 50.488597 
L 40.955317 44.500452 
L 41.53266 43.168056 
L 41.979859 42.988945 
L 42.065699 42.806179 
L 42.147386 42.26337 
L 42.677656 41.058072 
L 43.790807 39.287208 
L 43.959718 38.530643 
L 43.909875 38.117646 
L 43.599744 36.970965 
L 43.771424 35.654385 
L 43.425294 34.812019 
L 42.990556 35.008448 
L 42.483823 35.581294 
L 41.902326 35.864523 
L 42.015857 35.309031 
L 42.602892 33.786957 
L 44.494141 29.972027 
L 44.712895 29.179133 
L 45.009181 28.835673 
L 45.290238 28.70779 
L 46.093258 28.675819 
L 46.457386 28.454766 
L 47.531771 27.457304 
L 48.282179 27.198809 
L 49.992057 25.437813 
L 50.691238 25.180248 
L 51.956686 25.182074 
L 53.053223 25.383011 
L 54.105456 25.824164 
L 59.743207 29.866063 
L 60.233326 29.999431 
L 61.332632 28.807356 
L 64.112742 28.269338 
L 64.602861 27.993481 
L 64.852074 27.694792 
L 67.12545 24.352766 
L 67.823246 24.780204 
L 68.457355 25.481654 
L 70.365219 28.294914 
L 70.750114 29.144421 
L 70.851184 29.814908 
L 70.932871 31.441855 
L 71.118396 32.04022 
L 71.483908 32.291444 
L 73.801589 32.479636 
L 74.106183 32.694322 
L 74.623992 33.786957 
L 75.033809 34.345164 
L 75.485161 34.65305 
L 77.494095 35.085192 
L 77.706797 34.555077 
L 77.794535 33.507399 
L 77.70731 31.784429 
L 78.024365 31.304827 
L 82.954628 27.348608 
L 84.127314 26.9869 
L 93.259586 26.006838 
L 95.508041 25.113573 
L 97.612506 23.704314 
L 99.237928 22.112467 
L 99.711433 21.88872 
L 100.247241 22.183701 
L 103.629615 25.827817 
L 104.191729 26.217827 
L 105.021054 26.429731 
L 111.770573 26.878205 
L 112.930798 26.68822 
L 114.055025 25.82051 
L 125.963253 10.08 
L 126.738582 10.573874 
L 127.342231 11.199216 
L 127.677284 12.019029 
L 127.674515 13.587512 
L 128.516301 15.142384 
L 128.447075 16.381411 
L 128.214477 17.568442 
L 128.424923 18.130015 
L 129.446696 19.274197 
L 129.513153 19.844935 
L 128.848585 22.178221 
L 129.471618 22.475032 
L 129.892511 22.36544 
L 130.95582 21.864975 
L 131.476398 21.868628 
L 132.068971 22.276853 
L 132.138197 22.759972 
L 131.847448 23.236706 
L 130.568155 24.109823 
L 130.617997 24.303447 
L 131.038891 24.511685 
L 131.373944 25.049639 
L 130.662302 25.773015 
L 131.002893 25.942902 
L 131.229954 25.922808 
L 131.692382 25.765709 
L 132.218499 25.72004 
L 133.032594 25.490787 
L 133.049209 25.663412 
L 133.644551 26.677259 
L 134.04883 28.103093 
L 134.358961 28.335105 
L 134.483568 28.187129 
L 134.599867 27.848247 
L 134.87954 27.502974 
L 135.607795 27.224384 
L 136.089607 27.479226 
L 136.959084 28.703223 
L 137.463048 29.050335 
L 137.964243 29.253123 
L 138.357445 29.587453 
L 138.537433 30.331028 
L 138.470976 33.173944 
L 138.218994 34.590925 
L 137.709492 35.623321 
L 136.792942 36.335967 
L 136.815094 36.718792 
L 137.25537 37.864551 
L 137.213835 38.199879 
L 136.864936 39.466301 
L 136.934162 39.889365 
L 137.593192 41.009642 
L 137.939321 42.420546 
L 138.205149 46.763259 
L 138.495897 47.573005 
L 139.055242 48.042775 
L 140.317921 48.519862 
L 140.880035 49.01158 
L 141.195704 49.757393 
L 141.973803 55.108294 
L 142.242399 55.724415 
L 143.092492 56.973142 
L 143.737677 58.150599 
L 144.103189 58.278586 
L 144.269331 58.203622 
L 145.033585 57.477762 
L 145.238493 57.881829 
L 146.138429 58.408401 
L 146.429177 59.020915 
L 146.974677 61.251639 
L 147.381725 64.325473 
L 148.51149 67.426951 
L 148.763472 67.752472 
L 149.131754 67.789048 
L 149.768631 67.183726 
L 150.037228 67.666519 
L 150.34459 70.10251 
L 151.075615 71.093767 
L 151.322059 71.697311 
L 151.250064 72.500218 
L 150.854092 73.127555 
L 149.82955 74.027424 
L 149.594182 74.901702 
L 149.768631 76.291799 
L 152.498898 84.985315 
L 152.501667 85.670428 
L 152.20815 87.938037 
L 152.352139 89.378777 
L 152.543203 89.998993 
L 152.77857 90.366734 
L 153.407141 91.142474 
L 153.542824 91.536751 
L 153.443138 91.916394 
L 152.941943 92.75436 
L 152.825644 93.185241 
L 152.797954 100.066898 
L 152.63735 100.835432 
L 151.593424 103.616861 
L 151.053463 104.117347 
L 150.222753 104.44765 
L 149.605258 105.662741 
L 149.040376 108.522121 
L 147.448182 110.244201 
L 147.547867 111.5033 
L 148.013064 112.943599 
L 148.292737 114.352809 
L 147.954915 115.791322 
L 147.102052 116.301945 
L 144.897902 116.600267 
L 144.341326 117.050497 
L 143.427545 118.210855 
L 142.128869 118.602524 
L 141.946112 119.250429 
L 141.901808 120.04842 
L 141.582655 120.706018 
L 141.054484 120.839095 
L 140.616977 120.511476 
L 140.173931 120.374206 
L 139.625663 121.084352 
L 139.138313 122.438765 
L 138.999861 123.192851 
L 138.983247 124.781572 
L 138.825412 125.506387 
L 138.130385 127.776037 
L 137.357824 129.103068 
L 136.972929 130.528954 
L 136.513269 131.081741 
L 134.7937 132.220267 
L 134.572177 132.531441 
L 134.408804 133.790788 
L 133.976835 135.310071 
L 133.33165 136.225308 
L 132.464943 136.807402 
L 131.376713 137.32726 
L 130.584769 138.044813 
L 130.10288 139.256278 
L 129.374702 143.05311 
L 128.60491 144.46995 
L 128.632601 145.121625 
L 128.934425 146.413997 
L 128.859661 147.135238 
L 128.629832 147.603863 
L 127.666208 148.592369 
L 123.725874 155.5376 
L 123.642803 156.236887 
L 125.304223 163.526313 
L 125.331913 164.895595 
L 123.759102 182.904489 
L 124.011084 194.94123 
L 41.603271 194.94123 
L 41.17684 194.663021 
L 40.22983 194.348204 
L 39.221902 195.043728 
L 37.818002 195.735587 
L 36.519326 197.448745 
L 35.874141 197.181523 
L 35.289875 197.09733 
L 32.966656 197.357231 
L 32.628834 196.983852 
L 32.29655 196.943586 
L 32.049351 197.217342 
L 32.049351 197.217342 
" clip-path="url(#paf1df460e1)" style="fill: none; stroke: #000000; stroke-width: 0.5; stroke-linecap: square"/>
   </g>
  </g>
 </g>
 <defs>
  <clipPath id="paf1df460e1">
   <rect x="0" y="-0" width="160.854387" height="221.76"/>
  </clipPath>
 </defs>
</svg>
