<?xml version="1.0" encoding="utf-8" standalone="no"?>
<!DOCTYPE svg PUBLIC "-//W3C//DTD SVG 1.1//EN"
  "http://www.w3.org/Graphics/SVG/1.1/DTD/svg11.dtd">
<svg xmlns:xlink="http://www.w3.org/1999/xlink" width="223.2pt" height="77.708167pt" viewBox="0 0 223.2 77.708167" xmlns="http://www.w3.org/2000/svg" version="1.1">
 <metadata>
  <rdf:RDF xmlns:dc="http://purl.org/dc/elements/1.1/" xmlns:cc="http://creativecommons.org/ns#" xmlns:rdf="http://www.w3.org/1999/02/22-rdf-syntax-ns#">
   <cc:Work>
    <dc:type rdf:resource="http://purl.org/dc/dcmitype/StillImage"/>
    <dc:date>2026-04-26T19:21:52.143637</dc:date>
    <dc:format>image/svg+xml</dc:format>
    <dc:creator>
     <cc:Agent>
      <dc:title>Matplotlib v3.10.9, https://matplotlib.org/</dc:title>
     </cc:Agent>
    </dc:creator>
   </cc:Work>
  </rdf:RDF>
 </metadata>
 <defs>
  <style type="text/css">*{stroke-linejoin: round; stroke-linecap: butt}</style>
 </defs>
 <g id="figure_1">
  <g id="patch_1">
   <path d="M 0 77.708167 
L 223.2 77.708167 
L 223.2 0 
L 0 0 
z
" style="fill: #ffffff"/>
  </g>
  <g id="axes_1">
   <g id="patch_2">
    <path d="M 118.557953 5.998954 
L 119.250142 5.966799 
L 119.620085 6.005386 
L 119.883001 6.129506 
L 119.944076 6.280598 
L 119.946985 6.451058 
L 119.995263 6.592963 
L 120.201757 6.658566 
L 120.391382 6.639957 
L 120.991667 6.487305 
L 121.401163 6.467273 
L 122.07881 6.558138 
L 122.286467 6.550983 
L 123.836621 6.180738 
L 124.336277 5.979661 
L 124.663176 5.624679 
L 124.799288 5.070316 
L 124.905152 4.907074 
L 125.013343 4.849111 
L 125.15178 4.808495 
L 125.277422 4.753158 
L 125.341405 4.649393 
L 125.299525 4.571051 
L 125.087797 4.380009 
L 125.031956 4.281556 
L 125.190171 3.966428 
L 125.648528 3.918551 
L 126.619919 4.098946 
L 127.158547 4.015732 
L 129.375878 4.604523 
L 129.715574 4.601674 
L 130.38217 4.513373 
L 130.712559 4.510288 
L 130.902184 4.557521 
L 131.237227 4.694268 
L 131.441975 4.705428 
L 131.643233 4.652004 
L 132.805413 4.131431 
L 133.00958 4.081164 
L 133.111372 4.085195 
L 133.259117 4.126214 
L 133.362654 4.113173 
L 133.449905 4.065753 
L 133.581363 3.937274 
L 133.69188 3.904568 
L 133.907099 3.864282 
L 134.051935 3.794146 
L 134.342189 3.613648 
L 134.524834 3.547343 
L 134.678395 3.532189 
L 135.779499 3.638989 
L 136.50717 3.63662 
L 136.700866 3.657699 
L 136.975418 3.757737 
L 137.010315 3.770454 
L 137.186562 3.812864 
L 137.388984 3.805282 
L 137.551852 3.749369 
L 137.704249 3.680674 
L 137.875261 3.634726 
L 138.088153 3.78846 
L 138.016025 4.135699 
L 138.207977 4.278947 
L 138.451116 4.267087 
L 139.222412 3.882055 
L 140.21009 3.652489 
L 140.723706 3.605122 
L 141.234413 3.613648 
L 141.517106 3.66362 
L 141.642747 3.751028 
L 141.734651 3.875894 
L 141.911479 4.03683 
L 142.132514 4.14471 
L 142.604831 4.294365 
L 142.816559 4.442177 
L 143.096925 4.754346 
L 143.246996 4.856238 
L 143.969432 5.102639 
L 144.16022 5.207708 
L 144.349845 5.356323 
L 144.458036 5.464073 
L 144.52202 5.553053 
L 144.551104 5.639672 
L 144.554594 5.743211 
L 144.360315 5.950603 
L 144.360315 6.000622 
L 144.398706 6.159291 
L 144.426626 6.463458 
L 144.49061 6.640673 
L 144.626721 6.801257 
L 144.860553 6.996284 
L 144.89778 7.155333 
L 144.810529 7.291504 
L 144.805876 7.372511 
L 145.36777 7.374423 
L 145.595785 7.460943 
L 146.012262 7.738073 
L 146.079736 7.770604 
L 146.228644 7.822755 
L 146.293791 7.858881 
L 146.322875 7.902668 
L 146.363592 8.030465 
L 146.358938 8.053204 
L 146.491559 8.079296 
L 146.704451 8.026156 
L 146.837072 8.025917 
L 147.038331 8.093899 
L 147.411764 8.310605 
L 147.631635 8.392288 
L 147.899679 8.530303 
L 148.064399 8.615139 
L 148.368031 8.9861 
L 148.384318 9.369152 
L 147.958535 9.628076 
L 147.739826 9.656427 
L 147.079048 9.650901 
L 145.163022 9.887157 
L 144.725605 10.018681 
L 144.617414 10.237577 
L 144.743055 10.329739 
L 145.140918 10.387501 
L 145.299133 10.44166 
L 145.349157 10.510752 
L 145.398017 10.702441 
L 145.444551 10.788439 
L 145.527148 10.861684 
L 146.000629 11.141287 
L 146.14721 11.273438 
L 146.240277 11.434341 
L 146.265871 11.638754 
L 146.241441 11.737013 
L 146.142557 11.902437 
L 146.109983 11.992542 
L 146.12278 12.087982 
L 146.165823 12.169908 
L 146.194907 12.252091 
L 146.165823 12.347588 
L 146.072756 12.40006 
L 145.827291 12.429563 
L 145.770287 12.485431 
L 145.814494 12.56211 
L 145.928502 12.641948 
L 146.1507 12.75302 
L 146.317058 12.81014 
L 146.506683 12.849838 
L 146.698634 12.870657 
L 146.877789 12.870173 
L 147.101151 12.803363 
L 147.197709 13.119833 
L 146.915016 13.432897 
L 146.468293 13.687731 
L 145.815657 13.924028 
L 146.625344 14.105827 
L 146.894076 14.135203 
L 147.094171 14.086405 
L 147.515301 13.903159 
L 147.907348 13.849535 
L 148.326151 13.884475 
L 149.130021 14.036157 
L 149.502291 14.105827 
L 150.230543 14.038827 
L 150.570239 14.064072 
L 150.728454 14.150984 
L 150.797091 14.279686 
L 150.849442 14.424945 
L 150.957633 14.565878 
L 151.122827 14.650216 
L 151.319432 14.687651 
L 152.143079 14.715365 
L 152.924845 14.621291 
L 153.848539 14.416928 
L 154.372044 14.249328 
L 154.548872 14.239614 
L 154.75711 14.294015 
L 154.972329 14.363969 
L 155.189874 14.340893 
L 155.414399 14.288186 
L 155.647067 14.267785 
L 155.864613 14.311988 
L 156.00654 14.405509 
L 156.094954 14.541819 
L 156.37183 15.406584 
L 156.595192 15.716171 
L 156.920928 15.884575 
L 157.302504 15.900663 
L 158.065657 15.807554 
L 158.45305 15.821446 
L 158.675249 15.860687 
L 158.87767 15.922602 
L 158.975391 16.026464 
L 158.88116 16.190107 
L 158.721783 16.268658 
L 158.108701 16.337462 
L 158.155235 16.442397 
L 158.155235 16.635446 
L 158.155235 16.700204 
L 158.184318 16.793989 
L 158.283202 16.8575 
L 158.548444 16.889748 
L 158.683392 16.938124 
L 158.82532 17.063242 
L 158.83928 17.174216 
L 158.810197 17.290597 
L 158.82183 17.435871 
L 158.902101 17.556236 
L 159.132443 17.724115 
L 159.230163 17.840639 
L 159.252267 17.974827 
L 159.226673 18.088968 
L 159.245287 18.186966 
L 159.403501 18.270771 
L 159.686194 18.360474 
L 159.811835 18.424699 
L 159.914209 18.517376 
L 160.010766 18.783744 
L 159.973539 19.01983 
L 159.992153 19.228533 
L 160.256232 19.408832 
L 159.386051 19.619682 
L 159.212713 19.731781 
L 159.230163 19.853254 
L 159.765301 21.009613 
L 160.003786 21.242916 
L 160.383036 21.33025 
L 160.628501 21.354924 
L 160.862333 21.40082 
L 161.065918 21.491146 
L 161.221806 21.651606 
L 161.307894 21.877331 
L 161.325344 22.047811 
L 161.396308 22.194622 
L 161.6441 22.347415 
L 161.860481 22.431498 
L 162.087333 22.495806 
L 162.318838 22.532912 
L 162.55616 22.541817 
L 162.770117 22.503672 
L 162.822566 22.494322 
L 162.9738 22.393906 
L 163.097115 22.268787 
L 163.282086 22.14568 
L 163.37748 22.122941 
L 163.593862 22.117503 
L 163.695073 22.094765 
L 163.820714 22.022111 
L 164.044076 21.853124 
L 164.201127 21.787423 
L 164.404712 21.747414 
L 165.468007 21.681235 
L 167.425913 21.767665 
L 167.734199 21.858558 
L 167.819123 22.036938 
L 168.140206 22.125412 
L 169.262832 23.105207 
L 169.521094 23.175555 
L 169.789826 23.167628 
L 170.056232 23.104216 
L 170.30286 23.006638 
L 170.522732 22.88779 
L 170.601839 22.865014 
L 170.739114 22.863033 
L 170.849631 22.882838 
L 171.081137 22.956619 
L 171.330092 22.988314 
L 171.639541 23.110161 
L 171.999014 23.152765 
L 172.100225 23.17506 
L 172.2724 23.237986 
L 172.30032 23.261771 
L 172.26891 23.301416 
L 172.244479 23.514566 
L 172.218886 23.609276 
L 172.252623 23.694581 
L 172.420144 23.768988 
L 172.662119 23.819591 
L 172.925035 23.843406 
L 173.178644 23.824552 
L 173.391535 23.751129 
L 173.488093 23.672261 
L 173.668411 23.464988 
L 173.774275 23.377247 
L 173.91853 23.303894 
L 175.786858 22.699675 
L 176.523254 22.552208 
L 177.26663 22.523017 
L 178.072827 22.588328 
L 179.708487 22.329117 
L 180.042366 22.188689 
L 180.700818 21.823483 
L 181.033534 21.749884 
L 182.164304 21.664939 
L 182.389992 21.731116 
L 182.558677 21.979117 
L 182.711075 22.289555 
L 182.89372 22.543302 
L 183.886051 22.806594 
L 184.235054 23.014067 
L 184.261811 23.415414 
L 184.148966 23.642999 
L 184.116393 23.745672 
L 184.135006 23.84936 
L 184.211787 23.915356 
L 184.60267 24.134746 
L 185.681089 25.052145 
L 186.083606 25.207377 
L 186.977053 25.433352 
L 187.415633 25.588212 
L 187.799536 25.778497 
L 188.145049 26.020699 
L 188.510339 26.375256 
L 188.521972 26.393215 
L 188.694147 26.569353 
L 188.699964 26.718599 
L 188.751151 26.777511 
L 189.004697 26.687234 
L 189.49569 26.512463 
L 189.637618 26.486515 
L 189.763259 26.500986 
L 189.966844 26.575841 
L 190.086668 26.590315 
L 190.617153 26.383737 
L 190.67532 25.963875 
L 190.593886 25.517498 
L 190.704403 25.230766 
L 190.883558 25.205387 
L 191.603667 25.241216 
L 191.911953 25.20887 
L 192.122518 25.227282 
L 192.281896 25.333292 
L 192.620429 25.886625 
L 192.754213 25.997769 
L 192.982228 26.052104 
L 193.475486 26.082515 
L 193.674417 26.125891 
L 193.937333 26.22612 
L 194.34683 26.310408 
L 195.16466 26.228613 
L 195.719574 26.285469 
L 195.825438 26.260532 
L 195.925486 26.223128 
L 196.200035 26.171266 
L 196.227955 26.146334 
L 196.224465 26.170268 
L 196.319859 26.36029 
L 196.351269 26.514459 
L 196.411763 26.598799 
L 196.482727 26.642223 
L 197.164446 26.916334 
L 198.339422 27.106157 
L 198.723325 27.305554 
L 198.995547 27.543542 
L 199.298017 27.709103 
L 200.365965 27.671584 
L 200.55559 27.640571 
L 200.771972 27.538541 
L 201.126792 27.243078 
L 201.32107 27.119648 
L 201.75616 27.030718 
L 202.040098 27.167147 
L 202.059792 27.176611 
L 202.682181 28.080452 
L 202.93928 28.280259 
L 203.266179 28.400986 
L 203.690799 28.4566 
L 204.136359 28.40299 
L 204.572613 28.282764 
L 204.99607 28.231677 
L 205.404403 28.385956 
L 205.620785 28.439064 
L 206.278074 28.479149 
L 206.423491 28.582885 
L 206.549132 28.801957 
L 206.727124 29.216816 
L 207.01447 29.552176 
L 207.356492 29.684778 
L 207.754356 29.746572 
L 208.210386 29.869679 
L 208.794384 30.184878 
L 209.024726 30.245227 
L 209.330685 30.252268 
L 209.676198 30.212537 
L 210.013567 30.137611 
L 210.298586 30.043089 
L 210.966345 29.658154 
L 211.237404 29.602902 
L 211.458439 29.606418 
L 212.558961 29.774708 
L 212.592609 29.795271 
L 212.729973 29.879228 
L 212.677622 30.080795 
L 212.504284 30.214549 
L 212.069194 30.357396 
L 211.870262 30.463552 
L 211.651554 30.782161 
L 211.719028 31.089897 
L 211.95635 31.379176 
L 212.399583 31.773055 
L 212.925414 32.123326 
L 213.054545 32.279869 
L 213.027789 32.453134 
L 212.864921 32.785188 
L 212.853287 33.138718 
L 212.7672 33.231821 
L 212.499631 33.316337 
L 212.282086 33.41808 
L 211.908653 33.755856 
L 211.691108 33.895694 
L 211.029166 34.157236 
L 210.719716 34.32711 
L 210.481231 34.562495 
L 210.426554 34.700532 
L 210.396307 34.980784 
L 210.343957 35.08084 
L 210.214826 35.132145 
L 210.035671 35.140273 
L 209.705281 35.107254 
L 209.362095 35.10573 
L 208.432584 35.293208 
L 207.862546 35.271866 
L 207.669432 35.351143 
L 207.589161 35.844877 
L 207.741559 35.968515 
L 207.969574 36.055029 
L 208.174322 36.171082 
L 208.325557 36.348779 
L 208.415134 36.483239 
L 208.543102 36.58105 
L 208.808344 36.649836 
L 209.704118 36.768067 
L 210.093838 36.73392 
L 210.225296 36.7487 
L 210.342793 36.807314 
L 210.556848 36.967391 
L 210.69994 37.001554 
L 210.946568 36.927112 
L 211.1455 36.775712 
L 211.358392 36.655951 
L 211.644574 36.677862 
L 211.864446 36.839427 
L 211.852812 37.03164 
L 211.694598 37.226478 
L 211.479379 37.392813 
L 210.980305 37.624549 
L 210.526602 37.654162 
L 209.279498 37.368318 
L 209.021236 37.375462 
L 208.775771 37.446399 
L 208.550082 37.593407 
L 208.458178 37.701648 
L 208.382561 37.813999 
L 208.290657 37.902877 
L 208.010291 37.969289 
L 207.914897 38.050529 
L 207.227361 39.385965 
L 207.113354 39.631947 
L 207.547281 39.617082 
L 207.770642 39.564803 
L 209.110813 39.663216 
L 209.405139 39.765237 
L 209.627338 39.937541 
L 209.713425 40.196106 
L 209.726222 40.268723 
L 209.751815 40.325438 
L 209.778572 40.366502 
L 209.790206 40.396276 
L 209.743672 40.47996 
L 209.637808 40.501012 
L 209.533107 40.496391 
L 209.48192 40.504093 
L 209.511003 40.65867 
L 209.619194 40.738801 
L 209.736692 40.794541 
L 210.090348 41.25122 
L 210.210172 41.505821 
L 210.29626 41.64166 
L 210.404451 41.727093 
L 210.149678 41.875861 
L 209.954237 42.023643 
L 209.186431 42.404364 
L 209.96238 42.695375 
L 210.191559 42.678874 
L 210.779047 42.551782 
L 211.021022 42.584777 
L 211.182727 42.752875 
L 211.153643 42.947339 
L 211.007062 43.130006 
L 210.813947 43.263693 
L 210.275319 43.507412 
L 210.062428 43.654371 
L 209.49239 44.286843 
L 209.358605 44.48473 
L 209.334175 44.717116 
L 209.50635 45.028851 
L 209.491226 45.121839 
L 209.460979 45.135827 
L 209.385362 45.123911 
L 208.768791 45.193857 
L 208.648966 45.242824 
L 208.555899 45.336886 
L 208.579166 45.388718 
L 208.67107 45.445739 
L 208.785077 45.555652 
L 208.944455 45.774768 
L 208.964232 45.874632 
L 208.939802 46.03186 
L 208.900248 46.111789 
L 208.780424 46.265193 
L 208.749014 46.352947 
L 208.75483 46.424875 
L 208.806017 46.562525 
L 208.815324 46.626169 
L 208.732727 46.913307 
L 208.546592 47.165495 
L 208.262736 47.336115 
L 207.890467 47.381119 
L 206.763187 47.200343 
L 206.418838 47.185779 
L 205.735956 47.267964 
L 205.404403 47.234152 
L 205.147304 47.182138 
L 204.66219 47.263803 
L 204.410908 47.269525 
L 204.207323 47.212306 
L 203.8304 47.058625 
L 203.601222 47.033926 
L 201.956255 47.124149 
L 201.502551 47.199822 
L 201.280353 47.209705 
L 201.048848 47.174077 
L 200.442746 46.924224 
L 200.409941 46.923443 
L 198.620951 46.880818 
L 198.099774 47.011568 
L 197.70889 47.296576 
L 197.425035 47.690274 
L 197.226103 48.150696 
L 197.134199 48.574752 
L 197.014375 48.735914 
L 196.772399 48.750259 
L 196.376863 48.654805 
L 196.200035 48.673843 
L 195.988306 48.77243 
L 195.57183 49.05995 
L 195.361265 49.168528 
L 195.075082 49.24606 
L 192.719313 49.443464 
L 192.337737 49.60306 
L 192.049228 49.891549 
L 191.835172 50.245056 
L 191.676958 50.598534 
L 191.714185 51.3206 
L 191.650201 51.609487 
L 191.373325 51.922404 
L 191.035956 52.204524 
L 190.891701 52.384633 
L 190.870761 52.546414 
L 191.009199 52.651755 
L 191.226744 52.670409 
L 191.646711 52.630213 
L 191.850296 52.63967 
L 192.031777 52.688275 
L 192.134152 52.800213 
L 192.102741 53.003653 
L 191.951507 53.1551 
L 191.717675 53.252931 
L 191.462903 53.330262 
L 191.251174 53.418917 
L 191.037119 53.652329 
L 190.963829 53.957204 
L 191.013852 54.279902 
L 191.185226 54.560267 
L 191.183394 54.561927 
L 190.956221 54.700616 
L 190.347985 55.229945 
L 189.963258 55.345517 
L 190.214247 55.017986 
L 190.210582 54.852216 
L 189.921121 54.781187 
L 189.551966 54.595558 
L 189.496088 54.612997 
L 189.433799 54.64497 
L 189.142506 54.753775 
L 189.041744 54.781187 
L 188.607551 54.675699 
L 188.319921 54.635004 
L 188.188931 54.682758 
L 187.183143 54.57812 
L 185.969419 54.845985 
L 185.485762 54.857201 
L 184.027461 54.691479 
L 183.640902 54.781187 
L 182.926408 55.247404 
L 181.744744 56.290959 
L 181.449787 56.650917 
L 181.263835 56.817643 
L 181.013762 56.888517 
L 181.063227 56.629663 
L 180.815902 56.430915 
L 180.425679 56.303454 
L 180.046447 56.259307 
L 179.833931 56.294291 
L 179.317297 56.545072 
L 178.014719 56.866003 
L 177.815027 56.888517 
L 177.690449 56.932296 
L 177.320378 57.124967 
L 177.195799 57.167931 
L 176.801911 57.25804 
L 176.210164 57.621963 
L 175.843757 57.658285 
L 175.942687 57.900074 
L 175.79246 58.130684 
L 175.572615 58.362644 
L 175.459945 58.611428 
L 175.377504 58.890029 
L 175.168651 59.167094 
L 174.893846 59.334152 
L 174.607132 59.28516 
L 174.607132 59.20854 
L 174.69049 59.20854 
L 174.920411 59.271762 
L 175.130179 58.985438 
L 175.264833 58.618119 
L 175.267581 58.435804 
L 175.175064 58.390235 
L 174.767436 58.085557 
L 174.59614 58.025394 
L 174.227901 57.942679 
L 174.06943 57.868748 
L 173.879814 57.940173 
L 173.681954 57.932654 
L 173.370508 57.868748 
L 173.179976 57.90258 
L 173.055398 57.976933 
L 172.963796 58.051714 
L 172.875858 58.085557 
L 172.133884 58.085557 
L 171.667631 58.261907 
L 171.102448 58.332128 
L 170.738789 58.444166 
L 170.41177 58.603482 
L 169.650559 59.109326 
L 169.435295 59.344203 
L 169.36751 59.642859 
L 169.283236 59.642859 
L 169.2869 59.490369 
L 169.246595 59.456023 
L 169.136673 59.495396 
L 169.024919 59.523042 
L 169.012095 59.587975 
L 169.001102 59.607665 
L 168.944309 59.513827 
L 168.973622 59.471102 
L 168.986446 59.404926 
L 168.984614 59.355509 
L 168.856372 59.300234 
L 168.830723 59.28516 
L 168.731793 59.162908 
L 168.673168 59.115187 
L 168.598055 59.074166 
L 168.367218 59.008874 
L 168.167526 59.013059 
L 167.74799 59.074166 
L 166.932734 58.997575 
L 165.396572 59.180909 
L 165.127262 59.176304 
L 164.289106 59.478641 
L 163.658886 59.706129 
L 163.330035 59.879634 
L 162.422261 60.551105 
L 162.054938 60.76559 
L 160.72488 61.191441 
L 160.510532 61.286818 
L 160.33374 61.413732 
L 159.992982 61.720628 
L 159.818938 61.828291 
L 159.425051 62.003708 
L 159.257419 62.108478 
L 158.181098 63.239452 
L 158.125221 63.281617 
L 157.944766 63.415301 
L 157.33653 64.166106 
L 157.05806 64.419126 
L 156.799743 64.598292 
L 156.341734 64.699732 
L 156.065097 64.848119 
L 155.679453 64.906047 
L 155.412892 65.036299 
L 154.978699 65.165736 
L 154.777175 65.122164 
L 154.813816 65.021919 
L 155.171063 64.758913 
L 155.563119 64.598292 
L 155.531058 64.558567 
L 155.478845 64.456307 
L 156.655012 64.225655 
L 157.234852 64.029715 
L 157.54355 63.627908 
L 157.812859 63.436389 
L 157.930109 63.259269 
L 158.258044 62.88581 
L 158.66842 62.617878 
L 158.829639 62.446905 
L 158.873608 62.185491 
L 158.680328 62.319761 
L 158.485216 62.427537 
L 158.262624 62.440168 
L 157.990566 62.288611 
L 157.888889 62.057984 
L 157.955758 61.784551 
L 158.181098 61.39608 
L 158.097741 61.361618 
L 157.915453 61.352793 
L 157.798203 61.332622 
L 157.715761 61.297323 
L 157.57103 61.209086 
L 157.394239 61.135566 
L 157.248592 60.994434 
L 157.133174 60.808832 
L 157.098365 60.621612 
L 156.854704 60.820588 
L 156.937146 61.025094 
L 157.140502 61.213708 
L 157.252256 61.36414 
L 157.287065 61.497797 
L 157.35027 61.574307 
L 157.384163 61.660497 
L 157.33653 61.819459 
L 157.24676 61.934292 
L 156.867528 62.185491 
L 156.198835 62.840303 
L 156.161279 62.868112 
L 155.823268 63.11677 
L 155.324954 63.316617 
L 154.258709 63.486161 
L 154.151535 63.489958 
L 154.011384 63.458322 
L 153.943599 63.394213 
L 153.934439 63.317882 
L 153.906958 63.276136 
L 153.780548 63.316617 
L 153.70177 63.410239 
L 153.688946 63.527922 
L 153.652305 63.627908 
L 153.164984 63.773911 
L 153.122847 63.820335 
L 152.925903 63.996361 
L 152.865446 64.095584 
L 152.854454 64.203693 
L 152.876438 64.286477 
L 152.942391 64.456307 
L 153.000101 65.120895 
L 153.05323 65.271928 
L 153.16132 65.436968 
L 153.564368 66.701704 
L 153.666962 66.839995 
L 153.798868 66.963042 
L 153.909706 67.092481 
L 154.507866 68.126898 
L 154.999868 68.759781 
L 154.704688 68.881979 
L 154.44202 68.83315 
L 154.048018 68.564662 
L 153.522682 68.296296 
L 152.839745 68.174352 
L 152.603344 67.979294 
L 152.55081 67.711194 
L 152.55081 67.297098 
L 152.55081 66.980633 
L 152.314409 66.640016 
L 151.999207 66.421152 
L 151.473871 66.20237 
L 150.948535 66.129461 
L 150.475733 66.153763 
L 150.134264 66.178066 
L 149.687729 66.129461 
L 149.582662 66.250981 
L 149.398794 66.445466 
L 148.952258 66.396839 
L 148.61079 66.226675 
L 148.348122 66.056561 
L 148.137987 65.837915 
L 147.980387 65.619351 
L 147.796519 65.352329 
L 147.481317 65.206733 
L 147.113582 65.206733 
L 146.79838 65.061172 
L 146.378112 64.915648 
L 145.98411 64.891398 
L 145.537574 64.988406 
L 144.907171 64.9399 
L 144.486902 64.8429 
L 144.014099 64.721673 
L 143.620097 64.576235 
L 143.094761 64.333918 
L 142.516892 64.091702 
L 141.991555 63.898003 
L 141.492486 63.825383 
L 140.96715 63.922212 
L 140.522758 63.89761 
L 140.011211 63.665669 
L 139.913773 63.74796 
L 140.024454 64.134105 
L 139.900556 64.391191 
L 139.541133 64.632631 
L 139.371585 64.422083 
L 139.181054 64.312666 
L 138.899836 64.37899 
L 138.655259 64.51335 
L 138.460147 64.66803 
L 138.446407 64.820214 
L 138.745945 64.946642 
L 138.745945 65.023611 
L 138.446407 65.037991 
L 138.157861 65.096784 
L 138.047023 65.22581 
L 138.27786 65.449665 
L 138.166106 65.444586 
L 137.931605 65.378564 
L 137.237263 65.377294 
L 137.141082 65.32736 
L 136.792079 65.020651 
L 136.493457 64.851924 
L 136.193003 64.813872 
L 135.964914 65.023611 
L 135.909037 64.971169 
L 135.859572 64.957637 
L 135.802779 64.958483 
L 135.734078 64.946642 
L 135.920946 64.827824 
L 136.042776 64.687051 
L 136.019876 64.569554 
L 135.769803 64.520956 
L 134.882181 64.598292 
L 134.963707 64.460532 
L 135.003096 64.329563 
L 135.113018 63.606391 
L 134.851953 63.78826 
L 134.661421 64.074471 
L 134.436997 64.339702 
L 134.078833 64.456307 
L 133.991812 64.468983 
L 133.849829 64.518844 
L 133.736243 64.520956 
L 133.629069 64.493067 
L 133.38724 64.37899 
L 132.730455 64.166106 
L 132.832133 64.465602 
L 132.67183 64.604209 
L 131.488335 64.733971 
L 131.332612 64.733549 
L 131.246506 64.718331 
L 131.145744 64.676906 
L 131.072463 64.669298 
L 130.814145 64.680288 
L 130.717048 64.669298 
L 130.100567 64.534901 
L 129.835838 64.520956 
L 129.667291 64.548424 
L 129.247755 64.683246 
L 127.831591 64.846005 
L 127.714341 64.875602 
L 127.598922 64.92719 
L 127.412971 65.054909 
L 127.330529 65.094669 
L 126.8771 65.139931 
L 124.615452 64.718331 
L 124.368127 64.605054 
L 124.224312 64.615197 
L 124.164771 64.598292 
L 124.142787 64.557721 
L 124.107062 64.424618 
L 124.087826 64.37899 
L 124.043857 64.300839 
L 123.995308 64.157237 
L 123.933935 64.095584 
L 124.147367 63.971452 
L 124.21332 63.907286 
L 124.241717 63.805986 
L 123.903706 63.902643 
L 123.609664 63.925438 
L 123.319286 63.887447 
L 122.815477 63.770535 
L 122.658838 63.75281 
L 122.509527 63.702593 
L 122.087242 63.340232 
L 121.77488 63.168622 
L 121.413969 63.257161 
L 120.855198 63.068716 
L 119.924524 62.609875 
L 119.905287 62.727395 
L 119.949256 62.86727 
L 119.971241 62.98442 
L 119.886051 63.03331 
L 119.175221 63.018137 
L 118.971865 62.971777 
L 118.80057 62.895923 
L 118.649427 62.789323 
L 118.591718 62.628829 
L 118.733701 62.48817 
L 118.957209 62.379961 
L 119.147741 62.320603 
L 119.380409 62.304186 
L 120.001469 62.391329 
L 120.853366 62.288611 
L 120.955044 62.244835 
L 121.544044 61.896432 
L 121.679614 61.877083 
L 121.831673 61.880027 
L 121.906787 61.846798 
L 121.813353 61.720628 
L 121.298551 61.276733 
L 121.117179 61.229254 
L 120.699475 61.255724 
L 120.204825 61.205305 
L 118.640267 60.792878 
L 118.380118 60.750476 
L 118.130961 60.740821 
L 117.954169 60.797077 
L 117.78837 60.913803 
L 117.724249 60.970916 
L 117.682112 61.050295 
L 117.665624 61.148589 
L 117.682112 61.473837 
L 117.423795 61.037694 
L 117.335857 60.973436 
L 117.174638 60.9348 
L 115.857404 60.087994 
L 115.676033 59.84694 
L 116.036028 60.027616 
L 116.332817 60.230579 
L 116.500449 60.283428 
L 118.468055 60.190316 
L 118.849119 60.262455 
L 119.498576 60.512498 
L 119.541628 60.523408 
L 119.655215 60.551105 
L 120.615201 60.551105 
L 121.587096 60.684991 
L 122.236553 60.617414 
L 122.46739 60.621612 
L 123.704014 60.797077 
L 124.318662 61.050295 
L 124.784915 61.117923 
L 125.274069 61.091879 
L 125.709177 60.973436 
L 126.016959 60.761811 
L 125.807191 60.571668 
L 126.114973 60.30482 
L 126.902749 59.882568 
L 127.117097 59.794132 
L 127.637395 59.755995 
L 127.833423 59.674702 
L 128.00655 59.557393 
L 128.182426 59.476966 
L 128.344561 59.378123 
L 128.476468 59.20854 
L 128.209906 59.288929 
L 127.90304 59.427542 
L 127.59709 59.528907 
L 127.330529 59.495396 
L 125.814519 60.039356 
L 124.990103 60.10896 
L 124.241717 59.84694 
L 124.066757 59.670512 
L 124.004468 59.642859 
L 123.876225 59.673445 
L 123.687526 59.814668 
L 123.584932 59.84694 
L 123.458521 59.858257 
L 123.238677 59.90688 
L 123.123259 59.917359 
L 122.857613 60.128669 
L 122.69731 60.025101 
L 122.537923 59.648306 
L 122.348307 59.565771 
L 121.655798 59.477385 
L 121.467098 59.419166 
L 121.311375 59.309446 
L 121.13092 59.128163 
L 120.983441 58.926015 
L 120.922983 58.751966 
L 120.880847 58.557899 
L 120.776421 58.406539 
L 120.65001 58.261071 
L 120.538256 58.085557 
L 120.492455 57.659538 
L 120.701307 57.340653 
L 121.004509 57.044471 
L 121.238094 56.684675 
L 121.294887 56.482158 
L 121.285727 56.325945 
L 121.164812 56.224742 
L 120.603293 56.160199 
L 120.488791 56.076928 
L 120.526348 55.942473 
L 120.860694 55.628315 
L 120.950464 55.519337 
L 120.883595 55.447807 
L 120.576729 55.421193 
L 120.086659 55.475669 
L 119.872311 55.461114 
L 119.693687 55.345517 
L 120.008798 54.915776 
L 120.049102 54.667809 
L 119.886051 54.403766 
L 119.726664 54.314535 
L 119.586513 54.291296 
L 119.472011 54.24648 
L 119.385905 54.091313 
L 119.350181 53.898038 
L 119.347433 53.788573 
L 119.303464 53.708976 
L 119.147741 53.603694 
L 118.482712 53.408934 
L 118.380118 53.284241 
L 118.433247 53.080071 
L 118.420422 53.005545 
L 118.303172 52.972426 
L 118.259203 53.010513 
L 118.101648 53.192293 
L 118.065007 53.249448 
L 118.135541 53.365019 
L 118.311416 53.480614 
L 118.528512 53.568881 
L 119.028658 53.648457 
L 119.142245 53.769088 
L 119.134916 54.362676 
L 119.184381 54.419123 
L 119.462851 54.461047 
L 119.539796 54.508372 
L 119.596589 54.556115 
L 119.655215 54.57812 
L 119.795365 54.656597 
L 119.707428 54.827708 
L 119.54804 54.996379 
L 119.462851 55.066189 
L 119.380409 55.528487 
L 119.735824 55.626651 
L 120.243298 55.58339 
L 120.615201 55.624155 
L 120.284519 55.85757 
L 120.133376 56.018646 
L 120.078415 56.189347 
L 120.171849 56.367181 
L 120.373373 56.403421 
L 120.620698 56.349686 
L 120.853366 56.259307 
L 120.904663 56.480908 
L 120.798405 56.784711 
L 120.592301 57.052812 
L 120.345892 57.167931 
L 120.069255 57.222996 
L 119.83109 57.373201 
L 119.688191 57.595663 
L 119.693687 57.868748 
L 120.116888 58.225964 
L 120.160857 58.297435 
L 120.078415 58.751966 
L 120.111392 58.926852 
L 120.169101 59.0072 
L 120.181009 59.073329 
L 120.078415 59.20854 
L 119.995973 59.270087 
L 119.748648 59.378123 
L 119.616742 59.419166 
L 119.12484 59.481992 
L 118.638435 59.435919 
L 117.541961 59.171281 
L 116.87052 59.20854 
L 116.676324 59.274274 
L 116.581058 59.414559 
L 116.47022 59.540636 
L 116.221979 59.565771 
L 116.128545 59.533096 
L 115.97099 59.43927 
L 115.868396 59.419166 
L 115.629316 59.430893 
L 115.503821 59.423354 
L 115.414051 59.386918 
L 115.368251 59.241197 
L 115.480005 59.066632 
L 116.101981 58.406539 
L 116.260452 58.185844 
L 116.255872 58.085557 
L 116.394191 58.0091 
L 116.912657 57.525117 
L 116.777086 57.392397 
L 116.683652 57.453327 
L 116.610371 57.601925 
L 116.527929 57.728431 
L 116.445488 57.772276 
L 116.228391 57.83116 
L 116.137706 57.868748 
L 116.071752 57.921376 
L 115.854656 58.134863 
L 115.840916 58.173307 
L 115.802443 58.202561 
L 115.676033 58.225964 
L 115.533134 58.169129 
L 115.375579 58.085557 
L 115.208863 57.831577 
L 115.087949 57.703795 
L 114.914822 57.658285 
L 115.041232 57.915111 
L 115.062301 57.980275 
L 115.085201 58.129431 
L 115.153902 58.190023 
L 115.252832 58.224292 
L 115.606415 58.405285 
L 115.648552 58.480541 
L 115.563362 58.611428 
L 115.353594 58.82183 
L 115.337106 58.856975 
L 115.162146 58.944846 
L 114.778335 59.33164 
L 114.6391 59.419166 
L 114.419256 59.450997 
L 113.91911 59.623167 
L 113.755143 59.706129 
L 113.600336 59.655847 
L 113.283394 59.627775 
L 113.139579 59.565771 
L 113.056221 59.642859 
L 112.843705 59.550271 
L 112.057762 59.419166 
L 111.74998 59.420841 
L 111.171972 59.536447 
L 110.568316 59.587975 
L 110.101147 59.684759 
L 109.857486 59.706129 
L 109.756724 59.745938 
L 109.495659 59.890113 
L 109.396729 59.882568 
L 109.269403 59.845683 
L 109.121924 59.880891 
L 108.456895 60.174379 
L 108.316744 60.199123 
L 107.844079 60.130766 
L 107.732325 60.128669 
L 107.598586 60.204156 
L 107.263324 60.49865 
L 107.195538 60.586357 
L 107.234011 60.72319 
L 107.424543 60.980155 
L 107.501488 61.191441 
L 107.544541 61.191021 
L 107.629731 61.241858 
L 107.68286 61.302786 
L 107.624235 61.332622 
L 107.594922 61.354054 
L 107.554617 61.405326 
L 107.517977 61.463749 
L 107.419047 61.77614 
L 107.393398 61.819459 
L 106.929893 62.210743 
L 106.741193 62.320603 
L 106.134789 62.290295 
L 106.035859 62.355965 
L 106.088072 62.413222 
L 106.345474 62.523963 
L 106.426083 62.609875 
L 106.428831 62.723603 
L 106.379366 62.821764 
L 106.05418 63.235658 
L 105.266404 63.953722 
L 105.022744 64.250997 
L 104.863356 64.395466 
L 104.686565 64.456307 
L 104.588551 64.540818 
L 104.365043 64.950025 
L 104.260617 65.094669 
L 102.87743 65.953124 
L 101.640805 67.020756 
L 101.005089 67.434254 
L 100.256702 67.81107 
L 100.285099 67.6734 
L 100.220977 67.086964 
L 100.13304 67.064045 
L 100.030446 67.135351 
L 99.943424 67.233836 
L 99.889379 67.354843 
L 99.84999 67.632615 
L 99.830754 67.701017 
L 99.788617 67.769851 
L 99.784037 67.825094 
L 99.762968 67.862492 
L 99.674115 67.876092 
L 99.64755 67.854417 
L 99.580681 67.814895 
L 99.513812 67.798322 
L 99.481751 67.842943 
L 99.387401 67.876942 
L 98.863439 67.603303 
L 98.59413 67.525993 
L 98.344057 67.610949 
L 98.253371 67.817445 
L 98.228638 68.073752 
L 98.168181 68.310607 
L 98.057343 68.189829 
L 97.937345 68.096711 
L 97.937345 68.018911 
L 98.013374 67.908394 
L 97.967573 67.848893 
L 97.868643 67.873542 
L 97.783454 68.018911 
L 97.772461 68.196207 
L 97.824674 68.336977 
L 97.912612 68.445022 
L 98.015206 68.524155 
L 97.937345 68.81014 
L 97.881468 68.71054 
L 97.794446 68.639043 
L 97.552617 68.524155 
L 97.525137 68.484162 
L 97.537045 68.436514 
L 97.529717 68.397803 
L 97.434451 68.382064 
L 97.366665 68.404184 
L 97.333689 68.453531 
L 97.311704 68.502456 
L 97.28056 68.524155 
L 97.019495 68.528409 
L 96.714461 68.565001 
L 96.474464 68.67096 
L 96.39935 68.881658 
L 96.483624 69.01961 
L 96.632019 69.087321 
L 96.931557 69.161002 
L 97.102852 69.273884 
L 97.178882 69.352701 
L 97.123921 69.388491 
L 96.926061 69.441329 
L 96.747437 69.54233 
L 96.555074 69.601575 
L 96.324237 69.531675 
L 96.29126 69.598166 
L 96.265612 69.622036 
L 96.271108 69.65358 
L 96.324237 69.739269 
L 96.15569 69.800665 
L 95.838747 69.873582 
L 95.701345 69.960582 
L 95.716001 69.685552 
L 95.591423 69.404257 
L 95.380738 69.184428 
L 95.126085 69.096264 
L 95.156314 69.018759 
L 95.087613 68.524155 
L 95.16181 68.354841 
L 95.234176 68.275306 
L 95.252496 68.212792 
L 95.162726 68.096711 
L 95.101353 68.03549 
L 95.069292 68.01551 
L 95.028988 68.001057 
L 94.796319 67.872692 
L 94.730366 67.823819 
L 94.678153 67.733308 
L 94.62594 67.742656 
L 94.573727 67.794497 
L 94.548994 67.876092 
L 94.585635 67.948347 
L 94.744106 68.084381 
L 94.779831 68.132426 
L 94.735862 68.214068 
L 94.528842 68.399079 
L 94.464721 68.524155 
L 94.451896 68.684153 
L 94.481209 68.767574 
L 94.541666 68.838236 
L 94.618612 68.959572 
L 94.232052 69.154187 
L 94.164267 69.562788 
L 94.188999 70.064231 
L 94.079993 70.540053 
L 94.364875 70.633982 
L 94.523346 70.66985 
L 94.741358 70.683514 
L 94.948378 70.654478 
L 95.109597 70.581466 
L 95.400891 70.390651 
L 95.259824 70.507182 
L 94.889753 70.888519 
L 94.741358 70.969686 
L 94.624108 71.014546 
L 94.552658 71.11325 
L 94.496781 71.21197 
L 94.430828 71.256849 
L 94.254036 71.296601 
L 94.260449 71.389366 
L 94.433576 71.639091 
L 94.529758 71.717793 
L 94.655252 71.771693 
L 94.779831 71.758859 
L 94.821968 71.666037 
L 94.801815 71.538162 
L 94.826548 71.431265 
L 95.010667 71.400482 
L 95.010667 71.645079 
L 95.043644 71.689562 
L 95.113261 71.683574 
L 95.170054 71.648073 
L 95.162726 71.609153 
L 95.257992 71.627543 
L 95.34593 71.615996 
L 95.419211 71.6562 
L 95.470508 71.830304 
L 95.54379 71.67117 
L 95.596919 71.494546 
L 95.684856 71.415018 
L 95.855236 71.544149 
L 95.936761 71.714371 
L 95.950502 71.918017 
L 95.859816 72.060952 
L 95.633559 72.0464 
L 95.792947 72.163681 
L 95.88638 72.360627 
L 95.928517 72.589336 
L 95.954166 73.040585 
L 95.939509 73.130618 
L 95.901037 73.220664 
L 95.804855 73.364766 
L 95.785618 73.451844 
L 95.65646 73.705858 
L 95.633559 73.815305 
L 95.644552 73.904165 
L 95.65646 73.920909 
L 95.637224 73.929924 
L 95.420127 74.072906 
L 95.236008 74.142477 
L 95.034484 74.175977 
L 94.86044 74.151497 
L 94.918827 74.074491 
L 94.944421 73.995962 
L 94.927552 73.919625 
L 94.862987 73.85311 
L 95.009568 73.549524 
L 94.951401 73.139352 
L 94.761776 72.778434 
L 94.512821 72.623899 
L 94.3802 72.576023 
L 93.85495 72.264377 
L 92.289673 71.891483 
L 91.424146 71.833342 
L 91.313628 71.810521 
L 91.190314 71.768142 
L 91.068163 71.750214 
L 90.963462 71.797481 
L 90.898315 71.852359 
L 90.811064 71.907242 
L 90.71218 71.952348 
L 90.614459 71.976804 
L 90.3783 71.979522 
L 90.195655 71.956696 
L 90.010684 71.961587 
L 89.768709 72.049092 
L 89.598861 72.146396 
L 89.503467 72.221966 
L 89.461586 72.297002 
L 89.404582 72.327454 
L 89.13236 72.338874 
L 89.039293 72.368241 
L 88.877588 72.479194 
L 88.683891 72.536854 
L 88.224953 72.623899 
L 87.646771 72.938997 
L 87.494373 72.989624 
L 87.244836 72.995612 
L 87.145952 73.014667 
L 87.0651 73.054955 
L 86.997044 73.145342 
L 86.962726 73.348489 
L 86.911539 73.421486 
L 86.653277 73.484684 
L 86.429915 73.397515 
L 86.244943 73.266241 
L 86.10127 73.199253 
L 85.845335 73.168757 
L 85.549264 73.029366 
L 85.374763 72.989624 
L 85.075784 73.038622 
L 85.062987 73.189451 
L 85.080437 73.347944 
L 84.758191 73.455808 
L 84.737251 73.536446 
L 84.769825 73.63181 
L 84.822757 73.709746 
L 84.901864 73.756077 
L 85.221202 73.85311 
L 85.094397 73.950159 
L 84.951306 73.991055 
L 84.598813 73.997598 
L 84.178846 74.03468 
L 82.681624 73.811678 
L 81.748623 73.486863 
L 80.746985 73.316351 
L 80.353775 73.167124 
L 80.162987 73.133362 
L 79.903562 73.022833 
L 79.684853 72.760476 
L 79.351555 72.192063 
L 79.410304 71.982783 
L 79.190432 71.785528 
L 78.861206 71.663839 
L 78.608069 71.681643 
L 78.583167 71.683394 
L 78.431933 71.561725 
L 78.4552 71.487324 
L 78.533144 71.355379 
L 78.630865 71.231605 
L 78.632028 71.229977 
L 79.230272 70.934652 
L 79.231149 70.934219 
L 80.035019 70.974911 
L 80.878443 71.120339 
L 81.599715 71.139335 
L 81.837037 71.068242 
L 81.887061 70.943985 
L 81.814934 70.587093 
L 81.791667 70.567573 
L 81.794575 70.543716 
L 81.856529 70.466255 
L 81.866121 70.454262 
L 81.93185 70.41469 
L 82.229666 70.322545 
L 82.074359 70.181645 
L 82.025499 70.036986 
L 82.004559 69.890738 
L 81.941738 69.743442 
L 81.797484 69.646529 
L 81.621819 69.578861 
L 81.521771 69.503624 
L 81.599715 69.382939 
L 81.861468 69.129203 
L 81.985945 69.042124 
L 82.180223 68.957762 
L 82.505959 68.889632 
L 82.57576 68.805832 
L 82.529437 68.69188 
L 82.496653 68.611246 
L 82.677553 68.415644 
L 83.430817 68.367564 
L 83.725143 68.254672 
L 83.764696 68.154761 
L 83.749573 68.046229 
L 83.721071 67.951752 
L 83.725143 67.891835 
L 83.810067 67.844337 
L 84.137548 67.796843 
L 84.353348 67.716975 
L 84.496439 67.625249 
L 84.572638 67.490383 
L 84.588343 67.280593 
L 84.541809 67.105915 
L 84.38534 66.744863 
L 84.394065 66.570883 
L 84.518543 66.41903 
L 84.713984 66.336119 
L 86.676543 66.002981 
L 86.956909 65.91744 
L 86.980176 65.713052 
L 86.780081 65.258816 
L 86.753324 65.003095 
L 86.839411 64.838762 
L 87.226805 64.558 
L 87.481577 64.27952 
L 87.615361 64.033882 
L 87.553122 63.80818 
L 87.263573 63.633364 
L 86.888272 63.406853 
L 86.886527 63.406317 
L 86.693994 63.241902 
L 86.687014 63.100553 
L 86.766121 62.951746 
L 86.832431 62.765524 
L 86.821961 62.602362 
L 86.624193 62.113153 
L 86.533452 61.734371 
L 86.603253 61.44391 
L 86.832431 61.216557 
L 87.671202 60.858099 
L 88.071784 60.762911 
L 88.286028 60.712007 
L 89.274288 60.357064 
L 89.502928 60.357568 
L 89.516263 60.357597 
L 89.696 60.502532 
L 89.769872 60.724002 
L 89.779179 61.597665 
L 89.757075 61.719417 
L 89.68553 61.818761 
L 89.584901 61.914916 
L 89.506957 62.014026 
L 89.510447 62.121972 
L 89.701235 62.225928 
L 89.951354 62.129186 
L 90.359687 61.840928 
L 90.496961 61.809146 
L 90.573742 61.825171 
L 90.630746 61.809146 
L 90.707526 61.676694 
L 90.714506 61.583516 
L 90.660993 61.37452 
L 90.697056 61.249106 
L 90.894825 61.0389 
L 91.053039 61.072506 
L 91.317118 61.429498 
L 91.518376 61.617955 
L 91.660304 61.615286 
L 92.150071 61.137058 
L 92.359473 60.990361 
L 92.583302 60.91123 
L 92.593305 60.907694 
L 92.855057 60.935159 
L 92.917878 60.998895 
L 92.937655 61.066105 
L 92.915551 61.137058 
L 92.855057 61.209087 
L 92.792237 61.291264 
L 92.770133 61.371318 
L 92.78991 61.449248 
L 92.855057 61.522651 
L 93.026069 61.567498 
L 93.379725 61.61048 
L 93.536776 61.647858 
L 93.696736 61.739178 
L 93.852042 61.965671 
L 94.00444 62.096319 
L 94.180105 62.164461 
L 94.372056 62.177288 
L 94.557028 62.133462 
L 94.708262 62.034865 
L 94.792023 61.866302 
L 94.736183 61.61315 
L 94.80831 61.548011 
L 95.127066 61.545608 
L 95.353918 61.489819 
L 95.477232 61.337694 
L 95.480722 61.047435 
L 95.624976 61.206152 
L 96.217118 61.564562 
L 96.45095 61.799532 
L 96.504464 61.886068 
L 96.523077 61.980097 
L 96.516679 62.179961 
L 96.539364 62.251052 
L 96.763889 62.409302 
L 96.984924 62.387914 
L 97.400238 62.152702 
L 97.601496 62.080554 
L 97.782977 62.054904 
L 99.117913 62.103801 
L 99.611752 62.049293 
L 99.904915 61.866302 
L 100.179464 61.546676 
L 100.029392 61.486082 
L 99.846748 61.464996 
L 99.676899 61.484213 
L 99.565219 61.546676 
L 99.373849 61.402275 
L 98.856743 61.141859 
L 98.94283 61.052769 
L 98.804392 60.87303 
L 98.73052 60.809575 
L 98.641524 60.765054 
L 98.577541 60.763455 
L 98.440266 60.82024 
L 98.366975 60.83517 
L 98.327422 60.813308 
L 98.271581 60.714406 
L 98.250641 60.688551 
L 97.753894 60.555826 
L 97.594516 60.431925 
L 97.559616 60.202046 
L 97.753894 60.189263 
L 98.001686 60.158638 
L 98.13198 59.936856 
L 98.106387 59.839172 
L 97.966204 59.628157 
L 97.924905 59.521748 
L 97.931885 59.38584 
L 97.971439 59.288251 
L 98.026116 59.196261 
L 98.07265 59.076112 
L 98.165135 58.436461 
L 98.148267 58.247202 
L 98.098243 58.168915 
L 97.974347 58.020865 
L 97.930722 57.946059 
L 97.915598 57.851637 
L 97.917925 57.631557 
L 97.890005 57.563165 
L 97.769017 57.51996 
L 97.659663 57.550971 
L 97.556126 57.594974 
L 97.456078 57.589672 
L 97.402564 57.533212 
L 97.312987 57.347438 
L 97.260055 57.276431 
L 96.93839 57.107957 
L 96.618471 57.082532 
L 96.286918 57.10266 
L 95.930936 57.068231 
L 95.725024 56.974222 
L 95.462108 56.705258 
L 95.2783 56.590141 
L 95.106126 56.550451 
L 94.737346 56.531401 
L 94.554701 56.490657 
L 94.458144 56.438012 
L 94.281315 56.310255 
L 94.178941 56.275875 
L 93.893922 56.2928 
L 93.829938 56.283279 
L 93.731054 56.169836 
L 93.743851 56.035797 
L 93.752827 56.011079 
L 93.802018 55.875627 
L 93.886361 55.494683 
L 94.009093 55.38193 
L 94.144623 55.286358 
L 94.230128 55.147254 
L 94.219658 54.991563 
L 94.138224 54.852798 
L 94.009093 54.744395 
L 93.860185 54.68084 
L 93.648457 54.693498 
L 93.517581 54.809012 
L 93.419278 54.940379 
L 93.297127 55.002645 
L 93.199407 54.940379 
L 92.855057 54.540044 
L 92.830627 54.507091 
L 92.82132 54.475722 
L 92.829464 54.444091 
L 92.855057 54.415097 
L 93.167996 54.395593 
L 93.412298 54.351844 
L 93.575166 54.230629 
L 93.640314 53.979852 
L 93.525143 53.446279 
L 93.56586 53.225316 
L 93.843899 53.134852 
L 93.97303 52.958701 
L 93.96256 52.72322 
L 93.859022 52.487579 
L 93.707206 52.312162 
L 93.519326 52.208724 
L 93.306434 52.16095 
L 93.082491 52.151763 
L 92.855057 52.167512 
L 92.739886 52.32529 
L 92.688699 52.48075 
L 92.610755 52.622594 
L 92.41415 52.738198 
L 92.232669 52.773409 
L 92.052351 52.762372 
L 91.882503 52.711922 
L 91.728941 52.627848 
L 91.61706 52.511403 
L 91.580033 52.472871 
L 91.545133 52.328441 
L 91.54048 52.181686 
L 91.482313 52.020801 
L 91.33515 51.88751 
L 91.16123 51.840288 
L 90.984402 51.817728 
L 90.828514 51.76212 
L 90.737192 51.653804 
L 90.686586 51.532925 
L 90.609806 51.424393 
L 90.264293 51.283386 
L 90.060708 51.070897 
L 89.900166 51.017461 
L 89.714613 51.068278 
L 89.608167 51.177524 
L 89.491833 51.23779 
L 89.287085 51.141369 
L 89.194017 51.033701 
L 89.018353 50.728105 
L 88.986608 50.689034 
L 88.91307 50.598534 
L 88.912488 50.597487 
L 88.911325 50.596964 
L 88.910162 50.595917 
L 88.764162 50.189609 
L 88.911325 49.923439 
L 89.200416 49.689277 
L 89.491833 49.381571 
L 89.608167 49.000711 
L 89.597697 48.643853 
L 89.659354 48.32867 
L 89.993816 48.069156 
L 90.128182 47.940488 
L 90.084556 47.831639 
L 89.940883 47.750929 
L 89.552327 47.666326 
L 89.444136 47.600736 
L 89.442973 47.490136 
L 89.544184 47.313744 
L 89.681458 47.200343 
L 89.889696 47.065385 
L 90.062453 46.922665 
L 90.099098 46.78544 
L 89.986254 46.736588 
L 89.54302 46.655525 
L 89.384806 46.581488 
L 89.295228 46.434743 
L 89.196344 46.090508 
L 89.10793 45.934819 
L 88.976472 45.806152 
L 88.838034 45.727825 
L 88.680983 45.691 
L 88.486123 45.685814 
L 88.129559 45.79033 
L 87.636301 46.178752 
L 87.226805 46.225994 
L 86.883618 46.141376 
L 86.722998 46.06742 
L 86.483429 45.957132 
L 86.120466 45.720045 
L 85.890034 45.481828 
L 85.817996 45.407379 
L 85.633025 45.303457 
L 85.557408 45.237901 
L 85.537631 45.177276 
L 85.501567 44.915165 
L 85.321249 44.655774 
L 85.294492 44.586936 
L 85.285185 44.518882 
L 85.257847 44.44644 
L 85.182811 44.366506 
L 84.867545 44.239775 
L 84.460375 44.197366 
L 83.678609 44.190902 
L 82.643234 43.934456 
L 82.282598 43.924635 
L 82.031897 43.992869 
L 81.826567 44.356159 
L 81.81203 44.395333 
L 81.748623 44.566234 
L 81.74397 44.736788 
L 81.70209 44.830241 
L 81.584592 44.835936 
L 81.357158 44.740412 
L 81.222792 44.657327 
L 80.902873 44.262016 
L 81.090171 44.137379 
L 81.104131 43.985631 
L 80.995941 43.850466 
L 80.819112 43.777083 
L 80.56085 43.79827 
L 80.413687 43.917657 
L 80.294445 44.069126 
L 80.121107 44.187023 
L 79.884948 44.214174 
L 79.759307 44.130657 
L 79.738367 43.991318 
L 79.812821 43.852016 
L 79.989649 43.729286 
L 80.151354 43.665478 
L 80.276413 43.574042 
L 80.351449 43.367983 
L 80.330508 43.178264 
L 80.213011 43.098525 
L 80.019896 43.083559 
L 79.501045 43.119684 
L 79.310257 43.193232 
L 79.132265 43.284859 
L 78.891453 43.367983 
L 78.628538 43.402837 
L 78.436586 43.36695 
L 78.317925 43.253885 
L 78.277208 43.060853 
L 78.195774 42.896266 
L 78.010803 42.913032 
L 77.6618 43.08872 
L 77.487299 43.117104 
L 77.236017 43.110137 
L 77.071985 43.035568 
L 77.29302 42.644327 
L 77.231363 42.465182 
L 77.046392 42.336854 
L 76.81605 42.271415 
L 76.222137 42.227678 
L 75.815575 42.19774 
L 75.358381 42.092657 
L 75.111753 41.86299 
L 75.023338 41.816143 
L 74.896117 41.703928 
L 74.665029 41.500162 
L 74.496344 41.393421 
L 73.769255 41.075644 
L 73.392332 40.972075 
L 71.988177 40.979271 
L 71.761325 40.914004 
L 71.738058 40.652506 
L 71.492593 40.633503 
L 71.200594 40.749589 
L 71.06681 40.769367 
L 70.601472 40.769367 
L 70.34321 40.977729 
L 69.660328 41.318587 
L 69.471867 41.374904 
L 69.318305 41.33993 
L 68.998386 41.162782 
L 68.782004 41.129879 
L 68.374834 41.253791 
L 67.766081 41.705261 
L 67.704749 41.750769 
L 67.277802 41.881525 
L 66.909022 41.869683 
L 65.704962 41.599978 
L 65.471131 41.512509 
L 65.351306 41.492445 
L 65.226829 41.518169 
L 65.216359 41.590202 
L 65.247769 41.674596 
L 65.243115 41.740475 
L 65.251259 41.780109 
L 65.288486 41.835448 
L 65.302446 41.885643 
L 65.241952 41.9101 
L 65.105841 41.893624 
L 64.982527 41.90006 
L 64.905746 41.872257 
L 64.824312 41.86402 
L 64.717284 41.930695 
L 64.291501 41.974721 
L 63.902944 41.835448 
L 63.534165 41.648607 
L 63.160732 41.551611 
L 63.038581 41.57528 
L 62.999027 41.637286 
L 62.967617 41.710623 
L 62.869896 41.770844 
L 62.792534 41.769299 
L 62.606981 41.725549 
L 62.544742 41.728637 
L 62.426081 41.826181 
L 62.433642 41.915506 
L 62.499953 42.035488 
L 62.559284 42.227106 
L 62.567427 42.415445 
L 62.518567 42.544565 
L 62.390599 42.613649 
L 62.167819 42.62396 
L 61.957835 42.567248 
L 61.819397 42.460027 
L 61.699573 42.337112 
L 61.547175 42.235349 
L 61.32614 42.184861 
L 61.260993 42.269354 
L 61.205734 42.397922 
L 60.834046 42.536832 
L 60.710732 42.656444 
L 60.637441 42.813218 
L 60.629298 42.895234 
L 60.286112 42.991194 
L 58.866833 43.180586 
L 58.679535 43.207169 
L 58.147888 43.222396 
L 57.957099 43.252336 
L 57.583666 43.363336 
L 57.391715 43.399222 
L 57.183476 43.387088 
L 57.090409 43.363852 
L 57.007812 43.694152 
L 57.022935 43.920758 
L 56.904274 44.237189 
L 56.721629 44.548638 
L 56.548291 44.761638 
L 56.41218 44.856131 
L 56.117854 45.005283 
L 55.979417 45.111995 
L 55.730461 45.454033 
L 55.62227 45.555652 
L 55.089459 45.703448 
L 54.828407 45.704945 
L 54.00406 45.709672 
L 53.288605 45.839094 
L 52.752304 45.806411 
L 52.562679 45.828459 
L 52.221819 45.918215 
L 51.629678 45.96284 
L 50.888628 46.143452 
L 45.364495 46.505383 
L 44.882871 46.707487 
L 43.790492 47.796229 
L 43.321665 48.070198 
L 43.319338 48.070719 
L 43.318175 48.072282 
L 42.614353 48.257265 
L 41.769723 48.348228 
L 41.617515 48.364622 
L 41.254405 48.403734 
L 41.042676 48.31616 
L 40.779761 48.070198 
L 40.400511 47.657476 
L 40.259747 47.540098 
L 40.095715 47.452147 
L 39.185981 47.236233 
L 38.806732 47.093206 
L 38.6078 46.954897 
L 38.556613 46.830918 
L 38.546143 46.699173 
L 38.470525 46.539148 
L 38.294861 46.407736 
L 38.011005 46.270645 
L 37.576044 46.116393 
L 37.484011 46.08376 
L 37.264139 46.050803 
L 36.62779 46.057031 
L 35.985625 45.963359 
L 35.76808 45.968029 
L 35.509818 46.0521 
L 35.070074 46.281289 
L 34.51516 46.292193 
L 33.762477 46.520967 
L 33.518175 46.515253 
L 32.852743 46.361256 
L 32.836456 46.369305 
L 32.638688 46.344898 
L 32.229191 46.109972 
L 32.005829 46.04717 
L 31.446262 45.956094 
L 31.26129 45.876189 
L 30.90647 45.865293 
L 29.773375 46.14501 
L 29.532563 46.147086 
L 29.455782 45.992159 
L 28.871784 45.667662 
L 28.686812 45.612172 
L 27.903883 45.636545 
L 27.642131 45.614765 
L 27.17912 45.520913 
L 26.454358 45.471141 
L 26.246119 45.42915 
L 25.822662 45.475029 
L 25.697021 45.497063 
L 25.576034 45.558244 
L 25.527173 45.625136 
L 25.470169 45.682183 
L 25.405022 45.729122 
L 25.370762 45.745423 
L 25.327078 45.766209 
L 25.093246 45.774508 
L 24.36383 45.556429 
L 24.34638 45.55254 
L 24.330094 45.551244 
L 24.313807 45.55254 
L 24.29752 45.556429 
L 24.207943 45.575874 
L 24.124182 45.581578 
L 24.040421 45.575096 
L 23.958987 45.555652 
L 23.705378 45.377833 
L 23.167914 45.103706 
L 22.704904 44.772769 
L 22.510625 44.687609 
L 21.726532 44.52561 
L 21.47176 44.503358 
L 21.241418 44.569339 
L 21.020383 44.772769 
L 20.767938 45.241011 
L 20.616703 45.412044 
L 20.135079 45.640175 
L 19.955925 45.656771 
L 19.77328 45.623581 
L 19.596452 45.558244 
L 19.423114 45.485657 
L 19.223019 45.430187 
L 19.052007 45.438481 
L 18.957776 45.557207 
L 19.05317 45.760503 
L 18.95894 45.896423 
L 18.756518 45.978926 
L 18.528503 46.02148 
L 18.114353 45.820158 
L 18.020122 45.698261 
L 18.212074 45.555652 
L 18.233014 45.398567 
L 18.307468 45.306048 
L 18.348185 45.202147 
L 18.271404 45.012535 
L 18.153907 44.874773 
L 18.003835 44.760602 
L 17.671119 44.575032 
L 17.267439 44.439196 
L 17.227886 44.391856 
L 17.044077 44.3215 
L 16.850963 44.353056 
L 16.660174 44.426261 
L 16.453099 44.466878 
L 15.642249 44.466878 
L 15.494505 44.516295 
L 15.465421 44.514225 
L 15.404927 44.473346 
L 15.212976 44.236155 
L 15.053598 43.918949 
L 14.905853 43.712494 
L 14.06941 43.058789 
L 14.02404 43.045373 
L 13.977506 43.039697 
L 13.929809 43.043309 
L 13.712264 43.107814 
L 13.537762 43.117104 
L 13.359771 43.094913 
L 13.138736 43.041245 
L 13.091039 43.037117 
L 13.045668 43.041245 
L 13.000298 43.054145 
L 12.911884 43.095945 
L 12.824633 43.110653 
L 12.743199 43.097493 
L 12.669908 43.053629 
L 12.118484 42.548689 
L 11.997496 42.34613 
L 11.987026 42.208559 
L 12.01262 42.093687 
L 12.01262 41.995834 
L 11.928859 41.911902 
L 11.850915 41.903664 
L 11.540303 41.914734 
L 11.542629 41.755916 
L 11.710151 41.454891 
L 11.307634 41.337101 
L 10.923731 41.308558 
L 10.554951 41.39445 
L 10.44327 41.466208 
L 10.431621 41.467162 
L 10.41186 41.46878 
L 10.145455 41.441516 
L 10.155925 40.724931 
L 10.280402 40.563145 
L 10.319956 40.407057 
L 10.188498 40.004735 
L 10.211765 39.803693 
L 10.38045 39.642199 
L 11.115682 39.294521 
L 11.185483 39.2223 
L 11.302981 39.064319 
L 11.387905 38.99469 
L 11.526342 38.939403 
L 11.826485 38.883611 
L 11.962596 38.831919 
L 12.142914 38.692735 
L 12.280189 38.508068 
L 12.352316 38.297906 
L 12.338356 38.085788 
L 12.373256 37.953452 
L 12.459343 37.888573 
L 12.565208 37.840048 
L 12.662928 37.758331 
L 12.740872 37.644972 
L 12.766466 37.578091 
L 12.742036 37.243313 
L 12.719932 37.162714 
L 12.728076 37.085697 
L 12.80253 36.965351 
L 12.823927 36.947615 
L 12.909557 36.87664 
L 13.179453 36.744623 
L 13.285317 36.65646 
L 13.30742 36.596335 
L 13.306257 36.468976 
L 13.320217 36.420588 
L 13.459818 36.245412 
L 13.70412 35.832159 
L 13.901889 35.742632 
L 14.334652 35.706012 
L 14.509153 35.620576 
L 14.5045 35.454324 
L 14.556851 35.227659 
L 14.638285 35.003129 
L 14.724372 34.841146 
L 14.961694 34.710175 
L 15.187382 34.750275 
L 15.609676 35.017858 
L 15.886551 35.126557 
L 16.128527 35.143321 
L 16.369339 35.130113 
L 16.776509 35.147386 
L 17.030117 35.10319 
L 17.152268 35.111318 
L 17.266276 35.173295 
L 17.474514 35.340978 
L 17.598992 35.363849 
L 17.80025 35.424333 
L 18.049206 35.553458 
L 18.277221 35.609898 
L 18.408679 35.452799 
L 18.386829 35.420769 
L 18.372615 35.399935 
L 18.18997 35.219529 
L 18.14111 35.127065 
L 18.15507 34.99348 
L 18.257444 34.801039 
L 18.256281 34.717789 
L 18.12017 34.618314 
L 17.615279 34.456456 
L 17.408204 34.3687 
L 17.078978 34.120733 
L 16.713688 33.973736 
L 16.756732 33.967655 
L 16.770692 33.9636 
L 16.593864 33.892653 
L 16.444956 33.999584 
L 16.392605 34.019351 
L 16.323968 33.967148 
L 16.384462 33.848064 
L 16.562454 33.63581 
L 16.721831 33.289007 
L 16.911456 32.991003 
L 16.9545 32.848896 
L 16.802102 31.952701 
L 16.752078 31.797273 
L 16.689258 31.722605 
L 16.446119 31.577337 
L 16.299538 31.446229 
L 16.268128 31.392284 
L 16.226247 31.281387 
L 16.156447 30.866757 
L 16.08083 30.724262 
L 15.864448 30.376009 
L 16.144813 30.000359 
L 16.998707 29.355851 
L 17.192985 29.045712 
L 17.274419 28.961938 
L 17.40006 28.901249 
L 17.642036 28.874168 
L 17.76535 28.84458 
L 17.954975 28.737278 
L 18.648327 28.035895 
L 18.757681 27.961308 
L 18.856566 27.92477 
L 19.055497 27.883731 
L 19.153218 27.829184 
L 19.205568 27.760134 
L 19.297472 27.565046 
L 19.356803 27.485034 
L 19.827957 27.21609 
L 21.048303 26.224125 
L 21.49619 25.950417 
L 21.908014 25.77202 
L 22.246547 25.48314 
L 24.818698 23.948605 
L 25.327078 23.732775 
L 25.94016 23.475399 
L 25.941323 23.475399 
L 25.942487 23.474903 
L 25.94365 23.474903 
L 26.269386 23.331152 
L 27.157017 22.805109 
L 27.312905 22.681363 
L 27.320327 22.668018 
L 27.461812 22.413691 
L 27.585127 22.273237 
L 27.737525 22.191656 
L 27.931803 22.13777 
L 28.320359 22.07104 
L 30.359699 22.057201 
L 30.951841 21.923775 
L 31.19847 21.60914 
L 31.249657 21.505956 
L 31.26827 21.382066 
L 31.25082 21.198022 
L 31.28223 21.083093 
L 32.006993 20.877971 
L 32.219885 20.755238 
L 32.360649 20.645841 
L 32.374609 20.624654 
L 32.316442 20.598049 
L 32.236171 20.471944 
L 32.122164 20.019041 
L 32.382752 19.776531 
L 32.379777 19.772676 
L 32.094243 19.402936 
L 32.005829 19.202992 
L 32.074467 18.986447 
L 31.771998 18.946684 
L 31.464875 18.843613 
L 31.30666 18.698371 
L 31.453242 18.532088 
L 31.453242 18.473242 
L 31.139139 18.452647 
L 30.872734 18.386457 
L 30.706376 18.265869 
L 30.685435 18.084558 
L 30.823873 17.921931 
L 31.082135 17.817136 
L 31.392748 17.795103 
L 31.690564 17.884711 
L 31.919742 17.830357 
L 32.293175 17.828888 
L 32.635198 17.790207 
L 32.773636 17.625729 
L 32.628218 17.507303 
L 31.690564 17.231913 
L 30.929737 16.858477 
L 30.761053 16.709972 
L 30.699395 16.58593 
L 30.687762 16.500976 
L 30.656352 16.423361 
L 30.531874 16.322822 
L 30.3946 16.273049 
L 30.251508 16.24231 
L 30.168911 16.203767 
L 30.216608 16.129618 
L 30.216608 16.071088 
L 30.083987 15.676212 
L 29.986266 15.550024 
L 29.690777 15.308467 
L 29.524419 15.122033 
L 29.5663 15.035414 
L 29.752434 14.98457 
L 29.626793 14.870253 
L 29.091656 14.583133 
L 28.519291 14.392877 
L 28.265682 14.230872 
L 27.642131 13.515805 
L 27.450179 13.45035 
L 27.232634 13.448169 
L 27.055806 13.400417 
L 26.982515 13.200985 
L 27.043009 13.075993 
L 27.197734 12.938204 
L 27.397829 12.827568 
L 27.60374 12.785694 
L 27.53394 12.659127 
L 27.5479 12.562836 
L 27.62817 12.497525 
L 27.758465 12.46584 
L 27.666561 12.353633 
L 27.208204 12.002448 
L 27.190754 11.944226 
L 27.366418 11.757295 
L 27.20704 11.701038 
L 27.003455 11.661687 
L 26.826627 11.598202 
L 26.75101 11.467398 
L 26.73007 11.409732 
L 26.833607 11.449784 
L 26.931328 11.423725 
L 26.982515 11.280674 
L 26.955758 11.190477 
L 26.649799 10.741945 
L 26.584652 10.667516 
L 26.596285 10.592859 
L 26.732396 10.470306 
L 26.847567 10.408201 
L 26.986005 10.368487 
L 28.080711 10.221216 
L 28.34479 10.224825 
L 29.139353 10.347789 
L 29.420882 10.361266 
L 29.866442 10.453937 
L 30.181708 10.652343 
L 30.501627 10.807713 
L 30.951841 10.769648 
L 32.634035 9.989103 
L 33.910222 9.538707 
L 34.227814 9.309367 
L 34.495383 8.703593 
L 34.668721 8.523348 
L 35.078218 8.211936 
L 35.32252 8.082648 
L 35.561005 8.037167 
L 38.363498 7.924922 
L 39.05336 8.010359 
L 39.287192 8.015625 
L 42.449158 7.755056 
L 43.461266 7.48413 
L 43.971974 7.399039 
L 44.481518 7.39163 
L 46.380093 7.653169 
L 48.579802 7.67206 
L 50.111515 7.685215 
L 51.061966 7.588128 
L 53.461943 7.819884 
L 54.243709 7.807444 
L 54.583405 7.845962 
L 55.310494 8.177695 
L 55.647864 8.253125 
L 58.264222 8.309647 
L 58.39917 8.344378 
L 58.401496 8.410495 
L 58.367759 8.494833 
L 58.393353 8.584939 
L 58.531791 8.684175 
L 58.690005 8.727088 
L 61.167926 8.76617 
L 63.29568 9.249351 
L 64.039056 9.312728 
L 65.173315 9.108226 
L 66.167973 9.127904 
L 66.630983 9.180463 
L 66.932289 9.270476 
L 67.003253 9.415737 
L 66.973006 9.6139 
L 66.968353 9.862396 
L 67.05793 10.045135 
L 67.221962 10.125469 
L 67.44765 10.138939 
L 67.721036 10.120658 
L 68.053752 10.162755 
L 68.020015 10.324204 
L 67.853657 10.524476 
L 67.789673 10.682208 
L 67.940907 10.755676 
L 68.186373 10.741945 
L 68.63426 10.667516 
L 69.302018 10.725564 
L 69.534105 10.716411 
L 69.781316 10.653788 
L 70.094255 10.476084 
L 70.302493 10.418551 
L 70.696867 10.423606 
L 70.698234 10.423891 
L 71.91605 10.677391 
L 72.548908 10.687507 
L 72.7269 10.739536 
L 72.867664 10.934219 
L 72.77925 11.169016 
L 72.405817 11.638995 
L 72.428909 11.663833 
L 72.475618 11.714076 
L 72.626852 11.801002 
L 72.810079 11.875627 
L 72.970038 11.911375 
L 73.148612 11.897848 
L 73.266109 11.839399 
L 73.792522 11.470294 
L 73.851271 11.410697 
L 73.903039 11.286462 
L 73.893151 11.184448 
L 73.864649 11.083905 
L 73.858832 10.965309 
L 73.929796 10.777116 
L 74.076377 10.620312 
L 74.286942 10.518697 
L 74.545205 10.496307 
L 74.786017 10.564204 
L 75.466572 10.946751 
L 75.677137 11.004837 
L 75.884212 11.032557 
L 76.983571 11.034245 
L 77.201116 10.993026 
L 77.472175 10.866503 
L 77.837465 10.504974 
L 78.057337 10.330701 
L 78.298149 10.218088 
L 78.550594 10.155057 
L 78.779772 10.162755 
L 78.945549 10.260675 
L 78.988011 10.354046 
L 78.982194 10.433234 
L 78.993246 10.517253 
L 79.088058 10.622721 
L 79.222424 10.692565 
L 79.546415 10.797835 
L 79.686016 10.877347 
L 79.759307 10.97519 
L 79.880295 11.232679 
L 79.944279 11.307206 
L 80.09086 11.337358 
L 80.234533 11.29804 
L 80.52595 11.151655 
L 81.086681 10.954945 
L 81.378099 10.903372 
L 81.683476 10.899998 
L 82.693258 11.011104 
L 82.984093 11.072333 
L 83.082978 11.199399 
L 83.110898 11.389466 
L 83.287726 11.912099 
L 83.359853 12.043038 
L 83.469207 12.142356 
L 83.655342 12.189243 
L 83.817047 12.151056 
L 83.965955 12.101031 
L 84.110209 12.108522 
L 84.19048 12.224292 
L 84.270751 12.398609 
L 84.389412 12.49559 
L 84.591833 12.376362 
L 84.64651 12.238312 
L 84.62208 11.881907 
L 84.65349 11.724458 
L 84.874525 11.466915 
L 85.189791 11.267649 
L 85.550428 11.121516 
L 85.907574 11.022192 
L 86.2368 10.985313 
L 86.931316 10.981698 
L 87.226805 10.923856 
L 87.442023 10.803135 
L 87.708429 10.508345 
L 87.932954 10.395203 
L 88.153989 10.354046 
L 88.384331 10.34827 
L 88.836871 10.405794 
L 89.10793 10.493418 
L 89.248113 10.608271 
L 89.484853 10.946751 
L 89.860613 11.24112 
L 89.992071 11.394291 
L 90.036278 11.638754 
L 89.930413 11.880941 
L 90.006031 11.986985 
L 90.193329 12.059227 
L 90.423671 12.199395 
L 90.550475 12.380231 
L 90.645869 12.584608 
L 90.78547 12.753504 
L 91.043732 12.829747 
L 91.275819 12.787388 
L 91.418714 12.7222 
L 91.716145 12.586544 
L 91.97557 12.543483 
L 92.467082 12.648723 
L 92.691026 12.647271 
L 92.855057 12.49559 
L 93.020252 12.26732 
L 93.131933 12.156856 
L 93.284331 12.116255 
L 93.577493 12.098856 
L 93.838082 12.043038 
L 94.006767 11.938429 
L 94.166145 11.815491 
L 94.398813 11.70635 
L 94.621012 11.657342 
L 94.880437 11.63634 
L 95.127066 11.654445 
L 95.321344 11.724458 
L 95.507479 11.893017 
L 95.606363 12.035306 
L 95.748291 12.137764 
L 96.769706 12.226951 
L 96.972127 12.199395 
L 97.086135 12.13438 
L 97.27576 11.953647 
L 97.418269 11.90123 
L 97.534022 11.906785 
L 97.71434 11.970075 
L 97.855105 11.965968 
L 98.537987 11.779027 
L 98.796249 11.739669 
L 100.371415 11.717697 
L 100.694243 11.763814 
L 101.01009 11.885288 
L 101.43122 12.185376 
L 101.590017 12.272881 
L 102.15831 12.417471 
L 102.302564 12.48785 
L 102.370038 12.551708 
L 102.40203 12.613882 
L 102.414245 12.687922 
L 102.413082 12.784968 
L 102.393305 12.858795 
L 102.299074 13.054437 
L 102.267664 13.063883 
L 102.351425 13.163435 
L 102.695774 13.395085 
L 102.845845 13.466349 
L 103.01802 13.501501 
L 103.353063 13.500289 
L 103.517094 13.521866 
L 103.682289 13.603578 
L 103.932989 13.80174 
L 104.109236 13.83061 
L 104.266287 13.820663 
L 104.417521 13.841771 
L 104.560613 13.891269 
L 104.686835 13.964314 
L 104.772341 14.053148 
L 104.896819 14.037856 
L 104.941669 13.984205 
L 104.949169 13.975235 
L 104.963711 13.751281 
L 104.994539 13.732361 
L 105.195798 13.547566 
L 105.226045 13.410113 
L 105.569813 13.279971 
L 105.883333 13.108206 
L 105.817023 12.843544 
L 105.964767 12.812077 
L 105.953134 12.763185 
L 105.874027 12.707765 
L 105.817023 12.657434 
L 105.706505 12.394014 
L 105.656482 12.332113 
L 105.519789 12.277474 
L 105.402291 12.273848 
L 105.315622 12.251366 
L 105.271997 12.140422 
L 105.294682 12.022259 
L 105.379606 11.956305 
L 105.50641 11.934564 
L 105.656482 11.949299 
L 105.656482 11.87925 
L 105.537821 11.854132 
L 105.421486 11.812593 
L 105.327256 11.742083 
L 105.271997 11.629822 
L 105.336562 11.553791 
L 105.287702 11.484531 
L 105.171368 11.422278 
L 105.034093 11.36896 
L 105.130651 11.325538 
L 105.186491 11.281638 
L 105.271997 11.177696 
L 105.08528 11.130919 
L 104.710684 11.074985 
L 104.580389 10.98676 
L 104.580389 10.928917 
L 104.638557 10.906746 
L 104.676365 10.887949 
L 104.723481 10.872045 
L 104.811895 10.859275 
L 104.811895 10.801449 
L 104.715337 10.771093 
L 104.496629 10.674019 
L 104.496629 10.6049 
L 104.820038 10.451529 
L 104.963711 10.419032 
L 104.921249 10.328536 
L 104.888675 10.292679 
L 104.949169 10.268616 
L 105.041073 10.19836 
L 105.117854 10.159387 
L 105.05038 10.030946 
L 105.181838 9.834511 
L 105.117854 9.708811 
L 105.258618 9.686704 
L 105.607621 9.680936 
L 105.733262 9.651382 
L 105.796083 9.562969 
L 105.812369 9.447917 
L 105.846688 9.339138 
L 105.971747 9.270476 
L 105.971747 9.201104 
L 105.881007 9.195824 
L 105.656482 9.137983 
L 105.794919 9.057356 
L 106.046201 8.972666 
L 106.246296 8.866887 
L 106.235826 8.722773 
L 106.153229 8.634315 
L 106.149739 8.598841 
L 106.198599 8.571278 
L 106.270727 8.504417 
L 106.516192 8.340545 
L 106.547602 8.308449 
L 106.609259 8.280427 
L 106.662773 8.21912 
L 106.7349 8.158061 
L 106.966406 8.095335 
L 106.996652 8.016582 
L 107.003633 7.929947 
L 107.046676 7.871323 
L 107.137417 7.855532 
L 107.47246 7.871323 
L 107.57018 7.84644 
L 107.670228 7.789741 
L 107.822626 7.681867 
L 107.822626 7.618973 
L 107.762132 7.580476 
L 107.731885 7.523096 
L 107.737702 7.489867 
L 108.056458 7.427241 
L 108.216999 7.376813 
L 108.3566 7.318744 
L 108.481078 7.250409 
L 108.596249 7.17062 
L 108.599739 7.140763 
L 108.592759 7.093235 
L 108.613699 7.036399 
L 108.702113 6.979332 
L 108.794017 6.942565 
L 108.860328 6.927286 
L 108.923148 6.942326 
L 108.999929 6.995568 
L 109.293091 6.984346 
L 109.393139 6.864506 
L 109.284948 6.741598 
L 108.955722 6.718691 
L 108.99353 6.672403 
L 109.018542 6.628268 
L 109.051116 6.582945 
L 109.106956 6.536672 
L 109.040646 6.38072 
L 109.216311 6.283458 
L 109.496676 6.237695 
L 111.038687 6.192176 
L 111.472032 6.219344 
L 111.746581 6.298236 
L 112.260779 6.521408 
L 112.531838 6.574119 
L 112.795916 6.516161 
L 112.980888 6.361647 
L 113.154226 6.177163 
L 113.381078 6.027301 
L 114.266382 5.842965 
L 115.29943 5.840346 
L 117.270133 6.033256 
z
" clip-path="url(#p8cc15196f0)" style="stroke: #000000; stroke-linejoin: miter"/>
   </g>
   <g id="line2d_1">
    <path d="M 118.557953 5.998954 
L 119.620085 6.005386 
L 119.944076 6.280598 
L 119.995263 6.592963 
L 120.391382 6.639957 
L 121.401163 6.467273 
L 122.286467 6.550983 
L 124.336277 5.979661 
L 124.663176 5.624679 
L 124.905152 4.907074 
L 125.299525 4.571051 
L 125.031956 4.281556 
L 125.190171 3.966428 
L 125.648528 3.918551 
L 126.619919 4.098946 
L 127.158547 4.015732 
L 129.715574 4.601674 
L 130.712559 4.510288 
L 131.643233 4.652004 
L 133.111372 4.085195 
L 133.449905 4.065753 
L 133.69188 3.904568 
L 134.051935 3.794146 
L 134.678395 3.532189 
L 137.551852 3.749369 
L 137.875261 3.634726 
L 138.088153 3.78846 
L 138.016025 4.135699 
L 138.207977 4.278947 
L 138.451116 4.267087 
L 139.222412 3.882055 
L 140.723706 3.605122 
L 141.517106 3.66362 
L 143.246996 4.856238 
L 144.16022 5.207708 
L 144.551104 5.639672 
L 144.554594 5.743211 
L 144.360315 6.000622 
L 144.626721 6.801257 
L 144.89778 7.155333 
L 144.805876 7.372511 
L 145.595785 7.460943 
L 146.491559 8.079296 
L 146.837072 8.025917 
L 147.631635 8.392288 
L 148.064399 8.615139 
L 148.368031 8.9861 
L 148.384318 9.369152 
L 147.739826 9.656427 
L 147.079048 9.650901 
L 144.725605 10.018681 
L 144.617414 10.237577 
L 144.743055 10.329739 
L 145.349157 10.510752 
L 145.527148 10.861684 
L 146.14721 11.273438 
L 146.265871 11.638754 
L 146.072756 12.40006 
L 145.770287 12.485431 
L 145.928502 12.641948 
L 146.506683 12.849838 
L 147.101151 12.803363 
L 147.197709 13.119833 
L 146.915016 13.432897 
L 146.468293 13.687731 
L 145.815657 13.924028 
L 146.894076 14.135203 
L 148.326151 13.884475 
L 149.502291 14.105827 
L 150.570239 14.064072 
L 150.797091 14.279686 
L 150.957633 14.565878 
L 151.319432 14.687651 
L 152.143079 14.715365 
L 153.848539 14.416928 
L 154.548872 14.239614 
L 155.189874 14.340893 
L 155.647067 14.267785 
L 156.00654 14.405509 
L 156.094954 14.541819 
L 156.37183 15.406584 
L 156.595192 15.716171 
L 156.920928 15.884575 
L 157.302504 15.900663 
L 158.45305 15.821446 
L 158.975391 16.026464 
L 158.721783 16.268658 
L 158.108701 16.337462 
L 158.155235 16.442397 
L 158.184318 16.793989 
L 158.283202 16.8575 
L 158.683392 16.938124 
L 158.83928 17.174216 
L 158.82183 17.435871 
L 159.132443 17.724115 
L 159.252267 17.974827 
L 159.245287 18.186966 
L 159.914209 18.517376 
L 160.010766 18.783744 
L 159.992153 19.228533 
L 160.256232 19.408832 
L 159.212713 19.731781 
L 159.230163 19.853254 
L 159.765301 21.009613 
L 160.003786 21.242916 
L 161.065918 21.491146 
L 161.307894 21.877331 
L 161.396308 22.194622 
L 162.087333 22.495806 
L 162.770117 22.503672 
L 162.9738 22.393906 
L 163.37748 22.122941 
L 163.820714 22.022111 
L 164.201127 21.787423 
L 164.404712 21.747414 
L 165.468007 21.681235 
L 167.734199 21.858558 
L 167.819123 22.036938 
L 168.140206 22.125412 
L 169.262832 23.105207 
L 169.789826 23.167628 
L 171.081137 22.956619 
L 172.100225 23.17506 
L 172.30032 23.261771 
L 172.26891 23.301416 
L 172.252623 23.694581 
L 172.662119 23.819591 
L 173.178644 23.824552 
L 173.488093 23.672261 
L 173.91853 23.303894 
L 176.523254 22.552208 
L 179.708487 22.329117 
L 181.033534 21.749884 
L 182.389992 21.731116 
L 182.89372 22.543302 
L 184.235054 23.014067 
L 184.261811 23.415414 
L 184.135006 23.84936 
L 185.681089 25.052145 
L 186.977053 25.433352 
L 187.799536 25.778497 
L 188.521972 26.393215 
L 188.751151 26.777511 
L 189.763259 26.500986 
L 190.086668 26.590315 
L 190.617153 26.383737 
L 190.67532 25.963875 
L 190.593886 25.517498 
L 190.704403 25.230766 
L 190.883558 25.205387 
L 192.281896 25.333292 
L 192.754213 25.997769 
L 194.34683 26.310408 
L 195.16466 26.228613 
L 195.925486 26.223128 
L 196.227955 26.146334 
L 196.224465 26.170268 
L 196.482727 26.642223 
L 197.164446 26.916334 
L 198.339422 27.106157 
L 199.298017 27.709103 
L 200.55559 27.640571 
L 200.771972 27.538541 
L 201.32107 27.119648 
L 201.75616 27.030718 
L 202.059792 27.176611 
L 202.93928 28.280259 
L 203.690799 28.4566 
L 204.99607 28.231677 
L 205.620785 28.439064 
L 206.423491 28.582885 
L 207.01447 29.552176 
L 207.754356 29.746572 
L 208.210386 29.869679 
L 209.024726 30.245227 
L 209.676198 30.212537 
L 210.298586 30.043089 
L 211.237404 29.602902 
L 211.458439 29.606418 
L 212.729973 29.879228 
L 212.677622 30.080795 
L 212.504284 30.214549 
L 211.870262 30.463552 
L 211.651554 30.782161 
L 211.719028 31.089897 
L 212.399583 31.773055 
L 213.054545 32.279869 
L 212.853287 33.138718 
L 212.7672 33.231821 
L 212.282086 33.41808 
L 211.691108 33.895694 
L 210.719716 34.32711 
L 210.426554 34.700532 
L 210.343957 35.08084 
L 210.035671 35.140273 
L 209.362095 35.10573 
L 208.432584 35.293208 
L 207.669432 35.351143 
L 207.589161 35.844877 
L 207.969574 36.055029 
L 208.325557 36.348779 
L 208.543102 36.58105 
L 209.704118 36.768067 
L 210.342793 36.807314 
L 210.69994 37.001554 
L 211.1455 36.775712 
L 211.358392 36.655951 
L 211.644574 36.677862 
L 211.864446 36.839427 
L 211.852812 37.03164 
L 211.479379 37.392813 
L 210.980305 37.624549 
L 210.526602 37.654162 
L 209.021236 37.375462 
L 208.550082 37.593407 
L 208.290657 37.902877 
L 207.914897 38.050529 
L 207.113354 39.631947 
L 209.110813 39.663216 
L 209.627338 39.937541 
L 209.743672 40.47996 
L 209.48192 40.504093 
L 209.619194 40.738801 
L 209.736692 40.794541 
L 210.404451 41.727093 
L 209.186431 42.404364 
L 210.191559 42.678874 
L 211.021022 42.584777 
L 211.182727 42.752875 
L 211.153643 42.947339 
L 210.813947 43.263693 
L 210.062428 43.654371 
L 209.358605 44.48473 
L 209.334175 44.717116 
L 209.491226 45.121839 
L 209.460979 45.135827 
L 209.385362 45.123911 
L 208.648966 45.242824 
L 208.579166 45.388718 
L 208.785077 45.555652 
L 208.964232 45.874632 
L 208.900248 46.111789 
L 208.75483 46.424875 
L 208.815324 46.626169 
L 208.546592 47.165495 
L 208.262736 47.336115 
L 207.890467 47.381119 
L 206.418838 47.185779 
L 205.404403 47.234152 
L 205.147304 47.182138 
L 204.410908 47.269525 
L 203.601222 47.033926 
L 201.048848 47.174077 
L 200.409941 46.923443 
L 198.620951 46.880818 
L 198.099774 47.011568 
L 197.70889 47.296576 
L 197.226103 48.150696 
L 197.014375 48.735914 
L 196.772399 48.750259 
L 196.200035 48.673843 
L 195.075082 49.24606 
L 192.719313 49.443464 
L 192.337737 49.60306 
L 191.835172 50.245056 
L 191.676958 50.598534 
L 191.650201 51.609487 
L 190.870761 52.546414 
L 191.009199 52.651755 
L 192.134152 52.800213 
L 192.102741 53.003653 
L 191.717675 53.252931 
L 191.251174 53.418917 
L 191.037119 53.652329 
L 190.963829 53.957204 
L 191.013852 54.279902 
L 191.183394 54.561927 
L 190.956221 54.700616 
L 190.347985 55.229945 
L 189.963258 55.345517 
L 190.210582 54.852216 
L 189.433799 54.64497 
L 189.041744 54.781187 
L 188.188931 54.682758 
L 187.183143 54.57812 
L 185.485762 54.857201 
L 184.027461 54.691479 
L 183.640902 54.781187 
L 182.926408 55.247404 
L 181.013762 56.888517 
L 181.063227 56.629663 
L 180.815902 56.430915 
L 180.046447 56.259307 
L 179.833931 56.294291 
L 179.317297 56.545072 
L 176.801911 57.25804 
L 176.210164 57.621963 
L 175.843757 57.658285 
L 175.942687 57.900074 
L 174.893846 59.334152 
L 174.607132 59.20854 
L 174.920411 59.271762 
L 175.264833 58.618119 
L 175.175064 58.390235 
L 174.59614 58.025394 
L 173.681954 57.932654 
L 173.179976 57.90258 
L 172.875858 58.085557 
L 172.133884 58.085557 
L 171.667631 58.261907 
L 170.738789 58.444166 
L 170.41177 58.603482 
L 169.435295 59.344203 
L 169.283236 59.642859 
L 169.246595 59.456023 
L 168.944309 59.513827 
L 168.973622 59.471102 
L 168.984614 59.355509 
L 168.167526 59.013059 
L 167.74799 59.074166 
L 166.932734 58.997575 
L 165.127262 59.176304 
L 163.330035 59.879634 
L 162.054938 60.76559 
L 160.33374 61.413732 
L 159.818938 61.828291 
L 159.257419 62.108478 
L 156.799743 64.598292 
L 155.679453 64.906047 
L 154.978699 65.165736 
L 154.777175 65.122164 
L 154.813816 65.021919 
L 155.478845 64.456307 
L 157.234852 64.029715 
L 157.930109 63.259269 
L 158.258044 62.88581 
L 158.829639 62.446905 
L 158.873608 62.185491 
L 158.485216 62.427537 
L 158.262624 62.440168 
L 157.990566 62.288611 
L 157.888889 62.057984 
L 157.955758 61.784551 
L 158.181098 61.39608 
L 158.097741 61.361618 
L 157.715761 61.297323 
L 157.248592 60.994434 
L 157.098365 60.621612 
L 156.854704 60.820588 
L 156.937146 61.025094 
L 157.287065 61.497797 
L 157.384163 61.660497 
L 157.24676 61.934292 
L 156.867528 62.185491 
L 155.823268 63.11677 
L 155.324954 63.316617 
L 154.011384 63.458322 
L 153.780548 63.316617 
L 153.652305 63.627908 
L 153.122847 63.820335 
L 152.854454 64.203693 
L 153.666962 66.839995 
L 153.909706 67.092481 
L 154.999868 68.759781 
L 154.704688 68.881979 
L 154.44202 68.83315 
L 153.522682 68.296296 
L 152.839745 68.174352 
L 152.603344 67.979294 
L 152.55081 67.297098 
L 152.55081 66.980633 
L 152.314409 66.640016 
L 151.999207 66.421152 
L 151.473871 66.20237 
L 150.475733 66.153763 
L 149.582662 66.250981 
L 149.398794 66.445466 
L 148.952258 66.396839 
L 148.348122 66.056561 
L 147.481317 65.206733 
L 147.113582 65.206733 
L 146.378112 64.915648 
L 145.98411 64.891398 
L 145.537574 64.988406 
L 144.486902 64.8429 
L 143.620097 64.576235 
L 141.991555 63.898003 
L 141.492486 63.825383 
L 140.522758 63.89761 
L 140.011211 63.665669 
L 139.913773 63.74796 
L 140.024454 64.134105 
L 139.900556 64.391191 
L 139.541133 64.632631 
L 139.181054 64.312666 
L 138.655259 64.51335 
L 138.446407 64.820214 
L 138.745945 65.023611 
L 138.157861 65.096784 
L 138.047023 65.22581 
L 138.27786 65.449665 
L 138.166106 65.444586 
L 137.931605 65.378564 
L 137.141082 65.32736 
L 136.493457 64.851924 
L 136.193003 64.813872 
L 135.909037 64.971169 
L 135.734078 64.946642 
L 136.042776 64.687051 
L 136.019876 64.569554 
L 135.769803 64.520956 
L 134.882181 64.598292 
L 135.003096 64.329563 
L 135.113018 63.606391 
L 134.851953 63.78826 
L 134.436997 64.339702 
L 133.629069 64.493067 
L 132.730455 64.166106 
L 132.832133 64.465602 
L 132.67183 64.604209 
L 131.072463 64.669298 
L 130.717048 64.669298 
L 129.667291 64.548424 
L 129.247755 64.683246 
L 127.598922 64.92719 
L 127.330529 65.094669 
L 126.8771 65.139931 
L 124.142787 64.557721 
L 123.933935 64.095584 
L 124.241717 63.805986 
L 123.609664 63.925438 
L 122.509527 63.702593 
L 121.77488 63.168622 
L 121.413969 63.257161 
L 120.855198 63.068716 
L 119.924524 62.609875 
L 119.886051 63.03331 
L 118.971865 62.971777 
L 118.649427 62.789323 
L 118.591718 62.628829 
L 118.957209 62.379961 
L 119.380409 62.304186 
L 120.001469 62.391329 
L 120.955044 62.244835 
L 121.679614 61.877083 
L 121.906787 61.846798 
L 121.813353 61.720628 
L 121.117179 61.229254 
L 120.204825 61.205305 
L 118.130961 60.740821 
L 117.724249 60.970916 
L 117.665624 61.148589 
L 117.682112 61.473837 
L 117.335857 60.973436 
L 117.174638 60.9348 
L 115.676033 59.84694 
L 116.500449 60.283428 
L 118.849119 60.262455 
L 119.655215 60.551105 
L 120.615201 60.551105 
L 121.587096 60.684991 
L 122.46739 60.621612 
L 123.704014 60.797077 
L 124.318662 61.050295 
L 125.274069 61.091879 
L 125.709177 60.973436 
L 126.016959 60.761811 
L 125.807191 60.571668 
L 126.114973 60.30482 
L 127.117097 59.794132 
L 127.833423 59.674702 
L 128.476468 59.20854 
L 128.209906 59.288929 
L 127.59709 59.528907 
L 127.330529 59.495396 
L 125.814519 60.039356 
L 124.990103 60.10896 
L 124.066757 59.670512 
L 123.876225 59.673445 
L 123.458521 59.858257 
L 123.123259 59.917359 
L 122.857613 60.128669 
L 122.69731 60.025101 
L 122.537923 59.648306 
L 122.348307 59.565771 
L 121.467098 59.419166 
L 121.13092 59.128163 
L 120.922983 58.751966 
L 120.776421 58.406539 
L 120.538256 58.085557 
L 120.492455 57.659538 
L 121.285727 56.325945 
L 121.164812 56.224742 
L 120.488791 56.076928 
L 120.526348 55.942473 
L 120.950464 55.519337 
L 120.883595 55.447807 
L 119.693687 55.345517 
L 120.008798 54.915776 
L 120.049102 54.667809 
L 119.726664 54.314535 
L 119.472011 54.24648 
L 119.350181 53.898038 
L 119.303464 53.708976 
L 119.147741 53.603694 
L 118.380118 53.284241 
L 118.420422 53.005545 
L 118.259203 53.010513 
L 118.065007 53.249448 
L 118.311416 53.480614 
L 118.528512 53.568881 
L 119.142245 53.769088 
L 119.184381 54.419123 
L 119.655215 54.57812 
L 119.795365 54.656597 
L 119.380409 55.528487 
L 119.735824 55.626651 
L 120.615201 55.624155 
L 120.133376 56.018646 
L 120.078415 56.189347 
L 120.171849 56.367181 
L 120.620698 56.349686 
L 120.853366 56.259307 
L 120.904663 56.480908 
L 120.592301 57.052812 
L 119.688191 57.595663 
L 119.693687 57.868748 
L 120.160857 58.297435 
L 120.111392 58.926852 
L 120.181009 59.073329 
L 119.995973 59.270087 
L 119.616742 59.419166 
L 118.638435 59.435919 
L 117.541961 59.171281 
L 116.676324 59.274274 
L 116.47022 59.540636 
L 116.128545 59.533096 
L 115.868396 59.419166 
L 115.414051 59.386918 
L 115.368251 59.241197 
L 115.480005 59.066632 
L 116.912657 57.525117 
L 116.683652 57.453327 
L 116.445488 57.772276 
L 116.071752 57.921376 
L 115.676033 58.225964 
L 115.375579 58.085557 
L 115.087949 57.703795 
L 114.914822 57.658285 
L 115.252832 58.224292 
L 115.648552 58.480541 
L 115.337106 58.856975 
L 115.162146 58.944846 
L 114.6391 59.419166 
L 113.91911 59.623167 
L 113.755143 59.706129 
L 113.139579 59.565771 
L 113.056221 59.642859 
L 112.843705 59.550271 
L 111.74998 59.420841 
L 107.598586 60.204156 
L 107.195538 60.586357 
L 107.234011 60.72319 
L 107.68286 61.302786 
L 107.594922 61.354054 
L 107.517977 61.463749 
L 107.393398 61.819459 
L 106.741193 62.320603 
L 106.035859 62.355965 
L 106.088072 62.413222 
L 106.426083 62.609875 
L 106.379366 62.821764 
L 106.05418 63.235658 
L 104.588551 64.540818 
L 104.260617 65.094669 
L 102.87743 65.953124 
L 101.005089 67.434254 
L 100.256702 67.81107 
L 100.285099 67.6734 
L 100.13304 67.064045 
L 99.889379 67.354843 
L 99.762968 67.862492 
L 99.387401 67.876942 
L 98.59413 67.525993 
L 98.344057 67.610949 
L 98.228638 68.073752 
L 98.168181 68.310607 
L 97.937345 68.018911 
L 97.967573 67.848893 
L 97.868643 67.873542 
L 97.772461 68.196207 
L 97.912612 68.445022 
L 98.015206 68.524155 
L 97.937345 68.81014 
L 97.881468 68.71054 
L 97.366665 68.404184 
L 97.28056 68.524155 
L 96.714461 68.565001 
L 96.474464 68.67096 
L 96.39935 68.881658 
L 96.632019 69.087321 
L 97.102852 69.273884 
L 97.178882 69.352701 
L 97.123921 69.388491 
L 96.271108 69.65358 
L 96.324237 69.739269 
L 95.701345 69.960582 
L 95.716001 69.685552 
L 95.380738 69.184428 
L 95.126085 69.096264 
L 95.156314 69.018759 
L 95.16181 68.354841 
L 95.252496 68.212792 
L 95.028988 68.001057 
L 94.573727 67.794497 
L 94.585635 67.948347 
L 94.735862 68.214068 
L 94.464721 68.524155 
L 94.541666 68.838236 
L 94.618612 68.959572 
L 94.232052 69.154187 
L 94.079993 70.540053 
L 94.741358 70.683514 
L 95.109597 70.581466 
L 95.400891 70.390651 
L 95.259824 70.507182 
L 94.430828 71.256849 
L 94.260449 71.389366 
L 94.655252 71.771693 
L 94.821968 71.666037 
L 94.826548 71.431265 
L 95.010667 71.400482 
L 95.043644 71.689562 
L 95.113261 71.683574 
L 95.34593 71.615996 
L 95.419211 71.6562 
L 95.470508 71.830304 
L 95.684856 71.415018 
L 95.936761 71.714371 
L 95.859816 72.060952 
L 95.633559 72.0464 
L 95.792947 72.163681 
L 95.928517 72.589336 
L 95.901037 73.220664 
L 95.633559 73.815305 
L 95.637224 73.929924 
L 95.236008 74.142477 
L 94.86044 74.151497 
L 94.927552 73.919625 
L 94.862987 73.85311 
L 95.009568 73.549524 
L 94.951401 73.139352 
L 94.761776 72.778434 
L 93.85495 72.264377 
L 92.289673 71.891483 
L 90.898315 71.852359 
L 90.614459 71.976804 
L 89.768709 72.049092 
L 88.877588 72.479194 
L 86.997044 73.145342 
L 86.911539 73.421486 
L 86.653277 73.484684 
L 85.374763 72.989624 
L 85.075784 73.038622 
L 85.080437 73.347944 
L 84.737251 73.536446 
L 84.901864 73.756077 
L 85.221202 73.85311 
L 84.951306 73.991055 
L 84.178846 74.03468 
L 82.681624 73.811678 
L 81.748623 73.486863 
L 80.162987 73.133362 
L 79.903562 73.022833 
L 79.351555 72.192063 
L 79.410304 71.982783 
L 79.190432 71.785528 
L 78.608069 71.681643 
L 78.583167 71.683394 
L 78.4552 71.487324 
L 78.632028 71.229977 
L 79.231149 70.934219 
L 81.837037 71.068242 
L 81.887061 70.943985 
L 81.866121 70.454262 
L 82.229666 70.322545 
L 82.025499 70.036986 
L 81.941738 69.743442 
L 81.599715 69.382939 
L 82.180223 68.957762 
L 82.57576 68.805832 
L 82.496653 68.611246 
L 82.677553 68.415644 
L 83.725143 68.254672 
L 83.749573 68.046229 
L 83.725143 67.891835 
L 83.810067 67.844337 
L 84.353348 67.716975 
L 84.572638 67.490383 
L 84.541809 67.105915 
L 84.394065 66.570883 
L 84.713984 66.336119 
L 86.956909 65.91744 
L 86.980176 65.713052 
L 86.753324 65.003095 
L 86.839411 64.838762 
L 87.481577 64.27952 
L 87.615361 64.033882 
L 87.553122 63.80818 
L 86.693994 63.241902 
L 86.766121 62.951746 
L 86.821961 62.602362 
L 86.533452 61.734371 
L 86.603253 61.44391 
L 86.832431 61.216557 
L 88.286028 60.712007 
L 89.516263 60.357597 
L 89.696 60.502532 
L 89.769872 60.724002 
L 89.68553 61.818761 
L 89.510447 62.121972 
L 89.701235 62.225928 
L 89.951354 62.129186 
L 90.573742 61.825171 
L 90.707526 61.676694 
L 90.697056 61.249106 
L 90.894825 61.0389 
L 91.053039 61.072506 
L 91.518376 61.617955 
L 91.660304 61.615286 
L 92.359473 60.990361 
L 92.593305 60.907694 
L 92.917878 60.998895 
L 92.915551 61.137058 
L 92.78991 61.449248 
L 93.026069 61.567498 
L 93.696736 61.739178 
L 94.00444 62.096319 
L 94.372056 62.177288 
L 94.708262 62.034865 
L 94.792023 61.866302 
L 94.80831 61.548011 
L 95.353918 61.489819 
L 95.477232 61.337694 
L 95.480722 61.047435 
L 95.624976 61.206152 
L 96.45095 61.799532 
L 96.523077 61.980097 
L 96.539364 62.251052 
L 96.763889 62.409302 
L 96.984924 62.387914 
L 97.782977 62.054904 
L 99.611752 62.049293 
L 99.904915 61.866302 
L 100.179464 61.546676 
L 99.846748 61.464996 
L 99.565219 61.546676 
L 98.440266 60.82024 
L 98.327422 60.813308 
L 98.250641 60.688551 
L 97.594516 60.431925 
L 97.559616 60.202046 
L 98.001686 60.158638 
L 98.106387 59.839172 
L 97.931885 59.38584 
L 98.07265 59.076112 
L 98.098243 58.168915 
L 97.915598 57.851637 
L 97.890005 57.563165 
L 97.659663 57.550971 
L 97.456078 57.589672 
L 96.93839 57.107957 
L 95.725024 56.974222 
L 95.2783 56.590141 
L 93.731054 56.169836 
L 93.886361 55.494683 
L 94.230128 55.147254 
L 94.138224 54.852798 
L 93.860185 54.68084 
L 93.517581 54.809012 
L 93.297127 55.002645 
L 93.199407 54.940379 
L 92.855057 54.415097 
L 93.412298 54.351844 
L 93.575166 54.230629 
L 93.640314 53.979852 
L 93.56586 53.225316 
L 93.843899 53.134852 
L 93.97303 52.958701 
L 93.859022 52.487579 
L 93.519326 52.208724 
L 92.855057 52.167512 
L 92.41415 52.738198 
L 92.052351 52.762372 
L 91.728941 52.627848 
L 91.545133 52.328441 
L 91.482313 52.020801 
L 91.16123 51.840288 
L 90.828514 51.76212 
L 90.609806 51.424393 
L 90.264293 51.283386 
L 89.900166 51.017461 
L 89.287085 51.141369 
L 88.910162 50.595917 
L 88.764162 50.189609 
L 88.911325 49.923439 
L 89.491833 49.381571 
L 89.608167 49.000711 
L 89.659354 48.32867 
L 90.128182 47.940488 
L 89.940883 47.750929 
L 89.444136 47.600736 
L 89.544184 47.313744 
L 90.099098 46.78544 
L 89.295228 46.434743 
L 89.10793 45.934819 
L 88.838034 45.727825 
L 88.486123 45.685814 
L 88.129559 45.79033 
L 87.636301 46.178752 
L 87.226805 46.225994 
L 86.483429 45.957132 
L 85.557408 45.237901 
L 85.182811 44.366506 
L 84.867545 44.239775 
L 82.031897 43.992869 
L 81.748623 44.566234 
L 81.70209 44.830241 
L 81.357158 44.740412 
L 81.222792 44.657327 
L 80.902873 44.262016 
L 81.090171 44.137379 
L 81.104131 43.985631 
L 80.819112 43.777083 
L 80.413687 43.917657 
L 80.121107 44.187023 
L 79.759307 44.130657 
L 79.812821 43.852016 
L 80.351449 43.367983 
L 80.213011 43.098525 
L 79.501045 43.119684 
L 78.628538 43.402837 
L 78.317925 43.253885 
L 78.195774 42.896266 
L 78.010803 42.913032 
L 77.487299 43.117104 
L 77.071985 43.035568 
L 77.29302 42.644327 
L 77.231363 42.465182 
L 76.81605 42.271415 
L 75.358381 42.092657 
L 74.496344 41.393421 
L 73.392332 40.972075 
L 71.761325 40.914004 
L 71.738058 40.652506 
L 71.492593 40.633503 
L 71.06681 40.769367 
L 70.601472 40.769367 
L 70.34321 40.977729 
L 69.471867 41.374904 
L 68.782004 41.129879 
L 68.374834 41.253791 
L 67.704749 41.750769 
L 67.277802 41.881525 
L 66.909022 41.869683 
L 65.226829 41.518169 
L 65.216359 41.590202 
L 65.241952 41.9101 
L 64.717284 41.930695 
L 64.291501 41.974721 
L 63.038581 41.57528 
L 62.792534 41.769299 
L 62.544742 41.728637 
L 62.433642 41.915506 
L 62.559284 42.227106 
L 62.518567 42.544565 
L 62.167819 42.62396 
L 61.819397 42.460027 
L 61.547175 42.235349 
L 61.260993 42.269354 
L 61.205734 42.397922 
L 60.710732 42.656444 
L 60.629298 42.895234 
L 60.286112 42.991194 
L 57.090409 43.363852 
L 56.721629 44.548638 
L 56.41218 44.856131 
L 55.979417 45.111995 
L 55.62227 45.555652 
L 54.828407 45.704945 
L 54.00406 45.709672 
L 53.288605 45.839094 
L 52.562679 45.828459 
L 51.629678 45.96284 
L 50.888628 46.143452 
L 45.364495 46.505383 
L 44.882871 46.707487 
L 43.790492 47.796229 
L 43.318175 48.072282 
L 42.614353 48.257265 
L 41.042676 48.31616 
L 40.095715 47.452147 
L 38.806732 47.093206 
L 38.556613 46.830918 
L 38.470525 46.539148 
L 38.011005 46.270645 
L 37.264139 46.050803 
L 35.509818 46.0521 
L 35.070074 46.281289 
L 34.51516 46.292193 
L 33.518175 46.515253 
L 32.229191 46.109972 
L 31.26129 45.876189 
L 30.90647 45.865293 
L 29.532563 46.147086 
L 29.455782 45.992159 
L 28.686812 45.612172 
L 27.642131 45.614765 
L 26.246119 45.42915 
L 25.576034 45.558244 
L 25.327078 45.766209 
L 25.093246 45.774508 
L 24.040421 45.575096 
L 23.958987 45.555652 
L 22.704904 44.772769 
L 22.510625 44.687609 
L 21.47176 44.503358 
L 21.241418 44.569339 
L 21.020383 44.772769 
L 20.616703 45.412044 
L 19.955925 45.656771 
L 18.957776 45.557207 
L 19.05317 45.760503 
L 18.95894 45.896423 
L 18.528503 46.02148 
L 18.020122 45.698261 
L 18.212074 45.555652 
L 18.271404 45.012535 
L 18.003835 44.760602 
L 17.044077 44.3215 
L 15.465421 44.514225 
L 15.212976 44.236155 
L 14.905853 43.712494 
L 13.929809 43.043309 
L 13.537762 43.117104 
L 12.669908 43.053629 
L 11.997496 42.34613 
L 11.928859 41.911902 
L 11.540303 41.914734 
L 11.542629 41.755916 
L 11.710151 41.454891 
L 10.923731 41.308558 
L 10.145455 41.441516 
L 10.155925 40.724931 
L 10.319956 40.407057 
L 10.211765 39.803693 
L 10.38045 39.642199 
L 11.185483 39.2223 
L 11.526342 38.939403 
L 11.962596 38.831919 
L 12.280189 38.508068 
L 12.565208 37.840048 
L 12.766466 37.578091 
L 12.823927 36.947615 
L 13.320217 36.420588 
L 13.901889 35.742632 
L 14.509153 35.620576 
L 14.556851 35.227659 
L 14.724372 34.841146 
L 14.961694 34.710175 
L 15.187382 34.750275 
L 15.886551 35.126557 
L 17.474514 35.340978 
L 18.049206 35.553458 
L 18.277221 35.609898 
L 18.372615 35.399935 
L 18.14111 35.127065 
L 18.12017 34.618314 
L 17.408204 34.3687 
L 16.593864 33.892653 
L 16.323968 33.967148 
L 16.9545 32.848896 
L 16.689258 31.722605 
L 16.268128 31.392284 
L 15.864448 30.376009 
L 16.144813 30.000359 
L 16.998707 29.355851 
L 17.40006 28.901249 
L 17.954975 28.737278 
L 18.856566 27.92477 
L 19.205568 27.760134 
L 19.356803 27.485034 
L 19.827957 27.21609 
L 21.49619 25.950417 
L 21.908014 25.77202 
L 22.246547 25.48314 
L 25.327078 23.732775 
L 26.269386 23.331152 
L 27.320327 22.668018 
L 27.585127 22.273237 
L 27.931803 22.13777 
L 28.320359 22.07104 
L 30.359699 22.057201 
L 30.951841 21.923775 
L 31.26827 21.382066 
L 31.28223 21.083093 
L 32.219885 20.755238 
L 32.374609 20.624654 
L 32.316442 20.598049 
L 32.236171 20.471944 
L 32.122164 20.019041 
L 32.379777 19.772676 
L 32.005829 19.202992 
L 32.074467 18.986447 
L 31.464875 18.843613 
L 31.30666 18.698371 
L 31.453242 18.473242 
L 30.872734 18.386457 
L 30.706376 18.265869 
L 30.685435 18.084558 
L 30.823873 17.921931 
L 31.392748 17.795103 
L 31.690564 17.884711 
L 32.293175 17.828888 
L 32.635198 17.790207 
L 32.773636 17.625729 
L 32.628218 17.507303 
L 31.690564 17.231913 
L 30.761053 16.709972 
L 30.531874 16.322822 
L 30.168911 16.203767 
L 30.216608 16.129618 
L 30.216608 16.071088 
L 29.986266 15.550024 
L 29.524419 15.122033 
L 29.5663 15.035414 
L 29.752434 14.98457 
L 29.626793 14.870253 
L 28.265682 14.230872 
L 27.450179 13.45035 
L 27.055806 13.400417 
L 27.043009 13.075993 
L 27.397829 12.827568 
L 27.60374 12.785694 
L 27.5479 12.562836 
L 27.758465 12.46584 
L 27.666561 12.353633 
L 27.190754 11.944226 
L 27.366418 11.757295 
L 26.75101 11.467398 
L 26.73007 11.409732 
L 26.833607 11.449784 
L 26.931328 11.423725 
L 26.955758 11.190477 
L 26.596285 10.592859 
L 26.986005 10.368487 
L 28.34479 10.224825 
L 29.866442 10.453937 
L 30.501627 10.807713 
L 30.951841 10.769648 
L 32.634035 9.989103 
L 34.227814 9.309367 
L 34.668721 8.523348 
L 35.32252 8.082648 
L 35.561005 8.037167 
L 38.363498 7.924922 
L 39.287192 8.015625 
L 42.449158 7.755056 
L 43.971974 7.399039 
L 44.481518 7.39163 
L 46.380093 7.653169 
L 54.243709 7.807444 
L 54.583405 7.845962 
L 55.647864 8.253125 
L 58.401496 8.410495 
L 58.393353 8.584939 
L 58.690005 8.727088 
L 61.167926 8.76617 
L 64.039056 9.312728 
L 65.173315 9.108226 
L 66.630983 9.180463 
L 66.932289 9.270476 
L 67.003253 9.415737 
L 66.968353 9.862396 
L 67.05793 10.045135 
L 67.44765 10.138939 
L 68.053752 10.162755 
L 68.020015 10.324204 
L 67.789673 10.682208 
L 67.940907 10.755676 
L 69.781316 10.653788 
L 70.302493 10.418551 
L 70.698234 10.423891 
L 71.91605 10.677391 
L 72.7269 10.739536 
L 72.867664 10.934219 
L 72.77925 11.169016 
L 72.475618 11.714076 
L 72.970038 11.911375 
L 73.266109 11.839399 
L 73.903039 11.286462 
L 73.929796 10.777116 
L 74.286942 10.518697 
L 74.786017 10.564204 
L 75.677137 11.004837 
L 75.884212 11.032557 
L 77.201116 10.993026 
L 77.472175 10.866503 
L 78.057337 10.330701 
L 78.550594 10.155057 
L 78.945549 10.260675 
L 79.222424 10.692565 
L 79.759307 10.97519 
L 79.944279 11.307206 
L 80.234533 11.29804 
L 81.086681 10.954945 
L 81.683476 10.899998 
L 82.984093 11.072333 
L 83.110898 11.389466 
L 83.469207 12.142356 
L 83.817047 12.151056 
L 84.110209 12.108522 
L 84.389412 12.49559 
L 84.64651 12.238312 
L 84.65349 11.724458 
L 85.189791 11.267649 
L 85.907574 11.022192 
L 87.442023 10.803135 
L 87.932954 10.395203 
L 88.384331 10.34827 
L 89.10793 10.493418 
L 89.248113 10.608271 
L 89.484853 10.946751 
L 89.992071 11.394291 
L 90.036278 11.638754 
L 89.930413 11.880941 
L 90.193329 12.059227 
L 90.550475 12.380231 
L 90.78547 12.753504 
L 91.275819 12.787388 
L 91.97557 12.543483 
L 92.691026 12.647271 
L 93.284331 12.116255 
L 93.838082 12.043038 
L 94.621012 11.657342 
L 95.127066 11.654445 
L 95.507479 11.893017 
L 95.748291 12.137764 
L 96.972127 12.199395 
L 97.534022 11.906785 
L 97.855105 11.965968 
L 98.796249 11.739669 
L 100.694243 11.763814 
L 101.01009 11.885288 
L 101.590017 12.272881 
L 102.370038 12.551708 
L 102.413082 12.784968 
L 102.351425 13.163435 
L 103.01802 13.501501 
L 103.682289 13.603578 
L 104.109236 13.83061 
L 104.560613 13.891269 
L 104.941669 13.984205 
L 104.949169 13.975235 
L 104.994539 13.732361 
L 105.569813 13.279971 
L 105.883333 13.108206 
L 105.817023 12.843544 
L 105.964767 12.812077 
L 105.953134 12.763185 
L 105.817023 12.657434 
L 105.656482 12.332113 
L 105.271997 12.140422 
L 105.379606 11.956305 
L 105.656482 11.87925 
L 105.537821 11.854132 
L 105.327256 11.742083 
L 105.186491 11.281638 
L 105.271997 11.177696 
L 104.580389 10.928917 
L 104.638557 10.906746 
L 104.811895 10.801449 
L 104.715337 10.771093 
L 104.496629 10.6049 
L 104.921249 10.328536 
L 104.888675 10.292679 
L 104.949169 10.268616 
L 105.117854 10.159387 
L 105.05038 10.030946 
L 105.181838 9.834511 
L 105.117854 9.708811 
L 105.796083 9.562969 
L 105.846688 9.339138 
L 105.971747 9.201104 
L 105.881007 9.195824 
L 105.656482 9.137983 
L 106.235826 8.722773 
L 106.149739 8.598841 
L 106.198599 8.571278 
L 106.7349 8.158061 
L 106.996652 8.016582 
L 107.046676 7.871323 
L 107.822626 7.681867 
L 107.737702 7.489867 
L 108.481078 7.250409 
L 108.999929 6.995568 
L 109.293091 6.984346 
L 109.393139 6.864506 
L 109.284948 6.741598 
L 108.955722 6.718691 
L 109.018542 6.628268 
L 109.106956 6.536672 
L 109.040646 6.38072 
L 109.496676 6.237695 
L 111.472032 6.219344 
L 112.795916 6.516161 
L 113.381078 6.027301 
L 114.266382 5.842965 
L 115.29943 5.840346 
L 117.270133 6.033256 
L 118.557953 5.998954 
L 118.557953 5.998954 
" clip-path="url(#p8cc15196f0)" style="fill: none; stroke: #000000; stroke-width: 0.5; stroke-linecap: square"/>
   </g>
  </g>
 </g>
 <defs>
  <clipPath id="p8cc15196f0">
   <rect x="0" y="-0" width="223.2" height="77.708167"/>
  </clipPath>
 </defs>
</svg>
