<?xml version="1.0" encoding="utf-8" standalone="no"?>
<!DOCTYPE svg PUBLIC "-//W3C//DTD SVG 1.1//EN"
  "http://www.w3.org/Graphics/SVG/1.1/DTD/svg11.dtd">
<svg xmlns:xlink="http://www.w3.org/1999/xlink" width="174.994735pt" height="221.76pt" viewBox="0 0 174.994735 221.76" xmlns="http://www.w3.org/2000/svg" version="1.1">
 <metadata>
  <rdf:RDF xmlns:dc="http://purl.org/dc/elements/1.1/" xmlns:cc="http://creativecommons.org/ns#" xmlns:rdf="http://www.w3.org/1999/02/22-rdf-syntax-ns#">
   <cc:Work>
    <dc:type rdf:resource="http://purl.org/dc/dcmitype/StillImage"/>
    <dc:date>2026-04-26T19:21:49.892062</dc:date>
    <dc:format>image/svg+xml</dc:format>
    <dc:creator>
     <cc:Agent>
      <dc:title>Matplotlib v3.10.9, https://matplotlib.org/</dc:title>
     </cc:Agent>
    </dc:creator>
   </cc:Work>
  </rdf:RDF>
 </metadata>
 <defs>
  <style type="text/css">*{stroke-linejoin: round; stroke-linecap: butt}</style>
 </defs>
 <g id="figure_1">
  <g id="patch_1">
   <path d="M 0 221.76 
L 174.994735 221.76 
L 174.994735 0 
L 0 0 
z
" style="fill: #ffffff"/>
  </g>
  <g id="axes_1">
   <g id="patch_2">
    <path d="M 59.415912 168.493426 
L 59.195767 168.312198 
L 58.127544 167.789693 
L 57.464152 167.220868 
L 57.35925 167.193871 
L 57.111033 167.226653 
L 57.006131 167.178445 
L 56.923392 167.039605 
L 56.879067 166.759987 
L 56.825878 166.617282 
L 56.627894 166.341504 
L 56.447641 166.216146 
L 55.423743 166.104287 
L 54.194474 165.757126 
L 53.657407 165.701192 
L 53.463118 165.53339 
L 53.257747 165.124475 
L 52.979979 164.275703 
L 52.823366 164.017193 
L 52.304768 163.56574 
L 51.72707 163.38052 
L 49.864698 163.428755 
L 49.560336 163.378591 
L 49.272226 163.24739 
L 48.990765 162.975334 
L 48.464779 162.284533 
L 48.332723 162.192258 
L 48.169282 162.078051 
L 48.039263 162.070332 
L 47.764451 162.155242 
L 47.629999 162.17068 
L 47.481512 162.114717 
L 47.070032 161.805949 
L 46.705093 161.738404 
L 46.47756 161.863844 
L 46.27145 162.062613 
L 45.973737 162.222782 
L 45.36649 162.033667 
L 45.075425 161.300312 
L 45.076902 160.377718 
L 45.345805 159.621022 
L 43.215269 158.866176 
L 42.882834 158.902858 
L 42.395263 159.244575 
L 42.102721 159.379712 
L 41.814611 159.377782 
L 41.572303 159.256158 
L 40.196763 157.885333 
L 39.866545 157.313756 
L 39.759427 156.514243 
L 39.760904 155.817009 
L 39.661913 155.341847 
L 39.376758 155.032782 
L 38.827133 154.829951 
L 38.5996 154.642568 
L 38.292282 154.182784 
L 38.067704 154.032093 
L 37.851991 154.010841 
L 37.657702 154.037889 
L 37.473755 154.014705 
L 37.283159 153.852417 
L 37.234402 153.721039 
L 37.187122 153.380991 
L 37.133933 153.263129 
L 37.006869 153.16652 
L 36.961067 153.191638 
L 36.92413 153.265061 
L 36.822183 153.31723 
L 36.656705 153.363601 
L 35.917222 153.705583 
L 35.80715 153.800253 
L 35.685996 153.854349 
L 35.502049 153.815709 
L 35.349129 153.666942 
L 35.078749 153.195503 
L 34.911793 153.046723 
L 34.567538 153.046723 
L 34.263176 153.251536 
L 33.972111 153.522035 
L 33.669226 153.717175 
L 33.068628 153.711379 
L 32.437002 153.411905 
L 31.846746 152.955907 
L 31.377644 152.480558 
L 30.410629 151.147095 
L 29.501236 149.444165 
L 28.786132 147.591956 
L 28.412328 145.814724 
L 28.069551 144.129936 
L 27.02349 140.821195 
L 23.973957 134.619893 
L 23.589072 132.85138 
L 23.44945 131.615329 
L 22.944149 129.257034 
L 21.870016 126.240886 
L 21.01529 124.509428 
L 18.959367 121.373337 
L 17.842387 120.157011 
L 17.218989 119.740752 
L 15.846302 118.824106 
L 13.924092 116.912694 
L 13.471981 116.291645 
L 13.148411 115.58127 
L 12.427398 113.053774 
L 11.456689 111.411133 
L 11.051857 110.525625 
L 10.877514 109.787641 
L 10.6389 107.544229 
L 10.208212 105.440219 
L 10.171275 104.694097 
L 10.45643 103.50097 
L 11.526131 101.608014 
L 11.985629 100.548669 
L 12.12008 99.094576 
L 11.8497 97.513908 
L 10.460863 93.212132 
L 9.878733 90.16765 
L 8.766185 87.486314 
L 8.286002 85.950803 
L 8.265398 85.836961 
L 7.99346 84.334326 
L 7.954306 82.755608 
L 8.237245 81.161123 
L 9.102313 78.055326 
L 9.238981 76.462237 
L 9.187269 75.714319 
L 9.142944 75.472795 
L 12.489452 75.416309 
L 13.192736 75.634461 
L 13.776343 75.694841 
L 13.841352 75.727953 
L 14.006092 75.560445 
L 14.049678 75.348136 
L 14.057066 75.104658 
L 14.110255 74.837802 
L 14.200382 74.726773 
L 14.444167 74.576784 
L 14.518041 74.415107 
L 14.54833 74.10733 
L 14.574186 74.041099 
L 14.806151 73.854092 
L 14.958333 73.879416 
L 15.113469 73.98266 
L 15.352822 74.035255 
L 15.478408 73.978764 
L 16.237836 73.50929 
L 16.750524 72.876159 
L 17.24105 72.509905 
L 17.385843 72.355997 
L 17.703503 72.120263 
L 17.883757 71.820231 
L 18.248696 70.670704 
L 18.396444 70.390128 
L 19.370108 69.322334 
L 19.801534 68.630566 
L 20.136924 67.866663 
L 20.174446 67.747434 
L 20.396962 67.040358 
L 20.645179 65.68193 
L 20.816568 65.296013 
L 21.567131 64.282453 
L 22.116756 63.03101 
L 22.478002 62.726907 
L 23.115537 63.001769 
L 23.164295 62.670374 
L 23.11997 62.376012 
L 23.038708 62.085543 
L 22.978131 61.767776 
L 22.99376 61.417209 
L 22.994384 61.403214 
L 23.094853 61.063989 
L 23.68437 59.841555 
L 23.791488 59.490601 
L 23.796659 59.14549 
L 23.762677 58.767224 
L 23.840245 58.541041 
L 24.238428 58.164713 
L 24.273887 58.088666 
L 24.327077 57.866374 
L 24.364014 57.807876 
L 24.601889 57.761077 
L 24.629962 57.764977 
L 24.637349 57.800076 
L 24.910684 57.770827 
L 24.926198 57.729878 
L 24.950576 57.566081 
L 24.972738 57.519282 
L 25.353191 57.404232 
L 25.451444 57.357433 
L 25.565211 57.226782 
L 25.751374 56.934279 
L 26.422153 56.522816 
L 26.797435 56.043089 
L 26.815903 55.539947 
L 26.384405 55.229425 
L 26.284747 55.157707 
L 26.547739 54.740353 
L 26.817381 54.408805 
L 27.132824 54.151363 
L 27.52362 53.956329 
L 27.69944 53.927073 
L 27.839063 53.823704 
L 27.930667 53.654022 
L 27.974253 53.429727 
L 28.35249 53.677427 
L 28.749195 53.618915 
L 29.093449 53.308802 
L 29.309162 52.801687 
L 29.301775 52.692461 
L 29.238243 52.356976 
L 29.230856 52.218489 
L 29.433271 51.838133 
L 29.55738 51.387548 
L 29.582497 51.151524 
L 29.567723 50.913546 
L 29.508623 50.77895 
L 29.323199 50.599488 
L 29.272225 50.457088 
L 29.284045 50.347849 
L 29.35201 50.096206 
L 29.349793 49.996719 
L 29.208693 49.735318 
L 28.857051 49.298342 
L 28.786132 49.021326 
L 28.880691 48.720896 
L 29.323199 48.047839 
L 29.365951 47.947011 
L 29.461344 47.722033 
L 29.127432 47.718131 
L 28.459607 47.963949 
L 28.125695 48.002968 
L 27.937316 47.928832 
L 27.610053 47.645945 
L 27.434232 47.560103 
L 27.257672 47.575711 
L 27.115094 47.649847 
L 26.965868 47.698621 
L 26.775272 47.643994 
L 26.736858 47.562054 
L 26.696966 47.253799 
L 26.660028 47.13869 
L 26.597974 47.084062 
L 26.408856 46.978707 
L 25.480255 46.245112 
L 25.364273 46.219748 
L 25.164812 46.317302 
L 24.994901 46.502654 
L 24.711962 47.017728 
L 24.643259 47.06065 
L 24.641419 47.053475 
L 24.581204 46.818723 
L 24.457096 46.656787 
L 24.374356 46.506556 
L 24.439366 46.299742 
L 24.179328 46.20609 
L 23.962137 45.936839 
L 23.604586 45.326132 
L 23.573558 45.000285 
L 23.737559 44.580775 
L 24.049309 44.024667 
L 24.05448 43.544648 
L 24.101021 43.251948 
L 24.216265 43.004126 
L 25.038487 41.864502 
L 25.13083 41.507382 
L 24.802827 41.667404 
L 24.29014 41.975735 
L 23.988732 42.106482 
L 23.710965 42.102579 
L 23.552135 41.899628 
L 23.607541 41.435177 
L 23.724262 41.200997 
L 24.065562 40.773612 
L 24.202968 40.537474 
L 24.265022 40.338413 
L 24.381744 39.739271 
L 24.923981 37.996406 
L 25.115316 37.596292 
L 25.58885 36.809707 
L 25.865141 36.595003 
L 26.169503 36.645751 
L 26.479775 36.762863 
L 26.778966 36.741392 
L 26.939273 36.563773 
L 27.143167 36.056282 
L 27.307168 35.886466 
L 27.491854 35.853283 
L 27.645512 35.917696 
L 28.391643 36.403719 
L 28.508365 36.440805 
L 28.638383 36.39396 
L 28.741807 36.315884 
L 28.941268 36.251472 
L 29.162152 36.083609 
L 29.402244 35.943071 
L 29.588407 35.765446 
L 29.736156 35.412145 
L 29.796733 35.027608 
L 29.736156 33.735367 
L 29.860265 32.903774 
L 30.352268 30.801259 
L 30.232592 30.252668 
L 30.079672 29.979345 
L 29.861742 29.690401 
L 29.603921 29.520547 
L 29.336496 29.596688 
L 29.524875 28.497502 
L 29.482028 27.997682 
L 29.053557 27.90787 
L 29.124477 27.755579 
L 29.211648 27.632575 
L 29.443614 27.392421 
L 29.33428 27.054642 
L 29.414803 26.763719 
L 29.560335 26.480604 
L 29.638642 26.160389 
L 29.524875 25.402794 
L 29.474641 25.20363 
L 29.638642 24.684236 
L 29.603182 24.510452 
L 29.476118 24.252703 
L 29.443614 24.155071 
L 29.448046 23.951994 
L 29.632732 22.462083 
L 29.644552 21.975847 
L 29.540389 21.575529 
L 29.200567 21.747373 
L 28.976728 21.514992 
L 28.839322 21.089283 
L 28.700438 20.4097 
L 28.636906 20.265189 
L 28.459607 20.015224 
L 28.22321 19.597311 
L 28.138254 19.351247 
L 28.214345 19.241886 
L 28.258669 19.019255 
L 28.285264 18.527121 
L 28.204002 18.033028 
L 27.926235 17.810391 
L 27.645512 17.757661 
L 26.701398 17.294808 
L 26.569902 17.189347 
L 26.355666 16.919835 
L 26.204963 16.779219 
L 25.783879 16.548764 
L 25.599193 16.365181 
L 25.522364 16.062463 
L 25.537138 15.921844 
L 25.571121 15.810521 
L 25.603625 15.728494 
L 25.617661 15.669902 
L 25.58885 15.515612 
L 25.455877 15.287104 
L 25.37166 14.90235 
L 25.111622 14.332049 
L 25.024451 14.056662 
L 24.968306 13.568384 
L 24.907729 13.451196 
L 24.731908 13.283227 
L 24.672809 13.304711 
L 24.579727 13.371118 
L 24.46596 13.394555 
L 24.340374 13.283227 
L 24.316734 13.169945 
L 24.355149 13.056663 
L 24.409077 12.94924 
L 24.439366 12.837911 
L 24.392086 12.580095 
L 24.183761 12.390638 
L 24.136481 12.187509 
L 24.181544 11.974613 
L 24.291617 11.767575 
L 24.404981 11.6109 
L 24.421636 11.587882 
L 24.53688 11.464831 
L 24.714178 11.486316 
L 24.820557 11.580069 
L 24.894432 11.685541 
L 24.974955 11.734371 
L 25.147082 11.716792 
L 25.41303 11.634759 
L 26.134043 11.546865 
L 26.445793 11.591788 
L 26.790047 11.734371 
L 26.971778 11.535146 
L 27.482989 10.820273 
L 27.689837 10.677688 
L 28.232074 10.451114 
L 28.76988 10.08 
L 29.27518 10.247978 
L 29.502713 10.396424 
L 30.426142 10.396424 
L 33.044249 10.396424 
L 35.660878 10.396424 
L 35.965896 10.396424 
L 38.278246 10.396424 
L 40.895614 10.396424 
L 43.512244 10.396424 
L 46.054271 10.396424 
L 46.128873 10.396424 
L 48.746979 10.396424 
L 51.364347 10.396424 
L 53.983193 10.396424 
L 56.576875 10.396424 
L 56.599822 10.396424 
L 58.363214 10.396424 
L 59.21719 10.396424 
L 61.833081 10.396424 
L 64.451187 10.396424 
L 66.643051 10.396424 
L 67.067816 10.396424 
L 69.578817 10.396424 
L 69.685923 10.396424 
L 72.301814 10.396424 
L 73.473461 10.396424 
L 74.562369 10.396424 
L 74.621468 10.386658 
L 74.843091 10.396424 
L 74.871163 10.890589 
L 75.063237 11.056612 
L 75.593654 11.111301 
L 76.664832 11.902345 
L 79.733573 14.167989 
L 82.80379 16.431584 
L 85.119752 18.14131 
L 85.87253 18.697025 
L 88.941271 20.960397 
L 92.011488 23.225596 
L 92.660276 23.704071 
L 95.080229 25.488708 
L 98.147491 27.753627 
L 101.216231 30.018391 
L 104.284972 32.282991 
L 107.352234 34.547417 
L 110.422452 36.809707 
L 113.491192 39.071805 
L 116.559932 41.335651 
L 119.628673 43.597333 
L 122.69889 45.860745 
L 123.79379 46.668255 
L 125.767631 48.123925 
L 126.948143 48.994015 
L 127.166811 49.458308 
L 127.419461 51.504584 
L 127.45036 51.753136 
L 127.737121 54.059697 
L 127.477083 54.085051 
L 127.335244 54.246929 
L 127.28501 54.51022 
L 127.305694 54.847618 
L 127.035314 54.874922 
L 126.695492 55.114801 
L 126.376355 55.448288 
L 126.168029 55.752516 
L 126.095633 55.92023 
L 126.027668 56.130844 
L 125.990731 56.351207 
L 126.012893 56.550117 
L 126.116317 56.688572 
L 126.351238 56.727573 
L 126.423635 56.875777 
L 126.366013 57.187782 
L 126.252246 57.556331 
L 126.293616 57.815676 
L 126.977692 57.763027 
L 127.283532 57.798126 
L 127.584939 57.903423 
L 127.855319 58.075017 
L 128.05478 58.316805 
L 128.162637 58.607336 
L 128.410855 59.769415 
L 128.554171 60.155458 
L 128.750676 60.494701 
L 129.529312 61.231653 
L 130.749716 62.391607 
L 131.968643 63.551481 
L 133.190524 64.711275 
L 134.409451 65.869037 
L 135.628378 67.028665 
L 136.850259 68.186259 
L 137.974454 69.255609 
L 138.069186 69.345717 
L 139.291068 70.503138 
L 140.509994 71.660472 
L 141.728921 72.819663 
L 142.950803 73.978764 
L 144.171207 75.135824 
L 145.391611 76.294738 
L 146.612015 77.453557 
L 147.832419 78.610332 
L 149.045337 79.763361 
L 149.14306 79.881418 
L 149.395513 79.97341 
L 149.48742 80.502352 
L 149.409473 81.112525 
L 149.14306 81.435998 
L 148.75333 81.693544 
L 149.068604 81.86064 
L 149.283829 81.885167 
L 149.40831 81.989409 
L 149.444375 82.406368 
L 149.426924 82.806453 
L 149.373409 83.13295 
L 149.280339 83.433381 
L 148.824296 84.452649 
L 148.640482 84.682548 
L 148.557883 84.406669 
L 148.606744 84.034222 
L 148.698651 83.669429 
L 148.745186 83.31229 
L 148.655606 82.981199 
L 148.403154 83.951455 
L 148.184439 84.296315 
L 147.873818 84.267194 
L 148.121617 84.772974 
L 148.160008 84.959954 
L 148.210033 86.029673 
L 148.166988 86.218167 
L 148.069265 86.299387 
L 147.84706 86.20744 
L 147.723742 86.277933 
L 147.670227 86.372944 
L 147.528295 86.73766 
L 147.503864 86.995101 
L 147.709782 86.979777 
L 148.166988 86.733063 
L 148.177459 87.016554 
L 148.334515 87.468593 
L 148.361272 87.643275 
L 148.303103 87.78118 
L 147.758644 88.40633 
L 147.665574 88.567209 
L 147.38171 89.345528 
L 146.944281 90.209587 
L 146.897746 90.3444 
L 147.00943 90.482274 
L 147.165322 90.326016 
L 147.386364 89.958342 
L 147.472453 90.189672 
L 146.853538 92.550203 
L 146.697645 92.963746 
L 146.498708 93.312948 
L 146.348633 93.44313 
L 146.183433 93.548807 
L 146.053135 93.695833 
L 146.01009 93.953125 
L 146.071749 94.112398 
L 146.184597 94.182846 
L 146.283484 94.297704 
L 146.303261 94.59633 
L 146.111304 95.343628 
L 145.699469 96.447642 
L 145.200381 97.438253 
L 144.732704 97.830186 
L 144.928151 97.946539 
L 144.833918 98.335393 
L 144.822284 99.21103 
L 144.683842 99.560041 
L 144.502356 99.860059 
L 144.242923 100.558029 
L 143.926485 101.187082 
L 143.824108 101.592656 
L 143.770593 102.031884 
L 143.765939 103.243875 
L 143.705444 103.427498 
L 143.612373 103.557563 
L 143.532101 103.721289 
L 143.476259 103.897253 
L 143.465788 103.959987 
L 143.389005 104.438898 
L 143.25289 104.8214 
L 143.147023 105.231426 
L 143.162147 105.685802 
L 143.214499 105.806659 
L 143.392496 106.075906 
L 143.455318 106.199819 
L 143.591433 106.923378 
L 143.650765 107.109996 
L 143.734528 107.218599 
L 144.049803 107.483221 
L 144.273171 107.731011 
L 144.298765 107.847256 
L 144.354607 108.556934 
L 144.319706 109.008104 
L 144.219655 109.413376 
L 144.049803 109.687116 
L 144.15916 110.155057 
L 144.208022 111.208608 
L 144.387182 111.676478 
L 144.543074 111.824785 
L 144.718744 111.94404 
L 144.866492 112.072468 
L 144.928151 112.254404 
L 144.950255 112.456211 
L 145.013078 112.667187 
L 145.106148 112.861342 
L 145.221322 113.021861 
L 145.303921 113.099827 
L 145.376051 113.138045 
L 145.563354 113.150275 
L 145.661078 113.205309 
L 145.709939 113.327605 
L 145.750658 113.459071 
L 145.815807 113.547734 
L 145.99613 113.590536 
L 146.392841 113.618052 
L 146.54757 113.734228 
L 146.692992 113.806074 
L 146.847721 113.734228 
L 146.83376 113.584422 
L 146.709279 113.512575 
L 146.478931 113.394867 
L 146.197394 113.150275 
L 146.606902 113.315375 
L 146.904726 113.489645 
L 147.695821 114.471 
L 148.166988 115.213828 
L 148.543922 115.566881 
L 148.655606 115.727355 
L 148.870831 116.21029 
L 148.997639 116.382979 
L 149.240784 116.574003 
L 149.361775 116.713066 
L 149.457172 116.925477 
L 149.514177 117.169973 
L 149.533955 117.408351 
L 149.622371 117.87592 
L 149.835269 118.389303 
L 150.093538 118.639873 
L 150.323887 118.315964 
L 150.386709 118.859879 
L 150.320396 119.59167 
L 150.327377 120.256189 
L 150.615894 120.61058 
L 150.606587 120.26841 
L 150.583319 120.123289 
L 150.519334 119.969 
L 150.781093 119.990387 
L 150.988174 120.095792 
L 151.395355 120.418111 
L 151.61407 120.494488 
L 152.046846 120.544897 
L 152.226006 120.674736 
L 152.43774 120.774023 
L 152.961259 120.766386 
L 153.063636 120.873309 
L 153.124131 121.131449 
L 153.387054 121.585084 
L 153.506882 122.139497 
L 154.190947 123.321521 
L 154.236318 123.45132 
L 154.220031 123.633036 
L 154.150229 123.747561 
L 154.075773 123.845288 
L 154.040871 123.964391 
L 154.163026 125.161442 
L 154.147902 125.656095 
L 153.933841 125.630141 
L 153.789582 125.868298 
L 153.681388 126.37665 
L 153.597625 126.596469 
L 153.438243 126.761329 
L 153.303291 126.75675 
L 153.200914 126.590363 
L 153.152052 126.271318 
L 152.551751 126.819335 
L 152.535463 126.846811 
L 152.421453 127.045248 
L 152.34118 127.379528 
L 152.307442 127.680216 
L 152.24462 127.956474 
L 152.07942 128.214409 
L 151.894443 128.405184 
L 151.804864 128.452495 
L 151.685036 128.470809 
L 151.573352 128.528804 
L 151.587312 128.669209 
L 151.651298 128.835557 
L 151.690853 128.982062 
L 151.60709 129.194184 
L 151.409316 129.243017 
L 151.182458 129.224705 
L 151.006788 129.238439 
L 151.146393 129.540589 
L 151.288325 129.749646 
L 151.384885 129.989216 
L 151.386048 130.392045 
L 151.323226 130.66669 
L 151.196418 131.051178 
L 151.044016 131.394456 
L 150.665919 131.849088 
L 150.499556 132.556921 
L 150.248267 134.622112 
L 150.264554 135.006418 
L 150.323887 135.393757 
L 150.506537 135.994553 
L 150.555398 136.345251 
L 150.470472 136.625799 
L 150.42161 136.89109 
L 150.637998 137.575625 
L 150.568195 137.904912 
L 149.931829 138.872879 
L 150.369258 138.746364 
L 150.681043 138.281443 
L 150.885797 137.659472 
L 151.006788 137.05575 
L 151.227829 137.292061 
L 151.398846 137.546659 
L 151.419786 137.814969 
L 151.192928 138.092417 
L 151.730408 138.023819 
L 151.974716 138.05888 
L 152.226006 138.289064 
L 152.614573 138.782947 
L 152.661108 139.046644 
L 152.568038 139.509997 
L 152.356304 140.116584 
L 152.33769 140.346709 
L 152.491255 141.000471 
L 152.505216 141.731889 
L 152.568038 142.0671 
L 152.787916 141.890354 
L 152.861209 141.800456 
L 152.815837 142.376395 
L 152.63784 142.905063 
L 152.177144 143.857186 
L 151.702487 145.540251 
L 151.493079 146.051952 
L 151.395355 145.991037 
L 151.351147 145.995606 
L 151.304612 146.027586 
L 151.192928 146.051952 
L 151.292978 146.329109 
L 151.260404 146.999117 
L 151.299959 147.329531 
L 151.095205 147.212289 
L 151.092878 147.361506 
L 151.006788 147.713219 
L 150.774113 147.379777 
L 150.655449 147.265581 
L 150.519334 147.212289 
L 150.632181 147.484836 
L 150.639161 147.704084 
L 150.536784 147.866994 
L 150.323887 147.969001 
L 150.505373 148.448568 
L 150.622874 148.93876 
L 150.685696 149.459364 
L 150.70431 150.028637 
L 150.608914 151.112268 
L 150.653122 151.638806 
L 151.130106 152.274863 
L 151.309266 152.706985 
L 151.433747 153.187766 
L 151.493079 153.610706 
L 151.467485 155.171414 
L 151.386048 155.536444 
L 151.8863 155.720472 
L 151.971226 155.837579 
L 152.011944 155.986621 
L 152.070113 156.11741 
L 152.226006 156.1752 
L 152.512196 156.202574 
L 152.598286 156.312069 
L 152.605266 156.54322 
L 152.665761 156.938591 
L 152.791406 157.244229 
L 152.948462 157.382598 
L 153.119478 157.47991 
L 153.304455 157.647164 
L 153.426609 157.908679 
L 153.590645 158.562425 
L 153.747701 158.863432 
L 154.150229 159.258674 
L 154.236318 159.428925 
L 154.036218 159.501888 
L 153.866365 159.488208 
L 153.763988 159.442605 
L 153.55458 159.234352 
L 153.526659 159.194828 
L 153.252103 158.863432 
L 152.962422 158.404315 
L 152.744871 158.240121 
L 152.470314 158.288771 
L 152.309769 158.373909 
L 152.226006 158.402795 
L 152.166673 158.456005 
L 151.876993 158.991128 
L 152.093381 159.097539 
L 152.956605 158.991128 
L 152.766975 159.295156 
L 152.719277 159.489728 
L 152.829797 159.597652 
L 153.109008 159.629573 
L 153.352153 159.729894 
L 153.35448 159.989812 
L 153.270717 160.359152 
L 153.252103 160.775587 
L 153.287004 160.845497 
L 153.414975 160.973156 
L 153.44755 161.043064 
L 153.45104 161.395632 
L 153.44755 161.426025 
L 153.370767 161.614459 
L 153.359133 161.681321 
L 153.389381 161.726908 
L 153.456857 161.760339 
L 153.522006 161.818082 
L 153.55458 161.930529 
L 153.512699 162.109832 
L 153.430099 162.23139 
L 153.373094 162.365102 
L 153.402178 162.571742 
L 153.506882 162.871056 
L 153.506882 163.012352 
L 153.44755 163.199223 
L 153.649977 163.14301 
L 153.896613 162.991082 
L 154.126961 162.802686 
L 154.28518 162.632518 
L 154.45736 162.617324 
L 154.664441 162.863459 
L 155.279866 163.873738 
L 155.524175 164.40996 
L 155.592814 164.98563 
L 155.367119 165.573401 
L 155.356649 165.705528 
L 155.440412 165.858914 
L 155.548606 166.013816 
L 155.611428 166.153527 
L 155.611428 166.361571 
L 155.532319 166.736641 
L 155.513705 166.917335 
L 155.559076 167.536821 
L 155.510214 167.760004 
L 155.318258 168.075787 
L 155.126301 168.29288 
L 155.000656 168.329314 
L 154.861051 168.301988 
L 154.634193 168.330832 
L 154.456196 168.438616 
L 154.382904 168.611674 
L 154.386394 168.871252 
L 154.431765 169.232519 
L 154.559737 169.150553 
L 154.722609 169.112605 
L 155.018107 169.09439 
L 155.053008 168.889468 
L 155.125137 168.810533 
L 155.265906 168.903129 
L 155.356649 169.026083 
L 155.405511 169.076175 
L 155.464843 169.09439 
L 155.623062 169.180911 
L 155.646329 169.375199 
L 155.614918 169.587696 
L 155.611428 169.731886 
L 155.709152 169.903392 
L 156.051184 170.310132 
L 156.172175 170.67739 
L 156.340865 171.694073 
L 156.49094 171.976288 
L 156.68406 172.152287 
L 156.646832 172.272145 
L 156.532822 172.388967 
L 156.500247 172.543715 
L 156.571213 172.745489 
L 156.641015 172.874438 
L 156.830646 173.11716 
L 156.912082 173.320433 
L 156.86322 173.699656 
L 156.993518 174.060655 
L 156.877181 174.181995 
L 156.588664 174.324567 
L 156.347845 174.618799 
L 156.283859 174.776527 
L 156.400197 174.84629 
L 156.967924 174.829607 
L 157.074954 174.84629 
L 157.12149 174.979747 
L 157.234337 175.483219 
L 157.323917 175.674286 
L 157.558919 175.895673 
L 157.670603 176.035174 
L 157.766 176.247451 
L 157.861396 176.776597 
L 157.757856 177.15713 
L 157.489116 177.33905 
L 157.074954 177.275378 
L 157.195946 177.527028 
L 157.603127 177.93177 
L 157.617087 178.095478 
L 157.463522 178.22735 
L 156.970251 178.497151 
L 156.530495 178.636593 
L 156.523515 178.850298 
L 156.703838 179.321636 
L 156.675917 179.668676 
L 156.571213 179.930837 
L 156.40485 180.141467 
L 156.195443 180.336937 
L 156.563069 180.250567 
L 157.230847 179.209488 
L 157.524017 179.250407 
L 157.714811 179.388318 
L 158.14177 179.348915 
L 158.445411 179.741415 
L 158.633878 179.773238 
L 158.843285 179.761115 
L 159.035242 179.806577 
L 159.391235 180.15965 
L 160.25795 182.012576 
L 160.284707 183.084987 
L 160.403372 183.642323 
L 160.549957 183.421212 
L 160.62325 183.115278 
L 160.625576 182.791153 
L 160.553447 182.504878 
L 160.424313 182.130732 
L 160.455724 181.97319 
L 160.625576 181.951982 
L 160.89897 182.003487 
L 161.107214 182.082258 
L 161.549297 182.330683 
L 161.828507 182.415509 
L 162.399724 182.682097 
L 162.469527 182.660892 
L 162.512571 182.688156 
L 162.559106 182.891118 
L 162.532349 183.131938 
L 162.438115 183.381835 
L 162.392744 183.654439 
L 162.510245 183.966403 
L 162.55329 184.139037 
L 162.447422 184.232923 
L 162.308981 184.311666 
L 162.265936 184.426749 
L 162.340392 184.576656 
L 162.414848 184.587256 
L 162.490467 184.544858 
L 162.559106 184.53123 
L 162.797598 184.720504 
L 162.909283 184.749273 
L 162.958144 184.602398 
L 162.968615 184.408578 
L 163.012823 184.299552 
L 163.101239 184.278352 
L 163.251315 184.358608 
L 163.425821 184.51306 
L 163.757383 184.893116 
L 163.934216 185.050582 
L 163.93189 184.881003 
L 163.95632 184.7629 
L 163.994712 184.662965 
L 164.03194 184.53123 
L 164.144787 184.631167 
L 164.229714 184.658423 
L 164.315803 184.623596 
L 164.430978 184.53123 
L 164.187832 184.440377 
L 163.446762 184.036063 
L 163.934216 183.260674 
L 164.123847 183.339429 
L 164.206446 183.549942 
L 164.249491 183.808909 
L 164.32511 184.036063 
L 164.450755 184.167809 
L 164.771847 184.367693 
L 164.919595 184.53123 
L 164.997541 184.696277 
L 165.458238 186.021029 
L 165.602497 186.193604 
L 165.638561 186.161814 
L 166.120199 186.285944 
L 166.188838 186.320761 
L 166.650698 186.14819 
L 166.71701 185.780324 
L 166.545994 185.492677 
L 166.294705 185.557778 
L 166.228393 185.33825 
L 166.277255 185.177763 
L 166.407553 185.083892 
L 166.587876 185.050582 
L 166.720501 185.114173 
L 166.783323 185.267092 
L 166.832185 185.456342 
L 166.915948 185.621363 
L 167.040429 185.957448 
L 166.908967 186.255669 
L 166.672802 186.537225 
L 166.490152 186.829363 
L 166.580896 186.818767 
L 166.770526 186.838445 
L 166.861269 186.829363 
L 166.70654 187.460513 
L 166.685599 187.664828 
L 166.723991 187.805575 
L 166.804264 187.946318 
L 166.870576 188.118837 
L 166.861269 188.363987 
L 166.634917 188.902547 
L 166.179851 189.488618 
L 165.667163 189.961275 
L 164.740779 190.37626 
L 164.200019 190.894949 
L 163.354896 191.970603 
L 163.085994 192.421934 
L 162.919038 192.631263 
L 162.520116 192.82138 
L 160.732357 194.614708 
L 160.460499 194.797081 
L 158.985968 195.605213 
L 157.554283 196.869968 
L 157.192298 197.065702 
L 154.794337 197.739204 
L 153.692132 197.844731 
L 153.446869 197.948337 
L 153.220814 198.107581 
L 150.418021 200.982775 
L 150.084109 201.216714 
L 149.72508 201.354773 
L 149.345366 201.34902 
L 149.043958 201.207127 
L 148.461829 200.800602 
L 148.124962 200.714307 
L 147.684671 200.969352 
L 147.189712 201.093993 
L 145.320692 201.092076 
L 144.837553 201.233972 
L 144.454884 201.661556 
L 144.203712 201.885881 
L 143.905259 201.981743 
L 143.716141 202.13512 
L 143.147308 202.829094 
L 142.885793 203.00545 
L 142.727702 202.997782 
L 142.418907 202.903854 
L 142.247519 202.880851 
L 142.092383 202.91919 
L 141.802795 203.091708 
L 141.377279 203.239303 
L 141.148269 203.488481 
L 140.826177 204.007883 
L 139.418132 205.228571 
L 139.062057 205.791873 
L 139.053955 205.785838 
L 138.635064 205.473826 
L 137.501831 205.109772 
L 136.995053 204.778271 
L 136.206075 203.718481 
L 135.693387 203.264222 
L 135.032951 203.131962 
L 134.891112 203.181799 
L 134.57493 203.350476 
L 134.410929 203.386894 
L 134.241018 203.327475 
L 133.960295 203.064872 
L 133.821411 203.00545 
L 133.775609 202.969029 
L 133.700257 202.798423 
L 133.67514 202.752416 
L 133.587968 202.754333 
L 133.515572 202.798423 
L 133.471247 202.852098 
L 133.471247 202.880851 
L 133.359596 202.877895 
L 133.036866 202.86935 
L 132.219816 203.047621 
L 132.085364 203.229719 
L 131.9583 203.271889 
L 131.376171 203.317891 
L 131.139773 203.390728 
L 130.241461 204.04238 
L 130.143947 204.203365 
L 130.107009 204.475495 
L 129.886864 205.312879 
L 129.752413 205.538969 
L 129.773097 205.87234 
L 129.43032 206.65204 
L 129.354969 207.067707 
L 129.412591 207.314792 
L 129.498285 207.542714 
L 129.52488 207.770626 
L 129.408158 208.01768 
L 129.229382 208.220677 
L 128.932407 208.486858 
L 127.892257 209.07088 
L 127.25546 209.721845 
L 126.989512 209.915205 
L 126.683672 209.984123 
L 126.230084 209.989866 
L 125.919812 210.066441 
L 125.402691 210.414843 
L 125.104239 210.49524 
L 124.931373 210.594778 
L 124.820561 210.824473 
L 124.7393 211.080955 
L 124.659515 211.264695 
L 124.539839 211.396754 
L 124.443802 211.461825 
L 124.171945 211.519241 
L 123.84542 211.519241 
L 123.137704 211.264695 
L 123.020982 211.190051 
L 122.766855 210.847442 
L 122.601376 210.747909 
L 122.466925 210.759394 
L 122.356113 210.828302 
L 122.243824 210.920177 
L 122.104941 211.000566 
L 121.592253 211.071385 
L 120.968753 210.985254 
L 119.754259 210.633061 
L 119.251913 210.324873 
L 118.752523 209.788852 
L 118.363944 209.16853 
L 118.192555 208.597923 
L 117.967977 208.766431 
L 117.840914 208.888979 
L 117.706462 208.963655 
L 116.384111 209.114919 
L 116.172831 209.063221 
L 115.818234 208.770261 
L 115.536034 208.743453 
L 115.400105 208.65537 
L 115.157797 208.758772 
L 114.510658 209.735246 
L 114.113214 210.479927 
L 113.984673 210.633061 
L 113.820672 210.744081 
L 113.293209 211.000566 
L 113.154325 211.14603 
L 113.077496 211.264695 
L 112.972594 211.348907 
L 112.591403 211.402495 
L 112.378645 211.496274 
L 111.48181 211.68 
L 111.23507 211.645552 
L 110.876041 211.417806 
L 110.796256 211.379529 
L 110.70613 211.28192 
L 110.620435 210.847442 
L 110.508146 210.747909 
L 108.838586 210.747909 
L 108.770622 210.788106 
L 108.696747 210.874239 
L 108.597756 210.960372 
L 108.1486 211.046503 
L 107.628524 211.235986 
L 107.418721 211.264695 
L 107.270973 211.211104 
L 107.04935 211.038847 
L 106.877961 211.000566 
L 106.288444 211.128804 
L 106.124443 210.98334 
L 105.995901 210.648375 
L 105.953054 210.267445 
L 106.044658 209.989866 
L 105.948622 209.620376 
L 105.916117 209.20108 
L 105.836333 208.854512 
L 105.605845 208.712815 
L 105.475826 208.674518 
L 105.378312 208.578774 
L 105.28523 208.454305 
L 105.165554 208.333662 
L 105.028148 208.258977 
L 104.711965 208.15365 
L 104.571604 208.080878 
L 104.050051 207.671036 
L 103.751599 207.500578 
L 103.546228 207.517816 
L 103.269938 207.62124 
L 103.002513 207.441204 
L 102.873972 207.090692 
L 103.0099 206.676943 
L 102.76316 206.295729 
L 102.572564 206.175038 
L 102.033282 206.182701 
L 101.941677 206.150133 
L 101.536846 205.929816 
L 100.951761 205.791873 
L 100.762643 205.956637 
L 100.316442 206.676943 
L 100.063792 206.929793 
L 99.345733 207.096438 
L 99.08274 207.295639 
L 99.193552 207.701679 
L 99.020686 207.845318 
L 98.862595 208.092368 
L 98.742918 208.348982 
L 98.642449 208.730049 
L 98.499133 208.846853 
L 97.727885 209.105345 
L 97.711633 209.10343 
L 97.376243 209.344678 
L 97.141323 209.268093 
L 96.910835 209.151298 
L 96.754221 209.166615 
L 96.736491 209.484444 
L 96.573968 209.417433 
L 96.508958 209.314044 
L 96.472021 209.185762 
L 96.395192 209.045989 
L 96.268128 208.92153 
L 96.201641 208.911956 
L 96.145497 208.954081 
L 96.052415 208.988547 
L 96.04946 209.005779 
L 95.858864 209.10343 
L 95.79681 209.111089 
L 95.445168 209.090027 
L 95.312194 209.0345 
L 95.217635 208.915786 
L 95.192518 208.814301 
L 94.595613 208.835364 
L 88.632476 208.758772 
L 88.608836 208.597923 
L 88.608836 207.638477 
L 88.576331 207.368422 
L 88.505412 207.15007 
L 88.437448 206.983427 
L 88.404943 206.872328 
L 88.344366 206.736325 
L 88.209915 206.588826 
L 88.075463 206.39343 
L 87.952832 205.891499 
L 87.685407 205.607944 
L 87.62483 205.468078 
L 87.516973 205.086779 
L 87.249548 204.778271 
L 86.903816 204.546399 
L 86.286227 204.280023 
L 86.169505 204.260858 
L 86.063126 204.308769 
L 85.881395 204.511905 
L 85.786836 204.52532 
L 85.695232 204.383509 
L 85.37905 203.628398 
L 85.464744 203.570898 
L 85.587375 203.44823 
L 85.671592 203.386894 
L 85.671592 203.271889 
L 85.445537 203.107043 
L 85.259373 202.834845 
L 85.13231 202.47445 
L 85.086507 202.050763 
L 85.051048 201.883963 
L 84.962399 201.740167 
L 84.848632 201.638548 
L 84.590072 201.556101 
L 84.522107 201.43914 
L 84.477783 201.276157 
L 84.402431 201.093993 
L 83.72131 200.344184 
L 83.613453 200.018149 
L 83.572083 199.563585 
L 83.381488 198.802059 
L 83.319433 198.422217 
L 83.390353 197.954093 
L 83.675113 197.485945 
L 83.807004 197.269104 
L 84.069996 196.511106 
L 84.101024 196.319191 
L 84.101024 195.495805 
L 84.28571 194.334417 
L 84.231043 193.848676 
L 84.318214 193.691233 
L 84.492558 193.524185 
L 84.455621 193.284166 
L 84.369926 193.151671 
L 84.276845 193.06526 
L 84.216268 192.959644 
L 84.19115 192.87707 
L 84.101024 192.706158 
L 84.290142 192.314386 
L 84.278322 191.909142 
L 84.142393 191.534603 
L 83.835076 191.067836 
L 83.796661 190.958342 
L 83.808481 190.601031 
L 83.768589 190.383944 
L 83.718295 190.365118 
L 83.671075 190.347442 
L 83.546966 190.357048 
L 83.425812 190.284044 
L 83.310568 190.072709 
L 83.216009 189.828704 
L 83.149522 189.57124 
L 83.135454 189.424881 
L 83.125882 189.325292 
L 83.155432 189.087021 
L 83.288406 188.670024 
L 83.319433 188.493223 
L 83.258856 188.147294 
L 82.984044 187.557246 
L 82.920512 187.155519 
L 83.210099 185.125324 
L 83.214532 184.927267 
L 83.183504 184.696512 
L 83.063828 184.290746 
L 82.927899 183.30218 
L 82.453626 181.928691 
L 82.344292 181.293781 
L 82.373842 181.109068 
L 82.500905 180.745397 
L 82.530455 180.531803 
L 82.511248 180.329747 
L 82.344292 179.692748 
L 81.914343 178.9094 
L 81.75182 178.526351 
L 80.324567 176.246822 
L 80.308315 176.169796 
L 80.049755 175.848205 
L 79.984745 175.801986 
L 79.667086 175.378305 
L 79.584346 175.23001 
L 79.513427 174.877554 
L 79.477967 174.54434 
L 79.387841 174.297789 
L 78.960847 174.09746 
L 77.570532 172.201725 
L 77.156835 171.957011 
L 76.910095 171.60823 
L 76.802239 171.527295 
L 76.317623 170.767996 
L 76.11964 170.625376 
L 75.983711 170.417223 
L 75.964839 170.401178 
L 75.521258 170.024028 
L 75.024822 169.790798 
L 74.792857 170.058723 
L 74.618513 170.315072 
L 74.281646 170.675486 
L 74.068888 171.143802 
L 74.334836 171.97628 
L 74.308241 172.30192 
L 74.207772 172.864525 
L 74.197429 173.205532 
L 74.147195 173.448272 
L 74.028996 173.63899 
L 73.817715 173.818144 
L 73.817715 173.945282 
L 73.582795 174.274675 
L 73.415839 174.118649 
L 73.260703 173.748794 
L 72.916448 173.373139 
L 72.511617 173.06104 
L 72.176227 172.883791 
L 71.805378 172.569741 
L 71.440439 172.093821 
L 71.048905 171.779732 
L 70.590145 171.943523 
L 70.211909 172.219066 
L 69.848447 172.280725 
L 69.841261 172.279097 
L 69.465778 172.194017 
L 69.029919 172.016745 
L 68.545303 171.95123 
L 68.198094 172.138139 
L 67.861227 172.392479 
L 67.416503 172.531206 
L 66.822554 172.477257 
L 66.546264 172.367431 
L 66.326118 172.167041 
L 66.153991 171.818272 
L 65.907989 171.126457 
L 65.643519 170.804614 
L 64.839766 170.066433 
L 64.584161 169.950783 
L 64.457097 169.981623 
L 64.231042 170.17437 
L 64.10841 170.224484 
L 63.937022 170.203282 
L 63.640047 170.087635 
L 63.440586 170.089562 
L 63.346027 170.149313 
L 63.149521 170.359402 
L 63.019502 170.417223 
L 62.966313 170.376749 
L 62.547445 170.162806 
L 62.16256 170.05294 
L 62.032541 169.985478 
L 61.151959 169.104553 
L 60.436855 168.184949 
L 60.185683 167.996 
L 59.907915 168.011425 
L 59.636058 168.190733 
z
" clip-path="url(#p18ffa387e6)" style="stroke: #000000; stroke-linejoin: miter"/>
   </g>
   <g id="line2d_1">
    <path d="M 59.415912 168.493426 
L 59.195767 168.312198 
L 58.127544 167.789693 
L 57.35925 167.193871 
L 57.006131 167.178445 
L 56.879067 166.759987 
L 56.627894 166.341504 
L 56.447641 166.216146 
L 55.423743 166.104287 
L 53.463118 165.53339 
L 53.257747 165.124475 
L 52.823366 164.017193 
L 52.304768 163.56574 
L 51.72707 163.38052 
L 49.560336 163.378591 
L 49.272226 163.24739 
L 48.990765 162.975334 
L 48.169282 162.078051 
L 47.764451 162.155242 
L 47.481512 162.114717 
L 47.070032 161.805949 
L 46.705093 161.738404 
L 45.973737 162.222782 
L 45.36649 162.033667 
L 45.075425 161.300312 
L 45.076902 160.377718 
L 45.345805 159.621022 
L 43.215269 158.866176 
L 42.882834 158.902858 
L 42.102721 159.379712 
L 41.814611 159.377782 
L 41.572303 159.256158 
L 40.196763 157.885333 
L 39.866545 157.313756 
L 39.661913 155.341847 
L 39.376758 155.032782 
L 38.5996 154.642568 
L 38.067704 154.032093 
L 37.283159 153.852417 
L 37.006869 153.16652 
L 36.961067 153.191638 
L 36.822183 153.31723 
L 36.656705 153.363601 
L 35.502049 153.815709 
L 35.349129 153.666942 
L 34.911793 153.046723 
L 34.567538 153.046723 
L 33.669226 153.717175 
L 33.068628 153.711379 
L 32.437002 153.411905 
L 31.377644 152.480558 
L 30.410629 151.147095 
L 29.501236 149.444165 
L 28.786132 147.591956 
L 28.069551 144.129936 
L 27.02349 140.821195 
L 23.973957 134.619893 
L 23.589072 132.85138 
L 23.44945 131.615329 
L 22.944149 129.257034 
L 21.870016 126.240886 
L 21.01529 124.509428 
L 18.959367 121.373337 
L 17.842387 120.157011 
L 15.846302 118.824106 
L 13.924092 116.912694 
L 13.471981 116.291645 
L 13.148411 115.58127 
L 12.427398 113.053774 
L 11.051857 110.525625 
L 10.877514 109.787641 
L 10.6389 107.544229 
L 10.208212 105.440219 
L 10.171275 104.694097 
L 10.45643 103.50097 
L 11.526131 101.608014 
L 11.985629 100.548669 
L 12.12008 99.094576 
L 11.8497 97.513908 
L 10.460863 93.212132 
L 9.878733 90.16765 
L 8.766185 87.486314 
L 8.265398 85.836961 
L 7.99346 84.334326 
L 7.954306 82.755608 
L 8.237245 81.161123 
L 9.102313 78.055326 
L 9.238981 76.462237 
L 9.142944 75.472795 
L 12.489452 75.416309 
L 13.192736 75.634461 
L 13.841352 75.727953 
L 14.006092 75.560445 
L 14.200382 74.726773 
L 14.518041 74.415107 
L 14.574186 74.041099 
L 14.806151 73.854092 
L 15.478408 73.978764 
L 16.237836 73.50929 
L 16.750524 72.876159 
L 17.703503 72.120263 
L 17.883757 71.820231 
L 18.396444 70.390128 
L 19.370108 69.322334 
L 19.801534 68.630566 
L 20.396962 67.040358 
L 20.816568 65.296013 
L 21.567131 64.282453 
L 22.116756 63.03101 
L 22.478002 62.726907 
L 23.115537 63.001769 
L 23.11997 62.376012 
L 22.978131 61.767776 
L 23.094853 61.063989 
L 23.791488 59.490601 
L 23.840245 58.541041 
L 24.273887 58.088666 
L 24.364014 57.807876 
L 24.926198 57.729878 
L 24.972738 57.519282 
L 25.565211 57.226782 
L 25.751374 56.934279 
L 26.422153 56.522816 
L 26.797435 56.043089 
L 26.815903 55.539947 
L 26.284747 55.157707 
L 26.817381 54.408805 
L 27.52362 53.956329 
L 27.839063 53.823704 
L 27.974253 53.429727 
L 28.35249 53.677427 
L 28.749195 53.618915 
L 29.093449 53.308802 
L 29.301775 52.692461 
L 29.230856 52.218489 
L 29.55738 51.387548 
L 29.567723 50.913546 
L 29.284045 50.347849 
L 29.349793 49.996719 
L 28.786132 49.021326 
L 28.880691 48.720896 
L 29.461344 47.722033 
L 29.127432 47.718131 
L 28.125695 48.002968 
L 27.937316 47.928832 
L 27.434232 47.560103 
L 26.736858 47.562054 
L 26.597974 47.084062 
L 26.408856 46.978707 
L 25.364273 46.219748 
L 24.994901 46.502654 
L 24.643259 47.06065 
L 24.641419 47.053475 
L 24.457096 46.656787 
L 24.374356 46.506556 
L 24.439366 46.299742 
L 24.179328 46.20609 
L 23.604586 45.326132 
L 23.573558 45.000285 
L 24.05448 43.544648 
L 24.216265 43.004126 
L 25.038487 41.864502 
L 25.13083 41.507382 
L 23.710965 42.102579 
L 23.552135 41.899628 
L 23.724262 41.200997 
L 24.202968 40.537474 
L 25.115316 37.596292 
L 25.58885 36.809707 
L 25.865141 36.595003 
L 26.778966 36.741392 
L 26.939273 36.563773 
L 27.307168 35.886466 
L 27.645512 35.917696 
L 28.508365 36.440805 
L 28.941268 36.251472 
L 29.588407 35.765446 
L 29.796733 35.027608 
L 29.736156 33.735367 
L 29.860265 32.903774 
L 30.352268 30.801259 
L 30.079672 29.979345 
L 29.603921 29.520547 
L 29.336496 29.596688 
L 29.524875 28.497502 
L 29.482028 27.997682 
L 29.053557 27.90787 
L 29.211648 27.632575 
L 29.443614 27.392421 
L 29.33428 27.054642 
L 29.638642 26.160389 
L 29.474641 25.20363 
L 29.603182 24.510452 
L 29.448046 23.951994 
L 29.644552 21.975847 
L 29.540389 21.575529 
L 29.200567 21.747373 
L 28.976728 21.514992 
L 28.459607 20.015224 
L 28.138254 19.351247 
L 28.258669 19.019255 
L 28.204002 18.033028 
L 27.926235 17.810391 
L 27.645512 17.757661 
L 26.569902 17.189347 
L 26.204963 16.779219 
L 25.599193 16.365181 
L 25.571121 15.810521 
L 25.58885 15.515612 
L 25.455877 15.287104 
L 25.37166 14.90235 
L 25.024451 14.056662 
L 24.907729 13.451196 
L 24.672809 13.304711 
L 24.46596 13.394555 
L 24.316734 13.169945 
L 24.439366 12.837911 
L 24.392086 12.580095 
L 24.183761 12.390638 
L 24.181544 11.974613 
L 24.53688 11.464831 
L 24.820557 11.580069 
L 24.974955 11.734371 
L 26.445793 11.591788 
L 26.790047 11.734371 
L 27.689837 10.677688 
L 28.232074 10.451114 
L 28.76988 10.08 
L 29.502713 10.396424 
L 74.843091 10.396424 
L 74.871163 10.890589 
L 75.063237 11.056612 
L 75.593654 11.111301 
L 126.948143 48.994015 
L 127.166811 49.458308 
L 127.737121 54.059697 
L 127.477083 54.085051 
L 127.335244 54.246929 
L 127.305694 54.847618 
L 127.035314 54.874922 
L 126.376355 55.448288 
L 126.027668 56.130844 
L 126.012893 56.550117 
L 126.116317 56.688572 
L 126.351238 56.727573 
L 126.423635 56.875777 
L 126.293616 57.815676 
L 127.283532 57.798126 
L 127.855319 58.075017 
L 128.162637 58.607336 
L 128.554171 60.155458 
L 128.750676 60.494701 
L 149.395513 79.97341 
L 149.48742 80.502352 
L 149.409473 81.112525 
L 149.14306 81.435998 
L 148.75333 81.693544 
L 149.40831 81.989409 
L 149.426924 82.806453 
L 149.280339 83.433381 
L 148.640482 84.682548 
L 148.557883 84.406669 
L 148.655606 82.981199 
L 148.403154 83.951455 
L 148.184439 84.296315 
L 147.873818 84.267194 
L 148.160008 84.959954 
L 148.166988 86.218167 
L 148.069265 86.299387 
L 147.84706 86.20744 
L 147.670227 86.372944 
L 147.503864 86.995101 
L 147.709782 86.979777 
L 148.166988 86.733063 
L 148.177459 87.016554 
L 148.361272 87.643275 
L 148.303103 87.78118 
L 147.665574 88.567209 
L 147.38171 89.345528 
L 146.897746 90.3444 
L 147.00943 90.482274 
L 147.386364 89.958342 
L 147.472453 90.189672 
L 146.697645 92.963746 
L 146.348633 93.44313 
L 146.053135 93.695833 
L 146.071749 94.112398 
L 146.283484 94.297704 
L 146.303261 94.59633 
L 146.111304 95.343628 
L 145.699469 96.447642 
L 145.200381 97.438253 
L 144.732704 97.830186 
L 144.928151 97.946539 
L 144.833918 98.335393 
L 144.822284 99.21103 
L 143.770593 102.031884 
L 143.705444 103.427498 
L 143.476259 103.897253 
L 143.214499 105.806659 
L 143.455318 106.199819 
L 143.734528 107.218599 
L 144.273171 107.731011 
L 144.354607 108.556934 
L 144.219655 109.413376 
L 144.049803 109.687116 
L 144.15916 110.155057 
L 144.208022 111.208608 
L 144.543074 111.824785 
L 144.866492 112.072468 
L 145.303921 113.099827 
L 145.750658 113.459071 
L 145.815807 113.547734 
L 146.847721 113.734228 
L 146.83376 113.584422 
L 146.197394 113.150275 
L 146.904726 113.489645 
L 148.655606 115.727355 
L 148.997639 116.382979 
L 149.361775 116.713066 
L 149.514177 117.169973 
L 149.622371 117.87592 
L 149.835269 118.389303 
L 150.093538 118.639873 
L 150.323887 118.315964 
L 150.386709 118.859879 
L 150.327377 120.256189 
L 150.615894 120.61058 
L 150.519334 119.969 
L 150.988174 120.095792 
L 151.61407 120.494488 
L 152.226006 120.674736 
L 152.43774 120.774023 
L 153.063636 120.873309 
L 153.124131 121.131449 
L 153.387054 121.585084 
L 153.506882 122.139497 
L 154.236318 123.45132 
L 154.150229 123.747561 
L 154.040871 123.964391 
L 154.147902 125.656095 
L 153.933841 125.630141 
L 153.789582 125.868298 
L 153.597625 126.596469 
L 153.303291 126.75675 
L 153.200914 126.590363 
L 153.152052 126.271318 
L 152.421453 127.045248 
L 152.07942 128.214409 
L 151.685036 128.470809 
L 151.573352 128.528804 
L 151.60709 129.194184 
L 151.006788 129.238439 
L 151.384885 129.989216 
L 151.323226 130.66669 
L 151.044016 131.394456 
L 150.665919 131.849088 
L 150.499556 132.556921 
L 150.264554 135.006418 
L 150.470472 136.625799 
L 150.42161 136.89109 
L 150.637998 137.575625 
L 150.568195 137.904912 
L 149.931829 138.872879 
L 150.369258 138.746364 
L 150.681043 138.281443 
L 151.006788 137.05575 
L 151.398846 137.546659 
L 151.419786 137.814969 
L 151.192928 138.092417 
L 151.974716 138.05888 
L 152.614573 138.782947 
L 152.661108 139.046644 
L 152.33769 140.346709 
L 152.491255 141.000471 
L 152.568038 142.0671 
L 152.861209 141.800456 
L 152.815837 142.376395 
L 152.63784 142.905063 
L 152.177144 143.857186 
L 151.493079 146.051952 
L 151.304612 146.027586 
L 151.192928 146.051952 
L 151.292978 146.329109 
L 151.299959 147.329531 
L 151.095205 147.212289 
L 151.006788 147.713219 
L 150.655449 147.265581 
L 150.519334 147.212289 
L 150.639161 147.704084 
L 150.536784 147.866994 
L 150.323887 147.969001 
L 150.622874 148.93876 
L 150.70431 150.028637 
L 150.653122 151.638806 
L 151.130106 152.274863 
L 151.433747 153.187766 
L 151.493079 153.610706 
L 151.386048 155.536444 
L 151.971226 155.837579 
L 152.070113 156.11741 
L 152.598286 156.312069 
L 152.665761 156.938591 
L 152.948462 157.382598 
L 153.304455 157.647164 
L 153.426609 157.908679 
L 153.747701 158.863432 
L 154.236318 159.428925 
L 153.866365 159.488208 
L 153.55458 159.234352 
L 152.744871 158.240121 
L 152.226006 158.402795 
L 152.166673 158.456005 
L 151.876993 158.991128 
L 152.093381 159.097539 
L 152.956605 158.991128 
L 152.719277 159.489728 
L 152.829797 159.597652 
L 153.352153 159.729894 
L 153.456857 161.760339 
L 153.55458 161.930529 
L 153.402178 162.571742 
L 153.506882 163.012352 
L 153.44755 163.199223 
L 153.896613 162.991082 
L 154.45736 162.617324 
L 154.664441 162.863459 
L 155.524175 164.40996 
L 155.592814 164.98563 
L 155.356649 165.705528 
L 155.611428 166.361571 
L 155.513705 166.917335 
L 155.510214 167.760004 
L 155.126301 168.29288 
L 154.382904 168.611674 
L 154.431765 169.232519 
L 154.722609 169.112605 
L 155.018107 169.09439 
L 155.125137 168.810533 
L 155.623062 169.180911 
L 155.709152 169.903392 
L 156.051184 170.310132 
L 156.172175 170.67739 
L 156.49094 171.976288 
L 156.68406 172.152287 
L 156.571213 172.745489 
L 156.912082 173.320433 
L 156.86322 173.699656 
L 156.993518 174.060655 
L 156.283859 174.776527 
L 156.400197 174.84629 
L 157.074954 174.84629 
L 157.323917 175.674286 
L 157.670603 176.035174 
L 157.766 176.247451 
L 157.861396 176.776597 
L 157.757856 177.15713 
L 157.489116 177.33905 
L 157.074954 177.275378 
L 157.195946 177.527028 
L 157.617087 178.095478 
L 157.463522 178.22735 
L 156.523515 178.850298 
L 156.703838 179.321636 
L 156.571213 179.930837 
L 156.195443 180.336937 
L 156.563069 180.250567 
L 157.230847 179.209488 
L 158.14177 179.348915 
L 158.445411 179.741415 
L 159.035242 179.806577 
L 159.391235 180.15965 
L 160.25795 182.012576 
L 160.403372 183.642323 
L 160.62325 183.115278 
L 160.553447 182.504878 
L 160.455724 181.97319 
L 160.89897 182.003487 
L 162.512571 182.688156 
L 162.532349 183.131938 
L 162.392744 183.654439 
L 162.55329 184.139037 
L 162.265936 184.426749 
L 162.414848 184.587256 
L 162.559106 184.53123 
L 162.909283 184.749273 
L 163.101239 184.278352 
L 163.425821 184.51306 
L 163.934216 185.050582 
L 164.03194 184.53123 
L 164.229714 184.658423 
L 164.430978 184.53123 
L 164.187832 184.440377 
L 163.446762 184.036063 
L 163.934216 183.260674 
L 164.123847 183.339429 
L 164.450755 184.167809 
L 164.919595 184.53123 
L 164.997541 184.696277 
L 165.602497 186.193604 
L 165.638561 186.161814 
L 166.188838 186.320761 
L 166.650698 186.14819 
L 166.71701 185.780324 
L 166.545994 185.492677 
L 166.294705 185.557778 
L 166.277255 185.177763 
L 166.587876 185.050582 
L 166.783323 185.267092 
L 167.040429 185.957448 
L 166.672802 186.537225 
L 166.490152 186.829363 
L 166.580896 186.818767 
L 166.861269 186.829363 
L 166.723991 187.805575 
L 166.870576 188.118837 
L 166.861269 188.363987 
L 166.634917 188.902547 
L 166.179851 189.488618 
L 165.667163 189.961275 
L 164.740779 190.37626 
L 164.200019 190.894949 
L 162.919038 192.631263 
L 162.520116 192.82138 
L 160.460499 194.797081 
L 158.985968 195.605213 
L 157.192298 197.065702 
L 154.794337 197.739204 
L 153.446869 197.948337 
L 153.220814 198.107581 
L 150.084109 201.216714 
L 149.72508 201.354773 
L 149.345366 201.34902 
L 149.043958 201.207127 
L 148.461829 200.800602 
L 148.124962 200.714307 
L 147.684671 200.969352 
L 147.189712 201.093993 
L 145.320692 201.092076 
L 144.837553 201.233972 
L 144.203712 201.885881 
L 143.716141 202.13512 
L 142.885793 203.00545 
L 142.092383 202.91919 
L 141.148269 203.488481 
L 140.826177 204.007883 
L 139.418132 205.228571 
L 139.062057 205.791873 
L 139.053955 205.785838 
L 138.635064 205.473826 
L 137.501831 205.109772 
L 136.995053 204.778271 
L 136.206075 203.718481 
L 135.693387 203.264222 
L 134.891112 203.181799 
L 134.410929 203.386894 
L 134.241018 203.327475 
L 133.515572 202.798423 
L 133.359596 202.877895 
L 133.036866 202.86935 
L 132.219816 203.047621 
L 131.9583 203.271889 
L 131.139773 203.390728 
L 130.143947 204.203365 
L 129.886864 205.312879 
L 129.752413 205.538969 
L 129.773097 205.87234 
L 129.354969 207.067707 
L 129.52488 207.770626 
L 129.229382 208.220677 
L 128.932407 208.486858 
L 127.892257 209.07088 
L 126.989512 209.915205 
L 125.919812 210.066441 
L 125.104239 210.49524 
L 124.931373 210.594778 
L 124.443802 211.461825 
L 123.84542 211.519241 
L 123.020982 211.190051 
L 122.601376 210.747909 
L 122.356113 210.828302 
L 122.104941 211.000566 
L 121.592253 211.071385 
L 120.968753 210.985254 
L 119.754259 210.633061 
L 119.251913 210.324873 
L 118.752523 209.788852 
L 118.363944 209.16853 
L 118.192555 208.597923 
L 117.706462 208.963655 
L 116.172831 209.063221 
L 115.818234 208.770261 
L 115.157797 208.758772 
L 113.820672 210.744081 
L 113.154325 211.14603 
L 112.972594 211.348907 
L 112.378645 211.496274 
L 111.23507 211.645552 
L 110.70613 211.28192 
L 110.508146 210.747909 
L 108.770622 210.788106 
L 108.597756 210.960372 
L 107.270973 211.211104 
L 106.877961 211.000566 
L 106.288444 211.128804 
L 106.124443 210.98334 
L 105.953054 210.267445 
L 106.044658 209.989866 
L 105.605845 208.712815 
L 105.378312 208.578774 
L 105.028148 208.258977 
L 104.571604 208.080878 
L 103.751599 207.500578 
L 103.269938 207.62124 
L 103.002513 207.441204 
L 102.873972 207.090692 
L 103.0099 206.676943 
L 102.572564 206.175038 
L 101.941677 206.150133 
L 101.536846 205.929816 
L 100.951761 205.791873 
L 100.762643 205.956637 
L 100.063792 206.929793 
L 99.345733 207.096438 
L 99.08274 207.295639 
L 99.193552 207.701679 
L 98.862595 208.092368 
L 98.499133 208.846853 
L 97.711633 209.10343 
L 97.376243 209.344678 
L 96.754221 209.166615 
L 96.736491 209.484444 
L 96.508958 209.314044 
L 96.395192 209.045989 
L 96.145497 208.954081 
L 95.79681 209.111089 
L 95.312194 209.0345 
L 95.192518 208.814301 
L 94.595613 208.835364 
L 88.632476 208.758772 
L 88.608836 208.597923 
L 88.505412 207.15007 
L 88.209915 206.588826 
L 88.075463 206.39343 
L 87.952832 205.891499 
L 87.62483 205.468078 
L 87.516973 205.086779 
L 86.903816 204.546399 
L 86.169505 204.260858 
L 85.695232 204.383509 
L 85.464744 203.570898 
L 85.671592 203.271889 
L 85.259373 202.834845 
L 85.086507 202.050763 
L 84.962399 201.740167 
L 84.402431 201.093993 
L 83.72131 200.344184 
L 83.572083 199.563585 
L 83.319433 198.422217 
L 83.390353 197.954093 
L 83.807004 197.269104 
L 84.101024 196.319191 
L 84.101024 195.495805 
L 84.28571 194.334417 
L 84.318214 193.691233 
L 84.492558 193.524185 
L 84.369926 193.151671 
L 84.19115 192.87707 
L 84.101024 192.706158 
L 84.290142 192.314386 
L 84.278322 191.909142 
L 84.142393 191.534603 
L 83.796661 190.958342 
L 83.718295 190.365118 
L 83.425812 190.284044 
L 83.149522 189.57124 
L 83.155432 189.087021 
L 83.319433 188.493223 
L 83.258856 188.147294 
L 82.984044 187.557246 
L 82.920512 187.155519 
L 83.183504 184.696512 
L 83.063828 184.290746 
L 82.927899 183.30218 
L 82.344292 181.293781 
L 82.511248 180.329747 
L 82.344292 179.692748 
L 81.75182 178.526351 
L 79.513427 174.877554 
L 79.387841 174.297789 
L 78.960847 174.09746 
L 77.570532 172.201725 
L 77.156835 171.957011 
L 75.964839 170.401178 
L 75.521258 170.024028 
L 75.024822 169.790798 
L 74.281646 170.675486 
L 74.068888 171.143802 
L 74.334836 171.97628 
L 74.147195 173.448272 
L 73.582795 174.274675 
L 73.415839 174.118649 
L 73.260703 173.748794 
L 72.511617 173.06104 
L 71.805378 172.569741 
L 71.440439 172.093821 
L 71.048905 171.779732 
L 70.590145 171.943523 
L 70.211909 172.219066 
L 69.841261 172.279097 
L 68.545303 171.95123 
L 67.416503 172.531206 
L 66.546264 172.367431 
L 66.326118 172.167041 
L 65.643519 170.804614 
L 64.584161 169.950783 
L 64.457097 169.981623 
L 64.10841 170.224484 
L 63.346027 170.149313 
L 63.019502 170.417223 
L 62.547445 170.162806 
L 62.032541 169.985478 
L 61.151959 169.104553 
L 60.185683 167.996 
L 59.907915 168.011425 
L 59.636058 168.190733 
L 59.415912 168.493426 
L 59.415912 168.493426 
" clip-path="url(#p18ffa387e6)" style="fill: none; stroke: #000000; stroke-width: 0.5; stroke-linecap: square"/>
   </g>
  </g>
 </g>
 <defs>
  <clipPath id="p18ffa387e6">
   <rect x="0" y="-0" width="174.994735" height="221.76"/>
  </clipPath>
 </defs>
</svg>
