<?xml version="1.0" encoding="utf-8" standalone="no"?>
<!DOCTYPE svg PUBLIC "-//W3C//DTD SVG 1.1//EN"
  "http://www.w3.org/Graphics/SVG/1.1/DTD/svg11.dtd">
<svg xmlns:xlink="http://www.w3.org/1999/xlink" width="216.607549pt" height="221.76pt" viewBox="0 0 216.607549 221.76" xmlns="http://www.w3.org/2000/svg" version="1.1">
 <metadata>
  <rdf:RDF xmlns:dc="http://purl.org/dc/elements/1.1/" xmlns:cc="http://creativecommons.org/ns#" xmlns:rdf="http://www.w3.org/1999/02/22-rdf-syntax-ns#">
   <cc:Work>
    <dc:type rdf:resource="http://purl.org/dc/dcmitype/StillImage"/>
    <dc:date>2026-04-26T19:21:54.086637</dc:date>
    <dc:format>image/svg+xml</dc:format>
    <dc:creator>
     <cc:Agent>
      <dc:title>Matplotlib v3.10.9, https://matplotlib.org/</dc:title>
     </cc:Agent>
    </dc:creator>
   </cc:Work>
  </rdf:RDF>
 </metadata>
 <defs>
  <style type="text/css">*{stroke-linejoin: round; stroke-linecap: butt}</style>
 </defs>
 <g id="figure_1">
  <g id="patch_1">
   <path d="M 0 221.76 
L 216.607549 221.76 
L 216.607549 0 
L 0 0 
z
" style="fill: #ffffff"/>
  </g>
  <g id="axes_1">
   <g id="patch_2">
    <path d="M 40.761239 14.050362 
L 41.350692 14.623679 
L 42.066832 16.838991 
L 43.229842 17.604887 
L 44.15414 17.701161 
L 45.771661 17.412332 
L 46.661583 17.394826 
L 47.154287 17.648648 
L 47.708102 18.506279 
L 48.282923 18.650659 
L 48.647677 18.471277 
L 49.489857 17.723042 
L 49.961555 17.499858 
L 50.683423 17.530492 
L 51.147482 17.832441 
L 51.544701 18.191251 
L 52.081328 18.405648 
L 52.371603 18.296263 
L 52.829932 17.744922 
L 53.045729 17.63552 
L 53.337914 17.784306 
L 53.796243 18.283137 
L 53.981485 18.405648 
L 55.18078 18.151871 
L 56.248305 17.311674 
L 56.983542 16.116733 
L 57.185971 14.785707 
L 57.462878 13.703942 
L 58.249677 12.332727 
L 59.258001 11.110091 
L 60.188028 10.470149 
L 60.552782 10.500833 
L 61.244095 10.82958 
L 61.637495 10.833963 
L 62.361273 10.456998 
L 62.620993 10.36056 
L 63.976884 10.106303 
L 64.71785 10.08 
L 66.497695 10.575351 
L 67.870774 10.338642 
L 69.272497 10.299189 
L 70.607382 11.224043 
L 71.292966 12.372161 
L 71.648171 12.814674 
L 73.947457 14.382815 
L 75.094235 14.930214 
L 75.719664 15.354947 
L 76.275388 15.889087 
L 76.615315 16.462557 
L 76.737537 17.320427 
L 76.621045 17.762426 
L 76.661148 18.038104 
L 77.250293 18.405648 
L 77.627459 18.501904 
L 77.98171 18.493153 
L 78.343599 18.541281 
L 78.742727 18.790659 
L 78.942292 19.026899 
L 79.268851 19.556203 
L 80.637155 21.11311 
L 81.097394 21.480386 
L 81.716139 22.044356 
L 83.685046 23.290068 
L 84.299971 23.91497 
L 85.193713 25.409116 
L 85.72843 26.121052 
L 86.223044 26.549028 
L 87.925547 27.496535 
L 90.090198 29.303628 
L 91.304771 29.905818 
L 92.043827 30.603902 
L 93.210657 31.982274 
L 93.420725 32.444537 
L 93.519074 32.889308 
L 93.680445 33.299153 
L 94.092941 33.643566 
L 94.807171 34.101286 
L 95.126092 34.402046 
L 95.371489 34.755084 
L 96.596565 37.107905 
L 97.152289 37.791716 
L 99.572841 39.724938 
L 100.165805 40.887049 
L 100.398888 42.139171 
L 100.400698 42.148895 
L 100.398428 42.164518 
L 100.219276 43.397307 
L 99.572841 44.54099 
L 99.41911 45.453968 
L 99.388555 48.209059 
L 99.165119 50.128704 
L 99.172758 51.036095 
L 99.363635 51.336395 
L 99.572841 51.665506 
L 99.627636 51.657645 
L 100.541062 51.52661 
L 102.973072 51.678527 
L 104.124624 51.448479 
L 105.008818 51.439797 
L 105.365933 51.348642 
L 105.661937 51.127257 
L 105.826172 50.901519 
L 105.964626 50.658402 
L 106.183287 50.38922 
L 106.765363 50.007859 
L 106.772977 50.00287 
L 108.191342 49.073445 
L 108.728925 48.569604 
L 109.027793 47.917994 
L 109.420238 46.475393 
L 109.900529 45.919074 
L 110.608075 45.836489 
L 111.511366 46.019043 
L 112.342088 46.084239 
L 112.825243 45.64958 
L 112.887308 44.849686 
L 112.757448 43.114599 
L 112.938871 42.366416 
L 113.516556 41.805189 
L 114.297626 41.626798 
L 115.074876 41.835645 
L 116.109937 43.018909 
L 117.454369 43.78002 
L 118.052107 44.267057 
L 118.873281 45.258347 
L 120.592016 46.766561 
L 123.326714 49.785666 
L 123.87098 50.580254 
L 124.071499 51.270508 
L 124.199449 52.772165 
L 124.45535 53.492416 
L 124.865937 53.882861 
L 126.093877 54.667974 
L 126.517832 55.314169 
L 127.016265 57.057081 
L 127.33996 57.815576 
L 127.917646 58.482935 
L 128.538301 58.855567 
L 129.989677 59.401456 
L 130.679081 59.817321 
L 132.430281 61.372103 
L 133.161698 61.822402 
L 133.723151 61.926309 
L 134.203442 61.666535 
L 134.689462 61.008364 
L 135.382685 59.657044 
L 135.862021 59.496762 
L 136.52278 60.29378 
L 137.119563 61.298492 
L 138.069641 62.51507 
L 139.135257 63.553849 
L 140.632466 64.241891 
L 141.09366 64.709174 
L 141.524299 65.258594 
L 141.996951 65.730083 
L 142.494429 66.041496 
L 143.607787 66.469648 
L 149.729349 67.325814 
L 151.002167 67.321491 
L 151.561711 67.494432 
L 152.042957 67.965657 
L 152.696076 69.279608 
L 153.120031 69.841363 
L 155.067931 71.362025 
L 155.608377 71.919167 
L 156.047609 72.683491 
L 156.202296 73.417449 
L 156.261497 75.113668 
L 156.63648 76.037897 
L 156.765659 76.356237 
L 157.772074 77.29222 
L 158.984737 78.141746 
L 160.100005 79.1549 
L 161.228641 80.422054 
L 163.768549 82.6752 
L 165.817663 84.061771 
L 167.635703 85.697466 
L 168.49698 86.278403 
L 168.911386 86.239677 
L 169.264682 85.805053 
L 169.936898 85.198221 
L 170.633941 84.957183 
L 171.359629 85.030357 
L 172.06431 85.331646 
L 172.696423 85.787839 
L 172.917949 86.067554 
L 173.248328 86.682857 
L 173.580616 86.971112 
L 173.943461 87.104476 
L 175.159943 87.220629 
L 175.795875 87.405605 
L 176.328683 87.637889 
L 177.38284 88.334657 
L 177.814434 88.7862 
L 177.976759 89.211892 
L 178.068425 89.633238 
L 178.284221 90.080331 
L 178.666162 90.505882 
L 179.147408 90.909896 
L 180.169101 91.543771 
L 182.334707 91.986348 
L 182.871334 92.317173 
L 183.09095 92.888532 
L 183.140603 94.353061 
L 184.19667 96.778405 
L 186.07582 99.433803 
L 186.520782 100.59148 
L 186.769043 102.001659 
L 186.885535 104.088116 
L 187.063138 104.790486 
L 187.399246 105.334305 
L 188.340731 106.126345 
L 188.724582 106.627172 
L 189.350965 107.697094 
L 190.114847 108.681157 
L 190.989493 109.536657 
L 193.317424 111.110273 
L 195.498307 113.422475 
L 197.587525 114.088947 
L 199.17831 115.015831 
L 199.804694 115.199473 
L 200.99444 115.208014 
L 202.220471 115.921139 
L 203.412127 116.44202 
L 203.97931 116.834767 
L 206.431372 119.339703 
L 206.761751 119.958211 
L 206.643349 120.708816 
L 206.169742 121.297253 
L 204.831039 122.282039 
L 204.10098 123.155566 
L 203.324281 124.084676 
L 200.849303 125.788497 
L 199.814242 126.831702 
L 199.512509 127.57667 
L 199.417023 129.108706 
L 199.168762 129.861725 
L 198.761994 130.312612 
L 194.260818 133.127289 
L 192.996593 134.164182 
L 191.953894 135.476879 
L 191.951984 135.481126 
L 191.950074 135.485374 
L 191.616621 136.535381 
L 191.018138 138.419185 
L 191.044874 141.448186 
L 191.862228 147.608728 
L 191.020048 154.358892 
L 190.915014 158.012068 
L 191.953894 159.687482 
L 192.710137 159.687482 
L 193.370895 159.569343 
L 193.980092 159.573562 
L 194.581649 159.965939 
L 194.936854 160.632458 
L 195.202303 161.34946 
L 195.658723 161.809109 
L 196.848245 161.743651 
L 196.210507 162.147856 
L 195.529329 162.712197 
L 194.194038 164.225517 
L 193.376023 165.572361 
L 192.912882 166.988317 
L 192.176066 170.368406 
L 191.469325 172.404838 
L 191.273843 174.264744 
L 190.921976 174.847003 
L 189.628789 175.670602 
L 189.009263 176.1898 
L 187.207824 178.308785 
L 185.225941 179.693199 
L 184.582355 180.386852 
L 183.265109 182.764042 
L 182.920761 183.179883 
L 182.835049 183.618773 
L 182.036582 185.950886 
L 182.63656 187.427848 
L 182.591449 188.152911 
L 181.080226 188.581286 
L 177.6608 190.3206 
L 174.928568 192.072202 
L 169.297192 197.052139 
L 168.847584 197.597715 
L 168.694206 198.287776 
L 168.710747 198.908713 
L 168.510754 199.358739 
L 165.151477 200.041876 
L 164.306394 200.100987 
L 164.456765 199.759442 
L 164.68232 199.496691 
L 165.316884 198.977699 
L 165.058247 198.774022 
L 164.823669 198.524337 
L 164.646232 198.218777 
L 164.559017 197.873756 
L 164.619165 197.37095 
L 164.993587 196.388127 
L 165.085313 196.217173 
L 164.542476 195.723987 
L 163.542512 195.335964 
L 162.485407 195.102471 
L 161.759118 195.086027 
L 162.17414 195.362272 
L 163.550031 195.914694 
L 163.253801 196.421002 
L 162.652319 196.97654 
L 161.962118 197.413675 
L 161.393717 197.597715 
L 161.166658 197.867184 
L 161.160643 198.415915 
L 161.434317 198.839725 
L 162.034296 198.751025 
L 161.981666 198.435629 
L 162.532022 198.54405 
L 163.214704 199.063108 
L 163.550031 199.953207 
L 163.256808 200.465483 
L 162.577133 200.977683 
L 154.287207 204.9774 
L 153.87068 205.174147 
L 151.576026 205.764319 
L 150.382084 206.665772 
L 149.627224 206.980404 
L 148.054349 207.416252 
L 141.651572 210.184047 
L 140.87566 210.305188 
L 140.135837 210.547458 
L 139.190006 211.539271 
L 138.47725 211.68 
L 138.648673 211.274162 
L 138.728369 211.018851 
L 138.729873 210.85518 
L 138.343421 210.321558 
L 137.84419 209.872988 
L 137.185567 209.571725 
L 135.72547 209.401434 
L 135.636751 209.244234 
L 135.671336 208.98877 
L 135.427736 208.631742 
L 135.053314 208.379506 
L 134.716484 208.235363 
L 133.912001 208.081386 
L 132.151163 208.160013 
L 128.752789 208.877407 
L 127.330284 208.631742 
L 126.360394 207.770133 
L 124.446177 205.456131 
L 123.017657 204.757686 
L 122.094382 204.698656 
L 119.645098 204.514116 
L 118.113968 204.661708 
L 116.209407 204.209109 
L 114.70824 203.587582 
L 113.047614 203.937683 
L 111.32119 203.278238 
L 108.990977 204.000819 
L 107.677306 203.656885 
L 105.211085 204.419752 
L 104.090794 204.839432 
L 101.676517 206.286877 
L 99.842796 207.482939 
L 97.419184 208.767181 
L 96.104918 208.663077 
L 94.980217 209.243148 
L 94.453274 209.545527 
L 94.224277 210.384256 
L 93.440774 209.383829 
L 92.804405 209.270512 
L 92.121043 209.036469 
L 92.429286 208.674325 
L 92.473852 208.22377 
L 92.062376 207.905137 
L 91.472507 207.831143 
L 91.252347 208.440405 
L 90.519581 208.975668 
L 90.169002 208.979033 
L 89.35036 208.867267 
L 88.489579 208.975668 
L 87.325711 208.081386 
L 85.101731 206.905026 
L 84.528819 206.433056 
L 84.443108 205.836444 
L 85.071906 205.346188 
L 85.696558 204.774773 
L 86.641349 204.563842 
L 86.093007 204.003354 
L 85.367998 203.727276 
L 83.420699 203.017442 
L 82.066085 202.82703 
L 80.759478 202.878277 
L 79.966578 203.370206 
L 79.371111 203.291466 
L 78.795191 203.045394 
L 77.41479 202.257843 
L 76.765189 201.982157 
L 76.106183 201.58056 
L 73.623453 200.951098 
L 70.602563 200.606355 
L 67.697847 199.463846 
L 67.076817 199.056538 
L 66.579091 198.064343 
L 66.003171 197.568138 
L 64.779155 196.769456 
L 63.903064 195.864443 
L 63.132925 195.178461 
L 62.454043 194.69441 
L 61.45886 194.129876 
L 60.915314 193.685278 
L 60.971774 193.131949 
L 60.731181 192.852234 
L 60.191351 192.513255 
L 59.964291 192.328941 
L 59.26958 191.611341 
L 58.601935 191.091151 
L 57.421628 190.603431 
L 55.528278 190.244944 
L 52.240741 190.174493 
L 50.216223 190.301028 
L 49.541488 189.77413 
L 47.833117 189.817244 
L 46.88908 190.3462 
L 46.43984 189.818557 
L 45.496278 189.737737 
L 44.462556 190.184604 
L 43.15884 190.711936 
L 41.992474 189.6148 
L 41.049315 189.573068 
L 39.970958 189.774598 
L 38.487356 190.38109 
L 36.41874 191.10682 
L 35.744854 191.023654 
L 34.799565 191.548661 
L 33.720949 191.463793 
L 32.641584 191.58159 
L 31.427809 191.414048 
L 31.788841 191.090874 
L 31.476091 190.479988 
L 30.442401 190.190338 
L 29.770905 189.210848 
L 29.866628 187.583684 
L 28.936839 186.666368 
L 28.198519 185.555164 
L 25.457265 182.58911 
L 24.242271 182.057658 
L 23.813715 181.436978 
L 23.237796 180.109407 
L 22.586692 179.534631 
L 21.670935 179.184433 
L 20.690519 179.019233 
L 19.833408 178.972976 
L 18.83194 178.78794 
L 18.368799 178.308785 
L 17.940243 176.781658 
L 17.514694 175.918636 
L 14.385484 171.759268 
L 13.708816 171.222858 
L 12.319393 170.451211 
L 11.713399 169.951041 
L 11.200636 169.165863 
L 10.929969 168.330798 
L 10.020227 163.548585 
L 9.845798 160.022478 
L 10.348035 156.526139 
L 10.227739 155.674803 
L 10.00519 154.869839 
L 9.88339 154.014782 
L 10.072857 153.046361 
L 10.576598 152.247467 
L 11.841214 150.695775 
L 12.092333 149.809747 
L 11.859259 149.010137 
L 10.835236 148.21035 
L 10.600658 147.40372 
L 10.835236 146.656927 
L 11.403636 146.000022 
L 12.734415 144.775929 
L 13.120868 143.955189 
L 13.176505 143.014113 
L 12.555474 139.454521 
L 12.522393 137.716878 
L 13.096808 136.399731 
L 14.615551 135.871402 
L 18.050013 136.065354 
L 19.636422 135.938283 
L 20.99126 135.309552 
L 22.380684 134.095261 
L 22.988181 133.35244 
L 23.237796 132.659675 
L 23.299448 131.705655 
L 23.47087 130.965702 
L 24.019723 129.415003 
L 24.29039 127.763115 
L 23.971604 126.529583 
L 23.228774 125.543805 
L 21.630335 123.953939 
L 21.249898 123.269484 
L 21.051409 122.514426 
L 20.99126 121.651795 
L 21.061935 119.791595 
L 20.994268 118.85107 
L 20.717586 118.132082 
L 20.99126 117.822942 
L 20.67849 116.76092 
L 20.272489 113.875818 
L 19.833408 113.283729 
L 19.537178 112.630979 
L 18.786829 109.520458 
L 18.686834 108.584228 
L 18.701584 108.484365 
L 19.062518 108.035127 
L 19.986816 106.194838 
L 22.328115 102.9572 
L 22.515266 101.697379 
L 22.131415 100.488589 
L 19.606784 97.263291 
L 19.188559 96.383586 
L 19.398626 95.533728 
L 20.214071 94.250004 
L 20.601741 92.643675 
L 20.712504 90.772364 
L 20.575005 88.996902 
L 20.214071 87.693807 
L 19.04915 86.420397 
L 18.59464 85.581268 
L 18.839083 84.72474 
L 19.851227 83.618294 
L 20.433687 83.200604 
L 21.247221 82.860391 
L 22.998421 82.524456 
L 23.892164 82.179877 
L 24.276014 81.581099 
L 26.502731 75.143874 
L 26.83693 73.305205 
L 26.569571 71.43977 
L 25.589892 70.247506 
L 24.641979 69.537532 
L 24.205355 69.210464 
L 23.302065 68.13857 
L 23.769943 66.845865 
L 24.472714 66.275039 
L 25.86298 65.453252 
L 26.44353 64.964426 
L 26.802555 64.176987 
L 26.985887 62.276979 
L 27.325814 61.415403 
L 27.579805 61.138275 
L 28.189001 60.670577 
L 28.462089 60.397728 
L 29.229791 58.81224 
L 29.588815 58.331272 
L 29.592635 57.243467 
L 29.344373 55.379217 
L 29.814161 53.527124 
L 30.748007 52.125565 
L 31.431681 50.693134 
L 31.133767 48.730319 
L 29.575448 46.484085 
L 29.344373 46.001657 
L 29.630829 45.258347 
L 30.320233 44.801861 
L 31.89192 44.397503 
L 32.747468 44.49751 
L 33.205798 44.327932 
L 33.404407 43.693043 
L 33.616385 42.679625 
L 33.658398 42.240255 
L 33.620204 40.482306 
L 33.495706 39.440137 
L 33.404407 38.675711 
L 33.153426 37.580915 
L 32.812398 36.09287 
L 32.504936 35.151672 
L 31.679943 33.390709 
L 31.133767 32.575357 
L 30.303045 30.939813 
L 30.155998 29.290536 
L 30.623876 27.771578 
L 31.639839 26.522827 
L 38.915818 19.919241 
L 39.715984 18.563157 
L 39.987162 16.913398 
L 39.461993 15.09223 
L 39.29511 14.159488 
z
" clip-path="url(#p30fa1bc4eb)" style="stroke: #000000; stroke-linejoin: miter"/>
   </g>
   <g id="line2d_1">
    <path d="M 40.761239 14.050362 
L 41.350692 14.623679 
L 42.066832 16.838991 
L 43.229842 17.604887 
L 44.15414 17.701161 
L 45.771661 17.412332 
L 46.661583 17.394826 
L 47.154287 17.648648 
L 47.708102 18.506279 
L 48.282923 18.650659 
L 48.647677 18.471277 
L 49.489857 17.723042 
L 49.961555 17.499858 
L 50.683423 17.530492 
L 52.081328 18.405648 
L 52.371603 18.296263 
L 53.045729 17.63552 
L 53.337914 17.784306 
L 53.981485 18.405648 
L 55.18078 18.151871 
L 56.248305 17.311674 
L 56.983542 16.116733 
L 57.462878 13.703942 
L 58.249677 12.332727 
L 59.258001 11.110091 
L 60.188028 10.470149 
L 60.552782 10.500833 
L 61.244095 10.82958 
L 61.637495 10.833963 
L 62.620993 10.36056 
L 64.71785 10.08 
L 66.497695 10.575351 
L 67.870774 10.338642 
L 69.272497 10.299189 
L 70.607382 11.224043 
L 71.648171 12.814674 
L 73.947457 14.382815 
L 75.094235 14.930214 
L 75.719664 15.354947 
L 76.275388 15.889087 
L 76.615315 16.462557 
L 76.737537 17.320427 
L 76.661148 18.038104 
L 77.250293 18.405648 
L 77.98171 18.493153 
L 78.343599 18.541281 
L 78.942292 19.026899 
L 79.268851 19.556203 
L 81.097394 21.480386 
L 81.716139 22.044356 
L 83.685046 23.290068 
L 84.299971 23.91497 
L 85.72843 26.121052 
L 86.223044 26.549028 
L 87.925547 27.496535 
L 90.090198 29.303628 
L 91.304771 29.905818 
L 92.043827 30.603902 
L 93.210657 31.982274 
L 93.519074 32.889308 
L 93.680445 33.299153 
L 95.371489 34.755084 
L 96.596565 37.107905 
L 97.152289 37.791716 
L 99.572841 39.724938 
L 100.165805 40.887049 
L 100.398428 42.164518 
L 100.219276 43.397307 
L 99.572841 44.54099 
L 99.41911 45.453968 
L 99.388555 48.209059 
L 99.165119 50.128704 
L 99.172758 51.036095 
L 99.627636 51.657645 
L 100.541062 51.52661 
L 102.973072 51.678527 
L 104.124624 51.448479 
L 105.365933 51.348642 
L 105.826172 50.901519 
L 106.183287 50.38922 
L 108.191342 49.073445 
L 108.728925 48.569604 
L 109.027793 47.917994 
L 109.420238 46.475393 
L 109.900529 45.919074 
L 110.608075 45.836489 
L 112.342088 46.084239 
L 112.825243 45.64958 
L 112.887308 44.849686 
L 112.757448 43.114599 
L 112.938871 42.366416 
L 113.516556 41.805189 
L 114.297626 41.626798 
L 115.074876 41.835645 
L 116.109937 43.018909 
L 117.454369 43.78002 
L 118.052107 44.267057 
L 118.873281 45.258347 
L 120.592016 46.766561 
L 123.326714 49.785666 
L 123.87098 50.580254 
L 124.071499 51.270508 
L 124.199449 52.772165 
L 124.45535 53.492416 
L 124.865937 53.882861 
L 126.093877 54.667974 
L 126.517832 55.314169 
L 127.33996 57.815576 
L 127.917646 58.482935 
L 128.538301 58.855567 
L 129.989677 59.401456 
L 130.679081 59.817321 
L 132.430281 61.372103 
L 133.161698 61.822402 
L 133.723151 61.926309 
L 134.203442 61.666535 
L 134.689462 61.008364 
L 135.382685 59.657044 
L 135.862021 59.496762 
L 136.52278 60.29378 
L 137.119563 61.298492 
L 138.069641 62.51507 
L 139.135257 63.553849 
L 140.632466 64.241891 
L 142.494429 66.041496 
L 143.607787 66.469648 
L 149.729349 67.325814 
L 151.002167 67.321491 
L 151.561711 67.494432 
L 152.042957 67.965657 
L 152.696076 69.279608 
L 153.120031 69.841363 
L 155.608377 71.919167 
L 156.047609 72.683491 
L 156.202296 73.417449 
L 156.261497 75.113668 
L 156.765659 76.356237 
L 157.772074 77.29222 
L 158.984737 78.141746 
L 160.100005 79.1549 
L 161.228641 80.422054 
L 163.768549 82.6752 
L 165.817663 84.061771 
L 167.635703 85.697466 
L 168.49698 86.278403 
L 168.911386 86.239677 
L 169.264682 85.805053 
L 169.936898 85.198221 
L 170.633941 84.957183 
L 171.359629 85.030357 
L 172.06431 85.331646 
L 172.917949 86.067554 
L 173.248328 86.682857 
L 173.580616 86.971112 
L 173.943461 87.104476 
L 175.159943 87.220629 
L 176.328683 87.637889 
L 177.38284 88.334657 
L 177.814434 88.7862 
L 178.284221 90.080331 
L 179.147408 90.909896 
L 180.169101 91.543771 
L 182.334707 91.986348 
L 182.871334 92.317173 
L 183.09095 92.888532 
L 183.140603 94.353061 
L 184.19667 96.778405 
L 186.07582 99.433803 
L 186.520782 100.59148 
L 186.769043 102.001659 
L 186.885535 104.088116 
L 187.063138 104.790486 
L 187.399246 105.334305 
L 188.340731 106.126345 
L 188.724582 106.627172 
L 189.350965 107.697094 
L 190.114847 108.681157 
L 190.989493 109.536657 
L 193.317424 111.110273 
L 195.498307 113.422475 
L 197.587525 114.088947 
L 199.17831 115.015831 
L 199.804694 115.199473 
L 200.99444 115.208014 
L 202.220471 115.921139 
L 203.412127 116.44202 
L 203.97931 116.834767 
L 206.431372 119.339703 
L 206.761751 119.958211 
L 206.643349 120.708816 
L 206.169742 121.297253 
L 204.831039 122.282039 
L 203.324281 124.084676 
L 200.849303 125.788497 
L 199.814242 126.831702 
L 199.512509 127.57667 
L 199.417023 129.108706 
L 199.168762 129.861725 
L 198.761994 130.312612 
L 194.260818 133.127289 
L 192.996593 134.164182 
L 191.950074 135.485374 
L 191.018138 138.419185 
L 191.044874 141.448186 
L 191.862228 147.608728 
L 191.020048 154.358892 
L 190.915014 158.012068 
L 191.953894 159.687482 
L 192.710137 159.687482 
L 193.370895 159.569343 
L 193.980092 159.573562 
L 194.581649 159.965939 
L 195.658723 161.809109 
L 196.848245 161.743651 
L 196.210507 162.147856 
L 195.529329 162.712197 
L 194.194038 164.225517 
L 193.376023 165.572361 
L 192.912882 166.988317 
L 192.176066 170.368406 
L 191.469325 172.404838 
L 191.273843 174.264744 
L 190.921976 174.847003 
L 189.009263 176.1898 
L 187.207824 178.308785 
L 185.225941 179.693199 
L 184.582355 180.386852 
L 182.835049 183.618773 
L 182.036582 185.950886 
L 182.63656 187.427848 
L 182.591449 188.152911 
L 181.080226 188.581286 
L 177.6608 190.3206 
L 174.928568 192.072202 
L 168.847584 197.597715 
L 168.694206 198.287776 
L 168.710747 198.908713 
L 168.510754 199.358739 
L 164.306394 200.100987 
L 164.68232 199.496691 
L 165.316884 198.977699 
L 164.823669 198.524337 
L 164.559017 197.873756 
L 164.619165 197.37095 
L 165.085313 196.217173 
L 164.542476 195.723987 
L 163.542512 195.335964 
L 162.485407 195.102471 
L 161.759118 195.086027 
L 162.17414 195.362272 
L 163.550031 195.914694 
L 163.253801 196.421002 
L 162.652319 196.97654 
L 161.962118 197.413675 
L 161.393717 197.597715 
L 161.166658 197.867184 
L 161.160643 198.415915 
L 161.434317 198.839725 
L 162.034296 198.751025 
L 161.981666 198.435629 
L 162.532022 198.54405 
L 163.214704 199.063108 
L 163.550031 199.953207 
L 163.256808 200.465483 
L 162.577133 200.977683 
L 153.87068 205.174147 
L 151.576026 205.764319 
L 150.382084 206.665772 
L 149.627224 206.980404 
L 148.054349 207.416252 
L 141.651572 210.184047 
L 140.87566 210.305188 
L 140.135837 210.547458 
L 139.190006 211.539271 
L 138.47725 211.68 
L 138.729873 210.85518 
L 138.343421 210.321558 
L 137.84419 209.872988 
L 137.185567 209.571725 
L 135.72547 209.401434 
L 135.636751 209.244234 
L 135.671336 208.98877 
L 135.427736 208.631742 
L 134.716484 208.235363 
L 133.912001 208.081386 
L 132.151163 208.160013 
L 128.752789 208.877407 
L 127.330284 208.631742 
L 126.360394 207.770133 
L 124.446177 205.456131 
L 123.017657 204.757686 
L 119.645098 204.514116 
L 118.113968 204.661708 
L 116.209407 204.209109 
L 114.70824 203.587582 
L 113.047614 203.937683 
L 111.32119 203.278238 
L 108.990977 204.000819 
L 107.677306 203.656885 
L 104.090794 204.839432 
L 97.419184 208.767181 
L 96.104918 208.663077 
L 94.453274 209.545527 
L 94.224277 210.384256 
L 93.440774 209.383829 
L 92.121043 209.036469 
L 92.429286 208.674325 
L 92.473852 208.22377 
L 92.062376 207.905137 
L 91.472507 207.831143 
L 91.252347 208.440405 
L 90.519581 208.975668 
L 90.169002 208.979033 
L 89.35036 208.867267 
L 88.489579 208.975668 
L 87.325711 208.081386 
L 85.101731 206.905026 
L 84.528819 206.433056 
L 84.443108 205.836444 
L 85.696558 204.774773 
L 86.641349 204.563842 
L 86.093007 204.003354 
L 83.420699 203.017442 
L 82.066085 202.82703 
L 80.759478 202.878277 
L 79.966578 203.370206 
L 79.371111 203.291466 
L 78.795191 203.045394 
L 76.106183 201.58056 
L 73.623453 200.951098 
L 70.602563 200.606355 
L 67.697847 199.463846 
L 67.076817 199.056538 
L 66.579091 198.064343 
L 66.003171 197.568138 
L 64.779155 196.769456 
L 63.132925 195.178461 
L 62.454043 194.69441 
L 61.45886 194.129876 
L 60.915314 193.685278 
L 60.971774 193.131949 
L 60.731181 192.852234 
L 59.964291 192.328941 
L 59.26958 191.611341 
L 58.601935 191.091151 
L 57.421628 190.603431 
L 55.528278 190.244944 
L 52.240741 190.174493 
L 50.216223 190.301028 
L 49.541488 189.77413 
L 47.833117 189.817244 
L 46.88908 190.3462 
L 46.43984 189.818557 
L 45.496278 189.737737 
L 43.15884 190.711936 
L 41.992474 189.6148 
L 41.049315 189.573068 
L 39.970958 189.774598 
L 36.41874 191.10682 
L 35.744854 191.023654 
L 34.799565 191.548661 
L 33.720949 191.463793 
L 32.641584 191.58159 
L 31.427809 191.414048 
L 31.788841 191.090874 
L 31.476091 190.479988 
L 30.442401 190.190338 
L 29.770905 189.210848 
L 29.866628 187.583684 
L 28.936839 186.666368 
L 28.198519 185.555164 
L 25.457265 182.58911 
L 24.242271 182.057658 
L 23.813715 181.436978 
L 23.237796 180.109407 
L 22.586692 179.534631 
L 21.670935 179.184433 
L 18.83194 178.78794 
L 18.368799 178.308785 
L 17.940243 176.781658 
L 17.514694 175.918636 
L 14.385484 171.759268 
L 13.708816 171.222858 
L 12.319393 170.451211 
L 11.713399 169.951041 
L 11.200636 169.165863 
L 10.929969 168.330798 
L 10.020227 163.548585 
L 9.845798 160.022478 
L 10.348035 156.526139 
L 9.88339 154.014782 
L 10.072857 153.046361 
L 10.576598 152.247467 
L 11.841214 150.695775 
L 12.092333 149.809747 
L 11.859259 149.010137 
L 10.835236 148.21035 
L 10.600658 147.40372 
L 10.835236 146.656927 
L 11.403636 146.000022 
L 12.734415 144.775929 
L 13.120868 143.955189 
L 13.176505 143.014113 
L 12.555474 139.454521 
L 12.522393 137.716878 
L 13.096808 136.399731 
L 14.615551 135.871402 
L 18.050013 136.065354 
L 19.636422 135.938283 
L 20.99126 135.309552 
L 22.380684 134.095261 
L 22.988181 133.35244 
L 23.237796 132.659675 
L 23.299448 131.705655 
L 23.47087 130.965702 
L 24.019723 129.415003 
L 24.29039 127.763115 
L 23.971604 126.529583 
L 23.228774 125.543805 
L 21.630335 123.953939 
L 21.249898 123.269484 
L 21.051409 122.514426 
L 20.99126 121.651795 
L 20.994268 118.85107 
L 20.717586 118.132082 
L 20.99126 117.822942 
L 20.67849 116.76092 
L 20.272489 113.875818 
L 19.833408 113.283729 
L 19.537178 112.630979 
L 18.786829 109.520458 
L 18.701584 108.484365 
L 19.062518 108.035127 
L 19.986816 106.194838 
L 22.328115 102.9572 
L 22.515266 101.697379 
L 22.131415 100.488589 
L 19.606784 97.263291 
L 19.188559 96.383586 
L 19.398626 95.533728 
L 20.214071 94.250004 
L 20.601741 92.643675 
L 20.712504 90.772364 
L 20.575005 88.996902 
L 20.214071 87.693807 
L 19.04915 86.420397 
L 18.59464 85.581268 
L 18.839083 84.72474 
L 19.851227 83.618294 
L 20.433687 83.200604 
L 21.247221 82.860391 
L 22.998421 82.524456 
L 23.892164 82.179877 
L 24.276014 81.581099 
L 26.502731 75.143874 
L 26.83693 73.305205 
L 26.569571 71.43977 
L 25.589892 70.247506 
L 24.205355 69.210464 
L 23.302065 68.13857 
L 23.769943 66.845865 
L 24.472714 66.275039 
L 25.86298 65.453252 
L 26.44353 64.964426 
L 26.802555 64.176987 
L 26.985887 62.276979 
L 27.325814 61.415403 
L 27.579805 61.138275 
L 28.462089 60.397728 
L 29.229791 58.81224 
L 29.588815 58.331272 
L 29.592635 57.243467 
L 29.344373 55.379217 
L 29.814161 53.527124 
L 30.748007 52.125565 
L 31.431681 50.693134 
L 31.133767 48.730319 
L 29.344373 46.001657 
L 29.630829 45.258347 
L 30.320233 44.801861 
L 31.89192 44.397503 
L 32.747468 44.49751 
L 33.205798 44.327932 
L 33.616385 42.679625 
L 33.658398 42.240255 
L 33.495706 39.440137 
L 33.404407 38.675711 
L 32.504936 35.151672 
L 31.679943 33.390709 
L 31.133767 32.575357 
L 30.303045 30.939813 
L 30.155998 29.290536 
L 30.623876 27.771578 
L 31.639839 26.522827 
L 38.915818 19.919241 
L 39.715984 18.563157 
L 39.987162 16.913398 
L 39.29511 14.159488 
L 40.761239 14.050362 
L 40.761239 14.050362 
" clip-path="url(#p30fa1bc4eb)" style="fill: none; stroke: #000000; stroke-width: 0.5; stroke-linecap: square"/>
   </g>
  </g>
 </g>
 <defs>
  <clipPath id="p30fa1bc4eb">
   <rect x="0" y="-0" width="216.607549" height="221.76"/>
  </clipPath>
 </defs>
</svg>
