<?xml version="1.0" encoding="utf-8" standalone="no"?>
<!DOCTYPE svg PUBLIC "-//W3C//DTD SVG 1.1//EN"
  "http://www.w3.org/Graphics/SVG/1.1/DTD/svg11.dtd">
<svg xmlns:xlink="http://www.w3.org/1999/xlink" width="216.493958pt" height="221.76pt" viewBox="0 0 216.493958 221.76" xmlns="http://www.w3.org/2000/svg" version="1.1">
 <metadata>
  <rdf:RDF xmlns:dc="http://purl.org/dc/elements/1.1/" xmlns:cc="http://creativecommons.org/ns#" xmlns:rdf="http://www.w3.org/1999/02/22-rdf-syntax-ns#">
   <cc:Work>
    <dc:type rdf:resource="http://purl.org/dc/dcmitype/StillImage"/>
    <dc:date>2026-04-26T19:22:32.066424</dc:date>
    <dc:format>image/svg+xml</dc:format>
    <dc:creator>
     <cc:Agent>
      <dc:title>Matplotlib v3.10.9, https://matplotlib.org/</dc:title>
     </cc:Agent>
    </dc:creator>
   </cc:Work>
  </rdf:RDF>
 </metadata>
 <defs>
  <style type="text/css">*{stroke-linejoin: round; stroke-linecap: butt}</style>
 </defs>
 <g id="figure_1">
  <g id="patch_1">
   <path d="M 0 221.76 
L 216.493958 221.76 
L 216.493958 0 
L 0 0 
z
" style="fill: #ffffff"/>
  </g>
  <g id="axes_1">
   <g id="patch_2">
    <path d="M 83.91457 10.292863 
L 127.84213 10.08 
L 127.84213 49.332038 
L 206.43799 49.332038 
L 206.222656 124.266113 
L 206.007323 158.886668 
L 206.653323 163.383171 
L 206.653323 211.68 
L 149.375244 211.451521 
L 9.840634 211.68 
L 10.055968 10.292863 
z
" clip-path="url(#pb84f324e48)" style="stroke: #000000; stroke-linejoin: miter"/>
   </g>
   <g id="line2d_1">
    <path d="M 83.91457 10.292863 
L 127.84213 10.08 
L 127.84213 49.332038 
L 206.43799 49.332038 
L 206.222656 124.266113 
L 206.007323 158.886668 
L 206.653323 163.383171 
L 206.653323 211.68 
L 149.375244 211.451521 
L 9.840634 211.68 
L 10.055968 10.292863 
L 83.91457 10.292863 
" clip-path="url(#pb84f324e48)" style="fill: none; stroke: #000000; stroke-width: 0.5; stroke-linecap: square"/>
   </g>
  </g>
 </g>
 <defs>
  <clipPath id="pb84f324e48">
   <rect x="0" y="-0" width="216.493958" height="221.76"/>
  </clipPath>
 </defs>
</svg>
