<?xml version="1.0" encoding="utf-8" standalone="no"?>
<!DOCTYPE svg PUBLIC "-//W3C//DTD SVG 1.1//EN"
  "http://www.w3.org/Graphics/SVG/1.1/DTD/svg11.dtd">
<svg xmlns:xlink="http://www.w3.org/1999/xlink" width="223.2pt" height="108.522709pt" viewBox="0 0 223.2 108.522709" xmlns="http://www.w3.org/2000/svg" version="1.1">
 <metadata>
  <rdf:RDF xmlns:dc="http://purl.org/dc/elements/1.1/" xmlns:cc="http://creativecommons.org/ns#" xmlns:rdf="http://www.w3.org/1999/02/22-rdf-syntax-ns#">
   <cc:Work>
    <dc:type rdf:resource="http://purl.org/dc/dcmitype/StillImage"/>
    <dc:date>2026-04-26T19:21:53.187592</dc:date>
    <dc:format>image/svg+xml</dc:format>
    <dc:creator>
     <cc:Agent>
      <dc:title>Matplotlib v3.10.9, https://matplotlib.org/</dc:title>
     </cc:Agent>
    </dc:creator>
   </cc:Work>
  </rdf:RDF>
 </metadata>
 <defs>
  <style type="text/css">*{stroke-linejoin: round; stroke-linecap: butt}</style>
 </defs>
 <g id="figure_1">
  <g id="patch_1">
   <path d="M 0 108.522709 
L 223.2 108.522709 
L 223.2 0 
L 0 0 
z
" style="fill: #ffffff"/>
  </g>
  <g id="axes_1">
   <g id="patch_2">
    <path d="M 187.181826 66.178702 
L 186.938199 66.16011 
L 185.891029 66.23386 
L 184.20701 66.636815 
L 183.700216 66.66906 
L 183.201971 66.644256 
L 182.725708 66.378282 
L 182.514442 65.868891 
L 182.356908 65.31462 
L 182.043063 64.916024 
L 181.781728 64.831255 
L 181.55703 64.849817 
L 181.334773 64.90303 
L 181.075881 64.920975 
L 180.82798 64.865285 
L 180.239367 64.662361 
L 180.399343 64.246151 
L 180.36637 64.195454 
L 180.265012 64.101486 
L 180.239367 64.082941 
L 180.246083 64.087268 
L 180.090382 63.911111 
L 180.069622 63.878974 
L 180.050693 63.822738 
L 180.031765 63.571266 
L 180.218607 63.339634 
L 180.569698 63.164256 
L 181.38301 63.017313 
L 181.496581 62.981507 
L 181.615647 62.861138 
L 181.900184 62.488414 
L 182.06016 62.365034 
L 182.22502 62.308285 
L 182.39965 62.27066 
L 182.577944 62.2059 
L 182.72876 62.106612 
L 183.143354 61.710813 
L 183.861413 61.257916 
L 184.038486 61.132875 
L 184.20762 61.030639 
L 184.307147 60.993073 
L 184.501316 60.959204 
L 184.541615 60.913022 
L 184.561154 60.85699 
L 184.602675 60.807735 
L 184.785853 60.719084 
L 184.787224 60.713864 
L 184.81333 60.614438 
L 184.915299 60.213217 
L 184.463459 60.012682 
L 183.382707 59.820805 
L 183.197697 59.637581 
L 183.168999 59.432887 
L 183.280127 59.282319 
L 183.515817 59.262656 
L 183.926747 59.536149 
L 184.159383 59.60254 
L 184.182586 59.38249 
L 184.084891 59.278018 
L 181.929492 57.420702 
L 181.55703 57.172447 
L 181.519783 57.137513 
L 181.489864 57.097679 
L 181.262754 56.908997 
L 181.117402 56.788264 
L 180.591069 56.621659 
L 180.146556 56.711082 
L 179.819888 57.962228 
L 179.16411 58.547097 
L 178.308667 58.940729 
L 177.082593 59.312431 
L 175.965206 59.970243 
L 173.787215 60.49442 
L 173.527102 60.594126 
L 173.293244 60.744939 
L 172.797441 61.227732 
L 172.515347 61.42056 
L 172.199059 61.495116 
L 171.835145 61.391602 
L 171.686159 61.287485 
L 171.564041 61.162439 
L 171.34789 60.879772 
L 171.217223 60.759099 
L 170.919253 60.608898 
L 170.780037 60.512883 
L 170.319649 59.963478 
L 170.052209 59.772228 
L 169.674861 59.743944 
L 169.490462 59.657254 
L 169.342698 59.536764 
L 169.185165 59.439033 
L 168.971456 59.420595 
L 168.587393 59.517094 
L 168.398719 59.597007 
L 168.230805 59.704594 
L 167.929782 60.002226 
L 167.747825 60.312273 
L 167.664784 60.669221 
L 167.658068 61.107622 
L 167.739277 61.741631 
L 167.690429 61.90314 
L 167.520684 61.982673 
L 166.803235 62.028917 
L 166.380094 62.252774 
L 166.375209 62.49952 
L 166.850251 63.119182 
L 166.851472 63.119182 
L 167.104259 63.792458 
L 167.21905 64.005675 
L 167.52679 64.434749 
L 167.655015 64.661742 
L 167.730118 64.927163 
L 167.642803 65.513991 
L 167.262403 65.56477 
L 166.80751 65.429779 
L 166.497328 65.460119 
L 166.546175 65.814376 
L 167.405892 66.415476 
L 167.405892 66.699446 
L 166.96199 66.858214 
L 166.373988 66.843329 
L 165.311553 66.595271 
L 164.90546 66.435759 
L 164.531824 66.289023 
L 164.262552 66.254313 
L 162.340401 66.486149 
L 162.105322 66.561789 
L 161.694392 66.745337 
L 161.417792 66.773865 
L 160.733316 66.680842 
L 160.47076 66.699446 
L 159.813976 66.834726 
L 159.332612 66.933888 
L 159.085932 67.068505 
L 159.391229 67.331599 
L 159.920004 67.590431 
L 160.337651 67.715841 
L 160.449812 67.69876 
L 163.215993 67.277608 
L 163.766749 67.587327 
L 163.843684 67.755579 
L 163.881541 67.939392 
L 163.863223 68.114548 
L 163.766749 68.261783 
L 163.498088 68.295955 
L 162.638371 68.190337 
L 162.399018 68.2506 
L 161.98015 68.536442 
L 161.827501 68.574355 
L 161.55884 68.198413 
L 161.373219 68.081626 
L 161.21996 68.30279 
L 161.244994 68.410908 
L 161.455039 68.542657 
L 161.495338 68.634024 
L 161.470303 68.880826 
L 161.488011 68.993994 
L 161.546628 69.11464 
L 162.587081 70.239854 
L 162.626769 70.507688 
L 162.12425 70.672791 
L 161.853757 70.344486 
L 161.673631 69.823324 
L 161.433057 69.410111 
L 161.186377 69.276359 
L 161.105168 69.370295 
L 161.147299 69.595534 
L 161.26148 69.855692 
L 161.525867 70.297774 
L 161.522815 70.467196 
L 161.379325 70.698338 
L 161.334751 70.72264 
L 161.210801 70.739465 
L 161.170502 70.758782 
L 161.086239 70.94014 
L 161.088682 70.956969 
L 161.087461 71.017432 
L 161.061816 71.137123 
L 160.982438 71.215679 
L 160.823684 71.151462 
L 160.508617 70.747566 
L 160.314448 70.632291 
L 159.912677 70.913339 
L 159.755144 70.862233 
L 159.61837 70.854131 
L 159.496251 71.113433 
L 159.377796 73.060741 
L 159.313073 73.351349 
L 159.15554 73.589534 
L 158.871003 73.826534 
L 158.366652 74.081118 
L 158.206676 74.262563 
L 158.247518 74.33702 
L 158.331521 74.490181 
L 158.33368 74.494118 
L 158.100433 74.579245 
L 157.374436 74.731996 
L 156.787654 74.775823 
L 156.2082 74.742639 
L 155.24285 74.468456 
L 153.474569 74.42527 
L 149.437318 73.596411 
L 148.882898 73.587033 
L 148.443881 73.698959 
L 147.3442 74.32201 
L 146.399611 74.439665 
L 146.165753 74.62056 
L 146.247573 75.157212 
L 146.207273 75.20106 
L 146.158426 75.236767 
L 146.103472 75.25932 
L 146.044855 75.26997 
L 145.740779 75.236767 
L 145.561264 75.254308 
L 145.452579 75.364573 
L 145.304815 75.831477 
L 145.226659 76.319333 
L 145.213836 76.7673 
L 145.064241 77.175945 
L 144.975094 77.579129 
L 144.896938 77.601743 
L 144.790694 77.57536 
L 144.664912 77.608653 
L 144.553784 77.687807 
L 144.497609 77.741837 
L 144.473185 77.826659 
L 144.453035 78.000098 
L 144.539848 78.480741 
L 144.540351 78.483522 
L 144.872514 78.730995 
L 146.300084 79.138994 
L 147.261159 79.167942 
L 147.727654 79.31836 
L 147.778944 79.365567 
L 147.872975 79.50154 
L 147.938919 79.558516 
L 148.019518 79.569849 
L 148.216129 79.536166 
L 148.291843 79.555683 
L 148.398203 79.701301 
L 148.399918 79.703649 
L 148.4219 79.870535 
L 148.287569 80.816402 
L 148.346262 81.11386 
L 148.346796 81.116571 
L 148.35889 81.12624 
L 148.562947 81.289404 
L 150.073558 81.487194 
L 150.391067 81.482777 
L 151.28803 81.238307 
L 151.289251 81.237361 
L 151.292304 81.237361 
L 151.449838 81.173968 
L 151.615919 81.138015 
L 151.785664 81.139277 
L 151.984718 81.194468 
L 152.077529 81.238623 
L 152.259486 81.38088 
L 152.453655 81.410533 
L 152.650266 81.353121 
L 152.846878 81.236415 
L 152.939688 81.217176 
L 153.036162 81.210237 
L 153.132636 81.217176 
L 153.224836 81.236415 
L 153.227278 81.236415 
L 153.22911 81.238307 
L 153.231552 81.238623 
L 153.412288 81.41558 
L 153.811006 82.127557 
L 154.032 82.39131 
L 154.15416 82.537141 
L 154.272005 82.783551 
L 154.258572 83.053101 
L 154.15355 83.256662 
L 154.007007 83.42201 
L 153.826271 83.551971 
L 153.625996 83.647477 
L 153.349397 83.693653 
L 153.139963 83.687959 
L 153.008075 83.75438 
L 152.967775 84.01948 
L 153.00319 84.1432 
L 153.072798 84.251745 
L 153.125309 84.365052 
L 153.11676 84.502748 
L 153.055701 84.577778 
L 152.75712 84.749705 
L 152.66431 84.934335 
L 152.696061 85.158602 
L 152.854205 85.617447 
L 152.87985 85.865347 
L 152.840161 86.570748 
L 152.871301 86.840494 
L 152.959227 87.003016 
L 153.246206 87.359905 
L 153.313372 87.547297 
L 153.337796 87.938404 
L 153.378095 88.117334 
L 153.490444 88.291531 
L 153.953275 88.654973 
L 154.390461 89.310682 
L 154.592567 89.480652 
L 155.204994 89.763369 
L 156.142867 90.450789 
L 156.428625 90.825616 
L 156.481136 91.301384 
L 156.288188 92.025076 
L 155.995103 92.70781 
L 155.534715 93.288756 
L 155.393057 93.524371 
L 155.391835 93.52533 
L 155.391835 93.526929 
L 155.390614 93.527888 
L 155.389393 93.528847 
L 155.300857 93.739897 
L 155.247125 93.928284 
L 155.158588 94.084396 
L 155.03206 94.161599 
L 154.972968 94.197658 
L 154.792232 94.243734 
L 154.241475 94.305813 
L 153.873287 94.4095 
L 153.663853 94.58746 
L 153.160723 95.852726 
L 152.812684 96.421856 
L 151.951746 97.423724 
L 151.314286 97.93277 
L 150.705523 98.579351 
L 150.201782 99.31195 
L 149.87084 100.07796 
L 149.825046 100.601649 
L 150.059514 101.587328 
L 150.100424 102.113139 
L 150.038754 102.562404 
L 149.903202 102.986043 
L 149.680335 103.359466 
L 149.626602 103.543323 
L 149.57287 103.309711 
L 149.434265 103.143018 
L 149.225442 103.036428 
L 148.980593 102.984752 
L 148.558673 103.0009 
L 148.409077 102.984752 
L 148.27841 102.92888 
L 148.020739 102.763868 
L 147.885187 102.72835 
L 147.750856 102.742557 
L 147.525547 102.800678 
L 147.402207 102.81424 
L 147.328325 102.871397 
L 147.256275 102.995732 
L 147.164686 103.114593 
L 147.037071 103.155293 
L 146.843513 103.009943 
L 146.620646 102.493 
L 146.348931 102.379704 
L 146.103472 102.437157 
L 145.886101 102.57564 
L 145.497763 102.90692 
L 145.263294 103.055161 
L 145.025773 103.159169 
L 144.769934 103.220546 
L 144.482955 103.241221 
L 144.1801 103.298726 
L 143.729481 103.545908 
L 143.465704 103.589859 
L 143.201317 103.499052 
L 143.065765 103.307772 
L 142.979671 103.075832 
L 142.861216 102.86074 
L 142.623084 102.676045 
L 142.099194 102.505912 
L 141.861062 102.379704 
L 141.749934 102.189615 
L 141.554544 101.647636 
L 141.409222 101.534762 
L 141.161321 101.473171 
L 140.688721 101.187196 
L 140.473791 101.10113 
L 139.903496 101.090815 
L 138.817859 101.306476 
L 137.272445 101.364187 
L 137.147883 101.403523 
L 136.915247 101.57346 
L 136.789464 101.612483 
L 136.469513 101.601195 
L 136.323581 101.578298 
L 135.54263 101.299706 
L 135.259315 101.27198 
L 134.95707 101.291968 
L 134.727487 101.353225 
L 134.435012 101.163019 
L 134.460657 100.9345 
L 134.638951 100.7215 
L 134.859986 100.530454 
L 135.046828 100.273102 
L 135.000422 100.074096 
L 134.81297 99.904427 
L 134.580334 99.73672 
L 134.419137 99.383376 
L 134.463099 98.939148 
L 134.721991 98.101121 
L 134.767175 97.606435 
L 134.673144 96.63196 
L 134.718328 96.145103 
L 135.129869 95.533525 
L 135.784426 94.824686 
L 136.218558 94.122148 
L 136.109168 93.865976 
L 135.965162 93.528847 
L 135.963941 93.528207 
L 135.961498 93.526609 
L 135.564001 93.291953 
L 135.135974 93.120314 
L 134.684135 93.018369 
L 133.780455 93.013896 
L 133.412877 92.922507 
L 132.214891 92.458352 
L 131.665355 91.88559 
L 131.318538 91.613382 
L 130.932642 91.465984 
L 130.166346 91.286074 
L 129.434243 90.801707 
L 129.10208 90.657945 
L 128.32174 90.55468 
L 127.131081 90.081212 
L 126.731752 90.051908 
L 126.394704 90.164673 
L 125.823188 90.542569 
L 125.518501 90.684082 
L 124.708242 90.73827 
L 123.910806 90.519623 
L 121.966673 89.440544 
L 120.791889 88.789512 
L 119.198238 87.905673 
L 118.082071 87.074446 
L 116.50918 85.907833 
L 115.715407 85.50208 
L 113.976434 85.003383 
L 112.458496 84.290989 
L 109.970323 82.592419 
L 109.299794 81.890667 
L 108.942693 81.517166 
L 108.661819 81.376464 
L 108.305232 81.410533 
L 107.390562 81.779702 
L 107.085264 81.832724 
L 106.736004 81.779702 
L 106.38186 81.630438 
L 104.480468 80.535875 
L 102.830642 79.587793 
L 101.521528 78.835729 
L 100.803469 78.243976 
L 99.533432 76.826922 
L 98.783622 76.258492 
L 97.142344 75.330114 
L 93.246751 73.130728 
L 91.327042 72.049079 
L 89.716294 71.14211 
L 88.333908 70.364417 
L 87.651264 69.825191 
L 87.523649 69.767927 
L 86.675534 68.93119 
L 86.547309 68.609783 
L 86.339707 67.934423 
L 86.306735 67.658721 
L 86.356193 67.399247 
L 86.454499 67.181427 
L 86.520443 66.964284 
L 86.474038 66.708748 
L 86.111344 66.096281 
L 86.063107 65.852164 
L 86.053949 65.534426 
L 86.010596 65.296048 
L 85.913512 65.078782 
L 85.609436 64.605452 
L 85.536164 64.38404 
L 85.499529 63.878974 
L 85.385348 63.771448 
L 84.408396 63.337164 
L 83.84726 63.207479 
L 83.592032 63.058677 
L 83.535548 62.981171 
L 83.515097 62.953111 
L 83.419844 62.680926 
L 83.350236 62.569856 
L 82.910608 62.117712 
L 82.751243 61.865534 
L 82.507616 61.132875 
L 82.373285 60.966594 
L 81.983726 60.64029 
L 81.85428 60.482727 
L 81.760248 60.228598 
L 81.624696 59.685535 
L 81.252844 58.687701 
L 81.120956 58.452556 
L 81.210103 58.36355 
L 81.152707 58.188637 
L 81.120956 57.351428 
L 81.080657 57.109322 
L 80.980519 56.912628 
L 80.113475 55.80629 
L 79.88267 55.614813 
L 77.241239 54.143276 
L 76.212997 53.808167 
L 75.063859 53.579349 
L 74.627894 53.542134 
L 74.362896 53.64036 
L 74.20292 53.888726 
L 74.088129 54.304473 
L 73.798707 54.429668 
L 73.574008 54.800483 
L 73.241845 55.076723 
L 72.833968 55.232609 
L 72.383349 55.244225 
L 71.903422 55.096283 
L 70.687118 54.442494 
L 70.477073 54.437608 
L 69.778553 54.528005 
L 69.712609 54.420506 
L 69.675973 54.314854 
L 69.630789 54.287375 
L 69.56058 54.378279 
L 69.404869 54.579928 
L 69.327934 54.644683 
L 69.249778 54.694169 
L 68.685589 54.251958 
L 67.858844 54.101151 
L 65.478747 54.209827 
L 64.052398 54.570765 
L 63.342887 54.584204 
L 62.931347 54.495021 
L 62.591856 54.31058 
L 61.950732 53.825254 
L 61.237557 53.429891 
L 60.100631 52.990223 
L 58.807391 52.489876 
L 58.475228 52.242564 
L 58.393408 51.963671 
L 58.541172 51.019346 
L 58.633983 50.818096 
L 58.787852 50.653365 
L 58.989349 50.520269 
L 59.477824 50.337374 
L 59.640242 50.189147 
L 59.532778 49.973235 
L 58.746332 49.141735 
L 58.382418 48.619929 
L 58.274953 48.210556 
L 58.579029 47.887696 
L 58.903865 47.720868 
L 59.273886 47.697255 
L 59.718398 47.801401 
L 60.126276 47.993383 
L 60.35708 48.07031 
L 60.542701 48.051532 
L 60.679474 47.899203 
L 60.657493 47.732675 
L 60.542701 47.571027 
L 60.398601 47.435741 
L 60.232519 47.330737 
L 59.673214 47.084775 
L 59.496142 46.948971 
L 59.361555 46.796486 
L 59.090707 46.489714 
L 58.742668 46.2685 
L 57.500719 45.921396 
L 56.887682 45.937705 
L 56.719158 45.881832 
L 56.588491 45.716048 
L 56.606809 45.561772 
L 56.739919 45.446764 
L 56.948742 45.402094 
L 56.952405 45.403 
L 56.956069 45.403 
L 56.959733 45.403 
L 57.660695 45.202017 
L 57.624059 44.741106 
L 57.392034 44.167775 
L 57.500719 43.6274 
L 57.694888 43.523526 
L 57.936684 43.450372 
L 58.130853 43.346523 
L 58.171152 43.151205 
L 58.027052 42.99926 
L 57.753505 42.879831 
L 57.229615 42.729144 
L 56.815632 42.454918 
L 56.487132 42.079824 
L 56.11467 41.781207 
L 55.578568 41.737356 
L 55.051014 41.78421 
L 54.025216 41.716332 
L 51.527884 41.997197 
L 50.91729 41.983977 
L 50.621762 41.90106 
L 50.150383 41.530449 
L 49.873173 41.460492 
L 49.271127 41.412457 
L 48.931637 41.277675 
L 48.775324 41.070896 
L 48.634888 40.184415 
L 48.522538 39.962362 
L 48.355235 39.767035 
L 47.604204 39.198723 
L 47.319667 39.068534 
L 47.018033 39.091876 
L 46.674879 39.212491 
L 46.334168 39.28014 
L 45.98735 39.294808 
L 45.461018 39.22626 
L 44.630609 38.954525 
L 43.839279 38.423019 
L 41.296763 36.261207 
L 41.008563 36.141973 
L 40.78997 36.403716 
L 40.628773 37.384154 
L 40.378429 37.720421 
L 39.889954 37.824976 
L 39.283023 37.797492 
L 38.677313 37.69533 
L 37.402392 37.322652 
L 37.114191 37.315785 
L 36.893156 37.36624 
L 36.266686 37.64306 
L 35.820952 37.784048 
L 35.606023 37.90146 
L 35.496116 38.070291 
L 35.563281 38.292968 
L 35.784316 38.436773 
L 37.264397 38.940762 
L 37.680823 39.176574 
L 38.044737 39.581641 
L 38.359804 40.122378 
L 39.236618 41.159723 
L 39.712881 41.570685 
L 39.847212 41.661373 
L 39.900944 41.763786 
L 39.859424 41.858403 
L 39.712881 41.92329 
L 38.953302 42.007412 
L 38.760354 41.971359 
L 38.621138 41.814848 
L 38.624802 41.634346 
L 38.688304 41.435273 
L 38.728603 41.223048 
L 38.607705 40.80988 
L 38.303629 40.512973 
L 37.903079 40.298914 
L 36.729517 39.896149 
L 36.470625 39.862295 
L 36.256916 39.888359 
L 35.828279 40.022589 
L 35.636553 40.035473 
L 35.447268 39.954872 
L 35.177385 39.662801 
L 35.006419 39.540016 
L 34.78172 39.482524 
L 34.51428 39.476536 
L 34.251724 39.512168 
L 34.035574 39.584935 
L 33.909791 39.700839 
L 33.80599 39.835933 
L 33.504357 40.087615 
L 33.183184 40.191609 
L 32.982909 40.315401 
L 33.050074 40.622725 
L 33.30286 41.018986 
L 33.323621 41.199939 
L 33.221041 41.4707 
L 32.739892 42.276965 
L 32.570147 42.415837 
L 32.118307 42.522864 
L 32.021833 42.675013 
L 32.107316 42.858174 
L 32.258744 42.983014 
L 32.29538 43.093432 
L 32.035266 43.231854 
L 31.808125 43.26857 
L 31.000919 43.241183 
L 30.772557 43.280909 
L 30.119221 43.516602 
L 29.569686 43.59729 
L 27.897878 43.383545 
L 26.763394 43.417259 
L 25.652112 43.815915 
L 24.702027 44.502316 
L 24.053575 45.399076 
L 24.053575 45.402094 
L 23.611505 45.885758 
L 23.125472 46.158219 
L 21.990987 46.55198 
L 21.657603 46.892116 
L 21.653939 47.343446 
L 21.915274 48.268721 
L 21.885965 48.710257 
L 21.793155 49.087749 
L 21.779722 49.457842 
L 21.990987 49.877597 
L 22.253543 50.200081 
L 22.389095 50.508115 
L 22.433058 50.847277 
L 22.424509 51.263227 
L 22.478242 51.589332 
L 22.636996 51.915575 
L 22.864137 52.206022 
L 23.123029 52.4253 
L 23.290332 52.516074 
L 23.471068 52.583096 
L 24.063345 52.69217 
L 24.153713 52.743971 
L 24.128068 52.824421 
L 23.994958 52.943283 
L 23.743393 53.078624 
L 23.192637 53.28595 
L 22.95939 53.487841 
L 22.595476 53.987606 
L 22.367113 54.08772 
L 20.922447 53.860652 
L 19.80628 53.683681 
L 17.16607 53.575688 
L 16.737242 53.558116 
L 14.292612 53.45795 
L 12.093251 53.367066 
L 10.175984 53.289609 
L 10.173542 50.585294 
L 10.1711 47.891935 
L 10.169878 45.207448 
L 10.167436 42.532485 
L 10.166215 39.867089 
L 10.163772 37.211602 
L 10.162551 34.56547 
L 10.160109 31.929036 
L 10.158888 29.302638 
L 10.156445 26.685729 
L 10.155224 24.078647 
L 10.152782 21.481727 
L 10.15156 18.893554 
L 10.149118 16.316502 
L 10.147897 13.748868 
L 10.145455 11.191277 
L 10.145455 11.190127 
L 10.145455 11.188978 
L 10.145455 11.187828 
L 10.145455 11.186104 
L 10.145455 11.184379 
L 10.145455 11.182655 
L 10.145455 11.180931 
L 10.145455 11.179781 
L 10.145455 11.178632 
L 10.146676 11.178057 
L 10.147897 11.176908 
L 10.147897 11.175758 
L 10.147897 11.174608 
L 10.149118 11.174034 
L 10.149118 11.172309 
L 10.149118 11.17116 
L 10.150339 11.170585 
L 10.15156 11.169436 
L 10.152782 11.168286 
L 10.154003 11.167711 
L 10.155224 11.167137 
L 10.156445 11.166562 
L 10.156445 11.165412 
L 10.157666 11.165412 
L 10.158888 11.164263 
L 10.160109 11.163688 
L 10.16133 11.163113 
L 10.162551 11.162539 
L 10.163772 11.162539 
L 10.164994 11.161964 
L 10.166215 11.161964 
L 10.167436 11.161389 
L 10.168657 11.16024 
L 10.169878 11.16024 
L 10.1711 11.16024 
L 10.172321 11.15909 
L 10.173542 11.15909 
L 10.174763 11.158516 
L 10.175984 11.158516 
L 11.282381 10.921191 
L 12.39 10.685102 
L 13.496397 10.448526 
L 14.606458 10.211462 
L 15.714076 9.97506 
L 16.821694 9.738745 
L 17.928092 9.502516 
L 18.791859 9.318356 
L 19.03571 9.266375 
L 20.14455 9.030321 
L 21.250947 8.794926 
L 22.358565 8.559046 
L 23.466184 8.322681 
L 24.575023 8.087547 
L 25.682641 7.851356 
L 26.79026 7.615825 
L 27.897878 7.380381 
L 29.374296 7.082202 
L 30.850713 6.783591 
L 32.328352 6.485693 
L 33.80599 6.187364 
L 34.488635 6.053362 
L 35.17128 5.920528 
L 35.853924 5.787152 
L 36.539011 5.653235 
L 37.249743 5.518776 
L 37.961696 5.383207 
L 38.673649 5.247668 
L 39.384381 5.112727 
L 40.341794 4.93285 
L 40.619003 4.949925 
L 40.941397 5.043275 
L 41.848741 5.444722 
L 42.106412 5.559794 
L 42.842788 5.885756 
L 43.993148 6.396122 
L 45.498874 7.065069 
L 46.529537 7.523032 
L 47.300128 7.865651 
L 49.333408 8.771449 
L 51.542538 9.755949 
L 53.862797 10.792509 
L 56.235568 11.853176 
L 58.599789 12.913277 
L 60.894403 13.942204 
L 63.05835 14.914942 
L 65.033013 15.803447 
L 66.754889 16.579553 
L 68.165362 17.215595 
L 69.202152 17.683883 
L 69.938529 18.016586 
L 70.243826 18.25068 
L 70.457534 18.54879 
L 70.533248 18.822028 
L 70.610183 19.404922 
L 70.724974 19.66803 
L 71.419831 20.434073 
L 72.775351 21.441447 
L 73.422581 21.92379 
L 74.071032 22.40706 
L 74.898998 23.066486 
L 75.576758 23.609418 
L 76.25696 24.153073 
L 76.935941 24.696867 
L 77.614922 25.241091 
L 78.278028 25.773995 
L 78.942355 26.307899 
L 79.606682 26.841626 
L 80.269787 27.375468 
L 81.15637 28.087699 
L 81.395723 28.1602 
L 81.633855 28.232708 
L 81.659911 28.229359 
L 82.635841 28.103908 
L 83.051045 28.049683 
L 83.468692 27.995463 
L 83.886338 27.941541 
L 84.301542 27.887918 
L 84.969533 27.801895 
L 85.636302 27.715292 
L 86.303071 27.628701 
L 86.96984 27.543004 
L 88.04815 27.420219 
L 89.12646 27.296867 
L 90.20477 27.174125 
L 91.284301 27.051111 
L 92.362611 26.928413 
L 93.44092 26.805737 
L 94.51923 26.683082 
L 95.598761 26.559567 
L 97.398794 26.673965 
L 99.198826 26.789558 
L 101.00008 26.903111 
L 102.798891 27.017566 
L 104.435895 27.122033 
L 106.075341 27.226222 
L 107.711734 27.331015 
L 109.348128 27.43494 
L 109.999021 27.475573 
L 110.205402 27.434057 
L 110.410562 27.392544 
L 111.598779 26.931355 
L 112.735706 26.489878 
L 113.908658 26.034578 
L 115.059628 25.587799 
L 115.272726 25.532009 
L 115.484602 25.475636 
L 115.673886 25.496188 
L 115.861949 25.517328 
L 116.058561 25.640364 
L 116.258836 25.764596 
L 117.531315 26.922823 
L 118.803794 28.083868 
L 119.392407 28.521933 
L 119.979799 28.958797 
L 121.197324 29.496917 
L 122.413017 30.03545 
L 122.646875 30.181749 
L 122.880122 30.328078 
L 123.88394 31.796596 
L 124.525064 32.735172 
L 125.410426 34.033602 
L 126.168784 35.150414 
L 126.272585 35.158748 
L 126.373944 35.167082 
L 128.079334 34.507775 
L 129.784725 33.848477 
L 129.530107 36.710297 
L 129.275489 39.582839 
L 129.24618 39.888359 
L 129.216872 40.194306 
L 129.157033 40.294118 
L 129.098416 40.393944 
L 128.959201 40.433518 
L 128.819985 40.473095 
L 128.785792 40.553153 
L 128.750377 40.633521 
L 128.743667 40.983546 
L 128.707025 42.89788 
L 128.664894 45.169129 
L 128.677106 45.23189 
L 128.690539 45.294957 
L 128.740608 45.325135 
L 128.791898 45.353805 
L 130.214583 45.358332 
L 131.510875 45.361954 
L 132.801672 45.365274 
L 134.228631 45.370103 
L 134.273815 45.365274 
L 134.316557 45.360747 
L 134.361741 45.362256 
L 134.406314 45.363463 
L 134.446003 45.370706 
L 134.486302 45.377346 
L 134.51561 45.390022 
L 134.544919 45.402094 
L 134.749468 46.879717 
L 134.955239 48.359917 
L 135.331365 49.808988 
L 135.708712 51.261402 
L 136.215505 52.997538 
L 136.719857 54.736937 
L 136.986076 54.98015 
L 137.248631 55.223438 
L 137.543204 55.281614 
L 137.734665 55.319429 
L 138.221308 55.41482 
L 139.593314 55.352448 
L 140.746116 55.301086 
L 142.469214 55.222827 
L 143.732534 55.16536 
L 145.240092 55.097506 
L 146.199946 55.053495 
L 147.732538 54.983206 
L 149.24376 54.915367 
L 149.378701 54.944091 
L 149.513032 54.972205 
L 149.762154 55.07061 
L 150.010056 55.168417 
L 150.139502 55.203263 
L 150.268948 55.2375 
L 150.382518 55.225272 
L 150.496089 55.212433 
L 150.838022 55.041271 
L 151.179955 54.869534 
L 151.32955 54.796206 
L 151.480367 54.722884 
L 151.552417 54.891534 
L 151.622636 55.059608 
L 151.637901 55.067554 
L 151.651334 55.0755 
L 151.692854 55.141519 
L 151.734375 55.206931 
L 151.994488 55.466801 
L 152.255822 55.725533 
L 152.31566 55.830763 
L 152.375499 55.936007 
L 152.421904 56.1649 
L 152.46953 56.394471 
L 152.546465 56.491829 
L 152.625842 56.589199 
L 152.696061 56.545106 
L 152.7675 56.500402 
L 152.843214 56.472846 
L 152.917707 56.446516 
L 152.989757 56.454476 
L 153.063028 56.463661 
L 153.127751 56.526734 
L 153.190032 56.589199 
L 153.271851 56.456313 
L 153.353671 56.32345 
L 153.479454 56.314266 
L 153.606457 56.304471 
L 153.62966 56.430596 
L 153.651641 56.556129 
L 153.652862 56.569602 
L 153.654694 56.582463 
L 153.639429 56.63697 
L 153.624775 56.692094 
L 153.68095 56.706182 
L 153.737735 56.72027 
L 153.755442 56.732521 
L 153.771318 56.744159 
L 153.635766 56.820119 
L 153.498382 56.896086 
L 153.448924 56.915079 
L 153.397634 56.934072 
L 153.445871 56.954291 
L 153.494108 56.973898 
L 153.523416 57.002084 
L 153.550893 57.030271 
L 153.59913 57.099517 
L 153.647978 57.168769 
L 153.646756 57.338554 
L 153.644314 57.507149 
L 153.586918 57.706444 
L 153.528301 57.906402 
L 153.440376 58.100275 
L 153.353671 58.294808 
L 153.262082 58.449487 
L 153.171714 58.603581 
L 153.107602 58.681561 
L 153.041047 58.759548 
L 152.953732 58.834472 
L 152.866417 58.909403 
L 152.769332 58.96837 
L 152.671026 59.02857 
L 152.463424 59.100447 
L 152.255822 59.171716 
L 152.203311 59.208582 
L 152.149579 59.24545 
L 152.131261 59.292152 
L 152.112333 59.338856 
L 152.151411 59.359751 
L 152.189878 59.381261 
L 152.424346 59.41998 
L 152.657593 59.458087 
L 152.837108 59.536149 
L 153.017234 59.613605 
L 153.55761 60.023753 
L 154.097375 60.433495 
L 154.49304 60.672915 
L 154.891148 60.913022 
L 155.368478 61.105589 
L 156.283303 61.474782 
L 157.675459 62.036316 
L 157.694998 62.006103 
L 157.714537 61.975891 
L 157.786587 61.919169 
L 157.859858 61.862451 
L 157.949005 61.86615 
L 158.038152 61.869849 
L 158.083946 61.82793 
L 158.126077 61.786012 
L 158.15905 61.734235 
L 158.192022 61.682461 
L 158.246975 61.653494 
L 158.302539 61.625144 
L 158.370315 61.634388 
L 158.438702 61.643633 
L 158.675002 61.733618 
L 158.910081 61.823614 
L 159.068835 61.842108 
L 159.226369 61.859369 
L 159.35093 61.802039 
L 159.477323 61.744713 
L 159.514569 61.666436 
L 159.549984 61.588167 
L 159.435192 61.541948 
L 159.322232 61.495116 
L 159.465722 61.314591 
L 159.609822 61.132875 
L 159.620813 61.092841 
L 159.633025 61.052809 
L 159.582345 60.986299 
L 159.531666 60.920411 
L 159.491367 60.846523 
L 159.452289 60.773874 
L 159.431528 60.697538 
L 159.409547 60.621209 
L 159.415653 60.546733 
L 159.420538 60.47288 
L 159.272774 60.445802 
L 159.122568 60.418725 
L 159.065172 60.394111 
L 159.008997 60.369497 
L 158.96015 60.322118 
L 158.911302 60.274126 
L 158.872224 60.163386 
L 158.833756 60.050201 
L 158.773308 59.552132 
L 158.714691 59.054371 
L 158.735451 58.962842 
L 158.758653 58.871322 
L 158.791015 58.841842 
L 158.824598 58.811134 
L 158.861233 58.789025 
L 158.900311 58.767531 
L 158.939389 58.699982 
L 158.976636 58.633053 
L 158.984573 58.575953 
L 158.9919 58.518242 
L 158.976025 58.385034 
L 158.961371 58.252461 
L 158.962592 58.18741 
L 158.965034 58.121751 
L 158.990069 58.13341 
L 159.017545 58.144455 
L 159.072499 58.161023 
L 159.128674 58.177591 
L 159.154319 58.191092 
L 159.181185 58.203979 
L 159.245908 58.064073 
L 159.310631 57.925419 
L 159.47427 57.83954 
L 159.639131 57.753669 
L 159.89423 57.668691 
L 160.001824 57.632853 
L 160.365127 57.511441 
L 160.485415 57.399244 
L 160.603259 57.288289 
L 160.82002 56.81338 
L 161.037392 56.339368 
L 161.197978 56.200402 
L 161.362228 56.061461 
L 161.768884 55.926216 
L 162.173708 55.790995 
L 162.320861 55.598298 
L 162.468015 55.406871 
L 162.542507 55.329824 
L 162.620053 55.253396 
L 162.741561 55.222827 
L 162.86368 55.19287 
L 163.116466 55.167805 
L 163.371084 55.142741 
L 163.58296 55.063275 
L 163.796058 54.985039 
L 163.999996 54.879922 
L 164.201492 54.774209 
L 164.302241 54.699056 
L 164.40421 54.623912 
L 164.450615 54.556104 
L 164.498241 54.487692 
L 164.589831 53.925347 
L 164.682641 53.364016 
L 164.677756 53.267045 
L 164.672871 53.169475 
L 164.655775 53.099964 
L 164.639899 53.031069 
L 164.622803 53.009731 
L 164.606317 52.988394 
L 164.57884 52.973153 
L 164.549531 52.957303 
L 164.494578 52.904879 
L 164.440235 52.853068 
L 164.42497 52.804308 
L 164.408484 52.75555 
L 164.435961 52.714109 
L 164.462827 52.67267 
L 164.511674 52.641592 
L 164.560522 52.611734 
L 164.833458 52.510591 
L 165.106393 52.41007 
L 165.217522 52.383876 
L 165.32865 52.358292 
L 165.439167 52.390577 
L 165.548464 52.423472 
L 165.608302 52.301035 
L 165.66814 52.178617 
L 165.812241 52.07205 
L 165.957562 51.964889 
L 166.278735 51.811479 
L 166.601129 51.658708 
L 166.697603 51.642885 
L 166.792245 51.62828 
L 166.967485 51.676358 
L 167.142115 51.723221 
L 167.22882 51.714092 
L 167.314914 51.704354 
L 167.542665 51.594809 
L 167.771028 51.484672 
L 167.858343 51.466418 
L 167.9481 51.448165 
L 168.298581 51.496841 
L 168.651505 51.544911 
L 168.719892 51.513878 
L 168.789499 51.484672 
L 168.782172 51.423829 
L 168.774845 51.362991 
L 168.675929 51.226731 
L 168.578234 51.091712 
L 168.557473 51.029684 
L 168.534881 50.967052 
L 168.612427 50.813232 
L 168.688141 50.659443 
L 168.845674 50.573747 
L 169.001986 50.488061 
L 169.338424 50.407853 
L 169.674861 50.328261 
L 170.276297 49.974753 
L 170.876511 49.620193 
L 171.044425 49.473924 
L 171.21417 49.327682 
L 171.313697 49.269133 
L 171.415056 49.209981 
L 172.211881 49.044685 
L 173.008707 48.879727 
L 173.666928 48.860928 
L 174.325149 48.84304 
L 174.571829 48.765126 
L 174.816067 48.687219 
L 174.996192 48.529309 
L 175.176317 48.372036 
L 175.256916 48.281445 
L 175.337514 48.190865 
L 175.429104 48.135432 
L 175.520693 48.080608 
L 175.851024 47.989749 
L 176.181356 47.900111 
L 176.671663 47.631263 
L 177.163802 47.361299 
L 177.312177 47.231496 
L 177.462383 47.10232 
L 177.864154 46.588557 
L 178.263483 46.076047 
L 178.348966 46.0108 
L 178.433839 45.946162 
L 178.534587 45.90267 
L 178.637167 45.860087 
L 178.744632 45.8317 
L 178.850875 45.803616 
L 178.94857 45.766172 
L 179.045044 45.728427 
L 179.120147 45.666229 
L 179.19464 45.603432 
L 179.239213 45.501398 
L 179.280734 45.398774 
L 179.427276 45.160982 
L 179.573819 44.922059 
L 179.825384 44.760707 
L 180.080002 44.599391 
L 180.657013 44.415502 
L 181.232193 44.231959 
L 181.318898 44.244616 
L 181.406823 44.25667 
L 181.515509 44.31393 
L 181.622974 44.37029 
L 181.717616 44.44896 
L 181.811648 44.526734 
L 181.856221 44.602406 
L 181.898963 44.678989 
L 181.940483 44.788451 
L 181.982003 44.897627 
L 182.073593 44.966097 
L 182.16335 45.034271 
L 182.288522 45.070774 
L 182.411862 45.10758 
L 182.551688 45.121458 
L 182.692735 45.136242 
L 182.875914 45.070774 
L 183.061534 45.005915 
L 183.186706 44.833688 
L 183.312489 44.662104 
L 183.421785 44.44896 
L 183.52925 44.235877 
L 183.666634 44.046051 
L 183.805239 43.855972 
L 183.97132 43.710509 
L 184.13557 43.565074 
L 184.197851 43.487098 
L 184.261963 43.409131 
L 184.30959 43.300472 
L 184.357216 43.192732 
L 184.442699 43.108477 
L 184.526961 43.025133 
L 184.668619 43.020921 
L 184.809056 43.016709 
L 185.083823 43.072671 
L 185.35737 43.128336 
L 185.580847 43.104264 
L 185.804325 43.080494 
L 186.026581 42.997154 
L 186.248838 42.91292 
L 186.649388 42.672908 
L 187.049938 42.433273 
L 187.307608 42.255025 
L 187.83272 41.973161 
L 188.207625 41.935307 
L 188.583751 42.049176 
L 190.240904 42.919538 
L 190.619175 43.012452 
L 190.658551 43.022125 
L 190.481478 43.456693 
L 190.04185 43.683407 
L 189.06612 43.891816 
L 187.396755 44.809561 
L 186.909501 44.895516 
L 186.328215 44.876515 
L 185.840961 44.971526 
L 185.63519 45.399076 
L 185.600386 46.070006 
L 185.469108 46.266385 
L 185.0594 46.381819 
L 183.882173 46.481856 
L 183.51887 46.642366 
L 182.350803 47.383691 
L 181.835461 47.834404 
L 181.489864 48.387187 
L 181.211433 48.696313 
L 180.854846 48.874269 
L 180.46895 49.013449 
L 179.764324 49.42932 
L 177.851332 50.266902 
L 177.60282 50.571316 
L 177.81897 50.950635 
L 178.254935 51.122119 
L 179.920637 51.261402 
L 179.921858 51.262619 
L 179.9243 51.263227 
L 179.926742 51.265052 
L 180.367592 51.46581 
L 180.565424 51.600895 
L 180.738223 51.768871 
L 181.027034 52.17679 
L 181.205938 52.301644 
L 181.413704 52.308775 
L 181.489864 52.311389 
L 181.892857 52.195669 
L 183.339966 51.571077 
L 183.741737 51.525439 
L 183.965214 51.630105 
L 184.164268 51.830349 
L 184.827374 52.690342 
L 184.939723 52.931091 
L 184.961704 53.179841 
L 184.787074 53.904595 
L 184.807835 54.110919 
L 184.954377 54.272109 
L 185.144883 54.249516 
L 185.374466 54.166477 
L 185.640686 54.14694 
L 185.867827 54.218375 
L 186.080314 54.335007 
L 186.274483 54.485248 
L 186.437511 54.655068 
L 186.653051 54.809649 
L 186.888741 54.828591 
L 187.396755 54.770542 
L 187.958502 54.848146 
L 188.222279 54.939813 
L 188.465296 55.08528 
L 188.680225 55.176364 
L 189.121074 55.221604 
L 189.310358 55.337773 
L 189.60955 55.718804 
L 189.79517 55.814244 
L 189.911183 55.585453 
L 189.886759 55.337161 
L 189.829364 55.125013 
L 189.861114 54.961204 
L 190.105352 54.860367 
L 190.386226 54.878089 
L 190.520557 55.0211 
L 190.665878 55.466801 
L 190.778838 55.632551 
L 190.929655 55.754899 
L 191.087188 55.746334 
L 191.214192 55.519397 
L 191.50972 55.231997 
L 192.318147 55.759793 
L 192.583145 55.586676 
L 192.646646 55.175752 
L 192.541624 53.136548 
L 192.614896 52.986565 
L 192.776703 53.017047 
L 193.345777 53.418911 
L 193.856234 53.58545 
L 194.259226 53.525663 
L 194.585284 53.268264 
L 194.978507 52.628186 
L 195.147031 52.23282 
L 195.198321 51.997766 
L 195.154358 51.781653 
L 194.822195 51.460942 
L 194.703739 51.265052 
L 194.703739 51.262619 
L 194.702518 51.26201 
L 194.936986 50.810193 
L 195.079865 50.680108 
L 195.3412 50.601096 
L 195.600092 50.630877 
L 195.750298 50.7877 
L 195.812579 51.016306 
L 195.8138 51.261402 
L 195.596428 51.922881 
L 195.606198 52.065961 
L 195.718547 52.097016 
L 195.788155 52.00081 
L 195.837003 51.872352 
L 195.891956 51.807218 
L 196.01896 51.846785 
L 196.082462 52.036125 
L 196.19359 52.074486 
L 196.288842 52.01177 
L 196.297391 51.763393 
L 196.373105 51.713483 
L 196.472021 51.743915 
L 196.566052 51.809044 
L 197.674892 53.052408 
L 197.864176 53.401832 
L 197.932563 53.791079 
L 197.903254 54.294703 
L 197.965535 54.792539 
L 198.273275 54.905589 
L 199.211148 54.783985 
L 199.496906 54.963648 
L 199.677642 55.158635 
L 199.88158 55.240557 
L 200.234504 55.079779 
L 200.489732 54.9062 
L 200.7645 54.769931 
L 201.052701 54.735715 
L 201.354334 54.870756 
L 201.489886 55.098117 
L 201.546061 55.420324 
L 201.566821 55.757957 
L 201.675507 56.376715 
L 201.675507 56.608797 
L 201.594908 56.820731 
L 201.433711 57.103194 
L 201.79234 57.020201 
L 202.471722 56.863003 
L 202.906465 56.816443 
L 202.995612 56.761923 
L 203.131164 56.45019 
L 203.193445 56.36447 
L 203.409595 56.232234 
L 203.567129 56.313654 
L 203.905398 56.716595 
L 204.152078 56.834209 
L 204.486684 56.908952 
L 205.115596 56.955517 
L 205.176656 56.991055 
L 205.209628 57.040076 
L 205.215734 57.100743 
L 205.196195 57.172447 
L 205.193752 57.444612 
L 205.40746 57.528609 
L 205.700546 57.543939 
L 205.928908 57.61139 
L 206.435701 58.213184 
L 206.802058 58.518856 
L 207.260004 58.67235 
L 207.768019 58.719018 
L 209.290841 58.614019 
L 209.746345 58.708579 
L 209.797635 59.056829 
L 209.765884 59.254667 
L 209.917311 59.237462 
L 210.464404 58.945642 
L 211.338775 58.636737 
L 211.528059 58.734984 
L 211.691699 58.909403 
L 211.931052 59.039013 
L 212.627129 59.005226 
L 212.893863 59.051448 
L 212.991348 59.068342 
L 212.992265 59.068501 
L 213.054545 59.308129 
L 212.693074 59.673854 
L 212.132548 59.917353 
L 211.023708 60.231674 
L 210.010121 60.719699 
L 209.158953 60.886545 
L 208.74497 61.022633 
L 208.462875 61.355252 
L 208.324881 62.150396 
L 207.980505 62.272511 
L 207.545762 62.119562 
L 207.330833 62.118329 
L 207.239244 62.31692 
L 207.223368 62.49335 
L 207.168415 62.66303 
L 207.054844 62.809909 
L 206.872887 62.921629 
L 206.40395 62.942617 
L 205.5711 62.501987 
L 205.115596 62.4551 
L 204.774884 62.324939 
L 204.384104 61.974041 
L 203.990881 61.708347 
L 203.6404 61.829779 
L 203.600414 62.026143 
L 203.600101 62.027683 
L 203.853496 62.355261 
L 203.855329 62.357632 
L 203.854108 62.57109 
L 203.774731 62.765472 
L 203.777151 62.89881 
L 203.777173 62.900025 
L 203.880974 63.008053 
L 204.392963 63.294043 
L 204.393873 63.294551 
L 204.445459 63.393279 
L 204.517155 63.530516 
L 204.518435 63.532965 
L 204.506223 63.812232 
L 204.379219 64.114468 
L 204.138645 64.369198 
L 203.860214 64.414341 
L 203.540262 64.321585 
L 202.841742 64.005057 
L 202.668334 63.954992 
L 202.133453 63.974152 
L 201.983247 63.93645 
L 201.984723 63.933573 
L 202.040642 63.824591 
L 202.177416 63.793694 
L 202.378912 63.779481 
L 202.549878 63.73561 
L 202.597505 63.614511 
L 202.594967 63.612931 
L 202.486376 63.54532 
L 202.270226 63.52617 
L 202.180383 63.529788 
L 201.641314 63.551497 
L 201.44226 63.591652 
L 200.655814 63.92718 
L 200.547128 64.050797 
L 200.476299 64.273974 
L 200.305333 64.608545 
L 199.992709 64.849198 
L 198.970573 65.252095 
L 198.904629 65.42173 
L 198.988891 65.601308 
L 199.211148 65.726417 
L 199.553081 65.850306 
L 199.638953 65.894519 
L 199.71672 65.934561 
L 199.782664 66.028739 
L 199.705729 66.15887 
L 199.539647 66.191716 
L 199.352806 66.167547 
L 199.211148 66.122308 
L 199.118337 66.106196 
L 199.049951 66.114252 
L 198.913178 66.148335 
L 198.446683 66.11797 
L 197.98141 66.029978 
L 197.550331 66.049187 
L 197.183974 66.33551 
L 196.962939 66.71681 
L 196.834714 66.879923 
L 196.644208 67.021976 
L 196.022623 67.308016 
L 195.858984 67.345873 
L 195.619631 67.264577 
L 195.54636 67.081534 
L 195.550023 66.58907 
L 195.466982 66.345428 
L 195.299679 66.073973 
L 195.090856 65.932702 
L 194.875927 66.082648 
L 194.803877 66.311956 
L 194.775789 66.519628 
L 194.67321 66.657898 
L 194.381345 66.680222 
L 193.825704 66.594031 
L 193.555822 66.512808 
L 193.304257 66.38944 
L 193.089327 66.229522 
L 192.995296 66.052285 
L 192.881725 65.90854 
L 192.35234 65.780926 
L 191.981098 65.510276 
L 191.742356 65.497272 
L 191.371725 65.527614 
L 191.176946 65.513991 
L 191.013306 65.458881 
L 190.890577 65.347433 
L 190.785555 65.221762 
L 190.665878 65.147484 
L 190.497354 65.187098 
L 190.312954 65.405631 
L 190.208543 65.670673 
L 190.04185 65.873228 
L 189.668167 65.902345 
L 188.29555 65.748716 
L 187.609242 65.840394 
z
" clip-path="url(#p7f8cb4ed47)" style="stroke: #000000; stroke-linejoin: miter"/>
   </g>
   <g id="line2d_1">
    <path d="M 187.181826 66.178702 
L 186.938199 66.16011 
L 185.891029 66.23386 
L 183.700216 66.66906 
L 183.201971 66.644256 
L 182.725708 66.378282 
L 182.043063 64.916024 
L 181.55703 64.849817 
L 181.075881 64.920975 
L 180.239367 64.662361 
L 180.36637 64.195454 
L 180.050693 63.822738 
L 180.031765 63.571266 
L 180.218607 63.339634 
L 180.569698 63.164256 
L 181.496581 62.981507 
L 182.22502 62.308285 
L 182.72876 62.106612 
L 183.143354 61.710813 
L 184.81333 60.614438 
L 184.915299 60.213217 
L 184.463459 60.012682 
L 183.382707 59.820805 
L 183.197697 59.637581 
L 183.168999 59.432887 
L 183.280127 59.282319 
L 183.515817 59.262656 
L 184.159383 59.60254 
L 184.084891 59.278018 
L 181.117402 56.788264 
L 180.591069 56.621659 
L 180.146556 56.711082 
L 179.819888 57.962228 
L 179.16411 58.547097 
L 178.308667 58.940729 
L 177.082593 59.312431 
L 175.965206 59.970243 
L 173.527102 60.594126 
L 173.293244 60.744939 
L 172.515347 61.42056 
L 172.199059 61.495116 
L 171.686159 61.287485 
L 170.052209 59.772228 
L 169.490462 59.657254 
L 169.185165 59.439033 
L 168.971456 59.420595 
L 168.230805 59.704594 
L 167.747825 60.312273 
L 167.658068 61.107622 
L 167.690429 61.90314 
L 167.520684 61.982673 
L 166.803235 62.028917 
L 166.380094 62.252774 
L 166.375209 62.49952 
L 166.851472 63.119182 
L 167.21905 64.005675 
L 167.655015 64.661742 
L 167.730118 64.927163 
L 167.642803 65.513991 
L 167.262403 65.56477 
L 166.80751 65.429779 
L 166.497328 65.460119 
L 166.546175 65.814376 
L 167.405892 66.415476 
L 167.405892 66.699446 
L 166.96199 66.858214 
L 166.373988 66.843329 
L 164.90546 66.435759 
L 164.262552 66.254313 
L 162.105322 66.561789 
L 161.417792 66.773865 
L 160.47076 66.699446 
L 159.085932 67.068505 
L 159.391229 67.331599 
L 160.337651 67.715841 
L 163.215993 67.277608 
L 163.843684 67.755579 
L 163.863223 68.114548 
L 163.766749 68.261783 
L 163.498088 68.295955 
L 162.399018 68.2506 
L 161.827501 68.574355 
L 161.373219 68.081626 
L 161.244994 68.410908 
L 161.495338 68.634024 
L 161.546628 69.11464 
L 162.587081 70.239854 
L 162.626769 70.507688 
L 162.12425 70.672791 
L 161.853757 70.344486 
L 161.433057 69.410111 
L 161.186377 69.276359 
L 161.105168 69.370295 
L 161.26148 69.855692 
L 161.522815 70.467196 
L 161.334751 70.72264 
L 161.170502 70.758782 
L 160.982438 71.215679 
L 160.823684 71.151462 
L 160.314448 70.632291 
L 159.912677 70.913339 
L 159.61837 70.854131 
L 159.496251 71.113433 
L 159.313073 73.351349 
L 158.871003 73.826534 
L 158.206676 74.262563 
L 158.33368 74.494118 
L 157.374436 74.731996 
L 156.2082 74.742639 
L 155.24285 74.468456 
L 153.474569 74.42527 
L 148.882898 73.587033 
L 148.443881 73.698959 
L 147.3442 74.32201 
L 146.399611 74.439665 
L 146.165753 74.62056 
L 146.158426 75.236767 
L 146.044855 75.26997 
L 145.561264 75.254308 
L 145.452579 75.364573 
L 145.226659 76.319333 
L 145.213836 76.7673 
L 144.896938 77.601743 
L 144.664912 77.608653 
L 144.473185 77.826659 
L 144.453035 78.000098 
L 144.540351 78.483522 
L 144.872514 78.730995 
L 146.300084 79.138994 
L 147.261159 79.167942 
L 147.778944 79.365567 
L 148.019518 79.569849 
L 148.291843 79.555683 
L 148.4219 79.870535 
L 148.346796 81.116571 
L 148.562947 81.289404 
L 150.391067 81.482777 
L 151.785664 81.139277 
L 152.650266 81.353121 
L 153.036162 81.210237 
L 153.231552 81.238623 
L 153.412288 81.41558 
L 154.258572 83.053101 
L 154.007007 83.42201 
L 153.625996 83.647477 
L 153.008075 83.75438 
L 153.00319 84.1432 
L 153.11676 84.502748 
L 153.055701 84.577778 
L 152.75712 84.749705 
L 152.66431 84.934335 
L 152.959227 87.003016 
L 153.313372 87.547297 
L 153.378095 88.117334 
L 153.490444 88.291531 
L 153.953275 88.654973 
L 154.592567 89.480652 
L 155.204994 89.763369 
L 156.142867 90.450789 
L 156.428625 90.825616 
L 156.481136 91.301384 
L 155.995103 92.70781 
L 155.300857 93.739897 
L 155.158588 94.084396 
L 154.792232 94.243734 
L 153.873287 94.4095 
L 153.663853 94.58746 
L 153.160723 95.852726 
L 152.812684 96.421856 
L 151.951746 97.423724 
L 151.314286 97.93277 
L 150.705523 98.579351 
L 150.201782 99.31195 
L 149.87084 100.07796 
L 149.825046 100.601649 
L 150.100424 102.113139 
L 149.903202 102.986043 
L 149.626602 103.543323 
L 149.434265 103.143018 
L 148.980593 102.984752 
L 148.27841 102.92888 
L 147.885187 102.72835 
L 147.328325 102.871397 
L 147.037071 103.155293 
L 146.843513 103.009943 
L 146.620646 102.493 
L 146.348931 102.379704 
L 145.886101 102.57564 
L 145.263294 103.055161 
L 144.769934 103.220546 
L 144.1801 103.298726 
L 143.465704 103.589859 
L 143.201317 103.499052 
L 142.623084 102.676045 
L 141.861062 102.379704 
L 141.409222 101.534762 
L 141.161321 101.473171 
L 140.473791 101.10113 
L 139.903496 101.090815 
L 138.817859 101.306476 
L 137.147883 101.403523 
L 136.789464 101.612483 
L 136.323581 101.578298 
L 135.259315 101.27198 
L 134.727487 101.353225 
L 134.435012 101.163019 
L 134.460657 100.9345 
L 135.046828 100.273102 
L 135.000422 100.074096 
L 134.580334 99.73672 
L 134.419137 99.383376 
L 134.463099 98.939148 
L 134.767175 97.606435 
L 134.718328 96.145103 
L 135.129869 95.533525 
L 135.784426 94.824686 
L 136.218558 94.122148 
L 135.961498 93.526609 
L 135.135974 93.120314 
L 134.684135 93.018369 
L 133.412877 92.922507 
L 132.214891 92.458352 
L 131.318538 91.613382 
L 127.131081 90.081212 
L 126.731752 90.051908 
L 126.394704 90.164673 
L 125.518501 90.684082 
L 124.708242 90.73827 
L 123.910806 90.519623 
L 119.198238 87.905673 
L 116.50918 85.907833 
L 115.715407 85.50208 
L 113.976434 85.003383 
L 112.458496 84.290989 
L 109.970323 82.592419 
L 108.661819 81.376464 
L 108.305232 81.410533 
L 107.085264 81.832724 
L 106.38186 81.630438 
L 101.521528 78.835729 
L 100.803469 78.243976 
L 99.533432 76.826922 
L 98.783622 76.258492 
L 88.333908 70.364417 
L 86.675534 68.93119 
L 86.339707 67.934423 
L 86.356193 67.399247 
L 86.520443 66.964284 
L 86.474038 66.708748 
L 86.063107 65.852164 
L 86.010596 65.296048 
L 85.536164 64.38404 
L 85.385348 63.771448 
L 83.515097 62.953111 
L 83.350236 62.569856 
L 82.751243 61.865534 
L 82.373285 60.966594 
L 81.85428 60.482727 
L 81.120956 58.452556 
L 81.210103 58.36355 
L 81.152707 58.188637 
L 81.080657 57.109322 
L 80.980519 56.912628 
L 79.88267 55.614813 
L 77.241239 54.143276 
L 76.212997 53.808167 
L 74.627894 53.542134 
L 74.362896 53.64036 
L 74.20292 53.888726 
L 74.088129 54.304473 
L 73.798707 54.429668 
L 73.574008 54.800483 
L 73.241845 55.076723 
L 72.833968 55.232609 
L 72.383349 55.244225 
L 71.903422 55.096283 
L 70.477073 54.437608 
L 69.778553 54.528005 
L 69.630789 54.287375 
L 69.56058 54.378279 
L 69.249778 54.694169 
L 68.685589 54.251958 
L 67.858844 54.101151 
L 65.478747 54.209827 
L 64.052398 54.570765 
L 62.931347 54.495021 
L 62.591856 54.31058 
L 61.950732 53.825254 
L 61.237557 53.429891 
L 58.475228 52.242564 
L 58.393408 51.963671 
L 58.633983 50.818096 
L 58.989349 50.520269 
L 59.640242 50.189147 
L 59.532778 49.973235 
L 58.382418 48.619929 
L 58.274953 48.210556 
L 58.579029 47.887696 
L 58.903865 47.720868 
L 59.273886 47.697255 
L 60.126276 47.993383 
L 60.542701 48.051532 
L 60.679474 47.899203 
L 60.542701 47.571027 
L 60.232519 47.330737 
L 59.496142 46.948971 
L 59.090707 46.489714 
L 58.742668 46.2685 
L 57.500719 45.921396 
L 56.719158 45.881832 
L 56.606809 45.561772 
L 56.959733 45.403 
L 57.660695 45.202017 
L 57.624059 44.741106 
L 57.392034 44.167775 
L 57.500719 43.6274 
L 58.171152 43.151205 
L 58.027052 42.99926 
L 56.815632 42.454918 
L 56.11467 41.781207 
L 54.025216 41.716332 
L 50.91729 41.983977 
L 50.621762 41.90106 
L 50.150383 41.530449 
L 48.775324 41.070896 
L 48.522538 39.962362 
L 48.355235 39.767035 
L 47.319667 39.068534 
L 46.674879 39.212491 
L 45.98735 39.294808 
L 45.461018 39.22626 
L 44.630609 38.954525 
L 43.839279 38.423019 
L 41.008563 36.141973 
L 40.78997 36.403716 
L 40.628773 37.384154 
L 40.378429 37.720421 
L 39.889954 37.824976 
L 38.677313 37.69533 
L 37.114191 37.315785 
L 36.893156 37.36624 
L 35.496116 38.070291 
L 35.563281 38.292968 
L 35.784316 38.436773 
L 37.680823 39.176574 
L 38.044737 39.581641 
L 38.359804 40.122378 
L 39.712881 41.570685 
L 39.900944 41.763786 
L 39.712881 41.92329 
L 38.760354 41.971359 
L 38.621138 41.814848 
L 38.607705 40.80988 
L 38.303629 40.512973 
L 37.903079 40.298914 
L 36.470625 39.862295 
L 35.447268 39.954872 
L 35.006419 39.540016 
L 34.51428 39.476536 
L 34.035574 39.584935 
L 33.504357 40.087615 
L 32.982909 40.315401 
L 33.050074 40.622725 
L 33.323621 41.199939 
L 33.221041 41.4707 
L 32.570147 42.415837 
L 32.118307 42.522864 
L 32.021833 42.675013 
L 32.29538 43.093432 
L 31.808125 43.26857 
L 30.772557 43.280909 
L 29.569686 43.59729 
L 27.897878 43.383545 
L 26.763394 43.417259 
L 25.652112 43.815915 
L 24.702027 44.502316 
L 23.611505 45.885758 
L 23.125472 46.158219 
L 21.990987 46.55198 
L 21.657603 46.892116 
L 21.653939 47.343446 
L 21.915274 48.268721 
L 21.779722 49.457842 
L 22.433058 50.847277 
L 22.478242 51.589332 
L 22.864137 52.206022 
L 23.471068 52.583096 
L 24.153713 52.743971 
L 23.994958 52.943283 
L 22.95939 53.487841 
L 22.595476 53.987606 
L 22.367113 54.08772 
L 19.80628 53.683681 
L 10.175984 53.289609 
L 10.174763 11.158516 
L 10.175984 11.158516 
L 34.488635 6.053362 
L 40.619003 4.949925 
L 40.941397 5.043275 
L 66.754889 16.579553 
L 70.243826 18.25068 
L 70.533248 18.822028 
L 70.724974 19.66803 
L 71.419831 20.434073 
L 76.25696 24.153073 
L 81.395723 28.1602 
L 81.659911 28.229359 
L 94.51923 26.683082 
L 95.598761 26.559567 
L 110.410562 27.392544 
L 115.484602 25.475636 
L 116.058561 25.640364 
L 116.258836 25.764596 
L 119.392407 28.521933 
L 119.979799 28.958797 
L 122.880122 30.328078 
L 126.272585 35.158748 
L 126.373944 35.167082 
L 129.784725 33.848477 
L 129.098416 40.393944 
L 128.785792 40.553153 
L 128.750377 40.633521 
L 128.740608 45.325135 
L 128.791898 45.353805 
L 134.544919 45.402094 
L 134.955239 48.359917 
L 136.719857 54.736937 
L 137.248631 55.223438 
L 138.221308 55.41482 
L 149.513032 54.972205 
L 150.382518 55.225272 
L 150.496089 55.212433 
L 151.480367 54.722884 
L 151.734375 55.206931 
L 152.375499 55.936007 
L 152.546465 56.491829 
L 152.696061 56.545106 
L 152.989757 56.454476 
L 153.271851 56.456313 
L 153.479454 56.314266 
L 153.606457 56.304471 
L 153.635766 56.820119 
L 153.397634 56.934072 
L 153.523416 57.002084 
L 153.647978 57.168769 
L 153.586918 57.706444 
L 153.262082 58.449487 
L 152.866417 58.909403 
L 152.112333 59.338856 
L 152.189878 59.381261 
L 153.017234 59.613605 
L 154.891148 60.913022 
L 157.714537 61.975891 
L 157.949005 61.86615 
L 158.126077 61.786012 
L 158.302539 61.625144 
L 158.675002 61.733618 
L 159.226369 61.859369 
L 159.549984 61.588167 
L 159.322232 61.495116 
L 159.633025 61.052809 
L 159.409547 60.621209 
L 159.420538 60.47288 
L 158.911302 60.274126 
L 158.773308 59.552132 
L 158.791015 58.841842 
L 158.9919 58.518242 
L 158.965034 58.121751 
L 159.017545 58.144455 
L 159.181185 58.203979 
L 159.310631 57.925419 
L 160.001824 57.632853 
L 160.485415 57.399244 
L 160.603259 57.288289 
L 161.197978 56.200402 
L 161.362228 56.061461 
L 162.173708 55.790995 
L 162.741561 55.222827 
L 164.201492 54.774209 
L 164.498241 54.487692 
L 164.639899 53.031069 
L 164.462827 52.67267 
L 164.833458 52.510591 
L 165.439167 52.390577 
L 165.548464 52.423472 
L 165.812241 52.07205 
L 166.278735 51.811479 
L 166.792245 51.62828 
L 167.314914 51.704354 
L 167.9481 51.448165 
L 168.789499 51.484672 
L 168.675929 51.226731 
L 168.534881 50.967052 
L 168.845674 50.573747 
L 169.338424 50.407853 
L 169.674861 50.328261 
L 171.415056 49.209981 
L 173.008707 48.879727 
L 174.571829 48.765126 
L 174.996192 48.529309 
L 175.520693 48.080608 
L 176.181356 47.900111 
L 177.462383 47.10232 
L 178.534587 45.90267 
L 179.239213 45.501398 
L 179.573819 44.922059 
L 180.080002 44.599391 
L 181.406823 44.25667 
L 181.856221 44.602406 
L 182.16335 45.034271 
L 182.692735 45.136242 
L 183.061534 45.005915 
L 184.526961 43.025133 
L 185.083823 43.072671 
L 185.580847 43.104264 
L 186.026581 42.997154 
L 186.649388 42.672908 
L 187.83272 41.973161 
L 188.207625 41.935307 
L 188.583751 42.049176 
L 190.658551 43.022125 
L 190.481478 43.456693 
L 190.04185 43.683407 
L 189.06612 43.891816 
L 187.396755 44.809561 
L 186.909501 44.895516 
L 185.840961 44.971526 
L 185.63519 45.399076 
L 185.600386 46.070006 
L 185.469108 46.266385 
L 185.0594 46.381819 
L 183.882173 46.481856 
L 183.51887 46.642366 
L 181.835461 47.834404 
L 181.211433 48.696313 
L 177.60282 50.571316 
L 177.81897 50.950635 
L 178.254935 51.122119 
L 179.926742 51.265052 
L 180.565424 51.600895 
L 181.413704 52.308775 
L 181.489864 52.311389 
L 181.892857 52.195669 
L 183.339966 51.571077 
L 183.741737 51.525439 
L 184.164268 51.830349 
L 184.939723 52.931091 
L 184.961704 53.179841 
L 184.807835 54.110919 
L 184.954377 54.272109 
L 185.867827 54.218375 
L 186.437511 54.655068 
L 186.653051 54.809649 
L 188.222279 54.939813 
L 188.680225 55.176364 
L 189.310358 55.337773 
L 189.79517 55.814244 
L 189.911183 55.585453 
L 189.861114 54.961204 
L 190.105352 54.860367 
L 190.386226 54.878089 
L 190.520557 55.0211 
L 190.778838 55.632551 
L 191.087188 55.746334 
L 191.214192 55.519397 
L 191.50972 55.231997 
L 192.318147 55.759793 
L 192.583145 55.586676 
L 192.646646 55.175752 
L 192.614896 52.986565 
L 192.776703 53.017047 
L 193.345777 53.418911 
L 193.856234 53.58545 
L 194.259226 53.525663 
L 194.585284 53.268264 
L 195.147031 52.23282 
L 195.154358 51.781653 
L 194.702518 51.26201 
L 195.079865 50.680108 
L 195.600092 50.630877 
L 195.750298 50.7877 
L 195.8138 51.261402 
L 195.606198 52.065961 
L 195.718547 52.097016 
L 196.01896 51.846785 
L 196.19359 52.074486 
L 196.288842 52.01177 
L 196.373105 51.713483 
L 196.566052 51.809044 
L 197.864176 53.401832 
L 197.932563 53.791079 
L 197.965535 54.792539 
L 198.273275 54.905589 
L 199.211148 54.783985 
L 199.88158 55.240557 
L 201.052701 54.735715 
L 201.354334 54.870756 
L 201.489886 55.098117 
L 201.675507 56.608797 
L 201.433711 57.103194 
L 202.995612 56.761923 
L 203.193445 56.36447 
L 203.409595 56.232234 
L 203.567129 56.313654 
L 203.905398 56.716595 
L 204.486684 56.908952 
L 205.209628 57.040076 
L 205.193752 57.444612 
L 205.700546 57.543939 
L 205.928908 57.61139 
L 206.802058 58.518856 
L 207.260004 58.67235 
L 207.768019 58.719018 
L 209.290841 58.614019 
L 209.746345 58.708579 
L 209.917311 59.237462 
L 210.464404 58.945642 
L 211.338775 58.636737 
L 211.931052 59.039013 
L 212.992265 59.068501 
L 213.054545 59.308129 
L 212.693074 59.673854 
L 212.132548 59.917353 
L 211.023708 60.231674 
L 210.010121 60.719699 
L 208.74497 61.022633 
L 208.462875 61.355252 
L 208.324881 62.150396 
L 207.980505 62.272511 
L 207.330833 62.118329 
L 206.872887 62.921629 
L 206.40395 62.942617 
L 205.5711 62.501987 
L 204.774884 62.324939 
L 203.990881 61.708347 
L 203.6404 61.829779 
L 203.600101 62.027683 
L 203.855329 62.357632 
L 203.880974 63.008053 
L 204.445459 63.393279 
L 204.518435 63.532965 
L 204.506223 63.812232 
L 204.379219 64.114468 
L 204.138645 64.369198 
L 203.860214 64.414341 
L 201.983247 63.93645 
L 202.040642 63.824591 
L 202.597505 63.614511 
L 202.594967 63.612931 
L 202.270226 63.52617 
L 201.44226 63.591652 
L 200.547128 64.050797 
L 200.305333 64.608545 
L 199.992709 64.849198 
L 198.970573 65.252095 
L 198.904629 65.42173 
L 198.988891 65.601308 
L 199.782664 66.028739 
L 199.705729 66.15887 
L 199.352806 66.167547 
L 199.049951 66.114252 
L 198.913178 66.148335 
L 197.550331 66.049187 
L 197.183974 66.33551 
L 196.834714 66.879923 
L 196.644208 67.021976 
L 195.858984 67.345873 
L 195.619631 67.264577 
L 195.54636 67.081534 
L 195.466982 66.345428 
L 195.090856 65.932702 
L 194.875927 66.082648 
L 194.67321 66.657898 
L 194.381345 66.680222 
L 193.555822 66.512808 
L 193.089327 66.229522 
L 192.881725 65.90854 
L 192.35234 65.780926 
L 191.981098 65.510276 
L 190.890577 65.347433 
L 190.665878 65.147484 
L 190.497354 65.187098 
L 190.04185 65.873228 
L 189.668167 65.902345 
L 188.29555 65.748716 
L 187.609242 65.840394 
L 187.181826 66.178702 
L 187.181826 66.178702 
" clip-path="url(#p7f8cb4ed47)" style="fill: none; stroke: #000000; stroke-width: 0.5; stroke-linecap: square"/>
   </g>
  </g>
 </g>
 <defs>
  <clipPath id="p7f8cb4ed47">
   <rect x="0" y="-0" width="223.2" height="108.522709"/>
  </clipPath>
 </defs>
</svg>
