<?xml version="1.0" encoding="utf-8" standalone="no"?>
<!DOCTYPE svg PUBLIC "-//W3C//DTD SVG 1.1//EN"
  "http://www.w3.org/Graphics/SVG/1.1/DTD/svg11.dtd">
<svg xmlns:xlink="http://www.w3.org/1999/xlink" width="223.2pt" height="87.577204pt" viewBox="0 0 223.2 87.577204" xmlns="http://www.w3.org/2000/svg" version="1.1">
 <metadata>
  <rdf:RDF xmlns:dc="http://purl.org/dc/elements/1.1/" xmlns:cc="http://creativecommons.org/ns#" xmlns:rdf="http://www.w3.org/1999/02/22-rdf-syntax-ns#">
   <cc:Work>
    <dc:type rdf:resource="http://purl.org/dc/dcmitype/StillImage"/>
    <dc:date>2026-04-26T19:22:32.318627</dc:date>
    <dc:format>image/svg+xml</dc:format>
    <dc:creator>
     <cc:Agent>
      <dc:title>Matplotlib v3.10.9, https://matplotlib.org/</dc:title>
     </cc:Agent>
    </dc:creator>
   </cc:Work>
  </rdf:RDF>
 </metadata>
 <defs>
  <style type="text/css">*{stroke-linejoin: round; stroke-linecap: butt}</style>
 </defs>
 <g id="figure_1">
  <g id="patch_1">
   <path d="M 0 87.577204 
L 223.2 87.577204 
L 223.2 0 
L 0 0 
z
" style="fill: #ffffff"/>
  </g>
  <g id="axes_1">
   <g id="patch_2">
    <path d="M 148.550839 3.980782 
L 162.078103 12.916097 
L 164.925955 7.784164 
L 168.912932 8.223484 
L 171.760784 10.421709 
L 171.760784 14.384917 
L 177.1717 15.707787 
L 180.589101 18.209042 
L 182.58259 22.040754 
L 180.304314 26.323455 
L 177.1717 27.50655 
L 175.178185 31.356457 
L 176.317336 34.174594 
L 183.294559 33.284216 
L 184.576078 37.591331 
L 193.68921 39.376317 
L 196.252274 42.801907 
L 203.514258 46.53198 
L 200.239251 54.162447 
L 203.229497 60.166868 
L 199.669675 63.025036 
L 199.242494 66.490131 
L 202.517527 68.602091 
L 198.957706 71.925143 
L 193.546816 67.545862 
L 192.265271 69.054933 
L 196.964217 72.227498 
L 209.779538 72.983545 
L 213.054545 83.292472 
L 118.363645 83.596422 
L 98.001552 83.444442 
L 80.202497 82.988565 
L 61.976286 82.229008 
L 10.145455 81.925249 
L 24.099926 77.980266 
L 25.808627 74.950586 
L 30.792361 73.891186 
L 31.077149 71.471691 
L 34.921732 69.658872 
L 34.921732 67.545862 
L 44.462019 63.476686 
L 54.429488 56.111983 
L 54.002306 58.363726 
L 57.562128 63.025036 
L 61.976286 65.284226 
L 65.251294 65.133536 
L 70.235028 61.520265 
L 73.79485 64.380276 
L 80.487285 62.874508 
L 92.305848 57.612866 
L 93.302605 59.265116 
L 97.859158 56.862302 
L 98.001552 51.915257 
L 100.849378 47.577605 
L 105.690718 43.54738 
L 107.684233 38.632381 
L 112.810335 33.580965 
L 114.80385 27.358624 
L 119.218008 31.06004 
L 123.489773 32.245972 
L 126.195231 30.022958 
L 131.748541 20.418713 
L 135.023549 22.778465 
L 147.1269 11.888618 
z
" clip-path="url(#p7253987de3)" style="stroke: #000000; stroke-linejoin: miter"/>
   </g>
   <g id="line2d_1">
    <path d="M 148.550839 3.980782 
L 162.078103 12.916097 
L 164.925955 7.784164 
L 168.912932 8.223484 
L 171.760784 10.421709 
L 171.760784 14.384917 
L 177.1717 15.707787 
L 180.589101 18.209042 
L 182.58259 22.040754 
L 180.304314 26.323455 
L 177.1717 27.50655 
L 175.178185 31.356457 
L 176.317336 34.174594 
L 183.294559 33.284216 
L 184.576078 37.591331 
L 193.68921 39.376317 
L 196.252274 42.801907 
L 203.514258 46.53198 
L 200.239251 54.162447 
L 203.229497 60.166868 
L 199.669675 63.025036 
L 199.242494 66.490131 
L 202.517527 68.602091 
L 198.957706 71.925143 
L 193.546816 67.545862 
L 192.265271 69.054933 
L 196.964217 72.227498 
L 209.779538 72.983545 
L 213.054545 83.292472 
L 118.363645 83.596422 
L 98.001552 83.444442 
L 80.202497 82.988565 
L 61.976286 82.229008 
L 10.145455 81.925249 
L 24.099926 77.980266 
L 25.808627 74.950586 
L 30.792361 73.891186 
L 31.077149 71.471691 
L 34.921732 69.658872 
L 34.921732 67.545862 
L 44.462019 63.476686 
L 54.429488 56.111983 
L 54.002306 58.363726 
L 57.562128 63.025036 
L 61.976286 65.284226 
L 65.251294 65.133536 
L 70.235028 61.520265 
L 73.79485 64.380276 
L 80.487285 62.874508 
L 92.305848 57.612866 
L 93.302605 59.265116 
L 97.859158 56.862302 
L 98.001552 51.915257 
L 100.849378 47.577605 
L 105.690718 43.54738 
L 107.684233 38.632381 
L 112.810335 33.580965 
L 114.80385 27.358624 
L 119.218008 31.06004 
L 123.489773 32.245972 
L 126.195231 30.022958 
L 131.748541 20.418713 
L 135.023549 22.778465 
L 147.1269 11.888618 
L 148.550839 3.980782 
" clip-path="url(#p7253987de3)" style="fill: none; stroke: #000000; stroke-width: 0.5; stroke-linecap: square"/>
   </g>
  </g>
 </g>
 <defs>
  <clipPath id="p7253987de3">
   <rect x="0" y="-0" width="223.2" height="87.577204"/>
  </clipPath>
 </defs>
</svg>
