<?xml version="1.0" encoding="utf-8" standalone="no"?>
<!DOCTYPE svg PUBLIC "-//W3C//DTD SVG 1.1//EN"
  "http://www.w3.org/Graphics/SVG/1.1/DTD/svg11.dtd">
<svg xmlns:xlink="http://www.w3.org/1999/xlink" width="90.11916pt" height="221.76pt" viewBox="0 0 90.11916 221.76" xmlns="http://www.w3.org/2000/svg" version="1.1">
 <metadata>
  <rdf:RDF xmlns:dc="http://purl.org/dc/elements/1.1/" xmlns:cc="http://creativecommons.org/ns#" xmlns:rdf="http://www.w3.org/1999/02/22-rdf-syntax-ns#">
   <cc:Work>
    <dc:type rdf:resource="http://purl.org/dc/dcmitype/StillImage"/>
    <dc:date>2026-04-26T19:22:23.172426</dc:date>
    <dc:format>image/svg+xml</dc:format>
    <dc:creator>
     <cc:Agent>
      <dc:title>Matplotlib v3.10.9, https://matplotlib.org/</dc:title>
     </cc:Agent>
    </dc:creator>
   </cc:Work>
  </rdf:RDF>
 </metadata>
 <defs>
  <style type="text/css">*{stroke-linejoin: round; stroke-linecap: butt}</style>
 </defs>
 <g id="figure_1">
  <g id="patch_1">
   <path d="M 0 221.76 
L 90.11916 221.76 
L 90.11916 0 
L 0 0 
z
" style="fill: #ffffff"/>
  </g>
  <g id="axes_1">
   <g id="patch_2">
    <path d="M 52.945796 10.08 
L 66.735406 41.192119 
L 80.525017 65.336967 
L 86.022835 88.783763 
L 74.93707 118.264174 
L 78.767518 123.602886 
L 80.525017 127.432781 
L 83.183798 137.529578 
L 65.113099 141.24327 
L 61.5981 154.937175 
L 68.042265 191.142237 
L 62.138869 208.083076 
L 48.484451 211.68 
L 33.297853 206.226586 
L 22.662729 196.015713 
L 21.445999 173.968503 
L 9.413887 149.598936 
L 4.096325 126.620381 
L 22.662729 108.515018 
L 14.506129 78.68558 
L 21.310807 51.407446 
L 36.407276 27.95819 
z
" clip-path="url(#p7574affae3)" style="stroke: #000000; stroke-linejoin: miter"/>
   </g>
   <g id="line2d_1">
    <path d="M 52.945796 10.08 
L 66.735406 41.192119 
L 80.525017 65.336967 
L 86.022835 88.783763 
L 74.93707 118.264174 
L 78.767518 123.602886 
L 80.525017 127.432781 
L 83.183798 137.529578 
L 65.113099 141.24327 
L 61.5981 154.937175 
L 68.042265 191.142237 
L 62.138869 208.083076 
L 48.484451 211.68 
L 33.297853 206.226586 
L 22.662729 196.015713 
L 21.445999 173.968503 
L 9.413887 149.598936 
L 4.096325 126.620381 
L 22.662729 108.515018 
L 14.506129 78.68558 
L 21.310807 51.407446 
L 36.407276 27.95819 
L 52.945796 10.08 
" clip-path="url(#p7574affae3)" style="fill: none; stroke: #000000; stroke-width: 0.5; stroke-linecap: square"/>
   </g>
  </g>
 </g>
 <defs>
  <clipPath id="p7574affae3">
   <rect x="0" y="-0" width="90.11916" height="221.76"/>
  </clipPath>
 </defs>
</svg>
