<?xml version="1.0" encoding="utf-8" standalone="no"?>
<!DOCTYPE svg PUBLIC "-//W3C//DTD SVG 1.1//EN"
  "http://www.w3.org/Graphics/SVG/1.1/DTD/svg11.dtd">
<svg xmlns:xlink="http://www.w3.org/1999/xlink" width="223.2pt" height="89.339287pt" viewBox="0 0 223.2 89.339287" xmlns="http://www.w3.org/2000/svg" version="1.1">
 <metadata>
  <rdf:RDF xmlns:dc="http://purl.org/dc/elements/1.1/" xmlns:cc="http://creativecommons.org/ns#" xmlns:rdf="http://www.w3.org/1999/02/22-rdf-syntax-ns#">
   <cc:Work>
    <dc:type rdf:resource="http://purl.org/dc/dcmitype/StillImage"/>
    <dc:date>2026-04-26T19:22:32.447713</dc:date>
    <dc:format>image/svg+xml</dc:format>
    <dc:creator>
     <cc:Agent>
      <dc:title>Matplotlib v3.10.9, https://matplotlib.org/</dc:title>
     </cc:Agent>
    </dc:creator>
   </cc:Work>
  </rdf:RDF>
 </metadata>
 <defs>
  <style type="text/css">*{stroke-linejoin: round; stroke-linecap: butt}</style>
 </defs>
 <g id="figure_1">
  <g id="patch_1">
   <path d="M 0 89.339287 
L 223.2 89.339287 
L 223.2 0 
L 0 0 
z
" style="fill: #ffffff"/>
  </g>
  <g id="axes_1">
   <g id="patch_2">
    <path d="M 210.058017 4.060877 
L 209.772628 32.592761 
L 209.915323 64.158584 
L 209.48724 66.124517 
L 212.911877 70.328262 
L 213.054545 74.54525 
L 159.116696 74.413267 
L 155.549365 75.997883 
L 145.132811 76.526508 
L 133.717396 78.643045 
L 127.296204 81.028084 
L 119.590816 81.69134 
L 116.166179 80.497711 
L 101.896904 83.948784 
L 101.040738 82.354917 
L 92.764573 81.028084 
L 85.629936 81.426 
L 74.214495 85.278411 
L 60.801387 82.620437 
L 59.517164 75.337415 
L 57.091387 72.435103 
L 51.526361 69.933593 
L 49.100584 70.196693 
L 44.962501 70.854668 
L 40.396335 68.09337 
L 35.687475 67.174198 
L 31.834755 68.618896 
L 26.840506 66.518059 
L 27.839366 63.242137 
L 31.263978 61.541878 
L 25.984366 56.58449 
L 22.417035 43.757954 
L 20.276646 42.083238 
L 17.422786 33.103909 
L 12.285843 29.657835 
L 10.145455 22.794809 
L 12.999315 18.241121 
L 18.278952 20.389308 
L 28.980895 23.30185 
L 36.258226 23.17507 
L 43.535558 24.316553 
L 50.384806 23.17507 
L 53.666749 25.205139 
L 59.802526 25.078158 
L 64.08333 30.16776 
L 67.222552 29.785296 
L 67.79333 36.687844 
L 69.648329 42.984744 
L 72.216801 42.340745 
L 69.648329 36.94424 
L 70.361801 31.698787 
L 74.642578 26.348546 
L 71.217967 24.189665 
L 70.932578 20.389308 
L 68.364107 16.222843 
L 69.648329 13.201892 
L 67.936024 9.687225 
L 63.797941 9.18599 
L 59.945221 6.558101 
L 60.944081 4.060877 
z
" clip-path="url(#p7a88c63d16)" style="stroke: #000000; stroke-linejoin: miter"/>
   </g>
   <g id="line2d_1">
    <path d="M 210.058017 4.060877 
L 209.772628 32.592761 
L 209.915323 64.158584 
L 209.48724 66.124517 
L 212.911877 70.328262 
L 213.054545 74.54525 
L 159.116696 74.413267 
L 155.549365 75.997883 
L 145.132811 76.526508 
L 133.717396 78.643045 
L 127.296204 81.028084 
L 119.590816 81.69134 
L 116.166179 80.497711 
L 101.896904 83.948784 
L 101.040738 82.354917 
L 92.764573 81.028084 
L 85.629936 81.426 
L 74.214495 85.278411 
L 60.801387 82.620437 
L 59.517164 75.337415 
L 57.091387 72.435103 
L 51.526361 69.933593 
L 49.100584 70.196693 
L 44.962501 70.854668 
L 40.396335 68.09337 
L 35.687475 67.174198 
L 31.834755 68.618896 
L 26.840506 66.518059 
L 27.839366 63.242137 
L 31.263978 61.541878 
L 25.984366 56.58449 
L 22.417035 43.757954 
L 20.276646 42.083238 
L 17.422786 33.103909 
L 12.285843 29.657835 
L 10.145455 22.794809 
L 12.999315 18.241121 
L 18.278952 20.389308 
L 28.980895 23.30185 
L 36.258226 23.17507 
L 43.535558 24.316553 
L 50.384806 23.17507 
L 53.666749 25.205139 
L 59.802526 25.078158 
L 64.08333 30.16776 
L 67.222552 29.785296 
L 67.79333 36.687844 
L 69.648329 42.984744 
L 72.216801 42.340745 
L 69.648329 36.94424 
L 70.361801 31.698787 
L 74.642578 26.348546 
L 71.217967 24.189665 
L 70.932578 20.389308 
L 68.364107 16.222843 
L 69.648329 13.201892 
L 67.936024 9.687225 
L 63.797941 9.18599 
L 59.945221 6.558101 
L 60.944081 4.060877 
L 210.058017 4.060877 
" clip-path="url(#p7a88c63d16)" style="fill: none; stroke: #000000; stroke-width: 0.5; stroke-linecap: square"/>
   </g>
  </g>
 </g>
 <defs>
  <clipPath id="p7a88c63d16">
   <rect x="0" y="-0" width="223.2" height="89.339287"/>
  </clipPath>
 </defs>
</svg>
