<?xml version="1.0" encoding="utf-8" standalone="no"?>
<!DOCTYPE svg PUBLIC "-//W3C//DTD SVG 1.1//EN"
  "http://www.w3.org/Graphics/SVG/1.1/DTD/svg11.dtd">
<svg xmlns:xlink="http://www.w3.org/1999/xlink" width="223.2pt" height="161.680667pt" viewBox="0 0 223.2 161.680667" xmlns="http://www.w3.org/2000/svg" version="1.1">
 <metadata>
  <rdf:RDF xmlns:dc="http://purl.org/dc/elements/1.1/" xmlns:cc="http://creativecommons.org/ns#" xmlns:rdf="http://www.w3.org/1999/02/22-rdf-syntax-ns#">
   <cc:Work>
    <dc:type rdf:resource="http://purl.org/dc/dcmitype/StillImage"/>
    <dc:date>2026-04-26T19:22:32.578989</dc:date>
    <dc:format>image/svg+xml</dc:format>
    <dc:creator>
     <cc:Agent>
      <dc:title>Matplotlib v3.10.9, https://matplotlib.org/</dc:title>
     </cc:Agent>
    </dc:creator>
   </cc:Work>
  </rdf:RDF>
 </metadata>
 <defs>
  <style type="text/css">*{stroke-linejoin: round; stroke-linecap: butt}</style>
 </defs>
 <g id="figure_1">
  <g id="patch_1">
   <path d="M 0 161.680667 
L 223.2 161.680667 
L 223.2 0 
L 0 0 
z
" style="fill: #ffffff"/>
  </g>
  <g id="axes_1">
   <g id="patch_2">
    <path d="M 97.203646 7.349121 
L 97.203646 45.809721 
L 140.279329 45.809721 
L 139.825896 67.681105 
L 147.987608 63.713859 
L 156.14932 56.492843 
L 161.590434 57.889126 
L 169.752146 51.611007 
L 181.994713 54.632184 
L 183.581688 49.985526 
L 190.383142 50.217689 
L 194.237281 46.96909 
L 201.265411 50.914288 
L 208.29354 50.914288 
L 213.054545 62.781176 
L 208.520256 70.952129 
L 186.982435 56.725511 
L 184.71527 69.3162 
L 165.444573 86.654781 
L 160.230176 82.897633 
L 151.388315 98.189307 
L 147.080742 101.728744 
L 140.279329 99.840528 
L 133.2512 93.947212 
L 130.077169 103.85429 
L 121.915498 111.897047 
L 118.741467 119.722604 
L 111.033188 126.139442 
L 106.49894 133.045758 
L 106.272224 140.922339 
L 99.017378 144.748048 
L 97.430362 142.117369 
L 78.613098 150.494844 
L 67.957546 152.892296 
L 62.289674 148.338648 
L 54.354679 154.091621 
L 49.140282 154.331546 
L 42.112153 150.734512 
L 36.444281 143.312874 
L 37.124431 139.727696 
L 31.683276 139.011117 
L 23.74828 133.999504 
L 21.707873 128.995477 
L 15.133177 122.57296 
L 10.145455 114.266401 
L 11.279037 101.256584 
L 22.161306 100.312476 
L 23.74828 94.653795 
L 28.736002 92.299038 
L 26.695595 85.7151 
L 34.403874 75.396998 
L 40.525137 81.959089 
L 44.832709 77.973313 
L 43.699127 73.056809 
L 48.913565 64.88017 
L 53.674571 65.113487 
L 58.435535 59.053148 
L 62.969824 61.848737 
L 68.184263 59.984723 
L 84.28097 46.273414 
L 88.135109 30.779413 
L 93.80294 20.648771 
L 94.029656 14.220519 
L 91.082383 9.637728 
z
" clip-path="url(#p623708fd1d)" style="stroke: #000000; stroke-linejoin: miter"/>
   </g>
   <g id="line2d_1">
    <path d="M 97.203646 7.349121 
L 97.203646 45.809721 
L 140.279329 45.809721 
L 139.825896 67.681105 
L 147.987608 63.713859 
L 156.14932 56.492843 
L 161.590434 57.889126 
L 169.752146 51.611007 
L 181.994713 54.632184 
L 183.581688 49.985526 
L 190.383142 50.217689 
L 194.237281 46.96909 
L 201.265411 50.914288 
L 208.29354 50.914288 
L 213.054545 62.781176 
L 208.520256 70.952129 
L 186.982435 56.725511 
L 184.71527 69.3162 
L 165.444573 86.654781 
L 160.230176 82.897633 
L 151.388315 98.189307 
L 147.080742 101.728744 
L 140.279329 99.840528 
L 133.2512 93.947212 
L 130.077169 103.85429 
L 121.915498 111.897047 
L 118.741467 119.722604 
L 111.033188 126.139442 
L 106.49894 133.045758 
L 106.272224 140.922339 
L 99.017378 144.748048 
L 97.430362 142.117369 
L 78.613098 150.494844 
L 67.957546 152.892296 
L 62.289674 148.338648 
L 54.354679 154.091621 
L 49.140282 154.331546 
L 42.112153 150.734512 
L 36.444281 143.312874 
L 37.124431 139.727696 
L 31.683276 139.011117 
L 23.74828 133.999504 
L 21.707873 128.995477 
L 15.133177 122.57296 
L 10.145455 114.266401 
L 11.279037 101.256584 
L 22.161306 100.312476 
L 23.74828 94.653795 
L 28.736002 92.299038 
L 26.695595 85.7151 
L 34.403874 75.396998 
L 40.525137 81.959089 
L 44.832709 77.973313 
L 43.699127 73.056809 
L 48.913565 64.88017 
L 53.674571 65.113487 
L 58.435535 59.053148 
L 62.969824 61.848737 
L 68.184263 59.984723 
L 84.28097 46.273414 
L 88.135109 30.779413 
L 93.80294 20.648771 
L 94.029656 14.220519 
L 91.082383 9.637728 
L 97.203646 7.349121 
" clip-path="url(#p623708fd1d)" style="fill: none; stroke: #000000; stroke-width: 0.5; stroke-linecap: square"/>
   </g>
  </g>
 </g>
 <defs>
  <clipPath id="p623708fd1d">
   <rect x="0" y="0" width="223.2" height="161.680667"/>
  </clipPath>
 </defs>
</svg>
