<?xml version="1.0" encoding="utf-8" standalone="no"?>
<!DOCTYPE svg PUBLIC "-//W3C//DTD SVG 1.1//EN"
  "http://www.w3.org/Graphics/SVG/1.1/DTD/svg11.dtd">
<svg xmlns:xlink="http://www.w3.org/1999/xlink" width="223.2pt" height="160.877629pt" viewBox="0 0 223.2 160.877629" xmlns="http://www.w3.org/2000/svg" version="1.1">
 <metadata>
  <rdf:RDF xmlns:dc="http://purl.org/dc/elements/1.1/" xmlns:cc="http://creativecommons.org/ns#" xmlns:rdf="http://www.w3.org/1999/02/22-rdf-syntax-ns#">
   <cc:Work>
    <dc:type rdf:resource="http://purl.org/dc/dcmitype/StillImage"/>
    <dc:date>2026-04-26T19:22:32.702645</dc:date>
    <dc:format>image/svg+xml</dc:format>
    <dc:creator>
     <cc:Agent>
      <dc:title>Matplotlib v3.10.9, https://matplotlib.org/</dc:title>
     </cc:Agent>
    </dc:creator>
   </cc:Work>
  </rdf:RDF>
 </metadata>
 <defs>
  <style type="text/css">*{stroke-linejoin: round; stroke-linecap: butt}</style>
 </defs>
 <g id="figure_1">
  <g id="patch_1">
   <path d="M 0 160.877629 
L 223.2 160.877629 
L 223.2 0 
L 0 0 
z
" style="fill: #ffffff"/>
  </g>
  <g id="axes_1">
   <g id="patch_2">
    <path d="M 95.750693 19.605929 
L 102.204304 21.518377 
L 106.000552 26.919201 
L 141.685194 33.387058 
L 156.490557 38.121687 
L 161.046027 37.068452 
L 175.851391 40.229978 
L 179.837419 44.27779 
L 187.050286 48.158069 
L 186.670658 53.816824 
L 183.443853 58.249827 
L 191.605791 58.960102 
L 188.378985 63.583433 
L 193.693712 66.969267 
L 192.365047 70.897322 
L 185.721622 71.612395 
L 180.027233 79.136815 
L 177.939312 84.349548 
L 181.925374 85.24969 
L 187.240101 81.831283 
L 192.934455 75.370918 
L 200.147323 72.86439 
L 205.841678 64.651995 
L 213.054545 62.871429 
L 212.485103 67.147639 
L 207.550005 71.076065 
L 197.869588 84.709535 
L 195.212225 92.285303 
L 195.402039 97.714526 
L 191.795605 99.527609 
L 188.568799 106.978459 
L 189.70765 113.360912 
L 186.670658 117.566077 
L 182.494816 128.024879 
L 183.443853 136.319304 
L 187.619729 143.719677 
L 186.29103 153.56501 
L 152.124867 153.56501 
L 87.968383 153.006513 
L 85.500834 148.729586 
L 73.163054 144.831981 
L 70.505691 139.461306 
L 69.366806 131.891509 
L 73.542682 127.840931 
L 68.417735 124.532699 
L 68.038142 119.580295 
L 66.14 115.736662 
L 67.089071 110.440718 
L 60.445645 103.158679 
L 54.941105 101.887062 
L 45.070874 96.265287 
L 43.362547 91.923883 
L 32.733094 88.313373 
L 29.12666 84.709535 
L 21.913792 84.169563 
L 12.802818 78.239519 
L 15.270367 66.255979 
L 14.51111 60.736945 
L 18.497172 55.766034 
L 14.131517 51.692723 
L 10.145455 51.338977 
L 10.714897 46.746091 
L 18.686987 39.87842 
L 28.557218 37.243948 
L 30.645138 35.314464 
L 30.645138 16.481021 
L 37.668192 13.88123 
L 40.325555 15.267316 
L 48.107865 15.614011 
L 72.213983 10.248112 
L 81.135143 7.31262 
L 84.17217 9.556947 
L 79.426851 13.708048 
L 90.81556 19.084747 
z
" clip-path="url(#p5d8e86b375)" style="stroke: #000000; stroke-linejoin: miter"/>
   </g>
   <g id="line2d_1">
    <path d="M 95.750693 19.605929 
L 102.204304 21.518377 
L 106.000552 26.919201 
L 141.685194 33.387058 
L 156.490557 38.121687 
L 161.046027 37.068452 
L 175.851391 40.229978 
L 179.837419 44.27779 
L 187.050286 48.158069 
L 186.670658 53.816824 
L 183.443853 58.249827 
L 191.605791 58.960102 
L 188.378985 63.583433 
L 193.693712 66.969267 
L 192.365047 70.897322 
L 185.721622 71.612395 
L 180.027233 79.136815 
L 177.939312 84.349548 
L 181.925374 85.24969 
L 187.240101 81.831283 
L 192.934455 75.370918 
L 200.147323 72.86439 
L 205.841678 64.651995 
L 213.054545 62.871429 
L 212.485103 67.147639 
L 207.550005 71.076065 
L 197.869588 84.709535 
L 195.212225 92.285303 
L 195.402039 97.714526 
L 191.795605 99.527609 
L 188.568799 106.978459 
L 189.70765 113.360912 
L 186.670658 117.566077 
L 182.494816 128.024879 
L 183.443853 136.319304 
L 187.619729 143.719677 
L 186.29103 153.56501 
L 152.124867 153.56501 
L 87.968383 153.006513 
L 85.500834 148.729586 
L 73.163054 144.831981 
L 70.505691 139.461306 
L 69.366806 131.891509 
L 73.542682 127.840931 
L 68.417735 124.532699 
L 68.038142 119.580295 
L 66.14 115.736662 
L 67.089071 110.440718 
L 60.445645 103.158679 
L 54.941105 101.887062 
L 45.070874 96.265287 
L 43.362547 91.923883 
L 32.733094 88.313373 
L 29.12666 84.709535 
L 21.913792 84.169563 
L 12.802818 78.239519 
L 15.270367 66.255979 
L 14.51111 60.736945 
L 18.497172 55.766034 
L 14.131517 51.692723 
L 10.145455 51.338977 
L 10.714897 46.746091 
L 18.686987 39.87842 
L 28.557218 37.243948 
L 30.645138 35.314464 
L 30.645138 16.481021 
L 37.668192 13.88123 
L 40.325555 15.267316 
L 48.107865 15.614011 
L 72.213983 10.248112 
L 81.135143 7.31262 
L 84.17217 9.556947 
L 79.426851 13.708048 
L 90.81556 19.084747 
L 95.750693 19.605929 
" clip-path="url(#p5d8e86b375)" style="fill: none; stroke: #000000; stroke-width: 0.5; stroke-linecap: square"/>
   </g>
  </g>
 </g>
 <defs>
  <clipPath id="p5d8e86b375">
   <rect x="0" y="0" width="223.2" height="160.877629"/>
  </clipPath>
 </defs>
</svg>
