<?xml version="1.0" encoding="utf-8" standalone="no"?>
<!DOCTYPE svg PUBLIC "-//W3C//DTD SVG 1.1//EN"
  "http://www.w3.org/Graphics/SVG/1.1/DTD/svg11.dtd">
<svg xmlns:xlink="http://www.w3.org/1999/xlink" width="223.2pt" height="124.199286pt" viewBox="0 0 223.2 124.199286" xmlns="http://www.w3.org/2000/svg" version="1.1">
 <metadata>
  <rdf:RDF xmlns:dc="http://purl.org/dc/elements/1.1/" xmlns:cc="http://creativecommons.org/ns#" xmlns:rdf="http://www.w3.org/1999/02/22-rdf-syntax-ns#">
   <cc:Work>
    <dc:type rdf:resource="http://purl.org/dc/dcmitype/StillImage"/>
    <dc:date>2026-04-26T19:22:32.828259</dc:date>
    <dc:format>image/svg+xml</dc:format>
    <dc:creator>
     <cc:Agent>
      <dc:title>Matplotlib v3.10.9, https://matplotlib.org/</dc:title>
     </cc:Agent>
    </dc:creator>
   </cc:Work>
  </rdf:RDF>
 </metadata>
 <defs>
  <style type="text/css">*{stroke-linejoin: round; stroke-linecap: butt}</style>
 </defs>
 <g id="figure_1">
  <g id="patch_1">
   <path d="M 0 124.199286 
L 223.2 124.199286 
L 223.2 0 
L 0 0 
z
" style="fill: #ffffff"/>
  </g>
  <g id="axes_1">
   <g id="patch_2">
    <path d="M 67.302936 5.645422 
L 159.072486 5.645422 
L 212.895773 5.794864 
L 213.054545 61.115857 
L 213.054545 118.394515 
L 164.470695 118.553863 
L 100.96234 118.394515 
L 68.255571 118.553863 
L 10.304227 118.553863 
L 10.304227 89.612029 
L 10.304227 20.055749 
L 10.145455 5.645422 
z
" clip-path="url(#p204131a020)" style="stroke: #000000; stroke-linejoin: miter"/>
   </g>
   <g id="line2d_1">
    <path d="M 67.302936 5.645422 
L 159.072486 5.645422 
L 212.895773 5.794864 
L 213.054545 61.115857 
L 213.054545 118.394515 
L 164.470695 118.553863 
L 100.96234 118.394515 
L 68.255571 118.553863 
L 10.304227 118.553863 
L 10.304227 89.612029 
L 10.304227 20.055749 
L 10.145455 5.645422 
L 67.302936 5.645422 
" clip-path="url(#p204131a020)" style="fill: none; stroke: #000000; stroke-width: 0.5; stroke-linecap: square"/>
   </g>
  </g>
 </g>
 <defs>
  <clipPath id="p204131a020">
   <rect x="0" y="-0" width="223.2" height="124.199286"/>
  </clipPath>
 </defs>
</svg>
