<?xml version="1.0" encoding="utf-8" standalone="no"?>
<!DOCTYPE svg PUBLIC "-//W3C//DTD SVG 1.1//EN"
  "http://www.w3.org/Graphics/SVG/1.1/DTD/svg11.dtd">
<svg xmlns:xlink="http://www.w3.org/1999/xlink" width="223.2pt" height="173.429898pt" viewBox="0 0 223.2 173.429898" xmlns="http://www.w3.org/2000/svg" version="1.1">
 <metadata>
  <rdf:RDF xmlns:dc="http://purl.org/dc/elements/1.1/" xmlns:cc="http://creativecommons.org/ns#" xmlns:rdf="http://www.w3.org/1999/02/22-rdf-syntax-ns#">
   <cc:Work>
    <dc:type rdf:resource="http://purl.org/dc/dcmitype/StillImage"/>
    <dc:date>2026-04-26T19:22:12.800462</dc:date>
    <dc:format>image/svg+xml</dc:format>
    <dc:creator>
     <cc:Agent>
      <dc:title>Matplotlib v3.10.9, https://matplotlib.org/</dc:title>
     </cc:Agent>
    </dc:creator>
   </cc:Work>
  </rdf:RDF>
 </metadata>
 <defs>
  <style type="text/css">*{stroke-linejoin: round; stroke-linecap: butt}</style>
 </defs>
 <g id="figure_1">
  <g id="patch_1">
   <path d="M 0 173.429898 
L 223.2 173.429898 
L 223.2 0 
L 0 0 
z
" style="fill: #ffffff"/>
  </g>
  <g id="axes_1">
   <g id="patch_2">
    <path d="M 191.53023 7.883177 
L 191.667187 8.268741 
L 192.214582 9.810137 
L 193.043009 12.151757 
L 193.871435 14.495944 
L 194.699861 16.840182 
L 195.526286 19.186977 
L 196.354712 21.533181 
L 197.185139 23.881927 
L 198.010564 26.232584 
L 198.83999 28.582627 
L 199.669417 30.933936 
L 200.496842 33.289655 
L 201.325269 35.642848 
L 202.155696 37.998548 
L 202.984122 40.355488 
L 203.809546 42.713662 
L 204.637972 45.074327 
L 205.466399 47.43495 
L 206.080715 49.185982 
L 206.044696 49.198628 
L 205.942643 49.215067 
L 205.912628 49.227712 
L 206.198775 49.447746 
L 206.92715 49.49833 
L 207.259321 49.642498 
L 207.463426 49.980171 
L 208.213812 52.029505 
L 209.422433 55.347035 
L 210.633056 58.664378 
L 211.84568 61.986582 
L 213.054545 65.302084 
L 213.048243 65.306081 
L 212.644886 65.561856 
L 211.727879 65.865607 
L 211.01255 65.65178 
L 210.799842 65.893585 
L 210.572954 65.943546 
L 210.347641 65.959533 
L 210.149114 66.093432 
L 209.778845 66.561108 
L 209.56141 66.758984 
L 209.083999 66.946874 
L 208.422242 67.42063 
L 207.609225 67.612544 
L 207.216897 67.824457 
L 206.506295 68.350284 
L 206.21008 68.506243 
L 203.515781 69.372108 
L 202.25529 70.096114 
L 200.084095 71.964622 
L 198.113002 73.933926 
L 197.611957 74.606551 
L 197.355132 75.097064 
L 197.005346 75.95608 
L 196.371949 76.86732 
L 196.231719 77.139723 
L 196.146636 77.447195 
L 196.146636 77.700599 
L 196.19548 77.999091 
L 196.255354 78.234491 
L 196.288441 78.303611 
L 196.141909 78.757421 
L 195.70704 79.369577 
L 195.508513 80.375641 
L 195.042131 81.049134 
L 194.955472 81.498179 
L 195.108307 81.968317 
L 195.379312 82.520708 
L 195.555781 83.094217 
L 195.341498 84.109045 
L 195.653469 84.47712 
L 196.288441 84.87732 
L 196.305773 85.242441 
L 196.146636 86.998198 
L 196.231719 88.077032 
L 196.420793 89.118948 
L 196.557871 89.269532 
L 196.646106 89.397029 
L 196.685496 89.539589 
L 196.665013 89.691189 
L 196.562598 89.914078 
L 196.542115 90.037575 
L 196.524784 90.239394 
L 196.466486 90.426158 
L 196.365647 90.565734 
L 196.217539 90.618954 
L 195.79685 90.680209 
L 192.856755 91.703566 
L 192.694467 91.873309 
L 192.554237 92.054105 
L 192.442369 92.167608 
L 192.272202 92.23089 
L 191.975987 92.265042 
L 191.783762 92.319285 
L 190.26172 93.053621 
L 189.508576 93.641366 
L 189.524332 94.187977 
L 189.508576 94.295498 
L 189.462884 94.326649 
L 189.415615 94.326649 
L 189.391981 94.342727 
L 189.401435 94.628121 
L 189.33841 94.664299 
L 189.231268 94.584909 
L 189.114673 94.525619 
L 188.972868 94.431157 
L 188.821609 94.264347 
L 188.638838 94.20506 
L 188.394618 94.434172 
L 188.254388 94.524614 
L 187.274356 94.774844 
L 185.747587 95.816091 
L 185.501791 96.113628 
L 185.402527 96.466473 
L 185.511245 96.948028 
L 185.681411 97.211444 
L 185.679835 97.377342 
L 185.270176 97.563356 
L 183.221878 97.804681 
L 182.85476 97.95652 
L 182.523881 98.173728 
L 182.230817 98.421114 
L 181.766011 99.09696 
L 181.37841 99.126128 
L 181.228727 99.202569 
L 181.172005 99.356459 
L 180.956146 99.369535 
L 179.979265 99.904669 
L 179.705109 100.109884 
L 179.213517 99.912716 
L 178.671506 100.184327 
L 178.16731 100.590764 
L 177.787587 100.80003 
L 173.935212 102.090017 
L 169.704689 103.072305 
L 166.028783 104.344715 
L 163.948973 104.590373 
L 162.11811 105.533843 
L 161.593431 105.905437 
L 160.158047 107.442431 
L 159.863407 107.654985 
L 159.074025 107.83531 
L 157.942734 108.585889 
L 156.697999 109.671136 
L 156.41754 109.692299 
L 156.053573 109.510905 
L 155.573011 109.648965 
L 154.758419 110.10852 
L 154.391301 110.243572 
L 154.224286 110.279855 
L 154.032061 110.291949 
L 153.915466 109.779975 
L 153.79887 109.498812 
L 153.628704 109.524005 
L 153.338791 109.644934 
L 152.101935 109.784006 
L 149.322552 110.938032 
L 145.054215 112.297977 
L 142.775878 113.877101 
L 141.950256 114.289603 
L 141.071064 114.466111 
L 140.677161 114.714239 
L 139.916139 115.38404 
L 138.291682 116.314228 
L 137.543265 116.976148 
L 137.382553 117.769344 
L 137.188752 117.727966 
L 136.895688 117.53319 
L 136.51439 117.370714 
L 136.059037 117.431263 
L 135.657256 117.694661 
L 135.370494 118.02973 
L 134.404643 119.759888 
L 134.053281 120.634253 
L 133.865783 121.665289 
L 134.015466 121.79254 
L 134.026496 122.076341 
L 133.977652 122.369247 
L 133.931959 122.528836 
L 133.697192 122.724793 
L 132.903083 123.128851 
L 132.731341 123.28341 
L 132.617897 123.877443 
L 132.342165 124.090622 
L 131.992379 124.174482 
L 131.672529 124.377568 
L 131.582719 124.55338 
L 131.544904 124.767596 
L 131.540178 125.326411 
L 131.478729 125.459808 
L 131.34165 125.593207 
L 131.207723 125.75996 
L 131.006045 126.447238 
L 130.672014 126.714085 
L 129.942505 127.106292 
L 128.793883 128.901887 
L 128.429916 129.172892 
L 128.318048 129.219409 
L 128.088008 129.435819 
L 127.971413 129.512677 
L 127.845364 129.542005 
L 127.694105 129.512677 
L 125.434675 129.452 
L 125.111674 129.589536 
L 124.246662 130.53114 
L 124.06074 130.622173 
L 123.900027 130.634311 
L 123.745617 130.677805 
L 123.575451 130.871004 
L 123.220938 130.331884 
L 122.541848 130.178147 
L 121.048167 130.191296 
L 121.104889 130.288392 
L 121.193123 130.53114 
L 120.38956 130.549347 
L 118.153765 131.36364 
L 118.248301 130.760749 
L 117.937906 130.368296 
L 117.506187 130.094201 
L 117.21785 129.836301 
L 117.085499 130.021381 
L 116.551366 129.700781 
L 114.826069 129.172892 
L 114.531429 129.375143 
L 113.504129 129.766518 
L 113.166948 129.836301 
L 112.899093 130.064871 
L 111.915911 131.54978 
L 111.033567 132.126447 
L 108.057233 133.401385 
L 107.639695 133.749511 
L 106.062506 135.840722 
L 103.580915 138.60516 
L 102.848254 139.182511 
L 98.368785 140.906791 
L 93.432388 142.20995 
L 91.735452 143.628949 
L 89.343671 144.774524 
L 89.017519 144.851579 
L 88.631493 144.780607 
L 87.941374 144.512949 
L 87.486022 144.510921 
L 87.074787 144.654887 
L 86.236561 145.109112 
L 85.845808 145.205437 
L 81.837448 145.192255 
L 80.99607 145.019887 
L 80.575381 144.729913 
L 80.318556 144.624471 
L 80.205112 144.756274 
L 80.116877 144.815079 
L 79.601652 145.019887 
L 77.933077 145.360573 
L 74.62744 145.546133 
L 74.290259 145.643478 
L 73.656862 145.971016 
L 73.371676 146.042001 
L 72.558659 145.995354 
L 72.204146 146.039973 
L 71.972531 146.227582 
L 69.306593 146.976046 
L 68.654289 147.402042 
L 66.791914 149.80135 
L 66.260932 150.299588 
L 65.983624 150.649698 
L 65.737828 151.575301 
L 64.820821 153.052285 
L 64.218937 153.755877 
L 63.487852 154.166089 
L 60.163307 155.189702 
L 59.399135 155.702586 
L 58.704289 156.461325 
L 58.439586 156.881869 
L 58.341898 157.099263 
L 58.231605 157.347142 
L 58.220576 157.385746 
L 58.092951 157.820576 
L 58.042531 158.265595 
L 58.009444 158.33672 
L 57.554091 159.822389 
L 57.513125 160.072405 
L 57.617116 161.085782 
L 57.55094 161.448685 
L 57.17752 161.592022 
L 56.759982 161.503579 
L 56.312508 161.269772 
L 56.016292 160.942456 
L 56.047805 160.567385 
L 56.366079 160.413907 
L 56.759982 160.456596 
L 57.097163 160.408825 
L 57.238968 159.978902 
L 57.163339 159.969755 
L 56.867124 159.474821 
L 56.841914 159.373197 
L 56.804099 159.277671 
L 56.83246 159.164872 
L 56.83246 159.072398 
L 56.709562 159.033783 
L 56.596118 159.084592 
L 56.580362 159.195358 
L 56.596118 159.312223 
L 56.577211 159.373197 
L 56.440132 159.663847 
L 56.378683 159.714661 
L 56.280995 159.689254 
L 56.0998 159.572382 
L 55.981629 159.545959 
L 55.54676 159.574415 
L 55.343505 159.651652 
L 55.256847 159.80003 
L 55.121344 160.184204 
L 54.804646 160.513515 
L 54.446981 160.594828 
L 54.185429 160.226892 
L 53.93018 160.411874 
L 53.849824 160.629387 
L 53.934907 161.250458 
L 54.081439 161.088832 
L 54.198034 161.050204 
L 54.795192 161.127459 
L 54.885002 161.21488 
L 54.847187 161.513745 
L 54.72744 161.794325 
L 54.446981 162.080001 
L 54.119254 162.251819 
L 53.867155 162.195901 
L 53.310964 161.912254 
L 53.140798 161.778059 
L 53.025778 161.573723 
L 53.027353 161.45885 
L 52.981661 161.372443 
L 52.732714 161.250458 
L 52.256878 161.192516 
L 51.864551 161.360244 
L 51.146071 161.948853 
L 51.125588 161.836007 
L 51.051534 161.690631 
L 51.013719 161.592022 
L 51.103529 161.336864 
L 50.980631 160.997347 
L 50.741138 160.658864 
L 50.484313 160.413907 
L 49.685477 160.052078 
L 48.877187 160.011425 
L 48.144527 160.21063 
L 47.564701 160.567385 
L 46.540552 161.662166 
L 45.437623 163.158768 
L 45.396657 163.294008 
L 45.254852 163.59907 
L 45.100442 163.744488 
L 45.027963 163.397727 
L 44.935002 163.367221 
L 44.47965 163.589918 
L 43.91558 163.764827 
L 42.661392 164.523496 
L 42.231249 164.578417 
L 41.843648 164.523496 
L 41.479682 164.531633 
L 40.756475 165.019832 
L 40.329484 165.044243 
L 39.948185 164.873368 
L 39.727599 164.523496 
L 39.990727 164.550956 
L 40.464986 164.666901 
L 40.732841 164.694362 
L 40.896705 164.521462 
L 40.888826 164.191949 
L 40.756475 163.98652 
L 40.534313 164.181779 
L 40.026966 164.099403 
L 39.404599 164.413657 
L 38.262279 165.20495 
L 37.707663 165.390073 
L 37.386238 165.405331 
L 36.894646 165.194778 
L 36.308518 165.508067 
L 36.015454 165.54672 
L 35.643609 165.243602 
L 35.301701 164.36484 
L 35.01809 164.181779 
L 34.61946 164.111607 
L 34.301186 163.934655 
L 33.756024 163.483145 
L 33.444052 163.288924 
L 33.080086 163.12623 
L 32.675153 163.013363 
L 32.243435 162.970657 
L 31.978732 162.854743 
L 31.236618 162.302653 
L 30.849017 162.117617 
L 30.163625 162.134901 
L 29.980854 162.032218 
L 29.686214 161.75976 
L 29.49714 161.640818 
L 29.322247 161.592022 
L 29.0733 161.71503 
L 27.970371 163.110977 
L 27.869532 163.239098 
L 27.601677 163.419082 
L 27.195169 163.483145 
L 26.755573 163.400778 
L 26.643704 163.164869 
L 27.010822 161.164053 
L 27.025003 160.198433 
L 26.854836 159.335596 
L 26.462509 158.536889 
L 25.87638 157.848007 
L 25.800751 157.591982 
L 25.739302 157.281107 
L 25.602224 157.079961 
L 25.465145 156.91844 
L 25.403696 156.725432 
L 25.376911 156.233795 
L 25.301281 155.763526 
L 25.175232 155.324775 
L 24.995612 154.92769 
L 24.311796 153.942703 
L 24.203079 153.649267 
L 24.174718 153.455343 
L 23.938376 152.866501 
L 23.754029 152.231019 
L 23.673673 152.030033 
L 22.512445 150.199126 
L 22.076 148.424551 
L 22.332825 147.645481 
L 22.501416 146.802614 
L 22.616436 142.377172 
L 23.011915 141.603936 
L 23.085969 141.37999 
L 23.120632 141.19253 
L 23.202564 141.036486 
L 23.40897 140.906791 
L 23.15372 140.121585 
L 23.21832 138.392466 
L 23.133237 137.508345 
L 22.493538 135.976382 
L 22.408455 135.711138 
L 22.208352 133.670574 
L 22.094908 133.4449 
L 20.825034 131.740368 
L 20.388946 130.413874 
L 19.979928 129.291835 
L 19.54339 128.509925 
L 19.325255 126.640778 
L 19.161438 125.757184 
L 18.970234 125.00948 
L 18.614885 123.751946 
L 18.062913 121.44715 
L 17.906927 120.9493 
L 17.81239 120.17989 
L 17.56817 119.463079 
L 17.498843 118.671664 
L 17.448423 118.447584 
L 17.339706 118.310315 
L 16.985193 117.98835 
L 16.906412 117.846045 
L 16.942651 117.551355 
L 17.035613 117.430254 
L 17.180569 117.474657 
L 17.377521 117.676496 
L 17.580775 118.169011 
L 17.81239 119.302566 
L 18.110181 119.617539 
L 18.119635 118.897771 
L 18.08182 118.562651 
L 17.965225 118.260858 
L 18.248835 117.238516 
L 18.034552 116.414117 
L 17.656404 115.663484 
L 17.448423 114.861508 
L 17.490965 114.682971 
L 17.670585 114.4298 
L 17.713127 114.283552 
L 17.691068 114.131255 
L 17.642224 114.059647 
L 17.59338 114.017288 
L 17.509872 113.71574 
L 17.377521 113.590688 
L 17.245169 113.510011 
L 17.186872 113.423284 
L 17.141179 113.296222 
L 17.046642 113.176221 
L 16.952105 113.009838 
L 16.805573 112.164891 
L 16.786666 111.890664 
L 16.575534 111.01968 
L 15.652224 109.568346 
L 15.441092 108.671532 
L 15.401701 108.153664 
L 15.434789 107.883666 
L 15.586048 107.925979 
L 15.675858 108.11941 
L 15.64277 108.284638 
L 15.582897 108.480096 
L 15.586048 108.755161 
L 15.724702 109.214641 
L 15.959469 109.719508 
L 16.273016 110.16899 
L 16.641709 110.461274 
L 16.663768 110.103481 
L 16.786666 109.278125 
L 16.77091 108.774306 
L 16.564504 107.887696 
L 16.479421 107.067711 
L 16.380157 106.761507 
L 16.214718 106.499636 
L 15.721551 105.909465 
L 15.510419 105.589228 
L 15.37334 105.177379 
L 15.321345 104.59138 
L 15.415882 103.256504 
L 15.321345 102.826716 
L 15.061369 102.41709 
L 14.382279 102.037687 
L 13.761488 101.37153 
L 13.370736 101.0576 
L 12.94532 100.80003 
L 12.532509 100.614909 
L 12.103942 100.49217 
L 11.719492 100.49217 
L 11.439033 100.701432 
L 11.331892 101.206513 
L 11.119184 101.275941 
L 10.679588 101.07068 
L 10.298289 100.659177 
L 10.273079 100.109884 
L 10.145455 99.766857 
L 10.362889 99.739697 
L 11.007315 99.924787 
L 11.338194 99.864431 
L 11.549326 99.695437 
L 11.667497 99.434915 
L 11.728946 99.09696 
L 11.710039 98.836468 
L 11.511511 98.470391 
L 11.464243 98.167694 
L 11.968439 97.002318 
L 12.126001 96.734891 
L 12.22684 97.051583 
L 12.177996 97.458785 
L 12.037766 97.84088 
L 11.873903 98.084229 
L 12.244172 98.295408 
L 12.538812 98.523692 
L 13.323467 99.350424 
L 13.418004 99.526449 
L 13.45897 99.848336 
L 13.406975 100.310078 
L 13.47315 100.472049 
L 13.723673 100.614909 
L 13.74258 100.41571 
L 13.71737 100.285933 
L 13.660648 100.194387 
L 13.591321 100.109884 
L 13.881234 99.727626 
L 13.99783 99.169377 
L 13.955288 97.277802 
L 13.770941 96.40314 
L 13.45897 95.70653 
L 13.380189 95.359767 
L 13.389643 95.091418 
L 13.43376 94.835143 
L 13.45897 94.525619 
L 13.444789 94.235206 
L 13.402248 93.950837 
L 13.323467 93.653423 
L 13.046159 93.035538 
L 12.258352 91.703566 
L 12.299318 91.501691 
L 12.532509 91.155207 
L 12.348162 90.909166 
L 12.173269 90.618954 
L 12.045645 90.276545 
L 11.993649 89.868897 
L 12.196903 88.993466 
L 12.149635 88.62607 
L 11.728946 88.444389 
L 11.870751 88.065991 
L 12.064552 87.857232 
L 12.293016 87.686618 
L 12.532509 87.433718 
L 12.693222 87.182838 
L 12.772002 86.968094 
L 12.794061 86.704192 
L 12.800363 86.315889 
L 12.901203 85.625647 
L 13.159603 85.148149 
L 13.501511 84.811119 
L 13.856024 84.542314 
L 14.208962 84.182257 
L 14.409065 83.749018 
L 14.495724 83.186466 
L 14.659587 79.815467 
L 14.598138 78.692302 
L 14.068732 75.235218 
L 13.993103 73.405499 
L 13.969469 73.235373 
L 13.856024 72.729035 
L 13.871781 72.747046 
L 13.881234 72.675002 
L 13.879659 72.551928 
L 13.856024 72.407847 
L 13.799302 72.278777 
L 13.641741 72.028652 
L 13.618107 71.971625 
L 14.544197 71.571846 
L 15.224547 71.217393 
L 15.722804 70.7931 
L 15.888889 70.399328 
L 15.866878 70.001777 
L 15.814851 69.628388 
L 15.888889 69.307093 
L 16.094995 69.197883 
L 16.847382 69.027724 
L 17.131528 68.903282 
L 17.977964 68.29128 
L 18.396179 67.907866 
L 18.638303 67.486399 
L 19.138561 65.882114 
L 19.216601 65.417681 
L 19.242614 64.898737 
L 19.338664 64.561262 
L 19.586791 64.43313 
L 20.07104 64.543501 
L 20.84844 64.832762 
L 21.17861 64.756639 
L 21.296671 64.298658 
L 21.288969 64.259997 
L 21.174608 63.68597 
L 20.998517 63.311799 
L 20.956496 62.974436 
L 21.234639 62.464632 
L 21.408728 62.311194 
L 21.58682 62.216091 
L 21.732895 62.086753 
L 21.814937 61.829356 
L 21.788924 61.511115 
L 21.657856 61.244874 
L 21.458754 61.054711 
L 20.740384 60.811314 
L 20.51727 60.58821 
L 20.283149 59.692099 
L 19.874939 58.735335 
L 19.7989 58.319742 
L 19.928967 57.710355 
L 20.241128 56.764125 
L 20.325171 56.294247 
L 20.327172 55.759834 
L 20.217115 55.219151 
L 20.065037 54.811463 
L 19.986997 54.416471 
L 20.101056 53.908854 
L 20.507265 52.939344 
L 20.617321 52.442011 
L 20.599312 51.876406 
L 20.717373 51.393102 
L 21.118579 51.00599 
L 21.630843 50.741608 
L 22.07307 50.620174 
L 22.507293 50.359609 
L 22.576329 49.868875 
L 22.376226 49.344051 
L 21.99603 48.99125 
L 20.889461 48.548707 
L 20.944489 48.436181 
L 21.874968 47.049434 
L 23.561836 45.292899 
L 25.264712 43.999309 
L 25.687929 43.803534 
L 26.115149 43.732804 
L 26.46733 43.832584 
L 27.125669 43.86416 
L 27.43983 43.962679 
L 28.866564 44.707959 
L 29.688987 45.297953 
L 31.039682 47.13159 
L 31.840094 47.900142 
L 32.227293 48.065751 
L 32.578473 48.069544 
L 33.302846 47.969671 
L 34.06924 48.053109 
L 34.407414 48.034146 
L 34.861648 47.869802 
L 34.976707 47.934274 
L 34.976707 48.202288 
L 34.926681 48.689051 
L 35.003721 48.885036 
L 35.067754 49.00263 
L 35.182813 49.077235 
L 35.411931 49.137931 
L 35.868165 49.055738 
L 36.170321 48.692845 
L 36.418449 48.214931 
L 36.7126 47.792688 
L 37.130815 47.523434 
L 37.460985 47.567677 
L 38.204367 48.031617 
L 38.707626 48.120112 
L 39.077816 47.911519 
L 39.371968 47.471608 
L 39.655113 46.866167 
L 39.94026 46.618452 
L 40.334463 46.679115 
L 41.150883 46.966015 
L 41.519072 46.935681 
L 43.005837 46.517347 
L 44.879801 46.278497 
L 46.061408 46.334102 
L 47.390092 46.666477 
L 47.935372 46.627298 
L 49.148997 46.071251 
L 49.571214 45.958787 
L 53.493231 45.990378 
L 55.88321 46.010361 
L 56.364708 46.014387 
L 59.618381 46.042187 
L 60.716946 46.311354 
L 63.864565 48.534799 
L 64.74902 48.888829 
L 68.852131 49.400956 
L 73.663606 49.999142 
L 77.325489 50.455738 
L 82.023906 51.04141 
L 85.223551 50.505069 
L 89.525764 49.785405 
L 90.244134 50.290043 
L 91.494777 52.402783 
L 92.927514 54.82539 
L 94.564356 57.587474 
L 94.809482 57.777498 
L 95.080999 57.791757 
L 97.631934 57.925722 
L 98.262258 57.818037 
L 98.834552 57.536802 
L 101.209774 55.845944 
L 103.416909 54.279751 
L 103.436148 54.248454 
L 104.005212 53.322821 
L 105.299878 48.997572 
L 106.215349 45.94615 
L 106.542517 45.189297 
L 108.425485 42.344959 
L 111.314972 37.984672 
L 114.375546 33.364 
L 116.13345 30.72362 
L 117.635222 28.457385 
L 118.070446 28.09175 
L 120.551723 26.56598 
L 123.877433 24.525747 
L 127.587341 22.24829 
L 130.90905 20.213243 
L 133.692482 18.507541 
L 134.554925 17.977004 
L 136.354851 17.190424 
L 138.853136 16.767376 
L 141.954731 16.24396 
L 145.056327 15.720608 
L 148.157922 15.197322 
L 151.257516 14.6741 
L 154.359111 14.150944 
L 157.460707 13.626598 
L 160.562302 13.104826 
L 163.663897 12.581865 
L 166.762491 12.057089 
L 169.867088 11.535513 
L 172.966682 11.012748 
L 176.066277 10.489422 
L 179.167872 9.966789 
L 182.269467 9.444222 
L 185.371062 8.921093 
L 188.472658 8.398658 
z
" clip-path="url(#pace9b3663d)" style="stroke: #000000; stroke-linejoin: miter"/>
   </g>
   <g id="line2d_1">
    <path d="M 191.53023 7.883177 
L 205.466399 47.43495 
L 206.044696 49.198628 
L 205.912628 49.227712 
L 206.198775 49.447746 
L 206.92715 49.49833 
L 207.259321 49.642498 
L 207.463426 49.980171 
L 213.048243 65.306081 
L 212.644886 65.561856 
L 211.727879 65.865607 
L 211.01255 65.65178 
L 210.799842 65.893585 
L 210.149114 66.093432 
L 209.56141 66.758984 
L 209.083999 66.946874 
L 208.422242 67.42063 
L 207.609225 67.612544 
L 207.216897 67.824457 
L 206.21008 68.506243 
L 203.515781 69.372108 
L 202.25529 70.096114 
L 200.084095 71.964622 
L 198.113002 73.933926 
L 197.355132 75.097064 
L 197.005346 75.95608 
L 196.231719 77.139723 
L 196.146636 77.700599 
L 196.288441 78.303611 
L 196.141909 78.757421 
L 195.70704 79.369577 
L 195.508513 80.375641 
L 195.042131 81.049134 
L 194.955472 81.498179 
L 195.555781 83.094217 
L 195.341498 84.109045 
L 195.653469 84.47712 
L 196.288441 84.87732 
L 196.305773 85.242441 
L 196.146636 86.998198 
L 196.420793 89.118948 
L 196.685496 89.539589 
L 196.466486 90.426158 
L 196.217539 90.618954 
L 195.79685 90.680209 
L 192.694467 91.873309 
L 192.442369 92.167608 
L 190.26172 93.053621 
L 189.508576 93.641366 
L 189.462884 94.326649 
L 189.391981 94.342727 
L 189.33841 94.664299 
L 188.638838 94.20506 
L 188.254388 94.524614 
L 187.274356 94.774844 
L 185.501791 96.113628 
L 185.402527 96.466473 
L 185.679835 97.377342 
L 185.270176 97.563356 
L 182.85476 97.95652 
L 182.230817 98.421114 
L 181.766011 99.09696 
L 181.228727 99.202569 
L 181.172005 99.356459 
L 180.956146 99.369535 
L 179.705109 100.109884 
L 179.213517 99.912716 
L 178.671506 100.184327 
L 177.787587 100.80003 
L 173.935212 102.090017 
L 169.704689 103.072305 
L 166.028783 104.344715 
L 163.948973 104.590373 
L 161.593431 105.905437 
L 159.863407 107.654985 
L 159.074025 107.83531 
L 157.942734 108.585889 
L 156.697999 109.671136 
L 156.41754 109.692299 
L 156.053573 109.510905 
L 155.573011 109.648965 
L 154.391301 110.243572 
L 154.032061 110.291949 
L 153.79887 109.498812 
L 152.101935 109.784006 
L 149.322552 110.938032 
L 145.054215 112.297977 
L 142.775878 113.877101 
L 141.950256 114.289603 
L 141.071064 114.466111 
L 140.677161 114.714239 
L 139.916139 115.38404 
L 138.291682 116.314228 
L 137.543265 116.976148 
L 137.382553 117.769344 
L 137.188752 117.727966 
L 136.51439 117.370714 
L 136.059037 117.431263 
L 135.657256 117.694661 
L 135.370494 118.02973 
L 134.404643 119.759888 
L 134.053281 120.634253 
L 133.865783 121.665289 
L 134.015466 121.79254 
L 133.977652 122.369247 
L 133.931959 122.528836 
L 133.697192 122.724793 
L 132.731341 123.28341 
L 132.617897 123.877443 
L 132.342165 124.090622 
L 131.992379 124.174482 
L 131.582719 124.55338 
L 131.34165 125.593207 
L 131.207723 125.75996 
L 131.006045 126.447238 
L 130.672014 126.714085 
L 129.942505 127.106292 
L 128.793883 128.901887 
L 127.845364 129.542005 
L 127.694105 129.512677 
L 125.434675 129.452 
L 125.111674 129.589536 
L 124.06074 130.622173 
L 123.745617 130.677805 
L 123.575451 130.871004 
L 123.220938 130.331884 
L 122.541848 130.178147 
L 121.048167 130.191296 
L 121.104889 130.288392 
L 121.193123 130.53114 
L 120.38956 130.549347 
L 118.153765 131.36364 
L 118.248301 130.760749 
L 117.937906 130.368296 
L 117.21785 129.836301 
L 117.085499 130.021381 
L 116.551366 129.700781 
L 114.826069 129.172892 
L 114.531429 129.375143 
L 112.899093 130.064871 
L 111.915911 131.54978 
L 111.033567 132.126447 
L 108.057233 133.401385 
L 107.639695 133.749511 
L 106.062506 135.840722 
L 103.580915 138.60516 
L 102.848254 139.182511 
L 98.368785 140.906791 
L 93.432388 142.20995 
L 91.735452 143.628949 
L 89.017519 144.851579 
L 88.631493 144.780607 
L 87.941374 144.512949 
L 87.486022 144.510921 
L 87.074787 144.654887 
L 85.845808 145.205437 
L 81.837448 145.192255 
L 80.99607 145.019887 
L 80.318556 144.624471 
L 80.116877 144.815079 
L 79.601652 145.019887 
L 77.933077 145.360573 
L 74.290259 145.643478 
L 73.371676 146.042001 
L 72.204146 146.039973 
L 71.972531 146.227582 
L 69.306593 146.976046 
L 68.654289 147.402042 
L 66.791914 149.80135 
L 65.983624 150.649698 
L 65.737828 151.575301 
L 64.820821 153.052285 
L 64.218937 153.755877 
L 63.487852 154.166089 
L 60.163307 155.189702 
L 59.399135 155.702586 
L 58.439586 156.881869 
L 58.092951 157.820576 
L 58.009444 158.33672 
L 57.513125 160.072405 
L 57.55094 161.448685 
L 57.17752 161.592022 
L 56.759982 161.503579 
L 56.312508 161.269772 
L 56.016292 160.942456 
L 56.047805 160.567385 
L 56.366079 160.413907 
L 57.097163 160.408825 
L 57.238968 159.978902 
L 57.163339 159.969755 
L 56.804099 159.277671 
L 56.83246 159.072398 
L 56.596118 159.084592 
L 56.440132 159.663847 
L 56.280995 159.689254 
L 55.981629 159.545959 
L 55.343505 159.651652 
L 54.804646 160.513515 
L 54.446981 160.594828 
L 54.185429 160.226892 
L 53.93018 160.411874 
L 53.849824 160.629387 
L 53.934907 161.250458 
L 54.198034 161.050204 
L 54.885002 161.21488 
L 54.72744 161.794325 
L 54.446981 162.080001 
L 54.119254 162.251819 
L 53.867155 162.195901 
L 53.140798 161.778059 
L 52.732714 161.250458 
L 52.256878 161.192516 
L 51.864551 161.360244 
L 51.146071 161.948853 
L 51.125588 161.836007 
L 51.013719 161.592022 
L 51.103529 161.336864 
L 50.741138 160.658864 
L 50.484313 160.413907 
L 49.685477 160.052078 
L 48.877187 160.011425 
L 48.144527 160.21063 
L 47.564701 160.567385 
L 46.540552 161.662166 
L 45.396657 163.294008 
L 45.100442 163.744488 
L 44.935002 163.367221 
L 42.231249 164.578417 
L 41.479682 164.531633 
L 40.756475 165.019832 
L 40.329484 165.044243 
L 39.948185 164.873368 
L 39.727599 164.523496 
L 40.732841 164.694362 
L 40.896705 164.521462 
L 40.888826 164.191949 
L 40.756475 163.98652 
L 40.534313 164.181779 
L 40.026966 164.099403 
L 39.404599 164.413657 
L 38.262279 165.20495 
L 37.386238 165.405331 
L 36.894646 165.194778 
L 36.015454 165.54672 
L 35.643609 165.243602 
L 35.301701 164.36484 
L 35.01809 164.181779 
L 34.61946 164.111607 
L 34.301186 163.934655 
L 33.444052 163.288924 
L 32.675153 163.013363 
L 31.978732 162.854743 
L 30.849017 162.117617 
L 29.980854 162.032218 
L 29.49714 161.640818 
L 29.322247 161.592022 
L 29.0733 161.71503 
L 27.601677 163.419082 
L 27.195169 163.483145 
L 26.755573 163.400778 
L 26.643704 163.164869 
L 27.010822 161.164053 
L 27.025003 160.198433 
L 26.854836 159.335596 
L 26.462509 158.536889 
L 25.800751 157.591982 
L 25.602224 157.079961 
L 25.403696 156.725432 
L 25.301281 155.763526 
L 24.995612 154.92769 
L 24.203079 153.649267 
L 24.174718 153.455343 
L 23.673673 152.030033 
L 22.512445 150.199126 
L 22.076 148.424551 
L 22.501416 146.802614 
L 22.616436 142.377172 
L 23.40897 140.906791 
L 23.15372 140.121585 
L 23.21832 138.392466 
L 23.133237 137.508345 
L 22.408455 135.711138 
L 22.094908 133.4449 
L 20.825034 131.740368 
L 19.979928 129.291835 
L 19.54339 128.509925 
L 19.161438 125.757184 
L 17.56817 119.463079 
L 17.448423 118.447584 
L 16.906412 117.846045 
L 17.035613 117.430254 
L 17.180569 117.474657 
L 17.377521 117.676496 
L 17.580775 118.169011 
L 17.81239 119.302566 
L 18.110181 119.617539 
L 18.08182 118.562651 
L 17.965225 118.260858 
L 18.248835 117.238516 
L 18.034552 116.414117 
L 17.656404 115.663484 
L 17.490965 114.682971 
L 17.713127 114.283552 
L 17.59338 114.017288 
L 17.377521 113.590688 
L 17.186872 113.423284 
L 16.805573 112.164891 
L 16.786666 111.890664 
L 16.575534 111.01968 
L 15.652224 109.568346 
L 15.401701 108.153664 
L 15.434789 107.883666 
L 15.586048 107.925979 
L 15.64277 108.284638 
L 15.586048 108.755161 
L 15.959469 109.719508 
L 16.273016 110.16899 
L 16.641709 110.461274 
L 16.77091 108.774306 
L 16.214718 106.499636 
L 15.510419 105.589228 
L 15.37334 105.177379 
L 15.321345 104.59138 
L 15.415882 103.256504 
L 15.321345 102.826716 
L 15.061369 102.41709 
L 14.382279 102.037687 
L 13.370736 101.0576 
L 12.532509 100.614909 
L 11.719492 100.49217 
L 11.439033 100.701432 
L 11.331892 101.206513 
L 11.119184 101.275941 
L 10.679588 101.07068 
L 10.298289 100.659177 
L 10.273079 100.109884 
L 10.145455 99.766857 
L 10.362889 99.739697 
L 11.007315 99.924787 
L 11.338194 99.864431 
L 11.549326 99.695437 
L 11.728946 99.09696 
L 11.710039 98.836468 
L 11.464243 98.167694 
L 12.126001 96.734891 
L 12.22684 97.051583 
L 12.037766 97.84088 
L 11.873903 98.084229 
L 12.538812 98.523692 
L 13.418004 99.526449 
L 13.47315 100.472049 
L 13.723673 100.614909 
L 13.660648 100.194387 
L 13.591321 100.109884 
L 13.881234 99.727626 
L 13.99783 99.169377 
L 13.955288 97.277802 
L 13.770941 96.40314 
L 13.380189 95.359767 
L 13.402248 93.950837 
L 13.046159 93.035538 
L 12.258352 91.703566 
L 12.299318 91.501691 
L 12.532509 91.155207 
L 12.173269 90.618954 
L 11.993649 89.868897 
L 12.196903 88.993466 
L 12.149635 88.62607 
L 11.728946 88.444389 
L 12.064552 87.857232 
L 12.532509 87.433718 
L 12.772002 86.968094 
L 12.901203 85.625647 
L 13.159603 85.148149 
L 14.208962 84.182257 
L 14.409065 83.749018 
L 14.495724 83.186466 
L 14.659587 79.815467 
L 14.598138 78.692302 
L 14.068732 75.235218 
L 13.856024 72.407847 
L 13.618107 71.971625 
L 15.224547 71.217393 
L 15.722804 70.7931 
L 15.888889 70.399328 
L 15.888889 69.307093 
L 16.094995 69.197883 
L 17.131528 68.903282 
L 18.396179 67.907866 
L 18.638303 67.486399 
L 19.216601 65.417681 
L 19.338664 64.561262 
L 19.586791 64.43313 
L 21.17861 64.756639 
L 21.288969 64.259997 
L 20.956496 62.974436 
L 21.408728 62.311194 
L 21.732895 62.086753 
L 21.814937 61.829356 
L 21.657856 61.244874 
L 21.458754 61.054711 
L 20.740384 60.811314 
L 20.51727 60.58821 
L 20.283149 59.692099 
L 19.7989 58.319742 
L 20.327172 55.759834 
L 19.986997 54.416471 
L 20.101056 53.908854 
L 20.617321 52.442011 
L 20.599312 51.876406 
L 20.717373 51.393102 
L 21.118579 51.00599 
L 22.507293 50.359609 
L 22.576329 49.868875 
L 22.376226 49.344051 
L 21.99603 48.99125 
L 20.889461 48.548707 
L 20.944489 48.436181 
L 21.874968 47.049434 
L 23.561836 45.292899 
L 25.687929 43.803534 
L 26.115149 43.732804 
L 26.46733 43.832584 
L 27.43983 43.962679 
L 28.866564 44.707959 
L 29.688987 45.297953 
L 31.039682 47.13159 
L 31.840094 47.900142 
L 32.227293 48.065751 
L 34.407414 48.034146 
L 34.976707 47.934274 
L 35.067754 49.00263 
L 35.411931 49.137931 
L 35.868165 49.055738 
L 36.170321 48.692845 
L 36.7126 47.792688 
L 37.130815 47.523434 
L 37.460985 47.567677 
L 38.204367 48.031617 
L 38.707626 48.120112 
L 39.077816 47.911519 
L 39.94026 46.618452 
L 40.334463 46.679115 
L 41.150883 46.966015 
L 41.519072 46.935681 
L 43.005837 46.517347 
L 44.879801 46.278497 
L 46.061408 46.334102 
L 47.390092 46.666477 
L 47.935372 46.627298 
L 49.571214 45.958787 
L 59.618381 46.042187 
L 60.716946 46.311354 
L 63.864565 48.534799 
L 64.74902 48.888829 
L 82.023906 51.04141 
L 89.525764 49.785405 
L 90.244134 50.290043 
L 94.564356 57.587474 
L 94.809482 57.777498 
L 97.631934 57.925722 
L 98.262258 57.818037 
L 98.834552 57.536802 
L 103.436148 54.248454 
L 104.005212 53.322821 
L 106.542517 45.189297 
L 117.635222 28.457385 
L 118.070446 28.09175 
L 134.554925 17.977004 
L 136.354851 17.190424 
L 191.53023 7.883177 
L 191.53023 7.883177 
" clip-path="url(#pace9b3663d)" style="fill: none; stroke: #000000; stroke-width: 0.5; stroke-linecap: square"/>
   </g>
  </g>
 </g>
 <defs>
  <clipPath id="pace9b3663d">
   <rect x="0" y="0" width="223.2" height="173.429898"/>
  </clipPath>
 </defs>
</svg>
